<svg width="32" height="32" viewBox="0 0 32 32" fill="none" xmlns="http://www.w3.org/2000/svg">
    <defs>
        <linearGradient id="paint0_linear" x1="30.2041" y1="32" x2="6.59592" y2="2.84082" gradientUnits="userSpaceOnUse">
            <stop stop-color="#5A81FF"/>
            <stop offset="0.524" stop-color="#E40C5B"/>
            <stop offset="1" stop-color="#FF4C3B"/>
        </linearGradient>
    </defs>
    <path d="M16 31C24.2843 31 31 24.2843 31 16C31 7.71573 24.2843 1 16 1C7.71573 1 1 7.71573 1 16C1 24.2843 7.71573 31 16 31Z" fill="white"/>
    <path fill-rule="evenodd" clip-rule="evenodd" d="M16 32C24.8366 32 32 24.8366 32 16C32 7.16343 24.8366 0 16 0C7.16343 0 0 7.16343 0 16C0 24.8366 7.16343 32 16 32ZM16.0653 30.498C24.0723 30.498 30.5633 24.007 30.5633 16C30.5633 7.99301 24.0723 1.50204 16.0653 1.50204C8.05832 1.50204 1.56735 7.99301 1.56735 16C1.56735 24.007 8.05832 30.498 16.0653 30.498ZM16 29.3878C23.3938 29.3878 29.3878 23.3938 29.3878 16C29.3878 8.60617 23.3938 2.61224 16 2.61224C8.60617 2.61224 2.61224 8.60617 2.61224 16C2.61224 23.3938 8.60617 29.3878 16 29.3878ZM16.0327 27.7551C22.5428 27.7551 27.8204 22.4775 27.8204 15.9673C27.8204 9.45718 22.5428 4.17959 16.0327 4.17959C9.52248 4.17959 4.2449 9.45718 4.2449 15.9673C4.2449 22.4775 9.52248 27.7551 16.0327 27.7551ZM15.3674 6.44336L23.9013 21.248L24.8163 19.6604L17.1976 6.44336H15.3674V6.44336ZM7.18367 19.6337L14.4876 6.96261L14.5027 6.98873L14.5171 6.96379L23.1728 21.9798H21.3426L19.1559 18.1863C18.1622 17.8721 17.1043 17.7027 16.0068 17.7027C15.441 17.7027 14.8889 17.7422 14.3522 17.8211L15.4062 15.9954C15.6052 15.9856 15.8055 15.9807 16.0068 15.9807C16.6773 15.9807 17.3351 16.035 17.976 16.1394L14.5021 10.1127L8.09881 21.2212L7.18367 19.6337ZM12.1492 19.4411L15.4312 13.7473L14.5162 12.1598L8.85571 21.9797H10.6859L10.7033 21.9495C12.273 21.0044 14.0743 20.5267 16.0412 20.5267C17.2972 20.5267 18.5013 20.7485 19.6165 21.1553L18.3904 19.0315C17.6165 18.8803 16.8298 18.8044 16.0412 18.8048C14.6801 18.8048 13.3712 19.0284 12.1492 19.4411Z" fill="url(#paint0_linear)"/>
</svg>
