<svg width="32" height="32" viewBox="0 0 32 32" fill="none" xmlns="http://www.w3.org/2000/svg">
    <path d="M16 32C24.8366 32 32 24.8366 32 16C32 7.16344 24.8366 0 16 0C7.16344 0 0 7.16344 0 16C0 24.8366 7.16344 32 16 32Z" fill="white"/>
    <path d="M12.9751 10.2633C13.9786 8.507 14.9685 6.74162 15.9956 5C17.034 6.69986 17.9765 8.45729 19.007 10.1628C19.152 10.4064 19.2201 10.6881 19.2023 10.971C19.2497 12.9756 19.217 14.9802 19.2079 16.9848C18.1352 16.6277 16.9918 16.5362 15.8759 16.7182C14.76 16.9003 13.7049 17.3504 12.8013 18.03C12.7889 15.9407 12.8024 13.8526 12.7945 11.7633C12.7155 11.2562 12.778 10.7371 12.9751 10.2633V10.2633Z" fill="#001039"/>
    <path d="M10.5574 14.4587C10.6025 17.6598 10.5765 20.8631 10.5709 24.0653H5.00177C6.57634 21.2491 8.26377 18.4984 9.844 15.6857C10.0765 15.2737 10.2932 14.8515 10.5574 14.4587Z" fill="#001039"/>
    <path d="M21.4462 14.4689C21.7422 14.9054 22.0157 15.3567 22.2657 15.8211C22.9553 17.0096 23.6574 18.1914 24.3267 19.3924C25.1981 20.9613 26.1541 22.4828 27.0018 24.0653H21.436C21.4304 20.8665 21.4112 17.6666 21.4462 14.4689Z" fill="#001039"/>
    <path d="M15.9482 18.8291C16.991 18.6096 18.078 18.7726 19.0104 19.2885C19.296 19.415 19.1921 19.757 19.2136 20.003C19.1921 21.3575 19.2407 22.712 19.1887 24.0653H13.097C12.9223 23.5233 12.8604 22.9513 12.9151 22.3844C12.9699 21.8176 13.1401 21.268 13.4153 20.7694C13.9802 19.8224 14.8867 19.128 15.9482 18.8291V18.8291Z" fill="#001039"/>
</svg>
