<svg width="32" height="32" viewBox="0 0 32 32" fill="none" xmlns="http://www.w3.org/2000/svg">
    <circle cx="16" cy="16" r="16" fill="#E21C2A"/>
    <path fill-rule="evenodd" clip-rule="evenodd" d="M22.3859 6.05825C20.7659 3.50323 18.5181 1.91743 16 1.89999C10.9638 1.92575 7 8.25615 7 16.0033C7 19.8721 7.99283 23.3944 9.61366 25.9483C11.2342 28.5022 13.4819 30.0892 16 30.0986C18.518 30.0892 20.7659 28.5022 22.3859 25.9483C24.0069 23.3944 25 19.8721 25 16.0033C25 12.1333 24.0069 8.61207 22.3859 6.05825Z" fill="#1F211D"/>
    <path fill-rule="evenodd" clip-rule="evenodd" d="M24.0201 10.6111C23.5755 8.94762 22.9307 7.45394 22.1377 6.20747C21.3364 4.95911 20.3954 3.94974 19.3587 3.25354C18.3219 2.56716 17.1938 2.18518 16 2.18518C14.8062 2.18518 13.6781 2.56716 12.6413 3.25354C11.6046 3.94974 10.6636 4.95911 9.86231 6.20747C9.06926 7.45394 8.42453 8.94762 7.97988 10.6111C7.53568 12.2655 7.2915 14.0901 7.2915 16.0078C7.2915 19.8264 8.27681 23.2968 9.86231 25.7918C10.6636 27.0395 11.6046 28.0484 12.6413 28.7447C13.6781 29.4323 14.8062 29.8135 16 29.8135C17.1938 29.8135 18.3219 29.4323 19.3587 28.7447C20.3954 28.0484 21.3364 27.0395 22.1377 25.7918C23.7232 23.2968 24.7085 19.8264 24.7085 16.0078C24.7085 14.0901 24.4643 12.2655 24.0201 10.6111Z" fill="#E21C2A"/>
    <path fill-rule="evenodd" clip-rule="evenodd" d="M15.9999 29.0249C11.5479 28.9986 8.06726 23.1444 8.06726 16.0079C8.06726 8.86305 11.5479 3.00775 15.9999 2.98264C20.452 3.00775 23.9327 8.86305 23.9327 16.0079C23.9327 23.1444 20.452 28.9986 15.9999 29.0249Z" fill="#1F211D"/>
    <path fill-rule="evenodd" clip-rule="evenodd" d="M16.0001 8.34538C18.9886 8.34538 21.5798 9.9662 22.9133 12.3502C22.5558 10.4082 21.9375 8.66757 21.1092 7.25898C19.7943 5.02715 17.9867 3.67092 16.0001 3.6618C14.0134 3.67092 12.2058 5.02715 10.8909 7.25898C10.0627 8.66757 9.44428 10.4082 9.08691 12.3502C10.4203 9.9662 13.0116 8.34538 16.0001 8.34538Z" fill="white"/>
    <path fill-rule="evenodd" clip-rule="evenodd" d="M16 23.6617C13.0115 23.6617 10.4288 22.0416 9.09576 19.6569C9.44421 21.5996 10.0626 23.339 10.8908 24.7402C11.5527 25.8511 12.328 26.7595 13.1992 27.3786C14.0617 28.0063 15.007 28.346 16 28.346C16.9931 28.346 17.9383 28.0063 18.8008 27.3786C19.672 26.7595 20.4474 25.8511 21.1092 24.7402C21.9374 23.339 22.5558 21.5996 22.9042 19.6569C21.5712 22.0416 18.9885 23.6617 16 23.6617Z" fill="white"/>
    <path fill-rule="evenodd" clip-rule="evenodd" d="M18.6101 23.7272C18.1235 23.8901 17.851 24.2606 18.0425 24.8024C18.1715 25.1706 18.5589 25.3965 19.0357 25.2384C19.2021 25.1809 19.3835 25.0808 19.4416 24.8928L19.4513 24.8977C19.6111 25.3627 19.4513 25.5529 19.2589 25.6492C19.0687 25.7388 18.8935 25.6929 18.7799 25.5595L18.7786 25.5573L18.4582 25.7732C18.6439 26.0441 18.9921 26.127 19.376 25.998C19.8254 25.8477 20.1821 25.4195 19.8823 24.5688C19.774 24.2577 19.4711 23.4394 18.6101 23.7272ZM19.0181 24.8573C18.8323 24.9184 18.5828 24.9194 18.4669 24.5898C18.3564 24.2754 18.606 24.1265 18.7306 24.0882C18.9842 24.0044 19.1594 24.1167 19.2492 24.3651C19.3408 24.6281 19.1889 24.7993 19.0181 24.8573Z" fill="#1F211D"/>
    <path fill-rule="evenodd" clip-rule="evenodd" d="M16.1391 7.77591C16.6479 7.77591 17.1071 7.56367 17.4245 7.22419L17.0481 6.8888C16.8228 7.12754 16.4991 7.27864 16.1391 7.27864C15.4567 7.27864 14.9029 6.74078 14.9029 6.07582C14.9029 5.40687 15.4567 4.86806 16.1391 4.86806C16.4991 4.86806 16.8228 5.01986 17.0481 5.25841L17.4236 4.92112C17.104 4.58323 16.6479 4.3707 16.1391 4.3707C15.1752 4.3707 14.3935 5.13365 14.3935 6.07582C14.3935 7.01375 15.1752 7.77591 16.1391 7.77591Z" fill="#1F211D"/>
    <path fill-rule="evenodd" clip-rule="evenodd" d="M18.5413 6.39862L18.9142 8.29785C19.0031 8.33471 19.0894 8.36944 19.1779 8.40945L19.7062 7.14459L20.2596 8.97496C20.4762 9.11117 20.6887 9.26104 20.8909 9.41847L19.9307 6.25643L19.6308 6.02571L19.1977 7.06861L18.8376 5.3996L18.4211 5.12888L17.5513 7.90785C17.7142 7.93938 17.8753 7.97456 18.0359 8.01611L18.5413 6.39862Z" fill="#1F211D"/>
    <path fill-rule="evenodd" clip-rule="evenodd" d="M12.264 7.97922L13.7806 7.39164L13.9734 8.01564C14.1306 7.97404 14.292 7.93936 14.4533 7.90783L13.5953 5.12888L12.9676 5.52221L10.9899 9.5153C11.2385 9.31487 11.503 9.12844 11.7756 8.95685L12.264 7.97922ZM13.3098 5.87499L13.6363 6.92721L12.5845 7.33449L13.3098 5.87499Z" fill="#1F211D"/>
    <path fill-rule="evenodd" clip-rule="evenodd" d="M16.651 24.1023C16.139 24.1456 15.7825 24.4382 15.8308 25.0092C15.8653 25.3931 16.1839 25.7083 16.6861 25.6656C16.8632 25.6524 17.0613 25.5978 17.1665 25.433L17.174 25.438C17.2113 25.927 17.0067 26.0745 16.7976 26.1163C16.5911 26.1621 16.4335 26.0774 16.3575 25.9204V25.9167L15.9928 26.0517C16.1026 26.3523 16.4219 26.5157 16.8249 26.4839C17.2964 26.4456 17.7503 26.1163 17.674 25.2208C17.6486 24.8921 17.5591 24.0301 16.651 24.1023ZM16.7659 25.2914C16.5691 25.3089 16.3261 25.2531 16.2957 24.9043C16.2693 24.5694 16.5471 24.4884 16.6805 24.4797C16.9442 24.458 17.0886 24.6062 17.1115 24.8714C17.1357 25.1492 16.9442 25.2795 16.7659 25.2914Z" fill="#1F211D"/>
    <path fill-rule="evenodd" clip-rule="evenodd" d="M14.6929 24.0183C14.2405 23.9387 13.8446 24.1167 13.7751 24.5126C13.7356 24.7254 13.8182 24.8899 14.0064 25.018C13.5838 25.1099 13.5297 25.4172 13.5084 25.5331C13.4508 25.8498 13.6115 26.277 14.2785 26.3951C14.963 26.5111 15.2548 26.0912 15.3089 25.7996C15.3617 25.5004 15.2496 25.3312 15.0212 25.1759C15.2469 25.1181 15.3677 24.9612 15.404 24.7621C15.4599 24.4426 15.2271 24.1111 14.6929 24.0183ZM14.8032 25.7334C14.7745 25.8932 14.613 26.0774 14.3475 26.0294C14.115 25.9898 13.9593 25.8131 14.0001 25.5874C14.0444 25.3394 14.2801 25.2685 14.4667 25.3039C14.7505 25.3482 14.8342 25.5698 14.8032 25.7334ZM14.9258 24.7299C14.8957 24.8937 14.7401 24.9939 14.5389 24.9596C14.3192 24.9194 14.214 24.7476 14.2374 24.6137C14.2683 24.4413 14.4303 24.3484 14.6599 24.3867C14.823 24.4162 14.9572 24.553 14.9258 24.7299Z" fill="#1F211D"/>
    <path fill-rule="evenodd" clip-rule="evenodd" d="M12.2322 23.7922L12.1627 23.7687L12.064 24.0446L12.0673 24.0455L12.0186 24.1789L12.1137 24.2135C12.3649 24.3011 12.5363 24.3011 12.6508 24.2546L12.1335 25.7334L12.6268 25.8963L13.3882 23.7241L12.9399 23.5718C12.9052 23.6726 12.6058 23.9144 12.2322 23.7922Z" fill="#1F211D"/>
    <path fill-rule="evenodd" clip-rule="evenodd" d="M20.9094 17.0942V21.3453C22.1468 20.2675 23.0097 18.7742 23.2712 17.0942H20.9094Z" fill="white"/>
    <path fill-rule="evenodd" clip-rule="evenodd" d="M16.4056 23.1531C17.0155 23.1189 17.6072 23.0087 18.165 22.8474V17.0942H16.4056V23.1531Z" fill="white"/>
    <path fill-rule="evenodd" clip-rule="evenodd" d="M23.2361 14.6757C22.9317 13.0922 22.0992 11.6955 20.9094 10.6696V14.6757H23.2361Z" fill="white"/>
    <path fill-rule="evenodd" clip-rule="evenodd" d="M16.4056 14.6757H18.165V9.16016C17.5984 8.99929 17.0155 8.88909 16.4056 8.85486V14.6757Z" fill="white"/>
    <path fill-rule="evenodd" clip-rule="evenodd" d="M20.91 10.6622H20.9009C20.904 10.6648 20.9069 10.6675 20.91 10.6701V10.6622Z" fill="white"/>
    <path fill-rule="evenodd" clip-rule="evenodd" d="M9.53958 19.4441V12.5621C8.97332 13.5898 8.64246 14.7605 8.64246 16.0078C8.64246 17.2468 8.97332 18.4176 9.53958 19.4441Z" fill="#E21C2A"/>
    <path fill-rule="evenodd" clip-rule="evenodd" d="M18.5489 9.28732V15.0574H16.405V16.7122L18.5489 16.7211V22.7199C19.2621 22.4661 19.925 22.1 20.518 21.6511V16.7211H23.3314C23.3575 16.4828 23.3662 16.2459 23.3662 16.0079C23.3662 15.6858 23.3399 15.3631 23.2963 15.0574H20.518V10.3563C19.925 9.90665 19.2621 9.54186 18.5489 9.28732Z" fill="#E21C2A"/>
    <path fill-rule="evenodd" clip-rule="evenodd" d="M13.6605 22.7962C14.1052 22.9406 14.5582 23.0426 15.0371 23.1104V8.89676C14.5582 8.9561 14.1052 9.06705 13.6605 9.21143V22.7962Z" fill="#E21C2A"/>
    <path fill-rule="evenodd" clip-rule="evenodd" d="M10.9163 21.1752C11.3347 21.5657 11.7878 21.8963 12.2839 22.1859V9.82187C11.7878 10.1019 11.3347 10.4407 10.9163 10.8318V21.1752Z" fill="#E21C2A"/>
</svg>
