<svg width="32" height="32" viewBox="0 0 32 32" fill="none" xmlns="http://www.w3.org/2000/svg">
    <path d="M16 32C24.8366 32 32 24.8366 32 16C32 7.16344 24.8366 0 16 0C7.16344 0 0 7.16344 0 16C0 24.8366 7.16344 32 16 32Z" fill="white"/>
    <path d="M29.24 11.592H27.185V9.536H26.535V11.592H24.48V12.241H26.535V14.297H27.185V12.241H29.24V11.592Z" fill="#001EB7"/>
    <path d="M23.0654 14.495C23.0657 14.3947 23.0463 14.2954 23.0082 14.2027C22.9701 14.11 22.914 14.0257 22.8433 13.9546C22.7725 13.8836 22.6884 13.8273 22.5958 13.7888C22.5032 13.7504 22.404 13.7306 22.3037 13.7306C22.2035 13.7306 22.1042 13.7504 22.0116 13.7888C21.919 13.8273 21.8349 13.8836 21.7642 13.9546C21.6934 14.0257 21.6374 14.11 21.5993 14.2027C21.5611 14.2954 21.5417 14.3947 21.5421 14.495C21.5467 14.5364 21.555 14.5774 21.5668 14.6174L18.4935 17.2758L19.0328 9.35659L21.5924 5.26059L21.9372 10.161C21.7726 10.2242 21.6348 10.3422 21.547 10.495C21.4592 10.6479 21.4268 10.8263 21.4551 11.0003C21.4834 11.1743 21.5707 11.3333 21.7024 11.4504C21.8341 11.5676 22.0022 11.6358 22.1783 11.6437C22.3544 11.6515 22.5278 11.5984 22.6694 11.4934C22.811 11.3884 22.9121 11.2379 22.9557 11.0671C22.9994 10.8963 22.9829 10.7156 22.909 10.5556C22.8351 10.3955 22.7083 10.2658 22.55 10.1882L22.1672 4.74847C22.2551 4.67918 22.3264 4.59107 22.3757 4.49061C22.4251 4.39014 22.4513 4.27989 22.4525 4.16795C22.4525 3.96595 22.3722 3.77223 22.2294 3.62939C22.0866 3.48656 21.8928 3.40631 21.6908 3.40631C21.4888 3.40631 21.2951 3.48656 21.1523 3.62939C21.0094 3.77223 20.9292 3.96595 20.9292 4.16795C20.934 4.21883 20.9441 4.26907 20.9595 4.31782L12.5987 7.66092C12.4902 7.59774 12.3674 7.56315 12.2418 7.56039C12.1165 7.56008 11.9931 7.59077 11.8825 7.64973C11.7719 7.70868 11.6777 7.79408 11.6081 7.8983C11.5385 8.00252 11.4958 8.12233 11.4837 8.24706C11.4717 8.3718 11.4907 8.49757 11.539 8.61319L2.92007 17.2413C2.82207 17.1954 2.7153 17.1712 2.60707 17.1703C2.40506 17.1703 2.21133 17.2506 2.06849 17.3934C1.92565 17.5362 1.8454 17.73 1.8454 17.932C1.8454 18.134 1.92565 18.3277 2.06849 18.4706C2.21133 18.6134 2.40506 18.6937 2.60707 18.6937C2.73196 18.6909 2.85415 18.6567 2.9623 18.5942L8.4573 22.064L7.26022 26.4776L5.28851 22.6133C5.38681 22.4871 5.44183 22.3327 5.4454 22.1728C5.44539 22.0222 5.40071 21.8749 5.31701 21.7497C5.23331 21.6244 5.11436 21.5268 4.97518 21.4692C4.83601 21.4115 4.68287 21.3964 4.53512 21.4258C4.38738 21.4552 4.25167 21.5278 4.14516 21.6343C4.03865 21.7408 3.96611 21.8765 3.93673 22.0243C3.90734 22.172 3.92243 22.3252 3.98008 22.4643C4.03773 22.6035 4.13536 22.7225 4.26061 22.8061C4.38586 22.8898 4.53312 22.9345 4.68376 22.9345C4.70961 22.9307 4.73524 22.9256 4.76052 22.919L6.83552 26.986C6.74776 27.0553 6.67663 27.1434 6.62737 27.2438C6.57811 27.3442 6.55196 27.4543 6.55084 27.5662C6.54945 27.7621 6.62415 27.9509 6.75921 28.0929C6.89427 28.2348 7.07915 28.3188 7.27491 28.3272C7.47067 28.3355 7.66203 28.2676 7.80869 28.1376C7.95535 28.0077 8.04586 27.8259 8.06117 27.6306L17.0384 27.7142C17.0498 27.8461 17.0957 27.9726 17.1714 28.0812C17.2471 28.1898 17.35 28.2765 17.4698 28.3329C17.5895 28.3892 17.722 28.4131 17.8539 28.4022C17.9858 28.3913 18.1126 28.3459 18.2214 28.2706C18.3303 28.1954 18.4175 28.0928 18.4743 27.9733C18.5311 27.8537 18.5556 27.7214 18.5452 27.5894C18.5348 27.4575 18.4899 27.3305 18.4151 27.2214C18.3403 27.1122 18.2381 27.0246 18.1188 26.9673L22.5464 15.2077C22.6967 15.1583 22.8277 15.0629 22.9208 14.935C23.0139 14.8071 23.0645 14.6532 23.0654 14.495V14.495ZM21.9069 15.1292L21.9215 15.1391L17.9143 25.7821L18.4349 18.1321L21.9069 15.1292ZM17.2286 26.8829L12.0782 23.6297L17.786 18.6937L17.2286 26.8829ZM11.5399 23.2904L9.16299 21.7888L11.3902 13.5786L18.3927 9.78335L17.8446 17.8374L11.5399 23.2904ZM18.5112 9.02606L11.6105 12.766L12.6451 8.95186C12.7532 8.88577 12.8428 8.79333 12.9055 8.68318C12.9682 8.57304 13.0019 8.44879 13.0035 8.32207C12.9987 8.26963 12.9883 8.21786 12.9723 8.16767L21.0713 4.92956L18.5112 9.02606ZM11.9827 9.03141L11.9919 9.03321L10.8705 13.1672L4.28687 16.7356L11.9827 9.03141ZM3.33329 18.1076C3.35227 18.0508 3.36417 17.9918 3.36874 17.932L3.36774 17.9271L10.6501 13.9798L8.62417 21.4485L3.33329 18.1076ZM8.99608 22.4043L11.0583 23.7069L7.90268 26.4357L8.99608 22.4043ZM8.15699 27.0215L11.5966 24.0462L16.4299 27.0986L8.15699 27.0215Z" fill="#001EB7"/>
</svg>
