<svg width="32" height="32" viewBox="0 0 32 32" fill="none" xmlns="http://www.w3.org/2000/svg">
    <circle cx="16" cy="16" r="16" fill="white"/>
    <g clip-path="url(#clip0)">
        <path d="M11.8838 22.7398L16.1191 18.5048L20.3541 22.7398L22.8721 20.2218L18.6371 15.9868L22.8721 11.7518L20.3541 9.23354L16.1191 13.4685L11.8838 9.23354L9.36584 11.7518L13.6008 15.9868L9.36584 20.2218L11.8838 22.7398Z" fill="#1B75BC"/>
        <path d="M14.6487 6.47053L12.1755 8.94373L14.2589 11.0272L16.1192 9.14449L17.9792 11.0272L20.0629 8.94373L17.5897 6.47053L16.1192 5L14.6487 6.47053Z" fill="#3C3C3B"/>
        <path d="M14.6487 25.5296L12.1755 23.0564L14.2589 20.9729L16.1192 22.8553L17.9792 20.9729L20.0629 23.0564L17.5897 25.5296L16.1192 27.0001L14.6487 25.5296Z" fill="#3C3C3B"/>
    </g>
    <defs>
        <clipPath id="clip0">
            <rect width="22" height="22" fill="white" transform="translate(5 5)"/>
        </clipPath>
    </defs>
</svg>
