<svg width="32" height="32" viewBox="0 0 32 32" fill="none" xmlns="http://www.w3.org/2000/svg">
    <path d="M16 32C24.8366 32 32 24.8366 32 16C32 7.16344 24.8366 0 16 0C7.16344 0 0 7.16344 0 16C0 24.8366 7.16344 32 16 32Z" fill="#EE306F"/>
    <path d="M22.1165 10.5002C19.8785 10.5002 18.3443 11.9042 17.0186 13.6429L17.8043 14.7952C19.0186 13.1287 20.3097 11.8144 22.1165 11.8144C23.1043 11.8125 24.0608 12.1614 24.8154 12.799C25.57 13.4366 26.0736 14.3214 26.2367 15.2957H21.0842V16.61H27.5698C27.6634 15.8407 27.5919 15.0602 27.36 14.3207C27.1282 13.5812 26.7413 12.8996 26.2253 12.3215C25.7092 11.7433 25.0758 11.2817 24.3673 10.9677C23.6588 10.6536 22.8914 10.4942 22.1165 10.5002" fill="white"/>
    <path d="M21.9968 20.1733C19.7505 20.1733 18.2683 18.2411 16.3869 15.406C14.5055 12.571 12.7293 10.5002 9.97448 10.5002C9.24517 10.489 8.52093 10.6231 7.8439 10.8945C7.16688 11.1659 6.55059 11.5692 6.03091 12.081C5.51123 12.5928 5.09854 13.2029 4.81684 13.8757C4.53515 14.5485 4.39008 15.2706 4.39008 16C4.39008 16.7294 4.53515 17.4515 4.81684 18.1243C5.09854 18.7971 5.51123 19.4072 6.03091 19.919C6.55059 20.4308 7.16688 20.8342 7.8439 21.1056C8.52093 21.377 9.24517 21.511 9.97448 21.4999C12.2456 21.4999 13.803 20.0891 15.1495 18.3391L14.3566 17.1697C13.1224 18.8511 11.8104 20.1736 9.97418 20.1736C9.42039 20.1826 8.87036 20.0813 8.35612 19.8756C7.84189 19.6698 7.37373 19.3638 6.97894 18.9754C6.58415 18.5869 6.27061 18.1238 6.0566 17.6129C5.84259 17.1021 5.73238 16.5537 5.7324 15.9999C5.73242 15.446 5.84267 14.8977 6.05671 14.3869C6.27076 13.876 6.58432 13.4129 6.97914 13.0245C7.37396 12.6361 7.84213 12.3301 8.35638 12.1244C8.87063 11.9187 9.42067 11.8174 9.97446 11.8264C12.2207 11.8264 13.6229 13.6601 15.5803 16.5892C17.5377 19.5182 19.2419 21.4999 21.9967 21.4999C23.1163 21.5031 24.211 21.1703 25.1393 20.5444C26.0676 19.9186 26.7867 19.0285 27.2035 17.9894H25.7252C25.3552 18.6531 24.8143 19.2056 24.1587 19.5896C23.503 19.9736 22.7566 20.1752 21.9968 20.1733" fill="white"/>
</svg>
