<svg width="32" height="32" viewBox="0 0 32 32" fill="none" xmlns="http://www.w3.org/2000/svg">
    <path d="M16 32C24.8366 32 32 24.8366 32 16C32 7.16344 24.8366 0 16 0C7.16344 0 0 7.16344 0 16C0 24.8366 7.16344 32 16 32Z" fill="white"/>
    <path d="M18.2562 7.1625C19.7682 7.1625 20.9762 7.98916 21.4208 8.4665C21.9848 9.0725 22.8828 10.2005 22.4875 12.3778C22.3182 13.3072 21.6875 14.1045 21.0382 14.6865L23.2902 16.9352C24.4408 15.9085 25.5368 14.3912 25.8188 12.6752C26.0075 11.5285 26.2208 9.66183 24.5548 7.1885C23.4975 5.61783 21.3868 4.61516 20.4975 4.35583C18.6128 3.80516 16.4275 4.2105 16.0628 4.31583C14.5588 4.7505 13.4315 5.4325 12.6035 6.2625L14.9688 8.6245C15.6128 7.81983 16.6462 7.2045 18.2555 7.1625" fill="#FF33B2"/>
    <path d="M20.1048 15.3426C19.2862 15.8546 18.0649 16.3333 16.3169 17.0246L13.2262 18.2033L12.6082 18.4346C10.9168 19.0633 8.08818 20.1153 6.59152 22.0879C5.35952 23.7106 5.14352 25.6253 5.10752 26.3733L5.10352 26.4573H8.41485L8.42152 26.3826C8.46618 25.8226 8.63685 24.7579 9.27485 23.9173C10.2015 22.6939 12.5508 21.8206 13.8188 21.3486L14.8575 20.9619L17.9442 19.7753C19.6275 19.1019 20.8075 18.5119 21.7175 18.0113C22.2209 17.7346 22.7515 17.3633 23.2575 16.9113L21.0055 14.6626C20.6922 14.9426 20.3762 15.1733 20.1055 15.3426" fill="url(#paint0_linear)"/>
    <path d="M10.6707 12.4293C10.9794 15.448 13.0947 17.9993 13.2387 18.2446L14.87 21.002C15.326 21.7746 15.7247 22.456 16.0147 22.9753C16.9094 24.582 17.036 25.8213 17.0327 26.4166V26.498H20.34V26.418C20.3414 25.3313 20.1 23.598 18.938 21.514C18.6827 21.0553 18.3447 20.474 17.9567 19.816L16.33 17.066C16.1127 16.6766 14.352 14.4226 14.0247 12.096C13.9074 11.2626 14.0487 9.7653 14.9487 8.6413L12.584 6.2793C10.8847 7.9833 10.4547 10.3146 10.6707 12.4293Z" fill="url(#paint1_linear)"/>
    <defs>
        <linearGradient id="paint0_linear" x1="3.4377" y1="13.3808" x2="13.7761" y2="30.6847" gradientUnits="userSpaceOnUse">
            <stop offset="0.67" stop-color="#333333"/>
            <stop offset="0.82" stop-color="#1A1B1B"/>
        </linearGradient>
        <linearGradient id="paint1_linear" x1="9.72715" y1="4.08193" x2="26.254" y2="12.7226" gradientUnits="userSpaceOnUse">
            <stop offset="0.67" stop-color="#333333"/>
            <stop offset="0.82" stop-color="#1A1B1B"/>
        </linearGradient>
    </defs>
</svg>
