<svg width="32" height="32" viewBox="0 0 32 32" fill="none" xmlns="http://www.w3.org/2000/svg">
    <path d="M16 32C24.8366 32 32 24.8366 32 16C32 7.16344 24.8366 0 16 0C7.16344 0 0 7.16344 0 16C0 24.8366 7.16344 32 16 32Z" fill="#1D0D4B"/>
    <path d="M15.0116 5.55038C14.2379 6.32405 13.5072 7.14071 13.1204 8.0863C12.7335 8.98892 12.6046 9.9775 12.8195 10.9231C12.9914 11.8687 13.4212 12.6424 14.109 13.3301C14.7967 14.0178 15.6993 14.5336 16.6449 15.1353C17.5905 15.737 18.665 16.3818 19.5246 17.3704C20.3843 18.3589 20.943 19.6914 20.986 20.9378C21.072 22.1843 20.7711 23.5167 20.0834 24.5483C19.4387 25.6228 18.4931 26.3535 17.4615 26.9553C17.3326 27.0412 17.1607 26.9983 17.0747 26.8693C16.9887 26.7404 17.0317 26.6114 17.1177 26.4825C17.9343 25.7518 18.665 24.9351 19.0948 23.9895C19.5246 23.0439 19.6536 22.0554 19.4387 21.0668C19.2668 20.0782 18.8369 19.2616 18.1063 18.6168C17.4185 17.9721 16.5159 17.4133 15.5273 16.8546C14.5818 16.2958 13.5072 15.6941 12.6046 14.7055C12.1748 14.2327 11.745 13.6739 11.4871 13.0292C11.2292 12.4275 11.0573 11.7398 11.0143 11.095C10.9283 9.80557 11.2292 8.47314 11.9599 7.3986C12.6476 6.32405 13.6362 5.59337 14.6677 5.0346C14.7967 4.94864 14.9686 5.0346 15.0545 5.16355C15.1405 5.33547 15.0975 5.46442 15.0116 5.55038ZM17.3326 5.12057C18.0633 5.46442 18.751 5.93722 19.3527 6.58194C19.6536 6.88282 19.9115 7.22667 20.1264 7.61351C20.3413 8.00034 20.5562 8.47314 20.6852 8.90296C20.8141 9.37576 20.8571 9.84855 20.8571 10.3214C20.8571 10.7942 20.7281 13.1152 19.4387 14.2327C19.1378 14.4906 18.622 14.4046 18.4071 14.0608C18.2352 13.8029 18.2352 13.502 18.3641 13.2441V13.2011C18.708 12.5564 20.1264 10.0205 18.4931 7.26965C18.0633 6.62493 17.5475 6.06616 16.9887 5.5074C16.9028 5.42144 16.9028 5.24951 16.9887 5.12057C17.1177 5.07758 17.2466 5.07758 17.3326 5.12057ZM14.7107 26.9553C13.98 26.6114 13.2923 26.1386 12.6906 25.4939C12.3897 25.193 12.1318 24.8492 11.9169 24.4194C11.702 24.0325 11.4871 23.5597 11.3581 23.1299C11.2292 22.6571 11.1862 22.1843 11.1862 21.7115C11.1862 21.2387 11.3151 18.9177 12.6046 17.8002C12.9055 17.5423 13.3783 17.6282 13.6362 17.9721C13.8081 18.23 13.8081 18.5309 13.6791 18.7888L13.6362 18.8317C13.2923 19.4765 11.8739 22.0124 13.5072 24.7632C13.937 25.4079 14.4528 25.9667 15.0116 26.5255C15.0975 26.6114 15.0975 26.7834 15.0116 26.9123C14.9256 26.9983 14.8396 26.9983 14.7107 26.9553Z" fill="white"/>
</svg>
