<svg width="32" height="32" viewBox="0 0 32 32" fill="none" xmlns="http://www.w3.org/2000/svg">
    <path d="M16 32C24.8366 32 32 24.8366 32 16C32 7.16344 24.8366 0 16 0C7.16344 0 0 7.16344 0 16C0 24.8366 7.16344 32 16 32Z" fill="black"/>
    <path d="M5.25094 19.7644C5.19188 19.7369 5.16235 19.7037 5.16235 19.6644C5.16177 19.6308 5.17253 19.598 5.19289 19.5714C5.21325 19.5447 5.24202 19.5257 5.27453 19.5174C5.3493 19.49 5.39852 19.4724 5.4222 19.4646C5.67538 19.4236 5.91698 19.3294 6.13103 19.1882C6.21603 19.1208 6.28313 19.0335 6.3264 18.934C6.36968 18.8346 6.38779 18.726 6.37914 18.6178V13.1611C6.3864 13.0195 6.36635 12.8777 6.32008 12.7436C6.27842 12.6515 6.20196 12.5796 6.10742 12.5437C5.96246 12.4897 5.81188 12.4523 5.65853 12.432C5.39859 12.385 5.26861 12.3066 5.26859 12.1968C5.26859 12.1498 5.30011 12.1164 5.36313 12.0968C5.44396 12.075 5.52755 12.0651 5.61125 12.0674C5.82392 12.0674 5.99523 12.0713 6.12517 12.0791C6.25511 12.087 6.37914 12.0929 6.49727 12.0968C6.61539 12.1009 6.76109 12.1028 6.93437 12.1027C7.13117 12.1027 7.30051 12.1007 7.44237 12.0968C7.58424 12.0929 7.72994 12.087 7.87948 12.0791C8.02901 12.0714 8.21016 12.0675 8.42293 12.0674C8.50658 12.0651 8.59013 12.075 8.67093 12.0968C8.73389 12.1164 8.7654 12.1498 8.76545 12.1968C8.76371 12.2266 8.75402 12.2554 8.7374 12.2802C8.72078 12.305 8.69783 12.325 8.67093 12.3379C8.57896 12.3868 8.47891 12.4187 8.3756 12.432C8.12276 12.4767 7.8739 12.5416 7.6314 12.626C7.53646 12.6555 7.45436 12.7164 7.39855 12.7986C7.34274 12.8809 7.31652 12.9797 7.32421 13.0788V18.6178C7.30842 18.8126 7.36757 19.0061 7.4896 19.1587C7.70752 19.3071 7.97249 19.3699 8.23382 19.3351H9.69875C9.89056 19.339 10.0812 19.305 10.2599 19.2351C10.3904 19.1866 10.5121 19.1171 10.6202 19.0294C10.7505 18.9244 10.8676 18.8039 10.9688 18.6706C11.0694 18.5189 11.1583 18.3597 11.2345 18.1943C11.2623 18.1212 11.2959 18.0505 11.3349 17.9827C11.3861 17.8886 11.4393 17.8415 11.4945 17.8415C11.5172 17.8413 11.5395 17.8479 11.5584 17.8605C11.5774 17.8731 11.5921 17.8911 11.6007 17.9122C11.6235 17.9557 11.6357 18.0041 11.6362 18.0533C11.6357 18.0633 11.6338 18.0732 11.6303 18.0826C11.6268 18.092 11.6248 18.102 11.6244 18.112C11.5691 18.3161 11.5199 18.5003 11.4767 18.6648C11.4334 18.8294 11.3979 18.9862 11.3704 19.1351C11.3427 19.2842 11.321 19.441 11.3054 19.6056C11.2992 19.6545 11.2853 19.7022 11.2641 19.7467C11.2514 19.7675 11.2328 19.7842 11.2108 19.7946C11.1888 19.8051 11.1642 19.8089 11.14 19.8055C10.7461 19.8055 10.3681 19.8016 10.0059 19.7937C9.64359 19.7858 9.29508 19.7799 8.9604 19.7761C8.62556 19.7721 8.30462 19.7662 7.99759 19.7585C7.69048 19.7505 7.38727 19.7466 7.08797 19.7467C6.89103 19.7467 6.66853 19.7506 6.42048 19.7585C6.17242 19.7661 5.86331 19.7818 5.49313 19.8055C5.4104 19.8091 5.32786 19.795 5.25094 19.7644V19.7644Z" fill="white"/>
    <path d="M14.4269 19.9113C14.009 19.9173 13.5972 19.8118 13.2337 19.6056C12.8826 19.4052 12.5911 19.115 12.3891 18.7648C12.1768 18.3948 12.0686 17.9742 12.0759 17.5477C12.0763 17.2165 12.1426 16.8886 12.2709 16.5833C12.4025 16.2672 12.5884 15.9767 12.8202 15.7248C13.0539 15.468 13.3346 15.2584 13.6472 15.1074C13.9638 14.9541 14.3114 14.8757 14.6632 14.8781C15.0972 14.872 15.5244 14.986 15.8977 15.2073C16.2559 15.419 16.5562 15.716 16.7719 16.0717C16.9872 16.4239 17.0998 16.8292 17.0968 17.2419C17.0982 17.6906 16.9951 18.1335 16.7956 18.5355C16.5954 18.9425 16.2867 19.2863 15.9036 19.5291C15.4591 19.7976 14.9458 19.9304 14.4269 19.9113ZM14.675 19.5586C14.9237 19.5627 15.1701 19.5104 15.3956 19.4056C15.6114 19.3008 15.786 19.127 15.8918 18.9117C15.9939 18.7053 16.0579 18.4823 16.0808 18.2532C16.1112 18.0113 16.127 17.7678 16.1281 17.524C16.1287 17.1516 16.0586 16.7825 15.9214 16.4362C15.798 16.1088 15.5998 15.8148 15.3424 15.5778C15.1028 15.3576 14.7878 15.2376 14.4624 15.2426C14.2668 15.2397 14.0724 15.2736 13.8894 15.3426C13.7035 15.4221 13.5423 15.5501 13.4227 15.7131C13.2598 15.9214 13.1539 16.1687 13.1155 16.4304C13.0685 16.7102 13.0448 16.9934 13.0447 17.2771C13.0432 17.654 13.1155 18.0276 13.2573 18.3767C13.3825 18.7015 13.5805 18.9931 13.8362 19.2293C14.0634 19.4423 14.3636 19.5601 14.675 19.5586V19.5586Z" fill="white"/>
    <path d="M20.1945 19.9113C19.7767 19.9173 19.3648 19.8118 19.0013 19.6056C18.6502 19.4052 18.3587 19.115 18.1567 18.7648C17.9444 18.3948 17.8362 17.9742 17.8436 17.5477C17.844 17.2164 17.9103 16.8886 18.0386 16.5833C18.1701 16.2672 18.356 15.9767 18.5879 15.7248C18.8215 15.468 19.1023 15.2584 19.4149 15.1074C19.7315 14.9541 20.0791 14.8757 20.4308 14.8781C20.8648 14.872 21.292 14.986 21.6654 15.2073C22.0235 15.419 22.3238 15.716 22.5396 16.0717C22.7549 16.4238 22.8674 16.8291 22.8645 17.2419C22.8659 17.6906 22.7627 18.1335 22.5632 18.5355C22.363 18.9425 22.0544 19.2863 21.6713 19.5291C21.2267 19.7976 20.7135 19.9304 20.1945 19.9113V19.9113ZM20.4427 19.5586C20.6913 19.5627 20.9377 19.5104 21.1633 19.4056C21.3791 19.3008 21.5537 19.127 21.6594 18.9117C21.7615 18.7053 21.8256 18.4823 21.8484 18.2532C21.8788 18.0113 21.8946 17.7678 21.8957 17.524C21.8964 17.1516 21.8262 16.7824 21.689 16.4362C21.5657 16.1088 21.3674 15.8148 21.1101 15.5778C20.8704 15.3576 20.5554 15.2376 20.23 15.2426C20.0344 15.2396 19.84 15.2736 19.657 15.3426C19.4711 15.4221 19.31 15.5501 19.1904 15.7131C19.0274 15.9214 18.9215 16.1687 18.8832 16.4304C18.8361 16.7102 18.8124 16.9934 18.8123 17.2771C18.8109 17.654 18.8831 18.0275 19.025 18.3767C19.1502 18.7014 19.3482 18.9931 19.6038 19.2293C19.831 19.4423 20.1312 19.5601 20.4427 19.5586Z" fill="white"/>
    <path d="M25.4306 19.9113C25.2635 19.9208 25.0963 19.8942 24.9404 19.8333C24.7845 19.7724 24.6435 19.6787 24.5269 19.5586C24.2901 19.2634 24.174 18.8893 24.202 18.5119V15.7836C24.204 15.7567 24.1985 15.7297 24.1859 15.7058C24.1734 15.6819 24.1544 15.662 24.1312 15.6484C24.0329 15.6127 23.9281 15.5986 23.824 15.6072H23.7531C23.7136 15.6072 23.6802 15.5818 23.6527 15.5307C23.6257 15.4822 23.6114 15.4276 23.6113 15.372C23.6163 15.3456 23.6286 15.3212 23.6468 15.3014C23.6615 15.281 23.6773 15.2614 23.6941 15.2427C23.8515 15.1329 23.9952 15.0232 24.1252 14.9134C24.2552 14.8037 24.3734 14.6959 24.4797 14.59C24.586 14.4841 24.6746 14.388 24.7455 14.3018L24.8459 14.2018C24.8589 14.1885 24.8746 14.178 24.8918 14.1709C24.9091 14.1638 24.9277 14.1603 24.9463 14.1607C24.985 14.1606 25.0232 14.1686 25.0585 14.1842C25.094 14.2 25.1078 14.2353 25.0998 14.29L25.0408 14.8193C25.0331 14.8512 25.0346 14.8847 25.0451 14.9159C25.0555 14.9471 25.0745 14.9747 25.0998 14.9956C25.1688 15.0321 25.2466 15.0484 25.3244 15.0427H26.6711C26.7025 15.0427 26.7302 15.0682 26.7537 15.1191C26.7787 15.1766 26.7908 15.2388 26.7892 15.3014C26.7893 15.3715 26.7773 15.4412 26.7537 15.5072C26.7302 15.5739 26.7025 15.6072 26.6711 15.6072H25.5016C25.3717 15.5973 25.2412 15.6133 25.1176 15.6543C25.0585 15.6857 25.029 15.7797 25.029 15.9365V18.2532C25.0143 18.5154 25.0847 18.7752 25.2298 18.9941C25.2965 19.0833 25.3843 19.1548 25.4853 19.2019C25.5863 19.2491 25.6973 19.2706 25.8086 19.2645C25.9874 19.2699 26.1661 19.2521 26.3403 19.2116C26.4625 19.1781 26.5783 19.1245 26.6829 19.0529C26.6888 19.046 26.696 19.0404 26.7041 19.0364C26.7123 19.0323 26.7211 19.03 26.7301 19.0294C26.7454 19.0294 26.7602 19.0346 26.7721 19.0442C26.7839 19.0539 26.7921 19.0673 26.7951 19.0823C26.8071 19.1183 26.813 19.156 26.8129 19.194C26.8129 19.2333 26.7479 19.3117 26.6179 19.4292C26.4647 19.5621 26.2937 19.6729 26.1099 19.7585C25.8982 19.861 25.6658 19.9133 25.4306 19.9113V19.9113Z" fill="white"/>
</svg>
