<svg width="32" height="32" viewBox="0 0 32 32" fill="none" xmlns="http://www.w3.org/2000/svg">
    <path d="M16 32C24.8366 32 32 24.8366 32 16C32 7.16344 24.8366 0 16 0C7.16344 0 0 7.16344 0 16C0 24.8366 7.16344 32 16 32Z" fill="white"/>
    <path d="M16 26.8C17.4 26.8 18.5 25.7 18.5 24.3C18.5 22.9 17.4 21.8 16 21.8C14.6 21.8 13.5 22.9 13.5 24.3C13.5 25.7 14.6 26.8 16 26.8Z" fill="black"/>
    <path d="M18.8 5.20001H13.3L5.5 26.5H10.2L16 10.4L21.8 26.5H26.5L18.8 5.20001Z" fill="black"/>
</svg>
