<svg width="32" height="32" viewBox="0 0 32 32" fill="none" xmlns="http://www.w3.org/2000/svg">
    <g clip-path="url(#clip0_982_149)">
        <path d="M16 31.5C24.5604 31.5 31.5 24.5604 31.5 16C31.5 7.43959 24.5604 0.5 16 0.5C7.43959 0.5 0.5 7.43959 0.5 16C0.5 24.5604 7.43959 31.5 16 31.5Z" fill="#252736"/>
        <path d="M15.9509 32C13.851 32.0083 11.7707 31.5967 9.83229 30.7893C7.89384 29.9819 6.1364 28.7951 4.66331 27.2986C2.43257 25.0584 0.915261 22.2076 0.302779 19.1061C-0.309702 16.0045 0.0100819 12.791 1.22179 9.87092C2.4335 6.95086 4.48286 4.45506 7.11134 2.69835C9.73983 0.941636 12.8297 0.00270766 15.9912 2.84884e-06C20.226 -0.00252244 24.2891 1.67391 27.2901 4.66189C30.291 7.64988 31.985 11.7057 32.0008 15.9405C32.0166 20.1753 30.3529 24.2436 27.3743 27.2539C24.3958 30.2642 20.3453 31.9709 16.1106 32H15.9509ZM21.3072 25.0227C21.0776 25.0172 20.854 25.0958 20.6783 25.2438L19.8754 25.8924C19.0961 26.5243 18.2903 27.1778 17.4618 27.7743C16.7611 28.2765 16.5577 28.4779 16.5253 29.7505L16.5273 30.0385C16.5303 30.2685 16.5322 30.4974 16.5204 30.7264C16.5095 30.793 16.5216 30.8612 16.5548 30.92C16.6098 30.9555 16.6755 30.9708 16.7405 30.9632C17.1396 30.9581 17.5379 30.9256 17.9325 30.8659C20.1589 30.5863 22.2926 29.8041 24.1722 28.5785C26.0518 27.3529 27.6281 25.7158 28.7818 23.7913C30.5359 20.9761 31.2765 17.6465 30.8809 14.3532C30.6747 12.3895 30.0697 10.4886 29.1032 8.76689C27.7081 6.24463 25.6164 4.17723 23.0781 2.81158C21.1107 1.76073 18.9372 1.15311 16.71 1.03137L16.6923 1.03088C16.5793 1.03088 16.5557 1.04611 16.5488 1.05299C16.5429 1.05938 16.5213 1.08886 16.5233 1.19057C16.5233 1.19205 16.5302 2.62289 16.5233 3.33881C16.5227 3.41017 16.5407 3.48046 16.5755 3.54275C16.6103 3.60504 16.6607 3.6572 16.7218 3.69407L26.7004 11.5908C26.8139 11.6708 26.9058 11.7777 26.9679 11.902C27.03 12.0262 27.0603 12.1639 27.0561 12.3028C27.0502 14.7822 27.0506 17.2618 27.0571 19.7415C27.0642 19.8813 27.0369 20.0206 26.9776 20.1474C26.9184 20.2742 26.8289 20.3845 26.7171 20.4687L26.2769 20.8186C26.0381 21.0092 25.8003 21.1999 25.5546 21.3817C25.3924 21.5016 25.3806 21.5615 25.4877 21.7404C25.9417 22.4981 26.3791 23.2665 26.8115 24.037C26.9284 24.2453 27.068 24.549 26.9353 24.775C26.8036 25.0001 26.4764 25.0266 26.2415 25.0276L23.7798 25.0296C22.9582 25.0296 22.137 25.0273 21.3161 25.0227L21.3072 24.8713V25.0227ZM15.3008 1.05545C15.2183 1.05545 15.1151 1.06233 14.9863 1.07068C12.8237 1.20662 10.7182 1.82085 8.82171 2.86907C6.15284 4.32563 3.99133 6.56105 2.62527 9.27735C1.25922 11.9936 0.75353 15.0618 1.17561 18.0728C1.58032 21.1228 2.93143 23.969 5.03871 26.2108C6.47166 27.7725 8.2282 29.0027 10.1857 29.8155C11.7725 30.4992 13.4716 30.8849 15.1981 30.9535L15.3239 30.9565C15.3727 30.962 15.4221 30.9569 15.4688 30.9417C15.4842 30.8555 15.4899 30.7678 15.486 30.6803L15.484 30.0789C15.4816 29.674 15.4791 29.2701 15.4934 28.8672C15.5016 28.7641 15.4819 28.6606 15.4363 28.5678C15.3907 28.4749 15.321 28.396 15.2344 28.3395C13.9146 27.3086 12.6002 26.2705 11.2912 25.2252C11.1219 25.0861 10.9072 25.0144 10.6883 25.0237C9.81268 25.0277 8.94247 25.0287 8.07229 25.0287L5.65729 25.0257C5.54317 25.0419 5.42679 25.0274 5.32013 24.9837C5.21347 24.94 5.12038 24.8687 5.05046 24.7771C5.00596 24.6687 4.9911 24.5503 5.00743 24.4343C5.02375 24.3182 5.07065 24.2086 5.14333 24.1167L5.53833 23.4288C5.85133 22.8824 6.16433 22.336 6.48617 21.7955C6.62228 21.5675 6.61049 21.4948 6.41787 21.3631C6.20364 21.2167 6.00267 21.0516 5.8017 20.8865C5.63906 20.7528 5.47642 20.6192 5.30592 20.4963C5.18999 20.4175 5.09668 20.3097 5.03523 20.1837C4.97378 20.0577 4.94632 19.9178 4.95558 19.7779C4.96146 17.2985 4.9608 14.8189 4.95358 12.3392C4.94889 12.1841 4.98275 12.0302 5.05212 11.8914C5.12149 11.7525 5.22421 11.6331 5.35109 11.5437C6.33529 10.7673 7.31736 9.989 8.2973 9.20869C10.3758 7.5582 12.4547 5.90722 14.5563 4.28669C14.776 4.11105 14.9825 3.91939 15.1739 3.71327C15.3616 3.52115 15.4113 3.23027 15.4869 1.55913C15.4984 1.40178 15.4885 1.24359 15.4575 1.0889C15.4522 1.07707 15.4428 1.05545 15.3008 1.05545ZM16.6118 25.0325C16.5509 25.0325 16.5263 25.0325 16.5263 25.172L16.5243 27.2967L16.5292 27.2917L16.5558 27.1954L18.42 25.7243L19.276 25.0374L18.5704 25.0315H17.5916L16.6118 25.0325ZM5.94625 13.3184L5.94134 19.4142C5.9342 19.4957 5.94855 19.5775 5.98295 19.6517C6.01735 19.7258 6.0706 19.7897 6.13739 19.8368C8.14313 21.419 10.1463 23.0045 12.1468 24.5932L14.0886 26.1322L15.4713 27.2171L15.4851 25.4688L15.4871 20.905C15.4895 20.8503 15.4775 20.7959 15.4523 20.7473C15.4272 20.6987 15.3897 20.6575 15.3436 20.6279C15.0704 20.4196 14.8016 20.2063 14.5329 19.9921L6.05046 13.2752L5.92811 13.1671L5.94625 13.3184ZM7.46112 22.2189C7.42771 22.2189 7.40412 22.2465 7.36826 22.3103C7.11026 22.7653 6.43319 23.9358 6.43319 23.9358C6.40719 23.981 6.38701 24.0173 6.37226 24.0468C6.40201 24.0409 6.43237 24.0386 6.46268 24.0399H9.75481L9.03693 23.4444C8.53426 23.0454 8.03258 22.6454 7.53188 22.2445C7.51078 22.2302 7.48646 22.2214 7.46112 22.2189V22.2189ZM25.6204 24.0399C25.5978 23.9987 16.0752 7.49477 16.0752 7.49477C16.0555 7.45988 16.0103 7.38224 15.9779 7.33704C15.9727 7.39403 15.9522 7.44854 15.9185 7.49477L14.7456 9.532C13.5712 11.5701 12.3929 13.6063 11.2107 15.6406C11.0717 15.8784 11.0869 15.956 11.3051 16.127C12.1374 16.7776 12.9672 17.4321 13.7943 18.0905C14.5751 18.7086 15.3573 19.3258 16.141 19.942C16.2675 20.033 16.3692 20.1543 16.4368 20.2947C16.5044 20.4351 16.5359 20.5902 16.5282 20.7458C16.5214 21.6067 16.5233 22.4676 16.5252 23.3284L16.5262 23.7608C16.5212 23.8506 16.5271 23.9407 16.5439 24.0291C16.6325 24.0408 16.722 24.0448 16.8112 24.0409H21.0969C21.0969 24.0409 25.5693 24.0409 25.6204 24.0399V24.0399ZM22.4393 16.0445C22.3047 16.1506 22.2919 16.2165 22.3793 16.3649C23.194 17.7633 24.0041 19.1643 24.8096 20.568L24.9167 20.5778C25.2027 20.34 25.4936 20.1061 25.7963 19.8919C25.892 19.8312 25.9688 19.7449 26.018 19.6427C26.0672 19.5406 26.0867 19.4267 26.0744 19.314C26.0606 18.6241 26.0636 17.9323 26.0655 17.2414V13.2835L26.0695 13.1715C26.0695 13.1715 23.1361 15.4966 22.4393 16.0445V16.0445ZM16.0015 4.51071C15.8914 4.52533 15.789 4.57555 15.7101 4.65371C13.7707 6.20396 11.8262 7.74847 9.87666 9.28725L6.39438 12.0418C6.34667 12.0734 6.30208 12.1094 6.26122 12.1494C7.22576 12.8845 8.1225 13.594 9.01874 14.3031L10.1646 15.2096C10.1975 15.2356 10.2324 15.2578 10.2634 15.2779L10.2924 15.1811L15.4748 6.21869C15.63 5.95089 15.8084 5.81528 16.0045 5.81528C16.2 5.81528 16.3769 5.94942 16.5302 6.21377L19.0106 10.5078L21.665 15.1266C21.6898 15.1774 21.7201 15.2253 21.7554 15.2696C21.7836 15.2538 21.8106 15.2357 21.8359 15.2155C23.082 14.2181 24.3369 13.2324 25.5929 12.2467C25.6853 12.175 25.7079 12.1445 25.7128 12.1322C25.6837 12.0975 25.6507 12.0662 25.6146 12.0389C22.4924 9.57912 19.3762 7.1115 16.2658 4.636C16.1939 4.56627 16.101 4.52223 16.0015 4.51071Z" fill="#F5C09A"/>
    </g>
    <defs>
        <clipPath id="clip0_982_149">
            <rect width="32" height="32" fill="white"/>
        </clipPath>
    </defs>
</svg>
