<svg width="32" height="32" viewBox="0 0 32 32" fill="none" xmlns="http://www.w3.org/2000/svg">
    <path d="M16 32C24.8366 32 32 24.8366 32 16C32 7.16344 24.8366 0 16 0C7.16344 0 0 7.16344 0 16C0 24.8366 7.16344 32 16 32Z" fill="black"/>
    <path d="M10.25 22.916L12.553 18.93L14.854 14.958L17.142 10.972L17.522 10.34L17.689 10.972L18.391 13.596L17.605 14.958L15.304 18.93L13.016 22.916H15.766L18.068 18.93L19.261 16.867L19.823 18.93L20.889 22.916H23.359L22.293 18.93L21.226 14.958L20.946 13.933L22.658 10.972H20.16L20.075 10.677L19.205 7.421L19.093 7H16.693L16.637 7.084L14.391 10.972L12.089 14.958L9.802 18.93L7.5 22.916H10.25Z" fill="white"/>
</svg>
