<svg width="32" height="32" viewBox="0 0 32 32" fill="none" xmlns="http://www.w3.org/2000/svg">
    <circle cx="16" cy="16" r="16" fill="white"/>
    <path d="M16 0C7.16549 0 0 7.16549 0 16C0 24.8345 7.16549 32 16 32C24.8345 32 32 24.8345 32 16C32 7.16549 24.8345 0 16 0ZM26.8675 26.8675C23.9686 29.7726 20.1035 31.3726 16 31.3726C11.8965 31.3726 8.03137 29.7726 5.13255 26.8675C2.23373 23.9624 0.627451 20.1035 0.627451 16C0.627451 11.8965 2.22745 8.03137 5.13255 5.13255C8.03765 2.23373 11.8965 0.627451 16 0.627451C20.1035 0.627451 23.9686 2.22745 26.8675 5.13255C29.7663 8.03765 31.3726 11.8965 31.3726 16C31.3726 20.1035 29.7726 23.9686 26.8675 26.8675Z" fill="#F5EADD"/>
    <path d="M23.3161 7.94352C21.8165 7.97489 20.4737 8.47057 19.2314 9.27999C19.1498 8.95999 19.1122 8.62116 18.811 8.40783C18.811 8.36391 18.8047 8.31371 18.8047 8.26979C19.018 8.18195 18.8424 8.10665 18.7984 8.02508C18.6667 7.26587 18.5475 6.50665 18.1522 5.82273C17.5561 4.79371 16.6212 4.31685 15.5043 4.14116C14.7827 4.02822 14.0486 3.99685 13.3208 4.14116C12.0157 4.39214 11.2502 5.24548 10.8926 6.48155C10.6102 7.47293 10.5788 8.4894 10.6729 9.51842C10.7294 10.1521 10.8173 10.7796 10.9365 11.4008C10.949 11.4698 10.9365 11.5451 10.9365 11.6455C10.5663 11.4384 10.2275 11.2376 9.88235 11.0557C8.80941 10.491 7.69255 10.0894 6.4502 10.1459C5.96706 10.1647 5.54039 10.3592 5.10745 10.5286C5.34588 10.0957 5.76628 10.0267 6.20549 9.95763C7.25961 9.80704 8.28235 9.93881 9.27373 10.2965C9.53098 10.3906 9.49961 10.2212 9.49961 10.0768C9.49333 8.7592 9.82588 7.51685 10.4596 6.36861C11.2251 4.9945 12.298 3.97175 13.8792 3.60783C15.2596 3.2941 16.5459 3.56391 17.7004 4.39214C18.7294 5.13254 19.5263 6.06744 20.0973 7.19057C20.1726 7.34116 20.2416 7.42901 20.4298 7.35371C21.898 6.78273 23.3537 6.95214 24.778 7.5043C26.0643 7.99999 27.1686 8.77802 28.1035 9.78195C28.6306 10.3467 29.0635 10.9867 29.4275 11.6706C29.5216 11.8463 29.5278 11.9655 29.3271 12.0784C29.0573 12.2353 28.8 12.4172 28.549 12.5992C28.4298 12.687 28.3482 12.6682 28.2604 12.549C28.1412 12.3921 28.0031 12.2478 27.8776 12.0972C27.771 11.3631 27.5012 10.698 27.0871 10.0894C26.3278 8.97254 25.3365 8.20077 23.9624 8.00626C23.9624 8.00626 23.931 7.97489 23.8808 7.96861C23.7616 7.78038 23.5608 7.80548 23.3851 7.7741C23.2282 7.75528 23.3098 7.88077 23.3161 7.94352Z" fill="#EEDBDF"/>
    <path d="M3.82744 16.3137C3.58901 15.1655 3.58901 14.0173 3.77724 12.869C3.9341 11.9279 4.34822 11.131 5.11371 10.5412C5.54665 10.3718 5.97332 10.1773 6.45646 10.1584C7.69881 10.102 8.81567 10.5035 9.88862 11.0682C10.2337 11.2502 10.5788 11.451 10.9427 11.658C10.9427 11.5514 10.9553 11.4824 10.9427 11.4133C10.8235 10.7922 10.7357 10.1647 10.6792 9.53099C10.5851 8.50197 10.6102 7.4855 10.8988 6.49412C11.2502 5.25805 12.0157 4.40471 13.327 4.15373C14.0486 4.01569 14.7827 4.04079 15.5106 4.15373C16.6274 4.33569 17.5686 4.80628 18.1584 5.8353C18.5537 6.51922 18.6729 7.27844 18.8047 8.03765C18.8047 8.11922 18.811 8.20079 18.811 8.28236C18.811 8.32628 18.8172 8.37648 18.8172 8.4204C18.8361 8.78432 18.8486 9.14824 18.8674 9.54981C19.0243 9.47452 19.1435 9.4055 19.2376 9.29256C20.48 8.48314 21.8227 7.98118 23.3223 7.95608C23.5106 7.96863 23.8619 7.98118 23.8933 7.98746C25.2674 8.17569 26.3467 8.99138 27.0996 10.1082C27.5137 10.7169 27.7835 11.3882 27.8902 12.1161C27.9278 13.7412 27.0682 14.8894 25.8949 15.8745C25.807 15.9498 25.7192 16.0188 25.6251 16.0878C25.2361 16.3765 25.2486 16.3639 25.6314 16.6965C27.0055 17.8824 27.9027 19.3255 27.8776 21.1953C27.8588 22.4628 27.4321 23.6235 26.6353 24.6086C25.8133 25.6251 24.6714 25.9702 23.4102 25.8259C21.4086 25.6 19.771 24.6149 18.3467 23.2408C18.1584 23.0588 18.0957 23.0086 17.9765 23.3098C17.2172 25.1859 15.9937 26.6729 14.1427 27.5577C12.4737 28.3545 10.9176 28.0722 9.48705 26.9428C8.56469 26.2149 7.91214 25.3177 7.76783 24.1318C7.62979 23.0024 7.86822 21.9294 8.34509 20.9067C8.40156 20.7875 8.45175 20.6557 8.50195 20.5365C8.62116 20.342 8.73411 20.1412 8.85332 19.9529C8.96626 19.771 8.91607 19.7208 8.71528 19.7271C8.18195 19.7459 7.65489 19.7145 7.1341 19.5953C5.82901 19.3067 4.83136 18.629 4.22901 17.4055C4.05959 17.0416 3.96548 16.6714 3.82744 16.3137Z" fill="#E98397"/>
    <path d="M3.82745 16.3137C3.97176 16.6714 4.05961 17.0416 4.22902 17.3929C4.83137 18.6165 5.82902 19.2941 7.13412 19.5827C7.6549 19.6957 8.18196 19.7271 8.71529 19.7145C8.9098 19.7082 8.96627 19.7584 8.85333 19.9404C8.72784 20.1349 8.6149 20.3294 8.50196 20.5239C7.52314 20.229 6.56941 19.8776 5.67216 19.3882C4.61804 18.811 3.7647 18.0329 3.2 16.9537C3.07451 16.709 3.1247 16.5961 3.36941 16.5145C3.52627 16.4518 3.67686 16.3765 3.82745 16.3137Z" fill="#EEDBDF"/>
    <path d="M12.0345 15.6926C12.0282 15.8557 12.0157 16.0251 12.0094 16.1882C11.2502 15.8808 10.5098 15.5106 9.72548 15.2659C8.52078 14.8831 7.32862 14.7639 6.13646 15.3161C6.01725 15.3726 5.89803 15.4478 5.77882 15.5106C5.71607 15.542 5.64705 15.5922 5.58431 15.5231C5.54039 15.4729 5.55294 15.4039 5.57176 15.3475C5.66588 15.1153 5.79137 14.9333 6.03607 14.8267C7.20313 14.3122 8.37646 14.3498 9.56862 14.72C10.3592 14.9647 11.0996 15.3098 11.8525 15.6424C11.909 15.6612 11.9718 15.6737 12.0345 15.6926Z" fill="#D26C80"/>
    <path d="M18.1522 18.3718C18.2024 18.2902 18.2526 18.2149 18.2965 18.1333C18.5977 18.1396 18.8486 18.3027 19.1122 18.4157C20.2416 18.88 21.2957 19.4886 22.331 20.1349C23.2596 20.7122 24.1318 21.371 25.0039 22.0235C25.0667 22.0737 25.1482 22.1302 25.1733 22.1992C25.2361 22.3624 25.418 22.5757 25.2424 22.7074C25.0667 22.8392 24.9726 22.582 24.8659 22.4753C23.7428 21.371 22.4565 20.4925 21.0761 19.7459C20.16 19.2502 19.2188 18.7922 18.24 18.4282C18.2149 18.4282 18.1835 18.3969 18.1522 18.3718Z" fill="#D26C80"/>
    <path d="M18.5349 14.7639C18.4345 14.6761 18.3843 14.5631 18.3529 14.4314C19.0306 13.5467 19.7898 12.731 20.6871 12.0659C21.9545 11.131 23.3725 10.7733 24.9349 11.0494C25.0039 11.062 25.0667 11.0933 25.1294 11.1435C24.4455 11.1624 23.7678 11.1498 23.0965 11.3443C22.0047 11.658 21.0384 12.1914 20.1976 12.9443C19.5827 13.4902 19.0118 14.0863 18.5349 14.7639Z" fill="#D26C80"/>
    <path d="M14.4063 19.5639C14.5067 19.589 14.6071 19.6204 14.7137 19.6455C13.8667 20.9569 13.2267 22.4 12.2729 23.6423C11.9655 24.0376 11.6204 24.4015 11.1686 24.64C10.9678 24.7466 10.7482 24.8219 10.4847 24.7529C12.2918 23.3914 13.2455 21.4023 14.4063 19.5639Z" fill="#D26C80"/>
    <path d="M15.2722 12.7749C15.2094 12.7812 15.1529 12.7812 15.0902 12.7875C14.9898 10.5788 14.6071 8.41412 14.0988 6.26196C14.4941 6.72628 14.6761 7.29098 14.8204 7.85569C15.0212 8.62745 15.0965 9.42432 15.1529 10.2212C15.2157 11.0745 15.2973 11.9216 15.2722 12.7749Z" fill="#D26C80"/>
    <path d="M15.4227 19.702C17.3287 19.702 18.8737 18.1569 18.8737 16.251C18.8737 14.3451 17.3287 12.8 15.4227 12.8C13.5168 12.8 11.9718 14.3451 11.9718 16.251C11.9718 18.1569 13.5168 19.702 15.4227 19.702Z" fill="#FDEBAB"/>
</svg>
