<svg width="32" height="32" viewBox="0 0 32 32" fill="none" xmlns="http://www.w3.org/2000/svg">
    <g clip-path="url(#clip0_931_520)">
        <path d="M31.4372 16.0001C31.4372 19.0533 30.5319 22.0379 28.8356 24.5765C27.1393 27.1151 24.7284 29.0938 21.9076 30.2622C19.0869 31.4305 15.983 31.7363 12.9885 31.1406C9.99397 30.545 7.24334 29.0747 5.08442 26.9158C2.9255 24.7569 1.45526 22.0063 0.859617 19.0117C0.263971 16.0172 0.569675 12.9134 1.73807 10.0926C2.90647 7.27183 4.88508 4.86088 7.42369 3.16462C9.96231 1.46837 12.9469 0.562994 16.0001 0.562988C18.0273 0.562982 20.0347 0.962271 21.9076 1.73806C23.7806 2.51385 25.4823 3.65094 26.9158 5.08441C28.3493 6.51788 29.4864 8.21967 30.2622 10.0926C31.038 11.9655 31.4372 13.9729 31.4372 16.0001V16.0001Z" fill="white"/>
        <path d="M16 32C12.8355 32 9.74207 31.0616 7.11088 29.3035C4.4797 27.5454 2.42894 25.0466 1.21793 22.1229C0.0069325 19.1993 -0.309921 15.9823 0.307443 12.8786C0.924806 9.77487 2.44866 6.92394 4.6863 4.6863C6.92394 2.44866 9.77487 0.924806 12.8786 0.307443C15.9823 -0.309921 19.1993 0.0069325 22.1229 1.21793C25.0466 2.42894 27.5454 4.4797 29.3035 7.11088C31.0616 9.74207 32 12.8355 32 16C31.9952 20.242 30.308 24.3089 27.3085 27.3085C24.3089 30.308 20.242 31.9952 16 32ZM16 1.1258C13.0582 1.1258 10.1824 1.99815 7.73634 3.63255C5.29029 5.26695 3.38382 7.58999 2.25803 10.3079C1.13224 13.0258 0.837676 16.0165 1.4116 18.9018C1.98553 21.7871 3.40216 24.4375 5.48235 26.5177C7.56255 28.5979 10.2129 30.0145 13.0982 30.5884C15.9835 31.1623 18.9742 30.8678 21.6921 29.742C24.41 28.6162 26.7331 26.7097 28.3675 24.2637C30.0019 21.8176 30.8742 18.9418 30.8742 16C30.8698 12.0565 29.3013 8.27572 26.5128 5.48722C23.7243 2.69872 19.9435 1.13021 16 1.1258V1.1258Z" fill="#31C77F"/>
        <path d="M21.721 28.1258C21.0512 28.4163 20.3631 28.6626 19.6612 28.8632C18.9789 29.0877 18.2739 29.2361 17.5591 29.3056C17.2254 29.3014 16.8954 29.376 16.5959 29.5233C16.4265 29.6002 16.238 29.6247 16.0546 29.5935C15.8407 29.5604 15.624 29.5487 15.4078 29.5584C14.8172 29.6427 14.2126 29.6919 13.615 29.7481C13.3051 29.79 12.9927 29.8111 12.68 29.8113C12.0071 29.7798 11.3399 29.6738 10.6904 29.4953C10.4642 29.4281 10.2452 29.3387 10.0366 29.2283L9.82904 29.0832C9.63763 29.5325 9.25658 30.4571 9.25658 30.4571L9.20828 30.433L9.20197 30.4627C11.4126 31.5151 13.8372 32.0405 16.2852 31.9976C18.7331 31.9547 21.1378 31.3448 23.3103 30.2157L23.3971 30.0841C22.9417 29.3783 22.5516 28.6324 22.2318 27.8557C22.0665 27.9549 21.896 28.0451 21.721 28.1258V28.1258Z" fill="white"/>
        <path d="M24.3434 19.5584C23.2824 20.0532 22.2956 20.6938 21.4118 21.4615C21.3058 21.5512 21.2189 21.6614 21.1566 21.7854C21.0861 21.9364 21.0671 22.1063 21.1024 22.2691C21.1355 22.5674 21.1472 22.8678 21.1376 23.1679C21.1446 23.2803 21.1587 23.3997 21.1657 23.512C21.1655 23.5593 21.1821 23.6052 21.2125 23.6414C21.2343 23.6637 21.2617 23.6797 21.2918 23.6878C21.3219 23.6959 21.3536 23.6958 21.3836 23.6876C21.6154 23.6714 21.8479 23.7049 22.0656 23.7859C22.1779 23.8165 22.2807 23.875 22.3643 23.956C22.4479 24.0371 22.5096 24.138 22.5437 24.2493C22.6066 24.4368 22.6282 24.6356 22.6069 24.8322C22.594 24.8881 22.601 24.9467 22.6266 24.998C22.6523 25.0493 22.6951 25.09 22.7475 25.1132C22.9135 25.1842 23.063 25.2889 23.1864 25.4206C23.3099 25.5524 23.4046 25.7083 23.4647 25.8786C23.5068 26.012 23.5911 26.0261 23.7037 25.991C24.0494 25.8954 24.384 25.7636 24.7019 25.5977C25.4965 25.1201 26.2979 24.6567 27.1204 24.2283C27.8446 23.849 28.5687 23.4629 29.335 23.1538C29.7092 23.0028 30.0936 22.8857 30.4776 22.7674C31.409 20.7843 31.9198 18.6298 31.9777 16.4396C31.7538 16.5231 31.5356 16.6196 31.3105 16.7003C28.9356 17.5195 26.6094 18.4738 24.3434 19.5584V19.5584Z" fill="#31C77F"/>
        <path d="M15.1412 28.6382C15.1693 28.4838 15.106 28.4135 14.9654 28.3573C14.4101 28.1222 13.8781 27.8354 13.3765 27.5006C12.2332 26.8385 11.1874 26.0208 10.2692 25.0709C10.248 25.0428 10.2199 25.0217 10.1988 24.9937C10.1144 24.8883 10.0371 24.9164 9.93169 24.9797C9.81633 25.0573 9.71915 25.159 9.64683 25.2777C9.5745 25.3965 9.52875 25.5295 9.51271 25.6676C9.49668 25.8058 9.51074 25.9457 9.55393 26.0779C9.59712 26.2101 9.66842 26.3313 9.76292 26.4333C9.87537 26.5386 9.98792 26.6369 10.1003 26.7352C10.1988 26.8266 10.2832 26.9319 10.1918 27.0652C10.1533 27.1176 10.0967 27.1537 10.0331 27.1667C9.9694 27.1797 9.9032 27.1685 9.84727 27.1355C9.77697 27.1075 9.69961 27.0793 9.58716 27.0302C9.48634 27.2361 9.44478 27.466 9.46713 27.6942C9.48948 27.9224 9.57486 28.1399 9.71372 28.3223C9.86858 28.5256 10.0715 28.6873 10.3043 28.7928C10.9541 29.0998 11.6546 29.2854 12.3713 29.3406C13.0756 29.3463 13.7796 29.3135 14.4804 29.2423C14.6663 29.2366 14.8517 29.2202 15.0357 29.193C15.1482 29.1861 15.2186 29.1509 15.1694 29.0175C15.1217 28.8968 15.1119 28.7646 15.1412 28.6382V28.6382Z" fill="#31C77F"/>
        <path d="M22.7459 25.6539C22.6417 25.564 22.5228 25.4928 22.3944 25.4432C22.31 25.4152 22.2608 25.5485 22.1765 25.5907C22.1694 25.5977 22.1553 25.5977 22.1483 25.6047C22.1051 25.6335 22.0537 25.6477 22.0019 25.6451C21.95 25.6426 21.9003 25.6236 21.8601 25.5907C21.8207 25.5562 21.7959 25.5079 21.7907 25.4558C21.7854 25.4037 21.8002 25.3515 21.8319 25.3098C21.9023 25.1764 21.9866 25.05 22.0499 24.9166C22.0894 24.8493 22.1117 24.7733 22.1147 24.6954C22.1178 24.6174 22.1015 24.5399 22.0675 24.4697C22.0334 24.3996 21.9825 24.3389 21.9193 24.2931C21.8562 24.2473 21.7827 24.2178 21.7054 24.2073C21.5918 24.1818 21.4768 24.163 21.361 24.1511C21.2415 24.1371 21.1852 24.1862 21.1923 24.3056C21.1932 24.4447 21.1656 24.5825 21.1111 24.7105C21.0567 24.8386 20.9767 24.9541 20.8759 25.05C20.2947 25.7113 19.6494 26.3135 18.9496 26.8478C18.3661 27.2691 17.8247 27.7395 17.2131 28.1188C17.1147 28.182 17.0443 28.2452 17.1428 28.3646C17.1708 28.4029 17.1921 28.4456 17.206 28.4909C17.2482 28.5963 17.2553 28.7367 17.3255 28.8069C17.424 28.8982 17.5646 28.7859 17.67 28.7999C17.8277 28.7995 17.9851 28.7878 18.1411 28.7648C19.1067 28.5797 20.0546 28.3118 20.9743 27.9643C21.538 27.7835 22.0576 27.4869 22.4999 27.0935C22.7215 26.8872 22.8923 26.6324 22.999 26.3491C23.0411 26.2217 23.0389 26.0838 22.993 25.9576C22.9471 25.8315 22.86 25.7245 22.7459 25.6539V25.6539Z" fill="#31C77F"/>
        <path d="M20.3496 7.00226C19.9104 7.48001 19.5129 7.99453 19.1615 8.54015C19.0841 8.6736 19.0771 8.75084 19.1966 8.86324C19.4493 9.06288 19.6678 9.30245 19.8434 9.57249C19.9246 9.51088 19.9838 9.42468 20.0121 9.32671C20.2089 8.93343 20.4058 8.54726 20.6308 8.16798C20.8308 7.76393 20.9729 7.33367 21.0526 6.88992C21.0655 6.8323 21.0679 6.77284 21.0596 6.71438C21.0315 6.50369 20.9261 6.45455 20.7503 6.57394C20.5992 6.69918 20.4645 6.8431 20.3496 7.00226V7.00226Z" fill="#FEFEFE"/>
        <path d="M15.9147 28.2871C15.8133 28.3298 15.7274 28.4025 15.6683 28.4953C15.6093 28.5881 15.5799 28.6967 15.5842 28.8067C15.6123 28.9963 15.76 29.1157 16.0061 29.1508C16.0623 29.1579 16.1255 29.1579 16.1607 29.1649C16.3548 29.178 16.5477 29.1261 16.709 29.0174C16.7481 28.9973 16.7822 28.9687 16.8089 28.9339C16.8357 28.899 16.8544 28.8587 16.8638 28.8158C16.8732 28.7729 16.873 28.7284 16.8633 28.6856C16.8535 28.6427 16.8345 28.6026 16.8074 28.568C16.7677 28.4904 16.713 28.4216 16.6465 28.3654C16.5799 28.3092 16.5029 28.2668 16.4198 28.2407C16.3368 28.2146 16.2493 28.2052 16.1626 28.2132C16.0759 28.2211 15.9916 28.2462 15.9147 28.2871V28.2871Z" fill="#31C77F"/>
        <path d="M15.4586 14.8676C15.3531 14.8817 15.3108 14.9309 15.3038 15.001C15.2981 15.0822 15.3109 15.1636 15.3414 15.239C15.3718 15.3145 15.4191 15.382 15.4796 15.4364C15.4975 15.4592 15.5218 15.4761 15.5494 15.4848C15.5769 15.4936 15.6065 15.4939 15.6343 15.4856C15.668 15.4754 15.6971 15.4536 15.7164 15.424C15.7357 15.3945 15.744 15.3591 15.7397 15.324C15.7188 15.1737 15.6554 15.0324 15.557 14.9168C15.5358 14.8887 15.4796 14.8817 15.4586 14.8676Z" fill="#0E0D0D"/>
        <path d="M16.59 14.8252C16.5713 14.8164 16.5509 14.8118 16.5302 14.8118C16.5095 14.8117 16.4891 14.8162 16.4703 14.8249C16.4516 14.8336 16.4349 14.8463 16.4216 14.8621C16.4083 14.8779 16.3986 14.8965 16.3932 14.9164C16.3541 14.9981 16.3212 15.0826 16.2948 15.1693C16.2736 15.2886 16.2736 15.38 16.372 15.408C16.4845 15.4501 16.5478 15.38 16.583 15.2886C16.6198 15.1924 16.6504 15.0939 16.6744 14.9937C16.6823 14.9602 16.6782 14.9249 16.6627 14.8941C16.6473 14.8633 16.6216 14.8389 16.59 14.8252V14.8252Z" fill="#191717"/>
        <path d="M31.9884 15.7711C31.1133 16.1033 30.2359 16.4295 29.356 16.7495C27.3141 17.5003 25.3268 18.392 23.4083 19.418C22.7062 19.8011 22.0484 20.2604 21.4468 20.7874C21.3485 20.8717 21.25 20.9699 21.1515 21.0473C21.1445 21.0403 21.1375 21.0403 21.1304 21.0332C21.1216 21.0526 21.1109 21.0713 21.0986 21.0888C21.0766 20.6147 21.0767 20.1382 21.069 19.6637C21.0843 19.0502 21.0253 18.4372 20.8932 17.8379C20.7645 17.3781 20.7476 16.8941 20.8439 16.4264C20.9504 15.9156 20.9623 15.3895 20.8791 14.8744C20.823 14.6372 20.8157 14.3911 20.8579 14.1511C20.9562 13.6851 20.9847 13.207 20.9424 12.7325C20.8916 12.1797 20.7832 11.6337 20.619 11.1034C20.5914 11.0353 20.5853 10.9604 20.6017 10.8888C20.618 10.8173 20.6559 10.7524 20.7103 10.7031C20.8735 10.5377 21.0067 10.3453 21.1041 10.1343C21.7418 8.96478 22.1724 7.69368 22.3765 6.3773C22.4467 6.00944 22.4774 5.63512 22.468 5.26073C22.4739 5.14635 22.452 5.03225 22.4043 4.92812C22.3567 4.82398 22.2846 4.73289 22.1942 4.66258C22.1038 4.59226 21.9977 4.54481 21.8851 4.52424C21.7724 4.50367 21.6564 4.51059 21.547 4.54442C21.3068 4.58893 21.079 4.68477 20.8792 4.82537C20.3916 5.20002 19.9482 5.62879 19.5574 6.10344C19.0864 6.64416 18.6083 7.18487 18.1514 7.73961C18.1052 7.81087 18.0329 7.86113 17.9501 7.87953C17.8672 7.89794 17.7804 7.88303 17.7084 7.838C17.4375 7.7043 17.1445 7.62101 16.8438 7.59221C15.7954 7.44939 14.7283 7.54541 13.7223 7.8731C13.6427 7.9171 13.5491 7.92851 13.4613 7.90494C13.3734 7.88136 13.2981 7.82464 13.2512 7.74669C12.8013 7.20598 12.3373 6.67223 11.8663 6.13854C11.4677 5.65722 11.0147 5.22363 10.5164 4.84643C10.2799 4.67723 9.99862 4.58192 9.708 4.57256C9.54382 4.55373 9.37866 4.59858 9.24655 4.69786C9.11444 4.79715 9.02543 4.94331 8.99785 5.10625C8.97229 5.21912 8.96048 5.33467 8.9627 5.45037C8.98141 6.08668 9.06387 6.71952 9.20885 7.33937C9.43804 8.22451 9.75845 9.08347 10.1649 9.90248C10.3023 10.2339 10.4975 10.5382 10.7414 10.8013C10.7836 10.8393 10.8135 10.889 10.8272 10.944C10.841 10.9991 10.8381 11.057 10.8188 11.1103C10.7625 11.307 10.7133 11.5106 10.6641 11.7143C10.4586 12.4424 10.4059 13.2051 10.5094 13.9545C10.5644 14.3433 10.5668 14.7377 10.5164 15.1271C10.4543 15.552 10.4662 15.9844 10.5515 16.4053C10.663 16.9062 10.6509 17.4268 10.5164 17.9221C10.3775 18.4487 10.3182 18.9931 10.3407 19.5372C10.3758 20.1201 10.3056 20.6959 10.2844 21.2718C10.2939 21.6083 10.268 21.9449 10.2071 22.2759C10.1169 22.6963 10.1074 23.13 10.179 23.554C10.2223 23.7633 10.2454 23.9763 10.248 24.19L10.2195 24.2002C10.0152 24.2667 9.82121 24.3612 9.64301 24.4812C9.62556 24.4968 9.60675 24.5109 9.5868 24.5233C9.28085 24.7401 9.06716 25.0636 8.98778 25.4302C8.90841 25.7967 8.9691 26.1796 9.15791 26.5036C9.18796 26.5562 9.20318 26.616 9.20195 26.6766C9.20071 26.7372 9.18308 26.7963 9.15091 26.8477C8.9978 27.1163 8.93118 27.4256 8.96011 27.7335C8.98904 28.0413 9.11211 28.3328 9.31259 28.5682C9.33926 28.6032 9.36679 28.6375 9.3934 28.6726L8.82083 30.2393L9.2084 30.4329L9.25668 30.457C9.25668 30.457 9.63768 29.5324 9.82913 29.0831L10.0367 29.2282C10.2453 29.3386 10.4643 29.4281 10.6905 29.4952C11.34 29.6738 12.0072 29.7797 12.6801 29.8112C12.9928 29.8111 13.3052 29.79 13.6151 29.748C14.2127 29.6918 14.8173 29.6426 15.4079 29.5584C15.6241 29.5486 15.8408 29.5604 16.0547 29.5935C16.2381 29.6246 16.4266 29.6002 16.596 29.5232C16.8955 29.3759 17.2255 29.3013 17.5592 29.3055C18.274 29.236 18.979 29.0876 19.6612 28.8631C20.3631 28.6625 21.0512 28.4162 21.7211 28.1257C21.8961 28.045 22.0666 27.9548 22.2319 27.8555C22.5516 28.6323 22.9416 29.3782 23.397 30.0841C23.4155 30.1057 23.4353 30.126 23.4564 30.1451C23.5517 30.0947 23.6471 30.0448 23.7412 29.9925C23.7371 29.8876 23.7176 29.7838 23.6834 29.6845C23.6834 29.6845 22.9743 28.2013 22.6641 27.5491C22.9337 27.3287 23.1537 27.0538 23.3099 26.7425C23.3384 26.685 23.3822 26.6364 23.4364 26.6021C24.022 26.3407 24.6259 26.1225 25.2432 25.949C25.9532 25.5557 26.6563 25.1624 27.3734 24.7832C28.26 24.296 29.1782 23.8687 30.122 23.5044C30.2501 23.2643 30.3615 23.0146 30.4776 22.7675C30.0936 22.8857 29.7092 23.0027 29.3351 23.1538C28.5687 23.4628 27.8446 23.849 27.1204 24.2283C26.298 24.6567 25.4965 25.1201 24.702 25.5977C24.384 25.7636 24.0494 25.8954 23.7037 25.991C23.5912 26.0261 23.5068 26.012 23.4647 25.8785C23.4047 25.7083 23.3099 25.5523 23.1865 25.4206C23.0631 25.2888 22.9136 25.1842 22.7476 25.1132C22.6951 25.09 22.6524 25.0493 22.6267 24.998C22.601 24.9467 22.5941 24.888 22.607 24.8322C22.6282 24.6356 22.6066 24.4367 22.5437 24.2492C22.5097 24.1379 22.448 24.037 22.3644 23.956C22.2808 23.8749 22.178 23.8164 22.0657 23.7858C21.848 23.7048 21.6154 23.6713 21.3837 23.6875C21.3536 23.6957 21.3219 23.6958 21.2919 23.6877C21.2618 23.6796 21.2344 23.6636 21.2126 23.6414C21.1822 23.6051 21.1656 23.5592 21.1657 23.5119C21.1587 23.3996 21.1447 23.2802 21.1377 23.1678C21.1474 22.8677 21.1356 22.5674 21.1025 22.269C21.0672 22.1062 21.0862 21.9363 21.1567 21.7853C21.2191 21.6613 21.3059 21.5511 21.4119 21.4614C22.2958 20.6937 23.2825 20.0531 24.3435 19.5583C26.6095 18.4737 28.9357 17.5195 31.3106 16.7003C31.5357 16.6195 31.7539 16.523 31.9778 16.4396C31.9818 16.2922 32 16.1484 32 16C32 15.9227 31.9895 15.8481 31.9884 15.7711Z" fill="#231F20"/>
        <path d="M15.0356 29.1929C14.8517 29.2201 14.6662 29.2366 14.4804 29.2422C13.7796 29.3134 13.0755 29.3462 12.3712 29.3405C11.6546 29.2853 10.9541 29.0997 10.3042 28.7927C10.0715 28.6872 9.86855 28.5256 9.71371 28.3223C9.57484 28.1398 9.48946 27.9223 9.4671 27.6942C9.44475 27.466 9.4863 27.2361 9.58712 27.0301C9.69961 27.0792 9.77694 27.1074 9.84725 27.1354C9.90318 27.1685 9.96939 27.1796 10.033 27.1666C10.0967 27.1536 10.1533 27.1175 10.1918 27.0652C10.2832 26.9318 10.1988 26.8265 10.1003 26.7352C9.98788 26.6368 9.8753 26.5385 9.7629 26.4332C9.6684 26.3312 9.5971 26.21 9.55391 26.0778C9.51072 25.9457 9.49666 25.8057 9.5127 25.6676C9.52873 25.5295 9.57448 25.3965 9.6468 25.2777C9.71913 25.1589 9.81631 25.0572 9.93166 24.9796C10.0371 24.9164 10.1144 24.8882 10.1988 24.9936C10.2199 25.0216 10.248 25.0428 10.2691 25.0708C11.1874 26.0207 12.2331 26.8385 13.3765 27.5005C13.878 27.8353 14.41 28.1222 14.9654 28.3573C15.106 28.4135 15.1693 28.4837 15.1411 28.6381C15.1118 28.7645 15.1217 28.8967 15.1693 29.0174C15.2185 29.1509 15.1481 29.186 15.0356 29.1929Z" fill="#31C77F"/>
        <path d="M16.709 29.0174C16.5477 29.1261 16.3548 29.178 16.1607 29.1649C16.1255 29.1579 16.0623 29.1579 16.0061 29.1508C15.7599 29.1158 15.6124 28.9963 15.5842 28.8067C15.5799 28.6968 15.6093 28.5881 15.6683 28.4953C15.7273 28.4024 15.8133 28.3298 15.9147 28.287C15.9916 28.2462 16.0759 28.2211 16.1626 28.2132C16.2493 28.2052 16.3367 28.2146 16.4198 28.2407C16.5029 28.2668 16.5799 28.3092 16.6465 28.3654C16.713 28.4216 16.7677 28.4904 16.8074 28.5679C16.8345 28.6025 16.8535 28.6427 16.8633 28.6856C16.873 28.7284 16.8732 28.7729 16.8638 28.8158C16.8544 28.8587 16.8357 28.899 16.8089 28.9339C16.7822 28.9687 16.7481 28.9972 16.709 29.0174V29.0174Z" fill="#31C77F"/>
        <path d="M16.9052 27.7467C16.7927 27.9152 16.6662 27.9011 16.4975 27.8169C16.3536 27.7531 16.1955 27.7279 16.0389 27.7439C15.8823 27.7599 15.7326 27.8165 15.6046 27.9082C15.5453 27.9496 15.4752 27.9731 15.4028 27.9755C15.3305 27.978 15.2589 27.9595 15.1969 27.9222C14.4861 27.5812 13.8022 27.1868 13.1511 26.7424C12.3086 26.1731 11.5071 25.5453 10.7524 24.8637L10.7523 24.8576C10.7413 24.4245 10.7037 23.5965 10.6711 23.2311C10.6477 22.8953 10.6666 22.5579 10.7273 22.2268C10.8643 21.5097 10.8998 20.7769 10.8328 20.0498C10.7728 19.3559 10.8226 18.6568 10.9804 17.9784C11.0904 17.4082 11.0952 16.8227 10.9944 16.2508C10.9666 16.1264 10.9594 15.9983 10.9733 15.8716C11.0519 15.4262 11.0966 14.9754 11.107 14.5233C11.1175 14.5326 11.1286 14.5361 11.1392 14.545C11.3171 14.6919 11.5286 14.7925 11.7548 14.8377C11.981 14.883 12.2149 14.8714 12.4356 14.8042L12.445 14.8008C12.6182 14.7594 12.7786 14.6759 12.9119 14.5576C13.0451 14.4394 13.1472 14.2901 13.209 14.123C13.2485 14.0328 13.2743 13.9293 13.3791 13.9118C13.4088 13.9056 13.4395 13.9058 13.4691 13.9124C13.5152 13.9246 13.564 13.9208 13.6077 13.9018C13.6286 13.892 13.6463 13.8767 13.6591 13.8575C13.6718 13.8383 13.6791 13.816 13.6801 13.7929C13.6941 13.6736 13.6027 13.6385 13.5043 13.6174C12.9209 13.484 12.3302 13.3435 11.7467 13.2171C11.5566 13.1696 11.3642 13.1321 11.1703 13.1048C11.0015 13.0837 10.9663 13.0064 10.9804 12.8519C11.0463 12.1357 11.2169 11.4331 11.4866 10.7663C11.7524 10.1113 12.1441 9.51484 12.6396 9.01072C12.7029 8.94743 12.7803 8.8773 12.738 8.77194C12.7313 8.74958 12.7197 8.72895 12.7042 8.71148C12.6887 8.69401 12.6696 8.68012 12.6482 8.67077C12.6268 8.66143 12.6036 8.65684 12.5803 8.65735C12.5569 8.65785 12.534 8.66343 12.513 8.67369C12.4076 8.70869 12.3654 8.65263 12.3162 8.58232C12.2178 8.42784 12.1123 8.27342 12.021 8.11186C11.7003 7.6146 11.348 7.13844 10.9664 6.68632C10.8848 6.58737 10.7902 6.49995 10.6852 6.42643C10.6318 6.38123 10.5682 6.34968 10.5 6.33448C10.4317 6.31927 10.3608 6.32088 10.2933 6.33915C10.2194 6.3713 10.1569 6.42497 10.1139 6.49316C10.071 6.56134 10.0496 6.64088 10.0525 6.72142C10.0204 6.97502 10.0493 7.23262 10.1368 7.47282C10.4161 8.32907 10.7714 9.15867 11.1983 9.95174C11.3101 10.1356 11.1722 10.2284 11.1018 10.3543C11.0969 10.3631 11.09 10.3709 11.0858 10.3801C10.9824 10.2979 10.9004 10.1919 10.8467 10.0712C10.1608 8.94115 9.67563 7.70095 9.4126 6.40548C9.35771 6.06191 9.34121 5.71331 9.36341 5.36611C9.37934 5.07918 9.48077 4.954 9.68719 4.94924C9.76542 4.94916 9.84331 4.95947 9.91883 4.97988C10.1733 5.06205 10.4029 5.20694 10.5867 5.40119C11.2546 6.01924 11.824 6.71444 12.4287 7.38857C12.5904 7.57119 12.752 7.75368 12.9068 7.9363C13.0173 8.03765 13.0893 8.17411 13.1106 8.32253C13.1247 8.51223 13.2583 8.56832 13.434 8.49813L13.4462 8.49201C13.4864 8.47761 13.5248 8.45844 13.5605 8.4349C13.8568 8.25163 14.1911 8.13872 14.5377 8.10482L14.5409 8.10445C15.4905 7.94903 16.4613 7.98019 17.3991 8.19619C17.5436 8.23901 17.681 8.30286 17.8069 8.3857C17.957 8.47719 18.0563 8.50588 18.13 8.47036C18.1979 8.43758 18.2445 8.35097 18.2849 8.19619C18.3107 8.10596 18.3591 8.02379 18.4255 7.95742C19.2059 7.08663 19.9301 6.16664 20.7877 5.36611C20.9634 5.17889 21.18 5.03471 21.4204 4.94478C21.4329 4.94078 21.4405 4.94222 21.4526 4.93878C21.841 4.82452 22.0118 4.95068 22.0391 5.36615C22.0594 6.16724 21.9208 6.96441 21.6314 7.71167C21.3591 8.46355 21.0252 9.19166 20.633 9.88857C20.5538 10.0334 20.4559 10.1622 20.3572 10.3221L20.3378 10.3521C19.9933 9.83941 19.9933 9.84649 20.2534 9.35491C20.5955 8.76389 20.8893 8.14625 21.1321 7.50798C21.2351 7.2363 21.2899 6.94873 21.294 6.65822C21.3037 6.57154 21.2875 6.48395 21.2474 6.40647C21.2074 6.329 21.1453 6.26511 21.069 6.22286C21.0025 6.18959 20.9264 6.18082 20.854 6.19808C20.7693 6.22045 20.6912 6.26263 20.626 6.32113C20.4653 6.45467 20.3127 6.59773 20.1691 6.74953C19.6423 7.23712 19.1941 7.80326 18.8404 8.42788C18.784 8.55434 18.5662 8.61049 18.6505 8.80007C18.7068 8.92641 18.8404 9.00368 18.9247 9.10907C19.429 9.70091 19.8177 10.3822 20.0706 11.1174C20.2239 11.5907 20.3322 12.0774 20.394 12.571C20.422 12.8239 20.422 12.8239 20.162 12.894C19.5222 13.0626 18.8895 13.2312 18.2497 13.3997C18.1918 13.4096 18.1352 13.4261 18.081 13.4488C17.9474 13.5121 17.9333 13.6314 18.0598 13.7087C18.1004 13.7244 18.1364 13.75 18.1647 13.7831C18.1929 13.8162 18.2125 13.8558 18.2216 13.8983C18.257 14.1061 18.3592 14.2967 18.5127 14.4412C18.6662 14.5856 18.8627 14.6761 19.0722 14.6989C19.2889 14.7393 19.5121 14.7278 19.7235 14.6654C19.9349 14.5947 20.1133 14.4493 20.2252 14.2564C20.2266 14.2519 20.2289 14.2478 20.2319 14.2442C20.235 14.2406 20.2388 14.2377 20.2431 14.2357C20.2474 14.2337 20.252 14.2326 20.2567 14.2325C20.2614 14.2324 20.2661 14.2333 20.2705 14.2351C20.2792 14.2357 20.2878 14.2382 20.2955 14.2424C20.2818 14.7674 20.3242 15.2924 20.4221 15.8084C20.4374 15.9111 20.435 16.0156 20.4151 16.1174C20.2907 16.7679 20.3003 17.437 20.4432 18.0837C20.5882 18.7999 20.6214 19.5343 20.5416 20.2607C20.5008 20.6782 20.5144 21.0993 20.5823 21.5133C20.5665 22.3205 20.6005 23.1278 20.6842 23.9308C20.6791 24.0187 20.6686 24.1068 20.6685 24.1948C20.6515 24.387 20.5688 24.5675 20.4344 24.706C19.3808 25.786 18.2378 26.7749 17.0177 27.6624C16.9773 27.6865 16.9396 27.7147 16.9052 27.7467Z" fill="white"/>
        <path d="M11.5696 13.7509C11.5626 13.5964 11.647 13.498 11.7806 13.498C11.8148 13.493 11.8496 13.4954 11.8828 13.5051C11.916 13.5148 11.9466 13.5315 11.9727 13.5542C11.9988 13.5769 12.0196 13.605 12.0338 13.6365C12.0479 13.668 12.0551 13.7023 12.0548 13.7368C12.0548 13.8914 11.9915 13.9756 11.8438 13.9826C11.8101 13.9884 11.7755 13.9867 11.7425 13.9777C11.7095 13.9687 11.6789 13.9526 11.6528 13.9306C11.6266 13.9085 11.6057 13.881 11.5913 13.8499C11.5769 13.8189 11.5695 13.7851 11.5696 13.7509V13.7509Z" fill="#231F20"/>
        <path d="M11.4832 9.75512C11.169 9.43401 10.9332 9.04468 10.7942 8.61748C10.6032 8.12239 10.4436 7.61577 10.3162 7.10064C10.2914 6.98751 10.2772 6.87229 10.274 6.75652C10.274 6.67925 10.2599 6.58794 10.3514 6.54589C10.3912 6.53467 10.4335 6.53607 10.4725 6.54988C10.5115 6.5637 10.5453 6.58925 10.5692 6.62304C10.8644 6.88249 11.1181 7.18565 11.3215 7.52196C11.5676 7.92223 11.8136 8.3225 12.0738 8.72277C12.1722 8.87731 12.1722 8.98961 12.0245 9.09502C11.8157 9.29019 11.6337 9.51215 11.4832 9.75512V9.75512Z" fill="white"/>
        <path d="M20.0121 9.32665C19.9838 9.42464 19.9246 9.51085 19.8433 9.57244C19.6678 9.30241 19.4493 9.06285 19.1965 8.86321C19.0771 8.75078 19.0841 8.67357 19.1614 8.54009C19.5128 7.99448 19.9103 7.47999 20.3496 7.00225C20.4645 6.84309 20.5991 6.69915 20.7503 6.5739C20.9261 6.45452 21.0315 6.50365 21.0596 6.71435C21.0679 6.77281 21.0655 6.83227 21.0526 6.88988C20.9728 7.33365 20.8308 7.76393 20.6307 8.16799C20.4058 8.54723 20.2089 8.9334 20.0121 9.32665Z" fill="white"/>
        <path d="M19.275 13.7508C19.2399 13.8632 19.2187 13.9826 19.0852 14.0106C19.0537 14.0146 19.0218 14.0116 18.9917 14.002C18.9615 13.9924 18.9337 13.9764 18.9104 13.955C18.887 13.9337 18.8685 13.9075 18.8562 13.8783C18.8439 13.8491 18.8381 13.8176 18.8392 13.786C18.8381 13.7571 18.843 13.7283 18.8536 13.7014C18.8642 13.6745 18.8802 13.6501 18.9006 13.6296C18.9211 13.6092 18.9455 13.5932 18.9724 13.5826C18.9993 13.5721 19.0281 13.5672 19.057 13.5682C19.1101 13.5639 19.1627 13.5806 19.2035 13.6148C19.2443 13.6489 19.27 13.6978 19.275 13.7508V13.7508Z" fill="#231F20"/>
        <path d="M21.1922 24.3056C21.1852 24.1862 21.2415 24.1372 21.361 24.1511C21.4768 24.163 21.5918 24.1818 21.7054 24.2073C21.7827 24.2179 21.8562 24.2473 21.9193 24.2931C21.9825 24.3389 22.0333 24.3996 22.0674 24.4697C22.1015 24.5399 22.1177 24.6174 22.1147 24.6954C22.1116 24.7733 22.0894 24.8493 22.0499 24.9166C21.9866 25.0499 21.9023 25.1764 21.8319 25.3098C21.8002 25.3515 21.7854 25.4037 21.7906 25.4558C21.7959 25.5079 21.8207 25.5561 21.86 25.5907C21.9003 25.6235 21.95 25.6426 22.0018 25.6451C22.0537 25.6476 22.105 25.6335 22.1483 25.6047C22.1553 25.5977 22.1693 25.5977 22.1764 25.5907C22.2608 25.5485 22.31 25.4152 22.3943 25.4432C22.5227 25.4928 22.6416 25.5641 22.7459 25.6539C22.86 25.7245 22.9471 25.8315 22.993 25.9577C23.0389 26.0838 23.041 26.2217 22.999 26.3492C22.8923 26.6325 22.7214 26.8872 22.4998 27.0935C22.0576 27.4869 21.5379 27.7836 20.9742 27.9643C20.0545 28.3119 19.1066 28.5797 18.141 28.7649C17.9851 28.7878 17.8276 28.7995 17.67 28.8C17.5646 28.7859 17.4239 28.8982 17.3255 28.807C17.2553 28.7367 17.2482 28.5963 17.206 28.491C17.1921 28.4457 17.1707 28.403 17.1428 28.3647C17.0443 28.2453 17.1146 28.1821 17.2131 28.1189C17.8247 27.7396 18.3661 27.2691 18.9495 26.8478C19.6494 26.3136 20.2947 25.7114 20.8759 25.05C20.9767 24.9541 21.0567 24.8386 21.1111 24.7106C21.1655 24.5825 21.1931 24.4447 21.1922 24.3056V24.3056Z" fill="#31C77F"/>
        <path d="M17.4602 15.6747C17.425 15.6574 17.3938 15.633 17.3684 15.6031C17.3431 15.5731 17.3242 15.5383 17.313 15.5007C17.3018 15.4631 17.2984 15.4236 17.3032 15.3847C17.308 15.3457 17.3207 15.3082 17.3407 15.2744C17.4026 15.0746 17.4194 14.8635 17.3899 14.6565C17.3797 14.4623 17.2937 14.28 17.1504 14.1487C17.0071 14.0173 16.8179 13.9475 16.6236 13.9543C16.4969 13.9466 16.3701 13.9694 16.2539 14.0207C16.1377 14.072 16.0355 14.1504 15.9557 14.2492C15.8925 14.2141 15.8433 14.1789 15.8011 14.1579C15.7111 14.088 15.6049 14.0419 15.4923 14.024C15.3798 14.006 15.2645 14.0168 15.1572 14.0553C15.0499 14.0939 14.9541 14.1589 14.8786 14.2443C14.8032 14.3297 14.7505 14.4328 14.7255 14.5441C14.6171 14.7894 14.5948 15.0641 14.6622 15.3237C14.7025 15.4058 14.7111 15.4998 14.6865 15.5879C14.6618 15.6759 14.6056 15.7518 14.5286 15.8011C14.4097 15.9111 14.312 16.0421 14.2403 16.1874C14.1818 16.2804 14.1423 16.3841 14.1241 16.4925C14.1059 16.6009 14.1093 16.7118 14.1341 16.8189C14.1589 16.9259 14.2047 17.027 14.2688 17.1163C14.3329 17.2056 14.414 17.2813 14.5075 17.3391C14.6033 17.3997 14.6715 17.4955 14.6974 17.6059C14.7652 17.8419 14.9179 18.0445 15.1261 18.1747C15.513 18.4384 15.9842 18.5486 16.4479 18.4837C16.6565 18.4637 16.8564 18.3898 17.0277 18.2691C17.1991 18.1484 17.3361 17.9852 17.4252 17.7955C17.5006 17.5909 17.6179 17.4043 17.7696 17.2477C17.888 17.117 17.9532 16.9466 17.9523 16.7702C17.9701 16.5609 17.9343 16.3504 17.8482 16.1587C17.7621 15.9671 17.6286 15.8005 17.4602 15.6747V15.6747ZM16.2862 18.1751C15.766 18.1821 15.1614 18.0486 15.0349 17.5501C15.541 17.494 15.5692 17.4799 16.0965 16.9742C16.2162 17.1565 16.382 17.3038 16.5771 17.4013C16.7722 17.4987 16.9896 17.5428 17.2073 17.529C17.1493 17.7249 17.0267 17.8954 16.8595 18.0128C16.6922 18.1301 16.4902 18.1873 16.2862 18.1751H16.2862ZM17.0235 17.241C16.8786 17.2228 16.7395 17.1723 16.6167 17.0933C16.4938 17.0144 16.3902 16.9088 16.3135 16.7846C16.0463 16.3913 16.0463 16.3913 15.8003 16.7986C15.717 16.9456 15.5932 17.0655 15.4436 17.144C15.294 17.2224 15.1249 17.2561 14.9567 17.241C14.8508 17.2408 14.7472 17.2111 14.6573 17.1551C14.5675 17.0991 14.4951 17.0192 14.4483 16.9242C14.4015 16.8293 14.3822 16.7232 14.3925 16.6178C14.4029 16.5125 14.4424 16.4121 14.5068 16.3281C14.6116 16.1753 14.7424 16.0422 14.8934 15.9348C15.1254 15.7593 15.1394 15.7242 15.041 15.4362C14.9675 15.2533 14.9316 15.0575 14.9355 14.8604C14.9294 14.7696 14.9494 14.6789 14.9932 14.5991C15.037 14.5193 15.1027 14.4538 15.1826 14.4102C15.2625 14.3666 15.3532 14.3468 15.444 14.3532C15.5348 14.3596 15.6219 14.3918 15.6949 14.4461C15.758 14.4811 15.8072 14.5304 15.8635 14.5655C16.0042 14.6497 16.1237 14.6567 16.208 14.4883C16.3135 14.2846 16.4962 14.2775 16.6861 14.2986C16.7799 14.3079 16.8687 14.345 16.9414 14.405C17.014 14.4651 17.0671 14.5454 17.0939 14.6357C17.1137 14.6838 17.1233 14.7354 17.122 14.7874C17.1208 14.8394 17.1088 14.8905 17.0868 14.9376C17.0306 15.0781 16.9673 15.2116 16.9111 15.352C16.7775 15.6399 16.7916 15.7031 17.0868 15.8295C17.207 15.8739 17.317 15.9423 17.41 16.0304C17.5031 16.1185 17.5773 16.2246 17.6282 16.3422C17.6761 16.4408 17.6972 16.5503 17.6895 16.6597C17.6818 16.7691 17.6456 16.8746 17.5844 16.9655C17.5232 17.0565 17.4391 17.1299 17.3407 17.1782C17.2423 17.2265 17.1329 17.2482 17.0235 17.241L17.0235 17.241Z" fill="#030202"/>
        <path d="M17.0868 15.8295C16.7915 15.7031 16.7774 15.6399 16.911 15.352C16.9673 15.2116 17.0306 15.0781 17.0868 14.9376C17.1088 14.8905 17.1208 14.8394 17.122 14.7874C17.1232 14.7354 17.1136 14.6838 17.0938 14.6357C17.067 14.5454 17.0139 14.4651 16.9413 14.405C16.8687 14.345 16.7798 14.308 16.686 14.2986C16.4962 14.2775 16.3134 14.2846 16.208 14.4883C16.1236 14.6568 16.0041 14.6498 15.8635 14.5655C15.8072 14.5304 15.758 14.4812 15.6948 14.4461C15.6218 14.3918 15.5347 14.3596 15.4439 14.3532C15.3532 14.3468 15.2624 14.3666 15.1825 14.4102C15.1027 14.4538 15.0369 14.5194 14.9931 14.5991C14.9493 14.6789 14.9293 14.7696 14.9355 14.8604C14.9316 15.0575 14.9675 15.2533 15.041 15.4363C15.1394 15.7242 15.1253 15.7593 14.8933 15.9348C14.7424 16.0422 14.6115 16.1753 14.5067 16.3281C14.4424 16.4121 14.4028 16.5125 14.3925 16.6178C14.3821 16.7232 14.4015 16.8293 14.4482 16.9242C14.495 17.0192 14.5674 17.0992 14.6573 17.1551C14.7471 17.2111 14.8508 17.2409 14.9566 17.241C15.1249 17.2561 15.2939 17.2224 15.4435 17.144C15.5931 17.0655 15.717 16.9456 15.8002 16.7986C16.0462 16.3913 16.0462 16.3913 16.3134 16.7846C16.3901 16.9089 16.4938 17.0144 16.6166 17.0934C16.7395 17.1724 16.8785 17.2228 17.0234 17.241C17.1328 17.2482 17.2422 17.2266 17.3407 17.1782C17.4391 17.1299 17.5231 17.0565 17.5843 16.9656C17.6455 16.8746 17.6818 16.7691 17.6894 16.6597C17.6971 16.5503 17.676 16.4408 17.6281 16.3422C17.5772 16.2246 17.503 16.1185 17.41 16.0304C17.3169 15.9423 17.207 15.8739 17.0868 15.8295ZM15.6342 15.4856C15.6065 15.4939 15.5769 15.4936 15.5493 15.4848C15.5218 15.4761 15.4975 15.4592 15.4796 15.4364C15.4191 15.382 15.3718 15.3145 15.3413 15.239C15.3109 15.1636 15.2981 15.0822 15.3038 15.001C15.3108 14.9309 15.3531 14.8817 15.4585 14.8676C15.4795 14.8817 15.5358 14.8887 15.5569 14.9168C15.6553 15.0324 15.7187 15.1737 15.7397 15.324C15.7439 15.3591 15.7357 15.3945 15.7164 15.424C15.6971 15.4536 15.668 15.4754 15.6342 15.4856V15.4856ZM16.583 15.2886C16.5478 15.38 16.4845 15.4502 16.3721 15.408C16.2737 15.38 16.2737 15.2886 16.2948 15.1693C16.3212 15.0826 16.3541 14.9981 16.3932 14.9164C16.3986 14.8965 16.4083 14.8779 16.4216 14.8621C16.4349 14.8463 16.4516 14.8336 16.4703 14.8249C16.4891 14.8162 16.5095 14.8117 16.5302 14.8118C16.5509 14.8118 16.5713 14.8164 16.59 14.8252C16.6216 14.839 16.6473 14.8634 16.6628 14.8942C16.6782 14.9249 16.6823 14.9602 16.6744 14.9937C16.6504 15.0939 16.6199 15.1924 16.583 15.2886L16.583 15.2886Z" fill="white"/>
        <path d="M16.0965 16.9742C15.5692 17.4799 15.541 17.494 15.0349 17.5501C15.1613 18.0486 15.766 18.1821 16.2862 18.1752C16.4902 18.1873 16.6922 18.1301 16.8595 18.0128C17.0267 17.8954 17.1493 17.7249 17.2072 17.529C16.9896 17.5428 16.7722 17.4987 16.5771 17.4013C16.382 17.3038 16.2162 17.1565 16.0965 16.9742Z" fill="#FDFDFD"/>
        <path d="M11.8438 13.9826C11.9915 13.9756 12.0548 13.8914 12.0548 13.7368C12.0551 13.7023 12.0479 13.668 12.0338 13.6365C12.0196 13.605 11.9988 13.5769 11.9727 13.5542C11.9467 13.5315 11.916 13.5148 11.8828 13.5051C11.8496 13.4954 11.8148 13.493 11.7806 13.4981C11.647 13.4981 11.5626 13.5964 11.5696 13.7509C11.5695 13.7851 11.5769 13.8189 11.5913 13.85C11.6056 13.881 11.6266 13.9085 11.6527 13.9306C11.6789 13.9527 11.7095 13.9688 11.7425 13.9777C11.7755 13.9867 11.8101 13.9884 11.8438 13.9826V13.9826Z" fill="#E7EBEB"/>
        <path d="M19.057 13.5683C19.0281 13.5672 18.9993 13.5721 18.9724 13.5827C18.9455 13.5932 18.9211 13.6092 18.9006 13.6296C18.8802 13.6501 18.8642 13.6745 18.8536 13.7014C18.843 13.7283 18.8381 13.7571 18.8391 13.786C18.8381 13.8176 18.8439 13.8491 18.8562 13.8783C18.8685 13.9075 18.8869 13.9337 18.9103 13.955C18.9337 13.9764 18.9615 13.9924 18.9916 14.002C19.0218 14.0116 19.0537 14.0146 19.0851 14.0107C19.2187 13.9826 19.2399 13.8632 19.275 13.7508C19.27 13.6978 19.2443 13.6489 19.2035 13.6148C19.1627 13.5806 19.11 13.5639 19.057 13.5683V13.5683Z" fill="#EFF2F2"/>
    </g>
    <defs>
        <clipPath id="clip0_931_520">
            <rect width="32" height="32" fill="white"/>
        </clipPath>
    </defs>
</svg>
