<svg width="32" height="32" viewBox="0 0 32 32" fill="none" xmlns="http://www.w3.org/2000/svg">
    <g clip-path="url(#clip0)">
        <path d="M16 32C24.8366 32 32 24.8366 32 16C32 7.16344 24.8366 0 16 0C7.16344 0 0 7.16344 0 16C0 24.8366 7.16344 32 16 32Z" fill="url(#paint0_linear)"/>
        <path d="M16 6.32538V6.33426L16.003 12.6656L17.149 15.5292L16.0059 14.5756V17.6317C16.0118 17.6406 16.0178 17.6465 16.0237 17.6554C17.8656 19.9593 20.1636 21.8841 22.7844 23.2878L16 6.32538Z" fill="url(#paint1_linear)"/>
        <path d="M16 6.32538V6.33426L15.997 12.6656L14.851 15.5292L15.9941 14.5756V17.6317C15.9881 17.6406 15.9822 17.6465 15.9763 17.6554C14.1344 19.9593 11.8364 21.8841 9.21561 23.2878L16 6.32538Z" fill="url(#paint2_linear)"/>
        <path d="M16 21.514C16.8505 21.514 17.5399 20.8245 17.5399 19.9741C17.5399 19.1236 16.8505 18.4342 16 18.4342C15.1495 18.4342 14.4601 19.1236 14.4601 19.9741C14.4601 20.8245 15.1495 21.514 16 21.514Z" fill="#F5CC02"/>
    </g>
    <defs>
        <linearGradient id="paint0_linear" x1="4.68626" y1="27.3161" x2="27.3154" y2="4.68689" gradientUnits="userSpaceOnUse">
            <stop stop-color="#102054"/>
            <stop offset="1" stop-color="#1A45B8"/>
        </linearGradient>
        <linearGradient id="paint1_linear" x1="19.393" y1="6.275" x2="19.393" y2="23.4688" gradientUnits="userSpaceOnUse">
            <stop stop-color="white"/>
            <stop offset="1" stop-color="white" stop-opacity="0.6"/>
        </linearGradient>
        <linearGradient id="paint2_linear" x1="12.6095" y1="23.349" x2="12.6095" y2="6.47532" gradientUnits="userSpaceOnUse">
            <stop stop-color="white"/>
            <stop offset="1" stop-color="white" stop-opacity="0.6"/>
        </linearGradient>
        <clipPath id="clip0">
            <rect width="32" height="32" fill="white"/>
        </clipPath>
    </defs>
</svg>
