<svg width="32" height="32" viewBox="0 0 32 32" fill="none" xmlns="http://www.w3.org/2000/svg">
<defs>
<linearGradient id="paint0_linear_1436_30" x1="10.0741" y1="-1.58229e-08" x2="21.9259" y2="32" gradientUnits="userSpaceOnUse">
<stop stop-color="#303030"/>
<stop offset="0.478347" stop-color="#F1F1F1"/>
<stop offset="1" stop-color="#303030"/>
</linearGradient>
</defs>
<circle cx="16" cy="16" r="16" fill="url(#paint0_linear_1436_30)"/>
<circle cx="16" cy="16" r="15.1111" fill="black"/>
<path d="M8.56667 17.0193L11.3736 17.0213L14.379 14.6983H19.4823L18.7253 17.0213H20.9955L21.7477 14.6983H24.306L26.2091 13.2246H22.2311L24.4146 6.51852H22.1416L13.4744 13.2246H10.0481L10.9932 10.3221L5.33423 14.6982H11.5682L8.56667 17.0193ZM21.1994 9.42308L19.9638 13.2247H16.2849L21.1994 9.42308Z" fill="white"/>
<path d="M10.9199 23.4106H11.0942V22.8686H11.7084V22.7113H11.0942V22.3437H11.7641V22.1863H10.9199V23.4106Z" fill="white"/>
<path d="M12.3031 22.3362H12.6089V23.4104H12.7837V22.1857H12.3031V22.3362Z" fill="white"/>
<path d="M13.5364 22.1493C13.4134 22.1493 13.3242 22.23 13.3242 22.3615C13.3242 22.4919 13.4134 22.5738 13.5364 22.5738C13.6583 22.5738 13.7487 22.4919 13.7487 22.3615C13.7487 22.23 13.6583 22.1493 13.5364 22.1493ZM13.5364 22.5362C13.4368 22.5362 13.3625 22.4709 13.3625 22.3615C13.3625 22.2514 13.4368 22.1856 13.5364 22.1856C13.6353 22.1856 13.7084 22.2514 13.7084 22.3615C13.7084 22.4709 13.6353 22.5362 13.5364 22.5362Z" fill="white"/>
<path d="M13.6305 22.3166C13.6305 22.2698 13.5998 22.2464 13.5405 22.2464H13.4481V22.4768H13.4989V22.3909H13.5308L13.5796 22.4768H13.6349L13.5817 22.3824C13.6135 22.3727 13.6305 22.3505 13.6305 22.3166V22.3166ZM13.5425 22.3493H13.4989V22.288H13.5425C13.5667 22.288 13.5776 22.2997 13.5776 22.3174C13.5776 22.3376 13.5667 22.3493 13.5425 22.3493Z" fill="white"/>
<path d="M14.7771 22.3435H15.2004V23.4104H15.3747V22.3435H15.7976V22.1857H14.7771L14.7771 22.3435Z" fill="white"/>
<path d="M16.3731 23.4106H17.2172V23.2528H16.5478V22.8686H17.1616V22.7113H16.5478V22.3437H17.2172V22.1863H16.3731V23.4106Z" fill="white"/>
<path d="M18.1643 22.1864L17.7281 23.4108H17.9137L18.0251 23.0896H18.5557L18.6667 23.4108H18.8523L18.4145 22.1864H18.1643ZM18.0808 22.9321L18.2902 22.3273L18.5 22.9321H18.0808Z" fill="white"/>
<path d="M20.0847 23.2783L19.7361 22.186H19.4371V23.4103H19.6118V22.3491L19.9512 23.4103H20.2183L20.5613 22.3362V23.4103H20.736V22.186H20.4334L20.0847 23.2783Z" fill="white"/>
<path d="M5.33334 20.7217H5.90513L6.20737 20.3807H7.84769L8.15033 20.7217H8.72212L7.02778 18.8711L5.33334 20.7217ZM6.49713 20.0579L7.02775 19.4607L7.55838 20.0579H6.49713Z" fill="white"/>
<path d="M17.7336 18.9283H17.2494V20.7223H17.7336V18.9283Z" fill="white"/>
<path d="M21.7654 20.0347L19.7611 18.9274H19.2717V20.7214H19.7204V19.3963L22.219 20.7727V18.9274H21.7655L21.7654 20.0347Z" fill="white"/>
<path d="M10.2474 18.9283H9.76273V20.7223H11.9647L12.1003 20.3995H10.2473L10.2474 18.9283Z" fill="white"/>
<path d="M24.2415 20.3993V19.9712H26.2075V19.6484H24.2415V19.2509H26.2075V18.9281H23.7573V20.7221H26.1816L26.2716 20.3993L24.2415 20.3993Z" fill="white"/>
<path d="M15.1914 18.9283H13.1181V20.7223H13.6024V20.1227H15.1684C15.7503 20.1227 15.9758 19.879 15.9758 19.5178C15.9758 19.1692 15.7297 18.9283 15.1914 18.9283L15.1914 18.9283ZM15.076 19.7995H13.6023V19.2511H15.0735C15.3657 19.2511 15.4552 19.3407 15.4552 19.5307C15.4552 19.697 15.3297 19.7995 15.0759 19.7995" fill="white"/>
<path d="M14.2617 25.3505L13.8731 25.6576H15.2778L15.6664 25.3505H14.2617Z" fill="#2173B8"/>
<path d="M15.6665 25.3505L15.278 25.6576H15.9333L16.3218 25.3505H15.6665Z" fill="#FFFFFD"/>
<path d="M16.3225 25.3505L15.9339 25.6576H17.3438L17.7323 25.3505H16.3225Z" fill="#E12319"/>
</svg>
