<svg width="32" height="32" viewBox="0 0 32 32" fill="none" xmlns="http://www.w3.org/2000/svg">
    <path d="M16 32C24.8366 32 32 24.8366 32 16C32 7.16344 24.8366 0 16 0C7.16344 0 0 7.16344 0 16C0 24.8366 7.16344 32 16 32Z" fill="#3C5BE0"/>
    <path d="M27 16.015V16.023C26.9967 16.1028 26.9752 16.1808 26.937 16.251C26.797 16.506 23.446 22.5 16.001 22.5C8.556 22.5 5.203 16.506 5.064 16.251C5.02548 16.1809 5.00358 16.1029 5 16.023V15.978L5.001 15.955C5.00682 15.8891 5.02515 15.825 5.055 15.766L5.057 15.762L5.063 15.75C5.203 15.494 8.555 9.5 16 9.5C23.445 9.5 26.797 15.495 26.936 15.75L26.942 15.762L26.945 15.767C26.9744 15.8258 26.9924 15.8895 26.998 15.955V16.001L27 16.015ZM25.89 16C25.327 15.126 23.211 12.207 19.375 11.033C20.61 11.8983 21.4788 13.1923 21.812 14.663C22.075 14.723 22.264 14.959 22.269 15.233C22.274 15.507 22.094 15.749 21.832 15.819C21.57 15.889 21.297 15.769 21.167 15.529C21.1041 15.4121 21.0817 15.2777 21.1032 15.1467C21.1247 15.0158 21.189 14.8956 21.286 14.805C20.792 12.582 18.964 10.865 16.712 10.566C16.695 10.5639 16.6783 10.5603 16.662 10.555C16.2207 10.5313 15.7783 10.5313 15.337 10.555C15.3207 10.5603 15.304 10.5639 15.287 10.566C14.4094 10.6841 13.5747 11.0173 12.857 11.536C12.822 11.5608 12.7817 11.5771 12.7393 11.5834C12.6968 11.5896 12.6535 11.5858 12.6129 11.5721C12.5722 11.5585 12.5353 11.5354 12.5053 11.5048C12.4753 11.4742 12.4529 11.4369 12.44 11.396C12.4225 11.3405 12.4228 11.281 12.441 11.2258C12.4591 11.1705 12.4941 11.1223 12.541 11.088C12.5652 11.0705 12.5895 11.0531 12.614 11.036C8.784 12.213 6.672 15.126 6.11 16C6.667 16.867 8.75 19.74 12.52 20.935C11.2766 20.0271 10.427 18.6785 10.145 17.165C9.891 17.07 9.735 16.812 9.765 16.539C9.795 16.266 10.005 16.049 10.273 16.014C10.541 15.979 10.799 16.134 10.897 16.391C10.9443 16.5151 10.9492 16.6514 10.9108 16.7786C10.8725 16.9058 10.7931 17.0167 10.685 17.094C11.115 19.304 12.833 21.021 15.017 21.424C15.6719 21.4779 16.3301 21.4779 16.985 21.424C17.7998 21.2709 18.5682 20.9314 19.23 20.432C19.2681 20.4024 19.3134 20.3836 19.3612 20.3774C19.4091 20.3712 19.4577 20.378 19.502 20.397C19.5465 20.4167 19.585 20.4478 19.6137 20.4872C19.6424 20.5265 19.6603 20.5726 19.6656 20.621C19.6709 20.6694 19.6633 20.7184 19.6437 20.7629C19.6242 20.8075 19.5932 20.8461 19.554 20.875L19.467 20.94C23.245 19.747 25.332 16.868 25.89 16ZM20.82 16.017C20.82 18.714 18.658 20.909 16 20.909C13.342 20.909 11.18 18.714 11.18 16.017C11.18 13.32 13.342 11.126 16 11.126C18.658 11.126 20.82 13.319 20.82 16.017ZM20.276 16.017C20.276 13.625 18.358 11.678 16 11.678C13.642 11.678 11.723 13.624 11.723 16.018C11.723 18.412 13.642 20.356 16 20.356C18.358 20.356 20.276 18.41 20.276 16.017ZM17.576 14.674C17.576 15.198 17.317 15.686 16.886 15.974L17.316 18.601C17.3259 18.6476 17.325 18.6958 17.3136 18.7419C17.3021 18.7881 17.2802 18.8311 17.2497 18.8676C17.2192 18.9041 17.1807 18.9332 17.1373 18.9527C17.0939 18.9721 17.0466 18.9815 16.999 18.98H15.079C15.0314 18.9815 14.9841 18.9721 14.9406 18.9526C14.8972 18.9332 14.8587 18.9041 14.8281 18.8676C14.7975 18.8311 14.7755 18.7882 14.7639 18.742C14.7523 18.6958 14.7513 18.6476 14.761 18.601L15.189 15.974C14.577 15.563 14.337 14.769 14.616 14.08C14.895 13.391 15.616 12.999 16.336 13.143C17.057 13.288 17.576 13.929 17.576 14.674ZM21.923 16.717C21.7834 17.9697 21.2554 19.1474 20.413 20.085C20.3813 20.1214 20.3403 20.1485 20.2945 20.1637C20.2487 20.1789 20.1997 20.1815 20.1525 20.1713C20.1053 20.1611 20.0617 20.1384 20.0263 20.1057C19.9909 20.0729 19.9649 20.0312 19.951 19.985C19.9364 19.9384 19.9343 19.8887 19.9448 19.841C19.9553 19.7933 19.9781 19.7492 20.011 19.713C20.7763 18.8611 21.256 17.7911 21.383 16.653C21.3911 16.5811 21.4272 16.5153 21.4836 16.4699C21.54 16.4246 21.612 16.4034 21.684 16.411C21.834 16.429 21.94 16.566 21.923 16.717ZM12.053 11.849C12.1055 11.8997 12.136 11.969 12.1379 12.042C12.1398 12.1149 12.1129 12.1857 12.063 12.239C11.2959 13.0601 10.7992 14.0967 10.64 15.209C10.6294 15.2807 10.5908 15.3452 10.5327 15.3885C10.4746 15.4318 10.4017 15.4503 10.33 15.44C10.2583 15.4284 10.1941 15.3891 10.1513 15.3305C10.1084 15.2719 10.0903 15.1988 10.101 15.127C10.2767 13.9033 10.8236 12.763 11.668 11.86C11.6925 11.8338 11.7219 11.8127 11.7546 11.798C11.7873 11.7833 11.8226 11.7752 11.8584 11.7743C11.8942 11.7734 11.9299 11.7796 11.9633 11.7926C11.9967 11.8056 12.0272 11.8251 12.053 11.85V11.849Z" fill="white"/>
</svg>
