<svg width="32" height="32" viewBox="0 0 32 32" fill="none" xmlns="http://www.w3.org/2000/svg">
    <path d="M16 32C24.8366 32 32 24.8366 32 16C32 7.16344 24.8366 0 16 0C7.16344 0 0 7.16344 0 16C0 24.8366 7.16344 32 16 32Z" fill="#F2E3EE"/>
    <path d="M16 32C24.8366 32 32 24.8366 32 16C32 7.16344 24.8366 0 16 0C7.16344 0 0 7.16344 0 16C0 24.8366 7.16344 32 16 32Z" fill="#D9327C"/>
    <path fill-rule="evenodd" clip-rule="evenodd" d="M15.3502 8.17499C15.218 8.27413 15.0683 8.45797 14.9489 8.81624C14.8369 9.1524 14.2477 10.8648 13.5114 13H18.4891C17.7528 10.8648 17.1636 9.1524 17.0515 8.81624C16.9321 8.45797 16.7824 8.27413 16.6502 8.17499C16.5225 8.0792 16.3283 8 16.0002 8C15.6721 8 15.4779 8.0792 15.3502 8.17499ZM8 13H11.3958C12.2343 10.569 12.9315 8.54395 13.0515 8.18376C13.2655 7.54203 13.6158 6.97587 14.1502 6.57499C14.6892 6.1708 15.3283 6 16.0002 6C16.6721 6 17.3113 6.1708 17.8502 6.57499C18.3847 6.97587 18.735 7.54203 18.9489 8.18376C19.069 8.54395 19.7661 10.569 20.6047 13H24C24.5523 13 25 13.4477 25 14C25 14.5523 24.5523 15 24 15H21.2948H19.179H12.8214H10.7057H8C7.44771 15 7 14.5523 7 14C7 13.4477 7.44771 13 8 13ZM8 17C7.44771 17 7 17.4477 7 18C7 18.5523 7.44771 19 8 19H9.3244L8.78944 20.5484L8.25624 22.0913L8.05515 22.6731C7.87472 23.1951 8.15155 23.7648 8.67352 23.9451C9.19549 24.1256 9.76496 23.8485 9.94541 23.3266L10.1465 22.7446L10.6798 21.2016C10.9013 20.5603 11.1607 19.8095 11.4403 19H20.5601C20.8397 19.8095 21.0991 20.5603 21.3207 21.2016L21.8539 22.7446L22.055 23.3266C22.2355 23.8485 22.805 24.1256 23.3269 23.9451C23.8488 23.7648 24.1259 23.1951 23.9453 22.6731L23.9451 22.6727L23.7443 22.0913L23.211 20.5484L22.6761 19H24C24.5523 19 25 18.5523 25 18C25 17.4477 24.5523 17 24 17H21.9853H19.8694H12.131H10.0152H8ZM23.0002 23L23.9453 22.6731C23.9453 22.6732 23.9453 22.6733 23.0002 23ZM23.0002 23C22.0551 23.3267 22.0551 23.3267 22.055 23.3266L23.0002 23ZM9.00021 23L9.94541 23.3266C9.94536 23.3267 9.94536 23.3267 9.00021 23ZM9.00021 23C8.05509 22.6733 8.05512 22.6732 8.05515 22.6731L9.00021 23Z" fill="white"/>
</svg>
