<svg width="32" height="32" viewBox="0 0 32 32" fill="none" xmlns="http://www.w3.org/2000/svg">
    <defs>
        <clipPath id="clip0_1388_36">
            <rect width="32" height="32" fill="white"/>
        </clipPath>
    </defs>
    <g clip-path="url(#clip0_1388_36)">
        <path d="M32.0049 16C32.0049 7.16344 24.8414 0 16.0048 0C7.16827 0 0.00482178 7.16344 0.00482178 16C0.00482178 24.8366 7.16827 32 16.0048 32C24.8414 32 32.0049 24.8366 32.0049 16Z"
              fill="#1E1E1E"/>
        <path opacity="0.4"
              d="M25.1072 19.3413C25.3191 19.6911 25.4589 20.0798 25.5185 20.4844C25.5781 20.889 25.5562 21.3014 25.4542 21.6975C25.3521 22.0935 25.1719 22.4652 24.9242 22.7906C24.6765 23.116 24.3662 23.3887 24.0117 23.5925C23.6571 23.7963 23.2654 23.9272 22.8595 23.9775C22.4536 24.0279 22.0418 23.9965 21.6482 23.8855C21.2546 23.7744 20.8872 23.5857 20.5675 23.3306C20.2478 23.0755 19.9823 22.7591 19.7867 22.4L13.3435 11.2437C12.9378 10.5378 12.8292 9.69968 13.0414 8.91367C13.2537 8.12767 13.7696 7.45819 14.4755 7.05251C15.1814 6.64684 16.0195 6.5382 16.8055 6.75049C17.5915 6.96278 18.261 7.47862 18.6667 8.18452L25.1072 19.3413Z"
              fill="#4BDB4B"/>
        <path opacity="0.8"
              d="M12.2256 22.4C11.82 23.106 11.1506 23.6219 10.3646 23.8343C9.57858 24.0467 8.7404 23.9382 8.03443 23.5326C7.32846 23.127 6.81253 22.4575 6.60013 21.6715C6.38774 20.8855 6.49629 20.0473 6.90189 19.3414L13.343 8.18512C13.5438 7.83555 13.8115 7.52897 14.1308 7.28288C14.4501 7.03678 14.8148 6.85599 15.204 6.75082C15.5932 6.64566 15.9993 6.61818 16.3991 6.66995C16.7989 6.72173 17.1846 6.85175 17.5342 7.05258C17.8837 7.25342 18.1903 7.52114 18.4364 7.84045C18.6825 8.15977 18.8633 8.52444 18.9684 8.91363C19.0736 9.30282 19.1011 9.70891 19.0493 10.1087C18.9975 10.5085 18.8675 10.8942 18.6667 11.2438L12.2256 22.4Z"
              fill="#4BDB4B"/>
        <path d="M18.6475 8.15417C18.6123 8.09337 18.5739 8.03523 18.5344 7.97817C18.5157 7.95043 18.4981 7.92483 18.4811 7.89603C18.4427 7.8427 18.4016 7.79417 18.3611 7.7451C18.336 7.71523 18.3115 7.6843 18.2853 7.6555C18.2485 7.61443 18.2091 7.57657 18.1707 7.53763C18.1323 7.4987 18.1029 7.46937 18.0672 7.43683C18.0315 7.4043 17.9973 7.37763 17.9605 7.34883C17.9163 7.31203 17.8725 7.27523 17.8256 7.24217C17.7936 7.2187 17.76 7.19683 17.7275 7.17497C17.6741 7.13977 17.6208 7.1051 17.5675 7.07257C17.5557 7.06563 17.5456 7.05763 17.5344 7.05123C17.5093 7.03683 17.4837 7.02617 17.4592 7.01283C17.4059 6.9851 17.3552 6.9595 17.3024 6.93337C17.2496 6.90723 17.2123 6.89337 17.1664 6.8747C17.1205 6.85603 17.0773 6.83843 17.0325 6.82137C16.9792 6.8027 16.9259 6.78563 16.8725 6.76803C16.8331 6.7563 16.7931 6.7451 16.7536 6.73497C16.696 6.72057 16.6384 6.7083 16.5803 6.6971C16.5408 6.68963 16.5013 6.6827 16.4619 6.67683C16.4053 6.6683 16.3483 6.66137 16.2912 6.65603C16.2475 6.65177 16.2037 6.64857 16.1595 6.64643C16.1152 6.6443 16.0565 6.6427 16.0053 6.6427C15.9541 6.6427 15.9035 6.6427 15.8528 6.64643C15.8021 6.65017 15.7637 6.65177 15.7189 6.65603C15.6624 6.66137 15.6064 6.66777 15.5509 6.6763C15.5104 6.6827 15.4704 6.68963 15.4299 6.6971C15.3728 6.7083 15.3157 6.72057 15.2592 6.73497C15.2181 6.7451 15.1781 6.7563 15.1376 6.76857C15.0843 6.78403 15.0309 6.8011 14.9776 6.8219C14.9243 6.8427 14.8853 6.85657 14.84 6.87523C14.7947 6.8939 14.7509 6.91203 14.7077 6.9323C14.6544 6.9579 14.6011 6.98563 14.5477 7.01443C14.5237 7.02723 14.4992 7.03737 14.4757 7.05123C14.4645 7.05763 14.4544 7.0651 14.4437 7.07203C14.3872 7.1051 14.3333 7.14083 14.28 7.1787C14.2485 7.20003 14.2171 7.2203 14.1867 7.2427C14.1371 7.27897 14.0907 7.31737 14.0443 7.35577C14.0123 7.38297 13.9792 7.4091 13.9477 7.43737C13.9163 7.46563 13.8715 7.51043 13.8341 7.54777C13.7968 7.5851 13.7632 7.61817 13.7275 7.65443C13.6917 7.6907 13.6693 7.7227 13.6405 7.75737C13.6037 7.80163 13.5669 7.8459 13.5339 7.89283C13.5099 7.92537 13.488 7.9595 13.4651 7.9931C13.4304 8.04643 13.3963 8.0955 13.3643 8.14937C13.087 8.61685 12.9389 9.14958 12.9351 9.69308C12.9312 10.2366 13.0718 10.7713 13.3424 11.2427L16.0043 15.8523L18.6667 11.2411C18.937 10.7709 19.0777 10.2374 19.0743 9.69504C19.0709 9.15269 18.9236 8.62095 18.6475 8.15417V8.15417Z"
              fill="#4BDB4B"/>
    </g>
</svg>
