<svg width="32" height="32" viewBox="0 0 32 32" fill="none" xmlns="http://www.w3.org/2000/svg">
    <circle cx="16" cy="16" r="16" fill="#0E0E0E"/>
    <path fill-rule="evenodd" clip-rule="evenodd" d="M17.3825 5.68384L24.3538 9.26516C24.8501 9.51834 25.2667 9.90447 25.5573 10.3807C25.8479 10.8569 26.0011 11.4045 26 11.9628V13.5955H23.4284V11.9628C23.4285 11.8783 23.4053 11.7956 23.3613 11.7236C23.3173 11.6516 23.2543 11.5932 23.1792 11.5549L16.2084 7.97362C16.1437 7.94047 16.0721 7.92319 15.9994 7.92319C15.9267 7.92319 15.855 7.94047 15.7903 7.97362L8.81894 11.5549C8.74398 11.5933 8.68108 11.6517 8.6372 11.7237C8.59331 11.7957 8.57016 11.8784 8.57032 11.9628V13.5955H6.00001V11.9628C5.99881 11.4046 6.15196 10.857 6.44243 10.3808C6.73292 9.9046 7.14936 9.51843 7.64554 9.26516L14.6175 5.68384C15.0455 5.46442 15.5193 5.35 16 5.35C16.4807 5.35 16.9545 5.46442 17.3825 5.68384ZM18.1993 15.9079C18.1993 14.6932 17.2123 13.705 15.9994 13.705C15.4164 13.7052 14.8572 13.9372 14.4447 14.3502C14.0321 14.7632 13.7998 15.3234 13.7988 15.9079C13.7988 17.1227 14.7858 18.1108 15.9994 18.1108C16.5822 18.1103 17.1411 17.8781 17.5535 17.4652C17.9659 17.0522 18.1981 16.4923 18.1993 15.9079ZM23.1804 20.4787C23.2555 20.4404 23.3184 20.382 23.3622 20.31C23.4062 20.238 23.4293 20.1552 23.4291 20.0708V18.4381H26V20.0714C26.0011 20.6295 25.8481 21.1769 25.5577 21.6529C25.2673 22.129 24.8511 22.5151 24.3551 22.7684L17.3825 26.3497C16.9544 26.5687 16.4806 26.683 16 26.6833C15.5194 26.683 15.0457 26.5687 14.6175 26.3497L7.64491 22.7684C7.1489 22.5152 6.7326 22.1291 6.44224 21.653C6.15187 21.1769 5.9988 20.6295 6.00001 20.0714V18.4381H8.57032V20.0714C8.57032 20.2439 8.66575 20.4 8.81894 20.4787L14.7142 23.5067V20.5063C12.7058 19.9437 11.2279 18.0957 11.2279 15.9079C11.2279 13.2738 13.3688 11.1307 15.9994 11.1307C18.63 11.1307 20.7708 13.2738 20.7708 15.9079C20.7708 18.0957 19.2929 19.9437 17.2845 20.5063V23.5074L23.1804 20.4787Z" fill="#006DFF"/>
</svg>
