<svg width="32" height="32" viewBox="0 0 32 32" fill="none" xmlns="http://www.w3.org/2000/svg">
    <g clip-path="url(#clip0_934_588)">
        <path d="M16 32C19.1645 32 22.2579 31.0616 24.8891 29.3035C27.5203 27.5454 29.5711 25.0466 30.7821 22.1229C31.9931 19.1993 32.3099 15.9823 31.6926 12.8786C31.0752 9.77487 29.5513 6.92394 27.3137 4.6863C25.0761 2.44866 22.2251 0.924806 19.1214 0.307443C16.0177 -0.309921 12.8007 0.0069325 9.87706 1.21793C6.95345 2.42894 4.45459 4.4797 2.69649 7.11088C0.938384 9.74207 1.12515e-10 12.8355 1.12511e-10 16C-7.87925e-06 18.1012 0.413839 20.1817 1.21791 22.123C2.02198 24.0642 3.20054 25.828 4.68627 27.3137C6.17201 28.7995 7.93584 29.978 9.87706 30.7821C11.8183 31.5862 13.8988 32 16 32V32Z" fill="url(#paint0_linear_934_588)" fill-opacity="0.15"/>
        <path d="M28.5295 14.901C28.6408 12.589 27.0255 11.0553 25.2027 10.0023L24.0177 16.9612C24.2619 16.9271 24.5104 16.9463 24.7464 17.0174C24.9824 17.0885 25.2002 17.2099 25.3848 17.3732C25.5979 17.5803 25.7255 17.8599 25.7424 18.1566C25.7593 18.4533 25.6642 18.7456 25.476 18.9755C26.6153 18.7924 28.3949 17.6936 28.5295 14.901Z" fill="url(#paint1_linear_934_588)"/>
        <path d="M25.1999 10.0037L24.7442 9.77483C24.7943 9.47168 24.7943 9.16237 24.7442 8.85922C20.8247 6.35324 16.2193 5.13658 11.5735 5.37979L12.9863 6.79899L12.3027 7.02789L10.3886 7.80618L7.69973 10.0037L6.19583 12.0182L6.97057 18.4734L12.2571 21.5865L20.2781 21.495C20.6123 21.5255 21.3809 21.1196 21.7819 19.2517C21.8313 18.6473 22.0991 18.0816 22.5352 17.6603C22.9714 17.239 23.546 16.991 24.1518 16.9626C24.5011 16.7948 25.3184 15.9829 25.7924 14.0784C25.9689 13.3938 26.0074 12.6811 25.9057 11.9815C25.8039 11.282 25.564 10.6096 25.1999 10.0037V10.0037ZM22.4594 9.46562C22.2344 9.70488 21.9712 9.90522 21.6807 10.0585C20.5949 9.90587 19.5989 9.37151 18.8712 8.55119C20.6168 8.50128 22.343 8.92819 23.8641 9.78599C23.405 9.64259 22.9353 9.53547 22.4594 9.46562V9.46562Z" fill="url(#paint2_linear_934_588)"/>
        <path d="M21.785 19.2523C20.2517 19.9854 18.5719 20.3604 16.8725 20.349C11.7944 20.349 7.67776 17.1719 7.67776 13.2528C7.67776 10.3581 9.92371 7.86814 13.144 6.76428C10.2094 6.88496 7.43157 8.12177 5.37828 10.222C3.32498 12.3221 2.1512 15.1272 2.0968 18.0638C2.0968 25.043 8.34342 30.8096 16.0489 30.8096C18.7174 30.7887 21.3322 30.0583 23.6251 28.6932C25.918 27.3282 27.8065 25.3777 29.0968 23.0419C25.6509 23.8138 21.5716 22.3464 21.785 19.2523Z" fill="url(#paint3_linear_934_588)"/>
    </g>
    <defs>
        <linearGradient id="paint0_linear_934_588" x1="1.12512e-10" y1="16" x2="32" y2="16" gradientUnits="userSpaceOnUse">
            <stop stop-color="#01E8F7"/>
            <stop offset="1" stop-color="#00B3EC"/>
        </linearGradient>
        <linearGradient id="paint1_linear_934_588" x1="26.0307" y1="12.5608" x2="26.6397" y2="20.4224" gradientUnits="userSpaceOnUse">
            <stop stop-color="#01E8F7"/>
            <stop offset="1" stop-color="#00C2FF"/>
        </linearGradient>
        <linearGradient id="paint2_linear_934_588" x1="242.368" y1="126.474" x2="363.812" y2="361.227" gradientUnits="userSpaceOnUse">
            <stop stop-color="#01E8F7"/>
            <stop offset="1" stop-color="#00B3EC"/>
        </linearGradient>
        <linearGradient id="paint3_linear_934_588" x1="419.92" y1="583.04" x2="435.532" y2="78.1861" gradientUnits="userSpaceOnUse">
            <stop stop-color="#01E8F7"/>
            <stop offset="1" stop-color="#00C2FF"/>
        </linearGradient>
        <clipPath id="clip0_934_588">
            <rect width="32" height="32" fill="white"/>
        </clipPath>
    </defs>
</svg>
