<svg width="32" height="32" viewBox="0 0 32 32" fill="none" xmlns="http://www.w3.org/2000/svg">
<defs>
<radialGradient id="paint0_radial_1501_306" cx="0" cy="0" r="1" gradientUnits="userSpaceOnUse" gradientTransform="translate(16 17.6767) rotate(90) scale(17.9756)">
<stop offset="0.166667" stop-color="#073183"/>
<stop offset="1" stop-color="#0054F9"/>
</radialGradient>
<linearGradient id="paint1_linear_1501_306" x1="-3.04761" y1="-2.82996" x2="33.6209" y2="35.6556" gradientUnits="userSpaceOnUse">
<stop offset="0.205697" stop-color="#89D0FF"/>
<stop offset="0.398413" stop-color="#EBBF9A"/>
<stop offset="0.601546" stop-color="#EB8280"/>
<stop offset="0.841139" stop-color="#A281FF"/>
</linearGradient>
<linearGradient id="paint2_linear_1501_306" x1="-1.61969" y1="-1.18188" x2="32.1844" y2="34.4425" gradientUnits="userSpaceOnUse">
<stop offset="0.205697" stop-color="#89D0FF"/>
<stop offset="0.398413" stop-color="#EBBF9A"/>
<stop offset="0.601546" stop-color="#EB80DA"/>
<stop offset="0.841139" stop-color="#A281FF"/>
</linearGradient>
<linearGradient id="paint3_linear_1501_306" x1="-0.186218" y1="0.248169" x2="30.7531" y2="33.0108" gradientUnits="userSpaceOnUse">
<stop offset="0.205697" stop-color="#89D0FF"/>
<stop offset="0.398413" stop-color="#EBBF9A"/>
<stop offset="0.601546" stop-color="#EB8280"/>
<stop offset="0.841139" stop-color="#A281FF"/>
</linearGradient>
<linearGradient id="paint4_linear_1501_306" x1="1.24445" y1="1.68384" x2="29.3126" y2="31.5762" gradientUnits="userSpaceOnUse">
<stop offset="0.205697" stop-color="#89D0FF"/>
<stop offset="0.398413" stop-color="#EBBF9A"/>
<stop offset="0.601546" stop-color="#EB80E7"/>
<stop offset="0.841139" stop-color="#A281FF"/>
</linearGradient>
<linearGradient id="paint5_linear_1501_306" x1="2.67493" y1="3.11377" x2="27.8772" y2="30.1334" gradientUnits="userSpaceOnUse">
<stop offset="0.205697" stop-color="#89D0FF"/>
<stop offset="0.398413" stop-color="#EBBF9A"/>
<stop offset="0.601546" stop-color="#EB80D3"/>
<stop offset="0.841139" stop-color="#A281FF"/>
</linearGradient>
<linearGradient id="paint6_linear_1501_306" x1="4.10333" y1="4.5437" x2="26.4379" y2="28.7015" gradientUnits="userSpaceOnUse">
<stop offset="0.205697" stop-color="#89D0FF"/>
<stop offset="0.398413" stop-color="#EBBF9A"/>
<stop offset="0.601546" stop-color="#A280EB"/>
<stop offset="0.841139" stop-color="#A281FF"/>
</linearGradient>
<clipPath id="clip0_1501_306">
<path d="M0 16C0 7.16344 7.16344 0 16 0V0C24.8366 0 32 7.16344 32 16V16C32 24.8366 24.8366 32 16 32V32C7.16344 32 0 24.8366 0 16V16Z" fill="white"/>
</clipPath>
</defs>
<g clip-path="url(#clip0_1501_306)">
<path d="M32 16C32 7.16344 24.8366 0 16 0C7.16344 0 0 7.16344 0 16C0 24.8366 7.16344 32 16 32C24.8366 32 32 24.8366 32 16Z" fill="url(#paint0_radial_1501_306)"/>
<g opacity="0.8">
<path opacity="0.8" d="M13.1672 33.8814C11.9953 33.8814 10.8839 33.8074 9.95129 33.7347L9.69418 33.7147L9.43742 33.679C9.32513 33.6633 9.17242 33.6468 9.02509 33.6307C8.12787 33.5331 6.45933 33.3514 4.61732 32.4863L4.33124 32.3515L4.06446 32.202C0.524214 30.2178 -0.800697 27.2313 -1.51411 25.6259C-1.55953 25.5238 -1.6146 25.3997 -1.66645 25.2854C-2.02655 24.5483 -2.25434 23.8839 -2.44745 23.2757L-2.49036 23.1397L-2.52612 23.0078C-3.03999 21.1815 -3.1698 19.6045 -2.9345 18.045C-2.69849 16.4791 -2.11846 15.0544 -1.11074 13.5632L-0.588287 12.71C-0.482156 12.5376 -0.407221 12.3479 -0.36693 12.1496C0.0314381 10.1753 0.935453 8.7767 1.37959 8.10871C1.50185 7.3002 1.70344 6.50571 1.98144 5.73673L2.02292 5.62016L2.06726 5.50644C2.07441 5.48641 2.08371 5.45817 2.10088 5.40667C2.30041 4.80555 2.76816 3.39909 3.96613 1.9222L4.41598 1.37722L4.87443 0.963119C6.05199 -0.106887 7.45479 -0.898791 8.97934 -1.35414C9.83045 -1.60797 10.7079 -1.76311 11.5945 -1.81651L11.6803 -1.82295L11.8094 -1.82903C11.9628 -1.83618 12.1155 -1.83976 12.2646 -1.83976C12.8178 -1.84079 13.3701 -1.79424 13.9153 -1.70065C14.256 -1.64331 14.6059 -1.68335 14.9248 -1.81615C15.8701 -2.21046 16.8636 -2.47719 17.8793 -2.60931C17.9641 -2.62148 18.0381 -2.63077 18.0964 -2.63828C18.2566 -2.65831 18.5112 -2.68835 18.8187 -2.71767C19.3551 -2.76881 20.1776 -2.82996 21.0691 -2.82996C22.8103 -2.82996 24.3089 -2.6043 25.6507 -2.1405L25.7648 -2.10081L25.8763 -2.05897C28.8372 -0.940034 30.3445 0.623042 31.4284 2.00195L31.4799 2.06775L31.6291 2.20042C32.6082 2.96646 33.4411 3.90319 34.0872 4.9654L34.2892 5.29796L34.4599 5.64663C35.9081 8.6029 35.448 11.3325 35.2745 12.3581L35.2651 12.4128C35.1404 13.1694 34.942 13.912 34.6725 14.6299C34.5735 15.3221 34.4105 16.0036 34.1856 16.6657C33.8011 17.8426 33.2339 18.9517 32.5048 19.9525C32.0849 20.5463 31.611 21.0998 31.0888 21.606C30.9042 21.7844 30.7844 22.0195 30.7487 22.2737C30.7261 22.4302 30.7004 22.585 30.671 22.7385C30.2465 25.0157 29.2506 26.6007 28.844 27.2318L27.6149 28.997C26.1349 30.841 24.3788 32.0572 22.2535 32.7109L21.7385 32.8722L21.1825 32.9691C20.5463 33.0814 19.9014 33.1372 19.2554 33.1359C19.1663 33.1359 19.0766 33.1359 18.9771 33.1333H18.9485L18.8388 33.14L18.7211 33.1444H18.7179C18.4716 33.1526 18.2275 33.1929 17.9916 33.2641C16.6188 33.684 15.0661 33.8814 13.1672 33.8814Z" stroke="url(#paint1_linear_1501_306)" stroke-width="0.221362" stroke-miterlimit="10"/>
<path opacity="0.8" d="M13.1672 32.6686C12.0443 32.6686 10.9672 32.5972 10.0621 32.5256L9.84759 32.509L9.63302 32.4794C9.49927 32.4609 9.33585 32.4437 9.17816 32.4259C8.30669 32.331 6.84982 32.1727 5.22344 31.4099L4.98457 31.2976L4.76249 31.1729C1.6385 29.4205 0.482729 26.8189 -0.208155 25.2642C-0.257505 25.1534 -0.317934 25.0171 -0.374435 24.8933C-0.696277 24.2332 -0.907261 23.6235 -1.08535 23.0623L-1.12111 22.9493L-1.15222 22.8392C-1.60923 21.215 -1.72724 19.829 -1.52341 18.4765C-1.31958 17.1241 -0.806061 15.8743 0.0897294 14.5568L0.759157 13.4637C0.877538 13.27 0.958787 13.0559 0.998748 12.8325C1.33203 10.9755 2.20924 9.6588 2.60795 9.05944L2.65837 8.98365L2.67698 8.9536C2.68519 8.93536 2.69307 8.91784 2.70058 8.89888C2.72489 8.81986 2.74884 8.74334 2.77209 8.67037C2.87695 7.90858 3.06213 7.15999 3.32458 6.43716L3.36034 6.3399L3.39861 6.24227C3.41076 6.21116 3.42221 6.17755 3.45582 6.0767C3.64571 5.50455 4.04086 4.31659 5.07469 3.0421L5.44981 2.58796L5.83066 2.24358C6.85165 1.31586 8.068 0.629298 9.38986 0.234577C10.1403 0.0117901 10.9138 -0.124156 11.6953 -0.170588L11.7668 -0.176307L11.8741 -0.181314C12.0046 -0.187393 12.1348 -0.190254 12.2617 -0.190254C12.8223 -0.191251 13.3815 -0.352623 13.9307 -0.23987C14.3545 -0.152217 14.795 -0.1991 15.1909 -0.37397C15.9304 -0.700102 16.9259 -0.830359 18.0656 -0.972326C18.1468 -0.984127 18.2176 -0.99307 18.2727 -0.999864C18.4225 -1.01882 18.6621 -1.04707 18.9521 -1.0746C19.4563 -1.12288 20.2323 -1.18188 21.0666 -1.18188C22.6462 -1.18188 23.9917 -0.981983 25.1807 -0.570741L25.2759 -0.537845L25.3688 -0.502085C27.9932 0.489543 29.2904 1.81696 30.3009 3.10396C30.3571 3.17549 30.4146 3.24879 30.4361 3.27419L30.4601 3.29564L30.6516 3.46622L30.6775 3.49269C31.5505 4.16146 32.2915 4.98691 32.8625 5.92686L33.0305 6.204L33.1735 6.49437C34.4194 9.03728 34.0288 11.3506 33.8623 12.3387L33.8534 12.3912C33.7352 13.109 33.5417 13.8124 33.2761 14.4896C33.1925 15.1488 33.0425 15.7978 32.8285 16.4268C32.4885 17.4682 31.9869 18.4496 31.3419 19.3351C30.9052 19.9558 30.4004 20.5256 29.8368 21.0337C29.5752 21.2686 29.4102 21.5921 29.3736 21.9416C29.3464 22.1992 29.3096 22.4495 29.2632 22.6951C28.8888 24.7052 28.0137 26.0955 27.6132 26.7181L26.6177 28.1653C25.2946 29.8654 23.7268 30.9772 21.8275 31.5625L21.3984 31.6971L20.9336 31.7774C20.3787 31.8754 19.8163 31.9241 19.2528 31.923C19.171 31.923 19.0873 31.923 18.9972 31.9209H18.9718H18.9185C18.9185 31.9209 18.9006 31.9209 18.8641 31.9235L18.7658 31.9296L18.6667 31.933L18.469 31.9407C18.2076 31.9498 17.9487 31.9949 17.6994 32.0743C16.435 32.4781 14.9738 32.6686 13.1672 32.6686V32.6686Z" stroke="url(#paint2_linear_1501_306)" stroke-width="0.221362" stroke-miterlimit="10"/>
<path opacity="0.8" d="M13.1672 31.2382C12.0944 31.2382 11.0509 31.1685 10.1726 31.1002L10.0014 31.0869L9.83043 31.0634C9.67557 31.0418 9.50142 31.0229 9.33299 31.0044C8.50014 30.9138 7.24245 30.7769 5.83208 30.1154L5.64076 30.0257L5.46197 29.9257C2.75277 28.4072 1.75793 26.1667 1.09923 24.6841C1.04309 24.5571 0.979432 24.4141 0.920428 24.2816C0.634348 23.6997 0.443389 23.1446 0.280679 22.6308L0.25207 22.5407L0.227039 22.4523C-0.173116 21.0305 -0.278964 19.8351 -0.106601 18.6911C0.0682663 17.531 0.523848 16.4496 1.3263 15.2874L1.42179 15.1494L1.52513 15.0167C1.59022 14.9338 1.65279 14.8519 1.7143 14.7718L2.11696 14.0333C2.24902 13.792 2.33818 13.5295 2.3805 13.2577C2.63654 11.6009 3.43472 10.404 3.80304 9.85191L3.80485 9.84903C3.82594 9.81758 3.85311 9.77752 3.86706 9.75534L3.94574 9.62982C3.9765 9.5626 4.01725 9.4732 4.05301 9.37951C4.08878 9.26757 4.13134 9.12919 4.17781 8.98615C4.26511 8.28038 4.43233 7.58683 4.67632 6.91886L4.7042 6.8409L4.73461 6.76223C4.76034 6.6968 4.7793 6.63994 4.81649 6.528C4.99279 5.99839 5.31963 5.01534 6.18896 3.9429L6.48971 3.57921L6.7933 3.30495C7.65756 2.51958 8.68716 1.93836 9.80609 1.60419C10.4556 1.41144 11.1252 1.29456 11.8015 1.25589L11.8587 1.2516L11.9456 1.24766C12.0529 1.24266 12.1602 1.24016 12.2675 1.24016C12.849 1.23935 13.4283 1.31302 13.9911 1.45936C14.4784 1.58263 14.9936 1.52825 15.4444 1.30595C16.1657 0.955861 17.1305 0.58431 18.2609 0.445561C18.3385 0.434476 18.4039 0.425895 18.4572 0.419099C18.5977 0.401577 18.8216 0.375115 19.0934 0.34758C19.5665 0.302164 20.2938 0.248169 21.072 0.248169C22.4899 0.248169 23.6824 0.422319 24.7195 0.780634L24.7957 0.8071L24.8701 0.83499C27.2806 1.74616 28.3598 2.93947 29.182 3.98618C29.3634 4.21682 29.3908 4.25258 29.5153 4.36308L29.6688 4.49968L29.7284 4.56083C30.1251 4.86801 30.936 5.50061 31.6458 6.67067L31.7806 6.89239L31.8944 7.12449C32.9378 9.25399 32.6132 11.1772 32.4574 12.1016L32.4487 12.1527C32.337 12.8305 32.1483 13.4933 31.8857 14.1281L31.8788 14.1864C31.8093 14.7937 31.6752 15.3918 31.4784 15.9705C31.1832 16.8766 30.747 17.7306 30.1858 18.5008C29.7163 19.1739 29.1518 19.7755 28.51 20.2871C28.3574 20.4081 28.2323 20.5604 28.1435 20.7338C28.0544 20.9072 28.0037 21.0976 27.9943 21.2923C27.9769 21.6744 27.933 22.0548 27.8629 22.4308C27.5387 24.1738 26.7779 25.3822 26.3896 25.9854L25.6179 27.1259C24.4545 28.6788 23.0757 29.6841 21.4092 30.195L21.0662 30.3023L20.6954 30.3668C20.2212 30.4506 19.7405 30.4922 19.2589 30.4913C19.1842 30.4913 19.108 30.4913 19.0258 30.4891H19.0068H18.9246C18.9106 30.4891 18.8681 30.4891 18.7815 30.4943L18.7029 30.4994L18.6267 30.5022L18.229 30.517C17.9505 30.5266 17.6748 30.5762 17.4105 30.6646C16.2522 31.0547 14.8858 31.2382 13.1672 31.2382V31.2382Z" stroke="url(#paint3_linear_1501_306)" stroke-width="0.207527" stroke-miterlimit="10"/>
<path opacity="0.8" d="M13.167 29.8077C12.1417 29.8077 11.1336 29.74 10.2832 29.6741L10.1549 29.6641L10.0265 29.6464C9.85092 29.622 9.66604 29.6018 9.48688 29.5824C8.70408 29.4969 7.63378 29.3809 6.43905 28.8203L6.29601 28.7528L6.16263 28.6782C3.86825 27.3908 3.02432 25.4914 2.40781 24.1037C2.34381 23.9607 2.27728 23.81 2.21148 23.6659C1.94936 23.1389 1.78236 22.6328 1.64362 22.1998L1.62216 22.1321L1.60356 22.0661C0.932705 19.6819 1.18482 18.0094 2.50294 16.1012L2.57445 15.9975L2.65205 15.8981C2.73965 15.7862 2.82155 15.6786 2.90237 15.5763C3.02395 15.4168 3.14697 15.2544 3.28108 15.0874C3.36428 14.9834 3.43144 14.8674 3.48024 14.7434L3.63152 14.3572C3.69562 14.193 3.73585 14.0204 3.75096 13.8448C3.8822 12.3153 4.626 11.2003 4.99435 10.6478L4.99648 10.645C5.0233 10.6042 5.06407 10.5434 5.07765 10.5216L5.16384 10.3839L5.19031 10.3481C5.23609 10.2555 5.32584 10.0599 5.40486 9.85502C5.44742 9.71485 5.51464 9.49958 5.58045 9.30396C5.58045 9.29645 5.58045 9.28823 5.5833 9.27965C5.65381 8.63876 5.80149 8.00875 6.02316 7.40332L6.04425 7.34467L6.06713 7.28566C6.10718 7.18374 6.13544 7.09864 6.17443 6.98098C6.33177 6.50823 6.59495 5.71687 7.30015 4.84717L7.52578 4.57397L7.75216 4.36943C9.41786 2.85821 11.2817 2.72768 11.9046 2.68584L11.9475 2.68262L12.0133 2.6794C12.0981 2.67546 12.1828 2.67367 12.2658 2.67367C13.0054 2.67629 13.737 2.82592 14.4182 3.11388C14.5389 3.16401 14.6691 3.18681 14.7997 3.18062C14.9302 3.17444 15.0577 3.13944 15.1731 3.07812H15.1767C15.81 2.71088 16.97 2.04502 18.4491 1.86693C18.5206 1.8562 18.5864 1.84798 18.6347 1.8419C18.7648 1.82545 18.9726 1.80113 19.2279 1.77646C19.6699 1.73426 20.3487 1.68384 21.0703 1.68384C22.3266 1.68384 23.3665 1.8326 24.2497 2.13799L24.3069 2.15766L24.3626 2.17876C26.4285 2.95941 27.3195 3.93887 28.0546 4.87508C28.2523 5.1254 28.3407 5.24162 28.562 5.43686L28.6772 5.5395L28.7695 5.63426L28.8409 5.69075C29.1912 5.96182 29.8423 6.46639 30.4202 7.4169L30.5214 7.58319L30.6068 7.75734C31.4473 9.47383 31.1843 11.0305 31.043 11.8673L31.0347 11.917C30.9353 12.5252 30.7622 13.1192 30.5193 13.6856L30.4988 13.7343C30.4966 13.7447 30.4938 13.76 30.4894 13.7826C30.4783 13.8401 30.472 13.8859 30.4644 13.9442L30.4559 14.01C30.3987 14.523 30.2857 15.0283 30.1194 15.5169C29.869 16.2877 29.4985 17.014 29.0211 17.669C28.5492 18.3391 28.02 18.8848 27.4259 19.3168C27.1651 19.5073 26.9522 19.7557 26.804 20.0426C26.6555 20.3294 26.5761 20.6467 26.5713 20.9696C26.5663 21.3723 26.5269 21.7738 26.4535 22.1698C26.1797 23.6463 25.5497 24.6462 25.1574 25.2555L24.5967 26.0962C23.5925 27.4992 22.4078 28.3949 20.982 28.8314L20.9065 28.8551C20.7855 28.893 20.6621 28.9231 20.5371 28.9444L20.4466 28.9603C20.0533 29.0299 19.6546 29.0646 19.2551 29.0635C19.1875 29.0635 19.1189 29.0635 19.0445 29.0617H19.0323C18.9984 29.0617 18.9608 29.0617 18.9207 29.0617C18.8929 29.0617 18.8192 29.0617 18.6862 29.07L18.6272 29.0735L18.5696 29.0757C18.3783 29.0828 18.1405 29.0911 17.9284 29.1005C17.6378 29.1124 17.3507 29.1688 17.077 29.2674C16.0507 29.634 14.7947 29.8077 13.167 29.8077V29.8077Z" stroke="url(#paint4_linear_1501_306)" stroke-width="0.193692" stroke-miterlimit="10"/>
<path opacity="0.8" d="M13.1672 28.3773C12.1906 28.3773 11.2175 28.3118 10.3943 28.2478L10.3085 28.2412L10.223 28.2293C10.026 28.2021 9.82968 28.1805 9.64051 28.16C8.92101 28.0819 8.02557 27.9841 7.04646 27.525L6.95063 27.48L6.86195 27.4304C4.98239 26.3765 4.28007 24.7944 3.71504 23.5231C3.64569 23.3666 3.57202 23.2048 3.50049 23.0474C3.27915 22.606 3.12929 22.1536 3.00628 21.7662L2.99197 21.7215L2.97946 21.6776C2.4259 19.7108 2.60863 18.4624 3.67893 16.9129L3.72649 16.8439L3.77835 16.7777C3.87169 16.6583 3.95715 16.5467 4.03868 16.439C4.31797 16.0729 4.58653 15.7203 4.98812 15.2915C5.07617 15.1974 5.12888 15.0757 5.13724 14.9472L5.16762 14.4844L5.15583 14.3328L5.16118 14.1755C5.20302 12.9063 5.84063 11.9515 6.18179 11.4387C6.22112 11.3793 6.26224 11.3182 6.28656 11.2792L6.34414 11.1877L6.39743 11.1162C6.46108 11.0121 6.62844 10.6574 6.75502 10.3169C6.79865 10.1739 6.88304 9.90103 6.95743 9.68468C6.97924 9.61567 6.98137 9.59886 6.99927 9.45081C7.05741 8.91524 7.18073 8.38876 7.36653 7.8831L7.38046 7.84376L7.39583 7.80406C7.44877 7.66889 7.4856 7.5584 7.52816 7.43037C7.66297 7.02484 7.86607 6.41371 8.40748 5.74606L8.55841 5.56369L8.70787 5.42852C9.87474 4.36895 11.146 4.16833 12.0039 4.11075L12.0328 4.10825H12.0772C12.1394 4.1054 12.2013 4.10396 12.2621 4.10396C12.9948 4.10396 13.8713 4.45548 14.3315 4.6679C14.4416 4.71841 14.5605 4.74664 14.6816 4.75102C14.8026 4.75537 14.9233 4.73576 15.0367 4.69329C15.3231 4.58956 15.6021 4.46674 15.8721 4.32568C16.4574 3.98595 17.4287 3.42489 18.6349 3.28435C18.7014 3.27434 18.7611 3.26683 18.8105 3.26038C18.9317 3.24536 19.123 3.22462 19.3601 3.19995C19.7713 3.16062 20.4011 3.11377 21.0666 3.11377C22.1607 3.11377 23.048 3.23678 23.7786 3.48926L23.8165 3.50247L23.8524 3.51643C25.5778 4.16833 26.2644 4.9175 26.9248 5.75823C27.1392 6.0293 27.291 6.2231 27.606 6.5049L27.6826 6.57321L27.754 6.64472C27.8184 6.70841 27.8876 6.76686 27.961 6.81959C28.2573 7.04881 28.7536 7.43288 29.1938 8.15773L29.261 8.26858L29.3183 8.3848C29.9561 9.68683 29.7513 10.9012 29.6287 11.6268L29.6204 11.6762C29.539 12.177 29.3962 12.666 29.1953 13.132V13.1355C29.1396 13.2561 29.1012 13.3838 29.0812 13.5149C29.064 13.6065 29.0531 13.6802 29.0429 13.7617L29.0342 13.8282C28.9883 14.2467 28.8968 14.659 28.7614 15.0576C28.5573 15.6937 28.2518 16.2926 27.857 16.8313C27.2742 17.6628 26.6005 18.2478 25.7887 18.6194C25.5915 18.7093 25.423 18.8521 25.302 19.0318C25.1807 19.2116 25.1115 19.4213 25.1021 19.6378C25.0982 19.7265 25.0967 19.7994 25.0993 19.8402C25.1393 20.4656 25.1846 21.1744 25.0453 21.9046C24.8217 23.1123 24.3104 23.9241 23.926 24.5201C23.926 24.5201 22.1623 26.9747 20.5573 27.4645L20.3846 27.5185L20.199 27.5512C19.8867 27.6067 19.57 27.6341 19.2528 27.633C19.1927 27.633 19.1312 27.633 19.0651 27.6313H19.0593C19.0168 27.6313 18.9707 27.6313 18.9185 27.6313C18.8555 27.6313 18.7529 27.6313 18.5934 27.6424L18.5544 27.6448H18.5158C17.9018 27.667 17.3214 27.6877 17.1601 27.7192C17.0738 27.7327 16.9896 27.7573 16.9098 27.7928C16.0015 28.191 14.8103 28.3773 13.1672 28.3773V28.3773Z" stroke="url(#paint5_linear_1501_306)" stroke-width="0.179857" stroke-miterlimit="10"/>
<path opacity="0.8" d="M13.1672 26.947C12.2396 26.947 11.3008 26.8838 10.5048 26.8218L10.4623 26.8187L10.4197 26.8127C10.2019 26.7826 9.99525 26.76 9.795 26.7382C9.11768 26.6646 8.41714 26.5884 7.65367 26.2303L7.60576 26.2075L7.56142 26.1829C6.09525 25.3605 5.55062 24.1321 5.02245 22.9426C4.94734 22.7739 4.86974 22.5993 4.78965 22.4258C4.61084 22.0725 4.48426 21.6935 4.37054 21.3345L4.36338 21.3123L4.35695 21.2898C3.91675 19.7242 4.02866 18.925 4.85759 17.726L4.88156 17.6902L4.90729 17.6569C5.00455 17.5328 5.09289 17.417 5.178 17.3051C5.57637 16.7826 5.92073 16.331 6.69243 15.6186L6.69459 15.6165C6.75116 15.5624 6.79089 15.4931 6.80898 15.417C6.82707 15.3408 6.82274 15.2611 6.79651 15.1873L6.65738 14.7908C6.62943 14.6657 6.60984 14.539 6.59874 14.4113V14.4071L6.59016 14.2998L6.59304 14.2211C6.62127 13.3597 7.07436 12.6806 7.37403 12.2311C7.42088 12.1595 7.46557 12.0941 7.50027 12.0383L7.52887 11.9925L7.56105 11.9493C7.72018 11.7347 7.97872 11.1407 8.11463 10.7728C8.15037 10.6594 8.24193 10.3551 8.3181 10.1344C8.37232 9.96851 8.40748 9.79695 8.42287 9.62308C8.46784 9.1925 8.56659 8.76927 8.71681 8.36324L8.72397 8.34321L8.73183 8.32355C8.79799 8.15369 8.84449 8.01422 8.88955 7.87906C9.00934 7.51894 9.14487 7.11056 9.52215 6.64534L9.59794 6.55378L9.67198 6.48691C10.5009 5.7338 11.4096 5.58218 12.1104 5.5357H12.1251H12.148C12.1873 5.5357 12.2267 5.5332 12.2657 5.5332C12.9476 5.5332 13.4718 5.81284 13.8187 5.99807L13.8995 6.041L13.9117 6.04742C14.0068 6.09892 14.0905 6.14398 14.1681 6.18223C14.3836 6.29036 14.6313 6.3158 14.8643 6.25376C15.3392 6.12609 16.0802 5.84501 16.5787 5.5711L16.5891 5.56502C17.1133 5.26107 17.9029 4.80334 18.8284 4.70176C18.8866 4.69247 18.9424 4.68568 18.995 4.67888C19.1023 4.6653 19.2811 4.64312 19.4996 4.62346C19.88 4.5877 20.4612 4.5437 21.0701 4.5437C22.0027 4.5437 22.737 4.64099 23.3147 4.84052L23.3337 4.84731L23.353 4.85447C24.7373 5.37764 25.2424 5.92512 25.8049 6.64247C26.0336 6.93391 26.25 7.20928 26.6601 7.57438L26.6985 7.61015L26.7342 7.64589C26.8452 7.75776 26.9647 7.86073 27.0918 7.95379C27.3378 8.1444 27.675 8.40545 27.978 8.90393L28.0115 8.95937L28.0401 9.01765C28.4754 9.90629 28.3305 10.7653 28.2247 11.3921L28.2164 11.4415C28.153 11.837 28.0399 12.2228 27.8792 12.5897C27.7856 12.801 27.719 13.0233 27.6811 13.2513C27.6561 13.3836 27.6415 13.487 27.6293 13.5828L27.6206 13.6507C27.5862 13.9748 27.5161 14.2941 27.4114 14.6027C27.2527 15.1033 27.0128 15.5745 26.7013 15.9973C26.1756 16.7519 25.5928 17.2171 24.8185 17.4635C24.4476 17.5808 24.1282 17.8226 23.9149 18.1479L23.8533 18.2423L23.7854 18.3199C23.5888 18.5438 23.6441 19.4113 23.6781 19.9291C23.714 20.4974 23.7521 21.0849 23.6461 21.6381C23.4715 22.5839 23.0664 23.2223 22.7037 23.7838C22.7037 23.7838 21.3569 25.7266 20.1418 26.0956L20.0535 26.1235L19.9605 26.1396C19.7291 26.1809 19.4944 26.2014 19.2593 26.2003C19.2063 26.2003 19.152 26.2003 19.0944 26.2003C19.0433 26.2003 18.9871 26.2003 18.9249 26.2003C18.8423 26.2003 18.7103 26.2003 18.5094 26.2142H18.49H18.4707C17.6558 26.2441 17.1641 26.2615 16.8923 26.3144C16.7094 26.3468 16.5308 26.4001 16.3602 26.4735C15.6325 26.7961 14.6162 26.947 13.1672 26.947V26.947Z" stroke="url(#paint6_linear_1501_306)" stroke-width="0.179857" stroke-miterlimit="10"/>
</g>
<path d="M26.8802 11.0056C26.8131 11.3973 26.7348 11.5872 26.6429 11.807L26.6427 11.8075C26.5436 12.0457 26.4313 12.3162 26.3294 12.8526C26.289 13.0674 26.2687 13.2249 26.2511 13.3637L26.25 13.3723L26.2489 13.3804C26.2206 13.6028 26.2017 13.7526 26.1113 14.0192C26.038 14.2369 25.9154 14.6001 25.62 14.9914C25.3816 15.3081 24.9824 15.838 24.4497 15.9016C24.4036 15.9046 24.3067 15.9095 24.2673 15.8894C22.7561 15.1177 21.4577 14.5474 21.0083 14.4195C20.4854 14.2714 20.5524 13.1316 20.6115 12.1261C20.6381 11.6767 20.6632 11.2517 20.6421 10.8878C20.5687 9.6184 20.3439 8.22892 19.2384 7.55155C18.5784 7.14728 17.727 7.02871 16.9135 7.02703C17.0642 6.9553 17.2324 6.85784 17.4156 6.75118L17.4212 6.74795C17.9002 6.47056 18.4947 6.12626 19.0855 6.06566C19.2788 6.04661 19.4686 6.02423 19.6558 6.00353C20.8468 5.86865 21.8758 5.75278 22.9612 6.12441C23.4531 6.29318 24.4623 6.85617 24.7229 7.37901C24.9062 7.74792 25.2158 8.03568 25.8333 8.60975C26.1549 8.90883 26.3667 9.08274 26.5217 9.21L26.5288 9.21581C26.7465 9.39483 26.7894 9.43228 26.8541 9.56465C27.0543 9.97247 26.9814 10.4056 26.8802 11.0056V11.0056Z" fill="white"/>
<path d="M21.3518 16.2137C21.4389 16.2434 21.4715 16.3492 21.4215 16.4263C21.2643 16.6687 21.0849 16.9949 20.8714 17.3907C20.7675 17.5844 20.669 17.7671 20.5864 17.9098C20.2936 18.4125 20.2697 18.8358 20.2511 19.1754C20.2311 19.5307 20.2131 19.6939 20.0008 19.8355C19.8255 19.953 19.6461 19.9921 18.4018 20.1816C18.1847 20.2152 18.0883 20.2573 18.0036 20.2943C17.99 20.3002 17.9765 20.306 17.9623 20.3118C17.8761 20.3473 17.7904 20.273 17.7951 20.1799C17.804 20.0064 17.8096 19.7927 17.8103 19.5282V19.4743C17.8168 19.2304 17.8066 19.0326 17.7978 18.873C17.7815 18.5553 17.7794 18.4215 17.8641 18.2833C17.968 18.1162 18.0492 18.0651 18.1824 17.9807C18.3685 17.8638 18.6237 17.7027 19.0014 17.1837C19.2021 16.9088 19.2467 16.7597 19.2745 16.6309C19.2864 16.5776 19.2908 16.5575 19.4453 16.4404C19.6087 16.3164 20.1064 15.9393 20.7436 16.0464C20.9123 16.075 21.1251 16.1364 21.3518 16.2137V16.2137Z" fill="white"/>
<path d="M16.432 21.9607C16.4049 21.996 16.3733 22.0123 16.3275 22.0147C16.1974 22.02 16.106 21.988 16.0456 21.915C15.9172 21.7589 15.9345 21.445 15.9644 21.2615L16.4906 21.1212C16.5318 21.3998 16.5512 21.8055 16.432 21.9607V21.9607Z" fill="white"/>
<path d="M16.4745 20.0623C16.4657 20.139 16.4561 20.2254 16.4565 20.3157C16.4571 20.3494 16.4575 20.3833 16.4586 20.4163C16.4596 20.5023 16.463 20.6389 16.4511 20.701C16.2867 20.7608 16.1463 20.7608 15.9619 20.7577C15.9592 20.7043 15.9625 20.6249 15.9646 20.5711C15.9657 20.5297 15.968 20.4885 15.9684 20.4492C15.969 20.4057 15.9684 20.3626 15.9684 20.3197C15.9678 20.2185 15.9663 20.0527 15.9912 20.0037C16.0407 19.9966 16.0914 19.9857 16.1457 19.9732C16.2545 19.9498 16.3965 19.9199 16.4868 19.9335C16.4853 19.9686 16.4799 20.0209 16.4745 20.0623Z" fill="white"/>
<path d="M15.501 21.7985C15.4755 22.0683 15.3922 22.4018 15.1392 22.4525C15.0254 22.4758 14.9704 22.4416 14.9357 22.4089C14.7648 22.2507 14.7376 21.7724 14.7615 21.4302C14.8753 21.4323 15.0244 21.4068 15.2011 21.3725C15.3088 21.3511 15.4161 21.3273 15.5014 21.3076C15.5112 21.4344 15.5183 21.6151 15.501 21.7985V21.7985Z" fill="white"/>
<path d="M15.3815 20.8305L14.8108 21.0307C14.8397 20.8092 14.8783 20.4974 14.8919 20.2901C14.9018 20.1444 14.9415 20.0996 14.9528 20.09C14.9566 20.0867 14.9643 20.0798 14.9854 20.0798C14.9888 20.0798 14.9919 20.0804 14.9957 20.0804L15.0076 20.082L15.3684 20.0624C15.3836 20.232 15.3836 20.6042 15.3815 20.8305V20.8305Z" fill="white"/>
<path d="M14.4592 20.6529C14.427 20.7389 14.3889 20.9821 14.3651 21.1534L13.6501 21.1317C13.6904 20.9102 13.7463 20.6849 13.8078 20.5053C13.8699 20.3269 13.9368 20.1931 13.9983 20.1554C14.07 20.1123 14.2279 20.1027 14.3247 20.1853C14.482 20.3194 14.5255 20.4729 14.4592 20.6529V20.6529Z" fill="white"/>
<path d="M14.1924 22.8414C14.1369 22.9172 14.0755 22.9557 13.9991 22.9638C13.9213 22.9725 13.8609 22.9551 13.8126 22.9098C13.588 22.7026 13.6064 22.0236 13.6145 21.6971C13.9111 21.6295 14.2311 21.572 14.3829 21.5632C14.4057 21.8366 14.4122 22.5421 14.1924 22.8414Z" fill="white"/>
<path d="M13.2592 21.1127C13.2243 21.2057 13.1906 21.2938 13.1651 21.3716C13.0818 21.3977 12.8278 21.3749 12.5682 21.3176L12.7466 20.1925C13.0398 20.1147 13.3799 20.0896 13.4621 20.1768C13.5704 20.2918 13.3529 20.8673 13.2592 21.1127V21.1127Z" fill="white"/>
<path d="M12.9354 23.0135C12.7968 23.1844 12.5889 23.2643 12.2988 23.2612C12.098 23.2577 12.0263 23.1815 11.9903 23.1245C11.8293 22.8694 11.987 22.2681 12.1449 21.8839L13.1134 21.942C13.1232 22.0097 13.1314 22.0916 13.1351 22.1811C13.1458 22.4543 13.1115 22.7947 12.9354 23.0135Z" fill="white"/>
<path d="M20.939 14.8469C20.0671 14.6 20.1422 13.3251 20.2147 12.0929C20.2405 11.6568 20.2647 11.2446 20.2448 10.9075C20.1779 9.75413 19.9841 8.49808 19.0563 7.92945C18.0586 7.31928 16.4263 7.45836 15.4192 7.58651C15.4183 7.58662 15.4175 7.58721 15.4165 7.58729C15.4161 7.58732 15.4158 7.58736 15.4154 7.58749C15.0465 7.69927 14.7014 7.77176 14.4339 7.75755C13.8397 7.72679 13.3773 7.47667 12.9702 7.25709C12.6525 7.08496 12.3754 6.93628 12.1144 6.93628C12.1006 6.93628 12.0862 6.93628 12.0719 6.93691C11.2912 6.98752 10.9324 7.17824 10.6063 7.46916C10.5243 7.54171 10.4244 7.75189 10.0971 8.69508C9.93188 9.17169 9.90134 9.43247 9.8706 9.68595C9.843 9.91746 9.81496 10.1557 9.69179 10.511C9.60605 10.7561 9.54289 10.9675 9.48161 11.1714C9.32016 11.7131 9.19259 12.1397 8.80924 12.6471C8.76427 12.7071 8.70843 12.7953 8.64402 12.8959C8.55703 13.0329 8.44954 13.2031 8.30754 13.4001C8.20736 13.539 7.97731 14.0587 7.98987 14.217C8.00868 14.469 8.09066 14.6255 8.18435 14.808C8.27763 14.9881 8.38386 15.192 8.40332 15.4735L8.40646 15.5191C8.44074 15.9656 8.37696 16.1896 7.52768 16.9483C6.98468 17.4342 6.59889 17.9024 6.33871 18.2458C6.31575 18.2761 6.34562 18.3211 6.38351 18.3181C6.39229 18.3169 6.40108 18.3162 6.40924 18.3162C6.42555 18.315 6.44185 18.3144 6.45796 18.3144C6.47427 18.3144 6.49059 18.315 6.50668 18.3156C6.52301 18.3162 6.53868 18.3175 6.55479 18.32C6.76018 18.3434 6.96039 18.4303 7.10493 18.58C7.13005 18.606 7.1691 18.6131 7.20269 18.5996C7.34092 18.5421 7.49296 18.5515 7.63811 18.5651C7.8108 18.5811 7.98521 18.6315 8.10418 18.7387C8.14948 18.7795 8.21165 18.8011 8.27136 18.7889C8.40655 18.7611 8.54741 18.7657 8.67833 18.8134C8.77542 18.8495 8.8587 18.9045 8.92693 18.9734C8.99123 19.0383 9.10008 19.0512 9.17949 19.006C9.21123 18.9879 9.24543 18.9723 9.28252 18.9597C9.46697 18.8972 9.67087 18.9328 9.8499 18.9972C9.93815 19.029 10.0306 19.0572 10.1101 19.1103C10.2413 19.1977 10.3266 19.3215 10.3839 19.4609C10.4279 19.568 10.5743 19.6046 10.6683 19.537C10.7812 19.4557 10.8744 19.4453 10.9683 19.487C11.0072 19.5045 11.0375 19.5268 11.0608 19.5536C11.1281 19.6312 11.2363 19.7086 11.3362 19.6849C11.6147 19.6191 11.9519 19.6627 12.1993 19.7952C12.2906 19.8433 12.3805 19.9164 12.4461 20.0272C12.4462 20.0273 12.4463 20.0273 12.4463 20.0275C12.4464 20.0279 12.4469 20.0277 12.447 20.0273L12.4545 19.978C12.4579 19.9558 12.4737 19.9374 12.4953 19.9307L12.5552 19.9121C12.6966 19.8672 13.4171 19.6595 13.6973 19.9546C13.7094 19.9667 13.7306 19.9679 13.7422 19.9552C13.7804 19.9135 13.8113 19.8905 13.8312 19.8791C14.0137 19.7685 14.3266 19.7616 14.5349 19.9398C14.5768 19.9749 14.6447 19.9622 14.6763 19.9175C14.6958 19.8899 14.7178 19.8657 14.7425 19.8448C14.8158 19.7816 14.9084 19.7515 15.0109 19.7578L15.4068 19.7365C15.5063 19.731 15.8156 19.71 15.9131 19.6893C15.9205 19.6878 15.9281 19.6864 15.9359 19.6852C15.9771 19.679 16.026 19.6683 16.0773 19.6576C16.2692 19.6158 16.4869 19.5687 16.6657 19.6513C16.8377 19.7308 16.8159 19.9266 16.7952 20.0991C16.787 20.1692 16.7782 20.2424 16.7789 20.3118C16.7801 20.3442 16.7808 20.3768 16.7814 20.4101C16.7839 20.5588 16.787 20.6963 16.7577 20.8019C16.7576 20.8021 16.7575 20.8023 16.7575 20.8026C16.7575 20.8027 16.7576 20.8029 16.7576 20.8031L16.7757 20.8848C16.7947 20.9652 16.8805 21.0105 16.9507 20.9671C17.0844 20.8845 17.2221 20.7802 17.2661 20.7185C17.2701 20.7128 17.2732 20.7066 17.2756 20.7C17.2818 20.6834 17.2925 20.649 17.3044 20.5797C17.3289 20.4327 17.3563 20.1338 17.3588 19.5269C17.3588 19.4949 17.3588 19.4719 17.3594 19.4613C17.3645 19.236 17.3557 19.0553 17.3469 18.8957C17.3306 18.5668 17.3174 18.3079 17.4807 18.0444C17.6397 17.788 17.794 17.6909 17.9423 17.597C18.1148 17.4889 18.3095 17.3661 18.6372 16.9165C18.7981 16.695 18.8179 16.6057 18.8336 16.5344C18.8692 16.3673 18.9244 16.2667 19.1726 16.0791C19.3746 15.9265 19.9895 15.4605 20.8189 15.6C21.0909 15.6462 21.5318 15.7913 21.967 15.9627C21.9672 15.9628 21.9675 15.9629 21.9677 15.9629C21.9679 15.9629 21.9679 15.9629 21.9681 15.9629C21.9838 15.9675 21.9999 15.9729 22.0147 15.9805C22.0214 15.984 22.0284 15.9875 22.0356 15.9904C22.4117 16.1406 22.7779 16.3077 23.0202 16.4438C23.0892 16.4826 23.1769 16.4595 23.2272 16.3984C23.3021 16.3076 23.3833 16.2522 23.4704 16.2C23.5052 16.1787 23.5322 16.1626 23.5579 16.1406C23.6395 16.0713 23.6386 15.9259 23.5435 15.877C22.3854 15.2821 21.2999 14.9496 20.939 14.8469V14.8469ZM12.6305 15.1153C12.3609 16.2956 10.5325 17.5928 9.70141 17.5928H9.68509C9.67192 17.5922 9.65748 17.591 9.64201 17.5885C9.62633 17.5859 9.6094 17.5822 9.5914 17.5772C9.58262 17.5747 9.5732 17.5715 9.56379 17.569C9.413 17.5215 9.20409 17.4057 9.04598 17.2501C8.93722 17.1432 8.8515 17.0173 8.82451 16.8816C8.8195 16.8578 8.81447 16.8341 8.80946 16.8103C8.76449 16.6095 8.70865 16.3588 8.88578 15.9484C8.91025 15.8934 8.932 15.842 8.95209 15.7951C8.95836 15.7795 8.96526 15.7638 8.97153 15.7489C8.99036 15.7046 9.00708 15.6638 9.02214 15.627C9.04724 15.5645 9.06773 15.5113 9.08466 15.4662C9.09156 15.4486 9.09785 15.4317 9.10349 15.4162C9.1541 15.2742 9.16037 15.2211 9.16728 15.1661C9.17354 15.123 9.17984 15.0703 9.1974 14.9952C9.24926 14.7737 9.27623 14.5862 9.30009 14.4191C9.34254 14.1187 9.37954 13.8592 9.54141 13.621C9.56902 13.5804 9.59956 13.5434 9.63406 13.511C9.64599 13.4997 9.65729 13.489 9.66961 13.4784C9.68217 13.4677 9.69471 13.4583 9.70705 13.4489C9.74637 13.4213 9.7884 13.397 9.83399 13.3763C9.84968 13.3694 9.86538 13.3625 9.88083 13.3569C9.91283 13.3449 9.94651 13.3349 9.98164 13.3261C10.1305 13.2899 10.3062 13.2843 10.5082 13.3098C10.7291 13.3274 10.9336 13.3692 11.1149 13.4198C11.2663 13.4616 11.4014 13.5106 11.5158 13.5562C11.5278 13.5606 11.5391 13.565 11.5503 13.57C11.5723 13.5788 11.5934 13.5875 11.6141 13.597C11.6455 13.6101 11.6742 13.6227 11.7011 13.6344C11.7367 13.6507 11.7693 13.6651 11.7982 13.6781L11.8251 13.6906C11.9527 13.7488 12.0623 13.8126 12.156 13.8795C12.2022 13.9134 12.2455 13.9477 12.2842 13.9826C12.2974 13.9939 12.3099 14.0058 12.3216 14.0184C12.3342 14.0303 12.3461 14.0422 12.3572 14.0541C12.7085 14.4241 12.6912 14.8519 12.6305 15.1153V15.1153ZM13.4779 10.6417L13.4424 10.8556C13.3604 11.3379 13.1722 11.999 12.4779 12.1692C11.8099 12.3325 11.6516 12.3675 11.1762 12.3888C11.1655 12.39 11.1543 12.39 11.143 12.39C10.7958 12.39 10.1278 12.1711 10.0095 11.6269C9.93375 11.2766 10.0883 11.0227 10.3428 10.6017C10.3853 10.5323 10.4311 10.4579 10.4798 10.3746C10.8163 9.80788 10.9489 9.39756 11.0553 9.06859C11.1591 8.74715 11.2454 8.48136 11.4675 8.26112C11.5188 8.2099 11.5769 8.16157 11.6445 8.11536C11.6875 8.08588 11.7327 8.05974 11.7802 8.03527C11.8433 8.0039 11.9096 7.9765 11.9791 7.95455C12.1336 7.90518 12.3005 7.88008 12.4676 7.88008C12.7915 7.88008 13.1151 7.97336 13.3458 8.15844C13.4495 8.24168 13.5971 8.40795 13.6829 8.89836C13.727 9.15098 13.6519 9.61527 13.4779 10.6417V10.6417ZM18.4312 12.014C18.1922 12.4243 18.0615 12.6502 17.8551 12.8196C17.4454 13.1561 16.9675 13.2412 16.5741 13.2412C16.2914 13.2412 16.0513 13.1975 15.9099 13.1718C15.5034 13.0973 14.7465 12.9597 14.4945 12.3624C14.4452 12.2443 14.4445 12.1692 14.4445 12.074C14.4445 11.9801 14.4445 11.822 14.4008 11.446L14.3983 11.4209C14.3782 11.2507 14.3559 11.0581 14.4046 10.8111L14.4102 10.7816C14.5529 10.0561 14.5916 9.94528 14.6236 9.88274C14.6974 9.74011 14.8724 9.68386 15.015 9.75707C15.1533 9.82899 15.2108 9.99652 15.1458 10.1373C15.1313 10.1785 15.0908 10.333 14.9805 10.8941L14.9749 10.9236C14.9435 11.0819 14.9573 11.202 14.9755 11.354L14.978 11.3797C15.0255 11.7882 15.0255 11.9732 15.0255 12.0734C15.0255 12.091 15.0255 12.1105 15.0261 12.122C15.0263 12.1264 15.0285 12.1324 15.0299 12.1366C15.0722 12.2369 15.162 12.3156 15.2735 12.3778C15.3694 12.4314 15.4726 12.3375 15.452 12.2295C15.3319 11.6005 15.3443 10.8784 15.5829 10.4284C15.6628 10.2753 15.8108 10.025 15.9514 9.79129C15.9518 9.79064 15.9523 9.79005 15.9526 9.78937C15.9529 9.7887 15.9534 9.78811 15.9538 9.78746C15.968 9.76395 15.9823 9.74063 15.9963 9.71712C16.0082 9.69703 16.0202 9.67781 16.0312 9.65898C16.0931 9.5563 16.1513 9.46197 16.1977 9.38689C16.204 9.37622 16.2103 9.36556 16.2165 9.35552C16.2209 9.34799 16.2253 9.34109 16.2297 9.33482C16.2397 9.31852 16.2485 9.30345 16.2567 9.29048C16.2604 9.28421 16.2642 9.27857 16.2673 9.27291C16.2692 9.27041 16.2705 9.2679 16.2717 9.26601C16.2761 9.25848 16.2805 9.25158 16.2843 9.24594C16.2918 9.23401 16.2975 9.22524 16.3006 9.2196C16.3008 9.21914 16.3011 9.21868 16.3013 9.21825C16.302 9.21699 16.3033 9.21516 16.304 9.2139C16.3045 9.21302 16.3046 9.21289 16.3052 9.21209C16.3398 9.16169 16.3741 9.11313 16.4078 9.06654C16.4839 8.96151 16.395 8.82728 16.2768 8.88059C16.0739 8.97213 15.9372 9.07638 15.9072 9.10018C15.7815 9.20036 15.5988 9.17965 15.4994 9.05396C15.3999 8.92827 15.4206 8.74506 15.5462 8.64488C15.6958 8.52735 16.4882 7.94931 17.4372 8.22076C18.1209 8.41527 18.4793 8.93767 18.6144 9.13405C18.7232 9.29361 19.0568 9.77777 19.0461 10.4539C19.0381 10.9694 18.8229 11.3404 18.4312 12.014V12.014Z" fill="white"/>
<path d="M12.2678 8.47815C12.2193 8.59568 12.1612 8.74144 12.0987 8.89977C11.9529 9.26637 11.7875 9.6817 11.708 9.83227C11.5708 10.0925 11.4641 10.2566 11.3788 10.389C11.2814 10.5408 11.2036 10.6611 11.1448 10.8286C11.0419 11.1218 11.0235 11.4495 11.0904 11.8059C10.9087 11.7858 10.6111 11.6605 10.5774 11.5028C10.5523 11.3853 10.6253 11.2569 10.8403 10.9032C10.8834 10.8326 10.9296 10.7558 10.9802 10.6705C11.3498 10.0481 11.4993 9.58509 11.6093 9.2465C11.7279 8.87821 11.7839 8.72366 11.9728 8.59463C12.0572 8.53586 12.1601 8.49844 12.2678 8.47815V8.47815Z" fill="white"/>
<path d="M11.9073 21.5312C11.7059 21.9427 11.4552 22.3223 11.2989 22.5106C11.1695 22.1608 10.9447 21.3593 11.0041 20.7146C11.0057 20.6959 11.0078 20.6776 11.0105 20.6596C11.0344 20.4605 11.0873 20.2777 11.1814 20.1313C11.2435 20.0351 11.4154 19.9763 11.6108 19.9763C11.7548 19.9763 11.9117 20.0079 12.0466 20.0803H12.0476C12.12 20.1189 12.2185 20.1972 12.2287 20.4247C12.2436 20.7319 12.0972 21.1449 11.9073 21.5312V21.5312Z" fill="white"/>
<path d="M22.9429 16.9203C22.9585 16.9329 22.9683 16.9518 22.9594 16.9698C22.8993 17.0907 22.8271 17.1754 22.7419 17.2754C22.6392 17.3977 22.5216 17.5366 22.4122 17.7531C22.2565 18.0598 22.2067 18.3397 22.1805 19.0562C22.1496 19.8979 22.1821 20.3708 22.2067 20.7156C22.2299 21.0486 22.2443 21.2493 22.1849 21.5741C22.0652 22.2291 21.785 22.6629 21.4301 23.2119C20.9861 23.8985 20.5269 24.608 19.7663 24.8344C19.6955 24.8561 19.6933 24.8561 19.4948 24.8568C19.3223 24.8568 19.0351 24.8572 18.4916 24.8775C17.498 24.9134 16.9996 24.9312 16.5732 25.0133C16.1259 25.0999 15.8925 25.1951 15.6662 25.2865C15.4621 25.369 15.2691 25.4476 14.8991 25.5236C14.6787 25.5682 14.3491 25.6167 13.226 25.6182C12.0589 25.6204 11.3543 25.6211 10.4239 25.5151C9.1473 25.3692 8.50652 25.2963 8.08094 25.069C7.0771 24.5335 6.6532 23.5705 5.95196 21.9753C5.95076 21.9724 5.94954 21.9696 5.94835 21.9668C5.93968 21.947 5.96387 21.9278 5.9825 21.9389C6.01576 21.9596 6.05046 21.9766 6.08708 21.9887C6.1176 21.9996 6.1496 22.0079 6.18182 22.0133C6.24601 22.0242 6.31293 22.0249 6.38089 22.0133C6.39282 22.0112 6.40371 22.0086 6.41415 22.004C6.41616 22.0033 6.41814 22.0022 6.42012 22.0014C6.43198 21.9955 6.44679 22.0005 6.45179 22.0127C6.49635 22.1357 6.56723 22.245 6.68624 22.3081C6.80545 22.3704 6.94096 22.3751 7.07355 22.3741C7.21011 22.3719 7.34773 22.3643 7.48387 22.3479C7.55601 22.3403 7.62978 22.3756 7.65743 22.4426C7.78199 22.7448 7.93646 22.9636 8.16836 22.9958C8.1809 22.9975 8.19723 22.9995 8.21793 22.9995C8.26314 22.9995 8.32954 22.9882 8.42023 22.9346C8.5321 22.8686 8.70061 22.9102 8.78562 23.0084C8.83562 23.0663 8.89048 23.1109 8.9388 23.1497C9.17763 23.395 9.7582 23.5126 10.2457 23.5126C10.5117 23.5126 10.7501 23.4777 10.8904 23.4092C11.0912 23.3119 11.0912 23.1623 11.0814 23.1018C11.0643 22.9934 11.0489 22.8858 11.0357 22.7792C11.0341 22.7665 11.0535 22.7615 11.0586 22.7733C11.0879 22.8369 11.1234 22.9163 11.2186 22.9316C11.2288 22.9326 11.2403 22.935 11.2535 22.935C11.3894 22.935 11.6007 22.9792 11.6372 23.1101C11.6558 23.1767 11.6821 23.2391 11.7178 23.2957C11.7993 23.4248 11.9654 23.5787 12.2946 23.5842H12.3201C12.6982 23.5842 12.9899 23.4605 13.1867 23.2163C13.1995 23.2004 13.2117 23.1843 13.2233 23.1677C13.2941 23.0683 13.5041 23.0639 13.5941 23.1466C13.6953 23.2402 13.8227 23.2886 13.9647 23.2886C13.9875 23.2886 14.0105 23.2875 14.0343 23.2849C14.2035 23.2668 14.3499 23.1771 14.4593 23.0243C14.5308 22.9244 14.5831 22.8016 14.6212 22.6688C14.6324 22.6296 14.6861 22.6181 14.7161 22.6455C14.7885 22.7123 14.9043 22.7831 15.0714 22.7831C15.1122 22.7831 15.1563 22.7787 15.2032 22.7689C15.5315 22.703 15.695 22.4311 15.7724 22.1244C15.775 22.1141 15.7899 22.1113 15.7967 22.1194C15.8799 22.2206 16.0334 22.3375 16.3005 22.3375C16.3141 22.3375 16.3283 22.3375 16.3423 22.3368C16.4837 22.3303 16.6029 22.2683 16.6889 22.1572C16.7899 22.0255 16.8318 21.8327 16.8431 21.6366C16.8473 21.5643 16.8937 21.5009 16.96 21.472C17.2378 21.3509 17.5655 21.1051 17.6632 20.9363C17.6639 20.9351 17.6646 20.9339 17.6652 20.9327C17.6953 20.8798 17.7425 20.8367 17.8021 20.825C18.0084 20.7847 18.1008 20.7448 18.185 20.7081C18.2557 20.6771 18.3124 20.6527 18.4711 20.628C19.7334 20.4354 19.9798 20.3929 20.2529 20.2108C20.6615 19.9383 20.6822 19.5633 20.7023 19.2005C20.7197 18.8937 20.7393 18.5455 20.9775 18.1368C21.0641 17.9877 21.1641 17.8016 21.2703 17.6048C21.4519 17.2678 21.7042 16.7991 21.889 16.5418C21.9311 16.4833 22.0081 16.465 22.0743 16.4933C22.5021 16.6757 22.8639 16.8567 22.9429 16.9203V16.9203Z" fill="white"/>
<path d="M10.6839 20.6748C10.6339 21.1113 10.6033 21.6943 10.674 22.454C10.6941 22.6682 10.7219 22.8909 10.7566 23.1159C10.6968 23.1486 10.5182 23.1945 10.2006 23.1893C9.74402 23.1802 9.29961 23.0654 9.16617 22.9211L9.14547 22.9024C9.03443 22.8131 8.96165 22.7544 8.95118 22.595C8.94785 22.5413 8.97084 22.4879 9.02021 22.4126C9.0474 22.3702 9.08336 22.3214 9.1279 22.2609C9.20466 22.1579 9.29981 22.0295 9.39727 21.8642C9.68294 21.3815 9.79128 21.2323 9.92888 21.0441C9.93977 21.0289 9.95126 21.0136 9.96319 20.9979C10.0443 20.8869 10.1395 20.7541 10.2825 20.5359C10.3892 20.3739 10.4779 20.2469 10.5509 20.1474C10.6728 19.9815 10.7527 19.8916 10.8039 19.8427C10.7964 19.9177 10.7794 20.0234 10.7631 20.1208C10.7389 20.2705 10.7083 20.454 10.6839 20.6748Z" fill="white"/>
<path d="M10.4748 13.8903C10.4721 13.894 10.4688 13.8978 10.466 13.9018C10.4066 13.984 10.3387 14.077 10.2577 14.2581C10.04 14.7419 10.0358 15.0156 10.0325 15.2358C10.0304 15.3513 10.0292 15.4431 9.99757 15.5504C9.97582 15.6211 9.94047 15.7022 9.8997 15.7957C9.77128 16.0895 9.60377 16.4747 9.67885 16.9932C9.57491 16.9432 9.41597 16.8288 9.39381 16.768C9.38837 16.7397 9.3823 16.7119 9.37581 16.6841C9.33985 16.5224 9.31601 16.417 9.41891 16.1803C9.6893 15.5567 9.72256 15.4088 9.74368 15.239C9.74808 15.202 9.75247 15.1731 9.76334 15.1262C9.82044 14.8803 9.85035 14.6697 9.87481 14.5005C9.91119 14.2437 9.93568 14.0739 10.0223 13.9461C10.0538 13.8989 10.1431 13.8744 10.2709 13.8744C10.3215 13.8744 10.3786 13.8781 10.4407 13.8869L10.4554 13.888C10.4616 13.8886 10.4683 13.8892 10.4748 13.8903V13.8903Z" fill="white"/>
<path d="M10.118 20.0416C10.1034 19.8921 10.0772 19.7423 10.0229 19.6014C10.0191 19.5942 10.0028 19.5583 9.99945 19.5514C9.98963 19.5334 9.97833 19.5165 9.96786 19.4987C9.96725 19.498 9.96681 19.498 9.96681 19.4976C9.96618 19.4966 9.96577 19.4966 9.96577 19.496C9.95972 19.4895 9.95428 19.483 9.94842 19.4769C9.93962 19.4681 9.93 19.4596 9.9206 19.4518C9.91892 19.4497 9.91725 19.4481 9.91579 19.4474C9.91139 19.4437 9.90493 19.4387 9.89781 19.4345C9.88631 19.4284 9.87543 19.4219 9.86413 19.4161C9.86078 19.414 9.85264 19.4106 9.84511 19.4079C9.84511 19.4079 9.84447 19.4079 9.84447 19.4073C9.8428 19.4067 9.84112 19.4062 9.83966 19.4056C9.83799 19.4046 9.83694 19.4039 9.8359 19.4035C9.83422 19.4029 9.83318 19.4025 9.83213 19.4025C9.83109 19.4025 9.83109 19.4019 9.83109 19.4019C9.82776 19.4002 9.82567 19.3998 9.82399 19.3991C9.73698 19.3671 9.64873 19.3322 9.5563 19.3186C9.55567 19.3186 9.55421 19.318 9.55295 19.318H9.55086C9.54061 19.318 9.51927 19.3159 9.51823 19.3159C9.50527 19.3153 9.49271 19.3153 9.48018 19.3159C9.4741 19.3159 9.46825 19.3159 9.4628 19.3165H9.45799C9.4559 19.3165 9.45318 19.3171 9.45048 19.3171C9.44944 19.3182 9.44776 19.3182 9.44713 19.3182C9.4465 19.3182 9.44609 19.3182 9.44609 19.3182C9.42538 19.3243 9.40361 19.3297 9.38291 19.3362C9.37414 19.3406 9.36452 19.345 9.35574 19.3504C9.34821 19.3548 9.34046 19.3602 9.33293 19.364C9.3323 19.3646 9.33128 19.3657 9.33021 19.3657L9.32856 19.3673C9.31872 19.3772 9.30846 19.3864 9.29865 19.3962C9.29529 19.3995 9.28608 19.4108 9.27962 19.419C9.27794 19.4201 9.2769 19.4211 9.2769 19.4221C9.27627 19.4228 9.27627 19.4228 9.27585 19.4232C9.27522 19.4238 9.27522 19.4242 9.27418 19.4249C9.27355 19.4255 9.27355 19.4259 9.27313 19.4259C9.27041 19.4307 9.26769 19.4347 9.26665 19.4368C9.23173 19.4911 9.19638 19.5451 9.15998 19.5989C9.07613 19.7273 8.99016 19.855 8.90317 19.982C8.8237 20.0968 8.74424 20.2116 8.66539 20.3264C8.62127 20.3906 8.57775 20.4542 8.53426 20.5184C8.52673 20.5293 8.51963 20.5402 8.51251 20.551C8.56417 20.5609 8.61583 20.5711 8.66812 20.5809C8.78501 20.6023 8.9015 20.6228 9.02007 20.6391C9.26434 20.6723 9.51259 20.6876 9.75999 20.6788C9.77192 20.6782 9.78383 20.6788 9.79491 20.6809C9.85431 20.596 9.92437 20.4948 10.0137 20.3593C10.0632 20.2835 10.1105 20.2135 10.155 20.1487C10.135 20.1177 10.1224 20.0807 10.118 20.0416V20.0416Z" fill="white"/>
<path d="M9.24847 21.0509C9.22733 21.2391 9.01674 21.7266 8.68799 22.1907C8.41276 22.5787 8.24567 22.6727 8.21241 22.676C8.07962 22.6577 7.94848 22.329 7.84454 22.0031C7.80272 21.871 7.76508 21.7391 7.73349 21.6287C7.66218 21.3807 7.64921 21.0481 7.66177 20.8392C7.93927 20.9931 8.42676 21.0346 9.11126 21.0373H9.11335C9.15854 21.0421 9.20327 21.0471 9.24847 21.0509V21.0509Z" fill="white"/>
<path d="M8.76132 19.5011V19.5022C8.75797 19.5066 8.75524 19.5114 8.75211 19.5158C8.63458 19.6887 8.51601 19.8608 8.39743 20.0332C8.33594 20.1218 8.27509 20.2105 8.21464 20.2998C8.1814 20.3483 8.13684 20.4017 8.09816 20.4592C8.0007 20.4364 7.90346 20.414 7.80704 20.3868C7.7282 20.364 7.6504 20.3396 7.57407 20.309C7.55879 20.3036 7.54416 20.2975 7.52995 20.2906C7.51739 20.2651 7.49941 20.2421 7.47766 20.2247C7.47829 20.2241 7.47829 20.2226 7.47871 20.222C7.50653 20.1653 7.53476 20.1082 7.56256 20.0518C7.61526 19.9479 7.66818 19.8445 7.72693 19.7444C7.83151 19.5637 7.95762 19.3798 8.13455 19.2627C8.14333 19.2562 8.15295 19.2502 8.16235 19.2443C8.23095 19.2012 8.29956 19.1709 8.38383 19.1605C8.39367 19.1594 8.45286 19.1598 8.48065 19.1621C8.48546 19.1621 8.48945 19.1628 8.49217 19.1628H8.49278C8.49489 19.1634 8.49885 19.1644 8.50471 19.1665C8.52541 19.173 8.54611 19.1774 8.56681 19.1845C8.57393 19.1879 8.58042 19.191 8.58752 19.1948C8.60552 19.2056 8.62391 19.2155 8.64085 19.229C8.61366 19.2083 8.67849 19.2753 8.67849 19.2705C8.73078 19.3428 8.74667 19.4033 8.76132 19.5011V19.5011Z" fill="white"/>
<path d="M7.83027 19.0095C7.61256 19.1885 7.45426 19.4269 7.32208 19.6749C7.24805 19.8125 7.18113 19.9528 7.11149 20.0928C7.10437 20.107 7.09725 20.1206 7.08911 20.1346C7.02324 20.1204 6.95735 20.1013 6.89315 20.0808C6.82456 20.0591 6.75659 20.034 6.69133 20.0037C6.66142 19.9894 6.63153 19.9748 6.60162 19.9591C6.66686 19.8355 6.74467 19.7169 6.8187 19.6017C6.92326 19.439 7.03641 19.279 7.15938 19.1289C7.2056 19.0718 7.25453 19.0092 7.31936 18.9716C7.38567 18.9325 7.46575 18.9417 7.54188 18.9461C7.6224 18.9511 7.70898 18.9532 7.7851 18.9837C7.8008 18.9904 7.81773 19.0009 7.83027 19.0095V19.0095Z" fill="white"/>
<path d="M7.4846 21.9306C7.47372 21.9398 7.46451 21.9498 7.45637 21.9611C7.44884 21.9633 7.44109 21.965 7.43628 21.9661C7.38401 21.9716 7.33068 21.9755 7.27797 21.9787C7.17675 21.9853 7.07385 21.9896 6.97158 21.9859C6.9145 21.9838 6.86284 21.975 6.83942 21.9387C6.80178 21.8814 6.79049 21.782 6.77688 21.7063C6.70996 21.3346 6.70119 20.9473 6.74865 20.5713C6.94293 20.6409 7.14266 20.6949 7.34761 20.7286C7.30349 21.0676 7.37857 21.5653 7.42269 21.7178C7.44318 21.7887 7.46388 21.8603 7.4846 21.9306Z" fill="white"/>
<path d="M6.85968 18.8863C6.68777 19.0974 6.53112 19.3222 6.39059 19.5549C6.33392 19.6497 6.2697 19.7476 6.22244 19.8488C6.15448 19.8297 6.09299 19.8026 6.02774 19.7622C5.97776 19.7312 5.92924 19.6969 5.88198 19.661C5.87005 19.6511 5.83742 19.6256 5.81715 19.6093C5.81234 19.6056 5.80795 19.6018 5.80292 19.5991C5.81861 19.5545 5.84748 19.505 5.86337 19.4717C5.89933 19.3929 5.93949 19.3155 5.98153 19.24C6.06142 19.0986 6.15072 18.9604 6.25194 18.833C6.28958 18.7862 6.32534 18.7257 6.38368 18.7084C6.43702 18.6931 6.50729 18.7002 6.55015 18.7077C6.67752 18.7324 6.77707 18.7901 6.85968 18.8863Z" fill="white"/>
<path d="M5.53389 19.8063C5.5367 19.7953 5.5508 19.7939 5.55742 19.8031C5.60239 19.8657 5.66415 19.9203 5.73031 19.9719C5.75996 19.9944 5.78943 20.017 5.81939 20.0382C5.82404 20.0415 5.82624 20.0473 5.82491 20.0528C5.75567 20.3401 5.70784 20.6445 5.70625 20.9451C5.70617 20.9617 5.68111 20.9653 5.67724 20.9491C5.59149 20.5904 5.48008 20.0169 5.53389 19.8063V19.8063Z" fill="white"/>
<path d="M6.37697 20.4436C6.34205 20.7004 6.32531 20.9579 6.33661 21.2167C6.34205 21.3587 6.35731 21.4997 6.37634 21.64C6.37634 21.6411 6.37634 21.6421 6.37697 21.6428V21.6434C6.34643 21.6363 6.31445 21.6352 6.28182 21.64C6.28831 21.6379 6.27157 21.639 6.26447 21.639H6.26236C6.25757 21.6384 6.25045 21.6379 6.24814 21.6373C6.21218 21.6285 6.20905 21.6248 6.18059 21.6068C6.14359 21.5829 6.10447 21.5392 6.07832 21.4947C6.00932 21.3751 5.99406 21.2297 5.98862 21.0942C5.97836 20.8282 6.00115 20.5626 6.05072 20.302C6.09317 20.3194 6.1302 20.3353 6.19167 20.3618C6.25254 20.3884 6.31569 20.4145 6.37719 20.443V20.4436H6.37697Z" fill="white"/>
</g>
</svg>
