<svg width="32" height="32" viewBox="0 0 32 32" fill="none" xmlns="http://www.w3.org/2000/svg">
    <path d="M16.0001 31.6593C24.6486 31.6593 31.6595 24.6484 31.6595 16C31.6595 7.35152 24.6486 0.340576 16.0001 0.340576C7.3517 0.340576 0.340759 7.35152 0.340759 16C0.340759 24.6484 7.3517 31.6593 16.0001 31.6593Z" fill="url(#paint0_linear)"/>
    <path d="M13.9652 17.6749L16.0484 11.3353L18.1701 17.6749H13.9652ZM22.7963 21.6838L21.0731 16.9516H22.1019C22.5118 16.948 22.8427 16.6157 22.8445 16.2057C22.8445 15.8151 22.5278 15.4985 22.1372 15.4985H20.5298L20.2726 14.7623H22.1019C22.5028 14.7624 22.8308 14.443 22.8413 14.0421C22.843 13.6338 22.5134 13.3013 22.1051 13.2995C22.1029 13.2995 22.1008 13.2995 22.0987 13.2995H19.7229L18.437 9.76322C18.2449 9.25798 17.9273 8.80991 17.5143 8.46122C17.1063 8.12564 16.5891 7.95173 16.0612 7.97256C15.532 7.95574 15.0142 8.12911 14.6017 8.46122C14.1884 8.8104 13.87 9.25822 13.6758 9.76322L12.3288 13.3317H9.96593C9.57302 13.3317 9.25401 13.6492 9.25224 14.0421C9.25224 14.4505 9.58329 14.7815 9.99165 14.7815H11.7855L11.509 15.4985H9.90162C9.50746 15.4985 9.18793 15.818 9.18793 16.2121C9.18793 16.6157 9.51414 16.9434 9.9177 16.9451H10.9496L9.19757 21.6838C9.08988 21.9509 9.03003 22.2349 9.02075 22.5228C9.03902 22.9267 9.21438 23.3074 9.50941 23.5837C9.83406 23.8649 10.2501 24.0181 10.6796 24.0145C11.4231 24.0553 12.0936 23.5698 12.287 22.8507L12.9653 20.8286H19.2053L19.8836 22.899C20.1021 23.5928 20.7649 24.0488 21.491 24.0049C21.7612 24.0103 22.0278 23.9425 22.2626 23.8087C22.4663 23.6576 22.6471 23.4778 22.7995 23.2751C22.9322 23.0469 23.0001 22.7868 22.9956 22.5228C22.953 22.2422 22.8863 21.9658 22.7962 21.6966V21.6838H22.7963Z" fill="#FEFEFE"/>
    <defs>
        <linearGradient id="paint0_linear" x1="5.90557" y1="-10.1127" x2="28.2179" y2="35.2712" gradientUnits="userSpaceOnUse">
            <stop stop-color="#FFB200"/>
            <stop offset="1" stop-color="#FF578C"/>
        </linearGradient>
    </defs>
</svg>
