<svg width="32" height="32" viewBox="0 0 32 32" fill="none" xmlns="http://www.w3.org/2000/svg">
<g clip-path="url(#clip0_2103_26)">
<circle cx="16" cy="16" r="16" fill="black"/>
<path d="M20.0936 12.3397H22.0404H22.0549H26.4214C26.7303 13.2196 26.9247 14.1356 27 15.0651H18.7946C18.6822 15.0652 18.5711 15.0413 18.4688 14.9948C18.3665 14.9484 18.2753 14.8805 18.2014 14.7959L17.4118 13.9044C17.3528 13.8394 17.2809 13.7874 17.2008 13.7517C17.1206 13.716 17.0338 13.6973 16.9461 13.6969H16.9097C16.8262 13.6968 16.7436 13.7135 16.6667 13.7461C16.5898 13.7786 16.5202 13.8262 16.4621 13.8862L15.5233 14.865C15.4633 14.9281 15.391 14.9784 15.311 15.0128C15.2309 15.0472 15.1447 15.065 15.0576 15.0651H5C5.07698 14.1359 5.27139 13.2201 5.57856 12.3397H16.2329C16.3983 12.3394 16.5617 12.3039 16.7123 12.2355C16.8628 12.1671 16.9971 12.0674 17.1062 11.9431L17.783 11.1789C17.8414 11.1136 17.9129 11.0614 17.9928 11.0256C18.0728 10.9898 18.1594 10.9713 18.2469 10.9713C18.3345 10.9713 18.4211 10.9898 18.5011 11.0256C18.581 11.0614 18.6525 11.1136 18.7109 11.1789L19.5005 12.0704C19.5745 12.1549 19.6657 12.2226 19.768 12.2691C19.8703 12.3155 19.9813 12.3396 20.0936 12.3397Z" fill="white"/>
<path d="M11.3372 20.7433C11.2572 20.7777 11.1711 20.7956 11.084 20.7962L6.05524 20.8035C5.63208 19.9297 5.32737 19.0033 5.14919 18.0489H12.3103C12.4759 18.0491 12.6397 18.0142 12.7909 17.9465C12.9421 17.8787 13.0771 17.7797 13.1872 17.6559L13.864 16.8918C13.9213 16.8253 13.9922 16.7721 14.072 16.7356C14.1518 16.6992 14.2385 16.6805 14.3262 16.6807C14.4143 16.6809 14.5014 16.6998 14.5817 16.7362C14.662 16.7726 14.7337 16.8256 14.7919 16.8918L15.5815 17.7833C15.6556 17.8665 15.7464 17.9331 15.848 17.9789C15.9496 18.0246 16.0596 18.0485 16.171 18.0489H26.8508C26.6708 19.001 26.3649 19.9249 25.9411 20.7962H14.8174C14.7051 20.7956 14.5943 20.7713 14.4921 20.7249C14.3899 20.6785 14.2986 20.611 14.2243 20.5269L13.4383 19.6354C13.3793 19.5704 13.3074 19.5185 13.2272 19.4828C13.147 19.4471 13.0603 19.4284 12.9725 19.428H12.9325C12.8491 19.4285 12.7667 19.4455 12.6899 19.478C12.613 19.5104 12.5434 19.5578 12.4849 19.6172L11.5498 20.5961C11.4895 20.6588 11.4172 20.7089 11.3372 20.7433Z" fill="white"/>
<path d="M19.2316 9.30735C19.151 9.34174 19.0642 9.35949 18.9765 9.35953H7.17235C8.20086 7.99007 9.53389 6.87867 11.066 6.11324C12.5981 5.34781 14.2873 4.94934 16 4.94934C17.7127 4.94934 19.4019 5.34781 20.934 6.11324C22.4661 6.87867 23.7991 7.99007 24.8277 9.35953H22.7135C22.6016 9.35896 22.4911 9.33504 22.3889 9.2893C22.2868 9.24356 22.1953 9.17701 22.1204 9.0939L21.3308 8.2024C21.2736 8.13596 21.2026 8.0827 21.1228 8.04627C21.0431 8.00984 20.9564 7.99111 20.8687 7.99136H20.8286C20.7449 7.99152 20.662 8.0087 20.5851 8.04185C20.5081 8.075 20.4387 8.12343 20.3811 8.18421L19.4459 9.1594C19.3852 9.22264 19.3123 9.27296 19.2316 9.30735Z" fill="white"/>
<path d="M11.8336 23.5253H14.7264L24.0744 23.5398C23.0417 24.6476 21.7921 25.5309 20.4033 26.1349C19.0145 26.7389 17.5163 27.0506 16.0018 27.0506C14.4874 27.0506 12.9891 26.7389 11.6003 26.1349C10.2115 25.5309 8.9619 24.6476 7.92921 23.5398H7.97287C8.13829 23.5397 8.3018 23.5043 8.45241 23.4359C8.60303 23.3675 8.73728 23.2677 8.84618 23.1432L9.52663 22.3645C9.58532 22.2991 9.65714 22.2468 9.73738 22.211C9.81763 22.1752 9.90452 22.1567 9.99239 22.1567C10.0803 22.1567 10.1672 22.1752 10.2474 22.211C10.3276 22.2468 10.3995 22.2991 10.4582 22.3645L11.2441 23.256C11.3174 23.3404 11.408 23.4081 11.5097 23.4545C11.6114 23.501 11.7218 23.5251 11.8336 23.5253Z" fill="white"/>
</g>
<defs>
<clipPath id="clip0_2103_26">
<rect width="32" height="32" rx="16" fill="white"/>
</clipPath>
</defs>
</svg>
