<svg width="32" height="32" viewBox="0 0 32 32" fill="none" xmlns="http://www.w3.org/2000/svg">
    <g clip-path="url(#clip0)">
        <path d="M15.9999 2.32101C13.2944 2.32104 10.6497 3.12332 8.40025 4.62641C6.15076 6.1295 4.39751 8.26588 3.3622 10.7654C2.32689 13.2649 2.05602 16.0153 2.58385 18.6688C3.11168 21.3222 4.4145 23.7596 6.32756 25.6726C8.24062 27.5856 10.678 28.8884 13.3315 29.4162C15.9849 29.944 18.7353 29.6731 21.2348 28.6377C23.7343 27.6024 25.8707 25.8491 27.3737 23.5996C28.8768 21.35 29.679 18.7053 29.679 15.9999C29.6749 12.3732 28.2324 8.89631 25.6679 6.3319C23.1035 3.76749 19.6265 2.32504 15.9999 2.32101V2.32101Z" fill="white"/>
        <path d="M15.9999 32C12.8354 32 9.74198 31.0616 7.11081 29.3035C4.47964 27.5454 2.4289 25.0465 1.21791 22.1229C0.00692451 19.1993 -0.309919 15.9822 0.307449 12.8785C0.924816 9.77485 2.44867 6.92393 4.6863 4.6863C6.92393 2.44867 9.77485 0.924816 12.8785 0.307449C15.9822 -0.309919 19.1993 0.00692451 22.1229 1.21791C25.0465 2.4289 27.5454 4.47964 29.3035 7.11081C31.0616 9.74198 32 12.8354 32 15.9999C31.9952 20.2419 30.308 24.3088 27.3084 27.3084C24.3088 30.308 20.2419 31.9952 15.9999 32V32ZM15.9999 2.32101C13.2944 2.32103 10.6497 3.12331 8.40026 4.6264C6.15078 6.12949 4.39752 8.26587 3.36221 10.7654C2.3269 13.2649 2.05604 16.0153 2.58387 18.6688C3.1117 21.3222 4.41452 23.7596 6.32758 25.6726C8.24064 27.5856 10.678 28.8884 13.3315 29.4162C15.985 29.944 18.7353 29.6731 21.2348 28.6377C23.7343 27.6024 25.8707 25.8491 27.3737 23.5996C28.8768 21.35 29.679 18.7053 29.679 15.9999C29.6749 12.3732 28.2324 8.8963 25.668 6.33189C23.1035 3.76748 19.6265 2.32503 15.9999 2.32101V2.32101Z" fill="#222326"/>
        <path d="M18.4748 21.6471C18.3944 21.4851 18.3315 21.315 18.2872 21.1396C18.2326 20.94 18.1884 20.7377 18.1549 20.5335C17.9776 20.7247 17.7818 20.8979 17.5705 21.0506C17.3454 21.2172 17.1035 21.3598 16.8489 21.4763C16.5601 21.6028 16.2585 21.6979 15.9494 21.7601C15.6054 21.8325 15.2547 21.868 14.9032 21.866C14.3312 21.8718 13.7623 21.7824 13.2196 21.6014C12.7379 21.4406 12.2913 21.1892 11.904 20.8606C11.5331 20.5467 11.236 20.1548 11.034 19.7129C10.8319 19.271 10.7299 18.7899 10.7352 18.304C10.7089 17.74 10.8236 17.1785 11.0688 16.6699C11.3141 16.1614 11.6821 15.722 12.1397 15.3914C13.3963 14.6191 14.8627 14.2583 16.3342 14.3596H18.0419V13.6573C18.0539 13.403 18.0097 13.1492 17.9124 12.9139C17.8151 12.6786 17.6672 12.4676 17.4791 12.2961C17.0205 11.9339 16.4434 11.7555 15.8604 11.7958C15.3707 11.7521 14.8825 11.8957 14.4943 12.1975C14.3496 12.3353 14.2363 12.5026 14.162 12.6881C14.0877 12.8736 14.0543 13.0729 14.0638 13.2725H11.0021C11.0016 12.772 11.1168 12.2781 11.3389 11.8295C11.5724 11.3606 11.9077 10.9498 12.3201 10.6269C12.7907 10.2595 13.3246 9.9815 13.8955 9.80678C14.5849 9.5912 15.3041 9.48568 16.0264 9.49412C16.7064 9.489 17.3839 9.57803 18.0395 9.75868C18.6216 9.91694 19.169 10.1829 19.6533 10.5427C20.1134 10.8875 20.4838 11.338 20.7332 11.856C21.0009 12.4258 21.1334 13.0497 21.1204 13.6791V18.7923C21.1121 19.324 21.1523 19.8553 21.2406 20.3797C21.3076 20.7543 21.4266 21.1178 21.5942 21.4595V21.6471L18.4748 21.6471ZM15.5526 19.4969C15.8399 19.4986 16.1262 19.4622 16.404 19.3887C16.6548 19.3206 16.8969 19.2237 17.1255 19.1001C17.3268 18.9924 17.5122 18.8572 17.6763 18.6984C17.8179 18.5636 17.9401 18.4098 18.0395 18.2414V16.1923H16.4785C16.0671 16.1847 15.6563 16.2307 15.2568 16.3294C14.9589 16.4012 14.6779 16.5302 14.4294 16.7094C14.2216 16.8647 14.0562 17.0699 13.9484 17.3059C13.844 17.5438 13.7915 17.8013 13.7945 18.0611C13.79 18.2546 13.8275 18.4468 13.9043 18.6245C13.9811 18.8022 14.0954 18.9611 14.2394 19.0905C14.6087 19.3896 15.0789 19.5352 15.5526 19.4969Z" fill="#222326"/>
    </g>
    <defs>
        <clipPath id="clip0">
            <rect width="32" height="32" fill="white"/>
        </clipPath>
    </defs>
</svg>
