<svg width="32" height="32" viewBox="0 0 32 32" fill="none" xmlns="http://www.w3.org/2000/svg">
<path d="M32 16C32 24.8366 24.8366 32 16 32C7.16344 32 0 24.8366 0 16C0 7.16344 7.16344 0 16 0C24.8366 0 32 7.16344 32 16Z" fill="white"/>
<path d="M3.39103 15.9802C3.39103 14.3555 3.39959 12.7307 3.38769 11.1062C3.38097 10.1929 3.62866 9.37983 4.12919 8.60765C4.38447 8.2139 4.6989 7.95639 5.0853 7.73386C8.0801 6.0092 11.0689 4.2742 14.0655 2.55269C15.348 1.81589 16.6483 1.81509 17.9326 2.55436C20.8595 4.23927 23.7841 5.92843 26.7053 7.6234C27.9608 8.35181 28.5929 9.47053 28.6008 10.9066C28.6197 14.2938 28.6196 17.6811 28.601 21.0683C28.593 22.5168 27.9504 23.6358 26.6834 24.3685C23.7258 26.0791 20.7684 27.79 17.806 29.4923C16.6364 30.1644 15.4093 30.1642 14.2631 29.5213C11.2068 27.8065 8.17522 26.0469 5.1551 24.269C3.98244 23.5786 3.41372 22.4752 3.39637 21.1201C3.37443 19.407 3.39103 17.6935 3.39103 15.9802ZM14.3511 3.11164C14.3144 3.12561 14.2749 3.13485 14.2413 3.15427C11.3479 4.82236 8.45467 6.49073 5.56241 8.16076C5.24619 8.34336 4.96456 8.56894 4.7468 8.85551C4.75134 9.02978 4.81964 9.16322 4.954 9.23973C5.68607 9.65658 6.42247 10.0659 7.15611 10.4771C7.48317 10.2246 7.82616 10.1598 8.20199 10.2968C8.30366 10.0875 8.47908 9.97267 8.61234 9.81862C9.51715 8.77297 10.4261 7.73082 11.3334 6.68729C11.7569 6.20013 12.1821 5.71435 12.6023 5.22438C13.1967 4.53141 13.8232 3.8659 14.3848 3.14485C14.3983 3.13014 14.4118 3.11538 14.468 3.05397C14.3907 3.09206 14.3709 3.10188 14.3511 3.11164ZM16.2645 24.5774C18.6084 20.3509 20.9483 16.1316 23.2823 11.923C23.1828 11.7705 23.0973 11.6397 23.0071 11.5014C18.2511 11.5014 13.4975 11.5014 8.74825 11.5014C8.67657 11.6263 8.6131 11.7368 8.53876 11.8662C10.898 16.1188 13.2617 20.3794 15.634 24.6552C15.8374 24.5498 16.036 24.5879 16.2645 24.5774ZM16.9668 25.2476C17.0622 25.2324 17.1398 25.224 17.2156 25.2074C18.0588 25.0219 18.9013 24.8333 19.7447 24.6492C22.1027 24.1343 24.4618 23.6248 26.8183 23.1034C27.1563 23.0286 27.4255 22.8311 27.5394 22.4813C27.6257 22.2162 27.5724 21.9591 27.4804 21.7027C26.5387 19.0769 25.5999 16.4501 24.6601 13.8236C24.4622 13.2704 24.2631 12.7175 24.0729 12.1875C23.8496 12.1004 23.8015 12.2498 23.7359 12.3672C23.3714 13.0184 23.0069 13.6694 22.6443 14.3217C20.9795 17.3156 19.3152 20.3098 17.6513 23.3042C17.3561 23.8353 17.0635 24.3677 16.7763 24.8878C16.8438 25.0153 16.8985 25.1186 16.9668 25.2476ZM8.00232 12.1405C7.7574 12.1209 7.75532 12.2801 7.7165 12.3916C7.20257 13.8669 6.69272 15.3437 6.18116 16.8199C5.58446 18.5416 4.98621 20.2627 4.3905 21.9848C4.20232 22.5287 4.41405 22.9249 4.95853 23.0574C5.35763 23.1544 5.75558 23.2569 6.15681 23.3443C8.39666 23.8326 10.6373 24.3171 12.8778 24.8026C13.6115 24.9615 14.3455 25.1191 15.0687 25.275C15.2549 25.0513 15.0916 24.8971 15.0082 24.7468C13.0257 21.1741 11.039 17.6038 9.05315 14.0329C8.70086 13.3994 8.34938 12.7655 8.00232 12.1405ZM8.75429 10.8748C13.5161 10.8748 18.2701 10.8748 23.0165 10.8748C23.0735 10.7859 23.1253 10.7145 23.1275 10.6079C23.1123 10.5842 23.0951 10.5488 23.0701 10.5198C21.0081 8.11343 18.947 5.70614 16.8818 3.30246C16.3221 2.6512 15.6353 2.66608 15.0728 3.31654C14.1976 4.32882 13.3158 5.33547 12.4365 6.34437C11.2209 7.73914 10.0056 9.13421 8.78834 10.5275C8.69753 10.6315 8.62246 10.727 8.75429 10.8748ZM27.9411 21.2016C27.9582 21.2008 27.9754 21.2001 27.9925 21.1994C27.9973 21.1741 28.0062 21.1489 28.0062 21.1235C28.0049 17.7277 28.0067 14.3319 27.9964 10.9361C27.9949 10.4698 27.9369 10.0024 27.6875 9.56623C26.7534 10.0718 25.8385 10.5669 24.9046 11.0723C24.9712 11.4034 24.813 11.6632 24.626 11.9166C25.7328 15.0168 26.8369 18.1092 27.9411 21.2016ZM4.30657 9.51832C4.07733 9.97693 3.98703 10.4636 3.98646 10.9675C3.98278 14.2741 3.98249 17.5805 3.98112 20.8871C3.98106 20.9797 3.98112 21.0723 3.98112 21.165C4.00392 21.1697 4.02672 21.1744 4.04947 21.1791C5.10937 18.1111 6.16927 15.043 7.2317 11.9678C6.9415 11.7069 6.82215 11.3868 6.86838 11.0136C6.02836 10.4933 5.13717 10.0942 4.30657 9.51832ZM17.5185 3.09522C19.573 5.49464 21.6134 7.87758 23.6511 10.2574C24.0433 10.1638 24.3705 10.26 24.656 10.5061C25.571 10.0105 26.4707 9.52309 27.3833 9.02875C27.1012 8.64234 26.773 8.36778 26.3934 8.14875C23.5226 6.49221 20.6527 4.83419 17.7816 3.17834C17.7092 3.13657 17.6463 3.05794 17.5185 3.09522ZM16.2753 26.4639C16.2753 27.1926 16.2707 27.9192 16.2771 28.6457C16.281 29.0916 16.6215 29.339 17.0239 29.1872C17.2342 29.1079 17.4392 29.0083 17.634 28.8963C19.1667 28.0154 20.6963 27.1292 22.227 26.2448C23.4983 25.5104 24.7703 24.777 26.0398 24.0396C26.1073 24.0004 26.2136 23.9918 26.2265 23.8461C23.1216 24.5243 20.0298 25.1997 16.9472 25.8729C16.7867 26.1223 16.6158 26.3348 16.2753 26.4639ZM5.73415 23.8417C5.7299 23.8663 5.72565 23.8911 5.72141 23.9159C8.47104 25.5015 11.2209 27.0869 13.9701 28.6734C14.3443 28.8894 14.7096 29.1239 15.1303 29.243C15.3974 29.3186 15.6608 29.1693 15.6665 28.8998C15.6839 28.0756 15.6728 27.2508 15.6728 26.4348C15.4207 26.2953 15.263 26.1099 15.1356 25.92C11.9876 25.2241 8.86083 24.5328 5.73415 23.8417Z" fill="#FAFAFB"/>
<path d="M16.265 24.5777C16.0365 24.5881 15.8378 24.55 15.6345 24.6555C13.2623 20.3796 10.8986 16.119 8.53931 11.8665C8.61364 11.737 8.67711 11.6265 8.7488 11.5016C13.498 11.5016 18.2516 11.5016 23.0077 11.5016C23.098 11.6399 23.1834 11.7707 23.2829 11.9232C20.9489 16.1318 18.609 20.3512 16.265 24.5777ZM19.2932 17.3337C19.6991 17.169 19.803 16.8562 19.8098 16.4957C19.8203 15.945 19.8259 15.3938 19.8153 14.8431C19.8106 14.5999 19.9001 14.4361 20.0943 14.2983C20.3021 14.1508 20.5006 13.9875 20.6873 13.8141C20.8332 13.6785 20.9645 13.5078 20.8323 13.2984C20.697 13.0838 20.4862 13.1596 20.2984 13.2127C20.078 13.2749 19.9087 13.4329 19.7398 13.573C19.484 13.7852 19.2345 13.822 18.9235 13.7036C18.4836 13.5361 18.0294 13.4065 17.582 13.2583C17.3455 13.18 17.1072 13.1366 16.8574 13.183C16.6976 13.2126 16.561 13.2656 16.5062 13.4597C17.1725 13.7985 17.8347 14.1353 18.4956 14.4714C18.4781 14.5123 18.475 14.5335 18.463 14.5454C18.0306 14.9728 17.4939 15.2757 17.0698 15.7146C16.9613 15.8271 16.8235 15.8046 16.6882 15.7326C16.5309 15.649 16.3944 15.6665 16.2909 15.8658C16.7073 16.0284 16.9015 16.3472 16.9441 16.7898C17.127 16.7007 17.2347 16.5978 17.1827 16.4116C17.1284 16.2166 17.2384 16.1136 17.3762 16.0264C17.5836 15.895 17.7977 15.7738 18.0071 15.6453C18.3136 15.4573 18.6188 15.2668 18.9527 15.0599C19.0694 15.8384 19.1781 16.5643 19.2932 17.3337ZM13.3562 13.9063C13.2519 13.7998 13.1473 13.8269 13.0381 13.8494C12.9598 13.9531 12.932 14.0598 13.0354 14.1609C13.0918 14.2161 13.1624 14.2416 13.2484 14.2076C13.3969 14.1488 13.378 14.0354 13.3562 13.9063ZM15.6545 20.2718C15.5084 20.3148 15.4353 20.3932 15.4717 20.536C15.4928 20.6191 15.5544 20.6719 15.6406 20.678C15.7418 20.685 15.8127 20.6268 15.8392 20.5353C15.8808 20.3916 15.8005 20.3156 15.6545 20.2718ZM13.5879 17.9255C13.463 18.0105 13.3965 18.0949 13.4692 18.2283C13.5189 18.3195 13.6008 18.3376 13.6923 18.3198C13.7771 18.3032 13.8305 18.2424 13.8372 18.1597C13.8511 17.9904 13.719 17.9634 13.5879 17.9255ZM10.3966 12.691C10.3483 12.7663 10.3396 12.8468 10.3818 12.9333C10.5004 13.0226 10.6203 13.0663 10.7587 12.948C10.7657 12.8578 10.7996 12.7607 10.7002 12.6747C10.6065 12.635 10.5052 12.6308 10.3966 12.691ZM15.1706 12.8244C15.1565 12.7262 15.1002 12.6447 14.968 12.6441C14.851 12.6435 14.7872 12.7084 14.7786 12.8235C14.7688 12.9536 14.8389 13.0352 14.9608 13.0445C15.0866 13.0542 15.1574 12.9749 15.1706 12.8244Z" fill="url(#paint0_linear_1213_616)"/>
<path d="M16.967 25.2477C16.8988 25.1187 16.8441 25.0153 16.7766 24.8878C17.0639 24.3678 17.3565 23.8353 17.6515 23.3042C19.3155 20.3099 20.9798 17.3157 22.6445 14.3217C23.0071 13.6695 23.3717 13.0183 23.7362 12.3672C23.8019 12.2499 23.8498 12.1004 24.0732 12.1876C24.2635 12.7176 24.4625 13.2705 24.6604 13.8237C25.6003 16.4501 26.5391 19.077 27.4807 21.7028C27.5726 21.9591 27.626 22.2163 27.5397 22.4813C27.4258 22.8312 27.1566 23.0287 26.8186 23.1035C24.4621 23.6248 22.103 24.1344 19.745 24.6492C18.9015 24.8333 18.0591 25.0219 17.2159 25.2073C17.1402 25.224 17.0626 25.2324 16.967 25.2477Z" fill="url(#paint1_linear_1213_616)"/>
<path d="M8.00067 12.1403C8.34773 12.7653 8.69921 13.3993 9.0515 14.0328C11.0373 17.6036 13.0241 21.174 15.0066 24.7467C15.09 24.8969 15.2533 25.0511 15.067 25.2748C14.3439 25.1189 13.6098 24.9614 12.8761 24.8024C10.6357 24.317 8.39501 23.8324 6.15515 23.3442C5.75393 23.2567 5.35592 23.1543 4.95688 23.0572C4.4124 22.9248 4.20067 22.5286 4.38885 21.9847C4.98451 20.2626 5.58281 18.5415 6.17951 16.8197C6.69107 15.3435 7.20092 13.8668 7.71485 12.3914C7.75367 12.28 7.75575 12.1208 8.00067 12.1403Z" fill="url(#paint2_linear_1213_616)"/>
<path d="M8.75403 10.8745C8.62221 10.7267 8.69728 10.6311 8.78804 10.5273C10.0053 9.134 11.2206 7.73894 12.4362 6.34415C13.3155 5.33532 14.1973 4.32867 15.0726 3.31633C15.635 2.66581 16.3219 2.65094 16.8814 3.30226C18.9467 5.70593 21.0078 8.11316 23.0699 10.5196C23.0946 10.5486 23.1121 10.584 23.1273 10.6077C23.125 10.7143 23.0731 10.7857 23.0162 10.8746C18.2698 10.8745 13.5158 10.8745 8.75403 10.8745Z" fill="url(#paint3_linear_1213_616)"/>
<path d="M27.9428 21.2018C26.8387 18.1094 25.7346 15.0171 24.6276 11.917C24.8148 11.6634 24.9729 11.4036 24.9062 11.0726C25.8402 10.5672 26.755 10.0721 27.6892 9.56653C27.9385 10.0027 27.9966 10.4701 27.998 10.9364C28.0085 14.3322 28.0065 17.7279 28.0079 21.1238C28.0079 21.1491 27.999 21.1744 27.9942 21.1997C27.9771 21.2003 27.96 21.2011 27.9428 21.2018Z" fill="#38A1BD"/>
<path d="M4.30522 9.51855C5.13581 10.0944 6.02701 10.4936 6.86703 11.0138C6.82073 11.3871 6.94009 11.7071 7.23034 11.9681C6.16797 15.0433 5.10801 18.1113 4.04812 21.1794C4.02531 21.1747 4.0025 21.1698 3.97976 21.1652C3.97976 21.0725 3.9797 20.9799 3.97976 20.8873C3.98114 17.5808 3.98149 14.2742 3.9851 10.9678C3.98562 10.4638 4.07597 9.97717 4.30522 9.51855Z" fill="url(#paint4_linear_1213_616)"/>
<path d="M17.5182 3.09555C17.6461 3.05833 17.7089 3.13691 17.7813 3.17861C20.6525 4.83451 23.5224 6.49255 26.3932 8.14903C26.7729 8.36805 27.1009 8.64268 27.3831 9.02903C26.4705 9.52336 25.5708 10.0107 24.6558 10.5064C24.3703 10.2603 24.0431 10.1641 23.6509 10.2577C21.6132 7.87791 19.5727 5.49492 17.5182 3.09555Z" fill="#3AA7BC"/>
<path d="M14.3834 3.14465C13.8217 3.8657 13.1953 4.53122 12.6009 5.22418C12.1806 5.71415 11.7555 6.19993 11.3319 6.68708C10.4246 7.73062 9.51571 8.77277 8.6109 9.81842C8.47764 9.97242 8.30222 10.0873 8.20054 10.2966C7.82471 10.1596 7.48173 10.2244 7.15466 10.4769C6.42103 10.0657 5.68463 9.65638 4.95255 9.23953C4.8182 9.16302 4.74989 9.02958 4.74536 8.8553C4.96311 8.56873 5.24475 8.34316 5.56097 8.16056C8.45322 6.49052 11.3464 4.82215 14.2398 3.15407C14.2734 3.13471 14.3129 3.12546 14.3496 3.11145C14.3608 3.12265 14.372 3.13368 14.3834 3.14465Z" fill="#3A74B3"/>
<path d="M16.2758 26.4643C16.6163 26.3351 16.7871 26.1226 16.9477 25.8732C20.0302 25.2 23.1221 24.5247 26.227 23.8466C26.214 23.9922 26.1077 24.0007 26.0403 24.0399C24.7707 24.7775 23.4988 25.5108 22.2275 26.2453C20.6968 27.1296 19.1672 28.0158 17.6345 28.8966C17.4395 29.0086 17.2346 29.1083 17.0244 29.1876C16.6219 29.3394 16.2815 29.092 16.2775 28.6461C16.2712 27.9196 16.2758 27.1931 16.2758 26.4643Z" fill="#426197"/>
<path d="M5.73565 23.8414C8.86238 24.5327 11.9891 25.2238 15.1372 25.9196C15.2644 26.1096 15.4222 26.2948 15.6743 26.4345C15.6743 27.2504 15.6854 28.0753 15.668 28.8995C15.6623 29.169 15.3989 29.3183 15.1318 29.2427C14.7112 29.1235 14.3458 28.889 13.9715 28.6731C11.2224 27.0865 8.47253 25.5012 5.7229 23.9155C5.72714 23.8909 5.7314 23.8661 5.73565 23.8414Z" fill="url(#paint5_linear_1213_616)"/>
<path d="M14.3498 3.1115C14.3697 3.10173 14.3894 3.0919 14.4667 3.05371C14.4104 3.11517 14.397 3.12988 14.3835 3.14464C14.3722 3.13373 14.361 3.1227 14.3498 3.1115Z" fill="#3786BA"/>
<path d="M19.2935 17.3338C19.1783 16.5644 19.0696 15.8385 18.953 15.0598C18.619 15.2668 18.3141 15.4573 18.0075 15.6453C17.798 15.7737 17.584 15.8949 17.3765 16.0263C17.2387 16.1136 17.1287 16.2166 17.1831 16.4115C17.235 16.5977 17.1274 16.7006 16.9444 16.7898C16.9018 16.3472 16.7077 16.0284 16.2913 15.8658C16.3948 15.6665 16.5313 15.649 16.6886 15.7326C16.8239 15.8046 16.9617 15.827 17.0702 15.7146C17.4942 15.2757 18.0309 14.9728 18.4634 14.5453C18.4754 14.5334 18.4784 14.5123 18.496 14.4715C17.835 14.1353 17.1728 13.7985 16.5066 13.4596C16.5614 13.2655 16.698 13.2126 16.8577 13.1829C17.1075 13.1367 17.3457 13.1801 17.5823 13.2584C18.0297 13.4065 18.4839 13.5361 18.9239 13.7037C19.2348 13.822 19.4843 13.7851 19.7402 13.573C19.909 13.4329 20.0784 13.2749 20.2988 13.2127C20.4865 13.1597 20.6973 13.0838 20.8327 13.2984C20.9648 13.5077 20.8336 13.6785 20.6877 13.8141C20.501 13.9875 20.3024 14.1508 20.0946 14.2982C19.9004 14.4361 19.8109 14.5998 19.8157 14.8432C19.8263 15.3938 19.8207 15.9451 19.8102 16.4958C19.8032 16.8563 19.6994 17.169 19.2935 17.3338Z" fill="#FAFAFB"/>
<path d="M13.3571 13.9062C13.379 14.0354 13.3979 14.1489 13.2494 14.2077C13.1633 14.2418 13.0926 14.2161 13.0363 14.1609C12.933 14.0599 12.9607 13.9531 13.039 13.8494C13.1483 13.8269 13.2529 13.7999 13.3571 13.9062Z" fill="#FAFAFB"/>
<path d="M15.6527 20.2719C15.7987 20.3156 15.8791 20.3916 15.8375 20.5353C15.811 20.6268 15.74 20.6849 15.6388 20.6779C15.5525 20.672 15.491 20.6191 15.4699 20.536C15.4336 20.393 15.5066 20.3147 15.6527 20.2719Z" fill="#FAFAFB"/>
<path d="M13.5862 17.925C13.7173 17.9629 13.8494 17.9901 13.8355 18.1593C13.8287 18.242 13.7753 18.3028 13.6906 18.3193C13.5991 18.3372 13.5172 18.3191 13.4675 18.2279C13.3946 18.0944 13.4612 18.0101 13.5862 17.925Z" fill="#FAFAFB"/>
<path d="M10.3961 12.6905C10.5048 12.6303 10.606 12.6345 10.6998 12.6742C10.7992 12.7603 10.7653 12.8574 10.7584 12.9475C10.6199 13.0657 10.5001 13.0221 10.3815 12.9327C10.3391 12.8464 10.3479 12.7659 10.3961 12.6905Z" fill="#FAFAFB"/>
<path d="M15.17 12.8242C15.1568 12.9747 15.0859 13.0539 14.9602 13.0443C14.8383 13.035 14.7683 12.9534 14.7781 12.8233C14.7866 12.7081 14.8504 12.6433 14.9675 12.6439C15.0997 12.6444 15.156 12.7259 15.17 12.8242Z" fill="#FAFAFB"/>
<defs>
<linearGradient id="paint0_linear_1213_616" x1="9.30326" y1="23.6438" x2="17.1543" y2="9.9084" gradientUnits="userSpaceOnUse">
<stop stop-color="#4F3F60"/>
<stop offset="0.514" stop-color="#3F659F"/>
<stop offset="0.9995" stop-color="#3BAABC"/>
</linearGradient>
<linearGradient id="paint1_linear_1213_616" x1="17.9833" y1="21.2085" x2="28.1201" y2="16.3233" gradientUnits="userSpaceOnUse">
<stop stop-color="#3F659F"/>
<stop offset="1" stop-color="#3698BC"/>
</linearGradient>
<linearGradient id="paint2_linear_1213_616" x1="4.15838" y1="23.2249" x2="11.5346" y2="18.6691" gradientUnits="userSpaceOnUse">
<stop stop-color="#4E4365"/>
<stop offset="1" stop-color="#3F659E"/>
</linearGradient>
<linearGradient id="paint3_linear_1213_616" x1="8.68285" y1="6.8478" x2="23.1273" y2="6.8478" gradientUnits="userSpaceOnUse">
<stop stop-color="#3B71AE"/>
<stop offset="0.9995" stop-color="#379DBC"/>
</linearGradient>
<linearGradient id="paint4_linear_1213_616" x1="1.89945" y1="20.7822" x2="5.43378" y2="12.3365" gradientUnits="userSpaceOnUse">
<stop stop-color="#4E4365"/>
<stop offset="1" stop-color="#3F659E"/>
</linearGradient>
<linearGradient id="paint5_linear_1213_616" x1="5.79901" y1="25.8184" x2="15.7094" y2="27.37" gradientUnits="userSpaceOnUse">
<stop stop-color="#4E4365"/>
<stop offset="1" stop-color="#3F659E"/>
</linearGradient>
</defs>
</svg>
