<svg width="32" height="32" viewBox="0 0 32 32" fill="none" xmlns="http://www.w3.org/2000/svg">
    <path d="M16 32C7.16308 32 0 24.8369 0 16C0 7.16308 7.16308 0 16 0C24.8369 0 32 7.16308 32 16C32 24.8369 24.8369 32 16 32Z" fill="#FFB300"/>
    <path d="M26.0723 8.17232L25.9985 7.78339L25.6145 7.70462C25.5899 7.6997 23.0397 7.16309 20.7702 5.89786C17.5357 4.08616 16.4477 2.94401 16.4379 2.93416L15.9997 2.46155L15.5665 2.92924C15.5566 2.93909 14.4637 4.08616 11.2293 5.89786C8.95972 7.16309 6.40957 7.6997 6.38003 7.70462L5.99603 7.78339L5.92219 8.17232C5.46927 10.5945 5.46434 13.0314 5.9025 15.424L6.09942 16.3791L6.15357 16.6006C6.76896 19.1114 7.86188 21.4548 9.39788 23.5717C11.0619 25.8659 13.1837 27.7908 15.6896 29.2874L15.9899 29.4695L16.2902 29.2874C18.8009 27.7908 20.9179 25.8659 22.5819 23.5717C24.1179 21.4548 25.2108 19.1114 25.8262 16.6006L26.0772 15.4289C26.5302 13.0314 26.5203 10.5945 26.0723 8.17232Z" fill="black"/>
    <path d="M6.58203 16.2019L6.5968 16.2609L6.65095 16.4726C7.25157 18.9243 8.31988 21.2086 9.81649 23.2714C11.4411 25.5114 13.5088 27.3871 15.9605 28.8541L16.0048 28.8788L16.0491 28.8541C18.5008 27.392 20.5685 25.5114 22.1931 23.2714C23.6897 21.2136 24.7531 18.9293 25.3537 16.4825L25.4128 16.2019H6.58203Z" fill="#8E001C"/>
    <path d="M6.52314 15.9114H25.477L25.6 15.3256C26.0283 12.9969 26.0185 10.6191 25.5803 8.26586L25.5705 8.20678L25.5114 8.19694C25.3243 8.15755 22.8037 7.61109 20.5244 6.33601C17.2111 4.48001 16.0739 3.2837 16.0641 3.26894L16.0001 3.20001L15.9361 3.26894C15.8868 3.31817 14.7791 4.48494 11.4758 6.33109C9.18653 7.61109 6.67576 8.15263 6.48376 8.19201L6.42468 8.20186L6.41484 8.26094C5.97668 10.6191 5.97176 12.9969 6.39514 15.3256L6.52314 15.9114Z" fill="#FFB300"/>
    <path d="M14.3404 25.1668C14.3404 25.1521 14.3305 25.1422 14.3207 25.1422C14.301 25.1422 14.2075 25.1324 14.173 25.1275C14.1041 25.1127 14.0893 25.0782 14.0844 25.0044C14.0745 24.9059 14.0745 24.7139 14.0745 24.4973V24.0788C14.0745 23.7342 14.0893 23.5127 14.0893 23.493C14.0893 23.4684 14.0844 23.4438 14.0647 23.4438C14.045 23.4438 14.0253 23.4585 14.0056 23.4733C13.9268 23.5324 13.4985 23.813 13.4887 23.8179C13.4788 23.8228 13.469 23.8376 13.469 23.8475C13.469 23.8622 13.4788 23.8721 13.4887 23.8721C13.4985 23.8721 13.5084 23.8671 13.5182 23.8622C13.5675 23.8425 13.7348 23.7539 13.7742 23.7539C13.8087 23.7539 13.8087 23.7785 13.8087 23.8327V24.1281V24.4875C13.8136 24.7041 13.8087 24.8961 13.7988 24.9945C13.7939 25.0684 13.7791 25.0979 13.7102 25.1127C13.6708 25.1225 13.5576 25.1275 13.533 25.1275C13.5231 25.1275 13.5133 25.1324 13.5133 25.1521C13.5133 25.1668 13.5281 25.1718 13.5527 25.1718C13.6955 25.1718 13.8825 25.1668 13.9367 25.1668C13.9958 25.1668 14.1385 25.1718 14.3108 25.1718C14.3305 25.1915 14.3404 25.1865 14.3404 25.1668C14.3404 25.1718 14.3404 25.1718 14.3404 25.1668Z" fill="#010101"/>
    <path d="M15.2409 23.4536C14.8963 23.4536 14.6699 23.6752 14.6699 23.9804C14.6699 24.1675 14.8028 24.4136 15.1228 24.4136C15.236 24.4136 15.3542 24.3792 15.4182 24.3102C15.4231 24.3053 15.428 24.2906 15.428 24.2856C15.428 24.2758 15.4182 24.2659 15.4083 24.2659C15.3985 24.2659 15.3886 24.2758 15.364 24.2906C15.3345 24.3053 15.2902 24.3152 15.2114 24.3152C15.1376 24.3152 14.916 24.2315 14.916 23.8918C14.916 23.6998 15.0243 23.557 15.1819 23.557C15.3542 23.557 15.5216 23.7343 15.5216 24.133C15.5216 24.6647 15.172 25.0339 14.9406 25.1767C14.9308 25.1865 14.916 25.1964 14.916 25.2161C14.916 25.2259 14.9259 25.2407 14.9357 25.2407C14.9554 25.2407 14.9653 25.2358 14.9751 25.2308C15.2508 25.0979 15.7973 24.7041 15.7973 24.0739C15.8022 23.7244 15.6003 23.4536 15.2409 23.4536Z" fill="#010101"/>
    <path d="M17.1611 24.7927C17.1611 24.7681 17.1562 24.7484 17.1414 24.7484C17.1266 24.7484 17.1217 24.7582 17.1168 24.7828C17.0872 24.8911 17.0183 24.965 16.8608 24.9847C16.7771 24.9945 16.5162 24.9994 16.4768 24.9994H16.3242C16.3192 24.9994 16.3143 24.9995 16.3143 24.9945C16.3143 24.9896 16.3143 24.9896 16.3192 24.9847C16.6097 24.7533 17.0872 24.3693 17.0872 23.9361C17.0872 23.6751 16.9198 23.4585 16.526 23.4585C16.3291 23.4585 16.2109 23.4979 16.1223 23.5422C16.0977 23.557 16.0928 23.5668 16.0928 23.5865C16.0928 23.6505 16.1026 23.8376 16.1075 23.8573C16.1075 23.8868 16.1174 23.9016 16.1272 23.9016C16.1469 23.9016 16.1568 23.8819 16.1568 23.8573C16.1568 23.7982 16.1962 23.6948 16.2503 23.6407C16.3192 23.5767 16.3931 23.5619 16.4866 23.5619C16.5998 23.5619 16.7918 23.6358 16.7918 23.9902C16.7918 24.4628 16.3488 24.8173 16.0337 25.093C16.0091 25.1127 15.9894 25.1324 15.9894 25.1521C15.9894 25.1718 16.0041 25.1816 16.0189 25.1816H16.8952C17.0331 25.1816 17.0725 25.1718 17.0872 25.1127C17.1217 25.0388 17.1611 24.8271 17.1611 24.7927Z" fill="#010101"/>
    <path d="M18.4758 23.493H17.7619C17.5256 23.493 17.4715 23.4684 17.4616 23.4684C17.4518 23.4684 17.4419 23.4782 17.4419 23.4979C17.4419 23.5225 17.4075 23.7835 17.4075 23.8672C17.4075 23.8918 17.4075 23.9016 17.4272 23.9016C17.4419 23.9016 17.4469 23.8868 17.4469 23.8721C17.4518 23.8376 17.4813 23.7638 17.5207 23.7392C17.5749 23.7047 17.6684 23.6998 17.7275 23.6998H18.3035C17.9982 24.2216 17.7078 24.8862 17.6487 25.0979C17.6389 25.1324 17.6339 25.1668 17.6339 25.1915C17.6339 25.2112 17.6389 25.2161 17.6635 25.2161C17.7619 25.2161 17.9441 25.1225 17.9441 25.0782C17.9441 25.0487 17.9392 25.0339 17.9441 24.9945C17.9785 24.7041 18.3281 23.813 18.5102 23.5472C18.5152 23.5373 18.525 23.5225 18.525 23.5078C18.5299 23.4979 18.5201 23.493 18.4758 23.493Z" fill="#010101"/>
    <path d="M14.3207 25.0635C14.301 25.0635 14.2075 25.0585 14.173 25.0487C14.1041 25.0339 14.0893 24.9994 14.0844 24.9256C14.0745 24.8271 14.0745 24.6351 14.0745 24.4185V24C14.0745 23.6554 14.0893 23.4339 14.0893 23.4142C14.0893 23.3896 14.0844 23.365 14.0647 23.365C14.045 23.365 14.0253 23.3797 14.0056 23.3945C13.9268 23.4536 13.4985 23.7342 13.4887 23.7391C13.4788 23.744 13.469 23.7588 13.469 23.7687C13.469 23.7834 13.4788 23.7933 13.4887 23.7933C13.4985 23.7933 13.5084 23.7884 13.5182 23.7834C13.5675 23.7637 13.7348 23.6751 13.7742 23.6751C13.8087 23.6751 13.8087 23.6997 13.8087 23.7588V24.0542V24.4136C13.8136 24.6302 13.8087 24.8222 13.7988 24.9207C13.7939 24.9945 13.7791 25.0241 13.7102 25.0388C13.6708 25.0487 13.5576 25.0536 13.533 25.0536C13.5231 25.0536 13.5133 25.0634 13.5133 25.0782C13.5133 25.093 13.5281 25.0979 13.5527 25.0979C13.6955 25.0979 13.8825 25.093 13.9318 25.093C13.9908 25.093 14.1336 25.0979 14.3059 25.0979C14.3305 25.0979 14.3404 25.093 14.3404 25.0782C14.3404 25.0733 14.3305 25.0635 14.3207 25.0635Z" fill="#C9CACC"/>
    <path d="M15.2409 23.3748C14.8963 23.3748 14.6699 23.5964 14.6699 23.9016C14.6699 24.0887 14.8028 24.3348 15.1228 24.3348C15.236 24.3348 15.3542 24.3004 15.4182 24.2315C15.4231 24.2265 15.428 24.2118 15.428 24.2068C15.428 24.197 15.4182 24.1872 15.4083 24.1872C15.3985 24.1872 15.3886 24.197 15.364 24.2118C15.3345 24.2265 15.2902 24.2364 15.2114 24.2364C15.1376 24.2364 14.916 24.1527 14.916 23.8081C14.916 23.6161 15.0243 23.4733 15.1819 23.4733C15.3542 23.4733 15.5216 23.6505 15.5216 24.0493C15.5216 24.581 15.172 24.9502 14.9406 25.093C14.9308 25.1028 14.916 25.1127 14.916 25.1324C14.916 25.1422 14.9259 25.157 14.9357 25.157C14.9554 25.157 14.9653 25.1521 14.9751 25.1472C15.2508 25.0142 15.7973 24.6204 15.7973 23.9902C15.8022 23.6456 15.6003 23.3748 15.2409 23.3748Z" fill="#C9CACC"/>
    <path d="M17.1462 24.6696C17.1314 24.6696 17.1265 24.6795 17.1215 24.7041C17.092 24.8075 17.0231 24.8862 16.8655 24.9059C16.7819 24.9158 16.5209 24.9207 16.4815 24.9207H16.3289C16.3191 24.9207 16.3142 24.9108 16.324 24.9059C16.3683 24.8715 16.4175 24.8272 16.4717 24.7878C16.7523 24.5564 17.092 24.2265 17.092 23.8573C17.092 23.6112 16.9443 23.4044 16.6046 23.3798C16.58 23.3798 16.5603 23.3748 16.5357 23.3748C16.3388 23.3748 16.2206 23.4142 16.132 23.4585C16.1074 23.4733 16.1025 23.4832 16.1025 23.5028C16.1025 23.5619 16.1123 23.7342 16.1172 23.7687V23.7736C16.1172 23.7982 16.1271 23.8179 16.1369 23.8179C16.1566 23.8179 16.1665 23.7982 16.1665 23.7736C16.1665 23.7145 16.2059 23.6112 16.26 23.557C16.3289 23.493 16.4028 23.4782 16.4963 23.4782C16.6095 23.4782 16.8015 23.5521 16.8015 23.9065C16.8015 24.3841 16.3585 24.7336 16.0434 25.0093C16.0188 25.029 15.9991 25.0487 15.9991 25.0684C15.9991 25.0881 16.0139 25.1028 16.0286 25.1028H16.9049C17.0428 25.1028 17.0822 25.093 17.0969 25.0339C17.1215 24.9601 17.1609 24.7484 17.1609 24.7139C17.1609 24.6893 17.1609 24.6696 17.1462 24.6696Z" fill="#C9CACC"/>
    <path d="M18.4754 23.4142H17.7615C17.5252 23.4142 17.471 23.3896 17.4612 23.3896C17.4513 23.3896 17.4366 23.3994 17.4366 23.424C17.4366 23.4487 17.4021 23.7096 17.4021 23.7933C17.4021 23.8179 17.4021 23.8277 17.4218 23.8277C17.4366 23.8277 17.4415 23.8179 17.4415 23.7982C17.4464 23.7637 17.4759 23.6899 17.5153 23.6604C17.5695 23.6259 17.663 23.621 17.7221 23.621H18.2981C17.9929 24.1428 17.7024 24.8074 17.6433 25.024C17.6335 25.0585 17.6286 25.093 17.6286 25.1176C17.6286 25.1373 17.6335 25.1422 17.6581 25.1422C17.7566 25.1422 17.9387 25.0487 17.9387 25.0044C17.9387 24.9797 17.9387 24.965 17.9387 24.9453C17.9387 24.9404 17.9387 24.9305 17.9387 24.9207C17.9732 24.6302 18.3227 23.7391 18.5049 23.4733C18.5098 23.4634 18.5197 23.4487 18.5197 23.4339C18.5295 23.4191 18.5197 23.4142 18.4754 23.4142Z" fill="#C9CACC"/>
    <path d="M9.36845 19.5249C9.36845 18.8898 9.36845 18.7717 9.35861 18.6387C9.34876 18.496 9.31922 18.432 9.17645 18.3975C9.14199 18.3877 9.07307 18.3877 9.01399 18.3877C8.96968 18.3877 8.94507 18.3778 8.94507 18.3483C8.94507 18.3187 8.97461 18.3089 9.03861 18.3089C9.26014 18.3089 9.52599 18.3237 9.6146 18.3237C9.75737 18.3237 10.0724 18.3089 10.2054 18.3089C10.4712 18.3089 10.7469 18.3335 10.9734 18.4911C11.0915 18.5698 11.2589 18.7864 11.2589 19.0621C11.2589 19.3723 11.1309 19.6578 10.7075 19.9975C11.0768 20.4652 11.3672 20.8394 11.6134 21.1003C11.8497 21.3415 12.022 21.3711 12.0811 21.3858C12.1254 21.3957 12.1647 21.4006 12.1992 21.4006C12.2337 21.4006 12.2484 21.4154 12.2484 21.4351C12.2484 21.4695 12.2189 21.4794 12.1697 21.4794H11.7709C11.5346 21.4794 11.4312 21.4597 11.3229 21.4006C11.1457 21.3021 10.9832 21.1052 10.7518 20.7852C10.5844 20.5538 10.3924 20.2683 10.3383 20.2092C10.3186 20.1846 10.294 20.1797 10.2644 20.1797L9.90014 20.1698C9.88045 20.1698 9.86568 20.1797 9.86568 20.2043V20.2634C9.86568 20.6523 9.86568 20.9821 9.88537 21.1594C9.90014 21.2824 9.92476 21.3711 10.0478 21.3907C10.1118 21.4006 10.2054 21.4055 10.2546 21.4055C10.2891 21.4055 10.3038 21.4203 10.3038 21.44C10.3038 21.4695 10.2743 21.4843 10.2201 21.4843C9.97399 21.4843 9.66876 21.4744 9.60476 21.4744C9.52599 21.4744 9.26014 21.4843 9.09276 21.4843C9.03861 21.4843 9.00907 21.4744 9.00907 21.44C9.00907 21.4203 9.02384 21.4055 9.07799 21.4055C9.14199 21.4055 9.19122 21.3957 9.23061 21.3907C9.3143 21.376 9.33399 21.2824 9.35368 21.1594C9.37337 20.9871 9.37337 20.6523 9.37337 20.2683L9.36845 19.5249ZM9.86076 19.8547C9.86076 19.8991 9.8706 19.9187 9.90014 19.9286C9.98876 19.9581 10.1118 19.9729 10.2201 19.9729C10.3875 19.9729 10.4417 19.9532 10.5155 19.8991C10.6386 19.8055 10.7617 19.6135 10.7617 19.2738C10.7617 18.6781 10.3678 18.5058 10.1217 18.5058C10.0183 18.5058 9.93953 18.5107 9.90014 18.5206C9.8706 18.5304 9.86076 18.5452 9.86076 18.5797C9.86076 18.5846 9.86076 19.8547 9.86076 19.8547Z" fill="#1D1D1B"/>
    <path d="M12.0712 19.8941C12.0712 19.1803 12.5438 18.2548 13.7992 18.2548C14.8429 18.2548 15.4928 18.8603 15.4928 19.8203C15.4928 20.7803 14.8232 21.5385 13.7599 21.5385C12.5586 21.5335 12.0712 20.6326 12.0712 19.8941ZM14.9069 19.9729C14.9069 19.0326 14.3654 18.4517 13.6811 18.4517C13.1986 18.4517 12.6522 18.7175 12.6522 19.7612C12.6522 20.6326 13.1346 21.3218 13.9371 21.3218C14.2275 21.3268 14.9069 21.184 14.9069 19.9729Z" fill="#1D1D1B"/>
    <path d="M16.1426 18.3631C16.1525 18.2941 16.182 18.2548 16.2115 18.2548C16.246 18.2548 16.2706 18.2745 16.3248 18.3828L17.4669 20.7114L18.6042 18.3532C18.6386 18.2843 18.6583 18.2548 18.6977 18.2548C18.7322 18.2548 18.7617 18.2941 18.7715 18.3828L19.1506 20.9427C19.19 21.2037 19.2294 21.3267 19.3574 21.3661C19.4805 21.4055 19.5642 21.4104 19.6183 21.4104C19.6577 21.4104 19.6872 21.4153 19.6872 21.44C19.6872 21.4744 19.638 21.4843 19.5789 21.4843C19.4755 21.4843 18.8946 21.4744 18.7272 21.4646C18.6288 21.4547 18.6042 21.4449 18.6042 21.4203C18.6042 21.4006 18.6189 21.3858 18.6485 21.376C18.6731 21.3661 18.6878 21.312 18.6682 21.1938L18.4171 19.3723H18.4023L17.4915 21.2381C17.3931 21.435 17.3734 21.4695 17.3389 21.4695C17.2995 21.4695 17.2602 21.3858 17.1912 21.2627C17.0928 21.0707 16.7629 20.4307 16.7088 20.3126C16.6694 20.224 16.4183 19.7317 16.2755 19.4166H16.2608L16.0442 21.0461C16.0343 21.12 16.0294 21.179 16.0294 21.243C16.0294 21.3218 16.0835 21.3612 16.1525 21.376C16.2263 21.3907 16.2854 21.3957 16.3297 21.3957C16.3642 21.3957 16.3937 21.4055 16.3937 21.4252C16.3937 21.4646 16.3543 21.4695 16.2952 21.4695C16.118 21.4695 15.9309 21.4547 15.8571 21.4547C15.7783 21.4547 15.5765 21.4695 15.4435 21.4695C15.4042 21.4695 15.3697 21.4597 15.3697 21.4252C15.3697 21.4055 15.3943 21.3957 15.4386 21.3957C15.4731 21.3957 15.5026 21.3957 15.5666 21.3809C15.6848 21.3563 15.7192 21.1938 15.7389 21.051L16.1426 18.3631Z" fill="#1D1D1B"/>
    <path d="M20.7307 20.4061C20.7061 20.4061 20.7012 20.416 20.6913 20.4406L20.4649 21.0166C20.4255 21.12 20.4009 21.2234 20.4009 21.2726C20.4009 21.3465 20.4402 21.4006 20.5682 21.4006H20.6322C20.6815 21.4006 20.6962 21.4105 20.6962 21.4351C20.6962 21.4695 20.6716 21.4745 20.6273 21.4745C20.4944 21.4745 20.3122 21.4646 20.1842 21.4646C20.1399 21.4646 19.9085 21.4745 19.6919 21.4745C19.6378 21.4745 19.6132 21.4646 19.6132 21.4351C19.6132 21.4105 19.6279 21.4006 19.6624 21.4006C19.7018 21.4006 19.7609 21.3957 19.7904 21.3908C19.9824 21.3661 20.0612 21.2234 20.1449 21.0166L21.1935 18.4221C21.2427 18.2991 21.2673 18.2548 21.3116 18.2548C21.351 18.2548 21.3756 18.2892 21.415 18.3877C21.5135 18.6191 22.183 20.2929 22.4538 20.928C22.6113 21.3021 22.7344 21.3612 22.823 21.3858C22.887 21.4006 22.9461 21.4006 23.0002 21.4006C23.0347 21.4006 23.0544 21.4055 23.0544 21.4351C23.0544 21.4695 23.015 21.4745 22.8624 21.4745C22.7098 21.4745 22.4045 21.4745 22.0698 21.4646C21.9959 21.4597 21.9418 21.4597 21.9418 21.4301C21.9418 21.4055 21.9565 21.3957 22.0009 21.3908C22.0304 21.3809 22.0599 21.3465 22.0402 21.2923L21.7055 20.4308C21.6956 20.4061 21.6858 20.4012 21.6612 20.4012L20.7307 20.4061ZM21.5873 20.1994C21.607 20.1994 21.6119 20.1895 21.607 20.1748L21.2279 19.1458C21.223 19.1311 21.2181 19.1065 21.2082 19.1065C21.1935 19.1065 21.1885 19.1261 21.1836 19.1458L20.7996 20.1698C20.7947 20.1846 20.7996 20.1994 20.8144 20.1994H21.5873Z" fill="#1D1D1B"/>
    <path d="M9.36845 19.4314C9.36845 18.7963 9.36845 18.6781 9.35861 18.5452C9.34876 18.4024 9.31922 18.3384 9.17645 18.304C9.14199 18.2941 9.07307 18.2892 9.01399 18.2892C8.96968 18.2892 8.94507 18.2794 8.94507 18.2498C8.94507 18.2203 8.97461 18.2154 9.03861 18.2154C9.26014 18.2154 9.52599 18.2252 9.6146 18.2252C9.75737 18.2252 10.0724 18.2154 10.2054 18.2154C10.4712 18.2154 10.7469 18.24 10.9734 18.3926C11.0915 18.4714 11.2589 18.688 11.2589 18.9686C11.2589 19.2788 11.1309 19.5643 10.7075 19.904C11.0768 20.3717 11.3672 20.7458 11.6134 21.0068C11.8497 21.248 12.022 21.2775 12.0811 21.2923C12.1254 21.3022 12.1647 21.3022 12.1992 21.3022C12.2337 21.3022 12.2484 21.3169 12.2484 21.3366C12.2484 21.3711 12.2189 21.3809 12.1697 21.3809H11.7709C11.5346 21.3809 11.4312 21.3612 11.3229 21.3022C11.1457 21.2037 10.9832 21.0068 10.7518 20.6868C10.5844 20.4554 10.3924 20.1698 10.3383 20.1108C10.3186 20.0861 10.294 20.0812 10.2644 20.0812L9.90014 20.0714C9.88045 20.0714 9.86568 20.0812 9.86568 20.1058V20.1649C9.86568 20.5538 9.86568 20.8837 9.88537 21.0609C9.90014 21.184 9.92476 21.2726 10.0478 21.2923C10.1118 21.3022 10.2054 21.3071 10.2546 21.3071C10.2891 21.3071 10.3038 21.3219 10.3038 21.3415C10.3038 21.3711 10.2743 21.3859 10.2201 21.3859C9.97399 21.3859 9.66876 21.376 9.60476 21.376C9.52599 21.376 9.26014 21.3859 9.09276 21.3859C9.03861 21.3859 9.00907 21.376 9.00907 21.3415C9.00907 21.3219 9.02384 21.3071 9.07799 21.3071C9.14199 21.3071 9.19122 21.2972 9.23061 21.2923C9.3143 21.2775 9.33399 21.184 9.35368 21.0609C9.37337 20.8837 9.37337 20.5538 9.37337 20.1698L9.36845 19.4314ZM9.86076 19.7612C9.86076 19.8105 9.8706 19.8252 9.90014 19.8351C9.98876 19.8646 10.1118 19.8745 10.2201 19.8745C10.3875 19.8745 10.4417 19.8597 10.5155 19.8055C10.6386 19.712 10.7617 19.52 10.7617 19.1754C10.7617 18.5797 10.3678 18.4074 10.1217 18.4074C10.0183 18.4074 9.93953 18.4123 9.90014 18.4221C9.8706 18.432 9.86076 18.4467 9.86076 18.4812C9.86076 18.4911 9.86076 19.7612 9.86076 19.7612Z" fill="#FFB300"/>
    <path d="M12.0712 19.8006C12.0712 19.0867 12.5438 18.1612 13.7992 18.1612C14.8429 18.1612 15.4928 18.7667 15.4928 19.7267C15.4928 20.6867 14.8232 21.4449 13.7599 21.4449C12.5586 21.44 12.0712 20.539 12.0712 19.8006ZM14.9069 19.8793C14.9069 18.939 14.3654 18.3581 13.6811 18.3581C13.1986 18.3581 12.6522 18.6289 12.6522 19.6677C12.6522 20.539 13.1346 21.2283 13.9371 21.2283C14.2275 21.2283 14.9069 21.0904 14.9069 19.8793Z" fill="#FFB300"/>
    <path d="M16.143 18.2646C16.1528 18.1957 16.1824 18.1563 16.2119 18.1563C16.2464 18.1563 16.271 18.176 16.3252 18.2843L17.4673 20.6129L18.6045 18.2548C18.639 18.1858 18.6587 18.1563 18.6981 18.1563C18.7325 18.1563 18.7621 18.1957 18.7719 18.2843L19.1559 20.8443C19.1953 21.1102 19.2347 21.2283 19.3627 21.2677C19.4858 21.3022 19.5695 21.3071 19.6236 21.3071C19.663 21.3071 19.6925 21.312 19.6925 21.3366C19.6925 21.3711 19.6433 21.3858 19.5842 21.3858C19.4808 21.3858 18.8999 21.376 18.7325 21.3662C18.6341 21.3563 18.6095 21.3465 18.6095 21.3218C18.6095 21.3022 18.6242 21.2874 18.6538 21.2726C18.6784 21.2628 18.6932 21.2086 18.6735 21.0905L18.4224 19.2689H18.4076L17.4968 21.1348C17.3984 21.3317 17.3787 21.3711 17.3442 21.3711C17.3048 21.3711 17.2655 21.2874 17.1965 21.1594C17.0981 20.9674 16.7682 20.3274 16.7141 20.2092C16.6747 20.1206 16.4236 19.6283 16.2808 19.3132H16.2661L16.0495 20.9428C16.0396 21.0166 16.0347 21.0757 16.0347 21.1397C16.0347 21.2185 16.0888 21.2578 16.1578 21.2726C16.2316 21.2874 16.2907 21.2923 16.335 21.2923C16.3695 21.2923 16.399 21.3022 16.399 21.3218C16.399 21.3612 16.3596 21.3662 16.3005 21.3662C16.1233 21.3662 15.9362 21.3514 15.8624 21.3514C15.7836 21.3514 15.5818 21.3662 15.4488 21.3662C15.4095 21.3662 15.375 21.3563 15.375 21.3218C15.375 21.3022 15.3996 21.2923 15.4439 21.2923C15.4784 21.2923 15.5079 21.2923 15.5719 21.2775C15.6901 21.2529 15.7245 21.0905 15.7442 20.9477L16.143 18.2646Z" fill="#FFB300"/>
    <path d="M20.7307 20.3126C20.7061 20.3126 20.7012 20.3224 20.6913 20.347L20.4649 20.923C20.4255 21.0264 20.4009 21.1298 20.4009 21.179C20.4009 21.2529 20.4402 21.307 20.5682 21.307H20.6322C20.6815 21.307 20.6962 21.3169 20.6962 21.3415C20.6962 21.376 20.6716 21.3809 20.6273 21.3809C20.4944 21.3809 20.3122 21.371 20.1842 21.371C20.1399 21.371 19.9085 21.3809 19.6919 21.3809C19.6378 21.3809 19.6132 21.371 19.6132 21.3415C19.6132 21.3169 19.6279 21.307 19.6624 21.307C19.7018 21.307 19.7609 21.3021 19.7904 21.2972C19.9824 21.2726 20.0612 21.1298 20.1449 20.923L21.1935 18.3286C21.2427 18.2055 21.2673 18.1612 21.3116 18.1612C21.351 18.1612 21.3756 18.2006 21.415 18.2941C21.5135 18.5255 22.183 20.1993 22.4538 20.8344C22.6113 21.2135 22.7344 21.2726 22.823 21.2923C22.887 21.307 22.9461 21.307 23.0002 21.307C23.0347 21.307 23.0544 21.312 23.0544 21.3415C23.0544 21.376 23.015 21.3809 22.8624 21.3809C22.7098 21.3809 22.4045 21.3809 22.0698 21.371C21.9959 21.3661 21.9418 21.3661 21.9418 21.3366C21.9418 21.312 21.9565 21.3021 22.0009 21.2972C22.0304 21.2873 22.0599 21.2529 22.0402 21.1987L21.7055 20.3372C21.6956 20.3175 21.6858 20.3077 21.6612 20.3077L20.7307 20.3126ZM21.5873 20.1058C21.607 20.1058 21.6119 20.091 21.607 20.0812L21.2279 19.0523C21.223 19.0375 21.2181 19.0178 21.2082 19.0178C21.1935 19.0178 21.1885 19.0375 21.1836 19.0523L20.7996 20.0812C20.7947 20.096 20.7996 20.1107 20.8144 20.1107L21.5873 20.1058Z" fill="#FFB300"/>
    <path d="M6.47827 16.0099H25.5207" stroke="black" stroke-width="0.418" stroke-miterlimit="10" stroke-linecap="round"/>
    <path d="M23.7388 14.3705C23.6896 14.3065 23.6305 14.2326 23.5665 14.1637C23.2957 13.8388 22.7 13.0314 22.7 13.0314C22.7 10.4173 22.2323 9.92988 21.7499 9.52126C21.3265 9.16188 20.6471 8.9748 19.9234 8.86157C19.7265 8.83203 19.5099 8.81726 19.2588 8.81726C19.0176 8.81726 18.7714 8.83203 18.5351 8.84188C18.3382 8.85172 14.9314 8.99449 13.8385 8.81234C13.361 8.73357 12.7013 8.82219 12.3074 8.87142C12.1253 8.89111 11.1456 9.04865 11.0274 8.86157C11.0028 8.82711 11.0077 8.74834 11.0176 8.65972C11.0323 8.52188 11.0865 8.35449 10.9782 8.2068C10.8305 8.00003 10.668 7.78342 10.5794 7.78342C10.5499 7.78342 10.3086 7.98034 10.2496 8.04434C10.1511 8.1428 10.1216 8.31019 10.1216 8.49726C10.1265 8.61542 10.1166 8.5908 10.1068 8.60065C10.092 8.61542 9.4668 8.61542 9.30926 8.62526C9.30926 8.5908 9.30434 8.42834 9.19603 8.27572C9.12711 8.17726 9.06803 7.84742 9.06803 7.84742C9.06803 7.84742 8.84157 8.24126 8.7628 8.34465C8.6791 8.45788 8.59049 8.58096 8.53633 8.7188C8.51664 8.77296 8.51172 8.83695 8.5068 8.89603C8.5068 8.94034 8.49695 9.03388 8.48218 9.04865C8.36403 9.13726 8.2951 9.25542 8.28526 9.40803C8.28526 9.45234 8.2951 9.51142 8.30987 9.58034C8.31972 9.62465 8.33449 9.69357 8.33449 9.72803C8.32464 9.73788 8.30987 9.7428 8.30003 9.75265C8.19172 9.82157 8.04403 9.91511 8.05387 10.0874C8.06864 10.3434 8.12772 10.4419 8.20649 10.5797C8.2311 10.6191 8.2508 10.6585 8.28033 10.7077C8.3148 10.7766 8.32957 10.8751 8.34926 10.9686C8.36895 11.1016 8.24587 11.2493 8.32957 11.328C8.4428 11.4363 8.72834 11.4413 8.85141 11.4413C8.88587 11.4413 9.01387 11.4363 9.04834 11.4363C9.09757 11.4363 9.13695 11.4413 9.16649 11.4462C9.40772 11.4954 9.64895 11.5102 9.88034 11.5299C10.2003 11.5545 10.5006 11.5791 10.8059 11.6677C11.3671 11.8302 11.9185 12.0616 12.4945 12.3717C12.524 12.3865 12.5536 12.4013 12.5831 12.416C12.7948 12.5243 12.844 12.5096 12.9425 12.805C13.041 13.1003 12.8588 15.3945 12.8194 15.6308C12.7554 16.0148 12.6323 16.2462 12.4354 16.32C12.1696 16.4185 12.0613 16.6253 11.953 16.8271C11.9185 16.8911 11.9234 16.9699 11.884 17.0388C11.884 17.0388 11.7954 17.1323 11.825 17.157C11.8545 17.1816 12.1253 17.1176 12.1253 17.1176C12.2188 17.1225 12.1203 17.1717 12.209 17.1717C12.4354 17.1717 12.7111 17.1717 12.9917 17.0093C13.1099 17.0093 13.0311 17.157 13.1394 17.1373C13.4742 17.0782 13.5037 16.8173 13.5431 16.5711C13.612 16.1576 13.6022 16.0837 13.6465 16.0493C13.6908 16.0099 13.8385 16.0739 13.8828 16.0296C13.9123 15.9951 13.8779 15.6948 13.8976 15.424C13.9222 15.0351 14.0305 14.5773 14.1437 14.2031L14.1486 14.1834C14.1733 14.0997 14.2126 14.0013 14.252 13.893C14.3603 13.6074 14.4933 13.2579 14.4785 12.9773C14.5966 12.997 14.6163 13.0068 14.6853 13.1003C14.6951 13.1151 14.7148 13.1446 14.7345 13.1742C14.8674 13.3908 14.9314 13.4499 15.02 13.4499C15.0299 13.4499 15.0397 13.4499 15.0447 13.445C15.1874 13.4105 15.2613 13.2874 15.345 13.1299C15.4237 12.9773 15.5074 12.8148 15.6403 12.7853C15.6453 12.7853 15.6502 12.7803 15.66 12.7803C15.7683 12.7803 15.9603 12.8788 16.0687 13.0462C16.3099 13.4154 16.5117 13.1594 16.5314 13.125C16.561 13.0806 16.753 12.7656 16.7973 12.6917C16.8563 12.6031 16.8908 12.5933 16.9056 12.5933H16.9105C17.0287 12.613 17.5357 13.2234 17.7179 13.1791C17.8951 13.1594 18.0871 12.4899 18.1954 12.4899C18.2003 12.4899 18.2053 12.4899 18.2102 12.4899C18.2348 12.5096 18.2939 12.6031 18.3382 12.6622C18.4711 12.869 18.5056 13.0068 18.609 13.0068C18.6434 13.0068 18.7025 12.9773 18.737 12.8886C18.7468 12.864 18.7862 12.7656 18.796 12.7508C18.801 12.7606 18.8945 13.061 19.1111 12.7951C19.1111 12.7902 19.1062 12.7853 19.1062 12.7853C19.1062 12.7902 19.1062 12.7902 19.1062 12.7902V12.7853C19.1062 12.7853 19.1062 12.7853 19.1062 12.7803V12.7853C19.1357 12.7163 19.5443 13.12 19.7363 13.2776C19.9136 13.44 20.0613 13.5828 20.076 13.5926C20.4945 13.9668 21.0163 14.4345 21.1197 14.9366C21.1788 15.2271 21.164 15.5668 21.0803 15.8819C21.0607 15.9508 21.0459 15.9902 21.0311 16C21.0163 16.0099 20.9671 16.0148 20.913 16.0148C20.8883 16.0148 20.8588 16.0148 20.8243 16.0197C20.6816 16.0296 20.5831 16.1822 20.4945 16.3151C20.4551 16.3791 20.4059 16.4283 20.3763 16.4776C20.3517 16.5219 20.3911 16.6006 20.4207 16.6154C20.4453 16.6302 20.7062 16.6942 20.785 16.6942C20.8096 16.6942 20.8293 16.6942 20.849 16.6893C20.9031 16.709 20.972 16.7237 21.0459 16.7237C21.2723 16.7237 21.553 16.6302 21.6317 16.4726C21.7696 16.2068 21.8582 15.9163 21.9517 15.6357C21.9616 15.6062 21.9714 15.5717 21.9813 15.5422C22.001 15.4782 22.0305 15.4142 22.0551 15.3403C22.1536 15.0843 22.321 14.8086 22.2471 14.5576C22.2077 14.4246 22.0748 14.2966 21.9862 14.1785C21.9123 14.0751 21.6219 13.7059 21.5382 13.573C21.804 13.8339 22.5474 14.213 22.7345 14.6659C22.8034 14.8234 22.7345 15.4831 22.7197 15.6603C22.7148 15.744 22.7099 15.8277 22.705 15.9163C22.6951 16.1871 22.6163 16.2363 22.3456 16.261C22.1093 16.2856 22.001 16.6302 21.9468 16.8173C21.9419 16.8271 21.9419 16.837 21.937 16.8468L21.9074 16.9354L21.996 16.9502C22.0305 16.9551 22.0699 16.965 22.1142 16.9699C22.2816 16.9994 22.5671 17.1077 22.769 17.1077C23.0053 17.1077 23.1727 17.0486 23.276 16.9354C23.4139 16.7877 23.4631 16.5219 23.5124 16.2856C23.5271 16.197 23.6256 15.8819 23.66 15.7686C23.8914 15.0597 24.113 14.784 23.7388 14.3705ZM8.6151 10.9194C8.53141 10.9686 8.50187 10.8259 8.50187 10.8259C8.47726 10.7668 8.47726 10.7077 8.51172 10.688C8.57572 10.7274 8.64957 10.7274 8.66926 10.7619C8.69387 10.8013 8.65941 10.8948 8.6151 10.9194Z" fill="black"/>
    <path d="M22.6355 16.448C22.6109 16.4973 22.5174 16.5071 22.4879 16.517C22.4239 16.5465 22.3599 16.5859 22.3648 16.6302C22.3648 16.6499 22.3549 16.8665 22.3648 16.8862C22.3796 16.9108 22.4682 16.9403 22.4879 16.9108C22.5026 16.8911 22.4879 16.7385 22.5026 16.6302C22.5076 16.6154 22.5174 16.5514 22.5469 16.5366C22.5519 16.5416 22.6602 16.4923 22.6355 16.448Z" fill="#C9CACC"/>
    <path d="M15.0146 12.6326C15.0934 12.6228 15.2066 12.6031 15.246 12.6326C15.2854 12.6622 15.3395 12.7606 15.3395 12.8246C15.3346 12.8837 15.1377 13.2086 15.1229 13.2234C15.1081 13.2382 15.0884 13.2825 15.054 13.2382C15.0195 13.1889 14.9555 12.6966 14.9555 12.6966C14.9555 12.6966 14.9457 12.6425 15.0146 12.6326Z" fill="#C9CACC"/>
    <path d="M23.6502 14.5379C23.5419 14.3803 23.2662 14.0997 23.1579 13.9668C23.0102 13.7896 22.3456 13.0068 22.3456 13.0068C22.3456 13.0068 22.1536 11.8252 22.0699 11.5594C22.0206 11.3871 21.8729 10.1415 20.908 9.46709C20.9622 9.37847 21.5825 9.87078 21.8089 10.2499C22.2176 10.944 22.3948 12.7459 22.3948 12.7459C22.3948 12.7459 22.6557 9.98893 21.1936 9.40309C20.1449 8.96493 19.6231 9.03385 19.6231 9.03385C19.6231 9.03385 18.8994 9.46709 19.3376 10.2991C19.4212 10.4615 20.3763 11.9237 20.4354 12.0369C20.9769 13.056 22.705 14.2376 23.02 14.5625C23.0348 14.5822 23.3351 14.7742 23.3548 14.9908C23.3597 15.0302 22.9511 14.7594 22.956 14.8086C23.0102 15.3206 22.9511 16.3003 22.9413 16.4086C22.9314 16.5366 22.9265 16.5563 22.8477 16.5859C22.769 16.6154 22.6853 16.5366 22.641 16.6745C22.5868 16.8222 22.6065 16.9305 22.7443 16.9305C22.8822 16.9305 23.089 17.0043 23.2219 16.5022C23.3548 15.9951 23.6403 15.0893 23.729 14.7594C23.7536 14.6757 23.6896 14.592 23.6502 14.5379Z" fill="#C9CACC"/>
    <path d="M9.06307 8.30035C9.06307 8.30035 9.1763 8.64005 9.1763 8.73359C9.1763 8.82713 9.14676 8.83698 9.14676 8.83698L8.80707 8.98468C8.80707 8.98468 8.88091 8.90098 8.9203 8.79267C8.95476 8.67944 9.06307 8.40374 9.06307 8.30035Z" fill="#C9CACC"/>
    <path d="M13.1242 16.7976C13.1193 16.8025 13.1094 16.8025 13.1045 16.7976L13.0848 16.7681C13.0848 16.7631 13.0848 16.7582 13.0947 16.7484L13.1094 16.7385C13.1144 16.7336 13.1242 16.7336 13.1291 16.7385L13.1488 16.7681C13.1537 16.773 13.1488 16.7779 13.139 16.7878L13.1242 16.7976Z" fill="#C9CACC"/>
    <path d="M20.9818 16.256C20.9818 16.256 20.9375 16.2412 20.9178 16.2708C20.8834 16.3151 20.8686 16.4775 20.8686 16.4775C20.8686 16.4775 20.908 16.5267 20.9818 16.4972C21.0557 16.4677 21.2034 16.3594 21.1541 16.3249C21.1098 16.2905 20.9818 16.256 20.9818 16.256Z" fill="#C9CACC"/>
    <path d="M20.8533 16.1773C20.8533 16.1773 20.7893 16.1773 20.7597 16.2117C20.7302 16.2462 20.6711 16.3446 20.676 16.384C20.6809 16.4234 20.74 16.4874 20.7646 16.448C20.7893 16.4037 20.9271 16.1723 20.8533 16.1773Z" fill="#C9CACC"/>
    <path d="M8.36379 10.0332C8.28502 10.1514 8.50656 10.2597 8.56563 10.1957C8.60502 10.0332 8.43763 9.97415 8.36379 10.0332Z" fill="#C9CACC"/>
    <path d="M10.141 10.2449C10.0278 10.112 9.94905 9.89047 10.0229 9.85109C10.0967 9.81171 10.1657 9.86586 10.21 9.89047C10.2789 9.92494 10.3084 9.90032 10.3035 9.81171C10.2986 9.74278 10.2937 9.67878 10.2838 9.61478C10.2592 9.42771 10.1607 9.22094 10.0869 9.13725C9.95889 8.9994 9.58967 8.83694 9.35829 8.99448C9.29429 9.03879 9.24014 9.11263 9.20075 9.20125C9.18598 9.23078 9.23029 9.27509 9.21552 9.31448C9.13183 9.52125 9.00383 9.75755 8.85122 9.91017C8.8463 9.92001 9.36321 9.9594 10.0918 10.496C10.1558 10.5403 10.0327 10.8012 9.99336 10.7914C9.96874 10.7865 10.0672 10.5699 9.99336 10.5305C9.65859 10.3434 9.46167 10.3188 9.2106 10.2302C9.15152 10.2105 8.9743 10.3188 8.92999 10.2794C8.86599 10.1957 8.67399 10.1022 8.6543 10.0972C8.65922 10.1022 8.68384 10.1169 8.69369 10.2006C8.7183 10.4074 8.33431 10.2006 8.65922 10.5305C8.75276 10.624 8.84137 10.6929 8.90537 10.6634C9.00876 10.6634 8.96445 10.6782 8.9743 10.7028L9.02845 10.8357C9.03829 10.8603 9.05306 10.8603 9.05799 10.8308L9.0826 10.6929C9.08752 10.6683 9.11214 10.6437 9.14168 10.6486C9.14168 10.6486 9.63398 10.6585 9.73736 10.6683C9.83582 10.6782 9.84567 10.7175 9.84567 10.7175C9.85059 10.7422 9.88997 10.8012 9.80628 10.8702C9.74721 10.9194 9.59952 10.816 9.48136 10.9095C9.36321 11.0031 9.13183 11.0474 9.13183 11.0474C9.10229 11.0523 9.07276 11.0375 9.06291 11.0129L9.00383 10.88C8.99399 10.8554 8.98414 10.8554 8.97922 10.8849L8.96445 11.0572C8.95953 11.0819 8.9546 11.1065 8.94968 11.1065C8.93983 11.1065 8.92507 11.0868 8.91522 11.0622L8.9103 11.0523C8.90045 11.0277 8.87584 11.0228 8.85614 11.0425L8.82661 11.0769C8.80691 11.0966 8.7823 11.0966 8.76753 11.072L8.75768 11.0523C8.74291 11.0277 8.72322 11.0277 8.70845 11.0523L8.68876 11.0819C8.67399 11.1065 8.6543 11.1015 8.64938 11.0769L8.64446 11.0572C8.63461 11.0326 8.61984 11.0326 8.60999 11.0523C8.60015 11.072 8.5903 11.072 8.58046 11.0622C8.56569 11.0769 8.55092 11.0917 8.546 11.0966C8.53123 11.1114 8.49677 11.1409 8.49677 11.1705C8.49677 11.2 8.53123 11.2148 8.70353 11.2492C8.87584 11.2837 9.66844 10.9588 9.91951 11.0129C10.21 11.072 10.3183 10.8357 10.338 10.5255C10.338 10.5157 10.333 10.5009 10.333 10.4763C10.274 10.3975 10.2001 10.3139 10.141 10.2449Z" fill="#C9CACC"/>
    <path d="M9.36359 9.31939C9.36359 9.31939 9.46205 9.14708 9.58512 9.11262C9.67374 9.08801 9.76728 9.13724 9.91004 9.23078C10.0528 9.32432 10.1217 9.47201 10.2596 9.43263C10.3088 9.41786 10.1562 9.59017 10.0184 9.54094C9.98389 9.53109 9.78205 9.19139 9.59005 9.19632C9.59005 9.19632 9.46205 9.22093 9.36359 9.31939Z" fill="black"/>
    <path d="M9.7229 9.15698C9.56044 9.11267 9.46198 9.22097 9.46198 9.22097C9.50628 9.11267 9.70321 9.18159 9.78691 9.21605C9.83614 9.23574 9.90014 9.34404 9.94445 9.43266C9.89029 9.3785 9.82137 9.32435 9.75737 9.31943C9.63429 9.30959 9.61952 9.47204 9.61952 9.47204L9.55552 9.5508C9.55552 9.5508 9.56536 9.57049 9.6589 9.57049C9.75244 9.57049 10.0872 9.56557 10.1315 9.52619C10.1808 9.48681 9.90506 9.21113 9.7229 9.15698ZM9.75737 9.51142C9.72783 9.51142 9.70321 9.48188 9.70321 9.4425C9.70321 9.40804 9.72783 9.37358 9.75737 9.37358C9.78691 9.37358 9.82629 9.40312 9.82629 9.4425C9.82629 9.48188 9.78691 9.51142 9.75737 9.51142Z" fill="black"/>
    <path d="M12.2875 16.64C12.2875 16.64 12.1595 16.896 12.1595 16.9206C12.1546 16.9453 12.1644 16.9649 12.1792 16.9649C12.1939 16.9649 12.2382 16.9797 12.2727 16.9551C12.3022 16.9305 12.4253 16.6794 12.4401 16.645C12.4401 16.6351 12.3367 16.581 12.2875 16.64Z" fill="#C9CACC"/>
    <path d="M22.1333 14.7693C22.1973 14.5428 21.9856 14.5182 21.9118 14.8136C21.8872 14.9121 21.5967 15.9754 21.5671 16.2511C21.5622 16.2659 21.577 16.2807 21.5868 16.261C21.5918 16.3594 22.1038 14.8727 22.1333 14.7693Z" fill="#C9CACC"/>
    <path d="M20.4793 11.2197C20.4793 11.2246 20.4645 11.2296 20.4498 11.2247L20.3464 11.205C20.3316 11.2 20.3218 11.1951 20.3218 11.1902L20.3267 11.1754C20.3267 11.1705 20.3415 11.1656 20.3562 11.1705L20.4596 11.1902C20.4744 11.1951 20.4842 11.2 20.4842 11.205L20.4793 11.2197Z" fill="#C9CACC"/>
    <path d="M20.4399 11.264C20.4399 11.269 20.43 11.2739 20.4202 11.2739L20.3512 11.2591C20.3414 11.2591 20.3315 11.2493 20.3365 11.2443V11.2296C20.3365 11.2247 20.3463 11.2197 20.3561 11.2197L20.4251 11.2296C20.4349 11.2296 20.4399 11.2394 20.4399 11.2443V11.264Z" fill="#C9CACC"/>
    <path d="M12.6915 9.00933C12.1795 9.10779 11.4608 9.1521 11.0718 9.09794C10.7617 9.05364 10.7518 8.86656 10.806 8.69918C10.5205 8.97979 10.3678 8.87148 10.3629 8.83702C10.3531 8.79271 10.4663 8.83702 10.5451 8.76318C10.6238 8.68933 10.6681 8.42348 10.6041 8.29548C10.5451 8.16748 10.6091 8.1921 10.6091 8.1921C10.6091 8.1921 10.7666 8.20687 10.8405 8.39887C10.8848 8.20687 10.6238 7.97056 10.5352 8.02471C10.4515 8.07887 10.2792 8.22164 10.3038 8.42841C10.3334 8.68441 10.3137 8.81241 10.2349 8.80748C9.67369 8.78287 9.04845 8.70902 8.69891 9.06841C8.69891 9.06841 9.1223 8.79271 9.44722 8.82225C9.77215 8.85179 10.4318 8.91579 10.4761 9.69364C10.4761 9.69364 10.4712 9.87087 10.486 10.0727C10.4909 10.181 10.3925 10.1121 10.3925 10.1613C10.3974 10.3779 10.55 10.3435 10.5352 10.5306C10.4811 11.2936 10.1315 11.2789 10.1315 11.2789C10.1315 11.2789 10.5598 11.3379 10.7666 10.6241C10.7666 11.0327 10.7223 11.1361 10.5549 11.2986C10.8798 11.3183 11.1358 11.013 11.1457 10.9638C11.1949 11.0426 11.2885 11.2936 11.5297 11.397C11.4115 11.2001 11.4411 10.9589 11.4657 10.7472C11.5395 11.2247 11.6626 11.4019 11.9088 11.5053C11.8103 11.4069 11.6085 11.1903 11.6675 10.8013C11.7118 11.1312 12.1008 11.4266 12.1008 11.4266C12.1008 11.4266 11.9777 11.2296 11.9432 10.8752C12.1106 11.2346 12.2878 11.2641 12.2878 11.2641C12.2878 11.2641 12.0122 10.9736 11.9678 10.5995C11.9629 10.5946 12.1598 10.8555 12.3223 10.8555C12.1992 10.7078 12.0023 10.4961 11.9777 10.2253C12.1008 10.3878 12.1894 10.4912 12.3371 10.5059C12.214 10.3681 12.1155 10.1466 12.0811 9.87579C12.2189 10.0481 12.1943 10.1072 12.4552 10.1761C12.3568 10.0776 12.2878 9.80687 12.3371 9.67887C12.3814 9.76748 12.5537 9.86102 12.7605 9.89056C12.6965 9.84625 12.5882 9.59025 12.6029 9.49179C12.6965 9.5361 12.8983 9.60502 13.0559 9.58533C12.982 9.54102 12.9278 9.31456 12.9525 9.26041C12.9968 9.28994 13.2971 9.28502 13.3611 9.26041C13.2626 9.20133 13.1789 9.10779 13.1986 9.11764C13.2725 9.14225 13.3906 9.08318 13.5482 9.05856C13.7155 9.03394 13.7451 9.02902 13.8485 9.03394C13.7352 8.96994 13.0952 8.91087 12.6915 9.00933Z" fill="#C9CACC"/>
    <path d="M17.8553 12.2043C17.8553 12.2043 17.5254 12.1846 17.5008 12.2831C17.4762 12.3865 17.6485 12.9182 17.678 12.9822C17.7174 13.0807 17.8306 12.8493 17.8306 12.8493C17.8651 12.7853 17.998 12.4702 17.998 12.4308C17.998 12.3766 18.0029 12.2043 17.8553 12.2043Z" fill="#C9CACC"/>
    <path d="M19.4305 12.8443C19.4108 12.8542 19.3912 12.8591 19.3715 12.864C19.3862 12.8689 19.401 12.8739 19.4158 12.8739C19.4207 12.864 19.4256 12.8542 19.4305 12.8443Z" fill="#C9CACC"/>
    <path d="M16.5708 12.2536C16.5708 12.2536 16.2459 12.2339 16.2164 12.3323C16.1918 12.4308 16.3296 12.8985 16.3542 12.9674C16.3887 13.0659 16.4576 12.9182 16.4576 12.9182C16.4921 12.8542 16.753 12.5243 16.753 12.48C16.753 12.4259 16.7185 12.2536 16.5708 12.2536Z" fill="#C9CACC"/>
    <path d="M18.8697 9.01914C18.7663 9.02406 17.9146 9.12252 17.3436 9.12252C16.8906 9.12252 16.4082 9.10283 16.1522 9.11268C16.1325 9.10775 16.098 9.11268 16.0685 9.1176C15.6845 9.10283 14.4636 9.08314 14.4636 9.08314C14.37 9.06345 13.1343 9.38344 12.9522 10.7668C12.839 11.6185 12.8931 11.8893 13.09 12.293C13.2033 12.5342 13.4347 12.9773 13.4248 13.3219C13.4199 13.4647 13.1639 12.7164 13.1688 12.8C13.2082 13.6714 13.0556 15.6407 12.967 16.0542C12.8636 16.5514 12.7651 16.3003 12.647 16.5071C12.6273 16.5416 12.3762 17.0043 12.3811 17.0093C12.386 17.0142 12.5091 16.9945 12.6371 16.9846C12.7897 16.9797 12.9128 16.5711 13.0162 16.5711C13.031 16.5711 12.903 16.901 12.9227 16.896C13.031 16.8714 13.2033 16.8222 13.1934 16.9108C13.2328 16.9206 13.2623 16.901 13.287 16.8763C13.3165 16.837 13.4593 16.2019 13.5479 15.872C13.5676 15.8179 13.7103 15.8474 13.7497 15.8622C13.8285 15.7047 13.7054 15.1877 13.927 14.464C14.1485 13.7551 14.3799 13.1397 14.2765 12.9576C14.2666 12.9379 13.8876 13.4351 13.8777 13.4154C13.8531 13.3564 15.1036 11.2591 14.8623 10.1761C14.8574 10.1367 14.8426 10.0924 14.8426 10.0628C14.8426 10.053 14.9854 10.117 15.1676 10.1613C15.4039 10.2351 15.6057 10.2696 15.6796 10.5404C15.7633 11.0622 16.0045 11.8007 16.4968 11.845C16.2753 11.6382 15.9848 10.5994 16.0242 10.1711C16.162 10.8702 16.5854 11.8794 16.9399 11.8351C16.866 11.7219 16.5756 11.0868 16.5756 10.6881C16.7036 11.0179 17.0039 11.7465 17.2303 11.7514C17.826 11.7613 17.9786 11.4905 18.4168 11.3921C19.4014 11.1705 19.6623 11.5496 19.8149 11.6234C19.6968 11.5053 19.2833 10.7865 19.0076 10.2253C18.7909 9.78221 19.1553 9.33914 19.7805 9.06345C19.8937 9.00929 19.0617 9.01422 18.8697 9.01914Z" fill="#C9CACC"/>
    <path d="M19.293 12.8542C19.293 12.8542 19.2586 12.8247 19.234 12.8197C19.2241 12.8197 19.2192 12.8197 19.2143 12.8197C19.1995 12.8197 19.1946 12.8197 19.1946 12.8197L19.1798 12.8247L19.1847 12.8099C19.1847 12.8 19.1995 12.7853 19.2241 12.7853C19.234 12.7853 19.2438 12.7853 19.2537 12.7902C19.293 12.805 19.3029 12.8444 19.3029 12.8444L19.3127 12.869L19.293 12.8542Z" fill="black"/>
    <path d="M19.0072 12.8C19.0072 12.7902 19.0219 12.7754 19.0465 12.7754C19.0564 12.7754 19.0662 12.7754 19.0761 12.7803C19.081 12.7852 19.0908 12.7902 19.0908 12.7902L19.1007 12.7951L19.0761 12.8148H19.0711C19.0711 12.8148 19.0613 12.8099 19.0564 12.8099C19.0465 12.8099 19.0416 12.8099 19.0367 12.8099C19.0219 12.8099 19.017 12.8099 19.017 12.8099L19.0023 12.8148L19.0072 12.8Z" fill="black"/>
    <path d="M19.0762 12.7853C19.0812 12.7853 19.091 12.7951 19.091 12.7951L19.0762 12.8049C19.0762 12.8049 19.0664 12.8 19.0615 12.8C19.0319 12.7951 19.0172 12.8 19.0172 12.8C19.0172 12.8 19.027 12.7705 19.0762 12.7853Z" fill="black"/>
    <path d="M19.6177 16.5859C19.2682 16.5859 19.2239 16.0197 19.214 15.9163C19.1303 15.9114 19.0368 15.8523 18.9777 15.8031C18.9728 15.8031 18.9679 15.7982 18.963 15.7933C18.963 15.8376 18.9679 15.877 18.9679 15.9213C18.9728 15.9853 18.9827 16.1576 18.9876 16.2019V16.2068C18.9974 16.2708 19.0122 16.4234 18.8645 16.5022C18.8202 16.5268 18.771 16.5366 18.7217 16.5366C18.6774 16.5366 18.638 16.5268 18.6085 16.5219C18.6036 16.5219 18.5987 16.5219 18.5937 16.517H18.5691C18.5297 16.512 18.4805 16.5071 18.4411 16.5022H18.4313C18.3574 16.5022 18.1507 16.517 18.1162 16.517C18.1064 16.517 18.1014 16.517 18.0916 16.517C17.9734 16.517 17.8799 16.4234 17.875 16.4234C17.8159 16.3643 17.811 16.2757 17.8651 16.2019L17.8799 16.1822L17.8996 16.1674C17.9094 16.1576 17.9488 16.133 17.998 16.128C18.0424 16.0985 18.1113 16.0591 18.2097 16.005C18.1211 15.8277 17.7224 15.2222 18.067 15.0302C18.195 14.9613 18.3919 14.8923 18.579 14.848C18.579 14.8382 18.5839 14.8234 18.5888 14.8136C18.5937 14.7988 18.5987 14.7545 18.5888 14.7151C18.5347 14.7446 18.4805 14.7594 18.4362 14.7594C18.4214 14.7594 18.4067 14.7594 18.3919 14.7545C18.2737 14.7299 18.1211 14.5576 18.1014 14.533C18.0768 14.4985 17.9734 14.3163 17.8799 14.1391C17.6288 14.1293 17.6042 14.1194 17.5845 14.1145C17.5599 14.1046 17.5304 14.0948 17.3679 13.9619C17.3137 13.9176 17.2842 13.8536 17.2941 13.7896C17.299 13.7403 17.3334 13.696 17.3777 13.6714C17.3827 13.6714 17.3827 13.6665 17.3876 13.6665C17.4073 13.637 17.4417 13.6074 17.5008 13.5976L17.5156 13.5926H17.5353C17.5747 13.5926 17.6091 13.6074 17.6387 13.6222C17.6387 13.6025 17.6436 13.5828 17.6534 13.5631C17.683 13.504 17.747 13.4696 17.8208 13.4696C17.8602 13.4696 17.9045 13.4794 17.9537 13.504L17.9587 13.509L17.9685 13.5139C17.9833 13.5237 17.9882 13.5237 17.9882 13.5237C18.0177 13.5286 18.0916 13.5533 18.1162 13.5631C18.1605 13.5828 18.19 13.6025 18.2688 13.7403L18.3919 13.8683C18.451 13.7354 18.5199 13.6763 18.5445 13.6517C18.579 13.6222 18.6233 13.6074 18.6725 13.5926C18.6824 13.5877 18.6922 13.5877 18.707 13.5828C18.7267 13.568 18.7464 13.5533 18.771 13.5385C18.771 13.5336 18.7759 13.5237 18.7759 13.5188C18.7562 13.4942 18.7365 13.4597 18.7168 13.4302C18.6676 13.3465 18.6725 13.2677 18.6774 13.2185V13.2037C18.6873 13.0708 18.8497 12.9576 18.8547 12.9576C18.8744 12.9428 18.894 12.933 18.9137 12.928C18.9482 12.8886 19.0073 12.8246 19.0467 12.7853C19.0811 12.7508 19.1254 12.7311 19.1697 12.7163C19.2042 12.6425 19.283 12.608 19.3962 12.608C19.4307 12.608 19.5537 12.6179 19.5931 12.6228C19.6768 12.6376 19.7359 12.6917 19.7654 12.7557C19.8393 12.7803 19.8885 12.8493 19.8983 12.9379L19.923 12.9674C19.9427 12.9871 19.982 13.0363 19.9968 13.1102C20.0411 13.1988 20.0362 13.3022 20.0313 13.3514C20.0313 13.4942 19.9919 13.5779 19.9525 13.6271C19.9476 13.6419 19.9427 13.6566 19.9377 13.6714C20.0756 13.7551 20.115 13.9471 20.1297 14.021C20.1396 14.0653 20.1937 14.2523 20.2233 14.3705C20.2626 14.5428 20.2036 14.7053 20.1937 14.725L20.1839 14.7446L20.174 14.7594C20.1642 14.7742 20.1051 14.853 20.0805 14.8825C20.0362 14.9366 19.987 14.9613 19.9427 14.9711C19.9574 15.0302 19.9722 15.0893 19.982 15.1483C20.0903 15.2862 20.1494 15.4733 20.1494 15.5422C20.1494 15.5865 20.1347 15.6308 20.1199 15.6653C20.1297 15.6997 20.1347 15.7391 20.1297 15.8326C20.179 15.8819 20.2183 15.9557 20.2577 16.0394C20.2626 16.0493 20.2676 16.0542 20.2676 16.0591C20.4743 16.512 19.9525 16.5465 19.923 16.5366C19.8737 16.576 19.6522 16.5859 19.6177 16.5859Z" fill="black"/>
    <path d="M19.5838 12.7558C19.5542 12.7508 19.441 12.741 19.4065 12.741C19.2539 12.741 19.3327 12.8198 19.3327 12.8198C19.3327 12.8198 19.2096 12.8345 19.1604 12.8838C19.1111 12.933 19.0127 13.0413 19.0127 13.0413C19.0127 13.0413 18.9733 13.0561 18.9438 13.0708C18.9191 13.0856 18.8453 13.1398 18.8355 13.1988C18.8256 13.2382 18.8207 13.2875 18.8551 13.3416C18.8847 13.3958 18.9388 13.4647 18.9388 13.4647C18.9388 13.4647 18.9536 13.4893 18.9388 13.5188C18.9241 13.5484 18.9044 13.6272 18.9044 13.6272C18.9044 13.6272 18.8305 13.6616 18.8059 13.6862C18.7813 13.7108 18.6779 13.7256 18.6533 13.7502C18.6287 13.7699 18.5598 13.829 18.5154 13.9915C18.4613 14.0407 18.4318 14.0998 18.4318 14.0998L18.1561 13.8241C18.1561 13.8241 18.1216 13.7108 18.0674 13.6912C18.0478 13.6862 17.9296 13.6419 17.9001 13.6321C17.7967 13.5927 17.7819 13.6222 17.8016 13.6518C17.8213 13.6813 17.8853 13.7108 17.9001 13.7207C17.9148 13.7305 17.9197 13.8388 17.6637 13.7995C17.6539 13.7945 17.5801 13.7552 17.5407 13.7355C17.4274 13.701 17.4471 13.8044 17.4717 13.8241C17.4964 13.8438 17.6096 13.957 17.6342 13.9668C17.6588 13.9767 17.9739 13.9865 17.9739 13.9865C17.9739 13.9865 18.1905 14.3952 18.2201 14.4345C18.2496 14.4739 18.3727 14.5921 18.4219 14.6019C18.4711 14.6118 18.6188 14.5576 18.6878 14.4296L18.7173 14.9613C18.7173 14.9613 18.2201 15.0745 18.1314 15.1484C17.9444 15.2961 18.2742 15.8573 18.3874 16.0099C18.4219 16.0592 18.3973 16.069 18.3973 16.069C18.3973 16.069 18.0478 16.261 18.0478 16.2758C18.0133 16.2659 17.9887 16.2856 17.9887 16.2856C17.9887 16.2856 17.9739 16.3102 17.9837 16.3201C17.9936 16.3299 18.0527 16.3742 18.097 16.3693C18.1413 16.3644 18.3874 16.3496 18.4416 16.3545C18.5007 16.3595 18.5696 16.3644 18.609 16.3693C18.6435 16.3742 18.7222 16.4038 18.7862 16.3693C18.8502 16.3348 18.8404 16.2758 18.8305 16.2167C18.8207 16.1576 18.8059 15.9262 18.8059 15.9262C18.8059 15.9262 18.801 15.6604 18.7961 15.6259C18.865 15.6358 18.9733 15.6604 18.993 15.6456C19.0275 15.6259 19.0619 15.685 19.0619 15.685C19.0619 15.685 19.1751 15.7736 19.2293 15.7638C19.2785 15.7539 19.2884 15.749 19.313 15.6752C19.3327 15.6456 19.3475 15.6555 19.3475 15.7244C19.3475 15.7982 19.313 16.4481 19.6232 16.4333C19.8152 16.4235 19.953 16.3348 19.953 16.3348C19.953 16.3348 20.0072 16.4087 20.081 16.3841C20.2779 16.3152 20.1696 16.1379 20.1549 16.1084C20.1401 16.0788 20.0515 15.8868 19.9924 15.8819C19.9973 15.7982 19.9825 15.6752 19.9678 15.6407C19.9776 15.621 20.0121 15.5521 20.0121 15.5176C20.0121 15.4832 19.9579 15.301 19.8496 15.1878C19.825 15.0155 19.7413 14.7545 19.7413 14.7545C19.7413 14.7545 19.8545 14.7939 19.889 14.7988C19.9235 14.8038 19.953 14.789 19.9727 14.7595C19.9973 14.7299 20.0613 14.6462 20.0613 14.6462C20.0613 14.6462 20.1105 14.5133 20.081 14.3804C20.0515 14.2475 19.9875 14.0308 19.9875 14.0308C19.9875 14.0308 19.9579 13.8192 19.8545 13.7699C19.7512 13.7207 19.7265 13.7256 19.7265 13.7256C19.7265 13.7256 19.6921 13.6813 19.7167 13.6715C19.7413 13.6616 19.7807 13.6321 19.7905 13.6173C19.8004 13.6025 19.8201 13.5287 19.8201 13.5287C19.8201 13.5287 19.8841 13.4992 19.8841 13.3219C19.8841 13.3219 19.9038 13.1988 19.8595 13.1398C19.8595 13.0856 19.8201 13.0512 19.8201 13.0512L19.7512 12.9773C19.7512 12.9773 19.761 12.8838 19.7167 12.8739C19.6724 12.8641 19.6428 12.8542 19.6428 12.8542C19.6428 12.8542 19.6576 12.7656 19.5838 12.7558Z" fill="#C9CACC"/>
    <path d="M19.0225 13.0807C19.057 13.0807 19.0816 13.1348 19.0816 13.1496C19.0816 13.1595 19.0767 13.1595 19.057 13.1545C19.0422 13.1496 19.0274 13.1152 18.993 13.1201C18.9585 13.1201 18.9585 13.1447 18.9437 13.1447C18.9339 13.1447 18.988 13.0856 19.0225 13.0807Z" fill="black"/>
    <path d="M19.2881 12.9921C19.3226 13.0068 19.3374 13.0413 19.3374 13.0413C19.3374 13.0413 19.3029 13.0118 19.2734 13.0068C19.2438 13.0019 19.2291 13.0068 19.2291 13.0068C19.2291 13.0068 19.234 12.9724 19.2881 12.9921Z" fill="black"/>
    <path d="M19.6378 13.2727C19.6329 13.2628 19.628 13.253 19.6181 13.253H19.6132L19.6083 13.2579C19.5935 13.2776 19.5787 13.2825 19.559 13.2825C19.5344 13.2825 19.5196 13.2678 19.5196 13.2678C19.5196 13.2678 19.5147 13.317 19.5689 13.317C19.6083 13.317 19.6378 13.2776 19.6378 13.2776L19.6427 13.2727H19.6378Z" fill="black"/>
    <path d="M19.8001 14.9514L19.7656 14.8037L19.7509 14.7496L19.485 14.2523L19.4752 14.2326C19.4653 14.2228 19.4604 14.2129 19.4358 14.1933C19.4309 14.1883 19.4358 14.1785 19.4407 14.1785C19.5343 14.1883 19.6967 14.144 19.7312 14.1293C19.741 14.144 19.997 14.4443 20.0167 14.4345C20.0364 14.4197 19.7558 14.0505 19.7558 14.0505C19.7558 14.0505 19.7804 13.8979 19.7755 13.8782C19.7607 13.8437 19.6869 13.7846 19.6573 13.7846H19.6524C19.6475 13.7748 19.6426 13.7649 19.6426 13.7649L19.6376 13.76C19.6179 13.7256 19.6032 13.7009 19.5884 13.6813C19.6376 13.7009 19.6918 13.7157 19.6967 13.7157H19.7263L19.7558 13.6763L19.5392 13.6025C19.5195 13.5976 19.4998 13.5533 19.4998 13.5188C19.4998 13.4942 19.6475 13.3465 19.6229 13.3366C19.5638 13.3169 19.4259 13.4646 19.421 13.5089C19.4161 13.5385 19.4358 13.6025 19.4604 13.6271C19.4506 13.6419 19.4456 13.6517 19.4456 13.6665C19.1749 13.6862 19.0813 13.7797 19.0665 13.8289C19.0665 13.8289 19.2832 13.7453 19.357 13.7305C19.3078 13.7797 19.3866 13.8683 19.3866 13.8683C19.3767 13.8634 19.3521 13.8486 19.3226 13.8683C19.2733 13.9077 19.3226 13.9914 19.3324 14.0111C19.3127 14.0111 19.2979 14.016 19.2881 14.0259C19.2635 14.0554 19.3127 14.1194 19.3472 14.1588C19.3619 14.1785 19.2881 14.1736 19.0567 14.0013C19.0616 14.1686 19.3373 14.2671 19.421 14.2671C19.4407 14.2868 19.7903 14.9268 19.8001 14.9514ZM19.3472 14.0702C19.3619 14.0554 19.4062 14.0948 19.4161 14.0849C19.4259 14.0751 19.3275 13.9569 19.357 13.9323C19.3964 13.9077 19.4407 13.9963 19.4604 13.9816C19.4801 13.9668 19.4752 13.9569 19.4703 13.9422C19.4653 13.9373 19.421 13.8536 19.421 13.8536C19.421 13.8486 19.3718 13.7748 19.4013 13.76C19.4358 13.7502 19.4653 13.8043 19.4752 13.8142C19.4752 13.8142 19.5392 13.9225 19.5638 13.9126C19.5884 13.8979 19.5195 13.7354 19.5195 13.7354C19.5146 13.7206 19.485 13.6813 19.4998 13.6665C19.5146 13.6566 19.5293 13.6566 19.5736 13.7108C19.5786 13.7157 19.6869 13.9176 19.7016 13.9077C19.7016 13.9077 19.7016 13.8683 19.6869 13.8339C19.7066 13.8486 19.7509 13.8634 19.7509 13.8929C19.7509 13.9028 19.746 13.9914 19.7312 14.0111C19.6819 14.0702 19.4555 14.1489 19.3816 14.1342C19.3718 14.1391 19.3275 14.0948 19.3472 14.0702Z" fill="black"/>
    <path d="M18.7121 14.9268L18.6727 14.9514L18.6136 14.9859C18.6235 15.0105 18.845 15.552 19.0764 15.7244L19.0813 15.7047C18.781 15.2911 18.7121 14.9268 18.7121 14.9268Z" fill="black"/>
    <path d="M19.5535 15.2074C19.4157 15.2271 19.3221 15.6751 19.3221 15.6751C19.3566 15.6308 19.3566 15.7046 19.3566 15.7046C19.3566 15.7046 19.4649 15.3206 19.5634 15.2813C19.6619 15.2419 19.8046 15.2566 19.8046 15.2566C19.8046 15.2566 19.6914 15.1828 19.5535 15.2074Z" fill="black"/>
    <path d="M18.5008 14.4935C18.5156 14.4837 18.4614 14.0554 18.4614 14.0554L18.4417 14.0751L18.4073 14.0554C18.3925 14.0948 18.4861 14.5083 18.5008 14.4935Z" fill="black"/>
    <path d="M18.6034 14.1539L18.6379 14.5035L18.697 14.469L18.6822 14.213C18.6822 14.213 18.7117 14.2278 18.7216 14.2179C18.7314 14.2081 18.6724 14.1539 18.6724 14.0899C18.6724 14.0456 18.7216 13.9816 18.7117 13.9767C18.7019 13.9718 18.6822 13.9915 18.6822 13.9915C18.6871 13.9471 18.6871 13.9028 18.692 13.8733C18.697 13.8339 18.7511 13.7453 18.7511 13.7453C18.628 13.7896 18.6034 13.9324 18.6034 13.9324L18.5936 14.0407C18.5936 14.0407 18.5837 14.0751 18.5837 14.0998C18.5837 14.1244 18.6034 14.1539 18.6034 14.1539Z" fill="black"/>
    <path d="M20.0021 15.8376C20.0021 15.8376 19.9972 16.261 19.9086 16.3693H19.9578C19.9775 16.3545 20.012 16.2167 20.0268 16.1674C20.0415 16.1084 20.0366 15.877 20.0366 15.877L20.0021 15.8376Z" fill="black"/>
    <path d="M18.4562 15.2567C18.4414 15.3453 18.8057 15.685 18.8057 15.685L18.9042 15.6357C18.9042 15.6407 18.5596 15.3847 18.4562 15.2567Z" fill="black"/>
    <path d="M19.4606 12.9133C19.4655 12.9182 19.4655 12.9477 19.4606 12.9724C19.4606 12.9724 19.4507 13.0167 19.5049 13.0462C19.5443 13.0659 19.564 13.0954 19.5787 13.1151C19.5836 13.12 19.5836 13.125 19.5886 13.1299C19.5984 13.1397 19.6033 13.1496 19.5935 13.1791C19.5886 13.189 19.5836 13.1988 19.5787 13.2037C19.5738 13.2087 19.5689 13.2185 19.5689 13.2284V13.2333C19.5738 13.248 19.5836 13.2776 19.6083 13.2874C19.6132 13.2924 19.628 13.312 19.6132 13.3563L19.6083 13.3711C19.5935 13.4203 19.6083 13.5385 19.6329 13.5336C19.6624 13.5237 19.6575 13.4203 19.6673 13.4105C19.6821 13.3859 19.6969 13.3219 19.6919 13.2924C19.6919 13.2825 19.687 13.2727 19.6772 13.2677C19.6526 13.253 19.6427 13.2382 19.6427 13.2333C19.6427 13.2333 19.6476 13.2284 19.6476 13.2234C19.6526 13.2185 19.6624 13.2087 19.6673 13.1939C19.6772 13.1693 19.6723 13.1397 19.6624 13.1151C19.6526 13.0954 19.6033 13.0314 19.5689 13.0216C19.5443 13.0117 19.5246 12.997 19.5246 12.9822C19.5246 12.9773 19.5246 12.9674 19.5246 12.9527C19.5295 12.928 19.5295 12.9084 19.5196 12.8936C19.431 12.7705 19.303 12.7853 19.303 12.7853L19.244 12.8444C19.2489 12.8394 19.3523 12.7902 19.4606 12.9133Z" fill="black"/>
    <path d="M18.7564 13.7157C18.7712 13.7256 18.8598 13.7404 19.0173 13.8388C19.0419 13.7994 18.8746 13.7059 18.8007 13.6813C18.7564 13.6813 18.7515 13.6911 18.7515 13.696C18.7465 13.701 18.7465 13.7059 18.7564 13.7157Z" fill="black"/>
    <path d="M18.2836 16.1231C18.1458 15.9361 17.8504 15.9262 17.752 16.0247C17.747 16.0198 17.7421 16.0148 17.7372 16.0099C17.6978 15.9754 17.5747 15.9065 17.5157 15.8721C17.427 15.7736 17.3877 15.7539 17.368 15.7441C17.2941 15.6998 17.1513 15.6505 17.0283 15.621C17.0037 15.3601 16.984 15.301 16.9692 15.2714C16.9692 15.2616 16.9987 15.0351 16.9938 14.8874C17.0726 14.9022 17.176 14.917 17.2547 14.917C17.299 14.917 17.3384 14.9121 17.368 14.9022C17.4467 14.8825 17.5797 14.8333 17.6338 14.7496L17.6486 14.7299L17.6535 14.7102C17.6584 14.6905 17.6929 14.5231 17.5944 14.3607C17.5255 14.2524 17.3286 14.0456 17.2203 13.9422C17.2252 13.8831 17.2301 13.824 17.2301 13.8191C17.235 13.7699 17.2203 13.7207 17.1612 13.6616C17.1464 13.6419 17.0135 13.4942 16.9741 13.4745C16.9397 13.4548 16.8806 13.4351 16.8363 13.4351C16.8215 13.4351 16.8018 13.44 16.787 13.44C16.659 13.4696 16.6738 13.6616 16.6787 13.6813C16.664 13.6714 16.6443 13.6616 16.6295 13.6567C16.5852 13.6074 16.5212 13.5779 16.4572 13.568C16.4227 13.5434 16.3784 13.5188 16.3144 13.5188C16.3095 13.5188 16.3046 13.5188 16.2997 13.5188C16.216 13.5237 16.216 13.5336 16.1766 13.5631C16.1175 13.5779 16.0584 13.6124 16.019 13.6665C15.9846 13.6862 15.9403 13.7207 15.9058 13.7847C15.8664 13.8142 15.827 13.8634 15.7926 13.952L15.7827 13.9816C15.7532 14.0604 15.7187 14.144 15.7434 14.2327C15.7434 14.2327 15.7434 14.2376 15.7483 14.2425C15.6794 14.2622 15.576 14.3016 15.5218 14.4099C15.4972 14.4591 15.4726 14.5231 15.448 14.5822C15.4184 14.5822 15.0591 14.6265 15.0689 14.7988C15.0689 14.853 15.0984 14.9071 15.1477 14.9367C15.1132 14.9957 15.1132 15.0548 15.1427 15.1041C15.1674 15.1484 15.2018 15.1828 15.2461 15.1976C15.2609 15.2419 15.2806 15.2862 15.3101 15.3256C15.3446 15.3699 15.384 15.4044 15.4184 15.429C15.3495 15.4487 15.2806 15.4831 15.2117 15.5324C15.1132 15.6013 14.9655 15.749 15.0935 15.9754C15.1132 16.0099 15.1772 16.0788 15.4923 16.389C15.4824 16.4038 15.2363 16.8567 15.64 16.8764C15.7335 17.0339 16.0486 16.8075 16.0584 16.8025C16.083 16.8075 16.5064 16.8075 16.3932 16.4825C16.4227 16.4776 16.5704 16.4382 16.5754 16.4382C16.6246 16.4579 16.728 16.5022 16.787 16.5071C16.8166 16.5071 16.8609 16.5121 16.8953 16.5121C16.9397 16.5121 17.043 16.5121 17.0923 16.5022C17.107 16.5022 17.1218 16.4973 17.1366 16.4924C17.1809 16.5613 17.2498 16.6499 17.3384 16.7041C17.4467 16.7631 17.688 16.8715 17.7716 16.9108C17.7864 16.9256 17.9587 17.0684 18.072 17.0684C18.4313 17.0684 18.3181 16.7435 18.328 16.7238C18.3329 16.6253 18.387 16.2561 18.2836 16.1231Z" fill="black"/>
    <path d="M17.0282 14.3951C17.0134 14.3754 16.8756 14.3409 16.8165 14.336C16.7968 14.3163 16.7328 14.2966 16.7328 14.2966C16.7328 14.2966 16.8214 14.2326 16.8165 14.1834C16.7574 13.8732 16.6491 13.8486 16.6491 13.8486C16.6491 13.8486 16.6147 13.7797 16.5261 13.7649C16.5113 13.696 16.3833 13.6862 16.3833 13.6862C16.3833 13.6862 16.3488 13.6419 16.2996 13.6468C16.2602 13.6517 16.2504 13.6665 16.2307 13.6862C16.2307 13.6862 16.1519 13.6714 16.1027 13.7649C16.1027 13.7649 16.0436 13.7797 16.0042 13.8683C16.0042 13.8683 15.9599 13.8782 15.9156 13.9865C15.8861 14.0603 15.8565 14.1342 15.8664 14.1883C15.8811 14.2425 15.9254 14.3016 15.9254 14.3016C15.9254 14.3016 15.8811 14.336 15.8368 14.3508C15.7876 14.3656 15.6744 14.3754 15.6301 14.464C15.5808 14.5576 15.5267 14.7348 15.5267 14.7348C15.5267 14.7348 15.4971 14.72 15.4627 14.7151C15.4331 14.7102 15.2953 14.72 15.2657 14.7397C15.251 14.7495 15.187 14.7594 15.1919 14.7791C15.1968 14.8431 15.3002 14.8234 15.3002 14.8234L15.2756 14.9662C15.2756 14.9662 15.2313 15.0105 15.2411 15.0302C15.251 15.0499 15.2756 15.0597 15.2854 15.0548C15.3051 15.0499 15.3297 15.0154 15.3297 15.0154C15.3297 15.0154 15.3297 15.1532 15.3888 15.232C15.4479 15.3108 15.5217 15.3354 15.5217 15.3354C15.5217 15.3354 15.5661 15.3551 15.6054 15.3354C15.6448 15.3206 15.7236 15.2615 15.7285 15.2369C15.7334 15.2123 15.7531 15.1385 15.7531 15.1385C15.7531 15.1385 15.7876 15.0154 15.8024 15.0105C15.8171 15.0055 15.8319 15.0252 15.8319 15.0252V15.2763C15.8319 15.2763 15.7334 15.4634 15.7334 15.5126C15.6793 15.5175 15.4528 15.4929 15.2608 15.6357C15.0984 15.744 15.1574 15.8474 15.187 15.8966C15.2165 15.9508 15.7039 16.4185 15.7187 16.4382C15.7137 16.4529 15.7285 16.4775 15.7039 16.4775H15.6497C15.6497 16.4775 15.5759 16.448 15.5611 16.4775C15.5316 16.5465 15.6104 16.5415 15.6104 16.5563C15.6104 16.5711 15.5464 16.5465 15.5365 16.5859C15.5217 16.6302 15.5365 16.6745 15.571 16.7139C15.5907 16.7385 15.6399 16.7286 15.6547 16.7335C15.6694 16.7385 15.6744 16.7631 15.7137 16.7729C15.7974 16.8074 15.9894 16.6548 16.0141 16.6548C16.1076 16.6991 16.211 16.6154 16.2208 16.5662C16.2257 16.512 16.2208 16.4874 16.2011 16.448C16.1814 16.4086 16.1224 16.3446 16.1224 16.3446C16.1224 16.3446 16.1962 16.32 16.211 16.3151C16.211 16.3151 16.2208 16.3052 16.2454 16.32C16.2701 16.3299 16.3784 16.3545 16.4079 16.3495C16.4424 16.3495 16.5605 16.2905 16.5802 16.3003C16.5999 16.3102 16.718 16.3594 16.7624 16.3643C16.8067 16.3692 16.979 16.3692 17.0233 16.3594C17.0725 16.3495 17.166 16.32 17.166 16.32C17.166 16.32 17.2448 16.5071 17.3679 16.576C17.491 16.6449 17.811 16.7877 17.811 16.7877C17.811 16.7877 17.939 16.9206 18.0276 16.9206C18.1113 16.9206 18.1359 16.8468 18.1359 16.832C18.1359 16.8123 18.131 16.7237 18.1507 16.6745C18.1654 16.6252 18.1851 16.4775 18.1851 16.4086C18.19 16.3397 18.2147 16.1477 18.0276 16.1182C17.998 16.1132 17.934 16.1034 17.9242 16.1034C17.8996 16.1034 17.9094 16.1674 17.8996 16.1428C17.8897 16.1132 17.8602 16.1083 17.8454 16.1132C17.811 16.128 17.7962 16.1575 17.7962 16.1723C17.7962 16.2019 17.811 16.2757 17.811 16.2757C17.811 16.2757 17.6633 16.1575 17.619 16.1231C17.5796 16.0886 17.3974 15.9852 17.3974 15.9852C17.3974 15.9852 17.299 15.8819 17.2694 15.872C17.2547 15.8523 16.9987 15.7391 16.8608 15.7391C16.8608 15.6357 16.851 15.3945 16.7919 15.2763C16.7919 15.2419 16.8313 14.9022 16.8067 14.8135C16.7968 14.7742 16.8559 14.7446 16.8904 14.7446C16.9199 14.7446 17.2104 14.8136 17.2891 14.7791C17.2891 14.7791 17.4417 14.7397 17.4762 14.6855C17.4762 14.6855 17.5057 14.5576 17.4319 14.4443C17.358 14.3262 17.0971 14.0603 17.0331 14.0062C17.043 13.9372 17.0479 13.8191 17.0479 13.8191C17.0479 13.8191 17.0479 13.7945 17.0331 13.7748C17.0134 13.7551 16.8953 13.6222 16.8805 13.6074C16.8657 13.5926 16.8116 13.5779 16.7919 13.5828C16.7722 13.5877 16.7771 13.6369 16.7919 13.6468C16.8067 13.6616 16.8411 13.6911 16.8411 13.6911L16.8608 13.7452C16.8608 13.7452 16.8362 13.76 16.8313 13.7699C16.8264 13.7797 16.8264 13.8388 16.8362 13.8536C16.846 13.8634 16.8756 13.8732 16.8756 13.8732C16.8756 13.8732 16.851 13.9323 16.8214 13.9323C16.7968 13.9028 16.7624 13.8043 16.7279 13.8339C16.7131 13.8486 16.7033 13.8782 16.7131 13.9028C16.718 13.9274 16.7624 14.0505 16.787 14.0751C16.8116 14.0948 16.8264 14.1096 16.8264 14.1096C16.8264 14.1096 17.0233 14.3508 17.0282 14.3951Z" fill="#C9CACC"/>
    <path d="M15.4682 15.6258C15.7045 15.6012 16.1279 16.3249 16.1427 16.3397C16.1574 16.3544 16.182 16.32 16.182 16.32C16.1624 16.2954 15.7931 15.5225 15.4682 15.6258Z" fill="black"/>
    <path d="M15.433 14.8628C15.4724 14.8579 15.5413 14.7791 15.5314 14.7742C15.5216 14.7693 15.4871 14.8234 15.4231 14.8234C15.4034 14.8234 15.3788 14.8185 15.3542 14.8136H15.3493C15.3394 14.8284 15.2853 14.8382 15.2853 14.8382L15.2902 14.8727L15.3444 14.8579C15.3542 14.853 15.3936 14.8677 15.433 14.8628Z" fill="black"/>
    <path d="M15.7882 14.4246C15.739 14.4295 15.7931 15.0942 15.7931 15.0942L15.8423 15.0252C15.8374 14.9859 15.8276 14.7939 15.8276 14.7643C15.8473 14.7742 16.0737 14.7299 16.1229 14.6412C16.1229 14.6412 15.9654 14.6708 15.926 14.6609C15.8571 14.6511 15.8374 14.6166 15.8325 14.5969C15.8374 14.5969 15.8079 14.4246 15.7882 14.4246Z" fill="black"/>
    <path d="M15.7587 15.4733L15.7144 15.5078C16.0344 15.6801 16.2313 16.3053 16.2362 16.3151V16.3201L16.3396 16.3545C16.3396 16.3545 16.0934 15.621 15.7587 15.4733Z" fill="black"/>
    <path d="M16.5214 16.3151C16.5361 16.3348 16.61 16.3003 16.61 16.3003V16.2954C16.61 16.2905 16.6001 15.9902 16.8463 15.7588C16.8414 15.7538 16.5755 15.808 16.5214 16.3151Z" fill="black"/>
    <path d="M17.8361 16.2609L17.777 16.2215C17.777 16.2215 17.8066 16.3594 17.8016 16.4184C17.8016 16.4283 17.7967 16.4332 17.7918 16.4332C17.7918 16.4381 17.7869 16.4381 17.7869 16.4381C17.7622 16.4628 17.7819 16.5563 17.7819 16.5563C17.7819 16.5563 17.8066 16.5021 17.8361 16.4726C17.8361 16.4677 17.841 16.4677 17.846 16.4628C17.8607 16.448 17.8607 16.4431 17.8558 16.3889C17.8509 16.3692 17.8361 16.2609 17.8361 16.2609Z" fill="black"/>
    <path d="M16.8756 14.4197C16.8658 14.4197 16.8412 14.5822 16.8412 14.6019C16.8412 14.6068 16.8362 14.7102 16.7181 14.6905C16.5999 14.6708 16.5556 14.6511 16.5556 14.6511C16.595 14.7348 16.7919 14.7742 16.8362 14.8382C16.8461 14.853 16.8559 14.9268 16.8559 14.9367H16.8953V14.8037L16.9347 14.7939C16.915 14.5133 16.8855 14.4148 16.8756 14.4197Z" fill="black"/>
    <path d="M16.0879 14.2967C16.019 14.2967 15.9156 14.3065 15.9107 14.3065L15.7925 14.3311L15.827 14.3557C15.827 14.3557 15.9796 14.3262 16.083 14.3262C16.0978 14.3262 16.1125 14.3262 16.1224 14.3311C16.211 14.3508 16.3144 14.3853 16.3144 14.3705C16.3144 14.3557 16.1913 14.3065 16.1322 14.2967C16.1273 14.2967 16.1076 14.2967 16.0879 14.2967Z" fill="black"/>
    <path d="M16.8464 14.341L16.8563 14.3361L16.8612 14.3312L16.8661 14.3262L16.8612 14.3164L16.812 14.2868C16.807 14.2868 16.5855 14.2868 16.5855 14.2868C16.5313 14.2868 16.359 14.3558 16.3689 14.3705C16.3787 14.3853 16.5067 14.3312 16.5904 14.3213C16.6741 14.3115 16.8366 14.341 16.8464 14.341Z" fill="black"/>
    <path d="M16.6642 13.9126C16.7085 13.8634 16.6248 13.8142 16.6199 13.8043C16.6199 13.8043 16.6789 13.8831 16.6297 13.8585C16.5903 13.7945 16.4279 13.7453 16.418 13.7403C16.4082 13.7305 16.4377 13.701 16.5263 13.7699C16.5312 13.76 16.4771 13.7059 16.3983 13.7108C16.3983 13.701 16.3885 13.6862 16.3835 13.6813C16.3786 13.6813 16.3737 13.6813 16.3786 13.6813C16.3835 13.6911 16.3983 13.7059 16.3835 13.7108C16.3688 13.7108 16.3589 13.6862 16.354 13.6813C16.3442 13.6665 16.3097 13.6862 16.3294 13.7059C16.3343 13.7108 16.3442 13.7157 16.354 13.7206C16.3639 13.7256 16.3589 13.7305 16.3491 13.7256C16.3343 13.7206 16.3245 13.7206 16.3048 13.7206C16.2851 13.7206 16.2703 13.7256 16.2555 13.7305C16.2506 13.7305 16.2408 13.7305 16.2506 13.7206C16.2555 13.7157 16.2654 13.7108 16.2752 13.7059C16.3048 13.6862 16.2555 13.6468 16.2457 13.701C16.2408 13.7108 16.2359 13.7157 16.2309 13.7206C16.2063 13.7206 16.2309 13.6862 16.2309 13.6862L16.226 13.6911C16.2162 13.696 16.2112 13.7059 16.2063 13.7157C16.2014 13.7157 16.1078 13.7206 16.098 13.7699C16.1669 13.7206 16.2014 13.7256 16.1965 13.7403C16.1965 13.7502 16.1177 13.7945 16.0832 13.824C16.0586 13.8437 16.0192 13.888 16.0143 13.893C15.9995 13.893 15.9995 13.8683 16.0143 13.8339C15.97 13.8733 15.9798 13.9077 15.9897 13.9274C15.97 13.9766 15.9749 14.0406 15.9995 14.0948C16.0242 14.1391 16.1718 14.2622 16.1817 14.2523C16.1965 14.2425 16.0291 14.0997 16.0192 14.0357C15.9946 13.888 16.1915 13.7551 16.2555 13.7502C16.2605 13.7502 16.2654 13.7699 16.3048 13.765C16.3491 13.765 16.354 13.7502 16.354 13.7502C16.4082 13.7453 16.6494 13.8339 16.6248 14.016C16.6149 14.0751 16.5952 14.1391 16.6051 14.149C16.6149 14.1539 16.6248 14.1243 16.6494 14.0751C16.6888 14.021 16.6888 13.957 16.6642 13.9126Z" fill="black"/>
    <path d="M17.3039 14.72C17.2744 14.6856 17.0135 14.3705 17.0085 14.3705C17.0085 14.3656 16.9987 14.3557 16.9888 14.3557C16.9839 14.3557 16.9495 14.3557 16.9495 14.3656C17.0036 14.4591 17.1267 14.6019 17.2153 14.6757C17.2596 14.7102 17.2891 14.7299 17.3039 14.72Z" fill="black"/>
    <path d="M15.6897 16.4234C15.7045 16.4381 15.7242 16.4726 15.7242 16.4726C15.7242 16.4726 15.7537 16.3938 15.8128 16.3643C15.8669 16.3348 15.9654 16.2905 16.0048 16.2905C15.8522 16.2461 15.6995 16.3643 15.6897 16.4234Z" fill="black"/>
    <path d="M15.6102 15.1435C15.6397 15.1435 15.6496 15.1139 15.6496 15.0844L15.6545 15.0795C15.6545 15.0795 15.684 15.0548 15.7037 14.9958C15.7185 15.0696 15.7529 15.2222 15.7283 15.2616L15.684 15.3059L15.7283 15.2813C15.748 15.2764 15.7726 15.2419 15.7677 15.1878C15.7628 15.1582 15.7185 14.917 15.7185 14.917V14.9072C15.7185 14.8776 15.7086 14.8481 15.6889 14.8235C15.6594 14.7841 15.6151 14.7644 15.5806 14.7595C15.5806 14.7595 15.7037 14.8432 15.6889 14.9318C15.6742 15.0155 15.6594 15.0204 15.6594 15.0253L15.6446 15.0056V15.0548C15.6397 15.0795 15.6348 15.0893 15.62 15.0893C15.5708 15.0893 15.5363 15.1533 15.4871 15.1385C15.4379 15.1238 15.4133 15.0844 15.3837 15.0598C15.3542 15.0401 15.3985 14.9958 15.3985 14.9958C15.3985 14.9958 15.3985 14.981 15.3837 14.9712C15.3689 14.9613 15.3493 15.0155 15.3493 15.0155C15.3493 15.0155 15.3197 15.0893 15.3591 15.1139C15.428 15.1582 15.4083 15.1582 15.4822 15.1828C15.556 15.2124 15.5511 15.1435 15.6102 15.1435Z" fill="black"/>
    <path d="M18.9826 12.8493C18.9284 12.8493 18.8644 12.8148 18.8447 12.7262C18.8398 12.7065 18.7906 12.6031 18.7561 12.5096C18.5297 11.9828 18.5494 12.1748 18.5691 12.0911C18.6084 11.9385 18.8152 11.9237 18.9678 11.9237C19.0023 11.9237 19.0318 11.9237 19.0417 11.9287C19.1155 11.9287 19.1795 11.9582 19.2337 12.0074C19.3174 12.0911 19.337 12.2142 19.337 12.2683C19.337 12.2733 19.2238 12.613 19.1697 12.7163V12.7213C19.0761 12.8443 19.0072 12.8493 18.9826 12.8493Z" fill="black"/>
    <path d="M19.0324 12.037C19.0324 12.037 18.7025 12.0173 18.6779 12.1157C18.6533 12.2142 18.8847 12.5982 18.9585 12.7065C19.0078 12.7803 19.0619 12.6573 19.0619 12.6573C19.0964 12.5933 19.2145 12.3077 19.2145 12.2634C19.2195 12.2044 19.1801 12.0321 19.0324 12.037Z" fill="#C9CACC"/>
    <path d="M9.71783 8.77785C9.71783 8.77785 10.6335 8.83693 10.7911 9.86586C10.8403 9.67386 10.6335 9.04862 10.3726 8.89601C10.3431 8.88124 10.2298 8.82216 10.3135 8.64C10.0083 8.59569 9.71783 8.77785 9.71783 8.77785Z" fill="black"/>
    <path d="M14.0791 9.19146C14.0791 9.19146 14.6354 8.97977 14.7683 9.87575C14.8274 9.54591 14.7536 9.157 14.5271 9.03885C14.3056 8.92562 14.0791 9.19146 14.0791 9.19146Z" fill="black"/>
    <path d="M11.4506 10.1514C11.4506 10.1514 11.5047 10.3385 11.5638 10.3779C11.6229 10.4123 11.7804 10.181 11.7804 10.181C11.7804 10.181 11.6721 10.4616 11.5786 10.5305C11.4998 10.4763 11.4703 10.4025 11.4506 10.1514Z" fill="black"/>
    <path d="M11.6769 10.3631C11.6769 10.3631 11.7655 10.5501 11.8246 10.5846C11.8836 10.6191 12.0215 10.3975 12.0215 10.3975C12.0215 10.3975 11.8984 10.6831 11.8344 10.7372C11.7803 10.6929 11.667 10.624 11.6769 10.3631Z" fill="black"/>
    <path d="M11.1552 10.6831C11.1552 10.6831 11.2635 10.8849 11.3324 10.9095C11.4457 10.9539 11.4506 10.6585 11.4506 10.6585C11.4506 10.6585 11.4998 10.9834 11.3767 11.0917C11.2684 11.0375 11.2143 10.9932 11.1552 10.6831Z" fill="black"/>
    <path d="M11.4313 10.5649C11.4313 10.5649 11.4903 10.7422 11.5445 10.7865C11.5987 10.8308 11.7168 10.5108 11.7168 10.5108C11.7168 10.5108 11.6774 10.8258 11.5888 10.9785C11.5396 10.9145 11.4411 10.816 11.4313 10.5649Z" fill="black"/>
    <path d="M11.6625 10.7077C11.6625 10.7176 11.7708 10.8751 11.8348 10.9047C11.9037 10.9342 11.9431 10.6634 11.9431 10.6634C11.9431 10.6634 11.9628 10.9736 11.884 11.0622C11.8348 11.0277 11.6822 10.949 11.6625 10.7077Z" fill="black"/>
    <path d="M11.7214 9.95947C11.7214 9.95947 11.8248 10.1958 11.8937 10.2352C11.9626 10.2696 12.066 10.0136 12.066 10.0136C12.066 10.0136 12.0118 10.2893 11.8888 10.3779C11.8051 10.3041 11.7805 10.2549 11.7214 9.95947Z" fill="black"/>
    <path d="M11.5438 9.75266C11.5438 9.75266 11.6078 9.92988 11.6668 9.95942C11.7259 9.98895 11.8293 9.75266 11.8293 9.75266C11.8293 9.75266 11.7702 10.0579 11.6718 10.1514C11.6127 10.1022 11.5831 10.0185 11.5438 9.75266Z" fill="black"/>
    <path d="M11.9086 9.68869C11.9086 9.68869 11.9627 9.84131 12.0169 9.87577C12.0661 9.91023 12.1449 9.77238 12.1449 9.77238C12.1449 9.77238 12.1153 9.98407 12.0169 10.0136C11.9775 9.98407 11.9332 9.91515 11.9086 9.68869Z" fill="black"/>
    <path d="M12.1844 9.51144C12.1844 9.51144 12.214 9.65421 12.2583 9.68868C12.2976 9.71821 12.3764 9.58529 12.3764 9.58529C12.3764 9.58529 12.3666 9.74775 12.2533 9.81668C12.214 9.76744 12.1647 9.70344 12.1844 9.51144Z" fill="black"/>
    <path d="M12.4448 9.29977C12.4448 9.29977 12.4744 9.44254 12.5187 9.47208C12.563 9.50162 12.6368 9.3687 12.6368 9.3687C12.6368 9.3687 12.6221 9.56562 12.5187 9.58531C12.5285 9.60993 12.4251 9.47701 12.4448 9.29977Z" fill="black"/>
    <path d="M11.2141 10.3336C11.2141 10.3336 11.3077 10.501 11.352 10.5059C11.3963 10.5108 11.48 10.3336 11.48 10.3336C11.48 10.3336 11.4406 10.5748 11.352 10.6192C11.3126 10.5748 11.2338 10.4961 11.2141 10.3336Z" fill="black"/>
    <path d="M11.7806 9.5311C11.7806 9.5311 11.82 9.67386 11.8643 9.69847C11.9086 9.72801 11.9776 9.59017 11.9776 9.59017C11.9776 9.59017 11.9529 9.79201 11.8791 9.85108C11.8299 9.8117 11.7708 9.73786 11.7806 9.5311Z" fill="black"/>
    <path d="M15.8815 11.7613C15.7289 11.7072 15.5369 11.3872 15.4778 11.2493C15.4188 11.1115 15.3154 10.7029 15.3794 10.5552C15.4138 10.7029 15.5025 11.0179 15.5665 11.1558C15.6698 11.3675 15.7978 11.6432 15.8815 11.7613Z" fill="#C9CACC"/>
    <path d="M19.2138 15.9016C19.1843 15.8425 19.0366 15.7834 18.9726 15.7736C18.9135 15.7637 18.8987 15.7637 18.8938 15.8228C18.8889 15.872 18.884 15.9262 18.8938 15.9754C18.9086 16.064 18.9184 16.0394 18.9972 16.0444C19.0563 16.0493 19.1153 16.0591 19.1744 16.0542C19.2335 16.0493 19.2433 16.0493 19.2433 15.9951C19.2483 15.9557 19.263 15.9114 19.2138 15.9016Z" fill="black"/>
    <path d="M17.5997 29.5385V29.0659H17.4224V29.0019H17.8507V29.0659H17.6735V29.5385H17.5997Z" fill="black"/>
    <path d="M17.92 29.5385V29.0019H18.0284L18.1564 29.3809C18.1662 29.4154 18.176 29.4449 18.181 29.4597C18.1859 29.44 18.1957 29.4105 18.2105 29.3711L18.3385 28.9969H18.432V29.5385H18.3631V29.0905L18.2056 29.5385H18.1416L17.984 29.0806V29.5385H17.92Z" fill="black"/>
</svg>
