<svg width="32" height="32" viewBox="0 0 32 32" fill="none" xmlns="http://www.w3.org/2000/svg">
    <path d="M16 32C24.8366 32 32 24.8366 32 16C32 7.16344 24.8366 0 16 0C7.16344 0 0 7.16344 0 16C0 24.8366 7.16344 32 16 32Z" fill="#3B6EFA"/>
    <path d="M22.2 22L15.9 28.3L12.8 25.2C17.5 25 22.2 22 22.2 22ZM15.9 3.5L3.5 15.9C3.5 15.9 8.9 20.5 15.9 20.6C22.9 20.7 28.3 15.8 28.3 15.8L15.9 3.5ZM22.1 17.6C20.6 18.4 19.2 18.5 19.2 18.5C19.2 18.5 17 17 14.6 16.3C13 15.8 8 15.3 8 15.3C8 15.3 12.6 13.3 16.6 13.6C20.7 13.9 24.7 16 24.7 16C24.7 16 23.6 16.8 22.1 17.6Z" fill="white"/>
</svg>
