<svg width="32" height="32" viewBox="0 0 32 32" fill="none" xmlns="http://www.w3.org/2000/svg">
    <g clip-path="url(#clip0_1126_902)">
        <path d="M31.743 12.7589C31.2512 10.3855 30.2258 8.1552 28.7444 6.23677C27.2631 4.31834 25.3646 2.76213 23.1928 1.68598C21.8351 1.0267 20.4013 0.536918 18.924 0.227677C18.6147 0.178237 18.2311 0.116447 18.0578 0.0916765C16.7407 -0.0216666 15.4167 -0.029926 14.0983 0.0669765C13.727 0.116407 13.1207 0.227637 12.7743 0.301777C12.4154 0.375927 12.0813 0.450077 12.0318 0.450077C10.3525 0.948748 8.74346 1.65887 7.24327 2.56338C4.52412 4.37399 2.40838 6.9562 1.16784 9.97831C0.707594 11.1023 0.379557 12.276 0.190332 13.4757C0.140832 13.8094 0.0789918 14.279 0.0542218 14.5138C-0.0222364 15.5424 -0.0181004 16.5754 0.0665918 17.6033C0.0913318 17.8381 0.153202 18.1965 0.177952 18.4066C0.703504 21.8692 2.35617 25.0618 4.87995 27.4899C5.20167 27.7989 5.58525 28.1573 5.73374 28.3056C6.75823 29.1136 7.86081 29.8174 9.02511 30.4065C10.1262 30.9324 11.279 31.3424 12.465 31.6299C12.6506 31.667 12.9475 31.7164 13.1208 31.7535C14.7689 32.0267 16.4467 32.0725 18.1073 31.8894C22.2491 31.3432 26.014 29.2015 28.6001 25.9204C30.0229 24.1193 31.0515 22.0394 31.6193 19.8154C32.0784 17.4892 32.1202 15.0998 31.743 12.7589V12.7589ZM5.43673 20.7794C4.47934 19.9318 3.83441 18.7872 3.60543 17.5292C3.49811 16.44 3.50226 15.3426 3.61781 14.2543C3.66731 14.0194 3.72917 13.6363 3.76629 13.4015C4.14841 11.7097 4.86807 10.1125 5.88217 8.70542C7.09987 6.96448 8.76201 5.58181 10.6955 4.70135C11.6607 4.23174 11.8091 4.18235 11.673 4.40475C11.6235 4.49127 11.4874 4.70135 11.376 4.87437C10.1679 6.79317 9.4891 8.99753 9.40861 11.2636L9.39624 11.9062L8.56724 12.3387C6.6617 13.3397 5.01601 14.9587 4.68193 16.1574C4.43978 16.8339 4.45908 17.5765 4.73605 18.2395C5.01303 18.9025 5.5277 19.4381 6.17913 19.7413C6.58485 19.9152 7.02731 19.9858 7.46698 19.9469C7.90665 19.908 8.32984 19.7608 8.69873 19.5184C9.06763 19.2761 9.37074 18.9461 9.58099 18.558C9.79124 18.1699 9.90207 17.7358 9.90359 17.2944C9.90613 16.9387 9.83885 16.586 9.70559 16.2563C9.60659 16.0462 9.53236 15.8732 9.56948 15.8732C9.6498 15.8551 9.72844 15.8303 9.80458 15.799C9.94069 15.7496 10.0521 15.9103 10.2006 16.3922C10.8121 18.0539 11.6806 19.6094 12.7743 21.0018C12.997 21.2367 12.9846 21.249 12.5268 21.4467C11.8723 21.6884 11.1972 21.8704 10.5099 21.9905C9.72909 22.081 8.94066 22.0851 8.15892 22.0029C7.97775 21.9437 7.79128 21.9024 7.60211 21.8793C6.82305 21.6384 6.09076 21.2664 5.43673 20.7794V20.7794ZM23.2795 26.1676C21.5671 27.3802 19.5825 28.1526 17.501 28.4168C16.4717 28.5033 15.4369 28.5033 14.4076 28.4168C12.0646 28.0821 9.85942 27.1071 8.03519 25.5991C8.03519 25.5867 8.57962 25.5744 9.23542 25.5744C11.2389 25.5797 13.2151 25.1095 15.0015 24.2026L15.8429 23.7948L16.4864 24.2026C17.5741 24.9345 18.7923 25.4505 20.0747 25.7227C20.3345 25.7598 20.6315 25.7968 20.7429 25.8092C21.3941 25.8019 22.039 25.6806 22.6484 25.4508C23.0189 25.2701 23.3441 25.0085 23.6001 24.6855C23.8562 24.3625 24.0365 23.9862 24.1279 23.5842C24.2193 23.1823 24.2195 22.765 24.1283 22.363C24.0372 21.961 23.857 21.5846 23.6012 21.2614C23.3653 20.9709 23.0706 20.7335 22.7366 20.5648C22.4026 20.3961 22.0367 20.2998 21.6629 20.2823C21.2891 20.2648 20.9158 20.3265 20.5675 20.4632C20.2191 20.6 19.9036 20.8088 19.6416 21.076C18.9116 21.7681 18.6394 21.6198 19.258 20.8535C19.5179 20.5199 19.7654 20.2356 19.8025 20.1985C20.6609 19.0454 21.3678 17.787 21.906 16.454C21.9926 16.2068 22.104 15.9967 22.1535 15.9967C22.4912 16.2576 22.8096 16.5426 23.1062 16.8494C23.8386 17.471 24.4311 18.2405 24.8449 19.1074C25.2586 19.9743 25.4841 20.9189 25.5067 21.8792C25.5116 22.7212 25.3114 23.5516 24.9233 24.2988C24.5352 25.046 23.971 25.6874 23.2795 26.1676V26.1676ZM13.2445 14.4026L13.7023 14.279C14.5198 14.082 15.3634 14.0153 16.2017 14.0813C16.8574 14.0884 17.5114 14.1504 18.1567 14.2666C18.9115 14.4644 18.9115 14.3532 18.231 15.9968C17.7418 16.9876 17.1307 17.9134 16.4121 18.7527L15.979 19.2099L15.4841 18.6415C14.6773 17.6275 14.0267 16.4987 13.5538 15.2924L13.2445 14.4026ZM28.3279 18.0977C28.1376 17.8487 27.9757 17.5793 27.8453 17.2944C26.861 15.4979 25.4556 13.967 23.7496 12.8331L22.9082 12.2646V11.2018C23.0208 9.62667 22.6908 8.05146 21.9555 6.65398C21.5806 6.00122 20.9793 5.50861 20.2655 5.26947C19.5517 5.03032 18.775 5.06124 18.0825 5.35637C17.5207 5.66204 17.0701 6.13797 16.7957 6.71577C16.6057 7.32017 16.5801 7.96428 16.7214 8.58187C16.9073 9.08858 17.2345 9.53137 17.6644 9.85774C18.0942 10.1841 18.6087 10.3804 19.1467 10.4232C19.2209 10.4356 19.2952 10.5468 19.2952 10.6704C19.2952 10.8558 19.2333 10.9052 19.0229 10.8558C17.9292 10.6204 16.8132 10.5044 15.6944 10.5098C14.818 10.5025 13.9431 10.5854 13.0836 10.7569C12.799 10.9423 13.2568 8.94029 13.7518 7.86512C14.098 7.01775 14.6302 6.25905 15.3092 5.64512C15.9881 5.03119 16.7964 4.57774 17.6742 4.31831C18.5554 4.09564 19.4781 4.09564 20.3593 4.31831C20.8795 4.49005 21.3845 4.70501 21.8689 4.96094C23.6116 5.89053 25.1124 7.21526 26.2512 8.82905C27.39 10.4428 28.1351 12.3008 28.4269 14.2543C28.568 15.534 28.5347 16.8269 28.3279 18.0977L28.3279 18.0977Z" fill="url(#paint0_linear_1126_902)"/>
    </g>
    <defs>
        <linearGradient id="paint0_linear_1126_902" x1="2.8957" y1="25.1786" x2="29.1532" y2="6.79292" gradientUnits="userSpaceOnUse">
            <stop stop-color="#C80069"/>
            <stop offset="0.5" stop-color="#0183F3"/>
            <stop offset="1" stop-color="#0AE2FF"/>
        </linearGradient>
        <clipPath id="clip0_1126_902">
            <rect width="32" height="32" fill="white"/>
        </clipPath>
    </defs>
</svg>
