<svg width="32" height="32" viewBox="0 0 32 32" fill="none" xmlns="http://www.w3.org/2000/svg">
    <path d="M16 32C24.8366 32 32 24.8366 32 16C32 7.16344 24.8366 0 16 0C7.16344 0 0 7.16344 0 16C0 24.8366 7.16344 32 16 32Z" fill="white"/>
    <path d="M27.9947 18.7967C27.987 18.4908 27.9584 18.1857 27.909 17.8837C27.8429 17.4652 27.7421 17.053 27.6076 16.6512C27.5621 16.5063 27.0252 15.2805 26.9741 15.1879C26.8947 15.0441 23.2535 8.76764 22.7851 8.07961C22.5093 7.65968 22.1833 7.27495 21.8144 6.93391C21.1234 6.77388 20.4116 6.72308 19.7048 6.78336C19.133 6.82762 18.5698 6.94878 18.0305 7.14359C17.3637 7.38046 16.7388 7.72175 16.1791 8.15469C15.6876 8.56504 15.2406 9.02602 14.8456 9.53001C14.8329 9.54497 14.8239 9.56279 14.8195 9.58195C14.8151 9.60112 14.8154 9.62107 14.8204 9.64009C15.0007 9.5328 15.1481 9.37975 15.3379 9.2837C15.781 9.05556 16.2933 9.0007 16.7747 9.12981C17.2561 9.25892 17.6721 9.56275 17.9416 9.98202C18.3606 10.6618 23.1884 18.64 23.3761 19.033C23.4082 19.0769 23.4282 19.1285 23.434 19.1826C23.5271 19.3214 23.5984 19.4737 23.6454 19.6342C23.78 19.962 23.8833 20.3018 23.954 20.649C24.0594 21.1546 24.1045 21.671 24.0883 22.1872C24.0782 22.5744 24.0361 22.9601 23.9625 23.3404C23.9204 23.5475 23.7275 24.2148 23.7128 24.2621C23.6381 24.5015 23.5446 24.7346 23.4331 24.9592C23.2639 25.2684 23.0759 25.567 22.8703 25.8533C22.7452 26.0612 22.6016 26.2573 22.4413 26.4394C22.2322 26.6799 22.0004 26.8997 21.7492 27.0958C21.6977 27.1319 21.6362 27.1597 21.6078 27.2227C21.6419 27.2199 21.6758 27.2154 21.7094 27.2091C22.3704 27.0545 23.0078 26.8122 23.6045 26.4886C23.952 26.3165 24.2795 26.1068 24.5811 25.8632C24.6173 25.832 25.2947 25.3011 25.5494 25.0483C25.9639 24.6232 26.338 24.1606 26.6671 23.6664C26.8433 23.4116 26.9971 23.1421 27.1268 22.8608C27.2031 22.7007 27.277 22.5394 27.3504 22.378C27.3644 22.3472 27.5073 21.9733 27.5187 21.9417C27.8269 21.1018 27.9896 20.2155 27.9997 19.3209C28 19.2791 27.9948 18.8569 27.9947 18.7967Z" fill="url(#paint0_linear)"/>
    <path d="M19.1281 5.15514C18.3985 4.86062 17.6304 4.67251 16.8472 4.59658C16.3069 4.53715 15.7619 4.53555 15.2212 4.59182C15.1851 4.5955 14.7314 4.64669 14.6199 4.6667C14.4162 4.70325 14.215 4.75287 14.0125 4.7957C13.6249 4.89081 13.2436 5.01012 12.8709 5.15293C12.3844 5.36697 11.9129 5.61351 11.4595 5.89087C10.9213 6.24936 10.4247 6.66683 9.97912 7.1355C9.15993 8.19531 8.42493 9.31759 7.78085 10.4921C7.71185 10.6098 7.00969 11.8075 6.95902 11.8936C6.35244 12.9237 5.74573 13.9537 5.14725 14.9886C4.89071 15.4009 4.68393 15.8421 4.53125 16.3031C4.54203 16.3191 4.5506 16.3364 4.55674 16.3546C4.6624 16.8991 4.83064 17.4295 5.05811 17.9354C5.43319 18.7515 5.97359 19.481 6.64511 20.0775C7.0255 20.4531 7.46732 20.761 7.95146 20.9877C8.18821 21.0889 8.41126 21.2247 8.65212 21.3132C9.09715 21.4912 9.5608 21.6184 10.0343 21.6925C10.234 21.7459 10.4432 21.7535 10.6463 21.7147C10.36 21.6526 10.0906 21.5286 9.85719 21.3515C9.62373 21.1745 9.43176 20.9485 9.2947 20.6895C9.15764 20.4306 9.07879 20.1448 9.06367 19.8521C9.04854 19.5595 9.09751 19.2671 9.20715 18.9954C9.33939 18.6254 14.451 10.0986 14.7878 9.65975L14.8211 9.63538C14.8169 9.61699 14.8171 9.59786 14.8216 9.57954C14.8261 9.56121 14.8348 9.5442 14.8471 9.52986C15.2421 9.02587 15.6891 8.56489 16.1806 8.15454C16.7403 7.7216 17.3652 7.38031 18.0319 7.14344C18.5713 6.94863 19.1345 6.82746 19.7063 6.78321C20.413 6.72293 21.1249 6.77373 21.8159 6.93376C21.0508 6.16353 20.1361 5.55821 19.1281 5.15514Z" fill="url(#paint1_linear)"/>
    <path d="M22.4421 26.4398C22.6024 26.2577 22.746 26.0615 22.8711 25.8536C23.0767 25.5673 23.2647 25.2688 23.434 24.9596C23.5454 24.735 23.6389 24.5019 23.7136 24.2625C23.7283 24.2152 23.9211 23.5479 23.9633 23.3408C24.0369 22.9606 24.079 22.5748 24.0891 22.1876C24.1053 21.6714 24.0602 21.155 23.9548 20.6494C23.8842 20.3022 23.7809 19.9624 23.6462 19.6346C23.5993 19.4742 23.528 19.3219 23.4348 19.1831C23.3989 19.2246 23.4241 19.2666 23.4336 19.3085C23.4893 19.5736 23.4916 19.8471 23.4402 20.1131C23.3888 20.379 23.2849 20.632 23.1344 20.8572C22.984 21.0825 22.7901 21.2754 22.5641 21.4247C22.3381 21.574 22.0846 21.6766 21.8184 21.7266C21.6122 21.7634 11.7441 21.7443 11.0874 21.7452C10.9395 21.7497 10.7915 21.7397 10.6455 21.7153C10.4425 21.7541 10.2334 21.7465 10.0337 21.6931C9.56019 21.619 9.09656 21.4917 8.65154 21.3138C8.41054 21.2253 8.18753 21.0895 7.95085 20.9883C7.46671 20.7615 7.02491 20.4537 6.64454 20.078C5.97303 19.4815 5.43264 18.7521 5.05754 17.9359C4.83008 17.4301 4.66182 16.8997 4.55612 16.3552C4.54995 16.337 4.54137 16.3197 4.53059 16.3037C4.45192 16.4624 4.39108 16.6293 4.34921 16.8013C4.22544 17.2412 4.13501 17.6898 4.07869 18.1433C4.00945 18.6066 3.98582 19.0755 4.00813 19.5434C4.02562 20.052 4.1001 20.557 4.23019 21.049C4.23947 21.083 4.55392 22.1081 4.58199 22.1837C4.67699 22.4402 4.99435 23.0674 5.01099 23.1002C5.07715 23.2307 5.64759 24.1205 5.67554 24.1476C5.78479 24.2541 6.19665 24.7655 6.31298 24.8951C6.6193 25.2303 6.95784 25.5346 7.32373 25.8035C7.48853 25.9267 7.99487 26.2572 8.03172 26.2777C8.2296 26.3884 8.42968 26.4953 8.62817 26.6049C8.80908 26.7047 9.01317 26.7517 9.19543 26.8417C9.40648 26.9351 9.62269 27.0165 9.84301 27.0853C9.85973 27.0913 10.6438 27.2803 10.6846 27.2898C10.9794 27.3497 11.2778 27.3903 11.5779 27.4114C12.1238 27.4651 18.5259 27.4476 19.8231 27.4412C20.4252 27.4453 21.0253 27.3719 21.6086 27.223C21.637 27.16 21.6986 27.1322 21.75 27.0962C22.0012 26.9001 22.233 26.6803 22.4421 26.4398Z" fill="url(#paint2_linear)"/>
    <defs>
        <linearGradient id="paint0_linear" x1="25" y1="20" x2="27.1608" y2="7.92339" gradientUnits="userSpaceOnUse">
            <stop stop-color="#F2C31D"/>
            <stop offset="1" stop-color="#A82A25"/>
        </linearGradient>
        <linearGradient id="paint1_linear" x1="12" y1="9" x2="6.5" y2="19" gradientUnits="userSpaceOnUse">
            <stop stop-color="#F2C31D"/>
            <stop offset="1" stop-color="#A82A25"/>
        </linearGradient>
        <linearGradient id="paint2_linear" x1="8" y1="18" x2="24" y2="24" gradientUnits="userSpaceOnUse">
            <stop stop-color="#F2C31D"/>
            <stop offset="1" stop-color="#A82A25"/>
        </linearGradient>
    </defs>
</svg>
