<svg width="32" height="32" viewBox="0 0 32 32" fill="none" xmlns="http://www.w3.org/2000/svg">
<path d="M32 16C32 24.8366 24.8366 32 16 32C7.16344 32 0 24.8366 0 16C0 7.16344 7.16344 0 16 0C24.8366 0 32 7.16344 32 16Z" fill="white"/>
<path d="M10.3465 26.5516C9.14287 26.5161 7.98514 26.0818 7.05524 25.3168C6.30429 24.678 5.79379 23.8022 5.60811 22.834C5.49031 21.8354 5.57995 20.8232 5.87144 19.8609C5.97424 19.5209 6.03295 19.1691 6.04611 18.8142L6.04182 18.8054L6.03527 18.7889C5.80807 18.436 5.53809 18.1124 5.23146 17.8257C4.38289 17.0336 3.6995 16.0814 3.22068 15.0239L3.21587 15.0104C2.90137 14.0728 2.93133 13.0538 3.3004 12.1363C3.66946 11.2188 4.35345 10.4628 5.22961 10.0042L5.25573 9.98969L5.28341 9.97862C6.14443 9.61794 7.06621 9.42439 7.99957 9.40828C8.78998 9.41711 9.57055 9.58475 10.2949 9.90126C11.0192 10.2178 11.6725 10.6767 12.2159 11.2507C13.3358 12.1664 14.5473 14.3344 15.8294 16.629L15.9722 16.8843C17.0906 14.928 18.6968 12.2312 19.4145 11.5679L19.536 11.4464L19.6847 11.3415C19.7553 11.2916 19.8753 11.1921 19.9913 11.0958C21.137 10.0233 22.6412 9.41612 24.2104 9.39282C24.5987 9.39395 24.9862 9.42735 25.369 9.49267C26.0787 9.62681 26.747 9.92562 27.3202 10.3651C27.8934 10.8045 28.3555 11.3724 28.6693 12.0229C28.9529 12.6961 29.0567 13.4314 28.9706 14.1568C28.8844 14.8822 28.6113 15.5728 28.1779 16.1608L28.1227 16.2459L28.0596 16.3254C27.5189 17.0068 26.3778 18.2131 25.9959 18.6134C25.9522 18.6849 25.8918 18.8454 25.9889 19.3104C26.3265 20.2482 26.9453 22.5535 25.74 24.428C25.2942 25.077 24.6961 25.6069 23.9981 25.9712C23.3 26.3356 22.5233 26.5234 21.736 26.5181C21.6015 26.5299 21.4743 26.5356 21.3474 26.5356H21.3211L21.295 26.5327C20.0064 26.4299 18.7958 25.8739 17.8782 24.9634C17.1145 24.1526 16.4753 23.2328 15.9817 22.2342C15.7053 22.7197 15.4637 23.1354 15.2401 23.5105C14.7658 24.3959 14.0687 25.1421 13.2177 25.6756C12.3667 26.209 11.3912 26.5111 10.3877 26.552L10.367 26.5527L10.3465 26.5516ZM8.42416 17.7659C8.72076 18.6406 8.7123 19.5899 8.40017 20.4592C8.20981 21.0759 8.12995 21.7215 8.16426 22.366C8.28565 23.0292 8.94264 23.8391 10.3943 23.9507C10.9479 23.9084 11.4807 23.722 11.94 23.4101C12.3993 23.0982 12.769 22.6716 13.0124 22.1726C13.4958 21.3615 14.0281 20.4151 14.5012 19.5648C14.1818 19.0077 13.868 18.4461 13.5633 17.9008L13.5609 17.8966C12.5538 16.0941 11.3003 13.8509 10.5669 13.2592L10.4911 13.198L10.4213 13.1302C10.1145 12.789 9.74175 12.5135 9.3255 12.3204C8.90925 12.1273 8.45817 12.0207 7.99953 12.0069C7.44562 12.0206 6.8986 12.133 6.38417 12.3388C6.0771 12.5154 5.83915 12.7911 5.70934 13.1207C5.57953 13.4503 5.56557 13.8143 5.66974 14.1528C6.04475 14.8566 6.53373 15.4934 7.11682 16.0374C7.65217 16.531 8.09492 17.1164 8.42416 17.7659V17.7659ZM17.4783 19.5539C18.118 20.9122 18.9637 22.1636 19.9855 23.2637C20.1546 23.4631 20.3622 23.6263 20.5959 23.7434C20.8296 23.8605 21.0846 23.9293 21.3455 23.9454C21.4006 23.9454 21.4593 23.9424 21.525 23.9361L21.5413 23.9348C21.9242 23.955 22.3063 23.8835 22.6561 23.7263C23.0058 23.5691 23.3129 23.3307 23.552 23.031C24.1953 22.0305 23.6242 20.4101 23.5032 20.0954L23.4919 20.0662L23.4846 20.0358C23.316 19.5224 23.2731 18.976 23.3595 18.4426C23.446 17.9092 23.6592 17.4043 23.9814 16.9705L23.9978 16.9488L24.0166 16.9292C24.031 16.9142 25.4482 15.436 26.0077 14.7362C26.192 14.5086 26.3149 14.2376 26.3648 13.949C26.4147 13.6604 26.39 13.3639 26.2928 13.0876C26.1569 12.8287 25.9657 12.6028 25.7326 12.4261C25.4996 12.2494 25.2306 12.1261 24.9446 12.0651C24.7013 12.0228 24.455 12.0009 24.2081 11.9997C23.244 12.0231 22.3266 12.4189 21.6481 13.1042C21.4992 13.2278 21.3578 13.3451 21.2165 13.4474C20.3926 14.2961 18.9159 16.9565 17.4783 19.5539V19.5539Z" fill="white"/>
<path d="M15.2361 16.0172C15.1455 15.8496 15.0547 15.6821 14.9617 15.5108L14.7141 15.0543L15.0544 15.0752C15.1227 15.0773 15.1906 15.0871 15.2567 15.1044C15.2432 14.6943 15.1747 14.2878 15.053 13.8959C15.0016 13.9383 14.9418 13.9694 14.8776 13.9873C14.8375 13.9991 14.796 14.0052 14.7543 14.0054C14.718 14.0055 14.6818 14.0006 14.6469 13.9909C14.6562 14.0839 14.6426 14.1777 14.6071 14.2642L14.4439 14.7124L14.213 14.1746C14.1276 14.0802 14.0545 13.9754 13.9954 13.8626C13.9707 13.8197 13.9475 13.7792 13.9229 13.7409C13.8823 13.6886 13.8528 13.6286 13.8362 13.5644C13.8196 13.5003 13.8163 13.4335 13.8265 13.368C13.8395 13.3144 13.8648 13.2646 13.9003 13.2223C13.7785 13.1785 13.6673 13.1095 13.574 13.0197C13.4807 12.93 13.4074 12.8216 13.3589 12.7016C13.1605 12.2535 12.977 11.7835 12.8135 11.3046C12.7676 11.1901 12.7458 11.0674 12.7494 10.9441C12.7529 10.8208 12.7818 10.6996 12.8343 10.5879C12.7064 10.5821 12.5811 10.5499 12.4661 10.4936C12.3512 10.4372 12.249 10.3578 12.1661 10.2602C11.8318 9.9075 11.516 9.53765 11.22 9.15215C11.1329 9.05161 11.0686 8.93336 11.0317 8.80556C10.9947 8.67777 10.9859 8.54348 11.0059 8.41196C10.9232 8.43851 10.8369 8.45207 10.75 8.45215C10.5536 8.44737 10.3628 8.38576 10.2006 8.27476C9.79204 8.01248 9.45019 7.80263 9.12477 7.61437C9.01802 7.56655 8.92211 7.49753 8.84287 7.41148C8.76363 7.32543 8.70273 7.22416 8.66387 7.11384C8.625 7.00351 8.60898 6.88643 8.61679 6.76972C8.6246 6.65301 8.65607 6.53911 8.70928 6.43494C8.72571 6.39002 8.74107 6.34471 8.75648 6.29943C8.78403 6.21834 8.81254 6.1345 8.84701 6.05136C8.89594 5.88009 8.99851 5.72903 9.13965 5.62038C9.2808 5.51174 9.45307 5.45123 9.63116 5.44775C9.74163 5.44916 9.85124 5.46733 9.95626 5.50164C10.6262 5.71232 11.2336 6.08557 11.7242 6.58808C11.8266 6.67759 11.9054 6.79086 11.9537 6.91795C12.002 7.04504 12.0184 7.18205 12.0014 7.31695C12.064 7.29901 12.1288 7.28993 12.194 7.28998C12.4363 7.30353 12.6661 7.40185 12.8432 7.56774C13.3041 7.9468 13.6959 8.4027 14.0014 8.91529C14.1052 9.04627 14.1692 9.20424 14.186 9.3705C14.2027 9.53676 14.1715 9.70434 14.0959 9.85339L14.1136 9.85325C14.2755 9.85352 14.4339 9.90065 14.5697 9.98895C14.7054 10.0773 14.8127 10.203 14.8786 10.3509C15.1691 10.8588 15.3837 11.4065 15.5155 11.9766C15.5684 12.1321 15.5741 12.2997 15.532 12.4584C15.4899 12.6171 15.4017 12.7599 15.2787 12.8686C15.4498 12.9055 15.6058 12.9931 15.7264 13.1201C15.8469 13.2471 15.9262 13.4074 15.9541 13.5802L15.9695 13.6386C16.1059 14.028 16.142 14.4456 16.0745 14.8527C16.0305 15.0627 16.0378 15.2803 16.0957 15.4869C16.1161 15.5606 16.1178 15.6382 16.1007 15.7128C16.0835 15.7873 16.048 15.8564 15.9974 15.9137C15.7925 16.1422 15.862 16.1041 15.7704 16.1219C15.6789 16.1396 15.6937 16.1957 15.8384 16.237C15.9772 16.2666 15.9722 16.8837 15.9722 16.8837C15.9722 16.8837 15.3197 16.1719 15.2361 16.0172ZM14.1651 12.184C14.2151 12.1339 14.2754 12.0952 14.3418 12.0707C14.3885 12.0523 14.4381 12.0427 14.4882 12.0424C14.5104 12.0424 14.5326 12.0443 14.5545 12.0483C14.4489 11.655 14.2984 11.2752 14.1058 10.9164C14.0689 10.9711 14.0187 11.0154 13.9598 11.0453C13.901 11.0752 13.8355 11.0895 13.7696 11.0871L13.7347 11.086L14.1651 12.184ZM12.0516 8.65268C12.3027 8.96964 12.5387 9.2537 12.7939 9.51778C12.8278 9.45828 12.8741 9.40679 12.9297 9.36683C12.9839 9.32605 13.0468 9.29844 13.1134 9.28618C12.8876 8.95274 12.6226 8.64755 12.3242 8.37711C12.3108 8.42734 12.2875 8.47436 12.2556 8.51541C12.2032 8.58086 12.132 8.62875 12.0516 8.65268V8.65268ZM9.65611 6.83075C9.99298 7.02574 10.3181 7.21625 10.6426 7.43249C10.652 7.35895 10.6808 7.28923 10.726 7.23047C10.7648 7.17742 10.8154 7.13405 10.8737 7.10373C10.5625 6.83316 10.2088 6.61589 9.82669 6.46073C9.83269 6.52214 9.82458 6.58411 9.80298 6.6419C9.77321 6.71767 9.72222 6.78324 9.65611 6.83075V6.83075Z" fill="white"/>
<path d="M15.8901 14.8108C15.9492 14.4129 15.9083 14.0065 15.7712 13.6282C15.7415 13.4457 15.6435 13.2812 15.4972 13.1681C15.3509 13.0549 15.1671 13.0015 14.9829 13.0187C14.9355 13.0162 14.9093 13.0035 14.8971 12.9611C14.8832 12.913 14.9145 12.8996 14.9514 12.8767C15.1114 12.8082 15.2396 12.6816 15.31 12.5225C15.3805 12.3633 15.388 12.1833 15.3311 12.0188C15.2035 11.4667 14.9957 10.9362 14.7142 10.4444C14.6435 10.2813 14.5121 10.1521 14.3478 10.0842C14.1835 10.0164 13.9992 10.0152 13.834 10.0809C13.7895 10.0919 13.7583 10.0923 13.7318 10.0573C13.7249 10.0503 13.7197 10.0418 13.7167 10.0325C13.7137 10.0232 13.7129 10.0133 13.7144 10.0036C13.7158 9.99391 13.7196 9.9847 13.7252 9.97671C13.7309 9.96872 13.7383 9.96216 13.747 9.95756C14.1212 9.67708 14.0267 9.3252 13.8392 9.01263C13.5447 8.5188 13.1673 8.0795 12.7234 7.71405C12.6671 7.64735 12.5979 7.5927 12.52 7.55335C12.4421 7.514 12.357 7.49077 12.2699 7.48504C12.1828 7.4793 12.0955 7.49119 12.0131 7.51999C11.9307 7.54879 11.8549 7.59391 11.7904 7.65264C11.7843 7.66003 11.7766 7.66597 11.768 7.67002C11.7593 7.67407 11.7498 7.67614 11.7403 7.67607C11.7307 7.676 11.7213 7.67379 11.7127 7.66961C11.7041 7.66544 11.6965 7.65939 11.6905 7.65191C11.6463 7.61517 11.6692 7.58141 11.6925 7.55062C11.7406 7.48956 11.7762 7.41955 11.7971 7.34466C11.818 7.26976 11.8238 7.19147 11.8142 7.1143C11.8047 7.03714 11.7799 6.96264 11.7413 6.89512C11.7028 6.8276 11.6512 6.7684 11.5896 6.72095C11.1203 6.24085 10.5398 5.884 9.89953 5.68203C9.81335 5.64643 9.72051 5.62979 9.62732 5.63326C9.53414 5.63673 9.44279 5.66022 9.35949 5.70213C9.27619 5.74404 9.20289 5.80339 9.14457 5.87615C9.08625 5.94892 9.04428 6.03338 9.02151 6.1238C8.97055 6.24664 8.93237 6.37473 8.88672 6.49981C8.84115 6.58313 8.81359 6.67509 8.80581 6.76974C8.79803 6.86439 8.81021 6.95962 8.84155 7.04926C8.8729 7.13891 8.92272 7.22097 8.98778 7.29015C9.05285 7.35932 9.13171 7.41407 9.21927 7.45084C9.58658 7.66333 9.94577 7.88671 10.3026 8.11578C10.4348 8.21625 10.5975 8.26827 10.7634 8.26317C10.9294 8.25806 11.0886 8.19613 11.2143 8.08773C11.2505 8.05974 11.274 8.0114 11.3247 8.06722C11.3584 8.10439 11.3486 8.13341 11.3215 8.16917C11.2237 8.29544 11.1748 8.45273 11.1837 8.61217C11.1926 8.77161 11.2586 8.9225 11.3698 9.03715C11.6617 9.41748 11.9732 9.78233 12.3031 10.1302C12.3983 10.2533 12.5326 10.3402 12.6838 10.3766C12.835 10.4131 12.9942 10.3969 13.1349 10.3307C13.1758 10.3117 13.2177 10.2719 13.2559 10.3318C13.2923 10.3888 13.2492 10.4148 13.2096 10.443C13.0849 10.5295 12.9947 10.6572 12.955 10.8037C12.9152 10.9501 12.9284 11.1059 12.9922 11.2436C13.1518 11.7112 13.3315 12.1734 13.5316 12.6251C13.5799 12.7513 13.6631 12.8612 13.7715 12.9419C13.8799 13.0227 14.0091 13.0709 14.1438 13.081C14.2183 13.0871 14.3306 12.9816 14.362 13.1097C14.3875 13.2137 14.2531 13.194 14.1923 13.2297C13.9847 13.3516 13.9551 13.442 14.0817 13.6387C14.1603 13.7927 14.2578 13.9362 14.3719 14.066L14.4294 14.1996C14.4522 14.1559 14.4633 14.107 14.4617 14.0577C14.4601 14.0084 14.4458 13.9604 14.4201 13.9183V13.9183C14.4386 13.83 14.3852 13.73 14.4704 13.6371C14.5739 13.725 14.6565 13.8546 14.8249 13.8058C14.9804 13.7607 15.0293 13.639 15.0505 13.4832C15.3759 14.1013 15.493 14.8079 15.3844 15.4978C15.2488 15.2766 15.2488 15.2766 15.0427 15.2638C15.1657 15.4907 15.2842 15.7089 15.4023 15.9273C15.4133 15.9567 15.4342 15.9814 15.4613 15.9972C15.4885 16.0131 15.5203 16.019 15.5514 16.0141C15.6577 15.9884 15.7518 15.9266 15.8177 15.8394C15.8836 15.7521 15.9173 15.6447 15.9129 15.5354C15.8469 15.2993 15.8391 15.0506 15.8901 14.8108V14.8108ZM10.8767 7.34432C10.77 7.48583 10.8669 7.62804 10.8797 7.82846C10.3491 7.45711 9.7988 7.11484 9.23114 6.80316C9.70011 6.69553 9.73922 6.50507 9.47877 6.14206C10.1714 6.33859 10.7985 6.71751 11.2946 7.23923C11.1429 7.26335 10.9897 7.19466 10.8767 7.34432ZM13.0416 9.51909C12.9069 9.61821 12.9102 9.75389 12.9311 9.91696C12.4778 9.47643 12.061 8.99973 11.685 8.49159C12.0985 8.52328 12.2144 8.40332 12.1245 8.04047C12.7139 8.40363 13.1789 8.93752 13.4577 9.57122C13.3169 9.49565 13.185 9.41369 13.0416 9.51909ZM14.4096 12.2471C14.344 12.2742 14.2888 12.3217 14.2522 12.3825C14.2157 12.4434 14.1996 12.5144 14.2064 12.5851L14.1271 12.6053L13.4155 10.7897C13.8484 10.9956 13.9962 10.9191 14.0524 10.4658C14.439 11.0641 14.7084 11.7305 14.8461 12.4294C14.6633 12.3418 14.5827 12.1805 14.4096 12.2471V12.2471Z" fill="#F04A22"/>
<path d="M15.9681 16.9517C15.9681 16.9517 16.0656 16.2223 16.2162 16.1899C16.3166 16.1544 16.2722 16.0735 16.2124 16.0414L16.2022 16.032C16.0743 15.9082 15.9769 15.7564 15.9175 15.5886C15.8582 15.4207 15.8385 15.2414 15.8601 15.0647C15.9031 14.5567 16.0038 14.0552 16.1604 13.57C16.1928 13.3939 16.276 13.2311 16.3999 13.1018C16.5237 12.9724 16.6828 12.8822 16.8573 12.8422C16.7342 12.7171 16.6506 12.5587 16.6167 12.3866C16.5828 12.2144 16.6002 12.0361 16.6668 11.8737C16.8182 11.3807 17.0184 10.904 17.2642 10.4505C17.3552 10.2773 17.4859 10.1282 17.6457 10.0152C17.7834 9.90751 17.95 9.84302 18.1244 9.82989C18.0669 9.70925 18.0418 9.57569 18.0517 9.4424C18.0615 9.30911 18.106 9.1807 18.1807 9.06987C18.5136 8.48626 18.9655 7.97917 19.5071 7.58151C19.6727 7.4429 19.8791 7.36229 20.0948 7.35199C20.1782 7.35174 20.2609 7.3671 20.3386 7.39727C20.314 7.22441 20.3407 7.04814 20.4154 6.89032C20.4901 6.7325 20.6094 6.60008 20.7587 6.50947C21.1904 6.17972 21.6628 5.90709 22.1644 5.69836C22.312 5.63754 22.4702 5.60664 22.6299 5.60744C22.6745 5.60744 22.72 5.60974 22.7653 5.61429C22.917 5.61513 23.0646 5.66382 23.187 5.75343C23.3094 5.84304 23.4003 5.969 23.447 6.11336C23.4812 6.21939 23.5191 6.32749 23.5558 6.43205C23.6008 6.56027 23.6474 6.69284 23.6888 6.82638C23.7155 6.93081 23.7174 7.03999 23.6946 7.14531C23.6718 7.25063 23.6248 7.34921 23.5574 7.43327C23.4443 7.59788 23.2898 7.72971 23.1094 7.81542C22.8066 7.96295 22.5131 8.12886 22.2306 8.31223L22.1075 8.38836C21.9419 8.50039 21.748 8.5635 21.5482 8.57048V8.57048C21.4512 8.5702 21.355 8.55254 21.2642 8.51832C21.2781 8.6684 21.2587 8.81971 21.2072 8.9614C21.1558 9.10309 21.0738 9.23166 20.9668 9.33792C20.6764 9.67652 20.3854 9.99585 20.102 10.2871C20.0132 10.3926 19.9034 10.4784 19.7796 10.5393C19.6559 10.6001 19.5208 10.6346 19.383 10.6406H19.3764C19.4323 10.7691 19.4586 10.9085 19.4534 11.0486C19.4482 11.1886 19.4117 11.3256 19.3465 11.4497C19.2881 11.578 19.2336 11.7135 19.1808 11.8446C19.041 12.255 18.8317 12.6383 18.562 12.9778C18.4684 13.0983 18.3444 13.1917 18.2028 13.2484C18.2081 13.2609 18.2126 13.2737 18.2162 13.2868C18.2279 13.3539 18.2235 13.423 18.2032 13.4881C18.1829 13.5532 18.1473 13.6125 18.0994 13.6611C18.0724 13.6973 18.0489 13.7362 18.0294 13.777C17.9778 13.8908 17.9007 13.9912 17.8041 14.0706L17.519 14.2888L17.503 13.9799C17.4598 13.9965 17.4139 14.005 17.3676 14.0049C17.3277 14.0047 17.2882 13.9987 17.25 13.9872C17.1809 13.9675 17.1172 13.9323 17.0636 13.8843C16.9307 14.2739 16.8509 14.6796 16.8264 15.0906C16.8421 15.0865 16.8581 15.0834 16.8742 15.0813L17.1604 15.0435L17.0807 15.3209C17.0068 15.5905 16.8853 15.8447 16.722 16.0716C16.6669 16.147 15.9681 16.9517 15.9681 16.9517ZM17.6931 12.0484C17.7512 12.0488 17.8085 12.0614 17.8613 12.0855C17.9142 12.1097 17.9613 12.1447 17.9996 12.1883L18.4434 11.143C18.3726 11.1446 18.3027 11.1273 18.2408 11.0928C18.1789 11.0584 18.1274 11.0081 18.0915 10.9471C17.9869 11.1194 17.895 11.299 17.8165 11.4845C17.7348 11.6701 17.6661 11.8612 17.611 12.0564C17.6381 12.0511 17.6655 12.0485 17.6931 12.0484V12.0484ZM19.1494 9.33104C19.2169 9.34554 19.2799 9.37606 19.3332 9.42001C19.3864 9.46397 19.4283 9.52008 19.4553 9.58361L20.2262 8.7338C20.1592 8.7072 20.0986 8.66671 20.0484 8.61499C20.0034 8.5711 19.9687 8.51784 19.9466 8.459C19.6435 8.71317 19.3754 9.00641 19.1494 9.33104V9.33104ZM21.4156 7.21036C21.4807 7.23797 21.5373 7.28259 21.5793 7.33954C21.6198 7.39559 21.6458 7.46081 21.6549 7.52936C21.9635 7.35239 22.2891 7.16965 22.6401 6.98392C22.5763 6.93137 22.5293 6.86138 22.5048 6.78252C22.4857 6.72704 22.4787 6.66812 22.4842 6.6097C22.1008 6.75727 21.7409 6.95959 21.4156 7.21036V7.21036Z" fill="white"/>
<path d="M23.5084 6.88199C23.4341 6.64307 23.3441 6.40909 23.2671 6.17094C23.231 6.06199 23.1609 5.96742 23.0673 5.90103C22.9736 5.83464 22.8612 5.79989 22.7464 5.80184C22.5734 5.78256 22.3982 5.8068 22.2369 5.87239C21.7503 6.07471 21.292 6.33918 20.8733 6.65921C20.7914 6.70545 20.7195 6.76749 20.6617 6.84175C20.604 6.916 20.5616 7.00098 20.5369 7.09176C20.5123 7.18254 20.5059 7.27731 20.5182 7.37056C20.5305 7.46382 20.5612 7.55371 20.6085 7.63502C20.6252 7.67291 20.6483 7.70527 20.6046 7.73636C20.5754 7.7571 20.5491 7.79067 20.508 7.74534C20.4528 7.68254 20.3851 7.63198 20.3092 7.59694C20.2333 7.56189 20.151 7.54313 20.0674 7.54186C19.9838 7.5406 19.9009 7.55685 19.824 7.58958C19.747 7.62231 19.6778 7.67079 19.6208 7.73189C19.1002 8.11357 18.6659 8.60055 18.3459 9.16115C18.2587 9.28549 18.2218 9.43822 18.2425 9.58866C18.2633 9.7391 18.3402 9.87612 18.4578 9.97221C18.4889 10.0054 18.5405 10.0239 18.4915 10.0819C18.447 10.1345 18.4102 10.1008 18.3696 10.0789C18.2702 10.0296 18.1581 10.0118 18.0483 10.0278C17.9385 10.0439 17.8362 10.0931 17.755 10.1688C17.6195 10.2648 17.5085 10.3914 17.4312 10.5384C17.1914 10.9809 16.996 11.446 16.8479 11.927C16.7737 12.0981 16.7679 12.2911 16.8316 12.4664C16.8953 12.6416 17.0237 12.7858 17.1905 12.8693C17.2247 12.892 17.2615 12.9029 17.2428 12.9543C17.2255 13.0018 17.1893 12.9956 17.148 12.9968C16.9592 12.98 16.7711 13.0353 16.6215 13.1515C16.4719 13.2678 16.3718 13.4364 16.3415 13.6235C16.1887 14.0947 16.0905 14.582 16.0488 15.0757C16.0294 15.2243 16.0447 15.3754 16.0936 15.5171C16.1424 15.6588 16.2234 15.7872 16.3302 15.8924C16.3923 15.9495 16.4979 16.0574 16.5695 15.9595C16.7195 15.7504 16.8311 15.5163 16.8991 15.2681C16.7497 15.2879 16.7653 15.4348 16.674 15.4768C16.597 14.7862 16.737 14.0888 17.0747 13.4814C17.1016 13.6292 17.1428 13.7575 17.3041 13.8056C17.4701 13.8551 17.5448 13.7044 17.6747 13.6394L17.6893 13.92C17.8301 13.8121 17.8592 13.654 17.9541 13.5398C18.0772 13.3917 18.0763 13.2814 17.8755 13.2106C17.8313 13.195 17.7505 13.1898 17.7778 13.1089C17.8039 13.0318 17.8738 13.0715 17.9205 13.0803C18.0169 13.0955 18.1156 13.082 18.2043 13.0416C18.2931 13.0011 18.3681 12.9355 18.4199 12.8528C18.7438 12.3992 18.9981 11.8997 19.1745 11.3709C19.2604 11.2264 19.2902 11.0553 19.258 10.8902C19.2258 10.7252 19.134 10.5778 19.0001 10.4761C18.9685 10.4518 18.933 10.4276 18.9592 10.3821C18.9939 10.3221 19.034 10.3564 19.0774 10.377C19.2285 10.448 19.3995 10.4647 19.5616 10.4242C19.7236 10.3837 19.8666 10.2885 19.9666 10.1548C20.2622 9.85092 20.5474 9.53614 20.8234 9.21437C20.9576 9.10169 21.0459 8.94374 21.0715 8.77039C21.0971 8.59704 21.0583 8.42031 20.9624 8.27363C20.9333 8.22987 20.9159 8.19191 20.965 8.15249C21.0119 8.11487 21.0308 8.16084 21.0591 8.18295C21.186 8.30242 21.3514 8.37253 21.5255 8.3806C21.6996 8.38867 21.8709 8.33417 22.0083 8.22695C22.3369 8.01226 22.6781 7.81738 23.03 7.64337C23.1802 7.57187 23.3088 7.46178 23.4026 7.32435C23.4541 7.26431 23.4905 7.19288 23.5089 7.11595C23.5273 7.03903 23.5271 6.95882 23.5084 6.88199V6.88199ZM18.0224 12.6178C17.8691 12.1905 17.6847 12.1297 17.3776 12.4006C17.4535 11.7206 17.7313 11.0788 18.1752 10.5579C18.2083 10.9488 18.3617 11.036 18.7594 10.8816L18.0224 12.6178ZM19.3499 9.98063C19.3303 9.54804 19.1607 9.42483 18.7854 9.55933C19.1232 8.96971 19.5846 8.46017 20.138 8.0657C20.1339 8.21475 20.0553 8.35385 20.1822 8.48107C20.2321 8.53246 20.2981 8.56515 20.3692 8.57369C20.4403 8.58223 20.5122 8.5661 20.5729 8.52799L20.6117 8.5896L19.3499 9.98063ZM21.4226 7.8812C21.5485 7.47458 21.4388 7.32192 21.0435 7.35404C21.5008 6.82792 22.1239 6.47359 22.8099 6.34965C22.7476 6.47156 22.6336 6.57152 22.684 6.72206C22.7382 6.88417 22.8824 6.90185 23.1003 6.95767C22.4924 7.26609 21.9577 7.57094 21.4226 7.88113V7.8812Z" fill="#003555"/>
<path d="M10.3725 26.0792C11.2974 26.0431 12.1966 25.7644 12.9798 25.2709C13.7629 24.7775 14.4025 24.0868 14.8344 23.268C15.2033 22.6492 15.9985 21.2436 15.9985 21.2436L16.9426 19.5458C17.9488 17.7279 18.9592 15.8977 19.7862 14.6027C21.3575 12.035 24.3455 9.93081 27.0399 10.7392C26.5266 10.3445 25.9272 10.0768 25.2907 9.95805C24.9338 9.89707 24.5725 9.86587 24.2104 9.86475C22.7507 9.88482 21.352 10.454 20.293 11.4589C20.1644 11.5657 19.7415 11.9086 19.7415 11.9086C18.9459 12.6325 16.7697 16.4264 15.9698 17.845L15.0441 19.5602C14.5015 20.5374 13.9297 21.5557 13.4166 22.4169C13.1305 22.986 12.7008 23.4705 12.1699 23.8224C11.6391 24.1744 11.0255 24.3816 10.3899 24.4235C8.65038 24.3017 7.85323 23.2897 7.69958 22.4505C7.75029 23.8645 8.58302 26.0261 10.3725 26.0792Z" fill="url(#paint0_linear_1324_4)"/>
<path d="M17.1736 15.7561C16.6841 16.5859 16.2453 17.3563 15.9697 17.845L15.044 19.5602C14.6906 20.1966 14.325 20.8502 13.9711 21.4667L14.9238 23.1168C15.3177 22.4467 15.9984 21.2436 15.9984 21.2436L16.9425 19.5458C17.3414 18.825 17.741 18.1024 18.1296 17.4119L17.1736 15.7561Z" fill="url(#paint1_linear_1324_4)"/>
<path d="M28.2378 12.2144C27.9695 11.6294 27.5574 11.1219 27.0399 10.7392C24.9253 10.1048 22.63 11.2644 20.9805 13.034C21.7724 12.4431 22.7839 11.2197 25.0191 11.598C25.3909 11.6458 25.7432 11.7918 26.0398 12.0211C26.3364 12.2503 26.5665 12.5545 26.7063 12.9023C26.8462 13.2501 26.8908 13.6288 26.8356 13.9996C26.7804 14.3704 26.6273 14.7197 26.3921 15.0116C25.8225 15.7295 24.3577 17.2558 24.3577 17.2558C24.0766 17.6335 23.8919 18.0741 23.8199 18.5393C23.7478 19.0045 23.7905 19.4803 23.9443 19.9253C24.1631 20.4924 24.2913 21.0904 24.3241 21.6974C24.3813 22.6499 24.2218 25.1756 22.1565 26.0023C22.7913 25.9576 23.4079 25.7698 23.9597 25.4528C24.5116 25.1357 24.9845 24.6978 25.3429 24.1719C26.4312 22.4792 25.8763 20.3782 25.5338 19.4403C25.3849 18.7548 25.5051 18.4887 25.6265 18.3159C25.9582 17.9686 27.1449 16.7178 27.6898 16.0311L27.7818 15.9032C28.1711 15.3806 28.4178 14.7658 28.4977 14.1191C28.5777 13.4724 28.4881 12.8161 28.2378 12.2144V12.2144Z" fill="url(#paint2_linear_1324_4)"/>
<path d="M4.84836 10.8258C3.26142 11.6887 3.26605 13.6868 3.66338 14.8578C4.29738 16.5556 6.18641 17.8872 6.47458 18.6139C6.75018 19.1809 5.76587 21.0708 6.07298 22.7481C6.36471 24.3414 7.78175 25.9451 10.3725 26.079C9.38815 25.9215 8.00223 25.2285 7.69959 22.4502C7.64944 21.7412 7.73112 21.0289 7.94049 20.3496C8.22449 19.5789 8.24224 18.7354 7.99092 17.9534C7.68263 17.3551 7.27066 16.8162 6.77416 16.3617C6.14113 15.7726 5.61617 15.0772 5.22307 14.307C5.08361 13.859 5.10211 13.3768 5.27548 12.9408C5.44885 12.5049 5.76658 12.1416 6.17559 11.9118C6.75564 11.6762 7.37371 11.548 7.99963 11.5336C8.5194 11.5457 9.03128 11.6633 9.50417 11.8793C9.97706 12.0954 10.4011 12.4053 10.7504 12.7903C10.1362 11.9442 7.15179 9.72362 4.84836 10.8258Z" fill="url(#paint3_linear_1324_4)"/>
<path d="M24.3239 21.6977L24.3236 21.6933C24.3666 22.8906 23.8977 24.2645 21.57 24.4062C20.7454 24.485 19.3739 24.2869 16.9425 19.5461L15.9697 17.8453C14.1862 14.6938 13.1065 12.576 11.902 11.6042C11.0949 10.7453 10.0343 10.1669 8.87517 9.95332C7.71603 9.73977 6.51897 9.90226 5.4587 10.4171C5.24515 10.5352 5.0422 10.6715 4.85211 10.8246C7.15502 9.72667 10.1365 11.9452 10.7504 12.7909L10.8048 12.8436L10.8637 12.8912C11.6681 13.5402 12.8929 15.732 13.9734 17.6658C14.3221 18.2898 15.9985 21.2439 15.9985 21.2439C17.4713 24.1424 18.6407 25.7606 21.3476 26.0629C21.4618 26.0629 21.5773 26.0576 21.6999 26.0467C21.8591 26.0364 22.0114 26.0209 22.1586 26.0016C24.2218 25.1741 24.3812 22.6498 24.3239 21.6977Z" fill="url(#paint4_linear_1324_4)"/>
<defs>
<linearGradient id="paint0_linear_1324_4" x1="7.69963" y1="17.972" x2="27.0399" y2="17.972" gradientUnits="userSpaceOnUse">
<stop stop-color="#6F211F"/>
<stop offset="0.01" stop-color="#931042"/>
<stop offset="0.03" stop-color="#B31C4B"/>
<stop offset="0.05" stop-color="#CA154C"/>
<stop offset="0.2" stop-color="#F03539"/>
<stop offset="0.3" stop-color="#F14C22"/>
<stop offset="0.5" stop-color="#F36D27"/>
<stop offset="0.6" stop-color="#F36D27"/>
<stop offset="1" stop-color="#F8B915"/>
</linearGradient>
<linearGradient id="paint1_linear_1324_4" x1="13.6114" y1="20.8436" x2="18.486" y2="18.0292" gradientUnits="userSpaceOnUse">
<stop stop-opacity="0"/>
<stop offset="0.5" stop-opacity="0.9"/>
<stop offset="1" stop-opacity="0"/>
</linearGradient>
<linearGradient id="paint2_linear_1324_4" x1="24.7538" y1="10.5637" x2="24.7538" y2="26.0023" gradientUnits="userSpaceOnUse">
<stop stop-color="#141021"/>
<stop offset="0.02" stop-color="#1C192F"/>
<stop offset="0.03" stop-color="#131B34"/>
<stop offset="0.05" stop-color="#2C2440"/>
<stop offset="0.2" stop-color="#5B4D86"/>
<stop offset="0.4" stop-color="#6E76B7"/>
<stop offset="0.6" stop-color="#608AC3"/>
<stop offset="0.8" stop-color="#5493CA"/>
<stop offset="1" stop-color="#2778A0"/>
</linearGradient>
<linearGradient id="paint3_linear_1324_4" x1="14.2549" y1="11.2127" x2="12.9343" y2="26.3073" gradientUnits="userSpaceOnUse">
<stop stop-color="#131B34"/>
<stop offset="0.01" stop-color="#122744"/>
<stop offset="0.1" stop-color="#0E4B74"/>
<stop offset="0.2" stop-color="#1F6E96"/>
<stop offset="0.7" stop-color="#5DC3B4"/>
<stop offset="0.8" stop-color="#5ABB8E"/>
<stop offset="0.9" stop-color="#4EA479"/>
<stop offset="1" stop-color="#469971"/>
</linearGradient>
<linearGradient id="paint4_linear_1324_4" x1="6.89168" y1="8.78499" x2="23.19" y2="25.0834" gradientUnits="userSpaceOnUse">
<stop stop-color="#FDEE59"/>
<stop offset="0.3" stop-color="#DCE242"/>
<stop offset="0.5" stop-color="#C4D732"/>
<stop offset="0.7" stop-color="#B3D332"/>
<stop offset="0.8" stop-color="#77A63D"/>
<stop offset="0.89" stop-color="#42672B"/>
<stop offset="0.92" stop-color="#3B5B2D"/>
<stop offset="0.97" stop-color="#325022"/>
<stop offset="0.99" stop-color="#2B3D1A"/>
<stop offset="1" stop-color="#2B3D1A"/>
</linearGradient>
</defs>
</svg>
