<svg width="32" height="32" viewBox="0 0 32 32" fill="none" xmlns="http://www.w3.org/2000/svg">
    <circle cx="16" cy="16" r="16" fill="white"/>
    <path fill-rule="evenodd" clip-rule="evenodd" d="M15.993 29.1073L8.16203 23.1618C8.16203 23.1618 7.77553 22.7743 7.62068 22.5504C7.45566 22.3117 7.32217 22.05 7.21469 21.7804C7.13163 21.5719 7.07501 21.3523 7.03264 21.1317C7.01314 21.0303 7 20.8236 7 20.8236L7.00466 7.01922C7.00466 7.01922 7.09095 6.78911 7.15867 6.68782C7.23156 6.57891 7.32293 6.48102 7.42481 6.39855C7.52864 6.31421 7.64916 6.25107 7.77003 6.19326C7.99607 6.08528 8.23407 6.00171 8.4747 5.93195C9.11004 5.74803 10.4161 5.52122 10.4161 5.52122C10.4161 5.52122 11.1521 5.39408 11.5222 5.34382C12.3006 5.23805 13.0812 5.1404 13.8649 5.08243C14.4563 5.0387 15.0499 5.02988 15.6429 5.01717C16.1298 5.00666 16.617 4.99004 17.1036 5.00784C17.8475 5.03497 18.5892 5.10887 19.3296 5.18516C19.7244 5.22584 20.5105 5.3345 20.5105 5.3345L23.2219 5.87584C23.2219 5.87584 23.688 5.9856 23.9127 6.06714C24.1069 6.13783 24.3053 6.20928 24.4773 6.32396C24.578 6.39109 24.6657 6.47821 24.7433 6.57127C24.7988 6.6379 24.845 6.71282 24.8833 6.79063C24.9177 6.86038 24.9458 6.93404 24.9626 7.00998C24.9815 7.09533 24.9859 7.27129 24.9859 7.27129L25 9.80071L24.9907 20.8844C24.9907 20.8844 24.9116 21.2979 24.8554 21.5005C24.8085 21.6697 24.7595 21.8398 24.6874 21.9999C24.6233 22.1422 24.5382 22.2743 24.4541 22.4058C24.3569 22.5584 24.26 22.7127 24.1413 22.8491C24.0153 22.9947 23.8682 23.1211 23.7215 23.2458C23.5649 23.3789 23.2313 23.6192 23.2313 23.6192C20.7961 25.4583 18.2294 27.4065 15.9931 29.1074L15.993 29.1073Z" fill="#2D315F"/>
    <path d="M8.97258 19.9553L8.39098 19.5375L7.79717 19.9375L8.01482 19.2555L7.45085 18.8144L8.16688 18.8106L8.41216 18.138L8.63702 18.8178L9.35264 18.8431L8.7756 19.267L8.97258 19.9553ZM8.71746 13.6738L8.20849 13.3081L7.68868 13.6582L7.87921 13.0611L7.3855 12.675L8.01228 12.6716L8.22706 12.0828L8.42386 12.6778L9.05022 12.7001L8.54506 13.0712L8.71746 13.6738ZM8.85562 8.37233L8.30097 7.97372L7.73454 8.35529L7.94219 7.70461L7.40423 7.28379L8.0872 7.28015L8.32114 6.63853L8.53557 7.28693L9.21821 7.31117L8.66779 7.71546L8.85562 8.37233ZM16.3414 7.41102L15.7866 7.0124L15.2202 7.39397L15.4278 6.74321L14.8899 6.32239L15.5729 6.31883L15.8068 5.67722L16.0213 6.32561L16.7039 6.34976L16.1535 6.75406L16.3414 7.41102ZM18.908 12.6845L18.3534 12.2859L17.7869 12.6675L17.9946 12.0168L17.4566 11.5961L18.1395 11.5925L18.3735 10.9509L18.588 11.5993L19.2706 11.6235L18.7202 12.0278L18.908 12.6845ZM14.0546 16.1846L13.4998 15.786L12.9333 16.1678L13.141 15.517L12.6031 15.0962L13.2861 15.0926L13.52 14.4509L13.7344 15.0993L14.4171 15.1235L13.8667 15.5278L14.0546 16.1846Z" fill="white"/>
    <path fill-rule="evenodd" clip-rule="evenodd" d="M16.4268 11.5456L16.4081 9.08157C16.4081 9.08157 16.7542 9.27626 16.9402 9.34296C17.0546 9.38398 17.1738 9.41704 17.2948 9.42687C17.4316 9.43823 17.5726 9.43297 17.7055 9.3989C17.835 9.36585 17.9617 9.3099 18.0695 9.23108C18.1441 9.17624 18.202 9.10055 18.2562 9.02563C18.3045 8.95901 18.3776 8.81094 18.3776 8.81094C18.3776 8.81094 18.6934 8.88154 18.8535 8.87621C18.9772 8.87222 19.1009 8.84331 19.2175 8.80162C19.3433 8.75669 19.4662 8.69626 19.5722 8.61498C19.6629 8.54531 19.746 8.46072 19.8055 8.36291C19.8484 8.29239 19.8753 8.2112 19.8895 8.12966C19.9013 8.06228 19.8951 7.99252 19.8895 7.92438C19.8869 7.85403 19.8702 7.78978 19.8428 7.72833L21.1495 7.9337L16.4268 11.5456Z" fill="white"/>
    <path d="M23.6863 8.38133L23.1316 7.9828L22.5651 8.36438L22.7727 7.7137L22.2349 7.29296L22.9178 7.2894L23.1518 6.64778L23.3662 7.29618L24.0489 7.32033L23.4985 7.72463L23.6863 8.38133Z" fill="white"/>
    <path fill-rule="evenodd" clip-rule="evenodd" d="M9.52936 16.7724L9.53868 8.20424L11.2001 7.8775C11.2001 7.8775 11.234 8.07583 11.2747 8.16687C11.3114 8.24865 11.3642 8.32392 11.4241 8.39079C11.5568 8.53878 11.7041 8.68363 11.8815 8.77347C12.0443 8.85594 12.2318 8.88603 12.4135 8.90399C12.5593 8.91858 12.7088 8.91434 12.8522 8.88535C12.9401 8.8678 13.1042 8.79212 13.1042 8.79212C13.1042 8.79212 13.2242 9.02291 13.3143 9.1142C13.4024 9.20353 13.5135 9.27049 13.6271 9.32414C13.7444 9.37966 13.8721 9.41433 14.0003 9.43602C14.1323 9.45865 14.2679 9.46272 14.4017 9.45483C14.5528 9.44585 14.7036 9.42025 14.8497 9.38025C14.9655 9.34829 15.1856 9.24947 15.1856 9.24947V12.4696L12.1894 14.7749L12.1942 14.3876C12.1942 14.3876 12.3482 14.3012 12.4136 14.2429C12.5291 14.1402 12.6292 14.0187 12.7123 13.8883C12.8155 13.7263 12.8915 13.5469 12.955 13.3656C12.9942 13.2538 13.0162 13.1365 13.0389 13.0202C13.0588 12.9191 13.0846 12.7144 13.0846 12.7144C13.0846 12.7144 12.9756 12.7407 12.92 12.7473C12.8249 12.7585 12.633 12.7579 12.633 12.7579C12.633 12.7579 12.8129 12.6903 12.9005 12.6507C12.957 12.6251 13.0125 12.5974 13.0663 12.5668C13.1435 12.5225 13.226 12.4837 13.291 12.423C13.4209 12.3013 13.5184 12.1472 13.6082 11.9936C13.6926 11.8492 13.7582 11.6938 13.8136 11.5361C13.9616 11.1146 14.0185 10.6659 14.1496 10.2388C14.1931 10.0967 14.2989 9.8187 14.2989 9.8187C14.2989 9.8187 14.1031 9.79548 14.0095 9.8187C13.9514 9.83311 13.8965 9.86413 13.8509 9.90278C13.761 9.97863 13.7038 10.0865 13.6362 10.1827C13.5105 10.3613 13.4062 10.5542 13.2815 10.7334C13.2193 10.8228 13.1552 10.9111 13.0856 10.9948C13.0503 11.0372 12.9735 11.116 12.9735 11.116C12.9735 11.116 12.617 10.8977 12.5161 10.7241C12.4668 10.6392 12.4824 10.5304 12.4602 10.4347C12.436 10.3311 12.3761 10.1267 12.3761 10.1267C12.3761 10.1267 12.5371 9.85871 12.6001 9.71606C12.6349 9.63766 12.6747 9.55841 12.684 9.47331C12.693 9.39237 12.6846 9.30693 12.6561 9.23065C12.6311 9.16353 12.5965 9.08953 12.5348 9.05326C12.5052 9.03588 12.4321 9.04393 12.4321 9.04393L11.8536 9.41729C11.8536 9.41729 11.776 9.36949 11.7322 9.36135C11.6848 9.35245 11.6326 9.35321 11.5875 9.37067C11.4667 9.41729 11.3822 9.52874 11.2841 9.61333C11.2392 9.65215 11.1536 9.73454 11.1536 9.73454C11.1536 9.73454 10.9999 9.67181 10.9201 9.67859C10.873 9.68266 10.8265 9.70487 10.7896 9.73454C10.7688 9.75149 10.753 9.77522 10.743 9.79997C10.7275 9.83785 10.717 9.88108 10.7244 9.92134C10.7555 10.0934 10.9166 10.2161 10.9809 10.3787C11.0309 10.5053 11.0596 10.6406 11.0789 10.7754C11.0995 10.9186 11.1037 11.0647 11.0975 11.2093C11.0863 11.4788 11.054 11.7489 10.995 12.012C10.9354 12.277 10.83 12.5295 10.7429 12.7866C10.6646 13.018 10.6097 13.2593 10.5002 13.4774C10.4227 13.6317 10.2108 13.9068 10.2108 13.9068C10.2108 13.9068 10.0998 14.0067 10.0801 14.0748C10.0671 14.1199 10.0699 14.1747 10.0941 14.2148C10.1201 14.2581 10.1729 14.2812 10.2201 14.2988C10.2672 14.3162 10.3695 14.3174 10.3695 14.3174C10.3695 14.3174 10.4512 14.451 10.4815 14.5228C10.5347 14.6488 10.5773 14.7804 10.6027 14.9148C10.6185 14.9976 10.6166 15.0826 10.6214 15.1668C10.6258 15.2414 10.6292 15.3162 10.6309 15.3908C10.6332 15.5059 10.6358 15.6212 10.6309 15.7362C10.6277 15.808 10.6122 15.9509 10.6122 15.9509L9.52936 16.7724Z" fill="white"/>
    <path fill-rule="evenodd" clip-rule="evenodd" d="M7.92255 21.5233C7.92255 21.5233 8.10054 21.8735 8.20878 22.0368C8.31362 22.1947 8.42626 22.3493 8.55882 22.4848C8.76538 22.6958 9.01287 22.8623 9.24485 23.0448C9.42513 23.1865 9.79323 23.4601 9.79323 23.4601V20.086L7.92255 21.5233Z" fill="#B0382A"/>
    <path fill-rule="evenodd" clip-rule="evenodd" d="M9.79346 20.086L12.3085 18.1837V25.3711L9.79346 23.4602" fill="white"/>
    <path fill-rule="evenodd" clip-rule="evenodd" d="M12.308 18.1837L14.7302 16.2896V27.2323L12.308 25.371" fill="#B0382A"/>
    <path fill-rule="evenodd" clip-rule="evenodd" d="M14.7299 27.2322L16.0005 28.2155L17.2413 27.2322V14.3888L14.7299 16.2895" fill="white"/>
    <path fill-rule="evenodd" clip-rule="evenodd" d="M17.2416 27.2322L19.677 25.3777V12.5143L17.2416 14.3886" fill="#B0382A"/>
    <path fill-rule="evenodd" clip-rule="evenodd" d="M19.6769 25.3775L22.1749 23.5032V10.6003L19.6769 12.5143" fill="white"/>
    <path fill-rule="evenodd" clip-rule="evenodd" d="M22.1754 10.6005L24.218 9.06934V20.7775C24.218 20.7775 24.1889 20.9798 24.1696 21.0802C24.1482 21.1914 24.129 21.3035 24.0951 21.4116C24.0542 21.5412 24.0015 21.6677 23.941 21.7896C23.8884 21.8951 23.8277 21.9971 23.7603 22.0938C23.6739 22.2184 23.5791 22.338 23.4743 22.4475C23.3379 22.5899 23.1827 22.7137 23.031 22.8395C22.753 23.0699 22.1754 23.5034 22.1754 23.5034" fill="#B0382A"/>
</svg>
