<svg width="32" height="32" viewBox="0 0 32 32" fill="none" xmlns="http://www.w3.org/2000/svg">
    <path d="M16 32C24.8366 32 32 24.8366 32 16C32 7.16344 24.8366 0 16 0C7.16344 0 0 7.16344 0 16C0 24.8366 7.16344 32 16 32Z" fill="#2E3148"/>
    <path d="M16 25.2841C21.1274 25.2841 25.284 21.1275 25.284 16.0002C25.284 10.8728 21.1274 6.71619 16 6.71619C10.8726 6.71619 6.71606 10.8728 6.71606 16.0002C6.71606 21.1275 10.8726 25.2841 16 25.2841Z" fill="#1B1E36"/>
    <path d="M16.0329 2.04108C14.3058 2.04108 12.9053 8.3054 12.9053 16.0329C12.9053 23.7604 14.3058 30.0247 16.0329 30.0247C17.76 30.0247 19.1604 23.7604 19.1604 16.0329C19.1604 8.3054 17.76 2.04108 16.0329 2.04108ZM16.2488 29.2351C16.0513 29.4985 15.8538 29.3009 15.8538 29.3009C15.0584 28.3793 14.6607 26.6671 14.6607 26.6671C13.2695 22.1898 13.6006 12.5766 13.6006 12.5766C14.2544 4.94476 15.4438 3.14188 15.8485 2.74162C15.8899 2.70077 15.9443 2.67581 16.0022 2.67112C16.0601 2.66644 16.1179 2.68234 16.1652 2.71602C16.7525 3.13215 17.245 4.87244 17.245 4.87244C18.6995 10.2716 18.5678 15.3416 18.5678 15.3416C18.6995 19.7531 17.8389 24.6913 17.8389 24.6913C17.1765 28.4443 16.2488 29.2351 16.2488 29.2351Z" fill="#6F7390"/>
    <path d="M28.1692 9.06976C27.3093 7.57113 21.1793 9.47398 14.4732 13.3194C7.76719 17.1647 3.03683 21.4972 3.89609 22.9951C4.75536 24.4931 10.886 22.5909 17.5921 18.7455C24.2981 14.9002 29.0285 10.5677 28.1692 9.06976ZM4.68944 22.7896C4.36022 22.7481 4.43459 22.4775 4.43459 22.4775C4.83843 21.3292 6.12355 20.1322 6.12355 20.1322C9.31625 16.6972 17.8201 12.2006 17.8201 12.2006C24.7646 8.96966 26.9216 9.10598 27.4688 9.25664C27.525 9.27231 27.5738 9.30736 27.6066 9.35558C27.6394 9.40379 27.6541 9.46206 27.648 9.52006C27.5822 10.2369 26.3147 11.5297 26.3147 11.5297C22.3579 15.4796 17.8944 17.8888 17.8944 17.8888C14.1334 20.1992 9.42172 21.9092 9.42172 21.9092C5.83657 23.2011 4.68956 22.7896 4.68956 22.7896H4.68944Z" fill="#6F7390"/>
    <path d="M28.1388 23.0454C29.0054 21.5507 24.2869 17.1985 17.6044 13.3242C10.9219 9.44986 4.79266 7.52346 3.92687 9.02068C3.06108 10.5179 7.77877 14.8676 14.4651 18.7419C21.1514 22.6162 27.273 24.5427 28.1388 23.0454ZM4.50108 9.59821C4.37308 9.29472 4.64329 9.22164 4.64329 9.22164C5.83958 8.99572 7.51996 9.51053 7.51996 9.51053C12.0915 10.5516 20.2431 15.6577 20.2431 15.6577C26.5194 20.0495 27.4819 21.984 27.6262 22.5331C27.6409 22.5894 27.6352 22.6491 27.6101 22.7017C27.585 22.7542 27.5422 22.7962 27.4892 22.8202C26.8348 23.1199 25.0819 22.6734 25.0819 22.6734C19.6794 21.2248 15.3588 18.5707 15.3588 18.5707C11.4767 16.4769 7.63797 13.2552 7.63797 13.2552C4.72111 10.7992 4.50198 9.60154 4.50198 9.60154L4.50108 9.59821Z" fill="#6F7390"/>
    <path d="M16 17.6463C16.9091 17.6463 17.646 16.9093 17.646 16.0002C17.646 15.0911 16.9091 14.3541 16 14.3541C15.0909 14.3541 14.3539 15.0911 14.3539 16.0002C14.3539 16.9093 15.0909 17.6463 16 17.6463Z" fill="#B7B9C8"/>
    <path d="M22.7489 10.6666C23.2762 10.6666 23.7037 10.2244 23.7037 9.67896C23.7037 9.1335 23.2762 8.69131 22.7489 8.69131C22.2216 8.69131 21.7942 9.1335 21.7942 9.67896C21.7942 10.2244 22.2216 10.6666 22.7489 10.6666Z" fill="#B7B9C8"/>
    <path d="M7.07813 14.0246C7.60542 14.0246 8.03288 13.5824 8.03288 13.0369C8.03288 12.4915 7.60542 12.0493 7.07813 12.0493C6.55084 12.0493 6.12338 12.4915 6.12338 13.0369C6.12338 13.5824 6.55084 14.0246 7.07813 14.0246Z" fill="#B7B9C8"/>
    <path d="M14.0576 26.14C14.5849 26.14 15.0124 25.6978 15.0124 25.1523C15.0124 24.6069 14.5849 24.1647 14.0576 24.1647C13.5303 24.1647 13.1029 24.6069 13.1029 25.1523C13.1029 25.6978 13.5303 26.14 14.0576 26.14Z" fill="#B7B9C8"/>
</svg>
