<svg width="32" height="32" viewBox="0 0 32 32" fill="none" xmlns="http://www.w3.org/2000/svg">
    <path d="M16 32C24.8366 32 32 24.8366 32 16C32 7.16344 24.8366 0 16 0C7.16344 0 0 7.16344 0 16C0 24.8366 7.16344 32 16 32Z" fill="#EFF4F4"/>
    <path d="M17.8961 8.10695C18.3955 8.96805 18.8992 9.82485 19.3987 10.686C19.8852 11.5298 20.3717 12.3737 20.8582 13.2176C20.8927 13.2779 20.9487 13.3295 20.9487 13.407C20.9616 13.618 21.095 13.773 21.1812 13.9538C21.263 14.1217 21.3534 14.2854 21.418 14.4576C21.4868 14.647 21.4481 14.7503 21.2759 14.858C21.2285 14.8881 21.1725 14.9097 21.1252 14.9398C20.9573 15.0431 20.9271 15.1766 21.0348 15.3359C21.1037 15.4435 21.2802 15.5253 21.1769 15.6803C21.0692 15.8439 20.9056 15.9516 20.6946 15.9559C20.587 15.9301 20.5396 15.8396 20.488 15.7535C20.0445 14.9915 19.601 14.2337 19.1447 13.4415C19.2652 13.9022 19.3212 14.3456 19.4116 14.7805C19.5235 15.3187 19.8378 15.7492 20.1995 16.1367C20.3803 16.3305 20.643 16.2314 20.8755 16.2142C20.94 16.2228 20.9831 16.2573 21.0089 16.3089C21.0348 16.3606 21.0692 16.4123 21.0563 16.4769C21.0348 16.5931 20.9487 16.6103 20.8453 16.6146C20.0746 16.6275 19.2609 15.9946 19.0801 15.2412C19.037 15.069 18.9897 14.8924 18.8777 14.746C18.8691 14.7245 18.8605 14.703 18.8519 14.6815C18.7529 14.2294 18.6151 13.7859 18.5161 13.3381C18.3998 12.8086 18.2663 12.2876 18.0769 11.7795C17.9822 11.5212 17.9951 11.2457 17.9434 10.9787C17.8702 10.6085 17.8315 10.2296 17.8401 9.85068C17.8401 9.7861 17.8229 9.71721 17.7669 9.67846C17.6119 9.56221 17.5904 9.3986 17.5861 9.21777C17.5731 8.925 17.6119 8.63222 17.6377 8.33945C17.6463 8.18445 17.7195 8.08112 17.8961 8.10695Z" fill="#D000D1"/>
    <path d="M26.2531 23.9598C26.1756 24.0115 26.0895 23.9986 26.0034 23.9986C21.0047 23.9943 16.0061 23.99 11.0031 23.9856C10.9299 23.9856 10.861 23.9813 10.7878 23.9727C10.3831 23.9081 10.1678 23.525 10.3659 23.1719C10.7663 22.4529 11.1925 21.7468 11.6058 21.0321C11.7221 21.0278 11.8082 21.101 11.8943 21.1655C13.0783 22.0309 14.2709 22.8877 15.455 23.7531C15.5583 23.8306 15.6616 23.8694 15.7908 23.8651C16.1481 23.8479 16.5055 23.8909 16.8629 23.8565C17.0523 23.8393 17.2374 23.9038 17.4269 23.8565C17.612 23.8436 17.8015 23.9081 17.9866 23.8565C18.5291 23.878 19.0716 23.835 19.6141 23.8823C19.6571 23.8866 19.6959 23.8651 19.7389 23.8565C20.3202 23.8823 20.9014 23.8263 21.4827 23.8866C21.5343 23.8909 21.5817 23.8694 21.629 23.8565C22.0897 23.8608 22.5504 23.8565 23.0111 23.8651C23.6096 23.8565 24.208 23.8522 24.8065 23.8737C24.9701 23.835 25.138 23.8909 25.3016 23.8651C25.5341 23.8522 25.7709 23.8565 26.0034 23.8651C26.1025 23.8608 26.2015 23.8565 26.2531 23.9598Z" fill="#260C80"/>
    <path d="M19.7431 23.9469C19.1532 23.9469 18.5677 23.9469 17.9778 23.9469C17.5128 23.7574 17.1512 23.4173 16.7507 23.1288C15.3687 22.1343 13.9909 21.1354 12.6175 20.1279C12.4926 20.0375 12.3075 19.9815 12.3376 19.7663C12.5012 19.3486 12.6864 19.2195 13.1212 19.2195C13.2633 19.2195 13.4054 19.2238 13.5475 19.2238C13.5647 19.2367 13.5776 19.2496 13.5905 19.2625C13.6508 19.3228 13.7154 19.3744 13.7627 19.4519C14.0986 20.0203 14.5076 20.5369 14.9381 21.0321C15.8896 22.0568 17.0823 22.6251 18.4385 22.892C18.5074 22.905 18.5806 22.9179 18.6452 22.9523C18.8303 23.1848 19.1102 23.2925 19.334 23.4819C19.4331 23.5637 19.5407 23.6326 19.644 23.7101C19.7129 23.7704 19.7861 23.8349 19.7431 23.9469Z" fill="#2A0E8E"/>
    <path d="M15.1837 13.4845C14.9125 13.5104 14.7747 13.7041 14.6541 13.9194C14.5465 13.9452 14.525 13.8591 14.4905 13.7902C14.2451 13.252 13.9696 12.7311 13.6682 12.223C13.6251 12.1541 13.595 12.0853 13.6165 12.0035C13.6682 11.8829 13.6122 11.7623 13.6165 11.6418C13.6208 10.7721 13.6165 9.90668 13.6208 9.03697C13.6208 8.92933 13.6079 8.82169 13.6768 8.72697C13.8275 8.61072 13.9179 8.72697 13.9911 8.826C14.2623 9.18335 14.525 9.54501 14.7704 9.91959C14.9082 10.1349 15.0416 10.3544 15.1708 10.5783C15.2311 10.686 15.3301 10.7893 15.2612 10.9314C15.2956 11.6719 15.2741 12.4125 15.2784 13.153C15.2784 13.2693 15.3 13.3984 15.1837 13.4845Z" fill="#7B1AC4"/>
    <path d="M13.7628 8.70971C13.6982 8.79152 13.7197 8.88624 13.7197 8.98096C13.7197 9.88942 13.7197 10.7979 13.7197 11.7106C13.7197 11.8312 13.7111 11.9518 13.6767 12.0723C13.5776 12.1067 13.5561 12.0206 13.5174 11.9647C13.1944 11.4695 12.8457 10.9916 12.4367 10.5568C12.2601 10.3673 12.0535 10.2166 11.864 10.0444C11.765 9.954 11.6315 9.89803 11.6057 9.74303C12.0018 9.0111 12.4195 8.29208 12.8543 7.58167C12.9447 7.56876 13.005 7.62042 13.0567 7.68501C13.2719 7.95625 13.5174 8.20597 13.7283 8.48583C13.78 8.55472 13.836 8.6236 13.7628 8.70971Z" fill="#781AC3"/>
    <path d="M14.413 4.87784C14.5292 4.67118 14.6325 4.46021 14.7574 4.26646C14.9899 3.9048 15.4764 3.91341 15.7003 4.27938C15.8553 4.5291 15.9888 4.79173 16.1309 5.04576C16.1438 5.20937 16.0318 5.27395 15.907 5.317C15.7563 5.37298 15.7391 5.45909 15.7993 5.60117C16.0878 6.27713 16.3978 6.94879 16.6432 7.64197C16.8929 8.34808 17.1211 9.06279 17.3752 9.76459C17.5129 10.1521 17.5861 10.5611 17.7885 10.9271C17.9908 11.4265 18.1157 11.9475 18.2578 12.4641C18.4903 13.2951 18.6797 14.139 18.9165 14.9699C19.0974 15.6115 19.4375 16.1798 20.0532 16.5199C20.3115 16.662 20.6 16.7266 20.8927 16.7438C20.9702 16.7481 21.0348 16.7352 21.0564 16.6448C21.0865 16.5285 21.1812 16.4769 21.2932 16.451C21.6204 16.3821 21.9175 16.2487 22.2059 16.0894C22.2963 16.042 22.3911 15.999 22.4858 16.0764C22.5116 16.1195 22.5374 16.1626 22.5633 16.2056C22.5116 16.352 22.3781 16.4209 22.2619 16.4984C22.0725 16.6276 21.8787 16.7481 21.6591 16.8213C21.4008 16.9117 21.4008 16.9117 21.4826 17.17C21.474 17.2045 21.4525 17.2303 21.4223 17.2475C20.8325 17.4284 20.29 17.3207 19.7991 16.9677C19.2136 16.5544 18.9165 15.9516 18.7314 15.2842C18.529 14.5566 18.3439 13.8204 18.1544 13.0884C17.8445 11.8786 17.457 10.6946 17.0092 9.52778C16.9145 9.28237 16.8025 9.04126 16.7035 8.79585C16.3375 7.87447 15.8725 6.99615 15.33 6.16519C15.0803 5.782 14.8048 5.42034 14.512 5.06729C14.4689 5.00701 14.4216 4.95534 14.413 4.87784Z" fill="#DF00DA"/>
    <path d="M16.8155 23.9469C16.4366 23.9469 16.0577 23.9512 15.6788 23.9512C15.6056 23.9512 15.541 23.9426 15.4764 23.8952C14.2279 22.9825 12.9793 22.074 11.735 21.1656C11.6833 21.1268 11.623 21.0967 11.6101 21.0278C11.7221 20.7996 11.8469 20.58 11.9933 20.3733C12.1095 20.3389 12.187 20.4121 12.2645 20.4724C13.173 21.1311 14.0815 21.7899 14.9899 22.4486C15.5453 22.8533 16.105 23.2494 16.6562 23.6584C16.7466 23.7273 16.8628 23.7962 16.8155 23.9469Z" fill="#280D86"/>
    <path d="M18.1028 19.2066C18.4859 18.9612 18.5462 18.7201 18.318 18.3239C18.1458 18.0183 17.9736 17.7126 17.8057 17.4112C17.8272 17.2347 17.7798 17.0624 17.7971 16.8859C17.8057 16.8084 17.7928 16.7309 17.8401 16.662C17.9564 16.5544 18.008 16.6663 18.0554 16.7352C18.2621 17.0495 18.4903 17.3509 18.7314 17.6394C19.0586 18.0269 19.4461 18.3283 19.9025 18.5478C19.9843 18.5866 20.0574 18.6167 20.0704 18.7201C20.1091 19.1162 20.1479 19.5123 20.0488 19.9084C19.9455 20.0375 19.8077 19.9988 19.6743 19.9773C19.5882 19.9643 19.5107 19.9299 19.4245 19.917C18.9897 19.8223 18.5936 19.6457 18.2147 19.4132C18.1372 19.3616 18.0683 19.3142 18.1028 19.2066Z" fill="#831BC8"/>
    <path d="M12.3333 17.9235C12.2429 18.1173 12.1525 18.3067 11.9114 18.3541C11.7995 18.3971 11.6789 18.3627 11.567 18.3756C11.102 18.1474 10.7145 17.8073 10.2968 17.5102C9.65102 17.0495 9.0052 16.5888 8.37229 16.1109C8.26034 16.0291 8.11826 15.9559 8.17854 15.7708C8.40242 15.5899 8.68228 15.6028 8.94061 15.5426C9.1645 15.5555 9.34102 15.689 9.51324 15.8138C10.4002 16.451 11.2785 17.1012 12.1697 17.7341C12.2386 17.7857 12.3075 17.8374 12.3333 17.9235Z" fill="#2C0F92"/>
    <path d="M17.8961 8.10695C17.7712 8.17584 17.7238 8.27487 17.7195 8.42126C17.7066 8.70542 17.6636 8.98958 17.6808 9.27805C17.6894 9.40722 17.6894 9.53638 17.8487 9.59235C17.9434 9.62249 17.9391 9.71291 17.9391 9.79041C17.9391 10.2683 18.0511 10.7419 18.0769 11.2112C18.107 11.8097 18.417 12.3091 18.4859 12.8774C18.5419 13.3381 18.7442 13.7644 18.8131 14.2251C18.8347 14.3801 18.8906 14.5394 18.9294 14.6987C18.8088 14.7245 18.8131 14.6298 18.7916 14.5566C18.5806 13.872 18.4299 13.1745 18.2405 12.49C18.0898 11.9389 17.8918 11.405 17.7497 10.8539C17.7324 10.7764 17.698 10.7032 17.6549 10.6386C17.3665 9.77749 17.0694 8.92069 16.7982 8.05959C16.6216 7.49988 16.5872 6.92294 16.6001 6.33739C16.6044 6.23406 16.6216 6.13503 16.7336 6.09198C17.1211 6.71628 17.487 7.35349 17.8315 8.00362C17.8487 8.03376 17.8745 8.0682 17.8961 8.10695Z" fill="#D700D4"/>
    <path d="M12.9448 7.4224C13.0439 7.21143 13.1601 7.01338 13.2893 6.81963C13.793 6.52255 14.3097 6.25561 14.8263 5.97575C14.9167 5.92839 15.0029 5.88534 15.1105 5.91117C15.3301 6.0877 15.4463 6.34172 15.5884 6.56991C15.6616 6.68616 15.7735 6.78949 15.7348 6.9531C15.709 7.00907 15.6702 7.04352 15.6142 7.06935C14.9727 7.40949 14.3269 7.74531 13.6983 8.10698C13.6552 8.13281 13.6079 8.15003 13.5562 8.15434C13.2634 7.98212 13.0309 7.76684 12.9448 7.4224Z" fill="#BC27D8"/>
    <path d="M9.66401 13.0927C9.74581 12.9119 9.84484 12.7354 9.96539 12.5761C10.2065 12.6019 10.3443 12.8 10.5079 12.9377C11.313 13.6266 12.1311 14.294 12.9319 14.9872C13.0266 15.069 13.0912 15.1895 13.229 15.2197C13.2849 15.3058 13.3409 15.3919 13.3883 15.4823C13.4399 15.6072 13.5476 15.7105 13.5347 15.8612C13.4658 15.9774 13.3969 16.0937 13.328 16.2056C13.216 16.253 13.1342 16.1927 13.0567 16.1281C12.1138 15.3316 11.1709 14.5351 10.228 13.7429C10.0859 13.6223 9.95248 13.4932 9.80178 13.3812C9.71567 13.3123 9.61665 13.2348 9.66401 13.0927Z" fill="#891CCA"/>
    <path d="M8.20438 15.8138C8.34216 16.0334 8.57466 16.1453 8.77271 16.2917C9.64242 16.9289 10.5207 17.5575 11.3991 18.1904C11.4593 18.2335 11.511 18.2808 11.5239 18.3583C11.1321 18.4143 10.7403 18.3669 10.3528 18.3842C10.2237 18.3799 10.1289 18.2981 10.0299 18.2335C9.29798 17.7254 8.58327 17.1872 7.85994 16.6663C7.78675 16.6146 7.72647 16.5586 7.72217 16.4639C7.85133 16.2357 7.9805 16.0075 8.11397 15.7794C8.14841 15.7664 8.18286 15.7794 8.20438 15.8138Z" fill="#2B0F8E"/>
    <path d="M14.4173 14.3155C14.3398 14.4791 14.2537 14.6384 14.1461 14.7848C13.9911 14.8666 13.9265 14.7461 13.8576 14.647C13.5347 14.1906 13.2505 13.7084 12.9362 13.2477C12.3765 12.4254 11.834 11.5901 11.2872 10.7549C11.214 10.6429 11.1494 10.5353 11.2226 10.4018C11.2958 10.2468 11.3733 10.1004 11.4767 9.96265C11.5843 9.91529 11.6101 10.01 11.6575 10.066C12.0407 10.5138 12.3162 11.0347 12.6477 11.5169C13.2032 12.335 13.7456 13.1573 14.2838 13.984C14.3484 14.0873 14.4001 14.195 14.4173 14.3155Z" fill="#5611B8"/>
    <path d="M12.9792 16.8041C12.8845 17.0021 12.7769 17.1916 12.6477 17.3681C12.5271 17.4112 12.5013 17.3035 12.4582 17.2389C12.1439 16.7869 11.7952 16.3649 11.3302 16.0506C11.2785 16.0162 11.2226 15.9817 11.1666 15.9473C10.9255 15.7708 10.6413 15.676 10.3572 15.5942C10.2538 15.5641 10.1505 15.5469 10.0687 15.4737C9.95245 15.2842 9.75009 15.1938 9.59509 15.0518C9.40996 14.8838 9.2119 14.7331 9.02677 14.5652C8.95788 14.505 8.91052 14.4404 8.93635 14.3457C9.03968 14.1132 9.17746 13.8979 9.31954 13.6869C9.47454 13.6826 9.56065 13.8032 9.65967 13.8893C10.6758 14.7547 11.7005 15.6115 12.7209 16.4726C12.8285 16.5673 12.9491 16.6534 12.9792 16.8041Z" fill="#7F1BC6"/>
    <path d="M12.3334 17.9235C11.9718 17.7814 11.7005 17.5102 11.3905 17.2949C10.6543 16.7739 9.92665 16.2401 9.19902 15.7105C9.13013 15.6588 9.05694 15.6416 8.97944 15.6459C8.97513 15.5512 9.04402 15.5253 9.11722 15.5167C9.84054 15.4651 10.538 15.5383 11.1623 15.9516C11.7565 16.296 12.1784 16.817 12.5487 17.381C12.5745 17.4198 12.5702 17.4628 12.5875 17.5016C12.5013 17.6393 12.4195 17.7814 12.3334 17.9235Z" fill="#2D1097"/>
    <path d="M7.71787 16.4553C8.50147 17.015 9.28937 17.5748 10.0687 18.1388C10.1462 18.1947 10.2366 18.2507 10.271 18.3497C9.92228 18.4057 9.56923 18.3411 9.22479 18.3799C8.79855 18.4229 8.4455 18.3067 8.12258 18.0268C7.89009 17.8288 7.62745 17.6609 7.37773 17.48C7.30454 17.4284 7.24426 17.3681 7.24426 17.2734C7.39065 16.9935 7.54134 16.718 7.71787 16.4553Z" fill="#290E8A"/>
    <path d="M11.2226 10.3975C11.214 10.4922 11.2743 10.5568 11.3217 10.63C12.0062 11.6633 12.6908 12.6923 13.3711 13.7256C13.5691 14.0227 13.7629 14.3241 13.9566 14.6255C14.004 14.6987 14.0514 14.7719 14.1461 14.7848C14.0858 14.957 13.9652 15.0991 13.8791 15.2541C13.7241 15.2928 13.6639 15.1723 13.5993 15.0733C13.0697 14.294 12.5703 13.4931 12.0364 12.7138C11.6919 12.2058 11.3604 11.6891 11.0246 11.1725C10.96 11.0735 10.9126 10.9744 10.96 10.8539C11.0289 10.6903 11.1193 10.5439 11.2226 10.3975Z" fill="#5012B5"/>
    <path d="M15.1836 13.4845C15.1836 12.7009 15.1836 11.9173 15.1836 11.1337C15.1836 11.0433 15.1621 10.9486 15.2267 10.8668C15.3171 10.8324 15.3558 10.8926 15.3903 10.9615C15.7649 11.6805 16.0921 12.4168 16.3849 13.1702C16.4064 13.2262 16.4064 13.2822 16.4107 13.3382C16.4193 13.7127 16.4667 14.0873 16.4365 14.4619C16.4279 14.5868 16.4107 14.7073 16.2428 14.703C16.0706 14.4102 15.894 14.1218 15.7261 13.8247C15.6056 13.6051 15.4333 13.4845 15.1836 13.4845Z" fill="#7D1AC5"/>
    <path d="M12.3333 19.7706C12.5572 20.0289 12.8586 20.1882 13.1255 20.3863C14.3999 21.3205 15.6787 22.2419 16.9574 23.1719C17.2416 23.3786 17.5257 23.5809 17.8099 23.7876C17.8702 23.835 17.9218 23.8952 17.9778 23.9512C17.7927 23.9512 17.6032 23.9512 17.4181 23.9512C16.8971 23.7144 16.4752 23.3312 16.0188 23.004C14.8003 22.1257 13.5862 21.2431 12.3763 20.3604C12.2773 20.2872 12.1482 20.2313 12.1654 20.072C12.1869 19.9514 12.2644 19.861 12.3333 19.7706Z" fill="#290E8A"/>
    <path d="M12.1654 20.0719C12.8199 20.5498 13.47 21.0321 14.1244 21.51C15.162 22.2634 16.204 23.0126 17.2416 23.766C17.3105 23.8134 17.3621 23.8866 17.4181 23.9512C17.2158 23.9512 17.0177 23.9512 16.8153 23.9512C16.5613 23.6541 16.2169 23.4647 15.9069 23.2408C14.6368 22.3108 13.3623 21.3851 12.0879 20.4594C12.0535 20.4336 12.0233 20.4035 11.9889 20.3776C12.0319 20.2614 12.0922 20.1623 12.1654 20.0719Z" fill="#290E8A"/>
    <path d="M23.799 18.3454C24.053 18.7803 24.3027 19.2152 24.5568 19.6457C24.4061 19.9385 24.1176 20.0849 23.8722 20.27C23.7172 20.3863 23.5751 20.5369 23.3641 20.5671C23.3426 20.5671 23.3211 20.5628 23.2996 20.5542C23.1704 20.4853 23.123 20.3475 23.0628 20.2313C22.9293 19.9858 22.7614 19.762 22.658 19.5036C22.6236 19.4433 22.6064 19.3831 22.615 19.3142C22.615 19.2927 22.6193 19.2711 22.6279 19.2496C22.7829 19.0343 23.0412 18.9482 23.2307 18.776C23.3469 18.6727 23.4718 18.5736 23.5794 18.4617C23.6397 18.3928 23.7043 18.3325 23.799 18.3454Z" fill="#8412CE"/>
    <path d="M16.3461 13.2779C16.062 12.4727 15.696 11.6978 15.2999 10.94C15.2827 10.9098 15.2525 10.8883 15.2267 10.8668C15.0157 10.3674 14.6971 9.9325 14.3871 9.49764C14.1934 9.2264 14.0255 8.92932 13.7628 8.71404C13.6337 8.4471 13.4012 8.25766 13.2246 8.02947C13.1084 7.87878 12.9792 7.73239 12.8544 7.586C12.8673 7.52142 12.9017 7.46975 12.9448 7.42239C13.1471 7.65059 13.3452 7.87878 13.5476 8.11127C13.6423 8.1328 13.7112 8.17586 13.7757 8.25336C13.9996 8.53321 14.2149 8.81738 14.4216 9.11015C14.6756 9.44598 14.9038 9.79042 15.1148 10.1521C15.3386 10.5267 15.5711 10.9012 15.7391 11.306C15.9629 11.7451 16.1782 12.1843 16.3332 12.6536C16.5442 13.1143 16.725 13.5879 16.9015 14.0615C17.0608 14.4274 17.2201 14.7977 17.3751 15.168C17.556 15.5296 17.7411 15.887 17.9306 16.2401C18.163 16.5974 18.3783 16.9677 18.6496 17.3035C18.994 17.7125 19.3643 18.0828 19.8422 18.3411C20.4794 18.6813 21.1166 18.6813 21.7624 18.3842C21.8658 18.3368 21.9648 18.2723 22.0897 18.311C22.1542 18.3368 22.1844 18.3842 22.193 18.4531C22.193 18.4789 22.1844 18.5047 22.1715 18.5263C21.9734 18.7243 21.7065 18.7674 21.4568 18.8363C21.065 18.9439 20.6688 18.9525 20.2727 18.8578C20.1522 18.8277 20.0618 18.7803 20.0058 18.6641C19.2954 18.3842 18.7873 17.8632 18.3439 17.2648C18.1889 17.0581 18.0468 16.8471 17.8961 16.6362C17.8014 16.6362 17.7626 16.5673 17.7196 16.4984C17.1986 15.6373 16.8111 14.7116 16.4495 13.7773C16.3892 13.618 16.3978 13.4372 16.3461 13.2779Z" fill="#911ECE"/>
    <path d="M24.6212 19.7749C24.8753 20.1882 25.1293 20.5972 25.3359 21.0364C25.3532 21.1311 25.2972 21.1871 25.2326 21.2301C24.9398 21.4368 24.66 21.6607 24.3457 21.8329C24.2596 21.8803 24.1778 21.9104 24.083 21.8846C24.0185 21.8501 23.9711 21.7985 23.9323 21.7382C23.7644 21.4497 23.5879 21.1699 23.4329 20.8728C23.4028 20.8125 23.3812 20.7565 23.3899 20.692C23.3899 20.6704 23.3942 20.6489 23.4028 20.6274C23.575 20.4379 23.8161 20.3389 24.0098 20.1753C24.1476 20.0547 24.3026 19.9557 24.4361 19.8265C24.4878 19.7706 24.5437 19.7275 24.6212 19.7749Z" fill="#A121D4"/>
    <path d="M25.4393 21.1914C25.8268 21.8588 26.2143 22.5261 26.6018 23.1935C26.675 23.3226 26.6664 23.469 26.6277 23.6111C26.5329 23.6843 26.4468 23.6326 26.3736 23.5767C25.7063 23.0987 25.0475 22.6165 24.3845 22.1386C24.3457 22.1085 24.307 22.074 24.2898 22.0267C24.2769 21.9147 24.3457 21.8501 24.4232 21.8028C24.7031 21.6435 24.9442 21.4368 25.2112 21.256C25.2757 21.2086 25.3403 21.1397 25.4393 21.1914Z" fill="#3B17B6"/>
    <path d="M14.4172 14.3155C14.2149 14.1347 14.1029 13.8936 13.9565 13.674C13.4011 12.8473 12.8543 12.0164 12.3075 11.1854C12.0836 10.8453 11.8641 10.5008 11.6359 10.1607C11.5885 10.0918 11.5541 10.01 11.4766 9.96263C11.4809 9.94972 11.4895 9.9368 11.4938 9.92388C11.6229 9.84208 11.7048 9.93249 11.7952 10.0014C12.6003 10.6042 13.1772 11.3964 13.6853 12.2489C13.9867 12.7526 14.2579 13.2693 14.4947 13.8031C14.5378 13.8979 14.5894 13.9969 14.5421 14.1088C14.499 14.1734 14.4603 14.2466 14.4172 14.3155Z" fill="#5C11BB"/>
    <path d="M10.96 10.8582C11.1021 11.1725 11.3174 11.4437 11.5025 11.7322C12.2129 12.8258 12.9362 13.9108 13.6596 14.9958C13.7241 15.0905 13.7801 15.1895 13.8834 15.2541C13.7887 15.4134 13.694 15.577 13.6036 15.7363C13.5132 15.7277 13.4916 15.6459 13.4486 15.5899C13.1515 15.0517 12.919 14.4791 12.5918 13.9581C12.5401 13.872 12.4842 13.7902 12.4282 13.7084C12.2689 13.4544 12.0837 13.2176 11.9072 12.9808C11.7479 12.7698 11.5369 12.6019 11.3174 12.4555C11.2442 12.4082 11.1753 12.3608 11.1408 12.2747C11.1064 12.068 10.9471 11.9346 10.8481 11.7623C10.7792 11.6375 10.6802 11.5298 10.6672 11.3791C10.7404 11.194 10.8395 11.0218 10.96 10.8582Z" fill="#4B12B3"/>
    <path d="M16.7336 6.0834C16.6259 6.81964 16.7508 7.53435 16.9488 8.24476C17.1598 9.01113 17.4052 9.7646 17.6722 10.5138C17.6851 10.5482 17.7066 10.5783 17.7238 10.6085C17.741 10.7247 17.8142 10.8367 17.7238 10.9529C17.6162 10.7635 17.5817 10.5525 17.5129 10.3501C17.3191 9.77321 17.1081 9.20488 16.9101 8.63225C16.5441 7.59032 16.1136 6.57422 15.6787 5.56243C15.6141 5.40743 15.5969 5.28688 15.8165 5.25674C15.95 5.23952 16.0447 5.14049 16.1394 5.05438C16.3504 5.3816 16.5484 5.73035 16.7336 6.0834Z" fill="#DA00D6"/>
    <path d="M16.3462 13.2779C16.5357 13.7472 16.7294 14.2165 16.9188 14.6858C17.1987 15.3617 17.5388 16.0032 17.8962 16.6362C17.8962 16.8213 17.8962 17.0021 17.8962 17.1873C17.8962 17.2734 17.8962 17.3595 17.8101 17.4111C17.3537 16.6275 16.8973 15.8439 16.4409 15.0603C16.3721 14.9441 16.3118 14.8235 16.2472 14.703C16.3462 14.6298 16.3505 14.5222 16.3505 14.4102C16.3419 14.0356 16.3462 13.6567 16.3462 13.2779Z" fill="#801BC6"/>
    <path d="M9.66403 13.0927C9.875 13.3597 10.1592 13.5491 10.4132 13.7644C11.0203 14.2897 11.6359 14.802 12.2516 15.3144C12.609 15.6115 12.9491 15.9301 13.328 16.2013C13.2763 16.3133 13.2376 16.4338 13.13 16.507C13.0309 16.5759 12.9534 16.5242 12.8802 16.4639C12.3205 15.9947 11.7651 15.5254 11.2097 15.0561C10.7017 14.6255 10.1936 14.1993 9.68555 13.773C9.56931 13.674 9.41431 13.5879 9.49181 13.3898C9.52625 13.2779 9.57361 13.1745 9.66403 13.0927Z" fill="#841BC8"/>
    <path d="M20.953 16.3348C20.9229 16.3047 20.897 16.2788 20.8669 16.2487C20.6774 16.1669 20.6387 16.0894 20.6947 15.9042C20.7506 15.8741 20.8109 15.8526 20.8669 15.8181C20.9573 15.7622 21.0865 15.7191 21.1209 15.6373C21.1683 15.5254 21.0047 15.4866 20.9444 15.4005C20.8023 15.1981 20.8411 14.9699 21.0649 14.8623C21.474 14.6599 21.3922 14.6901 21.2501 14.3198C21.164 14.0916 21.0606 13.872 20.9616 13.6525C20.9272 13.575 20.8798 13.4975 20.9444 13.4113C21.4008 14.1993 21.8615 14.9915 22.3178 15.7794C22.137 16.0291 21.8399 16.098 21.5859 16.2315C21.461 16.296 21.3233 16.3391 21.1855 16.3778C21.108 16.3951 21.0219 16.408 20.953 16.3348Z" fill="#D200D3"/>
    <path d="M24.2984 22.0094C24.6773 22.1601 24.9572 22.4529 25.2887 22.6768C25.7408 22.9782 26.1498 23.3355 26.6234 23.6068C26.5631 23.7919 26.4426 23.9124 26.2488 23.9555C25.9302 23.9512 25.6159 23.9512 25.2973 23.9469C25.0605 23.8091 24.9744 23.5551 24.8495 23.3398C24.6429 22.9911 24.4362 22.6423 24.2425 22.2893C24.2037 22.2204 24.165 22.1515 24.1736 22.0697C24.1779 22.0482 24.1865 22.0266 24.2037 22.0137C24.2382 21.9922 24.2683 21.9879 24.2984 22.0094Z" fill="#3916B1"/>
    <path d="M13.2031 15.2584C12.9103 15.1809 12.7381 14.9398 12.5185 14.7632C11.9028 14.2638 11.3 13.7472 10.7016 13.2305C10.4562 13.0152 10.1763 12.8344 9.96533 12.5804C10.0041 12.434 10.0902 12.3134 10.1849 12.2015C10.2882 12.2144 10.3787 12.2574 10.4519 12.322C10.9427 12.7483 11.4507 13.153 11.9373 13.5835C12.1224 13.7472 12.3377 13.8849 12.4927 14.083C12.54 14.1433 12.6218 14.139 12.6864 14.1734C12.8974 14.4705 13.0481 14.7934 13.1988 15.1249C13.216 15.1637 13.2375 15.211 13.2031 15.2584Z" fill="#8D1CCC"/>
    <path d="M22.6838 16.4123C22.8861 16.718 23.067 17.0366 23.2306 17.3638C23.2779 17.4628 23.2478 17.5446 23.1746 17.6135C22.8904 17.8762 22.5848 18.113 22.2575 18.3153C22.1973 18.3498 22.137 18.3541 22.0724 18.3282C22.038 18.3153 21.9949 18.311 21.9777 18.2852C21.771 17.9838 21.5299 17.6996 21.4653 17.3207C21.4739 17.2863 21.4955 17.2605 21.517 17.2389C21.9131 17.071 22.2532 16.8385 22.5073 16.4855C22.546 16.4295 22.5977 16.3692 22.6838 16.4123Z" fill="#AA22D5"/>
    <path d="M9.4918 13.3898C9.56069 13.6352 9.78888 13.7299 9.95679 13.8763C10.538 14.3844 11.1365 14.8666 11.722 15.3617C12.1268 15.7019 12.5272 16.042 12.9276 16.3864C12.9879 16.4381 13.0395 16.4984 13.1256 16.507C13.0783 16.606 13.0266 16.705 12.9793 16.8041C12.4368 16.352 11.89 15.8999 11.3475 15.4435C10.7318 14.9312 10.1204 14.4102 9.50902 13.8978C9.43583 13.8376 9.36694 13.7773 9.31958 13.6912C9.35833 13.5835 9.41861 13.4802 9.4918 13.3898Z" fill="#841BC7"/>
    <path d="M22.1585 18.4875C22.1585 18.4746 22.1585 18.4574 22.1585 18.4445C22.1585 18.3541 22.236 18.3325 22.2963 18.2981C22.5891 18.1216 22.8517 17.902 23.1143 17.6824C23.1875 17.6221 23.2607 17.5705 23.364 17.5877C23.5277 17.8331 23.674 18.0871 23.8032 18.3498C23.4975 18.7373 23.0971 19.0171 22.6752 19.2668C22.6364 19.297 22.5848 19.3056 22.5589 19.2754C22.3652 19.0386 22.1542 18.8148 22.1585 18.4875Z" fill="#9C20D3"/>
    <path d="M15.0932 5.95853C14.6756 6.17811 14.2666 6.4063 13.8446 6.61297C13.6681 6.69908 13.5174 6.87991 13.2849 6.81963C13.6294 6.19103 13.9867 5.57534 14.3613 4.96396C14.5464 5.01132 14.5895 5.20507 14.7143 5.31701C14.8521 5.44617 14.9425 5.60978 15.0545 5.76048C15.0975 5.82075 15.1449 5.88103 15.0932 5.95853Z" fill="#BF28D9"/>
    <path d="M7.24859 17.2734C7.71789 17.6092 8.20441 17.9192 8.63927 18.3024C8.70816 18.3627 8.78566 18.354 8.86315 18.354C9.33245 18.354 9.80606 18.354 10.2754 18.354C10.693 18.354 11.1063 18.354 11.5239 18.354C11.6531 18.354 11.7823 18.3584 11.9158 18.3584C11.8296 18.4186 11.7349 18.3971 11.6445 18.3971C10.3399 18.3971 9.03537 18.3928 7.73081 18.3971C7.46817 18.3971 7.22276 18.3799 7.07637 18.1216C6.92568 17.8589 7.0204 17.6264 7.16679 17.3982C7.18832 17.3552 7.21846 17.3164 7.24859 17.2734Z" fill="#270C83"/>
    <path d="M20.953 16.3348C21.3621 16.2358 21.7453 16.0678 22.1069 15.8526C22.1758 15.8095 22.2404 15.7751 22.3222 15.7751C22.3782 15.8741 22.4384 15.9774 22.4944 16.0765C22.0811 16.2444 21.6979 16.507 21.2415 16.5673C21.1985 16.5716 21.1425 16.6017 21.1468 16.6448C21.164 16.8471 21.0219 16.8084 20.9057 16.8127C20.1092 16.8299 19.2696 16.141 19.0113 15.4005C18.5936 14.2036 18.374 12.955 17.9822 11.7494C17.8961 11.4825 17.8057 11.2198 17.7196 10.9529C17.7196 10.8367 17.7196 10.7247 17.7196 10.6085C17.8359 10.7548 17.7842 10.94 17.8402 11.095C18.2277 12.1972 18.4774 13.3381 18.796 14.4576C18.8218 14.5437 18.8347 14.6427 18.9251 14.6987C18.994 14.8494 19.0328 15.0087 19.0715 15.168C19.1576 15.521 19.3428 15.8138 19.5796 16.0721C19.8035 16.3176 20.1092 16.4553 20.4278 16.5371C20.5655 16.5716 20.7076 16.6017 20.8497 16.6103C20.9444 16.6146 21.0521 16.6146 20.9918 16.4596C20.9789 16.4209 20.966 16.3778 20.953 16.3348Z" fill="#D700D5"/>
    <path d="M12.6434 14.2251C12.342 14.1218 12.1482 13.8677 11.9114 13.6783C11.3603 13.2348 10.8264 12.7698 10.2882 12.3091C10.2495 12.279 10.2237 12.2359 10.1892 12.1972C10.2064 12.1714 10.2193 12.1455 10.2366 12.1154C10.5767 12.0422 10.8652 12.1929 11.145 12.3479C11.6143 12.6019 11.9502 12.998 12.2429 13.4372C12.3075 13.5319 12.3678 13.6266 12.4367 13.717C12.5099 13.8161 12.5702 13.928 12.6347 14.0356C12.6649 14.0916 12.6907 14.1562 12.6434 14.2251Z" fill="#901DCD"/>
    <path d="M8.93635 14.3499C9.23343 14.647 9.56926 14.9011 9.88787 15.1723C9.97398 15.2455 10.073 15.3058 10.0988 15.4306C10.0472 15.521 9.95676 15.5254 9.87495 15.5124C9.45301 15.4522 9.03538 15.5081 8.61344 15.5555C8.5058 15.5684 8.35511 15.6545 8.29053 15.4694C8.48858 15.0862 8.70386 14.7116 8.93635 14.3499Z" fill="#791AC3"/>
    <path d="M14.5422 14.1045C14.0901 13.0066 13.5175 11.9776 12.7726 11.0519C12.4626 10.6687 12.1009 10.3501 11.7177 10.0487C11.6532 9.99707 11.5714 9.96262 11.4982 9.91957C11.5369 9.85929 11.5714 9.80332 11.6101 9.74304C12.0794 10.0401 12.4583 10.4319 12.8113 10.8539C13.1343 11.2371 13.4055 11.6547 13.6811 12.068C14.0083 12.6837 14.3355 13.2994 14.6584 13.9151C14.6154 13.9797 14.5766 14.0399 14.5422 14.1045Z" fill="#5810AF"/>
    <path d="M15.0931 5.95852C14.8477 5.62699 14.6066 5.29977 14.3612 4.96825C14.3784 4.93811 14.3913 4.91228 14.4086 4.88214C14.8606 5.317 15.218 5.82504 15.5538 6.35032C16.0016 7.05211 16.3762 7.79266 16.7077 8.55473C16.7378 8.61931 16.7508 8.69251 16.7723 8.75709C16.7335 8.81737 16.6733 8.82167 16.6087 8.80875C16.3848 8.64515 16.3331 8.37821 16.2255 8.14571C16.0877 7.81849 15.894 7.52141 15.7347 7.20711C15.6916 7.121 15.6485 7.0435 15.6959 6.94878C15.5323 6.59573 15.2912 6.29004 15.0931 5.95852Z" fill="#C32BDD"/>
    <path d="M8.29061 15.4694C8.47144 15.5253 8.64366 15.4435 8.81588 15.422C9.24643 15.366 9.67267 15.3789 10.0989 15.4263C10.4218 15.5124 10.7404 15.6071 11.0332 15.7664C11.1021 15.8009 11.1753 15.8267 11.2183 15.8999C11.2614 15.9645 11.2399 16.0076 11.1753 16.0334C10.5639 15.6803 9.90517 15.5512 9.20768 15.5985C9.13018 15.6028 9.04837 15.5942 8.97949 15.6416C8.71685 15.6717 8.45852 15.7234 8.2045 15.8138C8.17005 15.8009 8.13991 15.7837 8.10547 15.7707C8.17005 15.6717 8.23033 15.5684 8.29061 15.4694Z" fill="#7319BA"/>
    <path d="M13.5475 19.2582C13.5475 19.2496 13.5432 19.2367 13.5432 19.2281C15.0372 19.2281 16.5269 19.2281 18.0209 19.2281C18.008 19.3314 17.9176 19.3314 17.8487 19.3616C17.7325 19.3702 17.6205 19.3271 17.5043 19.3529C17.3105 19.3659 17.1125 19.3573 16.9187 19.34C16.8843 19.34 16.8498 19.3486 16.8154 19.3529C16.7207 19.3702 16.5915 19.3013 16.5441 19.4046C16.5097 19.4864 16.6173 19.5639 16.6647 19.6414C16.7723 19.8179 16.8972 19.9816 17.0048 20.1581C17.0608 20.2528 17.1383 20.3561 17.0048 20.4595C16.9187 20.4939 16.8584 20.4509 16.7939 20.3992C16.4494 20.1323 16.1179 19.8481 15.851 19.5036C15.7605 19.3874 15.6658 19.3099 15.5108 19.3616C15.2439 19.3745 14.9769 19.3271 14.71 19.3616C14.4 19.3529 14.09 19.3616 13.7757 19.3443C13.681 19.3573 13.6121 19.3185 13.5475 19.2582Z" fill="#4912B2"/>
    <path d="M12.385 13.7515C12.2214 13.5707 12.1095 13.3554 11.9545 13.1616C11.5369 12.6364 11.0116 12.2962 10.3485 12.1628C10.3098 12.1541 10.271 12.1326 10.2323 12.1154C10.2624 12.0594 10.2969 12.0035 10.327 11.9475C10.6155 11.8441 11.0116 11.9819 11.1795 12.2446C11.7435 12.5976 12.1181 13.1229 12.4712 13.6654C12.5056 13.7515 12.4755 13.7816 12.385 13.7515Z" fill="#A422D6"/>
    <path d="M21.4696 17.1528C21.3405 17.127 21.2888 17.0237 21.2845 16.916C21.2759 16.8041 21.4007 16.8084 21.4782 16.7826C21.7968 16.6835 22.0853 16.5285 22.3436 16.3176C22.4125 16.2616 22.4857 16.2229 22.5718 16.2013C22.5933 16.2401 22.6106 16.2831 22.6321 16.3219C22.4039 16.7266 22.0552 16.9892 21.6375 17.1787C21.5773 17.2088 21.517 17.2131 21.4696 17.1528Z" fill="#E400DF"/>
    <path d="M11.1795 12.2403C10.9083 12.1068 10.6284 11.9905 10.327 11.9432C10.4304 11.7494 10.5294 11.5557 10.6586 11.3792C10.8997 11.5987 11.0374 11.8915 11.1967 12.1628C11.2053 12.18 11.1838 12.2144 11.1795 12.2403Z" fill="#4412AF"/>
    <path d="M11.1752 16.0334C11.1881 15.9903 11.2053 15.943 11.2182 15.8999C11.7392 16.1841 12.1052 16.6233 12.4453 17.0969C12.5099 17.1873 12.5788 17.2777 12.6476 17.3724C12.6261 17.4155 12.6046 17.4585 12.5831 17.5016C12.3893 17.3509 12.2817 17.127 12.1353 16.9376C11.8684 16.5802 11.5282 16.3003 11.1752 16.0334Z" fill="#7218B4"/>
    <path d="M24.2984 22.0094C24.2725 22.0137 24.251 22.0137 24.2252 22.018C24.1219 22.0482 24.0917 21.9793 24.0702 21.9018C24.0702 21.8803 24.0788 21.8587 24.096 21.8415C24.5137 21.6736 24.8538 21.3765 25.2241 21.1225C25.2628 21.0924 25.3016 21.0622 25.3403 21.0321C25.4049 21.0622 25.4178 21.1268 25.4393 21.1871C25.0605 21.4626 24.6773 21.7382 24.2984 22.0094Z" fill="#921EC0"/>
    <path d="M17.853 19.2625C17.9133 19.2582 17.9693 19.2625 18.0209 19.2238C18.0468 19.2195 18.0769 19.2108 18.1027 19.2065C18.2233 19.3443 18.3869 19.4218 18.5462 19.495C18.8261 19.6199 19.093 19.7749 19.403 19.8222C19.4676 19.8567 19.502 19.904 19.4676 19.9772C19.4374 20.0418 19.3729 20.0633 19.304 20.0547C19.1102 20.0375 18.9294 19.9686 18.7572 19.8868C18.7012 19.861 18.6495 19.8179 18.585 19.805C18.3525 19.7318 18.1501 19.594 17.952 19.4563C17.8918 19.4132 17.8229 19.3615 17.853 19.2625Z" fill="#5B10B4"/>
    <path d="M23.3597 17.5834C22.9895 17.9149 22.6063 18.2249 22.1542 18.4401C22.1241 18.41 22.0982 18.3842 22.0681 18.354C22.0552 18.3454 22.0552 18.3368 22.0552 18.3239C22.0595 18.3153 22.0638 18.311 22.0681 18.311C22.3609 18.2163 22.5718 18.0053 22.8 17.8115C22.9593 17.6781 23.1617 17.5834 23.2349 17.3595C23.2952 17.4284 23.3339 17.5015 23.3597 17.5834Z" fill="#A524D6"/>
    <path d="M24.6212 19.7749C24.2466 20.0849 23.8806 20.4121 23.4458 20.6403C23.3468 20.6446 23.3166 20.6058 23.3597 20.5154C23.7343 20.2915 24.0916 20.0375 24.4102 19.7404C24.4533 19.7017 24.4963 19.6629 24.5523 19.65C24.5781 19.6888 24.5997 19.7318 24.6212 19.7749Z" fill="#B328DD"/>
    <path d="M21.4697 17.1528C21.8701 17.0624 22.1715 16.8127 22.4427 16.5242C22.5073 16.4553 22.5546 16.3778 22.6321 16.3262C22.6494 16.3563 22.6666 16.3864 22.6838 16.4166C22.4599 16.6103 22.2963 16.8687 22.0423 17.0323C21.8873 17.1356 21.728 17.226 21.5515 17.282C21.461 17.3207 21.418 17.2992 21.4223 17.1959C21.4395 17.1787 21.4524 17.1657 21.4697 17.1528Z" fill="#BF2ADF"/>
    <path d="M13.5045 15.5598C13.5562 15.6072 13.5777 15.6717 13.5992 15.7363C13.5777 15.7751 13.5562 15.8181 13.5346 15.8569C13.4399 15.7579 13.3796 15.6416 13.3323 15.5124C13.4012 15.4737 13.4485 15.5297 13.5045 15.5598Z" fill="#8D1CCC"/>
    <path d="M20.6946 15.9042C20.7506 16.0205 20.8109 16.1324 20.8669 16.2487C20.6731 16.3908 20.277 16.3778 20.122 16.2099C19.6656 15.7105 19.3298 15.1465 19.2437 14.4533C19.1963 14.083 19.1102 13.7213 19.037 13.3554C19.0241 13.2994 19.0112 13.2434 19.0758 13.1358C19.6226 14.0787 20.1565 14.9915 20.6946 15.9042Z" fill="#CB00CD"/>
    <path d="M20.9961 16.4639C21.0865 16.6318 21.0607 16.6921 20.8841 16.6749C20.1522 16.6146 19.4762 16.24 19.1576 15.521C19.0414 15.2627 18.9337 14.9914 18.9294 14.6987C19.0758 14.8451 19.0887 15.0431 19.1447 15.2239C19.4289 16.098 19.9714 16.4467 20.8196 16.5457C20.8884 16.5543 20.9659 16.55 20.9961 16.4639Z" fill="#D700D4"/>
    <path d="M24.8279 23.9512C24.2252 23.9512 23.6224 23.9512 23.0196 23.9512C22.6321 23.7531 22.3006 23.4733 21.9519 23.215C21.8571 23.1461 21.7753 23.0643 21.8227 22.9265C21.8571 22.8619 21.9131 22.8447 21.9777 22.8275C22.3049 22.7457 22.6235 22.6466 22.9421 22.5347C23.0024 22.5132 23.067 22.5002 23.1316 22.5218C23.6611 22.892 24.1821 23.2709 24.7031 23.6541C24.7978 23.7273 24.914 23.8005 24.8279 23.9512Z" fill="#30129E"/>
    <path d="M24.8279 23.9512C24.8107 23.8522 24.7332 23.7962 24.66 23.7402C24.1993 23.4044 23.7386 23.0686 23.2779 22.737C23.222 22.694 23.1574 22.6596 23.1488 22.5777C23.1273 22.4744 23.2091 22.44 23.2736 22.4098C23.5191 22.2936 23.7688 22.1903 24.0013 22.0525C24.0745 22.0094 24.152 22.0137 24.2252 22.0611C24.5567 22.6294 24.8839 23.1934 25.2154 23.7618C25.2499 23.822 25.2757 23.8909 25.3058 23.9555C25.1422 23.9512 24.9829 23.9512 24.8279 23.9512Z" fill="#3213A4"/>
    <path d="M19.7432 23.9469C19.4763 23.6671 19.1361 23.4819 18.8304 23.2451C18.7443 23.1805 18.6496 23.1289 18.6238 23.0126C18.6582 22.948 18.7228 22.9265 18.7874 22.948C18.951 23.0083 19.1189 22.9739 19.2868 22.9911C19.7217 23.06 20.1651 23.0428 20.6043 23.0514C20.9315 23.2623 21.2372 23.5035 21.5472 23.7317C21.6161 23.7833 21.6807 23.8436 21.6376 23.9469C21.009 23.9512 20.3761 23.9469 19.7432 23.9469Z" fill="#2D1096"/>
    <path d="M21.6376 23.9512C21.4094 23.7058 21.1037 23.5551 20.8497 23.3441C20.7765 23.2795 20.6775 23.2408 20.6473 23.1332C20.6818 23.0298 20.7679 23.0126 20.854 23.0126C21.1468 23.004 21.4309 22.9351 21.7194 22.905C21.7754 22.9007 21.8227 22.9179 21.8529 22.9652C21.9433 23.159 22.1413 23.2322 22.2963 23.357C22.4815 23.5034 22.6752 23.6369 22.8733 23.7704C22.9422 23.8177 22.9852 23.8823 23.0197 23.9512C22.559 23.9512 22.0983 23.9512 21.6376 23.9512Z" fill="#2E119A"/>
    <path d="M13.5475 19.2582C13.6207 19.2582 13.6896 19.2625 13.7628 19.2625C14.1115 19.4433 14.3784 19.7318 14.6712 19.9772C15.2826 20.4853 15.8854 21.0019 16.4925 21.5143C16.8111 21.7812 17.1297 22.0482 17.4397 22.3194C17.5172 22.3883 17.6076 22.4615 17.5516 22.595C17.4741 22.6725 17.3923 22.6294 17.3148 22.5993C16.4795 22.2807 15.7218 21.8415 15.0932 21.2C15.0329 21.1354 14.964 21.088 14.8736 21.0751C14.3397 20.5369 13.9005 19.9299 13.5475 19.2582Z" fill="#7519C2"/>
    <path d="M14.8779 21.0709C15.0243 20.9804 15.1018 21.0924 15.1836 21.1785C15.7993 21.7985 16.5355 22.2204 17.345 22.5261C17.4096 22.5519 17.4828 22.5606 17.5516 22.5735C17.6851 22.4787 17.8143 22.5562 17.9348 22.5907C18.2319 22.6768 18.5376 22.7371 18.839 22.7974C18.9337 22.8017 19.0198 22.8232 19.1059 22.8619C19.149 22.9437 19.2652 22.9739 19.2695 23.0815C19.0543 23.0557 18.839 23.0342 18.628 23.0083C17.4096 22.7974 16.3031 22.3453 15.3515 21.5358C15.1793 21.3938 15.0157 21.2431 14.8779 21.0709Z" fill="#7018BA"/>
    <path d="M21.4266 17.1959C21.4568 17.2475 21.4998 17.2734 21.5558 17.282C21.5429 17.2949 21.5257 17.3121 21.5127 17.325C21.4525 17.4068 21.3707 17.4628 21.263 17.4757C20.544 17.5877 19.9197 17.4111 19.416 16.873C19.0758 16.563 18.8476 16.1798 18.7056 15.7449C18.5721 15.3617 18.4386 14.9785 18.3783 14.5738C18.2793 14.1734 18.12 13.7902 18.064 13.3812C18.0253 13.2564 17.965 13.1315 18.0554 13.0023C18.1372 12.955 18.1932 12.9851 18.2363 13.0583C18.4214 13.7687 18.6022 14.4834 18.796 15.1938C18.9165 15.6287 19.0887 16.042 19.3686 16.408C19.8939 17.0968 20.5784 17.3552 21.4266 17.1959Z" fill="#B726DA"/>
    <path d="M18.2363 13.0583C18.1803 13.0454 18.1243 13.0282 18.0683 13.0152C17.9822 13.0066 17.9478 12.9464 17.9263 12.8775C17.8315 12.5804 17.7325 12.2833 17.6765 11.9776C17.5388 11.4997 17.3364 11.039 17.2115 10.5568C17.0479 10.1435 16.8929 9.72585 16.7293 9.30821C16.7121 9.20058 16.6432 9.11447 16.6045 9.01544C16.57 8.92933 16.5313 8.84322 16.6045 8.75711C16.6604 8.75711 16.7207 8.75711 16.7767 8.75711C17.2804 9.83779 17.6378 10.9701 17.9779 12.1068C18.0726 12.4211 18.1501 12.744 18.2363 13.0583Z" fill="#BD29DB"/>
    <path d="M22.1586 18.4875C22.2835 18.6942 22.4083 18.9052 22.5332 19.1118C22.5676 19.1721 22.5935 19.2453 22.6753 19.2625C22.6753 19.2754 22.6753 19.2926 22.6753 19.3056C22.6236 19.3831 22.5676 19.4563 22.4815 19.4993C22.0768 19.6974 21.6635 19.8782 21.2114 19.9385C21.0952 19.9686 20.9789 19.9988 20.8583 20.0074C20.7679 20.016 20.6861 19.9901 20.6 19.9772C20.4106 19.9428 20.2168 20.0074 20.0317 19.9342C20.0231 19.9256 20.0145 19.9126 20.0059 19.904C20.0059 19.4864 20.0059 19.0731 20.0059 18.6554C20.6172 18.9052 21.22 18.8363 21.8185 18.6081C21.9304 18.5693 22.0424 18.5263 22.1586 18.4875Z" fill="#871CC9"/>
    <path d="M18.585 19.7361C18.8218 19.8136 19.0543 19.8911 19.2911 19.9643C19.4375 20.0117 19.459 19.9428 19.403 19.8266C19.6054 19.8438 19.7991 19.9256 20.0058 19.9127C20.1694 19.96 20.3373 19.9213 20.5009 19.9342C20.5827 19.9643 20.6042 20.0246 20.5999 20.1021C20.5956 20.1236 20.5827 20.1452 20.5655 20.1624C20.3847 20.2657 20.1866 20.2054 19.9972 20.2184C19.9326 20.2227 19.8422 20.1538 19.8034 20.2399C19.769 20.3131 19.8465 20.3734 19.8852 20.4293C20.0402 20.6618 20.1823 20.9029 20.3373 21.1354C20.4062 21.2431 20.4794 21.3679 20.3244 21.4713C20.0359 21.4928 19.7518 21.5531 19.459 21.4885C19.4331 21.4756 19.3987 21.4583 19.3987 21.4325C19.3643 21.0235 19.0457 20.7652 18.8605 20.4379C18.7787 20.2916 18.6668 20.1581 18.585 20.0074C18.529 19.917 18.4859 19.8223 18.585 19.7361Z" fill="#6011BD"/>
    <path d="M15.7002 6.94879C15.9069 7.33198 16.1523 7.69795 16.303 8.11128C16.1394 8.30072 15.8897 8.35238 15.6873 8.47724C15.317 8.70113 14.9252 8.88626 14.5464 9.10154C14.4904 9.13168 14.4344 9.16182 14.3655 9.1489C14.0943 8.80446 13.823 8.46002 13.5475 8.11128C14.2364 7.66781 14.9554 7.28462 15.7002 6.94879Z" fill="#B926D7"/>
    <path d="M13.5046 15.5598C13.4486 15.5469 13.3883 15.5297 13.3323 15.5167C13.2893 15.4306 13.2462 15.3445 13.2032 15.2584C13.031 14.9054 12.8587 14.5566 12.6435 14.2251C12.5574 14.0658 12.4712 13.9108 12.3851 13.7515C12.4325 13.7429 12.4626 13.7127 12.4712 13.6611C12.7769 14.0959 13.018 14.5652 13.2376 15.0474C13.3151 15.224 13.3926 15.4005 13.5046 15.5598Z" fill="#9B20D2"/>
    <path d="M22.7183 19.4778C22.9465 19.8093 23.1402 20.158 23.3254 20.5154C23.3426 20.6101 23.278 20.6661 23.2091 20.7005C22.8991 20.8771 22.5719 21.0191 22.2361 21.1483C22.1715 21.1741 22.094 21.1828 22.0294 21.1397C21.8701 20.8641 21.6807 20.6015 21.5084 20.3303C21.3534 20.0805 21.3965 19.9299 21.6677 19.8351C21.9519 19.7404 22.2318 19.6285 22.4944 19.4864C22.5676 19.4476 22.6408 19.4261 22.7183 19.4778Z" fill="#7010C4"/>
    <path d="M22.7183 19.4778C22.3738 19.6543 22.0337 19.8265 21.6591 19.9385C21.4869 19.9901 21.4438 20.0806 21.5558 20.2356C21.7022 20.4465 21.8399 20.6618 21.9863 20.8771C22.0337 20.9503 22.0853 21.0192 22.0294 21.1139C22.0208 21.1655 21.9906 21.2129 21.9476 21.2301C21.7194 21.3162 21.4955 21.4239 21.2372 21.3765C20.9961 21.0493 20.7808 20.7049 20.5612 20.3604C20.5138 20.2829 20.4923 20.2011 20.5698 20.1236C20.6301 20.016 20.7334 20.0289 20.8324 20.0117C20.9702 19.9944 21.1252 20.0031 21.2156 19.8653C21.728 19.7404 22.2102 19.5424 22.6795 19.3056C22.6881 19.3615 22.701 19.4175 22.7183 19.4778Z" fill="#6B10C1"/>
    <path d="M21.207 21.3248C21.4912 21.2904 21.7538 21.1914 22.0251 21.1096C22.4815 20.9632 22.9249 20.791 23.321 20.5111C23.334 20.5111 23.3512 20.5111 23.3641 20.5111C23.3684 20.5671 23.3985 20.6101 23.4502 20.636C23.4502 20.6489 23.4502 20.6661 23.4502 20.679C23.321 20.9115 23.0756 20.9761 22.8604 21.0837C22.3523 21.3335 21.827 21.5358 21.2587 21.6004C21.2199 21.6047 21.1855 21.5961 21.1554 21.5789C21.0606 21.4842 21.0305 21.3937 21.1769 21.3205C21.1855 21.3248 21.1984 21.3248 21.207 21.3248Z" fill="#A723D7"/>
    <path d="M19.4461 16.8084C19.8896 17.2002 20.389 17.4499 21.0047 17.4155C21.1812 17.4068 21.3405 17.338 21.5127 17.325C21.6979 17.6566 21.8873 17.9838 22.0724 18.3153C22.0724 18.3282 22.0724 18.3455 22.0724 18.3584C21.7797 18.4617 21.4998 18.6081 21.1855 18.6684C20.5827 18.7803 20.0532 18.6167 19.5623 18.2895C19.1791 18.0355 18.8218 17.7384 18.585 17.3293C18.5548 17.2518 18.585 17.183 18.6496 17.1442C18.8519 17.015 19.0629 16.8988 19.2825 16.7998C19.3298 16.7653 19.3901 16.7869 19.4461 16.8084Z" fill="#9C1ECE"/>
    <path d="M14.3612 9.1446C14.4344 9.00683 14.5808 8.95947 14.7013 8.89488C15.1362 8.64947 15.5797 8.42128 16.0188 8.18878C16.1092 8.14142 16.1997 8.10267 16.303 8.11128C16.402 8.32656 16.5053 8.54183 16.6044 8.75711C16.6776 8.92933 16.7465 9.10155 16.8196 9.27377C16.7378 9.38141 16.6044 9.41585 16.4967 9.47613C16.0877 9.6914 15.6787 9.91959 15.274 10.1392C15.2051 10.1779 15.1405 10.2296 15.0544 10.1779C14.8004 9.8464 14.5765 9.49765 14.3612 9.1446Z" fill="#B525D6"/>
    <path d="M15.0502 10.1779C15.4592 9.88946 15.907 9.67849 16.3461 9.44168C16.4925 9.36419 16.626 9.23932 16.8154 9.26946C16.9747 9.6871 17.1297 10.1004 17.289 10.5181C17.2374 10.6601 17.1039 10.7118 16.9876 10.7721C16.6432 10.9572 16.2945 11.1424 15.9543 11.3318C15.8553 11.3878 15.7563 11.4136 15.6572 11.3318C15.4549 10.9529 15.2525 10.5654 15.0502 10.1779Z" fill="#B224D5"/>
    <path d="M15.6572 11.3404C15.95 11.2844 16.1782 11.0864 16.4365 10.9615C16.725 10.8237 16.9962 10.6472 17.289 10.5266C17.4483 11.0002 17.6033 11.4739 17.7626 11.9475C17.6378 12.1197 17.4311 12.1627 17.2632 12.2704C17.0264 12.4211 16.768 12.5244 16.5312 12.6708C16.4451 12.7224 16.3504 12.7698 16.2557 12.6794C16.0576 12.2273 15.8553 11.7838 15.6572 11.3404Z" fill="#AE23D4"/>
    <path d="M16.26 12.6751C16.5915 12.5632 16.8714 12.3522 17.1857 12.2015C17.3751 12.1111 17.5474 11.9733 17.7669 11.9432C17.866 12.3005 17.9693 12.6622 18.0683 13.0195C18.0985 13.1358 18.1243 13.2477 18.1544 13.364C18.0468 13.5405 17.8401 13.575 17.6808 13.6783C17.4526 13.8247 17.1986 13.9194 16.979 14.0787C16.9317 14.1131 16.8757 14.1304 16.8197 14.0959C16.6303 13.618 16.4451 13.1444 16.26 12.6751Z" fill="#AA22D3"/>
    <path d="M16.8197 14.0916C17.2201 13.7687 17.6722 13.5405 18.1544 13.3597C18.219 13.7687 18.3998 14.1519 18.4558 14.5652C18.2448 14.7934 17.952 14.8838 17.6894 15.0302C17.5645 15.0991 17.4612 15.2283 17.2933 15.211C17.134 14.8408 16.9747 14.4662 16.8197 14.0916Z" fill="#A621D1"/>
    <path d="M17.2933 15.211C17.6292 14.9054 18.0296 14.7116 18.4558 14.5652C18.5721 14.9527 18.684 15.3402 18.8003 15.7277C18.6366 15.8913 18.4257 15.9774 18.2233 16.0721C18.0942 16.1367 18.0253 16.3046 17.853 16.2874C17.6636 15.9301 17.4785 15.5727 17.2933 15.211Z" fill="#A320D0"/>
    <path d="M17.853 16.2874C18.0898 15.9731 18.4257 15.8138 18.8002 15.7277C18.9337 16.1367 19.1791 16.4768 19.4461 16.8041C19.2093 16.9289 18.9725 17.0538 18.7357 17.1786C18.6711 17.2131 18.6194 17.2561 18.585 17.3207C18.3137 17.0925 18.1716 16.7696 17.9736 16.4855C17.9305 16.4252 17.8918 16.3563 17.853 16.2874Z" fill="#A01FCF"/>
    <path d="M21.2502 21.5401C21.7022 21.411 22.1586 21.3076 22.5849 21.101C22.8733 20.9632 23.1575 20.8211 23.446 20.679C23.6612 21.0665 23.8765 21.454 24.0918 21.8415C24.0918 21.8544 24.0918 21.8716 24.0918 21.8846C24.0832 21.9621 24.0358 22.0137 23.9712 22.0525C23.5321 22.2936 23.0757 22.5003 22.5935 22.6466C22.5504 22.6596 22.5074 22.6596 22.4643 22.6466C22.107 22.4873 21.8529 22.1903 21.5559 21.9578C21.4784 21.8975 21.3965 21.8415 21.3277 21.7683C21.2717 21.708 21.2243 21.6391 21.2502 21.5401Z" fill="#911DCD"/>
    <path d="M22.46 22.5777C22.9939 22.4529 23.4761 22.1989 23.9626 21.9491C24.0057 21.9276 24.053 21.9061 24.0961 21.8846C24.1391 21.9276 24.1865 21.975 24.2295 22.018C24.2295 22.0309 24.2252 22.0439 24.2252 22.0525C23.8679 22.2247 23.5105 22.4012 23.1489 22.5734C22.7183 22.7026 22.2878 22.8318 21.8572 22.9609C21.8142 22.9609 21.7711 22.9609 21.728 22.9609C21.629 22.9695 21.6075 22.905 21.5989 22.8275C21.6032 22.8016 21.6118 22.7801 21.6247 22.7586C21.883 22.6165 22.1586 22.5476 22.46 22.5777Z" fill="#821AB7"/>
    <path d="M18.8433 22.8748C18.3998 22.8361 17.9693 22.7198 17.5517 22.5734C17.3321 22.2979 17.035 22.0998 16.7724 21.8716C16.1567 21.3378 15.5281 20.8168 14.9038 20.2915C14.5766 20.016 14.2493 19.7361 13.9178 19.4649C13.8489 19.4089 13.8016 19.34 13.7628 19.2625C14.0771 19.2625 14.3957 19.2625 14.71 19.2625C15.0157 19.3874 15.2353 19.6328 15.4764 19.8351C16.2815 20.5111 17.0824 21.1871 17.8832 21.863C18.1673 22.1041 18.4515 22.3409 18.7357 22.5821C18.8218 22.6552 18.9122 22.7414 18.8433 22.8748Z" fill="#791AC3"/>
    <path d="M18.8434 22.8748C18.6884 22.5734 18.387 22.4271 18.1502 22.2204C17.556 21.6994 16.9403 21.2 16.3333 20.6876C15.8898 20.3174 15.4463 19.9471 15.0072 19.5682C14.8995 19.4778 14.8091 19.3615 14.7101 19.2625C14.9986 19.2625 15.2827 19.2625 15.5712 19.2625C15.7133 19.3185 15.7865 19.439 15.8812 19.5467C16.3634 20.1107 16.9403 20.5542 17.5819 20.9201C17.711 21.0062 17.8832 21.0235 17.9909 21.1483C18.0468 21.2904 18.176 21.355 18.2837 21.4497C18.6841 21.7855 19.0888 22.1171 19.4806 22.4572C19.6011 22.5605 19.7303 22.6466 19.8336 22.7672C19.9068 22.8533 19.9542 22.9351 19.8336 23.0212C19.5839 23.0255 19.3299 23.0427 19.0974 22.9179C19.0113 22.9222 18.9209 22.9222 18.8434 22.8748Z" fill="#7E1BC6"/>
    <path d="M18.585 19.7361C18.5807 19.8438 18.641 19.9256 18.697 20.0117C18.9553 20.3992 19.205 20.7953 19.4634 21.1785C19.5409 21.2947 19.5193 21.3593 19.4031 21.4067C19.2438 21.5272 19.0888 21.4627 18.9295 21.4024C18.8434 21.3722 18.7443 21.3765 18.684 21.2904C18.6496 21.2129 18.6152 21.1397 18.5678 21.0665C18.2363 20.5714 17.9004 20.0763 17.5732 19.5768C17.5129 19.4821 17.4354 19.3874 17.5086 19.2668C17.6249 19.2668 17.7368 19.2668 17.8531 19.2668C18.077 19.452 18.3396 19.5768 18.585 19.7361Z" fill="#5B11BA"/>
    <path d="M17.5087 19.2625C17.8488 19.8696 18.2751 20.425 18.6453 21.0105C18.6884 21.0794 18.7745 21.1354 18.7142 21.2387C18.6841 21.2861 18.6324 21.3119 18.5851 21.299C18.3267 21.2301 18.0555 21.1871 17.8488 20.9933C17.8316 20.89 17.767 20.8168 17.711 20.735C17.4484 20.3432 17.1858 19.9514 16.9274 19.5596C16.8715 19.4735 16.7897 19.3831 16.8629 19.2668C17.0781 19.2625 17.2934 19.2625 17.5087 19.2625Z" fill="#5412B7"/>
    <path d="M16.8627 19.2625C17.1684 19.7275 17.4698 20.1925 17.7755 20.6532C17.8358 20.7436 17.896 20.8297 17.8917 20.946C17.7884 21.0407 17.698 20.989 17.6119 20.9244C17.4397 20.8297 17.2631 20.7436 17.0995 20.6231C17.0306 20.5714 16.9488 20.5326 16.9833 20.425C17.0479 20.3303 16.9574 20.2786 16.923 20.2183C16.7594 19.9643 16.5872 19.7189 16.4236 19.4649C16.3159 19.297 16.3374 19.2625 16.5398 19.2582C16.6474 19.2582 16.7551 19.2625 16.8627 19.2625Z" fill="#4E12B4"/>
    <path d="M16.9876 20.425C17.1728 20.6144 17.4311 20.6962 17.6378 20.8555C17.6335 20.9158 17.6205 20.9675 17.5517 20.9847C17.2244 20.8642 16.9661 20.636 16.6992 20.425C16.2686 20.0935 15.8768 19.7189 15.5754 19.2625C15.739 19.2324 15.8165 19.3529 15.9027 19.4563C16.2213 19.8222 16.5571 20.1753 16.9876 20.425Z" fill="#871CCA"/>
    <path d="M19.1016 22.9222C19.3642 22.8964 19.6183 22.9825 19.8766 22.9652C19.9498 22.8662 20.0617 22.8748 20.1694 22.8662C20.3674 22.8576 20.5698 22.905 20.7635 22.8318C20.9702 22.8318 21.1726 22.7758 21.3835 22.7715C21.4739 22.7715 21.573 22.7543 21.6462 22.8318C21.6763 22.8748 21.7064 22.9179 21.7323 22.9609C21.4653 23.047 21.1855 23.0643 20.9099 23.0901C20.8238 23.0987 20.742 23.1159 20.6559 23.1289C20.1952 23.1418 19.7345 23.1202 19.2738 23.0815C19.2006 23.0384 19.0887 23.0427 19.1016 22.9222Z" fill="#7819B8"/>
    <path d="M21.2113 19.8653C21.2242 20.0031 21.1424 20.0547 21.0262 20.072C20.8755 20.0935 20.7205 20.1064 20.5655 20.1236C20.5526 20.0677 20.5354 20.0074 20.5225 19.9514C20.5483 19.9256 20.5827 19.9299 20.6129 19.9299C20.699 19.9213 20.7851 19.9514 20.8669 19.9084C20.9788 19.8911 21.0951 19.8782 21.2113 19.8653Z" fill="#6711C0"/>
    <path d="M20.6042 19.9471C20.5741 19.9471 20.5483 19.9471 20.5181 19.9471C20.3459 19.9256 20.1694 19.9858 20.0015 19.9041C20.2038 19.9041 20.4062 19.9041 20.6042 19.9041C20.6344 19.9213 20.6344 19.9385 20.6042 19.9471Z" fill="#831BC8"/>
    <path d="M20.6042 19.9471C20.6042 19.9342 20.6042 19.9213 20.6086 19.9041C20.6947 19.9041 20.7808 19.9041 20.8669 19.9041C20.7851 19.9686 20.6947 19.9428 20.6042 19.9471Z" fill="#6B10C1"/>
    <path d="M20.5655 20.1236C20.5784 20.3087 20.7205 20.425 20.8066 20.5671C20.9186 20.7479 21.0434 20.9244 21.1597 21.1053C21.2027 21.1698 21.2501 21.2387 21.2113 21.3248V21.3335C21.0004 21.4798 20.7636 21.5143 20.5138 21.5143C20.4493 21.4971 20.3847 21.4712 20.3502 21.411C20.2727 21.1139 20.0402 20.9072 19.9025 20.6403C19.8422 20.5197 19.7561 20.4121 19.6829 20.3001C19.6484 20.2485 19.6011 20.1925 19.6441 20.1236C19.6872 20.059 19.7604 20.0676 19.8207 20.0806C20.0661 20.1408 20.3158 20.115 20.5655 20.1236Z" fill="#6711C0"/>
    <path d="M20.346 21.411C20.4019 21.411 20.4579 21.4153 20.5182 21.4153C20.5053 21.5617 20.389 21.5444 20.2986 21.5358C20.1781 21.5272 20.0747 21.5488 20.0145 21.665C19.9585 21.6951 19.9025 21.721 19.8379 21.7296C19.6183 21.7339 19.4074 21.6693 19.1921 21.6478C19.0586 21.6392 18.9209 21.6435 18.8434 21.5014C18.8261 21.4196 18.8089 21.3378 18.9295 21.3206C19.0888 21.3464 19.2438 21.3722 19.4031 21.4024C19.7174 21.4067 20.0317 21.411 20.346 21.411Z" fill="#971FD0"/>
    <path d="M19.8335 21.6305C19.8895 21.6305 19.9497 21.6305 20.0057 21.6305C20.0315 21.6047 20.0531 21.566 20.0875 21.566C20.4492 21.5746 20.8065 21.4325 21.1682 21.5444C21.1983 21.5444 21.2242 21.5444 21.2543 21.5444C21.6289 21.9233 22.0465 22.2462 22.4598 22.5778C22.2015 22.6983 21.9217 22.75 21.6418 22.793C21.4954 22.8404 21.3706 22.7801 21.2672 22.694C20.9572 22.4314 20.6343 22.1773 20.3372 21.9018C20.2468 21.82 20.1564 21.7726 20.0315 21.764C19.9411 21.7597 19.8378 21.764 19.8335 21.6305Z" fill="#8C1CCB"/>
    <path d="M21.1683 21.5401C20.7851 21.6478 20.3976 21.6262 20.0058 21.6262C19.9972 21.4928 20.0617 21.454 20.1866 21.454C20.2985 21.454 20.4148 21.4842 20.5224 21.4153C20.7506 21.3851 20.9831 21.3593 21.2113 21.3292C21.1338 21.3894 21.1123 21.4583 21.1683 21.5401Z" fill="#A021D4"/>
    <path d="M19.8336 21.6306C20.3675 21.6349 20.6344 22.0783 21.0047 22.3496C21.164 22.4658 21.3147 22.5993 21.4654 22.7241C21.517 22.7672 21.573 22.7887 21.6419 22.7887C21.6419 22.8016 21.6419 22.8189 21.6419 22.8318C21.3534 22.8404 21.0736 22.9394 20.7808 22.9179C20.6215 22.9911 20.5009 22.8878 20.3976 22.8016C20.0144 22.4873 19.6355 22.1644 19.2566 21.8372C19.1834 21.7726 19.1059 21.6951 19.1877 21.5832C19.403 21.6004 19.6183 21.6133 19.8336 21.6306Z" fill="#861CC9"/>
    <path d="M19.1877 21.5875C19.2437 21.7941 19.446 21.8673 19.5838 21.9922C19.911 22.2979 20.2641 22.5734 20.6042 22.8662C20.6602 22.9136 20.7162 22.9222 20.7807 22.9222C20.4837 23.0169 20.178 22.9437 19.8766 22.9652C19.6355 22.6595 19.3083 22.4486 19.0198 22.1945C18.7184 21.9319 18.4084 21.6822 18.0984 21.4239C18.0252 21.3636 17.9736 21.2861 17.9348 21.2C17.9563 21.1698 17.9951 21.144 18.0252 21.1526C18.318 21.2473 18.6409 21.2732 18.882 21.5014C18.9854 21.5272 19.0844 21.5573 19.1877 21.5875Z" fill="#821BC7"/>
    <path d="M18.8863 21.4971C18.5548 21.4454 18.2577 21.2818 17.9391 21.1957C17.8186 21.1096 17.6636 21.0881 17.5516 20.9804C17.5516 20.9201 17.5689 20.8685 17.6377 20.8513C17.7195 20.89 17.8014 20.9374 17.8961 20.946C18.1501 21.101 18.4299 21.1785 18.7141 21.2388C18.7873 21.2689 18.8562 21.2947 18.9294 21.3249C18.882 21.3765 18.8863 21.4368 18.8863 21.4971Z" fill="#911ECE"/>
</svg>
