<svg width="32" height="32" viewBox="0 0 32 32" fill="none" xmlns="http://www.w3.org/2000/svg">
    <g clip-path="url(#clip0)">
        <path d="M32.0031 16C32.0031 24.8366 24.8389 32 16.0015 32C7.16415 32 0 24.8366 0 16C0 7.16344 7.16415 0 16.0015 0C24.8389 0 32.0031 7.16344 32.0031 16Z" fill="#4958C5"/>
        <path fill-rule="evenodd" clip-rule="evenodd" d="M18.1493 9.36844H22.522V11.3877H18.3033V17.4455C18.3033 17.4455 18.3718 20.7139 18.3033 23.5888C18.2349 26.4637 15.9758 29.2325 12.7413 29.2325C9.50677 29.2325 7.05948 26.8743 7.05948 23.5888C7.05948 20.3032 9.69498 18.0102 12.6728 18.0102C14.8121 18.0102 15.856 19.0027 15.856 19.0027V11.3877H14.2473V9.36844H15.856V8.01657C15.856 5.03904 18.6114 3.75562 19.8265 3.68717C20.9389 3.58803 22.2737 3.54931 23.3862 3.82407V6.04288C21.8901 5.55473 21.3939 5.6027 20.6842 5.67132C20.6226 5.67727 20.5595 5.68338 20.4939 5.68931C19.5527 5.7744 18.1493 6.78452 18.1493 8.13638V9.36844ZM16.0484 23.501C16.0484 25.3156 14.5773 26.7866 12.7626 26.7866C10.9478 26.7866 9.47668 25.3156 9.47668 23.501C9.47668 21.6864 10.9478 20.2155 12.7626 20.2155C14.5773 20.2155 16.0484 21.6864 16.0484 23.501Z" fill="white"/>
    </g>
    <defs>
        <clipPath id="clip0">
            <rect width="32" height="32" fill="white"/>
        </clipPath>
    </defs>
</svg>
