<svg width="32" height="32" viewBox="0 0 32 32" fill="none" xmlns="http://www.w3.org/2000/svg">
    <g clip-path="url(#clip0)">
        <path d="M15.95 31.95C24.7865 31.95 31.95 24.7866 31.95 15.95C31.95 7.11346 24.7865 -0.0499878 15.95 -0.0499878C7.1134 -0.0499878 -0.0500488 7.11346 -0.0500488 15.95C-0.0500488 24.7866 7.1134 31.95 15.95 31.95Z" fill="url(#paint0_linear)"/>
        <path d="M21.5313 8.50815H9.65088C9.33194 8.50815 9.06616 8.77393 9.06616 9.09287V11.7507C9.06616 12.0696 9.33194 12.3354 9.65088 12.3354H13.6642V23.0464C13.6642 23.3653 14.116 24.5082 15.126 24.5082H17.6243C17.9432 24.5082 18.209 24.2424 18.209 23.9234V12.3354H22.2489C22.5678 12.3354 22.8336 12.0696 22.8336 11.7507V9.7839C22.8602 9.46496 22.3552 8.50815 21.5313 8.50815Z" fill="white"/>
    </g>
    <defs>
        <linearGradient id="paint0_linear" x1="-0.042607" y1="15.95" x2="31.9425" y2="15.95" gradientUnits="userSpaceOnUse">
            <stop stop-color="#2E2D4F"/>
            <stop offset="0.0241829" stop-color="#2F2E50"/>
            <stop offset="1" stop-color="#544E75"/>
        </linearGradient>
        <clipPath id="clip0">
            <rect width="32" height="32" fill="white"/>
        </clipPath>
    </defs>
</svg>
