<svg width="32" height="32" viewBox="0 0 32 32" fill="none" xmlns="http://www.w3.org/2000/svg">
    <path d="M16 32C24.8366 32 32 24.8366 32 16C32 7.16344 24.8366 0 16 0C7.16344 0 0 7.16344 0 16C0 24.8366 7.16344 32 16 32Z" fill="#E84142"/>
    <path d="M21.6448 16.416C22.2016 15.456 23.0912 15.456 23.648 16.416L27.0976 22.4768C27.6544 23.4368 27.2 24.2176 26.0928 24.2176H19.136C18.0416 24.2176 17.5872 23.4368 18.1312 22.4768L21.6448 16.416ZM14.9696 4.74881C15.5264 3.78881 16.4032 3.78881 16.96 4.74881L17.728 6.13761L19.5392 9.32481C19.9808 10.2336 19.9808 11.3024 19.5392 12.2112L13.4528 22.7584C12.896 23.616 11.9808 24.16 10.9568 24.2176H5.90723C4.80003 24.2176 4.34563 23.4496 4.90243 22.4768L14.9696 4.74881Z" fill="white"/>
</svg>
