<svg width="32" height="32" viewBox="0 0 32 32" fill="none" xmlns="http://www.w3.org/2000/svg">
    <circle cx="16" cy="16" r="16" fill="#0046DB"/>
    <path fill-rule="evenodd" clip-rule="evenodd" d="M23.3582 8.24366C20.4369 10.2423 10.725 20.2169 9.45654 20.0952C8.18806 19.9735 7.45141 12.8496 8.75183 12.0234C9.08504 11.8503 9.94976 12.318 10.7377 12.6639C11.3336 12.9202 10.866 13.2405 10.866 13.2405C10.866 13.2405 8.93123 14.9766 8.75183 15.3545C8.57244 15.7325 8.70066 16.687 9.00813 16.7639C9.32196 16.9112 11.5322 14.1566 12.2112 13.817C12.3458 13.6697 13.2939 14.919 13.6206 14.8421C13.8641 14.6882 14.6072 14.2463 14.7737 13.6889C14.7674 13.0227 8.329 9.19165 6.95803 9.26855C6.66982 9.24933 6.30468 9.30065 6.06123 11.1264C5.85623 13.279 6.19577 18.2758 6.63779 20.4796C6.97726 22.2605 7.16317 24.2914 9.64881 22.2093C12.5315 20.044 16.2728 16.0015 19.0019 13.6249C19.9564 12.9073 21.5773 11.0623 22.6535 11.1264C23.0507 11.2546 23.1211 11.4467 23.2942 11.9592C24.1204 14.1502 23.8258 16.4244 23.8066 17.7249C23.6336 19.0575 23.3134 19.1278 22.9738 19.1342C21.494 18.9677 18.4831 16.2194 18.2971 16.3155C18.0666 16.3988 17.2786 17.2252 17.2082 17.5327C17.2273 17.7634 21.8142 21.1203 24.7034 21.889C25.2801 21.8442 25.6068 21.8185 25.8566 20.928C26.1642 18.7563 26.0167 12.6319 25.0238 9.14048C24.7611 8.23715 24.2806 7.64144 23.3582 8.24366Z" fill="white"/>
</svg>
