<svg width="32" height="32" viewBox="0 0 32 32" fill="none" xmlns="http://www.w3.org/2000/svg">
    <circle cx="16" cy="16" r="16" fill="#1A110D"/>
    <path d="M22.6793 15.847C22.8808 15.7943 23.0854 15.9214 23.135 16.1262L23.4637 17.4842C23.5133 17.6858 23.3893 17.8935 23.1877 17.9431C22.9862 17.9958 22.7816 17.8687 22.732 17.6641L22.4033 16.306C22.3537 16.1044 22.4777 15.8966 22.6793 15.847ZM12.4934 5.91551C12.3787 5.73567 12.4314 5.50312 12.5988 5.3884L13.7586 4.62252C13.9353 4.5078 14.1678 4.56051 14.2826 4.73105C14.3972 4.91089 14.3445 5.14344 14.1771 5.25817L13.0175 6.02404C12.8438 6.14187 12.6113 6.08916 12.4934 5.91551Z" fill="white"/>
    <path fill-rule="evenodd" clip-rule="evenodd" d="M18.4842 10.6634C17.1422 10.3609 15.7019 10.6095 14.5216 11.41C16.2983 10.8146 18.3417 11.227 19.7555 12.6565C21.7462 14.6688 21.7462 17.9462 19.7555 19.9586C19.5168 20.2005 19.2563 20.4144 18.9803 20.5973C19.709 20.3461 20.3974 19.9369 20.9772 19.3509C22.3849 17.9278 22.7971 15.8722 22.2139 14.0787C20.59 13.4381 19.2605 12.2133 18.4842 10.6634Z" fill="#FFAE54"/>
    <path d="M26.8588 22.2092L26.8587 22.2093C23.632 28.1734 16.2298 30.3521 10.3362 27.0981C4.44034 23.8428 2.26684 16.3638 5.49553 10.3963C7.6199 6.4698 11.5538 4.18135 15.6762 4.00529C16.2232 3.98193 16.647 4.27013 16.9416 4.78125C17.2432 5.30473 17.3776 6.0235 17.3057 6.70334C17.2778 6.96666 17.2636 7.23389 17.2636 7.50427C17.2636 8.77329 17.5771 9.96908 18.1308 11.0185C15.5677 10.0507 12.6183 11.1122 11.2716 13.5985C9.79624 16.3227 10.789 19.7549 13.4941 21.2498C16.2026 22.7465 19.606 21.7333 21.0826 19.0071L21.0828 19.0067C21.9091 17.4777 21.9598 15.7253 21.3666 14.2176C22.3975 14.7467 23.5661 15.0452 24.8045 15.0452C25.4987 15.0452 26.1718 14.9512 26.8114 14.7751C27.1768 14.6744 27.5685 14.7175 27.8612 14.8675C28.1442 15.0124 28.3126 15.2401 28.3311 15.534C28.4724 17.7788 28.007 20.0891 26.8588 22.2092Z" fill="url(#paint0_radial)" stroke="#AC562A" stroke-width="1.0716"/>
    <path d="M23.7365 19.7539L24.1859 19.596C24.1859 19.5961 24.1859 19.5961 24.1859 19.5962C24.503 20.499 24.0923 21.2852 23.79 21.8639C23.7807 21.8818 23.7714 21.8994 23.7624 21.9169C23.5791 22.2686 23.433 22.5549 23.3665 22.8409C23.262 23.2927 23.2778 23.7132 23.406 24.0303C23.526 24.3271 23.7532 24.5616 24.1615 24.6699C24.4333 24.7405 24.8505 24.6369 25.3994 24.298C27.5128 21.7958 28.4764 18.6442 28.2894 15.5494C28.2716 15.2558 28.1043 15.0278 27.8225 14.882C27.531 14.7311 27.1403 14.6863 26.775 14.7849C26.1464 14.9547 25.4856 15.0452 24.8044 15.0452C23.5488 15.0452 22.3647 14.7382 21.3234 14.1953C21.9329 15.7046 21.8702 17.4224 21.1223 18.8837C21.0008 19.1213 20.861 19.352 20.7032 19.5741C21.0181 19.4766 21.4146 19.2917 21.9041 18.9849C22.6389 18.526 23.4668 18.9818 23.7365 19.7539ZM23.7365 19.7539C23.9845 20.4598 23.6624 21.0781 23.34 21.6968C23.1626 22.0374 22.985 22.3781 22.9025 22.7336L23.7365 19.7539ZM15.1605 10.758L15.1408 10.7615L15.1215 10.7667C13.9249 11.0846 12.9631 10.9319 12.2269 10.5398C11.4835 10.144 10.9332 9.48411 10.6053 8.73106C10.2762 7.97528 10.1832 7.15252 10.3253 6.45853C10.4658 5.77231 10.8262 5.24209 11.3874 4.9728C12.8742 4.33725 14.4599 4.01283 16.0472 4.00004C16.4981 3.9964 16.8556 4.24536 17.0996 4.68299C17.3492 5.13066 17.4496 5.73636 17.3598 6.29915C17.2968 6.69393 17.2635 7.0981 17.2635 7.50425C17.2635 8.78501 17.5828 9.99122 18.1461 11.0476C17.1924 10.6776 16.1584 10.581 15.1605 10.758Z" fill="#AC562A" stroke="#AC562A" stroke-width="1.0716"/>
    <path d="M6.94478 14.0926C7.2955 14.0926 7.57981 13.8083 7.57981 13.4576C7.57981 13.1069 7.2955 12.8226 6.94478 12.8226C6.59407 12.8226 6.30976 13.1069 6.30976 13.4576C6.30976 13.8083 6.59407 14.0926 6.94478 14.0926Z" fill="#AC562A"/>
    <path d="M16.1522 25.2057C16.503 25.2057 16.7873 24.9214 16.7873 24.5707C16.7873 24.22 16.503 23.9357 16.1522 23.9357C15.8015 23.9357 15.5172 24.22 15.5172 24.5707C15.5172 24.9214 15.8015 25.2057 16.1522 25.2057Z" fill="#AC562A"/>
    <path d="M12.2626 26.1582C12.8325 26.1582 13.2945 25.6961 13.2945 25.1262C13.2945 24.5563 12.8325 24.0943 12.2626 24.0943C11.6927 24.0943 11.2307 24.5563 11.2307 25.1262C11.2307 25.6961 11.6927 26.1582 12.2626 26.1582Z" fill="#AC562A"/>
    <defs>
        <radialGradient id="paint0_radial" cx="0" cy="0" r="1" gradientUnits="userSpaceOnUse" gradientTransform="translate(16.1778 16.3009) rotate(90) scale(12.7829 12.6541)">
            <stop offset="0.333505" stop-color="#F7B450"/>
            <stop offset="0.64773" stop-color="#FFC977"/>
            <stop offset="1" stop-color="#FF9900"/>
        </radialGradient>
    </defs>
</svg>
