<svg width="32" height="32" viewBox="0 0 32 32" fill="none" xmlns="http://www.w3.org/2000/svg">
    <path d="M16 32C24.8366 32 32 24.8366 32 16C32 7.16344 24.8366 0 16 0C7.16344 0 0 7.16344 0 16C0 24.8366 7.16344 32 16 32Z" fill="#1C1D26"/>
    <path fill-rule="evenodd" clip-rule="evenodd" d="M15.959 10.5666C19.6293 10.5666 22.6046 9.59042 22.6046 8.38626C22.6046 7.1821 19.6293 6.20593 15.959 6.20593C12.2887 6.20593 9.31335 7.1821 9.31335 8.38626C9.31335 9.59042 12.2887 10.5666 15.959 10.5666ZM12.0857 11.0763C9.13297 11.5479 7.09815 12.5418 7.09815 13.6917C7.09815 15.2973 11.0653 16.5989 15.959 16.5989C20.8527 16.5989 24.8198 15.2973 24.8198 13.6917C24.8198 12.5418 22.785 11.5479 19.8323 11.0763C18.6978 11.3527 17.3734 11.5114 15.959 11.5114C14.5444 11.5114 13.2201 11.3527 12.0857 11.0763ZM10.7402 17.0267C7.25432 17.6388 4.88293 18.8448 4.88293 20.2327C4.88293 22.2396 9.84185 23.8666 15.959 23.8666C22.0761 23.8666 27.035 22.2396 27.035 20.2327C27.035 18.8448 24.6637 17.6388 21.1777 17.0267C19.6628 17.4004 17.8744 17.6163 15.959 17.6163C14.0435 17.6163 12.2552 17.4004 10.7402 17.0267Z" fill="white"/>
</svg>
