<svg width="32" height="32" viewBox="0 0 32 32" fill="none" xmlns="http://www.w3.org/2000/svg">
    <g clip-path="url(#clip0_912_27)">
        <path d="M16 32C11.7566 31.9999 7.68694 30.3142 4.68637 27.3136C1.68581 24.3131 7.42583e-05 20.2434 0 16V16C7.42583e-05 11.7566 1.68581 7.68694 4.68637 4.68637C7.68694 1.68581 11.7566 7.42583e-05 16 0V0C20.2434 7.42583e-05 24.3131 1.68581 27.3136 4.68637C30.3142 7.68694 31.9999 11.7566 32 16V16C31.9988 20.2431 30.3128 24.3121 27.3124 27.3124C24.3121 30.3128 20.2431 31.9988 16 32Z" fill="#4520E6"/>
        <path d="M21.3291 13.0958C21.3296 12.5582 21.202 12.0282 20.9569 11.5497C20.7119 11.0711 20.3564 10.6578 19.9199 10.344L22.2242 8.0397L20.8467 8.04604L19.0153 9.87741C18.6674 9.76092 18.3029 9.70196 17.9361 9.70284H11.6326V18.6312L19.2216 11.0422C19.6681 11.3214 20.0115 11.7383 20.2002 12.2299C20.3888 12.7215 20.4122 13.2611 20.2671 13.7673C20.1219 14.2734 19.8159 14.7186 19.3954 15.0355C18.9749 15.3524 18.4627 15.5238 17.9362 15.5239H17.7362L9.29021 23.9699H10.6614L12.3182 22.313H17.9361C18.6782 22.3136 19.4001 22.0706 19.9908 21.6214C20.5815 21.1722 21.0086 20.5416 21.2064 19.8264C21.4042 19.1111 21.3619 18.3507 21.0859 17.6618C20.81 16.9729 20.3156 16.3935 19.6786 16.0127C20.1813 15.7094 20.5972 15.2816 20.8864 14.7707C21.1755 14.2597 21.328 13.6829 21.3291 13.0958V13.0958ZM12.6007 16.2888V10.6709H17.9361C18.0263 10.6714 18.1163 10.6767 18.2059 10.6868L12.6007 16.2888ZM20.361 18.9137C20.36 19.5565 20.1042 20.1727 19.6496 20.6273C19.1951 21.0818 18.5789 21.3376 17.9361 21.3386H13.2863L18.117 16.5078C18.7252 16.5528 19.2941 16.8255 19.71 17.2714C20.126 17.7174 20.3585 18.3039 20.361 18.9137Z" fill="white"/>
    </g>
    <defs>
        <clipPath id="clip0_912_27">
            <rect width="32" height="32" fill="white"/>
        </clipPath>
    </defs>
</svg>
