<svg width="32" height="32" viewBox="0 0 32 32" fill="none" xmlns="http://www.w3.org/2000/svg">
    <circle cx="16" cy="16" r="16" fill="#E2B900"/>
    <path d="M19.3944 5.20219C18.2756 5.97886 17.1975 6.34046 16.001 6.34046C14.8044 6.34046 13.7253 5.97886 12.6065 5.20219L12.315 5L12.0194 5.19635C10.7548 6.03329 9.72733 6.1859 8.15941 6.1859C7.61895 6.1859 7.03767 6.08384 6.47873 5.89137L6.10644 5.76306L5.87995 6.08481C5.75942 6.25589 5.66999 6.36476 5.58347 6.46974C5.47655 6.59903 5.37643 6.7215 5.25784 6.91202L5.06926 7.21725L5.28506 7.50401C6.2435 8.7774 6.60412 10.0867 6.60412 11.3203C6.60412 13.6192 5.34726 15.6508 4.35674 16.6782L4 17.0476L4.36355 17.4112C4.55893 17.6056 4.90596 17.9672 5.19368 18.2685L5.18201 18.427L5.1791 18.4561C5.16743 18.6758 5.1616 18.8955 5.1616 19.1161C5.1616 21.451 5.85176 23.3922 7.21749 24.894C8.79902 26.6321 11.271 27.6702 14.1939 27.8316C14.92 28.4926 15.6568 29.0408 15.6899 29.0651L16.0019 29.2964L16.3139 29.0642C16.347 29.0398 17.0799 28.4916 17.8051 27.8306C20.7271 27.6693 23.2 26.6311 24.7815 24.8931C26.1472 23.3912 26.8374 21.45 26.8374 19.1152C26.8374 18.8984 26.8315 18.6787 26.8199 18.4551V18.4503L26.8169 18.4221C26.8169 18.4221 26.8063 18.2802 26.8063 18.2685C27.0726 17.9886 27.4313 17.6153 27.6364 17.4112L28 17.0476L27.6432 16.6773C26.6537 15.6498 25.3958 13.6182 25.3958 11.3183C25.3958 10.0858 25.7574 8.77545 26.7149 7.50304L26.9307 7.21628L26.7412 6.91202C26.6226 6.7215 26.5224 6.59903 26.4155 6.46974C26.329 6.36476 26.2396 6.25589 26.1191 6.08481L25.8926 5.76209L25.5212 5.89137C24.9623 6.08481 24.381 6.1859 23.8406 6.1859C22.2726 6.1859 21.2452 6.03232 19.9815 5.19538L19.686 5L19.3944 5.20219Z" fill="black"/>
    <path d="M16.0022 28.6451C16.0022 28.6451 15.1672 28.0259 14.4119 27.3202C9.47488 27.115 5.39032 24.3466 5.70235 18.4832C5.72082 18.3287 5.70527 18.3393 5.73151 18.075C5.44864 17.7756 4.98011 17.2867 4.73224 17.0397C6.50332 15.2025 8.56893 10.9994 5.70137 7.188C5.88995 6.88472 6.02604 6.78459 6.30696 6.38508C6.88047 6.58338 7.51814 6.70878 8.15775 6.70878C9.80246 6.70878 10.9252 6.54547 12.3065 5.63174C13.3981 6.38897 14.5821 6.86333 15.9993 6.86333C17.4165 6.86333 18.6005 6.38897 19.6911 5.63174C21.0715 6.54547 22.1942 6.70878 23.8398 6.70878C24.4805 6.70878 25.1181 6.58338 25.6906 6.38508C25.9716 6.78459 26.1077 6.88472 26.2962 7.188C23.4287 10.9994 25.4943 15.2025 27.2654 17.0397C27.0185 17.2867 26.5499 17.7756 26.2661 18.075C26.2924 18.3393 26.2768 18.3287 26.2952 18.4832C26.6073 24.3466 22.5218 27.115 17.5857 27.3202C16.8333 28.0259 16.0022 28.6451 16.0022 28.6451Z" fill="#E2B900"/>
    <path d="M6.63927 18.1343H6.56929L6.53915 18.387L6.51777 18.5494C6.40209 20.8084 6.96588 22.633 8.19164 23.9773C9.59723 25.519 11.8748 26.3977 14.7773 26.5182C14.7802 26.5182 14.8259 26.5182 14.8259 26.5182C15.6968 26.5231 16.5192 26.527 17.2191 26.5182C20.1246 26.3977 22.4021 25.519 23.8076 23.9773C25.0334 22.633 25.5962 20.8084 25.4816 18.5533C25.4816 18.5494 25.4601 18.3861 25.4601 18.3861L25.431 18.1372L25.361 18.1343H6.63927Z" fill="black"/>
    <path d="M6.70894 18.2911L6.69435 18.4106C6.69435 18.4106 6.67491 18.5612 6.67394 18.5612C6.66422 18.7459 6.65936 18.9316 6.65936 19.1163C6.65936 21.073 7.21246 22.6701 8.30699 23.8705C8.56848 24.1573 8.86107 24.4207 9.18379 24.6598V18.2901H6.70894V18.2911ZM25.3257 18.5652L25.3053 18.4096L25.2917 18.2911H22.8159V24.6608C23.1387 24.4217 23.4312 24.1583 23.6927 23.8715C24.7873 22.671 25.3403 21.073 25.3403 19.1192C25.3403 18.9374 25.3355 18.7527 25.3257 18.5652Z" fill="#004B95"/>
    <path d="M11.9107 18.2908H9.18414V24.6606C9.93845 25.2215 10.8551 25.6492 11.9107 25.9379V18.2908ZM20.0896 18.2908V25.9379C21.1451 25.6492 22.0618 25.2215 22.8161 24.6606V18.2908H20.0896Z" fill="#A4234B"/>
    <path d="M13.3872 22.2142C13.3872 21.2703 13.8878 20.4441 14.6373 19.9843V18.2911H11.9107V25.9381C12.7369 26.1636 13.6497 26.3036 14.6373 26.3541V24.445C13.8868 23.9852 13.3872 23.1581 13.3872 22.2142ZM17.363 18.2911V19.9843C18.1124 20.4441 18.613 21.2703 18.613 22.2142C18.613 23.1581 18.1124 23.9842 17.363 24.4441V26.3532C18.3506 26.3026 19.2633 26.1636 20.0896 25.9371V18.2901H17.363V18.2911Z" fill="#004B95"/>
    <path d="M17.3627 19.9842V18.2908H14.6361V19.9842C15.0327 19.7411 15.4993 19.6002 15.999 19.6002C16.4996 19.6012 16.9662 19.7411 17.3627 19.9842ZM14.6371 24.4439V26.353C14.6857 26.3558 14.7333 26.3578 14.7819 26.3598H14.8276C15.6976 26.3646 16.5199 26.3685 17.216 26.3598C17.2655 26.3578 17.3141 26.3549 17.3637 26.352V24.4429C16.9671 24.6859 16.5005 24.8259 16.0009 24.8259C15.5003 24.8278 15.0337 24.6869 14.6371 24.4439Z" fill="#A4234B"/>
    <path d="M14.6667 22.6884C14.1942 22.2578 14.1923 21.3829 14.3196 20.8017C14.3546 20.6393 14.3993 20.4809 14.445 20.3001C13.889 20.7521 13.5342 21.4422 13.5342 22.214C13.5342 22.5309 13.5945 22.8449 13.7131 23.1385C13.7548 23.1443 13.7977 23.1472 13.8414 23.1472C14.2068 23.1472 14.5043 22.979 14.6667 22.6884ZM17.2056 22.877C17.125 23.2901 16.6827 23.6002 16.2657 23.848C15.836 24.1037 15.1439 24.2369 14.6229 24.2602C15.0156 24.5246 15.49 24.6801 15.9993 24.6801C16.9295 24.6801 17.7392 24.1649 18.1592 23.4048C18.0863 22.7972 17.5079 22.7253 17.2056 22.877Z" fill="#E2B900"/>
    <path d="M14.432 24.1183C14.9462 24.1222 15.7375 23.9929 16.1905 23.7227C16.7766 23.3727 17.2315 23.0005 17.0148 22.4833C16.9059 22.2219 16.5423 21.9195 16.0709 22.2529C16.0407 22.6389 15.5644 22.979 15.2223 22.9353C15.0493 22.913 14.9035 22.8585 14.7829 22.7788C14.5905 23.1074 14.2464 23.294 13.84 23.294C13.8197 23.294 13.8001 23.293 13.7807 23.292C13.9363 23.6108 14.1588 23.8928 14.432 24.1183ZM15.9941 20.6773C16.4024 20.5081 16.9672 20.7279 17.3987 20.9689C17.805 21.1964 18.2299 21.6201 18.4631 22.0654C18.3864 20.7794 17.3249 19.7587 16.0223 19.748C15.6325 20.0037 15.685 20.4848 15.9941 20.6773Z" fill="#E2B900"/>
    <path d="M15.9251 22.251C15.4197 21.8826 15.4507 21.3033 15.6685 20.9591C15.722 20.8746 15.7841 20.8085 15.8532 20.757C15.5596 20.5227 15.5003 20.0678 15.7851 19.7567C15.3721 19.7927 14.9745 19.9327 14.6294 20.163C14.5215 20.6267 14.3845 21.0496 14.3913 21.5327C14.4 22.185 14.6703 22.7157 15.2418 22.7886C15.5091 22.8236 15.894 22.5398 15.9251 22.251Z" fill="#E2B900"/>
    <path d="M18.4564 22.4406C18.3155 21.9303 17.8099 21.3665 17.3269 21.0963C16.731 20.7638 16.0797 20.582 15.7929 21.037C15.6092 21.3286 15.583 21.8097 16.001 22.1238C16.5686 21.732 17.0216 22.1131 17.1518 22.426C17.1937 22.5262 17.215 22.6214 17.219 22.7128C17.5534 22.5952 18.0977 22.671 18.2659 23.193C18.3679 22.9548 18.4331 22.7001 18.4564 22.4406Z" fill="#E2B900"/>
    <path d="M13.7516 15.2912H12.0272V17.7145H12.5521V16.7142H13.2675V16.2019H12.5521V15.8054H13.7759V15.2902L13.7516 15.2912ZM14.7548 16.5023C14.7548 17.2615 15.1718 17.7514 15.8172 17.7514C16.2381 17.7514 16.5414 17.5667 16.7183 17.2012L16.728 17.1798L16.2857 16.9173L16.2731 16.9388C16.1467 17.1497 16.0272 17.2284 15.8308 17.2284C15.509 17.2284 15.2933 16.9359 15.2933 16.5013C15.2933 16.0523 15.4983 15.7742 15.8279 15.7742C16.0194 15.7742 16.1535 15.854 16.2391 16.0183L16.2497 16.0396L16.7358 15.8151L16.7241 15.7918C16.5531 15.4389 16.2449 15.2523 15.8327 15.2523C15.198 15.2533 14.7548 15.7675 14.7548 16.5023ZM19.6578 16.4022C19.8046 16.2982 19.8911 16.1349 19.8911 15.9434C19.8911 15.5351 19.6004 15.2912 19.1134 15.2912H17.9995V17.7145H19.1028C19.6471 17.7145 19.9727 17.4189 19.9727 16.9232C19.9727 16.6909 19.8561 16.5052 19.6578 16.4022ZM18.5146 15.7791H19.0931C19.3292 15.7791 19.3594 15.887 19.3594 15.9813C19.3594 16.1145 19.2797 16.1796 19.1174 16.1796H18.5156L18.5146 15.7791ZM19.1203 17.2129H18.5146V16.6501H19.1203C19.3341 16.6501 19.4342 16.7395 19.4342 16.93C19.4332 17.1157 19.3253 17.2129 19.1203 17.2129ZM19.6656 6.62441C18.4913 7.33497 17.2918 7.68102 15.9999 7.68199C14.7081 7.68102 13.5095 7.33497 12.3343 6.62441L12.2954 6.60107L12.2556 6.62344C10.918 7.37968 9.74087 7.52744 8.15934 7.52744C7.77927 7.52744 7.38753 7.48952 6.99385 7.41371L6.82471 7.38163L6.91219 7.53035C8.5365 10.3104 7.96007 12.9981 7.1902 14.7633L7.14257 14.8732H24.8593L24.8116 14.7633C24.0418 12.9981 23.4653 10.3104 25.0897 7.53035L25.1771 7.38163L25.008 7.41371C24.6144 7.48855 24.2226 7.52744 23.8425 7.52744C22.261 7.52744 21.0838 7.37968 19.7463 6.62344L19.7064 6.60107L19.6656 6.62441Z" fill="black"/>
    <path d="M10.566 7.46012C9.82433 7.63606 9.05543 7.68369 8.1592 7.68369C7.81994 7.68369 7.47195 7.6487 7.12201 7.59038C7.53708 8.33303 7.80148 9.06692 7.95117 9.77846H10.566V7.46012ZM15.9211 9.77846V7.83727C14.983 7.82658 14.0926 7.63606 13.2246 7.26085V9.77944H15.9211V9.77846ZM8.02505 12.438C7.9016 13.2895 7.6547 14.0604 7.37864 14.7155H10.566V12.438H8.02505ZM13.2256 14.7155H15.9221V12.438H13.2256V14.7155Z" fill="white"/>
    <path d="M13.2257 9.77857V7.25999C12.9117 7.1239 12.6017 6.96448 12.2925 6.77979C11.7025 7.10931 11.1426 7.32317 10.5662 7.45925V9.7776H7.95135C8.05633 10.2772 8.1098 10.7866 8.1098 11.2969C8.1098 11.6896 8.07869 12.0707 8.0262 12.4371H10.5671V14.7146H13.2267V12.4381H15.9232V9.77857H13.2257Z" fill="#DB2F36"/>
    <path d="M19.7074 6.7809L19.7034 6.78284V14.7158H20.6386V7.21541C20.3323 7.09973 20.0242 6.95684 19.7074 6.7809ZM17.8342 7.59256V14.7168H18.7693V7.26304C18.465 7.39426 18.153 7.5041 17.8342 7.59256ZM16.0786 7.83752V14.7168H16.899V7.7792C16.6269 7.81516 16.3527 7.83363 16.0786 7.83752ZM21.5737 7.4905V14.7158H22.5088V7.63145C22.1871 7.60131 21.877 7.55659 21.5737 7.4905ZM23.8911 11.299C23.8911 10.1384 24.1594 8.87567 24.8777 7.59062C24.5278 7.64894 24.1797 7.68394 23.8406 7.68394C23.7044 7.68394 23.5732 7.68199 23.4429 7.68005V14.7158H24.6211C24.2255 13.7796 23.8911 12.6045 23.8911 11.299Z" fill="#FFDF00"/>
    <path d="M22.5087 7.63134V14.7156H23.4439V7.67994C23.1172 7.67411 22.8072 7.65856 22.5087 7.63134ZM16.899 7.77909V14.7156H17.8341V7.59246C17.527 7.67605 17.2149 7.73924 16.899 7.77909ZM18.7693 7.26294V14.7166H19.7043V6.78275C19.3943 6.96744 19.0832 7.12685 18.7693 7.26294ZM20.6385 7.21531V14.7156H21.5736V7.4904C21.2558 7.42235 20.9427 7.33098 20.6385 7.21531Z" fill="#DB2F36"/>
</svg>
