<svg width="32" height="32" viewBox="0 0 32 32" fill="none" xmlns="http://www.w3.org/2000/svg">
    <path d="M32 16C32 24.8366 24.8366 32 16 32C7.16344 32 0 24.8366 0 16C0 7.16344 7.16344 0 16 0C24.8366 0 32 7.16344 32 16Z" fill="white"/>
    <path d="M16.0001 5V12.4747L20.4735 20.2274L26.9628 23.9971C27.0212 23.895 27.0128 23.7541 26.9234 23.5993L21.6245 14.416L16.3256 5.23276C16.2359 5.07748 16.1178 5 16.0001 5Z" fill="#9E1F63"/>
    <path d="M5.03711 23.9971L11.5266 20.2276L16.0003 12.4747V5C15.8821 5 15.7643 5.07748 15.6748 5.2326L10.3756 14.416L5.07634 23.5992C4.98721 23.7541 4.97884 23.8948 5.03711 23.9971Z" fill="#FF4724"/>
    <path d="M26.9628 23.9971L20.4735 20.2275H11.5266L5.03712 23.9971C5.09588 24.0995 5.22195 24.1632 5.40071 24.1632H26.5994C26.7783 24.1632 26.904 24.0995 26.9628 23.9971Z" fill="#662D91"/>
    <path d="M11.5266 20.2272H20.4737L16.0001 12.4745L11.5266 20.2272Z" fill="white"/>
</svg>
