<svg width="32" height="32" viewBox="0 0 32 32" fill="none" xmlns="http://www.w3.org/2000/svg">
    <g clip-path="url(#clip0)">
        <path d="M16 -3.05176e-05H16C7.16343 -3.05176e-05 0 7.1634 0 15.9999V16C0 24.8366 7.16343 32 16 32H16C24.8366 32 32 24.8366 32 16V15.9999C32 7.1634 24.8366 -3.05176e-05 16 -3.05176e-05Z" fill="url(#paint0_linear)"/>
        <path d="M22.0837 15.5788C22.0414 15.5788 22.0004 15.5644 21.9674 15.5379C21.9344 15.5114 21.9115 15.4745 21.9024 15.4331C21.8933 15.3918 21.8986 15.3487 21.9175 15.3108C21.9363 15.2729 21.9675 15.2426 22.0059 15.2249L28.3353 12.3061C28.3799 12.2859 28.4307 12.2842 28.4766 12.3013C28.5224 12.3184 28.5597 12.353 28.5802 12.3974C28.6007 12.4419 28.6027 12.4927 28.586 12.5386C28.5692 12.5846 28.5349 12.6221 28.4906 12.643L22.1612 15.5617C22.1369 15.573 22.1105 15.5788 22.0837 15.5788V15.5788Z" fill="white"/>
        <path d="M16.0522 26.7619C16.0195 26.7619 15.9873 26.7532 15.9591 26.7368C15.9308 26.7204 15.9073 26.6967 15.8911 26.6683L9.72264 15.8459C9.7067 15.8179 9.69831 15.7863 9.6983 15.7541C9.6983 15.4171 11.1796 10.2431 11.4764 9.20934C11.4876 9.17065 11.511 9.13664 11.5431 9.11242C11.5753 9.08821 11.6145 9.07511 11.6547 9.0751H20.5421C20.5835 9.0751 20.6236 9.0889 20.6562 9.1143C20.6888 9.13971 20.7119 9.17528 20.722 9.21535L22.2634 15.3481C22.2747 15.393 22.2688 15.4406 22.2467 15.4813L16.2154 26.6645C16.1997 26.6936 16.1765 26.718 16.1482 26.7351C16.1199 26.7523 16.0875 26.7615 16.0544 26.7619H16.0522ZM10.0748 15.7147L16.0477 26.1941L21.8861 15.3687L20.3976 9.44599H11.7944C11.121 11.7934 10.1587 15.2204 10.0748 15.7147Z" fill="white"/>
        <path d="M16.0522 26.7619C16.0259 26.7619 15.9999 26.7563 15.9759 26.7455C15.9519 26.7347 15.9305 26.7188 15.9131 26.6991L3.448 12.5644C3.41956 12.5321 3.40322 12.491 3.40176 12.448C3.4003 12.405 3.41382 12.3629 3.44 12.3288L7.3426 7.24556C7.36012 7.22281 7.38265 7.20442 7.40844 7.1918L11.3767 5.2568C11.402 5.24446 11.4298 5.23805 11.4579 5.23804H20.903C20.9333 5.23805 20.9632 5.24548 20.99 5.2597L24.6303 7.1947C24.6541 7.20734 24.6749 7.22504 24.6912 7.24657L28.5609 12.3626C28.5867 12.3966 28.5999 12.4385 28.5983 12.4811C28.5968 12.5237 28.5806 12.5645 28.5525 12.5966L16.1917 26.6987C16.1743 26.7185 16.1529 26.7344 16.1289 26.7453C16.1049 26.7562 16.0789 26.7619 16.0525 26.7619H16.0522ZM3.82714 12.4335L16.0518 26.2956L28.1739 12.4659L24.42 7.503L20.8567 5.609H11.5007L7.6102 7.50605L3.82714 12.4335Z" fill="white"/>
        <path d="M11.6546 9.44608C11.628 9.44605 11.6018 9.44032 11.5777 9.42928L7.41266 7.5272C7.3905 7.51708 7.37056 7.50271 7.35396 7.48489C7.33736 7.46707 7.32443 7.44615 7.31591 7.42333C7.3074 7.40052 7.30346 7.37625 7.30432 7.35191C7.30519 7.32757 7.31084 7.30364 7.32095 7.28149C7.33106 7.25933 7.34544 7.23938 7.36326 7.22278C7.38108 7.20619 7.40199 7.19326 7.42481 7.18474C7.44763 7.17623 7.4719 7.17229 7.49623 7.17315C7.52057 7.17401 7.5445 7.17966 7.56666 7.18978L11.7317 9.09185C11.7702 9.10944 11.8015 9.13969 11.8205 9.17757C11.8394 9.21545 11.8448 9.25867 11.8358 9.30005C11.8268 9.34143 11.8039 9.37849 11.7709 9.40505C11.7379 9.43162 11.6969 9.44609 11.6545 9.44608H11.6546Z" fill="white"/>
        <path d="M20.5423 9.44608C20.5002 9.4461 20.4593 9.43179 20.4264 9.40551C20.3935 9.37923 20.3706 9.34254 20.3613 9.30147C20.352 9.2604 20.357 9.21739 20.3754 9.17952C20.3938 9.14165 20.4245 9.11116 20.4625 9.09308L24.4635 7.19101C24.508 7.16988 24.559 7.16727 24.6053 7.18375C24.6517 7.20022 24.6896 7.23443 24.7107 7.27886C24.7318 7.32328 24.7344 7.37428 24.7179 7.42063C24.7015 7.46698 24.6673 7.50488 24.6228 7.52601L20.6218 9.42805C20.5969 9.43991 20.5698 9.44607 20.5423 9.44608V9.44608Z" fill="white"/>
        <path d="M9.88361 15.9396C9.85356 15.9396 9.82397 15.9322 9.7974 15.9182L3.50072 12.6059C3.47901 12.5946 3.45974 12.5792 3.44401 12.5605C3.42829 12.5417 3.41642 12.5201 3.4091 12.4967C3.40178 12.4734 3.39914 12.4489 3.40134 12.4245C3.40354 12.4002 3.41053 12.3765 3.42191 12.3548C3.4333 12.3332 3.44885 12.314 3.46767 12.2984C3.48649 12.2828 3.50822 12.2711 3.53159 12.2639C3.55497 12.2567 3.57953 12.2542 3.60387 12.2566C3.62821 12.2589 3.65185 12.266 3.67342 12.2776L9.9701 15.5899C10.0068 15.6092 10.036 15.6403 10.0529 15.6781C10.0699 15.7159 10.0737 15.7584 10.0638 15.7986C10.0538 15.8389 10.0307 15.8746 9.99801 15.9002C9.96535 15.9257 9.92507 15.9396 9.88361 15.9396V15.9396Z" fill="white"/>
        <path d="M18.5089 15.4917C18.907 15.0743 19.14 14.5266 19.1648 13.9503C19.1976 13.032 18.968 12.5073 17.0331 12.5401V11.1299H16.1787V12.5401H15.5245V11.1299H14.639V12.4745L12.9559 12.5401V13.4584H13.7207C13.7207 13.4584 14.0815 13.4256 14.0487 13.9831C14.0159 14.5406 14.0508 17.6562 14.0508 17.6562C14.0545 17.6933 14.0505 17.7307 14.0389 17.7662C14.0274 17.8016 14.0085 17.8343 13.9836 17.8621C13.9588 17.8898 13.9284 17.9121 13.8944 17.9275C13.8604 17.9428 13.8236 17.951 13.7863 17.9513C13.5098 17.969 13.2324 17.969 12.9559 17.9513V18.9352H14.7046V20.3782H15.5573V19.0008H16.2132V20.3782H17.0003V18.968C17.0003 18.968 19.3615 19.0336 19.5911 17.6562C19.8207 16.2788 19.4271 15.5573 18.5089 15.4917ZM15.4589 13.524C15.4589 13.524 17.525 13.1305 17.5906 14.3439C17.6562 15.5573 15.4589 15.1638 15.4589 15.1638V13.524ZM17.9841 16.9019C17.9841 18.4105 15.4589 17.9841 15.4589 17.9841V16.1429C18.1481 15.9086 17.9841 16.9019 17.9841 16.9019V16.9019Z" fill="white"/>
    </g>
    <defs>
        <linearGradient id="paint0_linear" x1="0" y1="16" x2="32" y2="16" gradientUnits="userSpaceOnUse">
            <stop stop-color="#F69220"/>
            <stop offset="1" stop-color="#F9C138"/>
        </linearGradient>
        <clipPath id="clip0">
            <rect width="32" height="32" fill="white"/>
        </clipPath>
    </defs>
</svg>
