<svg width="32" height="32" viewBox="0 0 32 32" fill="none" xmlns="http://www.w3.org/2000/svg">
    <g clip-path="url(#clip0)">
        <path d="M23.9987 29.8541C31.6501 25.4365 34.2716 15.6527 29.8541 8.00133C25.4365 0.349928 15.6527 -2.27163 8.00133 2.14591C0.349928 6.56347 -2.27163 16.3472 2.14591 23.9987C6.56347 31.6501 16.3472 34.2716 23.9987 29.8541Z" fill="#F7931A"/>
        <path d="M21.234 10.6917C20.4581 8.71982 18.5118 8.54235 16.2466 8.98198L15.4398 6.16895L13.7286 6.66046L14.5135 9.39961C14.0633 9.52788 13.6068 9.66906 13.1512 9.80974L12.3617 7.0525L10.65 7.54322L11.4563 10.3553C11.0876 10.4688 10.7253 10.5811 10.3704 10.6822L10.3676 10.6734L8.00586 11.35L8.53037 13.1784C8.53037 13.1784 9.78826 12.7915 9.77396 12.8206C10.4675 12.6222 10.8081 12.9601 10.9739 13.2893L11.8932 16.4933C11.9408 16.4797 12.0035 16.4643 12.0776 16.4526L11.8966 16.5052L13.1838 20.9943C13.2153 21.2208 13.1869 21.6056 12.7021 21.7457C12.7302 21.7583 11.4581 22.1026 11.4581 22.1026L11.704 24.2442L13.9327 23.6051C14.3471 23.4872 14.7571 23.3774 15.1576 23.2651L15.9742 26.1094L17.6845 25.6183L16.8779 22.8053C17.35 22.6793 17.8056 22.5525 18.2494 22.4255L19.0519 25.2272L20.7631 24.7356L19.9495 21.8966C22.7811 20.906 24.5874 19.6034 24.0625 16.8286C23.6407 14.5944 22.3382 13.9161 20.5918 13.9926C21.4402 13.2026 21.8049 12.1342 21.234 10.6917ZM20.5823 17.4616C21.1942 19.5871 17.4836 20.389 16.3233 20.7229L15.2437 16.9533C16.405 16.6212 19.9476 15.2443 20.5823 17.4616ZM18.2615 12.3721C18.8162 14.3066 15.7152 14.9505 14.7494 15.2275L13.7694 11.8103C14.7351 11.5333 17.683 10.3543 18.2615 12.3721Z" fill="white"/>
    </g>
    <defs>
        <clipPath id="clip0">
            <rect width="32" height="32" fill="white"/>
        </clipPath>
    </defs>
</svg>
