<svg width="32" height="32" viewBox="0 0 32 32" fill="none" xmlns="http://www.w3.org/2000/svg">
    <path d="M31.9473 14.7009C32.1352 17.0134 31.8179 19.3391 31.0177 21.5168C30.2174 23.6945 28.9531 25.6721 27.3126 27.3127C25.672 28.9533 23.6943 30.2176 21.5166 31.0178C19.3389 31.8181 17.0133 32.1353 14.7008 31.9475C6.94555 31.3357 0.663191 25.0504 0.0524743 17.2972C-0.135248 14.9848 0.182067 12.6593 0.982436 10.4817C1.78279 8.30422 3.04706 6.32671 4.68763 4.68634C6.32819 3.04595 8.30582 1.78191 10.4834 0.981792C12.6611 0.181684 14.9867 -0.135364 17.299 0.0526222C25.0532 0.664328 31.3346 6.94669 31.9473 14.7009Z" fill="#EAB300"/>
    <path d="M20.5892 15.4274C21.5424 14.7732 22.1966 14.0367 22.1966 12.648C22.1966 10.4417 20.0022 9.40737 18.6669 9.27573C18.5581 9.26385 18.2542 9.2589 18.2542 9.2589V7.14861H16.0766L16.0815 9.2589H14.6265V7.15653H12.4133V9.249C12.0233 9.25791 9.68139 9.25593 9.68139 9.25593V11.1237C9.68139 11.1237 10.2753 11.1237 10.4426 11.1237C11.176 11.1237 11.5066 11.5869 11.5066 11.9096V20.0806C11.5023 20.213 11.4495 20.3393 11.3582 20.4354C11.2671 20.5315 11.1437 20.5909 11.0117 20.6022C10.6791 20.617 10.1842 20.6022 10.1842 20.6022L9.75761 22.7194H12.4192V24.8525H14.6334V22.7313H16.0885V24.8564H18.2532V22.7392C18.2532 22.7392 18.372 22.7392 18.4126 22.7392C20.9168 22.7392 23.1003 21.2545 23.133 18.8562C23.1627 16.8864 21.48 15.7462 20.5892 15.4274ZM14.6325 11.2712C14.9294 11.2712 16.0261 11.2712 16.6794 11.2712C16.7417 11.2712 16.7912 11.2821 16.8506 11.2851C17.7415 11.3276 18.2938 11.681 18.5917 12.1066C18.7748 12.3619 18.8766 12.6665 18.8837 12.9806C18.8794 13.1982 18.842 13.4138 18.7728 13.62C18.7114 13.7997 18.6189 13.9672 18.4997 14.1149C18.4045 14.2392 18.2899 14.3471 18.1602 14.4346C17.8286 14.6673 17.3624 14.8504 16.6923 14.883C16.6833 14.883 14.6651 14.889 14.6325 14.883V11.2712ZM19.535 19.2254C19.468 19.4192 19.3674 19.5998 19.2381 19.7589C19.1354 19.8934 19.0114 20.0101 18.8708 20.1043C18.5125 20.3567 18.0087 20.5547 17.2871 20.5893C17.2782 20.5893 14.6681 20.5953 14.6334 20.5943V16.6875C14.9551 16.6875 16.5675 16.6924 17.2743 16.6924C17.3406 16.6924 17.395 16.7043 17.4584 16.7073C18.4205 16.7538 19.0193 17.1359 19.339 17.5981C19.5373 17.8741 19.6474 18.2037 19.6548 18.5434C19.6487 18.7773 19.607 19.009 19.531 19.2303L19.535 19.2254Z" fill="white"/>
</svg>
