<svg width="32" height="32" viewBox="0 0 32 32" fill="none" xmlns="http://www.w3.org/2000/svg">
    <path d="M30.8 16C30.8 24.1738 24.1738 30.8 16 30.8C7.82619 30.8 1.2 24.1738 1.2 16C1.2 7.82619 7.82619 1.2 16 1.2C24.1738 1.2 30.8 7.82619 30.8 16Z" fill="white" stroke="#F2BD11" stroke-width="2.4"/>
    <path d="M16.0002 6C17.992 6 19.6068 6.93912 19.6068 8.09758C19.6068 9.25603 17.992 10.1952 16.0002 10.1952C14.0083 10.1952 12.3936 9.25603 12.3936 8.09758C12.3936 6.93912 14.0083 6 16.0002 6ZM16.0002 21.8048C17.992 21.8048 19.6068 22.744 19.6068 23.9024C19.6068 25.0609 17.992 26 16.0002 26C14.0083 26 12.3936 25.0609 12.3936 23.9024C12.3936 22.744 14.0083 21.8048 16.0002 21.8048ZM7.3387 10.9997C8.33464 9.27474 9.95582 8.34625 10.9597 8.92589C11.9636 9.50554 11.9701 11.3737 10.9742 13.0987C9.97823 14.8236 8.35705 15.7521 7.35312 15.1725C6.3492 14.5929 6.34277 12.7246 7.3387 10.9997ZM21.0271 18.9026C22.023 17.1776 23.6436 16.2488 24.6469 16.8281C25.6501 17.4073 25.656 19.2752 24.6601 21.0002C23.6642 22.7251 22.0435 23.6539 21.0403 23.0747C20.0371 22.4954 20.0312 20.6275 21.0271 18.9026ZM7.35365 16.8276C8.35755 16.248 9.97873 17.1764 10.9747 18.9014C11.9706 20.6263 11.9641 22.4946 10.9602 23.0742C9.95632 23.6538 8.33514 22.7253 7.3392 21.0004C6.34327 19.2754 6.34974 17.4072 7.35365 16.8276V16.8276ZM21.0411 8.92634C22.0444 8.34712 23.665 9.27591 24.6609 11.0009C25.6569 12.7258 25.6509 14.5937 24.6477 15.1729C23.6445 15.7522 22.0239 14.8234 21.0279 13.0984C20.032 11.3735 20.0379 9.50558 21.0411 8.92636L21.0411 8.92634Z" fill="#E6007A"/>
</svg>
