<svg width="32" height="32" viewBox="0 0 32 32" fill="none" xmlns="http://www.w3.org/2000/svg">
    <path d="M16 32C24.8366 32 32 24.8366 32 16C32 7.16344 24.8366 0 16 0C7.16344 0 0 7.16344 0 16C0 24.8366 7.16344 32 16 32Z" fill="#0B1624"/>
    <path d="M16.0147 19.2477H20.5753L16.0165 11.3065V6.4971L24.9523 21.8024H16.0147V19.2477Z" fill="#0B76FF"/>
    <path d="M16.0146 19.2477H11.4541L16.0129 11.3065V6.4971L7.077 21.8024H16.0146V19.2477Z" fill="#24C1FF"/>
    <path d="M9.64706 25.5848V23.7177C9.75353 23.7124 10.0194 23.7018 10.2276 23.7018C10.6853 23.7018 10.8712 23.9083 10.8712 24.1683C10.8762 24.2514 10.8585 24.3343 10.8199 24.4081C10.7814 24.4819 10.7234 24.5438 10.6524 24.5871V24.5924C10.7918 24.643 10.9259 24.78 10.9259 25.0212C10.9259 25.4159 10.6141 25.6006 10.1976 25.6006C10.0141 25.6006 9.75941 25.5953 9.64706 25.5848ZM10.2547 24.8312H10.0853V25.1842C10.1334 25.1968 10.1832 25.2021 10.2329 25.2C10.4029 25.2 10.4876 25.1277 10.4876 25.0018C10.4876 24.8759 10.3976 24.8312 10.2547 24.8312ZM10.2224 24.1042C10.1765 24.1048 10.1307 24.1084 10.0853 24.1148V24.4553H10.2306C10.3424 24.4553 10.4329 24.41 10.4329 24.273C10.4329 24.1606 10.3288 24.1042 10.2224 24.1042ZM13.1635 25.59V23.7124H14.3V24.1177H13.6018V24.4477H14.2182V24.85H13.6018V25.1906H14.3276V25.5883L13.1635 25.59ZM16.3182 25.59L17.1176 23.7124H17.5094L18.3047 25.5883H17.8341L17.6753 25.1942H16.9165L16.7576 25.5883L16.3182 25.59ZM17.2988 24.2624L17.0824 24.7918H17.5129L17.2988 24.2624ZM20.3771 25.5883V23.7124H20.8182L21.4118 24.5036L21.9706 23.7124H22.3824V25.5883H21.9441V24.3936L21.4118 25.1259H21.3471L20.8176 24.4018V25.5883H20.3771Z" fill="#25C1FF"/>
    <path d="M16.0147 13.3118V18.4454L13.2218 18.4513L16.0147 13.3118Z" fill="#39FFF2"/>
    <path d="M16.0147 13.3118V18.4454L18.8076 18.4513L16.0147 13.3118Z" fill="#00E2C2"/>
    <path d="M5.06646 11.283L16.0147 16.343V16.8724L5.06646 14.4765V11.283Z" fill="url(#paint0_linear)"/>
    <path d="M26.9853 9.81357L16.0147 16.343V16.5194L26.9853 11.9218V9.81357Z" fill="url(#paint1_linear)"/>
    <path d="M26.9853 16.1371L16.0147 16.8723V16.6959L26.9853 14.0294V16.1371Z" fill="url(#paint2_linear)"/>
    <path d="M26.9853 11.9218L16.0147 16.5195V16.696L26.9853 14.0295V11.9218Z" fill="url(#paint3_linear)"/>
    <defs>
        <linearGradient id="paint0_linear" x1="5.1147" y1="14.0671" x2="11.0523" y2="14.0671" gradientUnits="userSpaceOnUse">
            <stop stop-color="white" stop-opacity="0"/>
            <stop offset="1" stop-color="white"/>
        </linearGradient>
        <linearGradient id="paint1_linear" x1="26.9053" y1="13.1494" x2="19.93" y2="13.1494" gradientUnits="userSpaceOnUse">
            <stop stop-color="#FD76FD" stop-opacity="0"/>
            <stop offset="1" stop-color="#FF51FF"/>
        </linearGradient>
        <linearGradient id="paint2_linear" x1="27.0206" y1="15.4529" x2="21.3712" y2="15.4529" gradientUnits="userSpaceOnUse">
            <stop stop-color="#9D6EFF" stop-opacity="0"/>
            <stop offset="1" stop-color="#A18CFF"/>
        </linearGradient>
        <linearGradient id="paint3_linear" x1="26.9629" y1="14.3165" x2="20.5065" y2="14.3165" gradientUnits="userSpaceOnUse">
            <stop stop-color="#AE60D6" stop-opacity="0"/>
            <stop offset="1" stop-color="#AB38E6"/>
        </linearGradient>
    </defs>
</svg>
