<svg width="32" height="32" viewBox="0 0 32 32" fill="none" xmlns="http://www.w3.org/2000/svg">
    <path d="M16 32C24.8366 32 32 24.8366 32 16C32 7.16344 24.8366 0 16 0C7.16344 0 0 7.16344 0 16C0 24.8366 7.16344 32 16 32Z" fill="#F7F8FA"/>
    <path d="M16.4621 19.4874H10.2932C8.89177 19.4874 7.75696 18.3526 7.75696 16.9511V9.38667C7.75696 7.98519 8.89177 6.85037 10.2932 6.85037H15.0518C18.9303 6.85037 22.074 9.99407 22.074 13.8726C22.0769 16.9748 19.5614 19.4874 16.4621 19.4874Z" fill="#00CEAA"/>
    <path d="M19.6444 26.1689H13.4784C12.077 26.1689 10.9421 25.0341 10.9421 23.6326V16.0652C10.9421 14.6637 12.077 13.5289 13.4784 13.5289H18.237C22.1155 13.5289 25.2592 16.6726 25.2592 20.5511C25.2592 23.6533 22.7436 26.1689 19.6444 26.1689Z" fill="#00B2FA"/>
    <path d="M16.4621 19.4874C19.3036 19.4874 21.6503 17.3778 22.0236 14.637C20.9303 13.9348 19.6295 13.5289 18.234 13.5289H13.4784C12.077 13.5289 10.9421 14.6637 10.9421 16.0652V19.4874H16.4621Z" fill="white"/>
</svg>
