<svg width="32" height="32" viewBox="0 0 32 32" fill="none" xmlns="http://www.w3.org/2000/svg">
    <path d="M16 32C24.8366 32 32 24.8366 32 16C32 7.16344 24.8366 0 16 0C7.16344 0 0 7.16344 0 16C0 24.8366 7.16344 32 16 32Z" fill="#212833"/>
    <path d="M16.9417 12.7H14.9417C14.6765 12.7 14.4221 12.5946 14.2346 12.4071C14.0471 12.2196 13.9417 11.9652 13.9417 11.7V6.29999C13.9417 6.03477 14.0471 5.78042 14.2346 5.59288C14.4221 5.40534 14.6765 5.29999 14.9417 5.29999H16.9417C17.2069 5.29999 17.4613 5.40534 17.6488 5.59288C17.8363 5.78042 17.9417 6.03477 17.9417 6.29999V11.7C17.9417 11.9652 17.8363 12.2196 17.6488 12.4071C17.4613 12.5946 17.2069 12.7 16.9417 12.7ZM17.9417 25.7V20.3C17.9417 20.0348 17.8363 19.7804 17.6488 19.5929C17.4613 19.4053 17.2069 19.3 16.9417 19.3H14.9417C14.6765 19.3 14.4221 19.4053 14.2346 19.5929C14.0471 19.7804 13.9417 20.0348 13.9417 20.3V25.7C13.9417 25.9652 14.0471 26.2196 14.2346 26.4071C14.4221 26.5946 14.6765 26.7 14.9417 26.7H16.9417C17.073 26.7 17.2031 26.6741 17.3244 26.6239C17.4457 26.5736 17.5559 26.5 17.6488 26.4071C17.7417 26.3142 17.8153 26.204 17.8656 26.0827C17.9158 25.9613 17.9417 25.8313 17.9417 25.7ZM6.3042 18.0104H11.7042C11.9694 18.0104 12.2238 17.9051 12.4113 17.7175C12.5988 17.53 12.7042 17.2756 12.7042 17.0104V15.0104C12.7042 14.7452 12.5988 14.4908 12.4113 14.3033C12.2238 14.1158 11.9694 14.0104 11.7042 14.0104H6.3042C6.03898 14.0104 5.78463 14.1158 5.59709 14.3033C5.40956 14.4908 5.3042 14.7452 5.3042 15.0104V17.0104C5.3042 17.2756 5.40956 17.53 5.59709 17.7175C5.78463 17.9051 6.03898 18.0104 6.3042 18.0104V18.0104ZM20.2959 18.0104H25.6959C25.9611 18.0104 26.2154 17.9051 26.403 17.7175C26.5905 17.53 26.6959 17.2756 26.6959 17.0104V15.0104C26.6959 14.7452 26.5905 14.4908 26.403 14.3033C26.2154 14.1158 25.9611 14.0104 25.6959 14.0104H20.2959C20.0306 14.0104 19.7763 14.1158 19.5888 14.3033C19.4012 14.4908 19.2959 14.7452 19.2959 15.0104V17.0104C19.2959 17.2756 19.4012 17.53 19.5888 17.7175C19.7763 17.9051 20.0306 18.0104 20.2959 18.0104ZM12.5875 11.6771V9.67707C12.5875 9.41185 12.4822 9.1575 12.2946 8.96996C12.1071 8.78242 11.8527 8.67707 11.5875 8.67707H9.58753C9.32231 8.67707 9.06796 8.78242 8.88042 8.96996C8.69289 9.1575 8.58753 9.41185 8.58753 9.67707V11.6771C8.58753 11.9423 8.69289 12.1966 8.88042 12.3842C9.06796 12.5717 9.32231 12.6771 9.58753 12.6771H11.5875C11.8527 12.6771 12.1071 12.5717 12.2946 12.3842C12.4822 12.1966 12.5875 11.9423 12.5875 11.6771ZM23.2959 11.6771V9.67707C23.2959 9.41185 23.1905 9.1575 23.003 8.96996C22.8154 8.78242 22.5611 8.67707 22.2959 8.67707H20.2959C20.0306 8.67707 19.7763 8.78242 19.5888 8.96996C19.4012 9.1575 19.2959 9.41185 19.2959 9.67707V11.6771C19.2959 11.9423 19.4012 12.1966 19.5888 12.3842C19.7763 12.5717 20.0306 12.6771 20.2959 12.6771H22.2959C22.5611 12.6771 22.8154 12.5717 23.003 12.3842C23.1905 12.1966 23.2959 11.9423 23.2959 11.6771ZM12.5875 22.3437V20.3437C12.5875 20.0785 12.4822 19.8242 12.2946 19.6366C12.1071 19.4491 11.8527 19.3437 11.5875 19.3437H9.58753C9.32231 19.3437 9.06796 19.4491 8.88042 19.6366C8.69289 19.8242 8.58753 20.0785 8.58753 20.3437V22.3437C8.58753 22.609 8.69289 22.8633 8.88042 23.0508C9.06796 23.2384 9.32231 23.3437 9.58753 23.3437H11.5875C11.8527 23.3437 12.1071 23.2384 12.2946 23.0508C12.4822 22.8633 12.5875 22.609 12.5875 22.3437ZM23.2959 22.3437V20.3437C23.2959 20.0785 23.1905 19.8242 23.003 19.6366C22.8154 19.4491 22.5611 19.3437 22.2959 19.3437H20.2959C20.0306 19.3437 19.7763 19.4491 19.5888 19.6366C19.4012 19.8242 19.2959 20.0785 19.2959 20.3437V22.3437C19.2959 22.609 19.4012 22.8633 19.5888 23.0508C19.7763 23.2384 20.0306 23.3437 20.2959 23.3437H22.2959C22.5611 23.3437 22.8154 23.2384 23.003 23.0508C23.1905 22.8633 23.2959 22.609 23.2959 22.3437Z" fill="#F0B90B"/>
</svg>
