<svg width="32" height="32" viewBox="0 0 32 32" fill="none" xmlns="http://www.w3.org/2000/svg">
    <path d="M16 32C24.8366 32 32 24.8366 32 16C32 7.16344 24.8366 0 16 0C7.16344 0 0 7.16344 0 16C0 24.8366 7.16344 32 16 32Z" fill="black"/>
    <path d="M18.08 7.89759C17.471 7.54561 16.7802 7.3602 16.0768 7.35999H12.0832C12.3455 7.35978 12.6052 7.4113 12.8476 7.51157C13.0899 7.61185 13.3101 7.75893 13.4956 7.94439C13.6811 8.12985 13.8281 8.35005 13.9284 8.59241C14.0287 8.83476 14.0802 9.09451 14.08 9.35679V15.36H16.0768C16.7782 15.3606 17.4673 15.1751 18.0736 14.8224C18.6819 14.4722 19.1874 13.9681 19.539 13.3606C19.8907 12.7531 20.0761 12.0638 20.0768 11.3618C20.0774 10.6599 19.8932 9.97021 19.5427 9.36208C19.1922 8.75395 18.6877 8.24885 18.08 7.89759V7.89759Z" fill="#D85111"/>
    <path d="M19.2192 13.8368C18.8451 14.3106 18.3687 14.6937 17.8256 14.9575C17.2826 15.2213 16.6869 15.3589 16.0832 15.36H14.08V9.35681C14.08 8.82638 13.8693 8.31767 13.4942 7.9426C13.1191 7.56753 12.6104 7.35681 12.08 7.35681C11.5496 7.35681 11.0409 7.56753 10.6658 7.9426C10.2907 8.31767 10.08 8.82638 10.08 9.35681V23.36H17.0752C17.4107 23.3621 17.7455 23.3278 18.0736 23.2576C19.1014 23.0471 20.0371 22.5189 20.7483 21.7476C21.4595 20.9763 21.9104 20.001 22.037 18.9595C22.1636 17.918 21.9597 16.8631 21.4541 15.9438C20.9484 15.0246 20.1666 14.2875 19.2192 13.8368V13.8368Z" fill="white"/>
</svg>
