<svg width="32" height="32" viewBox="0 0 32 32" fill="none" xmlns="http://www.w3.org/2000/svg">
    <path d="M31 15.9809C30.9019 24.3402 24.3569 30.997 15.9963 31C7.62375 31.003 0.999184 24.3504 1 15.9988C1.00082 7.64737 7.62002 0.994576 16 1C24.3634 1.00543 30.882 7.65143 31 15.9809Z" fill="#F6EFE5"/>
    <path d="M31.9966 16.0322C32.1816 24.6368 24.7562 32.1987 15.6597 31.996C7.18953 31.8073 0.284342 24.8263 0.00888883 16.5514C-0.299154 7.29766 7.44271 -0.237403 16.4593 0.00572298C24.8128 0.230969 32.1738 7.27653 31.9966 16.0322ZM30.3368 15.9857C30.2243 8.05533 24.0067 1.72775 16.0295 1.72259C8.03648 1.71742 1.72294 8.05146 1.72216 16.0027C1.72138 23.9542 8.04004 30.288 16.0259 30.2852C24.0005 30.2824 30.2433 23.9445 30.3368 15.9857V15.9857Z" fill="#C4BCB1"/>
    <path d="M8.10504 9.99789C8.98274 10.0346 9.86045 10.0328 10.7382 9.99886L10.8186 9.99501C10.9944 9.91107 10.8912 9.75668 10.9003 9.63705C10.9325 9.21501 10.8572 8.78831 10.9596 8.36831C11.2096 7.34218 12.0953 6.76442 13.2408 6.88361C14.1946 6.98285 14.9196 7.79328 14.9392 8.78765C14.9454 9.10271 14.9494 9.4184 14.9362 9.73304C14.9278 9.93148 14.9635 10.0312 15.1983 10.0245C15.7597 10.0084 16.3219 10.0129 16.8836 10.0229C17.0761 10.0263 17.154 9.97255 17.1447 9.76851C17.1296 9.44031 17.1346 9.11081 17.1412 8.78207C17.1632 7.68844 17.9833 6.88738 19.0907 6.87284C20.2651 6.85742 21.1272 7.62714 21.1717 8.73998C21.1849 9.06832 21.1873 9.39835 21.1695 9.72624C21.1572 9.95417 21.2233 10.0296 21.461 10.0252C22.2556 10.0103 23.0506 10.0178 23.8454 10.0197C24.6183 10.0214 24.9951 10.3816 24.9513 11.1618C24.8953 12.1602 24.4244 12.9893 23.7705 13.7209C23.3056 14.2243 22.8089 14.6974 22.2834 15.1372C22.1078 15.2775 21.9683 15.4576 21.8762 15.6626C21.7842 15.8675 21.7424 16.0915 21.7542 16.3159C21.7826 17.8776 21.7669 19.4402 21.7644 21.0024C21.7601 23.6185 19.7835 25.6125 17.1641 25.6119C16.0148 25.6117 14.8597 25.7128 13.7162 25.5467C11.5788 25.2363 9.93962 23.3576 9.91408 21.1903C9.89486 19.5598 9.89606 17.9291 9.91767 16.2982C9.92585 16.0941 9.88799 15.8908 9.80689 15.7033C9.7258 15.5158 9.60355 15.349 9.4492 15.2151C8.93753 14.7399 8.4037 14.2888 7.92861 13.7739C7.36513 13.1714 6.96312 12.4362 6.75993 11.6367C6.6952 11.3698 6.68209 11.0929 6.72128 10.8211C6.78799 10.2957 7.1154 10.0661 7.86033 9.99767L8.10504 9.99789ZM11.8454 15.3589C11.8394 17.3175 11.7902 19.2772 11.8421 21.2343C11.8782 22.5932 12.9524 23.6177 14.3131 23.6762C15.3388 23.7202 16.3692 23.7151 17.3953 23.6745C18.6185 23.6259 19.5782 22.7319 19.8027 21.5247C19.8738 21.1424 19.8241 20.7588 19.8551 20.3777C19.8766 20.1137 19.7809 20.009 19.5243 19.9213C18.2573 19.5003 17.1148 18.7707 16.1999 17.7984C14.7802 16.2818 14.0484 14.4838 14.0867 12.3959C14.0932 12.0468 14.0074 11.929 13.6336 11.9422C12.7166 11.9745 11.7977 11.9525 10.8796 11.9535C10.1584 11.9543 9.96713 12.2368 10.1941 12.9376C10.3893 13.54 10.8247 13.9559 11.2781 14.3545C11.5652 14.6069 11.785 14.8877 11.8454 15.2738L11.8454 15.3589ZM19.7068 17.0861C19.7137 16.9732 19.6983 16.86 19.6614 16.753C19.6245 16.6461 19.5668 16.5475 19.4917 16.4628C19.4166 16.3782 19.3256 16.3092 19.2238 16.2599C19.1219 16.2105 19.0114 16.1817 18.8984 16.1752C18.6703 16.1654 18.4474 16.245 18.2772 16.3972C18.107 16.5494 18.003 16.762 17.9874 16.9898C17.9763 17.2178 18.0558 17.441 18.2084 17.6108C18.3611 17.7807 18.5746 17.8833 18.8025 17.8966C18.9153 17.9036 19.0283 17.8881 19.1351 17.851C19.2418 17.814 19.3401 17.756 19.4243 17.6806C19.5084 17.6052 19.5767 17.5138 19.6252 17.4117C19.6737 17.3097 19.7014 17.199 19.7068 17.0861V17.0861ZM13.6045 9.33464C13.6045 9.18425 13.6094 9.03368 13.6036 8.88351C13.5869 8.44611 13.3637 8.21816 12.9479 8.20796C12.5113 8.19725 12.267 8.42865 12.2462 8.87908C12.2393 9.02916 12.2449 9.17981 12.245 9.3302C12.2451 10.0213 12.2451 10.0213 12.9257 10.0211C13.6066 10.021 13.6066 10.021 13.6045 9.33464ZM18.4753 9.2761C18.4742 10.0219 18.4742 10.0219 19.2172 10.0213C19.3266 10.0212 19.4368 10.0133 19.5453 10.0238C19.7469 10.0432 19.8488 9.98827 19.8344 9.75678C19.8156 9.45703 19.8393 9.15485 19.8272 8.85441C19.81 8.42289 19.5735 8.20623 19.1474 8.2103C18.7217 8.21436 18.4939 8.435 18.4764 8.86578C18.4708 9.00233 18.4755 9.13931 18.4753 9.2761H18.4753Z" fill="#030202"/>
    <path d="M11.8451 15.2735C11.7847 14.8874 11.5648 14.6066 11.2777 14.3542C10.8243 13.9556 10.3889 13.5397 10.1938 12.9373C9.96679 12.2365 10.1581 11.9539 10.8792 11.9532C11.7974 11.9522 12.7163 11.9742 13.6333 11.9419C14.0071 11.9287 14.0928 12.0465 14.0864 12.3956C14.0481 14.4835 14.7799 16.2815 16.1995 17.7981C17.1145 18.7704 18.2569 19.5 19.524 19.921C19.7806 20.0087 19.8762 20.1134 19.8548 20.3774C19.8237 20.7585 19.8734 21.1421 19.8023 21.5244C19.5779 22.7316 18.6182 23.6256 17.3949 23.6741C16.3689 23.7148 15.3384 23.7199 14.3127 23.6759C12.9521 23.6174 11.8778 22.5929 11.8418 21.234C11.7899 19.2769 11.839 17.3172 11.8451 15.3586C11.9068 15.3302 11.9437 15.3018 11.8451 15.2735ZM14.3814 17.0397C14.3822 16.9267 14.3607 16.8146 14.318 16.7099C14.2754 16.6052 14.2124 16.51 14.1328 16.4297C14.0532 16.3494 13.9585 16.2857 13.8542 16.2421C13.7499 16.1986 13.638 16.1761 13.5249 16.176C13.4115 16.1754 13.2991 16.1972 13.1941 16.2401C13.0891 16.2831 12.9936 16.3464 12.9131 16.4263C12.8327 16.5062 12.7688 16.6013 12.7251 16.706C12.6815 16.8107 12.6589 16.923 12.6588 17.0364C12.6586 17.1498 12.6809 17.2622 12.7242 17.367C12.7676 17.4718 12.8313 17.567 12.9115 17.6472C12.9918 17.7273 13.0871 17.7909 13.192 17.8341C13.2968 17.8773 13.4092 17.8994 13.5226 17.8991C13.6358 17.9002 13.748 17.8788 13.8527 17.836C13.9575 17.7931 14.0526 17.7299 14.1326 17.6498C14.2125 17.5698 14.2757 17.4746 14.3185 17.3698C14.3612 17.2651 14.3826 17.1528 14.3814 17.0397V17.0397Z" fill="#F4EDE4"/>
    <path d="M19.7067 17.0856C19.7013 17.1985 19.6736 17.3091 19.6251 17.4112C19.5766 17.5133 19.5083 17.6047 19.4242 17.6801C19.34 17.7555 19.2417 17.8134 19.135 17.8505C19.0283 17.8876 18.9152 17.9031 18.8024 17.896C18.5745 17.8828 18.361 17.7801 18.2084 17.6103C18.0557 17.4405 17.9763 17.2173 17.9873 16.9892C18.003 16.7615 18.107 16.5488 18.2772 16.3966C18.4474 16.2445 18.6703 16.1648 18.8984 16.1746C19.0113 16.1812 19.1219 16.21 19.2237 16.2593C19.3255 16.3087 19.4166 16.3776 19.4917 16.4623C19.5667 16.5469 19.6244 16.6455 19.6613 16.7525C19.6982 16.8595 19.7136 16.9726 19.7067 17.0856V17.0856Z" fill="#FEFDFD"/>
    <path d="M13.6041 9.33456C13.606 10.0209 13.606 10.0209 12.9251 10.0211C12.2446 10.0213 12.2445 10.0213 12.2444 9.33012C12.2443 9.17973 12.2387 9.02907 12.2456 8.879C12.2664 8.42856 12.5107 8.19716 12.9473 8.20788C13.3631 8.21808 13.5864 8.44603 13.603 8.88343C13.6088 9.0336 13.604 9.18417 13.6041 9.33456Z" fill="#ECE7DF"/>
    <path d="M18.4764 9.27582C18.4765 9.13903 18.4718 9.00206 18.4773 8.8655C18.4949 8.43472 18.7226 8.21408 19.1483 8.21002C19.5745 8.20595 19.8109 8.42261 19.8282 8.85414C19.8402 9.15457 19.8166 9.45675 19.8353 9.7565C19.8498 9.98799 19.7479 10.043 19.5462 10.0235C19.4378 10.013 19.3276 10.0209 19.2181 10.021C18.4752 10.0216 18.4752 10.0216 18.4764 9.27582Z" fill="#ECE7DF"/>
    <path d="M11.8457 15.2734C11.9443 15.3018 11.9074 15.3302 11.8457 15.3585C11.8457 15.3302 11.8457 15.3018 11.8457 15.2734Z" fill="#FEFDFD"/>
    <path d="M14.3828 17.04C14.384 17.1531 14.3626 17.2654 14.3199 17.3702C14.2771 17.4749 14.2139 17.5701 14.134 17.6501C14.054 17.7302 13.9588 17.7935 13.8541 17.8363C13.7494 17.8791 13.6372 17.9005 13.524 17.8994C13.4106 17.8997 13.2982 17.8776 13.1933 17.8344C13.0885 17.7912 12.9932 17.7277 12.9129 17.6475C12.8327 17.5673 12.769 17.4721 12.7256 17.3673C12.6823 17.2625 12.66 17.1501 12.6602 17.0367C12.6603 16.9233 12.6829 16.811 12.7265 16.7063C12.7702 16.6016 12.8341 16.5065 12.9145 16.4266C12.995 16.3467 13.0905 16.2834 13.1955 16.2404C13.3005 16.1975 13.4129 16.1757 13.5263 16.1763C13.6394 16.1764 13.7513 16.1989 13.8556 16.2424C13.9599 16.286 14.0546 16.3497 14.1342 16.43C14.2138 16.5103 14.2768 16.6055 14.3194 16.7102C14.3621 16.8149 14.3836 16.927 14.3828 17.04Z" fill="#030202"/>
</svg>
