<svg width="32" height="32" viewBox="0 0 32 32" fill="none" xmlns="http://www.w3.org/2000/svg">
    <path d="M16 32C24.8366 32 32 24.8366 32 16C32 7.16344 24.8366 0 16 0C7.16344 0 0 7.16344 0 16C0 24.8366 7.16344 32 16 32Z" fill="#F0B90B"/>
    <path d="M27.8967 13.2784L25.2703 15.9048L18.6707 9.30511L21.297 6.67871L27.8967 13.2784ZM6.75085 16.1068L4.12445 18.7332L10.7241 25.3329L13.3505 22.7065L6.75085 16.1068ZM10.6568 6.67871L4.12445 13.211L6.75085 15.8374L13.2832 9.30511L10.6568 6.67871ZM15.9769 9.30511L9.30991 15.9721L12.0037 18.6659L18.6707 11.9989L15.9769 9.30511ZM20.0175 13.3457L13.3505 20.0127L15.9769 22.6391L22.6439 15.9721L20.0175 13.3457ZM25.203 16.1068L18.6707 22.6391L21.3644 25.3329L27.8968 18.8005L25.203 16.1068Z" fill="white"/>
</svg>
