<svg width="32" height="32" viewBox="0 0 32 32" fill="none" xmlns="http://www.w3.org/2000/svg">
    <path d="M16 32C24.8366 32 32 24.8366 32 16C32 7.16344 24.8366 0 16 0C7.16344 0 0 7.16344 0 16C0 24.8366 7.16344 32 16 32Z" fill="#18578C"/>
    <path d="M11.633 20.336C12.295 21.011 12.295 22.105 11.633 22.78C10.971 23.455 9.897 23.457 9.233 22.783C8.913 22.459 8.733 22.018 8.733 21.558C8.733 21.098 8.913 20.658 9.233 20.333C9.38934 20.1731 9.57611 20.046 9.78231 19.9594C9.98851 19.8727 10.21 19.8283 10.4336 19.8285C10.6573 19.8288 10.8786 19.8739 11.0846 19.961C11.2906 20.0482 11.4771 20.1757 11.633 20.336ZM22.696 8.726C23.0085 8.86004 23.2746 9.08319 23.4609 9.36758C23.6473 9.65197 23.7458 9.98498 23.744 10.325C23.744 11.025 23.33 11.655 22.696 11.923C22.062 12.191 21.331 12.043 20.846 11.548C20.5262 11.2213 20.3474 10.7822 20.348 10.325C20.348 9.865 20.527 9.425 20.846 9.102C21.0809 8.86078 21.3831 8.69598 21.7131 8.62908C22.0432 8.56219 22.3857 8.59631 22.696 8.727V8.726ZM11.41 19.003L13.047 17.327C13.2073 17.7375 13.449 18.1113 13.7577 18.4258C14.0664 18.7403 14.4356 18.9891 14.843 19.157L13.202 20.828L11.41 19.003ZM21.107 12.866L19.466 14.538C19.3068 14.1274 19.0651 13.7537 18.756 13.44C18.4488 13.1267 18.081 12.8793 17.675 12.713L19.315 11.041L21.107 12.866ZM20.42 20.808C20.5456 20.4942 20.762 20.225 21.0416 20.0349C21.3211 19.8448 21.651 19.7425 21.989 19.741C22.676 19.741 23.295 20.162 23.558 20.808C23.82 21.455 23.675 22.198 23.19 22.693C23.0338 22.8534 22.847 22.981 22.6408 23.0683C22.4345 23.1555 22.2129 23.2006 21.989 23.201C21.7652 23.2005 21.5438 23.1553 21.3377 23.0681C21.1317 22.9809 20.9451 22.8533 20.789 22.693C20.5507 22.4488 20.3889 22.1404 20.3234 21.8055C20.2578 21.4707 20.2914 21.124 20.42 20.808ZM9.035 9.51C9.16046 9.19599 9.37681 8.92658 9.65635 8.73631C9.93588 8.54604 10.2659 8.44356 10.604 8.442C11.291 8.442 11.91 8.863 12.173 9.51C12.435 10.156 12.29 10.9 11.805 11.395C11.6487 11.5553 11.4619 11.6827 11.2557 11.7697C11.0494 11.8568 10.8279 11.9018 10.604 11.902C10.3803 11.9016 10.1589 11.8566 9.95286 11.7695C9.74679 11.6825 9.56019 11.5551 9.404 11.395C9.16573 11.1508 9.0039 10.8424 8.93835 10.5075C8.8728 10.1727 8.90639 9.82602 9.035 9.51ZM19.18 20.754L17.535 19.087C17.9424 18.9191 18.3116 18.6703 18.6203 18.3558C18.929 18.0413 19.1707 17.6675 19.331 17.257L20.971 18.929L19.18 20.754ZM13.339 10.944L14.979 12.617C14.574 12.7812 14.2073 13.0273 13.902 13.34C13.594 13.654 13.351 14.03 13.188 14.442L11.548 12.77L13.339 10.944ZM16.281 9.463C15.342 9.463 14.581 8.688 14.581 7.731C14.581 6.774 15.342 6 16.281 6C16.731 6 17.164 6.182 17.483 6.507C17.802 6.832 17.981 7.272 17.98 7.731C17.98 8.688 17.22 9.463 16.28 9.463H16.281ZM17.981 24.269C17.981 25.225 17.219 26 16.281 26C15.343 26 14.581 25.225 14.581 24.269C14.581 23.313 15.342 22.537 16.281 22.537C16.731 22.537 17.164 22.719 17.483 23.044C17.802 23.369 17.981 23.809 17.98 24.269H17.981ZM16.898 10.369V12.513C16.5441 12.4505 16.1819 12.4505 15.828 12.513V10.369H16.898ZM16.898 19.581V21.726H15.828V19.58C16.182 19.643 16.544 19.643 16.898 19.58V19.581ZM22.23 16.189C22.1012 15.8727 22.0675 15.5257 22.1331 15.1905C22.1986 14.8553 22.3606 14.5465 22.599 14.302C22.8341 14.0604 23.1366 13.8954 23.467 13.8283C23.7974 13.7612 24.1403 13.7953 24.451 13.926C25.086 14.194 25.5 14.826 25.5 15.526C25.5 15.986 25.321 16.426 25.003 16.751C24.8066 16.9526 24.5627 17.1017 24.2937 17.1847C24.0247 17.2677 23.7392 17.2819 23.4633 17.226C23.1874 17.17 22.9299 17.0458 22.7145 16.8647C22.499 16.6835 22.3324 16.4512 22.23 16.189ZM6.5 15.82C6.5 14.864 7.26 14.089 8.2 14.089C9.138 14.089 9.899 14.863 9.9 15.819C9.9 16.279 9.72 16.719 9.402 17.044C9.24547 17.2043 9.05853 17.3316 8.85212 17.4187C8.64572 17.5058 8.42401 17.5507 8.2 17.551C7.261 17.551 6.5 16.776 6.5 15.821V15.82ZM21.583 16.365L19.479 16.363C19.5404 16.0023 19.5404 15.6337 19.479 15.273H21.583V16.365ZM12.94 16.365H10.835V15.275H12.94C12.8786 15.6357 12.8786 16.0043 12.94 16.365ZM16.23 18.402C14.899 18.402 13.82 17.303 13.82 15.948C13.82 14.593 14.899 13.493 16.23 13.493C17.56 13.493 18.639 14.593 18.64 15.948C18.64 17.303 17.56 18.402 16.23 18.402Z" fill="white"/>
</svg>
