<svg width="32" height="32" viewBox="0 0 32 32" fill="none" xmlns="http://www.w3.org/2000/svg">
    <path d="M16 32C24.8366 32 32 24.8366 32 16C32 7.16344 24.8366 0 16 0C7.16344 0 0 7.16344 0 16C0 24.8366 7.16344 32 16 32Z" fill="#102644"/>
    <path d="M15.92 5.88L11.402 8.52701L15.92 11.175L20.523 8.52701L15.92 5.88ZM16.663 20.014V25.309L22.8 21.808V16.512L16.663 20.014ZM21.266 10.192V15.488L16.662 18.136V12.84L21.266 10.192ZM10.184 15.488L14.788 18.136V12.84L10.184 10.192V15.488ZM10.184 22.662L14.788 25.309V20.014L10.184 17.367V22.661V22.662Z" fill="white"/>
</svg>
