<svg width="32" height="32" viewBox="0 0 32 32" fill="none" xmlns="http://www.w3.org/2000/svg">
    <path d="M16 32C24.8366 32 32 24.8366 32 16C32 7.16344 24.8366 0 16 0C7.16344 0 0 7.16344 0 16C0 24.8366 7.16344 32 16 32Z" fill="#262626"/>
    <path d="M24.3804 22.1957L21.1196 23.9565L13.4892 23.1305L14.1413 22.0435L13.0544 21.3913C12.5109 21.0652 12.7065 18.2391 12.7065 18.2391C9.07605 13.1304 11.0325 9.84785 11.0325 9.84785C10.1848 13.7826 15.75 15.6087 15.75 15.6087C14.6413 13.1087 16.163 11.7826 16.163 11.7826C17.3804 14.7174 18.7934 14.8261 18.7934 14.8261L20.2065 14.9348L22.0543 13.0652C21.6136 12.426 21.4037 11.6558 21.459 10.8814C21.5143 10.107 21.8316 9.37443 22.3586 8.80434C23.25 12.2826 25.0978 12.2826 25.0978 12.2826L27.8369 12.3696L19.3804 3.91299C18.7906 3.32811 17.9936 2.99994 17.163 2.99994C16.3324 2.99994 15.5354 3.32811 14.9456 3.91299L5.07608 13.7826C4.49121 14.3724 4.16304 15.1694 4.16304 16C4.16304 16.8306 4.49121 17.6276 5.07608 18.2174L14.9456 28.0869C15.5354 28.6718 16.3324 29 17.163 29C17.9936 29 18.7906 28.6718 19.3804 28.0869L24.7935 22.6739L24.3804 22.1957Z" fill="url(#paint0_linear_1002_249)"/>
    <path d="M18.7935 17.7827C19.3402 17.5836 19.8164 17.2283 20.163 16.7609C20.25 16.6305 20.4021 16.7174 20.4456 16.8696C20.5543 17.3479 20.75 18.2609 18.8369 18.087C18.8026 18.0821 18.7708 18.0662 18.7463 18.0417C18.7218 18.0172 18.7059 17.9854 18.701 17.9511C18.6961 17.9168 18.7025 17.8819 18.7192 17.8515C18.7358 17.8211 18.7619 17.797 18.7935 17.7827Z" fill="url(#paint1_linear_1002_249)"/>
    <defs>
        <linearGradient id="paint0_linear_1002_249" x1="13.4955" y1="7.90931" x2="19.6366" y2="24.0034" gradientUnits="userSpaceOnUse">
            <stop stop-color="#F15F40"/>
            <stop offset="1" stop-color="#EF2356"/>
        </linearGradient>
        <linearGradient id="paint1_linear_1002_249" x1="46.9999" y1="-61.0631" x2="54.1132" y2="-84.9698" gradientUnits="userSpaceOnUse">
            <stop stop-color="#F15F40"/>
            <stop offset="1" stop-color="#EF2356"/>
        </linearGradient>
    </defs>
</svg>
