<svg width="32" height="32" viewBox="0 0 32 32" fill="none" xmlns="http://www.w3.org/2000/svg">
    <path d="M16 32C24.8366 32 32 24.8366 32 16C32 7.16344 24.8366 0 16 0C7.16344 0 0 7.16344 0 16C0 24.8366 7.16344 32 16 32Z" fill="black"/>
    <path d="M13.0371 19.4734C12.8767 19.4738 12.7215 19.4172 12.599 19.3136C12.4765 19.2101 12.3949 19.0664 12.3686 18.9082L10.4779 7.79194C10.4625 7.7041 10.4649 7.61408 10.4848 7.52717C10.5047 7.44025 10.5418 7.35819 10.5939 7.28579C10.6716 7.1763 10.7801 7.09232 10.9056 7.04446C11.031 6.99661 11.1679 6.98703 11.2988 7.01693C11.4297 7.04684 11.5488 7.11489 11.6411 7.21248C11.7333 7.31008 11.7946 7.43283 11.8171 7.56522L13.7077 18.6815C13.7231 18.7694 13.7207 18.8594 13.7008 18.9463C13.6809 19.0332 13.6438 19.1153 13.5917 19.1877C13.5402 19.2604 13.4748 19.3222 13.3994 19.3696C13.3239 19.417 13.2399 19.4491 13.152 19.464C13.114 19.4703 13.0756 19.4735 13.0371 19.4734V19.4734Z" fill="#CCFF00"/>
    <path d="M13.0371 19.4734C12.8767 19.4738 12.7215 19.4172 12.599 19.3136C12.4765 19.2101 12.3949 19.0664 12.3686 18.9082L10.4779 7.79194C10.4625 7.7041 10.4649 7.61408 10.4848 7.52717C10.5047 7.44025 10.5418 7.35819 10.5939 7.28579C10.6716 7.1763 10.7801 7.09232 10.9056 7.04446C11.031 6.99661 11.1679 6.98703 11.2988 7.01693C11.4297 7.04684 11.5488 7.11489 11.6411 7.21248C11.7333 7.31008 11.7946 7.43283 11.8171 7.56522L13.7077 18.6815C13.7231 18.7694 13.7207 18.8594 13.7008 18.9463C13.6809 19.0332 13.6438 19.1153 13.5917 19.1877C13.5402 19.2604 13.4748 19.3222 13.3994 19.3696C13.3239 19.417 13.2399 19.4491 13.152 19.464C13.114 19.4703 13.0756 19.4735 13.0371 19.4734V19.4734Z" fill="#CCFF00"/>
    <path d="M16.2058 14.3466C15.1651 14.3453 14.1472 14.6512 13.2796 15.226L13.5084 16.5715C14.2459 15.9317 15.1871 15.5754 16.1634 15.5664C17.1397 15.5575 18.0872 15.8964 18.8363 16.5226C19.5854 17.1488 20.087 18.0212 20.2513 18.9836C20.4156 19.946 20.2318 20.9355 19.7329 21.7747C19.234 22.6139 18.4525 23.2481 17.5286 23.5635C16.6046 23.8789 15.5985 23.8551 14.6906 23.4961C13.7826 23.1372 13.0321 22.4667 12.5736 21.6048C12.1151 20.7428 11.9785 19.7458 12.1882 18.7922L11.8234 16.6506C11.1482 17.6308 10.821 18.809 10.894 19.997C10.9669 21.1849 11.4359 22.3142 12.2259 23.2044C13.0159 24.0947 14.0815 24.6945 15.2524 24.9081C16.4233 25.1218 17.632 24.9369 18.6855 24.383C19.739 23.8292 20.5765 22.9382 21.0643 21.8526C21.5521 20.7669 21.662 19.5491 21.3766 18.3936C21.0911 17.2381 20.4266 16.2116 19.4894 15.478C18.5521 14.7445 17.396 14.3461 16.2058 14.3466V14.3466Z" fill="#CCFF00"/>
    <path d="M15.9148 22.7814C16.3154 22.7814 16.6402 22.4566 16.6402 22.0559C16.6402 21.6553 16.3154 21.3304 15.9148 21.3304C15.5141 21.3304 15.1893 21.6553 15.1893 22.0559C15.1893 22.4566 15.5141 22.7814 15.9148 22.7814Z" fill="#1CD8D2"/>
    <path d="M18.1808 21.9368C18.5815 21.9368 18.9063 21.612 18.9063 21.2113C18.9063 20.8106 18.5815 20.4858 18.1808 20.4858C17.7802 20.4858 17.4554 20.8106 17.4554 21.2113C17.4554 21.612 17.7802 21.9368 18.1808 21.9368Z" fill="#1CD8D2"/>
    <path d="M16.3998 20.3814C16.8005 20.3814 17.1253 20.0566 17.1253 19.6559C17.1253 19.2552 16.8005 18.9304 16.3998 18.9304C15.9992 18.9304 15.6744 19.2552 15.6744 19.6559C15.6744 20.0566 15.9992 20.3814 16.3998 20.3814Z" fill="#1CD8D2"/>
    <path d="M14.1475 21.1227C14.5481 21.1227 14.8729 20.7979 14.8729 20.3972C14.8729 19.9966 14.5481 19.6718 14.1475 19.6718C13.7468 19.6718 13.422 19.9966 13.422 20.3972C13.422 20.7979 13.7468 21.1227 14.1475 21.1227Z" fill="#1CD8D2"/>
    <path d="M18.6448 19.638C19.0455 19.638 19.3703 19.3132 19.3703 18.9125C19.3703 18.5118 19.0455 18.187 18.6448 18.187C18.2441 18.187 17.9193 18.5118 17.9193 18.9125C17.9193 19.3132 18.2441 19.638 18.6448 19.638Z" fill="#1CD8D2"/>
    <path d="M16.8838 17.9814C17.2845 17.9814 17.6093 17.6565 17.6093 17.2559C17.6093 16.8552 17.2845 16.5304 16.8838 16.5304C16.4832 16.5304 16.1584 16.8552 16.1584 17.2559C16.1584 17.6565 16.4832 17.9814 16.8838 17.9814Z" fill="#1CD8D2"/>
    <path d="M14.6104 18.825C15.0111 18.825 15.3359 18.5002 15.3359 18.0995C15.3359 17.6988 15.0111 17.374 14.6104 17.374C14.2097 17.374 13.8849 17.6988 13.8849 18.0995C13.8849 18.5002 14.2097 18.825 14.6104 18.825Z" fill="#1CD8D2"/>
</svg>
