<svg width="32" height="32" viewBox="0 0 32 32" fill="none" xmlns="http://www.w3.org/2000/svg">
    <g clip-path="url(#clip0_1171_6)">
        <path d="M16 32C24.8366 32 32 24.8366 32 16C32 7.16344 24.8366 0 16 0C7.16344 0 0 7.16344 0 16C0 24.8366 7.16344 32 16 32Z" fill="#2F06AA"/>
        <path d="M26.0203 3.53601L22.8874 7.80494L12.8736 13.0219L12.7253 21.3924L29.8103 21.5096L25.2394 29.0479C27.5771 27.4052 29.4291 25.1632 30.6009 22.5575C31.7727 19.9517 32.2209 17.0784 31.8985 14.2395C31.8785 14.0572 31.8421 13.8802 31.8161 13.6997C31.759 13.3047 31.6965 12.9115 31.6109 12.5265C31.5666 12.3267 31.5105 12.1316 31.4588 11.9347C31.3638 11.5737 31.2618 11.2156 31.1427 10.865C31.0785 10.6756 31.0081 10.4892 30.937 10.303C30.8015 9.94895 30.6544 9.60105 30.4957 9.25925C30.4189 9.09451 30.3415 8.93025 30.2593 8.76865C30.073 8.40274 29.8711 8.04623 29.6581 7.69724C29.5833 7.57449 29.5122 7.44931 29.4342 7.32871C29.1655 6.91404 28.8785 6.513 28.5731 6.12558C28.5375 6.08035 28.5057 6.03207 28.4696 5.98721C27.7434 5.08463 26.9223 4.26283 26.0203 3.53601V3.53601Z" fill="#241185"/>
        <path d="M6.062 26L17.4048 16.9683L10.9723 11.7529L25.938 6L19.5463 11.1138L21.2609 20.0882L6.062 26Z" fill="white"/>
        <path d="M11.0163 21.5869V12.363L16.8251 16.9724L11.0163 21.5869Z" fill="white"/>
    </g>
    <defs>
        <clipPath id="clip0_1171_6">
            <rect width="32" height="32" fill="white"/>
        </clipPath>
    </defs>
</svg>
