<svg width="32" height="32" viewBox="0 0 32 32" fill="none" xmlns="http://www.w3.org/2000/svg">
    <path opacity="0.98" d="M16 32C24.8365 32 32 24.8365 32 16C32 7.16344 24.8365 0 16 0C7.16344 0 0 7.16344 0 16C0 24.8365 7.16344 32 16 32Z" fill="black"/>
    <path d="M10.9219 7.79688H14.8281H10.9219ZM21.0781 9.35938L10.9219 13.1015L21.0781 9.35938ZM21.0781 18.8984L10.9219 22.6406L21.0781 18.8984ZM21.0781 24.2031H17.1719H21.0781Z" fill="white"/>
    <path fill-rule="evenodd" clip-rule="evenodd" d="M9.75007 7.79688C9.75007 7.14967 10.2747 6.625 10.9219 6.625H14.8282C15.4754 6.625 16.0001 7.14967 16.0001 7.79688C16.0001 8.44408 15.4754 8.96875 14.8282 8.96875H10.9219C10.2747 8.96875 9.75007 8.44408 9.75007 7.79688ZM22.1778 8.95422C22.4016 9.56152 22.0907 10.2352 21.4834 10.459L11.3271 14.2011C10.7198 14.4249 10.0461 14.114 9.82234 13.5067C9.59858 12.8994 9.9095 12.2257 10.5168 12.0019L20.673 8.25977C21.2803 8.036 21.954 8.34692 22.1778 8.95422ZM22.1778 18.4932C22.4016 19.1005 22.0907 19.7742 21.4834 19.998L11.3271 23.7402C10.7198 23.964 10.0461 23.6531 9.82235 23.0458C9.59858 22.4385 9.90949 21.7648 10.5168 21.541L20.673 17.7988C21.2803 17.575 21.954 17.8859 22.1778 18.4932ZM16.0001 24.2031C16.0001 23.5559 16.5247 23.0312 17.1719 23.0312H21.0782C21.7254 23.0312 22.2501 23.5559 22.2501 24.2031C22.2501 24.8503 21.7254 25.375 21.0782 25.375H17.1719C16.5247 25.375 16.0001 24.8503 16.0001 24.2031Z" fill="white"/>
    <path d="M21.0781 14.0469L10.9219 17.9531L21.0781 14.0469Z" fill="white"/>
    <path fill-rule="evenodd" clip-rule="evenodd" d="M22.1718 13.6262C22.4042 14.2303 22.1028 14.9083 21.4988 15.1407L11.3425 19.0469C10.7384 19.2793 10.0604 18.9779 9.82806 18.3738C9.59573 17.7698 9.89708 17.0917 10.5011 16.8594L20.6574 12.9531C21.2615 12.7208 21.9395 13.0222 22.1718 13.6262Z" fill="white"/>
</svg>
