<svg width="32" height="32" viewBox="0 0 32 32" fill="none" xmlns="http://www.w3.org/2000/svg">
    <g clip-path="url(#clip0)">
        <path d="M31.9993 15.9845C32.0816 24.7627 24.7324 32.2515 15.5005 31.9956C7.16173 31.7647 -0.242581 24.7849 0.0060892 15.4817C0.221501 7.42163 7.00537 -0.385886 16.8039 0.0147865C24.8167 0.34244 32.012 7.00557 31.9993 15.9845Z" fill="url(#paint0_linear)"/>
        <path fill-rule="evenodd" clip-rule="evenodd" d="M20.534 15.779C20.4542 15.8076 20.3727 15.8368 20.2881 15.8662C20.4512 15.921 20.6113 15.9703 20.768 16.0187C21.1012 16.1213 21.4197 16.2195 21.7209 16.356C23.0893 16.9764 23.6699 18.0819 23.5002 19.5864C23.3108 21.2651 22.2501 22.146 20.7554 22.6326C19.5301 23.0314 18.2569 23.1254 16.9802 23.1394C15.2311 23.1587 13.4819 23.1659 11.7327 23.1731C11.0315 23.176 10.3303 23.1789 9.62917 23.1825C8.89883 23.1863 8.48906 22.8004 8.48906 22.1126C8.48909 20.207 8.48901 18.3014 8.48892 16.3957C8.48882 14.2524 8.48872 12.109 8.48879 9.96566C8.48879 9.1945 8.86976 8.81428 9.63223 8.81428C10.345 8.81426 11.0578 8.81073 11.7706 8.80719C13.3897 8.79917 15.0087 8.79115 16.6269 8.82427L16.6691 8.82513C18.0457 8.85326 19.4381 8.88171 20.7718 9.2935C22.1813 9.72875 23.2458 10.7855 23.3 12.4679C23.3547 14.1668 22.3486 15.2042 21.0218 15.6125C20.8603 15.6622 20.7011 15.7192 20.534 15.779ZM18.7878 19.7885C18.3158 19.943 17.8141 20.0774 17.3225 20.0885C16.155 20.1149 14.9869 20.1105 13.8003 20.106C13.3384 20.1042 12.8736 20.1025 12.4051 20.1025V11.9021C12.4714 11.9021 12.5352 11.902 12.5974 11.9019C12.7281 11.9018 12.8514 11.9016 12.9748 11.9022C13.3612 11.904 13.7476 11.905 14.134 11.9059C15.1997 11.9086 16.2654 11.9112 17.3306 11.9326C17.6949 11.9399 18.0662 12.029 18.418 12.1346C18.9927 12.3073 19.2487 12.6712 19.237 13.2057C19.2244 13.7907 18.9336 14.1861 18.3369 14.3114C17.8711 14.4091 17.3897 14.4604 16.9137 14.4743C16.3545 14.4905 15.7947 14.4875 15.235 14.4845C14.9284 14.4828 14.6219 14.4811 14.3155 14.4826C13.8143 14.4851 13.6169 14.6801 13.6078 15.1826C13.5988 15.6752 13.596 16.1682 13.6027 16.6608C13.6093 17.1466 13.826 17.3558 14.3203 17.3579C14.6255 17.3592 14.931 17.356 15.2363 17.3528C15.8643 17.3461 16.4921 17.3395 17.1179 17.3725C17.6792 17.4021 18.2458 17.5209 18.7872 17.6782C19.2642 17.8167 19.4324 18.2426 19.4415 18.7148C19.4507 19.2053 19.2728 19.6296 18.7878 19.7885Z" fill="white"/>
    </g>
    <defs>
        <linearGradient id="paint0_linear" x1="-2.57398e-06" y1="16.001" x2="32" y2="16.001" gradientUnits="userSpaceOnUse">
            <stop stop-color="#F8A438"/>
            <stop offset="0.9995" stop-color="#FE4F92"/>
        </linearGradient>
        <clipPath id="clip0">
            <rect width="32" height="32" fill="white"/>
        </clipPath>
    </defs>
</svg>
