<svg width="32" height="32" viewBox="0 0 32 32" fill="none" xmlns="http://www.w3.org/2000/svg">
<path d="M15.9999 31.9949C24.8337 31.9949 31.9949 24.8337 31.9949 15.9999C31.9949 7.16608 24.8337 0.00488281 15.9999 0.00488281C7.16608 0.00488281 0.00488281 7.16608 0.00488281 15.9999C0.00488281 24.8337 7.16608 31.9949 15.9999 31.9949Z" fill="white"/>
<path d="M28.3928 6.01953C27.2832 6.23888 26.2252 6.54857 25.3542 6.74209C23.3671 7.18728 21.509 8.70986 21.1026 11.4969C20.7413 13.9872 21.58 15.0582 21.2123 17.9549C20.5671 23.0129 15.7156 24.7548 13.451 25.8129C12.1414 26.4193 8.96076 27.8129 6.50916 28.8774C9.16722 30.8387 12.4446 32 15.9994 32C24.8381 32 31.9993 24.8387 31.9993 16.0001C31.9993 12.2324 30.6961 8.76789 28.5155 6.03891C28.4768 6.03241 28.438 6.02597 28.3928 6.01953Z" fill="url(#paint0_linear_1514_128)"/>
<path d="M14.1999 13.6515C15.4321 10.987 14.987 10.9805 15.9225 8.47736C17.1031 5.30318 20.774 6.20639 21.7869 6.34189C23.4579 6.56767 23.8966 5.97417 27.4191 5.4064C27.5933 5.3806 27.7611 5.35479 27.9288 5.33543C24.9998 2.0645 20.7418 0 15.9999 0C9.63216 0 4.13545 3.71609 1.56128 9.10313C6.83866 10.4128 12.5354 13.258 14.1999 13.6515ZM10.7031 2.78707C11.1676 2.85804 13.4257 5.66446 13.8515 12.8709C13.8515 12.8709 10.9483 12.1741 10.3225 10.6773C9.80636 9.44508 10.4773 7.82571 10.7031 2.78707ZM28.4901 6.00637C28.4966 6.01931 28.5094 6.02575 28.5159 6.03863C28.4772 6.03219 28.432 6.03219 28.3933 6.02575C28.4256 6.01287 28.4579 6.01287 28.4901 6.00637ZM0 15.9999C0 14.7225 0.148386 13.4837 0.432255 12.2967C1.01289 12.7805 1.63224 13.316 2.29031 13.9289C6.458 17.7934 13.2386 20.845 15.7096 18.0063C15.716 18.0127 15.7224 18.0127 15.7224 18.0192C15.2708 18.6127 13.5483 20.4902 10.258 19.9095L5.05802 27.6707C1.94837 24.7546 0 20.6063 0 15.9999Z" fill="url(#paint1_linear_1514_128)"/>
<defs>
<linearGradient id="paint0_linear_1514_128" x1="25.6081" y1="10.2101" x2="21.8334" y2="31.0052" gradientUnits="userSpaceOnUse">
<stop stop-color="#FF496A"/>
<stop offset="1" stop-color="#E42648"/>
</linearGradient>
<linearGradient id="paint1_linear_1514_128" x1="7.72265" y1="23.5688" x2="16.0685" y2="-5.13367e-06" gradientUnits="userSpaceOnUse">
<stop offset="0.00181229" stop-color="#1158F1"/>
<stop offset="1" stop-color="#119BED"/>
</linearGradient>
</defs>
</svg>
