<svg width="32" height="32" viewBox="0 0 32 32" fill="none" xmlns="http://www.w3.org/2000/svg">
    <circle cx="16" cy="16" r="16" fill="black"/>
    <path d="M10.9615 21.5523H19.2399C21.3111 21.5523 22.9974 19.8661 22.9974 17.7948C22.9974 15.7236 21.3111 14.0374 19.2399 14.0374H19.1969H12.7574C11.5788 14.0374 10.5443 13.4137 9.96571 12.4781C10.1743 12.1426 10.4367 11.85 10.7507 11.607C11.3293 11.1596 12.024 10.9231 12.7574 10.9231H21.0358C22.1177 10.9231 22.9974 10.0434 22.9974 8.96152C22.9974 7.87967 22.1177 7 21.0358 7H12.7574C10.6862 7 9 8.68622 9 10.7574C9 12.8287 10.6862 14.5149 12.7574 14.5149H19.1969H19.2399C21.0488 14.5149 22.522 15.986 22.522 17.797C22.522 18.2358 22.436 18.653 22.279 19.0337C21.5735 18.0594 20.4594 17.4851 19.2399 17.4851H19.1969H12.7574C10.9486 17.4851 9.47533 16.014 9.47533 14.203H9C9 16.2742 10.6862 17.9605 12.7574 17.9605H19.1969H19.2399C20.3863 17.9605 21.4273 18.5412 22.0317 19.5176C21.4531 20.4532 20.4186 21.077 19.2399 21.077H10.9615C9.87968 21.077 9 21.9566 9 23.0385C9 24.1203 9.87968 25 10.9615 25H19.2399C21.3111 25 22.9974 23.3138 22.9974 21.2426H22.522C22.522 23.0514 21.0509 24.5247 19.2399 24.5247H10.9615C10.1421 24.5247 9.47533 23.8579 9.47533 23.0385C9.47533 22.219 10.1421 21.5523 10.9615 21.5523ZM9.47533 10.7574C9.47533 8.94862 10.9465 7.47533 12.7574 7.47533H21.0358C21.8553 7.47533 22.522 8.14207 22.522 8.96152C22.522 9.78098 21.8553 10.4477 21.0358 10.4477H12.7574C11.9165 10.4477 11.1228 10.7187 10.4604 11.2328C10.1765 11.4521 9.92699 11.7081 9.71837 11.9963C9.56136 11.6113 9.47533 11.194 9.47533 10.7574Z" fill="white"/>
</svg>
