<svg width="32" height="32" viewBox="0 0 32 32" fill="none" xmlns="http://www.w3.org/2000/svg">
    <path d="M16 30.0173C23.7415 30.0173 30.0173 23.7415 30.0173 16C30.0173 8.25849 23.7415 1.98276 16 1.98276C8.25851 1.98276 1.98278 8.25849 1.98278 16C1.98278 23.7415 8.25851 30.0173 16 30.0173Z" fill="white"/>
    <path d="M16 0C7.16549 0 0 7.16549 0 16C0 24.8345 7.16549 32 16 32C24.8345 32 32 24.8345 32 16C32 7.16549 24.8345 0 16 0ZM16 28.3169C9.19843 28.3169 3.68314 22.8016 3.68314 16C3.68314 9.19843 9.19843 3.68314 16 3.68314C22.8016 3.68314 28.3169 9.19843 28.3169 16C28.3169 22.8016 22.8016 28.3169 16 28.3169Z" fill="url(#paint0_linear)"/>
    <path d="M16 26.9051C9.98905 26.9051 5.09493 22.0172 5.09493 16C5.09493 9.989 9.98277 5.09488 16 5.09488C22.011 5.09488 26.9051 9.98273 26.9051 16C26.9051 22.011 22.011 26.9051 16 26.9051ZM16 6.18665C10.5914 6.18665 6.18669 10.5914 6.18669 16C6.18669 21.4086 10.5914 25.8133 16 25.8133C21.4087 25.8133 25.8134 21.4086 25.8134 16C25.8134 10.5914 21.4087 6.18665 16 6.18665Z" fill="#132365"/>
    <path fill-rule="evenodd" clip-rule="evenodd" d="M13.8416 9.98276V8.30746H15.4165V9.98276H16.5083V8.30746H18.0832V9.99143C19.8523 10.1173 21.2581 11.5963 21.2581 13.4024C21.2607 14.2013 20.9865 14.9381 20.5255 15.5215C21.4636 16.1313 22.0864 17.1885 22.0864 18.3906C22.0864 20.2792 20.5491 21.8102 18.6668 21.8102H18.0832V23.4165H16.5083V21.8102H15.4165V23.4165H13.8416V21.8102H12.1726H10.1146L11.0746 19.8965H12.1726V11.8965H11.0683L10.1083 9.98276H13.8416ZM14.0863 19.8965H18.6731C19.5013 19.8965 20.179 19.2188 20.179 18.3906C20.179 17.5624 19.5013 16.8847 18.6731 16.8847H14.0863V19.8965ZM14.0863 14.9082H17.8448C18.673 14.9082 19.3506 14.2306 19.3506 13.4024C19.3506 12.5741 18.673 11.8965 17.8448 11.8965H14.0863V14.9082Z" fill="#132365"/>
    <defs>
        <linearGradient id="paint0_linear" x1="7.43774" y1="3.04215" x2="26.6163" y2="32.0663" gradientUnits="userSpaceOnUse">
            <stop offset="0.0051282" stop-color="#F1D200"/>
            <stop offset="1" stop-color="#D27D00"/>
        </linearGradient>
    </defs>
</svg>
