<svg width="32" height="32" viewBox="0 0 32 32" fill="none" xmlns="http://www.w3.org/2000/svg">
<g clip-path="url(#clip0_1843_7)">
<circle cx="16" cy="16" r="16" fill="black"/>
<path d="M15.9959 2C13.2263 2.00343 10.5199 2.82714 8.21835 4.36711C5.91681 5.90708 4.12338 8.09425 3.06455 10.6524C2.00571 13.2106 1.72895 16.025 2.26922 18.7403C2.80949 21.4556 4.14256 23.95 6.10009 25.9084C7.72975 27.5345 9.73537 28.7339 11.9394 29.4003C14.1433 30.0668 16.4777 30.1797 18.7358 29.7292C20.9939 29.2787 23.106 28.2786 24.8852 26.8175C26.6644 25.3563 28.0557 23.4792 28.936 21.3524C29.8164 19.2255 30.1585 16.9145 29.9322 14.6239C29.7058 12.3333 28.918 10.1339 27.6385 8.22025C26.3589 6.30663 24.6271 4.7379 22.5963 3.65293C20.5656 2.56796 18.2985 2.00023 15.9959 2ZM15.9959 28.6112C13.5009 28.6137 11.0612 27.8765 8.98544 26.4927C6.9097 25.1089 5.29118 23.1407 4.33465 20.8373C3.37812 18.5338 3.12656 15.9985 3.61178 13.552C4.09701 11.1056 5.29722 8.85802 7.06058 7.09359C8.82393 5.32916 11.0712 4.12717 13.5181 3.63969C15.965 3.15221 18.5016 3.40114 20.8069 4.35499C23.1122 5.30884 25.0827 6.92475 26.4692 8.99829C27.8556 11.0718 28.5956 13.5098 28.5956 16.0039C28.5965 17.6587 28.2713 19.2975 27.6386 20.8267C27.0058 22.3558 26.078 23.7455 24.908 24.9162C23.738 26.0869 22.3487 27.0158 20.8196 27.6498C19.2905 28.2838 17.6514 28.6105 15.9959 28.6112Z" fill="#FCFCFC"/>
<path d="M8.46639 22.392C7.3827 20.0955 7.28374 17.2773 8.25683 14.9245C8.81891 13.5664 9.70291 12.3652 10.8327 11.4245C12.4063 10.1221 14.4543 9.34627 16.5043 9.35208L16.5101 8.09135V7.85181C16.5101 7.85181 16.3248 7.85181 16.2472 7.85181C13.6087 7.95074 11.1 9.02154 9.20372 10.8582C7.51368 12.5136 6.45521 14.7868 6.18744 17.1308C5.89639 19.6591 6.60753 22.3076 8.19474 24.3073L8.21996 24.3393C8.86901 25.1491 9.63642 25.8842 10.5484 26.3759C12.0727 27.2132 13.7725 27.681 15.5108 27.7414C12.5169 27.1905 9.76449 25.1443 8.46639 22.392Z" fill="#FCFCFC"/>
<path d="M23.6419 24.0475C23.3509 24.0746 23.053 24.0959 22.7591 24.1124C20.2803 24.2521 17.5414 24.1929 15.3537 22.8653C14.7498 22.5008 14.2099 22.0395 13.7558 21.4998C12.1812 19.6261 12.2365 16.7914 14.2496 15.2465C16.0057 13.9005 18.6465 14.1555 20.061 15.8769C20.1861 16.0301 20.4607 16.3783 20.4607 16.3783C20.4607 16.3783 20.9235 16.1349 21.07 16.0621L21.1165 16.0398L21.1466 16.0243L21.2262 15.9855L21.265 15.9661L21.6142 15.7935L21.8083 15.6965L21.8025 15.6868C21.3946 15.0042 20.8511 14.4125 20.2055 13.948C18.9721 13.0703 17.448 12.7009 15.9494 12.9161C13.5414 13.2808 11.5487 15.1341 11.1519 17.5459C10.7424 20.0383 11.9911 22.4289 14.043 23.8186C16.1774 25.2616 18.857 25.4624 21.3872 25.3586C21.98 25.3344 23.1888 25.2325 23.1859 25.2122C23.6775 24.8125 24.1384 24.3765 24.5646 23.9078C24.5646 23.9078 23.7661 24.0368 23.6419 24.0475Z" fill="#FCFCFC"/>
<path d="M19.4515 26.2964C19.1489 26.2892 18.8465 26.2711 18.5444 26.242C16.052 26.0035 13.5082 25.0608 11.8638 23.0999C10.3387 21.2825 9.69737 18.7048 10.4425 16.4258C10.7208 15.5778 11.1692 14.7954 11.7601 14.1263C12.3511 13.4573 13.0722 12.9157 13.8795 12.5345C14.6868 12.1533 15.5634 11.9406 16.4557 11.9093C17.348 11.8781 18.2373 12.0289 19.0693 12.3526C19.2788 11.8898 19.4824 11.423 19.7096 10.9687C17.6169 10.221 15.3613 10.1832 13.3123 11.1151C12.2071 11.6186 11.2288 12.3631 10.4494 13.2942C9.6699 14.2252 9.10908 15.319 8.8081 16.4952C8.50713 17.6713 8.47366 18.9 8.71015 20.0908C8.94664 21.2816 9.44709 22.4042 10.1747 23.3763C11.0702 24.574 12.3091 25.4982 13.6314 26.1887C15.7319 27.2729 18.755 27.4107 18.9674 27.3641C20.0104 27.1158 21.5064 26.4021 21.813 26.1664C21.3628 26.2566 20.5867 26.2847 20.1287 26.2983C19.9049 26.3028 19.6792 26.3022 19.4515 26.2964Z" fill="#FCFCFC"/>
</g>
<defs>
<clipPath id="clip0_1843_7">
<rect width="32" height="32" fill="white"/>
</clipPath>
</defs>
</svg>
