<svg width="32" height="32" viewBox="0 0 32 32" fill="none" xmlns="http://www.w3.org/2000/svg">
    <g clip-path="url(#clip0)">
        <path d="M14.3863 0.666099L0.666383 14.3902C-0.222126 15.279 -0.222127 16.72 0.666377 17.6088L14.3863 31.3329C15.2748 32.2217 16.7154 32.2217 17.6039 31.3329L31.3238 17.6088C32.2123 16.72 32.2123 15.279 31.3238 14.3902L17.6039 0.666099C16.7154 -0.222684 15.2748 -0.222684 14.3863 0.666099Z" fill="#F0B80B"/>
        <path d="M16.1954 9.1839C16.9407 9.24464 17.9814 9.2775 19.0057 9.42361C20.2943 9.60916 21.5451 9.97041 22.6171 10.7635C23.3787 11.3317 23.9648 12.0509 24.17 13.0131C24.2848 13.5533 24.3817 14.1001 24.4736 14.6453C24.5196 14.9162 24.3883 15.064 24.1125 15.018C23.2918 14.8867 22.4858 14.7488 21.6765 14.596C21.5446 14.5617 21.4286 14.4828 21.3482 14.3727C21.0855 14.0098 20.6505 13.8801 20.3156 14.1527C19.9808 14.4253 19.6475 14.4039 19.2602 14.3924C17.4676 14.3382 15.6734 14.3169 13.8792 14.2873C13.5509 14.2873 13.28 14.3284 13.0584 13.936C12.7744 13.4335 11.8716 13.5074 11.5811 14.0164C11.5124 14.1516 11.4087 14.2657 11.2807 14.3469C11.1528 14.4281 11.0053 14.4733 10.8539 14.4778C10.079 14.555 9.30919 14.6732 8.53764 14.775C8.49004 14.775 8.4441 14.7865 8.39644 14.7898C7.79239 14.8292 7.68896 14.7274 7.72999 14.1182C7.80879 12.9014 8.25039 11.8325 9.14336 10.9984C9.72284 10.4581 10.4566 10.1297 11.2051 9.8719C12.7203 9.3563 14.3093 9.2775 16.1954 9.1839ZM14.4455 10.4335C14.7131 10.243 15.0135 10.1379 15.1022 9.94087C15.1908 9.74384 14.9051 9.71424 14.7394 9.71264C14.4915 9.71264 14.2108 9.71264 14.1779 10.041C14.1664 10.1412 14.3191 10.2529 14.4455 10.4335ZM17.4676 9.59601L16.9407 9.92447C17.1345 10.0489 17.3451 10.1451 17.5661 10.2102C17.6711 10.2266 17.8123 10.0312 17.9371 9.93104L17.4676 9.59601ZM11.3939 10.9803L12.0636 10.4433C11.9635 10.3694 11.8699 10.2446 11.7632 10.2332C11.4727 10.1986 11.0951 10.4253 11.128 10.5977C11.1444 10.6962 11.256 10.7865 11.3906 10.9721L11.3939 10.9803ZM15.6915 10.8013C15.8556 10.7783 15.941 10.7914 15.9853 10.7537C16.1128 10.6373 16.2345 10.5145 16.3497 10.3858C16.2038 10.3264 16.0547 10.2748 15.9032 10.2315C15.8685 10.2246 15.8328 10.2246 15.7981 10.2317C15.7634 10.2387 15.7305 10.2526 15.7013 10.2726C15.5863 10.3694 15.4767 10.4724 15.373 10.5813L15.6915 10.8013ZM20.0169 10.2775C20.1564 10.6338 20.4108 10.8095 20.7162 10.7504C20.8157 10.73 20.903 10.6709 20.9591 10.5862C20.9838 10.5452 20.9115 10.4121 20.8508 10.3596C20.7392 10.257 20.5977 10.1929 20.447 10.1767C20.2964 10.1604 20.1445 10.1929 20.0136 10.2693L20.0169 10.2775ZM18.3261 10.885C18.4903 10.8604 18.5855 10.8752 18.6413 10.8309C18.7546 10.7405 18.9286 10.6092 18.9203 10.5024C18.9023 10.2939 18.7135 10.243 18.5149 10.312C18.4339 10.3288 18.3567 10.3599 18.2867 10.4039C18.2041 10.4866 18.1294 10.5768 18.0635 10.6732L18.3261 10.885ZM13.2915 11.0492C13.4557 10.885 13.6461 10.7898 13.6428 10.6946C13.633 10.3661 13.3145 10.4121 13.1093 10.3941C12.9977 10.3842 12.873 10.5238 12.7547 10.596L13.2915 11.0492Z" fill="#1E2125"/>
        <path d="M15.3253 22.8161C14.0531 22.7456 12.7776 22.7209 11.512 22.5928C9.93947 22.4286 8.63119 21.7866 7.93353 20.2612C7.82399 19.9884 7.76553 19.6978 7.76113 19.404C7.76113 19.317 7.96142 19.133 8.06319 19.138C8.86262 19.1823 9.65873 19.2726 10.4582 19.3268C11.2116 19.3761 11.9651 19.3991 12.7186 19.4303C12.9615 19.4401 13.1372 19.4926 13.2225 19.7702C13.3046 19.9656 13.4201 20.145 13.564 20.3005C13.8644 20.693 14.2042 20.7291 14.5965 20.4286C14.7393 20.3478 14.8716 20.2496 14.9904 20.1364C15.4402 19.5485 16.0378 19.4516 16.7403 19.4484C18.8876 19.4293 21.0303 19.2488 23.1505 18.9081C23.405 18.8687 23.6528 18.7899 23.9056 18.7439C24.2027 18.6914 24.3357 18.8178 24.3455 19.1298C24.3833 20.2907 23.689 21.2825 22.6499 21.7948C20.9755 22.6158 19.1731 22.6733 17.3789 22.7898C16.6976 22.8342 16.0115 22.7898 15.327 22.7898L15.3253 22.8161Z" fill="#1E2125"/>
        <path d="M24.5177 16.7454C23.9449 16.527 23.3982 16.353 22.8762 16.1116C22.5266 15.9474 22.2442 15.8702 21.9011 16.1362C21.7357 16.2658 21.5332 16.339 21.3232 16.3451C21.1133 16.3514 20.9068 16.2902 20.734 16.1707C20.6089 16.0851 20.4613 16.0384 20.3098 16.0363C20.1582 16.0343 20.0094 16.077 19.8821 16.1593C19.5991 16.3083 19.2849 16.3883 18.9651 16.3929C18.6453 16.3974 18.329 16.3264 18.0419 16.1855C17.9106 16.1097 17.7634 16.0657 17.6121 16.0568C17.4607 16.048 17.3094 16.0746 17.1702 16.1346C17.0221 16.2128 16.8533 16.2428 16.6874 16.2205C16.5214 16.1981 16.3665 16.1245 16.2444 16.0098C16.1551 15.9147 16.0355 15.8537 15.9061 15.8371C15.7767 15.8207 15.6455 15.8498 15.5353 15.9195C15.2567 16.0509 14.9526 16.119 14.6447 16.119C14.3368 16.119 14.0327 16.0509 13.7542 15.9195C13.4899 15.8111 13.3143 15.7816 13.0976 16.0722C12.9433 16.2824 12.6166 16.4006 12.3425 16.4811C12.0894 16.5666 11.8215 16.5994 11.5553 16.5774C11.289 16.5554 11.0301 16.479 10.7945 16.353C10.6555 16.2758 10.5016 16.2291 10.3431 16.2158C10.1847 16.2025 10.0253 16.2229 9.87525 16.2758C9.3992 16.4072 8.9232 16.4236 8.47011 16.1625C8.21565 16.0164 8.01211 16.1625 7.78394 16.2873C7.49085 16.4491 7.17394 16.5633 6.84497 16.6256C6.75137 16.6236 6.65988 16.5975 6.57937 16.5497C6.49885 16.5019 6.432 16.4342 6.38537 16.353C6.37354 16.2543 6.38657 16.1543 6.42325 16.0619C6.46 15.9696 6.5192 15.8879 6.59548 15.8243C7.03868 15.5927 7.50817 15.3399 7.9924 15.2742C9.14148 15.11 10.3152 15.0476 11.4807 14.9655C14.0481 14.7569 16.6279 14.753 19.1959 14.954C20.5091 15.0706 21.8223 15.1822 23.1355 15.3481C23.6641 15.4154 24.1746 15.6223 24.6934 15.7651C24.9872 15.8473 25.2351 16.0262 25.1136 16.3349C25.0479 16.509 24.7558 16.5911 24.5177 16.7454Z" fill="#1E2125"/>
        <path d="M12.5743 18.941C11.097 18.8523 9.63433 18.767 8.16353 18.6701C7.86479 18.652 7.74004 18.4172 7.75313 18.0133C7.76461 17.7111 7.94519 17.6257 8.2013 17.6422C9.31753 17.7144 10.4338 17.8063 11.5516 17.8622C14.2979 17.9804 17.0442 18.0166 19.7856 17.7292C21.1087 17.5896 22.435 17.4813 23.7598 17.3614C24.0076 17.3384 24.2818 17.2875 24.3425 17.6422C24.3852 17.8885 24.1455 18.1742 23.832 18.2251C23.1267 18.3652 22.4143 18.4666 21.698 18.5288C19.083 18.6586 16.4664 18.7489 13.8515 18.8474C13.4263 18.8638 13.0028 18.8474 12.5776 18.8474L12.5743 18.941Z" fill="#1E2125"/>
    </g>
    <defs>
        <clipPath id="clip0">
            <rect width="32" height="32" fill="white"/>
        </clipPath>
    </defs>
</svg>
