<svg width="32" height="32" viewBox="0 0 32 32" fill="none" xmlns="http://www.w3.org/2000/svg">
    <path d="M16 32C24.8366 32 32 24.8366 32 16C32 7.16344 24.8366 0 16 0C7.16344 0 0 7.16344 0 16C0 24.8366 7.16344 32 16 32Z" fill="#0C0D13"/>
    <path d="M11.0131 16.0065L8.64006 13.6335L6.26703 16.0065L8.64006 18.3795L11.0131 16.0065Z" fill="url(#paint0_linear)"/>
    <path d="M18.3738 8.64301L16.0008 6.26999L9.88861 12.3822L12.2616 14.7552L18.3738 8.64301Z" fill="url(#paint1_linear)"/>
    <path d="M22.033 12.3054L19.66 9.93237L9.89069 19.7017L12.2637 22.0747L22.033 12.3054Z" fill="url(#paint2_linear)"/>
    <path d="M25.7272 15.9964L23.3541 13.6234L13.5848 23.3927L15.9579 25.7657L25.7272 15.9964Z" fill="url(#paint3_linear)"/>
    <defs>
        <linearGradient id="paint0_linear" x1="11.0131" y1="13.6335" x2="6.26708" y2="18.3796" gradientUnits="userSpaceOnUse">
            <stop stop-color="#F1BB03"/>
            <stop offset="1" stop-color="#F2BC03"/>
        </linearGradient>
        <linearGradient id="paint1_linear" x1="18.3738" y1="6.26999" x2="9.88858" y2="14.7552" gradientUnits="userSpaceOnUse">
            <stop stop-color="#F1BB03"/>
            <stop offset="1" stop-color="#F2BC03"/>
        </linearGradient>
        <linearGradient id="paint2_linear" x1="22.033" y1="9.93237" x2="9.89068" y2="22.0747" gradientUnits="userSpaceOnUse">
            <stop stop-color="#F1BB03"/>
            <stop offset="1" stop-color="#F2BC03"/>
        </linearGradient>
        <linearGradient id="paint3_linear" x1="25.7272" y1="13.6234" x2="13.5849" y2="25.7658" gradientUnits="userSpaceOnUse">
            <stop stop-color="#F1BB03"/>
            <stop offset="1" stop-color="#F2BC03"/>
        </linearGradient>
    </defs>
</svg>
