<svg width="32" height="32" viewBox="0 0 32 32" fill="none" xmlns="http://www.w3.org/2000/svg">
    <path d="M0.127998 16C0.127998 7.23199 7.232 0.127991 16 0.127991C24.768 0.127991 31.872 7.23199 31.872 16C31.872 24.768 24.768 31.872 16 31.872C7.232 31.872 0.127998 24.768 0.127998 16Z" fill="url(#paint0_linear)"/>
    <path d="M9.35678 1.58082C10.368 1.11362 11.4304 0.755215 12.544 0.505615V7.14242H9.36319V1.58082H9.35678Z" fill="white"/>
    <path d="M0.486423 12.6336C0.723223 11.52 1.08162 10.4512 1.54242 9.44H17.8816C20.2688 9.44 22.2016 11.3792 22.2016 13.7728V17.9904C22.2016 20.384 20.2688 22.3232 17.8816 22.3232H13.6768C11.2896 22.3232 9.35682 20.384 9.35682 17.9904V14.912H12.544V17.9648C12.544 18.6048 13.0432 19.104 13.6832 19.104H17.888C18.5216 19.104 19.0272 18.6048 19.0272 17.9648V13.7728C19.0272 13.1328 18.528 12.6336 17.888 12.6336H0.486423V12.6336Z" fill="white"/>
    <defs>
        <linearGradient id="paint0_linear" x1="29.8086" y1="29.8086" x2="4.41344" y2="4.41343" gradientUnits="userSpaceOnUse">
            <stop offset="0.1594" stop-color="#003CDA"/>
            <stop offset="1" stop-color="#33DFCC"/>
        </linearGradient>
    </defs>
</svg>
