<svg width="32" height="32" viewBox="0 0 32 32" fill="none" xmlns="http://www.w3.org/2000/svg">
    <path d="M16 32C24.8366 32 32 24.8366 32 16C32 7.16344 24.8366 0 16 0C7.16344 0 0 7.16344 0 16C0 24.8366 7.16344 32 16 32Z" fill="#D9B432"/>
    <path d="M21.2273 8.13431C21.7859 8.12856 22.3401 8.23306 22.8582 8.4418C23.3763 8.65054 23.8482 8.95944 24.2468 9.35081C24.6454 9.74217 24.9629 10.2083 25.181 10.7225C25.3992 11.2368 25.5138 11.789 25.5183 12.3476C25.514 13.0502 25.3417 13.7415 25.0156 14.3639C24.4743 13.9491 23.8745 13.6169 23.2357 13.3781C23.4161 13.0647 23.5106 12.7092 23.5098 12.3476C23.4989 11.7615 23.2584 11.2032 22.8401 10.7926C22.4218 10.382 21.859 10.152 21.2729 10.152C20.6867 10.152 20.1239 10.382 19.7056 10.7926C19.2873 11.2032 19.0468 11.7615 19.0359 12.3476C19.0347 12.7093 19.1293 13.0648 19.31 13.3781C18.6584 13.5888 18.0538 13.9236 17.5293 14.3639C17.1824 13.7494 17.0087 13.0522 17.0266 12.3468C17.0133 11.791 17.1128 11.2382 17.3191 10.7219C17.5253 10.2056 17.834 9.73641 18.2266 9.34272C18.6192 8.94903 19.0875 8.63898 19.6032 8.43129C20.119 8.22359 20.6714 8.12257 21.2273 8.13431V8.13431Z" fill="white"/>
    <path d="M10.7727 23.8657C10.2142 23.8714 9.66015 23.7669 9.14214 23.5582C8.62413 23.3494 8.15237 23.0406 7.75387 22.6493C7.35537 22.258 7.03795 21.792 6.81978 21.2779C6.60162 20.7638 6.48699 20.2117 6.48247 19.6532H8.53647C8.54741 20.2393 8.7879 20.7976 9.20623 21.2082C9.62456 21.6188 10.1873 21.8488 10.7735 21.8488C11.3596 21.8488 11.9224 21.6188 12.3407 21.2082C12.759 20.7976 12.9995 20.2393 13.0105 19.6532H15.0645C15.0599 20.2118 14.9453 20.7639 14.727 21.278C14.5088 21.7922 14.1913 22.2582 13.7927 22.6495C13.3942 23.0408 12.9223 23.3496 12.4042 23.5583C11.8861 23.767 11.332 23.8715 10.7735 23.8657H10.7727Z" fill="white"/>
    <path d="M21.2273 14.0505C20.5733 14.0355 19.923 14.1513 19.3145 14.3912C18.7059 14.6311 18.1515 14.9902 17.6837 15.4474C17.2159 15.9046 16.8442 16.4507 16.5904 17.0536C16.3366 17.6564 16.2059 18.304 16.2059 18.9581C16.2059 19.6122 16.3366 20.2597 16.5904 20.8626C16.8442 21.4655 17.2159 22.0115 17.6837 22.4687C18.1515 22.9259 18.7059 23.285 19.3145 23.5249C19.923 23.7648 20.5733 23.8807 21.2273 23.8657V23.8665C21.8774 23.8753 22.5228 23.7548 23.126 23.5121C23.7292 23.2694 24.2781 22.9093 24.741 22.4527C25.2038 21.9961 25.5713 21.452 25.8222 20.8522C26.073 20.2523 26.2022 19.6086 26.2022 18.9585C26.2022 18.3083 26.073 17.6646 25.8222 17.0647C25.5713 16.4649 25.2038 15.9209 24.741 15.4642C24.2781 15.0076 23.7292 14.6475 23.126 14.4048C22.5228 14.1621 21.8774 14.0417 21.2273 14.0505V14.0505ZM21.2273 21.8038C20.8413 21.8139 20.4572 21.7466 20.0976 21.6059C19.738 21.4652 19.4102 21.2538 19.1337 20.9844C18.8571 20.7149 18.6372 20.3928 18.4871 20.037C18.337 19.6813 18.2597 19.299 18.2597 18.9129C18.2597 18.5268 18.337 18.1445 18.4871 17.7888C18.6372 17.433 18.8571 17.1109 19.1337 16.8414C19.4102 16.572 19.738 16.3607 20.0976 16.2199C20.4572 16.0792 20.8413 16.0119 21.2273 16.022C22.0029 16.0288 22.7457 16.3364 23.2991 16.88C23.8524 17.4236 24.1733 18.1607 24.194 18.9361C24.1903 19.32 24.1103 19.6994 23.9586 20.0521C23.807 20.4048 23.5867 20.7239 23.3107 20.9907C23.0346 21.2576 22.7083 21.4669 22.3506 21.6064C21.993 21.746 21.6111 21.8131 21.2273 21.8038Z" fill="white"/>
    <path d="M10.7735 8.13429C10.1234 8.12533 9.47794 8.24564 8.8747 8.48823C8.27146 8.73082 7.72243 9.09085 7.2595 9.54741C6.79657 10.004 6.42897 10.548 6.17805 11.1478C5.92713 11.7476 5.79789 12.3913 5.79784 13.0415C5.79778 13.6917 5.92692 14.3354 6.17774 14.9353C6.42857 15.5352 6.79608 16.0792 7.25894 16.5358C7.72179 16.9925 8.27076 17.3526 8.87397 17.5953C9.47717 17.838 10.1226 17.9584 10.7727 17.9495H10.7735C12.0828 17.9523 13.3411 17.4427 14.2795 16.5297C15.2179 15.6167 15.7619 14.3727 15.795 13.0639C15.7788 11.7456 15.2416 10.4872 14.3008 9.56362C13.36 8.64001 12.0919 8.12616 10.7735 8.13429V8.13429ZM13.6946 13.0647L13.6946 13.0643C13.7053 13.6534 13.5403 14.2324 13.2208 14.7275C12.9012 15.2225 12.4415 15.6113 11.9003 15.8441C11.359 16.077 10.7606 16.1434 10.1815 16.035C9.60228 15.9266 9.06849 15.6482 8.6481 15.2353C8.22771 14.8224 7.93976 14.2937 7.82093 13.7166C7.7021 13.1395 7.75777 12.54 7.98085 11.9946C8.20394 11.4493 8.58433 10.9826 9.07357 10.6542C9.5628 10.3258 10.1387 10.1505 10.728 10.1506C11.1143 10.1464 11.4976 10.2185 11.856 10.3627C12.2144 10.507 12.5407 10.7206 12.8164 10.9913C13.092 11.2621 13.3115 11.5845 13.4622 11.9402C13.6129 12.296 13.6919 12.678 13.6946 13.0643L13.6946 13.0639V13.0647Z" fill="white"/>
</svg>
