<svg width="32" height="32" viewBox="0 0 32 32" fill="none" xmlns="http://www.w3.org/2000/svg">
    <path d="M16 32C24.8366 32 32 24.8366 32 16C32 7.16344 24.8366 0 16 0C7.16344 0 0 7.16344 0 16C0 24.8366 7.16344 32 16 32Z" fill="url(#paint0_linear_1017_488)"/>
    <path d="M15.9667 26.6333C12.8667 26.6333 10.3333 25.9 8.59999 24.5333C6.83333 23.1667 5.89999 21.2333 5.89999 19.0667C5.89999 16.9667 6.83333 15.4333 7.89999 14.4333C8.73333 13.6333 9.66666 13.1 10.3 12.8333C10.1667 12.4 9.96666 11.8 9.79999 11.2C9.59999 10.4 9.36666 9.46667 9.36666 8.76667C9.36666 7.93334 9.53333 7.13334 10.0333 6.50001C10.5333 5.83334 11.3 5.46667 12.2333 5.46667C12.9667 5.46667 13.5667 5.73334 14.0333 6.20001C14.5 6.63334 14.8 7.23334 15 7.83334C15.3667 8.90001 15.5 10.2333 15.5667 11.6H16.4333C16.4667 10.2667 16.6333 8.90001 17 7.83334C17.2 7.23334 17.5 6.63334 17.9667 6.20001C18.4333 5.73334 19.0667 5.46667 19.7667 5.46667C20.7 5.46667 21.4667 5.83334 21.9667 6.50001C22.4333 7.13334 22.6333 7.96667 22.6333 8.76667C22.6333 9.46667 22.4333 10.4 22.2 11.2C22.0333 11.8 21.8667 12.3667 21.7 12.8333C22.3333 13.1333 23.2667 13.6333 24.1 14.4333C25.1667 15.4667 26.1 16.9667 26.1 19.0667C26.1 21.2333 25.1667 23.1667 23.4 24.5333C21.6 25.8667 19.0667 26.6333 15.9667 26.6333Z" fill="#633001"/>
    <path d="M12.2 6.23332C10.8667 6.23332 10.2333 7.23332 10.2333 8.66666C10.2333 9.76666 10.9667 12.0333 11.2333 12.9C11.3 13.1 11.2 13.3 11 13.4C9.93334 13.8333 6.73334 15.4 6.73334 19C6.73334 22.8 9.96667 25.6667 15.9333 25.6667C21.9 25.6667 25.1333 22.8 25.1333 19C25.1667 15.3333 22 13.7667 20.9 13.3333C20.7 13.2667 20.6 13.0333 20.6667 12.8333C20.9667 11.9667 21.6667 9.73332 21.6667 8.59999C21.6667 7.19999 21.0333 6.16666 19.7 6.16666C17.7667 6.16666 17.2667 8.93332 17.2333 11.9333C17.2333 12.1333 17.0667 12.3 16.8667 12.3H15C14.8 12.3 14.6333 12.1333 14.6333 11.9333C14.6 8.99999 14.1333 6.23332 12.2 6.23332Z" fill="#D1884F"/>
    <path d="M15.9667 24.4C11.5667 24.4 6.76667 22.0333 6.73334 18.9667C6.73334 22.7667 9.96667 25.6333 15.9667 25.6333C21.9333 25.6333 25.2 22.7667 25.2 18.9667C25.1667 22.0333 20.3667 24.4 15.9667 24.4Z" fill="#FEDC90"/>
    <path d="M13.5333 18C13.5333 19.0333 13.0333 19.5667 12.4667 19.5667C11.8667 19.5667 11.4 19.0333 11.4 18C11.4 16.9667 11.9 16.4333 12.4667 16.4333C13.0333 16.4333 13.5333 16.9667 13.5333 18Z" fill="#633001"/>
    <path d="M20.5667 18C20.5667 19.0333 20.0667 19.5667 19.5 19.5667C18.9 19.5667 18.4333 19.0333 18.4333 18C18.4333 16.9667 18.9333 16.4333 19.5 16.4333C20.1 16.4333 20.5667 16.9667 20.5667 18Z" fill="#633001"/>
    <defs>
        <linearGradient id="paint0_linear_1017_488" x1="16" y1="0" x2="16" y2="32" gradientUnits="userSpaceOnUse">
            <stop stop-color="#53DEE9"/>
            <stop offset="1" stop-color="#1FC7D4"/>
        </linearGradient>
    </defs>
</svg>
