<svg width="32" height="32" viewBox="0 0 32 32" fill="none" xmlns="http://www.w3.org/2000/svg">
    <path d="M16 32C24.8366 32 32 24.8366 32 16C32 7.16344 24.8366 0 16 0C7.16344 0 0 7.16344 0 16C0 24.8366 7.16344 32 16 32Z" fill="#31CCFE"/>
    <path d="M19.8913 21.8359L19.8819 21.847C19.8132 21.9217 19.7411 21.9912 19.6682 22.0599C19.5128 22.2204 19.3617 22.3852 19.2166 22.5543C19.0553 22.7724 18.8867 22.9841 18.711 23.1895C17.322 24.8115 15.491 25.9944 13.4414 26.5939C14.4373 26.8664 15.4656 27.003 16.4981 27H16.5668C16.6809 27 16.7925 27 16.905 26.9931C18.0066 26.9755 19.0981 26.7792 20.1368 26.412C21.1842 26.0382 22.1456 25.4573 22.9635 24.7038C23.7817 23.9375 24.4409 23.0175 24.9035 21.9964C25.3542 21.0028 25.6464 19.9448 25.7696 18.8607C23.5516 19.2283 21.4998 20.2677 19.8914 21.8385L19.8913 21.8359Z" fill="white"/>
    <path d="M16.5685 23.1423C15.6482 23.1707 14.7359 22.9639 13.9178 22.5415C13.21 22.1539 12.6051 21.6027 12.1538 20.9337C11.6937 20.2472 11.3597 19.4842 11.1675 18.6804C10.9606 17.8377 10.8568 16.973 10.8585 16.1052C10.8561 15.2029 10.9599 14.3034 11.1675 13.4253C11.2764 12.9583 11.4296 12.5027 11.625 12.0648C11.6628 11.9789 11.7014 11.9008 11.7418 11.8201L11.7486 11.8073C11.7864 11.7317 11.825 11.6579 11.8645 11.5841L11.9031 11.518C11.9349 11.4613 11.9667 11.4047 12.0001 11.3463C12.0491 11.2665 12.0988 11.1866 12.1504 11.1085C12.6 10.4344 13.2065 9.87949 13.9178 9.49133C14.7359 9.06905 15.6482 8.86225 16.5685 8.89045H16.7127C17.7655 8.91797 18.7802 9.28941 19.602 9.94801C20.0078 10.2756 20.356 10.6687 20.6321 11.1111V11.1111L20.6398 11.124C20.9029 11.5611 21.2736 11.9234 21.7167 12.1764C22.1597 12.4293 22.6602 12.5644 23.1703 12.5687H25.6391C25.5259 11.4325 25.1852 10.3308 24.6373 9.32911C24.3768 8.86311 24.0712 8.42379 23.7249 8.01749C23.3931 7.62825 23.023 7.27338 22.6202 6.95821C21.7906 6.31237 20.8534 5.81834 19.8519 5.49894C18.7903 5.16157 17.6823 4.99327 16.5685 5.00022C15.076 4.97654 13.5955 5.26908 12.2242 5.85861C11.6016 6.1316 11.0095 6.46938 10.4576 6.86636H10.4525C10.4224 6.88782 10.3932 6.911 10.3666 6.93336L10.2602 7.01405C10.1855 7.0707 10.1117 7.12905 10.0396 7.18572L9.93656 7.27156C9.86274 7.33423 9.79064 7.39775 9.71856 7.46213L9.62843 7.54282C9.52972 7.63382 9.43186 7.72651 9.33658 7.82265L9.31512 7.84325C9.19838 7.96171 9.08421 8.08446 8.97176 8.20979C8.88076 8.31279 8.79321 8.41838 8.70738 8.52479C8.67733 8.5617 8.64729 8.59779 8.62154 8.63466C7.89456 9.56461 7.32717 10.6089 6.94254 11.7249C6.45887 13.1335 6.21824 14.6142 6.23093 16.1035C6.21872 17.5619 6.4577 19.0114 6.93739 20.3886C7.3801 21.665 8.07089 22.8413 8.97 23.8497C9.42327 24.3522 9.93179 24.802 10.4859 25.1905C12.7358 25.1663 14.9237 24.45 16.7522 23.1389C16.6895 23.1406 16.6303 23.1423 16.5685 23.1423Z" fill="white"/>
</svg>
