<svg width="32" height="32" viewBox="0 0 32 32" fill="none" xmlns="http://www.w3.org/2000/svg">
    <path d="M16 32C24.8366 32 32 24.8366 32 16C32 7.16344 24.8366 0 16 0C7.16344 0 0 7.16344 0 16C0 24.8366 7.16344 32 16 32Z" fill="#2175FF"/>
    <path d="M20.26 14.51C20.9951 13.2778 22.0593 12.275 23.3329 11.6143C24.6066 10.9536 26.0393 10.6612 27.47 10.77C27.6979 10.8593 27.8996 11.0046 28.0566 11.1925C28.2135 11.3803 28.3206 11.6047 28.3679 11.8448C28.4153 12.085 28.4013 12.3332 28.3274 12.5666C28.2535 12.7999 28.122 13.0109 27.945 13.18C27.36 13.725 26.4875 13.3875 25.7825 13.605C23.92 14.0725 22.7125 15.715 21.7325 17.25C21.4725 17.6623 21.0727 17.9673 20.6063 18.1091C20.1399 18.251 19.6381 18.2202 19.1925 18.0225C18.867 17.8618 18.5775 17.6367 18.3416 17.3608C18.1056 17.085 17.9282 16.764 17.82 16.4175C17.5331 14.9982 19.4935 15.187 20.26 14.51ZM7.88 18.6425C7.65 18.89 7.4175 19.2375 7.0325 19.2C6.13 18.675 6.63 17.27 5.7425 16.7375C5.51801 16.6332 5.27171 16.5845 5.02443 16.5956C4.77715 16.6066 4.53616 16.677 4.32184 16.8008C4.10751 16.9246 3.92616 17.0983 3.79312 17.307C3.66008 17.5157 3.57926 17.7534 3.5575 18C3.58488 18.7899 3.82301 19.558 4.2472 20.2248C4.67139 20.8917 5.26621 21.4329 5.97 21.7925C6.54363 22.0118 7.16823 22.0615 7.76931 21.9356C8.37039 21.8097 8.92257 21.5136 9.35999 21.0825C11.125 19.5225 11.89 17.225 12.965 15.2C13.2141 14.6911 13.571 14.2426 14.011 13.8856C14.4509 13.5285 14.9633 13.2716 15.5125 13.1325C15.3633 12.7889 15.1365 12.4845 14.8499 12.2433C14.5632 12.002 14.2246 11.8305 13.8606 11.7421C13.4966 11.6537 13.117 11.6508 12.7517 11.7337C12.3863 11.8167 12.0452 11.9831 11.755 12.22C9.8275 13.935 9.47 16.685 7.88 18.6425ZM13.3425 18.295C13.5675 19.325 14.48 20.6025 15.6825 20.17C17.1775 19.5975 17.3675 17.805 17.695 16.4575C17.825 14.9675 18.28 13.29 19.6475 12.47C19.3844 12.1124 19.0122 11.85 18.5869 11.7224C18.1617 11.5948 17.7065 11.6089 17.29 11.7625C16.7992 11.9954 16.3722 12.3438 16.0456 12.7779C15.719 13.212 15.5026 13.7189 15.415 14.255C14.9748 15.6399 13.2409 15.8154 13.3425 18.295V18.295Z" fill="#115CD9"/>
    <path d="M17.82 15.9175H17.699C17.8336 14.4375 18.2921 12.7827 19.6475 11.97C19.901 12.2391 20.0884 12.5635 20.1947 12.9176C20.3011 13.2717 20.3234 13.6458 20.26 14.01C19.7225 14.91 18.9725 15.9 17.82 15.9175ZM15.415 13.755C15.4678 13.4892 15.5478 13.2296 15.6538 12.9802C15.6189 12.8597 15.5716 12.7432 15.5125 12.6325L15.4017 12.3803L15.4008 12.3807C15.4435 12.4621 15.4809 12.5462 15.5125 12.6325C14.9633 12.7716 14.4509 13.0285 14.011 13.3856C13.571 13.7426 13.2141 14.1911 12.965 14.7L12.9537 14.7218L13.3425 17.795C14.453 16.7086 15.1803 15.2907 15.415 13.755V13.755Z" fill="#4A86F0"/>
    <path d="M20.26 14.01C20.9951 12.7778 22.0593 11.775 23.3329 11.1143C24.6066 10.4536 26.0393 10.1612 27.47 10.27C27.6979 10.3593 27.8996 10.5046 28.0566 10.6925C28.2135 10.8803 28.3206 11.1047 28.3679 11.3448C28.4153 11.585 28.4013 11.8332 28.3274 12.0666C28.2535 12.2999 28.122 12.5109 27.945 12.68C27.36 13.225 26.4875 12.8875 25.7825 13.105C23.92 13.5725 22.7125 15.215 21.7325 16.75C21.4725 17.1623 21.0727 17.4673 20.6063 17.6091C20.1399 17.751 19.6381 17.7202 19.1925 17.5225C18.867 17.3618 18.5775 17.1367 18.3416 16.8608C18.1056 16.585 17.9282 16.264 17.82 15.9175C18.9725 15.9 19.7225 14.91 20.26 14.01ZM7.88 18.1425C7.65 18.39 7.4175 18.7375 7.0325 18.7C6.13 18.175 6.63 16.77 5.7425 16.2375C5.51801 16.1332 5.27171 16.0845 5.02443 16.0956C4.77715 16.1066 4.53616 16.177 4.32184 16.3008C4.10751 16.4246 3.92616 16.5983 3.79312 16.807C3.66008 17.0157 3.57926 17.2534 3.5575 17.5C3.58488 18.2899 3.82301 19.058 4.2472 19.7248C4.67139 20.3917 5.26621 20.9329 5.97 21.2925C6.54363 21.5118 7.16823 21.5615 7.76931 21.4356C8.37039 21.3097 8.92257 21.0136 9.35999 20.5825C11.125 19.0225 11.89 16.725 12.965 14.7C13.2141 14.1911 13.571 13.7426 14.011 13.3856C14.4509 13.0285 14.9633 12.7716 15.5125 12.6325C15.3633 12.2889 15.1365 11.9845 14.8499 11.7433C14.5632 11.502 14.2246 11.3305 13.8606 11.2421C13.4966 11.1537 13.117 11.1508 12.7517 11.2337C12.3863 11.3167 12.0452 11.4831 11.755 11.72C9.8275 13.435 9.47 16.185 7.88 18.1425ZM13.3425 17.795C13.5675 18.825 14.48 20.1025 15.6825 19.67C17.1775 19.0975 17.3675 17.305 17.695 15.9575C17.825 14.4675 18.28 12.79 19.6475 11.97C19.3844 11.6124 19.0122 11.35 18.5869 11.2224C18.1617 11.0948 17.7065 11.1089 17.29 11.2625C16.7992 11.4954 16.3722 11.8438 16.0456 12.2779C15.719 12.712 15.5026 13.2189 15.415 13.755C15.1803 15.2907 14.453 16.7086 13.3425 17.795V17.795Z" fill="white"/>
</svg>
