<svg width="32" height="32" viewBox="0 0 32 32" fill="none" xmlns="http://www.w3.org/2000/svg">
    <path d="M16 32C24.8366 32 32 24.8366 32 16C32 7.16344 24.8366 0 16 0C7.16344 0 0 7.16344 0 16C0 24.8366 7.16344 32 16 32Z" fill="white"/>
    <path d="M15.1925 3V7.1599L7.50564 11.3198V19.6397L15.1925 24.8401V29L3.88818 22.4998V9.24033L15.1925 3Z" fill="#00B5E2"/>
    <path d="M16.8076 3V7.1599L24.4946 11.3198V19.6397L16.8076 24.8401V29L28.1118 22.4998V9.24033L16.8076 3Z" fill="#A6E6F5"/>
    <path d="M10.5936 16.9649L10.5155 16.7663C10.4483 16.5166 10.4216 16.2577 10.4364 15.9996C10.4282 15.6711 10.4815 15.344 10.5936 15.0351C10.6769 14.8007 10.8253 14.5949 11.0214 14.4419C11.1878 14.3176 11.375 14.2239 11.5742 14.1651C11.7766 14.1094 11.9858 14.0821 12.1957 14.084C12.6096 14.0952 13.0176 14.1846 13.3983 14.3475V15.1849C13.0409 15.0094 12.6484 14.9173 12.2503 14.9156C12.1367 14.9102 12.0233 14.9284 11.9171 14.9691C11.811 15.0097 11.7144 15.072 11.6335 15.1519C11.4527 15.3953 11.3703 15.698 11.4028 15.9996C11.3701 16.3014 11.4525 16.6044 11.6335 16.848C11.7144 16.928 11.8109 16.9903 11.9171 17.031C12.0232 17.0717 12.1367 17.0899 12.2503 17.0845C12.6483 17.0823 13.0407 16.9903 13.3983 16.8152V17.6523C13.0174 17.8146 12.6095 17.9041 12.1957 17.9161C11.9858 17.9179 11.7766 17.8907 11.5742 17.8351C11.375 17.7758 11.1878 17.6818 11.0214 17.5573C10.8253 17.4046 10.6769 17.1991 10.5936 16.9649V16.9649ZM14.1884 17.8775V14.1282H15.4589C16.4487 14.1282 16.9437 14.4785 16.9441 15.1793C16.9463 15.2884 16.9261 15.3967 16.8848 15.4976C16.8502 15.5833 16.7941 15.6585 16.7218 15.716C16.6664 15.7605 16.6072 15.7998 16.5448 15.8336C16.4904 15.8608 16.434 15.8842 16.3763 15.9036C16.5942 15.9421 16.7907 16.0587 16.9289 16.2314C17.0672 16.4042 17.1379 16.6214 17.1278 16.8425C17.1278 17.5327 16.6092 17.8777 15.572 17.8775L14.1884 17.8775ZM15.1547 17.0845H15.7253C15.8411 17.0897 15.9552 17.0559 16.0494 16.9885C16.0966 16.9517 16.1341 16.9038 16.1585 16.8492C16.183 16.7945 16.1937 16.7347 16.1897 16.6749C16.1937 16.6147 16.1811 16.5545 16.1534 16.5009C16.1257 16.4473 16.0839 16.4023 16.0325 16.3707C15.9296 16.3069 15.8107 16.2736 15.6897 16.2747H15.1547L15.1547 17.0845ZM15.1547 15.5964H15.6511C15.7399 15.5969 15.8262 15.567 15.8958 15.5118C15.9311 15.4848 15.9595 15.4498 15.9785 15.4096C15.9975 15.3694 16.0067 15.3253 16.0053 15.2808C16.0099 15.2274 16.0007 15.1737 15.9786 15.1249C15.9565 15.0761 15.9221 15.0338 15.8789 15.0021C15.795 14.9446 15.6954 14.9143 15.5937 14.9156H15.1547L15.1547 15.5964ZM17.8962 17.8774V14.1281H18.8466L19.73 15.4042L20.6115 14.1281H21.5635V17.8774H20.5945V15.555L19.73 16.7991L18.8626 15.555V17.8775L17.8962 17.8774Z" fill="#00B5E2"/>
</svg>
