<svg width="32" height="32" viewBox="0 0 32 32" fill="none" xmlns="http://www.w3.org/2000/svg">
    <path d="M16 32C24.8366 32 32 24.8366 32 16C32 7.16344 24.8366 0 16 0C7.16344 0 0 7.16344 0 16C0 24.8366 7.16344 32 16 32Z" fill="#047FFF"/>
    <path d="M15.8 27.1001V17.1001C15.8 16.4001 15.6 16.1001 15 15.7001C12.2 14.2001 6.4 10.8001 6 10.5001L15.2 5.20006C15.6 5.00006 16 4.80006 16.6 5.20006L19.7 7.00006L18.8 7.60006C18.2 8.10006 17.6 8.30006 16.9 7.70006C16.5 7.30006 15.9 7.10006 15.2 7.50006L10 10.5001L13.4 12.5001L17.2 14.6001C17.7 14.9001 18 15.2001 17.9 15.9001V23.7001C18.6 23.3001 22.2 21.8001 23.3 21.0001C23.8 20.7001 24.1 20.2001 24.1 19.5001V18.2001L26.1 17.5001V19.3001C26.1 20.1001 26.1 20.9001 25.7 21.6001C25.3 22.4001 24.2 22.8001 23.3 23.2001C21 24.5001 18 25.8001 15.8 27.1001C16.1 27.1001 15.5 27.1001 15.8 27.1001Z" fill="white"/>
    <path d="M6.00002 11.5L7.30002 12.2C7.90002 12.6 8.00002 13 8.00002 14.2V20C8.00002 20.4 8.30002 20.9 8.60002 21L14.6 24.5C14.8 24.6 15.1 25 15.1 25.3V27L5.90002 21.5L6.00002 11.5ZM24 17.8V13.2C24 12.3 23.8 11.6 22.9 11.1L18.7 8.6C19.7 7.5 20.4 7.2 21.5 7.9C22.5 8.5 23.5 9.2 24.6 9.7C25.6 10.2 25.9 11 26 12V17.1L24 17.8Z" fill="white"/>
</svg>
