<svg width="32" height="32" viewBox="0 0 32 32" fill="none" xmlns="http://www.w3.org/2000/svg">
    <path d="M16 0C24.832 0 32 7.168 32 16C32 24.832 24.832 32 16 32C7.168 32 0 24.832 0 16C0 7.168 7.168 0 16 0Z" fill="#FBCC5C"/>
    <path d="M25.408 14.08C25.408 9.92 22.048 6.56 17.888 6.56C14.816 6.56 12.16 8.416 11.008 11.072C8.384 12.256 6.56 14.88 6.56 17.92C6.56 22.08 9.92 25.44 14.08 25.44C17.152 25.44 19.808 23.584 20.96 20.928C23.616 19.776 25.408 17.152 25.408 14.08ZM19.104 19.04C18.72 19.136 18.336 19.168 17.952 19.168C15.136 19.168 12.864 16.864 12.864 14.08C12.864 13.696 12.896 13.344 12.992 12.992C13.376 12.896 13.76 12.864 14.144 12.864C16.96 12.864 19.232 15.136 19.232 17.952C19.2 18.336 19.168 18.688 19.104 19.04ZM9.024 17.952C9.024 16.576 9.568 15.36 10.432 14.432C10.624 18.336 13.76 21.44 17.664 21.6C16.736 22.496 15.488 23.072 14.112 23.072C11.296 23.04 9.024 20.768 9.024 17.952ZM21.632 17.6C21.44 13.696 18.304 10.592 14.4 10.432C15.328 9.536 16.576 8.96 17.952 8.96C20.768 8.96 23.04 11.232 23.04 14.048C23.008 15.456 22.464 16.704 21.632 17.6Z" fill="#F9B73E"/>
    <path d="M25.152 14.08C25.152 10.112 21.92 6.88 17.952 6.88C14.944 6.88 12.384 8.70401 11.296 11.328C8.73599 12.416 6.91199 14.976 6.91199 17.952C6.91199 21.92 10.144 25.152 14.112 25.152C17.12 25.152 19.68 23.328 20.768 20.704C23.296 19.616 25.152 17.056 25.152 14.08ZM14.112 23.36C11.136 23.36 8.70399 20.928 8.70399 17.952C8.70399 16.256 9.50399 14.72 10.752 13.728C10.752 13.856 10.752 13.984 10.752 14.08C10.752 18.048 13.984 21.28 17.952 21.28C18.112 21.28 18.24 21.28 18.4 21.28C17.376 22.56 15.84 23.36 14.112 23.36ZM19.36 19.296C18.912 19.424 18.432 19.488 17.952 19.488C14.976 19.488 12.544 17.056 12.544 14.08C12.544 13.6 12.608 13.152 12.736 12.736C13.184 12.608 13.664 12.544 14.144 12.544C17.12 12.544 19.552 14.976 19.552 17.952C19.52 18.432 19.456 18.88 19.36 19.296ZM21.312 18.304C21.312 18.176 21.312 18.048 21.312 17.952C21.312 13.984 18.08 10.752 14.112 10.752C13.952 10.752 13.824 10.752 13.664 10.752C14.656 9.472 16.192 8.672 17.92 8.672C20.896 8.672 23.328 11.104 23.328 14.08C23.328 15.808 22.528 17.312 21.312 18.304Z" fill="white"/>
</svg>
