<svg width="32" height="32" viewBox="0 0 32 32" fill="none" xmlns="http://www.w3.org/2000/svg">
    <path d="M16 32C24.8366 32 32 24.8366 32 16C32 7.16344 24.8366 0 16 0C7.16344 0 0 7.16344 0 16C0 24.8366 7.16344 32 16 32Z" fill="black"/>
    <path fill-rule="evenodd" clip-rule="evenodd" d="M25.1 15.2C25.3 14.7 26 14.5 26.4 14.5H26.6V15.5C26.4 15.5 26.1 15.5 25.9 15.6C25.7 15.7 25.6 15.8 25.5 15.9C25.3 16.2 25.3 16.3 25.3 16.6V17.3V19.1H24.2V14.6H25.2L25.1 15.2ZM11.3 18C10.5 18.8 9.80002 19.2 8.60002 19.2C6.70002 19.2 5.40002 17.9 5.40002 16C5.40002 14.1 6.90002 12.8 8.70002 12.8C9.70002 12.8 10.7 13.3 11.4 14L10.6 14.8C10 14.2 9.40002 13.9 8.70002 13.9C7.50002 13.9 6.60002 14.8 6.60002 16C6.60002 17.3 7.50002 18.1 8.70002 18.1C9.50002 18.1 10 17.8 10.6 17.2L11.3 18ZM16.2 18.2C15.7 18.9 15.1 19.2 14.1 19.2C12.7 19.2 11.7 18.1 11.7 16.8C11.7 15.6 12.6 14.4 14.1 14.4C15.5 14.4 16.5 15.4 16.5 16.9V17.2H12.8C12.9 17.9 13.4 18.3 14.1 18.3C14.6 18.3 14.9 18.2 15.2 17.9L16.2 18.2ZM15.3 16.3C15.1 15.8 14.7 15.4 14.1 15.4C13.5 15.4 13.1 15.7 12.9 16.3H15.3ZM17.1 12.8H18.2V19.1H17.1V12.8ZM23.2 18.2C22.7 18.9 22.1 19.2 21.1 19.2C19.7 19.2 18.7 18.1 18.7 16.8C18.7 15.6 19.6 14.4 21.1 14.4C22.5 14.4 23.5 15.4 23.5 16.9V17.2H19.8C19.9 17.9 20.4 18.3 21.1 18.3C21.6 18.3 21.9 18.2 22.2 17.9L23.2 18.2ZM22.4 16.3C22.2 15.8 21.8 15.4 21.2 15.4C20.6 15.4 20.2 15.7 20 16.3H22.4Z" fill="white"/>
</svg>
