<svg width="32" height="32" viewBox="0 0 32 32" fill="none" xmlns="http://www.w3.org/2000/svg">
    <path d="M16 32C24.8366 32 32 24.8366 32 16C32 7.16344 24.8366 0 16 0C7.16344 0 0 7.16344 0 16C0 24.8366 7.16344 32 16 32Z" fill="white"/>
    <path d="M21.0522 18.3016L15.9311 23.4227L13.081 20.5726L18.2021 15.4515L15.9245 13.1739L8.50098 20.5972L15.904 28L23.3273 20.5767L21.0522 18.3016Z" fill="#1A1A1A"/>
    <path d="M25.622 13.6726L15.9496 4L6.25 13.6996L6.28092 18.2333L15.9085 8.60605L25.606 18.3037L25.622 13.6726Z" fill="#38A1DB"/>
</svg>
