<svg width="32" height="32" viewBox="0 0 32 32" fill="none" xmlns="http://www.w3.org/2000/svg">
    <defs>
        <linearGradient id="paint0_linear" x1="15.9346" y1="0.259634" x2="16.065" y2="31.795" gradientUnits="userSpaceOnUse">
            <stop stop-color="#1BD1FE"/>
            <stop offset="0.999" stop-color="#1D6DF2"/>
        </linearGradient>
        <linearGradient id="paint1_linear" x1="15.3926" y1="0.135989" x2="15.7184" y2="32.1926" gradientUnits="userSpaceOnUse">
            <stop stop-color="#1BD1FE"/>
            <stop offset="0.999" stop-color="#1D6DF2"/>
        </linearGradient>
    </defs>
    <path d="M0.000141136 15.9971C-0.0366719 7.31278 7.13294 0.103756 15.7786 0.00113543C24.5422 -0.102853 31.9093 6.94902 31.9983 15.8029C32.0885 24.7638 24.9313 32.031 15.9363 31.9999C7.03194 31.9691 -0.00839427 24.7264 0.000141136 15.9971ZM11.4851 22.4095C11.8475 22.6202 12.0813 22.4604 12.3104 22.3122C12.6086 22.119 12.9162 21.935 13.1902 21.7108C13.683 21.3077 14.1996 21.2127 14.8495 21.2685C16.9118 21.4458 18.8008 20.909 20.4554 19.6333C23.6944 17.1362 23.6703 12.6086 20.4067 10.1395C17.8404 8.19799 14.2834 7.93065 11.5328 9.57688C9.39892 10.854 8.08864 12.6961 8.26443 15.3022C8.39161 17.1875 9.33175 18.6661 10.8431 19.7674C11.2446 20.0599 11.3992 20.3721 11.3853 20.8578C11.3707 21.3682 11.2827 21.8948 11.4851 22.4095ZM21.4918 23.5604C21.8497 23.2931 21.8544 23.0633 21.8224 22.8511C21.7297 22.235 22.0077 21.8541 22.4797 21.4767C23.0823 20.9947 23.5141 20.3405 23.6777 19.5664C23.9043 18.4946 23.8291 17.4801 22.9673 16.5544C22.6592 17.1539 22.4488 17.6146 22.5965 18.2457C22.8336 19.2587 22.4632 20.1371 21.6573 20.7933C21.2799 21.1006 20.9121 21.3989 20.7526 21.8834C20.3993 21.7412 20.1261 21.5757 19.769 21.6201C19.0876 21.7048 18.4205 21.6364 17.7483 21.4331C17.2482 21.2819 16.7001 21.2971 16.2171 21.7411C16.914 22.338 17.6874 22.5904 18.5066 22.6634C19.5796 22.7589 20.6971 22.6392 21.4918 23.5604Z" fill="url(#paint0_linear)"/>
    <path d="M11.4851 22.4095C11.2827 21.8948 11.3707 21.3682 11.3853 20.8578C11.3992 20.3721 11.2446 20.0599 10.8431 19.7674C9.33166 18.6661 8.39153 17.1875 8.26441 15.3022C8.08862 12.6961 9.39896 10.8541 11.5328 9.57688C14.2834 7.93065 17.8403 8.19799 20.4066 10.1395C23.6703 12.6086 23.6943 17.1362 20.4554 19.6333C18.8007 20.909 16.9119 21.4458 14.8495 21.2685C14.1996 21.2126 13.683 21.3076 13.1902 21.7108C12.9162 21.935 12.6087 22.119 12.3104 22.3122C12.0814 22.4604 11.8476 22.6202 11.4851 22.4095ZM12.4175 20.7139C12.7256 20.6233 12.8566 20.6238 12.9243 20.5586C13.4535 20.0495 14.0676 20.0499 14.753 20.1326C16.1967 20.3067 17.575 20.0406 18.8777 19.3676C22.4486 17.5228 22.7859 13.1348 19.4688 10.8875C17.1132 9.29156 14.5706 9.22054 12.0972 10.5675C8.66857 12.4347 8.36696 16.5974 11.4445 18.8695C12.061 19.3247 12.6892 19.6933 12.4175 20.7139Z" fill="white"/>
    <path d="M21.4918 23.5604C20.697 22.6392 19.5795 22.759 18.5065 22.6633C17.6873 22.5904 16.9139 22.3379 16.217 21.741C16.7 21.2971 17.2481 21.2818 17.7482 21.4331C18.4204 21.6364 19.0875 21.7048 19.7689 21.6201C20.126 21.5757 20.3992 21.7411 20.7525 21.8834C20.912 21.3989 21.2798 21.1005 21.6572 20.7932C22.4632 20.137 22.8335 19.2586 22.5964 18.2456C22.4487 17.6146 22.6591 17.1538 22.9672 16.5543C23.8289 17.48 23.9043 18.4945 23.6776 19.5663C23.514 20.3405 23.0822 20.9947 22.4796 21.4766C22.0076 21.854 21.7296 22.2349 21.8223 22.8511C21.8544 23.0633 21.8497 23.2931 21.4918 23.5604Z" fill="white"/>
    <path d="M12.4175 20.7139C12.6892 19.6933 12.061 19.3247 11.4445 18.8695C8.36697 16.5975 8.66858 12.4347 12.0972 10.5676C14.5706 9.22059 17.1132 9.29161 19.4688 10.8875C22.7859 13.1349 22.4486 17.5229 18.8777 19.3676C17.575 20.0406 16.1967 20.3068 14.753 20.1326C14.0676 20.0499 13.4535 20.0495 12.9244 20.5587C12.8566 20.6237 12.7256 20.6232 12.4175 20.7139ZM19.6996 15.036C19.6793 14.582 19.3018 14.221 18.8459 14.2197C18.3621 14.2182 17.9541 14.6226 17.9581 15.0997C17.962 15.564 18.4041 15.9905 18.8615 15.9713C19.324 15.9518 19.7207 15.5092 19.6996 15.036ZM13.1545 15.0454C13.1353 14.5813 12.766 14.2165 12.3107 14.212C11.8436 14.2074 11.4079 14.6332 11.4075 15.0949C11.4071 15.5516 11.8583 15.9914 12.3122 15.9767C12.7806 15.9615 13.1743 15.5261 13.1545 15.0454ZM16.4817 15.0892C16.4852 14.5996 16.0825 14.1931 15.6055 14.2049C15.1416 14.2164 14.7787 14.5716 14.76 15.0324C14.7402 15.5181 15.1281 15.9529 15.5926 15.9659C16.0675 15.9791 16.4781 15.5743 16.4817 15.0892Z" fill="url(#paint1_linear)"/>
    <path d="M19.6995 15.036C19.7206 15.5091 19.324 15.9518 18.8615 15.9712C18.404 15.9905 17.9619 15.5639 17.958 15.0996C17.954 14.6226 18.362 14.2182 18.8459 14.2196C19.3017 14.221 19.6793 14.582 19.6995 15.036Z" fill="white"/>
    <path d="M13.1544 15.0454C13.1742 15.5261 12.7805 15.9615 12.3122 15.9766C11.8582 15.9913 11.4071 15.5516 11.4075 15.0948C11.4079 14.6332 11.8435 14.2074 12.3107 14.212C12.7659 14.2165 13.1353 14.5813 13.1544 15.0454Z" fill="white"/>
    <path d="M16.4816 15.0892C16.478 15.5743 16.0674 15.9792 15.5925 15.9659C15.128 15.9529 14.7402 15.5182 14.7599 15.0324C14.7786 14.5716 15.1415 14.2164 15.6054 14.2049C16.0824 14.1931 16.4852 14.5996 16.4816 15.0892Z" fill="white"/>
</svg>
