<svg width="32" height="32" viewBox="0 0 32 32" fill="none" xmlns="http://www.w3.org/2000/svg">
    <path d="M16 0C20.2435 0 24.3131 1.68571 27.3137 4.68629C30.3143 7.68687 32 11.7565 32 16C32 20.2435 30.3143 24.3131 27.3137 27.3137C24.3131 30.3143 20.2435 32 16 32V32C11.7565 32 7.68687 30.3143 4.68629 27.3137C1.68571 24.3131 0 20.2435 0 16V16C0 11.7565 1.68571 7.68687 4.68629 4.68629C7.68687 1.68571 11.7565 0 16 0V0Z" fill="black"/>
    <path d="M25.6296 14.0201L17.9799 6.37043C17.4548 5.84533 16.7426 5.55034 16 5.55034C15.2574 5.55034 14.5452 5.84533 14.0201 6.37043L6.37044 14.0201C6.11043 14.2801 5.90418 14.5888 5.76346 14.9285C5.62275 15.2682 5.55032 15.6323 5.55032 16C5.55032 16.3677 5.62275 16.7318 5.76346 17.0715C5.90418 17.4112 6.11043 17.7199 6.37044 17.9799L14.0201 25.6296C14.2801 25.8896 14.5888 26.0958 14.9285 26.2365C15.2682 26.3772 15.6323 26.4497 16 26.4497C16.3677 26.4497 16.7318 26.3772 17.0715 26.2365C17.4112 26.0958 17.7199 25.8896 17.9799 25.6296L25.6296 17.9799C25.8896 17.7199 26.0958 17.4112 26.2365 17.0715C26.3773 16.7318 26.4497 16.3677 26.4497 16C26.4497 15.6323 26.3773 15.2682 26.2365 14.9285C26.0958 14.5888 25.8896 14.2801 25.6296 14.0201V14.0201ZM24.6867 17.0371L20.8486 20.8752L15.9733 16L11.1247 20.8486L7.31326 17.0371C7.17706 16.9009 7.06903 16.7392 6.99532 16.5613C6.92161 16.3833 6.88367 16.1926 6.88367 16C6.88367 15.8074 6.92161 15.6167 6.99532 15.4387C7.06903 15.2608 7.17706 15.0991 7.31326 14.9629L11.1183 11.1578L15.9605 16L20.8422 11.1183L24.6867 14.9629C24.8229 15.0991 24.931 15.2608 25.0047 15.4387C25.0784 15.6167 25.1163 15.8074 25.1163 16C25.1163 16.1926 25.0784 16.3833 25.0047 16.5613C24.931 16.7392 24.8229 16.9009 24.6867 17.0371V17.0371Z" fill="white"/>
</svg>
