<svg width="32" height="32" viewBox="0 0 32 32" fill="none" xmlns="http://www.w3.org/2000/svg">
    <path d="M16 32C24.8366 32 32 24.8366 32 16C32 7.16344 24.8366 0 16 0C7.16344 0 0 7.16344 0 16C0 24.8366 7.16344 32 16 32Z" fill="#1E191E"/>
    <path d="M19.1486 19.2545C18.4406 20.5964 17.0375 21.5116 15.4194 21.5116C13.0899 21.5116 11.2014 19.6157 11.2014 17.277C11.2014 14.9382 13.0899 13.0423 15.4194 13.0423C17.0375 13.0423 18.4406 13.9575 19.1486 15.2993H23.5397C22.6587 11.6127 19.3624 8.86914 15.4194 8.86914C10.8029 8.86914 7.06055 12.6262 7.06055 17.2605C7.06055 21.8951 10.8029 25.6517 15.4194 25.6517C19.3505 25.6517 22.6386 22.9244 23.5314 19.2545H19.1486Z" fill="#FFB0C2"/>
    <path d="M22.0282 12.1435C22.9709 11.3715 23.573 10.196 23.573 8.87944C23.573 6.55405 21.6952 4.66907 19.3789 4.66907C17.0624 4.66907 15.1847 6.55405 15.1847 8.87944V8.88265C15.2626 8.88048 15.3405 8.87926 15.4189 8.87926C18.111 8.87926 20.5018 10.1585 22.0282 12.1435Z" fill="#CC91F0"/>
    <path d="M19.3817 13.0944C20.3866 13.0942 21.3089 12.7395 22.0312 12.148C20.5051 10.1631 18.1144 8.88406 15.422 8.8844C15.3437 8.88432 15.2658 8.88553 15.1881 8.88771C15.1894 11.2115 17.0664 13.0946 19.3817 13.0944Z" fill="#CC66B8"/>
</svg>
