<svg width="32" height="32" viewBox="0 0 32 32" fill="none" xmlns="http://www.w3.org/2000/svg">
    <path d="M16 32C24.8366 32 32 24.8366 32 16C32 7.16344 24.8366 0 16 0C7.16344 0 0 7.16344 0 16C0 24.8366 7.16344 32 16 32Z" fill="#CD0124"/>
    <path d="M23.2 6.73002C22.8951 6.7324 22.6 6.83873 22.3637 7.03146C22.1273 7.22418 21.9638 7.49177 21.9 7.79002H10.1C10.0508 7.54279 9.93222 7.31465 9.75824 7.1322C9.58427 6.94975 9.36203 6.82051 9.11741 6.75952C8.8728 6.69854 8.61589 6.70834 8.37663 6.78778C8.13737 6.86721 7.92562 7.01301 7.76605 7.20818C7.60648 7.40334 7.50566 7.63985 7.47535 7.89012C7.44504 8.14039 7.48648 8.39412 7.59485 8.62174C7.70321 8.84936 7.87404 9.04149 8.08742 9.17575C8.3008 9.31 8.54794 9.38084 8.80004 9.38002C8.90314 9.38975 9.00693 9.38975 9.11004 9.38002L11.75 14.87C11.5609 15.0548 11.4353 15.2948 11.3912 15.5555C11.3471 15.8162 11.3868 16.0842 11.5046 16.3209C11.6224 16.5576 11.8123 16.7509 12.0468 16.8729C12.2814 16.9949 12.5486 17.0394 12.81 17L15.63 22.86C15.4543 22.9908 15.3145 23.1639 15.2236 23.3632C15.1327 23.5625 15.0936 23.7816 15.11 24C15.11 24.3528 15.2502 24.6911 15.4996 24.9405C15.749 25.1899 16.0873 25.33 16.44 25.33C16.7928 25.33 17.1311 25.1899 17.3805 24.9405C17.6299 24.6911 17.77 24.3528 17.77 24C17.769 23.786 17.7167 23.5754 17.6175 23.3858C17.5183 23.1961 17.3752 23.033 17.2 22.91L19.63 17.2C19.7064 17.2103 19.7837 17.2103 19.86 17.2C20.1254 17.198 20.3833 17.1122 20.5971 16.955C20.8108 16.7977 20.9694 16.577 21.0504 16.3243C21.1313 16.0715 21.1303 15.7997 21.0477 15.5476C20.965 15.2954 20.8049 15.0758 20.59 14.92L23 9.37002H23.25C23.6028 9.37002 23.9411 9.2299 24.1905 8.98047C24.4399 8.73105 24.58 8.39276 24.58 8.04002C24.58 7.68728 24.4399 7.34899 24.1905 7.09957C23.9411 6.85015 23.6028 6.71002 23.25 6.71002L23.2 6.73002ZM10.09 8.34002H21.9C21.921 8.43279 21.9511 8.52324 21.99 8.61002L16.09 12.9L10 8.59002C10.041 8.51106 10.0713 8.42699 10.09 8.34002ZM9.60004 9.11002L9.69004 9.00002L15.62 13.21L13.37 14.85C13.1384 14.6445 12.8397 14.5307 12.53 14.53C12.4336 14.5197 12.3364 14.5197 12.24 14.53L9.60004 9.11002ZM16.69 22.65C16.607 22.6403 16.5231 22.6403 16.44 22.65C16.3336 22.6397 16.2265 22.6397 16.12 22.65L13.3 16.81C13.4534 16.6925 13.5775 16.5411 13.6625 16.3676C13.7476 16.1941 13.7912 16.0032 13.79 15.81C13.7878 15.6386 13.7539 15.4691 13.69 15.31L16.09 13.57L18.7 15.42C18.6353 15.5753 18.6013 15.7418 18.6 15.91C18.6035 16.1066 18.6533 16.2997 18.7454 16.4734C18.8375 16.6472 18.9693 16.7968 19.13 16.91L16.69 22.65ZM20.09 14.65H19.86C19.5387 14.6499 19.23 14.7755 19 15L16.54 13.26L22.29 9.07002L22.42 9.17002L20.09 14.65Z" fill="white"/>
</svg>
