<svg width="32" height="32" viewBox="0 0 32 32" fill="none" xmlns="http://www.w3.org/2000/svg">
    <g clip-path="url(#clip0_1015_432)">
        <path d="M16 0C12.8355 0 9.74207 0.938384 7.11088 2.69649C4.4797 4.45459 2.42894 6.95345 1.21793 9.87706C0.0069325 12.8007 -0.309921 16.0177 0.307443 19.1214C0.924806 22.2251 2.44866 25.0761 4.6863 27.3137C6.92394 29.5513 9.77487 31.0752 12.8786 31.6926C15.9823 32.3099 19.1993 31.9931 22.1229 30.7821C25.0466 29.5711 27.5454 27.5203 29.3035 24.8891C31.0616 22.2579 32 19.1645 32 16C31.9945 11.7582 30.307 7.69177 27.3076 4.69238C24.3082 1.693 20.2418 0.00551678 16 0" fill="#00285E"/>
        <path d="M30.3281 16C30.3281 13.1646 29.4873 10.3929 27.9121 8.03538C26.3368 5.67785 24.0979 3.84037 21.4783 2.75532C18.8588 1.67027 15.9763 1.38637 13.1954 1.93952C10.4145 2.49268 7.86007 3.85804 5.85516 5.86296C3.85024 7.86788 2.48487 10.4223 1.93172 13.2032C1.37856 15.9841 1.66246 18.8666 2.74751 21.4861C3.83257 24.1057 5.67004 26.3446 8.02758 27.9199C10.3851 29.4952 13.1568 30.3359 15.9922 30.3359C17.8751 30.3369 19.7397 29.9667 21.4794 29.2466C23.2192 28.5265 24.8 27.4706 26.1314 26.1392C27.4628 24.8078 28.5187 23.227 29.2388 21.4873C29.9589 19.7475 30.3291 17.8829 30.3281 16" fill="white"/>
        <path d="M25.125 16C25.125 14.1952 24.5898 12.431 23.5872 10.9304C22.5845 9.42983 21.1594 8.26025 19.492 7.5696C17.8246 6.87895 15.9899 6.69825 14.2198 7.05034C12.4497 7.40243 10.8238 8.2715 9.54765 9.54765C8.2715 10.8238 7.40243 12.4497 7.05034 14.2198C6.69825 15.9899 6.87895 17.8246 7.5696 19.492C8.26025 21.1594 9.42983 22.5845 10.9304 23.5872C12.431 24.5898 14.1952 25.125 16 25.125C18.42 25.1248 20.7409 24.1634 22.4522 22.4522C24.1634 20.7409 25.1248 18.42 25.125 16Z" fill="#6CADDF"/>
        <path d="M16 25.8438C14.0527 25.843 12.1493 25.2649 10.5304 24.1825C8.91157 23.1001 7.64998 21.5621 6.90512 19.7628C6.16025 17.9636 5.96557 15.9838 6.34566 14.074C6.72576 12.1641 7.66358 10.4097 9.04057 9.03275C10.4176 7.65576 12.1719 6.71794 14.0818 6.33784C15.9917 5.95775 17.9714 6.15243 19.7706 6.8973C21.5699 7.64216 23.1079 8.90375 24.1903 10.5226C25.2727 12.1414 25.8508 14.0448 25.8516 15.9922C25.8495 18.6044 24.811 21.109 22.9639 22.9561C21.1168 24.8031 18.6122 25.8417 16 25.8438V25.8438ZM16 6.70313C14.1613 6.70313 12.3638 7.24839 10.8349 8.26994C9.30609 9.29149 8.11448 10.7435 7.41083 12.4422C6.70717 14.141 6.52306 16.0103 6.88178 17.8137C7.2405 19.6172 8.12594 21.2737 9.42613 22.5739C10.7263 23.8741 12.3829 24.7595 14.1863 25.1182C15.9897 25.477 17.859 25.2928 19.5578 24.5892C21.2566 23.8855 22.7085 22.6939 23.7301 21.1651C24.7516 19.6362 25.2969 17.8388 25.2969 16C25.2936 13.5353 24.3131 11.1725 22.5703 9.42969C20.8275 7.68689 18.4647 6.70637 16 6.70313V6.70313Z" fill="#00285E"/>
        <path d="M16 31.3438C12.9653 31.3438 9.99874 30.4439 7.47548 28.7579C4.95221 27.0719 2.98556 24.6755 1.82423 21.8718C0.662898 19.0681 0.359041 15.983 0.951083 13.0066C1.54312 10.0302 3.00448 7.29619 5.15034 5.15033C7.2962 3.00447 10.0302 1.54312 13.0066 0.951075C15.983 0.359033 19.0681 0.662891 21.8718 1.82422C24.6755 2.98555 27.0719 4.9522 28.7579 7.47547C30.4439 9.99873 31.3438 12.9653 31.3438 16C31.3393 20.068 29.7213 23.9682 26.8447 26.8447C23.9682 29.7213 20.068 31.3393 16 31.3438V31.3438ZM16 0.984379C13.031 0.983606 10.1284 1.86327 7.65928 3.51214C5.19019 5.16101 3.26549 7.50501 2.12857 10.2478C0.991657 12.9905 0.693589 16.0088 1.27206 18.9209C1.85053 21.833 3.27957 24.5083 5.37845 26.6082C7.47733 28.7082 10.1518 30.1386 13.0636 30.7186C15.9755 31.2986 18.9939 31.0021 21.7372 29.8666C24.4806 28.7311 26.8256 26.8076 28.4757 24.3394C30.1259 21.8712 31.007 18.969 31.0078 16C31.0056 12.0196 29.424 8.2028 26.6102 5.38753C23.7964 2.57225 19.9804 0.988636 16 0.984379" fill="#6CADDF"/>
        <path d="M3.19531 15.6484L2.9375 15.7109L2.86719 15.4453L3.29688 15.3203H3.51562V16.8203H3.19531V15.6484Z" fill="#6CADDF"/>
        <path d="M3.89062 16.4062C3.88606 16.3281 3.90729 16.2506 3.95104 16.1857C3.9948 16.1207 4.05866 16.072 4.13281 16.0469C4.0733 16.016 4.02395 15.9686 3.99069 15.9104C3.95744 15.8522 3.94168 15.7857 3.94531 15.7187V15.7109C3.94531 15.4844 4.15625 15.3047 4.46875 15.3047C4.78125 15.3047 4.99219 15.4844 4.99219 15.7109V15.7187C4.99483 15.7855 4.97865 15.8517 4.9455 15.9097C4.91235 15.9677 4.86355 16.0152 4.80469 16.0469C4.87631 16.0735 4.93799 16.1215 4.98132 16.1844C5.02466 16.2473 5.04755 16.322 5.04687 16.3984V16.4062C5.04687 16.6797 4.80469 16.8437 4.47656 16.8437C4.14843 16.8437 3.89062 16.6641 3.89062 16.4062ZM4.71875 16.3828C4.71875 16.2656 4.60937 16.1953 4.46094 16.1953C4.31251 16.1953 4.20313 16.2656 4.20313 16.375C4.20313 16.4766 4.29688 16.5625 4.46094 16.5625C4.625 16.5625 4.71875 16.4844 4.71875 16.3828ZM4.67969 15.7578C4.67834 15.7319 4.67173 15.7066 4.66024 15.6833C4.64876 15.66 4.63265 15.6394 4.61291 15.6225C4.59316 15.6057 4.5702 15.5931 4.54541 15.5855C4.52062 15.5778 4.49454 15.5753 4.46875 15.5781C4.33594 15.5781 4.25781 15.6562 4.25781 15.75V15.7578C4.26589 15.8079 4.29155 15.8536 4.33021 15.8865C4.36886 15.9194 4.41798 15.9375 4.46875 15.9375C4.51953 15.9375 4.56864 15.9194 4.6073 15.8865C4.64595 15.8536 4.67162 15.8079 4.67969 15.7578V15.7578Z" fill="#6CADDF"/>
        <path d="M27.4766 16.2031C27.3905 16.2724 27.2824 16.3085 27.1719 16.3047C27.1047 16.3133 27.0365 16.3073 26.9718 16.2872C26.9072 16.267 26.8476 16.2332 26.7972 16.188C26.7468 16.1428 26.7067 16.0872 26.6797 16.0251C26.6527 15.963 26.6394 15.8958 26.6406 15.8281V15.8203C26.6537 15.7108 26.697 15.607 26.7657 15.5207C26.8344 15.4344 26.9258 15.3689 27.0296 15.3316C27.1334 15.2943 27.2456 15.2866 27.3535 15.3095C27.4614 15.3323 27.5609 15.3848 27.6406 15.4609C27.7067 15.5376 27.7562 15.6273 27.7857 15.7241C27.8153 15.821 27.8245 15.9229 27.8125 16.0234V16.0312C27.8125 16.5156 27.586 16.8437 27.1641 16.8437C26.9832 16.8483 26.8073 16.7841 26.6719 16.6641L26.8438 16.4141C26.9342 16.4945 27.0509 16.539 27.1719 16.5391C27.3985 16.5391 27.461 16.3281 27.4766 16.2031ZM27.4844 15.8125C27.4849 15.7796 27.4783 15.7469 27.4652 15.7167C27.4521 15.6864 27.4327 15.6594 27.4083 15.6372C27.3839 15.615 27.3551 15.5983 27.3238 15.5881C27.2925 15.5779 27.2593 15.5745 27.2266 15.5781C27.1947 15.5738 27.1623 15.5765 27.1316 15.586C27.1009 15.5955 27.0726 15.6116 27.0488 15.6332C27.025 15.6548 27.0062 15.6813 26.9937 15.7109C26.9812 15.7406 26.9754 15.7726 26.9766 15.8047V15.8125C26.9837 15.8749 27.0135 15.9324 27.0603 15.9742C27.1072 16.016 27.1677 16.0391 27.2305 16.0391C27.2932 16.0391 27.3538 16.016 27.4006 15.9742C27.4475 15.9324 27.4773 15.8749 27.4844 15.8125Z" fill="#6CADDF"/>
        <path d="M28.8594 16.4922H28.1328L28.0781 16.2578L28.8906 15.3125H29.1641V16.2266H29.3672V16.4922H29.1641V16.8125H28.8516V16.4922H28.8594ZM28.8594 16.2266V15.7656L28.4609 16.2266H28.8594Z" fill="#6CADDF"/>
        <path d="M16 25.2969C14.1613 25.2969 12.3638 24.7516 10.8349 23.7301C9.30608 22.7085 8.11447 21.2565 7.41081 19.5578C6.70715 17.859 6.52304 15.9897 6.88177 14.1863C7.24049 12.3828 8.12593 10.7263 9.42612 9.42611C10.7263 8.12591 12.3829 7.24047 14.1863 6.88175C15.9897 6.52303 17.859 6.70714 19.5578 7.4108C21.2566 8.11446 22.7085 9.30606 23.7301 10.8349C24.7516 12.3638 25.2969 14.1613 25.2969 16C25.2937 18.4647 24.3131 20.8275 22.5703 22.5703C20.8275 24.3131 18.4647 25.2936 16 25.2969V25.2969ZM16 7.04687C14.2293 7.04687 12.4983 7.57196 11.0259 8.55574C9.55359 9.53952 8.40604 10.9378 7.7284 12.5738C7.05076 14.2098 6.87345 16.0099 7.21891 17.7467C7.56437 19.4834 8.41707 21.0787 9.66919 22.3308C10.9213 23.5829 12.5166 24.4356 14.2533 24.7811C15.9901 25.1266 17.7903 24.9493 19.4262 24.2716C21.0622 23.594 22.4605 22.4464 23.4443 20.9741C24.428 19.5018 24.9531 17.7708 24.9531 16C24.9507 13.6262 24.0066 11.3504 22.3281 9.67188C20.6496 7.99337 18.3738 7.04931 16 7.04687" fill="white"/>
        <path d="M15.8281 7.99219C13.4026 7.94865 10.9788 8.1502 8.59376 8.59375C7.92737 11.6037 7.77418 14.7046 8.14064 17.7656C8.46187 19.7875 9.37916 21.6676 10.7751 23.1652C12.1711 24.6627 13.9822 25.7096 15.9766 26.1719V26.1719C17.9715 25.7107 19.7832 24.6641 21.1793 23.1664C22.5755 21.6686 23.4924 19.788 23.8125 17.7656C24.1795 14.7046 24.0263 11.6036 23.3594 8.59375C20.9743 8.1502 18.5506 7.94865 16.125 7.99219H15.8281Z" fill="#00285E"/>
        <path d="M23.0078 16.5703C22.9531 18.1328 22.7109 22.8047 15.9687 25.375C9.28125 22.875 8.92969 18.0391 8.92969 16.5703H23.0078Z" fill="#97C1E7"/>
        <path d="M22.8047 16.3125C22.9114 13.9635 22.7516 11.6099 22.3281 9.29687C20.2287 8.95337 18.1037 8.79131 15.9765 8.8125C13.8319 8.79113 11.6899 8.96898 9.5781 9.34375C9.13257 11.6356 8.96209 13.9724 9.07029 16.3047H22.8047V16.3125Z" fill="white"/>
        <path d="M16.1797 25.2344L9.06252 16.6328C8.80471 18.4063 10.2422 23.6328 16.1797 25.2344Z" fill="#6CADDF"/>
        <path d="M11.1875 16.5781L17.7734 24.5234C18.3527 24.2523 18.8981 23.9141 19.3984 23.5156L13.6484 16.5781H11.1875Z" fill="#6CADDF"/>
        <path d="M15.7578 16.5859L20.625 22.4531C21.0686 21.9799 21.4614 21.4614 21.7969 20.9062L18.2188 16.5859H15.7578Z" fill="#6CADDF"/>
        <path d="M22.8906 16.5859L20.4609 16.5781L22.5 19.0391C22.7765 18.2515 22.9088 17.4205 22.8906 16.5859V16.5859Z" fill="#6CADDF"/>
        <path d="M18.8438 19.8047C18.8344 19.7766 18.819 19.751 18.7988 19.7294C18.7786 19.7078 18.7539 19.6909 18.7266 19.6797L18.3203 19.5391C18.2848 19.5273 18.2465 19.5273 18.2109 19.5391C18.1808 19.3982 18.1002 19.2732 17.9844 19.1875C17.9688 19.1797 17.9531 19.1641 17.9375 19.1562C17.9098 19.139 17.8811 19.1233 17.8516 19.1094C17.7969 19.0859 17.7422 19.0703 17.6953 19.0547C17.5592 19.0149 17.4301 18.9543 17.3125 18.875C17.2077 18.7981 17.1177 18.7028 17.0469 18.5937C17.0313 18.5703 17.0156 18.5547 17 18.5312C16.959 18.4695 16.909 18.4142 16.8516 18.3672C16.7481 18.2962 16.6255 18.2581 16.5 18.2578C16.4688 18.2578 16.4453 18.2656 16.4141 18.2656V18.2578C16.4197 18.2088 16.4087 18.1592 16.3828 18.1172L16.1328 17.7812C16.1142 17.7575 16.0905 17.7381 16.0635 17.7246C16.0365 17.7111 16.0068 17.7038 15.9766 17.7031C15.9479 17.7015 15.9193 17.7071 15.8934 17.7194C15.8675 17.7316 15.845 17.7502 15.8281 17.7734L15.5625 18.1094C15.5463 18.1302 15.5345 18.1541 15.5278 18.1796C15.5211 18.2051 15.5196 18.2317 15.5234 18.2578C15.5 18.2578 15.4844 18.25 15.4609 18.25C15.3354 18.2502 15.2129 18.2884 15.1094 18.3594C15.0949 18.3678 15.0817 18.3783 15.0703 18.3906C15.045 18.4121 15.0215 18.4356 15 18.4609C14.9637 18.5033 14.9298 18.5476 14.8984 18.5937C14.8186 18.7123 14.718 18.8155 14.6016 18.8984C14.4955 18.9744 14.3763 19.03 14.25 19.0625L14.1797 19.0859C14.1061 19.1025 14.0369 19.1344 13.9766 19.1797C13.8539 19.2672 13.7699 19.3988 13.7422 19.5469C13.6994 19.5324 13.6536 19.5297 13.6094 19.5391L13.2109 19.6719C13.1829 19.6813 13.1572 19.6966 13.1357 19.7168C13.1141 19.737 13.0971 19.7617 13.0859 19.7891V19.7891C13.078 19.8165 13.076 19.8453 13.08 19.8736C13.0841 19.9019 13.0941 19.929 13.1094 19.9531L13.3516 20.3047C13.3819 20.3419 13.4228 20.3691 13.4688 20.3828C13.404 20.5196 13.3929 20.6757 13.4375 20.8203C13.4462 20.8346 13.4515 20.8506 13.4531 20.8672C13.4623 20.9012 13.4783 20.9331 13.5 20.9609C13.5313 21.0078 13.5625 21.0547 13.5938 21.0937C13.6864 21.2035 13.7556 21.3312 13.7969 21.4687C13.8363 21.5923 13.8522 21.7221 13.8438 21.8516V21.9297C13.8343 22.0041 13.8451 22.0797 13.875 22.1484C13.9224 22.2855 14.0164 22.4017 14.1406 22.4766C14.122 22.5041 14.1137 22.5373 14.1172 22.5703V22.9922C14.117 23.0214 14.124 23.0503 14.1377 23.0762C14.1513 23.1021 14.1711 23.1242 14.1953 23.1406V23.1406C14.2189 23.1571 14.2457 23.1684 14.274 23.1737C14.3023 23.1791 14.3314 23.1785 14.3594 23.1719L14.7734 23.0547C14.8078 23.0432 14.8378 23.0213 14.8594 22.9922C14.9215 23.0487 14.9943 23.0923 15.0734 23.1204C15.1525 23.1486 15.2365 23.1608 15.3203 23.1562C15.3546 23.1543 15.3886 23.1491 15.4219 23.1406C15.4766 23.125 15.5313 23.1094 15.5781 23.0937C15.8363 22.9923 16.1228 22.9895 16.3828 23.0859L16.4531 23.1094C16.5226 23.1374 16.5971 23.1507 16.6719 23.1484C16.823 23.1461 16.9678 23.0876 17.0781 22.9844C17.0997 23.0135 17.1297 23.0354 17.1641 23.0469L17.5703 23.1719C17.5991 23.1796 17.6291 23.1814 17.6586 23.1774C17.6881 23.1734 17.7165 23.1635 17.7422 23.1484V23.1484C17.7664 23.132 17.7862 23.1099 17.7999 23.084C17.8135 23.0581 17.8205 23.0293 17.8203 23L17.8281 22.5781C17.8278 22.5455 17.8198 22.5134 17.8047 22.4844C17.9329 22.4142 18.0284 22.2963 18.0703 22.1562C18.0766 22.1383 18.0818 22.1201 18.0859 22.1016C18.0955 22.0685 18.1008 22.0344 18.1016 22C18.1081 21.9456 18.1107 21.8907 18.1094 21.8359C18.1038 21.6932 18.1223 21.5506 18.1641 21.4141C18.203 21.2905 18.2668 21.1762 18.3516 21.0781C18.3672 21.0547 18.3828 21.0391 18.3984 21.0156C18.4468 20.958 18.4839 20.8917 18.5078 20.8203C18.5538 20.6699 18.5398 20.5075 18.4688 20.3672C18.5054 20.3558 18.5379 20.3341 18.5625 20.3047L18.8125 19.9609C18.8329 19.9411 18.8468 19.9156 18.8524 19.8877C18.858 19.8598 18.855 19.8308 18.8438 19.8047V19.8047Z" fill="#00285E"/>
        <path d="M15.75 20.7188C15.7503 20.6874 15.7569 20.6564 15.7692 20.6276C15.7816 20.5988 15.7996 20.5728 15.8221 20.551C15.8446 20.5292 15.8713 20.512 15.9005 20.5006C15.9297 20.4892 15.9608 20.4837 15.9922 20.4844C16.0551 20.4843 16.1156 20.5087 16.1608 20.5525C16.206 20.5962 16.2324 20.6559 16.2344 20.7188C16.2341 20.7501 16.2275 20.7811 16.2151 20.8099C16.2028 20.8387 16.1848 20.8647 16.1623 20.8866C16.1397 20.9084 16.1131 20.9255 16.0839 20.9369C16.0547 20.9483 16.0235 20.9538 15.9922 20.9531C15.9293 20.9532 15.8688 20.9288 15.8236 20.8851C15.7784 20.8413 15.752 20.7816 15.75 20.7188V20.7188Z" fill="#FFC758"/>
        <path d="M15.9844 18.7031C15.9483 18.5607 15.8588 18.4376 15.7344 18.3594L15.9844 18.0391L16.2188 18.3594C16.1003 18.4406 16.0167 18.5632 15.9844 18.7031V18.7031ZM14.0703 20.0938C13.9511 20.0152 13.8606 19.9 13.8125 19.7656L13.4375 19.8906L13.6641 20.2188C13.7837 20.1368 13.9253 20.0933 14.0703 20.0938ZM14.8125 22.3047C14.7002 22.3967 14.5592 22.4465 14.4141 22.4453V22.8438L14.8047 22.7266C14.7566 22.5896 14.7593 22.4398 14.8125 22.3047V22.3047ZM17.1562 22.3125C17.2095 22.4449 17.2123 22.5922 17.1641 22.7266L17.5469 22.8438L17.5547 22.4453C17.4104 22.4494 17.2693 22.4024 17.1562 22.3125V22.3125ZM17.8828 20.1016C18.0256 20.0897 18.1676 20.1315 18.2812 20.2188L18.5156 19.8984L18.1328 19.7656C18.0917 19.9036 18.0031 20.0226 17.8828 20.1016V20.1016ZM15.5 22.3203C15.4578 22.3208 15.4159 22.3128 15.3769 22.2969C15.3378 22.281 15.3023 22.2574 15.2725 22.2275C15.2426 22.1977 15.219 22.1622 15.2031 22.1231C15.1872 22.0841 15.1792 22.0422 15.1797 22C15.1801 21.9953 15.1791 21.9905 15.1766 21.9865C15.1741 21.9824 15.1704 21.9793 15.166 21.9775C15.1616 21.9758 15.1568 21.9755 15.1522 21.9767C15.1476 21.978 15.1435 21.9806 15.1406 21.9844C15.027 22.0957 14.9529 22.2411 14.9297 22.3984C14.9295 22.4515 14.9399 22.504 14.9603 22.553C14.9808 22.6019 15.0108 22.6463 15.0487 22.6834C15.0866 22.7206 15.1315 22.7498 15.1808 22.7692C15.2302 22.7887 15.2829 22.7981 15.3359 22.7969H15.375C15.3987 22.7977 15.4224 22.7951 15.4453 22.7891C15.6253 22.7201 15.8152 22.6805 16.0078 22.6719C16.1657 22.6765 16.3216 22.7082 16.4688 22.7656C16.5189 22.7842 16.5716 22.7948 16.625 22.7969C16.6779 22.7975 16.7303 22.7876 16.7793 22.7679C16.8284 22.7482 16.8731 22.719 16.9108 22.682C16.9485 22.6449 16.9786 22.6008 16.9993 22.5522C17.0199 22.5035 17.0308 22.4513 17.0312 22.3984C17.0131 22.2395 16.9382 22.0925 16.8203 21.9844C16.8125 21.9688 16.7891 21.9844 16.7891 22C16.7874 22.0844 16.7531 22.1649 16.6934 22.2246C16.6336 22.2843 16.5532 22.3186 16.4688 22.3203C16.3359 22.3203 16.1641 22.2031 15.9922 22.2031C15.8437 22.2031 15.6328 22.3203 15.5 22.3203ZM15.2891 21.8828C15.2888 21.9178 15.2954 21.9524 15.3087 21.9848C15.3219 22.0172 15.3415 22.0466 15.3662 22.0713C15.3909 22.096 15.4203 22.1156 15.4527 22.1288C15.4851 22.1421 15.5197 22.1487 15.5547 22.1484C15.5732 22.1492 15.5918 22.1465 15.6094 22.1406C15.6136 22.1411 15.6179 22.1407 15.622 22.1394C15.626 22.138 15.6297 22.1358 15.6328 22.1328H15.6406C15.7496 22.0873 15.8663 22.0634 15.9844 22.0625C16.0995 22.0671 16.213 22.0909 16.3203 22.1328C16.3508 22.1418 16.3823 22.1471 16.4141 22.1484C16.449 22.1487 16.4837 22.1421 16.5161 22.1288C16.5484 22.1156 16.5778 22.096 16.6025 22.0713C16.6273 22.0466 16.6468 22.0172 16.6601 21.9848C16.6733 21.9524 16.68 21.9178 16.6797 21.8828C16.6803 21.8451 16.6722 21.8077 16.6562 21.7734C16.6502 21.7594 16.6423 21.7463 16.6328 21.7344C16.6328 21.7344 16.1797 21.1172 16.1641 21.1016C16.1557 21.0913 16.1436 21.0848 16.1305 21.0833C16.1174 21.0818 16.1042 21.0856 16.0938 21.0938C16.0559 21.1068 16.0165 21.1147 15.9766 21.1172C15.9387 21.1186 15.9011 21.1106 15.8672 21.0938C15.8359 21.0781 15.8125 21.0703 15.7969 21.1016C15.7813 21.125 15.4531 21.5703 15.3516 21.7109C15.3104 21.7586 15.2882 21.8198 15.2891 21.8828V21.8828ZM17.375 21.6797C17.3621 21.72 17.3413 21.7573 17.3137 21.7894C17.2862 21.8216 17.2525 21.8479 17.2146 21.8668C17.1768 21.8857 17.1355 21.8969 17.0933 21.8996C17.0511 21.9024 17.0087 21.8967 16.9688 21.8828C16.9453 21.875 16.9297 21.8906 16.9453 21.9141C17.0195 22.0564 17.1372 22.1714 17.2812 22.2422C17.3315 22.259 17.3846 22.2657 17.4375 22.2618C17.4903 22.258 17.5419 22.2436 17.5891 22.2196C17.6364 22.1956 17.6784 22.1625 17.7127 22.1221C17.7471 22.0817 17.773 22.0349 17.7891 21.9844C17.7954 21.9724 17.7981 21.9588 17.7969 21.9453C17.8047 21.9297 17.8047 21.9063 17.8125 21.8828C17.803 21.6906 17.8241 21.4981 17.875 21.3125C17.9283 21.1642 18.0077 21.0266 18.1094 20.9063C18.1427 20.8667 18.1692 20.8218 18.1875 20.7734C18.2043 20.7232 18.211 20.6701 18.2071 20.6172C18.2033 20.5644 18.1889 20.5128 18.1649 20.4656C18.1409 20.4183 18.1078 20.3763 18.0674 20.342C18.027 20.3076 17.9802 20.2817 17.9297 20.2656C17.77 20.2365 17.6051 20.2612 17.4609 20.3359C17.4453 20.3438 17.4453 20.3594 17.4688 20.3672C17.5094 20.3798 17.5472 20.4003 17.5799 20.4276C17.6126 20.4549 17.6395 20.4885 17.6591 20.5262C17.6787 20.564 17.6907 20.6053 17.6942 20.6478C17.6977 20.6902 17.6928 20.7329 17.6797 20.7734C17.6406 20.8984 17.4766 21.0234 17.4219 21.1875C17.375 21.3203 17.4219 21.5469 17.375 21.6797ZM16.8906 21.7422C16.959 21.7643 17.0334 21.7587 17.0977 21.7266C17.1619 21.6944 17.211 21.6383 17.2344 21.5703C17.2414 21.553 17.244 21.5342 17.2422 21.5156V21.4844C17.2314 21.3688 17.242 21.2523 17.2734 21.1406C17.313 21.0324 17.3711 20.9319 17.4453 20.8438C17.4626 20.816 17.4782 20.7873 17.4922 20.7578C17.5031 20.7245 17.5073 20.6893 17.5046 20.6543C17.5018 20.6194 17.4922 20.5853 17.4762 20.554C17.4603 20.5228 17.4382 20.495 17.4115 20.4724C17.3847 20.4497 17.3537 20.4325 17.3203 20.4219C17.2848 20.4118 17.2475 20.4091 17.2109 20.4141C17.1949 20.4128 17.1788 20.4155 17.1641 20.4219C17.1641 20.4219 16.4297 20.6563 16.4062 20.6641C16.3954 20.6702 16.3866 20.6794 16.3811 20.6905C16.3755 20.7017 16.3734 20.7142 16.375 20.7266C16.3726 20.766 16.3674 20.8051 16.3594 20.8438C16.3491 20.8813 16.3304 20.916 16.3047 20.9453C16.2812 20.9688 16.2656 20.9922 16.2891 21.0156C16.3125 21.0391 16.625 21.4844 16.7344 21.625C16.7736 21.6788 16.828 21.7196 16.8906 21.7422ZM17.3281 19.6953C17.3631 19.719 17.3929 19.7497 17.4155 19.7853C17.4382 19.821 17.4533 19.861 17.4599 19.9027C17.4665 19.9445 17.4644 19.9871 17.4538 20.028C17.4433 20.069 17.4244 20.1073 17.3984 20.1406C17.3828 20.1563 17.3984 20.1797 17.4219 20.1719C17.5812 20.1497 17.7278 20.0723 17.8359 19.9531C17.8674 19.9106 17.8902 19.8623 17.9029 19.811C17.9157 19.7596 17.9181 19.7063 17.9101 19.654C17.9021 19.6017 17.8839 19.5515 17.8564 19.5063C17.8289 19.4611 17.7927 19.4218 17.75 19.3906C17.7381 19.3811 17.7249 19.3732 17.7109 19.3672C17.6938 19.3507 17.672 19.3398 17.6484 19.3359C17.4631 19.2847 17.2867 19.2056 17.125 19.1016C16.9986 19.0038 16.8903 18.8849 16.8047 18.75C16.7748 18.7053 16.7378 18.6657 16.6953 18.6328C16.6529 18.6012 16.6046 18.5783 16.5532 18.5655C16.5018 18.5527 16.4484 18.5502 16.3961 18.5582C16.3438 18.5662 16.2935 18.5845 16.2483 18.6121C16.2031 18.6396 16.1639 18.6759 16.1328 18.7188C16.0572 18.8598 16.0298 19.0216 16.0547 19.1797C16.0547 19.1953 16.0781 19.2031 16.0859 19.1797C16.1377 19.1116 16.2138 19.0663 16.2983 19.0532C16.3828 19.0401 16.4691 19.0602 16.5391 19.1094C16.6484 19.1875 16.7187 19.3828 16.8594 19.4766C16.9844 19.5938 17.2187 19.6172 17.3281 19.6953ZM17.2422 20.1797C17.2631 20.1511 17.2781 20.1186 17.2862 20.0842C17.2944 20.0497 17.2956 20.014 17.2898 19.979C17.284 19.9441 17.2712 19.9107 17.2523 19.8808C17.2334 19.8508 17.2087 19.825 17.1797 19.8047C17.1668 19.7907 17.1507 19.78 17.1328 19.7734C17.125 19.7734 17.1172 19.7656 17.1094 19.7656H17.1016C16.9872 19.7385 16.8787 19.6908 16.7812 19.625C16.6904 19.5569 16.6135 19.4721 16.5547 19.375C16.5361 19.3497 16.5152 19.3261 16.4922 19.3047C16.4636 19.2838 16.4311 19.2688 16.3967 19.2606C16.3622 19.2525 16.3265 19.2513 16.2915 19.2571C16.2566 19.2629 16.2232 19.2756 16.1933 19.2945C16.1633 19.3135 16.1375 19.3382 16.1172 19.3672C16.0938 19.3969 16.0778 19.4317 16.0703 19.4688C16.0703 19.4844 16.0625 19.5 16.0625 19.5156V20.3047C16.0625 20.3438 16.0937 20.3438 16.1172 20.3516C16.1524 20.3639 16.1865 20.3796 16.2188 20.3984C16.2486 20.4204 16.2749 20.4467 16.2969 20.4766C16.3125 20.5 16.3281 20.5234 16.3594 20.5078C16.3906 20.4922 16.9141 20.3281 17.0781 20.2734C17.143 20.2649 17.2019 20.2312 17.2422 20.1797V20.1797ZM15.4219 19.1328C15.492 19.0842 15.5781 19.0644 15.6625 19.0775C15.7468 19.0906 15.8229 19.1356 15.875 19.2031C15.8906 19.2188 15.9141 19.2188 15.9141 19.1953C15.939 19.0373 15.9115 18.8754 15.8359 18.7344C15.8049 18.6915 15.7656 18.6552 15.7204 18.6277C15.6752 18.6001 15.625 18.5818 15.5727 18.5738C15.5203 18.5658 15.4669 18.5683 15.4156 18.5811C15.3642 18.5939 15.3159 18.6168 15.2734 18.6484C15.2617 18.6543 15.2511 18.6622 15.2422 18.6719C15.2228 18.6833 15.2067 18.6994 15.1953 18.7188C15.0879 18.8789 14.9561 19.0212 14.8047 19.1406C14.6772 19.2343 14.5304 19.2984 14.375 19.3281C14.3249 19.3408 14.2774 19.362 14.2344 19.3906C14.1909 19.4212 14.154 19.4602 14.126 19.5054C14.098 19.5506 14.0794 19.601 14.0714 19.6535C14.0634 19.7061 14.0661 19.7597 14.0793 19.8112C14.0925 19.8627 14.1161 19.911 14.1484 19.9531C14.2578 20.0707 14.4037 20.1479 14.5625 20.1719C14.5781 20.1797 14.5859 20.1563 14.5781 20.1406C14.5293 20.0719 14.5093 19.9869 14.5224 19.9036C14.5356 19.8204 14.5808 19.7456 14.6484 19.6953C14.7578 19.6172 14.9609 19.6094 15.1016 19.5078C15.2109 19.4297 15.3125 19.2109 15.4219 19.1328V19.1328ZM15.8594 19.3672C15.8172 19.3101 15.7545 19.2716 15.6845 19.2599C15.6145 19.2483 15.5427 19.2643 15.4844 19.3047C15.4695 19.3126 15.4563 19.3232 15.4453 19.3359L15.4297 19.3516L15.4219 19.3594C15.3624 19.4606 15.2826 19.5484 15.1875 19.6172C15.0902 19.6781 14.9851 19.7254 14.875 19.7578C14.8444 19.766 14.8154 19.7792 14.7891 19.7969C14.7317 19.8388 14.693 19.9015 14.6813 19.9716C14.6696 20.0417 14.6859 20.1136 14.7266 20.1719C14.7494 20.2016 14.7788 20.2257 14.8125 20.2422C14.8281 20.25 14.8359 20.2578 14.8516 20.2578C14.8516 20.2578 15.5859 20.4922 15.6094 20.5C15.6218 20.5035 15.6351 20.5022 15.6467 20.4965C15.6582 20.4907 15.6672 20.4808 15.6719 20.4688C15.6955 20.438 15.7216 20.4093 15.75 20.3828C15.7806 20.3609 15.815 20.345 15.8516 20.3359C15.8828 20.3281 15.9062 20.3203 15.9062 20.2891V19.5391C15.9131 19.4779 15.8963 19.4164 15.8594 19.3672V19.3672ZM14.2969 20.7656C14.2706 20.6848 14.2772 20.5969 14.3152 20.5209C14.3532 20.4449 14.4196 20.3869 14.5 20.3594C14.5234 20.3516 14.5234 20.3281 14.5078 20.3203C14.3663 20.2461 14.2041 20.2214 14.0469 20.25C13.9964 20.2661 13.9496 20.292 13.9092 20.3263C13.8688 20.3607 13.8356 20.4027 13.8116 20.4499C13.7876 20.4972 13.7733 20.5487 13.7694 20.6016C13.7655 20.6545 13.7722 20.7076 13.7891 20.7578C13.7891 20.7734 13.7969 20.7813 13.8047 20.7969C13.8135 20.8185 13.824 20.8394 13.8359 20.8594C13.9575 21.0101 14.0551 21.1788 14.125 21.3594C14.1717 21.5109 14.1876 21.6703 14.1719 21.8281C14.1658 21.8807 14.1711 21.934 14.1875 21.9844C14.2207 22.0859 14.2928 22.1701 14.388 22.2184C14.4833 22.2668 14.5938 22.2753 14.6953 22.2422C14.8437 22.1953 14.9297 22.0703 15.0312 21.9141C15.033 21.9108 15.0337 21.907 15.0332 21.9033C15.0327 21.8996 15.031 21.8962 15.0283 21.8936C15.0257 21.8909 15.0222 21.8892 15.0185 21.8887C15.0149 21.8881 15.0111 21.8888 15.0078 21.8906C14.927 21.9169 14.8391 21.9103 14.7631 21.8723C14.6871 21.8343 14.6291 21.7679 14.6016 21.6875C14.5625 21.5625 14.6172 21.3672 14.5625 21.2031C14.5156 21.0547 14.3359 20.8906 14.2969 20.7656V20.7656ZM14.6484 20.4297C14.615 20.4403 14.584 20.4575 14.5573 20.4802C14.5305 20.5029 14.5085 20.5306 14.4925 20.5619C14.4765 20.5931 14.4669 20.6272 14.4642 20.6621C14.4614 20.6971 14.4656 20.7323 14.4766 20.7656C14.4771 20.7746 14.4795 20.7834 14.4835 20.7914C14.4876 20.7995 14.4932 20.8066 14.5 20.8125C14.5078 20.8203 14.5078 20.8281 14.5156 20.8281C14.5156 20.8292 14.5158 20.8302 14.5162 20.8311C14.5166 20.8321 14.5171 20.833 14.5179 20.8337C14.5186 20.8344 14.5195 20.835 14.5204 20.8354C14.5214 20.8358 14.5224 20.836 14.5234 20.8359C14.5988 20.9247 14.6595 21.0249 14.7031 21.1328C14.736 21.2416 14.7493 21.3553 14.7422 21.4688C14.7397 21.5008 14.7451 21.533 14.7578 21.5625C14.7685 21.5959 14.7856 21.6269 14.8083 21.6537C14.831 21.6804 14.8587 21.7024 14.89 21.7184C14.9212 21.7344 14.9553 21.744 14.9903 21.7468C15.0252 21.7495 15.0604 21.7453 15.0938 21.7344C15.1297 21.7258 15.1623 21.7068 15.1875 21.6797L15.2188 21.6484C15.2188 21.6484 15.6719 21.0313 15.6797 21.0078C15.7031 20.9766 15.6797 20.9531 15.6641 20.9375C15.6381 20.9084 15.6193 20.8736 15.6094 20.8359C15.6004 20.8001 15.5951 20.7635 15.5938 20.7266C15.5938 20.6953 15.5938 20.6719 15.5625 20.6641C15.5312 20.6562 15.0078 20.4844 14.8438 20.4297C14.7801 20.4101 14.7121 20.4101 14.6484 20.4297V20.4297Z" fill="#EE3124"/>
        <path d="M18.2344 12.4531L19.8828 11.8828C19.8029 12.2839 19.7688 12.6928 19.7813 13.1016C19.8209 13.5373 19.9745 13.9549 20.2266 14.3125L18.1953 15.0156L18.2344 12.4531Z" fill="#FFC758"/>
        <path d="M20.2266 14.3125C20.0046 13.9761 19.8604 13.5945 19.8047 13.1953C19.7688 12.7563 19.7951 12.3144 19.8828 11.8828C19.6948 12.6332 19.3245 13.3255 18.8047 13.8984C18.581 14.13 18.415 14.411 18.3203 14.7187L18.2891 10.8359C18.2891 10.8359 17.8985 10.9766 17.8594 10.9844C17.8445 10.988 17.8305 10.9947 17.8183 11.0041C17.8062 11.0135 17.7962 11.0255 17.7891 11.0391C17.7891 11.0625 17.7735 11.0781 17.7422 11.0859C17.711 11.0937 17.4844 11.1797 17.3281 11.2266C17.3233 11.227 17.3187 11.2292 17.3154 11.2329C17.3121 11.2365 17.3103 11.2412 17.3103 11.2461C17.3103 11.251 17.3121 11.2557 17.3154 11.2593C17.3187 11.2629 17.3233 11.2652 17.3281 11.2656C17.5156 11.2578 17.7813 11.2344 17.8047 11.2344C17.8438 11.2266 17.8594 11.2109 17.8594 11.1875V11.1797C17.862 11.1648 17.8697 11.1513 17.881 11.1413C17.8924 11.1314 17.9068 11.1256 17.9219 11.125C17.9453 11.125 18.086 11.1094 18.1719 11.0937L18.1328 15.2734H18.3203V14.9766L20.2266 14.3125Z" fill="#D4A11E"/>
        <path d="M12.9219 15.125C12.7208 14.9571 12.583 14.7256 12.5313 14.4688C12.5021 14.3514 12.4988 14.2291 12.5217 14.1103C12.5447 13.9916 12.5933 13.8793 12.6641 13.7812L14.6641 13.0938C14.5896 13.3724 14.5869 13.6654 14.6563 13.9453C14.7458 14.2888 14.8996 14.6122 15.1094 14.8984C14.6322 14.8155 14.1457 14.7997 13.6641 14.8516C12.9922 14.9375 12.9219 15.125 12.9219 15.125Z" fill="#FFC758"/>
        <path d="M10.625 14.625C10.8558 14.0925 11.1874 13.6097 11.6016 13.2031C11.8646 12.9127 12.1734 12.6673 12.5156 12.4766C12.2854 12.8488 12.1314 13.2631 12.0625 13.6953C12.015 14.0481 12.0176 14.4058 12.0703 14.7578C12.0703 14.7578 11.6953 14.6797 11.2656 14.6328C11.0529 14.6091 10.8383 14.6065 10.625 14.625V14.625Z" fill="#FFC758"/>
        <path d="M12.5156 12.4766C12.2901 12.8503 12.1389 13.2642 12.0703 13.6953C12.0228 14.0481 12.0254 14.4058 12.0781 14.7578C12.0781 14.7578 11.9844 14.7344 11.7656 14.6875C10.875 14.4844 12.5156 12.4766 12.5156 12.4766Z" fill="#D4A11E"/>
        <path d="M13.6875 13.0234L13.6719 11.2266C13.6328 11.2422 13.2813 11.3594 13.2422 11.375C13.1953 11.3906 13.1719 11.4219 13.1719 11.4375C13.1719 11.4609 13.1563 11.4766 13.125 11.4844C13.0938 11.4922 12.8672 11.5703 12.711 11.625C12.7061 11.6254 12.7015 11.6277 12.6982 11.6313C12.6949 11.6349 12.6931 11.6396 12.6931 11.6445C12.6931 11.6494 12.6949 11.6541 12.6982 11.6578C12.7015 11.6614 12.7061 11.6636 12.711 11.6641C12.8906 11.6563 13.1641 11.6328 13.1875 11.6328C13.2266 11.625 13.2422 11.6094 13.25 11.5859V11.5781C13.2526 11.5633 13.2603 11.5497 13.2716 11.5398C13.283 11.5298 13.2974 11.5241 13.3125 11.5234C13.336 11.5234 13.4688 11.5078 13.5625 11.5L13.5469 13.0313H13.6875V13.0234Z" fill="#D4A11E"/>
        <path d="M16.0156 11.3984H16.1563V9.67187C16.1563 9.67187 15.7657 9.8125 15.7266 9.82031C15.7116 9.82389 15.6976 9.83063 15.6855 9.84006C15.6734 9.84949 15.6634 9.8614 15.6563 9.875C15.6563 9.89844 15.6406 9.91406 15.6094 9.92187C15.5782 9.92969 15.3516 10.0078 15.1953 10.0625C15.1905 10.0629 15.1859 10.0652 15.1826 10.0688C15.1793 10.0724 15.1775 10.0771 15.1775 10.082C15.1775 10.0869 15.1793 10.0916 15.1826 10.0953C15.1859 10.0989 15.1905 10.1011 15.1953 10.1016C15.3828 10.0937 15.6485 10.0703 15.6719 10.0703C15.711 10.0625 15.7266 10.0469 15.7344 10.0234C15.737 10.0086 15.7447 9.99504 15.756 9.98509C15.7674 9.97515 15.7818 9.96938 15.7969 9.96875C15.8203 9.96875 15.9453 9.95312 16.0391 9.94531L16.0156 11.3984Z" fill="#D4A11E"/>
        <path d="M15.6641 10.0781H15.6719C15.7109 10.0703 15.7266 10.0547 15.7266 10.0312C15.7269 10.0202 15.7309 10.0096 15.738 10.0011C15.7451 9.99258 15.7548 9.9867 15.7656 9.98437L15.7187 9.83594C15.6719 9.85156 15.6562 9.88281 15.6562 9.89062C15.6562 9.91406 15.6406 9.92187 15.6172 9.92969L15.6641 10.0781Z" fill="#FFC758"/>
        <path d="M13.1797 11.625H13.1875C13.2266 11.6172 13.2422 11.6016 13.2422 11.5781C13.25 11.5547 13.2578 11.5391 13.2813 11.5313L13.2344 11.3828C13.1875 11.3984 13.1719 11.4297 13.1719 11.4375C13.1719 11.4609 13.1563 11.4688 13.1328 11.4766L13.1797 11.625Z" fill="#FFC758"/>
        <path d="M17.7891 11.2344H17.7969C17.8359 11.2266 17.8516 11.2109 17.8516 11.1875C17.8594 11.1641 17.8672 11.1484 17.8906 11.1406L17.8437 10.9922C17.7969 11.0078 17.7812 11.0391 17.7812 11.0469C17.7812 11.0703 17.7656 11.0781 17.7422 11.0859L17.7891 11.2344Z" fill="#FFC758"/>
        <path d="M15.1093 14.8984C14.9123 14.6002 14.7621 14.2735 14.664 13.9297C14.5999 13.6547 14.5999 13.3687 14.664 13.0938C14.5315 13.5295 14.283 13.921 13.9453 14.2266C13.5937 14.5078 12.7265 14.7656 12.9297 15.125C12.9609 15.0781 13.0468 14.9844 13.3984 14.8984C13.4375 14.8906 13.4844 14.8828 13.5312 14.875V15.4688H13.7187V14.8516C14.1826 14.8148 14.649 14.8305 15.1093 14.8984V14.8984Z" fill="#D4A11E"/>
        <path d="M12.7109 13.6562C12.7109 13.6562 12.4766 13.5156 12.5078 13.0625C12.5165 12.81 12.6101 12.5678 12.7734 12.375L14.3281 11.8438C14.2534 12.0303 14.2424 12.2363 14.2969 12.4297C14.3527 12.6818 14.4802 12.9124 14.6641 13.0938C14.16 13.1073 13.6604 13.1914 13.1797 13.3438C12.9945 13.396 12.8304 13.5054 12.7109 13.6562V13.6562Z" fill="#FFC758"/>
        <path d="M13.6328 12.6797C13.9106 12.4448 14.1435 12.1616 14.3203 11.8438C14.2842 12.0291 14.2789 12.2192 14.3047 12.4062C14.3485 12.6661 14.4713 12.9061 14.6562 13.0938C14.2122 13.109 13.7716 13.1772 13.3437 13.2969C13.0945 13.3363 12.8689 13.4672 12.7109 13.6641C12.5625 13.3203 13.1797 13.0547 13.6328 12.6797Z" fill="#D4A11E"/>
        <path d="M15.4063 15.2422C15.1255 15.0076 14.9372 14.6809 14.875 14.3203C14.8528 14.1748 14.8622 14.0261 14.9027 13.8846C14.9431 13.743 15.0136 13.6118 15.1094 13.5L17.5391 12.6641C17.4623 13.0112 17.4596 13.3706 17.5313 13.7188C17.6852 14.1839 17.912 14.6216 18.2031 15.0156C17.5905 14.8481 16.9536 14.7873 16.3203 14.8359C15.4844 14.9453 15.4063 15.2422 15.4063 15.2422Z" fill="#FFC758"/>
        <path d="M14.9141 11.3906C14.9196 11.1426 15.0076 10.9035 15.1641 10.7109L16.9063 10.1016C16.8394 10.2621 16.81 10.4358 16.8203 10.6094C16.8454 10.863 16.9523 11.1016 17.125 11.2891C16.6172 11.2805 16.1119 11.3625 15.6328 11.5313C15.1875 11.6875 15.1406 11.8984 15.1406 11.8984C15.1406 11.8984 14.9297 11.8438 14.9141 11.3906Z" fill="#FFC758"/>
        <path d="M16.2891 10.9219C16.5304 10.68 16.738 10.4067 16.9063 10.1094C16.8394 10.2699 16.81 10.4436 16.8203 10.6172C16.8454 10.8708 16.9524 11.1094 17.125 11.2969C16.6311 11.3026 16.141 11.3842 15.6719 11.5391C15.4574 11.5912 15.2705 11.7223 15.1485 11.9063C15.0469 11.5625 15.8594 11.2969 16.2891 10.9219Z" fill="#D4A11E"/>
        <path d="M15.1641 13.3984C14.9976 13.1837 14.8947 12.9266 14.8672 12.6563C14.8433 12.5321 14.8539 12.4038 14.898 12.2853C14.9421 12.1668 15.0179 12.0627 15.1172 11.9844L17.1328 11.2891C17.0928 11.4715 17.0901 11.6602 17.125 11.8438C17.2005 12.1362 17.3304 12.4118 17.5078 12.6563C16.9167 12.6735 16.3306 12.7707 15.7656 12.9453C15.5243 13.0328 15.3148 13.1906 15.1641 13.3984Z" fill="#FFC758"/>
        <path d="M16.5 12.2344C16.7812 11.9755 16.9979 11.6545 17.1328 11.2969C17.1022 11.4858 17.1022 11.6783 17.1328 11.8672C17.2132 12.1613 17.3543 12.4354 17.5469 12.6719C16.9997 12.6842 16.4564 12.7655 15.9297 12.9141C15.6337 12.9991 15.3699 13.1705 15.1719 13.4063C15.0703 13.0234 16.0625 12.6094 16.5 12.2344Z" fill="#D4A11E"/>
        <path d="M18.2422 15.0547C17.9341 14.651 17.694 14.1998 17.5313 13.7187C17.4643 13.3727 17.467 13.0168 17.5391 12.6719C17.3947 13.2117 17.112 13.7045 16.7188 14.1016C16.2031 14.5781 15.1875 14.8047 15.4063 15.25C15.4453 15.1797 15.5625 15.0078 15.9766 14.9062L15.9688 15.4766H16.1641V14.8672C16.8624 14.8071 17.5659 14.8705 18.2422 15.0547V15.0547Z" fill="#D4A11E"/>
        <path d="M19.1797 16.3906C19.3047 16.3672 19.4297 16.3359 19.6172 16.2891C19.6094 16.2813 19.5937 16.2734 19.5859 16.2656C19.5442 16.2304 19.5098 16.1872 19.4848 16.1386C19.4599 16.09 19.4447 16.0369 19.4404 15.9824C19.436 15.928 19.4425 15.8731 19.4594 15.8212C19.4764 15.7692 19.5034 15.7211 19.5391 15.6797C19.9922 15.2578 19.9844 14.9453 19.9844 14.9453C19.1406 15.1039 18.2871 15.2057 17.4297 15.25C17.3359 15.2578 17 15.4063 16.8984 15.4063C16.6953 15.4141 16.4922 15.4219 16.2812 15.4219C14.8043 15.4906 13.3245 15.3778 11.875 15.0859C11.4264 15.0152 10.9864 14.8973 10.5625 14.7344L10.5312 14.8281C10.5312 14.8281 11.25 15.1094 11.7656 15.3594C12.0212 15.6414 12.2488 15.9475 12.4453 16.2734H9.1875C9.08269 13.9968 9.26379 11.716 9.72656 9.48437C11.7857 9.10972 13.8759 8.93184 15.9687 8.95312V8.55469C13.7476 8.53242 11.5293 8.72076 9.34375 9.11719C8.62434 12.0391 8.43907 15.0669 8.79688 18.0547C9.05469 20.0781 10.7266 23.8672 15.9531 25.625L16.1797 25.3047L15.9531 24.9844C11.0312 23.3359 9.59375 20 9.34375 18.1016C9.28906 17.6797 9.25 17.2578 9.21875 16.8516H15.9766V16.2813H12.5078C12.5859 16.0313 12.8281 15.9688 13.1328 16.0391C13.4317 16.1304 13.7422 16.1777 14.0547 16.1797C14.7969 16.1406 14.6875 15.9453 14.7578 15.9453C15.5234 15.9922 15.8125 16.1797 16.4766 16.1641C16.7771 16.169 17.0752 16.1104 17.3516 15.9922C18.0937 15.9844 18.375 16.3281 19.1172 16.3906H19.1797Z" fill="#FFC758"/>
        <path d="M22.5859 9.11719C20.403 8.72039 18.1873 8.53204 15.9687 8.55469V8.95312C18.059 8.93146 20.1466 9.10935 22.2031 9.48437C22.6705 11.7153 22.8516 13.9967 22.7422 16.2734H19.4766C19.389 16.188 19.3377 16.0722 19.3334 15.95C19.329 15.8278 19.3719 15.7086 19.4531 15.6172C19.8359 15.2734 19.8359 15.0391 19.8359 15.0391C19.0674 15.2031 18.2855 15.2972 17.5 15.3203C17.4062 15.3203 17 15.5078 16.8984 15.5078C16.6953 15.5156 16.4141 15.5234 16.2031 15.5234C14.7057 15.5793 13.2071 15.4481 11.7422 15.1328C11.7701 15.1652 11.7962 15.1991 11.8203 15.2344C11.8281 15.25 12.5391 15.4297 12.5469 15.4453C12.6598 15.5902 12.804 15.7077 12.9687 15.7891C13.2737 15.9434 13.605 16.0388 13.9453 16.0703C14.6875 16.1172 14.5469 15.8359 14.6172 15.8359C15.375 15.8203 15.8672 16.0937 16.5312 16.0859C17.1406 16.0781 17.1562 15.8828 17.2187 15.8828C17.8162 15.9095 18.4039 16.0445 18.9531 16.2812H15.9687V16.8516H22.7031C22.6719 17.2656 22.6328 17.6797 22.5781 18.1016C22.3281 20.0078 20.8906 23.3359 15.9687 24.9844V25.625C21.1953 23.8672 22.875 20.0859 23.125 18.0547C23.4876 15.0674 23.3049 12.0392 22.5859 9.11719Z" fill="#D4A11E"/>
        <path d="M3.76599 10.875L4.03899 10.352L5.27299 10.266L4.64799 9.195L4.92199 8.68L7.11699 9.836L6.86699 10.312L5.42999 9.562L6.04699 10.672L6.03899 10.68L4.78899 10.805L6.21099 11.555L5.96099 12.031L3.76599 10.875Z" fill="#00285E"/>
        <path d="M6.27344 6.96875L6.61719 6.60156L9.16406 7.53906L8.77344 7.95313L8.21094 7.73437L7.49219 8.5L7.74219 9.04688L7.35938 9.45312L6.27344 6.96875ZM7.73437 7.55469L6.92187 7.24219L7.28125 8.03125L7.73437 7.55469Z" fill="#00285E"/>
        <path d="M8.242 5.164L8.672 4.906L10.461 5.609L9.672 4.305L10.133 4.023L11.414 6.141L11.016 6.383L9.172 5.656L9.992 7.008L9.531 7.289L8.242 5.164Z" fill="#00285E"/>
        <path d="M11.5781 4.73437C11.5267 4.57131 11.5089 4.3995 11.5258 4.22936C11.5427 4.05921 11.594 3.89427 11.6765 3.74453C11.7591 3.59479 11.8712 3.46336 12.006 3.35821C12.1408 3.25306 12.2956 3.17638 12.4609 3.13281C12.6323 3.0743 12.814 3.05241 12.9943 3.06856C13.1747 3.08471 13.3496 3.13854 13.5078 3.22656L13.2812 3.71094C13.1787 3.65027 13.065 3.61072 12.947 3.59462C12.8289 3.57852 12.7088 3.5862 12.5937 3.61719C12.4997 3.64698 12.4126 3.69526 12.3375 3.7592C12.2624 3.82314 12.2008 3.90145 12.1564 3.98952C12.112 4.07759 12.0857 4.17365 12.079 4.27205C12.0722 4.37044 12.0852 4.4692 12.1172 4.5625V4.57031C12.1394 4.66652 12.1807 4.75728 12.2386 4.83722C12.2966 4.91715 12.37 4.98463 12.4545 5.03564C12.539 5.08665 12.633 5.12015 12.7307 5.13416C12.8284 5.14817 12.928 5.1424 13.0234 5.11719C13.1414 5.08215 13.2509 5.02313 13.345 4.94381C13.4391 4.86449 13.5158 4.7666 13.5703 4.65625L14 4.89844C13.9205 5.07325 13.8027 5.22792 13.6553 5.35099C13.5078 5.47406 13.3346 5.56237 13.1484 5.60937C12.9879 5.65856 12.8191 5.67479 12.6521 5.65711C12.4852 5.63942 12.3235 5.58818 12.1768 5.50646C12.0302 5.42473 11.9015 5.31422 11.7987 5.18154C11.6958 5.04886 11.6208 4.89676 11.5781 4.73437V4.73437Z" fill="#00285E"/>
        <path d="M14.555 2.742L15.094 2.727L15.125 3.711L16.125 3.688L16.102 2.703L16.648 2.688L16.711 5.172L16.164 5.188L16.141 4.187L15.133 4.219L15.164 5.211L14.617 5.227L14.555 2.742Z" fill="#00285E"/>
        <path d="M19.8594 5.50781L20.3125 5.28906C20.4183 5.54386 20.6125 5.75192 20.8594 5.875C21.0625 5.96875 21.2188 5.94531 21.2813 5.8125V5.80469C21.3438 5.67969 21.2891 5.57812 20.9609 5.3125C20.5625 4.98437 20.3281 4.72656 20.5313 4.28125V4.27344C20.5797 4.17731 20.6475 4.09229 20.7305 4.02375C20.8135 3.95521 20.9099 3.90466 21.0134 3.87528C21.117 3.8459 21.2255 3.83835 21.3321 3.85309C21.4387 3.86784 21.5411 3.90456 21.6328 3.96094C21.9397 4.09411 22.189 4.33233 22.3359 4.63281L21.9063 4.89062C21.8 4.68011 21.6307 4.50804 21.4219 4.39844C21.2344 4.3125 21.0938 4.35156 21.0391 4.46094V4.46875C20.9688 4.61719 21.0469 4.71094 21.3906 4.99219C21.7891 5.32031 21.9766 5.60937 21.7891 6V6.00781C21.7399 6.10928 21.6697 6.19914 21.5832 6.27142C21.4966 6.3437 21.3957 6.39674 21.2871 6.42704C21.1785 6.45733 21.0647 6.46418 20.9532 6.44712C20.8418 6.43007 20.7352 6.3895 20.6406 6.32812C20.2957 6.14983 20.0206 5.86098 19.8594 5.50781V5.50781Z" fill="#00285E"/>
        <path d="M23.484 5.656L22.883 5.195L23.187 4.797L24.82 6.039L24.516 6.445L23.914 5.984L22.719 7.555L22.281 7.227L23.484 5.656Z" fill="#00285E"/>
        <path d="M27.4063 9.17969L27.9141 10.1953C28.0468 10.4245 28.0834 10.697 28.0156 10.9531C27.9795 11.051 27.9243 11.1408 27.8532 11.2172C27.7821 11.2937 27.6966 11.3553 27.6016 11.3984H27.5938C27.4458 11.4819 27.2745 11.5142 27.1063 11.4902C26.9382 11.4661 26.7827 11.3872 26.6641 11.2656L26.1406 12.2031L25.8516 11.6328L26.3203 10.7969L26.125 10.4141L25.4141 10.7734L25.1719 10.2891L27.4063 9.17969ZM26.8203 10.7031C26.8358 10.7525 26.8617 10.7979 26.8962 10.8364C26.9308 10.8749 26.9732 10.9055 27.0205 10.9263C27.0679 10.947 27.1192 10.9573 27.1709 10.9566C27.2226 10.9558 27.2736 10.944 27.3203 10.9219H27.3281C27.5391 10.8203 27.5703 10.6172 27.4531 10.3828L27.2109 9.89844L26.5781 10.2187L26.8203 10.7031Z" fill="#00285E"/>
        <path d="M18.203 4.406L19.117 4.602L19.375 4.164L18.312 3.93L18.414 3.437L19.711 3.719L19.82 3.25L17.984 2.852L17.461 5.273L19.312 5.68L19.414 5.203L18.094 4.914L18.203 4.406Z" fill="#00285E"/>
        <path d="M25.57 6.781L23.664 8.375L24.883 9.82L25.25 9.508L24.391 8.477L24.789 8.141L25.398 8.867L25.891 8.703L25.164 7.828L25.547 7.508L26.398 8.523L26.773 8.211L25.57 6.781Z" fill="#00285E"/>
        <path d="M11.789 27.9375C11.785 27.7634 11.8165 27.5903 11.8815 27.4287C11.9465 27.2671 12.0438 27.1205 12.1673 26.9977C12.2908 26.8749 12.438 26.7785 12.6 26.7144C12.7619 26.6504 12.9353 26.6199 13.1093 26.625C13.2942 26.6159 13.4788 26.6461 13.6511 26.7134C13.8235 26.7807 13.9796 26.8837 14.1093 27.0156L13.7578 27.4219C13.6738 27.3343 13.5732 27.2643 13.4619 27.216C13.3505 27.1677 13.2307 27.1421 13.1093 27.1406C13.0087 27.1422 12.9094 27.164 12.8173 27.2049C12.7253 27.2458 12.6425 27.3049 12.574 27.3786C12.5054 27.4523 12.4524 27.5391 12.4182 27.6338C12.384 27.7285 12.3693 27.8292 12.375 27.9297V27.9375C12.3691 28.0385 12.3837 28.1395 12.4177 28.2348C12.4517 28.33 12.5046 28.4174 12.5731 28.4917C12.6416 28.5661 12.7244 28.6259 12.8166 28.6676C12.9087 28.7093 13.0083 28.732 13.1093 28.7344C13.2345 28.7332 13.3581 28.7063 13.4724 28.6552C13.5866 28.6041 13.6891 28.53 13.7734 28.4375L14.125 28.7969C13.9982 28.9472 13.8386 29.0662 13.6584 29.1448C13.4782 29.2234 13.2823 29.2594 13.0859 29.25C12.9145 29.2494 12.7449 29.2148 12.5868 29.1485C12.4287 29.0821 12.2853 28.9851 12.1648 28.8632C12.0443 28.7412 11.9491 28.5967 11.8846 28.4378C11.8201 28.279 11.7876 28.1089 11.789 27.9375V27.9375Z" fill="#00285E"/>
        <path d="M14.6641 26.6641H15.2188V29.1875H14.6641V26.6641Z" fill="#00285E"/>
        <path d="M16.5078 27.1797H15.7422V26.6641H17.8359V27.1797H17.0703V29.1953H16.5156V27.1797H16.5078Z" fill="#00285E"/>
        <path d="M19.0391 28.1953L18.0703 26.6641H18.7188L19.3203 27.6797L19.9297 26.6641H20.5625L19.5938 28.1797V29.1875H19.0391V28.1953Z" fill="#00285E"/>
    </g>
    <defs>
        <clipPath id="clip0_1015_432">
            <rect width="32" height="32" fill="white"/>
        </clipPath>
    </defs>
</svg>
