<svg width="32" height="32" viewBox="0 0 32 32" fill="none" xmlns="http://www.w3.org/2000/svg">
    <path d="M15.9133 0C7.09253 0 0.0795437 7.10649 0.00162162 15.7558C-0.060716 24.6857 7.15487 31.7299 15.8042 31.7922C24.3912 31.8545 31.7627 24.9506 31.8094 15.9117C31.7938 7.09091 24.7029 0 15.9133 0ZM15.8821 29.1429C8.69773 29.1429 2.66656 23.3455 2.65097 15.8961C2.68214 8.47792 8.68214 2.63377 15.9289 2.64935C23.3315 2.66494 29.1756 8.71169 29.1601 15.9429C29.1445 23.174 23.2536 29.1584 15.8821 29.1429Z" fill="#F04E25"/>
    <path d="M26.9772 12.1264C25.372 7.3887 20.8213 4.05364 15.5538 4.22507C10.3954 4.38091 6.04732 7.8874 4.67589 12.6718C3.35122 17.2848 5.0655 21.8043 7.76161 24.2666C8.02654 23.9549 8.27589 23.6277 8.55641 23.3316C8.83693 23.0199 9.14862 22.7394 9.46031 22.4432C8.29148 21.2588 7.4655 19.8718 7.04472 18.251C6.62394 16.6458 6.63953 15.0407 7.09148 13.4355C7.54342 11.8303 8.38498 10.4432 9.58498 9.29C12.9824 6.03286 18.3902 5.8926 21.9123 8.9939C23.8136 10.6614 24.8889 12.7653 25.0447 15.29C25.2317 18.1419 24.2343 20.5575 22.2084 22.5679C22.8473 23.1134 23.3928 23.7368 23.8759 24.4381C26.9616 21.6329 28.5668 16.8173 26.9772 12.1264Z" fill="#F04E25"/>
    <path d="M22.8787 14.2948C22.0371 10.4766 18.2813 8.09219 14.4475 8.887C10.8163 9.63505 8.32281 13.126 8.80592 16.8195C9.03969 18.5338 9.78774 19.9831 11.0657 21.1675C11.1124 21.2143 11.1592 21.2454 11.2215 21.2922C11.9851 20.9026 12.7644 20.6065 13.6371 20.4039C13.528 20.3415 13.4813 20.3104 13.4189 20.2792C11.5955 19.235 10.6137 17.1935 10.941 15.1052C11.3774 12.3 14.089 10.4143 16.9098 10.9597C19.7306 11.5208 21.5228 14.3571 20.8059 17.1312C20.4475 18.5338 19.6059 19.5935 18.3436 20.3104C18.2813 20.3415 18.2033 20.3571 18.1722 20.435C18.2033 20.4506 18.2033 20.4506 18.2189 20.4506C18.9825 20.6532 19.715 20.9182 20.4007 21.3078C20.5254 21.3701 20.5877 21.3234 20.6657 21.2454C22.6916 19.3441 23.4709 17.0221 22.8787 14.2948Z" fill="#F04E25"/>
</svg>
