<svg width="32" height="32" viewBox="0 0 32 32" fill="none" xmlns="http://www.w3.org/2000/svg">
    <path d="M16 32C24.8 32 32 24.8 32 16C32 7.2 24.8 0 16 0C7.2 0 0 7.2 0 16C0 24.8 7.2 32 16 32Z" fill="#06E694"/>
    <path fill-rule="evenodd" clip-rule="evenodd" d="M20 16C22.2222 16 24 14.2222 24 12C24 9.77778 22.2222 8 20 8C17.7778 8 16 9.77778 16 12C16 9.77778 14.2222 8 12 8C9.77778 8 8 9.77778 8 12C8 14.2222 9.77778 16 12 16C9.77778 16 8 17.7778 8 20C8 22.2222 9.77778 24 12 24C14.2222 24 16 22.2222 16 20C16 17.7778 14.2222 16 12 16C14.2222 16 16 14.2222 16 12C16 14.2222 17.7778 16 20 16Z" fill="white"/>
    <path d="M20 24C22.2222 24 24 22.2222 24 20C24 17.7778 22.2222 16 20 16C17.7778 16 16 17.7778 16 20C16 22.2222 17.7778 24 20 24Z" fill="white"/>
</svg>
