<svg width="32" height="32" viewBox="0 0 32 32" fill="none" xmlns="http://www.w3.org/2000/svg">
    <path d="M16 32C24.8366 32 32 24.8366 32 16C32 7.16344 24.8366 0 16 0C7.16344 0 0 7.16344 0 16C0 24.8366 7.16344 32 16 32Z" fill="white"/>
    <path d="M6.93159 14.939V15.5518C6.90415 20.3354 8.31269 23.1616 9.52915 24.7164L11.7792 24.0944L12.8859 23.7926L12.7212 23.5548L6.93159 14.939ZM19.2334 22.0457L19.27 21.9177L22.206 11.9573C20.4392 8.87964 17.9967 6.24326 15.0627 4.247L14.6694 4L19.0414 22.1006L19.2334 22.0457Z" fill="#8F8E8A"/>
    <path d="M18.6846 22.7134L13.6816 24.0945L15.2365 26.4177L16.2974 28C16.7064 27.9803 17.1132 27.9283 17.5139 27.8445L18.6389 24.0213L18.831 23.372L18.6846 22.7134ZM9.88586 25.1372C10.4273 25.7657 11.0742 26.2949 11.7974 26.7012C12.9609 27.4857 14.3192 27.9322 15.7212 27.9908L13.1877 24.2225L12.3279 24.4604L9.88586 25.1372Z" fill="#413B38"/>
    <path d="M18.5658 22.2287L14.6145 5.875L14.2029 6.21341C11.1242 8.58794 8.95696 11.9502 8.06575 15.7347L13.3889 23.6555L18.5658 22.2287Z" fill="#77CBEC"/>
    <path d="M24.0078 20.7287C24.5633 17.7495 24.2522 14.6735 23.1115 11.8659L22.9194 11.3445L20.1481 20.7104L19.8005 21.8811L23.2121 20.939L24.0078 20.7287Z" fill="#5E5957"/>
    <path d="M19.3615 23.3811L19.7914 25.1738L20.1755 26.7744C22.2027 25.4218 23.8244 23.544 24.8676 21.3415L25.0688 20.9573L23.9621 21.2683V21.2592L20.9987 22.0732L19.6267 22.4482L19.3615 23.3811ZM18.4377 27.5884C18.8837 27.4461 19.3155 27.2623 19.7273 27.0396L19.3066 25.2744L19.0779 24.3323L18.8035 25.2744L18.0901 27.6982C18.1999 27.6616 18.3188 27.625 18.4377 27.5884Z" fill="#413B38"/>
</svg>
