<svg width="32" height="32" viewBox="0 0 32 32" fill="none" xmlns="http://www.w3.org/2000/svg">
    <g clip-path="url(#clip0)">
        <path d="M15.9936 32.0128C24.832 32.0128 32 24.8448 32 16.0064C32 7.16799 24.832 0.00639343 15.9936 0.00639343C7.15521 0.00639343 -0.0127869 7.16799 -0.0127869 16.0128C-0.0127869 24.8512 7.15521 32.0128 15.9936 32.0128Z" fill="#070A0E"/>
        <path fill-rule="evenodd" clip-rule="evenodd" d="M9.2352 21.376C8.7552 21.0816 8.4608 20.5632 8.4608 20V16.8704C8.4608 16.7488 8.4928 16.6336 8.5504 16.5312C8.736 16.2112 9.152 16.1024 9.472 16.288L16.5312 20.4032C16.9408 20.6464 17.1968 21.088 17.1968 21.5616V24.8C17.1968 24.9472 17.1584 25.0944 17.0816 25.2224C16.8512 25.6 16.352 25.7216 15.9744 25.4912L9.2352 21.376ZM19.7568 15.4368C20.1664 15.68 20.4224 16.1216 20.4224 16.5952V23.168C20.4224 23.36 20.32 23.5392 20.1472 23.6352L18.6048 24.512C18.5856 24.5248 18.5664 24.5312 18.5408 24.5376V20.8896C18.5408 20.416 18.2912 19.9808 17.888 19.7376L11.6928 16.032V11.904C11.6928 11.7824 11.7248 11.6672 11.7824 11.5648C11.968 11.2448 12.384 11.136 12.704 11.3216L19.7568 15.4368ZM22.8416 10.5856C23.2576 10.8224 23.5136 11.2704 23.5136 11.7504V21.3504C23.5136 21.5488 23.4048 21.728 23.232 21.824L21.7664 22.6176V15.9296C21.7664 15.456 21.5168 15.0208 21.1136 14.7776L14.7776 10.976V7.06557C14.7776 6.94397 14.8096 6.82877 14.8672 6.72637C15.0528 6.40637 15.4688 6.29757 15.7888 6.48317L22.8416 10.5856Z" fill="#00D395"/>
    </g>
    <defs>
        <clipPath id="clip0">
            <rect width="32" height="32" fill="white"/>
        </clipPath>
    </defs>
</svg>
