<svg width="33" height="32" viewBox="0 0 33 32" fill="none" xmlns="http://www.w3.org/2000/svg">
    <path d="M15.9984 0C24.8327 0 31.9968 7.16408 31.9968 15.9984C31.9968 24.8327 24.8327 31.9968 15.9984 31.9968C7.16408 31.9968 0 24.8327 0 15.9984C0 7.16408 7.16408 0 15.9984 0Z" fill="#6A7AFF"/>
    <path d="M16.2127 25.2487C16.0719 25.2871 15.9215 25.2871 15.7807 25.2487C13.9601 24.7592 12.5299 23.8792 11.41 22.7818H14.8464C15.1824 22.7818 15.4544 22.5098 15.4544 22.1738C15.4544 21.8378 15.1824 21.5659 14.8464 21.5659H10.3509C9.89972 20.9579 9.51576 20.3116 9.18939 19.6461H13.3106C13.6465 19.6461 13.9185 19.3741 13.9185 19.0381C13.9185 18.7022 13.6465 18.4302 13.3106 18.4302H8.66144C8.37987 17.6943 8.15909 16.9487 7.98631 16.2224H15.7743C16.1103 16.2224 16.3823 15.9504 16.3823 15.6145C16.3823 15.2785 16.1103 15.0065 15.7743 15.0065H7.73674C7.59915 14.2162 7.51276 13.4675 7.46156 12.7988H13.3106C13.6465 12.7988 13.9185 12.5268 13.9185 12.1908C13.9185 11.8548 13.6465 11.5829 13.3106 11.5829H7.40077C7.39117 11.2245 7.39117 10.9109 7.39437 10.6518C7.40077 10.2166 7.73354 9.85825 8.16549 9.81985C11.7587 9.48388 14.6928 7.56407 15.6591 6.86014C15.8607 6.71296 16.1359 6.71296 16.3375 6.86014C17.3038 7.56407 20.2379 9.48388 23.8311 9.81985C24.2631 9.85825 24.5991 10.2198 24.6022 10.6518C24.6438 13.4867 24.1895 23.1113 16.2127 25.2487Z" fill="white"/>
</svg>
