<svg width="32" height="32" viewBox="0 0 32 32" fill="none" xmlns="http://www.w3.org/2000/svg">
    <circle cx="16" cy="16" r="16" fill="#836946"/>
    <path fill-rule="evenodd" clip-rule="evenodd" d="M15.9898 6.66895L21.8882 8.61543C22.0858 8.67956 22.1985 8.90836 22.1395 9.12502C22.0789 9.34168 21.8709 9.46301 21.6715 9.39888L15.9898 7.52346L10.3254 9.39888C10.1278 9.46301 9.91811 9.34168 9.85745 9.12502C9.79851 8.90836 9.90944 8.67956 10.1088 8.61543L15.9898 6.66895ZM8.11029 11.1876C8.04096 12.4269 8.05136 14.4168 8.56094 16.6284C9.29239 19.8211 11.0569 23.4819 15.1076 26.0385L11.0811 17.5141L8.11029 11.1876V11.1876ZM16.8755 26.0367C20.9262 23.4801 22.6925 19.8211 23.4274 16.6284C23.9387 14.4185 23.9543 12.4304 23.885 11.1911L20.9158 17.5159L16.8755 26.0367V26.0367ZM15.9916 26.1234L19.9677 17.7377H12.0293L15.9916 26.1217V26.1234ZM11.641 16.9196L8.22642 9.6398C8.15189 9.48207 8.00109 9.39714 7.85203 9.40928C7.69083 9.42314 7.5331 9.55141 7.50017 9.75767C7.43777 10.1494 7.00098 13.2 7.83296 16.8278C8.67014 20.4694 10.7882 24.6969 15.8269 27.38L15.9898 27.4684L16.1545 27.3818C21.1914 24.6952 23.3147 20.4711 24.1554 16.8278C24.9908 13.2 24.5575 10.1511 24.4968 9.7594C24.4621 9.55141 24.3062 9.42314 24.145 9.40928C23.9959 9.39714 23.8451 9.48207 23.7706 9.6398L20.356 16.9196H11.6427H11.641Z" fill="#E2E2E6"/>
</svg>
