<svg width="32" height="32" viewBox="0 0 32 32" fill="none" xmlns="http://www.w3.org/2000/svg">
    <path d="M16 32C24.8366 32 32 24.8366 32 16C32 7.16344 24.8366 0 16 0C7.16344 0 0 7.16344 0 16C0 24.8366 7.16344 32 16 32Z" fill="url(#paint0_linear_1127_909)"/>
    <path d="M16 30C23.732 30 30 23.732 30 16C30 8.26801 23.732 2 16 2C8.26801 2 2 8.26801 2 16C2 23.732 8.26801 30 16 30Z" fill="#393937"/>
    <path d="M20.1209 18.5126C20.1043 18.4905 20.0831 18.4722 20.0588 18.459C20.0345 18.4457 20.0077 18.4379 19.9801 18.4359C19.9525 18.4339 19.9248 18.4378 19.8989 18.4474C19.8729 18.4571 19.8493 18.4721 19.8297 18.4916C19.0239 19.2403 17.9625 19.6529 16.8626 19.6448C15.8135 19.6925 14.7881 19.3236 14.01 18.6183C13.2319 17.9131 12.7642 16.9288 12.7088 15.8801C12.7641 14.8314 13.2318 13.847 14.0099 13.1418C14.7881 12.4365 15.8135 12.0676 16.8626 12.1154C17.9418 12.1075 18.9855 12.5 19.7921 13.217C19.8119 13.2358 19.8354 13.2502 19.8612 13.2593C19.887 13.2684 19.9144 13.2719 19.9416 13.2696C19.9689 13.2674 19.9953 13.2594 20.0192 13.2462C20.0431 13.233 20.064 13.2148 20.0804 13.193L23.2374 9.00342C23.2674 8.96357 23.2818 8.91422 23.2782 8.86451C23.2746 8.8148 23.2531 8.76809 23.2177 8.73301C21.421 6.98008 19.0101 5.99923 16.5 6C13.9146 6.03064 11.4456 7.07918 9.62818 8.91823C7.81079 10.7573 6.7916 13.2386 6.7916 15.8242C6.7916 18.4097 7.81079 20.891 9.62818 22.7301C11.4456 24.5691 13.9146 25.6177 16.5 25.6483C19.0094 25.6491 21.4197 24.6688 23.2161 22.9167C23.2515 22.8816 23.273 22.8349 23.2767 22.7852C23.2803 22.7354 23.2658 22.6861 23.2359 22.6462L20.1209 18.5126Z" fill="#D49949"/>
    <path d="M16.5 25.2481C14.0207 25.2175 11.6533 24.2112 9.91084 22.4471C8.1684 20.6831 7.1913 18.3035 7.1913 15.824C7.1913 13.3445 8.1684 10.9649 9.91084 9.20082C11.6533 7.43678 14.0207 6.43045 16.5 6.39991C18.8464 6.39777 21.1049 7.29226 22.8135 8.9004L19.8935 12.7764C19.0364 12.0829 17.9653 11.708 16.8628 11.7154C15.7076 11.6675 14.5804 12.0785 13.7273 12.8588C12.8741 13.639 12.3643 14.7251 12.3091 15.8799C12.3642 17.0349 12.8739 18.1211 13.7271 18.9014C14.5803 19.6818 15.7076 20.0929 16.8628 20.0449C17.9872 20.0527 19.0774 19.6582 19.9365 18.9326L22.8125 22.749C21.1038 24.3562 18.8458 25.2501 16.5 25.2481V25.2481Z" fill="url(#paint1_linear_1127_909)"/>
    <defs>
        <linearGradient id="paint0_linear_1127_909" x1="13.2212" y1="0.24044" x2="18.7788" y2="31.7596" gradientUnits="userSpaceOnUse">
            <stop stop-color="#F9D336"/>
            <stop offset="0.04502" stop-color="#F9D53D"/>
            <stop offset="0.10883" stop-color="#FADA4F"/>
            <stop offset="0.18381" stop-color="#FBE26E"/>
            <stop offset="0.26663" stop-color="#FCED98"/>
            <stop offset="0.33991" stop-color="#FDF8C3"/>
            <stop offset="0.55056" stop-color="#CFA157"/>
            <stop offset="0.6" stop-color="#C48C3D"/>
            <stop offset="0.6203" stop-color="#C89447"/>
            <stop offset="0.65487" stop-color="#D3A962"/>
            <stop offset="0.69917" stop-color="#E5CC8E"/>
            <stop offset="0.73947" stop-color="#F7F0BB"/>
            <stop offset="0.77086" stop-color="#EFE4A5"/>
            <stop offset="0.84435" stop-color="#DECC77"/>
            <stop offset="0.9097" stop-color="#D2BA56"/>
            <stop offset="0.96381" stop-color="#CBAF41"/>
            <stop offset="1" stop-color="#C8AB3A"/>
        </linearGradient>
        <linearGradient id="paint1_linear_1127_909" x1="11.3903" y1="7.94498" x2="21.3437" y2="23.8737" gradientUnits="userSpaceOnUse">
            <stop stop-color="#DFB64A"/>
            <stop offset="0.11033" stop-color="#E0B74D"/>
            <stop offset="0.20569" stop-color="#E2BB58"/>
            <stop offset="0.29551" stop-color="#E6C26A"/>
            <stop offset="0.3819" stop-color="#EBCB83"/>
            <stop offset="0.46509" stop-color="#F1D7A3"/>
            <stop offset="0.51535" stop-color="#F6DFBA"/>
            <stop offset="0.55258" stop-color="#F2D9B1"/>
            <stop offset="0.61402" stop-color="#E7CA98"/>
            <stop offset="0.69205" stop-color="#D6B16F"/>
            <stop offset="0.77851" stop-color="#BF913A"/>
            <stop offset="0.84984" stop-color="#C59942"/>
            <stop offset="0.95921" stop-color="#D6AE57"/>
            <stop offset="1" stop-color="#DEB861"/>
        </linearGradient>
    </defs>
</svg>
