<svg width="32" height="32" viewBox="0 0 32 32" fill="none" xmlns="http://www.w3.org/2000/svg">
    <path d="M16 32C24.8366 32 32 24.8366 32 16C32 7.16344 24.8366 0 16 0C7.16344 0 0 7.16344 0 16C0 24.8366 7.16344 32 16 32Z" fill="#030012"/>
    <path d="M27.797 19.6727L24.9259 11.9852C24.8917 11.8937 24.8304 11.8149 24.7502 11.7592C24.67 11.7035 24.5746 11.6737 24.477 11.6737H19.8186L17.0645 4.31175C17.0357 4.23486 16.9877 4.16665 16.925 4.11366C16.8622 4.06066 16.787 4.02466 16.7064 4.0091C16.6257 3.99307 16.5423 3.99828 16.4642 4.02422C16.3862 4.05015 16.3162 4.09591 16.2612 4.15703L9.41264 11.6737H4.65182C4.57439 11.6736 4.49811 11.6924 4.4295 11.7283C4.36089 11.7641 4.302 11.8161 4.25785 11.8797C4.2137 11.9433 4.18562 12.0167 4.17601 12.0935C4.1664 12.1703 4.17554 12.2484 4.20265 12.3209L7.0735 20.008C7.10764 20.0996 7.16896 20.1785 7.24925 20.2342C7.32954 20.29 7.42495 20.3198 7.52268 20.3198H12.1119L14.8664 27.6888C14.8951 27.7656 14.9431 27.8337 15.0057 27.8866C15.0684 27.9396 15.1435 27.9756 15.224 27.9912C15.2541 27.9971 15.2847 28.0001 15.3153 28C15.3818 27.9999 15.4476 27.9861 15.5085 27.9592C15.5694 27.9324 15.6241 27.8932 15.669 27.8441L19.742 23.3924L19.7422 23.3926L22.5611 20.3197H27.3481C27.4255 20.3197 27.5017 20.301 27.5703 20.2651C27.6389 20.2292 27.6978 20.1773 27.7419 20.1137C27.786 20.0501 27.8141 19.9768 27.8237 19.9C27.8333 19.8232 27.8242 19.7452 27.7971 19.6727L27.797 19.6727ZM16.4414 5.38261L18.9324 12.0409L16.1633 15.0638L15.0136 11.9852C14.9794 11.8937 14.918 11.8149 14.8377 11.7592C14.7575 11.7035 14.6621 11.6737 14.5644 11.6737H10.7096L16.4414 5.38261ZM5.34256 12.6324H14.2318L15.4362 15.8574L12.2268 19.361H7.85529L5.34256 12.6324ZM19.0354 22.7447L19.0357 22.7449L19.0354 22.7451L15.4902 26.6194L12.9944 19.9426L15.8128 16.8657L16.9863 20.0079C17.0204 20.0995 17.0817 20.1785 17.1619 20.2342C17.2422 20.2899 17.3376 20.3198 17.4353 20.3197H21.2599L19.0354 22.7447ZM17.7681 19.361L16.5398 16.0721L19.6905 12.6324H24.1441L26.6572 19.361H17.7681Z" fill="white"/>
</svg>
