<svg width="32" height="32" viewBox="0 0 32 32" fill="none" xmlns="http://www.w3.org/2000/svg">
    <path d="M16 32C24.8366 32 32 24.8366 32 16C32 7.16344 24.8366 0 16 0C7.16344 0 0 7.16344 0 16C0 24.8366 7.16344 32 16 32Z" fill="#1A1A1A"/>
    <path d="M25.7588 22.37L16.3859 6.13584C16.3528 6.07736 16.2988 6.03347 16.2348 6.01288C16.1708 5.99229 16.1015 5.9965 16.0404 6.02468C15.9794 6.05286 15.9312 6.10295 15.9053 6.16502C15.8795 6.22708 15.8779 6.29659 15.901 6.35975L20.3247 18.8396C20.337 18.8743 20.342 18.9113 20.3394 18.948C20.3368 18.9848 20.3266 19.0207 20.3095 19.0533C20.2924 19.086 20.2687 19.1148 20.24 19.1379C20.2113 19.161 20.1781 19.1779 20.1425 19.1876L16.8941 20.0821C16.8355 20.0978 16.7839 20.1329 16.7478 20.1816C16.7118 20.2304 16.6933 20.2899 16.6954 20.3505C16.6976 20.4112 16.7203 20.4693 16.7597 20.5153C16.7992 20.5614 16.8531 20.5927 16.9126 20.6042L25.7588 22.37Z" fill="url(#paint0_linear)"/>
    <path d="M12.0829 19.7936L13.1097 16.327C13.126 16.2787 13.1249 16.2263 13.1066 16.1787C13.0882 16.1311 13.0538 16.0915 13.0092 16.0667C12.9647 16.0418 12.9129 16.0334 12.8628 16.0428C12.8126 16.0522 12.7674 16.0789 12.7349 16.1182L6.79492 23.2834H25.7833C25.8382 23.2828 25.891 23.262 25.9315 23.2248C25.972 23.1877 25.9974 23.1369 26.0027 23.0822C26.008 23.0275 25.993 22.9728 25.9604 22.9285C25.9278 22.8843 25.88 22.8536 25.8262 22.8425L12.2523 20.0744C12.2221 20.0682 12.1935 20.0559 12.1683 20.0381C12.1432 20.0203 12.1219 19.9975 12.106 19.9712C12.0901 19.9448 12.0798 19.9154 12.0758 19.8848C12.0719 19.8542 12.0743 19.8232 12.0829 19.7936Z" fill="url(#paint1_radial)"/>
    <path d="M15.4457 6.37793L6.038 22.6701C6.00729 22.7256 5.99818 22.7906 6.01243 22.8525C6.02668 22.9143 6.06328 22.9688 6.11521 23.0053C6.16714 23.0418 6.23073 23.0579 6.29378 23.0504C6.35683 23.0429 6.41489 23.0124 6.45682 22.9647L15.2555 12.5848C15.2791 12.5569 15.3085 12.5344 15.3415 12.5188C15.3745 12.5032 15.4105 12.4947 15.4471 12.4941C15.4836 12.4934 15.5199 12.5006 15.5535 12.515C15.587 12.5294 15.6171 12.5508 15.6418 12.5778L18.0549 15.2149C18.0952 15.2579 18.1491 15.2859 18.2075 15.294C18.2659 15.3021 18.3254 15.29 18.3759 15.2596C18.4264 15.2291 18.465 15.1823 18.4851 15.1269C18.5052 15.0714 18.5057 15.0108 18.4865 14.955L15.4457 6.37793Z" fill="url(#paint2_linear)"/>
    <defs>
        <linearGradient id="paint0_linear" x1="20.8212" y1="22.37" x2="20.8212" y2="6.0001" gradientUnits="userSpaceOnUse">
            <stop stop-color="#5AC1DC"/>
            <stop offset="1" stop-color="#3179BD"/>
        </linearGradient>
        <radialGradient id="paint1_radial" cx="0" cy="0" r="1" gradientUnits="userSpaceOnUse" gradientTransform="translate(16.4226 19.6625) scale(7.25379 7.40182)">
            <stop stop-color="white"/>
            <stop offset="1" stop-color="#8F8F8F"/>
        </radialGradient>
        <linearGradient id="paint2_linear" x1="178.433" y1="1684.48" x2="1524.99" y2="1684.48" gradientUnits="userSpaceOnUse">
            <stop stop-color="#5AC1DC"/>
            <stop offset="1" stop-color="#3179BD"/>
        </linearGradient>
    </defs>
</svg>
