<svg width="32" height="32" viewBox="0 0 32 32" fill="none" xmlns="http://www.w3.org/2000/svg">
    <path d="M16 32C24.8366 32 32 24.8366 32 16C32 7.16344 24.8366 0 16 0C7.16344 0 0 7.16344 0 16C0 24.8366 7.16344 32 16 32Z" fill="#33B236"/>
    <path d="M7.64 16C7.64 11.38 11.3745 7.64 15.9725 7.64C17.4741 7.64026 18.9478 8.0465 20.2374 8.81574C21.5271 9.58498 22.5847 10.6886 23.2985 12.0098C23.3792 12.1656 23.4902 12.3037 23.625 12.4161C23.7598 12.5285 23.9156 12.6129 24.0834 12.6644C24.2512 12.7158 24.4275 12.7333 24.6021 12.7158C24.7767 12.6983 24.9461 12.6462 25.1003 12.5624C25.2546 12.4787 25.3905 12.365 25.5003 12.2281C25.6101 12.0912 25.6915 11.9338 25.7397 11.765C25.7879 11.5963 25.802 11.4196 25.7811 11.2454C25.7602 11.0712 25.7048 10.9028 25.6181 10.7503C24.6778 9.01176 23.2852 7.55966 21.5876 6.54746C19.89 5.53527 17.9504 5.00061 15.9739 5C9.91012 5 5 9.928 5 16C5 22.072 9.90875 27 15.9725 27C17.9492 26.9996 19.8891 26.4651 21.587 25.4529C23.2849 24.4407 24.6777 22.9884 25.6181 21.2497C25.7772 20.9428 25.8095 20.5858 25.7081 20.2553C25.6067 19.9248 25.3798 19.6473 25.076 19.4824C24.7722 19.3174 24.4159 19.2782 24.0835 19.3732C23.7511 19.4682 23.4693 19.6897 23.2985 19.9903C22.585 21.3113 21.5275 22.4149 20.2381 23.1841C18.9487 23.9533 17.4753 24.3596 15.9739 24.36C11.3745 24.36 7.64 20.62 7.64 16Z" fill="white"/>
    <path d="M17.98 14.68C17.98 15.2658 17.7242 15.7938 17.32 16.1554V19.3H14.68V16.1554C14.4338 15.9352 14.2466 15.6569 14.1355 15.3459C14.0243 15.0348 13.9927 14.7009 14.0436 14.3746C14.0945 14.0482 14.2262 13.7398 14.4268 13.4774C14.6273 13.2149 14.8903 13.0068 15.1919 12.872C15.4934 12.7372 15.8239 12.68 16.1532 12.7055C16.4825 12.7311 16.8001 12.8386 17.0773 13.0183C17.3544 13.198 17.5822 13.4442 17.7398 13.7344C17.8975 14.0247 17.9801 14.3497 17.98 14.68Z" fill="white"/>
</svg>
