<svg width="32" height="32" viewBox="0 0 32 32" fill="none" xmlns="http://www.w3.org/2000/svg">
    <path d="M16 32C24.8366 32 32 24.8366 32 16C32 7.16344 24.8366 0 16 0C7.16344 0 0 7.16344 0 16C0 24.8366 7.16344 32 16 32Z" fill="black"/>
    <path d="M7.175 8.76903L5.562 11.799L8.877 9.77003L10.439 6.93903L7.175 8.76903Z" fill="#F3F3F3"/>
    <path d="M12.065 11.713L13.971 8.51997L10.724 6.81897L9.076 9.80597L12.065 11.713Z" fill="white"/>
    <path d="M8.853 14.013V10.01L5.408 12.118V15.71L8.853 14.013Z" fill="#F3F3F3"/>
    <path d="M9.045 10.014V14.017L12.001 15.699V11.9L9.045 10.014Z" fill="white"/>
    <path d="M12.193 11.874V15.53L14.009 12.634V8.83002L12.193 11.874Z" fill="#F3F3F3"/>
    <path d="M14.105 4.84698L10.885 6.68698L14.105 8.37298L17.273 6.68698L14.105 4.84698Z" fill="white"/>
    <path d="M14.201 8.53898V12.492L17.374 10.599V6.84998L14.201 8.53898Z" fill="#F3F3F3"/>
    <path d="M21.131 6.59397L18.096 4.83197H14.462L17.496 6.59397H21.131Z" fill="white"/>
    <path d="M21.391 6.78625H17.5664V10.557H21.391V6.78625Z" fill="#F3F3F3"/>
    <path d="M21.583 6.86499V10.6L24.811 12.65V8.91399L21.583 6.86499Z" fill="#F3F3F3"/>
    <path d="M18.309 12.818L21.487 14.561L24.717 12.818L21.487 10.767L18.309 12.818Z" fill="white"/>
    <path d="M14.431 12.579L18.095 12.727L21.161 10.749H17.497L14.431 12.579Z" fill="white"/>
    <path d="M9.189 14.32L10.758 17.261L13.692 19.022L12.025 15.934L9.189 14.32Z" fill="white"/>
    <path d="M10.557 17.293L8.90801 14.2L5.44701 15.905L7.35501 19.153L10.557 17.293Z" fill="#F3F3F3"/>
    <path d="M7.224 22.908V19.31L5.408 16.217V19.963L7.224 22.908Z" fill="white"/>
    <path d="M13.763 19.289L10.685 17.441L7.504 19.289L10.685 21.341L13.763 19.289Z" fill="#F3F3F3"/>
    <path d="M17.583 19.38H13.971L11.003 21.36H14.565L17.583 19.38Z" fill="#F3F3F3"/>
    <path d="M10.59 25.034V21.508L7.416 19.46V23.192L10.59 25.034Z" fill="white"/>
    <path d="M17.809 23.192V19.462L14.69 21.507V25.033L17.809 23.192Z" fill="white"/>
    <path d="M14.4976 21.5516H10.7816V25.1052H14.4976V21.5516Z" fill="white"/>
    <path d="M17.906 27.152L21.187 25.203L17.906 23.358L14.779 25.203L17.906 27.152Z" fill="#F3F3F3"/>
    <path d="M11.017 25.297L13.97 27.168H17.569L14.566 25.297H11.017Z" fill="#F3F3F3"/>
    <path d="M24.728 23.176L26.481 20.157L23.403 22.014L21.65 24.936L24.728 23.176Z" fill="white"/>
    <path d="M19.999 20.013L18.039 23.212L21.344 25.072L23.201 21.976L19.999 20.013Z" fill="#F3F3F3"/>
    <path d="M19.871 19.854V16.408L18.001 19.312V22.907L19.871 19.854Z" fill="white"/>
    <path d="M23.236 21.773V18.091L20.063 16.248V19.828L23.236 21.773Z" fill="#F3F3F3"/>
    <path d="M23.428 18.09V21.774L26.656 19.827V16.143L23.428 18.09Z" fill="white"/>
    <path d="M21.618 14.709L23.369 17.902L26.621 15.94L24.871 12.953L21.618 14.709Z" fill="white"/>
    <path d="M18.372 13.071L20.038 16.011L23.083 17.779L21.416 14.741L18.372 13.071Z" fill="#F3F3F3"/>
    <path d="M25.003 9.22101V12.798L26.656 15.619V12.09L25.003 9.22101Z" fill="#F3F3F3"/>
</svg>
