<svg width="32" height="32" viewBox="0 0 32 32" fill="none" xmlns="http://www.w3.org/2000/svg">
    <path d="M16 32C24.8366 32 32 24.8366 32 16C32 7.16343 24.8366 0 16 0C7.16343 0 0 7.16343 0 16C0 24.8366 7.16343 32 16 32Z" fill="url(#paint0_linear_1017_503)"/>
    <path fill-rule="evenodd" clip-rule="evenodd" d="M15.9693 5.3125C18.8122 5.3125 21.5387 6.44187 23.549 8.4521C25.5593 10.4624 26.6886 13.1889 26.6886 16.0318C26.6888 16.4619 26.6634 16.8917 26.6125 17.3187C26.6107 17.3334 26.6071 17.3625 26.6071 17.3625C26.6071 17.3625 22.6937 13.75 16 13.75C9.43119 13.75 5.33906 17.4205 5.33906 17.4205C5.33906 17.4205 5.33282 17.3738 5.33019 17.3503C5.14476 15.843 5.28142 14.3135 5.73122 12.863C6.18102 11.4124 6.93369 10.0739 7.93939 8.936C8.94509 7.79807 10.181 6.88663 11.5652 6.26197C12.9495 5.63733 14.4506 5.3137 15.9693 5.3125Z" fill="white"/>
    <path fill-rule="evenodd" clip-rule="evenodd" d="M16.0003 15.9375C18.8213 15.9368 21.5869 16.7208 23.988 18.2018C26.389 19.6828 28.3308 21.8024 29.5962 24.3236L29.6199 24.3708C29.6199 24.3708 29.0479 25.3682 27.9648 26.5966C27.2897 27.3633 26.5398 28.0607 25.7261 28.6783C25.7261 28.6783 25.7208 28.6572 25.7181 28.6471C24.1579 22.4859 18.4319 21 16 21C13.6476 21 7.79537 22.2973 6.223 28.6087C6.2195 28.6226 6.2126 28.6506 6.2126 28.6506C5.41167 28.0264 4.6676 27.3325 3.98907 26.5771C3.38807 25.895 2.84728 25.1621 2.3728 24.3867C2.3728 24.3867 2.38255 24.3671 2.38749 24.3573C3.64957 21.8272 5.59197 19.699 7.9966 18.2117C10.4012 16.7244 13.1729 15.9368 16.0003 15.9375Z" fill="white"/>
    <defs>
        <linearGradient id="paint0_linear_1017_503" x1="16" y1="0" x2="16" y2="32" gradientUnits="userSpaceOnUse">
            <stop stop-color="#74247D"/>
            <stop offset="1" stop-color="#1C0B2D"/>
        </linearGradient>
    </defs>
</svg>
