<svg width="32" height="32" viewBox="0 0 32 32" fill="none" xmlns="http://www.w3.org/2000/svg">
    <path d="M32 16C32 24.8366 24.8366 32 16 32C7.16344 32 0 24.8366 0 16C0 7.16344 7.16344 0 16 0C24.8366 0 32 7.16344 32 16Z" fill="white"/>
    <path d="M10.1601 12.1601L6 8H10.4971L17.1638 14.6667H12.6667C11.7715 14.6667 10.9394 15.0142 10.3075 15.6461C9.67561 16.278 9.32807 17.1101 9.32807 18.0053C9.32807 18.9005 9.67561 19.7325 10.3075 20.3644C10.9394 20.9963 11.7715 21.3438 12.6667 21.3438H14.3307L17.6588 24.6719H12.6667C8.99104 24.6719 6 21.6914 6 18.0053C6 15.288 7.32701 13.108 10.1601 12.1601Z" fill="url(#paint0_linear_1262_3)"/>
    <path d="M21.8293 20.4908L25.9894 24.6509H21.4923L14.8256 17.9842H19.3227C20.2179 17.9842 21.05 17.6367 21.6819 17.0047C22.3138 16.3728 22.6613 15.5408 22.6613 14.6456C22.6613 13.7504 22.3138 12.9184 21.6819 12.2865C21.05 11.6546 20.2179 11.307 19.3227 11.307H17.6587L14.3306 8H19.3333C23.0089 8 25.9999 10.9805 25.9999 14.6667C25.9894 17.3628 24.6624 19.5429 21.8293 20.4908Z" fill="url(#paint1_linear_1262_3)"/>
    <defs>
        <linearGradient id="paint0_linear_1262_3" x1="6.70125" y1="21.4568" x2="15.3285" y2="12.8295" gradientUnits="userSpaceOnUse">
            <stop offset="0.2" stop-color="#2576F4"/>
            <stop offset="1" stop-color="#3298DA"/>
        </linearGradient>
        <linearGradient id="paint1_linear_1262_3" x1="15.44" y1="19.0531" x2="26.0286" y2="12.9397" gradientUnits="userSpaceOnUse">
            <stop stop-color="#36BDBA"/>
            <stop offset="0.93" stop-color="#39D8AA"/>
        </linearGradient>
    </defs>
</svg>
