<svg width="32" height="32" viewBox="0 0 32 32" fill="none" xmlns="http://www.w3.org/2000/svg">
    <path d="M16 32C24.8366 32 32 24.8366 32 16C32 7.16344 24.8366 0 16 0C7.16344 0 0 7.16344 0 16C0 24.8366 7.16344 32 16 32Z" fill="white"/>
    <path fill-rule="evenodd" clip-rule="evenodd" d="M9.15039 20.8116V11.6914H15.2806C17.5989 11.6914 19.4849 13.5859 19.4849 15.9144C19.4849 18.2429 17.5989 20.1374 15.2806 20.1374H14.5444V18.3439H15.2806C16.6088 18.3439 17.6894 17.254 17.6894 15.9144C17.6894 14.5748 16.6088 13.4849 15.2806 13.4849H10.9458V20.8116H9.15039Z" fill="#FA9B00"/>
    <path fill-rule="evenodd" clip-rule="evenodd" d="M11.9034 23.1107V14.5682H13.6989V21.3172H15.7986C18.7067 21.3172 21.0727 18.9345 21.0727 16.0056C21.0727 13.0767 18.7067 10.6939 15.7986 10.6939H11.5195V8.90039H15.7986C19.6968 8.90039 22.8682 12.0878 22.8682 16.0055C22.8682 19.9233 19.6968 23.1107 15.7986 23.1107H11.9034Z" fill="#242A47"/>
</svg>
