<svg width="32" height="32" viewBox="0 0 32 32" fill="none" xmlns="http://www.w3.org/2000/svg">
    <path d="M16 0C7.16138 0 0 7.16446 0 16C0 24.8355 7.16446 32 16 32C24.8355 32 32 24.8355 32 16C32 7.16446 24.8386 0 16 0Z" fill="#0066CC"/>
    <path d="M15.9994 28.9998C23.1788 28.9998 28.9988 23.1798 28.9988 16.0004C28.9988 8.82102 23.1788 3.00098 15.9994 3.00098C8.82004 3.00098 3 8.82102 3 16.0004C3 23.1798 8.82004 28.9998 15.9994 28.9998Z" fill="#002352"/>
    <path d="M19.9992 9.4752L20.4609 8.27189C20.507 8.14879 20.4178 8.01953 20.2885 8.01953H18.5743L18.0327 9.42904H17.2726L17.7157 8.27189C17.7619 8.14879 17.6726 8.01953 17.5434 8.01953H15.8292L15.2876 9.42904H9.92652C9.6834 9.42904 9.45566 9.56137 9.33564 9.77372L8 12.1311H9.86805H18.0173C18.3497 12.1311 18.679 12.1927 18.9867 12.3188C19.5776 12.562 20.2762 13.1128 20.1008 14.3531C19.8084 16.4304 17.6911 20.1111 13.0964 20.1696L15.4722 13.9838C15.5707 13.7283 15.383 13.4575 15.1091 13.4575H11.9238L8.07694 22.9117C8.07694 22.9117 8.85247 23.0071 10.0681 23.0071L9.68648 24.0011H11.4376C11.5761 24.0011 11.7023 23.915 11.7546 23.7857L12.0839 22.9302C12.3424 22.9086 12.604 22.8809 12.8748 22.8501L12.4316 24.0011H14.1827C14.3212 24.0011 14.4474 23.915 14.4997 23.7857L14.9983 22.4839C17.8757 21.8284 20.9686 20.4004 22.8059 17.3875C26.5143 11.3125 22.6613 9.74295 19.9992 9.4752Z" fill="white"/>
</svg>
