<svg width="72" height="72" viewBox="0 0 72 72" fill="none" xmlns="http://www.w3.org/2000/svg">
    <circle cx="36" cy="36" r="36" fill="#3619A4"/>
    <path d="M31.1399 56.9005C31.0304 56.9008 30.9218 56.8804 30.8199 56.8405L23.5799 53.7004C23.4335 53.6375 23.3089 53.5328 23.2218 53.3994C23.1346 53.2659 23.0887 53.1098 23.0899 52.9504V19.8304C23.0908 19.6954 23.125 19.5627 23.1896 19.444C23.2541 19.3254 23.347 19.2246 23.4599 19.1504L29.3299 15.2805C29.4638 15.1938 29.6203 15.1485 29.7799 15.1504C38.5099 15.1504 46.6699 18.7104 50.0899 24.0104C53.8999 29.9104 53.2099 37.4805 53.1799 37.8005C53.1923 39.2599 53.038 40.716 52.7199 42.1404C51.3299 47.7604 47.1399 52.1405 40.6199 54.6805C37.5976 55.8635 34.4225 56.6109 31.1899 56.9005H31.1399ZM27.4299 53.5804L31.2799 55.2505C34.2779 54.9542 37.2216 54.251 40.0299 53.1605C44.2199 51.4905 49.5399 48.1605 51.1399 41.7505C51.4409 40.3208 51.5751 38.861 51.5399 37.4004C51.1099 27.6004 42.8799 24.7105 35.8799 24.1005V26.8304C38.9599 27.6604 45.3799 29.5404 46.3799 36.1504C46.6975 39.6655 45.7779 43.1811 43.7799 46.0905C40.9699 49.9305 34.5499 52.8504 27.4299 53.5804V53.5804ZM24.7599 53.1205L24.8699 53.1705V53.1005L24.7599 53.1205ZM24.7599 20.2704V52.1005C32.3599 51.9105 39.6099 49.1005 42.5199 45.1005C42.6899 44.8605 42.8599 44.6105 43.0099 44.3505C41.2547 45.6675 39.2351 46.5887 37.0899 47.0505C34.6772 47.6224 32.1835 47.7713 29.7199 47.4905C29.5219 47.4662 29.3395 47.3705 29.207 47.2214C29.0745 47.0723 29.0008 46.88 28.9999 46.6805V17.4805L24.7599 20.2704ZM30.6399 45.9205C31.8594 46.0115 33.0847 45.988 34.2999 45.8505V23.1705C34.3003 23.0581 34.3236 22.9469 34.3683 22.8437C34.413 22.7406 34.4782 22.6476 34.5599 22.5704C34.7273 22.4212 34.9458 22.3424 35.1699 22.3505C42.5999 22.8705 47.9099 25.3505 50.7699 29.4805C50.3363 27.8623 49.6621 26.3184 48.7699 24.9004C45.7699 20.2304 38.5199 17.0105 30.6499 16.8005L30.6399 45.9205ZM35.9399 28.4805V45.6105C38.4241 45.2178 40.7486 44.137 42.6499 42.4905C43.4455 41.7565 44.06 40.848 44.4452 39.8364C44.8304 38.8248 44.9758 37.7377 44.8699 36.6605C44.8768 36.5673 44.8768 36.4737 44.8699 36.3805C43.9799 31.0205 38.7099 29.2505 35.8799 28.4805H35.9399ZM44.7999 41.4004H44.9299L45.0799 40.8304C44.9912 41.03 44.8841 41.2208 44.7599 41.4004H44.7999ZM51.9799 33.5505C52.0899 33.9005 52.1699 34.2604 52.2499 34.6404C52.262 34.262 52.2352 33.8834 52.1699 33.5104H52.0799L51.9799 33.5505Z" fill="white"/>
</svg>
