<svg width="32" height="32" viewBox="0 0 32 32" fill="none" xmlns="http://www.w3.org/2000/svg">
    <circle cx="16" cy="16" r="16" fill="#1A325F"/>
    <path d="M26.2696 23.9611L17.4839 3.97751C17.4542 3.88816 17.3648 3.79881 17.2755 3.73925C17.1861 3.70947 17.0968 3.67969 17.0074 3.67969H14.8036C14.7142 3.67969 14.6249 3.67969 14.5653 3.73925C14.5058 3.79881 14.4462 3.85838 14.4164 3.91794C14.4164 3.91794 5.86906 23.2761 5.72015 23.6037C5.57124 23.9313 5.57124 24.1695 5.66058 24.2887C5.77971 24.4376 5.92862 24.4376 6.10731 24.4376H17.752C17.9902 24.4376 18.1689 24.2589 18.1689 24.0504C18.1689 24.0206 18.1689 23.9611 18.1391 23.9313C18.02 23.4548 17.8711 23.008 17.752 22.5315C17.6924 22.3528 17.5435 22.2635 17.3946 22.2337L16.799 22.1742L9.3833 21.6679L15.6673 7.28328C15.6673 7.28328 15.7566 7.07481 15.9353 7.07481C16.114 7.07481 16.1735 7.31306 16.1735 7.31306C16.1735 7.31306 22.9936 22.7102 23.2318 23.3356C23.2616 23.425 23.2914 23.5143 23.3212 23.5739C23.5296 24.0504 23.6488 24.3482 23.7977 24.4376C23.9168 24.4674 24.0359 24.4971 24.1551 24.4673H24.1848H25.8228C26.0611 24.4673 26.2398 24.2887 26.2398 24.0802C26.2696 24.0504 26.2696 23.9908 26.2696 23.9611Z" fill="white"/>
</svg>
