<svg width="32" height="32" viewBox="0 0 32 32" fill="none" xmlns="http://www.w3.org/2000/svg">
    <g clip-path="url(#clip0)">
        <path fill-rule="evenodd" clip-rule="evenodd" d="M1.46021 23.015C1.54684 23.2592 1.63957 23.5034 1.73851 23.7476L1.74188 23.7561C1.85122 24.0358 3.68438 28.7245 14.0296 31.8745C14.1886 31.8791 14.3454 31.8833 14.5 31.8869V21.015H30.8759C30.9978 20.5737 31.1025 20.1293 31.19 19.6841C31.4251 18.4416 31.4587 14.2438 31.19 13.0013C30.9742 11.9497 30.5885 10.9402 30.0482 10.0125C28.94 8.16551 26.5221 5.47894 23.4997 3.36327C23.4997 3.36327 21.2162 1.88566 20.1415 1.38193C19.9922 1.313 19.8421 1.24616 19.6915 1.18152L6.5 8.79761V23.015H1.46021Z" fill="#04FFCC"/>
        <path d="M18.966 1.9529V9.44168L10.3019 8.90437L6.74223 13.4043L6.30566 21.9006L9.26087 25.0573L13.6937 27.2737L19.5033 27.9117L25.8167 26.2998V10.6842L24.6078 4.20289C24.6078 4.20289 21.216 1.54992 18.9996 0.911865" fill="#7DF8FB"/>
        <path d="M29.1078 20.5237C27.8988 20.4565 28.5705 18.5424 28.0332 16.3595C27.3951 13.9416 28.3354 12.2625 29.578 12.3297C30.1615 12.4206 30.7144 12.651 31.1899 13.0013C30.974 11.9497 30.5884 10.9402 30.0481 10.0125C28.9399 8.1655 26.522 5.47892 23.4996 3.36325V23.6132C23.5007 24.7427 22.586 25.6593 21.4565 25.6605C20.6637 25.6613 19.9418 25.2037 19.6041 24.4864C15.8632 26.805 10.951 25.6519 8.63239 21.911C6.31382 18.17 7.46686 13.2578 11.2078 10.9393C13.7078 9.38982 16.858 9.34337 19.4026 10.8185V2.96027C19.3913 2.34817 19.6642 1.73846 20.1414 1.35503C16.2123 -0.458395 11.8131 -0.800922 8.05186 2.52371C1.7384 8.13191 -1.41833 15.9565 1.7384 23.7476C1.80556 23.9155 1.87272 24.0834 1.9399 24.2177C2.03219 24.0292 2.15727 23.8587 2.30929 23.714C3.95482 22.0349 5.76825 25.4603 9.6302 27.4416C12.0817 28.6841 13.4921 30.3297 14.0295 31.8745C17.6227 32.311 21.3168 31.7401 24.272 30.0274C28.1339 27.811 30.3839 23.7812 31.1899 19.6842C30.6099 20.1899 29.8764 20.4857 29.1078 20.5237ZM15.9436 4.60579C16.8503 4.5722 17.6899 5.64683 17.7235 6.15056C17.7571 6.6543 16.9511 6.4528 16.0779 6.75504C15.1041 7.09086 14.3988 6.78862 14.3653 6.28489C14.3317 5.78115 15.0033 4.63937 15.9436 4.60579Z" fill="#2C398F"/>
        <path d="M13.9622 20.6581C15.91 21.7663 18.2607 21.3297 18.6973 18.8446C18.9324 17.4006 18.7981 15.1506 17.5219 14.4453C13.2906 12.0274 9.7308 18.2401 13.9622 20.6581Z" fill="#2C398F"/>
    </g>
    <defs>
        <clipPath id="clip0">
            <rect width="32" height="32" fill="white"/>
        </clipPath>
    </defs>
</svg>
