<svg width="32" height="32" viewBox="0 0 32 32" fill="none" xmlns="http://www.w3.org/2000/svg">
    <path d="M16 32C24.8366 32 32 24.8366 32 16C32 7.16344 24.8366 0 16 0C7.16344 0 0 7.16344 0 16C0 24.8366 7.16344 32 16 32Z" fill="url(#paint0_linear)"/>
    <path fill-rule="evenodd" clip-rule="evenodd" d="M16.2777 5.12C17.0042 5.12 17.593 6.1933 17.593 7.51706C17.593 7.54908 17.5925 7.58074 17.5918 7.6124C17.9818 7.13498 18.437 6.89829 18.7843 7.04936C19.1375 7.20305 19.2877 7.71889 19.2162 8.35403C19.1988 8.655 19.1263 8.98549 18.995 9.31658C18.919 9.50857 18.8285 9.68609 18.7288 9.84606C23.9056 11.0308 27.5769 15.4167 27.5193 23.04H24.3686C24.4175 16.5783 20.7789 13.3879 16.0178 13.2876C10.8331 13.1784 7.96322 16.7381 7.63097 23.04H4.48001C4.88372 15.3849 8.0905 10.7206 13.7236 9.80372C13.6335 9.66889 13.4674 9.39627 13.3934 9.2376C12.9519 8.29213 13.0146 7.31855 13.5336 7.06288C13.9485 6.85856 14.5294 7.17566 14.9713 7.79455C14.9656 7.70348 14.9623 7.61098 14.9623 7.51706C14.9623 6.1933 15.5512 5.12 16.2777 5.12ZM13.4005 17.0079C13.7802 17.0079 14.088 17.3605 14.088 17.7951V19.729C14.088 20.1638 13.7802 20.5163 13.4005 20.5163C13.0208 20.5163 12.7129 20.1638 12.7129 19.729V17.7951C12.7129 17.3605 13.0208 17.0079 13.4005 17.0079ZM18.9009 17.0079C19.2806 17.0079 19.5885 17.3605 19.5885 17.7951V19.729C19.5885 20.1638 19.2806 20.5163 18.9009 20.5163C18.5212 20.5163 18.2134 20.1638 18.2134 19.729V17.7951C18.2134 17.3605 18.5212 17.0079 18.9009 17.0079Z" fill="black"/>
    <defs>
        <linearGradient id="paint0_linear" x1="1.44585" y1="-1.39928" x2="32" y2="32" gradientUnits="userSpaceOnUse">
            <stop stop-color="#FFFC2C"/>
            <stop offset="1" stop-color="#EFE806"/>
        </linearGradient>
    </defs>
</svg>
