<svg width="32" height="32" viewBox="0 0 32 32" fill="none" xmlns="http://www.w3.org/2000/svg">
<path d="M32 16C32 24.8366 24.8366 32 16 32C7.16344 32 0 24.8366 0 16C0 7.16344 7.16344 0 16 0C24.8366 0 32 7.16344 32 16Z" fill="white"/>
<path d="M16.0002 4C18.3904 4 20.3281 5.12694 20.3281 6.51709C20.3281 7.90724 18.3904 9.03418 16.0002 9.03418C13.6099 9.03418 11.6723 7.90724 11.6723 6.51709C11.6723 5.12694 13.6099 4 16.0002 4ZM16.0002 22.9658C18.3904 22.9658 20.3281 24.0928 20.3281 25.4829C20.3281 26.8731 18.3904 28 16.0002 28C13.6099 28 11.6723 26.8731 11.6723 25.4829C11.6723 24.0928 13.6099 22.9658 16.0002 22.9658ZM5.6064 9.99963C6.80151 7.92969 8.74693 6.8155 9.95162 7.51107C11.1563 8.20665 11.1641 10.4485 9.96894 12.5184C8.77383 14.5884 6.82841 15.7025 5.6237 15.007C4.41899 14.3115 4.41128 12.0696 5.6064 9.99963ZM22.0325 19.4831C23.2276 17.4132 25.1723 16.2986 26.3762 16.9937C27.5801 17.6888 27.5872 19.9303 26.3921 22.0002C25.1969 24.0701 23.2522 25.1847 22.0483 24.4896C20.8444 23.7945 20.8373 21.5531 22.0325 19.4831ZM5.62433 16.9931C6.82901 16.2976 8.77443 17.4117 9.96954 19.4817C11.1647 21.5516 11.1569 23.7935 9.95222 24.489C8.74753 25.1846 6.80211 24.0704 5.607 22.0005C4.41188 19.9305 4.41964 17.6887 5.62433 16.9931V16.9931ZM22.0493 7.51161C23.2532 6.81655 25.1979 7.9311 26.3931 10.001C27.5882 12.071 27.5811 14.3125 26.3772 15.0075C25.1734 15.7026 23.2286 14.5881 22.0335 12.5181C20.8384 10.4482 20.8455 8.2067 22.0493 7.51163L22.0493 7.51161Z" fill="#E6007A"/>
</svg>
