<svg width="32" height="32" viewBox="0 0 32 32" fill="none" xmlns="http://www.w3.org/2000/svg">
    <path d="M16 32C24.8366 32 32 24.8366 32 16C32 7.16344 24.8366 0 16 0C7.16344 0 0 7.16344 0 16C0 24.8366 7.16344 32 16 32Z" fill="#3B218C"/>
    <path d="M23.8925 17.0237H21.2475C21.4114 15.9435 21.4114 14.8439 21.2475 13.7619H23.8925C24.1727 13.7619 24.4 13.5346 24.4 13.2544C24.4 12.9741 24.1727 12.7468 23.8925 12.7468H21.0431C20.569 10.8613 19.5927 9.13787 18.2147 7.76509C15.9239 5.47258 12.7555 4.34126 9.52534 4.65843C9.48308 4.66376 9.4513 4.70245 9.45661 4.7448C9.46194 4.78182 9.49006 4.81004 9.52534 4.81353C11.9713 5.05673 14.2568 6.13872 15.9961 7.87624C17.3653 9.24546 18.3151 10.9213 18.7803 12.7487H11.21C10.9297 12.7487 10.7024 12.976 10.7024 13.2563C10.7024 13.5365 10.9297 13.7638 11.21 13.7638H18.9865C19.0693 14.3031 19.1099 14.8493 19.1099 15.3938C19.1099 15.9401 19.0694 16.4846 18.9865 17.0239H11.21C10.9297 17.0239 10.7024 17.2512 10.7024 17.5314C10.7024 17.8116 10.9297 18.039 11.21 18.039H18.7803C18.3151 19.8664 17.3653 21.5422 15.9961 22.9114C14.2568 24.6489 11.9713 25.7311 9.52534 25.9742C9.48308 25.9776 9.4513 26.0164 9.45486 26.0588C9.45838 26.0959 9.48832 26.1257 9.52534 26.1294C12.7572 26.4464 15.9239 25.3151 18.2147 23.0225C19.591 21.648 20.569 19.9263 21.0431 18.039H23.8925C24.1727 18.039 24.4 17.8117 24.4 17.5315C24.4 17.2511 24.1727 17.0237 23.8925 17.0237Z" fill="white"/>
</svg>
