<svg width="32" height="32" viewBox="0 0 32 32" fill="none" xmlns="http://www.w3.org/2000/svg">
    <path d="M16 32C24.8366 32 32 24.8366 32 16C32 7.16344 24.8366 0 16 0C7.16344 0 0 7.16344 0 16C0 24.8366 7.16344 32 16 32Z" fill="#1A1B23"/>
    <path d="M27.6659 13.358C27.5707 13.4293 27.1188 13.7861 24.1695 15.9743V16.0457C24.1695 20.6361 20.4591 24.3466 15.8686 24.3466C11.2781 24.3466 7.56772 20.6361 7.56772 16.0457C7.56772 11.4552 11.2781 7.74478 15.8686 7.74478C17.0579 7.74478 18.1757 7.98263 19.1985 8.43454C19.7218 8.67239 20.2212 8.95781 20.6969 9.2908L13.3236 15.9268L16.1065 18.329L22.9803 11.7644L25.9296 9.14809C24.0506 6.43662 20.7445 4.36734 17.2243 4.05814C16.8676 4.03436 16.487 4.01057 16.1302 4.01057C15.821 4.01057 15.3691 3.98679 15.0599 4.01057C8.87588 4.48627 4 9.95677 4 16.117C4 22.2773 8.66182 27.7002 14.8697 28.1521C15.1789 28.1759 15.7259 28.2235 16.0351 28.2235C16.3443 28.2235 16.5584 28.1759 16.8676 28.1521C23.0278 27.724 27.9989 22.5151 27.9989 16.3549C28.0226 13.9764 27.6659 13.358 27.6659 13.358Z" fill="url(#paint0_linear)"/>
    <defs>
        <linearGradient id="paint0_linear" x1="8.96182" y1="7.64596" x2="24.4135" y2="26.12" gradientUnits="userSpaceOnUse">
            <stop offset="0.3883" stop-color="#6354FF"/>
            <stop offset="0.7803" stop-color="#FA535A"/>
        </linearGradient>
    </defs>
</svg>
