<svg width="32" height="32" viewBox="0 0 32 32" fill="none" xmlns="http://www.w3.org/2000/svg">
<path d="M32 16C32 24.8366 24.8366 32 16 32C7.16344 32 0 24.8366 0 16C0 7.16344 7.16344 0 16 0C24.8366 0 32 7.16344 32 16Z" fill="#151515"/>
<path fill-rule="evenodd" clip-rule="evenodd" d="M27.6364 16.0019L25.9177 13.0469H21.1561L23.5388 8.95502L21.8201 6H18.3827L16 10.0919L13.6211 6.00376H10.1837L8.46502 8.95878L10.8477 13.0506H6.08615L4.36365 16.0019L6.08235 18.9569H10.8439L8.46123 23.0487L10.1799 26H13.6173L16 21.9082L18.3827 26H18.4168H21.8201L23.5388 23.0487L21.1561 18.9569H25.9177L27.6364 16.0019ZM22.67 8.95502L20.2873 13.0469H18.155L21.6038 7.12554L22.67 8.95502ZM18.8152 6.74911H20.9475L17.4987 12.6742L16.4325 10.841L18.8152 6.74911ZM17.0661 13.4233L16 15.2565L12.335 8.95878L13.4011 7.12554L17.0661 13.4233ZM9.33386 8.95502L10.6162 6.74911H12.7485L11.4661 8.95502L15.3474 15.6254H13.2152L9.33386 8.95502ZM6.51867 13.796H11.2802L12.3463 15.6292H5.45254L6.51867 13.796ZM6.51867 18.2078L5.45254 16.3746H12.3463L11.2802 18.2078H6.51867ZM13.2152 16.3746H15.3474L11.6824 22.6723H9.55012L13.2152 16.3746ZM13.1848 25.2547H10.6162L9.55012 23.4214H12.1187L16 16.751L17.0661 18.5842L13.1848 25.2547ZM18.8152 25.2547L16.4325 21.1628L17.4987 19.3296L20.9475 25.2547H18.8152ZM22.67 23.0487L21.6038 24.8782L18.155 18.9531H20.2873L22.67 23.0487ZM17.7187 18.2078L16.6526 16.3746H23.9827L25.0488 18.2078H17.7187ZM24.419 15.6292H24.3849H16.6564L17.7225 13.796H25.4889L26.7713 16.0019L25.7014 17.8351L24.419 15.6292Z" fill="#FF3B80"/>
</svg>
