<svg width="32" height="32" viewBox="0 0 32 32" fill="none" xmlns="http://www.w3.org/2000/svg">
    <path d="M16 32C24.8366 32 32 24.8366 32 16C32 7.16344 24.8366 0 16 0C7.16344 0 0 7.16344 0 16C0 24.8366 7.16344 32 16 32Z" fill="white"/>
    <path d="M16.5198 4.79279L19.0753 7.352C19.1382 7.42414 19.1728 7.51658 19.1728 7.61226C19.1728 7.70793 19.1382 7.80037 19.0753 7.87251V7.87251L16.2599 10.6919C16.1879 10.7548 16.0956 10.7895 16 10.7895C15.9044 10.7895 15.8121 10.7548 15.7401 10.6919V10.6919L12.9247 7.87247C12.8618 7.80033 12.8272 7.70789 12.8272 7.61222C12.8272 7.51654 12.8618 7.4241 12.9247 7.35196L15.4802 4.79279C15.5344 4.70342 15.6107 4.62952 15.7017 4.57823C15.7928 4.52695 15.8955 4.5 16 4.5C16.1045 4.5 16.2072 4.52695 16.2983 4.57823C16.3893 4.62952 16.4656 4.70342 16.5198 4.79279V4.79279ZM19.0753 24.2251C19.1382 24.2973 19.1728 24.3897 19.1728 24.4854C19.1728 24.5811 19.1382 24.6735 19.0753 24.7456V24.7456L16.5198 27.3048C16.3758 27.4306 16.1912 27.5 16 27.5C15.8088 27.5 15.6241 27.4306 15.4802 27.3048V27.3048L12.9247 24.7456C12.8618 24.6735 12.8272 24.5811 12.8272 24.4854C12.8272 24.3897 12.8618 24.2973 12.9247 24.2251L15.7401 21.5358C15.8121 21.4729 15.9044 21.4382 16 21.4382C16.0956 21.4382 16.1879 21.4729 16.2599 21.5358V21.5358L19.0753 24.2251ZM16.2599 12.9041L19.0753 15.7235C19.1382 15.7956 19.1728 15.8881 19.1728 15.9837C19.1728 16.0794 19.1382 16.1718 19.0753 16.244V16.244L16.2599 19.0634C16.1879 19.1263 16.0956 19.161 16 19.161C15.9044 19.161 15.8121 19.1263 15.7401 19.0634V19.0634L12.9247 16.244C12.8618 16.1719 12.8272 16.0794 12.8272 15.9837C12.8272 15.8881 12.8618 15.7956 12.9247 15.7235L15.7401 12.9041C15.8121 12.8411 15.9044 12.8065 16 12.8065C16.0956 12.8065 16.1879 12.8411 16.2599 12.9041V12.9041Z" fill="#12B29F"/>
    <path d="M12.0151 8.78336L14.8305 11.6028C14.8933 11.6749 14.928 11.7674 14.928 11.863C14.928 11.9587 14.8933 12.0511 14.8305 12.1233V12.1233L7.77023 19.1935C7.69827 19.2565 7.60593 19.2911 7.51034 19.2911C7.41476 19.2911 7.32242 19.2565 7.25046 19.1935V19.1935L4.69491 16.6344C4.56923 16.4901 4.5 16.3052 4.5 16.1139C4.5 15.9225 4.56923 15.7376 4.69491 15.5934L11.4953 8.78337C11.5672 8.72045 11.6596 8.68577 11.7552 8.68577C11.8508 8.68577 11.9431 8.72045 12.0151 8.78337V8.78336ZM27.3051 15.5934C27.4307 15.7376 27.5 15.9225 27.5 16.1139C27.5 16.3052 27.4307 16.4901 27.3051 16.6344L20.5047 23.4444C20.4327 23.5073 20.3404 23.5419 20.2448 23.5419C20.1492 23.5419 20.0569 23.5073 19.9849 23.4444V23.4444L17.1695 20.6249C17.1066 20.5528 17.072 20.4603 17.072 20.3647C17.072 20.269 17.1066 20.1766 17.1695 20.1044L24.2297 13.0342C24.3597 12.904 24.6196 12.7739 24.7495 12.904L27.3051 15.5934ZM20.5047 8.78336L23.3201 11.6028C23.383 11.6749 23.4176 11.7674 23.4176 11.863C23.4176 11.9587 23.383 12.0511 23.3201 12.1233V12.1233L20.5047 14.9427C20.4327 15.0056 20.3404 15.0403 20.2448 15.0403C20.1492 15.0403 20.0569 15.0056 19.9849 14.9427V14.9427L17.1695 12.1233C17.1066 12.0511 17.072 11.9587 17.072 11.863C17.072 11.7674 17.1066 11.6749 17.1695 11.6028L19.9849 8.78336C20.1149 8.65323 20.2448 8.65323 20.5047 8.78336ZM14.8305 20.1044C14.8933 20.1766 14.9279 20.269 14.9279 20.3647C14.9279 20.4604 14.8933 20.5528 14.8305 20.6249V20.6249L12.015 23.4444C11.9431 23.5073 11.8507 23.542 11.7551 23.542C11.6596 23.542 11.5672 23.5073 11.4953 23.4444V23.4444L8.67984 20.4948C8.617 20.4227 8.58238 20.3302 8.58238 20.2346C8.58238 20.1389 8.617 20.0464 8.67984 19.9743V19.9743L11.4953 17.1549C11.5672 17.092 11.6596 17.0573 11.7552 17.0573C11.8508 17.0573 11.9431 17.092 12.0151 17.1549L14.8305 20.1044Z" fill="#234858"/>
</svg>
