<svg width="32" height="32" viewBox="0 0 32 32" fill="none" xmlns="http://www.w3.org/2000/svg">
    <path d="M15.991 31.9821C24.8226 31.9821 31.9821 24.8226 31.9821 15.991C31.9821 7.15943 24.8226 0 15.991 0C7.15943 0 0 7.15943 0 15.991C0 24.8226 7.15943 31.9821 15.991 31.9821Z" fill="#496DDB"/>
    <path d="M22.7317 12.3877C22.8034 12.8538 22.8572 13.3199 22.9109 13.8039V14.6286H25.3849C25.5709 14.6221 25.757 14.6341 25.9406 14.6644C26.3709 14.7361 26.6398 14.9871 26.6577 15.3994V16.6006C26.6398 17.0129 26.3709 17.2639 25.9406 17.3356C25.757 17.3659 25.5709 17.378 25.3849 17.3714H22.8751V18.1782C22.8213 18.6622 22.7675 19.1283 22.6958 19.5944C22.6327 20.021 22.5121 20.4371 22.3373 20.8314H25.5104C25.8868 20.8314 26.2454 20.8672 26.4964 21.2258C26.6734 21.5137 26.7295 21.8601 26.6522 22.1892C26.575 22.5183 26.3707 22.8035 26.084 22.9826C26.0103 23.0419 25.9247 23.0847 25.8331 23.1081C25.1675 23.2937 24.4803 23.3901 23.7894 23.395C20.9389 23.4487 18.0168 23.4667 16.0448 23.4667C13.7143 23.4667 10.595 23.4308 8.22858 23.377C7.52942 23.3591 6.84818 23.3233 6.20281 23.0902C6.10726 23.0783 6.01868 23.034 5.95183 22.9647C5.66435 22.7863 5.45946 22.501 5.38215 22.1716C5.30484 21.8422 5.36143 21.4956 5.5395 21.2079C5.77255 20.8493 6.1311 20.8135 6.50757 20.8135H9.64482C9.48669 20.4209 9.37246 20.0121 9.30421 19.5944C9.2325 19.1283 9.17872 18.6622 9.12494 18.1782V17.3535H6.61513C6.42915 17.36 6.24299 17.348 6.05939 17.3177C5.62914 17.2459 5.36023 16.995 5.3423 16.5826V15.3815C5.36023 14.9692 5.62914 14.7182 6.05939 14.6465C6.24299 14.6161 6.42915 14.6041 6.61513 14.6107H9.12494V13.8039C9.17872 13.3199 9.2325 12.8538 9.30421 12.3877C9.36733 11.9611 9.48794 11.545 9.66275 11.1507H6.48964C6.11317 11.1507 5.75463 11.1149 5.50365 10.7563C5.32657 10.4683 5.27054 10.122 5.34778 9.79291C5.42503 9.46379 5.62927 9.17857 5.91597 8.99945C5.98971 8.94017 6.07529 8.89738 6.16695 8.87395C6.82665 8.68964 7.50779 8.5932 8.19272 8.58712C11.0431 8.53334 13.9653 8.51541 15.9373 8.51541C18.2678 8.51541 21.4051 8.55127 23.7535 8.60505C24.4527 8.62297 25.1339 8.65883 25.7793 8.89188C25.8748 8.90378 25.9634 8.94808 26.0303 9.01737C26.3177 9.19582 26.5226 9.48108 26.5999 9.81049C26.6772 10.1399 26.6207 10.4865 26.4426 10.7742C26.2095 11.1328 25.851 11.1686 25.4745 11.1686H22.3373C22.5324 11.5515 22.6656 11.963 22.7317 12.3877V12.3877Z" fill="white"/>
    <path d="M19.451 17.3714H12.6924C12.2263 17.3714 12.2263 17.3714 12.2801 17.8375C12.2896 18.2603 12.3437 18.681 12.4414 19.0924C12.5191 19.4451 12.695 19.7687 12.9488 20.0256C13.2026 20.2826 13.5239 20.4625 13.8756 20.5445C14.5206 20.7114 15.1818 20.8075 15.8476 20.8314C16.6098 20.8343 17.3692 20.7379 18.1064 20.5445C18.4581 20.4625 18.7795 20.2826 19.0333 20.0256C19.287 19.7687 19.4629 19.4451 19.5406 19.0924C19.6383 18.681 19.6924 18.2603 19.7019 17.8375C19.7378 17.4431 19.7378 17.3894 19.451 17.3714Z" fill="#496DDB"/>
    <path d="M19.5765 12.9075C19.4988 12.5548 19.3229 12.2313 19.0692 11.9743C18.8154 11.7174 18.494 11.5375 18.1423 11.4554C17.4973 11.2886 16.8361 11.1924 16.1703 11.1686C15.4081 11.1657 14.6488 11.2621 13.9115 11.4554C13.5598 11.5375 13.2385 11.7174 12.9847 11.9743C12.7309 12.2313 12.555 12.5548 12.4773 12.9075C12.3796 13.319 12.3255 13.7396 12.316 14.1625C12.2801 14.5568 12.2801 14.6106 12.549 14.6106H19.3255C19.7916 14.6106 19.7916 14.6106 19.7378 14.1445C19.7183 13.7285 19.6643 13.3147 19.5765 12.9075V12.9075Z" fill="#496DDB"/>
</svg>
