<svg width="32" height="32" viewBox="0 0 32 32" fill="none" xmlns="http://www.w3.org/2000/svg">
    <path d="M16 31.36C24.4831 31.36 31.36 24.4831 31.36 16C31.36 7.51692 24.4831 0.640015 16 0.640015C7.51692 0.640015 0.640015 7.51692 0.640015 16C0.640015 24.4831 7.51692 31.36 16 31.36Z" fill="white"/>
    <path fill-rule="evenodd" clip-rule="evenodd" d="M22.592 9.344C22.528 9.28 22.464 9.152 22.464 9.024C22.464 8.896 22.528 8.832 22.592 8.704C22.784 8.576 23.04 8.576 23.232 8.704C23.296 8.768 23.36 8.896 23.36 9.024C23.36 9.152 23.296 9.216 23.232 9.344C23.168 9.408 23.04 9.472 22.912 9.472C22.784 9.472 22.72 9.472 22.592 9.344Z" fill="black"/>
    <path fill-rule="evenodd" clip-rule="evenodd" d="M21.504 10.56C21.44 10.496 21.376 10.368 21.376 10.24C21.376 10.112 21.44 10.048 21.504 9.92001C21.632 9.79201 21.952 9.79201 22.08 9.92001C22.144 9.98401 22.208 10.112 22.208 10.24C22.208 10.368 22.144 10.432 22.08 10.56C22.016 10.624 21.888 10.688 21.76 10.688C21.696 10.624 21.568 10.624 21.504 10.56Z" fill="black"/>
    <path fill-rule="evenodd" clip-rule="evenodd" d="M20.288 11.712C20.224 11.648 20.16 11.52 20.16 11.392C20.16 11.264 20.224 11.2 20.288 11.072C20.416 10.944 20.736 10.944 20.864 11.072C20.928 11.136 20.992 11.264 20.992 11.392C20.992 11.52 20.928 11.584 20.864 11.712C20.8 11.776 20.672 11.84 20.544 11.84C20.416 11.84 20.352 11.776 20.288 11.712Z" fill="black"/>
    <path fill-rule="evenodd" clip-rule="evenodd" d="M19.1359 12.864C19.0719 12.8 19.0079 12.672 19.0079 12.544C19.0079 12.416 19.0719 12.352 19.1359 12.224C19.3279 12.096 19.5839 12.096 19.7759 12.224C19.8399 12.288 19.9039 12.416 19.9039 12.544C19.9039 12.672 19.8399 12.8 19.7759 12.864C19.7119 12.928 19.5839 12.992 19.4559 12.992C19.3279 12.992 19.2639 12.928 19.1359 12.864Z" fill="black"/>
    <path fill-rule="evenodd" clip-rule="evenodd" d="M18.048 14.016C17.984 13.952 17.92 13.824 17.92 13.696C17.92 13.568 17.984 13.504 18.048 13.376C18.176 13.248 18.496 13.248 18.624 13.376C18.688 13.44 18.752 13.568 18.752 13.696C18.752 13.824 18.688 13.952 18.624 14.016C18.56 14.08 18.432 14.08 18.368 14.08C18.24 14.144 18.112 14.08 18.048 14.016Z" fill="black"/>
    <path fill-rule="evenodd" clip-rule="evenodd" d="M16.704 14.848C16.704 14.72 16.768 14.656 16.832 14.528C16.96 14.4 17.28 14.4 17.408 14.528C17.472 14.592 17.536 14.72 17.536 14.848C17.536 14.976 17.472 15.04 17.408 15.168C17.344 15.232 17.216 15.296 17.088 15.296C16.96 15.296 16.896 15.232 16.768 15.168C16.768 15.104 16.704 14.976 16.704 14.848Z" fill="black"/>
    <path fill-rule="evenodd" clip-rule="evenodd" d="M14.592 17.408C14.528 17.344 14.464 17.216 14.464 17.088C14.464 16.96 14.528 16.896 14.592 16.768C14.72 16.64 15.04 16.64 15.168 16.768C15.232 16.832 15.296 16.96 15.296 17.088C15.296 17.216 15.232 17.28 15.168 17.408C15.104 17.472 14.976 17.536 14.848 17.536C14.784 17.536 14.656 17.472 14.592 17.408Z" fill="black"/>
    <path fill-rule="evenodd" clip-rule="evenodd" d="M13.3759 18.56C13.3119 18.496 13.2479 18.368 13.2479 18.24C13.2479 18.112 13.3119 18.048 13.3759 17.92C13.5679 17.792 13.8239 17.792 14.0159 17.92C14.0799 17.984 14.1439 18.112 14.1439 18.24C14.1439 18.368 14.0799 18.432 14.0159 18.56C13.9519 18.688 13.8239 18.688 13.6959 18.688C13.5679 18.688 13.5039 18.624 13.3759 18.56Z" fill="black"/>
    <path fill-rule="evenodd" clip-rule="evenodd" d="M12.288 19.712C12.224 19.648 12.16 19.52 12.16 19.392C12.16 19.264 12.224 19.136 12.288 19.072C12.416 18.944 12.736 18.944 12.864 19.072C12.928 19.136 12.992 19.264 12.992 19.392C12.992 19.52 12.928 19.584 12.864 19.712C12.8 19.84 12.672 19.84 12.544 19.84C12.48 19.84 12.352 19.776 12.288 19.712Z" fill="black"/>
    <path fill-rule="evenodd" clip-rule="evenodd" d="M11.1359 20.864C11.0719 20.8 11.0079 20.672 11.0079 20.544C11.0079 20.416 11.0719 20.352 11.1359 20.224C11.2639 20.096 11.5839 20.096 11.7119 20.224C11.7759 20.288 11.8399 20.416 11.8399 20.544C11.8399 20.672 11.7759 20.8 11.7119 20.864C11.6479 20.928 11.5199 20.992 11.3919 20.992C11.2639 20.992 11.1999 20.992 11.1359 20.864Z" fill="black"/>
    <path fill-rule="evenodd" clip-rule="evenodd" d="M9.91993 22.016C9.85593 21.952 9.79193 21.824 9.79193 21.696C9.79193 21.568 9.85593 21.504 9.91993 21.376C10.1119 21.248 10.3679 21.248 10.5599 21.376C10.6239 21.44 10.6879 21.568 10.6879 21.696C10.6879 21.824 10.6239 21.952 10.5599 22.016C10.4959 22.08 10.3679 22.144 10.2399 22.144C10.1119 22.144 9.98393 22.144 9.91993 22.016Z" fill="black"/>
    <path fill-rule="evenodd" clip-rule="evenodd" d="M8.83198 23.168C8.76798 23.104 8.70398 22.976 8.70398 22.848C8.70398 22.72 8.76798 22.656 8.83198 22.528C8.95998 22.4 9.27998 22.4 9.40798 22.528C9.47198 22.592 9.53598 22.72 9.53598 22.848C9.53598 22.976 9.47198 23.04 9.40798 23.168C9.34398 23.232 9.21598 23.296 9.08798 23.296C9.02398 23.296 8.89598 23.232 8.83198 23.168Z" fill="black"/>
    <path fill-rule="evenodd" clip-rule="evenodd" d="M9.40798 9.344C9.47198 9.28 9.53598 9.152 9.53598 9.024C9.53598 8.896 9.47198 8.832 9.40798 8.704C9.27998 8.576 8.95998 8.576 8.83198 8.704C8.76798 8.768 8.70398 8.896 8.70398 9.024C8.70398 9.152 8.76798 9.216 8.83198 9.344C8.89598 9.408 9.02398 9.472 9.15198 9.472C9.21598 9.472 9.34398 9.472 9.40798 9.344Z" fill="black"/>
    <path fill-rule="evenodd" clip-rule="evenodd" d="M10.5599 10.56C10.6239 10.496 10.6879 10.368 10.6879 10.24C10.6879 10.112 10.6239 10.048 10.5599 9.92001C10.3679 9.79201 10.1119 9.79201 9.91993 9.92001C9.85593 9.98401 9.79193 10.112 9.79193 10.24C9.79193 10.368 9.85593 10.432 9.91993 10.56C9.98393 10.624 10.1119 10.688 10.2399 10.688C10.3679 10.624 10.4319 10.624 10.5599 10.56Z" fill="black"/>
    <path fill-rule="evenodd" clip-rule="evenodd" d="M11.7119 11.712C11.7759 11.648 11.8399 11.52 11.8399 11.392C11.8399 11.264 11.7759 11.2 11.7119 11.072C11.5839 10.944 11.2639 10.944 11.1359 11.072C11.0719 11.136 11.0079 11.264 11.0079 11.392C11.0079 11.52 11.0719 11.584 11.1359 11.712C11.1999 11.776 11.3279 11.84 11.4559 11.84C11.5199 11.776 11.6479 11.776 11.7119 11.712Z" fill="black"/>
    <path fill-rule="evenodd" clip-rule="evenodd" d="M12.864 12.864C12.928 12.8 12.992 12.672 12.992 12.544C12.992 12.416 12.928 12.352 12.864 12.224C12.736 12.096 12.416 12.096 12.288 12.224C12.224 12.288 12.16 12.416 12.16 12.544C12.16 12.672 12.224 12.8 12.288 12.864C12.352 12.928 12.48 12.992 12.608 12.992C12.672 12.928 12.8 12.928 12.864 12.864Z" fill="black"/>
    <path fill-rule="evenodd" clip-rule="evenodd" d="M14.0159 14.016C14.0799 13.952 14.1439 13.824 14.1439 13.696C14.1439 13.568 14.0799 13.504 14.0159 13.376C13.8879 13.248 13.5679 13.248 13.3759 13.376C13.3119 13.44 13.2479 13.568 13.2479 13.696C13.2479 13.824 13.3119 13.952 13.3759 14.016C13.4399 14.08 13.5679 14.144 13.6959 14.144C13.8239 14.144 13.9519 14.08 14.0159 14.016Z" fill="black"/>
    <path fill-rule="evenodd" clip-rule="evenodd" d="M15.296 14.848C15.296 14.72 15.232 14.656 15.168 14.528C15.04 14.4 14.72 14.4 14.592 14.528C14.528 14.592 14.464 14.72 14.464 14.848C14.464 14.976 14.528 15.04 14.592 15.168C14.656 15.232 14.784 15.296 14.912 15.296C15.04 15.296 15.104 15.232 15.232 15.168C15.232 15.104 15.296 14.976 15.296 14.848Z" fill="black"/>
    <path fill-rule="evenodd" clip-rule="evenodd" d="M16.32 16.32C16.384 16.256 16.448 16.128 16.448 16C16.448 15.872 16.384 15.808 16.32 15.68C16.192 15.552 15.872 15.552 15.744 15.68C15.68 15.744 15.616 15.872 15.616 16C15.616 16.128 15.68 16.192 15.744 16.32C15.808 16.384 15.936 16.448 16.064 16.448C16.128 16.448 16.256 16.384 16.32 16.32Z" fill="black"/>
    <path fill-rule="evenodd" clip-rule="evenodd" d="M17.472 17.408C17.536 17.344 17.6 17.216 17.6 17.088C17.6 16.96 17.536 16.896 17.472 16.768C17.28 16.64 17.024 16.64 16.832 16.768C16.768 16.832 16.704 16.96 16.704 17.088C16.704 17.216 16.768 17.28 16.832 17.408C16.896 17.472 17.024 17.536 17.152 17.536C17.28 17.536 17.344 17.472 17.472 17.408Z" fill="black"/>
    <path fill-rule="evenodd" clip-rule="evenodd" d="M18.624 18.56C18.688 18.496 18.752 18.368 18.752 18.24C18.752 18.112 18.688 18.048 18.624 17.92C18.496 17.792 18.176 17.792 18.048 17.92C17.984 17.984 17.92 18.112 17.92 18.24C17.92 18.368 17.984 18.432 18.048 18.56C18.112 18.624 18.24 18.688 18.368 18.688C18.432 18.688 18.56 18.624 18.624 18.56Z" fill="black"/>
    <path fill-rule="evenodd" clip-rule="evenodd" d="M19.776 19.712C19.84 19.648 19.904 19.52 19.904 19.392C19.904 19.264 19.84 19.2 19.776 19.136C19.648 19.008 19.328 19.008 19.2 19.136C19.136 19.2 19.072 19.328 19.072 19.456C19.072 19.584 19.136 19.648 19.2 19.776C19.264 19.84 19.392 19.904 19.52 19.904C19.648 19.904 19.712 19.776 19.776 19.712Z" fill="black"/>
    <path fill-rule="evenodd" clip-rule="evenodd" d="M20.864 20.864C20.928 20.8 20.992 20.672 20.992 20.544C20.992 20.416 20.928 20.352 20.864 20.224C20.736 20.096 20.416 20.096 20.288 20.224C20.224 20.288 20.16 20.416 20.16 20.544C20.16 20.672 20.224 20.8 20.288 20.864C20.352 20.928 20.48 20.992 20.608 20.992C20.672 20.992 20.8 20.992 20.864 20.864Z" fill="black"/>
    <path fill-rule="evenodd" clip-rule="evenodd" d="M22.08 22.016C22.144 21.952 22.208 21.824 22.208 21.696C22.208 21.568 22.144 21.504 22.08 21.376C21.952 21.248 21.632 21.248 21.504 21.376C21.44 21.44 21.376 21.568 21.376 21.696C21.376 21.824 21.44 21.952 21.504 22.016C21.568 22.08 21.696 22.144 21.824 22.144C21.952 22.144 22.016 22.144 22.08 22.016Z" fill="black"/>
    <path fill-rule="evenodd" clip-rule="evenodd" d="M23.232 23.168C23.296 23.104 23.36 22.976 23.36 22.848C23.36 22.72 23.296 22.656 23.232 22.528C23.04 22.4 22.784 22.4 22.592 22.528C22.528 22.592 22.464 22.72 22.464 22.848C22.464 22.976 22.528 23.04 22.592 23.168C22.656 23.232 22.784 23.296 22.912 23.296C23.04 23.296 23.168 23.232 23.232 23.168Z" fill="black"/>
    <path fill-rule="evenodd" clip-rule="evenodd" d="M12.096 9.66401C13.248 8.89601 14.528 8.51201 16 8.51201C17.408 8.51201 18.688 8.89601 19.904 9.66401L22.4 7.16801C20.48 5.69601 18.368 4.92801 16.064 4.92801C13.76 4.92801 11.648 5.69601 9.72797 7.16801L12.096 9.66401Z" fill="black"/>
    <path fill-rule="evenodd" clip-rule="evenodd" d="M9.66397 19.84C8.89597 18.624 8.51197 17.344 8.51197 16C8.51197 14.592 8.89597 13.312 9.66397 12.16L7.23197 9.728C5.75997 11.648 5.05597 13.696 5.05597 16.064C5.05597 18.368 5.75997 20.48 7.23197 22.4L9.66397 19.84Z" fill="black"/>
    <path fill-rule="evenodd" clip-rule="evenodd" d="M19.904 22.336C18.752 23.104 17.472 23.552 16.064 23.552C14.656 23.552 13.312 23.168 12.16 22.336L9.664 24.768C11.584 26.24 13.696 27.008 16.064 27.008C18.368 27.008 20.48 26.24 22.4 24.768L19.904 22.336Z" fill="black"/>
    <path fill-rule="evenodd" clip-rule="evenodd" d="M22.272 12.096C23.04 13.312 23.488 14.592 23.424 16C23.424 17.408 23.04 18.624 22.272 19.776L24.768 22.208C26.24 20.288 27.008 18.24 27.008 15.936C27.008 13.568 26.304 11.456 24.768 9.53601L22.272 12.096Z" fill="black"/>
    <path fill-rule="evenodd" clip-rule="evenodd" d="M24.896 23.104C25.856 23.104 26.624 23.872 26.624 24.832C26.624 25.792 25.856 26.56 24.896 26.56C23.936 26.56 23.168 25.792 23.168 24.832C23.168 23.872 23.936 23.104 24.896 23.104Z" fill="black"/>
    <path fill-rule="evenodd" clip-rule="evenodd" d="M7.168 23.104C8.128 23.104 8.896 23.872 8.896 24.832C8.896 25.792 8.128 26.56 7.168 26.56C6.208 26.56 5.44 25.792 5.44 24.832C5.44 23.872 6.208 23.104 7.168 23.104Z" fill="black"/>
    <path fill-rule="evenodd" clip-rule="evenodd" d="M24.896 5.37601C25.856 5.37601 26.624 6.14401 26.624 7.10401C26.624 8.06401 25.856 8.83201 24.896 8.83201C23.936 8.83201 23.168 8.06401 23.168 7.10401C23.168 6.14401 23.936 5.37601 24.896 5.37601Z" fill="black"/>
    <path fill-rule="evenodd" clip-rule="evenodd" d="M7.10398 5.37601C8.06398 5.37601 8.83198 6.14401 8.83198 7.10401C8.83198 8.06401 8.06398 8.83201 7.10398 8.83201C6.14398 8.83201 5.37598 8.06401 5.37598 7.10401C5.37598 6.14401 6.14398 5.37601 7.10398 5.37601Z" fill="black"/>
</svg>
