<svg width="32" height="32" viewBox="0 0 32 32" fill="none" xmlns="http://www.w3.org/2000/svg">
    <path d="M16 32C24.8366 32 32 24.8366 32 16C32 7.16344 24.8366 0 16 0C7.16344 0 0 7.16344 0 16C0 24.8366 7.16344 32 16 32Z" fill="white"/>
    <path d="M21.9026 20.0981C24.1657 20.0981 26.0004 18.2634 26.0004 16.0002C26.0004 13.737 24.1657 11.9023 21.9026 11.9023C19.6394 11.9023 17.8047 13.737 17.8047 16.0002C17.8047 18.2634 19.6394 20.0981 21.9026 20.0981Z" fill="#2B5EB9"/>
    <path d="M15.6085 16.7319C15.3704 16.8098 15.1646 16.9641 15.0231 17.1709C14.95 17.2441 14.95 17.3173 14.8768 17.3905C14.7817 17.6012 14.6586 17.7981 14.5109 17.9759C14.2196 18.2833 13.8717 18.5317 13.4864 18.7076C12.7547 19.0735 11.2911 18.4881 10.6326 18.1954C10.5324 18.1038 10.4023 18.0518 10.2667 18.049C9.70946 17.8102 9.09395 17.742 8.49798 17.853C7.90201 17.9641 7.35234 18.2493 6.91848 18.6727C6.48462 19.0961 6.18606 19.6387 6.06055 20.2317C5.93504 20.8248 5.98822 21.4418 6.21337 22.0047C6.43851 22.5675 6.82551 23.051 7.32542 23.3939C7.82533 23.7368 8.4157 23.9238 9.02188 23.9312C9.62805 23.9386 10.2228 23.7661 10.7309 23.4354C11.2391 23.1048 11.6377 22.6309 11.8765 22.0737C11.9497 21.9274 11.9497 21.781 12.0229 21.6347C12.0906 21.1267 12.27 20.6401 12.5484 20.2099C12.8268 19.7797 13.1971 19.4166 13.6328 19.1467C14.2215 18.9397 14.8588 18.9142 15.4622 19.0735C15.6158 19.1245 15.7782 19.144 15.9395 19.1308C16.1009 19.1177 16.2579 19.0722 16.4013 18.9971C16.5447 18.922 16.6715 18.8188 16.7742 18.6936C16.8769 18.5685 16.9533 18.4239 16.9989 18.2686C17.0652 18.0366 17.0661 17.7909 17.0016 17.5584C16.937 17.326 16.8094 17.1159 16.633 16.9514C16.5598 16.6587 16.0475 16.5855 15.6085 16.7319Z" fill="#2B5EB9"/>
    <path d="M16.5607 25.8786C17.6923 25.8786 18.6096 24.9613 18.6096 23.8297C18.6096 22.6981 17.6923 21.7808 16.5607 21.7808C15.4291 21.7808 14.5117 22.6981 14.5117 23.8297C14.5117 24.9613 15.4291 25.8786 16.5607 25.8786Z" fill="#2B5EB9"/>
    <path d="M16.5607 10.219C17.6923 10.219 18.6096 9.30163 18.6096 8.17003C18.6096 7.03844 17.6923 6.12109 16.5607 6.12109C15.4291 6.12109 14.5117 7.03844 14.5117 8.17003C14.5117 9.30163 15.4291 10.219 16.5607 10.219Z" fill="#2B5EB9"/>
    <path d="M16.5605 12.7801C16.4514 12.715 16.3293 12.6747 16.2028 12.662C16.0763 12.6494 15.9486 12.6647 15.8288 12.707C15.7556 12.707 15.6824 12.7801 15.6092 12.7801C15.3988 12.8635 15.1765 12.9129 14.9506 12.9265C14.5325 12.9139 14.1163 12.8649 13.7066 12.7801C12.9017 12.5606 12.3163 11.0239 12.0236 10.3653C12.0236 10.219 11.9504 10.1458 11.8772 9.99945C11.7215 9.62804 11.492 9.29211 11.2026 9.01197C10.9132 8.73183 10.5701 8.51332 10.1938 8.36966C9.81755 8.226 9.41606 8.16018 9.01363 8.17618C8.6112 8.19218 8.2162 8.28967 7.85254 8.46275C7.48646 8.62501 7.15609 8.85809 6.88047 9.14857C6.60485 9.43905 6.38941 9.78119 6.24658 10.1553C6.10374 10.5294 6.03633 10.928 6.04821 11.3283C6.0601 11.7285 6.15105 12.1225 6.31583 12.4874C6.64172 13.2298 7.24613 13.8145 7.99889 14.1156C8.75165 14.4167 9.59256 14.4102 10.3405 14.0973L10.7796 13.8778C11.1816 13.5723 11.6439 13.3556 12.1358 13.2421C12.6278 13.1286 13.1383 13.1208 13.6335 13.2192C14.2047 13.4948 14.6866 13.926 15.0238 14.4632C15.1694 14.7446 15.4208 14.9567 15.7227 15.0527C16.0246 15.1488 16.3523 15.121 16.6337 14.9754C16.9151 14.8299 17.1272 14.5785 17.2232 14.2766C17.3193 13.9747 17.2915 13.647 17.1459 13.3656C17.0728 13.0729 16.8532 12.9266 16.5605 12.7801Z" fill="#2B5EB9"/>
</svg>
