<svg width="32" height="32" viewBox="0 0 32 32" fill="none" xmlns="http://www.w3.org/2000/svg">
<defs>
<radialGradient id="paint0_radial_1712_124" cx="0" cy="0" r="1" gradientUnits="userSpaceOnUse" gradientTransform="translate(15.9817 14.8303) scale(11.5778)">
<stop stop-color="#FBEFC2"/>
<stop offset="1" stop-color="#FAB162"/>
</radialGradient>
<linearGradient id="paint1_linear_1712_124" x1="16.9091" y1="1.78305" x2="16.9091" y2="8.19196" gradientUnits="userSpaceOnUse">
<stop stop-color="#74695C"/>
<stop offset="1" stop-color="#584B44"/>
</linearGradient>
<radialGradient id="paint2_radial_1712_124" cx="0" cy="0" r="1" gradientUnits="userSpaceOnUse" gradientTransform="translate(15.9485 25.175) scale(9.59773)">
<stop stop-color="white"/>
<stop offset="0.46" stop-color="#FCFDFD"/>
<stop offset="0.73" stop-color="#F4F6F7"/>
<stop offset="0.95" stop-color="#E6EAEE"/>
<stop offset="1" stop-color="#E2E7EB"/>
</radialGradient>
<clipPath id="clip0_1712_124">
<rect width="27.81" height="30" fill="white" transform="translate(2 1)"/>
</clipPath>
</defs>
<path d="M32 16C32 24.8366 24.8366 32 16 32C7.16344 32 0 24.8366 0 16C0 7.16344 7.16344 0 16 0C24.8366 0 32 7.16344 32 16Z" fill="white"/>
<g clip-path="url(#clip0_1712_124)">
<path d="M4.96624 23.7338C4.47805 23.1861 3.56905 22.0896 3.56905 22.0896C3.56905 22.0896 2.9432 21.2109 2.73816 21.1299C2.79186 21.0732 2.84849 21.0166 2.90707 20.959C3.16288 20.7061 3.45189 20.4191 3.59053 20.0139C3.7406 19.5675 3.85743 19.1106 3.94007 18.6469C3.99768 18.3677 4.05626 18.0797 4.12949 17.8043C4.12949 17.8043 4.60205 15.0519 4.60205 14.2279V13.9945C4.599 13.7183 4.56361 13.4434 4.4966 13.1754C4.42923 12.8483 4.36479 12.5388 4.43802 12.2449C4.51711 11.8895 4.73093 11.5897 4.96526 11.2685C5.0629 11.1338 5.16054 10.9941 5.25817 10.8477C5.25817 10.8477 5.4349 7.97715 5.46712 7.75063C5.55792 7.12185 5.65165 6.47159 5.84595 5.86721C5.89867 5.71099 6.05978 5.32923 6.39077 5.22671C6.48477 5.20656 6.5807 5.19674 6.67684 5.19742C6.91052 5.20827 7.14263 5.24129 7.37007 5.29603C7.49309 5.32044 7.62099 5.34485 7.7489 5.36438C7.7489 5.36438 22.2597 7.09744 22.2441 7.1902C22.2734 7.80043 22.454 7.87951 22.8143 7.32005C22.8143 7.32005 23.0877 5.12517 25.8323 5.26967C26.4249 5.40929 26.7462 6.18649 26.8223 9.66335C26.8047 10.4991 27.0039 14.3958 28.3269 18.7543C28.3269 18.7543 28.4948 19.8996 28.7409 20.3458C28.8764 20.574 29.0404 20.784 29.2291 20.9707L28.5085 22.073L28.0945 22.3796C28.0945 22.3796 6.98928 25.9482 4.96624 23.7338Z" fill="url(#paint0_radial_1712_124)"/>
<path d="M21.918 3.19098C22.6385 3.45167 23.321 3.98575 23.5553 4.7395C23.778 5.53915 23.487 6.38371 23.0486 7.05448C23.2654 6.13572 23.1912 5.14177 22.7352 4.30404C22.538 3.88323 22.205 3.55321 21.918 3.19098Z" fill="#61554C"/>
<path d="M10.9046 4.27963L11.1682 4.35677C11.4702 5.25091 11.9258 6.08553 12.5146 6.82308C12.8545 7.23914 13.2715 7.5856 13.7429 7.84339C13.7556 7.89904 13.7429 7.93224 13.7956 7.98789C13.8483 8.04355 14.3316 8.32572 14.5308 8.45557C14.1342 8.46914 13.7372 8.44725 13.3445 8.39016C13.1626 8.34894 12.9886 8.27872 12.829 8.18219C12.9208 8.08455 13.1737 8.04062 13.0379 7.87659C12.7118 7.64616 12.3359 7.47725 12.0616 7.17653C11.3158 6.39683 10.9011 5.35854 10.9046 4.27963V4.27963Z" fill="#584A45"/>
<path d="M22.2997 5.53818C22.198 5.09275 22.0096 4.67173 21.7451 4.29916C21.1046 3.42043 19.9935 3.04159 18.941 2.99278C17.7615 2.94005 16.5713 3.03769 15.4055 2.7975C15.9535 3.07976 16.5538 3.24595 17.1689 3.28569C18.0971 3.38363 18.9863 3.71113 19.7562 4.23863C20.5803 4.79125 21.4551 5.45909 21.6787 6.48428C21.6455 6.63952 21.6787 6.85726 21.4708 6.88752C21.3389 6.744 21.3175 6.54482 21.2657 6.36614C21.1466 5.81351 20.7336 5.38977 20.303 5.05097C20.0055 4.81726 19.6948 4.6008 19.3725 4.40266C18.8792 4.0831 18.3315 3.85643 17.7566 3.73384C16.5401 3.44093 15.2815 3.63035 14.0464 3.48584C13.5124 3.42921 12.9793 3.23003 12.5926 2.8473C12.287 2.55439 12.1279 2.15798 11.9443 1.78793C11.6016 2.53388 11.3233 3.35696 11.4854 4.18786C11.5358 4.40785 11.604 4.62336 11.6895 4.83226C12.1991 5.8926 12.8426 7.01348 13.9439 7.54657C14.1011 7.6159 14.0494 7.92638 13.9673 7.93712C14.4743 8.07121 14.994 8.15172 15.5178 8.17731C16.4424 8.21539 17.3837 8.21246 18.2849 7.9752C17.8748 7.81703 17.4491 7.6901 17.0673 7.46749C17.8279 7.52119 18.5621 7.7975 19.3296 7.77016C19.464 7.76566 19.5939 7.72 19.7016 7.63933C19.2817 7.60516 18.8599 7.60027 18.4421 7.55438C17.5272 7.40795 16.6549 7.0655 15.8847 6.5505C15.1146 6.03549 14.4648 5.3601 13.98 4.57059C13.9908 4.5208 14.0142 4.42121 14.0249 4.37532L14.2202 4.33626L14.4223 4.62918C14.7425 5.10582 15.1295 5.53395 15.5715 5.90041C16.628 6.744 17.9802 7.30834 19.3481 7.23023C18.8814 6.96856 18.3532 6.86311 17.8553 6.6776C17.9968 6.34466 18.3727 6.48819 18.6363 6.55946C19.396 6.77817 20.0658 7.22828 20.6291 7.77602C20.7004 7.59149 20.7707 7.40695 20.843 7.2234C21.1749 7.30346 21.2511 7.6735 21.4024 7.93126L21.7646 7.67253L22.0156 7.80043C22.2665 7.07889 22.5038 6.3017 22.2997 5.53818Z" fill="url(#paint1_linear_1712_124)"/>
<path d="M12.328 7.86195C11.5342 7.30542 11.0294 6.4384 10.7268 5.5333C10.604 5.08139 10.5585 4.61199 10.592 4.1449C10.333 3.92624 10.1065 3.67178 9.9193 3.38919C9.51097 3.96931 9.34077 4.68398 9.44381 5.38587C9.54654 5.84852 9.7462 6.28412 10.0296 6.66394C10.5997 7.39385 11.2842 8.0266 12.0566 8.5376C12.2314 8.54736 12.4061 8.55908 12.5809 8.57177C12.4471 8.35404 12.3114 8.12752 12.328 7.86195Z" fill="#574A44"/>
<path d="M10.5921 8.84806C10.9563 8.79631 11.3225 8.75042 11.6905 8.72699C10.7103 7.93808 9.6675 7.0945 9.2252 5.88184C9.16857 5.13492 8.6179 4.59108 8.42263 3.88907C8.07113 4.8176 8.09261 5.90332 8.60618 6.76839C8.93132 7.27024 9.39997 7.65982 9.89402 7.98788C10.1723 8.18315 10.5023 8.28079 10.7728 8.48973C10.722 8.58737 10.6751 8.68501 10.6243 8.78264C10.6117 8.79631 10.5921 8.83049 10.5921 8.84806Z" fill="#544842"/>
<path d="M24.9818 12.9273C25.801 12.9147 26.4932 13.3794 27.2343 13.6567C27.4251 13.8914 27.6028 14.1365 27.7664 14.3909C26.7595 14.0704 25.8169 13.575 24.9818 12.9273V12.9273Z" fill="#544842"/>
<path d="M7.6571 7.43527C8.40177 8.12407 9.34689 8.55713 10.3548 8.67136C9.63719 9.09608 8.49288 9.06191 7.98419 8.3062C7.81128 8.04407 7.69949 7.74642 7.6571 7.43527V7.43527Z" fill="#514742"/>
<path d="M3.00659 9.45537C3.7598 9.47904 4.50539 9.29855 5.16437 8.93301C5.13996 9.40363 5.1468 9.87521 5.15559 10.3458C4.44283 10.4962 3.65783 10.4913 3.00757 10.1242C3.69425 10.1853 4.3857 10.085 5.0267 9.83128C5.12434 9.71997 5.11067 9.62624 4.97203 9.55106C4.32469 9.56961 3.61585 9.76098 3.00659 9.45537Z" fill="#85775A"/>
<path d="M23.6266 9.8508C24.2046 9.72485 24.7982 9.58132 25.3938 9.70825C25.9601 9.8137 26.543 9.88986 27.0742 10.1222C26.4883 10.2492 25.8918 10.215 25.3011 10.1955C25.3206 10.3019 25.2532 10.4942 25.4104 10.5186C25.8185 10.6485 26.253 10.6436 26.6729 10.7198C25.6145 11.0869 24.2847 10.8018 23.6266 9.8508Z" fill="#695B50"/>
<path d="M26.8867 11.0078C27.327 10.8711 27.7381 10.6612 28.1667 10.4942C28.1774 10.6 28.1572 10.7066 28.1087 10.8011C28.0602 10.8957 27.9854 10.9743 27.8933 11.0273C27.0869 11.5243 26.0822 11.5751 25.1702 11.4081C24.8196 11.3557 24.5038 11.1669 24.2915 10.8828C25.0921 11.288 26.0441 11.2988 26.8867 11.0078Z" fill="#5F534D"/>
<path d="M4.61282 12.1365C4.77392 11.7684 5.02485 11.453 5.2582 11.125C5.3695 11.6444 5.44761 12.1707 5.59309 12.6872C5.65949 12.9586 5.79911 13.2447 5.65949 13.5171C5.16447 13.3218 5.13518 12.7086 5.13127 12.2478C5.10561 12.2173 5.07049 12.1963 5.03149 12.188C4.99249 12.1798 4.95186 12.1848 4.91606 12.2023C4.88025 12.2198 4.85133 12.2488 4.83389 12.2847C4.81645 12.3205 4.81149 12.3611 4.81981 12.4001C4.73486 12.9674 5.01508 13.5249 5.45347 13.8705C5.41637 14.0043 5.38122 14.1381 5.34314 14.2718C4.6919 13.8041 4.34334 12.9117 4.61282 12.1365Z" fill="#725B32"/>
<path d="M24.8471 11.6669C25.7668 11.9344 26.7481 11.8621 27.6571 11.5868C27.5047 11.826 27.3378 12.0574 27.164 12.281C26.3829 12.1541 25.594 12.033 24.8041 11.9461C24.6246 11.9299 24.4509 11.8742 24.2954 11.783C24.4721 11.7401 24.6567 11.6952 24.8471 11.6669Z" fill="#594F48"/>
<path d="M25.0853 12.3474C25.8157 12.3767 26.5352 12.5251 27.2538 12.6462C27.4403 12.4157 27.7147 12.3532 28.0017 12.3689C27.8631 12.5143 27.7166 12.652 27.5878 12.8053C27.6132 12.9742 27.7957 12.984 27.9197 13.0426C27.8651 13.1255 27.8114 13.2085 27.7577 13.2915C27.8387 13.3892 27.9246 13.4868 28.0066 13.5942C27.0098 13.2359 26.0519 12.778 25.0853 12.3474Z" fill="#564B44"/>
<path d="M26.0275 14.0141C26.2862 14.1488 26.545 14.2826 26.7998 14.4251C26.7773 14.5686 26.7539 14.7132 26.7315 14.8567C26.2639 14.7987 25.8313 14.5794 25.5081 14.2367C25.6819 14.1644 25.8537 14.0883 26.0275 14.0141Z" fill="#544741"/>
<path d="M4.72504 14.2035C4.90762 14.3519 5.08825 14.5022 5.2679 14.6526C5.10485 15.6231 4.98768 16.6005 4.89688 17.5817C4.70161 16.785 4.76019 15.9531 4.74457 15.1408C4.72188 14.8289 4.71536 14.516 4.72504 14.2035V14.2035Z" fill="#664E1B"/>
<path d="M27.1191 14.5325C27.3203 14.5908 27.5163 14.6659 27.7049 14.7571C27.9979 15.091 28.2019 15.4913 28.447 15.8604C28.2839 15.8438 27.9725 15.6485 27.9363 15.9268C27.9793 16.3554 28.1316 16.7713 28.0906 17.2078C27.8953 16.6737 27.8856 16.0693 27.6395 15.5645L27.4316 15.6085C27.2773 16.2695 27.29 16.9754 27.0039 17.6032C27.0176 16.579 27.0449 15.5538 27.1191 14.5325Z" fill="#514842"/>
<path d="M9.06696 18.5512C9.24075 18.2486 9.60103 18.1666 9.90078 18.0426C10.8703 17.9859 11.9062 18.0709 12.7479 18.5991C13.1658 18.9096 13.0593 19.5296 12.6912 19.8342C12.1054 20.1779 11.3927 20.213 10.7278 20.1759C10.2064 20.1193 9.65376 20.0099 9.2388 19.6692C9.08074 19.5345 8.97641 19.3474 8.94486 19.1422C8.91331 18.9369 8.95665 18.7272 9.06696 18.5512V18.5512ZM9.88027 18.4712C9.79728 18.7075 10.1136 18.8354 10.2757 18.6918C10.3675 18.5805 10.3128 18.4409 10.2982 18.315C10.1498 18.3101 9.90859 18.2642 9.88027 18.4712Z" fill="#010001"/>
<path d="M20.179 18.2329C20.9113 18.067 21.6641 17.9664 22.4139 18.0611C22.6443 18.1538 22.8645 18.2699 23.071 18.4077C23.3786 18.7729 23.3337 19.2865 23.0515 19.6545C22.0751 20.3038 20.7873 20.3136 19.6948 19.968C19.3208 19.7659 19.0308 19.3255 19.19 18.894C19.3862 18.5239 19.8168 18.3853 20.179 18.2329ZM20.7287 18.3091C20.4163 18.3882 20.592 18.8774 20.8908 18.7368C21.1681 18.645 21.0168 18.1841 20.7287 18.3091Z" fill="#010001"/>
<path d="M23.6394 6.7069C24.0914 6.37494 24.8569 6.1738 25.2748 6.65222C25.844 7.45578 25.7151 8.49561 25.7308 9.42414L25.596 9.40364C24.7798 9.21715 23.9616 9.43488 23.1658 9.6077C22.8483 9.34984 22.4835 9.15648 22.0918 9.03848L22.3506 8.89104C22.3784 8.71788 22.4451 8.55329 22.5458 8.40969C22.9325 7.85902 23.3357 7.31225 23.6394 6.7069Z" fill="white"/>
<path d="M17.8924 16.0156C18.2957 15.503 18.8688 15.1027 19.52 15.0022C20.0187 14.9641 20.5195 14.966 21.0178 15.008C21.4178 15.1352 21.8035 15.3034 22.1689 15.5099C21.4939 15.699 20.8791 16.0592 20.3841 16.5556C20.1156 16.7909 19.8286 17.0047 19.5386 17.2127C19.0924 17.3552 18.5622 17.4001 18.1814 17.0779C17.8505 16.8319 17.9002 16.3788 17.8924 16.0156Z" fill="white"/>
<path d="M7.08888 6.52334C7.40132 6.3349 7.77234 6.47745 8.09845 6.52334C8.37476 7.2068 8.93325 7.69499 9.49759 8.13729C8.65791 7.88245 7.88658 7.33178 7.49896 6.52823C7.38472 6.57119 7.18945 6.5624 7.24901 6.74107C7.28416 7.47335 7.40816 8.29741 7.98324 8.81294C8.48021 9.26695 9.20175 9.32553 9.83834 9.22789C9.33454 9.35092 8.92544 9.68972 8.5222 9.99337C7.88658 10.4884 7.36031 11.1016 6.84284 11.7137C6.54992 10.3751 6.3732 8.99552 6.50989 7.62664C6.58898 7.22047 6.70321 6.74498 7.08888 6.52334Z" fill="#FEFFFE"/>
<path d="M9.89107 15.9492C10.6286 15.5993 11.4695 15.5346 12.2519 15.7676C12.6356 15.9863 13.0994 16.2265 13.1922 16.703C13.2898 17.2781 12.7675 17.8375 12.1904 17.8336C11.6544 17.8785 11.1799 17.5934 10.7337 17.3386C10.3581 17.0684 9.93055 16.8789 9.47806 16.7821C9.26814 16.7489 9.05725 16.7303 8.84635 16.7069C8.92056 16.6093 8.98695 16.5009 9.0592 16.3984C9.33649 16.249 9.60402 16.0801 9.89107 15.9492Z" fill="#FEFFFD"/>
<path d="M9.88033 18.4712C9.90962 18.2642 10.1498 18.3101 10.2982 18.315C10.3129 18.4409 10.3675 18.5806 10.2758 18.6919C10.1137 18.8354 9.79734 18.7075 9.88033 18.4712Z" fill="#FCFDFE"/>
<path d="M20.7288 18.3091C21.0217 18.1832 21.1682 18.645 20.8909 18.7368C20.5921 18.8774 20.4164 18.3882 20.7288 18.3091Z" fill="#FFFCF9"/>
<path d="M15.2562 22.0193C15.6409 21.7079 16.1623 22.4099 15.6946 22.6491C15.307 22.9166 14.893 22.2849 15.2562 22.0193Z" fill="#FCFCFC"/>
<path d="M28.3738 21.9158L28.323 21.6854C28.285 21.2949 28.2625 20.8955 28.119 20.5255C27.6523 19.8479 26.7755 19.679 26.0061 19.7893C25.184 20.0012 24.4791 20.4884 23.7712 20.9365C23.4129 21.166 23.1971 21.3534 22.7411 21.536C22.7411 21.536 21.5909 22.031 20.9836 22.0183C20.3431 21.9686 19.7837 21.621 19.2262 21.3271C18.7816 21.0984 18.3504 20.8448 17.9344 20.5675C17.3877 20.3282 16.7872 20.2384 16.1975 20.1828C15.5198 20.2091 14.851 20.346 14.2174 20.588C13.7058 20.793 13.4627 21.0459 13.0692 21.247C12.539 21.5341 12.0196 21.8768 11.4093 21.9822C10.8235 22.0984 9.69972 21.6454 9.69972 21.6454C9.24082 21.4677 8.87371 21.2226 8.44801 20.9775C7.90559 20.6062 7.33938 20.2709 6.75303 19.9738C6.09691 19.7424 5.33338 19.6467 4.688 19.9641C4.31503 20.1369 3.99868 20.4933 3.95279 20.918C3.91862 21.0654 3.91569 21.2275 3.83758 21.3622C3.73697 21.4513 3.62581 21.5277 3.50659 21.5897C3.6639 21.5841 3.82044 21.6142 3.96451 21.6776C3.94401 21.7372 3.90495 21.8572 3.88542 21.9178C3.86661 21.9542 3.85564 21.9941 3.8532 22.0349C3.84998 22.0814 3.85908 22.1279 3.87957 22.1697C4.65285 23.3989 5.68878 24.4388 6.77646 25.3917C7.55365 26.0464 8.38161 26.6383 9.25254 27.1619C10.5853 27.9723 12.0411 28.5473 13.4988 29.0863C14.3336 29.4251 15.2562 29.7698 15.7903 30.5421C15.7903 30.4493 15.7903 30.2648 15.7903 30.172C16.0657 30.0549 16.2238 30.4024 16.3371 30.5919L16.3605 30.5684C16.5981 30.3008 16.8596 30.0554 17.1416 29.8352C17.7548 29.387 18.4812 29.1429 19.1832 28.8744C20.6546 28.3413 22.0879 27.6852 23.3982 26.824C23.9973 26.4408 24.5724 26.0215 25.1205 25.5684C26.3898 24.5286 27.5488 23.3394 28.3992 21.9305L28.3738 21.9158ZM16.7726 27.5222C16.3595 27.6813 15.9299 27.5661 15.5335 27.4187C15.5511 27.2888 15.5082 27.1443 15.5941 27.0281C15.929 26.8959 16.301 26.8917 16.6388 27.0164C16.8555 27.0925 16.7852 27.3513 16.7726 27.5222ZM19.3424 25.8115C18.946 25.794 18.5613 25.6631 18.1707 25.6319C16.9014 25.9951 15.4876 26.1269 14.2457 25.6075C13.8278 25.6749 13.4138 25.8115 12.9881 25.8028C12.6952 25.6661 12.6601 25.2013 12.9989 25.0988C13.872 24.952 14.7322 24.7368 15.5716 24.4554C15.2787 24.0717 14.9633 23.7016 14.6812 23.3091C14.4478 22.9244 14.3726 22.3122 14.7876 22.0203C15.2328 21.6424 15.8548 21.7118 16.3976 21.7118C16.8311 21.7118 17.293 21.8319 17.5693 22.1853C17.7763 22.4987 17.7021 22.9117 17.5527 23.2339C17.2978 23.6557 16.9219 23.9935 16.6739 24.4241C17.5527 24.7561 18.4841 24.9309 19.4078 25.1076C19.7632 25.2248 19.688 25.7549 19.3424 25.8115V25.8115Z" fill="url(#paint2_radial_1712_124)"/>
<path d="M14.7905 22.0203C15.2357 21.6425 15.8576 21.7118 16.4005 21.7118C16.834 21.7118 17.2958 21.8319 17.5721 22.1853C17.7791 22.4987 17.7049 22.9117 17.5555 23.2339C17.3007 23.6557 16.9248 23.9936 16.6768 24.4241C17.5555 24.7561 18.487 24.9309 19.4107 25.1076C19.7592 25.2267 19.684 25.7569 19.3384 25.8135C18.942 25.7959 18.5573 25.6651 18.1668 25.6339C16.8975 25.9971 15.4837 26.1289 14.2417 25.6095C13.8239 25.6768 13.4099 25.8135 12.9842 25.8047C12.6913 25.668 12.6561 25.2033 12.9949 25.1008C13.8694 24.9535 14.7309 24.7377 15.5716 24.4554C15.2786 24.0717 14.9633 23.7016 14.6811 23.3091C14.4487 22.9244 14.3736 22.3122 14.7905 22.0203ZM15.2581 22.0203C14.8949 22.2888 15.3089 22.9176 15.6965 22.6501C16.1623 22.4128 15.6409 21.7079 15.2562 22.0193L15.2581 22.0203ZM16.1486 25.007C15.7278 25.2131 15.2699 25.3224 14.8324 25.4786C15.7112 25.6807 16.6124 25.6358 17.4901 25.4835C17.0449 25.3117 16.5801 25.2023 16.1466 25.0061L16.1486 25.007Z" fill="black"/>
<path d="M29.2623 20.6253C28.7946 19.9956 28.653 19.2047 28.4265 18.4695C28.322 18.2127 28.4626 17.9471 28.4558 17.6884C28.4929 17.1914 28.3982 16.6993 28.3249 16.2102C28.5554 16.3144 28.7799 16.4311 28.9977 16.5597C29.0319 16.5604 29.0656 16.551 29.0944 16.5325C29.1233 16.5141 29.146 16.4875 29.1597 16.4561C29.1734 16.4247 29.1775 16.3899 29.1714 16.3562C29.1653 16.3225 29.1494 16.2914 29.1256 16.2668C28.8326 15.8128 28.5397 15.35 28.2195 14.9135C28.4372 14.9702 28.5895 14.8696 28.5798 14.6411C28.3083 14.5581 28.034 14.4849 27.7665 14.3892C26.7594 14.0684 25.8168 13.5726 24.9818 12.9247C25.801 12.912 26.4933 13.3767 27.2343 13.654C27.5858 13.8005 27.9363 13.9469 28.2917 14.0866C28.4021 14.1168 28.5515 14.2066 28.6471 14.0953C28.7155 13.7917 28.406 13.5769 28.2566 13.3494C28.4519 13.2361 28.8307 13.2518 28.8424 12.9647C28.6647 12.7694 28.362 12.8065 28.1287 12.7245C28.3542 12.5292 28.6061 12.3574 28.7829 12.1143C28.775 12.085 28.7613 12.0575 28.7427 12.0336C28.724 12.0096 28.7008 11.9897 28.6743 11.9748C28.6479 11.96 28.6187 11.9506 28.5885 11.9472C28.5584 11.9439 28.5278 11.9465 28.4987 11.9551C28.2468 11.9825 27.9969 12.0264 27.7459 12.0625C27.892 11.828 28.0097 11.577 28.0965 11.3146C28.28 11.134 28.4948 10.9309 28.487 10.6527C28.5134 10.3685 28.199 10.2084 28.2566 9.91354C28.0242 9.8159 27.7567 9.8657 27.5106 9.84129C27.6327 9.72315 27.8114 9.64601 27.8631 9.47027C27.6561 9.19786 27.2587 9.39997 26.9648 9.35994C26.9732 8.96353 26.9566 8.56699 26.9151 8.17267C27.0693 8.08773 27.3642 8.07503 27.331 7.82606C27.246 7.64348 27.0381 7.78115 26.8936 7.79384C26.8838 7.61711 26.8731 7.44039 26.8633 7.26367C27.0898 7.00981 27.4218 6.7374 27.3974 6.36736C27.2089 6.17209 26.9443 6.43473 26.7383 6.4855C26.6104 5.98462 26.5265 5.30116 25.9572 5.1137C25.3021 4.96236 24.6323 5.1674 23.985 5.2748C23.9679 4.94041 23.883 4.61299 23.7352 4.31251C23.5875 4.01203 23.3801 3.74479 23.1258 3.52709C22.496 2.97154 21.6758 2.70401 20.8801 2.48726C20.6536 2.37595 20.5081 2.80556 20.7483 2.86218C21.2626 3.09177 21.7142 3.44159 22.0651 3.88219C22.416 4.32278 22.6559 4.84125 22.7645 5.39392C22.7645 5.77763 22.7645 6.16232 22.7996 6.54604C22.6825 6.90339 22.5858 7.26953 22.4784 7.63078C22.6579 7.06265 22.7433 6.469 22.7313 5.87332C22.5497 4.76025 21.9277 3.65793 20.8928 3.13947C19.9008 2.62493 18.7536 2.67375 17.6708 2.63957C16.4698 2.66789 15.2298 2.54194 14.1343 2.02153C14.0384 2.07687 13.9576 2.155 13.899 2.24902C14.3419 2.64498 14.8461 2.96648 15.3919 3.20099C14.7524 3.21368 14.0894 3.23516 13.4792 3.00571C13.1572 2.88512 12.8747 2.67803 12.6628 2.40723C12.4509 2.13642 12.3179 1.81241 12.2783 1.47086C12.2568 1.30194 12.2724 1.1096 12.1103 1.00122C12.0022 1.07762 11.913 1.17783 11.8496 1.29413C11.3898 2.11819 11.0412 3.04086 11.0969 3.99966C10.841 3.86199 10.5794 3.71456 10.4027 3.47632C10.2298 3.27617 10.1898 2.97837 9.94669 2.84168C9.49606 3.33127 9.19901 3.94234 9.09236 4.59915C8.79945 4.16466 8.75845 3.63547 8.69498 3.13459L8.48213 3.08577C8.06132 3.6882 7.8719 4.43317 7.84651 5.16154C7.3834 5.0344 6.90181 4.98816 6.42296 5.02485C5.96895 5.10784 5.71607 5.55795 5.60184 5.96705C5.38527 6.79575 5.24506 7.64255 5.18297 8.49683C4.74851 8.80525 4.24685 9.00578 3.7195 9.08185C3.19215 9.15791 2.65427 9.10731 2.15036 8.93424L2.0205 8.99575C1.92872 9.33065 2.35149 9.48394 2.55751 9.66945C2.36614 9.65773 2.05858 9.48589 2 9.78173C2.75278 10.6605 4.05819 10.9622 5.16247 10.6898C4.74556 11.2756 4.19488 11.8487 4.17829 12.6083C4.14607 13.0428 4.38039 13.4392 4.37356 13.8718C4.39667 14.5066 4.37874 15.1422 4.31986 15.7747C4.22222 16.463 3.90783 17.1065 3.52802 17.6835C3.3718 17.9422 3.12283 18.119 2.87581 18.283C2.93927 18.408 3.05643 18.5993 3.21558 18.4568C3.53974 18.2869 3.74185 17.9686 3.96251 17.6933C3.62078 18.613 3.7233 19.6919 3.10525 20.5023C2.91779 20.7815 2.60926 20.9417 2.40324 21.2024C2.44913 21.4709 2.76059 21.3322 2.94318 21.3771L2.75571 21.4748C2.96563 21.88 3.47042 21.9756 3.88537 21.9219C3.9049 21.8614 3.94396 21.7413 3.96446 21.6817C3.82039 21.6183 3.66385 21.5883 3.50654 21.5939C3.62576 21.5319 3.73692 21.4555 3.83753 21.3664C3.82972 21.3166 3.81215 21.217 3.80336 21.1711L3.55634 21.0735L3.7809 20.9309C3.77309 20.8186 3.76333 20.7073 3.75161 20.595C3.58075 20.6868 3.40988 20.7806 3.24292 20.8811C4.13337 19.8442 3.91466 18.3797 4.47998 17.208C4.55907 17.8817 4.64499 18.5603 4.84417 19.2106L5.0951 19.1842C5.26596 17.5244 5.33333 15.845 5.71705 14.2154C5.78149 13.8864 5.99238 13.615 6.09783 13.3035C6.01679 12.8759 5.86643 12.4638 5.78344 12.0342C5.32845 10.0991 5.40461 8.06136 5.90549 6.14572C5.99531 5.83328 6.13201 5.45152 6.4835 5.35877C6.94337 5.29237 7.40519 5.41052 7.85042 5.51499C7.90266 5.8589 7.98566 6.19743 8.09842 6.52651C8.37473 7.20997 8.93322 7.69815 9.49756 8.14045C8.65788 7.88562 7.88655 7.33494 7.49893 6.53139C7.38469 6.57435 7.18942 6.56556 7.24897 6.74424C7.28412 7.47652 7.40812 8.30057 7.98321 8.8161C8.48018 9.27011 9.20172 9.32869 9.83831 9.23106L9.97696 9.20958C10.1634 9.1552 10.345 9.08531 10.5198 9.00063L10.5921 8.84832C10.5999 8.83074 10.6165 8.79657 10.6253 8.779C10.6731 8.68136 10.7229 8.58372 10.7737 8.48609C10.5042 8.28007 10.1742 8.1756 9.89494 7.98423C9.39699 7.65617 8.93224 7.2666 8.6032 6.76084C8.08963 5.89577 8.06815 4.80809 8.41964 3.88152C8.61492 4.58353 9.16559 5.12737 9.22222 5.87429C9.66745 7.09085 10.7102 7.93444 11.6856 8.72334C11.8379 8.78485 12.0625 8.95767 12.1631 8.85515C12.2636 8.75263 12.1787 8.6179 12.0527 8.53393C11.283 8.02322 10.6008 7.39151 10.0326 6.6632C9.74918 6.28338 9.54951 5.84778 9.44679 5.38513C9.34375 4.68324 9.51395 3.96856 9.92228 3.38845C10.1085 3.67119 10.334 3.92598 10.5921 4.14514C10.5576 4.61206 10.6021 5.08145 10.7239 5.53354C11.0266 6.43863 11.5313 7.30565 12.3251 7.86218C12.4911 7.97154 12.66 8.07503 12.826 8.18243C12.9178 8.0848 13.1707 8.04086 13.035 7.87683C12.7088 7.64641 12.3329 7.47749 12.0586 7.17677C11.3139 6.39661 10.9003 5.35838 10.9045 4.27988L11.1681 4.35701C11.4701 5.25116 11.9257 6.08577 12.5145 6.82332C12.8544 7.23939 13.2715 7.58584 13.7428 7.84363C13.8189 7.89579 13.9062 7.92924 13.9977 7.94127C14.0283 7.94298 14.0589 7.93746 14.087 7.92515C14.115 7.91284 14.1398 7.89409 14.1593 7.87042C14.1788 7.84674 14.1925 7.81881 14.1991 7.78888C14.2058 7.75895 14.2054 7.72787 14.1978 7.69815C14.1675 7.64348 14.0455 7.5888 13.9479 7.54193C12.8465 7.00884 12.2031 5.88796 11.6934 4.82762C11.608 4.61872 11.5397 4.40321 11.4894 4.18322C11.3273 3.35232 11.6055 2.52924 11.9483 1.78329C12.1318 2.15334 12.291 2.5517 12.5966 2.84266C12.9871 3.2254 13.5163 3.42848 14.0504 3.4812C15.2816 3.62571 16.5401 3.43532 17.7606 3.7292C18.3365 3.8563 18.8842 4.08795 19.3765 4.41266C19.6988 4.61081 20.0095 4.82726 20.307 5.06097C20.7376 5.3988 21.1506 5.82352 21.2697 6.37615C21.3214 6.55482 21.3429 6.754 21.4747 6.89753C21.6846 6.86726 21.6495 6.64953 21.6827 6.49429C21.4591 5.46714 20.5843 4.79931 19.7602 4.24863C18.9902 3.72113 18.101 3.39364 17.1728 3.29569C16.5577 3.25596 15.9574 3.08977 15.4095 2.80751C16.5753 3.04379 17.7655 2.94615 18.9449 3.00278C19.9975 3.0516 21.1086 3.42555 21.7491 4.30917C22.0135 4.68174 22.202 5.10276 22.3037 5.54818C22.5048 6.31171 22.2705 7.0889 22.0234 7.81044L21.7657 7.68253L21.3995 7.93248C21.2482 7.67472 21.172 7.30468 20.8401 7.22461C20.7678 7.40817 20.6975 7.59271 20.6262 7.77724C20.0629 7.2295 19.3931 6.77939 18.6335 6.56068C18.3747 6.48941 17.9988 6.34588 17.8524 6.67882C18.3503 6.86433 18.8785 6.97173 19.3452 7.23145C17.9783 7.30956 16.6251 6.74326 15.5686 5.90163C15.1267 5.53235 14.7403 5.10123 14.4214 4.62161L14.2193 4.3287L14.024 4.36775C14.0133 4.41755 13.9898 4.51714 13.9791 4.56302C14.4639 5.35253 15.1136 6.02792 15.8838 6.54293C16.6539 7.05793 17.5263 7.40038 18.4411 7.54682C18.859 7.59271 19.2808 7.59759 19.7006 7.63176L19.8451 7.54291C20.2542 7.78603 20.4632 8.28105 20.9192 8.44605C20.9406 8.26152 20.9592 8.07796 20.9768 7.89343C21.0832 8.06917 21.1857 8.24785 21.2892 8.42555L21.6973 8.18634C21.7461 8.45191 21.7608 8.73213 21.874 8.98111L22.0918 9.03578L22.3505 8.88835C22.3783 8.71518 22.4451 8.55059 22.5458 8.407C22.9363 7.85633 23.3396 7.30956 23.6432 6.70421C23.799 6.36125 23.9125 6.00059 23.9811 5.6302C24.5884 5.48765 25.2162 5.32752 25.842 5.42809C26.1632 5.52573 26.2443 5.89968 26.3302 6.18087C26.6055 7.29979 26.6231 8.46363 26.6231 9.60989C26.2824 9.52885 25.9397 9.45465 25.593 9.39899C24.7768 9.21251 23.9586 9.43024 23.1629 9.60305C23.1902 9.93893 23.4714 10.1625 23.6091 10.4525C23.8717 10.97 24.2525 11.4982 24.8393 11.6622C25.759 11.9297 26.7403 11.8575 27.6493 11.5822C27.497 11.8214 27.33 12.0528 27.1562 12.2764C26.3751 12.1494 25.5862 12.0284 24.7963 11.9415C24.6168 11.9253 24.4431 11.8696 24.2876 11.7784C24.1373 11.8145 23.9879 11.8585 23.8395 11.9014C23.8903 12.2773 24.3394 12.3086 24.6147 12.455C24.5073 12.4609 24.3999 12.4658 24.2925 12.4697C24.2642 12.5244 24.2076 12.6347 24.1802 12.6894C24.7377 13.2045 25.3573 13.6479 26.0246 14.0094C26.2833 14.1442 26.5421 14.2779 26.7969 14.4205C26.7745 14.564 26.751 14.7085 26.7286 14.852C26.261 14.794 25.8284 14.5748 25.5052 14.232L25.2699 13.9674L25.0121 14.1627C25.2067 14.449 25.4608 14.69 25.757 14.8691C26.0532 15.0482 26.3846 15.1613 26.7286 15.2006C26.7071 15.6575 26.6993 16.1155 26.6797 16.5675C26.7032 17.4355 26.5694 18.2996 26.6104 19.1656C26.7305 19.1158 26.9033 19.1061 26.9258 18.945C27.2023 18.2041 27.4306 17.4462 27.6093 16.6759C27.8309 17.6376 28.0974 18.5876 28.3904 19.5318C28.5319 19.9872 28.7286 20.4237 28.9762 20.8313C28.7926 20.7337 28.528 20.4701 28.4235 20.8059C28.407 20.8538 28.4958 20.9485 28.5886 21.0012C28.7243 21.0871 28.8658 21.1643 29.0094 21.2385C28.8141 21.2258 28.613 21.218 28.4148 21.2102C28.4372 21.3303 28.4597 21.4494 28.486 21.5695L28.323 21.6827L28.3738 21.9131L28.5554 21.9219C28.8278 21.7364 29.3365 21.7315 29.3882 21.3478C29.5522 21.3478 29.7788 21.4191 29.81 21.1858C29.6577 20.9729 29.4116 20.846 29.2623 20.6253ZM5.15563 10.3461C4.44288 10.4964 3.65788 10.4916 3.00762 10.1244C3.69429 10.1856 4.38575 10.0853 5.02675 9.83153C5.12439 9.72022 5.11072 9.62649 4.97208 9.55131C4.32279 9.56888 3.61394 9.76025 3.00469 9.45367C3.75789 9.47734 4.50348 9.29685 5.16247 8.93131C5.14001 9.40387 5.14685 9.87546 5.15563 10.3461ZM4.8969 17.581C4.70162 16.7843 4.7602 15.9524 4.74458 15.1401C4.72196 14.8288 4.71545 14.5166 4.72505 14.2047C4.90764 14.3531 5.08826 14.5035 5.26792 14.6538C5.10486 15.6234 4.9877 16.6007 4.8969 17.581ZM5.59305 12.6825C5.65944 12.954 5.79906 13.24 5.65944 13.5124C5.16442 13.3172 5.13513 12.704 5.13122 12.2432C5.10556 12.2127 5.07044 12.1916 5.03145 12.1834C4.99245 12.1751 4.95182 12.1802 4.91601 12.1977C4.88021 12.2152 4.85128 12.2442 4.83384 12.28C4.8164 12.3159 4.81145 12.3565 4.81976 12.3955C4.73482 12.9627 5.01504 13.5203 5.45343 13.8659C5.41632 13.9997 5.38118 14.1334 5.3431 14.2672C4.69186 13.8005 4.33939 12.9003 4.61277 12.1328C4.77387 11.7647 5.0248 11.4494 5.25815 11.1213C5.36946 11.6427 5.44757 12.1709 5.59305 12.6825V12.6825ZM10.3548 8.6716C9.63718 9.09632 8.49287 9.06214 7.98418 8.30643C7.81127 8.0443 7.69949 7.74666 7.6571 7.43551C8.40176 8.12431 9.34689 8.55736 10.3548 8.6716ZM23.0516 7.05375C23.2683 6.13498 23.1941 5.14104 22.7381 4.30331C22.538 3.88249 22.205 3.55248 21.9209 3.19025C22.6415 3.45094 23.324 3.98501 23.5583 4.73877C23.7809 5.5394 23.4899 6.38396 23.0516 7.05375ZM23.6266 9.85008C24.2046 9.72412 24.7983 9.5806 25.3939 9.70753C25.9602 9.81297 26.5431 9.88913 27.0742 10.1215C26.4884 10.2484 25.8918 10.2143 25.3011 10.1947C25.3206 10.3012 25.2533 10.4935 25.4105 10.5179C25.8186 10.6478 26.2531 10.6429 26.6729 10.719C25.6145 11.0871 24.2847 10.802 23.6266 9.85105V9.85008ZM25.1703 11.4074C24.8196 11.3549 24.5038 11.1662 24.2915 10.8821C25.0951 11.2873 26.049 11.298 26.8897 11.0071C27.33 10.8704 27.7411 10.6605 28.1697 10.4935C28.1803 10.5993 28.1602 10.7058 28.1117 10.8004C28.0632 10.895 27.9884 10.9735 27.8963 11.0266C27.0869 11.5246 26.0822 11.5753 25.1703 11.4084V11.4074ZM27.2539 12.6454C27.4403 12.415 27.7147 12.3525 28.0018 12.3681C27.8631 12.5136 27.7167 12.6513 27.5878 12.8046C27.6132 12.9735 27.7957 12.9833 27.9197 13.0418C27.8651 13.1248 27.8114 13.2078 27.7577 13.2908C27.8387 13.3884 27.9246 13.4861 28.0066 13.5935C27.0098 13.2352 26.0539 12.7772 25.0853 12.3467C25.8157 12.3769 26.5352 12.5214 27.2539 12.6464V12.6454ZM28.0857 17.208C27.8905 16.6739 27.8807 16.0696 27.6346 15.5648L27.4267 15.6087C27.2724 16.2697 27.2851 16.9756 26.999 17.6034C27.0176 16.5792 27.0449 15.5531 27.1191 14.5328C27.3203 14.5911 27.5163 14.6662 27.7049 14.7573C27.9978 15.0912 28.2019 15.4916 28.447 15.8606C28.2839 15.844 27.9725 15.6487 27.9363 15.927C27.9715 16.3556 28.1267 16.7716 28.0857 17.208Z" fill="#050505"/>
<path d="M15.7854 30.1711C15.7854 30.2687 15.7854 30.4484 15.7854 30.5411C15.2514 29.7707 14.3287 29.4241 13.4939 29.0853C12.0362 28.5464 10.5804 27.9713 9.24765 27.1609C8.37672 26.6373 7.54876 26.0454 6.77157 25.3907C5.68389 24.4388 4.64796 23.3989 3.87467 22.1687C3.73505 22.0633 3.58762 21.9071 3.44702 22.1258C4.29549 23.5708 5.4974 24.7698 6.78035 25.836C8.3781 27.1368 10.1705 28.1783 12.0918 28.9223C13.324 29.4183 14.7134 29.762 15.6224 30.7998C15.8723 30.9131 15.8362 30.5645 15.8674 30.4249C15.9495 30.6095 16.0119 30.8028 16.093 30.9893C16.3605 31.0713 16.3927 30.7842 16.3312 30.5987C16.2189 30.4015 16.0598 30.0539 15.7854 30.1711Z" fill="#050505"/>
<path d="M25.1156 25.5684C24.5675 26.0215 23.9923 26.4409 23.3933 26.8241C22.083 27.6842 20.6497 28.3404 19.1783 28.8744C18.4763 29.1429 17.7498 29.387 17.1367 29.8352C16.8546 30.0554 16.5932 30.3009 16.3556 30.5684C16.3995 30.6826 16.4746 30.7821 16.5723 30.8555C17.413 29.719 18.8492 29.3968 20.0873 28.8891C23.1228 27.7174 25.8801 25.7754 27.911 23.2261C28.1902 22.86 28.4733 22.4909 28.6608 22.0672L28.3943 21.9344C27.5438 23.3394 26.381 24.5306 25.1156 25.5684Z" fill="#050505"/>
<path d="M16.1466 25.006C16.5801 25.2013 17.0449 25.3116 17.4881 25.4825C16.6094 25.6348 15.7053 25.6778 14.8304 25.4776C15.2698 25.3214 15.7258 25.214 16.1466 25.006Z" fill="#FEFEFE"/>
<path d="M15.594 27.0311C15.9289 26.8988 16.3009 26.8947 16.6387 27.0193C16.8555 27.0926 16.7852 27.3513 16.7725 27.5222C16.3595 27.6813 15.9299 27.5661 15.5334 27.4187C15.551 27.2888 15.5081 27.1443 15.594 27.0311Z" fill="#E5E5E5"/>
</g>
</svg>
