<svg width="32" height="32" viewBox="0 0 32 32" fill="none" xmlns="http://www.w3.org/2000/svg">
    <path d="M16.005 0.5L16.004 0.501L2.64703 8.272L2.65003 8.277H2.64203V23.717H2.65403L2.65003 23.724L16.005 31.5L16.01 31.492L29.345 23.727L29.34 23.718H29.358L29.357 8.275L16.005 0.5Z" fill="white"/>
    <path d="M22.338 12.2168L16.0553 8.4107L9.65887 12.2168L15.9537 15.8417L22.338 12.2168Z" fill="#E72E9D"/>
    <path d="M16.1691 23.233L22.5141 19.8532L22.7014 12.3179L16.1177 16.0192L16.1691 23.233Z" fill="#20B1F9"/>
    <path d="M16.1521 23.3747L15.8966 16.0066L9.53801 12.3421L9.28473 19.5969L16.1521 23.3747Z" fill="#095198"/>
    <path d="M16.531 3.099C16.531 3.20466 16.4997 3.30795 16.441 3.3958C16.3823 3.48365 16.2988 3.55212 16.2012 3.59254C16.1036 3.63297 15.9962 3.64355 15.8926 3.62293C15.7889 3.60231 15.6937 3.55143 15.619 3.47671C15.5443 3.40199 15.4935 3.3068 15.4728 3.20317C15.4522 3.09954 15.4628 2.99212 15.5033 2.89451C15.5437 2.7969 15.6122 2.71347 15.7 2.65477C15.7879 2.59608 15.8912 2.56475 15.9968 2.56476C16.067 2.56476 16.1365 2.57858 16.2013 2.60543C16.2661 2.63228 16.325 2.67163 16.3746 2.72124C16.4242 2.77085 16.4635 2.82975 16.4904 2.89456C16.5172 2.95938 16.531 3.02885 16.531 3.099V3.099Z" fill="black"/>
    <path d="M16.531 5.779C16.531 5.88466 16.4997 5.98795 16.441 6.0758C16.3823 6.16365 16.2988 6.23212 16.2012 6.27254C16.1036 6.31297 15.9962 6.32355 15.8926 6.30293C15.7889 6.28231 15.6937 6.23143 15.619 6.15671C15.5443 6.08199 15.4935 5.9868 15.4728 5.88317C15.4522 5.77954 15.4628 5.67213 15.5033 5.57451C15.5437 5.4769 15.6122 5.39347 15.7 5.33477C15.7879 5.27608 15.8912 5.24475 15.9968 5.24476C16.067 5.24476 16.1365 5.25858 16.2013 5.28543C16.2661 5.31228 16.325 5.35163 16.3746 5.40124C16.4242 5.45085 16.4635 5.50975 16.4904 5.57456C16.5172 5.63938 16.531 5.70885 16.531 5.779V5.779Z" fill="black"/>
    <path d="M5.53863 22.3829C5.53865 22.4886 5.50732 22.5919 5.44863 22.6797C5.38993 22.7676 5.3065 22.8361 5.20888 22.8765C5.11126 22.917 5.00384 22.9276 4.90021 22.907C4.79657 22.8863 4.70137 22.8355 4.62665 22.7608C4.55193 22.686 4.50104 22.5909 4.48042 22.4872C4.45981 22.3836 4.47038 22.2762 4.51081 22.1785C4.55125 22.0809 4.61972 21.9975 4.70758 21.9388C4.79544 21.8801 4.89873 21.8487 5.00439 21.8487C5.07455 21.8487 5.14401 21.8625 5.20883 21.8894C5.27364 21.9162 5.33254 21.9556 5.38215 22.0052C5.43175 22.0548 5.47111 22.1137 5.49796 22.1785C5.52481 22.2433 5.53863 22.3128 5.53863 22.3829V22.3829Z" fill="black"/>
    <path d="M7.79547 21.1179C7.79547 21.2236 7.76413 21.3268 7.70542 21.4147C7.64672 21.5025 7.56328 21.571 7.46566 21.6114C7.36804 21.6519 7.26062 21.6625 7.15699 21.6418C7.05336 21.6212 6.95817 21.5703 6.88346 21.4956C6.80875 21.4209 6.75787 21.3257 6.73725 21.2221C6.71664 21.1185 6.72722 21.011 6.76766 20.9134C6.80809 20.8158 6.87657 20.7324 6.96442 20.6737C7.05228 20.615 7.15557 20.5836 7.26123 20.5836C7.33139 20.5836 7.40087 20.5974 7.46569 20.6243C7.53051 20.6511 7.58941 20.6905 7.63902 20.7401C7.68863 20.7897 7.72798 20.8486 7.75482 20.9134C7.78167 20.9783 7.79548 21.0477 7.79547 21.1179V21.1179Z" fill="black"/>
    <path d="M27.5752 22.366C27.5752 22.4717 27.5438 22.575 27.4851 22.6628C27.4264 22.7507 27.343 22.8192 27.2454 22.8596C27.1478 22.9 27.0404 22.9106 26.9367 22.89C26.8331 22.8694 26.7379 22.8185 26.6632 22.7438C26.5885 22.6691 26.5376 22.5739 26.517 22.4703C26.4964 22.3666 26.5069 22.2592 26.5474 22.1616C26.5878 22.064 26.6563 21.9805 26.7442 21.9218C26.832 21.8631 26.9353 21.8318 27.041 21.8318C27.1111 21.8318 27.1806 21.8456 27.2454 21.8725C27.3102 21.8993 27.3691 21.9387 27.4187 21.9883C27.4683 22.0379 27.5076 22.0968 27.5345 22.1616C27.5613 22.2264 27.5752 22.2958 27.5752 22.366V22.366Z" fill="black"/>
    <path d="M25.3275 21.101C25.3275 21.2067 25.2962 21.3099 25.2375 21.3978C25.1788 21.4856 25.0953 21.5541 24.9977 21.5945C24.9001 21.635 24.7927 21.6455 24.6891 21.6249C24.5854 21.6043 24.4902 21.5534 24.4155 21.4787C24.3408 21.404 24.29 21.3088 24.2694 21.2051C24.2487 21.1015 24.2593 20.9941 24.2998 20.8965C24.3402 20.7989 24.4087 20.7154 24.4966 20.6567C24.5844 20.5981 24.6877 20.5667 24.7934 20.5667C24.8635 20.5667 24.933 20.5806 24.9978 20.6074C25.0626 20.6342 25.1215 20.6736 25.1711 20.7232C25.2207 20.7728 25.2601 20.8317 25.2869 20.8965C25.3137 20.9614 25.3275 21.0308 25.3275 21.101V21.101Z" fill="black"/>
    <path d="M29.7871 8.029H29.7864L16.0048 0.004L16.0044 0.00475L16.0016 0L2.21773 8.02577L2.22073 8.031H2.21289V23.9666H2.22563L2.22095 23.9746L16.0048 32L16.0099 31.9913L29.7734 23.977L29.7683 23.9681H29.7871V8.029ZM15.9998 0.89129L28.629 8.24526L22.5275 11.798L16.0081 8.00161L15.9987 8.01767L15.9903 8.00322L9.46942 11.8L3.36705 8.24677L15.9998 0.89129ZM16.3632 16.2777L22.1306 12.9194V19.5477L16.3632 22.9059V16.2777ZM15.9968 15.6007L10.2339 12.2452L16.0006 8.88746L21.7631 12.2431L15.9968 15.6007ZM15.5933 30.8702L2.98274 23.528V8.91323L9.10121 12.4759V19.9877H9.10594L9.10363 19.9917L15.5933 23.7702V30.8702ZM15.5933 22.88L9.87106 19.5483V12.9241L15.5933 16.256V22.88ZM29.0173 23.5271L16.3632 30.8954V23.7961L22.8996 19.9901L22.8949 19.982H22.9004V12.4711L29.0173 8.90936V23.5271Z" fill="black"/>
</svg>
