<svg width="32" height="32" viewBox="0 0 32 32" fill="none" xmlns="http://www.w3.org/2000/svg">
    <path d="M15.9731 31.0323C24.392 31.0323 31.2169 24.2074 31.2169 15.7884C31.2169 7.36949 24.392 0.544586 15.9731 0.544586C7.55415 0.544586 0.729248 7.36949 0.729248 15.7884C0.729248 24.2074 7.55415 31.0323 15.9731 31.0323Z" fill="url(#paint0_radial)"/>
    <path d="M16.5509 28.2504C22.7208 28.2504 27.7225 23.5647 27.7225 17.7846C27.7225 12.0044 22.7208 7.31873 16.5509 7.31873C10.381 7.31873 5.37933 12.0044 5.37933 17.7846C5.37933 23.5647 10.381 28.2504 16.5509 28.2504Z" fill="url(#paint1_linear)"/>
    <path d="M16.0788 31.2396C22.74 31.2396 28.14 26.1808 28.14 19.9403C28.14 13.6999 22.74 8.64108 16.0788 8.64108C9.41752 8.64108 4.01752 13.6999 4.01752 19.9403C4.01752 26.1808 9.41752 31.2396 16.0788 31.2396Z" fill="url(#paint2_radial)"/>
    <path d="M12.6992 26.2386C12.6441 26.2327 11.3417 26.0896 10.6647 25.7027C10.5494 25.6368 7.82892 24.067 6.74162 22.1099C5.82495 20.4598 4.27237 17.4791 4.17426 16.0554C4.08498 14.7613 4.15519 11.9902 4.61272 11.0752C4.64459 11.0115 4.68395 10.9243 4.73381 10.8139C5.03224 10.1527 5.6533 8.77694 6.88639 7.5619C8.41477 6.05592 10.375 5.29048 12.7127 5.28689C12.7281 5.2867 14.4142 5.2659 16.311 5.2659C17.4254 5.2659 18.3936 5.27294 19.1887 5.28696C21.7133 5.33124 23.73 5.54475 24.6899 5.71416L24.8553 5.74302C25.5282 5.85956 25.78 5.90321 25.8344 6.39313C25.8811 6.81278 26.2557 9.85758 26.2596 9.8883L26.2696 9.97041L23.9438 11.3825H26.4429L26.6893 16.0619L23.9733 18.045H26.4256L25.5871 23.0268L20.9254 25.6701L12.7105 26.2399L12.6992 26.2386Z" fill="url(#paint3_linear)"/>
    <path d="M16.311 5.39391C17.2702 5.39391 18.2885 5.39916 19.1864 5.4149C21.8798 5.46213 23.8643 5.69842 24.6677 5.84018C25.4709 5.98194 25.66 5.98194 25.7072 6.40722C25.7545 6.8325 26.1325 9.90386 26.1325 9.90386L23.4864 11.5105H26.3215L26.5578 15.9994L23.5809 18.173H26.2743L25.471 22.9455L20.8875 25.5443L12.7129 26.1113C12.7129 26.1113 11.3898 25.9696 10.7283 25.5916C10.0668 25.2136 7.79868 23.7488 6.85366 22.0477C5.90863 20.3466 4.39657 17.4169 4.30204 16.0466C4.20751 14.6763 4.30204 11.983 4.72732 11.1324C5.1526 10.2818 6.85359 5.42386 12.7129 5.4149C12.7128 5.4149 14.393 5.39391 16.311 5.39391ZM16.311 5.13791C14.4134 5.13791 12.7264 5.15871 12.7097 5.1589C10.3401 5.16249 8.34966 5.94034 6.7965 7.47071C5.54639 8.70252 4.91874 10.093 4.61711 10.7612C4.56982 10.866 4.52892 10.9565 4.49826 11.0179C4.03036 11.9538 3.95644 14.7576 4.04655 16.0642C4.14646 17.5126 5.70793 20.5126 6.62978 22.172C7.73417 24.1599 10.4847 25.7472 10.6012 25.8138C11.3012 26.2138 12.6294 26.3599 12.6856 26.3659L12.7081 26.3683L12.7306 26.3668L20.9052 25.7997L20.9632 25.7957L21.0137 25.767L25.5972 23.1682L25.7032 23.1081L25.7234 22.988L26.5267 18.2155L26.5769 17.917H26.2742H24.3655L26.7086 16.2061L26.8206 16.1244L26.8133 15.986L26.5771 11.497L26.5643 11.2545H26.3214H24.4012L26.2653 10.1227L26.4067 10.0368L26.3865 9.87256C26.3827 9.84184 26.0082 6.79781 25.9616 6.37893C25.8966 5.79346 25.5559 5.73445 24.8772 5.61688C24.8253 5.60786 24.7703 5.59839 24.7122 5.58809C23.7477 5.41791 21.723 5.20338 19.1909 5.15897C18.3951 5.14501 17.4261 5.13791 16.311 5.13791Z" fill="#692CC2"/>
    <path d="M4.44244 16.0572C4.44244 16.0572 4.57044 17.7213 5.25313 19.2573C5.93582 20.7934 7.60296 23.2227 8.19726 23.8655C9.08174 24.8222 10.8003 25.9434 11.867 26.0714C12.9336 26.1994 15.849 25.9962 16.5091 25.9869C16.9379 25.9809 20.418 25.6296 20.8874 25.5443C21.3567 25.459 25.3588 23.1676 25.4709 22.9455C25.5625 22.7638 25.6134 22.0989 25.6134 22.0989L22.3531 22.8493L12.5315 23.3135C12.2099 23.3264 11.7314 23.2735 11.3533 23.2408C10.8774 23.1995 10.4223 23.1098 9.86964 22.9353C9.2772 22.7482 8.53595 22.3651 7.9307 21.906C7.07924 21.26 6.05832 20.2458 5.46664 18.788C5.09083 17.8625 4.44244 16.0572 4.44244 16.0572Z" fill="white"/>
    <path d="M9.16888 11.5577L10.3502 9.95112C10.3502 9.95112 10.303 9.52583 12.5238 9.4786C14.7446 9.43137 25.6126 9.80936 25.6126 9.80936L23.3917 11.5577H9.16888Z" fill="url(#paint4_linear)"/>
    <path d="M25.9907 16.0467L23.2028 18.173L10.87 18.551C10.87 18.551 9.78322 17.6532 9.59416 17.2989C9.40517 16.9445 9.16888 16.4719 9.16888 16.4719C9.16888 16.4719 22.0215 16.3774 23.25 16.3302C24.4786 16.2829 25.9907 16.0467 25.9907 16.0467Z" fill="url(#paint5_linear)"/>
    <path d="M24.573 23.0872C24.573 23.0872 20.9819 25.2136 20.6983 25.3081C20.4148 25.4026 13.574 25.8749 12.9017 25.8751C12.0345 25.8753 10.9644 25.5916 10.2556 25.0719C9.54679 24.5521 8.46001 23.5126 8.22372 23.0873C7.98743 22.662 7.32593 21.906 7.32593 21.906C7.32593 21.906 8.93252 22.9455 10.0665 23.2763C11.2006 23.607 13.5904 23.5322 14.6773 23.4849C15.7641 23.4377 24.573 23.0872 24.573 23.0872Z" fill="url(#paint6_linear)"/>
    <path d="M23.2393 4.3349C23.2393 4.3349 20.7187 3.57874 19.0984 3.61477C17.478 3.6508 15.3896 3.7948 14.3093 4.15486C13.2291 4.51493 12.797 4.73099 12.797 4.73099C12.797 4.73099 13.4812 5.55915 13.4092 6.35134C13.3372 7.14353 12.545 8.07972 11.6088 8.33176C10.6726 8.58379 9.73639 8.72785 9.01619 8.58379C8.296 8.43979 6.63968 7.50353 6.63968 7.50353L5.37939 6.60331C5.37939 6.60331 6.63968 4.87493 8.72813 3.86674C10.8166 2.85855 12.9411 1.99435 15.6056 1.99435C18.2702 1.99435 20.1786 2.60651 21.2949 3.14661C22.4111 3.68677 23.2393 4.3349 23.2393 4.3349Z" fill="white"/>
    <path d="M5.37933 6.60339C5.37933 6.60339 4.42067 7.81671 4.17753 8.35149C3.9344 8.88634 3.13216 10.4422 2.9863 11.9738C2.84045 13.5053 2.81613 14.6923 2.9863 15.4967C3.15648 16.3011 3.44819 17.4194 3.44819 17.4194C3.44819 17.4194 4.44493 13.3109 4.59078 12.3142C4.73664 11.3174 5.44166 9.20243 6.04941 8.47309C6.65715 7.74375 7.21632 6.86861 7.21632 6.86861L5.37933 6.60339Z" fill="url(#paint7_linear)"/>
    <path d="M7.21625 6.86853C7.21625 6.86853 6.15327 8.25618 5.92403 8.64101C5.69478 9.02584 4.74624 10.5466 4.68793 11.3174C4.62963 12.0881 4.46912 13.7241 4.46912 13.7241C4.46912 13.7241 6.17087 10.661 6.63276 10.1261C7.09465 9.59128 8.43173 7.81663 8.43173 7.81663L7.21625 6.86853Z" fill="url(#paint8_linear)"/>
    <defs>
        <radialGradient id="paint0_radial" cx="0" cy="0" r="1" gradientUnits="userSpaceOnUse" gradientTransform="translate(8.69737 6.38594) scale(16.4558)">
            <stop stop-color="#21FFE3"/>
            <stop offset="1" stop-color="#8549DF"/>
        </radialGradient>
        <linearGradient id="paint1_linear" x1="17.0442" y1="28.267" x2="16.1487" y2="9.2382" gradientUnits="userSpaceOnUse">
            <stop stop-color="#21FFE3"/>
            <stop offset="1" stop-color="#8549DF"/>
        </linearGradient>
        <radialGradient id="paint2_radial" cx="0" cy="0" r="1" gradientUnits="userSpaceOnUse" gradientTransform="translate(16.0788 19.9403) scale(14.2632)">
            <stop stop-color="#21FFE3"/>
            <stop offset="0.1916" stop-color="#23FCE3" stop-opacity="0.8084"/>
            <stop offset="0.3419" stop-color="#28F2E3" stop-opacity="0.6581"/>
            <stop offset="0.478" stop-color="#31E1E2" stop-opacity="0.522"/>
            <stop offset="0.6059" stop-color="#3ECAE2" stop-opacity="0.3941"/>
            <stop offset="0.728" stop-color="#4FACE1" stop-opacity="0.272"/>
            <stop offset="0.8458" stop-color="#6386E0" stop-opacity="0.1542"/>
            <stop offset="0.958" stop-color="#7B5BDF" stop-opacity="0.042"/>
            <stop offset="1" stop-color="#8549DF" stop-opacity="0"/>
        </radialGradient>
        <linearGradient id="paint3_linear" x1="5.68447" y1="8.50573" x2="25.1975" y2="19.975" gradientUnits="userSpaceOnUse">
            <stop stop-color="#21FFE3"/>
            <stop offset="1" stop-color="#F8FFFB"/>
        </linearGradient>
        <linearGradient id="paint4_linear" x1="9.16886" y1="10.5161" x2="25.6126" y2="10.5161" gradientUnits="userSpaceOnUse">
            <stop stop-color="#692CC2"/>
            <stop offset="0.5189" stop-color="#3E5BDE"/>
            <stop offset="1" stop-color="#229EE7"/>
        </linearGradient>
        <linearGradient id="paint5_linear" x1="9.16892" y1="17.2988" x2="25.9907" y2="17.2988" gradientUnits="userSpaceOnUse">
            <stop stop-color="#692CC2"/>
            <stop offset="0.5189" stop-color="#3E5BDE"/>
            <stop offset="1" stop-color="#229EE7"/>
        </linearGradient>
        <linearGradient id="paint6_linear" x1="7.32601" y1="23.8905" x2="24.5731" y2="23.8905" gradientUnits="userSpaceOnUse">
            <stop stop-color="#677CF4"/>
            <stop offset="0.2764" stop-color="#374CD7"/>
            <stop offset="0.3631" stop-color="#3752D8"/>
            <stop offset="0.4747" stop-color="#3562DB"/>
            <stop offset="0.5999" stop-color="#337CE1"/>
            <stop offset="0.7351" stop-color="#30A1E9"/>
            <stop offset="0.8766" stop-color="#2DD0F2"/>
            <stop offset="1" stop-color="#29FFFC"/>
        </linearGradient>
        <linearGradient id="paint7_linear" x1="5.20342" y1="9.25964" x2="2.27851" y2="16.7049" gradientUnits="userSpaceOnUse">
            <stop stop-color="#F8FFFB"/>
            <stop offset="1" stop-color="#F8FFFB" stop-opacity="0"/>
        </linearGradient>
        <linearGradient id="paint8_linear" x1="6.53119" y1="9.66364" x2="6.0434" y2="16.3534" gradientUnits="userSpaceOnUse">
            <stop stop-color="#F8FFFB"/>
            <stop offset="1" stop-color="#F8FFFB" stop-opacity="0"/>
        </linearGradient>
    </defs>
</svg>
