<svg width="32" height="32" viewBox="0 0 32 32" fill="none" xmlns="http://www.w3.org/2000/svg">
    <path d="M16 32C24.8366 32 32 24.8366 32 16C32 7.16344 24.8366 0 16 0C7.16344 0 0 7.16344 0 16C0 24.8366 7.16344 32 16 32Z" fill="url(#paint0_linear_1024_759)"/>
    <path d="M9.43029 10.7489C9.61536 10.4027 9.88275 10.1074 10.2089 9.88902L15.6787 6.0566L10.0742 15.3551C10.0742 15.3551 9.58453 14.5248 9.39355 14.1047C9.15555 13.5762 9.03554 13.0022 9.04188 12.4227C9.04823 11.8432 9.18077 11.272 9.43029 10.7489V10.7489ZM7.17282 17.1632C7.23416 18.0517 7.48428 18.9169 7.90649 19.701C8.32871 20.4852 8.9133 21.1703 9.62126 21.7106L15.6713 25.9434C15.6713 25.9434 11.8861 20.4699 8.69332 15.0235C8.37001 14.4478 8.15273 13.8187 8.05183 13.1662C8.00714 12.8706 8.00714 12.57 8.05183 12.2745C7.96859 12.4292 7.80699 12.7461 7.80699 12.7461C7.48319 13.4088 7.26272 14.1172 7.15325 14.8466C7.09021 15.6178 7.09676 16.3932 7.17282 17.1632V17.1632ZM22.598 17.9002C22.4021 17.4801 21.9173 16.6498 21.9173 16.6498L16.3226 25.9434L21.7925 22.1135C22.1186 21.895 22.386 21.5997 22.571 21.2536C22.8206 20.7305 22.9531 20.1593 22.9595 19.5797C22.9658 19.0002 22.8458 18.4262 22.6078 17.8978L22.598 17.9002ZM24.8187 14.8392C24.7574 13.9508 24.5072 13.0856 24.085 12.3014C23.6628 11.5173 23.0782 10.8322 22.3703 10.2919L16.33 6.0566C16.33 6.0566 20.1128 11.5301 23.308 16.9765C23.6305 17.5524 23.847 18.1814 23.9471 18.8338C23.9918 19.1294 23.9918 19.43 23.9471 19.7256C24.0303 19.5707 24.1919 19.2538 24.1919 19.2538C24.5157 18.5912 24.7362 17.8828 24.8457 17.1534C24.9095 16.3823 24.9038 15.6069 24.8285 14.8368L24.8187 14.8392Z" fill="white"/>
    <defs>
        <linearGradient id="paint0_linear_1024_759" x1="24.0013" y1="29.8587" x2="7.99866" y2="2.14128" gradientUnits="userSpaceOnUse">
            <stop offset="0.0454" stop-color="#44BCF0"/>
            <stop offset="0.592" stop-color="#7298F8"/>
            <stop offset="1" stop-color="#A099FF"/>
        </linearGradient>
    </defs>
</svg>
