<svg width="32" height="32" viewBox="0 0 32 32" fill="none" xmlns="http://www.w3.org/2000/svg">
    <g clip-path="url(#clip0_1027_17)">
        <path d="M16 32C19.1645 32 22.2579 31.0616 24.8891 29.3035C27.5203 27.5454 29.5711 25.0466 30.7821 22.1229C31.9931 19.1993 32.3099 15.9823 31.6926 12.8786C31.0752 9.77487 29.5513 6.92394 27.3137 4.6863C25.0761 2.44866 22.2251 0.924806 19.1214 0.307443C16.0177 -0.309921 12.8007 0.0069325 9.87706 1.21793C6.95345 2.42894 4.45459 4.4797 2.69649 7.11088C0.938384 9.74207 1.12515e-10 12.8355 1.12511e-10 16C-7.87925e-06 18.1012 0.413839 20.1817 1.21791 22.123C2.02198 24.0642 3.20054 25.828 4.68627 27.3137C6.17201 28.7995 7.93584 29.978 9.87706 30.7821C11.8183 31.5862 13.8988 32 16 32V32Z" fill="#0B2841"/>
        <path d="M15.625 30.7002C15.5552 30.7004 15.4868 30.6808 15.4277 30.6436L6.07325 24.8496C6.00709 24.8088 5.95528 24.7485 5.925 24.6769C5.89473 24.6053 5.88749 24.5261 5.90431 24.4502L8.73194 11.6797C8.75039 11.5963 8.79674 11.5217 8.86333 11.4683C8.92992 11.4148 9.01275 11.3857 9.09815 11.3857H22.3945C22.4798 11.3857 22.5626 11.4147 22.6292 11.4681C22.6958 11.5214 22.7422 11.5959 22.7607 11.6792L25.6025 24.4502C25.6197 24.5269 25.6123 24.6071 25.5812 24.6793C25.5502 24.7515 25.4972 24.8121 25.4297 24.8525L15.8184 30.6464C15.7601 30.6818 15.6932 30.7004 15.625 30.7002V30.7002ZM6.69435 24.3525L15.6274 29.8857L24.8115 24.3496L22.0938 12.1357H9.39942L6.69435 24.3525Z" fill="#BABABA"/>
        <path d="M15.625 30.6963C15.499 30.7014 15.3748 30.6645 15.2721 30.5913C15.1694 30.5181 15.0939 30.4128 15.0576 30.292L8.73049 11.9565C8.69988 11.8679 8.69052 11.7732 8.70315 11.6803C8.71579 11.5873 8.75007 11.4987 8.80324 11.4214L15.1304 2.20165C15.185 2.12207 15.258 2.05682 15.3431 2.01143C15.4283 1.96604 15.5231 1.94185 15.6197 1.94091C15.7168 1.93663 15.8133 1.9576 15.8999 2.00176C15.9865 2.04593 16.0602 2.11179 16.1138 2.19291L22.6807 11.4126C22.7369 11.4914 22.7732 11.5826 22.7865 11.6784C22.7998 11.7743 22.7896 11.8719 22.7569 11.9629L16.19 30.2989C16.1484 30.4153 16.0717 30.5161 15.9706 30.5872C15.8694 30.6584 15.7487 30.6965 15.625 30.6963V30.6963ZM9.96389 11.8511L15.6358 28.2881L21.5215 11.8535L15.6343 3.58786L9.96389 11.8511Z" fill="white"/>
    </g>
    <defs>
        <clipPath id="clip0_1027_17">
            <rect width="32" height="32" fill="white"/>
        </clipPath>
    </defs>
</svg>
