<svg width="32" height="32" viewBox="0 0 32 32" fill="none" xmlns="http://www.w3.org/2000/svg">
    <g clip-path="url(#clip0_1028_33)">
        <path d="M16 32C19.1645 32 22.2579 31.0616 24.8891 29.3035C27.5203 27.5454 29.5711 25.0466 30.7821 22.1229C31.9931 19.1993 32.3099 15.9823 31.6926 12.8786C31.0752 9.77487 29.5513 6.92394 27.3137 4.6863C25.0761 2.44866 22.2251 0.924806 19.1214 0.307443C16.0177 -0.309921 12.8007 0.0069325 9.87706 1.21793C6.95345 2.42894 4.45459 4.4797 2.69649 7.11088C0.938384 9.74207 1.12515e-10 12.8355 1.12511e-10 16C-7.87925e-06 18.1012 0.413839 20.1817 1.21791 22.123C2.02198 24.0642 3.20054 25.828 4.68627 27.3137C6.17201 28.7995 7.93584 29.978 9.87706 30.7821C11.8183 31.5862 13.8988 32 16 32V32Z" fill="white"/>
        <path d="M11.1403 11.151L16 4L20.8598 11.151L16 26.5799L11.1403 11.151Z" fill="#29A1DD"/>
        <path d="M15.0728 28L8.43994 23.699L10.4607 13.4573L15.0728 28Z" fill="#29A1DD"/>
        <path d="M16.9272 28L23.5601 23.699L21.5393 13.4573L16.9272 28Z" fill="#29A1DD"/>
    </g>
    <defs>
        <clipPath id="clip0_1028_33">
            <rect width="32" height="32" fill="white"/>
        </clipPath>
    </defs>
</svg>
