<svg width="32" height="32" viewBox="0 0 32 32" fill="none" xmlns="http://www.w3.org/2000/svg">
   <defs>
        <linearGradient id="paint0_linear" x1="5.5" y1="16" x2="19.7453" y2="16" gradientUnits="userSpaceOnUse">
            <stop stop-color="#313F54"/>
            <stop offset="1" stop-color="#4E3759"/>
        </linearGradient>
        <linearGradient id="paint1_linear" x1="13.3434" y1="16.0141" x2="21.3472" y2="16.0141" gradientUnits="userSpaceOnUse">
            <stop stop-color="#412F5B"/>
            <stop offset="1" stop-color="#513A57"/>
        </linearGradient>
        <linearGradient id="paint2_linear" x1="14.8011" y1="17.5626" x2="26.5" y2="17.5626" gradientUnits="userSpaceOnUse">
            <stop stop-color="#326FD3"/>
            <stop offset="0.3" stop-color="#6227F1"/>
            <stop offset="1" stop-color="#DB79CF"/>
        </linearGradient>
        <linearGradient id="paint3_linear" x1="7.56233" y1="16.6989" x2="26.1199" y2="16.6989" gradientUnits="userSpaceOnUse">
            <stop stop-color="#6063D9"/>
            <stop offset="0.12787" stop-color="#6661DA"/>
            <stop offset="0.29518" stop-color="#765DDC"/>
            <stop offset="0.48436" stop-color="#9155E0"/>
            <stop offset="0.675" stop-color="#B44BE5"/>
            <stop offset="0.676" stop-color="#B046E8"/>
            <stop offset="1" stop-color="#D471D3"/>
        </linearGradient>
        <linearGradient id="paint4_linear" x1="6.81303" y1="15.3002" x2="25.5477" y2="15.3002" gradientUnits="userSpaceOnUse">
            <stop stop-color="#57B4E8"/>
            <stop offset="1" stop-color="#3571D5"/>
        </linearGradient>
    </defs>
    <path d="M16 32C24.8366 32 32 24.8366 32 16C32 7.16344 24.8366 0 16 0C7.16344 0 0 7.16344 0 16C0 24.8366 7.16344 32 16 32Z" fill="#313131"/>
    <path d="M19.7453 7.42968C6.43485 13.6032 5.7141 19.242 12.2029 24.5746C12.2029 24.5746 8.1286 25.0283 6.30159 22.1798C4.52165 19.4827 5.73574 15.0012 9.64734 11.4409C14.3973 7.21692 18.7322 7.331 19.7453 7.42968Z" fill="url(#paint0_linear)"/>
    <path d="M13.3434 19.6464C15.2126 19.3201 16.9091 18.3512 18.1399 16.907C19.1238 15.8085 19.7164 14.4152 19.8252 12.9445L19.8086 12.8578C19.4636 12.6089 19.0653 12.4439 18.6453 12.376C19.0652 12.1899 19.5257 12.1144 19.983 12.1565C20.4403 12.1985 20.8792 12.3569 21.2581 12.6165C21.2581 12.6165 21.6546 13.0293 20.7746 15.5607C19.8946 18.0921 15.3425 20.6561 13.3434 19.6464Z" fill="url(#paint1_linear)"/>
    <path d="M14.8013 24.4209C14.7613 23.6003 19.4565 22.3545 22.0023 18.8689C24.5482 15.3833 24.6423 12.1564 26.1416 10.7044C27.1303 13.1923 26.0113 16.582 23.5495 19.3475C21.2598 21.9415 18.1899 23.7218 14.8013 24.4209V24.4209Z" fill="url(#paint2_linear)"/>
    <path d="M25.526 9.62336C21.5787 6.6556 7.98379 12.1564 12.1607 19.1455C12.2753 18.0398 12.6367 16.9739 13.2181 16.0265C13.7995 15.0791 14.5861 14.2742 15.52 13.6712C17.0862 12.5676 19.5524 11.731 21.1241 12.8646C23.0743 16.2271 21.1042 19.1206 18.0299 21.022C14.5727 23.1605 9.47863 23.684 7.56232 22.0847L7.5929 22.1798C9.51382 25.0453 13.3598 24.6895 14.7813 24.4194C17.6679 23.3049 20.2161 21.4608 22.1771 19.0672C24.1281 16.7087 24.7908 13.884 26.1199 10.7044C25.9698 10.3197 25.7701 9.95634 25.526 9.62336V9.62336Z" fill="url(#paint3_linear)"/>
    <path d="M24.6351 9.14352C25.5477 9.96921 25.0667 13.4496 24.3644 15.2945L26.1381 10.6956C25.992 10.3243 25.8023 9.97168 25.573 9.64508C25.2929 9.42318 24.9752 9.2533 24.6351 9.14352V9.14352Z" fill="#DC8DDC"/>
    <path d="M24.6351 9.14352C25.5477 9.96921 25.0667 13.4496 24.3644 15.2945C25.0581 13.4855 25.4659 11.5796 25.573 9.64508C25.2929 9.42318 24.9752 9.2533 24.6351 9.14352V9.14352Z" fill="#DB93DB"/>
    <path d="M21.0583 7.42968C21.925 7.42497 22.7811 7.62049 23.5598 8.001C24.3385 8.38151 25.0188 8.93672 25.5477 9.62336C23.2952 7.9738 18.7177 9.12542 16.1804 10.4436C12.3114 12.4535 10.1385 15.6766 12.1824 19.1455C14.4082 20.9603 20.7747 18.016 21.1201 12.8578C22.7955 15.5824 21.7815 18.6281 18.2576 20.8878C16.7114 22.1191 10.1711 24.6011 7.61464 22.1798C5.8347 19.4827 7.04879 15.0012 10.9604 11.4408C15.7103 7.21692 20.0452 7.331 21.0583 7.42968Z" fill="url(#paint4_linear)"/>
    <path d="M11.3526 11.1444L11.2941 11.1506C11.1831 11.245 11.0719 11.3418 10.9604 11.4409C7.04879 15.0012 5.8347 19.4827 7.61464 22.1798C7.64764 22.2111 7.68153 22.2414 7.71588 22.271C7.40591 18.2268 8.71393 14.2248 11.3526 11.1444V11.1444Z" fill="black" fill-opacity="0.04"/>
</svg>
