<svg width="32" height="32" viewBox="0 0 32 32" fill="none" xmlns="http://www.w3.org/2000/svg">
    <path d="M16 32C24.8366 32 32 24.8366 32 16C32 7.16344 24.8366 0 16 0C7.16344 0 0 7.16344 0 16C0 24.8366 7.16344 32 16 32Z" fill="#00CA4C"/>
    <path d="M16 31.5C24.5604 31.5 31.5 24.5604 31.5 16C31.5 7.43959 24.5604 0.5 16 0.5C7.43959 0.5 0.5 7.43959 0.5 16C0.5 24.5604 7.43959 31.5 16 31.5Z" fill="white"/>
    <path d="M9.00092 16.0127L16.4569 12.0338L23.8168 15.9839L16.4633 19.9662L9.00092 16.0127Z" fill="#009F42"/>
    <path d="M9.00092 16.0127L16.4569 12.0338L23.8168 15.9839L16.4633 19.9662L9.00092 16.0127Z" fill="#01C853"/>
    <path d="M16.457 12.0338L23.8168 15.9839L16.4634 19.9662L16.457 12.0338Z" fill="#009F42"/>
    <path d="M16.4569 16.6229L23.8168 15.9838L16.4633 19.9661L16.4569 16.6229H16.4569Z" fill="#007831"/>
    <path d="M16.4569 16.6229L9.00092 16.0127L16.4505 19.9661L16.4569 16.6229H16.4569Z" fill="#009F42"/>
    <path d="M9 17.0709C11.6117 18.4562 14.3331 19.9082 16.4402 21.0309L23.8195 17.072C21.1477 21.0423 18.9221 24.3447 16.4401 28.0001C13.9551 24.3524 11.2092 20.3261 9 17.0709Z" fill="#009F42"/>
    <path d="M9 17.0709C11.6117 18.4562 14.3331 19.9082 16.4402 21.0309L23.8195 17.072C21.1477 21.0423 18.9221 24.3447 16.4401 28.0001C13.9551 24.3524 11.2092 20.3261 9 17.0709Z" fill="#01C853"/>
    <path d="M16.4401 21.0308L23.8194 17.0719C21.1476 21.0422 16.4401 28 16.4401 28L16.4401 21.0308Z" fill="#009F42"/>
    <path d="M16.4401 21.0308L23.8194 17.0719C21.1476 21.0422 18.922 24.3447 16.4401 28L16.4401 21.0308Z" fill="#009F42"/>
    <path d="M16.439 10.9273L9.00122 14.8439L16.4068 4L23.817 14.8676L16.439 10.9273Z" fill="#01C853"/>
    <path d="M16.4388 10.9273L16.4065 4L23.8168 14.8676L16.4388 10.9273Z" fill="#009F42"/>
</svg>
