<svg width="32" height="32" viewBox="0 0 32 32" fill="none" xmlns="http://www.w3.org/2000/svg">
    <circle cx="16" cy="16" r="16" fill="#1F53EB"/>
    <path fill-rule="evenodd" clip-rule="evenodd" d="M15.9998 4C9.3722 4 3.99983 9.37239 3.99983 16C3.99732 17.9517 4.47275 19.8744 5.38461 21.6L6.73672 20.2479L9.55924 17.3606C9.85432 17.5514 10.1997 17.6497 10.5511 17.6428C10.9025 17.6359 11.2437 17.524 11.5311 17.3217L12.7598 18.5504L13.882 17.4282L12.2826 15.8282C12.2709 15.3629 12.0763 14.921 11.741 14.5983C11.4057 14.2755 10.9567 14.0979 10.4913 14.1039C10.026 14.1099 9.58175 14.2991 9.2549 14.6304C8.92804 14.9617 8.7449 15.4084 8.74516 15.8738C8.74516 15.9093 8.74761 15.944 8.75008 15.9789L8.75008 15.9789L8.75136 15.9972L6.14855 18.5994C5.75093 17.0891 5.70589 15.5076 6.01692 13.9771C6.32795 12.4466 6.98672 11.0081 7.94232 9.77277C8.89792 8.53746 10.1248 7.5384 11.528 6.85281C12.9313 6.16722 14.4734 5.81346 16.0351 5.81887C17.5969 5.82428 19.1365 6.18871 20.535 6.884C21.9335 7.57929 23.1534 8.58683 24.1004 9.82873C25.0474 11.0706 25.6962 12.5137 25.9966 14.0463C26.297 15.5789 26.2411 17.1601 25.833 18.6676L21.6972 14.5318L21.6882 14.5408C21.6945 14.4806 21.6977 14.42 21.6978 14.3594C21.6978 13.8786 21.5068 13.4175 21.1668 13.0775C20.8268 12.7375 20.3657 12.5465 19.8848 12.5465C19.404 12.5465 18.9429 12.7375 18.6029 13.0775C18.2629 13.4175 18.0719 13.8786 18.0719 14.3594C18.0723 14.4396 18.0781 14.5196 18.0894 14.5989L9.10572 23.5003L8.99643 23.6056L7.82291 24.7814C10.0411 26.8535 12.9644 28.0042 15.9998 28C22.6274 28 27.9997 22.6276 27.9997 16C27.9997 9.37239 22.6274 4 15.9998 4ZM15.9998 26.187C13.9982 26.19 12.0405 25.6005 10.3733 24.493L19.1057 15.9944C19.3773 16.1249 19.6773 16.1852 19.9783 16.1699C20.2792 16.1545 20.5716 16.064 20.8285 15.9065L25.233 20.311C24.4125 22.0674 23.108 23.5533 21.4724 24.5942C19.8369 25.635 17.9384 26.1876 15.9998 26.187ZM19.9279 15.2231C20.3809 15.2231 20.7482 14.8558 20.7482 14.4028C20.7482 13.9498 20.3809 13.5825 19.9279 13.5825C19.4749 13.5825 19.1076 13.9498 19.1076 14.4028C19.1076 14.8558 19.4749 15.2231 19.9279 15.2231ZM11.338 15.8706C11.338 16.3236 10.9708 16.6909 10.5177 16.6909C10.0647 16.6909 9.69746 16.3236 9.69746 15.8706C9.69746 15.4175 10.0647 15.0503 10.5177 15.0503C10.9708 15.0503 11.338 15.4175 11.338 15.8706Z" fill="white"/>
</svg>
