<svg width="32" height="32" viewBox="0 0 32 32" fill="none" xmlns="http://www.w3.org/2000/svg">
  <path d="M16 32C24.8366 32 32 24.8366 32 16C32 7.16344 24.8366 0 16 0C7.16344 0 0 7.16344 0 16C0 24.8366 7.16344 32 16 32Z" fill="#F6F6F6" />
  <path d="M24.9761 19.336C25.0475 19.3931 25.0944 19.4424 25.1646 19.5009C25.2072 19.5363 25.2075 19.5363 25.2493 19.4976C25.2782 19.4706 25.3064 19.4423 25.3361 19.4158C25.4561 19.3078 25.6176 19.3129 25.7295 19.4303C25.774 19.4774 25.816 19.5271 25.8552 19.5792C25.9519 19.7071 25.9424 19.8744 25.8334 19.991C25.8028 20.0237 25.7703 20.0547 25.7372 20.0846C25.7097 20.1093 25.7088 20.1335 25.7284 20.1645C25.7687 20.2284 25.8079 20.2932 25.8458 20.3589C25.8939 20.4419 25.9367 20.5284 25.9774 20.6157C26.0161 20.6989 26.0161 20.6984 26.0962 20.6714C26.1349 20.6572 26.1744 20.6454 26.2145 20.636C26.3449 20.6092 26.4686 20.6762 26.5243 20.8053C26.5582 20.885 26.5835 20.9684 26.5998 21.0541C26.6239 21.1762 26.5539 21.3117 26.4418 21.3719C26.3983 21.3951 26.3506 21.4052 26.3052 21.4225C26.2503 21.4435 26.2455 21.4477 26.2546 21.5047C26.2837 21.6846 26.3043 21.8653 26.3057 22.048C26.3061 22.0879 26.3203 22.1106 26.3596 22.114C26.3932 22.1169 26.4266 22.1235 26.4601 22.1272C26.5936 22.1419 26.6845 22.2125 26.7242 22.3518C26.7276 22.3639 26.7365 22.6153 26.7249 22.6834C26.6994 22.8338 26.5893 22.941 26.4444 22.9472C26.4131 22.9488 26.3819 22.9467 26.351 22.941C26.2939 22.93 26.256 22.9555 26.2423 23.0142C26.2084 23.1584 26.1628 23.2984 26.1138 23.4374C26.0994 23.4776 26.1078 23.5128 26.1392 23.541C26.1557 23.5558 26.219 23.6282 26.2292 23.6523C26.2528 23.7076 26.1511 23.6215 26.1277 23.6072C26.0739 23.5744 25.4156 23.1886 25.1705 23.0502C25.188 22.9124 25.2511 22.7362 25.2765 22.6004C25.4059 21.9084 25.271 21.2774 24.8946 20.7014C24.5815 20.2224 24.153 19.9162 23.6269 19.7646C23.164 19.631 22.7052 19.6586 22.2553 19.8337C21.883 19.9786 21.4755 20.2161 21.2521 20.5895C21.2264 20.6199 21.2144 20.6165 21.1738 20.5973C21.0338 20.5232 20.4849 20.1437 20.2617 20.0059C20.1628 19.9004 20.0973 19.7279 20.1714 19.6004C20.2243 19.5094 20.2954 19.4357 20.3718 19.3694C20.4791 19.2763 20.6347 19.2788 20.7487 19.3662C20.8902 19.4745 20.89 19.474 21.0274 19.3573C21.0991 19.2964 21.1754 19.2424 21.2507 19.1868C21.3208 19.135 21.326 19.1142 21.293 19.0331C21.2033 18.812 21.2606 18.6439 21.4625 18.5344C21.5159 18.5042 21.5717 18.479 21.6292 18.4592C21.7833 18.4091 21.9255 18.4675 22.0094 18.6136C22.0969 18.7658 22.0965 18.7656 22.261 18.7252C22.348 18.7038 22.4362 18.6886 22.5239 18.6715C22.6117 18.6544 22.625 18.6397 22.63 18.5473C22.6319 18.5011 22.6385 18.4553 22.6495 18.4106C22.6726 18.3213 22.7146 18.2429 22.8016 18.2077C22.9674 18.1403 23.1349 18.1274 23.2978 18.2156C23.3939 18.2676 23.4388 18.3572 23.4401 18.4733C23.442 18.6473 23.4432 18.6488 23.603 18.6761C23.708 18.6942 23.811 18.7211 23.9143 18.747C23.9927 18.7665 24.0129 18.7588 24.0434 18.6784C24.1205 18.4751 24.3126 18.3713 24.5393 18.4895C24.6037 18.5231 24.6711 18.5475 24.7273 18.6016C24.8407 18.7107 24.8488 18.8719 24.8023 18.9895C24.7957 19.0061 24.7878 19.0219 24.7814 19.0385C24.7504 19.1202 24.7471 19.168 24.7471 19.168C24.7471 19.168 24.9058 19.2797 24.9761 19.336Z" fill="#5F5F5F" />
  <path d="M25.1335 22.9835C25.1995 23.0505 26.0802 23.5619 26.156 23.6101C26.1786 23.6132 26.196 23.6291 26.2165 23.6378L26.2153 23.6371C26.2311 23.6521 26.2461 23.668 26.2603 23.6847L26.2595 23.6836C26.3293 23.7873 26.329 23.898 26.2888 24.0125C26.2632 24.0734 26.2324 24.1317 26.1969 24.1866C26.1142 24.3194 25.9613 24.3612 25.8267 24.2893C25.7858 24.2674 25.7462 24.243 25.7073 24.2169C25.6791 24.1982 25.6597 24.2032 25.6399 24.231C25.5323 24.3826 25.4126 24.5241 25.2823 24.6539C25.2561 24.68 25.2529 24.7029 25.2751 24.7331C25.3006 24.7672 25.3244 24.8029 25.3472 24.839C25.4402 24.9854 25.4154 25.1544 25.284 25.2631C25.2383 25.3008 25.1917 25.3375 25.1432 25.3711C25.0128 25.4613 24.8598 25.436 24.7604 25.3087C24.7328 25.273 24.7071 25.2357 24.6832 25.1972C24.662 25.1634 24.6407 25.1558 24.6053 25.1773C24.4562 25.2677 24.2987 25.339 24.1379 25.4022C24.0795 25.4254 24.0799 25.4262 24.0915 25.4912C24.0955 25.5139 24.0988 25.5368 24.1029 25.5594C24.1405 25.7499 24.0978 25.8532 23.9411 25.9511C23.9006 25.975 23.8542 25.9713 23.8107 25.9836C23.735 26.0029 23.6584 26.0014 23.5813 25.9974L23.581 25.9974C23.5557 25.9841 23.531 25.9699 23.5063 25.9555C23.432 25.8898 23.3988 25.8032 23.3796 25.704C23.3533 25.5695 23.3692 25.5913 23.2528 25.5972C23.0984 25.605 22.9438 25.6045 22.7896 25.5955C22.7297 25.5919 22.7296 25.5917 22.7158 25.6507C22.7095 25.6782 22.7022 25.7055 22.6984 25.7334C22.6735 25.9095 22.5402 26.0419 22.3274 25.999C22.2754 25.9884 22.2238 25.9741 22.1729 25.9582C22.0275 25.9129 21.9433 25.7639 21.9724 25.6054C21.9795 25.5652 21.9884 25.5252 21.9958 25.4849C22.0057 25.43 22.005 25.4272 21.9533 25.4065C21.8538 25.3669 21.7548 25.3264 21.659 25.2774C21.6025 25.2484 21.5465 25.2182 21.4908 25.1876C21.4328 25.156 21.4332 25.1555 21.3927 25.2133C21.3709 25.2441 21.3507 25.2761 21.3281 25.3059C21.2291 25.4381 21.0727 25.466 20.9405 25.3736C20.8901 25.3384 20.841 25.3007 20.7937 25.261C20.673 25.1594 20.6469 24.9923 20.7297 24.8542C20.7543 24.8132 20.7817 24.7739 20.8093 24.7351C20.8285 24.7082 20.8297 24.6867 20.805 24.6619C20.6727 24.5304 20.5514 24.3871 20.4423 24.2334C20.4215 24.2041 20.4012 24.2042 20.3744 24.2221C20.3417 24.2439 20.3079 24.264 20.274 24.2839C20.1218 24.3721 19.9632 24.3287 19.8737 24.1704C19.8417 24.1137 19.8025 24.0617 19.7805 23.998C19.7259 23.8404 19.7717 23.6943 19.9078 23.6063C19.9367 23.5876 19.9663 23.5703 19.9947 23.5515C20.0449 23.5188 20.0462 23.5179 20.024 23.4607C19.9778 23.3422 19.9382 23.2209 19.9051 23.0975C19.8906 23.0435 19.8768 22.9886 19.8647 22.9338C19.8559 22.8937 19.8362 22.8782 19.7975 22.8869C19.7666 22.8929 19.7355 22.8973 19.7042 22.9C19.5201 22.9208 19.3835 22.8037 19.3641 22.6084C19.3588 22.5545 19.3531 22.5012 19.3496 22.4474C19.3445 22.3697 19.3678 22.2929 19.4145 22.2329C19.4612 22.1728 19.5278 22.1342 19.6006 22.1248C19.6413 22.1195 19.6822 22.1161 19.7226 22.1093C19.7754 22.1 19.7771 22.0989 19.7779 22.0402C19.7802 21.912 19.7893 21.784 19.8052 21.6568C19.8118 21.6008 19.8293 21.5465 19.8255 21.4892C19.8214 21.45 19.8057 21.4257 19.7762 21.4136C19.7559 21.4073 19.7511 21.4046 19.7209 21.3966C19.6613 21.3813 19.6072 21.3538 19.564 21.3074" fill="#414141" />
  <path d="M19.8286 21.5239C19.8354 21.4847 19.8194 21.4257 19.7815 21.4144C19.749 21.4047 19.6969 21.384 19.6646 21.3737C19.5361 21.3326 19.4554 21.2248 19.4411 21.0799C19.4247 21.0183 19.4757 20.8187 19.4988 20.754C19.5507 20.6114 19.6778 20.5282 19.8212 20.5511C19.8521 20.5559 19.8826 20.5642 19.9118 20.576C19.9659 20.5984 20.0076 20.5808 20.0315 20.526C20.0904 20.3912 20.1786 20.2576 20.2352 20.1219C20.2901 19.9908 20.2511 20.0017 20.2704 20.0063C20.3174 20.0493 21.0031 20.4032 21.2194 20.5884C21.0787 20.7504 20.7666 21.4838 20.7537 21.7291" fill="#414141" />
  <path d="M21.227 20.5766C21.6642 20.0731 21.9771 19.8569 22.409 19.7261C22.6718 19.6458 22.946 19.6165 23.2185 19.6395C23.6772 19.6785 24.0915 19.8484 24.4564 20.1492C24.7782 20.4146 25.0127 20.7509 25.1727 21.1475C25.2707 21.3901 25.3225 21.6438 25.3469 21.9067C25.3817 22.2832 25.3062 22.7039 25.185 23.0549C25.1605 23.0781 24.7127 22.7526 24.6647 22.6892C24.6538 22.6549 24.6673 22.6235 24.6754 22.5918C24.7193 22.4203 24.7477 22.246 24.7425 22.0679C24.7177 21.2116 24.1686 20.5058 23.4099 20.3338C22.8499 20.2069 22.2564 20.3358 21.7134 20.9237C21.6997 20.9318 21.6954 20.9142 21.6031 20.8467C21.4481 20.7465 21.3719 20.6838 21.2659 20.6156C21.2052 20.578 21.2083 20.5983 21.227 20.5766Z" fill="#414141" />
  <path d="M25.1944 23.0304C25.1799 23.055 25.1667 23.0806 25.1551 23.107C25.0218 23.4492 24.8083 23.7301 24.5482 23.9682C24.2078 24.2799 23.8127 24.4744 23.3642 24.5371C23.2543 24.5526 23.1442 24.5694 23.033 24.5658C22.7118 24.5552 22.4014 24.4925 22.1046 24.3553C21.9164 24.2678 21.7402 24.1536 21.5808 24.0158C21.3327 23.8026 21.131 23.5464 20.9829 23.2427C20.8468 22.963 20.7684 22.6671 20.7349 22.3552C20.7057 22.0868 20.7283 21.8232 20.7809 21.5604C20.8411 21.2605 20.9537 20.9841 21.1109 20.7279C21.1333 20.6915 21.1984 20.6088 21.2196 20.588C21.334 20.6512 21.6464 20.8703 21.6965 20.9179C21.7281 20.9617 21.6699 21.0195 21.6518 21.0477C21.556 21.1969 21.477 21.3544 21.4263 21.5276C21.2497 22.1307 21.3313 22.6918 21.6886 23.196C21.9866 23.6168 22.3918 23.8472 22.887 23.8997C23.5925 23.9745 24.3161 23.548 24.6134 22.7959C24.6298 22.7544 24.6256 22.6888 24.6926 22.6856C24.7358 22.7382 25.1438 23.0008 25.1944 23.0304Z" fill="#5F5F5F" />
  <path d="M24.6914 22.6855C24.6353 22.8387 24.5726 22.988 24.4847 23.1245C24.2061 23.5564 23.8256 23.8246 23.341 23.9173C22.8501 24.0111 22.4006 23.8949 22.0009 23.5811C21.6492 23.3049 21.4247 22.9333 21.3377 22.478C21.235 21.9399 21.3421 21.4445 21.6414 20.9967C21.6526 20.9799 21.6631 20.963 21.6743 20.9462C21.6856 20.9318 21.8344 20.7569 21.9068 20.6922C22.2278 20.4058 22.5952 20.2588 23.0152 20.25C23.802 20.2335 24.5123 20.7996 24.7176 21.6226C24.7998 21.9521 24.7979 22.2824 24.709 22.611C24.7024 22.6354 24.6972 22.6606 24.6914 22.6855Z" fill="#EDAE50" />
  <path d="M23.5048 22.0985C23.5183 22.3803 23.2752 22.5986 23.0445 22.5959C22.7813 22.5927 22.565 22.3732 22.5672 22.0946C22.5692 21.8221 22.7692 21.5967 23.047 21.5958C23.2785 21.5948 23.5174 21.815 23.5048 22.0985Z" fill="#414141" />
  <path d="M23.5312 21.1622C23.5846 21.1564 23.6292 21.1765 23.6663 21.2187C23.6991 21.2561 23.7344 21.2912 23.7665 21.3293C23.8408 21.4177 23.7956 21.5796 23.6994 21.6115C23.6574 21.6254 23.6189 21.6263 23.5819 21.6006C23.5026 21.5453 23.435 21.4753 23.375 21.3986C23.3113 21.317 23.3435 21.2126 23.4382 21.1771C23.4679 21.1654 23.4995 21.1604 23.5312 21.1622Z" fill="#FCD38C" />
  <path d="M10.9022 25.9779C10.7717 25.9049 10.6942 25.7915 10.6708 25.6357C10.6628 25.5826 10.649 25.5307 10.6387 25.4777C10.6315 25.4408 10.6139 25.4284 10.5776 25.4316C10.3467 25.4524 10.1147 25.4551 9.8835 25.4398C9.85218 25.4378 9.8208 25.436 9.7897 25.4322C9.76005 25.4286 9.74462 25.4417 9.73856 25.4721C9.72758 25.5272 9.71283 25.5817 9.70432 25.6373C9.678 25.8091 9.58966 25.9272 9.43916 25.9938C9.34286 26.0217 9.24659 26.0121 9.15032 25.9931C9.06115 25.9755 8.96959 25.9674 8.88874 25.9177C8.85769 25.8934 8.82433 25.8724 8.79742 25.8423C8.7013 25.7344 8.66148 25.6085 8.68616 25.4615C8.69546 25.4059 8.70782 25.3511 8.71828 25.2958C8.73597 25.2012 8.73582 25.2007 8.65295 25.1696C8.46424 25.0984 8.28015 25.0141 8.10188 24.9171C8.05895 24.894 8.01544 24.8709 7.97439 24.8446C7.94306 24.824 7.92226 24.8284 7.90192 24.86C7.87072 24.9087 7.83611 24.9549 7.80512 25.0038C7.67315 25.2127 7.41392 25.274 7.20996 25.1069C7.15651 25.0631 7.10009 25.0234 7.04649 24.9799C6.85726 24.8263 6.82257 24.5814 6.9602 24.3737C6.99626 24.3191 7.03311 24.2651 7.07075 24.2116C7.08864 24.1865 7.08834 24.1659 7.06563 24.1453C7.0546 24.1353 7.04474 24.124 7.03422 24.1134C6.85752 23.935 6.69428 23.742 6.54603 23.5364C6.50395 23.478 6.50359 23.4782 6.44186 23.516C6.40006 23.5416 6.35847 23.5675 6.31667 23.5932C6.09685 23.7271 5.87834 23.6685 5.74226 23.4395C5.7236 23.4101 5.71656 23.3996 5.69704 23.3644C5.67301 23.3148 5.64398 23.2684 5.6222 23.2173C5.52932 22.9989 5.59373 22.7754 5.78768 22.6519C5.83317 22.6229 5.8794 22.5951 5.92533 22.5663C5.98647 22.5277 5.98712 22.5272 5.96077 22.4602C5.87603 22.2448 5.80609 22.0231 5.7515 21.7969C5.74248 21.7597 5.7326 21.7226 5.72532 21.6849C5.71804 21.6474 5.69745 21.6351 5.66288 21.6399C5.5983 21.6486 5.53365 21.6587 5.46871 21.6627C5.302 21.6731 5.17329 21.6026 5.08612 21.4505C5.04983 21.388 5.03615 21.3178 5.03 21.2454C5.02547 21.1914 5.01543 21.1429 5.01198 21.085C4.99775 20.8663 5.11525 20.5915 5.374 20.5716C5.4293 20.5674 5.48431 20.5585 5.53947 20.552C5.60324 20.5442 5.60549 20.5436 5.60689 20.4791C5.61089 20.2893 5.62527 20.0998 5.64994 19.9117C5.66003 19.8355 5.67157 19.7595 5.68412 19.6838C5.69617 19.6115 5.69624 19.6099 5.62845 19.5864C5.5777 19.5689 5.52695 19.5523 5.477 19.5343C5.25992 19.4566 5.14769 19.2369 5.2084 19.0029C5.2308 18.9165 5.25835 18.8313 5.28793 18.7473C5.3638 18.5307 5.57189 18.4212 5.78062 18.4866C5.84311 18.5061 5.90576 18.5257 5.96652 18.5503C6.00538 18.5657 6.02262 18.5528 6.03897 18.5164C6.0774 18.4307 6.11916 18.3466 6.15961 18.2622C6.17408 18.233 6.1874 18.2098 6.2005 18.183C6.24392 18.0981 6.29004 18.0145 6.34527 17.9371C6.39504 17.8909 14.7778 23.1252 14.7542 23.1857C14.7382 23.2165 14.7252 23.2464 14.7098 23.2762C14.6803 23.332 14.6524 23.3889 14.621 23.4435C14.5016 23.6504 14.2841 23.7136 14.0809 23.6009C14.0275 23.5713 13.9762 23.5373 13.9238 23.5055C13.8693 23.4726 13.8686 23.4723 13.8317 23.5232C13.749 23.6369 13.6627 23.7472 13.5724 23.8541C13.4917 23.9497 13.4063 24.0401 13.3194 24.1291C13.2794 24.17 13.2795 24.1712 13.3103 24.2177C13.3451 24.2701 13.3818 24.3209 13.4162 24.3736C13.55 24.5778 13.5143 24.8236 13.3289 24.9741C13.2695 25.0224 13.2092 25.0693 13.1478 25.1147C12.9552 25.2569 12.7262 25.2182 12.5835 25.0196C12.5472 24.9687 12.5128 24.9157 12.4765 24.8645C12.4437 24.8182 12.4425 24.8176 12.3945 24.8454C12.1978 24.9601 11.9936 25.0597 11.7835 25.1434C11.7541 25.1549 11.7244 25.1658 11.6952 25.1777C11.6422 25.1993 11.6412 25.2001 11.6517 25.2626C11.6611 25.3181 11.669 25.3743 11.6841 25.4282C11.7402 25.6297 11.6235 25.8732 11.3642 25.959C11.2521 25.9963 11.0092 26.0233 10.9022 25.9779Z" fill="#414141" />
  <path d="M14.738 23.2009C14.562 23.0924 12.9949 22.0672 12.8853 22.0029C12.8257 21.971 12.8451 21.9671 12.8811 21.895C13.009 21.6038 13.095 21.2938 13.1361 20.9754C13.1658 20.7435 13.164 20.5106 13.1458 20.2771C13.1288 20.057 13.0898 19.8395 13.0294 19.6283C12.9524 19.3591 12.8412 19.1073 12.7039 18.8666C12.5506 18.5982 12.3555 18.369 12.14 18.1577C11.9744 17.9952 11.7871 17.8634 11.5894 17.7488C11.2924 17.5756 10.9693 17.4588 10.6345 17.4037C10.4243 17.3691 10.2121 17.3521 9.99999 17.3672C9.54851 17.3991 9.12117 17.5257 8.72378 17.7584C8.4103 17.9468 8.12979 18.1914 7.89461 18.4813C7.83465 18.5554 7.74931 18.7026 7.69058 18.7773C7.65684 18.8201 7.0945 18.4328 6.32957 17.9523C6.35772 17.8995 6.38487 17.8562 6.41499 17.8101C6.43374 17.7813 6.4322 17.7595 6.40768 17.7367C6.36075 17.6924 6.31396 17.648 6.2679 17.6027C6.12138 17.4583 6.08702 17.2667 6.17856 17.0785C6.19948 17.0354 6.23723 16.9341 6.29488 16.8604C6.32276 16.8247 6.35346 16.7923 6.38359 16.759C6.53104 16.5965 6.81793 16.5936 6.97207 16.7431C7.15864 16.9239 7.13411 16.8818 7.29101 16.7536C7.42509 16.6442 7.56077 16.5375 7.70262 16.4395C7.77898 16.3868 7.78389 16.3613 7.74518 16.2732C7.70205 16.1748 7.6632 16.0759 7.67145 15.9635C7.68163 15.8248 7.73453 15.7059 7.84109 15.6288C7.99322 15.5187 8.15479 15.4281 8.34898 15.4336C8.50939 15.4382 8.62181 15.523 8.70339 15.6618C8.73242 15.7118 8.755 15.7663 8.77853 15.8198C8.80031 15.8699 8.83555 15.8862 8.8849 15.8723C9.09281 15.8143 9.30342 15.7703 9.5154 15.7337C9.59244 15.7203 9.60794 15.6963 9.61085 15.6148C9.61225 15.5866 9.61222 15.5583 9.61078 15.5301C9.59413 15.2713 9.78242 15.054 10.0052 15.0388C10.1279 15.0304 10.2509 15.0204 10.3729 15.0462C10.5521 15.0846 10.7287 15.2591 10.7111 15.4989C10.7087 15.5321 10.7105 15.5656 10.7112 15.5991C10.7129 15.6977 10.7303 15.7217 10.8219 15.7357C11.0202 15.765 11.2167 15.8075 11.4102 15.8629C11.5125 15.8926 11.5284 15.8818 11.5709 15.7799C11.6043 15.7002 11.6377 15.6203 11.6967 15.5563C11.8159 15.4272 11.9644 15.4064 12.1191 15.4426C12.2416 15.4714 12.3567 15.5304 12.4623 15.6034C12.6343 15.7225 12.697 15.9365 12.6273 16.1448C12.6128 16.1882 12.5953 16.2306 12.5771 16.2726C12.5409 16.3549 12.547 16.385 12.6191 16.4334C12.7706 16.5341 12.9164 16.6441 13.0558 16.7628C13.2087 16.8937 13.1814 16.9137 13.3498 16.7513C13.4973 16.6091 13.7252 16.5919 13.8599 16.6892C13.9964 16.7876 14.1151 16.9116 14.194 17.0667C14.2642 17.205 14.255 17.4593 14.1155 17.5871C14.0736 17.6257 14.0366 17.67 13.9977 17.7122C13.964 17.7488 13.9595 17.7889 13.9862 17.8307C14.1111 18.026 14.2229 18.2304 14.3208 18.4424C14.3449 18.4945 14.3862 18.5077 14.4369 18.4906C14.4966 18.4701 14.5575 18.4538 14.6193 18.4419C14.7844 18.4109 14.9663 18.4879 15.0512 18.642C15.1337 18.7913 15.1844 18.9552 15.1897 19.1305C15.1954 19.3232 15.1053 19.4567 14.9508 19.5456C14.8995 19.5744 14.8454 19.5972 14.7895 19.6137C14.7305 19.6316 14.7052 19.6699 14.7171 19.734C14.7589 19.9638 14.773 20.1965 14.7869 20.4296C14.7906 20.4913 14.8186 20.5253 14.8769 20.527C14.9204 20.5284 14.9633 20.537 15.0062 20.543C15.2278 20.5737 15.3795 20.7569 15.3805 20.9954C15.3809 21.0415 15.3789 21.0877 15.3745 21.1336C15.3673 21.2061 15.343 21.3099 15.3239 21.3777C15.2685 21.5752 15.0814 21.6834 14.8881 21.6705C14.8256 21.6665 14.7634 21.6558 14.7009 21.6492C14.6435 21.6433 14.6406 21.6441 14.6264 21.7047C14.5836 21.8865 14.5369 22.0671 14.4757 22.2431C14.4472 22.3249 14.4178 22.4065 14.3856 22.4866C14.3712 22.5222 14.3772 22.544 14.4082 22.5626C14.4693 22.5992 14.5307 22.635 14.5895 22.6754C14.7465 22.7833 14.8114 22.9796 14.7545 23.1671C14.7499 23.1788 14.7443 23.1901 14.738 23.2009Z" fill="#666059" />
  <path d="M8.34742 19.1536C8.41984 19.061 8.48855 18.9649 8.56785 18.8781C8.94192 18.4687 9.3941 18.2281 9.92819 18.1638C10.4005 18.1068 10.8488 18.1939 11.2629 18.4413C11.9005 18.8222 12.2811 19.4033 12.4015 20.1694C12.4715 20.6145 12.4191 21.049 12.2532 21.4663C12.2439 21.49 12.2372 21.5147 12.2293 21.5389C12.2474 21.5791 12.2299 21.6136 12.2141 21.6484C12.1336 21.8258 12.0277 21.9849 11.9051 22.1306C11.5525 22.5495 11.1208 22.8273 10.5967 22.9237C9.90094 23.0516 9.27302 22.8808 8.72685 22.4027C8.28389 22.0149 8.01676 21.5125 7.9304 20.91C7.86321 20.441 7.91845 19.984 8.10085 19.5473C8.14505 19.4414 8.19876 19.3413 8.25283 19.241C8.2749 19.1992 8.30372 19.168 8.34742 19.1536Z" fill="#EDAE50" />
  <path d="M8.75255 20.5355C8.73992 19.6712 9.43461 19.0119 10.172 19.0073C10.8953 19.0028 11.6176 19.6148 11.6195 20.541C11.6214 21.4008 10.9658 22.0548 10.2 22.0638C9.36572 22.0736 8.73788 21.3419 8.75255 20.5355Z" fill="#45423D" />
  <path d="M11.5933 19.1229C11.6054 19.2504 11.4553 19.3506 11.3509 19.2769C11.28 19.227 11.2131 19.1762 11.1569 19.1096C11.076 19.0139 11.0943 18.9146 11.2014 18.8519C11.2806 18.8056 11.3545 18.8022 11.4278 18.8686C11.4794 18.9152 11.5294 18.9622 11.5664 19.023C11.5851 19.0524 11.5946 19.0874 11.5933 19.1229Z" fill="#FCD38C" />
  <path d="M9.04049 20.5455C9.02225 19.9211 9.49757 19.3116 10.1881 19.3138C10.8332 19.3161 11.3372 19.866 11.3313 20.5542C11.3255 21.2327 10.797 21.7651 10.1684 21.7573C9.51663 21.7492 9.02336 21.1662 9.04049 20.5455Z" fill="#EDAE50" />
  <path d="M10.1831 21.034C9.9261 21.0342 9.71173 20.8071 9.71341 20.5333C9.71486 20.2634 9.91127 20.0375 10.1853 20.0343C10.4352 20.0314 10.6536 20.2509 10.6524 20.5368C10.6513 20.8154 10.4457 21.0342 10.1831 21.034Z" fill="#414141" />
  <path d="M10.7241 19.7074C10.7511 19.7074 10.7775 19.7105 10.8004 19.7266C10.9001 19.7969 10.9535 19.8946 10.9501 20.0231C10.9483 20.0891 10.8592 20.1587 10.7985 20.1441C10.6957 20.1193 10.612 20.0653 10.5547 19.968C10.5052 19.8839 10.5149 19.8134 10.589 19.7538C10.629 19.7219 10.6748 19.7088 10.7241 19.7074Z" fill="#FCD38C" />
  <path d="M8.34703 19.1538C8.27232 19.2798 8.2 19.4068 8.14227 19.5431C8.04527 19.773 7.98236 20.0175 7.95575 20.2679C7.92042 20.5837 7.94522 20.9038 8.02868 21.2092C8.11214 21.5146 8.25255 21.799 8.44153 22.0455C8.72885 22.42 9.09075 22.6779 9.52417 22.8216C9.77539 22.9049 10.034 22.943 10.296 22.9243C10.9812 22.8757 11.5398 22.5649 11.9664 21.9902C12.056 21.869 12.1333 21.738 12.1969 21.5995C12.2064 21.579 12.2182 21.5595 12.2289 21.5395C12.2885 21.5692 12.7523 21.8872 12.8314 21.946C12.8627 21.9691 12.8486 21.9999 12.8337 22.0282C12.7524 22.1829 12.6665 22.3345 12.563 22.4739C12.3369 22.7788 12.073 23.0388 11.7608 23.2426C11.4579 23.4406 11.1249 23.5813 10.7768 23.6586C10.5075 23.7193 10.2347 23.7284 9.96265 23.7106C9.6008 23.6872 9.25396 23.59 8.92375 23.4274C8.69753 23.3172 8.4855 23.1768 8.29281 23.0094C7.91382 22.6777 7.61974 22.277 7.42931 21.7928C7.30761 21.482 7.2314 21.1533 7.20335 20.8179C7.15948 20.3178 7.23362 19.8364 7.39881 19.3683C7.45935 19.197 7.53925 19.0362 7.62465 18.878C7.63305 18.8626 7.64246 18.8472 7.65216 18.8327C7.70408 18.7542 7.71393 18.7517 7.79123 18.7985C7.92104 18.8771 8.17073 19.0415 8.29786 19.1239C8.31484 19.1327 8.33126 19.1427 8.34703 19.1538Z" fill="#666059" />
  <path d="M12.3764 21.042C12.4416 20.7316 12.4475 20.4105 12.3936 20.0977C12.3398 19.7849 12.2272 19.4868 12.0628 19.2213C11.7879 18.8448 11.4427 18.5279 11.0598 18.3322C10.8208 18.2229 10.5647 18.1621 10.3046 18.153C9.61827 18.1275 9.03003 18.3698 8.55111 18.8958C8.47579 18.9801 8.40507 19.0688 8.33929 19.1617C8.28287 19.1258 7.76346 18.8445 7.69041 18.7775C7.6614 18.7508 7.88755 18.4778 8.00379 18.3503C8.25785 18.0714 8.54507 17.841 8.87517 17.6721C9.18412 17.5023 9.53733 17.4051 9.89378 17.3645C10.1671 17.3329 10.4431 17.3404 10.7145 17.387C11.0723 17.4494 11.4022 17.5972 11.7151 17.7948C11.9297 17.9288 12.1273 18.0914 12.3031 18.2787C12.6485 18.6496 12.9027 19.0801 13.0462 19.5822C13.1377 19.9046 13.182 20.24 13.178 20.5767C13.1737 21.0789 13.0555 21.5405 12.8836 21.9123C12.8495 21.986 12.8805 21.9841 12.7815 21.9124C12.6599 21.8199 12.3564 21.627 12.2283 21.5396C12.2204 21.5332 12.3247 21.2894 12.3764 21.042Z" fill="#45423D" />
  <path d="M9.18007 7.95406C9.12717 7.77555 9.08651 7.59347 9.04194 7.41256C9.03015 7.36492 9.04334 7.35211 9.09109 7.33974C11.7337 6.654 14.9483 7.17393 16.5995 7.70455C16.8612 7.80419 17.116 7.92002 17.3517 8.07859C17.4539 8.14743 17.551 8.2233 17.6273 8.32509C17.6485 8.35296 17.6677 8.38259 17.6845 8.4137C17.7245 8.4893 17.7335 8.56555 17.696 8.6483C17.6092 8.84029 17.5147 9.02796 17.4127 9.21133C17.3467 9.33073 17.2789 9.44897 17.2121 9.56783C17.1805 9.62551 17.1452 9.6807 17.1062 9.73298C17.0721 9.76685 17.0338 9.75061 16.997 9.74185C16.8353 9.70343 16.672 9.67341 16.5112 9.63144C16.4994 9.62837 16.4874 9.63361 16.4754 9.63409C16.307 9.57624 16.1294 9.56975 15.9584 9.52655C15.936 9.52086 15.9165 9.53529 15.8951 9.53146C15.6142 9.47362 15.3296 9.44454 15.0469 9.40343C14.9474 9.38894 14.8448 9.39673 14.7484 9.35903C14.7115 9.31765 14.7049 9.26354 14.6925 9.21135C14.621 8.90348 14.5282 8.60472 14.3584 8.33948C14.3325 8.29918 14.3044 8.26073 14.275 8.22329C14.1867 8.11071 14.0813 8.0438 13.9383 8.02394C13.5652 7.97203 13.1916 7.92721 12.8169 7.89374C12.1935 7.83771 11.5694 7.82855 10.9449 7.83844C10.6367 7.84323 10.3288 7.86528 10.0212 7.89374C9.76651 7.91707 9.51241 7.94471 9.25903 7.9806C9.22764 7.98386 9.20054 7.98188 9.18007 7.95406Z" fill="#EDAE50" />
  <path d="M17.9491 13.3233C17.7736 13.3221 17.598 13.3184 17.4225 13.3211C17.3665 13.3219 17.3541 13.2873 17.3419 13.2446C17.2943 13.2292 17.2956 13.1829 17.2883 13.1444C17.2313 12.8477 17.1776 12.5501 17.1156 12.2545C16.9632 11.5277 16.7921 10.806 16.5839 10.0946C16.5481 9.97208 16.5095 9.85045 16.4744 9.72759C16.4637 9.6902 16.4434 9.64943 16.4778 9.61194C16.4904 9.59651 16.5074 9.59649 16.5241 9.59964C16.7194 9.63804 16.9147 9.67644 17.1066 9.73196C17.2329 10.109 17.3391 10.4927 17.4372 10.8789C17.5705 11.4038 17.6849 11.9336 17.7916 12.4653C17.8314 12.6639 17.9486 13.3183 17.9491 13.3233Z" fill="#45423D" />
  <path d="M9.18002 7.95392C9.41086 7.9118 9.64387 7.88726 9.87675 7.86487C10.0447 7.84871 10.2135 7.83833 10.3819 7.82593C10.8496 7.79104 11.3179 7.79137 11.786 7.79941C12.126 7.80524 12.4658 7.82418 12.8052 7.85259C13.0314 7.87154 13.257 7.89333 13.4823 7.92053C13.6715 7.94351 13.8592 7.97675 14.0485 8.00282C14.1097 8.01118 14.1559 8.04306 14.1996 8.08551C14.3504 8.23188 14.4569 8.41096 14.5406 8.60642C14.6403 8.83871 14.7088 9.08168 14.7542 9.33213C14.7437 9.36729 14.7168 9.36777 14.6895 9.36602C14.5693 9.35841 14.4488 9.34948 14.329 9.3377C14.2233 9.32737 14.1171 9.32245 14.0116 9.3162C13.8433 9.30646 13.6749 9.28716 13.5058 9.29724C13.4406 9.30122 13.3763 9.28377 13.3112 9.28274C13.223 9.28142 13.1957 9.30172 13.1651 9.38863C12.9853 9.90124 12.8374 10.4244 12.7074 10.9535C12.5065 11.7709 12.3535 12.599 12.2249 13.4323C12.1904 13.655 12.1624 13.8787 12.1317 14.1021C12.1254 14.1475 12.1208 14.1941 12.0937 14.2332C12.0724 14.2559 12.0454 14.2574 12.0194 14.2503C11.8982 14.2171 11.7779 14.18 11.6569 14.1459C11.6475 14.1436 11.6387 14.1389 11.6313 14.1322C11.624 14.1255 11.6183 14.1169 11.6147 14.1074C11.5952 14.0516 11.6074 13.9949 11.6152 13.94C11.7377 13.0387 11.8878 12.1429 12.0856 11.2567C12.2254 10.6299 12.3848 10.0095 12.5892 9.40264C12.6202 9.31088 12.6027 9.28422 12.5121 9.28321C12.153 9.27924 11.7945 9.29278 11.4356 9.31133C11.2553 9.32072 11.075 9.32872 10.8951 9.3449C10.8831 9.34491 10.871 9.34538 10.8589 9.34546C10.6711 9.34692 10.6667 9.35132 10.6077 9.53725C10.2638 10.6183 10.0237 11.7263 9.83848 12.8491C9.78307 13.1849 9.73455 13.5218 9.68523 13.8586C9.68076 13.8895 9.67759 13.9198 9.65935 13.9457C9.64198 13.9755 9.61327 13.9795 9.58443 13.9843C9.43469 14.0075 9.28409 14.0237 9.13509 14.052C9.10153 14.0584 9.06029 14.066 9.0535 14.0086C9.07835 13.8311 9.10325 13.6536 9.12819 13.4761C9.19277 13.0144 9.26597 12.5543 9.34776 12.0958C9.45501 11.4952 9.57777 10.8992 9.72954 10.3104C9.8018 10.0311 9.87647 9.75237 9.96737 9.47907C9.99918 9.38329 9.99904 9.38329 9.93006 9.3172C9.76365 9.15719 9.59783 8.99657 9.43056 8.83757C9.39981 8.80894 9.37826 8.77078 9.36894 8.72845C9.31214 8.49512 9.2526 8.26256 9.194 8.02969C9.18387 8.00591 9.17913 7.97993 9.18017 7.95384L9.18002 7.95392Z" fill="#45423D" />
  <path d="M9.18033 7.95368C9.18918 7.97811 9.19928 8.00224 9.19416 8.02953C9.17964 8.00649 9.16121 7.98384 9.18033 7.95368Z" fill="#A9A9A9" />
  <path d="M13.0232 14.6521C12.7454 14.4937 12.4541 14.3689 12.1562 14.2608C12.129 14.2509 12.1006 14.2436 12.0799 14.22C12.1104 13.994 12.1386 13.7676 12.1717 13.5421C12.2486 13.0199 12.3386 12.5003 12.4414 11.9833C12.5981 11.1998 12.7856 10.4251 13.0324 9.66765C13.072 9.54642 13.1129 9.42574 13.154 9.3052C13.1747 9.2442 13.1756 9.24396 13.2371 9.24577C13.5796 9.25583 13.9221 9.26952 14.2641 9.29208C14.4278 9.30282 14.5911 9.31873 14.7546 9.33233C15.0247 9.35972 15.2938 9.3949 15.5625 9.43517C15.6767 9.45235 15.7908 9.46815 15.9042 9.4905C15.9694 9.51812 16.0098 9.57114 16.0493 9.63201C16.1991 9.86373 16.3185 10.114 16.4179 10.3719C16.5219 10.6416 16.617 10.9168 16.6813 11.2019C16.7066 11.3142 16.7425 11.4235 16.7686 11.5354C16.8536 11.9035 16.948 12.2691 17.0168 12.6415C17.0521 12.8324 17.0896 13.0232 17.136 13.2119C17.1484 13.2621 17.1689 13.3189 17.1081 13.3551C17.1016 13.3628 17.0962 13.3724 17.0883 13.377C16.9808 13.4376 16.9081 13.5362 16.8376 13.6367C16.7197 13.8045 16.603 13.9731 16.4859 14.1415C16.4528 14.157 16.4255 14.1442 16.3985 14.1237C16.2572 14.0162 16.1145 13.9105 15.9706 13.8067C15.8974 13.7538 15.8918 13.7273 15.9408 13.6491C16.0103 13.538 16.0851 13.4308 16.1569 13.3214C16.1845 13.2792 16.214 13.2383 16.2365 13.1928C16.2771 13.1102 16.2621 13.028 16.1996 12.9788C16.137 12.9296 16.0592 12.9396 15.9993 13.0112C15.9238 13.1014 15.8643 13.2049 15.7998 13.3043C15.595 13.6186 15.3899 13.9328 15.1844 14.2467C15.1651 14.2761 15.1454 14.3056 15.1323 14.3392C15.1023 14.4156 15.1233 14.4942 15.1843 14.5365C15.2474 14.5802 15.3199 14.5715 15.3733 14.5064C15.448 14.4154 15.507 14.3117 15.572 14.2133C15.6134 14.1501 15.6547 14.0869 15.6974 14.0247C15.7271 13.9816 15.76 13.9752 15.8029 14.0044C15.9595 14.1112 16.1089 14.2288 16.2615 14.3414C16.2871 14.3603 16.3123 14.3826 16.3113 14.4214C16.2637 14.5041 16.2162 14.587 16.1682 14.6695C16.1441 14.7109 16.1182 14.7512 16.0944 14.7929C15.9954 14.9654 15.9924 15.1437 16.0781 15.3207C16.3088 15.7972 16.5485 16.2686 16.8189 16.7214C16.8526 16.7778 16.8888 16.8322 16.9227 16.8882C17.018 17.0459 17.1601 17.1092 17.3274 17.1143C17.4888 17.1193 17.6498 17.1004 17.8105 17.0852C17.8074 17.7989 17.6158 18.452 17.2568 19.0531C17.2065 19.1372 17.1521 19.1732 17.0539 19.1702C16.7937 19.1622 16.5331 19.169 16.2727 19.17C16.2201 19.1623 16.2219 19.1129 16.2147 19.0757C16.1837 18.9226 16.143 18.7726 16.0999 18.623C15.9348 18.0457 15.6956 17.4954 15.389 16.9877C15.29 16.8235 15.1794 16.6685 15.0757 16.5082C14.9792 16.3745 14.8753 16.2474 14.768 16.1239C14.5769 15.9041 14.3786 15.6917 14.1615 15.4999C13.8475 15.2241 13.5113 14.9784 13.1568 14.7655C13.1077 14.7342 13.0488 14.7148 13.0232 14.6521Z" fill="#B9E1E1" />
  <path d="M17.0914 13.3729C17.1114 13.3266 17.1096 13.2628 17.0992 13.2192C17.0074 12.8396 16.3588 10.1929 15.9928 9.61063C15.9485 9.54004 15.938 9.52132 15.9031 9.49043C16.0748 9.50448 16.2432 9.5429 16.4134 9.56806C16.4265 9.56964 16.439 9.57449 16.4499 9.58218C16.4608 9.58987 16.4699 9.60021 16.4764 9.61234C16.7053 10.3498 16.9018 11.0968 17.0658 11.8535C17.1663 12.3146 17.2695 12.8101 17.3516 13.2754C17.3519 13.2765 17.3522 13.2775 17.3528 13.2784C17.3693 13.3109 17.3735 13.3019 17.2778 13.3147C17.2186 13.3229 17.1389 13.3511 17.0914 13.3729Z" fill="#DCF9FB" />
  <path d="M11.6309 14.0984C11.4822 14.0677 11.3336 14.0341 11.1846 14.0071C11.0068 13.9752 10.8275 13.9532 10.6475 13.9413C10.4772 13.9296 10.3083 13.9262 10.1376 13.9259C10.0417 13.926 9.94462 13.9359 9.84814 13.9285C9.80861 13.8963 9.81568 13.8526 9.82137 13.8087C9.90272 13.1809 9.99741 12.5558 10.121 11.935C10.2076 11.4978 10.3052 11.0637 10.4254 10.6358C10.5402 10.2271 10.674 9.82557 10.8815 9.45742C10.9128 9.40204 10.9177 9.35624 10.8845 9.30438C10.9074 9.29457 10.9317 9.29463 10.9557 9.29346C11.5027 9.26667 12.0496 9.23764 12.5973 9.24254C12.6209 9.24252 12.6455 9.23656 12.6685 9.24904C12.6777 9.27671 12.6624 9.29931 12.6545 9.32237C12.4135 10.0241 12.2315 10.7447 12.075 11.4725C11.9422 12.09 11.8319 12.7121 11.737 13.3374C11.6988 13.5908 11.6663 13.8448 11.6309 14.0984Z" fill="#B9E1E1" />
  <path d="M10.9331 9.29469C11.031 9.28243 11.0217 9.28815 10.9631 9.39489C10.8048 9.68305 10.6715 9.97929 10.5698 10.2918C10.5107 10.473 10.4535 10.6558 10.4094 10.8427C10.3612 11.0466 10.3043 11.2481 10.2596 11.453C10.2143 11.6604 10.1762 11.8694 10.1343 12.0776C10.0914 12.2908 10.0476 12.5038 10.015 12.719C9.96454 13.0531 9.9158 13.3875 9.8688 13.7221C9.85928 13.7901 9.84716 13.8587 9.84917 13.9284C9.82475 13.94 9.65747 13.9586 9.64469 13.9286C9.65558 13.7646 9.68438 13.603 9.7081 13.441C9.7668 13.0407 9.83279 12.6417 9.90608 12.2439C10.0771 11.3248 10.288 10.4164 10.5708 9.52865C10.5887 9.47282 10.6098 9.41806 10.6256 9.36162C10.6349 9.32853 10.6534 9.31626 10.683 9.31532C10.7509 9.31164 10.921 9.29416 10.9331 9.29469Z" fill="#DCF9FB" />
  <path d="M19.9841 20.5927C19.8154 20.5791 19.6274 20.4381 19.4934 20.8028C19.3603 21.1643 19.5565 21.3034 19.5269 21.2912C19.5123 21.2893 19.4976 21.2888 19.4829 21.2898C19.3724 21.2913 19.2582 21.2719 19.1479 21.2719C19.1089 21.2528 19.118 21.2188 19.1246 21.1859C19.1799 20.9017 19.2648 20.625 19.3776 20.3608C19.5269 20.0143 19.7099 19.6898 19.9391 19.3951C20.2577 18.9858 20.6312 18.6467 21.0655 18.3831C21.5176 18.1088 22.003 17.939 22.5172 17.8647C22.7657 17.8289 23.0163 17.8153 23.2674 17.8339C23.3628 17.8409 23.4372 17.7995 23.4884 17.7159C23.5092 17.6819 23.5322 17.656 23.568 17.6425C23.6094 17.642 23.6471 17.6606 23.6866 17.67C23.7735 17.6906 23.7826 17.6873 23.8207 17.6036C23.8822 17.4683 23.9459 17.3343 24.0254 17.2095C24.045 17.196 24.0613 17.1778 24.0731 17.1564C24.1761 16.9884 24.3079 16.8493 24.4629 16.7352C24.4672 16.733 24.4721 16.7321 24.4769 16.7327C24.533 16.7326 24.5477 16.7782 24.5613 16.8227C24.6208 17.0182 24.6877 17.2102 24.7704 17.3963C24.9073 17.7046 25.0765 17.9898 25.2934 18.2414C25.3257 18.2789 25.3666 18.3123 25.3477 18.3735C25.235 18.5843 25.1222 18.7952 25.0095 19.006C24.993 19.0368 24.9746 19.0669 24.9571 19.0974C24.9258 19.1505 24.8904 19.2008 24.8514 19.2477C24.8412 19.2399 24.8304 19.2331 24.8191 19.2272C24.8126 19.2238 24.8003 19.2123 24.794 19.2085C24.6757 19.1402 24.6924 19.1356 24.7512 19.0081C24.7881 18.9277 24.8072 18.8462 24.7839 18.7555C24.7746 18.7181 24.7582 18.6831 24.7356 18.6527C24.7131 18.6224 24.6848 18.5973 24.6528 18.5792C24.5771 18.5355 24.4986 18.4944 24.4122 18.4752C24.291 18.4486 24.1644 18.5084 24.1062 18.6251C24.0869 18.6636 24.0735 18.705 24.0555 18.7443C24.0299 18.8016 24.0151 18.8096 23.9593 18.7927C23.8105 18.7477 23.6602 18.711 23.5064 18.6928C23.4918 18.6911 23.4781 18.6851 23.4638 18.6838C23.4227 18.6786 23.4053 18.6529 23.4058 18.6108C23.4058 18.5697 23.4031 18.5285 23.4057 18.4874C23.415 18.3321 23.3219 18.2271 23.1868 18.1989C23.0894 18.1784 22.989 18.1799 22.8922 18.2031C22.7684 18.2329 22.6952 18.3133 22.6781 18.45C22.6711 18.5007 22.6671 18.5518 22.666 18.603C22.6653 18.6697 22.6611 18.6754 22.5977 18.6886C22.5196 18.7049 22.4409 18.7173 22.3628 18.7332C22.2821 18.7496 22.2024 18.77 22.1236 18.7945C22.0723 18.8105 22.0603 18.8041 22.0389 18.7532C22.0191 18.7065 22.0006 18.6591 21.9752 18.6153C21.9082 18.4997 21.7872 18.4464 21.6635 18.4803C21.5745 18.5052 21.4899 18.545 21.4129 18.5984C21.3006 18.6755 21.2598 18.8211 21.3074 18.9584C21.3216 18.9992 21.3424 19.0372 21.359 19.0772C21.3799 19.1274 21.3781 19.1394 21.3367 19.1664C21.1903 19.2618 21.055 19.3731 20.9203 19.4857C20.881 19.5186 20.8702 19.519 20.8333 19.4829C20.8005 19.4489 20.7657 19.4171 20.7291 19.3878C20.6255 19.3081 20.4841 19.3072 20.3868 19.3948C20.3189 19.4558 20.2547 19.5223 20.2065 19.6039C20.1332 19.7273 20.1503 19.8738 20.2502 19.9739C20.2907 20.0145 20.2948 20.0175 20.3605 20.0652C20.2597 20.1726 20.063 20.4624 20.0053 20.5766" fill="#414141" />
  <path d="M18.6353 21.2578C18.2298 21.2576 17.8242 21.2575 17.4186 21.2574C16.7741 21.2579 16.1295 21.2584 15.4848 21.2589C15.3363 21.2591 15.3338 21.254 15.3543 21.0989C15.3687 20.9859 15.3712 20.8731 15.3115 20.7703C15.2471 20.6594 15.1563 20.5885 15.0342 20.5687C14.9747 20.5583 14.9146 20.5519 14.8543 20.5493C14.7819 20.5472 14.7687 20.528 14.766 20.4502C14.7571 20.1989 14.7376 19.9491 14.692 19.7014C14.6738 19.6035 14.6788 19.5952 14.7711 19.568C14.8458 19.5461 14.9186 19.5188 14.9852 19.4762C15.1508 19.3699 15.1994 19.1887 15.1595 19.0024C15.1413 18.9177 15.1136 18.8349 15.0868 18.7524C15.0171 18.5386 14.8329 18.4275 14.6241 18.4693C14.5526 18.4836 14.484 18.5079 14.4151 18.5311C14.3585 18.5505 14.3514 18.5486 14.325 18.49C14.2152 18.2441 14.0856 18.0087 13.9378 17.7865C13.91 17.7449 13.9115 17.732 13.9536 17.6981C14.0116 17.6514 14.0586 17.5921 14.1123 17.5406C14.2416 17.4172 14.239 17.1576 14.1616 17.0336C14.0885 16.917 13.9961 16.8179 13.8954 16.7308C13.7689 16.6208 13.547 16.6171 13.4065 16.7517C13.3582 16.7979 13.3032 16.8365 13.2604 16.8894C13.2348 16.9211 13.2111 16.9218 13.1807 16.8945C13.109 16.8299 13.0365 16.7661 12.9621 16.705C12.8455 16.6093 12.7228 16.5232 12.5983 16.439C12.4905 16.3662 12.4955 16.3826 12.5502 16.2617C12.573 16.2137 12.5931 16.1641 12.6103 16.1134C12.6728 15.9158 12.6158 15.6996 12.4158 15.5918C12.3295 15.5456 12.2428 15.498 12.1498 15.4711C12.0193 15.4335 11.8919 15.4405 11.7773 15.5312C11.7308 15.5684 11.6935 15.6172 11.6687 15.6732C11.6379 15.74 11.6108 15.8087 11.5813 15.8761C11.5589 15.9269 11.554 15.9301 11.5035 15.9132C11.3096 15.8486 11.1114 15.8045 10.911 15.7708C10.8633 15.7632 10.8156 15.7555 10.7679 15.7483C10.6988 15.7377 10.6934 15.732 10.6921 15.6548C10.6911 15.5907 10.6913 15.5265 10.692 15.462C10.6934 15.2838 10.6048 15.1691 10.4613 15.0949C10.4201 15.0728 10.375 15.0601 10.3289 15.0578C10.2206 15.0539 10.1121 15.0467 10.0039 15.0657C9.79774 15.1026 9.66978 15.2558 9.66357 15.4775C9.66202 15.534 9.66366 15.5904 9.66305 15.6471C9.66211 15.7337 9.65877 15.7364 9.58043 15.7496C9.33967 15.7904 9.09964 15.8349 8.86571 15.9103C8.80992 15.9283 8.80325 15.9244 8.77769 15.8658C8.75336 15.8099 8.72961 15.7538 8.70508 15.6979C8.6085 15.4759 8.3849 15.4042 8.17896 15.4843C8.10183 15.5141 8.02653 15.549 7.95355 15.5889C7.83378 15.655 7.75486 15.7568 7.72909 15.9017C7.71583 15.9778 7.72262 16.0564 7.74869 16.1286C7.77121 16.1938 7.80105 16.2554 7.82923 16.3179C7.85311 16.371 7.85044 16.383 7.80487 16.4125C7.61267 16.5367 7.43316 16.6797 7.25794 16.8292C7.23541 16.8484 7.21448 16.8701 7.19275 16.8899C7.1553 16.9234 7.14377 16.9233 7.10577 16.8885C7.06377 16.85 7.02047 16.8129 6.98115 16.7714C6.83295 16.6148 6.55569 16.616 6.41208 16.7825C6.36972 16.8316 6.32939 16.8828 6.28593 16.9306C6.23336 16.9885 6.22987 16.9865 6.17591 16.9337C6.13006 16.8886 6.02198 16.7877 6.01429 16.7818C5.94225 16.6964 5.94522 16.6958 6.018 16.6083C6.63676 15.8642 7.42147 15.2975 8.29997 14.9604C8.74279 14.7904 9.19856 14.6795 9.66691 14.6362C9.95298 14.6107 10.2404 14.6076 10.5269 14.6269C10.9149 14.6514 11.2995 14.7188 11.6743 14.8281C11.9818 14.9174 12.281 15.0365 12.5679 15.184C12.764 15.2822 12.9542 15.3932 13.1375 15.5162C13.3941 15.6888 13.6372 15.8835 13.8641 16.0982C14.0812 16.3052 14.2851 16.5275 14.4743 16.7635C14.5 16.7974 14.5241 16.8327 14.5464 16.8692C14.7235 17.0814 14.8656 17.32 14.9984 17.5641C15.2654 18.0529 15.4653 18.5797 15.5919 19.1288C15.6362 19.3207 15.6657 19.5156 15.6984 19.71C15.7268 19.8795 15.8439 19.9375 15.9873 19.8553C16.1673 19.7522 16.2814 19.5075 16.2551 19.2907C16.2494 19.2437 16.2188 19.1906 16.2662 19.1464C16.3038 19.1238 16.3453 19.1256 16.3862 19.1254C16.6037 19.1246 16.8207 19.1221 17.0378 19.126C17.1275 19.1276 17.1875 19.092 17.2355 19.0129C17.4149 18.7168 17.5514 18.3937 17.6407 18.0545C17.711 17.7898 17.7615 17.521 17.7785 17.2457C17.7805 17.2175 17.7801 17.189 17.7771 17.1609C17.7733 17.1274 17.7812 17.0999 17.8103 17.0824C17.8574 17.0814 17.9604 17.075 17.9651 17.0745C18.1454 17.0631 18.1454 17.0632 18.1459 17.256C18.146 17.4025 18.1453 17.549 18.1467 17.695C18.148 17.8288 18.1815 17.8701 18.3046 17.903C18.5993 17.9826 18.8974 18.0081 19.2013 17.9911C19.3417 17.9832 19.479 17.9563 19.6182 17.9445C19.6471 17.9411 19.6753 17.9332 19.702 17.9213C19.7865 17.8868 19.8114 17.8518 19.8126 17.7541C19.8146 17.5718 19.8116 17.3896 19.8137 17.2073C19.8142 17.1675 19.8065 17.1239 19.8396 17.0916C19.8943 17.0468 19.9466 17.0809 19.9955 17.1027C20.1164 17.1566 20.2074 17.2524 20.2909 17.356C20.4456 17.548 20.5606 17.7672 20.6695 17.9902C20.6791 18.0082 20.6832 18.0289 20.6812 18.0495C20.6773 18.0993 20.6433 18.1243 20.6088 18.1482C20.3241 18.3441 20.0687 18.5767 19.8337 18.8363C19.5642 19.1337 19.3408 19.4662 19.1516 19.8254C18.9319 20.2427 18.7826 20.6874 18.6946 21.1562C18.6871 21.1954 18.6946 21.2512 18.6353 21.2578Z" fill="#45423D" />
  <path d="M18.6351 21.2578C18.6534 21.1702 18.6708 21.0825 18.69 20.9956C18.847 20.2812 19.1493 19.6436 19.586 19.077C19.8759 18.6984 20.22 18.3706 20.6055 18.1054C20.6277 18.0899 20.6521 18.0776 20.6658 18.0513C20.6831 18.0205 21.9979 17.1191 23.4693 17.4072C23.5569 17.4748 23.5673 17.6049 23.5198 17.7228C23.4734 17.8379 23.3869 17.8742 23.2481 17.8707C23.12 17.8675 22.9922 17.8603 22.8647 17.8678C22.6503 17.8794 22.4371 17.9084 22.2269 17.9545C21.651 18.0833 21.1266 18.3327 20.6562 18.7087C20.1067 19.1479 19.6921 19.7033 19.4077 20.3683C19.2924 20.64 19.2056 20.9243 19.1489 21.2161C19.1455 21.2336 19.0984 21.5157 19.084 21.6402C19.0709 21.7559 19.0189 21.8365 18.914 21.8748C18.7598 21.9309 18.595 21.8114 18.5916 21.6382C18.5897 21.551 18.6073 21.4651 18.6195 21.3791C18.6245 21.345 18.6298 21.2634 18.6351 21.2578Z" fill="#A19D98" />
  <path d="M17.3794 20.658C17.1164 20.6582 16.8533 20.6593 16.5903 20.6583C16.4671 20.6578 16.3778 20.5938 16.3268 20.4765C16.2759 20.3592 16.2915 20.2453 16.3652 20.1433C16.4237 20.0627 16.5075 20.0317 16.6006 20.0285C16.6633 20.0264 16.7261 20.0275 16.7891 20.0276C17.2331 20.0276 17.6771 20.0275 18.1211 20.0275C18.2052 20.0274 18.2835 20.0428 18.3503 20.1034C18.4424 20.1875 18.48 20.3236 18.4418 20.445C18.4231 20.5065 18.3866 20.5602 18.3376 20.5985C18.2886 20.6367 18.2295 20.6575 18.1686 20.6579C17.9056 20.6596 17.6427 20.6587 17.3796 20.6589L17.3794 20.658Z" fill="#FCBE4F" />
  <path d="M9.05285 14.0082C9.06932 14.0221 9.08816 14.0225 9.10751 14.0184C9.27202 13.984 9.43843 13.9642 9.60499 13.9457C9.61948 13.944 9.61223 13.9442 9.65333 13.94C10.2382 13.8933 11.018 13.9268 11.6312 14.0985C11.7665 14.1382 11.9027 14.1677 12.038 14.2071C12.0519 14.208 12.7144 14.4651 12.9719 14.612C12.995 14.6294 13.0062 14.6388 13.0227 14.6522C13.0333 14.7784 12.9965 14.8732 12.9273 14.9594C12.8309 15.0795 12.7035 15.1657 12.5609 15.2203C12.3774 15.1356 12.1946 15.0489 12.005 14.9795C11.6697 14.8566 11.3242 14.7675 10.9731 14.7135C10.6672 14.6673 10.3584 14.6478 10.0495 14.6548C9.68507 14.6616 9.32227 14.7082 8.96684 14.794C7.86365 15.0584 6.86364 15.6774 6.10241 16.5668C6.07808 16.5954 6.05324 16.6234 6.02884 16.6517C5.97814 16.711 5.95599 16.7494 5.91863 16.7965C5.85657 16.8749 5.79618 16.9549 5.73572 17.0347C5.59452 17.221 5.34612 17.2312 5.19122 17.0361C5.08638 16.904 5.10398 16.7047 5.18913 16.5791C5.28197 16.4446 5.38123 16.3153 5.48652 16.1916C5.59413 16.0634 5.69899 15.9324 5.81697 15.8145C5.98233 15.6495 6.14695 15.4833 6.32682 15.3361C6.94102 14.8336 7.61432 14.4502 8.35651 14.2078C8.55264 14.1436 8.75185 14.0906 8.95329 14.0489C8.9888 14.0417 9.02606 14.0391 9.05285 14.0082Z" fill="#EDAE50" />
  <path d="M15.0944 16.4856C15.2744 16.7118 15.421 16.9623 15.5625 17.2161C15.729 17.5148 15.8674 17.828 15.9847 18.1518C16.0923 18.4492 16.1854 18.7512 16.2474 19.0634C16.2547 19.0985 16.2634 19.1328 16.2715 19.1681C16.2878 19.2638 16.3064 19.3586 16.2868 19.4574C16.2465 19.6599 16.1519 19.8185 15.9708 19.9069C15.8191 19.9809 15.6874 19.9037 15.6625 19.728C15.5968 19.2655 15.4899 18.8139 15.3272 18.3783C15.1346 17.863 14.8824 17.3841 14.5618 16.9458C14.5473 16.9256 14.5336 16.9044 14.5196 16.8836C14.5542 16.7612 14.6259 16.6622 14.6949 16.5605C14.7336 16.5033 14.7936 16.5126 14.8437 16.4958C14.9245 16.4687 15.0094 16.4465 15.0944 16.4856Z" fill="#EDAE50" />
  <path d="M15.0538 16.4753C14.6573 16.4415 14.533 16.8577 14.5203 16.8838C14.3489 16.662 14.168 16.4497 13.9712 16.2528C13.5712 15.8514 13.1174 15.5153 12.6247 15.2556C12.6029 15.2443 12.582 15.2325 12.5606 15.2204C12.5791 15.1973 12.7422 15.1631 12.8781 14.9657C12.9931 14.7988 13.0201 14.6855 13.0224 14.6524C13.1522 14.7041 13.2656 14.7883 13.3834 14.8631C13.5871 14.9912 13.7828 15.1329 13.9696 15.2875C14.1383 15.4283 14.302 15.575 14.4579 15.7326C14.5648 15.8405 14.6649 15.9547 14.7658 16.0678C14.8833 16.1994 15.0018 16.3318 15.0949 16.4858" fill="#FCD38C" />
  <path d="M25.3405 18.372C25.2978 18.2964 25.233 18.2411 25.1809 18.1734C24.9004 17.8102 24.6992 17.401 24.5574 16.9573C24.5412 16.9064 24.5263 16.8549 24.51 16.8038C24.5032 16.7823 24.498 16.7576 24.4691 16.7584C24.1116 16.4333 23.6804 16.2522 23.258 16.0539C22.6199 15.7546 21.9538 15.5491 21.2799 15.3681C20.7514 15.2261 20.2159 15.1209 19.6789 15.0236C19.63 15.0148 19.5778 15.0105 19.544 14.9621C19.5351 14.9269 19.5351 14.891 19.535 14.8551C19.534 14.4303 19.5339 14.0055 19.5347 13.5807C19.5347 13.5344 19.5212 13.4813 19.5681 13.447C19.674 13.4746 19.7834 13.4745 19.8908 13.4903C20.0938 13.5201 20.2981 13.5422 20.5007 13.5746C20.7632 13.6162 21.0264 13.6532 21.2868 13.7085C21.4666 13.7469 21.6473 13.7792 21.8267 13.8198C22.037 13.8674 22.2472 13.9154 22.4549 13.9715C22.801 14.0647 23.147 14.1594 23.4844 14.2853C23.6186 14.3354 23.7518 14.3895 23.8878 14.434C24.0264 14.4792 24.135 14.5697 24.2384 14.6714C24.4632 14.8929 24.6875 15.115 24.9046 15.3453C25.0496 15.4994 25.1955 15.6523 25.3338 15.8135C25.3938 15.8834 25.46 15.9472 25.5225 16.0151C25.6303 16.1327 25.7306 16.2575 25.841 16.3726C25.9296 16.465 25.9822 16.5815 25.9888 16.7149C25.998 16.9023 25.9925 17.0881 25.948 17.2725C25.8659 17.6118 25.7142 17.9111 25.5085 18.1818C25.4569 18.2492 25.4036 18.3155 25.3405 18.372Z" fill="#EDAE50" />
  <path d="M16.3104 14.4197L15.811 14.0519C15.8027 14.0466 15.7949 14.0406 15.7875 14.034C15.7573 14.0032 15.7392 14.0174 15.7201 14.0494C15.6919 14.0971 15.6602 14.1425 15.6298 14.1888C15.5577 14.2979 15.4872 14.4082 15.4131 14.5157C15.3581 14.5956 15.2882 14.6202 15.2111 14.5946C15.0956 14.5561 15.0434 14.424 15.1004 14.3094C15.1184 14.2733 15.1423 14.2405 15.1642 14.2068C15.4178 13.8196 15.6715 13.4325 15.9254 13.0454C15.9413 13.0197 15.9588 12.9952 15.978 12.9721C16.0441 12.8962 16.1446 12.8843 16.2206 12.9411C16.2576 12.9686 16.2838 13.0096 16.2942 13.0563C16.3045 13.1031 16.2982 13.1522 16.2766 13.1943C16.2541 13.2394 16.2252 13.281 16.1976 13.3231C16.1189 13.4429 16.0394 13.5622 15.9603 13.6817C15.9287 13.7293 15.928 13.7303 15.9732 13.7638C16.1435 13.8898 16.3139 14.0154 16.4845 14.1407L16.3104 14.4197Z" fill="#45423E" />
  <path d="M18.3664 13.3523C18.3897 13.3698 18.3883 13.3964 18.3883 13.4216C18.3892 13.8719 18.3895 14.322 18.3893 14.7721C18.3899 14.7875 18.3874 14.8027 18.3821 14.8171C18.3523 14.8556 18.3096 14.8541 18.2693 14.8543C18.12 14.8551 17.9708 14.8468 17.8217 14.8438C17.4049 14.8346 16.9881 14.8407 16.5708 14.8419C16.5418 14.8419 16.5128 14.8436 16.4859 14.8574C16.4701 14.8651 16.4556 14.8762 16.4578 14.8974C16.4601 14.9186 16.4769 14.9252 16.4937 14.9298C16.5054 14.933 16.5174 14.9345 16.5295 14.9342C16.7341 14.9293 16.9386 14.9382 17.1436 14.9244C17.3403 14.9111 17.5382 14.9149 17.7358 14.9274C17.9063 14.9381 18.0774 14.9426 18.2482 14.949C18.2917 14.9506 18.3352 14.9473 18.3739 14.9749C18.3934 15.078 18.4238 15.1801 18.4032 15.2874C18.4027 15.2973 18.4001 15.3069 18.3955 15.3154C18.3636 15.3558 18.3141 15.3567 18.2727 15.3751C18.1943 15.4098 18.1554 15.4665 18.1579 15.5585C18.1694 15.9789 18.1386 16.3988 18.1443 16.8192C18.145 16.8679 18.146 16.9165 18.1512 16.9651C18.1622 17.07 18.1349 17.1047 18.0353 17.1155C18.0089 17.1183 17.9824 17.1192 17.9556 17.1199C17.9092 17.1206 17.8629 17.1209 17.8168 17.1171C17.6812 17.1397 17.544 17.1414 17.4075 17.1514C17.1543 17.1697 16.9682 17.0602 16.8362 16.828C16.6528 16.5058 16.4678 16.1847 16.3 15.8528C16.2247 15.7039 16.1548 15.5522 16.0755 15.4054C15.9481 15.1694 15.9465 14.9387 16.0951 14.7126C16.1598 14.6142 16.207 14.5032 16.2844 14.4139C16.3273 14.3065 16.3968 14.217 16.4592 14.1226C16.6024 13.8975 16.7537 13.6786 16.9165 13.4691C16.9662 13.4052 17.0354 13.3657 17.0992 13.3198C17.1837 13.2954 17.4906 13.2887 17.5684 13.2859C17.6568 13.2827 17.7453 13.2845 17.8338 13.2857C17.876 13.286 18.2852 13.3092 18.3664 13.3523Z" fill="#EDAE50" />
  <path d="M23.5705 17.6767C23.5432 17.6606 23.5262 17.6382 23.528 17.6028C23.5335 17.4949 23.4677 17.4417 23.3874 17.402C23.2804 17.3606 22.4653 17.2798 21.6551 17.5797C21.3702 17.6781 21.0955 17.8008 20.8372 17.9631C20.7895 17.993 20.7368 18.0133 20.6923 18.0493C20.686 18.0542 20.6739 18.051 20.6646 18.0516C20.601 17.9551 20.5589 17.8456 20.5015 17.7452C20.4128 17.5899 20.3189 17.4391 20.1989 17.3082C20.1046 17.2054 19.9979 17.1266 19.863 17.0978C19.8259 17.1008 19.8204 17.072 19.8158 17.0439C19.8118 17.0108 19.8103 16.9774 19.8115 16.9441C19.8113 16.7109 19.8072 16.4776 19.8119 16.2444C19.8162 16.0238 19.7924 15.8043 19.795 15.5839C19.7961 15.5 19.7587 15.4431 19.6862 15.4106C19.6573 15.3976 19.6293 15.3827 19.6022 15.3659C19.5815 15.353 19.5591 15.3396 19.5682 15.3067L19.5707 15.1399C19.5947 15.1046 19.6273 15.1096 19.6621 15.115C20.0633 15.1789 20.4617 15.2579 20.8573 15.352C21.333 15.466 21.8059 15.5912 22.2691 15.7546C22.6402 15.8853 23.0076 16.0276 23.3633 16.2017C23.532 16.2843 23.7041 16.3601 23.8582 16.4721C23.9163 16.5142 23.963 16.5703 24.007 16.6286C24.1121 16.7673 24.0857 16.9284 24.076 17.0864C24.0731 17.1357 24.051 17.1815 24.0471 17.2312C23.9565 17.3781 23.8791 17.5338 23.8161 17.6962C23.8032 17.73 23.7859 17.7425 23.7498 17.7296C23.6914 17.7085 23.6306 17.6941 23.5705 17.6767Z" fill="#EDAE50" />
  <path d="M24.0477 17.2314C24.0274 17.1901 24.0306 17.1455 24.0381 17.1032C24.0538 17.014 24.0482 16.9243 24.0481 16.8347C24.048 16.7469 24.0023 16.6788 23.9522 16.6162C23.8893 16.5381 23.8124 16.4742 23.7258 16.4283C23.3208 16.2098 22.9017 16.0281 22.4727 15.8703C22.1627 15.7561 21.85 15.6519 21.5322 15.5657C21.1305 15.4567 20.7275 15.3562 20.3195 15.2737C20.085 15.2264 19.8489 15.1909 19.6143 15.1447C19.6002 15.142 19.5853 15.1415 19.5712 15.1399C19.5711 15.0833 19.5711 15.0269 19.571 14.9707C19.7152 14.9852 19.857 15.0155 19.9992 15.0426C20.1842 15.0778 20.3689 15.1152 20.5532 15.1549C20.7466 15.1969 20.9403 15.2377 21.1316 15.2916C21.2782 15.3328 21.4265 15.3678 21.5735 15.4084C21.9331 15.5078 22.2884 15.6219 22.6393 15.751C22.9243 15.8557 23.2 15.9857 23.4772 16.1113C23.7409 16.2313 23.9967 16.3702 24.2428 16.527C24.315 16.5728 24.3814 16.6291 24.4495 16.6819C24.4737 16.7006 24.4954 16.7231 24.4692 16.7581C24.3774 16.8448 24.2826 16.9278 24.2012 17.0267C24.147 17.0925 24.099 17.1631 24.0477 17.2314Z" fill="#FCD38C" />
  <path d="M18.3686 14.8181L18.3692 14.9872C17.8865 14.9454 16.9869 14.9461 16.5327 14.9736C16.4983 14.9718 16.4638 14.9681 16.4298 14.9624C16.4044 14.9563 16.3653 14.9215 16.3659 14.8998C16.3671 14.8599 16.3886 14.8406 16.4166 14.8258C16.4516 14.8071 16.4983 14.8036 16.5377 14.8036C16.9722 14.8032 17.4068 14.7959 17.841 14.8067C18.0167 14.811 18.1927 14.8137 18.3686 14.8181Z" fill="#FCD38C" />
  <path d="M25.8174 16.8628C25.8199 17.0287 25.7887 17.1813 25.7442 17.3312C25.6656 17.5965 25.5374 17.8333 25.3741 18.0494C25.341 18.0932 25.3393 18.0934 25.3046 18.0501C25.1456 17.8515 25.0183 17.6314 24.9091 17.3985C24.8271 17.2235 24.76 17.0422 24.6997 16.8579C24.6812 16.8007 24.6833 16.7905 24.7371 16.7611C24.9251 16.6583 25.1222 16.5852 25.3324 16.5531C25.4282 16.5385 25.5249 16.5387 25.6207 16.5261C25.6303 16.5252 25.64 16.5249 25.6496 16.5255C25.7407 16.5272 25.755 16.5395 25.7893 16.6277C25.8197 16.7063 25.8192 16.7879 25.8174 16.8628Z" fill="#FEFEFE" />
  <path d="M19.5614 13.4848C19.5617 13.9749 19.5679 15.0498 19.5794 15.3513C19.5525 15.3878 19.5176 15.3745 19.486 15.365C19.1461 15.2597 18.804 15.2757 18.461 15.3426C18.432 15.3482 18.4039 15.3559 18.3794 15.3307L18.3776 15.3332C18.3617 15.3101 18.3757 12.9151 18.3736 12.7618C18.3726 12.6959 18.3829 12.6362 18.4137 12.5784C18.4514 12.5073 18.4844 12.4333 18.5195 12.3605C18.5243 12.3552 18.5309 12.3519 18.5378 12.3512C18.9336 12.5306 19.2605 12.7389 19.5586 13.0627C19.5544 13.1799 19.5589 13.3366 19.5614 13.4848Z" fill="#414141" />
  <path d="M18.5389 12.3231L18.533 12.3231L18.5272 12.322C18.5557 12.2494 18.5573 12.1734 18.557 12.0961C18.5559 11.8654 18.5593 11.6347 18.557 11.4041C18.5563 11.32 18.58 11.2518 18.6293 11.186C18.8726 10.8613 19.137 10.5551 19.4206 10.2696C19.6008 10.0882 19.7921 9.91956 20.0023 9.77722C20.0423 9.78737 20.0252 9.81506 20.0162 9.83635C19.8874 10.139 19.906 10.4562 19.9467 10.7711C19.9647 10.9098 20.001 11.0528 20.1095 11.1546C20.1172 11.1611 20.1224 11.1703 20.124 11.1806C20.1257 11.1909 20.1236 11.2015 20.1183 11.2102C19.8734 11.3315 19.6812 11.5198 19.519 11.7457C19.495 11.7791 19.4773 11.8143 19.4833 11.8583C19.4727 12.1331 19.4753 12.4077 19.4847 12.86C19.4842 12.8648 19.4836 12.8697 19.4828 12.8745C19.4465 12.9006 19.4229 12.8711 19.4006 12.851C19.3037 12.7634 19.2096 12.6726 19.1053 12.5946C18.9912 12.5092 18.8742 12.4295 18.7478 12.366C18.6812 12.3328 18.6134 12.3103 18.5389 12.3231Z" fill="#A19D98" />
  <path d="M20.1599 9.7433C20.2088 9.76925 20.2338 9.81264 20.2462 9.86837C20.2778 10.0101 20.2988 10.1543 20.3088 10.2995C20.326 10.5479 20.2923 10.7883 20.2342 11.0268C20.2221 11.0765 20.208 11.1255 20.1771 11.1665C20.1463 11.1721 20.1368 11.1483 20.1243 11.1256C19.9801 10.8627 19.9538 10.5757 19.9714 10.28C19.9738 10.2394 19.9798 10.1989 19.9823 10.158C19.9904 10.0009 20.0537 9.85286 20.1599 9.7433Z" fill="#A19D98" />
  <path d="M19.7203 15.3808C19.7954 15.4159 19.8324 15.4673 19.8355 15.5629C19.8511 16.0447 19.8473 16.5266 19.8488 17.0084C19.8488 17.0393 19.852 17.1677 19.8518 17.2034C19.8508 17.4033 19.8478 17.6033 19.8505 17.8031C19.8515 17.8734 19.8241 17.9136 19.767 17.9391C19.2899 18.0782 18.6701 18.0718 18.2354 17.9248C18.1374 17.8932 18.1113 17.8544 18.1104 17.7468C18.1093 17.6059 18.1102 17.4649 18.1101 17.3238C18.1101 17.2649 18.111 17.2059 18.11 17.147C18.1089 17.088 18.1237 16.1742 18.1237 16.1461C18.1235 15.9308 18.1249 15.7154 18.1227 15.5C18.122 15.4324 18.1453 15.3916 18.2048 15.3633C18.8948 15.1308 19.2571 15.198 19.7203 15.3808Z" fill="#A19D98" />
  <path d="M18.2525 16.6509L18.2517 15.6116C18.2516 15.5936 18.2511 15.5756 18.2516 15.5575C18.2531 15.4862 18.2588 15.4766 18.3233 15.4515C18.566 15.3523 19.2755 15.258 19.6545 15.5235C19.7143 15.557 19.7239 15.5911 19.7265 15.672C19.7365 15.854 19.7205 17.2063 19.7215 17.7271C19.7215 17.7375 19.7215 17.7477 19.7215 17.758C19.7199 17.8322 19.7151 17.8357 19.6443 17.8515C19.2025 17.9495 18.7632 17.9369 18.3256 17.8216C18.2609 17.8046 18.2574 17.8029 18.2572 17.7284C18.2565 17.4897 18.2563 17.251 18.2567 17.0123C18.2566 16.8917 18.2565 16.7711 18.2564 16.6504L18.2525 16.6509Z" fill="#45423D" />
  <path d="M18.5225 12.338C18.5309 12.272 18.5688 12.2652 18.6417 12.2833C18.7294 12.311 18.8132 12.3507 18.8912 12.4016C19.0647 12.5116 19.2309 12.6326 19.3767 12.7829C19.4093 12.8164 19.4471 12.8445 19.4825 12.8748C19.4875 12.8969 19.4987 12.9169 19.5148 12.932C19.5608 12.976 19.5671 13.0269 19.5578 13.0911C19.4813 13.0796 19.4383 13.0311 19.3897 12.9742C19.258 12.8201 19.1041 12.6954 18.9409 12.5819C18.8404 12.512 18.6865 12.4356 18.5748 12.3884C18.5365 12.3722 18.5182 12.3732 18.5225 12.338Z" fill="#DCF9FB" />
  <path d="M20.1608 9.7433C20.1865 9.75824 20.2031 9.76508 20.1368 9.82759C20.0529 9.90768 19.9975 10.1095 20.0035 10.4404C20.0091 10.6597 20.0119 10.855 20.178 11.1665C20.164 11.1896 20.1456 11.2067 20.1187 11.2102C19.8377 10.9167 19.8641 10.0131 20.0026 9.77719C20.0601 9.71385 20.0937 9.70665 20.1608 9.7433Z" fill="#DCF9FB" />
</svg>
