<svg width="32" height="32" viewBox="0 0 32 32" fill="none" xmlns="http://www.w3.org/2000/svg">
    <path d="M16 32C24.8366 32 32 24.8366 32 16C32 7.16344 24.8366 0 16 0C7.16344 0 0 7.16344 0 16C0 24.8366 7.16344 32 16 32Z" fill="white"/>
    <path d="M16.078 3.34168L15.8993 3.34189L15.9063 9.25978L16.085 9.25957L16.078 3.34168Z" fill="#6868FC"/>
    <path d="M21.9511 19.2811L21.8604 19.4351L26.8915 22.3964L26.9821 22.2424L21.9511 19.2811Z" fill="#6868FC"/>
    <path d="M10.0758 19.2809L5.04492 22.2425L5.13558 22.3965L10.1665 19.4349L10.0758 19.2809Z" fill="#6868FC"/>
    <path d="M15.9875 16.1294C15.964 16.1293 15.9409 16.1231 15.9205 16.1114L10.0386 12.7138C10.0182 12.702 10.0013 12.6851 9.98951 12.6647C9.97775 12.6444 9.97156 12.6213 9.97156 12.5977C9.97156 12.5742 9.97775 12.5511 9.98951 12.5307C10.0013 12.5103 10.0182 12.4934 10.0386 12.4817L15.9205 9.08554C15.9409 9.07375 15.9641 9.06755 15.9877 9.06758C16.0113 9.06761 16.0344 9.07386 16.0548 9.0857L21.9289 12.4957C21.9492 12.5075 21.9661 12.5244 21.9778 12.5448C21.9895 12.5652 21.9956 12.5883 21.9956 12.6118C21.9956 12.6353 21.9893 12.6584 21.9776 12.6787C21.9658 12.6991 21.9488 12.716 21.9285 12.7277L16.0544 16.1114C16.0341 16.1231 16.011 16.1293 15.9875 16.1294ZM10.3736 12.5978L15.9876 15.8406L21.5938 12.6112L15.9873 9.35651L10.3736 12.5978Z" fill="#77E3EF"/>
    <path d="M15.9875 22.8865C15.9641 22.8865 15.9411 22.8804 15.9208 22.8687L10.0464 19.4972C10.026 19.4855 10.009 19.4686 9.99718 19.4482C9.98536 19.4278 9.97913 19.4047 9.97911 19.3811L9.97156 12.5979C9.97152 12.5744 9.97769 12.5512 9.98944 12.5308C10.0012 12.5104 10.0181 12.4935 10.0385 12.4817C10.0589 12.4699 10.082 12.4637 10.1056 12.4637C10.1291 12.4637 10.1522 12.4699 10.1726 12.4817L16.0546 15.8793C16.0749 15.8911 16.0918 15.908 16.1036 15.9283C16.1154 15.9487 16.1215 15.9718 16.1216 15.9953V22.7524C16.1216 22.788 16.1074 22.8221 16.0823 22.8472C16.0572 22.8723 16.0231 22.8864 15.9876 22.8864L15.9875 22.8865ZM10.2471 19.3034L15.8535 22.521V16.0727L10.2399 12.8301L10.2471 19.3034Z" fill="#4ACBDC"/>
    <path d="M15.9875 22.8865C15.9699 22.8865 15.9525 22.8831 15.9362 22.8763C15.92 22.8696 15.9052 22.8597 15.8928 22.8473C15.8803 22.8348 15.8704 22.8201 15.8637 22.8038C15.857 22.7875 15.8535 22.7701 15.8535 22.7525V15.9954C15.8535 15.9718 15.8597 15.9487 15.8715 15.9283C15.8833 15.9079 15.9002 15.891 15.9206 15.8792L21.7947 12.4956C21.8151 12.4838 21.8382 12.4777 21.8617 12.4777C21.8853 12.4777 21.9084 12.4839 21.9287 12.4957C21.9491 12.5074 21.966 12.5244 21.9777 12.5447C21.9895 12.5651 21.9957 12.5882 21.9957 12.6117V19.3961C21.9957 19.4197 21.9894 19.443 21.9775 19.4634C21.9657 19.4838 21.9486 19.5008 21.9281 19.5125L16.054 22.8689C16.0337 22.8804 16.0108 22.8865 15.9875 22.8865V22.8865ZM16.1215 16.0728V22.5216L21.7276 19.3183V12.8436L16.1215 16.0728Z" fill="#07ABC5"/>
    <path d="M15.991 29L4.73291 22.4998V9.50015L15.991 3L27.2494 9.50013V22.4998L15.991 29ZM5.35806 22.1389L15.991 28.2781L26.6242 22.1389V9.86107L15.991 3.72186L5.35806 9.86107V22.1389Z" fill="#7C7CFF"/>
    <path d="M15.9908 16.3719L4.90676 9.96222C4.87123 9.94167 4.84009 9.91432 4.81512 9.88173C4.79016 9.84915 4.77186 9.81196 4.76126 9.77231C4.75067 9.73265 4.74799 9.69129 4.75338 9.65059C4.75877 9.6099 4.77212 9.57067 4.79267 9.53513C4.81322 9.4996 4.84057 9.46846 4.87316 9.44349C4.90574 9.41853 4.94293 9.40023 4.98259 9.38963C5.02224 9.37904 5.0636 9.37636 5.1043 9.38175C5.14499 9.38714 5.18422 9.40049 5.21976 9.42104L15.9913 15.65L26.7984 9.42081C26.8702 9.37941 26.9555 9.36824 27.0356 9.38976C27.0752 9.40041 27.1124 9.41876 27.1449 9.44378C27.1775 9.46879 27.2048 9.49997 27.2253 9.53553C27.2458 9.5711 27.2591 9.61035 27.2644 9.65105C27.2697 9.69175 27.267 9.7331 27.2564 9.77275C27.2457 9.81239 27.2273 9.84954 27.2023 9.88209C27.1773 9.91464 27.1461 9.94194 27.1106 9.96244L15.9908 16.3719Z" fill="#7C7CFF"/>
    <path d="M16.009 28.9516C15.9261 28.9516 15.8466 28.9187 15.788 28.8601C15.7293 28.8015 15.6964 28.722 15.6964 28.6391V16.011C15.6964 15.9281 15.7293 15.8486 15.788 15.79C15.8466 15.7314 15.9261 15.6984 16.009 15.6984C16.0919 15.6984 16.1714 15.7314 16.23 15.79C16.2886 15.8486 16.3216 15.9281 16.3216 16.011V28.6391C16.3216 28.722 16.2886 28.8015 16.23 28.8601C16.1714 28.9187 16.0919 28.9516 16.009 28.9516V28.9516Z" fill="#7C7CFF"/>
</svg>
