<svg width="32" height="32" viewBox="0 0 32 32" fill="none" xmlns="http://www.w3.org/2000/svg">
    <path d="M16 32C24.8366 32 32 24.8366 32 16C32 7.16344 24.8366 0 16 0C7.16344 0 0 7.16344 0 16C0 24.8366 7.16344 32 16 32Z" fill="#EFF4F4"/>
    <path d="M16.7334 19.7999V28.6666C16.7334 29.1332 16.4667 29.3332 16.0667 29.1332L11.0667 26.3999C10.6667 26.1332 10.4 25.6666 10.4 25.1999V16.5999C10.4667 16.6666 10.5334 16.7332 10.6 16.7332L16.7334 19.7999Z" fill="#4D5FAB"/>
    <path d="M21.5333 9.46665V3.26665C21.5333 2.86665 21.2666 2.73332 20.9999 2.86665L11.7999 7.59998C10.7999 8.13332 10.5333 8.19998 10.4666 8.79998C10.5333 8.53332 10.7333 8.39998 10.9999 8.53332L17.9333 12.0667L20.9999 10.4667C21.3333 10.2667 21.5333 9.86665 21.5333 9.46665Z" fill="#215EAC"/>
    <path d="M10.4666 15.4C10.5333 15.6667 10.7333 15.9333 10.9999 16.1333L20.9999 21.2667C21.3333 21.4 21.5333 21.2667 21.5333 20.8667V14.6667C21.5333 14.2667 21.3333 13.9333 20.9999 13.6667L17.9333 12.0667L10.9999 15.6C10.7333 15.7333 10.5333 15.6 10.4666 15.4Z" fill="#40B4E2"/>
    <path d="M10.4666 8.79892C10.4666 8.99892 10.4666 9.19892 10.4666 9.46559V15.1989C10.4666 15.2656 10.4666 15.3323 10.4666 15.3989C10.5333 15.5989 10.7333 15.7323 10.9999 15.5989L17.9333 12.0656L10.9999 8.53226C10.7333 8.39892 10.5333 8.53226 10.4666 8.79892Z" fill="#16A0DB"/>
</svg>
