<svg width="32" height="32" viewBox="0 0 32 32" fill="none" xmlns="http://www.w3.org/2000/svg">
    <path d="M16.032 31.936C24.8155 31.936 31.936 24.8155 31.936 16.032C31.936 7.24846 24.8155 0.128 16.032 0.128C7.24845 0.128 0.127991 7.24846 0.127991 16.032C0.127991 24.8155 7.24845 31.936 16.032 31.936Z" fill="#00EF8B"/>
    <path d="M23.0143 13.5424H18.5215V18.0352H23.0143V13.5424Z" fill="white"/>
    <path d="M14.0288 19.7184C14.0288 20.6464 13.2736 21.4016 12.3456 21.4016C11.4176 21.4016 10.6624 20.6464 10.6624 19.7184C10.6624 18.7904 11.4176 18.0352 12.3456 18.0352H14.0288V13.5488H12.3456C8.93436 13.5488 6.16956 16.3136 6.16956 19.7248C6.16956 23.136 8.93436 25.9008 12.3456 25.9008C15.7568 25.9008 18.5216 23.136 18.5216 19.7248V18.0416H14.0352V19.7184H14.0288Z" fill="white"/>
    <path d="M20.2049 11.296H25.2545V6.80316H20.2049C16.7937 6.80956 14.0353 9.56796 14.0289 12.9792V13.5424H18.5153V12.9792C18.5217 12.0512 19.2769 11.296 20.2049 11.296Z" fill="white"/>
    <path d="M14.0289 18.0352H18.5217V13.5424H14.0289V18.0352Z" fill="#16FF99"/>
</svg>
