<svg width="32" height="32" viewBox="0 0 32 32" fill="none" xmlns="http://www.w3.org/2000/svg">
    <path d="M16 32C24.8366 32 32 24.8366 32 16C32 7.16344 24.8366 0 16 0C7.16344 0 0 7.16344 0 16C0 24.8366 7.16344 32 16 32Z" fill="white"/>
    <path d="M16.006 2.27829C18.343 2.25268 20.6494 2.81075 22.7161 3.90191C24.7828 4.99307 26.5445 6.58281 27.8415 8.52701C29.1385 10.4712 29.9297 12.7084 30.1434 15.0357C30.3571 17.363 29.9866 19.7068 29.0654 21.8547C27.9599 24.4354 26.115 26.631 23.7634 28.1646C21.4117 29.6982 18.6587 30.5012 15.8513 30.4723C13.5365 30.4516 11.2627 29.8588 9.23225 28.7469C7.20184 27.635 5.47783 26.0383 4.21365 24.099C2.94946 22.1598 2.18433 19.938 1.98633 17.6316C1.78834 15.3251 2.16363 13.0055 3.07881 10.8791C4.16766 8.3465 5.96935 6.18509 8.26453 4.65804C10.5597 3.131 13.2494 2.30419 16.006 2.27829V2.27829Z" fill="#2B61D1"/>
    <path d="M17.5664 24.5249L15.9451 25.4551L12.4974 23.422L14.0715 22.516L14.1109 22.4928L14.1708 22.528L17.5664 24.5249Z" fill="white"/>
    <path d="M23.8392 11.862L23.8341 13.7472L20.4114 11.7789L19.4869 11.2469L18.5589 11.7852L14.2206 14.2982L13.2983 14.8334L13.2913 15.9372L11.6413 14.9759L10.7275 14.4437L9.80819 14.9774L8.25037 15.8807L8.28313 11.9101L16.0433 7.39148L23.8392 11.862Z" fill="white"/>
    <path d="M23.8283 15.8982L23.8144 20.9502L19.435 23.4613L19.4291 23.4577L15.1035 20.9222L15.1323 15.9L19.4776 13.3864L23.8283 15.8982Z" fill="white"/>
    <path d="M13.1782 18.0172L13.1594 20.903L10.6701 22.3388L8.21014 20.8872L8.23368 18.0113L10.7121 16.5755L13.1782 18.0172Z" fill="white"/>
</svg>
