<svg width="32" height="32" viewBox="0 0 32 32" fill="none" xmlns="http://www.w3.org/2000/svg">
    <path d="M16 32C24.8366 32 32 24.8366 32 16C32 7.16344 24.8366 0 16 0C7.16345 0 0 7.16344 0 16C0 24.8366 7.16345 32 16 32Z" fill="#19D8C9"/>
    <path fill-rule="evenodd" clip-rule="evenodd" d="M11.6116 24.5221C11.8644 24.7749 12.2073 24.9169 12.5649 24.9169C12.7414 24.9184 12.9164 24.8849 13.0799 24.8183C13.2434 24.7518 13.3921 24.6535 13.5174 24.5292C13.6428 24.4049 13.7422 24.257 13.8101 24.0941C13.878 23.9312 13.9129 23.7564 13.9129 23.5799V18.0224H19.4054C19.7572 18.0137 20.0916 17.8679 20.3373 17.616C20.583 17.3641 20.7204 17.0262 20.7203 16.6743C20.7203 16.3168 20.5783 15.9739 20.3255 15.7211C20.0727 15.4683 19.7298 15.3263 19.3723 15.3263H13.9129V14.3202C13.9159 13.1118 14.398 11.9539 15.2535 11.1005C16.109 10.247 17.2681 9.76773 18.4765 9.76773H19.3715C19.729 9.76773 20.0719 9.6257 20.3247 9.37289C20.5775 9.12008 20.7196 8.77719 20.7196 8.41966C20.7196 8.06111 20.5779 7.71707 20.3254 7.46251C20.0729 7.20794 19.73 7.06346 19.3715 7.06055H18.4765C16.5511 7.06055 14.7046 7.8254 13.3431 9.18685C11.9817 10.5483 11.2168 12.3948 11.2168 14.3202V23.5688C11.2168 23.9264 11.3588 24.2692 11.6116 24.5221Z" fill="white"/>
</svg>
