<svg width="32" height="32" viewBox="0 0 32 32" fill="none" xmlns="http://www.w3.org/2000/svg">
    <path d="M16 32C24.8366 32 32 24.8366 32 16C32 7.16344 24.8366 0 16 0C7.16344 0 0 7.16344 0 16C0 24.8366 7.16344 32 16 32Z" fill="white"/>
    <path d="M6.19774 4.27934C6.56438 4.26334 6.93103 4.21557 7.29767 4.21557C12.5901 4.21557 17.8826 4.19963 23.175 4.19963C24.4343 4.19963 24.5937 4.3431 24.7372 5.5865C24.8647 6.6705 24.9604 7.73855 25.0401 8.8225C25.056 9.13049 25.056 9.4391 25.0401 9.74709C24.9763 9.76303 24.8966 9.79491 24.8329 9.81085C24.663 9.56867 24.5137 9.31272 24.3865 9.04568C24.1793 8.58339 24.0358 8.08921 23.8126 7.64286C23.5651 7.05137 23.1585 6.54008 22.6379 6.1658C22.1172 5.79152 21.5031 5.56891 20.8635 5.5227C18.7434 5.42705 16.6232 5.47488 14.4871 5.45894C14.1468 5.443 13.8126 5.55279 13.548 5.76738C13.2834 5.98197 13.107 6.28638 13.0524 6.62263C12.92 7.11129 12.8503 7.61484 12.8452 8.1211C12.8292 13.4135 12.8292 18.706 12.8452 23.9984C12.8452 24.2542 12.8612 24.5098 12.893 24.7636C12.9289 25.2878 13.1328 25.7865 13.4745 26.1856C13.8163 26.5848 14.2776 26.8632 14.79 26.9794L16.2725 27.362C16.2542 27.4188 16.2435 27.4777 16.2406 27.5373H6.08614C6.0702 27.4895 6.0702 27.4417 6.05426 27.3939C6.43685 27.2663 6.73509 27.1601 7.18608 27.0272C7.80868 26.9635 8.38087 26.6563 8.778 26.1726C9.17512 25.6889 9.36499 25.0679 9.30624 24.4448C9.36997 22.8826 9.36997 21.3044 9.36997 19.7262C9.38591 16.0757 9.36997 12.4252 9.36997 8.77472C9.36997 8.29649 9.35403 7.80231 9.3062 7.32408C9.33553 7.00418 9.29947 6.68166 9.20021 6.37613C9.10094 6.07061 8.94056 5.78848 8.72881 5.5469C8.51706 5.30533 8.25838 5.10936 7.9685 4.97092C7.67861 4.83248 7.3636 4.75447 7.04261 4.74163C6.75567 4.67786 6.45279 4.59816 6.16585 4.51845C6.16862 4.43789 6.1793 4.35781 6.19774 4.27934V4.27934Z" fill="black"/>
</svg>
