<svg width="32" height="32" viewBox="0 0 32 32" fill="none" xmlns="http://www.w3.org/2000/svg">
    <path d="M16 32C24.8366 32 32 24.8366 32 16C32 7.16344 24.8366 0 16 0C7.16344 0 0 7.16344 0 16C0 24.8366 7.16344 32 16 32Z" fill="#1969FF"/>
    <path fill-rule="evenodd" clip-rule="evenodd" d="M15.1129 5.90387L10.0337 8.58693C9.72764 8.74862 9.57048 8.97856 9.54792 9.22485H9.54564V9.25919C9.54488 9.27794 9.54488 9.29677 9.54564 9.31565V22.6427C9.54478 22.6613 9.54484 22.6838 9.54564 22.7112C9.55336 22.9758 9.70913 23.2416 10.0337 23.4131L15.1129 26.0962C15.6107 26.359 16.368 26.359 16.8658 26.0962L21.945 23.4131C22.2711 23.241 22.4371 22.977 22.4435 22.7112H22.4439V22.6966V22.6938V9.30581V9.30379V9.22485H22.4389C22.4095 8.98125 22.2448 8.74528 21.945 8.58693L16.8658 5.90387C16.368 5.64093 15.6107 5.64093 15.1129 5.90387ZM10.3451 22.6846L15.1129 25.1899C15.4001 25.3434 15.6989 25.4928 15.9894 25.4938C16.2568 25.4947 16.517 25.367 16.78 25.2381L16.8309 25.2133L21.6443 22.663V16.7488L16.8658 19.273C16.368 19.536 15.6107 19.536 15.1129 19.273L10.3451 16.7544V22.6846ZM10.3451 14.9897L14.8909 12.5884L10.3451 10.1872V14.9897ZM17.0879 12.5884L21.6443 10.1815V14.9953L17.0879 12.5884ZM16.4925 6.6109L21.5717 9.29395L21.5832 9.30024L21.5912 9.3048L21.5869 9.3073L21.5717 9.31565L16.4925 11.9987C16.2283 12.1382 15.7504 12.1382 15.4863 11.9987L10.4071 9.31565L10.3955 9.30936L10.3876 9.3048L10.3919 9.30231L10.4071 9.29395L15.4863 6.6109C15.7504 6.47138 16.2283 6.47138 16.4925 6.6109ZM16.4925 13.1782L21.5717 15.8612L21.5832 15.8675L21.5912 15.8721L21.5869 15.8746L21.5717 15.8829L16.4925 18.5659C16.4608 18.5827 16.4261 18.5974 16.3891 18.6101V13.134C16.4261 13.1468 16.4608 13.1615 16.4925 13.1782ZM15.5897 13.134C15.5526 13.1468 15.5179 13.1615 15.4863 13.1782L10.4071 15.8612L10.3919 15.8696L10.3876 15.8721L10.3955 15.8766L10.4071 15.8829L15.4863 18.5659C15.5179 18.5827 15.5526 18.5974 15.5897 18.6101V13.134ZM22.3949 6.90512L21.9812 7.58928L22.2696 7.76341L22.3635 7.82095C22.4432 7.87027 22.5087 7.91224 22.568 7.95231L22.5835 7.96278C22.8543 8.14718 23.0024 8.29874 23.1013 8.49706C23.2205 8.7363 23.2805 9.07594 23.2805 9.59266H24.08V9.55671C24.0743 8.37677 23.7866 7.80957 23.0149 7.28931C22.9427 7.24064 22.8655 7.19112 22.772 7.13349L22.7178 7.10016L22.3949 6.90512ZM10.019 24.4214L9.60524 25.1056L9.28235 24.9106L9.22806 24.8771C9.1347 24.8195 9.05732 24.7701 8.98513 24.7213C8.21356 24.2011 7.9258 23.6339 7.92014 22.4539L7.92004 22.4181H8.71952C8.71952 22.9347 8.77956 23.2744 8.89878 23.5136C8.9976 23.712 9.14587 23.8635 9.41659 24.0478L9.43204 24.0584C9.49147 24.0984 9.55691 24.1403 9.63657 24.1898L9.73052 24.2472L10.019 24.4214Z" fill="white"/>
</svg>
