<svg width="32" height="32" viewBox="0 0 32 32" fill="none" xmlns="http://www.w3.org/2000/svg">
    <path d="M16 32C24.8366 32 32 24.8366 32 16C32 7.16344 24.8366 0 16 0C7.16344 0 0 7.16344 0 16C0 24.8366 7.16344 32 16 32Z" fill="#368CCB"/>
    <path d="M19 10L16.8947 15.3333H10.3333V12.3333H16.9247L17.8424 10H7.99998V15H6.33331L5.33331 17.3333H7.99998V22.6667H12.8611L13.7787 20.3333H10.3333V17.3333H16.1053L14 22.6667H17L19.3333 17.3333H26.3333V10H19ZM24 15.3333H20L21.3333 12.3333H24V15.3333Z" fill="white"/>
</svg>
