<svg width="32" height="32" viewBox="0 0 32 32" fill="none" xmlns="http://www.w3.org/2000/svg">
    <g clip-path="url(#clip0)">
        <path d="M16 32C19.1645 32 22.2579 31.0616 24.8891 29.3035C27.5203 27.5454 29.5711 25.0466 30.7821 22.1229C31.9931 19.1993 32.3099 15.9823 31.6926 12.8786C31.0752 9.77487 29.5513 6.92394 27.3137 4.6863C25.0761 2.44866 22.2251 0.924806 19.1214 0.307443C16.0177 -0.309921 12.8007 0.0069325 9.87706 1.21793C6.95345 2.42894 4.45459 4.4797 2.69649 7.11088C0.938384 9.74207 1.12515e-10 12.8355 1.12511e-10 16C-7.87925e-06 18.1012 0.413839 20.1817 1.21791 22.123C2.02198 24.0642 3.20054 25.828 4.68627 27.3137C6.17201 28.7995 7.93584 29.978 9.87706 30.7821C11.8183 31.5862 13.8988 32 16 32Z" fill="white"/>
        <path d="M12.841 26.6483C11.5829 26.2998 10.4098 25.6965 9.39444 24.8758C8.39398 24.1051 7.52873 23.1734 6.83413 22.1186C6.09349 21.0091 5.5597 19.7747 5.25857 18.475C4.91381 16.9183 4.91381 15.305 5.25857 13.7483C5.55237 12.4315 6.05079 11.1688 6.73567 10.0063C7.73832 8.39771 9.17089 7.10155 10.8715 6.26434C11.4687 5.94293 12.0952 5.67915 12.7425 5.47656C13.7273 6.65824 14.712 7.93839 15.6967 9.21856C15.7952 9.4155 15.9922 9.51398 16.0906 9.71092C15.1029 9.75235 14.1328 9.9865 13.2349 10.4002C12.4411 10.8152 11.7381 11.3843 11.167 12.0743C10.605 12.8172 10.1722 13.6495 9.88682 14.5361C9.62383 15.6082 9.65787 16.7316 9.98529 17.7857L14.2196 14.4376C15.2044 15.7178 16.1891 16.8995 17.1738 18.1796C15.7952 19.2628 14.3181 20.346 12.9395 21.5277C14.3181 23.3002 15.7952 25.1712 17.1738 27.0422C15.7179 27.2144 14.242 27.0803 12.841 26.6483Z" fill="#FF0066"/>
        <path d="M22.2255 14.7193C22.1894 14.5581 22.1468 14.3986 22.0975 14.2407C21.9646 14.3451 19.035 16.5844 17.8632 17.5888C16.8784 16.3086 15.8937 15.127 14.9089 13.8468C16.2876 12.7636 17.7647 11.6804 19.1433 10.4987C17.7647 8.72622 14.8105 4.88574 14.8105 4.88574H16.1891C18.7151 4.9093 21.1534 5.81495 23.0822 7.44605C24.0223 8.22284 24.8218 9.15553 25.4456 10.2033C26.1804 11.3313 26.6516 12.6103 26.8242 13.9453C27.088 15.4801 27.0546 17.0513 26.7258 18.5735C26.4439 19.849 25.9081 21.0547 25.1502 22.1186C24.4888 23.14 23.656 24.0395 22.6884 24.7773C21.746 25.5961 20.6373 26.2009 19.4387 26.5499C18.5525 25.4667 16.4189 22.6993 16.1891 22.3155C17.1209 22.3187 18.0409 22.1071 18.8777 21.6972C19.7145 21.2874 20.4456 20.6902 21.0143 19.9521C21.5815 19.2266 21.9847 18.3867 22.196 17.4903C22.3825 16.577 22.3925 15.6364 22.2255 14.7193Z" fill="#003366"/>
    </g>
    <defs>
        <clipPath id="clip0">
            <rect width="32" height="32" fill="white"/>
        </clipPath>
    </defs>
</svg>
