<svg width="32" height="32" viewBox="0 0 32 32" fill="none" xmlns="http://www.w3.org/2000/svg">
    <g clip-path="url(#clip0)">
        <path d="M16.0278 0.059082C24.8446 0.0717136 31.952 7.17487 32.0193 15.9243C32.0909 24.8464 24.8951 32.0422 16.0488 32.0591C7.24041 32.0759 0.0319974 24.9222 0.0235763 16.1475C0.0109448 7.23802 7.13936 0.0759241 16.0278 0.059082ZM9.53514 19.1664C9.53936 19.2422 9.53936 19.2927 9.54357 19.3391C9.66146 20.1854 9.87199 21.0022 10.2762 21.7601C10.3436 21.8822 10.3267 21.9496 10.2299 22.0422C9.64462 22.6191 9.06778 23.2043 8.48673 23.7812C8.20883 24.0548 7.92252 24.3243 7.65304 24.5812C8.41094 25.3433 9.13936 26.0675 9.87199 26.8043C10.672 26.0001 11.493 25.2043 12.2804 24.3748C12.5372 24.1054 12.752 24.0085 13.072 24.2191C13.1225 24.2527 13.1899 24.2654 13.2488 24.2822C15.2867 24.8801 17.3162 24.8506 19.3415 24.2233C19.4762 24.1812 19.552 24.1896 19.6488 24.2906C19.9351 24.5896 20.2299 24.8801 20.5246 25.1706C21.072 25.7222 21.6193 26.2738 22.1667 26.8212C22.9078 26.0759 23.6362 25.3475 24.3646 24.6191C23.9562 24.2106 23.5478 23.7938 23.1393 23.3854C22.7267 22.9727 22.3141 22.5685 21.8972 22.1517C22.4572 21.217 22.6299 20.2191 22.5414 19.1622C22.4109 17.6128 21.6867 16.4296 20.3436 15.638C19.5267 15.158 18.6215 14.897 17.7162 14.6401C16.693 14.3496 15.6572 14.0928 14.6425 13.777C14.2846 13.6675 13.9267 13.4738 13.632 13.2338C12.9962 12.7243 13.0509 11.8064 13.7204 11.3433C13.9478 11.1875 14.2046 11.057 14.4657 10.9685C15.2909 10.6991 16.1372 10.6949 16.9836 10.8591C17.9015 11.0359 18.4699 11.6001 18.7267 12.4885C18.7815 12.6738 18.8278 12.8633 18.8783 13.0654C19.952 13.0233 21.0215 12.9854 22.0993 12.9433C22.0825 12.2696 21.9646 11.6464 21.7036 11.057C21.6404 10.9138 21.6657 10.8338 21.7709 10.7328C22.0614 10.4549 22.3393 10.1685 22.6215 9.88644C23.2067 9.30539 23.792 8.72013 24.3562 8.16434C23.6151 7.41908 22.8909 6.69066 22.133 5.92855C22.112 5.96223 22.0951 6.01276 22.0615 6.04645C21.2151 6.89697 20.3688 7.74329 19.5141 8.58539C19.4636 8.63592 19.3499 8.67381 19.2951 8.65276C18.352 8.26539 17.3667 8.11802 16.3562 8.09276C15.1099 8.05907 13.8888 8.16855 12.7267 8.66539C12.6804 8.68644 12.5794 8.65276 12.5372 8.61065C12.2888 8.37486 12.0488 8.12644 11.8046 7.88644C11.1562 7.23802 10.5078 6.58539 9.8762 5.9496C9.13515 6.68644 8.40251 7.41486 7.64041 8.17697C7.70357 8.22328 7.77936 8.26539 7.83831 8.32434C8.65936 9.14118 9.4762 9.96223 10.2972 10.7749C10.3983 10.8759 10.4278 10.9475 10.3772 11.0991C9.86778 12.5559 10.053 13.9117 10.9878 15.1538C11.6488 16.0296 12.5667 16.5391 13.5815 16.8633C14.6551 17.2085 15.7499 17.4822 16.8362 17.7812C17.4383 17.9496 18.0488 18.0885 18.5878 18.4254C19.0046 18.6822 19.2699 19.0443 19.3162 19.5454C19.392 20.3749 18.9078 21.1706 18.0825 21.5706C17.2951 21.9496 16.4572 21.9917 15.6109 21.9075C14.352 21.7854 13.4467 21.1496 12.9836 19.9496C12.853 19.6085 12.7646 19.2464 12.6551 18.8759C11.6236 18.9685 10.5878 19.0654 9.53514 19.1664Z" fill="black"/>
        <path d="M9.53518 19.1664C10.592 19.0653 11.6236 18.9642 12.651 18.8674C12.7646 19.2379 12.8489 19.6 12.9794 19.9411C13.4425 21.1411 14.3478 21.7769 15.6067 21.899C16.4531 21.9832 17.291 21.9411 18.0783 21.5621C18.9036 21.1664 19.3878 20.3706 19.312 19.5369C19.2657 19.0358 19.0004 18.6779 18.5836 18.4169C18.0446 18.0842 17.4341 17.9411 16.832 17.7727C15.7457 17.4695 14.651 17.1958 13.5773 16.8548C12.5625 16.5306 11.6446 16.0211 10.9836 15.1453C10.0489 13.9032 9.8636 12.5474 10.3731 11.0906C10.4236 10.9432 10.3941 10.8674 10.2931 10.7663C9.47202 9.95372 8.65518 9.13266 7.83412 8.31582C7.77518 8.25687 7.69939 8.21477 7.63623 8.16845C8.40255 7.40635 9.13097 6.68213 9.87202 5.94108C10.5036 6.57687 11.152 7.22529 11.8004 7.87792C12.0446 8.12214 12.2846 8.36635 12.5331 8.60214C12.5752 8.64424 12.6762 8.67793 12.7225 8.65687C13.8846 8.16003 15.1057 8.04635 16.352 8.08424C17.3625 8.11371 18.3478 8.25687 19.291 8.64424C19.3457 8.6695 19.4636 8.6274 19.5099 8.57687C20.3646 7.73477 21.211 6.88424 22.0573 6.03792C22.091 6.00424 22.1078 5.95371 22.1288 5.92003C22.8867 6.68213 23.611 7.41056 24.352 8.15582C23.792 8.71161 23.2067 9.29266 22.6173 9.87793C22.3352 10.16 22.0573 10.4463 21.7667 10.7242C21.6615 10.8253 21.6362 10.9053 21.6994 11.0485C21.9604 11.6379 22.0783 12.2611 22.0952 12.9348C21.0173 12.9769 19.9478 13.0148 18.8741 13.0569C18.8194 12.8548 18.7773 12.6653 18.7225 12.48C18.4657 11.5916 17.8973 11.0316 16.9794 10.8506C16.1331 10.6863 15.2867 10.6863 14.4615 10.96C14.2004 11.0442 13.9394 11.1748 13.7162 11.3348C13.0468 11.7979 12.9962 12.7158 13.6278 13.2253C13.9225 13.4611 14.2762 13.6548 14.6383 13.7685C15.6531 14.0842 16.6889 14.3411 17.712 14.6316C18.6173 14.8885 19.5225 15.1495 20.3394 15.6295C21.6825 16.4211 22.4067 17.6042 22.5373 19.1537C22.6257 20.2106 22.4488 21.2085 21.8931 22.1432C22.3099 22.5558 22.7267 22.9642 23.1352 23.3769C23.5478 23.7895 23.9562 24.2021 24.3604 24.6106C23.632 25.339 22.9078 26.0674 22.1625 26.8127C21.6152 26.2611 21.0678 25.7137 20.5204 25.1621C20.2299 24.8674 19.931 24.5811 19.6446 24.2821C19.5478 24.1811 19.4678 24.1727 19.3373 24.2148C17.312 24.8464 15.2825 24.8716 13.2446 24.2737C13.1857 24.2569 13.1183 24.2442 13.0678 24.2106C12.7478 24 12.5331 24.0969 12.2762 24.3664C11.4973 25.2043 10.6762 26 9.87623 26.8043C9.1436 26.0716 8.41518 25.3432 7.65728 24.5811C7.92676 24.3242 8.21307 24.0548 8.49097 23.7811C9.07202 23.2042 9.64886 22.619 10.2341 22.0421C10.331 21.9495 10.3436 21.8821 10.2804 21.76C9.87623 21.0021 9.66149 20.1853 9.54781 19.339C9.53518 19.2927 9.53939 19.2421 9.53518 19.1664Z" fill="white"/>
    </g>
    <defs>
        <clipPath id="clip0">
            <rect width="32" height="32" fill="white"/>
        </clipPath>
    </defs>
</svg>
