<svg width="32" height="32" viewBox="0 0 32 32" fill="none" xmlns="http://www.w3.org/2000/svg">
<path d="M31.976 15.124C31.9178 14.04 31.7516 12.9844 31.4876 11.9684C31.3313 11.365 31.1393 10.7713 30.9124 10.1907C29.7809 7.28711 27.8253 4.79511 25.3333 3.00311C23.7 1.82756 21.836 0.952889 19.8222 0.459556C18.5973 0.159111 17.3173 0 16 0C14.6827 0 13.4027 0.159111 12.1778 0.459556C10.164 0.952889 8.3 1.828 6.66667 3.00311C4.17467 4.79556 2.21911 7.28711 1.08756 10.1907C0.862667 10.7676 0.669778 11.3609 0.512444 11.9684C0.248444 12.9844 0.0822222 14.04 0.024 15.124C0.008 15.4142 0 15.7062 0 16C0 16.3027 0.00844444 16.6031 0.0253333 16.9018C0.0835556 17.9542 0.243556 18.98 0.496 19.9684C0.651111 20.5756 0.840889 21.1689 1.06356 21.7462C2.19111 24.6769 4.15644 27.1916 6.66667 28.9969C8.3 30.172 10.164 31.0471 12.1778 31.5404C13.4027 31.8409 14.6827 32 16 32C17.3173 32 18.5973 31.8409 19.8222 31.5404C21.836 31.0471 23.7 30.1724 25.3333 28.9969C27.8436 27.1916 29.8089 24.6769 30.9369 21.7462C31.1596 21.1689 31.3489 20.5756 31.504 19.9684C31.7564 18.98 31.9164 17.9542 31.9747 16.9018C31.9916 16.6031 32 16.3027 32 16C32 15.7062 31.992 15.4142 31.976 15.124V15.124Z" fill="#3671FF"/>
<path d="M11.0658 15.2142L15.2142 11.0658C15.5613 10.7187 15.5613 10.156 15.2142 9.80889C14.8671 9.46178 14.3044 9.46178 13.9573 9.80889L9.80887 13.9573C9.46176 14.3044 9.46176 14.8671 9.80887 15.2142C10.156 15.5613 10.7186 15.5613 11.0658 15.2142V15.2142ZM20.8711 16.7227L16.7227 20.8711C16.3756 21.2182 16.3756 21.7809 16.7227 22.128C17.0698 22.4751 17.6325 22.4751 17.9796 22.128L22.128 17.9796C22.4751 17.6324 22.4751 17.0698 22.128 16.7227C21.7814 16.3756 21.2182 16.3756 20.8711 16.7227ZM21.3427 9.40044L9.40047 21.3427C9.05336 21.6898 9.05336 22.2524 9.40047 22.5996C9.74758 22.9467 10.3102 22.9467 10.6574 22.5996L22.5996 10.6573C22.9467 10.3102 22.9467 9.74755 22.5996 9.40044C22.2525 9.05333 21.6898 9.05333 21.3427 9.40044V9.40044Z" fill="white"/>
</svg>
