<svg width="32" height="32" viewBox="0 0 32 32" fill="none" xmlns="http://www.w3.org/2000/svg">
    <path d="M16 32C24.8366 32 32 24.8366 32 16C32 7.16344 24.8366 0 16 0C7.16344 0 0 7.16344 0 16C0 24.8366 7.16344 32 16 32Z" fill="#011B36"/>
    <path d="M6.21198 10.72L7.67898 11.6V20.4L14.059 24.36V16.953L12.006 15.78L11.991 14.014L15.526 16.073V27L6.21198 21.28V10.72Z" fill="white"/>
    <path d="M16.002 15.34L19.528 13.289L18.046 12.398L16.002 13.608L9.82401 10.005L16.002 6.687L23.695 10.865L25.205 9.986L16.002 5L6.79901 9.987L16.002 15.34Z" fill="white"/>
    <path d="M25.788 10.715V21.282L16.476 27V25.243L24.328 20.395L24.316 13.278L17.946 16.958L17.943 19.398L16.476 20.258V16.078L25.788 10.715Z" fill="white"/>
</svg>
