<svg width="32" height="32" viewBox="0 0 32 32" fill="none" xmlns="http://www.w3.org/2000/svg">
    <path d="M15.5898 32H14.7693H13.9487H13.1282H12.3077H11.4872H10.6667H9.84617V31.1795V30.359H9.02566H8.20515H7.38463H6.56412V29.5384V28.7179H5.74361H4.9231V27.8974V27.0769H5.74361H6.56412H7.38463H8.20515H9.02566H9.84617H10.6667H11.4872H12.3077H13.1282H13.9487H14.7693H15.5898H16.4103H17.2308H18.0513H18.8718H19.6923H20.5128H21.3334H22.1539H22.9744H23.7949H24.6154H25.4359H26.2564H27.0769V27.8974V28.7179H26.2564H25.4359V29.5384V30.359H24.6154H23.7949H22.9744H22.1539V31.1795V32H21.3334H20.5128H19.6923H18.8718H18.0513H17.2308H16.4103H15.5898Z" fill="#7E18F8"/>
    <path d="M29.5384 22.1539H28.7179H27.8974H27.0769H26.2564H25.4359H24.6154H23.7948H22.9743H22.1538H21.3333H20.5128H19.6923H18.8718H18.0512H17.2307H16.4102H15.5897H14.7692H13.9487H13.1282H12.3077H11.4871H10.6666H9.84612H9.02561H8.20509H7.38458H6.56407H5.74356H4.92304H4.10253H3.28202H2.4615H1.64099V22.9744V23.7949V24.6154V25.4359H2.4615H3.28202V26.2564V27.0769H4.10253H4.92304H5.74356H6.56407H7.38458H8.20509H9.02561H9.84612H10.6666H11.4871H12.3077H13.1282H13.9487H14.7692H15.5897H16.4102H17.2307H18.0512H18.8718H19.6923H20.5128H21.3333H22.1538H22.9743H23.7948H24.6154H25.4359H26.2564H27.0769H27.8974H28.7179V26.2564V25.4359H29.5384H30.3589V24.6154V23.7949V22.9744V22.1539H29.5384Z" fill="#8F17F9"/>
    <path d="M31.1795 9.84615H30.359V9.02564V8.20513V7.38462V6.5641H29.5385H28.7179V5.74359V4.92308H27.8974H27.0769V4.10256V3.28205H26.2564H25.4359V2.46154V1.64103H24.6154H23.7949H22.9744H22.1538V0.820513V0H21.3333H20.5128H19.6923H18.8718H18.0513H17.2308H16.4103H15.5897H14.7692H13.9487H13.1282H12.3077H11.4872H10.6667H9.84615V0.820513V1.64103H9.02564H8.20513H7.38462H6.5641V2.46154V3.28205H5.74359H4.92308V4.10256V4.92308H4.10256H3.28205V5.74359V6.5641H2.46154H1.64103V7.38462V8.20513V9.02564V9.84615H0.820513H0V10.6667V11.4872V12.3077H0.820513H1.64103H2.46154H3.28205H4.10256H4.92308H5.74359H6.5641H7.38462H8.20513H9.02564H9.84615H10.6667H11.4872H12.3077H13.1282H13.9487H14.7692H15.5897H16.4103H17.2308H18.0513H18.8718H19.6923H20.5128H21.3333H22.1538H22.9744H23.7949H24.6154H25.4359H26.2564H27.0769H27.8974H28.7179H29.5385H30.359H31.1795H32V11.4872V10.6667V9.84615H31.1795Z" fill="#FA34F3"/>
    <path d="M31.1795 12.3077H30.359H29.5385H28.7179H27.8974H27.0769H26.2564H25.4359H24.6154H23.7949H22.9744H22.1538H21.3333H20.5128H19.6923H18.8718H18.0513H17.2308H16.4103H15.5897H14.7692H13.9487H13.1282H12.3077H11.4872H10.6667H9.84615H9.02564H8.20513H7.38462H6.5641H5.74359H4.92308H4.10256H3.28205H2.46154H1.64103H0.820513H0V13.1282V13.9487V14.7692V15.5897V16.4102V17.2307H0.820513H1.64103H2.46154H3.28205H4.10256H4.92308H5.74359H6.5641H7.38462H8.20513H9.02564H9.84615H10.6667H11.4872H12.3077H13.1282H13.9487H14.7692H15.5897H16.4103H17.2308H18.0513H18.8718H19.6923H20.5128H21.3333H22.1538H22.9744H23.7949H24.6154H25.4359H26.2564H27.0769H27.8974H28.7179H29.5385H30.359H31.1795H32V16.4102V15.5897V14.7692V13.9487V13.1282V12.3077H31.1795Z" fill="#CF15F9"/>
    <path d="M31.1795 17.2308H30.359H29.5385H28.7179H27.8974H27.0769H26.2564H25.4359H24.6154H23.7949H22.9744H22.1538H21.3333H20.5128H19.6923H18.8718H18.0513H17.2308H16.4103H15.5897H14.7692H13.9487H13.1282H12.3077H11.4872H10.6667H9.84615H9.02564H8.20513H7.38462H6.5641H5.74359H4.92308H4.10256H3.28205H2.46154H1.64103H0.820513H0V18.0513V18.8718V19.6923V20.5128V21.3334V22.1539H0.820513H1.64103H2.46154H3.28205H4.10256H4.92308H5.74359H6.5641H7.38462H8.20513H9.02564H9.84615H10.6667H11.4872H12.3077H13.1282H13.9487H14.7692H15.5897H16.4103H17.2308H18.0513H18.8718H19.6923H20.5128H21.3333H22.1538H22.9744H23.7949H24.6154H25.4359H26.2564H27.0769H27.8974H28.7179H29.5385H30.359H31.1795H32V21.3334V20.5128V19.6923V18.8718V18.0513V17.2308H31.1795Z" fill="#AC15F9"/>
    <path d="M20.7656 18.8061V19.3715H21.331H21.8955V18.8061V18.2416V17.6771H21.331H20.7656V18.2416V18.8061Z" fill="white"/>
    <path d="M19.6365 19.3715H19.0711H18.5066H17.9421H17.3768H16.8123V19.936V20.5005H17.3768H17.9421H18.5066H19.0711V21.0658V21.6303H19.6365H20.201V21.0658V20.5005H20.7655V19.936V19.3715H20.201H19.6365Z" fill="white"/>
    <path d="M17.9421 17.6771H18.5067H19.0712H19.6365H20.201H20.7655V17.1118V16.5473H20.201H19.6365H19.0712H18.5067H17.9421V17.1118V17.6771Z" fill="white"/>
    <path d="M16.8123 14.853V15.4175V15.9828V16.5473H17.3768H17.9421V15.9828V15.4175V14.853H17.3768H16.8123Z" fill="white"/>
    <path d="M20.7655 13.7231H20.201V13.1586V12.5941H19.6365H19.0712V13.1586V13.7231H18.5066H17.9421V14.2884V14.8529H18.5066H19.0712H19.6365H20.201H20.7655H21.3308H21.8954V14.2884V13.7231H21.3308H20.7655Z" fill="white"/>
    <path d="M28.1083 13.7231H27.543H26.9785H26.414H25.8487H25.2841H24.7196H24.1543H23.5898H23.0253V14.2884V14.8529H23.5898H24.1543H24.7196H25.2841V15.4174V15.9828V16.5473V17.1118V17.6771V18.2416V18.8062V19.3715V19.936V20.5005H25.8487H26.414V19.936V19.3715V18.8062V18.2416V17.6771V17.1118V16.5473V15.9828V15.4174V14.8529H26.9785H27.543H28.1083H28.6729V14.2884V13.7231H28.1083Z" fill="white"/>
    <path d="M14.5535 13.7231V14.2884V14.8529V15.4174V15.9828V16.5473H13.9882H13.4237H12.8592H12.2938H11.7293V15.9828V15.4174V14.8529V14.2884V13.7231H11.1648H10.5995V14.2884V14.8529V15.4174V15.9828V16.5473V17.1118V17.6771V18.2416V18.8062V19.3715V19.936V20.5005H11.1648H11.7293V19.936V19.3715V18.8062V18.2416V17.6771H12.2938H12.8592H13.4237H13.9882H14.5535V18.2416V18.8062V19.3715V19.936V20.5005H15.1181H15.6826V19.936V19.3715V18.8062V18.2416V17.6771V17.1118V16.5473V15.9828V15.4174V14.8529V14.2884V13.7231H15.1181H14.5535Z" fill="white"/>
    <path d="M8.34049 13.7231H7.77599H7.21065H6.64614H6.08163H5.51629H4.95178V14.2884V14.8529H5.51629H6.08163H6.64614H7.21065H7.77599H8.34049H8.905H9.47033V14.2884V13.7231H8.905H8.34049Z" fill="white"/>
    <path d="M9.47037 19.3715V18.8062V18.2417V17.6772V17.1118V16.5473H8.90504H8.34053H7.77602H7.21069H6.64618H6.08167V17.1118V17.6772H6.64618H7.21069H7.77602H8.34053V18.2417V18.8062V19.3715H8.90504H9.47037Z" fill="white"/>
    <path d="M4.95178 20.5005H5.5163H6.08163H6.64614H7.21066H7.77599H8.3405V19.936V19.3715H7.77599H7.21066H6.64614H6.08163H5.5163H4.95178V19.936V20.5005Z" fill="white"/>
    <path d="M3.82202 14.853V15.4175V15.9828V16.5473V17.1118V17.6772V18.2417V18.8063V19.3716H4.38735H4.95187V18.8063V18.2417V17.6772V17.1118V16.5473V15.9828V15.4175V14.853H4.38735H3.82202Z" fill="white"/>
</svg>
