<svg width="32" height="32" viewBox="0 0 32 32" fill="none" xmlns="http://www.w3.org/2000/svg">
    <path d="M16 32C24.8366 32 32 24.8366 32 16C32 7.16344 24.8366 0 16 0C7.16344 0 0 7.16344 0 16C0 24.8366 7.16344 32 16 32Z" fill="#181EA9"/>
    <path d="M15.877 25C13.4895 25 11.5 23.0105 11.5 20.623C11.5 18.6335 12.7932 16.9424 14.6832 16.445V15.8482C12.7932 15.3508 11.5 13.6597 11.5 11.6702C11.5 9.28272 13.4895 7.29319 15.877 7.29319C16.6728 7.29319 17.3691 7.49215 18.0654 7.89005L19.9555 6L21.5471 7.59162L19.6571 9.48167C20.055 10.178 20.2539 10.8743 20.2539 11.6702C20.2539 13.6597 18.9607 15.3508 17.0707 15.8482V16.445C18.9607 16.9424 20.2539 18.6335 20.2539 20.623C20.2539 23.0105 18.2644 25 15.877 25ZM15.877 18.534C14.6832 18.534 13.788 19.4293 13.788 20.623C13.788 21.8168 14.6832 22.712 15.877 22.712C17.0707 22.712 17.966 21.8168 17.966 20.623C17.966 19.4293 17.0707 18.534 15.877 18.534ZM15.877 9.58115C14.6832 9.58115 13.788 10.4764 13.788 11.6702C13.788 12.8639 14.6832 13.7592 15.877 13.7592C17.0707 13.7592 17.966 12.8639 17.966 11.6702C17.966 10.4764 17.0707 9.58115 15.877 9.58115Z" fill="white"/>
</svg>
