<svg width="32" height="32" viewBox="0 0 32 32" fill="none" xmlns="http://www.w3.org/2000/svg">
    <path d="M16 32C24.8366 32 32 24.8366 32 16C32 7.16344 24.8366 0 16 0C7.16344 0 0 7.16344 0 16C0 24.8366 7.16344 32 16 32Z" fill="white"/>
    <path d="M18.4039 5.24051C16.3127 5.24052 14.3071 6.07128 12.8283 7.55002C11.3496 9.02876 10.5188 11.0344 10.5188 13.1256H10.519C10.519 13.1311 10.5187 13.1365 10.519 13.1421L10.5196 13.1544C10.5252 13.2535 10.5686 13.3466 10.6408 13.4147C10.713 13.4828 10.8085 13.5206 10.9078 13.5204H25.9001C25.9993 13.5206 26.0948 13.4828 26.167 13.4147C26.2392 13.3466 26.2826 13.2535 26.2882 13.1544L26.2889 13.1421C26.2892 13.1365 26.2888 13.1311 26.2889 13.1256H26.289C26.289 11.0344 25.4583 9.02876 23.9795 7.55002C22.5008 6.07128 20.4952 5.24052 18.4039 5.24051" fill="#53CBC8"/>
    <path d="M5.29908 21.9295C5.29907 22.0244 5.27092 22.1172 5.21819 22.1961C5.16546 22.275 5.09051 22.3365 5.00283 22.3728C4.91515 22.4091 4.81867 22.4186 4.72559 22.4001C4.63251 22.3816 4.54701 22.3359 4.4799 22.2688C4.41279 22.2016 4.36709 22.1161 4.34858 22.0231C4.33006 21.93 4.33956 21.8335 4.37588 21.7458C4.41219 21.6581 4.47369 21.5832 4.5526 21.5305C4.63151 21.4777 4.72428 21.4496 4.81919 21.4496C4.88221 21.4496 4.94461 21.462 5.00284 21.4861C5.06106 21.5102 5.11396 21.5456 5.15853 21.5901C5.20309 21.6347 5.23844 21.6876 5.26255 21.7458C5.28667 21.8041 5.29908 21.8665 5.29908 21.9295" fill="#E1147B"/>
    <path d="M25.3789 19.2745H9.2918C9.20998 19.2746 9.12959 19.2959 9.05847 19.3363C8.98735 19.3768 8.92794 19.435 8.88605 19.5052C8.84415 19.5755 8.8212 19.6554 8.81945 19.7372C8.81769 19.819 8.83718 19.8999 8.87602 19.9719L8.88402 19.9868C8.92455 20.0617 8.9846 20.1243 9.0578 20.1678C9.131 20.2114 9.21462 20.2343 9.2998 20.2342H25.3708C25.4559 20.2343 25.5396 20.2114 25.6128 20.1678C25.686 20.1243 25.746 20.0617 25.7866 19.9868L25.7947 19.9719C25.8335 19.8999 25.8529 19.819 25.8512 19.7373C25.8494 19.6555 25.8264 19.5755 25.7845 19.5053C25.7427 19.435 25.6833 19.3768 25.6122 19.3364C25.5411 19.2959 25.4607 19.2746 25.3789 19.2745" fill="#E1147B"/>
    <path d="M27.5168 14.9243H9.29135C9.22704 14.9245 9.16343 14.9377 9.1044 14.9633C9.04537 14.9888 8.99216 15.0261 8.94802 15.0729C8.90388 15.1196 8.86972 15.1749 8.84764 15.2353C8.82556 15.2957 8.81601 15.36 8.81958 15.4242L8.82045 15.4392C8.82727 15.5596 8.87998 15.6728 8.96773 15.7556C9.05548 15.8383 9.17161 15.8843 9.29222 15.884H27.5159C27.6365 15.8843 27.7526 15.8383 27.8404 15.7556C27.9281 15.6728 27.9809 15.5596 27.9877 15.4392L27.9885 15.4242C27.9921 15.36 27.9825 15.2957 27.9605 15.2353C27.9384 15.1749 27.9042 15.1196 27.8601 15.0729C27.816 15.0261 27.7628 14.9888 27.7037 14.9633C27.6447 14.9377 27.5811 14.9245 27.5168 14.9243" fill="#E1147B"/>
    <path d="M20.6539 25.7997H12.4405C12.3341 25.7998 12.2307 25.8359 12.1473 25.902C12.0639 25.9682 12.0052 26.0605 11.9808 26.1642C11.9564 26.2678 11.9678 26.3767 12.013 26.4731C12.0582 26.5695 12.1346 26.6478 12.2298 26.6953L12.2598 26.7104C12.3253 26.7429 12.3975 26.7597 12.4706 26.7594H20.6238C20.6969 26.7597 20.769 26.7429 20.8345 26.7104L20.8645 26.6953C20.9598 26.6478 21.0362 26.5695 21.0814 26.4731C21.1266 26.3767 21.1379 26.2678 21.1136 26.1642C21.0892 26.0605 21.0305 25.9682 20.9471 25.902C20.8637 25.8359 20.7603 25.7998 20.6539 25.7997" fill="#E1147B"/>
    <path d="M25.6725 23.6247H17.4591C17.3526 23.6248 17.2493 23.6608 17.1659 23.7269C17.0824 23.7931 17.0238 23.8855 16.9994 23.9891C16.975 24.0927 16.9863 24.2016 17.0315 24.298C17.0767 24.3944 17.1532 24.4727 17.2484 24.5203L17.2784 24.5353C17.3439 24.5678 17.4161 24.5846 17.4892 24.5843H25.6423C25.7154 24.5846 25.7876 24.5678 25.8531 24.5353L25.883 24.5203C25.9783 24.4727 26.0547 24.3944 26.0999 24.298C26.1451 24.2016 26.1565 24.0928 26.1321 23.9891C26.1077 23.8855 26.0491 23.7931 25.9657 23.727C25.8822 23.6608 25.7789 23.6248 25.6724 23.6247" fill="#E1147B"/>
    <path d="M14.4727 22.2583L14.4587 22.2434C14.3961 22.176 14.3546 22.0918 14.3392 22.0012C14.3238 21.9105 14.3352 21.8173 14.372 21.733C14.4088 21.6487 14.4694 21.577 14.5464 21.5267C14.6233 21.4763 14.7133 21.4495 14.8053 21.4496H28.1358C28.2278 21.4495 28.3178 21.4763 28.3947 21.5266C28.4717 21.577 28.5323 21.6487 28.5691 21.733C28.6059 21.8173 28.6173 21.9105 28.6019 22.0012C28.5865 22.0918 28.545 22.176 28.4824 22.2434L28.4685 22.2583C28.4241 22.3058 28.3704 22.3437 28.3108 22.3697C28.2512 22.3957 28.187 22.4091 28.1219 22.4093H14.8192C14.7542 22.4091 14.6899 22.3957 14.6303 22.3697C14.5707 22.3437 14.5171 22.3058 14.4727 22.2583" fill="#E1147B"/>
    <path d="M6.5333 21.4496H12.899C13.0054 21.4497 13.1088 21.4857 13.1922 21.5518C13.2756 21.618 13.3343 21.7104 13.3587 21.814C13.3831 21.9177 13.3717 22.0265 13.3265 22.1229C13.2813 22.2193 13.2049 22.2976 13.1096 22.3452L13.0796 22.3602C13.0142 22.3927 12.9421 22.4095 12.869 22.4093H6.56339C6.49029 22.4095 6.41813 22.3927 6.35264 22.3602L6.32264 22.3452C6.22738 22.2976 6.15095 22.2193 6.10575 22.1229C6.06055 22.0265 6.04921 21.9177 6.07359 21.8141C6.09796 21.7104 6.15661 21.618 6.24004 21.5519C6.32347 21.4857 6.42678 21.4497 6.53325 21.4496" fill="#E1147B"/>
    <path d="M8.05738 15.4042C8.05738 15.4991 8.02925 15.5919 7.97653 15.6708C7.92381 15.7497 7.84887 15.8112 7.76119 15.8475C7.67351 15.8839 7.57702 15.8934 7.48394 15.8749C7.39085 15.8563 7.30534 15.8106 7.23823 15.7435C7.17111 15.6764 7.12541 15.5909 7.10688 15.4979C7.08836 15.4048 7.09786 15.3083 7.13417 15.2206C7.17049 15.1329 7.23198 15.058 7.31089 15.0052C7.3898 14.9525 7.48258 14.9244 7.57749 14.9243C7.6405 14.9243 7.7029 14.9367 7.76113 14.9609C7.81935 14.985 7.87225 15.0203 7.91681 15.0649C7.96138 15.1094 7.99672 15.1623 8.02084 15.2205C8.04496 15.2788 8.05737 15.3411 8.05738 15.4042" fill="#E1147B"/>
    <path d="M19.3691 17.7088L19.3732 17.6939C19.3919 17.6239 19.3943 17.5505 19.3802 17.4794C19.366 17.4084 19.3357 17.3415 19.2915 17.284C19.2474 17.2265 19.1906 17.18 19.1256 17.148C19.0605 17.116 18.989 17.0994 18.9165 17.0994H5.5843C5.51182 17.0993 5.44029 17.1159 5.37526 17.148C5.31023 17.18 5.25343 17.2265 5.20928 17.284C5.16513 17.3415 5.13481 17.4083 5.12066 17.4794C5.10651 17.5505 5.10891 17.6239 5.12769 17.6939L5.13175 17.7088C5.15884 17.8093 5.21822 17.898 5.30073 17.9613C5.38324 18.0246 5.48429 18.059 5.58829 18.0591H18.9126C19.0166 18.059 19.1176 18.0246 19.2001 17.9613C19.2826 17.8979 19.342 17.8093 19.3691 17.7088" fill="#E1147B"/>
    <path d="M4.34961 17.5792C4.34962 17.6742 4.32148 17.7669 4.26876 17.8458C4.21604 17.9248 4.1411 17.9863 4.05342 18.0226C3.96574 18.0589 3.86926 18.0684 3.77617 18.0499C3.68309 18.0314 3.59758 17.9857 3.53047 17.9186C3.46335 17.8515 3.41764 17.766 3.39912 17.6729C3.3806 17.5799 3.39009 17.4834 3.42641 17.3957C3.46272 17.308 3.52422 17.233 3.60313 17.1803C3.68204 17.1276 3.77482 17.0994 3.86972 17.0994C3.99699 17.0994 4.11904 17.15 4.20903 17.24C4.29903 17.3299 4.3496 17.452 4.34961 17.5792" fill="#E1147B"/>
    <path d="M8.05738 19.7543C8.05738 19.8492 8.02925 19.942 7.97653 20.0209C7.92381 20.0998 7.84887 20.1614 7.76119 20.1977C7.67351 20.234 7.57702 20.2435 7.48394 20.225C7.39085 20.2065 7.30534 20.1608 7.23823 20.0937C7.17111 20.0266 7.12541 19.9411 7.10688 19.848C7.08836 19.7549 7.09786 19.6584 7.13417 19.5708C7.17049 19.4831 7.23198 19.4081 7.31089 19.3554C7.3898 19.3027 7.48258 19.2745 7.57749 19.2745C7.70475 19.2745 7.8268 19.3251 7.9168 19.415C8.00679 19.505 8.05736 19.6271 8.05738 19.7543" fill="#E1147B"/>
    <path d="M16.2249 24.1046C16.2249 24.1995 16.1967 24.2923 16.144 24.3712C16.0912 24.4501 16.0163 24.5116 15.9286 24.5479C15.8409 24.5842 15.7445 24.5937 15.6514 24.5752C15.5583 24.5567 15.4728 24.511 15.4057 24.4439C15.3386 24.3768 15.2929 24.2913 15.2744 24.1982C15.2558 24.1051 15.2653 24.0086 15.3017 23.9209C15.338 23.8333 15.3995 23.7583 15.4784 23.7056C15.5573 23.6528 15.6501 23.6247 15.745 23.6247C15.808 23.6247 15.8704 23.6371 15.9286 23.6612C15.9868 23.6853 16.0398 23.7207 16.0843 23.7652C16.1289 23.8098 16.1642 23.8627 16.1883 23.9209C16.2125 23.9792 16.2249 24.0416 16.2249 24.1046" fill="#E1147B"/>
    <path d="M11.2065 26.2797C11.2065 26.3746 11.1784 26.4673 11.1257 26.5462C11.0729 26.6252 10.998 26.6867 10.9103 26.723C10.8226 26.7593 10.7261 26.7688 10.6331 26.7503C10.54 26.7318 10.4545 26.6861 10.3874 26.6189C10.3203 26.5518 10.2746 26.4663 10.256 26.3733C10.2375 26.2802 10.247 26.1837 10.2833 26.096C10.3197 26.0083 10.3812 25.9334 10.4601 25.8807C10.539 25.8279 10.6318 25.7998 10.7267 25.7998C10.7897 25.7998 10.8521 25.8122 10.9103 25.8363C10.9685 25.8604 11.0214 25.8957 11.066 25.9403C11.1106 25.9849 11.1459 26.0378 11.17 26.096C11.1941 26.1542 11.2066 26.2166 11.2065 26.2797" fill="#E1147B"/>
</svg>
