<svg width="32" height="32" viewBox="0 0 32 32" fill="none" xmlns="http://www.w3.org/2000/svg">
<path d="M16.0336 31.0773C24.3604 31.0773 31.1106 24.3271 31.1106 16.0003C31.1106 7.67349 24.3604 0.923279 16.0336 0.923279C7.70675 0.923279 0.956543 7.67349 0.956543 16.0003C0.956543 24.3271 7.70675 31.0773 16.0336 31.0773Z" fill="#E6BC7B" stroke="#E6BC7B" stroke-width="1.296" stroke-linecap="round" stroke-linejoin="round"/>
<path d="M14.1528 24.224V20.4195H17.9137V24.224M17.9137 7.776V11.5805H14.1519V7.776H17.9137Z" stroke="black" stroke-width="1.296" stroke-linecap="round" stroke-linejoin="round"/>
<path d="M14.1529 15.888H22.1595V20.4198H9.9082V11.5809H22.1595" stroke="black" stroke-width="1.296" stroke-linecap="round" stroke-linejoin="round"/>
<path d="M16.0337 28.1961C22.7694 28.1961 28.2298 22.7357 28.2298 16C28.2298 9.2643 22.7694 3.80392 16.0337 3.80392C9.29802 3.80392 3.83765 9.2643 3.83765 16C3.83765 22.7357 9.29802 28.1961 16.0337 28.1961Z" stroke="black" stroke-width="1.296" stroke-linecap="round" stroke-linejoin="round"/>
</svg>
