<svg width="32" height="32" viewBox="0 0 32 32" fill="none" xmlns="http://www.w3.org/2000/svg">
    <path d="M16 32C24.8366 32 32 24.8366 32 16C32 7.16344 24.8366 0 16 0C7.16344 0 0 7.16344 0 16C0 24.8366 7.16344 32 16 32Z" fill="#001428"/>
    <path d="M12.292 17.2474C12.8101 17.248 13.3135 17.076 13.723 16.7587L10.4407 13.48C10.1732 13.8261 10.0081 14.2403 9.96403 14.6755C9.92 15.1107 9.99885 15.5495 10.1916 15.9422C10.3844 16.3349 10.6834 16.6657 11.0546 16.897C11.4259 17.1283 11.8546 17.251 12.292 17.251L12.292 17.2474ZM22.0489 14.9065C22.0489 14.3898 21.8767 13.8878 21.5593 13.48L18.277 16.7587C18.6232 17.0265 19.0375 17.1919 19.4729 17.236C19.9084 17.2802 20.3475 17.2013 20.7403 17.0084C21.1332 16.8155 21.4641 16.5162 21.6954 16.1447C21.9267 15.7731 22.0492 15.3442 22.0489 14.9065H22.0489Z" fill="white"/>
    <path d="M23.6986 11.3371L22.2469 12.7888C22.777 13.4223 23.0507 14.2314 23.0141 15.0566C22.9775 15.8819 22.6332 16.6635 22.0491 17.2476C21.465 17.8317 20.6834 18.1759 19.8581 18.2126C19.0329 18.2492 18.2238 17.9755 17.5903 17.4454L16 19.0357L14.4097 17.4454C13.7762 17.9755 12.9671 18.2492 12.1419 18.2126C11.3166 18.1759 10.535 17.8317 9.95091 17.2476C9.3668 16.6635 9.02255 15.8819 8.98594 15.0566C8.94933 14.2314 9.22301 13.4223 9.7531 12.7888L9.007 12.04L8.3014 11.3344C7.47485 12.6994 7.02609 14.2596 7.0011 15.8552C6.97612 17.4508 7.37582 19.0243 8.15923 20.4145C8.94264 21.8047 10.0816 22.9617 11.4594 23.7667C12.8372 24.5718 14.4042 24.9961 16 24.9961C17.5958 24.9961 19.1628 24.5718 20.5406 23.7667C21.9184 22.9617 23.0574 21.8047 23.8408 20.4145C24.6242 19.0243 25.0239 17.4508 24.9989 15.8552C24.9739 14.2596 24.5252 12.6994 23.6986 11.3344V11.3371Z" fill="white"/>
    <path d="M22.5115 9.79C21.6711 8.90919 20.6607 8.20803 19.5415 7.72898C18.4222 7.24992 17.2175 7.00292 16 7.00292C14.7826 7.00292 13.5778 7.24992 12.4586 7.72898C11.3393 8.20803 10.3289 8.90919 9.48852 9.79C9.26564 10.0244 9.05535 10.2704 8.85852 10.5271L16 17.6677L23.1433 10.5253C22.9459 10.2692 22.735 10.0238 22.5115 9.79V9.79ZM16 8.1772C17.0284 8.17205 18.0475 8.37214 18.9976 8.76575C19.9477 9.15936 20.8098 9.73859 21.5332 10.4695L16 16L10.4668 10.4695C11.1903 9.73859 12.0523 9.15938 13.0024 8.76576C13.9525 8.37215 14.9716 8.17206 16 8.1772V8.1772Z" fill="white"/>
</svg>
