<svg width="32" height="32" viewBox="0 0 32 32" fill="none" xmlns="http://www.w3.org/2000/svg">
    <path d="M16 32C24.8366 32 32 24.8366 32 16C32 7.16344 24.8366 0 16 0C7.16344 0 0 7.16344 0 16C0 24.8366 7.16344 32 16 32Z" fill="white"/>
    <path d="M10.8405 8.29289C11.6791 8.29289 12.3589 7.61306 12.3589 6.77446C12.3589 5.93585 11.6791 5.25603 10.8405 5.25603C10.0018 5.25603 9.32202 5.93585 9.32202 6.77446C9.32202 7.61306 10.0018 8.29289 10.8405 8.29289Z" fill="#008BCC"/>
    <path d="M7.03656 12.2972C7.87516 12.2972 8.55499 11.6174 8.55499 10.7788C8.55499 9.9402 7.87516 9.26038 7.03656 9.26038C6.19795 9.26038 5.51813 9.9402 5.51813 10.7788C5.51813 11.6174 6.19795 12.2972 7.03656 12.2972Z" fill="#008BCC"/>
    <path d="M5.51843 17.5025C6.35704 17.5025 7.03686 16.8227 7.03686 15.9841C7.03686 15.1455 6.35704 14.4657 5.51843 14.4657C4.67982 14.4657 4 15.1455 4 15.9841C4 16.8227 4.67982 17.5025 5.51843 17.5025Z" fill="#008BCC"/>
    <path d="M7.03656 22.7082C7.87516 22.7082 8.55499 22.0283 8.55499 21.1897C8.55499 20.3511 7.87516 19.6713 7.03656 19.6713C6.19795 19.6713 5.51813 20.3511 5.51813 21.1897C5.51813 22.0283 6.19795 22.7082 7.03656 22.7082Z" fill="#008BCC"/>
    <path d="M10.8405 26.7122C11.6791 26.7122 12.3589 26.0324 12.3589 25.1938C12.3589 24.3552 11.6791 23.6754 10.8405 23.6754C10.0018 23.6754 9.32202 24.3552 9.32202 25.1938C9.32202 26.0324 10.0018 26.7122 10.8405 26.7122Z" fill="#008BCC"/>
    <path d="M23.8255 14.3848C24.0507 14.3832 24.2684 14.4657 24.4361 14.6161C24.6037 14.7665 24.7092 14.9741 24.7319 15.1981C24.7574 15.4621 24.7709 15.7293 24.7709 15.9998C24.7682 18.3818 23.8207 20.6653 22.1363 22.3495C20.4519 24.0336 18.1681 24.9807 15.7862 24.983C15.5739 24.9826 15.3635 25.0241 15.1672 25.1051C14.9709 25.1861 14.7926 25.3051 14.6423 25.4551C14.4921 25.6052 14.3729 25.7834 14.2916 25.9796C14.2103 26.1758 14.1686 26.3861 14.1687 26.5984C14.1688 26.8108 14.2108 27.0211 14.2923 27.2171C14.3738 27.4132 14.4932 27.5913 14.6436 27.7412C14.7941 27.8911 14.9726 28.0098 15.169 28.0906C15.3654 28.1714 15.5757 28.2127 15.7881 28.2121C19.0269 28.2121 22.1331 26.9254 24.4233 24.6352C26.7135 22.345 28.0002 19.2388 28.0002 16C28.0002 12.7612 26.7135 9.65497 24.4233 7.36476C22.1331 5.07456 19.0269 3.78793 15.7881 3.78793C15.54 3.78813 15.2952 3.84541 15.0728 3.95533C14.8503 4.06525 14.6561 4.22487 14.5052 4.42184C14.3543 4.61882 14.2508 4.84786 14.2026 5.09126C14.1544 5.33466 14.1628 5.58588 14.2272 5.8255C14.3265 6.17146 14.5366 6.47531 14.8251 6.69051C15.1136 6.90571 15.4647 7.02039 15.8246 7.01699C18.0717 7.02706 20.2325 7.88305 21.8769 9.41453C22.1077 9.71245 22.2307 10.0798 22.2257 10.4567C22.2208 10.8335 22.0881 11.1975 21.8496 11.4892C21.5217 11.8093 21.0882 11.9988 20.6305 12.0219C20.1729 12.0451 19.7225 11.9005 19.3639 11.6151C19.3527 11.6094 19.3411 11.6046 19.329 11.6009C18.4093 10.8624 17.2815 10.4301 16.1038 10.3647C14.926 10.2992 13.7573 10.604 12.7615 11.2361C11.7656 11.8683 10.9925 12.7962 10.5505 13.8898C10.1085 14.9834 10.0198 16.188 10.2967 17.3345C10.5737 18.4811 11.2025 19.5123 12.0949 20.2836C12.9874 21.0549 14.0988 21.5276 15.2735 21.6355C16.4481 21.7433 17.627 21.481 18.645 20.8852C19.6631 20.2894 20.4692 19.39 20.9503 18.313C20.9838 18.2374 20.9979 18.1547 20.9914 18.0723C20.9848 17.99 20.9579 17.9105 20.9129 17.8411C20.868 17.7718 20.8065 17.7147 20.734 17.6751C20.6615 17.6355 20.5802 17.6145 20.4976 17.6142H15.8561C15.509 17.6237 15.1677 17.5236 14.8807 17.3283C14.5936 17.133 14.3754 16.8522 14.2568 16.5259C14.1741 16.2824 14.1506 16.0227 14.1883 15.7683C14.2259 15.5139 14.3236 15.2722 14.4733 15.0631C14.6229 14.8539 14.8203 14.6835 15.0489 14.5658C15.2776 14.4481 15.531 14.3866 15.7881 14.3864L23.8255 14.3848Z" fill="#23297C"/>
</svg>
