<svg width="32" height="32" viewBox="0 0 32 32" fill="none" xmlns="http://www.w3.org/2000/svg">
    <path d="M16 32C24.8366 32 32 24.8366 32 16C32 7.16344 24.8366 0 16 0C7.16344 0 0 7.16344 0 16C0 24.8366 7.16344 32 16 32Z" fill="#02E2AC"/>
    <path fill-rule="evenodd" clip-rule="evenodd" d="M20.2305 13.5018C20.8896 14.4258 21.2475 15.5478 21.2381 16.6792C21.2381 17.7918 20.8802 18.9043 20.2305 19.8095L21.6053 20.856C22.4811 19.6492 22.9614 18.1783 22.9614 16.6886C22.9708 15.1141 22.4529 13.5678 21.5017 12.3232L20.7133 13.034L20.2305 13.5018Z" fill="#0E0333"/>
    <path fill-rule="evenodd" clip-rule="evenodd" d="M22.83 21.783L18.2062 18.2662C18.5358 17.8325 18.7242 17.3045 18.7524 16.7576C18.7713 16.2108 18.63 15.6734 18.3381 15.2114L20.5511 13.2125L22.8677 11.044C23.0183 10.9025 23.0277 10.6574 22.877 10.5065L22.5569 10.186C20.9089 8.51711 18.6865 7.54598 16.3511 7.47057L16.3605 6.1977C16.3699 6.11287 16.3605 6.028 16.3417 5.94313C16.3134 5.8583 16.2758 5.78285 16.2193 5.71687C16.1627 5.65085 16.0968 5.60372 16.0121 5.56598C15.9368 5.52828 15.852 5.50943 15.7672 5.50943C15.6825 5.50943 15.5977 5.52828 15.5224 5.56598C15.4471 5.60372 15.3717 5.65085 15.3152 5.71687C15.2587 5.78285 15.2117 5.8583 15.1928 5.9337C15.1646 6.01857 15.1551 6.10341 15.174 6.18828L15.1646 7.49885C14.609 7.55541 14.0534 7.65913 13.5166 7.81941L13.526 6.18828C13.5354 6.10341 13.526 6.01857 13.5072 5.9337C13.4789 5.84887 13.4413 5.77343 13.3848 5.70744C13.3282 5.64143 13.2623 5.5943 13.1776 5.55656C13.1022 5.51885 13.0175 5.5 12.9327 5.5C12.848 5.5 12.7632 5.51885 12.6879 5.55656C12.6126 5.5943 12.5372 5.64143 12.4807 5.70744C12.4242 5.77343 12.3771 5.84887 12.3583 5.92428C12.3301 6.00915 12.3206 6.09398 12.3395 6.17885L12.3112 8.26254C10.409 9.11113 8.84577 10.5914 7.89464 12.4488C6.94355 14.3062 6.64219 16.4371 7.05656 18.4831C7.47089 20.529 8.57269 22.377 10.1736 23.7159C11.7744 25.0547 13.7897 25.809 15.8708 25.8467L22.604 25.875C22.8111 25.875 22.9807 25.7053 22.9807 25.4978V22.0942C22.9807 21.9716 22.9241 21.8585 22.83 21.783ZM16.0027 24.2062C14.3453 24.1967 12.735 23.6405 11.426 22.6316C10.1171 21.6133 9.17537 20.1896 8.75162 18.5868C8.32783 16.9839 8.45026 15.2774 9.08118 13.7499C9.72156 12.2225 10.8422 10.9402 12.283 10.1105L12.2736 12.5902C12.2641 12.6751 12.2736 12.76 12.2924 12.8448C12.3206 12.9297 12.3583 13.0051 12.4148 13.0711C12.4713 13.1371 12.5372 13.1842 12.622 13.2219C12.6973 13.2597 12.7821 13.2785 12.8668 13.2785C12.9516 13.2785 13.0363 13.2597 13.1117 13.2219C13.187 13.1842 13.2623 13.1371 13.3188 13.0711C13.3753 13.0051 13.4224 12.9297 13.4413 12.8542C13.4695 12.7694 13.4789 12.6845 13.4601 12.5997L13.4695 9.55426C14.2982 9.25256 15.174 9.11113 16.0592 9.11113C17.6883 9.11113 19.2704 9.64856 20.5605 10.6291C20.6546 10.7045 20.6641 10.8365 20.5793 10.9214L17.0574 14.1554C16.7372 14.0234 16.3888 13.9479 16.0403 13.9479C15.6542 13.9479 15.2681 14.0234 14.9103 14.1837C14.5525 14.3439 14.2417 14.5797 13.9874 14.8719C13.7332 15.1642 13.5448 15.5131 13.4318 15.8808C13.3188 16.2579 13.2906 16.6445 13.3471 17.0311C13.4036 17.4176 13.5354 17.7854 13.7426 18.1153C13.9498 18.4453 14.2323 18.7187 14.5525 18.9356C14.8821 19.1431 15.2493 19.2845 15.6354 19.341C16.0215 19.3976 16.417 19.3693 16.7843 19.2562L21.2856 22.6787C21.3327 22.7165 21.3609 22.773 21.3609 22.8296L21.3515 24.0365C21.3515 24.1401 21.2667 24.225 21.1632 24.225L16.0027 24.2062ZM17.1045 16.6633C17.1045 16.8708 17.0385 17.0782 16.9255 17.2574C16.8031 17.4365 16.643 17.5685 16.4453 17.6534C16.2475 17.7382 16.0309 17.757 15.8331 17.7099C15.6354 17.6628 15.4376 17.5685 15.287 17.4176C15.1363 17.2668 15.0327 17.0782 14.9951 16.8708C14.9574 16.6633 14.9762 16.4465 15.061 16.2579C15.1457 16.0599 15.2776 15.8997 15.4565 15.7771C15.6354 15.6639 15.8426 15.5979 16.0497 15.5979C16.3323 15.5979 16.6054 15.7111 16.8031 15.9185C16.9914 16.1071 17.1045 16.3711 17.1045 16.6633Z" fill="#0E0333"/>
</svg>
