<svg width="32" height="32" viewBox="0 0 32 32" fill="none" xmlns="http://www.w3.org/2000/svg">
    <path d="M16 32C24.8366 32 32 24.8366 32 16C32 7.16344 24.8366 0 16 0C7.16344 0 0 7.16344 0 16C0 24.8366 7.16344 32 16 32Z" fill="#16B9AD"/>
    <path fill-rule="evenodd" clip-rule="evenodd" d="M26.8791 13.3341C26.8791 19.3802 21.9983 24.2992 15.9991 24.2992C10 24.2992 5.11914 19.3802 5.11914 13.3341C5.11914 12.8825 5.14628 12.4373 5.19986 12H7.15432C7.08981 12.4354 7.05621 12.8811 7.05621 13.3341C7.05621 18.3038 11.068 22.3468 15.9991 22.3468C20.7037 22.3468 24.572 18.6662 24.9175 14.0121H11.0854C11.4147 16.4486 13.4925 18.3324 15.9991 18.3324C17.9394 18.3324 19.6234 17.2033 20.4377 15.5629H22.5317C21.6083 18.3058 19.0281 20.2846 15.9991 20.2846C12.1966 20.2846 9.10243 17.1663 9.10243 13.3341C9.10243 12.8778 9.14637 12.4321 9.23027 12H26.7984C26.852 12.4373 26.8791 12.8825 26.8791 13.3341Z" fill="white"/>
</svg>
