<svg width="32" height="32" viewBox="0 0 32 32" fill="none" xmlns="http://www.w3.org/2000/svg">
    <path d="M16 32C24.8366 32 32 24.8366 32 16C32 7.16344 24.8366 0 16 0C7.16344 0 0 7.16344 0 16C0 24.8366 7.16344 32 16 32Z" fill="#6699FF"/>
    <path fill-rule="evenodd" clip-rule="evenodd" d="M24.9736 19.987C25.3001 20.3146 25.5584 20.7037 25.735 21.1308C25.9117 21.559 26.0022 22.0163 26.0022 22.4792C26.0022 22.9421 25.9117 23.3994 25.735 23.8276C25.5584 24.2547 25.3001 24.6438 24.9736 24.9714C24.646 25.2979 24.2569 25.5561 23.8298 25.7328C23.4016 25.9094 22.9443 26 22.4814 26C22.0186 26 21.5613 25.9094 21.133 25.7328C20.7059 25.5561 20.3169 25.2979 19.9893 24.9714L16.0022 20.9843L12.0141 24.9714C11.6865 25.2979 11.2974 25.5561 10.8703 25.7328C10.4421 25.9094 9.98479 26 9.52191 26C9.05903 26 8.60174 25.9094 8.17352 25.7328C7.74642 25.5561 7.35733 25.2979 7.02974 24.9714C6.70326 24.6438 6.44499 24.2547 6.26834 23.8276C6.09168 23.3994 6.00112 22.9421 6.00112 22.4792C6.00112 22.0163 6.09168 21.559 6.26834 21.1308C6.44499 20.7037 6.70326 20.3146 7.02974 19.987L10.5192 16.4987L12.0141 17.9935L8.52572 21.483C8.3949 21.6138 8.29204 21.7692 8.22048 21.9403C8.15004 22.1114 8.11427 22.2947 8.11427 22.4792C8.11427 22.6648 8.15004 22.8482 8.22048 23.0192C8.29204 23.1903 8.3949 23.3457 8.52572 23.4765C8.65653 23.6073 8.81194 23.7102 8.98301 23.7806C9.15407 23.8511 9.33743 23.888 9.52303 23.888C9.70751 23.888 9.89088 23.8511 10.0619 23.7806C10.233 23.7102 10.3884 23.6073 10.5192 23.4765L14.5063 19.4895L12.5127 17.4949L11.0179 16L7.02862 12.013C6.70215 11.6854 6.44387 11.2963 6.26722 10.8692C6.09056 10.441 6 9.98368 6 9.5208C6 9.05792 6.09056 8.60063 6.26722 8.17241C6.44387 7.7453 6.70215 7.35622 7.02862 7.02862C7.35622 6.70215 7.7453 6.44387 8.17241 6.26722C8.60063 6.09056 9.05792 6 9.5208 6C9.98368 6 10.441 6.09056 10.8692 6.26722C11.2963 6.44387 11.6854 6.70215 12.013 7.02862L16.0011 11.0157L19.9881 7.02862C20.3157 6.70215 20.7048 6.44387 21.1319 6.26722C21.5602 6.09056 22.0174 6 22.4803 6C22.9432 6 23.4005 6.09056 23.8287 6.26722C24.2558 6.44387 24.6449 6.70215 24.9725 7.02862C25.299 7.35622 25.5572 7.7453 25.7339 8.17241C25.9106 8.60063 26.0011 9.05792 26.0011 9.5208C26.0011 9.98368 25.9106 10.441 25.7339 10.8692C25.5572 11.2963 25.299 11.6854 24.9725 12.013L20.9855 16L24.9736 19.987ZM12.5116 14.5096L14.5051 12.515L10.5181 8.52795C10.3873 8.39714 10.2319 8.29428 10.0608 8.22384C9.88976 8.1534 9.7064 8.1165 9.52191 8.1165C9.33631 8.1165 9.15295 8.1534 8.98189 8.22384C8.81082 8.29428 8.65541 8.39714 8.5246 8.52795C8.39378 8.65877 8.29092 8.81418 8.21936 8.98524C8.14893 9.15631 8.11315 9.33967 8.11315 9.52415C8.11315 9.70975 8.14893 9.89311 8.21936 10.0642C8.29092 10.2352 8.39378 10.3907 8.5246 10.5215L12.5116 14.5096ZM23.7806 23.0192C23.85 22.8493 23.8869 22.6659 23.8869 22.4814C23.8869 22.2981 23.85 22.1147 23.7806 21.9448C23.7102 21.7737 23.6073 21.6183 23.4776 21.4875L16.4964 14.5051L17.9946 13.0092L19.4895 14.5051L23.4776 10.517C23.6085 10.3862 23.7113 10.2308 23.7818 10.0597C23.8522 9.88864 23.8891 9.70528 23.8891 9.5208C23.8891 9.3352 23.8522 9.15183 23.7818 8.98077C23.7113 8.8097 23.6085 8.65429 23.4776 8.52348C23.3468 8.39267 23.1903 8.2898 23.0192 8.21936C22.8482 8.14893 22.6648 8.11203 22.4803 8.11203C22.2958 8.11203 22.1125 8.14893 21.9414 8.21936C21.7703 8.2898 21.6138 8.39267 21.483 8.52348L14.0065 16L16.0011 17.9935L17.496 16.4987L18.9908 17.9935L17.496 19.4895L21.483 23.4765C21.6138 23.6073 21.7703 23.7102 21.9414 23.7806C22.1125 23.8511 22.2958 23.888 22.4803 23.888C22.6648 23.888 22.8482 23.8511 23.0192 23.7806C23.1903 23.7102 23.3468 23.6073 23.4776 23.4765C23.6073 23.3457 23.7102 23.1903 23.7806 23.0192Z" fill="#EEEEEE"/>
</svg>
