<svg width="32" height="32" viewBox="0 0 32 32" fill="none" xmlns="http://www.w3.org/2000/svg">
    <path d="M16 32C24.8366 32 32 24.8366 32 16C32 7.16344 24.8366 0 16 0C7.16344 0 0 7.16344 0 16C0 24.8366 7.16344 32 16 32Z" fill="#005BAB"/>
    <path d="M26.4147 15.2612L25.8464 15.1475H15.9574C15.6861 15.1475 15.4259 15.2553 15.234 15.4471C15.0422 15.639 14.9344 15.8992 14.9344 16.1705C14.9344 16.4418 15.0422 16.702 15.234 16.8939C15.4259 17.0857 15.6861 17.1935 15.9574 17.1935H22.2091C21.5271 19.1259 19.0264 20.6035 16.0711 20.6035C12.5474 20.6035 9.70575 18.5575 9.70575 16.0568C9.70575 13.5561 12.5474 11.5101 16.0711 11.5101C17.8032 11.4408 19.501 12.0067 20.8451 13.1015H25.0508C25.0658 13.1018 25.0807 13.0991 25.0947 13.0935C25.1086 13.0879 25.1213 13.0795 25.1319 13.0689C25.1425 13.0583 25.1509 13.0456 25.1565 13.0317C25.1621 13.0177 25.1648 13.0028 25.1645 12.9878C23.3458 10.9418 19.9358 9.69147 15.9575 9.69147C10.1604 9.69149 5.5 12.5332 5.5 16.0568C5.5 19.5805 10.1603 22.3085 15.9574 22.3085C21.7544 22.3085 26.4147 19.4669 26.4147 16.0568C26.4716 15.9319 26.5009 15.7962 26.5009 15.659C26.5009 15.5218 26.4716 15.3861 26.4147 15.2612Z" fill="white"/>
</svg>
