<svg width="32" height="32" viewBox="0 0 32 32" fill="none" xmlns="http://www.w3.org/2000/svg">
    <path d="M16 32C24.8366 32 32 24.8366 32 16C32 7.16344 24.8366 0 16 0C7.16344 0 0 7.16344 0 16C0 24.8366 7.16344 32 16 32Z" fill="#56428E"/>
    <path d="M10.75 7.5H15.104C14.58 8.33 14.259 9.247 14.279 10.24C15.574 10.253 16.873 10.253 18.169 10.24C18.186 9.253 17.921 8.31 17.354 7.5H21.738C21.436 8.133 20.923 8.72 20.972 9.463C20.952 12.787 20.979 16.113 20.969 19.437C21.399 19.437 21.834 19.437 22.269 19.44C22.586 18.81 22.868 18.167 23.093 17.5C24.395 17.533 25.704 17.463 27 17.637C25.718 18.743 25.048 20.317 24.213 21.75C20.899 21.757 17.586 21.74 14.269 21.76C14.113 22.97 14.859 23.803 15.723 24.5H10.126C10.613 23.857 11.594 23.443 11.491 22.5C11.524 19.287 11.491 16.07 11.501 12.853H14.341V14.833H18.109V12.563H10.242L8.287 16C8.937 17.147 9.589 18.292 10.245 19.437H11.213V21.75H8.254C7.174 19.83 6.054 17.933 5 16V15.997C6.057 14.067 7.18 12.17 8.254 10.25C9.358 10.25 10.461 10.25 11.564 10.24C11.5787 9.26484 11.2943 8.30859 10.749 7.5H10.75ZM14.342 17.167V19.437H18.109V17.167H14.342ZM21.257 10.25H24.207C25.015 11.55 25.571 13.05 26.737 14.09C26.761 14.167 26.804 14.324 26.827 14.4C25.581 14.564 24.319 14.437 23.063 14.5C22.903 13.807 22.589 13.17 22.241 12.56L21.257 12.563V10.25ZM18.212 22.04C19.083 22.043 19.958 22.04 20.83 22.037C20.81 23.15 21.589 23.84 22.354 24.5H16.717C17.44 23.814 18.285 23.163 18.212 22.04Z" fill="white"/>
</svg>
