<svg width="32" height="32" viewBox="0 0 32 32" fill="none" xmlns="http://www.w3.org/2000/svg">
    <g clip-path="url(#clip0_1186_184)">
        <path d="M16 32C11.758 31.9952 7.69116 30.3079 4.69162 27.3084C1.69209 24.3088 0.00482761 20.242 0 16C0 15.5322 0.185826 15.0836 0.516599 14.7528C0.847372 14.422 1.296 14.2362 1.76378 14.2362C2.23156 14.2362 2.68019 14.422 3.01096 14.7528C3.34173 15.0836 3.52756 15.5322 3.52756 16C3.52756 18.4668 4.25906 20.8782 5.62955 22.9293C7.00003 24.9804 8.94796 26.579 11.227 27.523C13.506 28.467 16.0138 28.714 18.4333 28.2328C20.8527 27.7515 23.075 26.5636 24.8193 24.8193C26.5636 23.075 27.7515 20.8527 28.2328 18.4333C28.714 16.0138 28.467 13.506 27.523 11.227C26.579 8.94796 24.9804 7.00003 22.9293 5.62955C20.8782 4.25906 18.4668 3.52756 16 3.52756C15.5322 3.52756 15.0836 3.34173 14.7528 3.01096C14.422 2.68019 14.2362 2.23156 14.2362 1.76378C14.2362 1.296 14.422 0.847372 14.7528 0.516599C15.0836 0.185826 15.5322 0 16 0C20.2435 0 24.3131 1.68571 27.3137 4.68629C30.3143 7.68687 32 11.7565 32 16C32 20.2435 30.3143 24.3131 27.3137 27.3137C24.3131 30.3143 20.2435 32 16 32V32Z" fill="#8CC640"/>
        <path d="M15.9104 27.5903L15.8989 27.5901C13.6066 27.5701 11.3717 26.8708 9.47679 25.5806C7.58192 24.2904 6.11217 22.4673 5.25342 20.3419C4.39467 18.2164 4.18547 15.884 4.6523 13.6397C5.11912 11.3953 6.24099 9.33977 7.87604 7.73301C9.51109 6.12624 11.5859 5.04041 13.838 4.61282C16.0902 4.18524 18.4186 4.4351 20.5288 5.33081C22.6389 6.22652 24.4361 7.72785 25.693 9.64495C26.9499 11.5621 27.6101 13.8088 27.5901 16.1011C27.5871 16.4433 27.4491 16.7704 27.2062 17.0113C26.9632 17.2522 26.635 17.3874 26.2928 17.3875L26.2813 17.3873C26.1109 17.3858 25.9424 17.3508 25.7856 17.2843C25.6287 17.2177 25.4865 17.1209 25.367 16.9993C25.2476 16.8778 25.1533 16.7339 25.0895 16.5759C25.0256 16.4179 24.9936 16.2489 24.9951 16.0785C25.0054 14.8972 24.7829 13.7255 24.3404 12.6303C23.8979 11.535 23.244 10.5376 22.416 9.69511C21.588 8.85257 20.6022 8.18137 19.5148 7.71983C18.4274 7.25828 17.2597 7.01544 16.0785 7.00516L15.9978 7.00479C13.619 7.0053 11.3373 7.94801 9.65188 9.62666C7.96646 11.3053 7.01456 13.5832 7.00447 15.962C6.99439 18.3407 7.92693 20.6266 9.59806 22.3195C11.2692 24.0124 13.5428 24.9744 15.9215 24.9951C16.2646 24.9981 16.5926 25.1369 16.8337 25.3811C17.0747 25.6253 17.2092 25.9551 17.2078 26.2982C17.2063 26.6413 17.069 26.9699 16.8258 27.2121C16.5827 27.4542 16.2536 27.5902 15.9104 27.5903V27.5903Z" fill="#24AAE1"/>
    </g>
    <defs>
        <clipPath id="clip0_1186_184">
            <rect width="32" height="32" fill="white"/>
        </clipPath>
    </defs>
</svg>
