<svg width="32" height="32" viewBox="0 0 32 32" fill="none" xmlns="http://www.w3.org/2000/svg">
    <circle cx="16" cy="16" r="16" fill="#121C36"/>
    <path d="M5.5273 18.7368C5.44393 18.7368 5.36941 18.7052 5.30372 18.6421C5.24056 18.5764 5.20898 18.5019 5.20898 18.4185V13.9166C5.20898 13.8332 5.24056 13.76 5.30372 13.6968C5.36941 13.6311 5.44393 13.5983 5.5273 13.5983C5.61067 13.5983 5.68393 13.6311 5.74709 13.6968C5.81277 13.76 5.84562 13.8332 5.84562 13.9166V15.8189H8.93783V13.9166C8.93783 13.8332 8.96941 13.76 9.03256 13.6968C9.09572 13.6311 9.17025 13.5983 9.25614 13.5983C9.33951 13.5983 9.41277 13.6311 9.47593 13.6968C9.54162 13.76 9.57446 13.8332 9.57446 13.9166V18.4185C9.57446 18.5019 9.54162 18.5764 9.47593 18.6421C9.41277 18.7052 9.33951 18.7368 9.25614 18.7368C9.17025 18.7368 9.09572 18.7052 9.03256 18.6421C8.96941 18.5764 8.93783 18.5019 8.93783 18.4185V16.4555H5.84562V18.4185C5.84562 18.5019 5.81277 18.5764 5.74709 18.6421C5.68393 18.7052 5.61067 18.7368 5.5273 18.7368Z" fill="#45FFF4"/>
    <path d="M11.4706 18.7368C11.2583 18.7368 11.1522 18.6307 11.1522 18.4185V13.9166C11.1522 13.7044 11.2583 13.5983 11.4706 13.5983H14.1914C14.4036 13.5983 14.5097 13.7044 14.5097 13.9166C14.5097 14.1288 14.4036 14.2349 14.1914 14.2349H11.7889V15.8265H13.2971C13.5093 15.8265 13.6154 15.9326 13.6154 16.1448C13.6154 16.357 13.5093 16.4631 13.2971 16.4631H11.7889V18.1002H14.1914C14.4036 18.1002 14.5097 18.2063 14.5097 18.4185C14.5097 18.6307 14.4036 18.7368 14.1914 18.7368H11.4706Z" fill="#45FFF4"/>
    <path d="M17.0866 18.7368C16.5081 18.7368 16.0799 18.5991 15.802 18.3238C15.5266 18.0459 15.3889 17.6176 15.3889 17.0391V15.296C15.3889 14.7124 15.5266 14.2829 15.802 14.0075C16.0774 13.7296 16.503 13.5932 17.079 13.5983H17.9961C18.471 13.5983 18.8336 13.6968 19.0837 13.8939C19.3338 14.0884 19.479 14.3966 19.5195 14.8185C19.5346 14.9246 19.5144 15.0054 19.4588 15.061C19.4032 15.1166 19.3224 15.1444 19.2163 15.1444C19.0243 15.1444 18.9131 15.0383 18.8828 14.8261C18.8576 14.5936 18.7767 14.437 18.6403 14.3562C18.5064 14.2753 18.2917 14.2349 17.9961 14.2349H17.079C16.8112 14.2324 16.6003 14.2627 16.4462 14.3259C16.2946 14.389 16.186 14.4989 16.1203 14.6555C16.0571 14.8096 16.0256 15.0231 16.0256 15.296V17.0391C16.0256 17.3094 16.0571 17.5216 16.1203 17.6758C16.186 17.8299 16.2959 17.9398 16.45 18.0054C16.6041 18.0686 16.8163 18.1002 17.0866 18.1002H17.9961C18.231 18.1002 18.4142 18.0749 18.5456 18.0244C18.6795 17.9713 18.7729 17.8791 18.826 17.7478C18.879 17.6164 18.9056 17.4307 18.9056 17.1907V16.8345L18.3144 16.8269C18.1022 16.8269 17.9961 16.7208 17.9961 16.5086C17.9961 16.2964 18.1022 16.1903 18.3144 16.1903L19.2239 16.1979C19.4361 16.1979 19.5422 16.304 19.5422 16.5162V17.1907C19.5422 17.7288 19.4171 18.1216 19.167 18.3692C18.9169 18.6143 18.5266 18.7368 17.9961 18.7368H17.0866Z" fill="#45FFF4"/>
    <path d="M21.1811 18.7368C21.0725 18.7368 20.9916 18.7115 20.9386 18.661C20.888 18.608 20.8628 18.5271 20.8628 18.4185V13.9242C20.8628 13.813 20.888 13.7322 20.9386 13.6816C20.9916 13.6311 21.0725 13.6059 21.1811 13.6059C21.2922 13.6059 21.3731 13.6311 21.4236 13.6816C21.4741 13.7322 21.4994 13.813 21.4994 13.9242V18.4185C21.4994 18.5271 21.4741 18.608 21.4236 18.661C21.3731 18.7115 21.2922 18.7368 21.1811 18.7368Z" fill="#45FFF4"/>
    <path d="M24.5915 18.7368C24.013 18.7368 23.5848 18.5991 23.3069 18.3238C23.0316 18.0459 22.8939 17.6176 22.8939 17.0391V15.296C22.8939 14.7124 23.0316 14.2829 23.3069 14.0075C23.5823 13.7296 24.008 13.5932 24.584 13.5983H25.501C25.976 13.5983 26.3385 13.6968 26.5886 13.8939C26.8387 14.0884 26.984 14.3966 27.0244 14.8185C27.0395 14.9246 27.0193 15.0054 26.9638 15.061C26.9082 15.1166 26.8273 15.1444 26.7212 15.1444C26.5292 15.1444 26.4181 15.0383 26.3878 14.8261C26.3625 14.5936 26.2817 14.437 26.1452 14.3562C26.0113 14.2753 25.7966 14.2349 25.501 14.2349H24.584C24.3162 14.2324 24.1052 14.2627 23.9511 14.3259C23.7995 14.389 23.6909 14.4989 23.6252 14.6555C23.5621 14.8096 23.5305 15.0231 23.5305 15.296V17.0391C23.5305 17.3094 23.5621 17.5216 23.6252 17.6758C23.6909 17.8299 23.8008 17.9398 23.9549 18.0054C24.109 18.0686 24.3212 18.1002 24.5915 18.1002H25.501C25.7966 18.1002 26.0113 18.0598 26.1452 17.9789C26.2817 17.8955 26.3625 17.7389 26.3878 17.509C26.4181 17.2968 26.5292 17.1907 26.7212 17.1907C26.8273 17.1907 26.9082 17.2185 26.9638 17.2741C27.0193 17.3296 27.0395 17.4105 27.0244 17.5166C26.984 17.941 26.8387 18.2505 26.5886 18.445C26.3385 18.6395 25.976 18.7368 25.501 18.7368H24.5915Z" fill="#45FFF4"/>
</svg>
