<svg width="32" height="32" viewBox="0 0 32 32" fill="none" xmlns="http://www.w3.org/2000/svg">
    <circle cx="16" cy="16" r="16" fill="#F0F0F8"/>
    <path d="M20.7269 17.2264C20.7995 17.2264 20.8449 17.3051 20.8085 17.3681L16.1334 25.4529C16.1166 25.482 16.0855 25.5 16.0518 25.5H13.194C13.1214 25.5 13.076 25.4212 13.1124 25.3583L17.7875 17.2735C17.8043 17.2443 17.8354 17.2264 17.8691 17.2264H20.7269ZM17.9474 14.909C17.9137 14.909 17.8826 14.8911 17.8658 14.8619L13.1124 6.64168C13.076 6.57875 13.1214 6.5 13.194 6.5H16.0518C16.0855 6.5 16.1166 6.51795 16.1334 6.54711L20.8868 14.7673C20.9232 14.8303 20.8778 14.909 20.8052 14.909H17.9474Z" fill="#E31337"/>
    <path d="M18.5128 6.64164C18.4764 6.57871 18.5219 6.5 18.5947 6.5H21.4566C21.4904 6.5 21.5216 6.51797 21.5385 6.54715L26.9873 15.9528C27.0042 15.982 27.0042 16.018 26.9873 16.0472L21.5385 25.4528C21.5216 25.482 21.4904 25.5 21.4566 25.5H18.5947C18.5219 25.5 18.4764 25.4213 18.5128 25.3584L23.9343 16L18.5128 6.64164ZM16.187 15.9524C16.2042 15.9817 16.2043 16.0179 16.1872 16.0472L10.7125 25.4528C10.676 25.5156 10.5848 25.5158 10.548 25.4532L5.01298 16.0476C4.99576 16.0183 4.99567 15.9821 5.01275 15.9528L10.4875 6.54719C10.524 6.48444 10.6152 6.48423 10.652 6.5468L16.187 15.9524Z" fill="#E31337"/>
</svg>
