<svg width="32" height="32" viewBox="0 0 32 32" fill="none" xmlns="http://www.w3.org/2000/svg">
    <path d="M16 32C24.8366 32 32 24.8366 32 16C32 7.16344 24.8366 0 16 0C7.16344 0 0 7.16344 0 16C0 24.8366 7.16344 32 16 32Z" fill="#F2F2F2"/>
    <path d="M18.3965 5.43035C18.3817 5.3383 18.34 5.25269 18.2766 5.18435C18.2132 5.11601 18.1309 5.068 18.0402 5.04639C17.9495 5.02477 17.8545 5.03053 17.7671 5.06292C17.6796 5.09531 17.6038 5.15289 17.5491 5.22839C17.4944 5.30388 17.4633 5.39389 17.4597 5.48705C17.4561 5.58021 17.4803 5.67234 17.529 5.7518C17.5778 5.83125 17.649 5.89446 17.7337 5.93345C17.8184 5.97244 17.9128 5.98544 18.0048 5.97083C18.1284 5.95109 18.2392 5.88306 18.3126 5.7817C18.3861 5.68035 18.4162 5.55396 18.3965 5.43035V5.43035ZM16.5702 27.9317L16.5531 7.46827L16.5557 7.46998L16.5578 7.09113L23.8856 11.3213L23.8766 20.5775L22.2158 21.534L22.158 12.3189L21.0099 11.6566V22.2289L19.3778 23.1683V10.7141L18.2815 10.0809L18.2965 25.036L24.9195 21.2223C24.93 21.2155 24.9387 21.2062 24.9448 21.1952C24.9509 21.1843 24.9542 21.172 24.9545 21.1595L24.9656 10.7347C24.9656 10.722 24.9622 10.7095 24.9559 10.6985C24.9496 10.6875 24.9406 10.6783 24.9297 10.6718L18.411 6.95C18.3325 6.97499 18.2522 6.99386 18.1707 7.00644C17.8736 7.05369 17.5691 7.01175 17.2958 6.88594C17.0224 6.76014 16.7926 6.5561 16.6352 6.29965C16.4779 6.04319 16.4001 5.74583 16.4117 5.44517C16.4234 5.14451 16.5239 4.85405 16.7006 4.61053C16.8773 4.36701 17.1223 4.18136 17.4045 4.07707C17.6868 3.97277 17.9936 3.95451 18.2862 4.02459C18.5788 4.09467 18.8441 4.24995 19.0484 4.47079C19.2528 4.69163 19.3871 4.96811 19.4343 5.26527C19.454 5.391 19.458 5.51869 19.4463 5.64541L26.0603 9.42279C26.2229 9.52648 26.3582 9.66789 26.4545 9.83501C26.5508 10.0021 26.6054 10.19 26.6136 10.3827L26.6012 21.5147C26.5971 21.7081 26.5419 21.8969 26.4413 22.0621C26.3476 22.231 26.2118 22.3727 26.047 22.4734L16.5702 27.9317ZM14.487 26.5305C14.4965 26.4388 14.4786 26.3464 14.4356 26.2649C14.3926 26.1834 14.3263 26.1164 14.2453 26.0726C14.1642 26.0287 14.072 26.0098 13.9802 26.0184C13.8884 26.0269 13.8012 26.0624 13.7297 26.1205C13.6581 26.1786 13.6053 26.2566 13.5781 26.3446C13.5508 26.4327 13.5503 26.5268 13.5765 26.6152C13.6027 26.7035 13.6546 26.7821 13.7255 26.841C13.7964 26.8999 13.8831 26.9365 13.9748 26.9461C14.0357 26.9526 14.0974 26.947 14.1562 26.9296C14.2149 26.9123 14.2697 26.8834 14.3173 26.8448C14.3649 26.8062 14.4044 26.7585 14.4335 26.7046C14.4627 26.6506 14.4809 26.5915 14.487 26.5305ZM13.8657 28.0091C13.4755 27.9687 13.1156 27.7804 12.8598 27.4829C12.604 27.1855 12.4717 26.8014 12.4902 26.4095L5.95346 22.6347C5.79086 22.5315 5.65554 22.3907 5.55899 22.2241C5.46244 22.0575 5.40752 21.87 5.39887 21.6777L5.38647 10.5452C5.39464 10.3526 5.44922 10.1648 5.54555 9.99783C5.64189 9.83084 5.77713 9.6896 5.93979 9.58611L15.3713 4.12571L15.4435 23.7263V23.7246L15.4303 24.9522L13.7481 23.9816L13.7532 16.798H9.84886V21.7316L8.12479 20.7357L8.11496 11.4791L9.84886 10.5042V15.1389H13.7545L13.7618 6.96286L7.0708 10.8352C7.05983 10.8415 7.05081 10.8507 7.0447 10.8618C7.0386 10.8728 7.03565 10.8854 7.03616 10.898L7.04599 21.3228C7.04598 21.3354 7.04934 21.3477 7.05574 21.3586C7.06213 21.3694 7.07132 21.3783 7.08235 21.3844L13.4471 25.0604C13.6631 24.9728 13.8963 24.9356 14.1288 24.9516C14.3613 24.9676 14.5872 25.0364 14.7892 25.1526C14.9912 25.2689 15.1641 25.4297 15.2947 25.6228C15.4253 25.8159 15.5102 26.0361 15.5429 26.2669C15.5757 26.4977 15.5555 26.7329 15.4838 26.9547C15.4121 27.1765 15.2908 27.379 15.1291 27.5469C14.9674 27.7149 14.7697 27.8438 14.5508 27.9238C14.3318 28.0039 14.0976 28.0331 13.8657 28.0091" fill="#0099DA"/>
</svg>
