<svg width="32" height="32" viewBox="0 0 32 32" fill="none" xmlns="http://www.w3.org/2000/svg">
    <circle cx="16" cy="16" r="16" fill="#474DFF"/>
    <path d="M20.2559 8.32237C21.1876 7.39072 22.7047 7.39072 23.6365 8.32237C24.5683 9.25408 24.5683 10.7708 23.6365 11.7025C23.0968 12.2421 22.3581 12.4864 21.6081 12.3784C21.574 12.3728 21.5342 12.3728 21.5001 12.3784C21.2785 12.3501 21.0456 12.3784 20.824 12.4807C20.5115 12.6228 20.2899 12.8841 20.182 13.1852C20.074 13.4806 20.0797 13.8157 20.2217 14.1168C21.0229 15.8495 20.6536 17.9229 19.3012 19.2749C17.949 20.627 15.8751 20.9963 14.1422 20.1953C13.8296 20.0533 13.4944 20.0476 13.1933 20.1612C12.8978 20.2691 12.6478 20.4907 12.5058 20.7975C12.4149 20.9963 12.3808 21.2008 12.3922 21.4053C12.3865 21.4451 12.3865 21.4848 12.3922 21.5245C12.5172 22.2859 12.2672 23.0641 11.7217 23.6094C10.7898 24.5411 9.27284 24.5411 8.34102 23.6094C7.88648 23.1549 7.64216 22.5585 7.64216 21.9166C7.64216 21.2803 7.89215 20.6782 8.34102 20.2237C8.8808 19.684 9.61948 19.4398 10.3694 19.5476C10.3808 19.5476 10.3922 19.5476 10.4092 19.5476C10.4888 19.5647 10.5683 19.576 10.6535 19.576C10.8297 19.576 11.0058 19.542 11.1706 19.4625C11.4774 19.3205 11.6933 19.0705 11.8069 18.7807C11.9206 18.4797 11.9206 18.1388 11.7729 17.8264C10.9717 16.0937 11.341 14.0202 12.6933 12.6682C14.0456 11.3161 16.1195 10.9469 17.8524 11.7479C18.1592 11.8899 18.5002 11.8956 18.7956 11.7876C19.0911 11.6798 19.3467 11.4582 19.4888 11.1514C19.5967 10.9129 19.6251 10.6572 19.5854 10.4129V10.4072C19.4604 9.64599 19.7104 8.86773 20.2559 8.32237ZM17.8922 17.8661C18.9262 16.8322 18.9262 15.1564 17.8922 14.1225C16.8581 13.0886 15.182 13.0886 14.1479 14.1225C13.1137 15.1564 13.1137 16.8322 14.1479 17.8661C15.182 18.9001 16.8581 18.9001 17.8922 17.8661ZM24.5286 12.5944C25.9434 11.1798 25.9434 8.89046 24.5286 7.47593C23.1138 6.06141 20.824 6.06141 19.4092 7.47593C18.8865 7.99856 18.5569 8.64619 18.4206 9.3222C15.858 8.35646 12.9148 8.96999 10.9547 10.9299C8.99444 12.8898 8.3808 15.8324 9.35239 18.4002C8.67057 18.5365 8.02284 18.866 7.49443 19.3943C6.07966 20.8088 6.07966 23.0982 7.49443 24.5127C8.9092 25.9272 11.199 25.9272 12.6138 24.5127C13.1421 23.9844 13.4774 23.3255 13.608 22.6437C14.4035 22.9391 15.2331 23.0868 16.0569 23.0868C17.8922 23.0868 19.7047 22.3767 21.0512 21.0303C23.0002 19.0818 23.6195 16.1563 22.6706 13.5942C23.3468 13.4522 24.0001 13.1226 24.5286 12.5944Z" fill="white"/>
</svg>
