<svg width="32" height="32" viewBox="0 0 32 32" fill="none" xmlns="http://www.w3.org/2000/svg">
    <path d="M16 32C24.8366 32 32 24.8366 32 16C32 7.16344 24.8366 0 16 0C7.16344 0 0 7.16344 0 16C0 24.8366 7.16344 32 16 32Z" fill="#00838D"/>
    <path d="M4.58719 24.1686C4.94199 23.3557 5.27975 22.5819 5.61878 21.8052C7.30748 21.7994 8.82035 21.308 10.093 20.1779C10.9518 19.4243 11.5574 18.4243 11.8274 17.3141C10.8929 17.2618 9.95137 17.405 9.02146 17.1501C9.36417 16.3645 9.69497 15.6015 10.0343 14.8423C10.0517 14.8032 10.1418 14.7782 10.1983 14.7776C10.7456 14.7729 11.2928 14.7748 11.8637 14.7748C11.521 13.3144 10.7349 12.1708 9.52852 11.3236C8.3295 10.4817 6.97631 10.1232 5.51056 10.1541C5.17019 9.37432 4.83523 8.60684 4.48047 7.79396C6.86908 7.51491 9.07115 7.97326 11.0836 9.25462C13.1213 10.5521 14.4232 12.3732 14.8786 14.7705H17.0573C17.6442 11.9219 19.3412 9.95587 21.9082 8.7165C23.671 7.86542 25.5421 7.58819 27.5205 7.85823C27.3754 8.19248 27.2455 8.49092 27.1162 8.78954C26.9285 9.22295 26.7477 9.65954 26.5465 10.0865C26.5176 10.148 26.3909 10.1956 26.3097 10.1954C25.1736 10.1923 24.0758 10.3961 23.0743 10.9317C22.5037 11.2428 21.9681 11.6143 21.477 12.0399C20.6704 12.7299 20.1455 13.6206 19.8606 14.6472C19.8503 14.684 19.8411 14.7212 19.83 14.7634C20.7469 14.8267 21.6748 14.6599 22.5867 14.9393C22.3888 15.3926 22.1974 15.8296 22.0072 16.2672C21.8843 16.55 21.776 16.8404 21.6337 17.113C21.6045 17.1616 21.565 17.2032 21.518 17.2348C21.471 17.2665 21.4176 17.2874 21.3616 17.2962C20.8959 17.315 20.4291 17.3047 19.9627 17.3048H19.8467C20.2619 19.2218 22.4238 21.8763 26.4512 21.8642C26.7828 22.6248 27.1163 23.3896 27.4703 24.2016C25.0926 24.4876 22.9015 24.0359 20.892 22.7714C18.8569 21.4908 17.5463 19.6894 17.0693 17.3093H14.8582C14.2466 20.1253 12.5544 22.0643 10.0093 23.2907C8.304 24.1125 6.49475 24.3833 4.58719 24.1686Z" fill="white"/>
</svg>
