<svg width="32" height="32" viewBox="0 0 32 32" fill="none" xmlns="http://www.w3.org/2000/svg">
    <path d="M16 32C24.8366 32 32 24.8366 32 16C32 7.16344 24.8366 0 16 0C7.16344 0 0 7.16344 0 16C0 24.8366 7.16344 32 16 32Z" fill="#42B0B7"/>
    <path d="M22.4276 11.2368L20.2731 13.3914C20.859 14.3474 21.106 15.4728 20.9742 16.5863C20.8425 17.6998 20.3397 18.7364 19.5468 19.5293C18.754 20.3221 17.7173 20.8249 16.6038 20.9567C15.4903 21.0885 14.3649 20.8415 13.4089 20.2556L11.2543 22.4102C12.7924 23.553 14.6902 24.1047 16.6013 23.9646C18.5124 23.8245 20.3094 23.0019 21.6644 21.6469C23.0194 20.2919 23.842 18.4949 23.9821 16.5838C24.1222 14.6727 23.5705 12.7749 22.4276 11.2368V11.2368Z" fill="white"/>
    <path d="M11.0261 16C11.0261 15.1127 11.2627 14.2415 11.7114 13.476C12.1601 12.7105 12.8047 12.0785 13.5789 11.645C14.3531 11.2115 15.2288 10.9921 16.1159 11.0096C17.003 11.0271 17.8695 11.2807 18.626 11.7444L20.7805 9.58975C19.2424 8.44686 17.3446 7.89513 15.4335 8.03524C13.5224 8.17535 11.7253 8.99796 10.3704 10.353C9.01536 11.7079 8.19275 13.505 8.05264 15.4161C7.91253 17.3272 8.46426 19.225 9.60714 20.7631L11.7618 18.6086C11.2795 17.824 11.0248 16.9209 11.0261 16V16Z" fill="white"/>
    <path d="M25.9629 7.62329C26.0468 8.04374 25.9931 8.48002 25.8099 8.86765C25.6268 9.25528 25.3237 9.5737 24.9457 9.77587C24.5676 9.97805 24.1345 10.0532 23.7104 9.99035C23.2863 9.92746 22.8937 9.72982 22.5906 9.42663C22.2874 9.12344 22.0899 8.73078 22.0271 8.30667C21.9642 7.88256 22.0395 7.4495 22.2418 7.07146C22.444 6.69342 22.7625 6.39047 23.1502 6.20736C23.5378 6.02425 23.9741 5.97069 24.3945 6.0546C24.7816 6.13212 25.1371 6.32244 25.4161 6.60158C25.6952 6.88073 25.8855 7.23622 25.9629 7.62329V7.62329Z" fill="white"/>
    <path d="M9.95605 23.5952C10.0399 24.0156 9.98634 24.4519 9.8032 24.8395C9.62007 25.2272 9.3171 25.5456 8.93905 25.7479C8.56101 25.9501 8.12795 26.0253 7.70385 25.9625C7.27975 25.8997 6.88711 25.7021 6.58393 25.3989C6.28076 25.0958 6.08314 24.7032 6.02026 24.2791C5.95739 23.855 6.0326 23.4219 6.23478 23.0439C6.43695 22.6658 6.75538 22.3628 7.14301 22.1796C7.53064 21.9964 7.96691 21.9428 8.38736 22.0266C8.77445 22.1041 9.12997 22.2943 9.40912 22.5735C9.68827 22.8526 9.87857 23.2081 9.95605 23.5952Z" fill="white"/>
</svg>
