<svg width="32" height="32" viewBox="0 0 32 32" fill="none" xmlns="http://www.w3.org/2000/svg">
    <path d="M30.923 10.2415C29.4 6.28749 26.3691 3.10006 22.4967 1.37997C18.6244 -0.340114 14.2274 -0.45206 10.2725 1.06874L10.2288 1.0856C9.4328 1.39389 8.66329 1.76663 7.92793 2.20011C5.81643 3.43376 4.01597 5.13519 2.66496 7.17359C1.31395 9.21199 0.448389 11.5331 0.134825 13.9583C-0.178738 16.3836 0.0680485 18.8485 0.85621 21.1635C1.64437 23.4784 2.95292 25.5818 4.68123 27.3119C5.67738 28.3047 6.80266 29.1589 8.02674 29.8513C10.0924 31.0419 12.398 31.7557 14.7751 31.9403C17.1521 32.1248 19.5403 31.7757 21.765 30.9182C23.9897 30.0608 25.9945 28.7168 27.6328 26.9847C29.2711 25.2525 30.5013 23.176 31.2336 20.907C31.6673 19.569 31.9189 18.1786 31.9817 16.7734C32.0883 14.5507 31.7276 12.3304 30.923 10.2556V10.2415Z" fill="#B13932"/>
    <path d="M30.923 10.2415C31.7276 12.3162 32.0883 14.5366 31.9817 16.7593C31.4797 17.4274 30.948 18.0717 30.3866 18.6921C28.6367 14.6588 25.9502 11.1009 22.5501 8.31366C19.1499 5.52643 15.1341 3.59021 10.8359 2.66565C11.4061 1.86691 12.0187 1.09929 12.671 0.366079C16.3904 -0.423489 20.2695 0.136573 23.6138 1.946C26.958 3.75543 29.549 6.69609 30.923 10.2415V10.2415Z" fill="#CC4641"/>
    <path d="M31.9676 16.7593C31.9094 18.1638 31.6625 19.5542 31.2336 20.8929C31.1034 20.5034 30.9623 20.1177 30.8101 19.736L30.3867 18.692C30.9471 18.072 31.4788 17.4278 31.9818 16.7593L31.9676 16.7593Z" fill="#CC4641"/>
    <path d="M30.8101 19.7361L31.2336 20.8929C30.5037 23.1637 29.2752 25.2426 27.6382 26.9774C26.0011 28.7121 23.9968 30.0589 21.7721 30.9191C19.5473 31.7792 17.1584 32.131 14.7801 31.9487C12.4018 31.7664 10.0944 31.0546 8.02673 29.8654C7.70023 29.1479 7.41279 28.4132 7.16565 27.6646C11.4676 28.0809 15.8073 27.4865 19.8389 25.9287C23.8704 24.3709 27.4823 21.8929 30.3867 18.6921L30.8101 19.7361L30.8101 19.7361Z" fill="#B13932"/>
    <path d="M30.3867 18.6921C27.4822 21.8974 23.8686 24.3793 19.8344 25.9397C15.8001 27.5 11.4569 28.0955 7.15158 27.6787C5.73076 23.5203 5.32256 19.0829 5.96088 14.735C6.59921 10.3871 8.26563 6.25429 10.8218 2.67972C15.1211 3.60081 19.1389 5.53397 22.5415 8.31878C25.9442 11.1036 28.6336 14.6597 30.3867 18.6921V18.6921Z" fill="#BE4137"/>
    <path d="M12.6709 0.366089C12.0186 1.0993 11.406 1.86692 10.8358 2.66566C9.87573 2.45764 8.90498 2.30222 7.92792 2.2001C8.66372 1.7714 9.43324 1.40338 10.2288 1.09969C11.0225 0.791864 11.839 0.546582 12.6709 0.366089V0.366089Z" fill="#A5322D"/>
    <path d="M7.92791 2.2001C8.90497 2.30222 9.87572 2.45764 10.8358 2.66566C8.27744 6.24187 6.60973 10.3772 5.97137 14.7277C5.33302 19.0782 5.74245 23.5183 7.16564 27.6787C6.33249 27.5996 5.50435 27.482 4.68121 27.326C2.95325 25.5957 1.64502 23.4923 0.857076 21.1774C0.0691317 18.8625 -0.177547 16.3977 0.136001 13.9726C0.449548 11.5474 1.31497 9.22645 2.66576 7.18806C4.01654 5.14966 5.81671 3.44812 7.92791 2.21421V2.2001Z" fill="#A5322D"/>
    <path d="M7.54678 28.7227C7.68794 29.1177 7.84322 29.4986 8.01261 29.8654C6.79349 29.1719 5.67301 28.3178 4.68121 27.326C5.50321 27.4799 6.33136 27.5927 7.16564 27.6646L7.54678 28.7227Z" fill="#B13932"/>
    <path d="M5.26001 6.9121H10.6241C11.3493 6.91056 12.0728 6.98145 12.7839 7.12372C13.4333 7.24568 14.0551 7.48469 14.619 7.82911C15.1542 8.15934 15.5963 8.62063 15.9036 9.16935C16.2495 9.83451 16.415 10.5788 16.3835 11.3278C16.4227 12.3475 16.0974 13.3478 15.466 14.1494C14.7924 14.9325 13.8408 15.4232 12.8122 15.5178L16.9058 22.346H13.6026L10.0171 15.8141H8.01264V22.3601H5.26001V6.9121ZM10.1583 13.4581C10.5496 13.4601 10.9407 13.4412 11.3299 13.4017C11.704 13.3693 12.0707 13.2789 12.4169 13.1337C12.7323 13.0031 13.0057 12.7883 13.2074 12.5129C13.4316 12.1546 13.54 11.7359 13.5179 11.3138C13.5351 10.9315 13.4367 10.553 13.2356 10.2275C13.0473 9.95978 12.7883 9.74974 12.4874 9.62083C12.1645 9.47963 11.8217 9.38923 11.4711 9.35283C11.1152 9.30771 10.757 9.28416 10.3983 9.28229H8.01264V13.4723H10.1583L10.1583 13.4581ZM17.0752 11.2009H19.5596V12.7809H19.602C19.9514 12.1673 20.4846 11.6787 21.1265 11.3843C21.7795 11.0949 22.4874 10.9505 23.2016 10.961C23.9433 10.9481 24.6794 11.0923 25.3613 11.3843C25.9823 11.6507 26.5402 12.0448 26.9988 12.5411C27.4571 13.0431 27.8078 13.6337 28.0293 14.2764C28.2621 14.9718 28.3766 15.7015 28.368 16.4348C28.3752 17.1705 28.251 17.9014 28.001 18.5933C27.7718 19.2366 27.4221 19.8303 26.9706 20.3427C26.5219 20.8412 25.9737 21.2401 25.3613 21.5136C24.717 21.799 24.0192 21.9433 23.3145 21.9369C22.872 21.9422 22.4307 21.89 22.0017 21.7817C21.6579 21.6894 21.3263 21.5568 21.0136 21.3867C20.746 21.2458 20.4951 21.0755 20.2654 20.8788C20.0791 20.717 19.9089 20.5374 19.7572 20.3427H19.6867V26.6348H17.0752V11.2009H17.0752ZM25.7566 16.4349C25.7557 16.0351 25.684 15.6387 25.5448 15.2639C25.4112 14.893 25.2048 14.5524 24.9378 14.2623C24.4877 13.8005 23.9082 13.4859 23.2757 13.36C22.6432 13.2341 21.9874 13.3027 21.3947 13.5569C21.0262 13.7247 20.6951 13.9645 20.4207 14.2623C20.1537 14.5524 19.9473 14.893 19.8137 15.2639C19.5364 16.0248 19.5364 16.8591 19.8137 17.6199C19.947 17.991 20.1534 18.3316 20.4207 18.6216C20.8709 19.0833 21.4504 19.3979 22.0828 19.5238C22.7153 19.6498 23.3711 19.5811 23.9638 19.327C24.3319 19.1585 24.663 18.9187 24.9378 18.6216C25.2051 18.3316 25.4115 17.991 25.5448 17.6199C25.684 17.2452 25.7557 16.8487 25.7566 16.4489V16.4349Z" fill="white"/>
</svg>
