<svg width="32" height="32" viewBox="0 0 32 32" fill="none" xmlns="http://www.w3.org/2000/svg">
    <circle cx="16" cy="16" r="16" fill="#1A202C"/>
    <path d="M18.8964 26.1502C18.8549 26.0975 18.7952 26.0623 18.729 26.0515C17.4796 25.7863 16.2788 25.3296 15.169 24.6974C12.89 23.3713 11.4373 21.3649 11.3815 19.0795C11.3657 18.2081 11.5453 17.3444 11.9072 16.5516C12.139 16.0366 13.3836 14.1911 13.5896 13.8542C14.4373 12.5259 14.1647 12.6096 12.9716 10.9508L11.2549 8.40795L10.0939 6.71484C9.42914 7.1676 8.79933 7.66972 8.20985 8.21697C7.00906 9.42164 6.10394 10.8883 5.5656 12.5018C5.02725 14.1153 4.87034 15.8316 5.10719 17.516C5.34404 19.2003 5.96819 20.8068 6.93063 22.2093C7.89307 23.6117 9.16757 24.7719 10.654 25.5987C6.83004 22.7962 5.08543 18.5945 6.54893 14.3563C6.94837 13.219 7.53275 12.1554 8.27852 11.2083L9.53601 13.0581C9.60809 13.1652 9.64405 13.2925 9.63864 13.4214C9.63324 13.5504 9.58675 13.6742 9.50597 13.7749C8.90552 14.5113 8.43723 15.3463 8.12187 16.2426C6.5146 20.9078 10.8579 25.7403 15.4458 26.5279C16.3256 26.6781 17.9286 26.8455 18.7569 26.633C18.8057 26.6198 18.8502 26.5943 18.8862 26.5589C18.9222 26.5235 18.9485 26.4794 18.9625 26.4309C18.9765 26.3824 18.9778 26.331 18.9662 26.2819C18.9546 26.2327 18.9306 26.1874 18.8964 26.1502Z" fill="url(#paint0_linear)"/>
    <path d="M13.105 5.85342C13.1464 5.90608 13.2062 5.94131 13.2723 5.95213C14.5215 6.21727 15.7222 6.67402 16.8318 7.30619C19.1104 8.63235 20.563 10.6388 20.6188 12.9241C20.6345 13.7955 20.4549 14.6593 20.0931 15.452C19.8613 15.967 18.6169 17.8125 18.411 18.1494C17.5635 19.4777 17.8359 19.394 19.0289 21.0528L20.7453 23.5957L21.9061 25.2888C22.5708 24.836 23.2005 24.3339 23.7899 23.7866C24.9905 22.582 25.8955 21.1153 26.4337 19.5018C26.972 17.8884 27.1289 16.172 26.8921 14.4877C26.6553 12.8033 26.0312 11.1968 25.0689 9.79435C24.1066 8.39191 22.8323 7.23172 21.3461 6.40492C25.1695 9.20745 26.9138 13.4091 25.4506 17.6473C25.0512 18.7846 24.4669 19.8482 23.7212 20.7953L22.4639 18.9455C22.3919 18.8385 22.3559 18.7112 22.3613 18.5822C22.3667 18.4533 22.4132 18.3294 22.494 18.2288C23.0944 17.4923 23.5626 16.6574 23.8779 15.761C25.4849 11.0958 21.1422 6.26329 16.555 5.47574C15.6754 5.32553 14.0726 5.15815 13.2444 5.37059C13.1957 5.3838 13.1512 5.40933 13.1152 5.44474C13.0792 5.48015 13.0529 5.52424 13.0389 5.57276C13.0249 5.62128 13.0236 5.67259 13.0352 5.72175C13.0467 5.77091 13.0708 5.81626 13.105 5.85342Z" fill="url(#paint1_linear)"/>
    <defs>
        <linearGradient id="paint0_linear" x1="9.11327" y1="24.7081" x2="17.1496" y2="10.7878" gradientUnits="userSpaceOnUse">
            <stop stop-color="#174E5B"/>
            <stop offset="0.07" stop-color="#195A6C"/>
            <stop offset="0.21" stop-color="#1E779A"/>
            <stop offset="0.4" stop-color="#27A7E3"/>
            <stop offset="0.47" stop-color="#2ABAFF"/>
            <stop offset="0.7" stop-color="#1DDAF0"/>
            <stop offset="1" stop-color="#0EFFE0"/>
        </linearGradient>
        <linearGradient id="paint1_linear" x1="22.8866" y1="7.29546" x2="14.8496" y2="21.2148" gradientUnits="userSpaceOnUse">
            <stop stop-color="#174E5B"/>
            <stop offset="0.07" stop-color="#195A6C"/>
            <stop offset="0.21" stop-color="#1E779A"/>
            <stop offset="0.4" stop-color="#27A7E3"/>
            <stop offset="0.47" stop-color="#2ABAFF"/>
            <stop offset="0.7" stop-color="#1DDAF0"/>
            <stop offset="1" stop-color="#0EFFE0"/>
        </linearGradient>
    </defs>
</svg>
