<svg width="32" height="32" viewBox="0 0 32 32" fill="none" xmlns="http://www.w3.org/2000/svg">
    <path d="M15.856 0.000976562L2 8.00054V23.9997L15.856 31.9992L29.712 23.9997V8.00054L15.856 0.000976562Z" fill="black"/>
    <path d="M16.1393 25.9149L5.50403 19.849L5.54714 16.8992L16.1331 22.9589L21.2383 20.0153L17.8143 18.0385L16.5334 18.7775L14.1317 17.398L15.4188 16.6529L13.7376 15.6799L12.7215 16.2711L10.3136 14.8916L11.3359 14.3004L5.91047 11.1659L16.1331 5.26627L25.7769 10.7656L23.1904 12.2682L16.1331 8.22222L11.028 11.1659L13.8854 12.8163L15.3449 11.9664L17.7527 13.3459L16.2809 14.1957L17.9621 15.1687L19.1568 14.4728L21.5647 15.8523L20.3577 16.5543L26.3435 20.0091L16.1393 25.9149Z" fill="white"/>
</svg>
