<svg width="32" height="32" viewBox="0 0 32 32" fill="none" xmlns="http://www.w3.org/2000/svg">
    <circle cx="16" cy="16" r="16" fill="#131F37"/>
    <path d="M21.1786 8.39832C21.8425 8.39832 22.3808 7.86143 22.3808 7.19915C22.3808 6.53688 21.8425 6 21.1786 6C20.5146 6 19.9763 6.53688 19.9763 7.19915C19.9763 7.86143 20.5146 8.39832 21.1786 8.39832Z" fill="#F6F8FC"/>
    <path d="M22.53 25.3368C23.1939 25.3368 23.7323 24.7997 23.7323 24.1376C23.7323 23.4752 23.1939 22.9383 22.53 22.9383C21.866 22.9383 21.3278 23.4752 21.3278 24.1376C21.3278 24.7997 21.866 25.3368 22.53 25.3368Z" fill="#F6F8FC"/>
    <path d="M21.5217 11.396C22.079 11.396 22.5308 10.9454 22.5308 10.3896C22.5308 9.83372 22.079 9.38312 21.5217 9.38312C20.9644 9.38312 20.5127 9.83372 20.5127 10.3896C20.5127 10.9454 20.9644 11.396 21.5217 11.396Z" fill="#F6F8FC"/>
    <path d="M24.205 11.7813C24.7624 11.7813 25.214 11.3307 25.214 10.7748C25.214 10.219 24.7624 9.7684 24.205 9.7684C23.6477 9.7684 23.196 10.219 23.196 10.7748C23.196 11.3307 23.6477 11.7813 24.205 11.7813Z" fill="#F6F8FC"/>
    <path d="M21.1778 13.9446C21.6521 13.9446 22.0366 13.5612 22.0366 13.0881C22.0366 12.615 21.6521 12.2316 21.1778 12.2316C20.7036 12.2316 20.3191 12.615 20.3191 13.0881C20.3191 13.5612 20.7036 13.9446 21.1778 13.9446Z" fill="#F6F8FC"/>
    <path d="M23.8613 14.3087C24.3355 14.3087 24.72 13.9252 24.72 13.4521C24.72 12.9791 24.3355 12.5956 23.8613 12.5956C23.3869 12.5956 23.0024 12.9791 23.0024 13.4521C23.0024 13.9252 23.3869 14.3087 23.8613 14.3087Z" fill="#F6F8FC"/>
    <path d="M26.0083 15.1435C26.4825 15.1435 26.867 14.76 26.867 14.287C26.867 13.8139 26.4825 13.4304 26.0083 13.4304C25.5339 13.4304 25.1494 13.8139 25.1494 14.287C25.1494 14.76 25.5339 15.1435 26.0083 15.1435Z" fill="#F6F8FC"/>
    <path d="M23.0682 16.3642C23.4832 16.3642 23.8196 16.0286 23.8196 15.6147C23.8196 15.2008 23.4832 14.8652 23.0682 14.8652C22.6532 14.8652 22.3168 15.2008 22.3168 15.6147C22.3168 16.0286 22.6532 16.3642 23.0682 16.3642Z" fill="#F6F8FC"/>
    <path d="M20.3849 16.0001C20.7999 16.0001 21.1363 15.6646 21.1363 15.2507C21.1363 14.8367 20.7999 14.5012 20.3849 14.5012C19.97 14.5012 19.6335 14.8367 19.6335 15.2507C19.6335 15.6646 19.97 16.0001 20.3849 16.0001Z" fill="#F6F8FC"/>
    <path d="M25.2368 17.1988C25.6517 17.1988 25.9882 16.8633 25.9882 16.4494C25.9882 16.0354 25.6517 15.6999 25.2368 15.6999C24.8217 15.6999 24.4854 16.0354 24.4854 16.4494C24.4854 16.8633 24.8217 17.1988 25.2368 17.1988Z" fill="#F6F8FC"/>
    <path d="M21.9948 17.9269C22.3505 17.9269 22.6388 17.6393 22.6388 17.2845C22.6388 16.9297 22.3505 16.6421 21.9948 16.6421C21.6391 16.6421 21.3507 16.9297 21.3507 17.2845C21.3507 17.6393 21.6391 17.9269 21.9948 17.9269Z" fill="#F6F8FC"/>
    <path d="M24.1634 18.741C24.5192 18.741 24.8074 18.4534 24.8074 18.0986C24.8074 17.7438 24.5192 17.4562 24.1634 17.4562C23.8077 17.4562 23.5193 17.7438 23.5193 18.0986C23.5193 18.4534 23.8077 18.741 24.1634 18.741Z" fill="#F6F8FC"/>
    <path d="M19.3328 17.5415C19.6885 17.5415 19.9769 17.2538 19.9769 16.899C19.9769 16.5443 19.6885 16.2567 19.3328 16.2567C18.9771 16.2567 18.6887 16.5443 18.6887 16.899C18.6887 17.2538 18.9771 17.5415 19.3328 17.5415Z" fill="#F6F8FC"/>
    <path d="M20.813 18.9762C21.1094 18.9762 21.3497 18.7366 21.3497 18.4409C21.3497 18.1452 21.1094 17.9055 20.813 17.9055C20.5165 17.9055 20.2762 18.1452 20.2762 18.4409C20.2762 18.7366 20.5165 18.9762 20.813 18.9762Z" fill="#F6F8FC"/>
    <path d="M21.7362 20.4541C21.9971 20.4541 22.2085 20.2432 22.2085 19.983C22.2085 19.7228 21.9971 19.5119 21.7362 19.5119C21.4754 19.5119 21.2639 19.7228 21.2639 19.983C21.2639 20.2432 21.4754 20.4541 21.7362 20.4541Z" fill="#F6F8FC"/>
    <path d="M20.5988 20.7542C20.8123 20.7542 20.9853 20.5816 20.9853 20.3687C20.9853 20.1559 20.8123 19.9833 20.5988 19.9833C20.3854 19.9833 20.2124 20.1559 20.2124 20.3687C20.2124 20.5816 20.3854 20.7542 20.5988 20.7542Z" fill="#F6F8FC"/>
    <path d="M19.5889 19.6406C19.8497 19.6406 20.0612 19.4297 20.0612 19.1695C20.0612 18.9093 19.8497 18.6984 19.5889 18.6984C19.3281 18.6984 19.1166 18.9093 19.1166 19.1695C19.1166 19.4297 19.3281 19.6406 19.5889 19.6406Z" fill="#F6F8FC"/>
    <path d="M18.1296 18.613C18.426 18.613 18.6663 18.3733 18.6663 18.0777C18.6663 17.782 18.426 17.5423 18.1296 17.5423C17.8332 17.5423 17.5929 17.782 17.5929 18.0777C17.5929 18.3733 17.8332 18.613 18.1296 18.613Z" fill="#F6F8FC"/>
    <path d="M18.1084 14.5863C18.4048 14.5863 18.6451 14.3466 18.6451 14.051C18.6451 13.7553 18.4048 13.5156 18.1084 13.5156C17.812 13.5156 17.5717 13.7553 17.5717 14.051C17.5717 14.3466 17.812 14.5863 18.1084 14.5863Z" fill="#F6F8FC"/>
    <path d="M18.3443 12.7022C18.6051 12.7022 18.8166 12.4913 18.8166 12.2311C18.8166 11.9709 18.6051 11.76 18.3443 11.76C18.0834 11.76 17.8719 11.9709 17.8719 12.2311C17.8719 12.4913 18.0834 12.7022 18.3443 12.7022Z" fill="#F6F8FC"/>
    <path d="M18.8603 11.1608C19.0737 11.1608 19.2468 10.9883 19.2468 10.7754C19.2468 10.5625 19.0737 10.39 18.8603 10.39C18.6469 10.39 18.4739 10.5625 18.4739 10.7754C18.4739 10.9883 18.6469 11.1608 18.8603 11.1608Z" fill="#F6F8FC"/>
    <path d="M17.9589 10.4327C18.2197 10.4327 18.4312 10.2218 18.4312 9.96164C18.4312 9.70146 18.2197 9.49054 17.9589 9.49054C17.698 9.49054 17.4866 9.70146 17.4866 9.96164C17.4866 10.2218 17.698 10.4327 17.9589 10.4327Z" fill="#F6F8FC"/>
    <path d="M22.9604 19.7905C23.2568 19.7905 23.4971 19.5508 23.4971 19.2552C23.4971 18.9595 23.2568 18.7198 22.9604 18.7198C22.6639 18.7198 22.4236 18.9595 22.4236 19.2552C22.4236 19.5508 22.6639 19.7905 22.9604 19.7905Z" fill="#F6F8FC"/>
    <path d="M16.734 9.81174C17.0304 9.81174 17.2707 9.57206 17.2707 9.27641C17.2707 8.98074 17.0304 8.74106 16.734 8.74106C16.4376 8.74106 16.1973 8.98074 16.1973 9.27641C16.1973 9.57206 16.4376 9.81174 16.734 9.81174Z" fill="#F6F8FC"/>
    <path d="M17.0997 12.0814C17.3961 12.0814 17.6364 11.8417 17.6364 11.546C17.6364 11.2504 17.3961 11.0107 17.0997 11.0107C16.8033 11.0107 16.563 11.2504 16.563 11.546C16.563 11.8417 16.8033 12.0814 17.0997 12.0814Z" fill="#F6F8FC"/>
    <path d="M16.4986 14.2445C16.8543 14.2445 17.1426 13.9569 17.1426 13.6021C17.1426 13.2473 16.8543 12.9597 16.4986 12.9597C16.1429 12.9597 15.8545 13.2473 15.8545 13.6021C15.8545 13.9569 16.1429 14.2445 16.4986 14.2445Z" fill="#F6F8FC"/>
    <path d="M14.544 14.2438C14.959 14.2438 15.2954 13.9083 15.2954 13.4944C15.2954 13.0804 14.959 12.7449 14.544 12.7449C14.129 12.7449 13.7926 13.0804 13.7926 13.4944C13.7926 13.9083 14.129 14.2438 14.544 14.2438Z" fill="#F6F8FC"/>
    <path d="M12.2682 14.7581C12.7424 14.7581 13.1269 14.3746 13.1269 13.9015C13.1269 13.4285 12.7424 13.045 12.2682 13.045C11.7939 13.045 11.4094 13.4285 11.4094 13.9015C11.4094 14.3746 11.7939 14.7581 12.2682 14.7581Z" fill="#F6F8FC"/>
    <path d="M9.77943 15.9785C10.3367 15.9785 10.7885 15.5279 10.7885 14.9721C10.7885 14.4163 10.3367 13.9657 9.77943 13.9657C9.22214 13.9657 8.77039 14.4163 8.77039 14.9721C8.77039 15.5279 9.22214 15.9785 9.77943 15.9785Z" fill="#F6F8FC"/>
    <path d="M7.20225 18.0344C7.86625 18.0344 8.4045 17.4975 8.4045 16.8352C8.4045 16.173 7.86625 15.6361 7.20225 15.6361C6.53827 15.6361 6 16.173 6 16.8352C6 17.4975 6.53827 18.0344 7.20225 18.0344Z" fill="#F6F8FC"/>
    <path d="M8.76879 13.4738C9.32606 13.4738 9.77783 13.0232 9.77783 12.4673C9.77783 11.9115 9.32606 11.4609 8.76879 11.4609C8.21152 11.4609 7.75977 11.9115 7.75977 12.4673C7.75977 13.0232 8.21152 13.4738 8.76879 13.4738Z" fill="#F6F8FC"/>
    <path d="M11.2594 12.2524C11.7337 12.2524 12.1181 11.8689 12.1181 11.3958C12.1181 10.9228 11.7337 10.5393 11.2594 10.5393C10.7851 10.5393 10.4006 10.9228 10.4006 11.3958C10.4006 11.8689 10.7851 12.2524 11.2594 12.2524Z" fill="#F6F8FC"/>
    <path d="M10.8952 9.98254C11.3695 9.98254 11.754 9.59906 11.754 9.12601C11.754 8.65295 11.3695 8.26947 10.8952 8.26947C10.421 8.26947 10.0365 8.65295 10.0365 9.12601C10.0365 9.59906 10.421 9.98254 10.8952 9.98254Z" fill="#F6F8FC"/>
    <path d="M13.1712 9.46928C13.5862 9.46928 13.9226 9.13374 13.9226 8.71982C13.9226 8.30589 13.5862 7.97034 13.1712 7.97034C12.7562 7.97034 12.4198 8.30589 12.4198 8.71982C12.4198 9.13374 12.7562 9.46928 13.1712 9.46928Z" fill="#F6F8FC"/>
    <path d="M15.124 9.46929C15.4797 9.46929 15.7681 9.18167 15.7681 8.82689C15.7681 8.4721 15.4797 8.18448 15.124 8.18448C14.7683 8.18448 14.48 8.4721 14.48 8.82689C14.48 9.18167 14.7683 9.46929 15.124 9.46929Z" fill="#F6F8FC"/>
    <path d="M15.4899 11.7387C15.8456 11.7387 16.134 11.4511 16.134 11.0963C16.134 10.7415 15.8456 10.4539 15.4899 10.4539C15.1342 10.4539 14.8458 10.7415 14.8458 11.0963C14.8458 11.4511 15.1342 11.7387 15.4899 11.7387Z" fill="#F6F8FC"/>
    <path d="M13.5354 11.7601C13.9503 11.7601 14.2868 11.4246 14.2868 11.0107C14.2868 10.5968 13.9503 10.2612 13.5354 10.2612C13.1204 10.2612 12.7839 10.5968 12.7839 11.0107C12.7839 11.4246 13.1204 11.7601 13.5354 11.7601Z" fill="#F6F8FC"/>
    <path d="M11.4105 17.4564C11.6239 17.4564 11.7969 17.2838 11.7969 17.0709C11.7969 16.858 11.6239 16.6855 11.4105 16.6855C11.1971 16.6855 11.024 16.858 11.024 17.0709C11.024 17.2838 11.1971 17.4564 11.4105 17.4564Z" fill="#F6F8FC"/>
    <path d="M12.9561 17.2638C13.2169 17.2638 13.4284 17.0529 13.4284 16.7927C13.4284 16.5325 13.2169 16.3216 12.9561 16.3216C12.6952 16.3216 12.4838 16.5325 12.4838 16.7927C12.4838 17.0529 12.6952 17.2638 12.9561 17.2638Z" fill="#F6F8FC"/>
    <path d="M14.6526 16.6214C14.949 16.6214 15.1893 16.3818 15.1893 16.0861C15.1893 15.7904 14.949 15.5508 14.6526 15.5508C14.3561 15.5508 14.1158 15.7904 14.1158 16.0861C14.1158 16.3818 14.3561 16.6214 14.6526 16.6214Z" fill="#F6F8FC"/>
    <path d="M15.0598 18.3343C15.4155 18.3343 15.7039 18.0467 15.7039 17.6919C15.7039 17.3371 15.4155 17.0495 15.0598 17.0495C14.7041 17.0495 14.4158 17.3371 14.4158 17.6919C14.4158 18.0467 14.7041 18.3343 15.0598 18.3343Z" fill="#F6F8FC"/>
    <path d="M12.9992 18.7409C13.2957 18.7409 13.536 18.5012 13.536 18.2056C13.536 17.9099 13.2957 17.6702 12.9992 17.6702C12.7028 17.6702 12.4625 17.9099 12.4625 18.2056C12.4625 18.5012 12.7028 18.7409 12.9992 18.7409Z" fill="#F6F8FC"/>
    <path d="M11.1731 18.72C11.434 18.72 11.6454 18.509 11.6454 18.2489C11.6454 17.9887 11.434 17.7778 11.1731 17.7778C10.9123 17.7778 10.7008 17.9887 10.7008 18.2489C10.7008 18.509 10.9123 18.72 11.1731 18.72Z" fill="#F6F8FC"/>
    <path d="M11.1949 20.1973C11.4913 20.1973 11.7316 19.9576 11.7316 19.6619C11.7316 19.3663 11.4913 19.1266 11.1949 19.1266C10.8985 19.1266 10.6582 19.3663 10.6582 19.6619C10.6582 19.9576 10.8985 20.1973 11.1949 20.1973Z" fill="#F6F8FC"/>
    <path d="M13.3855 20.4752C13.7412 20.4752 14.0296 20.1876 14.0296 19.8328C14.0296 19.478 13.7412 19.1904 13.3855 19.1904C13.0298 19.1904 12.7415 19.478 12.7415 19.8328C12.7415 20.1876 13.0298 20.4752 13.3855 20.4752Z" fill="#F6F8FC"/>
    <path d="M15.94 20.1974C16.355 20.1974 16.6914 19.8618 16.6914 19.4479C16.6914 19.034 16.355 18.6984 15.94 18.6984C15.525 18.6984 15.1886 19.034 15.1886 19.4479C15.1886 19.8618 15.525 20.1974 15.94 20.1974Z" fill="#F6F8FC"/>
    <path d="M17.4431 22.0596C17.9174 22.0596 18.3019 21.6761 18.3019 21.203C18.3019 20.73 17.9174 20.3465 17.4431 20.3465C16.9688 20.3465 16.5844 20.73 16.5844 21.203C16.5844 21.6761 16.9688 22.0596 17.4431 22.0596Z" fill="#F6F8FC"/>
    <path d="M14.2866 22.3171C14.7016 22.3171 15.038 21.9815 15.038 21.5676C15.038 21.1537 14.7016 20.8181 14.2866 20.8181C13.8716 20.8181 13.5352 21.1537 13.5352 21.5676C13.5352 21.9815 13.8716 22.3171 14.2866 22.3171Z" fill="#F6F8FC"/>
    <path d="M12.5052 23.7733C12.9202 23.7733 13.2566 23.4376 13.2566 23.0237C13.2566 22.6098 12.9202 22.2743 12.5052 22.2743C12.0902 22.2743 11.7538 22.6098 11.7538 23.0237C11.7538 23.4376 12.0902 23.7733 12.5052 23.7733Z" fill="#F6F8FC"/>
    <path d="M13.9855 25.6574C14.4597 25.6574 14.8442 25.274 14.8442 24.8009C14.8442 24.3279 14.4597 23.9444 13.9855 23.9444C13.5112 23.9444 13.1267 24.3279 13.1267 24.8009C13.1267 25.274 13.5112 25.6574 13.9855 25.6574Z" fill="#F6F8FC"/>
    <path d="M17.9361 26C18.4934 26 18.9452 25.5495 18.9452 24.9936C18.9452 24.4377 18.4934 23.9872 17.9361 23.9872C17.3789 23.9872 16.9271 24.4377 16.9271 24.9936C16.9271 25.5495 17.3789 26 17.9361 26Z" fill="#F6F8FC"/>
    <path d="M15.7684 24.2012C16.2427 24.2012 16.6272 23.8178 16.6272 23.3447C16.6272 22.8717 16.2427 22.4882 15.7684 22.4882C15.2941 22.4882 14.9097 22.8717 14.9097 23.3447C14.9097 23.8178 15.2941 24.2012 15.7684 24.2012Z" fill="#F6F8FC"/>
    <path d="M19.5893 23.8592C20.1466 23.8592 20.5984 23.4085 20.5984 22.8526C20.5984 22.2969 20.1466 21.8463 19.5893 21.8463C19.0321 21.8463 18.5803 22.2969 18.5803 22.8526C18.5803 23.4085 19.0321 23.8592 19.5893 23.8592Z" fill="#F6F8FC"/>
    <path d="M11.6023 21.9314C11.958 21.9314 12.2464 21.6438 12.2464 21.289C12.2464 20.9342 11.958 20.6466 11.6023 20.6466C11.2466 20.6466 10.9583 20.9342 10.9583 21.289C10.9583 21.6438 11.2466 21.9314 11.6023 21.9314Z" fill="#F6F8FC"/>
</svg>
