<svg width="32" height="32" viewBox="0 0 32 32" fill="none" xmlns="http://www.w3.org/2000/svg">
    <path d="M16 0C7.16343 0 0 7.16343 0 16C0 24.8366 7.16343 32 16 32C24.8366 32 32 24.8366 32 16C32 7.16343 24.8366 0 16 0Z" fill="black"/>
    <path d="M17 11.1215L13 8.89135L17 6.66113V11.1215Z" fill="#008D71"/>
    <path d="M12.5176 12.9428L8.51758 10.7126L12.5176 8.48242V12.9428Z" fill="#00503E"/>
    <path d="M11.8828 17.142L7.88281 14.9118L11.8828 12.6816V17.142Z" fill="#00C59D"/>
    <path d="M9 21.1088L5 18.8786L9 16.6484V21.1088Z" fill="#004334"/>
    <path d="M16.2012 24.2084L12.2012 21.9782L16.2012 19.748V24.2084Z" fill="#002320"/>
    <path d="M25 20.0424L21 17.8122L25 15.582V20.0424Z" fill="#00B0AA"/>
    <path d="M25 15.5814L21 13.3513L25 11.1211V15.5814Z" fill="#00D8CC"/>
    <path d="M21 13.3519L17 11.1218L21 8.8916V13.3519Z" fill="#00DABF"/>
    <path d="M17 20.0424L13 17.8122L17 15.582V20.0424Z" fill="#004F46"/>
    <path d="M16.5176 15.2905L12.5176 13.0603L16.5176 10.8301V15.2905Z" fill="#004E44"/>
    <path d="M7 10.9346L11 13.1648L7 15.395V10.9346Z" fill="#00241B"/>
    <path d="M9 15.5312L13 17.7615L9 19.9917V15.5312Z" fill="#001511"/>
    <path d="M12.5176 10.2852L16.5176 12.5153L12.5176 14.7455V10.2852Z" fill="#00CAA7"/>
    <path d="M11.6504 18.8789L15.6504 21.1091L11.6504 23.3393V18.8789Z" fill="#00B29A"/>
    <path d="M17.084 20.8789L21.0841 23.109L17.084 25.3392V20.8789Z" fill="#006A66"/>
    <path d="M21 17.8115L25 20.0418L21 22.2719V17.8115Z" fill="#00D7D4"/>
    <path d="M21 13.3516L25 15.5817L21 17.8119V13.3516Z" fill="#008B83"/>
    <path d="M21 8.8916L25 11.1218L21 13.3519V8.8916Z" fill="#00B2A0"/>
    <path d="M17 11.1211L21 13.3513L17 15.5814V11.1211Z" fill="#008C7A"/>
    <path d="M17 6.66113L21 8.89135L17 11.1215V6.66113Z" fill="#00DABA"/>
    <path d="M17 15.582L21 17.8123L17 20.0424V15.582Z" fill="#008B7F"/>
    <path d="M21 17.8119L17 15.5817L21 13.3516V17.8119Z" fill="#00C4B2"/>
    <path d="M21 22.2719L17 20.0418L21 17.8115V22.2719Z" fill="#006B66"/>
    <path d="M11.8828 12.6816L15.8828 14.9118L11.8828 17.142V12.6816Z" fill="#00241B"/>
</svg>
