<svg width="32" height="32" viewBox="0 0 32 32" fill="none" xmlns="http://www.w3.org/2000/svg">
    <path d="M16 32C24.8366 32 32 24.8366 32 16C32 7.16344 24.8366 0 16 0C7.16344 0 0 7.16344 0 16C0 24.8366 7.16344 32 16 32Z" fill="white"/>
    <path d="M22.366 4.85723C23.5588 5.48376 24.6216 6.33132 25.4978 7.35478C27.1322 9.24604 28.2155 11.5499 28.6297 14.0149C29.0785 16.3507 28.8161 18.7675 27.8765 20.9526C26.5844 23.9268 24.2614 26.3342 21.3352 27.7316C20.021 28.3358 18.6133 28.7112 17.1727 28.8416C17.133 28.8416 17.0537 28.802 17.0537 28.7623C17.0543 28.7317 17.0617 28.7015 17.0754 28.6741C17.0892 28.6467 17.1088 28.6226 17.133 28.6038C18.8939 28.0258 20.3954 26.847 21.3749 25.2737C21.4542 25.1548 21.6524 24.679 21.4542 24.5601C21.3983 24.5277 21.3335 24.514 21.2692 24.5211C21.205 24.5283 21.1448 24.5558 21.0974 24.5998L21.0181 24.679L20.7406 24.9169C20.4926 25.1242 20.2274 25.3099 19.9477 25.4719C16.1816 27.6919 14.3183 25.908 14.1994 25.7891C14.0805 25.6701 12.4154 24.3619 13.4065 20.7147C13.763 19.5928 14.3744 18.5688 15.1929 17.7228C16.0114 16.8768 17.0147 16.2319 18.1241 15.8385L18.1638 15.7989C18.2034 15.7592 18.1638 15.6799 18.1241 15.6403C17.2999 14.9975 16.6452 14.1631 16.2168 13.2096C15.7885 12.2562 15.5995 11.2126 15.6662 10.1694C15.7058 5.80865 18.5205 5.37257 18.5205 5.37257C18.5205 5.37257 20.5027 4.8572 20.8992 7.27547C21.0335 7.98936 20.9956 8.72497 20.7888 9.42131C20.5819 10.1176 20.2121 10.7546 19.7099 11.2795C19.7006 11.2864 19.6931 11.2954 19.688 11.3057C19.6828 11.316 19.6801 11.3274 19.6801 11.3389C19.6801 11.3505 19.6828 11.3619 19.688 11.3722C19.6931 11.3825 19.7006 11.3915 19.7099 11.3984C19.8237 11.6555 20.0059 11.8764 20.2365 12.0371C20.4672 12.1979 20.7375 12.2923 21.0181 12.3102C21.3119 12.2962 21.599 12.2179 21.8593 12.0809C22.1196 11.9439 22.3467 11.7516 22.5246 11.5173C23.2509 10.4645 23.5486 9.1744 23.3571 7.90975C23.2372 6.86022 22.8404 5.86143 22.2074 5.01575V4.89688C22.2471 4.85723 22.3263 4.81759 22.366 4.85723Z" fill="#094B89"/>
    <path d="M15.6179 3.23737C15.6179 3.31637 15.6179 3.35589 15.5389 3.39537C14.6032 3.79676 13.7795 4.42035 13.1392 5.21207C12.499 6.00378 12.0615 6.93972 11.8647 7.93873C10.9166 10.9413 12.4969 13.9044 12.8524 14.5365C12.8524 14.6155 12.8524 14.655 12.7734 14.6945C11.7453 15.1242 10.8216 15.7699 10.065 16.5879C9.30831 17.4059 8.73642 18.377 8.38806 19.4355C7.87947 20.6006 7.68833 21.8795 7.83405 23.1424C7.97977 24.4053 8.45716 25.6072 9.21772 26.6258C9.22692 26.6327 9.23438 26.6417 9.23953 26.652C9.24467 26.6623 9.24735 26.6736 9.24735 26.6851C9.24735 26.6966 9.24467 26.7079 9.23953 26.7182C9.23438 26.7285 9.22692 26.7375 9.21772 26.7444C9.17822 26.7839 9.0992 26.8234 9.05972 26.7839C6.25228 24.9064 4.25058 22.0449 3.44964 18.7639C3.29939 18.0881 3.20687 17.4009 3.17306 16.7094C3.01575 13.2792 4.22493 9.9265 6.53553 7.38632C8.84613 4.84614 12.0696 3.32572 15.4994 3.15835C15.5389 3.15835 15.6179 3.19786 15.6179 3.23737Z" fill="#388CE0"/>
</svg>
