<svg width="32" height="32" viewBox="0 0 32 32" fill="none" xmlns="http://www.w3.org/2000/svg">
    <path d="M31.9343 17.3027C31.9691 16.8719 32 16.4398 32 16C32 15.5602 31.9691 15.1281 31.9343 14.6973L30.9276 14.567C30.8942 14.2143 30.8362 13.8696 30.7788 13.5246L30.7789 13.5251L31.7296 13.1337C31.5732 12.2779 31.3467 11.4364 31.0522 10.6178L30.038 10.7536L30.0382 10.754C29.9149 10.4244 29.7836 10.0997 29.6383 9.7816L30.4489 9.16239C30.0795 8.37501 29.6463 7.61912 29.1538 6.90226L28.2029 7.29863C27.9948 7.00743 27.7866 6.71623 27.5588 6.44096L27.5712 6.45463L28.1905 5.65104C27.6275 4.98838 27.0116 4.37248 26.3489 3.80943L25.5453 4.42881L25.559 4.4412C25.2837 4.2133 24.9924 4.00498 24.701 3.79686L24.7013 3.79704L25.0976 2.84617C24.3808 2.35365 23.6249 1.92051 22.8376 1.55107L22.2183 2.36167C21.9002 2.21635 21.5755 2.08512 21.2459 1.96183L21.2464 1.96196L21.3822 0.94781C20.5636 0.653334 19.7221 0.426761 18.8663 0.27039L18.4749 1.22107L18.4754 1.22119C18.1304 1.16376 17.7856 1.10583 17.433 1.07239L17.3027 0.06573C16.8719 0.03094 16.4398 0 16 0C15.5602 0 15.1281 0.03094 14.6973 0.06573L14.567 1.07239C14.2143 1.10583 13.8696 1.16376 13.5246 1.22119L13.5251 1.22107L13.1337 0.27039C12.2779 0.426761 11.4364 0.653334 10.6178 0.94781L10.7536 1.962L10.754 1.96187C10.4244 2.08516 10.0997 2.21639 9.78162 2.36171L9.16241 1.55111C8.37505 1.92055 7.61918 2.35369 6.90234 2.84621L7.29865 3.79708L7.29895 3.7969C7.00763 4.00502 6.71631 4.21334 6.44095 4.44124L6.45462 4.42885L5.65103 3.80947C4.98838 4.37252 4.3725 4.9884 3.80945 5.65106L4.42883 6.45465L4.44122 6.441C4.21338 6.71627 4.00522 7.00747 3.79712 7.29867L2.84619 6.9023C2.35367 7.61916 1.92053 8.37505 1.55109 9.16243L2.36169 9.78164C2.21637 10.0998 2.08514 10.4245 1.96185 10.7541L1.962 10.7536L0.94781 10.6178C0.653334 11.4364 0.426761 12.2779 0.27039 13.1337L1.22107 13.5251L1.22119 13.5246C1.16376 13.8696 1.10583 14.2144 1.07239 14.567L0.06573 14.6973C0.03094 15.1281 0 15.5602 0 16C0 16.4398 0.03094 16.8719 0.06573 17.3027L1.07239 17.433C1.10583 17.7856 1.16376 18.1304 1.22119 18.4755L1.22107 18.4749L0.27039 18.8663C0.426769 19.7221 0.653341 20.5635 0.94781 21.3821L1.96198 21.2463L1.96191 21.2462C2.08521 21.5759 2.21655 21.9008 2.36191 22.219L2.3616 22.2183L1.551 22.8375C1.92048 23.6249 2.35364 24.3808 2.84616 25.0977L3.79703 24.7013L3.79685 24.701C4.0051 24.9925 4.21353 25.284 4.44156 25.5594L4.4288 25.5454L3.80942 26.349C4.37251 27.0117 4.98842 27.6276 5.65109 28.1907L6.45468 27.5712C6.44412 27.5625 6.43485 27.5523 6.42435 27.5436C6.70511 27.7768 7.00156 27.9908 7.29904 28.2033L7.29862 28.203L6.90231 29.1539C7.61914 29.6464 8.37502 30.0795 9.16238 30.4489L9.78159 29.6383C10.0997 29.7837 10.4244 29.915 10.754 30.0382L10.7536 30.038L10.6178 31.0522C11.4364 31.3466 12.2779 31.5732 13.1337 31.7296L13.5251 30.7789L13.5246 30.7788C13.8696 30.8362 14.2144 30.8941 14.567 30.9276L14.6973 31.9342C15.1281 31.9691 15.5602 32 16 32C16.4398 32 16.8719 31.9691 17.3027 31.9343L17.433 30.9276C17.7856 30.8942 18.1304 30.8362 18.4754 30.7788L18.4749 30.7789L18.8663 31.7296C19.7221 31.5732 20.5636 31.3467 21.3822 31.0522L21.2464 30.038L21.246 30.0381C21.5756 29.9149 21.9003 29.7836 22.2184 29.6383L22.8376 30.4489C23.625 30.0795 24.3808 29.6463 25.0977 29.1538L24.7013 28.2029L24.7009 28.2032C24.9984 27.9907 25.2949 27.7768 25.5756 27.5436C25.5651 27.5523 25.5558 27.5624 25.5453 27.5711L26.3489 28.1906C27.0116 27.6275 27.6275 27.0116 28.1905 26.3489L27.5712 25.5453L27.5584 25.5593C27.7864 25.2839 27.9949 24.9925 28.2031 24.701L28.2029 24.7013L29.1538 25.0976C29.6463 24.3808 30.0795 23.6249 30.449 22.8375L29.6384 22.2183L29.6381 22.219C29.7835 21.9008 29.9148 21.5759 30.0381 21.2462L30.038 21.2463L31.0522 21.3821C31.3467 20.5635 31.5732 19.7221 31.7296 18.8663L30.7789 18.4749L30.7788 18.4755C30.8362 18.1304 30.8942 17.7856 30.9276 17.433L31.9343 17.3027ZM30.4739 12.1163L30.4725 12.1106L30.4739 12.1163ZM19.8894 1.52753L19.8837 1.52606L19.8894 1.52753ZM12.1163 1.52606L12.1106 1.52753L12.1163 1.52606ZM1.52753 12.1106L1.52606 12.1163L1.52753 12.1106ZM1.52606 19.8837L1.52747 19.8892L1.52606 19.8837ZM3.0213 23.497L3.0224 23.4988L3.0213 23.497ZM12.1106 30.4725L12.1163 30.4739L12.1106 30.4725ZM19.8837 30.4739L19.8894 30.4725L19.8837 30.4739ZM28.9776 23.4988L28.9787 23.497L28.9776 23.4988ZM30.4725 19.8892L30.4739 19.8837L30.4725 19.8892Z" fill="#F6931E"/>
    <path d="M16 29.5C23.4558 29.5 29.5 23.4558 29.5 16C29.5 8.54416 23.4558 2.5 16 2.5C8.54416 2.5 2.5 8.54416 2.5 16C2.5 23.4558 8.54416 29.5 16 29.5Z" fill="white"/>
    <path d="M16 28.5C22.9036 28.5 28.5 22.9036 28.5 16C28.5 9.09644 22.9036 3.5 16 3.5C9.09644 3.5 3.5 9.09644 3.5 16C3.5 22.9036 9.09644 28.5 16 28.5Z" fill="#F6931E"/>
    <path d="M18.0092 10.1845V15.9492L24.1449 13.0305C25.2797 14.1654 20.13 15.803 18.0767 17.4296C17.6527 19.2365 18.3076 21.3013 17.5957 23.2872C16.877 25.292 15.7497 26.5906 13.4936 26.5742C12.6573 26.6359 11.8269 26.3921 11.1567 25.888C10.4864 25.384 10.0218 24.6539 9.84896 23.8332C9.25582 21.6422 10.5997 20.3287 12.1553 19.193C13.1173 18.4907 14.1574 17.8952 15.1903 17.234V13.2937L11.2838 14.9679C10.3269 14.011 15.5311 11.9043 18.0092 10.1845ZM13.7358 24.0992C15.4783 22.9335 15.2038 21.0319 15.2377 18.9789C13.5758 19.9478 12.1812 20.7392 11.806 22.5065C11.7393 22.7748 11.7491 23.0564 11.8343 23.3194C11.9195 23.5825 12.0767 23.8164 12.288 23.9946C12.4834 24.1704 12.7318 24.2762 12.994 24.2951C13.2561 24.3141 13.5172 24.2451 13.7358 24.0992V24.0992ZM15.963 5.40762C15.6086 5.40762 15.2621 5.51272 14.9674 5.70963C14.6727 5.90654 14.443 6.18641 14.3074 6.51385C14.1718 6.8413 14.1363 7.20161 14.2054 7.54923C14.2746 7.89684 14.4452 8.21614 14.6959 8.46676C14.9465 8.71737 15.2658 8.88805 15.6134 8.95719C15.961 9.02634 16.3213 8.99085 16.6488 8.85522C16.9762 8.71958 17.2561 8.4899 17.453 8.1952C17.6499 7.90051 17.755 7.55405 17.755 7.19962C17.755 6.72436 17.5662 6.26855 17.2301 5.93249C16.8941 5.59642 16.4383 5.40762 15.963 5.40762V5.40762Z" fill="#FEFEFD"/>
</svg>
