<svg width="32" height="32" viewBox="0 0 32 32" fill="none" xmlns="http://www.w3.org/2000/svg">
    <path d="M16 32C24.8366 32 32 24.8366 32 16C32 7.16344 24.8366 0 16 0C7.16344 0 0 7.16344 0 16C0 24.8366 7.16344 32 16 32Z" fill="white"/>
    <path d="M1.5016 15.9962C1.46097 12.4952 2.72797 9.10496 5.05474 6.48867C7.41246 3.73056 10.7386 1.98228 14.3474 1.6043C15.5803 1.44955 16.8287 1.46617 18.0571 1.65369C18.3499 1.70019 18.3707 1.80895 18.3065 2.05169C17.7283 4.23605 17.1541 6.42148 16.584 8.60799C15.7667 11.7204 14.9548 14.8342 14.128 17.9441C13.6641 19.6886 13.2748 21.4546 12.6651 23.1582C12.2662 24.3788 11.6754 25.5281 10.9149 26.5629C10.3732 27.3271 9.59347 27.8902 8.69765 28.164C8.56977 28.2077 8.43321 28.2197 8.29964 28.1992C8.16608 28.1786 8.03948 28.126 7.93066 28.0459C6.21769 26.9077 4.76846 25.4157 3.68053 23.6703C2.59261 21.925 1.89124 19.9668 1.62365 17.9276C1.53151 17.2881 1.49069 16.6423 1.5016 15.9962V15.9962ZM12.4049 30.0325C15.0615 30.7188 17.8586 30.6338 20.4686 29.7874C23.0785 28.941 25.3932 27.3684 27.1414 25.2536C28.4386 23.7412 29.3975 21.969 29.954 20.0557C30.5104 18.1425 30.6514 16.1324 30.3676 14.1602C30.1216 12.0754 29.4165 10.071 28.303 8.2913C27.1896 6.51161 25.6955 5.00086 23.9282 3.86776C23.6305 3.66564 23.6106 3.67588 23.5194 4.02398C22.0714 9.54819 20.6243 15.0726 19.1782 20.5974C18.8317 22.1436 18.3773 23.6636 17.8184 25.1464C17.5028 26.0229 17.0092 26.8245 16.3685 27.5008C15.2782 28.5933 13.9206 29.381 12.431 29.7854C12.3314 29.8114 12.2065 29.8006 12.1365 29.9121C12.2037 30.0107 12.3117 30.009 12.4049 30.0325Z" fill="url(#paint0_linear_1060_504)"/>
    <defs>
        <linearGradient id="paint0_linear_1060_504" x1="1.50002" y1="16" x2="30.5" y2="16" gradientUnits="userSpaceOnUse">
            <stop stop-color="#40B4E1"/>
            <stop offset="1" stop-color="#339ECA"/>
        </linearGradient>
    </defs>
</svg>
