<svg width="32" height="32" viewBox="0 0 32 32" fill="none" xmlns="http://www.w3.org/2000/svg">
    <path d="M16 32C24.8366 32 32 24.8366 32 16C32 7.16344 24.8366 0 16 0C7.16344 0 0 7.16344 0 16C0 24.8366 7.16344 32 16 32Z" fill="white"/>
    <path d="M26.0193 19.5647C25.9086 19.7093 24.8223 21.1263 24.5894 21.4255C24.5288 21.3847 24.4682 21.3441 24.4076 21.3037C24.38 21.3403 23.2783 22.8755 23.2783 22.8755L22.9312 22.5742C22.8292 22.6514 21.7103 24.4219 21.5973 24.6154L21.5742 24.6439C21.4361 24.5926 21.299 24.5393 21.1628 24.484C20.848 24.366 20.5359 24.2424 20.2226 24.1212C20.2037 24.1575 20.1854 24.1944 20.1674 24.2313C20.1074 24.3525 20.0489 24.4744 19.99 24.5962C19.9495 24.6781 19.9096 24.7603 19.8715 24.8438C19.5987 24.7871 19.3295 24.7144 19.0577 24.6535C18.949 24.6271 18.8404 24.6015 18.7318 24.5767C18.6742 24.6805 18.6201 24.7865 18.5652 24.8918L18.5259 24.9119L18.5118 24.9101C18.36 24.881 18.2063 24.8627 18.0536 24.8399C17.9108 24.8195 17.7673 24.803 17.6251 24.779C17.2887 24.7246 16.9505 24.6811 16.6135 24.6301C16.5604 24.622 16.5076 24.6127 16.4547 24.6055C16.3964 24.6097 16.3405 24.631 16.2942 24.6667C16.1082 24.7772 15.923 24.8891 15.7336 24.9938C15.6645 24.8959 9.1149 20.9507 8.88092 20.8761C8.8146 20.8512 8.83621 20.7713 8.83111 20.7173C8.83442 20.5928 8.83532 20.4682 8.83472 20.344C8.83472 20.2894 8.83501 20.2348 8.83532 20.1808C8.74168 20.1256 5.5878 18.2989 5.5878 18.2989L5.598 21.7397L5.17 21.9933L5.16645 21.9913L5.16138 23.5654L6.18361 24.1552L6.17675 25.0909L10.6325 27.2337C10.6964 27.1977 12.476 26.152 12.476 26.152L12.9918 26.5074L15.784 28.1267L26.0274 22.209C26.0271 22.1706 26.0196 19.6592 26.0193 19.5647Z" fill="#C95064"/>
    <path d="M8.56392 20.0276L5.1665 21.9913L5.16661 22.0924C6.55917 21.4034 7.84969 20.7727 8.83476 20.3171L8.83535 20.1808L8.56392 20.0276Z" fill="#DB5B54"/>
    <path d="M8.56397 20.0276L5.58789 18.2989L5.59549 20.8621V21.743C6.62491 21.1502 7.61827 20.5763 8.56397 20.0276" fill="#A24741"/>
    <path d="M10.9391 22.111L8.05505 23.477L9.51605 26.077L10.6301 26.719L13.7411 24.906L12.7261 23.185L10.9391 22.111Z" fill="#DB5B54"/>
    <path d="M23.7749 23.564L21.5049 24.665L21.3409 24.377L22.9549 22.213L23.7749 23.564Z" fill="#BB486E"/>
    <path d="M6.39101 24.275L5.16101 23.565L5.16701 22.092L6.79501 21.294L8.05501 23.477L6.39101 24.275Z" fill="#BB486E"/>
    <path d="M14.068 25.468L16.328 24.415L17.548 26.562L15.295 27.634L14.068 25.468Z" fill="#BB486E"/>
    <path d="M21.8923 22.4049L21.5792 22.5825L22.9394 24.9798L23.2525 24.8022L21.8923 22.4049Z" fill="#B24A5B"/>
    <path d="M6.39152 24.2748C6.68558 24.134 6.98031 23.9927 7.27569 23.8509C8.55954 23.2349 9.88712 22.5979 11.2319 21.9757L11.087 21.6626C9.74002 22.2858 8.41135 22.9234 7.12642 23.5399C6.75952 23.716 6.39377 23.8913 6.02917 24.0659L6.39152 24.2748Z" fill="#AF3B55"/>
    <path opacity="0.15" d="M16.7265 24.2291L12.7107 26.1015L12.8501 26.4006L16.866 24.5282L16.7265 24.2291Z" fill="black"/>
    <path opacity="0.15" d="M14.3646 23.9128L9.27637 26.2851L9.42215 26.5978L14.5103 24.2255L14.3646 23.9128Z" fill="white"/>
    <path opacity="0.2" d="M5.58801 18.299L5.74101 18.388L5.58801 18.461V18.299Z" fill="white"/>
    <path d="M11.4041 26.2676C10.1185 23.8749 8.22549 20.664 6.56922 18.0677L6.29102 18.2452C7.94023 20.8387 9.82618 24.0467 11.1187 26.4339L11.4041 26.2676Z" fill="#AA3C42"/>
    <path d="M26.0236 20.9533C22.3734 22.7312 17.6899 24.9649 13.4816 26.9349L13.6215 27.2337C17.7765 25.2887 22.3943 23.0869 26.0246 21.3198L26.0236 20.9533Z" fill="#BB524B"/>
    <path opacity="0.15" d="M26.0202 19.8414C25.4702 20.1134 24.8743 20.4021 24.8673 20.4055L25.0047 20.689C25.0111 20.6859 25.513 20.4427 26.0212 20.1922L26.0202 19.8414Z" fill="black"/>
    <path opacity="0.15" d="M17.7656 24.3507L17.4666 24.5227L18.6643 26.6052L18.9634 26.4331L17.7656 24.3507Z" fill="white"/>
    <path opacity="0.15" d="M18.1072 24.2502L17.8081 24.4223L19.0059 26.5047L19.3049 26.3327L18.1072 24.2502Z" fill="black"/>
    <path opacity="0.15" d="M19.7656 23.4468L19.4525 23.6244L20.8127 26.0217L21.1258 25.8441L19.7656 23.4468Z" fill="white"/>
    <path opacity="0.3" d="M21.0449 23.1253L20.7318 23.303L22.092 25.7003L22.4051 25.5226L21.0449 23.1253Z" fill="black"/>
    <path opacity="0.15" d="M22.9554 22.2133L22.6605 22.3923L23.5091 23.7903L23.804 23.6112L22.9554 22.2133Z" fill="black"/>
    <path opacity="0.15" d="M23.9802 21.4874L23.6888 21.6722L24.7321 23.3175L25.0235 23.1327L23.9802 21.4874Z" fill="white"/>
    <path opacity="0.15" d="M25.023 23.133L25.315 22.948L24.273 21.302L23.986 21.496L25.023 23.133Z" fill="black"/>
    <path opacity="0.15" d="M16.3798 24.5191L16.0803 24.6904L17.5443 27.2499L17.8438 27.0786L16.3798 24.5191Z" fill="black"/>
    <path opacity="0.15" d="M14.8589 24.0194L14.5591 24.1901L16.5992 27.7747L16.899 27.6041L14.8589 24.0194Z" fill="black"/>
    <path opacity="0.15" d="M15.6626 28.3204C15.1217 27.2795 13.9774 25.2819 12.6016 22.9767L12.8978 22.7999C14.277 25.1105 15.425 27.1148 15.9687 28.1613L15.6626 28.3204Z" fill="black"/>
    <path opacity="0.6" d="M13.683 27.3297C12.7173 25.5941 11.6276 23.734 10.3516 21.643L10.6461 21.4633C11.9245 23.5583 13.0165 25.4223 13.9845 27.162L13.683 27.3297Z" fill="#BD967F"/>
    <path opacity="0.6" d="M7.71607 25.0387C9.25678 24.3035 10.8512 23.5542 12.4625 22.8087L12.3176 22.4956C10.6305 23.2762 8.96134 24.061 7.35339 24.8296L7.71607 25.0387Z" fill="#BD967F"/>
    <path opacity="0.6" d="M11.1142 26.4365C9.82849 24.0423 7.931 20.8234 6.27136 18.2219L5.99316 18.3994C7.65108 20.9982 9.5467 24.2141 10.829 26.6028L11.1142 26.4365Z" fill="#BD967F"/>
    <path opacity="0.15" d="M25.3745 22.5853L26.0275 22.209L26.0271 22.0878C22.804 23.6921 18.4243 25.7825 14.5581 27.619L14.6997 27.9171C18.3247 26.1952 22.401 24.2501 25.554 22.6909L25.3745 22.5853Z" fill="black"/>
    <path d="M9.84442 19.853C8.33909 20.5326 6.87313 21.2534 5.45542 21.9504L5.16611 22.0926L5.16504 22.4775L5.60764 22.26C7.02283 21.5642 8.48621 20.8447 9.98638 20.1674L9.84442 19.853Z" fill="#AF3B55"/>
    <path d="M5.27934 23.6334C5.46153 23.544 5.64384 23.4544 5.82627 23.3647C7.24171 22.6687 8.70536 21.9491 10.2058 21.2717L10.0638 20.9572C8.55823 21.637 7.09203 22.3579 5.67403 23.0551C5.5034 23.139 5.33296 23.2227 5.16272 23.3063L5.16199 23.5657L5.27934 23.6334Z" fill="#BB524B"/>
    <path opacity="0.3" d="M6.02611 24.0642C5.84752 23.7379 5.54072 23.1817 5.16494 22.5178L5.16309 23.1871C5.27746 23.3914 5.38188 23.5791 5.47409 23.7458L6.02611 24.0642Z" fill="black"/>
    <path opacity="0.15" d="M5.59397 20.4775C6.36647 20.0942 7.13867 19.7243 7.89271 19.3767L7.74828 19.0634C7.04083 19.3895 6.31746 19.7351 5.5929 20.093L5.59397 20.4775Z" fill="black"/>
    <path opacity="0.6" d="M5.59494 20.8624C6.41841 20.4519 7.24294 20.0561 8.04671 19.6856L7.90228 19.3723C7.14502 19.7213 6.36955 20.0928 5.59387 20.4777L5.59494 20.8624Z" fill="#BD967F"/>
    <path opacity="0.7" d="M8.95784 25.7549L9.51566 26.0766L9.4674 25.9902C8.33271 23.9595 6.92925 21.4478 5.5907 19.3026L5.59246 19.9326C6.75422 21.8251 7.94846 23.9494 8.95784 25.7549Z" fill="#972C56"/>
    <path opacity="0.15" d="M9.60804 26.13L14.364 23.913L14.219 23.6L9.24304 25.919L9.60804 26.13Z" fill="black"/>
    <path opacity="0.15" d="M7.80664 25.0909C7.11894 23.8637 6.36171 22.5247 5.59548 21.2281V21.743L5.53589 21.7775C6.12422 22.7814 6.70389 23.8019 7.2471 24.7682L7.80664 25.0909Z" fill="black"/>
    <path opacity="0.15" d="M13.4341 23.521L10.6281 25.143L10.6301 26.719L14.0341 24.735L14.0101 23.919L13.4341 23.521Z" fill="black"/>
    <path d="M10.377 25.772L10.676 25.632L10.843 25.935L10.543 26.075L10.377 25.772Z" fill="#BE9E81"/>
    <path opacity="0.2" d="M5.16601 21.991L10.628 25.143L10.63 26.719L5.16101 23.565L5.16601 21.991Z" fill="black"/>
    <path d="M9.31897 23.896L9.61797 23.755L9.79097 24.056L9.49097 24.197L9.31897 23.896Z" fill="#DCA88B"/>
    <path d="M11.5 22.875L11.678 23.172L11.364 23.319L11.184 23.022L11.5 22.875Z" fill="#DCA88B"/>
    <path d="M6.89905 19.842L7.19905 19.7L7.38205 19.996L7.08205 20.138L6.89905 19.842Z" fill="#BE9E81"/>
    <path d="M12.6011 24.735L12.7751 25.035L12.4611 25.181L12.2841 24.882L12.6011 24.735Z" fill="#BE9E81"/>
    <path opacity="0.15" d="M26.0229 20.722L25.2799 19.604L24.9919 19.795L26.0249 21.347L26.0229 20.722Z" fill="white"/>
    <path d="M26.1346 23.0322L26.1505 23.0214C26.1505 23.0214 26.155 24.8666 26.1601 25.7894C24.7611 26.5981 21.9613 28.2129 21.9613 28.2129L21.8386 28.1474V25.2724L26.034 22.9731L26.1346 23.0322Z" fill="#3C1A26"/>
    <path d="M21.189 25.002L21.924 25.422L21.961 28.213L21.281 27.85L20.556 25.368L21.189 25.002Z" fill="#29121A"/>
    <path d="M25.374 22.585L26.135 23.032L21.925 25.466L21.155 25.022L25.374 22.585Z" fill="#421D2A"/>
    <path d="M21.314 25.8102L21.3213 28.5573C21.3213 28.5573 19.028 29.8825 17.8832 30.5478C17.6158 30.696 17.0847 31 17.0847 31L17.0591 30.985L17.05 28.1825L21.2505 25.7731L21.314 25.8102Z" fill="#3C1A26"/>
    <path d="M11.1598 27.5498C11.7636 27.1978 12.9714 26.4947 12.9714 26.4947L15.7841 28.1267L16.4484 27.7359L17.0867 28.1651C17.0867 28.1651 17.097 30.0841 17.0847 31C15.1206 29.8477 13.1259 28.6991 11.1598 27.5498Z" fill="#29121A"/>
    <path d="M12.984 25.341L12.989 26.497L9.59404 28.474L9.30804 28.309L9.29504 25.942L9.60304 26.119L10.627 26.708L12.984 25.341Z" fill="#BD967F"/>
    <path d="M6.18366 24.1458L9.60252 26.1191L9.59381 28.4736C9.59381 28.4736 7.31497 27.1592 6.17676 26.5002C6.17797 25.7152 6.18366 24.1458 6.18366 24.1458Z" fill="#886B59"/>
    <path d="M5.53979 10.8213C5.53979 10.8213 5.54189 12.1803 5.54189 13.0637C5.54609 14.8027 5.55629 18.2807 5.55629 18.2807L15.7252 24.185V16.6081L5.53979 10.8213Z" fill="#886B59"/>
    <path d="M25.963 10.524L15.46 16.464V22.813L15.723 22.818L15.728 22.829L25.982 16.912L25.963 10.524Z" fill="#BD967F"/>
    <path d="M9.46252 13.8964C9.68852 13.7695 9.91114 13.6365 10.1359 13.5072C10.541 13.7434 10.95 13.9735 11.3534 14.2127C11.3441 14.4615 11.3519 14.7102 11.3435 14.959C11.3215 14.7153 11.3498 14.4702 11.3242 14.2265C11.0982 14.3378 10.8891 14.4798 10.6677 14.5995C10.2661 14.3645 9.85683 14.1425 9.46252 13.8964Z" fill="#DCDCDC"/>
    <path d="M9.4487 17.0554C9.455 16.0024 9.44689 14.9491 9.4625 13.8964C9.85681 14.1425 10.2661 14.3645 10.6676 14.5995C10.6679 15.6591 10.6586 16.7184 10.6592 17.7777C10.6582 17.8107 10.6701 17.8428 10.6925 17.8671C12.1339 19.6361 13.5748 21.4055 15.0152 23.1753C15.0641 23.2276 15.1225 23.2701 15.1872 23.3004C15.3715 23.4034 15.553 23.5114 15.7367 23.6155C15.7373 24.0749 15.7346 24.5344 15.7337 24.9938C15.6341 24.9335 9.08055 20.9931 8.881 20.8761C8.81468 20.8511 8.83628 20.7713 8.83118 20.7173C8.83448 20.5928 8.83538 20.4682 8.83478 20.344C8.83478 20.2894 8.83508 20.2348 8.83538 20.1808C8.84349 19.9257 8.82038 19.6685 8.84979 19.4149C9.01723 18.7557 9.19458 18.0991 9.36503 17.4404C9.40609 17.3153 9.43413 17.1863 9.4487 17.0554V17.0554Z" fill="#898989"/>
    <path d="M10.6677 14.5995C10.8891 14.4798 11.0983 14.3378 11.3243 14.2265C11.3498 14.4702 11.3216 14.7154 11.3435 14.959C11.3417 15.7584 11.3393 16.5578 11.3363 17.357C11.3333 17.3793 11.3355 17.402 11.3426 17.4234C11.3498 17.4447 11.3618 17.4641 11.3777 17.48C12.8262 19.2592 14.2746 21.0385 15.7229 22.8179L15.7283 22.8293C19.1487 20.8608 26.0404 16.8772 26.0404 16.8772C26.0404 16.8772 26.4965 17.14 26.7243 17.2718C24.9898 18.2665 23.2607 19.2715 21.5277 20.2693C19.5979 21.3856 17.6676 22.501 15.7367 23.6155C15.5531 23.5114 15.3715 23.4034 15.1873 23.3005C15.1225 23.2701 15.0641 23.2276 15.0153 23.1753C13.5749 21.4057 12.134 19.6363 10.6926 17.8671C10.6701 17.8429 10.6582 17.8107 10.6592 17.7777C10.6587 16.7184 10.668 15.6591 10.6677 14.5995Z" fill="#FDFDFD"/>
    <path d="M26.7242 17.2718C26.7224 17.7294 26.7263 18.187 26.7266 18.6443C26.4902 18.9507 24.8223 21.1263 24.5894 21.4255C24.5288 21.3847 24.4682 21.3441 24.4076 21.3037C24.38 21.3403 24.3527 21.3774 24.3257 21.415C24.2575 21.5107 23.3966 22.7156 23.3192 22.8212L23.2784 22.8755C23.1553 22.7839 23.0392 22.6832 22.9312 22.5742C22.8982 22.6141 22.8654 22.6544 22.8357 22.6967C22.6884 22.9229 21.7161 24.4243 21.5973 24.6154L21.5742 24.6439C21.4361 24.5926 21.299 24.5393 21.1628 24.484C20.848 24.366 20.5359 24.2424 20.2226 24.1212C20.2037 24.1575 19.9096 24.7603 19.8715 24.8438C19.5987 24.7871 18.8404 24.6016 18.7318 24.5767C18.6742 24.6805 18.6202 24.7865 18.5652 24.8918L18.5259 24.9119L18.5118 24.9101C18.36 24.881 16.5076 24.6127 16.4548 24.6055C16.3964 24.6097 16.3405 24.631 16.2942 24.6667C16.1082 24.7772 15.923 24.8891 15.7336 24.9938C15.7346 24.5344 15.7373 24.075 15.7366 23.6155L26.7242 17.2718Z" fill="#D6D6D6"/>
    <path d="M23.5098 15.7596C23.9481 15.4703 24.4046 15.2097 24.8766 14.9794C24.8788 15.3962 24.8809 15.8131 24.8791 16.2299C24.4232 16.4903 23.9692 16.7547 23.514 17.0161C23.511 16.5972 23.5122 16.1786 23.5098 15.7596Z" fill="#493239"/>
    <path d="M20.858 16.978L19.493 17.763V19.338L20.86 18.549L20.858 16.978Z" fill="#493239"/>
    <path d="M22.1458 16.7547C22.582 16.3984 23.0373 16.0662 23.5097 15.7596C23.5121 16.1785 23.5109 16.5972 23.5139 17.0161C23.059 17.2793 22.6038 17.5419 22.1482 17.8041C22.1476 17.4542 22.1452 17.1046 22.1458 16.7547Z" fill="white"/>
    <path d="M18.1188 16.9873C18.535 16.7451 18.9521 16.5042 19.3701 16.2647C19.8227 16.5275 20.2752 16.7904 20.7277 17.0533C20.3148 17.288 19.9076 17.5316 19.4929 17.7627C19.4857 18.2878 19.4944 18.813 19.4932 19.3378C19.0388 19.6007 18.5843 19.8628 18.1296 20.124C18.1233 19.0786 18.1239 18.0328 18.1188 16.9873Z" fill="white"/>
    <path d="M25.9609 6.912L25.9702 6.90569C25.9702 6.90569 25.9771 9.53113 25.981 10.8437L25.9633 10.8536L15.7253 16.758L15.6018 16.6862V12.7626L25.8848 6.86772L25.9609 6.912Z" fill="#DB5B54"/>
    <path d="M26.8263 12.7099L26.8386 12.7048C26.8347 13.229 26.8428 13.7536 26.8344 14.2778C26.5438 14.3466 26.2569 14.4304 25.975 14.5289C25.6 14.6565 25.2332 14.807 24.8767 14.9794C24.4047 15.2096 23.9481 15.4703 23.5098 15.7596C23.0373 16.0661 22.582 16.3983 22.1459 16.7547C21.8818 16.9701 21.6262 17.1955 21.3759 17.4266C21.3789 16.905 21.369 16.3832 21.3735 15.8616C22.047 15.2308 22.7761 14.6619 23.5518 14.162C23.8945 13.9322 24.2535 13.7276 24.6258 13.5498C25.2296 13.2742 25.8488 13.0337 26.4803 12.8296C26.5982 12.7974 26.7137 12.7574 26.8263 12.7099V12.7099Z" fill="#DB5B54"/>
    <path d="M5.53979 6.91586L15.7895 1L25.9608 6.912L15.7237 12.8335C12.3283 10.8623 5.53979 6.91586 5.53979 6.91586Z" fill="#F2716A"/>
    <path d="M23.3078 10.7323C23.3609 10.7149 23.4221 10.6879 23.4737 10.7257C23.9203 10.9895 24.3653 11.2557 24.8136 11.5164C25.1977 11.7466 25.5845 11.9729 25.9692 12.2018C26.2552 12.3711 26.5418 12.5385 26.8262 12.7098C26.7137 12.7573 26.5981 12.7973 26.4802 12.8296C25.8487 13.0336 25.2295 13.2741 24.6257 13.5498C24.2534 13.7276 23.8944 13.9322 23.5517 14.162C22.776 14.6619 22.0469 15.2307 21.3734 15.8616C20.2445 15.2044 19.115 14.5485 17.9849 13.8937C18.1836 13.6946 18.3928 13.5064 18.6117 13.3298C19.1221 12.9014 19.6604 12.5074 20.2229 12.1502C21.1909 11.556 22.2265 11.08 23.3078 10.7323V10.7323Z" fill="#F2716A"/>
    <path d="M5.53979 6.91586C8.93435 8.88861 15.7238 12.8335 15.7238 12.8335L15.7253 16.758L5.53979 10.8362C5.53979 10.8362 5.54369 8.08858 5.53979 6.91586Z" fill="#A24741"/>
    <path d="M17.985 13.894L21.373 15.862L21.376 17.427L17.983 15.46L17.985 13.894Z" fill="#A24741"/>
    <path d="M20.556 25.368L21.314 25.81L17.087 28.252L16.313 27.816L20.556 25.368Z" fill="#421D2A"/>
</svg>
