<svg width="32" height="32" viewBox="0 0 32 32" fill="none" xmlns="http://www.w3.org/2000/svg">
    <path d="M16 32C24.8366 32 32 24.8366 32 16C32 7.16344 24.8366 0 16 0C7.16344 0 0 7.16344 0 16C0 24.8366 7.16344 32 16 32Z" fill="black"/>
    <path d="M19.4453 18.9192C19.4453 23.4528 17.5363 24.603 13.6311 26.5119C14.1299 26.8371 14.8024 27.2496 15.9526 27.7916C18.9465 26.3815 21.831 24.5157 21.831 19.5696V9.09236H19.4453V18.9192ZM17.168 9.09236H10.0741V11.175H14.7813V17.8353C14.7813 20.8724 14.5856 21.1544 10.6382 22.9329C10.9312 23.6555 11.3337 24.329 11.8315 24.9292C16.2998 22.9329 17.168 21.9141 17.168 18.4646V9.09236ZM11.0065 4.38519V6.22893C11.0065 6.70667 10.7245 7.03186 10.1604 7.03186H10.0741V6.64143H10.1393C10.3993 6.64143 10.5518 6.51094 10.5518 6.22893V4.77562H10.1393V4.38519H11.0065ZM11.8094 6.64143H12.2219V4.38519H12.6555V6.59826C12.6555 6.8803 12.504 7.01076 12.2219 7.01076H11.8094C11.5274 7.01076 11.3758 6.85921 11.3758 6.59826V4.38519H11.8094V6.64143ZM13.8489 6.01213V4.40727H14.2825V6.0342C14.2825 6.77189 13.892 7.03186 13.2196 7.03186H13.0028V4.38519H13.4364V6.57619H13.4585C13.7405 6.59826 13.8489 6.33731 13.8489 6.01213ZM15.0854 4.7977V5.49224H15.5842L15.4979 5.86057H15.0643V6.62033H15.7147L15.6494 7.01076H14.6518V4.38519H15.6283L15.6936 4.77562H15.0864V4.7977H15.0854ZM16.8428 4.38519H17.2553V7.00976H16.8428V6.12051L16.4303 5.20919H16.4082V7.00976H15.9957V4.38519H16.4082L16.8207 5.38282H16.8428V4.38519ZM18.7728 4.7977H18.3603V7.03186H17.9267V4.7977H17.5142L17.5795 4.40727H18.7076L18.7728 4.7977ZM19.4242 6.64143H19.8367V4.40727H20.2703V6.62033C20.2703 6.90238 20.1187 7.03287 19.8367 7.03287H19.4242C19.1422 7.03287 18.9906 6.88131 18.9906 6.62033V4.40727H19.4242V6.64143ZM20.5955 6.16368H21.0291V6.68457H21.4195V6.31624C21.4195 6.14262 21.3763 6.0563 21.2459 5.96899L20.8334 5.70902C20.6818 5.60063 20.6166 5.427 20.6166 5.29651V4.81876C20.6166 4.53675 20.7902 4.40626 21.0291 4.40626H21.4416C21.7236 4.40626 21.8541 4.55781 21.8541 4.81876V5.14395L21.4416 5.25236V4.73245H21.0732V5.12288C21.0732 5.25337 21.1164 5.33968 21.2469 5.427L21.6373 5.66587C21.8109 5.77426 21.8972 5.92582 21.8972 6.14362V6.64244C21.8972 6.92445 21.7236 7.03287 21.4847 7.03287H21.0943C20.8123 7.03287 20.6607 6.92445 20.6607 6.64244V6.16469L20.5955 6.16368Z" fill="white"/>
</svg>
