<svg width="32" height="32" viewBox="0 0 32 32" fill="none" xmlns="http://www.w3.org/2000/svg">
    <g clip-path="url(#clip0)">
        <path d="M16 31C24.2843 31 31 24.2843 31 16C31 7.71573 24.2843 1 16 1C7.71573 1 1 7.71573 1 16C1 24.2843 7.71573 31 16 31Z" fill="#090806"/>
        <path d="M16 1.28C18.9113 1.28 21.7573 2.14331 24.178 3.76077C26.5987 5.37822 28.4854 7.67717 29.5995 10.3669C30.7136 13.0566 31.0051 16.0163 30.4372 18.8717C29.8692 21.7271 28.4672 24.35 26.4086 26.4086C24.35 28.4672 21.7271 29.8692 18.8717 30.4372C16.0163 31.0051 13.0566 30.7136 10.3669 29.5995C7.67718 28.4854 5.37823 26.5987 3.76077 24.178C2.14332 21.7573 1.28001 18.9113 1.28001 16C1.2878 12.0984 2.84115 8.35884 5.6 5.59999C8.35885 2.84114 12.0984 1.28779 16 1.28V1.28ZM16 0C12.8355 0 9.74207 0.938384 7.11088 2.69649C4.4797 4.45459 2.42894 6.95345 1.21793 9.87706C0.0069325 12.8007 -0.309921 16.0177 0.307443 19.1214C0.924806 22.2251 2.44866 25.0761 4.6863 27.3137C6.92394 29.5513 9.77487 31.0752 12.8786 31.6926C15.9823 32.3099 19.1993 31.9931 22.1229 30.7821C25.0466 29.5711 27.5454 27.5203 29.3035 24.8891C31.0616 22.2579 32 19.1645 32 16C31.9985 11.757 30.3123 7.68825 27.312 4.688C24.3118 1.68775 20.243 0.00154784 16 0V0ZM22.72 12.4373H21.7173L18.6453 16L21.696 19.5627H22.6987V22.4213H16.2347V19.6053H17.2373L15.232 17.28H14.4V19.6053H15.5307V22.4427H9.28001V19.5627H10.6453V12.4373H9.28001V9.5573H10.816V10.624H11.648V9.5573H13.1627V10.624H13.9947V9.5573H15.5307V12.3947H14.4V14.72H15.232L17.2373 12.3947H16.2347V9.5573H22.72V12.4373Z" fill="#48DBB4"/>
    </g>
    <defs>
        <clipPath id="clip0">
            <rect width="32" height="32" fill="white"/>
        </clipPath>
    </defs>
</svg>
