<svg width="32" height="32" viewBox="0 0 32 32" fill="none" xmlns="http://www.w3.org/2000/svg">
    <path d="M16 0C20.2435 0 24.3131 1.68571 27.3137 4.68629C30.3143 7.68687 32 11.7565 32 16C32 20.2435 30.3143 24.3131 27.3137 27.3137C24.3131 30.3143 20.2435 32 16 32V32C11.7565 32 7.68687 30.3143 4.68629 27.3137C1.68571 24.3131 0 20.2435 0 16V16C0 11.7565 1.68571 7.68687 4.68629 4.68629C7.68687 1.68571 11.7565 0 16 0V0Z" fill="#005AD3"/>
    <path d="M30.1177 15.9996C30.1178 18.7918 29.2898 21.5214 27.7386 23.8431C26.1874 26.1648 23.9826 27.9743 21.4029 29.0429C18.8232 30.1115 15.9846 30.3912 13.246 29.8465C10.5075 29.3018 7.99188 27.9572 6.01745 25.9829C4.04301 24.0085 2.69839 21.493 2.15363 18.7544C1.60886 16.0158 1.88841 13.1772 2.95694 10.5975C4.02546 8.01782 5.83496 5.81292 8.15661 4.26163C10.4783 2.71035 13.2078 1.88235 16 1.88235C19.7442 1.88239 23.335 3.36973 25.9825 6.01721C28.6301 8.66468 30.1175 12.2554 30.1177 15.9996V15.9996Z" stroke="white" stroke-width="1.34473"/>
    <path fill-rule="evenodd" clip-rule="evenodd" d="M18.9633 7.06339C19.2166 7.0642 19.4593 7.16541 19.6381 7.34483C19.817 7.52425 19.9174 7.76725 19.9174 8.02058C19.9174 8.27391 19.817 8.51691 19.6381 8.69633C19.4593 8.87575 19.2166 8.97696 18.9633 8.97778H16.5577V10.7274H18.6244C18.8773 10.729 19.1193 10.8306 19.2975 11.01C19.4757 11.1894 19.5758 11.432 19.5758 11.6849C19.5758 11.9378 19.4757 12.1804 19.2975 12.3598C19.1193 12.5392 18.8773 12.6408 18.6244 12.6424H16.5577V16.1804C17.234 16.3025 17.8729 16.5796 18.4242 16.9901C18.9755 17.4005 19.4242 17.9331 19.7351 18.5461C20.0636 18.7411 20.3354 19.0185 20.5238 19.3508C20.7122 19.6831 20.8106 20.0588 20.8092 20.4408V20.739C20.81 21.1268 20.7083 21.508 20.5145 21.8439C20.3206 22.1799 20.0415 22.4586 19.7053 22.652C19.3288 23.3688 18.7636 23.969 18.0707 24.3877C17.3777 24.8065 16.5835 25.0278 15.7739 25.0278C14.9643 25.0278 14.1701 24.8065 13.4772 24.3877C12.7842 23.969 12.219 23.3688 11.8425 22.652C11.5068 22.4581 11.2279 22.1792 11.0341 21.8434C10.8402 21.5077 10.7381 21.1267 10.738 20.739V20.4408C10.7374 20.0589 10.8361 19.6834 11.0246 19.3512C11.213 19.019 11.4846 18.7415 11.8127 18.5461C12.0975 17.9864 12.4972 17.4931 12.9858 17.0987C13.4744 16.7042 14.0409 16.4174 14.648 16.257V8.02022C14.6477 7.76672 14.7482 7.52351 14.9272 7.34407C15.1063 7.16463 15.3493 7.06366 15.6028 7.06339H18.9633ZM18.2538 18.4954H13.2934C12.7852 18.4944 12.2975 18.6954 11.9375 19.054C11.5775 19.4126 11.3747 19.8996 11.3737 20.4077V20.6652C11.3747 21.1734 11.5776 21.6604 11.9375 22.0191C12.2975 22.3778 12.7852 22.5789 13.2934 22.5782H18.2524C18.7609 22.5794 19.2491 22.3785 19.6095 22.0197C19.9699 21.661 20.173 21.1738 20.1743 20.6652V20.4077C20.1737 20.1561 20.1236 19.907 20.0268 19.6747C19.93 19.4424 19.7884 19.2314 19.6101 19.0538C19.4318 18.8762 19.2202 18.7355 18.9875 18.6397C18.7548 18.5439 18.5055 18.4949 18.2538 18.4954V18.4954Z" fill="white"/>
    <path fill-rule="evenodd" clip-rule="evenodd" d="M13.7322 21.3077C13.8757 21.3077 14.016 21.2652 14.1354 21.1854C14.2547 21.1057 14.3478 20.9923 14.4027 20.8597C14.4576 20.7271 14.472 20.5812 14.444 20.4404C14.416 20.2996 14.3469 20.1703 14.2454 20.0688C14.1439 19.9673 14.0146 19.8982 13.8738 19.8702C13.733 19.8422 13.5871 19.8566 13.4545 19.9115C13.3219 19.9664 13.2085 20.0595 13.1288 20.1788C13.049 20.2981 13.0065 20.4385 13.0065 20.582C13.0064 20.6773 13.0252 20.7717 13.0616 20.8598C13.0981 20.9478 13.1515 21.0279 13.2189 21.0953C13.2863 21.1627 13.3663 21.2161 13.4544 21.2526C13.5425 21.289 13.6369 21.3078 13.7322 21.3077Z" fill="white"/>
    <path fill-rule="evenodd" clip-rule="evenodd" d="M18.0876 21.3077C18.2312 21.3077 18.3715 21.2651 18.4908 21.1854C18.6101 21.1056 18.7031 20.9923 18.7581 20.8597C18.813 20.7271 18.8273 20.5811 18.7993 20.4404C18.7713 20.2996 18.7022 20.1703 18.6007 20.0688C18.4992 19.9673 18.3699 19.8982 18.2291 19.8702C18.0883 19.8422 17.9424 19.8566 17.8098 19.9115C17.6772 19.9664 17.5639 20.0595 17.4841 20.1788C17.4044 20.2982 17.3618 20.4385 17.3618 20.582C17.3618 20.6773 17.3805 20.7717 17.4169 20.8598C17.4534 20.9479 17.5069 21.0279 17.5743 21.0953C17.6417 21.1627 17.7217 21.2162 17.8098 21.2526C17.8979 21.2891 17.9923 21.3078 18.0876 21.3077Z" fill="white"/>
</svg>
