<svg width="32" height="32" viewBox="0 0 32 32" fill="none" xmlns="http://www.w3.org/2000/svg">
    <path d="M16 32C24.8366 32 32 24.8366 32 16C32 7.16344 24.8366 0 16 0C7.16344 0 0 7.16344 0 16C0 24.8366 7.16344 32 16 32Z" fill="white"/>
    <path d="M16.5758 15.9394L24.8788 24.1818C26.9808 21.9522 28.1515 19.0037 28.1515 15.9394C28.1515 12.8751 26.9808 9.92664 24.8788 7.69698L16.5758 15.9394Z" fill="#4F473C"/>
    <path d="M15.97 16.485L7.78796 24.606L15.97 28L24.152 24.606L15.97 16.485Z" fill="#4F473C"/>
    <path d="M15.667 15.636L24.1521 7.212L16.333 4L8.57605 22.727L15.667 15.636Z" fill="#4F473C"/>
    <path d="M3.84853 15.9394C3.84268 19.0048 5.01423 21.9554 7.12126 24.1818L15.2425 4.60606L3.84853 15.9394Z" fill="#4F473C"/>
</svg>
