<svg width="32" height="32" viewBox="0 0 32 32" fill="none" xmlns="http://www.w3.org/2000/svg">
    <path d="M16 32C24.8366 32 32 24.8366 32 16C32 7.16344 24.8366 0 16 0C7.16344 0 0 7.16344 0 16C0 24.8366 7.16344 32 16 32Z" fill="white"/>
    <path d="M24.7737 7.24289C24.5962 7.06507 24.3854 6.92399 24.1533 6.82772C23.9212 6.73145 23.6724 6.68188 23.4211 6.68185C23.1698 6.68183 22.921 6.73133 22.6889 6.82755C22.4568 6.92377 22.2459 7.0648 22.0683 7.24258L22.068 7.24289L22.0235 7.29553C21.7329 7.60662 21.5537 8.00529 21.5139 8.42913V8.42913V8.76921C21.4668 9.25466 21.3164 9.72443 21.0729 10.147C20.8293 10.5696 20.4982 10.9352 20.1018 11.2193C19.7054 11.5034 19.2527 11.6994 18.7743 11.7943C18.2959 11.8891 17.8027 11.8806 17.3279 11.7692L17.0488 11.6963C16.34 11.5229 15.5991 11.5286 14.893 11.7131C14.1869 11.8976 13.5378 12.255 13.0044 12.753C12.9599 12.7935 12.9114 12.8259 12.8709 12.8704C12.1616 13.7235 11.7964 14.8108 11.847 15.9192C11.8977 17.0275 12.3604 18.077 13.1445 18.862C13.9287 19.6469 14.9777 20.1107 16.086 20.1624C17.1943 20.2142 18.2819 19.8501 19.1358 19.1417C19.3172 18.9525 19.4835 18.7495 19.6332 18.5344C19.9914 18.0213 20.2368 17.4382 20.3532 16.8234C20.4696 16.2086 20.4544 15.5761 20.3087 14.9676C20.2844 14.8866 20.2642 14.8056 20.244 14.7247C20.2421 14.7126 20.2421 14.7003 20.244 14.6882C20.1327 14.2096 20.1258 13.7127 20.2237 13.2312C20.3216 12.7496 20.522 12.2948 20.8113 11.8977C21.1006 11.5005 21.4721 11.1703 21.9004 10.9295C22.3287 10.6887 22.8038 10.5429 23.2935 10.502H23.3663L23.5847 10.4818C24.028 10.441 24.443 10.2462 24.7576 9.93115C24.8327 9.85402 24.9004 9.76998 24.9598 9.68015C25.2181 9.31606 25.341 8.87306 25.307 8.42792C25.273 7.98278 25.0844 7.56356 24.7737 7.24289V7.24289Z" fill="url(#paint0_linear)"/>
    <path d="M16.0094 28C14.3134 28.0035 12.6359 27.6474 11.0876 26.9552C9.53921 26.2631 8.15517 25.2506 7.0267 23.9845C5.89822 22.7184 5.05095 21.2275 4.54073 19.61C4.03052 17.9926 3.86896 16.2853 4.06671 14.6009C4.26446 12.9164 4.81702 11.293 5.68796 9.83774C6.55891 8.38243 7.72845 7.12828 9.11947 6.15796C10.5105 5.18764 12.0914 4.52321 13.7579 4.20847C15.4245 3.89373 17.1388 3.93584 18.7879 4.33201C19.1179 4.41306 19.4025 4.62124 19.5796 4.91118C19.7568 5.20111 19.8122 5.54932 19.7337 5.87992C19.6553 6.21052 19.4494 6.49673 19.1609 6.67618C18.8724 6.85564 18.5246 6.91381 18.1934 6.83801C17.4777 6.66891 16.7448 6.58332 16.0094 6.58295C14.1449 6.58104 12.3217 7.1322 10.7705 8.16669C9.21927 9.20118 8.00973 10.6725 7.2949 12.3946C6.58006 14.1166 6.39204 16.012 6.75462 17.8409C7.11721 19.6698 8.0141 21.3501 9.33185 22.6692C10.6496 23.9883 12.329 24.8869 14.1575 25.2513C15.9861 25.6158 17.8816 25.4297 19.6044 24.7166C21.3272 24.0035 22.7997 22.7955 23.8358 21.2453C24.8719 19.6952 25.4249 17.8726 25.4249 16.008V16.004C25.4234 15.2651 25.3365 14.5287 25.166 13.8097C25.1187 13.6474 25.1038 13.4774 25.1222 13.3094C25.1406 13.1413 25.192 12.9786 25.2734 12.8304C25.3547 12.6823 25.4645 12.5516 25.5964 12.4459C25.7283 12.3402 25.8798 12.2615 26.0421 12.2143C26.2045 12.1672 26.3745 12.1525 26.5425 12.1711C26.7105 12.1898 26.8732 12.2413 27.0213 12.3229C27.1693 12.4044 27.2999 12.5143 27.4054 12.6464C27.511 12.7784 27.5895 12.9299 27.6364 13.0923C27.6481 13.1326 27.6578 13.1733 27.6654 13.2146C28.0907 14.9769 28.1104 16.8127 27.7229 18.5837C27.3354 20.3547 26.5509 22.0146 25.4286 23.4383C24.3062 24.862 22.8753 26.0123 21.2436 26.8025C19.612 27.5927 17.8223 28.0022 16.0094 28V28Z" fill="url(#paint1_linear)"/>
    <defs>
        <linearGradient id="paint0_linear" x1="13.1459" y1="18.8632" x2="24.77" y2="7.23911" gradientUnits="userSpaceOnUse">
            <stop stop-color="#1B456E"/>
            <stop offset="1" stop-color="#00EDD3"/>
        </linearGradient>
        <linearGradient id="paint1_linear" x1="7.51522" y1="24.4894" x2="23.3875" y2="8.61711" gradientUnits="userSpaceOnUse">
            <stop stop-color="#1B456E"/>
            <stop offset="0.40522" stop-color="#1B476F"/>
            <stop offset="0.55118" stop-color="#1A4E73"/>
            <stop offset="0.65524" stop-color="#18597A"/>
            <stop offset="0.73938" stop-color="#156A84"/>
            <stop offset="0.81149" stop-color="#118092"/>
            <stop offset="0.87525" stop-color="#0D9CA2"/>
            <stop offset="0.933" stop-color="#08BCB6"/>
            <stop offset="0.98436" stop-color="#02E0CB"/>
            <stop offset="1" stop-color="#00EDD3"/>
        </linearGradient>
    </defs>
</svg>
