<svg width="32" height="32" viewBox="0 0 32 32" fill="none" xmlns="http://www.w3.org/2000/svg">
    <path d="M16 32C24.8366 32 32 24.8366 32 16C32 7.16344 24.8366 0 16 0C7.16344 0 0 7.16344 0 16C0 24.8366 7.16344 32 16 32Z" fill="#6C8275"/>
    <path d="M8.37656 15.9597C8.37669 14.2827 8.39121 12.6056 8.36846 10.9289C8.36098 10.3768 8.57104 9.98977 8.997 9.66848C10.6815 8.39789 12.3589 7.11793 14.0389 5.84127C14.0865 5.80506 14.1319 5.76581 14.1797 5.72973C14.3437 5.60583 14.5178 5.52289 14.7156 5.6493C14.907 5.77162 14.9329 5.95404 14.8877 6.1626C14.7832 6.64493 14.686 7.12884 14.5824 7.61135C14.0105 10.2728 13.4337 12.9332 12.8719 15.5967C12.8211 15.8375 12.8195 16.1075 12.8704 16.3479C13.4941 19.2889 14.132 22.2267 14.7653 25.1656C14.8125 25.3848 14.8523 25.6057 14.8953 25.8258C14.9329 26.018 14.8945 26.1849 14.724 26.2998C14.548 26.4184 14.379 26.3699 14.2242 26.2564C13.8742 25.9999 13.5257 25.7413 13.1807 25.478C11.8128 24.4339 10.454 23.3777 9.07563 22.3476C8.59233 21.9864 8.35394 21.5694 8.36578 20.9455C8.39719 19.2841 8.37642 17.6217 8.37656 15.9597ZM15.3962 16.2551C15.8495 16.5177 16.3037 16.7787 16.7582 17.0391C18.7445 18.1777 20.7344 19.3101 22.7154 20.458C23.2485 20.7669 23.6536 20.76 23.6441 19.912C23.6147 17.2923 23.6335 14.6719 23.6331 12.0519C23.6331 11.9321 23.6396 11.8112 23.6255 11.6929C23.5886 11.3822 23.3892 11.2369 23.0936 11.3265C22.9242 11.3779 22.7653 11.4712 22.6099 11.5601C20.4791 12.7778 18.3495 13.9978 16.2202 15.2181C15.8202 15.4473 15.4225 15.6804 14.9282 15.9672C15.1479 16.1027 15.2702 16.1821 15.3962 16.2551ZM14.6193 17.8619C15.0636 19.9507 15.5089 22.0393 15.9568 24.1273C16.1196 24.8861 16.2835 25.6446 16.4594 26.4004C16.5631 26.8457 16.8359 26.9448 17.215 26.6942C17.2773 26.653 17.3371 26.6079 17.3965 26.5626C17.9904 26.1096 18.5837 25.6558 19.1777 25.2028C20.2232 24.4054 21.2718 23.612 22.3133 22.8095C22.8236 22.4162 22.7937 22.1221 22.2303 21.7961C21.8423 21.5716 21.4558 21.3448 21.0671 21.1217C19.5508 20.2517 18.0344 19.382 16.5171 18.5138C15.8971 18.159 15.2747 17.8083 14.5609 17.4032C14.5894 17.6322 14.5952 17.749 14.6193 17.8619ZM14.6473 14.4846C14.7791 14.4186 14.9147 14.3589 15.0424 14.2856C16.8719 13.2344 18.7001 12.1809 20.5292 11.1291C21.113 10.7934 21.7023 10.4673 22.2824 10.1256C22.7716 9.83748 22.7955 9.54136 22.3642 9.18787C22.133 8.99831 21.8871 8.82667 21.6494 8.64491C20.1992 7.53615 18.752 6.4233 17.2979 5.31965C16.8367 4.96954 16.5745 5.07189 16.4432 5.63073C16.3303 6.11073 16.2175 6.59085 16.1142 7.07296C15.7007 9.0032 15.2907 10.9341 14.8801 12.865C14.7691 13.3868 14.6608 13.9092 14.5512 14.4314C14.5832 14.4491 14.6152 14.4669 14.6473 14.4846Z" fill="#FEFFFF"/>
</svg>
