<svg width="32" height="32" viewBox="0 0 32 32" fill="none" xmlns="http://www.w3.org/2000/svg">
    <path d="M16 32C24.8366 32 32 24.8366 32 16C32 7.16344 24.8366 0 16 0C7.16344 0 0 7.16344 0 16C0 24.8366 7.16344 32 16 32Z" fill="white"/>
    <path d="M16.5692 19.9795V18.4569C16.5688 18.3111 16.5107 18.1714 16.4076 18.0683C16.3045 17.9653 16.1648 17.9072 16.019 17.9067H15.9811C15.8353 17.9072 15.6956 17.9653 15.5925 18.0683C15.4895 18.1714 15.4314 18.3111 15.4309 18.4569V19.9795C15.1805 20.1073 14.9804 20.3157 14.8628 20.571C14.7452 20.8264 14.717 21.114 14.7827 21.3873C14.8485 21.6607 15.0043 21.904 15.2251 22.078C15.4459 22.252 15.7189 22.3467 16 22.3467C16.2812 22.3467 16.5542 22.252 16.775 22.078C16.9958 21.904 17.1516 21.6607 17.2174 21.3873C17.2831 21.114 17.2549 20.8264 17.1373 20.571C17.0197 20.3157 16.8196 20.1073 16.5692 19.9795Z" fill="#007AFF"/>
    <path d="M21.122 14.7764H21.0081V10.7358C20.9781 9.42744 20.4373 8.18281 19.5013 7.26812C18.5654 6.35343 17.3087 5.84131 16 5.84131C14.6913 5.84131 13.4346 6.35343 12.4987 7.26812C11.5627 8.18281 11.0219 9.42744 10.9919 10.7358V14.7764H10.878C10.3801 14.777 9.90277 14.975 9.55069 15.3271C9.19861 15.6792 9.00056 16.1565 9 16.6545V24.2805C9.00059 24.7784 9.19864 25.2557 9.55072 25.6078C9.9028 25.9598 10.3801 26.1579 10.878 26.1585H21.122C21.6198 26.1579 22.0972 25.9598 22.4493 25.6078C22.8013 25.2557 22.9994 24.7784 23 24.2805V16.6545C22.9994 16.1566 22.8014 15.6792 22.4493 15.3271C22.0972 14.975 21.6199 14.777 21.122 14.7764ZM12.1301 10.7358C12.1601 9.72937 12.581 8.77425 13.3034 8.073C14.0259 7.37174 14.9932 6.97952 16 6.97952C17.0068 6.97952 17.9741 7.37174 18.6966 8.073C19.419 8.77425 19.8399 9.72937 19.8699 10.7358V14.7764H12.1301V10.7358ZM21.8049 24.2805C21.8043 24.4614 21.7322 24.6348 21.6043 24.7628C21.4763 24.8908 21.3029 24.9629 21.122 24.9634H10.878C10.6971 24.9629 10.5237 24.8908 10.3957 24.7628C10.2678 24.6348 10.1957 24.4614 10.1951 24.2805V16.6545C10.1957 16.4735 10.2678 16.3001 10.3957 16.1722C10.5237 16.0442 10.6971 15.9721 10.878 15.9716H21.122C21.3029 15.9721 21.4763 16.0442 21.6043 16.1722C21.7322 16.3001 21.8043 16.4735 21.8049 16.6545V24.2805Z" fill="#007AFF"/>
</svg>
