<svg width="32" height="32" viewBox="0 0 32 32" fill="none" xmlns="http://www.w3.org/2000/svg">
    <path d="M15.9984 0C24.8327 0 31.9968 7.16408 31.9968 15.9984C31.9968 24.8327 24.8327 31.9968 15.9984 31.9968C7.16408 31.9968 0 24.8327 0 15.9984C0 7.16408 7.16408 0 15.9984 0Z" fill="black"/>
    <path d="M26.644 8.81276C26.1941 8.41286 25.6942 8.11294 25.0944 8.01297C24.3446 7.913 23.5948 8.41286 23.0949 8.76277C22.595 9.11268 21.5953 10.0124 21.1954 10.3623C20.7955 10.7122 19.7958 10.9122 18.1462 11.9119C16.4967 12.9117 10.0984 17.0106 10.0984 17.0106H11.7479L4.29992 20.8595H5.04972L4 21.6593C4.59984 21.8093 5.19968 21.7093 5.74953 21.4094V21.6593C5.74953 21.6593 14.5972 18.1603 16.2967 19.06L15.247 19.3599C15.347 19.3599 16.9965 19.4599 16.9965 19.4599C17.0965 20.1597 17.4964 20.8096 18.0962 21.1595C19.096 21.8093 19.146 22.2092 19.146 22.2092C19.146 22.2092 18.6461 22.4091 18.6461 22.7091C19.5958 22.4091 20.5956 22.4091 21.4953 22.7091C21.4953 22.7091 21.4453 22.4091 20.7455 22.2092C20.0457 21.9093 19.4459 21.4594 18.996 20.8096C18.5961 20.2597 18.4462 19.5599 18.6961 18.9101C18.946 18.2602 19.7958 17.9103 21.5453 17.0106C23.5948 15.9609 24.0946 15.1611 24.3446 14.5112C24.5945 13.8614 25.0944 12.6617 25.2943 12.0619C25.4943 11.512 25.8442 11.0622 26.2941 10.6623C26.8439 10.3623 27.4437 10.1124 27.9936 9.91246C28.0936 9.96245 26.9939 9.06269 26.644 8.81276Z" fill="white"/>
</svg>
