<svg width="32" height="32" viewBox="0 0 32 32" fill="none" xmlns="http://www.w3.org/2000/svg">
    <path d="M16 32C24.8366 32 32 24.8366 32 16C32 7.16344 24.8366 0 16 0C7.16344 0 0 7.16344 0 16C0 24.8366 7.16344 32 16 32Z" fill="white"/>
    <path fill-rule="evenodd" clip-rule="evenodd" d="M17.5508 15.1782H20.2803V21.1932C20.2381 22.4759 19.7724 23.7086 18.9559 24.6988C18.1394 25.689 17.018 26.3809 15.7668 26.6667C14.5266 26.3652 13.4121 25.6826 12.5799 24.715C11.7476 23.7474 11.2394 22.5433 11.1268 21.272V15.2078H13.2518L17.5508 15.1782" fill="#15366F"/>
    <path fill-rule="evenodd" clip-rule="evenodd" d="M17.4744 15.3664H20.091V21.1325C20.0505 22.3622 19.6041 23.5439 18.8214 24.4931C18.0387 25.4424 16.9637 26.1058 15.7642 26.3797C14.5753 26.0906 13.5069 25.4363 12.7091 24.5087C11.9112 23.5811 11.4241 22.4269 11.3161 21.2081V15.3948H13.3534L17.4744 15.3664" fill="url(#paint0_linear_1068_563)"/>
    <path fill-rule="evenodd" clip-rule="evenodd" d="M17.177 18.2518H19.3542V21.0889C19.3206 22.1121 18.9492 23.0954 18.2979 23.8853C17.6466 24.6751 16.7521 25.2271 15.754 25.455C14.7648 25.2145 13.8758 24.6701 13.2119 23.8982C12.548 23.1264 12.1427 22.1659 12.0528 21.1518V18.2558H13.7479L17.177 18.2518" fill="#15366F"/>
    <path fill-rule="evenodd" clip-rule="evenodd" d="M17.1039 18.4306H19.1731V21.1269C19.1412 22.0993 18.7882 23.0338 18.1692 23.7845C17.5502 24.5351 16.7001 25.0597 15.7515 25.2764C14.8114 25.0478 13.9665 24.5303 13.3356 23.7968C12.7047 23.0632 12.3195 22.1504 12.2341 21.1866V18.4343H13.8449L17.1039 18.4306" fill="#87D8F7"/>
    <path fill-rule="evenodd" clip-rule="evenodd" d="M14.4034 17.68C14.4386 17.6811 14.4728 17.6684 14.4989 17.6447C14.5249 17.6209 14.5406 17.588 14.5428 17.5529L14.7536 16.7577C14.7597 16.7352 14.7642 16.7165 14.767 16.7014C14.7701 16.6881 14.7718 16.6744 14.7721 16.6607C14.7721 16.6308 14.7639 16.6121 14.7477 16.6046C14.715 16.5931 14.6807 16.5866 14.646 16.5855V16.5397H15.1918V16.5855C15.1499 16.5871 15.1088 16.5971 15.0709 16.6149C15.0427 16.6404 15.0243 16.675 15.0189 16.7126L14.7955 17.5588L14.7896 17.5848L14.7879 17.6134C14.7875 17.6222 14.7896 17.6309 14.7941 17.6385C14.7986 17.646 14.8052 17.652 14.8131 17.6558C14.8355 17.6649 14.8596 17.6691 14.8837 17.6679C14.9889 17.6706 15.0934 17.6493 15.1893 17.6056C15.2869 17.5528 15.3663 17.4716 15.4168 17.3728L15.4579 17.3806L15.3572 17.7251H14.4034V17.68" fill="#15366F"/>
    <path fill-rule="evenodd" clip-rule="evenodd" d="M16.6174 17.674L17.4762 16.6019H17.34C17.2375 16.6022 17.1373 16.6319 17.0513 16.6876C16.9839 16.7369 16.9241 16.7958 16.8737 16.8624L16.8265 16.8555L16.9539 16.5396H17.774L17.7693 16.5916L16.9121 17.6636H17.0363C17.1208 17.6657 17.2051 17.6534 17.2855 17.6272C17.4131 17.5798 17.5206 17.49 17.59 17.3729L17.6364 17.3807L17.5021 17.725H16.6129L16.6174 17.674" fill="#15366F"/>
    <path fill-rule="evenodd" clip-rule="evenodd" d="M17.6702 17.68C17.7032 17.6779 17.7352 17.6672 17.7627 17.6488C17.7886 17.6226 17.8059 17.5891 17.8124 17.5528L18.0274 16.7577C18.0338 16.7352 18.0383 16.7164 18.0411 16.7014C18.0443 16.688 18.0461 16.6744 18.0463 16.6607C18.0463 16.6308 18.0379 16.6121 18.0214 16.6045C17.988 16.593 17.9531 16.5866 17.9177 16.5854V16.5396H18.4396V16.5854C18.4063 16.5879 18.3742 16.5986 18.3461 16.6166C18.3211 16.6433 18.3045 16.6766 18.2982 16.7126L18.0822 17.5079L18.0686 17.5694L18.0652 17.5874L18.0643 17.6039C18.0643 17.6339 18.0722 17.6529 18.0882 17.6609C18.1216 17.6726 18.1566 17.679 18.1919 17.6799V17.725H17.6702V17.68" fill="#15366F"/>
    <path fill-rule="evenodd" clip-rule="evenodd" d="M14.5412 18.4282L16.9901 18.4278V24.7483C16.6039 24.9842 16.1842 25.1601 15.7452 25.2701C15.3232 25.1643 14.918 25.0003 14.5412 24.7829V18.4282" fill="white"/>
    <path fill-rule="evenodd" clip-rule="evenodd" d="M11.9889 17.7512L12.0796 17.3552L12.1297 17.3587C12.1284 17.3999 12.1304 17.4412 12.1358 17.4821C12.143 17.524 12.1605 17.5634 12.1868 17.5967C12.2092 17.626 12.2379 17.6499 12.2707 17.6667C12.3044 17.6825 12.3412 17.6905 12.3784 17.6901C12.4094 17.6915 12.4404 17.6863 12.4692 17.6747C12.4981 17.6631 12.524 17.6454 12.5454 17.6228C12.5861 17.5799 12.6105 17.524 12.6144 17.4649C12.6196 17.3907 12.5546 17.2969 12.4195 17.1836C12.3647 17.1469 12.319 17.0983 12.2858 17.0413C12.2526 16.9844 12.2328 16.9207 12.2279 16.855C12.233 16.7631 12.2725 16.6766 12.3385 16.6126C12.3747 16.5786 12.4173 16.5523 12.4638 16.5351C12.5104 16.5179 12.5599 16.5103 12.6095 16.5126C12.6416 16.5127 12.6737 16.5159 12.7052 16.522C12.7243 16.5255 12.7431 16.5304 12.7615 16.5367L12.8049 16.5514L12.8342 16.5591C12.8432 16.5608 12.8523 16.5617 12.8614 16.5618C12.8784 16.5628 12.8952 16.5582 12.9094 16.5489C12.921 16.5398 12.9313 16.529 12.9397 16.5169H12.9918L12.8964 16.8706L12.8507 16.8645L12.8487 16.8067C12.8465 16.7573 12.8326 16.7091 12.8081 16.6661C12.7906 16.6362 12.7652 16.6117 12.7347 16.5954C12.7041 16.5791 12.6697 16.5716 12.6351 16.5737C12.6055 16.572 12.576 16.578 12.5493 16.591C12.5227 16.604 12.4999 16.6236 12.483 16.648C12.4608 16.6792 12.4476 16.7159 12.4448 16.7541C12.4415 16.7914 12.45 16.8288 12.4691 16.861C12.4831 16.8819 12.4999 16.9008 12.5191 16.917L12.6616 17.0422C12.7115 17.0857 12.7541 17.137 12.7877 17.194C12.8219 17.2523 12.837 17.3199 12.8308 17.3872C12.8223 17.4845 12.7769 17.5749 12.704 17.64C12.6628 17.678 12.6145 17.7075 12.5619 17.7268C12.5092 17.746 12.4533 17.7546 12.3973 17.752C12.3651 17.752 12.3329 17.7488 12.3014 17.7425C12.2696 17.7367 12.2385 17.728 12.2083 17.7166L12.165 17.7002C12.1553 17.6961 12.1453 17.6926 12.135 17.6899L12.1155 17.6873C12.1077 17.6867 12.0999 17.6876 12.0925 17.6902C12.0852 17.6927 12.0784 17.6967 12.0727 17.702C12.0604 17.717 12.05 17.7335 12.042 17.7511H11.9889" fill="#15366F"/>
    <path fill-rule="evenodd" clip-rule="evenodd" d="M12.8363 17.5287C12.8615 17.5043 12.8953 17.4907 12.9303 17.4907C12.9471 17.4902 12.9637 17.4935 12.979 17.5002C12.9944 17.5069 13.008 17.5169 13.0191 17.5295C13.0307 17.5415 13.0396 17.5559 13.0452 17.5717C13.0507 17.5875 13.0527 17.6043 13.0511 17.6209C13.0489 17.6567 13.0328 17.6901 13.0062 17.7141C12.9938 17.7263 12.9791 17.7359 12.963 17.7424C12.9468 17.749 12.9296 17.7522 12.9122 17.7521C12.8955 17.7524 12.879 17.7492 12.8637 17.7426C12.8484 17.7361 12.8347 17.7263 12.8235 17.7141C12.8121 17.7016 12.8034 17.6868 12.798 17.6708C12.7927 17.6548 12.7907 17.6378 12.7924 17.6209C12.7944 17.5856 12.8102 17.5525 12.8363 17.5286V17.5286" fill="#15366F"/>
    <path fill-rule="evenodd" clip-rule="evenodd" d="M13.0869 17.7513L13.1774 17.3553L13.2277 17.3587C13.2263 17.4 13.2283 17.4413 13.2336 17.4822C13.2408 17.524 13.2584 17.5634 13.2846 17.5968C13.3072 17.6261 13.3359 17.65 13.3687 17.6668C13.4024 17.6826 13.4392 17.6905 13.4764 17.69C13.5074 17.6915 13.5384 17.6862 13.5672 17.6746C13.596 17.663 13.622 17.6454 13.6434 17.6229C13.6841 17.5799 13.7084 17.524 13.7123 17.465C13.7175 17.3908 13.6525 17.297 13.5174 17.1837C13.4626 17.147 13.4169 17.0984 13.3837 17.0414C13.3505 16.9845 13.3307 16.9207 13.3258 16.855C13.3282 16.8074 13.34 16.7608 13.3605 16.7178C13.3811 16.6748 13.4099 16.6363 13.4453 16.6044C13.4808 16.5726 13.5222 16.5481 13.5672 16.5323C13.6121 16.5166 13.6598 16.5099 13.7074 16.5126C13.7396 16.5127 13.7717 16.5159 13.8033 16.5222C13.8223 16.5257 13.8411 16.5305 13.8594 16.5368L13.9028 16.5515L13.9322 16.5592C13.9412 16.5608 13.9503 16.5617 13.9594 16.5618C13.9763 16.5627 13.9931 16.5583 14.0073 16.549C14.019 16.5399 14.0292 16.5291 14.0376 16.517H14.0897L13.9943 16.8707L13.9487 16.8647L13.9466 16.8068C13.9445 16.7573 13.9306 16.7091 13.906 16.6662C13.8886 16.6363 13.8631 16.6118 13.8326 16.5955C13.8021 16.5792 13.7676 16.5717 13.733 16.5738C13.7034 16.5721 13.6739 16.5781 13.6473 16.5911C13.6207 16.6041 13.5978 16.6237 13.5809 16.6481C13.5588 16.6793 13.5456 16.716 13.5429 16.7542C13.5394 16.7915 13.5479 16.829 13.5672 16.8612C13.5811 16.8821 13.5979 16.9009 13.617 16.9172L13.7595 17.0423C13.8095 17.0859 13.8521 17.1371 13.8858 17.1942C13.92 17.2525 13.935 17.32 13.9288 17.3873C13.9203 17.4847 13.8749 17.5751 13.8019 17.6401C13.7608 17.6781 13.7125 17.7077 13.6598 17.7269C13.6072 17.7461 13.5512 17.7547 13.4952 17.7521C13.463 17.7521 13.4309 17.7489 13.3993 17.7427C13.3676 17.7369 13.3365 17.7281 13.3064 17.7167L13.263 17.7004C13.2533 17.6961 13.2433 17.6927 13.233 17.69L13.2136 17.6874C13.2058 17.6868 13.1979 17.6877 13.1906 17.6902C13.1832 17.6928 13.1764 17.6968 13.1706 17.7021C13.1583 17.7171 13.148 17.7336 13.1399 17.7513H13.087" fill="#15366F"/>
    <path fill-rule="evenodd" clip-rule="evenodd" d="M13.9905 17.5287C14.0157 17.5042 14.0494 17.4906 14.0845 17.4907C14.1013 17.4902 14.1179 17.4935 14.1332 17.5002C14.1485 17.5069 14.1622 17.5169 14.1732 17.5295C14.1849 17.5415 14.1938 17.5559 14.1993 17.5717C14.2048 17.5875 14.2069 17.6043 14.2054 17.6209C14.2031 17.6567 14.187 17.6901 14.1605 17.7141C14.148 17.7263 14.1334 17.7359 14.1172 17.7424C14.1011 17.7489 14.0838 17.7522 14.0664 17.7521C14.0498 17.7524 14.0333 17.7492 14.018 17.7427C14.0027 17.7361 13.989 17.7264 13.9777 17.7141C13.9663 17.7016 13.9577 17.6868 13.9523 17.6708C13.9469 17.6548 13.945 17.6378 13.9466 17.6209C13.9487 17.5856 13.9644 17.5525 13.9905 17.5286V17.5286" fill="#15366F"/>
    <path fill-rule="evenodd" clip-rule="evenodd" d="M18.628 16.7807C18.6876 16.6996 18.7648 16.633 18.8538 16.5859C18.9429 16.5388 19.0414 16.5125 19.1421 16.509C19.2569 16.5048 19.3687 16.5461 19.4531 16.624C19.4942 16.6644 19.5263 16.7131 19.5472 16.7668C19.5682 16.8205 19.5776 16.878 19.5748 16.9356C19.5709 17.1369 19.4945 17.3301 19.3598 17.4797C19.2988 17.5631 19.2195 17.6313 19.128 17.6792C19.0364 17.727 18.9351 17.7532 18.8319 17.7557C18.7758 17.758 18.7198 17.749 18.6673 17.7292C18.6148 17.7094 18.5667 17.6793 18.526 17.6407C18.4863 17.6 18.4554 17.5516 18.4353 17.4984C18.4151 17.4453 18.406 17.3886 18.4087 17.3318C18.4127 17.1276 18.4907 16.9318 18.628 16.7807L18.628 16.7807ZM18.6821 17.588C18.6922 17.62 18.7126 17.6479 18.7402 17.6671C18.7678 17.6863 18.8009 17.6959 18.8345 17.6944C18.9049 17.6939 18.9724 17.6663 19.0231 17.6174C19.1006 17.5314 19.1603 17.4308 19.1985 17.3214C19.2374 17.2278 19.2676 17.1308 19.2885 17.0316C19.3076 16.9507 19.3185 16.8681 19.3212 16.785C19.3227 16.7309 19.3074 16.6777 19.2774 16.6327C19.2621 16.6112 19.2415 16.5941 19.2177 16.5828C19.1939 16.5716 19.1675 16.5668 19.1412 16.5687C18.9957 16.5687 18.8731 16.6993 18.7737 16.9607C18.7072 17.118 18.669 17.2858 18.6607 17.4564C18.6595 17.5012 18.6668 17.5459 18.6821 17.588V17.588" fill="#15366F"/>
    <path fill-rule="evenodd" clip-rule="evenodd" d="M16.1814 17.2985L16.1761 16.8676L15.8567 17.2984L16.1814 17.2985V17.2985ZM15.3999 17.6947C15.4268 17.6879 15.4526 17.6771 15.4764 17.6627C15.5109 17.6365 15.541 17.605 15.5656 17.5693L16.3611 16.5276H16.4064L16.434 17.5407C16.4303 17.5839 16.4385 17.6273 16.4578 17.6662C16.4876 17.6865 16.5232 17.6965 16.5592 17.6947L16.5533 17.7371H16.0213L16.0272 17.6947C16.065 17.6938 16.1022 17.6856 16.1368 17.6704C16.1495 17.6617 16.1599 17.6502 16.1673 17.6366C16.1747 17.6231 16.1787 17.608 16.1791 17.5926C16.181 17.5794 16.1822 17.5477 16.1829 17.4975C16.1832 17.4871 16.1835 17.4441 16.1837 17.3685H15.8059L15.678 17.5485C15.6691 17.5612 15.661 17.5744 15.6538 17.5882C15.647 17.6012 15.6425 17.6153 15.6403 17.6299C15.6369 17.654 15.6418 17.6696 15.6552 17.6765C15.684 17.6867 15.714 17.6928 15.7445 17.6947L15.7386 17.7371H15.394L15.4 17.6947" fill="#15366F"/>
    <path fill-rule="evenodd" clip-rule="evenodd" d="M13.1624 15.2404L13.0698 15.1867C12.9118 15.1567 12.7686 15.0742 12.6635 14.9525C12.9138 14.8766 13.1467 14.752 13.3487 14.5859C13.3487 14.5859 13.1824 14.5333 13.1513 14.4492C13.1513 14.4492 13.6705 14.2923 13.7223 14.1874C13.7223 14.1874 12.6316 13.9661 12.4443 13.5568C12.4443 13.5568 11.8523 13.5458 11.6442 13.1678C11.4362 12.7899 11.6235 13.1469 11.6235 13.1469C11.5021 13.1692 11.3767 13.1515 11.2661 13.0966C11.1556 13.0416 11.0659 12.9523 11.0104 12.842C10.8895 12.8396 10.7707 12.81 10.6628 12.7554C10.5548 12.7008 10.4606 12.6227 10.387 12.5267C10.0492 12.488 9.73067 12.3488 9.47272 12.1272C9.02657 12.0613 8.60653 11.8761 8.25707 11.591C7.87251 11.1814 8.25707 11.5701 8.25707 11.5701C7.92552 11.5545 7.61283 11.4113 7.38432 11.1706C6.92996 11.1369 6.5059 10.93 6.19982 10.5925C5.65737 10.5175 5.15595 10.2621 4.77635 9.86739C4.24032 9.7968 3.72809 9.60237 3.28022 9.2995C2.71908 8.84783 2.80622 8.88992 2.80622 8.88992L11.6482 8.89731C12.1929 8.8813 12.7344 8.98533 13.2343 9.20203C13.7343 9.41873 14.1804 9.74279 14.5411 10.1512C14.7016 10.3775 14.9112 10.5646 15.1542 10.6985C15.3972 10.8324 15.6673 10.9097 15.9444 10.9245C16.2215 10.9392 16.4983 10.8912 16.7542 10.7839C17.0101 10.6767 17.2384 10.5129 17.4221 10.305C17.7922 9.84774 18.2642 9.48347 18.8003 9.24131C19.3364 8.99915 19.9218 8.88582 20.5095 8.91038C22.4801 8.91194 29.1986 8.91751 29.1986 8.91751C28.6243 9.43927 27.9128 9.7861 27.148 9.91715C26.7506 10.3106 26.2381 10.5671 25.685 10.6494C25.336 11.0084 24.8703 11.2309 24.3717 11.277C24.2554 11.4094 24.1142 11.5176 23.956 11.5954C23.7979 11.6732 23.626 11.7191 23.4501 11.7304C23.3382 11.8713 23.1939 11.983 23.0293 12.0558C22.8648 12.1287 22.6851 12.1606 22.5056 12.1488C21.8142 12.1598 22.4825 12.1603 22.4825 12.1603C22.3573 12.3324 22.1949 12.474 22.0074 12.5746C21.8199 12.6753 21.6122 12.7324 21.3996 12.7417C20.6391 12.7993 21.3767 12.7416 21.3767 12.7416C21.1876 12.9201 20.9443 13.0305 20.6855 13.0555C20.1555 13.1598 20.6508 13.0555 20.6508 13.0555C20.6508 13.0555 20.5588 13.3465 19.9597 13.4042C19.3604 13.4619 19.9135 13.4157 19.9135 13.4157C19.9135 13.4157 19.8447 13.5903 19.5104 13.6367C19.1192 14.0112 18.6189 14.2514 18.082 14.3225C18.082 14.3225 18.0327 14.5799 17.5373 14.9404C17.6145 15.0579 17.6629 15.192 17.6786 15.3318V15.3244C17.6786 15.3244 17.7232 15.1572 17.6638 15.4246C17.6043 15.6923 17.0829 15.926 17.0829 15.926C17.4071 15.3711 17.0494 15.3171 17.0494 15.3171C17.1291 15.6383 16.4605 15.892 16.4605 15.892C16.7781 15.4574 16.4336 15.2898 16.4336 15.2898C16.5332 15.7248 15.7983 15.8446 15.7983 15.8446C16.1886 15.3634 15.6854 15.2209 15.6854 15.2209L15.2152 15.2204C15.2553 15.8159 14.527 15.9641 14.527 15.9641C14.9107 15.4157 14.52 15.3417 14.52 15.3417C14.6063 15.7432 13.9907 15.9501 13.9907 15.9501C14.2949 15.3549 13.8776 15.2878 13.8776 15.2878C14.0503 15.7563 13.0838 16.0498 13.2227 15.9629C13.3617 15.876 13.4673 15.4948 13.4673 15.4948C13.5732 15.3544 13.1624 15.2403 13.1624 15.2403" fill="url(#paint1_linear_1068_563)"/>
    <path fill-rule="evenodd" clip-rule="evenodd" d="M7.61132 9.10583C7.73945 9.29862 7.92533 9.44588 8.14232 9.52649H5.07032C5.07032 9.52649 3.72697 9.54749 3.36255 9.10583H7.61132Z" fill="white"/>
    <path fill-rule="evenodd" clip-rule="evenodd" d="M9.17122 9.92612C9.30345 10.1113 9.4886 10.2521 9.70235 10.33H6.91358C6.91358 10.33 5.57022 10.3678 5.20581 9.92612H9.17122Z" fill="white"/>
    <path fill-rule="evenodd" clip-rule="evenodd" d="M10.5042 10.6413C10.6469 10.8059 10.8299 10.9305 11.0353 11.0031H8.24653C8.24653 11.0031 6.93446 11.041 6.53876 10.6413H10.5042" fill="white"/>
    <path fill-rule="evenodd" clip-rule="evenodd" d="M11.4123 11.1987C11.5783 11.3086 11.7566 11.399 11.9434 11.4679H9.4961C8.91408 11.5025 8.33146 11.4107 7.78833 11.1987H11.4123" fill="white"/>
    <path fill-rule="evenodd" clip-rule="evenodd" d="M12.3912 11.7139C12.5225 11.816 12.6715 11.893 12.8306 11.9412H10.475C9.89587 11.9954 9.31199 11.9177 8.76721 11.7139H12.3911" fill="white"/>
    <path fill-rule="evenodd" clip-rule="evenodd" d="M13.1743 12.1451C13.1743 12.1451 13.1785 12.2145 13.5637 12.3723H11.4331C10.854 12.4265 10.2701 12.3488 9.72534 12.1451H13.1743" fill="white"/>
    <path fill-rule="evenodd" clip-rule="evenodd" d="M14.124 12.5764C14.124 12.5764 13.9615 12.5953 14.3469 12.7531H12.3495C11.7859 12.7713 11.2224 12.7119 10.675 12.5764H14.124" fill="white"/>
    <path fill-rule="evenodd" clip-rule="evenodd" d="M14.3157 12.9255C14.3157 12.9255 14.4738 12.8604 14.1971 13.1021H13.0077C12.444 13.1204 11.8805 13.061 11.3331 12.9255H14.3157" fill="white"/>
    <path fill-rule="evenodd" clip-rule="evenodd" d="M14.0784 13.2935C14.0784 13.2935 14.2365 13.1947 13.9597 13.4366H13.6533C13.0911 13.4716 12.5268 13.4233 11.9787 13.2935H14.0784" fill="white"/>
    <path fill-rule="evenodd" clip-rule="evenodd" d="M13.7952 13.5754C13.7952 13.5754 13.9534 13.4766 13.6767 13.7185H13.3703C13.0903 13.7419 12.809 13.6926 12.5537 13.5754H13.7952Z" fill="white"/>
    <path fill-rule="evenodd" clip-rule="evenodd" d="M24.3564 9.10583C24.2282 9.29861 24.0423 9.44586 23.8253 9.52649H26.8973C26.8973 9.52649 28.2408 9.54749 28.6052 9.10583H24.3564Z" fill="white"/>
    <path fill-rule="evenodd" clip-rule="evenodd" d="M22.7963 9.92612C22.6641 10.1112 22.479 10.252 22.2653 10.33H25.054C25.054 10.33 26.3975 10.3678 26.7619 9.92612H22.7963Z" fill="white"/>
    <path fill-rule="evenodd" clip-rule="evenodd" d="M21.4634 10.6413C21.3207 10.8059 21.1377 10.9306 20.9323 11.0031H23.7213C23.7213 11.0031 25.0332 11.041 25.429 10.6413H21.4634Z" fill="white"/>
    <path fill-rule="evenodd" clip-rule="evenodd" d="M20.5553 11.1987C20.5553 11.1987 20.6657 11.2359 20.6657 11.4426L22.4715 11.4427C23.0518 11.4891 23.6352 11.4057 24.1793 11.1987H20.5553" fill="white"/>
    <path fill-rule="evenodd" clip-rule="evenodd" d="M18.503 13.0479C18.503 13.0479 18.5175 12.9454 18.4015 13.1798L18.8365 13.1878C19.3987 13.2227 19.9629 13.1745 20.511 13.0447L18.503 13.048" fill="white"/>
    <path fill-rule="evenodd" clip-rule="evenodd" d="M18.2274 13.6337C18.2274 13.6337 18.0142 13.5355 18.2911 13.7774H18.5975C18.8775 13.8007 19.1587 13.7514 19.414 13.6343L18.2274 13.6337" fill="white"/>
    <path fill-rule="evenodd" clip-rule="evenodd" d="M16.1394 11.0708H19.8515C19.8515 11.0708 20.388 11.0269 20.446 11.4808C20.446 11.4808 20.4896 11.5834 20.3445 11.598C20.1995 11.6127 18.8366 11.598 18.8366 11.598L18.706 11.7592H19.721C19.7429 11.7561 19.7651 11.7581 19.786 11.7652C19.8068 11.7722 19.8258 11.784 19.8413 11.7997C19.8568 11.8153 19.8684 11.8344 19.8752 11.8553C19.882 11.8762 19.8839 11.8985 19.8806 11.9203L20.5186 11.642H21.1566C21.1566 11.642 21.8961 11.5834 21.8091 12.4182C21.7586 12.2949 21.6684 12.192 21.5529 12.1257C21.4374 12.0594 21.303 12.0334 21.1711 12.052H19.692L19.5615 12.2131L21.2291 12.2278C21.2291 12.2278 21.5915 12.257 21.6786 12.5207H19.3874C19.3874 12.5207 19.2715 12.3742 18.967 12.4914C18.6625 12.6086 18.938 12.4914 18.938 12.4914C18.938 12.4914 18.213 12.96 17.865 12.9016C17.5168 12.8428 17.4298 12.6526 17.6184 12.4621C17.6184 12.4621 16.792 12.55 17.4153 12.1106C17.4153 12.1106 16.9658 11.9496 17.7489 11.5689H16.9514C16.6699 11.5469 16.4065 11.4217 16.2118 11.2173C15.9944 10.9097 16.1394 11.0708 16.1394 11.0708" fill="white"/>
    <path fill-rule="evenodd" clip-rule="evenodd" d="M19.0058 12.7078C19.0058 12.7078 18.967 12.6672 18.7205 12.8508H19.4309C19.4309 12.8508 20.852 12.9601 21.1055 12.7078H19.0058" fill="white"/>
    <path fill-rule="evenodd" clip-rule="evenodd" d="M21.8152 11.6862C21.8152 11.6862 21.7801 11.6566 21.9337 11.9217H22.6141C22.8444 11.8973 23.0651 11.8164 23.2566 11.6862H21.8152Z" fill="white"/>
    <path fill-rule="evenodd" clip-rule="evenodd" d="M18.3001 13.3036C18.3001 13.3036 18.3146 13.2011 18.1985 13.4355L18.2564 13.4435C18.8181 13.5067 19.3866 13.4608 19.9308 13.3082L18.3001 13.3037" fill="white"/>
    <path fill-rule="evenodd" clip-rule="evenodd" d="M22.0121 12.1399L21.9975 12.3157C21.9975 12.3157 22.3166 12.2278 22.2731 12.1399H22.0121" fill="white"/>
    <path fill-rule="evenodd" clip-rule="evenodd" d="M8.54107 9.416C8.54107 9.416 8.07707 9.35228 7.97559 9.10583H12.0212C12.8769 9.17818 13.6788 9.5529 14.2832 10.1628C15.2548 11.1734 15.4722 11.0562 15.9219 11.1002L16.1249 11.4225C15.9053 11.4497 15.6826 11.4088 15.4869 11.3053H12.2822C12.2822 11.3053 11.8617 11.3053 11.7602 11.1441H15.1388C14.9746 11.077 14.8226 10.9829 14.6893 10.8658H11.6153C11.6153 10.8658 10.9773 10.8951 10.8757 10.6462H14.3413C14.2163 10.425 14.0229 10.2503 13.7903 10.1483H9.97664C9.97664 10.1483 9.61422 10.1337 9.49818 9.91395H13.5582C13.2744 9.67937 12.9429 9.50946 12.5867 9.41604H8.54107" fill="white"/>
    <path fill-rule="evenodd" clip-rule="evenodd" d="M13.0797 11.8471C12.9489 11.8196 12.8253 11.7646 12.7173 11.6859H15.7623C15.9278 11.5867 16.1217 11.5455 16.3133 11.5689C16.3133 11.5689 16.5163 11.7005 16.6033 11.6712C16.4386 11.811 16.2463 11.9145 16.0389 11.9751C15.8316 12.0356 15.6138 12.0519 15.3998 12.0228C15.4064 11.9816 15.4231 11.9427 15.4483 11.9094C15.4736 11.8762 15.5067 11.8497 15.5447 11.8324L13.0796 11.8471" fill="white"/>
    <path fill-rule="evenodd" clip-rule="evenodd" d="M16.7775 11.7006H17.256C17.256 11.7006 17.2415 11.9789 16.56 11.9496L16.7776 11.7006" fill="white"/>
    <path fill-rule="evenodd" clip-rule="evenodd" d="M17.0964 12.0375C16.9667 12.1052 16.8224 12.1404 16.676 12.1399C16.5855 12.2644 16.466 12.3649 16.3279 12.4328C16.4847 12.4788 16.652 12.4738 16.8058 12.4185C16.9595 12.3632 17.0918 12.2606 17.1835 12.1254L17.0965 12.0375" fill="white"/>
    <path fill-rule="evenodd" clip-rule="evenodd" d="M16.3714 11.9935C16.1907 12.0813 15.9923 12.1264 15.7914 12.1254C15.7195 12.2568 15.6207 12.3715 15.5015 12.4621C15.688 12.5024 15.882 12.4895 16.0615 12.4247C16.241 12.36 16.3986 12.246 16.5165 12.0959L16.3715 11.9935" fill="white"/>
    <path fill-rule="evenodd" clip-rule="evenodd" d="M17.0384 12.4475C16.9324 12.4999 16.8204 12.5392 16.705 12.5647C16.5454 12.594 16.676 12.5793 16.676 12.5793C16.6617 12.6293 16.6358 12.6752 16.6006 12.7133C16.5653 12.7514 16.5216 12.7808 16.4729 12.7989C16.5993 12.8724 16.7479 12.8981 16.8916 12.8713C17.0354 12.8444 17.1647 12.7668 17.256 12.6526C17.256 12.6526 17.053 12.5647 17.053 12.4914C17.053 12.4182 17.0385 12.4475 17.0385 12.4475" fill="white"/>
    <path fill-rule="evenodd" clip-rule="evenodd" d="M16.1974 12.5354C16.0615 12.5823 15.9202 12.6118 15.7769 12.6233C15.7618 12.6735 15.7337 12.7189 15.6955 12.7548C15.6573 12.7908 15.6104 12.8161 15.5594 12.8282C15.3709 12.8868 15.5305 12.8282 15.5305 12.8282C15.6887 12.893 15.8633 12.9067 16.0297 12.8673C16.1961 12.828 16.346 12.7375 16.4584 12.6087L16.1974 12.5354Z" fill="white"/>
    <path fill-rule="evenodd" clip-rule="evenodd" d="M16.3714 12.8868C16.2029 12.9967 16.0164 13.076 15.8204 13.1212C15.8204 13.1212 16.1249 13.5605 16.9224 13.0479C16.9224 13.0479 16.5164 13.0333 16.4439 12.9454C16.3714 12.8576 16.3714 12.8868 16.3714 12.8868" fill="white"/>
    <path fill-rule="evenodd" clip-rule="evenodd" d="M16.4439 13.3995C16.369 13.5071 16.2627 13.5889 16.1394 13.6337C15.9654 13.6777 16.0959 13.6484 16.0959 13.6484C16.2531 13.6832 16.4172 13.668 16.5654 13.605C16.7136 13.542 16.8383 13.4343 16.9224 13.297C17.0964 13.0333 16.7194 13.3849 16.4439 13.3995Z" fill="white"/>
    <path fill-rule="evenodd" clip-rule="evenodd" d="M16.1683 13.414C16.1683 13.414 15.7913 13.4288 15.7478 13.2529C15.6101 13.3288 15.4556 13.3692 15.2983 13.3702C15.1243 13.3409 15.2693 13.3702 15.2693 13.3702C15.2325 13.4704 15.1603 13.5537 15.0663 13.6044C15.2181 13.6777 15.3866 13.7095 15.5546 13.6966C15.7227 13.6837 15.8844 13.6267 16.0233 13.5312C16.4584 13.1944 16.1683 13.414 16.1683 13.414" fill="white"/>
    <path fill-rule="evenodd" clip-rule="evenodd" d="M15.3564 12.9015C15.4717 12.9661 15.6012 13.0013 15.7334 13.004C15.7334 13.004 15.5158 13.3409 14.8924 13.1944C14.2689 13.0479 14.8634 13.1798 14.8634 13.1798C14.9399 13.1322 15.0084 13.0729 15.0664 13.004C15.1452 12.9848 15.2228 12.9603 15.2984 12.9307L15.3564 12.9015" fill="white"/>
    <path fill-rule="evenodd" clip-rule="evenodd" d="M15.3564 12.5207C15.3564 12.5207 15.3999 12.6233 15.574 12.594C15.4579 12.7138 15.3125 12.8012 15.1523 12.8474C14.992 12.8937 14.8224 12.8972 14.6604 12.8577C14.0079 12.7698 14.6314 12.8429 14.6314 12.8429C14.777 12.7736 14.9095 12.6795 15.0229 12.5647L15.3565 12.5207" fill="white"/>
    <path fill-rule="evenodd" clip-rule="evenodd" d="M14.5008 12.9601C14.5008 12.9601 14.7763 13.0626 14.8199 13.0333C14.6868 13.138 14.5249 13.1993 14.3558 13.2091C14.0224 13.2529 14.3268 13.2091 14.3268 13.2091L14.5008 12.9601" fill="white"/>
    <path fill-rule="evenodd" clip-rule="evenodd" d="M14.7039 13.2677C14.7039 13.2677 14.9358 13.414 15.0518 13.3849C15.0518 13.3849 15.0228 13.7509 14.0224 13.6044C13.0218 13.458 13.9934 13.5898 13.9934 13.5898C14.2014 13.5085 14.4047 13.4156 14.6024 13.3116C14.7039 13.2384 14.7039 13.2677 14.7039 13.2677" fill="white"/>
    <path fill-rule="evenodd" clip-rule="evenodd" d="M15.487 12.1399C15.487 12.1399 15.5305 12.4182 14.8925 12.4768C14.2543 12.5354 14.8633 12.4768 14.8633 12.4768L14.9793 12.2719H13.7033C13.7033 12.2719 13.4568 12.2131 13.4133 12.1399H15.487" fill="white"/>
    <path fill-rule="evenodd" clip-rule="evenodd" d="M14.2978 12.55H14.6604C14.6604 12.55 14.6838 12.6399 14.5154 12.6965L14.2978 12.55" fill="white"/>
    <path fill-rule="evenodd" clip-rule="evenodd" d="M13.4858 14.5125C13.8327 14.3553 14.163 14.1639 14.4718 13.9412C14.4718 13.9412 15.1678 13.4726 15.3999 13.8681C15.6318 14.2635 14.3123 14.5711 14.3123 14.5711L13.4859 14.5125" fill="white"/>
    <path fill-rule="evenodd" clip-rule="evenodd" d="M13.4858 14.6736C13.7809 14.7408 14.086 14.7507 14.3848 14.7029C14.1922 14.8478 13.9716 14.9512 13.737 15.0067C13.5024 15.0621 13.2589 15.0684 13.0217 15.0251C12.2822 14.8493 13.0217 14.9957 13.0217 14.9957C13.1554 14.9312 13.2818 14.8527 13.3988 14.7614C13.5582 14.6297 13.4858 14.6736 13.4858 14.6736" fill="white"/>
    <path fill-rule="evenodd" clip-rule="evenodd" d="M13.3408 15.2301C13.3408 15.2301 13.8338 14.9958 13.5872 15.3765L13.3408 15.2301Z" fill="white"/>
    <path fill-rule="evenodd" clip-rule="evenodd" d="M13.9063 15.2741C13.9063 15.2741 14.4573 14.8932 14.2398 15.3765C14.2398 15.3765 14.1094 15.2301 14.0224 15.2887C13.9353 15.3473 13.9934 15.2887 13.9934 15.2887L13.9064 15.2741" fill="white"/>
    <path fill-rule="evenodd" clip-rule="evenodd" d="M14.5153 15.2887C14.5153 15.2887 14.9938 15.0397 14.8633 15.4059C14.8376 15.37 14.8019 15.3424 14.7606 15.3268C14.7193 15.3111 14.6743 15.3081 14.6313 15.318L14.5153 15.2887Z" fill="white"/>
    <path fill-rule="evenodd" clip-rule="evenodd" d="M16.1103 14.4978C16.501 14.2887 16.8744 14.0487 17.227 13.7802C17.227 13.7802 17.691 13.297 17.981 13.6191C18.2709 13.9413 17.314 14.3953 17.1399 14.4539C16.7983 14.4945 16.4541 14.5092 16.1103 14.4979V14.4979" fill="white"/>
    <path fill-rule="evenodd" clip-rule="evenodd" d="M16.0524 14.615C16.4006 14.6957 16.7627 14.6957 17.1109 14.615C16.9008 14.8255 16.6351 14.9717 16.3449 15.0365C16.0547 15.1014 15.752 15.0821 15.4723 14.9811C15.6439 14.911 15.805 14.8173 15.9509 14.7029C16.0814 14.5711 16.0524 14.615 16.0524 14.615" fill="white"/>
    <path fill-rule="evenodd" clip-rule="evenodd" d="M15.8784 15.2155C15.8784 15.2155 16.3714 14.9811 16.1249 15.3618L15.8784 15.2155" fill="white"/>
    <path fill-rule="evenodd" clip-rule="evenodd" d="M16.4874 15.2594C16.4874 15.2594 17.0384 14.8786 16.8209 15.3618C16.8209 15.3618 16.6905 15.2155 16.6034 15.2741C16.5164 15.3326 16.5743 15.2741 16.5743 15.2741L16.4874 15.2594Z" fill="white"/>
    <path fill-rule="evenodd" clip-rule="evenodd" d="M17.0529 15.2741C17.0529 15.2741 17.6474 14.9665 17.401 15.3911C17.3753 15.3551 17.3396 15.3276 17.2983 15.312C17.257 15.2964 17.212 15.2933 17.169 15.3032L17.053 15.274" fill="white"/>
    <path fill-rule="evenodd" clip-rule="evenodd" d="M16.8313 10.9667C17.308 10.6799 17.7478 10.3356 18.1405 9.94148C18.4302 9.64973 18.7801 9.4249 19.1659 9.28277C19.5516 9.14063 19.9638 9.08465 20.3735 9.11874H23.9117C23.9117 9.11874 23.9987 9.28243 23.4766 9.42893H19.721C19.721 9.42893 19.4746 9.2971 18.6625 9.86823L22.4906 9.88287C22.4906 9.88287 22.3311 10.1482 21.7511 10.1776L18.3579 10.1758L17.7344 10.6298C17.7344 10.6298 20.6636 10.6148 21.2274 10.6292C21.0101 10.7791 20.7534 10.8615 20.4895 10.866H17.4733C17.3434 10.9345 17.2029 10.9805 17.0577 11.0022C16.9804 11.0101 16.9024 10.9979 16.8312 10.9667V10.9667" fill="white"/>
    <path fill-rule="evenodd" clip-rule="evenodd" d="M21.3888 16.4712C21.5165 16.4708 21.6413 16.4327 21.7474 16.3615C21.8534 16.2904 21.936 16.1894 21.9848 16.0713C22.0335 15.9533 22.0462 15.8234 22.0212 15.6982C21.9962 15.5729 21.9346 15.4579 21.8443 15.3676C21.754 15.2773 21.639 15.2157 21.5137 15.1907C21.3884 15.1657 21.2586 15.1784 21.1405 15.2271C21.0225 15.2759 20.9215 15.3585 20.8503 15.4645C20.7792 15.5706 20.741 15.6954 20.7407 15.8231C20.7405 15.9083 20.7571 15.9927 20.7895 16.0714C20.822 16.1501 20.8698 16.2217 20.93 16.2819C20.9902 16.3421 21.0618 16.3899 21.1405 16.4224C21.2193 16.4548 21.3036 16.4714 21.3888 16.4712V16.4712ZM21.3888 16.386C21.2771 16.3898 21.1668 16.3601 21.072 16.3008C20.9772 16.2416 20.9023 16.1553 20.8568 16.0532C20.8113 15.9511 20.7973 15.8377 20.8167 15.7276C20.836 15.6175 20.8878 15.5156 20.9654 15.4351C21.0429 15.3546 21.1428 15.2991 21.2521 15.2757C21.3614 15.2523 21.4752 15.262 21.579 15.3037C21.6827 15.3454 21.7717 15.4171 21.8344 15.5096C21.8972 15.6021 21.9309 15.7113 21.9312 15.8231C21.934 15.896 21.9221 15.9688 21.8961 16.037C21.8701 16.1052 21.8306 16.1675 21.7799 16.2201C21.7293 16.2726 21.6685 16.3144 21.6013 16.3429C21.5341 16.3714 21.4618 16.3861 21.3888 16.386V16.386ZM21.4928 15.8521C21.6208 15.8486 21.7197 15.7957 21.7197 15.6542C21.7197 15.5348 21.655 15.4632 21.464 15.4632H21.1483V16.1847H21.237V15.8521H21.399L21.6055 16.1847H21.7113L21.4928 15.8521H21.4928ZM21.237 15.7821V15.5262H21.4435C21.5321 15.5262 21.6243 15.5399 21.6243 15.6525C21.6243 15.7991 21.4742 15.7821 21.3717 15.7821H21.237" fill="#87D8F7"/>
    <defs>
        <linearGradient id="paint0_linear_1068_563" x1="11.3161" y1="20.8734" x2="20.0912" y2="20.8734" gradientUnits="userSpaceOnUse">
            <stop stop-color="#D7D7D7"/>
            <stop offset="0.4" stop-color="white"/>
            <stop offset="1" stop-color="white"/>
        </linearGradient>
        <linearGradient id="paint1_linear_1068_563" x1="2.80137" y1="12.4339" x2="29.1987" y2="12.4339" gradientUnits="userSpaceOnUse">
            <stop stop-color="#C59A17"/>
            <stop offset="0.5" stop-color="#D7A819"/>
            <stop offset="1" stop-color="#DBAB19"/>
        </linearGradient>
    </defs>
</svg>
