<svg width="32" height="32" viewBox="0 0 32 32" fill="none" xmlns="http://www.w3.org/2000/svg">
    <g clip-path="url(#clip0_1247_1885)">
        <path d="M16 32C24.8366 32 32 24.8366 32 16C32 7.16344 24.8366 0 16 0C7.16344 0 0 7.16344 0 16C0 24.8366 7.16344 32 16 32Z" fill="white"/>
        <path d="M15.8238 21.6651C15.7078 21.406 15.414 21.4458 15.2472 21.6219C15.0744 21.6075 14.9796 21.4635 14.8466 21.3772C14.7359 21.3923 14.6261 21.4143 14.5181 21.4432C14.4173 21.4118 14.3182 21.3813 14.2183 21.35C14.2132 21.063 13.9253 21.0046 13.7204 21.157C13.4621 21.0968 13.4215 20.7547 13.1607 20.726L12.9286 20.842C12.9489 21.0918 13.1725 21.3475 12.9295 21.5533C12.921 21.3585 12.9312 21.1646 12.9278 20.9707C12.7042 20.7454 12.6746 20.4118 12.4858 20.1637C12.1386 20.2127 12.28 20.5998 12.0759 20.7801C12.027 20.6134 11.9413 20.4598 11.8252 20.3305C11.9836 20.1601 12.0812 19.9422 12.103 19.7106C11.979 19.6593 11.8447 19.6378 11.7109 19.6479C11.5467 19.7868 11.5915 20.0231 11.5535 20.2119C11.3917 19.8901 11.633 19.4904 11.3476 19.2102C11.5806 19.0865 11.5873 18.6843 11.3028 18.6292C11.1419 18.575 11.0479 18.7291 10.9463 18.8198C10.9056 18.702 10.8627 18.5855 10.8176 18.47C11.1496 18.4226 11.0005 18.0297 11.0632 17.7943C10.9078 17.7375 10.7412 17.7187 10.5771 17.7393C10.5929 17.6066 10.6256 17.4766 10.6745 17.3523C10.6474 17.3125 10.594 17.2337 10.5669 17.1948L10.7363 17.0101C10.6084 16.9712 10.4823 16.9306 10.3561 16.8882C10.3976 16.8433 10.4797 16.7536 10.5212 16.7087C10.6428 16.0514 10.5692 15.3728 10.3095 14.7568C10.4916 14.6315 10.4831 14.4232 10.4966 14.2258C10.6515 14.2209 10.8044 14.1897 10.9488 14.1336C10.8123 14.1126 10.6888 14.0408 10.6029 13.9326C10.517 13.8245 10.4751 13.6879 10.4856 13.5501C10.6963 13.6 10.9098 13.6367 11.125 13.6602C11.0885 13.54 11.0496 13.4205 11.014 13.2995C10.9624 13.2766 10.9115 13.2529 10.8607 13.2301C11.152 13.2546 11.2257 12.9235 11.3333 12.7219C11.5085 12.6796 11.7346 12.705 11.8379 12.5247C11.7092 12.4992 11.5797 12.4747 11.4509 12.451C11.4993 12.0287 11.5828 11.6112 11.7007 11.2028C11.7557 11.3476 11.81 11.4932 11.8684 11.6372L11.8481 11.8311C11.9963 11.9547 12.179 12.0298 12.3714 12.0462C12.2037 11.8506 11.9657 11.6626 11.9488 11.3866C11.9395 11.2418 12.1123 11.2045 12.1986 11.124C12.1979 10.8647 12.1663 10.6063 12.1046 10.3543C12.1055 10.0376 12.1156 9.72091 12.0852 9.40505C12.3231 9.74123 12.097 10.1942 12.3502 10.5279C12.3248 10.5491 12.2739 10.5914 12.2485 10.6134C12.3298 10.9462 12.1478 11.2934 12.2147 11.6414C12.4208 11.7151 12.6353 11.7626 12.8532 11.7828C12.7574 11.6325 12.6145 11.5181 12.4467 11.4576C12.429 11.3585 12.4369 11.2566 12.4695 11.1613C12.502 11.0661 12.5583 10.9807 12.633 10.9132C12.6364 11.0766 12.6356 11.2401 12.6322 11.4035C12.7812 11.3891 12.9302 11.3755 13.0784 11.3594C14.1423 10.7924 15.3371 10.5167 16.5418 10.5601C17.6147 10.6673 18.6378 11.0658 19.5006 11.7125C19.8925 11.9896 20.2414 12.3228 20.5362 12.7016C22.3492 11.6364 24.152 10.5541 25.965 9.49055C25.0373 8.14674 23.8437 7.00754 22.4581 6.1434C21.0725 5.27925 19.5244 4.70854 17.9094 4.46655C17.3922 4.42697 16.8794 4.34255 16.3767 4.21423C16.1902 4.28625 15.9931 4.3266 15.7933 4.33362C15.7196 4.23285 15.6781 4.06091 15.5249 4.06433C15.3572 4.05756 15.3081 4.25233 15.2209 4.35816C15.1802 4.36157 15.0989 4.36916 15.0574 4.37256C15.0854 4.30737 15.1142 4.24127 15.143 4.17523C15.0252 4.11597 14.9076 4.05585 14.789 3.99994H14.7653C14.6246 4.11576 14.5298 4.27786 14.4977 4.45722C14.2631 4.50891 14.1446 4.23029 13.9159 4.25822C13.8223 4.343 13.745 4.44432 13.6881 4.55711C13.6399 4.57579 13.5441 4.61211 13.4959 4.63084C13.5366 4.38945 13.3062 4.33952 13.1301 4.28953C12.991 4.4151 12.8993 4.5846 12.8701 4.7697C12.7355 4.8137 12.6 4.85606 12.4654 4.89927C12.39 4.75027 12.3528 4.5131 12.1419 4.50633C11.9031 4.52159 11.9429 4.8112 11.8142 4.9492C11.7157 5.09895 11.669 5.27682 11.6812 5.45561C11.7252 5.52501 11.7676 5.59532 11.8108 5.66642L11.65 5.76217C11.7186 5.44717 11.479 5.21596 11.401 4.93148C11.3663 4.77395 11.1656 4.75362 11.036 4.78921C10.9227 4.93375 10.8428 5.10152 10.8018 5.28054C10.7608 5.45956 10.7598 5.64542 10.799 5.82485C10.851 5.99258 10.8364 6.17391 10.7583 6.3312C10.5889 6.00692 10.6093 5.57332 10.2816 5.35061C10.115 5.42841 9.97217 5.54923 9.86782 5.7006C9.76348 5.85198 9.70138 6.02845 9.68794 6.21181C9.61771 6.21806 9.54939 6.23811 9.48692 6.27081C9.42445 6.30351 9.36904 6.34822 9.32387 6.40237C9.37704 6.57773 9.36988 6.76585 9.30354 6.93667C9.19935 6.74782 9.10536 6.55477 9.01054 6.36167C8.91569 6.35318 8.8217 6.34467 8.72685 6.33713C8.69385 6.20926 8.65995 6.08219 8.62608 5.95513C8.50334 5.97381 8.3433 5.93145 8.26963 6.06188C8.14598 6.18804 8.29163 6.36248 8.32975 6.49627C8.25433 6.61457 8.19882 6.74445 8.16545 6.88073C8.20689 7.08388 8.27852 7.27967 8.37797 7.4616C8.25394 7.44773 8.12859 7.45087 8.00541 7.47094C7.90787 7.5778 7.82757 7.69921 7.76741 7.8308C7.71102 7.81571 7.65164 7.81577 7.59527 7.83097C7.53891 7.84618 7.48756 7.876 7.44641 7.91741C7.40526 7.95882 7.37577 8.01036 7.36092 8.06681C7.34607 8.12327 7.34638 8.18265 7.36183 8.23895C7.4236 8.6607 7.23311 9.13152 7.4897 9.50835C7.48121 9.55914 7.4626 9.66076 7.45326 9.71154C7.39338 9.76713 7.34964 9.83787 7.32668 9.91629C7.30372 9.9947 7.30239 10.0779 7.32283 10.157C7.04986 10.3468 6.85516 10.6294 6.77498 10.9521C6.68947 11.1291 6.94349 11.1951 7.03749 11.2891C6.93922 11.395 6.83595 11.4949 6.73433 11.5974C6.6508 11.4946 6.57278 11.3874 6.50062 11.2764C6.50097 11.0782 6.4834 10.8803 6.44813 10.6853C6.52858 10.433 6.78175 9.97399 6.34138 9.93084C6.36171 9.85884 6.40156 9.71575 6.42189 9.64373C6.26436 9.5523 6.02473 9.33465 5.87312 9.53961C5.96946 9.69594 6.05218 9.86026 6.12037 10.0308C5.88496 10.3296 5.92311 10.7158 5.80794 11.0613C5.77577 11.0706 5.71052 11.0876 5.67836 11.096C5.76054 10.9904 5.80331 10.8595 5.79929 10.7258C5.79528 10.5921 5.74473 10.464 5.65636 10.3635C5.42016 10.4482 5.17284 10.6227 5.27026 10.9106C5.16498 10.9915 5.06433 11.0783 4.9688 11.1706C4.9024 10.9249 4.89716 10.6667 4.95354 10.4186C4.99505 10.0951 4.76049 9.8089 4.74187 9.48458C4.90868 9.30758 4.81298 9.05858 4.81127 8.84358C4.65627 8.85634 4.42681 8.80128 4.36162 8.99258C4.36009 9.10764 4.3649 9.2227 4.37603 9.33724C4.26479 9.81303 4.26799 10.3084 4.38537 10.7827C4.16094 11.0342 3.95937 11.3035 3.76043 11.5753C3.91026 11.7077 4.10022 11.7858 4.2998 11.7972C4.23125 11.7032 4.15588 11.6151 4.0898 11.5194C4.16363 11.3341 4.28375 11.1709 4.43867 11.0452C4.503 11.0698 4.63173 11.1181 4.69606 11.1426C4.75178 11.453 4.86433 11.7504 5.02806 12.0199C4.83586 11.8065 4.68339 12.1325 4.63511 12.2917C4.70121 12.3612 4.76725 12.4314 4.83329 12.5017C4.80368 12.7109 4.79517 12.9225 4.8079 13.1334L4.71983 13.053C4.70354 12.8352 4.64057 12.6235 4.5352 12.4322C4.43956 12.4542 4.34385 12.4755 4.24815 12.4966C4.22953 12.5923 4.21092 12.6888 4.19224 12.7845C4.18889 13.0657 3.93651 13.2714 3.98307 13.5704C3.89529 13.6128 3.81068 13.6614 3.7299 13.716C3.71253 13.8332 3.70489 13.9516 3.70707 14.07C3.48265 14.3604 3.63084 14.728 3.64607 15.0565C3.44453 14.9041 3.49617 14.6305 3.46144 14.4121C3.39612 14.0692 3.30121 13.7326 3.17775 13.4061C3.09664 13.0618 3.10629 12.7024 3.20575 12.3629C3.0965 12.307 2.98981 12.2181 2.85858 12.2392C2.7002 12.3324 2.72479 12.5297 2.68158 12.683C2.61383 12.8701 2.39789 13.0073 2.44788 13.2275C2.50155 13.6067 2.58077 13.9818 2.685 14.3503C2.52569 14.4924 2.38333 14.6523 2.26074 14.8271C2.34882 15.0032 2.45294 15.1827 2.67566 15.1886C2.62403 15.0693 2.56476 14.9524 2.51477 14.8321C2.6992 14.6472 2.8931 14.472 3.0957 14.3071C3.1084 14.2699 3.1347 14.1945 3.1482 14.1573C3.24133 14.474 3.29297 14.8008 3.37171 15.1209C3.44794 15.148 3.52417 15.176 3.60034 15.2039C3.70313 15.4483 3.71723 15.7208 3.6402 15.9745C3.60797 15.8145 3.75452 15.5071 3.50891 15.4715C3.23371 15.3674 3.19812 15.7526 3.25739 15.9321C3.13123 16.0109 2.96021 16.0931 2.98303 16.2734C3.01607 16.6264 3.02203 16.9814 3.00086 17.3353L3.12958 17.3463C3.07986 17.0938 3.10943 16.832 3.21424 16.5969C3.10248 17.2489 3.49201 17.8366 3.58002 18.47C3.5343 18.6019 3.53016 18.7447 3.56818 18.879C3.76118 18.7943 3.7367 18.5649 3.73499 18.3912C3.70538 18.0491 3.63086 17.7129 3.59278 17.3717C3.71637 17.519 3.82898 17.6766 3.96027 17.8188C3.95435 17.8688 3.94415 17.9695 3.93827 18.0195C3.98827 18.039 4.08818 18.0771 4.1381 18.0965C4.1627 18.155 4.21098 18.2727 4.23552 18.3311C4.10891 18.5141 3.99814 18.7076 3.9044 18.9095C3.81297 18.9569 3.72148 19.0035 3.6309 19.0517C3.76213 19.1703 3.89 19.2922 4.01957 19.4116C4.00517 19.3329 3.97471 19.1762 3.95945 19.0974L4.07969 19.089C4.19743 19.4624 4.17961 19.8638 4.33122 20.2271C4.24485 20.4642 4.25499 20.7216 4.18722 20.963C4.12259 20.7447 4.02585 20.5372 3.90017 20.3473C3.8976 20.222 3.8951 20.0976 3.8951 19.9731C3.75197 19.9756 3.5741 19.9256 3.4751 20.0611C3.41919 20.1619 3.45056 20.2872 3.4353 20.3981C3.12622 20.4819 3.26764 20.8063 3.27698 21.0315C3.28119 21.3118 3.24225 21.5921 3.27098 21.8732C3.07662 22.248 2.95698 22.657 2.91874 23.0774C3.09946 23.0523 3.2705 22.9805 3.41496 22.8691C3.35142 22.8564 3.22526 22.8301 3.16178 22.8166C3.24189 22.4722 3.3864 22.1461 3.58769 21.8555C3.70628 22.1391 3.76127 22.4431 3.85533 22.7361C3.96072 22.7489 4.06764 22.736 4.16699 22.6986C4.26634 22.6612 4.35518 22.6003 4.42596 22.5212C4.29211 22.5178 4.15917 22.5136 4.02624 22.5076C3.92632 22.3739 3.96783 22.1969 3.95599 22.0419C3.96191 21.7633 3.89499 21.4898 3.87634 21.2129C3.98644 21.2239 4.0957 21.2349 4.20574 21.2468C4.20831 21.2018 4.21252 21.1129 4.21423 21.0689C4.40307 21.1231 4.59106 21.1764 4.78161 21.2222C4.86456 21.4593 4.93993 21.7726 5.24224 21.8047C5.27195 22.0971 5.25131 22.3924 5.18124 22.6779C5.45309 22.522 5.45309 22.201 5.43868 21.9275C5.57162 21.9301 5.70626 21.931 5.84005 21.931C5.93957 22.0796 6.02545 22.2369 6.09664 22.401C5.9349 22.4145 5.77401 22.4255 5.61312 22.4272C5.52492 22.6568 5.47596 22.8995 5.46829 23.1453C5.58172 23.379 5.60989 23.645 5.54794 23.8973C5.43194 24.203 5.59365 24.5324 5.48694 24.8381C5.42095 25.1305 5.39248 25.4301 5.40223 25.7298C5.60123 25.6688 5.86292 25.6781 5.97723 25.4715C5.8485 25.4715 5.71893 25.4732 5.59023 25.4783C5.60279 25.2246 5.67041 24.9767 5.78841 24.7517C5.82736 24.7788 5.90441 24.8322 5.94341 24.8584C5.98571 24.828 6.07041 24.7661 6.11279 24.7356C6.22955 24.9461 6.37173 25.1415 6.53613 25.3174C6.7326 25.3047 6.96551 25.3394 7.0866 25.1463C6.87066 25.1074 6.56579 25.1633 6.48028 24.8999C6.34985 24.4477 5.9688 23.9879 6.23128 23.5069C6.14656 23.3472 6.04584 23.1966 5.93068 23.0573C6.04158 22.9887 6.20674 22.9548 6.22368 22.7998C6.24375 22.4652 6.20972 22.1295 6.12291 21.8057C6.1898 21.8599 6.32359 21.9674 6.39049 22.0216C6.2823 21.6584 6.24069 21.2785 6.26768 20.9005C6.30412 20.864 6.37694 20.7904 6.41337 20.7531C6.30196 20.5385 6.20986 20.3143 6.13817 20.0833C6.1898 19.9715 6.24317 19.8606 6.29649 19.7496C6.40149 19.9774 6.48955 20.2121 6.58696 20.4432C6.45567 20.4314 6.37779 20.4796 6.35325 20.5888C6.52446 20.6528 6.69988 20.7048 6.87825 20.7446C6.87739 20.1019 6.24568 19.4846 6.60304 18.8529C6.68642 19.0397 6.70402 19.2493 6.65297 19.4473C6.86806 19.3737 6.98323 19.5769 7.12465 19.6938C7.10853 19.8606 7.09584 20.028 7.08656 20.1959C6.79017 20.5549 6.99507 21.0318 6.89772 21.4475C6.87919 21.5234 6.87913 21.6026 6.89754 21.6785C6.91596 21.7543 6.95231 21.8247 7.00355 21.8836C6.97389 22.4222 6.51582 22.8066 6.50734 23.3519C6.73427 23.3985 7.01204 23.5391 7.20766 23.346C7.09166 23.3003 6.97475 23.2571 6.85707 23.2148C6.88667 22.7956 7.23555 22.4992 7.46931 22.1783C7.51331 22.3027 7.55568 22.4273 7.59798 22.5526C7.49839 22.7553 7.4413 22.9762 7.43024 23.2018C7.41917 23.4273 7.45436 23.6528 7.53364 23.8643C7.59835 24.09 7.6216 24.3255 7.60225 24.5595C7.52266 24.5527 7.36177 24.54 7.28132 24.5341C7.39947 24.6857 7.56153 24.7972 7.74538 24.8533C7.84529 24.4993 7.83595 24.1276 7.92995 23.7729C8.09965 24.2067 8.24414 24.6501 8.36268 25.1006C8.49055 25.0997 8.53147 25.0184 8.48543 24.8567C8.60402 24.8956 8.72342 24.934 8.84364 24.9719C8.87245 25.2395 8.65059 25.3894 8.49733 25.5689C8.85383 25.5969 9.00874 25.2014 9.24843 25.0058C9.19337 24.9863 9.08412 24.9456 9.02907 24.9253C9.07431 24.7826 9.13659 24.6458 9.21456 24.518C9.33796 24.7244 9.4439 24.9408 9.53127 25.1649C9.44959 25.4918 9.45367 25.8342 9.54311 26.159C9.58868 26.2175 9.64684 26.2649 9.71325 26.2977C9.77967 26.3305 9.85263 26.348 9.92672 26.3487C9.83573 26.2491 9.76807 26.1305 9.72867 26.0014C9.68927 25.8724 9.67912 25.7362 9.69894 25.6027C9.77992 25.4604 9.85177 25.3131 9.91403 25.1616C10.1375 25.4605 10.1147 25.8543 10.2468 26.1913C10.1698 26.4689 10.1401 26.7574 10.1587 27.0449C10.3095 27.0161 10.4602 26.9907 10.6109 26.9645C10.6287 26.9263 10.6626 26.8518 10.6795 26.8137C10.6109 26.8137 10.4737 26.812 10.406 26.8111C10.4136 26.6891 10.422 26.5673 10.4306 26.4453C10.5246 26.4478 10.7108 26.4513 10.804 26.453C10.7083 26.3835 10.6109 26.3158 10.5136 26.2497C10.5915 26.11 10.6728 25.9711 10.7557 25.834C10.8228 25.9684 10.8581 26.1164 10.859 26.2666C10.8684 26.6681 10.953 27.0652 10.9234 27.4674C11.2046 27.3319 11.1851 26.9687 11.4713 26.8349C11.5119 26.8789 11.5941 26.9661 11.6347 27.0102C11.7245 26.8899 11.8125 26.7688 11.8947 26.6435L11.6161 26.6469C11.6875 26.464 11.7972 26.2986 11.9379 26.1616C12.0947 26.4086 12.219 26.6747 12.3079 26.9534C12.2436 27.0906 12.1606 27.2176 12.0877 27.3506C12.1427 27.3472 12.252 27.3404 12.3062 27.3379C12.3198 27.4666 12.3358 27.5962 12.3545 27.7257C12.4174 27.6761 12.4672 27.6119 12.4996 27.5387C12.5321 27.4655 12.5462 27.3856 12.5408 27.3057C12.7559 27.3768 12.9718 27.4445 13.1903 27.5047C13.2072 27.6745 13.2474 27.8411 13.3097 28C13.3859 27.862 13.4579 27.7214 13.5307 27.5817C15.9547 28.122 18.4865 27.8987 20.7785 26.9424C22.4933 26.2184 24.0215 25.1147 25.2479 23.7144C25.5358 23.3681 25.8059 23.0073 26.0659 22.6389C24.2588 21.5711 22.4594 20.4889 20.6531 19.4194C20.0815 20.1472 19.3463 20.7298 18.5072 21.1201C17.668 21.5103 16.7487 21.697 15.8238 21.6651ZM12.9922 10.5203C12.9652 10.3353 12.9521 10.1485 12.9532 9.96145L12.9989 9.95894C13.1479 10.3298 13.0971 10.7448 13.2783 11.1055C13.2335 11.1503 13.1878 11.1936 13.1403 11.2351C13.0658 11.2155 12.9151 11.1766 12.8397 11.158C12.8123 10.934 12.8664 10.7077 12.9922 10.5203ZM12.5357 8.12984C12.5318 8.35583 12.5049 8.58083 12.4553 8.80135L12.324 8.8818C12.3408 8.61903 12.413 8.36279 12.5357 8.12984V8.12984ZM4.08804 16.3573C4.03469 16.2032 3.89327 16.0576 3.95339 15.8848C4.18374 15.8501 4.39626 16.2845 4.08804 16.3573ZM3.68069 20.5135C3.77469 20.5617 3.86869 20.6125 3.96269 20.6633C3.98974 20.783 4.00252 20.9055 4.00078 21.0283C3.84308 20.8942 3.73118 20.7142 3.68069 20.5135V20.5135ZM4.72396 17.1127C4.63219 17.0047 4.54816 16.8904 4.4725 16.7706C4.71468 16.5835 4.7206 16.9527 4.72396 17.1127ZM4.47164 14.6637C4.60297 14.8976 4.63704 15.1738 4.56649 15.4326C4.67537 15.7119 4.69922 16.0171 4.63503 16.3099C4.42336 16.1075 4.49282 15.7739 4.49197 15.5122C4.44499 15.2318 4.43814 14.9461 4.47164 14.6637V14.6637ZM4.37173 20.9072C4.39687 20.7941 4.42881 20.6827 4.46737 20.5735C4.58254 20.698 4.58169 20.8775 4.63589 21.03C4.54702 20.9902 4.45896 20.9495 4.37173 20.9072V20.9072ZM5.39718 17.9654C5.35513 18.1342 5.35281 18.3104 5.3904 18.4802C5.33114 18.4938 5.21175 18.5217 5.15164 18.5352C5.13131 18.7469 5.26764 18.951 5.19143 19.1636C5.16121 19.2456 5.15359 19.3342 5.16937 19.4202C5.18516 19.5061 5.22377 19.5862 5.28115 19.6522C5.28405 19.5076 5.32941 19.3672 5.41158 19.2482C5.42102 19.4459 5.44966 19.6421 5.49709 19.8342C5.48861 20.0019 5.32095 20.1077 5.24136 20.2457C5.25634 20.4271 5.30008 20.6049 5.37093 20.7725C5.27713 21.0519 5.23021 21.3449 5.23208 21.6396C5.10617 21.5011 4.99386 21.3508 4.89669 21.1908C4.89524 20.8757 4.84673 20.5626 4.75277 20.2618C4.83236 20.1475 4.92214 20.0391 4.99069 19.9171C5.06014 19.7393 4.99917 19.5276 5.11941 19.3676C4.98754 19.111 4.93564 18.8207 4.97041 18.5343C4.90181 18.4869 4.83152 18.442 4.75954 18.3997C4.86537 18.1558 4.64943 17.9415 4.65706 17.6951L4.9543 17.7053C4.91023 17.6291 4.86537 17.5529 4.82051 17.4775C4.92835 17.2908 4.98583 17.0792 4.98732 16.8636C5.28627 17.0313 5.40394 17.3827 5.56825 17.6647C5.45592 17.7307 5.33905 17.7888 5.21852 17.8383C5.26339 17.8697 5.35232 17.9332 5.39718 17.9654V17.9654ZM5.39889 16.5894L5.62582 16.5589C5.80196 16.7384 5.7579 16.9916 5.76638 17.2202C5.48611 17.1677 5.46578 16.8146 5.39889 16.5894ZM5.96706 19.7454C5.87306 19.6488 5.95944 19.5329 6.00179 19.4363C6.17965 19.4024 6.09408 19.7216 5.96706 19.7454V19.7454ZM5.89169 15.3878L5.79092 15.5156C5.77737 15.6342 5.76217 15.7527 5.7452 15.8704C5.54873 15.4792 5.79434 15.0617 5.68935 14.6519C5.85867 14.2894 5.58435 13.8965 5.53353 13.5273C5.67377 13.4982 5.80938 13.45 5.93661 13.3842C5.91036 13.2166 5.68761 13.3241 5.57839 13.2775C5.67755 13.1644 5.78667 13.0604 5.90444 12.9668C5.96963 12.6382 5.8663 12.3062 5.94167 11.9777C5.96367 11.9777 6.00857 11.9768 6.03146 11.976C5.9598 12.2459 5.96155 12.5301 6.03652 12.7991C6.09158 12.9642 6.22701 13.1174 6.18386 13.3012C6.12545 13.6738 6.19149 14.0498 6.14236 14.4224C6.18301 14.5621 6.22787 14.701 6.26089 14.8433C5.96196 14.8128 5.86379 15.1515 5.89169 15.3878V15.3878ZM11.2384 12.4671C11.1656 12.3571 11.0911 12.2478 11.014 12.1411C11.0945 12.059 11.1757 11.9768 11.257 11.8947C11.2377 12.0848 11.2315 12.2761 11.2384 12.4671V12.4671ZM11.1656 7.74538L11.2164 7.98501C11.268 7.89864 11.3205 7.81228 11.3731 7.72591C11.4077 7.71572 11.4772 7.69625 11.5111 7.68612C11.5238 7.84194 11.6864 8.12643 11.3985 8.13405L11.3747 7.89443C11.3137 7.9808 11.2536 8.06801 11.1969 8.15694C11.0258 8.06716 11.058 7.87581 11.1656 7.74538V7.74538ZM11.1198 11.7592C11.0005 11.8465 10.8489 11.6491 10.9768 11.5636C11.0979 11.4671 11.2494 11.6728 11.1198 11.7592V11.7592ZM10.821 6.54549C10.8719 6.69142 10.9082 6.84204 10.9294 6.99514C10.8768 7.00783 10.771 7.03408 10.7185 7.04677C10.7371 6.87911 10.6389 6.64706 10.821 6.54549ZM10.4848 13.4588C10.4467 13.2654 10.3891 13.0764 10.3128 12.8948C10.3163 12.7414 10.3364 12.5889 10.373 12.44C10.5308 12.7221 10.5941 13.0474 10.5534 13.3681C10.5364 13.391 10.5017 13.4359 10.4848 13.4588H10.4848ZM10.2375 9.93941C10.3201 10.0674 10.3858 10.2054 10.4331 10.3501C10.1681 10.3756 10.2121 10.1173 10.2375 9.93941H10.2375ZM10.1943 13.59C10.2972 13.728 10.3757 13.8827 10.4263 14.0473C10.3738 14.0777 10.3196 14.1065 10.2654 14.1345C10.2024 13.978 10.1032 13.8387 9.97586 13.7281C10.0309 13.6933 10.1401 13.6239 10.1943 13.59ZM9.37545 14.8416C9.48208 14.6841 9.56617 14.5126 9.62527 14.3318C9.66079 14.5308 9.65914 14.7357 9.70065 14.9347C9.66485 15.1737 9.58836 15.4049 9.47451 15.6181C9.43557 15.5444 9.39751 15.4699 9.35934 15.3962C9.40591 15.3657 9.49911 15.3065 9.54647 15.276C9.4974 15.1278 9.43136 14.9863 9.37545 14.8416V14.8416ZM9.76327 16.1219C9.70992 16.0804 9.60238 15.9975 9.54903 15.9559C9.56765 15.8289 9.69045 15.7967 9.79803 15.7739C9.84803 15.8856 9.89965 15.9983 9.95385 16.1083C9.78427 16.2363 9.63815 16.3928 9.52197 16.5707C9.477 16.4369 9.45108 16.2976 9.44497 16.1566C9.5245 16.1473 9.68368 16.1304 9.76327 16.1219V16.1219ZM9.48385 8.33474C9.66677 8.34914 9.7167 8.56844 9.80056 8.69887C9.90469 8.88943 9.75649 9.05453 9.62185 9.17387C9.65151 9.08073 9.68285 8.98845 9.71499 8.89702C9.60725 8.82994 9.48721 8.78501 9.3619 8.76487C9.42473 8.62873 9.46587 8.4836 9.48385 8.33474V8.33474ZM9.36696 10.7532C9.51033 11.0992 9.56083 11.4766 9.51344 11.8481L9.64809 11.8684C9.62184 12.0065 9.59901 12.1445 9.57783 12.2834C9.52363 12.2758 9.41524 12.2614 9.36189 12.2538C9.35933 12.092 9.42372 11.9235 9.34071 11.7711C9.41554 11.4367 9.42446 11.091 9.36696 10.7532V10.7532ZM9.46944 17.6496C9.46181 17.7334 9.45503 17.8172 9.44911 17.901C9.41859 17.9044 9.35847 17.9104 9.32802 17.9129C9.25349 17.8248 9.17897 17.7376 9.10615 17.6487C9.2264 17.6453 9.3475 17.6461 9.46945 17.6496H9.46944ZM8.98085 17.8181C8.77504 17.8951 8.88429 18.0704 9.05366 18.117C9.02566 18.2415 8.90883 18.3143 8.81148 18.382C8.81465 18.1428 8.73271 17.9102 8.58027 17.7258C8.69748 17.6108 8.7782 17.4638 8.81233 17.3032C8.75558 17.5073 8.6921 17.7808 8.98086 17.8181H8.98085ZM8.93507 18.4913C9.08879 18.6088 9.19701 18.776 9.24132 18.9644C9.28563 19.1527 9.26328 19.3506 9.17807 19.5244C9.09428 19.4846 9.02519 19.4194 8.98064 19.338C8.93609 19.2567 8.91836 19.1633 8.92997 19.0713C8.89443 18.8825 8.81655 18.6657 8.93508 18.4913H8.93507ZM8.80557 9.42373C8.66921 9.47373 8.6235 9.42879 8.66665 9.28908C8.79965 9.24081 8.84596 9.28569 8.80557 9.42373ZM8.78945 10.3662C8.90537 10.5191 9.00075 10.6865 9.07314 10.8642C8.90884 10.9717 8.90121 11.1572 8.87496 11.3324C8.80355 11.4181 8.7229 11.4956 8.63448 11.5636C8.64665 11.1604 8.69856 10.7593 8.78945 10.3662V10.3662ZM8.80045 11.9616C8.87245 12.1428 8.68784 12.2936 8.69632 12.4722C8.73598 12.7314 8.71364 12.9964 8.63114 13.2453C8.54154 12.7271 8.49761 12.2021 8.49985 11.6762C8.6921 11.6347 8.7861 11.7914 8.80044 11.9616H8.80045ZM8.42281 7.80971C8.33724 8.11371 8.36691 8.46688 8.14925 8.7192C8.14458 8.52118 8.1176 8.32432 8.06881 8.13235C8.19161 8.02993 8.30679 7.919 8.42281 7.80971ZM8.01888 9.69643C8.14588 9.57363 8.19924 9.81917 8.10525 9.88271C7.97653 10.008 7.90196 9.75905 8.01888 9.69643ZM7.74026 10.8184C7.80626 10.7913 7.93926 10.7371 8.00533 10.71C7.94943 10.6711 7.83767 10.5914 7.78176 10.5516C7.80123 10.5017 7.82156 10.4517 7.84188 10.4018C7.89352 10.3958 7.99688 10.3857 8.04849 10.3806C8.06798 10.5107 8.07734 10.642 8.07649 10.7735C7.93051 10.9644 7.79729 11.1647 7.67769 11.3731C7.67427 11.2477 7.66835 11.1224 7.66069 10.9971C7.69713 10.9869 7.77169 10.9674 7.80803 10.9573L7.74026 10.8184ZM7.55142 13.2334C7.72335 12.998 7.5057 12.705 7.64968 12.4594C7.72079 12.2689 7.56246 12.0419 7.73776 11.8811C7.74026 11.8176 7.74703 11.6906 7.75045 11.6271C7.97482 11.3739 8.14675 11.0783 8.38302 10.8344C8.38979 10.9691 8.39657 11.1046 8.40502 11.2392C8.27802 11.2325 8.04602 11.1766 8.03246 11.3713C7.99352 11.5102 7.95794 11.6499 7.91814 11.7888C7.87322 11.8218 7.7835 11.8879 7.73943 11.9209C7.85411 12.1822 7.86172 12.478 7.76061 12.7449C7.8521 13.1268 7.58617 13.4553 7.57348 13.8279C7.51738 13.7397 7.48576 13.6382 7.48189 13.5337C7.47801 13.4292 7.50201 13.3256 7.55142 13.2335V13.2334ZM7.18734 13.4553C7.22799 13.5832 7.27034 13.711 7.30843 13.8406C7.21359 13.7788 7.12043 13.7144 7.02981 13.6492C7.08144 13.5841 7.13396 13.5189 7.18734 13.4553V13.4553ZM6.88834 11.8726C6.93576 11.9564 6.98148 12.0412 7.02805 12.1258C6.74015 12.3816 6.87143 12.799 6.64957 13.0861C6.67864 12.8058 6.66636 12.5228 6.61313 12.2461C6.52767 12.0217 6.89938 12.0911 6.88839 11.8727L6.88834 11.8726ZM6.67325 16.5885C6.64957 16.6105 6.60125 16.6545 6.57755 16.6765C6.54795 16.4335 6.52677 16.1896 6.51999 15.9449C6.6055 15.9525 6.69272 15.9627 6.77909 15.9703C6.58779 16.1278 6.67074 16.3776 6.6733 16.5885L6.67325 16.5885ZM6.88071 15.7984C6.93747 15.6612 6.79264 15.6147 6.71732 15.5478C6.92984 15.6112 7.012 15.3725 7.10257 15.2302C7.26773 14.9304 6.9849 14.6603 6.82908 14.4283L7.04837 14.2496C6.97633 14.2009 6.91802 14.1346 6.87902 14.0569C6.84002 13.9792 6.82164 13.8927 6.82566 13.8059C6.96663 13.8943 7.10262 13.9904 7.23301 14.0938C7.24982 14.2023 7.29847 14.3033 7.37279 14.3842C7.44712 14.465 7.54377 14.5219 7.65049 14.5477C7.52005 14.6527 7.32449 14.7297 7.31349 14.9211C7.27619 15.1703 7.21027 15.4144 7.11702 15.6485C7.08229 15.7222 7.13649 15.7959 7.15596 15.8661C7.19655 15.7257 7.26703 15.5957 7.36256 15.4851C7.42283 15.9265 7.5174 16.3625 7.6454 16.7892C7.27114 16.5479 7.22201 16.0677 6.88076 15.7984L6.88071 15.7984ZM7.75971 18.6064C7.64539 18.3304 7.64118 17.8866 7.24659 17.8782C7.36151 17.6595 7.43364 17.421 7.45911 17.1753C7.50663 17.0843 7.54766 16.99 7.58191 16.8933C7.65571 16.9999 7.76298 17.0789 7.88672 17.1177C7.88565 16.8791 7.8535 16.6417 7.79108 16.4115L7.85208 16.4013C7.95536 16.5715 8.09848 16.7909 7.9545 16.9822C8.02817 16.9771 8.1755 16.9686 8.24924 16.9644C8.18412 16.6065 8.05778 16.2625 7.87577 15.9474C7.90877 15.8856 7.97568 15.762 8.0087 15.7002C8.06632 15.7087 8.18228 15.7247 8.24076 15.7332C8.11032 15.3072 8.41092 14.8643 8.21109 14.4545C8.14249 14.4427 8.00534 14.4173 7.93674 14.4054C7.85294 14.2538 8.00028 14.1378 8.07901 14.0269C7.95792 13.9337 7.72422 13.844 7.81229 13.6467C7.92618 13.4472 8.05173 13.2547 8.18829 13.07C8.40759 13.2775 8.38384 13.5925 8.44402 13.8643C8.46914 14.3006 8.46969 14.7379 8.44567 15.1743C8.6448 15.4963 8.71242 15.8826 8.63451 16.2531C8.51257 16.3488 8.37707 16.4259 8.25851 16.5249C8.41351 16.6774 8.54305 16.9094 8.79202 16.9001C8.74032 16.8196 8.68612 16.7401 8.63113 16.663C8.65313 16.6291 8.67513 16.5952 8.69713 16.5622C8.71349 16.6083 8.73925 16.6504 8.77278 16.686C8.80631 16.7216 8.84687 16.7498 8.89189 16.7688C8.87749 16.8578 8.86479 16.9475 8.85124 17.0373C8.73687 17.0138 8.62075 17 8.50407 16.9958C8.30846 17.0932 8.31181 17.3302 8.31096 17.5166C8.1992 17.5521 8.0612 17.5741 8.03831 17.7147C8.0197 17.9544 8.20341 18.1449 8.21867 18.3794C8.21077 18.6255 8.26524 18.8697 8.377 19.0891L8.34318 19.3025C8.04509 19.454 8.17039 19.8359 8.0739 20.1001L7.87065 20.2754C7.80119 20.1924 7.74699 20.0713 7.61235 20.0849C7.71312 20.0527 7.96208 20.1314 7.90788 19.9409C7.83098 19.4996 7.7815 19.0539 7.75973 18.6064L7.75971 18.6064ZM7.64626 21.7193C7.85885 21.6481 8.13406 21.8996 8.28903 21.6897C8.21786 21.5109 7.94943 21.61 7.79195 21.5626C7.71268 21.3409 7.66729 21.1085 7.65731 20.8733C7.80038 20.9631 7.94943 20.8903 8.08999 20.8513C8.04201 21.0191 8.01109 21.1913 7.9977 21.3653C8.12893 21.411 8.26022 21.455 8.39315 21.4982C8.44906 21.7726 8.18569 21.8869 8.06631 22.0867C8.18205 22.0963 8.29702 22.0608 8.38723 21.9877C8.3796 22.0766 8.37283 22.1655 8.36776 22.2553C8.26614 22.2451 8.16537 22.2358 8.06376 22.2265C8.08578 21.9505 7.8597 21.8243 7.64626 21.7193ZM8.38726 23.0835C8.50813 23.2647 8.56806 23.4798 8.55834 23.6975C8.48461 23.7119 8.33648 23.7398 8.26281 23.7542C8.25829 23.5245 8.30063 23.2963 8.38723 23.0835H8.38726ZM8.34996 24.1369C8.22288 24.0691 8.24996 23.8286 8.42363 23.8778C8.60061 23.9108 8.49307 24.175 8.34996 24.1369ZM8.44396 24.6662C8.43121 24.5264 8.34741 24.3884 8.36859 24.2495C8.44903 24.1801 8.55151 24.2478 8.6209 24.2977C8.52907 24.4019 8.46784 24.5294 8.44396 24.6662V24.6662ZM8.67852 24.1742C8.55993 24.2098 8.50829 24.0082 8.58618 23.9412C8.74032 23.8201 8.75643 24.0971 8.67855 24.1741L8.67852 24.1742ZM8.78352 20.7564C8.78352 20.4296 8.84706 20.0307 8.5439 19.8106C8.55747 19.6203 8.60628 19.4343 8.68782 19.2619C8.79375 19.4828 8.92474 19.6908 9.0782 19.8817C9.1324 19.869 9.24165 19.8444 9.29671 19.8326C9.20015 20.0274 9.03078 20.1959 9.02064 20.4254C9.03079 20.5863 8.89108 20.6667 8.78353 20.7564L8.78352 20.7564ZM9.10023 23.4518C9.07313 23.4019 9.01979 23.3028 8.99269 23.2537C9.01699 23.1761 9.02404 23.0941 9.01336 23.0135C9.00268 22.933 8.97452 22.8557 8.93086 22.7871C9.10023 22.5348 8.99354 22.2307 9.024 21.9496C9.00709 21.7557 9.15864 21.6176 9.25349 21.4678C9.30598 21.5787 9.35768 21.6897 9.40932 21.8023C9.29243 21.9623 9.17132 22.1206 9.05537 22.2815C9.16401 22.3764 9.27733 22.4657 9.39491 22.5492C9.41267 22.7177 9.44996 22.8828 9.46691 23.0513C9.40505 23.2266 9.21796 23.3163 9.10024 23.4518L9.10023 23.4518ZM9.5414 23.705L9.56001 23.5984C9.49401 23.5907 9.36189 23.5746 9.29585 23.567C9.38051 23.4798 9.46685 23.3951 9.55495 23.3112C9.62184 23.3646 9.71162 23.3985 9.75648 23.4756C9.6871 23.5543 9.61257 23.6288 9.54141 23.705L9.5414 23.705ZM9.5829 16.8553C9.68257 16.6909 9.81555 16.5493 9.97328 16.4395C9.88391 16.7293 9.82654 17.028 9.8022 17.3303C9.65572 17.194 9.78701 16.9459 9.58296 16.8552L9.5829 16.8553ZM10.0292 22.4552C9.96309 22.2417 9.89705 22.0292 9.84456 21.8133C9.95802 21.6744 10.0571 21.5254 10.1562 21.3763C10.2087 21.7387 10.3679 22.1782 10.0292 22.4552L10.0292 22.4552ZM10.0673 19.0282L10.0393 18.7386C10.179 18.5954 10.2552 18.4007 10.4153 18.2779C10.3007 18.5454 10.2666 18.8406 10.3171 19.1272C10.2341 19.0933 10.1503 19.0603 10.0673 19.0282L10.0673 19.0282ZM10.4103 25.7865C10.3485 25.6177 10.3166 25.4395 10.3163 25.2597C10.2889 25.1371 10.2909 25.0098 10.322 24.8881C10.3532 24.7663 10.4128 24.6537 10.4958 24.5594C10.4933 24.9701 10.4128 25.3749 10.4102 25.7865L10.4103 25.7865ZM10.7989 24.0573C10.7774 24.0165 10.7664 23.971 10.767 23.9249C10.7677 23.8788 10.7799 23.8336 10.8026 23.7934C10.8253 23.7533 10.8577 23.7195 10.8968 23.6952C10.936 23.6708 10.9807 23.6567 11.0267 23.6542C10.959 23.793 10.8829 23.9276 10.799 24.0573L10.7989 24.0573ZM11.0547 22.732C10.9895 22.561 11.141 22.4687 11.2588 22.3925C11.2568 22.4618 11.2369 22.5295 11.2012 22.589C11.1654 22.6485 11.115 22.6977 11.0547 22.732L11.0547 22.732ZM11.5704 24.0785C11.4163 24.1919 11.2867 23.8253 11.4527 23.7838C11.4805 23.7945 11.5058 23.8108 11.527 23.8317C11.5482 23.8526 11.5649 23.8777 11.5759 23.9054C11.587 23.9331 11.5922 23.9627 11.5912 23.9925C11.5903 24.0223 11.5832 24.0515 11.5703 24.0784L11.5704 24.0785ZM11.6559 26.1176C11.6443 25.8917 11.6488 25.6653 11.6694 25.4401C11.8921 25.4969 11.8473 25.7281 11.8634 25.9093C11.7948 25.9787 11.7262 26.049 11.656 26.1176L11.6559 26.1176ZM12.0226 23.4756C11.8837 23.556 11.8024 23.3299 11.91 23.2512C12.059 23.0996 12.1834 23.4078 12.0226 23.4755L12.0226 23.4756ZM11.8379 23.1267C11.8532 23.0878 11.8854 23.0081 11.9006 22.9692C11.8561 22.7434 11.8309 22.5142 11.8253 22.2841C11.8566 22.3477 11.9201 22.4747 11.9515 22.5381C11.9988 22.5034 12.0937 22.4323 12.1411 22.3967C11.9379 22.6076 12.1521 23.0115 11.838 23.1267L11.8379 23.1267ZM12.1124 22.2943C12.055 22.2147 12.017 22.1228 12.0014 22.0259C12.0734 21.9827 12.1454 21.9394 12.2173 21.8972C12.2269 22.0375 12.19 22.177 12.1123 22.2943L12.1124 22.2943Z" fill="#1445C9"/>
        <path d="M6.27538 8.223C6.43291 8.56 6.21612 9.07316 6.58282 9.28739C6.61156 8.98939 6.5523 8.68956 6.60229 8.39323C6.72749 8.86596 6.77665 9.35561 6.74792 9.84379C6.78686 9.85057 6.86559 9.86412 6.90545 9.87004C6.96807 9.34922 6.90459 8.82084 7.01464 8.30516C7.01549 8.06126 6.97741 7.81907 6.99181 7.57516C7.07476 7.67257 7.13744 7.79702 7.27038 7.83852C7.24097 7.60413 7.17106 7.37663 7.06377 7.16616C6.94953 7.1469 6.83949 7.10793 6.73858 7.051C6.73101 6.88 6.75976 6.70975 6.76232 6.53787C6.6607 6.48532 6.55651 6.30924 6.43121 6.41678C6.1831 6.55985 6.43542 6.83591 6.48121 7.02902C6.37621 7.10102 6.26527 7.16531 6.16536 7.2449C6.09089 7.5705 6.05984 7.90451 6.07301 8.23825C6.07611 8.33115 6.10199 8.42187 6.14839 8.50241C6.18053 8.43215 6.24405 8.29244 6.27538 8.223Z" fill="#1445C9"/>
        <path d="M2.62227 10.0165C2.68745 10.0537 2.75099 10.0919 2.81447 10.1325C2.8548 10.0621 2.91564 10.0057 2.98886 9.97072C3.06208 9.93577 3.14422 9.92397 3.22432 9.93689C3.21248 10.0707 3.00166 10.2138 3.09645 10.3476C3.22267 10.3798 3.36574 10.5051 3.49196 10.434C3.45887 10.3332 3.34034 10.2849 3.27687 10.2045C3.35981 10.0326 3.46229 9.86829 3.53087 9.68964C3.5064 9.45726 3.55088 9.22283 3.65874 9.01557C3.79252 9.09009 3.90513 9.23914 4.07874 9.20612C3.96884 9.03293 3.8057 8.9001 3.61383 8.82758C3.63034 8.53406 3.61014 8.23962 3.55371 7.95111C3.49616 7.94098 3.38098 7.92151 3.32343 7.91132C3.13965 8.06032 3.08289 8.30341 2.95423 8.49396C2.82801 8.66754 2.92713 8.88941 2.86866 9.08161C2.83478 9.28229 2.68323 9.50244 2.87628 9.67011C2.89661 9.58801 2.93811 9.42371 2.95844 9.34155C3.04124 9.48713 3.07978 9.6537 3.06934 9.82086C2.89069 9.70911 2.74756 9.52277 2.52741 9.49823C2.44212 9.59923 2.39813 9.72872 2.40425 9.86078C2.41037 9.99283 2.46614 10.1177 2.56041 10.2104C2.5757 10.1621 2.60701 10.0648 2.62227 10.0165Z" fill="#1445C9"/>
        <path d="M1.47395 12.2699C1.51631 12.2622 1.60267 12.2479 1.64495 12.2402C1.39855 12.3647 1.49595 12.667 1.46295 12.8829L1.63989 12.3139C1.60551 12.4371 1.59846 12.5664 1.61923 12.6926C1.64 12.8188 1.68809 12.939 1.76013 13.0447C1.68987 13.0269 1.54931 12.9913 1.47813 12.9736C1.46001 13.146 1.4955 13.3199 1.57976 13.4715C1.64076 13.2826 1.69408 13.0828 1.95152 13.1649C1.90354 13.2919 1.8667 13.4228 1.84141 13.5561C1.85983 13.6312 1.89521 13.7011 1.94483 13.7604C1.99446 13.8197 2.057 13.8669 2.12767 13.8982C2.10506 13.7533 2.05931 13.6129 1.99217 13.4825C2.23476 13.0406 2.29755 12.5223 2.16746 12.0353C2.3051 12.1982 2.37883 12.4055 2.37492 12.6188C2.40117 12.6238 2.45366 12.6348 2.47992 12.6399C2.35205 12.1827 2.3385 11.6999 2.17847 11.2512C2.12847 11.1174 2.12342 10.9396 1.97358 10.8727C1.86432 10.8591 1.69158 10.8896 1.68732 11.0276C1.68392 11.2872 1.5812 11.5357 1.40027 11.722C1.49094 11.8895 1.51715 12.0844 1.47395 12.2699Z" fill="#1445C9"/>
        <path d="M0.769436 16.3717C0.523836 16.1787 0.187656 15.9687 0.207976 15.6122C0.201296 15.414 0.146374 15.2205 0.0479764 15.0484C0.0349764 15.269 0.0185564 15.4884 0.0145264 15.7113C0.0597543 15.8545 0.12427 15.991 0.206296 16.1169C0.240966 16.3946 0.544156 16.4226 0.769436 16.3717Z" fill="#1445C9"/>
        <path d="M0.335054 14.6045C0.425694 14.7162 0.461284 14.8856 0.611974 14.9356C0.609606 14.8008 0.561869 14.6707 0.476474 14.5664C0.290814 14.2672 0.210357 13.9147 0.247864 13.5646C0.243813 13.5304 0.234313 13.4972 0.219724 13.466C0.147514 13.9188 0.0919738 14.3761 0.0585938 14.8408C0.140744 14.7436 0.210934 14.6211 0.335054 14.6045Z" fill="#1445C9"/>
        <path d="M2.30811 18.3228C2.35803 17.9357 2.40657 17.5485 2.45374 17.161C2.48426 17.1321 2.54438 17.0762 2.57483 17.0483C2.39704 16.6537 2.44783 16.2058 2.25391 15.8162C2.27591 15.6112 2.25476 15.2582 1.95752 15.3081C1.706 15.4818 1.83136 15.8204 1.706 16.0601C1.58831 16.5152 1.58048 16.9918 1.68317 17.4506C1.73059 17.4666 1.82544 17.4979 1.87287 17.514C1.87116 17.5573 1.86609 17.6445 1.86353 17.6885C1.71622 17.7788 1.54904 17.8317 1.37659 17.8426C1.44013 18.0103 1.45111 18.2813 1.68488 18.288C1.65857 18.2025 1.63147 18.1178 1.60443 18.0331C1.78052 17.9688 1.95667 17.901 2.12775 17.824C2.15719 18.0228 2.13978 18.2258 2.07691 18.4168C2.24036 18.4972 2.37751 18.664 2.5774 18.6284C2.49182 18.5226 2.36316 18.4489 2.30811 18.3228Z" fill="#1445C9"/>
        <path d="M1.6366 21.8031C1.65522 21.7328 1.6933 21.5914 1.71192 21.5211C1.65567 21.3571 1.62484 21.1855 1.62049 21.0121C1.69672 20.7649 1.89484 20.5252 1.78815 20.256C1.76492 20.0045 1.70795 19.7572 1.61878 19.521C1.52314 19.3855 1.58661 19.189 1.47058 19.068C1.35903 19.0022 1.22943 18.9738 1.10061 18.9867C0.971789 18.9997 0.850448 19.0533 0.754207 19.14C0.761837 19.2035 0.777957 19.3297 0.785527 19.3931C0.705937 19.4279 0.626347 19.4651 0.547607 19.5024C0.791447 19.6633 0.669607 20.0198 0.658507 20.2628C0.641597 20.278 0.621217 20.2913 0.603027 20.3056C0.668637 20.5405 0.733947 20.7749 0.809877 21.0054C0.820007 20.9879 0.822877 20.9675 0.833797 20.9504C0.946407 20.9606 0.915097 21.1079 0.951537 21.1807C0.947817 21.2376 0.941897 21.2945 0.936537 21.3514C1.0027 21.5376 1.06727 21.7245 1.14009 21.9075L1.18696 21.8895C1.34784 21.9877 1.5011 21.8996 1.6366 21.8031ZM1.27668 20.5693C1.31115 20.8466 1.38679 21.1171 1.5011 21.3721C1.39947 21.515 1.26615 21.6324 1.11157 21.7151C1.15308 21.3314 1.225 20.9521 1.27668 20.5693Z" fill="#1445C9"/>
    </g>
    <defs>
        <clipPath id="clip0_1247_1885">
            <rect width="32" height="32" fill="white"/>
        </clipPath>
    </defs>
</svg>
