<svg width="32" height="32" viewBox="0 0 32 32" fill="none" xmlns="http://www.w3.org/2000/svg">
<defs>
<clipPath id="clip0_1714_138">
<rect width="32" height="32" fill="white"/>
</clipPath>
</defs>
<g clip-path="url(#clip0_1714_138)">
<path d="M16 32C24.8366 32 32.0001 24.8365 32.0001 16C32.0001 7.16346 24.8366 0 16 0C7.16346 0 0 7.16346 0 16C0 24.8365 7.16346 32 16 32Z" fill="white"/>
<path fill-rule="evenodd" clip-rule="evenodd" d="M16.0073 4.6875L21.6198 13.4521L16.0072 16.7153L10.395 13.4519L16.0073 4.6875ZM12.1131 13.0376L16.0073 6.95605L19.9018 13.0376L16.0072 15.3019L12.1131 13.0376Z" fill="#00A3FF"/>
<path d="M15.9991 18.6418L9.48845 14.8561L9.31074 15.1338C7.30549 18.2652 7.75329 22.3664 10.3875 24.9937C13.4872 28.0855 18.5128 28.0855 21.6125 24.9937C24.2467 22.3664 24.6945 18.2652 22.6892 15.1338L22.5114 14.8561L15.9994 18.6421L15.9991 18.6418Z" fill="#00A3FF"/>
</g>
</svg>
