<svg width="32" height="32" viewBox="0 0 32 32" fill="none" xmlns="http://www.w3.org/2000/svg">
    <path d="M15.9868 31.5746C24.6025 31.5746 31.5869 24.5901 31.5869 15.9744C31.5869 7.35869 24.6025 0.374268 15.9868 0.374268C7.37113 0.374268 0.386719 7.35869 0.386719 15.9744C0.386719 24.5901 7.37113 31.5746 15.9868 31.5746Z" fill="#00A5C5"/>
    <path d="M17.0616 21.2192L10.9292 27.3517L9.18091 25.4689L13.4306 21.2192L9.01953 16.8081L10.9023 14.9254L17.0616 21.2192ZM20.6388 17.6957L22.5216 15.813L18.1106 11.4019L22.3602 7.15219L20.6119 5.26941L14.4526 11.4019L20.6388 17.6957ZM11.6823 14.1992L17.8685 20.493L19.7513 18.6102L13.565 12.424L11.6823 14.1992Z" fill="white"/>
</svg>
