<svg width="32" height="32" viewBox="0 0 32 32" fill="none" xmlns="http://www.w3.org/2000/svg">
<path d="M16 32C24.8366 32 32 24.8366 32 16C32 7.16344 24.8366 0 16 0C7.16344 0 0 7.16344 0 16C0 24.8366 7.16344 32 16 32Z" fill="white"/>
<path d="M14.8526 27C13.9346 26.2775 13.4778 25.5289 13.4812 24.7546C13.4849 23.9798 13.7285 23.34 14.211 22.8354L24.6234 12.4231C25.3372 13.033 25.7631 13.7284 25.902 14.5108C26.0402 15.2926 25.8184 15.9944 25.2364 16.6163L14.8526 27ZM11.1411 23.2886C10.2227 22.5657 9.76622 21.8175 9.76959 21.0431C9.7735 20.2682 10.0169 19.6285 10.4994 19.124L20.9119 8.7115C21.6252 9.32106 22.0516 10.0168 22.1901 10.799C22.3287 11.581 22.1069 12.283 21.5248 12.9047L11.1411 23.2886ZM7.42952 19.577C6.51118 18.8541 6.05431 18.1055 6.05813 17.3315C6.06195 16.5568 6.30546 15.917 6.78792 15.4124L17.2003 5C17.9138 5.60955 18.34 6.30536 18.4786 7.08745C18.6171 7.86952 18.3954 8.57143 17.8134 9.19326L7.42952 19.577Z" fill="url(#paint0_linear_1247_1887)"/>
<defs>
<linearGradient id="paint0_linear_1247_1887" x1="12.3214" y1="12.3136" x2="20.9302" y2="20.9224" gradientUnits="userSpaceOnUse">
<stop stop-color="#7EB5FF"/>
<stop offset="0.99968" stop-color="#1A38F8"/>
</linearGradient>
</defs>
</svg>
