<svg width="32" height="32" viewBox="0 0 32 32" fill="none" xmlns="http://www.w3.org/2000/svg">
    <path d="M0.384033 15.2512L2.40003 13.0816C2.66243 12.8 3.04003 12.6464 3.43043 12.672L5.26083 12.7808C5.92643 12.8192 6.57923 12.5568 7.03363 12.0704L15.9744 2.40639L18.0928 4.26879L9.98403 13.024C9.63843 13.4016 9.15843 13.6128 8.65923 13.6256C8.41603 13.632 8.17923 13.5808 7.95523 13.4912L7.55843 13.3312C6.81603 13.0368 5.97123 13.2352 5.43363 13.8304L2.45123 17.1392L0.384033 15.2512Z" fill="url(#paint0_linear)"/>
    <path d="M4.95361 19.3344L9.15841 14.8736C9.42081 14.592 9.79841 14.4384 10.1888 14.464L12.0192 14.5728C12.6848 14.6112 13.3376 14.3488 13.792 13.8624L20.5568 6.5024L22.6752 8.3648L16.7424 14.8224C16.3968 15.2 15.9168 15.4112 15.4176 15.424C15.1744 15.4304 14.9376 15.3792 14.7136 15.2896L14.3168 15.1296C13.5744 14.8352 12.7296 15.0336 12.192 15.6288L7.02081 21.2288L4.95361 19.3344Z" fill="url(#paint1_linear)"/>
    <path d="M9.41455 23.392L15.5969 16.6656C15.8593 16.384 16.2369 16.2304 16.6273 16.256L18.4577 16.3648C19.1233 16.4032 19.7762 16.1408 20.2306 15.6544L25.069 10.5856L27.1873 12.448L23.1745 16.608C22.8289 16.9856 22.3489 17.1968 21.8497 17.2096C21.6065 17.216 21.3697 17.1648 21.1457 17.0752L20.749 16.9152C20.0066 16.6208 19.1617 16.8192 18.6241 17.4144L11.4754 25.28L9.41455 23.392Z" fill="url(#paint2_linear)"/>
    <path d="M13.9265 27.5648L22.3425 18.4576C22.6049 18.176 22.9825 18.0224 23.3729 18.048L25.2033 18.1568C25.8689 18.1952 26.5217 17.9328 26.9761 17.4464L29.5553 14.7904L31.6737 16.6528L29.9265 18.4064C29.5809 18.784 29.1009 18.9952 28.6017 19.008C28.3585 19.0144 28.1217 18.9632 27.8977 18.8736L27.5009 18.7136C26.7585 18.4192 25.9137 18.6176 25.3761 19.2128L15.9937 29.4528L13.9265 27.5648Z" fill="url(#paint3_linear)"/>
    <defs>
        <linearGradient id="paint0_linear" x1="2.63682" y1="17.172" x2="15.6276" y2="2.58587" gradientUnits="userSpaceOnUse">
            <stop offset="0.2287" stop-color="#2AE38D"/>
            <stop offset="0.2856" stop-color="#1ED27B"/>
        </linearGradient>
        <linearGradient id="paint1_linear" x1="7.21267" y1="21.258" x2="20.2054" y2="6.66972" gradientUnits="userSpaceOnUse">
            <stop offset="0.3741" stop-color="#2AE38D"/>
            <stop offset="0.4877" stop-color="#1ED27B"/>
        </linearGradient>
        <linearGradient id="paint2_linear" x1="11.6945" y1="25.337" x2="24.6981" y2="10.7365" gradientUnits="userSpaceOnUse">
            <stop offset="0.5512" stop-color="#2AE38D"/>
            <stop offset="0.6162" stop-color="#1ED27B"/>
        </linearGradient>
        <linearGradient id="paint3_linear" x1="16.2086" y1="29.5076" x2="29.1855" y2="14.9371" gradientUnits="userSpaceOnUse">
            <stop offset="0.7235" stop-color="#2AE38D"/>
            <stop offset="0.7979" stop-color="#1ED27B"/>
        </linearGradient>
    </defs>
</svg>
