<svg width="32" height="32" viewBox="0 0 32 32" fill="none" xmlns="http://www.w3.org/2000/svg">
    <path d="M16 32C24.8366 32 32 24.8366 32 16C32 7.16344 24.8366 0 16 0C7.16344 0 0 7.16344 0 16C0 24.8366 7.16344 32 16 32Z" fill="white"/>
    <path d="M16.5942 3C16.8336 3.13073 17.0441 3.30851 17.213 3.52265C20.9366 7.24798 24.6611 10.9727 28.3864 14.6969C28.6172 14.8875 28.8159 15.1138 28.975 15.3674C28.6482 15.2307 28.3349 15.0638 28.0392 14.8688C26.5727 14.0211 25.1098 13.1673 23.6434 12.3205C23.016 11.9818 22.4086 11.6072 21.8243 11.1986C21.2233 10.7277 20.7164 10.1478 20.3303 9.48909C19.2022 7.55697 18.0782 5.62217 16.9584 3.6847C16.8122 3.47053 16.6901 3.24091 16.5942 3V3Z" fill="#0038D5"/>
    <path d="M17.701 19.5993C17.9965 19.508 18.2967 19.4328 18.6003 19.3741C17.8034 22.4468 16.9727 25.5106 16.1732 28.5824C16.1383 28.7035 16.0949 28.8219 16.0432 28.9368C15.9234 28.906 15.8119 28.8493 15.7165 28.7707C15.6211 28.6921 15.5442 28.5934 15.4912 28.4818C14.2393 26.4722 12.9844 24.4644 11.7266 22.4583C11.625 22.3121 11.5702 22.1384 11.5696 21.9603C11.5689 21.7822 11.6225 21.6081 11.7231 21.4611C11.8735 21.2704 12.0863 21.1386 12.3241 21.0889C14.1182 20.5984 15.9087 20.0953 17.701 19.5993Z" fill="#0038D5"/>
    <path d="M16.1473 3.08191C16.2479 3.12553 16.2924 3.23416 16.3521 3.31786C17.6663 5.59186 18.9846 7.86322 20.3071 10.1319C20.382 10.2428 20.4192 10.3748 20.4135 10.5085C20.4077 10.6422 20.3592 10.7705 20.2751 10.8745C20.1238 11.0119 19.9362 11.1028 19.7346 11.1363C17.6173 11.6652 15.5142 12.2564 13.3933 12.7719C13.5028 12.1353 13.7317 11.5272 13.8875 10.9012C14.525 8.5987 15.1643 6.29618 15.8054 3.99365C15.8548 3.66928 15.9712 3.35877 16.1473 3.08191Z" fill="#70A8FF"/>
    <path d="M14.5483 3.72209C14.731 3.50772 14.9405 3.3177 15.1716 3.1567C15.4182 3.09348 15.42 3.39087 15.3559 3.54757C14.7976 5.54203 14.2474 7.53915 13.69 9.53357C13.3615 10.6661 13.0908 11.8174 12.7222 12.9357C11.448 13.3248 10.1427 13.6213 8.85616 13.9703C7.07006 14.4413 5.28039 14.9017 3.49516 15.378C3.34422 15.4159 3.19108 15.4445 3.03662 15.4635C3.04641 15.1314 3.34736 14.9373 3.55126 14.7174C7.21961 11.0544 10.8853 7.38927 14.5483 3.72209Z" fill="#549AFF"/>
    <path d="M3.3855 17.1214C3.65705 17.2374 3.91552 17.3818 4.15657 17.5524C5.52509 18.4116 6.89897 19.2628 8.26835 20.122C9.69128 21.0133 10.8983 22.2098 11.8023 23.6248C12.617 24.9194 13.4228 26.2193 14.2357 27.5148C14.4816 27.8803 14.7057 28.26 14.907 28.6518C14.6784 28.4884 14.4685 28.3003 14.2811 28.0909C10.8246 24.6318 7.36639 21.1744 3.90638 17.7189C3.70688 17.5439 3.5317 17.3429 3.3855 17.1214V17.1214Z" fill="#549AFF"/>
    <path d="M19.7302 11.4844C19.8281 11.4451 19.9336 11.4288 20.0388 11.4368C20.1439 11.4449 20.2458 11.477 20.3366 11.5307C20.4343 11.6198 20.5023 11.7368 20.5311 11.8659C20.56 11.9949 20.5483 12.1297 20.4977 12.2519C19.9074 14.4013 19.3767 16.5694 18.7668 18.7116C18.4538 18.8246 18.1345 18.9194 17.8106 18.9956C16.0431 19.4853 14.276 19.9768 12.5092 20.4701C12.3633 20.5357 12.205 20.5694 12.045 20.569C11.885 20.5685 11.727 20.5339 11.5815 20.4674C11.4884 20.3765 11.4244 20.2601 11.3973 20.1329C11.3702 20.0057 11.3813 19.8733 11.4292 19.7524C12.0079 17.6574 12.5974 15.565 13.169 13.4672C13.1941 13.378 13.2251 13.2906 13.2616 13.2055C13.3884 13.1451 13.5216 13.0991 13.6587 13.0683C15.6843 12.5466 17.7055 12.008 19.7302 11.4844Z" fill="#106CFF"/>
    <path d="M21.1601 11.8504C21.307 11.7509 21.4805 11.6977 21.658 11.6979C21.8354 11.6981 22.0088 11.7515 22.1555 11.8513C24.1829 13.031 26.2115 14.2078 28.2413 15.3816C28.48 15.4883 28.6982 15.636 28.8859 15.8179C28.7706 15.9331 28.6232 16.0107 28.463 16.0405C25.6761 16.808 22.8928 17.588 20.1068 18.3564C19.809 18.4627 19.5006 18.5364 19.187 18.5763C19.6758 16.6015 20.2279 14.6399 20.7363 12.6686C20.7767 12.3545 20.9268 12.0647 21.1601 11.8504V11.8504Z" fill="#2C50FF"/>
    <path d="M11.4007 13.665C11.7888 13.5373 12.1879 13.4458 12.5929 13.3917C12.5397 13.7185 12.4599 14.0404 12.3543 14.3542C11.8682 16.1198 11.3722 17.8819 10.887 19.6475C10.8625 19.7784 10.8115 19.9029 10.7371 20.0133C10.6627 20.1237 10.5664 20.2177 10.4542 20.2895C10.3051 20.3715 10.1357 20.4097 9.9658 20.3998C9.79585 20.3899 9.63215 20.3322 9.49351 20.2334C7.48304 18.9797 5.4779 17.7163 3.46208 16.4697C3.26976 16.3371 3.03202 16.1768 3.0249 15.9177C3.08634 15.7984 3.24572 15.8091 3.35434 15.7628C6.03797 15.0691 8.71532 14.3533 11.4007 13.665Z" fill="#3679FF"/>
    <path d="M28.2816 16.6558C28.4422 16.5913 28.6188 16.578 28.7873 16.6175C28.8701 16.7769 28.7659 16.9193 28.6537 17.0279C24.9417 20.7346 21.2318 24.4439 17.524 28.1559C17.1892 28.4676 16.9025 28.8869 16.4324 29C17.2044 25.9202 18.0573 22.8591 18.8515 19.7846C18.8925 19.5987 18.9503 19.4169 19.0243 19.2414C22.1023 18.3573 25.2 17.5328 28.2816 16.6558Z" fill="#0025B1"/>
</svg>
