<svg width="32" height="32" viewBox="0 0 32 32" fill="none" xmlns="http://www.w3.org/2000/svg">
    <path d="M16 32C24.8366 32 32 24.8366 32 16C32 7.16344 24.8366 0 16 0C7.16344 0 0 7.16344 0 16C0 24.8366 7.16344 32 16 32Z" fill="white"/>
    <path d="M22.2121 26.2617L5.80963 14.7547C5.2507 14.3626 4.79443 13.8416 4.47944 13.2358C4.16445 12.6301 4 11.9574 4 11.2746C4 10.5919 4.16445 9.91915 4.47944 9.3134C4.79443 8.70765 5.2507 8.18668 5.80963 7.79456L9.78448 5L26.1869 16.507C26.7458 16.8991 27.2021 17.4201 27.5171 18.0259C27.8321 18.6316 27.9965 19.3043 27.9965 19.9871C27.9965 20.6698 27.8321 21.3425 27.5171 21.9483C27.2021 22.554 26.7458 23.075 26.1869 23.4671L22.2121 26.2617ZM9.78119 6.86414L6.68416 9.03075C6.324 9.28261 6.02991 9.61765 5.82686 10.0074C5.62381 10.3972 5.51779 10.8302 5.51779 11.2697C5.51779 11.7092 5.62381 12.1422 5.82686 12.5319C6.02991 12.9217 6.324 13.2568 6.68416 13.5086L22.2154 24.3976L25.3124 22.2309C25.6725 21.9791 25.9666 21.644 26.1697 21.2543C26.3727 20.8645 26.4787 20.4315 26.4787 19.992C26.4787 19.5525 26.3727 19.1195 26.1697 18.7297C25.9666 18.34 25.6725 18.0049 25.3124 17.7531L9.78119 6.86414Z" fill="#4BC0C8"/>
    <path d="M9.76804 24.3974L6.67429 22.2275C6.31413 21.9757 6.02005 21.6406 5.817 21.2509C5.61395 20.8611 5.50793 20.4281 5.50793 19.9886C5.50793 19.5491 5.61395 19.1161 5.817 18.7263C6.02005 18.3366 6.31413 18.0015 6.67429 17.7497L14.6766 12.1605L13.3615 11.2334L5.80963 16.5069C5.2507 16.899 4.79443 17.42 4.47944 18.0257C4.16445 18.6315 4 19.3042 4 19.987C4 20.6697 4.16445 21.3424 4.47944 21.9482C4.79443 22.5539 5.2507 23.0749 5.80963 23.467L9.77133 26.2484L14.6733 22.8193L13.3582 21.8922L9.76804 24.3974Z" fill="#02819B"/>
    <path d="M26.1936 7.80192L22.2286 5.02051L17.3233 8.45289L18.6384 9.38002L22.222 6.87149L25.3158 9.04139C25.6759 9.29326 25.97 9.62829 26.1731 10.0181C26.3761 10.4078 26.4822 10.8408 26.4822 11.2803C26.4822 11.7198 26.3761 12.1528 26.1731 12.5426C25.97 12.9324 25.6759 13.2674 25.3158 13.5193L17.3135 19.1084L18.6286 20.0355L26.1903 14.7522C26.7493 14.36 27.2055 13.8391 27.5205 13.2333C27.8355 12.6276 27.9999 11.9549 27.9999 11.2721C27.9999 10.5894 27.8355 9.91664 27.5205 9.31089C27.2055 8.70514 26.7493 8.18417 26.1903 7.79206L26.1936 7.80192Z" fill="#02819B"/>
</svg>
