<svg width="32" height="32" viewBox="0 0 32 32" fill="none" xmlns="http://www.w3.org/2000/svg">
    <path d="M16 32C24.8366 32 32 24.8366 32 16C32 7.16344 24.8366 0 16 0C7.16344 0 0 7.16344 0 16C0 24.8366 7.16344 32 16 32Z" fill="white"/>
    <path d="M18.4174 6.27768L16.1336 8.56147L16.5973 9.0251C16.7222 9.14985 16.8915 9.21993 17.068 9.21993C17.2445 9.21993 17.4138 9.14985 17.5387 9.0251L19.8225 6.74132L19.3589 6.27768C19.2972 6.21567 19.2238 6.16647 19.143 6.13289C19.0622 6.09932 18.9756 6.08203 18.8881 6.08203C18.8007 6.08203 18.714 6.09932 18.6332 6.13289C18.5525 6.16647 18.4791 6.21567 18.4174 6.27768V6.27768ZM12.6411 6.27768L12.1795 6.74132L14.4633 9.0251C14.5882 9.14985 14.7575 9.21993 14.934 9.21993C15.1105 9.21993 15.2798 9.14985 15.4047 9.0251L15.8663 8.56147L13.5826 6.27768C13.5209 6.21567 13.4475 6.16647 13.3668 6.13289C13.286 6.09932 13.1994 6.08203 13.1119 6.08203C13.0244 6.08203 12.9378 6.09932 12.857 6.13289C12.7762 6.16647 12.7028 6.21567 12.6411 6.27768V6.27768ZM20.5696 9.26604L16.2531 13.5805L17.1277 14.4552C17.3637 14.6903 17.6834 14.8223 18.0165 14.8223C18.3497 14.8223 18.6693 14.6903 18.9054 14.4552L23.2218 10.1407L22.3472 9.26604C22.2306 9.14912 22.0921 9.05636 21.9395 8.99307C21.787 8.92977 21.6235 8.8972 21.4584 8.8972C21.2933 8.8972 21.1298 8.92977 20.9773 8.99307C20.8247 9.05636 20.6862 9.14912 20.5696 9.26604V9.26604ZM9.65277 9.26604L8.78015 10.1407L13.0946 14.4531C13.3307 14.6889 13.6508 14.8214 13.9845 14.8214C14.3182 14.8214 14.6382 14.6889 14.8743 14.4531L15.7469 13.5825L11.4324 9.26604C11.3157 9.14881 11.1771 9.05579 11.0244 8.99231C10.8717 8.92883 10.7079 8.89616 10.5426 8.89616C10.3772 8.89616 10.2135 8.92883 10.0608 8.99231C9.90806 9.05579 9.76941 9.14881 9.65277 9.26604V9.26604ZM15.5302 9.1648L15.0666 9.63047L16 10.5618L16.9334 9.63047L16.4717 9.1648C16.41 9.10279 16.3367 9.05359 16.2559 9.02001C16.1751 8.98644 16.0885 8.96915 16.001 8.96915C15.9135 8.96915 15.8269 8.98644 15.7461 9.02001C15.6653 9.05359 15.5919 9.10279 15.5302 9.1648V9.1648ZM23.5924 13.4671L16.4211 20.6404L17.8728 22.0921C18.2649 22.4838 18.7965 22.7038 19.3508 22.7038C19.905 22.7038 20.4366 22.4838 20.8287 22.0921L28 14.9209L26.5483 13.4692C26.3545 13.2745 26.1242 13.12 25.8706 13.0146C25.617 12.9092 25.345 12.855 25.0704 12.855C24.7957 12.855 24.5237 12.9092 24.2701 13.0146C24.0165 13.12 23.7862 13.2745 23.5924 13.4692V13.4671ZM5.45166 13.4671L4 14.9188L11.1713 22.0901C11.5634 22.4817 12.095 22.7017 12.6492 22.7017C13.2035 22.7017 13.735 22.4817 14.1272 22.0901L15.5809 20.6384L8.40762 13.4671C8.21383 13.2725 7.98351 13.118 7.72987 13.0126C7.47624 12.9072 7.20428 12.853 6.92962 12.853C6.65496 12.853 6.383 12.9072 6.12937 13.0126C5.87573 13.118 5.64541 13.2725 5.45162 13.4671H5.45166ZM15.1091 14.7224L14.2386 15.597L16 17.3605L17.7634 15.5991L16.8909 14.7245C16.7742 14.6069 16.6354 14.5136 16.4825 14.45C16.3296 14.3863 16.1656 14.3535 16 14.3535C15.8344 14.3535 15.6704 14.3863 15.5175 14.45C15.3646 14.5136 15.2258 14.6069 15.1091 14.7245V14.7224ZM14.522 22.5374L13.0703 23.9891L16 26.9188L18.9296 23.9891L17.478 22.5374C17.2842 22.3428 17.0539 22.1883 16.8003 22.083C16.5466 21.9776 16.2747 21.9233 16 21.9233C15.7254 21.9233 15.4535 21.9776 15.1998 22.083C14.9462 22.1883 14.7159 22.3428 14.5221 22.5374H14.522Z" fill="url(#paint0_linear)"/>
    <defs>
        <linearGradient id="paint0_linear" x1="6.14152" y1="16.5004" x2="26.0491" y2="16.5004" gradientUnits="userSpaceOnUse">
            <stop stop-color="#7CB7FF"/>
            <stop offset="1" stop-color="#BA6DF6"/>
        </linearGradient>
    </defs>
</svg>
