<svg width="32" height="32" viewBox="0 0 32 32" fill="none" xmlns="http://www.w3.org/2000/svg">
    <path d="M16 32C24.8366 32 32 24.8366 32 16C32 7.16344 24.8366 0 16 0C7.16344 0 0 7.16344 0 16C0 24.8366 7.16344 32 16 32Z" fill="white"/>
    <path d="M15.7825 4.05845C15.8489 4.02025 15.9241 4.00009 16.0006 4C16.0772 3.99991 16.1524 4.01988 16.2188 4.05792L25.8655 9.5995C25.9318 9.63748 25.9869 9.69228 26.0252 9.75836C26.0636 9.82444 26.0838 9.89947 26.0838 9.97587C26.0839 10.0523 26.0638 10.1273 26.0256 10.1935C25.9874 10.2596 25.9324 10.3145 25.8662 10.3527L17.474 15.1932C17.1807 14.8507 16.7768 14.6217 16.3324 14.5458V11.9137C16.8079 11.8319 17.2356 11.5748 17.5309 11.1931C17.8262 10.8115 17.9677 10.333 17.9276 9.85213C17.8874 9.37125 17.6684 8.92288 17.3139 8.59551C16.9594 8.26815 16.495 8.08556 16.0124 8.08377C15.5299 8.08199 15.0642 8.26114 14.7072 8.58588C14.3503 8.91061 14.128 9.35735 14.0843 9.83792C14.0406 10.3185 14.1786 10.798 14.4711 11.1818C14.7635 11.5657 15.1893 11.8259 15.6642 11.9112V14.5481C15.2261 14.6265 14.8285 14.854 14.5389 15.1919L6.14598 10.3694C6.0797 10.3315 6.02462 10.2767 5.98629 10.2106C5.94795 10.1445 5.92773 10.0695 5.92766 9.99314C5.92759 9.91675 5.94767 9.8417 5.98588 9.77556C6.02408 9.70942 6.07906 9.65453 6.14527 9.61643L15.7825 4.05845ZM25.8929 11.0395C25.9591 11.0009 26.0342 10.9805 26.1108 10.9803C26.1874 10.9801 26.2626 11 26.329 11.0381C26.3954 11.0763 26.4506 11.1312 26.4889 11.1975C26.5273 11.2637 26.5476 11.3389 26.5476 11.4155L26.5568 22.1762C26.5569 22.2525 26.5367 22.3276 26.4985 22.3937C26.4602 22.4598 26.4052 22.5146 26.339 22.5526L16.9963 27.9409C16.9301 27.9792 16.855 27.9995 16.7786 27.9996C16.7021 27.9998 16.627 27.9798 16.5607 27.9418C16.4944 27.9037 16.4392 27.8488 16.4008 27.7827C16.3624 27.7166 16.342 27.6416 16.3418 27.5652L16.3338 18.3325C16.7868 18.2557 17.1975 18.0194 17.4917 17.6664L19.8254 19.0046C19.6999 19.4736 19.7548 19.9727 19.9793 20.4032C20.2039 20.8338 20.5816 21.1645 21.038 21.3301C21.4945 21.4957 21.9964 21.4842 22.4448 21.2978C22.8931 21.1114 23.2553 20.7636 23.4598 20.3232C23.6643 19.8828 23.6962 19.3818 23.5493 18.919C23.4024 18.4562 23.0873 18.0653 22.6663 17.8235C22.2452 17.5816 21.7488 17.5065 21.2751 17.6128C20.8013 17.7191 20.3846 17.9991 20.1072 18.3977L17.821 17.0867C17.9832 16.6409 17.9723 16.1505 17.7905 15.7124L25.8929 11.0395ZM5.4525 11.4155C5.45253 11.3389 5.47275 11.2637 5.51111 11.1975C5.54948 11.1312 5.60462 11.0763 5.671 11.0381C5.73737 11 5.81263 10.9801 5.88918 10.9803C5.96573 10.9805 6.04086 11.0009 6.10701 11.0395L14.2186 15.7179C14.0392 16.1548 14.0292 16.6429 14.1906 17.0868L11.905 18.3976C11.6322 18.0083 11.2234 17.7353 10.7594 17.6323C10.2953 17.5293 9.80945 17.6039 9.3976 17.8413C8.98574 18.0787 8.67771 18.4617 8.53417 18.9149C8.39064 19.368 8.422 19.8585 8.6221 20.2897C8.82219 20.721 9.17651 21.0616 9.61525 21.2446C10.054 21.4276 10.5453 21.4396 10.9925 21.2784C11.4397 21.1172 11.8103 20.7943 12.0313 20.3734C12.2523 19.9526 12.3077 19.4642 12.1866 19.0045L14.5198 17.6665C14.8116 18.0162 15.2177 18.2514 15.6662 18.3305L15.6582 27.5651C15.658 27.6416 15.6376 27.7166 15.5992 27.7827C15.5608 27.8488 15.5057 27.9036 15.4394 27.9417C15.3731 27.9797 15.298 27.9997 15.2215 27.9996C15.1451 27.9994 15.07 27.9792 15.0039 27.9409L5.66081 22.5526C5.59462 22.5145 5.53965 22.4596 5.50143 22.3935C5.46321 22.3274 5.4431 22.2524 5.44312 22.1761L5.4525 11.4155Z" fill="url(#paint0_linear_971_50)"/>
    <defs>
        <linearGradient id="paint0_linear_971_50" x1="-1.34595" y1="6.05577" x2="30.4367" y2="20.4606" gradientUnits="userSpaceOnUse">
            <stop stop-color="#F85F7D"/>
            <stop offset="1" stop-color="#F14E10"/>
        </linearGradient>
    </defs>
</svg>
