<svg width="32" height="32" viewBox="0 0 32 32" fill="none" xmlns="http://www.w3.org/2000/svg">
    <path d="M16 32C24.8366 32 32 24.8366 32 16C32 7.16344 24.8366 0 16 0C7.16344 0 0 7.16344 0 16C0 24.8366 7.16344 32 16 32Z" fill="#172852"/>
    <path d="M12.888 7.15037C14.7616 6.44957 16.8704 6.44797 18.7792 7.02397C21.264 7.79517 23.3616 9.67038 24.4576 12.024C24.76 12.6944 25.0496 13.3936 25.0784 14.1392C23.6816 13.3296 22.1504 12.8048 20.616 12.3264C18.1616 11.4416 15.592 10.8272 13.2688 9.61118C12.728 9.28798 12.0384 8.95678 11.8912 8.28317C11.832 7.70077 12.448 7.37597 12.888 7.15037Z" fill="#FFD83D"/>
    <path d="M7.23186 12.8144C7.77426 11.3424 8.66386 9.976 9.87186 8.9632C10.1791 11.4896 11.2543 13.9312 13.0303 15.768C15.1599 17.9808 18.1935 19.3392 21.2799 19.288C22.5055 19.3264 23.7039 19.0432 24.8991 18.8144C23.7231 23.064 19.0655 25.8849 14.7503 25.2065C12.1455 24.8737 9.74066 23.3312 8.28946 21.1536C6.65266 18.7472 6.23986 15.552 7.23186 12.8144Z" fill="#FFD83D"/>
    <path d="M20.52 12.27C22.0544 12.7484 23.5856 13.2732 24.9824 14.0828L25.0768 14.1324C25.2064 15.1068 25.3008 16.1004 25.128 17.0764C24.4256 16.7788 23.856 16.2556 23.2608 15.7932C22.1152 14.8396 20.9456 13.7484 20.52 12.27Z" fill="#FF6F03"/>
</svg>
