<svg width="32" height="32" viewBox="0 0 32 32" fill="none" xmlns="http://www.w3.org/2000/svg">
<defs>
<linearGradient id="paint0_linear_1716_57" x1="19.0349" y1="18.7558" x2="9.24892" y2="7.0935" gradientUnits="userSpaceOnUse">
<stop stop-color="#DE3633"/>
<stop offset="1" stop-color="#F6CD5A"/>
</linearGradient>
<linearGradient id="paint1_linear_1716_57" x1="17.6959" y1="27.3858" x2="14.1637" y2="17.6815" gradientUnits="userSpaceOnUse">
<stop stop-color="#DE3633"/>
<stop offset="1" stop-color="#F7D45C"/>
</linearGradient>
</defs>
<circle cx="16" cy="16" r="16" fill="white"/>
<path d="M27.3885 15.9537C27.3885 22.2824 22.2581 27.4128 15.9294 27.4128C15.5015 15.9537 15.5015 15.9537 9.20337 15.9537C9.20337 9.62501 9.60086 4.49463 15.9294 4.49463C22.2579 4.49463 27.3885 9.62501 27.3885 15.9537Z" fill="#F2E373"/>
<path d="M28.2788 14.6188C25.7827 12.0779 22.0996 11.8587 19.1375 13.7164C16.67 14.9728 13.5009 13.7753 13.1606 10.8627C12.9956 9.42777 13.8105 8.02214 15.0112 7.26982C15.726 6.83485 16.492 6.49238 17.2151 6.07214C18.382 5.3794 19.6507 4.38988 19.7969 2.94461C19.8461 2.49751 19.8145 2.04564 19.7536 1.60157C19.7517 1.58257 19.7461 1.56414 19.737 1.54737C19.7278 1.53059 19.7155 1.51581 19.7005 1.5039C19.6856 1.49198 19.6685 1.48318 19.6501 1.47801C19.6317 1.47283 19.6125 1.47139 19.5935 1.47377C19.5692 1.4785 19.5466 1.48954 19.528 1.50578C19.5093 1.52201 19.4952 1.54287 19.4872 1.56627C19.3639 1.86628 19.1651 2.13077 18.9307 2.35324C18.0677 3.1439 16.9103 3.49113 15.8114 3.8178C14.1464 4.27269 12.5075 4.85085 10.9609 5.62266C5.74166 8.10229 3.13877 14.4269 5.13513 19.8547C6.58062 23.0113 9.71119 24.08 12.9635 23.2303C15.0309 22.6506 16.6168 21.8367 17.7144 19.9177C18.1489 19.2408 18.505 18.514 18.9833 17.8655C21.2786 14.6528 24.7391 14.2657 28.3644 15.0391C28.448 15.0564 28.5249 14.9721 28.516 14.8918C28.4547 14.7869 28.3588 14.7083 28.2788 14.6188Z" fill="url(#paint0_linear_1716_57)"/>
<path d="M25.8674 22.8752C25.8661 22.7978 25.7796 22.7294 25.7069 22.7716C23.9276 23.6236 21.6973 23.0569 20.5665 21.4334C19.676 20.1969 19.5679 18.4683 20.2728 17.1209C20.6233 16.4529 21.1492 15.8738 21.796 15.4831C21.8388 15.4564 21.8786 15.4252 21.9147 15.3901C20.7355 15.9263 19.7455 16.8257 18.9837 17.8648C18.5054 18.5133 18.1493 19.2401 17.7147 19.9172C17.4097 20.3962 17.0881 20.8691 16.6951 21.2819C15.7037 22.3117 14.3099 22.837 12.9639 23.2302C11.6148 23.5861 10.1628 23.6266 8.82321 23.2068C7.19294 22.703 5.87547 21.5022 5.19658 19.9398C5.18255 19.9069 5.16174 19.8774 5.1355 19.8531C6.67999 24.2611 11.1395 27.4131 15.8009 27.4657C16.0609 27.4844 16.3208 27.4595 16.5807 27.4532C20.0724 27.2885 23.3826 25.5686 25.7632 23.0467C25.8085 22.9978 25.8752 22.9501 25.8674 22.8752Z" fill="url(#paint1_linear_1716_57)"/>
</svg>
