<svg width="32" height="32" viewBox="0 0 32 32" fill="none" xmlns="http://www.w3.org/2000/svg">
    <path d="M16 32C24.8366 32 32 24.8366 32 16C32 7.16344 24.8366 0 16 0C7.16344 0 0 7.16344 0 16C0 24.8366 7.16344 32 16 32Z" fill="url(#paint0_linear_1072_648)"/>
    <path d="M7.37652 16.2217C7.76311 16.3033 8.14178 16.4187 8.50818 16.5666C10.1908 17.244 10.66 18.0441 10.4633 19.8446C10.3827 20.193 10.3771 20.5546 10.447 20.9053C10.5168 21.256 10.6605 21.5879 10.8685 21.8788C11.3362 20.4189 11.8101 19.069 11.3419 17.6302C11.178 17.216 10.9257 16.8425 10.6026 16.5357C10.2796 16.2289 9.89353 15.9963 9.47137 15.854C8.24985 15.3507 6.94351 15.0852 5.62244 15.0717C3.7462 15.1243 1.87522 15.2963 0.02087 15.5869C0.01733 15.7255 0 15.8605 0 16C0 16.1538 0.01868 16.3028 0.023 16.4555C0.11309 16.4435 1.70348 16.2303 2.319 16.1576C3.99707 15.9033 5.70543 15.9249 7.37652 16.2217V16.2217Z" fill="white"/>
    <path d="M27.3983 15.9046C26.7419 14.7194 26.0296 13.5652 25.4707 12.3269C25.0899 11.5058 24.901 10.6089 24.9182 9.704C24.9949 7.969 24.7056 6.2373 24.0691 4.62145C23.9232 4.27233 23.8134 3.71587 23.3813 3.76781C22.9401 3.82081 22.9996 4.39837 22.9251 4.76537C22.8132 5.31621 22.784 5.88329 22.6909 6.43865C22.6227 6.8449 22.3953 6.95977 22.0687 6.65965C21.6639 6.28947 21.1845 6.01042 20.6627 5.84133C20.141 5.67225 19.589 5.61706 19.0441 5.67949C18.8752 5.67815 18.7068 5.66139 18.541 5.62944C18.119 5.5822 18.0956 5.37731 18.3011 5.05718C18.6569 4.50286 19.0116 3.94718 19.3443 3.37889C19.4621 3.17789 19.6615 2.91265 19.4721 2.70714C19.271 2.48882 19.0141 2.71355 18.807 2.81328C17.4182 3.49867 16.1598 4.4213 15.0884 5.5396C14.0887 6.57348 12.8216 7.30939 11.4282 7.66527C9.15309 8.26262 6.89114 8.91149 4.62954 9.55919C3.03746 9.95298 1.60211 10.82 0.512722 12.046V12.046C0.293876 12.8945 0.145495 13.7596 0.0690918 14.6325V14.6325C0.0690918 14.6325 2.49409 14.2904 2.90009 14.2256C4.84323 13.8301 6.84836 13.8536 8.78168 14.2946C9.53103 14.4853 10.2467 14.7898 10.9037 15.1976C11.6113 15.5713 12.172 16.173 12.4949 16.9052C12.8178 17.6375 12.8839 18.4573 12.6826 19.2318C12.1444 22.3725 10.2786 24.1673 6.99987 24.7046C5.67732 24.9034 4.33879 24.9752 3.00256 24.9191C2.96466 24.9181 2.85663 24.9161 2.71692 24.9197C2.92205 25.2247 3.14843 25.5132 3.37353 25.8027C4.35753 25.8763 5.24328 25.9475 6.12829 26.0067C7.63258 26.1171 9.14481 26.0358 10.6286 25.7648C12.2564 25.4522 13.7155 24.5599 14.7357 23.2535C15.2139 22.6715 15.6571 22.0609 16.1303 21.4745C16.4326 21.0892 16.7544 20.7196 17.0946 20.3672C17.5217 19.8567 18.0529 19.4434 18.6527 19.1549C19.2525 18.8663 19.907 18.7093 20.5725 18.6943C21.2379 18.6793 21.8988 18.8067 22.511 19.0679C23.1232 19.3291 23.6725 19.7181 24.1222 20.2088C24.9324 20.9606 27.3646 23.475 29.0897 25.1836C29.5169 24.5744 29.9009 23.9361 30.2391 23.2734C30.2232 23.1724 30.209 23.0826 30.1967 23.0089C29.6899 20.4944 28.7425 18.0893 27.3983 15.9046V15.9046ZM17.2053 6.67565C17.4637 6.66179 17.6095 6.838 17.6564 7.09526C17.599 7.33464 17.4605 7.51744 17.1997 7.49718C17.0952 7.49004 16.9973 7.4433 16.9261 7.36649C16.8548 7.28967 16.8155 7.18857 16.8162 7.0838C16.8169 6.97902 16.8576 6.87846 16.9299 6.80262C17.0022 6.72678 17.1007 6.68137 17.2053 6.67565V6.67565ZM18.329 12.8561C17.3957 14.7637 16.3493 16.614 15.1955 18.3969C14.7005 19.2367 14.2139 20.0813 13.7235 20.9238C13.3685 21.4897 13.3292 21.4756 13.6035 20.87C14.0617 19.746 14.5142 18.6195 14.9795 17.4984C15.8147 15.4859 16.6425 13.47 17.5818 11.5025C17.6936 11.2221 17.8638 10.9686 18.0811 10.7591C18.2618 10.6045 18.4665 10.4709 18.6904 10.6094C18.7853 10.673 18.8568 10.7658 18.8943 10.8737C18.9318 10.9816 18.9331 11.0988 18.8981 11.2075C18.7639 11.7747 18.5732 12.3269 18.329 12.8561ZM21.7854 9.34874C21.7237 9.35171 21.6621 9.34143 21.6047 9.3186C21.5473 9.29577 21.4954 9.26092 21.4526 9.21638C21.4098 9.17185 21.3771 9.11866 21.3565 9.06041C21.336 9.00215 21.3282 8.94018 21.3336 8.87865C21.3418 8.59807 21.5371 8.45513 21.8089 8.41729C21.8705 8.41962 21.9309 8.43407 21.9868 8.45978C22.0428 8.4855 22.0931 8.522 22.1349 8.56717C22.1767 8.61235 22.2092 8.66533 22.2306 8.72308C22.2519 8.78083 22.2616 8.84222 22.2592 8.90374C22.2621 8.96543 22.2515 9.027 22.2283 9.08423C22.205 9.14145 22.1697 9.19297 22.1247 9.23525C22.0797 9.27752 22.026 9.30956 21.9675 9.32915C21.9089 9.34874 21.8468 9.35542 21.7854 9.34874V9.34874Z" fill="white"/>
    <path d="M24.799 22.3755C24.0416 21.4044 23.0569 20.6346 21.9317 20.1341C21.4597 19.9105 20.939 19.8092 20.4175 19.8394C19.8961 19.8696 19.3906 20.0304 18.9475 20.3071C17.3662 21.5153 15.9513 22.9271 14.7397 24.5058C14.9935 24.5059 15.2444 24.4518 15.4756 24.3471C15.7068 24.2424 15.9129 24.0896 16.0803 23.8988C16.574 23.4353 17.0258 22.927 17.4953 22.4376C17.9514 21.9341 18.482 21.5034 19.0686 21.1606C19.6118 20.7853 20.2702 20.6142 20.9273 20.6776C21.5844 20.741 22.1979 21.0348 22.6593 21.507C23.2983 22.061 23.873 22.69 24.4674 23.2944C25.5422 24.4887 26.7258 25.5805 28.0029 26.5555C28.1632 26.3735 28.3244 26.193 28.4763 26.0038C27.1688 24.8801 25.9401 23.6678 24.799 22.3755V22.3755Z" fill="white"/>
    <defs>
        <linearGradient id="paint0_linear_1072_648" x1="16" y1="0" x2="16" y2="32" gradientUnits="userSpaceOnUse">
            <stop stop-color="#59BEAE"/>
            <stop offset="1" stop-color="#124EA0"/>
        </linearGradient>
    </defs>
</svg>
