<svg width="32" height="32" viewBox="0 0 32 32" fill="none" xmlns="http://www.w3.org/2000/svg">
<circle cx="16" cy="16" r="16" fill="#DC2626"/>
<path d="M25.3544 15.6853L22.4759 14.6974C21.4187 14.3333 20.6304 13.4323 20.4105 12.3273L19.194 6.2653C19.1633 6.11114 19.0291 6 18.8701 6C18.7112 6 18.5769 6.11114 18.5467 6.2653L17.3305 12.3273C17.1102 13.4323 16.3215 14.3333 15.2643 14.6974L12.3867 15.6853C12.2521 15.7287 12.166 15.8582 12.166 16C12.166 16.1418 12.258 16.2653 12.3867 16.3147L15.2643 17.3026C16.3215 17.6667 17.1102 18.5677 17.3305 19.6727L18.5467 25.7343C18.5769 25.8889 18.7112 26 18.8701 26C19.0291 26 19.1633 25.8889 19.194 25.7343L20.4105 19.6727C20.6304 18.5677 21.4187 17.6667 22.4759 17.3026L25.3544 16.3147C25.489 16.2717 25.5742 16.1418 25.5742 16C25.5742 15.8582 25.4826 15.7347 25.3544 15.6853Z" fill="#FFFDF7"/>
<path d="M12.2396 20.7614L10.8765 20.2985C10.3754 20.1257 10.0029 19.6998 9.89898 19.1752L9.32457 16.3048C9.31222 16.2307 9.2449 16.1813 9.17161 16.1813C9.09831 16.1813 9.03099 16.2307 9.01904 16.3048L8.44463 19.1752C8.34066 19.6998 7.96781 20.1257 7.4667 20.2985L6.10397 20.7614C6.04262 20.7801 6 20.8419 6 20.9096C6 20.9773 6.04262 21.0391 6.10397 21.0578L7.4667 21.5207C7.96781 21.6935 8.34066 22.1194 8.44463 22.644L9.01904 25.5144C9.03099 25.5885 9.09831 25.6379 9.17161 25.6379C9.2449 25.6379 9.30625 25.5826 9.32457 25.5144L9.89898 22.644C10.0029 22.1194 10.3754 21.6935 10.8765 21.5207L12.2396 21.0578C12.3006 21.0391 12.3432 20.9773 12.3432 20.9096C12.3432 20.8419 12.3006 20.7801 12.2396 20.7614Z" fill="#FFFDF7"/>
<path d="M9.86833 10.2431L10.8829 10.5889C11.2558 10.7187 11.537 11.033 11.6103 11.4282L12.0381 13.5705C12.0501 13.6259 12.0991 13.6629 12.154 13.6629C12.209 13.6629 12.258 13.6259 12.2703 13.5705L12.6982 11.4282C12.7774 11.0394 13.0523 10.7187 13.4311 10.5889L14.4457 10.2431C14.4947 10.2244 14.5254 10.1814 14.5254 10.132C14.5254 10.0826 14.4947 10.0396 14.4457 10.0208L13.4311 9.67509C13.0587 9.54523 12.7774 9.23093 12.6982 8.83578L12.2703 6.69349C12.258 6.63812 12.209 6.60107 12.154 6.60107C12.0991 6.60107 12.0501 6.63812 12.0381 6.69349L11.6103 8.83578C11.5306 9.22456 11.2558 9.54523 10.8829 9.67509L9.86833 10.0208C9.81973 10.0396 9.78906 10.0826 9.78906 10.132C9.78906 10.1814 9.81973 10.2244 9.86833 10.2431Z" fill="#FFFDF7"/>
</svg>
