<svg width="32" height="32" viewBox="0 0 32 32" fill="none" xmlns="http://www.w3.org/2000/svg">
    <path d="M16 32C24.8366 32 32 24.8366 32 16C32 7.16344 24.8366 0 16 0C7.16344 0 0 7.16344 0 16C0 24.8366 7.16344 32 16 32Z" fill="#1C68F3"/>
    <path d="M25.5999 12.2667V17.6H9.5999H8.91151C9.24288 19.0633 10.0197 20.3879 11.1351 21.3914C12.2504 22.3949 13.6495 23.028 15.1395 23.2035C16.6296 23.3789 18.1374 23.0881 19.4554 22.3712C20.7733 21.6542 21.8366 20.5463 22.4988 19.2H25.5999V23.68C25.5999 23.9321 25.5502 24.1818 25.4538 24.4147C25.3573 24.6477 25.2158 24.8594 25.0375 25.0376C24.8593 25.2159 24.6476 25.3574 24.4147 25.4538C24.1817 25.5503 23.932 25.6 23.6799 25.6H8.3199C8.06776 25.6 7.8181 25.5503 7.58515 25.4538C7.35221 25.3574 7.14055 25.2159 6.96226 25.0376C6.78397 24.8594 6.64254 24.6477 6.54605 24.4147C6.44956 24.1818 6.3999 23.9321 6.3999 23.68V12.2667H25.5999ZM20.6573 19.2001C20.1383 19.96 19.4418 20.5818 18.628 21.0114C17.8143 21.4411 16.908 21.6657 15.9878 21.6657C15.0676 21.6657 14.1613 21.4411 13.3475 21.0114C12.5338 20.5818 11.8372 19.96 11.3182 19.2001H20.6573ZM11.8932 13.5467C11.175 13.5467 10.4809 13.8055 9.9379 14.2757C9.39494 14.7458 9.03955 15.3958 8.93681 16.1067V16.1067H10.5734C10.6637 15.8277 10.8401 15.5845 11.0772 15.412C11.3143 15.2395 11.6 15.1466 11.8932 15.1466C12.1865 15.1466 12.4721 15.2395 12.7093 15.412C12.9464 15.5845 13.1227 15.8277 13.213 16.1067V16.1067H14.8497C14.7469 15.3958 14.3915 14.7458 13.8486 14.2757C13.3056 13.8055 12.6115 13.5467 11.8932 13.5467V13.5467ZM20.1066 13.5467C19.3884 13.5467 18.6942 13.8055 18.1512 14.2757C17.6083 14.7458 17.2529 15.3958 17.1501 16.1067H18.7868C18.8771 15.8277 19.0534 15.5845 19.2906 15.412C19.5277 15.2395 19.8133 15.1466 20.1066 15.1466C20.3998 15.1466 20.6855 15.2395 20.9226 15.412C21.1597 15.5845 21.3361 15.8277 21.4264 16.1067H23.063C22.9603 15.3958 22.6049 14.7458 22.0619 14.2757C21.519 13.8055 20.8248 13.5467 20.1066 13.5467V13.5467ZM23.6799 6.39999C23.932 6.39999 24.1817 6.44966 24.4147 6.54614C24.6476 6.64263 24.8593 6.78406 25.0375 6.96235C25.2158 7.14064 25.3573 7.3523 25.4538 7.58524C25.5502 7.81819 25.5999 8.06786 25.5999 8.31999V10.6667H6.3999V8.31999C6.3999 7.81078 6.60219 7.32242 6.96226 6.96235C7.32233 6.60228 7.81069 6.39999 8.3199 6.39999H23.6799Z" fill="white"/>
</svg>
