<svg width="32" height="32" viewBox="0 0 32 32" fill="none" xmlns="http://www.w3.org/2000/svg">
    <path d="M16 32C24.8366 32 32 24.8366 32 16C32 7.16344 24.8366 0 16 0C7.16344 0 0 7.16344 0 16C0 24.8366 7.16344 32 16 32Z" fill="#8247E5"/>
    <path d="M20.6998 12.1934C20.3404 11.9778 19.8732 11.9778 19.4778 12.1934L16.6744 13.8467L14.7696 14.9249L11.9662 16.5782C11.6068 16.7939 11.1395 16.7939 10.7442 16.5782L8.51586 15.2844C8.15645 15.0687 7.90486 14.6734 7.90486 14.2421V11.6903C7.90486 11.259 8.12051 10.8636 8.51586 10.648L10.7082 9.39006C11.0677 9.17442 11.5349 9.17442 11.9302 9.39006L14.1226 10.648C14.482 10.8636 14.7336 11.259 14.7336 11.6903V13.3436L16.6385 12.2294V10.5761C16.6385 10.1448 16.4228 9.74947 16.0275 9.53383L11.9662 7.16173C11.6068 6.94609 11.1395 6.94609 10.7442 7.16173L6.61099 9.53383C6.21564 9.74947 6 10.1448 6 10.5761V15.3562C6 15.7875 6.21564 16.1829 6.61099 16.3985L10.7442 18.7706C11.1036 18.9863 11.5708 18.9863 11.9662 18.7706L14.7696 17.1533L16.6744 16.0391L19.4778 14.4218C19.8372 14.2061 20.3044 14.2061 20.6998 14.4218L22.8922 15.6797C23.2516 15.8953 23.5032 16.2907 23.5032 16.722V19.2738C23.5032 19.7051 23.2875 20.1004 22.8922 20.3161L20.6998 21.6099C20.3404 21.8256 19.8732 21.8256 19.4778 21.6099L17.2854 20.352C16.926 20.1364 16.6744 19.741 16.6744 19.3097V17.6564L14.7696 18.7706V20.4239C14.7696 20.8552 14.9852 21.2505 15.3806 21.4662L19.5137 23.8383C19.8732 24.0539 20.3404 24.0539 20.7357 23.8383L24.8689 21.4662C25.2283 21.2505 25.4799 20.8552 25.4799 20.4239V15.6438C25.4799 15.2125 25.2643 14.8171 24.8689 14.6015L20.6998 12.1934Z" fill="white"/>
</svg>
