<svg width="32" height="32" viewBox="0 0 32 32" fill="none" xmlns="http://www.w3.org/2000/svg">
    <path d="M16 32C24.8366 32 32 24.8366 32 16C32 7.16344 24.8366 0 16 0C7.16344 0 0 7.16344 0 16C0 24.8366 7.16344 32 16 32Z" fill="white"/>
    <path d="M17.5943 17.5039C18.9469 17.1349 20.1428 16.3361 21.0017 15.2279C21.8606 14.1198 22.3358 12.7623 22.3556 11.3604C22.3344 9.68242 21.6593 8.07888 20.4739 6.891C19.2885 5.70312 17.6863 5.02467 16.0084 5C14.3303 5.02477 12.7282 5.70332 11.5428 6.89128C10.3574 8.07924 9.68227 9.68284 9.6611 11.3609C9.58598 12.8358 10.0568 14.2866 10.9836 15.4364C11.9104 16.5861 13.2282 17.3542 14.6854 17.5939V19.0624H10.984V20.9828H14.6854V22.3272H10.984V24.2475H14.6854V27H17.5943V24.2475H21.0375V22.3272H17.5943V20.9828H21.0376V19.0624H17.5943V17.5039ZM12.57 11.096C12.5689 10.6438 12.6571 10.1958 12.8294 9.77765C13.0017 9.35953 13.2548 8.97951 13.5742 8.65935C13.8935 8.33919 14.273 8.08518 14.6907 7.91187C15.1084 7.73856 15.5561 7.64935 16.0084 7.64935C16.4606 7.64935 16.9084 7.73856 17.3261 7.91187C17.7438 8.08518 18.1232 8.33919 18.4426 8.65935C18.762 8.97951 19.0151 9.35953 19.1874 9.77765C19.3597 10.1958 19.4478 10.6438 19.4467 11.096C19.4478 11.5482 19.3597 11.9962 19.1874 12.4143C19.0151 12.8325 18.762 13.2125 18.4426 13.5326C18.1232 13.8528 17.7438 14.1068 17.3261 14.2801C16.9084 14.4534 16.4606 14.5427 16.0084 14.5427C15.5561 14.5427 15.1084 14.4534 14.6907 14.2801C14.273 14.1068 13.8935 13.8528 13.5742 13.5326C13.2548 13.2125 13.0017 12.8325 12.8294 12.4143C12.6571 11.9962 12.5689 11.5482 12.57 11.096V11.096Z" fill="#00A147"/>
</svg>
