<svg width="32" height="32" viewBox="0 0 32 32" fill="none" xmlns="http://www.w3.org/2000/svg">
    <path fill-rule="evenodd" clip-rule="evenodd" d="M16 32C7.16369 32 0 24.8363 0 16C0 7.16369 7.16369 0 16 0C24.8363 0 32 7.16369 32 16C32 24.8363 24.8363 32 16 32Z" fill="white"/>
    <path fill-rule="evenodd" clip-rule="evenodd" d="M25.3776 11.6661C25.3776 11.8669 25.3381 12.0657 25.2612 12.2512C25.1844 12.4367 25.0718 12.6052 24.9298 12.7472C24.7879 12.8892 24.6193 13.0018 24.4338 13.0786C24.2483 13.1554 24.0495 13.195 23.8487 13.195C23.648 13.195 23.4491 13.1554 23.2637 13.0786C23.0782 13.0018 22.9096 12.8892 22.7676 12.7472C22.6257 12.6052 22.5131 12.4367 22.4362 12.2512C22.3594 12.0657 22.3198 11.8669 22.3198 11.6661C22.3198 11.2606 22.4809 10.8717 22.7676 10.585C23.0544 10.2983 23.4432 10.1372 23.8487 10.1372C24.2542 10.1372 24.6431 10.2983 24.9298 10.585C25.2165 10.8717 25.3776 11.2606 25.3776 11.6661ZM25.3776 20.3677C25.3776 20.5685 25.3381 20.7673 25.2612 20.9528C25.1844 21.1383 25.0718 21.3068 24.9298 21.4488C24.7879 21.5908 24.6193 21.7034 24.4338 21.7802C24.2483 21.8571 24.0495 21.8966 23.8487 21.8966C23.648 21.8966 23.4491 21.8571 23.2637 21.7802C23.0782 21.7034 22.9096 21.5908 22.7676 21.4488C22.6257 21.3068 22.5131 21.1383 22.4362 20.9528C22.3594 20.7673 22.3198 20.5685 22.3198 20.3677C22.3198 19.9622 22.4809 19.5734 22.7676 19.2866C23.0544 18.9999 23.4432 18.8388 23.8487 18.8388C24.2542 18.8388 24.6431 18.9999 24.9298 19.2866C25.2165 19.5734 25.3776 19.9622 25.3776 20.3677ZM9.67985 11.6661C9.67985 12.0716 9.51877 12.4605 9.23205 12.7472C8.94532 13.0339 8.55645 13.195 8.15096 13.195C7.74547 13.195 7.35659 13.0339 7.06987 12.7472C6.78315 12.4605 6.62207 12.0716 6.62207 11.6661C6.62207 11.2606 6.78315 10.8717 7.06987 10.585C7.35659 10.2983 7.74547 10.1372 8.15096 10.1372C8.55645 10.1372 8.94532 10.2983 9.23205 10.585C9.51877 10.8717 9.67985 11.2606 9.67985 11.6661ZM9.67985 20.3677C9.67985 20.7732 9.51877 21.1621 9.23205 21.4488C8.94532 21.7355 8.55645 21.8966 8.15096 21.8966C7.74547 21.8966 7.35659 21.7355 7.06987 21.4488C6.78315 21.1621 6.62207 20.7732 6.62207 20.3677C6.62207 19.9622 6.78315 19.5734 7.06987 19.2866C7.35659 18.9999 7.74547 18.8388 8.15096 18.8388C8.55645 18.8388 8.94532 18.9999 9.23205 19.2866C9.51877 19.5734 9.67985 19.9622 9.67985 20.3677Z" fill="#5D9BEC"/>
    <path fill-rule="evenodd" clip-rule="evenodd" d="M8.15121 18.5118C8.4001 18.5118 8.63714 18.5615 8.85403 18.651V13.3829C8.62579 13.4768 8.38106 13.5241 8.13425 13.522C7.88745 13.5199 7.64357 13.4683 7.41699 13.3704V18.6641C7.64218 18.5663 7.89047 18.5118 8.15121 18.5118ZM22.0179 11.9595L15.9989 15.4344L9.98173 11.9607C9.94252 12.2045 9.85502 12.4381 9.72436 12.6477C9.59371 12.8574 9.42252 13.0388 9.22084 13.1814L15.9444 17.0629L15.9989 17.0943L16.054 17.0629L22.7788 13.1802C22.5772 13.0375 22.406 12.8561 22.2754 12.6465C22.1447 12.4369 22.0572 12.2033 22.0179 11.9595ZM23.849 18.5118C24.1097 18.5118 24.3563 18.5663 24.5814 18.6629V13.371C24.3549 13.4691 24.111 13.5208 23.8641 13.5228C23.6173 13.5248 23.3725 13.4773 23.1444 13.3829V18.651C23.3681 18.5589 23.6077 18.5116 23.8496 18.5118" fill="#B0DBFF"/>
    <path fill-rule="evenodd" clip-rule="evenodd" d="M16.1721 6.62094L16.1673 6.61797L16.1655 6.61738C16.1546 6.61114 16.1434 6.6056 16.1318 6.60079L16.1282 6.5996L16.1241 6.59783L16.0927 6.58775L16.0826 6.58479C16.0722 6.58253 16.0617 6.58055 16.0512 6.57886L16.0405 6.57709C16.0275 6.57541 16.0145 6.57462 16.0014 6.57471H15.9972C15.9844 6.57464 15.9715 6.57543 15.9587 6.57709H15.9564L15.9487 6.57886C15.9381 6.58044 15.9276 6.58242 15.9172 6.58479L15.9054 6.58775L15.8698 6.5996C15.8574 6.60472 15.8453 6.61066 15.8337 6.61738H15.8325L15.8266 6.62094L9.4248 10.3169C9.59369 10.4763 9.73177 10.6666 9.83132 10.8793L15.6541 7.51753V11.8755C15.6541 12.0651 15.8094 12.2209 15.9996 12.2209C16.0912 12.2208 16.179 12.1843 16.2437 12.1196C16.3085 12.0548 16.3449 11.967 16.3451 11.8755V7.51753L22.1691 10.8799C22.2687 10.6678 22.4061 10.4769 22.5756 10.3169L16.1721 6.62153V6.62094Z" fill="#B0DBFF"/>
    <path fill-rule="evenodd" clip-rule="evenodd" d="M17.5275 16.0167C17.5275 16.4222 17.3664 16.811 17.0797 17.0978C16.793 17.3845 16.4041 17.5456 15.9986 17.5456C15.5931 17.5456 15.2043 17.3845 14.9175 17.0978C14.6308 16.811 14.4697 16.4222 14.4697 16.0167C14.4697 15.6112 14.6308 15.2223 14.9175 14.9356C15.2043 14.6489 15.5931 14.4878 15.9986 14.4878C16.4041 14.4878 16.793 14.6489 17.0797 14.9356C17.3664 15.2223 17.5275 15.6112 17.5275 16.0167Z" fill="#5D9BEC"/>
    <path fill-rule="evenodd" clip-rule="evenodd" d="M22.1556 21.1273L16.3441 24.4826V20.1246C16.3404 20.0356 16.3024 19.9514 16.2381 19.8896C16.1737 19.8279 16.088 19.7935 15.9989 19.7935C15.9097 19.7935 15.824 19.8279 15.7597 19.8896C15.6954 19.9514 15.6574 20.0356 15.6537 20.1246V24.4826L9.84333 21.1279C9.74733 21.3412 9.61222 21.5344 9.44629 21.6962L15.8261 25.3791L15.8309 25.3821L15.8327 25.3833C15.8438 25.3892 15.8553 25.3946 15.867 25.3993L15.87 25.4005L15.8735 25.4017C15.8841 25.4062 15.895 25.4098 15.9061 25.4123L15.9156 25.4153C15.9263 25.4177 15.9364 25.42 15.947 25.4212L15.9577 25.423C15.9848 25.4266 16.0123 25.4266 16.0395 25.423H16.0424L16.049 25.4218L16.0815 25.4153L16.0916 25.4123C16.1173 25.4061 16.1418 25.3961 16.1645 25.3827H16.1657L16.1716 25.3791L22.5521 21.6956C22.3855 21.5325 22.251 21.3395 22.1556 21.1267" fill="#B0DBFF"/>
</svg>
