<svg width="32" height="32" viewBox="0 0 32 32" fill="none" xmlns="http://www.w3.org/2000/svg">
    <g clip-path="url(#clip0_1199_262)">
        <path d="M14.0596 0.111297C17.4515 -0.297999 20.886 0.374882 23.8726 2.03386C27.3407 3.98822 29.9545 7.16652 31.2025 10.9466C32.4133 14.6804 32.2414 18.725 30.718 22.3425C29.1257 26.0423 26.198 29.0063 22.5182 30.6441C20.3746 31.5777 18.0552 32.0395 15.7175 31.9979C13.3797 31.9563 11.0783 31.4124 8.96924 30.4031C5.75796 28.8365 3.1627 26.2412 1.59624 23.0299C0.531495 20.8058 -0.0142177 18.3689 0.000281539 15.9032C0.0147808 13.4374 0.589113 11.0072 1.67994 8.79577C2.86503 6.43789 4.61607 4.41051 6.77645 2.89498C8.93682 1.37946 11.4392 0.423047 14.0596 0.111297V0.111297ZM8.00294 6.23155C6.96559 6.76165 7.59713 8.32155 6.60544 8.88205C6.05023 9.25327 5.59541 9.75602 5.28149 10.3455C4.94769 11.4359 4.83727 12.5823 4.95684 13.7164C4.96952 17.668 4.9746 21.6171 4.95177 25.5688C5.89275 25.5713 6.83371 25.5713 7.77467 25.5688C7.78228 20.0243 7.69858 14.4747 7.81525 8.9328C8.53301 8.89727 9.2508 8.86429 9.96857 8.85669C10.5088 12.6612 10.9349 16.4835 11.4904 20.2855C11.6211 20.9929 11.9327 21.6544 12.395 22.2055C12.8572 22.7567 13.4543 23.1788 14.1281 23.4306C14.1944 24.0014 14.315 24.5645 14.4883 25.1122C14.6087 25.3323 14.7806 25.52 14.9893 25.6592C15.198 25.7985 15.4373 25.8851 15.6867 25.9118C15.9362 25.9384 16.1884 25.9043 16.4218 25.8124C16.6552 25.7204 16.8629 25.5733 17.0271 25.3836C17.2461 24.7603 17.4332 24.1263 17.5876 23.4839C18.1684 22.936 18.9674 22.6444 19.4391 21.9773C19.9808 21.1035 20.2891 20.1053 20.3344 19.0782C20.7554 15.6744 21.2145 12.2732 21.6432 8.86937C22.3736 8.86429 23.1041 8.88966 23.8345 8.93024C23.903 14.4798 23.832 20.0319 23.87 25.5815C24.811 25.5713 25.752 25.5713 26.6929 25.5764C26.731 21.0262 26.731 16.4759 26.6929 11.9257C26.6758 11.2147 26.4632 10.5221 26.0784 9.92391C25.6936 9.32573 25.1516 8.84505 24.5117 8.53457C24.4659 8.0092 24.3777 7.4884 24.2479 6.97724C24.1418 6.74992 23.9831 6.55112 23.7849 6.39724C23.5867 6.24335 23.3548 6.13881 23.1083 6.09223C22.8618 6.04564 22.6077 6.05836 22.3671 6.12934C22.1264 6.20031 21.9061 6.32749 21.7243 6.5004C21.2196 7.21566 21.3413 8.35195 20.4207 8.74001C19.8114 9.10083 19.2999 9.60563 18.9311 10.2101C18.5623 10.8146 18.3475 11.5004 18.3054 12.2072C17.8311 15.7632 17.4177 19.3293 16.9814 22.8904C16.218 22.9386 15.4521 22.9437 14.6886 22.9158C14.227 19.4587 13.8186 15.9966 13.3824 12.5344C13.3055 11.5239 12.9663 10.5508 12.3984 9.71142C11.9139 9.08242 11.1429 8.78818 10.5976 8.23272C10.4204 7.66355 10.2035 7.10756 9.94828 6.56886C9.69647 6.32201 9.37557 6.15756 9.02813 6.09732C8.6807 6.03708 8.32316 6.08389 8.00294 6.23155V6.23155Z" fill="url(#paint0_linear_1199_262)"/>
        <path d="M8.003 6.23155C8.32321 6.08389 8.68075 6.03708 9.02819 6.09733C9.37562 6.15757 9.69653 6.32203 9.94834 6.56888C10.2035 7.10758 10.4205 7.66357 10.5976 8.23274C11.1429 8.7882 11.914 9.08241 12.3984 9.71143C12.9663 10.5508 13.3055 11.5239 13.3825 12.5344C13.8187 15.9966 14.2271 19.4587 14.6887 22.9158C15.4521 22.9437 16.2181 22.9386 16.9815 22.8904C17.4177 19.3294 17.8312 15.7632 18.3055 12.2072C18.3476 11.5004 18.5624 10.8146 18.9312 10.2101C19.3 9.60562 19.8114 9.10082 20.4207 8.73998C21.3414 8.35192 21.2197 7.21564 21.7244 6.50038C21.9062 6.32747 22.1265 6.20028 22.3671 6.12931C22.6078 6.05834 22.8618 6.04562 23.1084 6.0922C23.3549 6.13878 23.5868 6.24333 23.785 6.39721C23.9831 6.5511 24.1418 6.7499 24.248 6.97722C24.3777 7.48838 24.4659 8.00918 24.5118 8.53455C25.1517 8.84503 25.6937 9.32571 26.0784 9.92389C26.4632 10.5221 26.6758 11.2146 26.693 11.9257C26.7386 16.4759 26.7386 21.0261 26.693 25.5764C25.752 25.5713 24.8111 25.5713 23.8701 25.5815C23.8321 20.0319 23.9031 14.4798 23.8346 8.93022C23.1041 8.88964 22.3737 8.86427 21.6432 8.86935C21.2146 12.2731 20.7555 15.6744 20.3345 19.0782C20.2892 20.1053 19.9809 21.1035 19.4392 21.9773C18.9674 22.6443 18.1685 22.936 17.5877 23.4839C17.4332 24.1262 17.2461 24.7603 17.0271 25.3836C16.8629 25.5733 16.6552 25.7204 16.4218 25.8123C16.1884 25.9043 15.9362 25.9384 15.6868 25.9117C15.4373 25.8851 15.198 25.7984 14.9893 25.6592C14.7806 25.52 14.6087 25.3323 14.4883 25.1122C14.315 24.5644 14.1944 24.0013 14.1282 23.4306C13.4544 23.1787 12.8573 22.7567 12.395 22.2055C11.9328 21.6544 11.6211 20.9929 11.4904 20.2855C10.935 16.4835 10.5089 12.6612 9.96863 8.85667C9.25086 8.86427 8.53308 8.89724 7.81531 8.93275C7.69864 14.4748 7.78231 20.0243 7.77473 25.5688C6.83376 25.5713 5.89279 25.5713 4.95183 25.5688C4.97466 21.6171 4.96958 17.668 4.9569 13.7163C4.83733 12.5823 4.94774 11.4358 5.28155 10.3455C5.59548 9.75597 6.05031 9.25322 6.60555 8.88201C7.59719 8.32151 6.96565 6.76165 8.003 6.23155Z" fill="white"/>
    </g>
    <defs>
        <linearGradient id="paint0_linear_1199_262" x1="16" y1="32" x2="16" y2="-1.14441e-05" gradientUnits="userSpaceOnUse">
            <stop stop-color="#8472F3"/>
            <stop offset="0.6" stop-color="#DD6431"/>
            <stop offset="1" stop-color="#D0C9BE"/>
        </linearGradient>
        <clipPath id="clip0_1199_262">
            <rect width="32" height="32" fill="white"/>
        </clipPath>
    </defs>
</svg>
