<svg width="32" height="32" viewBox="0 0 32 32" fill="none" xmlns="http://www.w3.org/2000/svg">
    <path d="M16 32C24.8366 32 32 24.8366 32 16C32 7.16344 24.8366 0 16 0C7.16344 0 0 7.16344 0 16C0 24.8366 7.16344 32 16 32Z" fill="#232C45"/>
    <path d="M19.0893 9.26248V5.73332L16.0001 5V8.52915L12.9109 7.79583V11.3342L9.82178 10.6008V21.995L12.9109 22.7375V26.2667L16.0001 27V23.4708L19.0893 24.2042V20.6658L22.1785 21.3992V10.005L19.0893 9.26248ZM16.6143 21.2617L12.2967 20.235V13.5342L16.6143 14.57L16.6143 21.2617Z" fill="white"/>
</svg>
