<svg width="32" height="32" viewBox="0 0 32 32" fill="none" xmlns="http://www.w3.org/2000/svg">
    <path d="M16 32C24.8366 32 32 24.8366 32 16C32 7.16344 24.8366 0 16 0C7.16344 0 0 7.16344 0 16C0 24.8366 7.16344 32 16 32Z" fill="#013878"/>
    <path d="M26.8796 20.5505L23.9218 16.1102C23.9085 16.0864 19.9061 8.96995 19.8655 8.89821C19.8204 8.81618 19.7539 8.74792 19.6731 8.70071C19.5923 8.65351 19.5002 8.62911 19.4066 8.63014C19.3945 8.63014 19.3823 8.63036 19.3701 8.63133C19.2803 8.64495 19.1954 8.68132 19.1236 8.73698C19.0518 8.79264 18.9954 8.86574 18.9598 8.94933V8.94927L16.2508 14.7356C16.236 14.7649 16.2138 14.7899 16.1864 14.8081C16.159 14.8263 16.1274 14.837 16.0946 14.8392C16.0727 14.8414 16.0506 14.8377 16.0306 14.8283C16.0107 14.819 15.9936 14.8045 15.9813 14.7862L13.3175 11.0691C13.2727 11.0018 13.2115 10.9471 13.1395 10.9102C13.0676 10.8733 12.9875 10.8554 12.9067 10.8582H12.9063C12.8249 10.8678 12.7466 10.8954 12.6771 10.9388C12.6076 10.9823 12.5486 11.0405 12.5043 11.1095L8.46973 17.0551L8.46334 17.0626L5.14393 20.555C5.07772 20.6242 5.03223 20.7106 5.0126 20.8044C4.99296 20.8981 4.99998 20.9955 5.03285 21.0855C5.06912 21.1699 5.12936 21.2419 5.20612 21.2924C5.28288 21.343 5.37278 21.3699 5.46468 21.3698L26.4986 21.3679C26.5906 21.3687 26.6813 21.3466 26.7627 21.3036C26.844 21.2607 26.9134 21.1983 26.9647 21.1219C26.9947 21.0264 27.0026 20.9254 26.9879 20.8264C26.9732 20.7274 26.9361 20.6331 26.8796 20.5505V20.5505ZM19.6023 10.8272V10.827C19.6031 10.7988 19.6131 10.7716 19.6308 10.7497C19.6485 10.7277 19.673 10.7121 19.7004 10.7054C19.7277 10.6986 19.7566 10.701 19.7825 10.7123C19.8084 10.7235 19.8299 10.7429 19.8437 10.7675L22.6014 15.6779C22.6122 15.6975 22.6178 15.7196 22.6176 15.7419C22.6173 15.7643 22.6113 15.7862 22.6 15.8056C22.5887 15.8249 22.5726 15.841 22.5533 15.8522C22.534 15.8635 22.512 15.8695 22.4896 15.8697C22.4789 15.8697 22.4683 15.8684 22.4579 15.866L19.5884 15.1645C19.5598 15.1575 19.5344 15.1409 19.5166 15.1175C19.4987 15.0941 19.4894 15.0652 19.4902 15.0358L19.6023 10.8272ZM16.4034 16.8104L16.4036 16.8084L16.4331 16.8111L16.4036 16.808C16.4168 16.6444 16.4481 16.4828 16.4969 16.3262C16.578 16.1241 16.7033 15.8552 16.7283 15.8014L16.7308 15.7932L18.9038 11.254C18.9166 11.2274 18.9381 11.206 18.9647 11.1933C18.9914 11.1807 19.0216 11.1775 19.0502 11.1844C19.0789 11.1914 19.1043 11.2079 19.1223 11.2314C19.1402 11.2548 19.1495 11.2837 19.1487 11.3131L19.0455 15.1839C19.0449 15.213 19.0342 15.2409 19.0154 15.2632L16.6007 18.1494C16.5888 18.1639 16.5738 18.1755 16.5568 18.1835C16.5398 18.1914 16.5213 18.1956 16.5025 18.1955C16.4868 18.1956 16.4711 18.1928 16.4564 18.1873C16.4313 18.178 16.4097 18.161 16.3947 18.1388C16.3797 18.1166 16.3721 18.0902 16.3729 18.0635L16.4034 16.8104ZM12.7715 14.9734L13.0164 12.6188V12.6187C13.019 12.5927 13.0295 12.5682 13.0464 12.5484C13.0632 12.5285 13.0857 12.5142 13.1109 12.5074C13.1361 12.5006 13.1627 12.5015 13.1873 12.5101C13.2119 12.5187 13.2333 12.5346 13.2487 12.5556L15.594 15.7545C15.7135 15.9148 15.8163 16.0868 15.901 16.2679C15.9497 16.4248 15.9701 16.5892 15.9611 16.7533L15.9615 16.7878L15.9633 16.7974L15.9295 18.1906C15.9291 18.2163 15.921 18.2414 15.9061 18.2623C15.8912 18.2833 15.8703 18.2993 15.8462 18.3082C15.8312 18.3137 15.8154 18.3166 15.7995 18.3166C15.7819 18.3166 15.7645 18.3129 15.7484 18.3057C15.7323 18.2985 15.7179 18.2881 15.7061 18.275L13.9125 16.3345L13.9108 16.333L12.8028 15.072C12.791 15.0587 12.7821 15.043 12.7767 15.0261C12.7713 15.0091 12.7695 14.9911 12.7715 14.9734V14.9734ZM10.4356 15.8339L12.2776 13.1221C12.2938 13.0984 12.3173 13.0807 12.3447 13.0719C12.372 13.0631 12.4014 13.0637 12.4284 13.0735C12.4554 13.0833 12.4783 13.1019 12.4935 13.1262C12.5087 13.1505 12.5154 13.1792 12.5124 13.2078L12.3358 14.9076C12.3337 14.9273 12.3271 14.9463 12.3165 14.9631C12.3059 14.9799 12.2917 14.994 12.2748 15.0044L10.6092 16.0163C10.5842 16.0321 10.5545 16.0386 10.5252 16.0348C10.4959 16.0309 10.4688 16.0169 10.4488 15.9951C10.4281 15.9741 10.4155 15.9464 10.4131 15.917C10.4107 15.8875 10.4186 15.8582 10.4356 15.834V15.8339ZM9.85583 20.3721C9.84418 20.3901 9.82822 20.4048 9.8094 20.415C9.79058 20.4252 9.7695 20.4305 9.74809 20.4305H6.85899C6.83377 20.4306 6.80909 20.4232 6.78801 20.4094C6.76693 20.3955 6.75039 20.3758 6.74042 20.3526C6.73046 20.3295 6.72752 20.3039 6.73198 20.2791C6.73643 20.2542 6.74808 20.2313 6.76547 20.213L8.74394 18.1311C8.75861 18.1157 8.77686 18.1042 8.79707 18.0975C8.81727 18.0909 8.83882 18.0893 8.85977 18.093C8.88072 18.0967 8.90044 18.1055 8.91716 18.1187C8.93388 18.1318 8.94709 18.1489 8.95561 18.1684L9.86613 20.2501C9.87475 20.2697 9.87832 20.2911 9.87653 20.3124C9.87473 20.3338 9.86761 20.3543 9.85583 20.3721V20.3721ZM10.4715 20.3248L10.4545 20.3237C10.4302 20.321 10.4071 20.3119 10.3874 20.2973C10.3678 20.2827 10.3524 20.2632 10.3428 20.2407L9.25999 17.7662C9.24526 17.7273 9.23662 17.6864 9.23439 17.6449C9.24144 17.5999 9.26002 17.5574 9.28834 17.5217L9.4099 17.3437C9.44246 17.2985 9.47923 17.2565 9.51972 17.2182C9.59242 17.1576 9.66979 17.1027 9.75111 17.0542L9.75766 17.0488L12.4012 15.4432C12.427 15.4274 12.4576 15.4212 12.4875 15.4257C12.5175 15.4302 12.5449 15.4451 12.5649 15.4679L13.4034 16.4224C13.4195 16.4406 13.4288 16.4639 13.4297 16.4882C13.4307 16.5125 13.4232 16.5363 13.4085 16.5557L10.5826 20.2695C10.5697 20.2868 10.5529 20.3007 10.5336 20.3103C10.5143 20.3199 10.493 20.3249 10.4715 20.3249V20.3248ZM14.5152 20.4305H11.3001C11.2762 20.4305 11.2527 20.4238 11.2323 20.4111C11.212 20.3985 11.1956 20.3805 11.1849 20.359C11.1742 20.3376 11.1697 20.3136 11.1719 20.2898C11.1741 20.2659 11.1829 20.2432 11.1973 20.224L13.6683 16.9425C13.6797 16.9274 13.6944 16.915 13.7112 16.9061C13.728 16.8973 13.7465 16.8923 13.7654 16.8914C13.7842 16.8907 13.8029 16.894 13.8203 16.9011C13.8376 16.9082 13.8533 16.9189 13.8662 16.9325L15.7493 18.9702C15.7714 18.9939 15.7837 19.025 15.7837 19.0574C15.7837 19.0897 15.7715 19.1209 15.7495 19.1446L14.6103 20.3886C14.5982 20.4018 14.5835 20.4124 14.5671 20.4196C14.5508 20.4268 14.5331 20.4305 14.5152 20.4305V20.4305ZM18.2052 20.3406C18.2001 20.3663 18.1862 20.3893 18.1658 20.4057C18.1454 20.4221 18.12 20.4309 18.0938 20.4305H15.4621C15.4371 20.4305 15.4126 20.4233 15.3917 20.4097C15.3707 20.3961 15.3542 20.3766 15.3441 20.3538C15.3341 20.3309 15.3309 20.3056 15.335 20.2809C15.339 20.2563 15.3502 20.2333 15.3671 20.2149L16.1202 19.3921C16.1385 19.3719 16.1627 19.358 16.1894 19.3525C16.216 19.347 16.2438 19.3502 16.2685 19.3616L18.141 20.2123C18.1651 20.2228 18.1847 20.2413 18.1965 20.2648C18.2082 20.2883 18.2113 20.3151 18.2052 20.3406V20.3406ZM22.453 20.3611C22.4421 20.3821 22.4257 20.3996 22.4056 20.4119C22.3854 20.4241 22.3623 20.4305 22.3388 20.4305H19.785C19.7187 20.4303 19.6532 20.4162 19.5927 20.389L16.6372 19.046C16.6192 19.0378 16.6032 19.0256 16.5907 19.0102C16.5781 18.9948 16.5693 18.9767 16.5649 18.9574C16.5604 18.938 16.5606 18.9179 16.5652 18.8986C16.5699 18.8793 16.5789 18.8614 16.5916 18.8461L19.1391 15.8013C19.1515 15.7857 19.1675 15.7733 19.1857 15.7653C19.2039 15.7573 19.2239 15.7539 19.2437 15.7553C19.2634 15.7562 19.2827 15.7616 19.3 15.7711C19.3173 15.7806 19.3322 15.794 19.3434 15.8102H19.3435L22.4445 20.2276C22.458 20.2469 22.466 20.2696 22.4675 20.2932C22.469 20.3168 22.464 20.3403 22.453 20.3612L22.453 20.3611ZM23.037 19.9078C23.0352 19.9344 23.0252 19.9598 23.0083 19.9804C22.9914 20.001 22.9685 20.0157 22.9428 20.0226C22.9313 20.0259 22.9195 20.0275 22.9076 20.0275C22.887 20.0275 22.8667 20.0225 22.8484 20.0129C22.8301 20.0033 22.8145 19.9894 22.8027 19.9724V19.9727L19.9754 15.9445C19.9603 15.923 19.9521 15.8974 19.9519 15.8712C19.9518 15.8449 19.9596 15.8193 19.9745 15.7976C19.9893 15.7759 20.0104 15.7593 20.0349 15.75C20.0595 15.7406 20.0863 15.739 20.1117 15.7453L22.8307 16.4096C22.8969 16.4235 22.9612 16.4455 23.0221 16.475V16.475C23.0583 16.5042 23.0893 16.5393 23.1138 16.5788L23.1933 16.7052L23.1964 16.712C23.2163 16.7453 23.2321 16.7809 23.2435 16.818C23.2497 16.8597 23.2529 16.9019 23.253 16.9441L23.2535 16.9517L23.037 19.9078ZM25.5449 20.3626C25.5341 20.3833 25.5178 20.4005 25.4977 20.4125C25.4777 20.4245 25.4547 20.4307 25.4314 20.4305H23.5792C23.5614 20.4305 23.5439 20.4268 23.5277 20.4197C23.5115 20.4126 23.4969 20.4023 23.4848 20.3893C23.4727 20.3764 23.4634 20.3611 23.4575 20.3444C23.4516 20.3277 23.4492 20.3099 23.4505 20.2922L23.6339 17.7881V17.7881C23.6358 17.7613 23.6461 17.7358 23.6633 17.7152C23.6804 17.6945 23.7036 17.6797 23.7296 17.6729C23.7556 17.666 23.783 17.6675 23.8082 17.677C23.8333 17.6865 23.8548 17.7037 23.8697 17.726L25.539 20.2302C25.5522 20.2496 25.5597 20.2722 25.5607 20.2956C25.5618 20.319 25.5563 20.3422 25.5449 20.3626L25.5449 20.3626Z" fill="white"/>
</svg>
