<svg width="32" height="32" viewBox="0 0 32 32" fill="none" xmlns="http://www.w3.org/2000/svg">
    <path d="M16 32C24.8366 32 32 24.8366 32 16C32 7.16344 24.8366 0 16 0C7.16344 0 0 7.16344 0 16C0 24.8366 7.16344 32 16 32Z" fill="#1AAB9B"/>
    <path d="M8.99194 20.1595V13.3822L14.1316 17.25V20.1595H15.4439V16.9772C15.4439 16.7367 15.3309 16.5102 15.1387 16.3656L8.90545 11.6748C8.401 11.2951 7.67969 11.6551 7.67969 12.2864V20.1595H8.99194Z" fill="white"/>
    <path d="M23.2068 20.1595V13.3822L18.0671 17.25V20.1595H16.7549V16.9772C16.7549 16.7367 16.8679 16.5102 17.0601 16.3656L23.2933 11.6748C23.7978 11.2951 24.5191 11.6551 24.5191 12.2864V20.1595H23.2068Z" fill="white"/>
</svg>
