<svg width="32" height="32" viewBox="0 0 32 32" fill="none" xmlns="http://www.w3.org/2000/svg">
    <path d="M16 32C24.8366 32 32 24.8366 32 16C32 7.16344 24.8366 0 16 0C7.16344 0 0 7.16344 0 16C0 24.8366 7.16344 32 16 32Z" fill="url(#paint0_linear)"/>
    <path d="M16.6353 10.4751C16.6353 9.95125 16.8433 9.44888 17.2137 9.07847C17.5841 8.70807 18.0865 8.49998 18.6103 8.49998C19.1342 8.49998 19.6365 8.70807 20.0069 9.07847C20.3773 9.44888 20.5854 9.95125 20.5854 10.4751V16.2039H16.6353V10.4751Z" fill="white"/>
    <path d="M16.6353 22.0073C16.6353 22.5513 16.4192 23.073 16.0346 23.4576C15.6499 23.8423 15.1282 24.0583 14.5843 24.0583C14.0403 24.0583 13.5186 23.8423 13.1339 23.4576C12.7493 23.073 12.5332 22.5513 12.5332 22.0073V16.2034H16.6353V22.0073Z" fill="white"/>
    <path d="M9.95044 12.3601C9.95044 12.0176 10.0865 11.6891 10.3287 11.447C10.5709 11.2048 10.8993 11.0687 11.2418 11.0687C11.5844 11.0687 11.9128 11.2048 12.155 11.447C12.3972 11.6891 12.5333 12.0176 12.5333 12.3601V16.2047H9.95044V12.3601Z" fill="white"/>
    <path d="M9.95061 18.1584C9.95115 18.3782 9.90832 18.5959 9.82457 18.7992C9.74082 19.0024 9.61781 19.1871 9.46257 19.3427C9.30733 19.4984 9.12291 19.6218 8.91988 19.7061C8.71685 19.7903 8.4992 19.8337 8.27938 19.8337C8.05957 19.8337 7.84192 19.7903 7.63889 19.7061C7.43586 19.6218 7.25144 19.4984 7.0962 19.3427C6.94096 19.1871 6.81794 19.0024 6.7342 18.7992C6.65045 18.5959 6.60762 18.3782 6.60816 18.1584V16.2042H9.95061V18.1584Z" fill="white"/>
    <path d="M27.9141 17.4707C27.9141 17.8052 27.7812 18.1261 27.5446 18.3627C27.3081 18.5992 26.9872 18.7322 26.6526 18.7322C26.318 18.7322 25.9972 18.5992 25.7606 18.3627C25.524 18.1261 25.3911 17.8052 25.3911 17.4707V16.2091H27.9141V17.4707Z" fill="white"/>
    <path d="M4.08597 14.9476C4.08482 14.7812 4.1166 14.6162 4.17948 14.4621C4.24237 14.3081 4.33511 14.168 4.45236 14.0499C4.56962 13.9318 4.70907 13.8381 4.86269 13.7742C5.01631 13.7102 5.18107 13.6773 5.34747 13.6773C5.51387 13.6773 5.67862 13.7102 5.83224 13.7742C5.98587 13.8381 6.12532 13.9318 6.24257 14.0499C6.35983 14.168 6.45257 14.3081 6.51545 14.4621C6.57833 14.6162 6.61011 14.7812 6.60897 14.9476V16.2091H4.08597V14.9476Z" fill="white"/>
    <path d="M23.1685 20.8039C23.1685 21.1464 23.0324 21.4749 22.7903 21.7171C22.5481 21.9593 22.2196 22.0953 21.8771 22.0953C21.5346 22.0953 21.2061 21.9593 20.9639 21.7171C20.7218 21.4749 20.5857 21.1464 20.5857 20.8039V16.2041H23.1685V20.8039Z" fill="white"/>
    <path d="M23.1685 12.0557C23.1685 11.7535 23.2885 11.4637 23.5022 11.25C23.7159 11.0363 24.0057 10.9163 24.3079 10.9163C24.6101 10.9163 24.8999 11.0363 25.1136 11.25C25.3273 11.4637 25.4474 11.7535 25.4474 12.0557V16.2033H23.1685V12.0557Z" fill="white"/>
    <defs>
        <linearGradient id="paint0_linear" x1="16" y1="6.85715" x2="16" y2="22.4762" gradientUnits="userSpaceOnUse">
            <stop stop-color="#6F56FD"/>
            <stop offset="1" stop-color="#00CABE"/>
        </linearGradient>
    </defs>
</svg>
