<svg width="32" height="32" viewBox="0 0 32 32" fill="none" xmlns="http://www.w3.org/2000/svg">
    <path d="M16 32C24.8366 32 32 24.8366 32 16C32 7.16344 24.8366 0 16 0C7.16344 0 0 7.16344 0 16C0 24.8366 7.16344 32 16 32Z" fill="white"/>
    <path d="M15.8231 3.5C13.3438 3.5 10.966 4.4849 9.21289 6.23804C7.45976 7.99118 6.47485 10.3689 6.47485 12.8483V12.8485C6.47507 13.4391 6.53055 14.0284 6.64056 14.6087L7.84818 13.7816C9.00358 13.0676 10.3349 12.6895 11.6931 12.6895C13.0513 12.6895 14.3826 13.0676 15.538 13.7816L16.8052 14.6494L17.492 15.1214C18.5326 15.7643 19.7316 16.1048 20.9548 16.1048C22.178 16.1048 23.377 15.7643 24.4176 15.1214L24.9811 14.7356C25.2594 13.377 25.2322 11.9734 24.9013 10.6266C24.5704 9.27974 23.9442 8.02333 23.068 6.94831C22.1918 5.87328 21.0875 5.00655 19.835 4.41085C18.5826 3.81515 17.2134 3.50539 15.8265 3.504L15.8231 3.5Z" fill="#F2B705"/>
    <path d="M21.0765 18.4639C19.741 18.4866 18.4289 18.1117 17.3071 17.3868L15.3547 16.0487C14.303 15.3726 13.0735 15.0256 11.8236 15.0523C10.5733 15.0244 9.34331 15.3714 8.292 16.0487L7.02962 16.913C6.97049 16.9541 6.90383 16.9832 6.83347 16.9985C6.7631 17.0139 6.69041 17.0152 6.61953 17.0025C6.54865 16.9897 6.48097 16.9631 6.42037 16.9242C6.35976 16.8853 6.30741 16.8348 6.26631 16.7757C6.2252 16.7166 6.19615 16.6499 6.18081 16.5796C6.16546 16.5092 6.16413 16.4365 6.17688 16.3656C6.18963 16.2947 6.21621 16.2271 6.25512 16.1665C6.29402 16.1058 6.34449 16.0535 6.40362 16.0124L6.4099 16.0081L7.67163 15.1437C8.90638 14.3436 10.3519 13.9304 11.823 13.957C13.294 13.9304 14.7395 14.3436 15.9741 15.1437L17.9266 16.4818C18.8746 17.062 19.9645 17.369 21.076 17.369C22.1875 17.369 23.2774 17.062 24.2255 16.4818L24.9669 15.9745C25.0257 15.9325 25.0922 15.9026 25.1625 15.8864C25.2329 15.8703 25.3058 15.8681 25.3769 15.8802C25.4481 15.8923 25.5162 15.9183 25.5774 15.9567C25.6385 15.9952 25.6914 16.0453 25.7331 16.1043C25.7748 16.1632 25.8044 16.2298 25.8202 16.3003C25.8361 16.3707 25.8379 16.4436 25.8255 16.5147C25.8132 16.5859 25.7869 16.6539 25.7481 16.7148C25.7094 16.7757 25.659 16.8284 25.5999 16.8699L25.5863 16.8792L24.8449 17.3865C23.7236 18.1119 22.4117 18.487 21.0765 18.4639Z" fill="#53CBC8"/>
    <path d="M11.7827 22.3898V17.1078C11.7786 16.9967 11.7833 16.8854 11.7967 16.7751C11.8131 16.6297 11.8825 16.4955 11.9916 16.3981C12.1007 16.3007 12.2419 16.2469 12.3882 16.2471C12.5299 16.2509 12.6652 16.3069 12.7682 16.4043C12.8712 16.5018 12.9346 16.6338 12.9463 16.7751C12.9687 16.9584 12.9752 17.1434 12.9656 17.3279V27.859C12.9684 27.941 12.955 28.0227 12.926 28.0994C12.897 28.1761 12.8531 28.2464 12.7968 28.306C12.7404 28.3656 12.6728 28.4134 12.5979 28.4467C12.5229 28.48 12.4421 28.4981 12.3601 28.4999C12.2779 28.4953 12.1976 28.474 12.1239 28.4374C12.0503 28.4007 11.9848 28.3495 11.9316 28.2867C11.8784 28.224 11.8386 28.1511 11.8145 28.0724C11.7904 27.9937 11.7826 27.911 11.7915 27.8292V24.3191L11.7827 22.3898Z" fill="#53CBC8"/>
    <path d="M10.672 19.7315V22.3563C10.672 22.8054 10.4324 23.1028 10.0929 23.0921C10.0048 23.083 9.91937 23.0566 9.84154 23.0143C9.76371 22.9721 9.69501 22.9148 9.6394 22.8459C9.58378 22.777 9.54235 22.6978 9.51748 22.6128C9.49262 22.5278 9.48482 22.4387 9.49452 22.3507V17.1033C9.49452 16.6436 9.76221 16.3335 10.1107 16.3513C10.4592 16.3691 10.6672 16.6471 10.6688 17.1064C10.6737 17.9816 10.672 18.8565 10.672 19.7315Z" fill="#53CBC8"/>
    <path d="M14.0822 19.728V17.883C14.0822 17.4552 14.3092 17.1789 14.6473 17.1789C14.7326 17.1829 14.8162 17.2041 14.8931 17.2412C14.97 17.2783 15.0386 17.3305 15.0948 17.3948C15.1511 17.459 15.1938 17.534 15.2203 17.6151C15.2469 17.6962 15.2569 17.7819 15.2495 17.867C15.2623 19.1229 15.2623 20.3782 15.2495 21.633C15.2606 21.7181 15.2535 21.8046 15.2285 21.8867C15.2035 21.9688 15.1613 22.0446 15.1046 22.1091C15.048 22.1736 14.9782 22.2253 14.9001 22.2607C14.8219 22.296 14.737 22.3143 14.6512 22.3143C14.3048 22.3111 14.0829 22.0481 14.0789 21.6101V19.7261L14.0822 19.728Z" fill="#53CBC8"/>
    <path d="M7.20569 20.1117V18.2663C7.20569 17.8388 7.4328 17.5623 7.77069 17.5623C7.85598 17.5664 7.93957 17.5876 8.01648 17.6247C8.09338 17.6618 8.162 17.714 8.21824 17.7782C8.27448 17.8425 8.31718 17.9174 8.34378 17.9985C8.37039 18.0797 8.38035 18.1653 8.37307 18.2504C8.38461 19.5063 8.38461 20.7617 8.37307 22.0164C8.38403 22.1015 8.37674 22.1879 8.35169 22.27C8.32664 22.352 8.28441 22.4278 8.2278 22.4922C8.1712 22.5567 8.10151 22.6083 8.02339 22.6437C7.94527 22.6791 7.8605 22.6975 7.77472 22.6976C7.43015 22.6942 7.20616 22.4314 7.20239 21.9934V20.11L7.20569 20.1117Z" fill="#53CBC8"/>
    <path d="M16.9481 18.5413H16.9498C17.1035 18.5413 17.2508 18.6024 17.3594 18.7111C17.468 18.8197 17.5291 18.9671 17.5291 19.1207V20.1241C17.529 20.2778 17.468 20.4251 17.3594 20.5337C17.2507 20.6423 17.1034 20.7033 16.9498 20.7034H16.9481C16.7945 20.7034 16.6471 20.6424 16.5385 20.5337C16.4298 20.4251 16.3687 20.2778 16.3687 20.1241V19.1207C16.3687 18.9671 16.4297 18.8197 16.5384 18.711C16.6471 18.6024 16.7945 18.5413 16.9481 18.5413V18.5413Z" fill="#53CBC8"/>
    <path d="M19.2439 19.4199H19.2456C19.3992 19.42 19.5466 19.4811 19.6552 19.5897C19.7638 19.6984 19.8248 19.8458 19.8248 19.9994V25.6274C19.8248 25.781 19.7638 25.9283 19.6552 26.0369C19.5466 26.1455 19.3993 26.2065 19.2457 26.2065H19.2439C19.0903 26.2065 18.9431 26.1456 18.8345 26.037C18.7259 25.9285 18.6648 25.7812 18.6648 25.6277V19.9994C18.6648 19.8458 18.7258 19.6984 18.8343 19.5898C18.9429 19.4811 19.0903 19.42 19.2439 19.4199V19.4199Z" fill="#53CBC8"/>
    <path d="M21.5237 19.6381H21.5254C21.679 19.6381 21.8264 19.6991 21.935 19.8077C22.0437 19.9163 22.1048 20.0636 22.1049 20.2173V25.0006C22.1048 25.0766 22.0898 25.1519 22.0607 25.2222C22.0315 25.2925 21.9888 25.3563 21.935 25.4101C21.8812 25.4638 21.8173 25.5065 21.7471 25.5356C21.6768 25.5646 21.6014 25.5796 21.5254 25.5796H21.5237C21.3702 25.5796 21.2229 25.5187 21.1143 25.4102C21.0057 25.3017 20.9447 25.1545 20.9446 25.001V20.2174C20.9445 20.0638 21.0055 19.9165 21.114 19.8079C21.2226 19.6992 21.3698 19.6381 21.5234 19.6381H21.5237Z" fill="#53CBC8"/>
    <path d="M23.8352 19.0924H23.8369C23.9905 19.0924 24.1378 19.1534 24.2465 19.2621C24.3551 19.3707 24.4161 19.518 24.4161 19.6716V19.6716V21.7348C24.4161 21.8884 24.355 22.0357 24.2464 22.1443C24.1378 22.2529 23.9905 22.314 23.8369 22.314H23.8352C23.6816 22.314 23.5343 22.253 23.4257 22.1444C23.3171 22.0358 23.2561 21.8885 23.2561 21.7349V19.6718C23.2561 19.5957 23.271 19.5204 23.3001 19.4501C23.3292 19.3799 23.3718 19.316 23.4255 19.2622C23.4793 19.2084 23.5431 19.1657 23.6134 19.1366C23.6836 19.1075 23.7589 19.0924 23.8349 19.0924H23.8352Z" fill="#53CBC8"/>
</svg>
