<svg width="32" height="32" viewBox="0 0 32 32" fill="none" xmlns="http://www.w3.org/2000/svg">
    <path d="M16 32C24.8366 32 32 24.8366 32 16C32 7.16344 24.8366 0 16 0C7.16344 0 0 7.16344 0 16C0 24.8366 7.16344 32 16 32Z" fill="white"/>
    <path d="M22.302 17.6454C21.6519 17.6457 21.0134 17.8173 20.4508 18.143C19.8882 18.4687 19.4214 18.937 19.0975 19.5006L14.9881 17.6948C15.2357 17.1158 15.3644 16.4931 15.3665 15.8634C15.3686 15.2338 15.2441 14.6102 15.0004 14.0296L17.7647 12.4006C18.3031 13.0144 19.051 13.4053 19.8622 13.4971C20.6735 13.5889 21.4898 13.3749 22.1517 12.897C22.8136 12.419 23.2735 11.7115 23.4416 10.9125C23.6097 10.1136 23.4739 9.2807 23.0606 8.57656C22.6474 7.87243 21.9865 7.34766 21.2071 7.10478C20.4276 6.8619 19.5856 6.91837 18.8455 7.26315C18.1055 7.60793 17.5206 8.21624 17.2051 8.96925C16.8896 9.72225 16.8662 10.5658 17.1394 11.3352L14.3669 12.9682C13.7682 12.2014 12.9454 11.6401 12.013 11.3626C11.0805 11.085 10.0847 11.105 9.16414 11.4196C8.24352 11.7342 7.44383 12.3279 6.87628 13.1181C6.30872 13.9083 6.0015 14.8557 5.99736 15.8285C5.99321 16.8014 6.29234 17.7514 6.85314 18.5464C7.41394 19.3414 8.20854 19.9419 9.12643 20.2643C10.0443 20.5868 11.0399 20.6152 11.9747 20.3456C12.9095 20.076 13.737 19.5218 14.3422 18.7601L18.6615 20.6606C18.6186 20.8871 18.5966 21.117 18.5957 21.3476C18.5957 22.0796 18.8127 22.7952 19.2193 23.4039C19.6259 24.0127 20.2039 24.4872 20.8801 24.7675C21.5564 25.0478 22.3005 25.1214 23.0186 24.9789C23.7366 24.8363 24.3963 24.4842 24.9142 23.9668C25.4321 23.4495 25.785 22.7902 25.9284 22.0723C26.0717 21.3544 25.9989 20.6102 25.7194 19.9336C25.4398 19.2571 24.9659 18.6786 24.3576 18.2713C23.7494 17.864 23.034 17.6462 22.302 17.6454V17.6454ZM20.2451 8.18425C20.6519 8.18425 21.0496 8.30488 21.3878 8.53088C21.7261 8.75688 21.9897 9.0781 22.1454 9.45393C22.3011 9.82976 22.3418 10.2433 22.2624 10.6423C22.1831 11.0413 21.9872 11.4078 21.6995 11.6954C21.4119 11.983 21.0454 12.1789 20.6464 12.2583C20.2474 12.3377 19.8339 12.2969 19.4581 12.1412C19.0822 11.9856 18.761 11.7219 18.535 11.3837C18.309 11.0455 18.1884 10.6478 18.1884 10.241C18.1886 9.69557 18.4054 9.17255 18.791 8.78688C19.1767 8.40121 19.6997 8.18446 20.2451 8.18425V8.18425ZM10.6853 19.2949C10.0035 19.2949 9.33704 19.0927 8.77016 18.714C8.20328 18.3352 7.76145 17.7968 7.50054 17.1669C7.23963 16.5371 7.17137 15.844 7.30437 15.1753C7.43738 14.5066 7.76569 13.8924 8.24778 13.4103C8.72987 12.9282 9.34409 12.5999 10.0128 12.4669C10.6815 12.3339 11.3746 12.4021 12.0044 12.663C12.6343 12.9239 13.1727 13.3658 13.5515 13.9326C13.9302 14.4995 14.1324 15.166 14.1324 15.8478C14.1325 16.3005 14.0435 16.7488 13.8703 17.1671C13.6971 17.5854 13.4432 17.9654 13.1231 18.2855C12.8029 18.6057 12.4229 18.8596 12.0046 19.0328C11.5863 19.206 11.138 19.295 10.6853 19.2949V19.2949ZM22.302 23.8157C21.8138 23.8157 21.3366 23.6709 20.9308 23.3997C20.5249 23.1285 20.2085 22.7431 20.0217 22.2921C19.8349 21.8411 19.786 21.3448 19.8813 20.8661C19.9765 20.3873 20.2116 19.9475 20.5567 19.6023C20.9019 19.2572 21.3417 19.0221 21.8205 18.9269C22.2992 18.8316 22.7955 18.8805 23.2465 19.0673C23.6975 19.2541 24.0829 19.5705 24.3541 19.9764C24.6253 20.3822 24.7701 20.8594 24.7701 21.3476C24.7695 22.002 24.5093 22.6295 24.0466 23.0922C23.5839 23.5549 22.9564 23.8151 22.302 23.8157V23.8157Z" fill="#0072FF"/>
    <path d="M14.7279 23.8157H6.64073C6.558 23.813 6.47557 23.827 6.39834 23.8568C6.32112 23.8865 6.25067 23.9316 6.19119 23.9891C6.13171 24.0467 6.08442 24.1156 6.05212 24.1918C6.01982 24.2681 6.00317 24.35 6.00317 24.4328C6.00317 24.5155 6.01982 24.5975 6.05212 24.6737C6.08442 24.7499 6.13171 24.8188 6.19119 24.8764C6.25067 24.9339 6.32112 24.979 6.39834 25.0088C6.47557 25.0385 6.558 25.0525 6.64073 25.0498H14.7279C14.8107 25.0525 14.8931 25.0385 14.9703 25.0088C15.0476 24.979 15.118 24.9339 15.1775 24.8764C15.237 24.8188 15.2843 24.7499 15.3166 24.6737C15.3489 24.5975 15.3655 24.5155 15.3655 24.4328C15.3655 24.35 15.3489 24.2681 15.3166 24.1918C15.2843 24.1156 15.237 24.0467 15.1775 23.9891C15.118 23.9316 15.0476 23.8865 14.9703 23.8568C14.8931 23.827 14.8107 23.813 14.7279 23.8157V23.8157Z" fill="#0072FF"/>
</svg>
