<svg width="32" height="32" viewBox="0 0 32 32" fill="none" xmlns="http://www.w3.org/2000/svg">
    <path d="M16 32C24.8366 32 32 24.8366 32 16C32 7.16344 24.8366 0 16 0C7.16344 0 0 7.16344 0 16C0 24.8366 7.16344 32 16 32Z" fill="white"/>
    <path d="M25.5807 7.66125C25.3937 7.65881 25.208 7.69386 25.0347 7.76432C24.8614 7.83479 24.7039 7.93925 24.5716 8.07154C24.4394 8.20383 24.3349 8.36127 24.2644 8.53458C24.194 8.70789 24.1589 8.89355 24.1614 9.08062V22.9196C24.1614 23.296 24.3109 23.657 24.5771 23.9232C24.8433 24.1894 25.2043 24.3389 25.5807 24.3389C25.9572 24.3389 26.3182 24.1894 26.5844 23.9232C26.8506 23.657 27.0001 23.296 27.0001 22.9196V9.08062C27.0026 8.89355 26.9675 8.70789 26.897 8.53458C26.8266 8.36127 26.7221 8.20383 26.5898 8.07154C26.4575 7.93925 26.3001 7.83479 26.1268 7.76432C25.9535 7.69386 25.7678 7.65881 25.5807 7.66125V7.66125ZM6.4195 7.66125C6.23243 7.65881 6.04676 7.69386 5.87345 7.76432C5.70015 7.83479 5.5427 7.93925 5.41041 8.07154C5.27812 8.20383 5.17366 8.36127 5.10319 8.53458C5.03273 8.70789 4.99768 8.89355 5.00012 9.08062V22.9196C5.00012 23.296 5.14966 23.657 5.41585 23.9232C5.68203 24.1894 6.04306 24.3389 6.4195 24.3389C6.79594 24.3389 7.15697 24.1894 7.42315 23.9232C7.68934 23.657 7.83888 23.296 7.83888 22.9196V9.08062C7.84132 8.89355 7.80627 8.70789 7.7358 8.53458C7.66534 8.36127 7.56088 8.20383 7.42859 8.07154C7.2963 7.93925 7.13885 7.83479 6.96554 7.76432C6.79224 7.69386 6.60657 7.65881 6.4195 7.66125V7.66125ZM12.8069 10.5894C12.6198 10.587 12.4341 10.622 12.2608 10.6925C12.0875 10.7629 11.9301 10.8674 11.7978 10.9997C11.6655 11.132 11.561 11.2894 11.4906 11.4627C11.4201 11.636 11.3851 11.8217 11.3875 12.0088V20.0815C11.387 20.2682 11.4234 20.4532 11.4945 20.6258C11.5656 20.7985 11.67 20.9554 11.8019 21.0876C11.9337 21.2198 12.0904 21.3247 12.2628 21.3963C12.4353 21.4678 12.6202 21.5047 12.8069 21.5047C12.9936 21.5047 13.1785 21.4678 13.3509 21.3963C13.5234 21.3247 13.68 21.2198 13.8119 21.0876C13.9437 20.9554 14.0482 20.7985 14.1193 20.6258C14.1904 20.4532 14.2267 20.2682 14.2262 20.0815V12.0088C14.2287 11.8217 14.1936 11.636 14.1232 11.4627C14.0527 11.2894 13.9483 11.132 13.816 10.9997C13.6837 10.8674 13.5262 10.7629 13.3529 10.6925C13.1796 10.622 12.9939 10.587 12.8069 10.5894V10.5894ZM19.1942 12.8956C19.0072 12.8931 18.8215 12.9282 18.6482 12.9986C18.4749 13.0691 18.3174 13.1736 18.1852 13.3058C18.0529 13.4381 17.9484 13.5956 17.8779 13.7689C17.8075 13.9422 17.7724 14.1279 17.7749 14.3149V17.7747C17.7749 18.1511 17.9244 18.5121 18.1906 18.7783C18.4568 19.0445 18.8178 19.1941 19.1942 19.1941C19.5707 19.1941 19.9317 19.0445 20.1979 18.7783C20.4641 18.5121 20.6136 18.1511 20.6136 17.7747V14.3149C20.6161 14.1279 20.581 13.9422 20.5106 13.7689C20.4401 13.5956 20.3356 13.4381 20.2033 13.3058C20.0711 13.1736 19.9136 13.0691 19.7403 12.9986C19.567 12.9282 19.3813 12.8931 19.1942 12.8956V12.8956Z" fill="url(#paint0_linear)"/>
    <defs>
        <linearGradient id="paint0_linear" x1="5.00012" y1="16.0001" x2="27.0001" y2="16.0001" gradientUnits="userSpaceOnUse">
            <stop stop-color="#4400E2"/>
            <stop offset="0.04108" stop-color="#7013C5"/>
            <stop offset="0.08663" stop-color="#9A25AA"/>
            <stop offset="0.1333" stop-color="#BC3494"/>
            <stop offset="0.1804" stop-color="#D73F82"/>
            <stop offset="0.2284" stop-color="#EA4876"/>
            <stop offset="0.2776" stop-color="#F54C6E"/>
            <stop offset="0.33" stop-color="#F94E6C"/>
            <stop offset="1" stop-color="#FFD402"/>
        </linearGradient>
    </defs>
</svg>
