<svg width="32" height="32" viewBox="0 0 32 32" fill="none" xmlns="http://www.w3.org/2000/svg">
    <path d="M16 32C24.8366 32 32 24.8366 32 16C32 7.16344 24.8366 0 16 0C7.16344 0 0 7.16344 0 16C0 24.8366 7.16344 32 16 32Z" fill="white"/>
    <path fill-rule="evenodd" clip-rule="evenodd" d="M7.19031 7.5H6.2181C6.18251 7.49983 6.14831 7.51381 6.12302 7.53886C6.09773 7.5639 6.08343 7.59797 6.08325 7.63356V24.3664C6.08334 24.3841 6.08689 24.4015 6.09371 24.4178C6.10054 24.434 6.11049 24.4488 6.12301 24.4612C6.13554 24.4736 6.15038 24.4834 6.16669 24.49C6.18301 24.4967 6.20048 24.5001 6.2181 24.5H7.19031C7.20794 24.5001 7.2254 24.4967 7.24172 24.49C7.25804 24.4834 7.27288 24.4736 7.2854 24.4612C7.29792 24.4488 7.30788 24.434 7.3147 24.4178C7.32152 24.4015 7.32508 24.3841 7.32516 24.3664V7.63356C7.32499 7.59797 7.31068 7.5639 7.28539 7.53886C7.26011 7.51381 7.2259 7.49983 7.19031 7.5V7.5ZM9.51369 9.30109H8.54149C8.5059 9.30092 8.4717 9.3149 8.44641 9.33995C8.42112 9.36499 8.40682 9.39906 8.40664 9.43465V22.4317C8.40673 22.4493 8.41028 22.4668 8.4171 22.483C8.42392 22.4993 8.43388 22.514 8.4464 22.5264C8.45893 22.5388 8.47377 22.5487 8.49008 22.5553C8.5064 22.562 8.52387 22.5654 8.54149 22.5653H9.51369C9.53132 22.5654 9.54879 22.562 9.5651 22.5553C9.58142 22.5487 9.59626 22.5388 9.60878 22.5264C9.62131 22.514 9.63126 22.4993 9.63808 22.483C9.64491 22.4668 9.64846 22.4493 9.64854 22.4317V9.43465C9.64837 9.39906 9.63407 9.36499 9.60878 9.33994C9.58349 9.3149 9.54928 9.30092 9.51369 9.30109V9.30109ZM10.866 10.5565H11.8382C11.8738 10.5563 11.908 10.5703 11.9333 10.5954C11.9586 10.6204 11.9729 10.6545 11.973 10.6901V23.5663C11.9729 23.5839 11.9694 23.6014 11.9626 23.6176C11.9558 23.6339 11.9458 23.6486 11.9333 23.661C11.9208 23.6734 11.9059 23.6832 11.8896 23.6899C11.8733 23.6966 11.8558 23.7 11.8382 23.6999H10.866C10.8484 23.7 10.8309 23.6966 10.8146 23.6899C10.7983 23.6832 10.7834 23.6734 10.7709 23.661C10.7584 23.6486 10.7484 23.6339 10.7416 23.6176C10.7348 23.6014 10.7312 23.5839 10.7311 23.5663V10.6901C10.7313 10.6545 10.7456 10.6204 10.7709 10.5954C10.7962 10.5703 10.8304 10.5563 10.866 10.5565V10.5565ZM14.1614 12.5574H13.1893C13.1716 12.5573 13.1542 12.5607 13.1378 12.5674C13.1215 12.574 13.1067 12.5838 13.0942 12.5962C13.0816 12.6086 13.0717 12.6234 13.0649 12.6396C13.058 12.6559 13.0545 12.6733 13.0544 12.691V23.0983C13.0546 23.1339 13.0689 23.168 13.0942 23.193C13.1195 23.2181 13.1537 23.232 13.1893 23.2319H14.1614C14.197 23.232 14.2312 23.2181 14.2565 23.193C14.2818 23.168 14.2961 23.1339 14.2963 23.0983V12.691C14.2962 12.6734 14.2927 12.6559 14.2858 12.6397C14.279 12.6234 14.2691 12.6087 14.2565 12.5963C14.244 12.5838 14.2292 12.574 14.2129 12.5674C14.1965 12.5607 14.1791 12.5573 14.1614 12.5574V12.5574ZM15.5137 14.3585H16.486C16.5036 14.3584 16.521 14.3618 16.5374 14.3685C16.5537 14.3751 16.5685 14.3849 16.581 14.3973C16.5935 14.4097 16.6035 14.4245 16.6103 14.4407C16.6171 14.457 16.6207 14.4744 16.6208 14.4921V24.299C16.6207 24.3166 16.6171 24.3341 16.6103 24.3503C16.6035 24.3666 16.5935 24.3813 16.581 24.3937C16.5685 24.4061 16.5537 24.4159 16.5374 24.4226C16.521 24.4293 16.5036 24.4327 16.486 24.4326H15.5137C15.4961 24.4327 15.4786 24.4293 15.4623 24.4226C15.446 24.4159 15.4312 24.4061 15.4186 24.3937C15.4061 24.3813 15.3962 24.3666 15.3893 24.3503C15.3825 24.3341 15.379 24.3166 15.3789 24.299V14.4921C15.379 14.4744 15.3825 14.457 15.3893 14.4407C15.3962 14.4245 15.4061 14.4097 15.4186 14.3973C15.4312 14.3849 15.446 14.3751 15.4623 14.3684C15.4786 14.3618 15.4961 14.3584 15.5137 14.3585V14.3585ZM25.7817 7.5H24.8095C24.7919 7.49991 24.7744 7.5033 24.7581 7.50997C24.7418 7.51663 24.7269 7.52645 24.7144 7.53885C24.7019 7.55125 24.6919 7.566 24.6851 7.58225C24.6783 7.5985 24.6747 7.61594 24.6746 7.63356V24.3664C24.6747 24.3841 24.6783 24.4015 24.6851 24.4178C24.6919 24.434 24.7019 24.4488 24.7144 24.4612C24.7269 24.4736 24.7418 24.4834 24.7581 24.49C24.7744 24.4967 24.7919 24.5001 24.8095 24.5H25.7817C25.8173 24.5002 25.8515 24.4862 25.8768 24.4612C25.902 24.4361 25.9164 24.402 25.9165 24.3664V7.63356C25.9164 7.59797 25.902 7.5639 25.8768 7.53886C25.8515 7.51381 25.8173 7.49983 25.7817 7.5V7.5ZM22.4846 9.30109H23.4568C23.4924 9.30092 23.5266 9.3149 23.5519 9.33995C23.5772 9.36499 23.5915 9.39906 23.5917 9.43465V22.4317C23.5915 22.4673 23.5772 22.5014 23.5519 22.5264C23.5266 22.5515 23.4924 22.5655 23.4568 22.5653H22.4846C22.4669 22.5654 22.4495 22.562 22.4332 22.5553C22.4169 22.5486 22.402 22.5388 22.3895 22.5264C22.377 22.514 22.367 22.4993 22.3602 22.483C22.3534 22.4668 22.3498 22.4493 22.3498 22.4317V9.43465C22.3499 9.39906 22.3642 9.365 22.3895 9.33995C22.4148 9.31491 22.449 9.30093 22.4846 9.30109V9.30109ZM21.1338 10.5565H20.1616C20.144 10.5564 20.1265 10.5598 20.1102 10.5665C20.0939 10.5731 20.0791 10.583 20.0665 10.5954C20.054 10.6078 20.044 10.6225 20.0372 10.6388C20.0304 10.655 20.0268 10.6724 20.0268 10.6901V23.5663C20.0268 23.5839 20.0304 23.6014 20.0372 23.6176C20.044 23.6339 20.054 23.6486 20.0665 23.661C20.0791 23.6734 20.0939 23.6832 20.1102 23.6899C20.1265 23.6966 20.144 23.7 20.1616 23.6999H21.1338C21.1514 23.7 21.1689 23.6966 21.1852 23.6899C21.2015 23.6832 21.2164 23.6734 21.2289 23.661C21.2414 23.6486 21.2514 23.6339 21.2582 23.6176C21.265 23.6014 21.2686 23.5839 21.2687 23.5663V10.6901C21.2686 10.6724 21.265 10.655 21.2582 10.6388C21.2514 10.6225 21.2414 10.6078 21.2289 10.5954C21.2164 10.583 21.2015 10.5731 21.1852 10.5665C21.1689 10.5598 21.1514 10.5564 21.1338 10.5565ZM17.8368 12.5586H18.809C18.8446 12.5585 18.8788 12.5724 18.9041 12.5975C18.9294 12.6225 18.9437 12.6566 18.9439 12.6922V23.0995C18.9437 23.1351 18.9294 23.1692 18.9041 23.1942C18.8788 23.2193 18.8446 23.2333 18.809 23.2331H17.8368C17.8012 23.2333 17.767 23.2193 17.7417 23.1942C17.7165 23.1692 17.7022 23.1351 17.702 23.0995V12.6922C17.7021 12.6746 17.7056 12.6571 17.7124 12.6409C17.7193 12.6246 17.7292 12.6099 17.7417 12.5975C17.7543 12.5851 17.7691 12.5753 17.7854 12.5686C17.8017 12.5619 17.8192 12.5585 17.8368 12.5586H17.8368Z" fill="#3F34A7"/>
</svg>
