<svg width="32" height="32" viewBox="0 0 32 32" fill="none" xmlns="http://www.w3.org/2000/svg">
    <path d="M16 0C7.16561 0 0 7.16561 0 16C0 24.8344 7.16561 32 16 32C24.8344 32 32 24.8344 32 16C32 7.16561 24.8344 0 16 0Z" fill="#4A90E2"/>
    <path d="M17.262 15.9995C17.262 16.6986 16.6982 17.2624 15.9991 17.2624C15.3 17.2624 14.7362 16.6986 14.7362 15.9995C14.7362 15.0524 14.4205 14.7367 13.4734 14.7367C12.5262 14.7367 12.2162 15.058 12.2162 15.9995C12.2162 16.6986 11.6524 17.2624 10.9533 17.2624C10.2542 17.2624 9.69043 16.6986 9.69043 15.9995C9.69043 15.3004 10.2542 14.7367 10.9533 14.7367C11.9004 14.7367 12.2162 14.4209 12.2162 13.4738C12.2162 12.7747 12.7799 12.2109 13.479 12.2109C14.1781 12.2109 14.7419 12.7747 14.7419 13.4738C14.7419 14.4209 15.0576 14.7367 16.0047 14.7367C16.6926 14.7423 17.262 15.3061 17.262 15.9995Z" fill="white"/>
    <path d="M8.43376 19.7884C9.13122 19.7884 9.69662 19.223 9.69662 18.5256C9.69662 17.8281 9.13122 17.2627 8.43376 17.2627C7.7363 17.2627 7.1709 17.8281 7.1709 18.5256C7.1709 19.223 7.7363 19.7884 8.43376 19.7884Z" fill="white"/>
    <path d="M24.8223 13.4797C24.8223 14.1787 24.2585 14.7425 23.5594 14.7425C22.6123 14.7425 22.2965 15.0582 22.2965 16.0054C22.2965 16.7045 21.7328 17.2682 21.0337 17.2682C20.0865 17.2682 19.7708 17.584 19.7708 18.5311C19.7708 19.2302 19.2071 19.794 18.508 19.794C17.8089 19.794 17.2451 19.2302 17.2451 18.5311C17.2451 17.832 17.8089 17.2682 18.508 17.2682C19.4551 17.2682 19.7708 16.9525 19.7708 16.0054C19.7708 15.3063 20.3346 14.7425 21.0337 14.7425C21.9808 14.7425 22.2965 14.4268 22.2965 13.4797C22.2965 12.7806 22.8603 12.2168 23.5594 12.2168C24.2585 12.2168 24.8223 12.7862 24.8223 13.4797Z" fill="white"/>
</svg>
