<svg width="32" height="32" viewBox="0 0 32 32" fill="none" xmlns="http://www.w3.org/2000/svg">
    <path d="M16 32C24.8366 32 32 24.8366 32 16C32 7.16344 24.8366 0 16 0C7.16344 0 0 7.16344 0 16C0 24.8366 7.16344 32 16 32Z" fill="black"/>
    <path d="M29 10.6851C28.9187 10.7661 28.8511 10.8337 28.7832 10.901C27.2541 12.4194 25.7251 13.938 24.1964 15.4568C24.1834 15.4711 24.1675 15.4825 24.1497 15.49C24.1319 15.4976 24.1126 15.5012 24.0933 15.5005C21.95 15.4993 19.8068 15.4992 17.6635 15.5001C17.6261 15.5014 17.5888 15.4948 17.5541 15.4807C17.5195 15.4666 17.4882 15.4453 17.4623 15.4182C17.4462 15.4071 17.433 15.3923 17.4239 15.3749C17.4148 15.3576 17.4101 15.3383 17.4102 15.3187C17.4103 15.2992 17.4152 15.2799 17.4245 15.2627C17.4337 15.2454 17.4471 15.2307 17.4633 15.2198C18.8902 13.7325 20.3167 12.2448 21.7428 10.7567C21.7636 10.7325 21.7896 10.7134 21.8188 10.7007C21.8481 10.688 21.8798 10.6821 21.9116 10.6834C24.24 10.6855 26.5683 10.686 28.8967 10.6851H29ZM3.0771 21.3024C5.41475 21.3024 7.75239 21.3028 10.09 21.3036C10.1162 21.305 10.1423 21.3005 10.1664 21.2903C10.1905 21.2802 10.212 21.2648 10.2293 21.2452C11.6605 19.7554 13.0925 18.2666 14.5254 16.7785C14.5416 16.7651 14.5545 16.7482 14.5631 16.729C14.5717 16.7099 14.5758 16.689 14.575 16.668C14.5743 16.647 14.5687 16.6265 14.5588 16.608C14.5489 16.5895 14.5348 16.5735 14.5178 16.5612C14.4666 16.5123 14.3986 16.485 14.3278 16.4852C12.1869 16.4859 10.046 16.4857 7.90517 16.4849C7.88693 16.4842 7.86876 16.4875 7.85191 16.4945C7.83507 16.5016 7.81996 16.5122 7.80762 16.5256C6.22229 18.097 4.63655 19.6681 3.05041 21.2387C3.02752 21.2543 3.00994 21.2766 3 21.3024H3.0771ZM23.1684 16.4857H20.6482C19.6647 16.4857 18.6813 16.4858 17.6978 16.4859C17.6678 16.481 17.637 16.4867 17.6108 16.5021C17.5377 16.5531 17.4779 16.6208 17.4363 16.6996C17.4246 16.7165 17.4193 16.7369 17.4212 16.7574C17.4232 16.7778 17.4323 16.7969 17.447 16.8113C17.5805 16.9685 17.722 17.1182 17.867 17.2646C18.5987 18.0033 19.3536 18.7183 20.0998 19.442C20.1432 19.484 20.1604 19.4657 20.1917 19.4348C21.1625 18.4784 22.1338 17.5225 23.1055 16.5671C23.1287 16.5442 23.1551 16.5246 23.1799 16.5035L23.1684 16.4857ZM8.81672 15.4995H8.89108C10.6824 15.4995 12.4737 15.5004 14.2651 15.5021C14.3065 15.5032 14.3476 15.4946 14.3851 15.4769C14.4225 15.4593 14.4554 15.4331 14.4809 15.4004C14.5116 15.3622 14.5375 15.3203 14.5579 15.2758C14.5673 15.2612 14.5712 15.2439 14.5688 15.2268C14.5665 15.2097 14.5582 15.1939 14.5453 15.1824C14.4567 15.0858 14.3731 14.9845 14.2821 14.8904C13.5051 14.0876 12.6906 13.3232 11.8881 12.5464C11.8497 12.5092 11.832 12.5146 11.797 12.5492C10.8201 13.5128 9.8423 14.4754 8.86369 15.4372C8.84516 15.4535 8.82567 15.4686 8.80532 15.4826L8.81672 15.4995ZM16.8963 21.4666C17.8457 21.2792 18.7322 20.8549 19.4736 20.2329C19.5207 20.1933 19.5168 20.1769 19.4763 20.1366C18.973 19.6361 18.4709 19.1345 17.97 18.6316C17.5792 18.2406 17.1883 17.8497 16.7973 17.459C16.781 17.4427 16.7709 17.4149 16.7358 17.4236C16.678 17.4486 16.6267 17.4866 16.586 17.5347C16.5454 17.5827 16.5163 17.6395 16.5012 17.7007C16.4826 17.9202 16.4756 18.1402 16.4726 18.3604C16.4592 19.3584 16.4813 20.3561 16.4916 21.3539C16.4921 21.4007 16.4945 21.4476 16.4944 21.4944C16.4943 21.5199 16.4993 21.5364 16.5302 21.5309C16.6523 21.5097 16.775 21.4915 16.8963 21.4666ZM16.4046 12.4444C16.4046 12.6693 16.4039 12.8942 16.4047 13.119C16.4061 13.5078 16.4129 13.8964 16.4297 14.285C16.4292 14.3529 16.4475 14.4195 16.4825 14.4777C16.5176 14.5358 16.568 14.5831 16.6282 14.6144C16.637 14.6212 16.6471 14.6262 16.6579 14.6289C16.6686 14.6316 16.6799 14.632 16.6909 14.6302C16.7018 14.6283 16.7123 14.6242 16.7216 14.6181C16.7309 14.612 16.7388 14.6041 16.7449 14.5947C17.1257 14.2104 17.5078 13.8273 17.8912 13.4455C18.3996 12.9369 18.9081 12.4285 19.4167 11.9202C19.4453 11.8917 19.4689 11.875 19.4217 11.8361C19.1599 11.6166 18.8796 11.4202 18.584 11.249C17.9444 10.881 17.2386 10.6424 16.5068 10.5468C16.4441 10.5386 16.4302 10.5458 16.4297 10.6107C16.4247 11.2219 16.4159 11.8332 16.4082 12.4445L16.4046 12.4444ZM15.5056 10.53C15.5058 10.4795 15.4986 10.4618 15.4417 10.4698C15.1938 10.5035 14.9482 10.5521 14.7061 10.6153C13.902 10.8314 13.1546 11.2198 12.5157 11.7537C12.4684 11.7926 12.4689 11.8086 12.5109 11.8502C13.1265 12.4602 13.7411 13.0714 14.3545 13.6836C14.6383 13.9663 14.922 14.249 15.2058 14.5317C15.2212 14.547 15.2301 14.5789 15.2669 14.5606C15.3234 14.5376 15.3732 14.5006 15.4114 14.4529C15.4497 14.4053 15.4751 14.3487 15.4853 14.2885C15.4955 14.2024 15.5013 14.1159 15.5028 14.0293C15.528 13.4627 15.5158 12.8957 15.5046 12.3289C15.5046 11.7293 15.5049 11.1297 15.5056 10.53ZM13.7982 20.9409C14.3393 21.1975 14.9175 21.3671 15.5114 21.4433C15.5718 21.4514 15.5686 21.4225 15.5688 21.3815C15.5727 20.4964 15.58 19.6114 15.5806 18.7263C15.5808 18.3683 15.579 18.01 15.5509 17.6524C15.545 17.5967 15.5264 17.543 15.4966 17.4956C15.4668 17.4481 15.4265 17.4081 15.3789 17.3786C15.3708 17.37 15.3609 17.3633 15.3499 17.3591C15.3388 17.3549 15.327 17.3533 15.3152 17.3544C15.3035 17.3554 15.2921 17.3591 15.282 17.3652C15.2719 17.3713 15.2633 17.3796 15.2569 17.3895C14.3682 18.2822 13.4781 19.1736 12.5867 20.0636C12.5704 20.08 12.5548 20.0971 12.5385 20.1143C12.9196 20.4449 13.3432 20.7229 13.7982 20.9409V20.9409Z" fill="#F1CC04"/>
</svg>
