<svg width="32" height="32" viewBox="0 0 32 32" fill="none" xmlns="http://www.w3.org/2000/svg">
    <path d="M16 32C24.8366 32 32 24.8366 32 16C32 7.16344 24.8366 0 16 0C7.16344 0 0 7.16344 0 16C0 24.8366 7.16344 32 16 32Z" fill="#061E2A"/>
    <path d="M23.1042 19.2115L22.8152 19.3488L25.6735 25.3646L25.9625 25.2273L23.1042 19.2115Z" fill="#005BC0"/>
    <path d="M7.05499 8.13578L7.04148 8.14109L7.15848 8.4389L13.6323 5.8939C13.6979 5.95198 13.7784 5.99079 13.8647 6.00605C13.951 6.0213 14.0399 6.0124 14.1215 5.98032C14.2031 5.94825 14.2742 5.89426 14.327 5.8243C14.3799 5.75434 14.4124 5.67115 14.4209 5.5839L14.4845 5.5589L14.3675 5.26109L14.3464 5.26937C14.287 5.17573 14.1969 5.1057 14.0914 5.0713C13.986 5.0369 13.8719 5.04028 13.7687 5.08085C13.6655 5.12143 13.5796 5.19667 13.5258 5.29366C13.472 5.39065 13.4537 5.50333 13.474 5.61237L7.5313 7.94853L12.4223 4.67968L12.3784 4.61394L12.5266 4.56681C12.5454 4.62676 12.576 4.68239 12.6164 4.73052C12.6568 4.77865 12.7063 4.81833 12.7621 4.8473C12.8179 4.87626 12.8789 4.89393 12.9415 4.8993C13.0041 4.90467 13.0672 4.89762 13.1271 4.87858C13.187 4.85953 13.2425 4.82886 13.2905 4.78831C13.3386 4.74776 13.3781 4.69813 13.4069 4.64227C13.4357 4.58641 13.4532 4.52542 13.4584 4.46278C13.4636 4.40014 13.4564 4.33709 13.4372 4.27725L17.6286 2.94453L17.5316 2.63953L13.229 4.0076C13.1705 3.97138 13.1049 3.94825 13.0366 3.93979C12.9684 3.93133 12.8991 3.93774 12.8336 3.95858C12.768 3.97942 12.7078 4.0142 12.6569 4.06053C12.6061 4.10686 12.5659 4.16364 12.5391 4.22698L12.1915 4.3375L12.2207 4.42944L6.93774 7.96031L7.05499 8.13578Z" fill="#005BC0"/>
    <path d="M25.3354 26.1581L25.3848 25.8419L14.8582 24.1935L18.7005 22.6281L18.5797 22.3319L14.5421 23.9768C14.4521 23.9258 14.347 23.9084 14.2454 23.9275L14.0801 23.7451V23.9866C13.9847 24.0418 13.9112 24.1283 13.8722 24.2314L6.93346 25.2891L6.70129 20.5302L6.70488 20.5392L7.00206 20.4208L6.65329 19.5465L6.65154 19.5104C6.73613 19.452 6.79917 19.3674 6.83096 19.2697C6.86275 19.1719 6.86151 19.0664 6.82745 18.9695L9.12653 13.928L9.50542 13.1071L9.29869 13.0117L9.2962 12.9859L9.2576 12.9896L6.90081 8.63492L6.61941 8.78726L8.91194 13.0231L4.57945 13.4427C4.56133 13.3304 4.50388 13.2283 4.41737 13.1545C4.33086 13.0808 4.22093 13.0402 4.10724 13.04C4.09132 13.0408 4.07546 13.0424 4.05972 13.0448L3.46699 11.5589L3.26878 11.0609L2.97144 11.1791L3.76791 13.1805C3.72325 13.225 3.68783 13.278 3.66369 13.3362C3.63954 13.3945 3.62716 13.4569 3.62724 13.52L3.62872 13.5348L3.498 13.5474L3.52878 13.8659L3.75506 13.8439C3.79821 13.8911 3.85042 13.9291 3.90855 13.9557C3.96669 13.9822 4.02958 13.9968 4.09348 13.9986L6.00888 18.8116C5.95893 18.8697 5.92375 18.939 5.90634 19.0136C5.88893 19.0882 5.8898 19.1659 5.90888 19.2401C5.92796 19.3143 5.96467 19.3828 6.01591 19.4397C6.06714 19.4967 6.13138 19.5404 6.20315 19.5672L6.1212 19.7469L5.57496 22.4019L5.20402 24.0446L5.20339 24.2079L5.51683 24.272L5.86849 22.5551L6.37111 20.3292L6.61538 25.3375L6.45597 25.3618L6.50425 25.6781L6.63105 25.6588L6.64027 25.8478L6.95995 25.8321L6.94911 25.6103L13.8681 24.5556C13.8835 24.6011 13.9057 24.6439 13.9339 24.6827L11.5424 28.7184L11.8177 28.8816L14.1992 24.8628C14.2665 24.8817 14.3372 24.8851 14.406 24.8727C14.4748 24.8604 14.5399 24.8326 14.5964 24.7915L18.7615 29.3875L18.9987 29.1725L14.7829 24.5206L14.7859 24.5061L25.3354 26.1581ZM6.57764 18.6869C6.49022 18.6432 6.39085 18.6295 6.29488 18.648L4.40002 13.8979C4.44571 13.8626 4.48467 13.8194 4.51502 13.7703L9.04691 13.3314L8.84581 13.7724L6.57764 18.6869Z" fill="#005BC0"/>
    <path d="M19.88 4.92999C19.8806 4.98011 19.8892 5.0298 19.9054 5.07723L19.7633 4.94381L17.2925 7.57647L16.1268 8.73599C16.0268 8.68553 15.9115 8.6739 15.8034 8.70333L14.4868 6.30953L14.2065 6.46375L15.5363 8.88162C15.493 8.93768 15.4632 9.00293 15.4492 9.07234C15.4351 9.14175 15.4372 9.21346 15.4553 9.28193L14.062 10.1995L14.238 10.4666L15.6316 9.54888C15.716 9.61423 15.8201 9.64895 15.9268 9.64736C16.0336 9.64577 16.1366 9.60796 16.219 9.54013L18.5307 10.82L18.6857 10.54L16.3889 9.26846C16.3962 9.23526 16.3999 9.20139 16.4 9.1674C16.3996 9.0965 16.3834 9.02656 16.3526 8.96272L17.522 7.79944L19.9627 5.19913C20.0035 5.25977 20.0576 5.31022 20.121 5.34661C20.1844 5.383 20.2553 5.40435 20.3282 5.40902C20.4011 5.41369 20.4742 5.40155 20.5417 5.37354C20.6092 5.34553 20.6694 5.3024 20.7176 5.24746L22.8244 7.60006L23.0628 7.38663L20.8371 4.90131C20.8308 4.79344 20.7882 4.69088 20.7161 4.61038C20.644 4.52988 20.5467 4.47619 20.4402 4.45807L18.8526 2.6853L18.6141 2.89874L20.0831 4.53899C20.0204 4.58313 19.9692 4.64169 19.9339 4.70973C19.8985 4.77778 19.88 4.85332 19.88 4.92999Z" fill="#005BC0"/>
    <path d="M29.3529 19.1859C29.4688 19.2523 29.5538 19.3617 29.5894 19.4905C29.625 19.6192 29.6084 19.7568 29.5432 19.8733C29.5057 19.9667 29.4446 20.0487 29.3657 20.1112C29.2869 20.1738 29.1931 20.2147 29.0937 20.2299L26.1948 25.5117C26.2203 25.6298 26.2142 25.7526 26.1772 25.8676C26.1401 25.9827 26.0734 26.0859 25.9837 26.1669C25.9117 26.2411 25.8244 26.2987 25.7279 26.3358C25.6314 26.3729 25.528 26.3887 25.4248 26.3819L19.7717 29.7264C19.7272 29.8369 19.6544 29.9339 19.5607 30.0075C19.4669 30.0812 19.3555 30.1289 19.2375 30.146C19.1148 30.1751 18.9863 30.1685 18.8672 30.127C18.7481 30.0855 18.6433 30.0108 18.5653 29.9117L11.9233 29.4522C11.8403 29.5145 11.7446 29.5576 11.643 29.5785C11.5414 29.5995 11.4365 29.5976 11.3357 29.5732C11.1901 29.5523 11.0564 29.4814 10.9575 29.3726C10.8586 29.2639 10.8006 29.124 10.7937 28.9772L5.66166 25.3186C5.55463 25.3377 5.44462 25.3313 5.34052 25.3C5.23641 25.2687 5.14113 25.2133 5.06235 25.1384C4.95897 25.0546 4.88292 24.9418 4.84394 24.8146C4.80495 24.6873 4.80479 24.5513 4.84347 24.4239L2.73291 19.5875C2.6057 19.5515 2.49201 19.4786 2.40621 19.378C2.3204 19.2774 2.26634 19.1537 2.25085 19.0224C2.22687 18.9048 2.23371 18.7831 2.27069 18.6689C2.30767 18.5548 2.37355 18.4522 2.46191 18.371L2.77329 11.0501C2.70327 10.9561 2.65819 10.8458 2.64225 10.7297C2.6263 10.6135 2.64001 10.4953 2.68209 10.3858C2.71875 10.2525 2.79705 10.1344 2.90557 10.0487C3.01408 9.96304 3.14714 9.91428 3.28532 9.90954L8.82506 4.17459C8.81426 4.02465 8.85744 3.8758 8.9468 3.75492C9.03616 3.63404 9.16582 3.54911 9.31233 3.51549C9.41381 3.48128 9.52177 3.4708 9.62793 3.48486C9.73409 3.49892 9.83561 3.53714 9.92468 3.59659L17.8956 2.1651C17.9632 2.04225 18.0694 1.94507 18.1977 1.88853C18.326 1.832 18.4694 1.81926 18.6056 1.85229C18.7332 1.8681 18.8533 1.92071 18.9514 2.00369C19.0495 2.08668 19.1213 2.19644 19.1581 2.31958L22.8399 4.39472C22.9462 4.36284 23.058 4.35414 23.168 4.36922C23.2779 4.38429 23.3832 4.42279 23.477 4.4821C23.5707 4.54141 23.6507 4.62015 23.7114 4.71301C23.772 4.80587 23.8121 4.91068 23.8288 5.02035L25.4131 6.07335C25.5152 6.04593 25.6223 6.04212 25.7261 6.06219C25.8299 6.08226 25.9278 6.12569 26.0124 6.1892C26.1505 6.26952 26.252 6.40022 26.2958 6.55385C26.3395 6.70748 26.322 6.87208 26.2469 7.01308L26.2365 7.02595L28.5595 11.5058C28.685 11.5107 28.8055 11.5565 28.9025 11.6362C28.9996 11.716 29.068 11.8252 29.0972 11.9474C29.1264 12.0696 29.1149 12.198 29.0644 12.313C29.0139 12.428 28.9272 12.5234 28.8175 12.5845C28.7528 12.5978 28.6862 12.5981 28.6215 12.5854C28.5567 12.5727 28.4951 12.5473 28.4402 12.5107C28.3853 12.4741 28.3383 12.4269 28.3017 12.372C28.2652 12.317 28.2399 12.2554 28.2273 12.1906L28.2117 12.1263L23.4314 9.59673C23.355 9.70275 23.2515 9.78632 23.1318 9.83873V22.4466C23.2872 22.5135 23.4145 22.6325 23.4915 22.7831C23.5686 22.9338 23.5907 23.1066 23.5539 23.2718L25.4952 25.2259C25.5947 25.1843 25.7033 25.1692 25.8105 25.1821L28.7419 20.0638C28.6913 19.9817 28.6623 19.8881 28.6576 19.7918C28.6528 19.6955 28.6724 19.5995 28.7145 19.5128C28.7575 19.386 28.8482 19.2809 28.9674 19.2199C29.0866 19.1588 29.2249 19.1466 29.3529 19.1859V19.1859ZM29.3581 19.7973C29.3841 19.7505 29.3905 19.6954 29.3761 19.6438C29.3618 19.5923 29.3277 19.5485 29.2813 19.5218C29.23 19.5066 29.1748 19.5117 29.1272 19.5362C29.0796 19.5606 29.0433 19.6026 29.0259 19.6532C28.9999 19.7 28.9934 19.7551 29.0078 19.8067C29.0222 19.8583 29.0563 19.9021 29.1028 19.9286C29.1541 19.9438 29.2092 19.9386 29.2568 19.9141C29.3043 19.8897 29.3406 19.8479 29.3581 19.7973V19.7973ZM25.8861 25.9661C25.9355 25.9257 25.9673 25.8677 25.9748 25.8043C25.9823 25.741 25.965 25.6771 25.9265 25.6263C25.8772 25.5861 25.8141 25.5668 25.7508 25.5726C25.6875 25.5784 25.6289 25.6087 25.5877 25.6572C25.5383 25.6978 25.5065 25.756 25.499 25.8196C25.4914 25.8832 25.5088 25.9472 25.5473 25.9983C25.5967 26.0386 25.6599 26.0578 25.7233 26.0517C25.7867 26.0457 25.8452 26.0149 25.8861 25.9661ZM25.0666 25.6443L25.0809 25.6134L23.2191 23.7416C23.1074 23.8105 22.9789 23.847 22.8477 23.8472C22.7115 23.8473 22.578 23.8086 22.4629 23.7356C22.3477 23.6627 22.2558 23.5585 22.1976 23.4353H19.6987C19.6338 23.5698 19.5292 23.6812 19.3991 23.7545L19.6427 27.2393C19.737 27.2783 19.8215 27.3377 19.8903 27.413L25.0666 25.6443ZM19.6362 29.2307L24.1532 26.5583L20.0362 27.964C20.0086 28.0661 19.9573 28.1602 19.8864 28.2387C19.8156 28.3172 19.7272 28.3779 19.6284 28.4158L19.5034 29.1418C19.5516 29.1651 19.5963 29.195 19.6362 29.2307H19.6362ZM19.2128 29.9233C19.2511 29.9075 19.2841 29.8811 19.3081 29.8473C19.332 29.8135 19.3459 29.7737 19.3482 29.7323C19.3504 29.6909 19.3409 29.6498 19.3207 29.6136C19.3005 29.5774 19.2705 29.5477 19.2341 29.5278C19.1978 29.508 19.1565 29.4988 19.1152 29.5015C19.0739 29.5041 19.0341 29.5183 19.0005 29.5426C18.9669 29.5669 18.9409 29.6001 18.9255 29.6386C18.91 29.677 18.9057 29.719 18.9132 29.7598C18.9315 29.821 18.9733 29.8725 19.0294 29.9031C19.0855 29.9337 19.1514 29.9409 19.2128 29.9233H19.2128ZM18.5562 29.4109C18.6432 29.2697 18.7783 29.1645 18.9366 29.1149L19.0552 28.4261C18.9498 28.3875 18.8548 28.3249 18.7777 28.2434L13.5949 29.0698L18.5562 29.4109ZM13.7082 23.8292L12.0223 28.7428L18.5575 27.7001L13.9336 23.7352C13.8643 23.779 13.7881 23.8108 13.7082 23.8292H13.7082ZM11.539 28.4056L13.1467 23.721C13.041 23.6488 12.9565 23.5497 12.9018 23.434H9.96247C9.94439 23.4696 9.92393 23.504 9.90124 23.537L11.539 28.4056ZM11.3396 29.3517C11.4002 29.3711 11.466 29.3657 11.5226 29.3367C11.5792 29.3078 11.6221 29.2577 11.6419 29.1972C11.6645 29.1463 11.6707 29.0896 11.6598 29.035C11.6488 28.9804 11.6212 28.9305 11.5807 28.8922C11.5403 28.854 11.4889 28.8292 11.4338 28.8212C11.3787 28.8133 11.3224 28.8227 11.2728 28.848C11.2232 28.8734 11.1827 28.9135 11.1568 28.9628C11.1309 29.0121 11.121 29.0683 11.1283 29.1235C11.1356 29.1787 11.1599 29.2303 11.1977 29.2712C11.2356 29.312 11.2851 29.3402 11.3396 29.3517V29.3517ZM6.01481 24.9594L10.9722 28.4944L9.40619 23.8395C9.29349 23.8541 9.17894 23.8419 9.07185 23.8039C8.96476 23.7658 8.86816 23.7031 8.78993 23.6206L6.02393 24.8114C6.0279 24.8609 6.02527 24.9106 6.01612 24.9594L6.01481 24.9594ZM5.55099 24.1896C5.62137 24.2203 5.68715 24.2606 5.74642 24.3093L8.59057 23.0864C8.59627 22.9471 8.64145 22.8123 8.72085 22.6976L4.3224 18.2062L5.55099 24.1896ZM5.52099 24.9736C5.55699 24.921 5.57126 24.8566 5.56082 24.7937C5.55038 24.7309 5.51605 24.6745 5.46499 24.6363C5.42183 24.5899 5.36214 24.5622 5.29877 24.5593C5.23541 24.5564 5.17346 24.5786 5.12624 24.6209C5.08961 24.6734 5.07484 24.7381 5.08505 24.8013C5.09526 24.8645 5.12966 24.9212 5.18096 24.9595C5.22428 25.0058 5.28407 25.0333 5.34744 25.0359C5.41081 25.0385 5.47268 25.0162 5.51971 24.9736H5.52099ZM3.18891 19.3957L4.70283 22.8624L3.68791 17.9217L3.28791 18.7636C3.32037 18.8696 3.32832 18.9816 3.31117 19.0911C3.29402 19.2006 3.25221 19.3047 3.18891 19.3957V19.3957ZM3.15243 13.8088L2.97006 18.1238L3.33226 17.3643C3.27249 17.2524 3.24375 17.1266 3.24902 16.9998C3.2543 16.873 3.2934 16.75 3.36226 16.6434L3.15243 13.8088ZM2.89186 10.3961C2.8652 10.4543 2.86226 10.5206 2.88367 10.5809C2.90507 10.6413 2.94914 10.6909 3.00651 10.7192C3.06856 10.7331 3.13355 10.7219 3.18743 10.6882C3.24131 10.6544 3.27975 10.6009 3.29444 10.539C3.3211 10.4808 3.32404 10.4145 3.30264 10.3542C3.28123 10.2939 3.23717 10.2443 3.17979 10.2159C3.11759 10.2022 3.05251 10.2134 2.99846 10.2471C2.94441 10.2808 2.90568 10.3343 2.89056 10.3961H2.89186ZM3.99147 17.0296C3.98645 16.9834 3.96814 16.9397 3.93876 16.9036C3.90939 16.8676 3.8702 16.8409 3.82594 16.8267C3.78169 16.8124 3.73426 16.8114 3.68941 16.8235C3.64455 16.8357 3.60418 16.8606 3.57318 16.8953C3.54219 16.9299 3.5219 16.9728 3.51477 17.0187C3.50764 17.0646 3.51397 17.1117 3.533 17.1541C3.55203 17.1965 3.58294 17.2325 3.62199 17.2577C3.66105 17.2829 3.70657 17.2962 3.75305 17.2961C3.81993 17.2922 3.88254 17.262 3.92721 17.212C3.97188 17.1621 3.99498 17.0965 3.99147 17.0296V17.0296ZM3.69181 10.7398C3.65498 10.8494 3.59398 10.9493 3.51332 11.0321L3.89115 16.1684L6.21024 8.92216L3.72824 10.5867C3.72096 10.6388 3.70877 10.69 3.69181 10.7398V10.7398ZM7.63427 6.12485L4.46311 9.40749L6.08777 8.31843C6.10973 8.17151 6.17402 8.03418 6.27277 7.92322C6.37511 7.80332 6.51289 7.71903 6.66623 7.6825L7.63427 6.12485ZM9.26806 4.57108L7.20041 7.8949C7.25033 7.98654 7.27208 8.09088 7.26295 8.19484L8.79381 8.65956C8.92338 8.52309 9.10138 8.44299 9.28944 8.43652C9.47751 8.43006 9.66059 8.49775 9.79922 8.625C9.86807 8.68839 9.92358 8.76488 9.96248 8.85H12.5252C12.5732 8.74868 12.6441 8.6599 12.7323 8.59065C12.8205 8.5214 12.9235 8.47358 13.0333 8.45094L14.4261 5.52368C14.3511 5.42631 14.3018 5.31166 14.2828 5.19027L10.025 4.25827C9.92796 4.39725 9.78641 4.49897 9.62373 4.54663C9.50882 4.58293 9.38699 4.59175 9.26805 4.57237L9.26806 4.57108ZM9.34363 3.73047C9.28133 3.74368 9.22662 3.78064 9.19111 3.8335C9.1556 3.88637 9.14208 3.95099 9.15341 4.01367C9.18311 4.06808 9.23069 4.11058 9.2881 4.13398C9.34551 4.15737 9.40924 4.16023 9.46852 4.14207C9.52779 4.12391 9.57899 4.08585 9.61344 4.03431C9.64789 3.98277 9.6635 3.92091 9.65762 3.8592C9.64553 3.83006 9.62781 3.80361 9.60546 3.78136C9.58311 3.7591 9.55658 3.74149 9.5274 3.72952C9.49821 3.71756 9.46695 3.71148 9.43541 3.71164C9.40388 3.71181 9.37268 3.7182 9.34362 3.73047H9.34363ZM17.4839 2.747L11.0582 3.903L14.4196 4.638C14.5111 4.51527 14.6395 4.42498 14.786 4.38029C14.9324 4.33561 15.0894 4.33885 15.2339 4.38955L17.4839 2.747ZM18.2721 2.87187L15.8761 4.62261L22.449 4.80283L22.4634 4.75391L18.9796 2.792C18.9 2.84949 18.8094 2.89001 18.7135 2.91105C18.6175 2.93208 18.5183 2.93319 18.4219 2.91429C18.3707 2.9052 18.3205 2.89097 18.2721 2.87183V2.87187ZM18.5822 2.07503C18.5206 2.05806 18.4548 2.06613 18.3992 2.09749C18.3436 2.12884 18.3026 2.18092 18.2852 2.24238C18.287 2.30444 18.3102 2.36398 18.3508 2.41091C18.3915 2.45784 18.4471 2.48927 18.5083 2.49987C18.5695 2.51048 18.6324 2.49961 18.6865 2.4691C18.7406 2.4386 18.7825 2.39033 18.805 2.33249C18.8087 2.269 18.7875 2.20658 18.7459 2.1585C18.7043 2.11041 18.6455 2.08046 18.5822 2.075V2.07503ZM22.7943 5.5829C22.7056 5.52877 22.6281 5.45795 22.5663 5.37436L15.7094 5.18641C15.7041 5.22668 15.695 5.26634 15.682 5.30484L18.4493 8.45745C18.6086 8.4228 18.775 8.44282 18.9215 8.51429C19.0681 8.58576 19.1863 8.7045 19.2571 8.85137H22.1976C22.2699 8.69984 22.3923 8.57795 22.5442 8.50636L22.7943 5.5829ZM22.8465 8.87582C22.7696 8.876 22.696 8.90666 22.6418 8.96108C22.5875 9.0155 22.5571 9.08922 22.5572 9.16604C22.5573 9.24287 22.5879 9.31652 22.6422 9.37081C22.6966 9.42511 22.7703 9.4556 22.8471 9.4556C22.9239 9.4556 22.9976 9.42511 23.052 9.37081C23.1063 9.31652 23.1369 9.24287 23.137 9.16604C23.1371 9.08922 23.1067 9.0155 23.0524 8.96108C22.9982 8.90666 22.9246 8.876 22.8478 8.87582H22.8465ZM22.9755 4.75645C22.9426 4.82158 22.9368 4.89703 22.9592 4.96643C22.9817 5.03584 23.0306 5.0936 23.0953 5.12719C23.125 5.14737 23.1585 5.16139 23.1938 5.16844C23.229 5.17549 23.2653 5.17541 23.3005 5.16822C23.3357 5.16103 23.3691 5.14686 23.3988 5.12656C23.4284 5.10625 23.4537 5.08022 23.4731 5.05C23.5026 4.98472 23.5069 4.91087 23.4853 4.8426C23.4637 4.77433 23.4176 4.71645 23.3559 4.68007C23.2942 4.64369 23.2213 4.63136 23.151 4.64547C23.0808 4.65957 23.0183 4.69911 22.9754 4.75649L22.9755 4.75645ZM28.0761 11.6023L23.3507 5.69747L23.1122 8.48964C23.2382 8.54004 23.3476 8.62457 23.4281 8.73372C23.5087 8.84288 23.5572 8.97233 23.5682 9.10754L28.0761 11.6023ZM25.0887 6.457L24.0282 5.75413L27.4508 10.1567L25.7857 7.21263C25.6467 7.20204 25.5133 7.1535 25.4001 7.07232C25.2981 7.00665 25.2154 6.91507 25.1605 6.80695C25.1055 6.69883 25.0803 6.57805 25.0874 6.45698L25.0887 6.457ZM25.5838 6.38363C25.5535 6.43998 25.5464 6.50589 25.5639 6.56741C25.5814 6.62892 25.6222 6.6812 25.6776 6.71318C25.7259 6.75458 25.7888 6.77512 25.8523 6.77029C25.9158 6.76546 25.9747 6.73567 26.0163 6.68743C26.0465 6.6314 26.0537 6.56584 26.0365 6.50459C26.0192 6.44334 25.9788 6.39119 25.9238 6.35917C25.8999 6.3386 25.8721 6.32296 25.8422 6.31312C25.8122 6.30329 25.7806 6.29945 25.7491 6.30184C25.7176 6.30424 25.687 6.3128 25.6588 6.32705C25.6307 6.3413 25.6056 6.36096 25.5851 6.38491L25.5838 6.38363ZM18.3268 9.168C18.3265 9.2052 18.3335 9.24212 18.3474 9.2766C18.3614 9.31109 18.3821 9.34247 18.4082 9.36892C18.4344 9.39538 18.4655 9.41638 18.4999 9.43072C18.5342 9.44507 18.571 9.45246 18.6083 9.45249C18.6648 9.45297 18.7202 9.43664 18.7674 9.40557C18.8146 9.3745 18.8515 9.3301 18.8735 9.278C18.8954 9.2259 18.9014 9.16846 18.8906 9.11297C18.8798 9.05748 18.8528 9.00644 18.8129 8.96634C18.7731 8.92625 18.7222 8.8989 18.6668 8.88777C18.6114 8.87665 18.5539 8.88224 18.5017 8.90386C18.4494 8.92547 18.4048 8.96211 18.3734 9.00914C18.3421 9.05618 18.3254 9.11147 18.3255 9.168H18.3268ZM18.4818 15.3123C18.4437 15.3124 18.406 15.32 18.3709 15.3347C18.3357 15.3494 18.3038 15.3708 18.277 15.3978C18.2501 15.4249 18.2288 15.4569 18.2144 15.4921C18.1999 15.5274 18.1925 15.5651 18.1926 15.6032C18.1921 15.6414 18.1992 15.6794 18.2135 15.7148C18.2277 15.7503 18.2489 15.7825 18.2758 15.8098C18.3026 15.837 18.3346 15.8586 18.3698 15.8733C18.4051 15.8881 18.4429 15.8956 18.4812 15.8957C18.5194 15.8957 18.5572 15.8881 18.5925 15.8733C18.6278 15.8586 18.6597 15.837 18.6866 15.8098C18.7134 15.7826 18.7346 15.7503 18.7489 15.7149C18.7632 15.6794 18.7703 15.6415 18.7698 15.6033V15.6032C18.7701 15.5653 18.7629 15.5277 18.7486 15.4925C18.7344 15.4574 18.7134 15.4254 18.6868 15.3984C18.6601 15.3714 18.6285 15.3499 18.5935 15.3351C18.5586 15.3203 18.5211 15.3126 18.4832 15.3123H18.4818ZM14.7075 4.983C14.7073 5.02104 14.7146 5.05875 14.729 5.09395C14.7434 5.12916 14.7646 5.16118 14.7914 5.18816C14.8182 5.21513 14.8501 5.23654 14.8852 5.25115C14.9204 5.26576 14.958 5.27328 14.9961 5.27328C15.0341 5.27328 15.0718 5.26576 15.1069 5.25115C15.142 5.23654 15.1739 5.21513 15.2007 5.18816C15.2276 5.16118 15.2488 5.12916 15.2632 5.09395C15.2776 5.05875 15.2849 5.02104 15.2847 4.983V4.983C15.2852 4.94478 15.2781 4.90684 15.2638 4.87139C15.2495 4.83593 15.2284 4.80366 15.2015 4.77646C15.1747 4.74925 15.1427 4.72765 15.1074 4.7129C15.0722 4.69816 15.0343 4.69056 14.9961 4.69056C14.9579 4.69055 14.92 4.69814 14.8848 4.71288C14.8495 4.72762 14.8175 4.74921 14.7907 4.77641C14.7638 4.80362 14.7427 4.83588 14.7284 4.87133C14.7141 4.90678 14.707 4.94472 14.7075 4.98294V4.983ZM14.9186 5.803L13.5975 8.57715C13.7448 8.68324 13.847 8.84074 13.8839 9.01853C13.9209 9.19632 13.8898 9.38149 13.7968 9.53748L18.2005 14.9313C18.2409 14.9147 18.2828 14.9018 18.3255 14.8927V9.83867C18.2292 9.79813 18.1427 9.73719 18.0722 9.66006C18.0016 9.58293 17.9486 9.49142 17.9168 9.39184C17.885 9.29226 17.8751 9.18697 17.8879 9.08322C17.9006 8.97946 17.9357 8.8797 17.9907 8.7908L15.3068 5.7348C15.1861 5.7928 15.0518 5.8164 14.9186 5.803ZM12.8861 9.168C12.8868 9.22489 12.9043 9.28031 12.9364 9.32728C12.9685 9.37425 13.0138 9.41068 13.0666 9.43199C13.1193 9.4533 13.1772 9.45854 13.2329 9.44705C13.2887 9.43556 13.3397 9.40785 13.3798 9.36741C13.4198 9.32697 13.447 9.2756 13.4579 9.21976C13.4688 9.16392 13.463 9.10609 13.4411 9.05356C13.4193 9.00102 13.3824 8.95611 13.3351 8.92448C13.2878 8.89285 13.2322 8.8759 13.1753 8.87578C13.1371 8.87593 13.0993 8.88362 13.0641 8.8984C13.0289 8.91318 12.9969 8.93476 12.9701 8.9619C12.9432 8.98904 12.922 9.02122 12.9075 9.05658C12.8931 9.09195 12.8858 9.12981 12.8861 9.168V9.168ZM9.0296 9.168C9.03032 9.22365 9.04749 9.27785 9.07895 9.32378C9.1104 9.3697 9.15474 9.40529 9.20639 9.42606C9.25803 9.44684 9.31466 9.45187 9.36915 9.44053C9.42365 9.42918 9.47357 9.40197 9.51263 9.36232C9.55169 9.32266 9.57815 9.27234 9.58867 9.21768C9.59919 9.16302 9.59331 9.10647 9.57176 9.05514C9.55021 9.00382 9.51396 8.96002 9.46757 8.92926C9.42118 8.8985 9.36672 8.88215 9.31106 8.88227C9.27378 8.88239 9.23689 8.8899 9.20252 8.90436C9.16815 8.91882 9.13699 8.93994 9.11082 8.9665C9.08466 8.99307 9.06401 9.02455 9.05008 9.05913C9.03614 9.09371 9.02919 9.13071 9.02963 9.168H9.0296ZM9.31106 22.8264C9.27314 22.8266 9.23564 22.8344 9.20071 22.8491C9.16578 22.8639 9.1341 22.8854 9.10748 22.9124C9.08087 22.9394 9.05983 22.9714 9.04558 23.0066C9.03133 23.0417 9.02414 23.0793 9.02443 23.1172V23.1173C9.02398 23.1554 9.0311 23.1932 9.04537 23.2285C9.05964 23.2639 9.08077 23.296 9.10755 23.3231C9.13434 23.3502 9.16623 23.3717 9.20138 23.3864C9.23654 23.4011 9.27426 23.4086 9.31236 23.4086C9.35046 23.4086 9.38818 23.4011 9.42334 23.3864C9.45849 23.3717 9.49039 23.3502 9.51717 23.3231C9.54395 23.296 9.56509 23.2639 9.57936 23.2285C9.59363 23.1932 9.60074 23.1554 9.60029 23.1173V23.1173C9.60058 23.0794 9.5934 23.0418 9.57915 23.0066C9.5649 22.9715 9.54387 22.9395 9.51726 22.9125C9.49064 22.8855 9.45897 22.8639 9.42404 22.8492C9.38911 22.8344 9.35161 22.8267 9.31369 22.8264L9.31106 22.8264ZM6.44997 8.07384C6.40381 8.11807 6.37664 8.17852 6.37421 8.24242C6.37179 8.30631 6.39429 8.36864 6.43697 8.41625C6.48894 8.45264 6.55319 8.46697 6.61569 8.45611C6.67819 8.44526 6.73385 8.4101 6.7705 8.35833C6.8168 8.3145 6.8442 8.25436 6.84687 8.19067C6.84955 8.12697 6.82729 8.06475 6.78483 8.0172C6.75913 7.99891 6.73008 7.98587 6.69934 7.97882C6.66859 7.97177 6.63676 7.97084 6.60566 7.9761C6.57456 7.98136 6.5448 7.9927 6.51809 8.00947C6.49137 8.02624 6.46823 8.04811 6.44997 8.07384V8.07384ZM4.33282 16.646C4.40451 16.7602 4.44286 16.8922 4.44355 17.0271C4.44424 17.162 4.40725 17.2944 4.33673 17.4094L9.02963 22.2007V9.83874C8.90274 9.78404 8.79406 9.69434 8.7163 9.58012C8.63855 9.4659 8.59494 9.3319 8.59057 9.1938L6.99847 8.71105C6.94893 8.75546 6.89373 8.79312 6.83431 8.82306L4.33282 16.646ZM19.0473 22.3874C19.1954 22.3879 19.3398 22.4339 19.4609 22.5191C19.5821 22.6042 19.6742 22.7245 19.7248 22.8637H22.1716C22.2053 22.7711 22.2576 22.6863 22.3253 22.6146C22.3929 22.5429 22.4745 22.4857 22.565 22.4466V9.83874C22.4745 9.79971 22.3929 9.74258 22.3252 9.67085C22.2575 9.59913 22.2053 9.51432 22.1716 9.42165H19.2844C19.2504 9.5141 19.1979 9.59871 19.1303 9.67039C19.0627 9.74206 18.9813 9.79933 18.891 9.83874V15.0008C18.9956 15.0706 19.0803 15.1663 19.1369 15.2786C19.1935 15.3908 19.22 15.5159 19.2138 15.6415C19.2077 15.767 19.1691 15.8889 19.1018 15.9951C19.0345 16.1013 18.9409 16.1883 18.83 16.2475C18.719 16.3067 18.5947 16.3362 18.469 16.333C18.3433 16.3298 18.2206 16.2941 18.1128 16.2293C18.005 16.1646 17.9159 16.073 17.8541 15.9635C17.7922 15.854 17.7599 15.7304 17.7601 15.6047V15.6033C17.7596 15.5153 17.7755 15.428 17.807 15.3458L13.3408 9.87736C13.1689 9.91703 12.9884 9.89262 12.8332 9.80873C12.678 9.72483 12.5588 9.5872 12.4978 9.42165H9.98853C9.9543 9.51422 9.90167 9.5989 9.83382 9.67058C9.76597 9.74226 9.68431 9.79947 9.59376 9.83874V22.4466C9.68442 22.4857 9.76617 22.5429 9.83404 22.6146C9.90191 22.6863 9.95447 22.771 9.98853 22.8637H12.8744C12.9086 22.7711 12.9612 22.6865 13.0291 22.6148C13.0969 22.5431 13.1786 22.4859 13.2691 22.4466V17.2073C13.1347 17.1243 13.0307 17 12.973 16.8529C12.9153 16.7058 12.9069 16.544 12.949 16.3917C12.9912 16.2395 13.0816 16.105 13.2068 16.0085C13.3319 15.9121 13.485 15.8589 13.643 15.8569H13.6457C13.7409 15.8567 13.8353 15.8752 13.9233 15.9114C14.0114 15.9476 14.0915 16.0008 14.159 16.068C14.2265 16.1352 14.2802 16.215 14.3168 16.3029C14.3535 16.3908 14.3725 16.485 14.3728 16.5803C14.3725 16.6689 14.3556 16.7567 14.3232 16.8391L18.861 22.4131C18.9218 22.397 18.9844 22.3884 19.0473 22.3874V22.3874ZM19.36 27.5971C19.31 27.6028 19.2628 27.6228 19.2239 27.6547C19.185 27.6866 19.1562 27.7291 19.1408 27.777C19.1255 27.8249 19.1243 27.8762 19.1375 27.9247C19.1506 27.9733 19.1775 28.017 19.2149 28.0506C19.2523 28.0843 19.2986 28.1064 19.3483 28.1143C19.3979 28.1223 19.4488 28.1157 19.4949 28.0954C19.5409 28.0751 19.58 28.0419 19.6077 27.9999C19.6353 27.9579 19.6502 27.9087 19.6505 27.8584C19.6461 27.7857 19.6133 27.7176 19.5592 27.6688C19.5051 27.62 19.4341 27.5942 19.3613 27.5971H19.36ZM18.7594 23.1173C18.759 23.1554 18.7661 23.1932 18.7804 23.2285C18.7947 23.2638 18.8159 23.296 18.8426 23.3231C18.8694 23.3502 18.9013 23.3717 18.9364 23.3864C18.9715 23.4012 19.0092 23.4088 19.0473 23.4089C19.0854 23.409 19.1231 23.4015 19.1583 23.3869C19.1935 23.3724 19.2255 23.351 19.2524 23.324C19.2793 23.297 19.3006 23.265 19.315 23.2297C19.3295 23.1945 19.3368 23.1567 19.3366 23.1186V23.1173C19.3367 23.0792 19.3293 23.0415 19.3148 23.0062C19.3004 22.971 19.2791 22.9389 19.2522 22.9119C19.2254 22.8849 19.1935 22.8634 19.1583 22.8488C19.1231 22.8341 19.0854 22.8265 19.0473 22.8264V22.8264C18.9706 22.8269 18.8972 22.8578 18.8433 22.9124C18.7893 22.9669 18.7591 23.0406 18.7594 23.1173ZM13.3564 16.5868C13.3568 16.6437 13.3741 16.6993 13.4061 16.7464C13.4381 16.7936 13.4833 16.8302 13.536 16.8517C13.5887 16.8732 13.6466 16.8786 13.7025 16.8673C13.7583 16.8559 13.8095 16.8283 13.8496 16.7879C13.8898 16.7475 13.9171 16.6962 13.9281 16.6403C13.9391 16.5844 13.9334 16.5265 13.9115 16.4739C13.8897 16.4213 13.8529 16.3763 13.8055 16.3447C13.7582 16.313 13.7026 16.296 13.6456 16.2959C13.5687 16.2962 13.4951 16.327 13.4409 16.3815C13.3867 16.4361 13.3563 16.5099 13.3564 16.5868H13.3564ZM13.5518 22.8264C13.5137 22.8265 13.476 22.8341 13.4409 22.8487C13.4057 22.8634 13.3738 22.8849 13.3469 22.9119C13.3201 22.9389 13.2988 22.971 13.2843 23.0062C13.2698 23.0414 13.2625 23.0792 13.2626 23.1173V23.1173C13.263 23.1742 13.2803 23.2297 13.3122 23.2768C13.3441 23.3239 13.3892 23.3605 13.4419 23.382C13.4945 23.4036 13.5524 23.4091 13.6082 23.3978C13.6639 23.3866 13.7151 23.3591 13.7553 23.3189C13.7956 23.2786 13.823 23.2274 13.8341 23.1716C13.8453 23.1158 13.8397 23.058 13.8181 23.0053C13.7965 22.9527 13.7598 22.9076 13.7127 22.8758C13.6656 22.8439 13.61 22.8267 13.5532 22.8264L13.5518 22.8264ZM13.8332 22.4466C13.9881 22.5129 14.1152 22.6309 14.1926 22.7805C14.2701 22.93 14.2932 23.1019 14.258 23.2666L18.9391 27.2792C18.9818 27.2547 19.0267 27.2344 19.0733 27.2186L18.8336 23.815C18.6858 23.7677 18.5569 23.6746 18.4656 23.5492C18.3742 23.4237 18.3252 23.2725 18.3255 23.1173C18.3248 22.9942 18.3562 22.873 18.4167 22.7658L13.931 17.2562C13.8994 17.2699 13.8667 17.2811 13.8333 17.2897L13.8332 22.4466ZM23.1356 23.116C23.1358 23.0781 23.1284 23.0405 23.114 23.0054C23.0996 22.9704 23.0784 22.9385 23.0517 22.9116C23.025 22.8847 22.9932 22.8633 22.9582 22.8487C22.9232 22.8341 22.8857 22.8265 22.8477 22.8264V22.8264C22.8096 22.8265 22.7719 22.8341 22.7368 22.8487C22.7016 22.8634 22.6697 22.8849 22.6429 22.9119C22.616 22.9389 22.5947 22.971 22.5803 23.0062C22.5658 23.0414 22.5584 23.0792 22.5585 23.1173V23.1173C22.5583 23.1554 22.5656 23.1932 22.58 23.2285C22.5945 23.2638 22.6157 23.2959 22.6426 23.3229C22.6695 23.3499 22.7015 23.3714 22.7367 23.386C22.7719 23.4007 22.8096 23.4082 22.8477 23.4082C22.8859 23.4082 22.9236 23.4007 22.9588 23.386C22.994 23.3714 23.026 23.3499 23.0529 23.3229C23.0798 23.2959 23.101 23.2638 23.1155 23.2285C23.1299 23.1932 23.1372 23.1554 23.137 23.1173L23.1356 23.116ZM2.66776 19.2271C2.72534 19.2039 2.77327 19.1618 2.8036 19.1076C2.83393 19.0535 2.84482 18.9906 2.83447 18.9294C2.82413 18.8682 2.79316 18.8124 2.74672 18.7713C2.70028 18.7301 2.64116 18.7061 2.57917 18.7031C2.51798 18.7213 2.46637 18.7628 2.43543 18.8187C2.40449 18.8745 2.39669 18.9403 2.41371 19.0018C2.41555 19.0333 2.42359 19.0641 2.43736 19.0925C2.45114 19.1209 2.47037 19.1462 2.49398 19.1672C2.51758 19.1881 2.54508 19.2042 2.5749 19.2144C2.60472 19.2247 2.63628 19.229 2.66776 19.2271V19.2271ZM28.6885 11.8714C28.6396 11.8937 28.6012 11.9339 28.5811 11.9837C28.561 12.0335 28.5607 12.0892 28.5803 12.1391C28.5906 12.1911 28.621 12.237 28.665 12.2666C28.7089 12.2963 28.7628 12.3074 28.8149 12.2975C28.864 12.2755 28.9029 12.2354 28.9232 12.1855C28.9436 12.1357 28.944 12.0799 28.9243 12.0297C28.9194 12.0039 28.9094 11.9793 28.895 11.9573C28.8805 11.9353 28.8618 11.9164 28.84 11.9017C28.8182 11.887 28.7937 11.8767 28.7679 11.8715C28.7421 11.8663 28.7156 11.8663 28.6898 11.8714H28.6885Z" fill="url(#paint0_linear)"/>
    <path d="M23.1316 22.4466V9.83874C23.2513 9.78633 23.3548 9.70276 23.4313 9.59674C23.5393 9.45796 23.5885 9.28226 23.5681 9.10756C23.557 8.97235 23.5085 8.84289 23.428 8.73374C23.3474 8.62458 23.238 8.54005 23.1121 8.48965C22.9275 8.42288 22.7244 8.42887 22.5441 8.50638C22.3922 8.57797 22.2698 8.69986 22.1975 8.85138H19.2569C19.1861 8.70451 19.0679 8.58577 18.9213 8.5143C18.7748 8.44284 18.6084 8.42281 18.4491 8.45746C18.3531 8.47657 18.2624 8.51628 18.1832 8.57384C18.1041 8.6314 18.0383 8.70545 17.9905 8.79088C17.9369 8.88014 17.903 8.9798 17.891 9.08321C17.8789 9.18663 17.8891 9.29142 17.9208 9.39059C17.9525 9.48977 18.005 9.58104 18.0747 9.65832C18.1445 9.7356 18.2299 9.79711 18.3254 9.83875V14.8928C18.2826 14.9019 18.2407 14.9148 18.2003 14.9314L13.7966 9.53751C13.8896 9.38153 13.9207 9.19636 13.8838 9.01857C13.8469 8.84077 13.7447 8.68328 13.5973 8.57718C13.518 8.51651 13.4265 8.4738 13.3291 8.45202C13.2317 8.43024 13.1307 8.42989 13.0332 8.45102C12.9234 8.47366 12.8203 8.52149 12.7321 8.59074C12.644 8.65999 12.5731 8.74877 12.525 8.85008H9.96232C9.92341 8.76496 9.86791 8.68847 9.79906 8.62508C9.66043 8.49783 9.47735 8.43014 9.28929 8.43659C9.10122 8.44305 8.92322 8.52315 8.79365 8.65961C8.72634 8.73095 8.67375 8.81485 8.63888 8.90651C8.60401 8.99818 8.58754 9.09582 8.59041 9.19385C8.59477 9.33195 8.63838 9.46596 8.71614 9.58018C8.7939 9.69439 8.90258 9.7841 9.02947 9.83879L9.02424 22.4466C8.90236 22.5015 8.79751 22.5882 8.72069 22.6976V22.6977L8.72112 22.6979C8.70086 22.7268 8.68277 22.7572 8.66699 22.7888C8.65999 22.8028 8.65507 22.8177 8.64899 22.8321C8.64128 22.8504 8.63293 22.8683 8.62674 22.8873C8.62255 22.9001 8.62014 22.9133 8.61666 22.9263C8.61005 22.9495 8.60465 22.973 8.60046 22.9967L8.59805 23.0182C8.59356 23.051 8.59136 23.084 8.59147 23.1171C8.59236 23.2582 8.63371 23.396 8.71061 23.5143C8.7875 23.6326 8.89671 23.7263 9.02528 23.7843L9.03628 23.7889C9.0755 23.8057 9.11617 23.8188 9.1578 23.8281L9.18092 23.832C9.21898 23.8393 9.25758 23.8434 9.29633 23.8442C9.30249 23.8443 9.30858 23.8451 9.31476 23.8451C9.4307 23.8434 9.54457 23.8142 9.64698 23.7598C9.7494 23.7054 9.83741 23.6275 9.90376 23.5324C9.92535 23.5009 9.9449 23.468 9.96229 23.4339H12.8825C12.8912 23.4284 12.8982 23.4269 12.9016 23.4339C12.9828 23.6001 13.1241 23.7291 13.297 23.7948C13.4698 23.8606 13.6612 23.858 13.8323 23.7878L13.8366 23.7855C13.9665 23.7288 14.077 23.6353 14.1544 23.5165C14.2319 23.3978 14.2729 23.259 14.2726 23.1173H14.2727C14.2732 22.9747 14.2318 22.8351 14.1537 22.7159C14.0755 22.5966 13.964 22.503 13.8331 22.4466V17.2897C13.8665 17.2811 13.8992 17.2699 13.9308 17.2562L18.4165 22.7659C18.3561 22.8731 18.3246 22.9942 18.3253 23.1173C18.325 23.2724 18.374 23.4237 18.4653 23.5491C18.5566 23.6745 18.6855 23.7676 18.8333 23.8149C18.9011 23.8362 18.9718 23.847 19.0429 23.8472C19.1798 23.8471 19.314 23.8085 19.43 23.7356C19.546 23.6627 19.6391 23.5586 19.6986 23.4353H22.1974C22.2398 23.5252 22.3005 23.6053 22.3755 23.6705C22.4506 23.7356 22.5385 23.7844 22.6334 23.8137L22.6316 23.806C22.7613 23.8479 22.9002 23.8521 23.0322 23.818C23.1641 23.784 23.2837 23.7131 23.3769 23.6137C23.4664 23.518 23.5276 23.3993 23.5539 23.2709C23.5904 23.1058 23.5682 22.9332 23.4911 22.7827C23.414 22.6323 23.2869 22.5134 23.1316 22.4466V22.4466ZM22.8463 8.87583H22.8476C22.9249 8.876 22.9989 8.90684 23.0535 8.96158C23.108 9.01631 23.1386 9.09046 23.1385 9.16773C23.1384 9.24501 23.1077 9.31909 23.053 9.3737C22.9983 9.42831 22.9242 9.45899 22.8469 9.45899C22.7697 9.45899 22.6956 9.42831 22.6409 9.3737C22.5862 9.31909 22.5555 9.24501 22.5554 9.16773C22.5553 9.09046 22.5859 9.01631 22.6404 8.96158C22.695 8.90684 22.769 8.876 22.8463 8.87583ZM18.6081 8.88227C18.6833 8.8829 18.7552 8.91322 18.8082 8.96662C18.8611 9.02003 18.8908 9.0922 18.8908 9.16741C18.8908 9.24262 18.8611 9.31479 18.8082 9.3682C18.7552 9.4216 18.6833 9.45192 18.6081 9.45255C18.5709 9.45253 18.534 9.44513 18.4997 9.43079C18.4654 9.41644 18.4342 9.39544 18.4081 9.36898C18.3819 9.34253 18.3612 9.31115 18.3473 9.27666C18.3333 9.24217 18.3263 9.20526 18.3267 9.16805H18.3254C18.3251 9.09271 18.3547 9.02034 18.4077 8.96677C18.4607 8.91321 18.5327 8.88283 18.6081 8.88227V8.88227ZM18.1925 15.6033C18.1924 15.5652 18.1997 15.5274 18.2142 15.4922C18.2287 15.4569 18.25 15.4249 18.2768 15.3979C18.3037 15.3709 18.3356 15.3494 18.3708 15.3347C18.4059 15.3201 18.4436 15.3125 18.4817 15.3124H18.483C18.521 15.3126 18.5585 15.3204 18.5934 15.3352C18.6283 15.3499 18.66 15.3714 18.6866 15.3984C18.7132 15.4255 18.7343 15.4575 18.7485 15.4926C18.7628 15.5277 18.7699 15.5653 18.7696 15.6033V15.6033C18.7701 15.6415 18.763 15.6795 18.7488 15.7149C18.7345 15.7504 18.7133 15.7827 18.6865 15.8099C18.6596 15.8371 18.6276 15.8586 18.5924 15.8734C18.5571 15.8881 18.5193 15.8957 18.481 15.8957C18.4428 15.8957 18.405 15.8881 18.3697 15.8734C18.3345 15.8586 18.3025 15.837 18.2756 15.8098C18.2488 15.7826 18.2276 15.7503 18.2133 15.7149C18.1991 15.6794 18.192 15.6415 18.1925 15.6033V15.6033ZM13.1752 8.87583C13.232 8.8777 13.287 8.89598 13.3336 8.92846C13.3802 8.96094 13.4165 9.00623 13.4379 9.05886C13.4593 9.11149 13.4651 9.1692 13.4544 9.22501C13.4437 9.28082 13.4171 9.33235 13.3778 9.37336C13.3437 9.40645 13.3021 9.43068 13.2565 9.44391C13.211 9.45715 13.1628 9.45899 13.1164 9.44926C13.0699 9.43954 13.0266 9.41856 12.9901 9.38816C12.9537 9.35776 12.9252 9.31887 12.9073 9.27491C12.8894 9.23095 12.8826 9.18327 12.8874 9.13606C12.8923 9.08884 12.9087 9.04354 12.9351 9.00413C12.9615 8.96472 12.9973 8.93241 13.0391 8.91004C13.081 8.88767 13.1277 8.87592 13.1752 8.87583ZM9.3109 8.88227C9.38441 8.88541 9.45388 8.91682 9.50479 8.96995C9.5557 9.02309 9.58412 9.09383 9.58412 9.16741C9.58412 9.24099 9.5557 9.31174 9.50479 9.36487C9.45388 9.418 9.38441 9.44941 9.3109 9.45255C9.23738 9.44941 9.16792 9.418 9.11701 9.36487C9.0661 9.31174 9.03768 9.24099 9.03768 9.16741C9.03768 9.09383 9.0661 9.02309 9.11701 8.96995C9.16792 8.91682 9.23738 8.88541 9.3109 8.88227V8.88227ZM9.60013 23.1173C9.59954 23.1741 9.58218 23.2294 9.55024 23.2763C9.51829 23.3233 9.47319 23.3597 9.4206 23.3811C9.36801 23.4025 9.31028 23.4078 9.25465 23.3965C9.19903 23.3851 9.148 23.3576 9.10798 23.3173C9.06796 23.2771 9.04073 23.2259 9.02971 23.1702C9.0187 23.1145 9.02439 23.0568 9.04608 23.0043C9.06776 22.9519 9.10447 22.907 9.15159 22.8753C9.1987 22.8437 9.25413 22.8266 9.3109 22.8264H9.31353C9.35145 22.8266 9.38895 22.8344 9.42387 22.8492C9.4588 22.8639 9.49048 22.8854 9.5171 22.9124C9.54371 22.9395 9.56474 22.9715 9.57899 23.0066C9.59324 23.0417 9.60042 23.0793 9.60013 23.1173V23.1173ZM13.8396 23.1173C13.8392 23.1743 13.8218 23.2299 13.7898 23.2771C13.7578 23.3242 13.7125 23.3609 13.6597 23.3823C13.6069 23.4038 13.5489 23.4091 13.4931 23.3977C13.4372 23.3862 13.386 23.3585 13.3459 23.318C13.3058 23.2775 13.2786 23.226 13.2678 23.17C13.2569 23.1141 13.2628 23.0561 13.2848 23.0036C13.3069 22.951 13.3439 22.9061 13.3914 22.8746C13.4389 22.843 13.4947 22.8263 13.5517 22.8264H13.553C13.591 22.8267 13.6285 22.8344 13.6634 22.8492C13.6983 22.864 13.73 22.8855 13.7566 22.9125C13.7832 22.9395 13.8042 22.9715 13.8185 23.0066C13.8327 23.0418 13.8399 23.0794 13.8396 23.1173L13.8396 23.1173ZM13.6455 16.8778C13.5704 16.8747 13.4994 16.8427 13.4473 16.7885C13.3952 16.7343 13.3662 16.662 13.3662 16.5868C13.3662 16.5116 13.3952 16.4394 13.4473 16.3852C13.4994 16.3309 13.5704 16.2989 13.6455 16.2959C13.7206 16.299 13.7915 16.331 13.8436 16.3852C13.8956 16.4395 13.9246 16.5117 13.9246 16.5868C13.9246 16.6619 13.8956 16.7342 13.8435 16.7884C13.7915 16.8426 13.7206 16.8746 13.6455 16.8777L13.6455 16.8778ZM19.0459 23.4083C18.9694 23.4071 18.8964 23.3758 18.8428 23.3213C18.7891 23.2667 18.7591 23.1932 18.7593 23.1167C18.7595 23.0402 18.7898 22.9668 18.8437 22.9125C18.8975 22.8581 18.9706 22.8272 19.0472 22.8264V22.8264C19.0853 22.8265 19.123 22.8341 19.1581 22.8488C19.1933 22.8635 19.2252 22.8849 19.252 22.9119C19.2789 22.939 19.3002 22.971 19.3146 23.0062C19.3291 23.0415 19.3365 23.0792 19.3364 23.1173V23.1186C19.3362 23.1955 19.3056 23.2693 19.2511 23.3236C19.1966 23.3779 19.1228 23.4083 19.0459 23.4082L19.0459 23.4083ZM22.1714 22.8637H19.7246C19.674 22.7246 19.5819 22.6043 19.4608 22.5191C19.3396 22.4339 19.1952 22.388 19.0472 22.3874C18.9842 22.3884 18.9217 22.3971 18.8608 22.4132L14.323 16.8392C14.3555 16.7567 14.3723 16.6689 14.3726 16.5803C14.3724 16.4851 14.3534 16.3908 14.3167 16.3029C14.28 16.215 14.2264 16.1352 14.1589 16.068C14.0913 16.0009 14.0113 15.9476 13.9232 15.9114C13.8351 15.8752 13.7407 15.8567 13.6455 15.8569H13.6428C13.4848 15.8589 13.3317 15.9121 13.2066 16.0086C13.0815 16.105 12.991 16.2395 12.9488 16.3918C12.9067 16.544 12.9151 16.7059 12.9728 16.8529C13.0306 17 13.1345 17.1244 13.269 17.2073V22.4466C13.1784 22.4859 13.0968 22.5431 13.0289 22.6148C12.9611 22.6865 12.9084 22.7711 12.8742 22.8637H9.98837C9.95431 22.7711 9.90174 22.6863 9.83387 22.6146C9.76601 22.5429 9.68426 22.4857 9.5936 22.4466V9.83874C9.68415 9.79947 9.76581 9.74227 9.83366 9.67059C9.90151 9.59891 9.95414 9.51422 9.98837 9.42165H12.4977C12.5586 9.58721 12.6779 9.72484 12.8331 9.80874C12.9883 9.89264 13.1688 9.91704 13.3407 9.87736L17.8069 15.3458C17.7754 15.428 17.7595 15.5153 17.76 15.6033V15.6047C17.7615 15.7286 17.795 15.85 17.8571 15.9572C17.9191 16.0645 18.0078 16.1539 18.1144 16.2169C18.2211 16.28 18.3422 16.3145 18.4661 16.3172C18.59 16.3199 18.7124 16.2907 18.8217 16.2323C18.931 16.1739 19.0235 16.0884 19.0902 15.984C19.1568 15.8796 19.1955 15.7597 19.2025 15.636C19.2094 15.5123 19.1844 15.3889 19.1298 15.2776C19.0752 15.1664 18.993 15.0711 18.8909 15.0008V9.83874C18.9812 9.79933 19.0626 9.74207 19.1302 9.67039C19.1978 9.59871 19.2502 9.51411 19.2843 9.42165H22.1715C22.2052 9.51432 22.2574 9.59913 22.3251 9.67086C22.3928 9.74258 22.4744 9.79972 22.5649 9.83874V22.4466C22.4744 22.4857 22.3928 22.5429 22.3251 22.6146C22.2575 22.6863 22.2052 22.7711 22.1714 22.8637L22.1714 22.8637ZM22.5584 23.1173C22.5582 23.0792 22.5656 23.0415 22.5801 23.0062C22.5946 22.971 22.6159 22.9389 22.6427 22.9119C22.6696 22.8849 22.7015 22.8635 22.7367 22.8488C22.7718 22.8341 22.8095 22.8265 22.8476 22.8264V22.8264C22.8855 22.8265 22.9231 22.8341 22.9581 22.8487C22.9931 22.8633 23.0248 22.8847 23.0516 22.9116C23.0783 22.9385 23.0995 22.9704 23.1139 23.0055C23.1283 23.0405 23.1356 23.0781 23.1355 23.116L23.1368 23.1173C23.1346 23.1926 23.1032 23.264 23.0492 23.3165C22.9952 23.369 22.9229 23.3983 22.8476 23.3983C22.7723 23.3983 22.6999 23.369 22.6459 23.3165C22.5919 23.264 22.5605 23.1926 22.5584 23.1173L22.5584 23.1173Z" fill="white"/>
    <defs>
        <linearGradient id="paint0_linear" x1="15.9201" y1="30.16" x2="15.9201" y2="1.84" gradientUnits="userSpaceOnUse">
            <stop stop-color="#005BC1"/>
            <stop offset="1" stop-color="#009AD9"/>
        </linearGradient>
    </defs>
</svg>
