<svg width="33" height="32" viewBox="0 0 33 32" fill="none" xmlns="http://www.w3.org/2000/svg">
    <path d="M15.9984 0C24.8327 0 31.9968 7.16408 31.9968 15.9984C31.9968 24.8327 24.8327 31.9968 15.9984 31.9968C7.16408 31.9968 0 24.8327 0 15.9984C0 7.16408 7.16408 0 15.9984 0Z" fill="#111111"/>
    <path d="M20.7179 9.36227L17.451 14.213C17.2238 14.5425 17.659 14.9425 17.9725 14.6641L21.1882 11.8676C21.2746 11.7972 21.3962 11.8516 21.3962 11.9732V20.7147C21.3962 20.8363 21.2394 20.8875 21.169 20.8011L11.4356 9.15429C11.122 8.77353 10.6709 8.56235 10.1685 8.56235H9.81974C8.91743 8.56235 8.1687 9.31107 8.1687 10.2294V22.5322C8.1687 23.4537 8.91743 24.1992 9.83574 24.1992C10.4085 24.1992 10.9492 23.9048 11.2596 23.3993L14.5297 18.5581C14.7569 18.2286 14.3217 17.8286 14.0081 18.107L10.7924 20.8875C10.7061 20.9579 10.5845 20.9035 10.5845 20.7819V12.0564C10.5845 11.9348 10.7412 11.8836 10.8116 11.97L20.5419 23.6136C20.8555 23.9944 21.3226 24.2056 21.809 24.2056H22.1577C23.0792 24.2056 23.8248 23.4569 23.8248 22.5386V10.2326C23.8248 9.31107 23.076 8.56555 22.1577 8.56555C21.569 8.56555 21.0282 8.85992 20.7179 9.36227Z" fill="white"/>
</svg>
