<svg width="32" height="32" viewBox="0 0 32 32" fill="none" xmlns="http://www.w3.org/2000/svg">
    <path d="M16 32C24.8366 32 32 24.8366 32 16C32 7.16344 24.8366 0 16 0C7.16344 0 0 7.16344 0 16C0 24.8366 7.16344 32 16 32Z" fill="white"/>
    <path d="M15.9995 21.4355L20.7137 18.7174V13.2813L15.9995 15.9993V21.4355Z" fill="#4F88CE"/>
    <path d="M26.7019 9.82679C26.5043 9.49474 26.2269 9.21733 25.8949 9.01979L21.4923 6.47168L17.0897 3.92455C16.7569 3.72984 16.3782 3.62722 15.9926 3.62722C15.6069 3.62722 15.2283 3.72984 14.8954 3.92455L10.4928 6.47268L7.166 8.3967L6.0902 9.01981C5.75828 9.2129 5.48288 9.48977 5.29156 9.82271C5.10024 10.1557 4.9997 10.533 5 10.917V15.9993V21.0812C4.9997 21.4652 5.10024 21.8425 5.29156 22.1755C5.48289 22.5084 5.75829 22.7853 6.09021 22.9784L10.4928 25.5265L14.8954 28.0746C15.2282 28.2693 15.6069 28.372 15.9925 28.372C16.3782 28.372 16.7568 28.2693 17.0897 28.0746L21.4923 25.5265L25.8949 22.9784C26.2268 22.7853 26.5022 22.5084 26.6935 22.1755C26.8848 21.8425 26.9854 21.4652 26.9851 21.0812V15.9993V10.917C26.9852 10.5354 26.8877 10.1601 26.7019 9.82679V9.82679ZM21.4923 16.5653V19.1701L15.9995 22.3413L10.5067 19.1701V12.8281L15.0509 10.1945L15.9995 9.64244L21.4923 12.8137V16.5653Z" fill="#4F88CE"/>
    <path d="M20.7137 13.2813V18.7174L15.9995 15.9993L20.7137 13.2813Z" fill="#3BA3D0"/>
    <path d="M20.7137 18.7174L15.9995 21.4355V15.9993L20.7137 18.7174Z" fill="#4891CF"/>
    <path d="M21.4922 12.8281V19.1701L26.985 15.9988L21.4922 12.8281Z" fill="#19CED4"/>
    <path d="M10.4929 19.1701V25.5265L15.9996 22.3413L10.4929 19.1701Z" fill="#4891CF"/>
    <path d="M10.4929 6.47168V12.8281L15.9996 9.65685L10.4929 6.47168Z" fill="#6B65CB"/>
    <path d="M21.4923 19.1701L15.9995 22.3413L21.4923 25.5265V19.1701Z" fill="#1FC6D3"/>
    <path d="M10.4928 12.8281L5 15.9993L10.4928 19.1706L10.4928 12.8281Z" fill="#715DCA"/>
    <path d="M21.4923 6.47168L15.9995 9.65685L21.4923 12.8281V6.47168Z" fill="#429ACF"/>
    <path d="M10.4928 6.47168L7.166 8.39719L6.0902 9.01981C5.75507 9.21336 5.47675 9.49167 5.2832 9.82681L10.4928 12.8281L10.4928 6.47168Z" fill="#7854CA"/>
    <path d="M10.4928 12.8281L5.2982 9.82679C5.1012 10.1562 4.99809 10.5332 5.00003 10.917V15.9988L10.4928 12.8281Z" fill="#7F4BC9"/>
    <path d="M5.00003 15.9993V21.0817C4.99808 21.4655 5.10118 21.8425 5.29817 22.1719L10.5077 19.1706L5.00003 15.9993Z" fill="#646ECC"/>
    <path d="M10.4928 19.1701L5.29712 22.1714C5.49465 22.5035 5.77206 22.7809 6.10412 22.9784L10.5067 25.5265V19.1701H10.4928Z" fill="#5680CD"/>
    <path d="M10.4929 25.5265L14.8955 28.0746C15.2256 28.2699 15.6022 28.3729 15.9857 28.3728V22.3552L10.4929 25.5265Z" fill="#3BA3D0"/>
    <path d="M15.9995 28.3579C16.3833 28.3598 16.7603 28.2567 17.0897 28.0597L21.4923 25.5116L15.9995 22.3414V28.3579Z" fill="#2DB4D1"/>
    <path d="M21.4922 19.1701V25.5121L25.8948 22.964C26.2268 22.7665 26.5042 22.4891 26.7018 22.157L21.4922 19.1701Z" fill="#12D7D4"/>
    <path d="M26.7017 22.1714C26.897 21.8413 27 21.4647 26.9999 21.0812V15.9993L21.5061 19.1706L26.7017 22.1714Z" fill="#0BE0D5"/>
    <path d="M26.9845 15.9988V10.917C26.9864 10.5332 26.8833 10.1562 26.6863 9.82679L21.4778 12.8281L26.9845 15.9988Z" fill="#26BDD2"/>
    <path d="M26.7017 9.82679C26.5042 9.49474 26.2268 9.21733 25.8947 9.01979L21.4922 6.47168V12.8281L26.7017 9.82679Z" fill="#34ABD1"/>
    <path d="M21.4923 6.47268L17.0897 3.92356C16.7558 3.73924 16.3809 3.64185 15.9995 3.64032V9.65685L21.4923 6.47268Z" fill="#4F88CE"/>
    <path d="M15.9996 9.65685V3.64032C15.6158 3.63838 15.2388 3.74148 14.9094 3.93846L10.4929 6.47268L15.9996 9.65685Z" fill="#5D77CD"/>
</svg>
