<svg width="32" height="32" viewBox="0 0 32 32" fill="none" xmlns="http://www.w3.org/2000/svg">
<path d="M32 16C32 24.8366 24.8366 32 16 32C7.16344 32 0 24.8366 0 16C0 7.16344 7.16344 0 16 0C24.8366 0 32 7.16344 32 16Z" fill="white"/>
<path d="M6 10.7971V21.7679C6.0002 21.8338 6.01804 21.8985 6.05177 21.9556C6.08551 22.0128 6.13398 22.0606 6.19246 22.0942L11.0041 24.7825V13.5864L6 10.7971Z" fill="#60BEFF"/>
<path d="M20.9958 8L25.8075 10.6883C25.8659 10.7219 25.9144 10.7697 25.9482 10.8269C25.9819 10.8841 25.9997 10.9488 25.9999 11.0146V21.9854L20.9958 19.1883V8Z" fill="#1A4199"/>
<path d="M10.9958 24.7826L15.9999 21.9855L10.9958 19.1884V24.7826Z" fill="#3CA9E5"/>
<path d="M11.1885 8.109L20.9961 13.5944V19.1886L6 10.7973L10.8116 8.109C10.8686 8.07617 10.9337 8.05884 11.0001 8.05884C11.0664 8.05884 11.1315 8.07617 11.1885 8.109Z" fill="#3CA9E5"/>
<path d="M20.996 8L16 10.7971L20.996 13.5942V8Z" fill="#2853C3"/>
<path d="M26 21.9854L21.1884 24.6738C21.1292 24.7044 21.063 24.7204 20.9959 24.7204C20.9288 24.7204 20.8627 24.7044 20.8035 24.6738L10.9958 19.1884V13.5864L26 21.9854Z" fill="#2853C3"/>
</svg>
