<svg width="32" height="32" viewBox="0 0 32 32" fill="none" xmlns="http://www.w3.org/2000/svg">
    <path d="M16 32C24.8365 32 32 24.8365 32 16C32 7.16344 24.8365 0 16 0C7.16343 0 0 7.16344 0 16C0 24.8365 7.16343 32 16 32Z" fill="url(#paint0_linear)"/>
    <path d="M16.3203 20.296C16.3203 20.296 19.633 21.1113 22.2588 19.0511C24.8848 16.9909 24.7988 13.8791 24.7988 13.8791C24.7988 13.8791 21.8297 12.9549 19.1328 14.9212C16.4359 16.8873 16.3203 20.296 16.3203 20.296Z" fill="white"/>
    <path d="M16.3096 21.8494C16.3096 21.8494 16.8491 24.1816 18.9722 25.1709C21.0954 26.1601 23.015 25.1233 23.015 25.1233C23.015 25.1233 22.6522 22.9715 20.5662 21.9061C18.4802 20.8406 16.3096 21.8494 16.3096 21.8494Z" fill="white"/>
    <path d="M21.301 20.8408C21.301 20.8408 22.4463 22.1144 24.1181 21.9988C25.7899 21.8832 26.6327 20.5693 26.6327 20.5693C26.6327 20.5693 25.6606 19.3468 23.9845 19.4019C22.3086 19.4569 21.301 20.8408 21.301 20.8408Z" fill="white"/>
    <path d="M19.6254 12.8023C19.6254 12.8023 17.8598 9.88365 14.5455 9.48572C11.2312 9.0878 9.09277 11.3445 9.09277 11.3445C9.09277 11.3445 10.5389 14.0973 13.836 14.6145C17.133 15.1316 19.6254 12.8023 19.6254 12.8023Z" fill="white"/>
    <path d="M20.7332 11.7108C20.7332 11.7108 22.0005 9.6802 21.1991 7.47761C20.3978 5.27503 18.3069 4.65275 18.3069 4.65275C18.3069 4.65275 17.0418 6.43233 17.765 8.66227C18.4882 10.8922 20.7332 11.7108 20.7332 11.7108Z" fill="white"/>
    <path d="M16.4895 8.89432C16.4895 8.89432 16.5797 7.18377 15.3172 6.08346C14.0547 4.98314 12.5281 5.31627 12.5281 5.31627C12.5281 5.31627 12.3517 6.86758 13.5747 8.01283C14.7978 9.15808 16.4895 8.89432 16.4895 8.89432Z" fill="white"/>
    <path d="M13.5157 16.8143C13.5157 16.8143 10.5971 18.5802 10.1992 21.8942C9.80124 25.2081 12.0579 27.3475 12.0579 27.3475C12.0579 27.3475 14.8108 25.9014 15.3279 22.6041C15.845 19.3067 13.5157 16.8143 13.5157 16.8143Z" fill="white"/>
    <path d="M12.4246 15.7058C12.4246 15.7058 10.3936 14.4384 8.19302 15.2392C5.9924 16.0399 5.36816 18.1315 5.36816 18.1315C5.36816 18.1315 7.14611 19.3966 9.37344 18.6753C11.6008 17.954 12.4246 15.7058 12.4246 15.7058Z" fill="white"/>
    <path d="M9.60787 19.95C9.60787 19.95 7.89731 19.8595 6.797 21.1223C5.69668 22.3852 6.0298 23.9111 6.0298 23.9111C6.0298 23.9111 7.58112 24.0875 8.72638 22.8645C9.87163 21.6414 9.60787 19.95 9.60787 19.95Z" fill="white"/>
    <defs>
        <linearGradient id="paint0_linear" x1="16" y1="0" x2="16" y2="32" gradientUnits="userSpaceOnUse">
            <stop offset="0.01" stop-color="#6172B0"/>
            <stop offset="0.08" stop-color="#495B9E"/>
            <stop offset="0.09" stop-color="#485A9D"/>
            <stop offset="0.37" stop-color="#2F4387"/>
            <stop offset="0.55" stop-color="#253A7E"/>
            <stop offset="1" stop-color="#20326E"/>
        </linearGradient>
    </defs>
</svg>
