<svg width="200" height="200" viewBox="0 0 200 200" fill="none" xmlns="http://www.w3.org/2000/svg">
    <circle cx="100" cy="100" r="100" fill="#111111"/>
    <path d="M132.262 64.5405L122.259 69.2866C122.208 69.3106 122.163 69.3444 122.125 69.386C122.087 69.4277 122.058 69.4764 122.039 69.5294C122.02 69.5823 122.011 69.6385 122.014 69.6947C122.017 69.7509 122.031 69.806 122.055 69.8568L137.268 101.927C142.921 113.857 141.407 122.907 132.813 126.997C125.857 130.298 119.853 127.995 115.168 119.953L97.1555 81.9789C89.8511 66.5854 79.9021 62.5054 68.1 68.1044C60.422 71.7469 55.9686 78.2577 56.057 86.5209C56.0588 86.6185 56.027 86.7139 55.967 86.791C55.9071 86.8681 55.8226 86.9224 55.7275 86.9448C55.6325 86.9671 55.5327 86.9564 55.4446 86.9141C55.3566 86.872 55.2856 86.8009 55.2435 86.7126L51.3111 78.4273C51.2872 78.3764 51.2534 78.3308 51.2116 78.293C51.1699 78.2553 51.1211 78.2262 51.0681 78.2075C51.0151 78.1887 50.9588 78.1807 50.9027 78.1838C50.8465 78.187 50.7915 78.2012 50.7409 78.2258L40.7403 82.9571C40.6401 83.0055 40.5628 83.0913 40.5251 83.1961C40.4874 83.3009 40.4923 83.4163 40.5388 83.5175L68.1638 141.768C68.2129 141.871 68.3002 141.949 68.4069 141.988C68.5139 142.026 68.6314 142.02 68.7342 141.972L78.7371 137.226C78.7881 137.202 78.8337 137.169 78.8716 137.127C78.9093 137.085 78.9385 137.037 78.9574 136.983C78.9765 136.931 78.9848 136.874 78.9819 136.818C78.9792 136.762 78.9653 136.707 78.9412 136.656L64.1528 105.483C58.1289 92.781 59.2718 83.5962 68.5081 79.2138C75.5962 75.8515 81.1064 78.1127 86.054 86.7276C86.0606 86.7375 86.0664 86.7483 86.0712 86.7595L103.907 124.364C110.789 138.866 121.477 143.845 132.766 138.49C141.491 134.351 145.109 128.12 144.897 119.925C144.895 119.828 144.926 119.732 144.986 119.654C145.046 119.577 145.13 119.522 145.226 119.5C145.321 119.477 145.421 119.487 145.509 119.53C145.598 119.572 145.669 119.643 145.711 119.731L149.683 128.105C149.707 128.156 149.74 128.202 149.782 128.24C149.824 128.277 149.872 128.307 149.925 128.326C149.978 128.345 150.034 128.353 150.091 128.35C150.147 128.347 150.202 128.333 150.253 128.309L160.256 123.563C160.307 123.539 160.352 123.505 160.39 123.464C160.428 123.422 160.457 123.373 160.476 123.32C160.494 123.267 160.502 123.211 160.499 123.155C160.496 123.099 160.482 123.044 160.457 122.993L132.832 64.7445C132.783 64.6422 132.696 64.5633 132.589 64.5251C132.482 64.4869 132.365 64.4925 132.262 64.5405V64.5405Z" fill="#1E65F3"/>
</svg>
