<svg width="32" height="32" viewBox="0 0 32 32" fill="none" xmlns="http://www.w3.org/2000/svg">
    <g clip-path="url(#clip0)">
        <path d="M31.7781 13.307C32.2487 16.124 31.9589 19.0156 30.9385 21.6832C29.9182 24.3507 28.2044 26.6976 25.974 28.4815C23.7436 30.2654 21.0774 31.4217 18.2509 31.8309C15.4243 32.2401 12.5397 31.8875 9.89496 30.8094C14.5181 29.6428 18.8578 27.5539 22.6535 24.6681C29.7941 19.4865 31.7781 13.307 31.7781 13.307ZM2.02196 23.8309C0.988113 21.9852 0.33004 19.953 0.0857199 17.8516C-0.158601 15.7502 0.0156685 13.6212 0.59847 11.5875C1.18127 9.55377 2.16107 7.65562 3.48131 6.00257C4.80155 4.34952 6.43609 2.97431 8.29061 1.95629C10.1451 0.938267 12.1829 0.297603 14.2863 0.0712673C16.3897 -0.155068 18.5172 0.0374069 20.5458 0.637584C22.5745 1.23776 24.4642 2.23376 26.1058 3.56809C27.7475 4.90243 29.1087 6.54868 30.1108 8.41184C28.7296 7.81458 27.2511 7.47427 25.7477 7.40764C22.6326 7.63544 19.588 8.44664 16.7725 9.79901C13.6681 11.3035 10.7888 13.2339 8.21796 15.5343C7.96386 15.7333 7.81281 15.6484 7.55464 15.5451C7.31434 15.4398 7.05081 15.3988 6.78987 15.4259C6.52893 15.4531 6.27952 15.5477 6.0661 15.7002C5.79501 15.8919 5.59832 16.1711 5.50919 16.4909C5.42007 16.8107 5.44398 17.1514 5.57688 17.4556C5.74176 17.9107 5.67857 18.0305 5.57932 18.1878C5.48032 18.3451 4.44495 19.6378 4.16132 20.0178C3.87765 20.398 2.19332 23.5609 2.11632 23.6867C2.08781 23.7367 2.0563 23.7848 2.02195 23.831L2.02196 23.8309Z" fill="#0CA3FA"/>
        <path d="M16.2978 11.6137C18.0374 10.9986 19.9141 10.8804 21.7172 11.2726C22.1492 11.3883 22.5468 11.6069 22.8759 11.9097C23.2051 12.2125 23.456 12.5905 23.6073 13.0114C23.8762 14.1374 23.7431 15.322 23.2312 16.3603C22.6693 17.5897 21.9164 18.7224 21.0004 19.7165C18.4418 22.6828 15.1491 24.9253 11.4517 26.2195C10.3759 26.6278 9.25767 26.9139 8.118 27.0724C7.48392 27.1954 6.83464 27.2198 6.19313 27.1445C5.6699 27.1166 5.15812 26.9806 4.69004 26.7452C4.22195 26.5097 3.80771 26.1798 3.4734 25.7764C3.18792 25.3035 3.01631 24.7707 2.97211 24.2201C2.92792 23.6695 3.01236 23.1161 3.21876 22.6038C3.78797 21.2232 4.54919 19.9299 5.47991 18.7622C5.63391 18.5509 5.78336 18.2933 6.05374 18.2214C6.40346 18.3228 6.76451 18.3799 7.12845 18.3914C7.47353 18.3501 7.79341 18.1898 8.03299 17.938C8.27257 17.6863 8.41686 17.3589 8.44099 17.0122C8.43834 16.6811 8.36599 16.3544 8.22865 16.0532C10.5929 14.0465 13.3372 12.5366 16.2978 11.6137" fill="#0CA3FA"/>
        <path d="M31.7628 13.3518C31.4796 11.6194 30.9114 9.94596 30.0813 8.39935V8.39935C28.7097 7.80613 27.2408 7.46998 25.7477 7.40765C22.6325 7.63542 19.588 8.44661 16.7725 9.799C13.6681 11.3035 10.7888 13.2339 8.21792 15.5342C7.96383 15.7333 7.81277 15.6484 7.55459 15.5451C7.31429 15.4398 7.05076 15.3987 6.78982 15.4259C6.52887 15.4531 6.27948 15.5477 6.06606 15.7003C5.79498 15.8919 5.5983 16.1711 5.50919 16.4909C5.42008 16.8107 5.444 17.1514 5.57692 17.4556C5.74177 17.9106 5.6786 18.0305 5.57936 18.1878C5.48036 18.3451 4.44496 19.6379 4.16127 20.0178C3.87764 20.3981 2.19327 23.5609 2.11627 23.6867C2.07745 23.7499 2.05396 23.7857 2.04004 23.806C3.80763 26.9604 6.58869 29.4253 9.93244 30.8014C14.541 29.6304 18.8671 27.5446 22.6534 24.6681C29.5113 19.6918 31.6071 13.8111 31.7628 13.3519L31.7628 13.3518ZM23.2311 16.3603C22.6692 17.5897 21.9163 18.7224 21.0003 19.7165C18.4417 22.6828 15.149 24.9252 11.4516 26.2195C10.3758 26.6278 9.25756 26.9138 8.1179 27.0723C7.4838 27.1954 6.8345 27.2198 6.19297 27.1445C5.66975 27.1166 5.15797 26.9806 4.68989 26.7451C4.22181 26.5097 3.80756 26.1798 3.47325 25.7764C3.18778 25.3035 3.01617 24.7707 2.97197 24.2201C2.92778 23.6695 3.01221 23.1161 3.21861 22.6038C3.78781 21.2232 4.54904 19.9299 5.47978 18.7622C5.63378 18.5509 5.78325 18.2933 6.05363 18.2214C6.40334 18.3228 6.7644 18.3799 7.12834 18.3914C7.47341 18.3501 7.79329 18.1898 8.03286 17.938C8.27244 17.6863 8.41671 17.3588 8.44084 17.0121C8.4382 16.6811 8.36585 16.3544 8.2285 16.0532C10.5928 14.0465 13.3371 12.5366 16.2976 11.6136C18.0373 10.9985 19.914 10.8803 21.717 11.2725C22.149 11.3882 22.5466 11.6068 22.8758 11.9096C23.205 12.2124 23.4559 12.5904 23.6072 13.0113C23.8761 14.1374 23.743 15.322 23.2311 16.3603V16.3603Z" fill="white"/>
    </g>
    <defs>
        <clipPath id="clip0">
            <rect width="32" height="32" fill="white"/>
        </clipPath>
    </defs>
</svg>
