<svg width="32" height="32" viewBox="0 0 32 32" fill="none" xmlns="http://www.w3.org/2000/svg">
    <g clip-path="url(#clip0)">
        <path d="M16 32.2305C24.8366 32.2305 32 25.067 32 16.2305C32 7.39391 24.8366 0.230469 16 0.230469C7.16344 0.230469 0 7.39391 0 16.2305C0 25.067 7.16344 32.2305 16 32.2305Z" fill="#1A467D"/>
        <path d="M18.5501 17.3731H17.0051L15.7849 14.9907L14.5654 17.4028L13.917 18.7385L13.2337 20.11H11.7251L15.822 11.8932L18.5501 17.3731ZM26.2733 11.8918L23.9402 14.8827L24.8005 16.0002L28 11.8918H26.2733ZM23.9402 17.1185L26.2733 20.11H28L24.8005 16.0002L23.9402 17.1185ZM11.0065 13.0817C10.6287 12.6946 10.1755 12.3891 9.67487 12.1842C9.17424 11.9793 8.6369 11.8793 8.09608 11.8905C7.24486 11.8758 6.41244 12.1416 5.72719 12.6468L6.72931 13.6597C7.14069 13.4105 7.61528 13.2852 8.09608 13.2991C8.45703 13.2897 8.81596 13.3558 9.14984 13.4932C9.48372 13.6307 9.78516 13.8365 10.0348 14.0973C10.5409 14.6183 10.8243 15.3158 10.8249 16.0421C10.8335 16.4039 10.7677 16.7636 10.6317 17.0989C10.4957 17.4342 10.2923 17.7381 10.0341 17.9917C10.0078 18.0193 9.98014 18.0464 9.95243 18.0734C9.43824 18.5656 8.74963 18.8335 8.03797 18.8182C7.32631 18.8029 6.64986 18.5056 6.15733 17.9917C5.65118 17.4708 5.368 16.7731 5.36793 16.0469C5.36463 15.5502 5.50131 15.0628 5.76229 14.6402L4.75479 13.6273C4.25166 14.3156 3.98683 15.1492 4.0005 16.0016C4.00004 16.0351 3.99998 16.0687 4.00034 16.1022C4.01191 17.1767 4.44986 18.2026 5.21783 18.9542C5.98581 19.7058 7.02091 20.1216 8.09542 20.11C8.63719 20.1297 9.17693 20.0338 9.67883 19.8289C10.1807 19.624 10.6333 19.3147 11.0066 18.9215C11.387 18.5371 11.6875 18.0812 11.8908 17.58C12.0941 17.0789 12.1961 16.5424 12.191 16.0016C12.2042 15.4597 12.1059 14.9209 11.9022 14.4186C11.6984 13.9163 11.3936 13.4612 11.0065 13.0817ZM21.601 11.9283H19.8393L23.0595 16.0185L19.8645 20.078L19.1984 18.7385H17.6884L18.3718 20.11H21.6011L23.9341 17.1172L23.0879 16.0185L23.9341 14.9198L21.601 11.9283Z" fill="white"/>
    </g>
    <defs>
        <clipPath id="clip0">
            <rect width="32" height="32" fill="white"/>
        </clipPath>
    </defs>
</svg>
