<svg width="32" height="32" viewBox="0 0 32 32" fill="none" xmlns="http://www.w3.org/2000/svg">
    <path d="M16 32C24.8366 32 32 24.8366 32 16C32 7.16344 24.8366 0 16 0C7.16344 0 0 7.16344 0 16C0 24.8366 7.16344 32 16 32Z" fill="#141414"/>
    <path fill-rule="evenodd" clip-rule="evenodd" d="M6.83256 15.5038C6.83256 16.2341 6.24104 16.8265 5.51025 16.8265C4.78005 16.8265 4.18786 16.2341 4.18786 15.5039C4.18786 14.7736 4.78005 14.1818 5.51025 14.1818C6.24097 14.1818 6.83256 14.7736 6.83256 15.5038ZM27.8477 15.5038C27.8477 16.2341 27.2554 16.8265 26.5256 16.8265C25.7952 16.8265 25.2029 16.2341 25.2029 15.5039C25.2029 14.7736 25.7952 14.1818 26.5256 14.1818C27.2554 14.1818 27.8477 14.7736 27.8477 15.5038ZM17.3401 20.722C17.3401 21.4522 16.748 22.0446 16.0179 22.0446C15.2875 22.0446 14.6954 21.4522 14.6954 20.722C14.6954 19.9918 15.2875 19.3998 16.0179 19.3998C16.748 19.3998 17.3401 19.9918 17.3401 20.722ZM12.0506 18.1489C12.0506 18.8789 11.4588 19.4713 10.7281 19.4713C9.99771 19.4713 9.40586 18.8789 9.40586 18.1489C9.40586 17.4183 9.99778 16.8265 10.7281 16.8265C11.4588 16.8265 12.0506 17.4183 12.0506 18.1489ZM22.5581 18.1489C22.5581 18.8789 21.966 19.4713 21.236 19.4713C20.5052 19.4713 19.9134 18.8789 19.9134 18.1489C19.9134 17.4183 20.5053 16.8265 21.236 16.8265C21.966 16.8265 22.5581 17.4183 22.5581 18.1489ZM6.40374 19.5073C6.40374 20 6.004 20.4006 5.51071 20.4006C5.01676 20.4006 4.61676 20 4.61676 19.5073C4.61676 19.0135 5.01676 18.6135 5.51071 18.6135C6.00407 18.6135 6.40374 19.0134 6.40374 19.5073ZM27.4188 19.5073C27.4188 20 27.0185 20.4006 26.5252 20.4006C26.0317 20.4006 25.6318 20 25.6318 19.5073C25.6318 19.0135 26.0317 18.6135 26.5253 18.6135C27.0185 18.6135 27.4188 19.0134 27.4188 19.5073ZM16.9113 24.7959C16.9113 25.2895 16.5109 25.69 16.0181 25.69C15.525 25.69 15.1243 25.2895 15.1243 24.7959C15.1243 24.3027 15.525 23.903 16.0181 23.903C16.5108 23.903 16.9113 24.3026 16.9113 24.7959ZM11.6217 22.1521C11.6217 22.6455 11.2218 23.0453 10.7286 23.0453C10.235 23.0453 9.83475 22.6455 9.83475 22.1521C9.83475 21.6583 10.235 21.2583 10.7286 21.2583C11.2218 21.2583 11.6217 21.6583 11.6217 22.1521ZM22.1292 22.1521C22.1292 22.6455 21.7288 23.0453 21.2363 23.0453C20.7425 23.0453 20.3423 22.6455 20.3423 22.1521C20.3423 21.6583 20.7425 21.2583 21.2363 21.2583C21.7288 21.2583 22.1292 21.6583 22.1292 22.1521ZM5.97484 22.6517C5.97484 22.7749 5.92589 22.8931 5.83876 22.9802C5.75162 23.0673 5.63344 23.1163 5.51021 23.1163C5.38699 23.1163 5.26881 23.0673 5.18167 22.9802C5.09454 22.8931 5.04558 22.7749 5.04558 22.6517C5.0456 22.5907 5.05764 22.5303 5.08101 22.4739C5.10439 22.4176 5.13863 22.3664 5.1818 22.3233C5.22497 22.2802 5.2762 22.246 5.33258 22.2227C5.38896 22.1994 5.44938 22.1875 5.51038 22.1875C5.57136 22.1875 5.63174 22.1995 5.68809 22.2228C5.74443 22.2461 5.79563 22.2803 5.83876 22.3234C5.8819 22.3665 5.91611 22.4177 5.93946 22.474C5.96281 22.5303 5.97483 22.5907 5.97484 22.6517ZM26.9899 22.6517C26.9899 22.7749 26.9409 22.8931 26.8538 22.9802C26.7667 23.0673 26.6485 23.1163 26.5253 23.1163C26.402 23.1163 26.2838 23.0673 26.1967 22.9802C26.1096 22.8931 26.0606 22.7749 26.0606 22.6517C26.0606 22.5907 26.0726 22.5302 26.096 22.4739C26.1194 22.4175 26.1536 22.3663 26.1968 22.3232C26.24 22.2801 26.2912 22.246 26.3476 22.2227C26.404 22.1994 26.4644 22.1874 26.5254 22.1875C26.7815 22.1875 26.9899 22.3952 26.9899 22.6517ZM16.4824 27.9413C16.4824 28.198 16.274 28.4063 16.0179 28.4063C15.8946 28.4062 15.7764 28.3572 15.6893 28.27C15.6021 28.1828 15.5532 28.0646 15.5532 27.9413C15.5532 27.8803 15.5652 27.8199 15.5886 27.7635C15.6119 27.7072 15.6462 27.656 15.6893 27.6128C15.7325 27.5697 15.7837 27.5355 15.8401 27.5122C15.8965 27.4889 15.9569 27.4769 16.0179 27.477C16.1411 27.477 16.2592 27.5259 16.3463 27.613C16.4334 27.7001 16.4823 27.8182 16.4824 27.9413ZM11.1929 25.2969C11.1928 25.4201 11.1438 25.5383 11.0567 25.6254C10.9695 25.7125 10.8513 25.7615 10.7281 25.7615C10.6049 25.7614 10.4868 25.7124 10.3997 25.6253C10.3127 25.5382 10.2637 25.4201 10.2636 25.2969C10.2636 25.2359 10.2756 25.1755 10.299 25.1191C10.3223 25.0627 10.3565 25.0115 10.3996 24.9684C10.4428 24.9252 10.494 24.891 10.5503 24.8677C10.6067 24.8443 10.6671 24.8323 10.7281 24.8323C10.7891 24.8323 10.8496 24.8443 10.906 24.8676C10.9624 24.8909 11.0136 24.9251 11.0568 24.9683C11.0999 25.0114 11.1342 25.0627 11.1575 25.119C11.1809 25.1754 11.1929 25.2359 11.1929 25.2969ZM21.7004 25.2969C21.7004 25.5532 21.492 25.7615 21.236 25.7615C21.1749 25.7615 21.1145 25.7495 21.0581 25.7262C21.0017 25.7029 20.9504 25.6687 20.9073 25.6255C20.8641 25.5824 20.8299 25.5311 20.8065 25.4748C20.7832 25.4184 20.7711 25.3579 20.7712 25.2969C20.7711 25.2358 20.7831 25.1754 20.8064 25.119C20.8297 25.0625 20.864 25.0113 20.9071 24.9681C20.9503 24.925 21.0016 24.8908 21.058 24.8674C21.1144 24.8441 21.1749 24.8322 21.236 24.8323C21.297 24.8323 21.3574 24.8443 21.4137 24.8677C21.4701 24.891 21.5213 24.9253 21.5644 24.9684C21.6075 25.0115 21.6417 25.0628 21.6651 25.1191C21.6884 25.1755 21.7004 25.2359 21.7004 25.2969ZM17.769 5.31836C17.769 6.30548 16.9688 7.10527 15.9825 7.10527C14.9952 7.10527 14.195 6.30548 14.195 5.31836C14.195 4.33138 14.9952 3.53125 15.9825 3.53125C16.9688 3.53125 17.769 4.33138 17.769 5.31829V5.31836ZM17.769 10.6078C17.769 11.5947 16.9688 12.3947 15.9825 12.3947C14.9952 12.3947 14.195 11.5947 14.195 10.6078C14.195 9.62104 14.9952 8.82078 15.9825 8.82078C16.9688 8.82078 17.769 9.62104 17.769 10.6078ZM17.769 15.8261C17.769 16.8127 16.9688 17.6128 15.9825 17.6128C14.9952 17.6128 14.195 16.8127 14.195 15.8261C14.195 14.8389 14.9952 14.0388 15.9825 14.0388C16.9688 14.0388 17.769 14.8389 17.769 15.8261ZM28.2766 10.6078C28.2766 11.5947 27.4764 12.3947 26.4897 12.3947C25.5026 12.3947 24.7026 11.5947 24.7026 10.6078C24.7026 9.62104 25.5026 8.82078 26.4897 8.82078C27.4765 8.82078 28.2766 9.62104 28.2766 10.6078ZM7.26146 10.6078C7.26146 11.5947 6.46159 12.3947 5.47468 12.3947C4.48763 12.3947 3.6875 11.5947 3.6875 10.6078C3.6875 9.62104 4.4877 8.82078 5.47461 8.82078C6.46159 8.82078 7.26146 9.62104 7.26146 10.6078ZM12.551 7.96299C12.551 8.94984 11.7511 9.74997 10.764 9.74997C9.77696 9.74997 8.97703 8.94984 8.97703 7.96299C8.97703 6.97547 9.77696 6.17601 10.764 6.17601C11.751 6.17601 12.551 6.97547 12.551 7.96299ZM12.551 13.1808C12.551 14.1678 11.7511 14.968 10.764 14.968C9.77696 14.968 8.97703 14.1678 8.97703 13.1808C8.97703 12.1942 9.77696 11.394 10.764 11.394C11.751 11.394 12.551 12.1942 12.551 13.1808ZM23.0585 7.96299C23.0585 8.94984 22.2584 9.74997 21.2714 9.74997C20.2844 9.74997 19.4845 8.94984 19.4845 7.96299C19.4845 6.97547 20.2844 6.17601 21.2714 6.17601C22.2584 6.17601 23.0585 6.97547 23.0585 7.96299ZM23.0585 13.1808C23.0585 14.1678 22.2584 14.968 21.2714 14.968C20.2844 14.968 19.4845 14.1678 19.4845 13.1808C19.4845 12.1942 20.2844 11.394 21.2714 11.394C22.2584 11.394 23.0585 12.1942 23.0585 13.1808Z" fill="white"/>
</svg>
