<svg width="32" height="32" viewBox="0 0 32 32" fill="none" xmlns="http://www.w3.org/2000/svg">
    <path fill-rule="evenodd" clip-rule="evenodd" d="M15.9998 0C24.8365 0 32 7.16347 32 15.9998C32 24.8365 24.8365 32 15.9998 32C7.16308 32 0 24.8361 0 15.9994C0 7.16269 7.16347 0 15.9998 0Z" fill="#1A82FF"/>
    <path fill-rule="evenodd" clip-rule="evenodd" d="M20.5108 14.0717C20.6284 14.6594 20.6896 15.3035 20.6896 15.9998C20.6896 19.7478 18.9316 21.9852 15.987 21.9852C14.7591 21.9852 13.7229 21.592 12.9408 20.8424L23.1924 10.5774C22.918 10.0905 22.6047 9.63532 22.2523 9.21896C22.1041 9.0445 21.9484 8.88102 21.7896 8.72224L21.7904 8.72107C21.7693 8.70029 21.7473 8.68069 21.7265 8.65991C21.6795 8.61365 21.6332 8.56542 21.5854 8.52073L21.5826 8.52308C20.0948 7.13289 18.1809 6.40015 15.9874 6.40015C13.4524 6.40015 11.2906 7.37478 9.73542 9.21975C8.27269 10.9542 7.46704 13.3621 7.46704 15.9998C7.46704 17.753 7.82459 19.4028 8.49224 20.822L11.4671 17.8436C11.3636 17.2791 11.311 16.6643 11.311 15.9998C11.311 14.2748 11.6615 12.8803 12.3531 11.8543C13.1642 10.6507 14.4207 10.0144 15.9874 10.0144C17.2066 10.0144 18.222 10.3994 18.9936 11.1161L8.76314 21.3599C9.04463 21.8711 9.36925 22.3466 9.73503 22.7806C9.80834 22.8673 9.884 22.9504 9.95967 23.0331L9.96202 23.0355C10.0494 23.1311 10.1392 23.2237 10.2306 23.3142L10.2647 23.3487C10.2941 23.3773 10.3219 23.4079 10.3509 23.4358L10.3548 23.433C11.8442 24.8514 13.7719 25.5998 15.987 25.5998C18.5235 25.5998 20.6896 24.6252 22.2519 22.7806C23.7228 21.0439 24.5336 18.6355 24.5336 15.9998C24.5336 14.2199 24.1627 12.5451 23.4696 11.1094L20.5108 14.0717Z" fill="white"/>
</svg>
