<svg width="32" height="32" viewBox="0 0 32 32" fill="none" xmlns="http://www.w3.org/2000/svg">
  <path d="M16.0614 31.918C24.8591 31.8885 31.9671 24.7327 31.9376 15.935C31.9081 7.13733 24.7523 0.0293108 15.9547 0.0587919C7.15699 0.0882726 0.0489794 7.24408 0.0784605 16.0418C0.107941 24.8394 7.26375 31.9475 16.0614 31.918Z" fill="#1E313F" />
  <path opacity="0.2" d="M25.9637 25.8778C31.4249 20.3775 31.3975 11.4934 25.8972 6.03228C20.397 0.571153 11.5129 0.598537 6.05176 6.09878L25.9637 25.8778Z" fill="white" />
  <path d="M24.6182 11.243L22.8069 9.41614L21.8211 10.4176C21.8172 10.4137 21.8133 10.4098 21.8094 10.4059L21.0074 11.2157L16.0744 16.2152L12.9526 13.0504C12.3072 13.7232 11.8808 14.6073 11.7869 15.5853L16.0744 19.9315L20.9253 15.0142C20.9878 15.3271 21.0191 15.6518 21.0191 15.9844C21.0191 18.7462 18.7698 20.9956 16.0079 20.9956C13.246 20.9956 10.9966 18.7462 10.9966 15.9844C10.9966 13.2225 13.246 10.9731 16.0079 10.9731C17.1424 10.9731 18.1908 11.3526 19.0319 11.9902L21.1795 9.81125C19.779 8.63765 17.9756 7.92567 16.0079 7.92567C11.5678 7.92567 7.95312 11.5403 7.95312 15.9804C7.95312 20.4245 11.5678 24.0352 16.0079 24.0352C20.448 24.0352 24.0627 20.4205 24.0627 15.9804C24.0627 14.7599 23.7888 13.6059 23.3037 12.5692L24.6182 11.243Z" fill="white" />
  <path d="M16.0744 19.9315L11.7908 15.5853C11.8847 14.6034 12.3111 13.7232 12.9565 13.0504L16.0783 16.2152V19.9315H16.0744Z" fill="url(#paint0_linear_1824_17)" />
  <defs>
    <linearGradient id="paint0_linear_1824_17" x1="10.7155" y1="13.0845" x2="14.5521" y2="16.5256" gradientUnits="userSpaceOnUse">
      <stop stop-color="#1D313F" />
      <stop offset="1" stop-color="white" />
    </linearGradient>
  </defs>
</svg>
