<svg width="32" height="32" viewBox="0 0 32 32" fill="none" xmlns="http://www.w3.org/2000/svg">
    <path d="M16 0C7.17419 0 0 7.17419 0 16C0 24.8258 7.17419 32 16 32C24.8258 32 32 24.8258 32 16C32 7.17419 24.8258 0 16 0Z" fill="#101010"/>
    <path d="M13.6775 19.8193V14.4258L15.6388 19.8193H16.9033L18.8646 14.4258V19.8193H20.2066V12.1806H18.4001L16.284 18.0129L14.1937 12.1806H12.3872V19.8193H13.6775Z" fill="white"/>
    <path d="M7.5613 13.3677C6.06452 13.3677 5.1871 14.5032 5.1871 16.0258C5.1871 17.5484 6.09033 18.6581 7.5613 18.6581C9.05807 18.6581 9.93549 17.5484 9.93549 16.0258C9.9613 14.5032 9.05807 13.3677 7.5613 13.3677ZM7.5613 12C9.90969 12 11.3807 13.7548 11.3807 16C11.3807 18.2452 9.90969 20 7.5613 20C5.21291 20 3.74194 18.2452 3.74194 16C3.74194 13.7548 5.21291 12 7.5613 12Z" fill="white"/>
    <path d="M24.6967 20C25.9612 20 26.658 19.4323 26.9419 18.9419V19.8194H28.258V15.7161H24.6967V17.0323H26.8902C26.7612 18.1419 25.9612 18.6581 24.9289 18.6581C23.458 18.6581 22.6322 17.5742 22.6322 16C22.6322 14.529 23.3548 13.3161 24.9031 13.3161C25.9096 13.3161 26.7354 13.8323 26.8128 14.7097H28.258C28.0515 12.9548 26.7354 12 24.9289 12C22.3741 12 21.187 13.9613 21.187 16.0516C21.2128 18.2968 22.5806 20 24.6967 20Z" fill="white"/>
</svg>
