<svg width="32" height="32" viewBox="0 0 32 32" fill="none" xmlns="http://www.w3.org/2000/svg">
    <path d="M16 32C24.8366 32 32 24.8366 32 16C32 7.16344 24.8366 0 16 0C7.16344 0 0 7.16344 0 16C0 24.8366 7.16344 32 16 32Z" fill="#ED1B6C"/>
    <path d="M15.9999 31.36C24.483 31.36 31.3599 24.4831 31.3599 16C31.3599 7.5169 24.483 0.639999 15.9999 0.639999C7.5168 0.639999 0.639893 7.5169 0.639893 16C0.639893 24.4831 7.5168 31.36 15.9999 31.36Z" fill="#1C2230"/>
    <path d="M19.7254 18.8903C20.1988 19.1902 20.4355 19.3702 20.706 19.5202C22.329 20.4799 24.0872 20.5699 25.2368 19.6102C25.7733 19.173 26.1409 18.5628 26.2767 17.8842C26.4124 17.2056 26.3077 16.5009 25.9807 15.891C25.7107 15.1424 25.1883 14.5113 24.5033 14.1062C23.8183 13.7011 23.0136 13.5474 22.2275 13.6715C21.4013 13.8165 20.6496 14.2399 20.0973 14.8712C19.0153 16.2509 18.6434 18.0205 16.8513 18.9502C16.6147 19.0702 16.6823 19.7601 16.6823 20.18C16.7161 23.1793 14.2478 25.4887 10.6975 25.7886C7.89108 26.0286 3.69834 24.0191 3.73214 21.2297C5.17047 21.9557 6.67674 22.5383 8.22919 22.9693C9.63752 23.2193 11.0848 23.1371 12.4557 22.7294C13.1818 22.5617 13.8208 22.1328 14.2511 21.5244C14.6813 20.916 14.8727 20.1706 14.7888 19.4301C14.5859 18.2904 14.0787 17.9905 11.4752 17.6006C11.3061 16.9407 11.1371 16.2209 10.968 15.4111C11.2385 15.3811 11.4413 15.3211 11.6442 15.3211C12.8277 15.2311 14.1125 15.2011 14.214 13.7315C14.2075 13.3994 14.1345 13.0721 13.9992 12.7688C13.8639 12.4655 13.669 12.1925 13.4262 11.9659C13.1834 11.7394 12.8976 11.5638 12.5857 11.4498C12.2738 11.3358 11.9421 11.2855 11.6104 11.302C10.1155 11.5787 8.65363 12.0109 7.24865 12.5917C6.94433 12.1718 6.43713 11.482 5.96375 10.7921C6.96888 9.74454 8.30369 9.07443 9.74428 8.89422C11.1849 8.71401 12.6436 9.03466 13.8758 9.80238C16.1413 11.2421 16.3442 13.5515 14.3492 16.2509C14.924 16.7308 15.4989 17.2106 16.3103 17.9005C16.5808 17.1807 16.7161 16.6708 16.9189 16.1909C17.1404 15.4674 17.4469 14.7727 17.8319 14.1214C18.3105 13.2795 19.0195 12.5918 19.8755 12.1391C20.7315 11.6864 21.699 11.4875 22.6641 11.5658C23.6293 11.644 24.5521 11.9963 25.324 12.581C26.0958 13.1658 26.6847 13.9587 27.0214 14.8667C27.3982 15.6591 27.5937 16.5255 27.5937 17.4029C27.5937 18.2804 27.3982 19.1468 27.0214 19.9392C26.6055 20.6583 26.0037 21.2523 25.2793 21.6588C24.5548 22.0653 23.7343 22.2693 22.9038 22.2495C22.0391 22.2188 21.2212 21.8494 20.6266 21.2209C20.0319 20.5924 19.7082 19.7553 19.7254 18.8903V18.8903Z" fill="white"/>
    <path d="M13.2 7.403C14.4685 8.27823 15.9745 8.74445 17.5157 8.73909C19.0569 8.73373 20.5596 8.25704 21.8221 7.373C22.3293 8.09281 22.7689 8.69268 23.2084 9.29255C19.9286 11.572 14.5863 10.4023 13.2 7.403Z" fill="white"/>
    <path d="M15.4387 5.82418C15.9972 5.14162 16.4315 4.64524 16.959 4.02473C17.5795 4.67625 17.9828 5.11058 18.4792 5.66905C18.0138 6.19647 17.5795 6.66185 17.021 7.25132C16.4936 6.78599 16.0282 6.35161 15.4387 5.82418Z" fill="#EB1A6B"/>
</svg>
