<svg width="32" height="32" viewBox="0 0 32 32" fill="none" xmlns="http://www.w3.org/2000/svg">
    <path d="M16 32C24.8366 32 32 24.8366 32 16C32 7.16344 24.8366 0 16 0C7.16344 0 0 7.16344 0 16C0 24.8366 7.16344 32 16 32Z" fill="white"/>
    <path d="M21.4066 6.51515C19.1449 6.51515 17.3093 8.343 17.3055 10.6048V15.136C16.8831 15.1628 16.453 15.182 16.0037 15.182C15.5545 15.182 15.1244 15.2012 14.702 15.2243V10.6048C14.6636 8.36604 12.8396 6.56891 10.6009 6.56891C8.36213 6.56891 6.53432 8.36604 6.49976 10.6048V21.4374C6.53432 23.6761 8.35829 25.4732 10.6009 25.4732C12.8434 25.4732 14.6674 23.6761 14.702 21.4374V16.9062C15.1244 16.8793 15.5545 16.8601 16.0037 16.8601C16.453 16.8601 16.8831 16.8409 17.3055 16.8179V21.4412C17.3401 23.68 19.1679 25.4771 21.4066 25.4771C23.6453 25.4771 25.4732 23.68 25.5077 21.4412V10.6048C25.5001 8.343 23.6684 6.51515 21.4066 6.51515ZM10.6009 8.19324C11.9333 8.19324 13.0162 9.27228 13.0201 10.6048V15.4048C11.822 15.5776 10.6469 15.9116 9.53333 16.3916C9.04949 16.6028 8.59637 16.8755 8.18165 17.198V10.6048C8.18549 9.27228 9.26837 8.19324 10.6009 8.19324ZM13.0201 21.4374C13.0201 22.7737 11.9372 23.8566 10.6009 23.8566C9.26453 23.8566 8.18165 22.7737 8.18165 21.4374V20.3507C8.18165 19.3907 8.94197 18.4806 10.2169 17.9161C11.1154 17.5283 12.0562 17.2518 13.0239 17.0944V21.4374H13.0201ZM21.4066 23.8489C20.0741 23.8489 18.9913 22.7699 18.9874 21.4374V16.6374C20.1855 16.4646 21.3605 16.1305 22.4741 15.6505C22.958 15.4393 23.4111 15.1667 23.8258 14.8441V21.4374C23.8181 22.7699 22.7391 23.8489 21.4066 23.8489ZM21.7906 14.1184C20.8921 14.5062 19.9513 14.7827 18.9836 14.9401V10.6048C18.9836 9.26844 20.0665 8.18556 21.4028 8.18556C22.7391 8.18556 23.822 9.26844 23.822 10.6048V11.6915C23.8258 12.6476 23.0655 13.5577 21.7906 14.1184Z" fill="url(#paint0_linear)"/>
    <defs>
        <linearGradient id="paint0_linear" x1="7.69891" y1="24.3251" x2="24.2613" y2="7.67218" gradientUnits="userSpaceOnUse">
            <stop stop-color="#00AEE9"/>
            <stop offset="1" stop-color="#69FABD"/>
        </linearGradient>
    </defs>
</svg>
