<svg width="32" height="32" viewBox="0 0 32 32" fill="none" xmlns="http://www.w3.org/2000/svg">
    <path d="M32 16C32 24.8366 24.8366 32 16 32C7.16344 32 0 24.8366 0 16C0 7.16344 7.16344 0 16 0C24.8366 0 32 7.16344 32 16Z" fill="white"/>
    <path fill-rule="evenodd" clip-rule="evenodd" d="M16.0023 7C14.9736 7 13.9548 7.20142 13.0052 7.59293C12.2708 7.89573 11.5888 8.30764 10.9829 8.81345L9.35725 7.20444C9.15854 7.00777 8.8611 6.94979 8.60307 7.05744C8.34504 7.1651 8.177 7.41729 8.177 7.69687V14.7903C8.177 14.8219 8.17912 14.853 8.18322 14.8835C8.20423 16.9147 9.02701 18.8577 10.4764 20.3007C11.1995 21.0237 12.061 21.5973 13.0103 21.9887C13.9598 22.3801 14.9785 22.5816 16.0073 22.5816C17.0361 22.5816 18.0549 22.3801 19.0043 21.9887C19.7405 21.6852 20.4237 21.2722 21.0306 20.7649L22.6499 22.3756C22.8483 22.5732 23.1461 22.6319 23.4046 22.5245C23.6631 22.4171 23.8316 22.1646 23.8316 21.8847V14.7903C23.8316 14.7536 23.8288 14.7176 23.8233 14.6824C23.7994 12.6573 22.9781 10.7206 21.5333 9.28096C20.8102 8.55793 19.9487 7.98429 18.9994 7.59292C18.0499 7.20142 17.0311 7 16.0023 7ZM10.4263 10.2122C10.4407 10.2297 10.456 10.2465 10.4722 10.2626L15.8566 15.6184L20.0409 19.7844C19.5682 20.1633 19.0415 20.4746 18.4762 20.7076C17.6947 21.0298 16.8553 21.1959 16.0073 21.1959C15.1593 21.1959 14.32 21.0298 13.5384 20.7076C12.7569 20.3854 12.0489 19.9136 11.4557 19.3203L11.4545 19.3192C10.2419 18.1121 9.56528 16.4844 9.56852 14.7916C9.56858 14.761 9.56662 14.7307 9.56271 14.7007V9.3575L10.4263 10.2122ZM16.1904 13.9954L22.4459 20.217V14.8942C22.4407 14.8595 22.438 14.8242 22.4381 14.7886C22.4422 13.0965 21.7665 11.4693 20.5549 10.2622L20.554 10.2613C19.9607 9.66796 19.2528 9.19624 18.4712 8.87404C17.6897 8.55179 16.8504 8.3857 16.0023 8.3857C15.1543 8.3857 14.315 8.55177 13.5334 8.87403C12.9693 9.1066 12.4435 9.4171 11.9715 9.79498L16.1904 13.9954Z" fill="#48A3FF"/>
    <path fill-rule="evenodd" clip-rule="evenodd" d="M8.87571 20.2736C9.25836 20.2736 9.56856 20.5838 9.56856 20.9664V23.6373C9.56856 24.02 9.25836 24.3302 8.87571 24.3302C8.49306 24.3302 8.18286 24.02 8.18286 23.6373V20.9664C8.18286 20.5838 8.49306 20.2736 8.87571 20.2736Z" fill="#48A3FF"/>
    <path fill-rule="evenodd" clip-rule="evenodd" d="M16.0346 22.9444C16.4173 22.9444 16.7275 23.2546 16.7275 23.6372V26.3071C16.7275 26.6898 16.4173 27 16.0346 27C15.652 27 15.3418 26.6898 15.3418 26.3071V23.6372C15.3418 23.2546 15.652 22.9444 16.0346 22.9444Z" fill="#48A3FF"/>
    <path fill-rule="evenodd" clip-rule="evenodd" d="M23.1931 22.741C23.5757 22.741 23.8859 23.0512 23.8859 23.4339V25.2164C23.8859 25.599 23.5757 25.9092 23.1931 25.9092C22.8104 25.9092 22.5002 25.599 22.5002 25.2164V23.4339C22.5002 23.0512 22.8104 22.741 23.1931 22.741Z" fill="#48A3FF"/>
</svg>
