<svg width="32" height="32" viewBox="0 0 32 32" fill="none" xmlns="http://www.w3.org/2000/svg">
    <path d="M32 16C32 24.8366 24.8366 32 16 32C7.16344 32 0 24.8366 0 16C0 7.16344 7.16344 0 16 0C24.8366 0 32 7.16344 32 16Z" fill="white"/>
    <path d="M8.83202 9.25866L6.03735 6.46399V16C6.03735 18.4427 6.96535 20.8853 8.83202 22.7413C12.5547 26.464 18.6027 26.464 22.3253 22.7413L8.83202 9.25866Z" fill="#48A3FF"/>
    <path d="M23.1679 22.7413L25.9626 25.536V16C25.9626 13.5573 25.0346 11.1147 23.1679 9.25866C19.4452 5.53599 13.3972 5.53599 9.67456 9.25866L23.1679 22.7413Z" fill="#48A3FF"/>
</svg>
