<svg width="32" height="32" viewBox="0 0 32 32" fill="none" xmlns="http://www.w3.org/2000/svg">
    <g clip-path="url(#clip0_1078_761)">
        <path d="M16 32C19.1645 32 22.2579 31.0616 24.8891 29.3035C27.5203 27.5454 29.5711 25.0466 30.7821 22.1229C31.9931 19.1993 32.3099 15.9823 31.6926 12.8786C31.0752 9.77487 29.5513 6.92394 27.3137 4.6863C25.0761 2.44866 22.2251 0.924806 19.1214 0.307443C16.0177 -0.309921 12.8007 0.0069325 9.87706 1.21793C6.95345 2.42894 4.45459 4.4797 2.69649 7.11088C0.938384 9.74207 0 12.8355 0 16C0 20.2435 1.68571 24.3131 4.68629 27.3137C7.68687 30.3143 11.7565 32 16 32Z" fill="#4729FF"/>
        <path d="M27.2838 14.2743C27.1805 13.6678 27.0234 13.0716 26.8145 12.493C26.608 11.9108 26.3627 11.3432 26.08 10.794C25.7784 10.2378 25.4372 9.7041 25.059 9.19696C24.7242 8.75346 24.3561 8.33601 23.9581 7.9482L23.7539 7.74401L23.6724 7.66172C23.1807 7.21263 22.6552 6.80202 22.1005 6.43353C21.5515 6.08656 20.9786 5.77874 20.3863 5.51238C19.7987 5.25875 19.1915 5.05337 18.5706 4.89829C17.9631 4.73641 17.3412 4.6336 16.7139 4.59129C14.4684 4.43138 12.2255 4.93703 10.2659 6.045C9.93979 6.22862 9.61288 6.45415 9.28688 6.67967C0.32761 14.0282 5.22589 26.352 14.8571 27.3554C16.4574 27.533 18.0771 27.3672 19.6081 26.8692C21.1392 26.3712 22.5465 25.5524 23.7361 24.4674C24.9257 23.3825 25.8702 22.0563 26.5067 20.5774C27.1432 19.0985 27.4569 17.5008 27.427 15.8911C27.4088 15.3499 27.361 14.8102 27.2838 14.2743V14.2743ZM21.7539 17.5703C21.5673 18.3969 21.2114 19.1759 20.7087 19.8581C20.206 20.5403 19.5673 21.1109 18.8331 21.534C18.0988 21.9571 17.2848 22.2234 16.4425 22.3162C15.6002 22.409 14.7478 22.3262 13.939 22.0731C12.4644 21.6325 11.2029 20.6656 10.3942 19.3561C9.58543 18.0467 9.28575 16.4858 9.55203 14.9699C9.61169 14.6642 9.69342 14.3632 9.7966 14.0693C10.3582 12.6551 11.4082 11.4891 12.7562 10.783C14.1041 10.0769 15.6605 9.87751 17.1428 10.221C17.9356 10.3869 18.6868 10.711 19.3515 11.174C20.0161 11.6369 20.5805 12.2291 21.011 12.9153C21.4415 13.6014 21.7291 14.3673 21.8568 15.1671C21.9844 15.967 21.9494 16.7843 21.7538 17.5703L21.7539 17.5703ZM17.2244 24.285C19.1261 23.9154 20.837 22.8881 22.0569 21.3832C23.2769 19.8783 23.9281 17.9919 23.8964 16.0549C24.1735 17.098 24.2166 18.1896 24.0226 19.2513C23.8286 20.3131 23.4022 21.3188 22.7741 22.1966C21.8246 23.5574 20.4923 24.6055 18.9463 25.208C17.4002 25.8105 15.71 25.9401 14.0901 25.5804C12.4702 25.2208 10.9937 24.3881 9.84785 23.1879C8.70199 21.9878 7.93844 20.4743 7.65408 18.8396C7.5943 18.4801 7.55361 18.1177 7.53218 17.7539C7.85453 19.0862 8.49122 20.3219 9.38898 21.3577C10.3574 22.4475 11.5776 23.2839 12.9433 23.7941C14.309 24.3043 15.7787 24.4728 17.2244 24.285H17.2244ZM25.7737 19.0232C26.0141 17.3776 25.8479 15.6981 25.2894 14.1315C24.7309 12.5649 23.7972 11.159 22.5699 10.0366C22.3368 9.80618 22.0989 9.58091 21.856 9.36077C20.6444 8.34319 19.1993 7.6422 17.6501 7.32067C16.101 6.99913 14.4962 7.0671 12.9798 7.51848C11.2341 8.04147 9.6656 9.03411 8.44571 10.388C7.22581 11.7418 6.40138 13.4049 6.06246 15.1955C6.10784 13.8685 6.41503 12.5635 6.96638 11.3556C7.51774 10.1478 8.30238 9.06074 9.2752 8.15709C10.248 7.25344 11.3899 6.55096 12.6351 6.09003C13.8803 5.62911 15.2043 5.41883 16.531 5.47128C17.1095 5.51688 17.6828 5.61299 18.2445 5.75852C18.8089 5.89951 19.3614 6.0842 19.8971 6.3109C21.0347 6.80123 22.0775 7.48717 22.9783 8.33757C23.1619 8.50138 23.3249 8.68576 23.4887 8.84957C23.735 9.09642 23.96 9.36352 24.1615 9.64805C24.5121 10.0997 24.826 10.5787 25.1002 11.0804C25.3623 11.5819 25.5874 12.1019 25.7737 12.6362C25.957 13.1639 26.1004 13.7046 26.2027 14.2538C26.3907 15.8562 26.2446 17.4801 25.7737 19.0232V19.0232Z" fill="white"/>
    </g>
    <defs>
        <clipPath id="clip0_1078_761">
            <rect width="32" height="32" fill="white"/>
        </clipPath>
    </defs>
</svg>
