<svg width="32" height="32" viewBox="0 0 32 32" fill="none" xmlns="http://www.w3.org/2000/svg">
<path d="M16 32C24.8366 32 32 24.8366 32 16C32 7.16344 24.8366 0 16 0C7.16344 0 0 7.16344 0 16C0 24.8366 7.16344 32 16 32Z" fill="#FF0420"/>
<path d="M11.3366 20.2525C10.3839 20.2525 9.60336 20.0283 8.99491 19.58C8.39446 19.1237 8.09424 18.4753 8.09424 17.6346C8.09424 17.4585 8.11427 17.2423 8.15427 16.9861C8.2584 16.4097 8.40649 15.7172 8.59862 14.9086C9.14301 12.707 10.5481 11.6062 12.8137 11.6062C13.4302 11.6062 13.9826 11.7103 14.4709 11.9184C14.9593 12.1185 15.3436 12.4228 15.6238 12.8311C15.904 13.2314 16.0441 13.7117 16.0441 14.2721C16.0441 14.4402 16.0241 14.6524 15.984 14.9086C15.864 15.6211 15.7198 16.3137 15.5517 16.9861C15.2715 18.0829 14.7872 18.9035 14.0987 19.4479C13.4101 19.9843 12.4895 20.2525 11.3366 20.2525ZM11.5047 18.5233C11.9531 18.5233 12.3333 18.3912 12.6456 18.127C12.9659 17.8628 13.194 17.4585 13.3301 16.9141C13.5142 16.1615 13.6544 15.505 13.7504 14.9446C13.7824 14.7765 13.7984 14.6044 13.7984 14.4282C13.7984 13.6997 13.4181 13.3354 12.6576 13.3354C12.2092 13.3354 11.825 13.4675 11.5047 13.7317C11.1925 13.996 10.9684 14.4002 10.8323 14.9446C10.6882 15.481 10.544 16.1375 10.4 16.9141C10.3679 17.0742 10.3519 17.2423 10.3519 17.4184C10.3519 18.155 10.7362 18.5233 11.5047 18.5233Z" fill="white"/>
<path d="M16.5954 20.1325C16.5074 20.1325 16.4393 20.1044 16.3913 20.0484C16.3512 19.9843 16.3393 19.9123 16.3553 19.8322L18.0125 12.0265C18.0285 11.9384 18.0725 11.8664 18.1446 11.8103C18.2166 11.7543 18.2927 11.7263 18.3727 11.7263H21.5671C22.4557 11.7263 23.1682 11.9104 23.7046 12.2786C24.2491 12.647 24.5213 13.1793 24.5213 13.8758C24.5213 14.076 24.4973 14.2841 24.4492 14.5003C24.2491 15.421 23.8448 16.1015 23.2363 16.5418C22.6359 16.9821 21.8112 17.2023 20.7625 17.2023H19.1413L18.5889 19.8322C18.5728 19.9203 18.5288 19.9923 18.4568 20.0484C18.3848 20.1044 18.3087 20.1325 18.2287 20.1325H16.5954ZM20.8466 15.5451C21.1828 15.5451 21.475 15.453 21.7232 15.2688C21.9794 15.0847 22.1475 14.8205 22.2276 14.4763C22.2516 14.3401 22.2636 14.2201 22.2636 14.116C22.2636 13.8838 22.1956 13.7077 22.0594 13.5876C21.9233 13.4595 21.6912 13.3955 21.3629 13.3955H19.9218L19.4655 15.5451H20.8466Z" fill="white"/>
</svg>
