<svg width="32" height="32" viewBox="0 0 32 32" fill="none" xmlns="http://www.w3.org/2000/svg">
    <g clip-path="url(#clip0)">
        <path d="M16.0002 32C24.8368 32 32.0002 24.8365 32.0002 16C32.0002 7.16347 24.8368 0 16.0002 0C7.16368 0 0.000244141 7.16347 0.000244141 16C0.000244141 24.8365 7.16368 32 16.0002 32Z" fill="white"/>
        <path d="M24.7146 14.9561C24.7356 14.9293 24.7626 14.908 24.7933 14.8938C24.8241 14.8796 24.8577 14.8729 24.8915 14.8744L24.9105 14.8679C24.9456 14.8405 24.9819 14.8143 25.0187 14.7889C24.6633 12.9587 23.7762 11.2775 22.4709 9.96067C18.8365 6.2842 12.9491 6.36595 9.31675 10.0424C5.68431 13.7189 6.04776 19.8433 9.68015 23.5197C13.3126 27.1962 18.8385 26.953 22.4709 23.2745C22.8817 22.8585 23.2532 22.4046 23.5807 21.9187C23.4615 21.6999 23.3588 21.4723 23.2733 21.2378C23.0429 20.5967 22.9367 19.9168 22.9603 19.2351C22.8986 18.7805 22.9218 18.3183 23.0286 17.8724C23.0355 17.8417 23.0493 17.813 23.069 17.7886C23.0735 17.7681 23.0775 17.7477 23.0827 17.7277C23.1191 17.5963 23.1719 17.4703 23.2398 17.3525C23.2754 17.2108 23.3241 17.0729 23.3852 16.9405C23.4594 16.6715 23.5613 16.4113 23.6893 16.1639C23.7203 16.1022 23.7547 16.038 23.7923 15.9726C23.801 15.9295 23.8241 15.8907 23.8577 15.8627C24.0721 15.5128 24.3657 15.1523 24.7146 14.9561ZM19.6821 20.4506C18.9329 21.2089 17.9783 21.7253 16.9391 21.9345C15.9 22.1437 14.8228 22.0364 13.8439 21.626C12.8651 21.2156 12.0284 20.5206 11.4397 19.6289C10.8511 18.7373 10.5369 17.689 10.5369 16.6166C10.5369 15.5442 10.8511 14.4959 11.4397 13.6042C12.0284 12.7125 12.8651 12.0175 13.8439 11.6071C14.8228 11.1968 15.9 11.0894 16.9391 11.2986C17.9783 11.5078 18.9329 12.0242 19.6821 12.7825C20.1796 13.286 20.5742 13.8837 20.8434 14.5416C21.1126 15.1995 21.2512 15.9045 21.2512 16.6166C21.2512 17.3286 21.1126 18.0337 20.8434 18.6915C20.5742 19.3494 20.1796 19.9471 19.6821 20.4506Z" fill="url(#paint0_linear)"/>
        <path d="M25.9028 11.8117C26.1432 11.6947 26.4044 11.6283 26.6708 11.6165C26.9372 11.6047 27.2032 11.6477 27.4528 11.7429C27.7023 11.8381 27.9302 11.9835 28.1226 12.1704C28.315 12.3573 28.4679 12.5817 28.5722 12.8301C28.6764 13.0785 28.7298 13.3458 28.7291 13.6157C28.7284 13.8856 28.6736 14.1525 28.568 14.4004C28.4625 14.6483 28.3084 14.8719 28.115 15.0577C27.9216 15.2435 27.693 15.3878 27.443 15.4817V15.4857C26.3937 15.9314 25.5118 16.7035 24.9248 17.6903C24.338 18.6771 24.0766 19.8273 24.1785 20.9745L20.2771 21.3015C20.0708 18.9023 20.7383 16.4258 22.3887 14.4349C23.3368 13.2895 24.5416 12.3901 25.9028 11.8117Z" fill="url(#paint1_linear)"/>
        <path d="M22.19 13.8259L22.1944 13.8198C22.1959 13.8179 22.1973 13.8158 22.1985 13.8137C22.4997 13.381 22.9585 13.0871 23.4738 12.9968C23.9891 12.9065 24.5188 13.0271 24.9463 13.332C25.3738 13.6369 25.6641 14.1012 25.7533 14.6228C25.8426 15.1444 25.7235 15.6805 25.4222 16.1131C24.8112 16.9433 24.6392 17.6487 24.602 18.1568C24.5617 18.7249 24.5827 18.7584 24.5463 19.6012C24.5184 20.2519 24.3319 20.8123 24.1731 21.1115C23.7051 21.9927 21.831 21.9747 20.6599 20.8405C20.5929 20.7077 20.5265 20.5693 20.4608 20.4252C20.3846 20.2579 20.3142 20.0944 20.2496 19.9347C20.2459 19.9217 20.2621 19.9927 20.2496 19.9347C20.2314 19.8485 20.2279 19.7597 20.2391 19.6723C20.2447 19.6118 20.2447 19.6118 20.2549 19.4491C20.2767 19.0923 20.2883 18.6951 20.4265 18.1003C20.4551 17.9729 20.4863 17.8343 20.5399 17.6324C20.6559 17.2007 20.7859 16.8317 20.947 16.3743C20.949 16.3739 21.5249 14.6434 22.19 13.8259Z" fill="url(#paint2_linear)"/>
        <path d="M7.25768 13.4346C6.93142 14.3178 6.73782 15.2456 6.68348 16.1869C6.67942 16.2985 6.67415 16.4097 6.66928 16.5221C6.61582 18.8409 7.40988 21.0981 8.89935 22.8607C10.3887 24.6235 12.4686 25.7677 14.7401 26.074C15.1843 26.0907 16.1592 26.1941 17.1135 26.0675C18.1949 25.924 19.2481 25.5435 19.4621 25.4695C19.6812 25.3795 19.8977 25.2809 20.1115 25.1736C20.5847 24.9132 21.289 24.4448 21.7215 24.1395C21.9016 24.0128 22.2025 23.7459 22.5453 23.3989C23.2012 22.7306 23.7569 21.9689 24.1949 21.1378C24.3137 20.8662 24.3651 20.5693 24.3447 20.2729C24.2713 19.3186 23.4034 18.4697 22.5146 18.4083C22.1541 18.3825 21.7936 18.4575 21.4724 18.6251C21.1512 18.7927 20.8817 19.0465 20.6933 19.3587C20.4786 19.6645 20.2411 19.9533 19.983 20.2227C19.7472 20.4679 18.6617 21.567 17.3743 21.9802C15.1383 22.6991 12.9262 21.1537 12.6366 20.9457C11.4781 20.293 7.25768 13.4346 7.25768 13.4346Z" fill="url(#paint3_linear)"/>
        <path d="M25.0912 10.4367C26.1198 10.4367 26.9536 9.5928 26.9536 8.55173C26.9536 7.5106 26.1198 6.66666 25.0912 6.66666C24.0626 6.66666 23.2288 7.5106 23.2288 8.55173C23.2288 9.5928 24.0626 10.4367 25.0912 10.4367Z" fill="url(#paint4_linear)"/>
        <path d="M20.2242 19.9027C20.219 19.9105 20.2222 19.8484 20.2117 19.8619C19.1933 21.2565 17.7415 21.742 17.5061 21.8172C17.435 21.8397 16.6778 22.0625 15.9275 22.0625C14.9301 22.0671 13.9511 21.7897 13.101 21.2617C12.2508 20.7335 11.5632 19.9757 11.1156 19.0735C10.668 18.1713 10.4781 17.1605 10.5675 16.1549C10.6567 15.1494 11.0217 14.1891 11.6211 13.3821C12.2205 12.5751 13.0305 11.9536 13.9601 11.5874C14.8897 11.2213 15.9018 11.125 16.8825 11.3096C17.8631 11.4942 18.7734 11.9522 19.5108 12.6321C20.2482 13.312 20.7834 14.1867 21.0561 15.1579C21.0613 15.1763 21.1619 15.6111 21.1995 15.6602C21.2399 15.5511 21.2665 15.4967 21.3133 15.3896C21.3602 15.2825 21.4171 15.1035 21.4793 15.005C21.4792 15.0041 21.4792 15.0031 21.4793 15.0021L21.5758 14.7847C21.5758 14.7847 21.5706 14.7745 21.5173 14.5481C21.4729 14.3617 21.4696 14.3404 21.4684 14.3347C20.8756 10.8197 17.8433 8.15107 14.204 8.16867C13.2406 8.1734 12.2875 8.37013 11.3993 8.7476C10.511 9.12513 9.70485 9.67607 9.02699 10.3689C8.34905 11.0618 7.81265 11.883 7.44832 12.7857C7.08399 13.6884 6.89892 14.6549 6.90365 15.6299C6.92419 20.0924 10.9145 23.0377 14.2739 23.0197C17.6127 23.0017 19.7784 20.4619 20.1099 20.054" fill="url(#paint5_linear)"/>
    </g>
    <defs>
        <linearGradient id="paint0_linear" x1="25.194" y1="16.6999" x2="6.76762" y2="16.6999" gradientUnits="userSpaceOnUse">
            <stop offset="0.09" stop-color="#6DC1D6"/>
            <stop offset="0.31" stop-color="#72C6D7"/>
            <stop offset="0.61" stop-color="#589AC5"/>
            <stop offset="1" stop-color="#3864AF"/>
        </linearGradient>
        <linearGradient id="paint1_linear" x1="23.971" y1="22.0338" x2="25.8124" y2="11.5461" gradientUnits="userSpaceOnUse">
            <stop offset="0.47" stop-color="#FFDF7F"/>
            <stop offset="0.57" stop-color="#FFBE6B"/>
            <stop offset="0.69" stop-color="#FF9E58"/>
            <stop offset="0.8" stop-color="#FF884A"/>
            <stop offset="0.91" stop-color="#FF7A42"/>
            <stop offset="1" stop-color="#FF753F"/>
        </linearGradient>
        <linearGradient id="paint2_linear" x1="26.2213" y1="16.9409" x2="21.5173" y2="17.9987" gradientUnits="userSpaceOnUse">
            <stop offset="0.01" stop-color="#E670A7"/>
            <stop offset="0.12" stop-color="#CB65A2"/>
            <stop offset="0.31" stop-color="#A2559B"/>
            <stop offset="0.5" stop-color="#824895"/>
            <stop offset="0.68" stop-color="#6C3F90"/>
            <stop offset="0.85" stop-color="#5E3A8E"/>
            <stop offset="1" stop-color="#59388D"/>
        </linearGradient>
        <linearGradient id="paint3_linear" x1="8.43688" y1="22.3721" x2="21.4964" y2="14.9226" gradientUnits="userSpaceOnUse">
            <stop stop-color="#15ADFF"/>
            <stop offset="0.06" stop-color="#40A3D4"/>
            <stop offset="0.13" stop-color="#6D99A7"/>
            <stop offset="0.21" stop-color="#949080"/>
            <stop offset="0.3" stop-color="#B5885F"/>
            <stop offset="0.38" stop-color="#D08244"/>
            <stop offset="0.48" stop-color="#E57D2F"/>
            <stop offset="0.59" stop-color="#F47A20"/>
            <stop offset="0.72" stop-color="#FC7818"/>
            <stop offset="0.92" stop-color="#FF7715"/>
        </linearGradient>
        <linearGradient id="paint4_linear" x1="24.0215" y1="10.0951" x2="26.1957" y2="7.033" gradientUnits="userSpaceOnUse">
            <stop stop-color="#55398D"/>
            <stop offset="1" stop-color="#C05B9D"/>
        </linearGradient>
        <linearGradient id="paint5_linear" x1="6.89919" y1="15.5938" x2="21.5724" y2="15.5933" gradientUnits="userSpaceOnUse">
            <stop stop-color="#A3D6D9"/>
            <stop offset="0.52" stop-color="#34A4DD"/>
            <stop offset="0.56" stop-color="#349DD8"/>
            <stop offset="0.74" stop-color="#367EC2"/>
            <stop offset="0.89" stop-color="#386BB4"/>
            <stop offset="1" stop-color="#3864AF"/>
        </linearGradient>
        <clipPath id="clip0">
            <rect width="32" height="32" fill="white"/>
        </clipPath>
    </defs>
</svg>
