<svg width="32" height="32" viewBox="0 0 32 32" fill="none" xmlns="http://www.w3.org/2000/svg">
<circle cx="16" cy="16" r="16" fill="#1B1552"/>
<path d="M24.8206 5.40146C26.3425 6.51885 27.1601 7.36 27.4001 8.44C27.5693 9.00815 27.4189 9.68995 27.0431 10.2013C26.6674 10.7126 26.1171 11.0831 25.4219 11.0831C25.1588 11.0831 25.0232 11.0757 24.7601 11C24.6633 11.2719 24.602 11.5462 24.5604 11.8154C25.5737 13.4203 26.1601 15.3217 26.1601 17.36C26.1601 23.1038 21.5039 27.76 15.7601 27.76C10.0163 27.76 5.36011 23.1038 5.36011 17.36C5.36011 11.6162 10.0163 6.96 15.7601 6.96C16.9831 6.96 18.1568 7.1711 19.2467 7.55884C19.3717 7.51759 19.5013 7.47393 19.6348 7.42789C19.522 7.25744 19.4281 7.06808 19.3529 6.91657C19.1462 6.42416 19.2214 5.60979 19.5408 5.00375C19.8039 4.4924 20.2172 4.15151 20.6869 4.05681C20.8749 4.01893 21.0627 4 21.2694 4C22.3028 4 23.5993 4.51134 24.8206 5.40146Z" fill="white"/>
<path d="M26.9496 8.4015C26.7148 7.4964 25.9602 6.59131 24.6018 5.58373C23.5117 4.7811 22.3545 4.32001 21.4322 4.32001C21.2477 4.32001 21.08 4.33708 20.9123 4.37124C20.4931 4.45663 20.1241 4.76402 19.8893 5.22511C19.6042 5.77159 19.5371 6.50592 19.7216 6.94994C19.7887 7.08656 19.8725 7.25731 19.9732 7.41101C19.0844 7.9575 18.5812 8.1112 18.5142 8.12829C20.8285 8.91381 22.7571 10.5533 23.9645 12.688L23.9813 12.483C24.0316 11.9195 24.1992 11.2705 24.434 10.6045C24.6688 10.6728 24.9036 10.707 25.1384 10.707C25.7589 10.707 26.2956 10.4508 26.631 9.9897C26.9664 9.5286 27.1006 8.91381 26.9496 8.4015Z" fill="#5E12A0"/>
<path d="M24.5345 10.1093C26.0606 10.5362 26.6811 9.34082 26.4798 8.53815C26.2618 7.73553 25.5575 6.9158 24.3165 5.99361C23.0755 5.07143 21.8177 4.69573 21.0127 4.8665C20.2077 5.03727 19.9729 6.28393 20.1742 6.7621C20.258 6.94995 20.4425 7.22317 20.6941 7.53056C20.3755 7.75256 20.0736 7.92335 19.822 8.07705C21.3649 8.77724 22.7065 9.87022 23.7128 11.2364C23.8301 10.7753 23.9979 10.3654 24.1488 10.0068C24.2661 10.0239 24.4003 10.058 24.5345 10.1093Z" fill="url(#paint0_radial_2122_893)"/>
<path d="M15.7972 26.8451C20.9747 26.8451 25.1718 22.5711 25.1718 17.2988C25.1718 12.0266 20.9747 7.75256 15.7972 7.75256C10.6198 7.75256 6.42261 12.0266 6.42261 17.2988C6.42261 22.5711 10.6198 26.8451 15.7972 26.8451Z" fill="url(#paint1_radial_2122_893)"/>
<path opacity="0.6" d="M25.7083 7.75252C24.4338 6.38631 23.3605 6.02769 22.0692 5.73737C21.063 5.49829 21.3313 4.91766 22.5555 5.0372C21.9686 4.83227 21.4151 4.78104 21.0127 4.86642C20.2077 5.0372 19.9729 6.28385 20.1742 6.76202C20.258 6.94987 20.4425 7.22312 20.694 7.53052C20.2412 7.83792 19.8555 8.05992 19.5369 8.23071C19.6878 8.29901 19.8723 8.38435 20.0903 8.50392C20.6605 8.81132 21.281 9.32363 21.281 9.32363C20.3419 8.50392 20.5431 8.12822 21.8344 7.20603C22.2369 6.91572 22.9748 6.94987 23.6624 7.30852C24.35 7.66713 25.1549 8.57223 25.1549 8.57223L24.3835 10.075C24.4338 10.0921 24.4841 10.1092 24.5344 10.1263C25.0208 10.2629 25.4065 10.2287 25.7083 10.1092C26.0606 9.88721 26.9829 9.13581 25.7083 7.75252Z" fill="#A98698"/>
<path d="M22.0524 6.55716C22.3878 6.69378 22.8238 6.93286 23.3605 7.29151C23.9978 7.71843 24.5512 8.19661 24.9033 8.57231C24.3164 9.35784 23.9307 10.4337 23.6959 11.1851C23.8133 11.3559 23.9475 11.5267 24.0648 11.6975C24.1822 11.2705 24.3835 10.6386 24.6518 10.0068C24.7189 10.0239 24.8027 10.0239 24.8866 10.0239C25.0878 10.0239 25.3226 9.98972 25.5071 9.83602C25.6413 9.73354 25.7922 9.54572 25.7754 9.20414C25.7754 8.87971 25.5238 8.46983 25.004 7.97461C24.635 7.61594 24.1319 7.22315 23.6288 6.86455C22.1866 5.89114 21.1803 5.6179 20.7276 6.07899C20.4257 6.38638 20.4592 6.76209 20.5598 7.03533C20.0232 7.39394 19.5704 7.65012 19.2686 7.82091C19.4698 7.88922 19.6543 7.97461 19.8555 8.05995C20.3921 7.76964 21.1636 7.27442 22.0524 6.55716ZM25.222 8.99923C25.2723 9.08462 25.2891 9.17002 25.2891 9.22123C25.2891 9.37493 25.2387 9.42614 25.2052 9.46032C25.1381 9.51154 25.004 9.54572 24.8866 9.54572C24.9872 9.34081 25.1046 9.17002 25.222 8.99923ZM21.0797 6.45469C21.13 6.40346 21.2642 6.36931 21.4822 6.40346C21.3145 6.54008 21.1468 6.65962 20.9791 6.77916C20.9624 6.65962 20.9791 6.54008 21.0797 6.45469Z" fill="#5E12A0"/>
<path d="M15.7972 7.18903C10.3133 7.18903 5.86914 11.7146 5.86914 17.2989C5.86914 22.8832 10.3133 27.4087 15.7972 27.4087C21.281 27.4087 25.7252 22.8832 25.7252 17.2989C25.7252 11.7146 21.2643 7.18903 15.7972 7.18903ZM15.7972 26.8452C10.6151 26.8452 6.42256 22.5758 6.42256 17.2989C6.42256 12.022 10.6151 7.75261 15.7972 7.75261C20.9792 7.75261 25.1718 12.022 25.1718 17.2989C25.1718 22.5758 20.9624 26.8452 15.7972 26.8452Z" fill="#5E12A0"/>
<path opacity="0.6" d="M15.7972 26.8451C20.9747 26.8451 25.1718 22.5711 25.1718 17.2988C25.1718 12.0266 20.9747 7.75256 15.7972 7.75256C10.6198 7.75256 6.42261 12.0266 6.42261 17.2988C6.42261 22.5711 10.6198 26.8451 15.7972 26.8451Z" fill="url(#paint2_linear_2122_893)"/>
<path opacity="0.6" d="M15.7302 25.6839C10.6153 24.8471 7.14382 19.9459 7.98232 14.7372C8.35129 12.4318 9.49163 10.4679 11.1016 9.05042C8.75376 10.4337 7.00966 12.8416 6.54009 15.779C5.71834 20.9876 9.18978 25.8888 14.288 26.7256C17.1389 27.2038 19.8893 26.2986 21.9185 24.5226C20.1241 25.5814 17.9439 26.0425 15.7302 25.6839Z" fill="#A98698"/>
<path opacity="0.6" d="M17.2896 7.88912C14.925 7.49633 12.6275 8.04282 10.7493 9.25531C10.7157 9.28949 10.6822 9.32362 10.6822 9.32362C11.4033 8.87961 12.4598 8.48682 12.4598 8.48682C9.74303 10.0921 8.90454 11.9194 8.90454 11.9194C9.96108 9.83598 13.0635 8.3673 15.4952 8.26482C17.9269 8.16239 19.5201 8.8967 21.4655 10.4849C23.4108 12.0902 24.5847 15.3691 24.4673 17.9649C24.3667 20.5606 23.0251 22.6611 23.0251 22.6611C23.9475 21.4486 24.5009 20.5606 24.8531 19.6555C24.9202 19.3823 24.9873 19.109 25.0208 18.8187C25.8593 13.6272 22.4046 8.72592 17.2896 7.88912Z" fill="url(#paint3_linear_2122_893)"/>
<path d="M24.7023 17.2134C24.7023 22.2171 20.7109 26.2815 15.7973 26.2815C10.8836 26.2815 6.87549 22.2171 6.87549 17.2134H24.7023Z" fill="url(#paint4_linear_2122_893)"/>
<g opacity="0.6">
<path opacity="0.6" d="M23.9979 17.2134C23.9979 22.0975 20.2079 26.0936 15.4451 26.2815C15.5625 26.2815 15.6799 26.2815 15.7972 26.2815C20.7109 26.2815 24.7023 22.2171 24.7023 17.2134H23.9979Z" fill="url(#paint5_linear_2122_893)"/>
</g>
<g opacity="0.7">
<path opacity="0.7" d="M8.13327 17.2134H6.87549C6.87549 22.2171 10.8668 26.2815 15.7805 26.2815C15.9985 26.2815 16.1998 26.2815 16.401 26.2644C11.7892 25.9229 8.13327 21.9951 8.13327 17.2134Z" fill="url(#paint6_linear_2122_893)"/>
</g>
<path d="M24.6855 17.2988C24.6855 16.2571 22.9079 15.6594 20.5433 15.4545C18.8327 15.3178 17.1054 15.4886 15.1265 16.1034C13.4159 16.6157 11.873 16.5303 10.7494 16.3937C8.25064 16.1034 6.87549 16.0692 6.87549 17.2988C6.87549 19.0749 10.4308 21.295 15.7637 20.5265C18.4638 20.1337 19.8557 19.3311 21.4489 18.7846C23.1762 18.2039 24.6855 18.221 24.6855 17.2988Z" fill="url(#paint7_linear_2122_893)"/>
<path d="M18.7154 12.9953C19.5489 12.9953 20.2247 12.3072 20.2247 11.4584C20.2247 10.6095 19.5489 9.92139 18.7154 9.92139C17.8818 9.92139 17.2061 10.6095 17.2061 11.4584C17.2061 12.3072 17.8818 12.9953 18.7154 12.9953Z" fill="white"/>
<path d="M21.1802 14.1396C21.5322 14.1396 21.8175 13.849 21.8175 13.4906C21.8175 13.1322 21.5322 12.8417 21.1802 12.8417C20.8283 12.8417 20.543 13.1322 20.543 13.4906C20.543 13.849 20.8283 14.1396 21.1802 14.1396Z" fill="white"/>
<g opacity="0.6">
<path opacity="0.6" d="M23.4612 10.2287C23.4445 10.2287 23.4277 10.2287 23.4277 10.2287C23.327 10.2116 23.26 10.1092 23.2767 9.98964C23.4277 9.20412 24.0649 8.45266 24.0985 8.41853C24.1655 8.33314 24.2997 8.33314 24.3668 8.40144C24.4506 8.46975 24.4506 8.60636 24.3836 8.67472C24.3668 8.69175 23.7798 9.39194 23.6457 10.075C23.6289 10.1775 23.5451 10.2287 23.4612 10.2287Z" fill="url(#paint8_linear_2122_893)"/>
</g>
<path opacity="0.2" d="M15.1778 24.4202C15.4371 24.4202 15.6474 24.2061 15.6474 23.9421C15.6474 23.6779 15.4371 23.4639 15.1778 23.4639C14.9185 23.4639 14.7083 23.6779 14.7083 23.9421C14.7083 24.2061 14.9185 24.4202 15.1778 24.4202Z" fill="white"/>
<g opacity="0.4">
<path opacity="0.6" d="M14.9085 24.2499C14.7241 24.0621 14.7241 23.7547 14.9085 23.5668C14.9421 23.5327 14.9757 23.5156 15.0092 23.4814C14.9421 23.4985 14.8918 23.5327 14.8415 23.5839C14.657 23.7718 14.657 24.0791 14.8415 24.267C14.9924 24.4207 15.2272 24.4548 15.4117 24.3524C15.244 24.4207 15.0427 24.3865 14.9085 24.2499Z" fill="url(#paint9_linear_2122_893)"/>
</g>
<path opacity="0.3" d="M15.3445 23.8053C15.4001 23.8053 15.4452 23.7594 15.4452 23.7028C15.4452 23.6462 15.4001 23.6003 15.3445 23.6003C15.2889 23.6003 15.2439 23.6462 15.2439 23.7028C15.2439 23.7594 15.2889 23.8053 15.3445 23.8053Z" fill="white"/>
<path opacity="0.2" d="M17.6263 24.181C17.8856 24.181 18.0958 23.967 18.0958 23.7029C18.0958 23.4388 17.8856 23.2247 17.6263 23.2247C17.367 23.2247 17.1567 23.4388 17.1567 23.7029C17.1567 23.967 17.367 24.181 17.6263 24.181Z" fill="white"/>
<g opacity="0.4">
<path opacity="0.6" d="M17.357 24.0107C17.1725 23.8229 17.1725 23.5155 17.357 23.3276C17.3906 23.2935 17.4241 23.2764 17.4576 23.2422C17.3906 23.2593 17.3403 23.2935 17.29 23.3447C17.1055 23.5326 17.1055 23.84 17.29 24.0278C17.4409 24.1815 17.6757 24.2157 17.8601 24.1132C17.6924 24.1815 17.4912 24.1473 17.357 24.0107Z" fill="url(#paint10_linear_2122_893)"/>
</g>
<path opacity="0.3" d="M17.793 23.5663C17.8486 23.5663 17.8936 23.5204 17.8936 23.4638C17.8936 23.4072 17.8486 23.3613 17.793 23.3613C17.7374 23.3613 17.6924 23.4072 17.6924 23.4638C17.6924 23.5204 17.7374 23.5663 17.793 23.5663Z" fill="white"/>
<path opacity="0.2" d="M16.4176 25.2911C16.6121 25.2911 16.7698 25.1306 16.7698 24.9325C16.7698 24.7345 16.6121 24.5739 16.4176 24.5739C16.2231 24.5739 16.0654 24.7345 16.0654 24.9325C16.0654 25.1306 16.2231 25.2911 16.4176 25.2911Z" fill="white"/>
<g opacity="0.4">
<path opacity="0.6" d="M16.2166 25.1549C16.0824 25.0183 16.0824 24.7792 16.2166 24.6426C16.2334 24.6255 16.2669 24.6085 16.2837 24.5914C16.2334 24.6085 16.1998 24.6426 16.1663 24.6768C16.0321 24.8134 16.0321 25.0525 16.1663 25.1891C16.2837 25.3086 16.4513 25.3257 16.6023 25.2403C16.4682 25.2916 16.3172 25.2574 16.2166 25.1549Z" fill="url(#paint11_linear_2122_893)"/>
</g>
<path opacity="0.3" d="M16.5351 24.813C16.5721 24.813 16.6022 24.7824 16.6022 24.7447C16.6022 24.707 16.5721 24.6764 16.5351 24.6764C16.4981 24.6764 16.468 24.707 16.468 24.7447C16.468 24.7824 16.4981 24.813 16.5351 24.813Z" fill="white"/>
<path opacity="0.2" d="M18.5812 25.0349C18.7757 25.0349 18.9333 24.8744 18.9333 24.6763C18.9333 24.4782 18.7757 24.3177 18.5812 24.3177C18.3867 24.3177 18.229 24.4782 18.229 24.6763C18.229 24.8744 18.3867 25.0349 18.5812 25.0349Z" fill="white"/>
<g opacity="0.4">
<path opacity="0.6" d="M18.3802 24.8988C18.246 24.7622 18.246 24.5231 18.3802 24.3865C18.3969 24.3694 18.4305 24.3524 18.4472 24.3353C18.3969 24.3524 18.3634 24.3865 18.3299 24.4207C18.1957 24.5573 18.1957 24.7964 18.3299 24.933C18.4472 25.0525 18.6149 25.0696 18.7659 24.9842C18.6317 25.0355 18.4808 25.0013 18.3802 24.8988Z" fill="url(#paint12_linear_2122_893)"/>
</g>
<path opacity="0.3" d="M18.6984 24.5568C18.7355 24.5568 18.7655 24.5262 18.7655 24.4885C18.7655 24.4508 18.7355 24.4202 18.6984 24.4202C18.6614 24.4202 18.6313 24.4508 18.6313 24.4885C18.6313 24.5262 18.6614 24.5568 18.6984 24.5568Z" fill="white"/>
<path opacity="0.2" d="M13.1811 24.2494C13.6072 24.2494 13.9525 23.8977 13.9525 23.4639C13.9525 23.03 13.6072 22.6783 13.1811 22.6783C12.755 22.6783 12.4097 23.03 12.4097 23.4639C12.4097 23.8977 12.755 24.2494 13.1811 24.2494Z" fill="white"/>
<g opacity="0.4">
<path opacity="0.6" d="M12.7455 23.9591C12.4436 23.6517 12.4436 23.1565 12.7455 22.8491C12.7958 22.7979 12.8461 22.7637 12.9132 22.7296C12.8126 22.7637 12.7287 22.832 12.6448 22.9003C12.343 23.2077 12.343 23.703 12.6448 24.0104C12.8964 24.2665 13.2822 24.3178 13.584 24.1299C13.2989 24.2494 12.9635 24.1982 12.7455 23.9591Z" fill="url(#paint13_linear_2122_893)"/>
</g>
<path opacity="0.3" d="M13.4494 23.2247C13.5421 23.2247 13.6171 23.1482 13.6171 23.054C13.6171 22.9596 13.5421 22.8832 13.4494 22.8832C13.3568 22.8832 13.2817 22.9596 13.2817 23.054C13.2817 23.1482 13.3568 23.2247 13.4494 23.2247Z" fill="white"/>
<path opacity="0.2" d="M20.0742 22.3196C20.5002 22.3196 20.8456 21.9679 20.8456 21.5341C20.8456 21.1002 20.5002 20.7485 20.0742 20.7485C19.6481 20.7485 19.3027 21.1002 19.3027 21.5341C19.3027 21.9679 19.6481 22.3196 20.0742 22.3196Z" fill="white"/>
<g opacity="0.4">
<path opacity="0.6" d="M19.6207 22.0293C19.3189 21.7219 19.3189 21.2267 19.6207 20.9193C19.671 20.868 19.7213 20.8339 19.7884 20.7997C19.6878 20.8339 19.604 20.9022 19.5201 20.9705C19.2182 21.2779 19.2182 21.7732 19.5201 22.0806C19.7716 22.3367 20.1573 22.388 20.4593 22.2001C20.1742 22.3196 19.8555 22.2684 19.6207 22.0293Z" fill="url(#paint14_linear_2122_893)"/>
</g>
<path opacity="0.3" d="M20.3418 21.2949C20.4344 21.2949 20.5095 21.2185 20.5095 21.1242C20.5095 21.0298 20.4344 20.9534 20.3418 20.9534C20.2492 20.9534 20.1741 21.0298 20.1741 21.1242C20.1741 21.2185 20.2492 21.2949 20.3418 21.2949Z" fill="white"/>
<defs>
<radialGradient id="paint0_radial_2122_893" cx="0" cy="0" r="1" gradientUnits="userSpaceOnUse" gradientTransform="translate(26.174 7.46226) scale(7.4954 7.63269)">
<stop stop-color="#FFEAFF" stop-opacity="0.6"/>
<stop offset="0.6807" stop-color="#A087C9"/>
<stop offset="1" stop-color="#10002F"/>
</radialGradient>
<radialGradient id="paint1_radial_2122_893" cx="0" cy="0" r="1" gradientUnits="userSpaceOnUse" gradientTransform="translate(22.004 10.7174) scale(18.3385 18.6744)">
<stop stop-color="#FFEAFF" stop-opacity="0.6"/>
<stop offset="0.6807" stop-color="#A087C9"/>
<stop offset="1" stop-color="#10002F"/>
</radialGradient>
<linearGradient id="paint2_linear_2122_893" x1="14.2934" y1="26.7097" x2="17.3998" y2="7.88996" gradientUnits="userSpaceOnUse">
<stop stop-color="#81FFFF"/>
<stop offset="0.6202" stop-color="white" stop-opacity="0"/>
</linearGradient>
<linearGradient id="paint3_linear_2122_893" x1="22.4038" y1="10.8156" x2="14.5234" y2="17.916" gradientUnits="userSpaceOnUse">
<stop offset="0.2888" stop-color="white"/>
<stop offset="0.7796" stop-color="white" stop-opacity="0"/>
</linearGradient>
<linearGradient id="paint4_linear_2122_893" x1="6.88303" y1="21.7422" x2="24.698" y2="21.7422" gradientUnits="userSpaceOnUse">
<stop stop-color="#0002E9"/>
<stop offset="0.9952" stop-color="#FF00C7"/>
</linearGradient>
<linearGradient id="paint5_linear_2122_893" x1="25.5413" y1="18.0091" x2="15.6788" y2="27.1621" gradientUnits="userSpaceOnUse">
<stop offset="0.2888" stop-color="white"/>
<stop offset="0.7796" stop-color="white" stop-opacity="0"/>
</linearGradient>
<linearGradient id="paint6_linear_2122_893" x1="6.88303" y1="21.7422" x2="16.414" y2="21.7422" gradientUnits="userSpaceOnUse">
<stop stop-color="#000292"/>
<stop offset="0.9952" stop-color="#7D00C7"/>
</linearGradient>
<linearGradient id="paint7_linear_2122_893" x1="6.89499" y1="18.0522" x2="24.686" y2="18.0522" gradientUnits="userSpaceOnUse">
<stop stop-color="#000292"/>
<stop offset="0.9952" stop-color="#BE00C7"/>
</linearGradient>
<linearGradient id="paint8_linear_2122_893" x1="24.394" y1="8.33535" x2="23.0814" y2="10.43" gradientUnits="userSpaceOnUse">
<stop offset="0.2888" stop-color="white"/>
<stop offset="0.7796" stop-color="white" stop-opacity="0"/>
</linearGradient>
<linearGradient id="paint9_linear_2122_893" x1="14.7027" y1="23.9572" x2="15.4122" y2="23.9572" gradientUnits="userSpaceOnUse">
<stop offset="0.2888" stop-color="white"/>
<stop offset="0.7796" stop-color="white" stop-opacity="0"/>
</linearGradient>
<linearGradient id="paint10_linear_2122_893" x1="17.1494" y1="23.7147" x2="17.8589" y2="23.7147" gradientUnits="userSpaceOnUse">
<stop offset="0.2888" stop-color="white"/>
<stop offset="0.7796" stop-color="white" stop-opacity="0"/>
</linearGradient>
<linearGradient id="paint11_linear_2122_893" x1="16.0635" y1="24.937" x2="16.5962" y2="24.937" gradientUnits="userSpaceOnUse">
<stop offset="0.2888" stop-color="white"/>
<stop offset="0.7796" stop-color="white" stop-opacity="0"/>
</linearGradient>
<linearGradient id="paint12_linear_2122_893" x1="18.2198" y1="24.6802" x2="18.7524" y2="24.6802" gradientUnits="userSpaceOnUse">
<stop offset="0.2888" stop-color="white"/>
<stop offset="0.7796" stop-color="white" stop-opacity="0"/>
</linearGradient>
<linearGradient id="paint13_linear_2122_893" x1="12.4108" y1="23.4839" x2="13.5695" y2="23.4839" gradientUnits="userSpaceOnUse">
<stop offset="0.2888" stop-color="white"/>
<stop offset="0.7796" stop-color="white" stop-opacity="0"/>
</linearGradient>
<linearGradient id="paint14_linear_2122_893" x1="19.2924" y1="21.5535" x2="20.4512" y2="21.5535" gradientUnits="userSpaceOnUse">
<stop offset="0.2888" stop-color="white"/>
<stop offset="0.7796" stop-color="white" stop-opacity="0"/>
</linearGradient>
</defs>
</svg>
