<svg width="32" height="32" viewBox="0 0 32 32" fill="none" xmlns="http://www.w3.org/2000/svg">
    <path d="M16 32C24.8366 32 32 24.8366 32 16C32 7.16344 24.8366 0 16 0C7.16344 0 0 7.16344 0 16C0 24.8366 7.16344 32 16 32Z" fill="#34455B"/>
    <path d="M16.8658 10.3853L18.7475 7.48767C19.1908 7.58347 19.6536 7.52081 20.0554 7.31062C20.4572 7.10043 20.7726 6.75601 20.9467 6.33729C21.1208 5.91857 21.1425 5.45207 21.0082 5.01896C20.8738 4.58585 20.5919 4.21356 20.2114 3.96687C19.8309 3.72018 19.3759 3.61471 18.9257 3.66882C18.4755 3.72293 18.0585 3.93318 17.7473 4.263C17.4361 4.59282 17.2503 5.02132 17.2224 5.47392C17.1945 5.92653 17.3262 6.3746 17.5945 6.74014L15.2375 10.3696C13.3117 10.5592 11.5318 11.48 10.2642 12.9423C8.99661 14.4046 8.33783 16.2971 8.42342 18.2305C8.50902 20.1638 9.33248 21.9907 10.7243 23.3353C12.1162 24.6798 13.9705 25.4397 15.9056 25.4584C17.8407 25.4772 19.7094 24.7534 21.127 23.436C22.5446 22.1187 23.4033 20.308 23.5263 18.3767C23.6494 16.4454 23.0274 14.5405 21.7884 13.0539C20.5494 11.5673 18.7876 10.6123 16.8658 10.3853H16.8658ZM16 21.875C15.2676 21.8749 14.5493 21.6737 13.9234 21.2933C13.2975 20.913 12.788 20.3681 12.4506 19.7181C12.1131 19.0681 11.9606 18.3379 12.0096 17.6071C12.0586 16.8764 12.3074 16.1731 12.7287 15.574C13.15 14.9749 13.7277 14.503 14.3988 14.2097C15.0699 13.9164 15.8086 13.813 16.5345 13.9108C17.2603 14.0085 17.9454 14.3037 18.515 14.7641C19.0846 15.2245 19.5169 15.8324 19.7647 16.5216C19.4825 16.1251 19.0809 15.8292 18.6185 15.6772C18.1562 15.5253 17.6573 15.5252 17.1949 15.677C16.7325 15.8288 16.3308 16.1245 16.0485 16.521C15.7661 16.9174 15.618 17.3938 15.6258 17.8804C15.6335 18.367 15.7967 18.8384 16.0915 19.2257C16.3863 19.6129 16.7972 19.8957 17.2642 20.0327C17.7312 20.1698 18.2298 20.1538 18.6871 19.9872C19.1444 19.8206 19.5364 19.5121 19.8058 19.1068C19.5453 19.9112 19.0367 20.6123 18.3529 21.1096C17.6692 21.6069 16.8455 21.8749 16 21.875Z" fill="white"/>
</svg>
