<svg width="32" height="32" viewBox="0 0 32 32" fill="none" xmlns="http://www.w3.org/2000/svg">
    <path d="M16 32C24.8366 32 32 24.8366 32 16C32 7.16344 24.8366 0 16 0C7.16344 0 0 7.16344 0 16C0 24.8366 7.16344 32 16 32Z" fill="#5F46BA"/>
    <path d="M10.4431 9.15999C10.3321 9.347 10.1682 9.4969 9.97208 9.59073C9.77593 9.68455 9.55635 9.71808 9.34114 9.68707C9.12592 9.65606 8.92474 9.56191 8.76306 9.41652C8.60137 9.27114 8.48644 9.08106 8.43282 8.87034C8.37919 8.65962 8.38928 8.43773 8.4618 8.23274C8.53433 8.02776 8.66603 7.84889 8.84024 7.71878C9.01445 7.58867 9.22334 7.51316 9.44048 7.5018C9.65762 7.49045 9.87325 7.54376 10.0601 7.65499C10.5811 7.96499 10.7531 8.63799 10.4431 9.15999V9.15999ZM6.69308 8.67199C6.6147 8.80432 6.49881 8.91042 6.36009 8.97683C6.22136 9.04325 6.06605 9.067 5.91382 9.04508C5.76159 9.02316 5.61928 8.95655 5.50494 8.85369C5.39059 8.75084 5.30933 8.61636 5.27147 8.46729C5.23361 8.31822 5.24084 8.16127 5.29224 8.01631C5.34365 7.87136 5.43692 7.74492 5.56023 7.65301C5.68355 7.5611 5.83138 7.50785 5.98498 7.50002C6.13858 7.49218 6.29105 7.53011 6.42308 7.60899C6.79108 7.82899 6.91308 8.30399 6.69308 8.67199ZM17.1321 24.572C18.2521 24.4398 19.3349 24.0873 20.318 23.5348C21.3012 22.9823 22.1653 22.2407 22.8607 21.3528C23.556 20.4648 24.0688 19.4481 24.3694 18.3611C24.6701 17.2742 24.7527 16.1385 24.6126 15.0194C24.4724 13.9004 24.1122 12.8201 23.5527 11.8409C22.9932 10.8617 22.2455 10.0028 21.3527 9.31385C20.4599 8.62485 19.4395 8.11932 18.3504 7.82638C17.2614 7.53344 16.1251 7.45888 15.0071 7.60699C14.2881 7.67423 13.5837 7.85094 12.9181 8.13099C12.1431 8.51099 11.6431 9.14399 11.6431 9.99099C11.6431 11.091 12.5351 11.985 13.6371 11.985C13.8211 11.985 14.4581 11.783 14.6101 11.731C15.3279 11.4805 16.0965 11.4116 16.8474 11.5305C17.5983 11.6493 18.3082 11.9521 18.9136 12.412C19.519 12.8718 20.0011 13.4744 20.317 14.1659C20.633 14.8574 20.7728 15.6163 20.7241 16.375C20.6635 17.3395 20.3011 18.2606 19.6883 19.0079C19.0755 19.7552 18.2432 20.291 17.3092 20.5393C16.3753 20.7876 15.3868 20.736 14.4838 20.3918C13.5807 20.0475 12.8087 19.4281 12.2771 18.621V18.622C11.3571 17.417 11.5691 15.491 11.5681 15.466C11.5501 14.9892 11.362 14.5345 11.0378 14.1844C10.7136 13.8343 10.2747 13.6118 9.80064 13.5573C9.32658 13.5028 8.84868 13.6198 8.45346 13.8872C8.05824 14.1546 7.77183 14.5547 7.64608 15.015C7.60108 15.182 7.57808 15.671 7.58508 15.736C7.53465 16.9718 7.75301 18.2038 8.22509 19.3469C8.69717 20.4901 9.41173 21.5171 10.3194 22.3572C11.2271 23.1973 12.3063 23.8304 13.4825 24.2128C14.6587 24.5952 15.9039 24.7177 17.1321 24.572V24.572ZM9.30008 12.21C9.15628 12.4521 8.94393 12.6462 8.68986 12.7676C8.43579 12.889 8.15142 12.9324 7.8727 12.8923C7.59398 12.8521 7.33342 12.7302 7.12396 12.542C6.91451 12.3538 6.76555 12.1077 6.69594 11.8348C6.62633 11.562 6.63918 11.2746 6.73287 11.0091C6.82656 10.7435 6.99688 10.5117 7.2223 10.3429C7.44772 10.1741 7.71812 10.076 7.99931 10.0609C8.28051 10.0458 8.55987 10.1144 8.80208 10.258C9.47808 10.66 9.70008 11.534 9.29908 12.21" fill="white"/>
</svg>
