<svg width="32" height="32" viewBox="0 0 32 32" fill="none" xmlns="http://www.w3.org/2000/svg">
    <path d="M9.00479 4.99202C9.60639 4.31362 10.1504 3.73122 10.6752 3.24482C1.83679 2.96322 4.40959 9.35042 1.52959 15.8464C-1.78561 23.328 1.91999 26.176 7.44319 27.0656C6.67519 26.1632 6.05439 25.1264 5.57439 24.0128C1.99679 19.5008 3.43679 11.2896 9.00479 4.99202Z" fill="#EFE812"/>
    <path d="M30.2784 12.96C29.4528 15.2768 27.9488 17.8752 25.8112 20.4352C24.1472 22.4256 22.2976 24 20.3904 25.1392C18.1824 26.5664 15.4432 27.4112 12.384 27.4112C10.6688 27.4112 8.98558 27.3152 7.44318 27.0656C8.35198 28.1408 9.46558 29.0304 10.752 29.6576C18.7456 33.5232 19.2512 26.3424 27.7056 22.7008C32.4608 20.6528 32.4736 16.6528 30.2784 12.96Z" fill="#EDE70A"/>
    <path d="M20.3904 5.49115C21.568 5.70875 22.688 6.09275 23.6928 6.66235C26.3744 8.17915 28.8192 10.5024 30.2848 12.9664C31.7248 8.90875 31.0528 5.72155 27.904 5.14555C24.4416 4.51195 21.7344 4.30715 19.136 2.48955C15.9296 0.249552 13.12 0.991952 10.688 3.25115C10.8608 3.25755 11.0336 3.26395 11.2128 3.27675C14.5856 3.46875 17.8176 4.12795 20.3904 5.49115Z" fill="#EDE70A"/>
    <path d="M9.00486 4.99202C3.43686 11.2832 1.99686 19.5008 5.57446 24.0128C3.96806 20.2368 4.07686 15.5264 6.34246 11.7696C9.36326 6.76482 15.4113 4.58242 20.3841 5.49122C17.8113 4.13442 14.5857 3.47522 11.2001 3.27682C11.0209 3.26402 10.8417 3.25762 10.6689 3.25122C10.1569 3.73122 9.60646 4.31362 9.00486 4.99202Z" fill="#DEC21C"/>
    <path d="M23.6864 6.65594C22.6816 6.08634 21.568 5.70234 20.384 5.48474C23.776 7.27674 26.0288 10.2783 26.0032 15.0719C25.9776 19.2255 23.8336 22.8991 20.384 25.1327C22.2912 23.9935 24.1408 22.4255 25.8048 20.4287C27.9424 17.8687 29.4464 15.2703 30.272 12.9535C28.8192 10.5023 26.3744 8.17274 23.6864 6.65594Z" fill="#E5CB22"/>
    <path d="M20.3903 5.49117C15.4239 4.58237 9.36953 6.76477 6.34873 11.7696C4.08313 15.5264 3.96793 20.2368 5.58073 24.0128C6.05433 25.1264 6.68153 26.1632 7.44953 27.0656C8.99193 27.3152 10.6751 27.4048 12.3903 27.4048C15.4495 27.4048 18.1887 26.56 20.3967 25.1328C23.8463 22.8992 25.9903 19.2256 26.0159 15.072C26.0351 10.2848 23.7759 7.27677 20.3903 5.49117ZM19.8335 22.8608C16.0063 25.3184 10.9055 24.224 8.43513 20.4096C5.96473 16.5952 7.18713 11.6864 10.8927 9.04957C15.0399 6.10557 20.3519 7.26397 22.2911 11.5008C24.1791 15.6288 23.6607 20.4032 19.8335 22.8608Z" fill="#CCA727"/>
</svg>
