<svg width="32" height="32" viewBox="0 0 32 32" fill="none" xmlns="http://www.w3.org/2000/svg">
    <path d="M11.1199 26.8429C11.1199 26.596 11.211 26.3695 11.3165 26.1774L11.3333 26.1301L14.8849 20.0168L14.9872 19.8265C15.1974 19.5151 15.5843 19.3028 15.9927 19.3028C16.4154 19.3028 16.7903 19.5152 17.0116 19.8265L17.1139 20.0168L18.5461 22.4509C18.877 23.0483 19.6514 23.2514 20.2492 22.9039C20.6536 22.6786 20.8686 22.2525 20.8686 21.8119C20.8686 21.6056 20.8343 21.3968 20.6896 21.1985L17.9036 16.3499L17.6846 15.9723C17.6598 15.8354 17.6063 15.6954 17.6063 15.5462C17.6063 15.3982 17.6598 15.2565 17.6846 15.1306L17.9036 14.7407L22.7819 6.27549L22.9658 5.96376C23.2223 5.66972 23.5524 5.47803 23.9568 5.47803C24.3572 5.47803 24.732 5.67281 24.9478 5.97482C25.0317 6.06311 25.0964 6.16201 25.1332 6.26931L29.6639 14.0954C30.1123 14.8931 30.1123 16.197 29.6639 16.9932L24.0575 26.6477C23.6235 27.4438 22.4702 28.0969 21.5639 28.0969H12.3906C11.7017 28.0969 11.1199 27.5353 11.1199 26.8429Z" fill="url(#paint0_linear)"/>
    <path d="M20.8701 4.24137C20.8701 4.48999 20.787 4.73065 20.6735 4.92271L20.6623 4.95893L17.1138 11.0753L17.0115 11.2639C16.7893 11.5881 16.4153 11.8023 15.9925 11.8023C15.5841 11.8023 15.1973 11.5881 14.9863 11.2639L14.8848 11.0736L13.4534 8.64617C13.1114 8.0457 12.3457 7.83766 11.7455 8.18252C11.3427 8.41044 11.1197 8.84132 11.1197 9.27242C11.1197 9.4848 11.1637 9.70337 11.3083 9.90028L14.0936 14.7423L14.3022 15.1308C14.3397 15.2567 14.3901 15.3954 14.3901 15.5465C14.3901 15.6957 14.3397 15.8356 14.3022 15.9725L14.0936 16.3501L9.21762 24.8183L9.0306 25.1345C8.78365 25.4286 8.43599 25.6239 8.03798 25.6239C7.64157 25.6239 7.26754 25.4256 7.04616 25.1253C6.96624 25.037 6.9127 24.9363 6.86554 24.8294L2.34442 16.9934C1.88519 16.1972 1.88519 14.8933 2.34442 14.0957L7.93728 4.43962C8.37285 3.64694 9.52771 3 10.4244 3H19.6369C20.2994 3.00007 20.8701 3.5476 20.8701 4.24137Z" fill="url(#paint1_linear)"/>
    <defs>
        <linearGradient id="paint0_linear" x1="12.5249" y1="2.37088" x2="23.3989" y2="27.5425" gradientUnits="userSpaceOnUse">
            <stop stop-color="#17E2CF"/>
            <stop offset="1" stop-color="#5181FD"/>
        </linearGradient>
        <linearGradient id="paint1_linear" x1="8.79004" y1="3.98483" x2="19.6633" y2="29.155" gradientUnits="userSpaceOnUse">
            <stop stop-color="#17E2CF"/>
            <stop offset="1" stop-color="#5181FD"/>
        </linearGradient>
    </defs>
</svg>
