<svg width="32" height="32" viewBox="0 0 32 32" fill="none" xmlns="http://www.w3.org/2000/svg">
    <path d="M16 32C24.8366 32 32 24.8366 32 16C32 7.16344 24.8366 0 16 0C7.16344 0 0 7.16344 0 16C0 24.8366 7.16344 32 16 32Z" fill="#141E3B"/>
    <path fill-rule="evenodd" clip-rule="evenodd" d="M12.2813 7.37547C12.9434 6.71337 14.0169 6.71337 14.679 7.37547L20.2236 12.9201L17.9758 15.1679L13.4801 10.6723L8.98455 15.1679L11.2323 17.4157L13.4801 15.1679L15.728 17.4157L13.4801 19.6636L16.8519 23.0353C17.4726 23.656 17.4726 24.6624 16.8519 25.2831C16.2312 25.9038 15.2248 25.9038 14.6041 25.2831L5.68774 16.3668C5.02564 15.7047 5.02564 14.6312 5.68774 13.9691L12.2813 7.37547Z" fill="#3CEAAA"/>
    <path fill-rule="evenodd" clip-rule="evenodd" d="M16.777 7.37547C17.4391 6.71337 18.5126 6.71337 19.1747 7.37547L25.7683 13.9691C26.4304 14.6312 26.4304 15.7047 25.7683 16.3668L16.9268 25.2082C16.2647 25.8703 15.1913 25.8703 14.5292 25.2082L13.4802 24.1592L17.9758 19.6636L13.4802 15.1679L15.728 12.9201L20.2237 17.4157L22.4715 15.1679L15.728 8.42446L16.777 7.37547Z" fill="#03BCE4"/>
    <path d="M15.728 12.9202L13.4802 10.6724L11.2324 12.9202L13.4802 15.168L15.728 12.9202Z" fill="#029ABB"/>
    <path opacity="0.95" d="M20.2237 12.9202L17.9758 10.6724L15.728 12.9202L17.9758 15.168L20.2237 12.9202Z" fill="#3CEAAA"/>
</svg>
