<svg width="32" height="32" viewBox="0 0 32 32" fill="none" xmlns="http://www.w3.org/2000/svg">
    <path d="M16 0H16C7.16343 0 0 7.16343 0 16V16C0 24.8366 7.16343 32 16 32H16C24.8366 32 32 24.8366 32 16V16C32 7.16343 24.8366 0 16 0Z" fill="url(#paint0_linear)"/>
    <path d="M23.1789 14.1626V9.03573C23.179 9.00816 23.1765 8.98065 23.1715 8.95354C23.1618 8.90077 23.1429 8.85011 23.1158 8.80384C23.1025 8.78107 23.087 8.75968 23.0695 8.74C23.0179 8.67868 22.9507 8.63232 22.8751 8.60572C22.8493 8.59603 22.8224 8.58938 22.7951 8.58591L22.404 8.5228L16.0744 7.50947C16.0506 7.50569 16.0266 7.50373 16.0025 7.5036C15.9784 7.50367 15.9544 7.50563 15.9306 7.50947L9.85272 8.481L9.20113 8.58594C9.17255 8.58991 9.1445 8.59704 9.11749 8.60722C9.1097 8.61044 9.1021 8.61411 9.09474 8.61822C9.07589 8.62538 9.05771 8.63422 9.04043 8.64463L9.01768 8.65931C9.00215 8.66998 8.98722 8.68149 8.97294 8.69379L8.95312 8.71287C8.93991 8.72681 8.9267 8.74075 8.91497 8.75469C8.90836 8.76423 8.90175 8.7723 8.89589 8.78184C8.88854 8.79284 8.88122 8.80384 8.87461 8.8156L8.85773 8.85009L8.84378 8.88384C8.83876 8.89851 8.8346 8.91345 8.83131 8.9286C8.82818 8.93795 8.82573 8.94751 8.82398 8.95721C8.81957 8.98315 8.81736 9.00942 8.81738 9.03574V18.8441C8.81738 20.209 10.5139 21.6207 12.3535 22.728C12.644 22.9034 12.9375 23.0707 13.2281 23.2292C13.617 23.4405 14.0008 23.635 14.3655 23.8118C14.5027 23.8771 14.6355 23.9402 14.7668 24.0011C15.1579 24.1824 15.519 24.3379 15.8278 24.4634L15.8352 24.4649C15.8599 24.4753 15.8858 24.483 15.9122 24.4876L15.9283 24.4891C15.9516 24.4934 15.9751 24.4958 15.9988 24.4964C16.018 24.4959 16.0371 24.4939 16.056 24.4905C16.0655 24.4891 16.0751 24.4898 16.0846 24.4876C16.1131 24.4827 16.1409 24.4746 16.1675 24.4634C16.4038 24.3687 16.6687 24.2565 16.9549 24.1281C17.6219 23.8302 18.4012 23.4464 19.179 23.0039C19.5121 22.8139 19.8445 22.6143 20.1674 22.4052C20.3824 22.265 20.5937 22.1219 20.7984 21.9759C21.4714 21.5257 22.0721 20.976 22.5801 20.3454C22.8232 20.0264 23.0028 19.6638 23.1091 19.2771C23.1734 18.9441 23.1968 18.6045 23.1788 18.2659C23.1876 17.9108 23.1788 17.5534 23.1788 17.1975L23.1789 14.1626ZM13.019 13.9051C12.8888 13.8969 12.7666 13.8394 12.6773 13.7444C12.5879 13.6495 12.538 13.524 12.5376 13.3936C12.5376 13.3914 12.5369 13.0957 12.5369 12.9556C12.5369 12.9461 12.5388 12.9367 12.5425 12.9279C12.5462 12.9192 12.5515 12.9112 12.5583 12.9045C12.565 12.8978 12.573 12.8926 12.5818 12.889C12.5906 12.8854 12.6 12.8836 12.6095 12.8836L16.5353 12.8851C16.6021 12.8848 16.6683 12.8976 16.7301 12.923C16.792 12.9483 16.8482 12.9856 16.8956 13.0327C16.943 13.0798 16.9806 13.1358 17.0063 13.1975C17.0319 13.2592 17.0452 13.3253 17.0452 13.3922C17.0453 13.459 17.0321 13.5252 17.0065 13.5869C16.9809 13.6486 16.9434 13.7047 16.8961 13.7519C16.8488 13.799 16.7926 13.8364 16.7308 13.8618C16.669 13.8872 16.6028 13.9002 16.536 13.8999L13.019 13.9051H13.019ZM18.3763 16.736C18.1157 16.8104 17.8472 16.8539 17.5765 16.8659L14.3662 16.8681C14.3492 16.8679 14.3327 16.8743 14.3203 16.8859C14.3079 16.8975 14.3004 16.9134 14.2994 16.9304V16.9341L14.2979 20.9258C14.29 21.056 14.2328 21.1782 14.1379 21.2676C14.043 21.3571 13.9176 21.407 13.7872 21.4072C13.7843 21.4072 13.4893 21.4079 13.3484 21.4079C13.3295 21.4077 13.3114 21.4001 13.2981 21.3866C13.2847 21.3732 13.2773 21.355 13.2773 21.336V16.3155C13.2853 16.2001 13.3325 16.0909 13.4111 16.006C13.4897 15.9211 13.595 15.8657 13.7095 15.8488C13.7337 15.845 13.7583 15.8431 13.7828 15.843C13.7828 15.843 17.4671 15.8459 17.5016 15.8444V15.8452C18.1356 15.8239 18.7368 15.5583 19.1794 15.104C19.6221 14.6497 19.872 14.0419 19.8768 13.4076C19.8817 12.7733 19.6411 12.1617 19.2054 11.7007C18.7697 11.2396 18.1726 10.9649 17.5391 10.934C17.5391 10.934 17.4173 10.9274 17.2859 10.9274L13.7535 10.9355C13.6233 10.9275 13.501 10.8701 13.4115 10.7751C13.3221 10.6801 13.2722 10.5545 13.2722 10.424C13.2722 10.4226 13.2714 10.1261 13.2714 9.98669C13.2715 9.9772 13.2734 9.9678 13.2771 9.95905C13.2807 9.95029 13.2861 9.94235 13.2928 9.93567C13.2996 9.92899 13.3076 9.92371 13.3164 9.92012C13.3252 9.91654 13.3346 9.91473 13.3441 9.91479C13.3441 9.91479 17.4716 9.91479 17.5017 9.91552C18.3337 9.93408 19.1315 10.2505 19.7501 10.8072C20.3687 11.3639 20.7671 12.124 20.873 12.9495C20.9788 13.775 20.7851 14.611 20.327 15.3058C19.8689 16.0006 19.1767 16.5081 18.3763 16.736" fill="white"/>
    <path d="M23.4907 7.151L16.2131 5.98723C16.1442 5.97572 16.0745 5.97007 16.0047 5.97035H15.9988C15.9687 5.97108 15.8433 5.97915 15.7956 5.98723L9.21431 7.03875L8.50841 7.15175C8.19713 7.20034 7.91358 7.35891 7.70921 7.59868C7.50484 7.83845 7.3932 8.14355 7.39454 8.4586V19.0793C7.44359 19.982 7.81698 20.8367 8.44603 21.4861C9.10026 22.2097 9.84478 22.8462 10.6613 23.38C12.1884 24.3875 13.8107 25.2425 15.505 25.9328C15.6475 25.9904 15.799 26.0227 15.9526 26.0282C15.968 26.0289 15.9834 26.0289 15.9988 26.0289L16.0003 26.0297C16.1693 26.0299 16.3368 25.9972 16.4934 25.9335C18.4551 25.1491 20.313 24.1266 22.0253 22.8891L22.0356 22.8818C22.0774 22.8488 22.1192 22.8165 22.1618 22.7834C22.2565 22.7115 22.354 22.6367 22.4487 22.5567C22.9489 22.158 23.4008 21.7022 23.7952 21.1985C23.9148 21.0392 24.1158 20.7259 24.1782 20.6137C24.2811 20.4294 24.368 20.2367 24.4379 20.0377C24.5465 19.733 24.603 19.4123 24.6052 19.0889V8.4586C24.6063 8.14342 24.4945 7.83828 24.2901 7.59841C24.0856 7.35855 23.802 7.19983 23.4907 7.151V7.151ZM23.7761 19.0888C23.7761 19.1453 23.7732 19.2018 23.768 19.2576C23.7622 19.3148 23.7556 19.3713 23.7445 19.4271C23.7242 19.5419 23.6943 19.6548 23.655 19.7646C23.6006 19.9194 23.5328 20.0691 23.4525 20.2122C23.4356 20.2423 23.4004 20.3002 23.3579 20.3678C23.3292 20.4125 23.2977 20.4617 23.2654 20.5101C23.2177 20.5813 23.17 20.6503 23.1341 20.6972C23.0555 20.8022 22.969 20.9064 22.878 21.0091C22.6868 21.2248 22.4829 21.4289 22.2675 21.6203C22.1559 21.7209 22.0393 21.8199 21.9196 21.9175C21.7964 22.0217 21.6548 22.1259 21.5234 22.2294C21.3106 22.3915 21.089 22.5508 20.8608 22.7056C20.7471 22.7826 20.6319 22.8597 20.5152 22.9345C20.1652 23.1613 19.8049 23.3785 19.4446 23.5839C19.2942 23.669 19.1438 23.7525 18.9934 23.8341C18.0821 24.3291 17.1441 24.7732 16.1837 25.1645C16.1255 25.1881 16.0631 25.2001 16.0003 25.1997H15.9988C15.9834 25.1997 15.968 25.199 15.9526 25.1975C15.9054 25.1931 15.8592 25.1818 15.8154 25.1637C14.7423 24.724 13.6969 24.2195 12.6851 23.6529C12.4737 23.5348 12.2629 23.4122 12.0526 23.2853C11.9484 23.2222 11.8434 23.1583 11.74 23.093C11.1314 22.7181 10.5498 22.3011 9.99944 21.8449C9.74762 21.6349 9.50802 21.4108 9.2818 21.1735C8.67888 20.6329 8.30121 19.8854 8.22371 19.0793V8.4586C8.22361 8.37129 8.24672 8.28553 8.29069 8.2101C8.33465 8.13467 8.39789 8.07229 8.4739 8.02935C8.52514 7.99985 8.58134 7.97995 8.63972 7.97065L9.34488 7.85765L15.9269 6.80542L15.9379 6.80468C15.9555 6.80249 15.9841 6.80028 15.9988 6.79956H16.0047C16.0307 6.7996 16.0567 6.8018 16.0824 6.80615L23.36 7.97066C23.4761 7.98915 23.5818 8.04846 23.6581 8.13791C23.7343 8.22737 23.7762 8.3411 23.7761 8.45866L23.7761 19.0888Z" fill="white"/>
    <defs>
        <linearGradient id="paint0_linear" x1="15.9992" y1="31.9977" x2="15.9992" y2="0.52643" gradientUnits="userSpaceOnUse">
            <stop stop-color="#130D1E"/>
            <stop offset="0.68715" stop-color="#4D3077"/>
            <stop offset="1" stop-color="#662D91"/>
        </linearGradient>
    </defs>
</svg>
