<svg width="32" height="32" viewBox="0 0 32 32" fill="none" xmlns="http://www.w3.org/2000/svg">
    <path d="M16 32C24.8366 32 32 24.8366 32 16C32 7.16344 24.8366 0 16 0C7.16344 0 0 7.16344 0 16C0 24.8366 7.16344 32 16 32Z" fill="url(#paint0_linear_1088_53)"/>
    <path d="M25.1558 14.8559C24.8349 14.337 24.3209 13.9668 23.7271 13.8268C23.1332 13.6868 22.508 13.7884 21.9891 14.1094L13.8799 19.1235V24.5335L24.4094 18.0226C24.6663 17.8637 24.8894 17.6557 25.066 17.4105C25.2426 17.1654 25.3691 16.8879 25.4384 16.5938C25.5077 16.2998 25.5185 15.9949 25.47 15.6968C25.4215 15.3986 25.3147 15.1128 25.1558 14.8559V14.8559Z" fill="white"/>
    <path d="M8.51294 10.3254L8.59747 23.6887C8.60129 24.2963 8.84531 24.8777 9.27627 25.306C9.70723 25.7343 10.2901 25.9747 10.8977 25.9747H10.9125C11.2146 25.9728 11.5134 25.9114 11.7918 25.794C12.0702 25.6767 12.3227 25.5056 12.535 25.2906C12.7473 25.0757 12.9151 24.821 13.029 24.5411C13.1428 24.2613 13.2004 23.9618 13.1985 23.6597L13.1323 13.2092L8.51294 10.3254Z" fill="white"/>
    <path d="M22.5685 12.9603L12.0191 6.37457C11.5016 6.0529 10.8776 5.94971 10.284 6.08762C9.69047 6.22554 9.17589 6.59331 8.8532 7.11021C8.53052 7.62712 8.42609 8.25093 8.56283 8.84474C8.69958 9.43856 9.06633 9.95386 9.5826 10.2776L18.204 15.6597L22.5685 12.9603Z" fill="white"/>
    <defs>
        <linearGradient id="paint0_linear_1088_53" x1="3.743" y1="5.71516" x2="28.257" y2="26.2848" gradientUnits="userSpaceOnUse">
            <stop stop-color="#0AE596"/>
            <stop offset="1" stop-color="#01C7D4"/>
        </linearGradient>
    </defs>
</svg>
