<svg width="32" height="32" viewBox="0 0 32 32" fill="none" xmlns="http://www.w3.org/2000/svg">
    <g clip-path="url(#clip0)">
        <path d="M4.68628 27.3137C7.68686 30.3143 11.7565 32 16 32C20.2435 32 24.3131 30.3143 27.3137 27.3137C30.3143 24.3131 32 20.2435 32 16C32 11.7565 30.3143 7.68687 27.3137 4.68629L4.68628 27.3137Z" fill="#D95E59"/>
        <path d="M16 1.50252e-07C12.8355 -4.43494e-07 9.74207 0.938383 7.11088 2.69649C4.4797 4.45459 2.42894 6.95345 1.21793 9.87706C0.00693238 12.8007 -0.309921 16.0178 0.307443 19.1214C0.924807 22.2251 2.44866 25.0761 4.6863 27.3137L27.3137 4.68629C25.8296 3.19833 24.0661 2.01833 22.1245 1.2141C20.1829 0.40987 18.1016 -0.00273418 16 1.50252e-07V1.50252e-07Z" fill="#FF6666"/>
        <path d="M16.0001 11.5044C18.2009 11.5044 19.9851 9.72025 19.9851 7.51942C19.9851 5.31859 18.2009 3.53446 16.0001 3.53446C13.7993 3.53446 12.0151 5.31859 12.0151 7.51942C12.0151 9.72025 13.7993 11.5044 16.0001 11.5044Z" fill="white"/>
        <path d="M15.9999 9.52443C17.1072 9.52443 18.0049 8.62676 18.0049 7.51942C18.0049 6.41208 17.1072 5.51441 15.9999 5.51441C14.8925 5.51441 13.9949 6.41208 13.9949 7.51942C13.9949 8.62676 14.8925 9.52443 15.9999 9.52443Z" fill="#016273"/>
        <path d="M15.9999 32C18.1011 32.0027 20.1821 31.5903 22.1233 30.7864C24.0646 29.9824 25.8279 28.8029 27.3119 27.3154C25.8269 25.829 24.0636 24.6498 22.1226 23.8452C20.1816 23.0407 18.1011 22.6266 16 22.6266C13.8988 22.6266 11.8183 23.0407 9.87734 23.8452C7.93636 24.6498 6.17297 25.829 4.68799 27.3154C6.17201 28.8028 7.93529 29.9824 9.87655 30.7863C11.8178 31.5903 13.8988 32.0027 15.9999 32V32Z" fill="#FFF4C7"/>
    </g>
    <defs>
        <clipPath id="clip0">
            <rect width="32" height="32" fill="white"/>
        </clipPath>
    </defs>
</svg>
