<svg width="32" height="32" viewBox="0 0 32 32" fill="none" xmlns="http://www.w3.org/2000/svg">
    <g clip-path="url(#clip0_1088_110)">
        <path d="M32 16C32.0002 18.1012 31.5865 20.1818 30.7825 22.1231C29.9785 24.0644 28.7997 25.8284 27.314 27.3142C25.8282 28.8 24.0643 29.9784 22.123 30.7824C20.1817 31.5864 18.1012 32.0002 16 32C13.8988 32.0002 11.818 31.5864 9.87671 30.7824C7.93541 29.9784 6.17157 28.8 4.68579 27.3142C3.20001 25.8284 2.02153 24.0644 1.21753 22.1231C0.413526 20.1818 -0.000203509 18.1012 7.5097e-08 16C-0.000203509 13.8988 0.413526 11.8181 1.21753 9.8768C2.02153 7.9355 3.20001 6.17166 4.68579 4.68588C6.17157 3.2001 7.93541 2.0215 9.87671 1.2175C11.818 0.413496 13.8988 -0.000234027 16 -3.04425e-05C18.1012 -0.000234027 20.1817 0.413496 22.123 1.2175C24.0643 2.0215 25.8282 3.2001 27.314 4.68588C28.7997 6.17166 29.9785 7.9355 30.7825 9.8768C31.5865 11.8181 32.0002 13.8988 32 16V16Z" fill="#393534"/>
        <path d="M30.1389 16.1373C30.1387 19.8507 28.6634 23.412 26.0376 26.0378C23.4118 28.6636 19.8506 30.1388 16.1372 30.139C12.4238 30.1388 8.86259 28.6636 6.23682 26.0378C3.61104 23.412 2.13575 19.8507 2.1355 16.1373C2.13575 12.4239 3.61104 8.86268 6.23682 6.23691C8.86259 3.61113 12.4238 2.13584 16.1372 2.13559C19.8506 2.13584 23.4118 3.61113 26.0376 6.23691C28.6634 8.86268 30.1387 12.4239 30.1389 16.1373V16.1373Z" fill="#F2F2F2"/>
        <path d="M21.4343 12.1053L11.3811 22.3852L11.1614 18.2444L17.2249 12.1053L19.7383 9.49594L21.3657 8.9603L22.5469 9.26926L23.6523 10.1894L22.3203 11.7208L21.4343 12.1053Z" fill="white"/>
        <path d="M22.3472 12.3929L20.3352 14.4668H23.384L23.7273 14.1165C23.9692 13.8647 24.1606 13.5686 24.2905 13.2445C24.4189 12.9163 24.484 12.5668 24.4827 12.2144C24.484 11.5203 24.2242 10.8512 23.7549 10.3398L22.3677 11.7818C22.4409 11.8679 22.48 11.9778 22.4775 12.0908C22.4692 12.2033 22.4234 12.3097 22.3472 12.3929V12.3929Z" fill="#E1DED9"/>
        <path d="M14.0798 21.1205L12.4385 22.8235H15.4875L17.1423 21.1205H14.0798Z" fill="#E1DED9"/>
        <path d="M14.9043 20.2568H17.9531L19.7729 18.3684H16.7239L14.9043 20.2568Z" fill="#E1DED9"/>
        <path d="M22.553 15.4842H19.5042L17.5537 17.4962H20.6028L22.553 15.4842Z" fill="#E1DED9"/>
        <path d="M23.5603 9.59311C23.2465 9.26585 22.8708 9.00445 22.4548 8.82407C22.0428 8.64669 21.5988 8.55554 21.1501 8.55625C20.7015 8.55554 20.2575 8.64669 19.8455 8.82407C19.4292 9.00697 19.0532 9.27074 18.7397 9.60007L10.8428 17.758C10.7644 17.847 10.7228 17.9623 10.7261 18.0808V22.2833L8.54932 24.5564H9.74414L11.3579 22.8877H15.3955C15.4524 22.8896 15.5089 22.8778 15.5603 22.8534C15.6109 22.8291 15.6556 22.7939 15.6909 22.7503L23.5398 14.6198L23.5535 14.6061C24.1954 13.9331 24.5503 13.0366 24.5425 12.1065C24.5486 11.6432 24.4622 11.1833 24.2883 10.7538C24.1314 10.3193 23.8831 9.92359 23.5603 9.59324V9.59311ZM18.9734 10.5407L19.3167 10.1905C19.5543 9.94395 19.8391 9.7476 20.1541 9.61313C20.469 9.47866 20.8077 9.4088 21.1501 9.40769C21.4926 9.4088 21.8313 9.47866 22.1462 9.61313C22.4612 9.7476 22.746 9.94395 22.9836 10.1905C22.9974 10.2043 22.9972 10.218 23.011 10.218C23.4819 10.7366 23.7417 11.4129 23.739 12.1134C23.7361 12.8139 23.4659 13.4868 22.9836 13.9948L22.6401 14.3451H19.5913L21.5896 12.2712C21.6675 12.1925 21.7117 12.0866 21.7131 11.9759C21.7156 11.865 21.6764 11.7572 21.6033 11.6738C21.5895 11.6601 21.5896 11.6601 21.5896 11.6463C21.5516 11.6065 21.5057 11.575 21.4548 11.5537C21.404 11.5324 21.3495 11.5219 21.2944 11.5228C21.1837 11.5242 21.0777 11.5684 20.999 11.6463L18.9734 13.7477V10.5407ZM12.1887 22.0155L13.8298 20.3125H16.8789L15.2378 22.0155H12.1887ZM16.9751 17.0506L18.9253 15.0249H21.9741L20.0239 17.0506H16.9751ZM19.3579 17.7374L17.5381 19.6257H14.4893L16.3088 17.7374H19.3579ZM16.3569 13.2463L18.3071 11.2206V14.4275L16.3569 16.4532V13.2463ZM13.8711 15.8215L15.6909 13.9331V17.1399L13.8711 19.0283V15.8215ZM11.55 18.2318L13.2188 16.515V19.7219L11.55 21.4386" fill="#393534"/>
    </g>
    <defs>
        <clipPath id="clip0_1088_110">
            <rect width="32" height="32" fill="white"/>
        </clipPath>
    </defs>
</svg>
