<svg width="32" height="32" viewBox="0 0 32 32" fill="none" xmlns="http://www.w3.org/2000/svg">
    <path d="M16 32C24.8366 32 32 24.8366 32 16C32 7.16344 24.8366 0 16 0C7.16344 0 0 7.16344 0 16C0 24.8366 7.16344 32 16 32Z" fill="white"/>
    <path d="M24.0972 8.57434C23.4712 7.94381 22.722 7.4489 21.8964 7.12045C21.0708 6.79199 20.1864 6.63702 19.2984 6.66517H11.3564V14.3333C12.2234 14.6093 12.9801 15.1539 13.5171 15.8883C14.0541 16.6228 14.3436 17.5091 14.3436 18.4189C14.3436 19.3288 14.0541 20.215 13.5171 20.9495C12.9801 21.684 12.2234 22.2286 11.3564 22.5045V25.3348H15.6748V20.1593H19.3048C20.1929 20.1874 21.0773 20.0325 21.9029 19.704C22.7286 19.3755 23.4777 18.8806 24.1038 18.2501C24.7311 17.6141 25.2226 16.8574 25.5485 16.0258C25.8745 15.1942 26.028 14.305 25.9999 13.4122C26.0284 12.5188 25.8744 11.629 25.5472 10.7972C25.22 9.96534 24.7266 9.20898 24.0972 8.57434ZM20.7789 15.737C20.5073 16.0344 20.1746 16.2696 19.8036 16.4266C19.4327 16.5835 19.0322 16.6584 18.6296 16.6461H15.6684V10.1913H18.6296C19.032 10.1803 19.4321 10.2558 19.8029 10.4127C20.1737 10.5695 20.5065 10.804 20.7789 11.1004C21.349 11.7349 21.6495 12.5664 21.6167 13.4187C21.6525 14.2715 21.3516 15.1041 20.7789 15.737V15.737Z" fill="black"/>
    <path d="M9.129 21.5801C9.74785 21.5801 10.3528 21.3966 10.8674 21.0527C11.3819 20.7089 11.783 20.2202 12.0198 19.6485C12.2566 19.0768 12.3186 18.4476 12.1979 17.8407C12.0772 17.2337 11.7792 16.6762 11.3416 16.2386C10.904 15.801 10.3464 15.5029 9.73948 15.3822C9.13252 15.2615 8.50338 15.3234 7.93163 15.5602C7.35988 15.797 6.87119 16.1981 6.52737 16.7126C6.18354 17.2272 6.00001 17.8321 6 18.451C5.99999 18.8619 6.08092 19.2688 6.23816 19.6484C6.3954 20.0281 6.62588 20.373 6.91644 20.6636C7.20699 20.9541 7.55193 21.1846 7.93157 21.3419C8.3112 21.4991 8.71809 21.5801 9.129 21.5801V21.5801Z" fill="#FF3465"/>
</svg>
