<svg width="44" height="43" viewBox="0 0 44 43" fill="none" xmlns="http://www.w3.org/2000/svg">
<g clip-path="url(#clip0_2122_923)" filter="url(#filter0_d_2122_923)">
<path opacity="0.9" d="M22 35C30.8366 35 38 27.8366 38 19C38 10.1634 30.8366 3 22 3C13.1634 3 6 10.1634 6 19C6 27.8366 13.1634 35 22 35Z" fill="white"/>
<path d="M25.8171 18.1694C25.337 18.5956 24.5551 18.8265 23.4335 18.8265H18.4172V26.4698H20.5148V20.8145H23.6966C24.696 20.8145 25.5706 20.6354 26.315 20.2709L26.3162 20.2702C27.0736 19.8916 27.6682 19.3589 28.0951 18.6729C28.5239 17.9837 28.7348 17.1692 28.7348 16.2366C28.7348 15.3089 28.526 14.3642 28.0951 13.6717C27.6682 12.9856 27.0734 12.4601 26.3156 12.0959C25.571 11.7165 24.6962 11.5301 23.6966 11.5301H18.4172V13.5181H23.4335C24.5558 13.5181 25.338 13.7493 25.8182 14.1761C26.293 14.5982 26.5495 15.3562 26.5495 16.2366C26.5495 17.0921 26.2986 17.7276 25.8171 18.1694Z" fill="url(#paint0_linear_2122_923)"/>
<path fill-rule="evenodd" clip-rule="evenodd" d="M38 19C38 27.8365 30.8365 35 22 35C13.1634 35 6 27.8365 6 19C6 10.1634 13.1634 3 22 3C30.8365 3 38 10.1634 38 19ZM35.904 19C35.904 26.6789 29.6789 32.904 22 32.904C14.3211 32.904 8.096 26.6789 8.096 19C8.096 11.321 14.3211 5.096 22 5.096C29.6789 5.096 35.904 11.321 35.904 19Z" fill="url(#paint1_linear_2122_923)"/>
</g>
<defs>
<filter id="filter0_d_2122_923" x="0.666667" y="0.333333" width="42.6667" height="42.6667" filterUnits="userSpaceOnUse" color-interpolation-filters="sRGB">
<feFlood flood-opacity="0" result="BackgroundImageFix"/>
<feColorMatrix in="SourceAlpha" type="matrix" values="0 0 0 0 0 0 0 0 0 0 0 0 0 0 0 0 0 0 127 0" result="hardAlpha"/>
<feOffset dy="2.66667"/>
<feGaussianBlur stdDeviation="2.66667"/>
<feColorMatrix type="matrix" values="0 0 0 0 0.117647 0 0 0 0 0.117647 0 0 0 0 0.117647 0 0 0 0.1 0"/>
<feBlend mode="normal" in2="BackgroundImageFix" result="effect1_dropShadow_2122_923"/>
<feBlend mode="normal" in="SourceGraphic" in2="effect1_dropShadow_2122_923" result="shape"/>
</filter>
<linearGradient id="paint0_linear_2122_923" x1="79.8698" y1="11.2427" x2="79.8131" y2="40.0348" gradientUnits="userSpaceOnUse">
<stop stop-color="#FF2E72"/>
<stop offset="0.934908" stop-color="#4A125E"/>
</linearGradient>
<linearGradient id="paint1_linear_2122_923" x1="79.8699" y1="11.2428" x2="79.8132" y2="40.0348" gradientUnits="userSpaceOnUse">
<stop stop-color="#FF2E72"/>
<stop offset="0.934908" stop-color="#4A125E"/>
</linearGradient>
<clipPath id="clip0_2122_923">
<rect width="32" height="32" fill="white" transform="translate(6 3)"/>
</clipPath>
</defs>
</svg>
