<svg width="32" height="32" viewBox="0 0 32 32" fill="none" xmlns="http://www.w3.org/2000/svg">
    <path d="M16 32C24.8366 32 32 24.8366 32 16C32 7.16344 24.8366 0 16 0C7.16344 0 0 7.16344 0 16C0 24.8366 7.16344 32 16 32Z" fill="white"/>
    <path d="M25.726 10.066L23.417 11.231L24.405 11.944L25.726 10.066Z" fill="#0000CF"/>
    <path d="M18.5359 9.583L21.7529 13.447L21.4079 11.062L18.5359 9.583Z" fill="#0000AB"/>
    <path d="M18.5359 9.583L18.5409 9.593L18.5429 9.592L21.2979 15.476L21.7529 13.447L18.5359 9.583Z" fill="#0014BF"/>
    <path d="M18.541 9.593L16.895 9.918L21.298 15.476L18.543 9.592L18.541 9.593Z" fill="#0000CF"/>
    <path d="M16.8949 9.918L16.5239 13.605L21.2979 15.476L16.8949 9.918Z" fill="#0000E3"/>
    <path d="M16.8951 9.918L11.6021 14.299L16.5241 13.605L16.8951 9.918Z" fill="#0000CF"/>
    <path d="M21.2979 15.476L16.0339 16.903L18.9229 16.578L21.2979 15.476Z" fill="#0014BF"/>
    <path d="M16.034 16.903L13.126 17.4L16.084 17.897L16.034 16.903Z" fill="#001CD1"/>
    <path d="M18.9229 16.578L16.0339 16.903L16.0839 17.897L18.9229 16.578Z" fill="#0000AB"/>
    <path d="M16.5241 13.605L11.6021 14.299L16.0341 16.903L16.5241 13.605Z" fill="#0000AB"/>
    <path d="M11.6021 14.299L13.1261 17.4L16.0341 16.903L11.6021 14.299Z" fill="#0000CF"/>
    <path d="M11.6021 14.299L11.6581 18.47L13.1261 17.4L11.6021 14.299Z" fill="#0000AB"/>
    <path d="M9.10888 15.135L8.07788 16.232L9.69288 18.669L9.10888 15.135Z" fill="#001CD1"/>
    <path d="M8.07789 16.232L6.21289 16.256L8.08089 17.371L8.07789 16.232Z" fill="#0000AB"/>
    <path d="M6.21289 16.257L6.36189 17.027L8.08089 17.373V17.371L6.21289 16.257Z" fill="#0000E3"/>
    <path d="M6.21297 16.257L5.29297 17.972L6.36197 17.027L6.21297 16.257Z" fill="#0000CF"/>
    <path d="M4 18.345L5.218 18.544L5.293 17.972L4 18.345Z" fill="#0000AB"/>
    <path d="M6.36202 17.027L5.29302 17.972L5.21802 18.544L6.36202 17.027Z" fill="#0000E3"/>
    <path d="M8.08754 18.9863L8.08154 17.3731L8.08754 18.9863Z" fill="#404A80"/>
    <path d="M8.07788 16.232L8.08088 17.371V17.373L8.08688 18.986L9.69288 18.669L8.07788 16.232Z" fill="#0014BF"/>
    <path d="M8.54403 20.816L7.20703 21.354L7.38003 23.22L8.54403 20.816Z" fill="#0000CF"/>
    <path d="M7.20701 21.354L6.70801 23.543L7.38001 23.22L7.20701 21.354Z" fill="#0000AB"/>
    <path d="M6.16602 24.417L7.56002 24.131L7.38002 23.22L6.16602 24.417Z" fill="#0000CF"/>
    <path d="M6.70802 23.543L6.16602 24.417L7.38002 23.22L6.70802 23.543Z" fill="#0000E3"/>
    <path d="M9.69303 18.669L8.08703 18.986L7.20703 21.354L9.69303 18.669Z" fill="#0000AB"/>
    <path d="M9.69303 18.669L7.20703 21.354L8.54403 20.816L10.787 19.912L9.69303 18.669Z" fill="#0000E3"/>
    <path d="M11.6019 14.299L9.10889 15.135L9.69289 18.669L11.6019 14.299Z" fill="#0000CF"/>
    <path d="M11.6021 14.299L9.69312 18.669L11.6581 18.47L11.6021 14.299Z" fill="#0000E3"/>
    <path d="M11.6581 18.47L9.69312 18.669L10.7881 19.912L11.6581 18.47Z" fill="#0000AB"/>
    <path d="M21.2361 16.563L18.9231 16.578L19.7611 18.819L21.2361 16.563Z" fill="#0000CF"/>
    <path d="M21.2981 15.476L18.9231 16.578L21.2361 16.563L21.2981 15.476Z" fill="#0000E3"/>
    <path d="M18.9229 16.578L18.4709 18.577L19.7609 18.819L18.9229 16.578Z" fill="#0014BF"/>
    <path d="M18.4711 18.577L17.9131 19.623L19.7611 18.819L18.4711 18.577Z" fill="#0000CF"/>
    <path d="M18.4709 18.577L17.1419 18.654L16.7939 20.369L18.4709 18.577Z" fill="#0000CF"/>
    <path d="M18.4709 18.577L16.7939 20.369L17.9129 19.623L18.4709 18.577Z" fill="#0000AB"/>
    <path d="M25.617 9.686L23.417 11.231L25.726 10.066L25.617 9.686Z" fill="#0014BF"/>
    <path d="M25.6169 9.686L25.7259 10.066L27.4189 9.597L25.6169 9.686Z" fill="#0000BF"/>
    <path d="M23.46 12.504L24.46 13.208L25.203 12.99L26.85 12.506L23.46 12.504Z" fill="#0000BF"/>
    <path d="M26.376 12.127L24.824 12.327L23.46 12.504L26.85 12.506L26.376 12.127Z" fill="#00009E"/>
    <path d="M27.713 10.954L26.376 12.127L26.85 12.506L27.713 10.954Z" fill="#0014BF"/>
    <path d="M26.8501 12.506L28.0001 11.087L27.7131 10.954L26.8501 12.506Z" fill="#0000E3"/>
    <path d="M27.7129 10.954L27.9999 11.087L27.9509 10.282L27.7129 10.954Z" fill="#000F91"/>
    <path d="M21.7531 13.447L21.2981 15.476L22.0791 16.281L21.7531 13.447Z" fill="#0000AB"/>
    <path d="M24.4599 13.208L21.7529 13.447L22.0789 16.281L24.4599 13.208Z" fill="#0000CF"/>
    <path d="M21.408 11.062L21.753 13.447L24.46 13.208L21.408 11.062Z" fill="#0000E3"/>
    <path d="M24.406 11.944L23.46 12.504L24.824 12.327L24.406 11.944Z" fill="#0000AB"/>
    <path d="M21.408 11.062L23.46 12.504L24.405 11.944L21.408 11.062Z" fill="#0000CF"/>
    <path d="M21.408 11.062L24.405 11.944L23.417 11.231L21.408 11.062Z" fill="#0000AB"/>
    <path d="M24.4599 13.208L24.3359 17.696L25.5439 14.088L24.4599 13.208Z" fill="#0014BF"/>
    <path d="M24.4601 13.208L22.0791 16.281L24.3361 17.696L24.4601 13.208Z" fill="#0000E3"/>
    <path d="M25.203 12.99L24.46 13.208L25.544 14.088L25.203 12.99Z" fill="#0000AB"/>
    <path d="M25.5439 14.088L24.3359 17.696L25.6869 17.076L25.5439 14.088Z" fill="#0000AB"/>
    <path d="M16.5239 13.605L16.0339 16.903L21.2979 15.476L16.5239 13.605Z" fill="#0000CF"/>
</svg>
