<svg width="32" height="32" viewBox="0 0 32 32" fill="none" xmlns="http://www.w3.org/2000/svg">
    <path d="M16 32C24.8366 32 32 24.8366 32 16C32 7.16344 24.8366 0 16 0C7.16344 0 0 7.16344 0 16C0 24.8366 7.16344 32 16 32Z" fill="white"/>
    <path d="M21.9993 5.61475L23.4653 11.0769L17.9941 12.5421L16.5281 7.07253L21.9993 5.61475Z" fill="#69EE5F"/>
    <path d="M16.0003 4.00818L11.9951 8.00434L16.0003 12.0079L20.0055 8.00434L16.0003 4.00818Z" fill="#27D9E5"/>
    <path d="M17.3151 21.2937L16.3142 24.9151L18.5042 25.4846L20.0055 23.9833L17.3151 21.2937Z" fill="#27D9E5"/>
    <path d="M17.3151 21.2937L16.3142 24.9151L18.5042 25.4846L20.0055 23.9833L17.3151 21.2937Z" fill="#31D37D"/>
    <path d="M10.5539 17.4528L7.07631 16.521L6.53809 18.5285L8.0082 19.9978L10.5539 17.4528Z" fill="#27D9E5"/>
    <path d="M10.5539 17.4528L7.07631 16.521L6.53809 18.5285L8.0082 19.9978L10.5539 17.4528Z" fill="#05CCC2"/>
    <path d="M21.447 14.5348L24.9247 15.4667L25.4621 13.4592L23.9928 11.9899L21.447 14.5348Z" fill="#27D9E5"/>
    <path d="M21.447 14.5348L24.9247 15.4667L25.4621 13.4592L23.9928 11.9899L21.447 14.5348Z" fill="#4BD75F"/>
    <path d="M10.5539 14.5348L8.00817 11.9899L6.53809 13.4591L7.07634 15.4667L10.5539 14.5348Z" fill="#27D9E5"/>
    <path d="M10.5539 14.5348L8.00817 11.9899L6.53809 13.4591L7.07634 15.4667L10.5539 14.5348Z" fill="#05CCC5"/>
    <path d="M12.0133 12.008L11.0814 8.53198L9.07307 9.0694L8.53564 11.0769L12.0133 12.008Z" fill="#27D9E5"/>
    <path d="M12.0133 12.008L11.0814 8.53198L9.07307 9.0694L8.53564 11.0769L12.0133 12.008Z" fill="#05CBC4"/>
    <path d="M21.446 17.4528L23.9926 19.9978L25.4619 18.5285L24.9245 16.521L21.446 17.4528Z" fill="#27D9E5"/>
    <path d="M21.446 17.4528L23.9926 19.9978L25.4619 18.5285L24.9245 16.521L21.446 17.4528Z" fill="#46D661"/>
    <path d="M19.9949 20.0093L20.9193 23.4565L22.9088 22.9232L23.4651 20.9116L19.9949 20.0093Z" fill="#27D9E5"/>
    <path d="M19.9949 20.0093L20.9193 23.4565L22.9088 22.9232L23.4651 20.9116L19.9949 20.0093Z" fill="#40D568"/>
    <path d="M14.5409 21.4384L11.9951 23.9834L13.4644 25.4526L15.4728 24.9152L14.5409 21.4384Z" fill="#27D9E5"/>
    <path d="M14.5409 21.4384L11.9951 23.9834L13.4644 25.4526L15.4728 24.9152L14.5409 21.4384Z" fill="#1ED099"/>
    <path d="M12.0133 19.9797L8.53564 20.9116L9.07307 22.9183L11.0814 23.4566L12.0133 19.9797Z" fill="#27D9E5"/>
    <path d="M12.0133 19.9797L8.53564 20.9116L9.07307 22.9183L11.0814 23.4566L12.0133 19.9797Z" fill="#0ECDB4"/>
    <path d="M19.9875 12.0079L23.4652 11.0769L22.9269 9.06939L20.9194 8.53198L19.9875 12.0079Z" fill="#27D9E5"/>
    <path d="M19.9875 12.0079L23.4652 11.0769L22.9269 9.06939L20.9194 8.53198L19.9875 12.0079Z" fill="#54E65D"/>
    <path d="M14.5409 10.5494L15.4728 7.07258L13.4644 6.53516L11.9951 8.00444L14.5409 10.5494Z" fill="#27D9E5"/>
    <path d="M14.5409 10.5494L15.4728 7.07258L13.4644 6.53516L11.9951 8.00444L14.5409 10.5494Z" fill="#03CEC8"/>
    <path d="M17.4599 10.5494L20.0057 8.0044L18.5356 6.53516L16.5281 7.07258L17.4599 10.5494Z" fill="#27D9E5"/>
    <path d="M17.4599 10.5494L20.0057 8.0044L18.5356 6.53516L16.5281 7.07258L17.4599 10.5494Z" fill="#1ADD50"/>
    <path d="M17.3153 21.2937L16.0005 19.9797L14.5411 21.4384L15.473 24.9152L13.4646 25.4526L16.0005 27.9877L18.5044 25.4847L16.3144 24.9152L17.3153 21.2937Z" fill="#5ADE9E"/>
    <path d="M10.5539 17.4528L12.0133 15.9942L10.5539 14.5348L7.07625 15.4666L6.53803 13.4591L4.00293 15.9942L6.53803 18.5285L7.07625 16.521L10.5539 17.4528Z" fill="#3ADDD2"/>
    <path d="M21.447 14.5348L19.9875 15.9942L21.4462 17.4528L24.9246 16.521L25.462 18.5285L27.998 15.9942L25.462 13.4591L24.9245 15.4666L21.447 14.5348Z" fill="#74DF71"/>
    <path d="M12.0132 12.0079L14.0068 12.542L14.5409 10.5493L11.9951 8.0043L13.4644 6.53506L10.0016 5.6073L9.073 9.0693L11.0813 8.53196L12.0132 12.0079Z" fill="#42DDD3"/>
    <path d="M19.9949 20.0093L17.8255 19.4456L17.3152 21.2937L20.0056 23.9833L18.5043 25.4846L21.954 26.3811L22.9097 22.9232L20.9194 23.4565L19.9949 20.0093Z" fill="#6DDF84"/>
    <path d="M12.0134 19.9798L12.5475 17.987L10.554 17.4529L8.00818 19.9979L6.5381 18.5286L5.61035 21.9906L9.0732 22.9183L8.53577 20.9116L12.0134 19.9798Z" fill="#3FDDC7"/>
    <path d="M19.9875 12.008L19.4534 14.0016L21.4469 14.5349L23.9927 11.9899L25.462 13.4592L26.3905 9.99721L22.9269 9.06946L23.4651 11.077L19.9875 12.008Z" fill="#71DD6A"/>
    <path d="M10.5537 14.5349L12.5473 14.0016L12.0132 12.008L8.53553 11.077L9.07296 9.06946L5.61011 9.99721L6.53786 13.4592L8.00797 11.9899L10.5537 14.5349Z" fill="#3EDDD2"/>
    <path d="M23.9927 19.9978L21.4461 17.4528L19.4534 17.9869L19.9949 20.0093L23.4651 20.9115L22.9096 22.9232L26.3906 21.9905L25.462 18.5285L23.9927 19.9978Z" fill="#76E074"/>
    <path d="M14.5409 21.4383L14.0068 19.4456L12.0132 19.9797L11.0814 23.4565L9.073 22.9183L10.0016 26.3811L13.4644 25.4525L11.9951 23.9833L14.5409 21.4383Z" fill="#4BDEB5"/>
    <path d="M17.46 10.5493L17.9941 12.542L19.9877 12.0079L20.9195 8.53188L22.927 9.0693L21.9993 5.6073L18.5356 6.53506L20.0057 8.00434L17.46 10.5493Z" fill="#74EF6B"/>
    <path d="M14.5411 10.5493L16.0005 12.0079L17.46 10.5493L16.5281 7.07252L18.5356 6.5351L16.0005 4L13.4646 6.5351L15.473 7.07252L14.5411 10.5493Z" fill="#45E6DC"/>
</svg>
