<svg width="32" height="32" viewBox="0 0 32 32" fill="none" xmlns="http://www.w3.org/2000/svg">
    <path d="M16 32C24.8366 32 32 24.8366 32 16C32 7.16344 24.8366 0 16 0C7.16344 0 0 7.16344 0 16C0 24.8366 7.16344 32 16 32Z" fill="#252D43"/>
    <path d="M12.8654 15.5942C12.8654 17.4776 12.8614 19.361 12.8704 21.2443C12.8716 21.4841 12.8146 21.5684 12.5611 21.5624C11.8436 21.5454 11.1253 21.5504 10.4074 21.5603C10.206 21.5631 10.1151 21.5297 10.1157 21.2944C10.1241 18.308 10.1114 15.3216 10.1271 12.3354C10.1435 11.6572 10.4114 11.0092 10.8787 10.5174C11.3461 10.0256 11.9795 9.72505 12.656 9.67405C12.9035 9.65596 12.8654 9.80061 12.8654 9.944C12.8654 11.8274 12.8654 13.7108 12.8654 15.5942Z" fill="white"/>
    <path d="M19.1016 9.66705C17.446 9.6663 15.7902 9.67558 14.1347 9.65904C13.8277 9.65598 13.7611 9.74124 13.7617 10.0386C13.7713 15.2242 13.7733 20.4098 13.7679 25.5955C13.7679 25.7199 13.758 25.8443 13.7527 25.9687C13.7669 26.0502 13.7713 26.1331 13.7657 26.2157C13.7034 26.5474 13.8564 26.6047 14.1563 26.5966C14.9348 26.5757 15.7142 26.5899 16.4932 26.5902C16.4981 26.4865 16.5072 26.3827 16.5074 26.279C16.5091 24.842 16.5078 23.405 16.5114 21.9681C16.5126 21.5168 16.4369 21.5634 16.9327 21.5615C17.6616 21.5588 18.3905 21.5618 19.1194 21.5606C19.5029 21.582 19.8866 21.5224 20.2456 21.3857C20.6045 21.249 20.9307 21.0382 21.2028 20.7671C21.4749 20.496 21.6869 20.1707 21.8249 19.8122C21.963 19.4538 22.024 19.0703 22.0041 18.6867C22.0056 16.6458 22.0057 14.6049 22.0042 12.5639C22.025 12.1775 21.9641 11.7911 21.8256 11.4298C21.687 11.0686 21.4738 10.7405 21.1999 10.4672C20.926 10.1939 20.5976 9.98133 20.2361 9.84346C19.8745 9.70559 19.488 9.64547 19.1016 9.66705V9.66705ZM18.2933 18.8133C17.7831 18.8204 17.2725 18.8057 16.7626 18.8192C16.5513 18.8248 16.5041 18.7488 16.506 18.5498C16.5156 17.5709 16.5104 16.592 16.5104 15.6131C16.5104 14.6445 16.5205 13.6759 16.5036 12.7077C16.4991 12.4498 16.5838 12.3976 16.8191 12.4058C17.308 12.4228 17.7979 12.4062 18.2873 12.4122C18.4179 12.4034 18.5489 12.4228 18.6712 12.4693C18.7936 12.5157 18.9044 12.5881 18.9963 12.6813C19.0881 12.7746 19.1586 12.8866 19.2031 13.0097C19.2476 13.1328 19.265 13.264 19.2541 13.3944C19.2559 14.8732 19.2559 16.352 19.2542 17.8308C19.2673 17.9612 19.2517 18.0929 19.2083 18.2166C19.165 18.3402 19.095 18.4529 19.0034 18.5466C18.9118 18.6403 18.8007 18.7128 18.678 18.7588C18.5553 18.8049 18.424 18.8235 18.2933 18.8133Z" fill="white"/>
    <path d="M15.6009 8.30023C16.865 8.30023 17.8898 7.27547 17.8898 6.01135C17.8898 4.74724 16.865 3.72247 15.6009 3.72247C14.3368 3.72247 13.312 4.74724 13.312 6.01135C13.312 7.27547 14.3368 8.30023 15.6009 8.30023Z" fill="white"/>
</svg>
