<svg width="32" height="32" viewBox="0 0 32 32" fill="none" xmlns="http://www.w3.org/2000/svg">
    <path d="M16 32C24.8366 32 32 24.8366 32 16C32 7.16344 24.8366 0 16 0C7.16344 0 0 7.16344 0 16C0 24.8366 7.16344 32 16 32Z" fill="#414140"/>
    <path fill-rule="evenodd" clip-rule="evenodd" d="M14.8979 25.3655H17.0225C15.1231 22.3058 13.2241 19.2454 11.3273 16.1847C11.0413 15.7223 10.9577 15.2928 11.1722 14.7456C11.2741 14.4858 11.4908 14.2389 11.7005 14.0538C11.6385 13.97 11.5791 13.8842 11.5226 13.7964C11.2182 13.3238 10.9953 12.7994 10.8646 12.2416C8.92422 13.1822 8.48743 15.0626 9.60508 16.9345L14.8979 25.3655ZM14.0889 18.6476C15.3272 18.7895 16.4767 18.7834 17.716 18.6494C19.2131 18.4875 20.5644 18.124 21.4007 17.5744C22.2691 17.0042 22.8533 16.0969 22.8533 15.0378C22.8543 13.8124 22.0998 12.8581 21.0728 12.3111C20.9831 12.7664 20.8322 13.1955 20.6237 13.5913C20.5129 13.8017 20.3864 14.0017 20.2445 14.1901C20.4806 14.4311 20.6895 14.7383 20.6895 15.038C20.6895 15.5248 20.1307 16.0615 19.7229 16.2939C19.252 16.561 18.5555 16.7311 18.0172 16.7883C17.3174 16.8642 16.606 16.8957 15.9025 16.9092C15.5289 16.9092 15.1361 16.8883 14.7626 16.8669C14.1368 16.8311 13.454 16.7952 12.8481 16.6287L14.0889 18.6476Z" fill="white"/>
    <path fill-rule="evenodd" clip-rule="evenodd" d="M15.9651 3C17.8739 6.11439 17.2043 7.97846 16.9458 9.14424C16.5443 10.955 18.8359 11.5571 19.004 9.44651C19.0433 8.95426 19.0145 8.38156 18.9855 7.84244C21.3412 11.6194 19.8021 15.0303 15.9651 15.0304C12.7441 15.0306 10.9325 12.0863 12.2071 9.15398C12.0687 10.7057 13.1602 11.2043 12.9809 10.496C12.9353 10.3155 12.8351 10.0056 12.7721 9.378C12.4691 6.36488 16.1766 5.59522 15.9651 3Z" fill="#EA7437"/>
</svg>
