<svg width="32" height="32" viewBox="0 0 32 32" fill="none" xmlns="http://www.w3.org/2000/svg">
    <g clip-path="url(#clip0)">
        <path d="M16 32C24.8366 32 32 24.8366 32 16C32 7.16344 24.8366 0 16 0C7.16344 0 0 7.16344 0 16C0 24.8366 7.16344 32 16 32Z" fill="#5900F7"/>
        <path d="M16 1.34703e-05C12.8355 1.68322e-05 9.74206 0.938402 7.11088 2.69651C4.47969 4.45461 2.42893 6.95347 1.21793 9.87708C0.00693309 12.8007 -0.30992 16.0178 0.307442 19.1215C0.924804 22.2251 2.44865 25.0761 4.68629 27.3137L27.3137 4.68631C25.8296 3.19836 24.0661 2.01835 22.1245 1.21412C20.1829 0.409889 18.1015 -0.00271768 16 1.34703e-05V1.34703e-05Z" fill="#5900F7"/>
        <path d="M31.9999 16C32.0018 13.8733 31.5783 11.7678 30.7542 9.80728C29.9301 7.84677 28.7222 6.07093 27.2015 4.58429L4.6687 27.2944C6.90403 29.5375 9.75475 31.0668 12.8598 31.6886C15.9649 32.3104 19.1847 31.9967 22.1114 30.7872C25.038 29.5778 27.54 27.527 29.3003 24.8947C31.0606 22.2623 32.0002 19.1667 31.9999 16V16Z" fill="#333333"/>
        <path d="M21.3354 10.6637L21.2789 10.606L21.2225 10.5483L18.344 13.4909L18.4004 13.5486L18.4568 13.6063C21.7022 16.9528 22.3513 20.5012 21.3918 21.4821C21.2047 21.6369 20.9883 21.7525 20.7556 21.8219C20.5228 21.8913 20.2785 21.913 20.0372 21.8859C18.2029 21.8571 15.7195 20.5301 13.6876 18.4818L13.6312 18.4241L13.5747 18.3664L10.6963 21.309L10.7527 21.3667L10.8092 21.4244C13.6312 24.2804 17.0459 26.0113 19.9526 26.0402H20.0654C20.8368 26.0642 21.605 25.9308 22.3231 25.648C23.0412 25.3653 23.6941 24.9392 24.2421 24.3958C25.7942 22.8091 26.2457 20.3858 25.4838 17.5874C24.7069 14.9666 23.2799 12.5849 21.3354 10.6637V10.6637Z" fill="url(#paint0_linear)"/>
        <path d="M10.2457 11.8753C10.2051 11.381 10.3455 10.8889 10.6408 10.4905C10.8198 10.3408 11.0267 10.228 11.2495 10.1586C11.4723 10.0893 11.7066 10.0649 11.939 10.0866C12.4176 10.0995 12.8922 10.1772 13.35 10.3174C15.2576 10.9481 16.9756 12.0494 18.345 13.5197L21.2235 10.5771C19.3559 8.61945 17.0272 7.16139 14.4506 6.33629C11.7132 5.55737 9.34267 5.9901 7.76234 7.60564C7.21759 8.19388 6.79492 8.88433 6.51881 9.63701C6.2427 10.3897 6.11863 11.1897 6.15378 11.9906C6.21022 14.9909 7.87522 18.4816 10.669 21.3665L13.5757 18.3374C11.5721 16.2891 10.2739 13.7505 10.2457 11.8753Z" fill="url(#paint1_linear)"/>
    </g>
    <defs>
        <linearGradient id="paint0_linear" x1="16.2828" y1="23.3634" x2="27.5907" y2="13.0443" gradientUnits="userSpaceOnUse">
            <stop stop-color="#00FFFF"/>
            <stop offset="1" stop-color="#5900F7" stop-opacity="0"/>
        </linearGradient>
        <linearGradient id="paint1_linear" x1="2.62892" y1="19.8558" x2="16.7817" y2="8.27216" gradientUnits="userSpaceOnUse">
            <stop stop-color="#5900F7" stop-opacity="0"/>
            <stop offset="1" stop-color="white"/>
        </linearGradient>
        <clipPath id="clip0">
            <rect width="32" height="32" fill="white"/>
        </clipPath>
    </defs>
</svg>
