<svg width="32" height="32" viewBox="0 0 32 32" fill="none" xmlns="http://www.w3.org/2000/svg">
    <path d="M16 31.4433C24.5291 31.4433 31.4433 24.529 31.4433 15.9999C31.4433 7.47086 24.5291 0.556641 16 0.556641C7.47089 0.556641 0.556702 7.47086 0.556702 15.9999C0.556702 24.529 7.47089 31.4433 16 31.4433Z" fill="white"/>
    <path d="M16 0C7.16302 0 0 7.16302 0 16C0 24.837 7.16302 32 16 32C24.837 32 32 24.837 32 16C32 7.16302 24.837 0 16 0ZM16 31.0696C7.67689 31.0696 0.926521 24.3231 0.926521 16C0.926521 7.67689 7.67689 0.926521 16 0.926521C24.3231 0.926521 31.0696 7.67299 31.0696 15.9961C31.0696 24.3231 24.3231 31.0696 16 31.0696Z" fill="#2B5481"/>
    <path d="M16 1.67397C8.08563 1.67397 1.67395 8.08564 1.67395 16C1.67395 23.9105 8.08952 30.326 16 30.326C23.9104 30.326 30.326 23.9105 30.326 16C30.326 8.08564 23.9104 1.67397 16 1.67397ZM16 24.946C11.0598 24.946 7.054 20.9401 7.054 16C7.054 11.0599 11.0598 7.05401 16 7.05401C20.9401 7.05401 24.946 11.0599 24.946 16C24.946 20.9401 20.9401 24.946 16 24.946Z" fill="#2B5481"/>
    <path d="M21.8114 21.8102C25.0208 18.6009 25.0208 13.3976 21.8114 10.1883C18.6021 6.97904 13.3989 6.97904 10.1896 10.1883C6.98027 13.3976 6.98027 18.6009 10.1896 21.8102C13.3989 25.0195 18.6021 25.0195 21.8114 21.8102Z" fill="#2B5481"/>
    <path d="M23.3847 19.7217C19.2115 16.5022 17.2066 11.8035 17.2066 7.67693L16.1984 7.59518V7.56014L15.9959 7.57571L15.7935 7.56014V7.59518L14.7852 7.67693C14.7852 11.8035 12.7804 16.5022 8.60712 19.7178L8.59155 20.1733L9.83729 22.1976L11.9395 23.5718L13.2864 23.9572C13.0295 23.5679 12.5429 22.7232 12.5429 21.8628C12.5429 19.7684 14.501 18.6161 15.9453 18.6161H16.0465C17.4947 18.6161 19.449 19.7723 19.449 21.8628C19.449 22.7037 18.9857 23.529 18.721 23.93L20.0485 23.5718L22.1507 22.1976L23.3964 20.1733L23.3847 19.7217Z" fill="white"/>
    <path d="M16.8101 7.8209C16.5415 7.79365 16.2729 7.78197 15.9965 7.78197C15.724 7.78197 15.4515 7.79754 15.1829 7.8209C15.1517 11.1805 14.2291 13.8472 13.104 15.8637H18.8889C17.7639 13.8472 16.8413 11.1805 16.8101 7.8209ZM19.0408 16.1206H12.96C11.4963 18.6238 9.74443 20.0603 9.13324 20.5158C9.77947 21.4929 10.6281 22.326 11.6208 22.9527C11.1186 20.5625 13.2091 18.1917 15.8135 18.1917H16.1911C18.7955 18.1917 20.886 20.5586 20.3838 22.9527C21.3765 22.326 22.2252 21.4929 22.8714 20.5158C22.2524 20.0603 20.5045 18.6238 19.0408 16.1206Z" fill="#D33D42"/>
    <path d="M16.0112 22.3766C16.0852 22.3766 16.0813 22.2442 16.0813 22.2442C16.0813 22.0574 16.3071 21.707 16.3071 21.707C16.529 21.3761 16.5757 21.1386 16.5757 21.0063C16.5757 20.691 16.1825 19.8345 16.128 19.7177C16.0735 19.6048 16.0151 19.6126 16.0151 19.6126H15.9917C15.9917 19.6126 15.9333 19.6048 15.8788 19.7177C15.8243 19.8306 15.4312 20.691 15.4312 21.0063C15.4312 21.1425 15.4818 21.3761 15.6998 21.707C15.6998 21.707 15.9256 22.0574 15.9256 22.2442C15.9256 22.2442 15.9256 22.3766 15.9956 22.3766H16.0112Z" fill="#BBA15A"/>
    <path d="M14.0654 21.96C14.0654 21.7226 14.2639 21.3294 14.7038 21.3177C15.2255 21.306 15.6576 22.0807 15.6576 22.0807C15.6576 22.0807 15.8055 22.3182 15.7315 22.361C15.6576 22.4038 15.5135 22.2209 15.5135 22.2209C15.5135 22.2209 15.1554 21.7576 14.9335 21.7576C14.7116 21.7576 14.6843 21.9678 14.6843 21.9678C14.6843 21.9678 14.6688 22.108 14.8323 22.1391C14.9958 22.1703 14.9568 22.2754 14.9568 22.2754C14.9568 22.2754 14.9023 22.5128 14.5987 22.5128C14.2951 22.5128 14.0654 22.178 14.0654 21.96Z" fill="#BBA15A"/>
    <path d="M17.9346 21.96C17.9346 21.7226 17.7361 21.3294 17.2962 21.3177C16.7745 21.306 16.3424 22.0807 16.3424 22.0807C16.3424 22.0807 16.1945 22.3182 16.2685 22.361C16.3424 22.4038 16.4865 22.2209 16.4865 22.2209C16.4865 22.2209 16.8446 21.7576 17.0665 21.7576C17.2884 21.7576 17.3156 21.9678 17.3156 21.9678C17.3156 21.9678 17.3312 22.108 17.1677 22.1391C17.0042 22.1703 17.0431 22.2754 17.0431 22.2754C17.0431 22.2754 17.0976 22.5128 17.4013 22.5128C17.7049 22.5128 17.9346 22.178 17.9346 21.96Z" fill="#BBA15A"/>
    <path d="M16.2451 22.9411C16.2412 22.8593 16.1049 22.6218 16.0271 22.5634C16.0193 22.5557 16.0076 22.5518 16.0037 22.5518C16.0037 22.5518 16.0037 22.5518 15.9998 22.5518C15.9998 22.5518 15.9998 22.5518 15.9959 22.5518C15.9882 22.5518 15.9804 22.5557 15.9726 22.5634C15.8947 22.6218 15.7585 22.8593 15.7546 22.9411V22.945C15.7546 23.0345 15.9414 23.272 15.9998 23.272C15.9998 23.272 15.9998 23.272 16.0037 23.272C16.0621 23.272 16.249 23.0345 16.249 22.945C16.2451 22.9411 16.2451 22.9411 16.2451 22.9411Z" fill="#BBA15A"/>
    <path d="M22.7815 5.32168C22.2871 5.78883 22.5674 6.50903 22.9995 6.96061L23.4199 7.40051C23.8482 7.85209 24.2219 8.29978 23.8793 8.58397C23.5134 8.88762 22.4895 8.12849 21.8744 6.82825L21.3216 7.2409C21.454 7.58348 21.7499 8.07788 22.1508 8.49832C22.6024 8.97326 23.0968 9.2847 23.5367 9.37034C23.8832 9.43652 24.2297 9.38591 24.4555 9.17569C25.0238 8.65015 24.8175 7.87934 23.926 6.94114L23.5562 6.55185C23.1474 6.11973 23.3148 5.87058 23.4706 5.83555C24.0389 5.70319 25.0822 6.73871 25.2808 7.43944C25.4482 7.31487 25.8141 7.04236 25.8141 7.04236C25.4676 6.05744 24.3153 5.07642 23.4316 5.07642C23.1864 5.07642 22.9645 5.15039 22.7815 5.32168ZM6.82822 6.93725L7.85985 5.8044C8.09343 5.55136 8.48661 5.5319 8.74355 5.76158C9.00048 5.99516 9.01605 6.39224 8.78248 6.64528L7.75085 7.77813L6.82822 6.93725ZM7.39659 5.31389L5.81995 7.05015L8.56836 9.5572C8.73965 9.36645 8.92262 9.18737 9.10948 9.01219L8.24914 8.22971L9.31192 7.05793C9.79464 6.52849 9.79464 5.67983 9.2652 5.201C9.02384 4.98299 8.7163 4.87399 8.40486 4.87399C8.03114 4.87788 7.65742 5.02581 7.39659 5.31389ZM19.4258 6.91779C19.671 7.00732 19.9124 7.10854 20.1499 7.22144L21.6058 3.71779C21.3684 3.61268 21.1231 3.51146 20.8779 3.41803L19.4258 6.91779ZM11.6633 4.01754L12.7299 5.23993C12.3445 5.35282 11.9669 5.48518 11.5971 5.63701L11.6633 4.01754ZM11.0248 3.46474L10.7445 7.76255C10.9976 7.60684 11.2623 7.4628 11.5309 7.33044L11.5698 6.32995C12.0876 6.10027 12.6287 5.91341 13.1854 5.76547L13.8433 6.52071C14.1314 6.45842 14.4272 6.40781 14.727 6.37277L11.8229 3.18445C11.5543 3.2701 11.2895 3.36353 11.0248 3.46474ZM15.9572 3.22338H17.3664C17.7129 3.22338 17.9932 3.50367 17.9932 3.85015C17.9932 4.19662 17.7129 4.47691 17.3664 4.47691H15.9572V3.22338ZM15.1903 2.55379V6.32216C15.4433 6.3027 15.6963 6.29102 15.9572 6.29102V5.1465H16.9187L17.7479 6.45453C18.0749 6.51292 18.398 6.59078 18.7134 6.68032L17.7168 5.09978C18.2852 4.94796 18.7562 4.44577 18.7562 3.85404C18.7562 3.13774 18.0788 2.55769 17.3664 2.55769H15.1903V2.55379Z" fill="white"/>
    <path d="M8.24117 24.6112L8.7239 24.3776L8.57596 24.9032L8.24117 24.6112ZM7.40417 24.7864L7.56379 24.9382L8.03873 24.7085L8.51757 25.1251L8.36574 25.6389L8.54482 25.7791L8.97694 24.2647L8.80565 24.1168L7.40417 24.7864Z" fill="white"/>
    <path d="M8.97754 26.0905L9.14494 26.2033L9.93131 24.9849L9.76002 24.8681L8.97754 26.0905Z" fill="white"/>
    <path d="M9.71289 26.5655L9.88418 26.6706L10.3903 25.6895L10.6355 27.0715L10.8146 27.1533L11.4647 25.8803L11.2856 25.783L10.7912 26.7484H10.7873L10.546 25.3859L10.3669 25.2886L9.71289 26.5655Z" fill="white"/>
    <path d="M11.7838 26.2423L12.247 26.4097L11.8499 27.5815L12.0407 27.6477L12.4378 26.4759L12.901 26.6433L12.9711 26.4487L11.8499 26.0477L11.7838 26.2423Z" fill="white"/>
    <path d="M15.2992 27.5699C15.2914 28.0565 15.6768 28.3251 16.0505 28.3329C16.4009 28.3368 16.6812 28.1694 16.6851 27.9125L16.6929 27.531L16.0505 27.5193L16.0466 27.7256L16.4865 27.7334L16.4826 27.893C16.4826 28.0137 16.3075 28.1266 16.0622 28.1227C15.7079 28.1149 15.4938 27.8619 15.4977 27.5777C15.5016 27.2779 15.7196 27.0327 16.0933 27.0366C16.3464 27.0404 16.4554 27.1728 16.5216 27.2429L16.6656 27.0988C16.5838 27.0171 16.4126 26.8341 16.0778 26.8302C16.0739 26.8302 16.0661 26.8302 16.0622 26.8302C15.6223 26.8341 15.307 27.1611 15.2992 27.5699Z" fill="white"/>
    <path d="M17.0977 26.8185L17.2962 28.2394L18.468 28.0681L18.4407 27.8618L17.4675 28.0058L17.4091 27.5698L17.8801 27.5036L17.8529 27.2973L17.3779 27.3674L17.3273 26.9937L18.2616 26.8574L18.2344 26.6511L17.0977 26.8185Z" fill="white"/>
    <path d="M18.9705 26.6706L19.57 26.4876C19.6829 26.4526 19.8075 26.4564 19.8542 26.6122C19.8931 26.7445 19.8347 26.8496 19.6868 26.8925L19.0872 27.0754L18.9705 26.6706ZM19.5077 26.289L18.7174 26.5343L19.1223 27.9085L19.3169 27.854L19.1495 27.2779L19.6478 27.1221L20.0839 27.6127L20.2941 27.5348L19.8542 27.0482C19.9632 27.0054 20.1306 26.8496 20.0449 26.5499C19.9826 26.3397 19.8347 26.2618 19.6751 26.2618C19.6206 26.2618 19.5622 26.2735 19.5077 26.289Z" fill="white"/>
    <path d="M22.5909 24.9421L23.0542 25.2185L22.696 25.4793L22.5909 24.9421ZM22.3574 24.7981L22.6532 26.3436L22.8323 26.2268L22.735 25.7051L23.245 25.3314L23.6771 25.6039L23.8523 25.4599L22.5403 24.6657L22.3574 24.7981Z" fill="white"/>
    <path d="M23.2722 24.0896L24.226 25.1407L24.3739 25.0044L23.4163 23.9495L23.2722 24.0896Z" fill="white"/>
    <path d="M24.533 22.7504L25.3271 23.4783L25.3232 23.4822L23.9724 23.3849L23.84 23.5406L24.8833 24.5061L25.0274 24.3582L24.2254 23.6185V23.6146L25.588 23.708L25.7125 23.5562L24.6692 22.5947L24.533 22.7504Z" fill="white"/>
    <path d="M21.4188 25.4092L21.3876 26.4291L20.5662 25.8569L20.3871 25.9503L20.9983 27.2428L21.1813 27.161L20.757 26.2423L20.7609 26.2384L21.5745 26.8029L21.6056 25.7985L21.6095 25.7946L22.0884 26.69L22.2635 26.5888L21.5979 25.3158L21.4188 25.4092Z" fill="white"/>
    <path d="M6.94501 22.6608C6.87883 22.7114 6.8399 22.7776 6.82822 22.8594C6.80876 22.9878 6.85937 23.1513 6.96448 23.2915L7.11241 23.4978C7.2292 23.6574 7.3382 23.8209 7.31484 23.9533C7.30705 24.0078 7.27591 24.0467 7.2292 24.0818C7.20195 24.0973 7.1708 24.109 7.13966 24.109C6.93723 24.109 6.59465 23.7392 6.42336 23.2097L6.41946 23.2019L6.27153 23.3421L6.26764 23.346V23.3499C6.29878 23.4822 6.38832 23.6964 6.53625 23.8988C6.69197 24.1129 6.87105 24.2608 7.03455 24.3153C7.08905 24.3348 7.13966 24.3426 7.19027 24.3426C7.26423 24.3426 7.32652 24.3231 7.37713 24.2881C7.45888 24.2258 7.50559 24.1518 7.52117 24.0584C7.54452 23.8871 7.45888 23.6652 7.26034 23.3927L7.12798 23.2136C7.02287 23.0696 7.02676 22.9762 7.05012 22.9217C7.06959 22.8749 7.11241 22.8438 7.15912 22.836C7.16691 22.836 7.17469 22.836 7.18248 22.836C7.42384 22.836 7.76253 23.2448 7.85207 23.564L7.85596 23.5718L7.86375 23.5679C7.91435 23.5367 7.97275 23.5056 8.00778 23.4822L8.01168 23.4783V23.4745C7.89878 23.0346 7.46277 22.6063 7.13577 22.6063C7.06569 22.5946 6.99951 22.618 6.94501 22.6608Z" fill="white"/>
    <path d="M13.6794 27.4686L14.1777 27.5815L14.2206 27.3751L13.7223 27.2622L13.6794 27.4686Z" fill="white"/>
</svg>
