<svg width="32" height="32" viewBox="0 0 32 32" fill="none" xmlns="http://www.w3.org/2000/svg">
    <path d="M16 32C24.8366 32 32 24.8366 32 16C32 7.16344 24.8366 0 16 0C7.16344 0 0 7.16344 0 16C0 24.8366 7.16344 32 16 32Z" fill="white"/>
    <path fill-rule="evenodd" clip-rule="evenodd" d="M12.307 23.853L12.266 23.557L12.245 23.279L12.241 23.012L12.262 22.758L12.3 22.508L12.359 22.268L12.443 22.028L12.544 21.792L12.665 21.552L12.808 21.309L13.152 20.801L13.583 20.245L14.08 19.682L14.58 19.182L15.088 18.723L15.599 18.296L16.634 17.465L17.687 16.572L18.018 16.266L18.358 15.922L18.702 15.55L19.039 15.15L19.366 14.73L19.668 14.295L19.936 13.843L20.165 13.388L20.235 13.214L20.294 13.041L20.381 12.703L20.44 12.384L20.471 12.095L20.482 11.849V11.657L20.478 11.536L20.475 11.491L20.638 11.675L20.85 11.928L21.09 12.238L21.344 12.599L21.594 13.002L21.83 13.444L22.032 13.91L22.119 14.153L22.188 14.396L22.278 14.817L22.334 15.248L22.355 15.679L22.341 16.116L22.292 16.558L22.212 17.003L22.101 17.451L21.959 17.903L21.785 18.351L21.583 18.803L21.093 19.71L20.499 20.61L19.8 21.5L18.462 23.081L17.302 24.506L16.398 25.691L16.061 26.168L15.818 26.55L15.731 26.724L15.651 26.911L15.519 27.307L15.418 27.714L15.341 28.107L15.289 28.458L15.254 28.743L15.234 29L15.175 28.861L15.126 28.705L15.084 28.534L15.053 28.35L15.011 27.947L15.004 27.502L15.036 27.026L15.098 26.525L15.195 26.004L15.327 25.479L15.533 24.816L15.8 24.12L16.116 23.404L16.471 22.689L16.853 21.98L17.253 21.298L17.656 20.652L18.052 20.061L18.334 19.648L18.591 19.23L19.029 18.448L19.324 17.868L19.432 17.642L19.081 17.958L18.678 18.292L17.732 18.998L15.39 20.579L14.824 20.951L14.285 21.344L13.788 21.757L13.558 21.976L13.346 22.205L13.152 22.445L12.975 22.695L12.822 22.96L12.693 23.238L12.589 23.53L12.512 23.835L12.467 24.159L12.45 24.499L12.307 23.853Z" fill="url(#paint0_linear_1091_124)"/>
    <path fill-rule="evenodd" clip-rule="evenodd" d="M19.55 7.473L19.533 7.821L19.488 8.147L19.411 8.456L19.307 8.748L19.178 9.026L19.025 9.291L18.848 9.541L18.654 9.781L18.442 10.01L18.212 10.229L17.715 10.646L17.176 11.042L16.61 11.425L15.38 12.227L14.281 12.982L13.333 13.684L12.926 14.017L12.568 14.334L12.676 14.111L12.971 13.538L13.409 12.756L13.666 12.335L13.948 11.915L14.354 11.324L14.761 10.681L15.161 10L15.54 9.298L15.891 8.585L16.203 7.876L16.467 7.184L16.672 6.521L16.805 5.985L16.902 5.461L16.964 4.96L16.996 4.484L16.989 4.043L16.947 3.643L16.916 3.462L16.874 3.295L16.825 3.139L16.766 3L16.749 3.254L16.718 3.532L16.669 3.876L16.596 4.262L16.495 4.665L16.356 5.061L16.276 5.245L16.183 5.419L15.939 5.812L15.602 6.291L14.702 7.48L12.231 10.504L11.522 11.386L10.921 12.283L10.424 13.187L10.222 13.638L10.045 14.094L9.90202 14.546L9.79102 14.994L9.70802 15.442L9.66302 15.887L9.64502 16.325L9.66602 16.763L9.72202 17.19L9.81202 17.614L9.88802 17.861L9.97502 18.101L10.184 18.57L10.42 19.008L10.67 19.411L10.921 19.769L11.157 20.075L11.362 20.318L11.525 20.496L11.522 20.45L11.518 20.329V20.137L11.529 19.891L11.56 19.599L11.619 19.279L11.706 18.939L11.765 18.768L11.835 18.594L12.064 18.146L12.339 17.701L12.644 17.263L12.975 16.839L13.319 16.436L13.67 16.061L14.014 15.713L14.344 15.407L15.394 14.532L16.429 13.711L16.937 13.284L17.437 12.825L17.931 12.325L18.417 11.762L18.855 11.206L19.206 10.695L19.352 10.451L19.474 10.208L19.575 9.972L19.651 9.732L19.71 9.489L19.748 9.238L19.766 8.981L19.762 8.71L19.738 8.429L19.696 8.13L19.55 7.473Z" fill="url(#paint1_linear_1091_124)"/>
    <defs>
        <linearGradient id="paint0_linear_1091_124" x1="17.2981" y1="29" x2="17.2981" y2="11.4905" gradientUnits="userSpaceOnUse">
            <stop stop-color="#F05C38"/>
            <stop offset="1" stop-color="#FAB41C"/>
        </linearGradient>
        <linearGradient id="paint1_linear_1091_124" x1="14.7054" y1="20.4955" x2="14.7054" y2="3" gradientUnits="userSpaceOnUse">
            <stop stop-color="#F5852B"/>
            <stop offset="1" stop-color="#FCCB15"/>
        </linearGradient>
    </defs>
</svg>
