<svg width="32" height="32" viewBox="0 0 32 32" fill="none" xmlns="http://www.w3.org/2000/svg">
    <path d="M16 32C24.8366 32 32 24.8366 32 16C32 7.16344 24.8366 0 16 0C7.16344 0 0 7.16344 0 16C0 24.8366 7.16344 32 16 32Z" fill="white"/>
    <path opacity="0.9" d="M24.7743 22.0582C24.7743 22.4346 24.4154 22.7208 23.9711 22.7208C23.5269 22.7208 23.1692 22.4321 23.1692 22.0582V11.9035C23.1702 11.8866 23.1645 11.8699 23.1532 11.8572C23.1419 11.8445 23.1261 11.8369 23.1091 11.8359C23.1078 11.8358 23.1065 11.8357 23.1052 11.8357C23.0626 11.8357 23.0425 11.8357 23.0212 11.8533L16.6626 19.9851C16.5202 20.1319 16.3338 20.228 16.1316 20.2588C15.9295 20.2896 15.7228 20.2534 15.5432 20.1557C15.447 20.1212 15.3653 20.0554 15.311 19.9688L8.9738 11.8533C8.94119 11.8371 8.90449 11.831 8.86839 11.8357C8.84706 11.8357 8.82572 11.8696 8.82572 11.9035V22.0582C8.82572 22.4346 8.44925 22.7208 8.00251 22.7208C7.57961 22.7208 7.2207 22.4321 7.2207 22.0582V9.93081C7.22298 9.8154 7.25791 9.703 7.32142 9.60661C7.38494 9.51023 7.47445 9.4338 7.5796 9.38618C7.75664 9.28795 7.96185 9.25295 8.16144 9.28694C8.36103 9.32092 8.54309 9.42187 8.67764 9.57316L15.6913 18.5055C15.7279 18.548 15.7733 18.5821 15.8243 18.6055C15.8753 18.6288 15.9307 18.6409 15.9868 18.6409C16.0429 18.6409 16.0983 18.6288 16.1493 18.6055C16.2003 18.5821 16.2457 18.548 16.2823 18.5055L23.2797 9.60704C23.36 9.49979 23.4657 9.4141 23.5872 9.3576C23.7087 9.30111 23.8424 9.27558 23.9762 9.28328C24.4204 9.28328 24.7793 9.57316 24.7793 9.93081L24.7743 22.0582Z" fill="url(#paint0_linear)"/>
    <path d="M24.7743 22.0695C24.7743 22.4272 24.4154 22.7158 23.9711 22.7158C23.8373 22.7235 23.7037 22.698 23.5822 22.6415C23.4607 22.585 23.355 22.4993 23.2747 22.392L16.2824 13.4935C16.2457 13.451 16.2003 13.417 16.1494 13.3936C16.0984 13.3702 16.0429 13.3582 15.9868 13.3582C15.9307 13.3582 15.8753 13.3702 15.8243 13.3936C15.7733 13.417 15.7279 13.451 15.6913 13.4935L8.67764 22.4272C8.54296 22.5783 8.36091 22.6791 8.16138 22.713C7.96185 22.747 7.7567 22.7122 7.5796 22.6142C7.47463 22.5663 7.38528 22.4898 7.3218 22.3935C7.25832 22.2971 7.22328 22.1849 7.2207 22.0695V9.93838C7.2207 9.56191 7.5796 9.27454 8.00251 9.27454C8.44549 9.27454 8.82572 9.56316 8.82572 9.93838V20.0956C8.82572 20.1294 8.84706 20.1633 8.86839 20.1633C8.90436 20.1677 8.94085 20.1621 8.9738 20.147L15.3111 12.0303C15.3656 11.944 15.4473 11.8783 15.5432 11.8433C15.7229 11.7458 15.9295 11.7097 16.1316 11.7406C16.3337 11.7714 16.5201 11.8674 16.6626 12.014L23.0212 20.147C23.0425 20.1633 23.0626 20.1633 23.1053 20.1633C23.1222 20.1634 23.1385 20.1566 23.1505 20.1447C23.1626 20.1327 23.1693 20.1164 23.1694 20.0994C23.1694 20.0981 23.1693 20.0968 23.1693 20.0956V9.93838C23.1693 9.56191 23.5282 9.27454 23.9711 9.27454C24.4141 9.27454 24.7743 9.56316 24.7743 9.93838L24.7743 22.0695Z" fill="url(#paint1_linear)"/>
    <defs>
        <linearGradient id="paint0_linear" x1="16" y1="22.7208" x2="16" y2="9.27426" gradientUnits="userSpaceOnUse">
            <stop stop-color="#3F5CAA"/>
            <stop offset="0.2" stop-color="#3F5FAC"/>
            <stop offset="0.33" stop-color="#4168B2"/>
            <stop offset="0.46" stop-color="#4378BD"/>
            <stop offset="0.57" stop-color="#468ECC"/>
            <stop offset="0.64" stop-color="#48A0D9"/>
            <stop offset="0.8" stop-color="#3ABBEC"/>
            <stop offset="0.9" stop-color="#35C6F4"/>
        </linearGradient>
        <linearGradient id="paint1_linear" x1="15.9975" y1="22.7257" x2="15.9975" y2="9.27454" gradientUnits="userSpaceOnUse">
            <stop stop-color="#4068B1"/>
            <stop offset="0.13" stop-color="#3D7FC1"/>
            <stop offset="0.39" stop-color="#39A5DD"/>
            <stop offset="0.59" stop-color="#36BDEE"/>
            <stop offset="0.72" stop-color="#35C6F4"/>
        </linearGradient>
    </defs>
</svg>
