<svg width="32" height="32" viewBox="0 0 32 32" fill="none" xmlns="http://www.w3.org/2000/svg">
    <path d="M16 32C24.8366 32 32 24.8366 32 16C32 7.16344 24.8366 0 16 0C7.16344 0 0 7.16344 0 16C0 24.8366 7.16344 32 16 32Z" fill="white"/>
    <path d="M9.43506 4.16589L16.0408 11.9057L20.4725 9.29766C20.4725 9.29766 15.121 2.14678 13.6995 2.65155C12.3617 3.15635 9.43506 4.16589 9.43506 4.16589Z" fill="black"/>
    <path d="M20.6396 9.29773C21.3284 7.99934 21.8349 6.61219 22.1447 5.17546C22.1447 5.17546 27.1617 7.19455 25.2385 12.2422L20.6396 9.29773Z" fill="black"/>
    <path d="M25.2385 12.2423L25.6566 17.5424L27.5798 17.29C27.5798 17.29 28.0815 17.1217 27.9979 16.1963C27.9143 15.1868 27.747 13.0836 27.747 13.0836C27.747 13.0836 27.8306 12.5788 26.66 12.4106C25.2385 12.1582 25.2385 12.2423 25.2385 12.2423Z" fill="black"/>
    <path d="M25.6567 17.5424L21.8103 20.6551L23.5663 24.1043C23.5663 24.1043 23.9844 25.4503 25.2387 23.9361C26.4093 22.4218 26.911 22.1694 26.8273 21.244C26.7437 20.3186 26.4929 18.1313 25.6567 17.5424Z" fill="black"/>
    <path d="M21.7267 20.6549L16.4588 18.2994L11.8599 27.6376C11.8599 27.6376 11.5254 28.3106 12.6961 28.3947C13.8667 28.563 15.7899 28.9836 16.7933 27.9741C17.7967 27.0487 21.7267 20.6549 21.7267 20.6549Z" fill="black"/>
    <path d="M16.4588 18.2153L15.9571 11.9898L4.5852 12.747C4.5852 12.747 3.91627 12.8311 3.99991 14.093C4.08353 15.7756 4.25076 17.6264 4.25076 17.6264C4.25076 17.6264 4.16715 18.3835 5.67225 18.4676C7.17732 18.5518 16.2916 18.5518 16.4588 18.2153Z" fill="black"/>
</svg>
