<svg width="32" height="32" viewBox="0 0 32 32" fill="none" xmlns="http://www.w3.org/2000/svg">
    <path d="M16 32C24.8366 32 32 24.8366 32 16C32 7.16344 24.8366 0 16 0C7.16344 0 0 7.16344 0 16C0 24.8366 7.16344 32 16 32Z" fill="#4CBBFD"/>
    <path d="M23.3134 15.9996C23.3141 14.5873 22.9035 13.2054 22.1318 12.0226L24.9997 9.15439L22.8459 7L19.9797 9.86821C18.7967 9.09669 17.4147 8.68591 16.0023 8.68591C14.5899 8.68591 13.208 9.09669 12.0249 9.86821L9.1544 7L7 9.15439L9.86821 12.0223C9.09669 13.2054 8.68591 14.5873 8.68591 15.9997C8.68591 17.4121 9.09669 18.7941 9.86821 19.9771L7 22.8456L9.1544 25L12.0226 22.1318C13.2057 22.9033 14.5876 23.3141 16 23.3141C17.4124 23.3141 18.7943 22.9033 19.9774 22.1318L22.8456 25L24.9997 22.8456L22.1318 19.9797C22.9041 18.7961 23.3147 17.413 23.3134 15.9996ZM11.7336 15.9996C11.7324 15.3631 11.8737 14.7344 12.1471 14.1596C12.4205 13.5848 12.819 13.0784 13.3135 12.6776C13.808 12.2768 14.3858 11.9917 15.0048 11.8432C15.6237 11.6947 16.2681 11.6866 16.8906 11.8194C17.5131 11.9523 18.098 12.2227 18.6024 12.6109C19.1068 12.9992 19.5179 13.4953 19.8057 14.0631C20.0935 14.6308 20.2506 15.2557 20.2655 15.8921C20.2804 16.5284 20.1528 17.16 19.8919 17.7406L17.0776 14.9224L14.9224 17.0773L17.7378 19.8919C17.0886 20.1838 16.3767 20.3083 15.667 20.2541C14.9574 20.1998 14.2726 19.9685 13.6754 19.5814C13.0781 19.1942 12.5875 18.6635 12.2483 18.0378C11.909 17.4121 11.7321 16.7114 11.7336 15.9996Z" fill="white"/>
</svg>
