<svg width="32" height="32" viewBox="0 0 32 32" fill="none" xmlns="http://www.w3.org/2000/svg">
    <path d="M16 32C24.8366 32 32 24.8366 32 16C32 7.16344 24.8366 0 16 0C7.16344 0 0 7.16344 0 16C0 24.8366 7.16344 32 16 32Z" fill="#54A4DB"/>
    <path fill-rule="evenodd" clip-rule="evenodd" d="M27.288 23.4095C27.0058 23.4106 26.733 23.511 26.5175 23.6931L24.3782 21.8591L26.0212 16.799C26.0397 16.8003 26.0574 16.8046 26.0764 16.8046C26.2978 16.8046 26.5102 16.7166 26.6668 16.56C26.8234 16.4034 26.9113 16.1911 26.9113 15.9696C26.9113 15.7482 26.8234 15.5358 26.6668 15.3792C26.5102 15.2226 26.2978 15.1347 26.0764 15.1347C26.0575 15.1347 26.0397 15.139 26.0209 15.1402L24.5863 10.7214C24.6838 10.6611 24.7677 10.5814 24.8329 10.4872C24.8981 10.393 24.9432 10.2864 24.9653 10.174C24.9874 10.0616 24.986 9.94581 24.9613 9.83395C24.9366 9.72208 24.8891 9.61653 24.8217 9.52389C24.7543 9.43125 24.6685 9.35352 24.5696 9.29558C24.4708 9.23763 24.3611 9.20071 24.2473 9.18714C24.1336 9.17356 24.0182 9.18362 23.9086 9.21668C23.7989 9.24973 23.6972 9.30508 23.6099 9.37926L19.8262 6.64473C19.8688 6.53881 19.8891 6.42526 19.8859 6.31115C19.8828 6.19703 19.8562 6.08478 19.8078 5.98138C19.7594 5.87798 19.6902 5.78564 19.6047 5.7101C19.5191 5.63455 19.4189 5.57742 19.3102 5.54225C19.2016 5.50708 19.087 5.49463 18.9733 5.50566C18.8597 5.5167 18.7496 5.55098 18.6498 5.60639C18.5499 5.6618 18.4626 5.73715 18.3931 5.82775C18.3237 5.91835 18.2736 6.02226 18.246 6.13304H13.6651C13.6377 6.02205 13.5877 5.91789 13.5183 5.82705C13.4489 5.73622 13.3615 5.66065 13.2616 5.60506C13.1617 5.54947 13.0514 5.51505 12.9376 5.50394C12.8238 5.49283 12.709 5.50528 12.6002 5.54049C12.4915 5.57571 12.3911 5.63295 12.3055 5.70865C12.2198 5.78434 12.1506 5.87687 12.1023 5.98046C12.0539 6.08406 12.0274 6.1965 12.0244 6.31079C12.0214 6.42507 12.042 6.53874 12.0848 6.64473L8.30137 9.37926C8.21399 9.30584 8.11243 9.2512 8.00302 9.21871C7.89362 9.18623 7.77869 9.17661 7.66541 9.19044C7.55212 9.20428 7.44289 9.24127 7.34451 9.29913C7.24613 9.35698 7.16071 9.43446 7.09356 9.52674C7.02641 9.61903 6.97896 9.72414 6.95417 9.83555C6.92938 9.94695 6.92778 10.0623 6.94946 10.1743C6.97115 10.2864 7.01565 10.3928 7.08022 10.4869C7.14478 10.581 7.22801 10.6608 7.32475 10.7214L5.89722 15.1193C5.87632 15.1177 5.85633 15.1131 5.83492 15.1131C5.61348 15.1131 5.40112 15.201 5.24454 15.3576C5.08796 15.5142 5 15.7265 5 15.948C5 16.1694 5.08796 16.3818 5.24454 16.5383C5.40112 16.6949 5.61348 16.7829 5.83492 16.7829C5.8516 16.7829 5.86697 16.779 5.88337 16.7782L7.32508 21.2187C7.22811 21.2787 7.14448 21.3579 7.0794 21.4515C7.01431 21.5451 6.96916 21.6511 6.94673 21.7628C6.92429 21.8746 6.92507 21.9898 6.949 22.1013C6.97294 22.2127 7.01952 22.3181 7.08586 22.4108C7.15219 22.5035 7.23688 22.5816 7.33465 22.6403C7.43242 22.6989 7.54119 22.7368 7.65423 22.7517C7.76726 22.7665 7.88214 22.758 7.99174 22.7266C8.10134 22.6952 8.20332 22.6416 8.29135 22.5692L12.0846 25.2971C12.0423 25.4031 12.0223 25.5165 12.0257 25.6306C12.0291 25.7446 12.0559 25.8567 12.1044 25.9599C12.153 26.0631 12.2222 26.1553 12.3078 26.2307C12.3935 26.306 12.4937 26.363 12.6022 26.398C12.7108 26.433 12.8254 26.4453 12.9389 26.4342C13.0524 26.4231 13.1624 26.3888 13.2622 26.3334C13.3619 26.278 13.4491 26.2027 13.5185 26.1122C13.5879 26.0216 13.638 25.9178 13.6656 25.8071H18.2467C18.2741 25.9179 18.3241 26.0219 18.3934 26.1126C18.4627 26.2032 18.5499 26.2787 18.6496 26.3342C18.7493 26.3898 18.8594 26.4242 18.973 26.4354C19.0866 26.4466 19.2012 26.4344 19.3099 26.3994C19.4185 26.3644 19.5188 26.3075 19.6045 26.2321C19.6902 26.1567 19.7595 26.0645 19.8081 25.9612C19.8567 25.8579 19.8835 25.7458 19.8869 25.6317C19.8903 25.5176 19.8702 25.404 19.8278 25.2981L24.1321 22.184L26.2525 24.0019C26.1166 24.2314 26.0605 24.4994 26.0928 24.7641C26.1251 25.0288 26.2442 25.2754 26.4313 25.4653C26.6185 25.6553 26.8632 25.778 27.1274 25.8144C27.3916 25.8507 27.6604 25.7986 27.8919 25.6661C28.1233 25.5337 28.3045 25.3284 28.4071 25.0822C28.5096 24.8361 28.5279 24.5629 28.4589 24.3053C28.39 24.0477 28.2378 23.8201 28.0259 23.6581C27.8141 23.496 27.5547 23.4086 27.288 23.4095ZM24.2784 11.0903L25.6335 15.2645C25.4523 15.3788 25.3221 15.5586 25.2701 15.7665H24.7718H24.5741C24.5423 15.6252 24.4742 15.4947 24.3764 15.3879C24.2787 15.281 24.1548 15.2015 24.017 15.1573L24.2784 11.0903ZM23.8888 10.8073L23.6111 15.1282C23.5913 15.1318 23.5724 15.1374 23.5531 15.1424L21.8287 11.8815C21.9343 11.7895 22.0141 11.6715 22.06 11.5392C22.1059 11.4069 22.1164 11.2649 22.0905 11.1272L22.3144 11.0301L23.4849 10.5232C23.5876 10.6566 23.7285 10.7557 23.8888 10.8073ZM19.2124 15.1513C19.0841 15.1246 18.9511 15.1311 18.8261 15.1703L16.5268 11.1847C16.6118 11.1053 16.6793 11.0089 16.7248 10.9018L20.4457 11.3636C20.4704 11.5758 20.5763 11.7702 20.7412 11.9061L19.2124 15.1513ZM21.1119 12.0842C21.2303 12.1089 21.3529 12.1052 21.4697 12.0736L23.1958 15.3369C23.0713 15.4515 22.9848 15.6013 22.9476 15.7664H21.4465L19.8587 15.7661C19.8172 15.6019 19.7263 15.4543 19.5983 15.3432L21.1119 12.0842ZM18.4717 15.3723C18.3615 15.4802 18.2834 15.6166 18.2463 15.7662H13.6649C13.6275 15.6162 13.5492 15.4796 13.4386 15.3716L15.7402 11.3821C15.8807 11.4242 16.0305 11.4242 16.171 11.3821L18.4717 15.3723ZM13.0836 15.1699C13.0105 15.1479 12.9348 15.1362 12.8586 15.1351C12.8047 15.1353 12.751 15.1407 12.6982 15.1513L11.1704 11.9075C11.336 11.7715 11.4425 11.5767 11.4676 11.3639L15.1807 10.8841C15.2243 10.995 15.2911 11.0953 15.3766 11.1782L13.0836 15.1699ZM12.3314 15.3279C12.1939 15.4405 12.0962 15.5941 12.0525 15.7662L10.5746 15.7665H8.98706C8.94651 15.6056 8.85867 15.4606 8.73488 15.3502L10.4489 12.0753C10.5649 12.1056 10.6864 12.1086 10.8038 12.084L12.3314 15.3279ZM8.98706 16.1737H10.5736H12.0521C12.0958 16.346 12.1935 16.4997 12.331 16.6123L10.8016 19.8603C10.6845 19.8361 10.5633 19.8393 10.4476 19.8697L8.73417 16.5907C8.85841 16.4803 8.94653 16.3349 8.98706 16.1737ZM12.6984 16.789C12.7512 16.7995 12.8048 16.8048 12.8586 16.8051C12.9355 16.804 13.0119 16.7922 13.0855 16.7699L15.3754 20.7397C15.2895 20.8236 15.2227 20.925 15.1794 21.0369L11.4672 20.5764C11.4412 20.3644 11.3344 20.1707 11.169 20.0356L12.6984 16.789ZM13.4396 16.5679C13.5498 16.4599 13.6279 16.3233 13.6651 16.1735H18.246C18.2831 16.3233 18.3612 16.4599 18.4714 16.5679L16.182 20.5385C16.0347 20.4918 15.8764 20.4918 15.729 20.5385L13.4396 16.5679ZM18.8259 16.7699C18.8994 16.7922 18.9757 16.804 19.0525 16.8051C19.1062 16.8048 19.1599 16.7995 19.2126 16.789L20.7427 20.037C20.5783 20.1719 20.4721 20.365 20.4463 20.5761L16.7316 21.037C16.6884 20.925 16.6216 20.8237 16.5358 20.7398L18.8259 16.7699ZM19.5798 16.6121C19.7173 16.4996 19.8151 16.3458 19.8587 16.1735H21.2442H22.9615C23.005 16.3278 23.0921 16.4662 23.2123 16.5722L21.4681 19.87C21.3511 19.8389 21.2284 19.8355 21.1099 19.8601L19.5798 16.6121ZM19.5861 6.97335L23.3697 9.70773C23.3302 9.80575 23.3097 9.91039 23.3094 10.0161C23.3102 10.0609 23.3147 10.1056 23.3229 10.1496L21.9259 10.7547C21.8487 10.6541 21.7494 10.5725 21.6357 10.5163C21.522 10.46 21.3969 10.4306 21.2701 10.4303C21.2216 10.4309 21.1734 10.4358 21.1258 10.4449L19.6537 7.17585L19.5686 6.98748C19.5748 6.98309 19.5804 6.97812 19.5861 6.97335ZM18.7421 7.11043C18.8863 7.17076 19.0453 7.18687 19.1987 7.1567L19.4223 7.65303L20.7553 10.613C20.6407 10.7026 20.5515 10.8207 20.4966 10.9554L16.7794 10.4748C16.7605 10.3218 16.6991 10.1772 16.6022 10.0573L18.7421 7.11043ZM13.6651 6.54008H18.2462C18.2764 6.65894 18.3326 6.7696 18.4109 6.86401L16.248 9.79943C16.0541 9.72346 15.8382 9.72542 15.6457 9.80491L13.4982 6.86671C13.5775 6.77163 13.6345 6.66003 13.6651 6.54008ZM12.8586 7.17136C12.965 7.17108 13.0704 7.15035 13.1691 7.11028L15.309 10.0571C15.2125 10.1765 15.1512 10.3204 15.1319 10.4727L11.4177 10.9586C11.3632 10.8229 11.2741 10.7039 11.1592 10.6135L12.713 7.15656C12.761 7.16576 12.8097 7.17064 12.8586 7.17136ZM12.325 6.97335C12.3308 6.97807 12.3367 6.98327 12.3426 6.98786L10.7888 10.445C10.639 10.4161 10.4841 10.4301 10.3419 10.4854C10.1997 10.5406 10.0761 10.635 9.9852 10.7575L8.58816 10.1506C8.61673 10.0016 8.60046 9.84749 8.54141 9.70773L12.325 6.97335ZM8.42555 10.5239L9.8225 11.1308C9.79673 11.2688 9.80781 11.4113 9.85462 11.5437C9.90143 11.6762 9.98232 11.7939 10.0891 11.8851L8.37497 15.1603C8.35928 15.1565 8.34382 15.153 8.3277 15.1501L8.02627 10.806C8.18461 10.7541 8.32371 10.6558 8.42555 10.5239ZM7.63705 20.8636L6.27135 16.6566C6.4484 16.5467 6.57785 16.3744 6.63419 16.1738H7.15339H7.37433C7.40877 16.3097 7.47704 16.4348 7.57279 16.5372C7.66853 16.6397 7.78864 16.7163 7.92194 16.7599L7.63705 20.8636ZM7.37452 15.7666H7.15339H6.64762C6.59969 15.5518 6.4687 15.3648 6.28326 15.2463L7.63691 11.0765L7.9218 15.1805C7.78855 15.2241 7.66849 15.3007 7.57281 15.4032C7.47712 15.5056 7.40891 15.6307 7.37452 15.7666ZM8.02632 21.134L8.32775 16.7902C8.34373 16.7875 8.3589 16.7839 8.37431 16.7803L9.97253 19.8389L10.0882 20.0599C9.98199 20.1505 9.90152 20.2674 9.85481 20.3989C9.8081 20.5304 9.79679 20.6719 9.82202 20.8091L8.42106 21.4105C8.31975 21.2813 8.18237 21.185 8.02632 21.134ZM12.3234 24.9675L8.53744 22.2448C8.59962 22.1018 8.61737 21.9433 8.58839 21.7901L9.98406 21.1855C10.0612 21.2873 10.1608 21.37 10.2752 21.4269C10.3895 21.4839 10.5155 21.5137 10.6432 21.514C10.6916 21.5135 10.7398 21.5086 10.7873 21.4994L12.3422 24.9519C12.3358 24.9571 12.3296 24.9623 12.3234 24.9675ZM13.1691 24.8295C13.0249 24.7686 12.8659 24.7525 12.7124 24.7831L12.3773 24.0391L11.1578 21.3316C11.2745 21.24 11.3646 21.1189 11.4189 20.9808L12.3189 21.0924L15.1314 21.4412C15.1506 21.5993 15.2152 21.7483 15.3174 21.8704L14.9541 22.371L13.1691 24.8295ZM18.2462 25.3995H13.6651C13.6342 25.2788 13.5766 25.1665 13.4964 25.071L15.6453 22.112C15.844 22.1939 16.0671 22.1939 16.2659 22.112L18.4146 25.071C18.3344 25.1664 18.2769 25.2787 18.2462 25.3995ZM19.1987 24.7831C19.0453 24.7525 18.8862 24.7686 18.7421 24.8295L17.862 23.6175L16.5935 21.8704C16.6956 21.7483 16.7601 21.5992 16.7794 21.4412L19.6344 21.0872L20.4941 20.9803C20.5458 21.1117 20.6299 21.2278 20.7386 21.3178L19.2516 24.6659L19.1987 24.7831ZM19.587 24.967C19.5813 24.9623 19.5755 24.9571 19.5694 24.9524L19.6221 24.8342L21.1239 21.4994C21.2726 21.5281 21.4264 21.5145 21.5678 21.4602C21.7092 21.4059 21.8325 21.313 21.9238 21.1921L23.7318 21.9683L19.587 24.967ZM22.0908 20.8127C22.1165 20.6754 22.1056 20.5337 22.0593 20.4018C22.013 20.27 21.9329 20.1526 21.8269 20.0615L22.7906 18.2398L23.5734 16.7599C23.585 16.7627 23.5966 16.7654 23.6083 16.7675L23.9192 21.6048L22.0908 20.8127ZM24.0142 16.7395C24.1449 16.6976 24.2632 16.6241 24.3585 16.5253C24.4538 16.4266 24.5231 16.3058 24.5604 16.1738H24.7719H25.2703C25.3227 16.3812 25.4529 16.5606 25.6339 16.6748L24.2784 20.8494L24.0142 16.7395Z" fill="white"/>
</svg>
