<svg width="32" height="32" viewBox="0 0 32 32" fill="none" xmlns="http://www.w3.org/2000/svg">
    <path d="M16 32C24.8366 32 32 24.8366 32 16C32 7.16344 24.8366 0 16 0C7.16344 0 0 7.16344 0 16C0 24.8366 7.16344 32 16 32Z" fill="white"/>
    <path fill-rule="evenodd" clip-rule="evenodd" d="M7.02116 15.1937C8.57297 13.9479 10.4887 13.2423 12.4778 13.1839C13.7979 13.1126 15.1212 13.2437 16.4015 13.5729C16.5614 13.612 16.7203 13.7115 16.9278 13.5999C16.5627 12.6729 15.6375 12.355 14.8541 11.7215C16.81 11.5373 18.7766 11.9381 20.5044 12.8732C22.0773 13.6643 23.3998 14.8766 24.3245 16.3749C25.2492 17.8732 25.7399 19.5988 25.7418 21.3595C25.8526 25.0409 23.3903 28.002 19.5337 29.0389C17.6914 29.5235 15.7678 29.6153 13.8877 29.3083C12.0076 29.0014 10.213 28.3026 8.62047 27.2572C7.02792 26.2119 5.67296 24.8433 4.64353 23.2405C3.61409 21.6376 2.93319 19.8361 2.645 17.9531C2.51549 17.3861 2.47479 16.8024 2.52434 16.2229C2.7209 16.4072 2.86678 16.639 2.94799 16.8959C3.41519 17.8639 3.99098 18.7756 4.66424 19.6135C5.92662 21.2574 7.75999 22.3678 9.80172 22.7248C11.8435 23.0819 13.9448 22.6597 15.6902 21.5418C16.4052 21.069 16.9954 20.4305 17.4105 19.6806C17.7872 19.0011 17.8886 18.2029 17.6936 17.4508C17.4986 16.6987 17.0223 16.0503 16.3629 15.6394C14.8225 14.9285 13.0982 14.7178 11.4319 15.037C10.9413 15.0732 10.4807 15.2868 10.1362 15.638C9.79629 16.0419 10.215 16.3966 10.2267 16.8347C9.60714 16.8015 9.00151 16.6382 8.44923 16.3554C7.89694 16.0727 7.41037 15.6768 7.02116 15.1937V15.1937Z" fill="#172C5F"/>
    <path fill-rule="evenodd" clip-rule="evenodd" d="M7.02115 15.1936C7.41059 15.6767 7.89727 16.0725 8.4496 16.3553C9.00192 16.6381 9.60754 16.8016 10.2271 16.8352C10.2154 16.3966 9.79674 16.0423 10.1367 15.6385C10.4812 15.2873 10.9418 15.0736 11.4324 15.0375C13.0986 14.7183 14.8229 14.929 16.3632 15.6399C17.0227 16.0507 17.4991 16.6991 17.6941 17.4512C17.889 18.2033 17.7877 19.0015 17.4109 19.681C16.9958 20.4309 16.4056 21.0694 15.6906 21.5422C13.9452 22.6601 11.8439 23.0823 9.80215 22.7252C7.76043 22.3682 5.92707 21.2578 4.66469 19.6139C3.99142 18.7761 3.41564 17.8644 2.94844 16.8964C2.86705 16.6395 2.72119 16.4078 2.52478 16.2233C2.50411 14.0526 3.00899 11.9091 3.99631 9.97584C4.98363 8.04256 6.42408 6.37689 8.19471 5.121C9.96533 3.86511 12.0135 3.0563 14.1645 2.76361C16.3155 2.47092 18.5054 2.70303 20.5472 3.44015C19.7543 4.46158 18.7942 5.34143 17.7076 6.04244C17.487 6.18876 17.3682 6.16039 17.3168 5.8709C17.2547 5.43942 17.0814 5.03153 16.8139 4.68727C15.8221 6.36975 14.0639 6.84563 12.472 7.57227C12.1262 7.69634 11.8217 7.91414 11.5926 8.20132C11.3634 8.4885 11.2187 8.83374 11.1744 9.19847C11.1096 9.70587 11.6449 9.88866 11.7724 10.4699C11.1569 9.9616 10.8498 10.329 10.4974 10.6509C10.2388 10.8735 9.95395 11.0636 9.64913 11.2168C9.4838 11.3453 9.28501 11.4237 9.07645 11.4424C8.86788 11.4612 8.65831 11.4196 8.4727 11.3226C8.09226 11.0682 8.31828 10.6585 8.33088 10.3051C6.52009 10.9462 5.5242 13.6179 6.3472 15.6146C6.57273 15.4732 6.79693 15.3337 7.02115 15.1936Z" fill="#428AC9"/>
    <path fill-rule="evenodd" clip-rule="evenodd" d="M21.8605 4.0547C24.1258 5.06515 26.0261 6.74711 27.3041 8.873C28.275 10.3854 28.9263 12.0803 29.2182 13.8536C29.5101 15.6269 29.4363 17.4411 29.0014 19.1849C28.8161 18.0804 28.5212 16.9971 28.1213 15.951C27.4195 14.4183 26.3858 13.0608 25.0949 11.9768C25.9895 11.8913 26.794 12.3919 27.7215 12.4275C27.6728 12.3033 27.6656 12.2213 27.6211 12.1817C27.4783 12.0556 27.3221 11.9453 27.1708 11.8292C27.2428 11.3974 26.8917 11.2479 26.6378 11.0372C24.5253 9.29256 21.9566 8.19063 19.2366 7.86222C19.5913 7.5061 19.9736 7.18239 20.3113 6.8024C20.9617 5.96881 21.4839 5.04268 21.8605 4.0547Z" fill="#428AC9"/>
    <path fill-rule="evenodd" clip-rule="evenodd" d="M21.8605 4.0547C21.4842 5.04294 20.962 5.96926 20.3113 6.80286C19.9736 7.18286 19.5914 7.50656 19.2366 7.86268C18.4114 8.49402 17.4834 8.97808 16.4934 9.29349C16.5463 9.19484 16.5935 9.09322 16.6348 8.98914C16.7933 8.56627 17.0363 8.18012 17.3489 7.85425C17.6615 7.52837 18.0373 7.26959 18.4532 7.0937C19.4483 6.56823 20.2856 5.78758 20.8795 4.83179C20.9412 4.80342 21.0069 4.7602 20.9479 4.69357C20.9254 4.66836 20.834 4.70437 20.7741 4.71248C20.612 4.71648 20.4603 4.8633 20.2343 4.71833C21.0642 3.76034 21.6935 2.64569 22.0852 1.44026C22.3148 2.46452 21.852 3.24115 21.8605 4.0547Z" fill="#172C5F"/>
    <path fill-rule="evenodd" clip-rule="evenodd" d="M27.1709 11.8296C27.3222 11.9458 27.4784 12.0561 27.6211 12.1821C27.6657 12.2217 27.6729 12.3037 27.7215 12.4279C26.7941 12.3924 25.9895 11.8917 25.0949 11.9773C24.1949 11.3633 23.2289 10.8524 22.2148 10.4542C23.0909 10.4536 23.9554 10.655 24.741 11.0426C24.7987 11.0575 24.8563 11.0732 24.9135 11.0894L24.9108 10.8944C25.0535 10.6828 25.0616 10.668 25.2075 10.7472C25.8643 11.1025 26.5167 11.4672 27.1709 11.8296Z" fill="#172C5F"/>
    <path fill-rule="evenodd" clip-rule="evenodd" d="M14.6804 8.17649C14.9706 7.9618 15.2987 7.80371 15.6475 7.71049C15.606 8.79822 14.7371 9.53434 13.3293 9.69057C13.2843 9.3574 13.603 9.40648 13.7583 9.31598C13.9878 9.20762 14.1899 9.04889 14.3496 8.8516C14.5092 8.65431 14.6223 8.42354 14.6804 8.17649V8.17649Z" fill="#172C5F"/>
    <path fill-rule="evenodd" clip-rule="evenodd" d="M14.6804 8.17649C14.6223 8.42355 14.5092 8.65432 14.3495 8.85161C14.1899 9.04891 13.9878 9.20764 13.7583 9.316C13.603 9.40649 13.2842 9.35742 13.3292 9.69059C13.1014 9.8171 12.8268 9.89048 12.6805 9.65007C12.5355 9.411 12.7385 9.17643 12.92 9.0139C13.423 8.58489 14.0302 8.29605 14.6804 8.17649V8.17649Z" fill="#428AC9"/>
    <path fill-rule="evenodd" clip-rule="evenodd" d="M7.2229 13.0542C7.41784 12.4284 7.64521 12.1042 8.17917 12.106C8.35296 12.1065 8.51817 12.052 8.53394 12.301C8.54745 12.5099 8.51053 12.7354 8.2458 12.681C7.88022 12.6053 7.61729 12.7998 7.2229 13.0542Z" fill="#428AC9"/>
</svg>
