<svg width="32" height="32" viewBox="0 0 32 32" fill="none" xmlns="http://www.w3.org/2000/svg">
    <g clip-path="url(#clip0_1100_227)">
        <path fill-rule="evenodd" clip-rule="evenodd" d="M32 16C32 19.1645 31.0616 22.2579 29.3035 24.8891C27.5454 27.5203 25.0466 29.5711 22.1229 30.7821C19.1993 31.9931 15.9823 32.3099 12.8786 31.6926C9.77487 31.0752 6.92394 29.5513 4.6863 27.3137C2.44866 25.0761 0.924806 22.2251 0.307443 19.1214C-0.309921 16.0177 0.0069325 12.8007 1.21793 9.87706C2.42894 6.95345 4.4797 4.45459 7.11088 2.69649C9.74207 0.938384 12.8355 0 16 0C20.2435 0 24.3131 1.68571 27.3137 4.68629C30.3143 7.68687 32 11.7565 32 16Z" fill="#5555FF"/>
        <path d="M16.3928 22.6188C16.1512 19.9893 16.5344 16.4453 18.0844 14.7283C19.2789 14.8383 20.4805 14.6142 21.5549 14.0808C22.6294 13.5474 23.5344 12.7258 24.169 11.7078C25.2456 9.65363 25.0504 6.63899 25.6531 5.81818C18.5543 5.81818 17.3765 13.156 15.3437 18.6511C13.8407 14.5881 9.1237 11.8501 5.0249 13.5202C6.69127 14.6721 7.73035 17.5125 9.9882 17.7667C10.5733 17.8457 11.1682 17.7316 11.6826 17.4417C12.1969 17.1519 12.6027 16.7022 12.8384 16.1609C14.849 17.7941 14.556 19.7748 14.2946 22.6189C14.0825 23.6589 13.9341 24.7109 13.8503 25.769C13.934 27.3773 16.7534 27.3773 16.8371 25.769C16.7533 24.7109 16.6049 23.6589 16.3928 22.6188V22.6188Z" fill="url(#paint0_linear_1100_227)"/>
    </g>
    <defs>
        <linearGradient id="paint0_linear_1100_227" x1="15.339" y1="5.81818" x2="15.339" y2="26.9752" gradientUnits="userSpaceOnUse">
            <stop stop-color="#00FF19"/>
            <stop offset="1" stop-color="#00B81E"/>
        </linearGradient>
        <clipPath id="clip0_1100_227">
            <rect width="32" height="32" fill="white"/>
        </clipPath>
    </defs>
</svg>
