<svg width="32" height="32" viewBox="0 0 32 32" fill="none" xmlns="http://www.w3.org/2000/svg">
    <path d="M16 32C24.8366 32 32 24.8366 32 16C32 7.16344 24.8366 0 16 0C7.16344 0 0 7.16344 0 16C0 24.8366 7.16344 32 16 32Z" fill="white"/>
    <path d="M19.142 17.862L15.962 19.717L12.782 17.862V14.145L15.962 12.283L19.142 14.145V17.862Z" fill="#00B5D1"/>
    <path d="M15.9999 4L5.66553 10.0038V21.9962L15.9999 28L26.3343 21.9962V10.0038L15.9999 4ZM10.9652 18.9073V13.0625L15.9621 10.1476L20.9589 13.0625V18.9073L15.9621 21.8221L10.9652 18.9073ZM10.9652 22.2763V20.2473L17.7261 24.1994L15.9999 25.2063L10.9652 22.2763ZM23.9116 20.6032L18.8769 23.5332L17.0901 22.4884L22.1021 19.5584V12.4114L15.9696 8.83029L9.83714 12.4114V21.6177L8.09582 20.6032V11.3968L16.0075 6.80126L23.9116 11.3968V20.6032Z" fill="#0D285A"/>
</svg>
