<svg width="32" height="32" viewBox="0 0 32 32" fill="none" xmlns="http://www.w3.org/2000/svg">
    <g clip-path="url(#clip0_1101_238)">
        <path d="M16 32C19.1645 32 22.2579 31.0616 24.8891 29.3035C27.5203 27.5454 29.5711 25.0466 30.7821 22.1229C31.9931 19.1993 32.3099 15.9823 31.6926 12.8786C31.0752 9.77487 29.5513 6.92394 27.3137 4.6863C25.0761 2.44866 22.2251 0.924806 19.1214 0.307443C16.0177 -0.309921 12.8007 0.0069325 9.87706 1.21793C6.95345 2.42894 4.45459 4.4797 2.69649 7.11088C0.938384 9.74207 0 12.8355 0 16C0 20.2435 1.68571 24.3131 4.68629 27.3137C7.68687 30.3143 11.7565 32 16 32Z" fill="black"/>
        <path fill-rule="evenodd" clip-rule="evenodd" d="M23.2239 20.1839C23.2239 24.9257 19.3986 26.4 16.5296 26.4C15.6343 26.3723 14.7431 26.2677 13.8657 26.0874C13.0895 25.9265 12.3011 25.8312 11.5089 25.8024C10.6368 25.7544 9.76831 25.9474 8.99859 26.3602V18.3908H9.03842C10.2736 21.2996 12.5051 26.0016 16.8085 26.0016C19.0001 26.0016 20.5143 24.8062 20.5143 22.4552C20.5143 20.9468 19.2807 20.0063 17.2801 19.1258V13.9984C20.8886 15.293 23.2239 16.891 23.2239 20.1839ZM15.2801 13.2428C12.5908 12.1765 11.2698 11.3584 11.2698 9.58473C11.2698 7.23373 13.0629 6.03836 15.0951 6.03836C17.8445 6.03836 19.9962 8.38936 22.2276 12.6928H22.2675L21.9089 5.87901C21.4906 5.9762 21.0632 6.02962 20.6338 6.03839C19.9277 6.0269 19.2234 5.96384 18.5265 5.84971C17.4968 5.6875 16.4563 5.60402 15.4139 5.60001C12.4254 5.60001 8.6001 7.31346 8.6001 11.8161C8.6001 14.5656 9.79552 16.4782 14.3381 17.9924C14.6614 18.1083 14.9755 18.2222 15.2802 18.3339L15.2801 13.2428Z" fill="white"/>
        <path d="M17.2 2.79993H15.2V5.99993H17.2V2.79993Z" fill="white"/>
        <path d="M17.2 25.9999H15.2V29.1999H17.2V25.9999Z" fill="white"/>
    </g>
    <defs>
        <clipPath id="clip0_1101_238">
            <rect width="32" height="32" fill="white"/>
        </clipPath>
    </defs>
</svg>
