<svg width="32" height="32" viewBox="0 0 32 32" fill="none" xmlns="http://www.w3.org/2000/svg">
    <path d="M16 32C24.8366 32 32 24.8366 32 16C32 7.16344 24.8366 0 16 0C7.16344 0 0 7.16344 0 16C0 24.8366 7.16344 32 16 32Z" fill="white"/>
    <path d="M29.5043 10.5636C29.4297 10.357 29.2769 10.188 29.0788 10.0929C28.9685 10.0399 28.8477 10.0124 28.7254 10.0125C28.5687 10.0136 28.4155 10.0586 28.2832 10.1424C28.1508 10.2262 28.0446 10.3454 27.9766 10.4865C27.7571 10.9458 27.5133 11.3931 27.2463 11.8265C26.2054 9.02094 24.1534 6.70569 21.4932 5.33518C18.833 3.96468 15.7566 3.63788 12.8678 4.41892C9.97908 5.19996 7.48652 7.03245 5.87936 9.55674C4.27219 12.081 3.66648 15.1148 4.1811 18.0627C3.53458 18.9128 2.97825 19.8278 2.5211 20.7931C2.42692 20.9916 2.41549 21.2195 2.48931 21.4265C2.56313 21.6335 2.71616 21.8027 2.91474 21.8969C3.11332 21.9911 3.34117 22.0025 3.54818 21.9287C3.7552 21.8549 3.9244 21.7018 4.01858 21.5033C4.23694 21.0437 4.48018 20.5964 4.74722 20.1633C5.78579 22.9709 7.83665 25.2887 10.4969 26.6614C13.1572 28.0341 16.2347 28.3624 19.1247 27.5819C22.0147 26.8013 24.5084 24.9683 26.1159 22.443C27.7234 19.9177 28.3286 16.8825 27.8124 13.9338C28.459 13.0838 29.0153 12.1687 29.4724 11.2035C29.5203 11.1044 29.5478 10.9967 29.5532 10.8868C29.5587 10.7769 29.542 10.667 29.5043 10.5636V10.5636ZM26.3351 15.9958C26.3356 18.521 25.4118 20.9592 23.7381 22.8501C22.0643 24.741 19.7564 25.9539 17.2497 26.26C14.7431 26.566 12.2111 25.944 10.1315 24.5113C8.05199 23.0787 6.56874 20.9344 5.96166 18.4832C8.04128 16.1373 10.7872 14.4818 13.8327 13.7378C15.5164 13.2806 17.2466 13.016 18.9901 12.9489L16.5161 15.4262L17.6886 16.5988L22.1727 12.1097L17.0655 7.00083L15.893 8.17335L19.0119 11.2889C17.1283 11.353 15.2583 11.6341 13.4391 12.1264C11.3001 12.6883 9.27737 13.624 7.46422 14.8902C6.82764 15.3426 6.22677 15.8432 5.66691 16.3877C5.66691 16.2571 5.65853 16.1247 5.65853 15.9941C5.66455 13.4735 6.59121 11.0419 8.26426 9.15666C9.93731 7.27139 12.2415 6.06227 14.7435 5.7567C17.2455 5.45112 19.7729 6.07014 21.8505 7.49735C23.9282 8.92455 25.4128 11.0616 26.0253 13.5067C23.9513 15.8561 21.2063 17.5124 18.161 18.252C16.4767 18.7093 14.7459 18.974 13.0019 19.0409L15.4726 16.5636L14.3 15.3911L9.82099 19.8802L14.9281 24.989L16.1006 23.8165L12.9851 20.6992C14.8687 20.6349 16.7386 20.3538 18.5579 19.8617C20.6963 19.2996 22.7185 18.364 24.5311 17.0979C25.1676 16.6455 25.7685 16.1448 26.3284 15.6004C26.3318 15.7311 26.3351 15.8634 26.3351 15.9958Z" fill="#4155FF"/>
</svg>
