<svg width="32" height="32" viewBox="0 0 32 32" fill="none" xmlns="http://www.w3.org/2000/svg">
    <path d="M16 32C24.8366 32 32 24.8366 32 16C32 7.16344 24.8366 0 16 0C7.16344 0 0 7.16344 0 16C0 24.8366 7.16344 32 16 32Z" fill="white"/>
    <path fill-rule="evenodd" clip-rule="evenodd" d="M14.5227 16.7088H14.7093C15.4828 16.7088 16.2122 16.5424 16.8967 16.2093C17.5903 15.8672 18.195 15.4351 18.7109 14.913C19.2265 14.3907 19.6311 13.81 19.9244 13.1709C20.2269 12.5316 20.3781 11.9104 20.3781 11.3072C20.3781 10.875 20.2979 10.4653 20.1379 10.0782C19.9869 9.69105 19.7421 9.3536 19.4043 9.06556C19.0753 8.77725 18.6484 8.54757 18.1239 8.37654C17.608 8.20551 16.99 8.12 16.2698 8.12C15.4609 8.12 14.7626 8.19655 14.176 8.34967C13.5979 8.50278 13.0954 8.7007 12.6688 8.94394C12.2508 9.18692 11.895 9.466 11.6017 9.78119C11.3172 10.0961 11.0681 10.4203 10.8546 10.7534C10.6501 11.0865 10.4634 11.4106 10.2945 11.7258C10.1256 12.0407 9.94783 12.3201 9.76095 12.5631C9.58317 12.806 9.38315 13.0042 9.16087 13.1573C8.93859 13.3104 8.66295 13.3867 8.33395 13.3867C7.88912 13.3867 7.55584 13.2743 7.33356 13.0493C7.11128 12.8153 7 12.4911 7 12.0768C7 11.69 7.10216 11.2711 7.30674 10.821C7.52017 10.3708 7.81807 9.92073 8.20042 9.47062C8.59189 9.0205 9.06729 8.5883 9.62768 8.17402C10.1878 7.75106 10.8147 7.38184 11.5081 7.06665C12.2108 6.7425 12.9756 6.48595 13.8025 6.297C14.6294 6.09881 15.5051 6 16.4299 6C17.337 6 18.2038 6.117 19.031 6.35102C19.8668 6.58504 20.6047 6.93606 21.245 7.40437C21.8853 7.86344 22.392 8.44414 22.7655 9.14646C23.1479 9.84851 23.3391 10.6678 23.3391 11.6042C23.3391 12.2343 23.2235 12.8378 22.9924 13.4139C22.7698 13.981 22.4676 14.5169 22.0853 15.021C21.7029 15.5159 21.2538 15.9753 20.7382 16.3983C20.2314 16.8125 19.689 17.1818 19.1109 17.5056C18.5328 17.8298 17.9373 18.1045 17.3236 18.3296C16.7189 18.5546 16.132 18.7167 15.563 18.8158C15.6429 19.2388 15.7719 19.716 15.9497 20.2473C16.1365 20.7694 16.3588 21.2692 16.6168 21.7462C16.8836 22.2145 17.1769 22.6149 17.497 22.948C17.8172 23.2811 18.155 23.4614 18.5106 23.4883C18.5819 23.4972 18.6484 23.5018 18.7109 23.5018H18.8975C19.5466 23.5018 20.1244 23.3938 20.6315 23.1777C21.1383 22.9616 21.5606 22.723 21.8984 22.4621C22.2987 22.1648 22.6454 21.8184 22.9387 21.422C23.2146 21.1071 23.4946 20.9494 23.7793 20.9494C23.9571 20.9494 24.1083 21.0124 24.2327 21.1386C24.3572 21.2646 24.4194 21.4356 24.4194 21.6517C24.4194 21.8588 24.3526 22.1018 24.2193 22.3809C24.0949 22.651 23.8769 22.9344 23.5656 23.2317C22.65 24.1051 21.7517 24.7441 20.8715 25.1494C20 25.5455 19.1731 25.7437 18.3907 25.7437C17.7504 25.7437 17.1592 25.5588 16.6168 25.1899C16.0743 24.8207 15.5807 24.3212 15.1362 23.6908C14.6916 23.0607 14.287 22.3269 13.9223 21.4896C13.5579 20.6434 13.2332 19.7521 12.9487 18.8158C12.7887 19.1847 12.6243 19.6216 12.4554 20.1257C12.2862 20.6209 12.1041 21.134 11.9084 21.6653C11.7129 22.1963 11.5081 22.723 11.2949 23.2453C11.0815 23.7584 10.8458 24.2221 10.5879 24.6363C10.3299 25.0414 10.0545 25.3699 9.76095 25.6221C9.46761 25.874 9.14746 26 8.80076 26C8.51601 26 8.28489 25.9552 8.10712 25.8651C7.92935 25.7749 7.79152 25.6626 7.69365 25.5276C7.59579 25.3924 7.52474 25.2439 7.48023 25.0819C7.44457 24.9198 7.42687 24.7667 7.42687 24.6228C7.42687 24.4156 7.45341 24.2042 7.50703 23.9881C7.56012 23.772 7.63575 23.5694 7.73361 23.3802L11.6684 16.0877C12.0063 15.4755 12.3441 14.8858 12.682 14.3187C13.0286 13.7426 13.3622 13.2339 13.6823 12.7927C14.0113 12.3516 14.3181 12.0005 14.6028 11.7394C14.8962 11.4693 15.1584 11.3341 15.3895 11.3341C15.4517 11.3341 15.5274 11.3476 15.6164 11.3745C15.7051 11.3927 15.7853 11.4331 15.8563 11.4961C15.9274 11.5502 15.9899 11.6357 16.0432 11.7527C16.0966 11.8607 16.1231 12.0005 16.1231 12.1713C16.1231 12.3426 16.0743 12.581 15.9765 12.8872C15.8786 13.1934 15.7496 13.5445 15.5898 13.9405C15.4295 14.3366 15.2429 14.7732 15.0294 15.2504C14.816 15.7185 14.5937 16.2004 14.3626 16.6955C14.416 16.7045 14.4693 16.7088 14.5227 16.7088Z" fill="url(#paint0_linear)"/>
    <defs>
        <linearGradient id="paint0_linear" x1="15.7097" y1="6" x2="15.7097" y2="26" gradientUnits="userSpaceOnUse">
            <stop stop-color="#681CFF"/>
            <stop offset="1" stop-color="#FD3F83"/>
        </linearGradient>
    </defs>
</svg>
