<svg width="32" height="32" viewBox="0 0 32 32" fill="none" xmlns="http://www.w3.org/2000/svg">
<path d="M16 32C24.8366 32 32 24.8366 32 16C32 7.16344 24.8366 0 16 0C7.16344 0 0 7.16344 0 16C0 24.8366 7.16344 32 16 32Z" fill="#2116E5"/>
<path d="M18.6831 14.7922C18.6831 15.4591 18.0821 15.9986 17.3423 15.9986H13.3154V13.5873H17.3423C18.0835 13.5873 18.6831 14.1268 18.6831 14.7922ZM21.8699 19.2913C23.2108 18.188 24.0579 16.6067 24.0579 14.8452C24.0579 11.5138 21.0528 8.81351 17.3466 8.81351H7.94775V23.1922H13.3169V20.8654H17.3852L18.7876 23.1879H24.0536L21.8699 19.2913Z" fill="white"/>
</svg>
