<svg width="32" height="32" viewBox="0 0 32 32" fill="none" xmlns="http://www.w3.org/2000/svg">
    <g clip-path="url(#clip0)">
        <path d="M16 32.0005C24.8366 32.0005 32 24.8371 32 16.0005C32 7.16395 24.8366 0.00050354 16 0.00050354C7.16344 0.00050354 0 7.16395 0 16.0005C0 24.8371 7.16344 32.0005 16 32.0005Z" fill="#0E0E21"/>
        <path d="M24.9311 19.7185L23.0275 16.4901C22.9568 16.3701 22.8006 16.3335 22.6855 16.4085L21.446 17.2135C21.3342 17.2851 21.2997 17.4351 21.3671 17.5501L22.4554 19.3951C22.4899 19.4535 22.4718 19.5268 22.4159 19.5635L16.0655 23.6885C16.0244 23.7151 15.9734 23.7151 15.9339 23.6885L9.58513 19.5635C9.52923 19.5268 9.5128 19.4518 9.54567 19.3951L10.634 17.5501C10.7014 17.4351 10.6668 17.2851 10.555 17.2135L9.31553 16.4085C9.1988 16.3335 9.0443 16.3701 8.9736 16.4901L7.06994 19.7185C6.9335 19.9485 7.00254 20.2468 7.2261 20.3918L15.7367 25.9218C15.8978 26.0268 16.1049 26.0268 16.266 25.9218L24.7766 20.3918C24.9969 20.2468 25.0659 19.9485 24.9311 19.7185Z" fill="white"/>
        <path d="M10.3101 14.6902L11.5496 15.4952C11.6663 15.5702 11.8208 15.5335 11.8915 15.4135L15.8945 8.62683C15.9421 8.54683 16.0572 8.54683 16.1049 8.62683L20.1078 15.4135C20.1785 15.5335 20.3347 15.5702 20.4498 15.4952L21.6893 14.6902C21.8011 14.6185 21.8356 14.4685 21.7682 14.3535L16.9844 6.24183C16.8956 6.09183 16.7361 6.00017 16.5635 6.00017H15.4358C15.2632 6.00017 15.1037 6.09183 15.015 6.24183L10.2312 14.3535C10.1638 14.4685 10.1983 14.6185 10.3101 14.6902Z" fill="#2AE7A8"/>
    </g>
    <defs>
        <clipPath id="clip0">
            <rect width="32" height="32" fill="white"/>
        </clipPath>
    </defs>
</svg>
