<svg width="32" height="32" viewBox="0 0 32 32" fill="none" xmlns="http://www.w3.org/2000/svg">
    <path d="M16 32C24.8366 32 32 24.8366 32 16C32 7.16344 24.8366 0 16 0C7.16344 0 0 7.16344 0 16C0 24.8366 7.16344 32 16 32Z" fill="#5F2652"/>
    <path d="M19.8696 15.302C19.6383 14.6384 19.2385 14.0462 18.7096 13.5835L18.5087 13.4159L18.4976 13.4049C18.4334 13.3529 18.3663 13.3044 18.2967 13.2597L18.2855 13.2486C18.2187 13.2039 18.1517 13.1594 18.0735 13.1147C18.0624 13.1147 18.0624 13.1035 18.0521 13.1035C17.9838 13.0619 17.913 13.0246 17.8401 12.9918C17.8289 12.9918 17.8289 12.9808 17.8186 12.9808C17.7516 12.9473 17.6734 12.9138 17.5954 12.8803C17.5842 12.8803 17.5842 12.8691 17.5739 12.8691C17.5069 12.8477 17.4399 12.8133 17.373 12.7909C17.192 12.7221 17.005 12.6698 16.8145 12.6348C16.6669 12.9101 16.4746 13.159 16.2455 13.3714C16.5826 13.3966 16.9134 13.4757 17.2255 13.6058C17.4031 13.6813 17.5745 13.7706 17.7382 13.8728C17.7464 13.8741 17.7539 13.878 17.7597 13.8839C17.8034 13.9097 17.8445 13.9396 17.8824 13.9733C17.9036 13.9846 17.9225 13.9998 17.9382 14.018C17.9781 14.0442 18.0154 14.074 18.0497 14.1071C18.0712 14.1286 18.0944 14.1406 18.1167 14.163C18.1502 14.1965 18.1837 14.2188 18.2173 14.2523L18.2841 14.3191L18.3734 14.4085L18.4404 14.4753C18.4635 14.5075 18.4896 14.5374 18.5184 14.5647C18.5399 14.5862 18.5631 14.6205 18.5854 14.6429L18.6524 14.7432C18.6746 14.7706 18.6933 14.8006 18.7081 14.8326L18.7751 14.9329C18.7908 14.9644 18.8095 14.9943 18.8309 15.0223C18.8524 15.0558 18.8644 15.0893 18.8866 15.1226C18.9087 15.1559 18.9201 15.1896 18.9424 15.2231C18.9536 15.2566 18.9759 15.2901 18.9871 15.3234C19.0032 15.3655 19.0219 15.4065 19.0429 15.4463C19.1361 15.6754 19.1998 15.9154 19.2326 16.1606L19.333 16.5511C19.5299 17.3868 20.0211 18.1236 20.7168 18.6267C21.7881 19.1852 23.2053 19.8765 23.7632 20.1444L16.4102 24.5417V21.5287C16.4102 21.0488 17.3588 20.4909 17.794 20.3012L17.8155 20.2901C17.9046 20.2454 17.994 20.2007 18.0832 20.1451L18.1167 20.1236C18.3067 20.0098 18.486 19.8791 18.6524 19.7331C18.6636 19.7219 18.6857 19.7116 18.6969 19.6884C18.7184 19.6772 18.7304 19.6549 18.7527 19.6437C18.8086 19.599 18.8533 19.5434 18.9089 19.4987L18.9304 19.4772C18.9883 19.423 19.0407 19.3632 19.0868 19.2987C19.0978 19.2772 19.1201 19.2652 19.1313 19.2428C19.1749 19.1929 19.2159 19.1408 19.2541 19.0867C19.2653 19.0755 19.2756 19.0531 19.2876 19.042L19.4215 18.8411C19.4215 18.83 19.4327 18.83 19.4327 18.8196C19.4885 18.7303 19.5441 18.63 19.6 18.5404C19.394 18.2862 19.218 18.0091 19.0756 17.7146C19.0185 17.8802 18.9476 18.0407 18.8636 18.1945C18.8301 18.2615 18.7854 18.3284 18.7519 18.3954C18.7407 18.4065 18.7407 18.4169 18.7304 18.4169C18.6959 18.4708 18.6587 18.5229 18.6189 18.573C18.6078 18.5842 18.5975 18.6065 18.5854 18.6177C18.5507 18.671 18.5094 18.7197 18.4626 18.7627C18.4516 18.7739 18.4516 18.7842 18.4411 18.7842C18.1725 19.0903 17.8464 19.3405 17.4813 19.5208L17.4143 19.5543C17.2246 19.6323 15.5843 20.3801 15.5843 21.507V24.5194L8.21933 20.134C9.16528 19.5386 10.1715 19.0449 11.2212 18.661C11.6676 18.5158 12.616 19.1186 13.1518 19.5538L13.1851 19.5871C13.2543 19.6562 13.3289 19.7197 13.4083 19.777L13.4298 19.7985C13.5986 19.9402 13.7819 20.0637 13.9767 20.1669L14.1105 20.2337C14.1187 20.235 14.1262 20.2389 14.132 20.2448C14.2557 20.3117 14.3829 20.3718 14.5131 20.4248C14.5346 20.436 14.5466 20.436 14.5689 20.4463C14.5801 20.4463 14.5904 20.4575 14.6136 20.4575C14.8001 20.5236 14.9901 20.5795 15.1826 20.6251C15.3343 20.3494 15.5302 20.1005 15.7626 19.8884C15.4493 19.8679 15.1408 19.8002 14.8477 19.6876C14.8366 19.6764 14.8142 19.6764 14.803 19.6661C14.7676 19.656 14.7338 19.6409 14.7025 19.6214C14.6913 19.6103 14.669 19.6103 14.6578 19.5999C14.6271 19.5873 14.5973 19.5725 14.5687 19.5555C14.3498 19.4491 14.1439 19.318 13.9549 19.1647L13.6649 18.8953C13.3961 18.6588 13.1046 18.4495 12.7945 18.2704C12.5353 18.0861 12.2418 17.9555 11.9313 17.8865C11.6208 17.8175 11.2997 17.8113 10.9868 17.8685C10.0314 18.2087 9.11194 18.6423 8.24167 19.163L15.5956 5.95162V11.7431C15.5956 11.944 15.2948 12.4798 14.2787 12.9373L14.2119 12.9706C14.1114 13.0151 14.022 13.0709 13.9217 13.1268L13.9002 13.138C13.7084 13.2542 13.5257 13.3848 13.3535 13.5285C13.2453 13.6166 13.1447 13.7137 13.0528 13.8187L13.0416 13.8299C12.9428 13.9256 12.8527 14.0299 12.7722 14.1414L12.761 14.1525C12.7166 14.2084 12.683 14.264 12.6384 14.3199C12.6384 14.3311 12.6272 14.3311 12.6272 14.3414C12.5937 14.3972 12.5602 14.4419 12.5267 14.4975C12.5267 14.5087 12.5157 14.5087 12.5157 14.519L12.4152 14.6892C12.404 14.7003 12.404 14.7106 12.3937 14.7338C12.3602 14.7897 12.3378 14.8456 12.3155 14.8902C12.3142 14.8984 12.3103 14.9059 12.3045 14.9117C12.283 14.9676 12.2598 15.0123 12.2375 15.0681C12.2263 15.0896 12.2263 15.1016 12.216 15.1237L12.149 15.2913C12.1378 15.3128 12.1378 15.3246 12.1275 15.3469C12.1176 15.3895 12.1027 15.4308 12.0831 15.4698C12.0719 15.4913 12.0719 15.5145 12.0616 15.5366C12.0504 15.5925 12.0281 15.6483 12.0169 15.693C12.0057 15.7145 12.0057 15.7487 11.9954 15.771C11.9843 15.8045 11.9843 15.8492 11.9739 15.8827C11.9636 15.9162 11.9628 15.9497 11.9525 15.983C11.9413 16.0277 11.9413 16.0724 11.931 16.117C11.931 16.1505 11.9198 16.1727 11.9198 16.2062C11.9198 16.2509 11.9086 16.2844 11.9086 16.3291C11.9105 16.3703 11.9067 16.4115 11.8975 16.4517V16.6191C11.8953 16.8209 11.9102 17.0225 11.9421 17.2218C12.259 17.3031 12.5659 17.4191 12.8573 17.5677C12.7693 17.2741 12.7205 16.9701 12.7123 16.6637V16.6079C12.7104 16.5333 12.7142 16.4587 12.7234 16.3847V16.3291C12.7252 16.2654 12.7324 16.2019 12.7449 16.1394V16.1179C12.7561 16.0509 12.7664 15.9839 12.7784 15.9059C12.7784 15.8844 12.7896 15.8724 12.7896 15.8501C12.8008 15.7942 12.8231 15.7386 12.8343 15.6827C12.8343 15.6716 12.8455 15.6612 12.8455 15.6492L12.9125 15.4484C12.9236 15.4372 12.9236 15.4149 12.9339 15.4037C12.9554 15.3478 12.9784 15.2922 13.0007 15.2475C13.0119 15.2363 13.0119 15.226 13.0222 15.2028C13.049 15.1398 13.0827 15.0799 13.1228 15.0243C13.1339 15.0131 13.1339 15.0028 13.1442 14.9908C13.1775 14.9349 13.1999 14.8905 13.2334 14.8346C13.2446 14.8235 13.2446 14.8131 13.2549 14.8011C13.2921 14.7427 13.3331 14.6868 13.3775 14.6338C13.3775 14.6309 13.3786 14.6281 13.3806 14.626C13.3826 14.6239 13.3854 14.6227 13.3883 14.6226H13.3887C13.4334 14.5667 13.4669 14.5221 13.5116 14.4664C13.5227 14.4553 13.5227 14.4449 13.5331 14.4329C13.7335 14.2105 13.9624 14.0155 14.2138 13.8529L14.5597 13.6856C14.7494 13.6076 16.3786 12.8375 16.3786 11.7106V5.95334L23.7976 19.2747C23.1391 18.951 21.9676 18.3707 21.0636 17.902C20.5775 17.5017 20.2365 16.9529 20.0928 16.3398L19.9923 15.9381C19.9839 15.7211 19.9426 15.5066 19.8696 15.302H19.8696ZM24.8912 19.4979L16.7116 4.8234C16.6416 4.69506 16.5383 4.58793 16.4126 4.5133C16.2869 4.43866 16.1435 4.39928 15.9973 4.39928C15.8511 4.39928 15.7076 4.43866 15.5819 4.5133C15.4562 4.58793 15.353 4.69506 15.283 4.8234L7.10335 19.4979C7 19.6821 6.9725 19.8994 7.02668 20.1036C7.08087 20.3077 7.21247 20.4828 7.39357 20.5915L15.5844 25.4894C15.7138 25.5625 15.8599 25.6009 16.0084 25.6009C16.157 25.6009 16.3031 25.5625 16.4325 25.4894L24.6122 20.6027C24.7919 20.4898 24.9212 20.312 24.9732 20.1063C25.0252 19.9005 24.9959 19.6826 24.8914 19.4979H24.8912Z" fill="white"/>
</svg>
