<svg width="32" height="32" viewBox="0 0 32 32" fill="none" xmlns="http://www.w3.org/2000/svg">
    <path d="M16 32C24.8366 32 32 24.8366 32 16C32 7.16344 24.8366 0 16 0C7.16344 0 0 7.16344 0 16C0 24.8366 7.16344 32 16 32Z" fill="#00261B"/>
    <path d="M19.2293 17.2341L24.2464 12.2326C24.4328 12.0469 24.5806 11.8261 24.6813 11.583C24.7819 11.3399 24.8334 11.0792 24.8328 10.8161L24.8413 6.77357C24.8408 6.56619 24.7607 6.36691 24.6175 6.21691L14.9927 15.8204C14.6171 16.1928 14.4047 16.6991 14.4024 17.2281C14.4 17.757 14.6079 18.2652 14.9802 18.6409L14.9927 18.6533L21.7789 25.4183C22.1546 25.7921 22.6633 26.0014 23.1933 26C23.7232 25.9987 24.2309 25.7869 24.6047 25.4112C24.9785 25.0356 25.1878 24.5268 25.1864 23.9969C25.1851 23.4669 24.9733 22.9592 24.5977 22.5854V22.5854L19.2293 17.2341Z" fill="#008C62"/>
    <path d="M24.0565 6.00019H8.93872C8.65333 5.99548 8.37 6.04921 8.10615 6.15809C7.84231 6.26696 7.60353 6.42866 7.40451 6.63326C7.20549 6.83785 7.05044 7.081 6.94889 7.34775C6.84735 7.61451 6.80146 7.89921 6.81405 8.18436V23.9565C6.80724 24.4888 7.01215 25.002 7.38371 25.3832C7.75527 25.7643 8.26303 25.9823 8.79531 25.9891C8.81289 25.9894 8.83048 25.9894 8.84807 25.9891C9.37805 25.9982 9.88994 25.7964 10.2711 25.4281C10.6523 25.0598 10.8716 24.5551 10.8807 24.0251C10.8811 24.0023 10.8811 23.9794 10.8807 23.9566V9.89118H20.9375L24.6202 6.22682C24.5465 6.15288 24.4585 6.09467 24.3616 6.05571C24.2647 6.01676 24.1609 5.99787 24.0565 6.00019Z" fill="#00E6A0"/>
</svg>
