<svg width="32" height="32" viewBox="0 0 32 32" fill="none" xmlns="http://www.w3.org/2000/svg">
    <g clip-path="url(#clip0_1182_146)">
        <path d="M16 0C12.8355 0 9.74207 0.938384 7.11088 2.69649C4.4797 4.45459 2.42894 6.95345 1.21793 9.87706C0.0069325 12.8007 -0.309921 16.0177 0.307443 19.1214C0.924806 22.2251 2.44866 25.0761 4.6863 27.3137C6.92394 29.5513 9.77487 31.0752 12.8786 31.6926C15.9823 32.3099 19.1993 31.9931 22.1229 30.7821C25.0466 29.5711 27.5454 27.5203 29.3035 24.8891C31.0616 22.2579 32 19.1645 32 16C32 11.7565 30.3143 7.68687 27.3137 4.68629C24.3131 1.68571 20.2435 0 16 0V0ZM26.4991 26.4991C23.7146 29.2837 19.9379 30.848 16 30.848C12.0621 30.848 8.28542 29.2837 5.50088 26.4991C2.71634 23.7146 1.152 19.9379 1.152 16C1.152 12.0621 2.71634 8.28541 5.50088 5.50087C8.28542 2.71633 12.0621 1.15199 16 1.15199C19.9379 1.15199 23.7146 2.71633 26.4991 5.50087C29.2837 8.28541 30.848 12.0621 30.848 16C30.848 19.9379 29.2837 23.7146 26.4991 26.4991Z" fill="url(#paint0_linear_1182_146)"/>
        <path d="M16.0001 3.45599C13.5191 3.45599 11.0938 4.19169 9.03099 5.57004C6.96814 6.94839 5.36034 8.9075 4.41092 11.1996C3.46149 13.4917 3.21308 16.0139 3.69709 18.4472C4.1811 20.8805 5.3758 23.1156 7.13011 24.8699C8.88442 26.6243 11.1195 27.819 13.5528 28.303C15.9861 28.787 18.5083 28.5386 20.8004 27.5891C23.0926 26.6397 25.0517 25.0319 26.43 22.9691C27.8084 20.9062 28.5441 18.481 28.5441 16C28.5441 12.6731 27.2225 9.4825 24.87 7.13005C22.5176 4.77759 19.3269 3.45599 16.0001 3.45599V3.45599ZM16.0001 27.392C13.7469 27.392 11.5444 26.7239 9.671 25.4721C7.7976 24.2203 6.33746 22.4411 5.47522 20.3595C4.61299 18.2779 4.38739 15.9874 4.82695 13.7775C5.26652 11.5677 6.3515 9.53783 7.9447 7.94463C9.5379 6.35143 11.5678 5.26645 13.7776 4.82689C15.9874 4.38733 18.278 4.61292 20.3596 5.47516C22.4412 6.33739 24.2204 7.79753 25.4722 9.67094C26.7239 11.5443 27.3921 13.7469 27.3921 16C27.3886 19.0203 26.1873 21.9159 24.0516 24.0516C21.916 26.1873 19.0204 27.3886 16.0001 27.392V27.392Z" fill="url(#paint1_linear_1182_146)"/>
        <path d="M15.9999 6.43201C14.1075 6.43201 12.2576 6.99316 10.6842 8.04451C9.11074 9.09585 7.88439 10.5902 7.16021 12.3385C6.43603 14.0868 6.24655 16.0106 6.61574 17.8666C6.98492 19.7226 7.89618 21.4275 9.23429 22.7656C10.5724 24.1037 12.2773 25.015 14.1333 25.3842C15.9893 25.7533 17.9131 25.5639 19.6614 24.8397C21.4097 24.1155 22.904 22.8892 23.9554 21.3157C25.0067 19.7423 25.5679 17.8924 25.5679 16C25.5679 14.7435 25.3204 13.4993 24.8396 12.3385C24.3587 11.1776 23.654 10.1229 22.7655 9.23441C21.877 8.34594 20.8222 7.64116 19.6614 7.16033C18.5006 6.67949 17.2564 6.43201 15.9999 6.43201V6.43201ZM15.9999 24.416C14.3354 24.416 12.7082 23.9224 11.3242 22.9977C9.94021 22.0729 8.86151 20.7585 8.22452 19.2207C7.58753 17.6828 7.42087 15.9907 7.7456 14.3581C8.07033 12.7256 8.87188 11.226 10.0489 10.049C11.2259 8.872 12.7255 8.07045 14.358 7.74572C15.9906 7.42098 17.6827 7.58765 19.2206 8.22464C20.7584 8.86162 22.0728 9.94032 22.9975 11.3243C23.9223 12.7083 24.4159 14.3355 24.4159 16C24.4134 18.2313 23.5259 20.3705 21.9481 21.9482C20.3704 23.526 18.2312 24.4135 15.9999 24.416V24.416Z" fill="url(#paint2_linear_1182_146)"/>
    </g>
    <defs>
        <linearGradient id="paint0_linear_1182_146" x1="7.19782e-06" y1="16" x2="32" y2="16" gradientUnits="userSpaceOnUse">
            <stop stop-color="#F7F7F7"/>
            <stop offset="0.5" stop-color="#808080"/>
            <stop offset="0.75" stop-color="#494949"/>
            <stop offset="0.7901" stop-color="#3F3F3F"/>
            <stop offset="1" stop-color="#101010"/>
        </linearGradient>
        <linearGradient id="paint1_linear_1182_146" x1="3.45606" y1="16" x2="28.5441" y2="16" gradientUnits="userSpaceOnUse">
            <stop stop-color="#101010"/>
            <stop offset="0.2099" stop-color="#3F3F3F"/>
            <stop offset="0.25" stop-color="#494949"/>
            <stop offset="0.5" stop-color="#808080"/>
            <stop offset="1" stop-color="#F7F7F7"/>
        </linearGradient>
        <linearGradient id="paint2_linear_1182_146" x1="6.43189" y1="16" x2="25.5679" y2="16" gradientUnits="userSpaceOnUse">
            <stop stop-color="#F7F7F7"/>
            <stop offset="0.5" stop-color="#808080"/>
            <stop offset="0.75" stop-color="#494949"/>
            <stop offset="0.7901" stop-color="#3F3F3F"/>
            <stop offset="1" stop-color="#101010"/>
        </linearGradient>
        <clipPath id="clip0_1182_146">
            <rect width="32" height="32" fill="white"/>
        </clipPath>
    </defs>
</svg>
