<svg width="32" height="32" viewBox="0 0 32 32" fill="none" xmlns="http://www.w3.org/2000/svg">
    <path d="M16 32C24.8366 32 32 24.8366 32 16C32 7.16344 24.8366 0 16 0C7.16344 0 0 7.16344 0 16C0 24.8366 7.16344 32 16 32Z" fill="white"/>
    <path d="M21.0994 10.0993H19.3511V15.1987H21.0994V10.0993Z" fill="#149DD9"/>
    <path d="M24.086 13.4503H22.3376V15.1987H24.086V13.4503Z" fill="#149DD9"/>
    <path d="M18.5496 22.2649H16.8013V24.0132H18.5496V22.2649Z" fill="#149DD9"/>
    <path d="M9.66216 16.8013H7.91382V18.5497H9.66216V16.8013Z" fill="#149DD9"/>
    <path d="M12.649 16.8013H10.9006V21.9007H12.649V16.8013Z" fill="#149DD9"/>
    <path d="M15.5628 18.1126H13.8145V25.2516H15.5628V18.1126Z" fill="#149DD9"/>
    <path d="M18.1125 6.74834H16.437V13.8874H18.1125V6.74834Z" fill="#149DD9"/>
    <path d="M6.74834 16.8013H5V18.5497H6.74834V16.8013Z" fill="#149DD9"/>
    <path d="M21.9006 19.351H16.8013V21.0993H21.9006V19.351Z" fill="#149DD9"/>
    <path d="M18.5496 25.2517H16.8013V27H18.5496V25.2517Z" fill="#149DD9"/>
    <path d="M15.1988 7.91391H13.4504V9.66225H15.1988V7.91391Z" fill="#149DD9"/>
    <path d="M15.1988 5H13.4504V6.74834H15.1988V5Z" fill="#149DD9"/>
    <path d="M27 13.4503H25.2517V15.1987H27V13.4503Z" fill="#149DD9"/>
    <path d="M13.8875 13.8146H6.67554V15.5629H13.8875V13.8146Z" fill="#149DD9"/>
    <path d="M25.2516 16.4371H18.1125V18.1126H25.2516V16.4371Z" fill="#149DD9"/>
    <path d="M15.1987 10.9007H10.0994V12.649H15.1987V10.9007Z" fill="#149DD9"/>
</svg>
