<svg width="32" height="32" viewBox="0 0 32 32" fill="none" xmlns="http://www.w3.org/2000/svg">
    <g clip-path="url(#clip0)">
        <path d="M16.1485 31.9992C12.1782 32.036 8.33603 30.5954 5.36876 27.9572C2.40149 25.319 0.521157 21.6717 0.0932344 17.7243C-0.334688 13.777 0.720377 9.81152 3.05335 6.59873C5.38633 3.38595 8.83054 1.15537 12.7165 0.340566C16.6025 -0.474237 20.6526 0.184946 24.0797 2.18999C27.5067 4.19503 30.0658 7.40268 31.2596 11.1895C32.4533 14.9763 32.1964 19.0716 30.5389 22.6796C28.8813 26.2875 25.9414 29.1502 22.2907 30.7113C20.3614 31.5824 18.2652 32.0219 16.1485 31.9992V31.9992Z" fill="url(#paint0_linear)"/>
        <path d="M16.1486 4.95405C14.6758 4.94419 13.2156 5.22701 11.853 5.78609C10.4904 6.34518 9.25239 7.16938 8.21091 8.21086C7.16944 9.25233 6.34523 10.4903 5.78615 11.853C5.22707 13.2156 4.94424 14.6757 4.95411 16.1485C4.95727 17.9881 5.41371 19.7985 6.28306 21.4197C7.15241 23.0409 8.40788 24.4228 9.93842 25.4433C11.469 26.4638 13.2274 27.0914 15.0582 27.2706C16.889 27.4498 18.7358 27.175 20.4351 26.4706C22.1345 25.7662 23.6341 24.6539 24.8012 23.232C25.9684 21.8102 26.7672 20.1226 27.1269 18.3185C27.4867 16.5145 27.3963 14.6496 26.8638 12.8888C26.3313 11.128 25.3731 9.52558 24.0739 8.22324C23.0387 7.1759 21.8039 6.34691 20.4426 5.78537C19.0813 5.22383 17.6211 4.94114 16.1486 4.95405V4.95405Z" fill="black"/>
        <path d="M12.8793 23.1823C12.3538 23.1823 11.8498 22.9735 11.4783 22.6019C11.1067 22.2304 10.8979 21.7264 10.8979 21.2009C10.8979 20.6754 11.1067 20.1715 11.4783 19.7999C11.8498 19.4283 12.3538 19.2196 12.8793 19.2196C13.2618 19.2247 13.6368 19.327 13.969 19.5168C14.0681 19.6159 14.1671 19.6159 14.3653 19.6159C14.5049 19.6306 14.6453 19.5955 14.7615 19.5168C14.8803 19.4436 14.9789 19.3417 15.0481 19.2206C15.1173 19.0994 15.155 18.9628 15.1578 18.8233C15.1342 18.5688 15.1619 18.3122 15.2394 18.0686C15.3169 17.8251 15.4425 17.5996 15.6088 17.4055C15.7752 17.2114 15.9788 17.0528 16.2076 16.939C16.4365 16.8252 16.6859 16.7585 16.941 16.7429H17.1391C17.5217 16.7481 17.8967 16.8504 18.2289 17.0401C18.3279 17.1392 18.427 17.1392 18.6251 17.1392C18.7648 17.1539 18.9051 17.1188 19.0214 17.0401C19.1402 16.9669 19.2387 16.8651 19.3079 16.7439C19.3772 16.6228 19.4149 16.4862 19.4177 16.3467C19.394 16.0922 19.4218 15.8355 19.4992 15.592C19.5767 15.3484 19.7023 15.1229 19.8687 14.9288C20.035 14.7348 20.2387 14.5761 20.4675 14.4623C20.6963 14.3485 20.9457 14.2818 21.2008 14.2663H21.399C21.9245 14.2663 22.4284 14.475 22.8 14.8466C23.1716 15.2182 23.3803 15.7221 23.3803 16.2476C23.3803 16.7731 23.1716 17.277 22.8 17.6486C22.4284 18.0202 21.9245 18.2289 21.399 18.2289V18.2289C21.0164 18.2238 20.6415 18.1215 20.3093 17.9317C20.2102 17.8327 20.1111 17.8327 19.913 17.8327C19.7733 17.818 19.633 17.853 19.5167 17.9317C19.3979 18.0049 19.2994 18.1068 19.2302 18.2279C19.1609 18.3491 19.1232 18.4857 19.1205 18.6252V18.9224C19.0726 19.379 18.8694 19.8053 18.5448 20.1299C18.2201 20.4545 17.7938 20.6578 17.3373 20.7056H17.1391C16.7566 20.7004 16.3816 20.5982 16.0494 20.4084C15.9503 20.3093 15.8513 20.3093 15.6531 20.3093C15.5135 20.2946 15.3732 20.3297 15.2569 20.4084V20.4084C15.1381 20.4816 15.0396 20.5834 14.9703 20.7046C14.9011 20.8258 14.8634 20.9623 14.8606 21.1019V21.3991C14.8292 21.8616 14.6312 22.2972 14.3034 22.625C13.9755 22.9528 13.54 23.1508 13.0774 23.1823H12.8793Z" fill="url(#paint1_linear)"/>
        <path d="M12.8793 18.2289C12.3543 18.2274 11.8512 18.0182 11.48 17.6469C11.1087 17.2757 10.8995 16.7726 10.8979 16.2476C10.9054 15.7576 11.0902 15.2869 11.418 14.9226C11.7459 14.5583 12.1946 14.3252 12.6811 14.2663H12.8793C13.2618 14.2714 13.6368 14.3737 13.969 14.5635C14.0681 14.6625 14.1671 14.6626 14.3653 14.6626C14.5049 14.6773 14.6453 14.6422 14.7615 14.5635C14.8803 14.4903 14.9789 14.3884 15.0481 14.2673C15.1173 14.1461 15.155 14.0095 15.1578 13.87C15.1342 13.6155 15.1619 13.3589 15.2394 13.1153C15.3169 12.8718 15.4425 12.6463 15.6088 12.4522C15.7752 12.2581 15.9788 12.0995 16.2076 11.9857C16.4365 11.8718 16.6859 11.8052 16.941 11.7896H17.1391C17.6641 11.7912 18.1672 12.0004 18.5384 12.3716C18.9097 12.7429 19.1189 13.2459 19.1205 13.771C19.113 14.261 18.9282 14.7317 18.6004 15.096C18.2725 15.4602 17.8238 15.6934 17.3373 15.7523H17.1391C16.7566 15.7471 16.3816 15.6449 16.0494 15.4551C15.9503 15.356 15.8513 15.356 15.6531 15.356C15.5135 15.3413 15.3732 15.3764 15.2569 15.4551C15.1381 15.5283 15.0396 15.6301 14.9703 15.7513C14.9011 15.8724 14.8634 16.009 14.8606 16.1485V16.4457C14.8292 16.9083 14.6312 17.3438 14.3034 17.6717C13.9755 17.9995 13.54 18.1975 13.0774 18.2289H12.8793Z" fill="url(#paint2_linear)"/>
        <path d="M12.8793 13.2756C13.9735 13.2756 14.8606 12.3886 14.8606 11.2943C14.8606 10.2 13.9735 9.31297 12.8793 9.31297C11.785 9.31297 10.8979 10.2 10.8979 11.2943C10.8979 12.3886 11.785 13.2756 12.8793 13.2756Z" fill="url(#paint3_linear)"/>
    </g>
    <defs>
        <linearGradient id="paint0_linear" x1="0.350408" y1="31.9284" x2="19.0545" y2="13.2244" gradientUnits="userSpaceOnUse">
            <stop stop-color="#F9C300"/>
            <stop offset="1" stop-color="#F2E900"/>
        </linearGradient>
        <linearGradient id="paint1_linear" x1="156.607" y1="213.467" x2="211.625" y2="133.651" gradientUnits="userSpaceOnUse">
            <stop stop-color="#F9C300"/>
            <stop offset="1" stop-color="#F2E900"/>
        </linearGradient>
        <linearGradient id="paint2_linear" x1="82.3208" y1="137.651" x2="123.222" y2="83.5221" gradientUnits="userSpaceOnUse">
            <stop stop-color="#F9C300"/>
            <stop offset="1" stop-color="#F2E900"/>
        </linearGradient>
        <linearGradient id="paint3_linear" x1="33.4822" y1="76.1011" x2="59.6302" y2="49.0056" gradientUnits="userSpaceOnUse">
            <stop stop-color="#F9C300"/>
            <stop offset="1" stop-color="#F2E900"/>
        </linearGradient>
        <clipPath id="clip0">
            <rect width="32" height="32" fill="white"/>
        </clipPath>
    </defs>
</svg>
