<svg width="32" height="32" viewBox="0 0 32 32" fill="none" xmlns="http://www.w3.org/2000/svg">
    <path d="M16 32C24.8366 32 32 24.8366 32 16C32 7.16344 24.8366 0 16 0C7.16344 0 0 7.16344 0 16C0 24.8366 7.16344 32 16 32Z" fill="#CF1011"/>
    <path d="M21.0812 16C21.0812 17.005 20.7832 17.9874 20.2249 18.823C19.6665 19.6586 18.873 20.3098 17.9445 20.6944C17.016 21.079 15.9944 21.1796 15.0087 20.9836C14.023 20.7875 13.1177 20.3036 12.407 19.593C11.6964 18.8823 11.2125 17.977 11.0164 16.9913C10.8204 16.0056 10.921 14.984 11.3056 14.0555C11.6902 13.127 12.3414 12.3335 13.177 11.7751C14.0126 11.2168 14.995 10.9188 16 10.9188C17.3476 10.9188 18.6401 11.4541 19.593 12.407C20.5459 13.3599 21.0812 14.6524 21.0812 16ZM27 16C27.0006 17.7467 26.5853 19.4684 25.7884 21.0227C24.9915 22.577 23.8359 23.9192 22.4173 24.9382C20.9987 25.9572 19.3577 26.6237 17.6304 26.8826C15.903 27.1415 14.1388 26.9853 12.4837 26.4269C10.8287 25.8686 9.33039 24.9241 8.11285 23.6717C6.89531 22.4193 5.99351 20.895 5.48208 19.2249C4.97066 17.5547 4.86431 15.7868 5.17183 14.0674C5.47935 12.348 6.19191 10.7266 7.25053 9.33725C6.97869 8.95496 6.85771 8.4857 6.91082 8.01963C6.96393 7.55356 7.18739 7.12355 7.53827 6.81222C7.88915 6.50089 8.3427 6.3302 8.81178 6.33294C9.28086 6.33568 9.73238 6.51166 10.0796 6.82706C10.4268 7.14247 10.6452 7.57506 10.6929 8.04172C10.7406 8.50838 10.6141 8.9762 10.3378 9.35529C10.0615 9.73438 9.65491 9.998 9.19606 10.0955C8.73722 10.193 8.25853 10.1175 7.85196 9.88358C6.47441 11.7196 5.75719 13.967 5.8165 16.2616C5.87582 18.5561 6.7082 20.7635 8.17876 22.5259C9.64933 24.2882 11.6719 25.5024 13.9188 25.9717C16.1656 26.441 18.5051 26.1378 20.5582 25.1113C22.6112 24.0848 24.2574 22.3951 25.2302 20.3161C26.2029 18.2371 26.4452 15.8905 25.9176 13.6566C25.3901 11.4227 24.1237 9.43238 22.3236 8.00816C20.5236 6.58393 18.2953 5.80925 16 5.80964V5C18.9174 5 21.7153 6.15893 23.7782 8.22183C25.8411 10.2847 27 13.0826 27 16ZM7.6802 8.23858C7.6802 8.45945 7.74569 8.67537 7.8684 8.85902C7.99111 9.04267 8.16552 9.18581 8.36958 9.27034C8.57364 9.35486 8.79818 9.37698 9.01481 9.3339C9.23144 9.29081 9.43043 9.18445 9.58661 9.02828C9.7428 8.8721 9.84916 8.67312 9.89226 8.45649C9.93535 8.23986 9.91324 8.01532 9.82872 7.81125C9.74421 7.60719 9.60107 7.43277 9.41743 7.31006C9.23378 7.18734 9.01787 7.12184 8.797 7.12183C8.65034 7.12182 8.50512 7.15071 8.36962 7.20683C8.23413 7.26295 8.11101 7.3452 8.00731 7.4489C7.9036 7.5526 7.82134 7.67572 7.76521 7.81121C7.70909 7.9467 7.6802 8.09192 7.6802 8.23858V8.23858Z" fill="white"/>
</svg>
