<svg width="32" height="32" viewBox="0 0 32 32" fill="none" xmlns="http://www.w3.org/2000/svg">
    <g clip-path="url(#clip0)">
        <path fill-rule="evenodd" clip-rule="evenodd" d="M28.7808 6.3168C26.3552 3.2128 22.7904 1.248 18.848 1.248C11.232 1.248 5.65762 8.32639 5.65762 16C5.65762 21.3504 9.20963 25.3504 13.152 25.3504C13.5232 25.3504 13.888 25.3184 14.2464 25.248C11.6032 23.3216 9.91363 19.808 9.91363 16C9.91363 9.93279 14.016 5.2096 18.8544 5.2096C24.128 5.2096 27.7952 10.4448 27.7952 16C27.7824 20.1024 26.3168 24.1792 23.744 27.1936C21.4976 29.8176 18.5856 31.488 15.392 32.0128C15.392 32.0128 15.6608 32.032 16.0064 32.032C24.8576 32.032 32.0384 24.8512 32.0384 16C32.032 12.3648 30.8224 9.01119 28.7808 6.3168ZM26.3424 16C26.3424 10.6496 22.7904 6.6496 18.848 6.6496C18.4768 6.6496 18.112 6.6816 17.7536 6.752C20.3968 8.67839 22.0864 12.192 22.0864 16C22.0864 22.0672 17.984 26.7904 13.152 26.7904C7.87843 26.7904 4.21122 21.5552 4.21122 16C4.22402 11.8976 5.68962 7.8208 8.26243 4.8064C10.5088 2.1824 13.4208 0.512002 16.6144 -0.0127977C16.6144 -0.0127977 16.3456 -0.0319977 16 -0.0319977C7.14882 -0.0319977 -0.0319824 7.1488 -0.0319824 16C-0.0319824 19.6352 1.17762 22.9888 3.21922 25.6832C5.64482 28.7872 9.20963 30.752 13.152 30.752C20.768 30.752 26.3424 23.6736 26.3424 16Z" fill="#0093FF"/>
    </g>
    <defs>
        <clipPath id="clip0">
            <rect width="32" height="32" fill="white"/>
        </clipPath>
    </defs>
</svg>
