<svg width="32" height="32" viewBox="0 0 32 32" fill="none" xmlns="http://www.w3.org/2000/svg">
    <path d="M16 32C24.8366 32 32 24.8366 32 16C32 7.16344 24.8366 0 16 0C7.16344 0 0 7.16344 0 16C0 24.8366 7.16344 32 16 32Z" fill="black"/>
    <path d="M23.3701 18.3317C23.3749 18.0912 23.3031 18.0041 23.052 18.0083C22.2168 18.0221 21.3812 18.0072 20.5459 18.0175C20.3101 18.0204 20.208 17.9565 20.2146 17.7023C20.2292 17.134 20.201 14.8947 20.2014 14.3438C20.2017 14.0013 20.2059 13.9965 20.5394 13.9963C21.3837 13.9957 22.228 13.9921 23.0723 13.9989C23.2869 14.0006 23.3742 13.9288 23.3696 13.7044C23.3561 13.056 23.3513 12.4071 23.3616 11.7587C23.3652 11.5276 23.2949 11.4457 23.0586 11.4491C22.2589 11.4606 21.459 11.4535 20.6591 11.4535C20.2549 11.4535 20.2563 11.4534 20.2544 11.0622C20.2494 10.0584 20.2361 9.05454 20.2422 8.05079C20.2438 7.8001 20.156 7.72879 19.9151 7.73353C19.2577 7.74659 18.6001 7.74659 17.9423 7.73353C17.7106 7.72902 17.6333 7.79987 17.6366 8.03647C17.6507 9.0493 17.6477 10.0624 17.6501 11.0753C17.651 11.4525 17.6495 11.4533 17.2839 11.4534C16.5374 11.4536 15.7908 11.4603 15.0443 11.4516C14.2694 11.4426 14.3781 11.5946 14.3571 10.7487C14.3343 9.83384 14.3429 8.91813 14.3472 8.00286C14.3481 7.8085 14.2845 7.73286 14.0859 7.73509C13.4017 7.74267 12.7174 7.74272 12.033 7.73525C11.8304 7.73311 11.7713 7.82191 11.7731 8.00957C11.7831 9.04914 11.7817 10.0888 11.7963 11.1283C11.7996 11.3653 11.7324 11.4619 11.4798 11.4581C10.6446 11.4458 9.80889 11.4627 8.97374 11.4481C8.70807 11.4434 8.63621 11.5406 8.64152 11.7906C8.65472 12.4124 8.65577 13.035 8.64107 13.6568C8.63507 13.9117 8.71807 14.0038 8.97607 14.0003C9.81133 13.989 10.6469 14.0009 11.4822 13.9928C11.6992 13.9907 11.7795 14.0624 11.7785 14.2853C11.7732 15.4228 11.7742 16.5603 11.7886 17.6977C11.7918 17.9452 11.713 18.0215 11.4689 18.018C10.6337 18.0062 9.79803 18.0213 8.9628 18.0087C8.71229 18.0049 8.6388 18.0976 8.64197 18.3358C8.65045 18.9665 8.65348 19.598 8.63055 20.2282C8.62073 20.4977 8.71833 20.5635 8.96683 20.5602C9.79322 20.5493 10.62 20.5649 11.4463 20.5509C11.7074 20.5465 11.8039 20.6128 11.7988 20.8923C11.78 21.9228 11.7901 22.9538 11.7806 23.9845C11.7788 24.1903 11.848 24.2688 12.0589 24.2658C12.7342 24.2565 13.4099 24.255 14.0851 24.2665C14.3145 24.2704 14.397 24.2033 14.3929 23.9631C14.3756 22.9418 14.3755 21.9203 14.3711 20.8988C14.3698 20.5748 14.3906 20.5564 14.7199 20.5562C15.5909 20.5558 16.4619 20.5629 17.3327 20.5516C17.5717 20.5485 17.6598 20.6118 17.6558 20.8664C17.6395 21.9059 17.6478 22.9458 17.6383 23.9854C17.6365 24.1902 17.7013 24.2696 17.9145 24.2662C18.572 24.2557 19.2298 24.2625 19.8875 24.2623C20.2453 24.2622 20.256 24.253 20.2543 23.882C20.2496 22.8693 20.2479 21.8565 20.2335 20.844C20.2303 20.6228 20.3033 20.5495 20.5248 20.5521C21.369 20.5621 22.2134 20.5512 23.0576 20.5593C23.2845 20.5615 23.3744 20.4875 23.37 20.2511C23.3579 19.6115 23.358 18.9717 23.3701 18.3317ZM17.3566 18.0181C16.4858 18.0063 15.6149 18.0063 14.7438 18.0181C14.4956 18.0215 14.4158 17.9313 14.4204 17.6921C14.4314 17.1235 14.4131 14.8665 14.4022 14.3072C14.3979 14.0843 14.4586 13.9884 14.7016 13.9916C15.5902 14.0032 16.4792 14.0013 17.3678 13.9926C17.5882 13.9904 17.6633 14.0663 17.6628 14.2867C17.6607 15.4239 17.6667 16.5612 17.6808 17.6984C17.6842 17.9451 17.6004 18.0214 17.3567 18.0181H17.3566Z" fill="#FEFEFE"/>
</svg>
