<svg width="32" height="32" viewBox="0 0 32 32" fill="none" xmlns="http://www.w3.org/2000/svg">
    <path d="M16 32C24.8366 32 32 24.8366 32 16C32 7.16344 24.8366 0 16 0C7.16344 0 0 7.16344 0 16C0 24.8366 7.16344 32 16 32Z" fill="white"/>
    <path d="M14.3046 24.4736L8 29.0001L12.0024 10.5822L14.3046 24.4736ZM14.4321 24.4311L18.2715 24.4807L12.1511 10.653L14.4321 24.4311ZM18.6328 24.1265L21.5726 13.2315L20.4604 11.8714L18.6328 24.1265ZM17.2161 7.04736L12.3778 10.3059L19.4475 8.01785L17.2161 7.04736ZM16.6068 7.04736L13.6033 7.14654L13.1641 8.40037L16.6068 7.04736Z" fill="#384182"/>
    <path d="M20.248 11.4532L12.5054 10.3907L19.483 8.19468L20.248 11.4532ZM18.4133 7.35879L18.8384 6.20413L16.6069 5.23364L18.4133 7.35879ZM19.058 6.09079L19.5609 7.90424L22.5361 7.11794L19.058 6.09079Z" fill="#F79534"/>
    <path d="M18.4416 24.4097L12.2361 10.5254L20.3259 11.6588L18.4416 24.4097ZM16.9823 7.04723L13.157 8.54191L12.2361 10.242L16.9823 7.04723ZM14.6092 5.91381L13.6529 6.9693L16.8264 6.89138L14.6092 5.91381ZM16.281 5.09209L14.7651 5.79339L18.222 7.31641L16.281 5.09209ZM18.0094 5H16.3802L18.902 5.97757L18.0094 5ZM18.9516 6.29634L18.562 7.45809L19.3412 7.83353L18.9516 6.29634Z" fill="#F0513A"/>
</svg>
