<svg width="32" height="32" viewBox="0 0 32 32" fill="none" xmlns="http://www.w3.org/2000/svg">
    <path d="M16 32C24.8366 32 32 24.8366 32 16C32 7.16344 24.8366 0 16 0C7.16344 0 0 7.16344 0 16C0 24.8366 7.16344 32 16 32Z" fill="white"/>
    <path fill-rule="evenodd" clip-rule="evenodd" d="M11.1572 5.4728L10.4547 4.97363L9.76143 5.48793L10.0194 4.66523L9.31689 4.16526L10.1791 4.156L10.437 3.33333L10.7118 4.15096L11.574 4.14173L10.8824 4.656L11.1572 5.4728Z" fill="#D3A809"/>
    <path fill-rule="evenodd" clip-rule="evenodd" d="M22.2889 5.4728L21.5856 4.97363L20.8923 5.48793L21.1503 4.66523L20.4478 4.16526L21.31 4.156L21.568 3.33333L21.8427 4.15096L22.7049 4.14173L22.0125 4.656L22.2889 5.4728Z" fill="#D3A809"/>
    <path d="M26.1469 15.9204C24.8612 13.9205 23.8478 11.544 26.1083 9.88107C26.1252 9.87047 26.1395 9.85627 26.1503 9.83947C26.161 9.82264 26.1679 9.80367 26.1703 9.78387C26.1728 9.7641 26.1709 9.744 26.1647 9.72504C26.1584 9.7061 26.1481 9.68877 26.1343 9.67434L22.6403 5.90887C22.6195 5.88877 22.5929 5.8759 22.5643 5.8721C22.5357 5.86833 22.5067 5.87383 22.4814 5.88783C18.5739 8.0004 13.4438 8.07267 9.54636 5.88783C9.52126 5.8736 9.49223 5.86787 9.46359 5.8715C9.43496 5.87513 9.40829 5.88793 9.38753 5.908L5.89013 9.6777C5.87636 9.69214 5.86599 9.70947 5.85976 9.7284C5.85353 9.74737 5.85159 9.76744 5.85409 9.78724C5.85656 9.80704 5.86343 9.826 5.87419 9.84283C5.88493 9.85963 5.89926 9.87384 5.91616 9.8844C8.33209 11.6609 6.99346 14.17 5.68339 16.2381C4.43133 18.2187 4.37669 20.6077 5.29433 22.727C5.99853 24.3514 7.43799 25.3976 9.09006 25.911C10.2783 26.2808 11.5396 26.2161 12.7429 26.5127C13.9606 26.8127 15.0051 27.4917 15.9227 28.3244C15.9477 28.3481 15.9808 28.3612 16.0152 28.3612C16.0495 28.3612 16.0826 28.3481 16.1076 28.3244C17.7042 26.8715 19.389 26.4203 21.4857 26.1984C22.8571 26.053 24.1587 25.5766 25.2368 24.7119C27.8956 22.5791 27.8259 18.5952 26.1435 15.9238" fill="white"/>
    <path d="M25.7712 16.1751C23.82 13.2205 23.7533 11.0743 25.5712 9.73657L22.4822 6.40804L22.1234 6.603C20.436 7.48087 18.3999 7.92147 16.0151 7.92484C13.6303 7.92817 11.5911 7.48757 9.89756 6.603C9.77822 6.5383 9.65806 6.4736 9.54376 6.40804L6.45222 9.73657C8.26846 11.0743 8.20346 13.2205 6.25729 16.1751C5.06009 17.9807 4.77999 19.8669 5.41696 21.8338C6.21526 24.2988 8.13342 25.6279 11.1715 25.8211C13.0673 25.9388 14.6818 26.604 16.0151 27.8169C17.3467 26.604 18.9585 25.9388 20.8503 25.8211C23.89 25.6267 25.8082 24.2976 26.6048 21.8338C27.2384 19.8675 26.9606 17.9812 25.7712 16.1751ZM22.0738 10.6357L23.057 10.0164V10.9643L22.0738 11.6079V10.6357ZM6.57239 16.3793C8.55332 13.3799 8.69982 11.1519 7.01189 9.69537L9.61689 6.88114C9.65219 6.90047 9.68662 6.92064 9.72192 6.93577C11.4636 7.845 13.5614 8.3013 16.0151 8.30464C17.6915 8.30464 19.2041 8.09037 20.5402 7.666L6.25476 16.9095C6.34972 16.7347 6.45979 16.5541 6.57409 16.3801L6.57239 16.3793ZM6.90349 23.6817C6.61259 23.3643 6.36429 23.0103 6.16486 22.6288L6.90349 22.154V23.6817ZM7.21776 20.4675V19.5977L8.36059 18.8885V19.3532C8.34042 19.5339 8.39589 19.5885 8.52866 19.5137L9.34712 18.9641V18.1305C9.30766 18.0465 9.18749 18.0414 8.99336 18.1162L7.97489 18.765C7.73539 18.933 7.55472 19.0171 7.43119 18.9994C7.30769 18.9818 7.24129 18.8843 7.22196 18.6902L7.21609 17.4078C7.18666 17.228 7.30012 17.0583 7.55222 16.8936L9.98916 15.381C10.0982 15.3422 10.2175 15.3439 10.3253 15.386C10.3896 15.4352 10.4341 15.5059 10.4505 15.5852V16.2944L9.35219 16.9726V16.6986C9.32696 16.5894 9.24716 16.5734 9.12276 16.644L8.59336 16.9801C8.51846 17.0232 8.45256 17.0802 8.39926 17.1482C8.38286 17.171 8.37129 17.1969 8.36522 17.2244C8.35916 17.2518 8.35872 17.2802 8.36396 17.3078V17.6818C8.38412 17.7969 8.44379 17.8414 8.54882 17.802L9.64546 17.1423C10.0043 16.9742 10.274 17.0289 10.4488 17.2826L10.4639 18.4751C10.4681 18.8398 10.369 19.0834 10.1547 19.1994L7.68079 20.7876C7.36649 20.938 7.21189 20.8288 7.21609 20.4641L7.21776 20.4675ZM10.9538 25.422C10.2628 25.3672 9.58172 25.2228 8.92782 24.9926V20.8406L10.9538 19.5339V25.422ZM12.0723 17.9818L11.0891 18.6305V17.6625L12.0723 17.0431V17.9818ZM15.0017 26.585C14.3707 26.2073 13.6907 25.9186 12.9807 25.727V18.2204L15.0059 16.9137L15.0017 26.585ZM16.2042 12.3516L15.4756 12.8264L15.2613 12.7205L14.4429 13.2651V14.0491L15.1008 13.6693V13.3928L15.6655 13.0037V14.5457L15.0512 14.9541V14.4558L14.458 14.839V15.7633L15.0613 15.3743V16.0877L12.7857 17.5263L12.7757 16.8272L13.2395 16.5121V14.0592L12.7605 14.3482V13.6046L16.2059 11.3685L16.2042 12.3516ZM16.4739 14.1886L17.4571 13.5693V14.5129L16.4739 15.1566V14.1886ZM19.0571 25.727C18.3446 25.9184 17.6626 26.2089 17.031 26.59V15.6012L19.0571 14.2936V25.727ZM18.6974 13.7642C18.3982 13.9239 18.2235 13.8247 18.1688 13.455V10.5054C18.1883 10.3093 18.2778 10.1267 18.4209 9.99117L21.0612 8.24497C21.2402 8.16097 21.3604 8.19037 21.4158 8.329V9.23657L20.3873 9.91974V9.76007C20.3772 9.63487 20.2974 9.63067 20.1478 9.75L19.4587 10.2592C19.4067 10.3152 19.3753 10.3872 19.3697 10.4634L19.394 11.971C19.3903 12.0513 19.4038 12.1315 19.4335 12.2063C19.4638 12.255 19.5176 12.2609 19.594 12.2214L20.2428 11.7869V10.9197L21.4192 10.2063V11.5685C21.3754 11.8507 21.2338 12.1085 21.0192 12.297L18.6974 13.7642ZM23.1049 24.9934C22.4494 25.2248 21.7667 25.3705 21.0738 25.427V12.981L23.1057 11.6735L23.1049 24.9934ZM26.2485 21.7162C26.0189 22.4404 25.6379 23.1075 25.1309 23.6733V15.8701C25.2301 16.0381 25.3401 16.2062 25.4553 16.3793C26.5819 18.0863 26.8463 19.8661 26.2485 21.7187" fill="#231F20"/>
    <path d="M11.0337 8.11473C10.4068 8.1163 9.80605 8.36603 9.36275 8.8093C8.91948 9.2526 8.66975 9.85336 8.66822 10.4803C8.66362 10.7916 8.72282 11.1006 8.84218 11.3882C8.96158 11.6758 9.13858 11.9359 9.36232 12.1525C9.39255 12.1769 9.42282 12.208 9.45222 12.2323C9.87908 12.6354 10.4467 12.8556 11.0337 12.8458C11.5009 12.8456 11.9576 12.7069 12.3461 12.4473C12.7346 12.1877 13.0374 11.8188 13.2163 11.3872C13.3953 10.9556 13.4423 10.4807 13.3514 10.0224C13.2606 9.56403 13.036 9.14293 12.706 8.8122C12.4901 8.58753 12.2301 8.40983 11.9424 8.29023C11.6546 8.17066 11.3453 8.11176 11.0337 8.11726V8.11473ZM11.0396 8.34163C11.2751 8.34206 11.509 8.3795 11.7329 8.45256C11.7348 8.45433 11.7363 8.45656 11.7372 8.45906C11.7381 8.46156 11.7383 8.46423 11.7379 8.46683C12.3118 9.4895 12.3614 10.3685 11.906 11.092C11.9009 11.087 11.8908 11.087 11.8808 11.0828C11.9959 10.0845 11.6816 9.1702 10.9278 8.3475C10.966 8.3426 11.0045 8.34063 11.043 8.34163H11.0396ZM11.9556 11.3365C11.9477 11.3688 11.9304 11.3981 11.906 11.4206C11.8919 11.4414 11.8749 11.46 11.8556 11.476C11.8041 11.5193 11.7451 11.5529 11.6816 11.5752C11.6049 11.6038 11.524 11.6192 11.4421 11.6206C11.4328 11.6159 11.4223 11.6138 11.4119 11.6147C11.3897 11.6135 11.3681 11.607 11.3489 11.5958C11.3298 11.5845 11.3136 11.5688 11.3018 11.55C11.2943 11.5304 11.2927 11.5091 11.2972 11.4887C11.3017 11.4682 11.312 11.4495 11.327 11.4349C11.3296 11.4324 11.3313 11.4291 11.332 11.4256H11.3371C11.3984 11.3545 11.4776 11.3011 11.5665 11.271C11.6253 11.2462 11.6877 11.2312 11.7514 11.2265C11.7794 11.2259 11.8075 11.2273 11.8354 11.2307C11.8671 11.2347 11.8976 11.245 11.9253 11.2609C11.9361 11.2715 11.946 11.283 11.9547 11.2954V11.3012C11.9577 11.3125 11.9577 11.3244 11.9547 11.3357L11.9556 11.3365ZM10.6421 8.37523C11.4413 9.18953 11.7648 10.0929 11.6362 11.0912C11.593 11.0995 11.551 11.113 11.511 11.1315C11.4201 11.1617 11.3368 11.211 11.2665 11.276C10.1461 11.076 9.59032 10.2861 9.59928 8.90633C9.88895 8.6332 10.2509 8.4489 10.6421 8.37523ZM8.90518 10.476C8.89815 9.9898 9.06472 9.51696 9.37492 9.14246C9.42532 10.4803 10.0136 11.2606 11.1396 11.4836C10.401 11.6685 9.67742 11.513 8.96905 11.0097C8.92368 10.8355 8.90165 10.656 8.90348 10.476H8.90518ZM9.53288 11.9886C9.34782 11.8078 9.19718 11.5948 9.08835 11.3601C9.78245 11.7743 10.4816 11.8886 11.1951 11.7038C11.2102 11.7096 11.2194 11.7189 11.2404 11.729C10.8648 12.0432 10.3018 12.1382 9.55305 12.0029C9.54535 11.9997 9.53848 11.9948 9.53288 11.9886ZM11.3051 12.6021C11.2211 12.6079 11.1295 12.6121 11.0404 12.6172C10.6396 12.6193 10.2466 12.5068 9.90768 12.2928C10.636 12.3432 11.1746 12.1687 11.5236 11.7693V11.7634C11.5518 11.7626 11.5799 11.7595 11.6077 11.7542C11.6421 12.1088 11.543 12.3928 11.3085 12.6021H11.3051ZM12.5505 11.9886C12.3044 12.2398 11.9989 12.4247 11.6623 12.5264C11.8119 12.292 11.8614 12.013 11.8211 11.6735C11.8373 11.6672 11.8526 11.6588 11.8665 11.6483C12.0636 11.8182 12.3038 11.9305 12.5606 11.9727L12.5455 11.9878L12.5505 11.9886ZM12.7555 11.7533C12.4926 11.7555 12.2375 11.6637 12.0362 11.4945C12.0464 11.482 12.0549 11.4681 12.0614 11.4533C12.5499 11.3889 12.9208 11.0945 13.174 10.5702C13.1619 10.9989 13.0149 11.413 12.7539 11.7533H12.7555ZM13.1026 10.1458C12.8931 10.7648 12.5539 11.1245 12.085 11.2248C12.574 10.4912 12.5639 9.6122 12.0598 8.5996C12.2379 8.6988 12.4009 8.82303 12.5438 8.9685C12.8463 9.25836 13.0517 9.63463 13.132 10.0458C13.1219 10.0761 13.1118 10.1113 13.1018 10.1458" fill="#231F20"/>
</svg>
