<svg width="32" height="32" viewBox="0 0 32 32" fill="none" xmlns="http://www.w3.org/2000/svg">
<g clip-path="url(#clip0_1297_81)">
<path d="M9.77863 23.4984C8.23435 22.2188 7.12245 20.4939 6.5946 18.5591C6.06676 16.6243 6.14868 14.5738 6.82918 12.6872C7.50969 10.8007 8.75565 9.17002 10.3971 8.0177C12.0385 6.86538 13.9955 6.24751 16.001 6.2484H28.6833C26.2384 3.06825 22.6881 0.922572 18.7359 0.236529C14.7837 -0.449514 10.7179 0.374143 7.34433 2.54429C3.97072 4.71444 1.53543 8.07271 0.521024 11.9537C-0.493385 15.8346 -0.0128908 19.955 1.8673 23.4984H9.77863Z" fill="#4E4294"/>
<path d="M30.1349 8.49838H22.2235C23.7514 9.76408 24.8564 11.466 25.3909 13.3767C25.9254 15.2874 25.8639 17.3157 25.2146 19.1904C24.5652 21.0652 23.3591 22.697 21.7573 23.8678C20.1556 25.0386 18.2346 25.6925 16.2512 25.742V25.7484H3.31885C5.76372 28.9285 9.31403 31.0742 13.2663 31.7603C17.2185 32.4463 21.2842 31.6227 24.6579 29.4525C28.0315 27.2824 30.4668 23.9241 31.4812 20.0431C32.4956 16.1622 32.0151 12.0418 30.1349 8.49838Z" fill="#4E4294"/>
<path d="M3.33118 25.7484H16.2514V25.742C18.2348 25.6925 20.1558 25.0386 21.7576 23.8678C23.3593 22.697 24.5655 21.0652 25.2148 19.1904C25.8641 17.3157 25.9257 15.2874 25.3912 13.3767C24.8567 11.466 23.7516 9.76408 22.2238 8.49838H30.1148C29.6941 7.70963 29.2088 6.95706 28.6639 6.24838H16.0014C13.9959 6.2475 12.0389 6.86536 10.3975 8.01768C8.75606 9.17001 7.5101 10.8007 6.82959 12.6872C6.14909 14.5738 6.06717 16.6243 6.59502 18.5591C7.12287 20.4939 8.23478 22.2188 9.77906 23.4984H1.87012C2.29341 24.2879 2.78215 25.0405 3.33118 25.7484V25.7484Z" fill="white"/>
<path d="M16.001 23.4984C20.1431 23.4984 23.501 20.1405 23.501 15.9984C23.501 11.8562 20.1431 8.49838 16.001 8.49838C11.8588 8.49838 8.50098 11.8562 8.50098 15.9984C8.50098 20.1405 11.8588 23.4984 16.001 23.4984Z" fill="#F08619"/>
<path d="M19.0069 15.9429C19.2026 15.7567 19.3584 15.5326 19.4649 15.2843C19.5713 15.0359 19.6261 14.7686 19.626 14.4984C19.6089 13.9734 19.3926 13.4746 19.0212 13.1031C18.6498 12.7317 18.151 12.5155 17.626 12.4984H12.376V19.4984H17.751C18.2613 19.4764 18.7429 19.2559 19.093 18.884C19.4431 18.512 19.6341 18.0181 19.6253 17.5073C19.648 17.2167 19.6041 16.9247 19.497 16.6536C19.3898 16.3825 19.2222 16.1394 19.0069 15.9429V15.9429ZM17.376 17.8734H14.626C14.4934 17.8734 14.3662 17.8207 14.2724 17.7269C14.1787 17.6332 14.126 17.506 14.126 17.3734C14.126 17.2408 14.1787 17.1136 14.2724 17.0198C14.3662 16.9261 14.4934 16.8734 14.626 16.8734H17.376C17.5086 16.8734 17.6358 16.9261 17.7295 17.0198C17.8233 17.1136 17.876 17.2408 17.876 17.3734C17.876 17.506 17.8233 17.6332 17.7295 17.7269C17.6358 17.8207 17.5086 17.8734 17.376 17.8734ZM17.376 15.1234H14.626C14.4934 15.1234 14.3662 15.0707 14.2724 14.9769C14.1787 14.8832 14.126 14.756 14.126 14.6234C14.126 14.4908 14.1787 14.3636 14.2724 14.2698C14.3662 14.1761 14.4934 14.1234 14.626 14.1234H17.376C17.5086 14.1234 17.6358 14.1761 17.7295 14.2698C17.8233 14.3636 17.876 14.4908 17.876 14.6234C17.876 14.756 17.8233 14.8832 17.7295 14.9769C17.6358 15.0707 17.5086 15.1234 17.376 15.1234Z" fill="white"/>
</g>
<defs>
<clipPath id="clip0_1297_81">
<rect width="32" height="32" fill="white"/>
</clipPath>
</defs>
</svg>
