<svg width="32" height="32" viewBox="0 0 32 32" fill="none" xmlns="http://www.w3.org/2000/svg">
    <circle cx="16" cy="16" r="15" fill="white"/>
    <path d="M27.3142 4.688C24.2907 1.664 20.2742 0 16.0016 0C7.17766 0 0 7.1776 0 16C0 24.8224 7.17766 32 16.0016 32C20.2742 32 24.2939 30.336 27.3142 27.312C30.3377 24.288 32 20.272 32 16C32 11.728 30.3377 7.7088 27.3142 4.688ZM16.0016 30.8928C7.78941 30.8928 1.1082 24.2112 1.1082 16C1.1082 7.7888 7.78941 1.1072 16.0016 1.1072C24.2138 1.1072 30.895 7.7888 30.895 16C30.895 24.2112 24.2138 30.8928 16.0016 30.8928Z" fill="#1B1B1B"/>
    <path d="M21.254 16.3783C20.2291 15.4631 18.8871 14.8519 17.5867 14.2599L17.5771 14.2567C15.2838 13.2103 13.3012 12.3047 13.4422 10.1639C13.503 9.34795 14.0955 8.85514 14.5824 8.58954C15.1301 8.28874 15.8571 8.10954 16.5297 8.10954C16.6098 8.10954 16.6899 8.11275 16.7667 8.11595C18.7237 8.24715 20.2675 9.07594 21.7761 10.7975L21.8657 10.9031L21.9714 10.8135L22.5608 10.3015L22.6665 10.2087L22.5736 10.1031C20.8921 8.17675 19.0664 7.20715 16.834 7.05675C16.7379 7.04715 16.6354 7.04395 16.5233 7.04395C16.4561 7.04395 16.3824 7.04395 16.3055 7.04715H16.2094C14.7457 7.04715 13.1411 7.52714 11.9208 8.33354C10.4635 9.29674 9.64674 10.6215 9.62432 12.0647C9.56667 15.5751 12.4397 16.7559 14.9731 17.8023L14.9795 17.8055L15.0052 17.8151C17.2472 18.7431 19.1817 19.5431 19.1401 21.6871C19.1209 23.1015 17.0966 23.8823 15.7066 23.8823H15.6489H15.5112V23.8855C13.439 23.8247 11.5877 22.9319 10.0087 21.2391L9.91258 21.1367L9.81008 21.2295L9.23677 21.7607L9.13428 21.8567L9.23036 21.9591C11.024 23.8887 13.2372 24.9255 15.6329 24.9543H15.7418C17.2888 24.9543 18.9703 24.5383 20.2387 23.8375C21.8273 22.9703 22.7529 21.7063 22.849 20.2791C22.9579 18.7111 22.4358 17.4343 21.254 16.3783ZM13.8169 13.3255C14.7297 14.1063 15.966 14.6663 17.1607 15.2071L17.1831 15.2167C18.4483 15.7991 19.6461 16.3495 20.5141 17.1143C21.475 17.9591 21.8818 18.9383 21.7953 20.1959C21.7152 21.4407 20.7896 22.2727 19.9472 22.7751C20.1106 22.4423 20.2002 22.0807 20.2098 21.6967C20.2291 20.4039 19.7326 19.3703 18.6885 18.5319C17.7757 17.7991 16.565 17.3031 15.3927 16.8199C12.9553 15.8183 10.6524 14.8711 10.6941 12.0743C10.7069 10.9991 11.3539 9.98154 12.5165 9.21034C12.555 9.18474 12.5934 9.15914 12.635 9.13354C12.4973 9.43434 12.4204 9.74794 12.4012 10.0775C12.3083 11.3735 12.7728 12.4359 13.8169 13.3255Z" fill="#1B1B1B"/>
</svg>
