<svg width="32" height="32" viewBox="0 0 32 32" fill="none" xmlns="http://www.w3.org/2000/svg">
    <path d="M16 32C24.8366 32 32 24.8366 32 16C32 7.16344 24.8366 0 16 0C7.16344 0 0 7.16344 0 16C0 24.8366 7.16344 32 16 32Z" fill="white"/>
    <path d="M21.6597 11.163H8.53471C8.53471 9.538 9.61805 7.85745 12.6042 7.82967H25.7014C25.7014 9.88523 24.1597 11.1352 21.6597 11.163ZM19.6875 14.7324H12.368C9.38193 14.7602 8.29859 16.4408 8.29859 18.0658H15.6458C18.1458 18.038 19.6875 16.788 19.6875 14.7324ZM10.2292 20.9686C9.84733 20.9686 9.47407 21.0818 9.15659 21.2939C8.83911 21.506 8.59166 21.8076 8.44554 22.1603C8.29942 22.5131 8.26119 22.9013 8.33568 23.2757C8.41017 23.6502 8.59404 23.9942 8.86403 24.2642C9.13403 24.5342 9.47802 24.7181 9.85251 24.7926C10.227 24.8671 10.6152 24.8288 10.9679 24.6827C11.3207 24.5366 11.6222 24.2892 11.8344 23.9717C12.0465 23.6542 12.1597 23.2809 12.1597 22.8991C12.1597 22.3871 11.9563 21.8961 11.5943 21.534C11.2322 21.172 10.7412 20.9686 10.2292 20.9686Z" fill="#353A69"/>
</svg>
