<svg width="32" height="32" viewBox="0 0 32 32" fill="none" xmlns="http://www.w3.org/2000/svg">
    <g clip-path="url(#clip0_1110_270)">
        <path d="M16 32C19.1645 32 22.2579 31.0616 24.8891 29.3035C27.5203 27.5454 29.5711 25.0466 30.7821 22.1229C31.9931 19.1993 32.3099 15.9823 31.6926 12.8786C31.0752 9.77486 29.5513 6.92393 27.3137 4.68629C25.0761 2.44865 22.2251 0.924799 19.1214 0.307435C16.0177 -0.309928 12.8007 0.00692487 9.87706 1.21793C6.95345 2.42893 4.45459 4.47969 2.69649 7.11088C0.938384 9.74206 1.12515e-10 12.8355 1.12511e-10 16C-7.87925e-06 18.1012 0.413839 20.1817 1.21791 22.1229C2.02198 24.0642 3.20054 25.828 4.68627 27.3137C6.17201 28.7995 7.93584 29.978 9.87706 30.7821C11.8183 31.5862 13.8988 32 16 32V32Z" fill="#AB1F26"/>
        <path d="M17.0872 20.1059L15.9999 22.1312L14.9126 20.1059C8.34454 19.5961 3.18921 14.6986 3.18921 14.6986C3.18921 14.6869 8.19871 9.94107 14.6327 9.31576L15.4843 7.85747L15.9999 7L16.8749 8.45828L17.3673 9.31576C23.8 9.9294 28.8107 14.6986 28.8107 14.6986C28.8107 14.6986 23.6542 19.5961 17.0861 20.1059H17.0872ZM4.27651 14.6986C4.26484 14.6986 9.23001 18.0911 14.2173 18.8086L11.7861 14.2587L12.4464 13.1131L13.053 14.2471L13.0414 14.2588L15.4061 18.9136C15.5963 18.9253 15.7865 18.9253 15.9778 18.9253C16.1679 18.9253 16.3476 18.9253 16.5378 18.9136L18.2749 15.4511L19.5419 13.0898L20.2022 14.2354L17.7709 18.7969C21.3392 18.1388 24.7295 16.7386 27.7223 14.6869C24.8252 12.713 21.5641 11.3356 18.1291 10.6353L18.8687 11.9209L18.2527 13.1587L16.6498 10.4731C16.4334 10.4596 16.2168 10.4518 16 10.4498C15.7865 10.4498 15.5625 10.4614 15.3385 10.4731L13.7017 13.1587L13.0974 11.978L13.8697 10.6469C10.449 11.3929 7.1963 12.7667 4.27651 14.6986V14.6986Z" fill="white"/>
        <path d="M23.347 19.88L22.339 20.35L24.367 23.918H7.64396L9.65496 20.347L8.64596 19.877L5.78296 25H26.201L23.347 19.88Z" fill="white"/>
    </g>
    <defs>
        <clipPath id="clip0_1110_270">
            <rect width="32" height="32" fill="white"/>
        </clipPath>
    </defs>
</svg>
