<svg width="32" height="32" viewBox="0 0 32 32" fill="none" xmlns="http://www.w3.org/2000/svg">
<path d="M16.0415 31.9872C24.625 31.9872 31.583 25.0292 31.583 16.4458C31.583 7.86242 24.625 0.904236 16.0415 0.904236C7.45818 0.904236 0.5 7.86242 0.5 16.4458C0.5 25.0292 7.45818 31.9872 16.0415 31.9872Z" fill="#FE0000"/>
<path d="M25.9524 20.4975C25.1293 20.3668 24.2801 20.3407 23.47 20.5236C19.2759 21.595 20.8569 23.3849 19.9292 20.8633C19.9292 20.8502 19.5896 20.6412 19.5765 20.6281C19.5504 20.5759 19.5243 20.5367 19.4851 20.4975C18.9624 19.7266 18.1784 19.1648 17.2769 18.9296C17.2639 18.9165 17.2508 18.9165 17.2377 18.9165C15.9965 18.5768 14.5854 18.812 13.5794 19.6351C13.2266 19.8964 12.8739 20.0793 12.6125 20.4321L12.495 20.5236C12.4427 20.5759 12.4166 20.6281 12.3774 20.6804L12.2206 20.8241C11.9331 21.2421 12.0115 21.608 11.8155 22.0783C11.7633 22.1175 11.7633 22.3004 11.698 22.2351C11.4758 22 11.2537 21.7779 11.0055 21.595C9.65973 20.4321 7.77829 20.1054 6.06671 20.4583C6.00138 21.5035 6.5632 22.4833 7.17728 23.2804C7.84363 24.1035 8.62755 24.809 9.47681 25.4231C10.0125 25.8281 10.5743 26.1678 11.1623 26.4945C11.2015 26.5337 11.2407 26.5598 11.2929 26.5598C11.3191 26.5729 11.3452 26.586 11.3713 26.599C11.3975 26.6121 11.4105 26.6382 11.4497 26.6382C11.7763 26.8342 12.1291 27.004 12.4819 27.1477C12.4819 27.1477 12.4819 27.1477 12.4819 27.1347C12.4819 27.1347 12.4819 27.1347 12.4819 27.1477C12.5211 27.1738 12.5733 27.2 12.6256 27.2C12.6387 27.2261 12.6909 27.2522 12.7171 27.2392C12.7171 27.2392 12.7171 27.2392 12.704 27.2522C12.7171 27.2653 12.7301 27.2784 12.7563 27.2784C12.7824 27.2914 12.8085 27.3045 12.8347 27.3045C12.8477 27.3175 12.8739 27.3306 12.9 27.3306C12.9261 27.3437 12.9392 27.3567 12.9653 27.3567C13.0306 27.3961 13.109 27.4091 13.1744 27.4353C13.2136 27.4483 13.2397 27.4614 13.2789 27.4744C13.3703 27.5136 13.4879 27.5528 13.5925 27.579C17.6558 28.99 22.2941 26.599 24.8549 23.4371C24.8811 23.411 24.8941 23.3849 24.8941 23.3588C24.9856 23.3065 25.0509 23.1759 25.0901 23.0844C25.1554 22.9799 25.2338 22.8754 25.2991 22.7447C25.3122 22.7317 25.3252 22.7186 25.3252 22.7056C25.3515 22.6533 25.3907 22.614 25.4038 22.5617C25.7304 21.9869 26.1092 21.1245 25.9524 20.4975ZM9.35922 25.3056C9.37228 25.3056 9.37228 25.3056 9.35922 25.3056C9.37228 25.3056 9.37228 25.3056 9.35922 25.3056ZM11.711 22.3135C11.7241 22.3135 11.7241 22.3135 11.711 22.3135C11.7241 22.3266 11.711 22.3135 11.711 22.3135ZM12.4296 27.1085C12.4296 27.1085 12.4166 27.1085 12.4296 27.1085C12.4166 27.1085 12.4296 27.1085 12.4296 27.1085ZM14.7161 27.801C14.7292 27.801 14.7161 27.801 14.7161 27.801V27.801ZM20.3734 26.8603C20.3734 26.8603 20.3604 26.8603 20.3734 26.8603C20.3604 26.8603 20.3734 26.8603 20.3734 26.8603Z" fill="#FDFDFD"/>
<path d="M21.5889 8.03298C27.9127 2.10123 25.7046 11.1426 24.5157 14.6964C25.0252 15.9376 25.7046 17.205 25.8614 18.5899C25.9267 19.2171 26.0704 19.9487 26.0051 20.5367C24.2675 20.1708 22.3468 20.5759 20.988 21.7388C19.8905 22.8493 20.5698 21.9086 19.4855 20.4975C17.2904 17.4402 12.9396 18.7729 11.8551 22.1046C11.816 22.1829 11.7898 22.3789 11.6853 22.2483C10.3004 20.6674 8.11841 20.0924 6.09326 20.4845C6.05405 18.4854 6.81186 16.5256 7.56965 14.7356C6.69427 12.227 5.67515 8.68625 6.78573 6.15155C7.83096 5.41988 9.73853 7.43197 10.5225 8.08524C13.423 11.2994 11.5808 9.14355 16.3236 9.30034C20.9488 9.39179 18.6884 11.1687 21.5889 8.03298Z" fill="#FDA000"/>
<path d="M10.1691 11.0251C9.92081 11.2472 9.67257 11.4693 9.45046 11.7045C9.29367 11.8744 9.13688 12.0312 8.99316 12.201C8.82332 12.4101 8.65346 12.6322 8.48361 12.8412C8.33989 13.0372 8.20924 13.2462 8.06551 13.4292C8.05245 13.4422 8.05245 13.4684 8.02632 13.4684C8.00019 13.4684 8.01325 13.4422 8.00019 13.4292C7.92179 13.194 7.8434 12.9719 7.76501 12.7367C7.68661 12.5146 7.62129 12.2794 7.55596 12.0442C7.49063 11.796 7.42531 11.5477 7.35997 11.2995C7.33384 11.1819 7.29465 11.0774 7.28159 10.9598C7.24238 10.7638 7.20319 10.5678 7.164 10.3588C7.13787 10.202 7.11173 10.0582 7.09867 9.90146C7.0856 9.79693 7.07254 9.70547 7.05947 9.60096C7.04641 9.32657 7.02028 9.03914 7.03335 8.76475C7.03335 8.62103 7.05947 8.49038 7.07254 8.34666C7.09867 8.216 7.07254 8.22907 7.22932 8.24213C7.45143 8.26826 7.67355 8.33359 7.8826 8.42505C8.1831 8.54265 8.44442 8.71249 8.69266 8.90848C8.91478 9.09139 9.11075 9.30044 9.29367 9.52256C9.38512 9.64015 9.48965 9.77081 9.58111 9.8884C9.67257 10.006 9.76403 10.1366 9.84242 10.2673C9.90775 10.3849 9.98615 10.5155 10.0645 10.6331C10.1168 10.7246 10.1691 10.8291 10.2213 10.9336C10.2344 10.999 10.2082 11.012 10.1691 11.0251Z" fill="#FE7900"/>
<path d="M24.8291 8.25513C24.8553 8.35966 24.8683 8.45111 24.8683 8.55564C24.8814 8.67323 24.8814 8.79081 24.8945 8.9084C24.8945 9.07826 24.8814 9.24811 24.8814 9.41796C24.8814 9.53555 24.8683 9.64007 24.8553 9.75766C24.8291 9.97978 24.803 10.215 24.7638 10.4371C24.7246 10.6461 24.6854 10.8682 24.6462 11.0773C24.594 11.2994 24.5417 11.5084 24.4764 11.7306C24.398 12.0441 24.2935 12.3577 24.2021 12.6713C24.1629 12.8019 24.1235 12.9326 24.0844 13.0502C24.0452 13.1939 23.9798 13.3246 23.9407 13.4552C23.9276 13.4944 23.9015 13.4944 23.8884 13.4683C23.7839 13.3115 23.6794 13.1547 23.5618 12.9979C23.4965 12.9065 23.4311 12.815 23.3658 12.7366C23.2744 12.619 23.1829 12.5014 23.0915 12.3969C22.9608 12.2271 22.817 12.0703 22.6733 11.9135C22.5165 11.7436 22.3598 11.5868 22.203 11.43C22.0723 11.2994 21.9286 11.1818 21.7849 11.0512C21.7195 10.9989 21.7195 10.9989 21.7587 10.9205C21.8764 10.6592 22.0462 10.4109 22.203 10.1627C22.3467 9.92752 22.5165 9.71847 22.6994 9.49635C22.8039 9.3657 22.9346 9.24811 23.0523 9.11746C23.196 8.96067 23.3789 8.83002 23.5487 8.71243C23.6924 8.62097 23.8361 8.51644 23.9929 8.46417C24.189 8.38579 24.3719 8.30739 24.5809 8.29433C24.6593 8.28126 24.7246 8.25513 24.803 8.25513C24.79 8.25513 24.8161 8.24207 24.8291 8.25513Z" fill="#FE7900"/>
<path d="M13.3832 18.7859C13.0043 18.7728 12.6254 18.7075 12.2465 18.6291C11.75 18.5115 11.2535 18.3547 10.7962 18.1326C10.548 18.015 10.2997 17.8713 10.0907 17.6753C9.99922 17.5838 9.92082 17.4924 9.92082 17.3487C9.90776 17.0743 9.89469 16.7999 9.96002 16.5255C9.96002 16.4994 9.97309 16.4863 9.97309 16.4602C10.0645 16.212 10.0515 16.225 10.3259 16.2512C10.7309 16.2904 11.0837 16.4733 11.4364 16.6431C12.0113 16.9306 12.5731 17.2703 13.1088 17.623C13.357 17.7929 13.5792 17.9889 13.749 18.2371C13.8143 18.3416 13.8535 18.4331 13.8797 18.5507C13.8927 18.6421 13.8666 18.6683 13.7882 18.7075C13.6576 18.7859 13.5269 18.7859 13.3832 18.7859Z" fill="black"/>
<path d="M22.3332 17.009C22.3332 17.1658 22.3201 17.3095 22.3071 17.4533C22.3071 17.4925 22.2809 17.5186 22.2548 17.5447C22.085 17.7407 21.876 17.8844 21.6537 18.0151C21.1181 18.3156 20.5301 18.4985 19.9291 18.6422C19.6548 18.7076 19.3803 18.7468 19.106 18.7729C18.9361 18.786 18.7532 18.786 18.5834 18.7468C18.5573 18.7337 18.5181 18.7206 18.492 18.7076C18.4397 18.6814 18.4136 18.6422 18.4136 18.5638C18.4528 18.3679 18.5442 18.2111 18.6618 18.0674C18.8578 17.8191 19.119 17.6362 19.3803 17.4663C19.8508 17.1658 20.3211 16.8653 20.8176 16.6171C21.1312 16.4603 21.4447 16.3166 21.7845 16.2382C21.889 16.212 21.9935 16.212 22.1111 16.212C22.1503 16.212 22.1764 16.2251 22.1895 16.2643C22.294 16.4472 22.3071 16.6432 22.3201 16.8522C22.3332 16.9176 22.3332 16.9568 22.3332 17.009Z" fill="black"/>
<path d="M24.8295 8.255C24.7119 8.28114 24.5813 8.2942 24.4637 8.32033C24.333 8.34646 24.1893 8.38567 24.0716 8.45099C24.0194 8.47711 23.9541 8.50326 23.9018 8.51632C23.8234 8.54245 23.7712 8.58164 23.7058 8.62083C23.5752 8.69923 23.4576 8.77763 23.34 8.86909C23.1963 8.9736 23.0788 9.09119 22.9481 9.22186C22.8304 9.32637 22.739 9.45704 22.6345 9.57463C22.5561 9.66608 22.4907 9.7706 22.4124 9.86206C22.3601 9.9274 22.3078 10.0058 22.2556 10.0842C22.1511 10.2148 22.0858 10.3716 21.9943 10.5023C21.9159 10.6329 21.8375 10.7767 21.7722 10.9073C21.746 10.9596 21.7329 10.9988 21.7853 11.038C21.746 11.038 21.7329 11.0118 21.7198 10.9857C21.6414 10.9073 21.55 10.842 21.4716 10.7767C21.3279 10.6721 21.2103 10.5676 21.0536 10.4761C20.9882 10.437 20.936 10.3977 20.8837 10.3586C20.8445 10.3324 20.8053 10.3063 20.7531 10.2802C20.727 10.2671 20.727 10.241 20.74 10.2279C20.7923 10.1626 20.8445 10.1103 20.8968 10.0581C20.9491 10.0058 21.0013 9.94046 21.0536 9.90126C21.1189 9.849 21.1581 9.78367 21.2365 9.73141C21.3018 9.69222 21.341 9.62688 21.3932 9.57463C21.4716 9.49623 21.5631 9.41783 21.6414 9.33945C21.7592 9.23492 21.8637 9.11733 21.9943 9.02587C22.0858 8.94747 22.1641 8.86909 22.2687 8.80376C22.334 8.76456 22.3862 8.69923 22.4516 8.66004C22.6083 8.54245 22.7651 8.41179 22.9349 8.2942C23.0918 8.18968 23.2486 8.07209 23.4184 7.98063C23.5491 7.90223 23.6928 7.82384 23.8234 7.75851C23.941 7.69319 24.0716 7.64092 24.1893 7.58866C24.2939 7.53639 24.4114 7.51027 24.5159 7.47107C24.5551 7.45801 24.5682 7.4972 24.5813 7.51027C24.6335 7.62786 24.6858 7.73238 24.725 7.84997C24.7642 7.96756 24.7772 8.08515 24.8164 8.20274C24.8295 8.20274 24.8295 8.22887 24.8295 8.255Z" fill="#FE8E00"/>
<path d="M10.1687 11.025C10.2079 10.9859 10.2079 10.9466 10.1556 10.8683C10.1164 10.8029 10.0772 10.7507 10.0642 10.6723C10.0642 10.6461 10.038 10.6461 10.025 10.6331C9.94657 10.5024 9.86819 10.3718 9.78979 10.2411C9.73753 10.1497 9.6722 10.0713 9.61994 9.99286C9.54155 9.87527 9.46315 9.77076 9.38476 9.66623C9.26717 9.5225 9.14959 9.37878 9.01893 9.24813C8.92747 9.16973 8.86214 9.07828 8.75761 8.99989C8.65308 8.92149 8.56164 8.83004 8.45711 8.76471C8.36565 8.69939 8.26112 8.64712 8.16966 8.56872C8.13047 8.54259 8.06513 8.51646 8.02594 8.5034C7.84303 8.425 7.66011 8.34662 7.46412 8.30741C7.37267 8.28128 7.26815 8.26822 7.17668 8.25516C7.12443 8.25516 7.11135 8.26822 7.11135 8.32048C7.11135 8.33354 7.11135 8.34662 7.09829 8.35968C7.08522 8.29435 7.11135 8.24209 7.12443 8.17676C7.16362 7.99385 7.20281 7.82399 7.28121 7.65414C7.30734 7.58881 7.34653 7.53655 7.37267 7.45815C7.38574 7.41896 7.41186 7.4059 7.45106 7.41896C7.62092 7.48428 7.7777 7.54962 7.93448 7.61494C8.03901 7.66721 8.1566 7.71946 8.26112 7.7848C8.35258 7.83705 8.45711 7.88932 8.54857 7.94158C8.69229 8.03304 8.83601 8.1245 8.96666 8.21595C9.07119 8.28128 9.17571 8.35968 9.26718 8.43807C9.41089 8.55566 9.55461 8.67325 9.71139 8.79084C9.82898 8.8823 9.93351 8.98682 10.0511 9.07828C10.1164 9.13054 10.1948 9.19587 10.2471 9.26119C10.3255 9.33959 10.4169 9.40491 10.4953 9.48331C10.5737 9.56171 10.6521 9.64009 10.7305 9.71849C10.8873 9.86221 11.031 10.019 11.1878 10.1627C11.227 10.1889 11.227 10.215 11.1878 10.2411C11.0963 10.3064 11.0049 10.3587 10.9134 10.424C10.835 10.4763 10.7566 10.5286 10.6913 10.5939C10.5999 10.6723 10.4953 10.7507 10.3908 10.8291C10.3385 10.8683 10.2863 10.9336 10.221 10.9728C10.2079 11.012 10.1948 11.025 10.1687 11.025Z" fill="#FE8E00"/>
<path d="M12.7301 14.6049C12.6909 14.5265 12.6125 14.4351 12.5733 14.3828C12.508 14.3044 12.4035 14.1868 12.299 14.1084C12.1944 14.03 12.103 13.9516 11.9854 13.8994C11.6849 13.7687 11.3844 13.7818 11.0969 13.9124C10.8617 14.017 10.6527 14.1738 10.509 14.3959C10.4959 14.4089 10.4959 14.422 10.4828 14.4351C10.2738 14.7486 10.2738 15.1406 10.4959 15.4411C10.5612 15.5326 10.6396 15.611 10.7703 15.624C10.9009 15.6371 11.0447 15.6501 11.1753 15.6632C11.4366 15.6763 11.711 15.6632 11.9723 15.6371C12.1552 15.611 12.3381 15.5848 12.5211 15.5195C12.6256 15.4803 12.704 15.4411 12.7563 15.3366C12.8738 15.0883 12.8477 14.8532 12.7301 14.6049Z" fill="#F8FBF4"/>
<path d="M19.2364 15.3496C19.2886 15.4542 19.3802 15.4934 19.4716 15.5326C19.6415 15.5979 19.8374 15.624 20.0203 15.6502C20.2816 15.6763 20.556 15.6894 20.8174 15.6763C20.948 15.6763 21.0917 15.6502 21.2224 15.6371C21.353 15.624 21.4314 15.5456 21.4967 15.4542C21.7188 15.1537 21.7188 14.7617 21.5098 14.4481C21.4967 14.4351 21.4967 14.422 21.4837 14.4089C21.34 14.1868 21.144 14.03 20.8958 13.9255C20.6084 13.7948 20.3078 13.7687 20.0073 13.9124C19.8897 13.9647 19.7852 14.0431 19.6937 14.1215C19.5892 14.1999 19.4847 14.3175 19.4194 14.3959C19.3802 14.4481 19.3017 14.5527 19.2625 14.618C19.1449 14.8532 19.1188 15.0883 19.2364 15.3496Z" fill="#F8FBF4"/>
<path d="M18.1782 25.3971C18.126 25.3187 18.0868 25.2534 18.0476 25.175C18.0345 25.1489 18.0345 25.1227 18.0345 25.0966C18.0345 24.796 18.0345 24.4955 18.0345 24.1951C18.0345 24.1428 18.0345 24.1297 17.9692 24.1428C17.2637 24.2604 16.5582 24.3126 15.8395 24.2734C15.4868 24.2604 15.134 24.2212 14.7812 24.1559C14.729 24.1428 14.7159 24.1559 14.7159 24.2081C14.729 24.5086 14.729 24.8221 14.742 25.1227C14.742 25.2403 14.6767 25.3056 14.6244 25.384C14.6114 25.4102 14.5983 25.371 14.5852 25.3579C14.4938 25.2273 14.4285 25.0836 14.3762 24.9267C14.337 24.8091 14.2978 24.6784 14.2717 24.5609C14.2586 24.5217 14.2586 24.5217 14.2194 24.5217C14.2063 24.5217 14.1802 24.5217 14.1671 24.5217C14.0365 24.5347 14.0365 24.5347 14.0104 24.4041C13.9842 24.2996 13.9712 24.1951 13.9712 24.0905C13.9712 24.0514 13.9581 24.0252 13.932 23.9991C13.8797 23.9468 13.8274 23.8946 13.7621 23.8423C13.7229 23.8162 13.736 23.777 13.736 23.7508C13.749 23.7246 13.7752 23.7377 13.8013 23.7377C14.0626 23.7377 14.3239 23.7377 14.5722 23.7377C14.6114 23.7377 14.6375 23.7508 14.6375 23.8031C14.6375 23.8423 14.6506 23.8423 14.6898 23.8423C15.0556 23.8554 15.4345 23.8554 15.8004 23.8685C15.8395 23.8685 15.8657 23.8554 15.8787 23.8293C15.931 23.7508 15.9833 23.6724 16.0225 23.594C16.0617 23.5287 16.0878 23.5025 16.1662 23.5156C16.2054 23.5287 16.2185 23.5025 16.2185 23.4633C16.2185 23.2413 16.2185 23.0322 16.2185 22.8101C16.2185 22.7579 16.2054 22.7448 16.1662 22.7318C15.8395 22.6011 15.539 22.4442 15.2777 22.2091C15.0817 22.0392 14.9249 21.8433 14.8596 21.595C14.8466 21.5297 14.8335 21.4775 14.8335 21.4121C14.8335 21.2291 14.8335 21.0462 14.8335 20.8764C14.8335 20.5629 15.0687 20.3277 15.3692 20.3277C15.9702 20.3277 16.5843 20.3277 17.1853 20.3277C17.4205 20.3277 17.7602 20.589 17.7602 20.9156C17.7602 21.0854 17.7602 21.2552 17.7471 21.4252C17.7341 21.8171 17.5642 22.1307 17.2768 22.3789C17.0939 22.5357 16.8848 22.6534 16.6496 22.7318C16.6104 22.7448 16.5974 22.7579 16.5974 22.7971C16.5974 23.0192 16.5974 23.2413 16.5974 23.4633C16.5974 23.5025 16.6104 23.5156 16.6496 23.5156C16.728 23.5025 16.7672 23.5287 16.8064 23.594C16.8456 23.6724 16.8979 23.7377 16.9501 23.8162C16.9632 23.8423 16.9893 23.8554 17.0155 23.8554C17.329 23.8554 17.6426 23.8554 17.9561 23.8685C18.0084 23.8685 18.0215 23.8293 18.0476 23.8031C18.0737 23.7639 18.0999 23.7508 18.139 23.7508C18.3743 23.7508 18.6095 23.7508 18.8446 23.7508C18.91 23.7508 18.91 23.7639 18.8969 23.8162C18.8316 24.0383 18.7793 24.2604 18.7271 24.4955C18.714 24.5347 18.7009 24.5609 18.6487 24.5609C18.4788 24.5609 18.4788 24.5609 18.4135 24.7176C18.3613 24.9267 18.2698 25.1619 18.1782 25.3971Z" fill="black"/>
<path d="M16.257 24.4955C16.5575 24.4955 16.845 24.4955 17.1455 24.4955C17.1978 24.4955 17.2108 24.5086 17.2108 24.5608C17.2108 24.7176 17.2108 24.7176 17.0802 24.796C16.9626 24.8744 16.9626 24.8744 16.845 24.7829C16.7274 24.6915 16.7274 24.6915 16.6229 24.796C16.5575 24.8613 16.5053 24.9397 16.44 25.005C16.3616 25.0835 16.2309 25.0835 16.1656 24.9789C16.1133 24.9005 16.061 24.809 16.0088 24.7307C15.9826 24.6915 15.9565 24.6784 15.9173 24.6784C15.7736 24.6784 15.7736 24.6784 15.7213 24.796C15.6952 24.8482 15.6821 24.8613 15.6299 24.8352C15.5384 24.809 15.447 24.7698 15.3555 24.7176C15.3163 24.7045 15.3032 24.6784 15.3032 24.6392C15.3032 24.4824 15.3032 24.4824 15.46 24.4824C15.7213 24.4955 15.9957 24.4955 16.257 24.4955Z" fill="black"/>
</svg>
