<svg width="32" height="32" viewBox="0 0 32 32" fill="none" xmlns="http://www.w3.org/2000/svg">
    <path d="M16 0H16C7.16343 0 0 7.16343 0 16V16C0 24.8366 7.16343 32 16 32H16C24.8366 32 32 24.8366 32 16V16C32 7.16343 24.8366 0 16 0Z" fill="black"/>
    <path d="M7.54297 8.077V24.88H22.15V23.106H9.56897V9.85H22.15V8.077H7.54297Z" fill="white"/>
    <path d="M22.0371 21.6711C25.0203 21.6711 26.0617 19.9824 26.0617 18.5189C26.0617 16.9147 25.1611 15.9296 23.3317 15.5919L21.446 15.2542C20.855 15.1416 20.1514 14.9164 20.1514 14.1847C20.1514 13.3122 21.0239 13.0026 21.84 13.0026C22.9095 13.0026 23.5005 13.3685 23.6976 14.1565H25.6958C25.4988 12.3835 24.0634 11.2577 21.8963 11.2577C19.3071 11.2577 18.125 12.7493 18.125 14.241C18.125 15.7326 19.0256 16.6614 20.6861 16.971L22.5999 17.3087C23.3035 17.4213 23.979 17.6746 23.979 18.6033C23.979 19.3913 23.2472 19.898 22.0933 19.898C20.7706 19.898 19.9825 19.3914 19.8137 18.4345H17.8154C18.0687 20.489 19.5885 21.6711 22.0371 21.6711Z" fill="white"/>
</svg>
