<svg width="32" height="32" viewBox="0 0 32 32" fill="none" xmlns="http://www.w3.org/2000/svg">
    <path d="M16 32C24.8366 32 32 24.8366 32 16C32 7.16344 24.8366 0 16 0C7.16344 0 0 7.16344 0 16C0 24.8366 7.16344 32 16 32Z" fill="#0072FF"/>
    <path d="M24.027 12.803L19.215 23.5H17.292L22.357 12.24C22.9408 12.3347 23.505 12.5249 24.027 12.803V12.803ZM15.607 6.519L8.204 22.978C6.316 22.082 5 20.119 5 17.833C5 14.703 7.462 12.167 10.5 12.167C10.5 9.172 12.754 6.727 15.607 6.519V6.519ZM21.501 12.167L16.402 23.5H14.319L20.721 9.27C21.214 10.118 21.501 11.106 21.501 12.167V12.167ZM23.395 23.149L26.661 15.893C26.877 16.501 27 17.153 27 17.836C27 20.274 25.5 22.351 23.395 23.149ZM24.837 13.335C25.293 13.695 25.697 14.123 26.023 14.614L22.037 23.472C21.859 23.4909 21.68 23.5002 21.501 23.5H20.265L24.837 13.335V13.335ZM16.02 6.5C16.8 6.503 17.539 6.674 18.21 6.981L10.78 23.5H10.5C9.81 23.5 9.15 23.364 8.543 23.123L16.02 6.5ZM20.287 8.618L13.592 23.5H11.346L18.673 7.215C19.295 7.573 19.843 8.051 20.287 8.618V8.618Z" fill="white"/>
</svg>
