<svg width="32" height="32" viewBox="0 0 32 32" fill="none" xmlns="http://www.w3.org/2000/svg">
    <path d="M16 32C24.8366 32 32 24.8366 32 16C32 7.16344 24.8366 0 16 0C7.16344 0 0 7.16344 0 16C0 24.8366 7.16344 32 16 32Z" fill="#AB1F26"/>
    <path d="M16.913 21.234L15.981 22.97L15.049 21.234C9.419 20.797 5 16.599 5 16.599C5 16.589 9.294 12.521 14.809 11.985L15.539 10.735L15.981 10L16.731 11.25L17.153 11.985C22.667 12.511 26.962 16.599 26.962 16.599C26.962 16.599 22.542 20.797 16.912 21.234H16.913ZM5.932 16.599C5.922 16.599 10.178 19.507 14.453 20.122L12.369 16.222L12.935 15.24L13.455 16.212L13.445 16.222L15.472 20.212C15.635 20.222 15.798 20.222 15.962 20.222C16.125 20.222 16.279 20.222 16.442 20.212L17.931 17.244L19.017 15.22L19.583 16.202L17.499 20.112C21.774 19.507 26.029 16.669 26.029 16.589C26.029 16.519 21.976 13.811 17.806 13.116L18.44 14.218L17.912 15.279L16.538 12.977C16.3525 12.9654 16.1668 12.9587 15.981 12.957C15.798 12.957 15.606 12.967 15.414 12.977L14.011 15.279L13.493 14.267L14.155 13.126C9.986 13.831 5.932 16.599 5.932 16.599V16.599Z" fill="white"/>
</svg>
