<svg width="32" height="32" viewBox="0 0 32 32" fill="none" xmlns="http://www.w3.org/2000/svg">
    <path d="M16 32C24.8366 32 32 24.8366 32 16C32 7.16344 24.8366 0 16 0C7.16344 0 0 7.16344 0 16C0 24.8366 7.16344 32 16 32Z" fill="#5B6DEE"/>
    <path d="M13.3 15.02C12.7421 15.0171 12.1851 15.0653 11.636 15.164C12.088 10.984 15.572 7.81799 19.72 7.81799C22.26 7.81799 24 9.06199 24 11.636C24 14.211 21.911 15.455 18.864 15.455C16.614 15.455 15.55 15.021 13.3 15.021V15.02ZM13.136 16.545C10.089 16.545 8 17.79 8 20.364C8 22.938 9.74 24.182 12.28 24.182C16.428 24.182 19.912 21.017 20.364 16.836C19.8149 16.9347 19.2579 16.9829 18.7 16.98C16.45 16.98 15.385 16.545 13.136 16.545Z" fill="white"/>
</svg>
