<svg width="32" height="32" viewBox="0 0 32 32" fill="none" xmlns="http://www.w3.org/2000/svg">
    <path d="M16 32C24.8366 32 32 24.8366 32 16C32 7.16344 24.8366 0 16 0C7.16344 0 0 7.16344 0 16C0 24.8366 7.16344 32 16 32Z" fill="url(#paint0_linear)"/>
    <path d="M10.729 12.0218C10.5862 11.8587 10.4108 11.7769 10.2019 11.7769H5.92805C5.91101 11.7776 5.89401 11.7747 5.87812 11.7685C5.86224 11.7624 5.8478 11.7529 5.83574 11.7409C5.82473 11.7308 5.81589 11.7186 5.80976 11.705C5.80362 11.6914 5.80032 11.6767 5.80005 11.6618V8.7818C5.80037 8.76689 5.8037 8.75221 5.80983 8.73862C5.81596 8.72503 5.82478 8.71282 5.83574 8.70272C5.8478 8.69067 5.86224 8.68125 5.87812 8.67505C5.89401 8.66885 5.91101 8.66602 5.92805 8.66672H10.444C11.5837 8.66672 12.5668 9.13257 13.393 10.0636L14.4899 11.4024L12.3533 14.0089L10.7287 12.0218H10.729ZM18.6213 10.0492C19.4477 9.12734 20.4354 8.66672 21.5844 8.66672H26.0859C26.124 8.66672 26.1527 8.67626 26.1717 8.69534C26.1902 8.71472 26.2 8.74334 26.2 8.78149V11.6618C26.2 11.6904 26.1905 11.7172 26.1717 11.7409C26.1524 11.7649 26.124 11.7769 26.0862 11.7769H21.8124C21.6034 11.7769 21.4277 11.8587 21.2853 12.0218L18.137 15.8526L21.2994 19.7113C21.4422 19.8652 21.6127 19.9421 21.8127 19.9421H26.0862C26.124 19.9421 26.1527 19.9541 26.1717 19.9781C26.1915 20.0051 26.2014 20.038 26.2 20.0713V22.9513C26.2 22.9803 26.1905 23.0067 26.1717 23.0307C26.1524 23.0547 26.124 23.0667 26.0862 23.0667H21.5847C20.4351 23.0667 19.4524 22.6012 18.6354 21.6698L16.0145 18.4729L13.393 21.6698C12.5668 22.6012 11.5791 23.0667 10.4299 23.0667H5.92836C5.8902 23.0667 5.86128 23.0544 5.84251 23.0307C5.82248 23.0037 5.81248 22.9705 5.8142 22.9369V20.0569C5.8142 20.028 5.82343 20.0015 5.84251 19.9775C5.86128 19.9535 5.8902 19.9415 5.92805 19.9415H10.2019C10.4013 19.9415 10.5767 19.8603 10.729 19.6966L13.82 15.9243L18.6216 10.0492H18.6213Z" fill="#00D1FF"/>
    <defs>
        <linearGradient id="paint0_linear" x1="16" y1="0" x2="16" y2="46.788" gradientUnits="userSpaceOnUse">
            <stop stop-color="#08021E"/>
            <stop offset="1" stop-color="#1F0777"/>
        </linearGradient>
    </defs>
</svg>
