<svg width="32" height="32" viewBox="0 0 32 32" fill="none" xmlns="http://www.w3.org/2000/svg">
    <path d="M16 32C24.8366 32 32 24.8366 32 16C32 7.16344 24.8366 0 16 0C7.16344 0 0 7.16344 0 16C0 24.8366 7.16344 32 16 32Z" fill="#262626"/>
    <path d="M15.6317 24.4965C14.2212 24.5375 12.8308 24.1546 11.6402 23.3973C10.7517 22.8259 10.0765 21.9774 9.71915 20.9834C9.36178 19.9893 9.3422 18.9051 9.66345 17.8988C9.83758 17.3213 10.1507 16.7953 10.5754 16.3669C11.0001 15.9385 11.5234 15.6208 12.0994 15.4416C13.3287 14.9784 14.5913 14.6091 15.8764 14.3368C16.5917 14.1639 17.2864 13.9146 17.9484 13.5932C18.2318 13.496 18.4794 13.3159 18.6592 13.0763C18.8389 12.8366 18.9425 12.5485 18.9564 12.2492C18.977 11.9214 18.8963 11.5951 18.7254 11.3147C18.5544 11.0342 18.3013 10.8131 18.0005 10.6813C17.4236 10.391 16.7829 10.2508 16.1376 10.2735C15.4922 10.2962 14.863 10.4811 14.308 10.8112C14.0464 10.9679 13.8216 11.179 13.6488 11.4303C13.4759 11.6815 13.3591 11.9669 13.3062 12.2672C13.2636 12.4609 13.1897 12.5236 12.9926 12.5208C12.0966 12.5097 11.2006 12.5113 10.3047 12.5208C10.0975 12.5208 10.0168 12.5063 10.06 12.2459C10.1672 11.2662 10.5582 10.3391 11.1849 9.57836C11.8116 8.81767 12.6467 8.25649 13.5878 7.96368C15.4941 7.2801 17.5901 7.35467 19.4429 8.172C20.3933 8.57552 21.182 9.28431 21.6845 10.1863C22.1869 11.0883 22.3743 12.132 22.2171 13.1525C22.1492 13.6335 21.9778 14.0941 21.7145 14.5024C21.4512 14.9107 21.1025 15.2569 20.6923 15.5173C19.7148 16.141 18.6368 16.591 17.506 16.8473C16.456 17.1485 15.3669 17.2953 14.3404 17.6873C14.0162 17.7821 13.7123 17.9362 13.4444 18.142C13.1222 18.465 12.921 18.889 12.8745 19.3429C12.828 19.7968 12.9391 20.2528 13.1891 20.6344C13.3733 20.9137 13.6158 21.1497 13.8999 21.3264C14.184 21.5031 14.5029 21.6162 14.8349 21.658C15.5101 21.7814 16.2032 21.7692 16.8737 21.6222C17.4798 21.5008 18.0413 21.2167 18.498 20.8002C18.9547 20.3838 19.2893 19.8508 19.4659 19.2585C19.4769 19.185 19.5166 19.119 19.5763 19.0748C19.636 19.0306 19.7108 19.012 19.7842 19.023L19.7929 19.0244C20.7522 19.0311 21.7114 19.0367 22.6701 19.0244C22.9277 19.0199 22.9322 19.1168 22.8941 19.3246C22.6874 20.5425 22.1115 21.6675 21.2445 22.5475C20.3775 23.4274 19.2611 24.0198 18.0463 24.2446C17.256 24.4341 16.4442 24.5188 15.6317 24.4965Z" fill="white"/>
</svg>
