<svg width="32" height="32" viewBox="0 0 32 32" fill="none" xmlns="http://www.w3.org/2000/svg">
    <g clip-path="url(#clip0)">
        <path d="M16.0001 31.9661C24.7992 31.9661 31.9323 24.8178 31.9323 16C31.9323 7.18217 24.7992 0.033905 16.0001 0.033905C7.20096 0.033905 0.0678711 7.18217 0.0678711 16C0.0678711 24.8178 7.20096 31.9661 16.0001 31.9661Z" fill="#A80005"/>
        <path d="M16.0001 30.7119C20.2686 30.7119 23.7289 24.1251 23.7289 16C23.7289 7.87487 20.2686 1.28815 16.0001 1.28815C11.7315 1.28815 8.27124 7.87487 8.27124 16C8.27124 24.1251 11.7315 30.7119 16.0001 30.7119Z" fill="#A80005"/>
        <path d="M30.7965 15.986C30.9708 23.7631 24.4761 30.8056 15.9959 30.8C7.52967 30.7916 1.11027 23.752 1.2009 15.9581C1.29571 7.73542 7.79877 1.19443 16.0573 1.20002C24.2349 1.20564 30.7965 7.7871 30.7965 15.986ZM13.8347 28.4604C13.9128 28.4437 13.9895 28.4269 14.0676 28.4116C13.9616 24.0048 13.5531 19.5841 14.6755 15.2904C14.4817 15.1215 14.3924 15.0013 14.274 14.9468C13.6632 14.6647 13.0539 14.3784 12.4265 14.134C11.325 13.7051 10.8997 12.9676 11.0977 11.645C11.3403 11.7623 11.5578 11.8768 11.7837 11.9746C12.5269 12.2972 13.2575 12.6604 14.0216 12.9202C15.0352 13.2652 15.2332 13.5277 15.0757 14.6102C14.9683 15.3463 14.8316 16.081 14.7759 16.8227C14.7243 17.5001 15.3643 18.4262 15.8788 18.5365C16.3249 18.6329 17.0137 18.056 17.2313 17.3199C17.3191 17.0238 17.2801 16.6788 17.248 16.3604C17.1755 15.6201 17.0584 14.8854 16.9858 14.1451C16.9231 13.5124 17.2564 13.1799 17.8433 12.9719C18.6716 12.6799 19.4733 12.3112 20.2848 11.9732C20.5065 11.8809 20.7254 11.7776 20.9736 11.6659C21.0879 13.159 20.7087 13.7219 19.4426 14.1912C18.7581 14.4454 18.1055 14.7849 17.3498 15.127C18.4777 19.5911 18.0497 24.0229 18.1152 28.4618C18.4429 28.0889 18.6716 27.6964 18.8737 27.2914C19.0495 26.9379 19.1903 26.5679 19.3534 26.2075C20.1286 24.4922 20.936 22.791 21.6637 21.0563C21.8897 20.5157 21.9873 19.8857 21.9942 19.2949C22.0263 16.3855 22.0235 13.4761 21.9997 10.5666C21.9942 9.87244 21.9775 9.14332 21.7669 8.49526C21.3904 7.33595 21.0531 6.08865 20.3573 5.12629C19.1052 3.39431 17.1922 2.92082 15.13 3.19039C13.4833 3.40549 12.0277 4.15275 11.2804 5.65147C10.4954 7.22561 9.99756 8.94086 10.0101 10.7552C10.0297 13.6185 10.0059 16.4805 10.0269 19.3438C10.0297 19.8006 10.0798 20.2936 10.2583 20.7043C11.2915 23.0914 12.3651 25.4602 13.4346 27.8319C13.5349 28.0553 13.6995 28.2523 13.8347 28.4604H13.8347Z" fill="black"/>
    </g>
    <defs>
        <clipPath id="clip0">
            <rect width="32" height="32" fill="white"/>
        </clipPath>
    </defs>
</svg>
