<svg width="32" height="32" viewBox="0 0 32 32" fill="none" xmlns="http://www.w3.org/2000/svg">
    <path d="M16 32C24.8366 32 32 24.8366 32 16C32 7.16344 24.8366 0 16 0C7.16344 0 0 7.16344 0 16C0 24.8366 7.16344 32 16 32Z" fill="white"/>
    <path d="M16.0001 24.7977C14.0165 24.7976 12.1143 24.0095 10.7117 22.607C9.30912 21.2044 8.52111 19.3021 8.521 17.3186C8.521 13.3 15.2745 6.2116 15.5536 5.9326L15.8884 5.5419L16.2233 5.9326C16.5024 6.21167 23.4233 13.3 23.4233 17.3186C23.4342 18.2991 23.2501 19.272 22.8816 20.1806C22.5131 21.0893 21.9676 21.9157 21.2769 22.6116C20.5861 23.3076 19.7639 23.8592 18.858 24.2345C17.9521 24.6098 16.9806 24.8012 16.0001 24.7977V24.7977ZM15.9442 6.993C14.8536 8.16318 13.8288 9.39298 12.8745 10.6767C10.6977 13.5791 9.52565 15.8674 9.52565 17.3186C9.52565 18.1688 9.69311 19.0107 10.0185 19.7962C10.3439 20.5817 10.8208 21.2955 11.422 21.8967C12.0232 22.4979 12.7369 22.9748 13.5224 23.3002C14.3079 23.6255 15.1498 23.793 16.0001 23.793C16.8503 23.793 17.6922 23.6255 18.4777 23.3002C19.2632 22.9748 19.977 22.4979 20.5782 21.8967C21.1794 21.2955 21.6563 20.5817 21.9817 19.7962C22.307 19.0107 22.4745 18.1688 22.4745 17.3186C22.4745 15.8674 21.3024 13.5791 19.0698 10.6767C17.8419 9.05814 16.5582 7.66279 15.9442 6.993Z" fill="url(#paint0_linear)"/>
    <path d="M15.9999 27.1977C14.7019 27.2 13.4163 26.946 12.2167 26.4504C11.017 25.9547 9.92705 25.2271 9.00924 24.3093C8.09142 23.3915 7.36382 22.3015 6.86817 21.1019C6.37252 19.9023 6.11856 18.6166 6.12087 17.3186C6.12087 12.0163 13.5441 4.59302 13.879 4.25814C13.9824 4.17678 14.1102 4.13256 14.2418 4.13256C14.3734 4.13256 14.5012 4.17678 14.6046 4.25814C14.6859 4.36157 14.7302 4.48934 14.7302 4.62093C14.7302 4.75252 14.6859 4.88029 14.6046 4.98372C14.4929 5.03954 7.12551 12.407 7.12551 17.3186C7.12551 19.6722 8.0605 21.9295 9.72477 23.5938C11.389 25.258 13.6463 26.193 15.9999 26.193C18.3536 26.193 20.6108 25.258 22.2751 23.5938C23.9394 21.9295 24.8744 19.6722 24.8744 17.3186C24.8744 15.3093 23.5906 12.5186 21.1348 9.2814C19.9617 7.7349 18.6941 6.26233 17.3395 4.87209C17.2868 4.82741 17.2446 4.77182 17.2156 4.70918C17.1866 4.64653 17.1716 4.57833 17.1716 4.5093C17.1716 4.44027 17.1866 4.37206 17.2156 4.30942C17.2446 4.24677 17.2868 4.19118 17.3395 4.14651C17.3841 4.09388 17.4397 4.05161 17.5024 4.02262C17.565 3.99362 17.6332 3.97861 17.7023 3.97861C17.7713 3.97861 17.8395 3.99362 17.9021 4.02262C17.9648 4.05161 18.0204 4.09388 18.065 4.14651C18.3999 4.4814 25.9348 12.0163 25.9348 17.3186C25.9174 19.943 24.8633 22.4541 23.0023 24.3046C21.1414 26.1551 18.6244 27.195 15.9999 27.1977V27.1977Z" fill="url(#paint1_linear)"/>
    <path d="M16 29.5977C12.8217 29.5836 9.77763 28.3149 7.53023 26.0675C5.28283 23.8201 4.01404 20.776 4 17.5977C4 14.8628 5.39535 11.514 8.07442 7.60701C9.31751 5.84246 10.6788 4.1642 12.1488 2.58376C12.1935 2.53113 12.2491 2.48886 12.3118 2.45987C12.3744 2.43087 12.4426 2.41586 12.5116 2.41586C12.5807 2.41586 12.6489 2.43087 12.7115 2.45987C12.7742 2.48886 12.8297 2.53113 12.8744 2.58376C12.927 2.62843 12.9693 2.68402 12.9983 2.74667C13.0273 2.80931 13.0423 2.87752 13.0423 2.94655C13.0423 3.01557 13.0273 3.08378 12.9983 3.14642C12.9693 3.20907 12.927 3.26466 12.8744 3.30933C11.4306 4.8435 10.1059 6.48545 8.91163 8.22095C6.34419 11.9047 5.00463 15.1419 5.00463 17.6535C5.00467 19.0998 5.29004 20.5318 5.84438 21.8676C6.39871 23.2034 7.21113 24.4167 8.23511 25.4381C9.25908 26.4594 10.4745 27.2687 11.8117 27.8196C13.1489 28.3705 14.5817 28.6522 16.028 28.6486C17.4742 28.6449 18.9055 28.3559 20.2399 27.7982C21.5744 27.2406 22.7856 26.4251 23.8044 25.3986C24.8232 24.372 25.6294 23.1546 26.177 21.816C26.7245 20.4774 27.0026 19.0439 26.9953 17.5977C26.9953 15.0861 25.6558 11.8489 23.0883 8.16514C21.8595 6.45568 20.5366 4.81593 19.1255 3.2535C19.0442 3.15008 19 3.0223 19 2.89072C19 2.75913 19.0442 2.63135 19.1255 2.52793C19.229 2.44657 19.3567 2.40234 19.4883 2.40234C19.6199 2.40234 19.7477 2.44657 19.8511 2.52793C20.1302 2.91863 28 11.0675 28 17.5977C27.9954 20.7789 26.7297 23.8285 24.4802 26.0779C22.2308 28.3274 19.1812 29.5931 16 29.5977V29.5977Z" fill="url(#paint2_linear)"/>
    <defs>
        <linearGradient id="paint0_linear" x1="15.9725" y1="24.7977" x2="15.9725" y2="5.56273" gradientUnits="userSpaceOnUse">
            <stop stop-color="#05AAC5"/>
            <stop offset="1" stop-color="#71E0EC"/>
        </linearGradient>
        <linearGradient id="paint1_linear" x1="323.697" y1="266.537" x2="323.697" y2="-271.659" gradientUnits="userSpaceOnUse">
            <stop stop-color="#05AAC5"/>
            <stop offset="1" stop-color="#71E0EC"/>
        </linearGradient>
        <linearGradient id="paint2_linear" x1="388" y1="375.193" x2="388" y2="-363.647" gradientUnits="userSpaceOnUse">
            <stop stop-color="#05AAC5"/>
            <stop offset="1" stop-color="#71E0EC"/>
        </linearGradient>
    </defs>
</svg>
