<svg width="32" height="32" viewBox="0 0 32 32" fill="none" xmlns="http://www.w3.org/2000/svg">
    <path d="M16 32C24.8366 32 32 24.8366 32 16C32 7.16344 24.8366 0 16 0C7.16344 0 0 7.16344 0 16C0 24.8366 7.16344 32 16 32Z" fill="#011627"/>
    <path opacity="0.62" d="M12.5475 22.6594L15.4183 19.121C15.4885 19.0344 15.5772 18.9646 15.6779 18.9166C15.7786 18.8687 15.8886 18.8438 16.0001 18.8438C16.1116 18.8438 16.2217 18.8687 16.3224 18.9166C16.4231 18.9646 16.5118 19.0344 16.582 19.121L19.4527 22.6594C19.561 22.7929 19.6201 22.9596 19.6201 23.1315C19.6201 23.3034 19.561 23.47 19.4527 23.6035L16.582 27.1418C16.5118 27.2284 16.4231 27.2982 16.3224 27.3462C16.2217 27.3941 16.1116 27.419 16.0001 27.419C15.8886 27.419 15.7786 27.3941 15.6779 27.3462C15.5772 27.2982 15.4885 27.2284 15.4183 27.1418L12.5475 23.6035C12.4392 23.47 12.3801 23.3034 12.3801 23.1315C12.3801 22.9596 12.4392 22.7929 12.5475 22.6594V22.6594Z" fill="#1BA5F8"/>
    <path d="M17.0075 14.007L19.8782 10.4686C19.9485 10.382 20.0372 10.3122 20.1378 10.2642C20.2385 10.2163 20.3486 10.1914 20.4601 10.1914C20.5716 10.1914 20.6817 10.2163 20.7823 10.2642C20.883 10.3122 20.9717 10.382 21.0419 10.4686L23.9127 14.007C24.021 14.1405 24.0801 14.3072 24.0801 14.4791C24.0801 14.651 24.021 14.8176 23.9127 14.9511L21.0419 18.4894C20.9717 18.576 20.883 18.6459 20.7823 18.6938C20.6817 18.7418 20.5716 18.7667 20.4601 18.7667C20.3486 18.7667 20.2385 18.7418 20.1378 18.6938C20.0372 18.6459 19.9485 18.576 19.8782 18.4894L17.0075 14.9511C16.8992 14.8176 16.8401 14.6509 16.8401 14.479C16.8401 14.3071 16.8992 14.1405 17.0075 14.007V14.007Z" fill="#1BA5F8"/>
    <path d="M8.08733 14.007L10.9581 10.4686C11.0283 10.382 11.117 10.3122 11.2177 10.2642C11.3183 10.2163 11.4284 10.1914 11.5399 10.1914C11.6514 10.1914 11.7615 10.2163 11.8622 10.2642C11.9628 10.3122 12.0515 10.382 12.1218 10.4686L14.9925 14.007C15.1008 14.1405 15.1599 14.3072 15.1599 14.4791C15.1599 14.651 15.1008 14.8176 14.9925 14.9511L12.1218 18.4894C12.0515 18.576 11.9628 18.6459 11.8622 18.6938C11.7615 18.7418 11.6514 18.7667 11.5399 18.7667C11.4284 18.7667 11.3183 18.7418 11.2177 18.6938C11.117 18.6459 11.0283 18.576 10.9581 18.4894L8.08733 14.9511C7.97903 14.8176 7.91992 14.6509 7.91992 14.479C7.91992 14.3071 7.97903 14.1405 8.08733 14.007Z" fill="#1BA5F8"/>
    <path d="M12.5475 8.4765L15.4183 4.93815C15.4885 4.85156 15.5772 4.78175 15.6779 4.73379C15.7785 4.68583 15.8886 4.66095 16.0001 4.66095C16.1116 4.66095 16.2217 4.68583 16.3224 4.73379C16.4231 4.78175 16.5118 4.85156 16.582 4.93815L19.4528 8.4765C19.5611 8.61 19.6202 8.77668 19.6202 8.94858C19.6202 9.12048 19.5611 9.28716 19.4528 9.42066L16.582 12.959C16.5118 13.0456 16.4231 13.1154 16.3224 13.1633C16.2217 13.2113 16.1116 13.2362 16.0001 13.2362C15.8886 13.2362 15.7785 13.2113 15.6779 13.1633C15.5772 13.1154 15.4885 13.0456 15.4183 12.959L12.5475 9.42066C12.4392 9.28716 12.3801 9.12049 12.3801 8.94858C12.3801 8.77667 12.4392 8.61 12.5475 8.4765V8.4765Z" fill="#1BA5F8"/>
</svg>
