<svg width="32" height="32" viewBox="0 0 32 32" fill="none" xmlns="http://www.w3.org/2000/svg">
    <path d="M16 32C24.8366 32 32 24.8366 32 16C32 7.16344 24.8366 0 16 0C7.16344 0 0 7.16344 0 16C0 24.8366 7.16344 32 16 32Z" fill="#171FC9"/>
    <path d="M12.002 21.5304L11.8498 21.6833C11.5357 21.9989 11.203 22.2953 10.8533 22.5709L10.4552 22.8846C10.4314 22.9033 10.4024 22.9142 10.3722 22.9157C10.342 22.9173 10.3121 22.9095 10.2865 22.8934C10.2609 22.8772 10.2409 22.8536 10.2293 22.8257C10.2177 22.7978 10.215 22.7669 10.2216 22.7374L10.38 22.0304C10.5529 21.2588 10.5146 20.4548 10.2692 19.7031L10.1841 19.4424C10.0853 19.14 9.97002 18.8392 9.84131 18.548L9.84095 18.5472L7.99132 14.1877L7.79307 13.5942C7.73185 13.4104 7.69008 13.2207 7.66844 13.0282L7.63494 12.7303C7.58762 12.3185 7.63391 11.9013 7.77035 11.5098C7.9068 11.1183 8.12987 10.7628 8.42294 10.4696L8.57505 10.3166C8.88915 10.0011 9.22192 9.70468 9.57157 9.42903L9.96969 9.11536C9.99347 9.09666 10.0225 9.08578 10.0527 9.08421C10.0829 9.08264 10.1128 9.09045 10.1384 9.10658C10.164 9.12271 10.184 9.14635 10.1956 9.17428C10.2072 9.20221 10.2099 9.23305 10.2033 9.26257L10.0449 9.96957C9.87198 10.7412 9.91025 11.5451 10.1556 12.2968L10.2408 12.5576C10.3395 12.8597 10.4548 13.1606 10.5835 13.452L12.4336 17.8123L12.6318 18.4058C12.693 18.5896 12.7348 18.7793 12.7565 18.9718L12.79 19.2697C12.8372 19.6815 12.7909 20.0987 12.6545 20.4902C12.5181 20.8816 12.295 21.2372 12.002 21.5304V21.5304Z" fill="white"/>
    <path d="M18.2478 22.9608L18.0529 23.1568C17.6574 23.5542 17.2385 23.9274 16.7983 24.2744L16.2781 24.6842C16.2521 24.7046 16.2205 24.7165 16.1875 24.7183C16.1545 24.72 16.1218 24.7115 16.0938 24.6939C16.0658 24.6763 16.044 24.6504 16.0313 24.6199C16.0186 24.5894 16.0157 24.5557 16.023 24.5234L16.2282 23.6077C16.4466 22.6329 16.3982 21.6173 16.0882 20.6677L15.9801 20.3367C15.8548 19.9532 15.7104 19.5761 15.5473 19.207L15.547 19.2062L13.2138 13.7074L12.9641 12.9595C12.8874 12.7293 12.8351 12.4917 12.808 12.2507L12.7652 11.8703C12.706 11.3546 12.764 10.8321 12.9349 10.3419C13.1057 9.85171 13.3851 9.40641 13.7521 9.03924L13.947 8.84324C14.3424 8.44588 14.7614 8.07268 15.2017 7.72566L15.7217 7.31589C15.7477 7.29543 15.7793 7.28351 15.8123 7.28178C15.8454 7.28004 15.8781 7.28856 15.906 7.30618C15.934 7.3238 15.9558 7.34964 15.9685 7.38016C15.9812 7.41068 15.9841 7.44438 15.9769 7.47663L15.7716 8.39237C15.5532 9.36714 15.6016 10.3828 15.9116 11.3324L16.0197 11.6634C16.1443 12.045 16.29 12.4251 16.4525 12.7931L18.786 18.2927L19.0358 19.0406C19.1124 19.2708 19.1647 19.5083 19.1919 19.7494L19.2347 20.1297C19.2939 20.6455 19.2359 21.1679 19.065 21.6581C18.8941 22.1483 18.6147 22.5936 18.2478 22.9608V22.9608Z" fill="white"/>
    <path d="M23.5769 21.5304L23.4248 21.6833C23.1107 21.9989 22.7779 22.2953 22.4283 22.5709L22.0301 22.8846C22.0064 22.9033 21.9774 22.9142 21.9472 22.9157C21.917 22.9173 21.887 22.9095 21.8614 22.8934C21.8358 22.8772 21.8159 22.8536 21.8042 22.8257C21.7926 22.7977 21.7899 22.7669 21.7965 22.7374L21.955 22.0304C22.1278 21.2588 22.0895 20.4548 21.8441 19.7031L21.759 19.4423C21.6602 19.14 21.545 18.8391 21.4163 18.548L21.4159 18.5472L19.5663 14.1876L19.368 13.5941C19.3068 13.4103 19.265 13.2206 19.2434 13.0281L19.2099 12.7303C19.1626 12.3185 19.2089 11.9013 19.3453 11.5098C19.4817 11.1184 19.7048 10.7628 19.9979 10.4696L20.15 10.3167C20.4641 10.0011 20.7969 9.70471 21.1465 9.42906L21.5446 9.11539C21.5684 9.09669 21.5974 9.08581 21.6276 9.08424C21.6578 9.08267 21.6878 9.09049 21.7134 9.10661C21.739 9.12274 21.7589 9.14638 21.7705 9.17431C21.7822 9.20224 21.7849 9.23308 21.7783 9.2626L21.6198 9.9696C21.4469 10.7412 21.4852 11.5452 21.7306 12.2969L21.8158 12.5576C21.9145 12.8597 22.0298 13.1606 22.1585 13.452L24.0085 17.8123L24.2068 18.4058C24.268 18.5896 24.3098 18.7793 24.3314 18.9718L24.3649 19.2697C24.4122 19.6815 24.3659 20.0987 24.2294 20.4902C24.093 20.8816 23.8699 21.2372 23.5769 21.5304V21.5304Z" fill="white"/>
</svg>
