<svg width="32" height="32" viewBox="0 0 32 32" fill="none" xmlns="http://www.w3.org/2000/svg">
<g clip-path="url(#clip0_2122_912)">
<path d="M0 16C0 7.16344 7.16344 0 16 0C24.8366 0 32 7.16344 32 16C32 24.8366 24.8366 32 16 32C7.16344 32 0 24.8366 0 16Z" fill="black"/>
<path d="M0 16C0 7.16344 7.16344 0 16 0C24.8366 0 32 7.16344 32 16C32 24.8366 24.8366 32 16 32C7.16344 32 0 24.8366 0 16Z" fill="black"/>
<path d="M18.3727 4.23475L19.065 5.85619C20.4238 9.03976 22.9599 11.5756 26.1438 12.9343L27.7655 13.6266C28.1897 13.8074 28.5343 14.067 28.8004 14.3761C27.9927 8.58646 23.4132 4.0068 17.623 3.19995C17.9316 3.46526 18.1917 3.81038 18.3727 4.23475Z" fill="#A6A6A6"/>
<path d="M4.23508 13.6266L5.85673 12.9343C9.0407 11.5756 11.5767 9.03974 12.9362 5.85619L13.6278 4.23475C13.8094 3.81038 14.069 3.46526 14.3775 3.19995C8.58726 4.0068 4.00777 8.58646 3.2002 14.3761C3.46614 14.067 3.81073 13.8074 4.2351 13.6266H4.23508Z" fill="#A6A6A6"/>
<path d="M27.7655 18.3727L26.1438 19.065C22.9599 20.4237 20.4238 22.9601 19.065 26.1438L18.3727 27.7645C18.1917 28.1888 17.9316 28.5341 17.623 28.8C23.4132 27.9925 27.9927 23.4128 28.8004 17.6232C28.5343 17.9323 28.1897 18.1918 27.7655 18.3727Z" fill="#A6A6A6"/>
<path d="M13.6278 27.7645L12.9362 26.1438C11.5767 22.9601 9.0407 20.4237 5.85673 19.065L4.2351 18.3727C3.81073 18.1918 3.46612 17.9323 3.2002 17.6232C4.00777 23.4128 8.58726 27.9925 14.3775 28.8C14.069 28.5341 13.8094 28.1888 13.6278 27.7645H13.6278Z" fill="#A6A6A6"/>
<path d="M10.2825 14.767L11.0571 14.4363C12.5778 13.7871 13.7894 12.5762 14.4386 11.0557L14.7689 10.2811C15.232 9.19633 16.7701 9.19633 17.2333 10.2811L17.5635 11.0557C18.2128 12.5762 19.4244 13.7871 20.945 14.4363L21.7197 14.767C22.8046 15.2302 22.8046 16.7675 21.7197 17.2306L20.945 17.5614C19.4244 18.2105 18.2128 19.4215 17.5635 20.9426L17.2333 21.7166C16.7701 22.8013 15.232 22.8013 14.7689 21.7166L14.4386 20.9426C13.7894 19.4215 12.5778 18.2105 11.0571 17.5614L10.2825 17.2306C9.19751 16.7675 9.19751 15.2302 10.2825 14.767Z" fill="white"/>
</g>
<defs>
<clipPath id="clip0_2122_912">
<rect width="32" height="32" fill="white"/>
</clipPath>
</defs>
</svg>
