<svg width="32" height="32" viewBox="0 0 32 32" fill="none" xmlns="http://www.w3.org/2000/svg">
    <path d="M16 32C24.8366 32 32 24.8366 32 16C32 7.16344 24.8366 0 16 0C7.16344 0 0 7.16344 0 16C0 24.8366 7.16344 32 16 32Z" fill="#FD2E53"/>
    <path d="M11.2486 7.20001L16.977 13.8866C17.482 14.4749 17.7596 15.2247 17.7596 16C17.7596 16.7754 17.482 17.5251 16.977 18.1135L11.2486 24.8H6.00391L12.3362 17.4091C12.6728 17.0168 12.8579 16.517 12.8579 16C12.8579 15.4831 12.6728 14.9832 12.3362 14.5909L6.00391 7.20001H11.2486ZM21.2419 20.9298L25.9961 24.8H19.4434L16.4933 21.2148L19.3236 20.5047C19.6544 20.4215 20 20.4166 20.3331 20.4904C20.6661 20.5642 20.9773 20.7147 21.2419 20.9298ZM25.9961 7.20001L21.2419 11.0702C20.9772 11.2852 20.666 11.4356 20.333 11.5094C20 11.5832 19.6544 11.5784 19.3236 11.4954L16.4933 10.7852L19.4434 7.20001H25.9961Z" fill="white"/>
</svg>
