<svg width="32" height="32" viewBox="0 0 32 32" fill="none" xmlns="http://www.w3.org/2000/svg">
    <path d="M16 32C24.8366 32 32 24.8366 32 16C32 7.16344 24.8366 0 16 0C7.16344 0 0 7.16344 0 16C0 24.8366 7.16344 32 16 32Z" fill="#276CFF"/>
    <path d="M16 29.5C14.7682 29.5 13.7656 28.5186 13.7322 27.2953L7.3474 23.6105L7.2866 23.6431C6.97221 23.8012 6.63642 23.8793 6.30369 23.8841L6.2686 23.8843C5.48545 23.8834 4.72407 23.4768 4.30433 22.75C3.68849 21.6837 4.03728 20.3253 5.08003 19.6846L5.08087 12.3152L5.03806 12.289C4.02801 11.6379 3.69683 10.3018 4.30433 9.25C4.71781 8.5341 5.4628 8.1288 6.23355 8.116L6.2686 8.11569C6.63436 8.11527 7.00487 8.20335 7.34755 8.38867L13.733 4.70485L13.7339 4.65908C13.7901 3.46947 14.7632 2.51974 15.9625 2.5003L16 2.5C17.2317 2.5 18.2342 3.48123 18.2678 4.70438L24.6527 8.39029L24.7134 8.35687C25.0278 8.19882 25.3636 8.12069 25.6963 8.11592L25.7314 8.11569C26.5146 8.11659 27.2759 8.52325 27.6957 9.25C28.3116 10.3164 27.9626 11.6751 26.9195 12.3157L26.9192 19.6851L26.9619 19.711C27.972 20.3621 28.3032 21.6982 27.6957 22.75C27.2822 23.4659 26.5372 23.8712 25.7664 23.884L25.7314 23.8843C25.3656 23.8847 24.995 23.7966 24.6522 23.6112L18.2676 27.2955L18.2661 27.3409C18.2099 28.5305 17.2368 29.4803 16.0375 29.4997L16 29.5ZM16 5.84781L16.0849 5.84452C16.0938 5.84383 16.1027 5.84303 16.1116 5.84212L16.0849 5.84451C16.1117 5.84243 16.1383 5.83936 16.1646 5.83534L16.1116 5.84212C16.1401 5.8392 16.1682 5.83517 16.1959 5.83009L16.1646 5.83534C16.194 5.83084 16.2232 5.82515 16.2519 5.8183L16.1959 5.83009C16.2231 5.82511 16.25 5.81911 16.2764 5.81213L16.2519 5.8183C16.277 5.81231 16.3018 5.80543 16.3263 5.79771L16.2764 5.81213C16.304 5.80486 16.3311 5.79653 16.3577 5.78719L16.3263 5.79771C16.3785 5.78123 16.4291 5.76086 16.4779 5.73686C16.4994 5.72605 16.5206 5.71467 16.5414 5.70263C16.5516 5.69696 16.5615 5.69099 16.5713 5.68486L16.5414 5.70263C16.5639 5.6896 16.5858 5.67578 16.6072 5.66122L16.5713 5.68486C16.5929 5.67144 16.6139 5.65726 16.6345 5.64235L16.6072 5.66122C16.6281 5.647 16.6485 5.63207 16.6683 5.61647L16.6345 5.64235C16.6565 5.62635 16.678 5.6095 16.6988 5.59184L16.6683 5.61647C16.6895 5.59973 16.7101 5.58222 16.73 5.56396L16.6988 5.59184C16.718 5.57555 16.7367 5.55856 16.7548 5.54091L16.73 5.56396C16.7809 5.51727 16.8274 5.46575 16.8686 5.41013C16.8735 5.40388 16.8783 5.39719 16.8831 5.39044L16.8686 5.41013C17.0017 5.23063 17.0803 5.00843 17.0803 4.76787C17.0803 4.17144 16.5967 3.68793 16 3.68793C15.4033 3.68793 14.9197 4.17144 14.9197 4.76787C14.9197 4.97132 14.9759 5.16163 15.0738 5.32409C15.0821 5.33816 15.0907 5.35177 15.0996 5.36516L15.0738 5.32409C15.0867 5.34556 15.1004 5.36654 15.1147 5.38701L15.0996 5.36516C15.1127 5.38483 15.1264 5.40402 15.1406 5.42268L15.1147 5.38701C15.1534 5.44222 15.1972 5.49365 15.2453 5.54062C15.2533 5.54878 15.2615 5.55651 15.2698 5.5641L15.2453 5.54062C15.2641 5.55898 15.2836 5.57667 15.3037 5.59363L15.2698 5.5641C15.2881 5.58094 15.307 5.59711 15.3264 5.61261L15.3037 5.59363C15.325 5.61155 15.3469 5.62866 15.3695 5.64493L15.3264 5.61261C15.346 5.62821 15.3661 5.64311 15.3866 5.6573L15.3695 5.64493C15.3888 5.65881 15.4086 5.67207 15.4288 5.68468L15.3866 5.6573C15.41 5.6734 15.4339 5.68857 15.4585 5.70278L15.4288 5.68468C15.4607 5.7046 15.4938 5.7229 15.5278 5.73946C15.5417 5.74637 15.5556 5.75276 15.5697 5.75886L15.5278 5.73946C15.5472 5.7489 15.5669 5.75778 15.587 5.76608L15.5697 5.75886C15.5933 5.7691 15.6173 5.77851 15.6417 5.78706L15.587 5.76608C15.6156 5.77793 15.6449 5.78859 15.6747 5.798L15.6417 5.78706C15.6681 5.7963 15.6948 5.80453 15.722 5.81172L15.6747 5.798C15.6989 5.80562 15.7234 5.81241 15.7483 5.81835L15.722 5.81172C15.7494 5.81899 15.7772 5.8252 15.8053 5.83032L15.7483 5.81835C15.7769 5.82517 15.806 5.83085 15.8354 5.83535L15.8053 5.83032C15.8327 5.8353 15.8605 5.83924 15.8884 5.84211L15.8354 5.83535C15.8891 5.84355 15.944 5.84781 16 5.84781ZM19.5119 13.2595L23.5308 10.9399C23.5244 10.9144 23.5183 10.8887 23.5128 10.8631C23.5098 10.8491 23.5069 10.835 23.5041 10.8209C23.5003 10.8017 23.4968 10.7825 23.4935 10.7633C23.4907 10.7465 23.488 10.7297 23.4856 10.7129C23.4816 10.6855 23.4781 10.6582 23.4751 10.6308C23.4738 10.6192 23.4727 10.6075 23.4716 10.5958C23.461 10.4823 23.4591 10.3688 23.4656 10.256C23.4664 10.2415 23.4674 10.2269 23.4685 10.2123C23.4694 10.2006 23.4704 10.189 23.4714 10.1775L23.4685 10.2123C23.4713 10.1762 23.4749 10.1402 23.4794 10.1043C23.4823 10.0813 23.4855 10.0586 23.489 10.0359C23.4908 10.0245 23.4927 10.0129 23.4947 10.0014C23.4992 9.97514 23.5041 9.94902 23.5095 9.92301C23.5126 9.90822 23.5158 9.89359 23.5191 9.879C23.5238 9.8588 23.5287 9.83857 23.5339 9.8184C23.5387 9.79983 23.5436 9.78149 23.5488 9.76321C23.5526 9.74992 23.5566 9.73647 23.5607 9.72306C23.5679 9.69932 23.5755 9.67574 23.5835 9.65228C23.6303 9.51469 23.6904 9.3815 23.763 9.2547L23.7658 9.24985L17.9651 5.90198C17.9574 5.91527 17.9496 5.92848 17.9416 5.94159C17.935 5.95256 17.9283 5.96341 17.9215 5.97419C17.9106 5.99149 17.8994 6.00871 17.888 6.02576C17.8773 6.04185 17.8664 6.05769 17.8553 6.07339C17.8473 6.08472 17.8391 6.09611 17.8308 6.10742C17.8196 6.12278 17.8082 6.1379 17.7966 6.15286C17.7858 6.16685 17.7747 6.1809 17.7634 6.19482C17.7505 6.21079 17.7374 6.22644 17.7242 6.24192C17.7157 6.25178 17.7072 6.2616 17.6986 6.27134C17.6805 6.2917 17.6621 6.31177 17.6433 6.33151C17.6376 6.33743 17.6321 6.34313 17.6266 6.3488C17.5525 6.425 17.4729 6.49616 17.3885 6.5615C17.3769 6.57053 17.3651 6.57948 17.3532 6.58832C17.3344 6.6023 17.3155 6.61595 17.2963 6.6293C17.2836 6.63819 17.2705 6.64708 17.2574 6.65584C17.2438 6.66492 17.2301 6.67381 17.2164 6.68256C17.1958 6.69566 17.1751 6.70838 17.1541 6.72077C17.1444 6.72654 17.1343 6.73239 17.1242 6.73816C17.1076 6.74766 17.0911 6.7568 17.0745 6.76573C17.0588 6.77421 17.0428 6.78259 17.0267 6.79079C17.0103 6.7991 16.9938 6.80721 16.9773 6.81513C16.957 6.8248 16.9365 6.83423 16.9158 6.84336C16.9076 6.84702 16.8994 6.85057 16.8912 6.85407C16.8669 6.86444 16.8423 6.87447 16.8174 6.88407C16.8051 6.88882 16.793 6.89338 16.7809 6.89783C16.7612 6.90504 16.7411 6.91207 16.721 6.91882C16.7066 6.92365 16.6921 6.92833 16.6775 6.93288C16.655 6.9399 16.6325 6.94657 16.6098 6.95289V11.3206C17.8509 11.474 18.9167 12.2133 19.5119 13.2595ZM12.6948 13.3513C13.2502 12.309 14.2542 11.5707 15.4208 11.3556L15.4214 6.96136L15.4063 6.95729C15.3823 6.9508 15.3584 6.94393 15.3348 6.93669C15.3243 6.93347 15.3139 6.93022 15.3036 6.92691C15.2816 6.91982 15.2597 6.91238 15.2379 6.90462C15.2238 6.89957 15.2097 6.89442 15.1958 6.88913C15.1778 6.88231 15.1599 6.87525 15.142 6.86796C15.0783 6.8419 15.0158 6.81296 14.955 6.78134C14.9386 6.77282 14.9221 6.76403 14.9059 6.75504C14.892 6.74743 14.8784 6.7397 14.8648 6.73184C14.8491 6.72274 14.8335 6.71345 14.818 6.70399C14.7987 6.69222 14.7797 6.68016 14.7608 6.66782C14.7512 6.66161 14.7419 6.65542 14.7326 6.64916C14.7158 6.6378 14.699 6.6261 14.6823 6.61418C14.6666 6.60301 14.6512 6.59167 14.6359 6.58014C14.6247 6.57172 14.6136 6.56323 14.6027 6.55464C14.5871 6.54245 14.5716 6.53002 14.5563 6.51739C14.5431 6.50646 14.53 6.49544 14.5171 6.48429C14.5017 6.471 14.4864 6.45738 14.4712 6.44356C14.4615 6.43469 14.4519 6.42577 14.4424 6.41677C14.4146 6.39051 14.3874 6.36356 14.361 6.33594L14.2946 6.26353C14.2381 6.19917 14.1851 6.13159 14.1361 6.06109C14.1239 6.04367 14.1121 6.02608 14.1004 6.00833C14.0776 5.97344 14.0558 5.93802 14.0349 5.90198L14.0814 5.97879C14.068 5.9576 14.0549 5.93618 14.0422 5.91453L14.0349 5.90198L8.23417 9.2498C8.23523 9.25164 8.23629 9.25349 8.23735 9.25534C8.27373 9.31887 8.307 9.38412 8.33701 9.45073C8.346 9.47068 8.35487 9.49115 8.36343 9.51173C8.36927 9.52578 8.37478 9.53942 8.38016 9.5531C8.38915 9.57594 8.39793 9.5994 8.40633 9.623C8.4098 9.63277 8.41318 9.64247 8.41649 9.65218C8.42347 9.67268 8.43014 9.69321 8.43651 9.71384C8.44295 9.73468 8.4491 9.7556 8.45493 9.77661C8.45725 9.78492 8.45955 9.7934 8.46181 9.80191C8.46891 9.82864 8.47549 9.85534 8.48158 9.88216C8.48464 9.89561 8.4876 9.90921 8.49043 9.92284C8.49588 9.94902 8.50084 9.97514 8.50534 10.0013C8.50718 10.012 8.50894 10.0227 8.51062 10.0335C8.51435 10.0572 8.51772 10.0811 8.52071 10.1051C8.52233 10.1181 8.52381 10.1308 8.52518 10.1436C8.52776 10.1676 8.52998 10.1919 8.53181 10.2162C8.53281 10.2296 8.53369 10.2429 8.53445 10.2561C8.54092 10.3688 8.539 10.4823 8.52844 10.5957C8.52734 10.6075 8.52615 10.6192 8.52488 10.6309C8.52191 10.6582 8.51842 10.6855 8.51443 10.7128C8.51114 10.7353 8.50751 10.7577 8.50353 10.7802C8.50137 10.7924 8.49909 10.8046 8.49672 10.8168C8.49321 10.8348 8.48948 10.8529 8.48552 10.8708C8.48321 10.8813 8.48078 10.892 8.47828 10.9026L8.47505 10.9164L12.6948 13.3513ZM26.2711 11.3192C26.7878 11.021 26.9648 10.3605 26.6665 9.84397C26.3682 9.32744 25.7075 9.15047 25.1907 9.44868C25.0146 9.55035 24.8779 9.69411 24.7861 9.85993C24.7776 9.87483 24.7698 9.88982 24.7623 9.90494L24.7861 9.85993C24.7694 9.88998 24.7543 9.92075 24.7406 9.95213L24.7623 9.90494C24.7517 9.92658 24.7417 9.94849 24.7326 9.97064L24.7406 9.95213C24.7301 9.97629 24.7205 10.0008 24.7117 10.0256L24.7326 9.97064C24.721 9.99846 24.7107 10.0267 24.7016 10.0552L24.7117 10.0256C24.7037 10.0486 24.6964 10.0717 24.6899 10.0951L24.7016 10.0552C24.6919 10.0855 24.6836 10.1162 24.6766 10.1471L24.6899 10.0951C24.6829 10.1206 24.6767 10.1463 24.6715 10.1722L24.6766 10.1471C24.6717 10.1688 24.6675 10.1905 24.664 10.2124L24.6715 10.1722C24.658 10.2398 24.6509 10.3087 24.6504 10.378C24.6501 10.3898 24.6503 10.4015 24.6506 10.4132L24.6504 10.378C24.6503 10.4022 24.6509 10.4265 24.6524 10.4509L24.6506 10.4132C24.6513 10.4397 24.653 10.4661 24.6557 10.4925L24.6524 10.4509C24.6542 10.4796 24.6571 10.5084 24.6612 10.537L24.6557 10.4925C24.6584 10.5197 24.6622 10.5468 24.667 10.5738L24.6612 10.537C24.6648 10.5623 24.6693 10.5875 24.6748 10.6126L24.667 10.5738C24.6724 10.6038 24.6791 10.6337 24.6871 10.6634L24.6748 10.6126C24.6806 10.6394 24.6875 10.6661 24.6954 10.6927L24.6871 10.6634C24.6938 10.6884 24.7015 10.7133 24.7101 10.7379L24.6954 10.6927C24.7034 10.7194 24.7125 10.746 24.7227 10.7723L24.7101 10.7379C24.7203 10.7673 24.7318 10.7963 24.7447 10.825L24.7227 10.7723C24.7325 10.7976 24.7433 10.8227 24.7551 10.8475L24.7953 10.9239C24.8093 10.9482 24.8242 10.9717 24.8398 10.9946C24.8468 11.0048 24.8538 11.0146 24.8609 11.0243L24.8398 10.9946C24.8566 11.0191 24.8743 11.0428 24.8928 11.0656L24.8609 11.0243C24.8765 11.0455 24.8927 11.0661 24.9097 11.0859L24.8928 11.0656C24.9102 11.0871 24.9284 11.1077 24.9472 11.1276L24.9097 11.0859C24.9294 11.109 24.95 11.1311 24.9713 11.1522L24.9472 11.1276C24.9655 11.1469 24.9844 11.1655 25.004 11.1832L24.9713 11.1522C24.992 11.1727 25.0134 11.1922 25.0354 11.2107L25.004 11.1832C25.0237 11.2012 25.0441 11.2184 25.065 11.2348L25.0354 11.2107C25.0566 11.2285 25.0783 11.2453 25.1006 11.2613L25.065 11.2348C25.0843 11.2499 25.104 11.2643 25.1242 11.278L25.1006 11.2613C25.1236 11.2778 25.1472 11.2933 25.1713 11.3079L25.1242 11.278C25.1452 11.2922 25.1666 11.3056 25.1884 11.3183L25.1713 11.3079C25.2505 11.3558 25.3354 11.3931 25.4235 11.4192C25.4349 11.4229 25.4464 11.4261 25.4579 11.4291L25.4235 11.4192C25.4515 11.4275 25.4798 11.4347 25.5083 11.4407L25.4579 11.4291C25.483 11.4356 25.5083 11.4413 25.5339 11.446L25.5083 11.4407C25.533 11.4459 25.5579 11.4503 25.5829 11.4537L25.5339 11.446C25.5628 11.4513 25.5919 11.4555 25.6213 11.4586L25.5829 11.4537C25.8127 11.4857 26.0545 11.4442 26.2711 11.3192ZM6.24957 11.4639L6.30175 11.4637C6.31468 11.4633 6.32758 11.4627 6.34043 11.4618L6.30152 11.4635C6.32752 11.4627 6.35345 11.461 6.37925 11.4583L6.34043 11.4618C6.36616 11.4601 6.39173 11.4574 6.41709 11.4539L6.37925 11.4583C6.40772 11.4554 6.43604 11.4513 6.46414 11.4461L6.41709 11.4539C6.4437 11.4502 6.47009 11.4456 6.4962 11.44L6.46414 11.4461C6.48983 11.4414 6.51533 11.4358 6.5406 11.4292L6.4962 11.44C6.52337 11.4341 6.55024 11.4273 6.57676 11.4194L6.5406 11.4292C6.63313 11.4052 6.72247 11.369 6.80601 11.3213C6.81491 11.3164 6.82354 11.3113 6.83209 11.3061L6.80601 11.3213C6.83016 11.3075 6.85383 11.2927 6.87695 11.277L6.83209 11.3061C6.85379 11.2929 6.87503 11.2788 6.89578 11.2641L6.87695 11.277C6.89657 11.2637 6.91579 11.2497 6.93457 11.235L6.89578 11.2641C6.92125 11.246 6.94598 11.2267 6.96987 11.2063L6.93457 11.235C6.95442 11.2195 6.97378 11.2033 6.99261 11.1863L6.96987 11.2063C6.9909 11.1884 7.01128 11.1696 7.03096 11.15L6.99261 11.1863C7.01336 11.1676 7.03346 11.148 7.05287 11.1275L7.03096 11.15C7.05153 11.1295 7.07133 11.1081 7.09032 11.0859L7.05287 11.1275C7.07163 11.1077 7.08973 11.0871 7.10712 11.0657L7.09032 11.0859C7.10495 11.0687 7.1191 11.0511 7.13274 11.0329L7.10712 11.0657C7.13872 11.0268 7.16797 10.9852 7.19453 10.9411L7.20469 10.9239C7.21923 10.8987 7.23267 10.8731 7.24502 10.8472C7.24843 10.8401 7.25189 10.8326 7.25526 10.8251L7.24502 10.8472C7.25675 10.8226 7.26748 10.7977 7.27723 10.7725L7.25526 10.8251C7.26818 10.7963 7.27974 10.7673 7.28995 10.7379L7.27723 10.7725C7.28746 10.7461 7.29661 10.7194 7.30467 10.6924L7.28995 10.7379C7.29852 10.7133 7.30614 10.6885 7.31284 10.6636L7.30467 10.6924C7.31258 10.666 7.31945 10.6393 7.32528 10.6125L7.31284 10.6636C7.32085 10.6338 7.32753 10.6039 7.3329 10.5738L7.32528 10.6125C7.33074 10.5874 7.33528 10.5622 7.33891 10.5369L7.3329 10.5738C7.33772 10.5468 7.34148 10.5198 7.3442 10.4927L7.33891 10.5369C7.34301 10.5083 7.34596 10.4796 7.34774 10.4508L7.3442 10.4927C7.34684 10.4665 7.3485 10.4403 7.34921 10.4142L7.34774 10.4508C7.34953 10.422 7.35016 10.3932 7.34963 10.3643L7.34921 10.4142C7.34994 10.3873 7.34966 10.3605 7.34839 10.3337L7.34963 10.3643C7.34844 10.3001 7.3415 10.236 7.32886 10.1728C7.32646 10.1621 7.32418 10.1515 7.32174 10.141L7.32886 10.1728C7.32364 10.1467 7.31745 10.1207 7.31029 10.095L7.32174 10.141C7.31674 10.1194 7.31108 10.0979 7.30477 10.0766L7.31029 10.095C7.30357 10.0708 7.296 10.0469 7.28758 10.0231L7.30477 10.0766C7.29451 10.0421 7.28252 10.008 7.26884 9.97453L7.28758 10.0231C7.2779 9.9958 7.26708 9.96878 7.25515 9.94213L7.26884 9.97453C7.18138 9.76068 7.0249 9.57314 6.80926 9.44868C6.29254 9.15047 5.63182 9.32744 5.33349 9.84397C5.03516 10.3605 5.2122 11.021 5.72892 11.3192C5.89333 11.4141 6.07232 11.4609 6.24957 11.4639ZM7.85056 19.9892L10.4247 18.5043C9.98698 17.9658 9.72466 17.279 9.72466 16.531C9.72466 15.4054 10.3188 14.4184 11.2106 13.8664L7.90298 11.9581C7.86447 11.9981 7.82467 12.0365 7.78369 12.0732C7.77923 12.0772 7.77486 12.0811 7.77047 12.085C7.71906 12.1303 7.66576 12.1732 7.61084 12.2134C7.59709 12.2234 7.58301 12.2335 7.56882 12.2434C7.54967 12.2568 7.53056 12.2696 7.51128 12.2822C7.50166 12.2885 7.49183 12.2948 7.48196 12.3011C7.46025 12.3148 7.43846 12.328 7.41647 12.3408C7.40296 12.3487 7.38922 12.3566 7.3754 12.3643C7.35685 12.3746 7.3383 12.3846 7.31963 12.3943C7.30079 12.4042 7.28177 12.4137 7.26264 12.423C7.25047 12.4289 7.23822 12.4347 7.22593 12.4404C7.20513 12.4501 7.18426 12.4594 7.16326 12.4684C7.14744 12.4751 7.13147 12.4818 7.11543 12.4882C7.09615 12.4959 7.07679 12.5034 7.05733 12.5106C7.04301 12.5159 7.02856 12.5211 7.01406 12.5261C6.9926 12.5335 6.97118 12.5406 6.94965 12.5474C6.93437 12.5522 6.91889 12.5569 6.90336 12.5614C6.8835 12.5672 6.86362 12.5726 6.84368 12.5779C6.82858 12.5818 6.81345 12.5856 6.79829 12.5892C6.776 12.5946 6.75355 12.5996 6.73102 12.6043C6.71412 12.6078 6.69714 12.6112 6.68012 12.6143C6.66332 12.6174 6.64665 12.6203 6.62994 12.623C6.60892 12.6264 6.58763 12.6295 6.5663 12.6324C6.54859 12.6347 6.53076 12.6369 6.5129 12.6388C6.49526 12.6407 6.47794 12.6424 6.4606 12.6439C6.43898 12.6458 6.41702 12.6473 6.39503 12.6486C6.35316 12.6509 6.31116 12.6521 6.26909 12.6522L6.34246 12.6509C6.32985 12.6513 6.31724 12.6517 6.30462 12.6519L6.26957 12.6522H6.26909V19.3478H6.26957C6.50558 19.3481 6.73961 19.3852 6.96291 19.4568C7.00843 19.4714 7.05331 19.4874 7.09768 19.5048C7.14537 19.5234 7.19269 19.5438 7.23931 19.5658L7.33879 19.6158C7.52398 19.7145 7.69663 19.8395 7.85056 19.9892ZM24.1674 19.9735L24.1703 19.9692C24.1831 19.957 24.1961 19.945 24.2093 19.9331C24.2263 19.9178 24.2435 19.9026 24.261 19.8877C24.2722 19.8783 24.2833 19.869 24.2945 19.8598C24.3121 19.8455 24.3299 19.8314 24.3479 19.8175C24.3618 19.8069 24.3759 19.7963 24.3902 19.7859C24.4024 19.7769 24.4144 19.7683 24.4265 19.7599C24.447 19.7455 24.468 19.7313 24.4892 19.7174C24.4974 19.7121 24.5057 19.7068 24.514 19.7015C24.5403 19.6848 24.5668 19.6688 24.5936 19.6533C24.5944 19.6529 24.5951 19.6525 24.5958 19.6521C24.6229 19.6364 24.6525 19.6202 24.6824 19.6046C24.6979 19.5965 24.7135 19.5887 24.7292 19.581C24.7469 19.5723 24.7647 19.5638 24.7826 19.5556C24.7989 19.5482 24.815 19.541 24.8312 19.534C24.8506 19.5256 24.8704 19.5174 24.8902 19.5095C24.9017 19.505 24.9133 19.5005 24.9249 19.4961C24.9527 19.4855 24.9807 19.4755 25.0088 19.4661C25.015 19.4641 25.0212 19.462 25.0275 19.4599C25.0533 19.4515 25.0791 19.4436 25.1051 19.4362C25.122 19.4313 25.1392 19.4266 25.1565 19.4221C25.1706 19.4184 25.1849 19.4148 25.1992 19.4113C25.2225 19.4057 25.2456 19.4005 25.2688 19.3957C25.2846 19.3924 25.3004 19.3893 25.3163 19.3864C25.3366 19.3826 25.3572 19.379 25.3778 19.3758C25.3941 19.3732 25.4102 19.3708 25.4264 19.3686C25.4472 19.3658 25.4682 19.3632 25.4891 19.361C25.5082 19.3589 25.5274 19.3571 25.5466 19.3555C25.5629 19.3541 25.579 19.353 25.5952 19.352C25.6402 19.3493 25.6855 19.3479 25.7309 19.3478L25.6577 19.3491C25.6703 19.3487 25.6828 19.3483 25.6954 19.3481L25.7309 19.3478L25.7304 12.6522C25.5086 12.6519 25.2886 12.6191 25.0775 12.5557C24.9947 12.5308 24.9129 12.5011 24.833 12.4668C24.6576 12.3914 24.4908 12.2935 24.3377 12.1745C24.2614 12.1153 24.1886 12.0509 24.1198 11.9815L24.1139 11.9753L20.0191 14.3381C21.2849 14.4968 22.2756 15.54 22.3521 16.8292L22.3565 16.9458L22.3568 16.99C22.3568 17.5999 22.1525 18.162 21.8086 18.6118L24.1674 19.9735ZM15.8433 18.4748L19.683 18.4749C20.5034 18.4749 21.1685 17.8101 21.1685 16.99C21.1685 16.1699 20.5034 15.5051 19.683 15.5051H18.8646L18.8206 14.9587C18.7083 13.5632 17.5384 12.4789 16.1286 12.4789C15.0024 12.4789 14.0065 13.1743 13.6078 14.207L13.461 14.5872L12.8576 14.5871C11.7837 14.5871 10.913 15.4575 10.913 16.531C10.913 17.6046 11.7837 18.4749 12.8576 18.4749L15.7817 18.4748L15.8008 18.4745L15.8136 18.4743L15.8433 18.4748ZM14.0349 26.098L14.0439 26.0826C14.0566 26.0611 14.0697 26.0397 14.0831 26.0186C14.0921 26.0044 14.1011 25.9906 14.1102 25.9769C14.1191 25.9635 14.1284 25.9499 14.1378 25.9364C14.1482 25.9215 14.1587 25.9069 14.1693 25.8924C14.1817 25.8755 14.1944 25.8587 14.2073 25.842C14.2154 25.8317 14.2234 25.8215 14.2315 25.8114C14.2469 25.7923 14.2627 25.7733 14.2789 25.7545C14.2864 25.7458 14.2939 25.7372 14.3015 25.7286C14.342 25.683 14.3843 25.6389 14.4284 25.5965C14.4364 25.5888 14.4445 25.5812 14.4527 25.5736L14.4284 25.5965C14.5125 25.5157 14.6029 25.4414 14.6987 25.3742C14.7134 25.3639 14.7281 25.3538 14.7429 25.3439C14.7566 25.3348 14.7706 25.3257 14.7847 25.3168C14.8017 25.306 14.8186 25.2955 14.8357 25.2853C14.8513 25.276 14.867 25.2668 14.8828 25.2579C14.8931 25.252 14.9035 25.2462 14.9139 25.2406C14.9366 25.2281 14.9597 25.216 14.9831 25.2043C14.9947 25.1985 15.0062 25.1928 15.0178 25.1872C15.0349 25.179 15.0521 25.171 15.0694 25.1632C15.0871 25.1553 15.1049 25.1475 15.1229 25.14C15.1391 25.1332 15.1554 25.1266 15.1717 25.1202C15.1879 25.1138 15.2043 25.1076 15.2207 25.1016C15.2399 25.0946 15.2594 25.0877 15.279 25.0812C15.2935 25.0763 15.3079 25.0717 15.3225 25.0671C15.3453 25.06 15.3682 25.0532 15.3912 25.0468C15.4011 25.0441 15.4111 25.0414 15.421 25.0388L15.4214 19.6632L12.8576 19.6629C12.3347 19.6629 11.8416 19.5348 11.4082 19.3083L8.45619 21.0126L8.45896 21.0213C8.46428 21.0408 8.46932 21.0603 8.47409 21.0799C8.47796 21.0958 8.48164 21.1116 8.48514 21.1274C8.49006 21.1497 8.49464 21.172 8.49886 21.1944C8.50329 21.2178 8.50735 21.2413 8.51103 21.2647C8.51257 21.2746 8.51404 21.2844 8.51545 21.2943C8.52014 21.3271 8.52409 21.3598 8.52732 21.3926C8.52774 21.3969 8.52816 21.4013 8.52857 21.4057C8.53913 21.5199 8.54093 21.6341 8.53424 21.7475C8.53343 21.7612 8.53253 21.7745 8.53151 21.7877C8.5296 21.8125 8.52725 21.8377 8.52449 21.8628C8.52326 21.8739 8.52197 21.8848 8.52061 21.8957C8.51761 21.9198 8.51417 21.9441 8.51035 21.9683C8.50798 21.9832 8.50553 21.9979 8.50293 22.0125C8.49866 22.0364 8.49395 22.0606 8.48886 22.0847C8.48646 22.096 8.484 22.1072 8.48146 22.1184C8.47576 22.1435 8.46962 22.1685 8.46307 22.1933C8.46004 22.2048 8.45686 22.2165 8.45358 22.2282C8.44701 22.2517 8.44015 22.2747 8.43291 22.2977C8.4276 22.3146 8.42208 22.3314 8.41637 22.3482C8.40936 22.3688 8.40193 22.3896 8.39421 22.4103C8.38873 22.4249 8.38311 22.4395 8.37734 22.4541C8.37601 22.4574 8.37464 22.4608 8.37327 22.4642L8.37734 22.4541C8.33694 22.5558 8.28913 22.6548 8.23417 22.7502L8.27127 22.6832C8.26027 22.7039 8.24894 22.7244 8.23728 22.7448L8.23417 22.7502L14.0349 26.098ZM17.9651 26.098L23.7658 22.7502C23.7649 22.7485 23.7639 22.7468 23.7629 22.7452C23.708 22.6493 23.6603 22.5497 23.62 22.4474C23.6152 22.4351 23.6104 22.4227 23.6058 22.4103C23.5981 22.3896 23.5906 22.3688 23.5835 22.3479C23.5754 22.324 23.5676 22.2997 23.5602 22.2753C23.5568 22.2643 23.5536 22.2532 23.5504 22.2422C23.5442 22.2208 23.5384 22.1994 23.5329 22.1779C23.5293 22.1638 23.5258 22.1495 23.5224 22.1351C23.5185 22.1184 23.5147 22.1016 23.5112 22.0848C23.506 22.0606 23.5013 22.0364 23.497 22.0122C23.4944 21.9977 23.492 21.9829 23.4896 21.9681C23.4872 21.9528 23.485 21.9379 23.483 21.9229C23.4805 21.9049 23.4782 21.8865 23.4761 21.8681L23.4731 21.8398C23.4718 21.8268 23.4706 21.8137 23.4695 21.8006C23.4681 21.7833 23.4668 21.7656 23.4658 21.7479C23.4591 21.6341 23.4609 21.5199 23.4714 21.4058C23.4718 21.4013 23.4723 21.3969 23.4727 21.3925C23.4759 21.3598 23.4799 21.3271 23.4845 21.2943C23.486 21.2844 23.4874 21.2746 23.489 21.2647C23.4932 21.2377 23.498 21.2106 23.5032 21.1836C23.5055 21.1716 23.508 21.1595 23.5105 21.1474C23.5153 21.1249 23.5204 21.1024 23.5259 21.08C23.5311 21.0586 23.5366 21.0374 23.5424 21.0162C23.5446 21.0082 23.5469 21.0003 23.5491 20.9923L23.5506 20.9892L20.8173 19.4111C20.5043 19.5579 20.1582 19.6458 19.7932 19.6606L19.683 19.6629L16.6098 19.6632L16.6094 25.047C16.6242 25.0511 16.6389 25.0554 16.6535 25.0597C16.6718 25.0652 16.6898 25.0709 16.7076 25.0768C16.7225 25.0816 16.7375 25.0867 16.7524 25.092C16.77 25.0982 16.7875 25.1045 16.8048 25.1111C16.9032 25.1484 16.9985 25.1925 17.09 25.2427C17.1082 25.2527 17.1267 25.2631 17.1449 25.2738C17.1575 25.2812 17.1698 25.2885 17.182 25.296C17.1968 25.305 17.2115 25.3143 17.2261 25.3236C17.2452 25.336 17.2641 25.3485 17.2827 25.3613C17.2908 25.3668 17.2988 25.3724 17.3068 25.3781C17.3268 25.3921 17.3466 25.4066 17.3662 25.4214C17.3767 25.4293 17.3871 25.4373 17.3973 25.4453C17.4132 25.4577 17.4288 25.4703 17.4444 25.4832C17.4569 25.4935 17.4695 25.5041 17.4819 25.5149C17.5029 25.533 17.5234 25.5513 17.5435 25.57C17.5482 25.5744 17.5532 25.579 17.5581 25.5837C17.5779 25.6024 17.5973 25.6214 17.6164 25.6408C17.68 25.7053 17.74 25.7739 17.7957 25.8459C17.8316 25.8923 17.8656 25.94 17.8978 25.9891C17.9211 26.0245 17.9436 26.0609 17.9651 26.098L17.9207 26.0245C17.934 26.0457 17.947 26.0671 17.9597 26.0887L17.9651 26.098ZM6.80926 22.5513C6.98704 22.4487 7.12461 22.3032 7.21644 22.1355C7.22528 22.1197 7.23332 22.1041 7.24096 22.0883L7.21644 22.1355C7.22937 22.1119 7.24138 22.0878 7.25248 22.0634L7.24096 22.0883C7.25168 22.0662 7.26162 22.0438 7.27077 22.0212L7.25248 22.0634C7.26497 22.0359 7.27629 22.0079 7.28643 21.9795L7.27077 22.0212C7.28093 21.9961 7.29011 21.9707 7.29832 21.945L7.28643 21.9795C7.2954 21.9544 7.30343 21.929 7.31053 21.9033L7.29832 21.945C7.30647 21.9196 7.31365 21.8939 7.31987 21.8681L7.31053 21.9033C7.31745 21.8782 7.32347 21.8528 7.32858 21.8273L7.31987 21.8681C7.33584 21.8017 7.34545 21.7341 7.34863 21.6662C7.34879 21.6578 7.3491 21.6493 7.3493 21.6409L7.34863 21.6662C7.34988 21.6394 7.35014 21.6126 7.34939 21.5858L7.3493 21.6409C7.35002 21.6105 7.34947 21.5801 7.34762 21.5496L7.34939 21.5858C7.34865 21.5594 7.34694 21.5329 7.34425 21.5066L7.34762 21.5496C7.34589 21.5212 7.34303 21.4928 7.33902 21.4645L7.34425 21.5066C7.34149 21.4795 7.33769 21.4525 7.33286 21.4256L7.33902 21.4645C7.33562 21.4404 7.33139 21.4164 7.32632 21.3925L7.33286 21.4256C7.32765 21.3967 7.32124 21.3678 7.31362 21.3392L7.32632 21.3925C7.32046 21.3648 7.31348 21.3373 7.30535 21.3099L7.31362 21.3392C7.30694 21.3141 7.29932 21.2892 7.29077 21.2645L7.30535 21.3099C7.29692 21.2815 7.28726 21.2532 7.27636 21.2252L7.29077 21.2645C7.26846 21.1999 7.23979 21.1369 7.20469 21.0761L7.21663 21.0973C7.21274 21.0902 7.20876 21.0831 7.20469 21.0761C7.18489 21.0418 7.16349 21.009 7.14064 20.9778C7.12996 20.9632 7.1191 20.9491 7.10794 20.9353L7.14064 20.9778C7.12457 20.9558 7.10779 20.9346 7.09034 20.9141L7.10794 20.9353C7.09031 20.9135 7.07192 20.8926 7.05282 20.8724L7.09034 20.9141C7.0714 20.8919 7.05168 20.8707 7.03124 20.8503L7.05282 20.8724C7.03352 20.852 7.01351 20.8325 6.99282 20.8138L7.03124 20.8503C7.01139 20.8305 6.99087 20.8116 6.96973 20.7937L6.99282 20.8138C6.97395 20.7968 6.95452 20.7805 6.93458 20.7649L6.96973 20.7937C6.94647 20.7739 6.92247 20.7551 6.8978 20.7375L6.93458 20.7649C6.91602 20.7504 6.89701 20.7365 6.87759 20.7233L6.8978 20.7375C6.87648 20.7223 6.85467 20.7079 6.83241 20.6943L6.87759 20.7233C6.85502 20.7079 6.83189 20.6934 6.80826 20.6798L6.83241 20.6943C6.8107 20.6811 6.78856 20.6687 6.76605 20.657L6.80826 20.6798C6.77729 20.662 6.74545 20.6457 6.71286 20.6311L6.76605 20.657C6.72725 20.637 6.68733 20.6193 6.64655 20.6042C6.63761 20.6005 6.62853 20.5973 6.6194 20.5942L6.64655 20.6042C6.62379 20.5957 6.60077 20.588 6.57752 20.5811L6.6194 20.5942C6.59361 20.5854 6.56745 20.5775 6.54097 20.5706L6.57752 20.5811C6.55423 20.5741 6.53072 20.568 6.50701 20.5626L6.54097 20.5706C6.51225 20.5632 6.48317 20.5569 6.45377 20.5518L6.50701 20.5626C6.48078 20.5567 6.45431 20.5518 6.42768 20.5478L6.45377 20.5518C6.4278 20.5473 6.40158 20.5437 6.37517 20.5411L6.42768 20.5478C6.19469 20.5131 5.94877 20.5539 5.72892 20.6808C5.2122 20.979 5.03516 21.6395 5.33349 22.156C5.63182 22.6726 6.29254 22.8495 6.80926 22.5513ZM26.6665 22.156C26.9648 21.6395 26.7878 20.979 26.2711 20.6808C26.0953 20.5794 25.9029 20.5329 25.7137 20.5361C25.6948 20.5363 25.6761 20.5371 25.6575 20.5383L25.7137 20.5361C25.6843 20.5366 25.6549 20.5383 25.6257 20.5412L25.6575 20.5383C25.629 20.5403 25.6007 20.5434 25.5726 20.5475L25.6257 20.5412C25.5987 20.5438 25.5718 20.5475 25.5451 20.5522L25.5726 20.5475C25.5469 20.5514 25.5214 20.5561 25.4962 20.5617L25.5451 20.5522C25.5154 20.5574 25.486 20.5638 25.4569 20.5715L25.4962 20.5617C25.4739 20.5666 25.4519 20.5723 25.4301 20.5786L25.4569 20.5715C25.3986 20.5867 25.3416 20.6069 25.2865 20.6316C25.2689 20.6393 25.2516 20.6476 25.2345 20.6565L25.2865 20.6316C25.2539 20.6463 25.222 20.6626 25.191 20.6805L25.2345 20.6565C25.2129 20.6676 25.1916 20.6795 25.1708 20.6921L25.191 20.6805C25.1697 20.6927 25.1489 20.7057 25.1285 20.7193L25.1708 20.6921C25.1462 20.707 25.1222 20.7229 25.0988 20.7398L25.1285 20.7193C25.1045 20.7354 25.0812 20.7524 25.0585 20.7705L25.0988 20.7398C25.0771 20.7554 25.056 20.7719 25.0355 20.7891L25.0585 20.7705C25.0393 20.7857 25.0206 20.8016 25.0024 20.8182L25.0355 20.7891C25.0134 20.8078 24.9919 20.8274 24.9712 20.8479L25.0024 20.8182C24.9834 20.8356 24.965 20.8536 24.9471 20.8725L24.9712 20.8479C24.9498 20.869 24.9293 20.8911 24.9097 20.9141L24.9471 20.8725C24.9281 20.8926 24.9097 20.9135 24.892 20.9353L24.9097 20.9141C24.8672 20.9639 24.8289 21.018 24.7953 21.0761C24.7673 21.1245 24.7434 21.1744 24.7236 21.2254C24.7186 21.2382 24.7138 21.2513 24.7092 21.2644L24.7236 21.2254C24.7128 21.2532 24.7031 21.2813 24.6947 21.3097L24.7092 21.2644C24.7007 21.2893 24.693 21.3143 24.6863 21.3394L24.6947 21.3097C24.6866 21.3371 24.6795 21.3647 24.6736 21.3925L24.6863 21.3394C24.6787 21.368 24.6724 21.3968 24.6672 21.4257L24.6736 21.3925C24.6686 21.4163 24.6643 21.4402 24.6609 21.4642L24.6672 21.4257C24.6624 21.4527 24.6586 21.4797 24.6559 21.5068L24.6609 21.4642C24.6569 21.4926 24.654 21.521 24.6522 21.5495L24.6559 21.5068C24.6532 21.5335 24.6515 21.5602 24.6508 21.5869L24.6522 21.5495C24.6506 21.5758 24.65 21.6022 24.6503 21.6285L24.6508 21.5869C24.649 21.655 24.6537 21.7228 24.6646 21.7896C24.6664 21.8024 24.6687 21.8151 24.6712 21.8278L24.6646 21.7896C24.6682 21.8115 24.6724 21.8333 24.6773 21.8549L24.6712 21.8278C24.6763 21.8532 24.6824 21.8785 24.6893 21.9036L24.6773 21.8549C24.6847 21.8872 24.6934 21.9191 24.7037 21.9505L24.6893 21.9036C24.6962 21.9283 24.7039 21.9529 24.7125 21.9773L24.7037 21.9505C24.7123 21.977 24.722 22.0032 24.7326 22.029L24.7125 21.9773C24.7216 22.0027 24.7316 22.0279 24.7426 22.0528L24.7326 22.029C24.8204 22.2414 24.9763 22.4276 25.1907 22.5513C25.7075 22.8495 26.3682 22.6726 26.6665 22.156ZM16 28.3121C16.5967 28.3121 17.0803 27.8286 17.0803 27.2321C17.0803 27.0303 17.025 26.8414 16.9286 26.6798C16.9213 26.6673 16.9136 26.655 16.9057 26.6429L16.9286 26.6798C16.8788 26.5964 16.8181 26.5203 16.7485 26.4534C16.7428 26.4475 16.7368 26.4419 16.7308 26.4364L16.7485 26.4534C16.734 26.4395 16.7192 26.426 16.7041 26.413L16.7308 26.4364C16.7078 26.4153 16.684 26.3953 16.6594 26.3763L16.7041 26.413C16.6841 26.3958 16.6635 26.3794 16.6424 26.3637L16.6594 26.3763C16.6392 26.3607 16.6184 26.3458 16.5971 26.3317L16.6424 26.3637C16.6195 26.3468 16.5959 26.3308 16.5717 26.3156L16.5971 26.3317C16.5722 26.3152 16.5467 26.2997 16.5205 26.2854L16.5717 26.3156C16.5495 26.3018 16.5267 26.2887 16.5034 26.2764L16.5205 26.2854C16.4922 26.2698 16.4631 26.2555 16.4334 26.2425L16.5034 26.2764C16.4715 26.2595 16.4386 26.2442 16.4049 26.2306L16.4334 26.2425C16.4086 26.2317 16.3834 26.2217 16.3578 26.2128L16.4049 26.2306C16.3792 26.2202 16.353 26.2108 16.3263 26.2023L16.3578 26.2128C16.3321 26.2038 16.306 26.1957 16.2795 26.1887L16.3263 26.2023C16.2991 26.1937 16.2714 26.1862 16.2433 26.1797L16.2795 26.1887C16.2551 26.1822 16.2305 26.1765 16.2055 26.1717L16.2433 26.1797C16.217 26.1736 16.1902 26.1685 16.1632 26.1644L16.2055 26.1717C16.1746 26.1658 16.1433 26.1611 16.1116 26.1579L16.1632 26.1644C16.1099 26.1564 16.0555 26.1522 16 26.1522L15.9151 26.1555C15.9062 26.1562 15.8973 26.157 15.8884 26.1579L15.9151 26.1555C15.8888 26.1575 15.8628 26.1605 15.8369 26.1644L15.8884 26.1579C15.8571 26.1611 15.8262 26.1656 15.7957 26.1715L15.8369 26.1644C15.8099 26.1685 15.7831 26.1736 15.7566 26.1797L15.7957 26.1715C15.7697 26.1764 15.744 26.1824 15.7186 26.1892L15.7566 26.1797C15.729 26.1861 15.7017 26.1935 15.6748 26.2019L15.7186 26.1892C15.6926 26.1962 15.667 26.2041 15.6418 26.213L15.6748 26.2019C15.65 26.2097 15.6255 26.2184 15.6014 26.228L15.6418 26.213C15.5854 26.2328 15.5312 26.2571 15.4795 26.2856C15.4621 26.2949 15.445 26.3049 15.4282 26.3154L15.4795 26.2856C15.4522 26.3006 15.4257 26.3167 15.3999 26.334L15.4282 26.3154C15.4057 26.3294 15.3838 26.3443 15.3624 26.3599L15.3999 26.334C15.3776 26.3489 15.3559 26.3647 15.3348 26.3812L15.3624 26.3599C15.3401 26.3762 15.3184 26.3934 15.2973 26.4115L15.3348 26.3812C15.3123 26.3988 15.2905 26.4172 15.2695 26.4365L15.2973 26.4115C15.2816 26.4249 15.2663 26.4388 15.2513 26.4532L15.2695 26.4365C15.2229 26.4792 15.1802 26.526 15.1417 26.5762C15.1324 26.588 15.1235 26.6002 15.1148 26.6126L15.1417 26.5762C15.0024 26.7581 14.9197 26.9854 14.9197 27.2321C14.9197 27.8286 15.4033 28.3121 16 28.3121Z" fill="white"/>
</svg>
