<svg width="32" height="32" viewBox="0 0 32 32" fill="none" xmlns="http://www.w3.org/2000/svg">
    <path d="M16 32C24.8366 32 32 24.8366 32 16C32 7.16344 24.8366 0 16 0C7.16344 0 0 7.16344 0 16C0 24.8366 7.16344 32 16 32Z" fill="white"/>
    <path d="M12.3596 30.5543C8.57311 29.6047 5.30587 27.2167 3.25162 23.8972C1.19737 20.5777 0.517897 16.5882 1.35749 12.7759C2.19708 8.96352 4.48961 5.62856 7.74827 3.47914C11.0069 1.32971 14.9751 0.535107 18.8101 1.26406L6.32895 18.7237H14.6028L12.3596 30.5543ZM19.7347 1.46888L17.601 13.2764H25.75L13.2594 30.7494C17.0844 31.4593 21.0356 30.6557 24.2794 28.5081C27.5232 26.3604 29.8059 23.0367 30.646 19.2381C31.486 15.4396 30.8177 11.4633 28.782 8.14808C26.7463 4.83288 23.5024 2.43807 19.7347 1.46888V1.46888Z" fill="#6B38DF"/>
</svg>
