<svg width="32" height="32" viewBox="0 0 32 32" fill="none" xmlns="http://www.w3.org/2000/svg">
    <path d="M16 32C24.8366 32 32 24.8366 32 16C32 7.16344 24.8366 0 16 0C7.16344 0 0 7.16344 0 16C0 24.8366 7.16344 32 16 32Z" fill="url(#paint0_linear)"/>
    <path d="M16.0534 18.373L25.6474 12.789L16.0534 7.10499L6.55538 12.789L16.0534 18.373ZM6.04738 15.453C6.04718 15.5858 6.08179 15.7164 6.14776 15.8316C6.21373 15.9469 6.30876 16.0429 6.42338 16.11L16.0504 21.718L25.8354 15.93C25.9477 15.865 26.0752 15.8308 26.205 15.8307C26.3348 15.8306 26.4623 15.8648 26.5748 15.9296C26.6872 15.9945 26.7805 16.0878 26.8454 16.2003C26.9103 16.3127 26.9444 16.4402 26.9444 16.57V19.196C26.9443 19.3243 26.9111 19.4504 26.8478 19.562C26.7845 19.6737 26.6934 19.767 26.5834 19.833L16.4264 25.896C16.3137 25.9633 16.185 25.9991 16.0538 25.9997C15.9225 26.0002 15.7936 25.9654 15.6804 25.899L5.26038 19.773C5.1403 19.7019 5.05311 19.5863 5.01773 19.4513C4.98234 19.3163 5.00162 19.1728 5.07138 19.052C5.10565 18.9922 5.15143 18.9398 5.20607 18.8979C5.26072 18.8559 5.32314 18.8252 5.38973 18.8076C5.45632 18.7899 5.52575 18.7856 5.59401 18.7949C5.66226 18.8043 5.72799 18.8271 5.78738 18.862L16.0504 24.895L25.8974 19.017V17.117L16.4244 22.72C16.3122 22.7866 16.1842 22.8219 16.0538 22.8225C15.9233 22.823 15.7951 22.7887 15.6824 22.723L5.89938 17.023C5.62532 16.8628 5.39807 16.6335 5.24032 16.358C5.08257 16.0825 4.99984 15.7704 5.00038 15.453V12.98C5.00006 12.869 5.02901 12.7599 5.0843 12.6637C5.1396 12.5675 5.21929 12.4876 5.31534 12.432C5.41138 12.3764 5.52039 12.3472 5.63136 12.3472C5.74232 12.3472 5.85133 12.3764 5.94738 12.432L6.55538 12.789L5.79138 13.246C5.71831 13.2901 5.63552 13.3157 5.55027 13.3203C5.46502 13.325 5.37994 13.3086 5.3025 13.2726C5.22507 13.2367 5.15766 13.1823 5.1062 13.1141C5.05473 13.046 5.0208 12.9663 5.00738 12.882C4.98965 12.777 5.00403 12.6691 5.04864 12.5724C5.09324 12.4757 5.166 12.3947 5.25738 12.34L15.6764 6.10399C15.7896 6.03605 15.9191 5.99999 16.0511 5.99964C16.1831 5.99928 16.3128 6.03465 16.4264 6.10199L26.6374 12.152C26.7485 12.2182 26.8403 12.3123 26.904 12.4248C26.9676 12.5374 27.0008 12.6646 27.0003 12.7939C26.9998 12.9232 26.9656 13.0502 26.9011 13.1622C26.8366 13.2743 26.744 13.3676 26.6324 13.433L16.4204 19.377C16.3081 19.4426 16.1803 19.4771 16.0502 19.4769C15.9202 19.4767 15.7925 19.4419 15.6804 19.376L5.42038 13.343C5.47464 13.3749 5.53544 13.394 5.59818 13.399C5.66093 13.4039 5.72398 13.3945 5.78256 13.3715C5.84113 13.3485 5.8937 13.3124 5.93629 13.2661C5.97888 13.2197 6.01037 13.1643 6.02838 13.104C6.04118 13.0639 6.04792 13.0221 6.04838 12.98V15.454L6.04738 15.453Z" fill="white"/>
    <defs>
        <linearGradient id="paint0_linear" x1="5.52352" y1="3.968" x2="26.3222" y2="27.9274" gradientUnits="userSpaceOnUse">
            <stop stop-color="#21BCC0"/>
            <stop offset="1" stop-color="#1488CA"/>
        </linearGradient>
    </defs>
</svg>
