<svg width="32" height="32" viewBox="0 0 32 32" fill="none" xmlns="http://www.w3.org/2000/svg">
    <path d="M16 32C24.8366 32 32 24.8366 32 16C32 7.16344 24.8366 0 16 0C7.16344 0 0 7.16344 0 16C0 24.8366 7.16344 32 16 32Z" fill="#5546FF"/>
    <path d="M22.5282 24.4305L19.0839 19.0238H24.0301V16.9812H7.80981V19.0238H12.756L9.31169 24.4305H11.8749L15.92 18.0826L19.965 24.4305H22.5282ZM24.0301 14.9987V12.9562H19.184L22.5883 7.6095H20.0051L15.92 14.0576L11.8348 7.6095H9.25162L12.6559 12.9562H7.80981V15.0188L24.0301 14.9987Z" fill="white"/>
</svg>
