<svg width="32" height="32" viewBox="0 0 32 32" fill="none" xmlns="http://www.w3.org/2000/svg">
    <g clip-path="url(#clip0_1185_178)">
        <path fill-rule="evenodd" clip-rule="evenodd" d="M0 16C4.89564e-09 19.1645 0.938361 22.2579 2.69642 24.889C4.45449 27.5202 6.95329 29.571 9.87686 30.782C12.8004 31.993 16.0174 32.3099 19.1211 31.6926C22.2248 31.0753 25.0757 29.5516 27.3134 27.314C29.5511 25.0765 31.075 22.2256 31.6925 19.122C32.3099 16.0184 31.9932 12.8013 30.7823 9.87768C29.5715 6.95405 27.5208 4.45513 24.8898 2.69692C22.2587 0.938709 19.1654 0.000176048 16.0009 2.47554e-08C13.8997 -0.000116856 11.819 0.413649 9.87768 1.21767C7.93637 2.02169 6.17244 3.20023 4.68661 4.68598C3.20077 6.17173 2.02214 7.93559 1.21801 9.87686C0.413882 11.8181 -3.25074e-09 13.8988 0 16" fill="#EF4138"/>
        <path fill-rule="evenodd" clip-rule="evenodd" d="M16.1334 5.31376L10.9707 9.2062C10.9164 9.24451 10.8795 9.30283 10.8682 9.36834C10.8568 9.43385 10.872 9.50118 10.9103 9.55551C10.9486 9.60984 11.0069 9.64672 11.0725 9.65805C11.138 9.66938 11.2053 9.65422 11.2596 9.61591L11.2703 9.60798L16.2854 5.8302L23.5298 11.2889H20.3663L15.1849 7.38487C15.1315 7.34547 15.0647 7.32884 14.999 7.33861C14.9334 7.34839 14.8743 7.38378 14.8346 7.43703C14.795 7.49029 14.7781 7.55707 14.7876 7.62276C14.7971 7.68845 14.8323 7.7477 14.8854 7.78754V7.78754L20.1316 11.7404C20.1747 11.7735 20.2275 11.7917 20.2818 11.792H24.28C24.3324 11.7913 24.3832 11.7743 24.4254 11.7434C24.4677 11.7124 24.4992 11.6691 24.5156 11.6194C24.5321 11.5697 24.5326 11.5161 24.5171 11.4661C24.5017 11.4161 24.471 11.3722 24.4294 11.3404L16.4347 5.31376C16.3915 5.28102 16.3387 5.26331 16.2845 5.26331C16.2303 5.26331 16.1775 5.28102 16.1343 5.31376H16.1334Z" fill="white"/>
        <path fill-rule="evenodd" clip-rule="evenodd" d="M9.24441 10.5094L8.13864 11.3396C8.10816 11.3634 8.0835 11.3938 8.06655 11.4285C8.04959 11.4633 8.04077 11.5014 8.04077 11.54C8.04077 11.5787 8.04959 11.6168 8.06655 11.6516C8.0835 11.6863 8.10816 11.7167 8.13864 11.7405L23.864 23.5938L20.2826 26.2925L19.2782 25.5352C19.2256 25.4953 19.1593 25.4779 19.0939 25.4868C19.0285 25.4958 18.9694 25.5304 18.9295 25.5829L18.928 25.5849C18.8884 25.6381 18.8713 25.7048 18.8804 25.7705C18.8896 25.8362 18.9242 25.8957 18.9769 25.9361L20.1324 26.8072C20.1754 26.8401 20.228 26.858 20.2822 26.858C20.3363 26.858 20.389 26.8401 20.432 26.8072L24.4302 23.7938C24.4614 23.7707 24.4868 23.7405 24.5043 23.7058C24.5218 23.6711 24.5309 23.6327 24.5309 23.5938C24.5309 23.5549 24.5218 23.5166 24.5043 23.4819C24.4868 23.4471 24.4614 23.417 24.4302 23.3938L8.70664 11.5405L9.54308 10.9094C9.56941 10.8896 9.59158 10.8649 9.60834 10.8365C9.62509 10.8082 9.6361 10.7768 9.64074 10.7442C9.64537 10.7116 9.64354 10.6784 9.63535 10.6465C9.62716 10.6147 9.61276 10.5847 9.59299 10.5584V10.5584L9.59288 10.5582C9.56979 10.5271 9.53979 10.5018 9.50524 10.4842C9.47069 10.4666 9.43253 10.4573 9.39377 10.4569C9.33963 10.457 9.28707 10.4751 9.24443 10.5085L9.24441 10.5094Z" fill="white"/>
        <path fill-rule="evenodd" clip-rule="evenodd" d="M8.2906 20.3289C8.23785 20.3288 8.1864 20.3453 8.14351 20.376C8.10063 20.4068 8.06848 20.4502 8.05159 20.5002C8.0347 20.5502 8.03393 20.6042 8.04938 20.6546C8.06483 20.7051 8.09573 20.7494 8.13771 20.7813L16.1342 26.808C16.1775 26.8401 16.23 26.8574 16.2839 26.8574C16.3379 26.8574 16.3904 26.8401 16.4337 26.808L21.5884 22.9227C21.6415 22.8823 21.6765 22.8225 21.6857 22.7563C21.6949 22.6902 21.6774 22.6231 21.6373 22.5698C21.5978 22.5169 21.5389 22.4818 21.4736 22.4724C21.4083 22.4629 21.3418 22.4797 21.289 22.5192V22.5192L21.288 22.52L16.2835 26.2924L9.03993 20.832H12.2053L17.3253 24.6924C17.3787 24.7301 17.4447 24.7455 17.5092 24.7353C17.5738 24.725 17.6318 24.6899 17.6708 24.6375C17.7099 24.5851 17.727 24.5195 17.7184 24.4547C17.7098 24.3899 17.6762 24.3311 17.6248 24.2907L12.4373 20.3804C12.3947 20.3462 12.3416 20.328 12.287 20.3289H8.2906Z" fill="white"/>
        <path fill-rule="evenodd" clip-rule="evenodd" d="M12.1368 5.31379L8.14033 8.32712C8.1094 8.35049 8.08431 8.38071 8.06704 8.41541C8.04976 8.45012 8.04077 8.48835 8.04077 8.52712C8.04077 8.56588 8.04976 8.60412 8.06704 8.63882C8.08431 8.67352 8.1094 8.70375 8.14033 8.72712L23.863 20.5804L22.9741 21.2507C22.9212 21.2911 22.8864 21.3507 22.8772 21.4166C22.8681 21.4825 22.8853 21.5494 22.9252 21.6027C22.9643 21.6553 23.0226 21.6903 23.0875 21.6999C23.1523 21.7095 23.2183 21.6929 23.2709 21.6538L23.2728 21.6524L24.4292 20.7813C24.4602 20.7578 24.4853 20.7274 24.5025 20.6926C24.5198 20.6577 24.5288 20.6193 24.5288 20.5805C24.5288 20.5416 24.5198 20.5032 24.5025 20.4684C24.4853 20.4335 24.4602 20.4031 24.4292 20.3796L8.70656 8.52712L12.2861 5.82934L13.3866 6.6569C13.4399 6.69054 13.5039 6.70288 13.5658 6.69144C13.6278 6.68001 13.6832 6.64564 13.721 6.59519C13.7588 6.54474 13.7762 6.48192 13.7697 6.41922C13.7632 6.35653 13.7334 6.29857 13.6861 6.2569L12.4354 5.31379C12.3923 5.28126 12.3397 5.26367 12.2857 5.26367C12.2316 5.26367 12.179 5.28126 12.1359 5.31379H12.1368Z" fill="white"/>
    </g>
    <defs>
        <clipPath id="clip0_1185_178">
            <rect width="32" height="32" fill="white"/>
        </clipPath>
    </defs>
</svg>
