<svg width="32" height="32" viewBox="0 0 32 32" fill="none" xmlns="http://www.w3.org/2000/svg">
    <path d="M16 32C24.8366 32 32 24.8366 32 16C32 7.16344 24.8366 0 16 0C7.16344 0 0 7.16344 0 16C0 24.8366 7.16344 32 16 32Z" fill="url(#paint0_linear)"/>
    <path d="M16.0633 4.6768V0.00160711C16.0421 0.00151822 16.0212 0 15.9999 0C15.7519 0 15.5057 0.00753067 15.2605 0.0186844V4.69646C15.4882 4.68288 15.7172 4.67389 15.9483 4.67389C15.9868 4.67389 16.0248 4.67641 16.0633 4.6768Z" fill="white"/>
    <path d="M14.4119 0.0789795C14.1423 0.105566 13.8747 0.138761 13.6091 0.178567V4.91576C13.8733 4.86055 14.1414 4.81661 14.4119 4.78006V0.0789795Z" fill="white"/>
    <path d="M18.231 0.158236C17.9654 0.121171 17.6978 0.0907031 17.4282 0.0668335V4.77289C17.6986 4.80802 17.9669 4.84945 18.231 4.90322V0.158236Z" fill="white"/>
    <path d="M12.687 5.09446V0.345459C12.4168 0.402381 12.1492 0.466212 11.8843 0.536951V3.49619L10.5255 0.961793C10.2716 1.05424 10.0207 1.15267 9.77271 1.2571L11.9318 5.28423L12.687 5.09446Z" fill="white"/>
    <path d="M21.9671 1.1545C21.717 1.05388 21.4638 0.959546 21.2077 0.871518L19.9112 3.28977V0.483521C19.6462 0.416914 19.3786 0.357181 19.1084 0.304321V4.88804L19.8636 5.07779L21.9671 1.1545Z" fill="white"/>
    <path d="M15.8333 27.4265V31.9958C15.889 31.9963 15.944 32 15.9999 32C16.2133 32 16.4247 31.9922 16.636 31.9839V27.4069C16.4083 27.4204 16.1794 27.4294 15.9483 27.4294C15.9097 27.4294 15.8718 27.4269 15.8333 27.4265Z" fill="white"/>
    <path d="M17.4851 31.9289C17.7547 31.9041 18.0223 31.8726 18.2879 31.8346V27.1876C18.0237 27.2428 17.7556 27.2867 17.4851 27.3233V31.9289Z" fill="white"/>
    <path d="M13.6655 31.8287C13.9311 31.8675 14.1987 31.8997 14.4683 31.9254V27.3305C14.1979 27.2954 13.9296 27.2539 13.6655 27.2001V31.8287Z" fill="white"/>
    <path d="M19.3147 28.4903V31.6541C19.585 31.5971 19.8526 31.5333 20.1175 31.4625V30.0885L20.7568 31.2809C21.0166 31.2002 21.2734 31.1128 21.5272 31.0189L20.0699 28.3007L19.3147 28.4903Z" fill="white"/>
    <path d="M10.5205 31.0365C10.7749 31.1292 11.0324 31.2154 11.2928 31.295L11.8844 30.1916V31.463C12.1494 31.5334 12.417 31.5972 12.6872 31.6545V28.5934L11.932 28.4038L10.5205 31.0365Z" fill="white"/>
    <path d="M0.0153809 16.6077C0.0254502 16.877 0.0421459 17.1446 0.065468 17.4104H4.65418C4.62259 17.1453 4.59767 16.8781 4.58467 16.6077H0.0153809Z" fill="white"/>
    <path d="M0.161865 18.2594C0.200028 18.5292 0.244776 18.7968 0.296109 19.0622H4.97625C4.90394 18.7981 4.83992 18.5308 4.78656 18.2594H0.161865Z" fill="white"/>
    <path d="M0.0769938 14.4398C0.0512563 14.7055 0.0320207 14.9731 0.0192871 15.2425H4.60256C4.62157 14.9723 4.64896 14.7044 4.6865 14.4398H0.0769938Z" fill="white"/>
    <path d="M4.06213 20.0372H0.514648C0.584981 20.3078 0.663107 20.5751 0.747072 20.8399H2.46387L1.01612 21.6162C1.11089 21.8689 1.21192 22.1184 1.31921 22.3648L4.25189 20.7924L4.06213 20.0372Z" fill="white"/>
    <path d="M0.849934 10.856C0.762522 11.1135 0.681598 11.3738 0.607161 11.637L3.18641 13.0198H0.28138C0.23136 13.2852 0.188023 13.5528 0.151367 13.8226H4.78467L4.81266 13.7112C4.85828 13.4931 4.91158 13.278 4.96946 13.0648L0.849934 10.856Z" fill="white"/>
    <path d="M27.2961 16.8375H31.9781C31.9919 16.5716 31.9989 16.304 31.9992 16.0347H27.3257L27.3262 16.0517C27.3262 16.3161 27.3139 16.5776 27.2961 16.8375Z" fill="white"/>
    <path d="M31.9794 15.186C31.9658 14.9165 31.9457 14.6489 31.9188 14.3832H27.2031C27.242 14.6477 27.2696 14.9158 27.2899 15.186H31.9794Z" fill="white"/>
    <path d="M31.7142 19.0052C31.7646 18.7399 31.8084 18.4723 31.8455 18.2025H27.1205C27.0686 18.4736 27.0073 18.7412 26.9368 19.0052H31.7142Z" fill="white"/>
    <path d="M27.4581 13.4097H31.7881C31.7442 13.1397 31.6934 12.8721 31.6359 12.6069H29.0563L31.323 11.3917C31.2446 11.1305 31.1599 10.8722 31.069 10.6168L27.2683 12.6545L27.4581 13.4097Z" fill="white"/>
    <path d="M27.6812 20.6892L30.7052 22.3106C30.8113 22.0636 30.9114 21.8136 31.0056 21.5606L29.4692 20.7368H31.2866C31.3685 20.4722 31.4433 20.2046 31.5111 19.934H27.8709L27.6812 20.6892Z" fill="white"/>
    <path d="M4.94653 27.5617C5.14024 27.7469 5.3385 27.9273 5.5413 28.1027L8.76804 24.876C8.55986 24.7064 8.35888 24.5286 8.16333 24.345L4.94653 27.5617Z" fill="white"/>
    <path d="M6.20068 28.6435C6.41435 28.8094 6.63217 28.9699 6.85413 29.1251L10.1428 25.8364C9.90707 25.6962 9.67715 25.5478 9.45305 25.3911L6.20068 28.6435Z" fill="white"/>
    <path d="M3.48267 25.9601C3.65016 26.1703 3.82265 26.3761 4.00013 26.5776L7.22436 23.3534C7.05124 23.1468 6.8858 22.9338 6.72804 22.7146L3.48267 25.9601Z" fill="white"/>
    <path d="M10.3044 27.4837L7.95801 29.8301C8.19863 29.9703 8.44318 30.1043 8.69165 30.2319L9.74188 29.1816L9.33075 30.5432C9.57509 30.6554 9.82264 30.7615 10.0734 30.8615L10.9726 27.8837L10.3044 27.4837Z" fill="white"/>
    <path d="M4.87354 21.8878L1.5564 22.8895C1.67382 23.1352 1.79701 23.3776 1.92595 23.6165L3.57545 23.1184L2.34794 24.3459C2.49109 24.5796 2.64024 24.809 2.7954 25.0342L5.27338 22.5562L4.87354 21.8878Z" fill="white"/>
    <path d="M27.7205 5.11305C27.5383 4.91691 27.3511 4.72556 27.1592 4.539L23.8391 7.85906C24.0319 8.04482 24.2196 8.23575 24.399 8.4346L27.7205 5.11305Z" fill="white"/>
    <path d="M26.5348 3.9631C26.3327 3.78603 26.1261 3.61413 25.9151 3.44739L22.5645 6.79806C22.7842 6.95546 22.9996 7.1184 23.2073 7.29066L26.5348 3.9631Z" fill="white"/>
    <path d="M29.0919 6.80741C28.936 6.58591 28.7748 6.36867 28.6082 6.1557L25.2544 9.50945C25.4117 9.73274 25.5627 9.96065 25.7039 10.1954L29.0919 6.80741Z" fill="white"/>
    <path d="M21.8333 6.20241L25.1547 2.88112C24.931 2.72476 24.7033 2.57394 24.4717 2.42865L22.3958 4.50451L23.2336 1.72991C22.9926 1.60747 22.7482 1.49102 22.5004 1.38055L21.165 5.8026L21.8333 6.20241Z" fill="white"/>
    <path d="M26.9547 11.3858L30.9082 10.1919C30.8102 9.94056 30.7061 9.6924 30.596 9.44746L28.2528 10.155L30.0563 8.35148C29.9235 8.10801 29.7837 7.8691 29.6389 7.63348L26.5549 10.7175L26.9547 11.3858Z" fill="white"/>
    <path d="M26.8339 27.7712C27.0309 27.5897 27.2231 27.4034 27.4106 27.2121L24.1409 23.9425C23.9551 24.1354 23.7641 24.3231 23.5652 24.5026L26.8339 27.7712Z" fill="white"/>
    <path d="M27.9889 26.5902C28.1668 26.3889 28.3396 26.1831 28.5072 25.9728L25.202 22.6676C25.0446 22.8874 24.8815 23.1029 24.7092 23.3106L27.9889 26.5902Z" fill="white"/>
    <path d="M25.1323 29.1348C25.3547 28.9799 25.5728 28.8194 25.7867 28.6535L22.4908 25.3576C22.2674 25.5149 22.0395 25.666 21.8047 25.8073L25.1323 29.1348Z" fill="white"/>
    <path d="M26.7612 22.5562L29.2189 25.0139C29.3732 24.7881 29.5221 24.5583 29.6655 24.3247L28.4591 23.1184L30.0786 23.6075C30.2078 23.3688 30.3308 23.1264 30.4477 22.8803L27.1611 21.8878L26.7612 22.5562Z" fill="white"/>
    <path d="M21.2683 27.7806L22.1697 30.7656C22.4192 30.6612 22.6655 30.551 22.9086 30.4349L22.499 29.0788L23.5356 30.1154C23.7809 29.9842 24.0225 29.8472 24.2604 29.7044L21.9365 27.3806L21.2683 27.7806Z" fill="white"/>
    <path d="M4.38771 4.99939C4.20336 5.19392 4.02391 5.39294 3.84937 5.59646L7.12406 8.87109C7.29361 8.66299 7.47135 8.46206 7.65494 8.26655L4.38771 4.99939Z" fill="white"/>
    <path d="M3.311 6.25842C3.14598 6.47307 2.98625 6.69181 2.83179 6.91463L6.16348 10.2462C6.3037 10.0105 6.45219 9.78048 6.60895 9.55629L3.311 6.25842Z" fill="white"/>
    <path d="M5.98222 3.52814C5.7728 3.69656 5.56771 3.86994 5.36694 4.04828L8.64659 7.32786C8.85325 7.15468 9.06623 6.98918 9.28554 6.83137L5.98222 3.52814Z" fill="white"/>
    <path d="M2.29556 7.73956C2.15218 7.97691 2.01521 8.21841 1.88465 8.46406L4.09161 10.671L1.24211 9.81063C1.1384 10.0576 1.04093 10.3078 0.949707 10.5611L5.35845 11.8923C5.45989 11.6343 5.5677 11.3795 5.68706 11.1311L2.29556 7.73956Z" fill="white"/>
    <path d="M9.44782 1.40393C9.20021 1.51526 8.95606 1.63261 8.71536 1.75599L9.63889 4.8142L7.36068 2.53609C7.13121 2.68364 6.90584 2.83675 6.68457 2.99542L10.0253 6.33603C10.2788 6.1811 10.5403 6.03811 10.8064 5.903L9.44782 1.40393Z" fill="white"/>
    <path d="M27.3261 16.0517L27.3257 16.0347C27.3253 15.7489 27.3112 15.4665 27.29 15.186C27.2697 14.9158 27.2421 14.6477 27.2032 14.3832C26.9858 12.9017 26.4761 11.4782 25.7039 10.1954C25.5627 9.96065 25.4117 9.73274 25.2544 9.50946C24.9911 9.13435 24.7055 8.77542 24.399 8.43461C24.2197 8.23576 24.032 8.04483 23.8392 7.85907C23.6351 7.6625 23.4255 7.47172 23.2072 7.29069C22.9995 7.11842 22.7841 6.95549 22.5644 6.79809C21.2695 5.8683 19.7928 5.22257 18.2311 4.90321C17.967 4.84943 17.6986 4.808 17.4283 4.77287C16.9756 4.7137 16.5198 4.68162 16.0633 4.6768C16.0249 4.67641 15.9869 4.67389 15.9484 4.67389C15.7172 4.67389 15.4883 4.68287 15.2606 4.69646C14.9745 4.71353 14.6918 4.74223 14.4118 4.78005C14.1413 4.8166 13.8732 4.86055 13.609 4.91575C12.6354 5.11994 11.693 5.4519 10.8064 5.90301C10.5403 6.03812 10.2788 6.18112 10.0252 6.33604C9.77147 6.49107 9.52564 6.65753 9.28549 6.83138C9.06674 6.98973 8.85376 7.15523 8.64654 7.32786C8.29764 7.62074 7.96654 7.93418 7.655 8.26653C7.47141 8.46204 7.29367 8.66297 7.12412 8.87107C6.94373 9.09248 6.77202 9.32088 6.60897 9.55626C6.45261 9.78066 6.30412 10.0106 6.16351 10.2462C5.99265 10.5336 5.8326 10.8281 5.68706 11.131C5.5677 11.3795 5.45989 11.6343 5.35846 11.8923C5.20748 12.2757 5.07763 12.6671 4.96948 13.0647C4.91158 13.278 4.85828 13.4931 4.81268 13.7112C4.76248 13.9512 4.72112 14.1944 4.68631 14.4398C4.64877 14.7044 4.62138 14.9723 4.60237 15.2425C4.58356 15.5101 4.57056 15.7793 4.57056 16.0517C4.57056 16.2381 4.57574 16.4234 4.58462 16.6076C4.59762 16.8781 4.62253 17.1452 4.65413 17.4104C4.6882 17.6967 4.73154 17.98 4.78649 18.2594C4.83985 18.5307 4.90387 18.7981 4.97618 19.0621C5.33596 20.375 5.92942 21.6123 6.72811 22.7146C6.88642 22.9333 7.05185 23.1462 7.22442 23.3533C7.51732 23.7023 7.8308 24.0334 8.16318 24.345C8.35873 24.5286 8.55971 24.7064 8.76789 24.876C8.98927 25.0564 9.21764 25.2281 9.45302 25.3911C9.67735 25.5474 9.90726 25.6958 10.1428 25.8364C11.2322 26.4854 12.4231 26.9464 13.6656 27.2001C13.9297 27.2539 14.198 27.2954 14.4684 27.3305C14.921 27.3897 15.3768 27.4217 15.8333 27.4266C15.8718 27.4269 15.9098 27.4295 15.9484 27.4295C16.1795 27.4295 16.4084 27.4205 16.6361 27.4069C16.9222 27.3898 17.205 27.3611 17.4851 27.3233C17.7556 27.2867 18.0237 27.2428 18.2878 27.1876C19.5292 26.928 20.7181 26.4614 21.8046 25.8073C22.0394 25.6661 22.2674 25.515 22.4908 25.3577C22.8657 25.0944 23.2245 24.8089 23.5652 24.5026C23.7641 24.3232 23.9551 24.1354 24.1409 23.9425C24.3375 23.7385 24.5282 23.5289 24.7092 23.3107C24.8816 23.1029 25.0446 22.8874 25.202 22.6676C25.9957 21.5611 26.5834 20.3204 26.9367 19.0052C27.0074 18.7413 27.0687 18.4737 27.1204 18.2025C27.2064 17.7514 27.2651 17.2956 27.2961 16.8375C27.3138 16.5776 27.3261 16.3161 27.3261 16.0517Z" fill="white"/>
    <path d="M15.9483 27.4294C22.2321 27.4294 27.3261 22.3354 27.3261 16.0517C27.3261 9.76789 22.2321 4.67389 15.9483 4.67389C9.66456 4.67389 4.57056 9.76789 4.57056 16.0517C4.57056 22.3354 9.66456 27.4294 15.9483 27.4294Z" fill="white"/>
    <path d="M16.5677 16.258H15.1226L16.4762 5.38053C16.3013 5.37203 16.1254 5.36719 15.9484 5.36719C13.1147 5.36719 10.397 6.49287 8.39332 8.49659C6.3896 10.5003 5.26392 13.2179 5.26392 16.0516C5.26392 18.8853 6.3896 21.603 8.39332 23.6067C10.397 25.6104 13.1147 26.7361 15.9484 26.7361C15.9698 26.7361 15.991 26.7346 16.0124 26.7344L16.5677 16.258Z" fill="#F8BA3A"/>
    <path d="M5.83711 14.5978C6.08575 16.6229 7.40309 18.7297 9.42755 18.4811C16.2985 17.6375 15.3331 13.2222 15.2406 11.7922C15.7378 15.8422 18.8138 17.3287 23.967 16.6959C25.5007 16.5076 26.129 13.5101 25.9592 12.1272C25.7469 10.3985 21.17 10.1458 15.4647 10.8463C9.75935 11.5468 5.52632 12.0666 5.83711 14.5978Z" fill="#01C1AE"/>
    <path d="M9.10909 19.1319C8.59781 19.1221 8.09541 18.9965 7.63975 18.7644C7.18409 18.5323 6.78704 18.1998 6.47853 17.792C5.77789 16.889 5.33941 15.8105 5.21117 14.6748C4.93668 12.4411 7.39971 11.6821 8.20909 11.4328C9.9952 10.8823 12.4942 10.5755 15.3877 10.2203C20.3195 9.61474 26.265 9.44095 26.5853 12.0503C26.6685 13.0716 26.5365 14.0989 26.198 15.066C25.7336 16.4073 24.9685 17.2087 24.044 17.3219C21.3016 17.6587 19.1199 17.4003 17.5575 16.5549C16.8412 16.174 16.2215 15.6341 15.7461 14.9767C15.2515 16.7309 13.7438 18.5868 9.50458 19.1073C9.37336 19.1234 9.24129 19.1316 9.10909 19.1319V19.1319ZM14.6452 11.5829C12.1924 11.8873 10.0801 12.1763 8.58062 12.6385C6.31777 13.3357 6.41985 14.1663 6.46326 14.521C6.56093 15.42 6.9038 16.2749 7.4544 16.9923C7.66513 17.2919 7.95197 17.5298 8.28533 17.6814C8.61869 17.8331 8.98648 17.8931 9.35076 17.8552C15.1119 17.1475 14.807 13.9352 14.6433 12.2095C14.6299 12.0691 14.6181 11.9427 14.611 11.8329C14.6054 11.7482 14.617 11.6631 14.6452 11.5829ZM15.7674 11.4451C15.8209 11.5263 15.8549 11.6187 15.8666 11.7152C16.087 13.5097 16.8365 14.7298 18.1582 15.4453C19.485 16.1639 21.4133 16.3732 23.8902 16.0698C24.299 16.0194 24.716 15.4899 25.006 14.6531C25.2801 13.8674 25.3915 13.0342 25.3332 12.2041C25.2435 11.4755 22.5645 10.6354 15.7674 11.4451Z" fill="#01C1AE"/>
    <path d="M20.4128 18.6608C20.4065 18.585 20.3705 18.5148 20.3126 18.4656C20.2546 18.4164 20.1795 18.3922 20.1037 18.3983L11.4348 19.1056C11.359 19.1118 11.2888 19.1478 11.2396 19.2058C11.1904 19.2637 11.1662 19.3388 11.1723 19.4146C11.2216 19.9841 11.3903 20.5369 11.6674 21.0369C11.9445 21.537 12.3238 21.973 12.7806 22.3167C13.6241 22.963 14.6587 23.3101 15.7213 23.3031C15.86 23.3031 15.9993 23.2974 16.1392 23.2861C17.3422 23.1984 18.4686 22.6628 19.2961 21.7851C19.6912 21.3719 19.9948 20.8801 20.1872 20.3418C20.3796 19.8035 20.4564 19.2307 20.4128 18.6608V18.6608Z" fill="#FE9A54"/>
    <path d="M19.5321 20.4156H17.2386C17.178 20.416 17.1199 20.4403 17.0771 20.4833C17.0344 20.5263 17.0104 20.5845 17.0104 20.6451C17.0104 20.7058 17.0344 20.764 17.0771 20.807C17.1199 20.85 17.178 20.8743 17.2386 20.8746H19.2814C19.1613 21.0592 19.0256 21.2331 18.8758 21.3944C18.1397 22.1589 17.15 22.6283 16.0923 22.7146C15.0347 22.8009 13.9819 22.4982 13.1317 21.8632C12.4166 21.3248 11.9331 20.5345 11.7791 19.6528L19.8523 18.9941C19.8494 19.4855 19.7402 19.9704 19.5321 20.4156V20.4156Z" fill="white"/>
    <path d="M22.3177 16.4614C21.0181 16.4666 19.7276 16.2456 18.5038 15.8083C16.6364 15.1029 15.8685 13.2356 15.7234 12.3469C15.7223 11.1083 17.1666 10.9739 20.2322 10.9739C23.785 10.9739 25.3649 11.3154 25.5151 12.1158C25.6704 13.5653 25.1538 15.7863 24.393 16.1666C23.7263 16.3963 23.0219 16.4963 22.3177 16.4614V16.4614Z" fill="black"/>
    <path d="M9.23539 17.9549C8.91254 17.9669 8.59012 17.9215 8.28313 17.8208C7.56699 17.5309 6.38313 15.9114 6.27757 14.3533C6.25658 14.2342 6.26072 14.112 6.28976 13.9946C6.31879 13.8772 6.37206 13.7671 6.44615 13.6715C6.96681 12.9069 8.5616 12.1967 10.4149 11.904C11.4463 11.7087 12.4897 11.5834 13.538 11.5292C14.3656 11.5292 14.7958 11.7399 14.933 12.2125C15.406 13.8422 14.6364 15.7587 13.1029 16.7695C11.9505 17.5195 10.6103 17.9303 9.23554 17.9549L9.23539 17.9549Z" fill="black"/>
    <path d="M25.9613 7.43225L26.8674 9.88096L29.3161 10.7871L26.8674 11.6932L25.9613 14.1419L25.0552 11.6932L22.6064 10.7871L25.0552 9.88096L25.9613 7.43225Z" fill="white"/>
    <defs>
        <linearGradient id="paint0_linear" x1="16" y1="0" x2="16" y2="32" gradientUnits="userSpaceOnUse">
            <stop stop-color="#F5B745"/>
            <stop offset="1" stop-color="#FC8B47"/>
        </linearGradient>
    </defs>
</svg>
