<svg width="32" height="32" viewBox="0 0 32 32" fill="none" xmlns="http://www.w3.org/2000/svg">
    <path d="M16 32C24.8366 32 32 24.8366 32 16C32 7.16344 24.8366 0 16 0C7.16344 0 0 7.16344 0 16C0 24.8366 7.16344 32 16 32Z" fill="#7012FE"/>
    <path d="M17.2913 12.7647C18.6289 13.211 19.8964 13.8447 21.056 14.6471C21.5925 13.9526 21.9836 13.1571 22.2059 12.3082C22.4283 11.4592 22.4773 10.5742 22.3501 9.70587C21.0097 11.211 19.2467 12.277 17.2913 12.7647V12.7647Z" fill="white"/>
    <path d="M9.29128 27C10.4089 25.4118 11.9383 25.0588 14.5854 24.4118C15.6442 24.1765 16.7619 23.8824 18.1736 23.4706C21.4678 22.4706 22.2913 20.6471 22.5266 19.6471C22.6639 18.9932 22.6215 18.3143 22.404 17.6825C22.1865 17.0507 21.802 16.4896 21.2913 16.0588C19.056 14.2353 16.8795 13.4706 13.6442 12.8235L12.9972 12.6471L13.703 12.5882C17.6442 12.0588 20.4089 10.8235 21.8795 8.76471C22.6712 7.67142 23.0843 6.34954 23.056 5C22.1736 6.35294 20.4089 6.76471 17.6442 7.41176C16.5266 7.70588 15.2324 8 13.7619 8.47059C10.4677 9.41176 9.64422 11.2353 9.46775 12.2941C9.32943 12.9428 9.36543 13.6166 9.57208 14.2469C9.77873 14.8772 10.1487 15.4415 10.6442 15.8823C12.8795 17.7059 15.056 18.4118 18.2913 19.0588L18.9972 19.2353L18.2913 19.2941C16.4346 19.5421 14.6038 19.9555 12.8207 20.5294C10.9383 21.1765 9.76187 22 9.29128 22.9412C8.84496 24.2573 8.84496 25.6839 9.29128 27V27Z" fill="white"/>
</svg>
