<svg width="32" height="32" viewBox="0 0 32 32" fill="none" xmlns="http://www.w3.org/2000/svg">
<path d="M32 16C32 24.8366 24.8366 32 16 32C7.16344 32 0 24.8366 0 16C0 7.16344 7.16344 0 16 0C24.8366 0 32 7.16344 32 16Z" fill="white"/>
<path d="M21.8046 7.87239C16.352 3.9542 10.4641 2.82334 8.65368 5.3399C7.61838 6.784 4.56559 11.0261 3.53029 12.4702C1.72516 14.9867 4.67708 20.2057 10.1296 24.1239C15.5822 28.0421 21.4701 29.1782 23.2805 26.6617C24.3158 25.2176 27.3686 20.9755 28.4039 19.5314C30.2144 17.0095 27.2571 11.7906 21.8046 7.87239Z" fill="white"/>
<path d="M28.0323 15.8686C25.2821 15.0138 24.7884 17.0844 23.8009 18.3214C22.7762 19.6115 22.378 20.4079 21.0879 21.5972C19.7977 22.7864 18.1784 22.0962 17.4829 21.5972C16.7874 21.0981 16.4742 20.5035 14.9823 18.6877C13.4957 16.8667 11.8711 18.3586 11.1119 19.0169C10.3527 19.6806 9.27489 20.7371 8.51567 21.1671C8.20243 21.3423 7.88387 21.4167 7.62372 21.4379C4.21521 18.1356 2.55874 14.4828 3.94444 12.5503C4.93196 11.1752 7.8414 7.1296 8.82891 5.75451C10.5544 3.35475 16.3308 4.51747 21.5338 8.25515C24.799 10.5965 27.1563 13.4635 28.0323 15.8686Z" fill="url(#paint0_linear_1303_112)"/>
<path d="M27.9106 19.4464C26.9231 20.8215 24.0136 24.8724 23.0261 26.2475C21.3006 28.6473 15.6038 27.4846 10.4061 23.7469C9.39205 23.0142 8.45763 22.2338 7.62939 21.4321C7.88955 21.4108 8.20279 21.3418 8.52134 21.1613C9.28056 20.7313 10.3583 19.6747 11.1175 19.0111C11.8768 18.3474 13.5014 16.8608 14.988 18.6819C16.4745 20.503 16.7931 21.0976 17.4886 21.5913C18.1841 22.0904 19.8034 22.7806 21.0935 21.5913C22.3837 20.4021 22.7819 19.6057 23.8065 18.3156C24.7887 17.0785 25.2878 15.0079 28.038 15.8627C28.553 17.2909 28.553 18.5545 27.9106 19.4464Z" fill="#0E0F23"/>
<path d="M22.42 20.5138C22.1652 20.4554 21.8997 20.3916 21.6343 20.312" stroke="white" stroke-width="0.5" stroke-miterlimit="10" stroke-linecap="round"/>
<path d="M25.5851 20.6515C24.8524 20.8002 23.9764 20.7896 22.9995 20.625" stroke="white" stroke-width="0.5" stroke-miterlimit="10" stroke-linecap="round"/>
<path d="M8.39391 8.53099C8.36737 8.3664 8.35144 8.20713 8.34082 8.04785" stroke="white" stroke-width="0.5" stroke-miterlimit="10" stroke-linecap="round"/>
<path d="M12.1945 14.5883C10.2832 12.7089 8.9771 10.7498 8.52051 9.09863" stroke="white" stroke-width="0.5" stroke-miterlimit="10" stroke-linecap="round"/>
<path d="M21.067 8.88649C16.1348 5.3718 10.953 4.18785 9.49296 6.2372C8.03293 8.28655 10.8415 12.7994 15.7738 16.3141C20.706 19.8288 25.8878 21.0127 27.3478 18.9634C28.8132 16.914 25.9993 12.4012 21.067 8.88649ZM22.8562 15.7619C22.166 16.7282 19.6229 16.0964 17.1701 14.3444C14.7172 12.5976 13.289 10.3996 13.9792 9.43334C14.6694 8.46707 17.2125 9.09886 19.6654 10.8509C22.1183 12.5976 23.5464 14.8009 22.8562 15.7619Z" fill="white"/>
<defs>
<linearGradient id="paint0_linear_1303_112" x1="18.374" y1="22.5028" x2="11.8636" y2="5.10773" gradientUnits="userSpaceOnUse">
<stop offset="0.244" stop-color="#FC51A1"/>
<stop offset="1" stop-color="#1AB0ED"/>
</linearGradient>
</defs>
</svg>
