<svg width="32" height="32" viewBox="0 0 32 32" fill="none" xmlns="http://www.w3.org/2000/svg">
    <path d="M16 32C24.8366 32 32 24.8366 32 16C32 7.16344 24.8366 0 16 0C7.16344 0 0 7.16344 0 16C0 24.8366 7.16344 32 16 32Z" fill="#202427"/>
    <path d="M19.7706 11.0898C19.9662 11.4528 19.9826 11.9348 20.3292 12.2046C20.5029 12.224 20.6788 12.2085 20.8465 12.1592C20.8696 12.2805 20.8927 12.4009 20.9174 12.5222C21.3464 12.3221 21.7308 12.0378 22.0478 11.6864C22.2871 11.3695 22.575 10.9636 22.4026 10.5494C22.205 10.0123 21.9319 9.50612 21.5916 9.04606C21.368 8.77214 21.1568 8.48912 20.9472 8.20451C20.8882 8.13976 20.843 8.06378 20.814 7.98112C20.7851 7.89846 20.7732 7.81082 20.7789 7.72343C20.8787 7.40743 21.2236 7.21354 21.2649 6.87278C21.3003 6.23668 21.8589 5.78947 21.9604 5.17149C21.8803 5.11308 21.7962 5.06042 21.7087 5.0139C21.7294 4.83482 21.8259 4.63432 21.7145 4.46684C21.6552 4.42507 21.5866 4.39862 21.5146 4.38984C21.4426 4.38107 21.3696 4.39025 21.302 4.41655C20.9455 4.51884 20.6205 4.7028 20.2665 4.81175C20.5322 4.55845 20.8886 4.43962 21.1749 4.21519C20.8603 4.33773 20.5385 4.44079 20.2112 4.52379C20.5081 4.25104 20.8569 4.04086 21.2368 3.90579C21.1064 3.78115 20.9442 3.69463 20.7681 3.65565C20.5919 3.61666 20.4085 3.6267 20.2376 3.68466C19.8141 3.82517 19.4404 4.0854 19.1617 4.43387C18.6708 5.14524 18.2276 5.88835 17.835 6.65833C17.6666 6.94299 17.5552 7.297 17.25 7.46942C16.743 7.65564 16.2518 7.88245 15.7813 8.14765C15.4074 8.36383 15.0186 8.55325 14.6179 8.71448C14.1314 8.97937 13.6854 9.31281 13.2937 9.70459C12.943 9.92334 12.6619 10.2376 12.4835 10.6105C12.2531 11.4547 12.3324 12.3535 12.7071 13.1444C12.927 13.9022 13.2735 14.6174 13.7318 15.2598C14.1721 15.7902 14.7084 16.2327 15.3127 16.5643C15.8431 16.9007 16.3943 17.2033 16.9629 17.4702C17.1643 17.5379 17.3497 17.6463 17.5074 17.7887C17.534 17.908 17.5346 18.0316 17.5089 18.1511C17.4833 18.2706 17.4321 18.3831 17.3589 18.481C16.9851 19.1272 16.4742 19.6837 15.8622 20.1113C15.0836 20.5694 14.2389 20.9045 13.3581 21.1047C13.2557 21.1089 13.1537 21.0914 13.0586 21.0536C13.0375 20.6723 13.04 20.2901 13.066 19.9092C12.8787 19.9504 12.693 19.9966 12.5041 20.0313C12.5619 19.745 12.8275 19.3993 12.575 19.1361C12.2797 18.8407 11.8308 18.8027 11.4893 18.5751C11.5033 18.4224 11.5189 18.2706 11.5305 18.118C11.2986 17.9249 11.0174 17.8003 10.7187 17.7582C10.3845 17.7698 10.2087 18.0982 10.0586 18.3515C9.74409 18.9397 9.54393 19.5823 9.46865 20.245C9.41409 20.9456 9.59153 21.6446 9.97359 22.2343C10.226 22.8492 10.5732 23.4207 11.0025 23.9282C11.1146 23.9995 11.2029 24.1025 11.2564 24.2242C11.3099 24.3458 11.326 24.4806 11.3028 24.6114C11.0359 25.3266 10.9001 26.084 10.9018 26.8474C10.9524 27.0874 11.0693 27.3084 11.2393 27.4852C11.3786 27.717 11.4896 27.9646 11.5701 28.2228C11.5852 28.2731 11.6165 28.3171 11.6592 28.3477C11.7019 28.3783 11.7536 28.3939 11.8061 28.3919C12.0755 28.3638 12.343 28.32 12.6073 28.2608C12.6527 28.3399 12.6989 28.42 12.7443 28.5H12.849C13.0267 28.2182 13.1444 27.9028 13.1947 27.5735C13.3193 27.1986 13.4727 26.8339 13.6535 26.4827C13.7624 26.2995 13.6667 26.0644 13.7987 25.8903C13.9049 25.6482 14.041 25.4203 14.2038 25.2121C14.4966 25.1017 14.8011 25.0253 15.1114 24.9843C16.6145 24.6001 18.0045 23.8637 19.1667 22.8358C19.5767 22.4596 19.9554 22.0495 20.3515 21.6584C20.3317 21.8119 20.3135 21.9662 20.3003 22.1222C20.498 21.9194 20.652 21.6782 20.7525 21.4134C20.6361 21.4744 20.5206 21.538 20.4043 21.5999C20.6823 21.1254 20.8972 20.6167 21.0437 20.0866C21.1259 19.7569 21.0916 19.4088 20.9464 19.1015C20.8223 18.8459 20.7274 18.5772 20.6634 18.3004C20.488 17.7548 20.224 17.2419 19.882 16.7822C19.4784 16.1554 18.9928 15.5855 18.4381 15.0875C17.6766 14.4489 16.7054 14.1452 15.9134 13.5561C16.3514 12.923 16.9337 12.4032 17.6122 12.0396C18.0179 11.8522 18.3989 11.6155 18.7467 11.3349C17.9664 11.6395 17.2352 12.0574 16.5767 12.5751C16.2731 12.7781 16.009 13.0322 15.7244 13.2591C15.7646 13.0423 15.8716 12.8435 16.0305 12.6906C16.6956 12.1109 17.4444 11.6349 18.2516 11.2788C18.5164 11.1449 18.7947 11.0393 19.0817 10.9636C19.0148 11.08 18.9447 11.1955 18.8762 11.3119C19.1749 11.245 19.4554 11.0487 19.7706 11.0898ZM14.7434 22.1311C15.2054 21.7722 15.7574 21.556 16.2508 21.245C16.5696 21.0285 16.9123 20.8497 17.2722 20.712C17.2318 20.9596 16.9983 21.0849 16.8217 21.2302C16.2133 21.6963 15.4995 22.0057 14.7434 22.1311V22.1311ZM17.3853 21.2499C17.2333 21.4979 17.018 21.701 16.7616 21.8382C16.5117 22.0128 16.2215 22.121 15.9183 22.1526C16.3444 21.7598 16.8426 21.4533 17.3853 21.2499V21.2499ZM18.7607 22.2829C18.4242 22.7975 17.9443 23.2023 17.3803 23.4471C17.0019 23.673 16.5818 23.82 16.1452 23.8794C16.1765 23.7747 16.1683 23.6336 16.2945 23.5923C16.8219 23.3403 17.3321 23.0536 17.8217 22.7342C18.0917 22.5071 18.4147 22.3519 18.7607 22.2829V22.2829ZM14.4752 10.2771C14.5674 10.1364 14.6897 10.018 14.8333 9.93058C15.538 9.47906 16.2793 9.08743 17.0495 8.75983C17.2502 8.6754 17.4663 8.63382 17.684 8.63776C17.6114 8.87042 17.3663 8.94714 17.1674 9.0387C16.4665 9.33515 15.7816 9.66813 15.1155 10.0363C14.9179 10.1537 14.7012 10.2352 14.4752 10.2772V10.2771ZM15.1352 10.4768C15.1966 10.3737 15.28 10.2855 15.3795 10.2186C15.9749 9.8377 16.5967 9.49967 17.24 9.20702C17.3872 9.1454 17.5437 9.10914 17.7029 9.09977C17.6385 9.30027 17.429 9.36711 17.2607 9.45536C16.7046 9.71855 16.1509 9.98753 15.6204 10.3003C15.4732 10.3932 15.3078 10.4534 15.1353 10.4768L15.1352 10.4768ZM18.8127 10.5189C18.0024 10.8688 17.2252 11.2895 16.4488 11.7079C16.1451 11.8572 15.8976 12.1361 15.5519 12.1848L15.5915 12.0264C16.2759 11.3974 17.065 10.8931 17.9232 10.5363C18.2734 10.3244 18.6748 10.2122 19.0841 10.212C19.09 10.377 18.9455 10.4645 18.8127 10.5189L18.8127 10.5189ZM19.424 23.0115C19.6882 22.7188 19.9672 22.4399 20.2598 22.1757C20.1158 22.5552 19.8644 22.8846 19.5362 23.1237C19.1661 23.4551 18.7532 23.7354 18.3085 23.957C18.0048 24.1662 17.6613 24.3108 17.2994 24.3819C18.0376 23.9733 18.7474 23.5155 19.4241 23.0115L19.424 23.0115ZM20.2598 22.1757C20.1158 22.5552 19.8644 22.8846 19.5362 23.1237C19.1661 23.4551 18.7532 23.7354 18.3085 23.957C18.0048 24.1662 17.6613 24.3108 17.2994 24.3819C18.0376 23.9733 18.7474 23.5154 19.424 23.0115C19.6882 22.7188 19.9672 22.4399 20.2599 22.1757L20.2598 22.1757Z" fill="white"/>
</svg>
