<svg width="32" height="32" viewBox="0 0 32 32" fill="none" xmlns="http://www.w3.org/2000/svg">
    <path d="M16 32C24.8366 32 32 24.8366 32 16C32 7.16344 24.8366 0 16 0C7.16344 0 0 7.16344 0 16C0 24.8366 7.16344 32 16 32Z" fill="#1B1B5B"/>
    <path d="M24.237 23.3877C23.6233 23.9173 22.9556 24.3808 22.2449 24.7706C22.3813 24.6623 21.9535 24.2116 22.0827 24.096C25.325 21.2764 26.0662 17.6469 24.7571 14.454C24.5805 14.023 24.9525 13.8504 24.9546 13.4551C27.9411 16.2772 27.6193 20.4469 24.237 23.3877Z" fill="#EBEAE6"/>
    <path d="M24.9545 13.4551C23.6349 12.2755 22.0454 11.4386 20.3261 11.0183L20.3004 11.0123L20.3281 11.0191C20.9834 11.1913 21.0344 11.9494 21.4855 12.3323C21.9271 12.7481 22.2742 13.2539 22.5035 13.8155C22.7327 14.377 22.8387 14.9813 22.8142 15.5873C22.9623 17.6497 22.9507 19.6903 21.4442 21.5071C20.6501 22.5052 19.6331 23.3032 18.4748 23.8371C18.3881 23.876 18.3015 23.915 18.2116 23.9515C18.1976 23.9551 18.1871 23.9619 18.173 23.9655C17.5611 24.2084 16.9266 24.3902 16.2788 24.5081C13.0519 24.9712 9.76066 24.6371 6.69263 23.535C8.15613 24.6719 9.8286 25.5104 11.6152 26.003C13.3984 26.49 15.2591 26.6267 17.0943 26.4055L17.1084 26.4019C17.3708 26.3738 17.6301 26.3353 17.8857 26.2899C18.8872 26.1156 19.8672 25.8351 20.8093 25.4531H20.8129C21.3032 25.2539 21.7813 25.026 22.2448 24.7705C22.3812 24.6622 22.5177 24.5498 22.6473 24.4342C26.327 21.2346 27.1605 16.8932 24.9545 13.4551Z" fill="white"/>
    <path d="M18.2112 23.9507C22.7829 22.0878 23.029 17.3675 17.7163 14.7104C13.8573 12.7797 15.5617 9.71487 20.3277 11.0187C25.6519 12.4173 24.0768 21.6885 18.2112 23.9507Z" fill="#D5D3CB"/>
    <path d="M25.3062 8.4672C20.2825 6.86957 16.385 7.0072 13.8278 8.03659C13.8153 8.04101 13.8025 8.04582 13.7901 8.05144C9.9884 9.60092 9.17775 13.1261 12.0684 15.7972C11.2487 15.2348 10.5634 14.4982 10.0614 13.6401C9.58597 12.5125 9.4361 11.2742 9.6288 10.0656C9.77477 9.26176 10.1062 8.50302 10.5968 7.84969C11.0874 7.19636 11.7236 6.66647 12.4549 6.30211C13.2312 5.94192 14.0584 5.70343 14.9073 5.59501C18.6172 5.13683 22.3573 6.16985 25.3062 8.4672V8.4672Z" fill="#EBEAE6"/>
    <path d="M12.9187 21.2382C12.5884 21.1315 12.2168 21.0805 11.9118 20.9577C8.03108 19.3974 5.95869 16.4943 6.03293 13.6301C6.14042 12.4961 6.48002 11.3964 7.03061 10.3993C7.58119 9.40214 8.331 8.52893 9.23342 7.8339C9.84674 7.35108 10.5 6.92132 11.1862 6.54929L11.191 6.54768C12.133 6.16548 13.1131 5.88484 14.1146 5.71054C14.3755 5.66559 14.6395 5.62733 14.9068 5.59576C14.6037 5.6405 14.3036 5.70376 14.0083 5.78519C8.98701 7.15046 8.68602 12.9944 12.0683 15.798L12.0715 15.7996C12.7352 16.3984 13.48 16.9006 14.284 17.2913C17.7842 19.0438 16.708 21.7282 12.9187 21.2382Z" fill="white"/>
    <path d="M12.9187 21.2382C12.4981 21.1826 12.0819 21.0977 11.6731 20.9842C4.23306 18.9511 3.14191 12.6324 7.76306 8.61408C8.78336 7.7428 9.94 7.04524 11.1867 6.54932C10.534 6.93435 9.917 7.37687 9.34301 7.87162C4.42251 12.1504 5.40252 18.8046 12.9187 21.2382Z" fill="#D5D3CB"/>
</svg>
