<svg width="32" height="32" viewBox="0 0 32 32" fill="none" xmlns="http://www.w3.org/2000/svg">
    <path d="M16 32C24.8366 32 32 24.8366 32 16C32 7.16344 24.8366 0 16 0C7.16344 0 0 7.16344 0 16C0 24.8366 7.16344 32 16 32Z" fill="#2862FF"/>
    <path d="M16.0001 1.61346C13.1547 1.61346 10.3732 2.45722 8.00734 4.03803C5.64149 5.61885 3.79753 7.86572 2.70864 10.4945C1.61976 13.1233 1.33486 16.016 1.88997 18.8067C2.44507 21.5974 3.81526 24.1608 5.82725 26.1728C7.83925 28.1848 10.4027 29.555 13.1934 30.1101C15.9841 30.6652 18.8768 30.3803 21.5056 29.2915C24.1344 28.2026 26.3812 26.3586 27.9621 23.9928C29.5429 21.6269 30.3866 18.8454 30.3866 16C30.3823 12.1858 28.8652 8.52902 26.1681 5.83195C23.4711 3.13488 19.8143 1.61778 16.0001 1.61346V1.61346ZM16.0001 29.3109C13.3674 29.3109 10.7939 28.5303 8.60493 27.0676C6.41596 25.605 4.70987 23.5261 3.7024 21.0939C2.69492 18.6616 2.43132 15.9852 2.94493 13.4032C3.45853 10.8211 4.72627 8.44934 6.58784 6.58777C8.44941 4.72621 10.8212 3.45846 13.4033 2.94486C15.9853 2.43126 18.6617 2.69486 21.094 3.70233C23.5262 4.7098 25.6051 6.41589 27.0677 8.60486C28.5303 10.7938 29.311 13.3674 29.311 16C29.307 19.5291 27.9033 22.9124 25.4079 25.4078C22.9125 27.9033 19.5291 29.3069 16.0001 29.3109V29.3109Z" fill="white"/>
    <path d="M22.9915 18.5098H20.3921V16H22.9915C23.3481 16 23.6901 15.8583 23.9423 15.6062C24.1944 15.354 24.3361 15.0121 24.3361 14.6555C24.3361 14.2989 24.1944 13.9569 23.9423 13.7047C23.6901 13.4526 23.3481 13.3109 22.9915 13.3109H20.3921V10.8011H23.7983V8.29132H9.45653V10.8011H12.6834V13.3109H11.4285C10.431 13.3138 9.47508 13.7114 8.7697 14.4168C8.06431 15.1222 7.66674 16.0781 7.66382 17.0756V17.4342C7.66674 18.4317 8.06431 19.3876 8.7697 20.093C9.47508 20.7984 10.431 21.196 11.4285 21.1989H12.6834V23.7087H15.1932V21.1989H17.8823V23.7087H20.3921V21.1989H22.9915C23.3481 21.1989 23.6901 21.0572 23.9423 20.8051C24.1944 20.5529 24.3361 20.2109 24.3361 19.8543C24.3361 19.4977 24.1944 19.1558 23.9423 18.9036C23.6901 18.6515 23.3481 18.5098 22.9915 18.5098V18.5098ZM12.6834 18.5098H11.4285C11.0957 18.5098 10.7765 18.3776 10.5412 18.1422C10.3058 17.9069 10.1736 17.5877 10.1736 17.2549C10.1736 16.9221 10.3058 16.6029 10.5412 16.3676C10.7765 16.1322 11.0957 16 11.4285 16H12.6834V18.5098ZM17.8823 18.5098H15.1932V16H17.8823V18.5098ZM17.8823 13.3109H15.1932V10.8011H17.8823V13.3109Z" fill="white"/>
</svg>
