<svg width="32" height="32" viewBox="0 0 32 32" fill="none" xmlns="http://www.w3.org/2000/svg">
    <path d="M16 32C24.8366 32 32 24.8366 32 16C32 7.16344 24.8366 0 16 0C7.16344 0 0 7.16344 0 16C0 24.8366 7.16344 32 16 32Z" fill="url(#paint0_linear)"/>
    <path d="M24.9 19.1C24.9 17.7 24.4 16.3 23.7 15.1C23.3 14.3 22.7 13.5 22.1 12.8C22 13.1 22 13.4 21.9 13.7C21.7 15 20.2 15.7 19 15.1C18.1 14.7 17.7 13.5 18.1 12.5C18.2 12.2 18.3 11.8 18.4 11.5C18.9 9.69998 18.7 7.89998 17.8 6.29998C17.3 5.49998 16.7 4.79998 16 4.19998C15.6 3.79998 15.2 3.49998 14.7 3.09998V3.69998C14.7 4.59998 14.8 5.39998 14.6 6.29998C14.4 7.39998 13.8 8.19998 13.1 9.09998C12.4 9.89998 11.6 10.7 10.9 11.5C10.2 12.3 9.5 13 8.8 13.9C7.9 15.1 7.3 16.5 7.1 18.1C7.1 18.3 7.1 18.5 7 18.7V19.1C7.1 19.5 7.1 19.8 7 20.2V20.4C7.1 20.7 7.1 21 7.2 21.2C7.3 21.4 7.3 21.7 7.4 21.9C7.8 23.4 8.7 24.6 9.7 25.7C11.4 27.4 13.5 28.6 15.8 29.1C15.9 29.1 15.9 29.1 15.9 29.2H16.5C16.8 28.5 17.2 27.9 17.8 27.5C18.6 26.8 19.6 26.4 20.6 26.1C22.3 25.4 23.5 24.3 24.3 22.7C24.8 21.3 25 20.3 24.9 19.1V19.1ZM20.8 20.3H17.9C17.6 20.3 17.6 20.4 17.6 20.6V23.5C17.6 23.7 17.6 23.7 17.4 23.7H14.5C14.3 23.7 14.3 23.6 14.3 23.4V20.6C14.3 20.4 14.3 20.3 14 20.3H11.2C11.1 20.3 11 20.3 10.9 20.2V17.2C10.9 17 11 16.9 11.2 16.9H20.8C21 16.9 21 16.9 21 17.1V20C21 20.3 20.9 20.3 20.8 20.3V20.3Z" fill="white"/>
    <path d="M21.7 11.8C21.9 11.9 22 11.9 22.1 11.7C22.2 11.4 22.4 11.2 22.6 11C23.2 10.6 23.4 9.99999 23.3 9.39999C23.1 8.19999 22.5 7.19999 21.7 6.29999C21.9 7.19999 21.5 7.79999 21 8.39999C20.7 8.79999 20.5 9.19999 20.5 9.59999C20.4 10.5 20.9 11.4 21.7 11.8V11.8Z" fill="white"/>
    <path d="M19.7999 16.9H20.7999C20.9999 16.9 20.9999 16.9 20.9999 17.1V20C20.9999 20.2 20.8999 20.2 20.7999 20.2H17.8999C17.5999 20.3 17.5999 20.4 17.5999 20.6V23.5C17.5999 23.7 17.5999 23.7 17.3999 23.7H14.4999C14.2999 23.7 14.2999 23.6 14.2999 23.4V20.6C14.2999 20.4 14.2999 20.3 13.9999 20.3H11.1999C11.0999 20.3 10.9999 20.3 10.8999 20.2V17.2C10.8999 17 10.9999 16.9 11.1999 16.9H19.4999C19.5999 17 19.6999 16.9 19.7999 16.9V16.9Z" fill="url(#paint1_linear)"/>
    <defs>
        <linearGradient id="paint0_linear" x1="0.005" y1="16.002" x2="32.005" y2="16.002" gradientUnits="userSpaceOnUse">
            <stop stop-color="#FFAC00"/>
            <stop offset="1" stop-color="#FF4E00"/>
        </linearGradient>
        <linearGradient id="paint1_linear" x1="15.9369" y1="23.704" x2="15.9369" y2="16.939" gradientUnits="userSpaceOnUse">
            <stop stop-color="#FFAC00"/>
            <stop offset="1" stop-color="#FF4E00"/>
        </linearGradient>
    </defs>
</svg>
