<svg width="32" height="32" viewBox="0 0 32 32" fill="none" xmlns="http://www.w3.org/2000/svg">
    <path d="M16 32C24.8366 32 32 24.8366 32 16C32 7.16344 24.8366 0 16 0C7.16344 0 0 7.16344 0 16C0 24.8366 7.16344 32 16 32Z" fill="white"/>
    <path d="M15.9881 17.9207C16.3037 17.8728 16.626 17.8977 16.9305 17.9937C17.2349 18.0896 17.5134 18.2539 17.7445 18.474C17.9756 18.6942 18.1533 18.9643 18.2639 19.2638C18.3745 19.5632 18.4151 19.884 18.3825 20.2015C18.4157 21.0693 18.4837 21.0916 19.2471 20.6419C20.4463 19.9912 21.4161 18.9871 22.0247 17.766C22.5763 16.6067 22.759 15.3061 22.5482 14.0396C22.3375 12.7732 21.7434 11.6019 20.8461 10.6836C20.3956 10.2318 19.9052 9.82158 19.3809 9.45792C19.0583 9.27163 18.7905 9.0035 18.6047 8.68062C18.4189 8.35775 18.3215 7.99155 18.3224 7.619C18.3353 7.14954 18.4732 6.69201 18.7219 6.29359C18.8503 6.07293 19.0225 5.88086 19.2278 5.72916C19.4332 5.57746 19.6674 5.46935 19.9161 5.41145C20.1647 5.35356 20.4226 5.34711 20.6738 5.39249C20.9251 5.43788 21.1644 5.53415 21.3771 5.67539C22.8583 6.44781 24.1337 7.56278 25.0971 8.92755C26.0605 10.2923 26.6841 11.8674 26.9159 13.5218C27.0544 14.5857 27.0142 15.6652 26.7971 16.7159C26.6017 18.0925 26.1766 19.4266 25.5395 20.6624C24.2285 22.937 22.1062 24.6318 19.598 25.4072C19.469 25.4516 19.3399 25.496 19.2089 25.5337C18.5412 25.7261 18.4526 25.828 18.389 26.5175C18.3792 26.8939 18.2912 27.2642 18.1306 27.6047C17.9254 27.9773 17.608 28.2757 17.2236 28.4575C16.8392 28.6394 16.4072 28.6955 15.9891 28.6179C15.9409 28.5542 15.9064 28.4814 15.8875 28.4038C15.8687 28.3262 15.866 28.2456 15.8796 28.1669C15.8768 24.9019 15.8769 21.6368 15.8797 18.3718C15.8658 18.2932 15.8683 18.2126 15.8869 18.135C15.9056 18.0574 15.94 17.9844 15.9881 17.9207V17.9207Z" fill="#077EA1"/>
    <path d="M15.988 17.9207L15.989 28.6179C15.6827 28.6681 15.369 28.6493 15.0708 28.563C14.7726 28.4767 14.4974 28.325 14.2653 28.1189C14.0331 27.9129 13.8497 27.6577 13.7286 27.3719C13.6075 27.0861 13.5515 26.7769 13.5649 26.4667C13.5299 25.8926 13.3832 25.7115 12.838 25.549C10.4061 24.902 8.28263 23.4129 6.8459 21.3467C6.05789 20.0923 5.52433 18.6951 5.2756 17.2347C4.68277 14.7869 5.01419 12.2065 6.20633 9.988C7.21547 8.1487 8.74288 6.64651 10.5987 5.66815C12.0882 4.85015 13.4268 5.82857 13.6021 7.40435C13.6501 7.7861 13.5886 8.17364 13.4247 8.52175C13.2608 8.86986 13.0013 9.16418 12.6764 9.3704C11.9217 9.88181 11.2442 10.4989 10.6647 11.2027C9.68522 12.4313 9.20644 13.9848 9.32442 15.5516C9.4424 17.1184 10.1484 18.5826 11.3008 19.6506C11.8506 20.1298 12.456 20.5411 13.104 20.8755C13.326 21.0005 13.503 20.9471 13.5348 20.6539C13.5642 20.3825 13.5905 20.1105 13.6278 19.8402C13.6309 19.5498 13.6979 19.2637 13.824 19.0021C13.9502 18.7406 14.1324 18.51 14.3576 18.3268C14.5829 18.1436 14.8458 18.0122 15.1276 17.942C15.4093 17.8719 15.7031 17.8646 15.988 17.9207V17.9207Z" fill="#17A74B"/>
    <path d="M15.9896 17.2191C15.6973 17.2484 15.402 17.2154 15.1234 17.1223C14.8447 17.0292 14.5889 16.8781 14.3729 16.6789C14.1569 16.4798 13.9855 16.2371 13.8701 15.9669C13.7547 15.6967 13.6979 15.4051 13.7034 15.1113C13.6565 14.7946 13.6823 14.4714 13.7787 14.1661C13.8751 13.8608 14.0397 13.5814 14.26 13.349C14.4803 13.1167 14.7505 12.9375 15.0502 12.8249C15.35 12.7124 15.6714 12.6695 15.9902 12.6994C16.0844 12.8299 16.1235 12.9924 16.0989 13.1515C16.1017 14.3561 16.1019 15.5608 16.0994 16.7654C16.1191 16.9249 16.0801 17.0862 15.9896 17.2191Z" fill="#17A74B"/>
    <path d="M15.9897 17.2191C15.9899 15.7125 15.9901 14.206 15.9903 12.6994C16.2888 12.6998 16.5843 12.7594 16.8597 12.8747C17.1351 12.99 17.3849 13.1587 17.5946 13.3712C17.8044 13.5836 17.97 13.8356 18.0818 14.1124C18.1935 14.3892 18.2494 14.6855 18.2459 14.984C18.2476 15.2798 18.1903 15.5729 18.0772 15.8462C17.9642 16.1196 17.7977 16.3676 17.5876 16.5757C17.3775 16.7839 17.1279 16.948 16.8535 17.0585C16.5792 17.169 16.2855 17.2235 15.9897 17.2191V17.2191Z" fill="#077FA1"/>
</svg>
