<svg width="32" height="32" viewBox="0 0 32 32" fill="none" xmlns="http://www.w3.org/2000/svg">
    <path d="M16 32C24.8366 32 32 24.8366 32 16C32 7.16344 24.8366 0 16 0C7.16344 0 0 7.16344 0 16C0 24.8366 7.16344 32 16 32Z" fill="#FEFEFE"/>
    <path d="M17.1193 26.0456C17.1193 25.5803 17.1183 25.1397 17.1194 24.6991C17.1256 22.1916 17.132 19.684 17.1388 17.1764C17.1389 17.1293 17.1392 17.0822 17.1409 17.0352C17.1528 16.7188 17.227 16.6448 17.5447 16.6366C18.8865 16.6023 20.2283 16.6055 21.5704 16.6291C21.6962 16.6238 21.8208 16.6553 21.929 16.7198C22.0372 16.7842 22.1242 16.8788 22.1795 16.9919C22.7198 17.9282 22.9217 19.0219 22.7512 20.0894C22.5529 21.705 21.7814 23.1959 20.5771 24.291C19.8648 24.9153 19.033 25.3884 18.1322 25.6814C17.806 25.7941 17.4826 25.9147 17.1193 26.0456Z" fill="black"/>
    <path d="M14.8756 21.387C14.8756 22.8527 14.8731 24.3184 14.8792 25.7841C14.8799 25.9492 14.8471 25.9821 14.6894 25.9249C14.081 25.7306 13.4837 25.5028 12.9004 25.2425C12.1252 24.8682 11.4328 24.3424 10.8639 23.6963C10.2949 23.0502 9.86106 22.2968 9.58778 21.4804C9.2751 20.6391 9.14522 19.7409 9.20678 18.8454C9.26028 18.1323 9.49152 17.4439 9.87942 16.8431C9.9245 16.7705 9.98655 16.71 10.0602 16.6668C10.1339 16.6236 10.2169 16.5989 10.3022 16.5949C10.7077 16.5566 11.114 16.5707 11.5198 16.5696C12.4793 16.567 13.4389 16.5678 14.3984 16.572C14.7598 16.5731 14.8392 16.6452 14.8402 17.0075C14.8443 18.4673 14.8419 19.9271 14.8419 21.387L14.8756 21.387Z" fill="black"/>
    <path d="M15.5116 20.8741C15.5116 19.2438 15.5091 17.6136 15.5154 15.9834C15.5161 15.8198 15.4667 15.7744 15.3095 15.7744C13.7205 15.7742 12.1315 15.7706 10.5426 15.7638C10.3331 15.7632 10.3341 15.7641 10.4106 15.5719C10.4589 15.3867 10.5461 15.214 10.6664 15.0651C10.7867 14.9162 10.9373 14.7947 11.1083 14.7085C11.1834 14.6763 11.2641 14.6595 11.3458 14.6591C14.3061 14.6547 17.2664 14.6525 20.2266 14.6369C20.3787 14.6358 20.5295 14.6654 20.6698 14.7241C20.8101 14.7828 20.9371 14.8692 21.0432 14.9783C21.2134 15.1574 21.3614 15.3564 21.4839 15.571C21.5588 15.6861 21.544 15.7241 21.3977 15.7239C20.6503 15.7228 19.9029 15.7297 19.1555 15.7341C18.314 15.739 17.4725 15.7482 16.631 15.745C16.4896 15.7444 16.4732 15.7913 16.4732 15.9139C16.4729 19.1213 16.4702 22.3288 16.4651 25.5363C16.4647 25.8765 16.3325 26.006 15.9938 25.9971C15.519 25.9845 15.5189 25.9845 15.5189 25.5176V20.8741H15.5116Z" fill="black"/>
    <path d="M15.7211 11.7621C15.3095 11.7145 14.9161 11.566 14.5758 11.3297C14.2355 11.0933 13.9589 10.7766 13.7705 10.4075C13.7008 10.285 13.6404 10.1574 13.5898 10.0258C13.5203 9.87312 13.4866 9.70657 13.4914 9.53889C13.4962 9.3712 13.5393 9.20684 13.6174 9.05839C14.01 8.27064 14.413 7.48739 14.7481 6.67197C14.8853 6.38206 15.126 6.15405 15.4229 6.03286C15.7199 5.91168 16.0514 5.90612 16.3522 6.01728C16.5404 6.05572 16.7164 6.13915 16.8653 6.26043C17.0142 6.38172 17.1315 6.53725 17.2072 6.71374C17.5085 7.46136 17.8933 8.16818 18.2294 8.89849C18.3542 9.16684 18.3847 9.46949 18.3158 9.75733C18.1672 10.3321 17.8316 10.8411 17.3618 11.204C16.892 11.567 16.3148 11.7633 15.7211 11.7621Z" fill="black"/>
    <path d="M23.8673 25.9703C23.4615 25.9703 23.0555 25.9618 22.65 25.9734C22.5409 25.9795 22.4324 25.9526 22.3387 25.8962C22.2451 25.8397 22.1707 25.7563 22.1251 25.6569C21.8784 25.2163 21.7971 24.702 21.896 24.2068C21.9929 23.6398 22.284 23.1243 22.7194 22.7484C23.1547 22.3726 23.7072 22.1598 24.2822 22.1466C24.3908 22.134 24.5005 22.1565 24.5955 22.2106C24.6905 22.2647 24.7658 22.3477 24.8104 22.4474C25.0279 22.8767 25.2423 23.3074 25.4536 23.7398C25.6028 24.0455 25.7506 24.3522 25.8866 24.6639C25.9471 24.7821 25.9838 24.9111 25.9944 25.0435C26.0051 25.1759 25.9895 25.3091 25.9486 25.4354C25.8936 25.5986 25.7856 25.7386 25.6417 25.8333C25.4979 25.928 25.3266 25.9719 25.155 25.958C24.7258 25.9658 24.2965 25.9597 23.8672 25.9597L23.8673 25.9703Z" fill="black"/>
    <path d="M7.97972 25.985C7.568 25.985 7.15628 25.985 6.74458 25.985C6.5686 25.9749 6.40099 25.9065 6.26814 25.7906C6.13529 25.6747 6.04475 25.518 6.01077 25.345C5.98147 25.1522 6.00503 24.955 6.07892 24.7745C6.40292 24.0254 6.75996 23.2924 7.15006 22.5757C7.1915 22.4835 7.26476 22.4094 7.3564 22.3669C7.44805 22.3244 7.55194 22.3163 7.64906 22.3441C8.13444 22.4002 8.59806 22.5769 8.99758 22.8582C9.40185 23.1525 9.70122 23.5686 9.85181 24.0454C10.0024 24.5222 9.9963 25.0347 9.83439 25.5078C9.80317 25.6535 9.71878 25.7824 9.5977 25.8692C9.47661 25.956 9.32751 25.9946 9.1795 25.9774C8.77967 25.9834 8.37968 25.9788 7.97976 25.9788L7.97972 25.985Z" fill="black"/>
    <path d="M19.617 13.8691H11.8542C11.9445 13.8149 12.0151 13.7714 12.0867 13.7294C12.8734 13.2364 13.7365 12.8771 14.6407 12.6663C15.5068 12.47 16.4065 12.4764 17.2697 12.6851C18.1329 12.8937 18.9362 13.2989 19.617 13.8691Z" fill="black"/>
    <path d="M18.961 10.3929L20.2796 13.0687L17.8513 11.9324L18.961 10.3929Z" fill="black"/>
    <path d="M11.7905 12.8891L12.8977 10.5389C13.003 10.6711 13.093 10.7829 13.1817 10.8957C13.425 11.205 13.6661 11.516 13.9116 11.8235C13.9728 11.9001 13.9835 11.94 13.8766 11.9867C13.2071 12.2795 12.5404 12.5789 11.8726 12.8755C11.8456 12.8823 11.8182 12.8868 11.7905 12.8891Z" fill="black"/>
    <path d="M23.3768 19.4884C23.6753 20.1009 23.9493 20.6644 24.2252 21.227C24.2561 21.29 24.2501 21.3177 24.176 21.3375C23.8186 21.4325 23.4609 21.5271 23.1071 21.6345C22.9648 21.6776 22.9598 21.6202 22.9809 21.5128C23.1098 20.8555 23.2381 20.1982 23.3768 19.4884Z" fill="black"/>
    <path d="M10.9621 25.9699L10.8741 25.9682C10.4885 25.9628 10.4895 25.963 10.5531 25.5909C10.6053 25.2852 10.6549 24.9791 10.7115 24.6382L12.4485 25.9286C12.4532 25.983 12.4132 25.9804 12.3793 25.98C11.9069 25.9744 11.4344 25.994 10.9621 25.9699Z" fill="black"/>
    <path d="M19.3462 25.9423L21.1097 24.6419C21.2053 25.0515 21.2931 25.4381 21.387 25.8232C21.4094 25.9149 21.3959 25.9451 21.2937 25.9444C20.661 25.9403 20.0282 25.9423 19.3462 25.9423Z" fill="black"/>
    <path d="M8.47916 19.8117L8.94016 21.8784C8.51546 21.7615 8.12646 21.6548 7.73772 21.5471C7.67533 21.5298 7.63407 21.5082 7.67393 21.425C7.92747 20.8954 8.17601 20.3635 8.42715 19.8328C8.43046 19.8258 8.44615 19.8246 8.47916 19.8117Z" fill="black"/>
    <path d="M10.9619 25.9699C11.4041 25.9664 11.8463 25.964 12.2885 25.9577C12.3415 25.957 12.4046 25.9886 12.4482 25.9286C12.4953 25.9539 12.4902 25.991 12.443 25.9898C11.9494 25.9772 11.455 26.0176 10.9619 25.9699Z" fill="#8E8E8E"/>
</svg>
