<svg width="32" height="32" viewBox="0 0 32 32" fill="none" xmlns="http://www.w3.org/2000/svg">
    <path d="M16 32C24.8366 32 32 24.8366 32 16C32 7.16344 24.8366 0 16 0C7.16344 0 0 7.16344 0 16C0 24.8366 7.16344 32 16 32Z" fill="#000403"/>
    <path d="M20.7249 10.3C22.1032 10.418 23.3927 11.029 24.357 12.0208C25.3213 13.0127 25.8957 14.3189 25.9749 15.7C25.9252 13.8795 25.2955 12.1225 24.1775 10.6848C23.0596 9.2472 21.5118 8.20409 19.7596 7.70747C18.0075 7.21084 16.1426 7.28665 14.4365 7.92386C12.7305 8.56106 11.2725 9.72636 10.2749 11.25C10.3929 9.8717 11.0039 8.58215 11.9957 7.61786C12.9876 6.65356 14.2938 6.07916 15.6749 6C13.8715 6.08184 12.1395 6.72913 10.7245 7.85016C9.30941 8.97119 8.28301 10.5091 7.79072 12.246C7.29842 13.9828 7.36518 15.8306 7.98155 17.5274C8.59792 19.2242 9.73263 20.684 11.2249 21.7C9.85556 21.5706 8.57796 20.9547 7.6239 19.9639C6.66984 18.9732 6.10253 17.6732 6.0249 16.3C6.06945 18.1148 6.69047 19.8683 7.79803 21.3066C8.9056 22.745 10.4422 23.7934 12.1854 24.3002C13.9285 24.807 15.7878 24.7458 17.4939 24.1255C19.1999 23.5052 20.6643 22.358 21.6749 20.85C21.5457 22.2061 20.935 23.471 19.9536 24.4158C18.9722 25.3605 17.6849 25.9225 16.3249 26C18.1412 25.9402 19.8912 25.3033 21.321 24.1816C22.7509 23.0599 23.7861 21.5118 24.2765 19.7619C24.7669 18.012 24.687 16.1514 24.0484 14.45C23.4097 12.7486 22.2456 11.295 20.7249 10.3ZM18.4953 18.5705C18.1636 18.8995 17.7702 19.1598 17.3377 19.3365C16.9052 19.5131 16.4421 19.6027 15.9749 19.6C15.5089 19.6029 15.0471 19.5114 14.6174 19.3309C14.1877 19.1504 13.7991 18.8848 13.4749 18.55C12.9805 18.0515 12.6449 17.4176 12.5108 16.7284C12.3766 16.0392 12.4498 15.3257 12.7212 14.6781C12.9925 14.0306 13.4498 13.478 14.0352 13.0903C14.6206 12.7026 15.3078 12.4972 16.0099 12.5001C16.712 12.503 17.3975 12.714 17.9797 13.1064C18.5619 13.4989 19.0146 14.0552 19.2807 14.705C19.5467 15.3547 19.6141 16.0688 19.4743 16.7569C19.3345 17.4449 18.9938 18.0761 18.4953 18.5705Z" fill="#94FEBF"/>
</svg>
