<svg width="30" height="30" viewBox="0 0 30 30" fill="none" xmlns="http://www.w3.org/2000/svg">
    <path d="M15 30C23.2843 30 30 23.2843 30 15C30 6.71573 23.2843 0 15 0C6.71573 0 0 6.71573 0 15C0 23.2843 6.71573 30 15 30Z" fill="#178DD0"/>
    <path d="M6.99628 15.5852C7.07372 14.8946 7.11244 14.5493 7.41427 14.3071C7.71609 14.0649 8.06062 14.1019 8.74973 14.1756C9.06075 14.209 9.42173 14.2521 9.83508 14.3081C10.1982 14.3571 10.529 14.4331 10.8258 14.5233C11.4314 14.7071 11.7341 14.799 12.1952 15.4208C12.6562 16.0427 12.6562 16.5427 12.6562 17.5427C12.6562 18.1583 12.6562 18.9395 12.6562 19.9221C12.6562 21.3027 12.6562 22.2856 12.6562 22.9704C12.6562 23.6324 12.6562 23.9634 12.4503 24.1693C12.2444 24.3753 11.913 24.3753 11.2504 24.3753C10.7425 24.3753 10.1588 24.3753 9.60938 24.3753C9.57136 24.3753 9.53363 24.3753 9.49622 24.3753C8.40684 24.3748 7.86216 24.3746 7.45917 24.0052C7.05623 23.6358 7.01147 23.1252 6.92203 22.1041C6.85191 21.3036 6.79688 20.3236 6.79688 19.219C6.79688 17.7435 6.89503 16.4879 6.99628 15.5852Z" fill="white"/>
    <path d="M22.7693 15.5852C22.6919 14.8946 22.6532 14.5493 22.3514 14.3071C22.0495 14.0649 21.705 14.1019 21.0159 14.1756C20.7049 14.209 20.3439 14.2521 19.9305 14.3081C19.5675 14.3571 19.2367 14.4331 18.9398 14.5233C18.3343 14.7071 18.0315 14.799 17.5704 15.4208C17.1094 16.0427 17.1094 16.5427 17.1094 17.5427C17.1094 18.1583 17.1094 18.9395 17.1094 19.9221C17.1094 21.3027 17.1094 22.2856 17.1094 22.9704C17.1094 23.6324 17.1094 23.9634 17.3153 24.1693C17.5213 24.3753 17.8526 24.3753 18.5152 24.3753C19.0231 24.3753 19.6068 24.3753 20.1562 24.3753C20.1943 24.3753 20.232 24.3753 20.2694 24.3753C21.3588 24.3748 21.9035 24.3746 22.3065 24.0052C22.7094 23.6358 22.7542 23.1252 22.8436 22.1041C22.9137 21.3036 22.9688 20.3236 22.9688 19.219C22.9688 17.7435 22.8706 16.4879 22.7693 15.5852Z" fill="white"/>
    <path d="M7.03125 7.97855C7.03125 6.89911 7.03125 6.35939 7.34325 5.97286C7.38295 5.92373 7.42964 5.87344 7.47572 5.83027C7.83811 5.49052 8.36227 5.45161 9.41063 5.37389C10.8752 5.26528 12.8749 5.15625 15 5.15625C17.1251 5.15625 19.1248 5.26528 20.5894 5.37389C21.6377 5.45161 22.1619 5.49052 22.5243 5.83027C22.5704 5.87344 22.617 5.92373 22.6568 5.97286C22.9688 6.35939 22.9688 6.89911 22.9688 7.97855C22.9688 9.04894 22.9687 9.58416 22.657 9.97064C22.6176 10.0195 22.5705 10.0702 22.5247 10.1132C22.1625 10.4529 21.6451 10.4917 20.6102 10.569C19.1826 10.6758 17.2126 10.7812 15 10.7812C12.7874 10.7812 10.8174 10.6758 9.38977 10.569C8.35491 10.4917 7.83745 10.4529 7.47534 10.1132C7.42955 10.0702 7.38244 10.0195 7.34302 9.97064C7.03125 9.58416 7.03125 9.04894 7.03125 7.97855Z" fill="white"/>
</svg>
