<svg width="32" height="32" viewBox="0 0 32 32" fill="none" xmlns="http://www.w3.org/2000/svg">
    <path d="M16 32C24.8366 32 32 24.8366 32 16C32 7.16344 24.8366 0 16 0C7.16344 0 0 7.16344 0 16C0 24.8366 7.16344 32 16 32Z" fill="#30C0F2"/>
    <path opacity="0.4" d="M24.2588 8.73341L31.8261 18.3624C31.8261 18.3624 31.0336 28.611 19.5973 31.5941L15.3557 26.5235L24.2588 8.73341Z" fill="#298EA1"/>
    <path d="M9.98664 6.76511H22.1209C22.2286 7.23402 22.4859 7.6552 22.8539 7.96511C23.2219 8.27502 23.6807 8.45687 24.1611 8.48323C24.1611 8.48323 29.8524 21.7987 16.0001 27.4899C16.0001 27.4899 3.22154 23.4094 7.7316 8.59061C8.253 8.56654 8.75306 8.37641 9.15874 8.04799C9.56443 7.71958 9.8545 7.27007 9.9866 6.76511" fill="white"/>
    <path d="M10.8992 8.10738H21.2079C21.2326 8.48401 21.3971 8.83785 21.669 9.09963C21.9409 9.36141 22.3007 9.51227 22.678 9.52268C22.678 9.52268 27.3287 20.9052 16.0074 25.7718C16.0074 25.7718 5.49465 22.3871 9.18109 9.71812C9.60159 9.66734 9.99492 9.48377 10.3039 9.19409C10.6129 8.90441 10.8214 8.52372 10.8992 8.10738" fill="#F8B642"/>
    <path d="M16.0218 26.0733L15.9209 26.0408C15.3545 25.8404 14.8071 25.5899 14.2853 25.292C13.0541 24.6099 11.9444 23.7286 11.0011 22.6839C9.71779 21.2517 8.82743 19.5114 8.41676 17.6326C7.9054 14.9691 8.07502 12.2196 8.90988 9.63917L8.96334 9.45543L9.15379 9.43687C9.38877 9.40176 9.61528 9.32374 9.82204 9.20672C10.0346 9.0895 10.2173 8.92483 10.3559 8.72553C10.4945 8.52623 10.5853 8.29766 10.6212 8.05757L10.6628 7.82481H21.4798L21.4903 8.09261C21.5109 8.29199 21.5729 8.48486 21.6724 8.65889C21.7782 8.83617 21.9282 8.98296 22.1078 9.08494C22.2873 9.18692 22.4902 9.24059 22.6967 9.24072L22.8729 9.25231L22.9397 9.4158C23.1751 10.0337 23.3636 10.6685 23.5035 11.3148C23.8442 12.7985 23.9677 14.3237 23.8702 15.8429C23.7524 17.7993 23.1293 19.6918 22.0618 21.3355C20.5871 23.4523 18.5196 25.0861 16.1191 26.0315L16.0218 26.0733ZM9.4042 9.96543C7.97035 15.0327 8.64371 19.1783 11.4065 22.2894C12.3055 23.289 13.3639 24.1326 14.5387 24.7862C15.0065 25.0506 15.4939 25.2787 15.9966 25.4685C20.523 23.4909 22.9821 20.2391 23.3065 15.8016C23.4001 14.3382 23.2808 12.8688 22.9523 11.4396C22.8276 10.879 22.6684 10.3266 22.4757 9.78552C22.2045 9.75591 21.9445 9.66173 21.7173 9.51088C21.4901 9.36002 21.3024 9.15689 21.1699 8.91852C21.0777 8.7528 21.0094 8.57486 20.967 8.39H11.1245C11.049 8.66974 10.9173 8.93115 10.7374 9.15828C10.5575 9.3854 10.3332 9.57348 10.0782 9.711C9.86657 9.82696 9.63968 9.91261 9.4042 9.96543V9.96543Z" fill="#298EA1"/>
    <path d="M18.7113 14.1745H18.3978C18.4595 13.6219 18.307 13.0666 17.9716 12.6231C17.6362 12.1796 17.1434 11.8816 16.5948 11.7906C16.1022 11.6723 15.5861 11.6961 15.1065 11.8593C14.6387 12.0276 14.2397 12.3459 13.9718 12.7648C13.704 13.1836 13.5822 13.6793 13.6257 14.1745H13.3959C13.1611 14.1751 12.9361 14.2686 12.7701 14.4346C12.6041 14.6006 12.5106 14.8256 12.51 15.0604V18.7651C12.5106 18.9999 12.6041 19.2249 12.7701 19.3909C12.9361 19.5569 13.1611 19.6504 13.3959 19.651H18.7113C18.9461 19.6504 19.1711 19.5569 19.3372 19.3909C19.5032 19.2249 19.5967 18.9999 19.5973 18.7651V15.0604C19.5967 14.8256 19.5032 14.6006 19.3371 14.4346C19.1711 14.2686 18.9461 14.1751 18.7113 14.1745V14.1745ZM16.6442 18.3624H15.463L15.7755 16.8011C15.6283 16.7371 15.5077 16.6244 15.4338 16.482C15.36 16.3395 15.3376 16.1759 15.3702 16.0188C15.4029 15.8617 15.4886 15.7207 15.6131 15.6194C15.7376 15.5182 15.8931 15.4629 16.0536 15.4629C16.2141 15.4629 16.3696 15.5182 16.4941 15.6194C16.6186 15.7207 16.7043 15.8617 16.737 16.0188C16.7696 16.1759 16.7472 16.3395 16.6734 16.482C16.5995 16.6244 16.4789 16.7371 16.3317 16.8011L16.6442 18.3624ZM14.3892 14.1745C14.3687 13.7492 14.5138 13.3325 14.7942 13.0121C15.0746 12.6917 15.4683 12.4925 15.8926 12.4564C16.1189 12.4415 16.3457 12.4763 16.557 12.5584C16.7684 12.6406 16.9593 12.768 17.1162 12.9317C17.273 13.0955 17.3922 13.2916 17.4652 13.5063C17.5382 13.721 17.5633 13.9491 17.5387 14.1745H14.3892Z" fill="white"/>
</svg>
