<svg width="32" height="32" viewBox="0 0 32 32" fill="none" xmlns="http://www.w3.org/2000/svg">
    <path d="M16 0C20.2435 0 24.3131 1.68571 27.3137 4.68629C30.3143 7.68687 32 11.7565 32 16C32 20.2435 30.3143 24.3131 27.3137 27.3137C24.3131 30.3143 20.2435 32 16 32V32C11.7565 32 7.68687 30.3143 4.68629 27.3137C1.68571 24.3131 0 20.2435 0 16V16C0 11.7565 1.68571 7.68687 4.68629 4.68629C7.68687 1.68571 11.7565 0 16 0V0Z" fill="#1A5AFF"/>
    <path d="M22.1533 8.75C21.7564 8.75023 21.3667 8.85572 21.0239 9.05573C20.681 9.25573 20.3974 9.54308 20.2018 9.88848L15.1336 18.7188H11.3555V23.25H16.4391C16.835 23.2495 17.2237 23.1443 17.5659 22.9452C17.9081 22.7462 18.1917 22.4602 18.3878 22.1162L23.4468 13.2812H27.2148V8.75H22.1533Z" fill="white"/>
    <path d="M8.6886 23.25L4.78516 20.99L11.1486 9.88848C11.3437 9.54323 11.6268 9.25592 11.9692 9.0559C12.3116 8.85589 12.701 8.75033 13.0975 8.75H18.1523V13.2812H14.3893L8.6886 23.25Z" fill="white"/>
    <path d="M24.9492 20.5312C25.3973 20.5312 25.8354 20.3984 26.2079 20.1494C26.5805 19.9005 26.8709 19.5466 27.0424 19.1326C27.2139 18.7186 27.2587 18.2631 27.1713 17.8236C27.0839 17.3841 26.8681 16.9804 26.5513 16.6636C26.2344 16.3467 25.8307 16.1309 25.3912 16.0435C24.9517 15.9561 24.4962 16.001 24.0822 16.1724C23.6682 16.3439 23.3144 16.6343 23.0654 17.0069C22.8165 17.3795 22.6836 17.8175 22.6836 18.2656C22.6836 18.8665 22.9223 19.4428 23.3472 19.8677C23.7721 20.2925 24.3483 20.5312 24.9492 20.5312V20.5312Z" fill="white"/>
    <path d="M5.23828 8.75V13.2812C5.83338 13.2814 6.42268 13.1643 6.97251 12.9367C7.52234 12.709 8.02193 12.3752 8.44273 11.9544C8.86352 11.5336 9.19729 11.0341 9.42495 10.4842C9.6526 9.9344 9.7697 9.3451 9.76953 8.75H5.23828Z" fill="white"/>
</svg>
