<svg width="32" height="32" viewBox="0 0 32 32" fill="none" xmlns="http://www.w3.org/2000/svg">
    <path d="M16 32C24.8366 32 32 24.8366 32 16C32 7.16344 24.8366 0 16 0C7.16344 0 0 7.16344 0 16C0 24.8366 7.16344 32 16 32Z" fill="#2B2E7F"/>
    <path d="M17.057 19.028V13.168H17.827C20.372 13.168 20.999 10.795 20.999 10.795H14.316C11.144 10.795 10.606 13.169 10.606 13.169H14.549V21.986C14.549 21.986 17.057 21.233 17.057 19.028Z" fill="white"/>
    <path d="M24.395 23.594C26.643 21.258 27.505 18.014 26.696 14.911C26.2691 13.2874 25.4124 11.8088 24.216 10.631C24.108 10.525 24 10.417 23.874 10.311L23.766 10.204C23.6927 10.1333 23.6145 10.0678 23.532 10.008L23.388 9.901L23.173 9.741L23.046 9.651C22.9602 9.59479 22.8765 9.53541 22.795 9.473L22.632 9.367C22.5648 9.31812 22.4928 9.27623 22.417 9.242L22.255 9.135C22.183 9.099 22.111 9.045 22.039 9.01L21.877 8.92C21.805 8.885 21.733 8.849 21.643 8.814L21.588 8.796C21.786 8.956 21.983 9.135 22.163 9.313C22.9835 10.1265 23.6347 11.0943 24.0791 12.1608C24.5235 13.2273 24.7523 14.3712 24.7523 15.5265C24.7523 16.6818 24.5235 17.8257 24.0791 18.8922C23.6347 19.9587 22.9835 20.9265 22.163 21.74C17.777 26.09 10.658 26.09 6.27004 21.74C6.10804 21.58 5.96404 21.42 5.80304 21.26L5.67704 21.117C5.58282 21.0074 5.49276 20.8943 5.40704 20.778C5.97108 21.8841 6.70536 22.8948 7.58304 23.773C12.167 28.319 19.609 28.319 24.193 23.773C24.2729 23.7288 24.3419 23.6673 24.395 23.593V23.594Z" fill="white"/>
    <path d="M10.4 22.386C10.2 22.2229 10.0077 22.0503 9.82402 21.869C9.00275 21.0548 8.35087 20.086 7.906 19.0185C7.46113 17.951 7.23209 16.806 7.23209 15.6495C7.23209 14.493 7.46113 13.348 7.906 12.2805C8.35087 11.213 9.00275 10.2442 9.82402 9.43C14.215 5.076 21.34 5.076 25.731 9.43C26.037 9.734 26.324 10.055 26.594 10.394C26.0294 9.29249 25.2947 8.28683 24.417 7.414C19.829 2.863 12.379 2.863 7.79102 7.414C7.73702 7.467 7.68302 7.539 7.61102 7.592C4.57002 10.769 4.15602 15.516 6.58602 19.121C7.54002 20.511 8.87002 21.671 10.4 22.386Z" fill="white"/>
</svg>
