<svg width="32" height="32" viewBox="0 0 32 32" fill="none" xmlns="http://www.w3.org/2000/svg">
    <mask id="mask0" mask-type="alpha" maskUnits="userSpaceOnUse" x="0" y="0" width="32" height="32">
        <circle cx="16" cy="16" r="16" fill="white"/>
    </mask>
    <g mask="url(#mask0)">
        <circle cx="16" cy="16" r="16" fill="white"/>
        <path d="M26.894 4.27133C26.0896 4.72647 23.1519 4.86651 22.942 4.93653C22.6623 5.00656 17.3814 5.00656 17.2765 4.93653C17.2065 4.90152 16.4371 4.37636 16.0874 4.13128C15.9825 4.06126 15.9475 4.02625 15.9475 4.02625C15.9475 4.02625 16.4721 3.88621 17.2415 3.67614C19.2 3.18599 22.8022 2.2757 23.4666 2.38073C23.8863 2.45076 24.4808 2.55579 25.0754 2.76586C25.3202 2.94091 25.565 3.11596 25.8098 3.29102C26.1246 3.5361 26.4043 3.78117 26.6841 4.02625C26.7541 4.13128 26.824 4.2013 26.894 4.27133Z" fill="url(#paint0_linear)"/>
        <path d="M0.490053 12.0788C5.14142 11.1685 9.79278 10.0481 14.4791 9.24289C19.2004 8.43764 24.6562 7.42232 29.6223 7.94749C29.6922 7.94749 29.7622 7.94749 29.8321 7.9825C29.937 8.19256 30.0769 8.40263 30.1818 8.61269C30.9862 10.1532 31.5458 11.7987 31.7906 13.5842C31.8256 13.8643 31.8605 14.1794 31.8955 14.4595C31.7206 14.6696 31.5108 14.8797 31.3359 15.0897C30.6015 15.0547 29.9021 15.0547 29.1676 15.0897C29.0977 15.0897 28.9928 15.0897 28.9228 15.1247C28.1884 13.3742 24.2365 13.8293 22.5228 14.1094C20.4594 14.3895 18.3961 14.7396 16.3327 15.1247C16.1578 15.1597 15.948 15.1948 15.7731 15.2298C14.7239 15.4048 13.6398 15.6149 12.5906 15.7899C8.07912 16.5602 4.72174 17.2604 1.99387 17.6455C1.9589 17.4705 1.88896 17.3304 1.85398 17.1554C1.78404 16.9103 1.7141 16.6302 1.60918 16.3851C1.50426 16.105 1.43431 15.8249 1.32939 15.5449C1.11956 14.9847 0.944693 14.3895 0.76983 13.8293C0.629939 13.4092 0.525023 12.9891 0.455078 12.5689" fill="url(#paint1_linear)"/>
        <path d="M25.7748 3.32604C23.1169 2.69584 20.2141 3.15098 17.4863 3.81619C17.0316 3.92123 16.542 4.06127 16.0874 4.1663C15.5278 4.30635 14.9682 4.44639 14.4436 4.62144C12.6251 5.1116 10.8065 5.67177 8.9879 6.12691C7.86877 6.407 6.60976 6.86214 5.42069 6.7221C4.75621 6.65208 3.91686 6.47702 3.42725 6.12691C5.17588 3.88621 7.51905 2.13567 10.2469 1.08534C12.0305 0.38512 13.989 0 16.0174 0C19.3748 0 22.4873 1.05033 25.0753 2.80088C25.3201 2.97593 25.53 3.15098 25.7748 3.32604Z" fill="url(#paint2_linear)"/>
        <path d="M28.7125 25.698C28.1879 26.3983 27.6284 27.0284 26.9989 27.6236C26.3693 28.2188 25.7049 28.744 25.0054 29.2341C23.5366 30.2495 21.8928 30.9847 20.1442 31.4748C19.9344 31.5449 19.7245 31.5799 19.5147 31.6149C18.3956 31.86 17.2065 32 15.9825 32C14.3737 32 12.8349 31.7549 11.3661 31.3348C11.0513 31.2298 10.7366 31.1247 10.4568 31.0197C9.26771 30.5646 8.14859 30.0044 7.09941 29.3042C6.71471 29.0241 6.33001 28.744 5.94531 28.4639C6.01526 28.4989 6.08519 28.4989 6.15514 28.5339C8.84804 29.1991 11.7857 28.744 14.5836 28.0788C15.6327 27.8337 16.6819 27.5186 17.6612 27.2735C19.4797 26.7834 21.2983 26.1882 23.1519 25.698C24.271 25.3829 25.565 24.9628 26.7191 25.1028C26.9989 25.1379 27.2786 25.1729 27.5934 25.2429C28.0131 25.3479 28.4327 25.488 28.7125 25.698Z" fill="#61C0E2"/>
        <path d="M16.1923 15.0897C16.0525 15.1247 15.9126 15.1947 15.7727 15.2298C15.7377 15.2298 15.7027 15.2298 15.7027 15.2648C13.0448 16.105 10.3519 16.8753 7.62404 17.4354C5.77049 17.8206 3.847 18.2407 1.95847 17.7155C1.29399 17.5405 0.62951 17.2254 0.0349748 16.7702C0.0349748 16.5252 0 16.2451 0 16C0 14.8096 0.139893 13.6193 0.384702 12.4989C0.419674 12.3589 0.454648 12.2188 0.489621 12.0788C0.699457 12.0088 0.874319 11.9737 1.08416 11.9037C3.88197 11.3085 6.92459 12.0438 9.58252 12.919C11.7508 13.6193 13.9541 14.3895 16.1923 15.0897Z" fill="url(#paint3_linear)"/>
        <path d="M31.9301 14.4245C31.9651 14.9497 32 15.4398 32 15.965C32 16.6302 31.9651 17.2604 31.8951 17.8906C31.5104 17.9606 31.0907 17.9606 30.6711 17.9256C25.7749 17.6105 21.0186 16.4901 16.3323 15.0897C16.2973 15.0897 16.2274 15.0547 16.1924 15.0547C16.3323 15.0197 16.4372 14.9847 16.5771 14.9147C19.8295 13.7943 23.082 12.4289 26.5093 12.1488C28.0131 12.0087 29.6918 12.0788 31.0558 12.884C31.2656 13.0241 31.5804 13.2341 31.8252 13.5142C31.8601 13.8643 31.8951 14.1444 31.9301 14.4245Z" fill="url(#paint4_linear)"/>
        <path d="M31.5105 19.9562C30.9859 22.0919 30.0067 24.0175 28.7127 25.698C28.1881 26.3982 27.6286 27.0284 26.999 27.6236C27.2439 27.2385 27.4187 26.8884 27.5586 26.5383C27.6635 26.2232 27.7684 25.9081 27.6985 25.593C27.6635 25.453 27.6286 25.3479 27.5936 25.2429C26.9291 23.7374 24.2362 24.1575 23.0471 24.4026C20.634 24.8928 18.2559 25.488 15.8777 26.0481C11.0865 27.2035 8.07883 28.1488 5.70069 28.2538C4.16189 26.9584 2.86791 25.3479 1.88867 23.5273C2.86791 23.3873 4.05697 23.1772 5.45588 22.7921C9.40779 21.7768 13.2898 20.5164 17.2417 19.5711C20.9138 18.6958 25.2154 17.5755 28.9925 18.4508C30.0417 18.6958 30.881 19.221 31.5105 19.9562Z" fill="url(#paint5_linear)"/>
        <path d="M25.0054 29.2341C23.5365 30.2495 21.8928 30.9847 20.1441 31.4748C19.9343 31.5449 19.7245 31.5799 19.5146 31.6149L11.401 31.3348C11.0862 31.2298 10.7715 31.1247 10.4917 31.0197C11.8906 30.8797 13.6043 30.6346 15.5278 30.2144C16.0524 30.1094 16.6119 29.9694 17.2064 29.7943C21.4381 28.674 23.8862 28.4639 25.0054 29.2341Z" fill="url(#paint6_linear)"/>
        <path d="M20.1442 31.4748C19.9343 31.5449 19.7245 31.5799 19.5147 31.6149C18.3955 31.86 17.2065 32 15.9824 32C14.3737 32 12.8349 31.7549 11.366 31.3348C11.0513 31.2298 10.7365 31.1247 10.4567 31.0197C9.26767 30.5646 8.14855 30.0044 7.09937 29.3042C8.49827 29.0591 11.0163 29.1291 15.4928 30.2144C16.8567 30.5295 18.3955 30.9497 20.1442 31.4748Z" fill="url(#paint7_linear)"/>
        <path d="M29.8318 7.9825C29.9367 8.19256 30.0766 8.40263 30.1816 8.61269C30.0067 8.36762 29.7969 8.15755 29.622 7.94749C24.8657 3.04595 15.493 6.37199 13.8493 6.75711C12.0657 7.17725 5.31599 9.2779 1.3291 9.55799C1.88866 8.2976 2.58812 7.14223 3.42746 6.0569C5.1761 3.81619 7.51926 2.06565 10.2471 1.01532C12.0657 1.61051 13.8493 2.34574 15.493 3.04595C16.0526 3.29103 16.6471 3.5011 17.2067 3.67615C17.3116 3.71116 17.3816 3.74617 17.4865 3.74617C19.1652 4.27134 20.9138 4.58644 22.7324 4.58644C23.8865 4.58644 25.5652 4.62145 26.6843 4.02626C26.7542 4.09628 26.8242 4.1663 26.9291 4.23633C28.0482 5.35668 29.0624 6.61707 29.8318 7.9825Z" fill="url(#paint8_linear)"/>
    </g>
    <defs>
        <linearGradient id="paint0_linear" x1="15.9387" y1="3.69599" x2="26.8999" y2="3.69599" gradientUnits="userSpaceOnUse">
            <stop offset="0.211" stop-color="#61BFE1"/>
            <stop offset="0.9997" stop-color="#736C94"/>
        </linearGradient>
        <linearGradient id="paint1_linear" x1="-7.06712" y1="12.6858" x2="31.9166" y2="12.6858" gradientUnits="userSpaceOnUse">
            <stop offset="0.3795" stop-color="#078B7B"/>
            <stop offset="0.9091" stop-color="#4DB0B7"/>
        </linearGradient>
        <linearGradient id="paint2_linear" x1="3.43085" y1="3.35027" x2="25.7803" y2="3.35027" gradientUnits="userSpaceOnUse">
            <stop stop-color="#F1E931"/>
            <stop offset="0.1119" stop-color="#ECE735"/>
            <stop offset="0.2515" stop-color="#DCE242"/>
            <stop offset="0.4059" stop-color="#C3D957"/>
            <stop offset="0.571" stop-color="#9FCD74"/>
            <stop offset="0.7427" stop-color="#72BD99"/>
            <stop offset="0.8663" stop-color="#4DB0B7"/>
        </linearGradient>
        <linearGradient id="paint3_linear" x1="0.182767" y1="14.8416" x2="32.5713" y2="14.6105" gradientUnits="userSpaceOnUse">
            <stop stop-color="#61BFE1"/>
            <stop offset="0.0931388" stop-color="#63B4D7"/>
            <stop offset="0.2566" stop-color="#6A97BC"/>
            <stop offset="0.4519" stop-color="#736C94"/>
        </linearGradient>
        <linearGradient id="paint4_linear" x1="30.8689" y1="14.9083" x2="11.6544" y2="16.5795" gradientUnits="userSpaceOnUse">
            <stop stop-color="#804C88"/>
            <stop offset="0.2619" stop-color="#6C5F8B"/>
            <stop offset="0.658" stop-color="#51788F"/>
            <stop offset="0.8911" stop-color="#61C1E3"/>
        </linearGradient>
        <linearGradient id="paint5_linear" x1="1.88077" y1="23.1968" x2="31.5017" y2="23.1968" gradientUnits="userSpaceOnUse">
            <stop stop-color="#F1E931"/>
            <stop offset="0.1373" stop-color="#EDE834"/>
            <stop offset="0.2777" stop-color="#E1E33E"/>
            <stop offset="0.4194" stop-color="#CCDC4F"/>
            <stop offset="0.5622" stop-color="#AFD267"/>
            <stop offset="0.7058" stop-color="#8AC585"/>
            <stop offset="0.8481" stop-color="#5EB6A9"/>
            <stop offset="0.8963" stop-color="#4DB0B7"/>
        </linearGradient>
        <linearGradient id="paint6_linear" x1="10.4632" y1="30.2009" x2="24.9937" y2="30.2009" gradientUnits="userSpaceOnUse">
            <stop offset="0.2004" stop-color="#F1E931"/>
            <stop offset="0.9285" stop-color="#4DB0B7"/>
        </linearGradient>
        <linearGradient id="paint7_linear" x1="7.11591" y1="30.6064" x2="20.1275" y2="30.6064" gradientUnits="userSpaceOnUse">
            <stop stop-color="#804C88"/>
            <stop offset="0.2619" stop-color="#6C5F8B"/>
            <stop offset="0.658" stop-color="#51788F"/>
            <stop offset="0.8911" stop-color="#61C1E3"/>
        </linearGradient>
        <linearGradient id="paint8_linear" x1="15.7628" y1="0.654812" x2="15.7628" y2="11.8225" gradientUnits="userSpaceOnUse">
            <stop offset="0.1684" stop-color="#44518C"/>
            <stop offset="0.9831" stop-color="#008181"/>
        </linearGradient>
    </defs>
</svg>
