<svg width="32" height="32" viewBox="0 0 32 32" fill="none" xmlns="http://www.w3.org/2000/svg">
    <path d="M16 32C24.8365 32 32 24.8365 32 16C32 7.16345 24.8365 0 16 0C7.16345 0 0 7.16345 0 16C0 24.8365 7.16345 32 16 32Z" fill="#3375BB"/>
    <path fill-rule="evenodd" clip-rule="evenodd" d="M15.3535 6.23247C15.7246 5.92251 16.2644 5.92251 16.6355 6.23247C19.3541 8.50295 22.454 8.48539 23.6536 8.4786C23.7134 8.47826 23.7686 8.47795 23.8187 8.47795C24.0865 8.47795 24.3431 8.58539 24.5311 8.7762C24.719 8.96701 24.8226 9.22524 24.8185 9.49304C24.7618 13.2559 24.6109 15.9416 24.315 17.9099C24.0192 19.877 23.5657 21.2251 22.8349 22.2409C22.0988 23.2638 21.1529 23.8445 20.1456 24.4012C19.9711 24.4977 19.7931 24.5942 19.6109 24.693C18.7267 25.1727 17.7439 25.7058 16.5774 26.5426C16.229 26.7925 15.76 26.7925 15.4116 26.5426C14.2462 25.7066 13.2647 25.1737 12.3819 24.6944C12.1988 24.5951 12.02 24.498 11.8447 24.401C10.8382 23.8442 9.89352 23.2632 9.15893 22.24C8.42971 21.2242 7.97774 19.8761 7.68306 17.9094C7.38819 15.9413 7.23805 13.2558 7.18127 9.49304C7.17722 9.22524 7.28078 8.96701 7.46873 8.7762C7.65668 8.58539 7.91332 8.47795 8.18115 8.47795C8.23068 8.47795 8.28525 8.47826 8.34455 8.4786C9.53444 8.4854 12.6347 8.50312 15.3535 6.23247ZM9.19911 10.4717C9.26624 13.6789 9.41225 15.9529 9.66099 17.613C9.93525 19.4436 10.3217 20.4302 10.7836 21.0736C11.2402 21.7096 11.8394 22.1124 12.8129 22.651C12.9714 22.7387 13.1387 22.8294 13.3143 22.9246C14.063 23.3306 14.9642 23.8193 15.9945 24.5125C17.0263 23.8185 17.9288 23.3294 18.6788 22.923C18.8537 22.8283 19.0202 22.7381 19.1782 22.6508C20.1529 22.1121 20.7536 21.7091 21.2114 21.0728C21.6744 20.4292 22.062 19.4427 22.3372 17.6125C22.5868 15.9526 22.7334 13.6788 22.8007 10.4719C21.2611 10.4222 18.5498 10.1043 15.9945 8.26497C13.4423 10.1021 10.7348 10.4215 9.19911 10.4717Z" fill="white"/>
</svg>
