<svg width="32" height="32" viewBox="0 0 32 32" fill="none" xmlns="http://www.w3.org/2000/svg">
    <path d="M16 32C24.8366 32 32 24.8366 32 16C32 7.16344 24.8366 0 16 0C7.16344 0 0 7.16344 0 16C0 24.8366 7.16344 32 16 32Z" fill="white"/>
    <path fill-rule="evenodd" clip-rule="evenodd" d="M21.4335 12.6797L21.4334 12.6803L22.5714 12.6864C22.701 12.6769 22.8316 12.6775 22.9621 12.6884L25.7415 12.7033C26.1643 12.7276 26.4994 13.0797 26.4994 13.5107C26.4994 13.7143 26.4246 13.9004 26.3011 14.0425L24.9485 16.3966C24.9378 16.4165 24.9269 16.4362 24.9156 16.4559L21.5688 22.2965C21.1155 23.0876 20.3002 23.537 19.4554 23.5549V23.5554H19.4161C19.3943 23.5556 19.3725 23.5553 19.3508 23.555L9.44739 23.504H8.34375L8.3438 23.4843C9.18223 23.3672 9.88762 22.8308 10.2449 22.0921L10.2528 22.0923L15.1046 13.5903C15.377 13.05 15.9339 12.6797 16.5766 12.6797L16.5318 12.6806L16.5334 12.6797H21.4335Z" fill="#2BBDF7"/>
    <path fill-rule="evenodd" clip-rule="evenodd" d="M13.6819 8.50754L22.4233 8.50768C22.8459 8.53204 23.181 8.88413 23.181 9.31508C23.181 9.48782 23.1271 9.64788 23.0355 9.77919L20.6763 13.9058L18.1685 18.2914L18.1698 18.2911H18.1903L17.3883 19.6918C16.7122 20.8716 17.0919 22.3737 18.232 23.0876L18.3027 23.1303C18.6238 23.3172 18.9691 23.4239 19.3156 23.4568L19.3158 23.5158L15.183 23.5156L15.1813 23.5194H8.0143C7.60737 23.5119 7.19415 23.4081 6.81185 23.1946C5.5823 22.5079 5.13807 20.9469 5.81961 19.7081L11.2586 9.82179C11.757 8.91569 12.7197 8.43288 13.6819 8.50754Z" fill="#2B6DEF"/>
    <path fill-rule="evenodd" clip-rule="evenodd" d="M16.5488 12.679L21.3625 12.6839L20.6662 13.9022L18.1583 18.2878L18.1597 18.2875H18.1801L17.3781 19.6882C16.7021 20.8681 17.0817 22.3702 18.2217 23.084L18.2925 23.1267C18.6137 23.3136 18.9589 23.4204 19.3055 23.4534L19.3056 23.5122H15.1728L15.1711 23.5158L8.32617 23.516C9.08501 23.4367 9.79743 23.0158 10.2267 22.3198L10.275 22.2382L15.3377 13.3218C15.6247 12.9479 16.0666 12.7008 16.5666 12.6777L16.5488 12.679Z" fill="white"/>
    <path fill-rule="evenodd" clip-rule="evenodd" d="M16.5488 12.679L21.3625 12.6839L20.6662 13.9022L18.1583 18.2878L18.1597 18.2875H18.1801L17.3781 19.6882C16.7021 20.8681 17.0817 22.3702 18.2217 23.084L18.2925 23.1267C18.6137 23.3136 18.9589 23.4204 19.3055 23.4534L19.3056 23.5122H15.1728L15.1711 23.5158L8.32617 23.516C9.08501 23.4367 9.79743 23.0158 10.2267 22.3198L10.275 22.2382L15.3377 13.3218C15.6247 12.9479 16.0666 12.7008 16.5666 12.6777L16.5488 12.679Z" fill="#0CC19B" fill-opacity="0.5"/>
    <path fill-rule="evenodd" clip-rule="evenodd" d="M16.5488 12.679L21.3625 12.6839L20.6662 13.9022L18.1583 18.2878L18.1597 18.2875H18.1801L17.3781 19.6882C16.7021 20.8681 17.0817 22.3702 18.2217 23.084L18.2925 23.1267C18.6137 23.3136 18.9589 23.4204 19.3055 23.4534L19.3056 23.5122H15.1728L15.1711 23.5158L8.32617 23.516C9.08501 23.4367 9.79743 23.0158 10.2267 22.3198L10.275 22.2382L15.3377 13.3218C15.6247 12.9479 16.0666 12.7008 16.5666 12.6777L16.5488 12.679Z" fill="#003CB2"/>
</svg>
