<svg width="32" height="32" viewBox="0 0 32 32" fill="none" xmlns="http://www.w3.org/2000/svg">
    <path d="M16 32C24.8366 32 32 24.8366 32 16C32 7.16344 24.8366 0 16 0C7.16344 0 0 7.16344 0 16C0 24.8366 7.16344 32 16 32Z" fill="url(#paint0_linear_1176_11)"/>
    <path d="M3.85278 13.0739C5.07646 10.6253 6.27966 8.1664 7.50846 5.72032C12.631 5.73696 17.7536 5.70752 22.8749 5.72544C24.0537 8.14336 25.2476 10.554 26.4563 12.9574C23.8336 16.9152 21.2002 20.8661 18.5561 24.8102C16.8499 24.8013 15.1437 24.8 13.4374 24.8064C10.8057 20.8601 8.17705 16.9118 5.55134 12.9613C6.52414 11.0413 7.4547 9.1008 8.4339 7.18464C12.9203 7.2128 17.408 7.19104 21.8944 7.18848L21.9507 7.22176C22.8902 9.09184 23.7977 10.9798 24.759 12.8384C22.4525 16.3456 20.1049 19.8272 17.7805 23.3229C16.5939 23.3254 15.4069 23.3263 14.2195 23.3254C11.8988 19.8336 9.56282 16.352 7.25246 12.8524C7.95134 11.4611 8.63358 10.062 9.33246 8.67068C13.2313 8.66556 17.1315 8.6886 21.0317 8.66428C21.7088 10.0313 22.4064 11.392 23.0477 12.7756C21.0214 15.7977 19.0012 18.8241 16.9869 21.8546C16.3289 21.8546 15.671 21.8551 15.0131 21.8559C12.9894 18.8313 10.9837 15.7964 8.95486 12.7756C9.35422 11.8847 9.81886 11.0233 10.2425 10.1439C13.5245 10.1362 16.8077 10.1618 20.0909 10.1337C20.5337 10.9644 20.9421 11.8143 21.3568 12.6591C19.5597 15.328 17.7741 18.0041 16 20.6874C14.2169 17.9942 12.4318 15.3028 10.6445 12.6131C10.8109 12.2778 10.9888 11.9488 11.159 11.616C13.8457 11.6083 16.5312 11.6288 19.2166 11.6147C19.3996 11.9526 19.575 12.2944 19.7529 12.6362C18.4973 14.4294 17.245 16.2249 15.9961 18.0224C14.9094 16.3712 13.7894 14.7405 12.7206 13.0778C14.2476 13.0995 15.776 13.0868 17.3043 13.0868C17.3069 13.3389 17.3081 13.5924 17.3081 13.8445C16.2483 13.8458 15.1885 13.8522 14.1286 13.8445C14.7456 14.7943 15.3869 15.7287 16.0076 16.6772C16.9689 15.3088 17.9199 13.9316 18.8812 12.5632C18.8108 12.2855 18.5011 12.3956 18.3027 12.37C16.0703 12.3712 13.838 12.3853 11.6057 12.3661C11.4521 12.6093 11.7081 12.8103 11.8194 13.0061C13.2172 15.1091 14.6108 17.2143 16 19.3216C17.449 17.1494 18.889 14.9722 20.3405 12.8013C20.3686 12.7411 20.4237 12.6208 20.4505 12.5606C20.2086 12 19.9014 11.4701 19.6493 10.9133C16.6681 10.889 13.6857 10.9082 10.7033 10.912C10.4179 11.5098 10.1197 12.1011 9.8227 12.6925C11.68 15.4957 13.5526 18.2874 15.4073 21.0918C15.8054 21.0982 16.2035 21.1059 16.6016 21.0867C18.4486 18.2822 20.3226 15.4957 22.1721 12.6925C21.6345 11.6045 21.0991 10.5156 20.5657 9.42592C16.9805 9.4144 13.3965 9.431 9.81118 9.41824C9.2403 10.5434 8.69374 11.68 8.1203 12.8038C10.2899 16.0589 12.4565 19.3148 14.6201 22.5715C15.5405 22.5818 16.4604 22.5822 17.3798 22.5728C19.5392 19.3126 21.7041 16.0563 23.8745 12.8038C23.063 11.1948 22.2609 9.58161 21.4681 7.96412C17.2697 7.94236 13.0726 7.95512 8.8755 7.96156C8.07038 9.62048 7.23582 11.2627 6.42558 12.9178C8.9011 16.6234 11.3719 20.3328 13.8381 24.0461C15.2793 24.0461 16.7202 24.0469 18.1606 24.0486C20.631 20.3405 23.0873 16.6221 25.5693 12.9216C24.512 10.7738 23.4432 8.631 22.3846 6.4832C17.5795 6.47424 12.7744 6.47381 7.96926 6.48192C6.91582 8.61696 5.85897 10.7503 4.7987 12.8819C4.68222 13.0227 4.82686 13.1622 4.89598 13.2813C7.62238 17.3568 10.3415 21.437 13.0534 25.5219C15.0182 25.5206 16.9817 25.5245 18.9478 25.5206C21.7216 21.3619 24.4761 17.1904 27.2614 13.0394C26.1312 10.711 23.8221 6.07744 23.8221 6.07744L24.535 5.76C24.535 5.76 26.9427 10.633 28.1523 13.0662C25.2313 17.4797 22.2971 21.885 19.3497 26.2822C17.1161 26.272 14.8825 26.2797 12.6489 26.2771C9.71005 21.8803 6.77801 17.4793 3.85278 13.0739Z" fill="#FEFEFF"/>
    <defs>
        <linearGradient id="paint0_linear_1176_11" x1="0" y1="16" x2="32" y2="16" gradientUnits="userSpaceOnUse">
            <stop stop-color="#008ED4"/>
            <stop offset="0.37" stop-color="#008ED4"/>
            <stop offset="0.54" stop-color="#0071BA"/>
            <stop offset="0.74" stop-color="#3A57A7"/>
            <stop offset="1" stop-color="#3A57A6"/>
        </linearGradient>
    </defs>
</svg>
