<svg width="32" height="32" viewBox="0 0 32 32" fill="none" xmlns="http://www.w3.org/2000/svg">
    <path d="M32 16C32 24.8366 24.8366 32 16 32C7.16344 32 0 24.8366 0 16C0 7.16344 7.16344 0 16 0C24.8366 0 32 7.16344 32 16Z" fill="black"/>
    <path d="M16.9096 26.1389H13.7432H10.5769L6.13062 21.6926V18.5263V15.3599L10.6106 10.8799H13.7769H16.9432L21.4232 15.3599V18.5263V21.6926L16.9096 26.1389ZM13.7432 24.2526H16.1348L19.5369 20.8842V18.5263V16.1347L16.1685 12.7326H13.7769H11.3854L7.98325 16.1347V18.5263V20.9178L11.3517 24.2863H13.7432V24.2526Z" fill="white"/>
    <path d="M21.3895 21.6252H18.2232H15.0569L10.6106 17.1452V13.9789V10.8126L15.0906 6.33255H18.2569H21.4232L25.9032 10.8126V13.9789V17.1452L21.3895 21.6252ZM18.2569 19.7389H20.6485L24.0169 16.3704V13.9789V11.5873L20.6485 8.18518H18.2569H15.8653L12.4632 11.5536V13.9452V16.3368L15.8316 19.7052L18.2569 19.7389Z" fill="#38F997"/>
</svg>
