<svg width="32" height="32" viewBox="0 0 32 32" fill="none" xmlns="http://www.w3.org/2000/svg">
    <path d="M16 32C24.8366 32 32 24.8366 32 16C32 7.16344 24.8366 0 16 0C7.16344 0 0 7.16344 0 16C0 24.8366 7.16344 32 16 32Z" fill="url(#paint0_linear_947_781)"/>
    <path d="M20.4893 10.7673V10.7687C21.3934 10.7687 23.4526 10.7667 23.4526 10.7667L23.453 8.37455L17.493 8.37595V4.56582L14.5211 4.56663L14.5245 8.37451L14.0386 8.38014C13.1242 8.33134 12.2076 8.41517 11.3172 8.62904C10.6087 8.8163 9.95398 9.16704 9.40557 9.6531C9.01636 10.0193 8.70487 10.4602 8.48964 10.9493C8.27441 11.4385 8.15985 11.966 8.15279 12.5004C8.13377 12.8714 8.15332 13.2433 8.21113 13.6103C8.3078 14.3229 8.60638 14.9929 9.0716 15.5413C9.50832 16.0257 10.0386 16.4167 10.6305 16.6906C11.2223 16.9646 11.8635 17.1159 12.5154 17.1355C13.0634 17.1837 14.4376 17.1512 14.4376 17.1512L14.4342 14.7604L14.1471 14.7625C13.6384 14.7992 13.1272 14.7705 12.6258 14.6774C12.3778 14.6188 12.1438 14.5117 11.9374 14.3624C11.731 14.213 11.5562 14.0242 11.423 13.807C11.2296 13.4372 11.148 13.0192 11.1881 12.6039C11.1955 12.2423 11.308 11.8907 11.5118 11.5921C11.7128 11.3359 11.9697 11.1292 12.2629 10.9878C12.5562 10.8464 12.8779 10.774 13.2034 10.7762C13.541 10.7558 13.8794 10.7526 14.2174 10.7667H14.5243L14.5212 14.7605H17.493V10.7666L17.7975 10.7677C18.6948 10.7666 19.592 10.7664 20.4893 10.7673ZM14.5211 23.6029V27.4133L17.493 27.4131V23.5434C17.493 23.5434 18.3583 23.5299 18.6273 23.5362C19.3842 23.5764 20.1425 23.4886 20.8702 23.2766C21.6843 23.0333 22.4134 22.5655 22.9738 21.9267C23.474 21.3423 23.7802 20.6169 23.8501 19.8508C23.9503 19.1526 23.9019 18.4412 23.7081 17.7631C23.482 17.0126 23.0335 16.3485 22.4219 15.8584C21.456 15.1605 20.2975 14.7795 19.1059 14.7678C18.6801 14.7378 17.5851 14.7604 17.5851 14.7604V17.1512C18.2364 17.0935 18.8928 17.148 19.5257 17.3122C19.7733 17.3759 20.0039 17.4934 20.201 17.6562C20.3982 17.8191 20.557 18.0234 20.6663 18.2546C20.8592 18.6736 20.9177 19.1421 20.8338 19.5957C20.7851 19.9428 20.6324 20.2669 20.3959 20.5256C20.1594 20.7842 19.8502 20.9652 19.5088 21.0447C18.9822 21.1802 18.4382 21.2366 17.8949 21.2119C17.5229 21.2102 17.5007 21.2102 17.5007 21.2102L17.4964 17.2429H14.512L14.5197 21.2102L8.63313 21.213L8.63392 23.6012L14.5211 23.6029Z" fill="white"/>
    <defs>
        <linearGradient id="paint0_linear_947_781" x1="1.16113" y1="21.9953" x2="30.8389" y2="10.0047" gradientUnits="userSpaceOnUse">
            <stop stop-color="#004A28"/>
            <stop offset="0.5" stop-color="#0E9C45"/>
            <stop offset="0.75" stop-color="#59C43F"/>
            <stop offset="1" stop-color="#95D435"/>
        </linearGradient>
    </defs>
</svg>
