<svg width="32" height="32" viewBox="0 0 32 32" fill="none" xmlns="http://www.w3.org/2000/svg">
    <circle cx="16" cy="16" r="16" fill="white"/>
    <path d="M24.2768 24.2768C22.0656 26.488 19.1264 27.704 16 27.704C12.8736 27.704 9.93439 26.4864 7.72319 24.2768C6.31039 22.864 5.27999 21.1152 4.74079 19.216H1.25439C2.74879 26.104 8.93279 31.0896 16 31.0896C23.0672 31.0896 29.2512 26.1024 30.7456 19.216H27.2592C26.72 21.1152 25.6896 22.864 24.2768 24.2768Z" fill="url(#paint0_linear_1122_872)"/>
    <path d="M27.6385 14.7504C27.6833 15.1664 27.7041 15.5872 27.7041 16C27.7041 16.4144 27.6817 16.8336 27.6385 17.2496H31.0385C31.0737 16.8272 31.0913 16.4064 31.0913 16C31.0913 15.5936 31.0737 15.1728 31.0385 14.7504H27.6385V14.7504Z" fill="url(#paint1_linear_1122_872)"/>
    <path d="M4.29601 16C4.29601 15.5872 4.31841 15.1664 4.36161 14.7504H0.961613C0.926413 15.1712 0.908813 15.592 0.908813 16C0.908813 16.408 0.926413 16.8288 0.961613 17.2496H4.36161C4.31841 16.8336 4.29601 16.4128 4.29601 16Z" fill="url(#paint2_linear_1122_872)"/>
    <path d="M7.72319 7.72322C9.93439 5.51362 12.8736 4.29601 16 4.29601C19.1264 4.29601 22.0656 5.51362 24.2768 7.72482C25.6896 9.13603 26.72 10.8848 27.2592 12.784H30.7456C29.2512 5.89602 23.0672 0.9104 16 0.9104C8.93279 0.9104 2.74879 5.89602 1.25439 12.784H4.74079C5.27999 10.8848 6.31039 9.13763 7.72319 7.72322Z" fill="url(#paint3_linear_1122_872)"/>
    <path d="M16.5088 22.6416H15.568C15.3488 22.6416 15.2384 22.5312 15.2384 22.312V21.1056H15.128C14.3344 21.1056 13.7152 20.8784 13.2704 20.424C12.8256 19.9696 12.6048 19.3408 12.6048 18.536V18.2384C12.6048 18.0192 12.7136 17.9088 12.9344 17.9088H14.2656C14.4848 17.9088 14.5952 18.0192 14.5952 18.2384V18.3472C14.5952 18.744 14.6736 19.016 14.8304 19.1616C14.9872 19.3072 15.2736 19.3808 15.6928 19.3808H16.32C16.728 19.3808 17.0112 19.3024 17.1744 19.1456C17.336 18.9888 17.4176 18.696 17.4176 18.2688V18.0336C17.4176 17.7728 17.3392 17.5696 17.1824 17.4224C17.0256 17.2768 16.8432 17.1776 16.6336 17.1248C16.4464 17.0832 16.0768 17.0368 15.5296 16.984C14.9808 16.9312 14.5712 16.8672 14.2992 16.7888C14.0272 16.7104 13.7504 16.5776 13.4688 16.3888C12.8832 16.0128 12.592 15.2768 12.592 14.1792V13.6C12.592 12.7744 12.8144 12.1408 13.2576 11.696C13.7008 11.2512 14.3264 11.0304 15.1296 11.0304H15.24V9.79197C15.24 9.57277 15.3504 9.46237 15.5696 9.46237H16.5104C16.7296 9.46237 16.84 9.57277 16.84 9.79197V11.0304H16.872C17.6144 11.0304 18.1984 11.2608 18.6272 11.72C19.056 12.1792 19.2704 12.8064 19.2704 13.6V13.8976C19.2704 14.1168 19.16 14.2272 18.9408 14.2272H17.6096C17.3904 14.2272 17.28 14.1168 17.28 13.8976V13.7872C17.28 13.3904 17.2048 13.1184 17.0528 12.9728C16.9008 12.8272 16.6112 12.7536 16.1824 12.7536H15.6816C15.2528 12.7536 14.9632 12.8352 14.8112 12.9968C14.6592 13.1584 14.584 13.4752 14.584 13.9456V14.2592C14.584 14.4896 14.6624 14.6688 14.8192 14.8C14.976 14.9312 15.1536 15.0176 15.352 15.0592C15.5824 15.1008 15.9712 15.1456 16.52 15.192C17.0688 15.2384 17.4816 15.3072 17.7584 15.3952C18.0352 15.4832 18.3088 15.6224 18.5808 15.8112C19.1344 16.208 19.4112 16.9184 19.4112 17.9424V18.5376C19.4112 19.352 19.184 19.9856 18.7296 20.4336C18.2752 20.8832 17.656 21.1072 16.872 21.1072H16.84V22.3136C16.8384 22.5312 16.728 22.6416 16.5088 22.6416Z" fill="url(#paint4_linear_1122_872)"/>
    <defs>
        <linearGradient id="paint0_linear_1122_872" x1="-38.3177" y1="75.2141" x2="24.2132" y2="12.6832" gradientUnits="userSpaceOnUse">
            <stop offset="0.84" stop-color="#8568C5"/>
            <stop offset="1" stop-color="#783989"/>
        </linearGradient>
        <linearGradient id="paint1_linear_1122_872" x1="68.191" y1="-30.3018" x2="14.1382" y2="34.1174" gradientUnits="userSpaceOnUse">
            <stop offset="0.8849" stop-color="#793E90"/>
            <stop offset="1" stop-color="#783989"/>
        </linearGradient>
        <linearGradient id="paint2_linear_1122_872" x1="52.5365" y1="-43.437" x2="-1.5163" y2="20.9821" gradientUnits="userSpaceOnUse">
            <stop offset="0.373" stop-color="#8568C5"/>
            <stop offset="0.6215" stop-color="#8568C5"/>
        </linearGradient>
        <linearGradient id="paint3_linear_1122_872" x1="-12.0031" y1="60.5775" x2="25.4267" y2="-4.25267" gradientUnits="userSpaceOnUse">
            <stop offset="0.557" stop-color="#8568C5"/>
            <stop offset="1" stop-color="#783989"/>
        </linearGradient>
        <linearGradient id="paint4_linear_1122_872" x1="12.4272" y1="19.6638" x2="19.6512" y2="12.4398" gradientUnits="userSpaceOnUse">
            <stop offset="0.0666059" stop-color="#8568C5"/>
            <stop offset="0.278" stop-color="#8055AD"/>
            <stop offset="0.5176" stop-color="#7B4599"/>
            <stop offset="0.7583" stop-color="#793C8D"/>
            <stop offset="1" stop-color="#783989"/>
        </linearGradient>
    </defs>
</svg>
