<svg width="32" height="32" viewBox="0 0 32 32" fill="none" xmlns="http://www.w3.org/2000/svg">
<path d="M32 16C32 24.8366 24.8366 32 16 32C7.16344 32 0 24.8366 0 16C0 7.16344 7.16344 0 16 0C24.8366 0 32 7.16344 32 16Z" fill="#009393"/>
<path fill-rule="evenodd" clip-rule="evenodd" d="M9.79135 8H22.4631C22.7655 8 23.0448 8.16175 23.1956 8.42416L26.8874 14.8488C27.0788 15.182 27.022 15.6025 26.7489 15.8727L16.5871 25.9264C16.2579 26.2521 15.7284 26.2521 15.3992 25.9264L5.25112 15.8862C4.97169 15.6098 4.91937 15.177 5.12485 14.8417L9.0711 8.40355C9.22479 8.15281 9.49751 8 9.79135 8ZM20.827 10.8684V12.671H17.2173V13.9209C19.7525 14.0544 21.6546 14.603 21.6687 15.2605L21.6686 16.6312C21.6545 17.2887 19.7525 17.8373 17.2173 17.9708V21.0381H14.8204V17.9708C12.2852 17.8373 10.3831 17.2887 10.369 16.6312L10.3691 15.2605C10.3832 14.603 12.2852 14.0544 14.8204 13.9209V12.671H11.2107V10.8684H20.827ZM16.0189 17.0292C18.7243 17.0292 20.9857 16.5653 21.5391 15.9459C21.0698 15.4206 19.3723 15.0071 17.2173 14.8936V16.2022C16.8311 16.2225 16.4301 16.2333 16.0189 16.2333C15.6076 16.2333 15.2067 16.2225 14.8204 16.2022V14.8936C12.6654 15.0071 10.9679 15.4206 10.4986 15.9459C11.052 16.5653 13.3133 17.0292 16.0189 17.0292Z" fill="white"/>
</svg>
