<svg width="32" height="32" viewBox="0 0 32 32" fill="none" xmlns="http://www.w3.org/2000/svg">
    <path d="M16 32C24.8366 32 32 24.8366 32 16C32 7.16344 24.8366 0 16 0C7.16344 0 0 7.16344 0 16C0 24.8366 7.16344 32 16 32Z" fill="#112451"/>
    <path d="M12.7176 7.36386C14.2231 6.69474 15.8829 6.45001 17.5174 6.65615C19.1519 6.86228 20.6989 7.51143 21.9911 8.53337C21.2689 8.24047 20.4817 8.14534 19.7105 8.25778C18.4174 8.42093 17.1502 8.74744 15.9393 9.22947C14.8289 9.63935 13.792 10.2258 12.8686 10.9663C12.4649 11.2996 12.1239 11.7023 11.8618 12.1555C11.3211 11.819 10.8683 11.3587 10.5406 10.8127C11.3317 10.4646 12.0646 9.99677 12.7134 9.4257C13.0647 9.13052 13.3226 8.73954 13.4557 8.30039C13.4854 8.19534 13.4925 8.08516 13.4764 7.97716C13.4604 7.86916 13.4215 7.76582 13.3624 7.674C13.1932 7.49441 12.9635 7.38392 12.7176 7.36386V7.36386Z" fill="#0E3CA5"/>
    <path d="M10.955 7.7634C11.4795 7.43228 12.1017 7.29125 12.7177 7.36388C12.9636 7.38393 13.1933 7.49442 13.3625 7.674C13.4215 7.76582 13.4604 7.86916 13.4765 7.97716C13.4926 8.08516 13.4855 8.19534 13.4557 8.30039C13.3227 8.73954 13.0648 9.13052 12.7135 9.4257C12.0646 9.99677 11.3318 10.4646 10.5406 10.8127C9.7429 11.1916 8.90364 11.476 8.03993 11.6602C7.82407 11.7035 7.60295 11.7145 7.38385 11.6928C7.45807 11.529 7.54046 11.369 7.63073 11.2135C8.42972 9.80123 9.57337 8.61429 10.955 7.7634V7.7634Z" fill="#5493F7"/>
    <path d="M19.7105 8.25779C20.4817 8.14535 21.2689 8.24048 21.9912 8.53338C22.1716 8.66131 22.3419 8.80308 22.5004 8.95743C23.8951 10.2745 24.8626 11.9798 25.2777 13.8527C25.3288 14.202 12.8861 15.8734 12.6412 15.5253C12.0919 15.0254 11.7183 14.3618 11.5759 13.6329C11.5083 13.1225 11.6087 12.6039 11.8618 12.1555C12.1239 11.7023 12.4649 11.2996 12.8687 10.9663C13.792 10.2259 14.8289 9.63936 15.9393 9.22948C17.1502 8.74745 18.4174 8.42094 19.7105 8.25779V8.25779Z" fill="#5493F7"/>
    <path d="M6.99199 12.5947C7.50608 13.2682 8.06954 13.9017 8.6075 14.5559C9.34152 15.4865 10.0145 16.4637 10.6222 17.4813C10.9821 17.949 11.2534 23.8284 10.6251 23.8284C9.88935 23.3327 9.22597 22.7372 8.65399 22.059C7.50216 20.6992 6.75652 19.0425 6.50246 17.2786C6.44246 16.9314 6.43501 16.578 6.40112 16.2275V15.587C6.43372 15.2375 6.44112 14.8851 6.5002 14.5388C6.59296 13.8748 6.75786 13.2229 6.99199 12.5947V12.5947Z" fill="#5493F7"/>
    <path d="M18.5723 19.1363C18.5714 18.8608 18.5714 18.5853 18.5723 18.3099C18.5717 18.0298 18.5723 17.7497 18.5717 17.4695C18.5717 17.191 18.5718 16.9127 18.572 16.6347C18.572 16.3523 18.5723 16.0696 18.5714 15.7872C18.572 15.5016 18.5721 15.216 18.5717 14.9304C16.2286 15.282 13.8669 15.4951 11.4988 15.5687C11.3568 15.5616 11.2144 15.5684 11.0738 15.5891C10.949 15.6226 10.8381 15.695 10.7572 15.7958C10.6764 15.8966 10.6298 16.0205 10.6242 16.1496C10.6191 16.5937 10.6268 17.0377 10.6207 17.4818C10.6274 18.8104 10.6203 20.139 10.6245 21.4676C11.0202 21.4589 11.4162 21.4618 11.8121 21.448C12.2997 21.4418 12.7864 21.3983 13.274 21.387C13.437 21.3824 13.5996 21.3715 13.762 21.356C14.2444 21.3218 14.7266 21.283 15.2077 21.2356C15.7793 21.184 16.3498 21.1207 16.9197 21.052C17.2647 21.0097 17.609 20.9622 17.954 20.9222C18.1577 20.8848 18.3645 20.868 18.5678 20.8293C18.5756 20.5495 18.5704 20.2691 18.5717 19.9893C18.5723 19.7047 18.5717 19.4203 18.5723 19.1363Z" fill="#0828A7"/>
    <path d="M11.3093 18.8033C11.2428 18.7607 11.1789 18.7149 11.115 18.6691L10.9162 18.8211C10.9411 18.7397 10.9666 18.6587 10.9885 18.5768C10.9288 18.5335 10.8691 18.4909 10.8113 18.4454C10.8862 18.4409 10.9617 18.439 11.0369 18.4364C11.0607 18.3595 11.0886 18.2838 11.1205 18.2099C11.146 18.2815 11.1712 18.3538 11.1947 18.4264C11.268 18.4296 11.3416 18.4325 11.4151 18.4383C11.3603 18.4864 11.3031 18.5316 11.2457 18.5761C11.2677 18.6516 11.2896 18.7272 11.3093 18.8033Z" fill="white"/>
    <path d="M11.0382 19.5975C11.0618 19.5275 11.0876 19.4584 11.1169 19.391C11.144 19.4584 11.1705 19.5262 11.195 19.5949C11.2718 19.5975 11.3486 19.5985 11.4251 19.6027C11.3674 19.652 11.3073 19.6992 11.247 19.7459C11.2676 19.8202 11.2883 19.895 11.3057 19.9706C11.2402 19.9316 11.1773 19.8886 11.114 19.847C11.0488 19.8934 10.9843 19.9409 10.9198 19.988C10.9433 19.9082 10.9666 19.8282 10.9853 19.7472C10.9236 19.7024 10.8623 19.6565 10.8026 19.6084C10.881 19.6036 10.9595 19.601 11.0382 19.5975Z" fill="white"/>
    <path d="M11.3103 21.153C11.2448 21.1081 11.1799 21.062 11.1157 21.0152C11.0515 21.0633 10.9872 21.1114 10.9221 21.1578C10.9465 21.084 10.9665 21.0088 10.9821 20.9326C10.9312 20.8763 10.8735 20.8265 10.8104 20.7845C10.8862 20.7799 10.9624 20.777 11.0382 20.7748C11.0627 20.7028 11.0885 20.6318 11.1199 20.5628C11.1486 20.6335 11.1747 20.7054 11.1992 20.778C11.2777 20.7751 11.3561 20.7732 11.4345 20.7722C11.3725 20.8235 11.309 20.8722 11.2454 20.922C11.2674 20.9987 11.2906 21.0755 11.3103 21.153Z" fill="white"/>
    <path d="M11.2464 17.4031C11.2677 17.4795 11.2899 17.5561 11.3099 17.6328C11.2444 17.5902 11.1808 17.545 11.1173 17.5005C11.0569 17.5421 10.9966 17.5844 10.9346 17.6238C10.9491 17.5534 10.9714 17.4844 10.9795 17.4127C10.9263 17.3567 10.8677 17.3062 10.8046 17.2617C10.882 17.2562 10.9595 17.254 11.0372 17.2517C11.0631 17.1817 11.0898 17.1123 11.1208 17.0446C11.1524 17.1114 11.1589 17.1966 11.2125 17.2501C11.2867 17.2566 11.3616 17.2537 11.4361 17.255C11.3738 17.3056 11.3099 17.3537 11.2464 17.4031Z" fill="white"/>
    <path d="M11.246 16.2255C11.2673 16.301 11.2883 16.3765 11.3063 16.4533C11.2402 16.4133 11.1766 16.3691 11.1121 16.3265C11.0478 16.3755 10.9833 16.4246 10.9181 16.4723C10.9426 16.3913 10.9672 16.3107 10.9872 16.2283C10.9265 16.1857 10.8665 16.1422 10.8087 16.096C10.8852 16.0902 10.962 16.0867 11.0385 16.0825C11.0617 16.0118 11.0872 15.9418 11.1166 15.8734C11.1453 15.9418 11.1721 16.0112 11.195 16.0818C11.2757 16.0847 11.3567 16.0847 11.4377 16.0867C11.3742 16.1335 11.3106 16.18 11.246 16.2255Z" fill="white"/>
    <path d="M18.0337 15.5226C18.0537 15.4484 18.0753 15.3751 18.0995 15.3022C18.1295 15.3719 18.1576 15.4426 18.1877 15.5123C18.2697 15.5023 18.3516 15.4903 18.4336 15.4794C18.3684 15.5349 18.3029 15.5897 18.237 15.6446C18.2567 15.7208 18.2783 15.7969 18.2977 15.8734C18.2338 15.8376 18.1705 15.8011 18.1073 15.7646C18.0434 15.8198 17.9789 15.8746 17.9104 15.9241C17.9317 15.845 17.9566 15.7669 17.9801 15.6885C17.9166 15.652 17.854 15.6146 17.7917 15.5762C17.8724 15.5578 17.953 15.5407 18.0337 15.5226Z" fill="white"/>
    <path d="M17.3321 16.2045C17.3531 16.1283 17.374 16.0522 17.3976 15.9767C17.4343 16.0433 17.4608 16.1151 17.476 16.1897C17.5535 16.1842 17.6309 16.1774 17.7084 16.1742C17.6464 16.2264 17.5889 16.2837 17.5364 16.3455C17.5544 16.4149 17.5806 16.4817 17.5996 16.5511C17.5338 16.5175 17.4692 16.4814 17.4056 16.444C17.3414 16.4982 17.2765 16.5517 17.2091 16.6021C17.2291 16.5275 17.2556 16.4546 17.273 16.3794C17.2232 16.3271 17.1655 16.283 17.102 16.2487C17.1782 16.2319 17.255 16.2177 17.3321 16.2045Z" fill="white"/>
    <path d="M16.8332 15.835C16.8545 15.907 16.8765 15.9789 16.8971 16.0515C16.8306 16.0173 16.7651 15.9812 16.6993 15.9457C16.6477 15.9938 16.596 16.0422 16.5428 16.0883H16.5147C16.5357 16.0135 16.5564 15.9386 16.577 15.8637C16.516 15.8243 16.4556 15.7846 16.3969 15.7427C16.4698 15.733 16.5434 15.7243 16.617 15.7163C16.6502 15.6398 16.6809 15.5626 16.7132 15.4858C16.7367 15.5523 16.7593 15.6188 16.7816 15.6859C16.8203 15.683 16.859 15.6801 16.8981 15.6775C16.9384 15.6746 16.9791 15.6724 17.0197 15.6704C16.9591 15.7269 16.8965 15.7814 16.8332 15.835Z" fill="white"/>
    <path d="M15.9354 16.3671C15.9557 16.2926 15.9786 16.2187 16.0031 16.1454C16.0331 16.2129 16.0609 16.2816 16.0893 16.35C16.1642 16.3481 16.2394 16.3458 16.3149 16.3458C16.2529 16.3938 16.1961 16.448 16.1451 16.5075C16.1608 16.5827 16.1813 16.6569 16.2065 16.7295C16.1416 16.6901 16.0774 16.6501 16.0122 16.6111C15.947 16.6624 15.8825 16.7146 15.815 16.7631C15.8357 16.6853 15.8589 16.6085 15.8808 16.5313C15.8237 16.4913 15.7666 16.4516 15.7117 16.4093C15.7856 16.393 15.8605 16.38 15.9354 16.3671Z" fill="white"/>
    <path d="M15.2351 15.8572C15.2551 15.7771 15.2822 15.6989 15.3161 15.6236C15.3384 15.6933 15.359 15.7637 15.379 15.8343C15.4575 15.8301 15.5359 15.8272 15.6146 15.8295C15.5565 15.884 15.4962 15.9363 15.4362 15.9892C15.4623 16.0618 15.4855 16.1357 15.5046 16.2109C15.4391 16.1735 15.3752 16.1328 15.3116 16.0925C15.2451 16.1454 15.1789 16.1987 15.1102 16.2487C15.1322 16.1729 15.1612 16.099 15.1789 16.0218C15.1259 15.9708 15.0677 15.9254 15.0053 15.8863C15.0818 15.876 15.1584 15.8663 15.2351 15.8572Z" fill="white"/>
    <path d="M14.8037 19.1986C14.7362 19.1651 14.6714 19.1273 14.6071 19.0889C14.5494 19.137 14.4906 19.1841 14.429 19.2277C14.4425 19.1508 14.4603 19.0747 14.4822 18.9998C14.4193 18.9605 14.3574 18.9192 14.298 18.875C14.3751 18.866 14.4526 18.8591 14.53 18.8527C14.5581 18.7756 14.5865 18.6984 14.6142 18.621C14.6403 18.6916 14.6639 18.7633 14.6868 18.8356C14.7646 18.8336 14.8424 18.832 14.9205 18.8314C14.8601 18.8843 14.7982 18.935 14.7372 18.9866C14.7601 19.057 14.7837 19.127 14.8037 19.1986Z" fill="white"/>
    <path d="M14.802 18.0265C14.7398 17.9849 14.6722 17.9522 14.6009 17.9294C14.5387 17.9672 14.4844 18.0162 14.426 18.0595C14.4406 17.9826 14.4606 17.9071 14.4812 17.8319C14.4196 17.79 14.3576 17.7484 14.2982 17.7032C14.3747 17.6958 14.4512 17.6912 14.5277 17.6867C14.558 17.6047 14.5845 17.5215 14.6132 17.4389C14.64 17.515 14.6648 17.5919 14.6897 17.669C14.7687 17.6609 14.8475 17.6525 14.9269 17.6464C14.8578 17.6979 14.7958 17.7583 14.7426 17.8261C14.7588 17.8939 14.783 17.9594 14.802 18.0265Z" fill="white"/>
    <path d="M14.1098 17.5099C14.0453 17.4699 13.9817 17.4285 13.9185 17.3872C13.852 17.4342 13.7831 17.4775 13.7119 17.517C13.7406 17.4447 13.7626 17.3701 13.7855 17.2962C13.721 17.2533 13.6567 17.2104 13.5935 17.1662C13.6713 17.1613 13.7493 17.1567 13.8275 17.1523C13.8394 17.1165 13.8514 17.0806 13.8643 17.0451C13.8798 17.0032 13.8959 16.9616 13.9124 16.9203C13.9398 16.9903 13.9656 17.061 13.9908 17.1323C14.0686 17.1281 14.146 17.1233 14.2241 17.121C14.1647 17.1771 14.1031 17.2304 14.0411 17.2836C14.0634 17.3592 14.0869 17.4343 14.1098 17.5099Z" fill="white"/>
    <path d="M13.8681 19.39C13.8829 19.351 13.8978 19.3122 13.9123 19.2735C13.9397 19.3413 13.9659 19.4097 13.9917 19.4784C14.0672 19.4758 14.143 19.4736 14.2185 19.4726C14.1556 19.5208 14.0989 19.5766 14.0498 19.6388C14.0652 19.7142 14.0859 19.7884 14.1118 19.8608C14.0459 19.8169 13.9804 19.7724 13.9152 19.7278C13.8588 19.773 13.8023 19.8182 13.7452 19.863C13.7474 19.7891 13.7581 19.7157 13.7772 19.6442C13.7223 19.6016 13.6665 19.56 13.611 19.5184C13.7096 19.5039 13.8497 19.52 13.8681 19.39Z" fill="white"/>
    <path d="M13.1365 16.6018C13.1586 16.5229 13.1856 16.4455 13.2175 16.3701C13.2407 16.4427 13.2639 16.5156 13.2862 16.5889C13.3646 16.5876 13.4434 16.5856 13.5221 16.5882C13.4647 16.6418 13.404 16.6918 13.3427 16.7408C13.3653 16.8141 13.3863 16.8877 13.404 16.9622C13.3385 16.9258 13.2759 16.8851 13.2123 16.8457C13.1465 16.8951 13.081 16.9451 13.0135 16.9922C13.0358 16.9164 13.0652 16.8425 13.081 16.7647C13.023 16.707 12.9574 16.6575 12.886 16.6176C12.9696 16.6127 13.0529 16.6072 13.1365 16.6018Z" fill="white"/>
    <path d="M13.4073 18.1453C13.3424 18.102 13.2777 18.0586 13.213 18.0149C13.1491 18.0646 13.0852 18.1153 13.0184 18.1614C13.0387 18.0843 13.0623 18.0081 13.0846 17.932C13.0239 17.8855 12.9623 17.8407 12.9036 17.7926C12.9797 17.7842 13.0566 17.7797 13.133 17.7761C13.1551 17.7 13.1845 17.6262 13.2208 17.5557C13.2434 17.6231 13.2653 17.6909 13.2866 17.759C13.3638 17.7613 13.4406 17.7638 13.518 17.7687C13.4628 17.8207 13.3867 17.8565 13.3502 17.9246C13.3644 17.9991 13.3889 18.0714 13.4073 18.1453Z" fill="white"/>
    <path d="M12.7063 17.5802C12.646 17.547 12.5895 17.5067 12.5269 17.4776C12.4501 17.4886 12.3936 17.5576 12.3249 17.5912C12.343 17.5186 12.3659 17.4476 12.3904 17.3772C12.3281 17.3298 12.2655 17.283 12.2048 17.2333C12.2823 17.23 12.3594 17.2268 12.4368 17.2243C12.4623 17.1426 12.4904 17.0616 12.5175 16.9806C12.5433 17.0584 12.5669 17.1371 12.5911 17.2156C12.6711 17.2136 12.7512 17.2107 12.8312 17.2117C12.7695 17.2627 12.7053 17.3111 12.6398 17.3572C12.6634 17.4311 12.687 17.505 12.7063 17.5802Z" fill="white"/>
    <path d="M12.0125 18.2008C11.946 18.1598 11.8815 18.1153 11.8173 18.0707C11.753 18.1182 11.6895 18.1663 11.6249 18.2131C11.6427 18.1327 11.6649 18.0533 11.6866 17.9743C11.622 17.93 11.5584 17.8851 11.4958 17.8394C11.5704 17.8374 11.6456 17.8404 11.7201 17.8319C11.7808 17.7735 11.7814 17.6741 11.8137 17.5979C11.844 17.6726 11.8702 17.7489 11.8921 17.8264C11.9699 17.8271 12.0477 17.8274 12.1255 17.8303C12.0667 17.879 12.0061 17.9248 11.9445 17.9694C11.9667 18.0469 11.9915 18.1233 12.0125 18.2008Z" fill="white"/>
    <path d="M11.7378 18.9989C11.763 18.9269 11.7882 18.8553 11.8143 18.7836C11.844 18.8511 11.8689 18.9201 11.8927 18.9898C11.9708 18.9918 12.0486 18.9927 12.1267 18.9956C12.067 19.0492 12.0051 19.1002 11.9434 19.1512C11.9673 19.2267 11.9925 19.3019 12.0154 19.3781C11.9483 19.3348 11.8831 19.289 11.817 19.2441C11.7534 19.2906 11.6908 19.3377 11.625 19.3813C11.6434 19.3045 11.6653 19.2287 11.6902 19.1541C11.6295 19.1102 11.5695 19.065 11.512 19.0169C11.5871 19.0092 11.6623 19.004 11.7378 18.9989Z" fill="white"/>
    <path d="M12.0144 20.5492C11.946 20.5066 11.8802 20.4601 11.8147 20.414C11.7514 20.4647 11.6875 20.514 11.623 20.5634C11.642 20.483 11.6636 20.404 11.6862 20.3246C11.6281 20.2801 11.5701 20.2352 11.5142 20.1884C11.5897 20.1807 11.6659 20.1768 11.7421 20.1729C11.7643 20.0984 11.7882 20.0241 11.8131 19.9506C11.8448 20.023 11.8708 20.0977 11.8908 20.1742C11.9741 20.1719 12.057 20.1684 12.14 20.1661C12.0745 20.2175 12.0087 20.2687 11.9428 20.3198C11.9667 20.3959 11.9918 20.4721 12.0144 20.5492Z" fill="white"/>
    <path d="M11.9441 16.8018C11.967 16.8773 11.9912 16.9522 12.0118 17.0284C11.9447 16.9864 11.8795 16.9416 11.8134 16.8977C11.7508 16.9474 11.6878 16.9964 11.6239 17.0448C11.6433 16.9638 11.6652 16.8841 11.6882 16.8044C11.623 16.7592 11.5581 16.7134 11.4942 16.6666C11.5771 16.6605 11.6601 16.6569 11.7433 16.6527C11.7653 16.5792 11.7888 16.5056 11.8133 16.4326C11.8441 16.5034 11.8701 16.5762 11.8911 16.6505C11.9747 16.6492 12.058 16.6469 12.1415 16.6469C12.0761 16.6989 12.0099 16.7499 11.9441 16.8018Z" fill="white"/>
    <path d="M12.4265 16.0434C12.4664 15.9696 12.4955 15.8905 12.513 15.8085C12.5343 15.8882 12.5711 15.9624 12.5921 16.0425C12.6695 16.0409 12.747 16.038 12.8245 16.0351C12.7641 16.0912 12.7018 16.1448 12.6415 16.2006C12.6663 16.2706 12.6895 16.3413 12.7083 16.4133C12.6411 16.3743 12.5763 16.3313 12.5127 16.2868C12.4531 16.335 12.3911 16.38 12.3268 16.4217C12.3436 16.3488 12.3658 16.2768 12.3891 16.2058C12.3252 16.1564 12.2603 16.108 12.1984 16.0567C12.2742 16.0525 12.3507 16.0528 12.4265 16.0434Z" fill="white"/>
    <path d="M12.4349 18.3938C12.4633 18.3131 12.4882 18.2311 12.5143 18.1495C12.5405 18.2276 12.5647 18.3063 12.5908 18.3847C12.6699 18.3834 12.7489 18.3825 12.828 18.3831C12.768 18.436 12.7054 18.4864 12.6434 18.5371C12.6647 18.6087 12.6863 18.6803 12.7041 18.7533C12.642 18.7102 12.5759 18.6734 12.5066 18.6433C12.444 18.6823 12.3865 18.7288 12.3252 18.7701C12.3433 18.6939 12.3662 18.6194 12.3891 18.5452C12.3252 18.5003 12.2613 18.4552 12.199 18.408C12.2775 18.4002 12.3562 18.3964 12.4349 18.3938Z" fill="white"/>
    <path d="M12.706 21.0975C12.6382 21.0665 12.5798 21.0049 12.5046 20.9955C12.442 21.0271 12.3875 21.072 12.3278 21.1087C12.3446 21.0358 12.3659 20.9642 12.3872 20.8925C12.3249 20.8454 12.2626 20.7989 12.2003 20.7518C12.2791 20.747 12.3578 20.7421 12.4369 20.7386C12.4636 20.6586 12.4895 20.5782 12.5169 20.4988C12.5433 20.575 12.5666 20.6528 12.5901 20.7299C12.6698 20.7276 12.7499 20.725 12.8299 20.726C12.7686 20.7815 12.704 20.8332 12.6398 20.8854C12.6641 20.9552 12.687 21.0258 12.706 21.0975Z" fill="white"/>
    <path d="M12.6398 19.7069C12.664 19.7805 12.6879 19.8544 12.7076 19.9296C12.6263 19.9028 12.5421 19.765 12.4572 19.8489C12.4133 19.8789 12.37 19.9099 12.3255 19.9396C12.3429 19.8696 12.3659 19.8011 12.3817 19.7311C12.3282 19.6733 12.2677 19.6225 12.2016 19.5797C12.28 19.5762 12.3584 19.5739 12.4369 19.5713C12.4617 19.4903 12.4859 19.4097 12.513 19.33C12.5395 19.4097 12.5695 19.4884 12.5956 19.5684C12.6805 19.5617 12.7654 19.5559 12.8502 19.5481C12.7796 19.6004 12.7102 19.6543 12.6398 19.7069Z" fill="white"/>
    <path d="M13.4047 20.4811C13.3395 20.4434 13.2762 20.403 13.2127 20.3633C13.1471 20.412 13.0823 20.4617 13.0155 20.5089C13.0371 20.4337 13.0655 20.3601 13.08 20.283C13.0212 20.2253 12.9555 20.1751 12.8845 20.1335C12.9684 20.1277 13.0524 20.1215 13.1365 20.1148C13.1607 20.038 13.1862 19.9615 13.2178 19.8876C13.2407 19.9602 13.2633 20.0335 13.2856 20.1068C13.362 20.1078 13.4386 20.1078 13.5153 20.111C13.4601 20.163 13.4023 20.2113 13.3446 20.26C13.366 20.3333 13.3869 20.4066 13.4047 20.4811Z" fill="white"/>
    <path d="M13.3395 19.0867C13.3656 19.1609 13.3879 19.2361 13.4069 19.3126C13.3404 19.2735 13.2762 19.2303 13.2117 19.1883C13.1462 19.2403 13.0807 19.2926 13.0135 19.3422C13.0364 19.2612 13.0619 19.1809 13.0845 19.0999C13.0232 19.0566 12.9622 19.0131 12.9038 18.9663C12.9816 18.9605 13.0597 18.9569 13.1375 18.954C13.157 18.8752 13.1831 18.7981 13.2156 18.7236C13.2436 18.7956 13.2701 18.8685 13.2959 18.9418C13.3772 18.9347 13.4589 18.9282 13.5405 18.925C13.4756 18.9815 13.4072 19.0337 13.3395 19.0867Z" fill="white"/>
    <path d="M13.8684 15.8721C13.883 15.8334 13.8972 15.7947 13.9114 15.7559C13.9401 15.8237 13.9665 15.8921 13.9934 15.9605C14.0679 15.9599 14.1424 15.9589 14.2174 15.9586C14.1547 16.0054 14.0982 16.06 14.0492 16.1209C14.0649 16.196 14.086 16.2699 14.1125 16.342C14.0476 16.2987 13.9824 16.256 13.9169 16.2139C13.8549 16.2581 13.7927 16.3026 13.7275 16.3429C13.7408 16.2695 13.7589 16.1971 13.7817 16.1261C13.7178 16.0822 13.6533 16.0386 13.5894 15.9947C13.6896 15.9744 13.8484 16.0099 13.8684 15.8721Z" fill="white"/>
    <path d="M14.1069 21.0271C14.0433 20.9881 13.9807 20.9474 13.9178 20.9074C13.8539 20.9503 13.791 20.9949 13.7258 21.0358C13.7404 20.9605 13.7598 20.8861 13.7839 20.8132C13.72 20.7709 13.6558 20.7289 13.5909 20.6886C13.6903 20.668 13.8513 20.7018 13.8675 20.564L13.9117 20.4385C13.9388 20.5072 13.9649 20.5763 13.9907 20.646C14.0666 20.645 14.1427 20.6437 14.2189 20.6444C14.1614 20.6986 14.1017 20.7509 14.0424 20.8032C14.0637 20.8777 14.0856 20.9523 14.1069 21.0271Z" fill="white"/>
    <path d="M14.0433 18.449C14.0637 18.5261 14.0846 18.6026 14.105 18.6797C14.0401 18.6391 13.9762 18.5974 13.912 18.5565C13.8536 18.6062 13.7949 18.6556 13.7361 18.7049C13.7423 18.6266 13.7568 18.5491 13.7793 18.4738C13.7225 18.4309 13.6661 18.3874 13.6112 18.3422C13.6838 18.3319 13.7571 18.3238 13.83 18.316C13.8403 18.2867 13.851 18.2576 13.8616 18.2286C13.8774 18.1873 13.8936 18.146 13.91 18.105C13.9372 18.1711 13.9639 18.237 13.9917 18.3031L14.2363 18.2954C14.1721 18.3467 14.1078 18.3979 14.0433 18.449Z" fill="white"/>
    <path d="M14.5313 16.5043C14.5597 16.4259 14.5881 16.3478 14.6145 16.269C14.6407 16.3433 14.6642 16.4188 14.6865 16.4946C14.7659 16.4888 14.8453 16.4827 14.9247 16.4785C14.8637 16.5346 14.7995 16.5876 14.7359 16.6408C14.7598 16.7141 14.7849 16.7873 14.8066 16.8615C14.7398 16.8241 14.6743 16.7838 14.6097 16.7425C14.551 16.7899 14.4919 16.8367 14.43 16.8799C14.4432 16.8067 14.4613 16.7347 14.4806 16.6631C14.42 16.6169 14.358 16.5731 14.296 16.5285C14.3744 16.5191 14.4528 16.5114 14.5313 16.5043Z" fill="white"/>
    <path d="M14.8133 20.384C14.7485 20.3456 14.6862 20.3027 14.6193 20.2672C14.553 20.3063 14.4894 20.3499 14.4289 20.3976C14.4431 20.3249 14.4612 20.2533 14.4806 20.1823C14.4206 20.1349 14.3589 20.09 14.2979 20.0445C14.3754 20.0384 14.4528 20.0332 14.5306 20.0277C14.559 19.9474 14.5864 19.8667 14.6164 19.7867C14.6406 19.8619 14.6629 19.9377 14.6842 20.0142C14.7659 20.0058 14.8475 19.9967 14.9298 19.9926C14.8662 20.0503 14.7998 20.1046 14.7339 20.1591C14.7607 20.2339 14.7882 20.3084 14.8133 20.384Z" fill="white"/>
    <path d="M15.2341 17.0251C15.2571 16.9454 15.2841 16.8669 15.3151 16.7899C15.3387 16.8648 15.3606 16.9403 15.3832 17.0158C15.4662 17.0106 15.5488 17.0029 15.6317 16.9964C15.5675 17.0522 15.502 17.1061 15.4358 17.1597C15.461 17.2326 15.4846 17.3059 15.5043 17.3808C15.4381 17.344 15.3736 17.3049 15.3093 17.2652C15.2461 17.3166 15.1831 17.3688 15.1163 17.4162C15.1347 17.3388 15.1589 17.2632 15.1825 17.1878C15.1218 17.1429 15.0595 17.1003 14.9982 17.0564C15.0767 17.0442 15.1554 17.0345 15.2341 17.0251Z" fill="white"/>
    <path d="M15.5049 19.7295C15.4394 19.6914 15.3755 19.6514 15.3116 19.6107C15.2454 19.663 15.1796 19.7156 15.1112 19.765C15.1338 19.6875 15.1596 19.6111 15.1857 19.5346C15.1247 19.4929 15.0644 19.451 15.006 19.4061C15.0818 19.3916 15.1586 19.38 15.2354 19.3687C15.2567 19.2909 15.2838 19.2149 15.3164 19.1412C15.3384 19.2118 15.3592 19.2831 15.379 19.3548C15.4565 19.3522 15.5343 19.3493 15.6124 19.3513C15.5546 19.4048 15.4952 19.4558 15.4368 19.5081C15.4626 19.5807 15.4859 19.6546 15.5049 19.7295Z" fill="white"/>
    <path d="M15.4988 18.5471C15.4339 18.5132 15.371 18.4754 15.3077 18.4393C15.2428 18.4935 15.1783 18.5477 15.1112 18.5994C15.1328 18.5184 15.1586 18.4386 15.1835 18.3586C15.1221 18.316 15.0608 18.2744 15.0015 18.2295C15.0786 18.2211 15.1564 18.2147 15.2338 18.2082C15.2514 18.1266 15.2794 18.0475 15.3171 17.973C15.3393 18.0417 15.3606 18.1111 15.3816 18.1805C15.4607 18.1779 15.5398 18.1727 15.6188 18.1724C15.5614 18.2274 15.5011 18.2792 15.4381 18.3276C15.46 18.4002 15.482 18.4728 15.4988 18.5471Z" fill="white"/>
    <path d="M15.5033 20.8961C15.4372 20.8613 15.3729 20.8222 15.3094 20.7831C15.2458 20.8357 15.1822 20.8883 15.1138 20.9348C15.1335 20.8573 15.159 20.7818 15.1841 20.7063C15.1221 20.6624 15.0596 20.6192 14.9999 20.5724C15.0767 20.5634 15.1538 20.5575 15.2309 20.5527C15.2564 20.4701 15.2819 20.3871 15.3148 20.3074C15.3387 20.3833 15.361 20.4601 15.3829 20.5369C15.4678 20.5282 15.5524 20.5169 15.6376 20.5095C15.5721 20.5675 15.504 20.6225 15.4352 20.6766C15.46 20.749 15.4836 20.8219 15.5033 20.8961Z" fill="white"/>
    <path d="M15.9286 17.5476C15.9515 17.4731 15.977 17.3992 16.0031 17.3259C16.0348 17.3943 16.0654 17.4631 16.0929 17.5331C16.169 17.5231 16.2452 17.5131 16.322 17.507C16.2633 17.5654 16.201 17.6196 16.1384 17.6735C16.1606 17.7484 16.1839 17.8232 16.2061 17.8984C16.1403 17.8607 16.0761 17.8213 16.0119 17.7816C15.948 17.8332 15.8837 17.8849 15.8169 17.9333C15.8363 17.8561 15.8595 17.7803 15.8815 17.7041C15.8169 17.6593 15.7511 17.617 15.6869 17.5721C15.7672 17.5612 15.848 17.5541 15.9286 17.5476Z" fill="white"/>
    <path d="M16.2094 20.25C16.1429 20.2084 16.0764 20.1668 16.0099 20.1254C15.9464 20.1793 15.8825 20.2326 15.8153 20.2819C15.835 20.2045 15.8583 20.128 15.8796 20.0512C15.8224 20.0089 15.765 19.9673 15.7092 19.924C15.7837 19.9066 15.8595 19.8937 15.9354 19.8818C15.9557 19.8082 15.979 19.7353 16.0035 19.663C16.0348 19.7317 16.0619 19.8024 16.0887 19.8731C16.1648 19.8669 16.241 19.8614 16.3175 19.8611C16.2551 19.9106 16.1973 19.9655 16.1445 20.0251C16.1605 20.1015 16.1822 20.1767 16.2094 20.25V20.25Z" fill="white"/>
    <path d="M16.1423 18.8385C16.1594 18.9134 16.1787 18.9876 16.1955 19.0625C16.1352 19.0296 16.0777 18.9908 16.0148 18.9634C15.9463 19.0054 15.8809 19.0521 15.8189 19.1031C15.8379 19.0247 15.8602 18.9473 15.8809 18.8695C15.8167 18.8301 15.7531 18.7904 15.6905 18.7488C15.7712 18.7382 15.8519 18.7298 15.9329 18.7211C15.9535 18.6449 15.9774 18.5701 16.0032 18.4961C16.0352 18.562 16.0632 18.6294 16.0916 18.6969C16.173 18.6904 16.2543 18.6836 16.3359 18.6775C16.2723 18.7323 16.2074 18.7859 16.1423 18.8385Z" fill="white"/>
    <path d="M16.8329 20.5314C16.8552 20.6011 16.8778 20.6705 16.8991 20.7409C16.8329 20.7083 16.7684 20.6731 16.7041 20.6376C16.6454 20.686 16.5854 20.7334 16.5241 20.7783C16.5283 20.7522 16.5373 20.6999 16.5415 20.6734L16.5718 20.553C16.5121 20.5117 16.4521 20.4717 16.3924 20.4307C16.4686 20.4197 16.5447 20.4101 16.6212 20.4007C16.6522 20.3242 16.6815 20.2468 16.7119 20.1703C16.7296 20.2236 16.7471 20.2771 16.7648 20.3307L16.7816 20.3769C16.8613 20.3733 16.9407 20.3633 17.0201 20.3559C16.9588 20.4152 16.8952 20.473 16.8329 20.5314Z" fill="white"/>
    <path d="M17.0065 18.0139C16.9513 18.0733 16.8932 18.1301 16.8342 18.1859C16.8548 18.2544 16.8752 18.3231 16.8942 18.3925C16.829 18.3596 16.7651 18.3244 16.7009 18.2899C16.6625 18.326 16.6244 18.3621 16.5847 18.397C16.5605 18.4135 16.5363 18.4299 16.5124 18.4467C16.5334 18.3689 16.555 18.2908 16.5773 18.2134C16.5169 18.1698 16.4556 18.1279 16.3953 18.0846C16.4708 18.0753 16.5466 18.0669 16.6221 18.0582C16.6515 17.9804 16.6796 17.902 16.7089 17.8239C16.7361 17.8945 16.7622 17.9659 16.788 18.0372L16.8571 18.0272C16.9065 18.0217 16.9565 18.0172 17.0065 18.0139Z" fill="white"/>
    <path d="M16.8328 19.3529C16.8548 19.4255 16.8771 19.4981 16.8977 19.5713C16.8319 19.5365 16.767 19.4997 16.7018 19.4639C16.6495 19.511 16.5973 19.5588 16.5427 19.6033L16.5176 19.6059C16.5366 19.5313 16.556 19.4568 16.5756 19.3822C16.5146 19.3422 16.4543 19.3019 16.3956 19.2593C16.4691 19.2483 16.543 19.2386 16.6173 19.2293C16.6499 19.1547 16.6802 19.0792 16.7131 19.005C16.7354 19.0673 16.757 19.1301 16.778 19.1935C16.8438 19.2041 16.9097 19.2154 16.9752 19.2303C16.9277 19.2715 16.8803 19.3122 16.8328 19.3529Z" fill="white"/>
    <path d="M16.8448 17.0239C16.8551 17.089 16.8768 17.152 16.8897 17.2169C16.8296 17.183 16.7673 17.1535 16.7031 17.1284C16.6405 17.1672 16.5847 17.2156 16.5253 17.2591C16.5395 17.1833 16.5557 17.1075 16.5711 17.0319C16.5108 16.9932 16.4508 16.9548 16.3907 16.9158C16.4685 16.9029 16.5466 16.8909 16.6247 16.8783C16.6519 16.8038 16.679 16.7289 16.7074 16.6543L16.7535 16.7689C16.7661 16.8021 16.7793 16.8354 16.7925 16.8686C16.8683 16.8586 16.9442 16.848 17.02 16.8376C16.9623 16.8993 16.8784 16.9445 16.8448 17.0239Z" fill="white"/>
    <path d="M17.3292 17.3701C17.3599 17.2994 17.3783 17.2243 17.4044 17.1516C17.4376 17.2188 17.4438 17.3046 17.4983 17.3588C17.57 17.3543 17.6413 17.344 17.7132 17.3382C17.6552 17.3976 17.5935 17.4534 17.5306 17.5076C17.5551 17.5802 17.5796 17.6531 17.6016 17.727C17.5351 17.6925 17.4706 17.655 17.4063 17.6173C17.3434 17.6702 17.2795 17.7225 17.2121 17.7696C17.2308 17.6925 17.2543 17.6166 17.2785 17.5412C17.2124 17.4979 17.1453 17.4563 17.0791 17.4134C17.1642 17.4124 17.2487 17.3978 17.3292 17.3701V17.3701Z" fill="white"/>
    <path d="M17.5977 20.0664C17.5312 20.0341 17.467 19.9986 17.4034 19.9622C17.3405 20.017 17.2763 20.0703 17.2094 20.1203C17.2288 20.0454 17.2549 19.9725 17.2723 19.8973C17.2199 19.8457 17.161 19.8011 17.0971 19.7647C17.1746 19.7482 17.2527 19.7369 17.3308 19.7253C17.3524 19.6482 17.3737 19.571 17.3972 19.4946C17.4346 19.5608 17.461 19.6326 17.4757 19.7072C17.5547 19.6995 17.6338 19.6908 17.7138 19.6872C17.6485 19.7398 17.589 19.7992 17.5363 19.8644C17.5525 19.9328 17.578 19.9986 17.5977 20.0664Z" fill="white"/>
    <path d="M17.5315 18.6778C17.5551 18.751 17.5796 18.8243 17.5993 18.8988C17.5332 18.8643 17.4689 18.8268 17.4044 18.7901C17.3395 18.8449 17.2747 18.9001 17.2082 18.9534C17.2285 18.8708 17.253 18.7898 17.2789 18.7091C17.2124 18.6707 17.1475 18.6303 17.0826 18.5897C17.1646 18.5787 17.2466 18.5676 17.3286 18.5564C17.3473 18.479 17.3729 18.4034 17.405 18.3305C17.4378 18.3929 17.4607 18.4599 17.4728 18.5293C17.5577 18.5254 17.6426 18.519 17.7274 18.5138C17.6616 18.568 17.5964 18.6229 17.5315 18.6778Z" fill="white"/>
    <path d="M18.0285 16.7092C18.0504 16.6282 18.0737 16.5478 18.0995 16.4681C18.1289 16.5375 18.156 16.6079 18.1834 16.6782C18.2605 16.6695 18.338 16.6608 18.4158 16.6572C18.3577 16.7153 18.296 16.7702 18.2348 16.825C18.2548 16.8954 18.2745 16.966 18.2909 17.0377C18.2286 17.0064 18.168 16.9719 18.1076 16.9373C18.0434 16.9912 17.9795 17.0455 17.9117 17.0948C17.9311 17.0174 17.9553 16.9415 17.9792 16.8654C17.914 16.8221 17.8472 16.7815 17.783 16.7369C17.8646 16.7254 17.9465 16.7173 18.0285 16.7092Z" fill="white"/>
    <path d="M18.299 18.2218C18.2386 18.1843 18.1762 18.15 18.1121 18.1191C18.0429 18.1625 17.9766 18.2104 17.9137 18.2624C17.9327 18.185 17.9563 18.1091 17.9782 18.033C17.9172 17.9972 17.8572 17.9594 17.7994 17.9194C17.8753 17.9029 17.9518 17.8897 18.0282 17.8742C18.0512 17.7984 18.0757 17.7232 18.1038 17.6496C18.1325 17.7174 18.1589 17.7864 18.1867 17.8552C18.2616 17.8464 18.3364 17.8377 18.4116 17.8313C18.3548 17.8887 18.2945 17.9426 18.2341 17.9965C18.2567 18.0711 18.2789 18.1459 18.299 18.2218Z" fill="white"/>
    <path d="M18.2899 20.555C18.2302 20.5256 18.1731 20.4914 18.1115 20.4666C18.0404 20.5102 17.973 20.5594 17.9098 20.6137C17.9298 20.5356 17.9543 20.4588 17.9798 20.3827C17.9159 20.3423 17.851 20.3033 17.7878 20.2623C17.8663 20.2538 17.9442 20.2404 18.0211 20.2223C18.052 20.1449 18.078 20.0657 18.0992 19.9851C18.1276 20.0545 18.1541 20.1245 18.1812 20.1945C18.2567 20.1903 18.3322 20.1868 18.4078 20.1852C18.3503 20.2394 18.2909 20.292 18.2325 20.3452C18.2528 20.4146 18.2728 20.4843 18.2899 20.555Z" fill="white"/>
    <path d="M18.2457 19.1618C18.2527 19.2377 18.267 19.3127 18.2886 19.3858C18.227 19.3529 18.1666 19.3174 18.1073 19.2813C18.0431 19.3368 17.9788 19.392 17.9114 19.4429C17.9304 19.3645 17.9546 19.2874 17.9769 19.2099C17.9133 19.1683 17.8491 19.1279 17.7855 19.0863C17.8688 19.0776 17.951 19.061 18.0311 19.0367C18.0569 18.965 18.075 18.8908 18.0989 18.8188C18.1289 18.8879 18.1567 18.9582 18.1867 19.0279C18.269 19.0173 18.3512 19.0047 18.4339 18.9953C18.3682 19.0475 18.3054 19.103 18.2457 19.1618V19.1618Z" fill="white"/>
    <path d="M24.1765 20.7348C24.7832 20.6441 25.389 20.5408 26.0028 20.5089C26.2168 20.4838 26.4335 20.495 26.6437 20.5421C26.8092 20.5782 27.0032 20.6686 27.0251 20.859C27.0248 21.1272 27.0239 21.395 27.0248 21.6632C26.9654 21.4331 26.6908 21.3847 26.4875 21.3773C26.1545 21.3454 25.819 21.3494 25.4868 21.3892C24.9127 21.4492 24.3434 21.5454 23.7728 21.6322C20.8803 22.1369 17.9869 22.6642 15.0586 22.9176C14.712 22.9663 14.3615 22.9686 14.0143 23.0112C13.5308 23.0454 13.0468 23.066 12.5627 23.0919C11.9176 23.1309 11.2709 23.1245 10.6251 23.1332C10.6271 22.8511 10.6271 22.569 10.6251 22.2867C11.0501 22.2899 11.4758 22.2873 11.9005 22.2686C12.2558 22.2773 12.6098 22.2431 12.9645 22.2312C13.3508 22.2067 13.738 22.1999 14.1234 22.1602C14.3812 22.1308 14.6414 22.1308 14.8988 22.0989C15.1893 22.0585 15.4836 22.0559 15.774 22.012C17.2585 21.8652 18.7353 21.6519 20.2075 21.4121C21.5325 21.1988 22.8524 20.9526 24.1765 20.7348Z" fill="url(#paint0_linear_1227_2020)"/>
    <path d="M24.5193 22.3622C25.1985 22.2293 25.8909 22.1768 26.5824 22.2057C26.7709 22.247 27.0219 22.3354 27.0252 22.5678C27.0245 22.8169 27.0248 23.0661 27.0239 23.3155C26.99 23.2509 26.9408 23.1955 26.8807 23.1542C26.8206 23.1129 26.7513 23.0868 26.6789 23.0783C26.0656 23.015 25.4465 23.0391 24.84 23.15C23.5553 23.333 22.2806 23.5814 21.0004 23.7934C18.8601 24.1594 16.7086 24.4702 14.5432 24.6444C14.0188 24.7029 13.4905 24.7142 12.9648 24.7584C12.189 24.7868 11.4129 24.8077 10.6364 24.8213C10.6371 24.5389 10.6354 24.2562 10.6371 23.9735C11.2086 23.9738 11.7795 23.9458 12.351 23.9387C12.9483 23.9277 13.5434 23.8748 14.1398 23.8444C14.4893 23.8047 14.8407 23.7883 15.1902 23.7512C15.4622 23.7122 15.7385 23.7128 16.0102 23.6676C17.455 23.5214 18.8914 23.3062 20.3246 23.0741C21.7246 22.8476 23.1181 22.581 24.5193 22.3622Z" fill="url(#paint1_linear_1227_2020)"/>
    <path d="M24.0078 24.1229C24.6274 24.0271 25.247 23.9257 25.8724 23.8738C26.1664 23.8411 26.4639 23.8623 26.7502 23.9364C26.818 23.9517 26.88 23.9862 26.9288 24.0356C26.9776 24.0851 27.0111 24.1476 27.0255 24.2155C27.0226 24.505 27.0281 24.7948 27.0223 25.0843C27.0138 25.1892 26.9646 25.2866 26.8851 25.3557C26.7156 25.5034 26.518 25.6155 26.3042 25.6852C25.8272 25.8482 25.3364 25.9677 24.8378 26.0424C23.9297 26.1941 23.0126 26.2754 22.0957 26.3506C20.0795 26.5091 17.2171 26.5849 16.1594 26.5778C14.5174 26.5862 12.8753 26.5864 11.2332 26.5785C11.1245 26.5715 11.0197 26.5355 10.9297 26.4743C10.8396 26.4132 10.7675 26.329 10.721 26.2306C10.6437 26.0496 10.6146 25.8517 10.6365 25.6561C11.4329 25.6613 12.2284 25.619 13.0242 25.5903C13.436 25.5832 13.8449 25.5296 14.2563 25.5141C14.5032 25.5035 14.7475 25.4606 14.9943 25.4493C16.8328 25.2879 18.661 25.0307 20.4811 24.729C21.6578 24.5334 22.8318 24.3217 24.0078 24.1229Z" fill="url(#paint2_linear_1227_2020)"/>
    <path d="M26.7186 15.5207C26.4845 15.4614 26.2421 15.4418 26.0015 15.4629C25.7269 15.4952 25.4487 15.4984 25.1763 15.5484C24.254 15.6688 23.3381 15.834 22.422 15.9941C21.1412 16.221 19.8579 16.4317 18.572 16.626V16.6347C18.5716 16.9095 18.5715 17.1845 18.5716 17.4595C20.075 17.2364 21.5733 16.9781 23.0699 16.7124C23.8609 16.5756 24.6529 16.4439 25.4506 16.3516C25.7547 16.3188 26.0609 16.3087 26.3665 16.3213C26.4672 16.3235 26.5677 16.3343 26.6666 16.3536C26.7423 16.3608 26.8149 16.3872 26.8775 16.4302C26.9401 16.4733 26.9907 16.5317 27.0245 16.5998C27.0245 16.3407 27.0247 16.0815 27.0251 15.8224C27.0102 15.7471 26.973 15.6781 26.9184 15.6243C26.8637 15.5705 26.7941 15.5344 26.7186 15.5207V15.5207Z" fill="url(#paint3_linear_1227_2020)"/>
    <path d="M26.6344 18.0291C26.7152 18.0331 26.7936 18.058 26.862 18.1014C26.9303 18.1448 26.9862 18.2052 27.0242 18.2766C27.0249 18.0091 27.0245 17.7419 27.0252 17.4747C26.971 17.2643 26.738 17.192 26.5486 17.1617C26.0745 17.1316 25.5985 17.1557 25.1299 17.2334C24.3931 17.3357 23.6589 17.4538 22.9271 17.5877C21.4771 17.8356 20.0294 18.1 18.5723 18.3V18.3099C18.5717 18.5843 18.5717 18.8589 18.5723 19.1336C20.5392 18.8632 22.4885 18.4761 24.4493 18.1644C25.1683 18.0215 25.9033 17.9761 26.6344 18.0291Z" fill="url(#paint4_linear_1227_2020)"/>
    <path d="M18.5717 14.9304C18.5717 15.2129 18.5716 15.4953 18.5714 15.7778C19.5776 15.627 20.5828 15.4694 21.5845 15.2899C23.0064 15.0579 24.4195 14.7568 25.8573 14.6368C26.1251 14.6189 26.394 14.6317 26.6589 14.6748C26.7363 14.679 26.8112 14.7041 26.8755 14.7475C26.9399 14.7909 26.9912 14.8508 27.0242 14.9211C27.0229 14.6513 27.0277 14.3812 27.0229 14.1117C27.0181 13.9649 26.8699 13.8761 26.7418 13.8451C26.2588 13.7656 25.7661 13.7646 25.2828 13.8422C25.1102 13.8248 23.1948 14.1346 22.9893 14.1875C21.9072 14.3692 20.8249 14.5625 19.7409 14.7374L18.5717 14.9304Z" fill="url(#paint5_linear_1227_2020)"/>
    <path d="M26.8316 18.9272C26.477 18.8046 26.0967 18.7761 25.7279 18.8446C24.7039 18.9517 23.6899 19.1331 22.6766 19.3106C21.3105 19.5479 19.9451 19.79 18.5717 19.9816V19.9893C18.5704 20.2654 18.5753 20.5422 18.568 20.8184C19.0723 20.745 19.5759 20.6673 20.0788 20.5853C21.774 20.32 23.4563 19.9757 25.157 19.7456C25.6177 19.6713 26.086 19.6564 26.5505 19.7014C26.6455 19.696 26.7401 19.7172 26.8237 19.7625C26.9074 19.8078 26.9768 19.8755 27.0242 19.9579C27.0249 19.6894 27.0242 19.4206 27.0255 19.1525C27.0114 19.1031 26.9867 19.0575 26.9532 19.0186C26.9197 18.9797 26.8782 18.9485 26.8316 18.9272V18.9272Z" fill="url(#paint6_linear_1227_2020)"/>
    <path d="M24.84 23.1499C25.4465 23.0391 26.0656 23.015 26.6789 23.0783C26.7513 23.0868 26.8206 23.1129 26.8807 23.1542C26.9408 23.1955 26.99 23.2509 27.0239 23.3155C27.0261 23.6153 27.0235 23.9154 27.0255 24.2155C27.0111 24.1476 26.9775 24.0851 26.9287 24.0356C26.8799 23.9862 26.818 23.9517 26.7502 23.9364C26.4639 23.8623 26.1664 23.8411 25.8724 23.8738C25.247 23.9258 24.6274 24.0271 24.0078 24.1229C22.8318 24.3217 21.6578 24.5334 20.4812 24.7289C18.661 25.0307 16.8329 25.2879 14.9944 25.4492C14.7409 25.4792 14.5032 25.5034 14.2564 25.5141C13.8449 25.5296 13.436 25.5832 13.0242 25.5903C12.2284 25.619 11.4329 25.6613 10.6365 25.6561V24.8212C11.4126 24.8073 12.1887 24.7864 12.9649 24.7583C13.4906 24.7141 14.0189 24.7028 14.5433 24.6444C16.7087 24.4701 18.8603 24.1594 21.0005 23.7934C22.2806 23.5814 23.5553 23.3329 24.84 23.1499Z" fill="url(#paint7_linear_1227_2020)"/>
    <path d="M27.0248 21.6632C26.9654 21.4331 26.6908 21.3847 26.4875 21.3773C26.1545 21.3454 25.819 21.3494 25.4868 21.3892C24.9127 21.4492 24.3434 21.5454 23.7728 21.6322C20.8803 22.1369 17.9869 22.6642 15.0586 22.9176C14.712 22.9663 14.3615 22.9686 14.0143 23.0112C13.5308 23.0454 13.0468 23.066 12.5627 23.0918C11.9176 23.1308 11.2709 23.1244 10.6251 23.1331L10.6371 23.9735C11.2086 23.9738 11.7795 23.9457 12.351 23.9386C12.9483 23.9276 13.5434 23.8747 14.1398 23.8444C14.4893 23.8047 14.8407 23.7883 15.1902 23.7511C15.4622 23.7121 15.7385 23.7127 16.0102 23.6676C17.455 23.5214 18.8914 23.3061 20.3246 23.0741C21.7246 22.8475 23.118 22.581 24.5193 22.3622C25.1984 22.2293 25.8909 22.1768 26.5824 22.2057C26.7708 22.247 27.0219 22.3354 27.0251 22.5677C27.0242 22.266 27.0251 21.9646 27.0248 21.6632Z" fill="url(#paint8_linear_1227_2020)"/>
    <path d="M27.0242 19.958C26.9768 19.8755 26.9074 19.8079 26.8237 19.7626C26.7401 19.7173 26.6454 19.6961 26.5505 19.7015C26.086 19.6565 25.6177 19.6713 25.157 19.7457C23.4563 19.9758 21.774 20.3201 20.0787 20.5854C18.6807 20.8126 17.2773 21.0126 15.8686 21.1556C15.5882 21.1769 15.3113 21.2331 15.0292 21.2331C14.5897 21.3002 14.1444 21.2989 13.7032 21.3518C13.5764 21.367 13.4476 21.3541 13.3208 21.3689C13.083 21.3999 12.8419 21.3783 12.6041 21.4079C11.9466 21.4401 11.2884 21.4581 10.63 21.4544L10.6252 22.2867C11.0502 22.2899 11.4759 22.2873 11.9005 22.2686C12.2559 22.2773 12.6099 22.2431 12.9645 22.2312C13.3508 22.2066 13.7381 22.1999 14.1234 22.1602C14.3813 22.1308 14.6414 22.1308 14.8989 22.0988C15.1893 22.0585 15.4837 22.0559 15.7741 22.012C17.2586 21.8652 18.7353 21.6519 20.2076 21.4121C21.5326 21.1988 22.8526 20.9526 24.1766 20.7347C24.7833 20.644 25.3891 20.5408 26.0029 20.5088C26.2171 20.4968 26.4319 20.5079 26.6438 20.5421C26.8093 20.5782 27.0033 20.6686 27.0252 20.859C27.0236 20.5586 27.0261 20.2581 27.0242 19.958Z" fill="url(#paint9_linear_1227_2020)"/>
    <path d="M25.4507 16.3516C25.7548 16.3188 26.0609 16.3087 26.3665 16.3213C26.4659 16.3374 26.5663 16.3449 26.6666 16.3536C26.7423 16.3608 26.8149 16.3871 26.8775 16.4302C26.9402 16.4733 26.9908 16.5317 27.0245 16.5998C27.0258 16.8912 27.0235 17.1829 27.0252 17.4747C26.971 17.2643 26.738 17.192 26.5485 17.1617C26.0745 17.1316 25.5985 17.1557 25.1299 17.2333C24.3931 17.3356 23.6588 17.4538 22.927 17.5877C21.4758 17.8358 20.0268 18.1005 18.5684 18.3005C18.5672 18.0204 18.5691 17.7403 18.5674 17.4602C20.0723 17.2369 21.5719 16.9784 23.07 16.7125C23.861 16.5756 24.6529 16.4439 25.4507 16.3516Z" fill="url(#paint10_linear_1227_2020)"/>
    <path d="M24.4493 18.1643C25.1683 18.0215 25.9032 17.976 26.6344 18.0291C26.7152 18.0331 26.7937 18.058 26.862 18.1014C26.9303 18.1448 26.9862 18.2051 27.0242 18.2766C27.0262 18.5684 27.0236 18.8604 27.0255 19.1525C27.0114 19.1031 26.9867 19.0575 26.9532 19.0186C26.9197 18.9797 26.8782 18.9485 26.8315 18.9272C26.477 18.8046 26.0967 18.7761 25.7278 18.8446C24.7038 18.9517 23.6899 19.1331 22.6766 19.3106C21.3092 19.5481 19.9426 19.7905 18.5678 19.9822C18.5671 19.6995 18.57 19.4168 18.5665 19.1344C20.5354 18.864 22.4865 18.4764 24.4493 18.1643Z" fill="url(#paint11_linear_1227_2020)"/>
    <path d="M25.8573 14.6368C26.1251 14.6189 26.394 14.6317 26.6589 14.6748C26.7363 14.679 26.8112 14.7041 26.8755 14.7475C26.9399 14.7909 26.9912 14.8508 27.0242 14.9211C27.0258 15.2215 27.0236 15.522 27.0252 15.8224C27.0103 15.7471 26.9731 15.6781 26.9184 15.6243C26.8637 15.5705 26.7941 15.5344 26.7186 15.5207C26.4845 15.4614 26.2421 15.4418 26.0015 15.4629C25.7269 15.4952 25.4487 15.4984 25.1764 15.5484C24.254 15.6688 23.3382 15.834 22.422 15.9941C21.1399 16.2213 19.8551 16.4321 18.5678 16.6266C18.5678 16.3439 18.5698 16.0612 18.5665 15.7785C19.5744 15.6275 20.5812 15.4697 21.5845 15.2899C23.0064 15.0579 24.4196 14.7568 25.8573 14.6368Z" fill="url(#paint12_linear_1227_2020)"/>
    <path d="M26.6847 24.8838C26.4506 24.8274 26.2088 24.8098 25.9689 24.8316C25.4424 24.8621 24.9182 24.9249 24.3993 25.0194C23.5783 25.1301 22.7637 25.2827 21.9453 25.4102C21.7972 25.4328 21.6517 25.467 21.5045 25.4931C19.5798 25.8049 17.649 26.0847 15.7082 26.276C15.5943 26.286 13.3562 26.428 12.6782 26.4496C12.2468 26.4777 11.8137 26.478 11.3816 26.4929C11.1615 26.5058 10.9441 26.4403 10.7678 26.308C10.8167 26.3868 10.8838 26.4528 10.9634 26.5004C11.043 26.5481 11.1328 26.576 11.2254 26.582C11.9939 26.5877 12.7184 26.5842 13.4557 26.5825C17.3501 26.6652 21.2449 26.436 25.1027 25.8972C25.4463 25.8361 25.7858 25.7534 26.119 25.6497C26.3232 25.5907 26.5177 25.5022 26.6963 25.387C26.7494 25.3551 26.7943 25.3113 26.8274 25.2589C26.8604 25.2066 26.8808 25.1472 26.8867 25.0855C26.8825 24.9771 26.7783 24.9113 26.6847 24.8838Z" fill="#6A0000"/>
    <defs>
        <linearGradient id="paint0_linear_1227_2020" x1="10.6251" y1="21.8123" x2="27.0251" y2="21.8123" gradientUnits="userSpaceOnUse">
            <stop stop-color="#C11212"/>
            <stop offset="0.23403" stop-color="#C31414"/>
            <stop offset="0.31821" stop-color="#CA1B1B"/>
            <stop offset="0.37811" stop-color="#D52626"/>
            <stop offset="0.4" stop-color="#DC2D2D"/>
            <stop offset="0.67908" stop-color="#DA2C2C"/>
            <stop offset="0.77958" stop-color="#D32727"/>
            <stop offset="0.85122" stop-color="#C81E1E"/>
            <stop offset="0.90876" stop-color="#B71111"/>
            <stop offset="0.95784" stop-color="#A10101"/>
            <stop offset="0.96" stop-color="#A00000"/>
            <stop offset="1" stop-color="#DC2D2D"/>
        </linearGradient>
        <linearGradient id="paint1_linear_1227_2020" x1="184.954" y1="83.856" x2="453.548" y2="83.856" gradientUnits="userSpaceOnUse">
            <stop stop-color="#C11212"/>
            <stop offset="0.23403" stop-color="#C31414"/>
            <stop offset="0.31821" stop-color="#CA1B1B"/>
            <stop offset="0.37811" stop-color="#D52626"/>
            <stop offset="0.4" stop-color="#DC2D2D"/>
            <stop offset="0.67908" stop-color="#DA2C2C"/>
            <stop offset="0.77958" stop-color="#D32727"/>
            <stop offset="0.85122" stop-color="#C81E1E"/>
            <stop offset="0.90876" stop-color="#B71111"/>
            <stop offset="0.95784" stop-color="#A10101"/>
            <stop offset="0.96" stop-color="#A00000"/>
            <stop offset="1" stop-color="#DC2D2D"/>
        </linearGradient>
        <linearGradient id="paint2_linear_1227_2020" x1="184.994" y1="92.606" x2="453.742" y2="92.606" gradientUnits="userSpaceOnUse">
            <stop stop-color="#C11212"/>
            <stop offset="0.23403" stop-color="#C31414"/>
            <stop offset="0.31821" stop-color="#CA1B1B"/>
            <stop offset="0.37811" stop-color="#D52626"/>
            <stop offset="0.4" stop-color="#DC2D2D"/>
            <stop offset="0.67908" stop-color="#DA2C2C"/>
            <stop offset="0.77958" stop-color="#D32727"/>
            <stop offset="0.85122" stop-color="#C81E1E"/>
            <stop offset="0.90876" stop-color="#B71111"/>
            <stop offset="0.95784" stop-color="#A10101"/>
            <stop offset="0.96" stop-color="#A00000"/>
            <stop offset="1" stop-color="#DC2D2D"/>
        </linearGradient>
        <linearGradient id="paint3_linear_1227_2020" x1="18.5717" y1="16.4574" x2="27.0252" y2="16.4574" gradientUnits="userSpaceOnUse">
            <stop stop-color="#DC2D2D"/>
            <stop offset="0.46347" stop-color="#DA2C2C"/>
            <stop offset="0.63038" stop-color="#D32727"/>
            <stop offset="0.74935" stop-color="#C81E1E"/>
            <stop offset="0.84491" stop-color="#B71111"/>
            <stop offset="0.92642" stop-color="#A10101"/>
            <stop offset="0.93" stop-color="#A00000"/>
            <stop offset="1" stop-color="#DC2D2D"/>
        </linearGradient>
        <linearGradient id="paint4_linear_1227_2020" x1="175.565" y1="53.1468" x2="247.025" y2="53.1468" gradientUnits="userSpaceOnUse">
            <stop stop-color="#DC2D2D"/>
            <stop offset="0.46347" stop-color="#DA2C2C"/>
            <stop offset="0.63038" stop-color="#D32727"/>
            <stop offset="0.74935" stop-color="#C81E1E"/>
            <stop offset="0.84491" stop-color="#B71111"/>
            <stop offset="0.92642" stop-color="#A10101"/>
            <stop offset="0.93" stop-color="#A00000"/>
            <stop offset="1" stop-color="#DC2D2D"/>
        </linearGradient>
        <linearGradient id="paint5_linear_1227_2020" x1="175.569" y1="43.2408" x2="247.035" y2="43.2408" gradientUnits="userSpaceOnUse">
            <stop stop-color="#DC2D2D"/>
            <stop offset="0.46347" stop-color="#DA2C2C"/>
            <stop offset="0.63038" stop-color="#D32727"/>
            <stop offset="0.74935" stop-color="#C81E1E"/>
            <stop offset="0.84491" stop-color="#B71111"/>
            <stop offset="0.92642" stop-color="#A10101"/>
            <stop offset="0.93" stop-color="#A00000"/>
            <stop offset="1" stop-color="#DC2D2D"/>
        </linearGradient>
        <linearGradient id="paint6_linear_1227_2020" x1="175.607" y1="58.641" x2="247.136" y2="58.641" gradientUnits="userSpaceOnUse">
            <stop stop-color="#DC2D2D"/>
            <stop offset="0.46347" stop-color="#DA2C2C"/>
            <stop offset="0.63038" stop-color="#D32727"/>
            <stop offset="0.74935" stop-color="#C81E1E"/>
            <stop offset="0.84491" stop-color="#B71111"/>
            <stop offset="0.92642" stop-color="#A10101"/>
            <stop offset="0.93" stop-color="#A00000"/>
            <stop offset="1" stop-color="#DC2D2D"/>
        </linearGradient>
        <linearGradient id="paint7_linear_1227_2020" x1="10.6364" y1="24.3469" x2="27.0255" y2="24.3469" gradientUnits="userSpaceOnUse">
            <stop stop-color="#E0E0E0"/>
            <stop offset="0.23403" stop-color="#E2E2E2"/>
            <stop offset="0.31821" stop-color="#E9E9E9"/>
            <stop offset="0.37811" stop-color="#F4F4F4"/>
            <stop offset="0.4" stop-color="#FBFBFB"/>
            <stop offset="0.68196" stop-color="#F9F9F9"/>
            <stop offset="0.78351" stop-color="#F2F2F2"/>
            <stop offset="0.85591" stop-color="#E7E7E7"/>
            <stop offset="0.914" stop-color="#D6D6D6"/>
            <stop offset="0.96" stop-color="#C2C2C2"/>
            <stop offset="1" stop-color="#FCFCFC"/>
        </linearGradient>
        <linearGradient id="paint8_linear_1227_2020" x1="184.878" y1="80.6745" x2="453.838" y2="80.6745" gradientUnits="userSpaceOnUse">
            <stop stop-color="#E0E0E0"/>
            <stop offset="0.23403" stop-color="#E2E2E2"/>
            <stop offset="0.31821" stop-color="#E9E9E9"/>
            <stop offset="0.37811" stop-color="#F4F4F4"/>
            <stop offset="0.4" stop-color="#FBFBFB"/>
            <stop offset="0.68196" stop-color="#F9F9F9"/>
            <stop offset="0.78351" stop-color="#F2F2F2"/>
            <stop offset="0.85591" stop-color="#E7E7E7"/>
            <stop offset="0.914" stop-color="#D6D6D6"/>
            <stop offset="0.96" stop-color="#C2C2C2"/>
            <stop offset="1" stop-color="#FCFCFC"/>
        </linearGradient>
        <linearGradient id="paint9_linear_1227_2020" x1="184.878" y1="74.4663" x2="453.839" y2="74.4663" gradientUnits="userSpaceOnUse">
            <stop stop-color="#E0E0E0"/>
            <stop offset="0.23403" stop-color="#E2E2E2"/>
            <stop offset="0.31821" stop-color="#E9E9E9"/>
            <stop offset="0.37811" stop-color="#F4F4F4"/>
            <stop offset="0.4" stop-color="#FBFBFB"/>
            <stop offset="0.68196" stop-color="#F9F9F9"/>
            <stop offset="0.78351" stop-color="#F2F2F2"/>
            <stop offset="0.85591" stop-color="#E7E7E7"/>
            <stop offset="0.914" stop-color="#D6D6D6"/>
            <stop offset="0.96" stop-color="#C2C2C2"/>
            <stop offset="1" stop-color="#FCFCFC"/>
        </linearGradient>
        <linearGradient id="paint10_linear_1227_2020" x1="18.5675" y1="17.3062" x2="27.0252" y2="17.3062" gradientUnits="userSpaceOnUse">
            <stop stop-color="white"/>
            <stop offset="0.46192" stop-color="#FDFDFD"/>
            <stop offset="0.62829" stop-color="#F6F6F6"/>
            <stop offset="0.74687" stop-color="#EBEBEB"/>
            <stop offset="0.84208" stop-color="#DADADA"/>
            <stop offset="0.92334" stop-color="#C4C4C4"/>
            <stop offset="0.93" stop-color="#C2C2C2"/>
            <stop offset="1" stop-color="#FCFCFC"/>
        </linearGradient>
        <linearGradient id="paint11_linear_1227_2020" x1="175.621" y1="55.5003" x2="247.176" y2="55.5003" gradientUnits="userSpaceOnUse">
            <stop stop-color="white"/>
            <stop offset="0.46192" stop-color="#FDFDFD"/>
            <stop offset="0.62829" stop-color="#F6F6F6"/>
            <stop offset="0.74687" stop-color="#EBEBEB"/>
            <stop offset="0.84208" stop-color="#DADADA"/>
            <stop offset="0.92334" stop-color="#C4C4C4"/>
            <stop offset="0.93" stop-color="#C2C2C2"/>
            <stop offset="1" stop-color="#FCFCFC"/>
        </linearGradient>
        <linearGradient id="paint12_linear_1227_2020" x1="175.614" y1="45.8507" x2="247.163" y2="45.8507" gradientUnits="userSpaceOnUse">
            <stop stop-color="white"/>
            <stop offset="0.46192" stop-color="#FDFDFD"/>
            <stop offset="0.62829" stop-color="#F6F6F6"/>
            <stop offset="0.74687" stop-color="#EBEBEB"/>
            <stop offset="0.84208" stop-color="#DADADA"/>
            <stop offset="0.92334" stop-color="#C4C4C4"/>
            <stop offset="0.93" stop-color="#C2C2C2"/>
            <stop offset="1" stop-color="#FCFCFC"/>
        </linearGradient>
    </defs>
</svg>
