<svg width="32" height="32" viewBox="0 0 32 32" fill="none" xmlns="http://www.w3.org/2000/svg">
    <path d="M16 32C24.8366 32 32 24.8366 32 16C32 7.16344 24.8366 0 16 0C7.16344 0 0 7.16344 0 16C0 24.8366 7.16344 32 16 32Z" fill="white"/>
    <path d="M22.3353 9.04224V22.4127H9.50899V9.04224H22.3353V5H14.484L5.54449 11.9184V16.3493C5.54008 17.7491 5.81254 19.136 6.34618 20.43C6.87982 21.7241 7.6641 22.8999 8.6539 23.8897C9.6437 24.8795 10.8195 25.6638 12.1135 26.1974C13.4076 26.731 14.7944 27.0035 16.1942 26.9991C18.9283 26.9534 21.5351 25.8364 23.4541 23.8884C25.373 21.9403 26.4507 19.317 26.4553 16.5826V9.04224H22.3353Z" fill="#6932D4"/>
</svg>
