<svg width="32" height="32" viewBox="0 0 32 32" fill="none" xmlns="http://www.w3.org/2000/svg">
    <g clip-path="url(#clip0_1123_886)">
        <path d="M16 32C19.1645 32 22.2579 31.0616 24.8891 29.3035C27.5203 27.5454 29.5711 25.0466 30.7821 22.1229C31.9931 19.1993 32.3099 15.9823 31.6926 12.8786C31.0752 9.77487 29.5513 6.92394 27.3137 4.6863C25.0761 2.44866 22.2251 0.924806 19.1214 0.307443C16.0177 -0.309921 12.8007 0.0069325 9.87706 1.21793C6.95345 2.42894 4.45459 4.4797 2.69649 7.11088C0.938384 9.74207 0 12.8355 0 16C5.30421e-05 20.2435 1.68578 24.3131 4.68635 27.3137C7.68692 30.3142 11.7566 32 16 32V32Z" fill="#73BB59"/>
        <path d="M24.1649 16.8909H7.83579C7.57385 16.8909 7.32264 16.995 7.13742 17.1802C6.9522 17.3654 6.84814 17.6166 6.84814 17.8786C6.84814 18.1405 6.9522 18.3917 7.13742 18.5769C7.32264 18.7621 7.57385 18.8662 7.83579 18.8662H11.9383L14.7183 26.2076C14.7966 26.4019 14.9312 26.5683 15.1048 26.6855C15.2784 26.8026 15.4831 26.8653 15.6925 26.8653C15.902 26.8653 16.1066 26.8026 16.2802 26.6855C16.4538 26.5683 16.5884 26.4019 16.6667 26.2076L19.4467 18.8658H24.1652C24.4272 18.8658 24.6784 18.7617 24.8636 18.5765C25.0488 18.3913 25.1529 18.1401 25.1529 17.8782C25.1529 17.6162 25.0488 17.365 24.8636 17.1798C24.6784 16.9946 24.4272 16.8905 24.1652 16.8905L24.1649 16.8909ZM15.6921 23.2022L14.05 18.8655H17.3343L15.6921 23.2018V23.2022ZM7.83579 15.0473H24.1652C24.4272 15.0473 24.6785 14.9432 24.8637 14.758C25.049 14.5727 25.1531 14.3214 25.1531 14.0595C25.1531 13.7975 25.049 13.5462 24.8637 13.3609C24.6785 13.1757 24.4272 13.0716 24.1652 13.0716H21.6409L23.6765 7.69528C23.7692 7.45032 23.7609 7.17855 23.6532 6.93976C23.5456 6.70097 23.3475 6.51472 23.1025 6.42199C22.8575 6.32926 22.5858 6.33764 22.347 6.44529C22.1082 6.55294 21.9219 6.75104 21.8292 6.996L19.5281 13.0716H11.8558L9.55506 6.996C9.46182 6.75174 9.27553 6.55442 9.03703 6.4473C8.79853 6.34018 8.52728 6.332 8.28276 6.42456C8.03824 6.51713 7.8404 6.70287 7.73262 6.94107C7.62484 7.17928 7.61591 7.4505 7.70779 7.69527L9.74379 13.0716H7.83579C7.57385 13.0716 7.32264 13.1756 7.13742 13.3609C6.9522 13.5461 6.84814 13.7973 6.84814 14.0592C6.84814 14.3212 6.9522 14.5724 7.13742 14.7576C7.32264 14.9428 7.57385 15.0469 7.83579 15.0469V15.0473Z" fill="white"/>
    </g>
    <defs>
        <clipPath id="clip0_1123_886">
            <rect width="32" height="32" fill="white"/>
        </clipPath>
    </defs>
</svg>
