<svg width="32" height="32" viewBox="0 0 32 32" fill="none" xmlns="http://www.w3.org/2000/svg">
    <path d="M16 32C24.8366 32 32 24.8366 32 16C32 7.16344 24.8366 0 16 0C7.16344 0 0 7.16344 0 16C0 24.8366 7.16344 32 16 32Z" fill="#15BDFF"/>
    <path d="M14.7362 24.734L7.03818 9.046C7.01011 8.98821 6.99716 8.92424 7.00052 8.86008C7.00389 8.79592 7.02347 8.73367 7.05743 8.67913C7.09139 8.62459 7.13862 8.57955 7.19472 8.54823C7.25081 8.5169 7.31393 8.50031 7.37818 8.5H10.0462C10.1892 8.5 10.3232 8.58 10.3862 8.706L16.0082 20.087C16.5082 21.107 17.9592 21.107 18.4602 20.087L24.0642 8.715C24.0965 8.65277 24.1453 8.60062 24.2053 8.56429C24.2652 8.52795 24.3341 8.50882 24.4042 8.509H24.7362C24.9332 8.509 25.0582 8.715 24.9692 8.885L17.1892 24.735C16.6882 25.755 15.2382 25.755 14.7362 24.735V24.734Z" fill="white"/>
</svg>
