<svg width="32" height="32" viewBox="0 0 32 32" fill="none" xmlns="http://www.w3.org/2000/svg">
    <path d="M16 32C24.8366 32 32 24.8366 32 16C32 7.16344 24.8366 0 16 0C7.16344 0 0 7.16344 0 16C0 24.8366 7.16344 32 16 32Z" fill="#231F20"/>
    <path d="M14.8001 18.6362H17.2001L16.0001 21.5009L14.8001 18.6362ZM7.4668 7.89334L9.60013 12.9067H7.4668V15.0552H10.5112L11.1224 16.4877H7.4668V18.6362H12.0334L16.0001 27.9467L19.9668 18.6362H24.5335V16.4877H20.8779L21.489 15.0553H24.5335V12.9067H22.4001L24.5335 7.89334H21.689L18.1001 16.4877H13.9001L10.3112 7.89334H7.4668Z" fill="white"/>
</svg>
