<svg width="32" height="32" viewBox="0 0 32 32" fill="none" xmlns="http://www.w3.org/2000/svg">
    <path d="M16 32C24.8366 32 32 24.8366 32 16C32 7.16344 24.8366 0 16 0C7.16344 0 0 7.16344 0 16C0 24.8366 7.16344 32 16 32Z" fill="#00C2CF"/>
    <path d="M27.5874 14.5479C24.2225 12.6037 20.8573 10.6602 17.4918 8.71715C17.261 8.56603 16.9991 8.46892 16.7256 8.43306C16.4947 8.4041 16.2603 8.42613 16.0388 8.4976C15.8173 8.56907 15.6142 8.68823 15.4438 8.8467C15.2734 9.00516 15.1398 9.19907 15.0525 9.41476C14.9651 9.63045 14.9261 9.86267 14.9382 10.0951C14.9366 13.6254 14.9381 17.1557 14.9429 20.6861C14.9525 20.7937 14.9282 20.9017 14.8735 20.9949C14.8187 21.0881 14.7362 21.1619 14.6375 21.2059C13.7579 21.6985 12.89 22.2121 12.0153 22.7135C11.8945 22.7827 11.7753 22.9204 11.6171 22.8216C11.4658 22.7271 11.5221 22.559 11.5138 22.4169C11.5106 22.3621 11.5133 22.3069 11.5133 22.2519C11.5133 16.9244 11.514 11.5968 11.5155 6.26921C11.5218 6.05673 11.4855 5.84513 11.4087 5.64689C11.332 5.44865 11.2163 5.26778 11.0686 5.11495C10.9208 4.96211 10.744 4.84039 10.5484 4.75697C10.3529 4.67355 10.1426 4.63012 9.93007 4.62923C9.71749 4.62833 9.50689 4.67 9.31067 4.75178C9.11445 4.83356 8.93658 4.95378 8.78756 5.10538C8.63853 5.25697 8.52135 5.43686 8.44294 5.63445C8.36452 5.83203 8.32645 6.04332 8.33097 6.25585C8.3294 9.51108 8.32917 12.7663 8.33029 16.0215C8.33029 19.2676 8.33039 22.5137 8.3306 25.7597C8.32778 26.0431 8.40039 26.322 8.54097 26.5681C8.68156 26.8141 8.88505 27.0183 9.13059 27.1597C9.37612 27.3011 9.65486 27.3747 9.9382 27.3728C10.2215 27.3709 10.4993 27.2937 10.743 27.1491C12.4955 26.1335 14.248 25.1178 16.0005 24.102C19.8573 21.8733 23.7151 19.6462 27.5738 17.4207C27.8387 17.2896 28.0619 17.0876 28.2185 16.837C28.3752 16.5865 28.4592 16.2973 28.461 16.0018C28.4694 15.7013 28.3916 15.4048 28.2368 15.1471C28.082 14.8895 27.8566 14.6816 27.5874 14.5479V14.5479ZM23.2322 16.2337C21.6705 17.1362 20.1086 18.0385 18.5466 18.9405C18.2386 19.1183 18.1213 19.0504 18.1201 18.685C18.1171 17.7781 18.1191 16.8713 18.1191 15.9644C18.1191 15.085 18.1327 14.2053 18.1128 13.3264C18.1041 12.9429 18.25 12.8259 18.5943 13.0314C20.1274 13.9462 21.6813 14.8259 23.2276 15.7186C23.5884 15.9269 23.5894 16.0273 23.2322 16.2337Z" fill="#FEFEFE"/>
</svg>
