<svg width="32" height="32" viewBox="0 0 32 32" fill="none" xmlns="http://www.w3.org/2000/svg">
<path d="M15.9995 31.9996C24.8358 31.9996 31.999 24.8364 31.999 16.0001C31.999 7.16383 24.8358 0.000610352 15.9995 0.000610352C7.16322 0.000610352 0 7.16383 0 16.0001C0 24.8364 7.16322 31.9996 15.9995 31.9996Z" fill="white"/>
<path d="M16.0007 30L17.5949 29.0572C19.6578 27.84 21.3674 26.1056 22.5547 24.0254C23.7421 21.9453 24.3662 19.5913 24.3653 17.1961C24.3653 17.1848 24.3625 15.9949 24.3333 15.5684L24.2287 14.0219L22.6194 12.958C20.8698 11.8017 18.9747 10.8824 16.9835 10.2242L16.0005 9.89917" fill="#0028BA"/>
<path d="M15.9995 9.89886L15.0167 10.2239C13.0255 10.882 11.1303 11.8013 9.38084 12.9577L7.7712 14.0215L7.66668 15.5681C7.63844 15.9874 7.63477 17.1844 7.63477 17.1958C7.63385 19.591 8.25792 21.945 9.44532 24.0252C10.6327 26.1054 12.3423 27.8397 14.4052 29.0569L15.9995 29.9997" fill="#0074FF"/>
<path d="M15.9991 26.4214V26.4619L13.9282 22.3503L14.581 7.89569H17.4193L18.0721 22.3503L16.0012 26.4621L15.9991 26.4214Z" fill="white"/>
<path d="M16.006 2.00055C16.2716 2.00076 16.5304 2.08446 16.7459 2.23983C16.9613 2.3952 17.1225 2.61436 17.2066 2.86633C17.2906 3.11831 17.2933 3.39033 17.2143 3.64393C17.1354 3.89754 16.9786 4.11989 16.7663 4.27955L17.1949 7.39637C18.6973 7.90456 20.1471 8.55652 21.5242 9.34318L21.0136 10.1632C19.6684 9.40637 18.2532 8.78113 16.7878 8.29624L16.001 8.03647V7.911V2L16.006 2.00055Z" fill="#EDB726"/>
<path d="M14.8054 7.39629L15.2415 4.27829C15.03 4.11852 14.8739 3.8964 14.7952 3.64324C14.7166 3.39007 14.7193 3.1186 14.8031 2.86708C14.8869 2.61556 15.0474 2.39666 15.2622 2.24121C15.4769 2.08576 15.735 2.0016 16.0001 2.00058V7.00028V8.03746L15.2133 8.29723C13.7479 8.78211 12.3327 9.40734 10.9875 10.1642L10.4761 9.34385C11.8533 8.55709 13.3031 7.90489 14.8054 7.39629Z" fill="#FFC731"/>
</svg>
