<svg width="32" height="32" viewBox="0 0 32 32" fill="none" xmlns="http://www.w3.org/2000/svg">
    <g clip-path="url(#clip0)">
        <path d="M30.7823 22.1229C34.1639 13.959 30.2871 4.59954 22.1232 1.21794C13.9592 -2.16367 4.59976 1.71315 1.21815 9.87706C-2.16345 18.041 1.71337 27.4005 9.87728 30.7821C18.0412 34.1637 27.4007 30.2868 30.7823 22.1229Z" fill="#FF5847"/>
        <path d="M25.0729 23.7057C29.3286 18.6948 28.7164 11.1827 23.7055 6.92698C18.6946 2.67127 11.1825 3.28347 6.92684 8.29437C2.67113 13.3053 3.28333 20.8173 8.29422 25.073C13.3051 29.3288 20.8172 28.7166 25.0729 23.7057Z" fill="white"/>
        <path d="M16.0006 24.4941C15.7318 24.4937 15.4658 24.4403 15.2177 24.3369C14.9696 24.2335 14.7443 24.0822 14.5548 23.8917L8.10909 17.4459C7.7271 17.0617 7.5127 16.5419 7.5127 16.0001C7.5127 15.4583 7.7271 14.9385 8.10909 14.5543L14.5548 8.10853C14.939 7.72655 15.4588 7.51215 16.0006 7.51215C16.5424 7.51215 17.0622 7.72655 17.4464 8.10853L23.8922 14.5543C24.2742 14.9385 24.4886 15.4583 24.4886 16.0001C24.4886 16.5419 24.2742 17.0617 23.8922 17.4459L17.4464 23.8917C17.2576 24.0832 17.0325 24.2351 16.7842 24.3385C16.536 24.442 16.2696 24.4949 16.0006 24.4941V24.4941ZM12.4585 16.0001L16.0006 19.5423L19.5429 16.0001L16.0006 12.458L12.4585 16.0001Z" fill="#FF5847"/>
    </g>
    <defs>
        <clipPath id="clip0">
            <rect width="32" height="32" fill="white"/>
        </clipPath>
    </defs>
</svg>
