<svg width="32" height="32" viewBox="0 0 32 32" fill="none" xmlns="http://www.w3.org/2000/svg">
    <path d="M16 32C24.8366 32 32 24.8366 32 16C32 7.16344 24.8366 0 16 0C7.16344 0 0 7.16344 0 16C0 24.8366 7.16344 32 16 32Z" fill="white"/>
    <path d="M8.21384 11.1539L16.0001 6.65854L23.7862 11.1539L26.6931 9.97199L16.0001 3.79831L5.30713 9.97199L8.21384 11.1539Z" fill="#3FBCED"/>
    <path d="M23.786 11.905V19.643L16 15.071L8.204 19.649V11.902L5 10.599V25.08L16 18.621L27 25.08V10.599L23.786 11.905Z" fill="#1269AB"/>
    <path d="M21.9439 22.9097L15.9998 26.3415L10.0557 22.9097L7.59961 24.3518L15.9998 29.2017L24.4 24.3518L21.9439 22.9097Z" fill="#3FBCED"/>
</svg>
