<svg width="32" height="32" viewBox="0 0 32 32" fill="none" xmlns="http://www.w3.org/2000/svg">
    <path d="M25.6756 28.0116C24.7718 29.0586 23.5786 29.8151 22.246 30.1859C20.9135 30.5566 19.501 30.5252 18.1863 30.0954C17.1247 29.8282 16.0014 29.9728 15.042 30.5C14.7608 30.5675 14.5983 30.5806 14.2962 30.5C13.103 30.259 12.3289 28.9902 11.0383 29.1098C10.1937 29.2103 9.33735 29.1346 8.52337 28.8877C7.7094 28.6408 6.95539 28.2279 6.30889 27.6751C5.81822 27.309 5.4127 26.8409 5.12025 26.3031C4.82781 25.7652 4.65538 25.1704 4.61483 24.5595C4.28689 23.7268 3.70895 23.0162 2.96054 22.5254C2.01754 21.6445 0.91142 20.5804 1.00537 19.1717C0.936702 17.5695 1.18347 15.9695 1.73164 14.4624C1.98757 13.4451 1.54374 12.4029 1.70916 11.3699C1.74659 10.0951 2.26176 8.88096 3.15249 7.96821C3.93525 7.05029 5.27366 6.76821 5.85295 5.64621C6.55795 4.74221 6.67548 3.39997 7.76489 2.82309C8.46289 2.30228 9.38171 2.65026 10.1149 2.22772C11.7616 1.35865 13.5434 0.774494 15.385 0.5H15.6271C16.9684 0.59942 17.8019 1.86821 19.1121 2.05318C20.5623 2.42601 22.1059 1.61965 23.4991 2.33931C24.3141 2.68671 24.5464 3.62601 25.1753 4.17977C26.15 5.09077 27.5501 5.63699 28.0371 6.98035C28.0956 7.83848 28.3436 8.67297 28.7634 9.4237C29.4199 10.5237 30.5895 11.3214 30.8633 12.6387C31.5913 14.9971 29.1162 17.1104 30.2523 19.4398C30.5961 20.7707 30.4265 22.1821 29.7773 23.3936C29.2504 24.3618 27.9213 24.1803 27.2169 24.967C26.8313 26.0418 26.3136 27.0645 25.6756 28.0116Z" fill="#FFC536"/>
    <path d="M16.0302 25.8821C21.689 25.8821 26.2763 21.2818 26.2763 15.6071C26.2763 9.93235 21.689 5.33208 16.0302 5.33208C10.3715 5.33208 5.78418 9.93235 5.78418 15.6071C5.78418 21.2818 10.3715 25.8821 16.0302 25.8821Z" fill="#F9C742"/>
    <path d="M16.0312 25.7131C21.5195 25.7131 25.9686 21.2514 25.9686 15.7476C25.9686 10.2439 21.5195 5.78215 16.0312 5.78215C10.5429 5.78215 6.09375 10.2439 6.09375 15.7476C6.09375 21.2514 10.5429 25.7131 16.0312 25.7131Z" fill="#AA7202"/>
    <path d="M16.0312 25.319C21.3025 25.319 25.5757 21.0338 25.5757 15.7477C25.5757 10.4615 21.3025 6.17628 16.0312 6.17628C10.76 6.17628 6.48682 10.4615 6.48682 15.7477C6.48682 21.0338 10.76 25.319 16.0312 25.319Z" fill="url(#paint0_radial_1342_73)"/>
    <path d="M15.8492 4.34855C17.3395 4.29818 18.8251 4.54201 20.2211 5.06609C21.6171 5.59017 22.8962 6.38423 23.9852 7.40289C25.2702 8.59204 26.2646 10.0608 26.8913 11.6956C27.5181 13.3304 27.7605 15.0875 27.5998 16.8309C27.4391 18.5743 26.8795 20.2575 25.9645 21.7501C25.0494 23.2428 23.8033 24.5051 22.3226 25.4393C20.8418 26.3735 19.166 26.9546 17.4248 27.1377C15.6835 27.3209 13.9235 27.1011 12.2808 26.4954C10.638 25.8898 9.1566 24.9144 7.951 23.6448C6.74541 22.3751 5.84795 20.8453 5.32802 19.1734C4.80174 17.4939 4.67088 15.7154 4.94568 13.977C5.22047 12.2385 5.89348 10.5871 6.91212 9.15179C7.93076 7.71647 9.26745 6.5361 10.8178 5.70287C12.3681 4.86965 14.0901 4.40614 15.8492 4.34855V4.34855ZM15.561 4.69422C14.0955 4.76936 12.6603 5.13971 11.3415 5.78306C10.0227 6.4264 8.84739 7.32949 7.88611 8.43815C6.7405 9.73556 5.91514 11.2836 5.47631 12.9578C5.03748 14.6321 4.99743 16.3859 5.35936 18.0784C5.72129 19.771 6.47512 21.355 7.56031 22.7034C8.64549 24.0518 10.0318 25.1268 11.6078 25.8422C13.1838 26.5577 14.9057 26.8935 16.635 26.8227C18.3644 26.752 20.0531 26.2767 21.5654 25.4349C23.0777 24.5932 24.3716 23.4085 25.343 21.976C26.3144 20.5435 26.9364 18.9032 27.1588 17.1867C27.3508 15.6518 27.2227 14.0937 26.7825 12.6107C26.3424 11.1278 25.5997 9.75213 24.6013 8.57052C23.4955 7.27095 22.104 6.24482 20.5356 5.57236C18.9673 4.8999 17.2647 4.59936 15.5609 4.69422H15.561Z" fill="#916102"/>
    <path d="M15.561 4.69426C17.2647 4.5994 18.9673 4.89995 20.5356 5.5724C22.1039 6.24486 23.4954 7.27099 24.6013 8.57055C25.643 9.7915 26.4068 11.2242 26.8401 12.7696C27.2733 14.3149 27.3655 15.936 27.1103 17.5205C26.8551 19.105 26.2586 20.6151 25.3621 21.9463C24.4656 23.2775 23.2905 24.3979 21.9182 25.2301C19.6544 26.583 16.9823 27.084 14.3823 26.6431C11.7822 26.2021 9.42471 24.8481 7.73366 22.8244C6.04261 20.8008 5.12892 18.2402 5.15687 15.6032C5.18482 12.9661 6.15257 10.4255 7.88614 8.43818C8.84741 7.32953 10.0227 6.42644 11.3415 5.7831C12.6603 5.13975 14.0955 4.76941 15.561 4.69426V4.69426ZM15.9737 5.63526C14.428 5.68024 12.9118 6.06962 11.5357 6.77501C10.1595 7.48039 8.9582 8.48401 8.01924 9.71266C6.6514 11.5744 5.95289 13.8438 6.03707 16.1524C6.12125 18.4611 6.98319 20.6736 8.48299 22.4308C10.0217 24.1484 12.0885 25.3048 14.3573 25.7177C16.0188 25.9992 17.7245 25.8591 19.3178 25.3103C20.9112 24.7616 22.3413 23.8217 23.4772 22.5768C24.6131 21.3319 25.4183 19.8218 25.8191 18.1849C26.2199 16.548 26.2035 14.8368 25.7713 13.2079C25.1982 11.044 23.9277 9.12928 22.1565 7.76031C20.3853 6.39135 18.2122 5.64444 15.9737 5.63522L15.9737 5.63526Z" fill="#FDBE0F"/>
    <path fill-rule="evenodd" clip-rule="evenodd" d="M20.451 19.924L17.745 12.488H14.672L12.818 17.584L10.963 12.488H8.45801L11.165 19.924H14.471L16.209 15.15L17.946 19.924H20.451Z" fill="#9F6E01"/>
    <path fill-rule="evenodd" clip-rule="evenodd" d="M21.545 19.095L23.95 12.488H21.445L20.292 15.654L21.545 19.095Z" fill="#9F6E01"/>
    <defs>
        <radialGradient id="paint0_radial_1342_73" cx="0" cy="0" r="1" gradientUnits="userSpaceOnUse" gradientTransform="translate(16.0313 15.7476) scale(9.54445 9.57124)">
            <stop stop-color="#FDD444"/>
            <stop offset="1" stop-color="#FDC217"/>
        </radialGradient>
    </defs>
</svg>
