<svg width="32" height="32" viewBox="0 0 32 32" fill="none" xmlns="http://www.w3.org/2000/svg">
    <path fill-rule="evenodd" clip-rule="evenodd" d="M16.0013 31.5554C7.42335 31.5554 0.445312 24.5772 0.445312 15.9999C0.445312 7.42217 7.42335 0.444336 16.0013 0.444336C24.5793 0.444336 31.5573 7.42217 31.5573 15.9999C31.5573 24.5772 24.5793 31.5554 16.0013 31.5554Z" fill="#E6E6E6"/>
    <path fill-rule="evenodd" clip-rule="evenodd" d="M26.0683 6.72168L25.1797 7.61175C27.2003 9.82932 28.4342 12.7769 28.4342 16.0086C28.4342 19.2399 27.2003 22.1882 25.1797 24.4058L26.0683 25.2955C28.3159 22.849 29.6913 19.5869 29.6913 16.0086C29.6913 12.4299 28.3159 9.16777 26.0683 6.72168Z" fill="#5A5564"/>
    <path fill-rule="evenodd" clip-rule="evenodd" d="M7.60154 6.79905C9.81557 4.77519 12.7588 3.53934 15.985 3.53934C19.2115 3.53934 22.1548 4.77519 24.3688 6.79905L25.2575 5.90898C22.8149 3.6578 19.5584 2.28027 15.985 2.28027C12.412 2.28027 9.15548 3.6578 6.71289 5.90898L7.60154 6.79905Z" fill="#5A5564"/>
    <path fill-rule="evenodd" clip-rule="evenodd" d="M6.79087 24.4053C4.77023 22.1877 3.53595 19.2398 3.53595 16.0081C3.53595 12.7768 4.77023 9.82883 6.79087 7.61126L5.90222 6.72119C3.65463 9.16728 2.2793 12.4294 2.2793 16.0081C2.2793 19.5868 3.65463 22.8489 5.90222 25.2954L6.79087 24.4053Z" fill="#5A5564"/>
    <path fill-rule="evenodd" clip-rule="evenodd" d="M24.3688 25.2178C22.1548 27.2416 19.2115 28.4779 15.9854 28.4779C12.7588 28.4779 9.81557 27.2416 7.60154 25.2178L6.71289 26.1078C9.15548 28.359 12.412 29.737 15.9854 29.737C19.5584 29.737 22.8149 28.359 25.2575 26.1078L24.3688 25.2178Z" fill="#5A5564"/>
    <path fill-rule="evenodd" clip-rule="evenodd" d="M26.0683 6.72168L25.1797 7.61175C27.2003 9.82932 28.4342 12.7769 28.4342 16.0086C28.4342 19.2399 27.2003 22.1882 25.1797 24.4058L26.0683 25.2955C28.3159 22.849 29.6913 19.5869 29.6913 16.0086C29.6913 12.4299 28.3159 9.16777 26.0683 6.72168Z" fill="#5A5564"/>
    <path fill-rule="evenodd" clip-rule="evenodd" d="M18.641 13.7676C18.6394 15.5177 15.8972 15.3116 15.0241 15.3112L15.0261 12.2188C15.8991 12.2192 18.6418 11.9422 18.641 13.7676ZM19.3578 18.5789C19.3574 20.5024 16.069 20.2818 15.0209 20.2822L15.0233 16.8724C16.0718 16.8732 19.359 16.5731 19.3578 18.5789ZM21.5247 13.0768C21.3497 11.2423 19.7686 10.6264 17.7723 10.4503L17.7739 7.90572L16.2272 7.90492L16.226 10.3826C15.8192 10.3822 15.4033 10.3902 14.9905 10.3982L14.9925 7.90412L13.4466 7.90332L13.4446 10.4475C13.1097 10.4539 12.7809 10.4599 12.46 10.4599V10.4523L10.3267 10.4503L10.3259 12.1047C10.3259 12.1047 11.4683 12.0835 11.4495 12.1043C12.0756 12.1051 12.2794 12.4693 12.339 12.7839L12.3374 15.6826V15.6934L12.3346 19.7548C12.3066 19.9525 12.1907 20.267 11.7532 20.2678C11.7732 20.2854 10.6288 20.2666 10.6288 20.2666L10.3203 22.1164L12.333 22.1172C12.7074 22.118 13.0762 22.1244 13.4382 22.1272L13.4374 24.7006L14.9821 24.7018L14.9837 22.1552C15.3953 22.164 15.8072 22.168 16.2188 22.1676L16.2172 24.7026L17.7636 24.7034L17.7656 22.134C20.3656 21.9859 22.186 21.3308 22.4134 18.8855C22.5972 16.9165 21.673 16.0372 20.197 15.6818C21.094 15.2252 21.655 14.4195 21.5247 13.0768Z" fill="#F09242"/>
    <path fill-rule="evenodd" clip-rule="evenodd" d="M16 1.2584C7.8716 1.2584 1.2584 7.8716 1.2584 16C1.2584 24.1284 7.8716 30.7416 16 30.7416C24.1284 30.7416 30.7416 24.1284 30.7416 16C30.7416 7.8716 24.1284 1.2584 16 1.2584ZM16 32C7.1772 32 0 24.8224 0 16C0 7.1772 7.1772 0 16 0C24.8228 0 32 7.1772 32 16C32 24.8224 24.8228 32 16 32Z" fill="#282138"/>
</svg>
