<svg width="32" height="32" viewBox="0 0 32 32" fill="none" xmlns="http://www.w3.org/2000/svg">
    <path d="M16 32C24.8366 32 32 24.8366 32 16C32 7.16344 24.8366 0 16 0C7.16344 0 0 7.16344 0 16C0 24.8366 7.16344 32 16 32Z" fill="white"/>
    <path d="M18.6782 27.6036C24.7534 27.6036 29.6782 22.6787 29.6782 16.6036C29.6782 10.5284 24.7534 5.60358 18.6782 5.60358C12.6031 5.60358 7.67822 10.5284 7.67822 16.6036C7.67822 22.6787 12.6031 27.6036 18.6782 27.6036Z" fill="white"/>
    <path d="M23.5721 6.17572C23.1722 5.97621 22.7597 5.80321 22.3372 5.65784C20.474 3.93753 18.0271 2.98887 15.4912 3.00366C12.4996 3.00704 9.63158 4.19692 7.51621 6.31227C5.40085 8.42761 4.21093 11.2957 4.20752 14.2872C4.20752 18.7946 6.16358 21.9419 8.98658 23.747C5.49402 24.1569 4.62543 25.0046 4.62543 25.9888C4.62543 27.3737 7.13294 28.4963 14.6554 28.4963C19.2736 28.4963 23.1548 27.7154 24.3191 26.6533C26.1671 25.6183 27.6939 24.0936 28.7314 22.2469C29.769 20.4002 30.2771 18.3032 30.1999 16.1864C30.1227 14.0696 29.4631 12.0152 28.2938 10.249C27.1245 8.48284 25.4907 7.0734 23.5721 6.17574L23.5721 6.17572ZM18.6778 27.192C16.5836 27.192 14.5365 26.571 12.7952 25.4075C11.054 24.244 9.69681 22.5903 8.8954 20.6555C8.094 18.7208 7.88432 16.5918 8.29288 14.5378C8.70144 12.4839 9.7099 10.5972 11.1907 9.11638C12.6715 7.63556 14.5582 6.62712 16.6122 6.21857C18.6661 5.81001 20.7951 6.01971 22.7299 6.82112C24.6647 7.62254 26.3184 8.97969 27.4818 10.721C28.6453 12.4622 29.2663 14.5094 29.2663 16.6036C29.2631 19.4108 28.1465 22.1022 26.1615 24.0872C24.1764 26.0723 21.4851 27.1888 18.6778 27.192V27.192Z" fill="black"/>
    <path d="M15.9459 13.3437L15.2578 19.2908H13.4299C13.2527 18.3767 12.9944 17.3376 12.8589 16.172C12.7976 16.6715 12.5556 17.7114 12.3295 19.2908H10.5081L9.81592 13.3437H11.1159L11.6393 17.4249C11.6965 16.3867 12.0424 15.0268 12.2701 13.3437H13.4709C13.4929 13.5176 14.0121 17.5677 14.0121 17.5677C14.1003 16.1287 14.4438 14.7207 14.6438 13.3437H15.9459Z" fill="black"/>
    <path d="M16.3711 13.3437H18.9496V14.5338H17.9171V15.6618H18.8835V16.7931H17.9171V18.1007H19.0524V19.2908H16.3711V13.3437Z" fill="black"/>
    <path d="M22.6336 13.3437V14.5338H21.7153V19.2908H20.1686V14.5338H19.2544V13.3437H22.6336Z" fill="black"/>
    <path d="M26.6615 13.3437V19.2908H25.3113V16.7932H24.455V19.2908H23.106V13.3437H24.4487V15.4709H25.3112V13.3437H26.6615Z" fill="black"/>
    <path d="M15.4916 3.83948C17.2079 3.83268 18.8919 4.30582 20.3536 5.20548C19.8504 5.13415 19.3431 5.09666 18.8349 5.09325C16.0562 5.09482 13.3689 6.08576 11.2544 7.88853C9.13992 9.6913 7.73646 12.1881 7.29549 14.9316L5.09473 13.2809C5.34755 10.6978 6.55168 8.30089 8.47313 6.55601C10.3946 4.81113 12.8961 3.8429 15.4916 3.83948V3.83948Z" fill="#C61765"/>
    <path d="M5.0435 14.2873V14.2871L7.17882 15.8886C7.15576 16.1886 7.13306 16.4889 7.13306 16.7948C7.13382 17.5083 7.20375 18.22 7.34187 18.9201L5.30097 16.8792C5.12762 16.0262 5.04136 15.1578 5.0435 14.2873V14.2873Z" fill="#C61765"/>
    <path d="M5.79736 18.5576L7.79988 20.5601C8.071 21.2902 8.42418 21.9871 8.85263 22.6375C7.467 21.5957 6.40714 20.1804 5.79736 18.5576V18.5576Z" fill="#C61765"/>
</svg>
