<svg width="32" height="32" viewBox="0 0 32 32" fill="none" xmlns="http://www.w3.org/2000/svg">
    <path d="M16 32C24.8366 32 32 24.8366 32 16C32 7.16344 24.8366 0 16 0C7.16344 0 0 7.16344 0 16C0 24.8366 7.16344 32 16 32Z" fill="white"/>
    <path d="M8.125 25.442L15.5 21.478L23.875 9.679L8.125 25.442Z" fill="#00C9F8"/>
    <path d="M15.2099 18.344V8.02H4.89893L15.2099 18.344Z" fill="#00C9F8"/>
    <path d="M23.875 16.895L20.227 13.037L15.21 8.02V21.623L23.875 16.895Z" fill="#46F1FF"/>
    <path d="M25.8501 11.654L23.8751 9.679L20.3721 13.195L23.8751 16.895V11.654H25.8501Z" fill="#00C9F8"/>
</svg>
