<svg width="32" height="32" viewBox="0 0 32 32" fill="none" xmlns="http://www.w3.org/2000/svg">
    <path d="M15.9378 31.6159C24.5976 31.6159 31.6178 24.5957 31.6178 15.9359C31.6178 7.27603 24.5976 0.255859 15.9378 0.255859C7.27799 0.255859 0.257812 7.27603 0.257812 15.9359C0.257812 24.5957 7.27799 31.6159 15.9378 31.6159Z" fill="#20252E"/>
    <path d="M15.9363 8.64008C16.6432 8.64008 17.2163 8.06701 17.2163 7.36008C17.2163 6.65316 16.6432 6.08008 15.9363 6.08008C15.2293 6.08008 14.6562 6.65316 14.6562 7.36008C14.6562 8.06701 15.2293 8.64008 15.9363 8.64008Z" fill="white"/>
    <path d="M24.5144 17.2162C25.2213 17.2162 25.7944 16.6431 25.7944 15.9362C25.7944 15.2293 25.2213 14.6562 24.5144 14.6562C23.8075 14.6562 23.2344 15.2293 23.2344 15.9362C23.2344 16.6431 23.8075 17.2162 24.5144 17.2162Z" fill="white"/>
    <path d="M15.9363 25.728C16.6432 25.728 17.2163 25.1549 17.2163 24.448C17.2163 23.7411 16.6432 23.168 15.9363 23.168C15.2293 23.168 14.6562 23.7411 14.6562 24.448C14.6562 25.1549 15.2293 25.728 15.9363 25.728Z" fill="white"/>
    <path fill-rule="evenodd" clip-rule="evenodd" d="M11.9688 7.3596C11.9688 8.96802 12.9478 10.3666 14.3373 10.9868V13.5043C14.3373 13.9523 14.0173 14.2723 13.5693 14.2723H11.0229C10.3888 12.9168 9.00861 11.9678 7.42503 11.9678C5.24903 11.9678 3.45703 13.7598 3.45703 15.9358C3.45703 18.1118 5.24903 19.9038 7.42503 19.9038C9.00819 19.9038 10.3881 18.9552 11.0224 17.6003H13.5053C13.9533 17.6003 14.2733 17.9203 14.2733 18.3683V20.8505C12.9178 21.4846 11.9688 22.8649 11.9688 24.4485C11.9688 26.6245 13.7607 28.4165 15.9367 28.4165C18.1768 28.4165 19.9048 26.6245 19.9048 24.4485C19.9048 22.8653 18.9562 21.4854 17.6013 20.851V18.3683C17.6013 17.9203 17.9213 17.6003 18.3693 17.6003H20.9174C21.5518 18.9552 22.9317 19.9038 24.5149 19.9038C26.6909 19.9038 28.4829 18.1118 28.4829 15.9358C28.4829 13.7598 26.6909 11.9678 24.5149 11.9678C22.9313 11.9678 21.5511 12.9168 20.9169 14.2723H18.4333C17.9853 14.2723 17.6653 13.9523 17.6653 13.5043V10.9449C19.0271 10.3052 19.9509 8.93276 19.9046 7.3596C19.9046 5.1836 18.1126 3.3916 15.9367 3.3916C13.7607 3.3916 11.9688 5.1836 11.9688 7.3596ZM15.9367 4.6716C14.4647 4.6716 13.2487 5.8876 13.2487 7.3596C13.2487 8.8316 14.4647 10.0476 15.9367 10.0476C17.4086 10.0476 18.6247 8.8316 18.6247 7.3596C18.6247 5.8876 17.4727 4.6716 15.9367 4.6716ZM21.8269 15.8718C21.8269 14.3998 23.0429 13.1838 24.5149 13.1838C25.9869 13.1838 27.2029 14.3998 27.2029 15.8718C27.2029 17.3438 25.9869 18.5598 24.5149 18.5598C23.0429 18.5598 21.8269 17.3438 21.8269 15.8718ZM15.9367 21.7605C14.4647 21.7605 13.2488 22.9765 13.2488 24.4485C13.2488 25.9205 14.4647 27.1365 15.9367 27.1365C17.4088 27.1365 18.6248 25.9205 18.6248 24.4485C18.6248 22.9765 17.4727 21.7605 15.9367 21.7605ZM4.73703 15.8718C4.73703 14.3998 5.95303 13.1838 7.42503 13.1838C8.89703 13.1838 10.113 14.3998 10.113 15.8718C10.113 17.3438 8.89703 18.5598 7.42503 18.5598C5.95303 18.5598 4.73703 17.3438 4.73703 15.8718Z" fill="white"/>
    <path d="M7.42453 17.2162C8.13146 17.2162 8.70453 16.6431 8.70453 15.9362C8.70453 15.2293 8.13146 14.6562 7.42453 14.6562C6.71761 14.6562 6.14453 15.2293 6.14453 15.9362C6.14453 16.6431 6.71761 17.2162 7.42453 17.2162Z" fill="white"/>
</svg>
