<svg width="32" height="32" viewBox="0 0 32 32" fill="none" xmlns="http://www.w3.org/2000/svg">
  <path d="M16 32C24.8366 32 32 24.8366 32 16C32 7.16344 24.8366 0 16 0C7.16344 0 0 7.16344 0 16C0 24.8366 7.16344 32 16 32Z" fill="white"/>
  <path d="M26.0791 9.70001H22.6388L21.0522 14.9164H24.4423L26.0791 9.70001Z" fill="#212630"/>
  <path d="M18.2133 14.664L19.9168 18.6857L20.5347 16.6328H23.9081L22.0043 22.8756C21.9306 23.1147 21.7821 23.3238 21.5807 23.4722C21.3793 23.6206 21.1356 23.7004 20.8854 23.7H18.9648C18.7307 23.6987 18.5024 23.6276 18.309 23.4957C18.1156 23.3638 17.9659 23.1771 17.8793 22.9596L15.7751 17.777L13.6875 22.9429C13.6019 23.1611 13.4525 23.3484 13.2589 23.4804C13.0653 23.6125 12.8364 23.6832 12.602 23.6833H10.6647C10.4145 23.6837 10.1708 23.6038 9.96938 23.4554C9.76796 23.307 9.61949 23.0978 9.5458 22.8587L5.521 9.70001H8.91115L11.5832 18.6856L13.3535 14.6303C13.5427 14.1372 13.8778 13.7136 14.314 13.416C14.7503 13.1183 15.2669 12.9608 15.795 12.9645C16.3232 12.9682 16.8376 13.1328 17.2697 13.4365C17.7018 13.7401 18.0309 14.1683 18.2133 14.664L18.2133 14.664Z" fill="#212630"/>
</svg>
