<svg width="32" height="32" viewBox="0 0 32 32" fill="none" xmlns="http://www.w3.org/2000/svg">
    <path d="M16 32C24.8366 32 32 24.8366 32 16C32 7.16344 24.8366 0 16 0C7.16344 0 0 7.16344 0 16C0 24.8366 7.16344 32 16 32Z" fill="#FEE600"/>
    <path fill-rule="evenodd" clip-rule="evenodd" d="M3.99268 5.42512C4.78283 4.52862 5.67181 3.72131 6.64257 3.02023L11.0947 18.9383L13.0684 10.5H16.8075L18.78 18.9383L21.1169 10.5H24.8659L24.9011 10.6503L28.9755 25.3636C28.2363 26.3861 27.3793 27.3177 26.4243 28.1386L22.9885 15.7285L21.0287 22.8075L20.9935 22.9572H16.8075L14.9382 16.0251L13.0684 22.9572H8.88178L8.84718 22.8075L3.99268 5.42512Z" fill="black"/>
</svg>
