<svg width="32" height="32" viewBox="0 0 32 32" fill="none" xmlns="http://www.w3.org/2000/svg">
    <path opacity="0.98" d="M16 32C24.8366 32 32 24.8366 32 16C32 7.16344 24.8366 0 16 0C7.16344 0 0 7.16344 0 16C0 24.8366 7.16344 32 16 32Z" fill="#3168F0"/>
    <path d="M6.29938 23.9891H25.7006V22.1413H6.29938V23.9891ZM9.99454 12.6121L5.375 9.20656L6.22436 19.3696L9.99454 12.6121ZM12.7663 20.2934H25.6986L26.625 9.20656L12.7663 20.2934ZM21.0815 12.3459L10.2151 20.2934H7.22279L12.7442 11.2466L16.2686 5.51086L21.0815 12.3459Z" fill="white"/>
</svg>
