<svg width="32" height="32" viewBox="0 0 32 32" fill="none" xmlns="http://www.w3.org/2000/svg">
    <path d="M16 32C24.8366 32 32 24.8366 32 16C32 7.16344 24.8366 0 16 0C7.16344 0 0 7.16344 0 16C0 24.8366 7.16344 32 16 32Z" fill="white"/>
    <path fill-rule="evenodd" clip-rule="evenodd" d="M19.2562 4.20232V3.45288C19.2566 3.33324 19.2096 3.21832 19.1253 3.13339C19.041 3.04845 18.9265 3.00047 18.8068 3C18.7993 3 18.7918 3.00016 18.7843 3.00048C16.3491 3.11797 14.0461 4.14252 12.3284 5.87254C10.6106 7.60256 9.60251 9.91279 9.50235 12.3487C9.50207 12.4028 9.51284 12.4564 9.53399 12.5062C9.55514 12.556 9.58622 12.6009 9.62535 12.6383C9.66448 12.6756 9.71082 12.7046 9.76153 12.7234C9.81225 12.7423 9.86627 12.7506 9.9203 12.7478H10.6814C10.7973 12.7478 10.9088 12.7033 10.9928 12.6235C11.0767 12.5436 11.1268 12.4345 11.1325 12.3188C11.2391 10.3113 12.0853 8.4143 13.5079 6.99378C14.9304 5.57327 16.8286 4.72981 18.8363 4.6261C19.1535 4.5858 19.2549 4.41226 19.2549 4.20166L19.2562 4.20232ZM12.402 12.7484H13.1307C13.2445 12.7482 13.3539 12.7046 13.4369 12.6267C13.5198 12.5487 13.5699 12.4421 13.5772 12.3285C13.6787 10.961 14.2703 9.67611 15.2432 8.70983C16.2162 7.74356 17.5052 7.16085 18.8733 7.06879C18.9811 7.06226 19.0819 7.0132 19.1536 6.93239C19.2253 6.85157 19.2619 6.74561 19.2555 6.63779V5.8962C19.2554 5.8367 19.2436 5.77781 19.2207 5.72288C19.1978 5.66796 19.1643 5.61808 19.1222 5.5761C19.08 5.53411 19.03 5.50084 18.975 5.47819C18.9199 5.45554 18.861 5.44395 18.8015 5.44408L18.7719 5.44508C17.0017 5.56234 15.3343 6.31848 14.0797 7.57289C12.8252 8.8273 12.0689 10.4946 11.9515 12.2648C11.9475 12.3242 11.9552 12.3837 11.9742 12.4401C11.9932 12.4965 12.0231 12.5486 12.0623 12.5934C12.1014 12.6382 12.149 12.6749 12.2023 12.7013C12.2556 12.7277 12.3136 12.7434 12.373 12.7474L12.402 12.7484L12.402 12.7484ZM19.2561 8.34402V9.089C19.2551 9.19668 19.2143 9.30018 19.1416 9.37961C19.0689 9.45904 18.9694 9.50879 18.8622 9.51929C18.1423 9.60727 17.4724 9.93319 16.9589 10.4453C16.4453 10.9575 16.1176 11.6265 16.0276 12.3461C16.015 12.4566 15.9624 12.5587 15.8796 12.633C15.7968 12.7072 15.6897 12.7486 15.5785 12.7491H14.8505C14.7913 12.7493 14.7327 12.7378 14.678 12.7153C14.6233 12.6928 14.5735 12.6598 14.5316 12.6181C14.4896 12.5764 14.4563 12.5268 14.4335 12.4722C14.4107 12.4176 14.3989 12.3591 14.3988 12.2999C14.3987 12.2856 14.3994 12.2714 14.4007 12.2571C14.5143 11.1384 15.0106 10.0933 15.8057 9.29826C16.6008 8.50324 17.6461 8.0071 18.7647 7.89367C18.8236 7.88829 18.883 7.89457 18.9395 7.91214C18.996 7.92972 19.0485 7.95825 19.0939 7.9961C19.1394 8.03395 19.1769 8.08039 19.2044 8.13275C19.232 8.18512 19.2489 8.24239 19.2543 8.3013C19.2556 8.31551 19.2562 8.32977 19.2562 8.34408L19.2561 8.34402ZM27.7984 19.2334C27.5878 19.2334 27.4149 19.1314 27.3733 18.8148C27.2697 16.8071 26.4263 14.909 25.0057 13.4866C23.5851 12.0643 21.6881 11.2184 19.6806 11.1123C19.5647 11.1067 19.4554 11.0567 19.3753 10.9727C19.2952 10.8888 19.2505 10.7773 19.2503 10.6612V9.90016C19.2476 9.8461 19.2559 9.79206 19.2748 9.74134C19.2937 9.69062 19.3228 9.64428 19.3602 9.60517C19.3976 9.56605 19.4426 9.53497 19.4924 9.51383C19.5423 9.49269 19.5959 9.48194 19.65 9.48222C22.0858 9.582 24.3961 10.5897 26.1264 12.3071C27.8566 14.0245 28.8816 16.3272 28.9995 18.7622C29.0022 18.8214 28.9931 18.8805 28.9729 18.9362C28.9527 18.9919 28.9218 19.0431 28.8818 19.0868C28.8418 19.1305 28.7936 19.1659 28.7399 19.191C28.6863 19.2161 28.6282 19.2304 28.569 19.233C28.5619 19.2333 28.5549 19.2335 28.5478 19.2335L27.7984 19.2334ZM19.2503 12.3798C19.2503 12.3178 19.2631 12.2565 19.2879 12.1997C19.3126 12.1429 19.3488 12.0917 19.3942 12.0495C19.4395 12.0072 19.4931 11.9748 19.5515 11.9541C19.61 11.9335 19.672 11.925 19.7339 11.9294C21.504 12.0466 23.1713 12.8027 24.4258 14.0569C25.6803 15.3112 26.4367 16.9784 26.5543 18.7485C26.5584 18.8078 26.5507 18.8674 26.5318 18.9238C26.5129 18.9802 26.483 19.0323 26.444 19.0772C26.4049 19.1221 26.3574 19.1588 26.3041 19.1853C26.2508 19.2118 26.1928 19.2275 26.1335 19.2316L26.1032 19.2327H25.3615C25.2536 19.2391 25.1476 19.2024 25.0668 19.1306C24.986 19.0588 24.937 18.9579 24.9306 18.85V18.8499C24.8382 17.4818 24.2553 16.1931 23.2889 15.2203C22.3225 14.2476 21.0376 13.6563 19.6702 13.555C19.5566 13.5476 19.45 13.4974 19.372 13.4145C19.2939 13.3317 19.2502 13.2223 19.2496 13.1085V12.3805L19.2503 12.3798ZM23.6553 19.2327H22.9097C22.8021 19.2315 22.6987 19.1906 22.6194 19.1179C22.54 19.0453 22.4902 18.9459 22.4794 18.8388C22.3913 18.1189 22.0652 17.4491 21.553 16.9357C21.0407 16.4222 20.3717 16.0946 19.652 16.0048C19.5415 15.9921 19.4395 15.9393 19.3653 15.8564C19.2912 15.7735 19.25 15.6662 19.2496 15.555V14.8277C19.2494 14.7649 19.2623 14.7028 19.2876 14.6453C19.3128 14.5878 19.3497 14.5362 19.3961 14.4939C19.4424 14.4515 19.4971 14.4193 19.5566 14.3994C19.6161 14.3794 19.6791 14.3721 19.7416 14.3779C20.8602 14.4913 21.9053 14.9873 22.7005 15.7822C23.4956 16.5771 23.9919 17.6221 24.1057 18.7406C24.1167 18.8596 24.08 18.9781 24.0037 19.07C23.9274 19.1619 23.8177 19.2197 23.6988 19.2308C23.6843 19.2322 23.6699 19.2328 23.6553 19.2328L23.6553 19.2327ZM4.20228 12.7464C4.41288 12.7464 4.58578 12.8485 4.62738 13.165C4.73092 15.1726 5.57436 17.0708 6.99494 18.4931C8.41552 19.9155 10.3126 20.7614 12.3201 20.8674C12.4359 20.8733 12.545 20.9234 12.625 21.0073C12.7051 21.0912 12.7499 21.2026 12.7504 21.3185V22.0803C12.753 22.1343 12.7446 22.1883 12.7256 22.239C12.7067 22.2896 12.6776 22.3359 12.6402 22.375C12.6028 22.414 12.5578 22.445 12.508 22.4661C12.4583 22.4872 12.4047 22.4979 12.3506 22.4976C9.91475 22.3978 7.60443 21.39 5.87409 19.6727C4.14376 17.9553 3.11866 15.6527 3.00045 13.2176C2.9978 13.1585 3.00684 13.0993 3.02704 13.0436C3.04724 12.988 3.07821 12.9368 3.11819 12.8931C3.15816 12.8494 3.20636 12.8139 3.26002 12.7888C3.31368 12.7638 3.37176 12.7495 3.43094 12.7468C3.43802 12.7465 3.4451 12.7464 3.45219 12.7464H4.20228V12.7464ZM12.7497 19.5993C12.7497 19.6613 12.7369 19.7226 12.7121 19.7794C12.6873 19.8363 12.6512 19.8874 12.6058 19.9296C12.5604 19.9719 12.5069 20.0044 12.4484 20.025C12.39 20.0457 12.3279 20.0541 12.2661 20.0497C10.496 19.9326 8.82858 19.1766 7.57404 17.9223C6.31951 16.668 5.56318 15.0008 5.44572 13.2307C5.44162 13.1713 5.44925 13.1117 5.46817 13.0553C5.4871 12.9989 5.51695 12.9468 5.55602 12.9019C5.5951 12.8571 5.64263 12.8203 5.6959 12.7938C5.74917 12.7673 5.80714 12.7516 5.86649 12.7475L5.89682 12.7464H6.63846C6.74634 12.7402 6.85228 12.777 6.93307 12.8488C7.01385 12.9205 7.06288 13.0214 7.0694 13.1293C7.16177 14.4973 7.7447 15.7861 8.71108 16.7588C9.67746 17.7315 10.9624 18.3228 12.3298 18.4241C12.4434 18.4315 12.55 18.4817 12.628 18.5646C12.706 18.6474 12.7498 18.7568 12.7504 18.8707V19.5987L12.7497 19.5993ZM8.3447 12.7464H9.09024C9.19786 12.7477 9.30124 12.7885 9.38062 12.8612C9.46001 12.9339 9.50982 13.0332 9.52054 13.1403C9.60853 13.8603 9.93454 14.5303 10.4468 15.0439C10.9591 15.5575 11.6282 15.8852 12.348 15.975C12.4583 15.9877 12.5601 16.0403 12.6342 16.123C12.7083 16.2056 12.7497 16.3125 12.7504 16.4235V17.1515C12.7507 17.2711 12.7035 17.386 12.6191 17.4708C12.5347 17.5557 12.4201 17.6035 12.3005 17.6038C12.2864 17.6038 12.2723 17.6032 12.2583 17.6019C11.1396 17.4885 10.0944 16.9924 9.29932 16.1973C8.50419 15.4023 8.0079 14.3572 7.89431 13.2385C7.88885 13.1796 7.89504 13.1202 7.91253 13.0637C7.93002 13.0072 7.95847 12.9547 7.99626 12.9092C8.03404 12.8637 8.08042 12.8261 8.13275 12.7985C8.18507 12.7709 8.24232 12.7539 8.30122 12.7484C8.31567 12.7471 8.33016 12.7464 8.34471 12.7465L8.3447 12.7464ZM12.7517 27.7983C12.7517 27.5877 12.8538 27.4148 13.1703 27.3739C15.178 27.2705 17.0763 26.4273 18.4989 25.0068C19.9215 23.5864 20.7676 21.6894 20.874 19.6819C20.8798 19.5661 20.9299 19.457 21.0138 19.377C21.0978 19.2971 21.2092 19.2524 21.3251 19.2522H22.0869C22.1409 19.2495 22.1949 19.2579 22.2455 19.2767C22.2962 19.2956 22.3424 19.3246 22.3815 19.3619C22.4205 19.3993 22.4516 19.4442 22.4727 19.494C22.4938 19.5438 22.5045 19.5973 22.5042 19.6513C22.404 22.0872 21.3959 24.3975 19.6782 26.1275C17.9604 27.8575 15.6574 28.8821 13.2223 28.9995C13.1631 29.0021 13.104 28.993 13.0483 28.9727C12.9927 28.9524 12.9416 28.9214 12.8979 28.8813C12.8542 28.8413 12.8189 28.793 12.7939 28.7393C12.7689 28.6857 12.7547 28.6276 12.7521 28.5684C12.7518 28.5615 12.7517 28.5547 12.7517 28.5478V27.7983ZM19.6052 19.2522C19.6672 19.2523 19.7286 19.2651 19.7854 19.2899C19.8422 19.3146 19.8934 19.3508 19.9357 19.3961C19.978 19.4415 20.0105 19.495 20.0313 19.5534C20.052 19.6119 20.0606 19.6739 20.0563 19.7358C19.9388 21.506 19.1825 23.1732 17.928 24.4276C16.6734 25.682 15.0061 26.4382 13.2359 26.5556C13.116 26.5639 12.9978 26.5242 12.9072 26.4453C12.8166 26.3664 12.761 26.2547 12.7527 26.1348L12.7517 26.1045V25.3629C12.7454 25.255 12.7822 25.149 12.854 25.0682C12.9258 24.9874 13.0266 24.9384 13.1345 24.9319C14.5026 24.8397 15.7914 24.2569 16.7642 23.2907C17.7371 22.3244 18.3285 21.0396 18.43 19.6722C18.4376 19.5587 18.4878 19.4523 18.5707 19.3744C18.6535 19.2965 18.7628 19.2528 18.8766 19.2523L19.6052 19.2522ZM12.7517 23.6566V22.9117C12.7528 22.804 12.7937 22.7006 12.8663 22.6212C12.939 22.5418 13.0385 22.492 13.1456 22.4814C13.8657 22.3935 14.5358 22.0676 15.0495 21.5553C15.5632 21.0431 15.891 20.3739 15.9808 19.654C15.9938 19.5439 16.0466 19.4423 16.1291 19.3684C16.2117 19.2944 16.3185 19.2531 16.4293 19.2523H17.1573C17.2201 19.2521 17.2822 19.265 17.3397 19.2901C17.3972 19.3153 17.4488 19.3522 17.4912 19.3984C17.5336 19.4447 17.5659 19.4993 17.5859 19.5588C17.606 19.6182 17.6135 19.6812 17.6078 19.7437C17.4942 20.8624 16.9979 21.9075 16.2028 22.7025C15.4076 23.4975 14.3624 23.9937 13.2437 24.1071C13.1848 24.1126 13.1254 24.1064 13.0689 24.0889C13.0124 24.0714 12.9599 24.0429 12.9144 24.0052C12.8689 23.9674 12.8312 23.921 12.8037 23.8687C12.7761 23.8163 12.7591 23.7591 12.7536 23.7002C12.7523 23.6857 12.7516 23.6712 12.7517 23.6566L12.7517 23.6566Z" fill="#FF5C00"/>
</svg>
