<svg width="32" height="32" viewBox="0 0 32 32" fill="none" xmlns="http://www.w3.org/2000/svg">
    <path d="M16 32C24.8366 32 32 24.8366 32 16C32 7.16344 24.8366 0 16 0C7.16344 0 0 7.16344 0 16C0 24.8366 7.16344 32 16 32Z" fill="url(#paint0_linear)"/>
    <path d="M11.661 12.8241C12.8986 12.1077 14.1473 11.3912 15.385 10.6748C15.5668 10.5663 15.7746 10.5089 15.9863 10.5089C16.198 10.5089 16.4058 10.5663 16.5876 10.6748L18.4294 11.7264C18.453 11.7411 18.4724 11.7616 18.4859 11.786C18.4994 11.8103 18.5065 11.8377 18.5065 11.8655C18.5065 11.8933 18.4994 11.9206 18.4859 11.945C18.4724 11.9693 18.453 11.9898 18.4294 12.0045L13.9282 14.594C13.8714 14.6268 13.8244 14.6741 13.792 14.7311C13.7597 14.788 13.7431 14.8526 13.744 14.9182V17.0914C13.7432 17.1552 13.76 17.218 13.7925 17.2728C13.825 17.3277 13.8719 17.3726 13.9282 17.4027L15.8123 18.4893C15.8659 18.5236 15.9282 18.5418 15.9918 18.5418C16.0555 18.5418 16.1178 18.5236 16.1714 18.4893L23.9399 14.0157C24.2444 13.8101 24.4939 13.5329 24.6663 13.2084C24.8387 12.8839 24.9289 12.5221 24.9289 12.1546C24.9289 11.7872 24.8387 11.4253 24.6663 11.1008C24.4939 10.7764 24.2444 10.4991 23.9399 10.2935L16.956 6.26931C16.6649 6.09314 16.3312 6 15.9909 6C15.6507 6 15.3169 6.09314 15.0258 6.26931L8.04193 10.2935C7.74543 10.461 7.49908 10.7047 7.32843 10.9994C7.15777 11.2941 7.06901 11.629 7.07133 11.9695C7.07133 14.6567 7.08238 17.3456 7.07133 20.0272C7.06907 20.3679 7.15784 20.7031 7.32847 20.9981C7.49911 21.293 7.74541 21.5371 8.04193 21.705L15.0258 25.7403C15.319 25.9104 15.652 26 15.9909 26C16.3299 26 16.6628 25.9104 16.956 25.7403L23.9399 21.705C24.2363 21.5379 24.482 21.2937 24.651 20.9984C24.8199 20.703 24.9058 20.3674 24.8995 20.0272V16.5279L16.5876 21.3349C16.4055 21.4424 16.1978 21.4992 15.9863 21.4992C15.7748 21.4992 15.5671 21.4424 15.385 21.3349L11.6757 19.1837C11.4908 19.0807 11.3372 18.9296 11.2311 18.7464C11.1251 18.5632 11.0706 18.3547 11.0735 18.1431V13.8536C11.0727 13.6454 11.1267 13.4406 11.2302 13.2599C11.3336 13.0792 11.4828 12.9289 11.6628 12.8241H11.661Z" fill="white"/>
    <defs>
        <linearGradient id="paint0_linear" x1="8.83426" y1="-5.29255" x2="21.9591" y2="33.7072" gradientUnits="userSpaceOnUse">
            <stop stop-color="#273498"/>
            <stop offset="0.53" stop-color="#0074C2"/>
            <stop offset="1" stop-color="#00ABE7"/>
        </linearGradient>
    </defs>
</svg>
