<svg width="32" height="32" viewBox="0 0 32 32" fill="none" xmlns="http://www.w3.org/2000/svg">
    <path d="M32 16C32 24.8366 24.8366 32 16 32C7.16344 32 0 24.8366 0 16C0 7.16344 7.16344 0 16 0C24.8366 0 32 7.16344 32 16Z" fill="white"/>
    <path d="M16.0003 5C20.1007 5 24.1451 6.08365 27.6959 8.13378L27.9595 8.28571V8.59029C27.9595 16.9207 23.4783 24.6828 16.264 28.8477L16.0003 29L15.7368 28.8481C8.52251 24.6827 4.04102 16.9207 4.04102 8.59029V8.28571L4.30438 8.13378C7.85572 6.08365 11.8997 5 16.0003 5Z" fill="white"/>
    <path d="M26.9042 8.89556C26.835 13.9183 25.0626 18.7089 22.0082 22.5354C22.0549 22.2297 22.0795 21.9183 22.0795 21.6032C22.0795 19.3853 20.8855 17.4413 19.1067 16.3798V16.3786C19.079 16.3634 19.051 16.347 19.0238 16.3308C17.4834 15.431 16.5283 13.7779 16.5283 11.9888C16.5283 9.21917 18.7814 6.96594 21.5524 6.96594C22.0233 6.96594 22.4885 7.03056 22.9361 7.15927C24.3078 7.60688 25.6375 8.18791 26.9042 8.89556Z" fill="#67B9E8"/>
    <path d="M19.3778 6.3131C17.097 7.18841 15.4728 9.40269 15.4728 11.9886C15.4728 13.8491 14.4561 15.4778 12.9482 16.3458C12.2112 16.7701 11.3583 17.0124 10.4487 17.0124C8.18798 17.0124 6.21453 15.4951 5.61236 13.351C5.29382 11.9006 5.11795 10.4079 5.09717 8.89536C8.42322 7.03595 12.1864 6.05411 16.0002 6.05411C17.1344 6.05446 18.2638 6.14091 19.3778 6.3131Z" fill="#FAB600"/>
    <path d="M21.0254 21.6032C21.0254 22.9151 20.5109 24.1689 19.6054 25.1027C18.5078 26.1056 17.3022 27.004 16.0015 27.7794C11.6862 25.2092 8.42323 21.2784 6.6377 16.7195C7.68991 17.5665 9.0233 18.0669 10.4501 18.0669C11.527 18.0669 12.5394 17.7859 13.4169 17.2925V17.2936C13.4356 17.282 13.4543 17.2714 13.4742 17.2607C14.2381 16.8142 15.1111 16.5789 16.0015 16.5789C16.9105 16.5789 17.7638 16.8213 18.4995 17.2455C20.0076 18.1138 21.0254 19.7424 21.0254 21.6032Z" fill="#4FBAAD"/>
</svg>
