<svg width="32" height="32" viewBox="0 0 32 32" fill="none" xmlns="http://www.w3.org/2000/svg">
    <path d="M32 16C32 24.8366 24.8366 32 16 32C7.16344 32 0 24.8366 0 16C0 7.16344 7.16344 0 16 0C24.8366 0 32 7.16344 32 16Z" fill="white"/>
    <path d="M15.9998 1.5C7.99334 1.5 1.5 7.99269 1.5 15.9997C1.5 17.6005 1.75932 19.14 2.23868 20.58H6.57491V8.38011L15.9998 17.8052L25.4247 8.38011V20.58H29.7613C30.2407 19.14 30.5 17.6005 30.5 15.9997C30.5 7.99269 24.0067 1.5 15.9998 1.5Z" fill="#FF6600"/>
    <path d="M9.71972 15.8584V23.535H3.60986C6.15518 27.711 10.7523 30.5 15.9997 30.5C21.2471 30.5 25.8446 27.711 28.3895 23.535H22.2801V15.8584L15.9997 22.139L9.71972 15.8584Z" fill="#4C4C4C"/>
</svg>
