<svg width="32" height="32" viewBox="0 0 32 32" fill="none" xmlns="http://www.w3.org/2000/svg">
    <path d="M16 32C24.8366 32 32 24.8366 32 16C32 7.16344 24.8366 0 16 0C7.16344 0 0 7.16344 0 16C0 24.8366 7.16344 32 16 32Z" fill="#091724"/>
    <path d="M12.5422 10C12.7739 10 12.9965 10.0904 13.1627 10.2519L13.1717 10.2608L16.9237 14.0148C17.2518 14.343 17.6925 14.534 18.1564 14.5489C18.6202 14.5638 19.0723 14.4014 19.4207 14.0949L19.4425 14.0755L22.1933 11.5764C22.241 11.533 22.2745 11.4762 22.2893 11.4135C22.3042 11.3507 22.2997 11.285 22.2764 11.2248C22.2532 11.1647 22.2123 11.113 22.1591 11.0765C22.1059 11.04 22.043 11.0205 21.9785 11.0205H19.8974C19.8143 11.0205 19.7345 11.0529 19.6748 11.1108L17.7581 12.9717C17.6712 13.0557 17.5545 13.1019 17.4337 13.1C17.3128 13.0981 17.1977 13.0483 17.1135 12.9616C17.0293 12.8749 16.9829 12.7584 16.9845 12.6375C16.9862 12.5167 17.0357 12.4014 17.1222 12.317L19.1386 10.3595C19.3015 10.2013 19.5188 10.1113 19.7459 10.1081L19.7585 10.108H22.8641C23.0426 10.108 23.217 10.1617 23.3647 10.2621C23.5123 10.3625 23.6263 10.5051 23.6918 10.6711C23.7574 10.8372 23.7714 11.0192 23.7322 11.1934C23.6929 11.3675 23.6022 11.5259 23.4717 11.6478L23.4625 11.6563L20.0561 14.7509C19.5409 15.219 18.8668 15.4733 18.1708 15.4621C17.4748 15.4509 16.8092 15.175 16.3093 14.6907L16.2781 14.6599L12.6263 11.0062C12.5966 10.9766 12.5614 10.953 12.5226 10.9369C12.4839 10.9209 12.4423 10.9126 12.4003 10.9126H10.3643C10.3017 10.9126 10.2405 10.931 10.1882 10.9655C10.136 11 10.0951 11.0491 10.0705 11.1067C10.0459 11.1642 10.0388 11.2277 10.05 11.2893C10.0612 11.3509 10.0903 11.4078 10.1336 11.453L12.5392 13.9645C13.036 14.4831 13.3091 15.1763 13.2995 15.8945C13.29 16.6127 12.9985 17.2983 12.488 17.8036L12.4556 17.8352L12.4419 17.8482L12.4281 17.8611L9.78487 20.3231C9.73793 20.3669 9.70524 20.4237 9.69105 20.4863C9.67687 20.5488 9.68185 20.6142 9.70534 20.6739C9.72883 20.7336 9.76975 20.7848 9.82277 20.8209C9.87579 20.857 9.93845 20.8763 10.0026 20.8763H12.1008C12.1792 20.8763 12.2549 20.8475 12.3134 20.7953L16.2995 17.2412C16.7997 16.7953 17.446 16.5482 18.1161 16.5468C18.7862 16.5454 19.4335 16.7897 19.9356 17.2335L19.9668 17.2616L23.4668 20.4529C23.5986 20.5731 23.6912 20.7302 23.7326 20.9037C23.774 21.0772 23.7623 21.2592 23.699 21.426C23.6357 21.5928 23.5238 21.7367 23.3777 21.8391C23.2315 21.9414 23.058 21.9975 22.8796 22H19.7683C19.65 22 19.5329 21.9764 19.4238 21.9306C19.3148 21.8849 19.2159 21.8178 19.1331 21.7334L19.1243 21.7244L17.0975 19.5995C17.014 19.5119 16.9687 19.3948 16.9715 19.2738C16.9744 19.1528 17.0252 19.038 17.1127 18.9545L17.1128 18.9544C17.2004 18.8709 17.3175 18.8256 17.4385 18.8284C17.5595 18.8313 17.6744 18.8821 17.758 18.9697L19.6837 20.9886C19.7135 21.0199 19.7493 21.0448 19.7891 21.0618C19.8288 21.0788 19.8716 21.0876 19.9148 21.0876H21.9838C22.0483 21.0876 22.1112 21.0681 22.1644 21.0317C22.2176 20.9953 22.2585 20.9437 22.2818 20.8836C22.3051 20.8235 22.3097 20.7577 22.2949 20.695C22.2801 20.6322 22.2467 20.5754 22.1991 20.532L19.3519 17.9359C19.0218 17.6349 18.5927 17.4654 18.146 17.4595C17.6994 17.4536 17.266 17.6117 16.928 17.9038L16.907 17.9223L12.8236 21.5632C12.6638 21.7057 12.458 21.7858 12.2439 21.7888L12.2313 21.7889H9.133C8.95558 21.7889 8.78222 21.7359 8.63517 21.6366C8.48811 21.5374 8.37409 21.3965 8.30774 21.2319C8.24138 21.0674 8.22573 20.8868 8.2628 20.7133C8.29986 20.5398 8.38794 20.3813 8.51574 20.2583L8.52643 20.2481L11.806 17.1934L11.8243 17.1761C12.1701 16.8449 12.372 16.3911 12.3863 15.9125C12.4006 15.4339 12.2262 14.9688 11.9007 14.6176L11.88 14.5956L8.91981 11.5051C8.80007 11.3801 8.7194 11.2229 8.68768 11.0527C8.65597 10.8826 8.67457 10.7068 8.74122 10.5471C8.80788 10.3873 8.91968 10.2505 9.06294 10.1533C9.2062 10.0561 9.37469 10.0029 9.54777 10H12.5422Z" fill="url(#paint0_linear_1400_28)"/>
    <defs>
        <linearGradient id="paint0_linear_1400_28" x1="19.2516" y1="12.4767" x2="17.1334" y2="16.5845" gradientUnits="userSpaceOnUse">
            <stop stop-color="#1E37DC"/>
            <stop offset="1" stop-color="#F2018A"/>
        </linearGradient>
    </defs>
</svg>
