<svg width="32" height="32" viewBox="0 0 32 32" fill="none" xmlns="http://www.w3.org/2000/svg">
    <circle cx="16" cy="16" r="16" fill="url(#paint0_linear)"/>
    <path fill-rule="evenodd" clip-rule="evenodd" d="M15.9926 6C17.2859 6 18.4015 7.33111 19.1363 9.49407C18.84 9.5763 18.5363 9.66741 18.2304 9.76963C17.62 7.98 16.7822 6.92704 15.9926 6.92704C15.1026 6.92704 14.1533 8.26259 13.5352 10.4822C13.7767 10.5596 14.0204 10.6415 14.2693 10.7326C14.8555 10.9478 15.4324 11.1875 15.9985 11.4511L16.0996 11.4041C16.5137 11.2153 16.9332 11.0389 17.3578 10.8752C18.4711 10.4493 19.5467 10.143 20.5311 9.98148C22.6515 9.63185 24.1422 9.99333 24.7274 11C25.3141 12.0067 24.8852 13.4674 23.52 15.1126C23.4407 15.2067 23.3607 15.3019 23.2767 15.3959C23.0669 15.1653 22.8498 14.9414 22.6259 14.7244C23.8311 13.3393 24.3052 12.1281 23.9181 11.4637C23.5515 10.8344 22.3441 10.6226 20.6848 10.8952C20.3144 10.9575 19.9469 11.0361 19.5833 11.1307C19.637 11.377 19.6878 11.6285 19.7322 11.8889C19.8344 12.4715 19.9137 13.0881 19.97 13.7304C20.258 13.9301 20.5413 14.1366 20.8196 14.3496C21.8911 15.1719 22.8115 16.0344 23.5196 16.8874C24.8852 18.5326 25.3141 19.9933 24.7274 21C24.2878 21.7563 23.3367 22.1481 21.9915 22.1481C21.5467 22.1481 21.0589 22.1059 20.5311 22.0185C20.3948 21.9963 20.2559 21.9707 20.1155 21.943C20.1996 21.6556 20.2774 21.3548 20.3481 21.0437C20.4615 21.0659 20.5741 21.0859 20.6848 21.1048C22.343 21.3774 23.5515 21.1656 23.9181 20.5363C24.3626 19.7722 23.6681 18.2856 22.0341 16.6419C21.8684 16.7916 21.7001 16.9384 21.5293 17.0822C21.5033 17.1033 21.477 17.1259 21.4515 17.1456C20.973 17.5419 20.4779 17.9179 19.9678 18.2726C19.9435 18.5588 19.9139 18.8445 19.8789 19.1296C19.3693 23.2037 17.8674 26 15.9926 26C14.7022 26 13.5878 24.673 12.853 22.5152C13.1577 22.4325 13.4598 22.3406 13.7589 22.2396C14.3693 24.0237 15.2044 25.073 15.9926 25.073C16.8826 25.073 17.8344 23.733 18.4537 21.5074C18.2069 21.43 17.9619 21.3469 17.7189 21.2581C17.1355 21.0462 16.5613 20.8098 15.9978 20.5496L15.9607 20.567C15.6333 20.7178 15.3111 20.8581 14.9933 20.9881C14.9437 21.0078 14.8959 21.0278 14.8478 21.0452C13.0174 21.7763 11.3459 22.1548 10.0167 22.1548C8.69259 22.1548 7.71074 21.7789 7.25667 21C6.60704 19.8848 7.22185 18.2519 8.75963 16.5296L9.41296 17.2133C8.16889 18.6252 7.67481 19.8622 8.06741 20.5363C8.51185 21.3 10.153 21.4474 12.4007 20.8689C12.3464 20.6178 12.2972 20.3657 12.2533 20.1126C12.1486 19.5036 12.0695 18.8905 12.0163 18.2748C11.7292 18.0764 11.4464 17.8718 11.1681 17.6611C8.56296 15.6741 7 13.5641 7 11.9933C7 11.6304 7.08407 11.297 7.25667 11C7.90296 9.89148 9.61963 9.59852 11.8737 10.0463C11.7885 10.3378 11.7093 10.6426 11.6385 10.9574C9.78555 10.5944 8.45889 10.7893 8.06741 11.4637C7.62296 12.2267 8.31518 13.7104 9.94444 15.3515C10.1533 15.1637 10.3704 14.9774 10.5978 14.7922C11.0567 14.4174 11.5303 14.061 12.0174 13.7237C12.0433 13.4322 12.0718 13.1441 12.1074 12.8648C12.6178 8.79444 14.1196 6 15.9926 6ZM18.9518 18.9444C18.7255 19.0868 18.4971 19.2258 18.2667 19.3615C17.9168 19.5663 17.5621 19.7629 17.203 19.9511C17.1626 19.9726 17.1222 19.9922 17.0818 20.0137C17.6042 20.2334 18.1357 20.4307 18.6748 20.6052C18.7296 20.3515 18.7804 20.0896 18.8267 19.8185C18.8741 19.537 18.9144 19.2433 18.9518 18.9444ZM13.0304 18.943C13.0696 19.257 13.1148 19.5622 13.1656 19.857C13.21 20.1148 13.2593 20.3626 13.3118 20.6041C13.463 20.5559 13.6156 20.5048 13.7711 20.4504C13.8178 20.4344 13.8656 20.417 13.9126 20.4C14.2431 20.2825 14.57 20.1553 14.893 20.0185L14.9022 20.0148C14.5832 19.8488 14.2674 19.6766 13.9552 19.4981C13.9393 19.4889 13.9218 19.4796 13.9059 19.4689C13.6108 19.2991 13.3189 19.1238 13.0304 18.943ZM15.9933 12.4781C15.4599 12.7344 14.9361 13.0102 14.423 13.3048C13.9101 13.5983 13.4076 13.9097 12.9167 14.2385C12.8738 14.8247 12.8526 15.4123 12.853 16C12.853 16.6096 12.8756 17.1963 12.9159 17.7607C13.1889 17.9437 13.4696 18.1252 13.763 18.3033C14.4856 18.7466 15.23 19.1533 15.9933 19.5219L16.0941 19.4741C16.4503 19.3 16.8023 19.1172 17.1496 18.9259C17.8063 18.5668 18.4466 18.1784 19.0685 17.7619C19.1113 17.1755 19.1325 16.5879 19.1322 16C19.1322 15.3907 19.11 14.8037 19.0693 14.2396C18.5785 13.91 18.0759 13.5982 17.5626 13.3048C17.0493 13.0109 16.5261 12.7352 15.9933 12.4781ZM15.9926 14.8078C16.6567 14.8078 17.1952 15.3415 17.1952 16C17.1952 16.6585 16.6567 17.1922 15.9926 17.1922C15.3285 17.1922 14.7904 16.6585 14.7904 16C14.7904 15.3415 15.3285 14.8078 15.9926 14.8078ZM20.0467 14.9319C20.0604 15.2819 20.0674 15.6381 20.0674 16C20.0674 16.0874 20.0674 16.1748 20.0663 16.2622C20.0633 16.5363 20.0552 16.8052 20.0444 17.0722C20.2852 16.8915 20.5163 16.7107 20.737 16.5296L20.8185 16.4637C21.0052 16.3081 21.1841 16.1541 21.3559 16C20.9355 15.6248 20.4986 15.2684 20.0467 14.9319ZM11.9407 14.9293C11.7244 15.0915 11.5152 15.2537 11.3152 15.4159C11.0744 15.61 10.8459 15.8048 10.6285 16.0004C10.7863 16.1415 10.9496 16.2833 11.1204 16.4252C11.3781 16.64 11.6526 16.8544 11.9389 17.0685C11.9249 16.7125 11.9178 16.3563 11.9178 16C11.9178 15.9126 11.9178 15.8252 11.9204 15.7389C11.9222 15.4656 11.9304 15.1963 11.9407 14.9293ZM18.6733 11.3952C18.1636 11.5593 17.6611 11.7447 17.167 11.9511L17.0856 11.9856C17.3985 12.1489 17.7137 12.3211 18.03 12.5019C18.0459 12.5111 18.0633 12.5204 18.0796 12.5311C18.3781 12.7015 18.6685 12.8785 18.9548 13.0581C18.9168 12.7522 18.8717 12.4472 18.8196 12.1433C18.7759 11.893 18.7271 11.6436 18.6733 11.3952ZM13.3111 11.3952C13.1932 11.9435 13.1004 12.4969 13.033 13.0537C13.3181 12.8752 13.6115 12.6989 13.9126 12.5259L13.9552 12.5019C14.2679 12.3235 14.5841 12.1513 14.9037 11.9856C14.6247 11.8685 14.3432 11.7576 14.0593 11.653C13.812 11.5611 13.5625 11.4751 13.3111 11.3952Z" fill="white"/>
    <defs>
        <linearGradient id="paint0_linear" x1="4.57408" y1="16" x2="28.9363" y2="17.1322" gradientUnits="userSpaceOnUse">
            <stop stop-color="#7543E3"/>
            <stop offset="1" stop-color="#582ACB"/>
        </linearGradient>
    </defs>
</svg>
