<svg width="32" height="32" viewBox="0 0 32 32" fill="none" xmlns="http://www.w3.org/2000/svg">
    <path d="M16 32C24.8366 32 32 24.8366 32 16C32 7.16344 24.8366 0 16 0C7.16344 0 0 7.16344 0 16C0 24.8366 7.16344 32 16 32Z" fill="#2F7DFB"/>
    <path fill-rule="evenodd" clip-rule="evenodd" d="M18.19 26C16.73 26 15.666 25.656 14.998 24.97C14.331 24.282 13.997 23.541 13.997 22.747C13.997 22.457 14.055 22.212 14.172 22.014C14.2861 21.8175 14.4508 21.6552 14.649 21.544C14.851 21.43 15.099 21.372 15.394 21.372C15.689 21.372 15.938 21.43 16.14 21.544C16.342 21.659 16.5 21.815 16.617 22.014C16.734 22.212 16.792 22.457 16.792 22.747C16.792 23.098 16.707 23.384 16.536 23.606C16.3861 23.8125 16.1736 23.9651 15.93 24.041C16.132 24.316 16.45 24.511 16.885 24.625C17.32 24.748 17.755 24.809 18.189 24.809C18.7723 24.8158 19.3444 24.6483 19.832 24.328C20.321 24.007 20.682 23.533 20.914 22.908C21.147 22.281 21.264 21.571 21.264 20.777C21.264 19.914 21.136 19.177 20.88 18.566C20.631 17.947 20.262 17.489 19.773 17.191C19.2971 16.8971 18.7483 16.7426 18.189 16.745C17.817 16.745 17.351 16.897 16.792 17.203L15.767 17.707V17.203L20.379 11.155H13.997V17.432C13.997 17.952 14.113 18.379 14.347 18.715C14.579 19.051 14.937 19.219 15.417 19.219C15.79 19.219 16.147 19.097 16.489 18.852C16.832 18.6061 17.1312 18.3042 17.374 17.959C17.398 17.8989 17.4386 17.8469 17.491 17.809C17.5332 17.7732 17.5867 17.7534 17.642 17.753C17.728 17.753 17.828 17.795 17.945 17.878C18.0511 17.9936 18.1094 18.1451 18.108 18.302C18.0947 18.41 18.0753 18.5172 18.05 18.623C17.786 19.203 17.42 19.646 16.955 19.952C16.4996 20.2541 15.9645 20.4136 15.418 20.41C14.036 20.41 13.081 20.143 12.553 19.608C12.025 19.074 11.761 18.348 11.761 17.432V11.155H8.5V9.986H11.76V7.33L11.016 6.596V6H13.182L13.997 6.412V9.986L22.428 9.963L23.268 10.788L18.096 15.874C18.4093 15.7508 18.7387 15.6734 19.074 15.644C19.634 15.644 20.262 15.82 20.961 16.172C21.668 16.515 22.211 16.989 22.591 17.592C22.972 18.188 23.217 18.761 23.325 19.311C23.4337 19.7923 23.4923 20.2836 23.5 20.777C23.5073 21.7225 23.2918 22.6563 22.871 23.503C22.4666 24.3281 21.7928 24.9906 20.961 25.381C20.0966 25.7958 19.1488 26.0075 18.19 26V26Z" fill="white"/>
</svg>
