<svg width="32" height="32" viewBox="0 0 32 32" fill="none" xmlns="http://www.w3.org/2000/svg">
    <path d="M16 32C24.8364 32 32 24.8364 32 16C32 7.16364 24.8364 0 16 0C7.16364 0 0 7.16364 0 16C0 24.8364 7.16364 32 16 32Z" fill="url(#paint0_linear)"/>
    <path d="M24.1649 16.8909H7.83578C7.57414 16.8917 7.32343 16.9959 7.13839 17.1809C6.95335 17.3659 6.84901 17.6165 6.84814 17.8782C6.84882 18.14 6.95307 18.3908 7.13814 18.5759C7.3232 18.7611 7.57402 18.8654 7.83578 18.8662H11.9383L14.7183 26.2076C14.7929 26.4028 14.9273 26.5694 15.1023 26.6837C15.2772 26.7979 15.4838 26.8539 15.6925 26.8436C15.9012 26.8539 16.1078 26.7979 16.2828 26.6837C16.4577 26.5694 16.5921 26.4028 16.6667 26.2076L19.4467 18.8658H24.1652C24.4269 18.8651 24.6777 18.7608 24.8628 18.5757C25.0478 18.3907 25.1521 18.1399 25.1529 17.8782C25.1521 17.6165 25.0478 17.3657 24.8628 17.1807C24.6777 16.9956 24.4269 16.8913 24.1652 16.8905L24.1649 16.8909ZM15.6921 23.2022L14.05 18.8655H17.3343L15.6921 23.2018V23.2022ZM7.83578 15.0473H24.1652C24.427 15.0465 24.6778 14.9422 24.8629 14.757C25.0479 14.5719 25.1522 14.321 25.1529 14.0593C25.1521 13.7976 25.0478 13.5468 24.8628 13.3618C24.6777 13.1767 24.4269 13.0724 24.1652 13.0716H21.6409L23.6765 7.69528C23.7685 7.45026 23.7598 7.1788 23.6523 6.9402C23.5447 6.70159 23.3472 6.51523 23.1027 6.42182C22.8576 6.32986 22.5861 6.33863 22.3475 6.44622C22.1089 6.55381 21.9226 6.75146 21.8292 6.99601L19.5281 13.0716H11.8558L9.55505 6.99601C9.46164 6.75153 9.2753 6.55393 9.03671 6.44635C8.79812 6.33878 8.52667 6.32996 8.2816 6.42182C8.03712 6.51523 7.83955 6.70159 7.73203 6.9402C7.62452 7.1788 7.6158 7.45026 7.70778 7.69528L9.74378 13.0716H7.83578C7.57408 13.0724 7.32332 13.1767 7.13826 13.3618C6.95321 13.5468 6.84891 13.7976 6.84814 14.0593C6.84891 14.321 6.95321 14.5717 7.13826 14.7568C7.32332 14.9418 7.57408 15.0461 7.83578 15.0469V15.0473Z" fill="white"/>
    <defs>
        <linearGradient id="paint0_linear" x1="3.36655" y1="26.0618" x2="28.2829" y2="6.21709" gradientUnits="userSpaceOnUse">
            <stop stop-color="#F8B342"/>
            <stop offset="1" stop-color="#F2C35E"/>
        </linearGradient>
    </defs>
</svg>
