<svg width="32" height="32" viewBox="0 0 32 32" fill="none" xmlns="http://www.w3.org/2000/svg">
    <path d="M14.947 0H16.8958C20.979 0.2592 24.9486 2.088 27.7198 5.1136C30.2654 7.8128 31.7357 11.424 31.9997 15.1104V16.8848C31.7309 20.6512 30.1982 24.3376 27.5518 27.0528C24.7934 29.9824 20.8926 31.7248 16.8894 32H14.9566C13.5566 31.8336 12.155 31.6064 10.8222 31.136C6.72464 29.7552 3.26065 26.6256 1.46226 22.6928C0.587063 20.8304 0.127864 18.7904 0.00146484 16.7408V15.104C0.251064 11.136 1.97746 7.2768 4.85265 4.52C7.54224 1.8688 11.195 0.3024 14.947 0Z" fill="#FF2E84"/>
    <path d="M5.9006 17.4784C5.7502 16.4448 5.8526 15.3568 6.331 14.4192C7.11501 12.728 8.92942 11.5776 10.7934 11.5936C11.4798 11.5552 12.1438 11.7488 12.8046 11.8944C12.6318 11.3152 12.4254 10.744 12.2126 10.1776C12.6382 9.94559 13.091 9.77279 13.5742 9.71039C14.0318 11.1904 14.6303 12.6208 15.1039 14.096C13.6126 14.504 12.139 14.9776 10.6382 15.3504C10.451 14.9088 10.315 14.4464 10.307 13.9616C10.9278 13.7712 11.5806 13.672 12.1838 13.4304C12.211 13.3808 12.2638 13.2784 12.2894 13.2288C11.4206 12.9648 10.4734 12.8848 9.60942 13.2224C8.17261 13.712 7.19021 15.2064 7.23021 16.7104C7.29261 17.7056 7.72781 18.696 8.50862 19.3344C9.79662 20.4912 11.947 20.464 13.2206 19.2976C13.7022 18.8832 13.9854 18.296 14.4191 17.8384C14.9855 17.6736 15.5983 17.7904 16.1823 17.7728C15.3439 18.9552 14.5823 20.3008 13.2718 21.0208C11.707 21.912 9.66382 21.824 8.15981 20.848C6.99821 20.088 6.1406 18.8528 5.9006 17.4784Z" fill="white"/>
    <path d="M9.67187 17.1488C9.66067 16.6752 9.66227 16.2032 9.67187 15.7312C11.3775 15.632 13.0863 15.7072 14.7951 15.6848C17.4207 15.784 20.0479 15.7104 22.6751 15.7376C22.7039 16.2112 22.7071 16.6864 22.6543 17.1584C18.3263 17.152 13.9983 17.16 9.67187 17.1488Z" fill="white"/>
    <path d="M16.4253 15.0768C17.3069 13.6464 18.4317 12.1664 20.1565 11.7552C22.9181 10.92 26.1021 12.9952 26.4157 15.8704C26.9517 18.4672 24.9501 21.168 22.3613 21.5664C21.2637 21.84 20.2013 21.3824 19.2093 20.9664C19.3149 21.5728 19.4333 22.1776 19.5885 22.7744C19.1341 22.9648 18.6429 23.0128 18.1549 23.0352C17.9277 21.5056 17.4333 20.0192 17.3021 18.4752C18.8333 18.2864 20.3549 18.0096 21.8941 17.8992C21.9805 18.3536 22.0445 18.8128 22.0845 19.2736C21.3677 19.4032 20.6413 19.4592 19.9245 19.5824C21.3277 20.7968 23.5853 20.0464 24.4909 18.5728C25.4365 17.1904 25.2013 15.1696 23.9741 14.0352C22.8669 12.8896 20.9661 12.6816 19.6237 13.5296C18.9805 13.8912 18.5837 14.5312 18.1293 15.088C17.5597 15.104 16.9917 15.1168 16.4253 15.0768Z" fill="white"/>
</svg>
