<svg width="32" height="32" viewBox="0 0 32 32" fill="none" xmlns="http://www.w3.org/2000/svg">
    <g clip-path="url(#clip0_1181_87)">
        <path d="M24.9953 9.33091C25.1489 11.8559 24.9411 14.3898 24.3782 16.856C23.8076 19.9652 22.2591 22.811 19.9583 24.9787C19.0602 25.737 18.0427 26.3413 16.9472 26.767C16.5071 26.9971 15.9953 27.0493 15.5178 26.9127C13.5299 26.2529 11.7883 25.0068 10.5222 23.3383C8.81439 20.9441 7.71981 18.1677 7.33435 15.2523C7.0101 13.304 6.89245 11.3268 6.98335 9.35382C9.93835 7.90616 15.9245 5.12809 15.9245 5.12809L15.9239 5H16.0595L16.0608 5.12813C16.0608 5.12813 22.0392 7.93488 24.9953 9.33091ZM7.65439 9.84138C7.66586 10.6948 7.67274 11.5483 7.74386 12.3983C7.88882 15.8253 8.86981 19.1649 10.6013 22.1258C11.8466 24.1241 13.7539 25.6217 15.9905 26.3575C16.4575 26.2189 16.9109 26.038 17.3452 25.8172C19.6182 24.6327 21.4045 22.6894 22.3936 20.3249C23.7839 17.0068 24.4604 13.4334 24.3793 9.83679C21.5987 8.47058 18.7883 7.16516 15.9928 5.83107C13.2282 7.19843 10.4189 8.47631 7.65439 9.84138ZM8.19353 10.197C10.7849 8.90533 13.4175 7.69628 16.0283 6.44363C18.6047 7.72381 21.2236 8.91795 23.8057 10.1866C23.8805 13.945 23.0558 17.6668 21.4003 21.0418C20.2686 23.2543 18.3316 24.9487 15.9882 25.7759C14.6756 25.2973 13.4806 24.5432 12.4837 23.5643C11.1377 22.1527 10.1259 20.4568 9.52303 18.6019C8.63989 15.8878 8.19119 13.0512 8.19353 10.197V10.197ZM11.2483 9.72898C12.1775 9.6613 13.1089 9.68425 14.0392 9.64298C14.3799 9.87814 14.7206 10.1122 15.059 10.3519C15.4846 11.343 16.0008 12.2951 16.4975 13.2529C16.8593 12.5752 17.1628 11.8679 17.4049 11.1388C17.4509 10.962 17.4349 10.7748 17.3595 10.6084C17.2841 10.442 17.154 10.3065 16.9908 10.2245C16.7269 10.119 16.8244 9.81958 16.8416 9.60507C18.0472 9.60966 19.2529 9.55807 20.4585 9.57407C19.3114 8.94545 18.0954 8.43728 16.9219 7.85455C16.6202 8.16655 16.3139 8.47284 16.0065 8.77798C15.7002 8.4694 15.3951 8.15853 15.0831 7.8557C13.8167 8.50385 12.4998 9.05561 11.2483 9.729V9.72898ZM17.0687 9.87698C17.2877 9.99927 17.4645 10.1849 17.5761 10.4094C17.6876 10.634 17.7287 10.887 17.6939 11.1354C17.3774 12.1062 16.9763 13.0474 16.4952 13.9481C15.9136 12.8285 15.3745 11.6871 14.794 10.5675C14.5349 10.3338 14.2532 10.1263 13.9532 9.9481C12.4677 9.97793 10.9822 10.0318 9.49665 10.0146C9.96305 10.3593 10.3467 10.8037 10.6197 11.3155C11.5936 13.0992 12.5525 14.8922 13.5276 16.6759C13.6078 16.7976 13.6486 16.9409 13.6446 17.0866C13.6434 18.2383 13.6469 19.3892 13.6549 20.5394C13.6831 21.0044 13.6091 21.47 13.4381 21.9033C13.2795 22.1824 13.0706 22.4297 12.8221 22.6329L12.8726 22.626C13.1526 22.8513 13.4546 23.0477 13.7742 23.2122C15.4995 23.2133 17.2247 23.1273 18.9511 23.1181C18.6363 22.8182 18.391 22.4529 18.2325 22.0481C18.074 21.6432 18.006 21.2085 18.0334 20.7746C18.0449 19.6355 17.9772 18.4838 18.0461 17.3504C19.1668 15.0413 20.2982 12.7367 21.4404 10.4368C21.1467 10.2395 20.8554 10.0387 20.5697 9.82877C19.402 9.8322 18.2365 9.89071 17.0687 9.87694V9.87698ZM21.1112 9.86898C21.2878 10.0147 21.4817 10.1351 21.6583 10.2808C21.7536 10.4391 21.6423 10.6272 21.5803 10.7775C20.5365 12.9054 19.5143 15.0448 18.4648 17.1704C18.1964 17.6349 18.373 18.1901 18.3317 18.6972C18.2709 19.8307 18.339 20.9675 18.5347 22.0857C19.0257 21.4663 19.4547 20.7964 19.9078 20.1483C20.2358 20.249 20.5563 20.3728 20.8668 20.5188C22.3382 17.4834 23.0672 14.1418 22.9936 10.7695C22.3818 10.4375 21.7535 10.137 21.1112 9.86891V9.86898ZM9.04125 10.7775C8.95917 14.1306 9.67018 17.4557 11.1164 20.482C11.3837 20.3616 11.6555 20.2526 11.9308 20.1516C12.3254 20.7332 12.7418 21.2999 13.1307 21.8849C13.3368 21.4668 13.4248 21.0004 13.3854 20.5359C13.359 19.4645 13.3433 18.3939 13.3384 17.324C13.3593 17.1501 13.3331 16.9739 13.2627 16.8135C12.2911 15.0321 11.3298 13.2437 10.357 11.4622C10.1623 11.0937 9.90542 10.7615 9.59763 10.4803C9.40483 10.565 9.21882 10.6643 9.04125 10.7774V10.7775ZM13.5414 23.4703C14.2761 24.0415 15.1012 24.4858 15.9824 24.7849C16.9222 24.5019 17.7927 24.0261 18.5382 23.3877C16.8737 23.4553 15.207 23.4622 13.5414 23.4702V23.4703Z" fill="url(#paint0_linear_1181_87)"/>
        <path opacity="0.3" d="M22.498 20.3721C23.9027 17.0417 24.5831 13.4507 24.4938 9.83737L24.4942 9.7655L24.4297 9.73386C22.5458 8.80821 20.6171 7.89573 18.7518 7.01327C17.848 6.58568 16.9448 6.15712 16.042 5.72758L15.9917 5.70358L15.9417 5.72828C14.5461 6.41856 13.1153 7.09728 11.7314 7.75376C10.375 8.39722 8.97236 9.06258 7.60343 9.73858L7.53857 9.77058L7.54182 10.0154C7.55207 10.7999 7.56271 11.6111 7.62936 12.4079C7.7666 15.855 8.7543 19.2146 10.5045 22.1875C11.7604 24.2119 13.691 25.7275 15.9557 26.4669L15.9854 26.4763L16.0157 26.4694C16.3711 26.3754 16.7156 26.2446 17.0438 26.0791C17.1593 26.0257 17.2745 25.9725 17.3904 25.9226C19.6902 24.7274 21.4978 22.7631 22.498 20.3721V20.3721ZM17.345 25.8172C16.9107 26.038 16.4573 26.2189 15.9903 26.3575C13.7537 25.6217 11.8464 24.1241 10.6011 22.1258C8.86961 19.1649 7.88862 15.8253 7.74367 12.3983C7.67255 11.5483 7.66567 10.6948 7.65419 9.84138C10.4187 8.47632 13.228 7.19843 15.9926 5.83107C18.7881 7.16517 21.5985 8.47058 24.3791 9.83679C24.4602 13.4334 23.7837 17.0068 22.3935 20.3249C21.4043 22.6894 19.618 24.6327 17.345 25.8172V25.8172Z" fill="white"/>
        <path d="M7.6543 9.84138C10.4188 8.47631 13.2281 7.19843 15.9927 5.83107C18.7882 7.16516 21.5986 8.47058 24.3792 9.83679C24.4604 13.4334 23.7838 17.0068 22.3936 20.3249C21.4044 22.6894 19.6181 24.6327 17.3451 25.8172C16.9108 26.038 16.4574 26.2189 15.9904 26.3575C13.7538 25.6217 11.8465 24.1241 10.6012 22.1258C8.86972 19.1649 7.88872 15.8253 7.74377 12.3983C7.67265 11.5483 7.66577 10.6948 7.6543 9.84138ZM8.19344 10.197C8.19109 13.0512 8.63979 15.8878 9.52294 18.6019C10.1258 20.4569 11.1376 22.1527 12.4836 23.5643C13.4805 24.5432 14.6755 25.2973 15.9881 25.7759C18.3315 24.9487 20.2685 23.2544 21.4001 21.0418C23.0557 17.6668 23.8804 13.945 23.8056 10.1867C21.2235 8.91795 18.6046 7.72381 16.0282 6.44366C13.4174 7.69628 10.7848 8.90533 8.19344 10.197V10.197Z" fill="#113288"/>
        <path d="M11.248 9.72899C12.4995 9.05564 13.8164 8.50388 15.0828 7.85576C15.3948 8.15859 15.7 8.46946 16.0063 8.77804C16.3137 8.4729 16.62 8.16662 16.9217 7.85461C18.0952 8.43734 19.3111 8.94551 20.4582 9.57413L16.8414 9.60513C16.8242 9.81964 16.7267 10.119 16.9905 10.2246C17.1537 10.3066 17.2839 10.4421 17.3592 10.6085C17.4346 10.7749 17.4506 10.9621 17.4046 11.1388C17.1626 11.868 16.859 12.5752 16.4972 13.253C16.0005 12.2951 15.4843 11.343 15.0588 10.352C14.7204 10.1122 14.3797 9.8782 14.039 9.64304L11.248 9.72899Z" fill="#113288"/>
        <path d="M20.5697 9.82877C20.8553 10.0387 21.1467 10.2394 21.4403 10.4368C20.2967 12.7356 19.1652 15.0401 18.046 17.3504C17.9772 18.4838 18.0449 19.6354 18.0334 20.7746C18.006 21.2085 18.0739 21.6432 18.2325 22.0481C18.391 22.4529 18.6363 22.8182 18.9511 23.1181C17.2247 23.1273 15.4994 23.2133 13.7742 23.2122C13.4546 23.0477 13.1525 22.8513 12.8726 22.626C13.5172 22.5262 14.1711 22.5813 14.8204 22.5434C15.8826 22.5354 16.946 22.47 18.0094 22.4929C17.6022 22.0817 17.3298 21.5564 17.2282 20.9868C17.1146 20.0416 17.1972 19.0849 17.1593 18.135C17.1012 17.613 17.1385 17.0848 17.2695 16.5761C18.3787 14.3323 19.4845 12.0851 20.5697 9.82877Z" fill="#113288"/>
        <path d="M21.111 9.86891C21.7534 10.1369 22.3816 10.4375 22.9934 10.7694C23.067 14.1418 22.3381 17.4834 20.8667 20.5187C20.5562 20.3727 20.2357 20.2489 19.9077 20.1482C19.4546 20.7963 19.0255 21.4662 18.5346 22.0857C18.3389 20.9675 18.2708 19.8307 18.3316 18.6971C18.3729 18.1901 18.1962 17.6349 18.4646 17.1703C19.5143 15.0447 20.5363 12.9053 21.5802 10.7774C21.6422 10.6272 21.7534 10.439 21.6582 10.2807C21.4815 10.135 21.2877 10.0146 21.111 9.86891Z" fill="#113288"/>
        <path d="M13.9531 9.94806C14.2532 10.1263 14.5348 10.3337 14.794 10.5675C15.3744 11.6871 15.9135 12.8285 16.4951 13.948C16.4068 14.1316 16.3161 14.3151 16.2244 14.4964C15.4593 12.9845 14.7194 11.46 13.9531 9.94806Z" fill="#113288"/>
        <path d="M9.04105 10.7774C9.21862 10.6643 9.40461 10.565 9.5974 10.4803C9.90519 10.7615 10.1621 11.0936 10.3568 11.4622C11.3295 13.2437 12.2908 15.0321 13.2624 16.8135C13.3329 16.9739 13.359 17.1501 13.3381 17.324C13.3416 18.3943 13.3572 19.4649 13.3851 20.5359C13.4246 21.0004 13.3366 21.4668 13.1305 21.8849C12.7416 21.2999 12.3252 20.7332 11.9306 20.1516C11.6553 20.2526 11.3834 20.3615 11.1162 20.482C9.66995 17.4557 8.95895 14.1305 9.04105 10.7774V10.7774Z" fill="#113288"/>
        <path d="M13.5415 23.4702C15.2071 23.4622 16.8739 23.4553 18.5383 23.3876C17.7928 24.026 16.9224 24.5019 15.9826 24.7848C15.1013 24.4857 14.2763 24.0414 13.5415 23.4702V23.4702Z" fill="#113288"/>
        <path d="M17.0687 9.87695C18.2364 9.89072 19.4019 9.83221 20.5697 9.82877C19.4845 12.0851 18.3787 14.3323 17.2694 16.5761C17.1385 17.0848 17.1012 17.613 17.1593 18.135C17.1971 19.0848 17.1146 20.0415 17.2281 20.9867C17.3297 21.5564 17.6022 22.0817 18.0093 22.4929C16.9459 22.47 15.8826 22.5353 14.8203 22.5434C14.171 22.5812 13.5172 22.5262 12.8725 22.626L12.822 22.6329C13.0705 22.4297 13.2794 22.1823 13.438 21.9033C13.6091 21.4699 13.6831 21.0044 13.6548 20.5394C13.6457 19.3888 13.6422 18.2379 13.6445 17.0866C13.6486 16.9409 13.6077 16.7975 13.5275 16.6759C12.5525 14.8921 11.5935 13.0992 10.6196 11.3154C10.3466 10.8037 9.96298 10.3593 9.49658 10.0146C10.9821 10.0318 12.4676 9.9779 13.9531 9.94807C14.7194 11.46 15.4593 12.9845 16.2244 14.4964C16.3162 14.3151 16.4068 14.1316 16.4951 13.9481C16.9763 13.0474 17.3774 12.1062 17.6939 11.1353C17.7286 10.887 17.6876 10.634 17.576 10.4094C17.4644 10.1848 17.2876 9.99923 17.0687 9.87695Z" fill="url(#paint1_linear_1181_87)"/>
        <g opacity="0.05">
            <path opacity="0.05" d="M17.1593 18.135C17.1012 17.613 17.1385 17.0847 17.2694 16.5761C18.3787 14.3323 19.4845 12.0851 20.5697 9.82875C19.4019 9.8322 18.2364 9.89069 17.0687 9.87693C17.2876 9.99922 17.4644 10.1848 17.576 10.4094C17.6875 10.634 17.7286 10.887 17.6939 11.1353C17.3774 12.1062 16.9762 13.0473 16.4951 13.948C16.4068 14.1316 16.3162 14.3151 16.2244 14.4963C15.4593 12.9844 14.7194 11.4599 13.9531 9.94802C12.4676 9.97784 10.9821 10.0318 9.49658 10.0146C9.96298 10.3593 10.3466 10.8037 10.6196 11.3154C11.5935 13.0991 12.5525 14.8921 13.5275 16.6758C13.6077 16.7975 13.6486 16.9409 13.6445 17.0865C13.6434 18.2382 13.6468 19.3891 13.6548 20.5393C13.6831 21.0043 13.6091 21.4699 13.438 21.9032C13.2794 22.1823 13.0706 22.4296 12.822 22.6328L12.8725 22.6259C13.5172 22.5261 14.171 22.5812 14.8203 22.5433C15.8825 22.5353 16.9459 22.4699 18.0093 22.4929C17.6022 22.0817 17.3297 21.5564 17.2281 20.9867C17.1146 20.0415 17.1972 19.0848 17.1593 18.135ZM17.537 22.3733C17.0476 22.3733 16.5511 22.3876 16.0709 22.4014C15.6605 22.4133 15.2361 22.4255 14.8194 22.4287C14.5732 22.4429 14.3266 22.444 14.0881 22.4451C13.7799 22.4465 13.4636 22.448 13.1482 22.4769C13.3113 22.3274 13.445 22.1488 13.5427 21.9503C13.7211 21.5024 13.7985 21.0206 13.7696 20.5393C13.7614 19.508 13.758 18.3789 13.7592 17.0866C13.7646 16.9213 13.7187 16.7584 13.6278 16.6202C13.1263 15.7027 12.6274 14.7833 12.1312 13.8618C11.6621 12.9939 11.1918 12.1268 10.7203 11.2604C10.4969 10.8276 10.1891 10.4439 9.81503 10.1319C9.90611 10.1323 9.99716 10.1326 10.0882 10.1326C11.0026 10.1326 11.9315 10.1101 12.8299 10.0884C13.181 10.0799 13.5322 10.0719 13.8834 10.0642C14.2622 10.8127 14.6405 11.5755 15.0066 12.3139C15.3702 13.0471 15.7461 13.8053 16.1221 14.5481L16.2244 14.7503L16.3268 14.5481C16.4188 14.3663 16.5098 14.182 16.5985 13.9978C16.7371 13.6596 16.9032 13.3295 17.0639 13.0102C17.3885 12.4272 17.6379 11.8053 17.806 11.1595C17.8485 10.9455 17.832 10.724 17.7583 10.5187C17.6845 10.3133 17.5564 10.1319 17.3875 9.99372H17.4354C17.977 9.99372 18.5267 9.98089 19.0582 9.96846C19.4937 9.95832 19.9423 9.94779 20.3867 9.94446C19.2985 12.2045 18.197 14.4411 17.1666 16.5252C17.0374 16.8859 16.9936 17.2717 17.0387 17.6521C17.0457 17.8179 17.0523 17.9744 17.0447 18.1294C17.059 18.4981 17.0559 18.8651 17.0529 19.2201C17.0355 19.8142 17.056 20.4089 17.1143 21.0004C17.1976 21.5088 17.4198 21.9843 17.7563 22.3744C17.6831 22.3737 17.61 22.3733 17.537 22.3733L17.537 22.3733Z" fill="url(#paint2_linear_1181_87)"/>
            <path opacity="0.05" d="M20.5697 9.82874C19.5243 9.83185 18.4806 9.87903 17.4356 9.87903C17.3133 9.87903 17.191 9.87833 17.0687 9.87695C17.2876 9.99923 17.4644 10.1848 17.576 10.4094C17.6876 10.6339 17.7287 10.887 17.6939 11.1353C17.3774 12.1062 16.9763 13.0474 16.4952 13.9481C16.4068 14.1316 16.3162 14.3151 16.2244 14.4963C15.4593 12.9845 14.7194 11.46 13.9531 9.94806C12.665 9.97394 11.3767 10.0179 10.0886 10.0179C9.8912 10.0179 9.69387 10.0168 9.49658 10.0146C9.96299 10.3593 10.3466 10.8037 10.6196 11.3154C11.5935 13.0992 12.5525 14.8921 13.5275 16.6759C13.6077 16.7975 13.6486 16.9409 13.6445 17.0865C13.6434 18.2383 13.6468 19.3892 13.6548 20.5394C13.6831 21.0044 13.6091 21.4699 13.438 21.9033C13.2794 22.1823 13.0706 22.4297 12.822 22.6329L12.8725 22.626C13.5172 22.5262 14.1711 22.5812 14.8203 22.5434C15.7254 22.5365 16.6313 22.488 17.5373 22.488C17.6947 22.488 17.852 22.4897 18.0093 22.4929C17.6022 22.0817 17.3297 21.5564 17.2281 20.9868C17.1146 20.0415 17.1971 19.0848 17.1593 18.135C17.1012 17.613 17.1385 17.0848 17.2694 16.5761C18.3787 14.3323 19.4845 12.0851 20.5697 9.82874H20.5697ZM20.3867 9.94446C19.2986 12.2045 18.197 14.441 17.1666 16.5253C17.0374 16.8859 16.9936 17.2717 17.0387 17.6522C17.0457 17.8179 17.0523 17.9744 17.0447 18.1294C17.059 18.4981 17.0559 18.8651 17.053 19.2201C17.0355 19.8142 17.056 20.4088 17.1143 21.0004C17.1976 21.5088 17.4198 21.9843 17.7563 22.3744C17.6831 22.3737 17.61 22.3734 17.537 22.3734C17.0476 22.3734 16.5511 22.3876 16.0709 22.4014C15.6605 22.4133 15.2361 22.4256 14.8194 22.4287C14.5732 22.4429 14.3266 22.444 14.0881 22.4451C13.7799 22.4465 13.4636 22.448 13.1482 22.4769C13.3113 22.3274 13.445 22.1488 13.5427 21.9503C13.7211 21.5024 13.7985 21.0207 13.7696 20.5394C13.7614 19.508 13.758 18.3789 13.7593 17.0867C13.7646 16.9214 13.7187 16.7584 13.6279 16.6202C13.1263 15.7028 12.6274 14.7833 12.1312 13.8618C11.6621 12.994 11.1918 12.1268 10.7204 11.2605C10.4969 10.8276 10.1891 10.444 9.81505 10.132C9.90613 10.1324 9.99718 10.1326 10.0882 10.1327C11.0026 10.1327 11.9316 10.1102 12.8299 10.0884C13.1811 10.08 13.5322 10.0719 13.8834 10.0642C14.2623 10.8127 14.6405 11.5755 15.0066 12.3139C15.3702 13.0472 15.7462 13.8053 16.1221 14.5482L16.2244 14.7504L16.3268 14.5482C16.4189 14.3663 16.5098 14.182 16.5985 13.9978C16.7371 13.6597 16.9032 13.3296 17.0639 13.0103C17.3885 12.4273 17.6379 11.8054 17.806 11.1596C17.8485 10.9456 17.832 10.7241 17.7583 10.5187C17.6846 10.3134 17.5564 10.1319 17.3875 9.9938H17.4354C17.977 9.9938 18.5267 9.98093 19.0582 9.96854C19.4938 9.9584 19.9424 9.94785 20.3867 9.9445L20.3867 9.94446Z" fill="white"/>
        </g>
        <path d="M16 0C12.8355 0 9.74207 0.938384 7.11088 2.69649C4.4797 4.45459 2.42894 6.95345 1.21793 9.87706C0.0069325 12.8007 -0.309921 16.0177 0.307443 19.1214C0.924806 22.2251 2.44866 25.0761 4.6863 27.3137C6.92394 29.5513 9.77487 31.0752 12.8786 31.6926C15.9823 32.3099 19.1993 31.9931 22.1229 30.7821C25.0466 29.5711 27.5454 27.5203 29.3035 24.8891C31.0616 22.2579 32 19.1645 32 16C32 11.7565 30.3143 7.68687 27.3137 4.68629C24.3131 1.68571 20.2435 0 16 0V0ZM16 31C13.0333 31 10.1332 30.1203 7.66645 28.472C5.19972 26.8238 3.27713 24.4811 2.14181 21.7403C1.0065 18.9994 0.70945 15.9834 1.28823 13.0736C1.86701 10.1639 3.29562 7.49119 5.39341 5.3934C7.49119 3.29561 10.1639 1.867 13.0737 1.28822C15.9834 0.709442 18.9994 1.00649 21.7403 2.14181C24.4812 3.27712 26.8238 5.19971 28.4721 7.66645C30.1203 10.1332 31 13.0333 31 16C30.9955 19.9769 29.4137 23.7896 26.6016 26.6016C23.7896 29.4137 19.9769 30.9955 16 31V31Z" fill="url(#paint3_linear_1181_87)"/>
        <path d="M19.8646 22.0688C19.9554 22.0688 20.0441 22.0419 20.1195 21.9915C20.195 21.9411 20.2538 21.8694 20.2885 21.7855C20.3233 21.7017 20.3323 21.6094 20.3146 21.5204C20.2969 21.4314 20.2532 21.3497 20.1891 21.2855C20.1249 21.2213 20.0431 21.1776 19.9541 21.1599C19.8651 21.1422 19.7729 21.1513 19.689 21.186C19.6052 21.2208 19.5335 21.2796 19.4831 21.355C19.4327 21.4305 19.4058 21.5192 19.4058 21.61C19.4058 21.7317 19.4541 21.8484 19.5402 21.9344C19.6262 22.0205 19.7429 22.0688 19.8646 22.0688Z" fill="#00FFFF"/>
        <path d="M19.9165 21.7628C20.054 21.7628 20.1655 21.6513 20.1655 21.5138C20.1655 21.3763 20.054 21.2648 19.9165 21.2648C19.779 21.2648 19.6675 21.3763 19.6675 21.5138C19.6675 21.6513 19.779 21.7628 19.9165 21.7628Z" fill="url(#paint4_radial_1181_87)"/>
        <path d="M11.9989 22.0688C12.0896 22.0688 12.1784 22.0419 12.2538 21.9915C12.3293 21.9411 12.3881 21.8694 12.4228 21.7855C12.4575 21.7017 12.4666 21.6094 12.4489 21.5204C12.4312 21.4314 12.3875 21.3497 12.3233 21.2855C12.2592 21.2213 12.1774 21.1776 12.0884 21.1599C11.9994 21.1422 11.9071 21.1513 11.8233 21.186C11.7394 21.2208 11.6678 21.2796 11.6174 21.355C11.5669 21.4305 11.54 21.5192 11.54 21.61C11.54 21.7317 11.5884 21.8484 11.6744 21.9344C11.7605 22.0205 11.8772 22.0688 11.9989 22.0688Z" fill="#00FFFF"/>
        <path d="M12.0508 21.7628C12.1883 21.7628 12.2998 21.6513 12.2998 21.5138C12.2998 21.3763 12.1883 21.2648 12.0508 21.2648C11.9132 21.2648 11.8018 21.3763 11.8018 21.5138C11.8018 21.6513 11.9132 21.7628 12.0508 21.7628Z" fill="url(#paint5_radial_1181_87)"/>
        <path d="M16.017 8.11201C16.1077 8.11201 16.1964 8.0851 16.2719 8.03468C16.3473 7.98426 16.4061 7.91259 16.4409 7.82875C16.4756 7.7449 16.4847 7.65264 16.467 7.56363C16.4493 7.47463 16.4056 7.39287 16.3414 7.3287C16.2772 7.26452 16.1955 7.22082 16.1065 7.20312C16.0175 7.18542 15.9252 7.19451 15.8414 7.22924C15.7575 7.26397 15.6858 7.32278 15.6354 7.39824C15.585 7.4737 15.5581 7.56241 15.5581 7.65317C15.5581 7.77486 15.6065 7.89157 15.6925 7.97762C15.7786 8.06366 15.8953 8.11201 16.017 8.11201Z" fill="#00FFFF"/>
        <path d="M16.0688 7.80598C16.2063 7.80598 16.3178 7.6945 16.3178 7.55698C16.3178 7.41946 16.2063 7.30798 16.0688 7.30798C15.9313 7.30798 15.8198 7.41946 15.8198 7.55698C15.8198 7.6945 15.9313 7.80598 16.0688 7.80598Z" fill="url(#paint6_radial_1181_87)"/>
    </g>
    <defs>
        <linearGradient id="paint0_linear_1181_87" x1="8.53126" y1="20.1146" x2="25.5488" y2="10.2895" gradientUnits="userSpaceOnUse">
            <stop stop-color="#BA984B"/>
            <stop offset="0.5" stop-color="#E7DB83"/>
            <stop offset="0.62471" stop-color="#D4BF6B"/>
            <stop offset="0.75229" stop-color="#C6AB5A"/>
            <stop offset="0.87834" stop-color="#BE9E50"/>
            <stop offset="1" stop-color="#BB9A4C"/>
        </linearGradient>
        <linearGradient id="paint1_linear_1181_87" x1="9.49655" y1="16.2308" x2="20.5696" y2="16.2308" gradientUnits="userSpaceOnUse">
            <stop stop-color="#4F8EED"/>
            <stop offset="1" stop-color="#2957A3"/>
        </linearGradient>
        <linearGradient id="paint2_linear_1181_87" x1="9.49658" y1="16.2308" x2="20.5697" y2="16.2308" gradientUnits="userSpaceOnUse">
            <stop stop-color="#4F8EED"/>
            <stop offset="1" stop-color="#2957A3"/>
        </linearGradient>
        <linearGradient id="paint3_linear_1181_87" x1="3.74301" y1="5.71516" x2="28.257" y2="26.2848" gradientUnits="userSpaceOnUse">
            <stop stop-color="#F1E888"/>
            <stop offset="0.5" stop-color="#B68C47"/>
            <stop offset="1" stop-color="#CDB061"/>
        </linearGradient>
        <radialGradient id="paint4_radial_1181_87" cx="0" cy="0" r="1" gradientUnits="userSpaceOnUse" gradientTransform="translate(19.9165 21.5138) scale(0.249)">
            <stop stop-color="white"/>
            <stop offset="1" stop-color="#00FFFF"/>
        </radialGradient>
        <radialGradient id="paint5_radial_1181_87" cx="0" cy="0" r="1" gradientUnits="userSpaceOnUse" gradientTransform="translate(12.0508 21.5138) scale(0.249)">
            <stop stop-color="white"/>
            <stop offset="1" stop-color="#00FFFF"/>
        </radialGradient>
        <radialGradient id="paint6_radial_1181_87" cx="0" cy="0" r="1" gradientUnits="userSpaceOnUse" gradientTransform="translate(16.0688 7.55698) scale(0.249)">
            <stop stop-color="white"/>
            <stop offset="1" stop-color="#00FFFF"/>
        </radialGradient>
        <clipPath id="clip0_1181_87">
            <rect width="32" height="32" fill="white"/>
        </clipPath>
    </defs>
</svg>
