<svg width="32" height="32" viewBox="0 0 32 32" fill="none" xmlns="http://www.w3.org/2000/svg">
    <path d="M16.0001 3.38998C9.03559 3.38998 3.39014 9.03543 3.39014 16C3.39014 22.9645 9.03559 28.6168 16.0001 28.6168C22.9647 28.6168 28.6101 22.9714 28.6101 16.0068C28.6101 9.04227 22.9647 3.38998 16.0001 3.38998V3.38998ZM21.7071 11.0175L20.4769 12.5826L14.9408 20.2033H21.7071V23.4361H17.3397V26.1085H17.0185V26.1221H14.9818V26.1085H14.6605V23.4361H10.2932V20.9961L11.5234 19.431L17.0595 11.8103H10.2932V8.57751H14.6605V5.89148H17.3397V8.57068H21.7071V11.0175Z" fill="#F4B728"/>
    <path d="M16 0C7.17642 0 0 7.17642 0 16C0 24.8236 7.17642 32 16 32C24.8236 32 32 24.8236 32 16C32 7.17642 24.8236 0 16 0V0ZM16 29.3618C8.63221 29.3618 2.63819 23.3678 2.63819 16C2.63819 8.63221 8.63221 2.64502 16 2.64502C23.3678 2.64502 29.3618 8.63904 29.3618 16.0068C29.3618 23.3746 23.3678 29.3618 16 29.3618V29.3618ZM17.3396 8.57753H21.707V11.0175L14.9406 20.2033H21.707V23.4361H17.3396V26.1085H14.6604V23.4361H10.293V20.9962L17.0594 11.8103H10.293V8.57753H14.6604V5.8915H17.3396V8.57753Z" fill="#231F20"/>
</svg>
