<svg width="32" height="32" viewBox="0 0 32 32" fill="none" xmlns="http://www.w3.org/2000/svg">
    <path d="M16 32C24.8366 32 32 24.8366 32 16C32 7.16344 24.8366 0 16 0C7.16344 0 0 7.16344 0 16C0 24.8366 7.16344 32 16 32Z" fill="#041742"/>
    <path d="M18.9729 15.6661C20.0024 15.6641 21.0289 15.7753 22.034 15.9978C22.0345 15.1719 21.8651 14.3546 21.5363 13.5968C21.2076 12.8391 20.7265 12.1569 20.1229 11.5927C19.5193 11.0286 18.8062 10.5944 18.0277 10.3172C17.2492 10.0401 16.422 9.92577 15.5975 9.98147C14.7729 10.0372 13.9687 10.2617 13.2346 10.641C12.5005 11.0204 11.8523 11.5465 11.3301 12.1867C10.808 12.8269 10.4231 13.5676 10.1994 14.3627C9.97563 15.1578 9.91781 15.9903 10.0295 16.8087C9.2001 17.4255 8.43966 18.1299 7.76137 18.9097C7.43507 17.9797 7.26679 17.0017 7.26348 16.0162C7.26276 14.8713 7.48787 13.7374 7.92594 12.6794C8.36401 11.6215 9.00645 10.6602 9.81652 9.85059C10.6266 9.04097 11.5884 8.39889 12.647 7.96107C13.7055 7.52324 14.84 7.29826 15.9856 7.29899C17.3514 7.29297 18.6985 7.61534 19.9134 8.2389L22.956 6.26693C20.9418 4.78593 18.5046 3.99122 16.0041 4.00007C13.7835 3.99947 11.6062 4.61466 9.71464 5.77719C7.82304 6.93972 6.29128 8.604 5.28978 10.5848C4.28829 12.5657 3.85635 14.7854 4.04203 16.997C4.22771 19.2086 5.02371 21.3253 6.34148 23.1117C6.90484 22.091 7.59234 21.1439 8.38833 20.2919C8.38833 20.2919 9.56849 19.0571 10.4721 18.4305C12.9384 16.6269 15.9169 15.6583 18.9729 15.6661Z" fill="white"/>
    <path d="M25.7404 9.02039L23.7821 12.0594C24.6126 13.6993 24.9037 15.5595 24.6139 17.3745C24.324 19.1896 23.4681 20.8667 22.1681 22.1668C20.8681 23.4669 19.1905 24.3234 17.3746 24.6142C15.5587 24.9051 13.6974 24.6153 12.056 23.7863L9.01709 25.7472C11.3266 27.4067 14.1513 28.1912 16.9864 27.9605C19.8214 27.7299 22.482 26.4991 24.4926 24.4881C26.5031 22.4771 27.7326 19.8171 27.9612 16.9835C28.1898 14.1498 27.4026 11.3273 25.7404 9.02039Z" fill="url(#paint0_radial)"/>
    <path d="M15.9929 22.0021C17.3992 22.0023 18.7612 21.5108 19.843 20.6127C20.9247 19.7147 21.658 18.4667 21.9159 17.0851C20.0375 16.6793 18.0949 16.6707 16.213 17.0599C14.3311 17.449 12.5514 18.2272 10.9883 19.3446C11.54 20.1642 12.2852 20.8354 13.1581 21.2989C14.0309 21.7624 15.0045 22.0039 15.9929 22.0021Z" fill="url(#paint1_radial)"/>
    <defs>
        <radialGradient id="paint0_radial" cx="0" cy="0" r="1" gradientUnits="userSpaceOnUse" gradientTransform="translate(25.7459 9.00749) scale(20.1827 20.1713)">
            <stop offset="0.1" stop-color="#08DC8A"/>
            <stop offset="0.26" stop-color="#07D397"/>
            <stop offset="0.54" stop-color="#04BCB8"/>
            <stop offset="0.89" stop-color="#009BE7"/>
        </radialGradient>
        <radialGradient id="paint1_radial" cx="0" cy="0" r="1" gradientUnits="userSpaceOnUse" gradientTransform="translate(25.7459 9.00734) scale(20.1827 20.1713)">
            <stop offset="0.1" stop-color="#08DC8A"/>
            <stop offset="0.26" stop-color="#07D397"/>
            <stop offset="0.54" stop-color="#04BCB8"/>
            <stop offset="0.89" stop-color="#009BE7"/>
        </radialGradient>
    </defs>
</svg>
