<svg width="32" height="32" viewBox="0 0 32 32" fill="none" xmlns="http://www.w3.org/2000/svg">
    <path d="M16 32C24.8366 32 32 24.8366 32 16C32 7.16344 24.8366 0 16 0C7.16344 0 0 7.16344 0 16C0 24.8366 7.16344 32 16 32Z" fill="black"/>
    <path d="M20.7623 15.5018L11.8776 19.8406L20.7623 24.1042V27.5206L7.82117 21.3371V17.9959L16.8565 13.5159L7.82117 9.243V5.83594L20.7623 12.0195V15.5018Z" fill="#29CCC4"/>
    <path d="M7.82117 5.83576L11.2376 4.48047L24.2447 10.5981L20.7623 12.0193L7.82117 5.83576Z" fill="#036F7D"/>
    <path d="M20.7623 15.5012L24.2447 14.08V10.5977L20.7623 12.0188V15.5012Z" fill="#299197"/>
    <path d="M20.7623 24.1027V17.2791L24.2447 15.7168V26.098L20.7623 27.5191V24.1027Z" fill="#299197"/>
</svg>
