<svg width="32" height="32" viewBox="0 0 32 32" fill="none" xmlns="http://www.w3.org/2000/svg">
    <path d="M16 32C24.8366 32 32 24.8366 32 16C32 7.16344 24.8366 0 16 0C7.16344 0 0 7.16344 0 16C0 24.8366 7.16344 32 16 32Z" fill="#302C2C"/>
    <path fill-rule="evenodd" clip-rule="evenodd" d="M15.4958 27C15.2258 26.972 14.9558 26.947 14.6858 26.915C13.2342 26.7419 11.8322 26.278 10.5638 25.551C10.5448 25.541 10.5278 25.526 10.4908 25.501C12.6968 23.851 14.8928 22.211 17.1008 20.561L17.7658 21.208C18.1358 21.57 18.5078 21.928 18.8708 22.295C18.9608 22.385 19.0258 22.384 19.1308 22.33C20.2305 21.7811 21.1701 20.9579 21.8588 19.94L21.9658 19.782C21.9968 19.818 22.0258 19.847 22.0498 19.879C22.8168 20.901 23.5828 21.923 24.3528 22.942C24.4198 23.03 24.4118 23.082 24.3408 23.162C22.5578 25.188 20.3418 26.436 17.6708 26.863C17.3348 26.917 16.9938 26.937 16.6548 26.974C16.6098 26.979 16.5648 26.991 16.5208 27H15.4958ZM16.4658 5C16.6518 5.019 16.8388 5.039 17.0258 5.056C18.6018 5.206 20.0758 5.673 21.4488 6.456C21.4688 6.468 21.4858 6.482 21.5188 6.506L14.8008 11.325C14.7118 11.241 14.6258 11.161 14.5408 11.078C14.0688 10.618 13.5948 10.159 13.1258 9.695C13.0508 9.621 12.9938 9.613 12.8998 9.66C11.7807 10.2123 10.8257 11.048 10.1298 12.084L10.0298 12.234L7.5618 8.946C7.8108 8.682 8.0408 8.419 8.2898 8.176C9.9128 6.593 11.8398 5.586 14.0728 5.181C14.5028 5.103 14.9418 5.077 15.3768 5.026C15.4258 5.021 15.4748 5.009 15.5228 5H16.4648H16.4658ZM6.4578 10.534L11.4528 17.082L10.4448 18.116C10.1938 18.373 9.9448 18.633 9.6888 18.886C9.6168 18.958 9.6138 19.013 9.6578 19.101C10.2094 20.2204 11.0448 21.1755 12.0808 21.871C12.1158 21.893 12.1508 21.916 12.1838 21.941C12.1898 21.945 12.1928 21.955 12.2108 21.989L8.9498 24.435C6.9998 22.756 5.7348 20.687 5.2268 18.178C4.6828 15.492 5.1238 12.954 6.4588 10.534H6.4578ZM20.6328 14.904L21.5508 13.951C21.8068 13.685 22.0588 13.416 22.3208 13.157C22.4028 13.076 22.4018 13.015 22.3538 12.919C21.7988 11.7862 20.9534 10.8208 19.9038 10.121C19.8668 10.096 19.8308 10.069 19.7678 10.024L23.0468 7.564C24.9038 9.154 26.1368 11.114 26.7028 13.479C27.4098 16.431 26.7798 19.351 25.5558 21.407L20.6328 14.904Z" fill="white"/>
</svg>
