<svg fill="none" height="32" viewBox="0 0 32 32" width="32" xmlns="http://www.w3.org/2000/svg"><path d="m16 32c8.8366 0 16-7.1634 16-16 0-8.83656-7.1634-16-16-16-8.83656 0-16 7.16344-16 16 0 8.8366 7.16344 16 16 16z" fill="#b3b3b3"/><path d="m21.9905 24.4833c-1.1576 1.1235-2.4349.9483-3.6524.4186-1.2943-.5404-2.4776-.5745-3.8446 0-1.7023.7348-2.6058.5212-3.631-.4186-5.78832-5.9592-4.93396-15.03675 1.6446-15.3785 1.5955.08544 2.7126.88213 3.6524.9483 1.3969-.28403 2.734-1.09781 4.2291-.99102 1.7963.14525 3.1398.85437 4.0368 2.12952-3.6951 2.2213-2.8193 7.0912.5746 8.4581-.6792 1.7835-1.5507 3.5456-3.0116 4.8485zm-5.9591-15.44257c-.1731-2.64852 1.9735-4.82714 4.4426-5.04073.3396 3.05434-2.7766 5.33975-4.4426 5.04073z" fill="#fff"/></svg>