<svg fill="none" height="32" viewBox="0 0 32 32" width="32" xmlns="http://www.w3.org/2000/svg" xmlns:xlink="http://www.w3.org/1999/xlink"><radialGradient id="a" cx="0" cy="0" gradientTransform="matrix(2.5610095 -.88673895 32.48056278 93.80779987 15.8011 15.8738)" gradientUnits="userSpaceOnUse" r="1"><stop offset="0"/><stop offset="1" stop-opacity="0"/></radialGradient><circle cx="16" cy="16" fill="#000" r="16"/><g clip-rule="evenodd" fill-rule="evenodd"><path d="m17.7161 5.16126-.0084 4.79697-.0085 4.79697-.3946-1.1136c-.0002-.0004-.0007-.0018-.0008-.0022l-.51 10.6793c.5014 1.416.7701 2.172.7731 2.175.004.0039.2897.0212.635.0383 1.0462.0519 2.3426.1632 3.3261.2853.2277.0283.4237.0428.4355.0323.0118-.0106.0182-4.8948.0143-10.8538l-.0072-10.83454h-2.1272z" fill="#b1060f" stroke="#000" stroke-width=".082053"/><path d="m10.021 5.14699v10.84551c0 5.965.0058 10.8514.013 10.8585.0071.0072.3765-.0277.8209-.0775.4443-.0497 1.0585-.1116 1.3647-.1375.4697-.0396 1.872-.1298 2.0343-.1308.0473-.0003.0503-.244.0572-4.5937l.0072-4.5934.3393.96c.0524.1484.0689.1947.1199.3393l.5099-10.67673c-.108-.30544-.0514-.1451-.1752-.49514-.4166-1.17782-.7701-2.17683-.7856-2.22002l-.0282-.07852h-2.1387z" fill="#b1060f" stroke="#000" stroke-width=".082053"/><path d="m10.021 5.14699v6.08791l4.2886 11.3762c.0005-.2607.001-.4016.0015-.6996l.0072-4.5934.3393.96c1.8886 5.3442 2.9033 8.2096 2.9093 8.2156.0039.0039.2897.0212.635.0383 1.0462.0519 2.3426.1632 3.3261.2853.2277.0283.4237.0428.4355.0323.0081-.0073.0134-2.4021.0148-5.7806l-4.2686-12.27209-.002 1.16132-.0085 4.79697-.3946-1.1136c-.3857-1.0881-.6431-1.8157-2.1924-6.19607-.4166-1.17782-.7701-2.17683-.7856-2.22002l-.0282-.07852h-2.1387z" fill="url(#a)"/><path d="m10.0214 5.14698 4.2972 12.17672v-.0056l.3393.96c1.8886 5.3442 2.9033 8.2096 2.9093 8.2156.0039.0039.2897.0211.635.0383 1.0462.0519 2.3426.1631 3.3261.2853.2265.0282.4215.0426.4351.0324l-4.2639-12.0967v.0022l-.3947-1.1136c-.3856-1.0881-.6431-1.8158-2.1923-6.19607-.4166-1.17783-.7701-2.17684-.7856-2.22003l-.0282-.07852h-2.1387z" fill="#e50914"/><path d="m17.7161 5.16126-.0084 4.79697-.0085 4.79697-.3946-1.1136c-.0002-.0004-.0007-.0018-.0008-.0022l-.51 10.6793c.5014 1.416.7701 2.172.7731 2.175.004.0039.2897.0212.635.0383 1.0462.0519 2.3426.1632 3.3261.2853.2277.0283.4237.0428.4355.0323.0118-.0106.0182-4.8948.0143-10.8538l-.0072-10.83454h-2.1272z" fill="#b1060f" stroke="#000" stroke-width=".082053"/><path d="m10.021 5.14699v10.84551c0 5.965.0058 10.8514.013 10.8585.0071.0072.3765-.0277.8209-.0775.4443-.0497 1.0585-.1116 1.3647-.1375.4697-.0396 1.872-.1298 2.0343-.1308.0473-.0003.0503-.244.0572-4.5937l.0072-4.5934.3393.96c.0524.1484.0689.1947.1199.3393l.5099-10.67673c-.108-.30544-.0514-.1451-.1752-.49514-.4166-1.17782-.7701-2.17683-.7856-2.22002l-.0282-.07852h-2.1387z" fill="#b1060f" stroke="#000" stroke-width=".082053"/><path d="m10.021 5.14699v6.08791l4.2886 11.3762c.0005-.2607.001-.4016.0015-.6996l.0072-4.5934.3393.96c1.8886 5.3442 2.9033 8.2096 2.9093 8.2156.0039.0039.2897.0212.635.0383 1.0462.0519 2.3426.1632 3.3261.2853.2277.0283.4237.0428.4355.0323.0081-.0073.0134-2.4021.0148-5.7806l-4.2686-12.27209-.002 1.16132-.0085 4.79697-.3946-1.1136c-.3857-1.0881-.6431-1.8157-2.1924-6.19607-.4166-1.17782-.7701-2.17683-.7856-2.22002l-.0282-.07852h-2.1387z" fill="url(#a)"/><path d="m10.0214 5.14698 4.2972 12.17672v-.0056l.3393.96c1.8886 5.3442 2.9033 8.2096 2.9093 8.2156.0039.0039.2897.0211.635.0383 1.0462.0519 2.3426.1631 3.3261.2853.2265.0282.4215.0426.4351.0324l-4.2639-12.0967v.0022l-.3947-1.1136c-.3856-1.0881-.6431-1.8158-2.1923-6.19607-.4166-1.17783-.7701-2.17684-.7856-2.22003l-.0282-.07852h-2.1387z" fill="#e50914"/></g></svg>