<svg fill="none" height="32" viewBox="0 0 32 32" width="32" xmlns="http://www.w3.org/2000/svg"><path d="m16 32c8.8366 0 16-7.1634 16-16 0-8.83656-7.1634-16-16-16-8.83656 0-16 7.16344-16 16 0 8.8366 7.16344 16 16 16z" fill="#b40000"/><g fill="#fff"><path d="m16.4433 25.7428-2.6011-13.9921c-2.4794 0-3.2614.2601-3.3744 1.3214 0 0-1.66322-.5931-2.5021-1.7978 3.2736-1.45083 6.5627-1.51625 6.5627-1.51625l1.9193 2.23585-.0044-.0003 1.9193-2.23591s3.2893.06551 6.5623 1.51631c-.8381 1.2047-2.502 1.7978-2.502 1.7978-.1135-1.0614-.8947-1.3215-3.3574-1.3232z"/><path d="m16.4444 9.11227c-2.6462-.01938-5.6751.39146-8.77574 1.68403-.41442-.7135-.52095-1.02874-.52095-1.02874 3.38949-1.28256 6.56359-1.7215 9.29699-1.73251 2.7333.01101 5.9073.45002 9.2963 1.73251 0 0-.1511.38834-.5205 1.02874-3.1001-1.29257-6.1294-1.70341-8.7758-1.68403z"/></g></svg>