<svg width="32" height="32" viewBox="0 0 32 32" fill="none" xmlns="http://www.w3.org/2000/svg">
    <g clip-path="url(#clip0)">
        <path fill-rule="evenodd" clip-rule="evenodd" d="M21.1994 2.21438C19.5746 1.63847 17.8241 1.3248 16 1.3248C9.07409 1.32999 3.21113 5.84854 1.24993 12.0758C1.08579 13.0239 1 14.0013 1 15C1 23.8366 7.71573 31 16 31C22.6763 31 28.3339 26.3476 30.2786 19.9163L21.1994 2.21438Z" fill="#ECF3FF"/>
        <path d="M11.8272 7.30241L6.41919 5.15841V5.92641L11.0528 10.0608L10.7456 14.3488L9.35679 20.1728L7.50079 22.7776L7.96159 26.4512L10.2784 26.7584L12.1344 26.4512L13.9904 26.7584L17.2352 24.768L17.856 21.5488L21.7152 17.8752L23.4112 19.0976L25.1072 21.5488V26.4512L27.424 25.8368L29.7408 20.7808L30.3616 14.3488L22.0224 2.24641L20.6336 1.93921L11.8272 7.30241Z" fill="white"/>
        <path d="M3.64158 16.16C3.70558 15.6416 3.73118 15.1168 3.89118 14.6304C4.32638 12.608 5.15838 10.6752 6.39358 9.11361C6.61118 8.83841 6.79678 8.59521 7.03998 8.3456L5.65118 7.0592C5.40158 7.424 5.15838 7.7952 4.94078 8.16001C3.79518 10.1184 3.18078 12.3264 3.02718 14.5024C2.96318 15.0528 2.99518 15.6032 2.99518 16.128C2.99518 16.6784 3.05918 17.2032 3.14878 17.7536C3.30238 18.8288 3.58398 19.8656 3.95518 20.8512C3.70558 19.808 3.58398 18.7648 3.55198 17.696C3.54558 17.1968 3.54558 16.6784 3.64158 16.16Z" fill="#94A6C4"/>
        <path d="M9.97763 6.23358C9.20323 5.86878 8.12164 5.37598 7.35364 5.01118C8.06404 4.33918 9.36323 3.63518 10.4448 3.17438C9.66403 3.78238 9.66403 5.06878 9.97763 6.23358Z" fill="#94A6C4"/>
        <path d="M6.85434 11.4368C6.41914 12.512 6.14394 13.6448 6.04794 14.7456C6.01594 15.0208 5.98394 15.296 6.01594 15.5712C6.01594 15.8464 6.01594 16.1216 6.04794 16.3968L6.07994 16.832C6.07994 16.9536 6.11194 17.1072 6.14394 17.2288L6.26554 18.0544L6.29754 17.2288C6.29754 17.1072 6.29754 16.9536 6.32954 16.832L6.39354 16.4352C6.42554 16.16 6.48314 15.8848 6.51514 15.6416C6.54714 15.3664 6.63674 15.1232 6.70074 14.8736C6.97594 13.8304 7.44314 12.8832 7.99994 11.9936C8.37114 11.4112 8.80634 10.8928 9.26714 10.4L8.06394 9.26721C7.53274 9.97121 7.16154 10.6752 6.85434 11.4368Z" fill="#94A6C4"/>
        <path d="M24.7424 6.2016C23.104 5.6192 22.4576 5.8048 22.4576 5.8048C22.4576 5.8048 21.44 8.53119 17.5424 8.71679C17.5744 8.74239 21.0688 10.7648 24.7424 6.2016Z" fill="#94A6C4"/>
        <path d="M25.8559 11.6224C25.7023 14.9952 23.0783 16.2496 21.0367 16.0064C19.9231 15.8528 18.2847 16.3712 18.2847 16.3712L16.2175 19.9232L15.5391 20.1664L16.7103 18.0224C16.7103 18.0224 13.9327 19.0336 13.7151 19.1232C13.4975 19.2128 12.6335 20.4736 11.9231 21.7856C11.7695 20.864 11.1807 20.224 11.1807 20.192C11.1807 20.3456 11.4879 23.104 11.1487 23.8656C10.8095 24.6592 9.29272 25.184 9.29272 25.184L11.5199 26.0096L11.6735 26.0736L13.3439 24.512L13.9647 22.1824L14.7391 21.632C14.7391 21.632 16.6527 21.4144 16.3775 23.136C16.2559 23.9616 15.3279 23.904 14.2783 24.544C13.6575 24.9088 12.8575 25.4912 12.4543 25.8944L13.5679 26.688C13.5679 26.688 14.8991 26.4704 16.7807 25.0048C18.6943 23.4752 17.7407 21.8176 17.7407 21.8176L20.8639 18.112L22.9055 18.2656C22.9055 18.2656 26.4255 19.1552 27.5711 22.464C29.8431 16.128 26.1631 11.9296 25.8559 11.6224Z" fill="#94A6C4"/>
        <path d="M29.44 8.99199C29.9968 9.23519 30.4256 9.60639 30.8288 9.93919C28.0512 0.377591 19.0272 1.45279 18.8416 1.51039C19.0592 1.17119 19.8592 0.65279 20.6016 0.37759C20.6016 0.37759 16.768 -0.97281 13.28 1.42079C13.344 0.87039 14.0224 0.0447901 14.0224 0.0447901C9.20322 2.09279 8.89602 4.54399 9.82402 6.01599C9.04962 5.65119 8.28162 5.31199 7.50722 4.94079C5.12642 3.80799 3.09121 2.85439 2.96321 2.82879C2.74561 2.76479 2.65602 2.86079 2.65602 2.86079C2.65602 2.86079 2.56002 2.95039 2.74562 3.13599C5.55522 5.92639 7.34722 7.60959 10.3424 10.336C9.84962 11.4368 9.78562 11.9936 10.0352 12.5696C10.3744 13.3632 10.3424 13.7664 10.2208 14.2848C10.0672 14.8032 8.83202 19.4304 8.61442 19.9552C8.39682 20.5056 6.75842 22.3424 6.73282 22.9568C6.70082 23.5712 7.19362 26.2656 7.87842 26.6624C8.40322 26.9376 9.67042 27.52 10.5984 27.6416C10.9056 27.7056 11.2192 27.6736 11.3728 27.552C11.9936 27.1552 12.1472 27.0912 12.544 27.1232L12.6336 27.1552C12.7872 27.1872 12.9728 27.2448 13.2224 27.2768C13.7472 27.3408 14.4256 27.3408 14.9824 26.9696C15.7888 26.3552 17.1456 25.5936 17.6064 25.1904C18.1632 24.64 18.5344 23.872 18.5344 23.0144C18.5344 22.2464 19.0592 21.6384 19.648 21.024C20.2048 20.4736 21.5936 19.1232 22.1504 18.5408C23.5712 19.0336 24.096 21.056 24.096 22.1568C24.096 25.2224 21.5936 29.696 15.8464 30.0288C15.6288 30.0288 15.4112 30.0608 15.168 30.0608C7.69281 30.0608 1.57442 23.5072 1.57442 15.8144C1.57442 9.74719 5.24802 5.63839 5.28002 5.60639C2.31042 8.40319 0.550415 12.2944 0.550415 16.6464C0.550415 25.1008 7.46881 31.968 16 31.968C24.5312 31.968 31.4496 25.1008 31.4496 16.6464C31.4496 13.888 30.7392 11.2256 29.44 8.99199ZM8.33922 7.02719C7.90402 6.66239 7.47522 6.29119 7.04002 5.92639C7.62882 6.23359 8.21122 6.54079 8.73602 6.81599C10.3424 7.64159 11.6736 8.37759 11.9168 8.56319C11.9168 8.56319 11.9488 8.59519 11.9808 8.62719C12.1344 8.81279 12.288 9.11999 12.0128 9.51679C11.8592 9.73439 11.6736 9.67039 11.392 9.48479C11.1488 9.32479 9.82402 8.28159 8.33922 7.02719ZM17.3312 22.9568C17.3312 23.4752 17.0816 23.936 16.7744 24.2752C16.6208 24.4288 16 24.8256 15.5712 25.1008C15.136 25.408 14.6752 25.6832 14.304 25.9584C14.1504 26.048 13.9008 26.112 13.4976 26.048L12.5376 25.9264C13.1264 25.344 14.7328 24.0896 15.2576 23.84C15.8784 23.5328 16.2432 23.1936 15.968 22.4896C15.7184 21.7536 14.7648 21.7856 14.7648 21.7856C14.7648 21.7856 15.3536 21.632 15.8144 21.696C15.2256 21.4528 14.4256 21.5104 14.0224 21.7856C13.5872 22.0928 13.4656 23.3472 13.1904 24.1152C12.9152 24.9088 12.2944 25.248 11.3664 25.8944C10.8416 26.2336 10.5024 26.3232 10.2528 26.2912C9.72801 26.1376 9.10722 25.8624 8.67842 25.6448C8.42882 25.184 8.12162 23.744 8.08962 23.1616C8.21122 22.8544 8.71041 22.24 8.95361 21.8752C9.44641 21.2032 9.72801 20.8 9.84961 20.4352C10.0672 19.9168 10.9632 16.6336 11.3024 15.2576C11.6416 15.84 12.1088 16.8192 11.8912 17.3696C13.0048 16.2048 12.512 14.8288 12.2624 14.272C12.0448 13.7216 11.8016 12.6464 12.2944 11.6096C12.7552 10.5664 14.3616 7.75039 14.3616 7.75039C14.3616 7.75039 14.6368 8.48639 15.2256 8.42239C15.7824 8.35839 21.1264 2.41919 21.1264 2.41919C21.1264 2.41919 21.9584 5.17759 20.416 6.86079C18.8736 8.54399 17.5744 8.72959 17.5744 8.72959C17.5744 8.72959 19.3024 9.27999 21.0944 8.36479C21.5552 10.0224 21.9584 11.7376 21.9584 11.9488C21.8368 12.1664 20.1024 15.0464 19.9488 15.2256C19.8848 15.2896 19.392 15.3472 19.0848 15.3472C18.528 15.4368 18.1888 15.4688 18.0352 15.5648C17.7856 15.7184 16.3648 18.3808 15.6864 19.6672C15.0656 19.7568 14.4512 19.9744 13.9584 20.5568C14.208 20.4352 14.9184 20.4352 15.4432 20.4352C15.904 20.4672 17.1712 21.3824 17.3248 22.8224C17.3312 22.9312 17.3312 22.9312 17.3312 22.9568ZM13.7152 24.2432C14.0544 23.8784 14.1184 23.168 14.176 22.9568C14.24 22.7392 14.3616 22.3424 14.6368 22.3104C14.912 22.2784 15.5008 22.464 15.4432 22.9248C15.3792 23.3536 14.9184 23.3856 14.5472 23.5968C14.304 23.7568 13.7728 24.1856 13.7152 24.2432ZM27.1552 24.6464C26.784 20.7232 24.064 18.8864 22.8608 18.272C24.2496 18.1184 27.8336 17.0496 25.856 11.6224C25.92 11.8656 26.4768 14.5664 24.896 15.9744C23.2896 17.4144 20.9408 16.8 20.6656 16.8C20.416 16.768 19.2448 17.9008 17.6384 20.0768C17.4848 19.9872 16.832 19.7376 16.032 19.7696C16.8384 18.2656 18.0416 16.1216 18.2272 15.9424C18.2912 15.8784 18.816 15.8208 19.1232 15.7888C19.744 15.7248 20.0512 15.6672 20.1728 15.5456C20.2368 15.456 20.6656 14.7776 21.1008 14.0416C21.376 14.0736 22.1184 14.1312 22.2144 14.1056C22.2784 14.0416 23.1104 12.576 23.1424 12.3904C23.1744 12.2688 22.5856 9.97119 22.2144 8.49919C29.8432 12.0832 31.0464 19.9872 27.1552 24.6464Z" fill="#1C324F"/>
        <path d="M19.8016 6.41279C20.6656 5.64479 20.544 4.32639 20.544 4.32639L17.952 7.17439C17.9136 7.18079 18.72 7.33439 19.8016 6.41279Z" fill="#1C324F"/>
        <path d="M10.0992 22.6239L10.5344 21.4016C10.5344 21.4016 9.20322 23.0847 9.08162 23.3343C8.96002 23.6095 9.01762 24.1279 9.45282 24.1599C9.88802 24.1919 10.4704 23.6415 10.5344 23.2127C10.624 22.6239 10.0992 22.6239 10.0992 22.6239Z" fill="#1C324F"/>
        <path d="M14.176 15.2064C15.104 15.1168 16.768 14.3808 17.4848 13.7984C18.1952 13.184 18.0736 11.84 16.96 11.4368C17.3312 10.8224 17.9456 9.53598 17.9456 9.53598C17.9456 9.53598 13.9584 14.1632 13.6512 14.2208C13.344 14.2848 13.216 13.12 13.216 13.12C12.2944 15.36 13.8688 15.9104 14.176 15.2064Z" fill="#1C324F"/>
        <path d="M14.5153 14.624L16.5825 12.0192C16.5825 12.0192 17.4785 12.6336 16.8897 13.3376C16.1537 14.1632 14.5153 14.624 14.5153 14.624Z" fill="#FFD925"/>
        <path d="M20.0192 3.01437L18.5984 4.54397C17.4528 4.88317 16.3456 5.49117 15.2896 6.50237C15.2896 5.92637 16.992 3.37917 20.0192 3.01437Z" fill="#D82423"/>
        <path d="M21.8112 4.33279C21.8432 3.93599 21.8112 3.47519 21.7472 3.04639C23.6032 3.28959 25.792 4.36479 28.2944 6.78399C26.2272 5.65119 24.032 4.60799 21.8112 4.33279Z" fill="#D82423"/>
        <path d="M22.368 6.32318C22.368 6.32318 29.2544 9.32478 30.5216 17.7536C30.7072 6.78398 22.8608 6.23358 22.368 6.32318Z" fill="#D82423"/>
        <path d="M12.3264 1.48477C12.2368 1.72797 8.33924 5.86877 13.1904 7.48797C10.5344 5.12637 12.2944 1.51037 12.3264 1.48477Z" fill="#D82423"/>
        <path d="M14.3936 6.8416C14.3936 6.8416 14.7968 2.1568 17.6384 0.895996C17.4208 0.959996 11.648 2.7072 14.3936 6.8416Z" fill="#D82423"/>
    </g>
    <defs>
        <clipPath id="clip0">
            <rect width="32" height="32" fill="white"/>
        </clipPath>
    </defs>
</svg>
