<svg width="32" height="32" viewBox="0 0 32 32" fill="none" xmlns="http://www.w3.org/2000/svg">
    <path d="M16 31.872C24.7659 31.872 31.872 24.7659 31.872 16C31.872 7.23413 24.7659 0.127991 16 0.127991C7.23413 0.127991 0.127991 7.23413 0.127991 16C0.127991 24.7659 7.23413 31.872 16 31.872Z" fill="url(#paint0_linear)"/>
    <path d="M22.944 22.3232L17.5744 9.35039C17.2736 8.67839 16.8192 8.35199 16.2304 8.35199H15.7568C15.1616 8.35199 14.7136 8.67839 14.4128 9.35039L12.0768 15.0016H10.3104C9.78563 15.008 9.35043 15.4304 9.35043 15.9616V15.9744C9.35683 16.4992 9.78563 16.9344 10.3104 16.9344H11.2576L9.03043 22.3232C8.99203 22.4448 8.96643 22.5664 8.96643 22.6944C8.96643 22.9952 9.06243 23.232 9.22883 23.4176C9.39523 23.6032 9.63843 23.6928 9.93923 23.6928C10.1376 23.6864 10.3296 23.6288 10.4896 23.5072C10.6624 23.3856 10.7776 23.2192 10.8736 23.0208L13.3312 16.9344H15.0336C15.5584 16.928 15.9936 16.5056 15.9936 15.9744V15.9488C15.9872 15.424 15.5584 14.9888 15.0336 14.9888H14.1248L16 10.3232L21.1072 23.0208C21.2032 23.2192 21.3184 23.392 21.4912 23.5072C21.6512 23.6288 21.8496 23.6864 22.0416 23.6928C22.3424 23.6928 22.5792 23.6032 22.752 23.4176C22.9248 23.232 23.0144 22.9952 23.0144 22.6944C23.0144 22.5664 22.9952 22.4384 22.944 22.3232Z" fill="white"/>
    <defs>
        <linearGradient id="paint0_linear" x1="27.8353" y1="6.04306" x2="4.21698" y2="25.9149" gradientUnits="userSpaceOnUse">
            <stop stop-color="#B6509E"/>
            <stop offset="1" stop-color="#2EBAC6"/>
        </linearGradient>
    </defs>
</svg>
