<svg width="32" height="32" viewBox="0 0 32 32" fill="none" xmlns="http://www.w3.org/2000/svg">
    <path d="M16 32C24.8366 32 32 24.8366 32 16C32 7.16344 24.8366 0 16 0C7.16344 0 0 7.16344 0 16C0 24.8366 7.16344 32 16 32Z" fill="white"/>
    <path d="M16.1386 6L16.0045 6.45574V19.6802L16.1386 19.814L22.2772 16.1855L16.1386 6Z" fill="#343434"/>
    <path d="M16.1386 6L10 16.1855L16.1386 19.8141V13.3953V6Z" fill="#8C8C8C"/>
    <path d="M16.1386 20.9763L16.063 21.0684V25.7793L16.1386 26L22.2809 17.3496L16.1386 20.9763Z" fill="#3C3C3B"/>
    <path d="M16.1386 25.9999V20.9763L10 17.3495L16.1386 25.9999Z" fill="#8C8C8C"/>
    <path d="M16.1386 19.814L22.2771 16.1855L16.1386 13.3954V19.814Z" fill="#141414"/>
    <path d="M10 16.1855L16.1386 19.814V13.3954L10 16.1855Z" fill="#393939"/>
</svg>
