<svg width="32" height="32" viewBox="0 0 32 32" fill="none" xmlns="http://www.w3.org/2000/svg">
    <g clip-path="url(#clip0)">
        <path fill-rule="evenodd" clip-rule="evenodd" d="M16 31.9998C7.2 31.9998 0 24.7998 0 15.9198C0.08 7.11981 7.2 -0.0801942 16.08 -0.000194207C24.88 0.0798058 32 7.19981 32 16.1598C31.92 24.8798 24.8 31.9998 16 31.9998Z" fill="#0090FF"/>
        <path fill-rule="evenodd" clip-rule="evenodd" d="M17.5199 14.08L17.0399 16.64L21.5999 17.28L21.2799 18.48L16.7999 17.84C16.4799 18.88 16.3199 20 15.9199 20.96C15.5199 22.08 15.1199 23.2 14.6399 24.24C13.9999 25.6 12.8799 26.56 11.3599 26.8C10.4799 26.96 9.51995 26.88 8.79995 26.32C8.55995 26.16 8.31995 25.84 8.31995 25.6C8.31995 25.28 8.47995 24.88 8.71995 24.72C8.87995 24.64 9.27995 24.72 9.51995 24.8C9.75995 25.04 9.99995 25.36 10.1599 25.68C10.6399 26.32 11.2799 26.4 11.9199 25.92C12.6399 25.28 13.0399 24.4 13.2799 23.52C13.7599 21.6 14.2399 19.76 14.6399 17.84V17.52L10.3999 16.88L10.5599 15.68L14.9599 16.32L15.5199 13.84L10.9599 13.12L11.1199 11.84L15.8399 12.48C15.9999 12 16.0799 11.6 16.2399 11.2C16.6399 9.76004 17.0399 8.32004 17.9999 7.04004C18.9599 5.76004 20.0799 4.96004 21.7599 5.04004C22.4799 5.04004 23.1999 5.28004 23.6799 5.84004C23.7599 5.92004 23.9199 6.08004 23.9199 6.24004C23.9199 6.56004 23.9199 6.96004 23.6799 7.20004C23.3599 7.44004 22.9599 7.36004 22.6399 7.04004C22.3999 6.80004 22.2399 6.56004 21.9999 6.32004C21.5199 5.68004 20.7999 5.60004 20.2399 6.16004C19.8399 6.56004 19.4399 7.12004 19.1999 7.68004C18.6399 9.36004 18.2399 11.12 17.6799 12.88L22.0799 13.52L21.7599 14.72L17.5199 14.08Z" fill="white"/>
    </g>
    <defs>
        <clipPath id="clip0">
            <rect width="32" height="32" fill="white"/>
        </clipPath>
    </defs>
</svg>
