<svg width="32" height="32" viewBox="0 0 32 32" fill="none" xmlns="http://www.w3.org/2000/svg">
    <path d="M16 32C24.8366 32 32 24.8366 32 16C32 7.16344 24.8366 0 16 0C7.16344 0 0 7.16344 0 16C0 24.8366 7.16344 32 16 32Z" fill="#6747ED"/>
    <path fill-rule="evenodd" clip-rule="evenodd" d="M15.7667 18.0667C13.4 18.0667 11.5 16.1667 11.5 13.8C11.5 11.4334 13.4 9.53336 15.7667 9.53336C18.1334 9.53336 20.0334 11.4334 20.0334 13.8C20.0334 16.1667 18.1334 18.0667 15.7667 18.0667ZM15.7667 7.40002C19.3 7.40002 22.1667 10.2667 22.1667 13.8C22.1667 17.3334 19.3 20.2 15.7667 20.2C12.2334 20.2 9.3667 17.3334 9.3667 13.8C9.3667 10.2667 12.2334 7.40002 15.7667 7.40002ZM21.8667 20.5334C22.3 20.9667 22.3 21.6334 21.8667 22.0334L17.6 26.3C17.1667 26.7334 16.5 26.7334 16.1 26.3C15.6667 25.8667 15.6667 25.2 16.1 24.8L20.3667 20.5334C20.7667 20.1 21.4667 20.1 21.8667 20.5334ZM24.3334 8.46669C24.3334 9.06669 23.8667 9.53336 23.2667 9.53336C22.6667 9.53336 22.2 9.06669 22.2 8.46669C22.2 7.86669 22.6667 7.40002 23.2667 7.40002C23.8334 7.40002 24.3334 7.86669 24.3334 8.46669Z" fill="white"/>
</svg>
