<svg width="32" height="32" viewBox="0 0 32 32" fill="none" xmlns="http://www.w3.org/2000/svg">
    <path d="M16 32C24.8366 32 32 24.8366 32 16C32 7.16344 24.8366 0 16 0C7.16344 0 0 7.16344 0 16C0 24.8366 7.16344 32 16 32Z" fill="url(#paint0_linear)"/>
    <path fill-rule="evenodd" clip-rule="evenodd" d="M15.4175 5.77277C14.4895 5.88158 13.6255 6.30398 12.9727 6.97598C12.4799 7.46238 12.0191 7.96158 11.5199 8.44798C11.2703 8.70398 11.0207 8.95358 10.7711 9.20318C10.5215 9.45278 10.2399 9.72158 9.98387 9.98398C9.72147 10.2464 9.50387 10.4832 9.26707 10.7264C8.88947 11.104 8.51187 11.4816 8.13427 11.8656C7.84627 12.1664 7.55827 12.4736 7.27667 12.7744C7.11027 12.9536 6.92467 13.12 6.76467 13.3056C6.10547 14.1056 5.74707 15.1104 5.74707 16.1472C5.74707 16.2112 5.74707 16.2688 5.75347 16.3328C5.76627 16.928 5.91987 17.5104 6.20787 18.0352C6.36787 18.3488 6.55987 18.6496 6.77107 18.9376C6.91187 19.136 7.01427 19.1296 7.19987 18.976C7.23827 18.944 7.27027 18.912 7.29587 18.88C7.47507 18.688 7.65427 18.496 7.83987 18.304C8.10227 18.0288 8.37107 17.7536 8.62707 17.4784C8.88947 17.2032 9.17107 16.896 9.44627 16.608C9.57427 16.4672 9.71507 16.3392 9.84947 16.1984C10.1311 15.904 10.4063 15.5968 10.6815 15.3024C10.9631 15.008 11.2447 14.7328 11.5199 14.4512C11.7951 14.1696 12.1279 13.8112 12.4415 13.4976C12.7487 13.1776 13.0111 12.9088 13.2991 12.6208C13.6703 12.2368 14.0351 11.84 14.4063 11.456C14.6367 11.2192 14.8735 10.9952 15.0975 10.7648C15.4175 10.4448 15.7119 10.1312 16.0255 9.81118C16.3391 9.49118 16.5695 9.27998 16.8383 9.00478C17.4335 8.40318 18.0351 7.79518 18.6303 7.18078C18.6687 7.14238 18.7071 7.10398 18.7391 7.05918C18.8863 6.87358 18.8991 6.83518 18.7199 6.70078C18.4447 6.48318 18.1439 6.29118 17.8367 6.12478C17.2863 5.86878 16.6847 5.73438 16.0767 5.73438H16.0447C15.8271 5.73437 15.6223 5.74717 15.4175 5.77277ZM20.6911 9.68958H20.6527C20.1215 9.68958 19.6223 9.91998 19.2831 10.3296C19.2511 10.3616 19.2191 10.3936 19.1871 10.4256L18.2143 11.3792C17.8943 11.6992 17.5487 12.0448 17.2159 12.3776C16.9407 12.6528 16.6591 12.928 16.3903 13.2032C16.1151 13.4784 15.8207 13.792 15.5263 14.08C15.2319 14.368 14.9183 14.6752 14.6111 14.9696L13.5231 16.064L11.5071 18.08C10.6175 18.976 9.72147 19.872 8.83827 20.7616C8.66547 20.928 8.66547 20.9536 8.83827 21.1328C9.26707 21.5616 9.69587 21.9904 10.1119 22.4256C10.3679 22.6944 10.7071 22.88 11.0719 22.9376C11.4175 23.008 11.7759 22.9952 12.1215 22.9056C12.3775 22.8416 12.6143 22.7136 12.8063 22.5408L13.8623 21.5168C14.1119 21.28 14.3615 21.0432 14.6047 20.8C15.0975 20.3136 15.5775 19.8272 16.0703 19.3408C16.4671 18.9504 16.8767 18.56 17.2799 18.1696L18.9375 16.5568C19.4559 16.0512 19.9743 15.5392 20.4927 15.0336C20.5951 14.88 20.8127 14.8352 20.9663 14.944C21.0239 14.9824 21.0687 15.04 21.0943 15.104C21.3567 15.4944 21.5039 15.9488 21.5039 16.4224C21.5039 16.5056 21.4975 16.5824 21.4911 16.6656C21.4463 17.1392 21.2543 17.5872 20.9343 17.9392C20.5503 18.3488 20.1471 18.7392 19.7503 19.136C19.4687 19.4176 19.1743 19.6928 18.8927 19.9744C18.5279 20.3392 18.1695 20.704 17.7983 21.0688C17.7471 21.1264 17.6959 21.1904 17.6383 21.248L17.2799 21.6192C17.0111 21.888 16.7359 22.1504 16.4735 22.4192C16.2111 22.688 15.9039 23.008 15.6223 23.3024C15.5967 23.328 15.5711 23.3472 15.5455 23.3728C15.2255 23.6672 14.9311 23.968 14.6303 24.2624C14.4895 24.4032 14.3487 24.544 14.2079 24.6848C13.9647 24.928 13.7151 25.1712 13.4847 25.4208C13.3439 25.568 13.3439 25.664 13.5103 25.7792C13.7855 25.9904 14.0799 26.1824 14.3935 26.3424C15.1615 26.688 16.0191 26.8096 16.8575 26.6944C17.6895 26.5984 18.4703 26.24 19.0847 25.6768C19.5583 25.2608 19.9743 24.8 20.4159 24.352C20.7359 24.032 21.0559 23.6928 21.3951 23.3664L22.3167 22.4384C22.5983 22.1568 22.8735 21.8688 23.1551 21.5936C23.4367 21.312 23.7887 20.9792 24.1087 20.6656C24.4287 20.352 24.7487 20.032 25.0623 19.6928C25.3183 19.4368 25.5487 19.1552 25.7663 18.8672C26.1631 18.2656 26.4127 17.5808 26.4895 16.864C26.5343 16.5056 26.5343 16.1472 26.4895 15.7952C26.3935 15.1616 26.1631 14.56 25.8175 14.0224C25.5679 13.6448 25.2671 13.2992 24.9279 12.9984C24.0447 12.1216 23.1679 11.2384 22.3039 10.3488C21.9263 9.92637 21.3823 9.68318 20.8127 9.68318H20.7999L20.6911 9.68958Z" fill="white"/>
    <defs>
        <linearGradient id="paint0_linear" x1="2.25897" y1="6.59814" x2="27.9375" y2="24.1677" gradientUnits="userSpaceOnUse">
            <stop stop-color="#FF3B3B"/>
            <stop offset="1" stop-color="#FF9914"/>
        </linearGradient>
    </defs>
</svg>
