<svg width="32" height="32" viewBox="0 0 32 32" fill="none" xmlns="http://www.w3.org/2000/svg">
    <path d="M16 32C24.8366 32 32 24.8366 32 16C32 7.16344 24.8366 0 16 0C7.16344 0 0 7.16344 0 16C0 24.8366 7.16344 32 16 32Z" fill="#EF0027"/>
    <path d="M21.932 9.91302L7.5 7.25702L15.095 26.369L25.678 13.475L21.932 9.91302ZM21.7 11.083L23.908 13.182L17.87 14.275L21.7 11.083V11.083ZM16.558 14.056L10.194 8.77802L20.596 10.692L16.558 14.056V14.056ZM16.105 14.99L15.067 23.57L9.472 9.48702L16.105 14.989V14.99ZM17.065 15.445L23.752 14.235L16.082 23.578L17.065 15.445Z" fill="white"/>
</svg>
