<svg width="32" height="32" viewBox="0 0 32 32" fill="none" xmlns="http://www.w3.org/2000/svg">
    <path d="M0 16C0 7.16347 7.16347 0 16 0C24.8365 0 32 7.16347 32 16C32 24.8365 24.8365 32 16 32C7.16347 32 0 24.8365 0 16Z" fill="#006AE3"/>
    <path d="M15.3394 22.7458V9.43384H16.7888V22.7458H15.3394Z" fill="white"/>
    <path d="M22.7177 13.8689L18.2413 15.0561L17.243 10.4097L18.5741 10.1089L19.0988 12.3105C19.0988 12.3105 20.3083 10.3265 18.6957 8.27211C17.7454 7.21611 17.2942 7.17131 16.2287 7.00491C15.2912 6.87051 13.1122 7.18731 12.4627 9.73131C12.1875 11.3697 12.4979 12.5825 14.6097 14.1697L14.4913 15.9361C14.4913 15.9361 12.1332 14.2753 11.5252 13.1105C11.0548 12.1889 10.2485 10.3681 11.7044 7.83371C12.4883 6.56653 14.0338 5.35053 16.7567 5.47853C18.1262 5.53613 21.4698 7.20971 20.9514 11.1201C20.8618 11.8529 20.4811 12.8289 20.4811 12.8289L22.3177 12.4193L22.7177 13.8689Z" fill="white"/>
    <path d="M20.1611 24.2849C19.342 25.5297 17.7646 26.7041 15.048 26.5057C13.6786 26.4129 10.3829 24.6497 11.0036 20.7553C11.1124 20.0257 11.5188 19.0625 11.5188 19.0625L9.67257 19.4209L9.31104 17.9649L13.8194 16.8961L14.696 21.5681L13.3554 21.8337L12.8882 19.6161C12.8882 19.6161 11.6276 21.5649 13.1826 23.6641C14.1041 24.7457 14.5521 24.8001 15.6176 24.9953C16.5487 25.1553 18.7372 24.8929 19.454 22.3681C19.7708 20.7393 19.4924 19.5169 17.4254 17.8721L17.5918 16.1089C17.5918 16.1089 19.9052 17.8305 20.4811 19.0113C20.9226 19.9489 21.681 21.7921 20.1611 24.2849Z" fill="white"/>
</svg>
