<svg width="32" height="32" viewBox="0 0 32 32" fill="none" xmlns="http://www.w3.org/2000/svg">
    <path d="M16 32C24.8366 32 32 24.8366 32 16C32 7.16344 24.8366 0 16 0C7.16344 0 0 7.16344 0 16C0 24.8366 7.16344 32 16 32Z" fill="white"/>
    <path d="M20.7163 20.2659C20.2581 20.2935 19.7993 20.2226 19.3707 20.058C18.9422 19.8934 18.5539 19.639 18.2319 19.3118C17.6048 18.564 17.289 17.6037 17.3501 16.6296C17.3477 16.2093 17.39 15.79 17.4761 15.3786C17.5628 14.9811 17.702 14.5968 17.8902 14.236C18.1026 13.8331 18.3559 13.453 18.646 13.1018C19.0029 12.6691 19.3813 12.2547 19.7798 11.8601L21.2378 10.4196L23.0738 12.3996L21.2915 14.0559C20.9321 14.3918 20.6294 14.6858 20.3833 14.9377C20.1688 15.1537 19.9673 15.3821 19.7798 15.6218C19.6457 15.7914 19.531 15.9755 19.438 16.1706C19.37 16.3143 19.3331 16.4707 19.3296 16.6296C19.3296 17.2542 19.7316 17.5662 20.5356 17.5656H23.2896V16.4138H25.3599V17.6198C25.3929 17.9836 25.3509 18.3502 25.2363 18.6971C25.1218 19.0439 24.9371 19.3635 24.6939 19.6359C24.1582 20.0882 23.4675 20.3141 22.7681 20.2658L20.7163 20.2659Z" fill="black"/>
    <path d="M12.7329 20.0588C12.6034 19.9203 12.5025 19.7576 12.4361 19.5799C12.3697 19.4022 12.3392 19.2132 12.3462 19.0237V18.6638C12.3392 18.4743 12.3698 18.2853 12.4362 18.1076C12.5025 17.9299 12.6034 17.7672 12.7329 17.6286C12.8942 17.4828 13.0836 17.3717 13.2896 17.302C13.4955 17.2324 13.7135 17.2058 13.9302 17.2239C14.1468 17.2057 14.3649 17.2323 14.5709 17.3019C14.7768 17.3715 14.9663 17.4827 15.1274 17.6286C15.257 17.7672 15.3578 17.9299 15.4242 18.1076C15.4906 18.2853 15.5211 18.4743 15.5142 18.6638V19.0237C15.5212 19.2132 15.4906 19.4022 15.4243 19.5799C15.3579 19.7576 15.257 19.9203 15.1274 20.0588C14.9663 20.2048 14.7769 20.3161 14.5709 20.3858C14.365 20.4555 14.1469 20.4822 13.9302 20.4641C13.7135 20.4821 13.4954 20.4554 13.2895 20.3857C13.0836 20.316 12.8941 20.2047 12.7329 20.0588V20.0588Z" fill="black"/>
    <path d="M10.9058 25.054H6.64014V23.47H7.97214C8.80026 23.47 9.21432 23.2719 9.21433 22.8758C9.21269 22.8077 9.1946 22.7411 9.16161 22.6816C9.12861 22.6221 9.0817 22.5714 9.02487 22.534C8.88045 22.4322 8.70622 22.3816 8.52976 22.39C8.34412 22.3908 8.1606 22.4295 7.99048 22.5038C7.82036 22.5781 7.66723 22.6865 7.5405 22.8221L6.67624 21.6161C6.9161 21.3641 7.20354 21.1621 7.52194 21.0219C7.83884 20.8795 8.18234 20.8059 8.52976 20.8061C9.04673 20.7846 9.55233 20.9617 9.94284 21.3012C10.1204 21.4567 10.2616 21.6494 10.3565 21.8656C10.4513 22.0818 10.4975 22.3162 10.4917 22.5522C10.4993 22.9046 10.3705 23.2464 10.1323 23.5063L10.1499 23.5961H10.9057L10.9058 25.054ZM10.0601 20.2659H7.8999V6.94601H10.0601V20.2659Z" fill="black"/>
</svg>
