<svg width="32" height="32" viewBox="0 0 32 32" fill="none" xmlns="http://www.w3.org/2000/svg">
  <path d="M16 32C24.8366 32 32 24.8366 32 16C32 7.16344 24.8366 0 16 0C7.16344 0 0 7.16344 0 16C0 24.8366 7.16344 32 16 32Z" fill="white" />
  <path d="M11.779 21.0505L11.989 19.3285C12.451 19.3285 12.976 19.3285 13.564 19.3285C14.166 19.3145 14.747 19.2865 15.307 19.2445C15.867 19.1885 16.308 19.1045 16.63 18.9925C17.078 18.8385 17.435 18.6425 17.701 18.4045C17.981 18.1525 18.191 17.8305 18.331 17.4385C18.079 17.5225 17.806 17.5855 17.512 17.6275C17.232 17.6555 16.952 17.6695 16.672 17.6695C15.594 17.6695 14.768 17.4175 14.194 16.9135C13.62 16.4095 13.333 15.7725 13.333 15.0025C13.333 14.4705 13.417 13.9385 13.585 13.4065C13.753 12.8605 13.991 12.3635 14.299 11.9155C14.607 11.4675 14.978 11.1105 15.412 10.8445C15.846 10.5645 16.329 10.4245 16.861 10.4245C17.617 10.4245 18.24 10.6765 18.73 11.1805C19.234 11.6705 19.605 12.3075 19.843 13.0915C20.095 13.8755 20.221 14.7085 20.221 15.5905C20.221 16.6405 20.039 17.5435 19.675 18.2995C19.325 19.0415 18.737 19.6575 17.911 20.1475C17.477 20.3995 16.931 20.5955 16.273 20.7355C15.629 20.8615 14.922 20.9455 14.152 20.9875C13.382 21.0295 12.591 21.0505 11.779 21.0505ZM14.992 14.5825C14.992 15.0165 15.132 15.3665 15.412 15.6325C15.692 15.8845 16.175 16.0105 16.861 16.0105C17.463 16.0105 18.037 15.9265 18.583 15.7585C18.583 15.6745 18.583 15.5765 18.583 15.4645C18.583 14.8905 18.506 14.3515 18.352 13.8475C18.198 13.3295 17.981 12.9165 17.701 12.6085C17.421 12.3005 17.085 12.1465 16.693 12.1465C16.357 12.1465 16.063 12.2725 15.811 12.5245C15.559 12.7625 15.356 13.0705 15.202 13.4485C15.062 13.8265 14.992 14.2045 14.992 14.5825ZM16.462 8.26149C16.168 8.26149 15.916 8.16349 15.706 7.96749C15.51 7.75749 15.412 7.51249 15.412 7.23249C15.412 6.95249 15.51 6.70749 15.706 6.49749C15.916 6.28749 16.168 6.1825 16.462 6.1825C16.742 6.1825 16.98 6.28749 17.176 6.49749C17.386 6.70749 17.491 6.95249 17.491 7.23249C17.491 7.51249 17.386 7.75749 17.176 7.96749C16.98 8.16349 16.742 8.26149 16.462 8.26149ZM15.643 25.8175L15.517 22.1845H16.672L16.798 25.8175H15.643Z" fill="black" />
</svg>