<svg width="32" height="32" viewBox="0 0 32 32" fill="none" xmlns="http://www.w3.org/2000/svg">
  <path d="M16 32C24.8366 32 32 24.8366 32 16C32 7.16344 24.8366 0 16 0C7.16344 0 0 7.16344 0 16C0 24.8366 7.16344 32 16 32Z" fill="white" />
  <path d="M15.5695 18.205H18.2575V16.609H15.5695V15.37H18.2575V13.732C18.2575 11.24 17.0675 9.99401 14.6875 9.99401C13.4555 9.99401 12.5455 10.344 11.9575 11.044C11.3695 11.73 11.0755 12.801 11.0755 14.257H9.1855C9.1855 12.409 9.6405 10.974 10.5505 9.95201C11.4745 8.91601 12.8675 8.39801 14.7295 8.39801C16.4795 8.39801 17.8165 8.88101 18.7405 9.84701C19.6785 10.799 20.1475 12.157 20.1475 13.921V15.37H22.8145V16.609H20.1475V18.205H22.8145V19.465H20.1475V23.602H18.2575V19.465H15.5695V18.205Z" fill="black" />
</svg>