<svg width="32" height="32" viewBox="0 0 32 32" fill="none" xmlns="http://www.w3.org/2000/svg">
    <path d="M16 32C24.8366 32 32 24.8366 32 16C32 7.16344 24.8366 0 16 0C7.16344 0 0 7.16344 0 16C0 24.8366 7.16344 32 16 32Z" fill="white"/>
    <path d="M6.29346 11.2727L3.02979 20.7273H5.17139L5.87274 18.5715H9.28687L9.98682 20.7273H12.1284L8.86963 11.2727H6.29346ZM6.38046 17.011L7.5444 13.4333H7.61862L8.7802 17.011L6.38046 17.011Z" fill="black"/>
    <path d="M18.8022 17.0159C19.29 16.7976 19.6998 16.4361 19.9771 15.9793C20.2584 15.4874 20.3989 14.9275 20.3833 14.3611C20.3971 13.7914 20.2593 13.2282 19.9839 12.7293C19.7141 12.2626 19.3102 11.8878 18.8247 11.6536C18.2528 11.3854 17.626 11.255 16.9946 11.2727H13.2642V20.7273H15.2632V17.3757H16.7225L18.5132 20.7273H20.7202L18.7095 17.0454C18.7382 17.033 18.7743 17.0289 18.8022 17.0159ZM15.2632 12.907H16.6118C16.9394 12.8965 17.2655 12.9538 17.5698 13.0755C17.8072 13.1737 18.0062 13.3462 18.1372 13.5672C18.2691 13.8105 18.3338 14.0845 18.3247 14.3611C18.3343 14.6334 18.2695 14.9032 18.1372 15.1414C18.0057 15.3563 17.807 15.5217 17.5718 15.6121C17.268 15.726 16.9449 15.7794 16.6206 15.7693H15.2632V12.907Z" fill="black"/>
    <path d="M28.7554 16.9788C28.6163 16.6761 28.4158 16.4057 28.1665 16.1848C27.8992 15.9503 27.5971 15.7588 27.271 15.6169C26.9056 15.4564 26.5252 15.3326 26.1353 15.2473L25.8611 15.1817L25.8826 12.8833C26.0859 12.9245 26.2788 13.0063 26.4497 13.1237C26.5876 13.2249 26.7015 13.3551 26.7835 13.5051C26.8655 13.6551 26.9136 13.8213 26.9244 13.9919H28.8404C28.8415 13.4622 28.6841 12.9444 28.3882 12.5051C28.0802 12.0643 27.6559 11.7176 27.1626 11.5036C26.7603 11.3345 26.3335 11.2306 25.8985 11.1958L25.9087 10.091H24.8199L24.8095 11.1905C24.3512 11.2233 23.9011 11.329 23.4761 11.5036C22.9684 11.7166 22.5275 12.0626 22.1997 12.5051C21.8877 12.942 21.7266 13.4688 21.7407 14.0056C21.725 14.3169 21.7785 14.6278 21.8974 14.916C22.0163 15.2042 22.1976 15.4624 22.4282 15.6721C22.9734 16.126 23.6221 16.4384 24.3169 16.5817L24.7576 16.6923L24.7346 19.1311C24.6039 19.1075 24.4756 19.0723 24.351 19.0261C24.0939 18.9312 23.8684 18.7665 23.6997 18.5505C23.5313 18.32 23.4357 18.0443 23.4253 17.759H21.4908C21.4847 18.3656 21.6576 18.9606 21.9878 19.4695C22.3153 19.9394 22.7748 20.3017 23.3081 20.5105C23.7606 20.6812 24.2361 20.7833 24.7188 20.8135L24.7085 21.9089H25.7984L25.8086 20.8196C26.31 20.7958 26.8043 20.692 27.273 20.5124C27.7779 20.3131 28.2141 19.9717 28.5288 19.5295C28.8258 19.0852 28.9799 18.5608 28.9702 18.0265C28.9735 17.666 28.9003 17.3089 28.7554 16.9788V16.9788ZM24.7046 14.8758C24.5359 14.8161 24.3747 14.7371 24.2242 14.6404C24.0931 14.5573 23.9821 14.4462 23.899 14.3152C23.8181 14.1821 23.7803 14.0273 23.7906 13.8719C23.788 13.6756 23.8505 13.484 23.9683 13.3269C24.1015 13.1561 24.2797 13.0259 24.4829 12.9509C24.5837 12.9133 24.6878 12.8849 24.7937 12.8663L24.7746 14.896C24.7524 14.8883 24.7265 14.8837 24.7046 14.8757V14.8758ZM26.7446 18.6268C26.5902 18.8135 26.3885 18.9555 26.1606 19.0379C26.0513 19.0777 25.9387 19.1081 25.8242 19.1287L25.8443 16.9796C25.9809 17.0237 26.1079 17.0694 26.2212 17.1175C26.4283 17.1974 26.6144 17.3237 26.7651 17.4866C26.8918 17.6358 26.9586 17.8267 26.9526 18.0223C26.9554 18.2418 26.8819 18.4554 26.7447 18.6267L26.7446 18.6268Z" fill="black"/>
</svg>
