<svg width="32" height="32" viewBox="0 0 32 32" fill="none" xmlns="http://www.w3.org/2000/svg">
  <g clip-path="url(#clip0_1875_64)">
    <path d="M16 32C24.8366 32 32 24.8366 32 16C32 7.16347 24.8366 3.05176e-05 16 3.05176e-05C7.16344 3.05176e-05 0 7.16347 0 16C0 24.8366 7.16344 32 16 32Z" fill="white" />
    <path d="M7.88884 20.7273V19.1208L8.1566 19.0977C8.50129 19.07 8.77982 18.9392 8.99218 18.7053C9.20454 18.4683 9.36303 18.0913 9.46767 17.5743C9.57539 17.0541 9.64464 16.3555 9.67542 15.4784L9.83238 11.2728H16.2493V20.7273H14.3057V12.8747H11.6882L11.5405 16.1662C11.4912 17.2249 11.365 18.0898 11.1619 18.7607C10.9619 19.4316 10.6418 19.9271 10.2017 20.2472C9.76467 20.5673 9.16607 20.7273 8.40589 20.7273H7.88884Z" fill="black" />
    <path d="M17.8604 20.7273V13.6364H20.8842C21.7583 13.6364 22.4492 13.8026 22.957 14.135C23.4648 14.4674 23.7187 14.9398 23.7187 15.5522C23.7187 15.9369 23.5756 16.257 23.2894 16.5125C23.0032 16.7679 22.6062 16.9403 22.0984 17.0295C22.5231 17.0603 22.8847 17.1572 23.1832 17.3204C23.4848 17.4804 23.7141 17.6881 23.8711 17.9436C24.0311 18.199 24.1111 18.4822 24.1111 18.793C24.1111 19.1962 24.0034 19.5424 23.788 19.8317C23.5756 20.121 23.2632 20.3426 22.8508 20.4965C22.4415 20.6504 21.9414 20.7273 21.3505 20.7273H17.8604ZM19.6932 19.2547H21.3505C21.6244 19.2547 21.8383 19.19 21.9922 19.0608C22.1491 18.9284 22.2276 18.7484 22.2276 18.5206C22.2276 18.2683 22.1491 18.0698 21.9922 17.9251C21.8383 17.7805 21.6244 17.7081 21.3505 17.7081H19.6932V19.2547ZM19.6932 16.554H20.9258C21.1227 16.554 21.2905 16.5263 21.429 16.4709C21.5705 16.4124 21.6783 16.3293 21.7521 16.2216C21.8291 16.1139 21.8675 15.9862 21.8675 15.8385C21.8675 15.6199 21.7798 15.4491 21.6044 15.326C21.429 15.2029 21.1889 15.1414 20.8842 15.1414H19.6932V16.554Z" fill="black" />
  </g>
  <defs>
    <clipPath id="clip0_1875_64">
      <rect width="32" height="32" fill="white" />
    </clipPath>
  </defs>
</svg>
