<svg width="32" height="32" viewBox="0 0 32 32" fill="none" xmlns="http://www.w3.org/2000/svg">
    <path d="M16 32C24.8366 32 32 24.8366 32 16C32 7.16344 24.8366 0 16 0C7.16344 0 0 7.16344 0 16C0 24.8366 7.16344 32 16 32Z" fill="white"/>
    <path d="M13.685 17.0159C14.1728 16.7976 14.5826 16.4361 14.8598 15.9793C15.1412 15.4874 15.2817 14.9275 15.2661 14.3611C15.2799 13.7914 15.1421 13.2282 14.8667 12.7293C14.5968 12.2626 14.193 11.8878 13.7075 11.6536C13.1356 11.3854 12.5088 11.255 11.8774 11.2727H8.14697V20.7273H10.146V17.3757H11.6053L13.396 20.7273H15.603L13.5924 17.0454C13.6211 17.033 13.6571 17.0289 13.685 17.0159ZM10.146 12.907H11.4946C11.8221 12.8965 12.1483 12.9538 12.4526 13.0755C12.6899 13.1737 12.889 13.3462 13.02 13.5672C13.1519 13.8105 13.2166 14.0845 13.2075 14.3611C13.2171 14.6334 13.1522 14.9032 13.02 15.1414C12.8885 15.3563 12.6897 15.5217 12.4546 15.6121C12.1508 15.726 11.8277 15.7794 11.5034 15.7693H10.146V12.907ZM23.6382 16.9788C23.4991 16.6761 23.2985 16.4057 23.0493 16.1848C22.7819 15.9504 22.4798 15.7588 22.1538 15.6169C21.7883 15.4565 21.4079 15.3327 21.018 15.2473L20.7439 15.1817L20.7654 12.8833C20.9686 12.9245 21.1615 13.0063 21.3325 13.1238C21.4703 13.2249 21.5842 13.3551 21.6663 13.5051C21.7483 13.6551 21.7963 13.8213 21.8071 13.9919H23.7231C23.7243 13.4623 23.5668 12.9444 23.271 12.5051C22.963 12.0643 22.5387 11.7176 22.0454 11.5036C21.643 11.3345 21.2163 11.2306 20.7812 11.1958L20.7915 10.091H19.7026L19.6922 11.1905C19.2339 11.2233 18.7838 11.329 18.3589 11.5036C17.8511 11.7167 17.4102 12.0626 17.0825 12.5051C16.7705 12.9421 16.6093 13.4688 16.6235 14.0056C16.6078 14.3169 16.6613 14.6279 16.7801 14.916C16.899 15.2042 17.0803 15.4624 17.311 15.6721C17.8562 16.126 18.5049 16.4384 19.1997 16.5818L19.6403 16.6924L19.6173 19.1311C19.4866 19.1075 19.3583 19.0724 19.2338 19.0261C18.9767 18.9312 18.7511 18.7666 18.5824 18.5506C18.414 18.32 18.3184 18.0444 18.308 17.759H16.3735C16.3675 18.3657 16.5403 18.9606 16.8706 19.4695C17.1981 19.9394 17.6575 20.3017 18.1909 20.5105C18.6434 20.6812 19.1188 20.7834 19.6015 20.8135L19.5913 21.9089H20.6811L20.6914 20.8196C21.1927 20.7958 21.6871 20.6921 22.1557 20.5124C22.6606 20.3131 23.0969 19.9717 23.4116 19.5295C23.7086 19.0853 23.8626 18.5608 23.853 18.0266C23.8562 17.666 23.783 17.3089 23.6382 16.9788V16.9788ZM19.5874 14.8758C19.4187 14.8162 19.2574 14.7372 19.1069 14.6404C18.9759 14.5573 18.8648 14.4463 18.7817 14.3152C18.7009 14.1821 18.663 14.0273 18.6733 13.8719C18.6708 13.6756 18.7332 13.484 18.851 13.327C18.9842 13.1561 19.1625 13.0259 19.3657 12.951C19.4665 12.9133 19.5705 12.885 19.6765 12.8663L19.6573 14.896C19.6351 14.8883 19.6092 14.8837 19.5874 14.8757V14.8758ZM21.6274 18.6268C21.4729 18.8136 21.2713 18.9555 21.0434 19.0379C20.934 19.0777 20.8215 19.1081 20.7069 19.1287L20.7271 16.9796C20.8637 17.0237 20.9906 17.0694 21.1039 17.1175C21.311 17.1974 21.4971 17.3237 21.6479 17.4866C21.7746 17.6358 21.8414 17.8267 21.8354 18.0223C21.8382 18.2418 21.7647 18.4554 21.6274 18.6267L21.6274 18.6268Z" fill="black"/>
</svg>
