<svg width="32" height="32" viewBox="0 0 32 32" fill="none" xmlns="http://www.w3.org/2000/svg">
  <path d="M16 32C24.8366 32 32 24.8366 32 16C32 7.16344 24.8366 0 16 0C7.16344 0 0 7.16344 0 16C0 24.8366 7.16344 32 16 32Z" fill="white" />
  <path d="M19.1 12.5402C19.0712 12.226 18.9716 11.9225 18.8089 11.6524C18.6461 11.3822 18.4242 11.1524 18.16 10.9802C17.539 10.5879 16.8139 10.3927 16.08 10.4202C15.5528 10.4062 15.0285 10.5015 14.54 10.7002C14.1411 10.8581 13.7946 11.1249 13.54 11.4702C13.3015 11.7868 13.1749 12.1737 13.18 12.5702C13.1707 12.8871 13.2541 13.1999 13.42 13.4702C13.5873 13.7257 13.8093 13.9409 14.07 14.1002C14.3444 14.2639 14.6321 14.4044 14.93 14.5202C15.2217 14.6256 15.5188 14.7158 15.82 14.7902L17.24 15.1602C17.7264 15.2814 18.2041 15.4351 18.67 15.6202C19.1543 15.8114 19.6089 16.0707 20.02 16.3902C20.434 16.7073 20.775 17.1097 21.02 17.5702C21.2846 18.0898 21.4152 18.6672 21.4 19.2502C21.4139 20.0268 21.1945 20.7897 20.77 21.4402C20.31 22.1081 19.6728 22.6345 18.93 22.9602C18.011 23.351 17.0183 23.5386 16.02 23.5102C15.0508 23.5347 14.0871 23.3576 13.19 22.9902C12.4411 22.6853 11.7931 22.1759 11.32 21.5202C10.862 20.8495 10.6052 20.0619 10.58 19.2502H12.78C12.8021 19.7308 12.9813 20.191 13.29 20.5602C13.6014 20.9153 14.0018 21.181 14.45 21.3302C14.9476 21.5063 15.4721 21.5943 16 21.5902C16.5677 21.6005 17.1318 21.4985 17.66 21.2902C18.1097 21.1246 18.5069 20.8414 18.81 20.4702C19.0894 20.118 19.2379 19.6797 19.23 19.2302C19.2475 18.8424 19.115 18.4628 18.86 18.1702C18.5802 17.8733 18.2389 17.6413 17.86 17.4902C17.4019 17.2971 16.9307 17.1367 16.45 17.0102L14.73 16.5402C13.7111 16.3014 12.7645 15.8212 11.97 15.1402C11.6358 14.8307 11.3732 14.452 11.2005 14.0306C11.0278 13.6092 10.9491 13.1551 10.97 12.7002C10.9541 11.9159 11.1926 11.1475 11.65 10.5102C12.1232 9.86503 12.7625 9.36042 13.5 9.05016C14.326 8.69125 15.2195 8.51391 16.12 8.53015C17.0196 8.51261 17.9126 8.68645 18.74 9.04015C19.4493 9.35107 20.0635 9.8445 20.52 10.4702C20.9574 11.0721 21.1952 11.796 21.2 12.5402H19.1ZM15.35 25.0902L15.4 6.91016H16.74L16.68 25.0902H15.35Z" fill="black" />
</svg>
