<svg width="32" height="32" viewBox="0 0 32 32" fill="none" xmlns="http://www.w3.org/2000/svg">
    <path d="M16 32C24.8366 32 32 24.8366 32 16C32 7.16344 24.8366 0 16 0C7.16344 0 0 7.16344 0 16C0 24.8366 7.16344 32 16 32Z" fill="white"/>
    <path d="M19.0966 12.5481C19.0691 12.2331 18.9704 11.9286 18.808 11.6573C18.6456 11.386 18.4237 11.1552 18.1591 10.9822C17.5401 10.5908 16.8168 10.3963 16.0849 10.4246C15.5553 10.4121 15.0287 10.5077 14.5371 10.7053C14.1369 10.8651 13.7873 11.1302 13.5254 11.4724C13.2877 11.7912 13.1615 12.1793 13.166 12.5769C13.158 12.8927 13.2432 13.2039 13.4111 13.4714C13.578 13.7259 13.7987 13.9405 14.0576 14.1003C14.3295 14.2706 14.6189 14.411 14.9209 14.5193C15.212 14.6254 15.5082 14.7166 15.8086 14.7927L17.2285 15.1619C17.7145 15.2826 18.1916 15.4369 18.6562 15.6238C19.1411 15.8164 19.5975 16.0744 20.0127 16.3904C20.4294 16.7079 20.7745 17.1097 21.0254 17.5696C21.2952 18.0887 21.4282 18.6679 21.4121 19.2527C21.4253 20.0315 21.2038 20.7963 20.7763 21.4475C20.3182 22.1154 19.6803 22.6398 18.9365 22.9602C18.0184 23.3524 17.0263 23.5413 16.0283 23.5139C15.0607 23.5368 14.0987 23.3605 13.2021 22.9959C12.4542 22.6884 11.8072 22.1779 11.334 21.5222C10.8732 20.8527 10.6143 20.065 10.5879 19.2527H12.79C12.8145 19.7339 12.9952 20.194 13.3047 20.5632C13.616 20.9185 14.0155 21.1855 14.4629 21.3372C14.9617 21.5102 15.4867 21.5956 16.0146 21.5896C16.5812 21.5994 17.1444 21.4992 17.6728 21.2947C18.1206 21.1254 18.516 20.8413 18.8193 20.4709C19.0984 20.1189 19.2465 19.6809 19.2383 19.2317C19.2543 18.8454 19.1239 18.4673 18.873 18.1731C18.5974 17.8767 18.2605 17.6441 17.8857 17.4914C17.4308 17.2979 16.9621 17.1388 16.4834 17.0154L14.7646 16.5466C13.7452 16.3047 12.7972 15.8253 11.998 15.1477C11.6603 14.8394 11.394 14.4609 11.2178 14.0389C11.0417 13.6168 10.9601 13.1613 10.9785 12.7043C10.9624 11.9184 11.2016 11.1485 11.6602 10.51C12.1355 9.86851 12.7728 9.36482 13.5068 9.05053C14.3358 8.69177 15.2316 8.51382 16.1347 8.52853C17.032 8.51075 17.9226 8.6875 18.7451 9.04661C19.4553 9.35622 20.0713 9.84747 20.5312 10.4709C20.9676 11.0762 21.2057 11.8019 21.2129 12.5481L19.0966 12.5481ZM15.3466 25.0911L15.4033 6.90896H16.7383L16.6817 25.0911H15.3466Z" fill="black"/>
</svg>
