<svg width="32" height="32" viewBox="0 0 32 32" fill="none" xmlns="http://www.w3.org/2000/svg">
    <path d="M16 32C24.8366 32 32 24.8366 32 16C32 7.16344 24.8366 0 16 0C7.16344 0 0 7.16344 0 16C0 24.8366 7.16344 32 16 32Z" fill="white"/>
    <path d="M5.30029 23.5571V9.01172H7.49561V15.9575H7.67236L13.7739 9.01172H16.5366L10.6704 15.5601L16.5581 23.5571H13.9155L9.21436 17.0586L7.49561 19.0332V23.5571H5.30029Z" fill="black"/>
    <path d="M22.2183 23.7769C21.2601 23.8034 20.3145 23.5533 19.4946 23.0566C18.7327 22.5734 18.125 21.8821 17.7436 21.0645C17.3227 20.1524 17.114 19.1567 17.1333 18.1523C17.1127 17.1383 17.3266 16.1332 17.7583 15.2153C18.146 14.3985 18.7567 13.7079 19.52 13.2231C20.3248 12.7319 21.2541 12.4828 22.1968 12.5059C22.9605 12.4923 23.7177 12.6487 24.4135 12.9639C25.0385 13.2501 25.5797 13.6915 25.9858 14.2461C26.3925 14.8118 26.6392 15.4768 26.6997 16.1709H24.6333C24.5198 15.6596 24.2478 15.1972 23.856 14.8496C23.4057 14.4643 22.8249 14.2662 22.233 14.2959C21.6797 14.2841 21.1368 14.4467 20.6812 14.7607C20.2192 15.095 19.861 15.553 19.648 16.082C19.3877 16.7231 19.2618 17.4108 19.2779 18.1025C19.2614 18.8062 19.3845 19.5062 19.6402 20.1621C19.8492 20.6971 20.205 21.1624 20.6665 21.5044C21.0545 21.7645 21.5011 21.9238 21.9661 21.9679C22.4311 22.012 22.8997 21.9394 23.3296 21.7568C23.6538 21.6116 23.9387 21.3911 24.1607 21.1137C24.3937 20.8185 24.5555 20.4734 24.6333 20.1054H26.6998C26.6374 20.7854 26.3994 21.4375 26.0091 21.9978C25.6187 22.558 25.0895 23.0072 24.4732 23.3012C23.7685 23.6323 22.9966 23.7951 22.2183 23.7769ZM20.7203 8.22314L22.1832 10.127L23.6392 8.22314H25.564V8.33008L23.064 11.3413H21.2954L18.8022 8.33008V8.22314H20.7203Z" fill="black"/>
</svg>
