<svg width="32" height="32" viewBox="0 0 32 32" fill="none" xmlns="http://www.w3.org/2000/svg">
    <path d="M16 32C24.8366 32 32 24.8366 32 16C32 7.16344 24.8366 0 16 0C7.16344 0 0 7.16344 0 16C0 24.8366 7.16344 32 16 32Z" fill="white"/>
    <path d="M4.81396 23.2053V8.65991H7.00924V15.6057H7.18596L13.2875 8.65991H16.0502L10.184 15.2083L16.0717 23.2053H13.4292L8.72796 16.7068L7.00924 18.6814V23.2053H4.81396Z" fill="black"/>
    <path d="M17.9321 23.2053V12.2961H19.9849V14.0291H20.0981C20.2832 13.4607 20.6549 12.9715 21.1528 12.6409C21.6596 12.3014 22.2578 12.1243 22.8677 12.1331C23.0005 12.1331 23.1577 12.1375 23.3403 12.1472C23.5229 12.1565 23.6655 12.1682 23.77 12.1824V14.2136C23.6203 14.1781 23.4687 14.1509 23.3159 14.1321C23.0992 14.1015 22.8805 14.0862 22.6616 14.0862C22.1962 14.0776 21.7361 14.1862 21.3237 14.4021C20.9345 14.6063 20.6098 14.9146 20.3858 15.2927C20.1618 15.6708 20.0473 16.1038 20.0552 16.5432V23.2053H17.9321Z" fill="black"/>
    <path d="M25.7661 23.3401C25.3896 23.3391 25.0289 23.1892 24.7626 22.923C24.4964 22.6569 24.3463 22.2961 24.3452 21.9197C24.3427 21.7335 24.3787 21.5489 24.4507 21.3772C24.5228 21.2056 24.6295 21.0507 24.7642 20.9221C24.8956 20.7904 25.0517 20.6859 25.2235 20.6146C25.3954 20.5433 25.5796 20.5066 25.7656 20.5066C25.9517 20.5066 26.1359 20.5433 26.3078 20.6146C26.4796 20.6859 26.6357 20.7904 26.7671 20.9221C26.9904 21.1413 27.1337 21.429 27.1743 21.7392C27.2148 22.0495 27.1502 22.3643 26.9907 22.6335C26.8644 22.8452 26.6876 23.0222 26.4761 23.1487C26.2615 23.2766 26.0159 23.3428 25.7661 23.3401V23.3401Z" fill="black"/>
</svg>
