<svg width="32" height="32" viewBox="0 0 32 32" fill="none" xmlns="http://www.w3.org/2000/svg">
  <path d="M16 32C24.8366 32 32 24.8366 32 16C32 7.16344 24.8366 0 16 0C7.16344 0 0 7.16344 0 16C0 24.8366 7.16344 32 16 32Z" fill="white" />
  <path d="M12.901 23.122C12.017 23.122 11.2197 22.9747 10.509 22.68C9.79835 22.3853 9.23501 21.9477 8.81901 21.367C8.41168 20.795 8.20801 20.0843 8.20801 19.235C8.20801 18.299 8.43335 17.4757 8.88401 16.765C9.33468 16.0543 9.94568 15.4607 10.717 14.984C11.4883 14.4987 12.3463 14.1347 13.291 13.892C12.901 13.7707 12.4503 13.6493 11.939 13.528C11.4277 13.4067 10.8773 13.346 10.288 13.346C9.97601 13.346 9.68135 13.3677 9.40401 13.411C9.13535 13.4457 8.89701 13.489 8.68901 13.541L8.41601 11.773C8.65868 11.695 8.92735 11.63 9.22201 11.578C9.51668 11.526 9.82001 11.5 10.132 11.5C10.7213 11.5 11.2543 11.565 11.731 11.695C12.2077 11.8163 12.654 11.9593 13.07 12.124C13.486 12.28 13.889 12.423 14.279 12.553C14.6777 12.6743 15.0807 12.735 15.488 12.735H16.008L16.177 14.685C15.7783 14.685 15.3147 14.7457 14.786 14.867C14.2573 14.9883 13.7157 15.1703 13.161 15.413C12.6063 15.647 12.0907 15.9373 11.614 16.284C11.146 16.6307 10.7647 17.0293 10.47 17.48C10.1753 17.9307 10.028 18.4333 10.028 18.988C10.028 19.5427 10.1623 19.989 10.431 20.327C10.7083 20.6737 11.0767 20.9207 11.536 21.068C11.9953 21.224 12.5067 21.302 13.07 21.302C14.006 21.302 14.981 21.1027 15.995 20.704L16.528 22.29C15.8953 22.5847 15.267 22.797 14.643 22.927C14.019 23.057 13.4383 23.122 12.901 23.122ZM13.187 19.586C12.9183 19.586 12.6887 19.495 12.498 19.313C12.316 19.131 12.225 18.9057 12.225 18.637C12.225 18.3683 12.316 18.1387 12.498 17.948C12.6887 17.7573 12.9183 17.662 13.187 17.662C13.447 17.662 13.668 17.7573 13.85 17.948C14.0407 18.1387 14.136 18.3683 14.136 18.637C14.136 18.9057 14.0407 19.131 13.85 19.313C13.668 19.495 13.447 19.586 13.187 19.586Z" fill="black" />
  <path d="M17.3798 17.48L18.0168 15.829C18.6322 16.1063 19.2345 16.245 19.8238 16.245C20.7425 16.245 21.2018 15.998 21.2018 15.504C21.2018 15.3567 21.1542 15.153 21.0588 14.893C20.9722 14.633 20.8118 14.295 20.5778 13.879C20.3438 13.4543 20.0015 12.93 19.5508 12.306L21.0978 11.279C21.7132 12.1717 22.2072 13.0167 22.5798 13.814C22.9525 14.6113 23.1388 15.283 23.1388 15.829C23.1388 16.4963 22.8702 17.038 22.3328 17.454C21.8042 17.87 21.0328 18.078 20.0188 18.078C19.7675 18.078 19.4815 18.0563 19.1608 18.013C18.8488 17.9697 18.5368 17.9047 18.2248 17.818C17.9128 17.7313 17.6312 17.6187 17.3798 17.48Z" fill="black" />
</svg>