<svg width="32" height="32" viewBox="0 0 32 32" fill="none" xmlns="http://www.w3.org/2000/svg">
  <g clip-path="url(#clip0_1852_38)">
    <path d="M16.0948 32C24.9314 32 32.0948 24.8366 32.0948 16C32.0948 7.16344 24.9314 0 16.0948 0C7.25829 0 0.0948486 7.16344 0.0948486 16C0.0948486 24.8366 7.25829 32 16.0948 32Z" fill="white" />
    <path d="M8.66467 20.7273V11.2728H12.4502C13.1458 11.2728 13.7259 11.3759 14.1906 11.5821C14.6553 11.7883 15.0047 12.0745 15.2386 12.4407C15.4725 12.8039 15.5894 13.2225 15.5894 13.6964C15.5894 14.0657 15.5155 14.3904 15.3678 14.6705C15.2201 14.9475 15.017 15.1752 14.7584 15.3537C14.503 15.5292 14.2106 15.6538 13.8813 15.7277V15.82C14.2414 15.8354 14.5784 15.937 14.8923 16.1247C15.2093 16.3124 15.4663 16.5756 15.6633 16.9141C15.8602 17.2496 15.9587 17.6497 15.9587 18.1144C15.9587 18.6161 15.8341 19.0639 15.5848 19.4578C15.3386 19.8487 14.9739 20.158 14.4907 20.3857C14.0075 20.6135 13.412 20.7273 12.7041 20.7273H8.66467ZM10.6636 19.0931H12.2932C12.8503 19.0931 13.2565 18.9869 13.512 18.7746C13.7674 18.5591 13.8952 18.2729 13.8952 17.9159C13.8952 17.6543 13.8321 17.4235 13.7059 17.2234C13.5797 17.0234 13.3997 16.8664 13.1658 16.7525C12.9349 16.6387 12.6595 16.5817 12.3394 16.5817H10.6636V19.0931ZM10.6636 15.2291H12.1455C12.4194 15.2291 12.6626 15.1814 12.8749 15.086C13.0904 14.9875 13.2596 14.849 13.3827 14.6705C13.5089 14.492 13.572 14.2781 13.572 14.0288C13.572 13.6872 13.4504 13.4117 13.2073 13.2025C12.9672 12.9932 12.6256 12.8885 12.1824 12.8885H10.6636V15.2291Z" fill="black" />
    <path d="M17.2225 20.7273V13.6364H19.1291V14.8736H19.203C19.3322 14.4335 19.5492 14.1011 19.8539 13.8765C20.1586 13.6487 20.5094 13.5349 20.9064 13.5349C21.0049 13.5349 21.1111 13.541 21.225 13.5533C21.3388 13.5656 21.4389 13.5826 21.525 13.6041V15.3491C21.4327 15.3214 21.305 15.2968 21.1419 15.2753C20.9788 15.2537 20.8295 15.243 20.6941 15.243C20.4048 15.243 20.1463 15.306 19.9185 15.4322C19.6938 15.5553 19.5153 15.7277 19.383 15.9493C19.2537 16.1709 19.1891 16.4263 19.1891 16.7156V20.7273H17.2225Z" fill="black" />
  </g>
  <defs>
    <clipPath id="clip0_1852_38">
      <rect width="32" height="32" fill="white" />
    </clipPath>
  </defs>
</svg>