<svg width="32" height="32" viewBox="0 0 32 32" fill="none" xmlns="http://www.w3.org/2000/svg">
    <path d="M16 32C24.8366 32 32 24.8366 32 16C32 7.16344 24.8366 0 16 0C7.16344 0 0 7.16344 0 16C0 24.8366 7.16344 32 16 32Z" fill="white"/>
    <path d="M18.1112 13.8266L17.4364 15.2895H8.09656L8.62977 13.8266H18.1112ZM16.8397 16.71L16.1513 18.187H8.09656L8.62977 16.71H16.8397ZM19.8446 9.96976L19.0057 11.7666C18.7357 11.5357 18.4458 11.3291 18.1395 11.149C17.8218 10.962 17.4832 10.813 17.1307 10.7051C16.7556 10.5915 16.3655 10.5352 15.9735 10.5381C15.2517 10.5272 14.5444 10.7406 13.9491 11.1489C13.3158 11.6096 12.8308 12.2451 12.5536 12.9776C12.1876 13.9443 12.0151 14.9736 12.0458 16.0069C12.0148 17.0389 12.1874 18.0669 12.5536 19.0323C12.8307 19.7628 13.3159 20.3962 13.9491 20.854C14.5452 21.2602 15.2522 21.4724 15.9735 21.4614C16.3688 21.4646 16.7623 21.4095 17.1415 21.2978C17.4891 21.1955 17.823 21.0512 18.1357 20.8681C18.4211 20.7015 18.6931 20.5128 18.9491 20.3037L19.8085 22.0932C19.3016 22.551 18.7073 22.9015 18.0614 23.1235C17.3902 23.357 16.6842 23.4747 15.9735 23.4717C14.8548 23.4918 13.7555 23.1776 12.8163 22.5693C11.8692 21.9318 11.122 21.0391 10.661 19.9946C10.1116 18.7386 9.84494 17.3773 9.87975 16.0068C9.84481 14.6329 10.1115 13.268 10.661 12.0083C11.1212 10.9624 11.8685 10.0685 12.8163 9.43017C13.7556 8.82224 14.8548 8.50824 15.9735 8.52831C16.6958 8.52194 17.4131 8.64822 18.0897 8.90087C18.7359 9.14516 19.331 9.50762 19.8446 9.96972V9.96976Z" fill="black"/>
</svg>