<svg width="32" height="32" viewBox="0 0 32 32" fill="none" xmlns="http://www.w3.org/2000/svg">
    <path d="M16 32C24.8366 32 32 24.8366 32 16C32 7.16344 24.8366 0 16 0C7.16344 0 0 7.16344 0 16C0 24.8366 7.16344 32 16 32Z" fill="white"/>
    <path d="M17.9359 17.6763H10.9261V15.7866H17.9359V17.6763ZM20.9183 23.3721H10.9759V21.4829H20.9183V23.3721ZM14.4915 13.1304L14.7181 19.2598C14.7545 19.8159 14.6747 20.3734 14.4837 20.897C14.2934 21.384 13.9395 21.7895 13.4827 22.044L11.6643 21.483C11.7887 21.4769 11.9091 21.4373 12.0129 21.3686C12.1167 21.2999 12.2 21.2044 12.2542 21.0924C12.3991 20.8218 12.4928 20.5268 12.5306 20.2222C12.5762 19.9228 12.5951 19.6198 12.5872 19.317L12.3821 13.1304C12.3147 12.2626 12.5086 11.3945 12.9388 10.6378C13.3286 9.9889 13.8972 9.4661 14.5765 9.13191C15.2125 8.82877 15.9036 8.65856 16.6077 8.6317C17.3118 8.60483 18.0139 8.72187 18.6712 8.97566C19.205 9.19 19.6886 9.5129 20.0911 9.9239C20.4685 10.3098 20.7515 10.7777 20.9182 11.2911C21.0849 11.8119 21.1191 12.366 21.0179 12.9034L18.9651 12.5767C19.0258 12.1771 18.9483 11.7687 18.7454 11.419C18.5526 11.1127 18.2732 10.8706 17.9427 10.7232C17.6017 10.5669 17.2308 10.487 16.8557 10.4888C16.4561 10.4883 16.0625 10.5857 15.7093 10.7725C15.3382 10.9704 15.0323 11.2714 14.8284 11.6392C14.587 12.098 14.4708 12.6124 14.4915 13.1304Z" fill="black"/>
</svg>
