<svg width="32" height="32" viewBox="0 0 32 32" fill="none" xmlns="http://www.w3.org/2000/svg">
    <path d="M16 32C24.8366 32 32 24.8366 32 16C32 7.16344 24.8366 0 16 0C7.16344 0 0 7.16344 0 16C0 24.8366 7.16344 32 16 32Z" fill="white"/>
    <path d="M18.2446 18.9685C18.0224 19.2457 17.7376 19.4661 17.4135 19.6116C17.2283 19.6928 17.0338 19.751 16.8344 19.7848V12.194C17.2447 12.252 17.6288 12.4295 17.9389 12.7043C18.3307 13.0519 18.6028 13.5143 18.7163 14.0256H20.7836C20.7222 13.3317 20.4757 12.6669 20.0698 12.1008C19.6631 11.5464 19.1216 11.105 18.4965 10.8186C17.9722 10.5779 17.4096 10.4317 16.8344 10.3868V8.76978H15.6196V10.4004C14.9043 10.4685 14.2143 10.7003 13.603 11.0779C12.8397 11.5626 12.229 12.2532 11.8413 13.0701C11.4101 13.9881 11.1962 14.9931 11.2163 16.0071C11.1973 17.0115 11.4063 18.0072 11.8276 18.9192C12.1663 19.6606 12.6958 20.2988 13.3621 20.7684C14.0284 21.238 14.8074 21.5222 15.6196 21.5918V23.2302H16.8344V21.6067C17.432 21.5667 18.0165 21.4138 18.5571 21.156C19.1735 20.8603 19.703 20.4101 20.0942 19.8494C20.4804 19.2883 20.7177 18.6382 20.7836 17.9602H18.7163C18.6383 18.328 18.4769 18.6729 18.2446 18.9685V18.9685ZM14.7495 19.3591C14.2879 19.0174 13.9324 18.552 13.7241 18.0168C13.4679 17.3611 13.3448 16.661 13.3618 15.9573C13.3458 15.2657 13.4714 14.5781 13.7309 13.9368C13.9442 13.408 14.3023 12.95 14.7641 12.6155C15.023 12.4368 15.3132 12.3086 15.6196 12.2375V19.7483C15.3071 19.6761 15.0116 19.5439 14.7495 19.3591V19.3591Z" fill="black"/>
</svg>
