<svg width="32" height="32" viewBox="0 0 32 32" fill="none" xmlns="http://www.w3.org/2000/svg">
    <path d="M16 32C24.8366 32 32 24.8366 32 16C32 7.16344 24.8366 0 16 0C7.16344 0 0 7.16344 0 16C0 24.8366 7.16344 32 16 32Z" fill="white"/>
    <path d="M3.11963 20.7273V11.2727H5.11863V15.1736H9.17723V11.2727H11.1714V20.7273H9.17725V16.8215H5.11865V20.7273H3.11963Z" fill="black"/>
    <path d="M12.8188 20.7273V11.2727H14.8178V15.4416H14.9428L18.3452 11.2727H20.7407L17.2329 15.5061L20.7827 20.7273H18.3911L15.8013 16.8401L14.8179 18.0403V20.7273L12.8188 20.7273Z" fill="black"/>
    <path d="M26.8345 13.9919C26.8237 13.8213 26.7756 13.6551 26.6936 13.5051C26.6116 13.3551 26.4977 13.2249 26.3599 13.1238C26.0226 12.9012 25.6227 12.7929 25.2192 12.8147C24.9377 12.807 24.6573 12.8533 24.3931 12.9509C24.1898 13.0259 24.0116 13.1561 23.8784 13.3269C23.7606 13.484 23.6981 13.6756 23.7007 13.8719C23.6904 14.0273 23.7283 14.1821 23.8091 14.3152C23.8922 14.4462 24.0033 14.5573 24.1343 14.6404C24.2848 14.7372 24.446 14.8161 24.6147 14.8758C24.8045 14.9446 24.9986 15.0009 25.1957 15.0442L26.0454 15.2473C26.4352 15.3327 26.8157 15.4565 27.1811 15.617C27.5071 15.7589 27.8092 15.9504 28.0766 16.1848C28.3258 16.4058 28.5264 16.6762 28.6655 16.9788C28.8103 17.309 28.8836 17.6662 28.8803 18.0267C28.8899 18.561 28.7359 19.0854 28.4389 19.5296C28.1242 19.9718 27.6879 20.3133 27.1831 20.5125C26.5552 20.76 25.884 20.8786 25.2094 20.8612C24.5291 20.8762 23.8525 20.7571 23.2182 20.5106C22.6848 20.3018 22.2254 19.9395 21.8979 19.4696C21.5677 18.9607 21.3948 18.3658 21.4008 17.7591H23.3354C23.3458 18.0444 23.4414 18.3201 23.6098 18.5506C23.7785 18.7666 24.0041 18.9313 24.2612 19.0262C24.5572 19.1364 24.8711 19.1904 25.187 19.1854C25.4882 19.1917 25.7879 19.1417 26.0707 19.0379C26.2987 18.9556 26.5003 18.8136 26.6547 18.6268C26.792 18.4555 26.8655 18.2418 26.8627 18.0223C26.8687 17.8267 26.8019 17.6359 26.6752 17.4867C26.5245 17.3237 26.3384 17.1974 26.1313 17.1175C25.8477 17.0015 25.555 16.9087 25.2563 16.8402L24.227 16.5819C23.5322 16.4386 22.8835 16.1261 22.3383 15.6722C22.1077 15.4625 21.9264 15.2043 21.8075 14.9162C21.6886 14.628 21.6351 14.3171 21.6508 14.0057C21.6367 13.469 21.7978 12.9422 22.1098 12.5052C22.4375 12.0628 22.8785 11.7168 23.3862 11.5038C23.9696 11.2552 24.5988 11.1324 25.2329 11.1434C25.865 11.1293 26.4926 11.2523 27.0727 11.5038C27.566 11.7178 27.9903 12.0644 28.2983 12.5052C28.5942 12.9445 28.7516 13.4624 28.7505 13.992L26.8345 13.9919ZM24.6186 21.9089L24.73 10.0911H25.8189L25.7085 21.9089H24.6186Z" fill="black"/>
</svg>
