<svg width="32" height="32" viewBox="0 0 32 32" fill="none" xmlns="http://www.w3.org/2000/svg">
    <path d="M16 32C24.8366 32 32 24.8366 32 16C32 7.16344 24.8366 0 16 0C7.16344 0 0 7.16344 0 16C0 24.8366 7.16344 32 16 32Z" fill="white"/>
    <path d="M10.2661 11.2226H16.5269V12.8705H12.2651V15.1235H16.1108V16.7714H12.2651V20.6772H10.2661L10.2661 11.2226ZM21.4243 19.1259C21.3755 19.1352 21.3052 19.1484 21.2124 19.1655C21.1209 19.1821 21.0281 19.1906 20.9351 19.1909C20.8161 19.1931 20.6978 19.1727 20.5864 19.1308C20.4865 19.0906 20.4041 19.0162 20.354 18.9208C20.2918 18.7889 20.2632 18.6436 20.271 18.4979V15.0634H21.605V13.5864H20.271V11.8876H18.3042V13.5864H17.3345V15.0634H18.3042V18.7568C18.2855 19.1618 18.3867 19.5633 18.5952 19.9111C18.7934 20.2172 19.0832 20.4531 19.4233 20.5849C19.8198 20.7359 20.244 20.8004 20.6675 20.7744C20.8865 20.7695 21.1046 20.744 21.3188 20.6982C21.4966 20.6562 21.6352 20.6201 21.7338 20.5893L21.4243 19.1259Z" fill="black"/>
</svg>
