<svg width="32" height="32" viewBox="0 0 32 32" fill="none" xmlns="http://www.w3.org/2000/svg">
  <path d="M16 32C24.8366 32 32 24.8366 32 16C32 7.16344 24.8366 0 16 0C7.16344 0 0 7.16344 0 16C0 24.8366 7.16344 32 16 32Z" fill="white" />
  <path d="M10.1673 22.349L9.92032 13.743H11.7403L11.9873 22.349H10.1673ZM9.45232 12.911L9.23132 12.001C9.50866 11.949 9.72966 11.9057 9.89432 11.871C9.73832 11.7583 9.60399 11.611 9.49132 11.429C9.37866 11.247 9.32232 11.0477 9.32232 10.831C9.32232 10.519 9.39166 10.2677 9.53032 10.077C9.66899 9.88634 9.84666 9.74767 10.0633 9.66101C10.28 9.57434 10.5053 9.53101 10.7393 9.53101C10.9907 9.53101 11.2203 9.56567 11.4283 9.63501L11.3243 10.571C11.2377 10.5537 11.151 10.5363 11.0643 10.519C10.9777 10.5017 10.8823 10.493 10.7783 10.493C10.657 10.493 10.553 10.532 10.4663 10.61C10.3797 10.6793 10.3363 10.766 10.3363 10.87C10.3363 11.0433 10.4057 11.195 10.5443 11.325C10.6917 11.4463 10.839 11.533 10.9863 11.585C11.2637 11.507 11.5193 11.4203 11.7533 11.325L12.0133 12.196C11.684 12.3173 11.281 12.4473 10.8043 12.586C10.3363 12.716 9.88566 12.8243 9.45232 12.911Z" fill="black" />
  <path d="M14.6169 22.469C14.3122 22.469 14.0506 22.3613 13.8321 22.1459C13.6167 21.9274 13.509 21.6658 13.509 21.3611C13.509 21.0595 13.6167 20.8009 13.8321 20.5855C14.0506 20.3701 14.3122 20.2624 14.6169 20.2624C14.9124 20.2624 15.1709 20.3701 15.3925 20.5855C15.6141 20.8009 15.7249 21.0595 15.7249 21.3611C15.7249 21.5642 15.6726 21.7504 15.5679 21.9197C15.4664 22.0859 15.3325 22.2197 15.1663 22.3213C15.0001 22.4198 14.817 22.469 14.6169 22.469Z" fill="black" />
  <path d="M17.0097 21.829L17.6467 20.178C18.262 20.4553 18.8644 20.594 19.4537 20.594C20.3724 20.594 20.8317 20.347 20.8317 19.853C20.8317 19.7057 20.784 19.502 20.6887 19.242C20.602 18.982 20.4417 18.644 20.2077 18.228C19.9737 17.8033 19.6314 17.279 19.1807 16.655L20.7277 15.628C21.343 16.5207 21.837 17.3657 22.2097 18.163C22.5824 18.9603 22.7687 19.632 22.7687 20.178C22.7687 20.8453 22.5 21.387 21.9627 21.803C21.434 22.219 20.6627 22.427 19.6487 22.427C19.3974 22.427 19.1114 22.4053 18.7907 22.362C18.4787 22.3187 18.1667 22.2537 17.8547 22.167C17.5427 22.0803 17.261 21.9677 17.0097 21.829Z" fill="black" />
</svg>