<svg width="32" height="32" viewBox="0 0 32 32" fill="none" xmlns="http://www.w3.org/2000/svg">
    <path d="M16 32C24.8366 32 32 24.8366 32 16C32 7.16344 24.8366 0 16 0C7.16344 0 0 7.16344 0 16C0 24.8366 7.16344 32 16 32Z" fill="white"/>
    <path d="M13.0815 8.72729L16.561 16.5681L14.9634 17.47L10.7231 8.72729H13.0815ZM20.1616 15.9431V17.3777H11.7388V15.9431H20.1616ZM20.1616 18.7556V20.1902H11.7388V18.7556H20.1616ZM17.0796 15.6238V23.2727H14.8921V15.6238H17.0796ZM15.4536 16.5466L18.9194 8.72729H21.2769L17.0376 17.47L15.4536 16.5466Z" fill="black"/>
</svg>
