<svg width="32" height="32" viewBox="0 0 32 32" fill="none" xmlns="http://www.w3.org/2000/svg">
  <path d="M16 32C24.8366 32 32 24.8366 32 16C32 7.16344 24.8366 0 16 0C7.16344 0 0 7.16344 0 16C0 24.8366 7.16344 32 16 32Z" fill="white" />
  <path d="M7.88884 20.7273V19.1207L8.15659 19.0976C8.50129 19.0699 8.77982 18.9391 8.99217 18.7052C9.20453 18.4683 9.36303 18.0912 9.46767 17.5742C9.57539 17.0541 9.64464 16.3554 9.67541 15.4783L9.83237 11.2727H16.2493V20.7273H14.3057V12.8746H11.6882L11.5405 16.1662C11.4912 17.2249 11.365 18.0897 11.1619 18.7606C10.9619 19.4316 10.6418 19.9271 10.2017 20.2471C9.76466 20.5672 9.16606 20.7273 8.40588 20.7273H7.88884Z" fill="black" />
  <path d="M17.8604 20.7273V13.6363H20.8842C21.7583 13.6363 22.4492 13.8025 22.957 14.1349C23.4648 14.4673 23.7187 14.9397 23.7187 15.5522C23.7187 15.9369 23.5756 16.257 23.2894 16.5124C23.0032 16.7679 22.6062 16.9402 22.0984 17.0295C22.5231 17.0602 22.8847 17.1572 23.1832 17.3203C23.4848 17.4803 23.7141 17.6881 23.8711 17.9435C24.0311 18.199 24.1111 18.4821 24.1111 18.7929C24.1111 19.1961 24.0034 19.5424 23.788 19.8317C23.5756 20.121 23.2632 20.3425 22.8508 20.4964C22.4415 20.6503 21.9414 20.7273 21.3505 20.7273H17.8604ZM19.6932 19.2546H21.3505C21.6244 19.2546 21.8383 19.19 21.9922 19.0607C22.1491 18.9284 22.2276 18.7483 22.2276 18.5206C22.2276 18.2682 22.1491 18.0697 21.9922 17.925C21.8383 17.7804 21.6244 17.7081 21.3505 17.7081H19.6932V19.2546ZM19.6932 16.554H20.9258C21.1227 16.554 21.2905 16.5263 21.429 16.4709C21.5705 16.4124 21.6783 16.3293 21.7521 16.2216C21.8291 16.1139 21.8675 15.9861 21.8675 15.8384C21.8675 15.6199 21.7798 15.4491 21.6044 15.326C21.429 15.2029 21.1889 15.1413 20.8842 15.1413H19.6932V16.554Z" fill="black" />
</svg>