<svg width="32" height="32" viewBox="0 0 32 32" fill="none" xmlns="http://www.w3.org/2000/svg">
  <path d="M16 32C24.8366 32 32 24.8366 32 16C32 7.16344 24.8366 0 16 0C7.16344 0 0 7.16344 0 16C0 24.8366 7.16344 32 16 32Z" fill="white" />
  <path d="M14.8037 20.4434H14.4619C14.2341 20.4434 14.0609 20.5026 13.9424 20.6211C13.833 20.7305 13.7783 20.8991 13.7783 21.127C13.7783 21.3184 13.8649 21.5872 14.0381 21.9336C14.2022 22.2799 14.4574 22.6992 14.8037 23.1914V20.4434ZM17.1963 25.5703H14.8037L13.6006 23.8477C13.2087 23.2734 12.9124 22.7585 12.7119 22.3027C12.5114 21.8561 12.4111 21.4642 12.4111 21.127C12.4111 20.4434 12.5843 19.9284 12.9307 19.582C13.2679 19.2448 13.7783 19.0762 14.4619 19.0762H14.8037V17.3535H12.4111V15.9863L14.8037 16V12.9102L12.4111 11.3926V10.5176L15.5967 6.42969L17.4971 7.60547C18.0531 7.96094 18.5225 8.13867 18.9053 8.13867H19.5889C18.8324 9.50586 18.2262 10.1895 17.7705 10.1895C17.3239 10.1895 16.8545 10.0345 16.3623 9.72461L15.2822 9.05469L13.9561 10.75L17.1963 12.8008V16H19.5889V17.3672H17.1963V25.5703Z" fill="black" />
</svg>