<svg width="32" height="32" viewBox="0 0 32 32" fill="none" xmlns="http://www.w3.org/2000/svg">
  <path d="M16 32C24.8366 32 32 24.8366 32 16C32 7.16344 24.8366 0 16 0C7.16344 0 0 7.16344 0 16C0 24.8366 7.16344 32 16 32Z" fill="white" />
  <path d="M10.2116 20.8945C8.96364 20.8945 7.96697 20.7688 7.22164 20.5175C6.47631 20.2661 5.93897 19.9195 5.60964 19.4775C5.28031 19.0355 5.11564 18.5328 5.11564 17.9695C5.11564 17.5621 5.16764 17.1461 5.27164 16.7215C5.37564 16.2881 5.47531 15.9068 5.57064 15.5775L7.19564 15.9545C7.13497 16.1971 7.07431 16.4571 7.01364 16.7345C6.96164 17.0031 6.93564 17.2415 6.93564 17.4495C6.93564 17.7788 7.04831 18.0648 7.27364 18.3075C7.50764 18.5501 7.88897 18.7408 8.41764 18.8795C8.94631 19.0095 9.65697 19.0745 10.5496 19.0745C11.373 19.0831 12.036 19.0615 12.5386 19.0095C13.05 18.9488 13.4356 18.8405 13.6956 18.6845C13.9643 18.5198 14.1376 18.2901 14.2156 17.9955C14.3023 17.6921 14.3326 17.3065 14.3066 16.8385L14.0206 11.1055H15.8406L16.1266 16.9295C16.17 17.7268 16.1136 18.3811 15.9576 18.8925C15.8016 19.4038 15.507 19.8068 15.0736 20.1015C14.6403 20.3875 14.0293 20.5911 13.2406 20.7125C12.452 20.8338 11.4423 20.8945 10.2116 20.8945ZM9.58764 17.8135L9.24964 16.5265C9.70031 16.4138 10.034 16.3141 10.2506 16.2275C10.4673 16.1408 10.5756 16.0498 10.5756 15.9545C10.5756 15.8591 10.5106 15.7465 10.3806 15.6165C10.2593 15.4865 10.1336 15.3348 10.0036 15.1615C9.88231 14.9881 9.82164 14.7845 9.82164 14.5505C9.82164 14.2298 9.96031 13.9265 10.2376 13.6405C10.5236 13.3545 11.0046 13.0771 11.6806 12.8085L12.2396 13.9655C11.8756 14.1128 11.6286 14.2428 11.4986 14.3555C11.3773 14.4595 11.3166 14.5591 11.3166 14.6545C11.3166 14.7671 11.3773 14.8971 11.4986 15.0445C11.6286 15.1831 11.7586 15.3478 11.8886 15.5385C12.0186 15.7291 12.0836 15.9415 12.0836 16.1755C12.0836 16.3661 12.0273 16.5568 11.9146 16.7475C11.8106 16.9381 11.581 17.1245 11.2256 17.3065C10.8703 17.4885 10.3243 17.6575 9.58764 17.8135Z" fill="black" />
  <path d="M18.7326 20.7415C18.4279 20.7415 18.1663 20.6338 17.9478 20.4183C17.7323 20.1998 17.6246 19.9382 17.6246 19.6335C17.6246 19.3319 17.7323 19.0734 17.9478 18.858C18.1663 18.6425 18.4279 18.5348 18.7326 18.5348C19.028 18.5348 19.2866 18.6425 19.5081 18.858C19.7297 19.0734 19.8405 19.3319 19.8405 19.6335C19.8405 19.8367 19.7882 20.0229 19.6836 20.1921C19.582 20.3583 19.4481 20.4922 19.2819 20.5938C19.1157 20.6923 18.9326 20.7415 18.7326 20.7415Z" fill="black" />
  <path d="M21.1253 20.1015L21.7623 18.4505C22.3777 18.7278 22.98 18.8665 23.5693 18.8665C24.488 18.8665 24.9473 18.6195 24.9473 18.1255C24.9473 17.9781 24.8997 17.7745 24.8043 17.5145C24.7177 17.2545 24.5573 16.9165 24.3233 16.5005C24.0893 16.0758 23.747 15.5515 23.2963 14.9275L24.8433 13.9005C25.4587 14.7931 25.9527 15.6381 26.3253 16.4355C26.698 17.2328 26.8843 17.9045 26.8843 18.4505C26.8843 19.1178 26.6157 19.6595 26.0783 20.0755C25.5497 20.4915 24.7783 20.6995 23.7643 20.6995C23.513 20.6995 23.227 20.6778 22.9063 20.6345C22.5943 20.5911 22.2823 20.5261 21.9703 20.4395C21.6583 20.3528 21.3767 20.2401 21.1253 20.1015Z" fill="black" />
</svg>