<svg width="32" height="33" viewBox="0 0 32 33" fill="none" xmlns="http://www.w3.org/2000/svg">
  <g clip-path="url(#clip0_1869_120)">
    <path d="M16 32.1367C24.8366 32.1367 32 24.9733 32 16.1367C32 7.30016 24.8366 0.136719 16 0.136719C7.16344 0.136719 0 7.30016 0 16.1367C0 24.9733 7.16344 32.1367 16 32.1367Z" fill="white" />
    <path d="M6.46516 18.8732L7.10216 17.2222C7.71749 17.4995 8.31982 17.6382 8.90916 17.6382C9.82782 17.6382 10.2872 17.3912 10.2872 16.8972C10.2872 16.7499 10.2395 16.5462 10.1442 16.2862C10.0575 16.0262 9.89716 15.6882 9.66316 15.2722C9.42916 14.8475 9.08682 14.3232 8.63616 13.6992L10.1832 12.6722C10.7985 13.5649 11.2925 14.4099 11.6652 15.2072C12.0378 16.0045 12.2242 16.6762 12.2242 17.2222C12.2242 17.8895 11.9555 18.4312 11.4182 18.8472C10.8895 19.2632 10.1182 19.4712 9.10416 19.4712C8.85282 19.4712 8.56682 19.4495 8.24616 19.4062C7.93416 19.3629 7.62216 19.2979 7.31016 19.2112C6.99816 19.1245 6.71649 19.0119 6.46516 18.8732Z" fill="black" />
    <path d="M14.6603 19.5132C14.3556 19.5132 14.094 19.4055 13.8755 19.1901C13.66 18.9716 13.5523 18.71 13.5523 18.4053C13.5523 18.1037 13.66 17.8451 13.8755 17.6297C14.094 17.4143 14.3556 17.3066 14.6603 17.3066C14.9557 17.3066 15.2143 17.4143 15.4358 17.6297C15.6574 17.8451 15.7682 18.1037 15.7682 18.4053C15.7682 18.6084 15.7159 18.7946 15.6113 18.9639C15.5097 19.1301 15.3758 19.2639 15.2096 19.3655C15.0434 19.464 14.8603 19.5132 14.6603 19.5132Z" fill="black" />
    <path d="M16.936 19.0292C16.936 18.7345 16.975 18.3575 17.053 17.8982C17.1397 17.4389 17.326 16.8929 17.612 16.2602L19.211 16.8192C19.0637 17.2265 18.951 17.5775 18.873 17.8722C18.795 18.1582 18.756 18.4399 18.756 18.7172C18.756 19.3759 18.9684 19.8612 19.393 20.1732C19.8264 20.4939 20.3984 20.6542 21.109 20.6542C21.733 20.6542 22.227 20.5502 22.591 20.3422C22.955 20.1342 23.2194 19.8439 23.384 19.4712C23.5487 19.1072 23.6484 18.6825 23.683 18.1972C23.7264 17.7119 23.7394 17.1875 23.722 16.6242L23.475 9.8772H25.308L25.529 16.5072C25.5464 17.0705 25.5247 17.6339 25.464 18.1972C25.412 18.7605 25.295 19.2935 25.113 19.7962C24.9397 20.2989 24.684 20.7452 24.346 21.1352C24.008 21.5252 23.5704 21.8329 23.033 22.0582C22.5044 22.2835 21.85 22.3962 21.07 22.3962C20.316 22.3962 19.6227 22.2792 18.99 22.0452C18.366 21.8112 17.8677 21.4429 17.495 20.9402C17.1224 20.4462 16.936 19.8092 16.936 19.0292Z" fill="black" />
  </g>
  <defs>
    <clipPath id="clip0_1869_120">
      <rect width="32" height="32" fill="white" transform="translate(0 0.136719)" />
    </clipPath>
  </defs>
</svg>
