<svg width="32" height="33" viewBox="0 0 32 33" fill="none" xmlns="http://www.w3.org/2000/svg">
  <g clip-path="url(#clip0_1869_129)">
    <path d="M16 32.1538C24.8366 32.1538 32 24.9904 32 16.1538C32 7.31725 24.8366 0.153809 16 0.153809C7.16344 0.153809 0 7.31725 0 16.1538C0 24.9904 7.16344 32.1538 16 32.1538Z" fill="white" />
    <path d="M20.64 12.1037V10.3337H11.36V12.1037H14.96V15.2137L13.24 15.9037V17.0637L14.96 16.3837V17.5937L13.24 18.2937V19.4437L14.96 18.7737V21.9737H17.05V17.9437L18.78 17.2637V16.0637L17.05 16.7537V15.5637L18.78 14.8737V13.6737L17.05 14.3737V12.1037H20.64Z" fill="black" />
  </g>
  <defs>
    <clipPath id="clip0_1869_129">
      <rect width="32" height="32" fill="white" transform="translate(0 0.153809)" />
    </clipPath>
  </defs>
</svg>
