<svg width="32" height="32" viewBox="0 0 32 32" fill="none" xmlns="http://www.w3.org/2000/svg">
    <path d="M16 32C24.8366 32 32 24.8366 32 16C32 7.16344 24.8366 0 16 0C7.16344 0 0 7.16344 0 16C0 24.8366 7.16344 32 16 32Z" fill="white"/>
    <path d="M23.2441 15.4602V14.0398H21.873V8.72729H19.6934V14.0398H15.8418L12.1641 8.72729H10.127V14.0398H8.75586V15.4602H10.127V17.1082H8.75586V18.5286H10.127V23.2727H12.3282V18.5286H16.5616L19.8497 23.2727H21.8731V18.5286H23.2442V17.1082H21.873V15.4602H23.2441ZM12.3281 12.6052H12.4561L13.4503 14.0398H12.3281V12.6052ZM12.3281 17.1081V15.4602H14.4348L15.577 17.1082L12.3281 17.1081ZM19.6934 19.4089H19.5586L18.9492 18.5286H19.6934V19.4089ZM19.6934 17.1081H17.9658L16.825 15.4602H19.6934L19.6934 17.1081Z" fill="black"/>
</svg>
