<svg width="32" height="32" viewBox="0 0 32 32" fill="none" xmlns="http://www.w3.org/2000/svg">
    <path d="M16 32C24.8366 32 32 24.8366 32 16C32 7.16344 24.8366 0 16 0C7.16344 0 0 7.16344 0 16C0 24.8366 7.16344 32 16 32Z" fill="white"/>
    <path d="M11.208 11.2727V20.7273H9.48145L5.36816 14.7766H5.29883V20.7273H3.2998V11.2727H5.05469L9.13575 17.219H9.21875V11.2727H11.208Z" fill="black"/>
    <path d="M12.7539 20.7273V19.5408L17.4727 12.9206H12.7451V11.2727H19.9834V12.4592L15.2607 19.0793H19.9932V20.7273H12.7539Z" fill="black"/>
    <path d="M26.6543 13.9919C26.6436 13.8213 26.5955 13.6551 26.5135 13.5051C26.4315 13.3551 26.3175 13.2249 26.1797 13.1238C25.8424 12.9012 25.4426 12.7929 25.0391 12.8147C24.7575 12.807 24.4771 12.8533 24.2129 12.9509C24.0097 13.0259 23.8315 13.1561 23.6983 13.3269C23.5805 13.484 23.518 13.6756 23.5205 13.8719C23.5103 14.0273 23.5481 14.1821 23.6289 14.3152C23.7121 14.4462 23.8231 14.5573 23.9541 14.6404C24.1047 14.7372 24.2659 14.8161 24.4346 14.8758C24.6244 14.9446 24.8185 15.0009 25.0156 15.0442L25.8652 15.2473C26.2551 15.3327 26.6355 15.4565 27.001 15.617C27.327 15.7589 27.6291 15.9504 27.8965 16.1848C28.1457 16.4058 28.3463 16.6762 28.4853 16.9788C28.6302 17.309 28.7034 17.6662 28.7002 18.0267C28.7098 18.561 28.5558 19.0854 28.2588 19.5296C27.944 19.9718 27.5078 20.3133 27.0029 20.5125C26.3751 20.76 25.7039 20.8786 25.0293 20.8612C24.349 20.8762 23.6723 20.7571 23.0381 20.5106C22.5047 20.3018 22.0452 19.9395 21.7178 19.4696C21.3875 18.9607 21.2146 18.3657 21.2207 17.759H23.1553C23.1657 18.0443 23.2613 18.32 23.4297 18.5505C23.5984 18.7665 23.824 18.9312 24.0811 19.0261C24.3771 19.1363 24.6911 19.1903 25.0069 19.1853C25.3081 19.1915 25.6078 19.1415 25.8907 19.0378C26.1186 18.9554 26.3202 18.8135 26.4747 18.6267C26.6119 18.4554 26.6855 18.2417 26.6827 18.0222C26.6886 17.8266 26.6218 17.6357 26.4952 17.4865C26.3444 17.3236 26.1583 17.1973 25.9512 17.1174C25.6676 17.0014 25.3749 16.9086 25.0762 16.8401L24.0469 16.5818C23.3521 16.4384 22.7034 16.126 22.1582 15.6721C21.9276 15.4624 21.7463 15.2042 21.6274 14.916C21.5085 14.6279 21.455 14.3169 21.4707 14.0056C21.4566 13.4688 21.6177 12.9421 21.9297 12.5051C22.2574 12.0626 22.6984 11.7167 23.2061 11.5036C23.7895 11.2551 24.4187 11.1323 25.0528 11.1433C25.6849 11.1292 26.3125 11.2521 26.8926 11.5036C27.3859 11.7176 27.8102 12.0643 28.1182 12.5051C28.4141 12.9444 28.5715 13.4623 28.5704 13.9919L26.6543 13.9919ZM24.4385 21.9089L24.5498 10.0911H25.6387L25.5284 21.9089H24.4385Z" fill="black"/>
</svg>
