<svg width="32" height="32" viewBox="0 0 32 32" fill="none" xmlns="http://www.w3.org/2000/svg">
    <path d="M16 32C24.8366 32 32 24.8366 32 16C32 7.16344 24.8366 0 16 0C7.16344 0 0 7.16344 0 16C0 24.8366 7.16344 32 16 32Z" fill="white"/>
    <path d="M13.6386 13.5026C13.6279 13.332 13.5798 13.1658 13.4978 13.0158C13.4158 12.8658 13.3018 12.7356 13.164 12.6345C12.8267 12.4119 12.4269 12.3036 12.0234 12.3254C11.7418 12.3177 11.4614 12.364 11.1972 12.4616C10.994 12.5366 10.8158 12.6668 10.6826 12.8376C10.5648 12.9946 10.5023 13.1863 10.5048 13.3825C10.4946 13.538 10.5324 13.6928 10.6132 13.8259C10.6964 13.9569 10.8074 14.068 10.9384 14.1511C11.089 14.2478 11.2502 14.3268 11.4189 14.3864C11.6087 14.4553 11.8028 14.5115 11.9999 14.5549L12.8495 14.758C13.2394 14.8434 13.6198 14.9672 13.9853 15.1277C14.3113 15.2695 14.6134 15.4611 14.8808 15.6955C15.13 15.9165 15.3305 16.1868 15.4696 16.4895C15.6145 16.8196 15.6877 17.1768 15.6845 17.5373C15.6941 18.0716 15.5401 18.596 15.2431 19.0403C14.9283 19.4825 14.4921 19.8239 13.9872 20.0232C13.3594 20.2706 12.6882 20.3892 12.0136 20.3718C11.3333 20.3869 10.6566 20.2677 10.0224 20.0212C9.48901 19.8124 9.02954 19.4501 8.70206 18.9802C8.37182 18.4713 8.19893 17.8764 8.20499 17.2698H10.1396C10.15 17.5551 10.2456 17.8307 10.414 18.0613C10.5827 18.2773 10.8082 18.442 11.0653 18.5369C11.3613 18.647 11.6753 18.701 11.9911 18.696C12.2923 18.7023 12.5921 18.6523 12.8749 18.5486C13.1028 18.4662 13.3045 18.3242 13.4589 18.1374C13.5962 17.9661 13.6697 17.7525 13.6669 17.533C13.6729 17.3373 13.6061 17.1465 13.4794 16.9973C13.3286 16.8344 13.1426 16.7081 12.9355 16.6282C12.6518 16.5121 12.3592 16.4194 12.0605 16.3508L11.0312 16.0925C10.3364 15.9492 9.68768 15.6368 9.1425 15.1829C8.91183 14.9732 8.73053 14.715 8.61165 14.4268C8.49277 14.1386 8.43927 13.8277 8.455 13.5164C8.44082 12.9796 8.60196 12.4528 8.914 12.0159C9.24171 11.5734 9.68263 11.2274 10.1904 11.0144C10.7738 10.7658 11.403 10.6431 12.037 10.654C12.6691 10.64 13.2968 10.7629 13.8769 11.0144C14.3702 11.2284 14.7945 11.5751 15.1025 12.0159C15.3983 12.4552 15.5558 12.973 15.5546 13.5027L13.6386 13.5026Z" fill="black"/>
    <path d="M21.1035 10.3401L18.0566 21.6599H16.3623L19.4092 10.3401H21.1035Z" fill="black"/>
    <path d="M22.6875 20.3582C22.3938 20.3574 22.1124 20.2405 21.9047 20.0329C21.697 19.8253 21.5799 19.5439 21.5791 19.2502C21.5772 19.1055 21.6051 18.962 21.661 18.8285C21.717 18.695 21.7998 18.5745 21.9043 18.4744C22.111 18.2677 22.3913 18.1516 22.6836 18.1516C22.9759 18.1516 23.2562 18.2677 23.4629 18.4744C23.6394 18.6432 23.7531 18.8671 23.7854 19.1092C23.8177 19.3513 23.7667 19.5972 23.6406 19.8064C23.5403 19.9711 23.4016 20.1089 23.2363 20.2082C23.0707 20.3079 22.8807 20.3598 22.6875 20.3582Z" fill="black"/>
</svg>
