<svg width="32" height="32" viewBox="0 0 32 32" fill="none" xmlns="http://www.w3.org/2000/svg">
    <path d="M16 32C24.8366 32 32 24.8366 32 16C32 7.16344 24.8366 0 16 0C7.16344 0 0 7.16344 0 16C0 24.8366 7.16344 32 16 32Z" fill="white"/>
    <path d="M22.4912 11.426H20.7162C20.6621 11.275 20.6004 11.1269 20.5313 10.9822C20.1839 10.2819 19.6282 9.70634 18.9405 9.33472C18.0798 8.89706 17.121 8.68789 16.1563 8.72729H11.2988V11.426H9.50883V12.9885H11.2988V13.7556H9.50883V15.3181H11.2988V23.2727H13.0596V18.0169H16.1846C17.1449 18.0565 18.0985 17.8396 18.9473 17.3885C19.6347 16.999 20.1873 16.4093 20.5313 15.698C20.5905 15.575 20.638 15.4462 20.687 15.3181H22.4912V13.7556H21.0216C21.0311 13.6147 21.043 13.4749 21.043 13.3294C21.043 13.2128 21.0319 13.102 21.0258 12.9886H22.4912V11.426ZM13.0596 10.2898H16.1563C16.8017 10.2587 17.4445 10.3919 18.0244 10.677C18.3405 10.8599 18.6074 11.117 18.8021 11.426H13.0596V10.2898ZM18.0352 16.0461C17.4658 16.3449 16.8268 16.4858 16.1846 16.4543H13.0596V15.3181H18.7746C18.5861 15.6134 18.3333 15.8623 18.0352 16.0462V16.0461ZM19.3096 13.3293C19.3096 13.4793 19.285 13.6135 19.2726 13.7556H13.0596V12.9885H19.2794C19.2875 13.1035 19.3096 13.2088 19.3096 13.3294V13.3293Z" fill="black"/>
</svg>
