<svg width="32" height="32" viewBox="0 0 32 32" fill="none" xmlns="http://www.w3.org/2000/svg">
    <path d="M16 32C24.8366 32 32 24.8366 32 16C32 7.16344 24.8366 0 16 0C7.16344 0 0 7.16344 0 16C0 24.8366 7.16344 32 16 32Z" fill="white"/>
    <path d="M17.2568 17.5769H9.75V15.716H17.2285C17.7791 15.7357 18.3265 15.6249 18.8262 15.3928C19.2246 15.1999 19.5525 14.8869 19.7637 14.4978C19.9737 14.091 20.0788 13.6382 20.0693 13.1804C20.0774 12.7216 19.9724 12.2678 19.7637 11.8591C19.5546 11.4652 19.2302 11.1444 18.834 10.9397C18.3443 10.6983 17.8024 10.5824 17.2568 10.6023H14.1602V23.2727H11.9727V8.72727H17.2568C18.2142 8.6945 19.1647 8.8995 20.0234 9.32395C20.7252 9.68365 21.3056 10.2418 21.6924 10.929C22.0677 11.6168 22.2597 12.3896 22.25 13.1731C22.2619 13.9589 22.0673 14.7341 21.6856 15.4211C21.2941 16.1003 20.7108 16.6488 20.0088 16.9977C19.1515 17.4095 18.2074 17.6082 17.2568 17.5769ZM17.3633 18.7981V20.6662H9.75V18.7981H17.3633Z" fill="black"/>
</svg>
