<svg width="32" height="32" viewBox="0 0 32 32" fill="none" xmlns="http://www.w3.org/2000/svg">
    <path d="M16 32C24.8366 32 32 24.8366 32 16C32 7.16344 24.8366 0 16 0C7.16344 0 0 7.16344 0 16C0 24.8366 7.16344 32 16 32Z" fill="white"/>
    <path d="M12.2977 17.0459L17.0127 23.2727H14.4062L10.6951 18.3471L9.64062 19.4016V23.2727H7.5166V8.72729H9.6406V16.9802H9.8252L14.1719 12.3635H16.7139L12.2977 17.0459ZM24.0537 12.2146C23.872 12.2048 23.7138 12.2004 23.582 12.2004C22.9718 12.1916 22.3733 12.3687 21.8662 12.7083C21.3682 13.0389 20.9965 13.5281 20.8115 14.0964H20.6982V12.3635H18.6455V23.2727H20.7695V16.6106C20.7617 16.1713 20.8761 15.7385 21.0999 15.3604C21.3237 14.9824 21.6482 14.6739 22.0371 14.4695C22.4498 14.2536 22.9102 14.145 23.376 14.1536C23.5945 14.1535 23.8129 14.1689 24.0293 14.1995C24.182 14.2182 24.3336 14.2455 24.4834 14.281V12.2498C24.3799 12.2356 24.2363 12.2239 24.0537 12.2146H24.0537Z" fill="black"/>
</svg>
