<svg width="32" height="33" viewBox="0 0 32 33" fill="none" xmlns="http://www.w3.org/2000/svg">
  <g clip-path="url(#clip0_1870_213)">
    <path d="M16 32.1709C24.8366 32.1709 32 25.0075 32 16.1709C32 7.33434 24.8366 0.170898 16 0.170898C7.16344 0.170898 0 7.33434 0 16.1709C0 25.0075 7.16344 32.1709 16 32.1709Z" fill="white" />
    <path d="M8.45866 19.7588C7.30666 19.7588 6.38666 19.6428 5.69866 19.4108C5.01066 19.1788 4.51466 18.8588 4.21066 18.4508C3.90666 18.0428 3.75466 17.5788 3.75466 17.0588C3.75466 16.6828 3.80266 16.2988 3.89866 15.9068C3.99466 15.5068 4.08666 15.1548 4.17466 14.8508L5.67466 15.1988C5.61866 15.4228 5.56266 15.6628 5.50666 15.9188C5.45866 16.1668 5.43466 16.3868 5.43466 16.5788C5.43466 16.8828 5.53866 17.1468 5.74666 17.3708C5.96266 17.5948 6.31466 17.7708 6.80266 17.8988C7.29066 18.0188 7.94666 18.0788 8.77066 18.0788V18.1148L8.78266 18.0788C10.3347 18.0788 11.4867 17.9908 12.2387 17.8148C12.9987 17.6388 13.3787 17.3308 13.3787 16.8908C13.3787 16.6028 13.3307 16.2588 13.2347 15.8588C13.1387 15.4588 13.0147 15.0468 12.8627 14.6228L14.4347 14.1668C14.5387 14.4388 14.6387 14.7388 14.7347 15.0668C14.8307 15.3868 14.9067 15.7108 14.9627 16.0388C15.0267 16.3588 15.0587 16.6588 15.0587 16.9388C15.0587 17.4348 14.9507 17.8628 14.7347 18.2228C14.5187 18.5748 14.1587 18.8668 13.6547 19.0988C13.1587 19.3228 12.4867 19.4868 11.6387 19.5908C10.7907 19.7028 9.73466 19.7588 8.47066 19.7588V19.7468L8.45866 19.7588ZM8.36266 14.2628C8.13066 14.2628 7.93066 14.1828 7.76266 14.0228C7.60266 13.8548 7.52266 13.6588 7.52266 13.4348C7.52266 13.2028 7.60266 13.0028 7.76266 12.8348C7.93066 12.6668 8.13066 12.5828 8.36266 12.5828C8.58666 12.5828 8.77866 12.6668 8.93866 12.8348C9.09866 13.0028 9.17866 13.2028 9.17866 13.4348C9.17866 13.6588 9.09866 13.8548 8.93866 14.0228C8.77866 14.1828 8.58666 14.2628 8.36266 14.2628ZM10.4387 14.2748C10.2067 14.2748 10.0067 14.1948 9.83866 14.0348C9.67866 13.8748 9.59866 13.6788 9.59866 13.4468C9.59866 13.2148 9.67866 13.0148 9.83866 12.8468C10.0067 12.6788 10.2067 12.5948 10.4387 12.5948C10.6627 12.5948 10.8547 12.6788 11.0147 12.8468C11.1747 13.0148 11.2547 13.2148 11.2547 13.4468C11.2547 13.6788 11.1747 13.8748 11.0147 14.0348C10.8547 14.1948 10.6627 14.2748 10.4387 14.2748Z" fill="black" />
    <path d="M17.4491 19.6176C17.1679 19.6176 16.9264 19.5181 16.7247 19.3193C16.5258 19.1176 16.4264 18.8761 16.4264 18.5948C16.4264 18.3164 16.5258 18.0778 16.7247 17.8789C16.9264 17.6801 17.1679 17.5806 17.4491 17.5806C17.7219 17.5806 17.9605 17.6801 18.1651 17.8789C18.3696 18.0778 18.4719 18.3164 18.4719 18.5948C18.4719 18.7823 18.4236 18.9542 18.327 19.1105C18.2332 19.2639 18.1097 19.3874 17.9562 19.4812C17.8028 19.5721 17.6338 19.6176 17.4491 19.6176Z" fill="black" />
    <path d="M19.6578 19.0268L20.2458 17.5028C20.8138 17.7588 21.3698 17.8868 21.9138 17.8868C22.7618 17.8868 23.1858 17.6588 23.1858 17.2028C23.1858 17.0668 23.1418 16.8788 23.0538 16.6388C22.9738 16.3988 22.8258 16.0868 22.6098 15.7028C22.3938 15.3108 22.0778 14.8268 21.6618 14.2508L23.0898 13.3028C23.6578 14.1268 24.1138 14.9068 24.4578 15.6428C24.8018 16.3788 24.9738 16.9988 24.9738 17.5028C24.9738 18.1188 24.7258 18.6188 24.2298 19.0028C23.7418 19.3868 23.0299 19.5788 22.0938 19.5788C21.8618 19.5788 21.5978 19.5588 21.3018 19.5188C21.0138 19.4788 20.7258 19.4188 20.4378 19.3388C20.1498 19.2588 19.8898 19.1548 19.6578 19.0268Z" fill="black" />
    <path d="M27.2226 19.6176C26.9413 19.6176 26.6999 19.5181 26.4981 19.3193C26.2993 19.1176 26.1999 18.8761 26.1999 18.5948C26.1999 18.3164 26.2993 18.0778 26.4981 17.8789C26.6999 17.6801 26.9413 17.5806 27.2226 17.5806C27.4953 17.5806 27.7339 17.6801 27.9385 17.8789C28.143 18.0778 28.2453 18.3164 28.2453 18.5948C28.2453 18.7823 28.197 18.9542 28.1004 19.1105C28.0067 19.2639 27.8831 19.3874 27.7297 19.4812C27.5763 19.5721 27.4072 19.6176 27.2226 19.6176Z" fill="black" />
  </g>
  <defs>
    <clipPath id="clip0_1870_213">
      <rect width="32" height="32" fill="white" transform="translate(0 0.170898)" />
    </clipPath>
  </defs>
</svg>
