<svg width="32" height="32" viewBox="0 0 32 32" fill="none" xmlns="http://www.w3.org/2000/svg">
    <path d="M16 32C24.8366 32 32 24.8366 32 16C32 7.16344 24.8366 0 16 0C7.16344 0 0 7.16344 0 16C0 24.8366 7.16344 32 16 32Z" fill="white"/>
    <path d="M17.8892 9.74975V11.6321L10.9858 14.4373V12.5623L17.8892 9.74975ZM17.8892 13.0525V14.9202L10.9858 17.7258V15.8508L17.8892 13.0525ZM15.105 8.62769V23.1731L12.9175 23.2512V8.62769H15.105ZM18.8052 16.6672H21.0142C21.0572 17.9477 20.8018 19.2207 20.2681 20.3855C19.819 21.3262 19.0928 22.1069 18.187 22.6228C17.2305 23.1388 16.1563 23.3971 15.0698 23.3723C14.6626 23.3723 14.2648 23.3616 13.8764 23.3401C13.4878 23.3186 13.1681 23.289 12.9174 23.2512L15.0698 21.4402C15.7377 21.4517 16.3974 21.2927 16.9868 20.9783C17.5834 20.6341 18.0512 20.1042 18.3188 19.4695C18.6784 18.5807 18.8443 17.6253 18.8052 16.6672H18.8052Z" fill="black"/>
</svg>
