<svg width="32" height="33" viewBox="0 0 32 33" fill="none" xmlns="http://www.w3.org/2000/svg">
  <g clip-path="url(#clip0_1871_19)">
    <path d="M16 32.1709C24.8366 32.1709 32 25.0075 32 16.1709C32 7.33434 24.8366 0.170898 16 0.170898C7.16344 0.170898 0 7.33434 0 16.1709C0 25.0075 7.16344 32.1709 16 32.1709Z" fill="white" />
    <path d="M4.18238 12.8724V11.4366H11.7257V12.8724H8.80347V20.8912H7.10461V12.8724H4.18238Z" fill="black" />
    <path d="M18.318 14.0357C18.2749 13.6325 18.0934 13.3186 17.7733 13.094C17.4563 12.8693 17.0439 12.7569 16.5361 12.7569C16.1791 12.7569 15.8728 12.8108 15.6174 12.9185C15.3619 13.0262 15.1665 13.1724 15.0311 13.3571C14.8957 13.5417 14.8264 13.7526 14.8234 13.9895C14.8234 14.1865 14.868 14.3573 14.9572 14.502C15.0496 14.6466 15.1742 14.7697 15.3312 14.8713C15.4881 14.9698 15.662 15.0529 15.8528 15.1206C16.0437 15.1883 16.236 15.2452 16.4299 15.2914L17.3163 15.513C17.6733 15.5961 18.0164 15.7084 18.3457 15.85C18.6781 15.9916 18.9751 16.1701 19.2367 16.3855C19.5014 16.6009 19.7107 16.861 19.8646 17.1657C20.0184 17.4704 20.0954 17.8274 20.0954 18.2367C20.0954 18.7907 19.9538 19.2785 19.6707 19.7001C19.3875 20.1187 18.9782 20.4465 18.4427 20.6834C17.9102 20.9173 17.2655 21.0343 16.5084 21.0343C15.7728 21.0343 15.1342 20.9204 14.5925 20.6927C14.0539 20.4649 13.6323 20.1325 13.3276 19.6955C13.026 19.2585 12.8629 18.7261 12.8383 18.0982H14.5233C14.5479 18.4275 14.6495 18.7014 14.828 18.9199C15.0065 19.1385 15.2388 19.3016 15.5251 19.4093C15.8144 19.517 16.1375 19.5709 16.4945 19.5709C16.8669 19.5709 17.1932 19.5155 17.4732 19.4047C17.7564 19.2908 17.978 19.1338 18.138 18.9338C18.298 18.7307 18.3796 18.4937 18.3827 18.2229C18.3796 17.9766 18.3073 17.7735 18.1657 17.6135C18.0241 17.4504 17.8256 17.3149 17.5702 17.2072C17.3178 17.0964 17.0223 16.998 16.6838 16.9118L15.6082 16.6348C14.8295 16.4347 14.214 16.1316 13.7616 15.7253C13.3122 15.316 13.0876 14.7728 13.0876 14.0957C13.0876 13.5387 13.2384 13.0509 13.54 12.6323C13.8447 12.2137 14.2586 11.889 14.7818 11.6582C15.305 11.4243 15.8975 11.3074 16.5592 11.3074C17.2301 11.3074 17.8179 11.4243 18.3227 11.6582C18.8305 11.889 19.229 12.2107 19.5183 12.6231C19.8076 13.0324 19.9569 13.5033 19.9661 14.0357H18.318Z" fill="black" />
    <path d="M23.2196 16.7364V20.8912H21.5484V11.4366H23.1826V15.0052H23.2657C23.4319 14.6051 23.6889 14.2896 24.0367 14.0588C24.3875 13.8249 24.8338 13.7079 25.3755 13.7079C25.8679 13.7079 26.2972 13.811 26.6635 14.0172C27.0297 14.2234 27.3129 14.5251 27.5129 14.9221C27.716 15.3191 27.8176 15.8038 27.8176 16.3763V20.8912H26.1464V16.6348C26.1464 16.1578 26.0233 15.7869 25.7771 15.5222C25.534 15.2545 25.1924 15.1206 24.7522 15.1206C24.4568 15.1206 24.1921 15.1852 23.9582 15.3145C23.7274 15.4407 23.5458 15.6238 23.4135 15.8638C23.2842 16.1039 23.2196 16.3947 23.2196 16.7364Z" fill="black" />
  </g>
  <defs>
    <clipPath id="clip0_1871_19">
      <rect width="32" height="32" fill="white" transform="translate(0 0.170898)" />
    </clipPath>
  </defs>
</svg>
