<svg width="32" height="32" viewBox="0 0 32 32" fill="none" xmlns="http://www.w3.org/2000/svg">
    <path d="M16 32C24.8366 32 32 24.8366 32 16C32 7.16344 24.8366 0 16 0C7.16344 0 0 7.16344 0 16C0 24.8366 7.16344 32 16 32Z" fill="white"/>
    <path d="M21.3726 15.2681H10.6274V13.5425H21.3726V15.2681ZM21.3726 18.2583H10.6274V16.5537H21.3726V18.2583ZM16.0034 23.4717C14.8063 23.5429 13.6179 23.2293 12.6118 22.5767C12.2151 22.2844 11.8964 21.8988 11.684 21.4541C11.4716 21.0094 11.372 20.5192 11.394 20.0269C11.4001 19.7304 11.4528 19.4368 11.5503 19.1568C11.6493 18.8662 11.7933 18.593 11.9771 18.3472C12.1568 18.1033 12.3779 17.893 12.6304 17.7256L14.6538 18.0806C14.3436 18.3222 14.0871 18.6259 13.9009 18.9722C13.7499 19.2758 13.6698 19.6097 13.6665 19.9488C13.661 20.1827 13.7145 20.4143 13.822 20.6222C13.9296 20.83 14.0876 21.0075 14.2817 21.1382C14.7979 21.4548 15.399 21.6049 16.0034 21.5679C16.6113 21.5932 17.2138 21.4441 17.7398 21.1382C17.9705 20.9814 18.156 20.7665 18.2775 20.5153C18.3991 20.2641 18.4524 19.9854 18.4321 19.7071H20.7407C20.7582 20.4593 20.5519 21.1997 20.148 21.8345C19.7484 22.4049 19.1811 22.8367 18.5249 23.0699C17.7158 23.3558 16.8613 23.492 16.0034 23.4717ZM16.0601 10.4033C15.4594 10.3513 14.8615 10.5303 14.3882 10.9038C14.209 11.0795 14.0682 11.2905 13.9745 11.5234C13.8809 11.7562 13.8366 12.0059 13.8442 12.2568H11.5435C11.5524 11.5941 11.7216 10.9434 12.0366 10.3603C12.37 9.77532 12.8762 9.30783 13.4858 9.022C14.2899 8.66242 15.1662 8.49348 16.0464 8.52835C16.8492 8.50743 17.6486 8.64119 18.4009 8.92235C18.9974 9.14578 19.5115 9.54594 19.8745 10.0693C20.2224 10.6131 20.398 11.2493 20.3784 11.8945C20.3784 12.1824 20.3343 12.4686 20.2476 12.7432C20.1588 13.0223 20.0295 13.2868 19.8638 13.5283C19.6927 13.7775 19.4884 14.0021 19.2564 14.1958L17.3599 13.6558C17.5825 13.4037 17.7812 13.1316 17.9536 12.8428C18.1146 12.5738 18.1968 12.2651 18.1909 11.9517C18.2001 11.7352 18.1567 11.5198 18.0646 11.3237C17.9724 11.1276 17.8341 10.9568 17.6616 10.8257C17.1895 10.5109 16.626 10.3623 16.0601 10.4033Z" fill="black"/>
</svg>
