<svg width="32" height="32" viewBox="0 0 32 32" fill="none" xmlns="http://www.w3.org/2000/svg">
    <path d="M16 32C24.8366 32 32 24.8366 32 16C32 7.16344 24.8366 0 16 0C7.16344 0 0 7.16344 0 16C0 24.8366 7.16344 32 16 32Z" fill="white"/>
    <path d="M9.57808 11.2705H11.5771V17.4106C11.5916 18.0486 11.4209 18.6771 11.0859 19.2202C10.7506 19.7435 10.2748 20.1618 9.71288 20.4272C9.0702 20.7269 8.36713 20.8746 7.65818 20.8588C6.94793 20.8751 6.24348 20.7274 5.59959 20.4272C5.03767 20.1625 4.56227 19.744 4.2285 19.2202C3.89418 18.6768 3.72394 18.0485 3.73826 17.4106V11.2705H5.73727V17.2397C5.73091 17.5751 5.8131 17.9063 5.97555 18.1997C6.13246 18.479 6.36546 18.7079 6.64743 18.8599C6.95815 19.0254 7.30622 19.1081 7.65817 19.1001C8.01109 19.1085 8.36023 19.0258 8.67184 18.8599C8.95236 18.707 9.18417 18.4782 9.34079 18.1997C9.50248 17.906 9.5843 17.575 9.57808 17.2397V11.2705Z" fill="black"/>
    <path d="M18.3495 13.9898C18.3388 13.8191 18.2907 13.653 18.2087 13.503C18.1267 13.3529 18.0127 13.2228 17.8749 13.1216C17.5376 12.8991 17.1378 12.7907 16.7343 12.8125C16.4527 12.8049 16.1723 12.8511 15.9081 12.9488C15.7049 13.0237 15.5266 13.1539 15.3935 13.3248C15.2757 13.4818 15.2132 13.6734 15.2157 13.8697C15.2055 14.0251 15.2433 14.1799 15.3241 14.313C15.4073 14.4441 15.5183 14.5551 15.6493 14.6382C15.7999 14.735 15.9611 14.8139 16.1298 14.8736C16.3196 14.9424 16.5137 14.9987 16.7109 15.042L17.5605 15.2452C17.9503 15.3305 18.3308 15.4543 18.6962 15.6148C19.0223 15.7567 19.3243 15.9482 19.5917 16.1827C19.8409 16.4036 20.0415 16.674 20.1806 16.9766C20.3254 17.3068 20.3987 17.6639 20.3954 18.0245C20.405 18.5587 20.251 19.0832 19.954 19.5274C19.6393 19.9696 19.203 20.311 18.6982 20.5103C18.0703 20.7578 17.3991 20.8763 16.7245 20.8589C16.0442 20.874 15.3676 20.7549 14.7333 20.5083C14.2 20.2995 13.7405 19.9373 13.413 19.4673C13.0828 18.9584 12.9099 18.3635 12.9159 17.7569H14.8505C14.8609 18.0422 14.9565 18.3179 15.1249 18.5484C15.2936 18.7644 15.5192 18.9291 15.7763 19.024C16.0723 19.1342 16.3863 19.1882 16.7021 19.1832C17.0033 19.1894 17.303 19.1394 17.5859 19.0357C17.8138 18.9533 18.0154 18.8113 18.1699 18.6246C18.3071 18.4532 18.3806 18.2396 18.3779 18.0201C18.3838 17.8245 18.317 17.6336 18.1904 17.4844C18.0396 17.3215 17.8535 17.1952 17.6464 17.1153C17.3628 16.9992 17.0701 16.9065 16.7714 16.8379L15.7421 16.5796C15.0473 16.4363 14.3986 16.1239 13.8534 15.67C13.6228 15.4603 13.4415 15.2021 13.3226 14.9139C13.2037 14.6257 13.1502 14.3148 13.1659 14.0035C13.1518 13.4667 13.3129 12.94 13.6249 12.503C13.9526 12.0605 14.3936 11.7145 14.9013 11.5015C15.4847 11.253 16.1139 11.1302 16.748 11.1412C17.3801 11.1271 18.0077 11.25 18.5878 11.5015C19.0811 11.7155 19.5054 12.0622 19.8134 12.503C20.1093 12.9423 20.2667 13.4602 20.2656 13.9898L18.3495 13.9898Z" fill="black"/>
    <path d="M23.6631 16.6255V20.7251H21.6973V11.2705H23.6084V14.8852H23.6914C23.8387 14.4827 24.1103 14.1374 24.4668 13.8994C24.8689 13.6486 25.337 13.5241 25.8105 13.542C26.2615 13.5316 26.707 13.6424 27.1005 13.8628C27.4701 14.0787 27.7685 14.3979 27.9589 14.7812C28.174 15.226 28.2778 15.7162 28.2617 16.21V20.7251H26.2949V16.561C26.3203 16.1912 26.202 15.8258 25.9648 15.541C25.8443 15.4167 25.6985 15.3198 25.5372 15.2569C25.376 15.1939 25.2031 15.1664 25.0302 15.1762C24.7832 15.1712 24.539 15.2298 24.3212 15.3467C24.1158 15.4615 23.9488 15.6342 23.8408 15.8432C23.7198 16.086 23.6588 16.3543 23.6631 16.6255V16.6255Z" fill="black"/>
</svg>
