<svg width="32" height="33" viewBox="0 0 32 33" fill="none" xmlns="http://www.w3.org/2000/svg">
  <g clip-path="url(#clip0_1874_22)">
    <path d="M16 32.1709C24.8366 32.1709 32 25.0075 32 16.1709C32 7.33434 24.8366 0.170898 16 0.170898C7.16344 0.170898 0 7.33434 0 16.1709C0 25.0075 7.16344 32.1709 16 32.1709Z" fill="white" />
    <path d="M11.0625 15.8467H9.60156C9.5599 15.6071 9.48307 15.3949 9.37109 15.21C9.25911 15.0225 9.11979 14.8636 8.95312 14.7334C8.78646 14.6032 8.59635 14.5055 8.38281 14.4404C8.17188 14.3727 7.94401 14.3389 7.69922 14.3389C7.26432 14.3389 6.87891 14.4482 6.54297 14.667C6.20703 14.8831 5.94401 15.2008 5.75391 15.6201C5.5638 16.0368 5.46875 16.5459 5.46875 17.1475C5.46875 17.7594 5.5638 18.2751 5.75391 18.6943C5.94661 19.111 6.20964 19.4261 6.54297 19.6396C6.87891 19.8506 7.26302 19.9561 7.69531 19.9561C7.9349 19.9561 8.15885 19.9248 8.36719 19.8623C8.57812 19.7972 8.76693 19.7021 8.93359 19.5771C9.10286 19.4521 9.24479 19.2985 9.35938 19.1162C9.47656 18.9339 9.55729 18.7256 9.60156 18.4912L11.0625 18.499C11.0078 18.8792 10.8893 19.236 10.707 19.5693C10.5273 19.9027 10.2917 20.1969 10 20.4521C9.70833 20.7048 9.36719 20.9027 8.97656 21.0459C8.58594 21.1865 8.15234 21.2568 7.67578 21.2568C6.97266 21.2568 6.34505 21.0941 5.79297 20.7686C5.24089 20.443 4.80599 19.973 4.48828 19.3584C4.17057 18.7438 4.01172 18.0068 4.01172 17.1475C4.01172 16.2855 4.17188 15.5485 4.49219 14.9365C4.8125 14.3219 5.2487 13.8519 5.80078 13.5264C6.35286 13.2008 6.97786 13.0381 7.67578 13.0381C8.12109 13.0381 8.53516 13.1006 8.91797 13.2256C9.30078 13.3506 9.64193 13.5342 9.94141 13.7764C10.2409 14.016 10.487 14.3102 10.6797 14.6592C10.875 15.0055 11.0026 15.4014 11.0625 15.8467Z" fill="black" />
    <path d="M13.1045 21.2568V20.0381H13.5615C13.7673 20.0381 13.9365 20.0081 14.0693 19.9482C14.2021 19.8883 14.3089 19.8024 14.3896 19.6904C14.473 19.5785 14.542 19.4482 14.5967 19.2998L14.7021 19.0303L11.8428 13.1475H13.3584L15.3506 17.4287L17.0732 13.1475H18.5654L15.8076 19.6709C15.68 19.9521 15.5329 20.2139 15.3662 20.4561C15.1995 20.6956 14.9821 20.8896 14.7139 21.0381C14.4482 21.1839 14.1019 21.2568 13.6748 21.2568H13.1045ZM15.96 11.085H17.0186C17.0186 11.5407 16.8532 11.9105 16.5225 12.1943C16.1943 12.4756 15.749 12.6162 15.1865 12.6162C14.6292 12.6162 14.1852 12.4756 13.8545 12.1943C13.5264 11.9105 13.3636 11.5407 13.3662 11.085H14.417C14.417 11.2725 14.4743 11.4404 14.5889 11.5889C14.7061 11.7347 14.9053 11.8076 15.1865 11.8076C15.4626 11.8076 15.6592 11.7347 15.7764 11.5889C15.8962 11.443 15.9574 11.2751 15.96 11.085Z" fill="black" />
    <path d="M19.5977 13.1475H21.3711L23.7461 18.9443H23.8398L26.2148 13.1475H27.9883V21.1475H26.5977V15.6514H26.5234L24.3125 21.124H23.2734L21.0625 15.6396H20.9883V21.1475H19.5977V13.1475Z" fill="black" />
  </g>
  <defs>
    <clipPath id="clip0_1874_22">
      <rect width="32" height="32" fill="white" transform="translate(0 0.170898)" />
    </clipPath>
  </defs>
</svg>
