<svg width="32" height="32" viewBox="0 0 32 32" fill="none" xmlns="http://www.w3.org/2000/svg">
    <path d="M16 32C24.8366 32 32 24.8366 32 16C32 7.16344 24.8366 0 16 0C7.16344 0 0 7.16344 0 16C0 24.8366 7.16344 32 16 32Z" fill="white"/>
    <path d="M14.8496 21.8484C14.0148 21.8618 13.1949 21.6256 12.4951 21.1702C11.7825 20.6904 11.2209 20.0179 10.876 19.2312C10.4623 18.2763 10.2623 17.2426 10.29 16.2024C10.2617 15.1624 10.4641 14.129 10.8828 13.1765C11.2317 12.3929 11.7972 11.7253 12.5127 11.2522C13.2138 10.804 14.0312 10.5717 14.8633 10.5842C15.4286 10.5602 15.9912 10.6761 16.501 10.9216C16.8739 11.1133 17.2028 11.3805 17.4668 11.7063C17.6636 11.9564 17.8427 12.2199 18.0029 12.4948H18.1309V7.09009H20.2539V21.6355H18.1807V19.9382H18.0029C17.8419 20.2183 17.6577 20.4844 17.4521 20.7336C17.1805 21.0578 16.846 21.3236 16.4687 21.5149C15.9642 21.7562 15.4084 21.8707 14.8496 21.8484V21.8484ZM20.0762 23.1052V24.9099H10.8369V23.1052H20.0762ZM15.3184 20.0373C15.8756 20.0543 16.4222 19.883 16.8701 19.551C17.313 19.2 17.6478 18.731 17.8359 18.198C18.0675 17.5513 18.1794 16.8678 18.166 16.1809C18.1794 15.5036 18.0685 14.8295 17.8389 14.1922C17.6525 13.6673 17.3201 13.2065 16.8809 12.864C16.427 12.5369 15.8775 12.3697 15.3184 12.3885C14.7445 12.3676 14.1806 12.5429 13.7197 12.8855C13.2782 13.2385 12.9449 13.7085 12.7578 14.242C12.5339 14.8635 12.4244 15.5204 12.4346 16.181C12.4244 16.851 12.5349 17.5174 12.7607 18.1482C12.9495 18.6898 13.2853 19.1681 13.7305 19.5296C14.1854 19.877 14.7463 20.0563 15.3184 20.0373V20.0373ZM15.1826 9.85278V8.38257H21.71V9.85278H15.1826Z" fill="black"/>
</svg>
