<svg width="32" height="33" viewBox="0 0 32 33" fill="none" xmlns="http://www.w3.org/2000/svg">
  <g clip-path="url(#clip0_1875_44)">
    <path d="M16 32.1709C24.8366 32.1709 32 25.0075 32 16.1709C32 7.33434 24.8366 0.170898 16 0.170898C7.16344 0.170898 0 7.33434 0 16.1709C0 25.0075 7.16344 32.1709 16 32.1709Z" fill="white" />
    <path d="M12.36 12.1709H10.71L8.94001 15.1009H8.87001L7.11001 12.1709H5.45001L7.95001 16.1709L5.42001 20.1709H7.09001L8.87001 17.2609H8.94001L10.72 20.1709H12.4L9.89001 16.1709L12.36 12.1709Z" fill="black" />
    <path d="M15.79 12.1709L12.98 20.1709H14.52L15.18 18.1709H18.18L18.84 20.1709H20.42L17.58 12.1709H15.79ZM15.57 17.0309L16.66 13.8109H16.72L17.8 17.0309H15.57Z" fill="black" />
    <path d="M26.58 13.3909V12.1709H21.46V20.1709H22.9V16.7709H26.23V15.5609H22.9V13.3909H26.58Z" fill="black" />
  </g>
  <defs>
    <clipPath id="clip0_1875_44">
      <rect width="32" height="32" fill="white" transform="translate(0 0.170898)" />
    </clipPath>
  </defs>
</svg>
