<svg width="32" height="33" viewBox="0 0 32 33" fill="none" xmlns="http://www.w3.org/2000/svg">
  <g clip-path="url(#clip0_1875_48)">
    <path d="M16 32.1709C24.8366 32.1709 32 25.0075 32 16.1709C32 7.33434 24.8366 0.170898 16 0.170898C7.16344 0.170898 0 7.33434 0 16.1709C0 25.0075 7.16344 32.1709 16 32.1709Z" fill="white" />
    <path d="M6.97706 12.1709L8.73878 15.1006H8.80128L10.5708 12.1709H12.2232L9.75831 16.1709L12.2622 20.1709H10.5825L8.80128 17.2607H8.73878L6.95753 20.1709H5.28565L7.813 16.1709L5.3169 12.1709H6.97706Z" fill="black" />
    <path d="M20.2192 16.1709C20.2192 17.0329 20.0578 17.7712 19.7349 18.3857C19.4146 18.9977 18.9771 19.4665 18.4224 19.792C17.8703 20.1175 17.244 20.2803 16.5435 20.2803C15.8429 20.2803 15.2153 20.1175 14.6607 19.792C14.1086 19.4639 13.6711 18.9938 13.3482 18.3818C13.0278 17.7673 12.8677 17.0303 12.8677 16.1709C12.8677 15.3089 13.0278 14.5719 13.3482 13.96C13.6711 13.3454 14.1086 12.8753 14.6607 12.5498C15.2153 12.2243 15.8429 12.0615 16.5435 12.0615C17.244 12.0615 17.8703 12.2243 18.4224 12.5498C18.9771 12.8753 19.4146 13.3454 19.7349 13.96C20.0578 14.5719 20.2192 15.3089 20.2192 16.1709ZM18.7622 16.1709C18.7622 15.5641 18.6672 15.0524 18.4771 14.6357C18.2896 14.2165 18.0291 13.9001 17.6958 13.6865C17.3625 13.4704 16.9784 13.3623 16.5435 13.3623C16.1086 13.3623 15.7245 13.4704 15.3911 13.6865C15.0578 13.9001 14.7961 14.2165 14.606 14.6357C14.4185 15.0524 14.3247 15.5641 14.3247 16.1709C14.3247 16.7777 14.4185 17.2907 14.606 17.71C14.7961 18.1266 15.0578 18.443 15.3911 18.6592C15.7245 18.8727 16.1086 18.9795 16.5435 18.9795C16.9784 18.9795 17.3625 18.8727 17.6958 18.6592C18.0291 18.443 18.2896 18.1266 18.4771 17.71C18.6672 17.2907 18.7622 16.7777 18.7622 16.1709Z" fill="black" />
    <path d="M21.5894 20.1709V12.1709H26.7144V13.3857H23.0386V15.5576H26.3628V16.7725H23.0386V20.1709H21.5894Z" fill="black" />
  </g>
  <defs>
    <clipPath id="clip0_1875_48">
      <rect width="32" height="32" fill="white" transform="translate(0 0.170898)" />
    </clipPath>
  </defs>
</svg>
