<svg fill="none" height="130" viewBox="0 0 802 130" width="802" xmlns="http://www.w3.org/2000/svg" xmlns:xlink="http://www.w3.org/1999/xlink"><linearGradient id="a" gradientUnits="userSpaceOnUse" x1="32.5" x2="97.5" y1="32.5" y2="97.5"><stop offset="0" stop-color="#f8d239"/><stop offset="1" stop-color="#f0b90b"/></linearGradient><clipPath id="b"><path d="m0 0h802v130h-802z"/></clipPath><g clip-path="url(#b)"><path d="m167.83 35.8472v58.0055h29.418c8.56 0 14.959-7.313 14.959-16.6205 0-9.8892-7.479-13.4626-12.549-13.5457v-.4986c5.319-.3324 10.388-3.6565 10.388-12.4653 0-8.9751-5.817-14.8754-15.374-14.8754zm10.97 24.1828v-14.8753h13.545c3.989 0 6.316 2.2438 6.316 6.1496v2.5761c0 3.8228-2.327 6.1496-6.316 6.1496zm0 24.5153v-15.5402h15.29c4.156 0 6.649 2.3269 6.649 6.3989v2.8255c0 4.072-2.493 6.3158-6.649 6.3158zm41.724 9.3074h26.344v-8.8088h-7.729v-40.3878h7.729v-8.8089h-26.344v8.8089h7.646v40.3878h-7.646zm54.171-29.7506 17.451 29.7506h12.05v-58.0055h-10.388v41.8006h-.249l-5.983-12.0499-17.452-29.7507h-12.05v58.0055h10.388v-41.8005h.25zm79.009 29.7506h11.386l-19.28-58.0055h-13.629l-19.446 58.0055h11.136l4.57-14.7922h20.61zm-14.792-48.0332 7.48 23.8504h-15.291l7.396-23.8504zm51.346 18.2826 17.452 29.7506h12.049v-58.0055h-10.387v41.8006h-.25l-5.983-12.0499-17.452-29.7507h-12.05v58.0055h10.388v-41.8005h.25zm65.63 30.7479c10.388 0 17.285-5.0693 21.441-13.7119l-8.892-5.2355c-1.912 5.2355-5.984 9.2244-12.549 9.2244-8.144 0-13.379-5.651-13.379-15.6233v-9.1413c0-9.8892 5.235-15.7894 13.379-15.7894 6.482 0 10.139 3.4903 11.801 8.6426l9.39-4.9861c-4.072-8.9751-10.803-13.3795-21.191-13.3795-15.291 0-25.014 10.8864-25.014 30.4155s9.723 29.5845 25.014 29.5845zm30.798-.9973h38.227v-9.7229h-27.257v-14.7923h24.099v-9.723h-24.099v-14.0443h27.257v-9.723h-38.227zm67.059 0h26.344v-8.8088h-7.729v-40.3878h7.729v-8.8089h-26.344v8.8089h7.646v40.3878h-7.646zm60.071.9973c10.388 0 17.285-5.0693 21.441-13.7119l-8.892-5.2355c-1.912 5.2355-5.984 9.2244-12.549 9.2244-8.144 0-13.379-5.651-13.379-15.6233v-9.1413c0-9.8892 5.235-15.7894 13.379-15.7894 6.482 0 10.139 3.4903 11.801 8.6426l9.39-4.9861c-4.072-8.9751-10.803-13.3795-21.191-13.3795-15.291 0-25.014 10.8864-25.014 30.4155s9.723 29.5845 25.014 29.5845zm52.513 0c15.29 0 25.263-10.3878 25.263-30s-9.973-30-25.263-30c-15.208 0-25.264 10.3878-25.264 30s10.056 30 25.264 30zm0-9.723c-8.311 0-13.629-5.9003-13.629-15.7895v-8.9751c0-9.8892 5.318-15.7894 13.629-15.7894 8.31 0 13.628 5.9002 13.628 15.7894v8.9751c0 9.8892-5.318 15.7895-13.628 15.7895zm53.011-21.0249 17.451 29.7506h12.05v-58.0055h-10.388v41.8006h-.249l-5.983-12.0499-17.452-29.7507h-12.05v58.0055h10.388v-41.8005h.249zm61.142 30.7479c13.878 0 21.773-7.4793 21.773-18.4488 0-9.5568-5.485-14.7922-17.202-16.8698l-5.402-.9972c-5.568-.9972-8.061-2.8255-8.061-7.2299 0-4.3214 3.241-6.8144 9.474-6.8144 6.15 0 10.139 2.4099 12.964 5.9833l7.479-7.0637c-4.653-5.5678-11.135-8.5595-19.861-8.5595-12.964 0-21.025 6.7313-21.025 17.1191 0 9.4737 5.651 15.0415 17.368 16.8698l5.485.831c6.066 1.0804 7.895 3.4903 7.895 7.3961 0 4.9031-3.491 8.1441-10.222 8.1441-5.983 0-10.886-2.4931-14.875-7.1468l-7.396 7.1468c4.903 5.7341 11.717 9.6399 21.606 9.6399z" fill="#f0ba0d"/><path d="m130 65-65-65-65 65 65 65z" fill="url(#a)"/></g></svg>