<svg xmlns="http://www.w3.org/2000/svg" width="32" height="32" fill="none"><path fill="#fff" d="M16 32c8.837 0 16-7.163 16-16S24.837 0 16 0 0 7.163 0 16s7.163 16 16 16Z"/><path fill="#000" d="M20.716 20.266a3.214 3.214 0 0 1-2.484-.954 3.804 3.804 0 0 1-.882-2.682c-.002-.42.04-.84.126-1.251a4.6 4.6 0 0 1 .414-1.143c.213-.403.466-.783.756-1.134.357-.433.735-.847 1.134-1.242l1.458-1.44 1.836 1.98-1.783 1.656c-.359.336-.662.63-.908.882a7.728 7.728 0 0 0-.603.684 2.89 2.89 0 0 0-.342.549 1.12 1.12 0 0 0-.108.459c0 .624.402.936 1.206.936h2.754v-1.152h2.07v1.206a2.666 2.666 0 0 1-.666 2.016 2.697 2.697 0 0 1-1.926.63h-2.052Zm-7.983-.207a1.438 1.438 0 0 1-.387-1.035v-.36a1.437 1.437 0 0 1 .387-1.035 1.59 1.59 0 0 1 1.197-.405 1.587 1.587 0 0 1 1.197.405 1.438 1.438 0 0 1 .387 1.035v.36a1.44 1.44 0 0 1-.387 1.035 1.585 1.585 0 0 1-1.197.405 1.588 1.588 0 0 1-1.197-.405Zm-1.827 4.995H6.64V23.47h1.332c.828 0 1.242-.198 1.242-.594a.421.421 0 0 0-.19-.342.794.794 0 0 0-.494-.144 1.362 1.362 0 0 0-.99.432l-.864-1.206c.24-.252.528-.454.846-.594.317-.142.66-.216 1.008-.216a2.025 2.025 0 0 1 1.413.495 1.61 1.61 0 0 1 .549 1.251c.007.353-.122.694-.36.954l.018.09h.756v1.458Zm-.846-4.788H7.9V6.946h2.16v13.32Z"/></svg>