<svg xmlns="http://www.w3.org/2000/svg" width="32" height="32" fill="none"><path fill="#fff" d="M16 32c8.837 0 16-7.163 16-16S24.837 0 16 0 0 7.163 0 16s7.163 16 16 16Z"/><path fill="#000" d="m11.779 21.05.21-1.722h1.575a33.842 33.842 0 0 0 1.743-.084c.56-.055 1.001-.14 1.323-.252.448-.154.805-.35 1.071-.588.28-.252.49-.573.63-.965a4.681 4.681 0 0 1-.819.189c-.28.027-.56.041-.84.041-1.078 0-1.904-.252-2.478-.756-.574-.503-.861-1.14-.861-1.91 0-.533.084-1.065.252-1.597a5.434 5.434 0 0 1 .714-1.49 3.68 3.68 0 0 1 1.113-1.072c.434-.28.917-.42 1.449-.42.756 0 1.379.253 1.869.757.504.49.875 1.127 1.113 1.91.252.785.378 1.618.378 2.5 0 1.05-.182 1.953-.546 2.708-.35.742-.938 1.358-1.764 1.849-.434.252-.98.448-1.638.587a15.46 15.46 0 0 1-2.121.253c-.77.041-1.561.063-2.373.063Zm3.213-6.468c0 .434.14.784.42 1.05.28.252.763.379 1.449.379.602 0 1.176-.084 1.722-.252v-.295c0-.574-.077-1.113-.231-1.617-.154-.518-.371-.93-.651-1.239-.28-.308-.616-.462-1.008-.462-.336 0-.63.127-.882.378a2.595 2.595 0 0 0-.609.925c-.14.377-.21.755-.21 1.133Zm1.47-6.32a1.07 1.07 0 0 1-.756-.295 1.043 1.043 0 0 1-.294-.735 1.043 1.043 0 0 1 1.05-1.05.94.94 0 0 1 .714.315c.21.21.315.455.315.735 0 .28-.105.525-.315.735a.972.972 0 0 1-.714.294Zm-.819 17.556-.126-3.634h1.155l.126 3.633h-1.155Z"/></svg>