<svg xmlns="http://www.w3.org/2000/svg" width="32" height="32" fill="none"><path fill="#fff" d="M16 32c8.837 0 16-7.163 16-16S24.837 0 16 0 0 7.163 0 16s7.163 16 16 16Z"/><path fill="#000" d="M15.57 18.205h2.688v-1.596H15.57V15.37h2.688v-1.638c0-2.492-1.19-3.738-3.57-3.738-1.232 0-2.143.35-2.73 1.05-.588.686-.883 1.757-.883 3.213h-1.89c0-1.848.455-3.283 1.365-4.305.925-1.036 2.317-1.554 4.18-1.554 1.75 0 3.087.483 4.01 1.449.939.952 1.408 2.31 1.408 4.074v1.449h2.666v1.239h-2.666v1.596h2.666v1.26h-2.666v4.137h-1.89v-4.137H15.57v-1.26Z"/></svg>