<svg fill="none" height="32" viewBox="0 0 32 32" width="32" xmlns="http://www.w3.org/2000/svg"><path d="m16 32c8.8366 0 16-7.1634 16-16 0-8.83656-7.1634-16-16-16-8.83656 0-16 7.16344-16 16 0 8.8366 7.16344 16 16 16z" fill="#fff"/><g fill="#000"><path d="m6.29346 11.2727-3.26367 9.4546h2.1416l.70135-2.1558h3.41413l.69995 2.1558h2.14158l-3.25877-9.4546zm.087 5.7383 1.16394-3.5777h.07422l1.16158 3.5777z"/><path d="m18.8022 17.0159c.4878-.2183.8976-.5798 1.1749-1.0366.2813-.4919.4218-1.0518.4062-1.6182.0138-.5697-.124-1.1329-.3994-1.6318-.2698-.4667-.6737-.8415-1.1592-1.0757-.5719-.2682-1.1987-.3986-1.8301-.3809h-3.7304v9.4546h1.999v-3.3516h1.4593l1.7907 3.3516h2.207l-2.0107-3.6819c.0287-.0124.0648-.0165.0927-.0295zm-3.539-4.1089h1.3486c.3276-.0105.6537.0468.958.1685.2374.0982.4364.2707.5674.4917.1319.2433.1966.5173.1875.7939.0096.2723-.0552.5421-.1875.7803-.1315.2149-.3302.3803-.5654.4707-.3038.1139-.6269.1673-.9512.1572h-1.3574z"/><path d="m28.7554 16.9788c-.1391-.3027-.3396-.5731-.5889-.794-.2673-.2345-.5694-.426-.8955-.5679-.3654-.1605-.7458-.2843-1.1357-.3696l-.2742-.0656.0215-2.2984c.2033.0412.3962.123.5671.2404.1379.1012.2518.2314.3338.3814s.1301.3162.1409.4868h1.916c.0011-.5297-.1563-1.0475-.4522-1.4868-.308-.4408-.7323-.7875-1.2256-1.0015-.4023-.1691-.8291-.273-1.2641-.3078l.0102-1.1048h-1.0888l-.0104 1.0995c-.4583.0328-.9084.1385-1.3334.3131-.5077.213-.9486.559-1.2764 1.0015-.312.4369-.4731.9637-.459 1.5005-.0157.3113.0378.6222.1567.9104s.3002.5464.5308.7561c.5452.4539 1.1939.7663 1.8887.9096l.4407.1106-.023 2.4388c-.1307-.0236-.259-.0588-.3836-.105-.2571-.0949-.4826-.2596-.6513-.4756-.1684-.2305-.264-.5062-.2744-.7915h-1.9345c-.0061.6066.1668 1.2016.497 1.7105.3275.4699.787.8322 1.3203 1.041.4525.1707.928.2728 1.4107.303l-.0103 1.0954h1.0899l.0102-1.0893c.5014-.0238.9957-.1276 1.4644-.3072.5049-.1993.9411-.5407 1.2558-.9829.297-.4443.4511-.9687.4414-1.503.0033-.3605-.0699-.7176-.2148-1.0477zm-4.0508-2.103c-.1687-.0597-.3299-.1387-.4804-.2354-.1311-.0831-.2421-.1942-.3252-.3252-.0809-.1331-.1187-.2879-.1084-.4433-.0026-.1963.0599-.3879.1777-.545.1332-.1708.3114-.301.5146-.376.1008-.0376.2049-.066.3108-.0846l-.0191 2.0297c-.0222-.0077-.0481-.0123-.07-.0203zm2.04 3.751c-.1544.1867-.3561.3287-.584.4111-.1093.0398-.2219.0702-.3364.0908l.0201-2.1491c.1366.0441.2636.0898.3769.1379.2071.0799.3932.2062.5439.3691.1267.1492.1935.3401.1875.5357.0028.2195-.0707.4331-.2079.6044z"/></g></svg>