<svg viewBox="0 0 32 32" xmlns="http://www.w3.org/2000/svg"><circle cx="16" cy="16" fill="#fff" r="16"/><path d="m19.09668 12.5481a2.08838 2.08838 0 0 0 -.9375-1.56592 3.62042 3.62042 0 0 0 -2.07422-.55762 3.90336 3.90336 0 0 0 -1.54785.28076 2.38983 2.38983 0 0 0 -1.01172.76709 1.81314 1.81314 0 0 0 -.35939 1.10449 1.6059 1.6059 0 0 0 .24511.89454 2.0785 2.0785 0 0 0 .64649.6289 4.46935 4.46935 0 0 0 .86328.419 9.16493 9.16493 0 0 0 .88769.27343l1.41993.36915a10.81436 10.81436 0 0 1 1.42773.46191 5.73707 5.73707 0 0 1 1.35645.7666 3.7244 3.7244 0 0 1 1.01269 1.1792 3.44327 3.44327 0 0 1 .38672 1.68311 3.87992 3.87992 0 0 1 -.63574 2.19482 4.2882 4.2882 0 0 1 -1.83985 1.5127 6.92 6.92 0 0 1 -2.9082.55371 7.05973 7.05973 0 0 1 -2.82617-.51807 4.33784 4.33784 0 0 1 -1.86813-1.47368 4.24657 4.24657 0 0 1 -.74609-2.26953h2.20209a2.215 2.215 0 0 0 .51465 1.31054 2.68715 2.68715 0 0 0 1.1582.77393 4.57732 4.57732 0 0 0 1.55176.25244 4.38309 4.38309 0 0 0 1.6582-.29492 2.73032 2.73032 0 0 0 1.14649-.82373 1.93782 1.93782 0 0 0 .41894-1.23926 1.53354 1.53354 0 0 0 -.36523-1.05859 2.78072 2.78072 0 0 0 -.98731-.68164 9.87639 9.87639 0 0 0 -1.40234-.47608l-1.71875-.46875a6.6538 6.6538 0 0 1 -2.7666-1.39892 3.13673 3.13673 0 0 1 -1.01953-2.44336 3.63382 3.63382 0 0 1 .68168-2.19435 4.506 4.506 0 0 1 1.84668-1.45947 6.35551 6.35551 0 0 1 2.62793-.522 6.2162 6.2162 0 0 1 2.61035.51807 4.40937 4.40937 0 0 1 1.78613 1.4244 3.61144 3.61144 0 0 1 .68164 2.07715zm-3.75 12.543.05664-18.18212h1.335l-.05664 18.18212z"/></svg>