<svg xmlns="http://www.w3.org/2000/svg" width="32" height="32" fill="none"><path fill="#fff" d="M16 32c8.837 0 16-7.163 16-16S24.837 0 16 0 0 7.163 0 16s7.163 16 16 16Z"/><path fill="#000" d="M19.097 12.548a2.09 2.09 0 0 0-.938-1.566 3.62 3.62 0 0 0-2.074-.557 3.903 3.903 0 0 0-1.548.28c-.4.16-.75.425-1.012.767a1.813 1.813 0 0 0-.359 1.105c-.008.316.077.627.245.894.167.255.388.47.647.63.271.17.56.31.863.418.291.106.587.198.888.274l1.42.369c.486.12.963.275 1.427.462.485.192.942.45 1.357.766.416.318.761.72 1.012 1.18.27.519.403 1.098.387 1.683a3.88 3.88 0 0 1-.636 2.195 4.29 4.29 0 0 1-1.84 1.512 6.921 6.921 0 0 1-2.908.554 7.061 7.061 0 0 1-2.826-.518 4.338 4.338 0 0 1-1.868-1.474 4.246 4.246 0 0 1-.746-2.27h2.202c.024.482.205.942.515 1.311.311.356.71.623 1.158.774a4.578 4.578 0 0 0 1.552.253 4.37 4.37 0 0 0 1.658-.295 2.73 2.73 0 0 0 1.146-.824c.28-.352.428-.79.42-1.24a1.533 1.533 0 0 0-.366-1.058 2.78 2.78 0 0 0-.987-.681 9.876 9.876 0 0 0-1.403-.477l-1.718-.468a6.653 6.653 0 0 1-2.767-1.4 3.137 3.137 0 0 1-1.02-2.443 3.634 3.634 0 0 1 .682-2.194 4.505 4.505 0 0 1 1.847-1.46 6.356 6.356 0 0 1 2.628-.521 6.216 6.216 0 0 1 2.61.518c.71.31 1.326.8 1.786 1.424.437.605.675 1.331.682 2.077h-2.116Zm-3.75 12.543.056-18.182h1.335l-.056 18.182h-1.335Z"/></svg>