<svg xmlns="http://www.w3.org/2000/svg" width="32" height="32" fill="none"><path fill="#fff" d="M16 32c8.837 0 16-7.163 16-16S24.837 0 16 0C7.164 0 0 7.163 0 16s7.164 16 16 16Z"/><path fill="#000" d="M3.034 19.61c-.302 0-.56-.107-.776-.319a1.03 1.03 0 0 1-.318-.775 1.019 1.019 0 0 1 .318-.766c.215-.212.474-.318.776-.318.291 0 .545.106.76.318a1.045 1.045 0 0 1 .174 1.317c-.1.166-.232.299-.397.398a1.035 1.035 0 0 1-.537.144Zm7.963.184c-1.344 0-2.418-.135-3.22-.406-.803-.27-1.382-.644-1.736-1.12a2.648 2.648 0 0 1-.532-1.624c0-.439.056-.887.168-1.344.112-.467.22-.877.322-1.232l1.75.406c-.066.261-.13.541-.196.84-.056.29-.084.546-.084.77 0 .355.121.663.364.924.252.261.662.467 1.232.616.57.14 1.334.21 2.296.21v.042l.014-.042c1.81 0 3.154-.103 4.032-.308.886-.205 1.33-.565 1.33-1.078a5.28 5.28 0 0 0-.168-1.204 13.883 13.883 0 0 0-.434-1.442l1.834-.532c.121.317.238.667.35 1.05.112.373.2.751.266 1.134.074.373.112.723.112 1.05 0 .579-.126 1.078-.378 1.498-.252.41-.672.751-1.26 1.022-.579.261-1.363.453-2.352.574-.99.13-2.222.196-3.696.196v-.014l-.014.014Zm1.078 3.276a.98.98 0 0 1-.7-.28.933.933 0 0 1-.28-.686c0-.27.093-.509.28-.714a.956.956 0 0 1 .7-.294.94.94 0 0 1 .686.294c.196.205.294.443.294.714 0 .27-.098.5-.294.686a.963.963 0 0 1-.686.28Zm9.361-3.46c-.302 0-.56-.107-.776-.319a1.03 1.03 0 0 1-.318-.775 1.019 1.019 0 0 1 .318-.766c.216-.212.474-.318.776-.318.292 0 .545.106.76.318a1.045 1.045 0 0 1 .175 1.317 1.14 1.14 0 0 1-.398.398 1.035 1.035 0 0 1-.537.144Zm2.517-.67.686-1.778c.663.299 1.312.448 1.946.448.99 0 1.484-.266 1.484-.798 0-.159-.051-.378-.154-.658-.093-.28-.266-.644-.518-1.092-.252-.457-.62-1.022-1.106-1.694l1.666-1.106c.663.961 1.195 1.871 1.596 2.73s.602 1.582.602 2.17c0 .719-.29 1.302-.868 1.75-.57.448-1.4.672-2.492.672-.27 0-.579-.023-.924-.07a7.754 7.754 0 0 1-1.008-.21 4.21 4.21 0 0 1-.91-.364Z"/></svg>