<svg fill="none" height="32" viewBox="0 0 32 32" width="32" xmlns="http://www.w3.org/2000/svg"><path d="m16 32c8.8366 0 16-7.1634 16-16 0-8.83656-7.1634-16-16-16-8.83656 0-16 7.16344-16 16 0 8.8366 7.16344 16 16 16z" fill="#fff"/><path d="m13.685 17.0159c.4878-.2183.8976-.5798 1.1748-1.0366.2814-.4919.4219-1.0518.4063-1.6182.0138-.5697-.124-1.1329-.3994-1.6318-.2699-.4667-.6737-.8415-1.1592-1.0757-.5719-.2682-1.1987-.3986-1.8301-.3809h-3.73043v9.4546h1.99903v-3.3516h1.4593l1.7907 3.3516h2.207l-2.0106-3.6819c.0287-.0124.0647-.0165.0926-.0295zm-3.539-4.1089h1.3486c.3275-.0105.6537.0468.958.1685.2373.0982.4364.2707.5674.4917.1319.2433.1966.5173.1875.7939.0096.2723-.0553.5421-.1875.7803-.1315.2149-.3303.3803-.5654.4707-.3038.1139-.6269.1673-.9512.1572h-1.3574zm13.4922 4.0718c-.1391-.3027-.3397-.5731-.5889-.794-.2674-.2344-.5695-.426-.8955-.5679-.3655-.1604-.7459-.2842-1.1358-.3696l-.2741-.0656.0215-2.2984c.2032.0412.3961.123.5671.2405.1378.1011.2517.2313.3338.3813.082.15.13.3162.1408.4868h1.916c.0012-.5296-.1563-1.0475-.4521-1.4868-.308-.4408-.7323-.7875-1.2256-1.0015-.4024-.1691-.8291-.273-1.2642-.3078l.0103-1.1048h-1.0889l-.0104 1.0995c-.4583.0328-.9084.1385-1.3333.3131-.5078.2131-.9487.559-1.2764 1.0015-.312.437-.4732.9637-.459 1.5005-.0157.3113.0378.6223.1566.9104.1189.2882.3002.5464.5309.7561.5452.4539 1.1939.7663 1.8887.9097l.4406.1106-.023 2.4387c-.1307-.0236-.259-.0587-.3835-.105-.2571-.0949-.4827-.2595-.6514-.4755-.1684-.2306-.264-.5062-.2744-.7916h-1.9345c-.006.6067.1668 1.2016.4971 1.7105.3275.4699.7869.8322 1.3203 1.041.4525.1707.9279.2729 1.4106.303l-.0102 1.0954h1.0898l.0103-1.0893c.5013-.0238.9957-.1275 1.4643-.3072.5049-.1993.9412-.5407 1.2559-.9829.297-.4442.451-.9687.4414-1.5029.0032-.3606-.07-.7177-.2148-1.0478zm-4.0508-2.103c-.1687-.0596-.33-.1386-.4805-.2354-.131-.0831-.2421-.1941-.3252-.3252-.0808-.1331-.1187-.2879-.1084-.4433-.0025-.1963.0599-.3879.1777-.5449.1332-.1709.3115-.3011.5147-.376.1008-.0377.2048-.066.3108-.0847l-.0192 2.0297c-.0222-.0077-.0481-.0123-.0699-.0203zm2.04 3.751c-.1545.1868-.3561.3287-.584.4111-.1094.0398-.2219.0702-.3365.0908l.0202-2.1491c.1366.0441.2635.0898.3768.1379.2071.0799.3932.2062.544.3691.1267.1492.1935.3401.1875.5357.0028.2195-.0707.4331-.208.6044z" fill="#000"/></svg>