<svg fill="none" height="32" viewBox="0 0 32 32" width="32" xmlns="http://www.w3.org/2000/svg"><path d="m16 32c8.8366 0 16-7.1634 16-16 0-8.83656-7.1634-16-16-16-8.83656 0-16 7.16344-16 16 0 8.8366 7.16344 16 16 16z" fill="#fff"/><path d="m19.0966 12.5481c-.0275-.315-.1262-.6195-.2886-.8908s-.3843-.5021-.6489-.6751c-.619-.3914-1.3423-.5859-2.0742-.5576-.5296-.0125-1.0562.0831-1.5478.2807-.4002.1598-.7498.4249-1.0117.7671-.2377.3188-.3639.7069-.3594 1.1045-.008.3158.0772.627.2451.8945.1669.2545.3876.4691.6465.6289.2719.1703.5613.3107.8633.419.2911.1061.5873.1973.8877.2734l1.4199.3692c.486.1207.9631.275 1.4277.4619.4849.1926.9413.4506 1.3565.7666.4167.3175.7618.7193 1.0127 1.1792.2698.5191.4028 1.0983.3867 1.6831.0132.7788-.2083 1.5436-.6358 2.1948-.4581.6679-1.096 1.1923-1.8398 1.5127-.9181.3922-1.9102.5811-2.9082.5537-.9676.0229-1.9296-.1534-2.8262-.518-.7479-.3075-1.3949-.818-1.8681-1.4737-.4608-.6695-.7197-1.4572-.7461-2.2695h2.2021c.0245.4812.2052.9413.5147 1.3105.3113.3553.7108.6223 1.1582.774.4988.173 1.0238.2584 1.5517.2524.5666.0098 1.1298-.0904 1.6582-.2949.4478-.1693.8432-.4534 1.1465-.8238.2791-.352.4272-.79.419-1.2392.016-.3863-.1144-.7644-.3653-1.0586-.2756-.2964-.6125-.529-.9873-.6817-.4549-.1935-.9236-.3526-1.4023-.476l-1.7188-.4688c-1.0194-.2419-1.9674-.7213-2.7666-1.3989-.3377-.3083-.604-.6868-.7802-1.1088-.1761-.4221-.2577-.8776-.2393-1.3346-.0161-.7859.2231-1.5558.6817-2.1943.4753-.64149 1.1126-1.14518 1.8466-1.45947.829-.35876 1.7248-.53671 2.6279-.522.8973-.01778 1.7879.15897 2.6104.51808.7102.30961 1.3262.80086 1.7861 1.42429.4364.6053.6745 1.331.6817 2.0772zm-3.75 12.543.0567-18.18214h1.335l-.0566 18.18214z" fill="#000"/></svg>