<svg viewBox="0 0 32 32" xmlns="http://www.w3.org/2000/svg"><circle cx="16" cy="16" fill="none" r="16"/><circle cx="16" cy="16" fill="#fff" r="16"/><path d="m5.30029 23.55713v-14.54541h2.19532v6.9458h.17675l6.10157-6.9458h2.76269l-5.86621 6.54834 5.8877 7.99707h-2.64258l-4.70117-6.49854-1.71875 1.97461v4.52393z"/><path d="m22.21826 23.77686a4.99035 4.99035 0 0 1 -2.72363-.72022 4.72345 4.72345 0 0 1 -1.751-1.99219 6.6458 6.6458 0 0 1 -.61035-2.91211 6.588 6.588 0 0 1 .625-2.937 4.79726 4.79726 0 0 1 1.76172-1.9922 4.90733 4.90733 0 0 1 2.67676-.71728 5.15074 5.15074 0 0 1 2.21679.458 4.02717 4.02717 0 0 1 1.57227 1.28222 3.87378 3.87378 0 0 1 .71387 1.92481h-2.06639a2.4864 2.4864 0 0 0 -.77734-1.32129 2.31749 2.31749 0 0 0 -1.623-.55371 2.63557 2.63557 0 0 0 -1.55176.46484 3.02555 3.02555 0 0 0 -1.0332 1.32127 5.05817 5.05817 0 0 0 -.37012 2.02051 5.3268 5.3268 0 0 0 .36231 2.05957 3.05364 3.05364 0 0 0 1.02636 1.34228 2.8093 2.8093 0 0 0 2.66309.25245 2.23461 2.23461 0 0 0 .83105-.64307 2.44432 2.44432 0 0 0 .47266-1.0083h2.06641a3.93937 3.93937 0 0 1 -2.22657 3.1958 5.02635 5.02635 0 0 1 -2.25493.47562zm-1.498-15.55372 1.4629 1.90381 1.45605-1.90381h1.92479v.10694l-2.5 3.01123h-1.76859l-2.49316-3.01123v-.10694z"/></svg>