<svg fill="none" height="32" viewBox="0 0 32 32" width="32" xmlns="http://www.w3.org/2000/svg"><path d="m16 32c8.8366 0 16-7.1634 16-16 0-8.83656-7.1634-16-16-16-8.83656 0-16 7.16344-16 16 0 8.8366 7.16344 16 16 16z" fill="#fff"/><g fill="#000"><path d="m5.30029 23.5571v-14.54538h2.19532v6.94578h.17675l6.10154-6.94578h2.7627l-5.8662 6.54838 5.8877 7.997h-2.6426l-4.70114-6.4985-1.71875 1.9746v4.5239z"/><path d="m22.2183 23.7769c-.9582.0265-1.9038-.2236-2.7237-.7203-.7619-.4832-1.3696-1.1745-1.751-1.9921-.4209-.9121-.6296-1.9078-.6103-2.9122-.0206-1.014.1933-2.0191.625-2.937.3877-.8168.9984-1.5074 1.7617-1.9922.8048-.4912 1.7341-.7403 2.6768-.7172.7637-.0136 1.5209.1428 2.2167.458.625.2862 1.1662.7276 1.5723 1.2822.4067.5657.6534 1.2307.7139 1.9248h-2.0664c-.1135-.5113-.3855-.9737-.7773-1.3213-.4503-.3853-1.0311-.5834-1.623-.5537-.5533-.0118-1.0962.1508-1.5518.4648-.462.3343-.8202.7923-1.0332 1.3213-.2603.6411-.3862 1.3288-.3701 2.0205-.0165.7037.1066 1.4037.3623 2.0596.209.535.5648 1.0003 1.0263 1.3423.388.2601.8346.4194 1.2996.4635s.9336-.0285 1.3635-.2111c.3242-.1452.6091-.3657.8311-.6431.233-.2952.3948-.6403.4726-1.0083h2.0665c-.0624.68-.3004 1.3321-.6907 1.8924-.3904.5602-.9196 1.0094-1.5359 1.3034-.7047.3311-1.4766.4939-2.2549.4757zm-1.498-15.55376 1.4629 1.90386 1.456-1.90386h1.9248v.10694l-2.5 3.01122h-1.7686l-2.4932-3.01122v-.10694z"/></g></svg>