<svg fill="none" height="32" viewBox="0 0 32 32" width="32" xmlns="http://www.w3.org/2000/svg"><path d="m16 32c8.8366 0 16-7.1634 16-16 0-8.83656-7.1634-16-16-16-8.83656 0-16 7.16344-16 16 0 8.8366 7.16344 16 16 16z" fill="#fff"/><g fill="#000"><path d="m4.81396 23.2053v-14.54539h2.19528v6.94579h.17672l6.10154-6.94579h2.7627l-5.8662 6.54839 5.8877 7.997h-2.6425l-4.70124-6.4985-1.71872 1.9746v4.5239z"/><path d="m17.9321 23.2053v-10.9092h2.0528v1.733h.1132c.1851-.5684.5568-1.0576 1.0547-1.3882.5068-.3395 1.105-.5166 1.7149-.5078.1328 0 .29.0044.4726.0141.1826.0093.3252.021.4297.0352v2.0312c-.1497-.0355-.3013-.0627-.4541-.0815-.2167-.0306-.4354-.0459-.6543-.0459-.4654-.0086-.9255.1-1.3379.3159-.3892.2042-.7139.5125-.9379.8906s-.3385.8111-.3306 1.2505v6.6621z"/><path d="m25.7661 23.3401c-.3765-.001-.7372-.1509-1.0035-.4171-.2662-.2661-.4163-.6269-.4174-1.0033-.0025-.1862.0335-.3708.1055-.5425.0721-.1716.1788-.3265.3135-.4551.1314-.1317.2875-.2362.4593-.3075.1719-.0713.3561-.108.5421-.108.1861 0 .3703.0367.5422.108.1718.0713.3279.1758.4593.3075.2233.2192.3666.5069.4072.8171.0405.3103-.0241.6251-.1836.8943-.1263.2117-.3031.3887-.5146.5152-.2146.1279-.4602.1941-.71.1914z"/></g></svg>