<svg xmlns="http://www.w3.org/2000/svg" width="32" height="32" fill="none"><path fill="#fff" d="M16 32c8.837 0 16-7.163 16-16S24.837 0 16 0 0 7.163 0 16s7.163 16 16 16Z"/><path fill="#000" d="M12.901 23.122c-.884 0-1.681-.147-2.392-.442-.71-.295-1.274-.732-1.69-1.313-.407-.572-.611-1.283-.611-2.132 0-.936.225-1.76.676-2.47.45-.71 1.062-1.304 1.833-1.781a9.005 9.005 0 0 1 2.574-1.092c-.39-.121-.84-.243-1.352-.364a7.14 7.14 0 0 0-1.651-.182c-.312 0-.607.022-.884.065a6.3 6.3 0 0 0-.715.13l-.273-1.768a6.11 6.11 0 0 1 .806-.195 5.23 5.23 0 0 1 .91-.078c.59 0 1.122.065 1.599.195.477.121.923.264 1.339.429.416.156.819.299 1.209.429.399.121.802.182 1.209.182h.52l.169 1.95c-.399 0-.862.06-1.391.182a9.185 9.185 0 0 0-1.625.546 7.724 7.724 0 0 0-1.547.871c-.468.347-.85.745-1.144 1.196-.295.45-.442.953-.442 1.508s.134 1.001.403 1.339c.277.347.646.594 1.105.741.46.156.97.234 1.534.234.936 0 1.911-.2 2.925-.598l.533 1.586a8.636 8.636 0 0 1-1.885.637 8.574 8.574 0 0 1-1.742.195Zm.286-3.536a.962.962 0 0 1-.689-.273.918.918 0 0 1-.273-.676c0-.269.091-.498.273-.689a.94.94 0 0 1 .689-.286c.26 0 .481.095.663.286.19.19.286.42.286.689a.897.897 0 0 1-.286.676.903.903 0 0 1-.663.273Zm4.193-2.106.637-1.651c.615.277 1.218.416 1.807.416.918 0 1.378-.247 1.378-.741 0-.147-.048-.351-.143-.611-.087-.26-.247-.598-.481-1.014a16.03 16.03 0 0 0-1.027-1.573l1.547-1.027c.615.893 1.11 1.738 1.482 2.535.373.797.559 1.469.559 2.015 0 .667-.269 1.209-.806 1.625-.529.416-1.3.624-2.314.624-.252 0-.537-.022-.858-.065a7.18 7.18 0 0 1-.936-.195 3.91 3.91 0 0 1-.845-.338Z"/></svg>