<svg xmlns="http://www.w3.org/2000/svg" width="32" height="32" fill="none"><defs><clipPath id="bic__a"><path fill="#fff" d="M0 0h32v32H0z"/></clipPath></defs><g clip-path="url(#bic__a)"><path fill="#fff" d="M16.095 32c8.836 0 16-7.163 16-16s-7.164-16-16-16c-8.837 0-16 7.163-16 16s7.163 16 16 16Z"/><path fill="#000" d="M8.665 20.727v-9.454h3.785c.696 0 1.276.103 1.74.31.465.205.815.492 1.049.858.233.363.35.781.35 1.255 0 .37-.074.694-.221.975a1.916 1.916 0 0 1-.61.683c-.255.175-.547.3-.877.374v.092a2.158 2.158 0 0 1 1.782 1.094c.197.336.296.736.296 1.2 0 .502-.125.95-.374 1.344-.246.39-.611.7-1.094.928-.483.227-1.079.341-1.787.341h-4.04Zm1.999-1.634h1.63c.556 0 .963-.106 1.218-.318.255-.216.383-.502.383-.86a1.27 1.27 0 0 0-.19-.692 1.286 1.286 0 0 0-.54-.47 1.851 1.851 0 0 0-.826-.171h-1.675v2.511Zm0-3.864h1.482c.273 0 .517-.048.729-.143.215-.098.385-.237.508-.415.126-.179.189-.393.189-.642 0-.342-.122-.617-.365-.826-.24-.21-.581-.314-1.025-.314h-1.518v2.34Zm6.559 5.498v-7.09h1.906v1.237h.074c.13-.44.346-.773.65-.998a1.71 1.71 0 0 1 1.053-.341 2.978 2.978 0 0 1 .619.07v1.744a2.563 2.563 0 0 0-.383-.074 3.432 3.432 0 0 0-.448-.032c-.29 0-.548.063-.775.19a1.393 1.393 0 0 0-.536.516c-.13.222-.194.477-.194.767v4.011h-1.966Z"/></g></svg>