<svg viewBox="0 0 32 32" xmlns="http://www.w3.org/2000/svg"><circle cx="16" cy="16" fill="#fff" r="16"/><path d="m18.11121 13.82666-.6748 1.46289h-9.33985l.53321-1.46289zm-1.27148 2.88334-.68848 1.477h-8.05469l.53321-1.477zm3.00488-6.74023-.83887 1.79687a6.05974 6.05974 0 0 0 -.86621-.61767 4.70668 4.70668 0 0 0 -1.00879-.44385 3.89085 3.89085 0 0 0 -1.15722-.167 3.48565 3.48565 0 0 0 -2.02442.61084 4.02125 4.02125 0 0 0 -1.3955 1.82861 7.89534 7.89534 0 0 0 -.50782 3.0293 7.864 7.864 0 0 0 .50782 3.02539 3.99752 3.99752 0 0 0 1.3955 1.82174 3.50075 3.50075 0 0 0 2.02442.60743 4.01938 4.01938 0 0 0 1.168-.16358 4.458 4.458 0 0 0 .99414-.42969 6.3358 6.3358 0 0 0 .81347-.56445l.85938 1.78955a5.06209 5.06209 0 0 1 -1.74707 1.03028 6.27525 6.27525 0 0 1 -2.08789.34814 5.62162 5.62162 0 0 1 -3.15723-.90234 6.04735 6.04735 0 0 1 -2.15532-2.57471 9.35815 9.35815 0 0 1 -.78125-3.98779 9.40265 9.40265 0 0 1 .78125-3.99854 6.04285 6.04285 0 0 1 2.15527-2.57812 5.62508 5.62508 0 0 1 3.15723-.90186 5.90107 5.90107 0 0 1 2.11621.37256 5.56613 5.56613 0 0 1 1.7549 1.06885z"/></svg>