<svg fill="none" height="32" viewBox="0 0 32 32" width="32" xmlns="http://www.w3.org/2000/svg"><path d="m16 32c8.8366 0 16-7.1634 16-16 0-8.83656-7.1634-16-16-16-8.83656 0-16 7.16344-16 16 0 8.8366 7.16344 16 16 16z" fill="#fff"/><path d="m18.1112 13.8266-.6748 1.4629h-9.33984l.53321-1.4629zm-1.2715 2.8834-.6884 1.477h-8.05474l.53321-1.477zm3.0049-6.74024-.8389 1.79684c-.27-.2309-.5599-.4375-.8662-.6176-.3177-.187-.6563-.336-1.0088-.4439-.3751-.1136-.7652-.1699-1.1572-.167-.7218-.0109-1.4291.2025-2.0244.6108-.6333.4607-1.1183 1.0962-1.3955 1.8287-.366.9667-.5385 1.996-.5078 3.0293-.031 1.032.1416 2.06.5078 3.0254.2771.7305.7623 1.3639 1.3955 1.8217.5961.4062 1.3031.6184 2.0244.6074.3953.0032.7888-.0519 1.168-.1636.3476-.1023.6815-.2466.9942-.4297.2854-.1666.5574-.3553.8134-.5644l.8594 1.7895c-.5069.4578-1.1012.8083-1.7471 1.0303-.6712.2335-1.3772.3512-2.0879.3482-1.1187.0201-2.218-.2941-3.1572-.9024-.9471-.6375-1.6943-1.5302-2.1553-2.5747-.5494-1.256-.81606-2.6173-.78125-3.9878-.03494-1.3739.23175-2.7388.78125-3.9985.4602-1.0459 1.2075-1.9398 2.1553-2.57813.9393-.60793 2.0385-.92193 3.1572-.90186.7223-.00637 1.4396.11991 2.1162.37256.6462.24429 1.2413.60675 1.7549 1.06885z" fill="#000"/></svg>