<svg viewBox="0 0 32 32" xmlns="http://www.w3.org/2000/svg"><circle cx="16" cy="16" fill="#fff" r="16"/><path d="m17.93585 17.67627h-7.00976v-1.88965h7.00976zm2.98242 5.6958h-9.94238v-1.88916h9.94238zm-6.42675-10.2417.22656 6.1294a4.013 4.013 0 0 1 -.23438 1.6372 2.25057 2.25057 0 0 1 -1.001 1.147l-1.81836-.561a.693.693 0 0 0 .58984-.39062 2.49138 2.49138 0 0 0 .27637-.87012 5.1226 5.1226 0 0 0 .05664-.90528l-.20508-6.18652a4.36076 4.36076 0 0 1 .55664-2.49267 3.93967 3.93967 0 0 1 1.6377-1.50586 5.18019 5.18019 0 0 1 4.09472-.15625 4.15375 4.15375 0 0 1 1.41993.94824 3.50284 3.50284 0 0 1 .82714 1.36719 3.29082 3.29082 0 0 1 .09961 1.6123l-2.05273-.32666a1.77533 1.77533 0 0 0 -.21973-1.15771 1.82782 1.82782 0 0 0 -.80273-.69581 2.57732 2.57732 0 0 0 -1.08692-.23437 2.44474 2.44474 0 0 0 -1.14648.28369 2.18006 2.18006 0 0 0 -.88086.8667 2.94906 2.94906 0 0 0 -.33688 1.49115z"/></svg>