<svg fill="none" height="32" viewBox="0 0 32 32" width="32" xmlns="http://www.w3.org/2000/svg"><path d="m16 32c8.8366 0 16-7.1634 16-16 0-8.83656-7.1634-16-16-16-8.83656 0-16 7.16344-16 16 0 8.8366 7.16344 16 16 16z" fill="#fff"/><path d="m17.9359 17.6763h-7.0098v-1.8897h7.0098zm2.9824 5.6958h-9.9424v-1.8892h9.9424zm-6.4268-10.2417.2266 6.1294c.0364.5561-.0434 1.1136-.2344 1.6372-.1903.487-.5442.8925-1.001 1.147l-1.8184-.561c.1244-.0061.2448-.0457.3486-.1144s.1871-.1642.2413-.2762c.1449-.2706.2386-.5656.2764-.8702.0456-.2994.0645-.6024.0566-.9052l-.2051-6.1866c-.0674-.8678.1265-1.7359.5567-2.4926.3898-.6489.9584-1.1717 1.6377-1.50589.636-.30314 1.3271-.47335 2.0312-.50021.7041-.02687 1.4062.09017 2.0635.34396.5338.21434 1.0174.53724 1.4199.94824.3774.3859.6604.8538.8271 1.3672.1667.5208.2009 1.0749.0997 1.6123l-2.0528-.3267c.0607-.3996-.0168-.808-.2197-1.1577-.1928-.3063-.4722-.5484-.8027-.6958-.341-.1563-.7119-.2362-1.087-.2344-.3996-.0005-.7932.0969-1.1464.2837-.3711.1979-.677.4989-.8809.8667-.2414.4588-.3576.9732-.3369 1.4912z" fill="#000"/></svg>