<svg xmlns="http://www.w3.org/2000/svg" width="32" height="32" fill="none"><path fill="#fff" d="M16 32c8.837 0 16-7.163 16-16S24.837 0 16 0 0 7.163 0 16s7.163 16 16 16Z"/><path fill="#000" d="M18.245 18.968a2.242 2.242 0 0 1-1.41.817v-7.591c.41.058.794.236 1.104.51.392.348.664.81.777 1.322h2.068a3.892 3.892 0 0 0-.714-1.925 4.037 4.037 0 0 0-1.573-1.282 4.897 4.897 0 0 0-1.663-.432V8.77H15.62v1.63c-.716.069-1.406.3-2.017.678a4.796 4.796 0 0 0-1.762 1.992 6.6 6.6 0 0 0-.625 2.937c-.019 1.005.19 2 .612 2.912a4.601 4.601 0 0 0 3.792 2.673v1.638h1.214v-1.623a4.737 4.737 0 0 0 1.723-.451 3.966 3.966 0 0 0 1.537-1.307 4.018 4.018 0 0 0 .69-1.889h-2.068c-.078.368-.24.713-.471 1.008Zm-3.496.391a3.043 3.043 0 0 1-1.025-1.342 5.307 5.307 0 0 1-.362-2.06 5.081 5.081 0 0 1 .369-2.02 3.032 3.032 0 0 1 1.033-1.321c.259-.18.55-.307.856-.378v7.51a2.478 2.478 0 0 1-.87-.389Z"/></svg>