<svg fill="none" height="32" viewBox="0 0 32 32" width="32" xmlns="http://www.w3.org/2000/svg"><path d="m16 32c8.8366 0 16-7.1634 16-16 0-8.83656-7.1634-16-16-16-8.83656 0-16 7.16344-16 16 0 8.8366 7.16344 16 16 16z" fill="#fff"/><path d="m18.2446 18.9685c-.2222.2772-.507.4976-.8311.6431-.1852.0812-.3797.1394-.5791.1732v-7.5908c.4103.058.7944.2355 1.1045.5103.3918.3476.6639.81.7774 1.3213h2.0673c-.0614-.6939-.3079-1.3587-.7138-1.9248-.4067-.5544-.9482-.9958-1.5733-1.2822-.5243-.2407-1.0869-.3869-1.6621-.4318v-1.61702h-1.2148v1.63062c-.7153.0681-1.4053.2999-2.0166.6775-.7633.4847-1.374 1.1753-1.7617 1.9922-.4312.918-.6451 1.923-.625 2.937-.019 1.0044.19 2.0001.6113 2.9121.3387.7414.8682 1.3796 1.5345 1.8492s1.4453.7538 2.2575.8234v1.6384h1.2148v-1.6235c.5976-.04 1.1821-.1929 1.7227-.4507.6164-.2957 1.1459-.7459 1.5371-1.3066.3862-.5611.6235-1.2112.6894-1.8892h-2.0673c-.078.3678-.2394.7127-.4717 1.0083zm-3.4951.3906c-.4616-.3417-.8171-.8071-1.0254-1.3423-.2562-.6557-.3793-1.3558-.3623-2.0595-.016-.6916.1096-1.3792.3691-2.0205.2133-.5288.5714-.9868 1.0332-1.3213.2589-.1787.5491-.3069.8555-.378v7.5108c-.3125-.0722-.608-.2044-.8701-.3892z" fill="#000"/></svg>