<svg fill="none" height="32" viewBox="0 0 32 32" width="32" xmlns="http://www.w3.org/2000/svg"><path d="m16 32c8.8366 0 16-7.1634 16-16 0-8.83656-7.1634-16-16-16-8.83656 0-16 7.16344-16 16 0 8.8366 7.16344 16 16 16z" fill="#fff"/><g fill="#000"><path d="m3.11963 20.7273v-9.4546h1.999v3.9009h4.0586v-3.9009h1.99417v9.4546h-1.99415v-3.9058h-4.0586v3.9058z"/><path d="m12.8188 20.7273v-9.4546h1.999v4.1689h.125l3.4024-4.1689h2.3955l-3.5078 4.2334 3.5498 5.2212h-2.3916l-2.5898-3.8872-.9834 1.2002v2.687z"/><path d="m26.8345 13.9919c-.0108-.1706-.0589-.3368-.1409-.4868s-.1959-.2802-.3337-.3813c-.3373-.2226-.7372-.3309-1.1407-.3091-.2815-.0077-.5619.0386-.8261.1362-.2033.075-.3815.2052-.5147.376-.1178.1571-.1803.3487-.1777.545-.0103.1554.0276.3102.1084.4433.0831.131.1942.2421.3252.3252.1505.0968.3117.1757.4804.2354.1898.0688.3839.1251.581.1684l.8497.2031c.3898.0854.7703.2092 1.1357.3697.326.1419.6281.3334.8955.5678.2492.221.4498.4914.5889.794.1448.3302.2181.6874.2148 1.0479.0096.5343-.1444 1.0587-.4414 1.5029-.3147.4422-.751.7837-1.2558.9829-.6279.2475-1.2991.3661-1.9737.3487-.6803.015-1.3569-.1041-1.9912-.3506-.5334-.2088-.9928-.5711-1.3203-1.041-.3302-.5089-.5031-1.1038-.4971-1.7105h1.9346c.0104.2853.106.561.2744.7915.1687.216.3943.3807.6514.4756.296.1102.6099.1642.9258.1592.3012.0063.6009-.0437.8837-.1475.228-.0823.4296-.2243.584-.4111.1373-.1713.2108-.385.208-.6045.006-.1956-.0608-.3864-.1875-.5356-.1507-.163-.3368-.2893-.5439-.3692-.2836-.116-.5763-.2088-.875-.2773l-1.0293-.2583c-.6948-.1433-1.3435-.4558-1.8887-.9097-.2306-.2097-.4119-.4679-.5308-.756-.1189-.2882-.1724-.5991-.1567-.9105-.0141-.5367.147-1.0635.459-1.5005.3277-.4424.7687-.7884 1.2764-1.0014.5834-.2486 1.2126-.3714 1.8467-.3604.6321-.0141 1.2597.1089 1.8398.3604.4933.214.9176.5606 1.2256 1.0014.2959.4393.4533.9572.4522 1.4868zm-2.2159 7.917.1114-11.8178h1.0889l-.1104 11.8178z"/></g></svg>