<svg fill="none" height="32" viewBox="0 0 32 32" width="32" xmlns="http://www.w3.org/2000/svg"><path d="m16 32c8.8366 0 16-7.1634 16-16 0-8.83656-7.1634-16-16-16-8.83656 0-16 7.16344-16 16 0 8.8366 7.16344 16 16 16z" fill="#fff"/><path d="m10.2661 11.2226h6.2608v1.6479h-4.2618v2.253h3.8457v1.6479h-3.8457v3.9058h-1.999zm11.1582 7.9033c-.0488.0093-.1191.0225-.2119.0396-.0915.0166-.1843.0251-.2773.0254-.119.0022-.2373-.0182-.3487-.0601-.0999-.0402-.1823-.1146-.2324-.21-.0622-.1319-.0908-.2772-.083-.4229v-3.4345h1.334v-1.477h-1.334v-1.6988h-1.9668v1.6988h-.9697v1.477h.9697v3.6934c-.0187.405.0825.8065.291 1.1543.1982.3061.488.542.8281.6738.3965.151.8207.2155 1.2442.1895.219-.0049.4371-.0304.6513-.0762.1778-.042.3164-.0781.415-.1089z" fill="#000"/></svg>