<svg fill="none" height="32" viewBox="0 0 32 32" width="32" xmlns="http://www.w3.org/2000/svg"><path d="m16 32c8.8366 0 16-7.1634 16-16 0-8.83656-7.1634-16-16-16-8.83656 0-16 7.16344-16 16 0 8.8366 7.16344 16 16 16z" fill="#fff"/><g fill="#000"><path d="m13.833 15.6863c.4878-.2183.8975-.5799 1.1748-1.0367.2813-.4919.4219-1.0517.4063-1.6181.0138-.5698-.1241-1.1329-.3995-1.6319-.2698-.4666-.6737-.8414-1.1591-1.0756-.5719-.2682-1.1987-.39862-1.8301-.38088h-3.73048v9.45458h1.99898v-3.3516h1.4594l1.7907 3.3516h2.207l-2.0106-3.682c.0286-.0124.0647-.0164.0926-.0294zm-3.539-4.1089h1.3486c.3276-.0106.6537.0468.958.1684.2374.0982.4364.2708.5674.4917.1319.2433.1966.5174.1875.794.0096.2723-.0552.542-.1875.7802-.1315.2149-.3302.3804-.5654.4707-.3038.114-.6269.1674-.9512.1573h-1.3574z"/><path d="m23.3125 13.8328c-.2243-.4978-.5883-.9196-1.0478-1.2144-.4292-.267-.9252-.407-1.4307-.4038-.3428-.0114-.6835.0573-.9951.2007-.2477.1195-.4679.2893-.6465.4985-.1507.1771-.2771.3735-.376.584h-.0879v-1.1909h-1.9385v9.75h1.9659v-3.7949h.0605c.0996.2128.2302.4096.3877.584.1827.2024.4051.3651.6533.478.3059.1341.6378.1987.9717.189.5172.006 1.025-.1391 1.4609-.4175.4562-.3029.8153-.731 1.0342-1.2329.2715-.6313.4015-1.3142.3809-2.001.0233-.6972-.1109-1.3907-.3926-2.0288zm-1.789 3.1113c-.0965.2884-.2713.5442-.5049.7388-.2351.1715-.5184.2643-.8094.2651-.2909.0008-.5747-.0905-.8107-.2607-.2344-.1915-.4103-.445-.5078-.7315-.1239-.3544-.1834-.7281-.1758-1.1035-.008-.3738.0516-.746.1758-1.0986.0967-.283.2718-.5328.5048-.7203.2338-.1738.5195-.2633.8106-.2539.2947-.0095.5836.0836.8174.2632.2323.1916.4064.4443.5029.7295.2289.706.2278 1.4665-.0029 2.1719z"/></g></svg>