<svg fill="none" height="32" viewBox="0 0 32 32" width="32" xmlns="http://www.w3.org/2000/svg"><path d="m16 32c8.8366 0 16-7.1634 16-16 0-8.83656-7.1634-16-16-16-8.83656 0-16 7.16344-16 16 0 8.8366 7.16344 16 16 16z" fill="#fff"/><path d="m18.4009 10.8435c-.0736-.1251-.1549-.2455-.2433-.3606l2.2462.013.5039-1.76861h-9.2969l-.5185 1.88921h2.6992c.8047-.0689 1.6039.184 2.2227.7031.2526.253.4421.562.5531.9018h-4.977l-.498 1.7544h5.5396c-.0528.2112-.1366.4134-.2486.6001-.2353.3791-.5828.6757-.9941.8487-.5063.2077-1.0506.307-1.5977.2915h-2.5215l.0137 1.3847 5.0859 6.1719h2.5918v-.1206l-4.6445-5.689.0644-.0142c.9244-.0205 1.8313-.2564 2.6485-.689.6315-.3508 1.1437-.8826 1.4707-1.5268.1913-.3974.3222-.8212.3883-1.2573h1.515l.497-1.7544h-2.025c-.0784-.4831-.2391-.9491-.4749-1.3779z" fill="#000"/></svg>