<svg xmlns="http://www.w3.org/2000/svg" width="32" height="32" fill="none"><path fill="#fff" d="M16 32c8.837 0 16-7.163 16-16S24.837 0 16 0 0 7.163 0 16s7.163 16 16 16Z"/><path fill="#000" d="m10.167 22.349-.247-8.606h1.82l.247 8.606h-1.82Zm-.715-9.438-.22-.91c.277-.052.498-.095.662-.13a1.529 1.529 0 0 1-.403-.442 1.114 1.114 0 0 1-.169-.598c0-.312.07-.563.208-.754.139-.19.317-.33.533-.416.217-.087.442-.13.676-.13.252 0 .481.035.69.104l-.105.936-.26-.052a1.463 1.463 0 0 0-.286-.026.45.45 0 0 0-.312.117.32.32 0 0 0-.13.26c0 .173.07.325.208.455.148.121.295.208.442.26a7.21 7.21 0 0 0 .767-.26l.26.871c-.329.121-.732.251-1.209.39-.468.13-.918.238-1.352.325Zm5.165 9.558a1.08 1.08 0 0 1-.785-.323 1.078 1.078 0 0 1-.323-.785c0-.302.108-.56.323-.776a1.08 1.08 0 0 1 .785-.323c.295 0 .554.108.775.323.222.216.333.474.333.776 0 .203-.052.39-.157.559-.102.166-.236.3-.402.401a1.052 1.052 0 0 1-.55.148Zm2.393-.64.637-1.651c.615.277 1.217.416 1.807.416.918 0 1.378-.247 1.378-.741 0-.147-.048-.351-.143-.611-.087-.26-.247-.598-.481-1.014a16.03 16.03 0 0 0-1.027-1.573l1.547-1.027a17.893 17.893 0 0 1 1.482 2.535c.372.797.559 1.469.559 2.015 0 .667-.269 1.209-.806 1.625-.529.416-1.3.624-2.314.624-.252 0-.538-.022-.858-.065a7.18 7.18 0 0 1-.936-.195 3.908 3.908 0 0 1-.845-.338Z"/></svg>