<svg fill="none" height="32" viewBox="0 0 32 32" width="32" xmlns="http://www.w3.org/2000/svg"><path d="m16 32c8.8366 0 16-7.1634 16-16 0-8.83656-7.1634-16-16-16-8.83656 0-16 7.16344-16 16 0 8.8366 7.16344 16 16 16z" fill="#fff"/><path d="m4.03613 20.7251v-9.4546h1.999v4.169h.125l3.40234-4.169h2.39553l-3.50779 4.2334 3.54979 5.2212h-2.3916l-2.58985-3.8872-.98339 1.2002v2.687zm14.01567-6.7353c-.0108-.1707-.0589-.3368-.1409-.4868s-.1959-.2802-.3337-.3814c-.3373-.2225-.7372-.3309-1.1407-.3091-.2815-.0076-.562.0386-.8261.1363-.2033.0749-.3815.2051-.5147.376-.1178.157-.1803.3486-.1777.5449-.0103.1554.0275.3102.1084.4433.0831.1311.1941.2421.3252.3252.1505.0968.3117.1757.4804.2354.1898.0688.3839.1251.581.1684l.8496.2032c.3899.0853.7704.2091 1.1358.3696.326.1419.6281.3334.8955.5679.2492.2209.4498.4913.5889.7939.1448.3302.2181.6873.2148 1.0479.0096.5342-.1444 1.0587-.4414 1.5029-.3147.4422-.751.7836-1.2559.9829-.6278.2475-1.299.366-1.9736.3486-.6803.0151-1.3569-.104-1.9912-.3506-.5334-.2088-.9928-.571-1.3203-1.041-.3302-.5088-.5031-1.1038-.4971-1.7104h1.9346c.0105.2853.106.561.2745.7915.1686.216.3942.3807.6513.4756.296.1102.61.1642.9258.1592.3012.0062.6009-.0438.8838-.1475.2279-.0824.4296-.2244.584-.4111.1373-.1714.2108-.385.208-.6045.006-.1956-.0609-.3865-.1875-.5357-.1508-.1629-.3369-.2892-.544-.3691-.2836-.1161-.5763-.2088-.875-.2774l-1.0293-.2583c-.6947-.1433-1.3435-.4557-1.8886-.9096-.2307-.2097-.412-.4679-.5309-.7561s-.1724-.5991-.1566-.9104c-.0142-.5368.1469-1.0635.459-1.5005.3277-.4425.7686-.7885 1.2763-1.0015.5834-.2485 1.2127-.3713 1.8467-.3603.6321-.0141 1.2598.1088 1.8399.3603.4933.214.9175.5607 1.2255 1.0015.2959.4393.4534.9572.4522 1.4868zm5.3134 2.6357v4.0996h-1.9658v-9.4546h1.9112v3.6148h.083c.1473-.4026.4188-.7479.7753-.9859.4022-.2508.8702-.3753 1.3438-.3574.4509-.0104.8964.1004 1.29.3208.3696.2159.668.5351.8584.9185.215.4447.3189.935.3028 1.4287v4.5151h-1.9669v-4.1641c.0254-.3698-.0928-.7351-.33-1.02-.1205-.1243-.2664-.2212-.4276-.2841-.1613-.063-.3342-.0905-.507-.0806-.2471-.0051-.4913.0536-.709.1704-.2054.1148-.3725.2875-.4805.4966-.121.2427-.1819.511-.1777.7822z" fill="#000"/></svg>