<svg xmlns="http://www.w3.org/2000/svg" width="32" height="33" fill="none"><defs><clipPath id="bic__a"><path fill="#fff" d="M0 0h32v32H0z" transform="translate(0 .12)"/></clipPath></defs><g clip-path="url(#bic__a)"><path fill="#fff" d="M16 32.12c8.837 0 16-7.164 16-16 0-8.837-7.163-16-16-16s-16 7.163-16 16c0 8.836 7.163 16 16 16Z"/><path fill="#000" d="M21.135 16.58v-1.79h-3.57l4.24-4.49h-2.76l-4.16 4.49h-.87V10.3h-2.1v4.49h-1.72v1.79h1.72v5.36h2.1v-3.25l1.44-1.58 3.63 4.83h2.52l-4.09-5.36h3.62Z"/></g></svg>