<svg xmlns="http://www.w3.org/2000/svg" width="32" height="33" fill="none"><defs><clipPath id="bic__a"><path fill="#fff" d="M0 0h32v32H0z" transform="translate(0 .137)"/></clipPath></defs><g clip-path="url(#bic__a)"><path fill="#fff" d="M16 32.137c8.837 0 16-7.164 16-16 0-8.837-7.163-16-16-16S0 7.3 0 16.137c0 8.836 7.163 16 16 16Z"/><path fill="#000" d="m6.465 18.873.637-1.65c.615.277 1.218.415 1.807.415.919 0 1.378-.247 1.378-.74 0-.148-.048-.352-.143-.612-.087-.26-.247-.598-.48-1.014A16.037 16.037 0 0 0 8.635 13.7l1.547-1.027c.616.893 1.11 1.738 1.482 2.535.373.797.56 1.47.56 2.015 0 .668-.27 1.21-.807 1.625-.528.416-1.3.624-2.314.624-.251 0-.537-.021-.858-.065a7.18 7.18 0 0 1-.936-.195 3.909 3.909 0 0 1-.845-.338Zm8.195.64c-.304 0-.566-.108-.784-.323a1.078 1.078 0 0 1-.324-.785c0-.301.108-.56.324-.775.218-.216.48-.323.784-.323.296 0 .554.107.776.323.221.215.332.474.332.775 0 .203-.052.39-.157.559-.101.166-.235.3-.401.402-.167.098-.35.147-.55.147Zm2.276-.483c0-.296.039-.672.117-1.132.087-.46.273-1.005.559-1.638l1.599.56c-.147.407-.26.758-.338 1.052a3.202 3.202 0 0 0-.117.845c0 .659.212 1.144.637 1.456.433.32 1.005.481 1.716.481.624 0 1.118-.104 1.482-.312.364-.208.628-.498.793-.87.165-.365.264-.79.299-1.275.043-.485.056-1.01.039-1.573l-.247-6.747h1.833l.221 6.63c.017.563-.004 1.127-.065 1.69a6.407 6.407 0 0 1-.351 1.6 4.027 4.027 0 0 1-.767 1.338c-.338.39-.776.698-1.313.923-.529.226-1.183.338-1.963.338a5.953 5.953 0 0 1-2.08-.35 3.22 3.22 0 0 1-1.495-1.106c-.373-.494-.559-1.13-.559-1.91Z"/></g></svg>