<svg xmlns="http://www.w3.org/2000/svg" width="32" height="33" fill="none"><defs><clipPath id="bic__a"><path fill="#fff" d="M0 0h32v32H0z" transform="translate(0 .154)"/></clipPath></defs><g clip-path="url(#bic__a)"><path fill="#fff" d="M16 32.154c8.837 0 16-7.164 16-16 0-8.837-7.163-16-16-16s-16 7.163-16 16c0 8.836 7.163 16 16 16Z"/><path fill="#000" d="M20.64 12.104v-1.77h-9.28v1.77h3.6v3.11l-1.72.69v1.16l1.72-.68v1.21l-1.72.7v1.15l1.72-.67v3.2h2.09v-4.03l1.73-.68v-1.2l-1.73.69v-1.19l1.73-.69v-1.2l-1.73.7v-2.27h3.59Z"/></g></svg>