<svg xmlns="http://www.w3.org/2000/svg" width="32" height="32" fill="none"><path fill="#fff" d="M16 32c8.837 0 16-7.163 16-16S24.837 0 16 0 0 7.163 0 16s7.163 16 16 16Z"/><path fill="#000" d="M23.244 15.46v-1.42h-1.371V8.727h-2.18v5.313h-3.851l-3.678-5.313h-2.037v5.313H8.756v1.42h1.371v1.648H8.756v1.42h1.371v4.745h2.201v-4.744h4.234l3.288 4.744h2.023v-4.744h1.371v-1.42h-1.371V15.46h1.371Zm-10.916-2.855h.128l.994 1.435h-1.122v-1.435Zm0 4.503V15.46h2.107l1.142 1.648h-3.249Zm7.365 2.3h-.134l-.61-.88h.744v.88Zm0-2.3h-1.727l-1.141-1.648h2.868v1.648Z"/></svg>