<svg fill="none" height="32" viewBox="0 0 32 32" width="32" xmlns="http://www.w3.org/2000/svg"><path d="m16 32c8.8366 0 16-7.1634 16-16 0-8.83656-7.1634-16-16-16-8.83656 0-16 7.16344-16 16 0 8.8366 7.16344 16 16 16z" fill="#fff"/><g fill="#000"><path d="m13.6386 13.5026c-.0107-.1706-.0588-.3368-.1408-.4868s-.196-.2802-.3338-.3813c-.3373-.2226-.7371-.3309-1.1406-.3091-.2816-.0077-.562.0386-.8262.1362-.2032.075-.3814.2052-.5146.376-.1178.157-.1803.3487-.1778.5449-.0102.1555.0276.3103.1084.4434.0832.131.1942.2421.3252.3252.1506.0967.3118.1757.4805.2353.1898.0689.3839.1251.581.1685l.8496.2031c.3899.0854.7703.2092 1.1358.3697.326.1418.6281.3334.8955.5678.2492.221.4497.4913.5888.794.1449.3301.2181.6873.2149 1.0478.0096.5343-.1444 1.0587-.4414 1.503-.3148.4422-.751.7836-1.2559.9829-.6278.2474-1.299.366-1.9736.3486-.6803.0151-1.357-.1041-1.9912-.3506-.53339-.2088-.99286-.5711-1.32034-1.041-.33024-.5089-.50313-1.1038-.49707-1.7104h1.93461c.0104.2853.106.5609.2744.7915.1687.216.3942.3807.6513.4756.296.1101.61.1641.9258.1591.3012.0063.601-.0437.8838-.1474.2279-.0824.4296-.2244.584-.4112.1373-.1713.2108-.3849.208-.6044.006-.1957-.0608-.3865-.1875-.5357-.1508-.1629-.3368-.2892-.5439-.3691-.2837-.1161-.5763-.2088-.875-.2774l-1.0293-.2583c-.6948-.1433-1.34352-.4557-1.8887-.9096-.23067-.2097-.41197-.4679-.53085-.7561s-.17238-.5991-.15665-.9104c-.01418-.5368.14696-1.0636.459-1.5005.32771-.4425.76863-.7885 1.2764-1.0015.5834-.2486 1.2126-.3713 1.8466-.3604.6321-.014 1.2598.1089 1.8399.3604.4933.214.9176.5607 1.2256 1.0015.2958.4393.4533.9571.4521 1.4868z"/><path d="m21.1035 10.3401-3.0469 11.3198h-1.6943l3.0469-11.3198z"/><path d="m22.6875 20.3582c-.2937-.0008-.5751-.1177-.7828-.3253s-.3248-.489-.3256-.7827c-.0019-.1447.026-.2882.0819-.4217.056-.1335.1388-.254.2433-.3541.2067-.2067.487-.3228.7793-.3228s.5726.1161.7793.3228c.1765.1688.2902.3927.3225.6348s-.0187.488-.1448.6972c-.1003.1647-.239.3025-.4043.4018-.1656.0997-.3556.1516-.5488.15z"/></g></svg>