<svg fill="none" height="32" viewBox="0 0 32 32" width="32" xmlns="http://www.w3.org/2000/svg"><path d="m16 32c8.8366 0 16-7.1634 16-16 0-8.83656-7.1634-16-16-16-8.83656 0-16 7.16344-16 16 0 8.8366 7.16344 16 16 16z" fill="#fff"/><path d="m22.4912 11.426h-1.775c-.0541-.151-.1158-.2991-.1849-.4438-.3474-.7003-.9031-1.27586-1.5908-1.64748-.8607-.43766-1.8195-.64683-2.7842-.60743h-4.8575v2.69871h-1.78997v1.5625h1.78997v.7671h-1.78997v1.5625h1.78997v7.9546h1.7608v-5.2558h3.125c.9603.0396 1.9139-.1773 2.7627-.6284.6874-.3895 1.24-.9792 1.584-1.6905.0592-.123.1067-.2518.1557-.3799h1.8042v-1.5625h-1.4696c.0095-.1409.0214-.2807.0214-.4262 0-.1166-.0111-.2274-.0172-.3408h1.4654zm-9.4316-1.1362h3.0967c.6454-.0311 1.2882.1021 1.8681.3872.3161.1829.583.44.7777.749h-5.7425zm4.9756 5.7563c-.5694.2988-1.2084.4397-1.8506.4082h-3.125v-1.1362h5.715c-.1885.2953-.4413.5442-.7394.7281zm1.2744-2.7168c0 .15-.0246.2842-.037.4263h-6.213v-.7671h6.2198c.0081.115.0302.2203.0302.3409z" fill="#000"/></svg>