<svg fill="none" height="32" viewBox="0 0 32 32" width="32" xmlns="http://www.w3.org/2000/svg"><path d="m16 32c8.8366 0 16-7.1634 16-16 0-8.83656-7.1634-16-16-16-8.83656 0-16 7.16344-16 16 0 8.8366 7.16344 16 16 16z" fill="#fff"/><path d="m17.2568 17.5769h-7.5068v-1.8609h7.4785c.5506.0197 1.098-.0911 1.5977-.3232.3984-.1929.7263-.5059.9375-.895.21-.4068.3151-.8596.3056-1.3174.0081-.4588-.0969-.9126-.3056-1.3213-.2091-.3939-.5335-.7147-.9297-.9194-.4897-.2414-1.0316-.3573-1.5772-.3374h-3.0966v12.6704h-2.1875v-14.54543h5.2841c.9574-.03277 1.9079.17223 2.7666.59668.7018.3597 1.2822.91785 1.669 1.60505.3753.6878.5673 1.4606.5576 2.2441.0119.7858-.1827 1.561-.5644 2.248-.3915.6792-.9748 1.2277-1.6768 1.5766-.8573.4118-1.8014.6105-2.752.5792zm.1065 1.2212v1.8681h-7.6133v-1.8681z" fill="#000"/></svg>