<svg xmlns="http://www.w3.org/2000/svg" width="32" height="32" fill="none"><path fill="#fff" d="M16 32c8.837 0 16-7.163 16-16S24.837 0 16 0 0 7.163 0 16s7.163 16 16 16Z"/><path fill="#000" d="M17.257 17.577H9.75v-1.861h7.479a3.49 3.49 0 0 0 1.597-.323 2.12 2.12 0 0 0 .938-.895c.21-.407.315-.86.305-1.318a2.797 2.797 0 0 0-.305-1.32 2.192 2.192 0 0 0-.93-.92 3.295 3.295 0 0 0-1.577-.338H14.16v12.67h-2.187V8.728h5.284a5.796 5.796 0 0 1 2.766.597c.702.36 1.283.918 1.67 1.605.375.688.567 1.46.557 2.244a4.489 4.489 0 0 1-.564 2.248 3.98 3.98 0 0 1-1.677 1.577 5.907 5.907 0 0 1-2.752.579Zm.106 1.221v1.868H9.75v-1.868h7.613Z"/></svg>