<svg viewBox="0 0 32 32" xmlns="http://www.w3.org/2000/svg"><circle cx="16" cy="16" fill="#fff" r="16"/><path d="m17.25684 17.5769h-7.50684v-1.86084h7.47852a3.49619 3.49619 0 0 0 1.59765-.32324 2.11488 2.11488 0 0 0 .9375-.895 2.74707 2.74707 0 0 0 .30567-1.31738 2.79718 2.79718 0 0 0 -.30567-1.32129 2.19138 2.19138 0 0 0 -.92969-.91943 3.29462 3.29462 0 0 0 -1.57714-.33741h-3.09668v12.6704h-2.1875v-14.54542h5.28418a5.79606 5.79606 0 0 1 2.7666.59668 4.01911 4.01911 0 0 1 1.66894 1.605 4.56641 4.56641 0 0 1 .55762 2.24413 4.48806 4.48806 0 0 1 -.56445 2.248 3.9808 3.9808 0 0 1 -1.67676 1.57666 5.90707 5.90707 0 0 1 -2.75195.57914zm.10644 1.2212v1.86816h-7.61328v-1.86816z"/></svg>