<svg xmlns="http://www.w3.org/2000/svg" width="32" height="33" fill="none"><defs><clipPath id="bic__a"><path fill="#fff" d="M0 0h32v32H0z" transform="translate(0 .17)"/></clipPath></defs><g clip-path="url(#bic__a)"><path fill="#fff" d="M16 32.17c8.837 0 16-7.163 16-16 0-8.836-7.163-16-16-16s-16 7.164-16 16c0 8.837 7.163 16 16 16Z"/><path fill="#000" d="M7.68 19.02c-.64 0-1.197-.1-1.67-.3a2.422 2.422 0 0 1-1.11-.87c-.26-.38-.39-.856-.39-1.43 0-.226.03-.516.09-.87.067-.352.21-.772.43-1.26l1.23.43c-.113.314-.2.584-.26.81-.06.22-.09.438-.09.65 0 .268.06.508.18.72.12.22.313.394.58.52.267.134.617.2 1.05.2.533 0 .95-.076 1.25-.23.3-.152.51-.36.63-.62s.18-.55.18-.87c0-.272-.05-.602-.15-.99a16.679 16.679 0 0 0-.37-1.28l1.4-.36c.094.388.167.688.22.9.06.214.107.374.14.48.1.3.234.498.4.59.167.088.364.128.59.12a.99.99 0 0 0 .35-.06.632.632 0 0 0 .29-.25c.093-.132.177-.336.25-.61.073-.272.14-.65.2-1.13l1.32.21c-.04.234-.08.48-.12.74-.04.26-.06.46-.06.6 0 .134.06.25.18.35.127.094.373.14.74.14.274 0 .49-.042.65-.13.16-.092.24-.286.24-.58 0-.252-.057-.58-.17-.98-.113-.4-.247-.82-.4-1.26l1.41-.42c.107.288.2.594.28.92a8.5 8.5 0 0 1 .2.94c.053.308.08.57.08.79 0 .714-.203 1.248-.61 1.6-.407.348-.957.52-1.65.52-.373 0-.7-.06-.98-.18-.273-.126-.47-.302-.59-.53-.173.3-.39.494-.65.58a2.364 2.364 0 0 1-1.38.05 1.278 1.278 0 0 1-.5-.26c-.086.828-.433 1.468-1.04 1.92-.6.46-1.39.69-2.37.69Zm11.76-2.227a.83.83 0 0 1-.604-.248.83.83 0 0 1-.249-.604c0-.232.083-.43.249-.597a.83.83 0 0 1 .603-.248c.227 0 .426.083.597.248.17.166.255.365.255.597 0 .156-.04.3-.12.43a.918.918 0 0 1-.31.309.813.813 0 0 1-.422.113Zm5.26 3.847c-.68 0-1.293-.112-1.84-.34a2.945 2.945 0 0 1-1.3-1.01c-.313-.44-.47-.986-.47-1.64 0-.72.173-1.352.52-1.9a4.337 4.337 0 0 1 1.41-1.37 6.93 6.93 0 0 1 1.98-.84 15.93 15.93 0 0 0-1.04-.28 5.493 5.493 0 0 0-1.27-.14c-.24 0-.467.018-.68.05a4.85 4.85 0 0 0-.55.1l-.21-1.36c.186-.06.393-.11.62-.15.226-.04.46-.06.7-.06.453 0 .863.05 1.23.15.366.094.71.204 1.03.33.32.12.63.23.93.33.306.094.616.14.93.14h.4l.13 1.5c-.307 0-.663.048-1.07.14a7.083 7.083 0 0 0-1.25.42c-.427.18-.823.404-1.19.67a3.61 3.61 0 0 0-.88.92c-.227.348-.34.734-.34 1.16 0 .428.103.77.31 1.03.213.268.497.458.85.57.353.12.747.18 1.18.18.72 0 1.47-.152 2.25-.46l.41 1.22a6.64 6.64 0 0 1-1.45.49c-.48.1-.927.15-1.34.15Zm.22-2.72a.74.74 0 0 1-.53-.21.706.706 0 0 1-.21-.52.74.74 0 0 1 .21-.53.723.723 0 0 1 .53-.22c.2 0 .37.074.51.22.146.148.22.324.22.53a.69.69 0 0 1-.22.52c-.14.14-.31.21-.51.21Z"/></g></svg>