<svg fill="none" height="32" viewBox="0 0 32 32" width="32" xmlns="http://www.w3.org/2000/svg"><path d="m16 32c8.8366 0 16-7.1634 16-16 0-8.83656-7.1634-16-16-16-8.83656 0-16 7.16344-16 16 0 8.8366 7.16344 16 16 16z" fill="#fff"/><path d="m12.2977 17.0459 4.715 6.2268h-2.6065l-3.7111-4.9256-1.05448 1.0545v3.8711h-2.12402v-14.54541h2.124v8.25291h.1846l4.3467-4.6167h2.542zm11.756-4.8313c-.1817-.0098-.3399-.0142-.4717-.0142-.6102-.0088-1.2087.1683-1.7158.5079-.498.3306-.8697.8198-1.0547 1.3881h-.1133v-1.7329h-2.0527v10.9092h2.124v-6.6621c-.0078-.4393.1066-.8721.3304-1.2502.2238-.378.5483-.6865.9372-.8909.4127-.2159.8731-.3245 1.3389-.3159.2185-.0001.4369.0153.6533.0459.1527.0187.3043.046.4541.0815v-2.0312c-.1035-.0142-.2471-.0259-.4297-.0352z" fill="#000"/></svg>