<svg xmlns="http://www.w3.org/2000/svg" width="32" height="33" fill="none"><defs><clipPath id="bic__a"><path fill="#fff" d="M0 0h32v32H0z" transform="translate(0 .17)"/></clipPath></defs><g clip-path="url(#bic__a)"><path fill="#fff" d="M16 32.17c8.837 0 16-7.163 16-16 0-8.836-7.163-16-16-16s-16 7.164-16 16c0 8.837 7.163 16 16 16Z"/><path fill="#000" d="M8.459 19.759c-1.152 0-2.072-.116-2.76-.348-.688-.232-1.184-.552-1.488-.96a2.27 2.27 0 0 1-.456-1.392c0-.376.048-.76.144-1.152.096-.4.188-.752.276-1.056l1.5.348c-.056.224-.112.464-.168.72a3.52 3.52 0 0 0-.072.66c0 .304.104.568.312.792.216.224.568.4 1.056.528.488.12 1.144.18 1.968.18v.036l.012-.036c1.552 0 2.704-.088 3.456-.264.76-.176 1.14-.484 1.14-.924 0-.288-.048-.632-.144-1.032-.096-.4-.22-.812-.372-1.236l1.572-.456c.104.272.204.572.3.9.096.32.172.644.228.972.064.32.096.62.096.9 0 .496-.108.924-.324 1.284-.216.352-.576.644-1.08.876-.496.224-1.168.388-2.016.492-.848.112-1.904.168-3.168.168v-.012l-.012.012Zm-.096-5.496a.84.84 0 0 1-.6-.24.826.826 0 0 1-.24-.588.84.84 0 0 1 .84-.852c.224 0 .416.084.576.252a.84.84 0 0 1 .24.6c0 .224-.08.42-.24.588a.786.786 0 0 1-.576.24Zm2.076.012a.84.84 0 0 1-.6-.24.8.8 0 0 1-.24-.588.84.84 0 0 1 .84-.852c.224 0 .416.084.576.252a.84.84 0 0 1 .24.6.8.8 0 0 1-.24.588.786.786 0 0 1-.576.24Zm7.011 5.343a.996.996 0 0 1-.725-.299.995.995 0 0 1-.299-.724c0-.279.1-.517.299-.716a.996.996 0 0 1 .724-.298c.273 0 .511.1.716.298a.963.963 0 0 1 .307.716c0 .187-.048.36-.145.515a1.102 1.102 0 0 1-.37.371.976.976 0 0 1-.508.137Zm2.208-.591.588-1.524c.568.256 1.124.384 1.668.384.848 0 1.272-.228 1.272-.684 0-.136-.044-.324-.132-.564a5.752 5.752 0 0 0-.444-.936 14.806 14.806 0 0 0-.948-1.452l1.428-.948a16.423 16.423 0 0 1 1.368 2.34c.344.736.516 1.356.516 1.86 0 .616-.248 1.116-.744 1.5-.488.384-1.2.576-2.136.576-.232 0-.496-.02-.792-.06-.288-.04-.576-.1-.864-.18a3.608 3.608 0 0 1-.78-.312Zm7.565.591a.996.996 0 0 1-.725-.299.996.996 0 0 1-.298-.724c0-.279.1-.517.298-.716a.996.996 0 0 1 .725-.298c.272 0 .51.1.716.298a.963.963 0 0 1 .306.716c0 .187-.048.36-.145.515a1.102 1.102 0 0 1-.37.371.977.977 0 0 1-.507.137Z"/></g></svg>