<svg fill="none" height="32" viewBox="0 0 32 32" width="32" xmlns="http://www.w3.org/2000/svg"><path d="m16 32c8.8366 0 16-7.1634 16-16 0-8.83656-7.1634-16-16-16-8.83656 0-16 7.16344-16 16 0 8.8366 7.16344 16 16 16z" fill="#fff"/><path d="m17.8892 9.74975v1.88235l-6.9034 2.8052v-1.875zm0 3.30275v1.8677l-6.9034 2.8056v-1.875zm-2.7842-4.42481v14.54541l-2.1875.0781v-14.62351zm3.7002 8.03951h2.209c.043 1.2805-.2124 2.5535-.7461 3.7183-.4491.9407-1.1753 1.7214-2.0811 2.2373-.9565.516-2.0307.7743-3.1172.7495-.4072 0-.805-.0107-1.1934-.0322-.3886-.0215-.7083-.0511-.959-.0889l2.1524-1.811c.6679.0115 1.3276-.1475 1.917-.4619.5966-.3442 1.0644-.8741 1.332-1.5088.3596-.8888.5255-1.8442.4864-2.8023z" fill="#000"/></svg>