<svg xmlns="http://www.w3.org/2000/svg" width="32" height="33" fill="none"><defs><clipPath id="bic__a"><path fill="#fff" d="M0 0h32v32H0z" transform="translate(0 .17)"/></clipPath></defs><g clip-path="url(#bic__a)"><path fill="#fff" d="M16 32.17c8.837 0 16-7.163 16-16 0-8.836-7.163-16-16-16s-16 7.164-16 16c0 8.837 7.163 16 16 16Z"/><path fill="#000" d="M4.182 12.872v-1.435h7.544v1.435H8.803v8.02H7.105v-8.02H4.182Zm14.136 1.164a1.26 1.26 0 0 0-.545-.942c-.317-.225-.73-.337-1.237-.337-.357 0-.663.054-.919.162a1.36 1.36 0 0 0-.586.438 1.066 1.066 0 0 0-.208.633c0 .197.045.367.134.512.093.145.217.268.374.37.157.098.331.18.522.249.19.067.383.124.577.17l.886.222c.357.083.7.195 1.03.337.332.142.63.32.89.536.265.215.475.475.629.78.153.304.23.661.23 1.07 0 .555-.141 1.043-.424 1.464-.284.419-.693.747-1.228.983-.533.234-1.178.351-1.935.351-.735 0-1.374-.114-1.915-.341-.54-.228-.96-.56-1.265-.998-.302-.436-.465-.969-.49-1.597h1.685c.025.33.127.603.305.822.179.218.41.382.697.49.29.107.612.16.97.16.372 0 .698-.055.978-.165a1.59 1.59 0 0 0 .665-.471c.16-.203.242-.44.245-.711a.903.903 0 0 0-.217-.61 1.59 1.59 0 0 0-.596-.406 5.745 5.745 0 0 0-.886-.295l-1.076-.277c-.779-.2-1.394-.503-1.846-.91-.45-.409-.674-.952-.674-1.63 0-.556.15-1.044.452-1.463a2.989 2.989 0 0 1 1.242-.974c.523-.234 1.116-.35 1.777-.35.671 0 1.259.116 1.764.35.508.231.906.553 1.195.965.29.41.439.88.448 1.413h-1.648Zm4.902 2.7v4.155h-1.672v-9.454h1.635v3.568h.083c.166-.4.423-.715.77-.946.351-.234.798-.351 1.34-.351.492 0 .921.103 1.287.31.367.205.65.507.85.904.203.397.305.882.305 1.454v4.515h-1.672v-4.256c0-.477-.123-.848-.369-1.113-.243-.268-.585-.401-1.025-.401-.295 0-.56.064-.794.194-.23.126-.412.309-.544.549-.13.24-.194.53-.194.872Z"/></g></svg>