<svg viewBox="0 0 32 32" xmlns="http://www.w3.org/2000/svg"><circle cx="16" cy="16" fill="#fff" r="16"/><path d="m21.37256 15.26807h-10.74512v-1.72559h10.74512zm0 2.99023h-10.74512v-1.70459h10.74512zm-5.36914 5.21338a5.619 5.619 0 0 1 -3.3916-.895 3.00068 3.00068 0 0 1 -1.21778-2.5498 2.82132 2.82132 0 0 1 .15625-.87012 2.931 2.931 0 0 1 .42676-.80957 2.58733 2.58733 0 0 1 .65332-.62158l2.02344.355a2.82732 2.82732 0 0 0 -.75293.8916 2.24184 2.24184 0 0 0 -.23438.97656 1.39479 1.39479 0 0 0 .61524 1.18945 2.94849 2.94849 0 0 0 1.72168.42969 3.19082 3.19082 0 0 0 1.73633-.42969 1.59077 1.59077 0 0 0 .69238-1.43115h2.30859a3.798 3.798 0 0 1 -.59277 2.12744 3.35194 3.35194 0 0 1 -1.62305 1.23535 7.06513 7.06513 0 0 1 -2.52148.40182zm.05664-13.06836a2.36852 2.36852 0 0 0 -1.67188.50049 1.8172 1.8172 0 0 0 -.54394 1.353h-2.30078a4.10539 4.10539 0 0 1 .49316-1.89649 3.26163 3.26163 0 0 1 1.44922-1.33832 5.7179 5.7179 0 0 1 2.56055-.49365 6.25976 6.25976 0 0 1 2.35449.394 3.12917 3.12917 0 0 1 1.47363 1.147 3.206 3.206 0 0 1 .50391 1.82519 2.817 2.817 0 0 1 -.13086.84863 2.98761 2.98761 0 0 1 -.38379.78516 3.30866 3.30866 0 0 1 -.60742.66748l-1.89649-.54a5.44617 5.44617 0 0 0 .59375-.813 1.6745 1.6745 0 0 0 .23731-.89111 1.34274 1.34274 0 0 0 -.5293-1.126 2.5545 2.5545 0 0 0 -1.60156-.42238z"/></svg>