<svg fill="none" height="32" viewBox="0 0 32 32" width="32" xmlns="http://www.w3.org/2000/svg"><path d="m16 32c8.8366 0 16-7.1634 16-16 0-8.83656-7.1634-16-16-16-8.83656 0-16 7.16344-16 16 0 8.8366 7.16344 16 16 16z" fill="#fff"/><path d="m21.3726 15.2681h-10.7452v-1.7256h10.7452zm0 2.9902h-10.7452v-1.7046h10.7452zm-5.3692 5.2134c-1.1971.0712-2.3855-.2424-3.3916-.895-.3967-.2923-.7154-.6779-.9278-1.1226s-.312-.9349-.29-1.4272c.0061-.2965.0588-.5901.1563-.8701.099-.2906.243-.5638.4268-.8096.1797-.2439.4008-.4542.6533-.6216l2.0234.355c-.3102.2416-.5667.5453-.7529.8916-.151.3036-.2311.6375-.2344.9766-.0055.2339.048.4655.1555.6734.1076.2078.2656.3853.4597.516.5162.3166 1.1173.4667 1.7217.4297.6079.0253 1.2104-.1238 1.7364-.4297.2307-.1568.4162-.3717.5377-.6229.1216-.2512.1749-.5299.1546-.8082h2.3086c.0175.7522-.1888 1.4926-.5927 2.1274-.3996.5704-.9669 1.0022-1.6231 1.2354-.8091.2859-1.6636.4221-2.5215.4018zm.0567-13.0684c-.6007-.052-1.1986.127-1.6719.5005-.1792.1757-.32.3867-.4137.6196-.0936.2328-.1379.4825-.1303.7334h-2.3007c.0089-.6627.1781-1.3134.4931-1.8965.3334-.58498.8396-1.05247 1.4492-1.3383.8041-.35958 1.6804-.52852 2.5606-.49365.8028-.02092 1.6022.11284 2.3545.394.5965.22343 1.1106.62359 1.4736 1.14695.3479.5438.5235 1.18.5039 1.8252 0 .2879-.0441.5741-.1308.8487-.0888.2791-.2181.5436-.3838.7851-.1711.2492-.3754.4738-.6074.6675l-1.8965-.54c.2226-.2521.4213-.5242.5937-.813.161-.269.2432-.5777.2373-.8911.0092-.2165-.0342-.4319-.1263-.628-.0922-.1961-.2305-.3669-.403-.498-.4721-.3148-1.0356-.4634-1.6015-.4224z" fill="#000"/></svg>