<svg fill="none" height="32" viewBox="0 0 33 32" width="33" xmlns="http://www.w3.org/2000/svg" xmlns:xlink="http://www.w3.org/1999/xlink"><clipPath id="a"><path d="m.998695 0h32v32h-32z"/></clipPath><g clip-path="url(#a)"><path d="m16.9987 32c8.8366 0 16-7.1634 16-16 0-8.83656-7.1634-16-16-16-8.83656 0-16.000005 7.16344-16.000005 16 0 8.8366 7.163445 16 16.000005 16z" fill="#fff"/><g fill="#000"><path d="m10.5768 11.2705h1.999v6.1401c.0196.6303-.1468 1.2524-.4783 1.7888s-.8135.9634-1.386 1.2278c-.6427.2998-1.34571.4475-2.05466.4317-.71026.0163-1.4147-.1314-2.05859-.4317-.57197-.2647-1.05341-.6919-1.38437-1.2283-.33097-.5364-.49684-1.1583-.47696-1.7883v-6.1401h1.999v5.9692c-.00637.3354.07582.6666.23828.96.15691.2793.38991.5082.67188.6602.31072.1655.65879.2482 1.01074.2402.35292.0084.70205-.0743 1.01367-.2402.28053-.1529.51241-.3817.66901-.6602.1617-.2937.2435-.6247.2373-.96z"/><path d="m19.3483 13.9898c-.0108-.1707-.0589-.3368-.1409-.4868-.082-.1501-.1959-.2802-.3337-.3814-.3373-.2225-.7372-.3309-1.1407-.3091-.2815-.0076-.5619.0386-.8261.1363-.2033.0749-.3815.2051-.5147.376-.1178.157-.1803.3486-.1777.5449-.0103.1554.0276.3102.1084.4433.0831.1311.1942.2421.3252.3252.1505.0968.3117.1757.4804.2354.1898.0688.3839.1251.5811.1684l.8496.2032c.3899.0853.7703.2091 1.1358.3696.326.1419.6281.3334.8955.5679.2492.2209.4497.4913.5888.7939.1449.3302.2181.6873.2149 1.0479.0096.5342-.1444 1.0587-.4414 1.5029-.3148.4422-.751.7836-1.2559.9829-.6278.2475-1.299.366-1.9736.3486-.6803.0151-1.357-.104-1.9912-.3506-.5334-.2088-.9929-.571-1.3204-1.041-.3302-.5089-.5031-1.1038-.497-1.7104h1.9345c.0105.2853.1061.561.2745.7915.1687.216.3942.3807.6513.4756.296.1102.61.1642.9258.1592.3012.0062.6009-.0438.8838-.1475.2279-.0824.4296-.2244.584-.4111.1373-.1714.2108-.385.208-.6045.006-.1956-.0608-.3865-.1875-.5357-.1508-.1629-.3368-.2892-.5439-.3691-.2837-.1161-.5763-.2088-.875-.2774l-1.0293-.2583c-.6948-.1433-1.3435-.4557-1.8887-.9096-.2307-.2097-.412-.4679-.5309-.7561-.1188-.2882-.1723-.5991-.1566-.9104-.0142-.5368.1469-1.0635.459-1.5005.3277-.4425.7686-.7885 1.2764-1.0015.5834-.2485 1.2126-.3713 1.8466-.3603.6321-.0141 1.2598.1088 1.8399.3603.4933.214.9176.5607 1.2256 1.0015.2958.4393.4533.9572.4521 1.4868z"/><path d="m24.6617 16.6255v4.0996h-1.9658v-9.4546h1.9112v3.6147h.083c.1473-.4025.4188-.7478.7754-.9858.4021-.2508.8701-.3753 1.3437-.3574.451-.0104.8964.1004 1.29.3208.3696.2159.668.5351.8584.9184.215.4448.3189.9351.3028 1.4288v4.5151h-1.9668v-4.1641c.0254-.3698-.0929-.7352-.3301-1.02-.1205-.1243-.2663-.2212-.4276-.2841-.1612-.063-.3341-.0905-.507-.0807-.247-.005-.4912.0536-.709.1705-.2054.1148-.3724.2875-.4804.4965-.1211.2428-.182.5111-.1778.7823z"/></g></g></svg>