<svg fill="none" height="32" viewBox="0 0 32 32" width="32" xmlns="http://www.w3.org/2000/svg"><path d="m16 32c8.8366 0 16-7.1634 16-16 0-8.83656-7.1634-16-16-16-8.83656 0-16 7.16344-16 16 0 8.8366 7.16344 16 16 16z" fill="#fff"/><path d="m19.0967 12.5481c-.0276-.3149-.1263-.6195-.2887-.8908-.1624-.2712-.3842-.5021-.6488-.6751-.6191-.3914-1.3423-.5859-2.0742-.5576-.5297-.0125-1.0563.0831-1.5479.2807-.4002.1598-.7498.4249-1.0117.7671-.2377.3188-.364.7069-.3594 1.1045-.0081.3158.0772.627.2451.8945.1669.2545.3876.4692.6465.6289.2719.1703.5613.3108.8633.419.2911.1061.5873.1974.8877.2735l1.4199.3691c.486.1207.9631.2751 1.4277.4619.4849.1927.9413.4506 1.3565.7666.4167.3175.7618.7193 1.0127 1.1792.2698.5191.4029 1.0984.3867 1.6831.0132.7789-.2083 1.5437-.6357 2.1949-.4582.6678-1.0961 1.1923-1.8399 1.5127-.9181.3922-1.9102.581-2.9082.5537-.9676.0228-1.9296-.1535-2.8262-.5181-.7479-.3075-1.3949-.8179-1.8681-1.4737-.4608-.6695-.7197-1.4572-.7461-2.2695h2.2021c.0244.4812.2051.9413.5147 1.3105.3113.3553.7108.6223 1.1581.774.4989.173 1.0239.2584 1.5518.2524.5666.0098 1.1297-.0903 1.6582-.2949.4478-.1693.8432-.4534 1.1465-.8237.2791-.3521.4272-.7901.4189-1.2393.0161-.3863-.1144-.7644-.3652-1.0586-.2756-.2963-.6125-.529-.9873-.6816-.4549-.1936-.9236-.3527-1.4023-.4761l-1.7188-.4688c-1.0195-.2419-1.9674-.7213-2.7666-1.3989-.3378-.3083-.6041-.6868-.7802-1.1088-.1761-.4221-.2578-.8776-.2393-1.3345-.0161-.786.2231-1.5559.6817-2.1944.4753-.64151 1.1126-1.14518 1.8466-1.45947.829-.35876 1.7249-.53671 2.628-.522.8973-.01777 1.7878.15897 2.6103.51807.7102.30964 1.3262.80093 1.7861 1.4244.4364.6053.6745 1.331.6817 2.0772zm-3.75 12.543.0566-18.18212h1.335l-.0566 18.18212z" fill="#000"/></svg>