<svg xmlns="http://www.w3.org/2000/svg" width="32" height="33" fill="none"><defs><clipPath id="bic__a"><path fill="#fff" d="M0 0h32v32H0z" transform="translate(0 .17)"/></clipPath></defs><g clip-path="url(#bic__a)"><path fill="#fff" d="M16 32.17c8.837 0 16-7.163 16-16 0-8.836-7.163-16-16-16s-16 7.164-16 16c0 8.837 7.163 16 16 16Z"/><path fill="#000" d="M11.063 15.847H9.601a1.818 1.818 0 0 0-.23-.637 1.712 1.712 0 0 0-.99-.77 2.225 2.225 0 0 0-.683-.101c-.435 0-.82.11-1.156.328-.336.216-.599.534-.79.953-.19.417-.284.926-.284 1.528 0 .611.095 1.127.285 1.546.193.417.456.732.789.946.336.21.72.316 1.152.316.24 0 .464-.031.672-.094.211-.065.4-.16.567-.285a1.74 1.74 0 0 0 .668-1.086l1.46.008c-.054.38-.173.737-.355 1.07a3.143 3.143 0 0 1-1.73 1.477c-.391.14-.825.21-1.301.21-.703 0-1.331-.162-1.883-.487-.552-.326-.987-.796-1.305-1.41-.317-.615-.476-1.352-.476-2.212 0-.861.16-1.598.48-2.21.32-.615.757-1.085 1.309-1.41.552-.326 1.177-.489 1.875-.489.445 0 .86.063 1.242.188.383.125.724.308 1.023.55.3.24.546.534.739.883.195.346.323.742.383 1.188Zm2.041 5.41v-1.219h.458c.205 0 .375-.03.507-.09a.783.783 0 0 0 .32-.258c.084-.112.153-.242.208-.39l.105-.27-2.86-5.883h1.516l1.993 4.282 1.722-4.281h1.492l-2.757 6.523a5.093 5.093 0 0 1-.442.785 1.89 1.89 0 0 1-.652.582c-.266.146-.612.219-1.04.219h-.57Zm2.856-10.172h1.059c0 .456-.166.825-.496 1.11-.329.28-.774.421-1.336.421-.558 0-1.002-.14-1.332-.422-.329-.284-.491-.653-.489-1.109h1.051c0 .188.057.355.172.504.117.146.316.219.598.219.276 0 .472-.073.59-.22a.789.789 0 0 0 .183-.503Zm3.638 2.063h1.773l2.375 5.796h.094l2.375-5.796h1.773v8h-1.39V15.65h-.075l-2.21 5.473h-1.04l-2.21-5.484h-.075v5.508h-1.39v-8Z"/></g></svg>