<svg xmlns="http://www.w3.org/2000/svg" width="32" height="32" fill="none"><path fill="#fff" d="M16 32c8.837 0 16-7.163 16-16S24.837 0 16 0 0 7.163 0 16s7.163 16 16 16Z"/><path fill="#000" d="M14.85 21.848a4.194 4.194 0 0 1-2.355-.678 4.53 4.53 0 0 1-1.619-1.939 7.14 7.14 0 0 1-.586-3.029 7.043 7.043 0 0 1 .593-3.026 4.503 4.503 0 0 1 1.63-1.924 4.246 4.246 0 0 1 2.35-.668 3.439 3.439 0 0 1 1.638.338c.373.191.702.458.966.784a6.8 6.8 0 0 1 .536.789h.128V7.09h2.123v14.546H18.18v-1.698h-.178a5.76 5.76 0 0 1-.55.796 3.13 3.13 0 0 1-.984.78 3.435 3.435 0 0 1-1.62.334Zm5.226 1.257v1.805h-9.24v-1.805h9.24Zm-4.758-3.068a2.479 2.479 0 0 0 1.552-.486 3 3 0 0 0 .966-1.353c.232-.647.343-1.33.33-2.017a5.544 5.544 0 0 0-.327-1.989 2.926 2.926 0 0 0-.958-1.328 2.527 2.527 0 0 0-1.563-.476 2.526 2.526 0 0 0-1.598.498 3.014 3.014 0 0 0-.962 1.356 5.472 5.472 0 0 0-.323 1.939c-.01.67.1 1.336.326 1.967a3.09 3.09 0 0 0 .97 1.382 2.48 2.48 0 0 0 1.587.507Zm-.135-10.184v-1.47h6.527v1.47h-6.527Z"/></svg>