<svg fill="none" height="32" viewBox="0 0 32 32" width="32" xmlns="http://www.w3.org/2000/svg"><path d="m16 32c8.8366 0 16-7.1634 16-16 0-8.83656-7.1634-16-16-16-8.83656 0-16 7.16344-16 16 0 8.8366 7.16344 16 16 16z" fill="#fff"/><path d="m14.8496 21.8484c-.8348.0134-1.6547-.2228-2.3545-.6782-.7126-.4798-1.2742-1.1523-1.6191-1.939-.4137-.9549-.6137-1.9886-.586-3.0288-.0283-1.04.1741-2.0734.5928-3.0259.3489-.7836.9144-1.4512 1.6299-1.9243.7011-.4482 1.5185-.6805 2.3506-.668.5653-.024 1.1279.0919 1.6377.3374.3729.1917.7018.4589.9658.7847.1968.2501.3759.5136.5361.7885h.128v-5.40471h2.123v14.54541h-2.0732v-1.6973h-.1778c-.161.2801-.3452.5462-.5508.7954-.2716.3242-.6061.59-.9834.7813-.5045.2413-1.0603.3558-1.6191.3335zm5.2266 1.2568v1.8047h-9.2393v-1.8047zm-4.7578-3.0679c.5572.017 1.1038-.1543 1.5517-.4863.4429-.351.7777-.82.9658-1.353.2316-.6467.3435-1.3302.3301-2.0171.0134-.6773-.0975-1.3514-.3271-1.9887-.1864-.5249-.5188-.9857-.958-1.3282-.4539-.3271-1.0034-.4943-1.5625-.4755-.5739-.0209-1.1378.1544-1.5987.497-.4415.353-.7748.823-.9619 1.3565-.2239.6215-.3334 1.2784-.3232 1.939-.0102.67.1003 1.3364.3261 1.9672.1888.5416.5246 1.0199.9698 1.3814.4549.3474 1.0158.5267 1.5879.5077zm-.1358-10.18452v-1.47021h6.5274v1.47021z" fill="#000"/></svg>