<svg xmlns="http://www.w3.org/2000/svg" width="32" height="33" fill="none"><defs><clipPath id="bic__a"><path fill="#fff" d="M0 0h32v32H0z" transform="translate(0 .17)"/></clipPath></defs><g clip-path="url(#bic__a)"><path fill="#fff" d="M16 32.17c8.837 0 16-7.163 16-16 0-8.836-7.163-16-16-16s-16 7.164-16 16c0 8.837 7.163 16 16 16Z"/><path fill="#000" d="M12.36 12.17h-1.65L8.94 15.1h-.07l-1.76-2.93H5.45l2.5 4-2.53 4h1.67l1.78-2.91h.07l1.78 2.91h1.68l-2.51-4 2.47-4Zm3.43 0-2.81 8h1.54l.66-2h3l.66 2h1.58l-2.84-8h-1.79Zm-.22 4.86 1.09-3.22h.06l1.08 3.22h-2.23Zm11.01-3.64v-1.22h-5.12v8h1.44v-3.4h3.33v-1.21H22.9v-2.17h3.68Z"/></g></svg>