<svg fill="none" height="32" viewBox="0 0 32 32" width="32" xmlns="http://www.w3.org/2000/svg"><path d="m16 32c8.8366 0 16-7.1634 16-16 0-8.83656-7.1634-16-16-16-8.83656 0-16 7.16344-16 16 0 8.8366 7.16344 16 16 16z" fill="#fff"/><path d="m21.3872 23.2745-3.2231-5.8857c.1484-.0522.2939-.1122.436-.1797.7077-.3387 1.2931-.8883 1.6758-1.5733.383-.722.575-1.53.5576-2.3471.017-.8235-.1735-1.638-.5537-2.3687-.3805-.6942-.9642-1.25543-1.6729-1.60838-.8762-.41663-1.8399-.61642-2.8095-.58252h-5.1846v14.5454h2.1953v-5.5044h2.9824c.0484 0 .0913-.0053.1389-.006l2.9578 5.5105zm-8.5791-12.6635h2.7549c.6026-.0237 1.203.0867 1.7578.3232.4225.1913.7697.5172.9873.9268.2202.443.3288.9331.3164 1.4277.0135.4852-.0939.9661-.3125 1.3994-.2188.398-.5652.7107-.9834.8877-.5508.2228-1.1425.3268-1.7363.3052h-2.7842z" fill="#000"/></svg>