<svg fill="none" height="32" viewBox="0 0 32 32" width="32" xmlns="http://www.w3.org/2000/svg" xmlns:xlink="http://www.w3.org/1999/xlink"><clipPath id="a"><path d="m0 0h32v32h-32z"/></clipPath><g clip-path="url(#a)"><path clip-rule="evenodd" d="m21.1994 2.21438c-1.6248-.57591-3.3753-.88958-5.1994-.88958-6.92591.00519-12.78887 4.52374-14.75007 10.751-.16414.9481-.24993 1.9255-.24993 2.9242 0 8.8366 6.71573 16 15 16 6.6763 0 12.3339-4.6524 14.2786-11.0837z" fill="#ecf3ff" fill-rule="evenodd"/><path d="m11.8272 7.30241-5.40801-2.144v.768l4.63361 4.13439-.3072 4.288-1.38881 5.824-1.856 2.6048.4608 3.6736 2.31681.3072 1.856-.3072 1.856.3072 3.2448-1.9904.6208-3.2192 3.8592-3.6736 1.696 1.2224 1.696 2.4512v4.9024l2.3168-.6144 2.3168-5.056.6208-6.432-8.3392-12.10239-1.3888-.3072z" fill="#fff"/><g fill="#94a6c4"><path d="m3.64158 16.16c.064-.5184.0896-1.0432.2496-1.5296.4352-2.0224 1.2672-3.9552 2.5024-5.51679.2176-.2752.4032-.5184.6464-.76801l-1.3888-1.2864c-.2496.3648-.4928.736-.7104 1.10081-1.1456 1.95839-1.76 4.16639-1.9136 6.34239-.064.5504-.032 1.1008-.032 1.6256 0 .5504.064 1.0752.1536 1.6256.1536 1.0752.4352 2.112.8064 3.0976-.2496-1.0432-.3712-2.0864-.4032-3.1552-.0064-.4992-.0064-1.0176.0896-1.536z"/><path d="m9.97763 6.23358c-.7744-.3648-1.85599-.8576-2.62399-1.2224.7104-.672 2.00959-1.376 3.09116-1.8368-.78077.608-.78077 1.8944-.46717 3.0592z"/><path d="m6.85434 11.4368c-.4352 1.0752-.7104 2.208-.8064 3.3088-.032.2752-.064.5504-.032.8256 0 .2752 0 .5504.032.8256l.032.4352c0 .1216.032.2752.064.3968l.1216.8256.032-.8256c0-.1216 0-.2752.032-.3968l.064-.3968c.032-.2752.0896-.5504.1216-.7936.032-.2752.1216-.5184.1856-.768.2752-1.0432.7424-1.9904 1.2992-2.88.3712-.5824.8064-1.1008 1.2672-1.5936l-1.2032-1.13279c-.5312.704-.9024 1.40799-1.2096 2.16959z"/><path d="m24.7424 6.2016c-1.6384-.5824-2.2848-.3968-2.2848-.3968s-1.0176 2.72639-4.9152 2.91199c.032.0256 3.5264 2.04801 7.2-2.51519z"/><path d="m25.8559 11.6224c-.1536 3.3728-2.7776 4.6272-4.8192 4.384-1.1136-.1536-2.752.3648-2.752.3648l-2.0672 3.552-.6784.2432 1.1712-2.144s-2.7776 1.0112-2.9952 1.1008-1.0816 1.3504-1.792 2.6624c-.1536-.9216-.7424-1.5616-.7424-1.5936 0 .1536.3072 2.912-.032 3.6736-.3392.7936-1.85598 1.3184-1.85598 1.3184l2.22718.8256.1536.064 1.6704-1.5616.6208-2.3296.7744-.5504s1.9136-.2176 1.6384 1.504c-.1216.8256-1.0496.768-2.0992 1.408-.6208.3648-1.4208.9472-1.824 1.3504l1.1136.7936s1.3312-.2176 3.2128-1.6832c1.9136-1.5296.96-3.1872.96-3.1872l3.1232-3.7056 2.0416.1536s3.52.8896 4.6656 4.1984c2.272-6.336-1.408-10.5344-1.7152-10.8416z"/></g><path d="m29.44 8.99199c.5568.2432.9856.6144 1.3888.9472-2.7776-9.561599-11.8016-8.4864-11.9872-8.4288.2176-.3392 1.0176-.8576 1.76-1.1328 0 0-3.8336-1.3504-7.3216 1.0432.064-.5504.7424-1.3759999.7424-1.3759999-4.81918 2.0479999-5.12638 4.4991999-4.19838 5.9711999-.7744-.3648-1.5424-.704-2.3168-1.0752-2.3808-1.1328-4.41601-2.0864-4.54401-2.112-.2176-.064-.30719.032-.30719.032s-.096.0896.0896.2752c2.8096 2.7904 4.6016 4.4736 7.59678 7.20001-.49278 1.1008-.55678 1.6576-.3072 2.2336.3392.7936.3072 1.1968.1856 1.7152-.1536.5184-1.38878 5.1456-1.60638 5.6704-.2176.5504-1.856 2.3872-1.8816 3.0016-.032.6144.4608 3.3088 1.1456 3.7056.5248.2752 1.792.8576 2.71998.9792.3072.064.6208.032.7744-.0896.6208-.3968.7744-.4608 1.1712-.4288l.0896.032c.1536.032.3392.0896.5888.1216.5248.064 1.2032.064 1.76-.3072.8064-.6144 2.1632-1.376 2.624-1.7792.5568-.5504.928-1.3184.928-2.176 0-.768.5248-1.376 1.1136-1.9904.5568-.5504 1.9456-1.9008 2.5024-2.4832 1.4208.4928 1.9456 2.5152 1.9456 3.616 0 3.0656-2.5024 7.5392-8.2496 7.872-.2176 0-.4352.032-.6784.032-7.47519 0-13.59358-6.5536-13.59358-14.2464 0-6.06721 3.6736-10.17601 3.7056-10.20801-2.9696 2.7968-4.729605 6.68801-4.729605 11.04001 0 8.4544 6.918395 15.3216 15.449585 15.3216 8.5312 0 15.4496-6.8672 15.4496-15.3216 0-2.7584-.7104-5.4208-2.0096-7.65441zm-21.10078-1.9648c-.4352-.3648-.864-.736-1.2992-1.1008.5888.3072 1.1712.6144 1.696.8896 1.60638.8256 2.93758 1.5616 3.18078 1.7472 0 0 .032.032.064.064.1536.1856.3072.4928.032.8896-.1536.2176-.3392.1536-.6208-.032-.2432-.16-1.56798-1.2032-3.05278-2.4576zm8.99198 15.92961c0 .5184-.2496.9792-.5568 1.3184-.1536.1536-.7744.5504-1.2032.8256-.4352.3072-.896.5824-1.2672.8576-.1536.0896-.4032.1536-.8064.0896l-.96-.1216c.5888-.5824 2.1952-1.8368 2.72-2.0864.6208-.3072.9856-.6464.7104-1.3504-.2496-.736-1.2032-.704-1.2032-.704s.5888-.1536 1.0496-.0896c-.5888-.2432-1.3888-.1856-1.792.0896-.4352.3072-.5568 1.5616-.832 2.3296-.2752.7936-.896 1.1328-1.824 1.7792-.5248.3392-.864.4288-1.1136.3968-.52479-.1536-1.14558-.4288-1.57438-.6464-.2496-.4608-.5568-1.9008-.5888-2.4832.1216-.3072.62079-.9216.86399-1.2864.4928-.672.7744-1.0752.896-1.44.21759-.5184 1.11359-3.8016 1.45279-5.1776.3392.5824.8064 1.5616.5888 2.112 1.1136-1.1648.6208-2.5408.3712-3.0976-.2176-.5504-.4608-1.6256.032-2.6624.4608-1.0432 2.0672-3.85921 2.0672-3.85921s.2752.736.864.672c.5568-.064 5.9008-6.0032 5.9008-6.0032s.832 2.7584-.7104 4.4416-2.8416 1.8688-2.8416 1.8688 1.728.5504 3.52-.3648c.4608 1.65761.864 3.37281.864 3.58401-.1216.2176-1.856 3.0976-2.0096 3.2768-.064.064-.5568.1216-.864.1216-.5568.0896-.896.1216-1.0496.2176-.2496.1536-1.6704 2.816-2.3488 4.1024-.6208.0896-1.2352.3072-1.728.8896.2496-.1216.96-.1216 1.4848-.1216.4608.032 1.728.9472 1.8816 2.3872.0064.1088.0064.1088.0064.1344zm-3.616 1.2864c.3392-.3648.4032-1.0752.4608-1.2864.064-.2176.1856-.6144.4608-.6464s.864.1536.8064.6144c-.064.4288-.5248.4608-.896.672-.2432.16-.7744.5888-.832.6464zm13.44.4032c-.3712-3.9232-3.0912-5.76-4.2944-6.3744 1.3888-.1536 4.9728-1.2224 2.9952-6.6496.064.2432.6208 2.944-.96 4.352-1.6064 1.44-3.9552.8256-4.2304.8256-.2496-.032-1.4208 1.1008-3.0272 3.2768-.1536-.0896-.8064-.3392-1.6064-.3072.8064-1.504 2.0096-3.648 2.1952-3.8272.064-.064.5888-.1216.896-.1536.6208-.064.928-.1216 1.0496-.2432.064-.0896.4928-.768.928-1.504.2752.032 1.0176.0896 1.1136.064.064-.064.896-1.5296.928-1.7152.032-.1216-.5568-2.41921-.928-3.89121 7.6288 3.58401 8.832 11.48801 4.9408 16.14721z" fill="#1c324f"/><path d="m19.8016 6.41279c.864-.768.7424-2.0864.7424-2.0864l-2.592 2.848c-.0384.0064.768.16 1.8496-.7616z" fill="#1c324f"/><path d="m10.0992 22.6239.4352-1.2223s-1.33118 1.6831-1.45278 1.9327c-.1216.2752-.064.7936.3712.8256s1.01758-.5184 1.08158-.9472c.0896-.5888-.4352-.5888-.4352-.5888z" fill="#1c324f"/><path d="m14.176 15.2064c.928-.0896 2.592-.8256 3.3088-1.408.7104-.6144.5888-1.9584-.5248-2.3616.3712-.6144.9856-1.90082.9856-1.90082s-3.9872 4.62722-4.2944 4.68482c-.3072.064-.4352-1.1008-.4352-1.1008-.9216 2.24.6528 2.7904.96 2.0864z" fill="#1c324f"/><path d="m14.5153 14.624 2.0672-2.6048s.896.6144.3072 1.3184c-.736.8256-2.3744 1.2864-2.3744 1.2864z" fill="#ffd925"/><path d="m20.0192 3.01437-1.4208 1.5296c-1.1456.3392-2.2528.9472-3.3088 1.9584 0-.576 1.7024-3.1232 4.7296-3.488z" fill="#d82423"/><path d="m21.8112 4.33279c.032-.3968 0-.8576-.064-1.2864 1.856.2432 4.0448 1.3184 6.5472 3.7376-2.0672-1.1328-4.2624-2.176-6.4832-2.4512z" fill="#d82423"/><path d="m22.368 6.32318s6.8864 3.0016 8.1536 11.43042c.1856-10.96962-7.6608-11.52002-8.1536-11.43042z" fill="#d82423"/><path d="m12.3264 1.48477c-.0896.2432-3.98716 4.384.864 6.0032-2.656-2.3616-.896-5.9776-.864-6.0032z" fill="#d82423"/><path d="m14.3936 6.8416s.4032-4.6848 3.2448-5.945604c-.2176.064-5.9904 1.811204-3.2448 5.945604z" fill="#d82423"/></g></svg>