<svg xmlns="http://www.w3.org/2000/svg" width="32" height="32" fill="none"><defs><linearGradient id="aave__a" x1="27.835" x2="4.217" y1="6.043" y2="25.915" gradientUnits="userSpaceOnUse"><stop stop-color="#B6509E"/><stop offset="1" stop-color="#2EBAC6"/></linearGradient></defs><path fill="url(#aave__a)" d="M16 31.872c8.766 0 15.872-7.106 15.872-15.872S24.766.128 16 .128.128 7.234.128 16 7.234 31.872 16 31.872Z"/><path fill="#fff" d="M22.944 22.323 17.574 9.35c-.3-.672-.755-.998-1.344-.998h-.473c-.595 0-1.043.326-1.344.998l-2.336 5.652H10.31a.967.967 0 0 0-.96.96v.012c.007.525.436.96.96.96h.948l-2.228 5.39a1.222 1.222 0 0 0-.064.37c0 .301.096.538.263.724.166.185.41.275.71.275a.949.949 0 0 0 .55-.186c.173-.121.289-.288.385-.486l2.457-6.087h1.703a.967.967 0 0 0 .96-.96v-.025a.971.971 0 0 0-.96-.96h-.91L16 10.323l5.107 12.698c.096.198.211.371.384.486a.96.96 0 0 0 .55.186c.301 0 .538-.09.711-.275.173-.186.262-.423.262-.724a.913.913 0 0 0-.07-.37Z"/></svg>