<svg fill="none" height="32" viewBox="0 0 32 32" width="32" xmlns="http://www.w3.org/2000/svg" xmlns:xlink="http://www.w3.org/1999/xlink"><linearGradient id="a" gradientUnits="userSpaceOnUse" x1="27.8353" x2="4.21698" y1="6.04306" y2="25.9149"><stop offset="0" stop-color="#b6509e"/><stop offset="1" stop-color="#2ebac6"/></linearGradient><path d="m16 31.872c8.7659 0 15.872-7.1061 15.872-15.872 0-8.76587-7.1061-15.872009-15.872-15.872009-8.76587 0-15.872009 7.106139-15.872009 15.872009 0 8.7659 7.106139 15.872 15.872009 15.872z" fill="url(#a)"/><path d="m22.944 22.3232-5.3696-12.97281c-.3008-.672-.7552-.9984-1.344-.9984h-.4736c-.5952 0-1.0432.3264-1.344.9984l-2.336 5.65121h-1.7664c-.52477.0064-.95997.4288-.95997.96v.0128c.0064.5248.4352.96.95997.96h.9472l-2.22717 5.3888c-.0384.1216-.064.2432-.064.3712 0 .3008.096.5376.2624.7232s.4096.2752.7104.2752c.19837-.0064.39037-.064.55037-.1856.1728-.1216.288-.288.384-.4864l2.4576-6.0864h1.7024c.5248-.0064.96-.4288.96-.96v-.0256c-.0064-.5248-.4352-.96-.96-.96h-.9088l1.8752-4.6656 5.1072 12.6976c.096.1984.2112.3712.384.4864.16.1216.3584.1792.5504.1856.3008 0 .5376-.0896.7104-.2752s.2624-.4224.2624-.7232c0-.128-.0192-.256-.0704-.3712z" fill="#fff"/></svg>