<svg fill="none" height="32" viewBox="0 0 32 32" width="32" xmlns="http://www.w3.org/2000/svg" xmlns:xlink="http://www.w3.org/1999/xlink"><linearGradient id="a" gradientUnits="userSpaceOnUse" x1="30.2041" x2="6.59592" y1="32" y2="2.84082"><stop offset="0" stop-color="#5a81ff"/><stop offset=".524" stop-color="#e40c5b"/><stop offset="1" stop-color="#ff4c3b"/></linearGradient><path d="m16 31c8.2843 0 15-6.7157 15-15 0-8.28427-6.7157-15-15-15-8.28427 0-15 6.71573-15 15 0 8.2843 6.71573 15 15 15z" fill="#fff"/><path clip-rule="evenodd" d="m16 32c8.8366 0 16-7.1634 16-16 0-8.83657-7.1634-16-16-16-8.83657 0-16 7.16343-16 16 0 8.8366 7.16343 16 16 16zm.0653-1.502c8.007 0 14.498-6.491 14.498-14.498 0-8.00699-6.491-14.49796-14.498-14.49796-8.00698 0-14.49795 6.49097-14.49795 14.49796 0 8.007 6.49097 14.498 14.49795 14.498zm-.0653-1.1102c7.3938 0 13.3878-5.994 13.3878-13.3878 0-7.39383-5.994-13.38776-13.3878-13.38776-7.39383 0-13.38776 5.99393-13.38776 13.38776 0 7.3938 5.99393 13.3878 13.38776 13.3878zm.0327-1.6327c6.5101 0 11.7877-5.2776 11.7877-11.7878 0-6.51012-5.2776-11.78771-11.7877-11.78771-6.51022 0-11.7878 5.27759-11.7878 11.78771 0 6.5102 5.27758 11.7878 11.7878 11.7878zm-.6653-21.31174 8.5339 14.80464.915-1.5876-7.6187-13.21704zm-8.18373 13.19034 7.30393-12.67109.0151.02612.0144-.02494 8.6557 15.01601h-1.8302l-2.1867-3.7935c-.9937-.3142-2.0516-.4836-3.1491-.4836-.5658 0-1.1179.0395-1.6546.1184l1.054-1.8257c.199-.0098.3993-.0147.6006-.0147.6705 0 1.3283.0543 1.9692.1587l-3.4739-6.0267-6.40329 11.1085zm4.96553-.1926 3.282-5.6938-.915-1.5875-5.66049 9.8199h1.83019l.0174-.0302c1.5697-.9451 3.371-1.4228 5.3379-1.4228 1.256 0 2.4601.2218 3.5753.6286l-1.2261-2.1238c-.7739-.1512-1.5606-.2271-2.3492-.2267-1.3611 0-2.67.2236-3.892.6363z" fill="url(#a)" fill-rule="evenodd"/></svg>