<svg xmlns="http://www.w3.org/2000/svg" width="32" height="32" fill="none"><defs><linearGradient id="aca__a" x1="30.204" x2="6.596" y1="32" y2="2.841" gradientUnits="userSpaceOnUse"><stop stop-color="#5A81FF"/><stop offset=".524" stop-color="#E40C5B"/><stop offset="1" stop-color="#FF4C3B"/></linearGradient></defs><path fill="#fff" d="M16 31c8.284 0 15-6.716 15-15 0-8.284-6.716-15-15-15C7.716 1 1 7.716 1 16c0 8.284 6.716 15 15 15Z"/><path fill="url(#aca__a)" fill-rule="evenodd" d="M16 32c8.837 0 16-7.163 16-16S24.837 0 16 0 0 7.163 0 16s7.163 16 16 16Zm.065-1.502c8.007 0 14.498-6.491 14.498-14.498S24.073 1.502 16.065 1.502C8.058 1.502 1.567 7.993 1.567 16s6.491 14.498 14.498 14.498ZM16 29.388c7.394 0 13.388-5.994 13.388-13.388S23.394 2.612 16 2.612 2.612 8.606 2.612 16 8.606 29.388 16 29.388Zm.033-1.633c6.51 0 11.787-5.277 11.787-11.788 0-6.51-5.277-11.787-11.787-11.787-6.51 0-11.788 5.277-11.788 11.787 0 6.51 5.277 11.788 11.788 11.788Zm-.666-21.312 8.534 14.805.915-1.588-7.618-13.217h-1.83Zm-8.183 13.19 7.304-12.67.015.026.014-.025 8.656 15.016h-1.83l-2.187-3.794a10.428 10.428 0 0 0-3.15-.483 11.5 11.5 0 0 0-1.654.118l1.054-1.826a12.212 12.212 0 0 1 2.57.144l-3.474-6.026L8.1 21.22l-.915-1.587Zm4.965-.192 3.282-5.694-.915-1.587-5.66 9.82h1.83l.017-.03c1.57-.946 3.371-1.423 5.338-1.423 1.256 0 2.46.221 3.575.628l-1.226-2.123a12.219 12.219 0 0 0-2.349-.227c-1.36 0-2.67.223-3.892.636Z" clip-rule="evenodd"/></svg>