<svg fill="none" height="32" viewBox="0 0 32 32" width="32" xmlns="http://www.w3.org/2000/svg"><path d="m16 32c8.8366 0 16-7.1634 16-16 0-8.83656-7.1634-16-16-16-8.83656 0-16 7.16344-16 16 0 8.8366 7.16344 16 16 16z" fill="#fff"/><g fill="#001039"><path d="m12.9751 10.2633c1.0035-1.7563 1.9934-3.52168 3.0205-5.2633 1.0384 1.69986 1.9809 3.45729 3.0114 5.1628.145.2436.2131.5253.1953.8082.0474 2.0046.0147 4.0092.0056 6.0138-1.0727-.3571-2.2161-.4486-3.332-.2666-1.1159.1821-2.171.6322-3.0746 1.3118-.0124-2.0893.0011-4.1774-.0068-6.2667-.079-.5071-.0165-1.0262.1806-1.5z"/><path d="m10.5574 14.4587c.0451 3.2011.0191 6.4044.0135 9.6066h-5.56913c1.57457-2.8162 3.262-5.5669 4.84223-8.3796.2325-.412.4492-.8342.7134-1.227z"/><path d="m21.4462 14.4689c.296.4365.5695.8878.8195 1.3522.6896 1.1885 1.3917 2.3703 2.061 3.5713.8714 1.5689 1.8274 3.0904 2.6751 4.6729h-5.5658c-.0056-3.1988-.0248-6.3987.0102-9.5964z"/><path d="m15.9482 18.8291c1.0428-.2195 2.1298-.0565 3.0622.4594.2856.1265.1817.4685.2032.7145-.0215 1.3545.0271 2.709-.0249 4.0623h-6.0917c-.1747-.542-.2366-1.114-.1819-1.6809.0548-.5668.225-1.1164.5002-1.615.5649-.947 1.4714-1.6414 2.5329-1.9403z"/></g></svg>