<svg xmlns="http://www.w3.org/2000/svg" width="32" height="32" fill="none"><path fill="#fff" d="M16 32c8.837 0 16-7.163 16-16S24.837 0 16 0 0 7.163 0 16s7.163 16 16 16Z"/><path fill="#001039" d="M12.975 10.263C13.98 8.507 14.97 6.742 15.995 5c1.039 1.7 1.982 3.457 3.012 5.163.145.243.213.525.195.808.048 2.005.015 4.01.006 6.014A6.988 6.988 0 0 0 12.8 18.03c-.012-2.09.001-4.177-.007-6.267a2.788 2.788 0 0 1 .181-1.5Zm-2.418 4.196c.045 3.2.02 6.404.014 9.606H5c1.575-2.816 3.263-5.567 4.843-8.38.232-.411.45-.834.713-1.226Zm10.889.01c.296.436.57.888.82 1.352.69 1.189 1.391 2.37 2.06 3.571.872 1.57 1.828 3.09 2.676 4.673h-5.566c-.006-3.199-.025-6.398.01-9.596Zm-5.498 4.361a4.437 4.437 0 0 1 3.062.459c.286.126.182.468.204.714-.022 1.355.027 2.709-.025 4.062h-6.092a4.173 4.173 0 0 1 .318-3.296 4.31 4.31 0 0 1 2.533-1.94Z"/></svg>