<svg fill="none" height="32" viewBox="0 0 32 32" width="32" xmlns="http://www.w3.org/2000/svg"><circle cx="16" cy="16" fill="#e21c2a" r="16"/><g clip-rule="evenodd" fill-rule="evenodd"><path d="m22.3859 6.05825c-1.62-2.55502-3.8678-4.14082-6.3859-4.15826-5.0362.02576-9 6.35616-9 14.10331 0 3.8688.99283 7.3911 2.61366 9.945 1.62054 2.5539 3.86824 4.1409 6.38634 4.1503 2.518-.0094 4.7659-1.5964 6.3859-4.1503 1.621-2.5539 2.6141-6.0762 2.6141-9.945 0-3.87-.9931-7.39123-2.6141-9.94505z" fill="#1f211d"/><path d="m24.0201 10.6111c-.4446-1.66348-1.0894-3.15716-1.8824-4.40363-.8013-1.24836-1.7423-2.25773-2.779-2.95393-1.0368-.68638-2.1649-1.06836-3.3587-1.06836s-2.3219.38198-3.3587 1.06836c-1.0367.6962-1.9777 1.70557-2.77899 2.95393-.79305 1.24647-1.43778 2.74015-1.88243 4.40363-.4442 1.6544-.68838 3.479-.68838 5.3967 0 3.8186.98531 7.289 2.57081 9.784.80129 1.2477 1.74229 2.2566 2.77899 2.9529 1.0368.6876 2.1649 1.0688 3.3587 1.0688s2.3219-.3812 3.3587-1.0688c1.0367-.6963 1.9777-1.7052 2.779-2.9529 1.5855-2.495 2.5708-5.9654 2.5708-9.784 0-1.9177-.2442-3.7423-.6884-5.3967z" fill="#e21c2a"/><path d="m15.9999 29.0249c-4.452-.0263-7.93264-5.8805-7.93264-13.017 0-7.14485 3.48064-13.00015 7.93264-13.02526 4.4521.02511 7.9328 5.88041 7.9328 13.02526 0 7.1365-3.4807 12.9907-7.9328 13.017z" fill="#1f211d"/><path d="m16.0001 8.34538c2.9885 0 5.5797 1.62082 6.9132 4.00482-.3575-1.942-.9758-3.68263-1.8041-5.09122-1.3149-2.23183-3.1225-3.58806-5.1091-3.59718-1.9867.00912-3.7943 1.36535-5.1092 3.59718-.8282 1.40859-1.44662 3.14922-1.80399 5.09122 1.33339-2.384 3.92469-4.00482 6.91319-4.00482z" fill="#fff"/><path d="m16 23.6617c-2.9885 0-5.5712-1.6201-6.90424-4.0048.34845 1.9427.96684 3.6821 1.79504 5.0833.6619 1.1109 1.4372 2.0193 2.3084 2.6384.8625.6277 1.8078.9674 2.8008.9674.9931 0 1.9383-.3397 2.8008-.9674.8712-.6191 1.6466-1.5275 2.3084-2.6384.8282-1.4012 1.4466-3.1406 1.795-5.0833-1.333 2.3847-3.9157 4.0048-6.9042 4.0048z" fill="#fff"/><path d="m18.6101 23.7272c-.4866.1629-.7591.5334-.5676 1.0752.129.3682.5164.5941.9932.436.1664-.0575.3478-.1576.4059-.3456l.0097.0049c.1598.465 0 .6552-.1924.7515-.1902.0896-.3654.0437-.479-.0897l-.0013-.0022-.3204.2159c.1857.2709.5339.3538.9178.2248.4494-.1503.8061-.5785.5063-1.4292-.1083-.3111-.4112-1.1294-1.2722-.8416zm.408 1.1301c-.1858.0611-.4353.0621-.5512-.2675-.1105-.3144.1391-.4633.2637-.5016.2536-.0838.4288.0285.5186.2769.0916.263-.0603.4342-.2311.4922z" fill="#1f211d"/><path d="m16.1391 7.77591c.5088 0 .968-.21224 1.2854-.55172l-.3764-.33539c-.2253.23874-.549.38984-.909.38984-.6824 0-1.2362-.53786-1.2362-1.20282 0-.66895.5538-1.20776 1.2362-1.20776.36 0 .6837.1518.909.39035l.3755-.33729c-.3196-.33789-.7757-.55042-1.2845-.55042-.9639 0-1.7456.76295-1.7456 1.70512 0 .93793.7817 1.70009 1.7456 1.70009z" fill="#1f211d"/><path d="m18.5413 6.39862.3729 1.89923c.0889.03686.1752.07159.2637.1116l.5283-1.26486.5534 1.83037c.2166.13621.4291.28608.6313.44351l-.9602-3.16204-.2999-.23072-.4331 1.0429-.3601-1.66901-.4165-.27072-.8698 2.77897c.1629.03153.324.06671.4846.10826z" fill="#1f211d"/><path d="m12.264 7.97922 1.5166-.58758.1928.624c.1572-.0416.3186-.07628.4799-.10781l-.858-2.77895-.6277.39333-1.9777 3.99309c.2486-.20043.5131-.38686.7857-.55845zm1.0458-2.10423.3265 1.05222-1.0518.40728z" fill="#1f211d"/><path d="m16.651 24.1023c-.512.0433-.8685.3359-.8202.9069.0345.3839.3531.6991.8553.6564.1771-.0132.3752-.0678.4804-.2326l.0075.005c.0373.489-.1673.6365-.3764.6783-.2065.0458-.3641-.0389-.4401-.1959v-.0037l-.3647.135c.1098.3006.4291.464.8321.4322.4715-.0383.9254-.3676.8491-1.2631-.0254-.3287-.1149-1.1907-1.023-1.1185zm.1149 1.1891c-.1968.0175-.4398-.0383-.4702-.3871-.0264-.3349.2514-.4159.3848-.4246.2637-.0217.4081.1265.431.3917.0242.2778-.1673.4081-.3456.42z" fill="#1f211d"/><path d="m14.6929 24.0183c-.4524-.0796-.8483.0984-.9178.4943-.0395.2128.0431.3773.2313.5054-.4226.0919-.4767.3992-.498.5151-.0576.3167.1031.7439.7701.862.6845.116.9763-.3039 1.0304-.5955.0528-.2992-.0593-.4684-.2877-.6237.2257-.0578.3465-.2147.3828-.4138.0559-.3195-.1769-.651-.7111-.7438zm.1103 1.7151c-.0287.1598-.1902.344-.4557.296-.2325-.0396-.3882-.2163-.3474-.442.0443-.248.28-.3189.4666-.2835.2838.0443.3675.2659.3365.4295zm.1226-1.0035c-.0301.1638-.1857.264-.3869.2297-.2197-.0402-.3249-.212-.3015-.3459.0309-.1724.1929-.2653.4225-.227.1631.0295.2973.1663.2659.3432z" fill="#1f211d"/><path d="m12.2322 23.7922-.0695-.0235-.0987.2759.0033.0009-.0487.1334.0951.0346c.2512.0876.4226.0876.5371.0411l-.5173 1.4788.4933.1629.7614-2.1722-.4483-.1523c-.0347.1008-.3341.3426-.7077.2204z" fill="#1f211d"/><path d="m20.9094 17.0942v4.2511c1.2374-1.0778 2.1003-2.5711 2.3618-4.2511z" fill="#fff"/><path d="m16.4056 23.1531c.6099-.0342 1.2016-.1444 1.7594-.3057v-5.7532h-1.7594z" fill="#fff"/><path d="m23.2361 14.6757c-.3044-1.5835-1.1369-2.9802-2.3267-4.0061v4.0061z" fill="#fff"/><path d="m16.4056 14.6757h1.7594v-5.51554c-.5666-.16087-1.1495-.27107-1.7594-.3053z" fill="#fff"/><path d="m20.91 10.6622h-.0091c.0031.0026.006.0053.0091.0079z" fill="#fff"/><path d="m9.53958 19.4441v-6.882c-.56626 1.0277-.89712 2.1984-.89712 3.4457 0 1.239.33086 2.4098.89712 3.4363z" fill="#e21c2a"/><path d="m18.5489 9.28732v5.77008h-2.1439v1.6548l2.1439.0089v5.9988c.7132-.2538 1.3761-.6199 1.9691-1.0688v-4.93h2.8134c.0261-.2383.0348-.4752.0348-.7132 0-.3221-.0263-.6448-.0699-.9505h-2.7783v-4.7011c-.593-.44965-1.2559-.81444-1.9691-1.06898z" fill="#e21c2a"/><path d="m13.6605 22.7962c.4447.1444.8977.2464 1.3766.3142v-14.21364c-.4789.05934-.9319.17029-1.3766.31467z" fill="#e21c2a"/><path d="m10.9163 21.1752c.4184.3905.8715.7211 1.3676 1.0107v-12.36403c-.4961.28003-.9492.61883-1.3676 1.00993z" fill="#e21c2a"/></g></svg>