<svg xmlns="http://www.w3.org/2000/svg" width="32" height="32" fill="none"><circle cx="16" cy="16" r="16" fill="#E21C2A"/><path fill="#1F211D" fill-rule="evenodd" d="M22.386 6.058C20.766 3.503 18.518 1.918 16 1.9c-5.036.026-9 6.356-9 14.103 0 3.87.993 7.391 2.614 9.945 1.62 2.554 3.868 4.141 6.386 4.15 2.518-.009 4.766-1.596 6.386-4.15C24.006 23.394 25 19.872 25 16.003c0-3.87-.993-7.39-2.614-9.945Z" clip-rule="evenodd"/><path fill="#E21C2A" fill-rule="evenodd" d="M24.02 10.611c-.444-1.663-1.09-3.157-1.882-4.404-.802-1.248-1.743-2.257-2.78-2.953-1.036-.687-2.164-1.069-3.358-1.069s-2.322.382-3.359 1.069c-1.036.696-1.977 1.705-2.779 2.953-.793 1.247-1.437 2.74-1.882 4.404a20.89 20.89 0 0 0-.689 5.397c0 3.818.986 7.289 2.571 9.784.802 1.247 1.743 2.256 2.78 2.953 1.036.687 2.164 1.069 3.358 1.069s2.322-.382 3.359-1.07c1.036-.696 1.977-1.704 2.779-2.952 1.585-2.495 2.57-5.966 2.57-9.784a20.89 20.89 0 0 0-.688-5.397Z" clip-rule="evenodd"/><path fill="#1F211D" fill-rule="evenodd" d="M16 29.025c-4.452-.026-7.933-5.88-7.933-13.017 0-7.145 3.48-13 7.933-13.025 4.452.025 7.933 5.88 7.933 13.025 0 7.136-3.481 12.99-7.933 13.017Z" clip-rule="evenodd"/><path fill="#fff" fill-rule="evenodd" d="M16 8.345c2.989 0 5.58 1.621 6.913 4.005-.357-1.942-.976-3.682-1.804-5.091C19.794 5.027 17.987 3.671 16 3.662c-1.987.009-3.794 1.365-5.11 3.597-.827 1.409-1.446 3.15-1.803 5.091C10.42 9.966 13.012 8.345 16 8.345Zm0 15.317c-2.989 0-5.571-1.62-6.904-4.005.348 1.943.967 3.682 1.795 5.083.662 1.111 1.437 2.02 2.308 2.639.863.627 1.808.967 2.801.967.993 0 1.938-.34 2.8-.967.872-.62 1.647-1.528 2.31-2.639.827-1.401 1.446-3.14 1.794-5.083-1.333 2.385-3.916 4.005-6.904 4.005Z" clip-rule="evenodd"/><path fill="#1F211D" fill-rule="evenodd" d="M18.61 23.727c-.486.163-.759.534-.567 1.075.129.369.516.595.993.436.166-.057.348-.157.406-.345l.01.005c.16.465 0 .655-.193.751-.19.09-.366.044-.48-.09v-.002l-.32.216c.185.271.533.354.917.225.45-.15.806-.579.506-1.43-.108-.31-.41-1.129-1.272-.84Zm.408 1.13c-.186.061-.435.062-.551-.267-.11-.315.139-.463.264-.502.253-.084.428.029.518.277.092.263-.06.434-.23.492ZM16.14 7.776c.508 0 .967-.212 1.284-.552l-.376-.335c-.225.239-.549.39-.909.39-.682 0-1.236-.538-1.236-1.203 0-.67.554-1.208 1.236-1.208.36 0 .684.152.91.39l.375-.337a1.762 1.762 0 0 0-1.285-.55c-.964 0-1.745.763-1.745 1.705 0 .938.781 1.7 1.745 1.7Zm2.401-1.377.373 1.899c.09.037.175.071.264.111l.528-1.264.554 1.83c.216.136.429.286.63.443l-.96-3.162-.3-.23-.432 1.043-.36-1.67-.417-.27-.87 2.779c.163.031.324.067.485.108L18.54 6.4ZM12.264 7.98l1.517-.588.192.624c.158-.042.319-.077.48-.108l-.858-2.78-.627.394-1.978 3.993c.248-.2.513-.387.786-.558l.488-.978Zm1.046-2.105.326 1.052-1.051.407.725-1.459Zm3.341 18.227c-.512.044-.868.336-.82.907.034.384.353.7.855.657.177-.014.375-.068.48-.233l.008.005c.037.489-.167.637-.376.678-.207.046-.364-.039-.44-.196v-.003l-.365.135c.11.3.429.464.832.432.471-.038.925-.368.849-1.263-.025-.329-.115-1.19-1.023-1.119Zm.115 1.19c-.197.017-.44-.039-.47-.388-.027-.335.251-.416.384-.424.264-.022.409.126.431.391.025.278-.167.409-.345.42Zm-2.073-1.274c-.452-.08-.848.099-.918.495-.04.212.043.377.231.505-.422.092-.476.4-.498.515-.057.317.104.744.77.862.685.116.977-.304 1.03-.595.054-.3-.058-.469-.287-.624a.494.494 0 0 0 .383-.414c.056-.32-.177-.65-.711-.744Zm.11 1.715a.378.378 0 0 1-.456.296c-.232-.04-.388-.216-.347-.442.044-.248.28-.319.467-.283.284.044.367.266.336.43Zm.123-1.003c-.03.164-.186.264-.387.23-.22-.04-.325-.212-.302-.346.031-.173.193-.266.423-.227.163.03.297.166.266.343Zm-2.694-.938-.07-.023-.098.276h.003l-.048.134.095.035c.25.087.422.087.537.04l-.518 1.48.494.162.761-2.172-.448-.152c-.035.1-.334.342-.708.22Z" clip-rule="evenodd"/><path fill="#fff" fill-rule="evenodd" d="M20.91 17.094v4.251a7.096 7.096 0 0 0 2.361-4.25H20.91Zm-4.504 6.059a7.948 7.948 0 0 0 1.759-.306v-5.753h-1.76v6.06Zm6.83-8.477a7.037 7.037 0 0 0-2.327-4.006v4.006h2.327Zm-6.83 0h1.759V9.16a8.066 8.066 0 0 0-1.76-.305v5.82Zm4.504-4.014h-.01l.01.008v-.008Z" clip-rule="evenodd"/><path fill="#E21C2A" fill-rule="evenodd" d="M9.54 19.444v-6.882a7.116 7.116 0 0 0-.898 3.446 7.1 7.1 0 0 0 .898 3.436Zm9.009-10.157v5.77h-2.144v1.655l2.144.01v5.998a7.356 7.356 0 0 0 1.969-1.069v-4.93h2.813a6.783 6.783 0 0 0-.035-1.664h-2.778v-4.7a7.356 7.356 0 0 0-1.97-1.07ZM13.66 22.796c.445.145.898.247 1.377.314V8.897a7.36 7.36 0 0 0-1.377.314v13.585Zm-2.744-1.621c.419.39.872.721 1.368 1.01V9.823c-.496.28-.95.619-1.368 1.01v10.343Z" clip-rule="evenodd"/></svg>