<svg xmlns="http://www.w3.org/2000/svg" width="32" height="32" fill="none"><path fill="#fff" d="M16 32c8.837 0 16-7.163 16-16S24.837 0 16 0 0 7.163 0 16s7.163 16 16 16Z"/><path fill="#001EB7" d="M29.24 11.592h-2.055V9.536h-.65v2.056H24.48v.649h2.055v2.056h.65v-2.056h2.055v-.649Zm-6.175 2.903a.763.763 0 1 0-1.523 0 .71.71 0 0 0 .025.122l-3.073 2.659.539-7.92 2.56-4.095.344 4.9a.767.767 0 1 0 .613.027l-.383-5.44a.748.748 0 0 0 .062-1.119.762.762 0 0 0-1.3.539c.005.05.015.101.03.15L12.6 7.66a.742.742 0 0 0-.357-.1.76.76 0 0 0-.703 1.052l-8.62 8.629a.753.753 0 0 0-.852.152.762.762 0 0 0 .54 1.3.743.743 0 0 0 .354-.099l5.495 3.47-1.197 4.414-1.971-3.865a.744.744 0 0 0 .156-.44.761.761 0 1 0-.761.762.716.716 0 0 0 .077-.016l2.075 4.067a.749.749 0 0 0-.077 1.107.757.757 0 0 0 1.302-.462l8.977.083a.755.755 0 1 0 1.08-.747l4.428-11.76a.754.754 0 0 0 .52-.712Zm-1.158.634.015.01-4.008 10.643.52-7.65 3.473-3.003Zm-4.678 11.754-5.15-3.253 5.707-4.936-.557 8.189Zm-5.69-3.593-2.375-1.5 2.227-8.21 7.003-3.796-.548 8.054-6.305 5.453Zm6.972-14.264-6.9 3.74 1.034-3.814a.75.75 0 0 0 .359-.63.726.726 0 0 0-.032-.154l8.1-3.238-2.56 4.096Zm-6.528.005.009.002-1.122 4.134-6.583 3.569 7.696-7.705Zm-8.65 9.077a.73.73 0 0 0 .036-.176l-.001-.005 7.282-3.947-2.026 7.468-5.29-3.34Zm5.663 4.296 2.062 1.303-3.155 2.729 1.093-4.032Zm-.839 4.617 3.44-2.975L16.43 27.1l-8.273-.078Z"/></svg>