<svg fill="none" height="32" viewBox="0 0 32 32" width="32" xmlns="http://www.w3.org/2000/svg" xmlns:xlink="http://www.w3.org/1999/xlink"><linearGradient id="a"><stop offset="0" stop-color="#af50ff" stop-opacity="0"/><stop offset="1" stop-color="#af50ff"/></linearGradient><linearGradient id="b" gradientUnits="userSpaceOnUse" x1="14.6902" x2="5.55289" xlink:href="#a" y1="4.7809" y2="12.0335"/><linearGradient id="c" gradientUnits="userSpaceOnUse" x1="17.677" x2="25.5736" xlink:href="#a" y1="29.668" y2="23.1339"/><linearGradient id="d" gradientUnits="userSpaceOnUse" x1="-3.63132" x2="26.7321" y1="41.9643" y2="25.5738"><stop offset="0" stop-color="#af50ff"/><stop offset="1" stop-color="#6000ff"/></linearGradient><linearGradient id="e" gradientUnits="userSpaceOnUse" x1="18.6167" x2="26.1059" xlink:href="#a" y1="5.0126" y2="7.80845"/><circle cx="16" cy="16" fill="#fff" r="16"/><path d="m15.1789 3.2057-2.4966 6.44478c-.0291.07741-.0194.15483.0193.22256l2.3321 4.16106-6.39636 3.2998c-.07742.0387-.17419.0097-.21289-.0581l-1.39347-2.6224c-.04838-.0871-.03871-.1935.01935-.2806l8.07047-11.18646c.0194-.02903.0678-.00967.0581.01936z" fill="#6000ff"/><path d="m12.6726 9.72794c0-.02903.0096-.04838.0193-.07741l2.4966-6.4351c.0097-.02904-.0387-.04839-.058-.02904l-8.0802 11.18641c-.01935.0194-.02903.0484-.0387.0678z" fill="url(#b)"/><path d="m17.3175 30.9589 1.4612-4.79c.029-.0774.0193-.1548-.0194-.2226l-2.3321-4.161 6.3964-3.2998c.0774-.0387.1742-.0097.2129.058l1.3838 2.6225c.0484.0871.0387.1935-.0194.2806l-7.035 9.5414c-.0194.029-.0678 0-.0484-.0291z" fill="#6000ff"/><path d="m17.3659 30.9879 7.035-9.5413c.0194-.0194.0291-.0484.0387-.0678l-5.6512 4.7126c0 .0291-.0097.0484-.0194.0775l-1.4612 4.79c-.0097.029.0387.0581.0581.029z" fill="url(#c)"/><path d="m18.5466 1.03812 5.8835 10.64458c.029.0677.029.1451 0 .2225l-12.2412 17.2732c-.0387.0871-.1742.1161-.2516.0484l-4.83843-6.1351c-.11612-.0968-.1258-.2613-.03871-.3678l11.30254-13.97333c.0387-.04838.0581-.10644.0581-.1645v-7.52859c.0097-.06774.1064-.077417.1258-.01936z" fill="url(#d)"/><path d="m24.4493 11.7794c0-.029-.0097-.0677-.0193-.0967l-5.8836-10.64458c-.029-.058057-.1161-.038703-.1161.01936v7.52859c0 .02903-.0097.05806-.0097.08709z" fill="url(#e)"/><g fill="#fff"><path d="m11.0952 11.044-3.71588 2.874-.32902.4548c-.01935.0194-.02903.0484-.0387.0678z" opacity=".2"/><path d="m20.3657 24.7754 3.6965-2.8644.3484-.4644c.0193-.0194.029-.0484.0387-.0678z" opacity=".2"/><path d="m24.4493 11.7794c0-.029-.0097-.0677-.0193-.0967l-.1065-.1839-5.6996-2.71918z" opacity=".2"/></g></svg>