<svg xmlns="http://www.w3.org/2000/svg" width="32" height="32" fill="none"><defs><linearGradient id="adx__a" x1="14.69" x2="5.553" y1="4.781" y2="12.034" gradientUnits="userSpaceOnUse"><stop stop-color="#AF50FF" stop-opacity="0"/><stop offset="1" stop-color="#AF50FF"/></linearGradient><linearGradient id="adx__b" x1="17.677" x2="25.574" y1="29.668" y2="23.134" gradientUnits="userSpaceOnUse"><stop stop-color="#AF50FF" stop-opacity="0"/><stop offset="1" stop-color="#AF50FF"/></linearGradient><linearGradient id="adx__c" x1="-3.631" x2="26.732" y1="41.964" y2="25.574" gradientUnits="userSpaceOnUse"><stop stop-color="#AF50FF"/><stop offset="1" stop-color="#6000FF"/></linearGradient><linearGradient id="adx__d" x1="18.617" x2="26.106" y1="5.013" y2="7.808" gradientUnits="userSpaceOnUse"><stop stop-color="#AF50FF" stop-opacity="0"/><stop offset="1" stop-color="#AF50FF"/></linearGradient></defs><circle cx="16" cy="16" r="16" fill="#fff"/><path fill="#6000FF" d="M15.179 3.206 12.682 9.65a.256.256 0 0 0 .02.223l2.332 4.161-6.397 3.3c-.077.039-.174.01-.213-.058l-1.393-2.623a.268.268 0 0 1 .02-.28l8.07-11.187c.02-.029.068-.01.058.02Z"/><path fill="url(#adx__a)" d="M12.673 9.728c0-.03.01-.048.019-.077l2.496-6.436c.01-.029-.038-.048-.058-.029L7.05 14.373c-.02.02-.029.048-.038.068l5.66-4.713Z"/><path fill="#6000FF" d="m17.317 30.959 1.462-4.79a.257.257 0 0 0-.02-.223l-2.332-4.16 6.397-3.3c.077-.04.174-.01.212.058l1.384 2.622a.268.268 0 0 1-.02.28l-7.034 9.542c-.02.029-.068 0-.049-.03Z"/><path fill="url(#adx__b)" d="m17.366 30.988 7.035-9.541c.02-.02.029-.049.039-.068l-5.652 4.712c0 .03-.01.049-.019.078l-1.461 4.79c-.01.029.038.058.058.029Z"/><path fill="url(#adx__c)" d="m18.547 1.038 5.883 10.645a.295.295 0 0 1 0 .222L12.19 29.178c-.039.087-.174.116-.252.049L7.1 23.092a.262.262 0 0 1-.039-.368L18.363 8.75a.263.263 0 0 0 .058-.165V1.057c.01-.067.106-.077.126-.019Z"/><path fill="url(#adx__d)" d="M24.45 11.78a.346.346 0 0 0-.02-.097L18.546 1.038c-.029-.058-.116-.039-.116.02v7.528c0 .03-.01.058-.01.087l6.03 3.106Z"/><path fill="#fff" d="M11.095 11.044 7.38 13.918l-.329.455c-.02.02-.029.048-.038.068l4.083-3.397Zm9.271 13.731 3.696-2.864.349-.464c.019-.02.029-.049.038-.068l-4.083 3.396ZM24.45 11.78a.346.346 0 0 0-.02-.097l-.107-.184-5.7-2.72 5.826 3Z" opacity=".2"/></svg>