<svg fill="none" height="32" viewBox="0 0 32 32" width="32" xmlns="http://www.w3.org/2000/svg" xmlns:xlink="http://www.w3.org/1999/xlink"><clipPath id="a"><path d="m5 5h22v22h-22z"/></clipPath><circle cx="16" cy="16" fill="#fff" r="16"/><g clip-path="url(#a)"><path d="m11.8838 22.7398 4.2353-4.235 4.235 4.235 2.518-2.518-4.235-4.235 4.235-4.235-2.518-2.51826-4.235 4.23496-4.2353-4.23496-2.51796 2.51826 4.23496 4.235-4.23496 4.235z" fill="#1b75bc"/><g fill="#3c3c3b"><path d="m14.6487 6.47053-2.4732 2.4732 2.0834 2.08347 1.8603-1.88271 1.86 1.88271 2.0837-2.08347-2.4732-2.4732-1.4705-1.47053z"/><path d="m14.6487 25.5296-2.4732-2.4732 2.0834-2.0835 1.8603 1.8824 1.86-1.8824 2.0837 2.0835-2.4732 2.4732-1.4705 1.4705z"/></g></g></svg>