<svg width="32" height="32" fill="none" xmlns="http://www.w3.org/2000/svg"><circle cx="16" cy="16" r="16" fill="#fff"/><g clip-path="url(#a)"><path d="m11.884 22.74 4.235-4.235 4.235 4.235 2.518-2.518-4.235-4.235 4.235-4.235-2.518-2.518-4.235 4.235-4.235-4.235-2.518 2.518 4.235 4.235-4.235 4.235 2.518 2.518Z" fill="#1B75BC"/><path d="m14.649 6.47-2.473 2.474 2.083 2.083 1.86-1.883 1.86 1.883 2.084-2.083L17.59 6.47 16.12 5l-1.471 1.47ZM14.649 25.53l-2.473-2.474 2.083-2.083 1.86 1.882 1.86-1.882 2.084 2.083-2.473 2.474L16.12 27l-1.471-1.47Z" fill="#3C3C3B"/></g><defs><clipPath id="a"><path fill="#fff" transform="translate(5 5)" d="M0 0h22v22H0z"/></clipPath></defs></svg>