<svg xmlns="http://www.w3.org/2000/svg" width="32" height="32" fill="none"><path fill="#EE306F" d="M16 32c8.837 0 16-7.163 16-16S24.837 0 16 0 0 7.163 0 16s7.163 16 16 16Z"/><path fill="#fff" d="M22.116 10.5c-2.238 0-3.772 1.404-5.097 3.143l.785 1.152c1.215-1.666 2.506-2.98 4.313-2.98a4.17 4.17 0 0 1 4.12 3.48h-5.153v1.315h6.486a5.45 5.45 0 0 0-5.454-6.11"/><path fill="#fff" d="M21.997 20.173c-2.247 0-3.729-1.932-5.61-4.767-1.882-2.835-3.658-4.906-6.413-4.906a5.5 5.5 0 0 0-2.13 10.606 5.501 5.501 0 0 0 2.13.394c2.272 0 3.829-1.41 5.175-3.16l-.792-1.17c-1.235 1.681-2.547 3.004-4.383 3.004a4.174 4.174 0 1 1 0-8.348c2.247 0 3.649 1.834 5.606 4.763 1.958 2.93 3.662 4.91 6.417 4.91a5.593 5.593 0 0 0 5.206-3.51h-1.478a4.256 4.256 0 0 1-3.728 2.184"/></svg>