<svg fill="none" height="32" viewBox="0 0 32 32" width="32" xmlns="http://www.w3.org/2000/svg"><path d="m16 32c8.8366 0 16-7.1634 16-16 0-8.83656-7.1634-16-16-16-8.83656 0-16 7.16344-16 16 0 8.8366 7.16344 16 16 16z" fill="#ee306f"/><g fill="#fff"><path d="m22.1165 10.5002c-2.238 0-3.7722 1.404-5.0979 3.1427l.7857 1.1523c1.2143-1.6665 2.5054-2.9808 4.3122-2.9808.9878-.0019 1.9443.347 2.6989.9846s1.2582 1.5224 1.4213 2.4967h-5.1525v1.3143h6.4856c.0936-.7693.0221-1.5498-.2098-2.2893-.2318-.7395-.6187-1.4211-1.1347-1.9992-.5161-.5782-1.1495-1.0398-1.858-1.3538-.7085-.3141-1.4759-.4735-2.2508-.4675"/><path d="m21.9968 20.1733c-2.2463 0-3.7285-1.9322-5.6099-4.7673-1.8814-2.835-3.6576-4.9058-6.41242-4.9058-.72931-.0112-1.45355.1229-2.13058.3943-.67702.2714-1.29331.6747-1.81299 1.1865s-.93237 1.1219-1.21407 1.7947c-.28169.6728-.42676 1.3949-.42676 2.1243s.14507 1.4515.42676 2.1243c.2817.6728.69439 1.2829 1.21407 1.7947s1.13597.9152 1.81299 1.1866c.67703.2714 1.40127.4054 2.13058.3943 2.27112 0 3.82852-1.4108 5.17502-3.1608l-.7929-1.1694c-1.2342 1.6814-2.5462 3.0039-4.38242 3.0039-.55379.009-1.10382-.0923-1.61806-.298-.51423-.2058-.98239-.5118-1.37718-.9002-.39479-.3885-.70833-.8516-.92234-1.3625-.21401-.5108-.32422-1.0592-.3242-1.613.00002-.5539.11027-1.1022.32431-1.613.21405-.5109.52761-.974.92243-1.3624s.86299-.6944 1.37724-.9001 1.06429-.307 1.61808-.298c2.24624 0 3.64844 1.8337 5.60584 4.7628 1.9574 2.929 3.6616 4.9107 6.4164 4.9107 1.1196.0032 2.2143-.3296 3.1426-.9555.9283-.6258 1.6474-1.5159 2.0642-2.555h-1.4783c-.37.6637-.9109 1.2162-1.5665 1.6002-.6557.384-1.4021.5856-2.1619.5837"/></g></svg>