<svg fill="none" height="32" viewBox="0 0 32 32" width="32" xmlns="http://www.w3.org/2000/svg" xmlns:xlink="http://www.w3.org/1999/xlink"><linearGradient id="a"><stop offset=".67" stop-color="#333"/><stop offset=".82" stop-color="#1a1b1b"/></linearGradient><linearGradient id="b" gradientUnits="userSpaceOnUse" x1="3.4377" x2="13.7761" xlink:href="#a" y1="13.3808" y2="30.6847"/><linearGradient id="c" gradientUnits="userSpaceOnUse" x1="9.72715" x2="26.254" xlink:href="#a" y1="4.08193" y2="12.7226"/><path d="m16 32c8.8366 0 16-7.1634 16-16 0-8.83656-7.1634-16-16-16-8.83656 0-16 7.16344-16 16 0 8.8366 7.16344 16 16 16z" fill="#fff"/><path d="m18.2562 7.1625c1.512 0 2.72.82666 3.1646 1.304.564.606 1.462 1.734 1.0667 3.9113-.1693.9294-.8 1.7267-1.4493 2.3087l2.252 2.2487c1.1506-1.0267 2.2466-2.544 2.5286-4.26.1887-1.1467.402-3.01337-1.264-5.4867-1.0573-1.57067-3.168-2.57334-4.0573-2.83267-1.8847-.55067-4.07-.14533-4.4347-.04-1.504.43467-2.6313 1.11667-3.4593 1.94667l2.3653 2.362c.644-.80467 1.6774-1.42 3.2867-1.462" fill="#ff33b2"/><path d="m20.1048 15.3426c-.8186.512-2.0399.9907-3.7879 1.682l-3.0907 1.1787-.618.2313c-1.6914.6287-4.52002 1.6807-6.01668 3.6533-1.232 1.6227-1.448 3.5374-1.484 4.2854l-.004.084h3.31133l.00667-.0747c.04466-.56.21533-1.6247.85333-2.4653.92665-1.2234 3.27595-2.0967 4.54395-2.5687l1.0387-.3867 3.0867-1.1866c1.6833-.6734 2.8633-1.2634 3.7733-1.764.5034-.2767 1.034-.648 1.54-1.1l-2.252-2.2487c-.3133.28-.6293.5107-.9.68" fill="url(#b)"/><path d="m10.6707 12.4293c.3087 3.0187 2.424 5.57 2.568 5.8153l1.6313 2.7574c.456.7726.8547 1.454 1.1447 1.9733.8947 1.6067 1.0213 2.846 1.018 3.4413v.0814h3.3073v-.08c.0014-1.0867-.24-2.82-1.402-4.904-.2553-.4587-.5933-1.04-.9813-1.698l-1.6267-2.75c-.2173-.3894-1.978-2.6434-2.3053-4.97-.1173-.8334.024-2.3307.924-3.4547l-2.3647-2.362c-1.6993 1.704-2.1293 4.0353-1.9133 6.15z" fill="url(#c)"/></svg>