<svg xmlns="http://www.w3.org/2000/svg" width="32" height="32" fill="none"><defs><linearGradient id="aergo__a" x1="3.438" x2="13.776" y1="13.381" y2="30.685" gradientUnits="userSpaceOnUse"><stop offset=".67" stop-color="#333"/><stop offset=".82" stop-color="#1A1B1B"/></linearGradient><linearGradient id="aergo__b" x1="9.727" x2="26.254" y1="4.082" y2="12.723" gradientUnits="userSpaceOnUse"><stop offset=".67" stop-color="#333"/><stop offset=".82" stop-color="#1A1B1B"/></linearGradient></defs><path fill="#fff" d="M16 32c8.837 0 16-7.163 16-16S24.837 0 16 0 0 7.163 0 16s7.163 16 16 16Z"/><path fill="#FF33B2" d="M18.256 7.162c1.512 0 2.72.827 3.165 1.304.564.607 1.462 1.735 1.067 3.912-.17.93-.8 1.726-1.45 2.309l2.252 2.248c1.15-1.026 2.247-2.544 2.529-4.26.189-1.147.402-3.013-1.264-5.487-1.058-1.57-3.168-2.573-4.058-2.832-1.884-.55-4.07-.146-4.434-.04-1.504.434-2.631 1.117-3.46 1.947l2.366 2.361c.644-.804 1.677-1.42 3.287-1.462"/><path fill="url(#aergo__a)" d="M20.105 15.343c-.819.512-2.04.99-3.788 1.682l-3.09 1.178-.619.232c-1.691.628-4.52 1.68-6.016 3.653-1.232 1.623-1.448 3.537-1.484 4.285l-.004.084h3.31l.008-.074c.044-.56.215-1.625.853-2.466.926-1.223 3.276-2.096 4.544-2.568l1.038-.387 3.087-1.187a33.205 33.205 0 0 0 3.774-1.764 8.471 8.471 0 0 0 1.54-1.1l-2.252-2.248c-.314.28-.63.51-.9.68"/><path fill="url(#aergo__b)" d="M10.67 12.43c.31 3.018 2.425 5.57 2.569 5.815l1.631 2.757c.456.773.855 1.454 1.145 1.973.894 1.607 1.021 2.846 1.018 3.442v.081h3.307v-.08c.001-1.087-.24-2.82-1.402-4.904a83.807 83.807 0 0 0-.981-1.698l-1.627-2.75c-.217-.39-1.978-2.643-2.305-4.97-.118-.833.024-2.33.924-3.455L12.584 6.28c-1.7 1.704-2.13 4.036-1.913 6.15Z"/></svg>