<svg fill="none" height="32" viewBox="0 0 32 32" width="32" xmlns="http://www.w3.org/2000/svg"><path d="m16 32c8.8366 0 16-7.1634 16-16 0-8.83656-7.1634-16-16-16-8.83656 0-16 7.16344-16 16 0 8.8366 7.16344 16 16 16z" fill="#1d0d4b"/><path d="m15.0116 5.55038c-.7737.77367-1.5044 1.59033-1.8912 2.53592-.3869.90262-.5158 1.8912-.3009 2.8368.1719.9456.6017 1.7193 1.2895 2.407.6877.6877 1.5903 1.2035 2.5359 1.8052s2.0201 1.2465 2.8797 2.2351c.8597.9885 1.4184 2.321 1.4614 3.5674.086 1.2465-.2149 2.5789-.9026 3.6105-.6447 1.0745-1.5903 1.8052-2.6219 2.407-.1289.0859-.3008.043-.3868-.086-.086-.1289-.043-.2579.043-.3868.8166-.7307 1.5473-1.5474 1.9771-2.493s.5588-1.9341.3439-2.9227c-.1719-.9886-.6018-1.8052-1.3324-2.45-.6878-.6447-1.5904-1.2035-2.579-1.7622-.9455-.5588-2.0201-1.1605-2.9227-2.1491-.4298-.4728-.8596-1.0316-1.1175-1.6763-.2579-.6017-.4298-1.2894-.4728-1.9342-.086-1.28943.2149-2.62186.9456-3.6964.6877-1.07455 1.6763-1.80523 2.7078-2.364.129-.08596.3009 0 .3868.12895.086.17192.043.30087-.0429.38683zm2.321-.42981c.7307.34385 1.4184.81665 2.0201 1.46137.3009.30088.5588.64473.7737 1.03157.2149.38683.4298.85963.5588 1.28945.1289.4728.1719.94559.1719 1.41844 0 .4728-.129 2.7938-1.4184 3.9113-.3009.2579-.8167.1719-1.0316-.1719-.1719-.2579-.1719-.5588-.043-.8167v-.043c.3439-.6447 1.7623-3.1806.129-5.93145-.4298-.64472-.9456-1.20349-1.5044-1.76225-.0859-.08596-.0859-.25789 0-.38683.129-.04299.2579-.04299.3439 0zm-2.6219 21.83473c-.7307-.3439-1.4184-.8167-2.0201-1.4614-.3009-.3009-.5588-.6447-.7737-1.0745-.2149-.3869-.4298-.8597-.5588-1.2895-.1289-.4728-.1719-.9456-.1719-1.4184s.1289-2.7938 1.4184-3.9113c.3009-.2579.7737-.172 1.0316.1719.1719.2579.1719.5588.0429.8167l-.0429.0429c-.3439.6448-1.7623 3.1807-.129 5.9315.4298.6447.9456 1.2035 1.5044 1.7623.0859.0859.0859.2579 0 .3868-.086.086-.172.086-.3009.043z" fill="#fff"/></svg>