<svg fill="none" height="32" viewBox="0 0 32 32" width="32" xmlns="http://www.w3.org/2000/svg"><path d="m16 32c8.8366 0 16-7.1634 16-16 0-8.83656-7.1634-16-16-16-8.83656 0-16 7.16344-16 16 0 8.8366 7.16344 16 16 16z" fill="#000"/><g fill="#fff"><path d="m5.25094 19.7644c-.05906-.0275-.08859-.0607-.08859-.1-.00058-.0336.01018-.0664.03054-.093.02036-.0267.04913-.0457.08164-.054.07477-.0274.12399-.045.14767-.0528.25318-.041.49478-.1352.70883-.2764.085-.0674.1521-.1547.19537-.2542.04328-.0994.06139-.208.05274-.3162v-5.4567c.00726-.1416-.01279-.2834-.05906-.4175-.04166-.0921-.11812-.164-.21266-.1999-.14496-.054-.29554-.0914-.44889-.1117-.25994-.047-.38992-.1254-.38994-.2352 0-.047.03152-.0804.09454-.1.08083-.0218.16442-.0317.24812-.0294.21267 0 .38398.0039.51392.0117.12994.0079.25397.0138.3721.0177.11812.0041.26382.006.4371.0059.1968 0 .36614-.002.508-.0059.14187-.0039.28757-.0098.43711-.0177.14953-.0077.33068-.0116.54345-.0117.08365-.0023.1672.0076.248.0294.06296.0196.09447.053.09452.1-.00174.0298-.01143.0586-.02805.0834s-.03957.0448-.06647.0577c-.09197.0489-.19202.0808-.29533.0941-.25284.0447-.5017.1096-.7442.194-.09494.0295-.17704.0904-.23285.1726-.05581.0823-.08203.1811-.07434.2802v5.539c-.01579.1948.04336.3883.16539.5409.21792.1484.48289.2112.74422.1764h1.46493c.19181.0039.38245-.0301.56115-.1.1305-.0485.2522-.118.3603-.2057.1303-.105.2474-.2255.3486-.3588.1006-.1517.1895-.3109.2657-.4763.0278-.0731.0614-.1438.1004-.2116.0512-.0941.1044-.1412.1596-.1412.0227-.0002.045.0064.0639.019.019.0126.0337.0306.0423.0517.0228.0435.035.0919.0355.1411-.0005.01-.0024.0199-.0059.0293s-.0055.0194-.0059.0294c-.0553.2041-.1045.3883-.1477.5528-.0433.1646-.0788.3214-.1063.4703-.0277.1491-.0494.3059-.065.4705-.0062.0489-.0201.0966-.0413.1411-.0127.0208-.0313.0375-.0533.0479-.022.0105-.0466.0143-.0708.0109-.3939 0-.7719-.0039-1.1341-.0118-.36231-.0079-.71082-.0138-1.0455-.0176-.33484-.004-.65578-.0099-.96281-.0176-.30711-.008-.61032-.0119-.90962-.0118-.19694 0-.41944.0039-.66749.0118-.24806.0076-.55717.0233-.92735.047-.08273.0036-.16527-.0105-.24219-.0411z"/><path d="m14.4269 19.9113c-.4179.006-.8297-.0995-1.1932-.3057-.3511-.2004-.6426-.4906-.8446-.8408-.2123-.37-.3205-.7906-.3132-1.2171.0004-.3312.0667-.6591.195-.9644.1316-.3161.3175-.6066.5493-.8585.2337-.2568.5144-.4664.827-.6174.3166-.1533.6642-.2317 1.016-.2293.434-.0061.8612.1079 1.2345.3292.3582.2117.6585.5087.8742.8644.2153.3522.3279.7575.3249 1.1702.0014.4487-.1017.8916-.3012 1.2936-.2002.407-.5089.7508-.892.9936-.4445.2685-.9578.4013-1.4767.3822zm.2481-.3527c.2487.0041.4951-.0482.7206-.153.2158-.1048.3904-.2786.4962-.4939.1021-.2064.1661-.4294.189-.6585.0304-.2419.0462-.4854.0473-.7292.0006-.3724-.0695-.7415-.2067-1.0878-.1234-.3274-.3216-.6214-.579-.8584-.2396-.2202-.5546-.3402-.88-.3352-.1956-.0029-.39.031-.573.1-.1859.0795-.3471.2075-.4667.3705-.1629.2083-.2688.4556-.3072.7173-.047.2798-.0707.563-.0708.8467-.0015.3769.0708.7505.2126 1.0996.1252.3248.3232.6164.5789.8526.2272.213.5274.3308.8388.3293z"/><path d="m20.1945 19.9113c-.4178.006-.8297-.0995-1.1932-.3057-.3511-.2004-.6426-.4906-.8446-.8408-.2123-.37-.3205-.7906-.3131-1.2171.0004-.3313.0667-.6591.195-.9644.1315-.3161.3174-.6066.5493-.8585.2336-.2568.5144-.4664.827-.6174.3166-.1533.6642-.2317 1.0159-.2293.434-.0061.8612.1079 1.2346.3292.3581.2117.6584.5087.8742.8644.2153.3521.3278.7574.3249 1.1702.0014.4487-.1018.8916-.3013 1.2936-.2002.407-.5088.7508-.8919.9936-.4446.2685-.9578.4013-1.4768.3822zm.2482-.3527c.2486.0041.495-.0482.7206-.153.2158-.1048.3904-.2786.4961-.4939.1021-.2064.1662-.4294.189-.6585.0304-.2419.0462-.4854.0473-.7292.0007-.3724-.0695-.7416-.2067-1.0878-.1233-.3274-.3216-.6214-.5789-.8584-.2397-.2202-.5547-.3402-.8801-.3352-.1956-.003-.39.031-.573.1-.1859.0795-.347.2075-.4666.3705-.163.2083-.2689.4556-.3072.7173-.0471.2798-.0708.563-.0709.8467-.0014.3769.0708.7504.2127 1.0996.1252.3247.3232.6164.5788.8526.2272.213.5274.3308.8389.3293z"/><path d="m25.4306 19.9113c-.1671.0095-.3343-.0171-.4902-.078s-.2969-.1546-.4135-.2747c-.2368-.2952-.3529-.6693-.3249-1.0467v-2.7283c.002-.0269-.0035-.0539-.0161-.0778-.0125-.0239-.0315-.0438-.0547-.0574-.0983-.0357-.2031-.0498-.3072-.0412h-.0709c-.0395 0-.0729-.0254-.1004-.0765-.027-.0485-.0413-.1031-.0414-.1587.005-.0264.0173-.0508.0355-.0706.0147-.0204.0305-.04.0473-.0587.1574-.1098.3011-.2195.4311-.3293.13-.1097.2482-.2175.3545-.3234s.1949-.202.2658-.2882l.1004-.1c.013-.0133.0287-.0238.0459-.0309.0173-.0071.0359-.0106.0545-.0102.0387-.0001.0769.0079.1122.0235.0355.0158.0493.0511.0413.1058l-.059.5293c-.0077.0319-.0062.0654.0043.0966.0104.0312.0294.0588.0547.0797.069.0365.1468.0528.2246.0471h1.3467c.0314 0 .0591.0255.0826.0764.025.0575.0371.1197.0355.1823.0001.0701-.0119.1398-.0355.2058-.0235.0667-.0512.1-.0826.1h-1.1695c-.1299-.0099-.2604.0061-.384.0471-.0591.0314-.0886.1254-.0886.2822v2.3167c-.0147.2622.0557.522.2008.7409.0667.0892.1545.1607.2555.2078.101.0472.212.0687.3233.0626.1788.0054.3575-.0124.5317-.0529.1222-.0335.238-.0871.3426-.1587.0059-.0069.0131-.0125.0212-.0165.0082-.0041.017-.0064.026-.007.0153 0 .0301.0052.042.0148.0118.0097.02.0231.023.0381.012.036.0179.0737.0178.1117 0 .0393-.065.1177-.195.2352-.1532.1329-.3242.2437-.508.3293-.2117.1025-.4441.1548-.6793.1528z"/></g></svg>