<svg xmlns="http://www.w3.org/2000/svg" width="32" height="32" fill="none"><defs><linearGradient id="akro__a" x1="1.2" x2="30.709" y1="15.984" y2="15.984" gradientUnits="userSpaceOnUse"><stop stop-color="#EF359C"/><stop offset="1" stop-color="#5346E6"/></linearGradient></defs><path fill="url(#akro__a)" fill-rule="evenodd" d="M15.955 0c.554 0 1.159.146 1.661.438l11.432 6.384c1.006.586 1.66 1.608 1.66 2.778v12.816c0 1.12-.654 2.194-1.66 2.78L17.616 31.53a3.26 3.26 0 0 1-1.66.438 3.374 3.374 0 0 1-1.663-.438l-11.43-6.384C1.853 24.56 1.2 23.538 1.2 22.368V9.6c0-1.12.656-2.192 1.662-2.778L14.342.438A3.224 3.224 0 0 1 15.955 0Z" clip-rule="evenodd"/><path fill="#fff" fill-rule="evenodd" d="M15.912 2.611c.654 0 1.269.187 1.846.487l8.725 4.937a3.547 3.547 0 0 1 1.845 3.104v9.837a3.548 3.548 0 0 1-1.845 3.104l-8.725 4.9a3.588 3.588 0 0 1-1.846.487 3.575 3.575 0 0 1-1.845-.486l-8.723-4.9a3.549 3.549 0 0 1-1.845-3.103v-9.84a3.55 3.55 0 0 1 1.845-3.104l8.725-4.938a3.587 3.587 0 0 1 1.845-.486l-.002.001Zm0 1.159a2.438 2.438 0 0 0-1.229.337L5.918 9.008c-.768.448-1.268 1.27-1.268 2.131v9.8c0 .898.5 1.683 1.268 2.131l8.727 4.901c.384.22.822.336 1.267.336.448.005.886-.112 1.269-.336l8.726-4.864c.768-.448 1.269-1.27 1.269-2.131v-9.837c0-.896-.5-1.683-1.269-2.131l-8.726-4.9a2.574 2.574 0 0 0-1.269-.337V3.77Zm.062 3.193c.346 0 .692.074.999.298l6.259 3.499a1.9 1.9 0 0 1 .998 1.675v6.997a1.94 1.94 0 0 1-.998 1.675l-6.26 3.5c-.306.187-.652.26-.998.26-.345 0-.69-.073-.998-.26l-6.26-3.5a1.899 1.899 0 0 1-.998-1.675V12.4c0-.672.384-1.34.999-1.677l6.259-3.499c.307-.187.653-.26.998-.26Zm0 .968a.861.861 0 0 0-.499.149l-6.22 3.5c-.308.185-.5.52-.5.855v7.035c0 .372.192.67.5.856l6.259 3.5a.787.787 0 0 0 .499.148c.192 0 .345-.075.499-.148l6.26-3.5c.305-.185.492-.507.498-.856v-7.035c0-.373-.192-.67-.499-.856L16.474 8.08a.787.787 0 0 0-.5-.149Zm.064 3.384c.19 0 .344.037.496.149l3.226 1.787c.304.184.491.507.498.856v3.615c0 .372-.192.67-.498.856l-3.224 1.788a.787.787 0 0 1-.5.15c-.153 0-.345-.076-.498-.15l-3.224-1.79a1.024 1.024 0 0 1-.498-.856v-3.613c0-.371.192-.669.498-.856l3.224-1.787a.787.787 0 0 1 .499-.149h.001Zm.037.893h-.077l-3.224 1.787-.038 3.688L16 19.547l3.3-1.789.038-3.688-3.264-1.862h.001Z" clip-rule="evenodd"/></svg>