<svg fill="none" height="32" viewBox="0 0 32 32" width="32" xmlns="http://www.w3.org/2000/svg" xmlns:xlink="http://www.w3.org/1999/xlink"><linearGradient id="a" gradientUnits="userSpaceOnUse" x1="1.20001" x2="30.7088" y1="15.9841" y2="15.9841"><stop offset="0" stop-color="#ef359c"/><stop offset="1" stop-color="#5346e6"/></linearGradient><g clip-rule="evenodd" fill-rule="evenodd"><path d="m15.9552 0c.5536 0 1.1584.1456 1.6608.4384l11.432 6.384c1.0064.5856 1.6608 1.608 1.6608 2.7776v12.816c0 1.12-.6544 2.1936-1.6608 2.7792l-11.432 6.3344c-.5024.2912-1.0768.4432-1.6608.4384-.584 0-1.1568-.152-1.6624-.4384l-11.43039-6.384c-1.008-.5856-1.6624-1.608-1.6624-2.7776v-12.768c0-1.12.656-2.192 1.6624-2.7776l11.47999-6.384c.4896-.2848 1.0448-.4368 1.6128-.4384z" fill="url(#a)"/><path d="m15.912 2.61119c.6544 0 1.2688.1872 1.8464.4864l8.7248 4.9376c1.1424.632 1.8464 1.8192 1.8448 3.10401v9.8368c.0016 1.2864-.704 2.472-1.8448 3.104l-8.7248 4.9008c-.576.336-1.192.4864-1.8464.4864-.6528 0-1.2672-.1488-1.8448-.4864l-8.72319-4.8992c-1.1424-.6336-1.8464-1.8192-1.8448-3.104v-9.84c-.0016-1.28481.704-2.47201 1.8448-3.10401l8.72479-4.9376c.576-.336 1.192-.4864 1.8448-.4864zm0 1.1584c-.432.0016-.8576.1184-1.2288.3376l-8.76479 4.9008c-.768.448-1.2688 1.27041-1.2688 2.13121v9.8c0 .8976.5008 1.6832 1.2688 2.1312l8.72639 4.9008c.384.2192.8224.336 1.2672.336.448.0048.8864-.112 1.2688-.336l8.7264-4.864c.768-.448 1.2688-1.2704 1.2688-2.1312v-9.8368c0-.896-.5008-1.68321-1.2688-2.13121l-8.7264-4.9008c-.384-.224-.8448-.336-1.2688-.336zm.0624 3.1936c.3456 0 .6912.0736.9984.2976l6.2592 3.49921c.6144.336.9984.968.9984 1.6752v6.9968c0 .672-.384 1.3408-.9984 1.6752l-6.2592 3.4992c-.3072.1872-.6528.2608-.9984.2608s-.6912-.0736-.9984-.2608l-6.25919-3.4992c-.6144-.336-.9984-.9664-.9984-1.6752v-7.032c0-.672.384-1.3408.9984-1.6768l6.25919-3.49921c.3072-.1872.6528-.2608.9984-.2608zm0 .968c-.1536 0-.3456.0368-.4992.1488l-6.22079 3.49921c-.3072.1856-.4992.5216-.4992.856v7.0352c0 .3712.192.6688.4992.856l6.25919 3.4992c.1536.112.3072.1488.4992.1488s.3456-.0752.4992-.1488l6.2608-3.4992c.304-.1856.4912-.5072.4976-.856v-7.0352c0-.3728-.192-.6704-.4992-.856l-6.2976-3.49921c-.1536-.112-.3072-.1488-.4992-.1488zm.064 3.38401c.1904 0 .344.0368.496.1488l3.2256 1.7872c.304.184.4912.5072.4976.856v3.6144c0 .3728-.192.6704-.4976.856l-3.224 1.7888c-.1536.112-.3072.1488-.4992.1488-.1536 0-.3456-.0752-.4992-.1488l-3.224-1.7904c-.3072-.1856-.4976-.5216-.4976-.856v-3.6128c0-.3712.192-.6688.4976-.856l3.224-1.7872c.1536-.112.3072-.1488.4992-.1488zm.0368.8928h-.0768l-3.224 1.7872-.0384 3.688 3.264 1.864 3.2992-1.7888.0384-3.688-3.264-1.8624z" fill="#fff"/></g></svg>