<svg xmlns="http://www.w3.org/2000/svg" width="32" height="32" fill="none"><defs><clipPath id="alcx__a"><path fill="#fff" d="M0 0h32v32H0z"/></clipPath></defs><g clip-path="url(#alcx__a)"><path fill="#252736" d="M16 31.5c8.56 0 15.5-6.94 15.5-15.5C31.5 7.44 24.56.5 16 .5 7.44.5.5 7.44.5 16c0 8.56 6.94 15.5 15.5 15.5Z"/><path fill="#F5C09A" d="M15.95 32a15.75 15.75 0 0 1-11.287-4.701A16.005 16.005 0 0 1 15.991 0a16 16 0 0 1 .12 32h-.16Zm5.357-6.977a.941.941 0 0 0-.629.22l-.803.65c-.779.631-1.585 1.285-2.413 1.881-.7.502-.904.704-.937 1.976l.002.288c.003.23.005.46-.007.688a.296.296 0 0 0 .035.194c.055.035.12.05.186.043a8.656 8.656 0 0 0 1.192-.097 14.8 14.8 0 0 0 10.849-7.075 14.563 14.563 0 0 0 2.099-9.438 14.507 14.507 0 0 0-1.778-5.586 15.015 15.015 0 0 0-6.025-5.955 15.287 15.287 0 0 0-6.368-1.78l-.018-.001c-.113 0-.136.015-.143.022-.006.006-.028.036-.026.138 0 .001.007 1.432 0 2.148a.411.411 0 0 0 .199.355l9.978 7.897a.84.84 0 0 1 .356.712c-.006 2.48-.005 4.959.001 7.438a.855.855 0 0 1-.34.728l-.44.35c-.239.19-.477.38-.722.563-.163.12-.174.18-.067.358a93.3 93.3 0 0 1 1.323 2.297c.117.208.257.512.124.738-.131.225-.459.252-.694.253l-2.461.002c-.822 0-1.643-.003-2.464-.007l-.009-.152v.152ZM15.301 1.055A14.643 14.643 0 0 0 8.82 2.87a14.955 14.955 0 0 0-7.645 15.204 14.706 14.706 0 0 0 3.863 8.138 14.566 14.566 0 0 0 5.147 3.605 14.08 14.08 0 0 0 5.012 1.137l.126.003c.049.006.098 0 .145-.014.015-.087.02-.174.017-.262l-.002-.601c-.002-.405-.005-.809.01-1.212a.576.576 0 0 0-.26-.527 467.7 467.7 0 0 1-3.943-3.115.89.89 0 0 0-.603-.201c-.875.004-1.746.005-2.616.005l-2.415-.003a.649.649 0 0 1-.607-.249.66.66 0 0 1 .093-.66l.395-.688c.313-.547.626-1.093.948-1.633.136-.229.124-.301-.068-.433-.214-.146-.415-.311-.616-.476a9.943 9.943 0 0 0-.496-.39.804.804 0 0 1-.35-.72c.005-2.479.005-4.958-.002-7.438a.938.938 0 0 1 .397-.795A974.09 974.09 0 0 0 8.296 9.21c2.079-1.65 4.158-3.302 6.26-4.922a5.7 5.7 0 0 0 .617-.574c.188-.192.237-.483.313-2.154a1.746 1.746 0 0 0-.03-.47c-.005-.012-.014-.034-.156-.034Zm1.31 23.977c-.06 0-.085 0-.085.14l-.002 2.125.005-.005.027-.097 1.864-1.47.856-.688-.706-.005h-1.958ZM5.947 13.318l-.005 6.096a.467.467 0 0 0 .196.423 2345.11 2345.11 0 0 1 6.01 4.756l1.942 1.54 1.382 1.084.014-1.748.002-4.564a.313.313 0 0 0-.143-.277 47.69 47.69 0 0 1-.811-.636L6.05 13.275l-.122-.108.018.151Zm1.515 8.9c-.033 0-.057.029-.093.092a355.48 355.48 0 0 1-.935 1.626 2.287 2.287 0 0 0-.06.11.38.38 0 0 1 .09-.006h3.292l-.718-.596a455.09 455.09 0 0 1-1.505-1.2.153.153 0 0 0-.07-.025Zm18.16 1.822L16.074 7.495a2.114 2.114 0 0 0-.097-.158.317.317 0 0 1-.06.158l-1.172 2.037a1918.508 1918.508 0 0 1-3.535 6.109c-.14.237-.124.315.094.486.832.65 1.662 1.305 2.49 1.963.78.619 1.562 1.236 2.346 1.852a.933.933 0 0 1 .387.804c-.007.86-.005 1.722-.003 2.582l.001.433c-.005.09.001.18.018.268.088.012.178.016.267.012h4.286l4.523-.001Zm-3.182-7.995c-.134.106-.147.171-.06.32.815 1.398 1.625 2.8 2.43 4.203l.108.01c.286-.238.577-.472.88-.686a.607.607 0 0 0 .277-.578c-.013-.69-.01-1.382-.009-2.073v-3.957l.005-.113s-2.934 2.326-3.63 2.873ZM16.001 4.51a.51.51 0 0 0-.29.143c-1.94 1.55-3.885 3.094-5.834 4.633l-3.483 2.755a.903.903 0 0 0-.133.107c.965.736 1.862 1.445 2.758 2.154l1.146.907c.033.026.067.048.098.068l.03-.097 5.182-8.962c.155-.268.333-.404.53-.404.195 0 .372.134.525.399l2.48 4.294 2.655 4.619c.025.05.055.098.09.143a.596.596 0 0 0 .08-.054 498.96 498.96 0 0 1 3.758-2.97c.092-.071.115-.101.12-.114a.602.602 0 0 0-.098-.093c-3.123-2.46-6.239-4.927-9.35-7.403a.455.455 0 0 0-.264-.125Z"/></g></svg>