<svg fill="none" height="32" viewBox="0 0 32 32" width="32" xmlns="http://www.w3.org/2000/svg" xmlns:xlink="http://www.w3.org/1999/xlink"><clipPath id="a"><path d="m0 0h32v32h-32z"/></clipPath><g clip-path="url(#a)"><path d="m16 31.5c8.5604 0 15.5-6.9396 15.5-15.5 0-8.56041-6.9396-15.5-15.5-15.5-8.56041 0-15.5 6.93959-15.5 15.5 0 8.5604 6.93959 15.5 15.5 15.5z" fill="#252736"/><path d="m15.9509 32c-2.0999.0083-4.1802-.4033-6.11861-1.2107-1.93845-.8074-3.69589-1.9942-5.16898-3.4907-2.23074-2.2402-3.748049-5.091-4.360531-8.1925-.612481-3.1016-.2926971-6.3151.919011-9.23518 1.21171-2.92006 3.26107-5.41586 5.88955-7.17257 2.62849-1.756714 5.71836-2.69564234 8.87986-2.69834715 4.2348-.00252529 8.2979 1.67390715 11.2989 4.66188715 3.0009 2.98799 4.6949 7.04381 4.7107 11.27861s-1.6479 8.3031-4.6265 11.3134c-2.9785 3.0103-7.029 4.717-11.2637 4.7461zm5.3563-6.9773c-.2296-.0055-.4532.0731-.6289.2211l-.8029.6486c-.7793.6319-1.5851 1.2854-2.4136 1.8819-.7007.5022-.9041.7036-.9365 1.9762l.002.288c.003.23.0049.4589-.0069.6879-.0109.0666.0012.1348.0344.1936.055.0355.1207.0508.1857.0432.3991-.0051.7974-.0376 1.192-.0973 2.2264-.2796 4.3601-1.0618 6.2397-2.2874s3.4559-2.8627 4.6096-4.7872c1.7541-2.8152 2.4947-6.1448 2.0991-9.4381-.2062-1.9637-.8112-3.8646-1.7777-5.58631-1.3951-2.52226-3.4868-4.58966-6.0251-5.95531-1.9674-1.05085-4.1409-1.65847-6.3681-1.78021l-.0177-.00049c-.113 0-.1366.01523-.1435.02211-.0059.00639-.0275.03587-.0255.13758 0 .00148.0069 1.43232 0 2.14824-.0006.07136.0174.14165.0522.20394s.0852.11445.1463.15132l9.9786 7.89673c.1135.08.2054.1869.2675.3112.0621.1242.0924.2619.0882.4008-.0059 2.4794-.0055 4.959.001 7.4387.0071.1398-.0202.2791-.0795.4059-.0592.1268-.1487.2371-.2605.3213l-.4402.3499c-.2388.1906-.4766.3813-.7223.5631-.1622.1199-.174.1798-.0669.3587.454.7577.8914 1.5261 1.3238 2.2966.1169.2083.2565.512.1238.738-.1317.2251-.4589.2516-.6938.2526l-2.4617.002c-.8216 0-1.6428-.0023-2.4637-.0069l-.0089-.1514zm-6.0064-23.96725c-.0825 0-.1857.00688-.3145.01523-2.1626.13594-4.2681.75017-6.16459 1.79839-2.66887 1.45656-4.83038 3.69198-6.19644 6.40828-1.36605 2.71625-1.87174 5.78445-1.44966 8.79545.40471 3.05 1.75582 5.8962 3.8631 8.138 1.43295 1.5617 3.18949 2.7919 5.14699 3.6047 1.5868.6837 3.2859 1.0694 5.0124 1.138l.1258.003c.0488.0055.0982.0004.1449-.0148.0154-.0862.0211-.1739.0172-.2614l-.002-.6014c-.0024-.4049-.0049-.8088.0094-1.2117.0082-.1031-.0115-.2066-.0571-.2994-.0456-.0929-.1153-.1718-.2019-.2283-1.3198-1.0309-2.6342-2.069-3.9432-3.1143-.1693-.1391-.384-.2108-.6029-.2015-.87562.004-1.74583.005-2.61601.005l-2.415-.003c-.11412.0162-.2305.0017-.33716-.042s-.19975-.115-.26967-.2066c-.0445-.1084-.05936-.2268-.04303-.3428.01632-.1161.06322-.2257.1359-.3176l.395-.6879c.313-.5464.626-1.0928.94784-1.6333.13611-.228.12432-.3007-.0683-.4324-.21423-.1464-.4152-.3115-.61617-.4766-.16264-.1337-.32528-.2673-.49578-.3902-.11593-.0788-.20924-.1866-.27069-.3126s-.08891-.2659-.07965-.4058c.00588-2.4794.00522-4.959-.002-7.4387-.00469-.1551.02917-.309.09854-.4478.06937-.1389.17209-.2583.29897-.3477.9842-.7764 1.96627-1.5547 2.94621-2.33501 2.0785-1.65049 4.1574-3.30147 6.259-4.922.2197-.17564.4262-.3673.6176-.57342.1877-.19212.2374-.483.313-2.15414.0115-.15735.0016-.31554-.0294-.47023-.0053-.01183-.0147-.03345-.1567-.03345zm1.311 23.97705c-.0609 0-.0855 0-.0855.1395l-.002 2.1247.0049-.005.0266-.0963 1.8642-1.4711.856-.6869-.7056-.0059h-.9788zm-10.66555-11.7141-.00491 6.0958c-.00714.0815.00721.1633.04161.2375.0344.0741.08765.138.15444.1851 2.00574 1.5822 4.00891 3.1677 6.00941 4.7564l1.9418 1.539 1.3827 1.0849.0138-1.7483.002-4.5638c.0024-.0547-.0096-.1091-.0348-.1577-.0251-.0486-.0626-.0898-.1087-.1194-.2732-.2083-.542-.4216-.8107-.6358l-8.48244-6.7169-.12235-.1081zm1.51487 8.9005c-.03341 0-.057.0276-.09286.0914-.258.455-.93507 1.6255-.93507 1.6255-.026.0452-.04618.0815-.06093.111.02975-.0059.06011-.0082.09042-.0069h3.29213l-.71788-.5955c-.50267-.399-1.00435-.799-1.50505-1.1999-.0211-.0143-.04542-.0231-.07076-.0256zm18.15928 1.821c-.0226-.0412-9.5452-16.54513-9.5452-16.54513-.0197-.03489-.0649-.11253-.0973-.15773-.0052.05699-.0257.1115-.0594.15773l-1.1729 2.03723c-1.1744 2.0381-2.3527 4.0743-3.5349 6.1086-.139.2378-.1238.3154.0944.4864.8323.6506 1.6621 1.3051 2.4892 1.9635.7808.6181 1.563 1.2353 2.3467 1.8515.1265.091.2282.2123.2958.3527s.0991.2955.0914.4511c-.0068.8609-.0049 1.7218-.003 2.5826l.001.4324c-.005.0898.0009.1799.0177.2683.0886.0117.1781.0157.2673.0118h4.2857s4.4724 0 4.5235-.001zm-3.1811-7.9954c-.1346.1061-.1474.172-.06.3204.8147 1.3984 1.6248 2.7994 2.4303 4.2031l.1071.0098c.286-.2378.5769-.4717.8796-.6859.0957-.0607.1725-.147.2217-.2492.0492-.1021.0687-.216.0564-.3287-.0138-.6899-.0108-1.3817-.0089-2.0726v-3.9579l.004-.112s-2.9334 2.3251-3.6302 2.873zm-6.4378-11.53379c-.1101.01462-.2125.06484-.2914.143-1.9394 1.55025-3.8839 3.09476-5.83344 4.63354l-3.48228 2.75455c-.04771.0316-.0923.0676-.13316.1076.96454.7351 1.86128 1.4446 2.75752 2.1537l1.14586.9065c.0329.026.0678.0482.0988.0683l.029-.0968 5.1824-8.96241c.1552-.2678.3336-.40341.5297-.40341.1955 0 .3724.13414.5257.39849l2.4804 4.29403 2.6544 4.6188c.0248.0508.0551.0987.0904.143.0282-.0158.0552-.0339.0805-.0541 1.2461-.9974 2.501-1.9831 3.757-2.9688.0924-.0717.115-.1022.1199-.1145-.0291-.0347-.0621-.066-.0982-.0933-3.1222-2.45978-6.2384-4.9274-9.3488-7.4029-.0719-.06973-.1648-.11377-.2643-.12529z" fill="#f5c09a"/></g></svg>