<svg fill="none" height="32" viewBox="0 0 32 32" width="32" xmlns="http://www.w3.org/2000/svg"><circle cx="16" cy="16" fill="#fff" r="16"/><path d="m16 0c-8.83451 0-16 7.16549-16 16 0 8.8345 7.16549 16 16 16 8.8345 0 16-7.1655 16-16 0-8.83451-7.1655-16-16-16zm10.8675 26.8675c-2.8989 2.9051-6.764 4.5051-10.8675 4.5051s-7.96863-1.6-10.86745-4.5051-4.505099-6.764-4.505099-10.8675 1.599999-7.96863 4.505099-10.86745 6.76395-4.505099 10.86745-4.505099 7.9686 1.599999 10.8675 4.505099c2.8988 2.9051 4.5051 6.76395 4.5051 10.86745s-1.6 7.9686-4.5051 10.8675z" fill="#f5eadd"/><path d="m23.3161 7.94352c-1.4996.03137-2.8424.52705-4.0847 1.33647-.0816-.32-.1192-.65883-.4204-.87216 0-.04392-.0063-.09412-.0063-.13804.2133-.08784.0377-.16314-.0063-.24471-.1317-.75921-.2509-1.51843-.6462-2.20235-.5961-1.02902-1.531-1.50588-2.6479-1.68157-.7216-.11294-1.4557-.14431-2.1835 0-1.3051.25098-2.0706 1.10432-2.4282 2.34039-.2824.99138-.3138 2.00785-.2197 3.03687.0565.63368.1444 1.26118.2636 1.88238.0125.069 0 .1443 0 .2447-.3702-.2071-.709-.4079-1.05415-.5898-1.07294-.5647-2.1898-.9663-3.43215-.9098-.48314.0188-.90981.2133-1.34275.3827.23843-.4329.65883-.5019 1.09804-.57097 1.05412-.15059 2.07686-.01882 3.06824.33887.25725.0941.22588-.0753.22588-.2197-.00628-1.3176.32627-2.55995.95999-3.70819.7655-1.37411 1.8384-2.39686 3.4196-2.76078 1.3804-.31373 2.6667-.04392 3.8212.78431 1.029.7404 1.8259 1.6753 2.3969 2.79843.0753.15059.1443.23844.3325.16314 1.4682-.57098 2.9239-.40157 4.3482.15059 1.2863.49569 2.3906 1.27372 3.3255 2.27765.5271.56475.96 1.20475 1.324 1.88865.0941.1757.1003.2949-.1004.4078-.2698.1569-.5271.3388-.7781.5208-.1192.0878-.2008.069-.2886-.0502-.1192-.1569-.2573-.3012-.3828-.4518-.1066-.7341-.3764-1.3992-.7905-2.0078-.7593-1.11686-1.7506-1.88863-3.1247-2.08314 0 0-.0314-.03137-.0816-.03765-.1192-.18823-.32-.16313-.4957-.19451-.1569-.01882-.0753.10667-.069.16942z" fill="#eedbdf"/><path d="m3.82744 16.3137c-.23843-1.1482-.23843-2.2964-.0502-3.4447.15686-.9411.57098-1.738 1.33647-2.3278.43294-.1694.85961-.3639 1.34275-.3828 1.24235-.0564 2.35921.3451 3.43216.9098.34508.182.69018.3828 1.05408.5898 0-.1066.0126-.1756 0-.2447-.1192-.6211-.207-1.2486-.2635-1.88231-.0941-1.02902-.069-2.04549.2196-3.03687.3514-1.23607 1.1169-2.08941 2.4282-2.34039.7216-.13804 1.4557-.11294 2.1836 0 1.1168.18196 2.058.65255 2.6478 1.68157.3953.68392.5145 1.44314.6463 2.20235 0 .08157.0063.16314.0063.24471 0 .04392.0062.09412.0062.13804.0189.36392.0314.72784.0502 1.12941.1569-.07529.2761-.14431.3702-.25725 1.2424-.80942 2.5851-1.31138 4.0847-1.33648.1883.01255.5396.0251.571.03138 1.3741.18823 2.4534 1.00392 3.2063 2.12074.4141.6087.6839 1.28.7906 2.0079.0376 1.6251-.822 2.7733-1.9953 3.7584-.0879.0753-.1757.1443-.2698.2133-.389.2887-.3765.2761.0063.6087 1.3741 1.1859 2.2713 2.629 2.2462 4.4988-.0188 1.2675-.4455 2.4282-1.2423 3.4133-.822 1.0165-1.9639 1.3616-3.2251 1.2173-2.0016-.2259-3.6392-1.211-5.0635-2.5851-.1883-.182-.251-.2322-.3702.069-.7593 1.8761-1.9828 3.3631-3.8338 4.2479-1.669.7968-3.2251.5145-4.65565-.6149-.92236-.7279-1.57491-1.6251-1.71922-2.811-.13804-1.1294.10039-2.2024.57726-3.2251.05647-.1192.10666-.251.15686-.3702.11921-.1945.23216-.3953.35137-.5836.11294-.1819.06275-.2321-.13804-.2258-.53333.0188-1.06039-.0126-1.58118-.1318-1.30509-.2886-2.30274-.9663-2.90509-2.1898-.16942-.3639-.26353-.7341-.40157-1.0918z" fill="#e98397"/><path d="m3.82745 16.3137c.14431.3577.23216.7279.40157 1.0792.60235 1.2236 1.6 1.9012 2.9051 2.1898.52078.113 1.04784.1444 1.58117.1318.19451-.0063.25098.0439.13804.2259-.12549.1945-.23843.389-.35137.5835-.97882-.2949-1.93255-.6463-2.8298-1.1357-1.05412-.5772-1.90746-1.3553-2.47216-2.4345-.12549-.2447-.0753-.3576.16941-.4392.15686-.0627.30745-.138.45804-.2008z" fill="#eedbdf"/><g fill="#d26c80"><path d="m12.0345 15.6926c-.0063.1631-.0188.3325-.0251.4956-.7592-.3074-1.4996-.6776-2.28392-.9223-1.2047-.3828-2.39686-.502-3.58902.0502-.11921.0565-.23843.1317-.35764.1945-.06275.0314-.13177.0816-.19451.0125-.04392-.0502-.03137-.1192-.01255-.1756.09412-.2322.21961-.4142.46431-.5208 1.16706-.5145 2.34039-.4769 3.53255-.1067.79058.2447 1.53098.5898 2.28388.9224.0565.0188.1193.0313.182.0502z"/><path d="m18.1522 18.3718c.0502-.0816.1004-.1569.1443-.2385.3012.0063.5521.1694.8157.2824 1.1294.4643 2.1835 1.0729 3.2188 1.7192.9286.5773 1.8008 1.2361 2.6729 1.8886.0628.0502.1443.1067.1694.1757.0628.1632.2447.3765.0691.5082-.1757.1318-.2698-.1254-.3765-.2321-1.1231-1.1043-2.4094-1.9828-3.7898-2.7294-.9161-.4957-1.8573-.9537-2.8361-1.3177-.0251 0-.0565-.0313-.0878-.0564z"/><path d="m18.5349 14.7639c-.1004-.0878-.1506-.2008-.182-.3325.6777-.8847 1.4369-1.7004 2.3342-2.3655 1.2674-.9349 2.6854-1.2926 4.2478-1.0165.069.0126.1318.0439.1945.0941-.6839.0189-1.3616.0063-2.0329.2008-1.0918.3137-2.0581.8471-2.8989 1.6-.6149.5459-1.1858 1.142-1.6627 1.8196z"/><path d="m14.4063 19.5639c.1004.0251.2008.0565.3074.0816-.847 1.3114-1.487 2.7545-2.4408 3.9968-.3074.3953-.6525.7592-1.1043.9977-.2008.1066-.4204.1819-.6839.1129 1.8071-1.3615 2.7608-3.3506 3.9216-5.189z"/><path d="m15.2722 12.7749c-.0628.0063-.1193.0063-.182.0126-.1004-2.2087-.4831-4.37338-.9914-6.52554.3953.46432.5773 1.02902.7216 1.59373.2008.77176.2761 1.56863.3325 2.36551.0628.8533.1444 1.7004.1193 2.5537z"/></g><path d="m15.4227 19.702c1.906 0 3.451-1.5451 3.451-3.451s-1.545-3.451-3.451-3.451c-1.9059 0-3.4509 1.5451-3.4509 3.451s1.545 3.451 3.4509 3.451z" fill="#fdebab"/></svg>