<svg xmlns="http://www.w3.org/2000/svg" width="32" height="32" fill="none"><circle cx="16" cy="16" r="16" fill="#fff"/><path fill="#F5EADD" d="M16 0C7.165 0 0 7.165 0 16c0 8.834 7.165 16 16 16 8.834 0 16-7.166 16-16 0-8.835-7.166-16-16-16Zm10.867 26.867A15.259 15.259 0 0 1 16 31.373c-4.104 0-7.969-1.6-10.867-4.506A15.295 15.295 0 0 1 .627 16c0-4.104 1.6-7.969 4.506-10.867A15.295 15.295 0 0 1 16 .627c4.104 0 7.969 1.6 10.867 4.506A15.295 15.295 0 0 1 31.373 16c0 4.104-1.6 7.969-4.506 10.867Z"/><path fill="#EEDBDF" d="M23.316 7.944c-1.5.03-2.842.527-4.085 1.336-.081-.32-.119-.659-.42-.872 0-.044-.006-.094-.006-.138.213-.088.037-.163-.007-.245-.131-.76-.25-1.518-.646-2.202-.596-1.03-1.53-1.506-2.648-1.682-.721-.113-1.455-.144-2.183 0-1.305.251-2.07 1.104-2.428 2.34-.283.992-.314 2.008-.22 3.037a18.5 18.5 0 0 0 .264 1.883c.012.069 0 .144 0 .245-.37-.208-.71-.408-1.055-.59-1.073-.565-2.19-.967-3.432-.91-.483.019-.91.213-1.343.383.239-.433.66-.502 1.098-.571 1.055-.151 2.077-.02 3.069.338.257.095.226-.075.226-.22a7.512 7.512 0 0 1 .96-3.707c.765-1.374 1.838-2.397 3.42-2.761 1.38-.314 2.666-.044 3.82.784a7.694 7.694 0 0 1 2.397 2.799c.076.15.145.238.333.163 1.468-.571 2.924-.402 4.348.15 1.286.496 2.39 1.274 3.326 2.278.527.565.96 1.205 1.323 1.889.095.175.1.295-.1.407-.27.157-.527.34-.778.521-.12.088-.2.07-.289-.05-.119-.157-.257-.301-.382-.452a4.736 4.736 0 0 0-.79-2.008c-.76-1.116-1.752-1.888-3.126-2.083 0 0-.031-.031-.081-.037-.12-.189-.32-.164-.496-.195-.157-.019-.075.107-.069.17Z"/><path fill="#E98397" d="M3.827 16.314a9.353 9.353 0 0 1-.05-3.445c.157-.941.571-1.738 1.337-2.328.433-.17.86-.364 1.342-.383 1.243-.056 2.36.346 3.433.91.345.182.69.383 1.054.59 0-.107.012-.176 0-.245a18.874 18.874 0 0 1-.264-1.882c-.094-1.029-.069-2.046.22-3.037.351-1.236 1.117-2.09 2.428-2.34.722-.138 1.456-.113 2.184 0 1.116.182 2.058.652 2.647 1.681.396.684.515 1.443.647 2.203 0 .081.006.163.006.244 0 .044.006.094.006.138.02.364.032.728.05 1.13.157-.075.276-.145.37-.257 1.243-.81 2.586-1.312 4.085-1.337.189.013.54.025.571.031 1.374.189 2.454 1.004 3.207 2.121a4.77 4.77 0 0 1 .79 2.008c.038 1.625-.822 2.773-1.995 3.758a4.489 4.489 0 0 1-.27.214c-.389.288-.376.276.006.608 1.375 1.186 2.272 2.63 2.247 4.5a5.469 5.469 0 0 1-1.243 3.413c-.822 1.016-1.964 1.361-3.225 1.217-2.001-.226-3.639-1.211-5.063-2.585-.189-.182-.251-.232-.37.069-.76 1.876-1.983 3.363-3.834 4.248-1.67.797-3.225.514-4.656-.615-.922-.728-1.575-1.625-1.72-2.811-.137-1.13.101-2.203.578-3.225.057-.12.107-.251.157-.37.12-.195.232-.396.351-.584.113-.182.063-.232-.138-.226a6.082 6.082 0 0 1-1.58-.132c-1.306-.288-2.304-.966-2.906-2.19-.17-.363-.264-.734-.402-1.091Z"/><path fill="#EEDBDF" d="M3.827 16.314c.145.357.233.728.402 1.079.602 1.223 1.6 1.901 2.905 2.19a6.7 6.7 0 0 0 1.581.132c.195-.007.251.043.138.225-.125.195-.238.39-.351.584-.979-.295-1.933-.646-2.83-1.136-1.054-.577-1.907-1.355-2.472-2.434-.125-.245-.075-.358.17-.44.156-.062.307-.137.457-.2Z"/><path fill="#D26C80" d="M12.034 15.693c-.006.163-.018.332-.025.495-.759-.307-1.5-.677-2.284-.922-1.204-.383-2.396-.502-3.589.05-.119.057-.238.132-.357.195-.063.031-.132.081-.195.012-.044-.05-.031-.12-.012-.175.094-.233.22-.415.464-.521 1.167-.515 2.34-.477 3.533-.107.79.245 1.53.59 2.283.922.057.02.12.032.182.05Zm6.118 2.679c.05-.082.1-.157.145-.239.3.007.552.17.815.283 1.13.464 2.184 1.073 3.219 1.719.929.577 1.8 1.236 2.673 1.888.063.05.144.107.17.176.062.163.244.377.068.508-.175.132-.27-.125-.376-.232-1.123-1.104-2.41-1.983-3.79-2.73-.916-.495-1.857-.953-2.836-1.317-.025 0-.056-.031-.088-.056Zm.383-3.608a.602.602 0 0 1-.182-.333c.678-.884 1.437-1.7 2.334-2.365 1.267-.935 2.685-1.293 4.248-1.017a.432.432 0 0 1 .194.095c-.684.018-1.361.006-2.033.2a7.32 7.32 0 0 0-2.898 1.6c-.615.546-1.186 1.142-1.663 1.82Zm-4.129 4.8c.1.025.201.056.308.081-.847 1.312-1.487 2.755-2.441 3.997-.307.396-.653.76-1.104.998-.201.107-.42.182-.684.113 1.807-1.362 2.76-3.35 3.921-5.19Zm.866-6.789c-.063.006-.12.006-.182.012-.1-2.208-.483-4.373-.991-6.525.395.464.577 1.029.721 1.594.201.771.277 1.568.333 2.365.063.854.144 1.7.12 2.554Z"/><path fill="#FDEBAB" d="M15.423 19.702a3.451 3.451 0 1 0 0-6.902 3.451 3.451 0 0 0 0 6.902Z"/></svg>