<svg fill="none" height="32" viewBox="0 0 32 32" width="32" xmlns="http://www.w3.org/2000/svg" xmlns:xlink="http://www.w3.org/1999/xlink"><clipPath id="a"><path d="m0 0h32v32h-32z"/></clipPath><g clip-path="url(#a)"><path d="m31.4372 16.0001c0 3.0532-.9053 6.0378-2.6016 8.5764s-4.1072 4.5173-6.928 5.6857c-2.8207 1.1683-5.9246 1.4741-8.9191.8784-2.99453-.5956-5.74516-2.0659-7.90408-4.2248s-3.62916-4.9095-4.224803-7.9041c-.595646-2.9945-.289942-6.0983.878453-8.9191 1.1684-2.82077 3.14701-5.23172 5.68562-6.92798 2.53862-1.69625 5.52321-2.601626 8.57641-2.601632 2.0272-.000006 4.0346.399283 5.9075 1.175072 1.873.77579 3.5747 1.91288 5.0082 3.34635s2.5706 3.13526 3.3464 5.00819c.7758 1.8729 1.175 3.8803 1.175 5.9075z" fill="#fff"/><path d="m16 32c-3.1645 0-6.25793-.9384-8.88912-2.6965-2.63118-1.7581-4.68194-4.2569-5.89295-7.1806-1.2109975-2.9236-1.527851-6.1406-.910487-9.2443.617363-3.10373 2.141217-5.95466 4.378857-8.1923s5.08857-3.761494 8.1923-4.378857c3.1037-.617364 6.3207-.3005105 9.2443.910487 2.9237 1.21101 5.4225 3.26177 7.1806 5.89295 1.7581 2.63119 2.6965 5.72462 2.6965 8.88912-.0048 4.242-1.692 8.3089-4.6915 11.3085-2.9996 2.9995-7.0665 4.6867-11.3085 4.6915zm0-30.8742c-2.9418 0-5.8176.87235-8.26366 2.50675-2.44605 1.6344-4.35252 3.95744-5.47831 6.67535-1.12579 2.7179-1.420354 5.7086-.84643 8.5939.57393 2.8853 1.99056 5.5357 4.07075 7.6159 2.0802 2.0802 4.73055 3.4968 7.61585 4.0707s5.876.2794 8.5939-.8464 5.041-3.0323 6.6754-5.4783c1.6344-2.4461 2.5067-5.3219 2.5067-8.2637-.0044-3.9435-1.5729-7.72428-4.3614-10.51278s-6.5693-4.35701-10.5128-4.36142z" fill="#31c77f"/><path d="m21.721 28.1258c-.6698.2905-1.3579.5368-2.0598.7374-.6823.2245-1.3873.3729-2.1021.4424-.3337-.0042-.6637.0704-.9632.2177-.1694.0769-.3579.1014-.5413.0702-.2139-.0331-.4306-.0448-.6468-.0351-.5906.0843-1.1952.1335-1.7928.1897-.3099.0419-.6223.063-.935.0632-.6729-.0315-1.3401-.1375-1.9896-.316-.2262-.0672-.4452-.1566-.6538-.267l-.20756-.1451c-.19141.4493-.57246 1.3739-.57246 1.3739l-.0483-.0241-.00631.0297c2.21063 1.0524 4.63523 1.5778 7.08323 1.5349 2.4479-.0429 4.8526-.6528 7.0251-1.7819l.0868-.1316c-.4554-.7058-.8455-1.4517-1.1653-2.2284-.1653.0992-.3358.1894-.5108.2701z" fill="#fff"/><g fill="#31c77f"><path d="m24.3434 19.5584c-1.061.4948-2.0478 1.1354-2.9316 1.9031-.106.0897-.1929.1999-.2552.3239-.0705.151-.0895.3209-.0542.4837.0331.2983.0448.5987.0352.8988.007.1124.0211.2318.0281.3441-.0002.0473.0164.0932.0468.1294.0218.0223.0492.0383.0793.0464s.0618.008.0918-.0002c.2318-.0162.4643.0173.682.0983.1123.0306.2151.0891.2987.1701.0836.0811.1453.182.1794.2933.0629.1875.0845.3863.0632.5829-.0129.0559-.0059.1145.0197.1658.0257.0513.0685.092.1209.1152.166.071.3155.1757.4389.3074.1235.1318.2182.2877.2783.458.0421.1334.1264.1475.239.1124.3457-.0956.6803-.2274.9982-.3933.7946-.4776 1.596-.941 2.4185-1.3694.7242-.3793 1.4483-.7654 2.2146-1.0745.3742-.151.7586-.2681 1.1426-.3864.9314-1.9831 1.4422-4.1376 1.5001-6.3278-.2239.0835-.4421.18-.6672.2607-2.3749.8192-4.7011 1.7735-6.9671 2.8581z"/><path d="m15.1412 28.6382c.0281-.1544-.0352-.2247-.1758-.2809-.5553-.2351-1.0873-.5219-1.5889-.8567-1.1433-.6621-2.1891-1.4798-3.1073-2.4297-.0212-.0281-.0493-.0492-.0704-.0772-.0844-.1054-.1617-.0773-.26711-.014-.11536.0776-.21254.1793-.28486.298-.07233.1188-.11808.2518-.13412.3899-.01603.1382-.00197.2781.04122.4103s.11449.2534.20899.3554c.11245.1053.225.2036.33738.3019.0985.0914.1829.1967.0915.33-.0385.0524-.0951.0885-.1587.1015-.0637.013-.1299.0018-.18583-.0312-.0703-.028-.14766-.0562-.26011-.1053-.10082.2059-.14238.4358-.12003.664s.10773.4457.24659.6281c.15486.2033.35778.365.59058.4705.6498.307 1.3503.4926 2.067.5478.7043.0057 1.4083-.0271 2.1091-.0983.1859-.0057.3713-.0221.5553-.0493.1125-.0069.1829-.0421.1337-.1755-.0477-.1207-.0575-.2529-.0282-.3793z"/><path d="m22.7459 25.6539c-.1042-.0899-.2231-.1611-.3515-.2107-.0844-.028-.1336.1053-.2179.1475-.0071.007-.0212.007-.0282.014-.0432.0288-.0946.043-.1464.0404-.0519-.0025-.1016-.0215-.1418-.0544-.0394-.0345-.0642-.0828-.0694-.1349-.0053-.0521.0095-.1043.0412-.146.0704-.1334.1547-.2598.218-.3932.0395-.0673.0618-.1433.0648-.2212.0031-.078-.0132-.1555-.0472-.2257-.0341-.0701-.085-.1308-.1482-.1766-.0631-.0458-.1366-.0753-.2139-.0858-.1136-.0255-.2286-.0443-.3444-.0562-.1195-.014-.1758.0351-.1687.1545.0009.1391-.0267.2769-.0812.4049-.0544.1281-.1344.2436-.2352.3395-.5812.6613-1.2265 1.2635-1.9263 1.7978-.5835.4213-1.1249.8917-1.7365 1.271-.0984.0632-.1688.1264-.0703.2458.028.0383.0493.081.0632.1263.0422.1054.0493.2458.1195.316.0985.0913.2391-.021.3445-.007.1577-.0004.3151-.0121.4711-.0351.9656-.1851 1.9135-.453 2.8332-.8005.5637-.1808 1.0833-.4774 1.5256-.8708.2216-.2063.3924-.4611.4991-.7444.0421-.1274.0399-.2653-.006-.3915-.0459-.1261-.133-.2331-.2471-.3037z"/></g><path d="m20.3496 7.00226c-.4392.47775-.8367.99227-1.1881 1.53789-.0774.13345-.0844.21069.0351.32309.2527.19964.4712.43921.6468.70925.0812-.06161.1404-.14781.1687-.24578.1968-.39328.3937-.77945.6187-1.15873.2-.40405.3421-.83431.4218-1.27806.0129-.05762.0153-.11708.007-.17554-.0281-.21069-.1335-.25983-.3093-.14044-.1511.12524-.2858.26916-.4007.42832z" fill="#fefefe"/><path d="m15.9147 28.2871c-.1014.0427-.1873.1154-.2464.2082-.059.0928-.0884.2014-.0841.3114.0281.1896.1758.309.4219.3441.0562.0071.1194.0071.1546.0141.1941.0131.387-.0388.5483-.1475.0391-.0201.0732-.0487.0999-.0835.0268-.0349.0455-.0752.0549-.1181s.0092-.0874-.0005-.1302c-.0098-.0429-.0288-.083-.0559-.1176-.0397-.0776-.0944-.1464-.1609-.2026-.0666-.0562-.1436-.0986-.2267-.1247-.083-.0261-.1705-.0355-.2572-.0275-.0867.0079-.171.033-.2479.0739z" fill="#31c77f"/><path d="m15.4586 14.8676c-.1055.0141-.1478.0633-.1548.1334-.0057.0812.0071.1626.0376.238.0304.0755.0777.143.1382.1974.0179.0228.0422.0397.0698.0484.0275.0088.0571.0091.0849.0008.0337-.0102.0628-.032.0821-.0616.0193-.0295.0276-.0649.0233-.1-.0209-.1503-.0843-.2916-.1827-.4072-.0212-.0281-.0774-.0351-.0984-.0492z" fill="#0e0d0d"/><path d="m16.59 14.8252c-.0187-.0088-.0391-.0134-.0598-.0134-.0207-.0001-.0411.0044-.0599.0131-.0187.0087-.0354.0214-.0487.0372s-.023.0344-.0284.0543c-.0391.0817-.072.1662-.0984.2529-.0212.1193-.0212.2107.0772.2387.1125.0421.1758-.028.211-.1194.0368-.0962.0674-.1947.0914-.2949.0079-.0335.0038-.0688-.0117-.0996-.0154-.0308-.0411-.0552-.0727-.0689z" fill="#191717"/><path d="m31.9884 15.7711c-.8751.3322-1.7525.6584-2.6324.9784-2.0419.7508-4.0292 1.6425-5.9477 2.6685-.7021.3831-1.3599.8424-1.9615 1.3694-.0983.0843-.1968.1825-.2953.2599-.007-.007-.014-.007-.0211-.0141-.0088.0194-.0195.0381-.0318.0556-.022-.4741-.0219-.9506-.0296-1.4251.0153-.6135-.0437-1.2265-.1758-1.8258-.1287-.4598-.1456-.9438-.0493-1.4115.1065-.5108.1184-1.0369.0352-1.552-.0561-.2372-.0634-.4833-.0212-.7233.0983-.466.1268-.9441.0845-1.4186-.0508-.5528-.1592-1.0988-.3234-1.6291-.0276-.0681-.0337-.143-.0173-.2146.0163-.0715.0542-.1364.1086-.1857.1632-.1654.2964-.3578.3938-.5688.6377-1.16952 1.0683-2.44062 1.2724-3.757.0702-.36786.1009-.74218.0915-1.11657.0059-.11438-.016-.22848-.0637-.33261-.0476-.10414-.1197-.19523-.2101-.26554-.0904-.07032-.1965-.11777-.3091-.13834-.1127-.02057-.2287-.01365-.3381.02018-.2402.04451-.468.14035-.6678.28095-.4876.37465-.931.80342-1.3218 1.27807-.471.54072-.9491 1.08143-1.406 1.63617-.0462.07126-.1185.12152-.2013.13992-.0829.01841-.1697.0035-.2417-.04153-.2709-.1337-.5639-.21699-.8646-.24579-1.0484-.14282-2.1155-.0468-3.1215.28089-.0796.044-.1732.05541-.261.03184-.0879-.02358-.1632-.0803-.2101-.15825-.4499-.54071-.9139-1.07446-1.3849-1.60815-.3986-.48132-.8516-.91491-1.3499-1.29211-.2365-.1692-.51778-.26451-.8084-.27387-.16418-.01883-.32934.02602-.46145.1253-.13211.09929-.22112.24545-.2487.40839-.02556.11287-.03737.22842-.03515.34412.01871.63631.10117 1.26915.24615 1.889.22919.88514.5496 1.7441.95605 2.56311.1374.33142.3326.63572.5765.89882.0422.038.0721.0877.0858.1427.0138.0551.0109.113-.0084.1663-.0563.1967-.1055.4003-.1547.604-.2055.7281-.2582 1.4908-.1547 2.2402.055.3888.0574.7832.007 1.1726-.0621.4249-.0502.8573.0351 1.2782.1115.5009.0994 1.0215-.0351 1.5168-.1389.5266-.1982 1.071-.1757 1.6151.0351.5829-.0351 1.1587-.0563 1.7346.0095.3365-.0164.6731-.0773 1.0041-.0902.4204-.0997.8541-.0281 1.2781.0433.2093.0664.4223.069.636l-.0285.0102c-.2043.0665-.39829.161-.57649.281-.01745.0156-.03626.0297-.05621.0421-.30595.2168-.51964.5403-.59902.9069-.07937.3665-.01868.7494.17013 1.0734.03005.0526.04527.1124.04404.173-.00124.0606-.01887.1197-.05104.1711-.15311.2686-.21973.5779-.1908.8858.02893.3078.152.5993.35248.8347.02667.035.0542.0693.08081.1044l-.57257 1.5667.38757.1936.04828.0241s.381-.9246.57245-1.3739l.20757.1451c.2086.1104.4276.1999.6538.267.6495.1786 1.3167.2845 1.9896.316.3127-.0001.6251-.0212.935-.0632.5976-.0562 1.2022-.1054 1.7928-.1896.2162-.0098.4329.002.6468.0351.1834.0311.3719.0067.5413-.0703.2995-.1473.6295-.2219.9632-.2177.7148-.0695 1.4198-.2179 2.102-.4424.7019-.2006 1.39-.4469 2.0599-.7374.175-.0807.3455-.1709.5108-.2702.3197.7768.7097 1.5227 1.1651 2.2286.0185.0216.0383.0419.0594.061.0953-.0504.1907-.1003.2848-.1526-.0041-.1049-.0236-.2087-.0578-.308 0 0-.7091-1.4832-1.0193-2.1354.2696-.2204.4896-.4953.6458-.8066.0285-.0575.0723-.1061.1265-.1404.5856-.2614 1.1895-.4796 1.8068-.6531.71-.3933 1.4131-.7866 2.1302-1.1658.8866-.4872 1.8048-.9145 2.7486-1.2788.1281-.2401.2395-.4898.3556-.7369-.384.1182-.7684.2352-1.1425.3863-.7664.309-1.4905.6952-2.2147 1.0745-.8224.4284-1.6239.8918-2.4184 1.3694-.318.1659-.6526.2977-.9983.3933-.1125.0351-.1969.021-.239-.1125-.06-.1702-.1548-.3262-.2782-.4579-.1234-.1318-.2729-.2364-.4389-.3074-.0525-.0232-.0952-.0639-.1209-.1152s-.0326-.11-.0197-.1658c.0212-.1966-.0004-.3955-.0633-.583-.034-.1113-.0957-.2122-.1793-.2932-.0836-.0811-.1864-.1396-.2987-.1702-.2177-.081-.4503-.1145-.682-.0983-.0301.0082-.0618.0083-.0918.0002-.0301-.0081-.0575-.0241-.0793-.0463-.0304-.0363-.047-.0822-.0469-.1295-.007-.1123-.021-.2317-.028-.3441.0097-.3001-.0021-.6004-.0352-.8988-.0353-.1628-.0163-.3327.0542-.4837.0624-.124.1492-.2342.2552-.3239.8839-.7677 1.8706-1.4083 2.9316-1.9031 2.266-1.0846 4.5922-2.0388 6.9671-2.858.2251-.0808.4433-.1773.6672-.2607.004-.1474.0222-.2912.0222-.4396 0-.0773-.0105-.1519-.0116-.2289z" fill="#231f20"/><path d="m15.0356 29.1929c-.1839.0272-.3694.0437-.5552.0493-.7008.0712-1.4049.104-2.1092.0983-.7166-.0552-1.4171-.2408-2.067-.5478-.2327-.1055-.43565-.2671-.59049-.4704-.13887-.1825-.22425-.4-.24661-.6281-.02235-.2282.0192-.4581.12002-.6641.11249.0491.18982.0773.26013.1053.05593.0331.12214.0442.18575.0312.0637-.013.1203-.0491.1588-.1014.0914-.1334.007-.2387-.0915-.33-.11242-.0984-.225-.1967-.3374-.302-.0945-.102-.1658-.2232-.20899-.3554-.04319-.1321-.05725-.2721-.04121-.4102.01603-.1381.06178-.2711.1341-.3899.07233-.1188.16951-.2205.28486-.2981.10544-.0632.18274-.0914.26714.014.0211.028.0492.0492.0703.0772.9183.9499 1.964 1.7677 3.1074 2.4297.5015.3348 1.0335.6217 1.5889.8568.1406.0562.2039.1264.1757.2808-.0293.1264-.0194.2586.0282.3793.0492.1335-.0212.1686-.1337.1755z" fill="#31c77f"/><path d="m16.709 29.0174c-.1613.1087-.3542.1606-.5483.1475-.0352-.007-.0984-.007-.1546-.0141-.2462-.035-.3937-.1545-.4219-.3441-.0043-.1099.0251-.2186.0841-.3114.059-.0929.145-.1655.2464-.2083.0769-.0408.1612-.0659.2479-.0738.0867-.008.1741.0014.2572.0275s.1601.0685.2267.1247c.0665.0562.1212.125.1609.2025.0271.0346.0461.0748.0559.1177.0097.0428.0099.0873.0005.1302s-.0281.0832-.0549.1181c-.0267.0348-.0608.0633-.0999.0835z" fill="#31c77f"/><path d="m16.9052 27.7467c-.1125.1685-.239.1544-.4077.0702-.1439-.0638-.302-.089-.4586-.073s-.3063.0726-.4343.1643c-.0593.0414-.1294.0649-.2018.0673-.0723.0025-.1439-.016-.2059-.0533-.7108-.341-1.3947-.7354-2.0458-1.1798-.8425-.5693-1.644-1.1971-2.3987-1.8787l-.0001-.0061c-.011-.4331-.0486-1.2611-.0812-1.6265-.0234-.3358-.0045-.6732.0562-1.0043.137-.7171.1725-1.4499.1055-2.177-.06-.6939-.0102-1.393.1476-2.0714.11-.5702.1148-1.1557.014-1.7276-.0278-.1244-.035-.2525-.0211-.3792.0786-.4454.1233-.8962.1337-1.3483.0105.0093.0216.0128.0322.0217.1779.1469.3894.2475.6156.2927.2262.0453.4601.0337.6808-.0335l.0094-.0034c.1732-.0414.3336-.1249.4669-.2432.1332-.1182.2353-.2675.2971-.4346.0395-.0902.0653-.1937.1701-.2112.0297-.0062.0604-.006.09.0006.0461.0122.0949.0084.1386-.0106.0209-.0098.0386-.0251.0514-.0443.0127-.0192.02-.0415.021-.0646.014-.1193-.0774-.1544-.1758-.1755-.5834-.1334-1.1741-.2739-1.7576-.4003-.1901-.0475-.3825-.085-.5764-.1123-.1688-.0211-.204-.0984-.1899-.2529.0659-.7162.2365-1.4188.5062-2.0856.2658-.655.6575-1.25146 1.153-1.75558.0633-.06329.1407-.13342.0984-.23878-.0067-.02236-.0183-.04299-.0338-.06046s-.0346-.03136-.056-.04071c-.0214-.00934-.0446-.01393-.0679-.01342-.0234.0005-.0463.00608-.0673.01634-.1054.035-.1476-.02106-.1968-.09137-.0984-.15448-.2039-.3089-.2952-.47046-.3207-.49726-.673-.97342-1.0546-1.42554-.0816-.09895-.1762-.18637-.2812-.25989-.0534-.0452-.117-.07675-.1852-.09195-.0683-.01521-.1392-.0136-.2067.00467-.0739.03215-.1364.08582-.1794.15401-.0429.06818-.0643.14772-.0614.22826-.0321.2536-.0032.5112.0843.7514.2793.85625.6346 1.68585 1.0615 2.47892.1118.18386-.0261.27666-.0965.40256-.0049.0088-.0118.0166-.016.0258-.1034-.0822-.1854-.1882-.2391-.3089-.6859-1.13005-1.17107-2.37025-1.4341-3.66572-.05489-.34357-.07139-.69217-.04919-1.03937.01593-.28693.11736-.41211.32378-.41687.07823-.00008.15612.01023.23164.03064.25447.08217.48407.22706.66787.42131.6679.61805 1.2373 1.31325 1.842 1.98738.1617.18262.3233.36511.4781.54773.1105.10135.1825.23781.2038.38623.0141.1897.1477.24579.3234.1756l.0122-.00612c.0402-.0144.0786-.03357.1143-.05711.2963-.18327.6306-.29618.9772-.33008l.0032-.00037c.9496-.15542 1.9204-.12426 2.8582.09174.1445.04282.2819.10667.4078.18951.1501.09149.2494.12018.3231.08466.0679-.03278.1145-.11939.1549-.27417.0258-.09023.0742-.1724.1406-.23877.7804-.87079 1.5046-1.79078 2.3622-2.59131.1757-.18722.3923-.3314.6327-.42133.0125-.004.0201-.00256.0322-.006.3884-.11426.5592.0119.5865.42737.0203.80109-.1183 1.59826-.4077 2.34552-.2723.75188-.6062 1.47999-.9984 2.1769-.0792.14483-.1771.27363-.2758.43353l-.0194.03c-.3445-.51269-.3445-.50561-.0844-.99719.3421-.59102.6359-1.20866.8787-1.84693.103-.27168.1578-.55925.1619-.84976.0097-.08668-.0065-.17427-.0466-.25175-.04-.07747-.1021-.14136-.1784-.18361-.0665-.03327-.1426-.04204-.215-.02478-.0847.02237-.1628.06455-.228.12305-.1607.13354-.3133.2766-.4569.4284-.5268.48759-.975 1.05373-1.3287 1.67835-.0564.12646-.2742.18261-.1899.37219.0563.12634.1899.20361.2742.309.5043.59184.893 1.27313 1.1459 2.00833.1533.4733.2616.96.3234 1.4536.028.2529.028.2529-.232.323-.6398.1686-1.2725.3372-1.9123.5057-.0579.0099-.1145.0264-.1687.0491-.1336.0633-.1477.1826-.0212.2599.0406.0157.0766.0413.1049.0744.0282.0331.0478.0727.0569.1152.0354.2078.1376.3984.2911.5429.1535.1444.35.2349.5595.2577.2167.0404.4399.0289.6513-.0335.2114-.0707.3898-.2161.5017-.409.0014-.0045.0037-.0086.0067-.0122.0031-.0036.0069-.0065.0112-.0085s.0089-.0031.0136-.0032.0094.0008.0138.0026c.0087.0006.0173.0031.025.0073-.0137.525.0287 1.05.1266 1.566.0153.1027.0129.2072-.007.309-.1244.6505-.1148 1.3196.0281 1.9663.145.7162.1782 1.4506.0984 2.177-.0408.4175-.0272.8386.0407 1.2526-.0158.8072.0182 1.6145.1019 2.4175-.0051.0879-.0156.176-.0157.264-.017.1922-.0997.3727-.2341.5112-1.0536 1.08-2.1966 2.0689-3.4167 2.9564-.0404.0241-.0781.0523-.1125.0843z" fill="#fff"/><path d="m11.5696 13.7509c-.007-.1545.0774-.2529.211-.2529.0342-.005.069-.0026.1022.0071s.0638.0264.0899.0491.0469.0508.0611.0823c.0141.0315.0213.0658.021.1003 0 .1546-.0633.2388-.211.2458-.0337.0058-.0683.0041-.1013-.0049s-.0636-.0251-.0897-.0471c-.0262-.0221-.0471-.0496-.0615-.0807-.0144-.031-.0218-.0648-.0217-.099z" fill="#231f20"/><path d="m11.4832 9.75512c-.3142-.32111-.55-.71044-.689-1.13764-.191-.49509-.3506-1.00171-.478-1.51684-.0248-.11313-.039-.22835-.0422-.34412 0-.07727-.0141-.16858.0774-.21063.0398-.01122.0821-.00982.1211.00399.039.01382.0728.03937.0967.07316.2952.25945.5489.56261.7523.89892.2461.40027.4921.80054.7523 1.20081.0984.15454.0984.26684-.0493.37225-.2088.19517-.3908.41713-.5413.6601z" fill="#fff"/><path d="m20.0121 9.32665c-.0283.09799-.0875.1842-.1688.24579-.1755-.27003-.394-.50959-.6468-.70923-.1194-.11243-.1124-.18964-.0351-.32312.3514-.54561.7489-1.0601 1.1882-1.53784.1149-.15916.2495-.3031.4007-.42835.1758-.11938.2812-.07025.3093.14045.0083.05846.0059.11792-.007.17553-.0798.44377-.2218.87405-.4219 1.27811-.2249.37924-.4218.76541-.6186 1.15866z" fill="#fff"/><path d="m19.275 13.7508c-.0351.1124-.0563.2318-.1898.2598-.0315.004-.0634.001-.0935-.0086-.0302-.0096-.058-.0256-.0813-.047-.0234-.0213-.0419-.0475-.0542-.0767s-.0181-.0607-.017-.0923c-.0011-.0289.0038-.0577.0144-.0846s.0266-.0513.047-.0718c.0205-.0204.0449-.0364.0718-.047.0269-.0105.0557-.0154.0846-.0144.0531-.0043.1057.0124.1465.0466.0408.0341.0665.083.0715.136z" fill="#231f20"/><path d="m21.1922 24.3056c-.007-.1194.0493-.1684.1688-.1545.1158.0119.2308.0307.3444.0562.0773.0106.1508.04.2139.0858.0632.0458.114.1065.1481.1766.0341.0702.0503.1477.0473.2257-.0031.0779-.0253.1539-.0648.2212-.0633.1333-.1476.2598-.218.3932-.0317.0417-.0465.0939-.0413.146.0053.0521.0301.1003.0694.1349.0403.0328.09.0519.1418.0544.0519.0025.1032-.0116.1465-.0404.007-.007.021-.007.0281-.014.0844-.0422.1336-.1755.2179-.1475.1284.0496.2473.1209.3516.2107.1141.0706.2012.1776.2471.3038.0459.1261.048.264.006.3915-.1067.2833-.2776.538-.4992.7443-.4422.3934-.9619.6901-1.5256.8708-.9197.3476-1.8676.6154-2.8332.8006-.1559.0229-.3134.0346-.471.0351-.1054-.0141-.2461.0982-.3445.007-.0702-.0703-.0773-.2107-.1195-.316-.0139-.0453-.0353-.088-.0632-.1263-.0985-.1194-.0282-.1826.0703-.2458.6116-.3793 1.153-.8498 1.7364-1.2711.6999-.5342 1.3452-1.1364 1.9264-1.7978.1008-.0959.1808-.2114.2352-.3394.0544-.1281.082-.2659.0811-.405z" fill="#31c77f"/><path d="m17.4602 15.6747c-.0352-.0173-.0664-.0417-.0918-.0716-.0253-.03-.0442-.0648-.0554-.1024s-.0146-.0771-.0098-.116c.0048-.039.0175-.0765.0375-.1103.0619-.1998.0787-.4109.0492-.6179-.0102-.1942-.0962-.3765-.2395-.5078-.1433-.1314-.3325-.2012-.5268-.1944-.1267-.0077-.2535.0151-.3697.0664s-.2184.1297-.2982.2285c-.0632-.0351-.1124-.0703-.1546-.0913-.09-.0699-.1962-.116-.3088-.1339-.1125-.018-.2278-.0072-.3351.0313-.1073.0386-.2031.1036-.2786.189-.0754.0854-.1281.1885-.1531.2998-.1084.2453-.1307.52-.0633.7796.0403.0821.0489.1761.0243.2642-.0247.088-.0809.1639-.1579.2132-.1189.11-.2166.241-.2883.3863-.0585.093-.098.1967-.1162.3051s-.0148.2193.01.3264c.0248.107.0706.2081.1347.2974s.1452.165.2387.2228c.0958.0606.164.1564.1899.2668.0678.236.2205.4386.4287.5688.3869.2637.8581.3739 1.3218.309.2086-.02.4085-.0939.5798-.2146.1714-.1207.3084-.2839.3975-.4736.0754-.2046.1927-.3912.3444-.5478.1184-.1307.1836-.3011.1827-.4775.0178-.2093-.018-.4198-.1041-.6115-.0861-.1916-.2196-.3582-.388-.484zm-1.174 2.5004c-.5202.007-1.1248-.1265-1.2513-.625.5061-.0561.5343-.0702 1.0616-.5759.1197.1823.2855.3296.4806.4271.1951.0974.4125.1415.6302.1277-.058.1959-.1806.3664-.3478.4838-.1673.1173-.3693.1745-.5733.1623zm.7373-.9341c-.1449-.0182-.284-.0687-.4068-.1477-.1229-.0789-.2265-.1845-.3032-.3087-.2672-.3933-.2672-.3933-.5132.014-.0833.147-.2071.2669-.3567.3454-.1496.0784-.3187.1121-.4869.097-.1059-.0002-.2095-.0299-.2994-.0859-.0898-.056-.1622-.1359-.209-.2309-.0468-.0949-.0661-.201-.0558-.3064.0104-.1053.0499-.2057.1143-.2897.1048-.1528.2356-.2859.3866-.3933.232-.1755.246-.2106.1476-.4986-.0735-.1829-.1094-.3787-.1055-.5758-.0061-.0908.0139-.1815.0577-.2613s.1095-.1453.1894-.1889.1706-.0634.2614-.057.1779.0386.2509.0929c.0631.035.1123.0843.1686.1194.1407.0842.2602.0912.3445-.0772.1055-.2037.2882-.2108.4781-.1897.0938.0093.1826.0464.2553.1064.0726.0601.1257.1404.1525.2307.0198.0481.0294.0997.0281.1517-.0012.052-.0132.1031-.0352.1502-.0562.1405-.1195.274-.1757.4144-.1336.2879-.1195.3511.1757.4775.1202.0444.2302.1128.3232.2009.0931.0881.1673.1942.2182.3118.0479.0986.069.2081.0613.3175s-.0439.2149-.1051.3058c-.0612.091-.1453.1644-.2437.2127s-.2078.07-.3172.0628z" fill="#030202"/><path d="m17.0868 15.8295c-.2953-.1264-.3094-.1896-.1758-.4775.0563-.1404.1196-.2739.1758-.4144.022-.0471.034-.0982.0352-.1502s-.0084-.1036-.0282-.1517c-.0268-.0903-.0799-.1706-.1525-.2307-.0726-.06-.1615-.097-.2553-.1064-.1898-.0211-.3726-.014-.478.1897-.0844.1685-.2039.1615-.3445.0772-.0563-.0351-.1055-.0843-.1687-.1194-.073-.0543-.1601-.0865-.2509-.0929-.0907-.0064-.1815.0134-.2614.057-.0798.0436-.1456.1092-.1894.1889-.0438.0798-.0638.1705-.0576.2613-.0039.1971.032.3929.1055.5759.0984.2879.0843.323-.1477.4985-.1509.1074-.2818.2405-.3866.3933-.0643.084-.1039.1844-.1142.2897-.0104.1054.009.2115.0557.3064.0468.095.1192.175.2091.2309.0898.056.1935.0858.2993.0859.1683.0151.3373-.0186.4869-.097.1496-.0785.2735-.1984.3567-.3454.246-.4073.246-.4073.5132-.014.0767.1243.1804.2298.3032.3088.1229.079.2619.1294.4068.1476.1094.0072.2188-.0144.3173-.0628.0984-.0483.1824-.1217.2436-.2126.0612-.091.0975-.1965.1051-.3059.0077-.1094-.0134-.2189-.0613-.3175-.0509-.1176-.1251-.2237-.2181-.3118-.0931-.0881-.203-.1565-.3232-.2009zm-1.4526-.3439c-.0277.0083-.0573.008-.0849-.0008-.0275-.0087-.0518-.0256-.0697-.0484-.0605-.0544-.1078-.1219-.1383-.1974-.0304-.0754-.0432-.1568-.0375-.238.007-.0701.0493-.1193.1547-.1334.021.0141.0773.0211.0984.0492.0984.1156.1618.2569.1828.4072.0042.0351-.004.0705-.0233.1-.0193.0296-.0484.0514-.0822.0616zm.9488-.197c-.0352.0914-.0985.1616-.2109.1194-.0984-.028-.0984-.1194-.0773-.2387.0264-.0867.0593-.1712.0984-.2529.0054-.0199.0151-.0385.0284-.0543s.03-.0285.0487-.0372c.0188-.0087.0392-.0132.0599-.0131.0207 0 .0411.0046.0598.0134.0316.0138.0573.0382.0728.069.0154.0307.0195.066.0116.0995-.024.1002-.0545.1987-.0914.2949z" fill="#fff"/><path d="m16.0965 16.9742c-.5273.5057-.5555.5198-1.0616.5759.1264.4985.7311.632 1.2513.6251.204.0121.406-.0451.5733-.1624.1672-.1174.2898-.2879.3477-.4838-.2176.0138-.435-.0303-.6301-.1277-.1951-.0975-.3609-.2448-.4806-.4271z" fill="#fdfdfd"/><path d="m11.8438 13.9826c.1477-.007.211-.0912.211-.2458.0003-.0345-.0069-.0688-.021-.1003-.0142-.0315-.035-.0596-.0611-.0823-.026-.0227-.0567-.0394-.0899-.0491s-.068-.0121-.1022-.007c-.1336 0-.218.0983-.211.2528-.0001.0342.0073.068.0217.0991.0143.031.0353.0585.0614.0806.0262.0221.0568.0382.0898.0471.033.009.0676.0107.1013.0049z" fill="#e7ebeb"/><path d="m19.057 13.5683c-.0289-.0011-.0577.0038-.0846.0144-.0269.0105-.0513.0265-.0718.0469-.0204.0205-.0364.0449-.047.0718s-.0155.0557-.0145.0846c-.001.0316.0048.0631.0171.0923s.0307.0554.0541.0767c.0234.0214.0512.0374.0813.047.0302.0096.0621.0126.0935.0087.1336-.0281.1548-.1475.1899-.2599-.005-.053-.0307-.1019-.0715-.136-.0408-.0342-.0935-.0509-.1465-.0465z" fill="#eff2f2"/></g></svg>