<svg fill="none" height="32" viewBox="0 0 32 32" width="32" xmlns="http://www.w3.org/2000/svg" xmlns:xlink="http://www.w3.org/1999/xlink"><linearGradient id="a" gradientUnits="userSpaceOnUse" x1="4.68626" x2="27.3154" y1="27.3161" y2="4.68689"><stop offset="0" stop-color="#102054"/><stop offset="1" stop-color="#1a45b8"/></linearGradient><linearGradient id="b"><stop offset="0" stop-color="#fff"/><stop offset="1" stop-color="#fff" stop-opacity=".6"/></linearGradient><linearGradient id="c" gradientUnits="userSpaceOnUse" x1="19.393" x2="19.393" xlink:href="#b" y1="6.275" y2="23.4688"/><linearGradient id="d" gradientUnits="userSpaceOnUse" x1="12.6095" x2="12.6095" xlink:href="#b" y1="23.349" y2="6.47532"/><clipPath id="e"><path d="m0 0h32v32h-32z"/></clipPath><g clip-path="url(#e)"><path d="m16 32c8.8366 0 16-7.1634 16-16 0-8.83656-7.1634-16-16-16-8.83656 0-16 7.16344-16 16 0 8.8366 7.16344 16 16 16z" fill="url(#a)"/><path d="m16 6.32538v.00888l.003 6.33134 1.146 2.8636-1.1431-.9536v3.0561c.0059.0089.0119.0148.0178.0237 1.8419 2.3039 4.1399 4.2287 6.7607 5.6324z" fill="url(#c)"/><path d="m16 6.32538v.00888l-.003 6.33134-1.146 2.8636 1.1431-.9536v3.0561c-.006.0089-.0119.0148-.0178.0237-1.8419 2.3039-4.1399 4.2287-6.76069 5.6324z" fill="url(#d)"/><path d="m16 21.514c.8505 0 1.5399-.6895 1.5399-1.5399 0-.8505-.6894-1.5399-1.5399-1.5399s-1.5399.6894-1.5399 1.5399c0 .8504.6894 1.5399 1.5399 1.5399z" fill="#f5cc02"/></g></svg>