<svg fill="none" height="32" viewBox="0 0 32 32" width="32" xmlns="http://www.w3.org/2000/svg" xmlns:xlink="http://www.w3.org/1999/xlink"><linearGradient id="a" gradientUnits="userSpaceOnUse" x1="10.0741" x2="21.9259" y1="0" y2="32"><stop offset="0" stop-color="#303030"/><stop offset=".478347" stop-color="#f1f1f1"/><stop offset="1" stop-color="#303030"/></linearGradient><circle cx="16" cy="16" fill="url(#a)" r="16"/><circle cx="16" cy="16" fill="#000" r="15.1111"/><g fill="#fff"><path d="m8.56667 17.0193 2.80693.002 3.0054-2.323h5.1033l-.757 2.323h2.2702l.7522-2.323h2.5583l1.9031-1.4737h-3.978l2.1835-6.70608h-2.273l-8.6672 6.70608h-3.4263l.9451-2.9025-5.65897 4.3761h6.23397zm12.63273-7.59622-1.2356 3.80162h-3.6789z"/><path d="m10.9199 23.4106h.1743v-.542h.6142v-.1573h-.6142v-.3676h.6699v-.1574h-.8442z"/><path d="m12.3031 22.3362h.3058v1.0742h.1748v-1.2247h-.4806z"/><path d="m13.5364 22.1493c-.123 0-.2122.0807-.2122.2122 0 .1304.0892.2123.2122.2123.1219 0 .2123-.0819.2123-.2123 0-.1315-.0904-.2122-.2123-.2122zm0 .3869c-.0996 0-.1739-.0653-.1739-.1747 0-.1101.0743-.1759.1739-.1759.0989 0 .172.0658.172.1759 0 .1094-.0731.1747-.172.1747z"/><path d="m13.6305 22.3166c0-.0468-.0307-.0702-.09-.0702h-.0924v.2304h.0508v-.0859h.0319l.0488.0859h.0553l-.0532-.0944c.0318-.0097.0488-.0319.0488-.0658zm-.088.0327h-.0436v-.0613h.0436c.0242 0 .0351.0117.0351.0294 0 .0202-.0109.0319-.0351.0319z"/><path d="m14.7771 22.3435h.4233v1.0669h.1743v-1.0669h.4229v-.1578h-1.0205z"/><path d="m16.3731 23.4106h.8441v-.1578h-.6694v-.3842h.6138v-.1573h-.6138v-.3676h.6694v-.1574h-.8441z"/><path d="m18.1643 22.1864-.4362 1.2244h.1856l.1114-.3212h.5306l.111.3212h.1856l-.4378-1.2244zm-.0835.7457.2094-.6048.2098.6048z"/><path d="m20.0847 23.2783-.3486-1.0923h-.299v1.2243h.1747v-1.0612l.3394 1.0612h.2671l.343-1.0741v1.0741h.1747v-1.2243h-.3026z"/><path d="m5.33334 20.7217h.57179l.30224-.341h1.64032l.30264.341h.57179l-1.69434-1.8506zm1.16379-.6638.53062-.5972.53063.5972z"/><path d="m17.7336 18.9283h-.4842v1.794h.4842z"/><path d="m21.7654 20.0347-2.0043-1.1073h-.4894v1.794h.4487v-1.3251l2.4986 1.3764v-1.8453h-.4535z"/><path d="m10.2474 18.9283h-.48467v1.794h2.20197l.1356-.3228h-1.853z"/><path d="m24.2415 20.3993v-.4281h1.966v-.3228h-1.966v-.3975h1.966v-.3228h-2.4502v1.794h2.4243l.09-.3228z"/><path d="m15.1914 18.9283h-2.0733v1.794h.4843v-.5996h1.566c.5819 0 .8074-.2437.8074-.6049 0-.3486-.2461-.5895-.7844-.5895zm-.1154.8712h-1.4737v-.5484h1.4712c.2922 0 .3817.0896.3817.2796 0 .1663-.1255.2688-.3793.2688"/></g><path d="m14.2617 25.3505-.3886.3071h1.4047l.3886-.3071z" fill="#2173b8"/><path d="m15.6665 25.3505-.3885.3071h.6553l.3885-.3071z" fill="#fffffd"/><path d="m16.3225 25.3505-.3886.3071h1.4099l.3885-.3071z" fill="#e12319"/></svg>