<svg xmlns="http://www.w3.org/2000/svg" width="32" height="32" fill="none"><path fill="#3C5BE0" d="M16 32c8.837 0 16-7.163 16-16S24.837 0 16 0 0 7.163 0 16s7.163 16 16 16Z"/><path fill="#fff" d="M27 16.015v.008a.522.522 0 0 1-.063.228c-.14.255-3.491 6.249-10.936 6.249S5.203 16.506 5.064 16.251A.522.522 0 0 1 5 16.023v-.045l.001-.023a.52.52 0 0 1 .054-.189l.002-.004.006-.012C5.203 15.494 8.555 9.5 16 9.5c7.445 0 10.797 5.995 10.936 6.25l.006.012.003.005c.03.059.047.123.053.188v.046l.002.014ZM25.89 16c-.563-.874-2.679-3.793-6.515-4.967a6.07 6.07 0 0 1 2.437 3.63c.263.06.452.296.457.57a.593.593 0 0 1-.437.586.584.584 0 0 1-.665-.29.601.601 0 0 1 .119-.724c-.494-2.223-2.322-3.94-4.574-4.239a.267.267 0 0 1-.05-.011 12.355 12.355 0 0 0-1.325 0 .267.267 0 0 1-.05.011 5.371 5.371 0 0 0-2.43.97.273.273 0 0 1-.416-.31.278.278 0 0 1 .1-.138l.073-.052C8.784 12.213 6.672 15.126 6.11 16c.557.867 2.64 3.74 6.41 4.935a6.037 6.037 0 0 1-2.375-3.77.596.596 0 0 1-.38-.626c.03-.273.24-.49.508-.525a.588.588 0 0 1 .624.377.6.6 0 0 1-.212.703c.43 2.21 2.148 3.927 4.332 4.33.655.054 1.313.054 1.968 0a5.375 5.375 0 0 0 2.245-.992.27.27 0 0 1 .436.189.277.277 0 0 1-.112.254l-.087.065c3.778-1.193 5.865-4.072 6.423-4.94Zm-5.07.017c0 2.697-2.162 4.892-4.82 4.892-2.658 0-4.82-2.195-4.82-4.892 0-2.697 2.162-4.891 4.82-4.891 2.658 0 4.82 2.193 4.82 4.891Zm-.544 0c0-2.392-1.918-4.339-4.276-4.339-2.358 0-4.277 1.946-4.277 4.34s1.919 4.338 4.277 4.338 4.276-1.946 4.276-4.339Zm-2.7-1.343c0 .524-.259 1.012-.69 1.3l.43 2.627a.315.315 0 0 1-.317.379h-1.92a.314.314 0 0 1-.318-.379l.428-2.627a1.573 1.573 0 0 1-.573-1.894c.279-.689 1-1.081 1.72-.937.721.145 1.24.786 1.24 1.531Zm4.347 2.043a6.04 6.04 0 0 1-1.51 3.368.27.27 0 0 1-.462-.1.28.28 0 0 1 .06-.272 5.49 5.49 0 0 0 1.372-3.06.274.274 0 0 1 .301-.242c.15.018.256.155.239.306Zm-9.87-4.868a.278.278 0 0 1 .01.39 5.49 5.49 0 0 0-1.423 2.97.274.274 0 0 1-.31.231.276.276 0 0 1-.229-.313 6.04 6.04 0 0 1 1.567-3.267.27.27 0 0 1 .385-.01v-.001Z"/></svg>