<svg fill="none" height="32" viewBox="0 0 32 32" width="32" xmlns="http://www.w3.org/2000/svg"><path d="m16 32c8.8366 0 16-7.1634 16-16 0-8.83656-7.1634-16-16-16-8.83656 0-16 7.16344-16 16 0 8.8366 7.16344 16 16 16z" fill="#3c5be0"/><path d="m27 16.015v.008c-.0033.0798-.0248.1578-.063.228-.14.255-3.491 6.249-10.936 6.249s-10.798-5.994-10.937-6.249c-.03852-.0701-.06042-.1481-.064-.228v-.045l.001-.023c.00582-.0659.02415-.13.054-.189l.002-.004.006-.012c.14-.256 3.492-6.25 10.937-6.25s10.797 5.995 10.936 6.25l.006.012.003.005c.0294.0588.0474.1225.053.188v.046zm-1.11-.015c-.563-.874-2.679-3.793-6.515-4.967 1.235.8653 2.1038 2.1593 2.437 3.63.263.06.452.296.457.57s-.175.516-.437.586-.535-.05-.665-.29c-.0629-.1169-.0853-.2513-.0638-.3823.0215-.1309.0858-.2511.1828-.3417-.494-2.223-2.322-3.94-4.574-4.239-.017-.0021-.0337-.0057-.05-.011-.4413-.0237-.8837-.0237-1.325 0-.0163.0053-.033.0089-.05.011-.8776.1181-1.7123.4513-2.43.97-.035.0248-.0753.0411-.1177.0474-.0425.0062-.0858.0024-.1264-.0113-.0407-.0136-.0776-.0367-.1076-.0673s-.0524-.0679-.0653-.1088c-.0175-.0555-.0172-.115.001-.1702.0181-.0553.0531-.1035.1-.1378.0242-.0175.0485-.0349.073-.052-3.83 1.177-5.942 4.09-6.504 4.964.557.867 2.64 3.74 6.41 4.935-1.2434-.9079-2.093-2.2565-2.375-3.77-.254-.095-.41-.353-.38-.626s.24-.49.508-.525.526.12.624.377c.0473.1241.0522.2604.0138.3876-.0383.1272-.1177.2381-.2258.3154.43 2.21 2.148 3.927 4.332 4.33.6549.0539 1.3131.0539 1.968 0 .8148-.1531 1.5832-.4926 2.245-.992.0381-.0296.0834-.0484.1312-.0546.0479-.0062.0965.0006.1408.0196.0445.0197.083.0508.1117.0902.0287.0393.0466.0854.0519.1338s-.0023.0974-.0219.1419c-.0195.0446-.0505.0832-.0897.1121l-.087.065c3.778-1.193 5.865-4.072 6.423-4.94zm-5.07.017c0 2.697-2.162 4.892-4.82 4.892s-4.82-2.195-4.82-4.892 2.162-4.891 4.82-4.891 4.82 2.193 4.82 4.891zm-.544 0c0-2.392-1.918-4.339-4.276-4.339s-4.277 1.946-4.277 4.34 1.919 4.338 4.277 4.338 4.276-1.946 4.276-4.339zm-2.7-1.343c0 .524-.259 1.012-.69 1.3l.43 2.627c.0099.0466.009.0948-.0024.1409-.0115.0462-.0334.0892-.0639.1257s-.069.0656-.1124.0851c-.0434.0194-.0907.0288-.1383.0273h-1.92c-.0476.0015-.0949-.0079-.1384-.0274-.0434-.0194-.0819-.0485-.1125-.085s-.0526-.0794-.0642-.1256-.0126-.0944-.0029-.141l.428-2.627c-.612-.411-.852-1.205-.573-1.894s1-1.081 1.72-.937c.721.145 1.24.786 1.24 1.531zm4.347 2.043c-.1396 1.2527-.6676 2.4304-1.51 3.368-.0317.0364-.0727.0635-.1185.0787s-.0948.0178-.142.0076-.0908-.0329-.1262-.0656c-.0354-.0328-.0614-.0745-.0753-.1207-.0146-.0466-.0167-.0963-.0062-.144s.0333-.0918.0662-.128c.7653-.8519 1.245-1.9219 1.372-3.06.0081-.0719.0442-.1377.1006-.1831.0564-.0453.1284-.0665.2004-.0589.15.018.256.155.239.306zm-9.87-4.868c.0525.0507.083.12.0849.193.0019.0729-.025.1437-.0749.197-.7671.8211-1.2638 1.8577-1.423 2.97-.0106.0717-.0492.1362-.1073.1795s-.131.0618-.2027.0515c-.0717-.0116-.1359-.0509-.1787-.1095-.0429-.0586-.061-.1317-.0503-.2035.1757-1.2237.7226-2.364 1.567-3.267.0245-.0262.0539-.0473.0866-.062s.068-.0228.1038-.0237.0715.0053.1049.0183.0639.0325.0897.0574z" fill="#fff"/></svg>