<svg fill="none" height="32" viewBox="0 0 32 32" width="32" xmlns="http://www.w3.org/2000/svg"><path d="m16 32c8.8366 0 16-7.1634 16-16 0-8.83656-7.1634-16-16-16-8.83656 0-16 7.16344-16 16 0 8.8366 7.16344 16 16 16z" fill="#f2e3ee"/><path d="m16 32c8.8366 0 16-7.1634 16-16 0-8.83656-7.1634-16-16-16-8.83656 0-16 7.16344-16 16 0 8.8366 7.16344 16 16 16z" fill="#d9327c"/><path clip-rule="evenodd" d="m15.3502 8.17499c-.1322.09914-.2819.28298-.4013.64125-.112.33616-.7012 2.04856-1.4375 4.18376h4.9777c-.7363-2.1352-1.3255-3.8476-1.4376-4.18376-.1194-.35827-.2691-.54211-.4013-.64125-.1277-.09579-.3219-.17499-.65-.17499s-.5223.0792-.65.17499zm-7.3502 4.82501h3.3958c.8385-2.431 1.5357-4.45605 1.6557-4.81624.214-.64173.5643-1.20789 1.0987-1.60877.539-.40419 1.1781-.57499 1.85-.57499s1.3111.1708 1.85.57499c.5345.40088.8848.96704 1.0987 1.60877.1201.36019.8172 2.38524 1.6558 4.81624h3.3953c.5523 0 1 .4477 1 1s-.4477 1-1 1h-2.7052-2.1158-6.3576-2.1157-2.7057c-.55229 0-1-.4477-1-1s.44771-1 1-1zm0 4c-.55229 0-1 .4477-1 1s.44771 1 1 1h1.3244l-.53496 1.5484-.5332 1.5429-.20109.5818c-.18043.522.0964 1.0917.61837 1.272.52197.1805 1.09144-.0966 1.27189-.6185l.20109-.582.5333-1.543c.2215-.6413.4809-1.3921.7605-2.2016h9.1198c.2796.8095.539 1.5603.7606 2.2016l.5332 1.543.2011.582c.1805.5219.75.799 1.2719.6185.5219-.1803.799-.75.6184-1.272l-.0002-.0004-.2008-.5814-.5333-1.5429-.5349-1.5484h1.3239c.5523 0 1-.4477 1-1s-.4477-1-1-1h-2.0147-2.1159-7.7384-2.1158zm15.0002 6 .9451-.3269c0 .0001 0 .0002-.9451.3269zm0 0c-.9451.3267-.9451.3267-.9452.3266zm-13.99999 0 .9452.3266c-.00005.0001-.00005.0001-.9452-.3266zm0 0c-.94512-.3267-.94509-.3268-.94506-.3269z" fill="#fff" fill-rule="evenodd"/></svg>