<svg xmlns="http://www.w3.org/2000/svg" width="32" height="32" fill="none"><path fill="#F2E3EE" d="M16 32c8.837 0 16-7.163 16-16S24.837 0 16 0 0 7.163 0 16s7.163 16 16 16Z"/><path fill="#D9327C" d="M16 32c8.837 0 16-7.163 16-16S24.837 0 16 0 0 7.163 0 16s7.163 16 16 16Z"/><path fill="#fff" fill-rule="evenodd" d="M15.35 8.175c-.132.1-.282.283-.401.641-.112.336-.701 2.049-1.438 4.184h4.978c-.736-2.135-1.325-3.848-1.438-4.184-.119-.358-.269-.542-.4-.641C16.522 8.079 16.327 8 16 8c-.329 0-.523.08-.65.175ZM8 13h3.396c.838-2.431 1.535-4.456 1.655-4.816.214-.642.565-1.208 1.1-1.609C14.688 6.171 15.327 6 16 6c.671 0 1.31.17 1.85.575.534.4.884.967 1.098 1.609.12.36.817 2.385 1.656 4.816H24a1 1 0 1 1 0 2H8a1 1 0 1 1 0-2Zm0 4a1 1 0 1 0 0 2h1.324l-.535 1.548-.533 1.543-.2.582a1 1 0 1 0 1.89.654l.2-.582.534-1.543.76-2.202h9.12c.28.81.54 1.56.76 2.202l.534 1.543.201.582a1 1 0 0 0 1.89-.654l-.2-.582-.534-1.543L22.676 19H24a1 1 0 1 0 0-2H8Zm15 6 .945-.327L23 23Zm0 0-.945.327L23 23ZM9 23l.945.327L9 23Zm0 0a466.03 466.03 0 0 1-.945-.327L9 23Z" clip-rule="evenodd"/></svg>