<svg xmlns="http://www.w3.org/2000/svg" width="32" height="32" fill="none"><defs><clipPath id="anc__a"><path fill="#fff" d="M0 0h32v32H0z"/></clipPath></defs><g clip-path="url(#anc__a)"><path fill="#1E1E1E" d="M32.005 16c0-8.837-7.164-16-16-16-8.837 0-16 7.163-16 16s7.163 16 16 16c8.836 0 16-7.163 16-16Z"/><path fill="#4BDB4B" d="M25.107 19.341a3.07 3.07 0 1 1-5.32 3.059l-6.443-11.156a3.07 3.07 0 0 1 5.323-3.06l6.44 11.157Z" opacity=".4"/><path fill="#4BDB4B" d="M12.226 22.4a3.07 3.07 0 1 1-5.324-3.059l6.441-11.156a3.07 3.07 0 1 1 5.324 3.059L12.226 22.4Z" opacity=".8"/><path fill="#4BDB4B" d="M18.648 8.154a2.588 2.588 0 0 0-.114-.176c-.018-.028-.036-.053-.053-.082-.038-.053-.08-.102-.12-.15-.025-.03-.05-.062-.076-.09-.037-.042-.076-.08-.114-.118a2.58 2.58 0 0 0-.104-.101 1.247 1.247 0 0 0-.107-.088 2.242 2.242 0 0 0-.134-.107c-.032-.023-.066-.045-.099-.067a5.48 5.48 0 0 0-.16-.102l-.033-.022c-.025-.014-.05-.025-.075-.038a8.575 8.575 0 0 0-.157-.08c-.052-.026-.09-.04-.136-.058-.046-.019-.089-.037-.134-.054l-.16-.053a3.237 3.237 0 0 0-.292-.07 3.083 3.083 0 0 0-.727-.052l-.134.01a2.905 2.905 0 0 0-.741.166l-.138.053a3.008 3.008 0 0 0-.292.14c-.024.012-.049.022-.072.036l-.032.021c-.057.033-.11.069-.164.107-.031.021-.063.041-.093.064-.05.036-.096.074-.143.113-.032.027-.065.053-.096.081a3.654 3.654 0 0 0-.114.11l-.107.107c-.035.037-.058.069-.087.103a2.137 2.137 0 0 0-.106.136c-.024.032-.046.067-.069.1-.035.053-.069.102-.1.156a3.068 3.068 0 0 0-.023 3.094l2.662 4.61 2.663-4.612a3.064 3.064 0 0 0-.02-3.087Z"/></g></svg>