<svg xmlns="http://www.w3.org/2000/svg" width="32" height="32" fill="none"><circle cx="16" cy="16" r="16" fill="#0E0E0E"/><path fill="#006DFF" fill-rule="evenodd" d="m17.383 5.684 6.97 3.581A3.015 3.015 0 0 1 26 11.963v1.633h-2.572v-1.633a.457.457 0 0 0-.249-.408l-6.97-3.581a.458.458 0 0 0-.419 0l-6.971 3.58a.457.457 0 0 0-.249.409v1.633H6v-1.633a3.026 3.026 0 0 1 1.646-2.698l6.971-3.581a3.03 3.03 0 0 1 2.765 0Zm.816 10.224a2.198 2.198 0 0 0-3.755-1.558A2.204 2.204 0 0 0 16 18.11a2.2 2.2 0 0 0 1.555-.645 2.21 2.21 0 0 0 .645-1.557Zm4.981 4.57a.454.454 0 0 0 .25-.407v-1.633H26v1.633a3.025 3.025 0 0 1-1.645 2.697l-6.973 3.582a3.04 3.04 0 0 1-2.765 0l-6.972-3.582A3.014 3.014 0 0 1 6 20.071v-1.633h2.57v1.633c0 .173.096.329.249.408l5.895 3.028v-3a4.782 4.782 0 0 1-3.486-4.6 4.78 4.78 0 0 1 4.771-4.776 4.78 4.78 0 0 1 4.772 4.777 4.782 4.782 0 0 1-3.486 4.598v3.001l5.895-3.028Z" clip-rule="evenodd"/></svg>