<svg fill="none" height="32" viewBox="0 0 32 32" width="32" xmlns="http://www.w3.org/2000/svg"><path clip-rule="evenodd" d="m18.0737.500765 10.4571 5.371975c.7444.37977 1.3692.95897 1.8052 1.67329.4358.71431.6657 1.53578.664 2.37317v2.449h-3.8574v-2.449c.0002-.1267-.0347-.25085-.1006-.35886-.0661-.108-.1606-.19552-.2732-.25292l-10.4561-5.37199c-.0971-.04972-.2046-.07565-.3136-.07565-.1091 0-.2166.02593-.3136.07565l-10.45709 5.37199c-.11243.05749-.20679.14511-.27261.25311-.06583.10801-.10055.23206-.10032.35867v2.449h-3.85547v-2.449c-.001794-.83729.22792-1.65869.66364-2.373.43573-.7143 1.06039-1.29356 1.80465-1.67346l10.458-5.371975c.642-.329137 1.3527-.500765 2.0737-.500765.7211 0 1.4317.171628 2.0737.500765zm1.2252 15.336135c0-1.8222-1.4804-3.3044-3.2998-3.3044-.8745.0003-1.7133.3483-2.3321.9678-.6189.6195-.9672 1.4599-.9687 2.3366 0 1.8221 1.4804 3.3043 3.3008 3.3043.8743-.0007 1.7126-.349 2.3311-.9684.6187-.6194.967-1.4594.9687-2.3359zm7.4717 6.8561c.1126-.0574.2069-.145.2728-.253s.1006-.2322.1002-.3588v-2.449h3.8564v2.4499c.0017.8371-.2279 1.6582-.6635 2.3723-.4355.7141-1.0599 1.2932-1.8039 1.6732l-10.4589 5.372c-.6422.3284-1.3528.4998-2.0737.5004-.7209-.0006-1.4314-.172-2.0737-.5004l-10.45894-5.372c-.74401-.3799-1.36846-.959-1.804-1.6731-.43555-.7141-.665165-1.5353-.66335-2.3724v-2.4499h3.85547v2.4499c0 .2587.14315.4929.37293.6109l8.84289 4.5421v-4.5006c-3.0126-.844-5.22944-3.6159-5.22944-6.8976 0-3.9511 3.21134-7.16582 7.15724-7.16582 3.9458 0 7.1572 3.21472 7.1572 7.16582 0 3.2817-2.2169 6.0536-5.2295 6.8976v4.5015z" fill="#006dff" fill-rule="evenodd"/></svg>