<svg fill="none" height="32" viewBox="0 0 32 32" width="32" xmlns="http://www.w3.org/2000/svg"><circle cx="16" cy="16" fill="#0e0e0e" r="16"/><path clip-rule="evenodd" d="m17.3825 5.68384 6.9713 3.58132c.4963.25318.9129.63931 1.2035 1.11554.2906.4762.4438 1.0238.4427 1.5821v1.6327h-2.5716v-1.6327c.0001-.0845-.0231-.1672-.0671-.2392s-.107-.1304-.1821-.1687l-6.9708-3.58128c-.0647-.03315-.1363-.05043-.209-.05043s-.1444.01728-.2091.05043l-6.97136 3.58128c-.07496.0384-.13786.0968-.18174.1688-.04389.072-.06704.1547-.06688.2391v1.6327h-2.57031v-1.6327c-.0012-.5582.15195-1.1058.44242-1.582.29049-.4762.70693-.86237 1.20311-1.11564l6.97196-3.58132c.428-.21942.9018-.33384 1.3825-.33384s.9545.11442 1.3825.33384zm.8168 10.22406c0-1.2147-.987-2.2029-2.1999-2.2029-.583.0002-1.1422.2322-1.5547.6452-.4126.413-.6449.9732-.6459 1.5577 0 1.2148.987 2.2029 2.2006 2.2029.5828-.0005 1.1417-.2327 1.5541-.6456.4124-.413.6446-.9729.6458-1.5573zm4.9811 4.5708c.0751-.0383.138-.0967.1818-.1687.044-.072.0671-.1548.0669-.2392v-1.6327h2.5709v1.6333c.0011.5581-.1519 1.1055-.4423 1.5815-.2904.4761-.7066.8622-1.2026 1.1155l-6.9726 3.5813c-.4281.219-.9019.3333-1.3825.3336-.4806-.0003-.9543-.1146-1.3825-.3336l-6.97259-3.5813c-.49601-.2532-.91231-.6393-1.20267-1.1154-.29037-.4761-.44344-1.0235-.44223-1.5816v-1.6333h2.57031v1.6333c0 .1725.09543.3286.24862.4073l5.89526 3.028v-3.0004c-2.0084-.5626-3.4863-2.4106-3.4863-4.5984 0-2.6341 2.1409-4.7772 4.7715-4.7772s4.7714 2.1431 4.7714 4.7772c0 2.1878-1.4779 4.0358-3.4863 4.5984v3.0011z" fill="#006dff" fill-rule="evenodd"/></svg>