<svg fill="none" height="32" viewBox="0 0 32 32" width="32" xmlns="http://www.w3.org/2000/svg" xmlns:xlink="http://www.w3.org/1999/xlink"><linearGradient id="a"><stop offset="0" stop-color="#01e8f7"/><stop offset="1" stop-color="#00b3ec"/></linearGradient><linearGradient id="b" gradientUnits="userSpaceOnUse" x1="0" x2="32" xlink:href="#a" y1="16" y2="16"/><linearGradient id="c"><stop offset="0" stop-color="#01e8f7"/><stop offset="1" stop-color="#00c2ff"/></linearGradient><linearGradient id="d" gradientUnits="userSpaceOnUse" x1="26.0307" x2="26.6397" xlink:href="#c" y1="12.5608" y2="20.4224"/><linearGradient id="e" gradientUnits="userSpaceOnUse" x1="242.368" x2="363.812" xlink:href="#a" y1="126.474" y2="361.227"/><linearGradient id="f" gradientUnits="userSpaceOnUse" x1="419.92" x2="435.532" xlink:href="#c" y1="583.04" y2="78.1861"/><clipPath id="g"><path d="m0 0h32v32h-32z"/></clipPath><g clip-path="url(#g)"><path d="m16 32c3.1645 0 6.2579-.9384 8.8891-2.6965s4.682-4.2569 5.893-7.1806c1.211-2.9236 1.5278-6.1406.9105-9.2443-.6174-3.10373-2.1413-5.95466-4.3789-8.1923s-5.0886-3.761494-8.1923-4.378857c-3.1037-.617364-6.3207-.3005105-9.24434.910487-2.92361 1.21101-5.42247 3.26177-7.18057 5.89295-1.758106 2.63119-2.69649 5.72462-2.69649 8.88912-.00000788 2.1012.413839 4.1817 1.21791 6.123.80407 1.9412 1.98263 3.705 3.46836 5.1907 1.48574 1.4858 3.24957 2.6643 5.19079 3.4684 1.94124.8041 4.02174 1.2179 6.12294 1.2179z" fill="url(#b)" fill-opacity=".15"/><path d="m28.5295 14.901c.1113-2.312-1.504-3.8457-3.3268-4.8987l-1.185 6.9589c.2442-.0341.4927-.0149.7287.0562s.4538.1925.6384.3558c.2131.2071.3407.4867.3576.7834s-.0782.589-.2664.8189c1.1393-.1831 2.9189-1.2819 3.0535-4.0745z" fill="url(#d)"/><path d="m25.1999 10.0037-.4557-.22887c.0501-.30315.0501-.61246 0-.91561-3.9195-2.50598-8.5249-3.72264-13.1707-3.47943l1.4128 1.4192-.6836.2289-1.9141.77829-2.68887 2.19752-1.5039 2.0145.77474 6.4552 5.28653 3.1131 8.021-.0915c.3342.0305 1.1028-.3754 1.5038-2.2433.0494-.6044.3172-1.1701.7533-1.5914.4362-.4213 1.0108-.6693 1.6166-.6977.3493-.1678 1.1666-.9797 1.6406-2.8842.1765-.6846.215-1.3973.1133-2.0969-.1018-.6995-.3417-1.3719-.7058-1.9778zm-2.7405-.53808c-.225.23926-.4882.4396-.7787.59288-1.0858-.15263-2.0818-.68699-2.8095-1.50731 1.7456-.04991 3.4718.377 4.9929 1.2348-.4591-.1434-.9288-.25052-1.4047-.32037z" fill="url(#e)"/><path d="m21.785 19.2523c-1.5333.7331-3.2131 1.1081-4.9125 1.0967-5.0781 0-9.19474-3.1771-9.19474-7.0962 0-2.8947 2.24595-5.38466 5.46624-6.48852-2.9346.12068-5.71243 1.35749-7.76572 3.45772-2.0533 2.1001-3.22708 4.9052-3.28148 7.8418 0 6.9792 6.24662 12.7458 13.9521 12.7458 2.6685-.0209 5.2833-.7513 7.5762-2.1164 2.2929-1.365 4.1814-3.3155 5.4717-5.6513-3.4459.7719-7.5252-.6955-7.3118-3.7896z" fill="url(#f)"/></g></svg>