<svg fill="none" height="32" viewBox="0 0 32 32" width="32" xmlns="http://www.w3.org/2000/svg" xmlns:xlink="http://www.w3.org/1999/xlink"><linearGradient id="a" gradientUnits="userSpaceOnUse" x1="10.354" x2="27.7421" y1="3.43188" y2="26.1706"><stop offset="0" stop-color="#00efff"/><stop offset="1" stop-color="#00b3ec"/></linearGradient><linearGradient id="b" gradientUnits="userSpaceOnUse" x1="8.1109" x2="30.5911" y1="4.15822" y2="28.3473"><stop offset="0" stop-color="#fdffff"/><stop offset="1" stop-color="#fdffff"/></linearGradient><path d="m16 32c8.8366 0 16-7.1634 16-16 0-8.83656-7.1634-16-16-16-8.83656 0-16 7.16344-16 16 0 8.8366 7.16344 16 16 16z" fill="url(#a)"/><path d="m28.504 14.9414c.111-2.3053-1.499-3.8346-3.3161-4.8846l-1.1812 6.9388c.8177-.0456 1.2173.2648 1.3628.4109.1815.1826.6358.7304.0908 1.5977 1.1358-.1826 2.9095-1.2782 3.0437-4.0628z" fill="#9bf9ff"/><g clip-rule="evenodd" fill-rule="evenodd"><path d="m13.0107 6.86292-1.4083-1.41516c2.12-.25867 7.7137.07305 13.1285 3.46941.0908.3652 0 .91301 0 .91301l.4543.22822c.3938.563 1.063 2.1638.5905 4.0629-.4726 1.899-1.2872 2.7085-1.6352 2.8759-.727 0-1.9626.42-2.3625 2.2825-.3996 1.8625-1.1658 2.2673-1.499 2.2369l-7.9952.0913-5.26953-3.1042-.77227-6.4367 1.49911-2.0086 2.68019-2.19118 1.908-.77604zm9.4427 2.65889c-.3527.36722-.682.54339-.7763.59119-2.0588-.43792-2.8005-1.50296-2.8005-1.50296 1.942-.01199 3.6947.44989 4.9768 1.2312 0 0-.694-.22493-1.4-.31943z" fill="url(#b)"/><path d="m21.7694 19.2803c-1.4156.6925-3.0942 1.0935-4.8938 1.0935-5.0587 0-9.1596-3.168-9.1596-7.0758 0-2.8869 2.23813-5.37009 5.4472-6.47044-6.10266.35004-11.00686 5.23704-11.00686 11.26704 0 6.9591 6.2228 12.7092 13.89916 12.7092 5.7317 0 10.5034-3.3129 12.9982-7.7453-3.4328.7695-7.4961-.6935-7.2843-3.7782z" fill="#a0f9ff"/></g></svg>