<svg xmlns="http://www.w3.org/2000/svg" width="32" height="32" fill="none"><defs><linearGradient id="antold__a" x1="10.354" x2="27.742" y1="3.432" y2="26.171" gradientUnits="userSpaceOnUse"><stop stop-color="#00EFFF"/><stop offset="1" stop-color="#00B3EC"/></linearGradient><linearGradient id="antold__b" x1="8.111" x2="30.591" y1="4.158" y2="28.347" gradientUnits="userSpaceOnUse"><stop stop-color="#FDFFFF"/><stop offset="1" stop-color="#FDFFFF"/></linearGradient></defs><path fill="url(#antold__a)" d="M16 32c8.837 0 16-7.163 16-16S24.837 0 16 0 0 7.163 0 16s7.163 16 16 16Z"/><path fill="#9BF9FF" d="M28.504 14.941c.111-2.305-1.499-3.834-3.316-4.884l-1.181 6.939c.817-.046 1.217.264 1.362.41.182.183.636.73.091 1.598 1.136-.182 2.91-1.278 3.044-4.063Z"/><path fill="url(#antold__b)" fill-rule="evenodd" d="m13.01 6.863-1.408-1.415c2.12-.259 7.714.073 13.129 3.47.09.364 0 .912 0 .912l.454.228c.394.563 1.063 2.164.59 4.063-.472 1.9-1.287 2.709-1.634 2.876-.727 0-1.963.42-2.363 2.283-.4 1.862-1.166 2.267-1.499 2.237l-7.995.09-5.27-3.103-.772-6.437 1.5-2.009 2.68-2.19 1.907-.777.682-.228Zm9.443 2.659a2.969 2.969 0 0 1-.776.591c-2.059-.438-2.8-1.503-2.8-1.503 1.942-.012 3.694.45 4.976 1.231 0 0-.694-.225-1.4-.32Z" clip-rule="evenodd"/><path fill="#A0F9FF" fill-rule="evenodd" d="M21.77 19.28c-1.416.693-3.095 1.094-4.894 1.094-5.06 0-9.16-3.168-9.16-7.076 0-2.887 2.238-5.37 5.447-6.47-6.102.35-11.007 5.237-11.007 11.267 0 6.959 6.223 12.709 13.9 12.709 5.731 0 10.503-3.313 12.998-7.745-3.433.769-7.496-.694-7.285-3.779Z" clip-rule="evenodd"/></svg>