<svg xmlns="http://www.w3.org/2000/svg" width="32" height="32" fill="none"><defs><linearGradient id="any__a" x1="29.958" x2="2.042" y1="2.284" y2="29.716" gradientUnits="userSpaceOnUse"><stop stop-color="#5F6BFB"/><stop offset="1" stop-color="#724DE4"/></linearGradient></defs><path fill="url(#any__a)" d="M16 32c8.837 0 16-7.163 16-16S24.837 0 16 0 0 7.163 0 16s7.163 16 16 16Z"/><path fill="#fff" d="M7.342 14.352a4.126 4.126 0 0 0-1.114 3.946 3.937 3.937 0 0 0 2.858 2.84 4.19 4.19 0 0 0 3.971-1.106l7-6.956a2.509 2.509 0 0 1 3.533-.047 2.471 2.471 0 0 1-.047 3.51l-2.256 2.242-1.277-1.269-.864 4.505 4.534-.858-1.277-1.27 2.255-2.241a4.125 4.125 0 0 0 1.113-3.946 3.935 3.935 0 0 0-2.858-2.84 4.19 4.19 0 0 0-3.97 1.106l-7 6.956a2.51 2.51 0 0 1-3.533.047 2.472 2.472 0 0 1 .047-3.51l2.068-2.056 1.277 1.269.863-4.503-4.532.857 1.277 1.269-2.069 2.055Z"/></svg>