<svg fill="none" height="32" viewBox="0 0 32 32" width="32" xmlns="http://www.w3.org/2000/svg" xmlns:xlink="http://www.w3.org/1999/xlink"><linearGradient id="a" gradientUnits="userSpaceOnUse" x1="29.9579" x2="2.04223" y1="2.28362" y2="29.7163"><stop offset="0" stop-color="#5f6bfb"/><stop offset="1" stop-color="#724de4"/></linearGradient><path d="m16 32c8.8366 0 16-7.1634 16-16 0-8.83656-7.1634-16-16-16-8.83656 0-16 7.16344-16 16 0 8.8366 7.16344 16 16 16z" fill="url(#a)"/><path d="m7.34178 14.3524c-.5133.5036-.88606 1.1327-1.08134 1.8248-.19529.6921-.20631 1.4232-.03197 2.1209.17646.6868.53513 1.3132 1.03812 1.813.503.4999 1.13165.8546 1.81956 1.0268.70108.1735 1.43515.1629 2.13085-.0309.6958-.1937 1.3297-.5641 1.8401-1.075l7.0006-6.9559c.4637-.4718 1.0949-.7415 1.7563-.7502.6615-.0088 1.2996.244 1.7756.7033.2287.2329.4091.5087.5306.8117.1215.3029.1819.6269.1775.9532-.0043.3264-.0733.6487-.2029.9483-.1296.2995-.3172.5705-.5521.7971l-2.2556 2.2415-1.277-1.2688-.864 4.5045 4.5336-.858-1.277-1.2696 2.2556-2.2414c.5132-.5037.8858-1.1328 1.0809-1.8249.1952-.6921.2061-1.4232.0316-2.1208-.1762-.6869-.5348-1.3135-1.0379-1.8134-.503-.4998-1.1318-.8545-1.8198-1.0264-.7011-.1735-1.4351-.1629-2.1309.0309-.6957.1937-1.3296.564-1.8401 1.075l-6.9998 6.9559c-.4638.4718-1.0951.7414-1.7567.7502-.66153.0088-1.29979-.244-1.77595-.7034-.22864-.2329-.4089-.5087-.53039-.8116-.12148-.303-.18178-.6269-.17743-.9533.00436-.3263.0733-.6486.20283-.9481.12953-.2996.3171-.5706.55188-.7973l2.06886-2.0555 1.277 1.2688.8625-4.503-4.53209.8573 1.277 1.2688-2.0688 2.0555z" fill="#fff"/></svg>