<svg fill="none" height="32" viewBox="0 0 32 32" width="32" xmlns="http://www.w3.org/2000/svg" xmlns:xlink="http://www.w3.org/1999/xlink"><radialGradient id="a" cx="0" cy="0" gradientTransform="matrix(0 17.9756 -17.9756 0 16 17.6767)" gradientUnits="userSpaceOnUse" r="1"><stop offset=".166667" stop-color="#073183"/><stop offset="1" stop-color="#0054f9"/></radialGradient><linearGradient id="b"><stop offset=".205697" stop-color="#89d0ff"/><stop offset=".398413" stop-color="#ebbf9a"/><stop offset=".601546" stop-color="#eb8280"/><stop offset=".841139" stop-color="#a281ff"/></linearGradient><linearGradient id="c" gradientUnits="userSpaceOnUse" x1="-3.04761" x2="33.6209" xlink:href="#b" y1="-2.82996" y2="35.6556"/><linearGradient id="d" gradientUnits="userSpaceOnUse" x1="-1.61969" x2="32.1844" y1="-1.18188" y2="34.4425"><stop offset=".205697" stop-color="#89d0ff"/><stop offset=".398413" stop-color="#ebbf9a"/><stop offset=".601546" stop-color="#eb80da"/><stop offset=".841139" stop-color="#a281ff"/></linearGradient><linearGradient id="e" gradientUnits="userSpaceOnUse" x1="-.186218" x2="30.7531" xlink:href="#b" y1=".248169" y2="33.0108"/><linearGradient id="f" gradientUnits="userSpaceOnUse" x1="1.24445" x2="29.3126" y1="1.68384" y2="31.5762"><stop offset=".205697" stop-color="#89d0ff"/><stop offset=".398413" stop-color="#ebbf9a"/><stop offset=".601546" stop-color="#eb80e7"/><stop offset=".841139" stop-color="#a281ff"/></linearGradient><linearGradient id="g" gradientUnits="userSpaceOnUse" x1="2.67493" x2="27.8772" y1="3.11377" y2="30.1334"><stop offset=".205697" stop-color="#89d0ff"/><stop offset=".398413" stop-color="#ebbf9a"/><stop offset=".601546" stop-color="#eb80d3"/><stop offset=".841139" stop-color="#a281ff"/></linearGradient><linearGradient id="h" gradientUnits="userSpaceOnUse" x1="4.10333" x2="26.4379" y1="4.5437" y2="28.7015"><stop offset=".205697" stop-color="#89d0ff"/><stop offset=".398413" stop-color="#ebbf9a"/><stop offset=".601546" stop-color="#a280eb"/><stop offset=".841139" stop-color="#a281ff"/></linearGradient><clipPath id="i"><path d="m0 16c0-8.83656 7.16344-16 16-16 8.8366 0 16 7.16344 16 16 0 8.8366-7.1634 16-16 16-8.83656 0-16-7.1634-16-16z"/></clipPath><g clip-path="url(#i)"><path d="m32 16c0-8.83656-7.1634-16-16-16-8.83656 0-16 7.16344-16 16 0 8.8366 7.16344 16 16 16 8.8366 0 16-7.1634 16-16z" fill="url(#a)"/><g opacity=".8" stroke-miterlimit="10"><path d="m13.1672 33.8814c-1.1719 0-2.2833-.074-3.21591-.1467l-.25711-.02-.25676-.0357c-.11229-.0157-.265-.0322-.41233-.0483-.89722-.0976-2.56576-.2793-4.40777-1.1444l-.28608-.1348-.26678-.1495c-3.540246-1.9842-4.865157-4.9707-5.57857-6.5761-.04542-.1021-.10049-.2262-.15234-.3405-.3601-.7371-.58789-1.4015-.781-2.0097l-.04291-.136-.03576-.1319c-.51387-1.8263-.64368-3.4033-.40838-4.9628.23601-1.5659.81604-2.9906 1.82376-4.4818l.522453-.8532c.106131-.1724.181066-.3621.221357-.5604.3983681-1.9743 1.302383-3.3729 1.74652-4.04089.12226-.80851.32385-1.603.60185-2.37198l.04148-.11657.04434-.11372c.00715-.02003.01645-.04827.03362-.09977.19953-.60112.66728-2.00758 1.86525-3.48447l.44985-.54498.45845-.414101c1.17756-1.070006 2.58036-1.86191 4.10491-2.317259.85111-.25383 1.72856-.40897 2.61516-.46237l.0858-.00644.1291-.00608c.1534-.00715.3061-.01073.4552-.01073.5532-.00103 1.1055.04552 1.6507.13911.3407.05734.6906.0173 1.0095-.1155.9453-.39431 1.9388-.66104 2.9545-.79316.0848-.01217.1588-.02146.2171-.02897.1602-.02003.4148-.05007.7223-.07939.5364-.05114 1.3589-.11229 2.2504-.11229 1.7412 0 3.2398.22566 4.5816.68946l.1141.03969.1115.04184c2.9609 1.118936 4.4682 2.682012 5.5521 4.06092l.0515.0658.1492.13267c.9791.76604 1.812 1.70277 2.4581 2.76498l.202.33256.1707.34867c1.4482 2.95627.9881 5.68587.8146 6.71147l-.0094.0547c-.1247.7566-.3231 1.4992-.5926 2.2171-.099.6922-.262 1.3737-.4869 2.0358-.3845 1.1769-.9517 2.286-1.6808 3.2868-.4199.5938-.8938 1.1473-1.416 1.6535-.1846.1784-.3044.4135-.3401.6677-.0226.1565-.0483.3113-.0777.4648-.4245 2.2772-1.4204 3.8622-1.827 4.4933l-1.2291 1.7652c-1.48 1.844-3.2361 3.0602-5.3614 3.7139l-.515.1613-.556.0969c-.6362.1123-1.2811.1681-1.9271.1668-.0891 0-.1788 0-.2783-.0026h-.0286l-.1097.0067-.1177.0044h-.0032c-.2463.0082-.4904.0485-.7263.1197-1.3728.4199-2.9255.6173-4.8244.6173z" opacity=".8" stroke="url(#c)" stroke-width=".221362"/><path d="m13.1672 32.6686c-1.1229 0-2.2-.0714-3.1051-.143l-.21451-.0166-.21457-.0296c-.13375-.0185-.29717-.0357-.45486-.0535-.87147-.0949-2.32834-.2532-3.95472-1.016l-.23887-.1123-.22208-.1247c-3.12399-1.7524-4.279761-4.354-4.970645-5.9087-.04935-.1108-.109779-.2471-.16628-.3709-.321842-.6601-.532826-1.2698-.710915-1.831l-.03576-.113-.03111-.1101c-.45701-1.6242-.57502-3.0102-.37119-4.3627.20383-1.3524.717349-2.6022 1.6131394-3.9197l.6694276-1.0931c.118381-.1937.19963-.4078.239591-.6312.333282-1.857 1.210492-3.1737 1.609202-3.77306l.05042-.07579.01861-.03005c.00821-.01824.01609-.03576.0236-.05472.02431-.07902.04826-.15554.07151-.22851.10486-.76179.29004-1.51038.55249-2.23321l.03576-.09726.03827-.09763c.01215-.03111.0236-.06472.05721-.16557.18989-.57215.58504-1.76011 1.61887-3.0346l.37512-.45414.38085-.34438c1.02099-.92772 2.23734-1.614282 3.5592-2.009003.75044-.2227869 1.52394-.358733 2.30544-.405165l.0715-.005719.1073-.005007c.1305-.006079.2607-.00894.3876-.00894.5606-.000997 1.1198-.162369 1.669-.049616.4238.087653.8643.04077 1.2602-.1341.7395-.326132 1.735-.456389 2.8747-.598356.0812-.011801.152-.020744.2071-.027538.1498-.018956.3894-.047206.6794-.074736.5042-.04828 1.2802-.10728 2.1145-.10728 1.5796 0 2.9251.199897 4.1141.611139l.0952.032896.0929.03576c2.6244.991628 3.9216 2.319045 4.9321 3.606045.0562.07153.1137.14483.1352.17023l.024.02145.1915.17058.0259.02647c.873.66877 1.614 1.49422 2.185 2.43417l.168.27714.143.29037c1.2459 2.54291.8553 4.85623.6888 5.84433l-.0089.0525c-.1182.7178-.3117 1.4212-.5773 2.0984-.0836.6592-.2336 1.3082-.4476 1.9372-.34 1.0414-.8416 2.0228-1.4866 2.9083-.4367.6207-.9415 1.1905-1.5051 1.6986-.2616.2349-.4266.5584-.4632.9079-.0272.2576-.064.5079-.1104.7535-.3744 2.0101-1.2495 3.4004-1.65 4.023l-.9955 1.4472c-1.3231 1.7001-2.8909 2.8119-4.7902 3.3972l-.4291.1346-.4648.0803c-.5549.098-1.1173.1467-1.6808.1456-.0818 0-.1655 0-.2556-.0021h-.0254-.0533s-.0179 0-.0544.0026l-.0983.0061-.0991.0034-.1977.0077c-.2614.0091-.5203.0542-.7696.1336-1.2644.4038-2.7256.5943-4.5322.5943z" opacity=".8" stroke="url(#d)" stroke-width=".221362"/><path d="m13.1672 31.2382c-1.0728 0-2.1163-.0697-2.9946-.138l-.1712-.0133-.17097-.0235c-.15486-.0216-.32901-.0405-.49744-.059-.83285-.0906-2.09054-.2275-3.50091-.889l-.19132-.0897-.17879-.1c-2.7092-1.5185-3.70404-3.759-4.36274-5.2416-.05614-.127-.119798-.27-.178802-.4025-.28608-.5819-.477039-1.137-.639749-1.6508l-.028609-.0901-.025031-.0884c-.400155-1.4218-.506003-2.6172-.33364-3.7612.1748673-1.1601.630449-2.2415 1.432901-3.4037l.09549-.138.10334-.1327c.06509-.0829.12766-.1648.18917-.2449l.40266-.7385c.13206-.2413.22122-.5038.26354-.7756.25604-1.6568 1.05422-2.8537 1.42254-3.40579l.00181-.00288c.02109-.03145.04826-.07151.06221-.09369l.07868-.12552c.03076-.06722.07151-.15662.10727-.25031.03577-.11194.07833-.25032.1248-.39336.0873-.70577.25452-1.39932.49851-2.06729l.02788-.07796.03041-.07867c.02573-.06543.04469-.12229.08188-.23423.1763-.52961.50314-1.51266 1.37247-2.5851l.30075-.36369.30359-.27426c.86426-.78537 1.89386-1.36659 3.01279-1.70076.64951-.19275 1.31911-.30963 1.99541-.3483l.0572-.00429.0869-.00394c.1073-.005.2146-.0075.3219-.0075.5815-.00081 1.1608.07286 1.7236.2192.4873.12327 1.0025.06889 1.4533-.15341.7213-.350089 1.6861-.72164 2.8165-.860389.0776-.011085.143-.019666.1963-.026462.1405-.017522.3644-.043984.6362-.071519.4731-.045416 1.2004-.099411 1.9786-.099411 1.4179 0 2.6104.17415 3.6475.532465l.0762.026466.0744.02789c2.4105.91117 3.4897 2.10448 4.3119 3.15119.1814.23064.2088.2664.3333.3769l.1535.1366.0596.06115c.3967.30718 1.2076.93978 1.9174 2.10984l.1348.22172.1138.2321c1.0434 2.1295.7188 4.05271.563 4.97711l-.0087.0511c-.1117.6778-.3004 1.3406-.563 1.9754l-.0069.0583c-.0695.6073-.2036 1.2054-.4004 1.7841-.2952.9061-.7314 1.7601-1.2926 2.5303-.4695.6731-1.034 1.2747-1.6758 1.7863-.1526.121-.2777.2733-.3665.4467-.0891.1734-.1398.3638-.1492.5585-.0174.3821-.0613.7625-.1314 1.1385-.3242 1.743-1.085 2.9514-1.4733 3.5546l-.7717 1.1405c-1.1634 1.5529-2.5422 2.5582-4.2087 3.0691l-.343.1073-.3708.0645c-.4742.0838-.9549.1254-1.4365.1245-.0747 0-.1509 0-.2331-.0022h-.019-.0822c-.014 0-.0565 0-.1431.0052l-.0786.0051-.0762.0028-.3977.0148c-.2785.0096-.5542.0592-.8185.1476-1.1583.3901-2.5247.5736-4.2433.5736z" opacity=".8" stroke="url(#e)" stroke-width=".207527"/><path d="m13.167 29.8077c-1.0253 0-2.0334-.0677-2.8838-.1336l-.1283-.01-.1284-.0177c-.17558-.0244-.36046-.0446-.53962-.064-.7828-.0855-1.8531-.2015-3.04783-.7621l-.14304-.0675-.13338-.0746c-2.29438-1.2874-3.13831-3.1868-3.75482-4.5745-.064-.143-.13053-.2937-.19633-.4378-.26212-.527-.42912-1.0331-.56786-1.4661l-.02146-.0677-.0186-.066c-.670855-2.3842-.41874-4.0567.89938-5.9649l.07151-.1037.0776-.0994c.0876-.1119.1695-.2195.25032-.3218.12158-.1595.2446-.3219.37871-.4889.0832-.104.15036-.22.19916-.344l.15128-.3862c.0641-.1642.10433-.3368.11944-.5124.13124-1.5295.87504-2.6445 1.24339-3.197l.00213-.0028c.02682-.0408.06759-.1016.08117-.1234l.08619-.1377.02647-.0358c.04578-.0926.13553-.2882.21455-.49308.04256-.14017.10978-.35544.17559-.55106 0-.00751 0-.01573.00285-.02431.07051-.64089.21819-1.2709.43986-1.87633l.02109-.05865.02288-.05901c.04005-.10192.06831-.18702.1073-.30468.15734-.47275.42052-1.26411 1.12572-2.13381l.22563-.2732.22638-.20454c1.6657-1.51122 3.52954-1.64175 4.15244-1.68359l.0429-.00322.0658-.00322c.0848-.00394.1695-.00573.2525-.00573.7396.00262 1.4712.15225 2.1524.44021.1207.05013.2509.07293.3815.06674.1305-.00618.258-.04118.3734-.1025h.0036c.6333-.36724 1.7933-1.0331 3.2724-1.21119.0715-.01073.1373-.01895.1856-.02503.1301-.01645.3379-.04077.5932-.06544.442-.0422 1.1208-.09262 1.8424-.09262 1.2563 0 2.2962.14876 3.1794.45415l.0572.01967.0557.0211c2.0659.78065 2.9569 1.76011 3.692 2.69632.1977.25032.2861.36654.5074.56178l.1152.10264.0923.09476.0714.05649c.3503.27107 1.0014.77564 1.5793 1.72615l.1012.16629.0854.17415c.8405 1.71649.5775 3.27316.4362 4.10996l-.0083.0497c-.0994.6082-.2725 1.2022-.5154 1.7686l-.0205.0487c-.0022.0104-.005.0257-.0094.0483-.0111.0575-.0174.1033-.025.1616l-.0085.0658c-.0572.513-.1702 1.0183-.3365 1.5069-.2504.7708-.6209 1.4971-1.0983 2.1521-.4719.6701-1.0011 1.2158-1.5952 1.6478-.2608.1905-.4737.4389-.6219.7258-.1485.2868-.2279.6041-.2327.927-.005.4027-.0444.8042-.1178 1.2002-.2738 1.4765-.9038 2.4764-1.2961 3.0857l-.5607.8407c-1.0042 1.403-2.1889 2.2987-3.6147 2.7352l-.0755.0237c-.121.0379-.2444.068-.3694.0893l-.0905.0159c-.3933.0696-.792.1043-1.1915.1032-.0676 0-.1362 0-.2106-.0018h-.0122c-.0339 0-.0715 0-.1116 0-.0278 0-.1015 0-.2345.0083l-.059.0035-.0576.0022c-.1913.0071-.4291.0154-.6412.0248-.2906.0119-.5777.0683-.8514.1669-1.0263.3666-2.2823.5403-3.91.5403z" opacity=".8" stroke="url(#f)" stroke-width=".193692"/><g stroke-width=".179857"><path d="m13.1672 28.3773c-.9766 0-1.9497-.0655-2.7729-.1295l-.0858-.0066-.0855-.0119c-.197-.0272-.39332-.0488-.58249-.0693-.7195-.0781-1.61494-.1759-2.59405-.635l-.09583-.045-.08868-.0496c-1.87956-1.0539-2.58188-2.636-3.14691-3.9073-.06935-.1565-.14302-.3183-.21455-.4757-.22134-.4414-.3712-.8938-.49421-1.2812l-.01431-.0447-.01251-.0439c-.55356-1.9668-.37083-3.2152.69947-4.7647l.04756-.069.05186-.0662c.09334-.1194.1788-.231.26033-.3387.27929-.3661.54785-.7187.94944-1.1475.08805-.0941.14076-.2158.14912-.3443l.03038-.4628-.01179-.1516.00535-.1573c.04184-1.2692.67945-2.224 1.02061-2.7368.03933-.0594.08045-.1205.10477-.1595l.05758-.0915.05329-.0715c.06365-.1041.23101-.4588.35759-.7993.04363-.143.12802-.41587.20241-.63222.02181-.06901.02394-.08582.04184-.23387.05814-.53557.18146-1.06205.36726-1.56771l.01393-.03934.01537-.0397c.05294-.13517.08977-.24566.13233-.37369.13481-.40553.33791-1.01666.87932-1.68431l.15093-.18237.14946-.13517c1.16687-1.05957 2.43813-1.26019 3.29603-1.31777l.0289-.0025h.0444c.0622-.00285.1241-.00429.1849-.00429.7327 0 1.6092.35152 2.0694.56394.1101.05051.229.07874.3501.08312.121.00435.2417-.01526.3551-.05773.2864-.10373.5654-.22655.8354-.36761.5853-.33973 1.5566-.90079 2.7628-1.04133.0665-.01001.1262-.01752.1756-.02397.1212-.01502.3125-.03576.5496-.06043.4112-.03933 1.041-.08618 1.7065-.08618 1.0941 0 1.9814.12301 2.712.37549l.0379.01321.0359.01396c1.7254.6519 2.412 1.40107 3.0724 2.2418.2144.27107.3662.46487.6812.74667l.0766.06831.0714.07151c.0644.06369.1336.12214.207.17487.2963.22922.7926.61329 1.2328 1.33814l.0672.11085.0573.11622c.6378 1.30203.433 2.5164.3104 3.242l-.0083.0494c-.0814.5008-.2242.9898-.4251 1.4558v.0035c-.0557.1206-.0941.2483-.1141.3794-.0172.0916-.0281.1653-.0383.2468l-.0087.0665c-.0459.4185-.1374.8308-.2728 1.2294-.2041.6361-.5096 1.235-.9044 1.7737-.5828.8315-1.2565 1.4165-2.0683 1.7881-.1972.0899-.3657.2327-.4867.4124-.1213.1798-.1905.3895-.1999.606-.0039.0887-.0054.1616-.0028.2024.04.6254.0853 1.3342-.054 2.0644-.2236 1.2077-.7349 2.0195-1.1193 2.6155 0 0-1.7637 2.4546-3.3687 2.9444l-.1727.054-.1856.0327c-.3123.0555-.629.0829-.9462.0818-.0601 0-.1216 0-.1877-.0017h-.0058c-.0425 0-.0886 0-.1408 0-.063 0-.1656 0-.3251.0111l-.039.0024h-.0386c-.614.0222-1.1944.0429-1.3557.0744-.0863.0135-.1705.0381-.2503.0736-.9083.3982-2.0995.5845-3.7426.5845z" opacity=".8" stroke="url(#g)"/><path d="m13.1672 26.947c-.9276 0-1.8664-.0632-2.6624-.1252l-.0425-.0031-.0426-.006c-.2178-.0301-.42445-.0527-.6247-.0745-.67732-.0736-1.37786-.1498-2.14133-.5079l-.04791-.0228-.04434-.0246c-1.46617-.8224-2.0108-2.0508-2.53897-3.2403-.07511-.1687-.15271-.3433-.2328-.5168-.17881-.3533-.30539-.7323-.41911-1.0913l-.00716-.0222-.00643-.0225c-.4402-1.5656-.32829-2.3648.50064-3.5638l.02397-.0358.02573-.0333c.09726-.1241.1856-.2399.27071-.3518.39837-.5225.74273-.9741 1.51443-1.6865l.00216-.0021c.05657-.0541.0963-.1234.11439-.1995.01809-.0762.01376-.1559-.01247-.2297l-.13913-.3965c-.02795-.1251-.04754-.2518-.05864-.3795v-.0042l-.00858-.1073.00288-.0787c.02823-.8614.48132-1.5405.78099-1.99.04685-.0716.09154-.137.12624-.1928l.0286-.0458.03218-.0432c.15913-.2146.41767-.8086.55358-1.1765.03574-.1134.1273-.4177.20347-.6384.05422-.16589.08938-.33745.10477-.51132.04497-.43058.14372-.85381.29394-1.25984l.00716-.02003.00786-.01966c.06616-.16986.11266-.30933.15772-.44449.11979-.36012.25532-.7685.6326-1.23372l.07579-.09156.07404-.06687c.82892-.75311 1.73762-.90473 2.43842-.95121h.0147.0229c.0393 0 .0787-.0025.1177-.0025.6819 0 1.2061.27964 1.553.46487l.0808.04293.0122.00642c.0951.0515.1788.09656.2564.13481.2155.10813.4632.13357.6962.07153.4749-.12767 1.2159-.40875 1.7144-.68266l.0104-.00608c.5242-.30395 1.3138-.76168 2.2393-.86326.0582-.00929.114-.01608.1666-.02288.1073-.01358.2861-.03576.5046-.05542.3804-.03576.9616-.07976 1.5705-.07976.9326 0 1.6669.09729 2.2446.29682l.019.00679.0193.00716c1.3843.52317 1.8894 1.07065 2.4519 1.788.2287.29144.4451.56681.8552.93191l.0384.03577.0357.03574c.111.11187.2305.21484.3576.3079.246.19061.5832.45166.8862.95014l.0335.05544.0286.05828c.4353.88864.2904 1.74765.1846 2.37445l-.0083.0494c-.0634.3955-.1765.7813-.3372 1.1482-.0936.2113-.1602.4336-.1981.6616-.025.1323-.0396.2357-.0518.3315l-.0087.0679c-.0344.3241-.1045.6434-.2092.952-.1587.5006-.3986.9718-.7101 1.3946-.5257.7546-1.1085 1.2198-1.8828 1.4662-.3709.1173-.6903.3591-.9036.6844l-.0616.0944-.0679.0776c-.1966.2239-.1413 1.0914-.1073 1.6092.0359.5683.074 1.1558-.032 1.709-.1746.9458-.5797 1.5842-.9424 2.1457 0 0-1.3468 1.9428-2.5619 2.3118l-.0883.0279-.093.0161c-.2314.0413-.4661.0618-.7012.0607-.053 0-.1073 0-.1649 0-.0511 0-.1073 0-.1695 0-.0826 0-.2146 0-.4155.0139h-.0194-.0193c-.8149.0299-1.3066.0473-1.5784.1002-.1829.0324-.3615.0857-.5321.1591-.7277.3226-1.744.4735-3.193.4735z" opacity=".8" stroke="url(#h)"/></g></g><g fill="#fff"><path d="m26.8802 11.0056c-.0671.3917-.1454.5816-.2373.8014l-.0002.0005c-.0991.2382-.2114.5087-.3133 1.0451-.0404.2148-.0607.3723-.0783.5111l-.0011.0086-.0011.0081c-.0283.2224-.0472.3722-.1376.6388-.0733.2177-.1959.5809-.4913.9722-.2384.3167-.6376.8466-1.1703.9102-.0461.003-.143.0079-.1824-.0122-1.5112-.7717-2.8096-1.342-3.259-1.4699-.5229-.1481-.4559-1.2879-.3968-2.2934.0266-.4494.0517-.8744.0306-1.2383-.0734-1.2694-.2982-2.65888-1.4037-3.33625-.66-.40427-1.5114-.52284-2.3249-.52452.1507-.07173.3189-.16919.5021-.27585l.0056-.00323c.479-.27739 1.0735-.62169 1.6643-.68229.1933-.01905.3831-.04143.5703-.06213 1.191-.13488 2.22-.25075 3.3054.12088.4919.16877 1.5011.73176 1.7617 1.2546.1833.36891.4929.65667 1.1104 1.23074.3216.29908.5334.47299.6884.60025l.0071.00581c.2177.17902.2606.21647.3253.34884.2002.40782.1273.84095.0261 1.44095z"/><path d="m21.3518 16.2137c.0871.0297.1197.1355.0697.2126-.1572.2424-.3366.5686-.5501.9644-.1039.1937-.2024.3764-.285.5191-.2928.5027-.3167.926-.3353 1.2656-.02.3553-.038.5185-.2503.6601-.1753.1175-.3547.1566-1.599.3461-.2171.0336-.3135.0757-.3982.1127-.0136.0059-.0271.0117-.0413.0175-.0862.0355-.1719-.0388-.1672-.1319.0089-.1735.0145-.3872.0152-.6517v-.0539c.0065-.2439-.0037-.4417-.0125-.6013-.0163-.3177-.0184-.4515.0663-.5897.1039-.1671.1851-.2182.3183-.3026.1861-.1169.4413-.278.819-.797.2007-.2749.2453-.424.2731-.5528.0119-.0533.0163-.0734.1708-.1905.1634-.124.6611-.5011 1.2983-.394.1687.0286.3815.09.6082.1673z"/><path d="m16.432 21.9607c-.0271.0353-.0587.0516-.1045.054-.1301.0053-.2215-.0267-.2819-.0997-.1284-.1561-.1111-.47-.0812-.6535l.5262-.1403c.0412.2786.0606.6843-.0586.8395z"/><path d="m16.4745 20.0623c-.0088.0767-.0184.1631-.018.2534.0006.0337.001.0676.0021.1006.001.086.0044.2226-.0075.2847-.1644.0598-.3048.0598-.4892.0567-.0027-.0534.0006-.1328.0027-.1866.0011-.0414.0034-.0826.0038-.1219.0006-.0435 0-.0866 0-.1295-.0006-.1012-.0021-.267.0228-.316.0495-.0071.1002-.018.1545-.0305.1088-.0234.2508-.0533.3411-.0397-.0015.0351-.0069.0874-.0123.1288z"/><path d="m15.501 21.7985c-.0255.2698-.1088.6033-.3618.654-.1138.0233-.1688-.0109-.2035-.0436-.1709-.1582-.1981-.6365-.1742-.9787.1138.0021.2629-.0234.4396-.0577.1077-.0214.215-.0452.3003-.0649.0098.1268.0169.3075-.0004.4909z"/><path d="m15.3815 20.8305-.5707.2002c.0289-.2215.0675-.5333.0811-.7406.0099-.1457.0496-.1905.0609-.2001.0038-.0033.0115-.0102.0326-.0102.0034 0 .0065.0006.0103.0006l.0119.0016.3608-.0196c.0152.1696.0152.5418.0131.7681z"/><path d="m14.4592 20.6529c-.0322.086-.0703.3292-.0941.5005l-.715-.0217c.0403-.2215.0962-.4468.1577-.6264.0621-.1784.129-.3122.1905-.3499.0717-.0431.2296-.0527.3264.0299.1573.1341.2008.2876.1345.4676z"/><path d="m14.1924 22.8414c-.0555.0758-.1169.1143-.1933.1224-.0778.0087-.1382-.0087-.1865-.054-.2246-.2072-.2062-.8862-.1981-1.2127.2966-.0676.6166-.1251.7684-.1339.0228.2734.0293.9789-.1905 1.2782z"/><path d="m13.2592 21.1127c-.0349.093-.0686.1811-.0941.2589-.0833.0261-.3373.0033-.5969-.054l.1784-1.1251c.2932-.0778.6333-.1029.7155-.0157.1083.115-.1092.6905-.2029.9359z"/><path d="m12.9354 23.0135c-.1386.1709-.3465.2508-.6366.2477-.2008-.0035-.2725-.0797-.3085-.1367-.161-.2551-.0033-.8564.1546-1.2406l.9685.0581c.0098.0677.018.1496.0217.2391.0107.2732-.0236.6136-.1997.8324z"/><path d="m20.939 14.8469c-.8719-.2469-.7968-1.5218-.7243-2.754.0258-.4361.05-.8483.0301-1.1854-.0669-1.15337-.2607-2.40942-1.1885-2.97805-.9977-.61017-2.63-.47109-3.6371-.34294-.0009.00011-.0017.0007-.0027.00078-.0004.00003-.0007.00007-.0011.0002-.3689.11178-.714.18427-.9815.17006-.5942-.03076-1.0566-.28088-1.4637-.50046-.3177-.17213-.5948-.32081-.8558-.32081-.0138 0-.0282 0-.0425.00063-.7807.05061-1.1395.24133-1.4656.53225-.082.07255-.1819.28273-.5092 1.22592-.16522.47661-.19576.73739-.2265.99087-.0276.23151-.05564.46975-.17881.82505-.08574.2451-.1489.4565-.21018.6604-.16145.5417-.28902.9683-.67237 1.4757-.04497.06-.10081.1482-.16522.2488-.08699.137-.19448.3072-.33648.5042-.10018.1389-.33023.6586-.31767.8169.01881.252.10079.4085.19448.591.09328.1801.19951.384.21897.6655l.00314.0456c.03428.4465-.0295.6705-.87878 1.4292-.543.4859-.92879.9541-1.18897 1.2975-.02296.0303.00691.0753.0448.0723.00878-.0012.01757-.0019.02573-.0019.01631-.0012.03261-.0018.04872-.0018.01631 0 .03263.0006.04872.0012.01633.0006.032.0019.04811.0044.20539.0234.4056.1103.55014.26.02512.026.06417.0331.09776.0196.13823-.0575.29027-.0481.43542-.0345.17269.016.3471.0664.46607.1736.0453.0408.10747.0624.16718.0502.13519-.0278.27605-.0232.40697.0245.09709.0361.18037.0911.2486.16.0643.0649.17315.0778.25256.0326.03174-.0181.06594-.0337.10303-.0463.18445-.0625.38835-.0269.56738.0375.08825.0318.1807.06.2602.1131.1312.0874.2165.2112.2738.3506.044.1071.1904.1437.2844.0761.1129-.0813.2061-.0917.3-.05.0389.0175.0692.0398.0925.0666.0673.0776.1755.155.2754.1313.2785-.0658.6157-.0222.8631.1103.0913.0481.1812.1212.2468.232.0001.0001.0002.0001.0002.0003.0001.0004.0006.0002.0007-.0002l.0075-.0493c.0034-.0222.0192-.0406.0408-.0473l.0599-.0186c.1414-.0449.8619-.2526 1.1421.0425.0121.0121.0333.0133.0449.0006.0382-.0417.0691-.0647.089-.0761.1825-.1106.4954-.1175.7037.0607.0419.0351.1098.0224.1414-.0223.0195-.0276.0415-.0518.0662-.0727.0733-.0632.1659-.0933.2684-.087l.3959-.0213c.0995-.0055.4088-.0265.5063-.0472.0074-.0015.015-.0029.0228-.0041.0412-.0062.0901-.0169.1414-.0276.1919-.0418.4096-.0889.5884-.0063.172.0795.1502.2753.1295.4478-.0082.0701-.017.1433-.0163.2127.0012.0324.0019.065.0025.0983.0025.1487.0056.2862-.0237.3918-.0001.0002-.0002.0004-.0002.0007 0 .0001.0001.0003.0001.0005l.0181.0817c.019.0804.1048.1257.175.0823.1337-.0826.2714-.1869.3154-.2486.004-.0057.0071-.0119.0095-.0185.0062-.0166.0169-.051.0288-.1203.0245-.147.0519-.4459.0544-1.0528 0-.032 0-.055.0006-.0656.0051-.2253-.0037-.406-.0125-.5656-.0163-.3289-.0295-.5878.1338-.8513.159-.2564.3133-.3535.4616-.4474.1725-.1081.3672-.2309.6949-.6805.1609-.2215.1807-.3108.1964-.3821.0356-.1671.0908-.2677.339-.4553.202-.1526.8169-.6186 1.6463-.4791.272.0462.7129.1913 1.1481.3627.0002.0001.0005.0002.0007.0002h.0004c.0157.0046.0318.01.0466.0176.0067.0035.0137.007.0209.0099.3761.1502.7423.3173.9846.4534.069.0388.1567.0157.207-.0454.0749-.0908.1561-.1462.2432-.1984.0348-.0213.0618-.0374.0875-.0594.0816-.0693.0807-.2147-.0144-.2636-1.1581-.5949-2.2436-.9274-2.6045-1.0301zm-8.3085.2684c-.2696 1.1803-2.098 2.4775-2.92909 2.4775h-.01632c-.01317-.0006-.02761-.0018-.04308-.0043-.01568-.0026-.03261-.0063-.05061-.0113-.00878-.0025-.0182-.0057-.02761-.0082-.15079-.0475-.3597-.1633-.51781-.3189-.10876-.1069-.19448-.2328-.22147-.3685-.00501-.0238-.01004-.0475-.01505-.0713-.04497-.2008-.10081-.4515.07632-.8619.02447-.055.04622-.1064.06631-.1533.00627-.0156.01317-.0313.01944-.0462.01883-.0443.03555-.0851.05061-.1219.0251-.0625.04559-.1157.06252-.1608.0069-.0176.01319-.0345.01883-.05.05061-.142.05688-.1951.06379-.2501.00626-.0431.01256-.0958.03012-.1709.05186-.2215.07883-.409.10269-.5761.04245-.3004.07945-.5599.24132-.7981.02761-.0406.05815-.0776.09265-.11.01193-.0113.02323-.022.03555-.0326.01256-.0107.0251-.0201.03744-.0295.03932-.0276.08135-.0519.12694-.0726.01569-.0069.03139-.0138.04684-.0194.032-.012.06568-.022.10081-.0308.14886-.0362.32456-.0418.52656-.0163.2209.0176.4254.0594.6067.11.1514.0418.2865.0908.4009.1364.012.0044.0233.0088.0345.0138.022.0088.0431.0175.0638.027.0314.0131.0601.0257.087.0374.0356.0163.0682.0307.0971.0437l.0269.0125c.1276.0582.2372.122.3309.1889.0462.0339.0895.0682.1282.1031.0132.0113.0257.0232.0374.0358.0126.0119.0245.0238.0356.0357.3513.37.334.7978.2733 1.0612zm.8474-4.4736-.0355.2139c-.082.4823-.2702 1.1434-.9645 1.3136-.668.1633-.8263.1983-1.3017.2196-.0107.0012-.0219.0012-.0332.0012-.3472 0-1.0152-.2189-1.1335-.7631-.07575-.3503.0788-.6042.3333-1.0252.0425-.0694.0883-.1438.137-.2271.3365-.56672.4691-.97704.5755-1.30601.1038-.32144.1901-.58723.4122-.80747.0513-.05122.1094-.09955.177-.14576.043-.02948.0882-.05562.1357-.08009.0631-.03137.1294-.05877.1989-.08072.1545-.04937.3214-.07447.4885-.07447.3239 0 .6475.09328.8782.27836.1037.08324.2513.24951.3371.73992.0441.25262-.031.71691-.205 1.74334zm4.9533 1.3723c-.239.4103-.3697.6362-.5761.8056-.4097.3365-.8876.4216-1.281.4216-.2827 0-.5228-.0437-.6642-.0694-.4065-.0745-1.1634-.2121-1.4154-.8094-.0493-.1181-.05-.1932-.05-.2884 0-.0939 0-.252-.0437-.628l-.0025-.0251c-.0201-.1702-.0424-.3628.0063-.6098l.0056-.0295c.1427-.7255.1814-.83632.2134-.89886.0738-.14263.2488-.19888.3914-.12567.1383.07192.1958.23945.1308.38023-.0145.0412-.055.1957-.1653.7568l-.0056.0295c-.0314.1583-.0176.2784.0006.4304l.0025.0257c.0475.4085.0475.5935.0475.6937 0 .0176 0 .0371.0006.0486.0002.0044.0024.0104.0038.0146.0423.1003.1321.179.2436.2412.0959.0536.1991-.0403.1785-.1483-.1201-.629-.1077-1.3511.1309-1.8011.0799-.1531.2279-.4034.3685-.63711.0004-.00065.0009-.00124.0012-.00192.0003-.00067.0008-.00126.0012-.00191.0142-.02351.0285-.04683.0425-.07034.0119-.02009.0239-.03931.0349-.05814.0619-.10268.1201-.19701.1665-.27209.0063-.01067.0126-.02133.0188-.03137.0044-.00753.0088-.01443.0132-.0207.01-.0163.0188-.03137.027-.04434.0037-.00627.0075-.01191.0106-.01757.0019-.0025.0032-.00501.0044-.0069.0044-.00753.0088-.01443.0126-.02007.0075-.01193.0132-.0207.0163-.02634.0002-.00046.0005-.00092.0007-.00135.0007-.00126.002-.00309.0027-.00435.0005-.00088.0006-.00101.0012-.00181.0346-.0504.0689-.09896.1026-.14555.0761-.10503-.0128-.23926-.131-.18595-.2029.09154-.3396.19579-.3696.21959-.1257.10018-.3084.07947-.4078-.04622-.0995-.12569-.0788-.3089.0468-.40908.1496-.11753.942-.69557 1.891-.42412.6837.19451 1.0421.71691 1.1772.91329.1088.15956.4424.64372.4317 1.31985-.008.5155-.2232.8865-.6149 1.5601z"/><path d="m12.2678 8.47815c-.0485.11753-.1066.26329-.1691.42162-.1458.3666-.3112.78193-.3907.9325-.1372.26023-.2439.42433-.3292.55673-.0974.1518-.1752.2721-.234.4396-.1029.2932-.1213.6209-.0544.9773-.1817-.0201-.4793-.1454-.513-.3031-.0251-.1175.0479-.2459.2629-.5996.0431-.0706.0893-.1474.1399-.2327.3696-.6224.5191-1.08541.6291-1.424.1186-.36829.1746-.52284.3635-.65187.0844-.05877.1873-.09619.295-.11648z"/><path d="m11.9073 21.5312c-.2014.4115-.4521.7911-.6084.9794-.1294-.3498-.3542-1.1513-.2948-1.796.0016-.0187.0037-.037.0064-.055.0239-.1991.0768-.3819.1709-.5283.0621-.0962.234-.155.4294-.155.144 0 .3009.0316.4358.104h.001c.0724.0386.1709.1169.1811.3444.0149.3072-.1315.7202-.3214 1.1065z"/><path d="m22.9429 16.9203c.0156.0126.0254.0315.0165.0495-.0601.1209-.1323.2056-.2175.3056-.1027.1223-.2203.2612-.3297.4777-.1557.3067-.2055.5866-.2317 1.3031-.0309.8417.0016 1.3146.0262 1.6594.0232.333.0376.5337-.0218.8585-.1197.655-.3999 1.0888-.7548 1.6378-.444.6866-.9032 1.3961-1.6638 1.6225-.0708.0217-.073.0217-.2715.0224-.1725 0-.4597.0004-1.0032.0207-.9936.0359-1.492.0537-1.9184.1358-.4473.0866-.6807.1818-.907.2732-.2041.0825-.3971.1611-.7671.2371-.2204.0446-.55.0931-1.6731.0946-1.1671.0022-1.8717.0029-2.8021-.1031-1.2766-.1459-1.91738-.2188-2.34296-.4461-1.00384-.5355-1.42774-1.4985-2.12898-3.0937-.0012-.0029-.00242-.0057-.00361-.0085-.00867-.0198.01552-.039.03415-.0279.03326.0207.06796.0377.10458.0498.03052.0109.06252.0192.09474.0246.06419.0109.13111.0116.19907 0 .01193-.0021.02282-.0047.03326-.0093.00201-.0007.00399-.0018.00597-.0026.01186-.0059.02667-.0009.03167.0113.04456.123.11544.2323.23445.2954.11921.0623.25472.067.38731.066.13656-.0022.27418-.0098.41032-.0262.07214-.0076.14591.0277.17356.0947.12456.3022.27903.521.51093.5532.01254.0017.02887.0037.04957.0037.04521 0 .11161-.0113.2023-.0649.11187-.066.28038-.0244.36539.0738.05.0579.10486.1025.15318.1413.23883.2453.8194.3629 1.3069.3629.266 0 .5044-.0349.6447-.1034.2008-.0973.2008-.2469.191-.3074-.0171-.1084-.0325-.216-.0457-.3226-.0016-.0127.0178-.0177.0229-.0059.0293.0636.0648.143.16.1583.0102.001.0217.0034.0349.0034.1359 0 .3472.0442.3837.1751.0186.0666.0449.129.0806.1856.0815.1291.2476.283.5768.2885h.0255c.3781 0 .6698-.1237.8666-.3679.0128-.0159.025-.032.0366-.0486.0708-.0994.2808-.1038.3708-.0211.1012.0936.2286.142.3706.142.0228 0 .0458-.0011.0696-.0037.1692-.0181.3156-.1078.425-.2606.0715-.0999.1238-.2227.1619-.3555.0112-.0392.0649-.0507.0949-.0233.0724.0668.1882.1376.3553.1376.0408 0 .0849-.0044.1318-.0142.3283-.0659.4918-.3378.5692-.6445.0026-.0103.0175-.0131.0243-.005.0832.1012.2367.2181.5038.2181.0136 0 .0278 0 .0418-.0007.1414-.0065.2606-.0685.3466-.1796.101-.1317.1429-.3245.1542-.5206.0042-.0723.0506-.1357.1169-.1646.2778-.1211.6055-.3669.7032-.5357.0007-.0012.0014-.0024.002-.0036.0301-.0529.0773-.096.1369-.1077.2063-.0403.2987-.0802.3829-.1169.0707-.031.1274-.0554.2861-.0801 1.2623-.1926 1.5087-.2351 1.7818-.4172.4086-.2725.4293-.6475.4494-1.0103.0174-.3068.037-.655.2752-1.0637.0866-.1491.1866-.3352.2928-.532.1816-.337.4339-.8057.6187-1.063.0421-.0585.1191-.0768.1853-.0485.4278.1824.7896.3634.8686.427z"/><path d="m10.6839 20.6748c-.05.4365-.0806 1.0195-.0099 1.7792.0201.2142.0479.4369.0826.6619-.0598.0327-.2384.0786-.556.0734-.45658-.0091-.90099-.1239-1.03443-.2682l-.0207-.0187c-.11104-.0893-.18382-.148-.19429-.3074-.00333-.0537.01966-.1071.06903-.1824.02719-.0424.06315-.0912.10769-.1517.07676-.103.17191-.2314.26937-.3967.28567-.4827.39401-.6319.53161-.8201.01089-.0152.02238-.0305.03431-.0462.08111-.111.17631-.2438.31931-.462.1067-.162.1954-.289.2684-.3885.1219-.1659.2018-.2558.253-.3047-.0075.075-.0245.1807-.0408.2781-.0242.1497-.0548.3332-.0792.554z"/><path d="m10.4748 13.8903c-.0027.0037-.006.0075-.0088.0115-.0594.0822-.1273.1752-.2083.3563-.2177.4838-.2219.7575-.2252.9777-.0021.1155-.0033.2073-.03493.3146-.02175.0707-.0571.1518-.09787.2453-.12842.2938-.29593.679-.22085 1.1975-.10394-.05-.26288-.1644-.28504-.2252-.00544-.0283-.01151-.0561-.018-.0839-.03596-.1617-.0598-.2671.0431-.5038.27039-.6236.30365-.7715.32477-.9413.0044-.037.00879-.0659.01966-.1128.0571-.2459.08701-.4565.11147-.6257.03638-.2568.06087-.4266.14749-.5544.0315-.0472.1208-.0717.2486-.0717.0506 0 .1077.0037.1698.0125l.0147.0011c.0062.0006.0129.0012.0194.0023z"/><path d="m10.118 20.0416c-.0146-.1495-.0408-.2993-.0951-.4402-.0038-.0072-.0201-.0431-.02345-.05-.00982-.018-.02112-.0349-.03159-.0527-.00061-.0007-.00105-.0007-.00105-.0011-.00063-.001-.00104-.001-.00104-.0016-.00605-.0065-.01149-.013-.01735-.0191-.0088-.0088-.01842-.0173-.02782-.0251-.00168-.0021-.00335-.0037-.00481-.0044-.0044-.0037-.01086-.0087-.01798-.0129-.0115-.0061-.02238-.0126-.03368-.0184-.00335-.0021-.01149-.0055-.01902-.0082 0 0-.00064 0-.00064-.0006-.00167-.0006-.00335-.0011-.00481-.0017-.00167-.001-.00272-.0017-.00376-.0021-.00168-.0006-.00272-.001-.00377-.001-.00104 0-.00104-.0006-.00104-.0006-.00333-.0017-.00542-.0021-.0071-.0028-.08701-.032-.17526-.0669-.26769-.0805-.00063 0-.00209-.0006-.00335-.0006h-.00209c-.01025 0-.03159-.0021-.03263-.0021-.01296-.0006-.02552-.0006-.03805 0-.00608 0-.01193 0-.01738.0006h-.00481c-.00209 0-.00481.0006-.00751.0006-.00104.0011-.00272.0011-.00335.0011s-.00104 0-.00104 0c-.02071.0061-.04248.0115-.06318.018-.00877.0044-.01839.0088-.02717.0142-.00753.0044-.01528.0098-.02281.0136-.00063.0006-.00165.0017-.00272.0017l-.00165.0016c-.00984.0099-.0201.0191-.02991.0289-.00336.0033-.01257.0146-.01903.0228-.00168.0011-.00272.0021-.00272.0031-.00063.0007-.00063.0007-.00105.0011-.00063.0006-.00063.001-.00167.0017-.00063.0006-.00063.001-.00105.001-.00272.0048-.00544.0088-.00648.0109-.03492.0543-.07027.1083-.10667.1621-.08385.1284-.16982.2561-.25681.3831-.07947.1148-.15893.2296-.23778.3444-.04412.0642-.08764.1278-.13113.192-.00753.0109-.01463.0218-.02175.0326.05166.0099.10332.0201.15561.0299.11689.0214.23338.0419.35195.0582.24427.0332.49252.0485.73992.0397.01193-.0006.02384 0 .03492.0021.0594-.0849.12946-.1861.21879-.3216.0495-.0758.0968-.1458.1413-.2106-.02-.031-.0326-.068-.037-.1071z"/><path d="m9.24847 21.0509c-.02114.1882-.23173.6757-.56048 1.1398-.27523.388-.44232.482-.47558.4853-.13279-.0183-.26393-.347-.36787-.6729-.04182-.1321-.07946-.264-.11105-.3744-.07131-.248-.08428-.5806-.07172-.7895.2775.1539.76499.1954 1.44949.1981h.00209c.04519.0048.08992.0098.13512.0136z"/><path d="m8.76132 19.5011v.0011c-.00335.0044-.00608.0092-.00921.0136-.11753.1729-.2361.345-.35468.5174-.06149.0886-.12234.1773-.18279.2666-.03324.0485-.0778.1019-.11648.1594-.09746-.0228-.1947-.0452-.29112-.0724-.07884-.0228-.15664-.0472-.23297-.0778-.01528-.0054-.02991-.0115-.04412-.0184-.01256-.0255-.03054-.0485-.05229-.0659.00063-.0006.00063-.0021.00105-.0027.02782-.0567.05605-.1138.08385-.1702.0527-.1039.10562-.2073.16437-.3074.10458-.1807.23069-.3646.40762-.4817.00878-.0065.0184-.0125.0278-.0184.0686-.0431.13721-.0734.22148-.0838.00984-.0011.06903-.0007.09682.0016.00481 0 .0088.0007.01152.0007h.00061c.00211.0006.00607.0016.01193.0037.0207.0065.0414.0109.0621.018.00712.0034.01361.0065.02071.0103.018.0108.03639.0207.05333.0342-.02719-.0207.03764.0463.03764.0415.05229.0723.06818.1328.08283.2306z"/><path d="m7.83027 19.0095c-.21771.179-.37601.4174-.50819.6654-.07403.1376-.14095.2779-.21059.4179-.00712.0142-.01424.0278-.02238.0418-.06587-.0142-.13176-.0333-.19596-.0538-.06859-.0217-.13656-.0468-.20182-.0771-.02991-.0143-.0598-.0289-.08971-.0446.06524-.1236.14305-.2422.21708-.3574.10456-.1627.21771-.3227.34068-.4728.04622-.0571.09515-.1197.15998-.1573.06631-.0391.14639-.0299.22252-.0255.08052.005.1671.0071.24322.0376.0157.0067.03263.0172.04517.0258z"/><path d="m7.4846 21.9306c-.01088.0092-.02009.0192-.02823.0305-.00753.0022-.01528.0039-.02009.005-.05227.0055-.1056.0094-.15831.0126-.10122.0066-.20412.0109-.30639.0072-.05708-.0021-.10874-.0109-.13216-.0472-.03764-.0573-.04893-.1567-.06254-.2324-.06692-.3717-.07569-.759-.02823-1.135.19428.0696.39401.1236.59896.1573-.04412.339.03096.8367.07508.9892.02049.0709.04119.1425.06191.2128z"/><path d="m6.85968 18.8863c-.17191.2111-.32856.4359-.46909.6686-.05667.0948-.12089.1927-.16815.2939-.06796-.0191-.12945-.0462-.1947-.0866-.04998-.031-.0985-.0653-.14576-.1012-.01193-.0099-.04456-.0354-.06483-.0517-.00481-.0037-.0092-.0075-.01423-.0102.01569-.0446.04456-.0941.06045-.1274.03596-.0788.07612-.1562.11816-.2317.07989-.1414.16919-.2796.27041-.407.03764-.0468.0734-.1073.13174-.1246.05334-.0153.12361-.0082.16647-.0007.12737.0247.22692.0824.30953.1786z"/><path d="m5.53389 19.8063c.00281-.011.01691-.0124.02353-.0032.04497.0626.10673.1172.17289.1688.02965.0225.05912.0451.08908.0663.00465.0033.00685.0091.00552.0146-.06924.2873-.11707.5917-.11866.8923-.00008.0166-.02514.0202-.02901.004-.08575-.3587-.19716-.9322-.14335-1.1428z"/><path d="m6.37697 20.4436c-.03492.2568-.05166.5143-.04036.7731.00544.142.0207.283.03973.4233 0 .0011 0 .0021.00063.0028v.0006c-.03054-.0071-.06252-.0082-.09515-.0034.00649-.0021-.01025-.001-.01735-.001h-.00211c-.00479-.0006-.01191-.0011-.01422-.0017-.03596-.0088-.03909-.0125-.06755-.0305-.037-.0239-.07612-.0676-.10227-.1121-.069-.1196-.08426-.265-.0897-.4005-.01026-.266.01253-.5316.0621-.7922.04245.0174.07948.0333.14095.0598.06087.0266.12402.0527.18552.0812v.0006z"/></g></g></svg>