<svg xmlns="http://www.w3.org/2000/svg" width="32" height="32" fill="none"><defs><linearGradient id="ape__c" x1="-3.048" x2="33.621" y1="-2.83" y2="35.656" gradientUnits="userSpaceOnUse"><stop offset=".206" stop-color="#89D0FF"/><stop offset=".398" stop-color="#EBBF9A"/><stop offset=".602" stop-color="#EB8280"/><stop offset=".841" stop-color="#A281FF"/></linearGradient><linearGradient id="ape__d" x1="-1.62" x2="32.184" y1="-1.182" y2="34.443" gradientUnits="userSpaceOnUse"><stop offset=".206" stop-color="#89D0FF"/><stop offset=".398" stop-color="#EBBF9A"/><stop offset=".602" stop-color="#EB80DA"/><stop offset=".841" stop-color="#A281FF"/></linearGradient><linearGradient id="ape__e" x1="-.186" x2="30.753" y1=".248" y2="33.011" gradientUnits="userSpaceOnUse"><stop offset=".206" stop-color="#89D0FF"/><stop offset=".398" stop-color="#EBBF9A"/><stop offset=".602" stop-color="#EB8280"/><stop offset=".841" stop-color="#A281FF"/></linearGradient><linearGradient id="ape__f" x1="1.244" x2="29.313" y1="1.684" y2="31.576" gradientUnits="userSpaceOnUse"><stop offset=".206" stop-color="#89D0FF"/><stop offset=".398" stop-color="#EBBF9A"/><stop offset=".602" stop-color="#EB80E7"/><stop offset=".841" stop-color="#A281FF"/></linearGradient><linearGradient id="ape__g" x1="2.675" x2="27.877" y1="3.114" y2="30.133" gradientUnits="userSpaceOnUse"><stop offset=".206" stop-color="#89D0FF"/><stop offset=".398" stop-color="#EBBF9A"/><stop offset=".602" stop-color="#EB80D3"/><stop offset=".841" stop-color="#A281FF"/></linearGradient><linearGradient id="ape__h" x1="4.103" x2="26.438" y1="4.544" y2="28.701" gradientUnits="userSpaceOnUse"><stop offset=".206" stop-color="#89D0FF"/><stop offset=".398" stop-color="#EBBF9A"/><stop offset=".602" stop-color="#A280EB"/><stop offset=".841" stop-color="#A281FF"/></linearGradient><radialGradient id="ape__b" cx="0" cy="0" r="1" gradientTransform="rotate(90 -.838 16.838) scale(17.9756)" gradientUnits="userSpaceOnUse"><stop offset=".167" stop-color="#073183"/><stop offset="1" stop-color="#0054F9"/></radialGradient><clipPath id="ape__a"><path fill="#fff" d="M0 16C0 7.163 7.163 0 16 0s16 7.163 16 16-7.163 16-16 16S0 24.837 0 16Z"/></clipPath></defs><g clip-path="url(#ape__a)"><path fill="url(#ape__b)" d="M32 16c0-8.837-7.163-16-16-16S0 7.163 0 16s7.163 16 16 16 16-7.163 16-16Z"/><g stroke-miterlimit="10" opacity=".8"><path stroke="url(#ape__c)" stroke-width=".221" d="M13.167 33.881a41.63 41.63 0 0 1-3.216-.146l-.257-.02-.257-.036c-.112-.016-.265-.032-.412-.048-.897-.098-2.566-.28-4.408-1.145l-.286-.134-.267-.15c-3.54-1.984-4.865-4.97-5.578-6.576l-.152-.34a14.186 14.186 0 0 1-.781-2.01l-.043-.136-.036-.132c-.514-1.826-.644-3.403-.409-4.963.237-1.566.817-2.99 1.824-4.482l.523-.853c.106-.172.18-.362.221-.56C.031 10.175.935 8.777 1.38 8.109c.122-.809.323-1.603.601-2.372l.042-.117.044-.114.034-.1c.2-.6.667-2.007 1.865-3.484l.45-.545.458-.414A10.626 10.626 0 0 1 8.98-1.354a11.588 11.588 0 0 1 2.616-.463l.085-.006.13-.006a9.808 9.808 0 0 1 2.105.128c.341.058.69.018 1.01-.115a11.541 11.541 0 0 1 2.954-.793l.217-.03a25.068 25.068 0 0 1 2.973-.191c1.741 0 3.24.226 4.582.69l.114.04.111.041c2.96 1.119 4.467 2.682 5.551 4.061l.052.066.15.132a10.337 10.337 0 0 1 2.457 2.765l.202.333.17.349c1.45 2.956.989 5.685.816 6.711l-.01.055a11.74 11.74 0 0 1-.593 2.217 11.307 11.307 0 0 1-.486 2.036 11.811 11.811 0 0 1-1.681 3.287c-.42.593-.894 1.147-1.416 1.653a1.152 1.152 0 0 0-.34.668 10.28 10.28 0 0 1-.078.464c-.424 2.278-1.42 3.863-1.827 4.494l-1.23 1.765c-1.48 1.844-3.235 3.06-5.36 3.714l-.516.161-.555.097a10.96 10.96 0 0 1-1.928.167c-.089 0-.178 0-.278-.003h-.029l-.11.007-.117.004h-.003a2.84 2.84 0 0 0-.726.12c-1.373.42-2.926.617-4.825.617Z" opacity=".8"/><path stroke="url(#ape__d)" stroke-width=".221" d="M13.167 32.669c-1.123 0-2.2-.072-3.105-.143l-.214-.017-.215-.03c-.134-.018-.297-.035-.455-.053-.871-.095-2.328-.253-3.955-1.016l-.238-.112-.223-.125C1.64 29.42.482 26.819-.208 25.264l-.166-.37a13.01 13.01 0 0 1-.711-1.832l-.036-.113-.031-.11c-.457-1.624-.575-3.01-.371-4.362.203-1.353.717-2.603 1.613-3.92l.67-1.093c.118-.194.199-.408.239-.632.333-1.857 1.21-3.173 1.609-3.773l.05-.075.019-.03.024-.055.071-.229c.105-.761.29-1.51.553-2.233l.035-.097.039-.098c.012-.03.023-.064.057-.165.19-.572.585-1.76 1.619-3.035l.375-.454.38-.344A9.212 9.212 0 0 1 9.39.234c.75-.222 1.524-.358 2.305-.405l.072-.005.107-.005c.13-.006.26-.01.388-.01.56 0 1.12-.162 1.669-.049.424.088.864.04 1.26-.134.74-.326 1.735-.456 2.875-.598.08-.012.152-.021.207-.028a22.71 22.71 0 0 1 2.794-.182c1.58 0 2.925.2 4.114.611l.095.033.093.036C27.993.49 29.29 1.817 30.3 3.104l.135.17.024.022.192.17.025.027a8.863 8.863 0 0 1 2.185 2.434l.169.277.142.29c1.246 2.543.856 4.857.69 5.845l-.01.052a10.355 10.355 0 0 1-.577 2.099 9.87 9.87 0 0 1-.448 1.937 10.446 10.446 0 0 1-1.486 2.908c-.437.62-.942 1.19-1.505 1.699a1.419 1.419 0 0 0-.463.908 9.326 9.326 0 0 1-.11.753c-.375 2.01-1.25 3.4-1.65 4.023l-.996 1.447c-1.323 1.7-2.891 2.812-4.79 3.398l-.43.134-.464.08a9.557 9.557 0 0 1-1.681.146c-.082 0-.166 0-.256-.002h-.078l-.055.003-.098.006-.1.003-.197.008c-.261.009-.52.054-.77.133-1.264.404-2.725.595-4.532.595Z" opacity=".8"/><path stroke="url(#ape__e)" stroke-width=".208" d="M13.167 31.238a38.86 38.86 0 0 1-2.994-.138L10 31.087l-.17-.024c-.155-.021-.33-.04-.498-.059-.833-.09-2.09-.227-3.5-.889l-.192-.09-.179-.1c-2.71-1.518-3.704-3.758-4.363-5.24l-.179-.403a11.547 11.547 0 0 1-.64-1.651l-.028-.09-.025-.089c-.4-1.422-.506-2.617-.334-3.76.175-1.161.63-2.242 1.433-3.405l.096-.138.103-.132.19-.245.402-.739c.132-.241.221-.503.264-.775.256-1.657 1.054-2.854 1.422-3.406l.002-.003.062-.094.079-.125c.03-.067.071-.157.107-.25.036-.112.078-.25.125-.394.087-.706.254-1.4.498-2.067l.028-.078.03-.079c.026-.065.045-.122.082-.234.177-.53.504-1.513 1.373-2.585l.3-.364.304-.274a7.798 7.798 0 0 1 3.013-1.7c.65-.194 1.32-.31 1.996-.35l.057-.003.087-.004a6.915 6.915 0 0 1 2.045.211 2.114 2.114 0 0 0 1.453-.153c.722-.35 1.687-.722 2.817-.86.078-.012.143-.02.196-.027a21.293 21.293 0 0 1 2.615-.17c1.418 0 2.61.173 3.648.532l.076.026.074.028c2.41.911 3.49 2.104 4.312 3.151.181.23.209.267.333.377l.154.137.06.06c.396.308 1.207.94 1.917 2.11l.135.222.113.232c1.044 2.13.72 4.053.563 4.978l-.008.05a8.977 8.977 0 0 1-.563 1.976l-.007.058a8.566 8.566 0 0 1-.4 1.784 9.065 9.065 0 0 1-1.293 2.53 8.512 8.512 0 0 1-1.676 1.787 1.363 1.363 0 0 0-.516 1.005 8.263 8.263 0 0 1-.131 1.139c-.324 1.743-1.085 2.951-1.473 3.554l-.772 1.14c-1.163 1.554-2.542 2.56-4.209 3.07l-.343.107-.37.065a8.167 8.167 0 0 1-1.437.124c-.075 0-.151 0-.233-.002h-.101c-.014 0-.057 0-.143.005l-.08.005-.075.003-.398.015c-.278.01-.554.06-.819.148-1.158.39-2.524.573-4.243.573Z" opacity=".8"/><path stroke="url(#ape__f)" stroke-width=".194" d="M13.167 29.808a37.52 37.52 0 0 1-2.884-.134l-.128-.01-.128-.018c-.176-.024-.361-.044-.54-.064-.783-.085-1.853-.201-3.048-.762l-.143-.067-.133-.075c-2.295-1.287-3.139-3.187-3.755-4.574-.064-.143-.13-.294-.197-.438a10.135 10.135 0 0 1-.567-1.466l-.022-.068-.018-.066c-.671-2.384-.42-4.057.899-5.965l.071-.103.078-.1.25-.322c.122-.16.245-.322.38-.489.082-.104.15-.22.198-.344l.152-.386c.064-.164.104-.337.119-.512.131-1.53.875-2.645 1.243-3.197l.002-.003.082-.123.086-.138.026-.036a6.47 6.47 0 0 0 .215-.493c.042-.14.11-.355.175-.551 0-.008 0-.016.003-.024.07-.641.218-1.271.44-1.877l.021-.058.023-.06a5.58 5.58 0 0 0 .107-.304c.158-.473.42-1.264 1.126-2.134l.226-.273.226-.205c1.666-1.51 3.53-1.641 4.153-1.683l.043-.003.065-.004a5.579 5.579 0 0 1 2.405.434.885.885 0 0 0 .755-.035h.004c.633-.367 1.793-1.033 3.272-1.211l.186-.025a20.832 20.832 0 0 1 2.435-.158c1.257 0 2.296.149 3.18.454l.057.02.056.02c2.066.781 2.957 1.76 3.692 2.697.197.25.286.367.507.562l.115.103.093.094.07.057c.351.27 1.002.775 1.58 1.726l.101.166.086.174c.84 1.717.577 3.274.436 4.11l-.008.05a7.596 7.596 0 0 1-.516 1.769l-.02.048-.01.049a2.49 2.49 0 0 0-.025.161l-.008.066a7.13 7.13 0 0 1-.337 1.507c-.25.77-.62 1.497-1.098 2.152a6.961 6.961 0 0 1-1.595 1.648 2.082 2.082 0 0 0-.855 1.653 7.067 7.067 0 0 1-.118 1.2c-.273 1.476-.903 2.476-1.296 3.085l-.56.841c-1.005 1.403-2.19 2.299-3.615 2.735l-.075.024a2.823 2.823 0 0 1-.37.09l-.09.015c-.394.07-.792.105-1.192.104-.067 0-.136 0-.21-.002h-.124c-.028 0-.102 0-.235.008l-.059.003-.057.003c-.192.007-.43.015-.642.024-.29.012-.577.069-.851.167-1.026.367-2.282.54-3.91.54Z" opacity=".8"/><path stroke="url(#ape__g)" stroke-width=".18" d="M13.167 28.377c-.976 0-1.95-.065-2.773-.13l-.085-.006-.086-.012a20.023 20.023 0 0 0-.582-.069c-.72-.078-1.615-.176-2.595-.635l-.095-.045-.089-.05c-1.88-1.053-2.582-2.636-3.147-3.907l-.215-.476a8.688 8.688 0 0 1-.494-1.28l-.014-.046-.013-.043c-.553-1.967-.37-3.216.7-4.765l.047-.07.052-.065c.094-.12.18-.231.26-.339.28-.366.549-.719.95-1.148a.557.557 0 0 0 .15-.344l.03-.463-.012-.151.005-.158c.042-1.269.68-2.224 1.02-2.736.04-.06.081-.12.106-.16l.057-.091.053-.072c.064-.104.231-.459.358-.8.044-.142.128-.415.202-.631A1 1 0 0 0 7 9.45a6.616 6.616 0 0 1 .368-1.568l.013-.04.016-.039c.053-.135.09-.246.132-.374.135-.405.338-1.016.88-1.684l.15-.182.15-.135c1.167-1.06 2.438-1.26 3.296-1.318l.029-.003h.044c.062-.003.124-.004.185-.004.733 0 1.61.351 2.07.564a.919.919 0 0 0 .705.025c.286-.103.565-.226.835-.367.585-.34 1.557-.901 2.763-1.042l.175-.024c.122-.015.313-.035.55-.06.411-.04 1.041-.086 1.707-.086 1.094 0 1.981.123 2.712.375l.038.013.035.014c1.726.652 2.412 1.402 3.073 2.242.214.271.366.465.681.747l.077.068.071.072c.064.063.134.122.207.175.296.229.793.613 1.233 1.338l.067.11.057.117c.638 1.302.433 2.516.31 3.242l-.008.05c-.081.5-.224.989-.425 1.455v.004a1.43 1.43 0 0 0-.114.379 3.87 3.87 0 0 0-.038.247l-.009.066a5.757 5.757 0 0 1-.273 1.23 6.21 6.21 0 0 1-.904 1.773c-.583.832-1.256 1.417-2.068 1.788a1.174 1.174 0 0 0-.687 1.019 2.267 2.267 0 0 0-.003.202c.04.626.086 1.334-.054 2.065-.223 1.207-.735 2.02-1.119 2.615 0 0-1.764 2.455-3.369 2.945l-.172.053-.186.033a5.303 5.303 0 0 1-.946.082c-.06 0-.122 0-.188-.002h-.146c-.064 0-.166 0-.326.011l-.039.003h-.038c-.614.022-1.195.043-1.356.074a.993.993 0 0 0-.25.074c-.909.398-2.1.584-3.743.584Z" opacity=".8"/><path stroke="url(#ape__h)" stroke-width=".18" d="M13.167 26.947c-.927 0-1.866-.063-2.662-.125l-.043-.003-.042-.006c-.218-.03-.425-.053-.625-.075-.677-.073-1.378-.15-2.141-.508l-.048-.023-.045-.024c-1.466-.823-2.01-2.05-2.539-3.24-.075-.17-.152-.344-.232-.517a7.264 7.264 0 0 1-.42-1.091l-.007-.023-.006-.022c-.44-1.566-.328-2.365.5-3.564l.025-.036.025-.033c.098-.124.186-.24.271-.352.398-.522.743-.974 1.514-1.686l.003-.002a.406.406 0 0 0 .102-.43l-.14-.396a2.886 2.886 0 0 1-.058-.38v-.004L6.59 14.3l.003-.079c.028-.861.481-1.54.781-1.99.047-.072.092-.137.126-.193l.029-.046.032-.043c.16-.214.418-.808.554-1.176.035-.114.127-.418.203-.639.054-.165.09-.337.105-.51a5.18 5.18 0 0 1 .294-1.26l.007-.02.008-.02c.066-.17.112-.31.158-.445.12-.36.255-.768.632-1.234l.076-.091.074-.067c.829-.753 1.738-.905 2.438-.951h.038c.04 0 .079-.003.118-.003.682 0 1.206.28 1.553.465l.08.043.013.006c.095.052.178.097.256.135a.986.986 0 0 0 .696.072 8.943 8.943 0 0 0 1.715-.683l.01-.006c.524-.304 1.314-.762 2.24-.863.058-.01.113-.016.166-.023a17.231 17.231 0 0 1 2.075-.135c.933 0 1.667.097 2.245.297l.019.006.019.007c1.384.524 1.89 1.071 2.452 1.788.229.292.445.567.855.932l.038.036.036.036c.111.112.23.215.358.308.246.19.583.451.886.95l.034.055.028.059c.435.888.29 1.747.185 2.374l-.009.05a4.726 4.726 0 0 1-.337 1.148c-.093.211-.16.433-.198.661a5.25 5.25 0 0 0-.052.332l-.008.068a4.413 4.413 0 0 1-.21.952c-.158.5-.398.972-.71 1.394-.525.755-1.108 1.22-1.883 1.466-.37.118-.69.36-.903.685l-.062.094-.068.078c-.196.224-.14 1.091-.107 1.61.036.567.074 1.155-.032 1.708-.175.946-.58 1.584-.942 2.146 0 0-1.347 1.943-2.562 2.312l-.088.027-.093.017a3.888 3.888 0 0 1-.702.06h-.335c-.082 0-.214 0-.415.014h-.039c-.814.03-1.306.048-1.578.1a2.41 2.41 0 0 0-.532.16c-.727.322-1.744.473-3.193.473Z" opacity=".8"/></g><path fill="#fff" d="M26.88 11.006a3.158 3.158 0 0 1-.237.801c-.1.239-.212.51-.314 1.046-.04.214-.06.372-.078.51l-.001.01-.001.007a2.73 2.73 0 0 1-.138.64 3.22 3.22 0 0 1-.491.971c-.238.317-.638.847-1.17.91a.478.478 0 0 1-.183-.012c-1.51-.771-2.81-1.342-3.259-1.47-.523-.148-.456-1.287-.396-2.293.026-.45.051-.874.03-1.238-.073-1.27-.298-2.66-1.404-3.336-.66-.405-1.511-.523-2.325-.525.151-.072.32-.17.503-.276l.005-.003c.48-.277 1.074-.622 1.665-.682l.57-.062c1.19-.135 2.22-.251 3.305.12.492.17 1.501.732 1.762 1.255.183.369.493.657 1.11 1.23.322.3.534.474.689.601l.007.006c.218.179.26.216.325.349.2.407.127.84.026 1.44Zm-5.528 5.208c.087.03.12.135.07.212-.158.243-.337.569-.55.965-.105.193-.203.376-.286.519-.292.503-.316.926-.335 1.265-.02.356-.038.519-.25.66-.175.118-.355.157-1.6.347a1.384 1.384 0 0 0-.439.13c-.086.035-.172-.039-.167-.132.009-.174.015-.387.015-.652v-.054a6.998 6.998 0 0 0-.012-.601c-.016-.318-.019-.451.066-.59.104-.167.185-.218.318-.302.187-.117.442-.278.82-.797.2-.275.245-.424.273-.553.011-.053.016-.073.17-.19.164-.125.661-.502 1.299-.395.168.029.381.09.608.168Zm-4.92 5.746a.13.13 0 0 1-.104.055c-.13.005-.222-.027-.282-.1-.129-.156-.111-.47-.082-.653l.527-.14c.04.278.06.683-.059.839Zm.042-1.898a2.12 2.12 0 0 0-.018.254l.003.1c0 .086.004.223-.008.285-.164.06-.305.06-.49.057-.002-.054.002-.133.004-.187 0-.041.003-.083.003-.122v-.13c0-.1-.002-.266.023-.315.05-.007.1-.018.155-.03.108-.024.25-.054.34-.04a1.698 1.698 0 0 1-.012.128Zm-.973 1.737c-.025.27-.109.603-.362.654-.114.023-.169-.011-.203-.044-.171-.158-.198-.637-.175-.979.114.002.263-.023.44-.058.108-.02.215-.045.3-.064.01.126.017.307 0 .49Zm-.119-.969-.571.2c.029-.22.067-.533.08-.74.01-.146.05-.19.062-.2.004-.003.011-.01.032-.01h.01l.013.002.36-.02c.016.17.016.542.014.768Zm-.922-.177c-.033.086-.071.33-.095.5l-.715-.021a4.41 4.41 0 0 1 .158-.627c.062-.178.129-.312.19-.35a.313.313 0 0 1 .327.03c.157.134.2.288.134.468Zm-.268 2.188c-.055.076-.117.115-.193.123a.218.218 0 0 1-.186-.054c-.225-.207-.207-.886-.199-1.213.297-.067.617-.125.769-.134.023.274.03.98-.19 1.278Zm-.932-1.728c-.036.093-.07.18-.095.259-.083.026-.337.003-.597-.054l.179-1.126c.293-.077.633-.102.715-.015.108.115-.11.69-.203.936Zm-.325 1.901c-.138.17-.346.25-.636.247-.201-.003-.273-.08-.309-.136-.16-.256-.003-.857.155-1.241l.968.058c.01.068.018.15.022.24.01.272-.024.613-.2.832Z"/><path fill="#fff" d="M20.939 14.847c-.872-.247-.797-1.522-.724-2.754.026-.436.05-.848.03-1.185-.067-1.154-.26-2.41-1.189-2.979-.997-.61-2.63-.47-3.637-.342h-.003c-.37.112-.715.185-.982.17-.594-.03-1.057-.28-1.464-.5-.318-.172-.595-.32-.856-.32h-.042c-.78.05-1.14.241-1.466.532-.082.073-.182.283-.509 1.226a4.079 4.079 0 0 0-.226.99c-.028.232-.056.47-.18.826-.085.245-.148.457-.21.66-.16.542-.288.969-.672 1.476-.045.06-.1.148-.165.249-.087.137-.194.307-.336.504-.1.139-.33.659-.318.817.019.252.1.409.194.591.094.18.2.384.22.665l.002.046c.035.447-.029.67-.878 1.43a9.073 9.073 0 0 0-1.19 1.297c-.022.03.008.075.046.072a.665.665 0 0 1 .171.002c.205.023.405.11.55.26a.09.09 0 0 0 .098.02c.138-.058.29-.049.435-.035.173.016.347.066.466.174.045.04.108.062.167.05a.747.747 0 0 1 .407.024c.097.037.18.091.249.16a.215.215 0 0 0 .252.033.591.591 0 0 1 .104-.046c.184-.063.388-.027.567.037.088.032.18.06.26.113a.748.748 0 0 1 .274.35c.044.108.19.145.284.077.113-.081.206-.092.3-.05.04.018.07.04.093.067.067.077.175.155.275.13.279-.065.616-.021.863.111a.615.615 0 0 1 .247.232h.001l.008-.049a.059.059 0 0 1 .04-.047l.06-.019c.142-.045.862-.252 1.142.043.012.012.034.013.045 0a.394.394 0 0 1 .09-.076.635.635 0 0 1 .703.06c.042.036.11.023.141-.021a.367.367 0 0 1 .335-.16l.396-.021a5.629 5.629 0 0 0 .529-.052c.041-.006.09-.017.141-.027.192-.042.41-.09.589-.007.172.08.15.276.13.448-.009.07-.018.143-.017.213l.002.098c.003.149.006.286-.023.392v.001l.018.082c.019.08.105.125.175.082.133-.082.271-.187.315-.248a.079.079 0 0 0 .01-.019.683.683 0 0 0 .028-.12c.025-.147.052-.446.055-1.053v-.066a6.902 6.902 0 0 0-.012-.565c-.016-.33-.03-.588.134-.852.159-.256.313-.353.461-.447.173-.108.367-.23.695-.68.161-.222.18-.311.197-.383.035-.167.09-.267.339-.455.202-.152.817-.619 1.646-.479.272.046.713.191 1.148.363h.001a.265.265 0 0 1 .068.027c.376.15.742.318.984.454.07.039.157.015.207-.046a.879.879 0 0 1 .243-.198c.035-.021.062-.037.088-.06.082-.069.08-.214-.014-.263a14.96 14.96 0 0 0-2.605-1.03Zm-8.309.268c-.27 1.18-2.098 2.478-2.929 2.478h-.016a.376.376 0 0 1-.094-.016l-.027-.008a1.406 1.406 0 0 1-.518-.319.74.74 0 0 1-.221-.368l-.016-.072c-.045-.2-.1-.451.077-.862l.066-.153.02-.046a9.56 9.56 0 0 0 .131-.333c.051-.142.057-.195.064-.25.007-.043.013-.096.03-.17.052-.222.08-.41.103-.577.043-.3.08-.56.241-.798a.655.655 0 0 1 .129-.143l.037-.03a.785.785 0 0 1 .275-.122c.149-.036.324-.042.526-.016.221.017.426.06.607.11a3.842 3.842 0 0 1 .5.177l.086.037.097.044.027.013a1.647 1.647 0 0 1 .532.364c.351.37.334.797.273 1.06Zm.848-4.473-.036.214c-.082.482-.27 1.143-.964 1.313-.668.163-.826.198-1.302.22l-.033.001c-.347 0-1.015-.219-1.134-.763-.075-.35.08-.604.334-1.025l.137-.227c.336-.567.469-.977.575-1.306.104-.322.19-.588.412-.808a1.233 1.233 0 0 1 .512-.306c.155-.05.322-.075.489-.075.323 0 .647.093.878.278.104.084.251.25.337.74.044.253-.031.717-.205 1.744Zm4.953 1.372c-.239.41-.37.636-.576.806-.41.336-.887.421-1.28.421-.284 0-.524-.043-.665-.07-.407-.074-1.164-.211-1.415-.809a.644.644 0 0 1-.05-.288c0-.094 0-.252-.044-.628l-.003-.025a1.82 1.82 0 0 1 .007-.61l.005-.03c.143-.725.182-.836.214-.898a.291.291 0 0 1 .522.254c-.015.041-.055.196-.166.757l-.005.03a1.254 1.254 0 0 0 0 .43l.003.026c.047.408.047.593.047.693l.001.049c0 .004.002.01.004.015a.53.53 0 0 0 .244.24c.095.054.199-.04.178-.148-.12-.628-.108-1.35.13-1.8.08-.154.229-.404.37-.638V9.79l.002-.002.042-.07.035-.058a28.465 28.465 0 0 1 .199-.324c.01-.016.018-.032.027-.045l.01-.017.005-.007a.376.376 0 0 1 .012-.02l.017-.026v-.002l.003-.004.001-.002a7.24 7.24 0 0 1 .103-.145c.076-.105-.013-.24-.131-.186a1.76 1.76 0 0 0-.37.22.29.29 0 0 1-.408-.047.292.292 0 0 1 .047-.41c.15-.117.942-.695 1.891-.423.684.194 1.042.717 1.177.913.11.16.443.644.432 1.32-.008.515-.223.886-.615 1.56Z"/><path fill="#fff" d="M12.268 8.478c-.049.118-.107.263-.17.422-.145.366-.31.782-.39.932a6.38 6.38 0 0 1-.33.557c-.097.152-.174.272-.233.44-.103.293-.121.62-.055.977-.181-.02-.479-.145-.513-.303-.025-.118.048-.246.263-.6.043-.07.09-.147.14-.232.37-.623.52-1.086.63-1.425.118-.368.174-.522.363-.651a.764.764 0 0 1 .295-.117Zm-.361 13.053a5.484 5.484 0 0 1-.608.98c-.13-.35-.354-1.152-.295-1.796a.871.871 0 0 1 .007-.055c.023-.2.076-.382.17-.529.063-.096.234-.155.43-.155.144 0 .3.032.436.104.073.039.171.117.182.345.015.307-.132.72-.322 1.106Z"/><path fill="#fff" d="M22.943 16.92c.015.013.025.032.016.05-.06.12-.132.205-.217.305-.103.123-.22.262-.33.478-.155.307-.205.587-.232 1.303-.03.842.002 1.315.027 1.66.023.333.037.533-.022.858-.12.655-.4 1.089-.755 1.638-.444.686-.903 1.396-1.664 1.622-.07.022-.073.022-.271.023-.173 0-.46 0-1.003.02-.994.036-1.492.054-1.919.136-.447.087-.68.182-.907.273-.204.083-.397.162-.767.238-.22.044-.55.093-1.673.094-1.167.002-1.872.003-2.802-.103-1.277-.146-1.917-.219-2.343-.446-1.004-.535-1.428-1.498-2.129-3.094l-.004-.008c-.008-.02.016-.04.034-.028a.556.556 0 0 0 .2.074c.064.011.13.012.199 0a.142.142 0 0 0 .033-.009l.006-.003a.023.023 0 0 1 .032.012.514.514 0 0 0 .234.295c.12.062.255.067.388.066a4.03 4.03 0 0 0 .41-.026c.072-.008.146.028.173.095.125.302.28.52.511.553a.353.353 0 0 0 .05.004.395.395 0 0 0 .202-.065c.112-.066.28-.025.366.073.05.058.104.103.153.142.239.245.82.363 1.307.363.266 0 .504-.035.644-.104.201-.097.201-.247.191-.307a9.806 9.806 0 0 1-.045-.323c-.002-.012.018-.017.023-.006.029.064.064.143.16.159.01 0 .021.003.035.003.135 0 .347.044.383.175a.698.698 0 0 0 .08.186c.082.129.248.283.578.288h.025c.378 0 .67-.123.867-.368a.895.895 0 0 0 .036-.048c.071-.1.281-.104.371-.021a.534.534 0 0 0 .44.138.594.594 0 0 0 .425-.26c.072-.1.124-.223.162-.356.011-.04.065-.05.095-.024a.512.512 0 0 0 .355.138.632.632 0 0 0 .132-.014c.329-.066.492-.338.57-.645.002-.01.017-.013.024-.005a.62.62 0 0 0 .503.218h.042a.451.451 0 0 0 .347-.18c.1-.131.143-.324.154-.52a.194.194 0 0 1 .117-.165c.278-.121.605-.367.703-.536l.002-.003a.21.21 0 0 1 .137-.108c.206-.04.299-.08.383-.117a.95.95 0 0 1 .286-.08c1.262-.193 1.509-.235 1.782-.417.409-.273.43-.648.45-1.01.017-.307.036-.655.274-1.064.087-.15.187-.335.293-.532.182-.337.434-.806.619-1.063a.153.153 0 0 1 .185-.049c.428.183.79.364.869.427Z"/><path fill="#fff" d="M10.684 20.675c-.05.436-.08 1.02-.01 1.779.02.214.048.437.083.662-.06.033-.239.079-.556.073-.457-.009-.901-.124-1.035-.268l-.02-.019c-.112-.089-.184-.148-.195-.307-.003-.054.02-.107.07-.182.026-.043.062-.092.107-.152a4.25 4.25 0 0 0 .27-.397 8.306 8.306 0 0 1 .565-.866c.081-.111.177-.244.32-.462.106-.162.195-.29.268-.389.122-.165.202-.255.253-.304a4.81 4.81 0 0 1-.04.278c-.025.15-.056.333-.08.554Zm-.209-6.785-.009.012c-.06.082-.127.175-.208.356-.218.484-.222.758-.225.978-.003.115-.004.207-.035.314-.022.071-.058.152-.098.246-.129.294-.296.679-.221 1.197-.104-.05-.263-.164-.285-.225a2.17 2.17 0 0 0-.018-.084c-.036-.162-.06-.267.043-.504.27-.623.304-.771.325-.941a.931.931 0 0 1 .02-.113c.056-.246.086-.456.11-.625.037-.257.062-.427.148-.555.032-.047.121-.072.249-.072.05 0 .108.004.17.013l.014.001.02.002Zm-.357 6.152c-.015-.15-.04-.3-.095-.44-.004-.008-.02-.044-.024-.05l-.031-.053-.001-.001-.001-.002-.018-.02a.41.41 0 0 0-.05-.041l-.034-.019a.127.127 0 0 0-.019-.008l-.005-.002-.004-.002-.004-.002-.008-.003c-.087-.032-.175-.067-.268-.08l-.003-.001H9.55l-.033-.002a.402.402 0 0 0-.055 0h-.005l-.008.001-.003.001-.064.018-.027.014-.023.014-.003.002-.001.001-.03.03a.379.379 0 0 0-.022.025l-.001.001-.002.002-.007.012a20.93 20.93 0 0 1-.363.545 114.43 114.43 0 0 0-.37.536l-.021.033.155.03c.117.021.234.042.352.058.244.033.493.049.74.04a.2.2 0 0 1 .035.002c.06-.085.13-.186.219-.322l.141-.21a.25.25 0 0 1-.037-.107Zm-.87 1.008c-.02.19-.231.677-.56 1.14-.275.389-.442.483-.476.486-.132-.018-.264-.347-.367-.673-.042-.132-.08-.264-.112-.374a2.629 2.629 0 0 1-.071-.79c.277.154.765.196 1.45.198h.001l.135.014Zm-.487-1.549v.001l-.009.014c-.117.173-.236.345-.355.517-.061.089-.122.177-.182.267-.034.048-.078.102-.117.16-.097-.024-.195-.046-.291-.073a2.456 2.456 0 0 1-.277-.096.195.195 0 0 0-.052-.066v-.003l.085-.17a5.35 5.35 0 0 1 .164-.308c.105-.18.23-.364.408-.481.008-.007.018-.013.027-.019a.524.524 0 0 1 .222-.084c.01 0 .069 0 .097.002h.011l.013.005c.02.006.041.01.062.017a.486.486 0 0 1 .02.01c.019.012.037.021.054.035-.027-.02.037.046.037.041a.462.462 0 0 1 .083.231Zm-.931-.491c-.217.178-.376.417-.508.665-.074.137-.14.278-.21.418a.754.754 0 0 1-.023.042 2.113 2.113 0 0 1-.487-.176c.065-.123.143-.242.217-.357a5.08 5.08 0 0 1 .34-.473c.047-.057.096-.12.16-.157.067-.04.147-.03.223-.026.08.005.167.007.243.038a.28.28 0 0 1 .045.025Zm-.345 2.92a.28.28 0 0 0-.029.031l-.02.005a3.464 3.464 0 0 1-.464.02c-.058-.002-.11-.011-.133-.047-.037-.058-.049-.157-.062-.233a3.776 3.776 0 0 1-.028-1.135c.194.07.394.124.599.158-.045.339.03.836.075.989.02.07.04.142.062.213Zm-.625-3.044a5.844 5.844 0 0 0-.47.669c-.056.095-.12.193-.168.294a.74.74 0 0 1-.194-.087 1.883 1.883 0 0 1-.146-.101l-.065-.052-.014-.01c.016-.044.044-.094.06-.127a3.262 3.262 0 0 1 .389-.639c.038-.047.073-.107.132-.125a.41.41 0 0 1 .166 0 .52.52 0 0 1 .31.178Zm-1.326.92c.003-.01.017-.012.023-.003a.862.862 0 0 0 .173.169l.09.066c.004.003.006.01.005.015a3.91 3.91 0 0 0-.119.892c0 .017-.025.02-.029.004-.086-.359-.197-.932-.143-1.143Zm.843.638a4.327 4.327 0 0 0-.04.773 4.404 4.404 0 0 0 .04.426.255.255 0 0 0-.095-.003c.006-.002-.01-.001-.018-.001h-.002l-.014-.002c-.036-.009-.039-.012-.067-.03a.354.354 0 0 1-.103-.112.87.87 0 0 1-.09-.4 3.51 3.51 0 0 1 .063-.793c.042.017.08.033.14.06.062.026.125.053.186.081Z"/></g></svg>