<svg fill="none" height="32" viewBox="0 0 32 32" width="32" xmlns="http://www.w3.org/2000/svg" xmlns:xlink="http://www.w3.org/1999/xlink"><linearGradient id="a"><stop offset="0" stop-color="#101211" stop-opacity=".9"/><stop offset=".12" stop-color="#101211" stop-opacity=".51"/><stop offset=".39" stop-color="#101211" stop-opacity=".11"/><stop offset="1" stop-color="#101211" stop-opacity="0"/></linearGradient><linearGradient id="b" gradientUnits="userSpaceOnUse" x1="10.4662" x2="9.02229" xlink:href="#a" y1="23.9489" y2="10.2044"/><linearGradient id="c" gradientUnits="userSpaceOnUse" x1="399.719" x2="374.548" xlink:href="#a" y1="73.5797" y2="-6.10331"/><linearGradient id="d" gradientUnits="userSpaceOnUse" x1="156.204" x2="301.521" xlink:href="#a" y1="345.353" y2="297.389"/><linearGradient id="e" gradientUnits="userSpaceOnUse" x1="45.3361" x2="2.92575" xlink:href="#a" y1="127.524" y2="233.295"/><linearGradient id="f" gradientUnits="userSpaceOnUse" x1="130.689" x2="220.235" xlink:href="#a" y1="196.533" y2="152.772"/><linearGradient id="g" gradientUnits="userSpaceOnUse" x1="274.205" x2="231.103" xlink:href="#a" y1="97.8526" y2="28.9172"/><linearGradient id="h" gradientUnits="userSpaceOnUse" x1="40.6668" x2="7.20321" xlink:href="#a" y1="106.338" y2="134.414"/><linearGradient id="i" gradientUnits="userSpaceOnUse" x1="167.512" x2="140.847" xlink:href="#a" y1="103.601" y2="65.2318"/><linearGradient id="j" gradientUnits="userSpaceOnUse" x1="104.29" x2="154.849" xlink:href="#a" y1="96.9753" y2="75.177"/><linearGradient id="k" gradientUnits="userSpaceOnUse" x1="86.3385" x2="117.102" xlink:href="#a" y1="43.3828" y2="34.4717"/><linearGradient id="l" gradientUnits="userSpaceOnUse" x1="54.4989" x2="36.7155" xlink:href="#a" y1="84.836" y2="102.082"/><linearGradient id="m" gradientUnits="userSpaceOnUse" x1="97.2478" x2="82.4786" xlink:href="#a" y1="95.1241" y2="74.8688"/><linearGradient id="n"><stop offset="0" stop-color="#101211" stop-opacity=".9"/><stop offset=".12" stop-color="#101211" stop-opacity=".62"/><stop offset=".46" stop-color="#101211" stop-opacity=".14"/><stop offset="1" stop-color="#101211" stop-opacity="0"/></linearGradient><linearGradient id="o" gradientUnits="userSpaceOnUse" x1="13.5891" x2="17.2473" xlink:href="#n" y1="17.2113" y2="15.8439"/><linearGradient id="p" gradientUnits="userSpaceOnUse" x1="56.8912" x2="47.4338" xlink:href="#n" y1="64.9896" y2="70.888"/><linearGradient id="q" gradientUnits="userSpaceOnUse" x1="53.8243" x2="49.9588" xlink:href="#n" y1="79.1611" y2="66.3457"/><path d="m16 32c8.8366 0 16-7.1634 16-16 0-8.83656-7.1634-16-16-16-8.83656 0-16 7.16344-16 16 0 8.8366 7.16344 16 16 16z" fill="#fff"/><path d="m16.0955 6.10232c-.0126-.02304-.0297-.04331-.0504-.05958-.0206-.01627-.0443-.02822-.0696-.03513s-.0518-.00864-.0778-.00508-.0511.01233-.0736.02579c-.0322.01577-.0583.0418-.074.074l-10.00282 17.60148c-.01303.0227-.02145.0477-.02478.0736-.00333.026-.0015.0523.00538.0775.00687.0252.01866.0489.03469.0695.01603.0207.03598.0379.05871.0509.03052.0158.06435.0243.09875.0247h20.16177c.0521-.0008.102-.0218.1388-.0587.0369-.0368.0579-.0866.0586-.1388.0007-.0345-.0079-.0685-.0247-.0987zm-2.1717 11.40808 3.5866-.9787-.9707 3.5613z" fill="#000"/><g fill="#646564"><path d="m5.92825 23.9996h4.05539l3.71816-14.28683-7.95452 13.99073c-.01303.0227-.02145.0477-.02478.0736s-.0015.0523.00538.0775c.00687.0252.01866.0488.03469.0695.01603.0206.03598.0379.05871.0508.03311.0169.06983.0253.10697.0247z"/><path d="m24.2721 20.2568-14.2967 3.7424h16.1064c.0521-.0007.1019-.0217.1388-.0586.0368-.0368.0579-.0866.0586-.1388.0006-.0345-.0079-.0685-.0247-.0987z"/><path d="m22.0758 18.0692 2.1881 2.1878-8.1684-14.14699c-.0126-.02304-.0297-.04331-.0504-.05958-.0206-.01627-.0443-.02822-.0696-.03513-.0254-.00691-.0518-.00863-.0779-.00508-.026.00356-.051.01233-.0736.02579-.0322.01576-.0582.0418-.074.074l-2.0483 3.60253 8.374 8.34016z"/><g opacity=".88"><path d="m9.9754 23.9994 2.9449-.7732-.0165-10.4622z" opacity=".88"/><path d="m12.9038 12.7642 9.1719 5.3052-8.374-8.35663z" opacity=".88"/><path d="m12.9203 23.2261 11.3518-2.9693-2.1963-2.1878z" opacity=".88"/></g><g opacity=".76"><path d="m12.9203 23.2275 1.966-1.1021-1.9824-7.1393z" opacity=".76"/><path d="m22.0759 18.0701-1.9331-1.1186-5.2564 5.1736z" opacity=".76"/><path d="m12.9039 14.986 7.2388 1.9658-7.2388-4.1865z" opacity=".76"/></g><g opacity=".64"><path d="m17.5104 16.531 1.1105.0083-5.717-1.5546.4277 1.5382 4.1624.0081z" opacity=".64"/><path d="m13.9074 17.493-.5758-.9705 1.5547 5.6012 1.0941-1.0857-2.0565-3.5203z" opacity=".64"/><path d="m18.6209 16.5389-2.6406 4.4991 4.1624-4.0878z" opacity=".64"/></g><g opacity=".52"><path d="m17.5104 16.5319-4.1788-.0082.5923.9952z" opacity=".52"/><path d="m16.5397 20.0935-2.6159-2.5743 2.0565 3.5203z" opacity=".52"/><path d="m18.6209 16.5395-1.1105-.0083-.9707 3.5615z" opacity=".52"/></g></g><g opacity=".7"><g opacity=".7"><path d="m5.92825 23.9996h4.05539l3.71816-14.28683-7.95452 13.99073c-.01303.0227-.02145.0477-.02478.0736s-.0015.0523.00538.0775c.00687.0252.01866.0488.03469.0695.01603.0206.03598.0379.05871.0508.03311.0169.06983.0253.10697.0247z" fill="url(#b)" opacity=".7"/><path d="m24.2721 20.2568-14.2967 3.7424h16.1064c.0521-.0007.1019-.0217.1388-.0586.0368-.0368.0579-.0866.0586-.1388.0006-.0345-.0079-.0685-.0247-.0987z" fill="url(#c)" opacity=".7"/><path d="m22.0758 18.0692 2.1881 2.1878-8.1684-14.14699c-.0126-.02304-.0297-.04331-.0504-.05958-.0206-.01627-.0443-.02822-.0696-.03513-.0254-.00691-.0518-.00863-.0779-.00508-.026.00356-.051.01233-.0736.02579-.0322.01576-.0582.0418-.074.074l-2.0483 3.60253 8.374 8.34016z" fill="url(#d)" opacity=".7"/></g><g opacity=".9"><path d="m9.9754 23.9994 2.9449-.7732-.0165-10.4622z" fill="url(#e)" opacity=".9"/><path d="m12.9038 12.7642 9.1719 5.3052-8.374-8.35663z" fill="url(#f)" opacity=".9"/><path d="m12.9203 23.2261 11.3518-2.9693-2.1963-2.1878z" fill="url(#g)" opacity=".9"/></g><g opacity=".7"><path d="m12.9203 23.2262 1.966-1.1021-1.9825-7.1394z" fill="url(#h)" opacity=".7"/><path d="m22.0758 18.069-1.9331-1.1186-5.2563 5.1735z" fill="url(#i)" opacity=".7"/><path d="m12.9038 14.9848 7.2389 1.9657-7.2389-4.1865z" fill="url(#j)" opacity=".7"/></g><g opacity=".7"><path d="m17.5104 16.531 1.1105.0083-5.717-1.5546.4277 1.5382 4.1624.0081z" fill="url(#k)" opacity=".7"/><path d="m13.9074 17.493-.5758-.9705 1.5547 5.6012 1.0941-1.0857-2.0565-3.5203z" fill="url(#l)" opacity=".7"/><path d="m18.6209 16.5389-2.6406 4.4991 4.1624-4.0878z" fill="url(#m)" opacity=".7"/></g><g opacity=".7"><path d="m17.5104 16.5307-4.1788-.0082.5923.9952z" fill="url(#o)" opacity=".7"/><path d="m16.5397 20.0924-2.6159-2.5745 2.0565 3.5203z" fill="url(#p)" opacity=".7"/><path d="m18.6209 16.5383-1.1105-.0081-.9707 3.5613z" fill="url(#q)" opacity=".7"/></g></g></svg>