<svg xmlns="http://www.w3.org/2000/svg" width="32" height="32" fill="none"><defs><linearGradient id="api3__a" x1="10.466" x2="9.022" y1="23.949" y2="10.204" gradientUnits="userSpaceOnUse"><stop stop-color="#101211" stop-opacity=".9"/><stop offset=".12" stop-color="#101211" stop-opacity=".51"/><stop offset=".39" stop-color="#101211" stop-opacity=".11"/><stop offset="1" stop-color="#101211" stop-opacity="0"/></linearGradient><linearGradient id="api3__b" x1="399.719" x2="374.548" y1="73.58" y2="-6.103" gradientUnits="userSpaceOnUse"><stop stop-color="#101211" stop-opacity=".9"/><stop offset=".12" stop-color="#101211" stop-opacity=".51"/><stop offset=".39" stop-color="#101211" stop-opacity=".11"/><stop offset="1" stop-color="#101211" stop-opacity="0"/></linearGradient><linearGradient id="api3__c" x1="156.204" x2="301.521" y1="345.353" y2="297.389" gradientUnits="userSpaceOnUse"><stop stop-color="#101211" stop-opacity=".9"/><stop offset=".12" stop-color="#101211" stop-opacity=".51"/><stop offset=".39" stop-color="#101211" stop-opacity=".11"/><stop offset="1" stop-color="#101211" stop-opacity="0"/></linearGradient><linearGradient id="api3__d" x1="45.336" x2="2.926" y1="127.524" y2="233.295" gradientUnits="userSpaceOnUse"><stop stop-color="#101211" stop-opacity=".9"/><stop offset=".12" stop-color="#101211" stop-opacity=".51"/><stop offset=".39" stop-color="#101211" stop-opacity=".11"/><stop offset="1" stop-color="#101211" stop-opacity="0"/></linearGradient><linearGradient id="api3__e" x1="130.689" x2="220.235" y1="196.533" y2="152.772" gradientUnits="userSpaceOnUse"><stop stop-color="#101211" stop-opacity=".9"/><stop offset=".12" stop-color="#101211" stop-opacity=".51"/><stop offset=".39" stop-color="#101211" stop-opacity=".11"/><stop offset="1" stop-color="#101211" stop-opacity="0"/></linearGradient><linearGradient id="api3__f" x1="274.205" x2="231.103" y1="97.853" y2="28.917" gradientUnits="userSpaceOnUse"><stop stop-color="#101211" stop-opacity=".9"/><stop offset=".12" stop-color="#101211" stop-opacity=".51"/><stop offset=".39" stop-color="#101211" stop-opacity=".11"/><stop offset="1" stop-color="#101211" stop-opacity="0"/></linearGradient><linearGradient id="api3__g" x1="40.667" x2="7.203" y1="106.338" y2="134.414" gradientUnits="userSpaceOnUse"><stop stop-color="#101211" stop-opacity=".9"/><stop offset=".12" stop-color="#101211" stop-opacity=".51"/><stop offset=".39" stop-color="#101211" stop-opacity=".11"/><stop offset="1" stop-color="#101211" stop-opacity="0"/></linearGradient><linearGradient id="api3__h" x1="167.512" x2="140.847" y1="103.601" y2="65.232" gradientUnits="userSpaceOnUse"><stop stop-color="#101211" stop-opacity=".9"/><stop offset=".12" stop-color="#101211" stop-opacity=".51"/><stop offset=".39" stop-color="#101211" stop-opacity=".11"/><stop offset="1" stop-color="#101211" stop-opacity="0"/></linearGradient><linearGradient id="api3__i" x1="104.29" x2="154.849" y1="96.975" y2="75.177" gradientUnits="userSpaceOnUse"><stop stop-color="#101211" stop-opacity=".9"/><stop offset=".12" stop-color="#101211" stop-opacity=".51"/><stop offset=".39" stop-color="#101211" stop-opacity=".11"/><stop offset="1" stop-color="#101211" stop-opacity="0"/></linearGradient><linearGradient id="api3__j" x1="86.338" x2="117.102" y1="43.383" y2="34.472" gradientUnits="userSpaceOnUse"><stop stop-color="#101211" stop-opacity=".9"/><stop offset=".12" stop-color="#101211" stop-opacity=".51"/><stop offset=".39" stop-color="#101211" stop-opacity=".11"/><stop offset="1" stop-color="#101211" stop-opacity="0"/></linearGradient><linearGradient id="api3__k" x1="54.499" x2="36.715" y1="84.836" y2="102.082" gradientUnits="userSpaceOnUse"><stop stop-color="#101211" stop-opacity=".9"/><stop offset=".12" stop-color="#101211" stop-opacity=".51"/><stop offset=".39" stop-color="#101211" stop-opacity=".11"/><stop offset="1" stop-color="#101211" stop-opacity="0"/></linearGradient><linearGradient id="api3__l" x1="97.248" x2="82.479" y1="95.124" y2="74.869" gradientUnits="userSpaceOnUse"><stop stop-color="#101211" stop-opacity=".9"/><stop offset=".12" stop-color="#101211" stop-opacity=".51"/><stop offset=".39" stop-color="#101211" stop-opacity=".11"/><stop offset="1" stop-color="#101211" stop-opacity="0"/></linearGradient><linearGradient id="api3__m" x1="13.589" x2="17.247" y1="17.211" y2="15.844" gradientUnits="userSpaceOnUse"><stop stop-color="#101211" stop-opacity=".9"/><stop offset=".12" stop-color="#101211" stop-opacity=".62"/><stop offset=".46" stop-color="#101211" stop-opacity=".14"/><stop offset="1" stop-color="#101211" stop-opacity="0"/></linearGradient><linearGradient id="api3__n" x1="56.891" x2="47.434" y1="64.99" y2="70.888" gradientUnits="userSpaceOnUse"><stop stop-color="#101211" stop-opacity=".9"/><stop offset=".12" stop-color="#101211" stop-opacity=".62"/><stop offset=".46" stop-color="#101211" stop-opacity=".14"/><stop offset="1" stop-color="#101211" stop-opacity="0"/></linearGradient><linearGradient id="api3__o" x1="53.824" x2="49.959" y1="79.161" y2="66.346" gradientUnits="userSpaceOnUse"><stop stop-color="#101211" stop-opacity=".9"/><stop offset=".12" stop-color="#101211" stop-opacity=".62"/><stop offset=".46" stop-color="#101211" stop-opacity=".14"/><stop offset="1" stop-color="#101211" stop-opacity="0"/></linearGradient></defs><path fill="#fff" d="M16 32c8.837 0 16-7.163 16-16S24.837 0 16 0 0 7.163 0 16s7.163 16 16 16Z"/><path fill="#000" d="M16.096 6.102a.194.194 0 0 0-.272-.074.161.161 0 0 0-.074.074L5.747 23.704a.199.199 0 0 0 .074.271.22.22 0 0 0 .099.025h20.162a.2.2 0 0 0 .172-.296L16.096 6.102ZM13.924 17.51l3.586-.978-.97 3.561-2.616-2.583Z"/><path fill="#646564" d="M5.928 24h4.056l3.718-14.287-7.955 13.99a.199.199 0 0 0 .074.272c.033.017.07.025.107.025Z"/><path fill="#646564" d="M24.272 20.257 9.975 23.999h16.107a.2.2 0 0 0 .172-.296l-1.982-3.446Zm-2.196-2.187 2.188 2.187L16.096 6.11a.194.194 0 0 0-.198-.1.196.196 0 0 0-.074.026.162.162 0 0 0-.074.074l-2.048 3.603 8.374 8.34v.016Z"/><g fill="#646564" opacity=".88"><path d="m9.975 24 2.945-.774-.016-10.462-2.929 11.235Zm2.929-11.236 9.172 5.305-8.374-8.356-.798 3.051Z" opacity=".88"/><path d="m12.92 23.226 11.352-2.97-2.196-2.187-9.156 5.157Z" opacity=".88"/></g><g fill="#646564" opacity=".76"><path d="m12.92 23.227 1.966-1.102-1.982-7.139.016 8.241Zm9.156-5.157-1.933-1.119-5.257 5.174 7.19-4.055Z" opacity=".76"/><path d="m12.904 14.986 7.239 1.966-7.24-4.187v2.221Z" opacity=".76"/></g><path fill="#646564" d="m17.51 16.531 1.11.008-5.716-1.554.428 1.538 4.162.008h.016Zm-3.603.962-.575-.97 1.554 5.6 1.094-1.085-2.056-3.52-.017-.025Zm4.713-.954-2.64 4.499 4.163-4.088-1.522-.411Z" opacity=".64"/><g fill="#646564" opacity=".52"><path d="m17.51 16.532-4.178-.008.592.995 3.586-.987Z" opacity=".52"/><path d="m16.54 20.093-2.616-2.574 2.056 3.52.56-.946Zm2.08-3.553-1.11-.009-.97 3.562 2.08-3.553Z" opacity=".52"/></g><g opacity=".7"><g opacity=".7"><path fill="url(#api3__a)" d="M5.928 24h4.056l3.718-14.287-7.955 13.99a.199.199 0 0 0 .074.272c.033.017.07.025.107.025Z" opacity=".7"/><path fill="url(#api3__b)" d="M24.272 20.257 9.975 23.999h16.107a.2.2 0 0 0 .172-.296l-1.982-3.446Z" opacity=".7"/><path fill="url(#api3__c)" d="m22.076 18.07 2.188 2.187L16.096 6.11a.194.194 0 0 0-.198-.1.196.196 0 0 0-.074.026.162.162 0 0 0-.074.074l-2.048 3.603 8.374 8.34v.016Z" opacity=".7"/></g><g opacity=".9"><path fill="url(#api3__d)" d="m9.975 24 2.945-.774-.016-10.462-2.929 11.235Z" opacity=".9"/><path fill="url(#api3__e)" d="m12.904 12.764 9.172 5.305-8.374-8.356-.798 3.051Z" opacity=".9"/><path fill="url(#api3__f)" d="m12.92 23.226 11.352-2.97-2.196-2.187-9.156 5.157Z" opacity=".9"/></g><g opacity=".7"><path fill="url(#api3__g)" d="m12.92 23.226 1.966-1.102-1.982-7.14.016 8.242Z" opacity=".7"/><path fill="url(#api3__h)" d="m22.076 18.069-1.933-1.119-5.257 5.174 7.19-4.055Z" opacity=".7"/><path fill="url(#api3__i)" d="m12.904 14.985 7.239 1.966-7.24-4.187v2.22Z" opacity=".7"/></g><g opacity=".7"><path fill="url(#api3__j)" d="m17.51 16.531 1.11.008-5.716-1.554.428 1.538 4.162.008h.016Z" opacity=".7"/><path fill="url(#api3__k)" d="m13.907 17.493-.575-.97 1.554 5.6 1.094-1.085-2.056-3.52-.017-.025Z" opacity=".7"/><path fill="url(#api3__l)" d="m18.62 16.539-2.64 4.499 4.163-4.088-1.522-.411Z" opacity=".7"/></g><g opacity=".7"><path fill="url(#api3__m)" d="m17.51 16.53-4.178-.008.592.996 3.586-.987Z" opacity=".7"/><path fill="url(#api3__n)" d="m16.54 20.092-2.616-2.574 2.056 3.52.56-.946Z" opacity=".7"/><path fill="url(#api3__o)" d="m18.62 16.538-1.11-.008-.97 3.561 2.08-3.553Z" opacity=".7"/></g></g></svg>