<svg fill="none" height="32" viewBox="0 0 32 32" width="32" xmlns="http://www.w3.org/2000/svg" xmlns:xlink="http://www.w3.org/1999/xlink"><linearGradient id="a" gradientUnits="userSpaceOnUse" x1="5.90557" x2="28.2179" y1="-10.1127" y2="35.2712"><stop offset="0" stop-color="#ffb200"/><stop offset="1" stop-color="#ff578c"/></linearGradient><path d="m16.0001 31.6593c8.6485 0 15.6594-7.0109 15.6594-15.6593 0-8.64848-7.0109-15.659424-15.6594-15.659424-8.6484 0-15.659341 7.010944-15.659341 15.659424 0 8.6484 7.010941 15.6593 15.659341 15.6593z" fill="url(#a)"/><path d="m13.9652 17.6749 2.0832-6.3396 2.1217 6.3396zm8.8311 4.0089-1.7232-4.7322h1.0288c.4099-.0036.7408-.3359.7426-.7459 0-.3906-.3167-.7072-.7073-.7072h-1.6074l-.2572-.7362h1.8293c.4009.0001.7289-.3193.7394-.7202.0017-.4083-.3279-.7408-.7362-.7426-.0022 0-.0043 0-.0064 0h-2.3758l-1.2859-3.53628c-.1921-.50524-.5097-.95331-.9227-1.302-.408-.33558-.9252-.50949-1.4531-.48866-.5292-.01682-1.047.15655-1.4595.48866-.4133.34918-.7317.797-.9259 1.302l-1.347 3.56848h-2.36287c-.39291 0-.71192.3175-.71369.7104 0 .4084.33105.7394.73941.7394h1.79385l-.2765.717h-1.60738c-.39416 0-.71369.3195-.71369.7136 0 .4036.32621.7313.72977.733h1.0319l-1.75203 4.7387c-.10769.2671-.16754.5511-.17682.839.01827.4039.19363.7846.48866 1.0609.32465.2812.74069.4344 1.17019.4308.7435.0408 1.414-.4447 1.6074-1.1638l.6783-2.0221h6.24l.6783 2.0704c.2185.6938.8813 1.1498 1.6074 1.1059.2702.0054.5368-.0624.7716-.1962.2037-.1511.3845-.3309.5369-.5336.1327-.2282.2006-.4883.1961-.7523-.0426-.2806-.1093-.557-.1994-.8262v-.0128z" fill="#fefefe"/></svg>