<svg xmlns="http://www.w3.org/2000/svg" width="32" height="32" fill="none"><defs><linearGradient id="appc__a" x1="5.906" x2="28.218" y1="-10.113" y2="35.271" gradientUnits="userSpaceOnUse"><stop stop-color="#FFB200"/><stop offset="1" stop-color="#FF578C"/></linearGradient></defs><path fill="url(#appc__a)" d="M16 31.66c8.649 0 15.66-7.012 15.66-15.66S24.649.34 16 .34C7.352.34.34 7.353.34 16S7.353 31.66 16 31.66Z"/><path fill="#FEFEFE" d="m13.965 17.675 2.083-6.34 2.122 6.34h-4.205Zm8.831 4.009-1.723-4.732h1.029a.75.75 0 0 0 .742-.746.707.707 0 0 0-.707-.707H20.53l-.257-.737h1.829a.74.74 0 0 0 .74-.72.74.74 0 0 0-.737-.742h-2.382l-1.286-3.537a3.186 3.186 0 0 0-.923-1.302 2.154 2.154 0 0 0-1.453-.488 2.215 2.215 0 0 0-1.46.488 3.22 3.22 0 0 0-.925 1.302l-1.347 3.569H9.966a.714.714 0 0 0-.714.71c0 .409.331.74.74.74h1.793l-.276.716H9.902a.714.714 0 0 0-.714.714c0 .404.326.731.73.733h1.032l-1.752 4.739a2.455 2.455 0 0 0-.177.839c.018.404.193.784.488 1.06.325.282.741.435 1.17.432a1.575 1.575 0 0 0 1.608-1.164l.678-2.022h6.24l.679 2.07c.218.694.88 1.15 1.607 1.106.27.005.537-.063.772-.196.203-.151.384-.331.536-.534.133-.228.201-.488.197-.752a4.938 4.938 0 0 0-.2-.826v-.013Z"/></svg>