<svg xmlns="http://www.w3.org/2000/svg" width="32" height="32" fill="none"><defs><clipPath id="apt__a"><rect width="32" height="32" fill="#fff" rx="16"/></clipPath></defs><g clip-path="url(#apt__a)"><circle cx="16" cy="16" r="16" fill="#000"/><path fill="#fff" d="M20.094 12.34h6.327c.31.88.504 1.796.579 2.725h-8.205a.786.786 0 0 1-.594-.27l-.79-.89a.633.633 0 0 0-.465-.208h-.036a.62.62 0 0 0-.448.19l-.939.978a.644.644 0 0 1-.465.2H5c.077-.93.271-1.845.579-2.725h10.654a1.164 1.164 0 0 0 .873-.397l.677-.764a.623.623 0 0 1 .928 0l.79.891a.79.79 0 0 0 .593.27Zm-8.757 8.403a.652.652 0 0 1-.253.053l-5.029.008c-.423-.874-.728-1.8-.906-2.755h7.161a1.173 1.173 0 0 0 .877-.393l.677-.764a.608.608 0 0 1 .718-.156c.08.037.152.09.21.156l.79.891a.793.793 0 0 0 .589.266h10.68c-.18.952-.486 1.876-.91 2.747H14.817a.797.797 0 0 1-.593-.27l-.786-.89a.632.632 0 0 0-.466-.208h-.04a.632.632 0 0 0-.447.19l-.935.978a.653.653 0 0 1-.213.147Zm7.895-11.436a.65.65 0 0 1-.255.053H7.172a11.04 11.04 0 0 1 17.656 0h-2.114a.804.804 0 0 1-.594-.266l-.79-.892a.607.607 0 0 0-.461-.21h-.04a.618.618 0 0 0-.448.192l-.935.975a.65.65 0 0 1-.214.148Zm-7.398 14.218h2.892l9.348.015a11.036 11.036 0 0 1-16.145 0h.044a1.161 1.161 0 0 0 .873-.397l.68-.779a.626.626 0 0 1 .932 0l.786.892a.781.781 0 0 0 .59.27Z"/></g></svg>