<svg fill="none" height="32" viewBox="0 0 32 32" width="32" xmlns="http://www.w3.org/2000/svg" xmlns:xlink="http://www.w3.org/1999/xlink"><clipPath id="a"><path d="m0 0h32v32h-32z"/></clipPath><g clip-path="url(#a)"><path d="m15.9999 2.32101c-2.7055.00003-5.3502.80231-7.59965 2.3054-2.24949 1.50309-4.00274 3.63947-5.03805 6.13899-1.03531 2.4995-1.30618 5.2499-.77835 7.9034.52783 2.6534 1.83065 5.0908 3.74371 7.0038s4.35044 3.2158 7.00394 3.7436c2.6534.5278 5.4038.2569 7.9033-.7785 2.4995-1.0353 4.6359-2.7886 6.1389-5.0381 1.5031-2.2496 2.3053-4.8943 2.3053-7.5997-.0041-3.6267-1.4466-7.10359-4.0111-9.668-2.5644-2.56441-6.0414-4.00686-9.668-4.01089z" fill="#fff"/><g fill="#222326"><path d="m15.9999 32c-3.1645 0-6.25792-.9384-8.88909-2.6965s-4.68191-4.257-5.8929-7.1806c-1.21098549-2.9236-1.527829-6.1407-.910461-9.2444.617367-3.10365 2.141221-5.95457 4.378851-8.1922s5.08855-3.761484 8.1922-4.378851c3.1037-.617368 6.3208-.30052449 9.2444.910461 2.9236 1.21099 5.4225 3.26173 7.1806 5.8929s2.6965 5.72459 2.6965 8.88909c-.0048 4.242-1.692 8.3089-4.6916 11.3085s-7.0665 4.6868-11.3085 4.6916zm0-29.67899c-2.7055.00002-5.3502.8023-7.59964 2.30539-2.24948 1.50309-4.00274 3.63947-5.03805 6.139-1.03531 2.4995-1.30617 5.2499-.77834 7.9034.52783 2.6534 1.83065 5.0908 3.74371 7.0038s4.35042 3.2158 7.00392 3.7436 5.4038.2569 7.9033-.7785c2.4995-1.0353 4.6359-2.7886 6.1389-5.0381 1.5031-2.2496 2.3053-4.8943 2.3053-7.5997-.0041-3.6267-1.4466-7.1036-4.011-9.66801-2.5645-2.56441-6.0415-4.00686-9.6681-4.01088z"/><path d="m18.4748 21.6471c-.0804-.162-.1433-.3321-.1876-.5075-.0546-.1996-.0988-.4019-.1323-.6061-.1773.1912-.3731.3644-.5844.5171-.2251.1666-.467.3092-.7216.4257-.2888.1265-.5904.2216-.8995.2838-.344.0724-.6947.1079-1.0462.1059-.572.0058-1.1409-.0836-1.6836-.2646-.4817-.1608-.9283-.4122-1.3156-.7408-.3709-.3139-.668-.7058-.87-1.1477-.2021-.4419-.3041-.923-.2988-1.4089-.0263-.564.0884-1.1255.3336-1.6341.2453-.5085.6133-.9479 1.0709-1.2785 1.2566-.7723 2.723-1.1331 4.1945-1.0318h1.7077v-.7023c.012-.2543-.0322-.5081-.1295-.7434s-.2452-.4463-.4333-.6178c-.4586-.3622-1.0357-.5406-1.6187-.5003-.4897-.0437-.9779.0999-1.3661.4017-.1447.1378-.258.3051-.3323.4906s-.1077.3848-.0982.5844h-3.0617c-.0005-.5005.1147-.9944.3368-1.443.2335-.4689.5688-.8797.9812-1.2026.4706-.3674 1.0045-.6454 1.5754-.82012.6894-.21558 1.4086-.3211 2.1309-.31266.68-.00512 1.3575.08391 2.0131.26456.5821.15826 1.1295.42422 1.6138.78402.4601.3448.8305.7953 1.0799 1.3133.2677.5698.4002 1.1937.3872 1.8231v5.1132c-.0083.5317.0319 1.063.1202 1.5874.067.3746.186.7381.3536 1.0798v.1876zm-2.9222-2.1502c.2873.0017.5736-.0347.8514-.1082.2508-.0681.4929-.165.7215-.2886.2013-.1077.3867-.2429.5508-.4017.1416-.1348.2638-.2886.3632-.457v-2.0491h-1.561c-.4114-.0076-.8222.0384-1.2217.1371-.2979.0718-.5789.2008-.8274.38-.2078.1553-.3732.3605-.481.5965-.1044.2379-.1569.4954-.1539.7552-.0045.1935.033.3857.1098.5634s.1911.3366.3351.466c.3693.2991.8395.4447 1.3132.4064z"/></g></g></svg>