<svg xmlns="http://www.w3.org/2000/svg" width="32" height="32" fill="none"><defs><clipPath id="ar__a"><path fill="#fff" d="M0 0h32v32H0z"/></clipPath></defs><g clip-path="url(#ar__a)"><path fill="#fff" d="M16 2.321A13.679 13.679 0 1 0 29.679 16a13.694 13.694 0 0 0-13.68-13.68Z"/><path fill="#222326" d="M16 32a16 16 0 1 1 16-16 16.018 16.018 0 0 1-16 16Zm0-29.679A13.679 13.679 0 1 0 29.679 16a13.694 13.694 0 0 0-13.68-13.68Z"/><path fill="#222326" d="M18.475 21.647a2.541 2.541 0 0 1-.188-.507 5.944 5.944 0 0 1-.132-.607 3.961 3.961 0 0 1-.585.518 4.015 4.015 0 0 1-.721.425 4.943 4.943 0 0 1-1.946.39 5.156 5.156 0 0 1-1.683-.265 3.983 3.983 0 0 1-1.316-.74 3.302 3.302 0 0 1-1.169-2.557 3.398 3.398 0 0 1 1.405-2.913 7.082 7.082 0 0 1 4.194-1.031h1.708v-.703a1.732 1.732 0 0 0-.563-1.36 2.35 2.35 0 0 0-1.619-.501c-.49-.044-.977.1-1.366.402a1.392 1.392 0 0 0-.43 1.075h-3.062c0-.501.115-.995.337-1.444a3.52 3.52 0 0 1 .981-1.202 4.881 4.881 0 0 1 1.575-.82 6.871 6.871 0 0 1 2.131-.313 7.37 7.37 0 0 1 2.014.265 4.817 4.817 0 0 1 1.613.784c.46.345.83.795 1.08 1.313.268.57.4 1.194.387 1.823v5.113a8.738 8.738 0 0 0 .12 1.588c.068.374.187.738.354 1.08v.187h-3.12Zm-2.922-2.15a3.253 3.253 0 0 0 1.572-.397 2.45 2.45 0 0 0 .551-.402c.142-.134.264-.288.364-.457v-2.049h-1.561a4.73 4.73 0 0 0-1.222.137 2.36 2.36 0 0 0-.828.38c-.207.156-.373.36-.48.597a1.827 1.827 0 0 0-.155.755 1.342 1.342 0 0 0 .445 1.03c.37.299.84.444 1.314.406Z"/></g></svg>