<svg xmlns="http://www.w3.org/2000/svg" width="32" height="32" fill="none"><defs><linearGradient id="arn__a" x1="9.303" x2="17.154" y1="23.644" y2="9.908" gradientUnits="userSpaceOnUse"><stop stop-color="#4F3F60"/><stop offset=".514" stop-color="#3F659F"/><stop offset="1" stop-color="#3BAABC"/></linearGradient><linearGradient id="arn__b" x1="17.983" x2="28.12" y1="21.209" y2="16.323" gradientUnits="userSpaceOnUse"><stop stop-color="#3F659F"/><stop offset="1" stop-color="#3698BC"/></linearGradient><linearGradient id="arn__c" x1="4.158" x2="11.535" y1="23.225" y2="18.669" gradientUnits="userSpaceOnUse"><stop stop-color="#4E4365"/><stop offset="1" stop-color="#3F659E"/></linearGradient><linearGradient id="arn__d" x1="8.683" x2="23.127" y1="6.848" y2="6.848" gradientUnits="userSpaceOnUse"><stop stop-color="#3B71AE"/><stop offset="1" stop-color="#379DBC"/></linearGradient><linearGradient id="arn__e" x1="1.899" x2="5.434" y1="20.782" y2="12.336" gradientUnits="userSpaceOnUse"><stop stop-color="#4E4365"/><stop offset="1" stop-color="#3F659E"/></linearGradient><linearGradient id="arn__f" x1="5.799" x2="15.709" y1="25.818" y2="27.37" gradientUnits="userSpaceOnUse"><stop stop-color="#4E4365"/><stop offset="1" stop-color="#3F659E"/></linearGradient></defs><path fill="#fff" d="M32 16c0 8.837-7.163 16-16 16S0 24.837 0 16 7.163 0 16 0s16 7.163 16 16Z"/><path fill="#FAFAFB" d="M3.391 15.98c0-1.625.009-3.25-.003-4.874a4.4 4.4 0 0 1 .741-2.498c.255-.394.57-.652.956-.874 2.995-1.725 5.984-3.46 8.98-5.181 1.283-.737 2.583-.738 3.868.001a2959.52 2959.52 0 0 1 8.772 5.07c1.256.728 1.888 1.847 1.896 3.283.019 3.387.019 6.774 0 10.161-.008 1.449-.65 2.568-1.918 3.3a3401.79 3401.79 0 0 1-8.877 5.124c-1.17.672-2.397.672-3.543.03a506.603 506.603 0 0 1-9.108-5.253c-1.173-.69-1.741-1.794-1.759-3.149-.022-1.713-.005-3.427-.005-5.14Zm10.96-12.868c-.037.014-.076.023-.11.042a14871.76 14871.76 0 0 0-8.679 5.007 2.703 2.703 0 0 0-.815.695c.004.174.073.307.207.384.732.417 1.468.826 2.202 1.237.327-.252.67-.317 1.046-.18.102-.21.277-.324.41-.478.905-1.046 1.814-2.088 2.721-3.132.424-.487.85-.973 1.27-1.463.594-.693 1.22-1.358 1.782-2.08l.083-.09-.117.058Zm1.914 21.465 7.017-12.654-.275-.422H8.748l-.21.365 7.096 12.79c.203-.106.402-.068.63-.079Zm.702.67c.095-.015.173-.023.249-.04.843-.185 1.685-.374 2.529-.558 2.358-.515 4.717-1.024 7.073-1.546.338-.074.607-.272.721-.622.087-.265.033-.522-.059-.778-.941-2.626-1.88-5.253-2.82-7.88l-.587-1.636c-.223-.087-.271.063-.337.18-.365.651-.73 1.302-1.092 1.955l-4.993 8.982c-.295.531-.587 1.064-.875 1.584l.19.36ZM8.002 12.14c-.245-.02-.247.14-.286.252-.513 1.475-1.023 2.952-1.535 4.428-.597 1.722-1.195 3.443-1.79 5.165-.189.544.023.94.568 1.072.399.097.797.2 1.198.287 2.24.489 4.48.973 6.72 1.459l2.192.472c.186-.224.023-.378-.06-.528-1.983-3.573-3.97-7.143-5.956-10.714l-1.05-1.893Zm.752-1.265h14.263c.056-.09.108-.16.11-.267-.015-.024-.032-.06-.057-.088-2.062-2.407-4.123-4.814-6.188-7.218-.56-.65-1.247-.636-1.81.015-.874 1.012-1.756 2.018-2.635 3.027-1.216 1.395-2.431 2.79-3.649 4.183-.09.105-.166.2-.034.348Zm19.187 10.327.052-.003c.004-.025.013-.05.013-.076-.001-3.395 0-6.791-.01-10.187-.001-.466-.06-.934-.308-1.37l-2.783 1.506c.066.331-.092.591-.279.845l3.315 9.285ZM4.307 9.518a3.18 3.18 0 0 0-.32 1.45c-.004 3.306-.005 6.613-.006 9.92v.277l.068.014 3.183-9.211a1.048 1.048 0 0 1-.364-.954c-.84-.52-1.73-.92-2.561-1.496Zm13.211-6.423 6.133 7.162c.392-.093.72.003 1.005.25l2.727-1.478a3.114 3.114 0 0 0-.99-.88c-2.87-1.657-5.74-3.315-8.611-4.97-.073-.042-.136-.121-.264-.084Zm-1.243 23.369c0 .729-.004 1.455.002 2.182.004.446.345.693.747.541.21-.08.415-.179.61-.29 1.533-.882 3.062-1.768 4.593-2.652 1.271-.735 2.543-1.468 3.813-2.205.067-.04.174-.048.187-.194l-9.28 2.027c-.16.25-.331.462-.672.59Zm-10.54-2.622-.014.074c2.75 1.585 5.5 3.17 8.25 4.757.373.216.739.45 1.16.57.266.076.53-.074.535-.343.018-.824.007-1.65.007-2.465a1.523 1.523 0 0 1-.537-.515l-9.402-2.078Z"/><path fill="url(#arn__a)" d="M16.265 24.578c-.229.01-.427-.028-.63.078l-7.096-12.79.21-.364h14.259l.275.421-7.018 12.655Zm3.028-7.244c.406-.165.51-.478.517-.838.01-.551.016-1.102.005-1.653a.597.597 0 0 1 .28-.545c.207-.147.406-.31.592-.484.146-.136.277-.306.145-.516-.135-.214-.346-.138-.534-.085-.22.062-.39.22-.558.36-.256.212-.505.249-.816.13-.44-.167-.895-.296-1.342-.445-.236-.078-.475-.121-.725-.075-.16.03-.296.083-.35.277l1.989 1.011c-.018.041-.021.063-.033.074-.432.428-.97.73-1.393 1.17-.109.112-.247.09-.382.018-.157-.084-.294-.067-.397.133.416.162.61.481.653.924.183-.09.29-.192.239-.378-.055-.195.055-.298.193-.386.208-.131.422-.252.631-.38l.946-.586.34 2.274Zm-5.937-3.428c-.104-.106-.209-.08-.318-.057-.078.104-.106.21-.003.312.057.055.127.08.213.047.149-.06.13-.173.108-.302Zm2.299 6.366c-.147.043-.22.121-.183.264a.18.18 0 0 0 .169.142c.1.007.172-.051.198-.143.042-.143-.039-.22-.184-.263Zm-2.067-2.346c-.125.085-.191.169-.119.302.05.091.132.11.223.092a.171.171 0 0 0 .145-.16c.014-.17-.118-.197-.25-.235Zm-3.191-5.235a.233.233 0 0 0-.015.242c.118.09.238.133.377.015.007-.09.04-.187-.059-.273a.33.33 0 0 0-.303.016Zm4.774.133c-.014-.098-.07-.18-.203-.18-.117 0-.18.064-.19.18-.01.13.06.211.183.22.126.01.196-.07.21-.22Z"/><path fill="url(#arn__b)" d="m16.967 25.248-.19-.36.874-1.584 4.994-8.982c.362-.652.727-1.304 1.091-1.955.066-.117.114-.267.337-.18.19.53.39 1.084.587 1.637l2.82 7.879c.093.256.146.513.06.778-.114.35-.383.548-.721.622-2.357.522-4.716 1.031-7.074 1.546-.844.184-1.686.373-2.53.558-.075.017-.152.025-.248.04Z"/><path fill="url(#arn__c)" d="m8 12.14 1.052 1.893c1.985 3.57 3.972 7.141 5.955 10.714.083.15.246.304.06.528l-2.19-.473c-2.241-.485-4.482-.97-6.722-1.458-.401-.087-.8-.19-1.198-.287-.545-.132-.756-.528-.568-1.072l1.79-5.165c.512-1.476 1.022-2.953 1.536-4.429.039-.111.04-.27.286-.25Z"/><path fill="url(#arn__d)" d="M8.754 10.874c-.132-.147-.057-.243.034-.347 1.217-1.393 2.433-2.788 3.648-4.183.88-1.009 1.761-2.015 2.637-3.028.562-.65 1.249-.665 1.808-.014 2.066 2.404 4.127 4.811 6.189 7.218.025.029.042.064.057.088-.002.106-.054.178-.11.267H8.753Z"/><path fill="#38A1BD" d="m27.943 21.202-3.315-9.285c.187-.254.345-.513.278-.844l2.783-1.506c.25.436.308.903.309 1.37.01 3.395.008 6.79.01 10.187 0 .025-.009.05-.014.076l-.051.002Z"/><path fill="url(#arn__e)" d="M4.305 9.519c.83.575 1.722.975 2.562 1.495-.046.373.073.693.363.954L4.048 21.18l-.068-.014v-.278c.001-3.306.001-6.613.005-9.92 0-.503.091-.99.32-1.448Z"/><path fill="#3AA7BC" d="M17.518 3.096c.128-.038.19.04.263.083 2.872 1.656 5.741 3.314 8.612 4.97.38.22.708.494.99.88l-2.727 1.477a1.072 1.072 0 0 0-1.005-.248l-6.133-7.162Z"/><path fill="#3A74B3" d="M14.383 3.145c-.561.72-1.188 1.386-1.782 2.08-.42.49-.846.975-1.27 1.462-.906 1.044-1.815 2.086-2.72 3.131-.133.154-.309.27-.41.479-.376-.137-.72-.073-1.046.18-.734-.411-1.47-.82-2.202-1.237-.135-.077-.203-.21-.208-.385.218-.286.5-.512.816-.694 2.892-1.67 5.785-3.339 8.679-5.007.033-.02.073-.029.11-.043.01.012.022.023.033.034Z"/><path fill="#426197" d="M16.276 26.464c.34-.129.511-.341.672-.59 3.082-.674 6.174-1.35 9.279-2.027-.013.145-.12.154-.187.193-1.27.738-2.541 1.47-3.813 2.205-1.53.885-3.06 1.77-4.593 2.652a4.23 4.23 0 0 1-.61.29c-.402.152-.742-.095-.747-.54-.006-.727-.001-1.454-.001-2.183Z"/><path fill="url(#arn__f)" d="m5.736 23.841 9.401 2.079c.127.19.285.375.537.514 0 .816.011 1.641-.006 2.465-.006.27-.27.42-.536.344-.42-.12-.786-.354-1.16-.57l-8.25-4.757.014-.075Z"/><path fill="#3786BA" d="m14.35 3.111.117-.057-.084.09a2.69 2.69 0 0 1-.033-.033Z"/><path fill="#FAFAFB" d="m19.294 17.334-.341-2.274c-.334.207-.639.397-.945.585-.21.129-.424.25-.631.381-.138.088-.248.19-.194.386.052.186-.056.289-.239.378-.042-.443-.236-.762-.653-.924.104-.2.24-.217.398-.133.135.072.273.094.381-.018.424-.44.96-.742 1.393-1.17.012-.012.015-.033.033-.073l-1.99-1.012c.055-.195.192-.247.352-.277.25-.046.488-.003.724.075.448.149.902.278 1.342.446.31.118.56.081.816-.131.169-.14.338-.298.559-.36.188-.053.398-.13.534.085.132.21 0 .38-.145.516a5.841 5.841 0 0 1-.593.484.597.597 0 0 0-.28.545c.011.55.006 1.102-.005 1.653-.007.36-.11.673-.516.838Zm-5.937-3.428c.022.13.04.243-.108.302-.086.034-.156.008-.213-.047-.103-.101-.075-.208.003-.312.11-.022.214-.05.318.057Zm2.296 6.366c.146.044.226.12.184.263-.026.092-.097.15-.198.143a.18.18 0 0 1-.17-.142c-.035-.143.038-.221.184-.264Zm-2.067-2.347c.131.038.263.065.25.234a.171.171 0 0 1-.145.16c-.092.018-.174 0-.224-.091-.072-.134-.006-.218.12-.303Zm-3.19-5.235a.33.33 0 0 1 .304-.016c.1.086.065.183.058.274-.138.118-.258.074-.376-.015a.232.232 0 0 1 .014-.242Zm4.774.134c-.013.15-.084.23-.21.22-.122-.009-.192-.09-.182-.22.009-.116.072-.18.19-.18.132 0 .188.082.202.18Z"/></svg>