<svg fill="none" height="32" viewBox="0 0 32 32" width="32" xmlns="http://www.w3.org/2000/svg" xmlns:xlink="http://www.w3.org/1999/xlink"><linearGradient id="a" gradientUnits="userSpaceOnUse" x1="8.76371" x2="17.7363" y1="24.7355" y2="9.03791"><stop offset="0" stop-color="#4f3f60"/><stop offset=".514" stop-color="#3f659f"/><stop offset=".9995" stop-color="#3baabc"/></linearGradient><linearGradient id="b" gradientUnits="userSpaceOnUse" x1="18.6838" x2="30.2687" y1="21.9525" y2="16.3694"><stop offset="0" stop-color="#3f659f"/><stop offset="1" stop-color="#3698bc"/></linearGradient><linearGradient id="c"><stop offset="0" stop-color="#4e4365"/><stop offset="1" stop-color="#3f659e"/></linearGradient><linearGradient id="d" gradientUnits="userSpaceOnUse" x1="2.88385" x2="11.3138" xlink:href="#c" y1="24.2572" y2="19.0506"/><linearGradient id="e" gradientUnits="userSpaceOnUse" x1="8.05468" x2="24.5626" y1="5.54064" y2="5.54064"><stop offset="0" stop-color="#3b71ae"/><stop offset=".9995" stop-color="#379dbc"/></linearGradient><linearGradient id="f" gradientUnits="userSpaceOnUse" x1=".302214" x2="4.34146" xlink:href="#c" y1="21.4651" y2="11.8128"/><linearGradient id="g" gradientUnits="userSpaceOnUse" x1="4.75886" x2="16.085" xlink:href="#c" y1="27.2213" y2="28.9946"/><clipPath id="h"><path d="m0 0h32v32h-32z"/></clipPath><g clip-path="url(#h)"><path d="m2.00688 15.9774c0-1.8568.00978-3.7137-.00381-5.5703-.00768-1.04385.27539-1.97302.84743-2.85551.29174-.45.65109-.7443 1.09269-.99861 3.42263-1.97105 6.83841-3.95391 10.26311-5.921346 1.4657-.842052 2.9518-.842971 4.4195.001904 3.3451 1.925622 6.6875 3.856092 10.026 5.793202 1.4348.83246 2.1572 2.111 2.1663 3.75226.0216 3.871.0214 7.7423.0002 11.6133-.0092 1.6555-.7436 2.9343-2.1915 3.7717-3.3802 1.955-6.7601 3.9103-10.1457 5.8558-1.3366.7681-2.7391.7679-4.049.0331-3.4929-1.9597-6.95757-3.9707-10.40914-6.0026-1.34018-.789-1.99015-2.0501-2.00998-3.5988-.02507-1.9578-.0061-3.9161-.0061-5.8741zm12.52582-14.70696c-.042.01596-.0871.02652-.1255.04871-3.3067 1.90639-6.6133 3.8131-9.91874 5.72171-.36139.20869-.68326.46649-.93212.794.00518.19917.08324.35167.23679.43911.83666.4764 1.67826.9442 2.5167 1.41417.37379-.28865.76577-.3627 1.19529-.20607.1162-.23922.31668-.37045.46898-.54651 1.03407-1.19503 2.0729-2.38606 3.1098-3.57867.484-.55675.9699-1.11193 1.4502-1.67189.6793-.79197 1.3953-1.55255 2.0371-2.37661.0154-.01681.0308-.03368.0951-.10386-.0884.04353-.111.05475-.1336.06591zm2.1867 24.53236c2.6788-4.8303 5.353-9.6524 8.0204-14.4622-.1137-.1743-.2114-.3238-.3145-.4819-5.4355 0-10.8682 0-16.29588 0-.08192.1428-.15446.2691-.23941.417 2.69629 4.8601 5.39769 9.7293 8.10879 14.616.2325-.1205.4595-.0769.7206-.0889zm.8026.7659c.1091-.0174.1978-.027.2844-.046.9636-.2119 1.9265-.4275 2.8904-.6379 2.6948-.5884 5.391-1.1708 8.0841-1.7666.3863-.0855.694-.3112.8241-.711.0987-.303.0377-.5968-.0674-.8898-1.0762-3.0009-2.1491-6.003-3.2232-9.0047-.2262-.6322-.4537-1.2641-.6711-1.8698-.2552-.0996-.3101.0712-.3851.2053-.4166.7442-.8332 1.4883-1.2476 2.2337-1.9026 3.4216-3.8047 6.8436-5.7063 10.2658-.3373.6069-.6717 1.2154-1 1.8098.0772.1457.1397.2638.2177.4112zm-10.24507-14.9796c-.27991-.0224-.28228.1596-.32665.287-.58735 1.6861-1.17003 3.3738-1.75468 5.0609-.68194 1.9677-1.36565 3.9347-2.04647 5.9028-.21506.6216.02692 1.0744.64918 1.2258.45612.1109.91092.228 1.36946.3279 2.55983.558 5.12053 1.1118 7.68113 1.6666.8385.1816 1.6774.3617 2.5039.5399.2128-.2556.0262-.4319-.0691-.6036-2.2658-4.0831-4.5363-8.1635-6.80582-12.2445-.40262-.724-.80431-1.4485-1.20095-2.1628zm.85939-1.4465h16.29968c.0651-.1016.1243-.18321.1269-.30505-.0174-.02705-.0371-.06749-.0656-.10064-2.3566-2.75014-4.7122-5.50133-7.0724-8.24839-.6396-.744302-1.4246-.727299-2.0674.01609-1.0003 1.15689-2.008 2.30735-3.0129 3.46037-1.3893 1.59403-2.77817 3.1884-4.16936 4.78073-.10378.11882-.18958.22799-.03892.39689zm21.92778 11.8021c.0196-.0009.0392-.0017.0588-.0025.0054-.0289.0156-.0578.0156-.0868-.0015-3.8809.0006-7.7618-.0112-11.6427-.0017-.53297-.068-1.06707-.353-1.56559-1.0676.57776-2.1131 1.14357-3.1805 1.72119.0761.3784-.1046.6753-.3184.965 1.265 3.543 2.5268 7.0772 3.7887 10.6114zm-27.01088-13.35234c-.262.52412-.36519 1.08028-.36585 1.65624-.0042 3.7789-.00453 7.5577-.0061 11.3366-.00007.1059 0 .2117 0 .3176.02606.0054.05212.0108.07812.0162 1.21131-3.5063 2.42262-7.0127 3.63683-10.5272-.33165-.2982-.46806-.664-.41522-1.0906-.96002-.59455-1.97853-1.05073-2.92778-1.70884zm15.09938-7.34069c2.348 2.7422 4.6799 5.46555 7.0087 8.18537.4482-.10694.8221.00295 1.1484.28425 1.0457-.56647 2.074-1.12348 3.1169-1.68844-.3224-.44161-.6974-.7554-1.1313-1.00571-3.2809-1.89319-6.5608-3.78808-9.8421-5.68048-.0827-.04773-.1546-.1376-.3006-.09499zm-1.4208 26.70713c0 .8328-.0053 1.6632.002 2.4934.0045.5096.3936.7924.8535.6189.2403-.0906.4746-.2045.6973-.3325 1.7516-1.0067 3.4997-2.0195 5.2491-3.0302 1.4529-.8394 2.9066-1.6775 4.3575-2.5203.0771-.0448.1986-.0546.2134-.2211-3.5485.7751-7.082 1.5469-10.6049 2.3163-.1835.2851-.3788.5279-.7679.6755zm-12.04706-2.9969c-.00486.0282-.00972.0565-.01457.0848 3.14244 1.8122 6.28513 3.6241 9.42703 5.4372.4277.2469.8452.5148 1.326.651.3053.0864.6063-.0843.6128-.3923.0199-.9419.0072-1.8845.0072-2.8171-.2881-.1595-.4684-.3713-.6139-.5884-3.5978-.7953-7.17121-1.5853-10.74456-2.3752z" fill="#fafafb"/><path d="m16.72 25.8028c-.2611.0119-.4882-.0316-.7206.0889-2.7111-4.8867-5.4125-9.7559-8.10878-14.616.08495-.1479.15749-.2742.23942-.417h16.29586c.1032.1581.2008.3076.3145.4819-2.6674 4.8098-5.3416 9.6319-8.0204 14.4622zm3.4608-8.2788c.4639-.1883.5826-.5457.5904-.9577.012-.6294.0184-1.2594.0063-1.8887-.0054-.278.0969-.4652.3188-.6227.2375-.1685.4644-.3551.6778-.5533.1667-.155.3167-.3501.1657-.5894-.1547-.2453-.3956-.1586-.6102-.0979-.2519.0711-.4454.2516-.6384.4117-.2924.2425-.5775.2846-.9329.1493-.5028-.1914-1.0219-.3396-1.5332-.5089-.2703-.0895-.5426-.1391-.8281-.0861-.1826.0339-.3387.0944-.4013.3162.7614.3873 1.5182.7722 2.2735 1.1563-.02.0467-.0235.0709-.0372.0845-.4942.4885-1.1076.8347-1.5922 1.3363-.124.1285-.2815.1028-.4361.0206-.1798-.0956-.3358-.0756-.4541.1522.4759.1858.6978.5502.7465 1.056.209-.1019.3321-.2195.2727-.4323-.0621-.2228.0636-.3405.2211-.4402.2371-.1502.4817-.2887.7211-.4355.3503-.2149.699-.4326 1.0806-.6691.1334.8898.2576 1.7194.3892 2.5987zm-6.7852-3.9171c-.1191-.1217-.2387-.0907-.3635-.065-.0895.1185-.1212.2405-.0031.356.0645.0631.1452.0923.2435.0534.1697-.0672.1481-.1968.1231-.3444zm2.6267 7.2749c-.167.0491-.2505.1387-.2089.302.0241.0949.0945.1553.193.1622.1156.008.1967-.0585.227-.163.0475-.1643-.0443-.2511-.2111-.3012zm-2.3618-2.6815c-.1428.0972-.2188.1936-.1357.3461.0568.1042.1504.1249.255.1045.0969-.0189.1579-.0884.1656-.1829.0159-.1935-.1351-.2244-.2849-.2677zm-3.6473-5.9823c-.05516.0861-.06514.1781-.01682.2769.13552.1021.27252.152.43072.0169.008-.1031.0467-.2141-.0669-.3124-.1071-.0454-.2229-.0502-.347.0186zm5.456.1525c-.0161-.1122-.0804-.2054-.2315-.2061-.1337-.0006-.2066.0735-.2165.2051-.0111.1487.069.2419.2083.2525.1437.0111.2247-.0795.2397-.2515z" fill="url(#a)"/><path d="m17.5223 26.5687c-.078-.1474-.1405-.2655-.2176-.4113.3283-.5943.6627-1.2028.9999-1.8098 1.9017-3.4221 3.8037-6.844 5.7063-10.2657.4144-.7454.831-1.4896 1.2476-2.2337.0751-.1341.1299-.3049.3852-.2053.2174.6057.4449 1.2376.6711 1.8698 1.0741 3.0017 2.147 6.0038 3.2231 9.0047.1051.293.1661.5869.0675.8898-.1302.3998-.4379.6255-.8241.711-2.6932.5958-5.3893 1.1782-8.0841 1.7665-.964.2105-1.9268.426-2.8904.6379-.0866.0191-.1753.0287-.2845.0461z" fill="url(#b)"/><path d="m7.27504 11.5891c.39664.7143.79833 1.4388 1.20095 2.1628 2.26951 4.081 4.54011 8.1614 6.80581 12.2445.0953.1717.282.3479.0691.6036-.8265-.1782-1.6654-.3582-2.5039-.5399-2.5605-.5548-5.12129-1.1086-7.68112-1.6666-.45854-.1-.91341-.217-1.36946-.3279-.62226-.1514-.86424-.6042-.64918-1.2258.68076-1.9681 1.36453-3.9351 2.04647-5.9028.58465-1.6871 1.16733-3.3748 1.75468-5.0609.04437-.1274.04674-.3093.32665-.287z" fill="url(#d)"/><path d="m8.13603 10.1426c-.15066-.1689-.06486-.27814.03886-.39682 1.39119-1.59233 2.78011-3.18669 4.16931-4.78073 1.0049-1.15295 2.0127-2.30341 3.013-3.46037.6428-.74345 1.4278-.760453 2.0673-.01608 2.3603 2.74705 4.7158 5.49817 7.0725 8.24838.0283.03315.0482.07359.0656.10064-.0026.12184-.0619.20348-.1269.30508-5.4245-.0001-10.8576-.0001-16.29967-.0001z" fill="url(#e)"/><path d="m30.0661 21.9446c-1.2619-3.5341-2.5237-7.0682-3.7888-10.6112.2139-.2898.3946-.5867.3184-.965 1.0674-.57766 2.1129-1.14347 3.1806-1.72123.2849.49852.3513 1.03262.3529 1.56553.012 3.8809.0097 7.7618.0113 11.6428 0 .0289-.0102.0578-.0157.0867-.0195.0007-.0391.0016-.0587.0024z" fill="#38a1bd"/><path d="m3.05167 8.59233c.94925.65811 1.96776 1.11429 2.92778 1.70887-.05291.4266.0835.7923.41522 1.0906-1.21414 3.5145-2.42552 7.0208-3.63683 10.5272-.02607-.0054-.05213-.0109-.07812-.0162 0-.1059-.00007-.2118 0-.3176.00157-3.7789.00197-7.5578.0061-11.3366.00059-.57599.10385-1.13214.36585-1.65627z" fill="url(#f)"/><path d="m18.1523 1.25167c.1461-.04253.2179.04727.3006.09493 3.2814 1.89246 6.5613 3.78736 9.8422 5.68048.4339.25031.8088.56417 1.1313 1.00571-1.0429.56495-2.0712 1.12197-3.1169 1.68843-.3263-.28129-.7002-.39119-1.1484-.28425-2.3288-2.71974-4.6608-5.44316-7.0088-8.1853z" fill="#3aa7bc"/><path d="m14.5696 1.30839c-.6419.82406-1.3578 1.58465-2.0371 2.37661-.4804.55997-.9662 1.11514-1.4503 1.67189-1.0369 1.19261-2.07568 2.38364-3.10975 3.57867-.1523.176-.35278.30729-.46898.54651-.42952-.15663-.8215-.08258-1.19529.20607-.83844-.46997-1.68004-.93777-2.5167-1.41417-.15355-.08744-.23161-.23994-.23679-.43911.24886-.32751.57073-.58531.93212-.794 3.30544-1.90861 6.61189-3.81532 9.91869-5.7217.0384-.02213.0835-.0327.1255-.04871.0128.0128.0256.0254.0386.03794z" fill="#3a74b3"/><path d="m16.7323 27.9588c.3891-.1477.5843-.3905.7679-.6755 3.5229-.7694 7.0564-1.5412 10.6049-2.3162-.0148.1665-.1363.1762-.2134.221-1.4509.8429-2.9045 1.681-4.3575 2.5204-1.7493 1.0106-3.4974 2.0234-5.2491 3.0301-.2228.128-.457.2419-.6973.3325-.4599.1735-.849-.1092-.8535-.6188-.0073-.8303-.002-1.6606-.002-2.4935z" fill="#426197"/><path d="m4.68645 24.9619c3.57341.79 7.14675 1.5798 10.74465 2.3751.1454.2171.3257.4288.6138.5884 0 .9325.0127 1.8752-.0072 2.8171-.0065.308-.3075.4787-.6128.3923-.4807-.1363-.8983-.4042-1.326-.651-3.1419-1.8132-6.28458-3.625-9.42702-5.4373.00485-.0281.00971-.0564.01457-.0846z" fill="url(#g)"/><path d="m14.5312 1.27044c.0227-.01116.0453-.02239.1336-.06604-.0643.07024-.0797.08705-.0951.10392-.0129-.01247-.0257-.02508-.0385-.03788z" fill="#3786ba"/><g fill="#fafafb"><path d="m20.1811 17.524c-.1316-.8793-.2558-1.7089-.3891-2.5988-.3817.2366-.7302.4543-1.0806.6691-.2394.1468-.484.2853-.7211.4355-.1575.0997-.2832.2174-.2211.4402.0594.2128-.0636.3304-.2727.4323-.0487-.5058-.2706-.8701-.7465-1.056.1183-.2278.2743-.2478.4541-.1522.1546.0823.3121.1079.4361-.0206.4846-.5016 1.098-.8477 1.5922-1.3363.0138-.0136.0172-.0377.0373-.0844-.7554-.3842-1.5122-.7691-2.2736-1.1564.0626-.2218.2187-.2823.4013-.3162.2854-.0529.5577-.0033.8281.0862.5113.1693 1.0304.3174 1.5332.5089.3554.1353.6405.0931.9329-.1493.193-.1601.3866-.3407.6384-.4118.2146-.0606.4555-.1473.6102.0979.151.2393.001.4344-.1657.5894-.2134.1982-.4403.3848-.6778.5533-.222.1576-.3242.3447-.3188.6228.0122.6293.0057 1.2593-.0062 1.8887-.008.412-.1267.7694-.5906.9577z"/><path d="m13.3966 13.6068c.0251.1476.0467.2773-.1231.3445-.0983.039-.1791.0097-.2435-.0534-.1181-.1155-.0864-.2375.0031-.356.1249-.0257.2444-.0566.3635.0649z"/><path d="m16.0202 20.8819c.1668.05.2587.1368.2112.3011-.0303.1045-.1114.171-.2271.163-.0986-.0068-.1689-.0672-.193-.1622-.0415-.1634.0419-.2529.2089-.3019z"/><path d="m13.6585 18.2003c.1498.0433.3008.0743.2849.2677-.0078.0945-.0688.164-.1656.1829-.1046.0204-.1982-.0003-.255-.1045-.0833-.1525-.0072-.2489.1357-.3461z"/><path d="m10.0127 12.218c.1242-.0688.2399-.064.3471-.0187.1136.0984.0748.2094.0669.3124-.1582.1351-.2952.0852-.43073-.0169-.04845-.0987-.03841-.1907.01673-.2768z"/><path d="m15.4685 12.3705c-.015.172-.0961.2625-.2397.2516-.1393-.0107-.2193-.1039-.2082-.2526.0098-.1317.0827-.2057.2165-.205.1511.0005.2154.0937.2314.206z"/></g></g></svg>