<svg fill="none" height="32" viewBox="0 0 32 32" width="32" xmlns="http://www.w3.org/2000/svg" xmlns:xlink="http://www.w3.org/1999/xlink"><linearGradient id="a" gradientUnits="userSpaceOnUse" x1="9.30326" x2="17.1543" y1="23.6438" y2="9.9084"><stop offset="0" stop-color="#4f3f60"/><stop offset=".514" stop-color="#3f659f"/><stop offset=".9995" stop-color="#3baabc"/></linearGradient><linearGradient id="b" gradientUnits="userSpaceOnUse" x1="17.9833" x2="28.1201" y1="21.2085" y2="16.3233"><stop offset="0" stop-color="#3f659f"/><stop offset="1" stop-color="#3698bc"/></linearGradient><linearGradient id="c"><stop offset="0" stop-color="#4e4365"/><stop offset="1" stop-color="#3f659e"/></linearGradient><linearGradient id="d" gradientUnits="userSpaceOnUse" x1="4.15838" x2="11.5346" xlink:href="#c" y1="23.2249" y2="18.6691"/><linearGradient id="e" gradientUnits="userSpaceOnUse" x1="8.68285" x2="23.1273" y1="6.8478" y2="6.8478"><stop offset="0" stop-color="#3b71ae"/><stop offset=".9995" stop-color="#379dbc"/></linearGradient><linearGradient id="f" gradientUnits="userSpaceOnUse" x1="1.89945" x2="5.43378" xlink:href="#c" y1="20.7822" y2="12.3365"/><linearGradient id="g" gradientUnits="userSpaceOnUse" x1="5.79901" x2="15.7094" xlink:href="#c" y1="25.8184" y2="27.37"/><path d="m32 16c0 8.8366-7.1634 16-16 16-8.83656 0-16-7.1634-16-16 0-8.83656 7.16344-16 16-16 8.8366 0 16 7.16344 16 16z" fill="#fff"/><path d="m3.39103 15.9802c0-1.6247.00856-3.2495-.00334-4.874-.00672-.9133.24097-1.72637.7415-2.49855.25528-.39375.56971-.65126.95611-.87379 2.9948-1.72466 5.9836-3.45966 8.9802-5.18117 1.2825-.7368 2.5828-.7376 3.8671.00167 2.9269 1.68491 5.8515 3.37407 8.7727 5.06904 1.2555.72841 1.8876 1.84713 1.8955 3.2832.0189 3.3872.0188 6.7745.0002 10.1617-.008 1.4485-.6506 2.5675-1.9176 3.3002-2.9576 1.7106-5.915 3.4215-8.8774 5.1238-1.1696.6721-2.3967.6719-3.5429.029-3.0563-1.7148-6.08788-3.4744-9.108-5.2523-1.17266-.6904-1.74138-1.7938-1.75873-3.1489-.02194-1.7131-.00534-3.4266-.00534-5.1399zm10.96007-12.86856c-.0367.01397-.0762.02321-.1098.04263-2.8934 1.66809-5.78663 3.33646-8.67889 5.00649-.31622.1826-.59785.40818-.81561.69475.00454.17427.07284.30771.2072.38422.73207.41685 1.46847.82617 2.20211 1.23737.32706-.2525.67005-.3173 1.04588-.1803.10167-.2093.27709-.32413.41035-.47818.90481-1.04565 1.81376-2.0878 2.72106-3.13133.4235-.48716.8487-.97294 1.2689-1.46291.5944-.69297 1.2209-1.35848 1.7825-2.07953.0135-.01471.027-.02947.0832-.09088-.0773.03809-.0971.04791-.1169.05767zm1.9134 21.46576c2.3439-4.2265 4.6838-8.4458 7.0178-12.6544-.0995-.1525-.185-.2833-.2752-.4216-4.756 0-9.5096 0-14.25885 0-.07168.1249-.13515.2354-.20949.3648 2.35924 4.2526 4.72294 8.5132 7.09524 12.789.2034-.1054.402-.0673.6305-.0778zm.7023.6702c.0954-.0152.173-.0236.2488-.0402.8432-.1855 1.6857-.3741 2.5291-.5582 2.358-.5149 4.7171-1.0244 7.0736-1.5458.338-.0748.6072-.2723.7211-.6221.0863-.2651.033-.5222-.059-.7786-.9417-2.6258-1.8805-5.2526-2.8203-7.8791-.1979-.5532-.397-1.1061-.5872-1.6361-.2233-.0871-.2714.0623-.337.1797-.3645.6512-.729 1.3022-1.0916 1.9545-1.6648 2.9939-3.3291 5.9881-4.993 8.9825-.2952.5311-.5878 1.0635-.875 1.5836.0675.1275.1222.2308.1905.3598zm-8.96448-13.1071c-.24492-.0196-.247.1396-.28582.2511-.51393 1.4753-1.02378 2.9521-1.53534 4.4283-.5967 1.7217-1.19495 3.4428-1.79066 5.1649-.18818.5439.02355.9401.56803 1.0726.3991.097.79705.1995 1.19828.2869 2.23985.4883 4.48049.9728 6.72099 1.4583.7337.1589 1.4677.3165 2.1909.4724.1862-.2237.0229-.3779-.0605-.5282-1.9825-3.5727-3.9692-7.143-5.95505-10.7139-.35229-.6335-.70377-1.2674-1.05083-1.8924zm.75197-1.2657h14.26221c.057-.0889.1088-.1603.111-.2669-.0152-.0237-.0324-.0591-.0574-.0881-2.062-2.40637-4.1231-4.81366-6.1883-7.21734-.5597-.65126-1.2465-.63638-1.809.01408-.8752 1.01228-1.757 2.01893-2.6363 3.02783-1.2156 1.39477-2.4309 2.78984-3.64816 4.18313-.09081.104-.16588.1995-.03405.3473zm19.18681 10.3268c.0171-.0008.0343-.0015.0514-.0022.0048-.0253.0137-.0505.0137-.0759-.0013-3.3958.0005-6.7916-.0098-10.1874-.0015-.4663-.0595-.9337-.3089-1.36987-.9341.50557-1.849 1.00067-2.7829 1.50607.0666.3311-.0916.5909-.2786.8443 1.1068 3.1002 2.2109 6.1926 3.3151 9.285zm-23.63453-11.68328c-.22924.45861-.31954.94528-.32011 1.44918-.00368 3.3066-.00397 6.613-.00534 9.9196-.00006.0926 0 .1852 0 .2779.0228.0047.0456.0094.06835.0141 1.0599-3.068 2.1198-6.1361 3.18223-9.2113-.2902-.2609-.40955-.581-.36332-.9542-.84002-.5203-1.73121-.9194-2.56181-1.49528zm13.21193-6.4231c2.0545 2.39942 4.0949 4.78236 6.1326 7.16218.3922-.0936.7194.0026 1.0049.2487.915-.4956 1.8147-.98301 2.7273-1.47735-.2821-.38641-.6103-.66097-.9899-.88-2.8708-1.65654-5.7407-3.31456-8.6118-4.97041-.0724-.04177-.1353-.1204-.2631-.08312zm-1.2432 23.36868c0 .7287-.0046 1.4553.0018 2.1818.0039.4459.3444.6933.7468.5415.2103-.0793.4153-.1789.6101-.2909 1.5327-.8809 3.0623-1.7671 4.593-2.6515 1.2713-.7344 2.5433-1.4678 3.8128-2.2052.0675-.0392.1738-.0478.1867-.1935-3.1049.6782-6.1967 1.3536-9.2793 2.0268-.1605.2494-.3314.4619-.6719.591zm-10.54115-2.6222c-.00425.0246-.0085.0494-.01274.0742 2.74963 1.5856 5.49949 3.171 8.24869 4.7575.3742.216.7395.4505 1.1602.5696.2671.0756.5305-.0737.5362-.3432.0174-.8242.0063-1.649.0063-2.465-.2521-.1395-.4098-.3249-.5372-.5148-3.148-.6959-6.27477-1.3872-9.40145-2.0783z" fill="#fafafb"/><path d="m16.265 24.5777c-.2285.0104-.4272-.0277-.6305.0778-2.3722-4.2759-4.7359-8.5365-7.09519-12.789.07433-.1295.1378-.24.20949-.3649h14.2589c.0903.1383.1757.2691.2752.4216-2.334 4.2086-4.6739 8.428-7.0179 12.6545zm3.0282-7.244c.4059-.1647.5098-.4775.5166-.838.0105-.5507.0161-1.1019.0055-1.6526-.0047-.2432.0848-.407.279-.5448.2078-.1475.4063-.3108.593-.4842.1459-.1356.2772-.3063.145-.5157-.1353-.2146-.3461-.1388-.5339-.0857-.2204.0622-.3897.2202-.5586.3603-.2558.2122-.5053.249-.8163.1306-.4399-.1675-.8941-.2971-1.3415-.4453-.2365-.0783-.4748-.1217-.7246-.0753-.1598.0296-.2964.0826-.3512.2767.6663.3388 1.3285.6756 1.9894 1.0117-.0175.0409-.0206.0621-.0326.074-.4324.4274-.9691.7303-1.3932 1.1692-.1085.1125-.2463.09-.3816.018-.1573-.0836-.2938-.0661-.3973.1332.4164.1626.6106.4814.6532.924.1829-.0891.2906-.192.2386-.3782-.0543-.195.0557-.298.1935-.3852.2074-.1314.4215-.2526.6309-.3811.3065-.188.6117-.3785.9456-.5854.1167.7785.2254 1.5044.3405 2.2738zm-5.937-3.4274c-.1043-.1065-.2089-.0794-.3181-.0569-.0783.1037-.1061.2104-.0027.3115.0564.0552.127.0807.213.0467.1485-.0588.1296-.1722.1078-.3013zm2.2983 6.3655c-.1461.043-.2192.1214-.1828.2642.0211.0831.0827.1359.1689.142.1012.007.1721-.0512.1986-.1427.0416-.1437-.0387-.2197-.1847-.2635zm-2.0666-2.3463c-.1249.085-.1914.1694-.1187.3028.0497.0912.1316.1093.2231.0915.0848-.0166.1382-.0774.1449-.1601.0139-.1693-.1182-.1963-.2493-.2342zm-3.1913-5.2345c-.0483.0753-.057.1558-.0148.2423.1186.0893.2385.133.3769.0147.007-.0902.0409-.1873-.0585-.2733-.0937-.0397-.195-.0439-.3036.0163zm4.774.1334c-.0141-.0982-.0704-.1797-.2026-.1803-.117-.0006-.1808.0643-.1894.1794-.0098.1301.0603.2117.1822.221.1258.0097.1966-.0696.2098-.2201z" fill="url(#a)"/><path d="m16.967 25.2477c-.0682-.129-.1229-.2324-.1904-.3599.2873-.52.5799-1.0525.8749-1.5836 1.664-2.9943 3.3283-5.9885 4.993-8.9825.3626-.6522.7272-1.3034 1.0917-1.9545.0657-.1173.1136-.2668.337-.1796.1903.53.3893 1.0829.5872 1.6361.9399 2.6264 1.8787 5.2533 2.8203 7.8791.0919.2563.1453.5135.059.7785-.1139.3499-.3831.5474-.7211.6222-2.3565.5213-4.7156 1.0309-7.0736 1.5457-.8435.1841-1.6859.3727-2.5291.5581-.0757.0167-.1533.0251-.2489.0404z" fill="url(#b)"/><path d="m8.00067 12.1403c.34706.625.69854 1.259 1.05083 1.8925 1.9858 3.5708 3.9726 7.1412 5.9551 10.7139.0834.1502.2467.3044.0604.5281-.7231-.1559-1.4572-.3134-2.1909-.4724-2.2404-.4854-4.48109-.97-6.72095-1.4582-.40122-.0875-.79923-.1899-1.19827-.287-.54448-.1324-.75621-.5286-.56803-1.0725.59566-1.7221 1.19396-3.4432 1.79066-5.165.51156-1.4762 1.02141-2.9529 1.53534-4.4283.03882-.1114.0409-.2706.28582-.2511z" fill="url(#d)"/><path d="m8.75403 10.8745c-.13182-.1478-.05675-.2434.03401-.3472 1.21726-1.3933 2.43256-2.78836 3.64816-4.18315.8793-1.00883 1.7611-2.01548 2.6364-3.02782.5624-.65052 1.2493-.66539 1.8088-.01407 2.0653 2.40367 4.1264 4.8109 6.1885 7.21734.0247.029.0422.0644.0574.0881-.0023.1066-.0542.178-.1111.2669-4.7464-.0001-9.5004-.0001-14.26217-.0001z" fill="url(#e)"/><path d="m27.9428 21.2018c-1.1041-3.0924-2.2082-6.1847-3.3152-9.2848.1872-.2536.3453-.5134.2786-.8444.934-.5054 1.8488-1.0005 2.783-1.50607.2493.43617.3074.90357.3088 1.36987.0105 3.3958.0085 6.7915.0099 10.1874 0 .0253-.0089.0506-.0137.0759-.0171.0006-.0342.0014-.0514.0021z" fill="#38a1bd"/><path d="m4.30522 9.51855c.83059.57585 1.72179.97505 2.56181 1.49525-.0463.3733.07306.6933.36331.9543-1.06237 3.0752-2.12233 6.1432-3.18222 9.2113-.02281-.0047-.04562-.0096-.06836-.0142 0-.0927-.00006-.1853 0-.2779.00138-3.3065.00173-6.6131.00534-9.9195.00052-.504.09087-.99063.32012-1.44925z" fill="url(#f)"/><path d="m17.5182 3.09555c.1279-.03722.1907.04136.2631.08306 2.8712 1.6559 5.7411 3.31394 8.6119 4.97042.3797.21902.7077.49365.9899.88-.9126.49433-1.8123.98167-2.7273 1.47737-.2855-.2461-.6127-.3423-1.0049-.2487-2.0377-2.37979-4.0782-4.76278-6.1327-7.16215z" fill="#3aa7bc"/><path d="m14.3834 3.14465c-.5617.72105-1.1881 1.38657-1.7825 2.07953-.4203.48997-.8454.97575-1.269 1.4629-.9073 1.04354-1.81619 2.08569-2.721 3.13134-.13326.154-.30868.26888-.41036.47818-.37583-.137-.71881-.0722-1.04588.1803-.73363-.4112-1.47003-.82052-2.20211-1.23737-.13435-.07651-.20266-.20995-.20719-.38423.21775-.28657.49939-.51214.81561-.69474 2.89225-1.67004 5.78543-3.33841 8.67883-5.00649.0336-.01936.0731-.02861.1098-.04262.0112.0112.0224.02223.0338.0332z" fill="#3a74b3"/><path d="m16.2758 26.4643c.3405-.1292.5113-.3417.6719-.5911 3.0825-.6732 6.1744-1.3485 9.2793-2.0266-.013.1456-.1193.1541-.1867.1933-1.2696.7376-2.5415 1.4709-3.8128 2.2054-1.5307.8843-3.0603 1.7705-4.593 2.6513-.195.112-.3999.2117-.6101.291-.4025.1518-.7429-.0956-.7469-.5415-.0063-.7265-.0017-1.453-.0017-2.1818z" fill="#426197"/><path d="m5.73565 23.8414c3.12673.6913 6.25345 1.3824 9.40155 2.0782.1272.19.285.3752.5371.5149 0 .8159.0111 1.6408-.0063 2.465-.0057.2695-.2691.4188-.5362.3432-.4206-.1192-.786-.3537-1.1603-.5696-2.7491-1.5866-5.49897-3.1719-8.2486-4.7576.00424-.0246.0085-.0494.01275-.0741z" fill="url(#g)"/><path d="m14.3498 3.1115c.0199-.00977.0396-.0196.1169-.05779-.0563.06146-.0697.07617-.0832.09093-.0113-.01091-.0225-.02194-.0337-.03314z" fill="#3786ba"/><g fill="#fafafb"><path d="m19.2935 17.3338c-.1152-.7694-.2239-1.4953-.3405-2.274-.334.207-.6389.3975-.9455.5855-.2095.1284-.4235.2496-.631.381-.1378.0873-.2478.1903-.1934.3852.0519.1862-.0557.2891-.2387.3783-.0426-.4426-.2367-.7614-.6531-.924.1035-.1993.24-.2168.3973-.1332.1353.072.2731.0944.3816-.018.424-.4389.9607-.7418 1.3932-1.1693.012-.0119.015-.033.0326-.0738-.661-.3362-1.3232-.673-1.9894-1.0119.0548-.1941.1914-.247.3511-.2767.2498-.0462.488-.0028.7246.0755.4474.1481.9016.2777 1.3416.4453.3109.1183.5604.0814.8163-.1307.1688-.1401.3382-.2981.5586-.3603.1877-.053.3985-.1289.5339.0857.1321.2093.0009.3801-.145.5157-.1867.1734-.3853.3367-.5931.4841-.1942.1379-.2837.3016-.2789.545.0106.5506.005 1.1019-.0055 1.6526-.007.3605-.1108.6732-.5167.838z"/><path d="m13.3571 13.9062c.0219.1292.0408.2427-.1077.3015-.0861.0341-.1568.0084-.2131-.0468-.1033-.101-.0756-.2078.0027-.3115.1093-.0225.2139-.0495.3181.0568z"/><path d="m15.6527 20.2719c.146.0437.2264.1197.1848.2634-.0265.0915-.0975.1496-.1987.1426-.0863-.0059-.1478-.0588-.1689-.1419-.0363-.143.0367-.2213.1828-.2641z"/><path d="m13.5862 17.925c.1311.0379.2632.0651.2493.2343-.0068.0827-.0602.1435-.1449.16-.0915.0179-.1734-.0002-.2231-.0914-.0729-.1335-.0063-.2178.1187-.3029z"/><path d="m10.3961 12.6905c.1087-.0602.2099-.056.3037-.0163.0994.0861.0655.1832.0586.2733-.1385.1182-.2583.0746-.3769-.0148-.0424-.0863-.0336-.1668.0146-.2422z"/><path d="m15.17 12.8242c-.0132.1505-.0841.2297-.2098.2201-.1219-.0093-.1919-.0909-.1821-.221.0085-.1152.0723-.18.1894-.1794.1322.0005.1885.082.2025.1803z"/></g></svg>