<svg fill="none" height="32" viewBox="0 0 32 32" width="32" xmlns="http://www.w3.org/2000/svg" xmlns:xlink="http://www.w3.org/1999/xlink"><radialGradient id="a" cx="17.6925" cy="10.7554" gradientUnits="userSpaceOnUse" r="9.36138"><stop offset=".3139" stop-color="#cbcccd"/><stop offset="1" stop-color="#919392"/></radialGradient><radialGradient id="b" cx="13.6652" cy="13.6818" gradientUnits="userSpaceOnUse" r="8.56367"><stop offset=".206" stop-color="#d9eaf5"/><stop offset="1" stop-color="#b6c6cd"/></radialGradient><path d="m16 32c8.8366 0 16-7.1634 16-16 0-8.83656-7.1634-16-16-16-8.83656 0-16 7.16344-16 16 0 8.8366 7.16344 16 16 16z" fill="#263145"/><path d="m10.8196 20.1311h-2.29509l8.65569-14.95077 9.7705 16.98357-1.1803 2.0328-8.5902-14.9508z" fill="url(#a)"/><path d="m16 11.2131 1.1803-1.96722 8.6557 14.95082h-19.60654l-1.18033-2.0328h17.24587z" fill="#5c5969"/><path d="m21.1147 20.1311 1.1804 2.0328h-17.24594l9.77054-16.98357h2.3606l-8.65573 14.95077z" fill="url(#b)"/></svg>