<svg width="32" height="32" fill="none" xmlns="http://www.w3.org/2000/svg"><path d="M16 32c8.837 0 16-7.163 16-16S24.837 0 16 0 0 7.163 0 16s7.163 16 16 16Z" fill="#263145"/><path d="M10.82 20.131H8.525l8.655-14.95 9.77 16.983-1.18 2.033-8.59-14.951-6.36 10.885Z" fill="url(#a)"/><path d="m16 11.213 1.18-1.967 8.656 14.95H6.229l-1.18-2.032h17.246L16 11.214Z" fill="#5C5969"/><path d="m21.115 20.131 1.18 2.033H5.05L14.82 5.18h2.361L8.525 20.131h12.59Z" fill="url(#b)"/><defs><radialGradient id="a" cx="0" cy="0" r="1" gradientUnits="userSpaceOnUse" gradientTransform="translate(17.692 10.755) scale(9.36138)"><stop offset=".314" stop-color="#CBCCCD"/><stop offset="1" stop-color="#919392"/></radialGradient><radialGradient id="b" cx="0" cy="0" r="1" gradientUnits="userSpaceOnUse" gradientTransform="translate(13.665 13.682) scale(8.56367)"><stop offset=".206" stop-color="#D9EAF5"/><stop offset="1" stop-color="#B6C6CD"/></radialGradient></defs></svg>