<svg fill="none" height="32" viewBox="0 0 32 32" width="32" xmlns="http://www.w3.org/2000/svg"><path d="m16 32c-8.83692 0-16-7.1631-16-16 0-8.83692 7.16308-16 16-16 8.8369 0 16 7.16308 16 16 0 8.8369-7.1631 16-16 16z" fill="#ffb300"/><path d="m26.0723 8.17232-.0738-.38893-.384-.07877c-.0246-.00492-2.5748-.54153-4.8443-1.80676-3.2345-1.8117-4.3225-2.95385-4.3323-2.9637l-.4382-.47261-.4332.46769c-.0099.00985-1.1028 1.15692-4.3372 2.96862-2.26958 1.26523-4.81973 1.80184-4.84927 1.80676l-.384.07877-.07384.38893c-.45292 2.42218-.45785 4.85908-.01969 7.25168l.19692.9551.05415.2215c.61539 2.5108 1.70831 4.8542 3.24431 6.9711 1.66402 2.2942 3.78582 4.2191 6.29172 5.7157l.3003.1821.3003-.1821c2.5107-1.4966 4.6277-3.4215 6.2917-5.7157 1.536-2.1169 2.6289-4.4603 3.2443-6.9711l.251-1.1717c.453-2.3975.4431-4.8344-.0049-7.25658z" fill="#000"/><path d="m6.58203 16.2019.01477.059.05415.2117c.60062 2.4517 1.66893 4.736 3.16554 6.7988 1.62461 2.24 3.69231 4.1157 6.14401 5.5827l.0443.0247.0443-.0247c2.4517-1.4621 4.5194-3.3427 6.144-5.5827 1.4966-2.0578 2.56-4.3421 3.1606-6.7889l.0591-.2806z" fill="#8e001c"/><path d="m6.52314 15.9114h18.95386l.123-.5858c.4283-2.3287.4185-4.7065-.0197-7.05974l-.0098-.05908-.0591-.00984c-.1871-.03939-2.7077-.58585-4.987-1.86093-3.3133-1.856-4.4505-3.05231-4.4603-3.06707l-.064-.06893-.064.06893c-.0493.04923-1.157 1.216-4.4603 3.06215-2.28927 1.28-4.80004 1.82154-4.99204 1.86092l-.05908.00985-.00984.05908c-.43816 2.35816-.44308 4.73596-.0197 7.06466z" fill="#ffb300"/><path d="m14.3404 25.1668c0-.0147-.0099-.0246-.0197-.0246-.0197 0-.1132-.0098-.1477-.0147-.0689-.0148-.0837-.0493-.0886-.1231-.0099-.0985-.0099-.2905-.0099-.5071v-.4185c0-.3446.0148-.5661.0148-.5858 0-.0246-.0049-.0492-.0246-.0492s-.0394.0147-.0591.0295c-.0788.0591-.5071.3397-.5169.3446-.0099.0049-.0197.0197-.0197.0296 0 .0147.0098.0246.0197.0246.0098 0 .0197-.005.0295-.0099.0493-.0197.2166-.1083.256-.1083.0345 0 .0345.0246.0345.0788v.2954.3594c.0049.2166 0 .4086-.0099.507-.0049.0739-.0197.1034-.0886.1182-.0394.0098-.1526.0148-.1772.0148-.0099 0-.0197.0049-.0197.0246 0 .0147.0148.0197.0394.0197.1428 0 .3298-.005.384-.005.0591 0 .2018.005.3741.005.0197.0197.0296.0147.0296-.005 0 .005 0 .005 0 0z" fill="#010101"/><path d="m15.2409 23.4536c-.3446 0-.571.2216-.571.5268 0 .1871.1329.4332.4529.4332.1132 0 .2314-.0344.2954-.1034.0049-.0049.0098-.0196.0098-.0246 0-.0098-.0098-.0197-.0197-.0197-.0098 0-.0197.0099-.0443.0247-.0295.0147-.0738.0246-.1526.0246-.0738 0-.2954-.0837-.2954-.4234 0-.192.1083-.3348.2659-.3348.1723 0 .3397.1773.3397.576 0 .5317-.3496.9009-.581 1.0437-.0098.0098-.0246.0197-.0246.0394 0 .0098.0099.0246.0197.0246.0197 0 .0296-.0049.0394-.0099.2757-.1329.8222-.5267.8222-1.1569.0049-.3495-.197-.6203-.5564-.6203z" fill="#010101"/><path d="m17.1611 24.7927c0-.0246-.0049-.0443-.0197-.0443s-.0197.0098-.0246.0344c-.0296.1083-.0985.1822-.256.2019-.0837.0098-.3446.0147-.384.0147h-.1526c-.005 0-.0099.0001-.0099-.0049 0-.0049 0-.0049.0049-.0098.2905-.2314.768-.6154.768-1.0486 0-.261-.1674-.4776-.5612-.4776-.1969 0-.3151.0394-.4037.0837-.0246.0148-.0295.0246-.0295.0443 0 .064.0098.2511.0147.2708 0 .0295.0099.0443.0197.0443.0197 0 .0296-.0197.0296-.0443 0-.0591.0394-.1625.0935-.2166.0689-.064.1428-.0788.2363-.0788.1132 0 .3052.0739.3052.4283 0 .4726-.443.8271-.7581 1.1028-.0246.0197-.0443.0394-.0443.0591s.0147.0295.0295.0295h.8763c.1379 0 .1773-.0098.192-.0689.0345-.0739.0739-.2856.0739-.32z" fill="#010101"/><path d="m18.4758 23.493h-.7139c-.2363 0-.2904-.0246-.3003-.0246-.0098 0-.0197.0098-.0197.0295 0 .0246-.0344.2856-.0344.3693 0 .0246 0 .0344.0197.0344.0147 0 .0197-.0148.0197-.0295.0049-.0345.0344-.1083.0738-.1329.0542-.0345.1477-.0394.2068-.0394h.576c-.3053.5218-.5957 1.1864-.6548 1.3981-.0098.0345-.0148.0689-.0148.0936 0 .0197.005.0246.0296.0246.0984 0 .2806-.0936.2806-.1379 0-.0295-.0049-.0443 0-.0837.0344-.2904.384-1.1815.5661-1.4473.005-.0099.0148-.0247.0148-.0394.0049-.0099-.0049-.0148-.0492-.0148z" fill="#010101"/><path d="m14.3207 25.0635c-.0197 0-.1132-.005-.1477-.0148-.0689-.0148-.0837-.0493-.0886-.1231-.0099-.0985-.0099-.2905-.0099-.5071v-.4185c0-.3446.0148-.5661.0148-.5858 0-.0246-.0049-.0492-.0246-.0492s-.0394.0147-.0591.0295c-.0788.0591-.5071.3397-.5169.3446-.0099.0049-.0197.0197-.0197.0296 0 .0147.0098.0246.0197.0246.0098 0 .0197-.0049.0295-.0099.0493-.0197.2166-.1083.256-.1083.0345 0 .0345.0246.0345.0837v.2954.3594c.0049.2166 0 .4086-.0099.5071-.0049.0738-.0197.1034-.0886.1181-.0394.0099-.1526.0148-.1772.0148-.0099 0-.0197.0098-.0197.0246s.0148.0197.0394.0197c.1428 0 .3298-.0049.3791-.0049.059 0 .2018.0049.3741.0049.0246 0 .0345-.0049.0345-.0197 0-.0049-.0099-.0147-.0197-.0147z" fill="#c9cacc"/><path d="m15.2409 23.3748c-.3446 0-.571.2216-.571.5268 0 .1871.1329.4332.4529.4332.1132 0 .2314-.0344.2954-.1033.0049-.005.0098-.0197.0098-.0247 0-.0098-.0098-.0196-.0197-.0196-.0098 0-.0197.0098-.0443.0246-.0295.0147-.0738.0246-.1526.0246-.0738 0-.2954-.0837-.2954-.4283 0-.192.1083-.3348.2659-.3348.1723 0 .3397.1772.3397.576 0 .5317-.3496.9009-.581 1.0437-.0098.0098-.0246.0197-.0246.0394 0 .0098.0099.0246.0197.0246.0197 0 .0296-.0049.0394-.0098.2757-.133.8222-.5268.8222-1.157.0049-.3446-.197-.6154-.5564-.6154z" fill="#c9cacc"/><path d="m17.1462 24.6696c-.0148 0-.0197.0099-.0247.0345-.0295.1034-.0984.1821-.256.2018-.0836.0099-.3446.0148-.384.0148h-.1526c-.0098 0-.0147-.0099-.0049-.0148.0443-.0344.0935-.0787.1477-.1181.2806-.2314.6203-.5613.6203-.9305 0-.2461-.1477-.4529-.4874-.4775-.0246 0-.0443-.005-.0689-.005-.1969 0-.3151.0394-.4037.0837-.0246.0148-.0295.0247-.0295.0443 0 .0591.0098.2314.0147.2659v.0049c0 .0246.0099.0443.0197.0443.0197 0 .0296-.0197.0296-.0443 0-.0591.0394-.1624.0935-.2166.0689-.064.1428-.0788.2363-.0788.1132 0 .3052.0739.3052.4283 0 .4776-.443.8271-.7581 1.1028-.0246.0197-.0443.0394-.0443.0591s.0148.0344.0295.0344h.8763c.1379 0 .1773-.0098.192-.0689.0246-.0738.064-.2855.064-.32 0-.0246 0-.0443-.0147-.0443z" fill="#c9cacc"/><path d="m18.4754 23.4142h-.7139c-.2363 0-.2905-.0246-.3003-.0246-.0099 0-.0246.0098-.0246.0344 0 .0247-.0345.2856-.0345.3693 0 .0246 0 .0344.0197.0344.0148 0 .0197-.0098.0197-.0295.0049-.0345.0344-.1083.0738-.1378.0542-.0345.1477-.0394.2068-.0394h.576c-.3052.5218-.5957 1.1864-.6548 1.403-.0098.0345-.0147.069-.0147.0936 0 .0197.0049.0246.0295.0246.0985 0 .2806-.0935.2806-.1378 0-.0247 0-.0394 0-.0591 0-.0049 0-.0148 0-.0246.0345-.2905.384-1.1816.5662-1.4474.0049-.0099.0148-.0246.0148-.0394.0098-.0148 0-.0197-.0443-.0197z" fill="#c9cacc"/><path d="m9.36845 19.5249c0-.6351 0-.7532-.00984-.8862-.00985-.1427-.03939-.2067-.18216-.2412-.03446-.0098-.10338-.0098-.16246-.0098-.04431 0-.06892-.0099-.06892-.0394 0-.0296.02954-.0394.09354-.0394.22153 0 .48738.0148.57599.0148.14277 0 .4578-.0148.5908-.0148.2658 0 .5415.0246.768.1822.1181.0787.2855.2953.2855.571 0 .3102-.128.5957-.5514.9354.3693.4677.6597.8419.9059 1.1028.2363.2412.4086.2708.4677.2855.0443.0099.0836.0148.1181.0148s.0492.0148.0492.0345c0 .0344-.0295.0443-.0787.0443h-.3988c-.2363 0-.3397-.0197-.448-.0788-.1772-.0985-.3397-.2954-.5711-.6154-.1674-.2314-.3594-.5169-.4135-.576-.0197-.0246-.0443-.0295-.0739-.0295l-.36426-.0099c-.01969 0-.03446.0099-.03446.0345v.0591c0 .3889 0 .7187.01969.896.01477.123.03939.2117.16243.2313.064.0099.1576.0148.2068.0148.0345 0 .0492.0148.0492.0345 0 .0295-.0295.0443-.0837.0443-.24611 0-.55134-.0099-.61534-.0099-.07877 0-.34462.0099-.512.0099-.05415 0-.08369-.0099-.08369-.0443 0-.0197.01477-.0345.06892-.0345.064 0 .11323-.0098.15262-.0148.08369-.0147.10338-.1083.12307-.2313.01969-.1723.01969-.5071.01969-.8911zm.49231.3298c0 .0444.00984.064.03938.0739.08862.0295.21166.0443.31996.0443.1674 0 .2216-.0197.2954-.0738.1231-.0936.2462-.2856.2462-.6253 0-.5957-.3939-.768-.64-.768-.1034 0-.18217.0049-.22156.0148-.02954.0098-.03938.0246-.03938.0591z" fill="#1d1d1b"/><path d="m12.0712 19.8941c0-.7138.4726-1.6393 1.728-1.6393 1.0437 0 1.6936.6055 1.6936 1.5655s-.6696 1.7182-1.7329 1.7182c-1.2013-.005-1.6887-.9059-1.6887-1.6444zm2.8357.0788c0-.9403-.5415-1.5212-1.2258-1.5212-.4825 0-1.0289.2658-1.0289 1.3095 0 .8714.4824 1.5606 1.2849 1.5606.2904.005.9698-.1378.9698-1.3489z" fill="#1d1d1b"/><path d="m16.1426 18.3631c.0099-.069.0394-.1083.0689-.1083.0345 0 .0591.0197.1133.128l1.1421 2.3286 1.1373-2.3582c.0344-.0689.0541-.0984.0935-.0984.0345 0 .064.0393.0738.128l.3791 2.5599c.0394.261.0788.384.2068.4234.1231.0394.2068.0443.2609.0443.0394 0 .0689.0049.0689.0296 0 .0344-.0492.0443-.1083.0443-.1034 0-.6843-.0099-.8517-.0197-.0984-.0099-.123-.0197-.123-.0443 0-.0197.0147-.0345.0443-.0443.0246-.0099.0393-.064.0197-.1822l-.2511-1.8215h-.0148l-.9108 1.8658c-.0984.1969-.1181.2314-.1526.2314-.0394 0-.0787-.0837-.1477-.2068-.0984-.192-.4283-.832-.4824-.9501-.0394-.0886-.2905-.5809-.4333-.896h-.0147l-.2166 1.6295c-.0099.0739-.0148.1329-.0148.1969 0 .0788.0541.1182.1231.133.0738.0147.1329.0197.1772.0197.0345 0 .064.0098.064.0295 0 .0394-.0394.0443-.0985.0443-.1772 0-.3643-.0148-.4381-.0148-.0788 0-.2806.0148-.4136.0148-.0393 0-.0738-.0098-.0738-.0443 0-.0197.0246-.0295.0689-.0295.0345 0 .064 0 .128-.0148.1182-.0246.1526-.1871.1723-.3299z" fill="#1d1d1b"/><path d="m20.7307 20.4061c-.0246 0-.0295.0099-.0394.0345l-.2264.576c-.0394.1034-.064.2068-.064.256 0 .0739.0393.128.1673.128h.064c.0493 0 .064.0099.064.0345 0 .0344-.0246.0394-.0689.0394-.1329 0-.3151-.0099-.4431-.0099-.0443 0-.2757.0099-.4923.0099-.0541 0-.0787-.0099-.0787-.0394 0-.0246.0147-.0345.0492-.0345.0394 0 .0985-.0049.128-.0098.192-.0247.2708-.1674.3545-.3742l1.0486-2.5945c.0492-.123.0738-.1673.1181-.1673.0394 0 .064.0344.1034.1329.0985.2314.768 1.9052 1.0388 2.5403.1575.3741.2806.4332.3692.4578.064.0148.1231.0148.1772.0148.0345 0 .0542.0049.0542.0345 0 .0344-.0394.0394-.192.0394s-.4579 0-.7926-.0099c-.0739-.0049-.128-.0049-.128-.0345 0-.0246.0147-.0344.0591-.0393.0295-.0099.059-.0443.0393-.0985l-.3347-.8615c-.0099-.0247-.0197-.0296-.0443-.0296zm.8566-.2067c.0197 0 .0246-.0099.0197-.0246l-.3791-1.029c-.0049-.0147-.0098-.0393-.0197-.0393-.0147 0-.0197.0196-.0246.0393l-.384 1.024c-.0049.0148 0 .0296.0148.0296z" fill="#1d1d1b"/><path d="m9.36845 19.4314c0-.6351 0-.7533-.00984-.8862-.00985-.1428-.03939-.2068-.18216-.2412-.03446-.0099-.10338-.0148-.16246-.0148-.04431 0-.06892-.0098-.06892-.0394 0-.0295.02954-.0344.09354-.0344.22153 0 .48738.0098.57599.0098.14277 0 .4578-.0098.5908-.0098.2658 0 .5415.0246.768.1772.1181.0788.2855.2954.2855.576 0 .3102-.128.5957-.5514.9354.3693.4677.6597.8418.9059 1.1028.2363.2412.4086.2707.4677.2855.0443.0099.0836.0099.1181.0099s.0492.0147.0492.0344c0 .0345-.0295.0443-.0787.0443h-.3988c-.2363 0-.3397-.0197-.448-.0787-.1772-.0985-.3397-.2954-.5711-.6154-.1674-.2314-.3594-.517-.4135-.576-.0197-.0247-.0443-.0296-.0739-.0296l-.36426-.0098c-.01969 0-.03446.0098-.03446.0344v.0591c0 .3889 0 .7188.01969.896.01477.1231.03939.2117.16243.2314.064.0099.1576.0148.2068.0148.0345 0 .0492.0148.0492.0344 0 .0296-.0295.0444-.0837.0444-.24611 0-.55134-.0099-.61534-.0099-.07877 0-.34462.0099-.512.0099-.05415 0-.08369-.0099-.08369-.0444 0-.0196.01477-.0344.06892-.0344.064 0 .11323-.0099.15262-.0148.08369-.0148.10338-.1083.12307-.2314.01969-.1772.01969-.5071.01969-.8911zm.49231.3298c0 .0493.00984.064.03938.0739.08862.0295.21166.0394.31996.0394.1674 0 .2216-.0148.2954-.069.1231-.0935.2462-.2855.2462-.6301 0-.5957-.3939-.768-.64-.768-.1034 0-.18217.0049-.22156.0147-.02954.0099-.03938.0246-.03938.0591z" fill="#ffb300"/><path d="m12.0712 19.8006c0-.7139.4726-1.6394 1.728-1.6394 1.0437 0 1.6936.6055 1.6936 1.5655s-.6696 1.7182-1.7329 1.7182c-1.2013-.0049-1.6887-.9059-1.6887-1.6443zm2.8357.0787c0-.9403-.5415-1.5212-1.2258-1.5212-.4825 0-1.0289.2708-1.0289 1.3096 0 .8713.4824 1.5606 1.2849 1.5606.2904 0 .9698-.1379.9698-1.349z" fill="#ffb300"/><path d="m16.143 18.2646c.0098-.0689.0394-.1083.0689-.1083.0345 0 .0591.0197.1133.128l1.1421 2.3286 1.1372-2.3581c.0345-.069.0542-.0985.0936-.0985.0344 0 .064.0394.0738.128l.384 2.56c.0394.2659.0788.384.2068.4234.1231.0345.2068.0394.2609.0394.0394 0 .0689.0049.0689.0295 0 .0345-.0492.0492-.1083.0492-.1034 0-.6843-.0098-.8517-.0196-.0984-.0099-.123-.0197-.123-.0444 0-.0196.0147-.0344.0443-.0492.0246-.0098.0394-.064.0197-.1821l-.2511-1.8216h-.0148l-.9108 1.8659c-.0984.1969-.1181.2363-.1526.2363-.0394 0-.0787-.0837-.1477-.2117-.0984-.192-.4283-.832-.4824-.9502-.0394-.0886-.2905-.5809-.4333-.896h-.0147l-.2166 1.6296c-.0099.0738-.0148.1329-.0148.1969 0 .0788.0541.1181.1231.1329.0738.0148.1329.0197.1772.0197.0345 0 .064.0099.064.0295 0 .0394-.0394.0444-.0985.0444-.1772 0-.3643-.0148-.4381-.0148-.0788 0-.2806.0148-.4136.0148-.0393 0-.0738-.0099-.0738-.0444 0-.0196.0246-.0295.0689-.0295.0345 0 .064 0 .128-.0148.1182-.0246.1526-.187.1723-.3298z" fill="#ffb300"/><path d="m20.7307 20.3126c-.0246 0-.0295.0098-.0394.0344l-.2264.576c-.0394.1034-.064.2068-.064.256 0 .0739.0393.128.1673.128h.064c.0493 0 .064.0099.064.0345 0 .0345-.0246.0394-.0689.0394-.1329 0-.3151-.0099-.4431-.0099-.0443 0-.2757.0099-.4923.0099-.0541 0-.0787-.0099-.0787-.0394 0-.0246.0147-.0345.0492-.0345.0394 0 .0985-.0049.128-.0098.192-.0246.2708-.1674.3545-.3742l1.0486-2.5944c.0492-.1231.0738-.1674.1181-.1674.0394 0 .064.0394.1034.1329.0985.2314.768 1.9052 1.0388 2.5403.1575.3791.2806.4382.3692.4579.064.0147.1231.0147.1772.0147.0345 0 .0542.005.0542.0345 0 .0345-.0394.0394-.192.0394s-.4579 0-.7926-.0099c-.0739-.0049-.128-.0049-.128-.0344 0-.0246.0147-.0345.0591-.0394.0295-.0099.059-.0443.0393-.0985l-.3347-.8615c-.0099-.0197-.0197-.0295-.0443-.0295zm.8566-.2068c.0197 0 .0246-.0148.0197-.0246l-.3791-1.0289c-.0049-.0148-.0098-.0345-.0197-.0345-.0147 0-.0197.0197-.0246.0345l-.384 1.0289c-.0049.0148 0 .0295.0148.0295z" fill="#ffb300"/><path d="m6.47827 16.0099h19.04243" stroke="#000" stroke-linecap="round" stroke-miterlimit="10" stroke-width=".418"/><path d="m23.7388 14.3705c-.0492-.064-.1083-.1379-.1723-.2068-.2708-.3249-.8665-1.1323-.8665-1.1323 0-2.6141-.4677-3.10152-.9501-3.51014-.4234-.35938-1.1028-.54646-1.8265-.65969-.1969-.02954-.4135-.04431-.6646-.04431-.2412 0-.4874.01477-.7237.02462-.1969.00984-3.6037.15261-4.6966-.02954-.4775-.07877-1.1372.00985-1.5311.05908-.1821.01969-1.1618.17723-1.28-.00985-.0246-.03446-.0197-.11323-.0098-.20185.0147-.13784.0689-.30523-.0394-.45292-.1477-.20677-.3102-.42338-.3988-.42338-.0295 0-.2708.19692-.3298.26092-.0985.09846-.128.26585-.128.45292.0049.11816-.005.09354-.0148.10339-.0148.01477-.64.01477-.79754.02461 0-.03446-.00492-.19692-.11323-.34954-.06892-.09846-.128-.4283-.128-.4283s-.22646.39384-.30523.49723c-.0837.11323-.17231.23631-.22647.37415-.01969.05416-.02461.11815-.02953.17723 0 .04431-.00985.13785-.02462.15262-.11815.08861-.18708.20677-.19692.35938 0 .04431.00984.10339.02461.17231.00985.04431.02462.11323.02462.14769-.00985.00985-.02462.01477-.03446.02462-.10831.06892-.256.16246-.24616.33475.01477.256.07385.3545.15262.4923.02461.0394.04431.0788.07384.128.03447.0689.04924.1674.06893.2609.01969.133-.10339.2807-.01969.3594.11323.1083.39877.1133.52184.1133.03446 0 .16246-.005.19693-.005.04923 0 .08861.005.11815.0099.24123.0492.48246.064.71385.0837.31996.0246.62026.0492.92556.1378.5612.1625 1.1126.3939 1.6886.704.0295.0148.0591.0296.0886.0443.2117.1083.2609.0936.3594.389.0985.2953-.0837 2.5895-.1231 2.8258-.064.384-.1871.6154-.384.6892-.2658.0985-.3741.3053-.4824.5071-.0345.064-.0296.1428-.069.2117 0 0-.0886.0935-.059.1182.0295.0246.3003-.0394.3003-.0394.0935.0049-.005.0541.0837.0541.2264 0 .5021 0 .7827-.1624.1182 0 .0394.1477.1477.128.3348-.0591.3643-.32.4037-.5662.0689-.4135.0591-.4874.1034-.5218.0443-.0394.192.0246.2363-.0197.0295-.0345-.0049-.3348.0148-.6056.0246-.3889.1329-.8467.2461-1.2209l.0049-.0197c.0247-.0837.064-.1821.1034-.2904.1083-.2856.2413-.6351.2265-.9157.1181.0197.1378.0295.2068.123.0098.0148.0295.0443.0492.0739.1329.2166.1969.2757.2855.2757.0099 0 .0197 0 .0247-.0049.1427-.0345.2166-.1576.3003-.3151.0787-.1526.1624-.3151.2953-.3446.005 0 .0099-.005.0197-.005.1083 0 .3003.0985.4087.2659.2412.3692.443.1132.4627.0788.0296-.0444.2216-.3594.2659-.4333.059-.0886.0935-.0984.1083-.0984h.0049c.1182.0197.6252.6301.8074.5858.1772-.0197.3692-.6892.4775-.6892h.0148c.0246.0197.0837.1132.128.1723.1329.2068.1674.3446.2708.3446.0344 0 .0935-.0295.128-.1182.0098-.0246.0492-.123.059-.1378.005.0098.0985.3102.3151.0443 0-.0049-.0049-.0098-.0049-.0098v.0049-.0049s0 0 0-.005v.005c.0295-.069.4381.3347.6301.4923.1773.1624.325.3052.3397.315.4185.3742.9403.8419 1.0437 1.344.0591.2905.0443.6302-.0394.9453-.0196.0689-.0344.1083-.0492.1181-.0148.0099-.064.0148-.1181.0148-.0247 0-.0542 0-.0887.0049-.1427.0099-.2412.1625-.3298.2954-.0394.064-.0886.1132-.1182.1625-.0246.0443.0148.123.0444.1378.0246.0148.2855.0788.3643.0788.0246 0 .0443 0 .064-.0049.0541.0197.123.0344.1969.0344.2264 0 .5071-.0935.5858-.2511.1379-.2658.2265-.5563.32-.8369.0099-.0295.0197-.064.0296-.0935.0197-.064.0492-.128.0738-.2019.0985-.256.2659-.5317.192-.7827-.0394-.133-.1723-.261-.2609-.3791-.0739-.1034-.3643-.4726-.448-.6055.2658.2609 1.0092.64 1.1963 1.0929.0689.1575 0 .8172-.0148.9944-.0049.0837-.0098.1674-.0147.256-.0099.2708-.0887.32-.3594.3447-.2363.0246-.3446.3692-.3988.5563-.0049.0098-.0049.0197-.0098.0295l-.0296.0886.0886.0148c.0345.0049.0739.0148.1182.0197.1674.0295.4529.1378.6548.1378.2363 0 .4037-.0591.507-.1723.1379-.1477.1871-.4135.2364-.6498.0147-.0886.1132-.4037.1476-.517.2314-.7089.453-.9846.0788-1.3981zm-15.1237-3.4511c-.08369.0492-.11323-.0935-.11323-.0935-.02461-.0591-.02461-.1182.00985-.1379.064.0394.13785.0394.15754.0739.02461.0394-.00985.1329-.05416.1575z" fill="#000"/><path d="m22.6355 16.448c-.0246.0493-.1181.0591-.1476.069-.064.0295-.128.0689-.1231.1132 0 .0197-.0099.2363 0 .256.0148.0246.1034.0541.1231.0246.0147-.0197 0-.1723.0147-.2806.005-.0148.0148-.0788.0443-.0936.005.005.1133-.0443.0886-.0886z" fill="#c9cacc"/><path d="m15.0146 12.6326c.0788-.0098.192-.0295.2314 0 .0394.0296.0935.128.0935.192-.0049.0591-.2018.384-.2166.3988s-.0345.0591-.0689.0148c-.0345-.0493-.0985-.5416-.0985-.5416s-.0098-.0541.0591-.064z" fill="#c9cacc"/><path d="m23.6502 14.5379c-.1083-.1576-.384-.4382-.4923-.5711-.1477-.1772-.8123-.96-.8123-.96s-.192-1.1816-.2757-1.4474c-.0493-.1723-.197-1.4179-1.1619-2.09231.0542-.08862.6745.40369.9009.78281.4087.6941.5859 2.496.5859 2.496s.2609-2.75697-1.2012-3.34281c-1.0487-.43816-1.5705-.36924-1.5705-.36924s-.7237.43324-.2855 1.26525c.0836.1624 1.0387 1.6246 1.0978 1.7378.5415 1.0191 2.2696 2.2007 2.5846 2.5256.0148.0197.3151.2117.3348.4283.0049.0394-.4037-.2314-.3988-.1822.0542.512-.0049 1.4917-.0147 1.6-.0099.128-.0148.1477-.0936.1773-.0787.0295-.1624-.0493-.2067.0886-.0542.1477-.0345.256.1033.256.1379 0 .3447.0738.4776-.4283.1329-.5071.4184-1.4129.5071-1.7428.0246-.0837-.0394-.1674-.0788-.2215z" fill="#c9cacc"/><path d="m9.06307 8.30035s.11323.3397.11323.43324-.02954.10339-.02954.10339l-.33969.1477s.07384-.0837.11323-.19201c.03446-.11323.14277-.38893.14277-.49232z" fill="#c9cacc"/><path d="m13.1242 16.7976c-.0049.0049-.0148.0049-.0197 0l-.0197-.0295c0-.005 0-.0099.0099-.0197l.0147-.0099c.005-.0049.0148-.0049.0197 0l.0197.0296c.0049.0049 0 .0098-.0098.0197z" fill="#c9cacc"/><path d="m20.9818 16.256s-.0443-.0148-.064.0148c-.0344.0443-.0492.2067-.0492.2067s.0394.0492.1132.0197c.0739-.0295.2216-.1378.1723-.1723-.0443-.0344-.1723-.0689-.1723-.0689z" fill="#c9cacc"/><path d="m20.8533 16.1773s-.064 0-.0936.0344c-.0295.0345-.0886.1329-.0837.1723s.064.1034.0886.064c.0247-.0443.1625-.2757.0887-.2707z" fill="#c9cacc"/><path d="m8.36379 10.0332c-.07877.1182.14277.2265.20184.1625.03939-.1625-.128-.22155-.20184-.1625z" fill="#c9cacc"/><path d="m10.141 10.2449c-.1132-.1329-.19195-.35443-.1181-.39381.0738-.03938.1428.01477.1871.03938.0689.03447.0984.00985.0935-.07876-.0049-.06893-.0098-.13293-.0197-.19693-.0246-.18707-.1231-.39384-.1969-.47753-.12801-.13785-.49723-.30031-.72861-.14277-.064.04431-.11815.11815-.15754.20677-.01477.02953.02954.07384.01477.11323-.08369.20677-.21169.44307-.3643.59569-.00492.00984.51199.04923 1.24058.58583.064.0443-.0591.3052-.09844.2954-.02462-.0049.07384-.2215 0-.2609-.33477-.1871-.53169-.2117-.78276-.3003-.05908-.0197-.2363.0886-.28061.0492-.064-.0837-.256-.1772-.27569-.1822.00492.005.02954.0197.03939.1034.02461.2068-.35938 0-.03447.3299.09354.0935.18215.1624.24615.1329.10339 0 .05908.0148.06893.0394l.05415.1329c.00984.0246.02461.0246.02954-.0049l.02461-.1379c.00492-.0246.02954-.0492.05908-.0443 0 0 .4923.0099.59568.0197.09846.0099.10831.0492.10831.0492.00492.0247.0443.0837-.03939.1527-.05907.0492-.20676-.0542-.32492.0393-.11815.0936-.34953.1379-.34953.1379-.02954.0049-.05907-.0099-.06892-.0345l-.05908-.1329c-.00984-.0246-.01969-.0246-.02461.0049l-.01477.1723c-.00492.0247-.00985.0493-.01477.0493-.00985 0-.02461-.0197-.03446-.0443l-.00492-.0099c-.00985-.0246-.03446-.0295-.05416-.0098l-.02953.0344c-.0197.0197-.04431.0197-.05908-.0049l-.00985-.0197c-.01477-.0246-.03446-.0246-.04923 0l-.01969.0296c-.01477.0246-.03446.0196-.03938-.005l-.00492-.0197c-.00985-.0246-.02462-.0246-.03447-.0049-.00984.0197-.01969.0197-.02953.0099-.01477.0147-.02954.0295-.03446.0344-.01477.0148-.04923.0443-.04923.0739 0 .0295.03446.0443.20676.0787.17231.0345.96491-.2904 1.21598-.2363.29049.0591.39879-.1772.41849-.4874 0-.0098-.005-.0246-.005-.0492-.059-.0788-.1329-.1624-.192-.2314z" fill="#c9cacc"/><path d="m9.36359 9.31939s.09846-.17231.22153-.20677c.08862-.02461.18216.02462.32492.11816s.21166.24123.34956.20185c.0492-.01477-.1034.15754-.2412.10831-.03451-.00985-.23635-.34955-.42835-.34462 0 0-.128.02461-.22646.12307z" fill="#000"/><path d="m9.7229 9.15698c-.16246-.04431-.26092.06399-.26092.06399.0443-.1083.24123-.03938.32493-.00492.04923.01969.11323.12799.15754.21661-.05416-.05416-.12308-.10831-.18708-.11323-.12308-.00984-.13785.15261-.13785.15261l-.064.07876s.00984.01969.10338.01969.4283-.00492.4726-.0443c.0493-.03938-.22644-.31506-.4086-.36921zm.03447.35444c-.02954 0-.05416-.02954-.05416-.06892 0-.03446.02462-.06892.05416-.06892s.06892.02954.06892.06892-.03938.06892-.06892.06892z" fill="#000"/><path d="m12.2875 16.64s-.128.256-.128.2806c-.0049.0247.0049.0443.0197.0443.0147 0 .059.0148.0935-.0098.0295-.0246.1526-.2757.1674-.3101 0-.0099-.1034-.064-.1526-.005z" fill="#c9cacc"/><path d="m22.1333 14.7693c.064-.2265-.1477-.2511-.2215.0443-.0246.0985-.3151 1.1618-.3447 1.4375-.0049.0148.0099.0296.0197.0099.005.0984.517-1.3883.5465-1.4917z" fill="#c9cacc"/><path d="m20.4793 11.2197c0 .0049-.0148.0099-.0295.005l-.1034-.0197c-.0148-.005-.0246-.0099-.0246-.0148l.0049-.0148c0-.0049.0148-.0098.0295-.0049l.1034.0197c.0148.0049.0246.0098.0246.0148z" fill="#c9cacc"/><path d="m20.4399 11.264c0 .005-.0099.0099-.0197.0099l-.069-.0148c-.0098 0-.0197-.0098-.0147-.0148v-.0147c0-.0049.0098-.0099.0196-.0099l.069.0099c.0098 0 .0148.0098.0148.0147z" fill="#c9cacc"/><path d="m12.6915 9.00933c-.512.09846-1.2307.14277-1.6197.08861-.3101-.0443-.32-.23138-.2658-.39876-.2855.28061-.4382.1723-.4431.13784-.0098-.04431.1034 0 .1822-.07384.0787-.07385.123-.3397.059-.4677-.059-.128.005-.10338.005-.10338s.1575.01477.2314.20677c.0443-.192-.2167-.42831-.3053-.37416-.0837.05416-.256.19693-.2314.4037.0296.256.0099.384-.0689.37907-.56121-.02461-1.18645-.09846-1.53599.26093 0 0 .42339-.2757.74831-.24616.32493.02954.98458.09354 1.02888.87139 0 0-.0049.17723.0099.37906.0049.1083-.0935.0394-.0935.0886.0049.2166.1575.1822.1427.3693-.0541.763-.4037.7483-.4037.7483s.4283.059.6351-.6548c0 .4086-.0443.512-.2117.6745.3249.0197.5809-.2856.5908-.3348.0492.0788.1428.3298.384.4332-.1182-.1969-.0886-.4381-.064-.6498.0738.4775.1969.6547.4431.7581-.0985-.0984-.3003-.315-.2413-.704.0443.3299.4333.6253.4333.6253s-.1231-.197-.1576-.5514c.1674.3594.3446.3889.3446.3889s-.2756-.2905-.32-.6646c-.0049-.0049.192.256.3545.256-.1231-.1477-.32-.3594-.3446-.6302.1231.1625.2117.2659.3594.2806-.1231-.1378-.2216-.3593-.256-.63011.1378.17231.1132.23141.3741.30031-.0984-.0985-.1674-.36923-.1181-.49723.0443.08861.2166.18215.4234.21169-.064-.04431-.1723-.30031-.1576-.39877.0936.04431.2954.11323.453.09354-.0739-.04431-.1281-.27077-.1034-.32492.0443.02953.3446.02461.4086 0-.0985-.05908-.1822-.15262-.1625-.14277.0739.02461.192-.03446.3496-.05908.1673-.02462.1969-.02954.3003-.02462-.1133-.064-.7533-.12307-1.157-.02461z" fill="#c9cacc"/><path d="m17.8553 12.2043s-.3299-.0197-.3545.0788c-.0246.1034.1477.6351.1772.6991.0394.0985.1526-.1329.1526-.1329.0345-.064.1674-.3791.1674-.4185 0-.0542.0049-.2265-.1427-.2265z" fill="#c9cacc"/><path d="m19.4305 12.8443c-.0197.0099-.0393.0148-.059.0197.0147.0049.0295.0099.0443.0099.0049-.0099.0098-.0197.0147-.0296z" fill="#c9cacc"/><path d="m16.5708 12.2536s-.3249-.0197-.3544.0787c-.0246.0985.1132.5662.1378.6351.0345.0985.1034-.0492.1034-.0492.0345-.064.2954-.3939.2954-.4382 0-.0541-.0345-.2264-.1822-.2264z" fill="#c9cacc"/><path d="m18.8697 9.01914c-.1034.00492-.9551.10338-1.5261.10338-.453 0-.9354-.01969-1.1914-.00984-.0197-.00493-.0542 0-.0837.00492-.384-.01477-1.6049-.03446-1.6049-.03446-.0936-.01969-1.3293.3003-1.5114 1.68366-.1132.8517-.0591 1.1225.1378 1.5262.1133.2412.3447.6843.3348 1.0289-.0049.1428-.2609-.6055-.256-.5219.0394.8714-.1132 2.8407-.2018 3.2542-.1034.4972-.2019.2461-.32.4529-.0197.0345-.2708.4972-.2659.5022.0049.0049.128-.0148.256-.0247.1526-.0049.2757-.4135.3791-.4135.0148 0-.1132.3299-.0935.3249.1083-.0246.2806-.0738.2707.0148.0394.0098.0689-.0098.0936-.0345.0295-.0393.1723-.6744.2609-1.0043.0197-.0541.1624-.0246.2018-.0098.0788-.1575-.0443-.6745.1773-1.3982.2215-.7089.4529-1.3243.3495-1.5064-.0099-.0197-.3889.4775-.3988.4578-.0246-.059 1.2259-2.1563.9846-3.2393-.0049-.0394-.0197-.0837-.0197-.1133 0-.0098.1428.0542.325.0985.2363.0738.4381.1083.512.3791.0837.5218.3249 1.2603.8172 1.3046-.2215-.2068-.512-1.2456-.4726-1.6739.1378.6991.5612 1.7083.9157 1.664-.0739-.1132-.3643-.7483-.3643-1.147.128.3298.4283 1.0584.6547 1.0633.5957.0099.7483-.2609 1.1865-.3593.9846-.2216 1.2455.1575 1.3981.2313-.1181-.1181-.5316-.8369-.8073-1.3981-.2167-.44309.1477-.88616.7729-1.16185.1132-.05416-.7188-.04923-.9108-.04431z" fill="#c9cacc"/><path d="m19.293 12.8542s-.0344-.0295-.059-.0345c-.0099 0-.0148 0-.0197 0-.0148 0-.0197 0-.0197 0l-.0148.005.0049-.0148c0-.0099.0148-.0246.0394-.0246.0099 0 .0197 0 .0296.0049.0393.0148.0492.0542.0492.0542l.0098.0246z" fill="#000"/><path d="m19.0072 12.8c0-.0098.0147-.0246.0393-.0246.0099 0 .0197 0 .0296.0049.0049.0049.0147.0099.0147.0099l.0099.0049-.0246.0197h-.005s-.0098-.0049-.0147-.0049c-.0099 0-.0148 0-.0197 0-.0148 0-.0197 0-.0197 0l-.0147.0049z" fill="#000"/><path d="m19.0762 12.7853c.005 0 .0148.0098.0148.0098l-.0148.0098s-.0098-.0049-.0147-.0049c-.0296-.0049-.0443 0-.0443 0s.0098-.0295.059-.0147z" fill="#000"/><path d="m19.6177 16.5859c-.3495 0-.3938-.5662-.4037-.6696-.0837-.0049-.1772-.064-.2363-.1132-.0049 0-.0098-.0049-.0147-.0098 0 .0443.0049.0837.0049.128.0049.064.0148.2363.0197.2806v.0049c.0098.064.0246.2166-.1231.2954-.0443.0246-.0935.0344-.1428.0344-.0443 0-.0837-.0098-.1132-.0147-.0049 0-.0098 0-.0148-.0049h-.0246c-.0394-.005-.0886-.0099-.128-.0148h-.0098c-.0739 0-.2806.0148-.3151.0148-.0098 0-.0148 0-.0246 0-.1182 0-.2117-.0936-.2166-.0936-.0591-.0591-.064-.1477-.0099-.2215l.0148-.0197.0197-.0148c.0098-.0098.0492-.0344.0984-.0394.0444-.0295.1133-.0689.2117-.123-.0886-.1773-.4873-.7828-.1427-.9748.128-.0689.3249-.1379.512-.1822 0-.0098.0049-.0246.0098-.0344.0049-.0148.0099-.0591 0-.0985-.0541.0295-.1083.0443-.1526.0443-.0148 0-.0295 0-.0443-.0049-.1182-.0246-.2708-.1969-.2905-.2215-.0246-.0345-.128-.2167-.2215-.3939-.2511-.0098-.2757-.0197-.2954-.0246-.0246-.0099-.0541-.0197-.2166-.1526-.0542-.0443-.0837-.1083-.0738-.1723.0049-.0493.0393-.0936.0836-.1182.005 0 .005-.0049.0099-.0049.0197-.0295.0541-.0591.1132-.0689l.0148-.005h.0197c.0394 0 .0738.0148.1034.0296 0-.0197.0049-.0394.0147-.0591.0296-.0591.0936-.0935.1674-.0935.0394 0 .0837.0098.1329.0344l.005.005.0098.0049c.0148.0098.0197.0098.0197.0098.0295.0049.1034.0296.128.0394.0443.0197.0738.0394.1526.1772l.1231.128c.0591-.1329.128-.192.1526-.2166.0345-.0295.0788-.0443.128-.0591.0099-.0049.0197-.0049.0345-.0098.0197-.0148.0394-.0295.064-.0443 0-.0049.0049-.0148.0049-.0197-.0197-.0246-.0394-.0591-.0591-.0886-.0492-.0837-.0443-.1625-.0394-.2117v-.0148c.0099-.1329.1723-.2461.1773-.2461.0197-.0148.0393-.0246.059-.0296.0345-.0394.0936-.1034.133-.1427.0344-.0345.0787-.0542.123-.069.0345-.0738.1133-.1083.2265-.1083.0345 0 .1575.0099.1969.0148.0837.0148.1428.0689.1723.1329.0739.0246.1231.0936.1329.1822l.0247.0295c.0197.0197.059.0689.0738.1428.0443.0886.0394.192.0345.2412 0 .1428-.0394.2265-.0788.2757-.0049.0148-.0098.0295-.0148.0443.1379.0837.1773.2757.192.3496.0099.0443.064.2313.0936.3495.0393.1723-.0197.3348-.0296.3545l-.0098.0196-.0099.0148c-.0098.0148-.0689.0936-.0935.1231-.0443.0541-.0935.0788-.1378.0886.0147.0591.0295.1182.0393.1772.1083.1379.1674.325.1674.3939 0 .0443-.0147.0886-.0295.1231.0098.0344.0148.0738.0098.1673.0493.0493.0886.1231.128.2068.0049.0099.0099.0148.0099.0197.2067.4529-.3151.4874-.3446.4775-.0493.0394-.2708.0493-.3053.0493z" fill="#000"/><path d="m19.5838 12.7558c-.0296-.005-.1428-.0148-.1773-.0148-.1526 0-.0738.0788-.0738.0788s-.1231.0147-.1723.064c-.0493.0492-.1477.1575-.1477.1575s-.0394.0148-.0689.0295c-.0247.0148-.0985.069-.1083.128-.0099.0394-.0148.0887.0196.1428.0296.0542.0837.1231.0837.1231s.0148.0246 0 .0541c-.0147.0296-.0344.1084-.0344.1084s-.0739.0344-.0985.059-.128.0394-.1526.064c-.0246.0197-.0935.0788-.1379.2413-.0541.0492-.0836.1083-.0836.1083l-.2757-.2757s-.0345-.1133-.0887-.1329c-.0196-.005-.1378-.0493-.1673-.0591-.1034-.0394-.1182-.0099-.0985.0197.0197.0295.0837.059.0985.0689.0147.0098.0196.1181-.2364.0788-.0098-.005-.0836-.0443-.123-.064-.1133-.0345-.0936.0689-.069.0886.0247.0197.1379.1329.1625.1427.0246.0099.3397.0197.3397.0197s.2166.4087.2462.448c.0295.0394.1526.1576.2018.1674.0492.0099.1969-.0443.2659-.1723l.0295.5317s-.4972.1132-.5859.1871c-.187.1477.1428.7089.256.8615.0345.0493.0099.0591.0099.0591s-.3495.192-.3495.2068c-.0345-.0099-.0591.0098-.0591.0098s-.0148.0246-.005.0345c.0099.0098.069.0541.1133.0492s.2904-.0197.3446-.0148c.0591.005.128.0099.1674.0148.0345.0049.1132.0345.1772 0s.0542-.0935.0443-.1526c-.0098-.0591-.0246-.2905-.0246-.2905s-.0049-.2658-.0098-.3003c.0689.0099.1772.0345.1969.0197.0345-.0197.0689.0394.0689.0394s.1132.0886.1674.0788c.0492-.0099.0591-.0148.0837-.0886.0197-.0296.0345-.0197.0345.0492 0 .0738-.0345.7237.2757.7089.192-.0098.3298-.0985.3298-.0985s.0542.0739.128.0493c.1969-.0689.0886-.2462.0739-.2757-.0148-.0296-.1034-.2216-.1625-.2265.0049-.0837-.0099-.2067-.0246-.2412.0098-.0197.0443-.0886.0443-.1231 0-.0344-.0542-.2166-.1625-.3298-.0246-.1723-.1083-.4333-.1083-.4333s.1132.0394.1477.0443c.0345.005.064-.0098.0837-.0393.0246-.0296.0886-.1133.0886-.1133s.0492-.1329.0197-.2658-.0935-.3496-.0935-.3496-.0296-.2116-.133-.2609c-.1033-.0492-.128-.0443-.128-.0443s-.0344-.0443-.0098-.0541c.0246-.0099.064-.0394.0738-.0542.0099-.0148.0296-.0886.0296-.0886s.064-.0295.064-.2068c0 0 .0197-.1231-.0246-.1821 0-.0542-.0394-.0886-.0394-.0886l-.0689-.0739s.0098-.0935-.0345-.1034c-.0443-.0098-.0739-.0197-.0739-.0197s.0148-.0886-.059-.0984z" fill="#c9cacc"/><path d="m19.0225 13.0807c.0345 0 .0591.0541.0591.0689 0 .0099-.0049.0099-.0246.0049-.0148-.0049-.0296-.0393-.064-.0344-.0345 0-.0345.0246-.0493.0246-.0098 0 .0443-.0591.0788-.064z" fill="#000"/><path d="m19.2881 12.9921c.0345.0147.0493.0492.0493.0492s-.0345-.0295-.064-.0345c-.0296-.0049-.0443 0-.0443 0s.0049-.0344.059-.0147z" fill="#000"/><path d="m19.6378 13.2727c-.0049-.0099-.0098-.0197-.0197-.0197h-.0049l-.0049.0049c-.0148.0197-.0296.0246-.0493.0246-.0246 0-.0394-.0147-.0394-.0147s-.0049.0492.0493.0492c.0394 0 .0689-.0394.0689-.0394l.0049-.0049z" fill="#000"/><path d="m19.8001 14.9514-.0345-.1477-.0147-.0541-.2659-.4973-.0098-.0197c-.0099-.0098-.0148-.0197-.0394-.0393-.0049-.005 0-.0148.0049-.0148.0936.0098.256-.0345.2905-.0492.0098.0147.2658.315.2855.3052.0197-.0148-.2609-.384-.2609-.384s.0246-.1526.0197-.1723c-.0148-.0345-.0886-.0936-.1182-.0936h-.0049c-.0049-.0098-.0098-.0197-.0098-.0197l-.005-.0049c-.0197-.0344-.0344-.0591-.0492-.0787.0492.0196.1034.0344.1083.0344h.0296l.0295-.0394-.2166-.0738c-.0197-.0049-.0394-.0492-.0394-.0837 0-.0246.1477-.1723.1231-.1822-.0591-.0197-.197.128-.2019.1723-.0049.0296.0148.0936.0394.1182-.0098.0148-.0148.0246-.0148.0394-.2707.0197-.3643.1132-.3791.1624 0 0 .2167-.0836.2905-.0984-.0492.0492.0296.1378.0296.1378-.0099-.0049-.0345-.0197-.064 0-.0493.0394 0 .1231.0098.1428-.0197 0-.0345.0049-.0443.0148-.0246.0295.0246.0935.0591.1329.0147.0197-.0591.0148-.2905-.1575.0049.1673.2806.2658.3643.2658.0197.0197.3693.6597.3791.6843zm-.4529-.8812c.0147-.0148.059.0246.0689.0147.0098-.0098-.0886-.128-.0591-.1526.0394-.0246.0837.064.1034.0493.0197-.0148.0148-.0247.0099-.0394-.005-.0049-.0493-.0886-.0493-.0886 0-.005-.0492-.0788-.0197-.0936.0345-.0098.064.0443.0739.0542 0 0 .064.1083.0886.0984.0246-.0147-.0443-.1772-.0443-.1772-.0049-.0148-.0345-.0541-.0197-.0689.0148-.0099.0295-.0099.0738.0443.005.0049.1133.2068.128.1969 0 0 0-.0394-.0147-.0738.0197.0147.064.0295.064.059 0 .0099-.0049.0985-.0197.1182-.0493.0591-.2757.1378-.3496.1231-.0098.0049-.0541-.0394-.0344-.064z" fill="#000"/><path d="m18.7121 14.9268-.0394.0246-.0591.0345c.0099.0246.2314.5661.4628.7385l.0049-.0197c-.3003-.4136-.3692-.7779-.3692-.7779z" fill="#000"/><path d="m19.5535 15.2074c-.1378.0197-.2314.4677-.2314.4677.0345-.0443.0345.0295.0345.0295s.1083-.384.2068-.4233c.0985-.0394.2412-.0247.2412-.0247s-.1132-.0738-.2511-.0492z" fill="#000"/><path d="m18.5008 14.4935c.0148-.0098-.0394-.4381-.0394-.4381l-.0197.0197-.0344-.0197c-.0148.0394.0788.4529.0935.4381z" fill="#000"/><path d="m18.6034 14.1539.0345.3496.0591-.0345-.0148-.256s.0295.0148.0394.0049c.0098-.0098-.0492-.064-.0492-.128 0-.0443.0492-.1083.0393-.1132-.0098-.0049-.0295.0148-.0295.0148.0049-.0444.0049-.0887.0098-.1182.005-.0394.0591-.128.0591-.128-.1231.0443-.1477.1871-.1477.1871l-.0098.1083s-.0099.0344-.0099.0591c0 .0246.0197.0541.0197.0541z" fill="#000"/><path d="m20.0021 15.8376s-.0049.4234-.0935.5317h.0492c.0197-.0148.0542-.1526.069-.2019.0147-.059.0098-.2904.0098-.2904z" fill="#000"/><path d="m18.4562 15.2567c-.0148.0886.3495.4283.3495.4283l.0985-.0493c0 .005-.3446-.251-.448-.379z" fill="#000"/><path d="m19.4606 12.9133c.0049.0049.0049.0344 0 .0591 0 0-.0099.0443.0443.0738.0394.0197.0591.0492.0738.0689.0049.0049.0049.0099.0099.0148.0098.0098.0147.0197.0049.0492-.0049.0099-.0099.0197-.0148.0246-.0049.005-.0098.0148-.0098.0247v.0049c.0049.0147.0147.0443.0394.0541.0049.005.0197.0246.0049.0689l-.0049.0148c-.0148.0492 0 .1674.0246.1625.0295-.0099.0246-.1133.0344-.1231.0148-.0246.0296-.0886.0246-.1181 0-.0099-.0049-.0197-.0147-.0247-.0246-.0147-.0345-.0295-.0345-.0344 0 0 .0049-.0049.0049-.0099.005-.0049.0148-.0147.0197-.0295.0099-.0246.005-.0542-.0049-.0788-.0098-.0197-.0591-.0837-.0935-.0935-.0246-.0099-.0443-.0246-.0443-.0394 0-.0049 0-.0148 0-.0295.0049-.0247.0049-.0443-.005-.0591-.0886-.1231-.2166-.1083-.2166-.1083l-.059.0591c.0049-.005.1083-.0542.2166.0689z" fill="#000"/><path d="m18.7564 13.7157c.0148.0099.1034.0247.2609.1231.0246-.0394-.1427-.1329-.2166-.1575-.0443 0-.0492.0098-.0492.0147-.005.005-.005.0099.0049.0197z" fill="#000"/><path d="m18.2836 16.1231c-.1378-.187-.4332-.1969-.5316-.0984-.005-.0049-.0099-.0099-.0148-.0148-.0394-.0345-.1625-.1034-.2215-.1378-.0887-.0985-.128-.1182-.1477-.128-.0739-.0443-.2167-.0936-.3397-.1231-.0246-.2609-.0443-.32-.0591-.3496 0-.0098.0295-.2363.0246-.384.0788.0148.1822.0296.2609.0296.0443 0 .0837-.0049.1133-.0148.0787-.0197.2117-.0689.2658-.1526l.0148-.0197.0049-.0197c.0049-.0197.0394-.1871-.0591-.3495-.0689-.1083-.2658-.3151-.3741-.4185.0049-.0591.0098-.1182.0098-.1231.0049-.0492-.0098-.0984-.0689-.1575-.0148-.0197-.1477-.1674-.1871-.1871-.0344-.0197-.0935-.0394-.1378-.0394-.0148 0-.0345.0049-.0493.0049-.128.0296-.1132.2216-.1083.2413-.0147-.0099-.0344-.0197-.0492-.0246-.0443-.0493-.1083-.0788-.1723-.0887-.0345-.0246-.0788-.0492-.1428-.0492-.0049 0-.0098 0-.0147 0-.0837.0049-.0837.0148-.1231.0443-.0591.0148-.1182.0493-.1576.1034-.0344.0197-.0787.0542-.1132.1182-.0394.0295-.0788.0787-.1132.1673l-.0099.0296c-.0295.0788-.064.1624-.0393.2511 0 0 0 .0049.0049.0098-.0689.0197-.1723.0591-.2265.1674-.0246.0492-.0492.1132-.0738.1723-.0296 0-.3889.0443-.3791.2166 0 .0542.0295.1083.0788.1379-.0345.059-.0345.1181-.005.1674.0247.0443.0591.0787.1034.0935.0148.0443.0345.0886.064.128.0345.0443.0739.0788.1083.1034-.0689.0197-.1378.0541-.2067.1034-.0985.0689-.2462.2166-.1182.443.0197.0345.0837.1034.3988.4136-.0099.0148-.256.4677.1477.4874.0935.1575.4086-.0689.4184-.0739.0246.005.448.005.3348-.32.0295-.0049.1772-.0443.1822-.0443.0492.0197.1526.064.2116.0689.0296 0 .0739.005.1083.005.0444 0 .1477 0 .197-.0099.0147 0 .0295-.0049.0443-.0098.0443.0689.1132.1575.2018.2117.1083.059.3496.1674.4332.2067.0148.0148.1871.1576.3004.1576.3593 0 .2461-.3249.256-.3446.0049-.0985.059-.4677-.0444-.6007z" fill="#000"/><path d="m17.0282 14.3951c-.0148-.0197-.1526-.0542-.2117-.0591-.0197-.0197-.0837-.0394-.0837-.0394s.0886-.064.0837-.1132c-.0591-.3102-.1674-.3348-.1674-.3348s-.0344-.0689-.123-.0837c-.0148-.0689-.1428-.0787-.1428-.0787s-.0345-.0443-.0837-.0394c-.0394.0049-.0492.0197-.0689.0394 0 0-.0788-.0148-.128.0787 0 0-.0591.0148-.0985.1034 0 0-.0443.0099-.0886.1182-.0295.0738-.0591.1477-.0492.2018.0147.0542.059.1133.059.1133s-.0443.0344-.0886.0492c-.0492.0148-.1624.0246-.2067.1132-.0493.0936-.1034.2708-.1034.2708s-.0296-.0148-.064-.0197c-.0296-.0049-.1674.0049-.197.0246-.0147.0098-.0787.0197-.0738.0394.0049.064.1083.0443.1083.0443l-.0246.1428s-.0443.0443-.0345.064c.0099.0197.0345.0295.0443.0246.0197-.0049.0443-.0394.0443-.0394s0 .1378.0591.2166.1329.1034.1329.1034.0444.0197.0837 0c.0394-.0148.1182-.0739.1231-.0985s.0246-.0984.0246-.0984.0345-.1231.0493-.128c.0147-.005.0295.0147.0295.0147v.2511s-.0985.1871-.0985.2363c-.0541.0049-.2806-.0197-.4726.1231-.1624.1083-.1034.2117-.0738.2609.0295.0542.5169.5219.5317.5416-.005.0147.0098.0393-.0148.0393h-.0542s-.0738-.0295-.0886 0c-.0295.069.0493.064.0493.0788s-.064-.0098-.0739.0296c-.0148.0443 0 .0886.0345.128.0197.0246.0689.0147.0837.0196.0147.005.0197.0296.059.0394.0837.0345.2757-.1181.3004-.1181.0935.0443.1969-.0394.2067-.0886.0049-.0542 0-.0788-.0197-.1182s-.0787-.1034-.0787-.1034.0738-.0246.0886-.0295c0 0 .0098-.0099.0344.0049.0247.0099.133.0345.1625.0295.0345 0 .1526-.059.1723-.0492.0197.0099.1378.0591.1822.064.0443.0049.2166.0049.2609-.0049.0492-.0099.1427-.0394.1427-.0394s.0788.1871.2019.256.4431.2117.4431.2117.128.1329.2166.1329c.0837 0 .1083-.0738.1083-.0886 0-.0197-.0049-.1083.0148-.1575.0147-.0493.0344-.197.0344-.2659.0049-.0689.0296-.2609-.1575-.2904-.0296-.005-.0936-.0148-.1034-.0148-.0246 0-.0148.064-.0246.0394-.0099-.0296-.0394-.0345-.0542-.0296-.0344.0148-.0492.0443-.0492.0591 0 .0296.0148.1034.0148.1034s-.1477-.1182-.192-.1526c-.0394-.0345-.2216-.1379-.2216-.1379s-.0984-.1033-.128-.1132c-.0147-.0197-.2707-.1329-.4086-.1329 0-.1034-.0098-.3446-.0689-.4628 0-.0344.0394-.3741.0148-.4628-.0099-.0393.0492-.0689.0837-.0689.0295 0 .32.069.3987.0345 0 0 .1526-.0394.1871-.0936 0 0 .0295-.1279-.0443-.2412-.0739-.1181-.3348-.384-.3988-.4381.0099-.069.0148-.1871.0148-.1871s0-.0246-.0148-.0443c-.0197-.0197-.1378-.1526-.1526-.1674s-.0689-.0295-.0886-.0246-.0148.0541 0 .064c.0148.0148.0492.0443.0492.0443l.0197.0541s-.0246.0148-.0295.0247c-.0049.0098-.0049.0689.0049.0837.0098.0098.0394.0196.0394.0196s-.0246.0591-.0542.0591c-.0246-.0295-.059-.128-.0935-.0984-.0148.0147-.0246.0443-.0148.0689.0049.0246.0493.1477.0739.1723.0246.0197.0394.0345.0394.0345s.1969.2412.2018.2855z" fill="#c9cacc"/><g fill="#000"><path d="m15.4682 15.6258c.2363-.0246.6597.6991.6745.7139.0147.0147.0393-.0197.0393-.0197-.0196-.0246-.3889-.7975-.7138-.6942z"/><path d="m15.433 14.8628c.0394-.0049.1083-.0837.0984-.0886-.0098-.0049-.0443.0492-.1083.0492-.0197 0-.0443-.0049-.0689-.0098h-.0049c-.0099.0148-.064.0246-.064.0246l.0049.0345.0542-.0148c.0098-.0049.0492.0098.0886.0049z"/><path d="m15.7882 14.4246c-.0492.0049.0049.6696.0049.6696l.0492-.069c-.0049-.0393-.0147-.2313-.0147-.2609.0197.0099.2461-.0344.2953-.1231 0 0-.1575.0296-.1969.0197-.0689-.0098-.0886-.0443-.0935-.064.0049 0-.0246-.1723-.0443-.1723z"/><path d="m15.7587 15.4733-.0443.0345c.32.1723.5169.7975.5218.8073v.005l.1034.0344s-.2462-.7335-.5809-.8812z"/><path d="m16.5214 16.3151c.0147.0197.0886-.0148.0886-.0148v-.0049c0-.0049-.0099-.3052.2363-.5366-.0049-.005-.2708.0492-.3249.5563z"/><path d="m17.8361 16.2609-.0591-.0394s.0296.1379.0246.1969c0 .0099-.0049.0148-.0098.0148 0 .0049-.0049.0049-.0049.0049-.0247.0247-.005.1182-.005.1182s.0247-.0542.0542-.0837c0-.0049.0049-.0049.0099-.0098.0147-.0148.0147-.0197.0098-.0739-.0049-.0197-.0197-.128-.0197-.128z"/><path d="m16.8756 14.4197c-.0098 0-.0344.1625-.0344.1822 0 .0049-.005.1083-.1231.0886-.1182-.0197-.1625-.0394-.1625-.0394.0394.0837.2363.1231.2806.1871.0099.0148.0197.0886.0197.0985h.0394v-.133l.0394-.0098c-.0197-.2806-.0492-.3791-.0591-.3742z"/><path d="m16.0879 14.2967c-.0689 0-.1723.0098-.1772.0098l-.1182.0246.0345.0246s.1526-.0295.256-.0295c.0148 0 .0295 0 .0394.0049.0886.0197.192.0542.192.0394s-.1231-.064-.1822-.0738c-.0049 0-.0246 0-.0443 0z"/><path d="m16.8464 14.341.0099-.0049.0049-.0049.0049-.005-.0049-.0098-.0492-.0296c-.005 0-.2265 0-.2265 0-.0542 0-.2265.069-.2166.0837.0098.0148.1378-.0393.2215-.0492.0837-.0098.2462.0197.256.0197z"/><path d="m16.6642 13.9126c.0443-.0492-.0394-.0984-.0443-.1083 0 0 .059.0788.0098.0542-.0394-.064-.2018-.1132-.2117-.1182-.0098-.0098.0197-.0393.1083.0296.0049-.0099-.0492-.064-.128-.0591 0-.0098-.0098-.0246-.0148-.0295-.0049 0-.0098 0-.0049 0 .0049.0098.0197.0246.0049.0295-.0147 0-.0246-.0246-.0295-.0295-.0098-.0148-.0443.0049-.0246.0246.0049.0049.0148.0098.0246.0147.0099.005.0049.0099-.0049.005-.0148-.005-.0246-.005-.0443-.005s-.0345.005-.0493.0099c-.0049 0-.0147 0-.0049-.0099.0049-.0049.0148-.0098.0246-.0147.0296-.0197-.0197-.0591-.0295-.0049-.0049.0098-.0098.0147-.0148.0196-.0246 0 0-.0344 0-.0344l-.0049.0049c-.0098.0049-.0148.0148-.0197.0246-.0049 0-.0985.0049-.1083.0542.0689-.0493.1034-.0443.0985-.0296 0 .0099-.0788.0542-.1133.0837-.0246.0197-.064.064-.0689.069-.0148 0-.0148-.0247 0-.0591-.0443.0394-.0345.0738-.0246.0935-.0197.0492-.0148.1132.0098.1674.0247.0443.1723.1674.1822.1575.0148-.0098-.1526-.1526-.1625-.2166-.0246-.1477.1723-.2806.2363-.2855.005 0 .0099.0197.0493.0148.0443 0 .0492-.0148.0492-.0148.0542-.0049.2954.0837.2708.2658-.0099.0591-.0296.1231-.0197.133.0098.0049.0197-.0247.0443-.0739.0394-.0541.0394-.1181.0148-.1625z"/><path d="m17.3039 14.72c-.0295-.0344-.2904-.3495-.2954-.3495 0-.0049-.0098-.0148-.0197-.0148-.0049 0-.0393 0-.0393.0099.0541.0935.1772.2363.2658.3101.0443.0345.0738.0542.0886.0443z"/><path d="m15.6897 16.4234c.0148.0147.0345.0492.0345.0492s.0295-.0788.0886-.1083c.0541-.0295.1526-.0738.192-.0738-.1526-.0444-.3053.0738-.3151.1329z"/><path d="m15.6102 15.1435c.0295 0 .0394-.0296.0394-.0591l.0049-.0049s.0295-.0247.0492-.0837c.0148.0738.0492.2264.0246.2658l-.0443.0443.0443-.0246c.0197-.0049.0443-.0394.0394-.0935-.0049-.0296-.0492-.2708-.0492-.2708v-.0098c0-.0296-.0099-.0591-.0296-.0837-.0295-.0394-.0738-.0591-.1083-.064 0 0 .1231.0837.1083.1723-.0147.0837-.0295.0886-.0295.0935l-.0148-.0197v.0492c-.0049.0247-.0098.0345-.0246.0345-.0492 0-.0837.064-.1329.0492-.0492-.0147-.0738-.0541-.1034-.0787-.0295-.0197.0148-.064.0148-.064s0-.0148-.0148-.0246c-.0148-.0099-.0344.0443-.0344.0443s-.0296.0738.0098.0984c.0689.0443.0492.0443.1231.0689.0738.0296.0689-.0393.128-.0393z"/><path d="m18.9826 12.8493c-.0542 0-.1182-.0345-.1379-.1231-.0049-.0197-.0541-.1231-.0886-.2166-.2264-.5268-.2067-.3348-.187-.4185.0393-.1526.2461-.1674.3987-.1674.0345 0 .064 0 .0739.005.0738 0 .1378.0295.192.0787.0837.0837.1033.2068.1033.2609 0 .005-.1132.3447-.1673.448v.005c-.0936.123-.1625.128-.1871.128z"/></g><path d="m19.0324 12.037s-.3299-.0197-.3545.0787c-.0246.0985.2068.4825.2806.5908.0493.0738.1034-.0492.1034-.0492.0345-.064.1526-.3496.1526-.3939.005-.059-.0344-.2313-.1821-.2264z" fill="#c9cacc"/><path d="m9.71783 8.77785s.91567.05908 1.07327 1.08801c.0492-.192-.1576-.81724-.4185-.96985-.0295-.01477-.1428-.07385-.0591-.25601-.3052-.04431-.59567.13785-.59567.13785z" fill="#000"/><path d="m14.0791 9.19146s.5563-.21169.6892.68429c.0591-.32984-.0147-.71875-.2412-.8369-.2215-.11323-.448.15261-.448.15261z" fill="#000"/><path d="m11.4506 10.1514s.0541.1871.1132.2265c.0591.0344.2166-.1969.2166-.1969s-.1083.2806-.2018.3495c-.0788-.0542-.1083-.128-.128-.3791z" fill="#000"/><path d="m11.6769 10.3631s.0886.187.1477.2215c.059.0345.1969-.1871.1969-.1871s-.1231.2856-.1871.3397c-.0541-.0443-.1674-.1132-.1575-.3741z" fill="#000"/><path d="m11.1552 10.6831s.1083.2018.1772.2264c.1133.0444.1182-.251.1182-.251s.0492.3249-.0739.4332c-.1083-.0542-.1624-.0985-.2215-.4086z" fill="#000"/><path d="m11.4313 10.5649s.059.1773.1132.2216.1723-.2757.1723-.2757-.0394.315-.128.4677c-.0492-.064-.1477-.1625-.1575-.4136z" fill="#000"/><path d="m11.6625 10.7077c0 .0099.1083.1674.1723.197.0689.0295.1083-.2413.1083-.2413s.0197.3102-.0591.3988c-.0492-.0345-.2018-.1132-.2215-.3545z" fill="#000"/><path d="m11.7214 9.95947s.1034.23633.1723.27573c.0689.0344.1723-.2216.1723-.2216s-.0542.2757-.1772.3643c-.0837-.0738-.1083-.123-.1674-.41843z" fill="#000"/><path d="m11.5438 9.75266s.064.17722.123.20676c.0591.02953.1625-.20676.1625-.20676s-.0591.30524-.1575.39874c-.0591-.0492-.0887-.1329-.128-.39874z" fill="#000"/><path d="m11.9086 9.68869s.0541.15262.1083.18708c.0492.03446.128-.10339.128-.10339s-.0296.21169-.128.24122c-.0394-.02953-.0837-.09845-.1083-.32491z" fill="#000"/><path d="m12.1844 9.51144s.0296.14277.0739.17724c.0393.02953.1181-.10339.1181-.10339s-.0098.16246-.1231.23139c-.0393-.04924-.0886-.11324-.0689-.30524z" fill="#000"/><path d="m12.4448 9.29977s.0296.14277.0739.17231.1181-.10338.1181-.10338-.0147.19692-.1181.21661c.0098.02462-.0936-.1083-.0739-.28554z" fill="#000"/><path d="m11.2141 10.3336s.0936.1674.1379.1723.128-.1723.128-.1723-.0394.2412-.128.2856c-.0394-.0444-.1182-.1231-.1379-.2856z" fill="#000"/><path d="m11.7806 9.5311s.0394.14276.0837.16737c.0443.02954.1133-.1083.1133-.1083s-.0247.20184-.0985.26091c-.0492-.03938-.1083-.11322-.0985-.31998z" fill="#000"/><path d="m15.8815 11.7613c-.1526-.0541-.3446-.3741-.4037-.512-.059-.1378-.1624-.5464-.0984-.6941.0344.1477.1231.4627.1871.6006.1033.2117.2313.4874.315.6055z" fill="#c9cacc"/><path d="m19.2138 15.9016c-.0295-.0591-.1772-.1182-.2412-.128-.0591-.0099-.0739-.0099-.0788.0492-.0049.0492-.0098.1034 0 .1526.0148.0886.0246.064.1034.069.0591.0049.1181.0147.1772.0098s.0689-.0049.0689-.0591c.005-.0394.0197-.0837-.0295-.0935z" fill="#000"/><path d="m17.5997 29.5385v-.4726h-.1773v-.064h.4283v.064h-.1772v.4726z" fill="#000"/><path d="m17.92 29.5385v-.5366h.1084l.128.379c.0098.0345.0196.064.0246.0788.0049-.0197.0147-.0492.0295-.0886l.128-.3742h.0935v.5416h-.0689v-.448l-.1575.448h-.064l-.1576-.4579v.4579z" fill="#000"/></svg>