<svg fill="none" height="32" viewBox="0 0 32 32" width="32" xmlns="http://www.w3.org/2000/svg" xmlns:xlink="http://www.w3.org/1999/xlink"><linearGradient id="a" gradientUnits="userSpaceOnUse" x1="2.8957" x2="29.1532" y1="25.1786" y2="6.79292"><stop offset="0" stop-color="#c80069"/><stop offset=".5" stop-color="#0183f3"/><stop offset="1" stop-color="#0ae2ff"/></linearGradient><clipPath id="b"><path d="m0 0h32v32h-32z"/></clipPath><g clip-path="url(#b)"><path d="m31.743 12.7589c-.4918-2.3734-1.5172-4.6037-2.9986-6.52213-1.4813-1.91843-3.3798-3.47464-5.5516-4.55079-1.3577-.65928-2.7915-1.149062-4.2688-1.458303-.3093-.04944-.6929-.11123-.8662-.1360005-1.3171-.1133431-2.6411-.1216025-3.9595-.0247-.3713.0494305-.9776.1606605-1.324.2348005-.3589.07415-.693.1483-.7425.1483-1.6793.498671-3.28834 1.208793-4.78853 2.113303-2.71915 1.81061-4.83489 4.39282-6.07543 7.41493-.460246 1.12399-.788283 2.29769-.977508 3.49739-.0495.3337-.1113402.8033-.1361102 1.0381-.0764582 1.0286-.0723222 2.0616.01237 3.0895.02474.2348.0866102.5932.1113602.8033.525552 3.4626 2.178218 6.6552 4.701998 9.0833.32172.309.7053.6674.85379.8157 1.02449.808 2.12707 1.5118 3.29137 2.1009 1.10109.5259 2.25389.9359 3.43989 1.2234.1856.0371.4825.0865.6558.1236 1.6481.2732 3.3259.319 4.9865.1359 4.1418-.5462 7.9067-2.6879 10.4928-5.969 1.4228-1.8011 2.4514-3.881 3.0192-6.105.4591-2.3262.5009-4.7156.1237-7.0565zm-26.30627 8.0205c-.95739-.8476-1.60232-1.9922-1.8313-3.2502-.10732-1.0892-.10317-2.1866.01238-3.2749.0495-.2349.11136-.618.14848-.8528.38212-1.6918 1.10178-3.289 2.11588-4.69608 1.2177-1.74094 2.87984-3.12361 4.81333-4.00407.9652-.46961 1.1136-.519.9775-.2966-.0495.08652-.1856.2966-.297.46962-1.2081 1.9188-1.8869 4.12316-1.96739 6.38923l-.01237.6426-.829.4325c-1.90554 1.001-3.55123 2.62-3.88531 3.8187-.24215.6765-.22285 1.4191.05412 2.0821.27698.663.79165 1.1986 1.44308 1.5018.40572.1739.84818.2445 1.28785.2056s.86286-.1861 1.23175-.4285c.3689-.2423.67201-.5723.88226-.9604s.32108-.8222.3226-1.2636c.00254-.3557-.06474-.7084-.198-1.0381-.099-.2101-.17323-.3831-.13611-.3831.08032-.0181.15896-.0429.2351-.0742.13611-.0494.24752.1113.39602.5932.6115 1.6617 1.48 3.2172 2.5737 4.6096.2227.2349.2103.2472-.2475.4449-.6545.2417-1.3296.4237-2.0169.5438-.78081.0905-1.56924.0946-2.35098.0124-.18117-.0592-.36764-.1005-.55681-.1236-.77906-.2409-1.51135-.6129-2.16538-1.0999zm17.84277 5.3882c-1.7124 1.2126-3.697 1.985-5.7785 2.2492-1.0293.0865-2.0641.0865-3.0934 0-2.343-.3347-4.54818-1.3097-6.37241-2.8177 0-.0124.54443-.0247 1.20023-.0247 2.00348.0053 3.97968-.4649 5.76608-1.3718l.8414-.4078.6435.4078c1.0877.7319 2.3059 1.2479 3.5883 1.5201.2598.0371.5568.0741.6682.0865.6512-.0073 1.2961-.1286 1.9055-.3584.3705-.1807.6957-.4423.9517-.7653.2561-.323.4364-.6993.5278-1.1013.0914-.4019.0916-.8192.0004-1.2212-.0911-.402-.2713-.7784-.5271-1.1016-.2359-.2905-.5306-.5279-.8646-.6966s-.6999-.265-1.0737-.2825-.7471.0442-1.0954.1809c-.3484.1368-.6639.3456-.9259.6128-.73.6921-1.0022.5438-.3836-.2225.2599-.3336.5074-.6179.5445-.655.8584-1.1531 1.5653-2.4115 2.1035-3.7445.0866-.2472.198-.4573.2475-.4573.3377.2609.6561.5459.9527.8527.7324.6216 1.3249 1.3911 1.7387 2.258.4137.8669.6392 1.8115.6618 2.7718.0049.842-.1953 1.6724-.5834 2.4196s-.9523 1.3886-1.6438 1.8688zm-10.035-11.765.4578-.1236c.8175-.197 1.6611-.2637 2.4994-.1977.6557.0071 1.3097.0691 1.955.1853.7548.1978.7548.0866.0743 1.7302-.4892.9908-1.1003 1.9166-1.8189 2.7559l-.4331.4572-.4949-.5684c-.8068-1.014-1.4574-2.1428-1.9303-3.3491zm15.0834 3.6951c-.1903-.249-.3522-.5184-.4826-.8033-.9843-1.7965-2.3897-3.3274-4.0957-4.4613l-.8414-.5685v-1.0628c.1126-1.57513-.2174-3.15034-.9527-4.54782-.3749-.65276-.9762-1.14537-1.69-1.38451-.7138-.23915-1.4905-.20823-2.183.0869-.5618.30567-1.0124.7816-1.2868 1.3594-.19.6044-.2156 1.24851-.0743 1.8661.1859.50671.5131.9495.943 1.27587.4298.32636.9443.52266 1.4823.56546.0742.0124.1485.1236.1485.2472 0 .1854-.0619.2348-.2723.1854-1.0937-.2354-2.2097-.3514-3.3285-.346-.8764-.0073-1.7513.0756-2.6108.2471-.2846.1854.1732-1.81661.6682-2.89178.3462-.84737.8784-1.60607 1.5574-2.22.6789-.61393 1.4872-1.06738 2.365-1.32681.8812-.22267 1.8039-.22267 2.6851 0 .5202.17174 1.0252.3867 1.5096.64263 1.7427.92959 3.2435 2.25432 4.3823 3.86811 1.1388 1.61375 1.8839 3.47175 2.1757 5.42525.1411 1.2797.1078 2.5726-.099 3.8434z" fill="url(#a)"/></g></svg>