<svg xmlns="http://www.w3.org/2000/svg" width="32" height="32" fill="none"><defs><linearGradient id="ata__a" x1="25" x2="27.161" y1="20" y2="7.923" gradientUnits="userSpaceOnUse"><stop stop-color="#F2C31D"/><stop offset="1" stop-color="#A82A25"/></linearGradient><linearGradient id="ata__b" x1="12" x2="6.5" y1="9" y2="19" gradientUnits="userSpaceOnUse"><stop stop-color="#F2C31D"/><stop offset="1" stop-color="#A82A25"/></linearGradient><linearGradient id="ata__c" x1="8" x2="24" y1="18" y2="24" gradientUnits="userSpaceOnUse"><stop stop-color="#F2C31D"/><stop offset="1" stop-color="#A82A25"/></linearGradient></defs><path fill="#fff" d="M16 32c8.837 0 16-7.163 16-16S24.837 0 16 0 0 7.163 0 16s7.163 16 16 16Z"/><path fill="url(#ata__a)" d="M27.995 18.797a6.7 6.7 0 0 0-.086-.913 7.635 7.635 0 0 0-.301-1.233 32.69 32.69 0 0 0-.634-1.463c-.08-.144-3.72-6.42-4.189-7.108a6.182 6.182 0 0 0-.97-1.146 6.792 6.792 0 0 0-2.11-.15 6.681 6.681 0 0 0-3.526 1.371c-.491.41-.938.871-1.333 1.375a.123.123 0 0 0-.026.11c.18-.107.328-.26.518-.356a2.005 2.005 0 0 1 2.604.698c.419.68 5.246 8.658 5.434 9.051a.31.31 0 0 1 .058.15c.093.138.164.29.211.451.135.328.238.668.309 1.015.105.506.15 1.022.134 1.538-.01.387-.052.773-.126 1.153a19.5 19.5 0 0 1-.25.922c-.074.24-.167.473-.279.697a8.66 8.66 0 0 1-.563.894 4.038 4.038 0 0 1-.429.586c-.209.24-.44.46-.692.657-.051.036-.113.064-.141.127a.991.991 0 0 0 .101-.014 7.612 7.612 0 0 0 1.896-.72c.347-.172.674-.382.976-.626.036-.031.714-.562.968-.815a9.606 9.606 0 0 0 1.118-1.382c.176-.254.33-.524.46-.805.076-.16.15-.322.223-.483.014-.03.157-.405.169-.436.308-.84.47-1.727.48-2.621.001-.042-.004-.464-.004-.524Z"/><path fill="url(#ata__b)" d="M19.128 5.155a8.21 8.21 0 0 0-2.28-.558 7.639 7.639 0 0 0-1.627-.005c-.036.004-.49.055-.601.075-.204.036-.405.086-.607.129a9.554 9.554 0 0 0-1.142.357c-.487.214-.958.46-1.412.738a8.69 8.69 0 0 0-1.48 1.245 25.675 25.675 0 0 0-2.198 3.356l-.822 1.402c-.607 1.03-1.213 2.06-1.812 3.095a6.145 6.145 0 0 0-.616 1.314c.011.016.02.033.026.052.105.544.274 1.075.501 1.58a6.49 6.49 0 0 0 1.587 2.143c.38.375.822.683 1.306.91.237.1.46.237.701.325.445.178.909.305 1.382.38.2.053.41.06.612.022a2.01 2.01 0 0 1-1.439-2.72c.132-.37 5.244-8.896 5.58-9.335l.034-.025a.121.121 0 0 1 .026-.105 9.122 9.122 0 0 1 1.334-1.375 6.682 6.682 0 0 1 3.525-1.372 6.792 6.792 0 0 1 2.11.15 7.948 7.948 0 0 0-2.688-1.778Z"/><path fill="url(#ata__c)" d="M22.442 26.44a4.18 4.18 0 0 0 .43-.586c.205-.287.393-.585.562-.894a4.76 4.76 0 0 0 .28-.698c.014-.047.207-.714.25-.921.073-.38.115-.766.125-1.153a6.534 6.534 0 0 0-.134-1.539 5.612 5.612 0 0 0-.309-1.014 1.631 1.631 0 0 0-.211-.452c-.036.042-.01.084-.001.125a2.035 2.035 0 0 1-1.616 2.419c-.206.036-10.074.017-10.73.018a2.263 2.263 0 0 1-.442-.03 1.371 1.371 0 0 1-.612-.022 6.382 6.382 0 0 1-1.382-.38c-.241-.088-.464-.223-.701-.325a4.69 4.69 0 0 1-1.306-.91 6.49 6.49 0 0 1-1.587-2.142 7.199 7.199 0 0 1-.502-1.58.217.217 0 0 0-.025-.052c-.08.158-.14.325-.182.497-.124.44-.214.889-.27 1.342-.07.464-.093.933-.07 1.4a6.78 6.78 0 0 0 .221 1.506c.01.034.324 1.06.352 1.135.095.256.412.883.429.916.066.13.637 1.02.665 1.048.109.106.52.617.637.747.306.335.645.64 1.01.909.166.123.672.453.709.474.198.11.398.217.596.327.181.1.385.147.567.237.211.093.428.175.648.243.017.006.8.195.842.205.294.06.593.1.893.121.546.054 6.948.037 8.245.03a7.026 7.026 0 0 0 1.786-.218c.028-.063.09-.09.141-.127.251-.196.483-.416.692-.656Z"/></svg>