<svg fill="none" height="32" viewBox="0 0 32 32" width="32" xmlns="http://www.w3.org/2000/svg" xmlns:xlink="http://www.w3.org/1999/xlink"><linearGradient id="a" gradientUnits="userSpaceOnUse" x1="5.78109" x2="29.5862" y1="18.4273" y2="18.4273"><stop offset="0" stop-color="#6f211f"/><stop offset=".01" stop-color="#931042"/><stop offset=".03" stop-color="#b31c4b"/><stop offset=".05" stop-color="#ca154c"/><stop offset=".2" stop-color="#f03539"/><stop offset=".3" stop-color="#f14c22"/><stop offset=".5" stop-color="#f36d27"/><stop offset=".6" stop-color="#f36d27"/><stop offset="1" stop-color="#f8b915"/></linearGradient><linearGradient id="b" gradientUnits="userSpaceOnUse" x1="13.0577" x2="19.0577" y1="21.9618" y2="18.4977"><stop offset="0" stop-opacity="0"/><stop offset=".5" stop-opacity=".9"/><stop offset="1" stop-opacity="0"/></linearGradient><linearGradient id="c" gradientUnits="userSpaceOnUse" x1="26.7724" x2="26.7724" y1="9.30872" y2="28.3114"><stop offset="0" stop-color="#141021"/><stop offset=".02" stop-color="#1c192f"/><stop offset=".03" stop-color="#131b34"/><stop offset=".05" stop-color="#2c2440"/><stop offset=".2" stop-color="#5b4d86"/><stop offset=".4" stop-color="#6e76b7"/><stop offset=".6" stop-color="#608ac3"/><stop offset=".8" stop-color="#5493ca"/><stop offset="1" stop-color="#2778a0"/></linearGradient><linearGradient id="d" gradientUnits="userSpaceOnUse" x1="13.8498" x2="12.2243" y1="10.1079" y2="28.6872"><stop offset="0" stop-color="#131b34"/><stop offset=".01" stop-color="#122744"/><stop offset=".1" stop-color="#0e4b74"/><stop offset=".2" stop-color="#1f6e96"/><stop offset=".7" stop-color="#5dc3b4"/><stop offset=".8" stop-color="#5abb8e"/><stop offset=".9" stop-color="#4ea479"/><stop offset="1" stop-color="#469971"/></linearGradient><linearGradient id="e" gradientUnits="userSpaceOnUse" x1="4.78673" x2="24.8477" y1="7.11904" y2="27.1801"><stop offset="0" stop-color="#fdee59"/><stop offset=".3" stop-color="#dce242"/><stop offset=".5" stop-color="#c4d732"/><stop offset=".7" stop-color="#b3d332"/><stop offset=".8" stop-color="#77a63d"/><stop offset=".89" stop-color="#42672b"/><stop offset=".92" stop-color="#3b5b2d"/><stop offset=".97" stop-color="#325022"/><stop offset=".99" stop-color="#2b3d1a"/><stop offset="1" stop-color="#2b3d1a"/></linearGradient><clipPath id="f"><path d="m0 0h32v32h-32z"/></clipPath><g clip-path="url(#f)"><path d="m9.03918 28.9869c-1.48149-.0437-2.90649-.5783-4.05106-1.5199-.92432-.7862-1.55268-1.8643-1.78122-3.056-.14501-1.2291-.03466-2.475.32411-3.6595.12655-.4184.1988-.8514.21501-1.2882l-.00528-.0109-.00807-.0203c-.27965-.4344-.61197-.8327-.98938-1.1855-1.04447-.975-1.885631-2.1471-2.474995-3.4487l-.00591-.0166c-.387114-1.1541-.3502287-2.4083.104037-3.5377.454265-1.1293 1.296168-2.05975 2.374588-2.62432l.03215-.0178.03408-.01363c1.05979-.44394 2.19437-.68217 3.34322-.702.97288.01086 1.93365.21721 2.82519.60679s1.69565.95443 2.36455 1.66096c1.3784 1.1271 2.8696 3.7956 4.4477 6.62l.1757.3142c1.3766-2.408 3.3537-5.7273 4.2371-6.5438l.1495-.1495.183-.1292c.0869-.0613.2346-.1838.3774-.30233 1.4102-1.32014 3.2616-2.06748 5.1931-2.09615.478.00139.955.0425 1.4261.1229.8736.16511 1.6962.53291 2.4017 1.07382s1.2743 1.23986 1.6605 2.04056c.3491.8286.4769 1.7337.3709 2.6266-.1061.8928-.4423 1.7428-.9757 2.4666l-.0679.1048-.0777.0978c-.6655.8387-2.0701 2.3235-2.5402 2.8161-.0538.0881-.1281.2857-.0086.858.4156 1.1543 1.1772 3.9918-.3063 6.299-.5488.7989-1.285 1.4511-2.1441 1.8995-.8592.4485-1.8152.6796-2.7844.6731-.1655.0146-.322.0217-.4782.0217h-.0324l-.0322-.0036c-1.5861-.1266-3.076-.811-4.2056-1.9316-.94-.9981-1.7267-2.1302-2.3342-3.3593-.3403.5975-.6377 1.1092-.9129 1.5709-.5837 1.0898-1.4417 2.0083-2.4892 2.6649s-2.2482 1.0284-3.48344 1.0788l-.02539.0008zm-2.36611-10.814c.36506 1.0766.35466 2.2452-.02953 3.3151-.23431.7591-.33261 1.5537-.29038 2.347.14942.8163.95808 1.8132 2.74491 1.9506.68135-.0521 1.33723-.2815 1.90253-.6654s1.0203-.909 1.3199-1.5232c.595-.9984 1.2503-2.1632 1.8325-3.2098-.3931-.6858-.7794-1.377-1.1544-2.0482l-.0029-.0052c-1.2397-2.2186-2.7825-4.9797-3.68518-5.708l-.0933-.0753-.086-.0835c-.37756-.42-.83639-.7591-1.34874-.9967-.51234-.2377-1.06756-.3689-1.63208-.3859-.68178.0169-1.35509.1552-1.98828.4085-.37797.2174-.67085.5568-.83063.9625-.15977.4057-.17696.8536-.04873 1.2703.46158.8663 1.06344 1.6501 1.78115 2.3197.65894.6076 1.2039 1.3281 1.60916 2.1275zm11.14443 2.2008c.7873 1.6719 1.8283 3.2122 3.086 4.5663.2081.2454.4637.4462.7513.5904.2877.1442.6015.2288.9227.2487.0677 0 .14-.0038.2209-.0115l.02-.0016c.4713.0248.9417-.0632 1.3721-.2566.4305-.1935.8086-.4869 1.1029-.8559.7918-1.2314.0888-3.2259-.0602-3.6132l-.0138-.036-.009-.0375c-.2076-.6319-.2604-1.3044-.154-1.961.1064-.6565.3689-1.2779.7654-1.812l.0203-.0266.0231-.0241c.0177-.0185 1.7621-1.8379 2.4507-2.6993.2269-.2802.3782-.6137.4396-.9689.0615-.3552.031-.7202-.0886-1.0603-.1673-.3187-.4027-.5967-.6895-.8142s-.618-.3692-.97-.4444c-.2994-.052-.6027-.0789-.9066-.0804-1.1865.0287-2.3158.5159-3.1508 1.3594-.1834.1521-.3574.2965-.5314.4225-1.014 1.0446-2.8317 4.3192-4.6011 7.5162z" fill="#fff"/><path d="m15.0574 16.0212c-.1115-.2063-.2233-.4124-.3377-.6233l-.3047-.5619.4188.0258c.0841.0025.1677.0146.249.0359-.0166-.5048-.1009-1.0051-.2506-1.4875-.0634.0522-.137.0905-.216.1125-.0493.0145-.1004.022-.1518.0223-.0447.0001-.0891-.0059-.1322-.0179.0115.1145-.0053.23-.049.3364l-.2008.5516-.2842-.6619c-.1052-.1161-.1952-.2452-.2679-.384-.0303-.0528-.0589-.1026-.0892-.1497-.05-.0644-.0863-.1383-.1067-.2173-.0204-.0789-.0245-.1612-.012-.2417.0161-.066.0472-.1274.0909-.1794-.15-.0539-.2868-.1389-.4016-.2493-.1149-.1105-.2051-.2439-.2648-.3917-.2442-.5514-.4701-1.13-.6714-1.7194-.0564-.141-.0833-.292-.0789-.44375.0044-.15176.04-.30099.1046-.43841-.1575-.0072-.3117-.04673-.4532-.11612s-.2672-.16716-.3692-.28722c-.4116-.43415-.8003-.88939-1.1646-1.36388-.1072-.12376-.18632-.26931-.23182-.42661-.04549-.15729-.05631-.32259-.03171-.48447-.10178.03268-.20801.04937-.31491.04947-.24179-.00588-.4767-.08172-.67628-.21834-.50289-.32283-.92366-.58112-1.32421-.81285-.1314-.05885-.24945-.14382-.34698-.24973s-.17249-.23056-.22033-.36635c-.04783-.1358-.06755-.27991-.05794-.42356.00961-.14366.04834-.28386.11384-.41207.02022-.05529.03913-.11106.0581-.1668.03391-.09981.069-.203.11143-.30534.06022-.21081.18647-.39674.3602-.53047s.38578-.2082.60497-.21248c.13598.00173.2709.0241.40016.06633.82463.25932 1.57228.71873 2.17618 1.33725.1259.11017.2229.2496.2824.40603.0595.15642.0797.32507.0587.49111.0771-.02208.1568-.03325.237-.0332.2983.01668.5812.1377.7992.34189.5672.46656 1.0495 1.02771 1.4255 1.65865.1277.16121.2066.35565.2272.56029.0206.20465-.0178.41091-.1108.59437l.0217-.00017c.1994.00033.3943.05834.5614.16703s.2991.26342.3802.4455c.3576.62517.6217 1.2993.7839 2.001.0651.1914.0722.3977.0204.5931-.0519.1953-.1603.371-.3118.5049.2107.0454.4027.1532.551.3095s.246.3537.2804.5664l.0189.0718c.1679.4794.2123.9933.1292 1.4944-.0541.2585-.0452.5263.0261.7806.0252.0907.0273.1863.0061.278-.0211.0918-.0648.1768-.1271.2473-.2521.2813-.1666.2345-.2793.2563s-.0945.0908.0836.1417c.1708.0364.1647.796.1647.796s-.8031-.8762-.9061-1.0666zm-1.3181-4.7181c.0615-.0617.1357-.1093.2175-.1395.0574-.0226.1184-.0344.1801-.0348.0274 0 .0546.0024.0816.0073-.1299-.4841-.3152-.9516-.5522-1.39325-.0455.06731-.1073.12192-.1798.15868-.0724.03676-.153.05446-.2341.05142l-.0429-.00139zm-2.6014-4.34656c.309.39013.5994.73977.9136 1.06481.0417-.07324.0987-.13661.1672-.18579.0666-.05019.144-.08418.226-.09927-.2779-.41041-.604-.78607-.9713-1.11894-.0165.06182-.0453.1197-.0845.17023-.0646.08055-.1521.1395-.251.16896zm-2.94862-2.24254c.41464.24.81485.47449 1.21421.74065.01156-.09052.04698-.17633.10262-.24865.04783-.0653.11007-.11869.1819-.156-.38303-.33304-.81849-.60046-1.28877-.79145.00739.07559-.0026.15186-.02919.223-.03663.09326-.0994.17397-.18077.23245z" fill="#fff"/><path d="m15.8626 14.5363c.0727-.4898.0224-.99-.1464-1.4555-.0366-.2247-.1571-.4272-.3372-.5665-.1801-.1392-.4064-.2049-.6331-.1838-.0584-.003-.0906-.0187-.1056-.0708-.017-.0593.0214-.0758.0669-.1039.1969-.0844.3546-.2402.4414-.4361.0867-.1959.096-.4174.0259-.6199-.157-.6797-.4128-1.33256-.7593-1.93795-.087-.20075-.2488-.35974-.451-.44325s-.4291-.08498-.6324-.00411c-.0547.01357-.0931.014-.1258-.02909-.0085-.00857-.0148-.01902-.0186-.03049-.0037-.01147-.0047-.02365-.0029-.03558.0018-.01192.0064-.02326.0134-.03309.007-.00984.0162-.01792.0268-.02358.4606-.34523.3443-.77835.1135-1.16308-.3624-.60783-.8271-1.14855-1.3734-1.59837-.0693-.08209-.1545-.14936-.2504-.19779s-.2006-.07703-.3078-.08409c-.1072-.00705-.2147.00758-.3161.04303-.1014.03544-.1947.09097-.2742.16327-.0074.0091-.0168.0164-.0275.02139s-.0223.00753-.0341.00745c-.0118-.00009-.0234-.0028-.034-.00795-.0106-.00514-.0199-.01259-.0272-.02179-.0545-.04523-.0263-.08678.0024-.12468.0592-.07515.103-.16132.1287-.2535.0257-.09219.0329-.18856.0211-.28354-.0117-.09498-.0422-.18668-.0897-.26978-.0475-.08311-.1109-.15598-.1868-.21439-.57759-.59092-1.29212-1.03016-2.08019-1.27876-.10608-.04382-.22035-.06429-.33505-.06002-.1147.00426-.22713.03317-.32966.08476s-.19275.12464-.26453.2142c-.07179.08956-.12345.19352-.15148.30482-.06272.15119-.10972.30885-.16591.46281-.05608.10256-.09001.21575-.09959.33225s.00541.23371.044.34406c.03858.11034.0999.21135.17999.29649.08009.08515.17716.15253.28493.19779.4521.26154.89422.53649 1.33345.81845.16271.12366.36294.1877.5672.18141.20427-.00628.40018-.08251.55494-.21594.0446-.03445.0735-.09395.1358-.02524.0415.04575.0296.08147-.0038.12548-.1204.15543-.1806.34903-.1697.54528s.0923.38198.2291.52309c.3593.46813.7428.91721 1.1488 1.34542.1172.15144.2824.25841.4686.30327.1861.04485.382.02491.5552-.05654.0503-.02342.1019-.0723.1489.00143.0448.07016-.0083.10209-.057.13679-.1534.10649-.2644.2637-.3133.44397-.049.18026-.0328.37201.0458.54149.1964.5755.4176 1.1444.6639 1.7004.0594.1554.1619.2907.2953.39.1334.0994.2924.1588.4583.1712.0916.0075.2298-.1223.2685.0353.0313.128-.134.1037-.2089.1477-.2555.1501-.292.2614-.1361.5034.0967.1896.2167.3663.3572.526l.0707.1644c.0281-.0538.0418-.114.0398-.1746-.002-.0607-.0196-.1198-.0512-.1716.0227-.1087-.043-.2318.0619-.3461.1275.1082.229.2676.4364.2076.1914-.0555.2515-.2053.2777-.397.4004.7607.5446 1.6304.4109 2.4797-.1669-.2724-.1669-.2724-.4206-.288.1514.2792.2972.5477.4426.8166.0136.0362.0393.0666.0727.0861.0335.0194.0726.0267.1108.0207.1309-.0317.2467-.1076.3279-.2151.0811-.1074.1225-.2396.1172-.3741-.0813-.2907-.0909-.5967-.0281-.8919zm-6.17078-9.19017c-.13139.17418-.01205.34922.0036.5959-.65303-.45707-1.3304-.87835-2.0291-1.262.57723-.13248.62537-.36691.30479-.81372.8525.24191 1.6244.7083 2.23509 1.35046-.1868.02969-.3754-.05486-.51438.12936zm2.66468 2.67684c-.1659.122-.1618.289-.136.48972-.558-.54223-1.071-1.12898-1.5338-1.75443.5089.039.6516-.10865.541-.55527.7254.44701 1.2977 1.10415 1.6409 1.88414-.1732-.09301-.3357-.1939-.5121-.06416zm1.6837 3.35773c-.0807.0334-.1486.0919-.1936.1668s-.0648.1623-.0564.2492l-.0976.025-.8759-2.23476c.5328.25346.7148.15925.7839-.39872.4759.73643.8075 1.55668.977 2.41698-.225-.1078-.3242-.3065-.5374-.2245z" fill="#f04a22"/><path d="m15.9587 17.1714s.12-.8978.3053-.9378c.1236-.0436.069-.1432-.0047-.1827l-.0125-.0115c-.1574-.1525-.2773-.3393-.3504-.5459-.073-.2065-.0972-.4272-.0706-.6447.0528-.6253.1768-1.2426.3696-1.8398.0398-.2168.1423-.4172.2947-.5764.1525-.1592.3482-.2703.5631-.3195-.1515-.1539-.2545-.3489-.2962-.5608s-.0203-.4314.0616-.6312c.1865-.6069.4328-1.19366.7353-1.75177.1121-.21317.273-.39678.4696-.5358.1696-.13259.3746-.21197.5893-.22813-.0709-.14849-.1017-.31288-.0896-.47695.0122-.16406.067-.32211.1589-.45853.4097-.71834.966-1.3425 1.6325-1.83196.2039-.17061.458-.26983.7235-.28251.1026-.00031.2044.0186.3.05574-.0302-.21277.0026-.42973.0945-.62399.092-.19425.2389-.35725.4226-.46877.5314-.40589 1.1129-.74145 1.7302-.99837.1817-.07485.3765-.11289.573-.11191.0549 0 .1109.00284.1667.00844.1867.00102.3683.06096.519.17126.1506.1103.2626.26534.32.44302.0421.13051.0888.26357.134.39226.0554.15783.1127.321.1637.48537.0328.12853.0352.26292.0071.39256s-.0859.25097-.1689.35444c-.1392.20261-.3294.36487-.5514.47037-.3727.18158-.734.3858-1.0817.61151l-.1515.0937c-.2039.13789-.4424.21557-.6884.22416-.1194-.00034-.2378-.02208-.3496-.0642.0171.18473-.0068.37097-.0701.54537s-.1643.33266-.2959.46345c-.3575.41676-.7157.80982-1.0644 1.16829-.1094.12981-.2445.23551-.3969.31041-.1523.07491-.3185.11738-.4881.12475h-.0081c.0687.15817.101.32975.0947.5021-.0064.17229-.0514.34109-.1316.49369-.0718.158-.139.3248-.204.4861-.1721.5052-.4297.977-.7616 1.3949-.1152.1483-.2678.2632-.4421.333.0065.0154.012.0311.0164.0472.0145.0827.009.1677-.016.2478-.025.0802-.0687.1532-.1277.213-.0333.0446-.0622.0924-.0861.1426-.0636.1401-.1585.2637-.2774.3614l-.3509.2686-.0197-.3802c-.0532.0204-.1097.0308-.1667.0307-.049-.0002-.0977-.0075-.1446-.0218-.0852-.0242-.1636-.0675-.2295-.1266-.1636.4795-.2619.979-.292 1.4848.0194-.005.0391-.0088.0589-.0114l.3522-.0466-.0981.3415c-.091.3318-.2405.6447-.4415.924-.0678.0927-.9279 1.0833-.9279 1.0833zm2.1232-6.0353c.0714.0004.142.016.2071.0457.065.0297.123.0728.1701.1265l.5463-1.2867c-.0872.002-.1732-.0193-.2494-.06168-.0761-.04238-.1396-.1043-.1838-.17937-.1287.212-.2418.43305-.3384.66145-.1006.2284-.1851.4636-.2529.7039.0333-.0065.0671-.0098.101-.0098zm1.7925-3.34471c.0831.01785.1606.05541.2262.10951.0655.0541.1171.12317.1503.20137l.9488-1.046c-.0824-.03274-.157-.08258-.2188-.14624-.0553-.05402-.0981-.11958-.1252-.192-.3731.31285-.7031.67378-.9813 1.07336zm2.7893-2.61026c.0802.03398.1498.0889.2016.159.0498.06899.0818.14926.093.23364.3799-.21782.7806-.44275 1.2126-.67136-.0784-.06468-.1363-.15084-.1665-.2479-.0235-.06828-.0321-.14081-.0253-.21271-.4719.18164-.9149.43067-1.3154.73933z" fill="#fff"/><path d="m25.2397 4.77761c-.0914-.29408-.2023-.58207-.2969-.8752-.0445-.13411-.1307-.2505-.246-.33222-.1153-.08171-.2537-.12449-.3949-.12209-.2131-.02374-.4287.00611-.6272.08683-.5989.24903-1.1631.57456-1.6784.96847-.1008.05691-.1893.13328-.2604.22468-.0711.09139-.1233.19599-.1536.30773s-.0382.22838-.0231.34317.0529.22543.1111.32551c.0206.04664.049.08646-.0048.12473-.0359.02553-.0683.06685-.1189.01106-.0679-.0773-.1512-.13953-.2446-.18266-.0934-.04314-.1948-.06623-.2977-.06779s-.2049.01844-.2996.05873c-.0947.04028-.1798.09995-.2501.17516-.6407.4698-1.1754 1.0692-1.5692 1.75922-.1073.15305-.1528.34104-.1272.52621.0255.18517.1202.35383.2649.47209.0384.04087.1019.06366.0415.135-.0547.06476-.1.02325-.15-.00373-.1224-.06066-.2603-.08256-.3955-.06278s-.2611.0803-.361.17349c-.1668.11812-.3034.27397-.3986.45487-.2951.54468-.5356 1.11721-.718 1.70931-.0913.2106-.0984.4481-.02.6638.0785.2157.2365.3932.4418.496.0421.0279.0873.0413.0643.1045-.0213.0586-.0658.0509-.1167.0524-.2323-.0207-.4638.0473-.648.1904s-.3073.3507-.3446.5809c-.1881.5801-.309 1.1799-.3603 1.7875-.0239.1829-.005.3689.0551.5433s.1598.3325.2912.462c.0764.0702.2065.2031.2946.0826.1846-.2574.322-.5455.4057-.851-.1838.0243-.1646.2051-.277.2569-.0949-.8501.0775-1.7085.4932-2.4561.0331.1819.0838.3398.2823.399.2044.0609.2963-.1246.4562-.2045l.0179.3453c.1734-.1328.2091-.3274.326-.468.1514-.1822.1504-.318-.0968-.4052-.0544-.0192-.1538-.0256-.1202-.1251.0321-.0949.1182-.046.1756-.0352.1186.0187.2401.0021.3494-.0477s.2015-.1306.2652-.2323c.3988-.5584.7118-1.1732.9289-1.824.1058-.1779.1424-.38855.1028-.5917s-.1526-.38461-.3174-.50977c-.0389-.02988-.0827-.05968-.0503-.11562.0427-.07391.092-.03163.1453-.00627.1861.08737.3966.10787.596.05802.1994-.04984.3755-.16697.4986-.33161.3638-.374.7148-.76145 1.0546-1.1575.1652-.13869.2738-.33311.3053-.54648s-.0162-.43089-.1342-.61144c-.0359-.05386-.0573-.10059.0032-.14911.0577-.0463.081.01028.1158.03749.1562.14705.3598.23335.5741.24329.2143.00993.4251-.05716.5942-.18913.4045-.26425.8245-.50411 1.2576-.71831.1849-.088.3432-.2235.4586-.39267.0634-.07389.1082-.16182.1309-.2565.0226-.09469.0224-.1934-.0007-.28798zm-6.7525 7.05999c-.1886-.526-.4156-.6008-.7937-.2673.0936-.8371.4355-1.62701.9818-2.26812.0407.48115.2296.58847.7191.39835zm1.634-3.24599c-.0241-.53246-.2329-.68412-.6949-.51857.4159-.72574.9838-1.3529 1.6649-1.83845-.005.18346-.1018.35468.0544.51127.0614.06325.1427.10349.2302.11401.0876.01051.176-.00935.2507-.05626l.0478.07583zm2.5512-2.58411c.155-.50049.02-.6884-.4666-.64886.5629-.64758 1.3299-1.0837 2.1742-1.23626-.0767.15005-.217.27309-.155.45838.0668.19953.2442.2213.5124.29-.7482.37962-1.4064.75485-2.065 1.13666z" fill="#003555"/><path d="m9.07101 28.4062c1.13849-.0445 2.24519-.3876 3.20919-.9949.964-.6074 1.7512-1.4576 2.2828-2.4653.454-.7618 1.4329-2.4918 1.4329-2.4918l1.162-2.0898c1.2385-2.2376 2.4821-4.4903 3.5-6.0842 1.9341-3.1605 5.6119-5.75052 8.9283-4.75552-.6318-.4858-1.3695-.81526-2.153-.96148-.4392-.07505-.884-.11346-1.3296-.11484-1.7968.02472-3.5183.72528-4.8218 1.96214-.1584.1315-.6788.5536-.6788.5536-.9793.891-3.6579 5.5607-4.6425 7.3069l-1.1394 2.1111c-.6679 1.2028-1.3716 2.4563-2.0032 3.5162-.3522.7005-.8811 1.2968-1.5345 1.73s-1.40864.6883-2.1909.7399c-2.14116-.15-3.12234-1.3956-3.31146-2.4285.06241 1.7405 1.08738 4.401 3.28997 4.4665z" fill="url(#a)"/><path d="m17.4423 15.6998c-.6024 1.0213-1.1426 1.9697-1.4818 2.5712l-1.1394 2.1111c-.435.7833-.885 1.5879-1.3206 2.3467l1.1726 2.031c.4849-.8248 1.3228-2.3056 1.3228-2.3056l1.162-2.0898c.491-.8872.9829-1.7766 1.4611-2.6265z" fill="url(#b)"/><path d="m31.0607 11.3405c-.3302-.7201-.8375-1.34479-1.4745-1.81582-2.6027-.78088-5.4279.64642-7.4582 2.82452.9747-.7272 2.2198-2.233 4.971-1.7674.4576.0588.8913.2385 1.2563.5207s.6482.6566.8204 1.0847c.1722.428.2271.8942.1591 1.3506-.0679.4564-.2564.8863-.5458 1.2456-.7012.8836-2.5042 2.7624-2.5042 2.7624-.346.4648-.5732 1.0071-.6619 1.5797-.0887.5727-.0361 1.1583.1531 1.706.2694.698.4272 1.4341.4675 2.1812.0704 1.1724-.1259 4.2812-2.668 5.2987.7814-.0549 1.5402-.2862 2.2195-.6764.6793-.3901 1.2613-.9291 1.7025-1.5765 1.3396-2.0834.6566-4.6695.235-5.824-.1833-.8437-.0353-1.1713.114-1.384.4083-.4274 1.869-1.967 2.5397-2.8122l.1132-.1575c.4792-.6432.7828-1.3999.8812-2.1959s-.0118-1.6039-.3199-2.3444z" fill="url(#c)"/><path d="m2.2716 9.6316c-1.953295 1.0621-1.947605 3.5215-1.458545 4.9629.780365 2.0897 3.105495 3.7288 3.460195 4.6233.33923.6978-.87232 3.024-.49431 5.0885.35908 1.9612 2.10327 3.9351 5.29208 4.0999-1.21156-.1938-2.91744-1.0468-3.28995-4.4665-.06172-.8727.03881-1.7494.29651-2.5855.34957-.9486.37142-1.987.06207-2.9494-.37945-.7365-.88653-1.3998-1.49766-1.9592-.77916-.7251-1.42531-1.5811-1.90917-2.5291-.17165-.5514-.14888-1.145.06451-1.6816.2134-.5365.60448-.9836 1.1079-1.2665.71397-.2901 1.47473-.4478 2.24515-.4655.63976.0148 1.26982.1596 1.85188.4255s1.10397.6474 1.53399 1.1213c-.75601-1.0414-4.42945-3.77467-7.26465-2.4181z" fill="url(#d)"/><path d="m26.2434 23.0128-.0004-.0054c.0529 1.4737-.5243 3.1647-3.3893 3.3392-1.015.097-2.7031-.1469-5.6958-5.9821l-1.1974-2.0935c-2.1952-3.879-3.5241-6.4858-5.0067-7.6819-.99354-1.05718-2.29893-1.76915-3.72567-2.03201-1.42675-.26286-2.90016-.06285-4.20519.57085-.26286.14537-.51266.31317-.74663.50153 2.83456-1.35136 6.50435 1.37933 7.26 2.42023l.0669.065.07252.0585c.99007.7988 2.49767 3.4966 3.82767 5.8769.4291.768 2.4925 4.4041 2.4925 4.4041 1.8129 3.5677 3.2522 5.5595 6.584 5.9316.1406 0 .2828-.0066.4337-.02.1959-.0127.3834-.0318.5645-.0555 2.5396-1.0186 2.7357-4.1256 2.6653-5.2975z" fill="url(#e)"/></g></svg>