<svg xmlns="http://www.w3.org/2000/svg" width="32" height="32" fill="none"><defs><linearGradient id="atd__a" x1="7.7" x2="27.04" y1="17.972" y2="17.972" gradientUnits="userSpaceOnUse"><stop stop-color="#6F211F"/><stop offset=".01" stop-color="#931042"/><stop offset=".03" stop-color="#B31C4B"/><stop offset=".05" stop-color="#CA154C"/><stop offset=".2" stop-color="#F03539"/><stop offset=".3" stop-color="#F14C22"/><stop offset=".5" stop-color="#F36D27"/><stop offset=".6" stop-color="#F36D27"/><stop offset="1" stop-color="#F8B915"/></linearGradient><linearGradient id="atd__b" x1="13.611" x2="18.486" y1="20.844" y2="18.029" gradientUnits="userSpaceOnUse"><stop stop-opacity="0"/><stop offset=".5" stop-opacity=".9"/><stop offset="1" stop-opacity="0"/></linearGradient><linearGradient id="atd__c" x1="24.754" x2="24.754" y1="10.564" y2="26.002" gradientUnits="userSpaceOnUse"><stop stop-color="#141021"/><stop offset=".02" stop-color="#1C192F"/><stop offset=".03" stop-color="#131B34"/><stop offset=".05" stop-color="#2C2440"/><stop offset=".2" stop-color="#5B4D86"/><stop offset=".4" stop-color="#6E76B7"/><stop offset=".6" stop-color="#608AC3"/><stop offset=".8" stop-color="#5493CA"/><stop offset="1" stop-color="#2778A0"/></linearGradient><linearGradient id="atd__d" x1="14.255" x2="12.934" y1="11.213" y2="26.307" gradientUnits="userSpaceOnUse"><stop stop-color="#131B34"/><stop offset=".01" stop-color="#122744"/><stop offset=".1" stop-color="#0E4B74"/><stop offset=".2" stop-color="#1F6E96"/><stop offset=".7" stop-color="#5DC3B4"/><stop offset=".8" stop-color="#5ABB8E"/><stop offset=".9" stop-color="#4EA479"/><stop offset="1" stop-color="#469971"/></linearGradient><linearGradient id="atd__e" x1="6.892" x2="23.19" y1="8.785" y2="25.083" gradientUnits="userSpaceOnUse"><stop stop-color="#FDEE59"/><stop offset=".3" stop-color="#DCE242"/><stop offset=".5" stop-color="#C4D732"/><stop offset=".7" stop-color="#B3D332"/><stop offset=".8" stop-color="#77A63D"/><stop offset=".89" stop-color="#42672B"/><stop offset=".92" stop-color="#3B5B2D"/><stop offset=".97" stop-color="#325022"/><stop offset=".99" stop-color="#2B3D1A"/><stop offset="1" stop-color="#2B3D1A"/></linearGradient></defs><path fill="#fff" d="M32 16c0 8.837-7.163 16-16 16S0 24.837 0 16 7.163 0 16 0s16 7.163 16 16Z"/><path fill="#fff" d="M10.347 26.552a5.433 5.433 0 0 1-3.292-1.235 4.33 4.33 0 0 1-1.447-2.483 7.304 7.304 0 0 1 .263-2.973c.103-.34.162-.692.175-1.047l-.004-.009-.007-.016a5.093 5.093 0 0 0-.804-.963 8.796 8.796 0 0 1-2.01-2.802l-.005-.014a4.158 4.158 0 0 1 2.014-5.006l.026-.014.027-.011A7.359 7.359 0 0 1 8 9.409a5.897 5.897 0 0 1 4.216 1.842c1.12.915 2.331 3.083 3.613 5.378l.143.255c1.119-1.956 2.725-4.653 3.443-5.316l.121-.122.149-.104c.07-.05.19-.15.306-.246a6.31 6.31 0 0 1 4.22-1.703c.388 0 .775.034 1.158.1a4.616 4.616 0 0 1 3.3 2.53 4.216 4.216 0 0 1-.491 4.138l-.055.085-.063.08c-.541.68-1.682 1.887-2.064 2.287-.044.072-.104.232-.007.697.337.938.956 3.244-.249 5.118a4.818 4.818 0 0 1-4.004 2.09 4.408 4.408 0 0 1-.389.018h-.026l-.026-.003a5.468 5.468 0 0 1-3.417-1.57 11.253 11.253 0 0 1-1.896-2.729c-.277.486-.518.901-.742 1.276a5.773 5.773 0 0 1-4.852 3.042h-.041Zm-1.923-8.786a4.086 4.086 0 0 1-.024 2.693 5.478 5.478 0 0 0-.236 1.907c.122.663.779 1.473 2.23 1.585a3.183 3.183 0 0 0 2.618-1.778 105.91 105.91 0 0 0 1.49-2.608c-.32-.557-.634-1.119-.939-1.664l-.002-.004c-1.007-1.803-2.26-4.046-2.994-4.638l-.076-.061-.07-.068A3.395 3.395 0 0 0 8 12.007a4.66 4.66 0 0 0-1.616.332 1.562 1.562 0 0 0-.714 1.814c.375.704.864 1.34 1.447 1.884a6.107 6.107 0 0 1 1.307 1.729Zm9.054 1.788a14.578 14.578 0 0 0 2.507 3.71 1.94 1.94 0 0 0 1.36.681c.056 0 .114-.003.18-.009l.016-.001a2.41 2.41 0 0 0 2.011-.904c.643-1 .072-2.62-.049-2.936l-.011-.029-.007-.03a3.376 3.376 0 0 1 .496-3.066l.017-.021.019-.02c.014-.015 1.431-1.493 1.99-2.193a1.715 1.715 0 0 0 .286-1.648 1.991 1.991 0 0 0-1.348-1.023 4.425 4.425 0 0 0-.737-.065 3.73 3.73 0 0 0-2.56 1.104c-.149.124-.29.241-.431.343-.824.85-2.301 3.51-3.739 6.107Z"/><path fill="#fff" d="m15.236 16.017-.274-.506-.248-.457.34.021a.91.91 0 0 1 .203.03 4.584 4.584 0 0 0-.204-1.21.477.477 0 0 1-.299.11.397.397 0 0 1-.107-.014.57.57 0 0 1-.04.273l-.163.448-.231-.537a1.509 1.509 0 0 1-.218-.312 1.966 1.966 0 0 0-.072-.122.486.486 0 0 1-.097-.373.358.358 0 0 1 .074-.146.919.919 0 0 1-.541-.52 17.158 17.158 0 0 1-.546-1.397.898.898 0 0 1 .021-.717.934.934 0 0 1-.668-.328c-.334-.352-.65-.722-.946-1.108a.919.919 0 0 1-.214-.74.84.84 0 0 1-.256.04 1.017 1.017 0 0 1-.55-.177c-.408-.263-.75-.472-1.075-.66a.863.863 0 0 1-.416-1.18c.017-.045.032-.09.047-.136a4.01 4.01 0 0 1 .091-.248.832.832 0 0 1 .784-.603c.11.001.22.02.325.054.67.21 1.278.584 1.768 1.086a.83.83 0 0 1 .277.729.697.697 0 0 1 .193-.027c.242.014.472.112.65.278.46.379.852.835 1.157 1.347a.874.874 0 0 1 .095.938h.018a.84.84 0 0 1 .765.498c.29.508.505 1.055.636 1.626a.833.833 0 0 1-.236.892.87.87 0 0 1 .675.711l.015.059c.137.389.173.807.106 1.214-.044.21-.037.427.02.634a.46.46 0 0 1-.098.427c-.204.228-.135.19-.227.208-.091.018-.076.074.068.115.14.03.134.647.134.647s-.652-.712-.736-.867Zm-1.07-3.833a.489.489 0 0 1 .322-.142.38.38 0 0 1 .067.006 5.298 5.298 0 0 0-.45-1.132.388.388 0 0 1-.335.171l-.035-.001.43 1.098Zm-2.114-3.531c.25.317.487.6.742.865a.476.476 0 0 1 .32-.232 5.044 5.044 0 0 0-.79-.909.389.389 0 0 1-.272.276ZM9.656 6.83c.337.195.662.385.987.601a.418.418 0 0 1 .083-.202.427.427 0 0 1 .148-.126 3.74 3.74 0 0 0-1.047-.643.405.405 0 0 1-.17.37Z"/><path fill="#F04A22" d="M15.89 14.81c.06-.397.018-.803-.119-1.182a.73.73 0 0 0-.788-.61c-.048-.002-.074-.014-.086-.057-.014-.048.018-.061.054-.084a.688.688 0 0 0 .38-.858 5.797 5.797 0 0 0-.617-1.575.684.684 0 0 0-.88-.363c-.044.01-.076.011-.102-.024a.063.063 0 0 1 .015-.1c.374-.28.28-.632.092-.944a4.997 4.997 0 0 0-1.116-1.299.65.65 0 0 0-.933-.061.065.065 0 0 1-.05.023.064.064 0 0 1-.05-.024c-.044-.037-.02-.07.003-.101a.589.589 0 0 0-.103-.83A4.08 4.08 0 0 0 9.9 5.682a.65.65 0 0 0-.878.442c-.051.123-.09.25-.135.376a.678.678 0 0 0 .332.95c.368.213.727.437 1.084.666a.725.725 0 0 0 .911-.028c.037-.028.06-.077.11-.02.034.036.025.065-.002.101a.663.663 0 0 0 .048.868c.292.38.603.745.933 1.093a.683.683 0 0 0 .832.2c.04-.018.083-.058.12.002.037.057-.006.083-.045.111a.644.644 0 0 0-.218.8c.16.468.34.93.54 1.382a.712.712 0 0 0 .612.456c.074.006.187-.1.218.029.025.104-.109.084-.17.12-.207.122-.237.212-.11.409.078.154.176.297.29.427l.057.134a.287.287 0 0 0-.009-.282c.019-.088-.035-.188.05-.28.104.087.186.217.355.168.155-.045.204-.167.226-.323.325.618.442 1.325.333 2.015-.135-.221-.135-.221-.341-.234l.36.663a.136.136 0 0 0 .148.087.473.473 0 0 0 .362-.479 1.519 1.519 0 0 1-.023-.724Zm-5.013-7.466c-.107.142-.01.284.003.484a18.14 18.14 0 0 0-1.649-1.025c.47-.107.508-.298.248-.66a4.02 4.02 0 0 1 1.816 1.096c-.152.024-.305-.044-.418.105Zm2.165 2.175c-.135.1-.132.235-.11.398a11.57 11.57 0 0 1-1.247-1.425c.413.031.53-.089.44-.452a3.424 3.424 0 0 1 1.333 1.531c-.141-.075-.273-.157-.416-.052Zm1.368 2.728a.332.332 0 0 0-.204.338l-.079.02-.712-1.815c.433.206.581.13.637-.324a5.62 5.62 0 0 1 .794 1.963c-.183-.087-.263-.248-.436-.182Z"/><path fill="#fff" d="M15.968 16.952s.098-.73.248-.762c.1-.036.056-.117-.004-.149l-.01-.009a1.152 1.152 0 0 1-.342-.967c.043-.508.144-1.01.3-1.495a.916.916 0 0 1 .697-.728.897.897 0 0 1-.19-.968 7.78 7.78 0 0 1 .597-1.424c.091-.173.222-.322.382-.435a.885.885 0 0 1 .478-.185.768.768 0 0 1 .057-.76 4.792 4.792 0 0 1 1.326-1.488.99.99 0 0 1 .588-.23.68.68 0 0 1 .244.045.891.891 0 0 1 .42-.888 6.26 6.26 0 0 1 1.405-.81 1.206 1.206 0 0 1 .601-.085.72.72 0 0 1 .682.5c.034.105.072.213.109.318.045.128.091.26.133.394a.694.694 0 0 1-.132.607 1.134 1.134 0 0 1-.448.382 8.255 8.255 0 0 0-.878.497l-.123.076c-.166.112-.36.175-.56.182a.812.812 0 0 1-.284-.052 1.021 1.021 0 0 1-.297.82c-.29.339-.582.658-.865.95a.996.996 0 0 1-.719.353h-.007a.936.936 0 0 1-.03.809c-.058.128-.112.264-.165.395-.14.41-.35.793-.619 1.133a.86.86 0 0 1-.36.27c.006.013.01.026.014.039a.429.429 0 0 1-.117.374.696.696 0 0 0-.07.116.817.817 0 0 1-.225.294l-.285.218-.016-.31a.375.375 0 0 1-.253.008.474.474 0 0 1-.186-.103 4.58 4.58 0 0 0-.238 1.207.388.388 0 0 1 .048-.01l.286-.037-.08.277c-.073.27-.195.524-.358.75-.055.076-.754.88-.754.88Zm1.725-4.904a.412.412 0 0 1 .307.14l.443-1.045a.398.398 0 0 1-.352-.196 4.159 4.159 0 0 0-.274.538c-.082.185-.15.376-.206.571a.435.435 0 0 1 .082-.008Zm1.456-2.717a.431.431 0 0 1 .306.253l.771-.85a.51.51 0 0 1-.28-.275 4.475 4.475 0 0 0-.797.872Zm2.267-2.12a.395.395 0 0 1 .239.318c.308-.177.634-.36.985-.545a.424.424 0 0 1-.135-.201.412.412 0 0 1-.02-.173c-.384.147-.744.35-1.07.6Z"/><path fill="#003555" d="M23.508 6.882c-.074-.239-.164-.473-.24-.711a.539.539 0 0 0-.522-.37 1.045 1.045 0 0 0-.51.071 6.105 6.105 0 0 0-1.363.787.711.711 0 0 0-.265.976c.017.038.04.07-.003.101-.03.021-.056.055-.097.01a.599.599 0 0 0-.887-.014 4.6 4.6 0 0 0-1.275 1.43.602.602 0 0 0 .112.81c.03.033.083.052.034.11-.045.052-.082.019-.122-.003a.546.546 0 0 0-.615.09 1.055 1.055 0 0 0-.324.37 7.58 7.58 0 0 0-.583 1.388.73.73 0 0 0 .343.942c.034.023.07.034.052.085-.017.048-.054.042-.095.043a.75.75 0 0 0-.806.627 6.475 6.475 0 0 0-.293 1.452.969.969 0 0 0 .281.816c.062.058.168.165.24.068.15-.21.261-.444.33-.692-.15.02-.135.167-.226.209a3.344 3.344 0 0 1 .4-1.996c.028.148.069.277.23.325.166.05.24-.102.37-.167l.015.281c.141-.108.17-.266.265-.38.123-.148.122-.259-.079-.33-.044-.015-.125-.02-.097-.101.026-.077.096-.037.143-.029a.498.498 0 0 0 .499-.227c.324-.454.578-.953.754-1.482a.684.684 0 0 0-.174-.895c-.032-.024-.067-.048-.04-.094.034-.06.074-.026.117-.005a.725.725 0 0 0 .89-.222c.295-.304.58-.619.856-.94a.716.716 0 0 0 .14-.941c-.03-.044-.047-.082.002-.122.047-.037.066.009.094.031a.73.73 0 0 0 .95.044c.328-.215.67-.41 1.021-.584a.94.94 0 0 0 .373-.319.498.498 0 0 0 .105-.442Zm-5.486 5.736c-.153-.428-.337-.488-.644-.217a3.42 3.42 0 0 1 .797-1.843c.033.39.187.478.584.324l-.737 1.736ZM19.35 9.98c-.02-.433-.19-.556-.565-.422.338-.59.8-1.099 1.353-1.493-.004.149-.083.288.044.415a.313.313 0 0 0 .39.047l.04.062-1.262 1.39Zm2.073-2.1c.126-.406.016-.56-.38-.527A3.062 3.062 0 0 1 22.81 6.35c-.062.122-.176.222-.126.372.054.162.198.18.416.236-.608.308-1.142.613-1.677.923Z"/><path fill="url(#atd__a)" d="M10.373 26.08a5.277 5.277 0 0 0 4.461-2.812c.37-.619 1.165-2.024 1.165-2.024l.944-1.698c1.006-1.818 2.016-3.648 2.843-4.943 1.572-2.568 4.56-4.672 7.254-3.864a4.105 4.105 0 0 0-1.75-.781 6.534 6.534 0 0 0-1.08-.093 5.805 5.805 0 0 0-3.917 1.594c-.129.107-.552.45-.552.45-.795.723-2.971 4.517-3.771 5.936l-.926 1.715c-.543.977-1.114 1.996-1.627 2.857a3.656 3.656 0 0 1-3.027 2.006c-1.74-.121-2.537-1.133-2.69-1.972.05 1.413.883 3.575 2.673 3.628Z"/><path fill="url(#atd__b)" d="M17.174 15.756c-.49.83-.929 1.6-1.204 2.089l-.926 1.715c-.353.637-.719 1.29-1.073 1.907l.953 1.65c.394-.67 1.074-1.873 1.074-1.873l.944-1.698c.4-.721.799-1.444 1.188-2.134l-.956-1.656Z"/><path fill="url(#atd__c)" d="M28.238 12.214a3.81 3.81 0 0 0-1.198-1.475c-2.115-.634-4.41.525-6.06 2.295.792-.59 1.804-1.814 4.04-1.436a2.108 2.108 0 0 1 1.372 3.414c-.57.717-2.034 2.244-2.034 2.244a2.89 2.89 0 0 0-.414 2.67c.22.566.347 1.164.38 1.771.057.953-.102 3.479-2.168 4.305a4.214 4.214 0 0 0 3.187-1.83c1.088-1.693.533-3.794.19-4.732-.148-.685-.028-.951.093-1.124.332-.347 1.519-1.598 2.064-2.285l.092-.128a3.758 3.758 0 0 0 .456-3.689Z"/><path fill="url(#atd__d)" d="M4.848 10.826c-1.587.863-1.582 2.86-1.185 4.032.634 1.698 2.523 3.03 2.812 3.756.275.567-.71 2.457-.402 4.134.292 1.593 1.709 3.197 4.3 3.331-.985-.157-2.37-.85-2.673-3.629a5.754 5.754 0 0 1 .24-2.1 3.674 3.674 0 0 0 .05-2.397 5.693 5.693 0 0 0-1.216-1.591 7.406 7.406 0 0 1-1.55-2.055 2.049 2.049 0 0 1 .952-2.395A5.163 5.163 0 0 1 8 11.534a3.836 3.836 0 0 1 2.75 1.256c-.614-.846-3.598-3.066-5.902-1.964Z"/><path fill="url(#atd__e)" d="M24.324 21.698v-.005c.043 1.198-.426 2.572-2.754 2.713-.825.079-2.196-.12-4.628-4.86l-.972-1.7c-1.784-3.152-2.864-5.27-4.068-6.242a5.528 5.528 0 0 0-6.443-1.187 4.232 4.232 0 0 0-.607.408c2.303-1.098 5.284 1.12 5.898 1.966l.055.053.059.047c.804.65 2.029 2.841 3.11 4.775.348.624 2.024 3.578 2.024 3.578 1.473 2.898 2.643 4.517 5.35 4.819.114 0 .23-.005.352-.016a7 7 0 0 0 .459-.045c2.063-.828 2.222-3.352 2.165-4.304Z"/></svg>