<svg fill="none" height="32" viewBox="0 0 32 32" width="32" xmlns="http://www.w3.org/2000/svg"><circle cx="16" cy="16" fill="#fff" r="16"/><path clip-rule="evenodd" d="m15.993 29.1073-7.83097-5.9455s-.3865-.3875-.54135-.6114c-.16502-.2387-.29851-.5004-.40599-.77-.08306-.2085-.13968-.4281-.18205-.6487-.0195-.1014-.03264-.3081-.03264-.3081l.00466-13.80438s.08629-.23011.15401-.3314c.07289-.10891.16426-.2068.26614-.28927.10383-.08434.22435-.14748.34522-.20529.22604-.10798.46404-.19155.70467-.26131.63534-.18392 1.9414-.41073 1.9414-.41073s.736-.12714 1.1061-.1774c.7784-.10577 1.559-.20342 2.3427-.26139.5914-.04373 1.185-.05255 1.778-.06526.4869-.01051.9741-.02713 1.4607-.00933.7439.02713 1.4856.10103 2.226.17732.3948.04068 1.1809.14934 1.1809.14934l2.7114.54134s.4661.10976.6908.1913c.1942.07069.3926.14214.5646.25682.1007.06713.1884.15425.266.24731.0555.06663.1017.14155.14.21936.0344.06975.0625.14341.0793.21935.0189.08535.0233.26131.0233.26131l.0141 2.52942-.0093 11.08369s-.0791.4135-.1353.6161c-.0469.1692-.0959.3393-.168.4994-.0641.1423-.1492.2744-.2333.4059-.0972.1526-.1941.3069-.3128.4433-.126.1456-.2731.272-.4198.3967-.1566.1331-.4902.3734-.4902.3734-2.4352 1.8391-5.0019 3.7873-7.2382 5.4882z" fill="#2d315f" fill-rule="evenodd"/><path d="m8.97258 19.9553-.5816-.4178-.59381.4.21765-.682-.56397-.4411.71603-.0038.24528-.6726.22486.6798.71562.0253-.57704.4239zm-.25512-6.2815-.50897-.3657-.51981.3501.19053-.5971-.49371-.3861.62678-.0034.21478-.5888.1968.595.62636.0223-.50516.3711zm.13816-5.30147-.55465-.39861-.56643.38157.20765-.65068-.53796-.42082.68297-.00364.23394-.64162.21443.6484.68264.02424-.55042.40429zm7.48578-.96131-.5548-.39862-.5664.38157.2076-.65076-.5379-.42082.683-.00356.2339-.64161.2145.64839.6826.02415-.5504.4043zm2.5666 5.27348-.5546-.3986-.5665.3816.2077-.6507-.538-.4207.6829-.0036.234-.6416.2145.6484.6826.0242-.5504.4043zm-4.8534 3.5001-.5548-.3986-.5665.3818.2077-.6508-.5379-.4208.683-.0036.2339-.6417.2144.6484.6827.0242-.5504.4043z" fill="#fff"/><path clip-rule="evenodd" d="m16.4268 11.5456-.0187-2.46403s.3461.19469.5321.26139c.1144.04102.2336.07408.3546.08391.1368.01136.2778.0061.4107-.02797.1295-.03305.2562-.089.364-.16782.0746-.05484.1325-.13053.1867-.20545.0483-.06662.1214-.21469.1214-.21469s.3158.0706.4759.06527c.1237-.00399.2474-.0329.364-.07459.1258-.04493.2487-.10536.3547-.18664.0907-.06967.1738-.15426.2333-.25207.0429-.07052.0698-.15171.084-.23325.0118-.06738.0056-.13714 0-.20528-.0026-.07035-.0193-.1346-.0467-.19605l1.3067.20537z" fill="#fff" fill-rule="evenodd"/><path d="m23.6863 8.38133-.5547-.39853-.5665.38158.2076-.65068-.5378-.42074.6829-.00356.234-.64162.2144.6484.6827.02415-.5504.4043z" fill="#fff"/><g clip-rule="evenodd" fill-rule="evenodd"><path d="m9.52936 16.7724.00932-8.56816 1.66142-.32674s.0339.19833.0746.28937c.0367.08178.0895.15705.1494.22392.1327.14799.28.29284.4574.38268.1628.08247.3503.11256.532.13052.1458.01459.2953.01035.4387-.01864.0879-.01755.252-.09323.252-.09323s.12.23079.2101.32208c.0881.08933.1992.15629.3128.20994.1173.05552.245.09019.3732.11188.132.02263.2676.0267.4014.01881.1511-.00898.3019-.03458.448-.07458.1158-.03196.3359-.13078.3359-.13078v3.22013l-2.9962 2.3053.0048-.3873s.154-.0864.2194-.1447c.1155-.1027.2156-.2242.2987-.3546.1032-.162.1792-.3414.2427-.5227.0392-.1118.0612-.2291.0839-.3454.0199-.1011.0457-.3058.0457-.3058s-.109.0263-.1646.0329c-.0951.0112-.287.0106-.287.0106s.1799-.0676.2675-.1072c.0565-.0256.112-.0533.1658-.0839.0772-.0443.1597-.0831.2247-.1438.1299-.1217.2274-.2758.3172-.4294.0844-.1444.15-.2998.2054-.4575.148-.4215.2049-.8702.336-1.2973.0435-.1421.1493-.4201.1493-.4201s-.1958-.02322-.2894 0c-.0581.01441-.113.04543-.1586.08408-.0899.07585-.1471.18372-.2147.27992-.1257.1786-.23.3715-.3547.5507-.0622.0894-.1263.1777-.1959.2614-.0353.0424-.1121.1212-.1121.1212s-.3565-.2183-.4574-.3919c-.0493-.0849-.0337-.1937-.0559-.2894-.0242-.1036-.0841-.308-.0841-.308s.161-.26799.224-.41064c.0348-.0784.0746-.15765.0839-.24275.009-.08094.0006-.16638-.0279-.24266-.025-.06712-.0596-.14112-.1213-.17739-.0296-.01738-.1027-.00933-.1027-.00933l-.5785.37336s-.0776-.0478-.1214-.05594c-.0474-.0089-.0996-.00814-.1447.00932-.1208.04662-.2053.15807-.3034.24266-.0449.03882-.1305.12121-.1305.12121s-.1537-.06273-.2335-.05595c-.0471.00407-.0936.02628-.1305.05595-.0208.01695-.0366.04068-.0466.06543-.0155.03788-.026.08111-.0186.12137.0311.17206.1922.29476.2565.45736.05.1266.0787.2619.098.3967.0206.1432.0248.2893.0186.4339-.0112.2695-.0435.5396-.1025.8027-.0596.265-.165.5175-.2521.7746-.0783.2314-.1332.4727-.2427.6908-.0775.1543-.2894.4294-.2894.4294s-.111.0999-.1307.168c-.013.0451-.0102.0999.014.14.026.0433.0788.0664.126.084.0471.0174.1494.0186.1494.0186s.0817.1336.112.2054c.0532.126.0958.2576.1212.392.0158.0828.0139.1678.0187.252.0044.0746.0078.1494.0095.224.0023.1151.0049.2304 0 .3454-.0032.0718-.0187.2147-.0187.2147z" fill="#fff"/><path d="m7.92255 21.5233s.17799.3502.28623.5135c.10484.1579.21748.3125.35004.448.20656.211.45405.3775.68603.56.18028.1417.54838.4153.54838.4153v-3.3741z" fill="#b0382a"/><path d="m9.79346 20.086 2.51504-1.9023v7.1874l-2.51504-1.9109" fill="#fff"/><path d="m12.308 18.1837 2.4222-1.8941v10.9427l-2.4222-1.8613" fill="#b0382a"/><path d="m14.7299 27.2322 1.2706.9833 1.2408-.9833v-12.8434l-2.5114 1.9007" fill="#fff"/><path d="m17.2416 27.2322 2.4354-1.8545v-12.8634l-2.4354 1.8743" fill="#b0382a"/><path d="m19.6769 25.3775 2.498-1.8743v-12.9029l-2.498 1.914" fill="#fff"/><path d="m22.1754 10.6005 2.0426-1.53116v11.70816s-.0291.2023-.0484.3027c-.0214.1112-.0406.2233-.0745.3314-.0409.1296-.0936.2561-.1541.378-.0526.1055-.1133.2075-.1807.3042-.0864.1246-.1812.2442-.286.3537-.1364.1424-.2916.2662-.4433.392-.278.2304-.8556.6639-.8556.6639" fill="#b0382a"/></g></svg>