<svg xmlns="http://www.w3.org/2000/svg" width="32" height="32" fill="none"><circle cx="16" cy="16" r="16" fill="#fff"/><path fill="#2D315F" fill-rule="evenodd" d="m15.993 29.107-7.831-5.945s-.386-.388-.541-.612a3.88 3.88 0 0 1-.406-.77 3.573 3.573 0 0 1-.182-.648A3.325 3.325 0 0 1 7 20.824l.005-13.805s.086-.23.154-.331a1.32 1.32 0 0 1 .266-.29c.104-.084.224-.147.345-.205a4.61 4.61 0 0 1 .705-.261c.635-.184 1.941-.41 1.941-.41s.736-.128 1.106-.178a38.522 38.522 0 0 1 2.343-.262c.591-.043 1.185-.052 1.778-.065.487-.01.974-.027 1.46-.01.744.028 1.486.102 2.227.178.394.04 1.18.15 1.18.15l2.712.54s.466.11.69.192c.195.07.393.142.565.257a1.273 1.273 0 0 1 .406.467c.035.07.063.143.08.219.018.085.023.261.023.261L25 9.801l-.01 11.083s-.078.414-.135.616a3.46 3.46 0 0 1-.168.5c-.064.142-.149.274-.233.406-.097.152-.194.307-.313.443a3.787 3.787 0 0 1-.42.397c-.156.133-.49.373-.49.373-2.435 1.84-5.002 3.788-7.238 5.488Z" clip-rule="evenodd"/><path fill="#fff" d="m8.973 19.955-.582-.417-.594.4.218-.682-.564-.442.716-.003.245-.673.225.68.716.025-.577.424.197.688Zm-.256-6.281-.509-.366-.52.35.191-.597-.493-.386.626-.003.215-.59.197.596.626.022-.505.371.172.603Zm.139-5.302L8.3 7.974l-.566.381.207-.65-.538-.421.683-.004.234-.641.215.648.682.024-.55.404.188.657Zm7.485-.961-.554-.399-.567.382.208-.65-.538-.422.683-.003.234-.642.214.649.683.024-.55.404.187.657Zm2.567 5.274-.555-.4-.566.383.208-.651-.538-.42.683-.005.233-.641.215.648.683.024-.55.405.187.656Zm-4.853 3.5-.555-.399-.567.382.208-.651-.538-.42.683-.004.234-.642.214.648.683.024-.55.405.188.657Z"/><path fill="#fff" fill-rule="evenodd" d="m16.427 11.546-.019-2.464s.346.194.532.261c.115.041.234.074.355.084.137.011.278.006.41-.028.13-.033.257-.09.365-.168a.904.904 0 0 0 .186-.205c.049-.067.122-.215.122-.215s.315.07.476.065c.123-.004.247-.033.364-.074a1.32 1.32 0 0 0 .354-.187.944.944 0 0 0 .233-.252.672.672 0 0 0 .085-.233c.011-.068.005-.137 0-.206a.522.522 0 0 0-.047-.196l1.306.206-4.722 3.612Z" clip-rule="evenodd"/><path fill="#fff" d="m23.686 8.381-.554-.398-.567.381.208-.65-.538-.421.683-.004.234-.641.214.648.683.024-.55.405.187.656Z"/><path fill="#fff" fill-rule="evenodd" d="m9.53 16.772.009-8.568 1.661-.327s.034.199.075.29c.036.082.09.157.15.224.132.148.28.293.457.382.162.083.35.113.532.131.145.015.295.01.438-.019.088-.017.252-.093.252-.093s.12.23.21.322c.088.09.2.156.313.21.117.056.245.09.373.112.132.023.268.027.402.019.15-.01.302-.035.448-.075a3.38 3.38 0 0 0 .336-.13v3.22l-2.997 2.305.005-.387s.154-.087.22-.145c.115-.103.215-.224.298-.355.104-.162.18-.341.243-.522.04-.112.061-.23.084-.346.02-.1.046-.306.046-.306s-.11.027-.165.033c-.095.011-.287.01-.287.01s.18-.067.268-.106c.056-.026.111-.054.165-.084.077-.044.16-.083.225-.144.13-.122.227-.276.317-.43.085-.144.15-.3.206-.457.148-.421.204-.87.336-1.297.043-.142.149-.42.149-.42s-.196-.024-.29 0a.399.399 0 0 0-.158.084c-.09.076-.147.183-.215.28-.125.178-.23.371-.354.55a3.81 3.81 0 0 1-.196.262c-.036.042-.113.121-.113.121s-.356-.218-.457-.392c-.05-.085-.034-.194-.056-.29-.024-.103-.084-.307-.084-.307s.161-.268.224-.41c.035-.08.075-.159.084-.244a.533.533 0 0 0-.028-.242c-.025-.067-.06-.141-.121-.178-.03-.017-.103-.01-.103-.01l-.578.374s-.078-.048-.122-.056a.27.27 0 0 0-.144.01c-.121.046-.206.158-.304.242-.045.04-.13.122-.13.122s-.154-.063-.234-.056a.25.25 0 0 0-.13.056.223.223 0 0 0-.065.187c.03.171.192.294.256.457.05.126.079.262.098.396.02.144.025.29.018.434-.01.27-.043.54-.102.803-.06.265-.165.518-.252.775-.078.231-.133.472-.243.69-.077.155-.29.43-.29.43s-.11.1-.13.168c-.013.045-.01.1.014.14.026.043.079.066.126.084.047.017.15.018.15.018s.081.134.112.206c.053.126.095.257.12.392.016.083.015.168.02.252.004.074.007.15.009.224.002.115.005.23 0 .345-.003.072-.019.215-.019.215l-1.083.821Z" clip-rule="evenodd"/><path fill="#B0382A" fill-rule="evenodd" d="M7.923 21.523s.178.35.286.514c.105.158.217.312.35.448.206.21.454.377.686.56.18.141.548.415.548.415v-3.374l-1.87 1.437Z" clip-rule="evenodd"/><path fill="#fff" fill-rule="evenodd" d="m9.793 20.086 2.516-1.902v7.187l-2.516-1.91" clip-rule="evenodd"/><path fill="#B0382A" fill-rule="evenodd" d="m12.308 18.184 2.422-1.894v10.942l-2.422-1.861" clip-rule="evenodd"/><path fill="#fff" fill-rule="evenodd" d="m14.73 27.232 1.27.983 1.241-.983V14.39l-2.511 1.9" clip-rule="evenodd"/><path fill="#B0382A" fill-rule="evenodd" d="m17.242 27.232 2.435-1.854V12.514l-2.435 1.875" clip-rule="evenodd"/><path fill="#fff" fill-rule="evenodd" d="m19.677 25.378 2.498-1.875V10.6l-2.498 1.914" clip-rule="evenodd"/><path fill="#B0382A" fill-rule="evenodd" d="m22.175 10.6 2.043-1.53v11.707s-.03.203-.048.303c-.022.111-.041.224-.075.332a2.642 2.642 0 0 1-.62 1.036c-.137.142-.292.266-.444.392-.278.23-.856.663-.856.663" clip-rule="evenodd"/></svg>