<svg fill="none" height="32" viewBox="0 0 32 32" width="32" xmlns="http://www.w3.org/2000/svg" xmlns:xlink="http://www.w3.org/1999/xlink"><clipPath id="a"><path d="m0 0h32v32h-32z"/></clipPath><g clip-path="url(#a)"><path clip-rule="evenodd" d="m15.9871 32.0004-10.39483-7.8921s-.51303-.5143-.71858-.8115c-.21905-.3168-.39624-.6643-.53891-1.0221-.11025-.2768-.18541-.5682-.24166-.8611-.02588-.1346-.04332-.4089-.04332-.4089l.00619-18.32391s.11453-.30545.20443-.4399c.09675-.14457.21803-.27451.35327-.38398.13782-.11195.2978-.19576.45824-.27249.30005-.14334.61597-.25427.93538-.34686.84334-.244141 2.57696-.545208 2.57696-.545208s.977-.16876 1.46823-.235476c1.0333-.140408 2.0694-.270016 3.1097-.34697.785-.0580537 1.573-.0697544 2.3601-.0866304.6463-.01395079 1.2931-.0360021 1.939-.0123757.9874.0360021 1.972.1341081 2.9548.2353631.524.054004 1.5675.198237 1.5675.198237l3.599.71858s.6188.14569.917.25393c.2578.09383.5211.18867.7495.34089.1337.08911.2501.20476.353.32829.0737.08844.135.18789.1859.29117.0456.09259.083.19036.1053.29117.0251.11329.0309.34686.0309.34686l.0187 3.35753-.0124 14.71248s-.105.5488-.1795.8177c-.0623.2247-.1274.4504-.2231.6629-.085.189-.198.3643-.3096.5389-.1291.2025-.2577.4073-.4152.5884-.1673.1933-.3625.3611-.5573.5265-.2078.1767-.6506.4957-.6506.4957-3.2325 2.4412-6.6396 5.0273-9.608 7.285z" fill="#2d315f" fill-rule="evenodd"/><path d="m6.66821 19.8521-.77202-.5546-.78822.531.28891-.9053-.74861-.5856.95045-.005.32559-.8928.29848.9023.9499.0337-.76595.5626zm-.33865-8.3381-.6756-.4854-.69.4647.25291-.7925-.65535-.5126.83199-.0045.28509-.78149.26124.78979.83142.0296-.67054.4925zm.18339-7.0371-.73624-.52912-.75188.5065.27564-.86371-.71408-.5586.90657-.00483.31052-.85168.28464.86068.90613.03217-.73062.53666zm9.93655-1.27605-.7364-.52912-.7519.5065.2756-.86382-.714-.5586.9066-.00472.3105-.851676.2847.860676.9061.03206-.7306.53666zm3.4069 6.99995-.7362-.52903-.7519.50653.2757-.86374-.7142-.55848.9065-.00472.3106-.85168.2848.86068.906.03206-.7306.53666zm-6.4423 4.646-.7365-.5291-.752.5068.2757-.8638-.714-.5586.9066-.0048.3105-.8517.2846.8607.9062.0321-.7306.5366z" fill="#fff"/><path clip-rule="evenodd" d="m16.5628 8.68914-.0247-3.27079s.4594.25843.7062.34697c.1519.05445.3101.09833.4708.11138.1815.01508.3687.0081.5451-.03713.1719-.04387.3401-.11813.4832-.22276.099-.07279.1759-.17326.2478-.27272.0641-.08843.1611-.28497.1611-.28497s.4193.09371.6317.08663c.1643-.00529.3285-.04366.4832-.09901.167-.05963.3301-.13985.4709-.24774.1204-.09248.2306-.20476.3097-.33459.0569-.09361.0926-.20139.1114-.30962.0157-.08944.0075-.18204 0-.27249-.0034-.09338-.0256-.17866-.0619-.26023l1.7345.2726z" fill="#fff" fill-rule="evenodd"/><path d="m26.1991 4.48884-.7364-.52901-.7519.50651.2756-.86371-.7139-.55849.9065-.00472.3106-.85168.2846.86068.9061.03206-.7306.53666z" fill="#fff"/><g clip-rule="evenodd" fill-rule="evenodd"><path d="m7.40723 15.6271.01237-11.37332 2.20535-.43371s.04501.26326.09901.3841c.04872.10856.11881.20847.19835.29724.17619.19643.37169.38871.60709.50796.2162.10947.465.14941.7062.17326.1935.01936.392.01373.5824-.02475.1166-.02329.3345-.12375.3345-.12375s.1593.30635.2788.42752c.117.11858.2644.20746.4152.27868.1558.07369.3253.11971.4954.14851.1752.03004.3553.03544.5328.02497.2006-.01192.4008-.0459.5947-.099.1538-.04242.4459-.1736.4459-.1736v4.27435l-3.9771 3.06014.0063-.5141s.2044-.1148.2912-.1921c.1534-.1363.2863-.2977.3966-.4707.137-.2151.2378-.4532.3221-.6938.052-.1485.0812-.3041.1114-.4585.0264-.1342.0607-.4059.0607-.4059s-.1448.0349-.2186.0436c-.1262.0149-.3809.0141-.3809.0141s.2388-.0898.3551-.1423c.0749-.034.1487-.0707.2201-.1114.1024-.05873.2119-.11025.2982-.19092.1724-.16145.3018-.3661.4211-.56996.112-.1916.1991-.39793.2726-.6072.1964-.55949.272-1.15521.446-1.72213.0577-.18856.1982-.55759.1982-.55759s-.2599-.03082-.3841 0c-.0772.01913-.15.06031-.2106.11161-.1193.10069-.1952.24391-.285.37161-.1668.23705-.3053.49312-.4708.73095-.0826.1187-.1677.23593-.2601.34697-.0468.05626-.1488.16089-.1488.16089s-.4731-.28982-.6071-.52023c-.0654-.11273-.0447-.25708-.0742-.3841-.0321-.13748-.1116-.40885-.1116-.40885s.2137-.35574.2973-.54509c.0462-.10407.099-.20926.1114-.32222.0119-.10744.0008-.22085-.0371-.32211-.0332-.0891-.079-.18732-.1609-.23547-.0394-.02307-.1364-.01238-.1364-.01238l-.7679.49559s-.103-.06345-.1611-.07425c-.063-.01181-.1322-.0108-.1921.01237-.1603.06188-.27247.20983-.40275.32211-.05963.05153-.17326.16089-.17326.16089s-.20398-.08326-.30984-.07426c-.06256.0054-.12432.03488-.17326.07426-.02768.0225-.04861.054-.06188.08685-.02059.05029-.03454.10767-.02475.16111.04129.22839.25516.3913.34055.60708.06638.16809.10441.34765.13006.52653.02734.19014.03296.3841.02475.57604-.01496.35777-.05783.71621-.13613 1.06543-.07909.35181-.21905.68697-.3346 1.02827-.10395.3072-.17686.6275-.32221.917-.10283.2047-.3841.5699-.3841.5699s-.14738.1326-.17349.223c-.01721.0599-.0135.1326.01857.1859.03454.0574.10463.0881.16729.1114.06245.0232.19824.0247.19824.0247s.10846.1774.14873.2727c.07066.1673.12714.342.16089.5204.02093.1099.01845.2227.02475.3345.00585.099.01046.1982.0126.2973.00315.1528.00653.3058 0 .4585-.00416.0953-.02475.2849-.02475.2849z" fill="#fff"/><path d="m5.27441 21.9334s.23627.4649.37994.6816c.13917.2096.28869.4149.46465.5947.27418.2801.6027.5011.91063.7433.2393.1882.72792.5513.72792.5513v-4.4787z" fill="#b0382a"/><path d="m7.75781 20.0256 3.33839-2.5251v9.5405l-3.33839-2.5365" fill="#fff"/><path d="m11.0957 17.5005 3.2152-2.5142v14.5252l-3.2152-2.4707" fill="#b0382a"/><path d="m14.3105 29.5113 1.6865 1.3053 1.6471-1.3053v-17.0482l-3.3336 2.523" fill="#fff"/><path d="m17.6445 29.5114 3.2327-2.4617v-17.07485l-3.2327 2.48805" fill="#b0382a"/><path d="m20.877 27.0495 3.3159-2.488v-17.12717l-3.3159 2.54062" fill="#fff"/><path d="m24.1934 7.43453 2.7114-2.03243v15.5414s-.0386.2685-.0642.4017c-.0284.1476-.054.2964-.099.4399-.0542.1721-.1242.34-.2045.5018-.0698.1401-.1504.2754-.2399.4038-.1147.1654-.2405.3241-.3796.4695-.1811.189-.387.3533-.5884.5204-.369.3058-1.1358.8812-1.1358.8812" fill="#b0382a"/></g></g></svg>