<svg xmlns="http://www.w3.org/2000/svg" width="32" height="32" fill="none"><path fill="#2E3148" d="M16 32c8.837 0 16-7.163 16-16S24.837 0 16 0 0 7.163 0 16s7.163 16 16 16Z"/><path fill="#1B1E36" d="M16 25.284a9.284 9.284 0 1 0 0-18.568 9.284 9.284 0 0 0 0 18.568Z"/><path fill="#6F7390" d="M16.033 2.041c-1.727 0-3.128 6.264-3.128 13.992 0 7.727 1.4 13.992 3.128 13.992 1.727 0 3.127-6.265 3.127-13.992 0-7.728-1.4-13.992-3.127-13.992Zm.216 27.194c-.198.264-.395.066-.395.066-.796-.922-1.193-2.634-1.193-2.634-1.391-4.477-1.06-14.09-1.06-14.09.653-7.632 1.843-9.435 2.247-9.835a.247.247 0 0 1 .317-.026c.588.416 1.08 2.156 1.08 2.156 1.454 5.4 1.323 10.47 1.323 10.47.131 4.411-.73 9.35-.73 9.35-.662 3.752-1.59 4.543-1.59 4.543Z"/><path fill="#6F7390" d="M28.17 9.07c-.86-1.499-6.99.404-13.697 4.25-6.706 3.845-11.436 8.177-10.577 9.675.86 1.498 6.99-.404 13.696-4.25C24.298 14.9 29.03 10.569 28.17 9.07ZM4.69 22.79c-.33-.042-.255-.313-.255-.313.403-1.148 1.689-2.345 1.689-2.345 3.192-3.435 11.696-7.931 11.696-7.931 6.945-3.231 9.102-3.095 9.649-2.944a.247.247 0 0 1 .179.263c-.066.717-1.333 2.01-1.333 2.01-3.957 3.95-8.42 6.359-8.42 6.359-3.762 2.31-8.473 4.02-8.473 4.02-3.585 1.292-4.732.88-4.732.88Z"/><path fill="#6F7390" d="M28.139 23.045c.866-1.494-3.852-5.847-10.535-9.72C10.922 9.45 4.793 7.522 3.927 9.02c-.866 1.497 3.852 5.847 10.538 9.72 6.686 3.875 12.808 5.802 13.674 4.304ZM4.5 9.598c-.128-.303.142-.376.142-.376 1.197-.226 2.877.289 2.877.289 4.572 1.04 12.723 6.147 12.723 6.147 6.276 4.391 7.239 6.326 7.383 6.875a.247.247 0 0 1-.137.287c-.654.3-2.407-.147-2.407-.147-5.403-1.448-9.723-4.102-9.723-4.102-3.882-2.094-7.721-5.316-7.721-5.316C4.721 10.8 4.502 9.602 4.502 9.602v-.004Z"/><path fill="#B7B9C8" d="M16 17.646a1.646 1.646 0 1 0 0-3.292 1.646 1.646 0 0 0 0 3.292Zm6.749-6.979c.527 0 .955-.443.955-.988 0-.546-.428-.988-.955-.988-.527 0-.955.442-.955.988 0 .545.428.988.955.988ZM7.078 14.025c.527 0 .955-.443.955-.988 0-.546-.428-.988-.955-.988-.527 0-.955.443-.955.988 0 .545.428.988.955.988Zm6.98 12.115c.527 0 .954-.442.954-.988 0-.545-.427-.987-.954-.987-.528 0-.955.442-.955.987 0 .546.427.988.955.988Z"/></svg>