<svg fill="none" height="32" viewBox="0 0 32 32" width="32" xmlns="http://www.w3.org/2000/svg"><path d="m16 32c8.8366 0 16-7.1634 16-16 0-8.83656-7.1634-16-16-16-8.83656 0-16 7.16344-16 16 0 8.8366 7.16344 16 16 16z" fill="#2e3148"/><path d="m16 25.2841c5.1274 0 9.284-4.1566 9.284-9.2839 0-5.1274-4.1566-9.28401-9.284-9.28401s-9.28394 4.15661-9.28394 9.28401c0 5.1273 4.15654 9.2839 9.28394 9.2839z" fill="#1b1e36"/><path d="m16.0329 2.04108c-1.7271 0-3.1276 6.26432-3.1276 13.99182s1.4005 13.9918 3.1276 13.9918 3.1275-6.2643 3.1275-13.9918-1.4004-13.99182-3.1275-13.99182zm.2159 27.19402c-.1975.2634-.395.0658-.395.0658-.7954-.9216-1.1931-2.6338-1.1931-2.6338-1.3912-4.4773-1.0601-14.0905-1.0601-14.0905.6538-7.63184 1.8432-9.43472 2.2479-9.83498.0414-.04085.0958-.06581.1537-.0705.0579-.00468.1157.01122.163.0449.5873.41613 1.0798 2.15642 1.0798 2.15642 1.4545 5.39916 1.3228 10.46916 1.3228 10.46916.1317 4.4115-.7289 9.3497-.7289 9.3497-.6624 3.753-1.5901 4.5438-1.5901 4.5438z" fill="#6f7390"/><path d="m28.1692 9.06976c-.8599-1.49863-6.9899.40422-13.696 4.24964-6.70601 3.8453-11.43637 8.1778-10.57711 9.6757.85927 1.498 6.98991-.4042 13.69601-4.2496 6.706-3.8453 11.4364-8.1778 10.5771-9.67574zm-23.47976 13.71984c-.32922-.0415-.25485-.3121-.25485-.3121.40384-1.1483 1.68896-2.3453 1.68896-2.3453 3.1927-3.435 11.69655-7.9316 11.69655-7.9316 6.9445-3.23094 9.1015-3.09462 9.6487-2.94396.0562.01567.105.05072.1378.09894.0328.04821.0475.10648.0414.16448-.0658.71684-1.3333 2.00964-1.3333 2.00964-3.9568 3.9499-8.4203 6.3591-8.4203 6.3591-3.761 2.3104-8.47268 4.0204-8.47268 4.0204-3.58515 1.2919-4.73216.8804-4.73216.8804z" fill="#6f7390"/><path d="m28.1388 23.0454c.8666-1.4947-3.8519-5.8469-10.5344-9.7212-6.6825-3.87434-12.81174-5.80074-13.67753-4.30352s3.8519 5.84692 10.53823 9.72122c6.6863 3.8743 12.8079 5.8008 13.6737 4.3035zm-23.63772-13.44719c-.128-.30349.14221-.37657.14221-.37657 1.19629-.22592 2.87667.28889 2.87667.28889 4.57154 1.04107 12.72314 6.14717 12.72314 6.14717 6.2763 4.3918 7.2388 6.3263 7.3831 6.8754.0147.0563.009.116-.0161.1686-.0251.0525-.0679.0945-.1209.1185-.6544.2997-2.4073-.1468-2.4073-.1468-5.4025-1.4486-9.7231-4.1027-9.7231-4.1027-3.8821-2.0938-7.72083-5.3155-7.72083-5.3155-2.91686-2.456-3.13599-3.65366-3.13599-3.65366z" fill="#6f7390"/><g fill="#b7b9c8"><path d="m16 17.6463c.9091 0 1.646-.737 1.646-1.6461s-.7369-1.6461-1.646-1.6461-1.6461.737-1.6461 1.6461.737 1.6461 1.6461 1.6461z"/><path d="m22.7489 10.6666c.5273 0 .9548-.4422.9548-.98764 0-.54546-.4275-.98765-.9548-.98765s-.9547.44219-.9547.98765c0 .54544.4274.98764.9547.98764z"/><path d="m7.07813 14.0246c.52729 0 .95475-.4422.95475-.9877 0-.5454-.42746-.9876-.95475-.9876s-.95475.4422-.95475.9876c0 .5455.42746.9877.95475.9877z"/><path d="m14.0576 26.14c.5273 0 .9548-.4422.9548-.9877 0-.5454-.4275-.9876-.9548-.9876s-.9547.4422-.9547.9876c0 .5455.4274.9877.9547.9877z"/></g></svg>