<svg fill="none" height="32" viewBox="0 0 32 32" width="32" xmlns="http://www.w3.org/2000/svg"><path d="m16 32c8.8366 0 16-7.1634 16-16 0-8.83656-7.1634-16-16-16-8.83656 0-16 7.16344-16 16 0 8.8366 7.16344 16 16 16z" fill="#eff4f4"/><path d="m17.8961 8.10695c.4994.8611 1.0031 1.7179 1.5026 2.57905.4865.8438.973 1.6877 1.4595 2.5316.0345.0603.0905.1119.0905.1894.0129.211.1463.366.2325.5468.0818.1679.1722.3316.2368.5038.0688.1894.0301.2927-.1421.4004-.0474.0301-.1034.0517-.1507.0818-.1679.1033-.1981.2368-.0904.3961.0689.1076.2454.1894.1421.3444-.1077.1636-.2713.2713-.4823.2756-.1076-.0258-.155-.1163-.2066-.2024-.4435-.762-.887-1.5198-1.3433-2.312.1205.4607.1765.9041.2669 1.339.1119.5382.4262.9687.7879 1.3562.1808.1938.4435.0947.676.0775.0645.0086.1076.0431.1334.0947.0259.0517.0603.1034.0474.168-.0215.1162-.1076.1334-.211.1377-.7707.0129-1.5844-.62-1.7652-1.3734-.0431-.1722-.0904-.3488-.2024-.4952-.0086-.0215-.0172-.043-.0258-.0645-.099-.4521-.2368-.8956-.3358-1.3434-.1163-.5295-.2498-1.0505-.4392-1.5586-.0947-.2583-.0818-.5338-.1335-.8008-.0732-.3702-.1119-.7491-.1033-1.12802 0-.06458-.0172-.13347-.0732-.17222-.155-.11625-.1765-.27986-.1808-.46069-.013-.29277.0258-.58555.0516-.87832.0086-.155.0818-.25833.2584-.2325z" fill="#d000d1"/><path d="m26.2531 23.9598c-.0775.0517-.1636.0388-.2497.0388-4.9987-.0043-9.9973-.0086-15.0003-.013-.0732 0-.1421-.0043-.2153-.0129-.4047-.0646-.62-.4477-.4219-.8008.4004-.719.8266-1.4251 1.2399-2.1398.1163-.0043.2024.0689.2885.1334 1.184.8654 2.3766 1.7222 3.5607 2.5876.1033.0775.2066.1163.3358.112.3573-.0172.7147.0258 1.0721-.0086.1894-.0172.3745.0473.564 0 .1851-.0129.3746.0516.5597 0 .5425.0215 1.085-.0215 1.6275.0258.043.0043.0818-.0172.1248-.0258.5813.0258 1.1625-.0302 1.7438.0301.0516.0043.099-.0172.1463-.0301.4607.0043.9214 0 1.3821.0086.5985-.0086 1.1969-.0129 1.7954.0086.1636-.0387.3315.0172.4951-.0086.2325-.0129.4693-.0086.7018 0 .0991-.0043.1981-.0086.2497.0947z" fill="#260c80"/><path d="m19.7431 23.9469c-.5899 0-1.1754 0-1.7653 0-.465-.1895-.8266-.5296-1.2271-.8181-1.382-.9945-2.7598-1.9934-4.1332-3.0009-.1249-.0904-.31-.1464-.2799-.3616.1636-.4177.3488-.5468.7836-.5468.1421 0 .2842.0043.4263.0043.0172.0129.0301.0258.043.0387.0603.0603.1249.1119.1722.1894.3359.5684.7449 1.085 1.1754 1.5802.9515 1.0247 2.1442 1.593 3.5004 1.8599.0689.013.1421.0259.2067.0603.1851.2325.465.3402.6888.5296.0991.0818.2067.1507.31.2282.0689.0603.1421.1248.0991.2368z" fill="#2a0e8e"/><path d="m15.1837 13.4845c-.2712.0259-.409.2196-.5296.4349-.1076.0258-.1291-.0603-.1636-.1292-.2454-.5382-.5209-1.0591-.8223-1.5672-.0431-.0689-.0732-.1377-.0517-.2195.0517-.1206-.0043-.2412 0-.3617.0043-.8697 0-1.73512.0043-2.60483 0-.10764-.0129-.21528.056-.31.1507-.11625.2411 0 .3143.09903.2712.35735.5339.71901.7793 1.09359.1378.21531.2712.43481.4004.65871.0603.1077.1593.211.0904.3531.0344.7405.0129 1.4811.0172 2.2216 0 .1163.0216.2454-.0947.3315z" fill="#7b1ac4"/><path d="m13.7628 8.70971c-.0646.08181-.0431.17653-.0431.27125v2.72964c0 .1206-.0086.2412-.043.3617-.0991.0344-.1206-.0517-.1593-.1076-.323-.4952-.6717-.9731-1.0807-1.4079-.1766-.1895-.3832-.3402-.5727-.5124-.099-.0904-.2325-.14637-.2583-.30137.3961-.73193.8138-1.45095 1.2486-2.16136.0904-.01291.1507.03875.2024.10334.2152.27124.4607.52096.6716.80082.0517.06889.1077.13777.0345.22388z" fill="#781ac3"/><path d="m14.413 4.87784c.1162-.20666.2195-.41763.3444-.61138.2325-.36166.719-.35305.9429.01292.155.24972.2885.51235.4306.76638.0129.16361-.0991.22819-.2239.27124-.1507.05598-.1679.14209-.1077.28417.2885.67596.5985 1.34762.8439 2.0408.2497.70611.4779 1.42082.732 2.12262.1377.38751.2109.79651.4133 1.16251.2023.4994.3272 1.0204.4693 1.537.2325.831.4219 1.6749.6587 2.5058.1809.6416.521 1.2099 1.1367 1.55.2583.1421.5468.2067.8395.2239.0775.0043.1421-.0086.1637-.099.0301-.1163.1248-.1679.2368-.1938.3272-.0689.6243-.2023.9127-.3616.0904-.0474.1852-.0904.2799-.013.0258.0431.0516.0862.0775.1292-.0517.1464-.1852.2153-.3014.2928-.1894.1292-.3832.2497-.6028.3229-.2583.0904-.2583.0904-.1765.3487-.0086.0345-.0301.0603-.0603.0775-.5898.1809-1.1323.0732-1.6232-.2798-.5855-.4133-.8826-1.0161-1.0677-1.6835-.2024-.7276-.3875-1.4638-.577-2.1958-.3099-1.2098-.6974-2.3938-1.1452-3.56062-.0947-.24541-.2067-.48652-.3057-.73193-.366-.92138-.831-1.7997-1.3735-2.63066-.2497-.38319-.5252-.74485-.818-1.0979-.0431-.06028-.0904-.11195-.099-.18945z" fill="#df00da"/><path d="m16.8155 23.9469c-.3789 0-.7578.0043-1.1367.0043-.0732 0-.1378-.0086-.2024-.056-1.2485-.9127-2.4971-1.8212-3.7414-2.7296-.0517-.0388-.112-.0689-.1249-.1378.112-.2282.2368-.4478.3832-.6545.1162-.0344.1937.0388.2712.0991.9085.6587 1.817 1.3175 2.7254 1.9762.5554.4047 1.1151.8008 1.6663 1.2098.0904.0689.2066.1378.1593.2885z" fill="#280d86"/><path d="m18.1028 19.2066c.3831-.2454.4434-.4865.2152-.8827-.1722-.3056-.3444-.6113-.5123-.9127.0215-.1765-.0259-.3488-.0086-.5253.0086-.0775-.0043-.155.043-.2239.1163-.1076.1679.0043.2153.0732.2067.3143.4349.6157.676.9042.3272.3875.7147.6889 1.1711.9084.0818.0388.1549.0689.1679.1723.0387.3961.0775.7922-.0216 1.1883-.1033.1291-.2411.0904-.3745.0689-.0861-.013-.1636-.0474-.2498-.0603-.4348-.0947-.8309-.2713-1.2098-.5038-.0775-.0516-.1464-.099-.1119-.2066z" fill="#831bc8"/><path d="m12.3333 17.9235c-.0904.1938-.1808.3832-.4219.4306-.1119.043-.2325.0086-.3444.0215-.465-.2282-.8525-.5683-1.2702-.8654-.64578-.4607-1.2916-.9214-1.92451-1.3993-.11195-.0818-.25403-.155-.19375-.3401.22388-.1809.50374-.168.76207-.2282.22389.0129.40041.1464.57263.2712.88696.6372 1.76526 1.2874 2.65646 1.9203.0689.0516.1378.1033.1636.1894z" fill="#2c0f92"/><path d="m17.8961 8.10695c-.1249.06889-.1723.16792-.1766.31431-.0129.28416-.0559.56832-.0387.85679.0086.12917.0086.25833.1679.3143.0947.03014.0904.12056.0904.19806 0 .47789.112.95149.1378 1.42079.0301.5985.3401 1.0979.409 1.6662.056.4607.2583.887.3272 1.3477.0216.155.0775.3143.1163.4736-.1206.0258-.1163-.0689-.1378-.1421-.211-.6846-.3617-1.3821-.5511-2.0666-.1507-.5511-.3487-1.085-.4908-1.6361-.0173-.0775-.0517-.1507-.0948-.2153-.2884-.86111-.5855-1.71791-.8567-2.57901-.1766-.55971-.211-1.13665-.1981-1.7222.0043-.10333.0215-.20236.1335-.24541.3875.6243.7534 1.26151 1.0979 1.91164.0172.03014.043.06458.0646.10333z" fill="#d700d4"/><path d="m12.9448 7.4224c.0991-.21097.2153-.40902.3445-.60277.5037-.29708 1.0204-.56402 1.537-.84388.0904-.04736.1766-.09041.2842-.06458.2196.17653.3358.43055.4779.65874.0732.11625.1851.21958.1464.38319-.0258.05597-.0646.09042-.1206.11625-.6415.34014-1.2873.67596-1.9159 1.03763-.0431.02583-.0904.04305-.1421.04736-.2928-.17222-.5253-.3875-.6114-.73194z" fill="#bc27d8"/><path d="m9.66401 13.0927c.0818-.1808.18083-.3573.30138-.5166.24111.0258.37891.2239.54251.3616.8051.6889 1.6232 1.3563 2.424 2.0495.0947.0818.1593.2023.2971.2325.0559.0861.1119.1722.1593.2626.0516.1249.1593.2282.1464.3789-.0689.1162-.1378.2325-.2067.3444-.112.0474-.1938-.0129-.2713-.0775-.9429-.7965-1.8858-1.593-2.8287-2.3852-.1421-.1206-.27552-.2497-.42622-.3617-.08611-.0689-.18513-.1464-.13777-.2885z" fill="#891cca"/><path d="m8.20438 15.8138c.13778.2196.37028.3315.56833.4779.86971.6372 1.74799 1.2658 2.62639 1.8987.0602.0431.1119.0904.1248.1679-.3918.056-.7836.0086-1.1711.0259-.1291-.0043-.2239-.0861-.3229-.1507-.73192-.5081-1.44663-1.0463-2.16996-1.5672-.07319-.0517-.13347-.1077-.13777-.2024.12916-.2282.25833-.4564.3918-.6845.03444-.013.06889 0 .09041.0344z" fill="#2b0f8e"/><path d="m14.4173 14.3155c-.0775.1636-.1636.3229-.2712.4693-.155.0818-.2196-.0387-.2885-.1378-.3229-.4564-.6071-.9386-.9214-1.3993-.5597-.8223-1.1022-1.6576-1.649-2.4928-.0732-.112-.1378-.2196-.0646-.3531.0732-.155.1507-.3014.2541-.43915.1076-.04736.1334.04735.1808.10335.3832.4478.6587.9687.9902 1.4509.5555.8181 1.0979 1.6404 1.6361 2.4671.0646.1033.1163.211.1335.3315z" fill="#5611b8"/><path d="m12.9792 16.8041c-.0947.198-.2023.3875-.3315.564-.1206.0431-.1464-.0646-.1895-.1292-.3143-.452-.663-.874-1.128-1.1883-.0517-.0344-.1076-.0689-.1636-.1033-.2411-.1765-.5253-.2713-.8094-.3531-.1034-.0301-.2067-.0473-.2885-.1205-.11625-.1895-.31861-.2799-.47361-.4219-.18513-.168-.38319-.3187-.56832-.4866-.06889-.0602-.11625-.1248-.09042-.2195.10333-.2325.24111-.4478.38319-.6588.155-.0043.24111.1163.34013.2024 1.01613.8654 2.04083 1.7222 3.06123 2.5833.1076.0947.2282.1808.2583.3315z" fill="#7f1bc6"/><path d="m12.3334 17.9235c-.3616-.1421-.6329-.4133-.9429-.6286-.7362-.521-1.46385-1.0548-2.19148-1.5844-.06889-.0517-.14208-.0689-.21958-.0646-.00431-.0947.06458-.1206.13778-.1292.72332-.0516 1.42078.0216 2.04508.4349.5942.3444 1.0161.8654 1.3864 1.4294.0258.0388.0215.0818.0388.1206-.0862.1377-.168.2798-.2541.4219z" fill="#2d1097"/><path d="m7.71787 16.4553c.7836.5597 1.5715 1.1195 2.35083 1.6835.0775.0559.1679.1119.2023.2109-.34872.056-.70177-.0086-1.04621.0302-.42624.043-.77929-.0732-1.10221-.3531-.23249-.198-.49513-.3659-.74485-.5468-.07319-.0516-.13347-.1119-.13347-.2066.14639-.2799.29708-.5554.47361-.8181z" fill="#290e8a"/><path d="m11.2226 10.3975c-.0086.0947.0517.1593.0991.2325.6845 1.0333 1.3691 2.0623 2.0494 3.0956.198.2971.3918.5985.5855.8999.0474.0732.0948.1464.1895.1593-.0603.1722-.1809.3143-.267.4693-.155.0387-.2152-.0818-.2798-.1808-.5296-.7793-1.029-1.5802-1.5629-2.3595-.3445-.508-.676-1.0247-1.0118-1.5413-.0646-.099-.112-.1981-.0646-.3186.0689-.1636.1593-.31.2626-.4564z" fill="#5012b5"/><path d="m15.1836 13.4845c0-.7836 0-1.5672 0-2.3508 0-.0904-.0215-.1851.0431-.2669.0904-.0344.1291.0258.1636.0947.3746.719.7018 1.4553.9946 2.2087.0215.056.0215.112.0258.168.0086.3745.056.7491.0258 1.1237-.0086.1249-.0258.2454-.1937.2411-.1722-.2928-.3488-.5812-.5167-.8783-.1205-.2196-.2928-.3402-.5425-.3402z" fill="#7d1ac5"/><path d="m12.3333 19.7706c.2239.2583.5253.4176.7922.6157 1.2744.9342 2.5532 1.8556 3.8319 2.7856.2842.2067.5683.409.8525.6157.0603.0474.1119.1076.1679.1636-.1851 0-.3746 0-.5597 0-.521-.2368-.9429-.62-1.3993-.9472-1.2185-.8783-2.4326-1.7609-3.6425-2.6436-.099-.0732-.2281-.1291-.2109-.2884.0215-.1206.099-.211.1679-.3014z" fill="#290e8a"/><path d="m12.1654 20.0719c.6545.4779 1.3046.9602 1.959 1.4381 1.0376.7534 2.0796 1.5026 3.1172 2.256.0689.0474.1205.1206.1765.1852-.2023 0-.4004 0-.6028 0-.254-.2971-.5984-.4865-.9084-.7104-1.2701-.93-2.5446-1.8557-3.819-2.7814-.0344-.0258-.0646-.0559-.099-.0818.043-.1162.1033-.2153.1765-.3057z" fill="#290e8a"/><path d="m23.799 18.3454c.254.4349.5037.8698.7578 1.3003-.1507.2928-.4392.4392-.6846.6243-.155.1163-.2971.2669-.5081.2971-.0215 0-.043-.0043-.0645-.0129-.1292-.0689-.1766-.2067-.2368-.3229-.1335-.2455-.3014-.4693-.4048-.7277-.0344-.0603-.0516-.1205-.043-.1894 0-.0215.0043-.0431.0129-.0646.155-.2153.4133-.3014.6028-.4736.1162-.1033.2411-.2024.3487-.3143.0603-.0689.1249-.1292.2196-.1163z" fill="#8412ce"/><path d="m16.3461 13.2779c-.2841-.8052-.6501-1.5801-1.0462-2.3379-.0172-.0302-.0474-.0517-.0732-.0732-.211-.4994-.5296-.9343-.8396-1.36916-.1937-.27124-.3616-.56832-.6243-.7836-.1291-.26694-.3616-.45638-.5382-.68457-.1162-.15069-.2454-.29708-.3702-.44347.0129-.06458.0473-.11625.0904-.16361.2023.2282.4004.45639.6028.68888.0947.02153.1636.06459.2281.14209.2239.27985.4392.56402.6459.85679.254.33583.4822.68027.6932 1.04195.2238.3746.4563.7491.6243 1.1539.2238.4391.4391.8783.5941 1.3476.211.4607.3918.9343.5683 1.4079.1593.3659.3186.7362.4736 1.1065.1809.3616.366.719.5555 1.0721.2324.3573.4477.7276.719 1.0634.3444.409.7147.7793 1.1926 1.0376.6372.3402 1.2744.3402 1.9202.0431.1034-.0474.2024-.1119.3273-.0732.0645.0258.0947.0732.1033.1421 0 .0258-.0086.0516-.0215.0732-.1981.198-.465.2411-.7147.31-.3918.1076-.788.1162-1.1841.0215-.1205-.0301-.2109-.0775-.2669-.1937-.7104-.2799-1.2185-.8009-1.6619-1.3993-.155-.2067-.2971-.4177-.4478-.6286-.0947 0-.1335-.0689-.1765-.1378-.521-.8611-.9085-1.7868-1.2701-2.7211-.0603-.1593-.0517-.3401-.1034-.4994z" fill="#911ece"/><path d="m24.6212 19.7749c.2541.4133.5081.8223.7147 1.2615.0173.0947-.0387.1507-.1033.1937-.2928.2067-.5726.4306-.8869.6028-.0861.0474-.1679.0775-.2627.0517-.0645-.0345-.1119-.0861-.1507-.1464-.1679-.2885-.3444-.5683-.4994-.8654-.0301-.0603-.0517-.1163-.043-.1808 0-.0216.0043-.0431.0129-.0646.1722-.1895.4133-.2885.607-.4521.1378-.1206.2928-.2196.4263-.3488.0517-.0559.1076-.099.1851-.0516z" fill="#a121d4"/><path d="m25.4393 21.1914c.3875.6674.775 1.3347 1.1625 2.0021.0732.1291.0646.2755.0259.4176-.0948.0732-.1809.0215-.2541-.0344-.6673-.478-1.3261-.9602-1.9891-1.4381-.0388-.0301-.0775-.0646-.0947-.1119-.0129-.112.0559-.1766.1334-.2239.2799-.1593.521-.366.788-.5468.0645-.0474.1291-.1163.2281-.0646z" fill="#3b17b6"/><path d="m14.4172 14.3155c-.2023-.1808-.3143-.4219-.4607-.6415-.5554-.8267-1.1022-1.6576-1.649-2.4886-.2239-.3401-.4434-.6846-.6716-1.0247-.0474-.0689-.0818-.1507-.1593-.19807.0043-.01291.0129-.02583.0172-.03875.1291-.0818.211.00861.3014.07752.8051.6028 1.382 1.395 1.8901 2.2475.3014.5037.5726 1.0204.8094 1.5542.0431.0948.0947.1938.0474.3057-.0431.0646-.0818.1378-.1249.2067z" fill="#5c11bb"/><path d="m10.96 10.8582c.1421.3143.3574.5855.5425.874.7104 1.0936 1.4337 2.1786 2.1571 3.2636.0645.0947.1205.1937.2238.2583-.0947.1593-.1894.3229-.2798.4822-.0904-.0086-.112-.0904-.155-.1464-.2971-.5382-.5296-1.1108-.8568-1.6318-.0517-.0861-.1076-.1679-.1636-.2497-.1593-.254-.3445-.4908-.521-.7276-.1593-.211-.3703-.3789-.5898-.5253-.0732-.0473-.1421-.0947-.1766-.1808-.0344-.2067-.1937-.3401-.2927-.5124-.0689-.1248-.1679-.2325-.1809-.3832.0732-.1851.1723-.3573.2928-.5209z" fill="#4b12b3"/><path d="m16.7336 6.0834c-.1077.73624.0172 1.45095.2152 2.16136.211.76637.4564 1.51984.7234 2.26904.0129.0344.0344.0645.0516.0947.0172.1162.0904.2282 0 .3444-.1076-.1894-.1421-.4004-.2109-.6028-.1938-.57689-.4048-1.14522-.6028-1.71785-.366-1.04193-.7965-2.05803-1.2314-3.06982-.0646-.155-.0818-.27555.1378-.30569.1335-.01722.2282-.11625.3229-.20236.211.32722.409.67597.5942 1.02902z" fill="#da00d6"/><path d="m16.3462 13.2779c.1895.4693.3832.9386.5726 1.4079.2799.6759.62 1.3174.9774 1.9504v.5511c0 .0861 0 .1722-.0861.2238-.4564-.7836-.9128-1.5672-1.3692-2.3508-.0688-.1162-.1291-.2368-.1937-.3573.099-.0732.1033-.1808.1033-.2928-.0086-.3746-.0043-.7535-.0043-1.1323z" fill="#801bc6"/><path d="m9.66403 13.0927c.21097.267.49517.4564.74917.6717.6071.5253 1.2227 1.0376 1.8384 1.55.3574.2971.6975.6157 1.0764.8869-.0517.112-.0904.2325-.198.3057-.0991.0689-.1766.0172-.2498-.0431-.5597-.4692-1.1151-.9385-1.6705-1.4078-.508-.4306-1.0161-.8568-1.52415-1.2831-.11624-.099-.27124-.1851-.19374-.3832.03444-.1119.0818-.2153.17222-.2971z" fill="#841bc8"/><path d="m20.953 16.3348c-.0301-.0301-.056-.056-.0861-.0861-.1895-.0818-.2282-.1593-.1722-.3445.0559-.0301.1162-.0516.1722-.0861.0904-.0559.2196-.099.254-.1808.0474-.1119-.1162-.1507-.1765-.2368-.1421-.2024-.1033-.4306.1205-.5382.4091-.2024.3273-.1722.1852-.5425-.0861-.2282-.1895-.4478-.2885-.6673-.0344-.0775-.0818-.155-.0172-.2412.4564.788.9171 1.5802 1.3734 2.3681-.1808.2497-.4779.3186-.7319.4521-.1249.0645-.2626.1076-.4004.1463-.0775.0173-.1636.0302-.2325-.043z" fill="#d200d3"/><path d="m24.2984 22.0094c.3789.1507.6588.4435.9903.6674.4521.3014.8611.6587 1.3347.93-.0603.1851-.1808.3056-.3746.3487-.3186-.0043-.6329-.0043-.9515-.0086-.2368-.1378-.3229-.3918-.4478-.6071-.2066-.3487-.4133-.6975-.607-1.0505-.0388-.0689-.0775-.1378-.0689-.2196.0043-.0215.0129-.0431.0301-.056.0345-.0215.0646-.0258.0947-.0043z" fill="#3916b1"/><path d="m13.2031 15.2584c-.2928-.0775-.465-.3186-.6846-.4952-.6157-.4994-1.2185-1.016-1.8169-1.5327-.2454-.2153-.5253-.3961-.73627-.6501.03877-.1464.12487-.267.21957-.3789.1033.0129.1938.0559.267.1205.4908.4263.9988.831 1.4854 1.2615.1851.1637.4004.3014.5554.4995.0473.0603.1291.056.1937.0904.211.2971.3617.62.5124.9515.0172.0388.0387.0861.0043.1335z" fill="#8d1ccc"/><path d="m22.6838 16.4123c.2023.3057.3832.6243.5468.9515.0473.099.0172.1808-.056.2497-.2842.2627-.5898.4995-.9171.7018-.0602.0345-.1205.0388-.1851.0129-.0344-.0129-.0775-.0172-.0947-.043-.2067-.3014-.4478-.5856-.5124-.9645.0086-.0344.0302-.0602.0517-.0818.3961-.1679.7362-.4004.9903-.7534.0387-.056.0904-.1163.1765-.0732z" fill="#aa22d5"/><path d="m9.4918 13.3898c.06889.2454.29708.3401.46499.4865.58121.5081 1.17971.9903 1.76521 1.4854.4048.3402.8052.6803 1.2056 1.0247.0603.0517.1119.112.198.1206-.0473.099-.099.198-.1463.2971-.5425-.4521-1.0893-.9042-1.6318-1.3606-.6157-.5123-1.2271-1.0333-1.83848-1.5457-.07319-.0602-.14208-.1205-.18944-.2066.03875-.1077.09903-.211.17222-.3014z" fill="#841bc7"/><path d="m22.1585 18.4875c0-.0129 0-.0301 0-.043 0-.0904.0775-.112.1378-.1464.2928-.1765.5554-.3961.818-.6157.0732-.0603.1464-.1119.2497-.0947.1637.2454.31.4994.4392.7621-.3057.3875-.7061.6673-1.128.917-.0388.0302-.0904.0388-.1163.0086-.1937-.2368-.4047-.4606-.4004-.7879z" fill="#9c20d3"/><path d="m15.0932 5.95853c-.4176.21958-.8266.44777-1.2486.65444-.1765.08611-.3272.26694-.5597.20666.3445-.6286.7018-1.24429 1.0764-1.85567.1851.04736.2282.24111.353.35305.1378.12916.2282.29277.3402.44347.043.06027.0904.12055.0387.19805z" fill="#bf28d9"/><path d="m7.24859 17.2734c.4693.3358.95582.6458 1.39068 1.029.06889.0603.14639.0516.22388.0516h1.41225 1.2485c.1292 0 .2584.0044.3919.0044-.0862.0602-.1809.0387-.2713.0387-1.3046 0-2.60913-.0043-3.91369 0-.26264 0-.50805-.0172-.65444-.2755-.15069-.2627-.05597-.4952.09042-.7234.02153-.043.05167-.0818.0818-.1248z" fill="#270c83"/><path d="m20.953 16.3348c.4091-.099.7923-.267 1.1539-.4822.0689-.0431.1335-.0775.2153-.0775.056.099.1162.2023.1722.3014-.4133.1679-.7965.4305-1.2529.4908-.043.0043-.099.0344-.0947.0775.0172.2023-.1249.1636-.2411.1679-.7965.0172-1.6361-.6717-1.8944-1.4122-.4177-1.1969-.6373-2.4455-1.0291-3.6511-.0861-.2669-.1765-.5296-.2626-.7965 0-.1162 0-.2282 0-.3444.1163.1463.0646.3315.1206.4865.3875 1.1022.6372 2.2431.9558 3.3626.0258.0861.0387.1851.1291.2411.0689.1507.1077.31.1464.4693.0861.353.2713.6458.5081.9041.2239.2455.5296.3832.8482.465.1377.0345.2798.0646.4219.0732.0947.0043.2024.0043.1421-.1507-.0129-.0387-.0258-.0818-.0388-.1248z" fill="#d700d5"/><path d="m12.6434 14.2251c-.3014-.1033-.4952-.3574-.732-.5468-.5511-.4435-1.085-.9085-1.6232-1.3692-.0387-.0301-.0645-.0732-.099-.1119.0172-.0258.0301-.0517.0474-.0818.3401-.0732.6286.0775.9084.2325.4693.254.8052.6501 1.0979 1.0893.0646.0947.1249.1894.1938.2798.0732.0991.1335.211.198.3186.0302.056.056.1206.0087.1895z" fill="#901dcd"/><path d="m8.93635 14.3499c.29708.2971.63291.5512.95152.8224.08611.0732.18513.1335.21093.2583-.0516.0904-.14204.0948-.22385.0818-.42194-.0602-.83957-.0043-1.26151.0431-.10764.0129-.25833.099-.32291-.0861.19805-.3832.41333-.7578.64582-1.1195z" fill="#791ac3"/><path d="m14.5422 14.1045c-.4521-1.0979-1.0247-2.1269-1.7696-3.0526-.31-.3832-.6717-.7018-1.0549-1.0032-.0645-.05163-.1463-.08608-.2195-.12913.0387-.06028.0732-.11625.1119-.17653.4693.29706.8482.68886 1.2012 1.11086.323.3832.5942.8008.8698 1.2141.3272.6157.6544 1.2314.9773 1.8471-.043.0646-.0818.1248-.1162.1894z" fill="#5810af"/><path d="m15.0931 5.95852c-.2454-.33153-.4865-.65875-.7319-.99027.0172-.03014.0301-.05597.0474-.08611.452.43486.8094.9429 1.1452 1.46818.4478.70179.8224 1.44234 1.1539 2.20441.0301.06458.0431.13778.0646.20236-.0388.06028-.099.06458-.1636.05166-.2239-.1636-.2756-.43054-.3832-.66304-.1378-.32722-.3315-.6243-.4908-.9386-.0431-.08611-.0862-.16361-.0388-.25833-.1636-.35305-.4047-.65874-.6028-.99026z" fill="#c32bdd"/><path d="m8.29061 15.4694c.18083.0559.35305-.0259.52527-.0474.43055-.056.85679-.0431 1.28302.0043.3229.0861.6415.1808.9343.3401.0689.0345.1421.0603.1851.1335.0431.0646.0216.1077-.043.1335-.6114-.3531-1.27013-.4822-1.96762-.4349-.0775.0043-.15931-.0043-.22819.0431-.26264.0301-.52097.0818-.77499.1722-.03445-.0129-.06459-.0301-.09903-.0431.06458-.099.12486-.2023.18514-.3013z" fill="#7319ba"/><path d="m13.5475 19.2582c0-.0086-.0043-.0215-.0043-.0301h4.4777c-.0129.1033-.1033.1033-.1722.1335-.1162.0086-.2282-.0345-.3444-.0087-.1938.013-.3918.0044-.5856-.0129-.0344 0-.0689.0086-.1033.0129-.0947.0173-.2239-.0516-.2713.0517-.0344.0818.0732.1593.1206.2368.1076.1765.2325.3402.3401.5167.056.0947.1335.198 0 .3014-.0861.0344-.1464-.0086-.2109-.0603-.3445-.2669-.676-.5511-.9429-.8956-.0905-.1162-.1852-.1937-.3402-.142-.2669.0129-.5339-.0345-.8008 0-.31-.0087-.62 0-.9343-.0173-.0947.013-.1636-.0258-.2282-.0861z" fill="#4912b2"/><path d="m12.385 13.7515c-.1636-.1808-.2755-.3961-.4305-.5899-.4176-.5252-.9429-.8654-1.606-.9988-.0387-.0087-.0775-.0302-.1162-.0474.0301-.056.0646-.1119.0947-.1679.2885-.1034.6846.0344.8525.2971.564.353.9386.8783 1.2917 1.4208.0344.0861.0043.1162-.0862.0861z" fill="#a422d6"/><path d="m21.4696 17.1528c-.1291-.0258-.1808-.1291-.1851-.2368-.0086-.1119.1162-.1076.1937-.1334.3186-.0991.6071-.2541.8654-.465.0689-.056.1421-.0947.2282-.1163.0215.0388.0388.0818.0603.1206-.2282.4047-.5769.6673-.9946.8568-.0602.0301-.1205.0344-.1679-.0259z" fill="#e400df"/><path d="m11.1795 12.2403c-.2712-.1335-.5511-.2498-.8525-.2971.1034-.1938.2024-.3875.3316-.564.2411.2195.3788.5123.5381.7836.0086.0172-.0129.0516-.0172.0775z" fill="#4412af"/><path d="m11.1752 16.0334c.0129-.0431.0301-.0904.043-.1335.521.2842.887.7234 1.2271 1.197.0646.0904.1335.1808.2023.2755-.0215.0431-.043.0861-.0645.1292-.1938-.1507-.3014-.3746-.4478-.564-.2669-.3574-.6071-.6373-.9601-.9042z" fill="#7218b4"/><path d="m24.2984 22.0094c-.0259.0043-.0474.0043-.0732.0086-.1033.0302-.1335-.0387-.155-.1162 0-.0215.0086-.0431.0258-.0603.4177-.1679.7578-.465 1.1281-.719.0387-.0301.0775-.0603.1162-.0904.0646.0301.0775.0947.099.155-.3788.2755-.762.5511-1.1409.8223z" fill="#921ec0"/><path d="m17.853 19.2625c.0603-.0043.1163 0 .1679-.0387.0259-.0043.056-.013.0818-.0173.1206.1378.2842.2153.4435.2885.2799.1249.5468.2799.8568.3272.0646.0345.099.0818.0646.155-.0302.0646-.0947.0861-.1636.0775-.1938-.0172-.3746-.0861-.5468-.1679-.056-.0258-.1077-.0689-.1722-.0818-.2325-.0732-.4349-.211-.633-.3487-.0602-.0431-.1291-.0948-.099-.1938z" fill="#5b10b4"/><path d="m23.3597 17.5834c-.3702.3315-.7534.6415-1.2055.8567-.0301-.0301-.056-.0559-.0861-.0861-.0129-.0086-.0129-.0172-.0129-.0301.0043-.0086.0086-.0129.0129-.0129.2928-.0947.5037-.3057.7319-.4995.1593-.1334.3617-.2281.4349-.452.0603.0689.099.142.1248.2239z" fill="#a524d6"/><path d="m24.6212 19.7749c-.3746.31-.7406.6372-1.1754.8654-.099.0043-.1292-.0345-.0861-.1249.3746-.2239.7319-.4779 1.0505-.775.0431-.0387.0861-.0775.1421-.0904.0258.0388.0474.0818.0689.1249z" fill="#b328dd"/><path d="m21.4697 17.1528c.4004-.0904.7018-.3401.973-.6286.0646-.0689.1119-.1464.1894-.198.0173.0301.0345.0602.0517.0904-.2239.1937-.3875.4521-.6415.6157-.155.1033-.3143.1937-.4908.2497-.0905.0387-.1335.0172-.1292-.0861.0172-.0172.0301-.0302.0474-.0431z" fill="#bf2adf"/><path d="m13.5045 15.5598c.0517.0474.0732.1119.0947.1765-.0215.0388-.043.0818-.0646.1206-.0947-.099-.155-.2153-.2023-.3445.0689-.0387.1162.0173.1722.0474z" fill="#8d1ccc"/><path d="m20.6946 15.9042c.056.1163.1163.2282.1723.3445-.1938.1421-.5899.1291-.7449-.0388-.4564-.4994-.7922-1.0634-.8783-1.7566-.0474-.3703-.1335-.732-.2067-1.0979-.0129-.056-.0258-.112.0388-.2196.5468.9429 1.0807 1.8557 1.6188 2.7684z" fill="#cb00cd"/><path d="m20.9961 16.4639c.0904.1679.0646.2282-.112.211-.7319-.0603-1.4079-.4349-1.7265-1.1539-.1162-.2583-.2239-.5296-.2282-.8223.1464.1464.1593.3444.2153.5252.2842.8741.8267 1.2228 1.6749 1.3218.0688.0086.1463.0043.1765-.0818z" fill="#d700d4"/><path d="m24.8279 23.9512c-.6027 0-1.2055 0-1.8083 0-.3875-.1981-.719-.4779-1.0677-.7362-.0948-.0689-.1766-.1507-.1292-.2885.0344-.0646.0904-.0818.155-.099.3272-.0818.6458-.1809.9644-.2928.0603-.0215.1249-.0345.1895-.0129.5295.3702 1.0505.7491 1.5715 1.1323.0947.0732.2109.1464.1248.2971z" fill="#30129e"/><path d="m24.8279 23.9512c-.0172-.099-.0947-.155-.1679-.211-.4607-.3358-.9214-.6716-1.3821-1.0032-.0559-.043-.1205-.0774-.1291-.1593-.0215-.1033.0603-.1377.1248-.1679.2455-.1162.4952-.2195.7277-.3573.0732-.0431.1507-.0388.2239.0086.3315.5683.6587 1.1323.9902 1.7007.0345.0602.0603.1291.0904.1937-.1636-.0043-.3229-.0043-.4779-.0043z" fill="#3213a4"/><path d="m19.7432 23.9469c-.2669-.2798-.6071-.465-.9128-.7018-.0861-.0646-.1808-.1162-.2066-.2325.0344-.0646.099-.0861.1636-.0646.1636.0603.3315.0259.4994.0431.4349.0689.8783.0517 1.3175.0603.3272.2109.6329.4521.9429.6803.0689.0516.1335.1119.0904.2152-.6286.0043-1.2615 0-1.8944 0z" fill="#2d1096"/><path d="m21.6376 23.9512c-.2282-.2454-.5339-.3961-.7879-.6071-.0732-.0646-.1722-.1033-.2024-.2109.0345-.1034.1206-.1206.2067-.1206.2928-.0086.5769-.0775.8654-.1076.056-.0043.1033.0129.1335.0602.0904.1938.2884.267.4434.3918.1852.1464.3789.2799.577.4134.0689.0473.1119.1119.1464.1808-.4607 0-.9214 0-1.3821 0z" fill="#2e119a"/><path d="m13.5475 19.2582c.0732 0 .1421.0043.2153.0043.3487.1808.6156.4693.9084.7147.6114.5081 1.2142 1.0247 1.8213 1.5371.3186.2669.6372.5339.9472.8051.0775.0689.1679.1421.1119.2756-.0775.0775-.1593.0344-.2368.0043-.8353-.3186-1.593-.7578-2.2216-1.3993-.0603-.0646-.1292-.112-.2196-.1249-.5339-.5382-.9731-1.1452-1.3261-1.8169z" fill="#7519c2"/><path d="m14.8779 21.0709c.1464-.0905.2239.0215.3057.1076.6157.62 1.3519 1.0419 2.1614 1.3476.0646.0258.1378.0345.2066.0474.1335-.0948.2627-.0173.3832.0172.2971.0861.6028.1464.9042.2067.0947.0043.1808.0258.2669.0645.0431.0818.1593.112.1636.2196-.2152-.0258-.4305-.0473-.6415-.0732-1.2184-.2109-2.3249-.663-3.2765-1.4725-.1722-.142-.3358-.2927-.4736-.4649z" fill="#7018ba"/><path d="m21.4266 17.1959c.0302.0516.0732.0775.1292.0861-.0129.0129-.0301.0301-.0431.043-.0602.0818-.142.1378-.2497.1507-.719.112-1.3433-.0646-1.847-.6027-.3402-.31-.5684-.6932-.7104-1.1281-.1335-.3832-.267-.7664-.3273-1.1711-.099-.4004-.2583-.7836-.3143-1.1926-.0387-.1248-.099-.2497-.0086-.3789.0818-.0473.1378-.0172.1809.056.1851.7104.3659 1.4251.5597 2.1355.1205.4349.2927.8482.5726 1.2142.5253.6888 1.2098.9472 2.058.7879z" fill="#b726da"/><path d="m18.2363 13.0583c-.056-.0129-.112-.0301-.168-.0431-.0861-.0086-.1205-.0688-.142-.1377-.0948-.2971-.1938-.5942-.2498-.8999-.1377-.4779-.3401-.9386-.465-1.4208-.1636-.4133-.3186-.83095-.4822-1.24859-.0172-.10763-.0861-.19374-.1248-.29277-.0345-.08611-.0732-.17222 0-.25833h.1722c.5037 1.08068.8611 2.21299 1.2012 3.34969.0947.3143.1722.6372.2584.9515z" fill="#bd29db"/><path d="m22.1586 18.4875c.1249.2067.2497.4177.3746.6243.0344.0603.0603.1335.1421.1507v.0431c-.0517.0775-.1077.1507-.1938.1937-.4047.1981-.818.3789-1.2701.4392-.1162.0301-.2325.0603-.3531.0689-.0904.0086-.1722-.0173-.2583-.0302-.1894-.0344-.3832.0302-.5683-.043-.0086-.0086-.0172-.0216-.0258-.0302 0-.4176 0-.8309 0-1.2486.6113.2498 1.2141.1809 1.8126-.0473.1119-.0388.2239-.0818.3401-.1206z" fill="#871cc9"/><path d="m18.585 19.7361c.2368.0775.4693.155.7061.2282.1464.0474.1679-.0215.1119-.1377.2024.0172.3961.099.6028.0861.1636.0473.3315.0086.4951.0215.0818.0301.1033.0904.099.1679-.0043.0215-.0172.0431-.0344.0603-.1808.1033-.3789.043-.5683.056-.0646.0043-.155-.0646-.1938.0215-.0344.0732.0431.1335.0818.1894.155.2325.2971.4736.4521.7061.0689.1077.1421.2325-.0129.3359-.2885.0215-.5726.0818-.8654.0172-.0259-.0129-.0603-.0302-.0603-.056-.0344-.409-.353-.6673-.5382-.9946-.0818-.1463-.1937-.2798-.2755-.4305-.056-.0904-.0991-.1851 0-.2713z" fill="#6011bd"/><path d="m15.7002 6.94879c.2067.38319.4521.74916.6028 1.16249-.1636.18944-.4133.2411-.6157.36596-.3703.22389-.7621.40902-1.1409.6243-.056.03014-.112.06028-.1809.04736-.2712-.34444-.5425-.68888-.818-1.03762.6889-.44347 1.4079-.82666 2.1527-1.16249z" fill="#b926d7"/><path d="m13.5046 15.5598c-.056-.0129-.1163-.0301-.1723-.0431-.043-.0861-.0861-.1722-.1291-.2583-.1722-.353-.3445-.7018-.5597-1.0333-.0861-.1593-.1723-.3143-.2584-.4736.0474-.0086.0775-.0388.0861-.0904.3057.4348.5468.9041.7664 1.3863.0775.1766.155.3531.267.5124z" fill="#9b20d2"/><path d="m22.7183 19.4778c.2282.3315.4219.6802.6071 1.0376.0172.0947-.0474.1507-.1163.1851-.31.1766-.6372.3186-.973.4478-.0646.0258-.1421.0345-.2067-.0086-.1593-.2756-.3487-.5382-.521-.8094-.155-.2498-.1119-.4004.1593-.4952.2842-.0947.5641-.2066.8267-.3487.0732-.0388.1464-.0603.2239-.0086z" fill="#7010c4"/><path d="m22.7183 19.4778c-.3445.1765-.6846.3487-1.0592.4607-.1722.0516-.2153.1421-.1033.2971.1464.2109.2841.4262.4305.6415.0474.0732.099.1421.0431.2368-.0086.0516-.0388.099-.0818.1162-.2282.0861-.4521.1938-.7104.1464-.2411-.3272-.4564-.6716-.676-1.0161-.0474-.0775-.0689-.1593.0086-.2368.0603-.1076.1636-.0947.2626-.1119.1378-.0173.2928-.0086.3832-.1464.5124-.1249.9946-.3229 1.4639-.5597.0086.0559.0215.1119.0388.1722z" fill="#6b10c1"/><path d="m21.207 21.3248c.2842-.0344.5468-.1334.8181-.2152.4564-.1464.8998-.3186 1.2959-.5985h.0431c.0043.056.0344.099.0861.1249v.043c-.1292.2325-.3746.2971-.5898.4047-.5081.2498-1.0334.4521-1.6017.5167-.0388.0043-.0732-.0043-.1033-.0215-.0948-.0947-.1249-.1852.0215-.2584.0086.0043.0215.0043.0301.0043z" fill="#a723d7"/><path d="m19.4461 16.8084c.4435.3918.9429.6415 1.5586.6071.1765-.0087.3358-.0775.508-.0905.1852.3316.3746.6588.5597.9903v.0431c-.2927.1033-.5726.2497-.8869.31-.6028.1119-1.1323-.0517-1.6232-.3789-.3832-.254-.7405-.5511-.9773-.9602-.0302-.0775 0-.1463.0646-.1851.2023-.1292.4133-.2454.6329-.3444.0473-.0345.1076-.0129.1636.0086z" fill="#9c1ece"/><path d="m14.3612 9.1446c.0732-.13777.2196-.18513.3401-.24972.4349-.24541.8784-.4736 1.3175-.7061.0904-.04736.1809-.08611.2842-.0775.099.21528.2023.43055.3014.64583.0732.17222.1421.34444.2152.51666-.0818.10764-.2152.14208-.3229.20236-.409.21527-.818.44346-1.2227.66307-.0689.0387-.1335.0904-.2196.0387-.254-.3315-.4779-.68025-.6932-1.0333z" fill="#b525d6"/><path d="m15.0502 10.1779c.409-.28844.8568-.49941 1.2959-.73622.1464-.07749.2799-.20236.4693-.17222.1593.41764.3143.83094.4736 1.24864-.0516.142-.1851.1937-.3014.254-.3444.1851-.6931.3703-1.0333.5597-.099.056-.198.0818-.2971 0-.2023-.3789-.4047-.7664-.607-1.1539z" fill="#b224d5"/><path d="m15.6572 11.3404c.2928-.056.521-.254.7793-.3789.2885-.1378.5597-.3143.8525-.4349.1593.4736.3143.9473.4736 1.4209-.1248.1722-.3315.2152-.4994.3229-.2368.1507-.4952.254-.732.4004-.0861.0516-.1808.099-.2755.0086-.1981-.4521-.4004-.8956-.5985-1.339z" fill="#ae23d4"/><path d="m16.26 12.6751c.3315-.1119.6114-.3229.9257-.4736.1894-.0904.3617-.2282.5812-.2583.0991.3573.2024.719.3014 1.0763.0302.1163.056.2282.0861.3445-.1076.1765-.3143.211-.4736.3143-.2282.1464-.4822.2411-.7018.4004-.0473.0344-.1033.0517-.1593.0172-.1894-.4779-.3746-.9515-.5597-1.4208z" fill="#aa22d3"/><path d="m16.8197 14.0916c.4004-.3229.8525-.5511 1.3347-.7319.0646.409.2454.7922.3014 1.2055-.211.2282-.5038.3186-.7664.465-.1249.0689-.2282.1981-.3961.1808-.1593-.3702-.3186-.7448-.4736-1.1194z" fill="#a621d1"/><path d="m17.2933 15.211c.3359-.3056.7363-.4994 1.1625-.6458.1163.3875.2282.775.3445 1.1625-.1637.1636-.3746.2497-.577.3444-.1291.0646-.198.2325-.3703.2153-.1894-.3573-.3745-.7147-.5597-1.0764z" fill="#a320d0"/><path d="m17.853 16.2874c.2368-.3143.5727-.4736.9472-.5597.1335.409.3789.7491.6459 1.0764-.2368.1248-.4736.2497-.7104.3745-.0646.0345-.1163.0775-.1507.1421-.2713-.2282-.4134-.5511-.6114-.8352-.0431-.0603-.0818-.1292-.1206-.1981z" fill="#a01fcf"/><path d="m21.2502 21.5401c.452-.1291.9084-.2325 1.3347-.4391.2884-.1378.5726-.2799.8611-.422.2152.3875.4305.775.6458 1.1625v.0431c-.0086.0775-.056.1291-.1206.1679-.4391.2411-.8955.4478-1.3777.5941-.0431.013-.0861.013-.1292 0-.3573-.1593-.6114-.4563-.9084-.6888-.0775-.0603-.1594-.1163-.2282-.1895-.056-.0603-.1034-.1292-.0775-.2282z" fill="#911dcd"/><path d="m22.46 22.5777c.5339-.1248 1.0161-.3788 1.5026-.6286.0431-.0215.0904-.043.1335-.0645.043.043.0904.0904.1334.1334 0 .0129-.0043.0259-.0043.0345-.3573.1722-.7147.3487-1.0763.5209-.4306.1292-.8611.2584-1.2917.3875-.043 0-.0861 0-.1292 0-.099.0086-.1205-.0559-.1291-.1334.0043-.0259.0129-.0474.0258-.0689.2583-.1421.5339-.211.8353-.1809z" fill="#821ab7"/><path d="m18.8433 22.8748c-.4435-.0387-.874-.155-1.2916-.3014-.2196-.2755-.5167-.4736-.7793-.7018-.6157-.5338-1.2443-1.0548-1.8686-1.5801-.3272-.2755-.6545-.5554-.986-.8266-.0689-.056-.1162-.1249-.155-.2024h.9472c.3057.1249.5253.3703.7664.5726.8051.676 1.606 1.352 2.4068 2.0279.2841.2411.5683.4779.8525.7191.0861.0731.1765.1593.1076.2927z" fill="#791ac3"/><path d="m18.8434 22.8748c-.155-.3014-.4564-.4477-.6932-.6544-.5942-.521-1.2099-1.0204-1.8169-1.5328-.4435-.3702-.887-.7405-1.3261-1.1194-.1077-.0904-.1981-.2067-.2971-.3057h.8611c.1421.056.2153.1765.31.2842.4822.564 1.0591 1.0075 1.7007 1.3734.1291.0861.3013.1034.409.2282.0559.1421.1851.2067.2928.3014.4004.3358.8051.6674 1.1969 1.0075.1205.1033.2497.1894.353.31.0732.0861.1206.1679 0 .254-.2497.0043-.5037.0215-.7362-.1033-.0861.0043-.1765.0043-.254-.0431z" fill="#7e1bc6"/><path d="m18.585 19.7361c-.0043.1077.056.1895.112.2756.2583.3875.508.7836.7664 1.1668.0775.1162.0559.1808-.0603.2282-.1593.1205-.3143.056-.4736-.0043-.0861-.0302-.1852-.0259-.2455-.112-.0344-.0775-.0688-.1507-.1162-.2239-.3315-.4951-.6674-.9902-.9946-1.4897-.0603-.0947-.1378-.1894-.0646-.31h.3445c.2239.1852.4865.31.7319.4693z" fill="#5b11ba"/><path d="m17.5087 19.2625c.3401.6071.7664 1.1625 1.1366 1.748.0431.0689.1292.1249.0689.2282-.0301.0474-.0818.0732-.1291.0603-.2584-.0689-.5296-.1119-.7363-.3057-.0172-.1033-.0818-.1765-.1378-.2583-.2626-.3918-.5252-.7836-.7836-1.1754-.0559-.0861-.1377-.1765-.0645-.2928.2152-.0043.4305-.0043.6458-.0043z" fill="#5412b7"/><path d="m16.8627 19.2625c.3057.465.6071.93.9128 1.3907.0603.0904.1205.1765.1162.2928-.1033.0947-.1937.043-.2798-.0216-.1722-.0947-.3488-.1808-.5124-.3013-.0689-.0517-.1507-.0905-.1162-.1981.0646-.0947-.0259-.1464-.0603-.2067-.1636-.254-.3358-.4994-.4994-.7534-.1077-.1679-.0862-.2024.1162-.2067.1076 0 .2153.0043.3229.0043z" fill="#4e12b4"/><path d="m16.9876 20.425c.1852.1894.4435.2712.6502.4305-.0043.0603-.0173.112-.0861.1292-.3273-.1205-.5856-.3487-.8525-.5597-.4306-.3315-.8224-.7061-1.1238-1.1625.1636-.0301.2411.0904.3273.1938.3186.3659.6544.719 1.0849.9687z" fill="#871cca"/><path d="m19.1016 22.9222c.2626-.0258.5167.0603.775.043.0732-.099.1851-.0904.2928-.099.198-.0086.4004.0388.5941-.0344.2067 0 .4091-.056.62-.0603.0904 0 .1895-.0172.2627.0603.0301.043.0602.0861.0861.1291-.267.0861-.5468.1034-.8224.1292-.0861.0086-.1679.0258-.254.0388-.4607.0129-.9214-.0087-1.3821-.0474-.0732-.0431-.1851-.0388-.1722-.1593z" fill="#7819b8"/><path d="m21.2113 19.8653c.0129.1378-.0689.1894-.1851.2067-.1507.0215-.3057.0344-.4607.0516-.0129-.0559-.0301-.1162-.043-.1722.0258-.0258.0602-.0215.0904-.0215.0861-.0086.1722.0215.254-.0215.1119-.0173.2282-.0302.3444-.0431z" fill="#6711c0"/><path d="m20.6042 19.9471c-.0301 0-.0559 0-.0861 0-.1722-.0215-.3487.0387-.5166-.043h.6027c.0302.0172.0302.0344 0 .043z" fill="#831bc8"/><path d="m20.6042 19.9471c0-.0129 0-.0258.0044-.043h.2583c-.0818.0645-.1722.0387-.2627.043z" fill="#6b10c1"/><path d="m20.5655 20.1236c.0129.1851.155.3014.2411.4435.112.1808.2368.3573.3531.5382.043.0645.0904.1334.0516.2195v.0087c-.2109.1463-.4477.1808-.6975.1808-.0645-.0172-.1291-.0431-.1636-.1033-.0775-.2971-.31-.5038-.4477-.7707-.0603-.1206-.1464-.2282-.2196-.3402-.0345-.0516-.0818-.1076-.0388-.1765.0431-.0646.1163-.056.1766-.043.2454.0602.4951.0344.7448.043z" fill="#6711c0"/><path d="m20.346 21.411c.0559 0 .1119.0043.1722.0043-.0129.1464-.1292.1291-.2196.1205-.1205-.0086-.2239.013-.2841.1292-.056.0301-.112.056-.1766.0646-.2196.0043-.4305-.0603-.6458-.0818-.1335-.0086-.2712-.0043-.3487-.1464-.0173-.0818-.0345-.1636.0861-.1808.1593.0258.3143.0516.4736.0818.3143.0043.6286.0086.9429.0086z" fill="#971fd0"/><path d="m19.8335 21.6305h.1722c.0258-.0258.0474-.0645.0818-.0645.3617.0086.719-.1335 1.0807-.0216h.0861c.3746.3789.7922.7018 1.2055 1.0334-.2583.1205-.5381.1722-.818.2152-.1464.0474-.2712-.0129-.3746-.099-.31-.2626-.6329-.5167-.93-.7922-.0904-.0818-.1808-.1292-.3057-.1378-.0904-.0043-.1937 0-.198-.1335z" fill="#8c1ccb"/><path d="m21.1683 21.5401c-.3832.1077-.7707.0861-1.1625.0861-.0086-.1334.0559-.1722.1808-.1722.1119 0 .2282.0302.3358-.0387.2282-.0302.4607-.056.6889-.0861-.0775.0602-.099.1291-.043.2109z" fill="#a021d4"/><path d="m19.8336 21.6306c.5339.0043.8008.4477 1.1711.719.1593.1162.31.2497.4607.3745.0516.0431.1076.0646.1765.0646v.0431c-.2885.0086-.5683.1076-.8611.0861-.1593.0732-.2799-.0301-.3832-.1163-.3832-.3143-.7621-.6372-1.141-.9644-.0732-.0646-.1507-.1421-.0689-.254.2153.0172.4306.0301.6459.0474z" fill="#861cc9"/><path d="m19.1877 21.5875c.056.2066.2583.2798.3961.4047.3272.3057.6803.5812 1.0204.874.056.0474.112.056.1765.056-.297.0947-.6027.0215-.9041.043-.2411-.3057-.5683-.5166-.8568-.7707-.3014-.2626-.6114-.5123-.9214-.7706-.0732-.0603-.1248-.1378-.1636-.2239.0215-.0302.0603-.056.0904-.0474.2928.0947.6157.1206.8568.3488.1034.0258.2024.0559.3057.0861z" fill="#821bc7"/><path d="m18.8863 21.4971c-.3315-.0517-.6286-.2153-.9472-.3014-.1205-.0861-.2755-.1076-.3875-.2153 0-.0603.0173-.1119.0861-.1291.0818.0387.1637.0861.2584.0947.254.155.5338.2325.818.2928.0732.0301.1421.0559.2153.0861-.0474.0516-.0431.1119-.0431.1722z" fill="#911ece"/></svg>