<svg fill="none" height="32" viewBox="0 0 32 32" width="32" xmlns="http://www.w3.org/2000/svg" xmlns:xlink="http://www.w3.org/1999/xlink"><clipPath id="a"><path d="m0 0h32v32h-32z"/></clipPath><g clip-path="url(#a)"><path d="m32.0031 16c0 8.8366-7.1642 16-16.0016 16-8.83735 0-16.0015-7.1634-16.0015-16 0-8.83656 7.16415-16 16.0015-16 8.8374 0 16.0016 7.16344 16.0016 16z" fill="#4958c5"/><path clip-rule="evenodd" d="m18.1493 9.36844h4.3727v2.01926h-4.2187v6.0578s.0685 3.2684 0 6.1433c-.0684 2.8749-2.3275 5.6437-5.562 5.6437-3.23453 0-5.68182-2.3582-5.68182-5.6437 0-3.2856 2.6355-5.5786 5.61332-5.5786 2.1393 0 3.1832.9925 3.1832.9925v-7.615h-1.6087v-2.01926h1.6087v-1.35187c0-2.97753 2.7554-4.26095 3.9705-4.3294 1.1124-.09914 2.4472-.13786 3.5597.1369v2.21881c-1.4961-.48815-1.9923-.44018-2.702-.37156-.0616.00595-.1247.01206-.1903.01799-.9412.08509-2.3446 1.09521-2.3446 2.44707zm-2.1009 14.13256c0 1.8146-1.4711 3.2856-3.2858 3.2856-1.8148 0-3.28592-1.471-3.28592-3.2856s1.47112-3.2855 3.28592-3.2855c1.8147 0 3.2858 1.4709 3.2858 3.2855z" fill="#fff" fill-rule="evenodd"/></g></svg>