<svg xmlns="http://www.w3.org/2000/svg" width="32" height="32" fill="none"><defs><clipPath id="auto__a"><path fill="#fff" d="M0 0h32v32H0z"/></clipPath></defs><g clip-path="url(#auto__a)"><path fill="#4958C5" d="M32.003 16c0 8.837-7.164 16-16.002 16C7.165 32 0 24.837 0 16S7.164 0 16.002 0c8.837 0 16.001 7.163 16.001 16Z"/><path fill="#fff" fill-rule="evenodd" d="M18.15 9.368h4.372v2.02h-4.219v6.057s.069 3.269 0 6.144c-.068 2.875-2.327 5.644-5.562 5.644-3.234 0-5.682-2.359-5.682-5.644 0-3.286 2.636-5.579 5.614-5.579 2.14 0 3.183.993 3.183.993v-7.615h-1.609v-2.02h1.609V8.017c0-2.978 2.755-4.261 3.97-4.33 1.113-.099 2.448-.138 3.56.137v2.219c-1.496-.488-1.992-.44-2.702-.372l-.19.018c-.941.085-2.345 1.096-2.345 2.447v1.232Zm-2.102 14.133a3.286 3.286 0 1 1-6.571 0 3.286 3.286 0 0 1 6.571 0Z" clip-rule="evenodd"/></g></svg>