<svg fill="none" height="32" viewBox="0 0 32 32" width="32" xmlns="http://www.w3.org/2000/svg" xmlns:xlink="http://www.w3.org/1999/xlink"><linearGradient id="a" gradientUnits="userSpaceOnUse" x1="-.042607" x2="31.9425" y1="15.95" y2="15.95"><stop offset="0" stop-color="#2e2d4f"/><stop offset=".0241829" stop-color="#2f2e50"/><stop offset="1" stop-color="#544e75"/></linearGradient><clipPath id="b"><path d="m0 0h32v32h-32z"/></clipPath><g clip-path="url(#b)"><path d="m15.95 31.95c8.8365 0 16-7.1634 16-16 0-8.83654-7.1635-15.9999878-16-15.9999878-8.8366 0-16.0000488 7.1634478-16.0000488 15.9999878 0 8.8366 7.1634488 16 16.0000488 16z" fill="url(#a)"/><path d="m21.5313 8.50815h-11.88042c-.31894 0-.58472.26578-.58472.58472v2.65783c0 .3189.26578.5847.58472.5847h4.01332v10.711c0 .3189.4518 1.4618 1.4618 1.4618h2.4983c.3189 0 .5847-.2658.5847-.5848v-11.588h4.0399c.3189 0 .5847-.2658.5847-.5847v-1.9668c.0266-.31894-.4784-1.27575-1.3023-1.27575z" fill="#fff"/></g></svg>