<svg xmlns="http://www.w3.org/2000/svg" width="32" height="32" fill="none"><path fill="#E84142" d="M16 32c8.837 0 16-7.163 16-16S24.837 0 16 0 0 7.163 0 16s7.163 16 16 16Z"/><path fill="#fff" d="M21.645 16.416c.557-.96 1.446-.96 2.003 0l3.45 6.06c.556.96.102 1.742-1.005 1.742h-6.957c-1.094 0-1.549-.781-1.005-1.741l3.514-6.061ZM14.97 4.749c.556-.96 1.433-.96 1.99 0l.768 1.389 1.811 3.187a3.31 3.31 0 0 1 0 2.886l-6.086 10.547a3.181 3.181 0 0 1-2.496 1.46h-5.05c-1.107 0-1.561-.768-1.005-1.741L14.97 4.749Z"/></svg>