<svg fill="none" height="32" viewBox="0 0 32 32" width="32" xmlns="http://www.w3.org/2000/svg"><path d="m16 32c8.8366 0 16-7.1634 16-16 0-8.83656-7.1634-16-16-16-8.83656 0-16 7.16344-16 16 0 8.8366 7.16344 16 16 16z" fill="#e84142"/><path d="m21.6448 16.416c.5568-.96 1.4464-.96 2.0032 0l3.4496 6.0608c.5568.96.1024 1.7408-1.0048 1.7408h-6.9568c-1.0944 0-1.5488-.7808-1.0048-1.7408zm-6.6752-11.66719c.5568-.96 1.4336-.96 1.9904 0l.768 1.3888 1.8112 3.1872c.4416.90879.4416 1.97759 0 2.88639l-6.0864 10.5472c-.5568.8576-1.472 1.4016-2.496 1.4592h-5.04957c-1.1072 0-1.5616-.768-1.0048-1.7408z" fill="#fff"/></svg>