<svg fill="none" height="32" viewBox="0 0 32 32" width="32" xmlns="http://www.w3.org/2000/svg"><circle cx="16" cy="16" fill="#0046db" r="16"/><path clip-rule="evenodd" d="m23.3582 8.24366c-2.9213 1.99864-12.6332 11.97324-13.90166 11.85154-1.26848-.1217-2.00513-7.2456-.70471-8.0718.33321-.1731 1.19793.2946 1.98587.6405.5959.2563.1283.5766.1283.5766s-1.93477 1.7361-2.11417 2.114c-.17939.378-.05117 1.3325.2563 1.4094.31383.1473 2.52407-2.6073 3.20307-2.9469.1346-.1473 1.0827 1.102 1.4094 1.0251.2435-.1539.9866-.5958 1.1531-1.1532-.0063-.6662-6.4447-4.49725-7.81567-4.42035-.28821-.01922-.65335.0321-.8968 1.85785-.205 2.1526.13454 7.1494.57656 9.3532.33947 1.7809.52538 3.8118 3.01102 1.7297 2.88269-2.1653 6.62399-6.2078 9.35309-8.5844.9545-.7176 2.5754-2.5626 3.6516-2.4985.3972.1282.4676.3203.6407.8328.8262 2.191.5316 4.4652.5124 5.7657-.173 1.3326-.4932 1.4029-.8328 1.4093-1.4798-.1665-4.4907-2.9148-4.6767-2.8187-.2305.0833-1.0185.9097-1.0889 1.2172.0191.2307 4.606 3.5876 7.4952 4.3563.5767-.0448.9034-.0705 1.1532-.961.3076-2.1717.1601-8.2961-.8328-11.78752-.2627-.90333-.7432-1.49904-1.6656-.89682z" fill="#fff" fill-rule="evenodd"/></svg>