<svg xmlns="http://www.w3.org/2000/svg" width="32" height="32" fill="none"><defs><radialGradient id="bake__a" cx="0" cy="0" r="1" gradientTransform="matrix(0 12.7829 -12.6541 0 16.178 16.3)" gradientUnits="userSpaceOnUse"><stop offset=".334" stop-color="#F7B450"/><stop offset=".648" stop-color="#FFC977"/><stop offset="1" stop-color="#F90"/></radialGradient></defs><circle cx="16" cy="16" r="16" fill="#1A110D"/><path fill="#fff" d="M22.68 15.847a.375.375 0 0 1 .455.28l.329 1.357a.38.38 0 0 1-.276.46.375.375 0 0 1-.456-.28l-.329-1.358a.38.38 0 0 1 .276-.459ZM12.492 5.916a.387.387 0 0 1 .106-.528l1.16-.765a.382.382 0 0 1 .524.108.387.387 0 0 1-.106.527l-1.16.766a.377.377 0 0 1-.524-.108Z"/><path fill="#FFAE54" fill-rule="evenodd" d="M18.484 10.663a5.074 5.074 0 0 0-3.962.747 5.082 5.082 0 0 1 5.234 1.246c1.99 2.013 1.99 5.29 0 7.303-.24.242-.5.455-.776.638a5.157 5.157 0 0 0 1.997-1.246c1.408-1.423 1.82-3.479 1.237-5.272a7.091 7.091 0 0 1-3.73-3.416Z" clip-rule="evenodd"/><path fill="url(#bake__a)" stroke="#AC562A" stroke-width="1.072" d="M26.859 22.21c-3.227 5.963-10.63 8.142-16.523 4.888-5.896-3.255-8.07-10.734-4.84-16.702a12.154 12.154 0 0 1 10.18-6.39c.547-.024.971.264 1.266.775.301.524.436 1.243.364 1.922a7.508 7.508 0 0 0 .825 4.315c-2.563-.967-5.513.094-6.86 2.58-1.475 2.725-.482 6.157 2.223 7.652 2.709 1.497 6.112.483 7.589-2.243a5.683 5.683 0 0 0 .284-4.79c1.03.53 2.2.828 3.438.828.694 0 1.367-.094 2.006-.27.366-.1.758-.058 1.05.092.283.145.452.373.47.667a12.348 12.348 0 0 1-1.472 6.675Z"/><path fill="#AC562A" stroke="#AC562A" stroke-width="1.072" d="m23.736 19.754.45-.158c.317.903-.094 1.69-.396 2.268l-.028.053c-.183.352-.329.638-.396.924-.104.452-.088.872.04 1.19.12.296.347.53.756.639.271.07.689-.033 1.237-.372a12.381 12.381 0 0 0 2.89-8.749c-.017-.293-.185-.521-.466-.667a1.491 1.491 0 0 0-1.048-.097c-.629.17-1.29.26-1.97.26a7.508 7.508 0 0 1-3.482-.85 5.66 5.66 0 0 1-.2 4.689 5.572 5.572 0 0 1-.42.69c.315-.097.712-.282 1.201-.59.735-.458 1.563-.002 1.832.77Zm0 0c.248.706-.074 1.324-.396 1.943-.177.34-.355.681-.438 1.037l.834-2.98Zm-8.575-8.996-.02.004-.02.005c-1.196.318-2.158.165-2.894-.227-.744-.396-1.294-1.056-1.622-1.809-.329-.756-.422-1.578-.28-2.272.14-.687.501-1.217 1.062-1.486A12.104 12.104 0 0 1 16.047 4c.451-.004.809.245 1.053.683.25.448.35 1.053.26 1.616a7.66 7.66 0 0 0-.096 1.205c0 1.281.319 2.487.882 3.544a5.569 5.569 0 0 0-2.986-.29Z"/><path fill="#AC562A" d="M6.945 14.093a.635.635 0 1 0 0-1.27.635.635 0 0 0 0 1.27Zm9.207 11.113a.635.635 0 1 0 0-1.27.635.635 0 0 0 0 1.27Zm-3.889.952a1.032 1.032 0 1 0 0-2.064 1.032 1.032 0 0 0 0 2.064Z"/></svg>