<svg fill="none" height="32" viewBox="0 0 32 32" width="32" xmlns="http://www.w3.org/2000/svg" xmlns:xlink="http://www.w3.org/1999/xlink"><radialGradient id="a" cx="0" cy="0" gradientTransform="matrix(0 12.7829 -12.6541 0 16.1778 16.3009)" gradientUnits="userSpaceOnUse" r="1"><stop offset=".333505" stop-color="#f7b450"/><stop offset=".64773" stop-color="#ffc977"/><stop offset="1" stop-color="#f90"/></radialGradient><circle cx="16" cy="16" fill="#1a110d" r="16"/><path d="m22.6793 15.847c.2015-.0527.4061.0744.4557.2792l.3287 1.358c.0496.2016-.0744.4093-.276.4589-.2015.0527-.4061-.0744-.4557-.279l-.3287-1.3581c-.0496-.2016.0744-.4094.276-.459zm-10.1859-9.93149c-.1147-.17984-.062-.41239.1054-.52711l1.1598-.76588c.1767-.11472.4092-.06201.524.10853.1146.17984.0619.41239-.1055.52712l-1.1596.76587c-.1737.11783-.4062.06512-.5241-.10853z" fill="#fff"/><path clip-rule="evenodd" d="m18.4842 10.6634c-1.342-.3025-2.7823-.0539-3.9626.7466 1.7767-.5954 3.8201-.183 5.2339 1.2465 1.9907 2.0123 1.9907 5.2897 0 7.3021-.2387.2419-.4992.4558-.7752.6387.7287-.2512 1.4171-.6604 1.9969-1.2464 1.4077-1.4231 1.8199-3.4787 1.2367-5.2722-1.6239-.6406-2.9534-1.8654-3.7297-3.4153z" fill="#ffae54" fill-rule="evenodd"/><path d="m26.8588 22.2092-.0001.0001c-3.2267 5.9641-10.6289 8.1428-16.5225 4.8888-5.89586-3.2553-8.06936-10.7343-4.84067-16.7018 2.12437-3.9265 6.05827-6.21495 10.18067-6.39101.547-.02336.9708.26484 1.2654.77596.3016.52348.436 1.24225.3641 1.92209-.0279.26332-.0421.53055-.0421.80093 0 1.26902.3135 2.46481.8672 3.51423-2.5631-.9678-5.5125.0937-6.8592 2.58-1.47536 2.7242-.4826 6.1564 2.2225 7.6513 2.7085 1.4967 6.1119.4835 7.5885-2.2427l.0002-.0004c.8263-1.529.877-3.2814.2838-4.7891 1.0309.5291 2.1995.8276 3.4379.8276.6942 0 1.3673-.094 2.0069-.2701.3654-.1007.7571-.0576 1.0498.0924.283.1449.4514.3726.4699.6665.1413 2.2448-.3241 4.5551-1.4723 6.6752z" fill="url(#a)" stroke="#ac562a" stroke-width="1.0716"/><g fill="#ac562a"><path d="m23.7365 19.7539.4494-.1579v.0002c.3171.9028-.0936 1.689-.3959 2.2677-.0093.0179-.0186.0355-.0276.053-.1833.3517-.3294.638-.3959.924-.1045.4518-.0887.8723.0395 1.1894.12.2968.3472.5313.7555.6396.2718.0706.689-.033 1.2379-.3719 2.1134-2.5022 3.077-5.6538 2.89-8.7486-.0178-.2936-.1851-.5216-.4669-.6674-.2915-.1509-.6822-.1957-1.0475-.0971-.6286.1698-1.2894.2603-1.9706.2603-1.2556 0-2.4397-.307-3.481-.8499.6095 1.5093.5468 3.2271-.2011 4.6884-.1215.2376-.2613.4683-.4191.6904.3149-.0975.7114-.2824 1.2009-.5892.7348-.4589 1.5627-.0031 1.8324.769zm0 0c.248.7059-.0741 1.3242-.3965 1.9429-.1774.3406-.355.6813-.4375 1.0368zm-8.576-8.9959-.0197.0035-.0193.0052c-1.1966.3179-2.1584.1652-2.8946-.2269-.7434-.3958-1.2937-1.05569-1.6216-1.80874-.3291-.75578-.4221-1.57854-.28-2.27253.1405-.68622.5009-1.21644 1.0621-1.48573 1.4868-.63555 3.0725-.95997 4.6598-.97276.4509-.00364.8084.24532 1.0524.68295.2496.44767.35 1.05337.2602 1.61616-.063.39478-.0963.79895-.0963 1.2051 0 1.28076.3193 2.48697.8826 3.54335-.9537-.37-1.9877-.4666-2.9856-.2896z" stroke="#ac562a" stroke-width="1.0716"/><path d="m6.94478 14.0926c.35072 0 .63503-.2843.63503-.635s-.28431-.635-.63503-.635c-.35071 0-.63502.2843-.63502.635s.28431.635.63502.635z"/><path d="m16.1522 25.2057c.3508 0 .6351-.2843.6351-.635s-.2843-.635-.6351-.635c-.3507 0-.635.2843-.635.635s.2843.635.635.635z"/><path d="m12.2626 26.1582c.5699 0 1.0319-.4621 1.0319-1.032s-.462-1.0319-1.0319-1.0319-1.0319.462-1.0319 1.0319.462 1.032 1.0319 1.032z"/></g></svg>