<svg fill="none" height="32" viewBox="0 0 32 32" width="32" xmlns="http://www.w3.org/2000/svg"><path d="m16 32c8.8366 0 16-7.1634 16-16 0-8.83656-7.1634-16-16-16-8.83656 0-16 7.16344-16 16 0 8.8366 7.16344 16 16 16z" fill="#1c1d26"/><path clip-rule="evenodd" d="m15.959 10.5666c3.6703 0 6.6456-.97618 6.6456-2.18034s-2.9753-2.18033-6.6456-2.18033-6.64565.97617-6.64565 2.18033 2.97535 2.18034 6.64565 2.18034zm-3.8733.5097c-2.95273.4716-4.98755 1.4655-4.98755 2.6154 0 1.6056 3.96715 2.9072 8.86085 2.9072s8.8608-1.3016 8.8608-2.9072c0-1.1499-2.0348-2.1438-4.9875-2.6154-1.1345.2764-2.4589.4351-3.8733.4351-1.4146 0-2.7389-.1587-3.8733-.4351zm-1.3455 5.9504c-3.48588.6121-5.85727 1.8181-5.85727 3.206 0 2.0069 4.95892 3.6339 11.07607 3.6339 6.1171 0 11.076-1.627 11.076-3.6339 0-1.3879-2.3713-2.5939-5.8573-3.206-1.5149.3737-3.3033.5896-5.2187.5896-1.9155 0-3.7038-.2159-5.2188-.5896z" fill="#fff" fill-rule="evenodd"/></svg>