<svg fill="none" height="32" viewBox="0 0 32 32" width="32" xmlns="http://www.w3.org/2000/svg"><path d="m16 32c8.8366 0 16-7.1634 16-16 0-8.83656-7.1634-16-16-16-8.83656 0-16 7.16344-16 16 0 8.8366 7.16344 16 16 16z" fill="#5269ff"/><g fill="#fff"><path d="m18.286 12.479 2.2 1.257v-6.286l-4.4-2.2-6.836 3.85v13.671l6.836 3.929 6.757-4.007v-6.757l-6.522-3.929-2.2 1.1 6.522 3.85.078 4.636-4.635 2.593-4.715-2.672v-11.314l4.715-2.593 2.2 1.179z"/><path d="m15.85 16.25 1.493-.786 1.65 1.022-4.872 2.75v-5.657l1.729 1.021"/></g></svg>