<svg fill="none" height="32" viewBox="0 0 32 32" width="32" xmlns="http://www.w3.org/2000/svg"><path d="m20.4748.266283c-1.4735 1.022887-2.8933 1.499117-4.4692 1.499117s-2.997-.47623-4.4705-1.499117l-.384-.266283-.3892.258601c-1.66556 1.102259-3.01874 1.303249-5.08371 1.303249-.71179 0-1.47735-.13442-2.21347-.3879l-.49032-.16899-.29829.42375c-.15874.22531-.27652.3687-.39046.50696-.14082.17027-.27268.33157-.42887.58249l-.24836.40199.28421.37766c1.26228 1.67707 1.73723 3.4015 1.73723 5.02608 0 3.02771-1.6553 5.70331-2.95983 7.05651l-.469835.4865.478797.4788c.257321.256.714358.7322 1.093298 1.1291l-.01537.2087-.00384.0384c-.01536.2893-.02304.5786-.02304.8692 0 3.0751.90895 5.6317 2.70763 7.6096 2.0829 2.289 5.33846 3.6562 9.18803 3.8688.9563.8705 1.9267 1.5925 1.9702 1.6245l.411.3047.4109-.3059c.0436-.0321 1.0088-.7541 1.9639-1.6246 3.8483-.2125 7.1051-1.5798 9.188-3.8688 1.7987-1.9779 2.7076-4.5345 2.7076-7.6095 0-.2855-.0077-.5749-.023-.8693v-.0064l-.0039-.0371s-.014-.1869-.014-.2023c.3507-.3687.8231-.8603 1.0933-1.1291l.4788-.4788-.4699-.4878c-1.3032-1.3532-2.9598-4.0288-2.9598-7.05777 0-1.6233.4762-3.34901 1.7372-5.0248l.2842-.37766-.2496-.40071c-.1562-.25092-.2881-.41222-.4289-.58249-.1139-.13826-.2317-.28165-.3904-.50696l-.2983-.42503-.4891.17027c-.7361.25476-1.5017.3879-2.2134.3879-2.065 0-3.4182-.20227-5.0825-1.304529l-.3891-.257321z" fill="#000"/><path d="m16.0072 31.1409s-1.0997-.8155-2.0944-1.7449c-6.50213-.2702-11.88155-3.9162-11.4706-11.6384.02432-.2035.00384-.1895.0384-.5377-.37254-.3943-.9896-1.0382-1.31605-1.3634 2.33253-2.4196 5.05297-7.95518 1.27636-12.97486.24836-.39942.42759-.53129.79757-1.05745.75532.26116 1.59514.42631 2.43751.42631 2.16611 0 3.64475-.21508 5.46391-1.418469 1.4377.997279 2.997 1.622019 4.8635 1.622019s3.4258-.62474 4.8622-1.622019c1.8179 1.203389 3.2966 1.418469 5.4639 1.418469.8437 0 1.6835-.16515 2.4375-.42631.37.52616.5493.65803.7976 1.05745-3.7766 5.01968-1.0562 10.55526 1.2764 12.97486-.3252.3252-.9423.9691-1.3161 1.3634.0346.3482.0141.3342.0384.5377.411 7.7222-4.9697 11.3682-11.4706 11.6384-.9909.9294-2.0855 1.7449-2.0855 1.7449z" fill="#e2b900"/><path d="m3.67607 17.2981h-.09217l-.03969.3328-.02816.2138c-.15235 2.9752.59017 5.3782 2.20451 7.1487 1.85118 2.0304 4.85074 3.1877 8.67334 3.3464h.0641c1.147.0064 2.2301.0115 3.1518 0 3.8266-.1587 6.8261-1.316 8.6772-3.3464 1.6144-1.7705 2.3556-4.1735 2.2046-7.1435 0-.0052-.0282-.2202-.0282-.2202l-.0384-.3278-.0922-.0038z" fill="#000"/><path d="m3.76793 17.5045-.01921.1574s-.0256.1984-.02688.1984c-.0128.2433-.0192.4878-.0192.731 0 2.577.72844 4.6804 2.16995 6.2614.34438.3777.72972.7246 1.15475 1.0395v-8.389h-3.25941zm24.51857.361-.0269-.2049-.0179-.1561h-3.2607v8.389c.4251-.3149.8104-.6618 1.1548-1.0395 1.4415-1.581 2.1699-3.6857 2.1699-6.2588 0-.2394-.0064-.4827-.0192-.7297z" fill="#004b95"/><path d="m10.6188 17.5042h-3.59097v8.3891c.99343.7387 2.20066 1.302 3.59097 1.6822zm10.7716 0v10.0713c1.3902-.3802 2.5975-.9435 3.5909-1.6822v-8.3891z" fill="#a4234b"/><path d="m12.5633 22.6713c0-1.2431.6593-2.3312 1.6463-2.9368v-2.23h-3.5909v10.0712c1.0881.297 2.2903.4814 3.5909.5479v-2.5143c-.9883-.6055-1.6463-1.6949-1.6463-2.938zm5.2361-5.1668v2.23c.987.6056 1.6463 1.6937 1.6463 2.9368s-.6593 2.3312-1.6463 2.9368v2.5143c1.3007-.0666 2.5028-.2497 3.591-.548v-10.0712h-3.591z" fill="#004b95"/><path d="m17.799 19.7343v-2.2301h-3.591v2.2301c.5223-.3201 1.1368-.5057 1.7949-.5057.6593.0013 1.2738.1856 1.7961.5057zm-3.5897 5.8735v2.5143c.064.0038.1267.0064.1907.009h.0602c1.1458.0064 2.2288.0115 3.1455 0 .0653-.0026.1293-.0064.1946-.0103v-2.5143c-.5224.3201-1.1369.5044-1.7949.5044-.6593.0026-1.2738-.183-1.7961-.5031z" fill="#a4234b"/><g fill="#e2b900"><path d="m14.2483 23.2959c-.6222-.5672-.6248-1.7194-.4571-2.4849.0461-.2138.105-.4225.1652-.6606-.7323.5953-1.1996 1.5042-1.1996 2.5207 0 .4174.0794.8309.2356 1.2175.055.0077.1114.0115.169.0115.4813 0 .8731-.2215 1.0869-.6042zm3.3438.2483c-.1062.5441-.6887.9525-1.2379 1.2789-.5659.3367-1.4774.5121-2.1635.5428.5171.3483 1.1419.5531 1.8127.5531 1.2251 0 2.2915-.6785 2.8446-1.6796-.096-.8002-.8577-.8949-1.2559-.6952z"/><path d="m13.9393 25.179c.6772.0051 1.7193-.1652 2.3159-.521.772-.4609 1.3711-.9512 1.0856-1.6323-.1434-.3443-.6222-.7425-1.2431-.3034-.0397.5083-.667.9563-1.1176.8987-.2279-.0294-.4199-.1011-.5787-.2061-.2534.4327-.7066.6785-1.2418.6785-.0268 0-.0525-.0013-.0781-.0026.2049.4199.498.7912.8578 1.0882zm2.0573-4.5318c.5377-.2228 1.2815.0666 1.8499.384.5351.2996 1.0946.8577 1.4018 1.4441-.1011-1.6937-1.4991-3.0379-3.2146-3.052-.5133.3367-.4442.9704-.0371 1.2239z"/><path d="m15.9057 22.7198c-.6657-.4852-.6248-1.2482-.338-1.7014.0704-.1113.1523-.1984.2432-.2662-.3866-.3086-.4647-.9077-.0896-1.3174-.544.0474-1.0676.2317-1.5221.5351-.1421.6107-.3226 1.1676-.3136 1.8039.0115.859.3674 1.558 1.1201 1.654.3521.0461.859-.3277.9-.708z"/><path d="m19.2394 22.9695c-.1856-.6721-.8514-1.4146-1.4876-1.7705-.7848-.4379-1.6425-.6773-2.0202-.0781-.242.384-.2765 1.0177.274 1.4313.7476-.516 1.3442-.0141 1.5157.3981.0551.1319.0832.2573.0884.3777.4404-.1549 1.1573-.0551 1.3788.6324.1344-.3137.2202-.6491.2509-.9909z"/></g><path d="m13.0432 13.5536h-2.2711v3.1915h.6913v-1.3173h.9423v-.6747h-.9423v-.5223h1.6118v-.6785zm1.3212 1.5951c0 .9998.5492 1.6451 1.3992 1.6451.5544 0 .9538-.2433 1.1868-.7246l.0128-.0282-.5825-.3457-.0166.0282c-.1665.2778-.3239.3815-.5825.3815-.4238 0-.708-.3853-.708-.9576 0-.5914.2701-.9576.7041-.9576.2522 0 .4289.105.5416.3214l.014.0281.6401-.2957-.0153-.0307c-.2253-.4647-.6312-.7105-1.174-.7105-.8359.0013-1.4197.6785-1.4197 1.6463zm6.4574-.1319c.1933-.1369.3072-.352.3072-.6042 0-.5377-.3828-.859-1.0242-.859h-1.4671v3.1915h1.4531c.7169 0 1.1457-.3892 1.1457-1.0421 0-.3059-.1536-.5505-.4147-.6862zm-1.5056-.8206h.7618c.311 0 .3507.1421.3507.2663 0 .1754-.1049.2612-.3187.2612h-.7925zm.7976 1.8883h-.7976v-.7412h.7976c.2816 0 .4135.1178.4135.3687-.0013.2445-.1434.3725-.4135.3725zm.7182-13.94513c-1.5465.93582-3.1263 1.39157-4.8277 1.39285-1.7014-.00128-3.2799-.45703-4.8277-1.39285l-.0512-.03073-.0525.02945c-1.76152.99599-3.31186 1.19058-5.39476 1.19058-.50056 0-1.01649-.04993-1.53497-.14978l-.22276-.04225.11522.19587c2.13923 3.66135 1.38007 7.20109.36614 9.52589l-.06273.1447h23.33316l-.0628-.1447c-1.0139-2.3248-1.7731-5.86454.3662-9.52589l.1152-.19587-.2228.04225c-.5184.09857-1.0344.14978-1.5349.14978-2.0829 0-3.6333-.19459-5.3948-1.19058l-.0525-.02945z" fill="#000"/><path d="m8.8478 3.23998c-.9768.23172-1.98945.29445-3.1698.29445-.4468 0-.90511-.04609-1.36599-.1229.54665.97808.89487 1.94463 1.09202 2.88174h3.44377zm7.0527 3.05329v-2.55657c-1.2354-.01408-2.4081-.265-3.5513-.75916v3.31701h3.5513zm-10.39917 3.50265c-.16259 1.12148-.48776 2.13668-.85134 2.99948h4.19781v-2.99948zm6.84917 2.99948h3.5513v-2.99948h-3.5513z" fill="#fff"/><path d="m12.3507 6.29343v-3.31701c-.4135-.17923-.8219-.38919-1.229-.63243-.7771.43399-1.51449.71564-2.27365.89487v3.05329h-3.44375c.13826.65802.20867 1.32885.20867 2.00096 0 .5172-.04097 1.01904-.1101 1.50168h3.34646v2.99951h3.50267v-2.99823h3.5513v-3.50264z" fill="#db2f36"/><path d="m20.887 2.34546-.0052.00256v10.44778h1.2316v-9.87809c-.4033-.15234-.8091-.34053-1.2264-.57225zm-2.467 1.06897v9.38267h1.2316v-9.81666c-.4008.17283-.8117.31749-1.2316.43399zm-2.3121.32261v9.06006h1.0805v-9.13687c-.3584.04737-.7195.07169-1.0805.07681zm7.2371-.45703v9.51579h1.2316v-9.33016c-.4238-.03969-.8322-.09858-1.2316-.18563zm3.052 5.01584c0-1.52856.3534-3.19155 1.2994-4.88398-.4608.07681-.9192.1229-1.3659.1229-.1793 0-.3521-.00256-.5237-.00512v9.26615h1.5517c-.5211-1.2329-.9615-2.7806-.9615-4.49995z" fill="#ffdf00"/><path d="m24.5765 3.46551v9.33009h1.2316v-9.26608c-.4302-.00768-.8385-.02816-1.2316-.06401zm-7.388.19459v9.1355h1.2315v-9.38129c-.4045.11009-.8155.19331-1.2315.24579zm2.4631-.67978v9.81658h1.2315v-10.449c-.4083.24324-.818.45319-1.2315.63242zm2.4618-.06273v9.87801h1.2316v-9.51571c-.4186-.08962-.8309-.20996-1.2316-.3623z" fill="#db2f36"/></svg>