<svg xmlns="http://www.w3.org/2000/svg" width="32" height="32" fill="none"><circle cx="16" cy="16" r="16" fill="#E2B900"/><path fill="#000" d="M19.394 5.202c-1.118.777-2.196 1.138-3.393 1.138-1.197 0-2.276-.361-3.395-1.138L12.316 5l-.296.196c-1.264.837-2.292.99-3.86.99-.54 0-1.121-.102-1.68-.295l-.373-.128-.226.322c-.12.17-.21.28-.297.385a3.72 3.72 0 0 0-.325.442l-.189.305.216.287c.958 1.273 1.32 2.583 1.32 3.816 0 2.3-1.258 4.33-2.248 5.358l-.357.37.364.363c.195.195.542.556.83.857l-.012.159-.003.03c-.012.219-.017.438-.017.66 0 2.334.69 4.275 2.055 5.777 1.582 1.738 4.054 2.776 6.977 2.938a21.6 21.6 0 0 0 1.496 1.233l.312.231.312-.232c.033-.024.766-.572 1.491-1.233 2.922-.162 5.395-1.2 6.977-2.938 1.365-1.502 2.055-3.443 2.055-5.778 0-.217-.006-.436-.017-.66v-.005l-.003-.028-.01-.154c.266-.28.624-.653.83-.857l.363-.363-.357-.37c-.99-1.028-2.247-3.06-2.247-5.36 0-1.232.361-2.543 1.319-3.815l.216-.287-.19-.304a3.723 3.723 0 0 0-.325-.442 5.804 5.804 0 0 1-.297-.385l-.226-.323-.372.13a5.212 5.212 0 0 1-1.68.294c-1.568 0-2.596-.154-3.86-.99L19.686 5l-.292.202Z"/><path fill="#E2B900" d="M16.002 28.645s-.835-.62-1.59-1.325c-4.937-.205-9.022-2.973-8.71-8.837.019-.154.003-.144.03-.408-.283-.3-.752-.788-1-1.035 1.771-1.837 3.837-6.04.97-9.852.188-.303.324-.403.605-.803a5.73 5.73 0 0 0 1.85.324c1.645 0 2.768-.164 4.15-1.077 1.091.757 2.275 1.231 3.692 1.231 1.417 0 2.601-.474 3.692-1.231 1.38.913 2.503 1.077 4.149 1.077a5.72 5.72 0 0 0 1.85-.324c.282.4.418.5.606.803-2.867 3.811-.802 8.015.97 9.852-.247.247-.716.736-1 1.035.026.264.01.254.03.408.311 5.864-3.774 8.632-8.71 8.837a20.932 20.932 0 0 1-1.584 1.325Z"/><path fill="#000" d="M6.64 18.134h-.07l-.03.253-.022.162c-.116 2.26.448 4.084 1.674 5.428 1.405 1.542 3.683 2.42 6.585 2.541h.049c.87.005 1.693.009 2.393 0 2.906-.12 5.183-.999 6.589-2.54 1.225-1.345 1.788-3.17 1.674-5.425l-.022-.167-.029-.249-.07-.003H6.639Z"/><path fill="#004B95" d="m6.709 18.291-.015.12-.02.15c-.01.185-.015.37-.015.555 0 1.957.553 3.554 1.648 4.755.261.286.554.55.877.789v-6.37H6.709v.001Zm18.617.274-.02-.155-.014-.119h-2.476v6.37c.323-.24.615-.503.877-.79 1.094-1.2 1.647-2.798 1.647-4.752 0-.182-.005-.366-.014-.554Z"/><path fill="#A4234B" d="M11.91 18.29H9.185v6.37c.754.561 1.671.99 2.727 1.278V18.29Zm8.18 0v7.648c1.055-.289 1.972-.716 2.726-1.277v-6.37H20.09Z"/><path fill="#004B95" d="M13.387 22.214c0-.944.5-1.77 1.25-2.23v-1.693h-2.726v7.647a12.87 12.87 0 0 0 2.726.416v-1.909a2.612 2.612 0 0 1-1.25-2.23Zm3.976-3.923v1.693a2.613 2.613 0 0 1 0 4.46v1.91c.988-.051 1.9-.19 2.727-.417V18.29h-2.727v.001Z"/><path fill="#A4234B" d="M17.363 19.984v-1.693h-2.727v1.693a2.61 2.61 0 0 1 2.727 0Zm-2.726 4.46v1.909l.145.007h.046c.87.005 1.692.009 2.388 0l.148-.008v-1.91a2.6 2.6 0 0 1-1.363.384c-.5.002-.967-.14-1.364-.382Z"/><path fill="#E2B900" d="M14.667 22.688c-.473-.43-.475-1.305-.347-1.886.035-.163.08-.321.125-.502a2.461 2.461 0 0 0-.732 2.838.932.932 0 0 0 .128.01c.366 0 .663-.169.826-.46Zm2.539.189c-.081.413-.523.723-.94.971-.43.256-1.122.389-1.643.412a2.466 2.466 0 0 0 3.536-.855c-.073-.608-.651-.68-.953-.528Z"/><path fill="#E2B900" d="M14.432 24.118c.514.004 1.306-.125 1.758-.395.587-.35 1.041-.723.825-1.24-.11-.261-.473-.564-.944-.23-.03.386-.507.726-.849.682a1.023 1.023 0 0 1-.44-.156c-.191.328-.536.515-.942.515l-.06-.002c.156.319.379.6.652.826Zm1.562-3.44c.408-.17.973.05 1.405.29.406.228.83.652 1.064 1.097a2.466 2.466 0 0 0-2.44-2.317c-.39.256-.338.737-.029.93Z"/><path fill="#E2B900" d="M15.925 22.251c-.505-.368-.474-.948-.257-1.292a.745.745 0 0 1 .185-.202.684.684 0 0 1-.068-1c-.413.036-.81.176-1.156.406-.107.464-.245.887-.238 1.37.009.652.28 1.183.85 1.256.268.035.653-.25.684-.538Z"/><path fill="#E2B900" d="M18.456 22.44c-.14-.51-.646-1.074-1.13-1.344-.595-.332-1.246-.514-1.533-.059A.801.801 0 0 0 16 22.124c.568-.392 1.02-.01 1.15.302.043.1.064.195.068.287.334-.118.879-.042 1.047.48.102-.238.167-.493.19-.752Z"/><path fill="#000" d="M13.752 15.291h-1.725v2.424h.525v-1h.716v-.513h-.716v-.397h1.224v-.515l-.024.001Zm1.003 1.211c0 .76.417 1.25 1.062 1.25.421 0 .724-.185.901-.55l.01-.022-.442-.263-.013.022c-.126.21-.246.29-.442.29-.322 0-.538-.293-.538-.728 0-.449.205-.727.535-.727.191 0 .326.08.411.244l.01.022.487-.225-.012-.023c-.17-.353-.48-.54-.891-.54-.635.001-1.078.515-1.078 1.25Zm4.903-.1a.55.55 0 0 0 .233-.459c0-.408-.29-.652-.778-.652H18v2.424h1.103c.544 0 .87-.296.87-.792a.566.566 0 0 0-.315-.52Zm-1.143-.623h.578c.236 0 .266.108.266.202 0 .133-.08.199-.242.199h-.601l-.001-.4Zm.605 1.434h-.605v-.563h.605c.214 0 .314.09.314.28 0 .186-.109.283-.314.283Zm.546-10.589C18.49 7.335 17.292 7.681 16 7.682c-1.292-.001-2.49-.347-3.666-1.058l-.039-.023-.04.022c-1.337.757-2.514.904-4.096.904a6.16 6.16 0 0 1-1.165-.113l-.17-.032.088.148c1.625 2.78 1.048 5.468.278 7.233l-.047.11h17.716l-.047-.11c-.77-1.765-1.347-4.453.278-7.233l.087-.148-.169.032a6.26 6.26 0 0 1-1.165.113c-1.582 0-2.76-.147-4.097-.904l-.04-.022-.04.023Z"/><path fill="#fff" d="M10.566 7.46c-.742.176-1.51.224-2.407.224-.34 0-.687-.035-1.037-.094.415.743.68 1.477.83 2.188h2.614V7.46Zm5.355 2.318v-1.94a6.899 6.899 0 0 1-2.696-.577v2.518h2.696Zm-7.896 2.66a9.339 9.339 0 0 1-.646 2.277h3.187v-2.277H8.025Zm5.2 2.277h2.697v-2.277h-2.696v2.277Z"/><path fill="#DB2F36" d="M13.226 9.779V7.26a8.092 8.092 0 0 1-.934-.48 6.58 6.58 0 0 1-1.726.68v2.318H7.951c.105.5.159 1.009.159 1.519 0 .393-.031.774-.084 1.14h2.541v2.278h2.66v-2.277h2.696v-2.66h-2.697Z"/><path fill="#FFDF00" d="m19.707 6.78-.004.003v7.933h.936v-7.5a7.02 7.02 0 0 1-.932-.435Zm-1.873.813v7.124h.935V7.263a7.266 7.266 0 0 1-.935.33Zm-1.755.245v6.879h.82V7.779a7.024 7.024 0 0 1-.82.059Zm5.495-.348v7.226h.935V7.63a7.791 7.791 0 0 1-.935-.14Zm2.316 3.81c0-1.16.268-2.423.987-3.708-.35.058-.698.093-1.037.093-.137 0-.268-.002-.398-.004v7.036h1.178c-.395-.936-.73-2.111-.73-3.417Z"/><path fill="#DB2F36" d="M22.509 7.631v7.085h.935V7.68a12.805 12.805 0 0 1-.935-.049Zm-5.61.148v6.937h.935V7.592c-.307.084-.62.147-.935.187Zm1.87-.516v7.454h.935V6.783c-.31.184-.62.344-.935.48Zm1.87-.048v7.5h.935V7.49a6.404 6.404 0 0 1-.936-.275Z"/></svg>