<svg fill="none" height="32" viewBox="0 0 32 32" width="32" xmlns="http://www.w3.org/2000/svg"><circle cx="16" cy="16" fill="#e2b900" r="16"/><path d="m19.3944 5.20219c-1.1188.77667-2.1969 1.13827-3.3934 1.13827-1.1966 0-2.2757-.3616-3.3945-1.13827l-.2915-.20219-.2956.19635c-1.2646.83694-2.29207.98955-3.85999.98955-.54046 0-1.12174-.10206-1.68068-.29453l-.37229-.12831-.22649.32175c-.12053.17108-.20996.27995-.29648.38493-.10692.12929-.20704.25176-.32563.44228l-.18858.30523.2158.28676c.95844 1.27339 1.31906 2.58269 1.31906 3.81629 0 2.2989-1.25686 4.3305-2.24738 5.3579l-.35674.3694.36355.3636c.19538.1944.54241.556.83013.8573l-.01167.1585-.00291.0291c-.01167.2197-.0175.4394-.0175.66 0 2.3349.69016 4.2761 2.05589 5.7779 1.58153 1.7381 4.05351 2.7762 6.97641 2.9376.7261.661 1.4629 1.2092 1.496 1.2335l.312.2313.312-.2322c.0331-.0244.766-.5726 1.4912-1.2336 2.922-.1613 5.3949-1.1995 6.9764-2.9375 1.3657-1.5019 2.0559-3.4431 2.0559-5.7779 0-.2168-.0059-.4365-.0175-.6601v-.0048l-.003-.0282s-.0106-.1419-.0106-.1536c.2663-.2799.625-.6532.8301-.8573l.3636-.3636-.3568-.3703c-.9895-1.0275-2.2474-3.0591-2.2474-5.359 0-1.2325.3616-2.54285 1.3191-3.81526l.2158-.28676-.1895-.30426c-.1186-.19052-.2188-.31299-.3257-.44228-.0865-.10498-.1759-.21385-.2964-.38493l-.2265-.32272-.3714.12928c-.5589.19344-1.1402.29453-1.6806.29453-1.568 0-2.5954-.15358-3.8591-.99052l-.2955-.19538z" fill="#000"/><path d="m16.0022 28.6451s-.835-.6192-1.5903-1.3249c-4.93702-.2052-9.02158-2.9736-8.70955-8.837.01847-.1545.00292-.1439.02916-.4082-.28287-.2994-.7514-.7883-.99927-1.0353 1.77108-1.8372 3.83669-6.0403.96913-9.8517.18858-.30328.32467-.40341.60559-.80292.57351.1983 1.21118.3237 1.85079.3237 1.64471 0 2.76745-.16331 4.14875-1.07704 1.0916.75723 2.2756 1.23159 3.6928 1.23159s2.6012-.47436 3.6918-1.23159c1.3804.91373 2.5031 1.07704 4.1487 1.07704.6407 0 1.2783-.1254 1.8508-.3237.281.39951.4171.49964.6056.80292-2.8675 3.8114-.8019 8.0145.9692 9.8517-.2469.247-.7155.7359-.9993 1.0353.0263.2643.0107.2537.0291.4082.3121 5.8634-3.7734 8.6318-8.7095 8.837-.7524.7057-1.5835 1.3249-1.5835 1.3249z" fill="#e2b900"/><path d="m6.63927 18.1343h-.06998l-.03014.2527-.02138.1624c-.11568 2.259.44811 4.0836 1.67387 5.4279 1.40559 1.5417 3.68316 2.4204 6.58566 2.5409h.0486c.8709.0049 1.6933.0088 2.3932 0 2.9055-.1205 5.183-.9992 6.5885-2.5409 1.2258-1.3443 1.7886-3.1689 1.674-5.424 0-.0039-.0215-.1672-.0215-.1672l-.0291-.2489-.07-.0029z" fill="#000"/><path d="m6.70894 18.2911-.01459.1195s-.01944.1506-.02041.1506c-.00972.1847-.01458.3704-.01458.5551 0 1.9567.5531 3.5538 1.64763 4.7542.26149.2868.55408.5502.8768.7893v-6.3697h-2.47485zm18.61676.2741-.0204-.1556-.0136-.1185h-2.4758v6.3697c.3228-.2391.6153-.5025.8768-.7893 1.0946-1.2005 1.6476-2.7985 1.6476-4.7523 0-.1818-.0048-.3665-.0146-.554z" fill="#004b95"/><path d="m11.9107 18.2908h-2.72656v6.3698c.75431.5609 1.67096.9886 2.72656 1.2773zm8.1789 0v7.6471c1.0555-.2887 1.9722-.7164 2.7265-1.2773v-6.3698z" fill="#a4234b"/><path d="m13.3872 22.2142c0-.9439.5006-1.7701 1.2501-2.2299v-1.6932h-2.7266v7.647c.8262.2255 1.739.3655 2.7266.416v-1.9091c-.7505-.4598-1.2501-1.2869-1.2501-2.2308zm3.9758-3.9231v1.6932c.7494.4598 1.25 1.286 1.25 2.2299s-.5006 1.77-1.25 2.2299v1.9091c.9876-.0506 1.9003-.1896 2.7266-.4161v-7.647h-2.7266z" fill="#004b95"/><path d="m17.3627 19.9842v-1.6934h-2.7266v1.6934c.3966-.2431.8632-.384 1.3629-.384.5006.001.9672.1409 1.3637.384zm-2.7256 4.4597v1.9091c.0486.0028.0962.0048.1448.0068h.0457c.87.0048 1.6923.0087 2.3884 0 .0495-.002.0981-.0049.1477-.0078v-1.9091c-.3966.243-.8632.383-1.3628.383-.5006.0019-.9672-.139-1.3638-.382z" fill="#a4234b"/><g fill="#e2b900"><path d="m14.6667 22.6884c-.4725-.4306-.4744-1.3055-.3471-1.8867.035-.1624.0797-.3208.1254-.5016-.556.452-.9108 1.1421-.9108 1.9139 0 .3169.0603.6309.1789.9245.0417.0058.0846.0087.1283.0087.3654 0 .6629-.1682.8253-.4588zm2.5389.1886c-.0806.4131-.5229.7232-.9399.971-.4297.2557-1.1218.3889-1.6428.4122.3927.2644.8671.4199 1.3764.4199.9302 0 1.7399-.5152 2.1599-1.2753-.0729-.6076-.6513-.6795-.9536-.5278z"/><path d="m14.432 24.1183c.5142.0039 1.3055-.1254 1.7585-.3956.5861-.35 1.041-.7222.8243-1.2394-.1089-.2614-.4725-.5638-.9439-.2304-.0302.386-.5065.7261-.8486.6824-.173-.0223-.3188-.0768-.4394-.1565-.1924.3286-.5365.5152-.9429.5152-.0203 0-.0399-.001-.0593-.002.1556.3188.3781.6008.6513.8263zm1.5621-3.441c.4083-.1692.9731.0506 1.4046.2916.4063.2275.8312.6512 1.0644 1.0965-.0767-1.286-1.1382-2.3067-2.4408-2.3174-.3898.2557-.3373.7368-.0282.9293z"/><path d="m15.9251 22.251c-.5054-.3684-.4744-.9477-.2566-1.2919.0535-.0845.1156-.1506.1847-.2021-.2936-.2343-.3529-.6892-.0681-1.0003-.413.036-.8106.176-1.1557.4063-.1079.4637-.2449.8866-.2381 1.3697.0087.6523.279 1.183.8505 1.2559.2673.035.6522-.2488.6833-.5376z"/><path d="m18.4564 22.4406c-.1409-.5103-.6465-1.0741-1.1295-1.3443-.5959-.3325-1.2472-.5143-1.534-.0593-.1837.2916-.2099.7727.2081 1.0868.5676-.3918 1.0206-.0107 1.1508.3022.0419.1002.0632.1954.0672.2868.3344-.1176.8787-.0418 1.0469.4802.102-.2382.1672-.4929.1905-.7524z"/></g><path d="m13.7516 15.2912h-1.7244v2.4233h.5249v-1.0003h.7154v-.5123h-.7154v-.3965h1.2238v-.5152zm1.0032 1.2111c0 .7592.417 1.2491 1.0624 1.2491.4209 0 .7242-.1847.9011-.5502l.0097-.0214-.4423-.2625-.0126.0215c-.1264.2109-.2459.2896-.4423.2896-.3218 0-.5375-.2925-.5375-.7271 0-.449.205-.7271.5346-.7271.1915 0 .3256.0798.4112.2441l.0106.0213.4861-.2245-.0117-.0233c-.171-.3529-.4792-.5395-.8914-.5395-.6347.001-1.0779.5152-1.0779 1.25zm4.903-.1001c.1468-.104.2333-.2673.2333-.4588 0-.4083-.2907-.6522-.7777-.6522h-1.1139v2.4233h1.1033c.5443 0 .8699-.2956.8699-.7913 0-.2323-.1166-.418-.3149-.521zm-1.1432-.6231h.5785c.2361 0 .2663.1079.2663.2022 0 .1332-.0797.1983-.242.1983h-.6018zm.6057 1.4338h-.6057v-.5628h.6057c.2138 0 .3139.0894.3139.2799-.001.1857-.1089.2829-.3139.2829zm.5453-10.58849c-1.1743.71056-2.3738 1.05661-3.6657 1.05758-1.2918-.00097-2.4904-.34702-3.6656-1.05758l-.0389-.02334-.0398.02237c-1.3376.75624-2.51473.904-4.09626.904-.38007 0-.77181-.03792-1.16549-.11373l-.16914-.03208.08748.14872c1.62431 2.78005 1.04788 5.46775.27801 7.23295l-.04763.1099h17.71673l-.0477-.1099c-.7698-1.7652-1.3463-4.4529.2781-7.23295l.0874-.14872-.1691.03208c-.3936.07484-.7854.11373-1.1655.11373-1.5815 0-2.7587-.14776-4.0962-.904l-.0399-.02237z" fill="#000"/><path d="m10.566 7.46012c-.74167.17594-1.51057.22357-2.4068.22357-.33926 0-.68725-.03499-1.03719-.09331.41507.74265.67947 1.47654.82916 2.18808h2.61483zm5.3551 2.31834v-1.94119c-.9381-.01069-1.8285-.20121-2.6965-.57642v2.51859h2.6965zm-7.89605 2.65954c-.12345.8515-.37035 1.6224-.64641 2.2775h3.18736v-2.2775zm5.20055 2.2775h2.6965v-2.2775h-2.6965z" fill="#fff"/><path d="m13.2257 9.77857v-2.51858c-.314-.13609-.624-.29551-.9332-.4802-.59.32952-1.1499.54338-1.7263.67946v2.31835h-2.61485c.10498.4996.15845 1.009.15845 1.5193 0 .3927-.03111.7738-.0836 1.1402h2.5409v2.2775h2.6596v-2.2765h2.6965v-2.65953z" fill="#db2f36"/><path d="m19.7074 6.7809-.004.00194v7.93296h.9352v-7.50039c-.3063-.11568-.6144-.25857-.9312-.43451zm-1.8732.81166v7.12424h.9351v-7.45376c-.3043.13122-.6163.24106-.9351.32952zm-1.7556.24496v6.87928h.8204v-6.9376c-.2721.03596-.5463.05443-.8204.05832zm5.4951-.34702v7.2253h.9351v-7.08435c-.3217-.03014-.6318-.07486-.9351-.14095zm2.3174 3.8085c0-1.1606.2683-2.42333.9866-3.70838-.3499.05832-.698.09332-1.0371.09332-.1362 0-.2674-.00195-.3977-.00389v7.03575h1.1782c-.3956-.9362-.73-2.1113-.73-3.4168z" fill="#ffdf00"/><path d="m22.5087 7.63134v7.08426h.9352v-7.03566c-.3267-.00583-.6367-.02138-.9352-.0486zm-5.6097.14775v6.93651h.9351v-7.12314c-.3071.08359-.6192.14678-.9351.18663zm1.8703-.51615v7.45366h.935v-7.93385c-.31.18469-.6211.3441-.935.48019zm1.8692-.04763v7.50029h.9351v-7.2252c-.3178-.06805-.6309-.15942-.9351-.27509z" fill="#db2f36"/></svg>