<svg fill="none" height="32" viewBox="0 0 32 32" width="32" xmlns="http://www.w3.org/2000/svg" xmlns:xlink="http://www.w3.org/1999/xlink"><clipPath id="a"><path d="m0 0h32v32h-32z"/></clipPath><g clip-path="url(#a)"><path d="m16.0031 2v10.8743l6.508 11.2788 9.4407 5.4842c.085-.1486.0728-.3535-.0573-.5787l-7.7089-13.36-7.7089-13.35997c-.1306-.22591-.3023-.33863-.4736-.33863z" fill="#9e1f63"/><path d="m.0539882 29.6373 9.4409518-5.484 6.50846-11.279v-10.8743c-.172 0-.3434.11272-.4736.33839l-7.70936 13.36021-7.709377 13.3598c-.1296718.2254-.1418509.4301-.0570748.5789z" fill="#ff4724"/><path d="m31.9518 29.6373-9.4407-5.484h-13.01616l-9.4409544 5.484c.0854924.149.2688954.2416.5289554.2416h30.840159c.2603 0 .4432-.0926.5287-.2416z" fill="#662d91"/><path d="m9.49495 24.1528h13.01635l-6.5082-11.2788z" fill="#fff"/></g></svg>