<svg fill="none" height="32" viewBox="0 0 32 32" width="32" xmlns="http://www.w3.org/2000/svg"><path d="m16 32c8.8366 0 16-7.1634 16-16 0-8.83656-7.1634-16-16-16-8.83656 0-16 7.16344-16 16 0 8.8366 7.16344 16 16 16z" fill="#0ac18e"/><path d="m20.9764 10.6453c-.8016-1.82125-2.6421-2.1996-4.8994-1.82766l-.7247-2.8024-1.7122.44248.7118 2.80241c-.4489.11543-.9106.21162-1.3659.33988l-.7183-2.78317-1.7122.44248.7247 2.80878c-.3656.1026-3.44372.8978-3.44372.8978l.47455 1.8277s1.25691-.3527 1.24408-.3206c.69259-.1796 1.01969.1667 1.17999.4937l1.9879 7.6954c.0257.2245-.0128.6092-.4937.7311.0256.0128-1.2441.3206-1.2441.3206l.1859 2.1291s3.0461-.7824 3.4501-.8786l.7375 2.8409 1.7058-.4425-.731-2.8601c.4745-.109.9234-.2244 1.3723-.3399l.7311 2.8473 1.7122-.4425-.7311-2.8344c2.6293-.6413 4.489-2.2958 4.1042-4.8353-.2436-1.5263-1.911-2.7832-3.3026-2.9242.8529-.776 1.289-1.879.7568-3.3283zm-.8209 6.695c.3399 2.5138-3.1487 2.8216-4.3094 3.123l-1.0068-3.7579c1.1671-.3014 4.7455-1.5775 5.3162.6349zm-2.1034-5.111c.3591 2.2316-2.6228 2.4946-3.5912 2.7447l-.917-3.4117c.9683-.2501 3.7771-1.4044 4.5082.667z" fill="#fff"/></svg>