<svg xmlns="http://www.w3.org/2000/svg" width="32" height="32" fill="none"><defs><clipPath id="bcha__a"><path fill="#fff" d="M0 0h32v32H0z"/></clipPath></defs><g clip-path="url(#bcha__a)"><path fill="#F7931A" d="M23.999 29.854c7.651-4.418 10.273-14.201 5.855-21.853C25.436.35 15.653-2.272 8.001 2.146.35 6.563-2.272 16.347 2.146 23.999c4.417 7.651 14.201 10.273 21.853 5.855Z"/><path fill="#fff" d="M21.234 10.692c-.776-1.972-2.722-2.15-4.987-1.71l-.807-2.813-1.711.491.785 2.74c-.45.128-.907.27-1.363.41l-.79-2.758-1.711.491.806 2.812c-.368.114-.73.226-1.086.327l-.002-.009-2.362.677.524 1.828s1.258-.387 1.244-.357c.694-.199 1.034.14 1.2.468l.92 3.204c.047-.013.11-.029.184-.04l-.181.052 1.287 4.49c.031.226.003.61-.482.75.028.013-1.244.358-1.244.358l.246 2.141 2.229-.639c.414-.118.824-.228 1.225-.34l.816 2.844 1.71-.49-.806-2.814a77.45 77.45 0 0 0 1.371-.38l.803 2.802 1.711-.491-.814-2.84c2.832-.99 4.638-2.293 4.113-5.067-.421-2.235-1.724-2.913-3.47-2.836.848-.79 1.213-1.859.642-3.301Zm-.652 6.77c.612 2.125-3.098 2.927-4.259 3.26l-1.08-3.769c1.162-.332 4.705-1.709 5.34.509Zm-2.32-5.09c.554 1.935-2.547 2.579-3.513 2.855l-.98-3.417c.966-.277 3.914-1.456 4.493.562Z"/></g></svg>