<svg xmlns="http://www.w3.org/2000/svg" width="32" height="32" fill="none"><path fill="#0AC18E" d="M16 32c8.837 0 16-7.163 16-16S24.837 0 16 0 0 7.163 0 16s7.163 16 16 16Z"/><path fill="#fff" d="M20.976 10.645c-.801-1.82-2.642-2.2-4.899-1.827l-.725-2.803-1.712.443.712 2.802c-.449.116-.91.212-1.366.34l-.718-2.783-1.713.442.725 2.81c-.365.102-3.444.897-3.444.897l.475 1.828s1.257-.353 1.244-.321c.693-.18 1.02.167 1.18.494l1.988 7.695c.026.225-.013.61-.494.731.026.013-1.244.32-1.244.32l.186 2.13s3.046-.782 3.45-.879l.738 2.841 1.705-.442-.73-2.86c.474-.11.923-.225 1.372-.34l.73 2.847 1.713-.443-.731-2.834c2.63-.641 4.489-2.296 4.104-4.835-.243-1.527-1.91-2.783-3.302-2.924.853-.776 1.289-1.88.756-3.329Zm-.82 6.695c.34 2.514-3.15 2.822-4.31 3.123l-1.007-3.758c1.167-.301 4.746-1.577 5.316.635Zm-2.104-5.11c.36 2.23-2.623 2.494-3.591 2.744l-.917-3.412c.968-.25 3.777-1.404 4.508.667Z"/></svg>