<svg fill="none" height="32" viewBox="0 0 32 32" width="32" xmlns="http://www.w3.org/2000/svg"><path d="m31.9473 14.7009c.1879 2.3125-.1294 4.6382-.9296 6.8159-.8003 2.1777-2.0646 4.1553-3.7051 5.7959-1.6406 1.6406-3.6183 2.9049-5.796 3.7051-2.1777.8003-4.5033 1.1175-6.8158.9297-7.75525-.6118-14.037609-6.8971-14.6483257-14.6503-.1877223-2.3124.1295927-4.6379.9299617-6.8155.800354-2.17748 2.064624-4.15499 3.705194-5.79536 1.64056-1.64039 3.61819-2.90443 5.79577-3.704548 2.1777-.800108 4.5033-1.117156 6.8156-.9291698 7.7542.6117058 14.0356 6.8940678 14.6483 14.6482778z" fill="#eab300"/><path d="m20.5892 15.4274c.9532-.6542 1.6074-1.3907 1.6074-2.7794 0-2.2063-2.1944-3.24063-3.5297-3.37227-.1088-.01188-.4127-.01683-.4127-.01683v-2.11029h-2.1776l.0049 2.11029h-1.455v-2.10237h-2.2132v2.09247c-.39.00891-2.73191.00693-2.73191.00693v1.86777h.76121c.7334 0 1.064.4632 1.064.7859v8.171c-.0043.1324-.0571.2587-.1484.3548-.0911.0961-.2145.1555-.3465.1668-.3326.0148-.8275 0-.8275 0l-.42659 2.1172h2.66159v2.1331h2.2142v-2.1212h1.4551v2.1251h2.1647v-2.1172h.1594c2.5042 0 4.6877-1.4847 4.7204-3.883.0297-1.9698-1.653-3.11-2.5438-3.4288zm-5.9567-4.1562h2.0469c.0623 0 .1118.0109.1712.0139.8909.0425 1.4432.3959 1.7411.8215.1831.2553.2849.5599.292.874-.0043.2176-.0417.4332-.1109.6394-.0614.1797-.1539.3472-.2731.4949-.0952.1243-.2098.2322-.3395.3197-.3316.2327-.7978.4158-1.4679.4484-.009 0-2.0272.006-2.0598 0zm4.9025 7.9542c-.067.1938-.1676.3744-.2969.5335-.1027.1345-.2267.2512-.3673.3454-.3583.2524-.8621.4504-1.5837.485-.0089 0-2.619.006-2.6537.005v-3.9068c.3217 0 1.9341.0049 2.6409.0049.0663 0 .1207.0119.1841.0149.9621.0465 1.5609.4286 1.8806.8908.1983.276.3084.6056.3158.9453-.0061.2339-.0478.4656-.1238.6869z" fill="#fff"/></svg>