<svg xmlns="http://www.w3.org/2000/svg" width="32" height="32" fill="none"><defs><clipPath id="bcx__a"><path fill="#fff" d="M0 0h32v32H0z"/></clipPath></defs><g clip-path="url(#bcx__a)"><path fill="#4B4A48" d="M23.999 29.854A15.997 15.997 0 1 0 8 2.146a15.997 15.997 0 0 0 16 27.708Z"/><path fill="#F2C81E" d="M24.252 11.039c-.216-2.254-1.806-3.319-4-3.798l1.154-2.491h-2.88l-.895 2.102c-.63 0-2.869.033-3.51.046l-.746-2.148h-2.969l1 2.23c-.518.01-.71.016-1.207.016v-.013H6.89v2.56s1.772-.034 1.743-.002a1.238 1.238 0 0 1 1.378 1.052l.001 4.487c.085 0 .17.005.254.015l-.254.001v6.287a.85.85 0 0 1-.902.793c.032.027-1.742 0-1.742 0l-.477 2.863h3.684L9.73 27.2h2.753l.918-2.11c.658.012 4.414.045 5.035.046l.894 2.064h2.753l-1.123-2.438c2.65-.531 4.404-1.801 4.676-4.733.283-3.048-1.15-4.409-3.439-4.958a3.708 3.708 0 0 0 2.056-4.032Zm-3.355 8.517c.003 2.978-5.096 2.639-6.721 2.64l.002-5.278c1.625.001 6.72-.466 6.719 2.638Zm-1.115-7.446c0 2.709-4.251 2.391-5.604 2.392V9.716c1.352 0 5.604-.432 5.604 2.394Z"/></g></svg>