<svg fill="none" height="32" viewBox="0 0 32 32" width="32" xmlns="http://www.w3.org/2000/svg"><path d="m30.8 16c0 8.1738-6.6262 14.8-14.8 14.8-8.17381 0-14.8-6.6262-14.8-14.8 0-8.17381 6.62619-14.8 14.8-14.8 8.1738 0 14.8 6.62619 14.8 14.8z" fill="#fff" stroke="#f2bd11" stroke-width="2.4"/><path d="m16.0002 6c1.9918 0 3.6066.93912 3.6066 2.09758 0 1.15845-1.6148 2.09762-3.6066 2.09762-1.9919 0-3.6066-.93917-3.6066-2.09762 0-1.15846 1.6147-2.09758 3.6066-2.09758zm0 15.8048c1.9918 0 3.6066.9392 3.6066 2.0976 0 1.1585-1.6148 2.0976-3.6066 2.0976-1.9919 0-3.6066-.9391-3.6066-2.0976 0-1.1584 1.6147-2.0976 3.6066-2.0976zm-8.6615-10.8051c.99594-1.72496 2.61712-2.65345 3.621-2.07381 1.0039.57965 1.0104 2.44781.0145 4.17281-.99597 1.7249-2.61715 2.6534-3.62108 2.0738-1.00392-.5796-1.01035-2.4479-.01442-4.1728zm13.6884 7.9029c.9959-1.725 2.6165-2.6538 3.6198-2.0745 1.0032.5792 1.0091 2.4471.0132 4.1721-.9959 1.7249-2.6166 2.6537-3.6198 2.0745-1.0032-.5793-1.0091-2.4472-.0132-4.1721zm-13.67345-2.075c1.0039-.5796 2.62508.3488 3.62105 2.0738.9959 1.7249.9894 3.5932-.0145 4.1728-1.00388.5796-2.62506-.3489-3.621-2.0738-.99593-1.725-.98946-3.5932.01445-4.1728zm13.68745-7.90126c1.0033-.57922 2.6239.34957 3.6198 2.07456.996 1.7249.99 3.5928-.0132 4.172-1.0032.5793-2.6238-.3495-3.6198-2.0745-.9959-1.7249-.99-3.59282.0132-4.17204z" fill="#e6007a"/></svg>