<svg fill="none" height="32" viewBox="0 0 32 32" width="32" xmlns="http://www.w3.org/2000/svg" xmlns:xlink="http://www.w3.org/1999/xlink"><linearGradient id="a" gradientUnits="userSpaceOnUse" x1="5.1147" x2="11.0523" y1="14.0671" y2="14.0671"><stop offset="0" stop-color="#fff" stop-opacity="0"/><stop offset="1" stop-color="#fff"/></linearGradient><linearGradient id="b" gradientUnits="userSpaceOnUse" x1="26.9053" x2="19.93" y1="13.1494" y2="13.1494"><stop offset="0" stop-color="#fd76fd" stop-opacity="0"/><stop offset="1" stop-color="#ff51ff"/></linearGradient><linearGradient id="c" gradientUnits="userSpaceOnUse" x1="27.0206" x2="21.3712" y1="15.4529" y2="15.4529"><stop offset="0" stop-color="#9d6eff" stop-opacity="0"/><stop offset="1" stop-color="#a18cff"/></linearGradient><linearGradient id="d" gradientUnits="userSpaceOnUse" x1="26.9629" x2="20.5065" y1="14.3165" y2="14.3165"><stop offset="0" stop-color="#ae60d6" stop-opacity="0"/><stop offset="1" stop-color="#ab38e6"/></linearGradient><path d="m16 32c8.8366 0 16-7.1634 16-16 0-8.83656-7.1634-16-16-16-8.83656 0-16 7.16344-16 16 0 8.8366 7.16344 16 16 16z" fill="#0b1624"/><path d="m16.0147 19.2477h4.5606l-4.5588-7.9412v-4.8094l8.9358 15.3053h-8.9376z" fill="#0b76ff"/><path d="m16.0146 19.2477h-4.5605l4.5588-7.9412v-4.8094l-8.9359 15.3053h8.9376z" fill="#24c1ff"/><path d="m9.64706 25.5848v-1.8671c.10647-.0053.37234-.0159.58054-.0159.4577 0 .6436.2065.6436.4665.005.0831-.0127.166-.0513.2398-.0385.0738-.0965.1357-.1675.179v.0053c.1394.0506.2735.1876.2735.4288 0 .3947-.3118.5794-.7283.5794-.1835 0-.43819-.0053-.55054-.0158zm.60764-.7536h-.1694v.353c.0481.0126.0979.0179.1476.0158.17 0 .2547-.0723.2547-.1982s-.09-.1706-.2329-.1706zm-.0323-.727c-.0459.0006-.0917.0042-.1371.0106v.3405h.1453c.1118 0 .2023-.0453.2023-.1823 0-.1124-.1041-.1688-.2105-.1688zm2.9411 1.4858v-1.8776h1.1365v.4053h-.6982v.33h.6164v.4023h-.6164v.3406h.7258v.3977zm3.1547 0 .7994-1.8776h.3918l.7953 1.8759h-.4706l-.1588-.3941h-.7588l-.1589.3941zm.9806-1.3276-.2164.5294h.4305zm3.0783 1.3259v-1.8759h.4411l.5936.7912.5588-.7912h.4118v1.8759h-.4383v-1.1947l-.5323.7323h-.0647l-.5295-.7241v1.1865z" fill="#25c1ff"/><path d="m16.0147 13.3118v5.1336l-2.7929.0059z" fill="#39fff2"/><path d="m16.0147 13.3118v5.1336l2.7929.0059z" fill="#00e2c2"/><path d="m5.06646 11.283 10.94824 5.06v.5294l-10.94824-2.3959z" fill="url(#a)"/><path d="m26.9853 9.81357-10.9706 6.52943v.1764l10.9706-4.5976z" fill="url(#b)"/><path d="m26.9853 16.1371-10.9706.7352v-.1764l10.9706-2.6665z" fill="url(#c)"/><path d="m26.9853 11.9218-10.9706 4.5977v.1765l10.9706-2.6665z" fill="url(#d)"/></svg>