<svg xmlns="http://www.w3.org/2000/svg" width="32" height="32" fill="none"><defs><linearGradient id="beam__a" x1="5.115" x2="11.052" y1="14.067" y2="14.067" gradientUnits="userSpaceOnUse"><stop stop-color="#fff" stop-opacity="0"/><stop offset="1" stop-color="#fff"/></linearGradient><linearGradient id="beam__b" x1="26.905" x2="19.93" y1="13.149" y2="13.149" gradientUnits="userSpaceOnUse"><stop stop-color="#FD76FD" stop-opacity="0"/><stop offset="1" stop-color="#FF51FF"/></linearGradient><linearGradient id="beam__c" x1="27.021" x2="21.371" y1="15.453" y2="15.453" gradientUnits="userSpaceOnUse"><stop stop-color="#9D6EFF" stop-opacity="0"/><stop offset="1" stop-color="#A18CFF"/></linearGradient><linearGradient id="beam__d" x1="26.963" x2="20.506" y1="14.316" y2="14.316" gradientUnits="userSpaceOnUse"><stop stop-color="#AE60D6" stop-opacity="0"/><stop offset="1" stop-color="#AB38E6"/></linearGradient></defs><path fill="#0B1624" d="M16 32c8.837 0 16-7.163 16-16S24.837 0 16 0 0 7.163 0 16s7.163 16 16 16Z"/><path fill="#0B76FF" d="M16.015 19.248h4.56l-4.558-7.942V6.497l8.935 15.305h-8.937v-2.554Z"/><path fill="#24C1FF" d="M16.015 19.248h-4.56l4.558-7.942V6.497L7.077 21.802h8.938v-2.554Z"/><path fill="#25C1FF" d="M9.647 25.585v-1.867c.107-.006.372-.016.58-.016.458 0 .644.206.644.466a.458.458 0 0 1-.219.42v.004c.14.051.274.188.274.43 0 .394-.312.579-.728.579-.184 0-.439-.006-.55-.016Zm.608-.754h-.17v.353a.5.5 0 0 0 .148.016c.17 0 .255-.072.255-.198s-.09-.17-.233-.17Zm-.033-.727c-.045 0-.091.004-.137.01v.341h.146c.111 0 .202-.045.202-.182 0-.112-.104-.169-.21-.169Zm2.942 1.486v-1.878H14.3v.406h-.698v.33h.616v.402h-.616v.34h.726v.398l-1.164.002Zm3.154 0 .8-1.878h.391l.796 1.876h-.47l-.16-.394h-.759l-.158.394-.44.002Zm.98-1.328-.216.53h.43l-.213-.53Zm3.08 1.326v-1.876h.44l.594.792.559-.792h.411v1.876h-.438v-1.194l-.532.732h-.065l-.53-.724v1.186h-.44Z"/><path fill="#39FFF2" d="M16.015 13.312v5.133l-2.793.006 2.793-5.14Z"/><path fill="#00E2C2" d="M16.015 13.312v5.133l2.793.006-2.793-5.14Z"/><path fill="url(#beam__a)" d="m5.066 11.283 10.949 5.06v.53L5.066 14.475v-3.193Z"/><path fill="url(#beam__b)" d="m26.985 9.814-10.97 6.529v.176l10.97-4.597V9.814Z"/><path fill="url(#beam__c)" d="m26.985 16.137-10.97.735v-.176l10.97-2.667v2.108Z"/><path fill="url(#beam__d)" d="m26.985 11.922-10.97 4.598v.176l10.97-2.667v-2.107Z"/></svg>