<svg xmlns="http://www.w3.org/2000/svg" width="32" height="32" fill="none"><path fill="#F7F8FA" d="M16 32c8.837 0 16-7.163 16-16S24.837 0 16 0 0 7.163 0 16s7.163 16 16 16Z"/><path fill="#00CEAA" d="M16.462 19.487h-6.169a2.535 2.535 0 0 1-2.536-2.536V9.387a2.535 2.535 0 0 1 2.536-2.537h4.759a7.022 7.022 0 0 1 7.022 7.023 5.61 5.61 0 0 1-5.612 5.614Z"/><path fill="#00B2FA" d="M19.644 26.169h-6.166a2.535 2.535 0 0 1-2.536-2.536v-7.568a2.535 2.535 0 0 1 2.536-2.536h4.759a7.022 7.022 0 0 1 7.022 7.022 5.618 5.618 0 0 1-5.615 5.618Z"/><path fill="#fff" d="M16.462 19.487a5.613 5.613 0 0 0 5.562-4.85 6.988 6.988 0 0 0-3.79-1.108h-4.756a2.535 2.535 0 0 0-2.536 2.536v3.422h5.52Z"/></svg>