<svg fill="none" height="32" viewBox="0 0 32 32" width="32" xmlns="http://www.w3.org/2000/svg"><path d="m16 32c8.8366 0 16-7.1634 16-16 0-8.83656-7.1634-16-16-16-8.83656 0-16 7.16344-16 16 0 8.8366 7.16344 16 16 16z" fill="#f7f8fa"/><path d="m16.4621 19.4874h-6.1689c-1.40143 0-2.53624-1.1348-2.53624-2.5363v-7.56443c0-1.40148 1.13481-2.5363 2.53624-2.5363h4.7586c3.8785 0 7.0222 3.1437 7.0222 7.02223.0029 3.1022-2.5126 5.6148-5.6119 5.6148z" fill="#00ceaa"/><path d="m19.6444 26.1689h-6.166c-1.4014 0-2.5363-1.1348-2.5363-2.5363v-7.5674c0-1.4015 1.1349-2.5363 2.5363-2.5363h4.7586c3.8785 0 7.0222 3.1437 7.0222 7.0222 0 3.1022-2.5156 5.6178-5.6148 5.6178z" fill="#00b2fa"/><path d="m16.4621 19.4874c2.8415 0 5.1882-2.1096 5.5615-4.8504-1.0933-.7022-2.3941-1.1081-3.7896-1.1081h-4.7556c-1.4014 0-2.5363 1.1348-2.5363 2.5363v3.4222z" fill="#fff"/></svg>