<svg fill="none" height="32" viewBox="0 0 32 32" width="32" xmlns="http://www.w3.org/2000/svg" xmlns:xlink="http://www.w3.org/1999/xlink"><linearGradient id="a"><stop offset="0" stop-color="#8077f2"/><stop offset="1" stop-color="#ffb29b"/></linearGradient><linearGradient id="b" gradientUnits="userSpaceOnUse" x1="6.51953" x2="25.9968" xlink:href="#a" y1="19.0936" y2="19.0936"/><linearGradient id="c" gradientUnits="userSpaceOnUse" x1="121.683" x2="399.415" xlink:href="#a" y1="-333.432" y2="-333.432"/><clipPath id="d"><path d="m0 0h32v32h-32z"/></clipPath><g clip-path="url(#d)"><path d="m16 32c3.1645 0 6.2579-.9384 8.8891-2.6965s4.682-4.2569 5.893-7.1806c1.211-2.9236 1.5278-6.1406.9105-9.2443-.6174-3.10373-2.1413-5.95466-4.3789-8.1923s-5.0886-3.761494-8.1923-4.378857c-3.1037-.617364-6.3207-.3005105-9.24434.910487-2.92361 1.21101-5.42247 3.26177-7.18057 5.89295-1.758106 2.63119-2.69649 5.72462-2.69649 8.88912 0 4.2435 1.68571 8.3131 4.68629 11.3137s7.07021 4.6863 11.31371 4.6863z" fill="#231f20"/><path d="m21.5408 15.2883c-.0406-.0118-.0838-.0104-.1236.0039-.0397.0143-.0739.0409-.0976.0758-.0237.035-.0357.0766-.0343.1188.0014.0423.0161.0829.0421.1163.2984.3517.4677.7948.48 1.256 0 2.3146-4.6906 4.1893-10.4772 4.1893-1.54984.0059-3.09658-.1379-4.61873-.4294-.03651-.0075-.07448-.0019-.10732.0157s-.05846.0462-.07242.0808c-.01395.0345-.01535.0729-.00395.1083.0114.0355.03487.0659.06634.0859 1.84268 1.1973 5.15198 1.9973 8.92528 1.9973 5.7867 0 10.4774-1.8773 10.4774-4.1893.0026-1.4187-1.76-2.672-4.456-3.4294z" fill="url(#b)"/><path d="m19.7404 9.08301c-.0347-.01024-.0718-.00915-.1058.00311-.0341.01226-.0633.03505-.0836.06507-.0202.03001-.0303.06569-.0289.10185.0015.03617.0144.07093.0369.09925.2552.30106.4001.68021.4107 1.07471 0 1.9813-4.0134 3.5866-8.9654 3.5866-1.32614.006-2.64972-.1173-3.95198-.368-.03136-.006-.06385-.001-.09191.0143-.02805.0153-.04994.0398-.0619.0694-.01197.0296-.01328.0625-.00371.093.00958.0304.02944.0566.05619.0741 2.34989 1.2349 4.98521 1.8247 7.63731 1.7092 4.952 0 8.9654-1.6053 8.9654-3.5866 0-1.216-1.5067-2.28799-3.8133-2.93599z" fill="url(#c)"/></g></svg>