<svg xmlns="http://www.w3.org/2000/svg" width="32" height="32" fill="none"><defs><linearGradient id="beta__b" x1="6.52" x2="25.997" y1="19.094" y2="19.094" gradientUnits="userSpaceOnUse"><stop stop-color="#8077F2"/><stop offset="1" stop-color="#FFB29B"/></linearGradient><linearGradient id="beta__c" x1="121.683" x2="399.415" y1="-333.432" y2="-333.432" gradientUnits="userSpaceOnUse"><stop stop-color="#8077F2"/><stop offset="1" stop-color="#FFB29B"/></linearGradient><clipPath id="beta__a"><path fill="#fff" d="M0 0h32v32H0z"/></clipPath></defs><g clip-path="url(#beta__a)"><path fill="#231F20" d="M16 32a16 16 0 1 0 0-32 16 16 0 0 0 0 32Z"/><path fill="url(#beta__b)" d="M21.54 15.288a.2.2 0 0 0-.213.315c.299.352.468.795.48 1.256 0 2.315-4.69 4.19-10.477 4.19a24.069 24.069 0 0 1-4.619-.43.16.16 0 0 0-.117.29c1.843 1.198 5.152 1.998 8.925 1.998 5.787 0 10.478-1.877 10.478-4.19.002-1.418-1.76-2.671-4.456-3.429Z"/><path fill="url(#beta__c)" d="M19.74 9.083a.17.17 0 0 0-.181.27c.255.3.4.68.41 1.074 0 1.981-4.013 3.587-8.965 3.587a20.417 20.417 0 0 1-3.952-.368.138.138 0 0 0-.101.25 15.013 15.013 0 0 0 7.637 1.71c4.952 0 8.966-1.606 8.966-3.587 0-1.216-1.507-2.288-3.814-2.936Z"/></g></svg>