<svg xmlns="http://www.w3.org/2000/svg" width="32" height="32" fill="none"><circle cx="16" cy="16" r="16" fill="#F5C826"/><circle cx="16" cy="16" r="13.333" fill="#fff"/><circle cx="16" cy="16" r="12" fill="#E5F2F1"/><path fill="#5A9DED" fill-rule="evenodd" d="M15.99 21.111 22 17.34l-6.01 8.683v-4.91Zm.894.491v1.57l1.924-2.78-1.924 1.21Z" clip-rule="evenodd"/><path fill="#D895D3" fill-rule="evenodd" d="m16.605 13.274 4.437 2.51-.438.774-4.437-2.51.438-.774Z" clip-rule="evenodd"/><path fill="#FF9C92" fill-rule="evenodd" d="m15.99 6 5.99 10.31-5.99 3.777V6Zm.883 3.3v9.186l3.912-2.468L16.873 9.3Z" clip-rule="evenodd"/><path fill="#53D3E0" fill-rule="evenodd" d="M16.01 21.111 10 17.34l6.01 8.683v-4.91Zm-.894.491v1.57l-1.924-2.78 1.925 1.21Z" clip-rule="evenodd"/><path fill="#A6E275" fill-rule="evenodd" d="m15.208 13.358-4.437 2.51.438.774 4.437-2.51-.438-.774Z" clip-rule="evenodd"/><path fill="#FFE94D" fill-rule="evenodd" d="M15.99 6 10 16.31l5.99 3.777V6Zm-.883 3.3v9.186l-3.912-2.468L15.107 9.3Z" clip-rule="evenodd"/></svg>