<svg xmlns="http://www.w3.org/2000/svg" width="32" height="32" fill="none"><path fill="#212833" d="M16 32c8.837 0 16-7.163 16-16S24.837 0 16 0 0 7.163 0 16s7.163 16 16 16Z"/><path fill="#F0B90B" d="M16.942 12.7h-2a1 1 0 0 1-1-1V6.3a1 1 0 0 1 1-1h2a1 1 0 0 1 1 1v5.4a1 1 0 0 1-1 1Zm1 13v-5.4a1 1 0 0 0-1-1h-2a1 1 0 0 0-1 1v5.4a1 1 0 0 0 1 1h2a1.001 1.001 0 0 0 1-1ZM6.304 18.01h5.4a1 1 0 0 0 1-1v-2a1 1 0 0 0-1-1h-5.4a1 1 0 0 0-1 1v2a1 1 0 0 0 1 1Zm13.992 0h5.4a1 1 0 0 0 1-1v-2a1 1 0 0 0-1-1h-5.4a1 1 0 0 0-1 1v2a1 1 0 0 0 1 1Zm-7.708-6.333v-2a1 1 0 0 0-1-1h-2a1 1 0 0 0-1 1v2a1 1 0 0 0 1 1h2a1 1 0 0 0 1-1Zm10.708 0v-2a1 1 0 0 0-1-1h-2a1 1 0 0 0-1 1v2a1 1 0 0 0 1 1h2a1 1 0 0 0 1-1ZM12.588 22.344v-2a1 1 0 0 0-1-1h-2a1 1 0 0 0-1 1v2a1 1 0 0 0 1 1h2a1 1 0 0 0 1-1Zm10.708 0v-2a1 1 0 0 0-1-1h-2a1 1 0 0 0-1 1v2a1 1 0 0 0 1 1h2a1 1 0 0 0 1-1Z"/></svg>