<svg fill="none" height="32" viewBox="0 0 32 32" width="32" xmlns="http://www.w3.org/2000/svg"><path d="m16 32c8.8366 0 16-7.1634 16-16 0-8.83656-7.1634-16-16-16-8.83656 0-16 7.16344-16 16 0 8.8366 7.16344 16 16 16z" fill="#212833"/><path d="m16.9417 12.7h-2c-.2652 0-.5196-.1054-.7071-.2929s-.2929-.4419-.2929-.7071v-5.40001c0-.26522.1054-.51957.2929-.70711s.4419-.29289.7071-.29289h2c.2652 0 .5196.10535.7071.29289s.2929.44189.2929.70711v5.40001c0 .2652-.1054.5196-.2929.7071s-.4419.2929-.7071.2929zm1 13v-5.4c0-.2652-.1054-.5196-.2929-.7071-.1875-.1876-.4419-.2929-.7071-.2929h-2c-.2652 0-.5196.1053-.7071.2929-.1875.1875-.2929.4419-.2929.7071v5.4c0 .2652.1054.5196.2929.7071s.4419.2929.7071.2929h2c.1313 0 .2614-.0259.3827-.0761.1213-.0503.2315-.1239.3244-.2168s.1665-.2031.2168-.3244c.0502-.1214.0761-.2514.0761-.3827zm-11.6375-7.6896h5.4c.2652 0 .5196-.1053.7071-.2929.1875-.1875.2929-.4419.2929-.7071v-2c0-.2652-.1054-.5196-.2929-.7071s-.4419-.2929-.7071-.2929h-5.4c-.26522 0-.51957.1054-.70711.2929-.18753.1875-.29289.4419-.29289.7071v2c0 .2652.10536.5196.29289.7071.18754.1876.44189.2929.70711.2929zm13.9917 0h5.4c.2652 0 .5195-.1053.7071-.2929.1875-.1875.2929-.4419.2929-.7071v-2c0-.2652-.1054-.5196-.2929-.7071-.1876-.1875-.4419-.2929-.7071-.2929h-5.4c-.2653 0-.5196.1054-.7071.2929-.1876.1875-.2929.4419-.2929.7071v2c0 .2652.1053.5196.2929.7071.1875.1876.4418.2929.7071.2929zm-7.7084-6.3333v-2.00003c0-.26522-.1053-.51957-.2929-.70711-.1875-.18754-.4419-.29289-.7071-.29289h-1.99997c-.26522 0-.51957.10535-.70711.29289-.18753.18754-.29289.44189-.29289.70711v2.00003c0 .2652.10536.5195.29289.7071.18754.1875.44189.2929.70711.2929h1.99997c.2652 0 .5196-.1054.7071-.2929.1876-.1876.2929-.4419.2929-.7071zm10.7084 0v-2.00003c0-.26522-.1054-.51957-.2929-.70711-.1876-.18754-.4419-.29289-.7071-.29289h-2c-.2653 0-.5196.10535-.7071.29289-.1876.18754-.2929.44189-.2929.70711v2.00003c0 .2652.1053.5195.2929.7071.1875.1875.4418.2929.7071.2929h2c.2652 0 .5195-.1054.7071-.2929.1875-.1876.2929-.4419.2929-.7071zm-10.7084 10.6666v-2c0-.2652-.1053-.5195-.2929-.7071-.1875-.1875-.4419-.2929-.7071-.2929h-1.99997c-.26522 0-.51957.1054-.70711.2929-.18753.1876-.29289.4419-.29289.7071v2c0 .2653.10536.5196.29289.7071.18754.1876.44189.2929.70711.2929h1.99997c.2652 0 .5196-.1053.7071-.2929.1876-.1875.2929-.4418.2929-.7071zm10.7084 0v-2c0-.2652-.1054-.5195-.2929-.7071-.1876-.1875-.4419-.2929-.7071-.2929h-2c-.2653 0-.5196.1054-.7071.2929-.1876.1876-.2929.4419-.2929.7071v2c0 .2653.1053.5196.2929.7071.1875.1876.4418.2929.7071.2929h2c.2652 0 .5195-.1053.7071-.2929.1875-.1875.2929-.4418.2929-.7071z" fill="#f0b90b"/></svg>