<svg fill="none" height="32" viewBox="0 0 32 32" width="32" xmlns="http://www.w3.org/2000/svg"><path d="m16 32c8.8366 0 16-7.1634 16-16 0-8.83656-7.1634-16-16-16-8.83656 0-16 7.16344-16 16 0 8.8366 7.16344 16 16 16z" fill="#000"/><path d="m18.08 7.89759c-.609-.35198-1.2998-.53739-2.0032-.5376h-3.9936c.2623-.00021.522.05131.7644.15158.2423.10028.4625.24736.648.43282s.3325.40566.4328.64802c.1003.24235.1518.5021.1516.76438v6.00321h1.9968c.7014.0006 1.3905-.1849 1.9968-.5376.6083-.3502 1.1138-.8543 1.4654-1.4618.3517-.6075.5371-1.2968.5378-1.9988.0006-.7019-.1836-1.39159-.5341-1.99972s-.855-1.11323-1.4627-1.46449z" fill="#d85111"/><path d="m19.2192 13.8368c-.3741.4738-.8505.8569-1.3936 1.1207-.543.2638-1.1387.4014-1.7424.4025h-2.0032v-6.00319c0-.53043-.2107-1.03914-.5858-1.41421s-.8838-.58579-1.4142-.58579-1.0391.21072-1.4142.58579-.5858.88378-.5858 1.41421v14.00319h6.9952c.3355.0021.6703-.0322.9984-.1024 1.0278-.2105 1.9635-.7387 2.6747-1.51s1.1621-1.7466 1.2887-2.7881-.0773-2.0964-.5829-3.0157c-.5057-.9192-1.2875-1.6563-2.2349-2.107z" fill="#fff"/></svg>