<svg xmlns="http://www.w3.org/2000/svg" width="32" height="32" fill="none"><path fill="#F6EFE5" d="M31 15.98c-.098 8.36-6.643 15.017-15.004 15.02C7.624 31.003 1 24.35 1 15.999 1 7.647 7.62.995 16 1c8.363.005 14.882 6.651 15 14.98Z"/><path fill="#C4BCB1" d="M31.997 16.032c.185 8.605-7.24 16.167-16.337 15.964C7.19 31.807.284 24.826.009 16.551-.3 7.298 7.443-.237 16.459.006c8.354.225 15.715 7.27 15.538 16.026Zm-1.66-.046c-.113-7.93-6.33-14.258-14.308-14.263C8.036 1.717 1.723 8.05 1.722 16.003c0 7.951 6.318 14.285 14.304 14.282 7.974-.003 14.217-6.34 14.31-14.3Z"/><path fill="#030202" d="M8.105 9.998a32.11 32.11 0 0 0 2.633 0l.08-.003c.176-.084.073-.238.082-.358.032-.422-.043-.849.06-1.269.25-1.026 1.135-1.604 2.28-1.484.955.099 1.68.91 1.7 1.904.005.315.01.63-.004.945-.008.198.027.298.262.291a36.278 36.278 0 0 1 1.686-.001c.192.003.27-.05.26-.254a14.95 14.95 0 0 1-.003-.987c.022-1.094.842-1.895 1.95-1.91 1.174-.015 2.036.755 2.08 1.868.014.328.016.658-.002.986-.012.228.054.304.292.3.795-.016 1.59-.008 2.384-.006.773.001 1.15.362 1.106 1.142-.056.998-.527 1.827-1.18 2.559-.465.503-.962.976-1.488 1.416a1.414 1.414 0 0 0-.529 1.179c.029 1.562.013 3.124.01 4.686-.004 2.617-1.98 4.61-4.6 4.61-1.15 0-2.304.1-3.448-.065-2.137-.31-3.776-2.19-3.802-4.357-.02-1.63-.018-3.26.004-4.892a1.361 1.361 0 0 0-.469-1.083c-.511-.475-1.045-.926-1.52-1.441a4.894 4.894 0 0 1-1.17-2.137 2.156 2.156 0 0 1-.038-.816c.067-.525.394-.755 1.14-.823h.244Zm3.74 5.36c-.006 1.96-.055 3.92-.003 5.876.036 1.36 1.11 2.384 2.471 2.442 1.026.044 2.056.04 3.082-.002 1.224-.048 2.183-.942 2.408-2.15.07-.382.021-.765.052-1.146.022-.264-.074-.369-.33-.457a8.05 8.05 0 0 1-3.325-2.123c-1.42-1.516-2.152-3.314-2.113-5.402.006-.35-.08-.467-.453-.454-.917.033-1.836.01-2.754.011-.722.001-.913.284-.686.985.195.602.63 1.018 1.084 1.416.287.253.507.534.567.92v.085Zm7.862 1.728a.86.86 0 0 0-.809-.91.875.875 0 0 0-.91.814.866.866 0 0 0 1.436.69.852.852 0 0 0 .283-.594Zm-6.103-7.751c0-.15.005-.301 0-.451-.017-.438-.24-.666-.656-.676-.437-.01-.681.22-.702.671-.007.15-.001.3-.001.451 0 .691 0 .691.68.691.682 0 .682 0 .68-.686Zm4.871-.059c0 .746 0 .746.742.745.11 0 .22-.008.328.003.202.02.304-.036.29-.267-.02-.3.004-.602-.008-.903-.017-.431-.254-.648-.68-.644-.425.004-.653.225-.67.656-.006.136-.002.273-.002.41Z"/><path fill="#F4EDE4" d="M11.845 15.274c-.06-.387-.28-.667-.567-.92-.454-.398-.89-.814-1.084-1.417-.227-.7-.036-.983.685-.984.918 0 1.837.021 2.754-.011.374-.013.46.104.453.454-.038 2.087.694 3.886 2.114 5.402a8.051 8.051 0 0 0 3.324 2.123c.257.088.352.192.33.456-.03.382.02.765-.052 1.147-.224 1.208-1.184 2.102-2.407 2.15a37.71 37.71 0 0 1-3.082.002c-1.36-.059-2.435-1.083-2.471-2.442-.052-1.957-.003-3.917.003-5.875.062-.029.099-.057 0-.085Zm2.536 1.766a.857.857 0 0 0-1.187-.8.863.863 0 0 0-.283 1.407.862.862 0 0 0 .612.252.85.85 0 0 0 .858-.86Z"/><path fill="#FEFDFD" d="M19.707 17.086a.854.854 0 0 1-.905.81.866.866 0 0 1-.815-.907.876.876 0 0 1 .911-.814.862.862 0 0 1 .809.91Z"/><path fill="#ECE7DF" d="M13.604 9.335c.002.686.002.686-.679.686-.68 0-.68 0-.68-.69 0-.151-.006-.302 0-.452.021-.45.266-.682.702-.671.416.01.64.238.656.675.006.15.001.301.001.452Zm4.872-.059c0-.137-.004-.274.001-.41.018-.431.246-.652.671-.656.427-.004.663.213.68.644.012.3-.011.603.007.903.015.231-.087.286-.289.267-.108-.011-.218-.003-.328-.003-.743 0-.743 0-.742-.745Z"/><path fill="#FEFDFD" d="M11.846 15.273c.098.029.061.057 0 .085v-.085Z"/><path fill="#030202" d="M14.383 17.04a.851.851 0 0 1-.859.86.863.863 0 1 1 .859-.86Z"/></svg>