<svg fill="none" height="32" viewBox="0 0 32 32" width="32" xmlns="http://www.w3.org/2000/svg"><path d="m31 15.9809c-.0981 8.3593-6.6431 15.0161-15.0037 15.0191-8.37255.003-14.997116-6.6496-14.9963-15.0012.00082-8.35143 6.62002-15.004224 15-14.9988 8.3634.00543 14.882 6.65143 15 14.9809z" fill="#f6efe5"/><path d="m31.9966 16.0322c.185 8.6046-7.2404 16.1665-16.3369 15.9638-8.47017-.1887-15.375358-7.1697-15.65081117-15.4446-.30804283-9.25374 7.43382117-16.788803 16.45041117-16.54567702 8.3535.22524602 15.7145 7.27080702 15.5373 16.02647702zm-1.6598-.0465c-.1125-7.93037-6.3301-14.25795-14.3073-14.26311-7.99302-.00517-14.30656 6.32887-14.30734 14.28011-.00078 7.9515 6.31788 14.2853 14.30374 14.2825 7.9746-.0028 14.2174-6.3407 14.3109-14.2995z" fill="#c4bcb1"/><path d="m8.10504 9.99789c.8777.03671 1.75541.03491 2.63316.00097l.0804-.00385c.1758-.08394.0726-.23833.0817-.35796.0322-.42204-.0431-.84874.0593-1.26874.25-1.02613 1.1357-1.60389 2.2812-1.4847.9538.09924 1.6788.90967 1.6984 1.90404.0062.31506.0102.63075-.003.94539-.0084.19844.0273.29816.2621.29146.5614-.0161 1.1236-.0116 1.6853-.0016.1925.0034.2704-.05035.2611-.25439-.0151-.3282-.0101-.6577-.0035-.98644.022-1.09363.8421-1.89469 1.9495-1.90923 1.1744-.01542 2.0365.7543 2.081 1.86714.0132.32834.0156.65837-.0022.98626-.0123.22793.0538.30336.2915.29896.7946-.0149 1.5896-.0074 2.3844-.0055.7729.0017 1.1497.3619 1.1059 1.1421-.056.9984-.5269 1.8275-1.1808 2.5591-.4649.5034-.9616.9765-1.4871 1.4163-.1756.1403-.3151.3204-.4072.5254-.092.2049-.1338.4289-.122.6533.0284 1.5617.0127 3.1243.0102 4.6865-.0043 2.6161-1.9809 4.6101-4.6003 4.6095-1.1493-.0002-2.3044.1009-3.4479-.0652-2.1374-.3104-3.77658-2.1891-3.80212-4.3564-.01922-1.6305-.01802-3.2612.00359-4.8921.00818-.2041-.02968-.4074-.11078-.5949-.08109-.1875-.20334-.3543-.35769-.4882-.51167-.4752-1.0455-.9263-1.52059-1.4412-.56348-.6025-.96549-1.3377-1.16868-2.1372-.06473-.2669-.07784-.5438-.03865-.8156.06671-.5254.39412-.755 1.13905-.82343zm3.74036 5.36101c-.006 1.9586-.0552 3.9183-.0033 5.8754.0361 1.3589 1.1103 2.3834 2.471 2.4419 1.0257.044 2.0561.0389 3.0822-.0017 1.2232-.0486 2.1829-.9426 2.4074-2.1498.0711-.3823.0214-.7659.0524-1.147.0215-.264-.0742-.3687-.3308-.4564-1.267-.421-2.4095-1.1506-3.3244-2.1229-1.4197-1.5166-2.1515-3.3146-2.1132-5.4025.0065-.3491-.0793-.4669-.4531-.4537-.917.0323-1.8359.0103-2.754.0113-.7212.0008-.91247.2833-.6855.9841.1952.6024.6306 1.0183 1.084 1.4169.2871.2524.5069.5332.5673.9193zm7.8614 1.7272c.0069-.1129-.0085-.2261-.0454-.3331-.0369-.1069-.0946-.2055-.1697-.2902-.0751-.0846-.1661-.1536-.2679-.2029-.1019-.0494-.2124-.0782-.3254-.0847-.2281-.0098-.451.0698-.6212.222s-.2742.3648-.2898.5926c-.0111.228.0684.4512.221.621.1527.1699.3662.2725.5941.2858.1128.007.2258-.0085.3326-.0456.1067-.037.205-.095.2892-.1704.0841-.0754.1524-.1668.2009-.2689.0485-.102.0762-.2127.0816-.3256zm-6.1023-7.75146c0-.15039.0049-.30096-.0009-.45113-.0167-.4374-.2399-.66535-.6557-.67555-.4366-.01071-.6809.22069-.7017.67112-.0069.15008-.0013.30073-.0012.45112.0001.6911.0001.6911.6807.6909.6809-.0001.6809-.0001.6788-.68646zm4.8708-.05854c-.0011.7458-.0011.7458.7419.7452.1094-.0001.2196-.008.3281.0025.2016.0194.3035-.03553.2891-.26702-.0188-.29975.0049-.60193-.0072-.90237-.0172-.43152-.2537-.64818-.6798-.64411-.4257.00406-.6535.2247-.671.65548-.0056.13655-.0009.27353-.0011.41032z" fill="#030202"/><path d="m11.8451 15.2735c-.0604-.3861-.2803-.6669-.5674-.9193-.4534-.3986-.8888-.8145-1.0839-1.4169-.22701-.7008-.0357-.9834.6854-.9841.9182-.001 1.8371.021 2.7541-.0113.3738-.0132.4595.1046.4531.4537-.0383 2.0879.6935 3.8859 2.1131 5.4025.915.9723 2.0574 1.7019 3.3245 2.1229.2566.0877.3522.1924.3308.4564-.0311.3811.0186.7647-.0525 1.147-.2244 1.2072-1.1841 2.1012-2.4074 2.1497-1.026.0407-2.0565.0458-3.0822.0018-1.3606-.0585-2.4349-1.083-2.4709-2.4419-.0519-1.9571-.0028-3.9168.0033-5.8754.0617-.0284.0986-.0568 0-.0851zm2.5363 1.7662c.0008-.113-.0207-.2251-.0634-.3298-.0426-.1047-.1056-.1999-.1852-.2802s-.1743-.144-.2786-.1876c-.1043-.0435-.2162-.066-.3293-.0661-.1134-.0006-.2258.0212-.3308.0641-.105.043-.2005.1063-.281.1862-.0804.0799-.1443.175-.188.2797-.0436.1047-.0662.217-.0663.3304-.0002.1134.0221.2258.0654.3306.0434.1048.1071.2.1873.2802.0803.0801.1756.1437.2805.1869.1048.0432.2172.0653.3306.065.1132.0011.2254-.0203.3301-.0631.1048-.0429.1999-.1061.2799-.1862.0799-.08.1431-.1752.1859-.28.0427-.1047.0641-.217.0629-.3301z" fill="#f4ede4"/><path d="m19.7067 17.0856c-.0054.1129-.0331.2235-.0816.3256s-.1168.1935-.2009.2689c-.0842.0754-.1825.1333-.2892.1704s-.2198.0526-.3326.0455c-.2279-.0132-.4414-.1159-.594-.2857-.1527-.1698-.2321-.393-.2211-.6211.0157-.2277.1197-.4404.2899-.5926.1702-.1521.3931-.2318.6212-.222.1129.0066.2235.0354.3253.0847.1018.0494.1929.1183.268.203.075.0846.1327.1832.1696.2902s.0523.2201.0454.3331z" fill="#fefdfd"/><path d="m13.6041 9.33456c.0019.68634.0019.68634-.679.68654-.6805.0002-.6806.0002-.6807-.69098-.0001-.15039-.0057-.30105.0012-.45112.0208-.45044.2651-.68184.7017-.67112.4158.0102.6391.23815.6557.67555.0058.15017.001.30074.0011.45113z" fill="#ece7df"/><path d="m18.4764 9.27582c.0001-.13679-.0046-.27376.0009-.41032.0176-.43078.2453-.65142.671-.65548.4262-.00407.6626.21259.6799.64412.012.30043-.0116.60261.0071.90236.0145.23149-.0874.2865-.2891.267-.1084-.0105-.2186-.0026-.3281-.0025-.7429.0006-.7429.0006-.7417-.74518z" fill="#ece7df"/><path d="m11.8457 15.2734c.0986.0284.0617.0568 0 .0851 0-.0283 0-.0567 0-.0851z" fill="#fefdfd"/><path d="m14.3828 17.04c.0012.1131-.0202.2254-.0629.3302-.0428.1047-.106.1999-.1859.2799-.08.0801-.1752.1434-.2799.1862s-.2169.0642-.3301.0631c-.1134.0003-.2258-.0218-.3307-.065-.1048-.0432-.2001-.1067-.2804-.1869-.0802-.0802-.1439-.1754-.1873-.2802-.0433-.1048-.0656-.2172-.0654-.3306.0001-.1134.0227-.2257.0663-.3304.0437-.1047.1076-.1998.188-.2797.0805-.0799.176-.1432.281-.1862.105-.0429.2174-.0647.3308-.0641.1131.0001.225.0226.3293.0661.1043.0436.199.1073.2786.1876s.1426.1755.1852.2802c.0427.1047.0642.2168.0634.3298z" fill="#030202"/></svg>