<svg xmlns="http://www.w3.org/2000/svg" width="32" height="32" fill="none"><path fill="#F0B90B" d="M16 32c8.837 0 16-7.163 16-16S24.837 0 16 0 0 7.163 0 16s7.163 16 16 16Z"/><path fill="#fff" d="m27.897 13.278-2.627 2.627-6.6-6.6 2.627-2.626 6.6 6.6ZM6.75 16.107l-2.627 2.626 6.6 6.6 2.627-2.627-6.6-6.6Zm3.906-9.428L4.124 13.21l2.627 2.626 6.532-6.532-2.626-2.626Zm5.32 2.626L9.31 15.972l2.694 2.694 6.667-6.667-2.694-2.694Zm4.04 4.04-6.666 6.668 2.626 2.626 6.667-6.667-2.627-2.626Zm5.186 2.762-6.532 6.532 2.693 2.694 6.533-6.532-2.694-2.694Z"/></svg>