<svg fill="none" height="32" viewBox="0 0 32 32" width="32" xmlns="http://www.w3.org/2000/svg"><path d="m16 32c8.8366 0 16-7.1634 16-16 0-8.83656-7.1634-16-16-16-8.83656 0-16 7.16344-16 16 0 8.8366 7.16344 16 16 16z" fill="#f0b90b"/><path d="m27.8967 13.2784-2.6264 2.6264-6.5996-6.59969 2.6263-2.6264zm-21.14585 2.8284-2.6264 2.6264 6.59965 6.5997 2.6264-2.6264zm3.90595-9.42809-6.53235 6.53229 2.6264 2.6264 6.53235-6.53229zm5.3201 2.6264-6.66699 6.66699 2.69379 2.6938 6.667-6.667zm4.0406 4.04059-6.667 6.667 2.6264 2.6264 6.667-6.667zm5.1855 2.7611-6.5323 6.5323 2.6937 2.6938 6.5324-6.5324z" fill="#fff"/></svg>