<svg fill="none" height="32" viewBox="0 0 32 32" width="32" xmlns="http://www.w3.org/2000/svg"><path d="m16 32c8.8366 0 16-7.1634 16-16 0-8.83656-7.1634-16-16-16-8.83656 0-16 7.16344-16 16 0 8.8366 7.16344 16 16 16z" fill="#18578c"/><path d="m11.633 20.336c.662.675.662 1.769 0 2.444s-1.736.677-2.4.003c-.32-.324-.5-.765-.5-1.225s.18-.9.5-1.225c.15634-.1599.34311-.287.54931-.3736.2062-.0867.42769-.1311.65129-.1309.2237.0003.445.0454.651.1325.206.0872.3925.2147.5484.375zm11.063-11.61c.3125.13404.5786.35719.7649.64158.1864.28439.2849.6174.2831.95742 0 .7-.414 1.33-1.048 1.598s-1.365.12-1.85-.375c-.3198-.3267-.4986-.7658-.498-1.223 0-.46.179-.9.498-1.223.2349-.24122.5371-.40602.8671-.47292.3301-.06689.6726-.03277.9829.09792zm-11.286 10.277 1.637-1.676c.1603.4105.402.7843.7107 1.0988s.6779.5633 1.0853.7312l-1.641 1.671zm9.697-6.137-1.641 1.672c-.1592-.4106-.4009-.7843-.71-1.098-.3072-.3133-.675-.5607-1.081-.727l1.64-1.672zm-.687 7.942c.1256-.3138.342-.583.6216-.7731.2795-.1901.6094-.2924.9474-.2939.687 0 1.306.421 1.569 1.067.262.647.117 1.39-.368 1.885-.1562.1604-.343.288-.5492.3753-.2063.0872-.4279.1323-.6518.1327-.2238-.0005-.4452-.0457-.6513-.1329-.206-.0872-.3926-.2148-.5487-.3751-.2383-.2442-.4001-.5526-.4656-.8875-.0656-.3348-.032-.6815.0966-.9975zm-11.385-11.298c.12546-.31401.34181-.58342.62135-.77369.27953-.19027.60955-.29275.94765-.29431.687 0 1.306.421 1.569 1.068.262.646.117 1.39-.368 1.885-.1563.1603-.3431.2877-.5493.3747-.2063.0871-.4278.1321-.6517.1323-.2237-.0004-.4451-.0454-.65114-.1325-.20607-.087-.39267-.2144-.54886-.3745-.23827-.2442-.4001-.5526-.46565-.8875-.06555-.3348-.03196-.68148.09665-.9975zm10.145 11.244-1.645-1.667c.4074-.1679.7766-.4167 1.0853-.7312s.5504-.6883.7107-1.0988l1.64 1.672zm-5.841-9.81 1.64 1.673c-.405.1642-.7717.4103-1.077.723-.308.314-.551.69-.714 1.102l-1.64-1.672zm2.942-1.481c-.939 0-1.7-.775-1.7-1.732s.761-1.731 1.7-1.731c.45 0 .883.182 1.202.507s.498.765.497 1.224c0 .957-.76 1.732-1.7 1.732zm1.7 14.806c0 .956-.762 1.731-1.7 1.731s-1.7-.775-1.7-1.731.761-1.732 1.7-1.732c.45 0 .883.182 1.202.507s.498.765.497 1.225zm-1.083-13.9v2.144c-.3539-.0625-.7161-.0625-1.07 0v-2.144zm0 9.212v2.145h-1.07v-2.146c.354.063.716.063 1.07 0zm5.332-3.392c-.1288-.3163-.1625-.6633-.0969-.9985.0655-.3352.2275-.644.4659-.8885.2351-.2416.5376-.4066.868-.4737s.6733-.033.984.0977c.635.268 1.049.9 1.049 1.6 0 .46-.179.9-.497 1.225-.1964.2016-.4403.3507-.7093.4337s-.5545.0972-.8304.0413c-.2759-.056-.5334-.1802-.7488-.3613-.2155-.1812-.3821-.4135-.4845-.6757zm-15.73-.369c0-.956.76-1.731 1.7-1.731.938 0 1.699.774 1.7 1.73 0 .46-.18.9-.498 1.225-.15653.1603-.34347.2876-.54988.3747-.2064.0871-.42811.132-.65212.1323-.939 0-1.7-.775-1.7-1.73zm15.083.545-2.104-.002c.0614-.3607.0614-.7293 0-1.09h2.104zm-8.643 0h-2.105v-1.09h2.105c-.0614.3607-.0614.7293 0 1.09zm3.29 2.037c-1.331 0-2.41-1.099-2.41-2.454s1.079-2.455 2.41-2.455c1.33 0 2.409 1.1 2.41 2.455 0 1.355-1.08 2.454-2.41 2.454z" fill="#fff"/></svg>