<svg fill="none" height="32" viewBox="0 0 32 32" width="32" xmlns="http://www.w3.org/2000/svg"><path d="m9.7856 13.4464 6.2144-6.2144 6.2176 6.2176 3.616-3.616-9.8336-9.8336-9.8304 9.8304zm-9.7856 2.5536 3.616-3.616 3.616 3.616-3.616 3.616zm9.7856 2.5536 6.2144 6.2144 6.2176-6.2176 3.616 3.6144-9.8336 9.8352-9.8304-9.8304-.0048-.0048zm14.9824-2.5536 3.616-3.616 3.616 3.616-3.616 3.616zm-5.1008-.0032h.0032v.0032l-3.6704 3.6704-3.6656-3.664-.0064-.0064.0064-.0048.6416-.6432.312-.312 2.712-2.7104 3.6688 3.6688z" fill="#f3ba2f"/></svg>