<svg xmlns="http://www.w3.org/2000/svg" width="32" height="32" fill="none"><defs><linearGradient id="bic__a" x1="26" x2="6" y1="6" y2="26" gradientUnits="userSpaceOnUse"><stop stop-color="#F1BB03"/><stop offset="1" stop-color="#F2BC03"/></linearGradient></defs><path fill="#0C0D13" d="M16 32c8.837 0 16-7.163 16-16S24.837 0 16 0 0 7.163 0 16s7.163 16 16 16Z"/><path fill="url(#bic__a)" d="M12.116 14.404 16 10.52l3.886 3.886 2.26-2.26L16 6l-6.144 6.144 2.26 2.26ZM6 16l2.26-2.26L10.52 16l-2.26 2.26L6 16Zm6.116 1.596L16 21.48l3.886-3.886 2.26 2.259L16 26l-6.144-6.144-.003-.003 2.263-2.257ZM21.48 16l2.26-2.26L26 16l-2.26 2.26L21.48 16Zm-3.188-.002h.002V16L16 18.294l-2.291-2.29-.004-.004.004-.003.401-.402.195-.195L16 13.706l2.293 2.293-.001-.001Z"/></svg>