<svg fill="none" height="32" viewBox="0 0 32 32" width="32" xmlns="http://www.w3.org/2000/svg" xmlns:xlink="http://www.w3.org/1999/xlink"><linearGradient id="a"><stop offset="0" stop-color="#f15f40"/><stop offset="1" stop-color="#ef2356"/></linearGradient><linearGradient id="b" gradientUnits="userSpaceOnUse" x1="13.4955" x2="19.6366" xlink:href="#a" y1="7.90931" y2="24.0034"/><linearGradient id="c" gradientUnits="userSpaceOnUse" x1="46.9999" x2="54.1132" xlink:href="#a" y1="-61.0631" y2="-84.9698"/><path d="m16 32c8.8366 0 16-7.1634 16-16 0-8.83656-7.1634-16-16-16-8.83656 0-16 7.16344-16 16 0 8.8366 7.16344 16 16 16z" fill="#262626"/><path d="m24.3804 22.1957-3.2608 1.7608-7.6304-.826.6521-1.087-1.0869-.6522c-.5435-.3261-.3479-3.1522-.3479-3.1522-3.63045-5.1087-1.674-8.39125-1.674-8.39125-.8477 3.93475 4.7175 5.76085 4.7175 5.76085-1.1087-2.5.413-3.8261.413-3.8261 1.2174 2.9348 2.6304 3.0435 2.6304 3.0435l1.4131.1087 1.8478-1.8696c-.4407-.6392-.6506-1.4094-.5953-2.1838s.3726-1.50697.8996-2.07706c.8914 3.47826 2.7392 3.47826 2.7392 3.47826l2.7391.087-8.4565-8.45661c-.5898-.58488-1.3868-.91305-2.2174-.91305s-1.6276.32817-2.2174.91305l-9.86952 9.86961c-.58487.5898-.91304 1.3868-.91304 2.2174s.32817 1.6276.91304 2.2174l9.86952 9.8695c.5898.5849 1.3868.9131 2.2174.9131s1.6276-.3282 2.2174-.9131l5.4131-5.413z" fill="url(#b)"/><path d="m18.7935 17.7827c.5467-.1991 1.0229-.5544 1.3695-1.0218.087-.1304.2391-.0435.2826.1087.1087.4783.3044 1.3913-1.6087 1.2174-.0343-.0049-.0661-.0208-.0906-.0453s-.0404-.0563-.0453-.0906.0015-.0692.0182-.0996c.0166-.0304.0427-.0545.0743-.0688z" fill="url(#c)"/></svg>