<svg xmlns="http://www.w3.org/2000/svg" width="32" height="32" fill="none"><defs><linearGradient id="bnx__a" x1="13.495" x2="19.637" y1="7.909" y2="24.003" gradientUnits="userSpaceOnUse"><stop stop-color="#F15F40"/><stop offset="1" stop-color="#EF2356"/></linearGradient><linearGradient id="bnx__b" x1="47" x2="54.113" y1="-61.063" y2="-84.97" gradientUnits="userSpaceOnUse"><stop stop-color="#F15F40"/><stop offset="1" stop-color="#EF2356"/></linearGradient></defs><path fill="#262626" d="M16 32c8.837 0 16-7.163 16-16S24.837 0 16 0 0 7.163 0 16s7.163 16 16 16Z"/><path fill="url(#bnx__a)" d="m24.38 22.196-3.26 1.76-7.63-.825.651-1.087-1.087-.653c-.543-.326-.348-3.152-.348-3.152-3.63-5.109-1.673-8.391-1.673-8.391-.848 3.935 4.717 5.76 4.717 5.76-1.109-2.5.413-3.825.413-3.825 1.217 2.934 2.63 3.043 2.63 3.043l1.413.109 1.848-1.87a3.418 3.418 0 0 1 .305-4.26c.891 3.478 2.739 3.478 2.739 3.478l2.739.087-8.457-8.457a3.15 3.15 0 0 0-4.434 0l-9.87 9.87a3.15 3.15 0 0 0 0 4.434l9.87 9.87a3.15 3.15 0 0 0 4.434 0l5.414-5.413-.414-.478Z"/><path fill="url(#bnx__b)" d="M18.794 17.783a2.97 2.97 0 0 0 1.369-1.022c.087-.13.24-.044.283.109.108.478.304 1.39-1.61 1.217a.16.16 0 0 1-.042-.304Z"/></svg>