<svg fill="none" height="32" viewBox="0 0 32 32" width="32" xmlns="http://www.w3.org/2000/svg"><path d="m16 32c8.8366 0 16-7.1634 16-16 0-8.83656-7.1634-16-16-16-8.83656 0-16 7.16344-16 16 0 8.8366 7.16344 16 16 16z" fill="#000"/><path d="m13.0371 19.4734c-.1604.0004-.3156-.0562-.4381-.1598-.1225-.1035-.2041-.2472-.2304-.4054l-1.8907-11.11626c-.0154-.08784-.013-.17786.0069-.26477.0199-.08692.057-.16898.1091-.24138.0777-.10949.1862-.19347.3117-.24133.1254-.04785.2623-.05743.3932-.02753.1309.02991.25.09796.3423.19555.0922.0976.1535.22035.176.35274l1.8906 11.11628c.0154.0879.013.1779-.0069.2648s-.057.169-.1091.2414c-.0515.0727-.1169.1345-.1923.1819-.0755.0474-.1595.0795-.2474.0944-.038.0063-.0764.0095-.1149.0094z" fill="#cf0"/><path d="m13.0371 19.4734c-.1604.0004-.3156-.0562-.4381-.1598-.1225-.1035-.2041-.2472-.2304-.4054l-1.8907-11.11626c-.0154-.08784-.013-.17786.0069-.26477.0199-.08692.057-.16898.1091-.24138.0777-.10949.1862-.19347.3117-.24133.1254-.04785.2623-.05743.3932-.02753.1309.02991.25.09796.3423.19555.0922.0976.1535.22035.176.35274l1.8906 11.11628c.0154.0879.013.1779-.0069.2648s-.057.169-.1091.2414c-.0515.0727-.1169.1345-.1923.1819-.0755.0474-.1595.0795-.2474.0944-.038.0063-.0764.0095-.1149.0094z" fill="#cf0"/><path d="m16.2058 14.3466c-1.0407-.0013-2.0586.3046-2.9262.8794l.2288 1.3455c.7375-.6398 1.6787-.9961 2.655-1.0051.9763-.0089 1.9238.33 2.6729.9562s1.2507 1.4986 1.415 2.461-.0195 1.9519-.5184 2.7911-1.2804 1.4734-2.2043 1.7888c-.924.3154-1.9301.2916-2.838-.0674-.908-.3589-1.6585-1.0294-2.117-1.8913-.4585-.862-.5951-1.859-.3854-2.8126l-.3648-2.1416c-.6752.9802-1.0024 2.1584-.9294 3.3464.0729 1.1879.5419 2.3172 1.3319 3.2074.79.8903 1.8556 1.4901 3.0265 1.7037 1.1709.2137 2.3796.0288 3.4331-.5251 1.0535-.5538 1.891-1.4448 2.3788-2.5304.4878-1.0857.5977-2.3035.3123-3.459-.2855-1.1555-.95-2.182-1.8872-2.9156-.9373-.7335-2.0934-1.1319-3.2836-1.1314z" fill="#cf0"/><g fill="#1cd8d2"><path d="m15.9148 22.7814c.4006 0 .7254-.3248.7254-.7255 0-.4006-.3248-.7255-.7254-.7255-.4007 0-.7255.3249-.7255.7255 0 .4007.3248.7255.7255.7255z"/><path d="m18.1808 21.9368c.4007 0 .7255-.3248.7255-.7255s-.3248-.7255-.7255-.7255c-.4006 0-.7254.3248-.7254.7255s.3248.7255.7254.7255z"/><path d="m16.3998 20.3814c.4007 0 .7255-.3248.7255-.7255s-.3248-.7255-.7255-.7255c-.4006 0-.7254.3248-.7254.7255s.3248.7255.7254.7255z"/><path d="m14.1475 21.1227c.4006 0 .7254-.3248.7254-.7255 0-.4006-.3248-.7254-.7254-.7254-.4007 0-.7255.3248-.7255.7254 0 .4007.3248.7255.7255.7255z"/><path d="m18.6448 19.638c.4007 0 .7255-.3248.7255-.7255s-.3248-.7255-.7255-.7255-.7255.3248-.7255.7255.3248.7255.7255.7255z"/><path d="m16.8838 17.9814c.4007 0 .7255-.3249.7255-.7255 0-.4007-.3248-.7255-.7255-.7255-.4006 0-.7254.3248-.7254.7255 0 .4006.3248.7255.7254.7255z"/><path d="m14.6104 18.825c.4007 0 .7255-.3248.7255-.7255s-.3248-.7255-.7255-.7255-.7255.3248-.7255.7255.3248.7255.7255.7255z"/></g></svg>