<svg width="32" height="32" fill="none" xmlns="http://www.w3.org/2000/svg"><path d="M16 32c8.837 0 16-7.163 16-16S24.837 0 16 0 0 7.163 0 16s7.163 16 16 16Z" fill="#000"/><path d="M13.037 19.473a.676.676 0 0 1-.668-.565L10.478 7.792a.669.669 0 0 1 .116-.506.679.679 0 0 1 1.223.28l1.89 11.116a.669.669 0 0 1-.115.506.678.678 0 0 1-.555.285Z" fill="#CF0"/><path d="M13.037 19.473a.676.676 0 0 1-.668-.565L10.478 7.792a.669.669 0 0 1 .116-.506.679.679 0 0 1 1.223.28l1.89 11.116a.669.669 0 0 1-.115.506.678.678 0 0 1-.555.285Z" fill="#CF0"/><path d="M16.206 14.347a5.286 5.286 0 0 0-2.926.879l.228 1.345a4.11 4.11 0 1 1-1.32 2.221l-.365-2.141a5.323 5.323 0 1 0 4.383-2.304Z" fill="#CF0"/><path d="M15.915 22.781a.725.725 0 1 0 0-1.45.725.725 0 0 0 0 1.45ZM18.18 21.937a.725.725 0 1 0 0-1.451.725.725 0 0 0 0 1.45ZM16.4 20.381a.725.725 0 1 0 0-1.45.725.725 0 0 0 0 1.45ZM14.148 21.123a.725.725 0 1 0 0-1.451.725.725 0 0 0 0 1.45ZM18.645 19.638a.725.725 0 1 0 0-1.451.725.725 0 0 0 0 1.451ZM16.884 17.981a.726.726 0 1 0 0-1.45.726.726 0 0 0 0 1.45ZM14.61 18.825a.725.725 0 1 0 0-1.451.725.725 0 0 0 0 1.451Z" fill="#1CD8D2"/></svg>