<svg fill="none" height="32" viewBox="0 0 32 32" width="32" xmlns="http://www.w3.org/2000/svg" xmlns:xlink="http://www.w3.org/1999/xlink"><clipPath id="a"><path d="m0 0h32v32h-32z"/></clipPath><g clip-path="url(#a)"><path d="m16 32c8.8366 0 16-7.1634 16-16 0-8.83656-7.1634-16-16-16-8.83656 0-16 7.16344-16 16 0 8.8366 7.16344 16 16 16z" fill="#2f06aa"/><path d="m26.0203 3.53601-3.1329 4.26893-10.0138 5.21696-.1483 8.3705 17.085.1172-4.5709 7.5383c2.3377-1.6427 4.1897-3.8847 5.3615-6.4904 1.1718-2.6058 1.62-5.4791 1.2976-8.318-.02-.1823-.0564-.3593-.0824-.5398-.0571-.395-.1196-.7882-.2052-1.1732-.0443-.1998-.1004-.3949-.1521-.5918-.095-.361-.197-.7191-.3161-1.0697-.0642-.1894-.1346-.3758-.2057-.562-.1355-.35405-.2826-.70195-.4413-1.04375-.0768-.16474-.1542-.329-.2364-.4906-.1863-.36591-.3882-.72242-.6012-1.07141-.0748-.12275-.1459-.24793-.2239-.36853-.2687-.41467-.5557-.81571-.8611-1.20313-.0356-.04523-.0674-.09351-.1035-.13837-.7262-.90258-1.5473-1.72438-2.4493-2.4512z" fill="#241185"/><g fill="#fff"><path d="m6.062 26 11.3428-9.0317-6.4325-5.2154 14.9657-5.7529-6.3917 5.1138 1.7146 8.9744z"/><path d="m11.0163 21.5869v-9.2239l5.8088 4.6094z"/></g></g></svg>