<svg xmlns="http://www.w3.org/2000/svg" width="32" height="32" fill="none"><defs><clipPath id="bolt__a"><path fill="#fff" d="M0 0h32v32H0z"/></clipPath></defs><g clip-path="url(#bolt__a)"><path fill="#2F06AA" d="M16 32c8.837 0 16-7.163 16-16S24.837 0 16 0 0 7.163 0 16s7.163 16 16 16Z"/><path fill="#241185" d="m26.02 3.536-3.133 4.269-10.013 5.217-.149 8.37 17.085.118-4.57 7.538a15.906 15.906 0 0 0 6.659-14.808c-.02-.183-.057-.36-.083-.54-.057-.395-.12-.788-.205-1.173-.044-.2-.1-.395-.152-.592a15.92 15.92 0 0 0-.316-1.07c-.065-.19-.135-.376-.206-.562a16.38 16.38 0 0 0-.678-1.534 15.945 15.945 0 0 0-.6-1.072c-.076-.123-.147-.248-.225-.368a15.974 15.974 0 0 0-.86-1.203c-.037-.046-.068-.094-.104-.139a16.147 16.147 0 0 0-2.45-2.451Z"/><path fill="#fff" d="m6.062 26 11.343-9.032-6.433-5.215L25.938 6l-6.392 5.114 1.715 8.974L6.062 26Z"/><path fill="#fff" d="M11.016 21.587v-9.224l5.81 4.61-5.81 4.614Z"/></g></svg>