<svg fill="none" height="32" viewBox="0 0 32 32" width="32" xmlns="http://www.w3.org/2000/svg" xmlns:xlink="http://www.w3.org/1999/xlink"><clipPath id="a"><path d="m0 0h32v32h-32z"/></clipPath><g clip-path="url(#a)"><path d="m32 15.997c.0013-2.6534-.6574-5.2654-1.9166-7.60099-1.2593-2.33554-3.0797-4.32124-5.2972-5.77833-2.2175-1.45708-4.7626-2.339793-7.4061-2.5686642-2.6435-.2288718-5.3024.2032862-7.7374 1.2575642-2.43495 1.05428-4.56949 2.69757-6.21142 4.78193-1.64193 2.08437-2.739714 4.54439-3.194504 7.15849s-.2523116 5.3003.589207 7.8167c.841517 2.5165 2.295657 4.7841 4.231487 6.5988l4.60142-3.444v-8.0834l-1.74389-1.3737 8.085-6.07579 8.085 6.07579-1.7438 1.3737v8.0834l4.6014 3.444c1.5979-1.4937 2.8715-3.3001 3.7415-5.3069.8701-2.0069 1.318-4.1713 1.3159-6.3586z" fill="#ff4339"/><path d="m22.3412 16.1351 1.7438-1.3737-8.085-6.07582-8.085 6.07582 1.74385 1.3737v8.0834l-4.60485 3.4465c2.96441 2.7848 6.8788 4.335 10.946 4.335 4.0673 0 7.9816-1.5502 10.946-4.335l-4.6049-3.4465z" fill="#fff"/><path d="m16.0528 14.4385h-.1586c-.9799.017-1.9133.421-2.5965 1.1238-.6831.7028-1.0604 1.6473-1.0496 2.6273v4.0682l3.7519-2.8002 3.7518 2.8002v-4.0682c-.0009-.9855-.3893-1.9312-1.0813-2.633-.6921-.7018-1.6322-1.1033-2.6177-1.1181z" fill="#ff4339"/></g></svg>