<svg xmlns="http://www.w3.org/2000/svg" width="32" height="32" fill="none"><path fill="#000" d="M16 32c8.837 0 16-7.163 16-16S24.837 0 16 0 0 7.163 0 16s7.163 16 16 16Z" opacity=".98"/><path fill="#fff" d="M10.922 7.797h3.906-3.906Zm10.156 1.562-10.156 3.742L21.078 9.36Zm0 9.54L10.922 22.64l10.156-3.743Zm0 5.304h-3.906 3.906Z"/><path fill="#fff" fill-rule="evenodd" d="M9.75 7.797c0-.647.525-1.172 1.172-1.172h3.906a1.172 1.172 0 0 1 0 2.344h-3.906A1.172 1.172 0 0 1 9.75 7.797Zm12.428 1.157a1.172 1.172 0 0 1-.695 1.505l-10.156 3.742a1.172 1.172 0 1 1-.81-2.2L20.673 8.26a1.172 1.172 0 0 1 1.505.694Zm0 9.54a1.172 1.172 0 0 1-.695 1.504L11.327 23.74a1.172 1.172 0 1 1-.81-2.199l10.156-3.742a1.172 1.172 0 0 1 1.505.694ZM16 24.203c0-.648.525-1.173 1.172-1.173h3.906a1.172 1.172 0 0 1 0 2.344h-3.906A1.172 1.172 0 0 1 16 24.203Z" clip-rule="evenodd"/><path fill="#fff" d="m21.078 14.047-10.156 3.906 10.156-3.906Z"/><path fill="#fff" fill-rule="evenodd" d="M22.172 13.626a1.172 1.172 0 0 1-.673 1.515l-10.156 3.906a1.172 1.172 0 1 1-.842-2.188l10.156-3.906a1.172 1.172 0 0 1 1.515.673Z" clip-rule="evenodd"/></svg>