<svg fill="none" height="32" viewBox="0 0 32 32" width="32" xmlns="http://www.w3.org/2000/svg" xmlns:xlink="http://www.w3.org/1999/xlink"><filter id="a" color-interpolation-filters="sRGB" filterUnits="userSpaceOnUse" height="20.1558" width="18.5341" x="7.27979" y="6.50879"><feFlood flood-opacity="0" result="BackgroundImageFix"/><feColorMatrix in="SourceAlpha" type="matrix" values="0 0 0 0 0 0 0 0 0 0 0 0 0 0 0 0 0 0 127 0"/><feOffset dx=".5" dy=".5"/><feGaussianBlur stdDeviation=".5"/><feColorMatrix type="matrix" values="0 0 0 0 0 0 0 0 0 0 0 0 0 0 0 0 0 0 0.25 0"/><feBlend in2="BackgroundImageFix" mode="normal" result="effect1_dropShadow"/><feBlend in="SourceGraphic" in2="effect1_dropShadow" mode="normal" result="shape"/></filter><linearGradient id="b" gradientUnits="userSpaceOnUse" x1="16" x2="16" y1="32" y2="0"><stop offset="0" stop-color="#26216d"/><stop offset=".5" stop-color="#4a43d5"/><stop offset="1" stop-color="#4e48dd"/></linearGradient><linearGradient id="c" gradientUnits="userSpaceOnUse" x1="11.3143" x2="11.3143" y1="30.6948" y2="0"><stop offset="0" stop-color="#3831ab"/><stop offset=".5" stop-color="#4e4fdf"/><stop offset="1" stop-color="#5b62fe"/></linearGradient><path d="m16 32c8.8366 0 16-7.1634 16-16 0-8.83656-7.1634-16-16-16-8.83656 0-16 7.16344-16 16 0 8.8366 7.16344 16 16 16z" fill="url(#b)"/><path d="m0 15.961v.0845c.0195122 6.5691 3.9935 12.2017 9.66504 14.6537l12.96256-29.26831c-2.0162-.917069-4.2601-1.43089-6.6276-1.43089-8.81951 0-15.9739837 7.14146-16 15.961z" fill="url(#c)"/><g filter="url(#a)"><path d="m24.2473 7.53851c-.4683 1.05366-.9431 2.10732-1.4114 3.16749-.9171 2.0683-1.8277 4.1301-2.7382 6.1984-.7675 1.7496-1.535 3.4991-2.3025 5.2487-.3642.8326-.7349 1.6586-1.0862 2.4976-.13.3122-.3642.5073-.6764.5138-.3187.0065-.5333-.2211-.6699-.5203-.4943-1.1252-1.0016-2.2504-1.5024-3.3756-.5594-1.2878-1.1122-2.5756-1.6781-3.8634-.748-1.7041-1.4959-3.4082-2.2439-5.1122-.56585-1.2878-1.13171-2.57563-1.70406-3.86994-.13009-.30569-.27968-.59837-.39675-.91057-.13659-.34471-.03252-.50081.33171-.50081 1.10569-.0065 2.2114 0 3.3171 0 .3252 0 .4943.14309.6179.45528.3642.89757.7739 1.78212 1.1707 2.67314.865 1.9578 1.7301 3.9155 2.5886 5.8732.0455.1041.0976.2146.1691.3642.1236-.2731.2277-.4943.3252-.7219.6895-1.574 1.3854-3.1415 2.0748-4.7155.5203-1.18371 1.0407-2.36094 1.5545-3.54468.1301-.29919.3642-.37724.6569-.37724h3.1545c.4813 0 .6114.08456.4488.52033z" fill="#fdfdfe"/></g></svg>