<svg fill="none" height="32" viewBox="0 0 32 32" width="32" xmlns="http://www.w3.org/2000/svg" xmlns:xlink="http://www.w3.org/1999/xlink"><linearGradient id="a" gradientUnits="userSpaceOnUse" x1="-.000003" x2="32" y1="16.001" y2="16.001"><stop offset="0" stop-color="#f8a438"/><stop offset=".9995" stop-color="#fe4f92"/></linearGradient><clipPath id="b"><path d="m0 0h32v32h-32z"/></clipPath><g clip-path="url(#b)"><path d="m31.9993 15.9845c.0823 8.7782-7.2669 16.267-16.4988 16.0111-8.33877-.2309-15.743081-7.2107-15.4944108-16.5139.2154118-8.06007 6.9992808-15.867586 16.7978108-15.4669135 8.0128.3276535 15.2081 6.9907835 15.1954 15.9697135z" fill="url(#a)"/><path clip-rule="evenodd" d="m20.534 15.779c-.0798.0286-.1613.0578-.2459.0872.1631.0548.3232.1041.4799.1525.3332.1026.6517.2008.9529.3373 1.3684.6204 1.949 1.7259 1.7793 3.2304-.1894 1.6787-1.2501 2.5596-2.7448 3.0462-1.2253.3988-2.4985.4928-3.7752.5068-1.7491.0193-3.4983.0265-5.2475.0337-.7012.0029-1.4024.0058-2.10353.0094-.73034.0038-1.14011-.3821-1.14011-1.0699.00003-1.9056-.00005-3.8112-.00014-5.7169-.0001-2.1433-.0002-4.2867-.00013-6.43004 0-.77116.38097-1.15138 1.14344-1.15138.71277-.00002 1.42557-.00355 2.13837-.00709 1.6191-.00802 3.2381-.01604 4.8563.01708l.0422.00086c1.3766.02813 2.769.05658 4.1027.46837 1.4095.43525 2.474 1.492 2.5282 3.1744.0547 1.6989-.9514 2.7363-2.2782 3.1446-.1615.0497-.3207.1067-.4878.1665zm-1.7462 4.0095c-.472.1545-.9737.2889-1.4653.3-1.1675.0264-2.3356.022-3.5222.0175-.4619-.0018-.9267-.0035-1.3952-.0035v-8.2004c.0663 0 .1301-.0001.1923-.0002.1307-.0001.254-.0003.3774.0003.3864.0018.7728.0028 1.1592.0037 1.0657.0027 2.1314.0053 3.1966.0267.3643.0073.7356.0964 1.0874.202.5747.1727.8307.5366.819 1.0711-.0126.585-.3034.9804-.9001 1.1057-.4658.0977-.9472.149-1.4232.1629-.5592.0162-1.119.0132-1.6787.0102-.3066-.0017-.6131-.0034-.9195-.0019-.5012.0025-.6986.1975-.7077.7-.009.4926-.0118.9856-.0051 1.4782.0066.4858.2233.695.7176.6971.3052.0013.6107-.0019.916-.0051.628-.0067 1.2558-.0133 1.8816.0197.5613.0296 1.1279.1484 1.6693.3057.477.1385.6452.5644.6543 1.0366.0092.4905-.1687.9148-.6537 1.0737z" fill="#fff" fill-rule="evenodd"/></g></svg>