<svg xmlns="http://www.w3.org/2000/svg" width="32" height="32" fill="none"><defs><linearGradient id="brd__b" x1="0" x2="32" y1="16.001" y2="16.001" gradientUnits="userSpaceOnUse"><stop stop-color="#F8A438"/><stop offset="1" stop-color="#FE4F92"/></linearGradient><clipPath id="brd__a"><path fill="#fff" d="M0 0h32v32H0z"/></clipPath></defs><g clip-path="url(#brd__a)"><path fill="url(#brd__b)" d="M32 15.985c.082 8.778-7.268 16.267-16.5 16.01-8.338-.23-15.743-7.21-15.494-16.513.216-8.06 7-15.868 16.798-15.467 8.013.327 15.208 6.99 15.195 15.97Z"/><path fill="#fff" fill-rule="evenodd" d="M20.534 15.779c-.08.029-.161.058-.246.087.163.055.323.104.48.153.333.102.652.2.953.337 1.368.62 1.949 1.726 1.78 3.23-.19 1.68-1.25 2.56-2.746 3.047-1.225.398-2.498.492-3.775.506-1.749.02-3.498.027-5.247.034l-2.104.01c-.73.003-1.14-.383-1.14-1.07a90787.813 90787.813 0 0 0 0-12.147c0-.771.38-1.152 1.143-1.152.713 0 1.426-.003 2.139-.007 1.619-.008 3.238-.016 4.856.017l.042.001c1.377.028 2.77.057 4.103.469 1.41.435 2.474 1.492 2.528 3.174.055 1.699-.951 2.736-2.278 3.145-.162.05-.32.106-.488.166Zm-1.746 4.01c-.472.154-.974.288-1.465.3-1.168.026-2.336.021-3.523.017-.462-.002-.926-.004-1.395-.004v-8.2h.57l1.159.004c1.066.003 2.131.005 3.197.027.364.007.735.096 1.087.202.575.172.83.536.819 1.07-.013.586-.303.981-.9 1.106a8.119 8.119 0 0 1-1.423.163c-.56.017-1.12.014-1.679.01-.307-.001-.613-.003-.92-.001-.5.002-.698.197-.707.7-.01.492-.012.985-.005 1.478.006.486.223.695.717.697.306.001.611-.002.916-.005a29.722 29.722 0 0 1 1.882.02c.561.03 1.128.148 1.67.305.476.139.644.565.654 1.037.009.49-.17.915-.654 1.073Z" clip-rule="evenodd"/></g></svg>