<svg xmlns="http://www.w3.org/2000/svg" width="32" height="32" fill="none"><defs><linearGradient id="bsw__a" x1="25.608" x2="21.833" y1="10.21" y2="31.005" gradientUnits="userSpaceOnUse"><stop stop-color="#FF496A"/><stop offset="1" stop-color="#E42648"/></linearGradient><linearGradient id="bsw__b" x1="7.723" x2="16.069" y1="23.569" y2="0" gradientUnits="userSpaceOnUse"><stop offset=".002" stop-color="#1158F1"/><stop offset="1" stop-color="#119BED"/></linearGradient></defs><path fill="#fff" d="M16 31.995c8.834 0 15.995-7.161 15.995-15.995S24.834.005 16 .005.005 7.166.005 16 7.166 31.995 16 31.995Z"/><path fill="url(#bsw__a)" d="M28.393 6.02c-1.11.219-2.168.529-3.039.722-1.987.445-3.845 1.968-4.251 4.755-.362 2.49.477 3.561.11 6.458-.646 5.058-5.497 6.8-7.762 7.858-1.31.606-4.49 2-6.942 3.064A15.92 15.92 0 0 0 16 32c8.84 0 16-7.161 16-16 0-3.768-1.303-7.232-3.483-9.961a4.785 4.785 0 0 0-.123-.02Z"/><path fill="url(#bsw__b)" d="M14.2 13.652c1.232-2.665.787-2.671 1.723-5.175 1.18-3.174 4.851-2.27 5.864-2.135 1.67.226 2.11-.368 5.632-.936.174-.025.342-.051.51-.07A15.97 15.97 0 0 0 15.999 0C9.633 0 4.136 3.716 1.562 9.103c5.278 1.31 10.974 4.155 12.639 4.549ZM10.703 2.787c.465.071 2.723 2.877 3.149 10.084 0 0-2.904-.697-3.53-2.194-.516-1.232.155-2.851.381-7.89Zm17.787 3.22c.007.012.02.019.026.032-.039-.007-.084-.007-.123-.013.033-.013.065-.013.097-.02ZM0 16c0-1.277.148-2.516.432-3.703.58.483 1.2 1.019 1.858 1.632 4.168 3.864 10.949 6.916 13.42 4.077.006.007.012.007.012.013-.451.594-2.174 2.471-5.464 1.89l-5.2 7.762A15.954 15.954 0 0 1 0 16Z"/></svg>