<svg fill="none" height="32" viewBox="0 0 32 32" width="32" xmlns="http://www.w3.org/2000/svg" xmlns:xlink="http://www.w3.org/1999/xlink"><linearGradient id="a" gradientUnits="userSpaceOnUse" x1="25.6081" x2="21.8334" y1="10.2101" y2="31.0052"><stop offset="0" stop-color="#ff496a"/><stop offset="1" stop-color="#e42648"/></linearGradient><linearGradient id="b" gradientUnits="userSpaceOnUse" x1="7.72265" x2="16.0685" y1="23.5688" y2="-.000005"><stop offset=".00181229" stop-color="#1158f1"/><stop offset="1" stop-color="#119bed"/></linearGradient><path d="m15.9999 31.9949c8.8338 0 15.995-7.1612 15.995-15.995 0-8.83382-7.1612-15.99501719-15.995-15.99501719-8.83382 0-15.99501719 7.16119719-15.99501719 15.99501719 0 8.8338 7.16119719 15.995 15.99501719 15.995z" fill="#fff"/><path d="m28.3928 6.01953c-1.1096.21935-2.1676.52904-3.0386.72256-1.9871.44519-3.8452 1.96777-4.2516 4.75481-.3613 2.4903.4774 3.5613.1097 6.458-.6452 5.058-5.4967 6.7999-7.7613 7.858-1.3096.6064-4.49024 2-6.94184 3.0645 2.65806 1.9613 5.93544 3.1226 9.49024 3.1226 8.8387 0 15.9999-7.1613 15.9999-15.9999 0-3.7677-1.3032-7.23221-3.4838-9.96119-.0387-.0065-.0775-.01294-.1227-.01938z" fill="url(#a)"/><path d="m14.1999 13.6515c1.2322-2.6645.7871-2.671 1.7226-5.17414 1.1806-3.17418 4.8515-2.27097 5.8644-2.13547 1.671.22578 2.1097-.36772 5.6322-.93549.1742-.0258.342-.05161.5097-.07097-2.929-3.27093-7.187-5.33543-11.9289-5.33543-6.36774 0-11.86445 3.71609-14.43862 9.10313 5.27738 1.30967 10.97412 4.15487 12.63862 4.54837zm-3.4968-10.86443c.4645.07097 2.7226 2.87739 3.1484 10.08383 0 0-2.9032-.6968-3.529-2.1936-.51614-1.23222.1548-2.85159.3806-7.89023zm17.787 3.2193c.0065.01294.0193.01938.0258.03226-.0387-.00644-.0839-.00644-.1226-.01288.0323-.01288.0646-.01288.0968-.01938zm-28.4901 9.99353c0-1.2774.148386-2.5162.432255-3.7032.580635.4838 1.199985 1.0193 1.858055 1.6322 4.16769 3.8645 10.94829 6.9161 13.41929 4.0774.0064.0064.0128.0064.0128.0129-.4516.5935-2.1741 2.471-5.4644 1.8903l-5.19998 7.7612c-3.10965-2.9161-5.05802-7.0644-5.05802-11.6708z" fill="url(#b)"/></svg>