<svg width="32" height="32" fill="none" xmlns="http://www.w3.org/2000/svg"><circle cx="16" cy="16" r="16" fill="#000"/><path d="M10.961 21.552h8.279a3.763 3.763 0 0 0 3.757-3.757 3.763 3.763 0 0 0-3.757-3.758H12.757a3.28 3.28 0 0 1-2.791-1.559c.208-.335.47-.628.785-.871a3.253 3.253 0 0 1 2.006-.684h8.279c1.082 0 1.961-.88 1.961-1.961 0-1.082-.88-1.962-1.961-1.962h-8.279A3.762 3.762 0 0 0 9 10.757a3.762 3.762 0 0 0 3.757 3.758H19.24a3.286 3.286 0 0 1 3.282 3.282c0 .439-.086.856-.243 1.237a3.727 3.727 0 0 0-3.04-1.549h-6.482a3.286 3.286 0 0 1-3.282-3.282H9a3.763 3.763 0 0 0 3.757 3.758H19.24a3.26 3.26 0 0 1 2.792 1.557 3.28 3.28 0 0 1-2.792 1.559h-8.278c-1.082 0-1.962.88-1.962 1.961C9 24.12 9.88 25 10.961 25h8.279a3.763 3.763 0 0 0 3.757-3.757h-.475a3.286 3.286 0 0 1-3.282 3.282h-8.278c-.82 0-1.487-.667-1.487-1.486 0-.82.667-1.487 1.486-1.487ZM9.475 10.757a3.286 3.286 0 0 1 3.282-3.282h8.279c.82 0 1.486.667 1.486 1.487 0 .819-.667 1.486-1.486 1.486h-8.279c-.84 0-1.634.27-2.297.785-.284.22-.533.475-.742.763a3.27 3.27 0 0 1-.243-1.239Z" fill="#fff"/></svg>