<svg fill="none" height="32" viewBox="0 0 32 32" width="32" xmlns="http://www.w3.org/2000/svg"><circle cx="16" cy="16" fill="#000" r="16"/><path d="m10.9615 21.5523h8.2784c2.0712 0 3.7575-1.6862 3.7575-3.7575 0-2.0712-1.6863-3.7574-3.7575-3.7574h-.043-6.4395c-1.1786 0-2.2131-.6237-2.79169-1.5593.20859-.3355.47099-.6281.78499-.8711.5786-.4474 1.2733-.6839 2.0067-.6839h8.2784c1.0819 0 1.9616-.8797 1.9616-1.96158 0-1.08185-.8797-1.96152-1.9616-1.96152h-8.2784c-2.0712 0-3.7574 1.68622-3.7574 3.7574 0 2.0713 1.6862 3.7575 3.7574 3.7575h6.4395.043c1.8089 0 3.2821 1.4711 3.2821 3.2821 0 .4388-.086.856-.243 1.2367-.7055-.9743-1.8196-1.5486-3.0391-1.5486h-.043-6.4395c-1.8088 0-3.28207-1.4711-3.28207-3.2821h-.47533c0 2.0712 1.6862 3.7575 3.7574 3.7575h6.4395.043c1.1464 0 2.1874.5807 2.7918 1.5571-.5786.9356-1.6131 1.5594-2.7918 1.5594h-8.2784c-1.08182 0-1.9615.8796-1.9615 1.9615 0 1.0818.87968 1.9615 1.9615 1.9615h8.2784c2.0712 0 3.7575-1.6862 3.7575-3.7574h-.4754c0 1.8088-1.4711 3.2821-3.2821 3.2821h-8.2784c-.8194 0-1.48617-.6668-1.48617-1.4862 0-.8195.66677-1.4862 1.48617-1.4862zm-1.48617-10.7949c0-1.80878 1.47117-3.28207 3.28207-3.28207h8.2784c.8195 0 1.4862.66674 1.4862 1.48619 0 .81946-.6667 1.48618-1.4862 1.48618h-8.2784c-.8409 0-1.6346.271-2.297.7851-.2839.2193-.53341.4753-.74203.7635-.15701-.385-.24304-.8023-.24304-1.2389z" fill="#fff"/></svg>