<svg xmlns="http://www.w3.org/2000/svg" width="32" height="32" fill="none"><defs><linearGradient id="btg__a" x1="7.438" x2="26.616" y1="3.042" y2="32.066" gradientUnits="userSpaceOnUse"><stop offset=".005" stop-color="#F1D200"/><stop offset="1" stop-color="#D27D00"/></linearGradient></defs><path fill="#fff" d="M16 30.017c7.741 0 14.017-6.276 14.017-14.017 0-7.742-6.276-14.017-14.017-14.017S1.983 8.258 1.983 16c0 7.741 6.276 14.017 14.017 14.017Z"/><path fill="url(#btg__a)" d="M16 0C7.165 0 0 7.165 0 16c0 8.834 7.165 16 16 16 8.834 0 16-7.166 16-16 0-8.835-7.166-16-16-16Zm0 28.317C9.198 28.317 3.683 22.802 3.683 16 3.683 9.198 9.198 3.683 16 3.683c6.802 0 12.317 5.515 12.317 12.317 0 6.802-5.515 12.317-12.317 12.317Z"/><path fill="#132365" d="M16 26.905C9.99 26.905 5.095 22.017 5.095 16 5.095 9.989 9.983 5.095 16 5.095c6.011 0 10.905 4.888 10.905 10.905 0 6.011-4.894 10.905-10.905 10.905Zm0-20.718c-5.409 0-9.813 4.404-9.813 9.813 0 5.409 4.404 9.813 9.813 9.813 5.409 0 9.813-4.404 9.813-9.813 0-5.409-4.404-9.813-9.813-9.813Z"/><path fill="#132365" fill-rule="evenodd" d="M13.842 9.983V8.307h1.574v1.676h1.092V8.307h1.575v1.684a3.424 3.424 0 0 1 2.443 5.53 3.419 3.419 0 0 1-1.86 6.29h-.583v1.605h-1.575V21.81h-1.091v1.607h-1.575V21.81h-3.727l.96-1.913h1.098v-8h-1.105l-.96-1.914h3.734Zm.244 9.913h4.587a1.51 1.51 0 0 0 1.506-1.505 1.51 1.51 0 0 0-1.506-1.506h-4.587v3.011Zm0-4.988h3.759a1.51 1.51 0 0 0 1.506-1.506 1.51 1.51 0 0 0-1.506-1.505h-3.759v3.011Z" clip-rule="evenodd"/></svg>