<svg fill="none" height="32" viewBox="0 0 32 32" width="32" xmlns="http://www.w3.org/2000/svg" xmlns:xlink="http://www.w3.org/1999/xlink"><linearGradient id="a" gradientUnits="userSpaceOnUse" x1="7.43774" x2="26.6163" y1="3.04215" y2="32.0663"><stop offset=".0051282" stop-color="#f1d200"/><stop offset="1" stop-color="#d27d00"/></linearGradient><path d="m16 30.0173c7.7415 0 14.0173-6.2758 14.0173-14.0173 0-7.74151-6.2758-14.01724-14.0173-14.01724-7.74149 0-14.01722 6.27573-14.01722 14.01724 0 7.7415 6.27573 14.0173 14.01722 14.0173z" fill="#fff"/><path d="m16 0c-8.83451 0-16 7.16549-16 16 0 8.8345 7.16549 16 16 16 8.8345 0 16-7.1655 16-16 0-8.83451-7.1655-16-16-16zm0 28.3169c-6.80157 0-12.31686-5.5153-12.31686-12.3169 0-6.80157 5.51529-12.31686 12.31686-12.31686 6.8016 0 12.3169 5.51529 12.3169 12.31686 0 6.8016-5.5153 12.3169-12.3169 12.3169z" fill="url(#a)"/><g fill="#132365"><path d="m16 26.9051c-6.01095 0-10.90507-4.8879-10.90507-10.9051 0-6.011 4.88784-10.90512 10.90507-10.90512 6.011 0 10.9051 4.88785 10.9051 10.90512 0 6.011-4.8941 10.9051-10.9051 10.9051zm0-20.71845c-5.4086 0-9.81331 4.40475-9.81331 9.81335s4.40471 9.8133 9.81331 9.8133c5.4087 0 9.8134-4.4047 9.8134-9.8133s-4.4047-9.81335-9.8134-9.81335z"/><path clip-rule="evenodd" d="m13.8416 9.98276v-1.6753h1.5749v1.6753h1.0918v-1.6753h1.5749v1.68397c1.7691.12587 3.1749 1.60487 3.1749 3.41097.0026.7989-.2716 1.5357-.7326 2.1191.9381.6098 1.5609 1.667 1.5609 2.8691 0 1.8886-1.5373 3.4196-3.4196 3.4196h-.5836v1.6063h-1.5749v-1.6063h-1.0918v1.6063h-1.5749v-1.6063h-1.669-2.058l.96-1.9137h1.098v-8h-1.1043l-.96-1.91374zm.2447 9.91374h4.5868c.8282 0 1.5059-.6777 1.5059-1.5059s-.6777-1.5059-1.5059-1.5059h-4.5868zm0-4.9883h3.7585c.8282 0 1.5058-.6776 1.5058-1.5058 0-.8283-.6776-1.5059-1.5058-1.5059h-3.7585z" fill-rule="evenodd"/></g></svg>