<svg xmlns="http://www.w3.org/2000/svg" width="32" height="32" fill="none"><circle cx="16" cy="16" r="16" fill="#000"/><path fill="#FCFCFC" d="M15.996 2a14.017 14.017 0 0 0-12.931 8.652A14.003 14.003 0 0 0 6.1 25.908a14.006 14.006 0 0 0 18.785.91 14 14 0 0 0 5.047-12.194 13.998 13.998 0 0 0-7.336-10.971A14.01 14.01 0 0 0 15.996 2Zm0 26.611a12.616 12.616 0 0 1-11.661-7.774A12.603 12.603 0 0 1 7.06 7.094a12.614 12.614 0 0 1 20.578 13.733 12.602 12.602 0 0 1-11.643 7.784Z"/><path fill="#FCFCFC" d="M8.466 22.392c-1.083-2.296-1.182-5.115-.21-7.467a9.066 9.066 0 0 1 2.577-3.5c1.573-1.303 3.621-2.079 5.671-2.073l.006-1.26v-.24h-.263a10.7 10.7 0 0 0-7.043 3.006c-1.69 1.656-2.749 3.929-3.017 6.273-.29 2.528.42 5.177 2.008 7.176l.025.032c.649.81 1.416 1.545 2.328 2.037a11.11 11.11 0 0 0 4.963 1.365c-2.994-.55-5.747-2.597-7.045-5.349Z"/><path fill="#FCFCFC" d="M23.642 24.047c-.291.028-.589.049-.883.065-2.479.14-5.218.08-7.405-1.247a6.431 6.431 0 0 1-1.598-1.365c-1.575-1.874-1.52-4.709.494-6.254 1.756-1.346 4.396-1.09 5.81.63.126.154.4.502.4.502s.463-.243.61-.316l.046-.022.03-.016.08-.039.039-.019.35-.172.193-.098-.006-.01a5.82 5.82 0 0 0-1.596-1.738 5.896 5.896 0 0 0-4.257-1.032c-2.408.365-4.4 2.218-4.797 4.63-.41 2.492.839 4.883 2.89 6.273 2.135 1.443 4.815 1.643 7.345 1.54.593-.025 1.802-.127 1.799-.147.491-.4.952-.835 1.378-1.304 0 0-.798.129-.922.14Z"/><path fill="#FCFCFC" d="M19.452 26.296a12.572 12.572 0 0 1-.908-.054c-2.492-.239-5.036-1.181-6.68-3.142-1.525-1.818-2.167-4.395-1.421-6.674a6.568 6.568 0 0 1 8.626-4.073s.291-.643.324-.704v-.01l.011-.022.021-.046c.097-.2.186-.405.285-.602-2.093-.748-4.349-.786-6.398.146a8.127 8.127 0 0 0-4.602 8.976 8.124 8.124 0 0 0 1.465 3.285c.895 1.198 2.134 2.122 3.457 2.813 2.1 1.084 5.123 1.222 5.336 1.175 1.042-.248 2.538-.962 2.845-1.198-.45.09-1.226.119-1.684.132-.224.005-.45.004-.677-.002Z"/></svg>