<svg fill="none" height="32" viewBox="0 0 32 32" width="32" xmlns="http://www.w3.org/2000/svg"><circle cx="16" cy="16" fill="#000" r="16"/><g fill="#fcfcfc"><path d="m15.9959 2c-2.7696.00343-5.476.82714-7.77755 2.36711-2.30154 1.53997-4.09497 3.72714-5.1538 6.28529-1.05884 2.5582-1.3356 5.3726-.79533 8.0879s1.87334 5.2097 3.83087 7.1681c1.62966 1.6261 3.63528 2.8255 5.83931 3.4919 2.2039.6665 4.5383.7794 6.7964.3289s4.3702-1.4506 6.1494-2.9117c1.7792-1.4612 3.1705-3.3383 4.0508-5.4651.8804-2.1269 1.2225-4.4379.9962-6.7285-.2264-2.2906-1.0142-4.49-2.2937-6.40365-1.2796-1.91362-3.0114-3.48235-5.0422-4.56732-2.0307-1.08497-4.2978-1.6527-6.6004-1.65293zm0 26.6112c-2.495.0025-4.9347-.7347-7.01046-2.1185-2.07574-1.3838-3.69426-3.352-4.65079-5.6554-.95653-2.3035-1.20809-4.8388-.72287-7.2853.48523-2.4464 1.68544-4.69398 3.44879-6.45841 1.76336-1.76443 4.01063-2.96642 6.45753-3.4539s4.9835-.23855 7.2888.7153 4.2758 2.56976 5.6623 4.6433c1.3864 2.07351 2.1264 4.51151 2.1264 7.00561.0009 1.6548-.3243 3.2936-.957 4.8228-.6328 1.5291-1.5606 2.9188-2.7306 4.0895s-2.5593 2.0996-4.0884 2.7336-3.1682.9607-4.8237.9614z"/><path d="m8.4664 22.392c-1.08369-2.2965-1.18265-5.1147-.20956-7.4675.56208-1.3581 1.44608-2.5593 2.57586-3.5 1.5736-1.3024 3.6216-2.07823 5.6716-2.07242l.0058-1.26073v-.23954s-.1853 0-.2629 0c-2.6385.09893-5.1472 1.16973-7.04347 3.00639-1.69005 1.6554-2.74851 3.9286-3.01628 6.2726-.29105 2.5283.42009 5.1768 2.0073 7.1765l.02522.032c.64905.8098 1.41646 1.5449 2.32843 2.0366 1.5244.8373 3.2242 1.3051 4.9625 1.3655-2.994-.5509-5.74641-2.5971-7.0445-5.3494z"/><path d="m23.6419 24.0475c-.2911.0271-.5889.0484-.8829.0649-2.4788.1397-5.2176.0805-7.4054-1.2471-.6039-.3645-1.1437-.8258-1.5978-1.3655-1.5746-1.8737-1.5193-4.7084.4938-6.2533 1.756-1.346 4.3968-1.091 5.8113.6304.1252.1532.3998.5014.3998.5014s.4627-.2434.6092-.3162l.0466-.0223.0301-.0155.0795-.0388.0388-.0194.3493-.1726.194-.097-.0058-.0097c-.4079-.6826-.9513-1.2743-1.5969-1.7388-1.2335-.8777-2.7575-1.2471-4.2562-1.0319-2.408.3647-4.4007 2.218-4.7975 4.6298-.4094 2.4924.8392 4.883 2.8911 6.2727 2.1344 1.443 4.814 1.6438 7.3443 1.54.5928-.0242 1.8016-.1261 1.7987-.1464.4916-.3997.9524-.8357 1.3786-1.3044 0 0-.7985.129-.9226.1397z"/><path d="m19.4516 26.2964c-.3027-.0072-.6051-.0253-.9071-.0544-2.4924-.2385-5.0362-1.1812-6.6807-3.1421-1.5251-1.8174-2.1664-4.3951-1.4213-6.6741.2784-.848.7267-1.6304 1.3177-2.2995.5909-.669 1.312-1.2106 2.1193-1.5918s1.6839-.5939 2.5762-.6252c.8923-.0312 1.7816.1196 2.6136.4433 0 0 .2911-.643.3241-.7031v-.0107l.0106-.0223.0214-.0456c.097-.2007.1853-.4044.2842-.6022-2.0926-.7477-4.3483-.7855-6.3973.1464-1.1052.5035-2.0835 1.248-2.8629 2.1791-.77947.931-1.3403 2.0248-1.64127 3.201-.30098 1.1761-.33445 2.4048-.09796 3.5956.2365 1.1908.73694 2.3134 1.46453 3.2855.8955 1.1977 2.1344 2.1219 3.4568 2.8124 2.1004 1.0842 5.1235 1.222 5.336 1.1754 1.0429-.2483 2.5389-.962 2.8455-1.1977-.4502.0902-1.2263.1183-1.6842.1319-.2238.0045-.4496.0039-.6772-.0019z"/></g></svg>