<svg xmlns="http://www.w3.org/2000/svg" width="32" height="32" fill="none"><defs><clipPath id="burger__a"><path fill="#fff" d="M0 0h32v32H0z"/></clipPath></defs><g clip-path="url(#burger__a)"><path fill="#F0B80B" d="M14.386.666.666 14.39a2.276 2.276 0 0 0 0 3.219l13.72 13.724c.889.889 2.33.889 3.218 0l13.72-13.724a2.276 2.276 0 0 0 0-3.219L17.604.666a2.275 2.275 0 0 0-3.218 0Z"/><path fill="#1E2125" d="M16.195 9.184c.746.06 1.786.094 2.81.24 1.29.185 2.54.546 3.612 1.34.762.568 1.348 1.287 1.553 2.25.115.54.212 1.086.304 1.631.046.271-.086.419-.361.373a89.598 89.598 0 0 1-2.436-.422.59.59 0 0 1-.329-.223c-.262-.363-.697-.493-1.032-.22-.335.272-.668.25-1.056.24-1.792-.055-3.587-.076-5.38-.106-.33 0-.6.041-.822-.351-.284-.502-1.186-.429-1.477.08a.844.844 0 0 1-.727.462c-.775.077-1.545.195-2.316.297-.048 0-.094.011-.142.015-.604.04-.707-.063-.666-.672.079-1.217.52-2.286 1.413-3.12.58-.54 1.314-.868 2.062-1.126 1.515-.516 3.104-.595 4.99-.688Zm-1.75 1.25c.268-.191.569-.296.657-.493.089-.197-.197-.227-.363-.228-.248 0-.528 0-.561.328-.012.1.141.212.267.393Zm3.023-.838-.527.328c.194.125.404.221.625.286.105.017.246-.179.371-.279l-.47-.335Zm-6.074 1.384.67-.537c-.1-.074-.194-.198-.3-.21-.291-.034-.669.192-.636.365.016.098.128.188.263.374l.003.008Zm4.297-.179c.165-.023.25-.01.294-.047.128-.117.25-.24.365-.368a4.367 4.367 0 0 0-.447-.154.266.266 0 0 0-.202.04c-.115.097-.224.2-.328.31l.319.22Zm4.326-.524c.14.357.394.533.7.473a.384.384 0 0 0 .242-.164c.025-.04-.047-.174-.108-.226a.708.708 0 0 0-.837-.09l.003.008Zm-1.69.608c.163-.025.258-.01.314-.054.114-.09.288-.222.28-.329-.019-.208-.207-.259-.406-.19a.693.693 0 0 0-.228.092 1.892 1.892 0 0 0-.223.27l.262.211Zm-5.036.164c.165-.164.355-.26.352-.354-.01-.329-.329-.283-.534-.3-.111-.01-.236.129-.354.201l.536.453Zm2.034 11.767c-1.272-.07-2.547-.095-3.813-.223-1.573-.164-2.88-.806-3.578-2.332a2.397 2.397 0 0 1-.173-.857c0-.087.2-.271.302-.266.8.044 1.596.135 2.395.189.754.05 1.507.072 2.26.103.243.01.42.063.505.34.082.196.197.375.341.53.3.393.64.43 1.033.129a2.01 2.01 0 0 0 .393-.293c.45-.587 1.048-.684 1.75-.688 2.148-.019 4.29-.2 6.41-.54.255-.04.503-.118.756-.164.297-.053.43.074.44.386.037 1.16-.657 2.152-1.696 2.665-1.674.82-3.477.878-5.271.995-.681.044-1.367 0-2.052 0l-.002.026Z"/><path fill="#1E2125" d="M24.518 16.745c-.573-.218-1.12-.392-1.642-.633-.35-.165-.632-.242-.975.024a.983.983 0 0 1-1.167.035.77.77 0 0 0-.852-.012 2.031 2.031 0 0 1-1.84.027.974.974 0 0 0-.872-.051.805.805 0 0 1-.926-.125.562.562 0 0 0-.709-.09 2.088 2.088 0 0 1-1.78 0c-.265-.109-.44-.138-.657.152-.155.21-.481.329-.756.41a1.956 1.956 0 0 1-1.548-.129 1.123 1.123 0 0 0-.919-.077c-.476.131-.952.148-1.405-.113-.254-.147-.458 0-.686.124-.293.162-.61.276-.939.339a.543.543 0 0 1-.46-.273.596.596 0 0 1 .21-.529c.444-.231.913-.484 1.397-.55 1.15-.164 2.323-.226 3.489-.308a48.518 48.518 0 0 1 7.715-.012c1.313.117 2.626.228 3.94.394.528.067 1.039.274 1.557.417.294.082.542.261.42.57-.065.174-.357.256-.595.41Zm-11.944 2.196c-1.477-.089-2.94-.174-4.41-.27-.3-.019-.424-.254-.41-.658.01-.302.191-.387.447-.37 1.117.071 2.233.163 3.35.22 2.747.117 5.493.154 8.235-.134 1.323-.14 2.649-.248 3.974-.368.248-.023.522-.073.582.281.043.247-.197.532-.51.583a19.7 19.7 0 0 1-2.134.304c-2.615.13-5.232.22-7.847.318-.425.017-.848 0-1.273 0l-.004.094Z"/></g></svg>