<svg fill="none" height="32" viewBox="0 0 32 32" width="32" xmlns="http://www.w3.org/2000/svg" xmlns:xlink="http://www.w3.org/1999/xlink"><clipPath id="a"><path d="m0 0h32v32h-32z"/></clipPath><g clip-path="url(#a)"><path d="m14.3863.666099-13.719917 13.724101c-.888509.8888-.88851 2.3298-.000006 3.2186l13.719923 13.7241c.8885.8888 2.3291.8888 3.2176 0l13.7199-13.7241c.8885-.8888.8885-2.3298 0-3.2186l-13.7199-13.724101c-.8885-.888783-2.3291-.888783-3.2176 0z" fill="#f0b80b"/><g fill="#1e2125"><path d="m16.1954 9.1839c.7453.06074 1.786.0936 2.8103.23971 1.2886.18555 2.5394.5468 3.6114 1.33989.7616.5682 1.3477 1.2874 1.5529 2.2496.1148.5402.2117 1.087.3036 1.6322.046.2709-.0853.4187-.3611.3727-.8207-.1313-1.6267-.2692-2.436-.422-.1319-.0343-.2479-.1132-.3283-.2233-.2627-.3629-.6977-.4926-1.0326-.22-.3348.2726-.6681.2512-1.0554.2397-1.7926-.0542-3.5868-.0755-5.381-.1051-.3283 0-.5992.0411-.8208-.3513-.284-.5025-1.1868-.4286-1.4773.0804-.0687.1352-.1724.2493-.3004.3305-.1279.0812-.2754.1264-.4268.1309-.7749.0772-1.54471.1954-2.31626.2972-.0476 0-.09354.0115-.1412.0148-.60405.0394-.70748-.0624-.66645-.6716.0788-1.2168.5204-2.2857 1.41337-3.1198.57948-.5403 1.31324-.8687 2.06174-1.1265 1.5152-.5156 3.1042-.5944 4.9903-.688zm-1.7499 1.2496c.2676-.1905.568-.2956.6567-.49263.0886-.19703-.1971-.22663-.3628-.22823-.2479 0-.5286 0-.5615.32836-.0115.1002.1412.2119.2676.3925zm3.0221-.83749-.5269.32846c.1938.12443.4044.22063.6254.28573.105.0164.2462-.179.371-.27916zm-6.0737 1.38429.6697-.537c-.1001-.0739-.1937-.1987-.3004-.2101-.2905-.0346-.6681.1921-.6352.3645.0164.0985.128.1888.2626.3744zm4.2976-.179c.1641-.023.2495-.0099.2938-.0476.1275-.1164.2492-.2392.3644-.3679-.1459-.0594-.295-.111-.4465-.1543-.0347-.0069-.0704-.0069-.1051.0002-.0347.007-.0676.0209-.0968.0409-.115.0968-.2246.1998-.3283.3087zm4.3254-.5238c.1395.3563.3939.532.6993.4729.0995-.0204.1868-.0795.2429-.1642.0247-.041-.0476-.1741-.1083-.2266-.1116-.1026-.2531-.1667-.4038-.1829-.1506-.0163-.3025.0162-.4334.0926zm-1.6908.6075c.1642-.0246.2594-.0098.3152-.0541.1133-.0904.2873-.2217.279-.3285-.018-.2085-.2068-.2594-.4054-.1904-.081.0168-.1582.0479-.2282.0919-.0826.0827-.1573.1729-.2232.2693zm-5.0346.1642c.1642-.1642.3546-.2594.3513-.3546-.0098-.3285-.3283-.2825-.5335-.3005-.1116-.0099-.2363.1297-.3546.2019z"/><path d="m15.3253 22.8161c-1.2722-.0705-2.5477-.0952-3.8133-.2233-1.57253-.1642-2.88081-.8062-3.57847-2.3316-.10954-.2728-.168-.5634-.1724-.8572 0-.087.20029-.271.30206-.266.79943.0443 1.59554.1346 2.39501.1888.7534.0493 1.5069.0723 2.2604.1035.2429.0098.4186.0623.5039.3399.0821.1954.1976.3748.3415.5303.3004.3925.6402.4286 1.0325.1281.1428-.0808.2751-.179.3939-.2922.4498-.5879 1.0474-.6848 1.7499-.688 2.1473-.0191 4.29-.1996 6.4102-.5403.2545-.0394.5023-.1182.7551-.1642.2971-.0525.4301.0739.4399.3859.0378 1.1609-.6565 2.1527-1.6956 2.665-1.6744.821-3.4768.8785-5.271.995-.6813.0444-1.3674 0-2.0519 0z"/><path d="m24.5177 16.7454c-.5728-.2184-1.1195-.3924-1.6415-.6338-.3496-.1642-.632-.2414-.9751.0246-.1654.1296-.3679.2028-.5779.2089-.2099.0063-.4164-.0549-.5892-.1744-.1251-.0856-.2727-.1323-.4242-.1344-.1516-.002-.3004.0407-.4277.123-.283.149-.5972.229-.917.2336-.3198.0045-.6361-.0665-.9232-.2074-.1313-.0758-.2785-.1198-.4298-.1287-.1514-.0088-.3027.0178-.4419.0778-.1481.0782-.3169.1082-.4828.0859-.166-.0224-.3209-.096-.443-.2107-.0893-.0951-.2089-.1561-.3383-.1727-.1294-.0164-.2606.0127-.3708.0824-.2786.1314-.5827.1995-.8906.1995s-.612-.0681-.8905-.1995c-.2643-.1084-.4399-.1379-.6566.1527-.1543.2102-.481.3284-.7551.4089-.2531.0855-.521.1183-.7872.0963-.2663-.022-.5252-.0984-.7608-.2244-.139-.0772-.2929-.1239-.4514-.1372-.1584-.0133-.3178.0071-.46785.06-.47605.1314-.95205.1478-1.40514-.1133-.25446-.1461-.458 0-.68617.1248-.29309.1618-.61.276-.93897.3383-.0936-.002-.18509-.0281-.2656-.0759-.08052-.0478-.14737-.1155-.194-.1967-.01183-.0987.0012-.1987.03788-.2911.03675-.0923.09595-.174.17223-.2376.4432-.2316.91269-.4844 1.39692-.5501 1.14908-.1642 2.3228-.2266 3.4883-.3087 2.5674-.2086 5.1472-.2125 7.7152-.0115 1.3132.1166 2.6264.2282 3.9396.3941.5286.0673 1.0391.2742 1.5579.417.2938.0822.5417.2611.4202.5698-.0657.1741-.3578.2562-.5959.4105z"/><path d="m12.5743 18.941c-1.4773-.0887-2.93997-.174-4.41077-.2709-.29874-.0181-.42349-.2529-.4104-.6568.01148-.3022.19206-.3876.44817-.3711 1.11623.0722 2.2325.1641 3.3503.22 2.7463.1182 5.4926.1544 8.234-.133 1.3231-.1396 2.6494-.2479 3.9742-.3678.2478-.023.522-.0739.5827.2808.0427.2463-.197.532-.5105.5829-.7053.1401-1.4177.2415-2.134.3037-2.615.1298-5.2316.2201-7.8465.3186-.4252.0164-.8487 0-1.2739 0z"/></g></g></svg>