<svg fill="none" height="32" viewBox="0 0 32 32" width="32" xmlns="http://www.w3.org/2000/svg" xmlns:xlink="http://www.w3.org/1999/xlink"><linearGradient id="a"><stop offset="0" stop-color="#f1bb03"/><stop offset="1" stop-color="#f2bc03"/></linearGradient><linearGradient id="b" gradientUnits="userSpaceOnUse" x1="11.0131" x2="6.26708" xlink:href="#a" y1="13.6335" y2="18.3796"/><linearGradient id="c" gradientUnits="userSpaceOnUse" x1="18.3738" x2="9.88858" xlink:href="#a" y1="6.26999" y2="14.7552"/><linearGradient id="d" gradientUnits="userSpaceOnUse" x1="22.033" x2="9.89068" xlink:href="#a" y1="9.93237" y2="22.0747"/><linearGradient id="e" gradientUnits="userSpaceOnUse" x1="25.7272" x2="13.5849" xlink:href="#a" y1="13.6234" y2="25.7658"/><path d="m16 32c8.8366 0 16-7.1634 16-16 0-8.83656-7.1634-16-16-16-8.83656 0-16 7.16344-16 16 0 8.8366 7.16344 16 16 16z" fill="#0c0d13"/><path d="m11.0131 16.0065-2.37304-2.373-2.37303 2.373 2.37303 2.373z" fill="url(#b)"/><path d="m18.3738 8.64301-2.373-2.37302-6.11219 6.11221 2.37299 2.373z" fill="url(#c)"/><path d="m22.033 12.3054-2.373-2.37303-9.76931 9.76933 2.37301 2.373z" fill="url(#d)"/><path d="m25.7272 15.9964-2.3731-2.373-9.7693 9.7693 2.3731 2.373z" fill="url(#e)"/></svg>