<svg fill="none" height="32" viewBox="0 0 32 32" width="32" xmlns="http://www.w3.org/2000/svg"><path d="m16 32c8.8366 0 16-7.1634 16-16 0-8.83656-7.1634-16-16-16-8.83656 0-16 7.16344-16 16 0 8.8366 7.16344 16 16 16z" fill="#efba0c"/><g fill="#202020"><path d="m11.0131 16.0065-2.37304-2.373-2.37303 2.373 2.37303 2.373z"/><path d="m18.3738 8.64301-2.373-2.37302-6.11219 6.11221 2.37299 2.373z"/><path d="m22.033 12.3054-2.373-2.37303-9.76931 9.76933 2.37301 2.373z"/><path d="m25.7272 15.9964-2.3731-2.373-9.7693 9.7693 2.3731 2.373z"/></g></svg>