<svg width="32" height="32" fill="none" xmlns="http://www.w3.org/2000/svg"><path d="M16 32c8.837 0 16-7.163 16-16S24.837 0 16 0 0 7.163 0 16s7.163 16 16 16Z" fill="#0C0D13"/><path d="M11.013 16.006 8.64 13.633l-2.373 2.373L8.64 18.38l2.373-2.373Z" fill="url(#a)"/><path d="M18.374 8.643 16 6.27l-6.112 6.112 2.373 2.373 6.112-6.112Z" fill="url(#b)"/><path d="M22.033 12.305 19.66 9.932l-9.77 9.77 2.374 2.373 9.769-9.77Z" fill="url(#c)"/><path d="m25.727 15.996-2.373-2.373-9.77 9.77 2.374 2.373 9.77-9.77Z" fill="url(#d)"/><defs><linearGradient id="a" x1="11.013" y1="13.633" x2="6.267" y2="18.38" gradientUnits="userSpaceOnUse"><stop stop-color="#F1BB03"/><stop offset="1" stop-color="#F2BC03"/></linearGradient><linearGradient id="b" x1="18.374" y1="6.27" x2="9.889" y2="14.755" gradientUnits="userSpaceOnUse"><stop stop-color="#F1BB03"/><stop offset="1" stop-color="#F2BC03"/></linearGradient><linearGradient id="c" x1="22.033" y1="9.932" x2="9.891" y2="22.075" gradientUnits="userSpaceOnUse"><stop stop-color="#F1BB03"/><stop offset="1" stop-color="#F2BC03"/></linearGradient><linearGradient id="d" x1="25.727" y1="13.623" x2="13.585" y2="25.766" gradientUnits="userSpaceOnUse"><stop stop-color="#F1BB03"/><stop offset="1" stop-color="#F2BC03"/></linearGradient></defs></svg>