<svg fill="none" height="32" viewBox="0 0 32 32" width="32" xmlns="http://www.w3.org/2000/svg" xmlns:xlink="http://www.w3.org/1999/xlink"><linearGradient id="a" gradientUnits="userSpaceOnUse" x1="29.8086" x2="4.41344" y1="29.8086" y2="4.41343"><stop offset=".1594" stop-color="#003cda"/><stop offset="1" stop-color="#33dfcc"/></linearGradient><path d="m.127998 16c0-8.76801 7.104002-15.872009 15.872002-15.872009s15.872 7.103999 15.872 15.872009c0 8.768-7.104 15.872-15.872 15.872s-15.872002-7.104-15.872002-15.872z" fill="url(#a)"/><g fill="#fff"><path d="m9.35678 1.58082c1.01122-.4672 2.07362-.825605 3.18722-1.075205v6.636805h-3.18081v-5.5616z"/><path d="m.486423 12.6336c.2368-1.1136.595197-2.1824 1.055997-3.1936h16.33918c2.3872 0 4.32 1.9392 4.32 4.3328v4.2176c0 2.3936-1.9328 4.3328-4.32 4.3328h-4.2048c-2.3872 0-4.31998-1.9392-4.31998-4.3328v-3.0784h3.18718v3.0528c0 .64.4992 1.1392 1.1392 1.1392h4.2048c.6336 0 1.1392-.4992 1.1392-1.1392v-4.192c0-.64-.4992-1.1392-1.1392-1.1392z"/></g></svg>