<svg xmlns="http://www.w3.org/2000/svg" width="32" height="32" fill="none"><defs><linearGradient id="bzrx__a" x1="29.809" x2="4.413" y1="29.809" y2="4.413" gradientUnits="userSpaceOnUse"><stop offset=".159" stop-color="#003CDA"/><stop offset="1" stop-color="#33DFCC"/></linearGradient></defs><path fill="url(#bzrx__a)" d="M.128 16C.128 7.232 7.232.128 16 .128S31.872 7.232 31.872 16 24.768 31.872 16 31.872.128 24.768.128 16Z"/><path fill="#fff" d="M9.357 1.58A15.83 15.83 0 0 1 12.544.507v6.636h-3.18V1.581h-.007ZM.486 12.634A15.45 15.45 0 0 1 1.542 9.44h16.34c2.387 0 4.32 1.94 4.32 4.333v4.217a4.325 4.325 0 0 1-4.32 4.333h-4.205a4.325 4.325 0 0 1-4.32-4.333v-3.078h3.187v3.053c0 .64.5 1.139 1.14 1.139h4.204c.634 0 1.14-.5 1.14-1.14v-4.191c0-.64-.5-1.14-1.14-1.14H.486Z"/></svg>