<svg fill="none" height="32" viewBox="0 0 32 32" width="32" xmlns="http://www.w3.org/2000/svg"><path d="m16 32c8.8366 0 16-7.1634 16-16 0-8.83656-7.1634-16-16-16-8.83656 0-16 7.16344-16 16 0 8.8366 7.16344 16 16 16z" fill="#d9b432"/><g fill="#fff"><path d="m21.2273 8.13431c.5586-.00575 1.1128.09875 1.6309.30749s.99.51764 1.3886.90901c.3986.39136.7161.85749.9342 1.37169.2182.5143.3328 1.0665.3373 1.6251-.0043.7026-.1766 1.3939-.5027 2.0163-.5413-.4148-1.1411-.747-1.7799-.9858.1804-.3134.2749-.6689.2741-1.0305-.0109-.5861-.2514-1.1444-.6697-1.555s-.9811-.6406-1.5672-.6406c-.5862 0-1.149.23-1.5673.6406s-.6588.9689-.6697 1.555c-.0012.3617.0934.7172.2741 1.0305-.6516.2107-1.2562.5455-1.7807.9858-.3469-.6145-.5206-1.3117-.5027-2.0171-.0133-.5558.0862-1.1086.2925-1.6249.2062-.5163.5149-.98549.9075-1.37918s.8609-.70374 1.3766-.91143c.5158-.2077 1.0682-.30872 1.6241-.29698z"/><path d="m10.7727 23.8657c-.5585.0057-1.11255-.0988-1.63056-.3075-.51801-.2088-.98977-.5176-1.38827-.9089s-.71592-.8573-.93409-1.3714c-.21816-.5141-.33279-1.0662-.33731-1.6247h2.054c.01094.5861.25143 1.1444.66976 1.555s.98107.6406 1.56727.6406c.5861 0 1.1489-.23 1.5672-.6406s.6588-.9689.6698-1.555h2.054c-.0046.5586-.1192 1.1107-.3375 1.6248-.2182.5142-.5357.9802-.9343 1.3715-.3985.3913-.8704.7001-1.3885.9088s-1.0722.3132-1.6307.3074z"/><path d="m21.2273 14.0505c-.654-.015-1.3043.1008-1.9128.3407-.6086.2399-1.163.599-1.6308 1.0562s-.8395 1.0033-1.0933 1.6062c-.2538.6028-.3845 1.2504-.3845 1.9045s.1307 1.3016.3845 1.9045.6255 1.1489 1.0933 1.6061 1.0222.8163 1.6308 1.0562c.6085.2399 1.2588.3558 1.9128.3408v.0008c.6501.0088 1.2955-.1117 1.8987-.3544s1.1521-.6028 1.615-1.0594c.4628-.4566.8303-1.0007 1.0812-1.6005.2508-.5999.38-1.2436.38-1.8937 0-.6502-.1292-1.2939-.38-1.8938-.2509-.5998-.6184-1.1438-1.0812-1.6005-.4629-.4566-1.0118-.8167-1.615-1.0594s-1.2486-.3631-1.8987-.3543zm0 7.7533c-.386.0101-.7701-.0572-1.1297-.1979s-.6874-.3521-.9639-.6215c-.2766-.2695-.4965-.5916-.6466-.9474-.1501-.3557-.2274-.738-.2274-1.1241s.0773-.7684.2274-1.1241c.1501-.3558.37-.6779.6466-.9474.2765-.2694.6043-.4807.9639-.6215.3596-.1407.7437-.208 1.1297-.1979.7756.0068 1.5184.3144 2.0718.858.5533.5436.8742 1.2807.8949 2.0561-.0037.3839-.0837.7633-.2354 1.116-.1516.3527-.3719.6718-.6479.9386-.2761.2669-.6024.4762-.9601.6157-.3576.1396-.7395.2067-1.1233.1974z"/><path d="m10.7735 8.13429c-.6501-.00896-1.29556.11135-1.8988.35394s-1.15227.60262-1.6152 1.05918c-.46293.45659-.83053 1.00059-1.08145 1.60039s-.38016 1.2435-.38021 1.8937c-.00006.6502.12908 1.2939.3799 1.8938.25083.5999.61834 1.1439 1.0812 1.6005.46285.4567 1.01182.8168 1.61503 1.0595.6032.2427 1.24863.3631 1.89873.3542h.0008c1.3093.0028 2.5676-.5068 3.506-1.4198s1.4824-2.157 1.5155-3.4658c-.0162-1.3183-.5534-2.5767-1.4942-3.50028-.9408-.92361-2.2089-1.43746-3.5273-1.42933zm2.9211 4.93041v-.0004c.0107.5891-.1543 1.1681-.4738 1.6632-.3196.495-.7793.8838-1.3205 1.1166-.5413.2329-1.1397.2993-1.7188.1909-.57922-.1084-1.11301-.3868-1.5334-.7997s-.70834-.9416-.82717-1.5187-.06316-1.1766.15992-1.722c.22309-.5453.60348-1.012 1.09272-1.3404.48923-.3284 1.06513-.5037 1.65443-.5036.3863-.0042.7696.0679 1.128.2121.3584.1443.6847.3579.9604.6286.2756.2708.4951.5932.6458.9489.1507.3558.2297.7378.2324 1.1241v-.0004z"/></g></svg>