<svg xmlns="http://www.w3.org/2000/svg" width="32" height="32" fill="none"><path fill="#D9B432" d="M16 32c8.837 0 16-7.163 16-16S24.837 0 16 0 0 7.163 0 16s7.163 16 16 16Z"/><path fill="#fff" d="M21.227 8.134a4.247 4.247 0 0 1 4.291 4.214 4.402 4.402 0 0 1-.502 2.016 6.896 6.896 0 0 0-1.78-.986c.18-.313.275-.669.274-1.03a2.237 2.237 0 0 0-4.474 0c-.001.361.093.717.274 1.03a5.311 5.311 0 0 0-1.78.986 3.902 3.902 0 0 1-.503-2.017 4.114 4.114 0 0 1 4.2-4.213ZM10.773 23.866a4.247 4.247 0 0 1-4.29-4.213h2.053a2.237 2.237 0 0 0 4.475 0h2.054a4.246 4.246 0 0 1-4.291 4.213h-.001Z"/><path fill="#fff" d="M21.227 14.05a4.908 4.908 0 1 0 0 9.816 4.909 4.909 0 1 0 0-9.816Zm0 7.754a2.893 2.893 0 1 1 0-5.782 2.994 2.994 0 0 1 2.967 2.914 2.895 2.895 0 0 1-2.967 2.868ZM10.774 8.134a4.908 4.908 0 1 0-.001 9.816 5.012 5.012 0 0 0 5.022-4.886 4.991 4.991 0 0 0-5.021-4.93Zm2.92 4.93a2.968 2.968 0 1 1-2.966-2.913 2.936 2.936 0 0 1 2.967 2.913Z"/></svg>