<svg xmlns="http://www.w3.org/2000/svg" width="32" height="32" fill="none"><defs><linearGradient id="cake__a" x1="16" x2="16" y1="0" y2="32" gradientUnits="userSpaceOnUse"><stop stop-color="#53DEE9"/><stop offset="1" stop-color="#1FC7D4"/></linearGradient></defs><path fill="url(#cake__a)" d="M16 32c8.837 0 16-7.163 16-16S24.837 0 16 0 0 7.163 0 16s7.163 16 16 16Z"/><path fill="#633001" d="M15.967 26.633c-3.1 0-5.634-.733-7.367-2.1-1.767-1.366-2.7-3.3-2.7-5.466 0-2.1.933-3.634 2-4.634a8.277 8.277 0 0 1 2.4-1.6c-.133-.433-.333-1.033-.5-1.633-.2-.8-.433-1.733-.433-2.433 0-.834.166-1.634.666-2.267.5-.667 1.267-1.033 2.2-1.033.734 0 1.334.266 1.8.733.467.433.767 1.033.967 1.633.367 1.067.5 2.4.567 3.767h.866c.034-1.333.2-2.7.567-3.767.2-.6.5-1.2.967-1.633a2.518 2.518 0 0 1 1.8-.733c.933 0 1.7.366 2.2 1.033.466.633.666 1.467.666 2.267 0 .7-.2 1.633-.433 2.433-.167.6-.333 1.167-.5 1.633.633.3 1.567.8 2.4 1.6 1.067 1.034 2 2.534 2 4.634 0 2.166-.933 4.1-2.7 5.466-1.8 1.334-4.333 2.1-7.433 2.1Z"/><path fill="#D1884F" d="M12.2 6.233c-1.333 0-1.967 1-1.967 2.434 0 1.1.734 3.366 1 4.233.067.2-.033.4-.233.5-1.067.433-4.267 2-4.267 5.6 0 3.8 3.234 6.667 9.2 6.667 5.967 0 9.2-2.867 9.2-6.667.034-3.667-3.133-5.233-4.233-5.667-.2-.066-.3-.3-.233-.5.3-.866 1-3.1 1-4.233 0-1.4-.634-2.433-1.967-2.433-1.933 0-2.433 2.766-2.467 5.766a.37.37 0 0 1-.366.367H15a.37.37 0 0 1-.367-.367c-.033-2.933-.5-5.7-2.433-5.7Z"/><path fill="#FEDC90" d="M15.967 24.4c-4.4 0-9.2-2.367-9.234-5.433 0 3.8 3.234 6.666 9.234 6.666 5.966 0 9.233-2.866 9.233-6.666-.033 3.066-4.833 5.433-9.233 5.433Z"/><path fill="#633001" d="M13.533 18c0 1.033-.5 1.567-1.066 1.567-.6 0-1.067-.534-1.067-1.567s.5-1.567 1.067-1.567c.566 0 1.066.534 1.066 1.567Zm7.034 0c0 1.033-.5 1.567-1.067 1.567-.6 0-1.067-.534-1.067-1.567s.5-1.567 1.067-1.567c.6 0 1.067.534 1.067 1.567Z"/></svg>