<svg fill="none" height="32" viewBox="0 0 32 32" width="32" xmlns="http://www.w3.org/2000/svg" xmlns:xlink="http://www.w3.org/1999/xlink"><linearGradient id="a" gradientUnits="userSpaceOnUse" x1="16" x2="16" y1="0" y2="32"><stop offset="0" stop-color="#53dee9"/><stop offset="1" stop-color="#1fc7d4"/></linearGradient><path d="m16 32c8.8366 0 16-7.1634 16-16 0-8.83656-7.1634-16-16-16-8.83656 0-16 7.16344-16 16 0 8.8366 7.16344 16 16 16z" fill="url(#a)"/><path d="m15.9667 26.6333c-3.1 0-5.6334-.7333-7.36671-2.1-1.76666-1.3666-2.7-3.3-2.7-5.4666 0-2.1.93334-3.6334 2-4.6334.83334-.8 1.76667-1.3333 2.40001-1.6-.1333-.4333-.33334-1.0333-.50001-1.6333-.2-.8-.43333-1.73333-.43333-2.43333 0-.83333.16667-1.63333.66664-2.26666.5-.66667 1.2667-1.03334 2.2-1.03334.7334 0 1.3334.26667 1.8.73334.4667.43333.7667 1.03333.9667 1.63333.3667 1.06667.5 2.39996.5667 3.76666h.8666c.0334-1.3333.2-2.69999.5667-3.76666.2-.6.5-1.2.9667-1.63333.4666-.46667 1.1-.73334 1.8-.73334.9333 0 1.7.36667 2.2 1.03334.4666.63333.6666 1.46666.6666 2.26666 0 .7-.2 1.63333-.4333 2.43333-.1667.6-.3333 1.1667-.5 1.6333.6333.3 1.5667.8 2.4 1.6 1.0667 1.0334 2 2.5334 2 4.6334 0 2.1666-.9333 4.1-2.7 5.4666-1.8 1.3334-4.3333 2.1-7.4333 2.1z" fill="#633001"/><path d="m12.2 6.23332c-1.3333 0-1.9667 1-1.9667 2.43334 0 1.1.7334 3.36664 1 4.23334.0667.2-.0333.4-.2333.5-1.06666.4333-4.26666 2-4.26666 5.6 0 3.8 3.23333 6.6667 9.19996 6.6667 5.9667 0 9.2-2.8667 9.2-6.6667.0334-3.6667-3.1333-5.2333-4.2333-5.6667-.2-.0666-.3-.3-.2333-.5.3-.8666 1-3.09998 1-4.23331 0-1.4-.6334-2.43333-1.9667-2.43333-1.9333 0-2.4333 2.76666-2.4667 5.76664 0 .2-.1666.3667-.3666.3667h-1.8667c-.2 0-.3667-.1667-.3667-.3667-.0333-2.93331-.5-5.69998-2.4333-5.69998z" fill="#d1884f"/><path d="m15.9667 24.4c-4.4 0-9.20003-2.3667-9.23336-5.4333 0 3.8 3.23333 6.6666 9.23336 6.6666 5.9666 0 9.2333-2.8666 9.2333-6.6666-.0333 3.0666-4.8333 5.4333-9.2333 5.4333z" fill="#fedc90"/><g fill="#633001"><path d="m13.5333 18c0 1.0333-.5 1.5667-1.0666 1.5667-.6 0-1.0667-.5334-1.0667-1.5667s.5-1.5667 1.0667-1.5667c.5666 0 1.0666.5334 1.0666 1.5667z"/><path d="m20.5667 18c0 1.0333-.5 1.5667-1.0667 1.5667-.6 0-1.0667-.5334-1.0667-1.5667s.5-1.5667 1.0667-1.5667c.6 0 1.0667.5334 1.0667 1.5667z"/></g></svg>