<svg width="32" height="32" viewBox="0 0 32 32" fill="none" xmlns="http://www.w3.org/2000/svg">
    <path d="M16 32C24.8366 32 32 24.8366 32 16C32 7.16344 24.8366 0 16 0C7.16344 0 0 7.16344 0 16C0 24.8366 7.16344 32 16 32Z" fill="url(#paint0_linear)"/>
    <path fill-rule="evenodd" clip-rule="evenodd" d="M5.60736 17.7581L5.60332 17.938C5.60332 18.1653 5.62318 18.3901 5.6618 18.6111H5.60332V18.9594C5.6033 19.1283 5.61424 19.297 5.63605 19.4644C6.05978 22.7148 10.5379 25.2723 16 25.2723C21.4621 25.2723 25.9406 22.7148 26.3643 19.4644C26.3861 19.297 26.3971 19.1283 26.3971 18.9594V18.6111H26.3386C26.3772 18.3901 26.3971 18.1653 26.3971 17.938C26.3971 17.8777 26.3956 17.8177 26.393 17.7581C26.236 14.3551 21.643 11.6256 16 11.6256C10.357 11.6256 5.76405 14.3547 5.60736 17.7581ZM4.75329 17.7581C4.83053 15.6818 6.24148 13.9376 8.20562 12.7452C10.2415 11.5093 12.9994 10.7722 16 10.7722C19.0007 10.7722 21.7589 11.509 23.7944 12.7452C25.7585 13.9376 27.1695 15.6818 27.2467 17.7581H27.25V18.9594C27.25 21.1148 25.8148 22.9256 23.7944 24.1523C21.7589 25.3885 19.001 26.1249 16 26.1249C12.999 26.1249 10.2415 25.3881 8.20562 24.1523C6.1852 22.9256 4.74998 21.1148 4.74998 18.9594V17.7581H4.75329Z" fill="#606063"/>
    <path d="M26.3971 18.9594C26.3971 22.446 21.7424 25.2719 16.0004 25.2719C10.2584 25.2719 5.60332 22.4456 5.60332 18.9594V17.9601H26.3971V18.9594Z" fill="#BEBEBE"/>
    <path d="M26.3971 17.9381C26.3971 21.4246 21.7424 24.2509 16.0004 24.2509C10.2584 24.2509 5.60332 21.4246 5.60332 17.9381C5.60332 14.4515 10.258 11.6256 16.0004 11.6256C21.7427 11.6256 26.3971 14.4519 26.3971 17.9384V17.9381Z" fill="#F5F3F3"/>
    <path fill-rule="evenodd" clip-rule="evenodd" d="M7.20294 16.1544V16.1662C7.20294 16.4531 7.24451 16.7345 7.32432 17.0074H7.20294V17.3771C7.20294 17.5404 7.21618 17.7015 7.24267 17.8604C7.6388 20.2607 10.955 22.134 14.987 22.134C19.019 22.134 22.3353 20.2604 22.7318 17.8604C22.7579 17.7015 22.7715 17.54 22.7715 17.3771V17.0074H22.6501C22.7282 16.7418 22.7691 16.4666 22.7715 16.1897V16.1544C22.7612 13.5326 19.2798 11.4092 14.9874 11.4092C10.695 11.4092 7.21361 13.5326 7.20294 16.1544ZM6.34998 16.1544V17.3774C6.34998 19.1006 7.48984 20.5226 9.03834 21.469C10.6016 22.4242 12.7073 22.9874 14.9874 22.9874C17.2675 22.9874 19.3732 22.4242 20.9368 21.469C22.4853 20.5226 23.6248 19.1006 23.6248 17.3774V16.1931L23.6252 16.1666C23.6252 14.4434 22.4853 13.0214 20.9368 12.0746C19.3736 11.1194 17.2679 10.5559 14.9878 10.5559C12.7077 10.5559 10.6019 11.119 9.03834 12.0746C7.49315 13.0188 6.35549 14.4367 6.35034 16.1544H6.34998Z" fill="#612F01"/>
    <path d="M22.7715 17.3774C22.7715 20.0047 19.2864 22.1348 14.9874 22.1348C10.6884 22.1348 7.20294 20.0047 7.20294 17.3774V16.2611H22.7715V17.3774Z" fill="#FEDC90"/>
    <path d="M22.7715 16.1663C22.7715 18.7936 19.2864 20.9236 14.9874 20.9236C10.6884 20.9236 7.20294 18.7939 7.20294 16.1663C7.20294 13.5386 10.6884 11.4089 14.9874 11.4089C19.2864 11.4089 22.7715 13.539 22.7715 16.1663Z" fill="#D1884F"/>
    <path fill-rule="evenodd" clip-rule="evenodd" d="M9.54924 13.5952V13.607C9.54924 13.8939 9.5908 14.1753 9.67062 14.4482H9.54887V14.8179C9.54887 14.9812 9.56248 15.1423 9.5886 15.3012C9.9851 17.7015 13.3013 19.5748 17.3333 19.5748C21.3653 19.5748 24.6816 17.7015 25.0781 15.3012C25.1042 15.1423 25.1178 14.9808 25.1178 14.8179V14.4482H24.9964C25.0745 14.1826 25.1154 13.9074 25.1178 13.6305V13.5952C25.1071 10.9734 21.6261 8.85004 17.3333 8.85004C13.0406 8.85004 9.55954 10.9734 9.54924 13.5952ZM8.69591 13.5952V14.8182C8.69591 16.5414 9.8354 17.9634 11.3843 18.9098C12.9475 19.865 15.0529 20.4282 17.3333 20.4282C19.6138 20.4282 21.7192 19.865 23.2824 18.9098C24.8313 17.9634 25.9708 16.5414 25.9708 14.8182V13.6074C25.9708 11.8842 24.8313 10.4622 23.2828 9.51542C21.7192 8.55983 19.6138 7.9967 17.3333 7.9967C15.0529 7.9967 12.9475 8.55983 11.3843 9.51542C9.83908 10.4596 8.70142 11.8775 8.69591 13.5952Z" fill="#612F01"/>
    <path d="M25.1171 14.8182C25.1171 17.4455 21.632 19.5756 17.333 19.5756C13.0339 19.5756 9.54851 17.4455 9.54851 14.8182V13.7019H25.1171V14.8182Z" fill="#FEDC90"/>
    <path d="M25.1171 13.6071C25.1171 16.2344 21.632 18.3644 17.333 18.3644C13.0339 18.3644 9.54851 16.2344 9.54851 13.6071C9.54851 10.9798 13.0336 8.84973 17.333 8.84973C21.6324 8.84973 25.1171 10.9798 25.1171 13.6071Z" fill="#D1884F"/>
    <path fill-rule="evenodd" clip-rule="evenodd" d="M7.20294 11.036V11.0478C7.20294 11.3351 7.24451 11.6161 7.32432 11.889H7.20294V12.2586C7.20294 12.422 7.21618 12.5831 7.24267 12.742C7.6388 15.1423 10.955 17.0156 14.987 17.0156C19.019 17.0156 22.3353 15.1423 22.7318 12.742C22.7579 12.5831 22.7715 12.4216 22.7715 12.2586V11.889H22.6501C22.7282 11.6234 22.7691 11.3482 22.7715 11.0713V11.036C22.7612 8.41423 19.2798 6.29083 14.9874 6.29083C10.695 6.29083 7.21361 8.41423 7.20294 11.036ZM6.34998 11.036V12.259C6.34998 13.9822 7.48984 15.4042 9.03834 16.3506C10.6016 17.3058 12.7073 17.8693 14.9874 17.8693C17.2675 17.8693 19.3732 17.3062 20.9368 16.3506C22.4853 15.4042 23.6248 13.9822 23.6248 12.259V11.0746L23.6252 11.0482C23.6252 9.32495 22.4853 7.90297 20.9368 6.95658C19.3736 6.00099 17.2679 5.43787 14.9878 5.43787C12.7077 5.43787 10.6019 6.00099 9.03834 6.95658C7.49315 7.90076 6.35549 9.31833 6.35034 11.0364L6.34998 11.036Z" fill="#612F01"/>
    <path d="M22.7715 12.2589C22.7715 14.8862 19.2864 17.0162 14.9874 17.0162C10.6884 17.0162 7.20294 14.8862 7.20294 12.2589V11.1426H22.7715V12.2589Z" fill="#FEDC90"/>
    <path d="M22.7715 11.0477C22.7715 13.675 19.2864 15.8051 14.9874 15.8051C10.6884 15.8051 7.20294 13.675 7.20294 11.0477C7.20294 8.42043 10.6884 6.29041 14.9874 6.29041C19.2864 6.29041 22.7715 8.42043 22.7715 11.0477Z" fill="#D1884F"/>
    <path fill-rule="evenodd" clip-rule="evenodd" d="M9.04385 11.3439C9.04385 12.2211 9.68128 13.0068 10.6869 13.5353L9.98988 14.7421H9.99025H9.98988V17.7961C9.99007 17.99 10.0672 18.1759 10.2043 18.3129C10.3414 18.45 10.5272 18.5271 10.7211 18.5273C10.915 18.5271 11.1008 18.45 11.2379 18.3129C11.375 18.1759 11.4521 17.99 11.4523 17.7961V15.3674L12.2019 14.069C12.6812 14.1705 13.1958 14.2257 13.7313 14.2257C16.32 14.2257 18.4184 12.9354 18.4184 11.3439C18.4184 9.75233 16.32 8.46204 13.7313 8.46204C11.1426 8.46204 9.04385 9.75233 9.04385 11.3439Z" fill="url(#paint1_linear)"/>
    <path fill-rule="evenodd" clip-rule="evenodd" d="M10.6873 13.5349L10.3673 13.3499C9.5485 12.8309 9.04459 12.1236 9.04459 11.3435C9.04459 9.75193 11.143 8.46163 13.7317 8.46163C16.3204 8.46163 18.4191 9.75193 18.4191 11.3435C18.4191 12.935 16.3207 14.2253 13.7317 14.2253C13.2179 14.2264 12.7055 14.1739 12.2027 14.0686L11.4531 15.367V17.7957C11.4529 17.9896 11.3758 18.1754 11.2387 18.3125C11.1016 18.4496 10.9157 18.5267 10.7218 18.5269C10.528 18.5267 10.3421 18.4496 10.205 18.3125C10.0679 18.1754 9.99081 17.9896 9.99062 17.7957V14.7417L10.6873 13.5349ZM9.24432 14.7546V17.7957C9.24461 18.1875 9.40037 18.5631 9.6774 18.8401C9.95442 19.1172 10.3301 19.2729 10.7218 19.2732C11.1137 19.273 11.4894 19.1173 11.7665 18.8403C12.0436 18.5632 12.1994 18.1875 12.1997 17.7957V15.5671L12.5885 14.8936C12.9673 14.9461 13.3493 14.9723 13.7317 14.972C15.1415 14.972 16.4535 14.6222 17.4371 14.0175C18.4088 13.4202 19.1654 12.4958 19.1654 11.3438C19.1654 10.1918 18.4088 9.26751 17.4371 8.67018C16.4535 8.06512 15.1415 7.7157 13.7317 7.7157C12.3218 7.7157 11.0102 8.06549 10.0263 8.67018C9.0549 9.26751 8.29793 10.1918 8.29793 11.3438C8.29793 12.355 8.87724 13.1877 9.68165 13.7839L9.34951 14.3596C9.31751 14.4132 9.29231 14.4707 9.27448 14.5306C9.25302 14.6034 9.24285 14.6791 9.24432 14.755V14.7546Z" fill="#633001"/>
    <path d="M10.5095 10.1297C10.5095 10.9543 11.56 11.6226 12.8555 11.6226C14.1509 11.6226 15.2014 10.9543 15.2014 10.1297C15.2014 9.30504 14.1513 8.63672 12.8555 8.63672C11.5596 8.63672 10.5095 9.30504 10.5095 10.1297Z" fill="#9E7200"/>
    <path d="M10.5085 9.48962H15.2004V10.1293H10.5085V9.48962Z" fill="#9E7200"/>
    <path d="M10.5089 9.48967C10.5089 10.3143 11.5594 10.9826 12.8548 10.9826C14.1503 10.9826 15.2007 10.3143 15.2007 9.48967C15.2007 8.66503 14.1506 7.9967 12.8548 7.9967C11.559 7.9967 10.5089 8.66503 10.5089 9.48967Z" fill="#F0B90B"/>
    <path d="M11.9643 9.30981L12.6253 8.88903C12.6937 8.8455 12.7731 8.82239 12.8543 8.82239C12.9354 8.82239 13.0148 8.8455 13.0832 8.88903L13.7445 9.30981C13.7748 9.32909 13.7997 9.35568 13.8169 9.38711C13.8341 9.41855 13.8432 9.45382 13.8432 9.48967C13.8432 9.52552 13.8341 9.5608 13.8169 9.59223C13.7997 9.62367 13.7748 9.65026 13.7445 9.66953L13.0832 10.0903C13.0148 10.1338 12.9354 10.157 12.8543 10.157C12.7731 10.157 12.6937 10.1338 12.6253 10.0903L11.9643 9.66953C11.9341 9.65026 11.9092 9.62367 11.892 9.59223C11.8747 9.5608 11.8657 9.52552 11.8657 9.48967C11.8657 9.45382 11.8747 9.41855 11.892 9.38711C11.9092 9.35568 11.9341 9.32909 11.9643 9.30981Z" fill="#9E7200"/>
    <path fill-rule="evenodd" clip-rule="evenodd" d="M10.7947 7.8043C11.3563 7.44715 12.0864 7.25037 12.8544 7.25037C13.6224 7.25037 14.3526 7.44715 14.9138 7.8043C15.4667 8.15593 15.9467 8.73377 15.9467 9.48963V10.1296C15.9467 10.8855 15.4667 11.4633 14.9138 11.815C14.3526 12.1725 13.6221 12.3689 12.8544 12.3689C12.0868 12.3689 11.3563 12.1721 10.7947 11.815C10.2422 11.4633 9.76184 10.8855 9.76184 10.1296V9.48963C9.76184 8.73377 10.2422 8.15593 10.7947 7.8043ZM12.8544 7.99666C11.5586 7.99666 10.5085 8.66499 10.5085 9.48963V10.1296C10.5085 10.9543 11.5586 11.6226 12.8544 11.6226C14.1503 11.6226 15.2004 10.9543 15.2004 10.1296V9.48963C15.2004 8.66499 14.1499 7.99666 12.8544 7.99666Z" fill="#633001"/>
    <path fill-rule="evenodd" clip-rule="evenodd" d="M16 1.02161C7.72764 1.02161 1.02156 7.72768 1.02156 16C1.02156 24.2724 7.72764 30.9785 16 30.9785C24.2724 30.9785 30.9784 24.2724 30.9784 16C30.9784 7.72768 24.2724 1.02161 16 1.02161ZM0.0215607 16C0.0215607 7.1754 7.17535 0.0216064 16 0.0216064C24.8246 0.0216064 31.9784 7.1754 31.9784 16C31.9784 24.8247 24.8246 31.9785 16 31.9785C7.17535 31.9785 0.0215607 24.8247 0.0215607 16Z" fill="#45B2B8"/>
    <defs>
        <linearGradient id="paint0_linear" x1="4016" y1="928" x2="4016" y2="3712" gradientUnits="userSpaceOnUse">
            <stop stop-color="#54DADE"/>
            <stop offset="0.762" stop-color="#24C7D6"/>
        </linearGradient>
        <linearGradient id="paint1_linear" x1="1129.01" y1="534.555" x2="1129.01" y2="805.281" gradientUnits="userSpaceOnUse">
            <stop stop-color="#9F4A08"/>
            <stop offset="0.37" stop-color="#7D3900"/>
            <stop offset="1" stop-color="#8D4104"/>
        </linearGradient>
    </defs>
</svg>
