<svg xmlns="http://www.w3.org/2000/svg" width="32" height="32" fill="none"><path fill="#31CCFE" d="M16 32c8.837 0 16-7.163 16-16S24.837 0 16 0 0 7.163 0 16s7.163 16 16 16Z"/><path fill="#fff" d="m19.891 21.836-.01.011a3.89 3.89 0 0 1-.213.213c-.155.16-.306.325-.451.494a11.006 11.006 0 0 1-5.775 4.04 11.47 11.47 0 0 0 3.056.406h.069c.114 0 .226 0 .338-.007a10.185 10.185 0 0 0 3.232-.581 8.279 8.279 0 0 0 2.826-1.708 8.535 8.535 0 0 0 1.94-2.708c.451-.993.743-2.051.867-3.135a10.983 10.983 0 0 0-5.879 2.977v-.002Zm-3.322 1.306a5.414 5.414 0 0 1-2.651-.6 5.059 5.059 0 0 1-1.764-1.608 6.95 6.95 0 0 1-.986-2.254 10.712 10.712 0 0 1-.31-2.575c-.002-.902.102-1.802.31-2.68a7.542 7.542 0 0 1 .574-1.605l.007-.013a7.79 7.79 0 0 1 .115-.223l.04-.066c.03-.057.063-.113.096-.172.05-.08.099-.16.15-.238a5.008 5.008 0 0 1 1.768-1.617 5.417 5.417 0 0 1 2.65-.6h.145a4.821 4.821 0 0 1 2.889 1.057c.406.328.754.72 1.03 1.163l.008.013a2.984 2.984 0 0 0 2.53 1.445h2.47a8.509 8.509 0 0 0-1.003-3.24 8.16 8.16 0 0 0-.912-1.312 7.63 7.63 0 0 0-1.105-1.059 8.917 8.917 0 0 0-2.768-1.46A10.622 10.622 0 0 0 16.568 5a10.575 10.575 0 0 0-4.344.859 9.687 9.687 0 0 0-1.766 1.007h-.005c-.03.022-.06.045-.086.067l-.107.081c-.075.057-.148.115-.22.172l-.103.086c-.074.062-.146.126-.218.19l-.09.08a8.958 8.958 0 0 0-.292.28l-.022.021a9.164 9.164 0 0 0-.608.682c-.03.037-.06.073-.085.11a10.654 10.654 0 0 0-1.68 3.09 13.138 13.138 0 0 0-.711 4.379 12.704 12.704 0 0 0 .706 4.285 10.246 10.246 0 0 0 2.033 3.46 8.95 8.95 0 0 0 1.516 1.341c2.25-.024 4.438-.74 6.266-2.051l-.183.003Z"/></svg>