<svg fill="none" height="32" viewBox="0 0 32 32" width="32" xmlns="http://www.w3.org/2000/svg"><path d="m16 32c8.8366 0 16-7.1634 16-16 0-8.83656-7.1634-16-16-16-8.83656 0-16 7.16344-16 16 0 8.8366 7.16344 16 16 16z" fill="#31ccfe"/><g fill="#fff"><path d="m19.8913 21.8359-.0094.0111c-.0687.0747-.1408.1442-.2137.2129-.1554.1605-.3065.3253-.4516.4944-.1613.2181-.3299.4298-.5056.6352-1.389 1.622-3.22 2.8049-5.2696 3.4044.9959.2725 2.0242.4091 3.0567.4061h.0687c.1141 0 .2257 0 .3382-.0069 1.1016-.0176 2.1931-.2139 3.2318-.5811 1.0474-.3738 2.0088-.9547 2.8267-1.7082.8182-.7663 1.4774-1.6863 1.94-2.7074.4507-.9936.7429-2.0516.8661-3.1357-2.218.3676-4.2698 1.407-5.8782 2.9778z"/><path d="m16.5685 23.1423c-.9203.0284-1.8326-.1784-2.6507-.6008-.7078-.3876-1.3127-.9388-1.764-1.6078-.4601-.6865-.7941-1.4495-.9863-2.2533-.2069-.8427-.3107-1.7074-.309-2.5752-.0024-.9023.1014-1.8018.309-2.6799.1089-.467.2621-.9226.4575-1.3605.0378-.0859.0764-.164.1168-.2447l.0068-.0128c.0378-.0756.0764-.1494.1159-.2232l.0386-.0661c.0318-.0567.0636-.1133.097-.1717.049-.0798.0987-.1597.1503-.2378.4496-.6741 1.0561-1.22901 1.7674-1.61717.8181-.42228 1.7304-.62908 2.6507-.60088h.1442c1.0528.02752 2.0675.39896 2.8893 1.05756.4058.32759.754.72069 1.0301 1.16309l.0077.0129c.2631.4371.6338.7994 1.0769 1.0524.443.2529.9435.388 1.4536.3923h2.4688c-.1132-1.1362-.4539-2.2379-1.0018-3.23959-.2605-.466-.5661-.90532-.9124-1.31162-.3318-.38924-.7019-.74411-1.1047-1.05928-.8296-.64584-1.7668-1.13987-2.7683-1.45927-1.0616-.33737-2.1696-.50567-3.2834-.49872-1.4925-.02368-2.973.26886-4.3443.85839-.6226.27299-1.2147.61077-1.7666 1.00775h-.0051c-.0301.02146-.0593.04464-.0859.067l-.1064.08069c-.0747.05665-.1485.115-.2206.17167l-.10304.08584c-.07382.06267-.14592.12619-.218.19057l-.09013.08069c-.09871.091-.19657.18369-.29185.27983l-.02146.0206c-.11674.11846-.23091.24121-.34336.36654-.091.103-.17855.20859-.26438.315-.03005.03691-.06009.073-.08584.10987-.72698.92995-1.29437 1.97424-1.679 3.09024-.48367 1.4086-.7243 2.8893-.71161 4.3786-.01221 1.4584.22677 2.9079.70646 4.2851.44271 1.2764 1.1335 2.4527 2.03261 3.4611.45327.5025.96179.9523 1.5159 1.3408 2.2499-.0242 4.4378-.7405 6.2663-2.0516-.0627.0017-.1219.0034-.1837.0034z"/></g></svg>