<svg xmlns="http://www.w3.org/2000/svg" width="32" height="32" fill="none"><path fill="#2175FF" d="M16 32c8.837 0 16-7.163 16-16S24.837 0 16 0 0 7.163 0 16s7.163 16 16 16Z"/><path fill="#115CD9" d="M20.26 14.51a7.715 7.715 0 0 1 7.21-3.74 1.457 1.457 0 0 1 .475 2.41c-.585.545-1.457.207-2.163.425-1.862.467-3.07 2.11-4.05 3.645a2.03 2.03 0 0 1-2.54.773 2.681 2.681 0 0 1-1.372-1.605c-.287-1.42 1.674-1.231 2.44-1.908ZM7.88 18.642c-.23.248-.462.596-.848.558-.902-.525-.402-1.93-1.29-2.462A1.54 1.54 0 0 0 3.558 18a4.43 4.43 0 0 0 2.412 3.793 3.201 3.201 0 0 0 3.39-.71c1.765-1.56 2.53-3.858 3.605-5.883a3.901 3.901 0 0 1 2.547-2.067 2.424 2.424 0 0 0-3.757-.913c-1.928 1.715-2.285 4.465-3.875 6.422Zm5.462-.347c.226 1.03 1.138 2.307 2.34 1.875 1.495-.573 1.685-2.365 2.013-3.713.13-1.49.585-3.167 1.953-3.987a2.047 2.047 0 0 0-2.358-.708 3.36 3.36 0 0 0-1.875 2.493c-.44 1.385-2.174 1.56-2.072 4.04Z"/><path fill="#4A86F0" d="M17.82 15.918h-.121c.135-1.48.593-3.135 1.948-3.948a2.38 2.38 0 0 1 .613 2.04c-.538.9-1.288 1.89-2.44 1.908Zm-2.405-2.163a3.97 3.97 0 0 1 .239-.775 1.803 1.803 0 0 0-.142-.348l-.11-.252H15.4c.043.082.08.166.111.252a3.903 3.903 0 0 0-2.547 2.068l-.011.022.388 3.073a7.166 7.166 0 0 0 2.073-4.04Z"/><path fill="#fff" d="M20.26 14.01a7.715 7.715 0 0 1 7.21-3.74 1.457 1.457 0 0 1 .475 2.41c-.585.545-1.457.207-2.163.425-1.862.467-3.07 2.11-4.05 3.645a2.03 2.03 0 0 1-2.54.773 2.681 2.681 0 0 1-1.372-1.605c1.152-.018 1.902-1.008 2.44-1.908ZM7.88 18.142c-.23.248-.462.596-.848.558-.902-.525-.402-1.93-1.29-2.462A1.54 1.54 0 0 0 3.558 17.5a4.43 4.43 0 0 0 2.412 3.793 3.201 3.201 0 0 0 3.39-.71c1.765-1.56 2.53-3.858 3.605-5.883a3.901 3.901 0 0 1 2.547-2.067 2.424 2.424 0 0 0-3.757-.913c-1.928 1.715-2.285 4.465-3.875 6.422Zm5.462-.347c.226 1.03 1.138 2.307 2.34 1.875 1.495-.573 1.685-2.365 2.013-3.713.13-1.49.585-3.167 1.953-3.987a2.047 2.047 0 0 0-2.358-.708 3.36 3.36 0 0 0-1.875 2.493 7.166 7.166 0 0 1-2.072 4.04Z"/></svg>