<svg fill="none" height="32" viewBox="0 0 32 32" width="32" xmlns="http://www.w3.org/2000/svg"><path d="m16 32c8.8366 0 16-7.1634 16-16 0-8.83656-7.1634-16-16-16-8.83656 0-16 7.16344-16 16 0 8.8366 7.16344 16 16 16z" fill="#2175ff"/><path d="m20.26 14.51c.7351-1.2322 1.7993-2.235 3.0729-2.8957 1.2737-.6607 2.7064-.9531 4.1371-.8443.2279.0893.4296.2346.5866.4225.1569.1878.264.4122.3113.6523.0474.2402.0334.4884-.0405.7218-.0739.2333-.2054.4443-.3824.6134-.585.545-1.4575.2075-2.1625.425-1.8625.4675-3.07 2.11-4.05 3.645-.26.4123-.6598.7173-1.1262.8591-.4664.1419-.9682.1111-1.4138-.0866-.3255-.1607-.615-.3858-.8509-.6617-.236-.2758-.4134-.5968-.5216-.9433-.2869-1.4193 1.6735-1.2305 2.44-1.9075zm-12.38 4.1325c-.23.2475-.4625.595-.8475.5575-.9025-.525-.4025-1.93-1.29-2.4625-.22449-.1043-.47079-.153-.71807-.1419-.24728.011-.48827.0814-.70259.2052-.21433.1238-.39568.2975-.52872.5062s-.21386.4464-.23562.693c.02738.7899.26551 1.558.6897 2.2248.42419.6669 1.01901 1.2081 1.7228 1.5677.57363.2193 1.19823.269 1.79931.1431s1.15326-.422 1.59068-.8531c1.76501-1.56 2.53001-3.8575 3.60501-5.8825.2491-.5089.606-.9574 1.046-1.3144.4399-.3571.9523-.614 1.5015-.7531-.1492-.3436-.376-.648-.6626-.8892-.2867-.2413-.6253-.4128-.9893-.5012s-.7436-.0913-1.1089-.0084c-.3654.083-.7065.2494-.9967.4863-1.9275 1.715-2.285 4.465-3.875 6.4225zm5.4625-.3475c.225 1.03 1.1375 2.3075 2.34 1.875 1.495-.5725 1.685-2.365 2.0125-3.7125.13-1.49.585-3.1675 1.9525-3.9875-.2631-.3576-.6353-.62-1.0606-.7476-.4252-.1276-.8804-.1135-1.2969.0401-.4908.2329-.9178.5813-1.2444 1.0154s-.543.941-.6306 1.4771c-.4402 1.3849-2.1741 1.5604-2.0725 4.04z" fill="#115cd9"/><path d="m17.82 15.9175h-.121c.1346-1.48.5931-3.1348 1.9485-3.9475.2535.2691.4409.5935.5472.9476.1064.3541.1287.7282.0653 1.0924-.5375.9-1.2875 1.89-2.44 1.9075zm-2.405-2.1625c.0528-.2658.1328-.5254.2388-.7748-.0349-.1205-.0822-.237-.1413-.3477l-.1108-.2522-.0009.0004c.0427.0814.0801.1655.1117.2518-.5492.1391-1.0616.396-1.5015.7531-.44.357-.7969.8055-1.046 1.3144l-.0113.0218.3888 3.0732c1.1105-1.0864 1.8378-2.5043 2.0725-4.04z" fill="#4a86f0"/><path d="m20.26 14.01c.7351-1.2322 1.7993-2.235 3.0729-2.8957 1.2737-.6607 2.7064-.9531 4.1371-.8443.2279.0893.4296.2346.5866.4225.1569.1878.264.4122.3113.6523.0474.2402.0334.4884-.0405.7218-.0739.2333-.2054.4443-.3824.6134-.585.545-1.4575.2075-2.1625.425-1.8625.4675-3.07 2.11-4.05 3.645-.26.4123-.6598.7173-1.1262.8591-.4664.1419-.9682.1111-1.4138-.0866-.3255-.1607-.615-.3858-.8509-.6617-.236-.2758-.4134-.5968-.5216-.9433 1.1525-.0175 1.9025-1.0075 2.44-1.9075zm-12.38 4.1325c-.23.2475-.4625.595-.8475.5575-.9025-.525-.4025-1.93-1.29-2.4625-.22449-.1043-.47079-.153-.71807-.1419-.24728.011-.48827.0814-.70259.2052-.21433.1238-.39568.2975-.52872.5062s-.21386.4464-.23562.693c.02738.7899.26551 1.558.6897 2.2248.42419.6669 1.01901 1.2081 1.7228 1.5677.57363.2193 1.19823.269 1.79931.1431s1.15326-.422 1.59068-.8531c1.76501-1.56 2.53001-3.8575 3.60501-5.8825.2491-.5089.606-.9574 1.046-1.3144.4399-.3571.9523-.614 1.5015-.7531-.1492-.3436-.376-.648-.6626-.8892-.2867-.2413-.6253-.4128-.9893-.5012s-.7436-.0913-1.1089-.0084c-.3654.083-.7065.2494-.9967.4863-1.9275 1.715-2.285 4.465-3.875 6.4225zm5.4625-.3475c.225 1.03 1.1375 2.3075 2.34 1.875 1.495-.5725 1.685-2.365 2.0125-3.7125.13-1.49.585-3.1675 1.9525-3.9875-.2631-.3576-.6353-.62-1.0606-.7476-.4252-.1276-.8804-.1135-1.2969.0401-.4908.2329-.9178.5813-1.2444 1.0154s-.543.941-.6306 1.4771c-.2347 1.5357-.962 2.9536-2.0725 4.04z" fill="#fff"/></svg>