<svg fill="none" height="32" viewBox="0 0 32 32" width="32" xmlns="http://www.w3.org/2000/svg"><path d="m16 32c8.8366 0 16-7.1634 16-16 0-8.83656-7.1634-16-16-16-8.83656 0-16 7.16344-16 16 0 8.8366 7.16344 16 16 16z" fill="#fff"/><path d="m15.1925 3v4.1599l-7.68686 4.1599v8.3199l7.68686 5.2004v4.1599l-11.30432-6.5002v-13.25947z" fill="#00b5e2"/><path d="m16.8076 3v4.1599l7.687 4.1599v8.3199l-7.687 5.2004v4.1599l11.3042-6.5002v-13.25947z" fill="#a6e6f5"/><path d="m10.5936 16.9649-.0781-.1986c-.0672-.2497-.0939-.5086-.0791-.7667-.0082-.3285.0451-.6556.1572-.9645.0833-.2344.2317-.4402.4278-.5932.1664-.1243.3536-.218.5528-.2768.2024-.0557.4116-.083.6215-.0811.4139.0112.8219.1006 1.2026.2635v.8374c-.3574-.1755-.7499-.2676-1.148-.2693-.1136-.0054-.227.0128-.3332.0535-.1061.0406-.2027.1029-.2836.1828-.1808.2434-.2632.5461-.2307.8477-.0327.3018.0497.6048.2307.8484.0809.08.1774.1423.2836.183.1061.0407.2196.0589.3332.0535.398-.0022.7904-.0942 1.148-.2693v.8371c-.3809.1623-.7888.2518-1.2026.2638-.2099.0018-.4191-.0254-.6215-.081-.1992-.0593-.3864-.1533-.5528-.2778-.1961-.1527-.3445-.3582-.4278-.5924zm3.5948.9126v-3.7493h1.2705c.9898 0 1.4848.3503 1.4852 1.0511.0022.1091-.018.2174-.0593.3183-.0346.0857-.0907.1609-.163.2184-.0554.0445-.1146.0838-.177.1176-.0544.0272-.1108.0506-.1685.07.2179.0385.4144.1551.5526.3278.1383.1728.209.39.1989.6111 0 .6902-.5186 1.0352-1.5558 1.035zm.9663-.793h.5706c.1158.0052.2299-.0286.3241-.096.0472-.0368.0847-.0847.1091-.1393.0245-.0547.0352-.1145.0312-.1743.004-.0602-.0086-.1204-.0363-.174s-.0695-.0986-.1209-.1302c-.1029-.0638-.2218-.0971-.3428-.096h-.535zm0-1.4881h.4964c.0888.0005.1751-.0294.2447-.0846.0353-.027.0637-.062.0827-.1022s.0282-.0843.0268-.1288c.0046-.0534-.0046-.1071-.0267-.1559s-.0565-.0911-.0997-.1228c-.0839-.0575-.1835-.0878-.2852-.0865h-.439zm2.7415 2.281v-3.7493h.9504l.8834 1.2761.8815-1.2761h.952v3.7493h-.969v-2.3224l-.8645 1.2441-.8674-1.2441v2.3225z" fill="#00b5e2"/></svg>