<svg xmlns="http://www.w3.org/2000/svg" width="32" height="32" fill="none"><path fill="#fff" d="M16 32c8.837 0 16-7.163 16-16S24.837 0 16 0 0 7.163 0 16s7.163 16 16 16Z"/><path fill="#00B5E2" d="M15.193 3v4.16l-7.687 4.16v8.32l7.687 5.2V29L3.888 22.5V9.24L15.193 3Z"/><path fill="#A6E6F5" d="M16.808 3v4.16l7.687 4.16v8.32l-7.687 5.2V29l11.304-6.5V9.24L16.808 3Z"/><path fill="#00B5E2" d="m10.594 16.965-.079-.199a2.418 2.418 0 0 1-.079-.766 2.635 2.635 0 0 1 .158-.965c.083-.234.231-.44.427-.593.167-.124.354-.218.553-.277.203-.056.412-.083.622-.081.414.011.822.1 1.202.264v.837a2.63 2.63 0 0 0-1.148-.27.822.822 0 0 0-.617.237c-.18.243-.263.546-.23.848-.033.301.05.604.23.848a.821.821 0 0 0 .617.236c.398-.002.79-.094 1.148-.269v.837a3.29 3.29 0 0 1-1.202.264c-.21.002-.42-.025-.622-.08a1.779 1.779 0 0 1-.553-.279 1.305 1.305 0 0 1-.427-.592Zm3.594.913v-3.75h1.27c.99 0 1.486.35 1.486 1.051a.798.798 0 0 1-.06.319.535.535 0 0 1-.162.218 1.18 1.18 0 0 1-.177.118c-.055.027-.111.05-.169.07a.91.91 0 0 1 .752.939c0 .69-.519 1.035-1.556 1.035h-1.384Zm.967-.794h.57a.517.517 0 0 0 .324-.096.366.366 0 0 0 .14-.313.331.331 0 0 0-.157-.304.64.64 0 0 0-.342-.096h-.535v.81Zm0-1.488h.496a.39.39 0 0 0 .245-.084.279.279 0 0 0 .11-.231.313.313 0 0 0-.127-.279.493.493 0 0 0-.285-.086h-.44v.68Zm2.741 2.281v-3.749h.95l.884 1.276.881-1.276h.953v3.75h-.97v-2.323l-.864 1.244-.867-1.244v2.323h-.967Z"/></svg>