<svg xmlns="http://www.w3.org/2000/svg" width="32" height="32" fill="none"><path fill="#047FFF" d="M16 32c8.837 0 16-7.163 16-16S24.837 0 16 0 0 7.163 0 16s7.163 16 16 16Z"/><path fill="#fff" d="M15.8 27.1v-10c0-.7-.2-1-.8-1.4-2.8-1.5-8.6-4.9-9-5.2l9.2-5.3c.4-.2.8-.4 1.4 0L19.7 7l-.9.6c-.6.5-1.2.7-1.9.1-.4-.4-1-.6-1.7-.2l-5.2 3 3.4 2 3.8 2.1c.5.3.8.6.7 1.3v7.8c.7-.4 4.3-1.9 5.4-2.7.5-.3.8-.8.8-1.5v-1.3l2-.7v1.8c0 .8 0 1.6-.4 2.3-.4.8-1.5 1.2-2.4 1.6-2.3 1.3-5.3 2.6-7.5 3.9.3 0-.3 0 0 0Z"/><path fill="#fff" d="m6 11.5 1.3.7c.6.4.7.8.7 2V20c0 .4.3.9.6 1l6 3.5c.2.1.5.5.5.8V27l-9.2-5.5.1-10Zm18 6.3v-4.6c0-.9-.2-1.6-1.1-2.1l-4.2-2.5c1-1.1 1.7-1.4 2.8-.7 1 .6 2 1.3 3.1 1.8 1 .5 1.3 1.3 1.4 2.3v5.1l-2 .7Z"/></svg>