<svg fill="none" height="32" viewBox="0 0 32 32" width="32" xmlns="http://www.w3.org/2000/svg"><path d="m16 32c8.8366 0 16-7.1634 16-16 0-8.83656-7.1634-16-16-16-8.83656 0-16 7.16344-16 16 0 8.8366 7.16344 16 16 16z" fill="#047fff"/><g fill="#fff"><path d="m15.8 27.1001v-10c0-.7-.2-1-.8-1.4-2.8-1.5-8.6-4.9-9-5.2l9.2-5.30004c.4-.2.8-.4 1.4 0l3.1 1.8-.9.6c-.6.5-1.2.7-1.9.1-.4-.4-1-.6-1.7-.2l-5.2 3.00004 3.4 2 3.8 2.1c.5.3.8.6.7 1.3v7.8c.7-.4 4.3-1.9 5.4-2.7.5-.3.8-.8.8-1.5v-1.3l2-.7v1.8c0 .8 0 1.6-.4 2.3-.4.8-1.5 1.2-2.4 1.6-2.3 1.3-5.3 2.6-7.5 3.9z"/><path d="m6.00002 11.5 1.3.7c.6.4.7.8.7 2v5.8c0 .4.3.9.6 1l5.99998 3.5c.2.1.5.5.5.8v1.7l-9.19998-5.5zm17.99998 6.3v-4.6c0-.9-.2-1.6-1.1-2.1l-4.2-2.5c1-1.1 1.7-1.4 2.8-.7 1 .6 2 1.3 3.1 1.8 1 .5 1.3 1.3 1.4 2.3v5.1z"/></g></svg>