<svg fill="none" height="32" viewBox="0 0 32 32" width="32" xmlns="http://www.w3.org/2000/svg"><path d="m16 0c8.832 0 16 7.168 16 16s-7.168 16-16 16-16-7.168-16-16 7.168-16 16-16z" fill="#fbcc5c"/><path d="m25.408 14.08c0-4.16-3.36-7.52-7.52-7.52-3.072 0-5.728 1.856-6.88 4.512-2.624 1.184-4.448 3.808-4.448 6.848 0 4.16 3.36 7.52 7.52 7.52 3.072 0 5.728-1.856 6.88-4.512 2.656-1.152 4.448-3.776 4.448-6.848zm-6.304 4.96c-.384.096-.768.128-1.152.128-2.816 0-5.088-2.304-5.088-5.088 0-.384.032-.736.128-1.088.384-.096.768-.128 1.152-.128 2.816 0 5.088 2.272 5.088 5.088-.032.384-.064.736-.128 1.088zm-10.08-1.088c0-1.376.544-2.592 1.408-3.52.192 3.904 3.328 7.008 7.232 7.168-.928.896-2.176 1.472-3.552 1.472-2.816-.032-5.088-2.304-5.088-5.12zm12.608-.352c-.192-3.904-3.328-7.008-7.232-7.168.928-.896 2.176-1.472 3.552-1.472 2.816 0 5.088 2.272 5.088 5.088-.032 1.408-.576 2.656-1.408 3.552z" fill="#f9b73e"/><path d="m25.152 14.08c0-3.968-3.232-7.2-7.2-7.2-3.008 0-5.568 1.82401-6.656 4.448-2.56001 1.088-4.38401 3.648-4.38401 6.624 0 3.968 3.23201 7.2 7.20001 7.2 3.008 0 5.568-1.824 6.656-4.448 2.528-1.088 4.384-3.648 4.384-6.624zm-11.04 9.28c-2.976 0-5.40801-2.432-5.40801-5.408 0-1.696.8-3.232 2.04801-4.224v.352c0 3.968 3.232 7.2 7.2 7.2h.448c-1.024 1.28-2.56 2.08-4.288 2.08zm5.248-4.064c-.448.128-.928.192-1.408.192-2.976 0-5.408-2.432-5.408-5.408 0-.48.064-.928.192-1.344.448-.128.928-.192 1.408-.192 2.976 0 5.408 2.432 5.408 5.408-.032.48-.096.928-.192 1.344zm1.952-.992c0-.128 0-.256 0-.352 0-3.968-3.232-7.2-7.2-7.2-.16 0-.288 0-.448 0 .992-1.28 2.528-2.08 4.256-2.08 2.976 0 5.408 2.432 5.408 5.408 0 1.728-.8 3.232-2.016 4.224z" fill="#fff"/></svg>