<svg xmlns="http://www.w3.org/2000/svg" width="32" height="32" fill="none"><path fill="#FBCC5C" d="M16 0c8.832 0 16 7.168 16 16s-7.168 16-16 16S0 24.832 0 16 7.168 0 16 0Z"/><path fill="#F9B73E" d="M25.408 14.08c0-4.16-3.36-7.52-7.52-7.52a7.505 7.505 0 0 0-6.88 4.512C8.384 12.256 6.56 14.88 6.56 17.92c0 4.16 3.36 7.52 7.52 7.52a7.505 7.505 0 0 0 6.88-4.512c2.656-1.152 4.448-3.776 4.448-6.848Zm-6.304 4.96a4.711 4.711 0 0 1-1.152.128c-2.816 0-5.088-2.304-5.088-5.088 0-.384.032-.736.128-1.088a4.711 4.711 0 0 1 1.152-.128 5.08 5.08 0 0 1 5.088 5.088c-.032.384-.064.736-.128 1.088Zm-10.08-1.088c0-1.376.544-2.592 1.408-3.52a7.544 7.544 0 0 0 7.232 7.168c-.928.896-2.176 1.472-3.552 1.472-2.816-.032-5.088-2.304-5.088-5.12Zm12.608-.352a7.544 7.544 0 0 0-7.232-7.168c.928-.896 2.176-1.472 3.552-1.472a5.08 5.08 0 0 1 5.088 5.088c-.032 1.408-.576 2.656-1.408 3.552Z"/><path fill="#fff" d="M25.152 14.08c0-3.968-3.232-7.2-7.2-7.2a7.184 7.184 0 0 0-6.656 4.448c-2.56 1.088-4.384 3.648-4.384 6.624 0 3.968 3.232 7.2 7.2 7.2a7.184 7.184 0 0 0 6.656-4.448c2.528-1.088 4.384-3.648 4.384-6.624Zm-11.04 9.28c-2.976 0-5.408-2.432-5.408-5.408 0-1.696.8-3.232 2.048-4.224v.352c0 3.968 3.232 7.2 7.2 7.2h.448c-1.024 1.28-2.56 2.08-4.288 2.08Zm5.248-4.064a5.157 5.157 0 0 1-1.408.192c-2.976 0-5.408-2.432-5.408-5.408 0-.48.064-.928.192-1.344a5.157 5.157 0 0 1 1.408-.192c2.976 0 5.408 2.432 5.408 5.408-.032.48-.096.928-.192 1.344Zm1.952-.992v-.352c0-3.968-3.232-7.2-7.2-7.2h-.448a5.353 5.353 0 0 1 4.256-2.08c2.976 0 5.408 2.432 5.408 5.408 0 1.728-.8 3.232-2.016 4.224Z"/></svg>