<svg width="32" height="32" viewBox="0 0 32 32" fill="none" xmlns="http://www.w3.org/2000/svg">
    <path d="M16 0C24.8352 0 32 7.1648 32 16C32 24.8352 24.8352 32 16 32C7.1648 32 0 24.8352 0 16C0 7.1648 7.1648 0 16 0Z" fill="#FBCC5C"/>
    <path fill-rule="evenodd" clip-rule="evenodd" d="M19.1667 19.1826C18.7614 19.2838 18.3373 19.3376 17.9008 19.3376C15.0272 19.3376 12.6944 17.0048 12.6944 14.1312C12.6944 13.6946 12.7481 13.2706 12.8491 12.8655C13.2545 12.7642 13.6786 12.7104 14.1152 12.7104C16.992 12.7104 19.3216 15.04 19.3216 17.9168C19.3216 18.3534 19.2678 18.7774 19.1667 19.1826ZM21.209 18.1515C21.2115 18.0736 21.2128 17.9953 21.2128 17.9168C21.2128 13.9968 18.0352 10.8192 14.1152 10.8192C14.0363 10.8192 13.9577 10.8205 13.8794 10.8231C14.8341 9.66366 16.2807 8.92477 17.9008 8.92477C20.7776 8.92477 23.1072 11.2576 23.1072 14.1312C23.1072 15.7507 22.3679 17.1968 21.209 18.1515ZM20.6576 20.6736C23.2082 19.5976 24.9984 17.0735 24.9984 14.1312C24.9984 10.2112 21.8208 7.03357 17.9008 7.03357C14.9585 7.03357 12.4345 8.82378 11.3584 11.3744C8.80779 12.4504 7.01758 14.9745 7.01758 17.9168C7.01758 21.8368 10.1952 25.0144 14.1152 25.0144C17.0575 25.0144 19.5815 23.2242 20.6576 20.6736ZM18.1355 21.225C18.0576 21.2275 17.9794 21.2288 17.9008 21.2288C13.9808 21.2288 10.8032 18.0512 10.8032 14.1312C10.8032 14.0526 10.8045 13.9744 10.807 13.8965C9.6481 14.8512 8.90878 16.2973 8.90878 17.9168C8.90878 20.7936 11.2416 23.1232 14.1152 23.1232C15.7335 23.1232 17.1803 22.3843 18.1355 21.225Z" fill="white"/>
</svg>
