<svg fill="none" height="32" viewBox="0 0 32 32" width="32" xmlns="http://www.w3.org/2000/svg"><path d="m16 32c8.8366 0 16-7.1634 16-16 0-8.83656-7.1634-16-16-16-8.83656 0-16 7.16344-16 16 0 8.8366 7.16344 16 16 16z" fill="#000"/><path clip-rule="evenodd" d="m25.1 15.2c.2-.5.9-.7 1.3-.7h.2v1c-.2 0-.5 0-.7.1s-.3.2-.4.3c-.2.3-.2.4-.2.7v.7 1.8h-1.1v-4.5h1zm-13.8 2.8c-.8.8-1.49998 1.2-2.69998 1.2-1.9 0-3.2-1.3-3.2-3.2s1.5-3.2 3.3-3.2c1 0 1.99998.5 2.69998 1.2l-.8.8c-.6-.6-1.19998-.9-1.89998-.9-1.2 0-2.1.9-2.1 2.1 0 1.3.9 2.1 2.1 2.1.8 0 1.29998-.3 1.89998-.9zm4.9.2c-.5.7-1.1 1-2.1 1-1.4 0-2.4-1.1-2.4-2.4 0-1.2.9-2.4 2.4-2.4 1.4 0 2.4 1 2.4 2.5v.3h-3.7c.1.7.6 1.1 1.3 1.1.5 0 .8-.1 1.1-.4zm-.9-1.9c-.2-.5-.6-.9-1.2-.9s-1 .3-1.2.9zm1.8-3.5h1.1v6.3h-1.1zm6.1 5.4c-.5.7-1.1 1-2.1 1-1.4 0-2.4-1.1-2.4-2.4 0-1.2.9-2.4 2.4-2.4 1.4 0 2.4 1 2.4 2.5v.3h-3.7c.1.7.6 1.1 1.3 1.1.5 0 .8-.1 1.1-.4zm-.8-1.9c-.2-.5-.6-.9-1.2-.9s-1 .3-1.2.9z" fill="#fff" fill-rule="evenodd"/></svg>