<svg fill="none" height="32" viewBox="0 0 32 32" width="32" xmlns="http://www.w3.org/2000/svg" xmlns:xlink="http://www.w3.org/1999/xlink"><linearGradient id="a"><stop offset="0" stop-color="#1bd1fe"/><stop offset=".999" stop-color="#1d6df2"/></linearGradient><linearGradient id="b" gradientUnits="userSpaceOnUse" x1="15.9346" x2="16.065" xlink:href="#a" y1=".259634" y2="31.795"/><linearGradient id="c" gradientUnits="userSpaceOnUse" x1="15.3926" x2="15.7184" xlink:href="#a" y1=".135989" y2="32.1926"/><path d="m.00014114 15.9971c-.03681304-8.68432 7.13279886-15.893344 15.77845886-15.99596457 8.7636-.10398843 16.1307 6.94788457 16.2197 15.80176457.0902 8.9609-7.067 16.2281-16.062 16.197-8.90436-.0308-15.94469427-7.2735-15.93615886-16.0028zm11.48495886 6.4124c.3624.2107.5962.0509.8253-.0973.2982-.1932.6058-.3772.8798-.6014.4928-.4031 1.0094-.4981 1.6593-.4423 2.0623.1773 3.9513-.3595 5.6059-1.6352 3.239-2.4971 3.2149-7.0247-.0487-9.4938-2.5663-1.94151-6.1233-2.20885-8.8739-.56262-2.13388 1.27712-3.44416 3.11922-3.26837 5.72532.12718 1.8853 1.06732 3.3639 2.57867 4.4652.4015.2925.5561.6047.5422 1.0904-.0146.5104-.1026 1.037.0998 1.5517zm10.0067 1.1509c.3579-.2673.3626-.4971.3306-.7093-.0927-.6161.1853-.997.6573-1.3744.6026-.482 1.0344-1.1362 1.198-1.9103.2266-1.0718.1514-2.0863-.7104-3.012-.3081.5995-.5185 1.0602-.3708 1.6913.2371 1.013-.1333 1.8914-.9392 2.5476-.3774.3073-.7452.6056-.9047 1.0901-.3533-.1422-.6265-.3077-.9836-.2633-.6814.0847-1.3485.0163-2.0207-.187-.5001-.1512-1.0482-.136-1.5312.308.6969.5969 1.4703.8493 2.2895.9223 1.073.0955 2.1905-.0242 2.9852.897z" fill="url(#b)"/><path d="m11.4851 22.4095c-.2024-.5147-.1144-1.0413-.0998-1.5517.0139-.4857-.1407-.7979-.5422-1.0904-1.51144-1.1013-2.45157-2.5799-2.57869-4.4652-.17579-2.6061 1.13455-4.4481 3.26839-5.72532 2.7506-1.64623 6.3075-1.37889 8.8738.56262 3.2637 2.4691 3.2877 6.9967.0488 9.4938-1.6547 1.2757-3.5435 1.8125-5.6059 1.6352-.6499-.0559-1.1665.0391-1.6593.4423-.274.2242-.5815.4082-.8798.6014-.229.1482-.4628.308-.8253.0973zm.9324-1.6956c.3081-.0906.4391-.0901.5068-.1553.5292-.5091 1.1433-.5087 1.8287-.426 1.4437.1741 2.822-.092 4.1247-.765 3.5709-1.8448 3.9082-6.2328.5911-8.4801-2.3556-1.59594-4.8982-1.66696-7.3716-.32-3.42863 1.8672-3.73024 6.0299-.6527 8.302.6165.4552 1.2447.8238.973 1.8444z" fill="#fff"/><path d="m21.4918 23.5604c-.7948-.9212-1.9123-.8014-2.9853-.8971-.8192-.0729-1.5926-.3254-2.2895-.9223.483-.4439 1.0311-.4592 1.5312-.3079.6722.2033 1.3393.2717 2.0207.187.3571-.0444.6303.121.9836.2633.1595-.4845.5273-.7829.9047-1.0902.806-.6562 1.1763-1.5346.9392-2.5476-.1477-.631.0627-1.0918.3708-1.6913.8617.9257.9371 1.9402.7104 3.012-.1636.7742-.5954 1.4284-1.198 1.9103-.472.3774-.75.7583-.6573 1.3745.0321.2122.0274.442-.3305.7093z" fill="#fff"/><path d="m12.4175 20.7139c.2717-1.0206-.3565-1.3892-.973-1.8444-3.07753-2.272-2.77592-6.4348.6527-8.3019 2.4734-1.34701 5.016-1.27599 7.3716.3199 3.3171 2.2474 2.9798 6.6354-.5911 8.4801-1.3027.673-2.681.9392-4.1247.765-.6854-.0827-1.2995-.0831-1.8286.4261-.0678.065-.1988.0645-.5069.1552zm7.2821-5.6779c-.0203-.454-.3978-.815-.8537-.8163-.4838-.0015-.8918.4029-.8878.88.0039.4643.446.8908.9034.8716.4625-.0195.8592-.4621.8381-.9353zm-6.5451.0094c-.0192-.4641-.3885-.8289-.8438-.8334-.4671-.0046-.9028.4212-.9032.8829-.0004.4567.4508.8965.9047.8818.4684-.0152.8621-.4506.8423-.9313zm3.3272.0438c.0035-.4896-.3992-.8961-.8762-.8843-.4639.0115-.8268.3667-.8455.8275-.0198.4857.3681.9205.8326.9335.4749.0132.8855-.3916.8891-.8767z" fill="url(#c)"/><g fill="#fff"><path d="m19.6995 15.036c.0211.4731-.3755.9158-.838.9352-.4575.0193-.8996-.4073-.9035-.8716-.004-.477.404-.8814.8879-.88.4558.0014.8334.3624.8536.8164z"/><path d="m13.1544 15.0454c.0198.4807-.3739.9161-.8422.9312-.454.0147-.9051-.425-.9047-.8818.0004-.4616.436-.8874.9032-.8828.4552.0045.8246.3693.8437.8334z"/><path d="m16.4816 15.0892c-.0036.4851-.4142.89-.8891.8767-.4645-.013-.8523-.4477-.8326-.9335.0187-.4608.3816-.816.8455-.8275.477-.0118.8798.3947.8762.8843z"/></g></svg>