<svg xmlns="http://www.w3.org/2000/svg" width="32" height="32" fill="none"><defs><linearGradient id="chat__a" x1="15.935" x2="16.065" y1=".26" y2="31.795" gradientUnits="userSpaceOnUse"><stop stop-color="#1BD1FE"/><stop offset=".999" stop-color="#1D6DF2"/></linearGradient><linearGradient id="chat__b" x1="15.393" x2="15.718" y1=".136" y2="32.193" gradientUnits="userSpaceOnUse"><stop stop-color="#1BD1FE"/><stop offset=".999" stop-color="#1D6DF2"/></linearGradient></defs><path fill="url(#chat__a)" d="M0 15.997C-.037 7.313 7.133.104 15.78.001 24.543-.103 31.91 6.949 32 15.803c.09 8.96-7.068 16.228-16.063 16.197C7.032 31.97-.008 24.726 0 15.997Zm11.485 6.413c.363.21.596.05.825-.098.299-.193.606-.377.88-.601.493-.403 1.01-.498 1.66-.442 2.062.177 3.95-.36 5.605-1.636 3.24-2.497 3.215-7.024-.048-9.493-2.567-1.942-6.124-2.21-8.874-.563-2.134 1.277-3.444 3.12-3.269 5.725.128 1.886 1.068 3.364 2.58 4.465.4.293.555.605.541 1.09-.014.511-.102 1.038.1 1.553Zm10.007 1.15c.358-.267.362-.497.33-.709-.092-.616.186-.997.658-1.374a3.314 3.314 0 0 0 1.198-1.91c.226-1.072.151-2.087-.71-3.013-.309.6-.52 1.06-.372 1.692.238 1.013-.133 1.891-.939 2.547-.377.308-.745.606-.904 1.09-.354-.142-.627-.307-.984-.263a4.826 4.826 0 0 1-2.02-.187c-.5-.151-1.049-.136-1.532.308.697.597 1.47.85 2.29.922 1.073.096 2.19-.024 2.985.897Z"/><path fill="#fff" d="M11.485 22.41c-.202-.515-.114-1.042-.1-1.552.014-.486-.14-.798-.542-1.09-1.511-1.102-2.451-2.58-2.579-4.466-.175-2.606 1.135-4.448 3.269-5.725 2.75-1.646 6.307-1.379 8.874.563 3.263 2.469 3.287 6.996.048 9.493-1.654 1.276-3.543 1.813-5.605 1.636-.65-.056-1.167.039-1.66.442-.274.224-.581.408-.88.601-.229.148-.462.308-.825.098Zm.933-1.696c.308-.09.439-.09.506-.155.53-.51 1.144-.51 1.829-.426 1.444.174 2.822-.092 4.125-.765 3.57-1.845 3.908-6.233.59-8.48-2.355-1.596-4.897-1.667-7.37-.32-3.43 1.867-3.731 6.03-.654 8.301.617.456 1.245.824.973 1.845Z"/><path fill="#fff" d="M21.492 23.56c-.795-.92-1.913-.801-2.986-.897-.819-.073-1.592-.325-2.289-.922.483-.444 1.031-.46 1.531-.308.672.203 1.34.272 2.02.187.358-.044.631.121.985.263.159-.484.527-.782.904-1.09.806-.656 1.177-1.534.94-2.547-.148-.631.062-1.092.37-1.692.862.926.937 1.94.71 3.012a3.313 3.313 0 0 1-1.197 1.91c-.472.378-.75.759-.658 1.375.032.212.028.442-.33.71Z"/><path fill="url(#chat__b)" d="M12.418 20.714c.271-1.02-.357-1.39-.973-1.845-3.078-2.271-2.776-6.434.652-8.301 2.474-1.347 5.016-1.276 7.372.32 3.317 2.247 2.98 6.635-.591 8.48-1.303.673-2.681.939-4.125.765-.685-.083-1.3-.084-1.829.426-.067.065-.198.064-.506.155Zm7.282-5.678a.858.858 0 0 0-.854-.816.89.89 0 0 0-.888.88c.004.464.446.89.904.871.462-.02.859-.462.838-.935Zm-6.545.01a.859.859 0 0 0-.844-.834c-.467-.005-.903.421-.903.883 0 .457.45.896.904.882.469-.016.862-.45.843-.932Zm3.327.043c.003-.49-.4-.896-.877-.884a.856.856 0 0 0-.845.827c-.02.486.368.92.833.934.474.013.885-.392.889-.877Z"/><path fill="#fff" d="M19.7 15.036c.02.473-.376.916-.838.935-.458.02-.9-.407-.904-.871a.89.89 0 0 1 .888-.88.858.858 0 0 1 .854.816Zm-6.546.009c.02.481-.373.916-.842.932-.454.014-.905-.425-.904-.882 0-.462.436-.888.903-.883.455.005.824.37.843.833Zm3.328.045c-.004.484-.415.89-.89.876-.464-.013-.852-.448-.832-.934a.856.856 0 0 1 .845-.827c.477-.012.88.395.877.884Z"/></svg>