<svg fill="none" height="32" viewBox="0 0 32 32" width="32" xmlns="http://www.w3.org/2000/svg"><path d="m16 0c4.2435 0 8.3131 1.68571 11.3137 4.68629s4.6863 7.07021 4.6863 11.31371-1.6857 8.3131-4.6863 11.3137-7.0702 4.6863-11.3137 4.6863c-4.2435 0-8.31313-1.6857-11.31371-4.6863s-4.68629-7.0702-4.68629-11.3137c0-4.2435 1.68571-8.31313 4.68629-11.31371s7.07021-4.68629 11.31371-4.68629z" fill="#000"/><path d="m25.6296 14.0201-7.6497-7.64967c-.5251-.5251-1.2373-.82009-1.9799-.82009s-1.4548.29499-1.9799.82009l-7.64966 7.64967c-.26001.26-.46626.5687-.60698.9084-.14071.3397-.21314.7038-.21314 1.0715s.07243.7318.21314 1.0715c.14072.3397.34697.6484.60698.9084l7.64966 7.6497c.26.26.5687.4662.9084.6069s.7038.2132 1.0715.2132.7318-.0725 1.0715-.2132.6484-.3469.9084-.6069l7.6497-7.6497c.26-.26.4662-.5687.6069-.9084.1408-.3397.2132-.7038.2132-1.0715s-.0724-.7318-.2132-1.0715c-.1407-.3397-.3469-.6484-.6069-.9084zm-.9429 3.017-3.8381 3.8381-4.8753-4.8752-4.8486 4.8486-3.81144-3.8115c-.1362-.1362-.24423-.2979-.31794-.4758-.07371-.178-.11165-.3687-.11165-.5613s.03794-.3833.11165-.5613c.07371-.1779.18174-.3396.31794-.4758l3.80504-3.8051 4.8422 4.8422 4.8817-4.8817 3.8445 3.8446c.1362.1362.2443.2979.318.4758.0737.178.1116.3687.1116.5613s-.0379.3833-.1116.5613c-.0737.1779-.1818.3396-.318.4758z" fill="#fff"/></svg>