<svg fill="none" height="32" viewBox="0 0 32 32" width="32" xmlns="http://www.w3.org/2000/svg"><path d="m16 32c8.8366 0 16-7.1634 16-16 0-8.83656-7.1634-16-16-16-8.83656 0-16 7.16344-16 16 0 8.8366 7.16344 16 16 16z" fill="#1e191e"/><path d="m19.1486 19.2545c-.708 1.3419-2.1111 2.2571-3.7292 2.2571-2.3295 0-4.218-1.8959-4.218-4.2346 0-2.3388 1.8885-4.2347 4.218-4.2347 1.6181 0 3.0212.9152 3.7292 2.257h4.3911c-.881-3.6866-4.1773-6.43016-8.1203-6.43016-4.6165 0-8.35885 3.75706-8.35885 8.39136 0 4.6346 3.74235 8.3912 8.35885 8.3912 3.9311 0 7.2192-2.7273 8.112-6.3972z" fill="#ffb0c2"/><path d="m22.0282 12.1435c.9427-.772 1.5448-1.9475 1.5448-3.26406 0-2.32539-1.8778-4.21037-4.1941-4.21037-2.3165 0-4.1942 1.88498-4.1942 4.21037v.00321c.0779-.00217.1558-.00339.2342-.00339 2.6921 0 5.0829 1.27924 6.6093 3.26424z" fill="#cc91f0"/><path d="m19.3817 13.0944c1.0049-.0002 1.9272-.3549 2.6495-.9464-1.5261-1.9849-3.9168-3.26394-6.6092-3.2636-.0783-.00008-.1562.00113-.2339.00331.0013 2.32379 1.8783 4.20689 4.1936 4.20669z" fill="#cc66b8"/></svg>