<svg fill="none" height="32" viewBox="0 0 32 32" width="32" xmlns="http://www.w3.org/2000/svg"><path d="m16 32c8.8366 0 16-7.1634 16-16 0-8.83656-7.1634-16-16-16-8.83656 0-16 7.16344-16 16 0 8.8366 7.16344 16 16 16z" fill="#cd0124"/><path d="m23.2 6.73002c-.3049.00238-.6.10871-.8363.30144-.2364.19272-.3999.46031-.4637.75856h-11.8c-.0492-.24723-.16778-.47537-.34176-.65782-.17397-.18245-.39621-.31169-.64083-.37268-.24461-.06098-.50152-.05118-.74078.02826-.23926.07943-.45101.22523-.61058.4204-.15957.19516-.26039.43167-.2907.68194s.01113.504.1195.73162c.10836.22762.27919.41975.49257.55401.21338.13425.46052.20509.71262.20427.1031.00973.20689.00973.31 0l2.63996 5.48998c-.1891.1848-.3147.4248-.3588.6855s-.0044.5287.1134.7654.3077.43.5422.552c.2346.122.5018.1665.7632.1271l2.82 5.86c-.1757.1308-.3155.3039-.4064.5032s-.13.4184-.1136.6368c0 .3528.1402.6911.3896.9405s.5877.3895.9404.3895c.3528 0 .6911-.1401.9405-.3895s.3895-.5877.3895-.9405c-.001-.214-.0533-.4246-.1525-.6142-.0992-.1897-.2423-.3528-.4175-.4758l2.43-5.71c.0764.0103.1537.0103.23 0 .2654-.002.5233-.0878.7371-.245.2137-.1573.3723-.378.4533-.6307.0809-.2528.0799-.5246-.0027-.7767-.0827-.2522-.2428-.4718-.4577-.6276l2.41-5.54998h.25c.3528 0 .6911-.14012.9405-.38955.2494-.24942.3895-.58771.3895-.94045s-.1401-.69103-.3895-.94045-.5877-.38955-.9405-.38955zm-13.11 1.61h11.81c.021.09277.0511.18322.09.27l-5.9 4.28998-6.09-4.30998c.041-.07896.0713-.16303.09-.25zm-.48996.77.09-.11 5.92996 4.20998-2.25 1.64c-.2316-.2055-.5303-.3193-.84-.32-.0964-.0103-.1936-.0103-.29 0zm7.08996 13.53998c-.083-.0097-.1669-.0097-.25 0-.1064-.0103-.2135-.0103-.32 0l-2.82-5.84c.1534-.1175.2775-.2689.3625-.4424.0851-.1735.1287-.3644.1275-.5576-.0022-.1714-.0361-.3409-.1-.5l2.4-1.74 2.61 1.85c-.0647.1553-.0987.3218-.1.49.0035.1966.0533.3897.1454.5634.0921.1738.2239.3234.3846.4366zm3.4-8h-.23c-.3213-.0001-.63.1255-.86.35l-2.46-1.74 5.75-4.18998.13.1z" fill="#fff"/></svg>