<svg xmlns="http://www.w3.org/2000/svg" width="32" height="32" fill="none"><path fill="#CD0124" d="M16 32c8.837 0 16-7.163 16-16S24.837 0 16 0 0 7.163 0 16s7.163 16 16 16Z"/><path fill="#fff" d="M23.2 6.73a1.34 1.34 0 0 0-1.3 1.06H10.1a1.33 1.33 0 1 0-1.3 1.59c.103.01.207.01.31 0l2.64 5.49A1.25 1.25 0 0 0 12.81 17l2.82 5.86a1.3 1.3 0 0 0-.52 1.14 1.33 1.33 0 1 0 2.09-1.09l2.43-5.71a.86.86 0 0 0 .23 0 1.26 1.26 0 0 0 .73-2.28L23 9.37h.25a1.33 1.33 0 1 0 0-2.66l-.05.02ZM10.09 8.34H21.9c.021.093.051.183.09.27l-5.9 4.29L10 8.59a.998.998 0 0 0 .09-.25Zm-.49.77L9.69 9l5.93 4.21-2.25 1.64a1.27 1.27 0 0 0-.84-.32 1.365 1.365 0 0 0-.29 0L9.6 9.11Zm7.09 13.54a1.078 1.078 0 0 0-.25 0 1.66 1.66 0 0 0-.32 0l-2.82-5.84a1.25 1.25 0 0 0 .49-1 1.39 1.39 0 0 0-.1-.5l2.4-1.74 2.61 1.85a1.3 1.3 0 0 0-.1.49 1.25 1.25 0 0 0 .53 1l-2.44 5.74Zm3.4-8h-.23c-.321 0-.63.125-.86.35l-2.46-1.74 5.75-4.19.13.1-2.33 5.48Z"/></svg>