<svg fill="none" height="32" viewBox="0 0 32 32" width="32" xmlns="http://www.w3.org/2000/svg" xmlns:xlink="http://www.w3.org/1999/xlink"><clipPath id="a"><path d="m0 0h32v32h-32z"/></clipPath><g clip-path="url(#a)"><path d="m16 0c-3.1645 0-6.25793.938384-8.88912 2.69649-2.63118 1.7581-4.68194 4.25696-5.89295 7.18057-1.2109975 2.92364-1.527851 6.14064-.910487 9.24434.617363 3.1037 2.141217 5.9547 4.378857 8.1923s5.08857 3.7615 8.1923 4.3789c3.1037.6173 6.3207.3005 9.2443-.9105 2.9237-1.211 5.4225-3.2618 7.1806-5.893s2.6965-5.7246 2.6965-8.8891c-.0055-4.2418-1.693-8.30823-4.6924-11.30762-2.9994-2.99938-7.0658-4.68686322-11.3076-4.69238" fill="#00285e"/><path d="m30.3281 16c0-2.8354-.8408-5.6071-2.416-7.96462-1.5753-2.35753-3.8142-4.19501-6.4338-5.28006-2.6195-1.08505-5.502-1.36895-8.2829-.8158-2.7809.55316-5.33533 1.91852-7.34024 3.92344-2.00492 2.00492-3.37029 4.55934-3.92344 7.34024-.55316 2.7809-.26926 5.6634.81579 8.2829 1.08506 2.6196 2.92253 4.8585 5.28007 6.4338 2.35752 1.5753 5.12922 2.416 7.96462 2.416 1.8829.001 3.7475-.3692 5.4872-1.0893 1.7398-.7201 3.3206-1.776 4.652-3.1074s2.3873-2.9122 3.1074-4.6519c.7201-1.7398 1.0903-3.6044 1.0893-5.4873" fill="#fff"/><path d="m25.125 16c0-1.8048-.5352-3.569-1.5378-5.0696-1.0027-1.50057-2.4278-2.67015-4.0952-3.3608s-3.5021-.87135-5.2722-.51926-3.396 1.22116-4.67215 2.49731-2.14522 2.90205-2.49731 4.67215-.17139 3.6048.51926 5.2722 1.86023 3.0925 3.3608 4.0952c1.5006 1.0026 3.2648 1.5378 5.0696 1.5378 2.42-.0002 4.7409-.9616 6.4522-2.6728 1.7112-1.7113 2.6726-4.0322 2.6728-6.4522z" fill="#6caddf"/><path d="m16 25.8438c-1.9473-.0008-3.8507-.5789-5.4696-1.6613-1.61883-1.0824-2.88042-2.6204-3.62528-4.4197-.74487-1.7992-.93955-3.779-.55946-5.6888.3801-1.9099 1.31792-3.6643 2.69491-5.04125 1.37703-1.37699 3.13133-2.31481 5.04123-2.69491 1.9099-.38009 3.8896-.18541 5.6888.55946 1.7993.74486 3.3373 2.00645 4.4197 3.6253 1.0824 1.6188 1.6605 3.5222 1.6613 5.4696-.0021 2.6122-1.0406 5.1168-2.8877 6.9639-1.8471 1.847-4.3517 2.8856-6.9639 2.8877zm0-19.14067c-1.8387 0-3.6362.54526-5.1651 1.56681-1.52881 1.02155-2.72042 2.47356-3.42407 4.17226-.70366 1.6988-.88777 3.5681-.52905 5.3715.35872 1.8035 1.24416 3.46 2.54435 4.7602 1.30017 1.3002 2.95677 2.1856 4.76017 2.5443 1.8034.3588 3.6727.1746 5.3715-.529 1.6988-.7037 3.1507-1.8953 4.1723-3.4241 1.0215-1.5289 1.5668-3.3263 1.5668-5.1651-.0033-2.4647-.9838-4.8275-2.7266-6.57031-1.7428-1.7428-4.1056-2.72332-6.5703-2.72656z" fill="#00285e"/><path d="m16 31.3438c-3.0347 0-6.00126-.8999-8.52452-2.5859-2.52327-1.686-4.48992-4.0824-5.65125-6.8861-1.161332-2.8037-1.465189-5.8888-.873147-8.8652.592037-2.9764 2.053397-5.71041 4.199257-7.85627s4.87986-3.60721 7.85626-4.199255c2.9764-.592042 6.0615-.288184 8.8652.873145 2.8037 1.16133 5.2001 3.12798 6.8861 5.65125 1.686 2.52326 2.5859 5.48983 2.5859 8.52453-.0045 4.068-1.6225 7.9682-4.4991 10.8447-2.8765 2.8766-6.7767 4.4946-10.8447 4.4991zm0-30.359421c-2.969-.000773-5.8716.878891-8.34072 2.527761-2.46909 1.64887-4.39379 3.99287-5.53071 6.73566-1.136913 2.7427-1.434981 5.761-.85651 8.6731.57847 2.9121 2.00751 5.5874 4.10639 7.6873 2.09888 2.1 4.77335 3.5304 7.68515 4.1104 2.9119.58 5.9303.2835 8.6736-.852 2.7434-1.1355 5.0884-3.059 6.7385-5.5272 1.6502-2.4682 2.5313-5.3704 2.5321-8.3394-.0022-3.9804-1.5838-7.7972-4.3976-10.61247-2.8138-2.81528-6.6298-4.398894-10.6102-4.403151" fill="#6caddf"/><path d="m3.19531 15.6484-.25781.0625-.07031-.2656.42969-.125h.21874v1.5h-.32031z" fill="#6caddf"/><path d="m3.89062 16.4062c-.00456-.0781.01667-.1556.06042-.2205.04376-.065.10762-.1137.18177-.1388-.05951-.0309-.10886-.0783-.14212-.1365-.03325-.0582-.04901-.1247-.04538-.1917v-.0078c0-.2265.21094-.4062.52344-.4062s.52344.1797.52344.4062v.0078c.00264.0668-.01354.133-.04669.191s-.08195.1055-.14081.1372c.07162.0266.1333.0746.17663.1375.04334.0629.06623.1376.06555.214v.0078c0 .2735-.24218.4375-.57031.4375s-.58594-.1796-.58594-.4375zm.82813-.0234c0-.1172-.10938-.1875-.25781-.1875s-.25781.0703-.25781.1797c0 .1016.09375.1875.25781.1875s.25781-.0781.25781-.1797zm-.03906-.625c-.00135-.0259-.00796-.0512-.01945-.0745-.01148-.0233-.02759-.0439-.04733-.0608-.01975-.0168-.04271-.0294-.0675-.037-.02479-.0077-.05087-.0102-.07666-.0074-.13281 0-.21094.0781-.21094.1719v.0078c.00808.0501.03374.0958.0724.1287.03865.0329.08777.051.13854.051.05078 0 .09989-.0181.13855-.051.03865-.0329.06432-.0786.07239-.1287z" fill="#6caddf"/><path d="m27.4766 16.2031c-.0861.0693-.1942.1054-.3047.1016-.0672.0086-.1354.0026-.2001-.0175-.0646-.0202-.1242-.054-.1746-.0992s-.0905-.1008-.1175-.1629-.0403-.1293-.0391-.197v-.0078c.0131-.1095.0564-.2133.1251-.2996s.1601-.1518.2639-.1891.216-.045.3239-.0221c.1079.0228.2074.0753.2871.1514.0661.0767.1156.1664.1451.2632.0296.0969.0388.1988.0268.2993v.0078c0 .4844-.2265.8125-.6484.8125-.1809.0046-.3568-.0596-.4922-.1796l.1719-.25c.0904.0804.2071.1249.3281.125.2266 0 .2891-.211.3047-.336zm.0078-.3906c.0005-.0329-.0061-.0656-.0192-.0958-.0131-.0303-.0325-.0573-.0569-.0795s-.0532-.0389-.0845-.0491-.0645-.0136-.0972-.01c-.0319-.0043-.0643-.0016-.095.0079s-.059.0256-.0828.0472-.0426.0481-.0551.0777c-.0125.0297-.0183.0617-.0171.0938v.0078c.0071.0624.0369.1199.0837.1617.0469.0418.1074.0649.1702.0649.0627 0 .1233-.0231.1701-.0649.0469-.0418.0767-.0993.0838-.1617z" fill="#6caddf"/><path d="m28.8594 16.4922h-.7266l-.0547-.2344.8125-.9453h.2735v.9141h.2031v.2656h-.2031v.3203h-.3125v-.3203zm0-.2656v-.461l-.3985.461z" fill="#6caddf"/><path d="m16 25.2969c-1.8387 0-3.6362-.5453-5.1651-1.5668-1.52882-1.0216-2.72043-2.4736-3.42409-4.1723-.70366-1.6988-.88777-3.5681-.52904-5.3715.35872-1.8035 1.24416-3.46 2.54435-4.76019 1.30018-1.3002 2.95678-2.18564 4.76018-2.54436s3.6727-.17461 5.3715.52905 3.1507 1.89526 4.1723 3.4241c1.0215 1.5289 1.5668 3.3264 1.5668 5.1651-.0032 2.4647-.9838 4.8275-2.7266 6.5703s-4.1056 2.7233-6.5703 2.7266zm0-18.25003c-1.7707 0-3.5017.52509-4.9741 1.50887-1.47231.98378-2.61986 2.38206-3.2975 4.01806s-.85495 3.4361-.50949 5.1729c.34546 1.7367 1.19816 3.332 2.45028 4.5841 1.25211 1.2521 2.84741 2.1048 4.58411 2.4503 1.7368.3455 3.537.1682 5.1729-.5095 1.636-.6776 3.0343-1.8252 4.0181-3.2975.9837-1.4723 1.5088-3.2033 1.5088-4.9741-.0024-2.3738-.9465-4.6496-2.625-6.32812-1.6785-1.67851-3.9543-2.62257-6.3281-2.62501" fill="#fff"/><path d="m15.8281 7.99219c-2.4255-.04354-4.8493.15801-7.23434.60156-.66639 3.00995-.81958 6.11085-.45312 9.17185.32123 2.0219 1.23852 3.902 2.63446 5.3996 1.396 1.4975 3.2071 2.5444 5.2015 3.0067 1.9949-.4612 3.8066-1.5078 5.2027-3.0055 1.3962-1.4978 2.3131-3.3784 2.6332-5.4008.367-3.061.2138-6.162-.4531-9.17185-2.3851-.44355-4.8088-.6451-7.2344-.60156z" fill="#00285e"/><path d="m23.0078 16.5703c-.0547 1.5625-.2969 6.2344-7.0391 8.8047-6.68745-2.5-7.03901-7.3359-7.03901-8.8047z" fill="#97c1e7"/><path d="m22.8047 16.3125c.1067-2.349-.0531-4.7026-.4766-7.01563-2.0994-.3435-4.2244-.50556-6.3516-.48437-2.1446-.02137-4.2866.15648-6.3984.53125-.44553 2.29185-.61601 4.62865-.50781 6.96095h13.73441z" fill="#fff"/><path d="m16.1797 25.2344-7.11718-8.6016c-.25781 1.7735 1.17968 7 7.11718 8.6016z" fill="#6caddf"/><path d="m11.1875 16.5781 6.5859 7.9453c.5793-.2711 1.1247-.6093 1.625-1.0078l-5.75-6.9375z" fill="#6caddf"/><path d="m15.7578 16.5859 4.8672 5.8672c.4436-.4732.8364-.9917 1.1719-1.5469l-3.5781-4.3203z" fill="#6caddf"/><path d="m22.8906 16.5859-2.4297-.0078 2.0391 2.461c.2765-.7876.4088-1.6186.3906-2.4532z" fill="#6caddf"/><path d="m18.8438 19.8047c-.0094-.0281-.0248-.0537-.045-.0753s-.0449-.0385-.0722-.0497l-.4063-.1406c-.0355-.0118-.0738-.0118-.1094 0-.0301-.1409-.1107-.2659-.2265-.3516-.0156-.0078-.0313-.0234-.0469-.0313-.0277-.0172-.0564-.0329-.0859-.0468-.0547-.0235-.1094-.0391-.1563-.0547-.1361-.0398-.2652-.1004-.3828-.1797-.1048-.0769-.1948-.1722-.2656-.2813-.0156-.0234-.0313-.039-.0469-.0625-.041-.0617-.091-.117-.1484-.164-.1035-.071-.2261-.1091-.3516-.1094-.0312 0-.0547.0078-.0859.0078v-.0078c.0056-.049-.0054-.0986-.0313-.1406l-.25-.336c-.0186-.0237-.0423-.0431-.0693-.0566s-.0567-.0208-.0869-.0215c-.0287-.0016-.0573.004-.0832.0163-.0259.0122-.0484.0308-.0653.054l-.2656.336c-.0162.0208-.028.0447-.0347.0702s-.0082.0521-.0044.0782c-.0234 0-.039-.0078-.0625-.0078-.1255.0002-.248.0384-.3515.1094-.0145.0084-.0277.0189-.0391.0312-.0253.0215-.0488.045-.0703.0703-.0363.0424-.0702.0867-.1016.1328-.0798.1186-.1804.2218-.2968.3047-.1061.076-.2253.1316-.3516.1641l-.0703.0234c-.0736.0166-.1428.0485-.2031.0938-.1227.0875-.2067.2191-.2344.3672-.0428-.0145-.0886-.0172-.1328-.0078l-.3985.1328c-.028.0094-.0537.0247-.0752.0449-.0216.0202-.0386.0449-.0498.0723-.0079.0274-.0099.0562-.0059.0845.0041.0283.0141.0554.0294.0795l.2422.3516c.0303.0372.0712.0644.1172.0781-.0648.1368-.0759.2929-.0313.4375.0087.0143.014.0303.0156.0469.0092.034.0252.0659.0469.0937.0313.0469.0625.0938.0938.1328.0926.1098.1618.2375.2031.375.0394.1236.0553.2534.0469.3829v.0781c-.0095.0744.0013.15.0312.2187.0474.1371.1414.2533.2656.3282-.0186.0275-.0269.0607-.0234.0937v.4219c-.0002.0292.0068.0581.0205.084.0136.0259.0334.048.0576.0644.0236.0165.0504.0278.0787.0331.0283.0054.0574.0048.0854-.0018l.414-.1172c.0344-.0115.0644-.0334.086-.0625.0621.0565.1349.1001.214.1282.0791.0282.1631.0404.2469.0358.0343-.0019.0683-.0071.1016-.0156.0547-.0156.1094-.0312.1562-.0469.2582-.1014.5447-.1042.8047-.0078l.0703.0235c.0695.028.144.0413.2188.039.1511-.0023.2959-.0608.4062-.164.0216.0291.0516.051.086.0625l.4062.125c.0288.0077.0588.0095.0883.0055s.0579-.0139.0836-.029c.0242-.0164.044-.0385.0577-.0644.0136-.0259.0206-.0547.0204-.084l.0078-.4219c-.0003-.0326-.0083-.0647-.0234-.0937.1282-.0702.2237-.1881.2656-.3282.0063-.0179.0115-.0361.0156-.0546.0096-.0331.0149-.0672.0157-.1016.0065-.0544.0091-.1093.0078-.1641-.0056-.1427.0129-.2853.0547-.4218.0389-.1236.1027-.2379.1875-.336.0156-.0234.0312-.039.0468-.0625.0484-.0576.0855-.1239.1094-.1953.046-.1504.032-.3128-.039-.4531.0366-.0114.0691-.0331.0937-.0625l.25-.3438c.0204-.0198.0343-.0453.0399-.0732s.0026-.0569-.0086-.083z" fill="#00285e"/><path d="m15.75 20.7188c.0003-.0314.0069-.0624.0192-.0912.0124-.0288.0304-.0548.0529-.0766s.0492-.039.0784-.0504.0603-.0169.0917-.0162c.0629-.0001.1234.0243.1686.0681.0452.0437.0716.1034.0736.1663-.0003.0313-.0069.0623-.0193.0911-.0123.0288-.0303.0548-.0528.0767-.0226.0218-.0492.0389-.0784.0503s-.0604.0169-.0917.0162c-.0629.0001-.1234-.0243-.1686-.068-.0452-.0438-.0716-.1035-.0736-.1663z" fill="#ffc758"/><path d="m15.9844 18.7031c-.0361-.1424-.1256-.2655-.25-.3437l.25-.3203.2344.3203c-.1185.0812-.2021.2038-.2344.3437zm-1.9141 1.3907c-.1192-.0786-.2097-.1938-.2578-.3282l-.375.125.2266.3282c.1196-.082.2612-.1255.4062-.125zm.7422 2.2109c-.1123.092-.2533.1418-.3984.1406v.3985l.3906-.1172c-.0481-.137-.0454-.2868.0078-.4219zm2.3437.0078c.0533.1324.0561.2797.0079.4141l.3828.1172.0078-.3985c-.1443.0041-.2854-.0429-.3985-.1328zm.7266-2.2109c.1428-.0119.2848.0299.3984.1172l.2344-.3204-.3828-.1328c-.0411.138-.1297.257-.25.336zm-2.3828 2.2187c-.0422.0005-.0841-.0075-.1231-.0234-.0391-.0159-.0746-.0395-.1044-.0694-.0299-.0298-.0535-.0653-.0694-.1044-.0159-.039-.0239-.0809-.0234-.1231.0004-.0047-.0006-.0095-.0031-.0135-.0025-.0041-.0062-.0072-.0106-.009-.0044-.0017-.0092-.002-.0138-.0008-.0046.0013-.0087.0039-.0116.0077-.1136.1113-.1877.2567-.2109.414-.0002.0531.0102.1056.0306.1546.0205.0489.0505.0933.0884.1304.0379.0372.0828.0664.1321.0858.0494.0195.1021.0289.1551.0277h.0391c.0237.0008.0474-.0018.0703-.0078.18-.069.3699-.1086.5625-.1172.1579.0046.3138.0363.461.0937.0501.0186.1028.0292.1562.0313.0529.0006.1053-.0093.1543-.029.0491-.0197.0938-.0489.1315-.0859.0377-.0371.0678-.0812.0885-.1298.0206-.0487.0315-.1009.0319-.1538-.0181-.1589-.093-.3059-.2109-.414-.0078-.0156-.0312 0-.0312.0156-.0017.0844-.036.1649-.0957.2246-.0598.0597-.1402.094-.2246.0957-.1329 0-.3047-.1172-.4766-.1172-.1485 0-.3594.1172-.4922.1172zm-.2109-.4375c-.0003.035.0063.0696.0196.102.0132.0324.0328.0618.0575.0865s.0541.0443.0865.0575c.0324.0133.067.0199.102.0196.0185.0008.0371-.0019.0547-.0078.0042.0005.0085.0001.0126-.0012.004-.0014.0077-.0036.0108-.0066h.0078c.109-.0455.2257-.0694.3438-.0703.1151.0046.2286.0284.3359.0703.0305.009.062.0143.0938.0156.0349.0003.0696-.0063.102-.0196.0323-.0132.0617-.0328.0864-.0575.0248-.0247.0443-.0541.0576-.0865.0132-.0324.0199-.067.0196-.102.0006-.0377-.0075-.0751-.0235-.1094-.006-.014-.0139-.0271-.0234-.039 0 0-.4531-.6172-.4687-.6328-.0084-.0103-.0205-.0168-.0336-.0183s-.0263.0023-.0367.0105c-.0379.013-.0773.0209-.1172.0234-.0379.0014-.0755-.0066-.1094-.0234-.0313-.0157-.0547-.0235-.0703.0078-.0156.0234-.3438.4687-.4453.6093-.0412.0477-.0634.1089-.0625.1719zm2.0859-.2031c-.0129.0403-.0337.0776-.0613.1097-.0275.0322-.0612.0585-.0991.0774-.0378.0189-.0791.0301-.1213.0328-.0422.0028-.0846-.0029-.1245-.0168-.0235-.0078-.0391.0078-.0235.0313.0742.1423.1919.2573.3359.3281.0503.0168.1034.0235.1563.0196.0528-.0038.1044-.0182.1516-.0422.0473-.024.0893-.0571.1236-.0975.0344-.0404.0603-.0872.0764-.1377.0063-.012.009-.0256.0078-.0391.0078-.0156.0078-.039.0156-.0625-.0095-.1922.0116-.3847.0625-.5703.0533-.1483.1327-.2859.2344-.4062.0333-.0396.0598-.0845.0781-.1329.0168-.0502.0235-.1033.0196-.1562-.0038-.0528-.0182-.1044-.0422-.1516-.024-.0473-.0571-.0893-.0975-.1236-.0404-.0344-.0872-.0603-.1377-.0764-.1597-.0291-.3246-.0044-.4688.0703-.0156.0079-.0156.0235.0079.0313.0406.0126.0784.0331.1111.0604s.0596.0609.0792.0986c.0196.0378.0316.0791.0351.1216.0035.0424-.0014.0851-.0145.1256-.0391.125-.2031.25-.2578.4141-.0469.1328 0 .3594-.0469.4922zm-.4844.0625c.0684.0221.1428.0165.2071-.0156.0642-.0322.1133-.0883.1367-.1563.007-.0173.0096-.0361.0078-.0547v-.0312c-.0108-.1156-.0002-.2321.0312-.3438.0396-.1082.0977-.2087.1719-.2968.0173-.0278.0329-.0565.0469-.086.0109-.0333.0151-.0685.0124-.1035-.0028-.0349-.0124-.069-.0284-.1003-.0159-.0312-.038-.059-.0647-.0816-.0268-.0227-.0578-.0399-.0912-.0505-.0355-.0101-.0728-.0128-.1094-.0078-.016-.0013-.0321.0014-.0468.0078 0 0-.7344.2344-.7579.2422-.0108.0061-.0196.0153-.0251.0264-.0056.0112-.0077.0237-.0061.0361-.0024.0394-.0076.0785-.0156.1172-.0103.0375-.029.0722-.0547.1015-.0235.0235-.0391.0469-.0156.0703.0234.0235.3359.4688.4453.6094.0392.0538.0936.0946.1562.1172zm.4375-2.0469c.035.0237.0648.0544.0874.09.0227.0357.0378.0757.0444.1174.0066.0418.0045.0844-.0061.1253-.0105.041-.0294.0793-.0554.1126-.0156.0157 0 .0391.0235.0313.1593-.0222.3059-.0996.414-.2188.0315-.0425.0543-.0908.067-.1421.0128-.0514.0152-.1047.0072-.157s-.0262-.1025-.0537-.1477-.0637-.0845-.1064-.1157c-.0119-.0095-.0251-.0174-.0391-.0234-.0171-.0165-.0389-.0274-.0625-.0313-.1853-.0512-.3617-.1303-.5234-.2343-.1264-.0978-.2347-.2167-.3203-.3516-.0299-.0447-.0669-.0843-.1094-.1172-.0424-.0316-.0907-.0545-.1421-.0673s-.1048-.0153-.1571-.0073-.1026.0263-.1478.0539c-.0452.0275-.0844.0638-.1155.1067-.0756.141-.103.3028-.0781.4609 0 .0156.0234.0234.0312 0 .0518-.0681.1279-.1134.2124-.1265s.1708.007.2408.0562c.1093.0781.1796.2734.3203.3672.125.1172.3593.1406.4687.2187zm-.0859.4844c.0209-.0286.0359-.0611.044-.0955.0082-.0345.0094-.0702.0036-.1052-.0058-.0349-.0186-.0683-.0375-.0982-.0189-.03-.0436-.0558-.0726-.0761-.0129-.014-.029-.0247-.0469-.0313-.0078 0-.0156-.0078-.0234-.0078h-.0078c-.1144-.0271-.2229-.0748-.3204-.1406-.0908-.0681-.1677-.1529-.2265-.25-.0186-.0253-.0395-.0489-.0625-.0703-.0286-.0209-.0611-.0359-.0955-.0441-.0345-.0081-.0702-.0093-.1052-.0035-.0349.0058-.0683.0185-.0982.0374-.03.019-.0558.0437-.0761.0727-.0234.0297-.0394.0645-.0469.1016 0 .0156-.0078.0312-.0078.0468v.7891c0 .0391.0312.0391.0547.0469.0352.0123.0693.028.1016.0468.0298.022.0561.0483.0781.0782.0156.0234.0312.0468.0625.0312.0312-.0156.5547-.1797.7187-.2344.0649-.0085.1238-.0422.1641-.0937zm-1.8203-1.0469c.0701-.0486.1562-.0684.2406-.0553.0843.0131.1604.0581.2125.1256.0156.0157.0391.0157.0391-.0078.0249-.158-.0026-.3199-.0782-.4609-.031-.0429-.0703-.0792-.1155-.1067-.0452-.0276-.0954-.0459-.1477-.0539-.0524-.008-.1058-.0055-.1571.0073-.0514.0128-.0997.0357-.1422.0673-.0117.0059-.0223.0138-.0312.0235-.0194.0114-.0355.0275-.0469.0469-.1074.1601-.2392.3024-.3906.4218-.1275.0937-.2743.1578-.4297.1875-.0501.0127-.0976.0339-.1406.0625-.0435.0306-.0804.0696-.1084.1148s-.0466.0956-.0546.1481c-.008.0526-.0053.1062.0079.1577s.0368.0998.0691.1419c.1094.1176.2553.1948.4141.2188.0156.0078.0234-.0156.0156-.0313-.0488-.0687-.0688-.1537-.0557-.237.0132-.0832.0584-.158.126-.2083.1094-.0781.3125-.0859.4532-.1875.1093-.0781.2109-.2969.3203-.375zm.4375.2344c-.0422-.0571-.1049-.0956-.1749-.1073-.07-.0116-.1418.0044-.2001.0448-.0149.0079-.0281.0185-.0391.0312l-.0156.0157-.0078.0078c-.0595.1012-.1393.189-.2344.2578-.0973.0609-.2024.1082-.3125.1406-.0306.0082-.0596.0214-.0859.0391-.0574.0419-.0961.1046-.1078.1747s.0046.142.0453.2003c.0228.0297.0522.0538.0859.0703.0156.0078.0234.0156.0391.0156 0 0 .7343.2344.7578.2422.0124.0035.0257.0022.0373-.0035.0115-.0058.0205-.0157.0252-.0277.0236-.0308.0497-.0595.0781-.086.0306-.0219.065-.0378.1016-.0469.0312-.0078.0546-.0156.0546-.0468v-.75c.0069-.0612-.0099-.1227-.0468-.1719zm-1.5625 1.3984c-.0263-.0808-.0197-.1687.0183-.2447s.1044-.134.1848-.1615c.0234-.0078.0234-.0313.0078-.0391-.1415-.0742-.3037-.0989-.4609-.0703-.0505.0161-.0973.042-.1377.0763-.0404.0344-.0736.0764-.0976.1236-.024.0473-.0383.0988-.0422.1517s.0028.106.0197.1562c0 .0156.0078.0235.0156.0391.0088.0216.0193.0425.0312.0625.1216.1507.2192.3194.2891.5.0467.1515.0626.3109.0469.4687-.0061.0526-.0008.1059.0156.1563.0332.1015.1053.1857.2005.234.0953.0484.2058.0569.3073.0238.1484-.0469.2344-.1719.3359-.3281.0018-.0033.0025-.0071.002-.0108s-.0022-.0071-.0049-.0097c-.0026-.0027-.0061-.0044-.0098-.0049-.0036-.0006-.0074.0001-.0107.0019-.0808.0263-.1687.0197-.2447-.0183s-.134-.1044-.1615-.1848c-.0391-.125.0156-.3203-.0391-.4844-.0469-.1484-.2266-.3125-.2656-.4375zm.3515-.3359c-.0334.0106-.0644.0278-.0911.0505-.0268.0227-.0488.0504-.0648.0817-.016.0312-.0256.0653-.0283.1002-.0028.035.0014.0702.0124.1035.0005.009.0029.0178.0069.0258.0041.0081.0097.0152.0165.0211.0078.0078.0078.0156.0156.0156 0 .0011.0002.0021.0006.003.0004.001.0009.0019.0017.0026.0007.0007.0016.0013.0025.0017.001.0004.002.0006.003.0005.0754.0888.1361.189.1797.2969.0329.1088.0462.2225.0391.336-.0025.032.0029.0642.0156.0937.0107.0334.0278.0644.0505.0912.0227.0267.0504.0487.0817.0647.0312.016.0653.0256.1003.0284.0349.0027.0701-.0015.1035-.0124.0359-.0086.0685-.0276.0937-.0547l.0313-.0313s.4531-.6171.4609-.6406c.0234-.0312 0-.0547-.0156-.0703-.026-.0291-.0448-.0639-.0547-.1016-.009-.0358-.0143-.0724-.0156-.1093 0-.0313 0-.0547-.0313-.0625-.0313-.0079-.5547-.1797-.7187-.2344-.0637-.0196-.1317-.0196-.1954 0z" fill="#ee3124"/><path d="m18.2344 12.4531 1.6484-.5703c-.0799.4011-.114.81-.1015 1.2188.0396.4357.1932.8533.4453 1.2109l-2.0313.7031z" fill="#ffc758"/><path d="m20.2266 14.3125c-.222-.3364-.3662-.718-.4219-1.1172-.0359-.439-.0096-.8809.0781-1.3125-.188.7504-.5583 1.4427-1.0781 2.0156-.2237.2316-.3897.5126-.4844.8203l-.0312-3.8828s-.3906.1407-.4297.1485c-.0149.0036-.0289.0103-.0411.0197-.0121.0094-.0221.0214-.0292.035 0 .0234-.0156.039-.0469.0468-.0312.0078-.2578.0938-.4141.1407-.0048.0004-.0094.0026-.0127.0063-.0033.0036-.0051.0083-.0051.0132s.0018.0096.0051.0132.0079.0059.0127.0063c.1875-.0078.4532-.0312.4766-.0312.0391-.0078.0547-.0235.0547-.0469v-.0078c.0026-.0149.0103-.0284.0216-.0384.0114-.0099.0258-.0157.0409-.0163.0234 0 .1641-.0156.25-.0313l-.0391 4.1797h.1875v-.2968z" fill="#d4a11e"/><path d="m12.9219 15.125c-.2011-.1679-.3389-.3994-.3906-.6562-.0292-.1174-.0325-.2397-.0096-.3585.023-.1187.0716-.231.1424-.3291l2-.6874c-.0745.2786-.0772.5716-.0078.8515.0895.3435.2433.6669.4531.9531-.4772-.0829-.9637-.0987-1.4453-.0468-.6719.0859-.7422.2734-.7422.2734z" fill="#ffc758"/><path d="m10.625 14.625c.2308-.5325.5624-1.0153.9766-1.4219.263-.2904.5718-.5358.914-.7265-.2302.3722-.3842.7865-.4531 1.2187-.0475.3528-.0449.7105.0078 1.0625 0 0-.375-.0781-.8047-.125-.2127-.0237-.4273-.0263-.6406-.0078z" fill="#ffc758"/><path d="m12.5156 12.4766c-.2255.3737-.3767.7876-.4453 1.2187-.0475.3528-.0449.7105.0078 1.0625 0 0-.0937-.0234-.3125-.0703-.8906-.2031.75-2.2109.75-2.2109z" fill="#d4a11e"/><path d="m13.6875 13.0234-.0156-1.7968c-.0391.0156-.3906.1328-.4297.1484-.0469.0156-.0703.0469-.0703.0625 0 .0234-.0156.0391-.0469.0469-.0312.0078-.2578.0859-.414.1406-.0049.0004-.0095.0027-.0128.0063s-.0051.0083-.0051.0132.0018.0096.0051.0133c.0033.0036.0079.0058.0128.0063.1796-.0078.4531-.0313.4765-.0313.0391-.0078.0547-.0234.0625-.0469v-.0078c.0026-.0148.0103-.0284.0216-.0383.0114-.01.0258-.0157.0409-.0164.0235 0 .1563-.0156.25-.0234l-.0156 1.5313h.1406z" fill="#d4a11e"/><path d="m16.0156 11.3984h.1407v-1.72653s-.3906.14063-.4297.14844c-.015.00358-.029.01032-.0411.01975s-.0221.02134-.0292.03494c0 .02344-.0157.03906-.0469.04687-.0312.00782-.2578.08593-.4141.14063-.0048.0004-.0094.0027-.0127.0063s-.0051.0083-.0051.0132.0018.0096.0051.0133c.0033.0036.0079.0058.0127.0063.1875-.0079.4532-.0313.4766-.0313.0391-.0078.0547-.0234.0625-.0469.0026-.0148.0103-.02836.0216-.03831.0114-.00994.0258-.01571.0409-.01634.0234 0 .1484-.01563.2422-.02344z" fill="#d4a11e"/><path d="m15.6641 10.0781h.0078c.039-.0078.0547-.0234.0547-.0469.0003-.011.0043-.0216.0114-.0301.0071-.00852.0168-.0144.0276-.01673l-.0469-.14843c-.0468.01562-.0625.04687-.0625.05468 0 .02344-.0156.03125-.039.03907z" fill="#ffc758"/><path d="m13.1797 11.625h.0078c.0391-.0078.0547-.0234.0547-.0469.0078-.0234.0156-.039.0391-.0468l-.0469-.1485c-.0469.0156-.0625.0469-.0625.0547 0 .0234-.0156.0313-.0391.0391z" fill="#ffc758"/><path d="m17.7891 11.2344h.0078c.039-.0078.0547-.0235.0547-.0469.0078-.0234.0156-.0391.039-.0469l-.0469-.1484c-.0468.0156-.0625.0469-.0625.0547 0 .0234-.0156.0312-.039.039z" fill="#ffc758"/><path d="m15.1093 14.8984c-.197-.2982-.3472-.6249-.4453-.9687-.0641-.275-.0641-.561 0-.8359-.1325.4357-.381.8272-.7187 1.1328-.3516.2812-1.2188.539-1.0156.8984.0312-.0469.1171-.1406.4687-.2266.0391-.0078.086-.0156.1328-.0234v.5938h.1875v-.6172c.4639-.0368.9303-.0211 1.3906.0468z" fill="#d4a11e"/><path d="m12.7109 13.6562s-.2343-.1406-.2031-.5937c.0087-.2525.1023-.4947.2656-.6875l1.5547-.5312c-.0747.1865-.0857.3925-.0312.5859.0558.2521.1833.4827.3672.6641-.5041.0135-1.0037.0976-1.4844.25-.1852.0522-.3493.1616-.4688.3124z" fill="#ffc758"/><path d="m13.6328 12.6797c.2778-.2349.5107-.5181.6875-.8359-.0361.1853-.0414.3754-.0156.5624.0438.2599.1666.4999.3515.6876-.444.0152-.8846.0834-1.3125.2031-.2492.0394-.4748.1703-.6328.3672-.1484-.3438.4688-.6094.9219-.9844z" fill="#d4a11e"/><path d="m15.4063 15.2422c-.2808-.2346-.4691-.5613-.5313-.9219-.0222-.1455-.0128-.2942.0277-.4357.0404-.1416.1109-.2728.2067-.3846l2.4297-.8359c-.0768.3471-.0795.7065-.0078 1.0547.1539.4651.3807.9028.6718 1.2968-.6126-.1675-1.2495-.2283-1.8828-.1797-.8359.1094-.914.4063-.914.4063z" fill="#ffc758"/><path d="m14.9141 11.3906c.0055-.248.0935-.4871.25-.6797l1.7422-.6093c-.0669.1605-.0963.3342-.086.5078.0251.2536.132.4922.3047.6797-.5078-.0086-1.0131.0734-1.4922.2422-.4453.1562-.4922.3671-.4922.3671s-.2109-.0546-.2265-.5078z" fill="#ffc758"/><path d="m16.2891 10.9219c.2413-.2419.4489-.5152.6172-.8125-.0669.1605-.0963.3342-.086.5078.0251.2536.1321.4922.3047.6797-.4939.0057-.984.0873-1.4531.2422-.2145.0521-.4014.1832-.5234.3672-.1016-.3438.7109-.6094 1.1406-.9844z" fill="#d4a11e"/><path d="m15.1641 13.3984c-.1665-.2147-.2694-.4718-.2969-.7421-.0239-.1242-.0133-.2525.0308-.371s.1199-.2226.2192-.3009l2.0156-.6953c-.04.1824-.0427.3711-.0078.5547.0755.2924.2054.568.3828.8125-.5911.0172-1.1772.1144-1.7422.289-.2413.0875-.4508.2453-.6015.4531z" fill="#ffc758"/><path d="m16.5 12.2344c.2812-.2589.4979-.5799.6328-.9375-.0306.1889-.0306.3814 0 .5703.0804.2941.2215.5682.4141.8047-.5472.0123-1.0905.0936-1.6172.2422-.296.085-.5598.2564-.7578.4922-.1016-.3829.8906-.7969 1.3281-1.1719z" fill="#d4a11e"/><path d="m18.2422 15.0547c-.3081-.4037-.5482-.8549-.7109-1.336-.067-.346-.0643-.7019.0078-1.0468-.1444.5398-.4271 1.0326-.8203 1.4297-.5157.4765-1.5313.7031-1.3125 1.1484.039-.0703.1562-.2422.5703-.3438l-.0078.5704h.1953v-.6094c.6983-.0601 1.4018.0033 2.0781.1875z" fill="#d4a11e"/><path d="m19.1797 16.3906c.125-.0234.25-.0547.4375-.1015-.0078-.0078-.0235-.0157-.0313-.0235-.0417-.0352-.0761-.0784-.1011-.127-.0249-.0486-.0401-.1017-.0444-.1562-.0044-.0544.0021-.1093.019-.1612.017-.052.044-.1001.0797-.1415.4531-.4219.4453-.7344.4453-.7344-.8438.1586-1.6973.2604-2.5547.3047-.0938.0078-.4297.1563-.5313.1563-.2031.0078-.4062.0156-.6172.0156-1.4769.0687-2.9567-.0441-4.4062-.336-.4486-.0707-.8886-.1886-1.3125-.3515l-.0313.0937s.7188.2813 1.2344.5313c.2556.282.4832.5881.6797.914h-3.2578c-.10481-2.2766.07629-4.5574.53906-6.78903 2.05914-.37465 4.14934-.55253 6.24214-.53125v-.39843c-2.2211-.02227-4.4394.16607-6.62495.5625-.71941 2.92191-.90468 5.94971-.54687 8.93751.25781 2.0234 1.92972 5.8125 7.15622 7.5703l.2266-.3203-.2266-.3203c-4.9219-1.6485-6.35935-4.9844-6.60935-6.8828-.05469-.4219-.09375-.8438-.125-1.25h6.75785v-.5703h-3.4688c.0781-.25.3203-.3125.625-.2422.2989.0913.6094.1386.9219.1406.7422-.0391.6328-.2344.7031-.2344.7656.0469 1.0547.2344 1.7188.2188.3005.0049.5986-.0537.875-.1719.7421-.0078 1.0234.3359 1.7656.3984z" fill="#ffc758"/><path d="m22.5859 9.11719c-2.1829-.3968-4.3986-.58515-6.6172-.5625v.39843c2.0903-.02166 4.1779.15623 6.2344.53125.4674 2.23093.6485 4.51233.5391 6.78903h-3.2656c-.0876-.0854-.1389-.2012-.1432-.3234-.0044-.1222.0385-.2414.1197-.3328.3828-.3438.3828-.5781.3828-.5781-.7685.164-1.5504.2581-2.3359.2812-.0938 0-.5.1875-.6016.1875-.2031.0078-.4843.0156-.6953.0156-1.4974.0559-2.996-.0753-4.4609-.3906.0279.0324.054.0663.0781.1016.0078.0156.7188.1953.7266.2109.1129.1449.2571.2624.4218.3438.305.1543.6363.2497.9766.2812.7422.0469.6016-.2344.6719-.2344.7578-.0156 1.25.2578 1.914.25.6094-.0078.625-.2031.6875-.2031.5975.0267 1.1852.1617 1.7344.3984h-2.9844v.5704h6.7344c-.0312.414-.0703.8281-.125 1.25-.25 1.9062-1.6875 5.2343-6.6094 6.8828v.6406c5.2266-1.7578 6.9063-5.5391 7.1563-7.5703.3626-2.9873.1799-6.0155-.5391-8.93751z" fill="#d4a11e"/><g fill="#00285e"><path d="m3.76599 10.875.273-.523 1.234-.086-.625-1.071.274-.515 2.195 1.156-.25.476-1.437-.75.617 1.11-.008.008-1.25.125 1.422.75-.25.476z"/><path d="m6.27344 6.96875.34375-.36719 2.54687.9375-.39062.41407-.5625-.21876-.71875.76563.25.54688-.38281.40624zm1.46093.58594-.8125-.3125.35938.78906z"/><path d="m8.242 5.164.43-.258 1.789.703-.789-1.304.461-.282 1.281 2.118-.398.242-1.844-.727.82 1.352-.461.281z"/><path d="m11.5781 4.73437c-.0514-.16306-.0692-.33487-.0523-.50501.0169-.17015.0682-.33509.1507-.48483.0826-.14974.1947-.28117.3295-.38632s.2896-.18183.4549-.2254c.1714-.05851.3531-.0804.5334-.06425.1804.01615.3553.06998.5135.158l-.2266.48438c-.1025-.06067-.2162-.10022-.3342-.11632-.1181-.0161-.2382-.00842-.3533.02257-.094.02979-.1811.07807-.2562.14201s-.1367.14225-.1811.23032-.0707.18413-.0774.28253c-.0068.09839.0062.19715.0382.29045v.00781c.0222.09621.0635.18697.1214.26691.058.07993.1314.14741.2159.19842s.1785.08451.2762.09852.1973.00824.2927-.01697c.118-.03504.2275-.09406.3216-.17338s.1708-.17721.2253-.28756l.4297.24219c-.0795.17481-.1973.32948-.3447.45255-.1475.12307-.3207.21138-.5069.25838-.1605.04919-.3293.06542-.4963.04774-.1669-.01769-.3286-.06893-.4753-.15065-.1466-.08173-.2753-.19224-.3781-.32492-.1029-.13268-.1779-.28478-.2206-.44717z"/><path d="m14.555 2.742.539-.015.031.984 1-.023-.023-.985.546-.015.063 2.484-.547.016-.023-1.001-1.008.032.031.992-.547.016z"/><path d="m19.8594 5.50781.4531-.21875c.1058.2548.3.46286.5469.58594.2031.09375.3594.07031.4219-.0625v-.00781c.0625-.125.0078-.22657-.3204-.49219-.3984-.32813-.6328-.58594-.4296-1.03125v-.00781c.0484-.09613.1162-.18115.1992-.24969s.1794-.11909.2829-.14847c.1036-.02938.2121-.03693.3187-.02219.1066.01475.209.05147.3007.10785.3069.13317.5562.37139.7031.67187l-.4296.25781c-.1063-.21051-.2756-.38258-.4844-.49218-.1875-.08594-.3281-.04688-.3828.0625v.00781c-.0703.14844.0078.24219.3515.52344.3985.32812.586.61718.3985 1.00781v.00781c-.0492.10147-.1194.19133-.2059.26361-.0866.07228-.1875.12532-.2961.15562-.1086.03029-.2224.03714-.3339.02008-.1114-.01705-.218-.05762-.3126-.119-.3449-.17829-.62-.46714-.7812-.82031z"/><path d="m23.484 5.656-.601-.461.304-.398 1.633 1.242-.304.406-.602-.461-1.195 1.571-.438-.328z"/><path d="m27.4063 9.17969.5078 1.01561c.1327.2292.1693.5017.1015.7578-.0361.0979-.0913.1877-.1624.2641-.0711.0765-.1566.1381-.2516.1812h-.0078c-.148.0835-.3193.1158-.4875.0918-.1681-.0241-.3236-.103-.4422-.2246l-.5235.9375-.289-.5703.4687-.8359-.1953-.3828-.7109.3593-.2422-.4843zm-.586 1.52341c.0155.0494.0414.0948.0759.1333.0346.0385.077.0691.1243.0899.0474.0207.0987.031.1504.0303.0517-.0008.1027-.0126.1494-.0347h.0078c.211-.1016.2422-.3047.125-.5391l-.2422-.48436-.6328.32026z"/><path d="m18.203 4.406.914.196.258-.438-1.063-.234.102-.493 1.297.282.109-.469-1.836-.398-.523 2.421 1.851.407.102-.477-1.32-.289z"/><path d="m25.57 6.781-1.906 1.594 1.219 1.445.367-.312-.859-1.031.398-.336.609.726.493-.164-.727-.875.383-.32.851 1.015.375-.312z"/><path d="m11.789 27.9375c-.004-.1741.0275-.3472.0925-.5088s.1623-.3082.2858-.431.2707-.2192.4327-.2833c.1619-.064.3353-.0945.5093-.0894.1849-.0091.3695.0211.5418.0884.1724.0673.3285.1703.4582.3022l-.3515.4063c-.084-.0876-.1846-.1576-.2959-.2059-.1114-.0483-.2312-.0739-.3526-.0754-.1006.0016-.1999.0234-.292.0643-.092.0409-.1748.1-.2433.1737-.0686.0737-.1216.1605-.1558.2552s-.0489.1954-.0432.2959v.0078c-.0059.101.0087.202.0427.2973.034.0952.0869.1826.1554.2569.0685.0744.1513.1342.2435.1759.0921.0417.1917.0644.2927.0668.1252-.0012.2488-.0281.3631-.0792.1142-.0511.2167-.1252.301-.2177l.3516.3594c-.1268.1503-.2864.2693-.4666.3479s-.3761.1146-.5725.1052c-.1714-.0006-.341-.0352-.4991-.1015-.1581-.0664-.3015-.1634-.422-.2853-.1205-.122-.2157-.2665-.2802-.4254-.0645-.1588-.097-.3289-.0956-.5003z"/><path d="m14.6641 26.6641h.5547v2.5234h-.5547z"/><path d="m16.5078 27.1797h-.7656v-.5156h2.0937v.5156h-.7656v2.0156h-.5547v-2.0156z"/><path d="m19.0391 28.1953-.9688-1.5312h.6485l.6015 1.0156.6094-1.0156h.6328l-.9687 1.5156v1.0078h-.5547z"/></g></g></svg>