<svg fill="none" height="32" viewBox="0 0 32 32" width="32" xmlns="http://www.w3.org/2000/svg" xmlns:xlink="http://www.w3.org/1999/xlink"><clipPath id="a"><path d="m0 0h31.9991v32h-31.9991z"/></clipPath><g clip-path="url(#a)"><path d="m15.9995 0c8.8364 0 15.9996 7.16322 15.9996 15.9995 0 8.8364-7.1632 15.9996-15.9996 15.9996-8.83628 0-15.9995-7.1632-15.9995-15.9996 0-8.83628 7.16322-15.9995 15.9995-15.9995z" fill="#232323"/><path d="m22.4725 24.1273-6.3175-6.217-6.33579-.0914-.7954.1554-.04571-.7771-.192-5.0741 1.06054-3.89477 6.30836 6.22607 2.3314-4.4158s1.1656.7625 1.3256 1.0971 3.2575 2.2289 3.3736 2.3679.6674 3.6205.6674 3.6205z" fill="#3bc489"/><path d="m16.1458 17.9559-2.1512-.1481.3227-1.1683z" fill="#3bc489"/><path d="m9.83744 17.819-.19199-.3108 4.34915.2998-.9207 3.3388z" fill="#3bc489"/><g fill="#414141"><path d="m22.4725 24.1273v-9.5814h3.1359v9.5814z"/><path d="m16.1551 8.22833 3.1358 3.10307v6.3048l-3.1358-3.1863z"/><path d="m16.1551 24.1273-3.136-3.1039v-6.3038l3.136 3.1853z"/><path d="m6.71066 8.22833h3.13591v9.58147h-3.13591z"/></g><path d="m22.4725 14.5459-6.3174-6.31757h3.1084l6.3449 6.31757z" fill="#0d0d0d"/><path d="m13.0191 24.1273-6.30844-6.3175h3.13595l6.30849 6.3175z" fill="#0d0d0d"/></g></svg>