<svg fill="none" height="32" viewBox="0 0 32 32" width="32" xmlns="http://www.w3.org/2000/svg"><g fill="#f04e25"><path d="m15.9133 0c-8.82077 0-15.8337563 7.10649-15.91167838 15.7558-.06233762 8.9299 7.15324838 15.9741 15.80257838 16.0364 8.587.0623 15.9585-6.8416 16.0052-15.8805-.0156-8.82079-7.1065-15.9117-15.8961-15.9117zm-.0312 29.1429c-7.18437 0-13.21554-5.7974-13.23113-13.2468.03117-7.41818 6.03117-13.26233 13.27793-13.24675 7.4026.01559 13.2467 6.06234 13.2312 13.29355-.0156 7.2311-5.9065 13.2155-13.278 13.2z"/><path d="m26.9772 12.1264c-1.6052-4.7377-6.1559-8.07276-11.4234-7.90133-5.1584.15584-9.50648 3.66233-10.87791 8.44673-1.32467 4.613.38961 9.1325 3.08572 11.5948.26493-.3117.51428-.6389.7948-.935.28052-.3117.59221-.5922.9039-.8884-1.16883-1.1844-1.99481-2.5714-2.41559-4.1922-.42078-1.6052-.40519-3.2103.04676-4.8155.45194-1.6052 1.2935-2.9923 2.4935-4.1455 3.39742-3.25714 8.80522-3.3974 12.32732-.2961 1.9013 1.6675 2.9766 3.7714 3.1324 6.2961.187 2.8519-.8104 5.2675-2.8363 7.2779.6389.5455 1.1844 1.1689 1.6675 1.8702 3.0857-2.8052 4.6909-7.6208 3.1013-12.3117z"/><path d="m22.8787 14.2948c-.8416-3.8182-4.5974-6.20261-8.4312-5.4078-3.6312.74805-6.12469 4.239-5.64158 7.9325.23377 1.7143.98182 3.1636 2.25978 4.348.0467.0468.0935.0779.1558.1247.7636-.3896 1.5429-.6857 2.4156-.8883-.1091-.0624-.1558-.0935-.2182-.1247-1.8234-1.0442-2.8052-3.0857-2.4779-5.174.4364-2.8052 3.148-4.6909 5.9688-4.1455 2.8208.5611 4.613 3.3974 3.8961 6.1715-.3584 1.4026-1.2 2.4623-2.4623 3.1792-.0623.0311-.1403.0467-.1714.1246.0311.0156.0311.0156.0467.0156.7636.2026 1.4961.4676 2.1818.8572.1247.0623.187.0156.265-.0624 2.0259-1.9013 2.8052-4.2233 2.213-6.9506z"/></g></svg>