<svg xmlns="http://www.w3.org/2000/svg" width="32" height="32" fill="none"><path fill="#F04E25" d="M15.913 0C7.093 0 .08 7.106.002 15.756c-.063 8.93 7.153 15.974 15.802 16.036 8.587.063 15.959-6.841 16.005-15.88C31.794 7.09 24.703 0 15.913 0Zm-.03 29.143c-7.185 0-13.216-5.797-13.232-13.247C2.682 8.478 8.682 2.634 15.929 2.65c7.402.016 13.247 6.063 13.231 13.294-.015 7.231-5.906 13.215-13.278 13.2Z"/><path fill="#F04E25" d="M26.977 12.126a11.653 11.653 0 0 0-11.423-7.9 11.696 11.696 0 0 0-10.878 8.446c-1.325 4.613.39 9.132 3.086 11.595.265-.312.514-.64.794-.935.28-.312.593-.593.904-.889-1.169-1.184-1.995-2.571-2.415-4.192a9.022 9.022 0 0 1 .046-4.816A9.09 9.09 0 0 1 9.585 9.29c3.397-3.257 8.805-3.397 12.327-.296 1.902 1.667 2.977 3.771 3.133 6.296.187 2.852-.81 5.268-2.837 7.278a9.555 9.555 0 0 1 1.668 1.87c3.086-2.805 4.69-7.62 3.101-12.312Z"/><path fill="#F04E25" d="M22.879 14.295c-.842-3.818-4.598-6.203-8.432-5.408-3.63.748-6.124 4.239-5.641 7.933.234 1.714.982 3.163 2.26 4.348.046.046.093.077.155.124.764-.39 1.543-.686 2.416-.888-.109-.063-.156-.094-.218-.125a5.037 5.037 0 0 1-2.478-5.174c.436-2.805 3.148-4.69 5.969-4.145 2.82.56 4.613 3.397 3.896 6.171-.358 1.403-1.2 2.462-2.462 3.18-.063.03-.14.046-.172.124.031.016.031.016.047.016.764.202 1.496.467 2.182.857.124.062.187.015.265-.063 2.026-1.9 2.805-4.223 2.213-6.95Z"/></svg>