<svg fill="none" height="32" viewBox="0 0 32 32" width="32" xmlns="http://www.w3.org/2000/svg"><path d="m16 32c8.8 0 16-7.2 16-16s-7.2-16-16-16-16 7.2-16 16 7.2 16 16 16z" fill="#06e694"/><g fill="#fff"><path clip-rule="evenodd" d="m20 16c2.2222 0 4-1.7778 4-4 0-2.22222-1.7778-4-4-4s-4 1.77778-4 4c0-2.22222-1.7778-4-4-4-2.22222 0-4 1.77778-4 4 0 2.2222 1.77778 4 4 4-2.22222 0-4 1.7778-4 4s1.77778 4 4 4c2.2222 0 4-1.7778 4-4s-1.7778-4-4-4c2.2222 0 4-1.7778 4-4 0 2.2222 1.7778 4 4 4z" fill-rule="evenodd"/><path d="m20 24c2.2222 0 4-1.7778 4-4s-1.7778-4-4-4-4 1.7778-4 4 1.7778 4 4 4z"/></g></svg>