<svg fill="none" height="32" viewBox="0 0 32 32" width="32" xmlns="http://www.w3.org/2000/svg"><circle cx="16" cy="16" fill="#fff" r="15"/><g fill="#000"><path d="m15.9994 32c-8.83594 0-15.9994-7.1635-15.9994-16.0006 0-8.83594 7.16346-15.9994 15.9994-15.9994 8.8371 0 16.0006 7.16346 16.0006 15.9994 0 8.8371-7.1635 16.0006-16.0006 16.0006zm0-1.2488c8.1471 0 14.7518-6.6047 14.7518-14.7518 0-8.14588-6.6047-14.75065-14.7518-14.75065-8.14588 0-14.75065 6.60477-14.75065 14.75065 0 8.1471 6.60477 14.7518 14.75065 14.7518z"/><path d="m16.0297 17.4042c.7596 0 1.3754-.6153 1.3754-1.3742 0-.759-.6158-1.3742-1.3754-1.3742s-1.3754.6152-1.3754 1.3742c0 .7589.6158 1.3742 1.3754 1.3742z"/></g></svg>