<svg xmlns="http://www.w3.org/2000/svg" width="32" height="32" fill="none"><path fill="#fff" d="M16 32c8.837 0 16-7.163 16-16S24.837 0 16 0 0 7.163 0 16s7.163 16 16 16Z"/><path fill="#8F8E8A" d="M6.932 14.939v.613c-.028 4.783 1.38 7.61 2.597 9.164l2.25-.622 1.107-.301-.165-.238-5.79-8.616Zm12.301 7.107.037-.128 2.936-9.96a23.442 23.442 0 0 0-7.143-7.711L14.669 4l4.372 18.1.192-.054Z"/><path fill="#413B38" d="m18.685 22.713-5.003 1.381 1.554 2.324L16.297 28c.41-.02.816-.072 1.217-.155l1.125-3.824.192-.649-.146-.659Zm-8.8 2.424a7.137 7.137 0 0 0 1.912 1.564 7.585 7.585 0 0 0 3.924 1.29l-2.533-3.768-.86.237-2.442.677Z"/><path fill="#77CBEC" d="M18.566 22.229 14.615 5.875l-.412.338a16.923 16.923 0 0 0-6.137 9.522l5.323 7.92 5.177-1.426Z"/><path fill="#5E5957" d="M24.008 20.729c.555-2.98.244-6.055-.896-8.863l-.193-.521-2.77 9.365-.349 1.171 3.412-.942.796-.21Z"/><path fill="#413B38" d="m19.361 23.381.43 1.793.384 1.6a13.455 13.455 0 0 0 4.693-5.433l.2-.384-1.106.311v-.009L21 22.073l-1.372.375-.265.933Zm-.923 4.207a7.51 7.51 0 0 0 1.29-.548l-.421-1.766-.23-.942-.274.942-.713 2.424c.11-.036.229-.073.348-.11Z"/></svg>