<svg fill="none" height="32" viewBox="0 0 32 32" width="32" xmlns="http://www.w3.org/2000/svg"><path d="m16 32c8.8366 0 16-7.1634 16-16 0-8.83656-7.1634-16-16-16-8.83656 0-16 7.16344-16 16 0 8.8366 7.16344 16 16 16z" fill="#fff"/><path d="m6.93159 14.939v.6128c-.02744 4.7836 1.3811 7.6098 2.59756 9.1646l2.25005-.622 1.1067-.3018-.1647-.2378zm12.30181 7.1067.0366-.128 2.936-9.9604c-1.7668-3.07766-4.2093-5.71404-7.1433-7.7103l-.3933-.247 4.372 18.1006z" fill="#8f8e8a"/><path d="m18.6846 22.7134-5.003 1.3811 1.5549 2.3232 1.0609 1.5823c.409-.0197.8158-.0717 1.2165-.1555l1.125-3.8232.1921-.6493zm-8.79874 2.4238c.54144.6285 1.18834 1.1577 1.91154 1.564 1.1635.7845 2.5218 1.231 3.9238 1.2896l-2.5335-3.7683-.8598.2379z" fill="#413b38"/><path d="m18.5658 22.2287-3.9513-16.3537-.4116.33841c-3.0787 2.37453-5.24594 5.73679-6.13715 9.52129l5.32315 7.9208z" fill="#77cbec"/><path d="m24.0078 20.7287c.5555-2.9792.2444-6.0552-.8963-8.8628l-.1921-.5214-2.7713 9.3659-.3476 1.1707 3.4116-.9421z" fill="#5e5957"/><path d="m19.3615 23.3811.4299 1.7927.3841 1.6006c2.0272-1.3526 3.6489-3.2304 4.6921-5.4329l.2012-.3842-1.1067.311v-.0091l-2.9634.814-1.372.375zm-.9238 4.2073c.446-.1423.8778-.3261 1.2896-.5488l-.4207-1.7652-.2287-.9421-.2744.9421-.7134 2.4238c.1098-.0366.2287-.0732.3476-.1098z" fill="#413b38"/></svg>