<svg fill="none" height="32" viewBox="0 0 32 32" width="32" xmlns="http://www.w3.org/2000/svg" xmlns:xlink="http://www.w3.org/1999/xlink"><clipPath id="a"><path d="m0 0h32v32h-32z"/></clipPath><g clip-path="url(#a)"><path d="m15.9936 32.0128c8.8384 0 16.0064-7.168 16.0064-16.0064 0-8.83841-7.168-16.00000657-16.0064-16.00000657-8.83839 0-16.0063869 7.16159657-16.0063869 16.00640657 0 8.8384 7.1679969 16 16.0063869 16z" fill="#070a0e"/><path clip-rule="evenodd" d="m9.2352 21.376c-.48-.2944-.7744-.8128-.7744-1.376v-3.1296c0-.1216.032-.2368.0896-.3392.1856-.32.6016-.4288.9216-.2432l7.0592 4.1152c.4096.2432.6656.6848.6656 1.1584v3.2384c0 .1472-.0384.2944-.1152.4224-.2304.3776-.7296.4992-1.1072.2688zm10.5216-5.9392c.4096.2432.6656.6848.6656 1.1584v6.5728c0 .192-.1024.3712-.2752.4672l-1.5424.8768c-.0192.0128-.0384.0192-.064.0256v-3.648c0-.4736-.2496-.9088-.6528-1.152l-6.1952-3.7056v-4.128c0-.1216.032-.2368.0896-.3392.1856-.32.6016-.4288.9216-.2432zm3.0848-4.8512c.416.2368.672.6848.672 1.1648v9.6c0 .1984-.1088.3776-.2816.4736l-1.4656.7936v-6.688c0-.4736-.2496-.9088-.6528-1.152l-6.336-3.8016v-3.91043c0-.1216.032-.2368.0896-.3392.1856-.32.6016-.4288.9216-.2432z" fill="#00d395" fill-rule="evenodd"/></g></svg>