<svg xmlns="http://www.w3.org/2000/svg" width="32" height="32" fill="none"><defs><clipPath id="comp__a"><path fill="#fff" d="M0 0h32v32H0z"/></clipPath></defs><g clip-path="url(#comp__a)"><path fill="#070A0E" d="M15.994 32.013C24.832 32.013 32 24.845 32 16.006c0-8.838-7.168-16-16.006-16C7.155.006-.013 7.168-.013 16.013c0 8.838 7.168 16 16.007 16Z"/><path fill="#00D395" fill-rule="evenodd" d="M9.235 21.376A1.614 1.614 0 0 1 8.461 20v-3.13c0-.121.032-.236.09-.339a.677.677 0 0 1 .921-.243l7.06 4.115c.409.243.665.685.665 1.159V24.8a.822.822 0 0 1-.115.422.81.81 0 0 1-1.108.27l-6.739-4.116Zm10.522-5.94c.41.244.665.686.665 1.16v6.572a.533.533 0 0 1-.275.467l-1.542.877a.192.192 0 0 1-.064.026V20.89c0-.474-.25-.91-.653-1.152l-6.195-3.706v-4.128c0-.122.032-.237.09-.34a.677.677 0 0 1 .921-.242l7.053 4.115Zm3.085-4.85c.416.236.672.684.672 1.164v9.6a.541.541 0 0 1-.282.474l-1.466.794V15.93c0-.474-.25-.91-.652-1.152l-6.336-3.802v-3.91c0-.122.032-.237.09-.34a.677.677 0 0 1 .92-.243l7.054 4.103Z" clip-rule="evenodd"/></g></svg>