<svg fill="none" height="32" viewBox="0 0 32 32" width="32" xmlns="http://www.w3.org/2000/svg" xmlns:xlink="http://www.w3.org/1999/xlink"><linearGradient id="a"><stop offset="0" stop-color="#0fc5fd"/><stop offset="1" stop-color="#3c54eb"/></linearGradient><linearGradient id="b" gradientUnits="userSpaceOnUse" x1="14.9811" x2="14.9811" xlink:href="#a" y1="28.0004" y2="19.1855"/><linearGradient id="c"><stop offset="0" stop-color="#2672fa"/><stop offset="1" stop-color="#611fd1"/></linearGradient><linearGradient id="d" gradientUnits="userSpaceOnUse" x1="10.455" x2="10.455" xlink:href="#c" y1="19.2002" y2="24.3122"/><linearGradient id="e" gradientUnits="userSpaceOnUse" x1="321.24" x2="321.24" xlink:href="#a" y1="39.852" y2="120.187"/><linearGradient id="f" gradientUnits="userSpaceOnUse" x1="120.013" x2="120.013" xlink:href="#c" y1="75.1488" y2="48.1275"/><linearGradient id="g" gradientUnits="userSpaceOnUse" x1="5.76564" x2="8.52833" y1="17.7588" y2="14.4664"><stop offset="0" stop-color="#ff664d"/><stop offset="1" stop-color="#f9d024"/></linearGradient><linearGradient id="h" gradientUnits="userSpaceOnUse" x1="22.9741" x2="36.6308" xlink:href="#c" y1="87.7543" y2="76.295"/><path d="m16 32c8.8366 0 16-7.1634 16-16 0-8.83656-7.1634-16-16-16-8.83656 0-16 7.16344-16 16 0 8.8366 7.16344 16 16 16z" fill="#fff"/><path d="m22.3612 22.3214c-.7086-.0059-1.4096.1475-2.051.449-.1377.0833-.4365.2451-.4407.2474-.9711.5054-2.0352.8072-3.127.8871-1.0919.0798-2.1885-.0641-3.2228-.4228-1.0344-.3588-1.9846-.9249-2.7925-1.6637-.80787-.7387-1.45647-1.6347-1.90607-2.6329h-4.38754c.61604 2.1272 1.79892 4.0468 3.42204 5.5534 1.62311 1.5066 3.62537 2.5435 5.79247 2.9996 2.1671.4562 4.4174.3145 6.5101-.41 2.0928-.7244 3.9491-2.0043 5.3704-3.7026-.4023-.4334-.8938-.7745-1.4406-.9997s-1.1359-.3292-1.7268-.3048z" fill="url(#b)"/><path d="m16.1487 23.941c-1.5052.0033-2.9809-.4178-4.2577-1.215s-2.30293-1.9383-2.96072-3.2922c-.0414-.0704-.07821-.1434-.11021-.2186l-.022-.015h-4.34885c.0465.176.09703.3504.15158.5231 1.568 4.2658 5.8623 5.0709 11.2963 4.3591.194-.0221.3838-.0719.5636-.148-.1035.004-.2075.0066-.312.0066z" fill="url(#d)"/><path d="m20.4843 9.33839c.5807.24259 1.204.36679 1.8333.36531 1.2074.0101 2.3702-.45638 3.2358-1.29821-1.426-1.71569-3.2948-3.0079-5.4035-3.73631s-4.3766-.86519-6.5576-.39547c-2.1809.46972-4.19147 1.52798-5.81335 3.05986-1.62187 1.53188-2.79305 3.47883-3.38637 5.62943h4.36412c.45804-1.0746 1.14467-2.0365 2.0121-2.8188.8675-.78234 1.895-1.36631 3.011-1.71131s2.2938-.44274 3.4514-.28643c1.1576.1563 2.2673.56291 3.2519 1.19154z" fill="url(#e)"/><path d="m8.74806 12.947c.59907-1.4051 1.57934-2.6146 2.83004-3.49166 1.2507-.87704 2.7218-1.38663 4.247-1.47114-5.434-.71178-9.72835.18891-11.29632 4.4547-.05438.173-.10499.3477-.15183.524h4.34783z" fill="url(#f)"/><path d="m7.14822 18.2222c1.16593 0 2.11111-.9452 2.11111-2.1111s-.94518-2.1111-2.11111-2.1111-2.11111.9452-2.11111 2.1111.94518 2.1111 2.11111 2.1111z" fill="url(#g)"/><path d="m6.11111 18.2222c1.16593 0 2.11111-.9452 2.11111-2.1111s-.94518-2.1111-2.11111-2.1111-2.11111.9452-2.11111 2.1111.94518 2.1111 2.11111 2.1111z" fill="url(#h)"/></svg>