<svg width="32" height="32" fill="none" xmlns="http://www.w3.org/2000/svg"><path d="M16 32c8.837 0 16-7.163 16-16S24.837 0 16 0 0 7.163 0 16s7.163 16 16 16Z" fill="#fff"/><path d="M22.361 22.321a4.729 4.729 0 0 0-2.05.45c-.139.083-.437.244-.442.247a8.045 8.045 0 0 1-11.048-3.832H4.434a12.212 12.212 0 0 0 21.095 4.44 4.092 4.092 0 0 0-3.168-1.305Z" fill="url(#a)"/><path d="M16.149 23.941a8.006 8.006 0 0 1-7.219-4.507 1.895 1.895 0 0 1-.11-.219l-.022-.015H4.45c.047.176.097.35.152.523 1.568 4.266 5.862 5.071 11.296 4.36.194-.023.384-.072.564-.149a8.075 8.075 0 0 1-.312.007Z" fill="url(#b)"/><path d="M20.484 9.338c.581.243 1.204.367 1.834.366a4.586 4.586 0 0 0 3.235-1.299 12.21 12.21 0 0 0-21.16 4.558h4.364a8.042 8.042 0 0 1 11.726-3.625h.001Z" fill="url(#c)"/><path d="M8.748 12.947a8.186 8.186 0 0 1 7.077-4.963c-5.434-.712-9.728.19-11.296 4.455-.055.173-.105.348-.152.524h4.348l.023-.016Z" fill="url(#d)"/><path d="M7.148 18.222a2.111 2.111 0 1 0 0-4.222 2.111 2.111 0 0 0 0 4.222Z" fill="url(#e)"/><path d="M6.111 18.222a2.111 2.111 0 1 0 0-4.222 2.111 2.111 0 0 0 0 4.222Z" fill="url(#f)"/><defs><linearGradient id="a" x1="14.981" y1="28" x2="14.981" y2="19.186" gradientUnits="userSpaceOnUse"><stop stop-color="#0FC5FD"/><stop offset="1" stop-color="#3C54EB"/></linearGradient><linearGradient id="b" x1="10.455" y1="19.2" x2="10.455" y2="24.312" gradientUnits="userSpaceOnUse"><stop stop-color="#2672FA"/><stop offset="1" stop-color="#611FD1"/></linearGradient><linearGradient id="c" x1="321.24" y1="39.852" x2="321.24" y2="120.187" gradientUnits="userSpaceOnUse"><stop stop-color="#0FC5FD"/><stop offset="1" stop-color="#3C54EB"/></linearGradient><linearGradient id="d" x1="120.013" y1="75.149" x2="120.013" y2="48.127" gradientUnits="userSpaceOnUse"><stop stop-color="#2672FA"/><stop offset="1" stop-color="#611FD1"/></linearGradient><linearGradient id="e" x1="5.766" y1="17.759" x2="8.528" y2="14.466" gradientUnits="userSpaceOnUse"><stop stop-color="#FF664D"/><stop offset="1" stop-color="#F9D024"/></linearGradient><linearGradient id="f" x1="22.974" y1="87.754" x2="36.631" y2="76.295" gradientUnits="userSpaceOnUse"><stop stop-color="#2672FA"/><stop offset="1" stop-color="#611FD1"/></linearGradient></defs></svg>