<svg fill="none" height="32" viewBox="0 0 32 32" width="32" xmlns="http://www.w3.org/2000/svg" xmlns:xlink="http://www.w3.org/1999/xlink"><linearGradient id="a"><stop offset=".1" stop-color="#194aad"/><stop offset=".5" stop-color="#248fcb"/><stop offset=".8" stop-color="#2bbfdf"/></linearGradient><linearGradient id="b" gradientUnits="userSpaceOnUse" x1="13.2089" x2="11.0777" xlink:href="#a" y1="21.3323" y2="9.25436"/><linearGradient id="c" gradientUnits="userSpaceOnUse" x1="21.2527" x2="18.434" xlink:href="#a" y1="8.19011" y2="24.174"/><circle cx="16" cy="16" fill="#fff" r="16"/><path d="m6.47532 13.9963c-.32907 0-.47532.1463-.47532.4388v7.5319c0 .3291.14625.4387.47532.4387 3.61968.0366 8.04378-3.1809 11.70008-5.7038v-8.7019c-3.6197 2.4863-8.1535 6.0329-11.70008 5.9963z" fill="url(#b)"/><path d="m25.5243 17.3971c.3291 0 .4753-.1463.4753-.4388 0 0 0-6.5813 0-7.53193 0-.32907-.1462-.43876-.4753-.43876-3.6563-.03656-8.0438 3.18099-11.7001 5.70379v8.6654c3.6197-2.4863 8.1535-6.0329 11.7001-5.9597z" fill="url(#c)"/><path d="m18.1766 16.702v-4.9725c-1.4991.9506-2.9982 1.9744-4.3875 2.925v4.9726c1.5356-.9507 2.9981-1.9744 4.3875-2.9251z" fill="#194aad"/></svg>