<svg xmlns="http://www.w3.org/2000/svg" width="33" height="32" fill="none"><path fill="#6A7AFF" d="M15.998 0c8.835 0 15.999 7.164 15.999 15.998 0 8.835-7.164 15.999-15.999 15.999C7.164 31.997 0 24.833 0 15.998 0 7.164 7.164 0 15.998 0Z"/><path fill="#fff" d="M16.213 25.249a.824.824 0 0 1-.432 0c-1.82-.49-3.251-1.37-4.371-2.467h3.436a.608.608 0 1 0 0-1.216h-4.495a12.315 12.315 0 0 1-1.162-1.92h4.122a.608.608 0 1 0 0-1.216H8.66a17.568 17.568 0 0 1-.675-2.208h7.788a.608.608 0 1 0 0-1.216H7.737a23.309 23.309 0 0 1-.275-2.207h5.849a.608.608 0 1 0 0-1.216H7.4a23.7 23.7 0 0 1-.007-.931.846.846 0 0 1 .771-.832c3.594-.336 6.528-2.256 7.494-2.96a.576.576 0 0 1 .678 0c.967.704 3.9 2.624 7.494 2.96.432.038.768.4.771.832.042 2.835-.413 12.46-8.39 14.597Z"/></svg>