<svg fill="none" height="32" viewBox="0 0 33 32" width="33" xmlns="http://www.w3.org/2000/svg"><path d="m15.9984 0c8.8343 0 15.9984 7.16408 15.9984 15.9984 0 8.8343-7.1641 15.9984-15.9984 15.9984-8.83432 0-15.9984-7.1641-15.9984-15.9984 0-8.83432 7.16408-15.9984 15.9984-15.9984z" fill="#6a7aff"/><path d="m16.2127 25.2487c-.1408.0384-.2912.0384-.432 0-1.8206-.4895-3.2508-1.3695-4.3707-2.4669h3.4364c.336 0 .608-.272.608-.608s-.272-.6079-.608-.6079h-4.4955c-.45118-.608-.83514-1.2543-1.16151-1.9198h4.12121c.3359 0 .6079-.272.6079-.608 0-.3359-.272-.6079-.6079-.6079h-4.64916c-.28157-.7359-.50235-1.4815-.67513-2.2078h7.78799c.336 0 .608-.272.608-.6079 0-.336-.272-.608-.608-.608h-8.03756c-.13759-.7903-.22398-1.539-.27518-2.2077h5.84904c.3359 0 .6079-.272.6079-.608s-.272-.6079-.6079-.6079h-5.90983c-.0096-.3584-.0096-.672-.0064-.9311.0064-.4352.33917-.79355.77112-.83195 3.59321-.33597 6.52731-2.25578 7.49361-2.95971.2016-.14718.4768-.14718.6784 0 .9663.70393 3.9004 2.62374 7.4936 2.95971.432.0384.768.39995.7711.83195.0416 2.8349-.4127 12.4595-8.3895 14.5969z" fill="#fff"/></svg>