<svg fill="none" height="32" viewBox="0 0 32 32" width="32" xmlns="http://www.w3.org/2000/svg"><path d="m16 32c8.8366 0 16-7.1634 16-16 0-8.83656-7.1634-16-16-16-8.83656 0-16 7.16344-16 16 0 8.8366 7.16344 16 16 16z" fill="#69e2dc"/><path d="m22.8991 22.3659c.1073.1078.1904.2373.2437.3798.0533.1424.0757.2946.0656.4464s-.0524.2997-.1241.4338c-.0717.1342-.1712.2515-.2918.3442-1.4973 1.1761-3.2956 1.9067-5.1888 2.1082-1.8933.2015-3.805-.1342-5.5164-.9687-1.7113-.8345-3.15302-2.1341-4.16007-3.7499-1.00706-1.6158-1.53873-3.4826-1.53413-5.3865.00459-1.904.54526-3.7681 1.5601-5.3791 1.01484-1.61091 2.4628-2.9035 4.1782-3.72974 1.7153-.82624 3.6286-1.15272 5.5209-.94207 1.8923.21066 3.687.94993 5.1786 2.13318.1149.09436.2086.21187.2751.34488.0664.13301.1041.27853.1106.42708.0064.14855-.0185.29679-.0732.43505s-.1379.26345-.2443.36739l-5.6149 5.61493c-.0987.099-.177.2164-.2304.3456-.0543.1357-.0819.2805-.0811.4267-.0016.1466.0274.2919.0854.4266.0524.1298.1308.2474.2304.3456z" fill="#fff"/></svg>