<svg xmlns="http://www.w3.org/2000/svg" width="32" height="32" fill="none"><circle cx="16" cy="16" r="16" fill="#836946"/><path fill="#E2E2E6" fill-rule="evenodd" d="m15.99 6.669 5.898 1.946c.198.065.31.293.252.51-.061.217-.27.338-.468.274L15.99 7.523 10.325 9.4c-.197.064-.407-.057-.468-.274-.058-.217.052-.445.252-.51l5.88-1.946Zm-7.88 4.519a19.71 19.71 0 0 0 .45 5.44c.732 3.193 2.497 6.854 6.548 9.41l-4.027-8.524-2.97-6.326Zm8.765 14.849c4.051-2.557 5.817-6.216 6.552-9.409a19.67 19.67 0 0 0 .458-5.437l-2.97 6.325-4.04 8.52Zm-.883.086 3.976-8.385h-7.939l3.963 8.384v.001ZM11.64 16.92 8.226 9.64a.385.385 0 0 0-.374-.23.401.401 0 0 0-.352.348c-.062.391-.499 3.442.333 7.07.837 3.641 2.955 7.869 7.994 10.552l.163.088.164-.086c5.037-2.687 7.16-6.91 8.001-10.554.836-3.628.402-6.677.342-7.069a.403.403 0 0 0-.352-.35.385.385 0 0 0-.374.23l-3.415 7.28h-8.715Z" clip-rule="evenodd"/></svg>