<svg fill="none" height="32" viewBox="0 0 32 32" width="32" xmlns="http://www.w3.org/2000/svg"><circle cx="16" cy="16" fill="#836946" r="16"/><path clip-rule="evenodd" d="m15.9898 6.66895 5.8984 1.94648c.1976.06413.3103.29293.2513.50959-.0606.21666-.2686.33799-.468.27386l-5.6817-1.87542-5.6644 1.87542c-.1976.06413-.40729-.0572-.46795-.27386-.05894-.21666.05199-.44546.25135-.50959zm-7.87951 4.51865c-.06933 1.2393-.05893 3.2292.45065 5.4408.73145 3.1927 2.49596 6.8535 6.54666 9.4101l-4.0265-8.5244zm8.76521 14.8491c4.0507-2.5566 5.817-6.2156 6.5519-9.4083.5113-2.2099.5269-4.198.4576-5.4373l-2.9692 6.3248zm-.8839.0867 3.9761-8.3857h-7.9384l3.9623 8.384zm-4.3506-9.2038-3.41458-7.2798c-.07453-.15773-.22533-.24266-.37439-.23052-.1612.01386-.31893.14213-.35186.34839-.0624.39173-.49919 3.44233.33279 7.07013.83718 3.6416 2.95524 7.8691 7.99394 10.5522l.1629.0884.1647-.0866c5.0369-2.6866 7.1602-6.9107 8.0009-10.554.8354-3.6278.4021-6.6767.3414-7.0684-.0347-.20799-.1906-.33626-.3518-.35012-.1491-.01214-.2999.07279-.3744.23052l-3.4146 7.2798h-8.7133z" fill="#e2e2e6" fill-rule="evenodd"/></svg>