<svg xmlns="http://www.w3.org/2000/svg" width="32" height="32" fill="none"><defs><linearGradient id="ctr__a" x1="13.221" x2="18.779" y1=".24" y2="31.76" gradientUnits="userSpaceOnUse"><stop stop-color="#F9D336"/><stop offset=".045" stop-color="#F9D53D"/><stop offset=".109" stop-color="#FADA4F"/><stop offset=".184" stop-color="#FBE26E"/><stop offset=".267" stop-color="#FCED98"/><stop offset=".34" stop-color="#FDF8C3"/><stop offset=".551" stop-color="#CFA157"/><stop offset=".6" stop-color="#C48C3D"/><stop offset=".62" stop-color="#C89447"/><stop offset=".655" stop-color="#D3A962"/><stop offset=".699" stop-color="#E5CC8E"/><stop offset=".739" stop-color="#F7F0BB"/><stop offset=".771" stop-color="#EFE4A5"/><stop offset=".844" stop-color="#DECC77"/><stop offset=".91" stop-color="#D2BA56"/><stop offset=".964" stop-color="#CBAF41"/><stop offset="1" stop-color="#C8AB3A"/></linearGradient><linearGradient id="ctr__b" x1="11.39" x2="21.344" y1="7.945" y2="23.874" gradientUnits="userSpaceOnUse"><stop stop-color="#DFB64A"/><stop offset=".11" stop-color="#E0B74D"/><stop offset=".206" stop-color="#E2BB58"/><stop offset=".296" stop-color="#E6C26A"/><stop offset=".382" stop-color="#EBCB83"/><stop offset=".465" stop-color="#F1D7A3"/><stop offset=".515" stop-color="#F6DFBA"/><stop offset=".553" stop-color="#F2D9B1"/><stop offset=".614" stop-color="#E7CA98"/><stop offset=".692" stop-color="#D6B16F"/><stop offset=".779" stop-color="#BF913A"/><stop offset=".85" stop-color="#C59942"/><stop offset=".959" stop-color="#D6AE57"/><stop offset="1" stop-color="#DEB861"/></linearGradient></defs><path fill="url(#ctr__a)" d="M16 32c8.837 0 16-7.163 16-16S24.837 0 16 0 0 7.163 0 16s7.163 16 16 16Z"/><path fill="#393937" d="M16 30c7.732 0 14-6.268 14-14S23.732 2 16 2 2 8.268 2 16s6.268 14 14 14Z"/><path fill="#D49949" d="M20.12 18.513a.193.193 0 0 0-.29-.021 4.312 4.312 0 0 1-2.967 1.153 3.978 3.978 0 0 1-4.154-3.765 3.978 3.978 0 0 1 4.154-3.765 4.361 4.361 0 0 1 2.93 1.102.194.194 0 0 0 .287-.024l3.157-4.19a.206.206 0 0 0-.02-.27A9.615 9.615 0 0 0 16.5 6a9.825 9.825 0 0 0 0 19.648c2.51.001 4.92-.98 6.716-2.731a.207.207 0 0 0 .02-.27l-3.115-4.134Z"/><path fill="url(#ctr__b)" d="M16.5 25.248a9.425 9.425 0 0 1 0-18.848 9.2 9.2 0 0 1 6.314 2.5l-2.92 3.876a4.767 4.767 0 0 0-3.031-1.06 4.377 4.377 0 0 0-4.554 4.164 4.377 4.377 0 0 0 4.554 4.165 4.713 4.713 0 0 0 3.073-1.112l2.877 3.816a9.202 9.202 0 0 1-6.313 2.5Z"/></svg>