<svg xmlns="http://www.w3.org/2000/svg" width="32" height="32" fill="none"><path fill="#030012" d="M16 32c8.837 0 16-7.163 16-16S24.837 0 16 0 0 7.163 0 16s7.163 16 16 16Z"/><path fill="#fff" d="m27.797 19.673-2.871-7.688a.48.48 0 0 0-.449-.311h-4.658l-2.755-7.362a.48.48 0 0 0-.803-.155l-6.848 7.517H4.652a.478.478 0 0 0-.45.647l2.872 7.687a.479.479 0 0 0 .449.312h4.589l2.754 7.369a.478.478 0 0 0 .803.155l4.073-4.452 2.82-3.072h4.786a.48.48 0 0 0 .45-.647h-.001ZM16.441 5.383l2.491 6.658-2.769 3.023-1.15-3.079a.48.48 0 0 0-.449-.311H10.71l5.731-6.291Zm-11.098 7.25h8.889l1.204 3.224-3.21 3.504h-4.37l-2.513-6.729Zm13.692 10.112L15.49 26.62l-2.496-6.676 2.819-3.077 1.173 3.142a.479.479 0 0 0 .45.312h3.824l-2.225 2.425Zm-1.267-3.384-1.228-3.289 3.15-3.44h4.454l2.513 6.729h-8.889Z"/></svg>