<svg fill="none" height="32" viewBox="0 0 32 32" width="32" xmlns="http://www.w3.org/2000/svg"><path d="m16 32c8.8366 0 16-7.1634 16-16 0-8.83656-7.1634-16-16-16-8.83656 0-16 7.16344-16 16 0 8.8366 7.16344 16 16 16z" fill="#030012"/><path d="m27.797 19.6727-2.8711-7.6875c-.0342-.0915-.0955-.1703-.1757-.226s-.1756-.0855-.2732-.0855h-4.6584l-2.7541-7.36195c-.0288-.07689-.0768-.1451-.1395-.19809-.0628-.053-.138-.089-.2186-.10456-.0807-.01603-.1641-.01082-.2422.01512-.078.02593-.148.07169-.203.13281l-6.84856 7.51667h-4.76082c-.07743-.0001-.15371.0187-.22232.0546-.06861.0358-.1275.0878-.17165.1514s-.07223.137-.08184.2138-.00047.1549.02664.2274l2.87085 7.6871c.03414.0916.09546.1705.17575.2262.08029.0558.1757.0856.27343.0856h4.58922l2.7545 7.369c.0287.0768.0767.1449.1393.1978.0627.053.1378.089.2183.1046.0301.0059.0607.0089.0913.0088.0665-.0001.1323-.0139.1932-.0408.0609-.0268.1156-.066.1605-.1151l4.073-4.4517.0002.0002 2.8189-3.0729h4.787c.0774 0 .1536-.0187.2222-.0546s.1275-.0878.1716-.1514.0722-.1369.0818-.2137.0005-.1548-.0266-.2273zm-11.3556-14.29009 2.491 6.65829-2.7691 3.0229-1.1497-3.0786c-.0342-.0915-.0956-.1703-.1759-.226-.0802-.0557-.1756-.0855-.2733-.0855h-3.8548zm-11.09884 7.24979h8.88924l1.2044 3.225-3.2094 3.5036h-4.37151zm13.69284 10.1123.0003.0002-.0003.0002-3.5452 3.8743-2.4958-6.6768 2.8184-3.0769 1.1735 3.1422c.0341.0916.0954.1706.1756.2263.0803.0557.1757.0856.2734.0855h3.8246zm-1.2673-3.3837-1.2283-3.2889 3.1507-3.4397h4.4536l2.5131 6.7286z" fill="#fff"/></svg>