<svg fill="none" height="32" viewBox="0 0 32 32" width="32" xmlns="http://www.w3.org/2000/svg" xmlns:xlink="http://www.w3.org/1999/xlink"><linearGradient id="a"><stop offset="0" stop-color="#5ac1dc"/><stop offset="1" stop-color="#3179bd"/></linearGradient><linearGradient id="b" gradientUnits="userSpaceOnUse" x1="20.8212" x2="20.8212" xlink:href="#a" y1="22.37" y2="6.0001"/><radialGradient id="c" cx="0" cy="0" gradientTransform="matrix(7.25379 0 0 7.40182 16.4226 19.6625)" gradientUnits="userSpaceOnUse" r="1"><stop offset="0" stop-color="#fff"/><stop offset="1" stop-color="#8f8f8f"/></radialGradient><linearGradient id="d" gradientUnits="userSpaceOnUse" x1="178.433" x2="1524.99" xlink:href="#a" y1="1684.48" y2="1684.48"/><path d="m16 32c8.8366 0 16-7.1634 16-16 0-8.83656-7.1634-16-16-16-8.83656 0-16 7.16344-16 16 0 8.8366 7.16344 16 16 16z" fill="#1a1a1a"/><path d="m25.7588 22.37-9.3729-16.23416c-.0331-.05848-.0871-.10237-.1511-.12296s-.1333-.01638-.1944.0118c-.061.02818-.1092.07827-.1351.14034-.0258.06206-.0274.13157-.0043.19473l4.4237 12.47985c.0123.0347.0173.0717.0147.1084-.0026.0368-.0128.0727-.0299.1053-.0171.0327-.0408.0615-.0695.0846s-.0619.04-.0975.0497l-3.2484.8945c-.0586.0157-.1102.0508-.1463.0995-.036.0488-.0545.1083-.0524.1689.0022.0607.0249.1188.0643.1648.0395.0461.0934.0774.1529.0889z" fill="url(#b)"/><path d="m12.0829 19.7936 1.0268-3.4666c.0163-.0483.0152-.1007-.0031-.1483-.0184-.0476-.0528-.0872-.0974-.112-.0445-.0249-.0963-.0333-.1464-.0239-.0502.0094-.0954.0361-.1279.0754l-5.93998 7.1652h18.98838c.0549-.0006.1077-.0214.1482-.0586.0405-.0371.0659-.0879.0712-.1426s-.0097-.1094-.0423-.1537c-.0326-.0442-.0804-.0749-.1342-.086l-13.5739-2.7681c-.0302-.0062-.0588-.0185-.084-.0363-.0251-.0178-.0464-.0406-.0623-.0669-.0159-.0264-.0262-.0558-.0302-.0864-.0039-.0306-.0015-.0616.0071-.0912z" fill="url(#c)"/><path d="m15.4457 6.37793-9.4077 16.29217c-.03071.0555-.03982.1205-.02557.1824.01425.0618.05085.1163.10278.1528s.11552.0526.17857.0451.12111-.038.16304-.0857l8.79868-10.3799c.0236-.0279.053-.0504.086-.066s.069-.0241.1056-.0247c.0365-.0007.0728.0065.1064.0209.0335.0144.0636.0358.0883.0628l2.4131 2.6371c.0403.043.0942.071.1526.0791s.1179-.004.1684-.0344c.0505-.0305.0891-.0773.1092-.1327.0201-.0555.0206-.1161.0014-.1719z" fill="url(#d)"/></svg>