<svg fill="none" height="32" viewBox="0 0 32 32" width="32" xmlns="http://www.w3.org/2000/svg"><path d="m16 32c8.8366 0 16-7.1634 16-16 0-8.83656-7.1634-16-16-16-8.83656 0-16 7.16344-16 16 0 8.8366 7.16344 16 16 16z" fill="#33b236"/><g fill="#fff"><path d="m7.64 16c0-4.62 3.7345-8.36 8.3325-8.36 1.5016.00026 2.9753.4065 4.2649 1.17574 1.2897.76924 2.3473 1.87286 3.0611 3.19406.0807.1558.1917.2939.3265.4063s.2906.1968.4584.2483c.1678.0514.3441.0689.5187.0514s.344-.0696.4982-.1534c.1543-.0837.2902-.1974.4-.3343s.1912-.2943.2394-.4631c.0482-.1687.0623-.3454.0414-.5196s-.0763-.3426-.163-.4951c-.9403-1.73854-2.3329-3.19064-4.0305-4.20284-1.6976-1.01219-3.6372-1.54685-5.6137-1.54746-6.06378 0-10.9739 4.928-10.9739 11s4.90875 11 10.9725 11c1.9767-.0004 3.9166-.5349 5.6145-1.5471s3.0907-2.4645 4.0311-4.2032c.1591-.3069.1914-.6639.09-.9944s-.3283-.608-.6321-.7729c-.3038-.165-.6601-.2042-.9925-.1092s-.6142.3165-.785.6171c-.7135 1.321-1.771 2.4246-3.0604 3.1938s-2.7628 1.1755-4.2642 1.1759c-4.5994 0-8.3339-3.74-8.3339-8.36z"/><path d="m17.98 14.68c0 .5858-.2558 1.1138-.66 1.4754v3.1446h-2.64v-3.1446c-.2462-.2202-.4334-.4985-.5445-.8095-.1112-.3111-.1428-.645-.0919-.9713.0509-.3264.1826-.6348.3832-.8972.2005-.2625.4635-.4706.7651-.6054.3015-.1348.632-.192.9613-.1665.3293.0256.6469.1331.9241.3128.2771.1797.5049.4259.6625.7161.1577.2903.2403.6153.2402.9456z"/></g></svg>