<svg xmlns="http://www.w3.org/2000/svg" width="32" height="32" fill="none"><path fill="#000" d="M16 32c8.837 0 16-7.163 16-16S24.837 0 16 0 0 7.163 0 16s7.163 16 16 16Z"/><path fill="#F3F3F3" d="m7.175 8.769-1.613 3.03L8.877 9.77l1.562-2.831-3.264 1.83Z"/><path fill="#fff" d="m12.065 11.713 1.906-3.193-3.247-1.701-1.648 2.987 2.989 1.907Z"/><path fill="#F3F3F3" d="M8.853 14.013V10.01l-3.445 2.108v3.592l3.445-1.697Z"/><path fill="#fff" d="M9.045 10.014v4.003l2.956 1.682V11.9l-2.956-1.886Z"/><path fill="#F3F3F3" d="M12.193 11.874v3.656l1.816-2.896V8.83l-1.816 3.044Z"/><path fill="#fff" d="m14.105 4.847-3.22 1.84 3.22 1.686 3.168-1.686-3.168-1.84Z"/><path fill="#F3F3F3" d="M14.201 8.539v3.953l3.173-1.893V6.85l-3.173 1.689Z"/><path fill="#fff" d="m21.131 6.594-3.035-1.762h-3.634l3.034 1.762h3.635Z"/><path fill="#F3F3F3" d="M21.391 6.786h-3.825v3.771h3.825v-3.77Zm.192.079V10.6l3.228 2.05V8.914l-3.228-2.049Z"/><path fill="#fff" d="m18.309 12.818 3.178 1.743 3.23-1.743-3.23-2.051-3.178 2.051Zm-3.878-.239 3.664.148 3.066-1.978h-3.664l-3.066 1.83ZM9.189 14.32l1.569 2.941 2.934 1.761-1.667-3.088-2.836-1.614Z"/><path fill="#F3F3F3" d="M10.557 17.293 8.908 14.2l-3.461 1.705 1.908 3.248 3.202-1.86Z"/><path fill="#fff" d="M7.224 22.908V19.31l-1.816-3.093v3.746l1.816 2.945Z"/><path fill="#F3F3F3" d="m13.763 19.289-3.078-1.848-3.181 1.848 3.181 2.052 3.078-2.052Zm3.82.091h-3.612l-2.968 1.98h3.562l3.018-1.98Z"/><path fill="#fff" d="M10.59 25.034v-3.526L7.416 19.46v3.732l3.174 1.842Zm7.219-1.842v-3.73l-3.119 2.045v3.526l3.119-1.841Zm-3.311-1.64h-3.716v3.553h3.716v-3.553Z"/><path fill="#F3F3F3" d="m17.906 27.152 3.281-1.949-3.281-1.845-3.127 1.845 3.127 1.949Zm-6.889-1.855 2.953 1.871h3.599l-3.003-1.871h-3.549Z"/><path fill="#fff" d="m24.728 23.176 1.753-3.019-3.078 1.857-1.753 2.922 3.078-1.76Z"/><path fill="#F3F3F3" d="m19.999 20.013-1.96 3.199 3.305 1.86 1.857-3.096-3.202-1.963Z"/><path fill="#fff" d="M19.871 19.854v-3.446l-1.87 2.904v3.595l1.87-3.053Z"/><path fill="#F3F3F3" d="M23.236 21.773v-3.682l-3.173-1.843v3.58l3.173 1.945Z"/><path fill="#fff" d="M23.428 18.09v3.684l3.228-1.947v-3.684l-3.228 1.947Zm-1.81-3.381 1.751 3.193 3.252-1.962-1.75-2.987-3.253 1.756Z"/><path fill="#F3F3F3" d="m18.372 13.071 1.666 2.94 3.045 1.768-1.667-3.038-3.044-1.67Zm6.631-3.85v3.577l1.653 2.821V12.09l-1.653-2.869Z"/></svg>