<svg fill="none" height="32" viewBox="0 0 32 32" width="32" xmlns="http://www.w3.org/2000/svg"><path d="m16 32c8.8366 0 16-7.1634 16-16 0-8.83656-7.1634-16-16-16-8.83656 0-16 7.16344-16 16 0 8.8366 7.16344 16 16 16z" fill="#000"/><path d="m7.175 8.76903-1.613 3.02997 3.315-2.02897 1.562-2.831z" fill="#f3f3f3"/><path d="m12.065 11.713 1.906-3.19303-3.247-1.701-1.648 2.987z" fill="#fff"/><path d="m8.853 14.013v-4.003l-3.445 2.108v3.592z" fill="#f3f3f3"/><path d="m9.045 10.014v4.003l2.956 1.682v-3.799z" fill="#fff"/><path d="m12.193 11.874v3.656l1.816-2.896v-3.80398z" fill="#f3f3f3"/><path d="m14.105 4.84698-3.22 1.84 3.22 1.686 3.168-1.686z" fill="#fff"/><path d="m14.201 8.53898v3.95302l3.173-1.893v-3.74902z" fill="#f3f3f3"/><path d="m21.131 6.59397-3.035-1.762h-3.634l3.034 1.762z" fill="#fff"/><path d="m21.391 6.78625h-3.8246v3.77075h3.8246z" fill="#f3f3f3"/><path d="m21.583 6.86499v3.73501l3.228 2.05v-3.73601z" fill="#f3f3f3"/><g fill="#fff"><path d="m18.309 12.818 3.178 1.743 3.23-1.743-3.23-2.051z"/><path d="m14.431 12.579 3.664.148 3.066-1.978h-3.664z"/><path d="m9.189 14.32 1.569 2.941 2.934 1.761-1.667-3.088z"/></g><path d="m10.557 17.293-1.64899-3.093-3.461 1.705 1.908 3.248z" fill="#f3f3f3"/><path d="m7.224 22.908v-3.598l-1.816-3.093v3.746z" fill="#fff"/><path d="m13.763 19.289-3.078-1.848-3.181 1.848 3.181 2.052z" fill="#f3f3f3"/><path d="m17.583 19.38h-3.612l-2.968 1.98h3.562z" fill="#f3f3f3"/><path d="m10.59 25.034v-3.526l-3.174-2.048v3.732z" fill="#fff"/><path d="m17.809 23.192v-3.73l-3.119 2.045v3.526z" fill="#fff"/><path d="m14.4976 21.5516h-3.716v3.5536h3.716z" fill="#fff"/><path d="m17.906 27.152 3.281-1.949-3.281-1.845-3.127 1.845z" fill="#f3f3f3"/><path d="m11.017 25.297 2.953 1.871h3.599l-3.003-1.871z" fill="#f3f3f3"/><path d="m24.728 23.176 1.753-3.019-3.078 1.857-1.753 2.922z" fill="#fff"/><path d="m19.999 20.013-1.96 3.199 3.305 1.86 1.857-3.096z" fill="#f3f3f3"/><path d="m19.871 19.854v-3.446l-1.87 2.904v3.595z" fill="#fff"/><path d="m23.236 21.773v-3.682l-3.173-1.843v3.58z" fill="#f3f3f3"/><path d="m23.428 18.09v3.684l3.228-1.947v-3.684z" fill="#fff"/><path d="m21.618 14.709 1.751 3.193 3.252-1.962-1.75-2.987z" fill="#fff"/><path d="m18.372 13.071 1.666 2.94 3.045 1.768-1.667-3.038z" fill="#f3f3f3"/><path d="m25.003 9.22101v3.57699l1.653 2.821v-3.529z" fill="#f3f3f3"/></svg>