<svg fill="none" height="32" viewBox="0 0 32 32" width="32" xmlns="http://www.w3.org/2000/svg"><path d="m16 32c8.8366 0 16-7.1634 16-16 0-8.83656-7.1634-16-16-16-8.83656 0-16 7.16344-16 16 0 8.8366 7.16344 16 16 16z" fill="#3a3a3a"/><path d="m18.6218 10.2421h-1.315v1.9826h1.315z" fill="#1682fe"/><path d="m14.8431 6.56006h-1.315v1.98261h1.315z" fill="#1682fe"/><path d="m11.0679 8.448h-1.31502v1.9826h1.31502z" fill="#60d8a4"/><path d="m9.1928 16.0002h-1.3283v5.6636h1.3283z" fill="#f4bb3b"/><path d="m9.1928 10.3368h-1.3283v5.6635h1.3283z" fill="#60d8a4"/><path d="m20.5088 12.1295h-1.3151v1.9826h1.3151z" fill="#1682fe"/><g fill="#ff5a5a"><path d="m20.5077 17.8885h-1.315v1.9827h1.315z"/><path d="m18.6209 19.7769h-1.315v1.9826h1.315z"/><path d="m14.8436 23.4574h-1.315v1.9826h1.315z"/></g><path d="m11.0679 21.5695h-1.31502v1.9826h1.31502z" fill="#f4bb3b"/><path d="m24.1991 14.1124v-3.7762h-1.8893v-1.88806h-3.7761v-1.88808h-3.7758v1.88808h-3.7757v1.88806h-1.8893v11.3278h1.888v1.888h3.7759v1.8881h3.7757v-1.888h3.7773v-1.888h1.8893v-3.776h-3.7773v1.8882h-1.888v1.888h-3.7759v-1.888h-1.888v-7.552h1.888v-1.8881h3.7758v1.8881h1.888v1.8881z" fill="#fff"/></svg>