<svg xmlns="http://www.w3.org/2000/svg" width="32" height="32" fill="none"><path fill="#3A3A3A" d="M16 32c8.837 0 16-7.163 16-16S24.837 0 16 0 0 7.163 0 16s7.163 16 16 16Z"/><path fill="#1682FE" d="M18.622 10.242h-1.315v1.983h1.315v-1.983ZM14.843 6.56h-1.315v1.983h1.315V6.56Z"/><path fill="#60D8A4" d="M11.068 8.448H9.753v1.983h1.315V8.448Z"/><path fill="#F4BB3B" d="M9.193 16H7.864v5.664h1.329V16Z"/><path fill="#60D8A4" d="M9.193 10.337H7.864V16h1.329v-5.663Z"/><path fill="#1682FE" d="M20.509 12.13h-1.315v1.982h1.315V12.13Z"/><path fill="#FF5A5A" d="M20.508 17.889h-1.315v1.982h1.315V17.89Zm-1.888 1.888h-1.314v1.982h1.315v-1.982Zm-3.776 3.68h-1.315v1.983h1.315v-1.983Z"/><path fill="#F4BB3B" d="M11.068 21.57H9.753v1.982h1.315V21.57Z"/><path fill="#fff" d="M24.2 14.112v-3.776h-1.89V8.448h-3.776V6.56h-3.776v1.888h-3.776v1.888h-1.89v11.328h1.889v1.888h3.776v1.888h3.775v-1.888h3.778v-1.888h1.89v-3.776h-3.778v1.888h-1.888v1.888h-3.776v-1.888H12.87v-7.552h1.888v-1.888h3.776v1.888h1.888v1.888h3.777Z"/></svg>