<svg xmlns="http://www.w3.org/2000/svg" width="32" height="32" fill="none"><defs><linearGradient id="dai__a" x1="4.686" x2="27.314" y1="4.686" y2="27.314" gradientUnits="userSpaceOnUse"><stop stop-color="#F9AF1A"/><stop offset="1" stop-color="#FBC349"/></linearGradient></defs><path fill="url(#dai__a)" d="M16 32c8.837 0 16-7.163 16-16S24.837 0 16 0 0 7.163 0 16s7.163 16 16 16Z"/><path fill="#fff" d="M25.517 13.389h-1.901a7.543 7.543 0 0 0-7.078-4.935H9.939v4.935H7.84v1.728h2.1v1.85h-2.1v1.727h2.1v4.852h6.598a7.541 7.541 0 0 0 7.046-4.852h1.933v-1.728h-1.498c.039-.313.064-.64.064-.966 0-.3-.019-.595-.051-.883h1.491v-1.728h-.006Zm-13.85-3.283h4.8a5.765 5.765 0 0 1 5.203 3.283H11.667v-3.283Zm4.8 11.788h-4.8v-3.2h9.965a5.763 5.763 0 0 1-5.165 3.2Zm5.767-6.022v.262c0 .282-.02.564-.058.832H11.667v-1.85h10.515c.032.25.052.5.052.756Z"/></svg>