<svg fill="none" height="32" viewBox="0 0 32 32" width="32" xmlns="http://www.w3.org/2000/svg" xmlns:xlink="http://www.w3.org/1999/xlink"><linearGradient id="a" gradientUnits="userSpaceOnUse" x1="4.68629" x2="27.3137" y1="4.68629" y2="27.3137"><stop offset="0" stop-color="#f9af1a"/><stop offset="1" stop-color="#fbc349"/></linearGradient><path d="m16 32c8.8366 0 16-7.1634 16-16 0-8.83656-7.1634-16-16-16-8.83656 0-16 7.16344-16 16 0 8.8366 7.16344 16 16 16z" fill="url(#a)"/><path d="m25.5168 13.3888h-1.9008c-1.0624-2.88-3.8272-4.9344-7.0784-4.9344h-6.59837v4.9344h-2.0992v1.728h2.0992v1.8496h-2.0992v1.728h2.0992v4.8512h6.59837c3.2192 0 5.9648-2.016 7.0464-4.8512h1.9328v-1.728h-1.4976c.0384-.3136.064-.64.064-.9664 0-.3008-.0192-.5952-.0512-.8832h1.4912v-1.728zm-13.8496-3.2832h4.8c2.2976 0 4.2752 1.344 5.2032 3.2832h-10.0032zm4.8 11.7888h-4.8v-3.2h9.9648c-.9408 1.8944-2.8992 3.2-5.1648 3.2zm5.7664-6.0224v.2624c0 .2816-.0192.5632-.0576.832h-10.5088v-1.8496h10.5152c.032.2496.0512.4992.0512.7552z" fill="#fff"/></svg>