<svg fill="none" height="32" viewBox="0 0 32 32" width="32" xmlns="http://www.w3.org/2000/svg" xmlns:xlink="http://www.w3.org/1999/xlink"><linearGradient id="a" gradientUnits="userSpaceOnUse" x1="16" x2="16" y1="0" y2="32"><stop offset="0" stop-color="#74247d"/><stop offset="1" stop-color="#1c0b2d"/></linearGradient><path d="m16 32c8.8366 0 16-7.1634 16-16 0-8.83657-7.1634-16-16-16-8.83657 0-16 7.16343-16 16 0 8.8366 7.16343 16 16 16z" fill="url(#a)"/><g clip-rule="evenodd" fill="#fff" fill-rule="evenodd"><path d="m15.9693 5.3125c2.8429 0 5.5694 1.12937 7.5797 3.1396 2.0103 2.0103 3.1396 4.7368 3.1396 7.5797.0002.4301-.0252.8599-.0761 1.2869-.0018.0147-.0054.0438-.0054.0438s-3.9134-3.6125-10.6071-3.6125c-6.56881 0-10.66094 3.6705-10.66094 3.6705s-.00624-.0467-.00887-.0702c-.18543-1.5073-.04877-3.0368.40103-4.4873.4498-1.4506 1.20247-2.7891 2.20817-3.927 1.0057-1.13793 2.24161-2.04937 3.62581-2.67403 1.3843-.62464 2.8854-.94827 4.4041-.94947z"/><path d="m16.0003 15.9375c2.821-.0007 5.5866.7833 7.9877 2.2643 2.401 1.481 4.3428 3.6006 5.6082 6.1218l.0237.0472s-.572.9974-1.6551 2.2258c-.6751.7667-1.425 1.4641-2.2387 2.0817 0 0-.0053-.0211-.008-.0312-1.5602-6.1612-7.2862-7.6471-9.7181-7.6471-2.3524 0-8.20463 1.2973-9.777 7.6087-.0035.0139-.0104.0419-.0104.0419-.80093-.6242-1.545-1.3181-2.22353-2.0735-.601-.6821-1.14179-1.415-1.61627-2.1904 0 0 .00975-.0196.01469-.0294 1.26208-2.5301 3.20448-4.6583 5.60911-6.1456 2.4046-1.4873 5.1763-2.2749 8.0037-2.2742z"/></g></svg>