<svg xmlns="http://www.w3.org/2000/svg" width="32" height="32" fill="none"><defs><linearGradient id="dar__a" x1="16" x2="16" y1="0" y2="32" gradientUnits="userSpaceOnUse"><stop stop-color="#74247D"/><stop offset="1" stop-color="#1C0B2D"/></linearGradient></defs><path fill="url(#dar__a)" d="M16 32c8.837 0 16-7.163 16-16S24.837 0 16 0 0 7.163 0 16s7.163 16 16 16Z"/><path fill="#fff" fill-rule="evenodd" d="M15.97 5.313a10.72 10.72 0 0 1 10.643 12.006l-.006.044S22.694 13.75 16 13.75c-6.569 0-10.66 3.67-10.66 3.67l-.01-.07A10.728 10.728 0 0 1 15.97 5.312Z" clip-rule="evenodd"/><path fill="#fff" fill-rule="evenodd" d="M16 15.938a15.208 15.208 0 0 1 13.596 8.386l.024.047s-.572.997-1.655 2.226a15.34 15.34 0 0 1-2.239 2.081l-.008-.03C24.158 22.485 18.432 21 16 21c-2.352 0-8.205 1.297-9.777 7.609l-.01.042a17.206 17.206 0 0 1-2.224-2.074 15.742 15.742 0 0 1-1.616-2.19l.014-.03A15.208 15.208 0 0 1 16 15.937Z" clip-rule="evenodd"/></svg>