<svg xmlns="http://www.w3.org/2000/svg" width="32" height="32" fill="none"><circle cx="16" cy="16" r="16" fill="#FF5C00"/><path fill="#fff" d="M19.252 4.207V3.46a.46.46 0 0 0-.48-.46 9.76 9.76 0 0 0-9.271 9.345.398.398 0 0 0 .418.4h.768a.447.447 0 0 0 .45-.418 8.134 8.134 0 0 1 7.7-7.696c.317-.04.419-.213.419-.424l-.004-.001ZM12.4 12.753h.729a.446.446 0 0 0 .446-.412 5.687 5.687 0 0 1 5.3-5.269.407.407 0 0 0 .377-.43V5.9a.461.461 0 0 0-.484-.45 7.32 7.32 0 0 0-6.823 6.818.46.46 0 0 0 .45.484l.005.001Zm6.852-4.405v.745a.437.437 0 0 1-.393.43 3.255 3.255 0 0 0-2.835 2.825.461.461 0 0 1-.45.404h-.643c-.35 0-.561-.228-.535-.49a4.882 4.882 0 0 1 4.367-4.365.45.45 0 0 1 .49.45Zm8.545 10.886c-.21 0-.384-.1-.424-.418a8.134 8.134 0 0 0-7.707-7.7.447.447 0 0 1-.418-.451v-.768a.398.398 0 0 1 .4-.418A9.76 9.76 0 0 1 29 18.746a.461.461 0 0 1-.452.48l-.75.009Zm-8.545-6.851a.46.46 0 0 1 .486-.45 7.32 7.32 0 0 1 6.822 6.816.46.46 0 0 1-.45.486h-.743a.407.407 0 0 1-.43-.383 5.687 5.687 0 0 0-5.271-5.294.446.446 0 0 1-.412-.445l-.002-.73Zm4.407 6.85h-.748a.437.437 0 0 1-.43-.393 3.255 3.255 0 0 0-2.827-2.834.461.461 0 0 1-.405-.449v-.725a.45.45 0 0 1 .49-.45 4.881 4.881 0 0 1 4.369 4.364.45.45 0 0 1-.45.489v-.002ZM4.199 12.75c.21 0 .383.101.423.418a8.134 8.134 0 0 0 7.712 7.701c.237.016.42.213.418.45v.769a.398.398 0 0 1-.4.418A9.76 9.76 0 0 1 3 13.239a.461.461 0 0 1 .452-.481l.746-.008Zm8.549 6.846a.46.46 0 0 1-.486.45 7.32 7.32 0 0 1-6.82-6.812.46.46 0 0 1 .45-.486h.743a.407.407 0 0 1 .43.383 5.687 5.687 0 0 0 5.269 5.295.446.446 0 0 1 .412.446l.002.724ZM8.337 12.75h.745a.436.436 0 0 1 .43.393 3.255 3.255 0 0 0 2.828 2.834c.228.028.4.22.405.449v.726a.45.45 0 0 1-.488.446 4.882 4.882 0 0 1-4.368-4.364.45.45 0 0 1 .448-.484Zm4.41 15.048c0-.21.1-.384.417-.424a8.134 8.134 0 0 0 7.707-7.702.447.447 0 0 1 .45-.418h.77a.398.398 0 0 1 .418.4A9.76 9.76 0 0 1 13.235 29a.461.461 0 0 1-.481-.452l-.008-.75Zm6.854-8.545a.462.462 0 0 1 .45.485 7.32 7.32 0 0 1-6.82 6.817.461.461 0 0 1-.486-.45v-.743a.407.407 0 0 1 .382-.43 5.687 5.687 0 0 0 5.298-5.266.446.446 0 0 1 .446-.412l.73-.001Zm-6.852 4.404v-.745a.437.437 0 0 1 .394-.43 3.255 3.255 0 0 0 2.835-2.825c.028-.227.22-.4.449-.404h.644c.35 0 .561.227.535.49a4.881 4.881 0 0 1-4.368 4.364.45.45 0 0 1-.489-.45Zm0 4.14c0-.21.102-.383.418-.423a8.134 8.134 0 0 0 7.707-7.702.447.447 0 0 1 .45-.418h.77a.398.398 0 0 1 .418.4A9.76 9.76 0 0 1 13.238 29a.461.461 0 0 1-.481-.452l-.008-.75Zm6.856-8.544a.462.462 0 0 1 .45.485 7.32 7.32 0 0 1-6.822 6.817.462.462 0 0 1-.485-.45v-.743a.407.407 0 0 1 .382-.43 5.687 5.687 0 0 0 5.298-5.266.446.446 0 0 1 .446-.412l.73-.001Zm-6.856 4.404v-.745a.437.437 0 0 1 .394-.43 3.255 3.255 0 0 0 2.835-2.825c.028-.227.22-.4.449-.404h.644c.35 0 .561.227.535.49a4.881 4.881 0 0 1-4.368 4.364.45.45 0 0 1-.489-.45Z"/></svg>