<svg fill="none" height="32" viewBox="0 0 32 32" width="32" xmlns="http://www.w3.org/2000/svg"><circle cx="16" cy="16" fill="#ff5c00" r="16"/><path d="m19.2524 4.2066v-.74525c.0001-.12552-.051-.24566-.1416-.33266-.0905-.087-.2126-.13334-.3381-.12832-5.044.24932-9.06512 4.30234-9.2721 9.34553-.00056.1094.04394.2142.12305.2898.0791.0755.18584.1152.29513.1098h.76872c.2373.0021.435-.1813.4504-.418.2178-4.15648 3.5407-7.47759 7.6994-7.69527.3167-.03995.4182-.21358.4182-.4241zm-6.8522 8.5465h.7287c.2336.0007.4281-.179.4458-.4118.202-2.83264 2.4643-5.08195 5.2995-5.26895.2227-.01561.3914-.20748.3782-.43025v-.74218c-.0028-.12448-.0558-.24255-.147-.32736-.0912-.0848-.2129-.12911-.3373-.12286-3.6626.24227-6.5798 3.1573-6.823 6.8179-.0063.1243.0381.2459.1229.3371.0849.0912.203.1442.3275.1469zm6.8522-4.40538v.74525c-.0021.22281-.1717.40829-.3936.43025-1.4807.18123-2.6488 1.34498-2.835 2.82428-.0282.2275-.2195.3997-.4489.4041h-.6442c-.3505 0-.5611-.2274-.535-.4902.2337-2.30701 2.0595-4.13111 4.3678-4.3639.126-.01078.2507.03184.3437.11747s.1457.20638.1452.33275zm8.5449 10.88678c-.2106 0-.3843-.1014-.4243-.418-.2151-4.1616-3.5431-7.4872-7.707-7.7014-.2368-.0154-.4204-.213-.4182-.4502v-.76829c-.0055-.10923.0342-.21591.1098-.29498.0756-.07906.1805-.12354.2899-.12298 5.0465.2061 9.1025 4.22535 9.3521 9.26725.0054.1241-.0396.2451-.1246.3356-.0851.0906-.2032.1429-.3274.1453zm-8.5449-6.8517c.0027-.1247.056-.2431.1475-.3279.0916-.0849.2136-.129.3383-.1223 3.6614.2429 6.5776 3.1569 6.8215 6.8163.0067.1247-.0375.2467-.1224.3382-.0848.0915-.2032.1447-.3281.1474h-.7425c-.2246.0131-.4173-.1582-.4305-.3826-.1885-2.832-2.4378-5.0912-5.2702-5.2936-.233-.0177-.4127-.2121-.4121-.4456zm4.4062 6.8502h-.7472c-.2229-.0021-.4085-.1717-.4305-.3934-.1814-1.4804-1.3465-2.6481-2.8272-2.8335-.2277-.0282-.4-.2194-.4044-.4487v-.7252c-.0005-.1267.0524-.2477.1458-.3334.0933-.0857.2184-.1281.3446-.1169 2.3084.2328 4.1341 2.0569 4.3678 4.364.0108.1259-.0318.2505-.1175.3435-.0857.0929-.2065.1456-.3329.1451zm-19.46052-6.4829c.21062 0 .38435.1014.42432.4179.21531 4.1634 3.54594 7.4896 7.7116 7.7014.2368.0155.4204.2131.4182.4503v.7683c.0055.1092-.0342.2159-.1098.2949-.0756.0791-.1805.1236-.2899.123-5.04651-.2061-9.10254-4.2253-9.35206-9.2672-.00541-.1241.03952-.2451.12461-.3357.08508-.0905.20313-.1429.32739-.1453zm8.54952 6.8455c-.0027.1248-.056.2431-.1475.3279-.0916.0849-.2136.129-.3383.1223-3.6592-.2434-6.57397-3.1546-6.81996-6.8117-.00669-.1246.03746-.2466.12235-.3381.0849-.0915.20328-.1447.32811-.1475h.74257c.22457-.0131.41728.1582.43048.3826.18765 2.8321 2.43627 5.0919 5.26865 5.2952.233.0177.4127.2121.4121.4456zm-4.41081-6.8455h.74564c.22293.002.4085.1716.43047.3933.18148 1.4805 1.3466 2.6481 2.8273 2.8335.2277.0283.4.2194.4043.4487v.7268c-.0008.1253-.0539.2445-.1464.3291-.0924.0846-.216.1268-.3409.1165-2.30836-.2328-4.13407-2.0569-4.3678-4.3639-.00939-.1246.03346-.2475.11831-.3393.08484-.0918.20404-.1442.32908-.1447zm4.40931 15.0478c0-.2105.1014-.3841.4181-.4241 4.164-.2141 7.492-3.5397 7.7071-7.7014.0155-.2366.2131-.4201.4504-.4179h.7687c.1093-.0055.2161.0342.2952.1098.0791.0755.1236.1803.123.2897-.207 5.0438-4.229 9.097-9.2736 9.3456-.1242.0054-.2453-.0395-.3359-.1246-.0906-.085-.143-.203-.1453-.3272zm6.8553-8.545c.1248.0028.2432.056.3281.1475s.129.2135.1223.3381c-.2438 3.6594-3.16 6.5734-6.8214 6.8163-.1247.0067-.2468-.0374-.3383-.1222-.0916-.0849-.1448-.2032-.1476-.328v-.7422c-.0131-.2244.1583-.417.3829-.4302 2.8335-.1876 5.0945-2.435 5.2979-5.2659.0177-.2328.2122-.4125.4458-.4118zm-6.8523 4.4039v-.7452c.0021-.2228.1718-.4083.3936-.4303 1.4807-.1812 2.6489-1.3449 2.835-2.8242.0283-.2276.2196-.3998.4489-.4042h.6442c.3505 0 .5612.2275.535.4902-.2337 2.307-2.0594 4.1312-4.3678 4.3639-.1259.0108-.2506-.0318-.3436-.1174-.093-.0857-.1457-.2064-.1453-.3328zm0 4.1411c0-.2105.1015-.3841.4182-.4241 4.1639-.2141 7.492-3.5397 7.7071-7.7014.0154-.2366.2131-.4201.4504-.4179h.7687c.1093-.0055.2161.0342.2952.1098.0791.0755.1236.1803.123.2897-.207 5.0438-4.2291 9.097-9.2737 9.3456-.1241.0054-.2452-.0395-.3358-.1246-.0906-.085-.143-.203-.1454-.3272zm6.8554-8.545c.1248.0028.2432.056.3281.1475s.129.2135.1223.3381c-.2439 3.6594-3.16 6.5734-6.8215 6.8163-.1246.0067-.2467-.0374-.3383-.1222-.0915-.0849-.1448-.2032-.1475-.328v-.7422c-.0131-.2244.1583-.417.3828-.4302 2.8335-.1876 5.0946-2.435 5.2979-5.2659.0178-.2328.2123-.4125.4459-.4118zm-6.8554 4.4039v-.7452c.0021-.2228.1718-.4083.3936-.4303 1.4807-.1812 2.6489-1.3449 2.835-2.8242.0283-.2276.2196-.3998.4489-.4042h.6442c.3505 0 .5612.2275.535.4902-.2337 2.307-2.0594 4.1312-4.3678 4.3639-.1259.0108-.2506-.0318-.3436-.1174-.093-.0857-.1457-.2064-.1453-.3328z" fill="#fff"/></svg>