<svg fill="none" height="32" viewBox="0 0 32 32" width="32" xmlns="http://www.w3.org/2000/svg" xmlns:xlink="http://www.w3.org/1999/xlink"><linearGradient id="a" gradientUnits="userSpaceOnUse" x1="6.70125" x2="15.3285" y1="21.4568" y2="12.8295"><stop offset=".2" stop-color="#2576f4"/><stop offset="1" stop-color="#3298da"/></linearGradient><linearGradient id="b" gradientUnits="userSpaceOnUse" x1="15.44" x2="26.0286" y1="19.0531" y2="12.9397"><stop offset="0" stop-color="#36bdba"/><stop offset=".93" stop-color="#39d8aa"/></linearGradient><path d="m32 16c0 8.8366-7.1634 16-16 16-8.83656 0-16-7.1634-16-16 0-8.83656 7.16344-16 16-16 8.8366 0 16 7.16344 16 16z" fill="#fff"/><path d="m10.1601 12.1601-4.1601-4.1601h4.4971l6.6667 6.6667h-4.4971c-.8952 0-1.7273.3475-2.3592.9794-.63189.6319-.97943 1.464-.97943 2.3592s.34754 1.7272.97943 2.3591c.6319.6319 1.464.9794 2.3592.9794h1.664l3.3281 3.3281h-4.9921c-3.67566 0-6.6667-2.9805-6.6667-6.6666 0-2.7173 1.32701-4.8973 4.1601-5.8452z" fill="url(#a)"/><path d="m21.8293 20.4908 4.1601 4.1601h-4.4971l-6.6667-6.6667h4.4971c.8952 0 1.7273-.3475 2.3592-.9795.6319-.6319.9794-1.4639.9794-2.3591s-.3475-1.7272-.9794-2.3591-1.464-.9795-2.3592-.9795h-1.664l-3.3281-3.307h5.0027c3.6756 0 6.6666 2.9805 6.6666 6.6667-.0105 2.6961-1.3375 4.8762-4.1706 5.8241z" fill="url(#b)"/></svg>