<svg xmlns="http://www.w3.org/2000/svg" width="32" height="32" fill="none"><defs><linearGradient id="dcr__a" x1="6.701" x2="15.329" y1="21.457" y2="12.829" gradientUnits="userSpaceOnUse"><stop offset=".2" stop-color="#2576F4"/><stop offset="1" stop-color="#3298DA"/></linearGradient><linearGradient id="dcr__b" x1="15.44" x2="26.029" y1="19.053" y2="12.94" gradientUnits="userSpaceOnUse"><stop stop-color="#36BDBA"/><stop offset=".93" stop-color="#39D8AA"/></linearGradient></defs><path fill="#fff" d="M32 16c0 8.837-7.163 16-16 16S0 24.837 0 16 7.163 0 16 0s16 7.163 16 16Z"/><path fill="url(#dcr__a)" d="M10.16 12.16 6 8h4.497l6.667 6.667h-4.497c-.896 0-1.728.347-2.36.98a3.306 3.306 0 0 0-.979 2.358c0 .896.348 1.728.98 2.36a3.306 3.306 0 0 0 2.359.979h1.664l3.328 3.328h-4.992A6.668 6.668 0 0 1 6 18.005c0-2.717 1.327-4.897 4.16-5.845Z"/><path fill="url(#dcr__b)" d="m21.83 20.49 4.16 4.16h-4.498l-6.666-6.666h4.497c.895 0 1.727-.347 2.359-.98.632-.631.98-1.463.98-2.358 0-.896-.348-1.728-.98-2.36a3.306 3.306 0 0 0-2.36-.979H17.66L14.33 8h5.002A6.668 6.668 0 0 1 26 14.667c-.01 2.696-1.338 4.876-4.17 5.824Z"/></svg>