<svg fill="none" height="32" viewBox="0 0 32 32" width="32" xmlns="http://www.w3.org/2000/svg" xmlns:xlink="http://www.w3.org/1999/xlink"><linearGradient id="a" gradientUnits="userSpaceOnUse" x1="2.98175" x2="15.0599" y1="23.2394" y2="11.1612"><stop offset=".2" stop-color="#2576f4"/><stop offset="1" stop-color="#3298da"/></linearGradient><linearGradient id="b" gradientUnits="userSpaceOnUse" x1="15.2161" x2="30.0401" y1="19.8743" y2="11.3156"><stop offset="0" stop-color="#36bdba"/><stop offset=".93" stop-color="#39d8aa"/></linearGradient><path d="m7.82411 10.2241-5.82411-5.82411h6.29596l9.33334 9.33331h-6.296c-1.2532 0-2.41809.4866-3.30276 1.3713-.88468.8847-1.37124 2.0495-1.37124 3.3028 0 1.2532.48656 2.4181 1.37124 3.3027.88467.8847 2.04956 1.3713 3.30276 1.3713h2.3297l4.6593 4.6593h-6.989c-5.14584 0-9.3333-4.1727-9.3333-9.3333 0-3.8041 1.85781-6.8563 5.82411-8.1833z" fill="url(#a)"/><path d="m24.1611 21.8871 5.8241 5.8241h-6.2959l-9.3333-9.3333h6.2959c1.2533 0 2.4181-.4866 3.3028-1.3713.8847-.8846 1.3712-2.0495 1.3712-3.3028s-.4865-2.4181-1.3712-3.3028c-.8847-.88463-2.0495-1.3712-3.3028-1.3712h-2.3296l-4.6593-4.62981h7.0037c5.1458 0 9.3333 4.17273 9.3333 9.33331-.0148 3.7746-1.8726 6.8268-5.8389 8.1538z" fill="url(#b)"/></svg>