<svg fill="none" height="32" viewBox="0 0 32 32" width="32" xmlns="http://www.w3.org/2000/svg"><circle cx="16" cy="16" fill="#db1838" r="16"/><path d="m18.8331 6.83308v3.11816c-.393.46656-.8421.88376-1.3372 1.24176v-4.35992c0-.82608-.6698-1.49591-1.4963-1.49591-.8264 0-1.4966.66947-1.4966 1.49591v9.40892c-.8029-.5-1.3372-1.3909-1.3372-2.406v-7.00292c0-1.5646 1.2685-2.83308 2.8335-2.83308 1.5649 0 2.8338 1.26848 2.8338 2.83308zm6.5239 7.03682-2.7011 1.5592c-.6004-.1068-1.1866-.2872-1.7443-.5371l3.7766-2.1799c.7158-.4133.961-1.3279.5478-2.0437-.4133-.71538-1.3283-.96061-2.044-.5477l-8.1501 4.7048c.0316-.9453.536-1.8533 1.4158-2.3608l6.0658-3.50148c1.3554-.7823 3.0883-.31818 3.8706 1.03678.7823 1.355.3182 3.0876-1.0371 3.8699zm-2.8335 9.1672-2.701-1.5592c-.2078-.5734-.3445-1.171-.4068-1.7785l3.7766 2.1799c.7157.4133 1.6308.168 2.044-.5477.4132-.7154.168-1.6304-.5477-2.0437l-8.1501-4.7041c.8346-.4452 1.8732-.4623 2.753.0452l6.0658 3.5015c1.3554.7823 1.8198 2.5149 1.0372 3.8699-.7827 1.3549-2.5156 1.819-3.871 1.0367zm-9.3577 2.1302v-3.1182c.393-.4666.8421-.8837 1.3372-1.2418v4.36c0 .8261.6698 1.4959 1.4963 1.4959.8264 0 1.4962-.6698 1.4962-1.4959v-9.409c.803.5001 1.3372 1.3909 1.3372 2.406v7.0026c0 1.5646-1.2685 2.8331-2.8334 2.8331-1.565 0-2.8335-1.2681-2.8335-2.8327zm-6.52386-7.0372 2.70103-1.5592c.60043.1068 1.18663.2872 1.74433.5371l-3.7766 2.1799c-.71574.4133-.96096 1.328-.54775 2.0437.41322.7154 1.32827.9606 2.04402.5477l8.15003-4.7044c-.0316.9453-.536 1.8532-1.4158 2.3608l-6.06583 3.5014c-1.35532.7823-3.08826.3182-3.87056-1.0367-.7823-1.355-.31819-3.088 1.03713-3.8703zm2.83343-9.16688 2.70103 1.55928c.2079.5734.3445 1.1709.4068 1.7785l-3.77659-2.18c-.71574-.41321-1.6308-.16798-2.04401.5478-.41322.7157-.16799 1.6304.54775 2.0436l8.15045 4.7041c-.8346.4453-1.8732.4624-2.753-.0452l-6.06586-3.5014c-1.35532-.7823-1.81979-2.5149-1.03713-3.8699.78265-1.35496 2.5156-1.81908 3.87056-1.03678z" fill="#fff"/></svg>