<svg xmlns="http://www.w3.org/2000/svg" width="32" height="32" fill="none"><circle cx="16" cy="16" r="16" fill="#DB1838"/><path fill="#fff" d="M18.833 6.833v3.118a7.476 7.476 0 0 1-1.337 1.242v-4.36a1.496 1.496 0 0 0-2.993 0v9.409a2.83 2.83 0 0 1-1.337-2.406V6.833a2.833 2.833 0 0 1 5.667 0Zm6.524 7.037-2.701 1.56a7.464 7.464 0 0 1-1.744-.538l3.776-2.18a1.496 1.496 0 1 0-1.496-2.591l-8.15 4.704a2.83 2.83 0 0 1 1.416-2.36l6.066-3.502a2.834 2.834 0 0 1 2.833 4.907Zm-2.834 9.167-2.7-1.56a7.452 7.452 0 0 1-.407-1.778l3.776 2.18a1.496 1.496 0 1 0 1.497-2.591l-8.15-4.704a2.833 2.833 0 0 1 2.752.045l6.066 3.502a2.832 2.832 0 1 1-2.834 4.906Zm-9.357 2.13V22.05a7.479 7.479 0 0 1 1.337-1.242v4.36a1.496 1.496 0 0 0 2.992 0v-9.409a2.83 2.83 0 0 1 1.338 2.406v7.003a2.833 2.833 0 0 1-5.667 0ZM6.642 18.13l2.701-1.56c.6.108 1.187.288 1.744.538l-3.776 2.18a1.496 1.496 0 1 0 1.496 2.591l8.15-4.704a2.83 2.83 0 0 1-1.416 2.36l-6.066 3.502a2.834 2.834 0 0 1-2.833-4.907Zm2.833-9.167 2.701 1.56c.208.573.345 1.17.407 1.778l-3.776-2.18a1.496 1.496 0 0 0-1.497 2.591l8.15 4.704a2.832 2.832 0 0 1-2.752-.045L6.642 13.87a2.832 2.832 0 1 1 2.833-4.907Z"/></svg>