<svg fill="none" height="44" viewBox="0 0 44 44" width="44" xmlns="http://www.w3.org/2000/svg" xmlns:xlink="http://www.w3.org/1999/xlink"><filter id="a" color-interpolation-filters="sRGB" filterUnits="userSpaceOnUse" height="44" width="44" x="0" y="0"><feFlood flood-opacity="0" result="BackgroundImageFix"/><feColorMatrix in="SourceAlpha" type="matrix" values="0 0 0 0 0 0 0 0 0 0 0 0 0 0 0 0 0 0 127 0"/><feOffset dy="3"/><feGaussianBlur stdDeviation="3"/><feColorMatrix type="matrix" values="0 0 0 0 0 0 0 0 0 0 0 0 0 0 0 0 0 0 0.161 0"/><feBlend in2="BackgroundImageFix" mode="normal" result="effect1_dropShadow"/><feBlend in="SourceGraphic" in2="effect1_dropShadow" mode="normal" result="shape"/></filter><filter id="b" color-interpolation-filters="sRGB" filterUnits="userSpaceOnUse" height="29.9136" width="29.5003" x="7.30078" y="7.3457"><feFlood flood-opacity="0" result="BackgroundImageFix"/><feColorMatrix in="SourceAlpha" type="matrix" values="0 0 0 0 0 0 0 0 0 0 0 0 0 0 0 0 0 0 127 0"/><feOffset dy="3"/><feGaussianBlur stdDeviation="3"/><feColorMatrix type="matrix" values="0 0 0 0 0 0 0 0 0 0 0 0 0 0 0 0 0 0 0.102 0"/><feBlend in2="BackgroundImageFix" mode="normal" result="effect1_dropShadow"/><feBlend in="SourceGraphic" in2="effect1_dropShadow" mode="normal" result="shape"/></filter><filter id="c" color-interpolation-filters="sRGB" filterUnits="userSpaceOnUse" height="28.7714" width="26.537" x="10.2637" y="7.34473"><feFlood flood-opacity="0" result="BackgroundImageFix"/><feColorMatrix in="SourceAlpha" type="matrix" values="0 0 0 0 0 0 0 0 0 0 0 0 0 0 0 0 0 0 127 0"/><feOffset dy="3"/><feGaussianBlur stdDeviation="3"/><feColorMatrix type="matrix" values="0 0 0 0 0 0 0 0 0 0 0 0 0 0 0 0 0 0 0.161 0"/><feBlend in2="BackgroundImageFix" mode="normal" result="effect1_dropShadow"/><feBlend in="SourceGraphic" in2="effect1_dropShadow" mode="normal" result="shape"/></filter><radialGradient id="d" cx="0" cy="0" gradientTransform="matrix(4.266945 7.39056553 -7.55245166 4.36041 21.9918 19.001)" gradientUnits="userSpaceOnUse" r="1"><stop offset="0" stop-color="#979797"/><stop offset="1" stop-color="#ccdaff"/></radialGradient><g filter="url(#a)"><path d="m22 35c8.8366 0 16-7.1634 16-16s-7.1634-16-16-16-16 7.1634-16 16 7.1634 16 16 16z" fill="#32706b"/></g><g filter="url(#b)"><path d="m18.443 16.3451c-1.5052 1.5296-1.625 3.3904-.3596 5.5822.3135.6305.7752 1.1755 1.3456 1.5883.5704.4129 1.2324.6812 1.9292.782l.0012 3.9614c-1.399-.1111-2.746-.5801-3.9116-1.3619-1.1655-.7818-2.1104-1.8503-2.7439-3.1026-.6512-1.0158-1.0883-2.1537-1.2847-3.3442s-.1479-2.4085.1425-3.5796c.2992-1.1147.8234-2.1564 1.5404-3.0608s1.6116-1.6525 2.6287-2.1981c.9777-.602 2.0669-1.0003 3.2022-1.1713 1.1354-.1709 2.2936-.1109 3.4052.1764 1.1234.2936 2.1738.8169 3.0847 1.537.9109.72 1.6626 1.6211 2.2077 2.6464.5877.9532.9652 2.0209 1.1071 3.1317.142 1.1108.0452 2.2391-.2839 3.3095-.6636 2.2012-2.1709 4.0507-4.1928 5.145-.5088.2898-1.0422.5342-1.5938.7304zm2.8248-1.7082 4.2058 7.2847c.7791-.6399 1.287-1.5513 1.4213-2.5505.0984-.9248-.1055-1.8566-.581-2.6559-.474-.9014-1.2411-1.6143-2.1747-2.0212-.9204-.3577-1.9376-.3779-2.8714-.0571z" fill="url(#d)"/></g><g filter="url(#c)"><path d="m18.4427 16.3444-2.1789-3.7186c.4575-.3814.9484-.721 1.4666-1.0146.9777-.602 2.0669-1.0004 3.2023-1.1713s2.2935-.1109 3.4052.1764c1.1234.2936 2.1737.8169 3.0846 1.537.911.72 1.6627 1.6211 2.2077 2.6464.5877.9532.9652 2.0209 1.1072 3.1317.1419 1.1108.0451 2.2391-.2839 3.3095-.6637 2.2012-2.1709 4.0507-4.1929 5.145-.5088.2898-1.0421.5342-1.5938.7303zm2.8247-1.7081 4.2058 7.2847c.7792-.64 1.287-1.5513 1.4213-2.5505.0984-.9249-.1055-1.8566-.581-2.6559-.474-.9014-1.2411-1.6144-2.1747-2.0212-.9203-.3577-1.9376-.3779-2.8714-.0571z" fill="#7fffd4"/></g></svg>