<svg xmlns="http://www.w3.org/2000/svg" width="32" height="32" fill="none"><defs><radialGradient id="dexe__a" cx="0" cy="0" r="1" gradientTransform="rotate(60 -5.861 21.85) scale(8.53389 8.72082)" gradientUnits="userSpaceOnUse"><stop stop-color="#979797"/><stop offset="1" stop-color="#CCDAFF"/></radialGradient></defs><path fill="#32706B" d="M16 32c8.837 0 16-7.163 16-16S24.837 0 16 0 0 7.163 0 16s7.163 16 16 16Z"/><path fill="url(#dexe__a)" d="M12.443 13.345c-1.505 1.53-1.625 3.39-.36 5.582a4.353 4.353 0 0 0 3.275 2.37l.001 3.962a8.186 8.186 0 0 1-6.655-4.465 8.872 8.872 0 0 1-1.142-6.923 8.455 8.455 0 0 1 4.169-5.26 8.53 8.53 0 0 1 6.607-.994 8.398 8.398 0 0 1 5.293 4.183 7.867 7.867 0 0 1 .823 6.441 8.709 8.709 0 0 1-4.193 5.146 9.974 9.974 0 0 1-1.594.73l-6.224-10.772Zm2.825-1.708 4.206 7.285a3.988 3.988 0 0 0 1.42-2.55 4.304 4.304 0 0 0-.58-2.657 4.479 4.479 0 0 0-2.175-2.021 4.179 4.179 0 0 0-2.871-.057Z"/><path fill="#7FFFD4" d="m12.443 13.344-2.18-3.718A9.952 9.952 0 0 1 11.73 8.61a8.529 8.529 0 0 1 6.608-.995A8.398 8.398 0 0 1 23.63 11.8a7.868 7.868 0 0 1 .823 6.44 8.709 8.709 0 0 1-4.192 5.146 9.96 9.96 0 0 1-1.594.73l-6.224-10.772Zm2.824-1.708 4.206 7.285a3.988 3.988 0 0 0 1.422-2.55 4.304 4.304 0 0 0-.581-2.656 4.478 4.478 0 0 0-2.175-2.022 4.179 4.179 0 0 0-2.872-.057Z"/></svg>