<svg xmlns="http://www.w3.org/2000/svg" width="32" height="32" fill="none"><path fill="#fff" d="M16 32c8.837 0 16-7.163 16-16S24.837 0 16 0 0 7.163 0 16s7.163 16 16 16Z"/><path fill="#FA9B00" fill-rule="evenodd" d="M9.15 20.812v-9.12h6.13c2.319 0 4.205 1.894 4.205 4.222 0 2.329-1.886 4.223-4.204 4.223h-.737v-1.793h.737c1.328 0 2.408-1.09 2.408-2.43s-1.08-2.43-2.408-2.43h-4.335v7.328H9.15Z" clip-rule="evenodd"/><path fill="#242A47" fill-rule="evenodd" d="M11.903 23.11v-8.542H13.7v6.75h2.1c2.908 0 5.274-2.384 5.274-5.312 0-2.93-2.366-5.312-5.274-5.312h-4.28V8.9h4.28c3.898 0 7.07 3.188 7.07 7.106 0 3.917-3.172 7.105-7.07 7.105h-3.896Z" clip-rule="evenodd"/></svg>