<svg xmlns="http://www.w3.org/2000/svg" width="32" height="32" fill="none"><path fill="#06C" d="M16 0C7.161 0 0 7.164 0 16c0 8.835 7.164 16 16 16 8.835 0 16-7.165 16-16 0-8.836-7.161-16-16-16Z"/><path fill="#002352" d="M16 29c7.179 0 12.999-5.82 12.999-13 0-7.179-5.82-12.999-13-12.999C8.82 3.001 3 8.821 3 16.001 3 23.18 8.82 29 16 29Z"/><path fill="#fff" d="m20 9.475.46-1.203a.185.185 0 0 0-.172-.252h-1.714l-.541 1.409h-.76l.443-1.157a.185.185 0 0 0-.173-.252H15.83l-.541 1.409H9.927a.682.682 0 0 0-.591.345L8 12.13h10.018c.332 0 .661.062.969.188.59.243 1.29.794 1.114 2.034-.293 2.077-2.41 5.758-7.005 5.817l2.376-6.186a.386.386 0 0 0-.363-.527h-3.185l-3.847 9.455s.775.095 1.991.095L9.686 24h1.752a.344.344 0 0 0 .317-.215l.329-.856c.258-.021.52-.05.79-.08L12.432 24h1.75a.344.344 0 0 0 .318-.215l.498-1.302c2.878-.656 5.97-2.084 7.808-5.097 3.708-6.075-.145-7.644-2.807-7.912Z"/></svg>