<svg fill="none" height="32" viewBox="0 0 32 32" width="32" xmlns="http://www.w3.org/2000/svg"><path d="m16 0c-8.83862 0-16 7.16446-16 16 0 8.8355 7.16446 16 16 16 8.8355 0 16-7.1645 16-16 0-8.83554-7.1614-16-16-16z" fill="#06c"/><path d="m15.9994 28.9998c7.1794 0 12.9994-5.82 12.9994-12.9994 0-7.17938-5.82-12.99942-12.9994-12.99942-7.17936 0-12.9994 5.82004-12.9994 12.99942 0 7.1794 5.82004 12.9994 12.9994 12.9994z" fill="#002352"/><path d="m19.9992 9.4752.4617-1.20331c.0461-.1231-.0431-.25236-.1724-.25236h-1.7142l-.5416 1.40951h-.7601l.4431-1.15715c.0462-.1231-.0431-.25236-.1723-.25236h-1.7142l-.5416 1.40951h-5.36108c-.24312 0-.47086.13233-.59088.34468l-1.33564 2.35738h1.86805 8.14925c.3324 0 .6617.0616.9694.1877.5909.2432 1.2895.794 1.1141 2.0343-.2924 2.0773-2.4097 5.758-7.0044 5.8165l2.3758-6.1858c.0985-.2555-.0892-.5263-.3631-.5263h-3.1853l-3.84686 9.4542s.77553.0954 1.99116.0954l-.38162.994h1.75112c.1385 0 .2647-.0861.317-.2154l.3293-.8555c.2585-.0216.5201-.0493.7909-.0801l-.4432 1.151h1.7511c.1385 0 .2647-.0861.317-.2154l.4986-1.3018c2.8774-.6555 5.9703-2.0835 7.8076-5.0964 3.7084-6.075-.1446-7.64455-2.8067-7.9123z" fill="#fff"/></svg>