<svg xmlns="http://www.w3.org/2000/svg" width="72" height="72" fill="none"><circle cx="36" cy="36" r="36" fill="#3619A4"/><path fill="#fff" d="M31.14 56.9a.871.871 0 0 1-.32-.06l-7.24-3.14a.81.81 0 0 1-.49-.75V19.83a.82.82 0 0 1 .37-.68l5.87-3.87a.81.81 0 0 1 .45-.13c8.73 0 16.89 3.56 20.31 8.86 3.81 5.9 3.12 13.47 3.09 13.79a19.165 19.165 0 0 1-.46 4.34c-1.39 5.62-5.58 10-12.1 12.54a34.258 34.258 0 0 1-9.43 2.22h-.05Zm-3.71-3.32 3.85 1.67a33.157 33.157 0 0 0 8.75-2.09c4.19-1.67 9.51-5 11.11-11.41.3-1.43.435-2.889.4-4.35-.43-9.8-8.66-12.69-15.66-13.3v2.73c3.08.83 9.5 2.71 10.5 9.32a15.15 15.15 0 0 1-2.6 9.94c-2.81 3.84-9.23 6.76-16.35 7.49Zm-2.67-.46.11.05v-.07l-.11.02Zm0-32.85V52.1c7.6-.19 14.85-3 17.76-7 .17-.24.34-.49.49-.75a15.19 15.19 0 0 1-5.92 2.7 21.425 21.425 0 0 1-7.37.44.82.82 0 0 1-.72-.81v-29.2l-4.24 2.79Zm5.88 25.65c1.22.091 2.445.068 3.66-.07V23.17a.83.83 0 0 1 .26-.6.87.87 0 0 1 .61-.22c7.43.52 12.74 3 15.6 7.13a16.732 16.732 0 0 0-2-4.58c-3-4.67-10.25-7.89-18.12-8.1l-.01 29.12Zm5.3-17.44v17.13a13.46 13.46 0 0 0 6.71-3.12 7 7 0 0 0 2.22-5.83 1.896 1.896 0 0 0 0-.28c-.89-5.36-6.16-7.13-8.99-7.9h.06ZM44.8 41.4h.13l.15-.57c-.089.2-.196.39-.32.57h.04Zm7.18-7.85c.11.35.19.71.27 1.09a5.528 5.528 0 0 0-.08-1.13h-.09l-.1.04Z"/></svg>