<svg fill="none" height="72" viewBox="0 0 72 72" width="72" xmlns="http://www.w3.org/2000/svg"><circle cx="36" cy="36" fill="#3619a4" r="36"/><path d="m31.1399 56.9005c-.1095.0003-.2181-.0201-.32-.06l-7.24-3.1401c-.1464-.0629-.271-.1676-.3581-.301-.0872-.1335-.1331-.2896-.1319-.449v-33.12c.0009-.135.0351-.2677.0997-.3864.0645-.1186.1574-.2194.2703-.2936l5.87-3.8699c.1339-.0867.2904-.132.45-.1301 8.73 0 16.89 3.56 20.31 8.86 3.81 5.9 3.12 13.4701 3.09 13.7901.0124 1.4594-.1419 2.9155-.46 4.3399-1.39 5.62-5.58 10.0001-12.1 12.5401-3.0223 1.183-6.1974 1.9304-9.43 2.22zm-3.71-3.3201 3.85 1.6701c2.998-.2963 5.9417-.9995 8.75-2.09 4.19-1.67 9.51-5 11.11-11.41.301-1.4297.4352-2.8895.4-4.3501-.43-9.8-8.66-12.6899-15.66-13.2999v2.7299c3.08.83 9.5 2.71 10.5 9.32.3176 3.5151-.602 7.0307-2.6 9.9401-2.81 3.84-9.23 6.7599-16.35 7.4899zm-2.67-.4599.11.05v-.07zm0-32.8501v31.8301c7.6-.19 14.85-3 17.76-7 .17-.24.34-.49.49-.75-1.7552 1.317-3.7748 2.2382-5.92 2.7-2.4127.5719-4.9064.7208-7.37.44-.198-.0243-.3804-.12-.5129-.2691s-.2062-.3414-.2071-.5409v-29.2zm5.88 25.6501c1.2195.091 2.4448.0675 3.66-.07v-22.68c.0004-.1124.0237-.2236.0684-.3268.0447-.1031.1099-.1961.1916-.2733.1674-.1492.3859-.228.61-.2199 7.43.52 12.74 3 15.6 7.13-.4336-1.6182-1.1078-3.1621-2-4.5801-3-4.67-10.25-7.8899-18.12-8.0999zm5.3-17.44v17.13c2.4842-.3927 4.8087-1.4735 6.71-3.12.7956-.734 1.4101-1.6425 1.7953-2.6541s.5306-2.0987.4247-3.1759c.0069-.0932.0069-.1868 0-.28-.89-5.36-6.16-7.13-8.99-7.9zm8.86 12.9199h.13l.15-.57c-.0887.1996-.1958.3904-.32.57zm7.18-7.8499c.11.35.19.7099.27 1.0899.0121-.3784-.0147-.757-.08-1.13h-.09z" fill="#fff"/></svg>