<svg fill="none" height="32" viewBox="0 0 32 32" width="32" xmlns="http://www.w3.org/2000/svg"><circle cx="16" cy="16" fill="#1a325f" r="16"/><path d="m26.2696 23.9611-8.7857-19.98359c-.0297-.08935-.1191-.1787-.2084-.23826-.0894-.02978-.1787-.05956-.2681-.05956h-2.2038c-.0894 0-.1787 0-.2383.05956-.0595.05956-.1191.11913-.1489.17869 0 0-8.54734 19.35816-8.69625 19.68576s-.14891.5658-.05957.685c.11913.1489.26804.1489.44673.1489h11.64469c.2382 0 .4169-.1787.4169-.3872 0-.0298 0-.0893-.0298-.1191-.1191-.4765-.268-.9233-.3871-1.3998-.0596-.1787-.2085-.268-.3574-.2978l-.5956-.0595-7.4157-.5063 6.284-14.38462s.0893-.20847.268-.20847.2382.23825.2382.23825 6.8201 15.39714 7.0583 16.02254c.0298.0894.0596.1787.0894.2383.2084.4765.3276.7743.4765.8637.1191.0298.2382.0595.3574.0297h.0297 1.638c.2383 0 .417-.1786.417-.3871.0298-.0298.0298-.0894.0298-.1191z" fill="#fff"/></svg>