<svg xmlns="http://www.w3.org/2000/svg" width="32" height="32" fill="none"><defs><clipPath id="dnt__a"><path fill="#fff" d="M0 0h32v32H0z"/></clipPath></defs><g clip-path="url(#dnt__a)"><path fill="#04FFCC" fill-rule="evenodd" d="M1.46 23.015c.087.244.18.488.279.733l.003.008c.11.28 1.942 4.968 12.288 8.119l.47.012V21.015h16.376c.122-.441.226-.886.314-1.33.235-1.243.269-5.441 0-6.684a9.889 9.889 0 0 0-1.142-2.989C28.94 8.166 26.522 5.48 23.5 3.363c0 0-2.284-1.477-3.358-1.981-.15-.069-.3-.136-.45-.2L6.5 8.798v14.217H1.46Z" clip-rule="evenodd"/><path fill="#7DF8FB" d="M18.966 1.953v7.489l-8.664-.538-3.56 4.5-.436 8.497 2.955 3.156 4.433 2.217 5.81.638 6.313-1.612V10.684l-1.21-6.481S21.217 1.55 19 .912"/><path fill="#2C398F" d="M29.108 20.524c-1.21-.068-.538-1.982-1.075-4.165-.638-2.417.302-4.097 1.545-4.03a3.67 3.67 0 0 1 1.612.672 9.891 9.891 0 0 0-1.142-2.989C28.94 8.165 26.522 5.48 23.5 3.363v20.25a2.045 2.045 0 0 1-3.896.873 7.97 7.97 0 1 1-.201-13.668V2.96a2.031 2.031 0 0 1 .738-1.605C16.212-.458 11.813-.801 8.051 2.524c-6.313 5.608-9.47 13.433-6.313 21.224.068.168.135.335.202.47a1.77 1.77 0 0 1 .37-.504c1.645-1.68 3.458 1.746 7.32 3.728 2.452 1.242 3.862 2.888 4.4 4.433 3.593.436 7.287-.135 10.242-1.848 3.862-2.216 6.112-6.246 6.918-10.343a3.426 3.426 0 0 1-2.082.84ZM15.944 4.606c.906-.034 1.746 1.04 1.78 1.545.033.503-.773.302-1.646.604-.974.336-1.68.034-1.713-.47-.033-.504.638-1.646 1.579-1.68Z"/><path fill="#2C398F" d="M13.962 20.658c1.948 1.108 4.299.672 4.735-1.813.235-1.444.101-3.694-1.175-4.4-4.231-2.418-7.791 3.795-3.56 6.213Z"/></g></svg>