<svg fill="none" height="32" viewBox="0 0 32 32" width="32" xmlns="http://www.w3.org/2000/svg" xmlns:xlink="http://www.w3.org/1999/xlink"><clipPath id="a"><path d="m0 0h32v32h-32z"/></clipPath><g clip-path="url(#a)"><path clip-rule="evenodd" d="m1.46021 23.015c.08663.2442.17936.4884.2783.7326l.00337.0085c.10934.2797 1.9425 4.9684 12.28772 8.1184.159.0046.3158.0088.4704.0124v-10.8719h16.3759c.1219-.4413.2266-.8857.3141-1.3309.2351-1.2425.2687-5.4403 0-6.6828-.2158-1.0516-.6015-2.0611-1.1418-2.9888-1.1082-1.84699-3.5261-4.53356-6.5485-6.64923 0 0-2.2835-1.47761-3.3582-1.98134-.1493-.06893-.2994-.13577-.45-.20041l-13.1915 7.61609v14.21739z" fill="#04ffcc" fill-rule="evenodd"/><path d="m18.966 1.9529v7.48878l-8.6641-.53731-3.55967 4.49993-.43657 8.4963 2.95521 3.1567 4.43283 2.2164 5.8096.638 6.3134-1.6119v-15.6156l-1.2089-6.48131s-3.3918-2.65297-5.6082-3.291025" fill="#7df8fb"/><g fill="#2c398f"><path d="m29.1078 20.5237c-1.209-.0672-.5373-1.9813-1.0746-4.1642-.6381-2.4179.3022-4.097 1.5448-4.0298.5835.0909 1.1364.3213 1.6119.6716-.2159-1.0516-.6015-2.0611-1.1418-2.9888-1.1082-1.847-3.5261-4.53358-6.5485-6.64925v20.24995c.0011 1.1295-.9136 2.0461-2.0431 2.0473-.7928.0008-1.5147-.4568-1.8524-1.1741-3.7409 2.3186-8.6531 1.1655-10.97171-2.5754-2.31857-3.741-1.16553-8.6532 2.57541-10.9717 2.5-1.54948 5.6502-1.59593 8.1948-.1208v-7.85823c-.0113-.6121.2616-1.22181.7388-1.60524-3.9291-1.813425-8.3283-2.155952-12.08954 1.16868-6.31346 5.6082-9.47019 13.43279-6.31346 21.22389.06716.1679.13432.3358.2015.4701.09229-.1885.21737-.359.36939-.5037 1.64553-1.6791 3.45896 1.7463 7.32091 3.7276 2.4515 1.2425 3.8619 2.8881 4.3993 4.4329 3.5932.4365 7.2873-.1344 10.2425-1.8471 3.8619-2.2164 6.1119-6.2462 6.9179-10.3432-.58.5057-1.3135.8015-2.0821.8395zm-13.1642-15.91791c.9067-.03359 1.7463 1.04104 1.7799 1.54477.0336.50374-.7724.30224-1.6456.60448-.9738.33582-1.6791.03358-1.7126-.47015-.0336-.50374.638-1.64552 1.5783-1.6791z"/><path d="m13.9622 20.6581c1.9478 1.1082 4.2985.6716 4.7351-1.8135.2351-1.444.1008-3.694-1.1754-4.3993-4.2313-2.4179-7.7911 3.7948-3.5597 6.2128z"/></g></g></svg>