<svg xmlns="http://www.w3.org/2000/svg" width="32" height="32" fill="none"><rect width="32" height="32" fill="#160027" rx="16"/><path fill="#fff" d="M21.808 6.32c-.389 0-.7.13-.959.366-.26.26-.389.574-.389.991v9.367h-.026c0 .026 0 .052.026.078v.705c0 1.774-.052 2.922-1.581 4.383a4.873 4.873 0 0 1-.597.418c-.725.443-1.503.652-2.385.652-.881 0-1.685-.209-2.385-.652-.726-.444-1.27-1.044-1.685-1.8-.415-.757-.622-1.618-.622-2.558 0-.939.207-1.8.622-2.557a4.613 4.613 0 0 1 1.685-1.774 4.61 4.61 0 0 1 2.1-.652l-.933.94c-.493.495-.493 1.33 0 1.852.492.495 1.322.495 1.84 0l3.06-3.08c.492-.495.492-1.33 0-1.852l-3.085-3.079c-.493-.495-1.322-.495-1.841 0-.493.496-.493 1.331 0 1.853l.985.991h-.285c-1.27 0-2.411.314-3.448.966a6.7 6.7 0 0 0-2.437 2.661c-.622 1.096-.907 2.348-.907 3.731s.31 2.636.959 3.784c.648 1.122 1.504 2.009 2.644 2.661 1.115.652 2.36.965 3.707.965 1.349 0 2.593-.313 3.682-.965 1.115-.652 1.97-1.54 2.618-2.661.649-1.122.96-2.375.96-3.784V7.677c0-.417-.13-.73-.363-.991-.234-.235-.57-.366-.96-.366Z"/></svg>