<svg fill="none" height="32" viewBox="0 0 32 32" width="32" xmlns="http://www.w3.org/2000/svg"><rect fill="#160027" height="32" rx="16" width="32"/><path d="m21.8084 6.32031c-.3889 0-.7.13046-.9592.36529-.2593.26091-.389.57402-.389.99148v5.63582 2.0613 1.6698h-.0258c0 .0261 0 .0522.0258.0783v.7044c0 1.7743-.0518 2.9223-1.5814 4.3834-.1815.1566-.3888.287-.5963.4175-.7259.4436-1.5036.6523-2.3851.6523-.8814 0-1.6851-.2087-2.3851-.6523-.7259-.4436-1.2704-1.0437-1.6852-1.8003-.4148-.7567-.6222-1.6177-.6222-2.557s.2074-1.8003.6222-2.557.9852-1.3568 1.6852-1.7742c.6481-.3914 1.3481-.6001 2.1-.6523l-.9334.9393c-.4926.4957-.4926 1.3306 0 1.8525.4926.4958 1.3222.4958 1.8407 0l3.0592-3.0788c.4926-.4958.4926-1.3307 0-1.8525l-3.0851-3.07885c-.4926-.49574-1.3222-.49574-1.8407 0-.4926.49575-.4926 1.33068 0 1.85252l.9851.99143c-.1036 0-.1814 0-.2851 0-1.2704 0-2.4111.3132-3.4481.9654-1.037.6523-1.8407 1.5133-2.43697 2.6614-.6222 1.0958-.90738 2.3483-.90738 3.7311 0 1.3829.3111 2.6352.95923 3.7833.64812 1.1219 1.50372 2.0091 2.64442 2.6614 1.1148.6522 2.3592.9653 3.7073.9653s2.5925-.3131 3.6814-.9653c1.1148-.6523 1.9703-1.5395 2.6184-2.6614.6482-1.1219.9593-2.3743.9593-3.7833v-10.59322c0-.41746-.1296-.73057-.363-.99148-.2333-.23483-.5703-.36529-.9592-.36529z" fill="#fff"/></svg>