<svg fill="none" height="32" viewBox="0 0 32 32" width="32" xmlns="http://www.w3.org/2000/svg" xmlns:xlink="http://www.w3.org/1999/xlink"><linearGradient id="a" gradientUnits="userSpaceOnUse" x1="1.44585" x2="32" y1="-1.39928" y2="32"><stop offset="0" stop-color="#fffc2c"/><stop offset="1" stop-color="#efe806"/></linearGradient><path d="m16 32c8.8366 0 16-7.1634 16-16 0-8.83656-7.1634-16-16-16-8.83656 0-16 7.16344-16 16 0 8.8366 7.16344 16 16 16z" fill="url(#a)"/><path clip-rule="evenodd" d="m16.2777 5.12c.7265 0 1.3153 1.0733 1.3153 2.39706 0 .03202-.0005.06368-.0012.09534.39-.47742.8452-.71411 1.1925-.56304.3532.15369.5034.66953.4319 1.30467-.0174.30097-.0899.63146-.2212.96255-.076.19199-.1665.36951-.2662.52948 5.1768 1.18474 8.8481 5.57064 8.7905 13.19394h-3.1507c.0489-6.4617-3.5897-9.6521-8.3508-9.7524-5.1847-.1092-8.05458 3.4505-8.38683 9.7524h-3.15096c.40371-7.6551 3.61049-12.3194 9.24359-13.23628-.0901-.13483-.2562-.40745-.3302-.56612-.4415-.94547-.3788-1.91905.1402-2.17472.4149-.20432.9958.11278 1.4377.73167-.0057-.09107-.009-.18357-.009-.27749 0-1.32376.5889-2.39706 1.3154-2.39706zm-2.8772 11.8879c.3797 0 .6875.3526.6875.7872v1.9339c0 .4348-.3078.7873-.6875.7873s-.6876-.3525-.6876-.7873v-1.9339c0-.4346.3079-.7872.6876-.7872zm5.5004 0c.3797 0 .6876.3526.6876.7872v1.9339c0 .4348-.3079.7873-.6876.7873s-.6875-.3525-.6875-.7873v-1.9339c0-.4346.3078-.7872.6875-.7872z" fill="#000" fill-rule="evenodd"/></svg>