<svg xmlns="http://www.w3.org/2000/svg" width="32" height="32" fill="none"><defs><linearGradient id="dodo__a" x1="1.446" x2="32" y1="-1.399" y2="32" gradientUnits="userSpaceOnUse"><stop stop-color="#FFFC2C"/><stop offset="1" stop-color="#EFE806"/></linearGradient></defs><path fill="url(#dodo__a)" d="M16 32c8.837 0 16-7.163 16-16S24.837 0 16 0 0 7.163 0 16s7.163 16 16 16Z"/><path fill="#000" fill-rule="evenodd" d="M16.278 5.12c.726 0 1.315 1.073 1.315 2.397l-.001.095c.39-.477.845-.714 1.192-.563.354.154.504.67.432 1.305a3.297 3.297 0 0 1-.487 1.492c5.177 1.185 8.848 5.57 8.79 13.194h-3.15c.049-6.462-3.59-9.652-8.351-9.752-5.185-.11-8.055 3.45-8.387 9.752H4.48c.404-7.655 3.61-12.32 9.244-13.236a5.528 5.528 0 0 1-.33-.566c-.442-.946-.38-1.92.14-2.175.414-.204.995.113 1.437.732a4.439 4.439 0 0 1-.009-.278c0-1.324.59-2.397 1.316-2.397ZM13.4 17.008c.38 0 .687.352.687.787v1.934c0 .435-.308.787-.688.787-.38 0-.687-.352-.687-.787v-1.934c0-.435.308-.787.688-.787Zm5.5 0c.38 0 .688.352.688.787v1.934c0 .435-.308.787-.688.787-.38 0-.688-.352-.688-.787v-1.934c0-.435.308-.787.688-.787Z" clip-rule="evenodd"/></svg>