<svg xmlns="http://www.w3.org/2000/svg" width="32" height="32" fill="none"><path fill="#988430" d="M16 32c8.837 0 16-7.163 16-16S24.837 0 16 0 0 7.163 0 16s7.163 16 16 16Z"/><path fill="#7A6A2A" d="M16 31.487c8.553 0 15.488-6.934 15.488-15.487C31.488 7.446 24.553.512 16 .512 7.446.512.513 7.446.513 16c0 8.553 6.933 15.487 15.487 15.487Z"/><path fill="#BA9F33" d="M16 31.161c8.373 0 15.161-6.788 15.161-15.161S24.373.839 16 .839.839 7.627.839 16 7.627 31.161 16 31.161Z"/><path fill="#CFB66C" fill-rule="evenodd" d="M6.995 14.291c-.09-.083-.186-.166-.274-.248a25.656 25.656 0 0 0-.27-.249l-.268-.256c-.044-.044-.091-.083-.135-.127l-.14-.121c-.357-.34-.717-.679-1.07-1.018.366.334.723.666 1.088 1.005l.127.127c.044.043.09.082.135.126l.269.249c.09.082.179.165.27.256.09.09.178.173.269.256Zm-4.743-.051s1.3.134 1.934.225a358.9 358.9 0 0 1 2.426.365l-4.36-.59Zm0 0c.365.031.73.07 1.096.109.186.018.365.038.543.056l.275.032.269.038 1.087.174.544.09c.179.031.357.065.544.096a12.785 12.785 0 0 1-.544-.07l-.544-.077-1.087-.16c-.09-.014-.179-.032-.27-.045l-.274-.031c-.179-.018-.365-.044-.544-.065-.365-.044-.73-.09-1.095-.148Zm4.23.929s-1.387.352-1.855.487c-.461.126-1.857.551-1.857.551l3.713-1.038Z" clip-rule="evenodd"/><path fill="#CFB66C" fill-rule="evenodd" d="M6.483 15.169c-.308.09-.615.178-.927.261l-.927.249c-.308.09-.614.178-.922.27l-.46.126c-.153.044-.308.083-.466.127.152-.051.308-.104.46-.148l.461-.147c.308-.096.615-.187.922-.282.313-.078.621-.161.934-.236.298-.075.611-.15.925-.22ZM2.965 17.06a142.7 142.7 0 0 0 2.322-1.069c.205-.096.8-.307.8-.307L2.965 17.06Z" clip-rule="evenodd"/><path fill="#CFB66C" fill-rule="evenodd" d="M2.964 17.062c.135-.052.262-.114.391-.174l.383-.178.77-.37c.255-.122.504-.257.768-.37.135-.058.27-.104.404-.148l.205-.065c.07-.018.135-.039.205-.057-.256.122-.526.225-.782.344-.256.127-.518.23-.782.345l-.782.344c-.262.106-.518.22-.78.329Zm.171.716s1.595-.934 2.144-1.234a50.81 50.81 0 0 1 1.217-.622l-3.36 1.856Z" clip-rule="evenodd"/><path fill="#CFB66C" fill-rule="evenodd" d="M3.135 17.779c.27-.166.544-.334.818-.505l.41-.249c.14-.083.274-.16.417-.243.14-.083.274-.166.417-.243.067-.042.138-.079.212-.11l.217-.108c.288-.14.575-.282.878-.404-.274.174-.557.321-.839.474-.14.078-.282.148-.422.225-.14.078-.274.16-.417.236a9.6 9.6 0 0 1-.416.235l-.423.23-.851.462Zm3.348-1.652s-.992.761-1.313 1.004c-.32.244-1.266.927-1.266.927l2.579-1.931Z" clip-rule="evenodd"/><path fill="#E2CC85" fill-rule="evenodd" d="m12.174 22.265-.508-.96.295-1.202 2.105-.812-.896-1.838.443-1.857.831-1.662 2.568-.404 1.888-1.8 4.075.309.8 4.357-1.54 5.486-.878 2.84-3.558.135-1.651-1.144-1.934-.808-2.04-.64Z" clip-rule="evenodd"/><path fill="#F1D789" fill-rule="evenodd" d="M18.413 22.234s-.492.226-1.331.174c-.243-.326-1.944-.48-1.944-.48s-.212-.064-.588.091c-.378.154-.735.135-1.069.218-.334.083-.665-.352-.921-.443a3.589 3.589 0 0 1-.596-.326l-.717-.07-1.44-.608-2.286-2.278-.621.972-.192 1.204.691 1.427 1.862 1.696 3.63.921 2.151-.634 2.695-1.139.676-.725Z" clip-rule="evenodd"/><path fill="#F4ECB4" fill-rule="evenodd" d="m5.517 14.182.46-1.395.55-.901 1.768-.148-.53 1.549-1.479 2.63.614 2.348-1.088.544-.334-.513-.269-1.175-.018-1.32.326-1.619Z" clip-rule="evenodd"/><path fill="#F3E19D" fill-rule="evenodd" d="m7.5 22.138-.339-.473s-.09-.226-.039-.422c.052-.2.044-.213.019-.288-.026-.075-.244-.334-.23-.557.012-.225-.019-.3.147-.479.173-.173.121-.473.121-.473l.226.14.05-.078s.084.065.084.166c.018-.14-.057-.788.113-.935.171-.148.474.691.474.691l-.186-1.217-.48-1.247-.851-1.14-.051-1.255v-.11s-.391.602-.5 1.076c-.078.326.109.722.07 1.191-.031.466-.07.43.044.614.114.185.39.565.282.84-.096.235-.422.07-.422.07s-.065.19-.153.26a.58.58 0 0 0-.126-.255c-.006.044-.019.103-.019.103s-.057-.178-.114-.404c-.077-.3-.16-.696-.235-.908-.031.121-.109.492-.109.492l.044.57.213.781.204.512.2.627.173.42.14.322.121.722.588.621.313.14.228-.116Z" clip-rule="evenodd"/><path fill="#F2E8B0" fill-rule="evenodd" d="M5.825 13.043s-.422.717-.543 1.44c-.122.722-.23 1.486-.154 2.47.078.991.225 1.6.344 2.035.205.722.736 1.727.736 1.727l.018-.04a2.728 2.728 0 0 1-.213-.53c-.07-.274-.095-.6-.16-.748-.057-.148-.153-.275-.2-.456-.043-.173-.05-.448-.186-.652-.057-.083-.127-.3-.147-.518-.026-.326.013-.691-.019-.992-.057-.5-.095-.838-.044-1.1.052-.262.322-1.004.487-1.595.109-.378.044-.696.244-1.025.199-.326.32-.614.365-.813.05-.181-.528.797-.528.797Z" clip-rule="evenodd"/><path fill="#F5EEC0" fill-rule="evenodd" d="M7.827 12.756s-.218.065-.321.179c-.104.108-.148.2-.288.383-.14.184-.147.334-.261.564-.114.226-.366.565-.397.686-.03.122-.082.692-.147.96-.057.27.065.602.065.602l.147-.031s0 .191.148.32c.147.128.173-.43.173-.43l.552-1.86.83-.565.091-.456-.593-.352Z" clip-rule="evenodd"/><path fill="#E6DB9D" fill-rule="evenodd" d="M8.23 13.6s-.39.026-.582.166c-.078.057-.109.103-.192.173-.152.127-.308.243-.383.41-.083.165-.173.416-.235.89-.026.2-.026.383-.044.544-.026.217-.065.39-.044.512.026.249.282.378.307.66l.53-.269.5-1.97 1.062-.666-.601-.673-.318.222v.001Z" clip-rule="evenodd"/><path fill="#E5CB7A" fill-rule="evenodd" d="m5.43 26.868.007-.059c.077-.665.09-1.17.147-1.486.083-.448.14-.614.127-.782-.018-.269-.039-.466-.013-.673.04-.274.308-.6.3-.826-.005-.178-.095-.295-.173-.404l-.14-.199s.531-.365.526-1.835a.14.14 0 0 1 .031.012l.262.743.178.218.686 1.279.883.857 1.305.877.818.89.083 2.375-1.07 1.388-.174.317a15.21 15.21 0 0 1-3.783-2.692Z" clip-rule="evenodd"/><path fill="#D8C173" fill-rule="evenodd" d="M8.697 29.139s.018-.295.261-.487c.039.065.065.127.057.174a1.543 1.543 0 0 1 1.049-.704c.696-.127.864-.635.864-.635l1.478-1.343 1.691-1.556 2.056-.723.96-.235s.018.07-.018.225c.179-.013.575-.104.987-.249.165-.064.32-.09.404-.005.121.114.14.383.147.544.2-.044.43-.236.614-.218.296.031.557.378.858.378.396 0 .574-.243.851-.435.166-.114.404-.256.539-.352.32-.235 3.717-1.274 3.717-1.274l1.192.078.191 1.279-.102 3.343-.038.037-5.415 2.828-7.506 1.151a15.054 15.054 0 0 1-4.799-1.65l-.038-.171Z" clip-rule="evenodd"/><path fill="#F1D789" fill-rule="evenodd" d="M5.885 27.294c.107-.224.203-.41.22-.477.013.135.038.43.087.743a16.295 16.295 0 0 1-.307-.267Z" clip-rule="evenodd"/><path fill="#E0CD81" fill-rule="evenodd" d="m11.368 30.44.971-.27.083.025s.044.026.044.114c.122-.07.225-.057.3-.103.04.083.078.357.249.39.178.04.37-.077.564-.224.192-.153.41-.345.575-.422.06.11.114.226.16.344.218-.174.596-.878 1.134-.865.156-.368.416-.682.748-.903.5-.34.813-.366 1.204-.334a2.06 2.06 0 0 1 .565-.505c.064.026.243.134.466.03.225-.103.479-.504.813-.556a.785.785 0 0 1 .517.109s.973-.966 1.644-1.287c-.026-.078-.077-.37.71-1.018.044.04.013.148.044.154.013 0 .204-.083.448-.27.3-.224.66-.46.877-.525.41-.121.844.127.844.127a.389.389 0 0 1 .122-.057c.103-.018.178-.03.235-.051-.005.135.07.365 0 .564.081.046.167.082.256.109-.043.096-.14.34-.3.456.135.064.153.14.344.204a3.803 3.803 0 0 0-.261.41c-.057.122-.262.627-.352.818-.096.192-.225.544-.288.614-.062.071-.287.37-.46.518.153-.057.782-.248 1.048-.32-.08.115-.482.712-.868 1.286a15.192 15.192 0 0 1-12.437 1.44l.001-.003Z" clip-rule="evenodd"/><path fill="#DFC57C" fill-rule="evenodd" d="M8.294 13.53s-.225 0-.269.031c-.044.031.226.096.308.127.083.031.262.173.308.287.044.11 1.618.743 1.618.743l1.114-.057.384-.53-.73-.64.512-1.509-.679.109-1.63.973-.819.313-.117.153Z" clip-rule="evenodd"/><path fill="#E5CC7C" fill-rule="evenodd" d="M10.74 14.03a.175.175 0 0 0 .153.083c.23 0 .442.057.53.173.148.187.557.782.557.782l.979.352.063-1.152-1.07-.743-1.216.448v.057h.003Z" clip-rule="evenodd"/><path fill="#D2C281" fill-rule="evenodd" d="M10.547 14.457s.179.013.404-.07c.225-.083.595-.261.756-.191.225.095.179.396.422.665.148.166.417.16.57.34.152.178.678.095.678.095l.2 1.075-.8 1.026-.262 1.274h-1.082l-.988-.392-.487-1.178.243-1.191.346-1.453Z" clip-rule="evenodd"/><path fill="#E2C270" fill-rule="evenodd" d="M12.64 14.509a.294.294 0 0 0 .082.013c-.03.026-.095.082-.07.23.026.148.11.334.04.448a.56.56 0 0 1 .121.212c.044.127.057.244.344.262a.61.61 0 0 0-.114.09s.2.174.3.334c.104-.004.379-.09.379-.09l.057.04.121-.052s-.114-.044-.03-.32c.077-.244.147-.231.153-.25.006-.017.057-.274.057-.377.039-.135.07-.544.07-.544l-.083-.903-.466-.283-.379-.365-.357.673-.236.234-.018.583.029.065Z" clip-rule="evenodd"/><path fill="#CCB360" fill-rule="evenodd" d="M13.76 13.753s.083.236.114.417a.401.401 0 0 0 .019-.109s.064.357.077.505c.026-.005.051-.013.057.013.006.026.065.313.051.474.108-.178.257-.328.435-.435.104-.065.225-.135.352-.14.2-.005.345.127.583.127.575 0 1.095-.422 1.478-.552.282-.096.526-.165.697-.32.082-.07.23-.226.365-.457.178-.307.365-.574.551-.608-.084.016-.17.022-.256.018 0 0 .057-.057.154-.134.096-.078.212-.174.378-.174.295 0 .442.044.608.044.166-.005.262-.044.262-.044s.173.122.564.122c.39.005.652.039.857.057.205.018.89-.057 1.087-.051a.953.953 0 0 1 .37.09l-.634-1.843-2.278-1.992-1.357.961-2.087 2.087-2.02.748-.421.474v.722h-.005Z" clip-rule="evenodd"/><path fill="#D5B457" fill-rule="evenodd" d="M18.291 12.696s.057-.056.153-.134c.095-.078.212-.174.378-.174.295 0 .443.044.608.044.166-.005.262-.044.262-.044s.174.122.564.122c.391.005.653.039.857.057.205.018.89-.057 1.088-.052a.95.95 0 0 1 .37.091l-.288-.831-.333-.634-.953-1.044-1.152-.678a15.675 15.675 0 0 0-.397-.109l-1.035.627-.94 2.431-.018.512.608.287c.153-.256.322-.46.48-.486-.143.015-.252.015-.252.015Z" clip-rule="evenodd"/><path fill="#D2B257" fill-rule="evenodd" d="M18.278 12.87c-.09.005-.165-.013-.186-.078-.078-.217-.14-.248-.205-.248-.065 0-.153.14-.205.152-.052.013-.113-.16-.113-.16l-.057-.026s-.334.217-.57.474c-.236.256-.621.691-.795.769-.173.077-.769.103-.972.147a1.26 1.26 0 0 0-.461.226c-.031.033.09.07.108.103.019.031-.199.018-.217.051-.013.026.051.174.083.249a.421.421 0 0 1 .178-.044c.2-.005.345.127.583.127.575 0 1.095-.422 1.478-.552.282-.096.526-.166.697-.321.082-.07.23-.225.365-.456a3.21 3.21 0 0 1 .29-.414Z" clip-rule="evenodd"/><path fill="#D2B159" fill-rule="evenodd" d="M10.035 25.683s-.051-.192-.525-.686c-.135-.14-.218-.256-.309-.34-.225-.212-.357-.269-.517-.39-.352-.262-.736-.262-1.03-.583-.296-.321-.64-.934-.879-1.561-.235-.627-.3-.826-.3-.844 0-.018.065-.14.148-.122.082.018.082.179.103.218.042.063.088.123.14.178.122.14.295.307.383.557-.018-.212-.09-.448-.09-.448s.455.287.844.588c.39.3.551.404.665.595.114.192.383.697.512.844.129.148 1.895.704 1.895.704l.84.627.416.913-.326.512-.627.135-1.017-.456-.326-.441Z" clip-rule="evenodd"/><path fill="#C2A44D" fill-rule="evenodd" d="M7.775 22.535s.212.339.73.66c.466.282 1.204.538 1.861.691.378.09.756.16 1.095.166.914.013 1.543-.249 2.323-.334.422-.044.94-.078 1.478-.205.691-.166 1.1-.352 1.657-.614.404-.187.774-.326 1.075-.505.422-.249.73-.526 1.087-.608-.044.121-.09.339-.443.564.187-.005.443-.018.443-.018s-.248.147-.686.479c-.27.205-.627.551-.992.782-.235.147-.492.256-.66.344-.41.225-.575.34-.844.614a.36.36 0 0 1 .104 0s-.34.045-.583.174c-.051 0-.14-.018-.295.026-.122.038-.282.127-.448.173-.236.07-.313.04-.313.04l.039.077s-.308-.006-.41.005c.018.005.013.013.013.013a.156.156 0 0 0-.051.018.536.536 0 0 1-.16.07c-.032.005-.057.005-.096.013.012.03.114.204.16.307-.039.026-.621.466-.621.466a.451.451 0 0 1 .044.09c.018.058.026.14.044.18.044.077.07.09.07.09s-.07.013-.192.044c-.104.026-.23.07-.41.096-.055.007-.11.011-.165.012.026.058.14.275-.07.526-.21.251-.275.288-.34.448a.7.7 0 0 0-.103-.065c-.07-.03-.166-.077-.2-.14a1.607 1.607 0 0 1-.077.244c-.065.173-.16.344-.178.474-.07-.078-.2-.23-.379-.2-.178.031-.32.275-.352.345 0-.044-.03-.078-.038-.026a1.968 1.968 0 0 1-.653 1.134c-.005-.122-.005-.391-.018-.48-.051.052-.114.128-.487.288-.365.16-.307.321-.307.321s-.03-.256.166-.526c.2-.269.32-.396.32-.416a.115.115 0 0 0-.025-.057c-.026-.026-.078-.057-.078-.078.031-.013.34-.16.321-.466a.826.826 0 0 0-.217-.518c-.013-.013.122-.108.104-.14-.014-.018-.18-.14-.2-.204a.595.595 0 0 1 .026-.114c.018-.057.031-.096.026-.135a1.076 1.076 0 0 0-.104-.261c.018.005.148 0 .148 0s-.104-.166-.122-.244c-.018-.077-.057-.282-.077-.32.044.005.152.012.152 0 .006-.04-.095-.104-.05-.154.03.005.09.03.147.103-.032-.083-.083-.243-.192-.308a.47.47 0 0 1 .378.026c.153.09.205.218.205.218s.09.07.23.173c.16.127.365.307.691.435.07.039.249.039.379.013a.578.578 0 0 0 .16-.065.299.299 0 0 1 .057-.026 1.232 1.232 0 0 0-.096-.16c.044 0 .096.005.096.005s.031-.07-.109-.205c.031-.03.07-.051.07-.103-.044-.005-.122-.07-.14-.096.026-.018.065-.078.11-.096-.04-.031-.136-.16-.18-.173a.812.812 0 0 0 .122-.057s-.217-.057-.287-.104c-.07-.051-.174-.14-.236-.166-.065-.026-.178-.038-.225-.09.044.013.114 0 .166 0 .038 0 .057.005.07.005-.006-.018-.006-.057.095-.07a.47.47 0 0 0 .14-.044s-.096-.005-.205-.109c-.109-.103-.199-.186-.261-.199-.065-.013-.187.044-.262.039-.103-.013-.147-.065-.147-.065s-.345.031-1.108-.435c-.66-.404-.948-.761-.948-.761a1.138 1.138 0 0 1-.178-.083c-.249-.13-.593-.399-.583-.75l-.001.002Z" clip-rule="evenodd"/><path fill="#CAA13E" fill-rule="evenodd" d="M17.3 6.995c.06.02.113.056.153.104.122.14.2.404-.078.686.11.039.154.051.249.039-.096.114-.313.357-.326.57-.013.173.096.225.096.225s-.166.191-.174.512c.079-.089.164-.17.256-.244.192-.152.456-.326.635-.435a.363.363 0 0 0 .018.135s.333-.274.614-.153c.127.057.07.236.07.236s.173-.065.295.057.294.435.382.557c.039.057.14.166.243.334.142.236.26.484.352.743.006-.135.04-.344.423-.212.383.134.818.417 1.183.973.365.555.455 1.183.639 1.422.186.23.378.613.391.774.013.16-.057.678.326 2.079.109-.435.275-1.4.275-1.4l.09-.853.104-2.635-2.752-2.287-2.152-1.56-1.4.134.087.2Z" clip-rule="evenodd"/><path fill="#B59544" fill-rule="evenodd" d="M22.413 10.918s-.039-.256-.686-.692c-.647-.43-1.152-.43-1.618-.794-.358-.288-.73-.948-.973-1.165-.236-.215-.274-.837-.274-.837l.794-.665 1.182-1.709 1-1.1.479.665.665.782.37 1.57.135 2.296-1.075 1.649h.001Z" clip-rule="evenodd"/><path fill="#C89D3A" fill-rule="evenodd" d="M23.213 13.67a2.92 2.92 0 0 0-.127-1.03 18.99 18.99 0 0 0-.717-1.826c-.07-.39-.018-.422.057-.466.075-.044.358-.205.512-.769.155-.564.635-.582.635-.582l.295-.218.448 1.121.39 1.013.122.774.09.66-.212 1.396-1.048.947-.445-1.02Z" clip-rule="evenodd"/><path fill="#CEB052" fill-rule="evenodd" d="M8.583 29.225v-.029a.22.22 0 0 0 .057-.051c.018-.026.03-.057.044-.065a.487.487 0 0 1 .212-.039c.065.013.236.083.326.078.187-.005.404-.148.748-.083.518.096.64.448.94.647.205.14.417.078.448.078h.07c.013 0 .109-.109.16-.103.104.005.114.09.179.095.153.018.448-.077.596-.038a.285.285 0 0 1 .116.473c-.16.148-.313.288-.344.41.04.03.077.062.114.096a15.073 15.073 0 0 1-3.666-1.468v-.001Z" clip-rule="evenodd"/><path fill="#CCA847" fill-rule="evenodd" d="M22.369 24.052s.404-.538.544-.805c.14-.275-.443-3.757-.443-3.757l1.17-3.834-.031-1.248s.057-1.152.192-1.652c.16.288.66.635.769.818.05-.352.225-1.095.2-1.887.095.148.325 1.631.325 1.631l.23 1 .301 1.06.334 1.122.2.774.113.186.096.327.09.352.262.826.154.678.122 1.23c.026.094.045.19.056.287.006.135-.018.212-.018.236 0 .023.044.295.026.5-.026.204-.026.365-.186.512-.16.147-.262 1.025-.262 1.025l-.287-.192s.057-.261-.078-.5a.505.505 0 0 0-.544-.248c-.147.031-.442.078-.538.16-.09.083-.313.34-.518.456-.256.154-.673.166-.895.218-.226.05-.474.204-.736.383a4.113 4.113 0 0 1-.647.341l-.001.001Z" clip-rule="evenodd"/><path fill="#C39D3C" fill-rule="evenodd" d="m22.369 29.71.05.028a15.208 15.208 0 0 0 4.847-3.592 24.858 24.858 0 0 0-.055-1.26c-.044-.422-.013-.852-.026-1.1a15.946 15.946 0 0 0-.218-1.523c-.07-.261-.204-.39-.225-.39-.018.004-.127.491-.127.613 0 .123-.026.417-.026.492-.018-.005-.026-.05-.026-.07-.025.065-.057.18-.07.192-.012.013.019-.109 0-.135-.018-.025-.05-.012-.044-.077a.744.744 0 0 1 .018-.114s-.077.114-.134.404c-.057.287-.057.295-.078.32-.018.032-.121.136-.127.174-.005.07.096.14.104.179.005.065-.09.365-.122.512-.03.147-.018.435-.05.582-.027.135-.052.213-.14.27.064.012.126.03.126.03s.09.384-.14.71c-.082.114-.103.166-.191.27-.174.19-.308.409-.321.55a.919.919 0 0 1-.018-.126s-.27.313-.384.492c-.147.23-.352.217-.41.274-.057.057-.07.16-.05.244-.052.013-.148.03-.213.23a.484.484 0 0 1-.23.274c-.122.07-.27.091-.345.11.065.017.091.017.122.038-.038.065-.217.166-.417.295a.871.871 0 0 0-.344.417c-.051.109-.127.179-.248.192.05.03.127.103.165.127-.057.012-.153.012-.326.16-.181.15-.243.194-.326.207h-.001Z" clip-rule="evenodd"/><path fill="#D2BA6B" fill-rule="evenodd" d="M18.767 30.909c.099-.07.206-.127.32-.17.403-.16.83-.192.998-.243.161-.051.288-.122.487-.16l-.014.128a15.08 15.08 0 0 1-1.792.445Z" clip-rule="evenodd"/><path fill="#C0993A" fill-rule="evenodd" d="M26.214 20.287s-.082.448-.23.73c-.148.283-.307.674-.307.674 0-.089.011-.176.03-.262-.186.109-.639.37-.767.487-.122.108-.326.3-.378.39.121-.357.248-.678.27-.825-.187.134-1.057.851-1.51 1.325l-1.411 1.142a4.88 4.88 0 0 1-.503.235c-.243.104-.53.192-.742.275.056-.153.147-.288.274-.417.135-.127.538-.565.6-.768.058-.213.07-.34-.005-.518-.07.018-.23.026-.339.057a.662.662 0 0 0-.225.147s.083-.473.262-.921a3.787 3.787 0 0 0-.366.044s.322-.539.87-.914a2.831 2.831 0 0 0-.491.152c-.321.135-.673.334-.935.443.148-.205 1.183-1.683 1.8-3.06.614-1.375.844-1.727.978-2.465.07-.365.052-.904.07-1.387.018-.48.078-.91.04-1.197.16.2.76.762.78 2.018.019 1.255-.574 2.951-1.203 3.865.154.044.552.096.96-.615.41-.71.404-.908.552-1.204.018.148.013.2.013.2s.596-.723.878-1.631c.057.39.225.735-.04 1.452-.235.647-.543.805-.543.805s.153-.026.378-.16c.039.096.031.205.096.243.065.039.153.104.166.166.07-.104.178-.236.212-.334-.026.205-.044 1.1.051 1.556.2-.018.404-.031.544-.391-.096.352-.096.564-.031.865.106-.073.202-.202.202-.202Z" clip-rule="evenodd"/><path fill="#A88F33" fill-rule="evenodd" d="M19.487 6.017s-.199.083-.538.083c-.295 0-.212-.114-.673-.114-.71 0-3.187.41-3.622.404-.283-.005.952.121.952.121l3.157.044.634-.05.235-.48-.145-.008Z" clip-rule="evenodd"/><path fill="#E3C571" fill-rule="evenodd" d="M11.304 12.187s-.404.308-.575.543c-.171.236-.262.391-.456.583a.4.4 0 0 0 .135-.018s0 .05-.031.064a.18.18 0 0 1 .147.052c-.057.03-.212.186-.09.37.09.14.282.152.282.152s-.044.127.14.114c.396-.018.838-.191 1.043-.147.205.051.321.07.466.321.154.248.287.287.287.287s.091-.23.07-.574a1.71 1.71 0 0 0 .122-.583l-.135-.992-.587-.742-.761.421-.057.148Z" clip-rule="evenodd"/><path fill="#D8B65B" fill-rule="evenodd" d="M12.026 12.039s.057.135.295.147c-.026.057-.026.065-.018.109l.013.109a.239.239 0 0 0 .07-.052c.013.057-.013.148 0 .213.008.04.02.078.039.114a.229.229 0 0 1 .012-.026c.006-.013.052.14.18.256 0-.018.003-.036.012-.051a.18.18 0 0 0 .031.09.095.095 0 0 1-.026-.018s.013.41.083.622a.286.286 0 0 0 .031-.044c0-.013-.005.114-.018.204-.018.091-.005.218-.005.218a.678.678 0 0 1 .152-.09c.078-.032.205-.128.283-.34.045-.12.08-.244.103-.37.025.048.043.1.052.153.005.065.127.031.127.031l.025-.282.154-.64.14-.396.673-1.048 1.216-.937 1.062.244.895-1.217-1.543-.927-1.46.153-1.325 1.835-1.062 1.665-.191.275Z" clip-rule="evenodd"/><path fill="#D3AE4D" fill-rule="evenodd" d="M19.674 9.383s-.09.018-.352.153c-.262.136-.443.179-.544.378-.101.2-.109.357-.109.357s.179-.077.282-.103c.11-.026.23-.018.218.026a.3.3 0 0 1-.051.083s.205-.006.2.096a.534.534 0 0 1-.078.26c-.04.052-.2.128-.218.188-.044.121.018.126-.005.225-.018.096-.104.282-.383.608-.288.326-.41.557-.41.557s-.14-.262-.212-.487c-.051.026-.326.178-.326.178l-.637-2.218.012-.148s.058-.07.07-.2c-.095-.03-.108-.056-.235-.178-.127-.121-.23-.269-.443-.37-.03-.057-.07-.134-.225-.166a4.06 4.06 0 0 1-.249-.057s.083-.03.122-.095c-.096.013-.173.044-.383.038-.212-.005-.236-.013-.352.006-.116.018-.256.07-.308-.11-.057-.043-.179-.004-.282.148-.104.153-.14.275-.34.334a.693.693 0 0 1-.09.249c-.057.096-.148.191-.27.334-.191.225-.16.595-.466.878-.307.282.052-.782.052-.782l.492-1.178 1.4-1.37 2.175-.147.212 1.126 1.062.365.67 1.023v-.001Z" clip-rule="evenodd"/><path fill="#CAA13E" fill-rule="evenodd" d="m20.018 9.631-.914-1.318-.64-.492s-.455-.838-.486-.864c-.026-.018-.456-.065-.73-.083l.051.127c.06.02.113.055.154.103.121.14.2.404-.078.686.109.04.154.052.249.04-.096.113-.314.357-.327.569-.012.173.096.225.096.225s-.166.192-.173.512a2.07 2.07 0 0 1 .256-.243c.191-.154.456-.327.634-.435a.366.366 0 0 0 .018.134s.334-.274.615-.152c.126.057.07.235.07.235s.173-.064.295.057c.121.122.295.435.383.557.038.057.14.166.243.334.141.235.26.484.352.743.005-.104.026-.249.205-.249l-.272-.486Z" clip-rule="evenodd"/><path fill="#F4EFC8" fill-rule="evenodd" d="M6.317 13.375s-.064-.16 0-.474c.065-.313.166-.46.2-.922.033-.46.334-1.035.334-1.035l.83-.378.588.16.174.787-.743.41s-.04.174-.249.313c-.21.14-.5.249-.57.391a1.14 1.14 0 0 0-.09.275s-.212-.044-.34.095c-.134.143-.129.27-.134.378Z" clip-rule="evenodd"/><path fill="#EBCC73" fill-rule="evenodd" d="M7.995 13.165s-.07.044-.122.154c-.051-.083-.173-.575-.178-1.018-.006-.443-.032-.552.07-.705.103-.152.504-.313.447-.588-.057-.261-.295-.37-.587-.295-.205.051-.358.487-.57.704-.16.166-.352.14-.404.23-.07.122-.005.244-.026.322-.005.025-.07.165-.186.334-.236.339-.634.818-.686 1.247.018-.243.005-.248.07-.517l-.04-.065.257-.839.165-.691.37-1.158.653-1.183.634-.71.66.045.078.992.378 1.861.795.979-1.274.857-.505.044Z" clip-rule="evenodd"/><path fill="#E5C66B" fill-rule="evenodd" d="M8.391 13.517s-.109.026-.148.005c-.039-.02-.077-.044-.064-.07.012-.026.082-.07.082-.09a.073.073 0 0 0-.064-.078c-.06-.008-.078.03-.078.03s-.057-.043-.103-.05a.694.694 0 0 1 .082-.006.808.808 0 0 0-.225-.064c.065-.039.192-.153.275-.153.082 0 .134-.013.121-.057-.013-.044-.077-.109-.147-.134.026-.032.044-.078-.018-.205-.065-.127-.04-.213-.018-.243.018-.04.082-.11.113-.153.032-.044.057-.104.11-.135.025-.018.108-.051.19-.083.091-.03.167-.07.218-.03.057.038.031.09.031.09s.179-.065.34.018c.16.077.551.127.551.127l.14.282-.927.795-.383.191-.078.013Z" clip-rule="evenodd"/><path fill="#E6BD62" fill-rule="evenodd" d="M9.678 12.217s-.288.192-.352.262c.038.005.103.031.077.07-.031.039-.217.173-.321.3a1.982 1.982 0 0 0-.248.365c-.04.07-.334.275-.435.3.212 0 .64-.26.8-.26-.006.077.044.165.134.173.09.007.352.056.704-.16.352-.213.236-.371.384-.475.282-.186.396-.352.551-.455a.97.97 0 0 1 .236-.127s.005-.078.05-.07a.07.07 0 0 1 .058.044s.27-.192.614-.243a.036.036 0 0 1-.018-.019s.026-.013.031-.026c0 0 .018-.026.031-.013.013.014.031.11.057.148.057-.026.166-.27.166-.27l.262-.747v-.684l-.205.039-1.536.652-.932.966-.109.23Z" clip-rule="evenodd"/><path fill="#B6933F" fill-rule="evenodd" d="M14.1 8.865a.868.868 0 0 0 .236-.096c-.031.083-.031.173-.166.37-.134.197-.14.225-.248.43-.109.212-.122.518-.226.652a.475.475 0 0 1 .148-.044s-.103.09-.147.187c-.044.095-.122.295-.314.416-.191.122-.435.2-.696.487-.262.282-.53.64-.666.768.07-.121.166-.365.192-.525.026-.16-.005-.352.039-.565.044-.212.044-.365.256-.735.212-.37.574-1.657.574-1.657l.782-.249.236.56Z" clip-rule="evenodd"/><path fill="#C49937" fill-rule="evenodd" d="M13.535 8.39s-.235.34-.3.64-.005.275-.044.422a.552.552 0 0 0 0 .275.975.975 0 0 1 .326-.321c.223-.135.404-.23.512-.345.108-.121.2-.32.435-.473-.096-.013-.23-.057-.256-.051.096-.11.383-.275.673-.474.287-.205.27-.288.735-.492-.153.026-.225-.013-.352 0 .051-.109.23-.16.41-.34.179-.178-.114-.442-.114-.442l-1.366.826-.66.777.001-.001Z" clip-rule="evenodd"/><path fill="#DFC068" fill-rule="evenodd" d="m9.83 7.775.031-.249.391-.626.41-1.1V4.294l-.032-.87.065-.57.05-.18.051-.07.334.173.461.626.044 1.21-.448 1.908-1.279 1.395-.078-.142Z" clip-rule="evenodd"/><path fill="#A88F33" fill-rule="evenodd" d="M10.848 2.534s-.205.006-.249.858c-.043.851-.064 1.3-.095 1.721-.032.422-.104.678-.14.927-.037.249-.057.588-.174.795-.05.096-.16.396-.417.621a2.57 2.57 0 0 1-.781.435c-.114.026-.692.083-.927.213-.083.044-.226.095-.383.243A4.89 4.89 0 0 0 6.65 9.742c-.46.91-.922 3.475-.922 3.475l.104-.174s.013-.23.243-.634c.226-.404.161-.857.474-1.631.122-.295.275-.678.461-1.005.295-.53.652-.986 1.012-1.234a3.2 3.2 0 0 1 1.235-.492l.697-.461s.121-.236.282-.505c.225-.378.512-.8.575-1.413.096-.91-.135-1.505-.122-2.043.013-.539.018-.935.127-1.03.109-.097.031-.06.031-.06Z" clip-rule="evenodd"/><path fill="#C99E3D" fill-rule="evenodd" d="M10.848 6.6s.307-.757.448-1.427c.026-.135.077-.27.09-.378.065-.634.083-.896 0-1.243-.064-.256-.313-.487-.442-.666-.127-.186-.187-.256-.16-.295a.287.287 0 0 1 .224-.096.771.771 0 0 1 .552.256c.2.23.357 1.013.357 1.013l.166 1.032.422 1.3-1.657.504Z" clip-rule="evenodd"/><path fill="#B58634" fill-rule="evenodd" d="M13.735 5.812s-.057.026-.16 0a.232.232 0 0 1-.104.218c-.11-.044-1.127.044-1.127.044s-.474-.083-.621-.71c-.104-.417.077-.991.018-1.37-.09-.556-.218-.665-.23-.838-.013-.173-.026-.218-.026-.326-.057-.013-.091-.031-.148-.031-.013-.052.013-.096-.044-.187.031.013.243.039.492.274.205.192.205.262.236.3.038.04.352.308.486.576.135.267.396 1.12.456 1.26.018.057.057.114.154.244.15.186.37.495.618.546Z" clip-rule="evenodd"/><path fill="#A88F33" fill-rule="evenodd" d="M12.057 3.2c.157.253.298.516.422.787.153.344.243.627.435.857-.104-.3-.287-.89-.396-1.1-.122-.222-.37-.461-.46-.544Z" clip-rule="evenodd"/><path fill="#E6C367" fill-rule="evenodd" d="M10.296 7.456s-.261.065-.748.321c-.16.083-.313.153-.46.218a8.042 8.042 0 0 1-1.122.422.742.742 0 0 0 .04.044s0 .127.07.199c-.04.039-.558.39-.405 1.569.104-.039.225-.09.243-.09.032.005.04.09.078.09.039 0 .166-.051.3-.225-.005.07-.082.774.334 1.248.078-.091.275-.392.275-.392l.005-.095s.018-.334.127-.64c.109-.305.321-.53.321-.53l1.108-1.582-.166-.557Z" clip-rule="evenodd"/><path fill="#DCBA5A" fill-rule="evenodd" d="M9.26 9.779a.612.612 0 0 1-.165.083.64.64 0 0 1 .109-.505c.179-.262.57-.6.678-.87.07-.174.039-.609.66-1.166.622-.556.865-.748.865-.748l1.005-.505 1.234.487-.613 2.405-.476 1.126-1.895-.357-1.401.05Z" clip-rule="evenodd"/><path fill="#E9CE77" fill-rule="evenodd" d="m9.984 9.126.236-.295v-.21s.261-.07.543-.357c.282-.287.673-.839 1.018-.805.344.039.378.748.39.947.014.2.058.653.128.896.077.244-.84 1.165-.84 1.165l-.622.474-.853-1.815Z" clip-rule="evenodd"/><path fill="#CDAE50" fill-rule="evenodd" d="M10.713 11.583s.192-.3.052-.365c.082-.187.235-.383.235-.383s.109-.27.46-.6c.353-.332.57-.552.627-.775.036-.145.055-.293.057-.443a.843.843 0 0 0 .122.083c.057.026.326.249.287.697-.038.448-.204.634-.204.634s-.16.16-.274.243c-.122.083-.166.179-.37.187a.245.245 0 0 1 .07-.04s-.213-.025-.327.078c-.114.104-.357.423-.478.518l-.256.166Z" clip-rule="evenodd"/><path fill="#D2A83E" fill-rule="evenodd" d="M19.322 6.547a3.119 3.119 0 0 0-.953-.186c-.544-.018-1.338.013-2.118.018-.839.005-1.6-.287-2.656-.34-.174-.103-.615-.556-1.991.405.083-.005 1-.213 1.318.186.32.396.23 1.07.186 1.23-.083.357-.352.878-.46 1.243-.11.365-.083.557-.161.813-.078.256-.249.383-.148.678.135-.083.205-.083.43-.588s.179-.865.551-1.292c.366-.43.973-1.017 1.204-1.165.232-.148 2.066-1.1 3.988-.191.463-.05.81-.81.81-.81Z" clip-rule="evenodd"/><path fill="#C29637" fill-rule="evenodd" d="M12.378 6.195a.237.237 0 0 0-.013-.057.417.417 0 0 0-.07-.103s-.456-.083-.686-.057c-.404.044-.769.543-.94.8-.17.256-.383.652-.613.857a.085.085 0 0 0-.013-.057s.013.018-.013.044-.026.038-.013.05l.039.04c.013 0 .37-.161.857-.615.518-.474.914-.717 1.12-.8.111-.047.227-.081.345-.102Z" clip-rule="evenodd"/><path fill="#AC8132" fill-rule="evenodd" d="M21.217 4.249s-.083.103-.187.217c-.23.243-.53.518-.787.8-.243.27-.517.479-.826.831-.308.352-.665.743-.756.857a.844.844 0 0 0-.147.396 3.564 3.564 0 0 0-.096-.065.65.65 0 0 0 .078.114c.065.091.165.205.217.275.064.088.11.189.135.295.03.005.23.044.479-.365.248-.41.574-.857.574-.857l.518-.77.326-.651.41-.73.062-.347Z" clip-rule="evenodd"/><path fill="#A88F33" fill-rule="evenodd" d="M21.748 3.726s-.314.256-.435.41c-.122.153-.41.556-.41.556l.104-.013.525-.466.205-.365.01-.122Z" clip-rule="evenodd"/><path fill="#A67A2E" fill-rule="evenodd" d="M21.652 24.3s-.005-.212.114-.339c.122-.127.43-.313.73-1.012.3-.7.334-.857.334-.857s-.539.46-.87.57c.077-.161.121-.275.16-.358-.044-.039-.23-.083-.248-.103.103-.104.16-.358.37-.526.269-.205.76-.557 1.143-.87.382-.314 1.134-1.044 1.23-1.256.057.083.07.135.07.135s-.378.492-.575.805c-.174.27-.16.422-.16.422l.357-.154s.103.383-.365.966c.205-.078.287-.031.404-.096-.192.122-.456.288-.704.743-.244.456-.575.987-1.134 1.318-.544.35-.857.61-.857.61v.002Z" clip-rule="evenodd"/><path fill="#8C6228" fill-rule="evenodd" d="M20.249 6.817s-.213.442-.244.787c-.005.083-.026.147-.026.243-.005.308.018.653-.05.813-.027-.065-.04-.109-.066-.134-.038.108-.108.447-.165.574a2.699 2.699 0 0 1-.078-.71c.005-.338.013-.403.013-.473-.013.104-.083.244-.109.326-.039-.07-.083-.16-.134-.235-.032.051-.07.127-.104.165a2.352 2.352 0 0 1-.026-.23c-.005-.135-.013-.308-.005-.344.013-.07.122-.345.352-.596.274-.3.557-.877.64-1.056.082-.179.434-.922.434-.922h.27l-.391.89s-.236.488-.357.667c-.122.178-.378.69-.492.89.082-.108.152-.166.235-.27.08-.072.303-.385.303-.385Z" clip-rule="evenodd"/><path fill="#CBA94C" fill-rule="evenodd" d="M21.753 3.692a1.115 1.115 0 0 1-.205.37c-.16.192-.505.448-.673.653-.154.199-.46.743-.321 1.387.05-.14.147-.417.404-.73.256-.313.53-.673.665-.953.135-.282.153-.504.153-.504l.051-.065-.031-.148-.044-.01Z" clip-rule="evenodd"/><path fill="#A88F33" fill-rule="evenodd" d="M26.996 20.865s-.104-.282-.135-.539c-.031-.256.051-.307-.044-.6-.057-.18-.16-.154-.186-.18-.026-.024-.044-.294-.04-.442a1.655 1.655 0 0 0-.03-.422c-.04-.03-.065-.057-.122-.248-.065-.192-.096-.288-.127-.345-.031-.056-.122-.108-.122-.165 0-.114.104-.174.104-.205-.005-.065-.083-.013-.104-.031-.026-.031.065-.218.031-.243-.012-.013-.103.095-.127.064-.026-.03-.057-.339-.103-.543-.044-.2-.09-.345-.096-.404-.005-.057-.357-1.062-.443-1.305a6.155 6.155 0 0 1-.173-.627c-.026-.121-.044-.37-.057-.344-.013.026-.005.153-.026.148-.018-.006-.083-.448-.103-.518-.018-.07-.127-.307-.154-.48-.026-.173-.083-.626-.122-.934-.039-.308-.057-.435-.057-.512a3.19 3.19 0 0 0-.03-.564 5.256 5.256 0 0 0-.244-.953c-.174-.435-.634-1.548-.717-1.825 0-.07.09-.031.09-.031s.226.564.392.999c.16.435.313.818.352.857.03.039.274.466.383 1.165.109.7.147 1.344.212 1.774.031.204.057.421.122.639.07.236.178.479.321.852.122.313.212.574.261.8.057.287.057.505.091.647.031.122.078.365.187.717.108.352.269.805.378 1.087a6.02 6.02 0 0 1 .339 1.287c.028.259.124 1.155.098 1.424Z" clip-rule="evenodd"/><path fill="#BE9C44" fill-rule="evenodd" d="m21.766 3.66-.013.032s.038.013.03.065c.001.07-.003.142-.012.212-.013.09-.039.16-.044.218 0 .121.018.261-.154.608-.05.096-.082.178-.108.235a.698.698 0 0 1-.135.226c.09-.051.417-.256.583-.226a1.216 1.216 0 0 0-.397.358.89.89 0 0 0 .308 0c.287-.044.608-.148.89-.127.308.018.187-.37.187-.37l-.356-.782-.673-.474-.106.026Z" clip-rule="evenodd"/><path fill="#A17C34" fill-rule="evenodd" d="M23.521 9.517s-.3-.3-.422-1.331c-.122-1.036-.096-2.56-.096-2.56l-.243-.595s-.051-.397-.179-.544c-.127-.147-.378-.396-.492-.518-.114-.121-.243-.287-.32-.313.038-.065.212-.43.877-.435.665-.005.87.365.94.5.07.134.383.717.5 1.826.108 1.108.113 1.19.095 1.574a8.924 8.924 0 0 1-.204 1.23c-.112.445-.233.942-.456 1.167Z" clip-rule="evenodd"/><path fill="#8C6228" fill-rule="evenodd" d="M22.58 10.4c.1.007.2-.015.287-.065.095-.005.442.039.709-.3.018.077.065.287-.057.474.065-.065.16-.09.174-.109.005.096.095.39-.288 1.108.104-.114.225-.109.334-.122.005.135.078.588-.114.831-.127.166-.334.114-.334.114a.658.658 0 0 0 0-.108c-.005-.07-.03-.14-.013-.187a.929.929 0 0 1-.269-.186c-.225-.213-.518-.575-.538-.844a.333.333 0 0 1 .243-.365.287.287 0 0 1-.057-.07c-.013-.044-.026-.114-.078-.171Z" clip-rule="evenodd"/><path fill="#92723A" fill-rule="evenodd" d="M20.582 7.143s-.013-.018-.082.065c.013-.083.026-.16.03-.236a.81.81 0 0 1 .128-.191c-.04.077-.065.147-.065.147s.096-.179.235-.287c.096-.078.218-.114.27-.187.057-.077.044-.09.057-.103 0 0 .127-.083.32-.327.027-.03.066-.064.091-.095.044-.018.148-.065.27-.127.127-.07.269-.166.357-.205.173-.078.357-.07.443-.192.064-.018.134-.212.121-.378.096.04.588.345.756 1.013.122.473-.096 1.203-.186 1.556-.09.352-.104.613-.23.774-.161.212-.679.512-.806.66-.108.122-.435.43-.422.652.013.166.218.256.262.288.044.031.044.07.127.05.083-.018.114-.056.147-.056.039.005.039.013.057.013a.187.187 0 0 0 .039-.005s-.013.235-.564.307c-.04.005-.078.018-.127.026.065-.031.103-.031.173-.127-.077-.013-.3-.026-.357-.044a.69.69 0 0 1 .127-.153c.044-.039-.006-.051-.044-.031-.067.045-.13.095-.192.148-.065.056-.122.134-.225.204a.505.505 0 0 1 .096-.442c-.032.005-.091.095-.148.077a.828.828 0 0 1 .018-.282c.031-.117.2-.321.2-.321l.812-1.453.174-1.1-1.862.362Z" clip-rule="evenodd"/><path fill="#B18E3E" fill-rule="evenodd" d="M20.539 7.205s-.045.031.044.09c-.013.019-.044.084-.083.128-.044.05-.091.082-.11.127-.038.09-.069.152-.069.191 0 .04-.013.288-.122.448-.039.057-.083.153-.114.217-.064.114-.121.205-.134.256-.026.091-.044.34-.044.34l.078-.096c-.032.064-.065.134-.114.186.03-.026.121-.09.274-.225.212-.179.544-.479.948-.717-.122.044-.226.044-.308.057.064-.065.647-.748.952-.813a.122.122 0 0 0 .026-.083l-.261-.025-.531.113-.078-.41-.354.216Z" clip-rule="evenodd"/><path fill="#543E26" fill-rule="evenodd" d="M21.383 9.535s-.07.07-.135.244a.816.816 0 0 1-.127-.174c-.096-.16-.243-.365-.588-.248-.005-.11-.013-.166 0-.244.057-.013.23-.152.404-.357.122-.14.236-.3.313-.505.052-.039.14-.103.256-.178.166-.114.366-.27.397-.443-.078.03-.244.109-.492.096.095-.044.243-.09.225-.283l.07-.044a.256.256 0 0 0-.09-.013c-.006-.018-.014-.043-.058-.03-.044.012-.051.012-.057.03-.018.006-.077 0-.121.032-.044.03-.166.134-.213.152a6.29 6.29 0 0 0 .044-.077s-.127.013-.217.051c-.166.057-.357.16-.552.261.018-.03.026-.05.039-.057.013-.005.044-.012.044-.018 0-.005-.013-.05-.005-.07a2.38 2.38 0 0 1 .205-.352.686.686 0 0 0 .108-.295l.397-.2 1.113-.255.722.044-.09.5-.427.872-.365.795-.417.487-.383.28Z" clip-rule="evenodd"/><path fill="#806031" fill-rule="evenodd" d="M23.187 7.373s-.435.538-.557.621c.078-.166.557-1.152.73-1.427-.038-.03-.09-.03.032-.512-.104.244-.14.37-.226.435-.085.065-.096.044-.153.044a.108.108 0 0 0 .013-.064s-.365-.044-.615-.044-.743.134-1.017.243c-.218.09-.34.09-.417.147-.078.065-.122.135-.16.153-.032.018-.18.065-.213.114-.031.051-.083.109-.083.122 0 .013-.013.03.026.018a3.55 3.55 0 0 0 .218-.122c.147-.083.326-.178.455-.235.37-.148.487-.122.653-.153.173-.031.422-.104.587-.104.166-.005.48 0 .552.013-.031.026-.057.057-.044.166 0 .031-.026.065-.051.14a12.6 12.6 0 0 1-.308.743c-.114.243-.243.448-.307.574-.064.127-.205.461-.344.64-.14.179-.212.287-.256.326-.044.04-.357.27-.334.352.057-.018.417-.153.678-.448.262-.294.314-.473.518-.634.204-.16.365-.43.46-.652.081-.207.063-.272.164-.456Z" clip-rule="evenodd"/><path fill="#B6903C" fill-rule="evenodd" d="M13.812 11.392s-.057.235-.186.352c-.127.114-.352.212-.378.404-.031.191.225.287.225.287s-.14.23-.14.404c0 .179-.005.212.013.383a.17.17 0 0 0-.05.051s.012.166.139.27c.127.103.235.165.3.14.01.02.019.042.026.064 0 0 .096-.243.16-.456.065-.217.122-.186.148-.479.026-.292.307-.794.307-.794l.192-.43-.313-.243-.443.047Z" clip-rule="evenodd"/><path fill="#685026" fill-rule="evenodd" d="M14.395 11.814a1.893 1.893 0 0 0-.178.212c-.083.114-.148.217-.27.262-.121.044-.199.043-.191.165.007.122.121.174.186.236.07.065.127.173.096.295.039-.018.109-.039.173-.178.065-.14.518-.992.518-.992h-.334Z" clip-rule="evenodd"/><path fill="#D4B968" fill-rule="evenodd" d="M16.18 9.849s.038-.104 0-.179c-.04-.078-.275-.104-.392-.192-.122-.09-.27-.153-.39-.114.017-.044.09-.14.03-.16-.057-.018-.269.078-.326.122-.057.044-.186.095-.212.127-.026.03-.07.09-.096.064-.026-.018-.039-.064-.083-.039-.044.026-.256.2-.295.3a1.534 1.534 0 0 1-.39.583c-.265.256-.379.422-.301.518.077.096.114.026.127.109a.697.697 0 0 1-.013.243c-.031.135-.083.261-.013.287.178.057.352-.05.39-.018.078.07-.043.321.14.37.187.052.37-.043.37-.043l.68-.366.652-.344.333-.66-.179-.551-.034-.057h.001Z" clip-rule="evenodd"/><path fill="#CCA849" fill-rule="evenodd" d="M15.54 11.425s-.115-.173.025-.326c.14-.153.34-.218.417-.313a.118.118 0 0 0-.057-.04.516.516 0 0 1 .225-.212.216.216 0 0 0-.147-.07c-.127 0-.205.078-.322.078-.113 0-.126-.057-.126-.057s.191-.018.173-.103c-.018-.091-.051-.091-.051-.091s.37-.154.435-.236c.064-.081.057-.178.07-.217.044 0 .3-.135.404-.078.103.057.03.213.03.213s.314-.236.474-.467c.14.013.205-.096.307-.096.127 0 .326.174.365.544.026.212.065.334.026.71-.018.212-.013.665.051.89.044.178.148.16.148.16a.29.29 0 0 1-.091.14c-.07.065-.078.236-.07.3.01.048.023.094.039.14 0 0-.083.096-.104.16-.018.066-.103.11-.165.11-.063 0-.031-.006-.114 0-.083.005-.109.018-.16 0-.053-.018-.091-.04-.07-.205.018-.166-.64-.552-.64-.552l-1.075-.383.002.001Z" clip-rule="evenodd"/><path fill="#585136" fill-rule="evenodd" d="M14.304 13.062s.236.313 1.204.313c.461 0 .622-.044.717-.07.104-.026.492-.178.883-.64.352-.416.274-.587.274-.587l-.205-.031-.665.09-1.97.84-.239.085h.001Z" clip-rule="evenodd"/><path fill="#252211" fill-rule="evenodd" d="M15.027 13.139s-.84.187-.84-.344c0-.518.519-1.062.648-1.158.135-.096.456-.204.456-.204h.774l.147.39-.064.845-1.121.47v.001Z" clip-rule="evenodd"/><path fill="#C3B378" fill-rule="evenodd" d="M15.8 11.591s-.16-.148-.525.051c-.365.2-.66.615-.678.992-.018.334.274.582.73.595.339.013.544-.025.647-.05l-.16-.2-.013-1.388Z" clip-rule="evenodd"/><path fill="#E6D89C" fill-rule="evenodd" d="M15.643 11.674s-.039-.031-.154.03c-.096.052-.235.187-.344.283-.07.057-.114.083-.154.127-.16.192-.295.505-.217.66.078.156.334.334.986.213l-.12-1.313h.003Z" clip-rule="evenodd"/><path fill="#252211" fill-rule="evenodd" d="M15.43 11.995s-.103.16-.103.417c0 .261.148.678.691.709.417.026.697-.6 1-.844.23-.186.37-.192.37-.192s-.236-.256-.865-.587c-.621-.334-1.318-.378-1.696.134.179-.013.756-.16.756-.16l.283.09-.436.433Z" clip-rule="evenodd"/><path fill="#6F674D" fill-rule="evenodd" d="M16.243 12.334c-.018-.039-.03-.09.044-.104.076-.012.11-.005.135.052.026.056.051.103.013.127-.039.02-.14 0-.192-.076Zm-.121-.365s-.026.018-.013-.018c.005-.044.039-.122.121-.104.083.019.065.109.052.135-.014.026-.083.07-.135.051a.043.043 0 0 1-.026-.065Z" clip-rule="evenodd"/><path fill="#AC924C" fill-rule="evenodd" d="M9.114 12.134a.8.8 0 0 0 .442.148c.236-.005.539-.248.679-.404.082-.09.153-.186.23-.261.065-.065.109-.096.14-.14.044-.051.09-.148.114-.179-.057.044-.14.122-.226.174a2.664 2.664 0 0 1-.334.173c-.07.026-.794.41-.794.41l-.251.08Z" clip-rule="evenodd"/><path fill="#9F8E57" fill-rule="evenodd" d="M9.427 10.222s.113-.078.334-.127c.212-.052.64-.091.64-.091l.351.154.14.53-.256.552-.326.205-.37-.596-.513-.627Z" clip-rule="evenodd"/><path fill="#EAC970" fill-rule="evenodd" d="m8.966 10.695-.122.091s.031-.057.057-.23c.026-.174.16-.596.357-.84.197-.243.192-.23.192-.23a.13.13 0 0 0-.104.026 1.24 1.24 0 0 1 .358-.364c.165-.103.23-.135.404-.052.173.084.217.127.344.122.127-.005.236-.14.236-.14s.025.083-.07.275c-.096.191-.474.582-.474.582l-.787.539-.391.221Z" clip-rule="evenodd"/><path fill="#D7BC6B" fill-rule="evenodd" d="M9.548 10.157s.57.077.743-.083c.005.018.026.018.026.031a.045.045 0 0 1-.013.026.418.418 0 0 1 .057-.005.332.332 0 0 0 .07.013c.02 0 .038-.002.057-.006a.096.096 0 0 1-.039.065c.026 0 .051.005.051.026 0 .02.005.083-.025.096a.118.118 0 0 1-.078-.005.32.32 0 0 0 .039.14c.05.095.16.204.307.173 0 0 .077.186-.249.6-.044.058-.09.135-.147.2a.76.76 0 0 0-.051.153s.551-.213.71-.697c.16-.487.19-.966.16-1.413a.73.73 0 0 0-.057-.283c-.078-.16-.296-.134-.383-.044-.127.127-.34.443-.635.66-.3.218-.313.256-.544.353h.001Z" clip-rule="evenodd"/><path fill="#585136" fill-rule="evenodd" d="M8.865 10.856s-.109.064-.166.307c-.057.248.051.551.114.647.063.096.205.357.5.37a.55.55 0 0 0 .212-.044c.103-.047.2-.107.287-.178.127-.096.23-.179.218-.187-.031-.013-.782-.634-.782-.634l-.282-.315-.101.034Z" clip-rule="evenodd"/><path fill="#453A25" fill-rule="evenodd" d="M9.574 11.886s.153-.013.244-.07c.09-.057-.531-.673-.531-.673l.044.666.243.077Z" clip-rule="evenodd"/><path fill="#84754B" fill-rule="evenodd" d="M8.914 10.81s-.078.147-.078.186c-.013.126.026.525.057.652.031.135.2.339.417.339.135 0 .321-.083.321-.103 0-.026-.191-.052-.243-.148-.031-.051-.044-.179-.051-.307-.005-.083-.005-.174.026-.205.07-.078.082-.3.082-.3l.249-.462h-.327l-.391.243-.062.104Z" clip-rule="evenodd"/><path fill="#252211" fill-rule="evenodd" d="M8.818 10.951s.256-.339.487-.417c.23-.077.334-.03.334-.03l-.135.344-.191.212.013.109s-.032.287.16.487c.192.199.334.191.417.191.083 0 .32-.07.443-.357.108-.27.199-.614-.018-.96-.213-.345-.588-.358-.66-.358-.073 0-.643.028-.85.779Z" clip-rule="evenodd"/><path fill="#F7F7E7" fill-rule="evenodd" d="M15.392 12.104c-.096-.044-.005-.314.09-.397a.675.675 0 0 1 .43-.191c.078-.005.153.044.14.096-.018.095-.153.23-.274.326-.169.132-.278.215-.386.165Z" clip-rule="evenodd"/><path fill="#F8F6DE" fill-rule="evenodd" d="M10.214 10.636c.07-.005.16.05.178.127.018.082-.044.248-.178.248-.11 0-.166-.135-.166-.173a.198.198 0 0 1 .026-.091c.005-.008.018-.098.14-.111Z" clip-rule="evenodd"/><path fill="#D4C38B" fill-rule="evenodd" d="M9.204 10.695s-.179.083-.262.256a.68.68 0 0 0-.05.41.995.995 0 0 0 .12.282c.045.057.104.096.149.09.044-.005.134-.121.134-.19 0-.07.005-.366.09-.526.076-.16-.18-.322-.18-.322h-.001Z" clip-rule="evenodd"/><path fill="#E2D59D" fill-rule="evenodd" d="M9.23 10.682c-.031.018-.083.044-.07.078.013.03.122.05.16.127a.27.27 0 0 1 .031.199.314.314 0 0 0 .091-.065c.057-.065.127-.152.186-.152.04 0 .078.018.114.018.057 0 .114-.018.122-.078.013-.078-.109-.148-.179-.135.013-.05.032-.126-.025-.178-.057-.052-.236.039-.275.065a2.91 2.91 0 0 0-.155.121Z" clip-rule="evenodd"/><path fill="#CBAC5A" fill-rule="evenodd" d="m13.344 16.122.383-.113.109.077s.077.166.199.187c-.039.082-.14.153-.135.212a.18.18 0 0 0 .057.104s-.344.569.334 1.143c-.16.065-.365.154-.473.205.077.018.243.05.313.114.07.063.07.083.134.121.065.04.104.091.091.114-.044-.026-.192-.103-.217-.03-.026.072-.64.043-.64.043l-1.036.2s.04-.104-.07-.2c-.126-.114-.282.005-.447-.122-.218-.165-.226-.357-.295-.43.07-.043.212-.108.551-.153-.013-.026-.057-.103-.031-.173.031-.09.16-.148.122-.256.057-.013.082-.013.225-.192.135-.178.217-.217.32-.23.105-.013.167 0 .358-.179.135-.127.09-.236.09-.236s.089-.028.058-.207Z" clip-rule="evenodd"/><path fill="#D6BC6F" fill-rule="evenodd" d="M12.212 16.18c.005-.027.026-.04.166-.027.14.013 1.025-.083 1.266-.096.243-.018 1.1-.005 1.517.083.417.088.84.192 1.044.244.205.056.269.077.261.103-.005.026-.051.051-.078.044-.025-.005-.704-.212-.913-.256-.21-.044-.935-.16-1.332-.154-.37.006-.517-.005-.83.031-.314.04-.832.091-.987.07-.154-.018-.122-.018-.114-.044v.001Z" clip-rule="evenodd"/><path fill="#DFC677" fill-rule="evenodd" d="M14.296 18.208s.531.288.723.64c.14.261-.083.39-.083.39s.3 0 .261.167c-.018.103-.517.383-.851.53-.34.148-.326.14-.492.166-.16.026-.6-.051-.691.078-.091.128-.052.261-.027.282.027.018.236.044.236.044s-.044.122-.479.135c-.434.012-.543.043-.57.09-.025.044.083.018.283.051.2.031.479.052.479.052s-.09.077-.326.14c-.27.07-.692.134-.819.212.065.044.161.108.205.114a1.293 1.293 0 0 0-.287.103c.039.026.09.057.09.057s-.217.262-.344.326c-.127.065-.857.404-1.108.34-.627-.166-.704-.852-.857-.904-.23-.078-.339.078-.544-.031.09-.065.14-.104.236-.148-.104-.05-.64-.39-.64-.39a3.974 3.974 0 0 0-.186-.358c-.103-.179-.256-.417-.37-.627-.249-.46-.262-.673-.487-.934.039-.051.173-.044.173-.044l1.888.621 3.347.097.87-1.242.37.044Z" clip-rule="evenodd"/><path fill="#C4A859" fill-rule="evenodd" d="M9.339 20.104c.02.022.043.041.07.057.064.044.16.096.225.173.026-.039.09-.109.204 0 .115.109.256.031.345.057.09.031.095.044.095.044s.052-.044.166-.09c.07-.026.153-.044.243-.07.083-.018.174-.044.236-.044.057.038.262.256 1.082-.065.774-.3.953-.334 1.083-.288.013-.03.026-.09.225-.082 0-.083-.166-.365-.166-.365l-.914-.314h-.5l-1.499.275-.83.474-.065.239v-.001Z" clip-rule="evenodd"/><path fill="#927D49" fill-rule="evenodd" d="M8.839 19.578s.018.14.225.288c.205.147.27.235.27.235s.038-.051.07-.103c.03-.057.056-.122.108-.14.104-.044.339.039.39.026.045-.013.032-.104.079-.104.108-.005.178.07.217.07.039 0 .134-.005.147-.026.013-.02.018-.236.166-.34a.443.443 0 0 1 .41-.038c0 .039.005.135.109.14.103.005.113-.013.204.018.091.031.2-.005.249.148.044-.013.147-.026.121-.174.052-.039.096-.065.205-.217.026-.04.07-.083.104-.14.09 0 .2-.018.344.109-.044.03-.07.05-.083.082a.924.924 0 0 1 .104.122c.039.051.065.114.114.127.109.031.287-.013.487 0a.98.98 0 0 1 .421.127c.026-.013.026-.018.091-.005.065.013.114.018.044-.065.039.018.083.057.122.018.039-.039.07-.096.178-.109.11-.013.148.006.192-.108.057-.14-.14-.14-.14-.14s.09-.083.192-.192c.122-.114.261-.261.295-.442.057-.334-.27-.378-.27-.378l-1.581.486-1.934-.096-1.65.821Z" clip-rule="evenodd"/><path fill="#6E6342" fill-rule="evenodd" d="M7.417 15.008s-.05.065-.082.218-.018.135-.044.243c-.026.11-.345 1.191-.225 1.556.12.365.326.5.455.795.026.065.051.104.065.16.044.192.005.34.057.532.018.064.065.14.135.217.153.16.404.313.512.422.152.16.37.487.647.518.147.018.357-.044.53-.148.154-.096.249-.23.41-.307.114-.057.236-.078.344-.104.226-.044.43-.05.552-.026.186.04.627.174.87.174.19-.003.38-.03.565-.078.37-.108.818-.295 1.113-.378.173-.05.313-.064.456-.095.243-.057.448-.135.564-.283-.078-.09-.173-.23-.691-.225-.588.013-1.266.34-1.6.391-.334.052-.48.096-.852-.039-.366-.136-.378-.226-.378-.226s-.384-.268-.544-.953c-.16-.684 0-1.183.417-1.657.109-.121.082-.23.082-.23s.275-.37.2-.717c-.083-.344-.614-.274-.614-.274l-2.943.514Z" clip-rule="evenodd"/><path fill="#39331F" fill-rule="evenodd" d="M7.86 16.16a.269.269 0 0 0-.03.14c.004.07.025.16.235.365.178.179.14.378.14.378s.09.018.333-.096c.192-.09.256.07.256.07a.539.539 0 0 1 .18-.057.393.393 0 0 0 .16-.051s.225.23.422.34c.178.095.282.16.37.095.083-.057.083-.174.077-.225a.673.673 0 0 0-.077-.135c-.057-.083-.148-.179-.154-.256-.013-.178.135-.39.104-.443-.031-.051-.148-.064-.435.04-.298.098-1.582-.164-1.582-.164h.001Z" clip-rule="evenodd"/><path fill="#292311" fill-rule="evenodd" d="M8.538 17.318s-.147-.14-.095-.818a.832.832 0 0 1 .186.018s.08.525-.09.8Z" clip-rule="evenodd"/><path fill="#252211" fill-rule="evenodd" d="M7.488 14.49a.405.405 0 0 0 .057-.05c-.052.095-.288.478-.096 1.082.191.6.673 1.048 1.266 1.069.592.02.904-.27 1.26-.704.14-.174.3-.391.443-.539.213-.23.378-.295.378-.518 0-.455-.466-.66-1.152-.864-.686-.205-1.305-.18-1.626-.04-.313.153-.448.314-.53.565Z" clip-rule="evenodd"/><path fill="#3F3824" fill-rule="evenodd" d="m9.69 17.522.052-.026s.013-.204.096-.199c.082.013.121.122.113.16-.005.04-.025.104-.108.096-.109.003-.153-.03-.153-.03Z" clip-rule="evenodd"/><path fill="#2D2815" fill-rule="evenodd" d="M9.46 16.652s.051-.018.114.044c.051 0 .274-.026.344.018.07.045.091.083.091.083s-.261.057-.404 0c-.145-.049-.145-.145-.145-.145Z" clip-rule="evenodd"/><path fill="#82764F" fill-rule="evenodd" d="M10.612 16.691c0-.013-.14-.108-.287-.14-.026-.005-.031.013-.051.013-.013-.005-.018-.044-.018-.044l-.084.044s-.013.018.03.052c.04.03.104.057.123.108.018.052.018.07.025.078.005.005.096 0 .14-.026.044-.026.127-.068.122-.085Z" clip-rule="evenodd"/><path fill="#2D2816" fill-rule="evenodd" d="M9.305 17.217s.026-.178.2-.186c.178-.013.212.16.212.16l-.104.104c0-.003-.078-.112-.307-.078h-.001Z" clip-rule="evenodd"/><path fill="#574F35" fill-rule="evenodd" d="M10.431 16.448s-.096.104-.308.135c-.018-.026-.057-.078 0-.16.057-.083.122-.11.187-.084a.151.151 0 0 1 .121.11Z" clip-rule="evenodd"/><path fill="#82764F" fill-rule="evenodd" d="M10.822 16.575c.005-.026-.013-.031 0-.044.013-.013.083-.039.096-.026.005.005 0 .026 0 .051 0 .025 0 .051-.013.07-.018.026-.07.039-.096.031-.026-.008-.03-.044-.03-.051.012-.005.043-.018.043-.031Zm.442-.28c0-.013.044-.039.07-.039.039 0 .039.031.044.04.013.004.013-.006.026.017.013.024.031.065.018.091-.013.026-.065.044-.078.039a.692.692 0 0 1-.08-.148Z" clip-rule="evenodd"/><path fill="#6E6342" fill-rule="evenodd" d="M10.374 16.634s.057.013.135.078c-.026.018-.065.039-.065.039s-.005-.06-.07-.117Z" clip-rule="evenodd"/><path fill="#585136" fill-rule="evenodd" d="M10.247 16.065c-.013-.013.04-.044.07-.04.031.006.044.027.078.032.033.005.039-.013.051-.026.012-.013.057-.005.065 0l.013.018a.071.071 0 0 1 .025-.051.083.083 0 0 1 .07-.013c.005.018.031.083.026.096-.005.013-.082.031-.096.018.013.031.07.096.078.108.008.013-.057.045-.083.04a1.055 1.055 0 0 1-.297-.182Zm.34-.43a.06.06 0 0 0-.027-.031c-.018-.005-.077 0-.077.03 0 .032.051.206.109.296.064.09.108.166.152.187a.06.06 0 0 0 .078-.026c.005-.013.018-.11.013-.334-.005-.226-.013-.443-.026-.456-.013-.013-.065-.013-.083.013a2.436 2.436 0 0 0-.14.32Z" clip-rule="evenodd"/><path fill="#574F35" fill-rule="evenodd" d="M10.356 16.96s-.09-.057-.179-.018c-.082.04-.077.192-.077.192a.123.123 0 0 0 .114-.013c.057-.039.13-.103.142-.16Z" clip-rule="evenodd"/><path fill="#82764F" fill-rule="evenodd" d="M10.527 17.165c-.005-.051-.051-.051-.051-.078a.058.058 0 0 1 .056-.044c.027 0 .052.031.084.051.03.018.077.052.082.091.005.04-.05.148-.114.148-.062 0-.044-.117-.057-.169Zm.5-.07s-.104.031-.096 0c.007-.031.03-.039.065-.039a.102.102 0 0 1 .064-.031c.014 0 .028.004.039.013 0 0 .07-.031.09-.013.021.018.006.018.019.039a.17.17 0 0 1 .03.078c0 .02-.077.064-.139.056-.072-.015-.06-.09-.072-.103Zm.603-.117s.03.018.005.04a.421.421 0 0 1-.187.056c-.077 0-.147.013-.147-.013s.065-.077.104-.09a.082.082 0 0 1 .064-.031c.031 0 .153-.013.187-.018.03-.006.057.012.038.038-.007.018-.064.018-.064.018Zm.178-.8s-.038.084-.082.084c-.044-.005-.044-.018-.044-.031 0-.018.044-.065.038-.078-.012 0-.044 0-.038-.031 0-.026.044-.057.082-.051a.17.17 0 0 1 .104-.039c.044 0 .083.013.083.039 0 .026-.051.082-.07.096-.02.02-.047.034-.073.012Zm-.59 1.531s-.051.005-.051.031c0 .013.013.013.031.005.01 0 .02-.002.031-.005.005.005.005.031.044.031a.246.246 0 0 0 .09-.03c.032-.014.058-.027.058-.052-.013-.044-.04-.065-.078-.065a.104.104 0 0 0-.057.013s-.013-.026-.057 0c-.044.026-.039.026-.026.039.023.02.016.034.016.034v-.001Zm-.292.27c0-.014.064-.04.082-.032.018.005.07.104.07.114 0 .013-.064.044-.09.044-.026 0-.07-.044-.07-.051 0-.005.03-.013.03-.018.008-.013-.022-.044-.022-.057Zm-.205-.379c.013-.005.013-.018.03-.03a.046.046 0 0 1 .02-.008c.006 0 .013 0 .02.002a.062.062 0 0 1 .044-.031c.03-.005.057 0 .051.013 0 .039.026.064.026.096 0 .03-.018.07-.083.096a.46.46 0 0 1-.166.012c-.013-.005-.026-.056-.013-.082a.215.215 0 0 1 .07-.068Z" clip-rule="evenodd"/><path fill="#6E6342" fill-rule="evenodd" d="M10.803 17.618s-.044.026-.044.04a.113.113 0 0 0-.005.038c0 .007.057-.005.065-.013.002-.005-.016-.051-.016-.065Z" clip-rule="evenodd"/><path fill="#585136" fill-rule="evenodd" d="M10.418 17.496c.026.006.07 0 .104.013.025.013.044.04.018.07-.026.031-.051.078-.109.07-.065-.005-.127-.039-.127-.065a.124.124 0 0 1 .031-.09c.026-.02.039-.008.083.002Z" clip-rule="evenodd"/><path fill="#574F35" fill-rule="evenodd" d="M10.387 17.523s-.083.064-.104.095c-.025.031-.152.192-.191.226a.487.487 0 0 1 .044-.065.265.265 0 0 0-.109.14c-.03.096.174.147.308.186.135.039.187.051.187.051a1.448 1.448 0 0 1-.127-.235c-.051-.122-.078-.135-.044-.192.026-.057.065-.096.065-.14a.96.96 0 0 0-.029-.066Z" clip-rule="evenodd"/><path fill="#252211" fill-rule="evenodd" d="M7.436 17.727a.156.156 0 0 0 .057 0c.038-.005.442-.154.864-.127.316.02.63.07.935.154.53.14 1.19.416 1.618.575.114.043.225.121.307.152.326.127.34.127.531.16.225.032.456-.043.697-.095.294-.065.8-.096 1.242-.16.143-.02.284-.052.422-.096 0 0-.352.352-1.196.479a3.739 3.739 0 0 1-1.03.013 3.136 3.136 0 0 1-.583-.104c-.153-.044-.466-.16-.852-.256-.269-.07-.57-.122-.914-.187-.849-.155-1.77-.334-2.099-.507Z" clip-rule="evenodd"/><path fill="#CFB66C" fill-rule="evenodd" d="M6.483 16.127c-.205.174-.422.34-.634.5l-.64.491c-.217.16-.43.326-.647.487-.218.16-.435.313-.666.46.205-.173.422-.333.64-.491.217-.158.443-.313.652-.473l.64-.492c.22-.16.432-.326.655-.482ZM5.35 17.94s.23-.192.518-.461c.357-.334.795-.761.935-.839l-1.453 1.3Z" clip-rule="evenodd"/><path fill="#CFB66C" fill-rule="evenodd" d="M5.351 17.94a8.14 8.14 0 0 1 .358-.335l.186-.16c.057-.052.122-.109.179-.166.114-.114.225-.236.339-.352a2.01 2.01 0 0 1 .179-.166.48.48 0 0 1 .103-.07c.031-.018.065-.05.109-.057-.026.04-.057.057-.083.09-.031.027-.057.058-.083.084-.057.057-.121.108-.178.16-.122.104-.249.205-.37.313-.122.109-.236.226-.358.334-.132.112-.254.22-.38.325ZM6.9 16.903s-.844.826-1.018.96l1.018-.96Z" clip-rule="evenodd"/><path fill="#CFB66C" fill-rule="evenodd" d="M6.9 16.904c-.076.087-.158.17-.244.248l-.256.243c-.083.083-.16.166-.248.249-.091.078-.174.154-.27.225l.249-.243c.083-.083.173-.153.261-.236l.249-.243a3.69 3.69 0 0 1 .259-.243Zm.038.447c-.077.218-.169.43-.274.635-.217.435-.544.978-.686 1.255l.96-1.89Z" clip-rule="evenodd"/><path fill="#CFB66C" fill-rule="evenodd" d="M6.938 17.352a.726.726 0 0 1-.057.261 2.36 2.36 0 0 1-.103.243 4.112 4.112 0 0 1-.127.236c-.044.075-.096.153-.135.23l-.261.461c-.09.154-.179.308-.274.456.064-.166.152-.321.235-.474a9.84 9.84 0 0 0 .256-.466c.04-.079.077-.16.109-.243.039-.083.077-.16.109-.236.038-.082.07-.16.108-.235.044-.08.08-.158.14-.233Z" clip-rule="evenodd"/><path fill="#DEC270" fill-rule="evenodd" d="M7.86 19.474s-.256.34-.23.77c.07-.226.158-.57.23-.77Zm.244.34s-.091.922-.166 1.375c.106-.524.127-.48.166-1.375Zm1.695 1.43s-.383 1.126-.39 1.439c.082-.322.243-.98.39-1.44Z" clip-rule="evenodd"/><path fill="#CBAF59" fill-rule="evenodd" d="M10.695 19.405s.622 1.025 1.088 1.9c-.126-.44-.417-1.248-1.088-1.9Z" clip-rule="evenodd"/><path fill="#E3C677" fill-rule="evenodd" d="M12.365 20.914c.341.603.649 1.224.922 1.861-.052-.44-.192-1.193-.922-1.861Z" clip-rule="evenodd"/><path fill="#ECD592" fill-rule="evenodd" d="M17.274 22.426c.103-.065.308-.417.487-.505.178-.09.313-.109.473-.288.16-.186.205-.3.557-.447.492-.213.154-.487.154-.487a1.52 1.52 0 0 1 .173-.148c.127-.095.274-.212.262-.417-.018-.344-.083-.844-.365-1.134.274-.057.8-.095 1.126-.178.378-.096.551-.23.551-.23s-.217-.37.135-.744c.352-.372.64-.595.852-1.012-.244-.031-.615-.16-1.561.2.05.023.1.051.147.082 0 0-.582.16-.795.34-.37.313-.417.569-.818.76-.401.192-.805.14-1.139.296-.334.155-.383.287-.505.344.026.031-.005.083.044.127-.03.044-.212.339-.396.339.018.07.173.122.173.122s-.113.083-.403.103c.147.154.287.321.673.565-.031.064-.16.16-.109.282.057.122.205.287.795.422-.3.013-.652.083-1.127.018-.473-.057-.551-.09-.844-.018.031.031.114.031.187.114-.078.005-.565-.057-.73.16-.174.226-.249.596-.236.844-.09.044-.178.122-.134.283.044.16.274.212.422.313.147.108.16.147.3.122.147-.032.365-.179.492-.179a.33.33 0 0 1 .217.096s.345-.166.378-.135c.031.031.005.23.039.262.034.023.422-.207.526-.272h-.001Z" clip-rule="evenodd"/><path fill="#fff" fill-opacity=".8" fill-rule="evenodd" d="M24.8 12.065c-1.618-4.179-5.618-4.953-5.618-4.953H7.77l.044 4.256h2.272v9.505H7.77v4.248h11.097c2.674 0 4.818-2.687 4.818-2.687 3.433-4.873 1.116-10.37 1.116-10.37Zm-5.875 7.505s-.87 1.256-1.817 1.256h-1.894l-.045-9.447H17.6s1.126.235 1.913 2.464c0 0 1.044 3.192-.588 5.727Z" clip-rule="evenodd"/></svg>