<svg fill="none" height="32" viewBox="0 0 32 32" width="32" xmlns="http://www.w3.org/2000/svg"><path d="m32 16c0 8.8366-7.1634 16-16 16-8.83656 0-16-7.1634-16-16 0-8.83656 7.16344-16 16-16 8.8366 0 16 7.16344 16 16z" fill="#fff"/><path d="m16.0002 4c2.3902 0 4.3279 1.12694 4.3279 2.51709s-1.9377 2.51709-4.3279 2.51709c-2.3903 0-4.3279-1.12694-4.3279-2.51709s1.9376-2.51709 4.3279-2.51709zm0 18.9658c2.3902 0 4.3279 1.127 4.3279 2.5171 0 1.3902-1.9377 2.5171-4.3279 2.5171-2.3903 0-4.3279-1.1269-4.3279-2.5171 0-1.3901 1.9376-2.5171 4.3279-2.5171zm-10.3938-12.96617c1.19511-2.06994 3.14053-3.18413 4.34522-2.48856 1.20468.69558 1.21248 2.93743.01732 5.00733-1.19511 2.07-3.14053 3.1841-4.34524 2.4886s-1.21242-2.9374-.0173-5.00737zm16.4261 9.48347c1.1951-2.0699 3.1398-3.1845 4.3437-2.4894s1.211 2.9366.0159 5.0065c-1.1952 2.0699-3.1399 3.1845-4.3438 2.4894s-1.211-2.9365-.0158-5.0065zm-16.40817-2.49c1.20468-.6955 3.1501.4186 4.34521 2.4886 1.19516 2.0699 1.18736 4.3118-.01732 5.0073-1.20469.6956-3.15011-.4186-4.34522-2.4885-1.19512-2.07-1.18736-4.3118.01733-5.0074zm16.42497-9.48149c1.2039-.69506 3.1486.41949 4.3438 2.48939 1.1951 2.07 1.188 4.3115-.0159 5.0065-1.2038.6951-3.1486-.4194-4.3437-2.4894-1.1951-2.0699-1.188-4.3114.0158-5.00647z" fill="#e6007a"/></svg>