<svg xmlns="http://www.w3.org/2000/svg" width="32" height="32" fill="none"><path fill="#fff" d="M32 16c0 8.837-7.163 16-16 16S0 24.837 0 16 7.163 0 16 0s16 7.163 16 16Z"/><path fill="#E6007A" d="M16 4c2.39 0 4.328 1.127 4.328 2.517S18.39 9.034 16 9.034c-2.39 0-4.328-1.127-4.328-2.517S13.61 4 16 4Zm0 18.966c2.39 0 4.328 1.127 4.328 2.517S18.39 28 16 28c-2.39 0-4.328-1.127-4.328-2.517S13.61 22.966 16 22.966ZM5.606 10c1.196-2.07 3.14-3.184 4.346-2.489 1.204.696 1.212 2.937.017 5.007s-3.14 3.184-4.345 2.489C4.419 14.312 4.41 12.07 5.606 10Zm16.426 9.483c1.196-2.07 3.14-3.184 4.344-2.49 1.204.696 1.211 2.937.016 5.007s-3.14 3.185-4.344 2.49c-1.204-.695-1.21-2.937-.015-5.007Zm-16.408-2.49c1.205-.695 3.15.419 4.346 2.489 1.195 2.07 1.187 4.312-.018 5.007-1.204.696-3.15-.419-4.345-2.489-1.195-2.07-1.187-4.311.017-5.007ZM22.05 7.512c1.204-.695 3.149.42 4.344 2.489 1.195 2.07 1.188 4.312-.016 5.007-1.204.695-3.148-.42-4.343-2.49-1.196-2.07-1.188-4.311.015-5.006Z"/></svg>