<svg fill="none" height="32" viewBox="0 0 32 32" width="32" xmlns="http://www.w3.org/2000/svg"><path d="m16.0003 0c3.187 0 5.7705 1.50259 5.7705 3.35612s-2.5835 3.35612-5.7705 3.35612-5.7705-1.50259-5.7705-3.35612 2.5835-3.35612 5.7705-3.35612zm0 25.2878c3.187 0 5.7705 1.5026 5.7705 3.3561s-2.5835 3.3561-5.7705 3.3561-5.7705-1.5026-5.7705-3.3561 2.5835-3.3561 5.7705-3.3561zm-13.85837-17.28829c1.59349-2.75992 4.18738-4.24551 5.79363-3.31808s1.61659 3.91655.0231 6.67647c-1.59349 2.7599-4.18738 4.2455-5.79366 3.3181-1.606277-.9274-1.616557-3.9166-.02307-6.67649zm21.90137 12.64459c1.5935-2.7599 4.1865-4.2459 5.7917-3.3192 1.6052.9268 1.6146 3.9155.0211 6.6754-1.5934 2.7599-4.1865 4.246-5.7916 3.3192-1.6052-.9268-1.6146-3.9154-.0212-6.6754zm-21.87746-3.3199c1.60624-.9274 4.20014.5581 5.79362 3.318s1.58315 5.7491-.0231 6.6765-4.20014-.5582-5.79363-3.3181c-1.593487-2.7599-1.583137-5.749.02311-6.6764zm21.89996-12.64205c1.6052-.92675 4.1982.55931 5.7917 3.31923s1.584 5.74862-.0211 6.67532c-1.6052.9268-4.1982-.5593-5.7917-3.3192-1.5935-2.75992-1.584-5.74857.0211-6.67533z" fill="#e6007a"/></svg>