<svg xmlns="http://www.w3.org/2000/svg" width="32" height="32" fill="none"><path fill="#E6007A" d="M16 0c3.187 0 5.77 1.503 5.77 3.356 0 1.854-2.583 3.356-5.77 3.356-3.187 0-5.77-1.502-5.77-3.356C10.23 1.503 12.813 0 16 0Zm0 25.288c3.187 0 5.77 1.502 5.77 3.356C21.77 30.497 19.188 32 16 32c-3.187 0-5.77-1.503-5.77-3.356 0-1.854 2.583-3.356 5.77-3.356ZM2.142 8c1.593-2.76 4.187-4.246 5.794-3.32 1.606.928 1.616 3.917.023 6.677-1.594 2.76-4.188 4.245-5.794 3.318C.559 13.749.548 10.759 2.142 8Zm21.901 12.644c1.594-2.76 4.187-4.246 5.792-3.32 1.605.928 1.615 3.916.021 6.676-1.593 2.76-4.186 4.246-5.792 3.32-1.605-.927-1.614-3.916-.02-6.676Zm-21.877-3.32c1.606-.927 4.2.558 5.793 3.318 1.594 2.76 1.584 5.75-.023 6.677-1.606.927-4.2-.558-5.793-3.318-1.594-2.76-1.583-5.75.023-6.677Zm21.9-12.642c1.605-.927 4.198.56 5.792 3.32 1.593 2.76 1.584 5.748-.022 6.675-1.605.927-4.198-.56-5.791-3.32-1.594-2.76-1.584-5.748.02-6.675Z"/></svg>