<svg fill="none" height="32" viewBox="0 0 32 32" width="32" xmlns="http://www.w3.org/2000/svg"><path d="m16 32c8.8366 0 16-7.1634 16-16 0-8.83656-7.1634-16-16-16-8.83656 0-16 7.16344-16 16 0 8.8366 7.16344 16 16 16z" fill="#e6007a"/><path d="m16.272 6.625c-3.707 0-6.73599 3.012-6.73599 6.736 0 .749.124 1.48.356 2.192.08213.2351.25329.4285.47659.5386.2233.1102.4809.1283.7174.0504.2349-.0823.4281-.2535.538-.4768.11-.2233.1279-.4808.05-.7172-.1955-.5551-.286-1.1418-.267-1.73.071-2.512 2.103-4.58 4.616-4.704.6583-.03459 1.3167.0651 1.9352.29298.6185.22789 1.1842.57921 1.6627 1.03261.4785.45341.8597.99941 1.1205 1.60481.2608.6053.3958 1.2574.3966 1.9166-.0015 1.2397-.4764 2.4319-1.3277 3.3331-.8513.9011-2.0147 1.443-3.2523 1.5149 0 0-.945.053-1.408.125-.232.035-.41.071-.535.089-.054.018-.107-.036-.09-.09l.161-.783.873-4.028c.0509-.2408.0046-.492-.1287-.699-.1333-.2069-.3429-.3528-.5833-.406-.241-.0509-.4923-.0045-.6992.1291-.207.1335-.3528.3434-.4058.5839 0 0-2.103 9.802-2.121 9.909-.0508.241-.0045.4923.1291.6993.1335.2069.3434.3527.5839.4057.241.0509.4923.0045.6993-.1291.2069-.1335.3527-.3434.4057-.5839.017-.107.303-1.408.303-1.408.1012-.477.3473-.9111.7046-1.2429.3572-.3319.8083-.5453 1.2914-.6111.3496-.0383.7-.068 1.051-.089 1.692-.1319 3.2721-.8968 4.425-2.1422s1.7939-2.8797 1.795-4.5768c0-3.724-3.03-6.736-6.737-6.736zm.481 15.505c-.1451-.0313-.295-.0335-.4409-.0064-.146.027-.2851.0827-.4094.1639-.1242.0812-.2312.1863-.3145.3091-.0834.1228-.1416.2609-.1712.4064-.125.606.25 1.212.873 1.337.1453.0314.2953.0337.4414.0067.1461-.0271.2854-.0829.4098-.1642s.2314-.1865.3148-.3095.1415-.2613.171-.407c.124-.623-.25-1.212-.874-1.336z" fill="#fff"/></svg>