<svg xmlns="http://www.w3.org/2000/svg" width="32" height="32" fill="none"><defs><linearGradient id="drep__b" x1="4.712" x2="27.339" y1="4.686" y2="27.314" gradientUnits="userSpaceOnUse"><stop offset=".084" stop-color="#FFDF2E"/><stop offset=".311" stop-color="#FFDC2A"/><stop offset=".526" stop-color="#FFD31F"/><stop offset=".737" stop-color="#FFC50C"/><stop offset=".835" stop-color="#FFBC00"/></linearGradient><linearGradient id="drep__c" x1="8.571" x2="21.862" y1="11.012" y2="24.303" gradientUnits="userSpaceOnUse"><stop offset=".014" stop-color="#666"/><stop offset=".029" stop-color="#626262"/><stop offset=".18" stop-color="#3F3F3F"/><stop offset=".334" stop-color="#232323"/><stop offset=".489" stop-color="#101010"/><stop offset=".645" stop-color="#040404"/><stop offset=".804"/></linearGradient><clipPath id="drep__a"><path fill="#fff" d="M0 0h32v32H0z"/></clipPath></defs><g clip-path="url(#drep__a)"><path fill="url(#drep__b)" d="M16.025 0c-8.836 0-16 7.163-16 16s7.164 16 16 16c8.837 0 16-7.163 16-16s-7.163-16-16-16Z"/><path fill="url(#drep__c)" fill-rule="evenodd" d="M16.41 26.032a24.123 24.123 0 0 1-3.49.265c-4.508 0-8.887-.004-8.887-.004l3.28-14.023h3.628l.783-3.349h3.628l.759-3.244s.822-.002 1.758-.002c.612 0 1.66.036 1.854.054 5.728.522 9.27 4.911 8.02 10.256-1.145 4.899-5.942 8.995-11.334 10.047Zm.614-9.843a1.664 1.664 0 0 0 1.089-1 1.105 1.105 0 0 0-.403-1.266 1.727 1.727 0 0 0-.79-.256c-.2-.022-.594-.018-.594-.018H12.14l-1.88 8.04s2.182-.003 3.622-.003c.78.026 1.56-.026 2.328-.156l-1.232-3.758h-2.47l.322-1.375h2.677a5.071 5.071 0 0 0 1.517-.208Zm-4.097-5.907-.465 1.988s.44.004 4.445.004c.48-.028.96.008 1.43.105a2.048 2.048 0 0 1 1.554 1.544c.109.7-.027 1.415-.385 2.026a4.35 4.35 0 0 1-2.676 1.823l1.057 3.226a7.769 7.769 0 0 0 4.578-5.066 4.408 4.408 0 0 0-3.257-5.462 7.007 7.007 0 0 0-1.466-.188h-4.815ZM18.8 7.037h-1.486l-.44 1.884s.323-.002.867-.002a7.627 7.627 0 0 1 2.399.352 5.88 5.88 0 0 1 3.858 6.714 9.56 9.56 0 0 1-7.893 6.917c-.605.096-1.217.145-1.83.147H8.42l2.203-9.419H8.516L5.873 25.018s4.423-.107 6.955-.107c1.5-.008 2.993-.19 4.452-.54 4.119-1.28 7.949-4.569 8.867-8.494 1.12-4.786-2.113-8.585-7.347-8.84Z" clip-rule="evenodd"/></g></svg>