<svg fill="none" height="32" viewBox="0 0 32 32" width="32" xmlns="http://www.w3.org/2000/svg"><path d="m16 32c8.8366 0 16-7.1634 16-16 0-8.83656-7.1634-16-16-16-8.83656 0-16 7.16344-16 16 0 8.8366 7.16344 16 16 16z" fill="#3b218c"/><path d="m23.8925 17.0237h-2.645c.1639-1.0802.1639-2.1798 0-3.2618h2.645c.2802 0 .5075-.2273.5075-.5075 0-.2803-.2273-.5076-.5075-.5076h-2.8494c-.4741-1.8855-1.4504-3.60893-2.8284-4.98171-2.2908-2.29251-5.4592-3.42383-8.68936-3.10666-.04226.00533-.07404.04402-.06873.08637.00533.03702.03345.06524.06873.06873 2.44596.2432 4.73146 1.32519 6.47076 3.06271 1.3692 1.36922 2.319 3.04506 2.7842 4.87246h-7.5703c-.2803 0-.5076.2273-.5076.5076 0 .2802.2273.5075.5076.5075h7.7765c.0828.5393.1234 1.0855.1234 1.63 0 .5463-.0405 1.0908-.1234 1.6301h-7.7765c-.2803 0-.5076.2273-.5076.5075s.2273.5076.5076.5076h7.5703c-.4652 1.8274-1.415 3.5032-2.7842 4.8724-1.7393 1.7375-4.0248 2.8197-6.47076 3.0628-.04226.0034-.07404.0422-.07048.0846.00352.0371.03346.0669.07048.0706 3.23186.317 6.39856-.8143 8.68936-3.1069 1.3763-1.3745 2.3543-3.0962 2.8284-4.9835h2.8494c.2802 0 .5075-.2273.5075-.5075 0-.2804-.2273-.5078-.5075-.5078z" fill="#fff"/></svg>