<svg fill="none" height="32" viewBox="0 0 32 32" width="32" xmlns="http://www.w3.org/2000/svg" xmlns:xlink="http://www.w3.org/1999/xlink"><linearGradient id="a" gradientUnits="userSpaceOnUse" x1="8.96182" x2="24.4135" y1="7.64596" y2="26.12"><stop offset=".3883" stop-color="#6354ff"/><stop offset=".7803" stop-color="#fa535a"/></linearGradient><path d="m16 32c8.8366 0 16-7.1634 16-16 0-8.83656-7.1634-16-16-16-8.83656 0-16 7.16344-16 16 0 8.8366 7.16344 16 16 16z" fill="#1a1b23"/><path d="m27.6659 13.358c-.0952.0713-.5471.4281-3.4964 2.6163v.0714c0 4.5904-3.7104 8.3009-8.3009 8.3009s-8.30088-3.7105-8.30088-8.3009c0-4.5905 3.71038-8.30092 8.30088-8.30092 1.1893 0 2.3071.23785 3.3299.68976.5233.23785 1.0227.52327 1.4984.85626l-7.3733 6.636 2.7829 2.4022 6.8738-6.5646 2.9493-2.61631c-1.879-2.71147-5.1851-4.78075-8.7053-5.08995-.3567-.02378-.7373-.04757-1.0941-.04757-.3092 0-.7611-.02378-1.0703 0-6.18402.4757-11.0599 5.9462-11.0599 12.10643 0 6.1603 4.66182 11.5832 10.8697 12.0351.3092.0238.8562.0714 1.1654.0714s.5233-.0476.8325-.0714c6.1602-.4281 11.1313-5.637 11.1313-11.7972.0237-2.3785-.333-2.9969-.333-2.9969z" fill="url(#a)"/></svg>