<svg width="32" height="32" fill="none" xmlns="http://www.w3.org/2000/svg"><path d="M16 32c8.837 0 16-7.163 16-16S24.837 0 16 0 0 7.163 0 16s7.163 16 16 16Z" fill="#1A1B23"/><path d="M27.666 13.358c-.095.071-.547.428-3.497 2.616v.072c0 4.59-3.71 8.3-8.3 8.3-4.59 0-8.301-3.71-8.301-8.3 0-4.59 3.71-8.301 8.3-8.301a8.18 8.18 0 0 1 3.33.69 9.366 9.366 0 0 1 1.499.856l-7.373 6.636 2.783 2.402 6.873-6.565 2.95-2.616c-1.88-2.711-5.186-4.78-8.706-5.09a16.829 16.829 0 0 0-1.094-.047c-.309 0-.76-.024-1.07 0C8.876 4.486 4 9.957 4 16.117S8.662 27.7 14.87 28.152c.309.024.856.072 1.165.072.31 0 .523-.048.833-.072 6.16-.428 11.13-5.637 11.13-11.797.025-2.379-.332-2.997-.332-2.997Z" fill="url(#a)"/><defs><linearGradient id="a" x1="8.962" y1="7.646" x2="24.413" y2="26.12" gradientUnits="userSpaceOnUse"><stop offset=".388" stop-color="#6354FF"/><stop offset=".78" stop-color="#FA535A"/></linearGradient></defs></svg>