<svg fill="none" height="32" viewBox="0 0 32 32" width="32" xmlns="http://www.w3.org/2000/svg"><path d="m32 16c0 8.8366-7.1634 16-16 16-8.83656 0-16-7.1634-16-16 0-8.83656 7.16344-16 16-16 8.8366 0 16 7.16344 16 16z" fill="#151515"/><path clip-rule="evenodd" d="m27.6364 16.0019-1.7187-2.955h-4.7616l2.3827-4.09188-1.7187-2.95502h-3.4374l-2.3827 4.0919-2.3789-4.08814h-3.4374l-1.71868 2.95502 2.38268 4.09182h-4.76155l-1.7225 2.9513 1.7187 2.955h4.76155l-2.38267 4.0918 1.71867 2.9513h3.4374l2.3827-4.0918 2.3827 4.0918h.0341 3.4033l1.7187-2.9513-2.3827-4.0918h4.7616zm-4.9664-7.04688-2.3827 4.09188h-2.1323l3.4488-5.92136zm-3.8548-2.20591h2.1323l-3.4488 5.92509-1.0662-1.8332zm-1.7491 6.67419-1.0661 1.8332-3.665-6.29772 1.0661-1.83324zm-7.73224-4.46828 1.28234-2.20591h2.1323l-1.2824 2.20591 3.8813 6.67038h-2.1322zm-2.81519 4.84098h4.76153l1.0661 1.8332h-6.89376zm0 4.4118-1.06613-1.8332h6.89376l-1.0661 1.8332zm6.69653-1.8332h2.1322l-3.665 6.2977h-2.13228zm-.0304 8.8801h-2.5686l-1.06608-1.8333h2.56858l3.8813-6.6704 1.0661 1.8332zm5.6304 0-2.3827-4.0919 1.0662-1.8332 3.4488 5.9251zm3.8548-2.206-1.0662 1.8295-3.4488-5.9251h2.1323zm-4.9513-4.8409-1.0661-1.8332h7.3301l1.0661 1.8332zm6.7003-2.5786h-.0341-7.7285l1.0661-1.8332h7.7664l1.2824 2.2059-1.0699 1.8332z" fill="#ff3b80" fill-rule="evenodd"/></svg>