<svg xmlns="http://www.w3.org/2000/svg" width="32" height="32" fill="none"><path fill="#fff" d="M16 32c8.837 0 16-7.163 16-16S24.837 0 16 0 0 7.163 0 16s7.163 16 16 16Z"/><path fill="#12B29F" d="m16.52 4.793 2.555 2.559a.396.396 0 0 1 0 .52l-2.815 2.82a.395.395 0 0 1-.52 0l-2.815-2.82a.396.396 0 0 1 0-.52l2.555-2.56a.609.609 0 0 1 1.04 0Zm2.555 19.432a.396.396 0 0 1 0 .52l-2.555 2.56a.79.79 0 0 1-1.04 0l-2.555-2.56a.396.396 0 0 1 0-.52l2.815-2.69a.395.395 0 0 1 .52 0l2.815 2.69Zm-2.815-11.32 2.815 2.819a.396.396 0 0 1 0 .52l-2.815 2.82a.395.395 0 0 1-.52 0l-2.815-2.82a.396.396 0 0 1 0-.52l2.815-2.82a.394.394 0 0 1 .52 0Z"/><path fill="#234858" d="m12.015 8.783 2.816 2.82a.396.396 0 0 1 0 .52l-7.06 7.07a.394.394 0 0 1-.52 0l-2.556-2.559a.793.793 0 0 1 0-1.04l6.8-6.81a.395.395 0 0 1 .52 0Zm15.29 6.81a.793.793 0 0 1 0 1.041l-6.8 6.81a.395.395 0 0 1-.52 0l-2.816-2.82a.396.396 0 0 1 0-.52l7.06-7.07c.13-.13.39-.26.52-.13l2.556 2.69Zm-6.8-6.81 2.815 2.82a.396.396 0 0 1 0 .52l-2.815 2.82a.395.395 0 0 1-.52 0l-2.816-2.82a.396.396 0 0 1 0-.52l2.816-2.82c.13-.13.26-.13.52 0ZM14.83 20.104a.397.397 0 0 1 0 .52l-2.816 2.82a.395.395 0 0 1-.52 0l-2.815-2.95a.396.396 0 0 1 0-.52l2.815-2.82a.395.395 0 0 1 .52 0l2.816 2.95Z"/></svg>