<svg fill="none" height="32" viewBox="0 0 32 32" width="32" xmlns="http://www.w3.org/2000/svg"><path d="m16 32c8.8366 0 16-7.1634 16-16 0-8.83656-7.1634-16-16-16-8.83656 0-16 7.16344-16 16 0 8.8366 7.16344 16 16 16z" fill="#fff"/><path d="m16.5198 4.79279 2.5555 2.55921c.0629.07214.0975.16458.0975.26026 0 .09567-.0346.18811-.0975.26025l-2.8154 2.81939c-.072.0629-.1643.0976-.2599.0976s-.1879-.0347-.2599-.0976l-2.8154-2.81943c-.0629-.07214-.0975-.16458-.0975-.26025 0-.09568.0346-.18812.0975-.26026l2.5555-2.55917c.0542-.08937.1305-.16327.2215-.21456.0911-.05128.1938-.07823.2983-.07823s.2072.02695.2983.07823c.091.05129.1673.12519.2215.21456zm2.5555 19.43231c.0629.0722.0975.1646.0975.2603s-.0346.1881-.0975.2602l-2.5555 2.5592c-.144.1258-.3286.1952-.5198.1952s-.3759-.0694-.5198-.1952l-2.5555-2.5592c-.0629-.0721-.0975-.1645-.0975-.2602s.0346-.1881.0975-.2603l2.8154-2.6893c.072-.0629.1643-.0976.2599-.0976s.1879.0347.2599.0976zm-2.8154-11.321 2.8154 2.8194c.0629.0721.0975.1646.0975.2602 0 .0957-.0346.1881-.0975.2603l-2.8154 2.8194c-.072.0629-.1643.0976-.2599.0976s-.1879-.0347-.2599-.0976l-2.8154-2.8194c-.0629-.0721-.0975-.1646-.0975-.2603 0-.0956.0346-.1881.0975-.2602l2.8154-2.8194c.072-.063.1643-.0976.2599-.0976s.1879.0346.2599.0976z" fill="#12b29f"/><path d="m12.0151 8.78336 2.8154 2.81944c.0628.0721.0975.1646.0975.2602 0 .0957-.0347.1881-.0975.2603l-7.06027 7.0702c-.07196.063-.1643.0976-.25989.0976-.09558 0-.18792-.0346-.25988-.0976l-2.55555-2.5591c-.12568-.1443-.19491-.3292-.19491-.5205 0-.1914.06923-.3763.19491-.5205l6.80039-6.81003c.0719-.06292.1643-.0976.2599-.0976s.1879.03468.2599.0976zm15.29 6.81004c.1256.1442.1949.3291.1949.5205 0 .1913-.0693.3762-.1949.5205l-6.8004 6.81c-.072.0629-.1643.0975-.2599.0975s-.1879-.0346-.2599-.0975l-2.8154-2.8195c-.0629-.0721-.0975-.1646-.0975-.2602 0-.0957.0346-.1881.0975-.2603l7.0602-7.0702c.13-.1302.3899-.2603.5198-.1302zm-6.8004-6.81004 2.8154 2.81944c.0629.0721.0975.1646.0975.2602 0 .0957-.0346.1881-.0975.2603l-2.8154 2.8194c-.072.0629-.1643.0976-.2599.0976s-.1879-.0347-.2599-.0976l-2.8154-2.8194c-.0629-.0722-.0975-.1646-.0975-.2603 0-.0956.0346-.1881.0975-.2602l2.8154-2.81944c.13-.13013.2599-.13013.5198 0zm-5.6742 11.32104c.0628.0722.0974.1646.0974.2603s-.0346.1881-.0974.2602l-2.8155 2.8195c-.0719.0629-.1643.0976-.2599.0976-.0955 0-.1879-.0347-.2598-.0976l-2.81546-2.9496c-.06284-.0721-.09746-.1646-.09746-.2602 0-.0957.03462-.1882.09746-.2603l2.81546-2.8194c.0719-.0629.1643-.0976.2599-.0976s.1879.0347.2599.0976z" fill="#234858"/></svg>