<svg xmlns="http://www.w3.org/2000/svg" width="32" height="32" fill="none"><path fill="#496DDB" d="M15.991 31.982c8.832 0 15.991-7.16 15.991-15.991C31.982 7.159 24.822 0 15.991 0 7.159 0 0 7.16 0 15.991c0 8.832 7.16 15.991 15.991 15.991Z"/><path fill="#fff" d="M22.732 12.388c.071.466.125.932.179 1.416v.825h2.474a2.81 2.81 0 0 1 .556.035c.43.072.699.323.717.735v1.202c-.018.412-.287.663-.717.735-.184.03-.37.042-.556.035h-2.51v.807c-.054.484-.108.95-.18 1.416a4.777 4.777 0 0 1-.358 1.237h3.173c.377 0 .735.036.986.395a1.28 1.28 0 0 1-.412 1.757.661.661 0 0 1-.25.125 7.815 7.815 0 0 1-2.045.287c-2.85.054-5.772.072-7.744.072-2.33 0-5.45-.036-7.816-.09-.7-.018-1.38-.054-2.026-.287a.421.421 0 0 1-.251-.125 1.277 1.277 0 0 1-.412-1.757c.233-.359.591-.394.968-.394h3.137a5.74 5.74 0 0 1-.34-1.22 33.903 33.903 0 0 1-.18-1.416v-.825h-2.51a2.81 2.81 0 0 1-.556-.035c-.43-.072-.699-.323-.717-.735v-1.201c.018-.413.287-.664.717-.736.184-.03.37-.042.556-.035h2.51v-.807c.054-.484.107-.95.18-1.416.062-.427.183-.843.358-1.237H6.49c-.377 0-.735-.036-.986-.395A1.28 1.28 0 0 1 5.916 9a.662.662 0 0 1 .25-.125 7.849 7.849 0 0 1 2.027-.287c2.85-.054 5.772-.072 7.744-.072 2.33 0 5.468.036 7.816.09.7.018 1.38.054 2.026.287a.421.421 0 0 1 .251.125 1.277 1.277 0 0 1 .413 1.757c-.234.359-.592.395-.969.395h-3.137c.195.383.329.794.395 1.219Z"/><path fill="#496DDB" d="M19.451 17.371h-6.759c-.466 0-.466 0-.412.466.01.423.064.844.161 1.255a1.914 1.914 0 0 0 1.435 1.453 9.187 9.187 0 0 0 1.972.286 8.77 8.77 0 0 0 2.258-.287 1.913 1.913 0 0 0 1.435-1.452c.097-.411.151-.832.16-1.255.037-.394.037-.448-.25-.466Zm.125-4.463a1.915 1.915 0 0 0-1.434-1.453 9.187 9.187 0 0 0-1.972-.286 8.775 8.775 0 0 0-2.259.286 1.915 1.915 0 0 0-1.434 1.453 6.018 6.018 0 0 0-.161 1.255c-.036.394-.036.448.233.448h6.777c.466 0 .466 0 .412-.466a7.546 7.546 0 0 0-.162-1.237Z"/></svg>