<svg fill="none" height="32" viewBox="0 0 32 32" width="32" xmlns="http://www.w3.org/2000/svg"><path d="m15.991 31.9821c8.8316 0 15.9911-7.1595 15.9911-15.9911 0-8.83157-7.1595-15.991-15.9911-15.991-8.83157 0-15.991 7.15943-15.991 15.991 0 8.8316 7.15943 15.9911 15.991 15.9911z" fill="#496ddb"/><path d="m22.7317 12.3877c.0717.4661.1255.9322.1792 1.4162v.8247h2.474c.186-.0065.3721.0055.5557.0358.4303.0717.6992.3227.7171.735v1.2012c-.0179.4123-.2868.6633-.7171.735-.1836.0303-.3697.0424-.5557.0358h-2.5098v.8068c-.0538.484-.1076.9501-.1793 1.4162-.0631.4266-.1837.8427-.3585 1.237h3.1731c.3764 0 .735.0358.986.3944.177.2879.2331.6343.1558.9634-.0772.3291-.2815.6143-.5682.7934-.0737.0593-.1593.1021-.2509.1255-.6656.1856-1.3528.282-2.0437.2869-2.8505.0537-5.7726.0717-7.7446.0717-2.3305 0-5.4498-.0359-7.81622-.0897-.69916-.0179-1.3804-.0537-2.02577-.2868-.09555-.0119-.18413-.0562-.25098-.1255-.28748-.1784-.49237-.4637-.56968-.7931s-.02072-.676.15735-.9637c.23305-.3586.5916-.3944.96807-.3944h3.13725c-.15813-.3926-.27236-.8014-.34061-1.2191-.07171-.4661-.12549-.9322-.17927-1.4162v-.8247h-2.50981c-.18598.0065-.37214-.0055-.55574-.0358-.43025-.0718-.69916-.3227-.71709-.7351v-1.2011c.01793-.4123.28684-.6633.71709-.735.1836-.0304.36976-.0424.55574-.0358h2.50981v-.8068c.05378-.484.10756-.9501.17927-1.4162.06312-.4266.18373-.8427.35854-1.237h-3.17311c-.37647 0-.73501-.0358-.98599-.3944-.17708-.288-.23311-.6343-.15587-.96339.07725-.32912.28149-.61434.56819-.79346.07374-.05928.15932-.10207.25098-.1255.6597-.18431 1.34084-.28075 2.02577-.28683 2.85038-.05378 5.77258-.07171 7.74458-.07171 2.3305 0 5.4678.03586 7.8162.08964.6992.01792 1.3804.05378 2.0258.28683.0955.0119.1841.0562.251.12549.2874.17845.4923.46371.5696.79312s.0208.67601-.1573.96371c-.2331.3586-.5916.3944-.9681.3944h-3.1372c.1951.3829.3283.7944.3944 1.2191z" fill="#fff"/><g fill="#496ddb"><path d="m19.451 17.3714h-6.7586c-.4661 0-.4661 0-.4123.4661.0095.4228.0636.8435.1613 1.2549.0777.3527.2536.6763.5074.9332.2538.257.5751.4369.9268.5189.645.1669 1.3062.263 1.972.2869.7622.0029 1.5216-.0935 2.2588-.2869.3517-.082.6731-.2619.9269-.5189.2537-.2569.4296-.5805.5073-.9332.0977-.4114.1518-.8321.1613-1.2549.0359-.3944.0359-.4481-.2509-.4661z"/><path d="m19.5765 12.9075c-.0777-.3527-.2536-.6762-.5073-.9332-.2538-.2569-.5752-.4368-.9269-.5189-.645-.1668-1.3062-.263-1.972-.2868-.7622-.0029-1.5215.0935-2.2588.2868-.3517.0821-.673.262-.9268.5189-.2538.257-.4297.5805-.5074.9332-.0977.4115-.1518.8321-.1613 1.255-.0359.3943-.0359.4481.233.4481h6.7765c.4661 0 .4661 0 .4123-.4661-.0195-.416-.0735-.8298-.1613-1.237z"/></g></svg>