<svg xmlns="http://www.w3.org/2000/svg" width="32" height="32" fill="none"><path fill="#fff" d="M16 31.36c8.483 0 15.36-6.877 15.36-15.36S24.483.64 16 .64.64 7.517.64 16 7.517 31.36 16 31.36Z"/><path fill="#000" fill-rule="evenodd" d="M22.592 9.344a.489.489 0 0 1-.128-.32c0-.128.064-.192.128-.32a.581.581 0 0 1 .64 0 .489.489 0 0 1 .128.32c0 .128-.064.192-.128.32a.489.489 0 0 1-.32.128c-.128 0-.192 0-.32-.128Zm-1.088 1.216a.489.489 0 0 1-.128-.32c0-.128.064-.192.128-.32.128-.128.448-.128.576 0a.489.489 0 0 1 .128.32c0 .128-.064.192-.128.32a.489.489 0 0 1-.32.128c-.064-.064-.192-.064-.256-.128Zm-1.216 1.152a.489.489 0 0 1-.128-.32c0-.128.064-.192.128-.32.128-.128.448-.128.576 0a.489.489 0 0 1 .128.32c0 .128-.064.192-.128.32a.489.489 0 0 1-.32.128c-.128 0-.192-.064-.256-.128Zm-1.152 1.152a.489.489 0 0 1-.128-.32c0-.128.064-.192.128-.32a.581.581 0 0 1 .64 0 .489.489 0 0 1 .128.32.489.489 0 0 1-.128.32.489.489 0 0 1-.32.128c-.128 0-.192-.064-.32-.128Zm-1.088 1.152a.489.489 0 0 1-.128-.32c0-.128.064-.192.128-.32.128-.128.448-.128.576 0a.489.489 0 0 1 .128.32.489.489 0 0 1-.128.32c-.064.064-.192.064-.256.064-.128.064-.256 0-.32-.064Zm-1.344.832c0-.128.064-.192.128-.32.128-.128.448-.128.576 0a.489.489 0 0 1 .128.32c0 .128-.064.192-.128.32a.489.489 0 0 1-.32.128c-.128 0-.192-.064-.32-.128 0-.064-.064-.192-.064-.32Zm-2.112 2.56a.489.489 0 0 1-.128-.32c0-.128.064-.192.128-.32.128-.128.448-.128.576 0a.489.489 0 0 1 .128.32c0 .128-.064.192-.128.32a.489.489 0 0 1-.32.128.485.485 0 0 1-.256-.128Zm-1.216 1.152a.489.489 0 0 1-.128-.32c0-.128.064-.192.128-.32a.581.581 0 0 1 .64 0 .489.489 0 0 1 .128.32c0 .128-.064.192-.128.32s-.192.128-.32.128-.192-.064-.32-.128Zm-1.088 1.152a.489.489 0 0 1-.128-.32c0-.128.064-.256.128-.32.128-.128.448-.128.576 0a.489.489 0 0 1 .128.32c0 .128-.064.192-.128.32s-.192.128-.32.128a.485.485 0 0 1-.256-.128Zm-1.152 1.152a.489.489 0 0 1-.128-.32c0-.128.064-.192.128-.32.128-.128.448-.128.576 0a.489.489 0 0 1 .128.32.489.489 0 0 1-.128.32.489.489 0 0 1-.32.128c-.128 0-.192 0-.256-.128ZM9.92 22.016a.489.489 0 0 1-.128-.32c0-.128.064-.192.128-.32a.581.581 0 0 1 .64 0 .489.489 0 0 1 .128.32.489.489 0 0 1-.128.32.489.489 0 0 1-.32.128c-.128 0-.256 0-.32-.128Zm-1.088 1.152a.489.489 0 0 1-.128-.32c0-.128.064-.192.128-.32.128-.128.448-.128.576 0a.489.489 0 0 1 .128.32c0 .128-.064.192-.128.32a.489.489 0 0 1-.32.128.485.485 0 0 1-.256-.128Zm.576-13.824a.489.489 0 0 0 .128-.32c0-.128-.064-.192-.128-.32-.128-.128-.448-.128-.576 0a.489.489 0 0 0-.128.32c0 .128.064.192.128.32a.489.489 0 0 0 .32.128c.064 0 .192 0 .256-.128Zm1.152 1.216a.489.489 0 0 0 .128-.32c0-.128-.064-.192-.128-.32a.581.581 0 0 0-.64 0 .489.489 0 0 0-.128.32c0 .128.064.192.128.32a.489.489 0 0 0 .32.128c.128-.064.192-.064.32-.128Zm1.152 1.152a.489.489 0 0 0 .128-.32c0-.128-.064-.192-.128-.32-.128-.128-.448-.128-.576 0a.489.489 0 0 0-.128.32c0 .128.064.192.128.32a.489.489 0 0 0 .32.128c.064-.064.192-.064.256-.128Zm1.152 1.152a.489.489 0 0 0 .128-.32c0-.128-.064-.192-.128-.32-.128-.128-.448-.128-.576 0a.489.489 0 0 0-.128.32c0 .128.064.256.128.32a.489.489 0 0 0 .32.128c.064-.064.192-.064.256-.128Zm1.152 1.152a.489.489 0 0 0 .128-.32c0-.128-.064-.192-.128-.32-.128-.128-.448-.128-.64 0a.489.489 0 0 0-.128.32c0 .128.064.256.128.32a.489.489 0 0 0 .32.128.489.489 0 0 0 .32-.128Zm1.28.832c0-.128-.064-.192-.128-.32-.128-.128-.448-.128-.576 0a.489.489 0 0 0-.128.32c0 .128.064.192.128.32a.489.489 0 0 0 .32.128c.128 0 .192-.064.32-.128 0-.064.064-.192.064-.32Zm1.024 1.472a.489.489 0 0 0 .128-.32c0-.128-.064-.192-.128-.32-.128-.128-.448-.128-.576 0a.489.489 0 0 0-.128.32c0 .128.064.192.128.32a.489.489 0 0 0 .32.128.485.485 0 0 0 .256-.128Zm1.152 1.088a.489.489 0 0 0 .128-.32c0-.128-.064-.192-.128-.32a.581.581 0 0 0-.64 0 .489.489 0 0 0-.128.32c0 .128.064.192.128.32a.489.489 0 0 0 .32.128c.128 0 .192-.064.32-.128Zm1.152 1.152a.489.489 0 0 0 .128-.32c0-.128-.064-.192-.128-.32-.128-.128-.448-.128-.576 0a.489.489 0 0 0-.128.32c0 .128.064.192.128.32a.489.489 0 0 0 .32.128.485.485 0 0 0 .256-.128Zm1.152 1.152a.489.489 0 0 0 .128-.32c0-.128-.064-.192-.128-.256-.128-.128-.448-.128-.576 0a.489.489 0 0 0-.128.32c0 .128.064.192.128.32a.489.489 0 0 0 .32.128c.128 0 .192-.128.256-.192Zm1.088 1.152a.489.489 0 0 0 .128-.32c0-.128-.064-.192-.128-.32-.128-.128-.448-.128-.576 0a.489.489 0 0 0-.128.32c0 .128.064.256.128.32a.489.489 0 0 0 .32.128c.064 0 .192 0 .256-.128Zm1.216 1.152a.489.489 0 0 0 .128-.32c0-.128-.064-.192-.128-.32-.128-.128-.448-.128-.576 0a.489.489 0 0 0-.128.32c0 .128.064.256.128.32a.489.489 0 0 0 .32.128c.128 0 .192 0 .256-.128Zm1.152 1.152a.489.489 0 0 0 .128-.32c0-.128-.064-.192-.128-.32a.581.581 0 0 0-.64 0 .489.489 0 0 0-.128.32c0 .128.064.192.128.32a.489.489 0 0 0 .32.128.489.489 0 0 0 .32-.128ZM12.096 9.664c1.152-.768 2.432-1.152 3.904-1.152 1.408 0 2.688.384 3.904 1.152L22.4 7.168c-1.92-1.472-4.032-2.24-6.336-2.24-2.304 0-4.416.768-6.336 2.24l2.368 2.496ZM9.664 19.84c-.768-1.216-1.152-2.496-1.152-3.84 0-1.408.384-2.688 1.152-3.84L7.232 9.728c-1.472 1.92-2.176 3.968-2.176 6.336 0 2.304.704 4.416 2.176 6.336l2.432-2.56Zm10.24 2.496c-1.152.768-2.432 1.216-3.84 1.216s-2.752-.384-3.904-1.216l-2.496 2.432c1.92 1.472 4.032 2.24 6.4 2.24 2.304 0 4.416-.768 6.336-2.24l-2.496-2.432Zm2.368-10.24c.768 1.216 1.216 2.496 1.152 3.904 0 1.408-.384 2.624-1.152 3.776l2.496 2.432c1.472-1.92 2.24-3.968 2.24-6.272 0-2.368-.704-4.48-2.24-6.4l-2.496 2.56Zm2.624 11.008c.96 0 1.728.768 1.728 1.728a1.72 1.72 0 0 1-1.728 1.728 1.72 1.72 0 0 1-1.728-1.728c0-.96.768-1.728 1.728-1.728Zm-17.728 0c.96 0 1.728.768 1.728 1.728a1.72 1.72 0 0 1-1.728 1.728 1.72 1.72 0 0 1-1.728-1.728c0-.96.768-1.728 1.728-1.728ZM24.896 5.376c.96 0 1.728.768 1.728 1.728a1.72 1.72 0 0 1-1.728 1.728 1.72 1.72 0 0 1-1.728-1.728c0-.96.768-1.728 1.728-1.728Zm-17.792 0c.96 0 1.728.768 1.728 1.728a1.72 1.72 0 0 1-1.728 1.728 1.72 1.72 0 0 1-1.728-1.728c0-.96.768-1.728 1.728-1.728Z" clip-rule="evenodd"/></svg>