<svg width="32" height="32" fill="none" xmlns="http://www.w3.org/2000/svg"><path d="M16 31.36c8.483 0 15.36-6.877 15.36-15.36S24.483.64 16 .64.64 7.517.64 16 7.517 31.36 16 31.36Z" fill="#fff"/><path fill-rule="evenodd" clip-rule="evenodd" d="M22.592 9.344a.489.489 0 0 1-.128-.32c0-.128.064-.192.128-.32a.581.581 0 0 1 .64 0 .489.489 0 0 1 .128.32c0 .128-.064.192-.128.32a.489.489 0 0 1-.32.128c-.128 0-.192 0-.32-.128ZM21.504 10.56a.489.489 0 0 1-.128-.32c0-.128.064-.192.128-.32.128-.128.448-.128.576 0a.489.489 0 0 1 .128.32c0 .128-.064.192-.128.32a.489.489 0 0 1-.32.128c-.064-.064-.192-.064-.256-.128ZM20.288 11.712a.489.489 0 0 1-.128-.32c0-.128.064-.192.128-.32.128-.128.448-.128.576 0a.489.489 0 0 1 .128.32c0 .128-.064.192-.128.32a.489.489 0 0 1-.32.128c-.128 0-.192-.064-.256-.128ZM19.136 12.864a.489.489 0 0 1-.128-.32c0-.128.064-.192.128-.32a.581.581 0 0 1 .64 0 .489.489 0 0 1 .128.32.489.489 0 0 1-.128.32.489.489 0 0 1-.32.128c-.128 0-.192-.064-.32-.128ZM18.048 14.016a.489.489 0 0 1-.128-.32c0-.128.064-.192.128-.32.128-.128.448-.128.576 0a.489.489 0 0 1 .128.32.489.489 0 0 1-.128.32c-.064.064-.192.064-.256.064-.128.064-.256 0-.32-.064ZM16.704 14.848c0-.128.064-.192.128-.32.128-.128.448-.128.576 0a.489.489 0 0 1 .128.32c0 .128-.064.192-.128.32a.489.489 0 0 1-.32.128c-.128 0-.192-.064-.32-.128 0-.064-.064-.192-.064-.32ZM14.592 17.408a.489.489 0 0 1-.128-.32c0-.128.064-.192.128-.32.128-.128.448-.128.576 0a.489.489 0 0 1 .128.32c0 .128-.064.192-.128.32a.489.489 0 0 1-.32.128.485.485 0 0 1-.256-.128ZM13.376 18.56a.489.489 0 0 1-.128-.32c0-.128.064-.192.128-.32a.581.581 0 0 1 .64 0 .489.489 0 0 1 .128.32c0 .128-.064.192-.128.32s-.192.128-.32.128-.192-.064-.32-.128ZM12.288 19.712a.489.489 0 0 1-.128-.32c0-.128.064-.256.128-.32.128-.128.448-.128.576 0a.489.489 0 0 1 .128.32c0 .128-.064.192-.128.32s-.192.128-.32.128a.485.485 0 0 1-.256-.128ZM11.136 20.864a.489.489 0 0 1-.128-.32c0-.128.064-.192.128-.32.128-.128.448-.128.576 0a.489.489 0 0 1 .128.32.489.489 0 0 1-.128.32.489.489 0 0 1-.32.128c-.128 0-.192 0-.256-.128ZM9.92 22.016a.489.489 0 0 1-.128-.32c0-.128.064-.192.128-.32a.581.581 0 0 1 .64 0 .489.489 0 0 1 .128.32.489.489 0 0 1-.128.32.489.489 0 0 1-.32.128c-.128 0-.256 0-.32-.128ZM8.832 23.168a.489.489 0 0 1-.128-.32c0-.128.064-.192.128-.32.128-.128.448-.128.576 0a.489.489 0 0 1 .128.32c0 .128-.064.192-.128.32a.489.489 0 0 1-.32.128.485.485 0 0 1-.256-.128ZM9.408 9.344a.489.489 0 0 0 .128-.32c0-.128-.064-.192-.128-.32-.128-.128-.448-.128-.576 0a.489.489 0 0 0-.128.32c0 .128.064.192.128.32a.489.489 0 0 0 .32.128c.064 0 .192 0 .256-.128ZM10.56 10.56a.489.489 0 0 0 .128-.32c0-.128-.064-.192-.128-.32a.581.581 0 0 0-.64 0 .489.489 0 0 0-.128.32c0 .128.064.192.128.32a.489.489 0 0 0 .32.128c.128-.064.192-.064.32-.128ZM11.712 11.712a.489.489 0 0 0 .128-.32c0-.128-.064-.192-.128-.32-.128-.128-.448-.128-.576 0a.489.489 0 0 0-.128.32c0 .128.064.192.128.32a.489.489 0 0 0 .32.128c.064-.064.192-.064.256-.128ZM12.864 12.864a.489.489 0 0 0 .128-.32c0-.128-.064-.192-.128-.32-.128-.128-.448-.128-.576 0a.489.489 0 0 0-.128.32c0 .128.064.256.128.32a.489.489 0 0 0 .32.128c.064-.064.192-.064.256-.128ZM14.016 14.016a.489.489 0 0 0 .128-.32c0-.128-.064-.192-.128-.32-.128-.128-.448-.128-.64 0a.489.489 0 0 0-.128.32c0 .128.064.256.128.32a.489.489 0 0 0 .32.128.489.489 0 0 0 .32-.128ZM15.296 14.848c0-.128-.064-.192-.128-.32-.128-.128-.448-.128-.576 0a.489.489 0 0 0-.128.32c0 .128.064.192.128.32a.489.489 0 0 0 .32.128c.128 0 .192-.064.32-.128 0-.064.064-.192.064-.32ZM16.32 16.32a.489.489 0 0 0 .128-.32c0-.128-.064-.192-.128-.32-.128-.128-.448-.128-.576 0a.489.489 0 0 0-.128.32c0 .128.064.192.128.32a.489.489 0 0 0 .32.128.485.485 0 0 0 .256-.128ZM17.472 17.408a.489.489 0 0 0 .128-.32c0-.128-.064-.192-.128-.32a.581.581 0 0 0-.64 0 .489.489 0 0 0-.128.32c0 .128.064.192.128.32a.489.489 0 0 0 .32.128c.128 0 .192-.064.32-.128ZM18.624 18.56a.489.489 0 0 0 .128-.32c0-.128-.064-.192-.128-.32-.128-.128-.448-.128-.576 0a.489.489 0 0 0-.128.32c0 .128.064.192.128.32a.489.489 0 0 0 .32.128.485.485 0 0 0 .256-.128ZM19.776 19.712a.489.489 0 0 0 .128-.32c0-.128-.064-.192-.128-.256-.128-.128-.448-.128-.576 0a.489.489 0 0 0-.128.32c0 .128.064.192.128.32a.489.489 0 0 0 .32.128c.128 0 .192-.128.256-.192ZM20.864 20.864a.489.489 0 0 0 .128-.32c0-.128-.064-.192-.128-.32-.128-.128-.448-.128-.576 0a.489.489 0 0 0-.128.32c0 .128.064.256.128.32a.489.489 0 0 0 .32.128c.064 0 .192 0 .256-.128ZM22.08 22.016a.489.489 0 0 0 .128-.32c0-.128-.064-.192-.128-.32-.128-.128-.448-.128-.576 0a.489.489 0 0 0-.128.32c0 .128.064.256.128.32a.489.489 0 0 0 .32.128c.128 0 .192 0 .256-.128ZM23.232 23.168a.489.489 0 0 0 .128-.32c0-.128-.064-.192-.128-.32a.581.581 0 0 0-.64 0 .489.489 0 0 0-.128.32c0 .128.064.192.128.32a.489.489 0 0 0 .32.128.489.489 0 0 0 .32-.128ZM12.096 9.664c1.152-.768 2.432-1.152 3.904-1.152 1.408 0 2.688.384 3.904 1.152L22.4 7.168c-1.92-1.472-4.032-2.24-6.336-2.24-2.304 0-4.416.768-6.336 2.24l2.368 2.496ZM9.664 19.84c-.768-1.216-1.152-2.496-1.152-3.84 0-1.408.384-2.688 1.152-3.84L7.232 9.728c-1.472 1.92-2.176 3.968-2.176 6.336 0 2.304.704 4.416 2.176 6.336l2.432-2.56ZM19.904 22.336c-1.152.768-2.432 1.216-3.84 1.216s-2.752-.384-3.904-1.216l-2.496 2.432c1.92 1.472 4.032 2.24 6.4 2.24 2.304 0 4.416-.768 6.336-2.24l-2.496-2.432ZM22.272 12.096c.768 1.216 1.216 2.496 1.152 3.904 0 1.408-.384 2.624-1.152 3.776l2.496 2.432c1.472-1.92 2.24-3.968 2.24-6.272 0-2.368-.704-4.48-2.24-6.4l-2.496 2.56ZM24.896 23.104c.96 0 1.728.768 1.728 1.728a1.72 1.72 0 0 1-1.728 1.728 1.72 1.72 0 0 1-1.728-1.728c0-.96.768-1.728 1.728-1.728ZM7.168 23.104c.96 0 1.728.768 1.728 1.728a1.72 1.72 0 0 1-1.728 1.728 1.72 1.72 0 0 1-1.728-1.728c0-.96.768-1.728 1.728-1.728ZM24.896 5.376c.96 0 1.728.768 1.728 1.728a1.72 1.72 0 0 1-1.728 1.728 1.72 1.72 0 0 1-1.728-1.728c0-.96.768-1.728 1.728-1.728ZM7.104 5.376c.96 0 1.728.768 1.728 1.728a1.72 1.72 0 0 1-1.728 1.728 1.72 1.72 0 0 1-1.728-1.728c0-.96.768-1.728 1.728-1.728Z" fill="#000"/></svg>