<svg width="32" height="32" fill="none" xmlns="http://www.w3.org/2000/svg"><path d="M16 32c8.837 0 16-7.163 16-16S24.837 0 16 0 0 7.163 0 16s7.163 16 16 16Z" fill="#fff"/><path d="M21.903 20.098a4.098 4.098 0 1 0 0-8.196 4.098 4.098 0 0 0 0 8.196ZM15.608 16.732a1.138 1.138 0 0 0-.585.439c-.073.073-.073.146-.146.22-.095.21-.218.407-.366.585-.291.307-.64.556-1.025.732-.731.366-2.195-.22-2.853-.513a.56.56 0 0 0-.366-.146 3.065 3.065 0 1 0 1.61 4.025c.073-.147.073-.293.146-.44a3.465 3.465 0 0 1 1.61-2.487 3.117 3.117 0 0 1 1.83-.073 1.203 1.203 0 0 0 1.536-.805 1.31 1.31 0 0 0-.366-1.318c-.073-.292-.585-.366-1.024-.22ZM16.56 25.879a2.049 2.049 0 1 0 0-4.098 2.049 2.049 0 0 0 0 4.098ZM16.56 10.219a2.049 2.049 0 1 0 0-4.098 2.049 2.049 0 0 0 0 4.098ZM16.56 12.78a.867.867 0 0 0-.731-.073c-.073 0-.147.073-.22.073-.21.084-.432.133-.658.147a7.209 7.209 0 0 1-1.244-.147c-.805-.22-1.39-1.756-1.683-2.415 0-.146-.074-.22-.147-.366a2.975 2.975 0 0 0-4.024-1.536 3.036 3.036 0 0 0-1.537 4.024 3.092 3.092 0 0 0 4.025 1.61l.439-.22a3.567 3.567 0 0 1 2.854-.658 3.371 3.371 0 0 1 1.39 1.244 1.195 1.195 0 0 0 2.122-1.097c-.073-.293-.293-.44-.585-.586Z" fill="#2B5EB9"/></svg>