<svg xmlns="http://www.w3.org/2000/svg" width="32" height="32" fill="none"><defs><radialGradient id="elon__b" cx="0" cy="0" r="1" gradientTransform="translate(15.982 14.83) scale(11.5778)" gradientUnits="userSpaceOnUse"><stop stop-color="#FBEFC2"/><stop offset="1" stop-color="#FAB162"/></radialGradient><radialGradient id="elon__d" cx="0" cy="0" r="1" gradientTransform="translate(15.948 25.175) scale(9.59773)" gradientUnits="userSpaceOnUse"><stop stop-color="#fff"/><stop offset=".46" stop-color="#FCFDFD"/><stop offset=".73" stop-color="#F4F6F7"/><stop offset=".95" stop-color="#E6EAEE"/><stop offset="1" stop-color="#E2E7EB"/></radialGradient><linearGradient id="elon__c" x1="16.909" x2="16.909" y1="1.783" y2="8.192" gradientUnits="userSpaceOnUse"><stop stop-color="#74695C"/><stop offset="1" stop-color="#584B44"/></linearGradient><clipPath id="elon__a"><path fill="#fff" d="M0 0h27.81v30H0z" transform="translate(2 1)"/></clipPath></defs><path fill="#fff" d="M32 16c0 8.837-7.163 16-16 16S0 24.837 0 16 7.163 0 16 0s16 7.163 16 16Z"/><g clip-path="url(#elon__a)"><path fill="url(#elon__b)" d="M4.966 23.734c-.488-.548-1.397-1.644-1.397-1.644s-.626-.88-.83-.96a6.78 6.78 0 0 1 .168-.171c.256-.253.545-.54.684-.945.15-.447.266-.903.35-1.367.057-.28.115-.567.188-.843 0 0 .473-2.752.473-3.576v-.233a3.538 3.538 0 0 0-.105-.82c-.068-.327-.132-.636-.059-.93.08-.355.293-.655.527-.976.098-.135.196-.275.293-.421 0 0 .177-2.87.21-3.097.09-.63.184-1.28.378-1.884.053-.156.214-.538.545-.64.094-.02.19-.03.286-.03.234.011.466.044.693.099.123.024.251.049.379.068 0 0 14.51 1.733 14.495 1.826.03.61.21.69.57.13 0 0 .274-2.195 3.018-2.05.593.14.914.916.99 4.393-.017.836.182 4.733 1.505 9.091 0 0 .168 1.146.414 1.592.135.228.3.438.488.625l-.72 1.102-.415.307S6.99 25.948 4.966 23.734Z"/><path fill="#61554C" d="M21.918 3.191c.72.26 1.403.795 1.637 1.548.223.8-.068 1.645-.506 2.315.216-.918.142-1.912-.314-2.75-.197-.42-.53-.75-.817-1.113Z"/><path fill="#584A45" d="m10.905 4.28.263.077a8.115 8.115 0 0 0 1.347 2.466c.34.416.756.763 1.228 1.02.013.056 0 .09.053.145.052.056.536.338.735.468a6.662 6.662 0 0 1-1.187-.066 1.738 1.738 0 0 1-.515-.208c.092-.097.345-.141.209-.305-.326-.23-.702-.4-.976-.7a4.171 4.171 0 0 1-1.157-2.897Z"/><path fill="url(#elon__c)" d="M22.3 5.538a3.477 3.477 0 0 0-.555-1.239c-.64-.879-1.752-1.257-2.804-1.306-1.18-.053-2.37.045-3.535-.196a4.482 4.482 0 0 0 1.763.489 5.621 5.621 0 0 1 2.587.953c.824.552 1.7 1.22 1.923 2.245-.034.156 0 .373-.208.404-.132-.144-.154-.343-.205-.522-.12-.552-.532-.976-.963-1.315a9.895 9.895 0 0 0-.93-.648 4.822 4.822 0 0 0-1.616-.67c-1.217-.292-2.476-.103-3.71-.247-.535-.057-1.068-.256-1.454-.639-.306-.293-.465-.689-.649-1.06-.342.747-.62 1.57-.459 2.4.05.22.119.436.205.645.51 1.06 1.153 2.181 2.254 2.715.157.069.105.38.023.39a7.494 7.494 0 0 0 1.55.24c.925.038 1.867.035 2.768-.202-.41-.158-.836-.285-1.218-.508.76.054 1.495.33 2.263.303a.657.657 0 0 0 .372-.13c-.42-.035-.842-.04-1.26-.086a6.429 6.429 0 0 1-4.462-2.983c.01-.05.034-.15.045-.196l.195-.039.202.293c.32.477.707.905 1.15 1.271 1.056.844 2.408 1.408 3.776 1.33-.467-.261-.995-.367-1.493-.552.142-.333.518-.19.781-.119.76.22 1.43.67 1.993 1.217l.214-.553c.332.08.408.45.56.708l.362-.258.25.127c.252-.721.489-1.498.285-2.262Z"/><path fill="#574A44" d="M12.328 7.862c-.794-.557-1.299-1.424-1.601-2.329a4.16 4.16 0 0 1-.135-1.388 3.567 3.567 0 0 1-.673-.756 2.77 2.77 0 0 0-.475 1.997c.103.463.302.898.586 1.278a8.577 8.577 0 0 0 2.027 1.874c.174.01.35.021.524.034-.134-.218-.27-.444-.253-.71Z"/><path fill="#544842" d="M10.592 8.848c.364-.052.73-.098 1.098-.121-.98-.789-2.022-1.633-2.465-2.845-.056-.747-.607-1.29-.802-1.993-.352.929-.33 2.014.183 2.88.325.501.794.89 1.288 1.219.278.195.608.293.879.502-.051.097-.098.195-.149.293-.012.013-.032.047-.032.065Zm14.39 4.079c.819-.012 1.511.452 2.252.73.191.234.369.48.532.734a8.995 8.995 0 0 1-2.784-1.464Z"/><path fill="#514742" d="M7.657 7.435a4.763 4.763 0 0 0 2.698 1.236c-.718.425-1.862.39-2.37-.365a2.095 2.095 0 0 1-.328-.87Z"/><path fill="#85775A" d="M3.007 9.455a4.178 4.178 0 0 0 2.157-.522c-.024.47-.017.942-.008 1.413-.713.15-1.498.145-2.148-.222a4.421 4.421 0 0 0 2.019-.293c.097-.111.084-.205-.055-.28-.647.019-1.356.21-1.965-.096Z"/><path fill="#695B50" d="M23.627 9.85c.578-.125 1.171-.269 1.767-.142.566.106 1.149.182 1.68.414-.586.127-1.182.093-1.773.073.02.107-.048.3.11.324.407.13.842.125 1.262.2-1.058.368-2.388.083-3.046-.868Z"/><path fill="#5F534D" d="M26.887 11.008c.44-.137.851-.347 1.28-.514a.55.55 0 0 1-.274.533c-.806.497-1.81.548-2.723.381a1.345 1.345 0 0 1-.879-.525c.801.405 1.753.416 2.596.125Z"/><path fill="#725B32" d="M4.613 12.136c.16-.368.412-.683.645-1.011.112.52.19 1.046.335 1.562.066.272.206.558.066.83-.495-.195-.524-.808-.528-1.27a.179.179 0 0 0-.311.153c-.085.567.195 1.125.633 1.47-.037.134-.072.268-.11.402-.651-.468-1-1.36-.73-2.136Z"/><path fill="#594F48" d="M24.847 11.667c.92.267 1.901.195 2.81-.08-.152.239-.32.47-.493.694a46.378 46.378 0 0 0-2.36-.335 1.223 1.223 0 0 1-.509-.163c.177-.043.362-.088.552-.116Z"/><path fill="#564B44" d="M25.085 12.347c.73.03 1.45.178 2.169.3.186-.231.46-.294.748-.278-.139.145-.285.283-.414.436.025.17.208.179.332.238l-.162.248c.08.098.167.196.249.303-.997-.358-1.955-.816-2.922-1.247Z"/><path fill="#544741" d="M26.027 14.014c.26.135.518.269.773.411l-.069.432a2.024 2.024 0 0 1-1.223-.62c.174-.073.346-.149.52-.223Z"/><path fill="#664E1B" d="M4.725 14.204c.183.148.363.298.543.449a39.85 39.85 0 0 0-.371 2.929c-.195-.797-.137-1.629-.152-2.441a9.055 9.055 0 0 1-.02-.938Z"/><path fill="#514842" d="M27.12 14.533c.2.058.396.133.585.224.293.334.497.734.742 1.103-.163-.016-.474-.211-.51.067.042.428.195.844.154 1.28-.196-.533-.205-1.138-.451-1.643l-.208.044c-.155.662-.142 1.367-.428 1.995a51.98 51.98 0 0 1 .115-3.07Z"/><path fill="#010001" d="M9.067 18.551c.174-.302.534-.384.834-.508.97-.057 2.005.028 2.847.556.418.31.311.93-.057 1.235-.586.344-1.298.379-1.963.342-.522-.057-1.074-.166-1.49-.507a.865.865 0 0 1-.171-1.118Zm.813-.08c-.083.236.234.364.396.22.091-.11.037-.25.022-.376-.148-.005-.39-.05-.418.156Zm10.299-.238c.732-.166 1.485-.267 2.235-.172.23.093.45.209.657.347.308.365.263.878-.02 1.246-.976.65-2.264.66-3.356.314-.374-.202-.664-.642-.505-1.074.196-.37.627-.509.989-.661Zm.55.076c-.313.08-.137.568.162.428.277-.092.126-.553-.162-.428Z"/><path fill="#fff" d="M23.64 6.707c.451-.332 1.217-.533 1.635-.055.569.804.44 1.844.456 2.772l-.135-.02c-.816-.187-1.634.03-2.43.204a3.14 3.14 0 0 0-1.074-.57l.259-.147a1.14 1.14 0 0 1 .195-.481c.387-.551.79-1.098 1.093-1.703Zm-5.748 9.309c.404-.513.977-.913 1.628-1.014a9.35 9.35 0 0 1 1.498.006c.4.127.785.295 1.15.502a4.078 4.078 0 0 0-1.784 1.046c-.268.235-.555.449-.845.657-.447.142-.977.187-1.358-.135-.33-.246-.28-.7-.289-1.062Z"/><path fill="#FEFFFE" d="M7.089 6.523c.312-.188.683-.046 1.01 0 .276.684.834 1.172 1.399 1.614-.84-.255-1.611-.805-1.999-1.609-.114.043-.31.034-.25.213.035.732.16 1.556.734 2.072.497.454 1.219.513 1.855.415-.503.123-.913.462-1.316.765-.635.495-1.162 1.109-1.68 1.72-.292-1.338-.469-2.717-.332-4.086.079-.407.193-.882.579-1.104Z"/><path fill="#FEFFFD" d="M9.891 15.95a3.306 3.306 0 0 1 2.36-.182c.385.218.848.459.941.935.098.575-.425 1.134-1.002 1.13-.536.046-1.01-.24-1.456-.494a3.35 3.35 0 0 0-1.256-.557c-.21-.033-.42-.052-.632-.075.075-.098.141-.206.213-.309.277-.149.545-.318.832-.449Z"/><path fill="#FCFDFE" d="M9.88 18.471c.03-.207.27-.16.418-.156.015.126.07.266-.022.377-.162.143-.479.015-.396-.22Z"/><path fill="#FFFCF9" d="M20.729 18.31c.293-.127.44.335.162.427-.299.14-.475-.349-.162-.428Z"/><path fill="#FCFCFC" d="M15.256 22.02c.385-.312.906.39.439.63-.388.267-.802-.365-.439-.63Z"/><path fill="url(#elon__d)" d="m28.374 21.916-.051-.23c-.038-.391-.06-.79-.204-1.16-.467-.678-1.343-.847-2.113-.737-.822.212-1.527.7-2.235 1.147-.358.23-.574.417-1.03.6 0 0-1.15.495-1.757.482-.64-.05-1.2-.397-1.758-.69a13.285 13.285 0 0 1-1.292-.76c-.546-.24-1.147-.33-1.736-.385a6.226 6.226 0 0 0-1.98.405c-.512.205-.755.458-1.149.659-.53.287-1.05.63-1.66.735-.586.116-1.71-.337-1.71-.337-.458-.177-.825-.422-1.251-.668a15.016 15.016 0 0 0-1.695-1.003c-.656-.232-1.42-.327-2.065-.01-.373.173-.69.53-.735.954-.034.147-.037.31-.115.444-.101.09-.212.166-.331.228.157-.006.313.024.458.088l-.08.24a.293.293 0 0 0-.032.117.265.265 0 0 0 .027.135c.773 1.229 1.809 2.269 2.896 3.222a19.192 19.192 0 0 0 2.477 1.77c1.332.81 2.788 1.385 4.246 1.924.835.34 1.757.684 2.291 1.456v-.37c.276-.117.434.23.547.42l.023-.024c.238-.267.5-.513.782-.733.613-.448 1.34-.692 2.041-.96 1.472-.534 2.905-1.19 4.215-2.051.6-.383 1.174-.803 1.723-1.256 1.269-1.04 2.428-2.229 3.278-3.638l-.025-.014Zm-11.601 5.606c-.413.16-.843.044-1.24-.103.018-.13-.025-.275.061-.39a1.464 1.464 0 0 1 1.045-.013c.216.077.146.335.134.506Zm2.57-1.71c-.397-.018-.782-.149-1.172-.18-1.27.363-2.683.495-3.925-.024-.418.067-.832.203-1.258.195-.293-.137-.328-.602.01-.704a16.92 16.92 0 0 0 2.574-.644c-.293-.383-.609-.753-.89-1.146-.234-.385-.31-.997.106-1.289.445-.378 1.067-.308 1.61-.308.433 0 .895.12 1.171.473.207.314.133.727-.016 1.049-.255.422-.631.76-.88 1.19.88.332 1.811.507 2.735.684.355.117.28.647-.066.703Z"/><path fill="#000" d="M14.79 22.02c.446-.378 1.068-.308 1.61-.308.434 0 .896.12 1.172.473.207.314.133.727-.017 1.049-.254.422-.63.76-.878 1.19.878.332 1.81.507 2.734.684.348.119.273.649-.073.706-.396-.018-.78-.149-1.171-.18-1.27.363-2.683.495-3.925-.024-.418.067-.832.204-1.258.195-.293-.137-.328-.602.01-.704a16.926 16.926 0 0 0 2.578-.646c-.293-.383-.609-.753-.89-1.146-.233-.385-.308-.997.108-1.289Zm.468 0c-.363.269.05.898.439.63.465-.237-.056-.942-.44-.63h.001Zm.89 2.987c-.42.206-.878.315-1.316.472.88.202 1.78.157 2.658.005-.445-.172-.91-.282-1.343-.478l.002.001Z"/><path fill="#050505" d="M29.262 20.625c-.467-.63-.609-1.42-.835-2.155-.105-.257.036-.523.029-.782.037-.497-.058-.989-.131-1.478.23.104.455.221.673.35a.172.172 0 0 0 .128-.293c-.293-.454-.586-.917-.907-1.353.218.056.37-.044.36-.273-.27-.083-.545-.156-.813-.252a8.997 8.997 0 0 1-2.784-1.464c.819-.013 1.511.452 2.252.729.352.146.702.293 1.058.433.11.03.26.12.355.008.069-.303-.241-.518-.39-.746.195-.113.574-.097.585-.384-.177-.196-.48-.159-.713-.24.225-.196.477-.368.654-.61a.228.228 0 0 0-.284-.16c-.252.027-.502.071-.753.107.146-.234.264-.485.35-.747.184-.181.399-.384.391-.662.026-.285-.288-.445-.23-.74-.233-.097-.5-.047-.746-.072.122-.118.3-.195.352-.37-.207-.273-.604-.071-.898-.111a9.434 9.434 0 0 0-.05-1.187c.154-.085.45-.098.416-.347-.085-.183-.293-.045-.437-.032l-.03-.53c.226-.254.558-.527.533-.897-.188-.195-.453.068-.659.119-.128-.501-.212-1.185-.78-1.372-.656-.152-1.326.053-1.973.16a2.465 2.465 0 0 0-.86-1.747c-.629-.555-1.45-.823-2.245-1.04-.226-.111-.372.319-.132.375a3.515 3.515 0 0 1 2.017 2.532c0 .384 0 .768.035 1.152-.117.357-.214.724-.322 1.085.18-.568.265-1.162.253-1.758-.181-1.113-.803-2.215-1.838-2.734-.992-.514-2.14-.465-3.222-.5-1.201.029-2.441-.097-3.537-.617a.675.675 0 0 0-.235.227c.443.396.947.717 1.493.952-.64.013-1.303.034-1.913-.195a1.869 1.869 0 0 1-1.2-1.535c-.022-.17-.007-.361-.169-.47a.867.867 0 0 0-.26.293c-.46.824-.809 1.747-.753 2.706-.256-.138-.518-.285-.694-.524-.173-.2-.213-.498-.456-.634a3.4 3.4 0 0 0-.855 1.757c-.293-.434-.334-.964-.397-1.464l-.213-.05c-.42.603-.61 1.348-.635 2.077a4.173 4.173 0 0 0-1.424-.137c-.454.083-.707.533-.821.942a14.027 14.027 0 0 0-.419 2.53 3.356 3.356 0 0 1-3.033.437l-.13.062c-.091.335.331.488.538.673-.192-.011-.5-.183-.558.113.753.879 2.058 1.18 3.162.908-.416.586-.967 1.159-.984 1.918-.032.435.202.831.196 1.264.023.635.005 1.27-.054 1.903-.098.688-.412 1.332-.792 1.908-.156.26-.405.436-.652.6.063.125.18.316.34.174.324-.17.526-.488.747-.764-.342.92-.24 1.999-.858 2.81-.187.279-.496.439-.702.7.046.268.358.13.54.174l-.187.098c.21.405.714.5 1.13.447l.078-.24a1.045 1.045 0 0 0-.457-.088 1.63 1.63 0 0 0 .33-.228 8 8 0 0 0-.034-.195l-.247-.098.225-.142a9.73 9.73 0 0 0-.03-.336c-.17.092-.341.186-.508.286.89-1.037.672-2.501 1.237-3.673.08.674.165 1.352.364 2.003l.251-.027c.171-1.66.238-3.339.622-4.969.064-.329.275-.6.38-.912-.08-.427-.23-.84-.314-1.269-.455-1.935-.378-3.973.122-5.888.09-.313.227-.694.579-.787.46-.067.921.052 1.366.156.053.344.136.682.248 1.012.277.683.835 1.171 1.4 1.613-.84-.254-1.611-.805-2-1.609-.113.043-.309.035-.249.213.035.733.16 1.557.734 2.072.497.454 1.219.513 1.855.415l.139-.021A3.48 3.48 0 0 0 10.52 9l.072-.152.033-.069c.048-.098.098-.195.149-.293-.27-.206-.6-.31-.88-.502-.497-.328-.962-.717-1.29-1.223-.514-.865-.536-1.953-.184-2.88.195.703.746 1.246.802 1.993.445 1.217 1.488 2.06 2.464 2.85.152.06.377.234.477.131.1-.102.016-.237-.11-.321a8.576 8.576 0 0 1-2.02-1.87 3.352 3.352 0 0 1-.586-1.279 2.77 2.77 0 0 1 .475-1.997c.186.283.412.538.67.757-.034.467.01.936.132 1.389.303.905.807 1.772 1.601 2.328.166.11.335.213.501.32.092-.097.345-.141.209-.305-.326-.23-.702-.4-.976-.7a4.172 4.172 0 0 1-1.154-2.897l.263.077a8.115 8.115 0 0 0 1.347 2.466c.34.416.756.763 1.228 1.02a.586.586 0 0 0 .255.098.195.195 0 0 0 .2-.243c-.03-.055-.152-.11-.25-.156-1.101-.533-1.745-1.654-2.255-2.714a4.144 4.144 0 0 1-.204-.645c-.162-.83.116-1.654.46-2.4.183.37.342.769.648 1.06.39.382.92.585 1.453.638 1.232.145 2.49-.046 3.71.248a4.822 4.822 0 0 1 1.616.684c.323.198.633.414.931.648.43.338.844.763.963 1.315.051.179.073.378.205.522.21-.03.174-.248.208-.404-.224-1.027-1.099-1.695-1.923-2.245a5.622 5.622 0 0 0-2.587-.953 4.481 4.481 0 0 1-1.763-.488c1.165.236 2.355.138 3.535.195 1.052.049 2.164.423 2.804 1.306.265.373.453.794.555 1.24.2.763-.034 1.54-.28 2.261l-.258-.127-.366.25c-.152-.258-.228-.628-.56-.708l-.214.552c-.563-.548-1.233-.998-1.992-1.216-.26-.072-.635-.215-.782.118.498.185 1.026.293 1.493.552-1.367.079-2.72-.488-3.776-1.33a5.979 5.979 0 0 1-1.148-1.28l-.202-.292-.195.039c-.01.05-.034.15-.045.195a6.428 6.428 0 0 0 4.462 2.984c.418.046.84.05 1.26.085l.144-.09c.41.244.618.74 1.074.904.022-.184.04-.368.058-.553.106.176.209.355.312.533l.408-.24c.05.266.064.546.177.795l.218.055.259-.148c.027-.173.094-.337.195-.481.39-.55.794-1.097 1.097-1.703a4.64 4.64 0 0 0 .338-1.074c.607-.142 1.235-.302 1.861-.202.321.098.402.472.488.753.276 1.119.293 2.283.293 3.429-.34-.081-.683-.155-1.03-.211-.816-.186-1.634.031-2.43.204.027.336.308.56.446.85.263.517.643 1.045 1.23 1.21.92.267 1.901.194 2.81-.08-.152.238-.319.47-.493.693a46.266 46.266 0 0 0-2.36-.335 1.223 1.223 0 0 1-.508-.163c-.15.037-.3.08-.448.123.05.376.5.408.775.554l-.322.015c-.029.054-.085.165-.113.22a9.117 9.117 0 0 0 1.845 1.32c.258.134.517.268.772.41l-.068.432a2.024 2.024 0 0 1-1.224-.62l-.235-.265-.258.196A2.406 2.406 0 0 0 26.73 15.2c-.022.457-.03.915-.05 1.366.024.869-.11 1.733-.069 2.599.12-.05.293-.06.316-.221.276-.74.505-1.499.683-2.27a39.8 39.8 0 0 0 .781 2.857c.142.455.339.892.586 1.3-.183-.098-.448-.362-.552-.026-.017.048.072.142.165.195.135.086.277.163.42.237-.195-.012-.396-.02-.594-.028.022.12.045.24.071.36l-.163.113.05.23.182.009c.273-.186.782-.19.833-.574.164 0 .39.071.422-.162-.152-.213-.398-.34-.548-.56ZM5.156 10.346c-.713.15-1.498.146-2.148-.222a4.42 4.42 0 0 0 2.019-.292c.097-.112.084-.206-.055-.28-.65.017-1.358.208-1.967-.098a4.178 4.178 0 0 0 2.157-.523 21.37 21.37 0 0 0-.006 1.415Zm-.26 7.235c-.194-.797-.136-1.629-.151-2.44a9.06 9.06 0 0 1-.02-.936c.183.148.363.299.543.449a39.75 39.75 0 0 0-.371 2.927Zm.697-4.899c.066.272.206.558.066.83-.495-.195-.524-.808-.528-1.269a.178.178 0 0 0-.311.152c-.085.568.195 1.125.633 1.47-.037.135-.072.268-.11.402-.651-.466-1.004-1.367-.73-2.134.16-.368.412-.684.645-1.012.111.522.19 1.05.335 1.561Zm4.762-4.01c-.718.424-1.862.39-2.37-.366a2.095 2.095 0 0 1-.328-.87 4.763 4.763 0 0 0 2.698 1.236Zm12.697-1.618c.216-.919.142-1.913-.314-2.75-.2-.422-.533-.752-.817-1.114.72.26 1.403.795 1.637 1.549.223.8-.068 1.645-.506 2.315Zm.575 2.796c.578-.126 1.171-.27 1.767-.142.566.105 1.15.181 1.68.413-.586.127-1.182.093-1.773.074.02.106-.048.298.11.323.408.13.842.125 1.262.201-1.058.368-2.388.083-3.046-.868Zm1.543 1.557a1.346 1.346 0 0 1-.879-.525c.804.405 1.758.416 2.599.125.44-.137.851-.346 1.28-.514a.552.552 0 0 1-.274.534c-.81.498-1.814.548-2.726.381Zm2.084 1.238c.186-.23.46-.293.748-.277-.139.146-.285.283-.414.437.025.168.208.178.332.237l-.162.249c.08.097.167.195.249.303-.997-.359-1.953-.817-2.922-1.247.73.03 1.45.174 2.169.3v-.002Zm.832 4.563c-.195-.534-.205-1.138-.451-1.643l-.208.044c-.155.66-.142 1.367-.428 1.994a57.1 57.1 0 0 1 .12-3.07c.201.058.397.133.586.224.293.334.497.735.742 1.104-.163-.017-.474-.212-.51.066.034.429.19.845.149 1.281ZM15.785 30.171v.37c-.534-.77-1.456-1.117-2.291-1.456-1.458-.539-2.914-1.114-4.246-1.924a19.192 19.192 0 0 1-2.476-1.77c-1.088-.952-2.124-1.992-2.897-3.222-.14-.106-.287-.262-.428-.043.848 1.445 2.05 2.644 3.333 3.71a19.654 19.654 0 0 0 5.312 3.086c1.232.496 2.621.84 3.53 1.878.25.113.214-.236.245-.375.082.184.145.378.226.564.267.082.3-.205.238-.39-.112-.198-.271-.545-.546-.428Zm9.331-4.603a17.53 17.53 0 0 1-1.723 1.256c-1.31.86-2.743 1.516-4.215 2.05-.702.269-1.428.513-2.041.961a5.89 5.89 0 0 0-.781.733.651.651 0 0 0 .216.287c.841-1.136 2.277-1.458 3.515-1.966 3.036-1.172 5.793-3.114 7.824-5.663.28-.366.562-.735.75-1.159l-.267-.133c-.85 1.405-2.013 2.597-3.278 3.634Z"/><path fill="#FEFEFE" d="M16.147 25.006c.433.195.898.306 1.341.477-.879.152-1.783.195-2.658-.005.44-.157.896-.264 1.317-.472Z"/><path fill="#E5E5E5" d="M15.594 27.031a1.464 1.464 0 0 1 1.045-.012c.216.074.146.332.134.503-.413.16-.843.044-1.24-.103.018-.13-.025-.275.061-.388Z"/></g></svg>