<svg width="32" height="32" fill="none" xmlns="http://www.w3.org/2000/svg"><path d="m16.005.5-.001.001L2.647 8.272l.003.005h-.008v15.44h.012l-.004.007L16.005 31.5l.005-.008 13.335-7.765-.005-.009h.018l-.001-15.443L16.005.5Z" fill="#fff"/><path d="M22.338 12.217 16.055 8.41 9.66 12.217l6.295 3.625 6.384-3.625Z" fill="#E72E9D"/><path d="m16.17 23.233 6.344-3.38.187-7.535-6.583 3.701.051 7.214Z" fill="#20B1F9"/><path d="m16.152 23.375-.255-7.368-6.359-3.665-.253 7.255 6.867 3.778Z" fill="#095198"/><path d="M16.531 3.099a.534.534 0 1 1-1.068 0 .534.534 0 0 1 1.068 0ZM16.531 5.779a.534.534 0 1 1-1.068 0 .534.534 0 0 1 1.068 0ZM5.539 22.383a.534.534 0 1 1-1.068 0 .534.534 0 0 1 1.068 0ZM7.795 21.118a.534.534 0 1 1-1.068 0 .534.534 0 0 1 1.068 0ZM27.575 22.366a.534.534 0 1 1-1.068 0 .534.534 0 0 1 1.068 0ZM25.328 21.101a.534.534 0 1 1-1.069 0 .534.534 0 0 1 1.069 0Z" fill="#000"/><path d="M29.787 8.029 16.004.004 16.001 0 2.218 8.026l.003.005h-.008v15.936h.013l-.005.008L16.005 32l.005-.009 13.763-8.014-.005-.009h.02V8.03ZM16 .891l12.629 7.354-6.102 3.553-6.519-3.796-.01.016-.008-.015L9.47 11.8 3.366 8.247 16 .89Zm.363 15.387 5.768-3.359v6.629l-5.768 3.358v-6.628Zm-.366-.677-5.763-3.356L16 8.887l5.762 3.356-5.766 3.358Zm-.404 15.27-12.61-7.343V8.913L9.1 12.476v7.512h.005l-.002.004 6.49 3.778v7.1Zm0-7.991-5.722-3.332v-6.624l5.722 3.332v6.624Zm13.424.647-12.654 7.368v-7.099L22.9 19.99l-.005-.008h.005v-7.51l6.117-3.563v14.618Z" fill="#000"/></svg>