<svg xmlns="http://www.w3.org/2000/svg" width="32" height="32" fill="none"><defs><linearGradient id="enj__b" x1="17.044" x2="16.149" y1="28.267" y2="9.238" gradientUnits="userSpaceOnUse"><stop stop-color="#21FFE3"/><stop offset="1" stop-color="#8549DF"/></linearGradient><linearGradient id="enj__d" x1="5.684" x2="25.198" y1="8.506" y2="19.975" gradientUnits="userSpaceOnUse"><stop stop-color="#21FFE3"/><stop offset="1" stop-color="#F8FFFB"/></linearGradient><linearGradient id="enj__e" x1="9.169" x2="25.613" y1="10.516" y2="10.516" gradientUnits="userSpaceOnUse"><stop stop-color="#692CC2"/><stop offset=".519" stop-color="#3E5BDE"/><stop offset="1" stop-color="#229EE7"/></linearGradient><linearGradient id="enj__f" x1="9.169" x2="25.991" y1="17.299" y2="17.299" gradientUnits="userSpaceOnUse"><stop stop-color="#692CC2"/><stop offset=".519" stop-color="#3E5BDE"/><stop offset="1" stop-color="#229EE7"/></linearGradient><linearGradient id="enj__g" x1="7.326" x2="24.573" y1="23.89" y2="23.89" gradientUnits="userSpaceOnUse"><stop stop-color="#677CF4"/><stop offset=".276" stop-color="#374CD7"/><stop offset=".363" stop-color="#3752D8"/><stop offset=".475" stop-color="#3562DB"/><stop offset=".6" stop-color="#337CE1"/><stop offset=".735" stop-color="#30A1E9"/><stop offset=".877" stop-color="#2DD0F2"/><stop offset="1" stop-color="#29FFFC"/></linearGradient><linearGradient id="enj__h" x1="5.203" x2="2.279" y1="9.26" y2="16.705" gradientUnits="userSpaceOnUse"><stop stop-color="#F8FFFB"/><stop offset="1" stop-color="#F8FFFB" stop-opacity="0"/></linearGradient><linearGradient id="enj__i" x1="6.531" x2="6.043" y1="9.664" y2="16.353" gradientUnits="userSpaceOnUse"><stop stop-color="#F8FFFB"/><stop offset="1" stop-color="#F8FFFB" stop-opacity="0"/></linearGradient><radialGradient id="enj__a" cx="0" cy="0" r="1" gradientTransform="translate(8.697 6.386) scale(16.4558)" gradientUnits="userSpaceOnUse"><stop stop-color="#21FFE3"/><stop offset="1" stop-color="#8549DF"/></radialGradient><radialGradient id="enj__c" cx="0" cy="0" r="1" gradientTransform="translate(16.079 19.94) scale(14.2632)" gradientUnits="userSpaceOnUse"><stop stop-color="#21FFE3"/><stop offset=".192" stop-color="#23FCE3" stop-opacity=".808"/><stop offset=".342" stop-color="#28F2E3" stop-opacity=".658"/><stop offset=".478" stop-color="#31E1E2" stop-opacity=".522"/><stop offset=".606" stop-color="#3ECAE2" stop-opacity=".394"/><stop offset=".728" stop-color="#4FACE1" stop-opacity=".272"/><stop offset=".846" stop-color="#6386E0" stop-opacity=".154"/><stop offset=".958" stop-color="#7B5BDF" stop-opacity=".042"/><stop offset="1" stop-color="#8549DF" stop-opacity="0"/></radialGradient></defs><path fill="url(#enj__a)" d="M15.973 31.032c8.419 0 15.244-6.825 15.244-15.244S24.392.545 15.973.545.73 7.369.73 15.788c0 8.42 6.825 15.244 15.244 15.244Z"/><path fill="url(#enj__b)" d="M16.55 28.25c6.17 0 11.172-4.685 11.172-10.465S22.721 7.319 16.552 7.319c-6.17 0-11.172 4.685-11.172 10.466 0 5.78 5.002 10.465 11.172 10.465Z"/><path fill="url(#enj__c)" d="M16.079 31.24c6.661 0 12.061-5.06 12.061-11.3 0-6.24-5.4-11.299-12.061-11.299S4.018 13.7 4.018 19.941c0 6.24 5.4 11.299 12.06 11.299Z"/><path fill="url(#enj__d)" d="M12.7 26.239c-.056-.006-1.358-.15-2.035-.536-.116-.066-2.836-1.636-3.923-3.593-.917-1.65-2.47-4.63-2.568-6.055-.089-1.294-.019-4.065.439-4.98.032-.063.07-.15.12-.261.3-.661.92-2.037 2.153-3.252 1.529-1.506 3.489-2.272 5.827-2.275.015 0 1.701-.021 3.598-.021 1.114 0 2.083.007 2.878.021 2.524.044 4.541.258 5.5.427l.166.029c.673.117.925.16.98.65.046.42.42 3.465.425 3.495l.01.082-2.326 1.412h2.499l.246 4.68-2.716 1.983h2.453l-.839 4.982-4.662 2.643-8.215.57-.01-.001Z"/><path fill="#692CC2" d="M16.311 5.394c.96 0 1.977.005 2.875.02 2.694.048 4.678.284 5.482.426.803.142.992.142 1.04.567.047.425.425 3.497.425 3.497l-2.647 1.607h2.835l.237 4.488-2.977 2.174h2.693l-.803 4.773-4.584 2.598-8.174.567s-1.323-.141-1.985-.52c-.661-.377-2.93-1.842-3.874-3.543-.945-1.701-2.457-4.631-2.552-6.001-.094-1.37 0-4.064.425-4.915.426-.85 2.127-5.708 7.986-5.717 0 0 1.68-.021 3.598-.021Zm0-.256c-1.898 0-3.585.02-3.601.02-2.37.004-4.36.782-5.914 2.313-1.25 1.232-1.877 2.622-2.179 3.29a8.358 8.358 0 0 1-.119.257c-.468.936-.542 3.74-.451 5.046.1 1.449 1.66 4.449 2.583 6.108 1.104 1.988 3.855 3.575 3.971 3.642.7.4 2.028.546 2.085.552l.022.002.023-.001 8.174-.567.058-.004.05-.029 4.584-2.599.106-.06.02-.12.804-4.773.05-.298h-2.212l2.344-1.71.112-.083-.008-.138-.236-4.489-.013-.242h-2.163l1.864-1.132.142-.086-.02-.164c-.004-.031-.379-3.075-.425-3.494-.065-.586-.406-.645-1.085-.762l-.165-.029c-.964-.17-2.989-.385-5.521-.429-.796-.014-1.765-.021-2.88-.021Z"/><path fill="#fff" d="M4.442 16.057s.128 1.664.811 3.2c.683 1.536 2.35 3.966 2.944 4.608.885.957 2.603 2.078 3.67 2.206 1.067.128 3.982-.075 4.642-.084.429-.006 3.909-.357 4.378-.443.47-.085 4.472-2.376 4.584-2.599.091-.181.142-.846.142-.846l-3.26.75-9.822.465c-.321.012-.8-.04-1.178-.073a6.657 6.657 0 0 1-1.483-.306c-.593-.187-1.334-.57-1.94-1.029-.85-.646-1.872-1.66-2.463-3.118a98.575 98.575 0 0 1-1.025-2.73Z"/><path fill="url(#enj__e)" d="M9.169 11.558 10.35 9.95s-.047-.425 2.174-.472c2.22-.048 13.089.33 13.089.33l-2.221 1.749H9.169Z"/><path fill="url(#enj__f)" d="m25.99 16.047-2.787 2.126-12.333.378s-1.087-.898-1.276-1.252c-.189-.354-.425-.827-.425-.827s12.852-.095 14.081-.142c1.229-.047 2.74-.283 2.74-.283Z"/><path fill="url(#enj__g)" d="M24.573 23.087s-3.591 2.127-3.875 2.221c-.283.095-7.124.567-7.796.567-.867 0-1.938-.283-2.646-.803-.71-.52-1.796-1.56-2.032-1.985-.237-.425-.898-1.181-.898-1.181s1.607 1.04 2.74 1.37c1.135.331 3.524.256 4.611.209 1.087-.047 9.896-.398 9.896-.398Z"/><path fill="#fff" d="M23.24 4.335s-2.521-.756-4.142-.72c-1.62.036-3.708.18-4.789.54-1.08.36-1.512.576-1.512.576s.684.828.612 1.62c-.072.793-.864 1.729-1.8 1.98-.936.253-1.873.397-2.593.253-.72-.144-2.376-1.08-2.376-1.08l-1.26-.9s1.26-1.73 3.348-2.737c2.089-1.008 4.213-1.873 6.878-1.873 2.664 0 4.573.613 5.689 1.153 1.116.54 1.944 1.188 1.944 1.188Z"/><path fill="url(#enj__h)" d="M5.38 6.603s-.96 1.214-1.202 1.748c-.244.535-1.046 2.091-1.192 3.623-.146 1.531-.17 2.718 0 3.523a52 52 0 0 0 .462 1.922s.997-4.108 1.143-5.105c.146-.997.85-3.112 1.458-3.84a18.31 18.31 0 0 0 1.167-1.605L5.38 6.603Z"/><path fill="url(#enj__i)" d="M7.216 6.869S6.153 8.256 5.924 8.64c-.23.385-1.178 1.906-1.236 2.676-.058.771-.219 2.407-.219 2.407s1.702-3.063 2.164-3.598c.462-.535 1.799-2.31 1.799-2.31L7.216 6.87Z"/></svg>