<svg fill="none" height="32" viewBox="0 0 32 32" width="32" xmlns="http://www.w3.org/2000/svg" xmlns:xlink="http://www.w3.org/1999/xlink"><linearGradient id="a"><stop offset="0" stop-color="#21ffe3"/><stop offset="1" stop-color="#8549df"/></linearGradient><radialGradient id="b" cx="8.69737" cy="6.38594" gradientUnits="userSpaceOnUse" r="16.4558" xlink:href="#a"/><linearGradient id="c" gradientUnits="userSpaceOnUse" x1="17.0442" x2="16.1487" xlink:href="#a" y1="28.267" y2="9.2382"/><radialGradient id="d" cx="16.0788" cy="19.9403" gradientUnits="userSpaceOnUse" r="14.2632"><stop offset="0" stop-color="#21ffe3"/><stop offset=".1916" stop-color="#23fce3" stop-opacity=".8084"/><stop offset=".3419" stop-color="#28f2e3" stop-opacity=".6581"/><stop offset=".478" stop-color="#31e1e2" stop-opacity=".522"/><stop offset=".6059" stop-color="#3ecae2" stop-opacity=".3941"/><stop offset=".728" stop-color="#4face1" stop-opacity=".272"/><stop offset=".8458" stop-color="#6386e0" stop-opacity=".1542"/><stop offset=".958" stop-color="#7b5bdf" stop-opacity=".042"/><stop offset="1" stop-color="#8549df" stop-opacity="0"/></radialGradient><linearGradient id="e" gradientUnits="userSpaceOnUse" x1="5.68447" x2="25.1975" y1="8.50573" y2="19.975"><stop offset="0" stop-color="#21ffe3"/><stop offset="1" stop-color="#f8fffb"/></linearGradient><linearGradient id="f"><stop offset="0" stop-color="#692cc2"/><stop offset=".5189" stop-color="#3e5bde"/><stop offset="1" stop-color="#229ee7"/></linearGradient><linearGradient id="g" gradientUnits="userSpaceOnUse" x1="9.16886" x2="25.6126" xlink:href="#f" y1="10.5161" y2="10.5161"/><linearGradient id="h" gradientUnits="userSpaceOnUse" x1="9.16892" x2="25.9907" xlink:href="#f" y1="17.2988" y2="17.2988"/><linearGradient id="i" gradientUnits="userSpaceOnUse" x1="7.32601" x2="24.5731" y1="23.8905" y2="23.8905"><stop offset="0" stop-color="#677cf4"/><stop offset=".2764" stop-color="#374cd7"/><stop offset=".3631" stop-color="#3752d8"/><stop offset=".4747" stop-color="#3562db"/><stop offset=".5999" stop-color="#337ce1"/><stop offset=".7351" stop-color="#30a1e9"/><stop offset=".8766" stop-color="#2dd0f2"/><stop offset="1" stop-color="#29fffc"/></linearGradient><linearGradient id="j"><stop offset="0" stop-color="#f8fffb"/><stop offset="1" stop-color="#f8fffb" stop-opacity="0"/></linearGradient><linearGradient id="k" gradientUnits="userSpaceOnUse" x1="5.20342" x2="2.27851" xlink:href="#j" y1="9.25964" y2="16.7049"/><linearGradient id="l" gradientUnits="userSpaceOnUse" x1="6.53119" x2="6.0434" xlink:href="#j" y1="9.66364" y2="16.3534"/><path d="m15.9731 31.0323c8.4189 0 15.2438-6.8249 15.2438-15.2439 0-8.41891-6.8249-15.243814-15.2438-15.243814-8.41895 0-15.243852 6.824904-15.243852 15.243814 0 8.419 6.824902 15.2439 15.243852 15.2439z" fill="url(#b)"/><path d="m16.5509 28.2504c6.1699 0 11.1716-4.6857 11.1716-10.4658 0-5.7802-5.0017-10.46587-11.1716-10.46587s-11.17157 4.68567-11.17157 10.46587c0 5.7801 5.00167 10.4658 11.17157 10.4658z" fill="url(#c)"/><path d="m16.0788 31.2396c6.6612 0 12.0612-5.0588 12.0612-11.2993 0-6.2404-5.4-11.29922-12.0612-11.29922-6.66128 0-12.06128 5.05882-12.06128 11.29922 0 6.2405 5.4 11.2993 12.06128 11.2993z" fill="url(#d)"/><path d="m12.6992 26.2386c-.0551-.0059-1.3575-.149-2.0345-.5359-.1153-.0659-2.83578-1.6357-3.92308-3.5928-.91667-1.6501-2.46925-4.6308-2.56736-6.0545-.08928-1.2941-.01907-4.0652.43846-4.9802.03187-.0637.07123-.1509.12109-.2613.29843-.6612.91949-2.03696 2.15258-3.252 1.52838-1.50598 3.48861-2.27142 5.82631-2.27501.0154-.00019 1.7015-.02099 3.5983-.02099 1.1144 0 2.0826.00704 2.8777.02106 2.5246.04428 4.5413.25779 5.5012.4272l.1654.02886c.6729.11654.9247.16019.9791.65011.0467.41965.4213 3.46445.4252 3.49517l.01.08211-2.3258 1.41209h2.4991l.2464 4.6794-2.716 1.9831h2.4523l-.8385 4.9818-4.6617 2.6433-8.2149.5698z" fill="url(#e)"/><path d="m16.311 5.39391c.9592 0 1.9775.00525 2.8754.02099 2.6934.04723 4.6779.28352 5.4813.42528.8032.14176.9923.14176 1.0395.56704.0473.42528.4253 3.49664.4253 3.49664l-2.6461 1.60664h2.8351l.2363 4.4889-2.9769 2.1736h2.6934l-.8033 4.7725-4.5835 2.5988-8.1746.567s-1.3231-.1417-1.9846-.5197-2.92962-1.8428-3.87464-3.5439c-.94503-1.7011-2.45709-4.6308-2.55162-6.0011s0-4.0636.42528-4.9142 2.12627-5.70854 7.98558-5.7175c-.0001 0 1.6801-.02099 3.5981-.02099zm0-.256c-1.8976 0-3.5846.0208-3.6013.02099-2.3696.00359-4.36004.78144-5.9132 2.31181-1.25011 1.23181-1.87776 2.62229-2.17939 3.29049-.04729.1048-.08819.1953-.11885.2567-.4679.9359-.54182 3.7397-.45171 5.0463.09991 1.4484 1.66138 4.4484 2.58323 6.1078 1.10439 1.9879 3.85492 3.5752 3.97142 3.6418.7.4 2.0282.5461 2.0844.5521l.0225.0024.0225-.0015 8.1746-.5671.058-.004.0505-.0287 4.5835-2.5988.106-.0601.0202-.1201.8033-4.7725.0502-.2985h-.3027-1.9087l2.3431-1.7109.112-.0817-.0073-.1384-.2362-4.489-.0128-.2425h-.2429-1.9202l1.8641-1.1318.1414-.0859-.0202-.16424c-.0038-.03072-.3783-3.07475-.4249-3.49363-.065-.58547-.4057-.64448-1.0844-.76205-.0519-.00902-.1069-.01849-.165-.02879-.9645-.17018-2.9892-.38471-5.5213-.42912-.7958-.01396-1.7648-.02106-2.8799-.02106z" fill="#692cc2"/><path d="m4.44244 16.0572s.128 1.6641.81069 3.2001c.68269 1.5361 2.34983 3.9654 2.94413 4.6082.88448.9567 2.60304 2.0779 3.66974 2.2059 1.0666.128 3.982-.0752 4.6421-.0845.4288-.006 3.9089-.3573 4.3783-.4426.4693-.0853 4.4714-2.3767 4.5835-2.5988.0916-.1817.1425-.8466.1425-.8466l-3.2603.7504-9.8216.4642c-.3216.0129-.8001-.04-1.1782-.0727-.4759-.0413-.931-.131-1.48366-.3055-.59244-.1871-1.33369-.5702-1.93894-1.0293-.85146-.646-1.87238-1.6602-2.46406-3.118-.37581-.9255-1.0242-2.7308-1.0242-2.7308z" fill="#fff"/><path d="m9.16888 11.5577 1.18132-1.60658s-.0472-.42529 2.1736-.47252 13.0888.33076 13.0888.33076l-2.2209 1.74834z" fill="url(#g)"/><path d="m25.9907 16.0467-2.7879 2.1263-12.3328.378s-1.08678-.8978-1.27584-1.2521c-.18899-.3544-.42528-.827-.42528-.827s12.85262-.0945 14.08112-.1417c1.2286-.0473 2.7407-.2835 2.7407-.2835z" fill="url(#h)"/><path d="m24.573 23.0872s-3.5911 2.1264-3.8747 2.2209c-.2835.0945-7.1243.5668-7.7966.567-.8672.0002-1.9373-.2835-2.6461-.8032-.70881-.5198-1.79559-1.5593-2.03188-1.9846s-.89779-1.1813-.89779-1.1813 1.60659 1.0395 2.74057 1.3703c1.1341.3307 3.5239.2559 4.6108.2086 1.0868-.0472 9.8957-.3977 9.8957-.3977z" fill="url(#i)"/><path d="m23.2393 4.3349s-2.5206-.75616-4.1409-.72013c-1.6204.03603-3.7088.18003-4.7891.54009-1.0802.36007-1.5123.57613-1.5123.57613s.6842.82816.6122 1.62035-.8642 1.72838-1.8004 1.98042c-.9362.25203-1.87241.39609-2.59261.25203-.72019-.144-2.37651-1.08026-2.37651-1.08026l-1.26029-.90022s1.26029-1.72838 3.34874-2.73657c2.08847-1.00819 4.21297-1.87239 6.87747-1.87239 2.6646 0 4.573.61216 5.6893 1.15226 1.1162.54016 1.9444 1.18829 1.9444 1.18829z" fill="#fff"/><path d="m5.37933 6.60339s-.95866 1.21332-1.2018 1.7481c-.24313.53485-1.04537 2.09071-1.19123 3.62231-.14585 1.5315-.17017 2.7185 0 3.5229.17018.8044.46189 1.9227.46189 1.9227s.99674-4.1085 1.14259-5.1052c.14586-.9968.85088-3.11177 1.45863-3.84111.60774-.72934 1.16691-1.60448 1.16691-1.60448z" fill="url(#k)"/><path d="m7.21625 6.86853s-1.06298 1.38765-1.29222 1.77248c-.22925.38483-1.17779 1.90559-1.2361 2.67639-.0583.7707-.21881 2.4067-.21881 2.4067s1.70175-3.0631 2.16364-3.598c.46189-.53482 1.79897-2.30947 1.79897-2.30947z" fill="url(#l)"/></svg>