<svg fill="none" height="32" viewBox="0 0 32 32" width="32" xmlns="http://www.w3.org/2000/svg" xmlns:xlink="http://www.w3.org/1999/xlink"><clipPath id="a"><path d="m0 0h32v32h-32z"/></clipPath><g clip-path="url(#a)"><path d="m16 32c3.1645 0 6.2579-.9384 8.8891-2.6965s4.682-4.2569 5.893-7.1806c1.211-2.9236 1.5278-6.1406.9105-9.2443-.6174-3.10373-2.1413-5.95466-4.3789-8.1923s-5.0886-3.761494-8.1923-4.378857c-3.1037-.617364-6.3207-.3005105-9.24434.910487-2.92361 1.21101-5.42247 3.26177-7.18057 5.89295-1.758106 2.63119-2.69649 5.72462-2.69649 8.88912-.00000788 2.1012.413839 4.1817 1.21791 6.123.80407 1.9412 1.98263 3.705 3.46836 5.1907 1.48574 1.4858 3.24957 2.6643 5.19079 3.4684 1.94124.8041 4.02174 1.2179 6.12294 1.2179z" fill="#0b2841"/><path d="m15.625 30.7002c-.0698.0002-.1382-.0194-.1973-.0566l-9.35445-5.794c-.06616-.0408-.11797-.1011-.14825-.1727-.03027-.0716-.03751-.1508-.02069-.2267l2.82763-12.7705c.01845-.0834.0648-.158.13139-.2114.06659-.0535.14942-.0826.23482-.0826h13.29635c.0853 0 .1681.029.2347.0824.0666.0533.113.1278.1315.2111l2.8418 12.771c.0172.0767.0098.1569-.0213.2291-.031.0722-.084.1328-.1515.1732l-9.6113 5.7939c-.0583.0354-.1252.054-.1934.0538zm-8.93065-6.3477 8.93305 5.5332 9.1841-5.5361-2.7177-12.2139h-12.69438z" fill="#bababa"/><path d="m15.625 30.6963c-.126.0051-.2502-.0318-.3529-.105s-.1782-.1785-.2145-.2993l-6.32711-18.3355c-.03061-.0886-.03997-.1833-.02734-.2762.01264-.093.04692-.1816.10009-.2589l6.32716-9.21975c.0546-.07958.1276-.14483.2127-.19022.0852-.04539.18-.06958.2766-.07052.0971-.00428.1936.01669.2802.06085.0866.04417.1603.11003.2139.19115l6.5669 9.21969c.0562.0788.0925.17.1058.2658.0133.0959.0031.1935-.0296.2845l-6.5669 18.336c-.0416.1164-.1183.2172-.2194.2883-.1012.0712-.2219.1093-.3456.1091zm-5.66111-18.8452 5.67191 16.437 5.8857-16.4346-5.8872-8.26564z" fill="#fff"/></g></svg>