<svg fill="none" height="32" viewBox="0 0 32 32" width="32" xmlns="http://www.w3.org/2000/svg" xmlns:xlink="http://www.w3.org/1999/xlink"><linearGradient id="a" gradientUnits="userSpaceOnUse" x1="5.5" x2="19.7453" y1="16" y2="16"><stop offset="0" stop-color="#313f54"/><stop offset="1" stop-color="#4e3759"/></linearGradient><linearGradient id="b" gradientUnits="userSpaceOnUse" x1="13.3434" x2="21.3472" y1="16.0141" y2="16.0141"><stop offset="0" stop-color="#412f5b"/><stop offset="1" stop-color="#513a57"/></linearGradient><linearGradient id="c" gradientUnits="userSpaceOnUse" x1="14.8011" x2="26.5" y1="17.5626" y2="17.5626"><stop offset="0" stop-color="#326fd3"/><stop offset=".3" stop-color="#6227f1"/><stop offset="1" stop-color="#db79cf"/></linearGradient><linearGradient id="d" gradientUnits="userSpaceOnUse" x1="7.56233" x2="26.1199" y1="16.6989" y2="16.6989"><stop offset="0" stop-color="#6063d9"/><stop offset=".12787" stop-color="#6661da"/><stop offset=".29518" stop-color="#765ddc"/><stop offset=".48436" stop-color="#9155e0"/><stop offset=".675" stop-color="#b44be5"/><stop offset=".676" stop-color="#b046e8"/><stop offset="1" stop-color="#d471d3"/></linearGradient><linearGradient id="e" gradientUnits="userSpaceOnUse" x1="6.81303" x2="25.5477" y1="15.3002" y2="15.3002"><stop offset="0" stop-color="#57b4e8"/><stop offset="1" stop-color="#3571d5"/></linearGradient><path d="m16 32c8.8366 0 16-7.1634 16-16 0-8.83656-7.1634-16-16-16-8.83656 0-16 7.16344-16 16 0 8.8366 7.16344 16 16 16z" fill="#313131"/><path d="m19.7453 7.42968c-13.31045 6.17352-14.0312 11.81232-7.5424 17.14492 0 0-4.0743.4537-5.90131-2.3948-1.77994-2.6971-.56585-7.1786 3.34575-10.7389 4.74996-4.22398 9.08486-4.1099 10.09796-4.01122z" fill="url(#a)"/><path d="m13.3434 19.6464c1.8692-.3263 3.5657-1.2952 4.7965-2.7394.9839-1.0985 1.5765-2.4918 1.6853-3.9625l-.0166-.0867c-.345-.2489-.7433-.4139-1.1633-.4818.4199-.1861.8804-.2616 1.3377-.2195.4573.042.8962.2004 1.2751.46 0 0 .3965.4128-.4835 2.9442s-5.4321 5.0954-7.4312 4.0857z" fill="url(#b)"/><path d="m14.8013 24.4209c-.04-.8206 4.6552-2.0664 7.201-5.552 2.5459-3.4856 2.64-6.7125 4.1393-8.1645.9887 2.4879-.1303 5.8776-2.5921 8.6431-2.2897 2.594-5.3596 4.3743-8.7482 5.0734z" fill="url(#c)"/><path d="m25.526 9.62336c-3.9473-2.96776-17.54221 2.53304-13.3653 9.52214.1146-1.1057.476-2.1716 1.0574-3.119s1.368-1.7523 2.3019-2.3553c1.5662-1.1036 4.0324-1.9402 5.6041-.8066 1.9502 3.3625-.0199 6.256-3.0942 8.1574-3.4572 2.1385-8.55127 2.662-10.46758 1.0627l.03058.0951c1.92092 2.8655 5.7669 2.5097 7.1884 2.2396 2.8866-1.1145 5.4348-2.9586 7.3958-5.3522 1.951-2.3585 2.6137-5.1832 3.9428-8.3628-.1501-.3847-.3498-.74806-.5939-1.08104z" fill="url(#d)"/><path d="m24.6351 9.14352c.9126.82569.4316 4.30608-.2707 6.15098l1.7737-4.5989c-.1461-.3713-.3358-.72392-.5651-1.05052-.2801-.2219-.5978-.39178-.9379-.50156z" fill="#dc8ddc"/><path d="m24.6351 9.14352c.9126.82569.4316 4.30608-.2707 6.15098.6937-1.809 1.1015-3.7149 1.2086-5.64942-.2801-.2219-.5978-.39178-.9379-.50156z" fill="#db93db"/><path d="m21.0583 7.42968c.8667-.00471 1.7228.19081 2.5015.57132s1.459.93572 1.9879 1.62236c-2.2525-1.64956-6.83-.49794-9.3673.82024-3.869 2.0099-6.0419 5.233-3.998 8.7019 2.2258 1.8148 8.5923-1.1295 8.9377-6.2877 1.6754 2.7246.6614 5.7703-2.8625 8.03-1.5462 1.2313-8.0865 3.7133-10.64296 1.292-1.77994-2.6971-.56585-7.1786 3.34576-10.739 4.7499-4.22388 9.0848-4.1098 10.0979-4.01112z" fill="url(#e)"/><path d="m11.3526 11.1444-.0585.0062c-.111.0944-.2222.1912-.3337.2903-3.91161 3.5603-5.1257 8.0418-3.34576 10.7389.033.0313.06689.0616.10124.0912-.30997-4.0442.99805-8.0462 3.63672-11.1266z" fill="#000" fill-opacity=".04"/></svg>