<svg xmlns="http://www.w3.org/2000/svg" width="32" height="32" fill="none"><defs><linearGradient id="epx__a" x1="5.5" x2="19.745" y1="16" y2="16" gradientUnits="userSpaceOnUse"><stop stop-color="#313F54"/><stop offset="1" stop-color="#4E3759"/></linearGradient><linearGradient id="epx__b" x1="13.343" x2="21.347" y1="16.014" y2="16.014" gradientUnits="userSpaceOnUse"><stop stop-color="#412F5B"/><stop offset="1" stop-color="#513A57"/></linearGradient><linearGradient id="epx__c" x1="14.801" x2="26.5" y1="17.563" y2="17.563" gradientUnits="userSpaceOnUse"><stop stop-color="#326FD3"/><stop offset=".3" stop-color="#6227F1"/><stop offset="1" stop-color="#DB79CF"/></linearGradient><linearGradient id="epx__d" x1="7.562" x2="26.12" y1="16.699" y2="16.699" gradientUnits="userSpaceOnUse"><stop stop-color="#6063D9"/><stop offset=".128" stop-color="#6661DA"/><stop offset=".295" stop-color="#765DDC"/><stop offset=".484" stop-color="#9155E0"/><stop offset=".675" stop-color="#B44BE5"/><stop offset=".676" stop-color="#B046E8"/><stop offset="1" stop-color="#D471D3"/></linearGradient><linearGradient id="epx__e" x1="6.813" x2="25.548" y1="15.3" y2="15.3" gradientUnits="userSpaceOnUse"><stop stop-color="#57B4E8"/><stop offset="1" stop-color="#3571D5"/></linearGradient></defs><path fill="#313131" d="M16 32c8.837 0 16-7.163 16-16S24.837 0 16 0 0 7.163 0 16s7.163 16 16 16Z"/><path fill="url(#epx__a)" d="M19.745 7.43c-13.31 6.173-14.03 11.812-7.542 17.145 0 0-4.074.453-5.901-2.395-1.78-2.697-.566-7.179 3.345-10.74 4.75-4.223 9.085-4.109 10.098-4.01Z"/><path fill="url(#epx__b)" d="M13.343 19.646a8.142 8.142 0 0 0 4.797-2.739 6.678 6.678 0 0 0 1.685-3.963l-.016-.086a2.734 2.734 0 0 0-1.164-.482 2.692 2.692 0 0 1 2.613.24s.397.413-.483 2.945c-.88 2.531-5.432 5.095-7.432 4.085Z"/><path fill="url(#epx__c)" d="M14.801 24.42c-.04-.82 4.655-2.066 7.201-5.551 2.546-3.486 2.64-6.713 4.14-8.165.988 2.488-.13 5.878-2.593 8.643a15.974 15.974 0 0 1-8.748 5.074Z"/><path fill="url(#epx__d)" d="M25.526 9.623c-3.947-2.967-17.542 2.533-13.365 9.522a7.427 7.427 0 0 1 3.359-5.474c1.566-1.103 4.032-1.94 5.604-.806 1.95 3.362-.02 6.256-3.094 8.157-3.457 2.139-8.551 2.662-10.468 1.063l.03.095c1.922 2.865 5.768 2.51 7.19 2.24a17.892 17.892 0 0 0 7.395-5.353c1.951-2.358 2.614-5.183 3.943-8.363a4.747 4.747 0 0 0-.594-1.08Z"/><path fill="#DC8DDC" d="M24.635 9.144c.913.825.432 4.306-.27 6.15l1.773-4.598a5.04 5.04 0 0 0-.565-1.05 2.99 2.99 0 0 0-.938-.502Z"/><path fill="#DB93DB" d="M24.635 9.144c.913.825.432 4.306-.27 6.15a18.659 18.659 0 0 0 1.208-5.649 2.99 2.99 0 0 0-.938-.501Z"/><path fill="url(#epx__e)" d="M21.058 7.43a5.628 5.628 0 0 1 4.49 2.193c-2.253-1.65-6.83-.498-9.368.82-3.869 2.01-6.041 5.234-3.998 8.702 2.226 1.815 8.593-1.129 8.938-6.287 1.675 2.724.662 5.77-2.862 8.03C16.71 22.119 10.17 24.6 7.615 22.18c-1.78-2.697-.566-7.18 3.345-10.74 4.75-4.223 9.085-4.109 10.098-4.01Z"/><path fill="#000" fill-opacity=".04" d="m11.353 11.144-.059.007c-.11.094-.222.19-.334.29C7.05 15 5.835 19.483 7.615 22.18l.1.091a15.305 15.305 0 0 1 3.638-11.127Z"/></svg>