<svg fill="none" height="32" viewBox="0 0 32 32" width="32" xmlns="http://www.w3.org/2000/svg"><path d="m16 31.36c8.4831 0 15.36-6.8769 15.36-15.36 0-8.48308-6.8769-15.359985-15.36-15.359985-8.48308 0-15.359985 6.876905-15.359985 15.359985 0 8.4831 6.876905 15.36 15.359985 15.36z" fill="#fff"/><g clip-rule="evenodd" fill="#000" fill-rule="evenodd"><path d="m22.592 9.344c-.064-.064-.128-.192-.128-.32s.064-.192.128-.32c.192-.128.448-.128.64 0 .064.064.128.192.128.32s-.064.192-.128.32c-.064.064-.192.128-.32.128s-.192 0-.32-.128z"/><path d="m21.504 10.56c-.064-.064-.128-.192-.128-.32s.064-.192.128-.31999c.128-.128.448-.128.576 0 .064.064.128.19199.128.31999s-.064.192-.128.32c-.064.064-.192.128-.32.128-.064-.064-.192-.064-.256-.128z"/><path d="m20.288 11.712c-.064-.064-.128-.192-.128-.32s.064-.192.128-.32c.128-.128.448-.128.576 0 .064.064.128.192.128.32s-.064.192-.128.32c-.064.064-.192.128-.32.128s-.192-.064-.256-.128z"/><path d="m19.1359 12.864c-.064-.064-.128-.192-.128-.32s.064-.192.128-.32c.192-.128.448-.128.64 0 .064.064.128.192.128.32s-.064.256-.128.32-.192.128-.32.128-.192-.064-.32-.128z"/><path d="m18.048 14.016c-.064-.064-.128-.192-.128-.32s.064-.192.128-.32c.128-.128.448-.128.576 0 .064.064.128.192.128.32s-.064.256-.128.32-.192.064-.256.064c-.128.064-.256 0-.32-.064z"/><path d="m16.704 14.848c0-.128.064-.192.128-.32.128-.128.448-.128.576 0 .064.064.128.192.128.32s-.064.192-.128.32c-.064.064-.192.128-.32.128s-.192-.064-.32-.128c0-.064-.064-.192-.064-.32z"/><path d="m14.592 17.408c-.064-.064-.128-.192-.128-.32s.064-.192.128-.32c.128-.128.448-.128.576 0 .064.064.128.192.128.32s-.064.192-.128.32c-.064.064-.192.128-.32.128-.064 0-.192-.064-.256-.128z"/><path d="m13.3759 18.56c-.064-.064-.128-.192-.128-.32s.064-.192.128-.32c.192-.128.448-.128.64 0 .064.064.128.192.128.32s-.064.192-.128.32-.192.128-.32.128-.192-.064-.32-.128z"/><path d="m12.288 19.712c-.064-.064-.128-.192-.128-.32s.064-.256.128-.32c.128-.128.448-.128.576 0 .064.064.128.192.128.32s-.064.192-.128.32-.192.128-.32.128c-.064 0-.192-.064-.256-.128z"/><path d="m11.1359 20.864c-.064-.064-.128-.192-.128-.32s.064-.192.128-.32c.128-.128.448-.128.576 0 .064.064.128.192.128.32s-.064.256-.128.32-.192.128-.32.128-.192 0-.256-.128z"/><path d="m9.91993 22.016c-.064-.064-.128-.192-.128-.32s.064-.192.128-.32c.19197-.128.44797-.128.63997 0 .064.064.128.192.128.32s-.064.256-.128.32-.192.128-.32.128-.25597 0-.31997-.128z"/><path d="m8.83198 23.168c-.064-.064-.128-.192-.128-.32s.064-.192.128-.32c.128-.128.448-.128.576 0 .064.064.128.192.128.32s-.064.192-.128.32c-.064.064-.192.128-.32.128-.064 0-.192-.064-.256-.128z"/><path d="m9.40798 9.344c.064-.064.128-.192.128-.32s-.064-.192-.128-.32c-.128-.128-.448-.128-.576 0-.064.064-.128.192-.128.32s.064.192.128.32c.064.064.192.128.32.128.064 0 .192 0 .256-.128z"/><path d="m10.5599 10.56c.064-.064.128-.192.128-.32s-.064-.192-.128-.31999c-.192-.128-.448-.128-.63997 0-.064.064-.128.19199-.128.31999s.064.192.128.32c.064.064.19197.128.31997.128.128-.064.192-.064.32-.128z"/><path d="m11.7119 11.712c.064-.064.128-.192.128-.32s-.064-.192-.128-.32c-.128-.128-.448-.128-.576 0-.064.064-.128.192-.128.32s.064.192.128.32c.064.064.192.128.32.128.064-.064.192-.064.256-.128z"/><path d="m12.864 12.864c.064-.064.128-.192.128-.32s-.064-.192-.128-.32c-.128-.128-.448-.128-.576 0-.064.064-.128.192-.128.32s.064.256.128.32.192.128.32.128c.064-.064.192-.064.256-.128z"/><path d="m14.0159 14.016c.064-.064.128-.192.128-.32s-.064-.192-.128-.32c-.128-.128-.448-.128-.64 0-.064.064-.128.192-.128.32s.064.256.128.32.192.128.32.128.256-.064.32-.128z"/><path d="m15.296 14.848c0-.128-.064-.192-.128-.32-.128-.128-.448-.128-.576 0-.064.064-.128.192-.128.32s.064.192.128.32c.064.064.192.128.32.128s.192-.064.32-.128c0-.064.064-.192.064-.32z"/><path d="m16.32 16.32c.064-.064.128-.192.128-.32s-.064-.192-.128-.32c-.128-.128-.448-.128-.576 0-.064.064-.128.192-.128.32s.064.192.128.32c.064.064.192.128.32.128.064 0 .192-.064.256-.128z"/><path d="m17.472 17.408c.064-.064.128-.192.128-.32s-.064-.192-.128-.32c-.192-.128-.448-.128-.64 0-.064.064-.128.192-.128.32s.064.192.128.32c.064.064.192.128.32.128s.192-.064.32-.128z"/><path d="m18.624 18.56c.064-.064.128-.192.128-.32s-.064-.192-.128-.32c-.128-.128-.448-.128-.576 0-.064.064-.128.192-.128.32s.064.192.128.32c.064.064.192.128.32.128.064 0 .192-.064.256-.128z"/><path d="m19.776 19.712c.064-.064.128-.192.128-.32s-.064-.192-.128-.256c-.128-.128-.448-.128-.576 0-.064.064-.128.192-.128.32s.064.192.128.32c.064.064.192.128.32.128s.192-.128.256-.192z"/><path d="m20.864 20.864c.064-.064.128-.192.128-.32s-.064-.192-.128-.32c-.128-.128-.448-.128-.576 0-.064.064-.128.192-.128.32s.064.256.128.32.192.128.32.128c.064 0 .192 0 .256-.128z"/><path d="m22.08 22.016c.064-.064.128-.192.128-.32s-.064-.192-.128-.32c-.128-.128-.448-.128-.576 0-.064.064-.128.192-.128.32s.064.256.128.32.192.128.32.128.192 0 .256-.128z"/><path d="m23.232 23.168c.064-.064.128-.192.128-.32s-.064-.192-.128-.32c-.192-.128-.448-.128-.64 0-.064.064-.128.192-.128.32s.064.192.128.32c.064.064.192.128.32.128s.256-.064.32-.128z"/><path d="m12.096 9.66401c1.152-.768 2.432-1.152 3.904-1.152 1.408 0 2.688.384 3.904 1.152l2.496-2.496c-1.92-1.472-4.032-2.24-6.336-2.24s-4.416.768-6.33603 2.24z"/><path d="m9.66397 19.84c-.768-1.216-1.152-2.496-1.152-3.84 0-1.408.384-2.688 1.152-3.84l-2.432-2.432c-1.472 1.92-2.176 3.968-2.176 6.336 0 2.304.704 4.416 2.176 6.336z"/><path d="m19.904 22.336c-1.152.768-2.432 1.216-3.84 1.216s-2.752-.384-3.904-1.216l-2.496 2.432c1.92 1.472 4.032 2.24 6.4 2.24 2.304 0 4.416-.768 6.336-2.24z"/><path d="m22.272 12.096c.768 1.216 1.216 2.496 1.152 3.904 0 1.408-.384 2.624-1.152 3.776l2.496 2.432c1.472-1.92 2.24-3.968 2.24-6.272 0-2.368-.704-4.48-2.24-6.39999z"/><path d="m24.896 23.104c.96 0 1.728.768 1.728 1.728s-.768 1.728-1.728 1.728-1.728-.768-1.728-1.728.768-1.728 1.728-1.728z"/><path d="m7.168 23.104c.96 0 1.728.768 1.728 1.728s-.768 1.728-1.728 1.728-1.728-.768-1.728-1.728.768-1.728 1.728-1.728z"/><path d="m24.896 5.37601c.96 0 1.728.768 1.728 1.728s-.768 1.728-1.728 1.728-1.728-.768-1.728-1.728.768-1.728 1.728-1.728z"/><path d="m7.10398 5.37601c.96 0 1.728.768 1.728 1.728s-.768 1.728-1.728 1.728-1.728-.768-1.728-1.728.768-1.728 1.728-1.728z"/></g></svg>