<svg fill="none" height="32" viewBox="0 0 32 32" width="32" xmlns="http://www.w3.org/2000/svg"><path d="m16 32c8.8366 0 16-7.1634 16-16 0-8.83656-7.1634-16-16-16-8.83656 0-16 7.16344-16 16 0 8.8366 7.16344 16 16 16z" fill="#0c0a32"/><g fill="#01e7c1"><path d="m10.5138 21.5393c.7251.0006 1.4431-.1423 2.1127-.4203.6696-.2781 1.2776-.6858 1.789-1.1998l.8107-.8147-.0046-.0047 2.3216-2.3236 2.3539-2.3654c.3135-.3142.7134-.5281 1.1489-.6145.4354-.0863.8866-.0414 1.2964.1293s.7596.4593 1.0049.8292c.2454.3699.3753.8045.3731 1.2484.0008.5963-.2344 1.1687-.6541 1.5923-.208.2083-.455.3736-.7269.4864s-.5634.1709-.8577.1709c-.2944 0-.5859-.0581-.8578-.1709s-.5189-.2781-.7268-.4864l-.8108-.8147-.7738.773.8107.8147c.4679.4683 1.0642.7874 1.7135.9168s1.3224.0633 1.9341-.1899c.6117-.2533 1.1346-.6822 1.5025-1.2326.3678-.5505.5642-1.1976.5642-1.8597 0-.662-.1964-1.3092-.5642-1.8596-.3679-.5505-.8908-.9794-1.5025-1.2326s-1.2848-.3193-1.9341-.1899-1.2456.4484-1.7135.9168l-.3685.3703-1.9715 2.0089-2.3309 2.3144-.2257.2268-.4929.4907.0046.0046-.0967.0973c-.8349.8234-1.9619 1.2826-3.1344 1.2771-1.17259-.0055-2.29525-.4752-3.12237-1.3063-.82712-.8312-1.29135-1.9561-1.29111-3.1287s.46492-2.2973 1.29238-3.1281c.40923-.4132.89622-.7413 1.43287-.9654.53666-.224 1.11236-.3396 1.69393-.34.5815-.0004 1.1574.1143 1.6944.3375.537.2233 1.0244.5506 1.4343.9632l1.5846 1.5877-3.1231 3.1384c-.3439.3448-.7908.5679-1.273.6356s-.97331-.0239-1.39876-.2607l3.87396-3.8882-.4375-.4397c-.1263-.1257-.2618-.2417-.4054-.3472-.6403-.466-1.4262-.6871-2.2155-.6234-.78931.0636-1.52966.408-2.08691.9706-.46689.4673-.78503 1.0624-.91434 1.7102s-.064 1.3194.1877 1.9302c.25169.6108.67852 1.1334 1.2267 1.502.54818.3687 1.1932.5668 1.85385.5696.4379.0014.8717-.0846 1.2759-.2531.4043-.1686.7707-.4161 1.0779-.7283l1.5109-1.5182v-.0046l2.34-2.3515-.0046-.0046.0507-.0509-2.3492-2.3608c-.6456-.6387-1.4386-1.1087-2.3088-1.3685-.8703-.2598-1.7911-.3013-2.6812-.121-.89012.1804-1.72215.5771-2.42267 1.1551s-1.24799 1.3195-1.59408 2.1592c-.34608.8397-.48016 1.7516-.39038 2.6554.08978.9037.40065 1.7715.90518 2.5267.50452.7551 1.18718 1.3745 1.98773 1.8034s1.69437.6541 2.60252.6558zm-2.23866-5.5361c-.00076-.5964.23438-1.1688.6541-1.5924.35381-.3558.81735-.5818 1.31556-.6415.4983-.0596 1.002.0506 1.4299.3129l-3.07712 3.0921c-.21017-.3546-.32151-.759-.32244-1.1711z"/><path d="m18.3538 12.8608c.6216-.6213 1.4134-1.0443 2.2753-1.2156.862-.1713 1.7554-.0831 2.5672.2533.8119.3364 1.5058.906 1.994 1.6367s.7487 1.5898.7487 2.4686-.2605 1.7379-.7487 2.4686-1.1821 1.3003-1.994 1.6367c-.8118.3364-1.7052.4245-2.5672.2532-.8619-.1713-1.6537-.5943-2.2753-1.2155l-.8107-.8147-.7693.7777.8062.81c.7741.7704 1.7591 1.2942 2.8307 1.5053s2.1817.1001 3.1902-.3191c1.0086-.4192 1.8703-1.1277 2.4765-2.0362.6063-.9085.9298-1.9762.9298-3.0684 0-1.0921-.3235-2.1598-.9298-3.0683-.6062-.9085-1.4679-1.617-2.4765-2.0362-1.0085-.4192-2.1186-.5303-3.1902-.3191-1.0716.2111-2.0566.7349-2.8307 1.5053l-.8108.8147.7739.7776z"/></g></svg>