<svg xmlns="http://www.w3.org/2000/svg" width="32" height="32" fill="none"><path fill="#0C0A32" d="M16 32c8.837 0 16-7.163 16-16S24.837 0 16 0 0 7.163 0 16s7.163 16 16 16Z"/><path fill="#01E7C1" d="M10.514 21.54a5.498 5.498 0 0 0 3.902-1.62l.81-.816-.004-.004 2.321-2.324 2.354-2.365a2.238 2.238 0 0 1 3.823 1.592 2.24 2.24 0 0 1-3.823 1.592l-.81-.814-.774.773.81.815a3.347 3.347 0 1 0 0-4.731l-.368.37-1.972 2.009-2.33 2.314-.226.227-.493.49.004.006-.096.097a4.434 4.434 0 1 1-3.13-7.592 4.407 4.407 0 0 1 3.13 1.301l1.584 1.588-3.123 3.138a2.237 2.237 0 0 1-2.672.375l3.874-3.888-.437-.44a3.312 3.312 0 0 0-4.708 0 3.347 3.347 0 0 0 2.354 5.712 3.289 3.289 0 0 0 2.354-.981l1.51-1.518v-.005l2.34-2.352-.004-.004.05-.051-2.348-2.36a5.534 5.534 0 1 0-3.902 9.465Zm-2.239-5.537c0-.596.235-1.169.654-1.592a2.23 2.23 0 0 1 2.746-.329l-3.077 3.092a2.307 2.307 0 0 1-.323-1.17Z"/><path fill="#01E7C1" d="M18.354 12.86a4.444 4.444 0 1 1 0 6.287l-.81-.815-.77.778.806.81a5.527 5.527 0 1 0 0-7.837l-.81.815.773.777.81-.814Z"/></svg>