<svg fill="none" height="32" viewBox="0 0 32 32" width="32" xmlns="http://www.w3.org/2000/svg"><path d="m16 32c8.8366 0 16-7.1634 16-16 0-8.83656-7.1634-16-16-16-8.83656 0-16 7.16344-16 16 0 8.8366 7.16344 16 16 16z" fill="#00ca4c"/><path d="m16 31.5c8.5604 0 15.5-6.9396 15.5-15.5 0-8.56041-6.9396-15.5-15.5-15.5-8.56041 0-15.5 6.93959-15.5 15.5 0 8.5604 6.93959 15.5 15.5 15.5z" fill="#fff"/><path d="m9.00092 16.0127 7.45598-3.9789 7.3599 3.9501-7.3535 3.9823z" fill="#009f42"/><path d="m9.00092 16.0127 7.45598-3.9789 7.3599 3.9501-7.3535 3.9823z" fill="#01c853"/><path d="m16.457 12.0338 7.3598 3.9501-7.3534 3.9823z" fill="#009f42"/><path d="m16.4569 16.6229 7.3599-.6391-7.3535 3.9823z" fill="#007831"/><path d="m16.4569 16.6229-7.45598-.6102 7.44958 3.9534z" fill="#009f42"/><path d="m9 17.0709c2.6117 1.3853 5.3331 2.8373 7.4402 3.96l7.3793-3.9589c-2.6718 3.9703-4.8974 7.2727-7.3794 10.9281-2.485-3.6477-5.2309-7.674-7.4401-10.9292z" fill="#009f42"/><path d="m9 17.0709c2.6117 1.3853 5.3331 2.8373 7.4402 3.96l7.3793-3.9589c-2.6718 3.9703-4.8974 7.2727-7.3794 10.9281-2.485-3.6477-5.2309-7.674-7.4401-10.9292z" fill="#01c853"/><path d="m16.4401 21.0308 7.3793-3.9589c-2.6718 3.9703-7.3793 10.9281-7.3793 10.9281z" fill="#009f42"/><path d="m16.4401 21.0308 7.3793-3.9589c-2.6718 3.9703-4.8974 7.2728-7.3793 10.9281z" fill="#009f42"/><path d="m16.439 10.9273-7.43778 3.9166 7.40558-10.8439 7.4102 10.8676z" fill="#01c853"/><path d="m16.4388 10.9273-.0323-6.9273 7.4103 10.8676z" fill="#009f42"/></svg>