<svg xmlns="http://www.w3.org/2000/svg" width="32" height="32" fill="none"><path fill="#00CA4C" d="M16 32c8.837 0 16-7.163 16-16S24.837 0 16 0 0 7.163 0 16s7.163 16 16 16Z"/><path fill="#fff" d="M16 31.5c8.56 0 15.5-6.94 15.5-15.5C31.5 7.44 24.56.5 16 .5 7.44.5.5 7.44.5 16c0 8.56 6.94 15.5 15.5 15.5Z"/><path fill="#009F42" d="m9 16.013 7.457-3.98 7.36 3.95-7.354 3.983-7.462-3.953Z"/><path fill="#01C853" d="m9 16.013 7.457-3.98 7.36 3.95-7.354 3.983-7.462-3.953Z"/><path fill="#009F42" d="m16.457 12.034 7.36 3.95-7.354 3.982-.006-7.932Z"/><path fill="#007831" d="m16.457 16.623 7.36-.64-7.354 3.983-.006-3.343Z"/><path fill="#009F42" d="M16.457 16.623 9 16.013l7.45 3.953.006-3.343Z"/><path fill="#009F42" d="M9 17.07c2.612 1.386 5.333 2.838 7.44 3.96l7.38-3.958c-2.672 3.97-4.898 7.273-7.38 10.928-2.485-3.648-5.23-7.674-7.44-10.93Z"/><path fill="#01C853" d="M9 17.07c2.612 1.386 5.333 2.838 7.44 3.96l7.38-3.958c-2.672 3.97-4.898 7.273-7.38 10.928-2.485-3.648-5.23-7.674-7.44-10.93Z"/><path fill="#009F42" d="m16.44 21.03 7.38-3.958A8036.75 8036.75 0 0 1 16.44 28v-6.97Z"/><path fill="#009F42" d="m16.44 21.03 7.38-3.958c-2.672 3.97-4.898 7.273-7.38 10.928v-6.97Z"/><path fill="#01C853" d="m16.439 10.927-7.438 3.917L16.407 4l7.41 10.868-7.378-3.94Z"/><path fill="#009F42" d="M16.439 10.927 16.407 4l7.41 10.868-7.378-3.94Z"/></svg>