<svg xmlns="http://www.w3.org/2000/svg" width="32" height="32" fill="none"><defs><linearGradient id="etf__a" x1="16" x2="16" y1="0" y2="32" gradientUnits="userSpaceOnUse"><stop stop-color="#2AAAE2"/><stop offset="1" stop-color="#56C5DD"/></linearGradient></defs><path fill="url(#etf__a)" d="M16 32c8.837 0 16-7.163 16-16S24.837 0 16 0 0 7.163 0 16s7.163 16 16 16Z"/><path fill="#fff" d="M14.124 2.11c.32.032.636.072.958.085.1.248.204.494.308.742-.421.007-.84.012-1.26.027l-.006-.853Zm2.345.473c.161.292.392.54.672.722-.015-.454-.13-.9-.337-1.305-.082.146-.25.437-.335.583Zm-2.959.68c.373-.188-.03-.678-.314-.423a.266.266 0 0 0 .005.458.265.265 0 0 0 .31-.035Zm-.86.561.105-.898c-.169.054-.504.158-.672.21.188.231.377.46.567.688Zm2.263-.246c.102-.306-.002-.412-.315-.32-.106.307 0 .413.315.32Zm1.084.297c.197-.089.392-.18.585-.275.144.222.377.778.691.397.482-.35-.252-.525-.516-.594-.319-.1-.638-.204-.957-.304.057.262.122.519.197.776Zm-4.568.133c.26.009.519.018.78.024-.184-.22-.365-.436-.55-.651-.077.208-.154.416-.23.627Zm1.99-.073-.1.904c.242.173.498.324.765.452a56.224 56.224 0 0 0-.12-1.015l.444.222c.324-.115.645-.237.96-.38a1.622 1.622 0 0 1-1.297-.722c-.102.293-.208.585-.312.878-.085-.087-.255-.255-.34-.34Zm2.527.762c-.326-.117-.652-.232-.975-.352.053.226.162.674.215.897l-.738-.16c-.266.371-.758.245-1.142.316a.816.816 0 0 0 .75.97c.184-.492.749-.536 1.159-.736a1.852 1.852 0 0 0-.03.384 1.11 1.11 0 0 0-.963.188.694.694 0 0 0 .796.404l-.173.325a7.531 7.531 0 0 0-1.226-.556 14.5 14.5 0 0 0-.129.266c-.279-.09-.556-.186-.833-.277l.647-.077a3.64 3.64 0 0 0-.99-.617c-.056.3-.113.599-.171.898a16.4 16.4 0 0 0-.718.457c.17.133.51.398.68.534.109-.313.22-.62.335-.931-.02.385-.064.769-.113 1.15a31.849 31.849 0 0 0-1.002-.372 3.155 3.155 0 0 1-.789 1.334l-.064.45a4.626 4.626 0 0 1-.55-1.128l-.142.691-.75-.235.077.747c-.24-.217-.472-.439-.703-.665.24-.334.472-.671.716-1.002a81.017 81.017 0 0 0-.399-.436 2.65 2.65 0 0 0-.35 1.296c-.069.282-.133.565-.202.847.317.443-.022.82-.283 1.175a.982.982 0 0 0 1.119-.113c-.116.338-.321.64-.594.87l.662.054c-.044.405-.109.809-.195 1.208l.79.359a55.506 55.506 0 0 0-.703-.02c-.164-.249-.33-.492-.497-.738-.219.279-.835.452-.684.886.033.341.407.386.651.51a153.41 153.41 0 0 1-.204-.572c.162-.007.483-.022.643-.031l-.233.483c.127.007.377.018.503.022l-.208.364c.135.073.408.22.545.292l-.454.4c.217.028.654.088.873.119.049-.146.149-.437.197-.583.136.22.273.437.388.667-.198.063-.4.112-.605.149-.29.075-.597.058-.877-.05l-.262.475c.004-.24.016-.716.022-.953l-.283.559a4.924 4.924 0 0 0-2.476 1.254c.306.332.607.667.92.993l.015-.572a1.26 1.26 0 0 1 .322.911c.252-.064.507-.13.762-.193-.155-.301-.445-.565-.388-.937-.102.033-.31.102-.412.137l-.13-.926c.29.037.578.077.866.128l.266-.654.56.32c-.356.175-.722.33-1.079.505.368.488.762.281 1.113-.062.404-.13.793-.304 1.159-.52a.883.883 0 0 0-.042.81 28.222 28.222 0 0 0-.574-.14 5.108 5.108 0 0 1-.654.482l.03.68c.362-.277 1.016-.778 1.255-.078-.352.198-.718.368-1.07.561.263.011.53.02.795.027a3.34 3.34 0 0 1 1.647-1.08c1.622-.735 3.23-1.505 4.854-2.231.417-.186.81-.42 1.172-.698-.089-2.76-.015-5.521-.04-8.28a35.14 35.14 0 0 1-.685-.421c.178-.07.534-.209.712-.277l-.807-.448-.293.281-.055-.439c-.162.07-.485.204-.647.273.093.113.277.34.37.452Zm-3.448-.086-.922 1.199a55.226 55.226 0 0 1-.617-.022c.078.2.156.4.23.6l-.768-.24c.166.355.315.721.46 1.087.462-.367.894-.768 1.293-1.201l-.397-.043.676-.616-1.09-.563 1.135-.201Zm-1.441.226c.237-.275-.21-.66-.454-.404-1.135 1.457-.694 1.893-.468 1.603l.922-1.2Zm-1.733.6.811-.17a84.28 84.28 0 0 0-.714-.53c-.955 1.432-.988 1.664-1.019 1.9l.922-1.2Zm2.427 1.15c.128-.886-1-.71-1.15-1.458-.238.23-.475.46-.712.685a8.65 8.65 0 0 0 .94 1.973l.922-1.2Zm-1.01.275c.112-.356-.011-.481-.371-.374-1.028 1.558-.904 1.684-.552 1.573l.922-1.199Zm.914.346-.957.71-.483-.056c-.169.25.257.718.518.545l.922-1.199Zm-4.869 3.783.612.683c.095-.293.186-.585.275-.88.077.12.232.355.312.474l.426-.45a5.918 5.918 0 0 1-1.146-.467l.638-.386c-.294-.11-.59-.217-.884-.326a2.09 2.09 0 0 1-.233 1.352Zm1.532.916-.3-.255-.183.064c-.31.352.465.652.483.19Zm-1.804.662c-.506.528-.242 1.281-.583 1.88.368-.005.736-.007 1.106-.01-.24-.303-.481-.607-.718-.912l.63.086c-.517-.456.059-.913.294-1.327-.328-.142-.667-.253-1.004-.373.09.22.182.437.275.656Zm.736 1.707c.128-.002.383-.002.511-.005.191-.221-.046-.662-.343-.58a.397.397 0 0 0-.169.585Zm10.106 7.956c2.486-1.491 8.15-4.907 8.15-4.907-2.605-1.237-5.436-2.404-8.029-3.672a2.122 2.122 0 0 0-.128.831c.015 2.582.006 5.166.006 7.748ZM7.28 18.617c.16-.332.319-.667.478-1-.319-.01-.638-.02-.96-.024.16.342.32.683.482 1.024Zm10.015 5.838c.013 1.848-.027 3.697.029 5.545 2.08-2.75 4-5.618 6.021-8.415.614-.904 1.319-1.749 1.844-2.71-2.418 1.274-4.7 2.792-7.052 4.18a1.421 1.421 0 0 0-.842 1.4Zm-4.878-3.923c1.62.944 3.178 1.995 4.836 2.868.044-.476.148-1.112-.448-1.279-2.079-.937-4.109-1.99-6.232-2.816.572.47 1.19.881 1.844 1.227Z"/></svg>