<svg fill="none" height="32" viewBox="0 0 32 32" width="32" xmlns="http://www.w3.org/2000/svg" xmlns:xlink="http://www.w3.org/1999/xlink"><linearGradient id="a" gradientUnits="userSpaceOnUse" x1="16" x2="16" y1="0" y2="32"><stop offset="0" stop-color="#2aaae2"/><stop offset="1" stop-color="#56c5dd"/></linearGradient><path d="m16 32c8.8366 0 16-7.1634 16-16 0-8.83656-7.1634-16-16-16-8.83656 0-16 7.16344-16 16 0 8.8366 7.16344 16 16 16z" fill="url(#a)"/><path d="m14.1243 2.11081c.3191.031.636.07092.9574.08422.0997.24822.2039.49422.308.74244-.421.00665-.84.01108-1.2588.0266zm2.3448.47206c.1613.29217.3919.54026.6715.7225-.0144-.45468-.1294-.90052-.3369-1.30537-.082.14627-.2504.4366-.3346.58287zm-2.9587.68039c.3723-.18838-.031-.67817-.3147-.4233-.0318.01901-.0593.04448-.0807.07476-.0213.03028-.0361.0647-.0433.10104s-.0068.0738.0014.10994c.0081.03615.0237.07019.0458.09993.0222.02973.0503.0545.0825.07271.0323.01821.068.02945.1049.03299.0369.00355.0741-.00068.1093-.0124.0351-.01173.0674-.03069.0948-.05567zm-.8599.56071c.0354-.2992.0687-.59839.1041-.89758-.1684.05319-.5031.15735-.6715.21054.1884.23049.3768.45876.5674.68707zm2.2627-.246c.102-.30584-.0022-.41222-.3147-.31913-.1063.30583 0 .41221.3147.31916zm1.0838.297c.1972-.08865.3923-.17951.5851-.27481.144.22162.3767.7779.6914.3967.481-.35016-.2526-.52525-.5163-.59395-.3192-.09973-.6383-.20389-.9575-.30362.0577.26148.1219.51857.1973.77565zm-4.5677.133c.2593.00886.5186.01773.7801.02437-.1839-.2194-.3656-.4366-.5496-.65157-.0776.20828-.1551.4166-.2305.62715zm1.9902-.07314c-.0244.22606-.0753.67817-.0997.90423.2412.17266.497.32394.7646.45211-.0377-.33909-.0776-.67817-.1197-1.015l.4432.22162c.3236-.11524.645-.23713.9597-.379-.258-.00854-.5103-.07855-.7358-.20422-.2255-.12566-.4177-.30335-.5607-.51828-.102.29255-.2083.58509-.3125.87763-.0842-.08649-.2549-.25492-.3391-.33914zm2.5265.76239c-.3258-.11746-.6516-.23271-.9751-.35239.0532.22606.1618.67374.215.89758-.184-.03989-.5541-.11968-.738-.15957-.266.37011-.758.24379-1.1414.31471-.0224.11391-.0202.23129.0064.34429.0267.11299.0772.21899.1481.3109s.1606.16761.2632.22202c.1025.05442.2155.08629.3314.0935.184-.492.7491-.53633 1.1591-.73579-.0229.12646-.0325.25495-.0288.38341-.1644-.04468-.3368-.05092-.504-.01826-.1672.03267-.3246.10337-.4601.20664.064.15007.1789.27278.3244.34655s.3124.09389.4713.05681l-.1729.32578c-.3911-.22165-.8013-.40783-1.2256-.55632-.0333.06648-.0975.19946-.1286.266-.2792-.09087-.5562-.18617-.8333-.277l.6472-.07757c-.295-.2573-.6295-.46535-.9907-.61612-.0554.2992-.113.59839-.1706.89758-.2438.14406-.481.29919-.7181.45655.1706.133.5097.39892.6804.53411.1086-.31249.2194-.62055.3346-.93082-.0199.38563-.0642.769-.113 1.15023-.3324-.12854-.6648-.25487-1.0017-.37233-.1479.50347-.4191.96206-.789 1.33418l-.0643.44989c-.2336-.34934-.4185-.72887-.54962-1.12814l-.14184.69147c-.18838-.05763-.56293-.1773-.75131-.23493.01995.18617.05762.5585.07757.74688-.23935-.21719-.47206-.43882-.70255-.66488.23936-.33465.47206-.67152.71585-1.00174-.133-.14627-.266-.29254-.39893-.4366-.22607.39495-.34666.84145-.35016 1.29651-.0687.28146-.133.56514-.20168.8466.31692.44325-.02216.81995-.28368 1.17465.17565.0981.37721.1398.57738.1196.20018-.0202.38931-.1014.54182-.2326-.11566.3386-.32093.6396-.594.871.16622.0133.49644.0399.66266.0532-.04409.4057-.10918.8088-.195 1.2078.26373.1197.52525.2394.789.359-.17508-.0066-.52747-.0155-.70255-.02-.164-.2482-.33022-.492-.49644-.738-.2194.2792-.83552.4521-.68482.8865.03325.3413.40779.3856.65158.5097-.051-.1418-.15292-.4277-.20389-.5718.16178-.0066.48314-.0221.64271-.031-.05763.1219-.17509.3635-.23271.4832.12633.0066.37676.0177.50309.0221-.05319.0909-.15736.2726-.20833.3635.13519.0731.40779.2194.5452.2925-.11525.0998-.34131.2992-.45433.399.21719.0288.65379.0886.8732.1197.04875-.1463.14848-.4366.19728-.5829.1351.2194.2726.4366.3878.6671-.1982.0627-.4003.1123-.605.1484-.29054.0751-.5972.058-.87763-.0487l-.26152.4743c.00443-.2394.01551-.7159.02216-.953l-.28368.5585c-.92838.1721-1.78769.6076-2.47555 1.2544.30584.3324.60725.6671.91974.9929l.01552-.5718c.1108.1232.19622.2671.25136.4234s.07893.3219.06999.4874c.25265-.0642.50752-.1307.76239-.1928-.15514-.3014-.44547-.5651-.38784-.9374-.10195.0332-.31028.1019-.41222.1374-.03325-.2327-.09752-.6959-.13076-.9264.29032.0377.57844.0776.86655.1285.06648-.1618.19946-.4898.266-.6538.13962.0798.41887.2394.56071.3192-.35682.1751-.7225.3302-1.07931.5053.36789.4875.76238.2814 1.11255-.0621.40462-.1296.7934-.3043 1.15902-.5208-.0714.122-.11249.2593-.11982.4004-.00733.1412.01933.282.07772.4107-.1906-.0487-.3812-.0953-.574-.1396-.20484.1774-.42346.3382-.65379.4809.00886.2261.01994.4522.031.6804.36125-.277 1.015-.7779 1.2544-.0775-.35238.1972-.71806.3679-1.07045.5607.26374.0111.52968.0199.79563.0266.42793-.5171 1.00183-.8932 1.64663-1.0793 1.6223-.7358 3.2291-1.5049 4.8536-2.2318.4171-.1853.8107-.4197 1.1724-.6981-.0887-2.7592-.0155-5.52067-.0399-8.27989-.2305-.13741-.4588-.27925-.6848-.42109.1773-.0687.5341-.20833.7114-.277-.2682-.14849-.5385-.29919-.8067-.44768-.0731.07092-.2194.21054-.2926.28146l-.0554-.43881c-.1617.0687-.4853.20389-.6471.27259.0931.113.2771.33906.3701.45209zm-3.4485-.08644-.922 1.199c-.1551-.00443-.4631-.01551-.6161-.02216.0776.19946.1552.40114.2305.6006-.1906-.05984-.5762-.17952-.769-.23936.1662.3546.3147.72028.461 1.086.461-.36653.893-.76816 1.2921-1.2013l-.3967-.04211c.226-.20611.4499-.41.676-.61611-.3635-.18838-.727-.37602-1.0904-.56293zm-1.4405.22606c.2371-.27482-.2106-.66044-.4543-.40336-1.13472 1.45602-.69372 1.89262-.4677 1.6023zm-1.7331.6006c.27038-.05762.54076-.113.8111-.17065-.2371-.1773-.47424-.3546-.71359-.52968-.9552 1.43164-.98843 1.66435-1.01943 1.89927zm2.4268 1.15023c.1285-.8865-.9995-.71142-1.1503-1.45829-.2371.23049-.4742.45877-.71136.68482.22856.69455.54436 1.35731.93966 1.97241zm-1.0106.27481c.113-.35681-.0104-.48166-.3701-.37454-1.02838 1.55797-.90427 1.68429-.55189 1.57348zm.9153.34574-.9574.70915c-.1197-.0133-.3635-.04211-.4832-.05541-.1684.25044.2571.71804.5186.5452zm-4.8691 3.78308c.20389.2283.40778.4543.61168.6826.0953-.2926.18616-.5851.27481-.8798.07757.1196.23271.3546.31249.4742.10638-.113.31914-.3369.42552-.4499-.39722-.1154-.78126-.2721-1.14582-.4676.15957-.0953.47871-.2903.63828-.38563-.29476-.11081-.58952-.21719-.88428-.32578.07672.46401-.00526.94031-.23268 1.35191zm1.53142.9153c-.07535-.0643-.22384-.1906-.29919-.2549l-.18395.0643c-.31028.3524.4654.6516.48314.1906zm-1.804.6627c-.50531.5274-.24157 1.281-.58287 1.8793.36789-.0044.73579-.0066 1.1059-.0088-.23935-.3037-.48092-.6073-.71806-.9131.15735.0221.47206.0642.62941.0864-.51638-.4565.05984-.9131.29476-1.3275-.328-.1419-.66709-.2527-1.004-.3724.09089.2195.18176.4366.27484.6561zm.73579 1.7065c.12854-.0023.38341-.0023.51195-.0045.1906-.2216-.04654-.6626-.34352-.5806-.05313.0234-.10046.0583-.13865.102s-.06631.0953-.08238.1511-.01969.1145-.0106.1718c.00908.0574.03065.1121.06318.1602zm10.10609 7.9563c2.4866-1.4916 8.1512-4.9073 8.1512-4.9073-2.6063-1.2367-5.4363-2.4041-8.0293-3.6718-.0979.2657-.1416.5483-.1286.8311.0155 2.5819.0066 5.1661.0066 7.748zm-10.07503-3.6147c.15957-.3324.31914-.6671.47871-.9995-.31914-.0111-.63828-.02-.95964-.0244.15956.3413.31985.6826.48088 1.0239zm10.01513 5.8376c.0133 1.8483-.0266 3.6967.0288 5.545 2.0811-2.7504 4.0003-5.6182 6.0216-8.4151.6138-.9042 1.3186-1.7486 1.8439-2.7104-2.418 1.2743-4.7007 2.7924-7.0521 4.1798-.2674.1185-.4917.3166-.6424.5673-.1508.2506-.2205.5417-.1998.8334zm-4.8779-3.9228c1.62.9442 3.1781 1.9947 4.8358 2.8679.0443-.4765.1485-1.1126-.4477-1.2788-2.0788-.9375-4.1089-1.9902-6.2321-2.8168.5717.4703 1.1895.8817 1.844 1.2277z" fill="#fff"/></svg>