<svg fill="none" height="32" viewBox="0 0 32 32" width="32" xmlns="http://www.w3.org/2000/svg"><path d="m16 32c8.8366 0 16-7.1634 16-16 0-8.83656-7.1634-16-16-16-8.83656 0-16 7.16344-16 16 0 8.8366 7.16344 16 16 16z" fill="#fff"/><path d="m16.1386 6-.1341.45574v13.22446l.1341.1338 6.1386-3.6285z" fill="#343434"/><path d="m16.1386 6-6.1386 10.1855 6.1386 3.6286v-6.4188z" fill="#8c8c8c"/><path d="m16.1386 20.9763-.0756.0921v4.7109l.0756.2207 6.1423-8.6504z" fill="#3c3c3b"/><path d="m16.1386 25.9999v-5.0236l-6.1386-3.6268z" fill="#8c8c8c"/><path d="m16.1386 19.814 6.1385-3.6285-6.1385-2.7901z" fill="#141414"/><path d="m10 16.1855 6.1386 3.6285v-6.4186z" fill="#393939"/></svg>