<svg width="32" height="32" fill="none" xmlns="http://www.w3.org/2000/svg"><path d="M16 32c8.837 0 16-7.163 16-16S24.837 0 16 0 0 7.163 0 16s7.163 16 16 16Z" fill="#fff"/><path d="m16.139 6-.134.456V19.68l.134.134 6.138-3.628L16.14 6Z" fill="#343434"/><path d="M16.139 6 10 16.186l6.139 3.628V6Z" fill="#8C8C8C"/><path d="m16.139 20.976-.076.092v4.711l.076.221 6.142-8.65-6.142 3.626Z" fill="#3C3C3B"/><path d="M16.139 26v-5.024L10 17.35 16.139 26Z" fill="#8C8C8C"/><path d="m16.139 19.814 6.138-3.628-6.138-2.79v6.418Z" fill="#141414"/><path d="m10 16.186 6.139 3.628v-6.419L10 16.185Z" fill="#393939"/></svg>