<svg xmlns="http://www.w3.org/2000/svg" width="32" height="32" fill="none"><path fill="#fff" d="M16 32c8.837 0 16-7.163 16-16S24.837 0 16 0 0 7.163 0 16s7.163 16 16 16Z"/><path fill="#343434" d="m16.139 6-.134.456V19.68l.134.134 6.138-3.628L16.14 6Z"/><path fill="#8C8C8C" d="M16.139 6 10 16.186l6.139 3.628V6Z"/><path fill="#3C3C3B" d="m16.139 20.976-.076.092v4.711l.076.221 6.142-8.65-6.142 3.626Z"/><path fill="#8C8C8C" d="M16.139 26v-5.024L10 17.35 16.139 26Z"/><path fill="#141414" d="m16.139 19.814 6.138-3.628-6.138-2.79v6.418Z"/><path fill="#393939" d="m10 16.186 6.139 3.628v-6.419L10 16.185Z"/></svg>