<svg xmlns="http://www.w3.org/2000/svg" width="32" height="32" fill="none"><defs><linearGradient id="ethw__b" x1="8.854" x2="17.721" y1="15.937" y2="7.069" gradientUnits="userSpaceOnUse"><stop offset=".324" stop-color="#AC9CF2"/><stop offset=".326" stop-color="#AC9CF2"/><stop offset=".465" stop-color="#B1B3EA"/><stop offset=".613" stop-color="#B4C3E5"/><stop offset=".78" stop-color="#B6CDE2"/><stop offset="1" stop-color="#B7D0E1"/></linearGradient><linearGradient id="ethw__c" x1="22.45" x2="13.582" y1="15.937" y2="7.069" gradientUnits="userSpaceOnUse"><stop offset=".324" stop-color="#B2DBF5"/><stop offset=".443" stop-color="#C4E3F4"/><stop offset=".598" stop-color="#D4EAF4"/><stop offset=".771" stop-color="#DEEFF3"/><stop offset="1" stop-color="#E1F0F3"/></linearGradient><linearGradient id="ethw__d" x1="11.926" x2="18.614" y1="16.597" y2="16.597" gradientUnits="userSpaceOnUse"><stop offset=".324" stop-color="#D6CDFB"/><stop offset=".428" stop-color="#D9D4FA"/><stop offset=".655" stop-color="#DCDEF9"/><stop offset=".953" stop-color="#DDE1F9"/></linearGradient><linearGradient id="ethw__e" x1="19.377" x2="12.69" y1="16.597" y2="16.597" gradientUnits="userSpaceOnUse"><stop offset=".324" stop-color="#ECF2F2"/><stop offset=".365" stop-color="#EEF4F3"/><stop offset=".619" stop-color="#F8FAF6"/><stop offset=".953" stop-color="#FBFCF7"/></linearGradient><linearGradient id="ethw__f" x1="9" x2="15.652" y1="22.179" y2="22.179" gradientUnits="userSpaceOnUse"><stop offset=".324" stop-color="#6E89D3"/><stop offset=".326" stop-color="#6E89D3"/><stop offset=".5" stop-color="#6A83E3"/><stop offset=".695" stop-color="#6880ED"/><stop offset=".953" stop-color="#677FF0"/></linearGradient><linearGradient id="ethw__g" x1="22.304" x2="15.652" y1="22.179" y2="22.179" gradientUnits="userSpaceOnUse"><stop offset=".324" stop-color="#C4C5FC"/><stop offset=".544" stop-color="#C8CBF8"/><stop offset=".953" stop-color="#CACEF6"/></linearGradient><linearGradient id="ethw__h" x1="11.727" x2="12.477" y1="11.854" y2="10.399" gradientUnits="userSpaceOnUse"><stop stop-color="#718BD4"/><stop offset=".012" stop-color="#758ED5"/><stop offset=".058" stop-color="#7790D6"/><stop offset=".099" stop-color="#7A92D7"/><stop offset=".259" stop-color="#889DDD"/><stop offset=".473" stop-color="#9AAAE4"/><stop offset=".695" stop-color="#AEB9EC"/><stop offset="1" stop-color="#C6CBF5"/></linearGradient><linearGradient id="ethw__j" x1="12.072" x2="12.822" y1="18.347" y2="16.892" gradientUnits="userSpaceOnUse"><stop stop-color="#718BD4"/><stop offset=".012" stop-color="#758ED5"/><stop offset=".058" stop-color="#7790D6"/><stop offset=".099" stop-color="#7A92D7"/><stop offset=".259" stop-color="#889DDD"/><stop offset=".473" stop-color="#9AAAE4"/><stop offset=".695" stop-color="#AEB9EC"/><stop offset="1" stop-color="#C6CBF5"/></linearGradient><linearGradient id="ethw__l" x1="18.734" x2="19.483" y1="11.854" y2="10.399" gradientUnits="userSpaceOnUse"><stop stop-color="#718BD4"/><stop offset=".012" stop-color="#758ED5"/><stop offset=".058" stop-color="#7790D6"/><stop offset=".099" stop-color="#7A92D7"/><stop offset=".259" stop-color="#889DDD"/><stop offset=".473" stop-color="#9AAAE4"/><stop offset=".695" stop-color="#AEB9EC"/><stop offset="1" stop-color="#C6CBF5"/></linearGradient><linearGradient id="ethw__n" x1="18.351" x2="19.1" y1="18.347" y2="16.892" gradientUnits="userSpaceOnUse"><stop stop-color="#718BD4"/><stop offset=".012" stop-color="#758ED5"/><stop offset=".058" stop-color="#7790D6"/><stop offset=".099" stop-color="#7A92D7"/><stop offset=".259" stop-color="#889DDD"/><stop offset=".473" stop-color="#9AAAE4"/><stop offset=".695" stop-color="#AEB9EC"/><stop offset="1" stop-color="#C6CBF5"/></linearGradient><linearGradient id="ethw__p" x1="15.305" x2="16.055" y1="13.99" y2="12.535" gradientUnits="userSpaceOnUse"><stop stop-color="#718BD4"/><stop offset=".012" stop-color="#758ED5"/><stop offset=".058" stop-color="#7790D6"/><stop offset=".099" stop-color="#7A92D7"/><stop offset=".259" stop-color="#889DDD"/><stop offset=".473" stop-color="#9AAAE4"/><stop offset=".695" stop-color="#AEB9EC"/><stop offset="1" stop-color="#C6CBF5"/></linearGradient><radialGradient id="ethw__i" cx="0" cy="0" r="1" gradientTransform="rotate(42.001 -7.692 21.622) scale(.17692)" gradientUnits="userSpaceOnUse"><stop stop-color="#DADCF4"/><stop offset=".008" stop-color="#DADCF4"/><stop offset=".058" stop-color="#DADCF4"/><stop offset=".099" stop-color="#DADCF4"/><stop offset=".473" stop-color="#DADCF4"/><stop offset="1" stop-color="#DADCF4"/></radialGradient><radialGradient id="ethw__k" cx="0" cy="0" r="1" gradientTransform="rotate(42 -15.976 25.318) scale(.17692)" gradientUnits="userSpaceOnUse"><stop stop-color="#DADCF4"/><stop offset=".008" stop-color="#DADCF4"/><stop offset=".058" stop-color="#DADCF4"/><stop offset=".099" stop-color="#DADCF4"/><stop offset=".473" stop-color="#DADCF4"/><stop offset="1" stop-color="#DADCF4"/></radialGradient><radialGradient id="ethw__m" cx="0" cy="0" r="1" gradientTransform="rotate(42 -4.19 30.747) scale(.17692)" gradientUnits="userSpaceOnUse"><stop stop-color="#DADCF4"/><stop offset=".008" stop-color="#DADCF4"/><stop offset=".058" stop-color="#DADCF4"/><stop offset=".099" stop-color="#DADCF4"/><stop offset=".473" stop-color="#DADCF4"/><stop offset="1" stop-color="#DADCF4"/></radialGradient><radialGradient id="ethw__o" cx="0" cy="0" r="1" gradientTransform="rotate(42.001 -12.837 33.495) scale(.17692)" gradientUnits="userSpaceOnUse"><stop stop-color="#DADCF4"/><stop offset=".008" stop-color="#DADCF4"/><stop offset=".058" stop-color="#DADCF4"/><stop offset=".099" stop-color="#DADCF4"/><stop offset=".473" stop-color="#DADCF4"/><stop offset="1" stop-color="#DADCF4"/></radialGradient><radialGradient id="ethw__q" cx="0" cy="0" r="1" gradientTransform="rotate(42.001 -8.686 27.35) scale(.17692)" gradientUnits="userSpaceOnUse"><stop stop-color="#DADCF4"/><stop offset=".008" stop-color="#DADCF4"/><stop offset=".058" stop-color="#DADCF4"/><stop offset=".099" stop-color="#DADCF4"/><stop offset=".473" stop-color="#DADCF4"/><stop offset="1" stop-color="#DADCF4"/></radialGradient><clipPath id="ethw__a"><path fill="#fff" d="M0 0h32v32H0z"/></clipPath></defs><g clip-path="url(#ethw__a)"><circle cx="16" cy="16" r="16" fill="#fff"/><path fill="url(#ethw__b)" d="M9 16.084 15.652 5v8.278L9 16.084Z"/><path fill="url(#ethw__c)" d="M22.304 16.084 15.652 5v8.278l6.652 2.806Z"/><path fill="url(#ethw__d)" d="M15.652 13.252 9 16.058l6.652 3.884v-6.69Z"/><path fill="url(#ethw__e)" d="m15.652 13.252 6.652 2.806-6.652 3.884v-6.69Z"/><path fill="url(#ethw__f)" d="M9 17.357 15.652 27v-5.759L9 17.357Z"/><path fill="url(#ethw__g)" d="M22.304 17.357 15.652 27v-5.759l6.652-3.884Z"/><path stroke="#B0B4E9" stroke-width=".235" d="m12.066 11.103.363 6.606m6.641-6.606-.362 6.606m-3.046-4.411-3.233 4.356m3.106-4.356 3.232 4.356"/><path fill="url(#ethw__h)" d="M12.084 11.98a.818.818 0 1 0 0-1.637.818.818 0 0 0 0 1.636Z"/><path fill="url(#ethw__i)" d="M12.656 10.85c-.043.049-.155.018-.25-.068-.096-.085-.138-.194-.095-.242.043-.048.155-.017.251.068.096.086.138.195.094.243Z"/><path fill="url(#ethw__j)" d="M12.43 18.473a.818.818 0 1 0 0-1.637.818.818 0 0 0 0 1.637Z"/><path fill="url(#ethw__k)" d="M13.002 17.344c-.043.048-.155.017-.25-.068-.096-.086-.138-.195-.095-.243.043-.048.155-.017.25.069.096.085.138.194.095.242Z"/><path fill="url(#ethw__l)" d="M19.09 11.98a.818.818 0 1 0 .001-1.637.818.818 0 0 0 0 1.636Z"/><path fill="url(#ethw__m)" d="M19.663 10.85c-.043.049-.155.018-.251-.068-.095-.085-.137-.194-.094-.242.043-.048.155-.017.25.068.096.086.138.195.095.243Z"/><path fill="url(#ethw__n)" d="M18.707 18.473a.818.818 0 1 0 0-1.637.818.818 0 0 0 0 1.637Z"/><path fill="url(#ethw__o)" d="M19.28 17.344c-.043.048-.155.017-.251-.068-.096-.086-.138-.195-.095-.243.044-.048.156-.017.252.069.095.085.138.194.094.242Z"/><path fill="url(#ethw__p)" d="M15.662 14.116a.818.818 0 1 0 0-1.636.818.818 0 0 0 0 1.636Z"/><path fill="url(#ethw__q)" d="M16.234 12.987c-.043.048-.155.018-.25-.068-.096-.086-.138-.194-.095-.242.043-.048.155-.018.25.068.096.086.139.194.095.242Z"/></g></svg>