<svg xmlns="http://www.w3.org/2000/svg" width="32" height="32" fill="none"><path fill="#fff" d="M16 32c8.837 0 16-7.163 16-16S24.837 0 16 0 0 7.163 0 16s7.163 16 16 16Z"/><path fill="#0D0D1F" d="M31 16.01v.352c.002.064-.002.128-.01.19A15.002 15.002 0 1 1 2.398 9.626c.038-.077.076-.162.114-.239.067-.124.124-.257.19-.38a15.062 15.062 0 0 1 9.969-7.653c.304-.067.609-.124.904-.172.019 0 .047-.01.066-.01.114-.018.238-.038.352-.047l.219-.029c.038 0 .076-.01.114-.01a2 2 0 0 1 .238-.018c.047 0 .085-.01.133-.01.082-.01.165-.017.247-.019a.323.323 0 0 0 .095-.01c.058 0 .124-.009.171-.009.076-.007.153-.01.229-.01h.18c.064.002.128-.001.19-.009h.23c1.853 0 3.691.343 5.42 1.01h-.323a14.093 14.093 0 0 0-2.549.229c-.058.008-.115.02-.171.038l-.514.114c.262.107.508.248.733.42a8.376 8.376 0 0 0-4.052.733 8.885 8.885 0 0 0-2.996 2.202l.418.057a9.4 9.4 0 0 1 1.588.4c-.684.386-1.327.84-1.92 1.354a10.37 10.37 0 0 0-2.189 2.582 8.314 8.314 0 0 0-.989 2.602 8.39 8.39 0 0 0-.066 2.697 11.53 11.53 0 0 1 1.997-2.573l.029-.029c.232-.226.476-.44.732-.639a4.58 4.58 0 0 1-.095.572c-.029.134-.067.258-.095.381a9.228 9.228 0 0 1 1.332-1.334 9.78 9.78 0 0 1 2.377-1.43 5.915 5.915 0 0 1 .067-3.983c.34.78.854 1.47 1.503 2.02 1.065.887 1.94.868 3.32 1.811a8.49 8.49 0 0 1 1.636 1.478c.039-.074.074-.15.104-.23.057-.116.105-.237.143-.361.028-.086.057-.162.085-.248a5.4 5.4 0 0 1 .571.734v.01c.171.228 1.218 1.667.694 2.896-.06.14-.136.27-.228.391a2.176 2.176 0 0 1-1.398 2.706 1.935 1.935 0 0 0-.276-1.696c-.096-.11-.212-.2-.342-.267a.666.666 0 0 1-.095.476 3.213 3.213 0 0 0-1.36.573c-.463.336-.816.8-1.018 1.334a3.115 3.115 0 0 0 1.331 3.621 6.981 6.981 0 0 0 3.672-2.287.84.84 0 0 0 .076-.105 6.385 6.385 0 0 0 1.227-3.64 7.464 7.464 0 0 0-.18-1.992c.84.267 1.56.82 2.035 1.563a11.787 11.787 0 0 0-2.245-5.604 11.42 11.42 0 0 0-1.979-2.02 6.493 6.493 0 0 1 3.263.429 8.261 8.261 0 0 0-.533-2.602c-.038-.085-.066-.18-.104-.267v-.01a8.14 8.14 0 0 0-1.399-2.22c.324.182.638.372.942.572.01.01.02.01.02.02.97.66 1.87 1.42 2.681 2.267a.094.094 0 0 1 .038.048c.039.048.086.086.124.133l.01.01a14.044 14.044 0 0 1 3.015 5.032v.01c.01.018.01.028.019.047.01.019.01.029.019.048.01.019.01.038.019.057.553 1.564.836 3.21.837 4.87Z"/><path fill="#262551" d="M8.848 4.964c-.028.01-.047.019-.076.028-.01 0-.019.01-.028.01-.038.01-.067.029-.105.038a.976.976 0 0 0-.152.067.072.072 0 0 0-.038.019c-.01 0-.01.01-.019.01-.038.018-.076.028-.114.047a2.434 2.434 0 0 0-.228.105c-.029.019-.067.028-.095.047a3.318 3.318 0 0 0-.257.134l-.057.028c-.029.02-.057.029-.086.048-.029.02-.057.029-.086.048h-.01l-.142.086a.64.64 0 0 0-.104.066h.009a.01.01 0 0 0 .007-.003.01.01 0 0 0 .002-.006c.01 0 .01-.01.02-.01.057-.038.114-.067.18-.105.108-.066.22-.126.333-.18.057-.03.105-.058.162-.086a.072.072 0 0 1 .047-.02.784.784 0 0 0 .124-.066c.067-.038.143-.067.21-.105.047-.02.104-.048.151-.067.077-.038.153-.067.238-.105.067-.028.124-.047.19-.076a.168.168 0 0 1-.076.048Zm0 0c-.028.01-.047.019-.076.028-.01 0-.019.01-.028.01-.038.01-.067.029-.105.038a.976.976 0 0 0-.152.067.072.072 0 0 0-.038.019c-.01 0-.01.01-.019.01-.038.018-.076.028-.114.047a2.434 2.434 0 0 0-.228.105c-.029.019-.067.028-.095.047a3.318 3.318 0 0 0-.257.134l-.057.028c-.029.02-.057.029-.086.048-.029.02-.057.029-.086.048h-.01l-.142.086a.64.64 0 0 0-.104.066h.009a.01.01 0 0 0 .007-.003.01.01 0 0 0 .002-.006c.01 0 .01-.01.02-.01.057-.038.114-.067.18-.105.108-.066.22-.126.333-.18.057-.03.105-.058.162-.086a.072.072 0 0 1 .047-.02.784.784 0 0 0 .124-.066c.067-.038.143-.067.21-.105.047-.02.104-.048.151-.067.077-.038.153-.067.238-.105.067-.028.124-.047.19-.076a.168.168 0 0 1-.076.048Zm0 0c-.028.01-.047.019-.076.028-.01 0-.019.01-.028.01-.038.01-.067.029-.105.038a.976.976 0 0 0-.152.067.072.072 0 0 0-.038.019c-.01 0-.01.01-.019.01-.038.018-.076.028-.114.047a2.434 2.434 0 0 0-.228.105c-.029.019-.067.028-.095.047a3.318 3.318 0 0 0-.257.134l-.057.028c-.029.02-.057.029-.086.048-.029.02-.057.029-.086.048h-.01l-.142.086a.64.64 0 0 0-.104.066h.009a.01.01 0 0 0 .007-.003.01.01 0 0 0 .002-.006c.01 0 .01-.01.02-.01.057-.038.114-.067.18-.105.108-.066.22-.126.333-.18.057-.03.105-.058.162-.086a.072.072 0 0 1 .047-.02.784.784 0 0 0 .124-.066c.067-.038.143-.067.21-.105.047-.02.104-.048.151-.067.077-.038.153-.067.238-.105.067-.028.124-.047.19-.076a.168.168 0 0 1-.076.048Zm0 0c-.028.01-.047.019-.076.028-.01 0-.019.01-.028.01-.038.01-.067.029-.105.038a.976.976 0 0 0-.152.067.072.072 0 0 0-.038.019c-.01 0-.01.01-.019.01-.038.018-.076.028-.114.047a2.434 2.434 0 0 0-.228.105c-.029.019-.067.028-.095.047a3.318 3.318 0 0 0-.257.134l-.057.028c-.029.02-.057.029-.086.048-.029.02-.057.029-.086.048h-.01l-.142.086a.64.64 0 0 0-.104.066h.009a.01.01 0 0 0 .007-.003.01.01 0 0 0 .002-.006c.01 0 .01-.01.02-.01.057-.038.114-.067.18-.105.108-.066.22-.126.333-.18.057-.03.105-.058.162-.086a.072.072 0 0 1 .047-.02.784.784 0 0 0 .124-.066c.067-.038.143-.067.21-.105.047-.02.104-.048.151-.067.077-.038.153-.067.238-.105.067-.028.124-.047.19-.076a.168.168 0 0 1-.076.048Zm0 0c-.028.01-.047.019-.076.028-.01 0-.019.01-.028.01-.038.01-.067.029-.105.038a.976.976 0 0 0-.152.067.072.072 0 0 0-.038.019c-.01 0-.01.01-.019.01-.038.018-.076.028-.114.047a2.434 2.434 0 0 0-.228.105c-.029.019-.067.028-.095.047a3.318 3.318 0 0 0-.257.134l-.057.028c-.029.02-.057.029-.086.048-.029.02-.057.029-.086.048h-.01l-.142.086a.64.64 0 0 0-.104.066h.009a.01.01 0 0 0 .007-.003.01.01 0 0 0 .002-.006c.01 0 .01-.01.02-.01.057-.038.114-.067.18-.105.108-.066.22-.126.333-.18.057-.03.105-.058.162-.086a.072.072 0 0 1 .047-.02.784.784 0 0 0 .124-.066c.067-.038.143-.067.21-.105.047-.02.104-.048.151-.067.077-.038.153-.067.238-.105.067-.028.124-.047.19-.076a.168.168 0 0 1-.076.048Zm-6.315 7.7c-.02.057-.029.124-.048.181l-.057.248c-.019.105-.047.21-.067.314-.019.086-.028.162-.047.248 0 .019-.01.038-.01.067-.01.057-.01.114-.019.162.01-.057.02-.115.029-.181 0-.02.01-.048.01-.067 0-.019.009-.038.009-.057a.21.21 0 0 0 .01-.076c.009-.077.028-.143.037-.21l.029-.152c.038-.172.076-.334.114-.496.02 0 .01.01.01.019Zm2.93 12.398v.029a.018.018 0 0 0 .006-.014.018.018 0 0 0-.007-.015Zm.817-1.515v-.095c.01.03.01.064 0 .095Zm5.146 2.287c.02.029.038.048.057.076.02.02.029.048.048.067-.038-.047-.067-.095-.105-.143Zm6.23 2.764c.058.038.105.067.152.095h.01a1.735 1.735 0 0 1-.162-.095Zm-4.375-9.215c-.054.356-.089.716-.105 1.076a.058.058 0 0 1 .01-.038 5.75 5.75 0 0 1 .104-.915.592.592 0 0 1-.009-.123Zm.029 8.252Zm3.176-12.007a5.09 5.09 0 0 0-2.254 1.658 5.215 5.215 0 0 0-.942 2.23 7.41 7.41 0 0 0 2.369 5.108 7.005 7.005 0 0 0 3.224 1.582 5.718 5.718 0 0 1-1.988-1.582c0-.01-.01-.01-.01-.019-1.863-2.364-1.768-6.213.39-8.177.039-.038.087-.076.125-.114.033-.03.067-.06.104-.086.01 0 .01-.01.02-.01a1.15 1.15 0 0 1 .123-.095l.086-.057c.028-.019.047-.038.075-.057a4.52 4.52 0 0 1 .286-.181c.028-.02.066-.038.095-.057a1.81 1.81 0 0 1 .2-.105.336.336 0 0 1 .085-.038c.029-.02.067-.029.095-.048.039-.019.077-.028.114-.047.03-.01.048-.02.077-.03a.465.465 0 0 1 .104-.037.402.402 0 0 0 .095-.038c.029-.01.067-.02.096-.029.104-.038.209-.066.304-.095.104-.029.2-.057.304-.076l.143-.029.133-.028c.088-.018.177-.03.267-.039h.018c.06-.01.12-.017.181-.019.067-.01.124-.01.18-.019.058 0 .115-.01.163-.01a.725.725 0 0 0 .142-.009 10.47 10.47 0 0 0-4.404.553Zm2.816 10.759c.01 0 .019.01.038.019l-.038-.019Zm.133.057a.01.01 0 0 1-.004 0 .01.01 0 0 1-.003-.003.01.01 0 0 1-.002-.003.01.01 0 0 1 0-.003c-.01 0-.02-.01-.029-.01.025.011.05.02.076.029a.072.072 0 0 1-.038-.01Zm.2.076h-.01a.656.656 0 0 1-.095-.038c-.01 0-.01 0-.019-.01-.019-.009-.028-.009-.047-.018l.142.057a.623.623 0 0 0 .067.019c-.01 0-.02-.01-.038-.01Zm1.912.381a7.989 7.989 0 0 1-.875-.104c-.048-.01-.086-.02-.134-.029.07.017.14.03.21.038.076.01.142.029.2.038.17.029.323.038.437.057a.162.162 0 0 1 .067.01.123.123 0 0 1 .057.01h.019c0-.01.019-.01.019-.02Zm6.582-3.974a.01.01 0 0 1 0 .004.01.01 0 0 1-.003.003l-.003.002-.004.001c.01-.01.01-.019.02-.029 0 .01-.01.01-.01.02Zm1.76-8.157c0-.029-.01-.067-.01-.105a.122.122 0 0 0-.01-.057c.01.057.01.124.02.181.009 0 0-.01 0-.019Zm-.324-1.772c.052.837.052 1.678 0 2.515a18.3 18.3 0 0 1-.428 2.955 17.525 17.525 0 0 1-.552 1.906 8.396 8.396 0 0 0-.019-2.488 7.057 7.057 0 0 0-.228-1 8.628 8.628 0 0 1-1.56 4.631 9.41 9.41 0 0 1-7.048 3.631h-.124c.029.029.048.057.076.086.02.019.038.047.067.076.028.029.048.057.076.086.038.038.076.086.114.124.095.105.2.21.305.314a.946.946 0 0 0 .114.105c.038.038.076.067.114.105.038.038.085.076.123.114.02.021.043.04.067.057.095.086.19.162.276.23a.198.198 0 0 0 .057.037l.01.01c.018.019.047.038.066.057.19.143.352.267.485.352h.02c.047.03.094.058.132.086a.38.38 0 0 0 .086.048.048.048 0 0 0 .038.019.2.2 0 0 1 .057.038c.02.01.029.02.048.029.01.01.019.01.028.019.01 0 .01.01.02.01a.2.2 0 0 1 .056.037l.057.029a.033.033 0 0 1 .02.01c.009 0 .018.009.028.009.04.019.078.041.114.067a.71.71 0 0 1 .124.067c.028.018.066.028.095.047l.076.038a.57.57 0 0 1 .076.038c.047.02.085.038.133.057a1.213 1.213 0 0 0 .181.077c.019.01.047.019.066.028a.033.033 0 0 1 .02.01c.009 0 .009.01.018.01.01 0 .02.009.029.009.01 0 .019.01.028.01.01 0 .01.009.02.009a.65.65 0 0 1 .095.038c.01 0 .01.01.018.01.039.01.077.028.105.038h.01c.019.01.038.01.047.019a.866.866 0 0 1 .095-.057 13.982 13.982 0 0 0 6.402-11.741 14.31 14.31 0 0 0-.333-3.011Zm-.285 1.277c.038.152.085.304.114.447a4.37 4.37 0 0 0-.114-.447Zm-.476-1.335c-.057-.133-.124-.266-.18-.4.056.134.114.267.18.4.02.048.048.105.067.153-.026-.05-.049-.1-.067-.153Zm-.58-1.124c.086.152.18.314.266.476-.085-.171-.18-.324-.266-.476Zm-.685-1.03c.067.086.133.182.2.286a2.158 2.158 0 0 0-.2-.285Zm-.637-.724c.076.067.152.143.238.229a1.81 1.81 0 0 0-.238-.229Zm-.6-.533v.066c.134.096.286.2.428.324l.172.143a17.498 17.498 0 0 0-.6-.533Zm-.142.676a5.765 5.765 0 0 0-.675-.743c-.105-.095-.21-.19-.314-.276a3.08 3.08 0 0 0-.21-.162 5.463 5.463 0 0 0-.78-.496c-.057-.029-.104-.057-.161-.086-.029-.01-.057-.028-.086-.038h-.019c.152.124.304.267.457.41l.142.143c.086.086.162.162.238.248.029.028.057.066.086.095.038.038.066.076.104.114a.66.66 0 0 1 .076.096c.067.085.143.171.21.257a.722.722 0 0 1 .076.105c.038.047.066.095.105.143.114.152.209.305.313.457.285.448.524.924.714 1.42.085.22.161.439.228.658a.086.086 0 0 1 .01.047c.038.134.076.277.114.42.01.019.01.038.019.057a9.38 9.38 0 0 1 .218 1.563c.01.133.01.257.01.39.002.255-.011.51-.038.763a8.925 8.925 0 0 1-.343 1.753 9.414 9.414 0 0 0-.323-.705c-.105-.2-.21-.39-.333-.581a6.568 6.568 0 0 0-.466-.677c-.01-.01-.01-.019-.019-.028a2.898 2.898 0 0 0-.162-.2c-.038-.039-.066-.086-.104-.124-.038-.038-.067-.086-.105-.124 0 .01.01.019.01.028a2.5 2.5 0 0 1 .066.258c.038.152.067.314.095.467a.382.382 0 0 1 .01.047l.028.2c.01.105.02.21.02.315a7.779 7.779 0 0 1 1.322 2.802 11.27 11.27 0 0 0 .76-3.574 7.94 7.94 0 0 0-1.293-5.442Zm-.79 6.824c0 .133 0 .276-.01.428a.12.12 0 0 1 .01-.057 1.454 1.454 0 0 0 0-.371Zm-.114 1.19v.01c.01-.028.01-.066.02-.095 0-.01.009-.029.009-.038a.565.565 0 0 0 .019-.124c.028-.164.047-.33.057-.495a9.33 9.33 0 0 1-.105.743Zm-1.93 2.65h.003a.008.008 0 0 0 .003-.003l.002-.003v-.003c.01-.02.01-.029.02-.048a.082.082 0 0 1-.029.057ZM22.031 15c-.01.01-.01.028-.029.066-.019.03-.047.067-.076.105-.01.01-.019.01-.019.02l-.01.009-.009.01a.2.2 0 0 1-.057.037c-.01 0-.01.01-.019.01h-.01a.01.01 0 0 0-.003 0 .01.01 0 0 0-.003.003l-.002.003-.001.003a.033.033 0 0 0-.019.01.517.517 0 0 1-.38 0c.01.01.028.02.047.038.025.02.047.042.067.067l.028.028.02.02c.011.01.02.023.028.038.019.038.047.076.066.114.023.03.049.06.076.086a1.057 1.057 0 0 1 .152.8 1.39 1.39 0 0 0 .181-.343A1.93 1.93 0 0 0 22.032 15Zm-2.13-1.678c0-.009-.01-.018-.02-.028-.019-.02-.028-.038-.048-.057l-.028-.029-.01-.01c-.009-.009-.009-.009-.018-.009l-.01-.01-.01-.009c-.009 0-.009-.01-.019-.01-.009-.009-.018-.009-.018-.019-.01-.01-.02-.01-.03-.019h-.009l-.057-.028h-.01c-.009-.01-.018-.01-.037-.02a.03.03 0 0 1-.02-.009h-.009a.033.033 0 0 1-.019-.01c-.01 0-.019-.009-.028-.009h-.01c-.01 0-.028-.01-.038-.01h-.019c-.01 0-.01 0-.019-.009h-.019a.516.516 0 0 0-.418.095h-.01v.01l-.01.01a.377.377 0 0 0-.095.143c0 .01-.01.01-.01.018v.058a.12.12 0 0 0 .048.047c.01 0 .01.01.02.01.009 0 .009 0 .018.01.02.009.038.009.057.018a.057.057 0 0 1 .038.01h.03c.018 0 .037.01.056.01h.01c.028 0 .047.009.076.009h.076c.019 0 .038.01.057.01a.12.12 0 0 1 .057.01c.038.009.086.018.124.028.028.01.066.019.095.028.01 0 .01 0 .019.01a.998.998 0 0 1 .238.143l.019.019c.01 0 .01.01.019.019l.01.01.009.009.019.019.038.038c.01.01.01.019.019.029a.734.734 0 0 0-.105-.524Zm-3.71-8.5a.615.615 0 0 0 .085.019c-.028-.01-.057-.01-.085-.02ZM5.519 21.746c-.01.038-.01.076-.019.114.02-.105.029-.21.048-.324l-.029.21ZM8.85 4.964c-.03.01-.048.019-.077.028-.01 0-.019.01-.028.01-.038.01-.067.029-.105.038a.976.976 0 0 0-.152.067.072.072 0 0 0-.038.019c-.01 0-.01.01-.019.01-.038.018-.076.028-.114.047a2.434 2.434 0 0 0-.228.105c-.029.019-.067.028-.096.047-.085.039-.17.086-.256.134l-.057.028c-.029.02-.057.029-.086.048-.029.02-.057.029-.086.048h-.01l-.142.086a.64.64 0 0 0-.104.066h.009a.01.01 0 0 0 .007-.003.01.01 0 0 0 .002-.006c.01 0 .01-.01.02-.01.057-.038.114-.067.18-.105.108-.066.22-.126.333-.18.057-.03.105-.058.162-.086a.072.072 0 0 1 .047-.02.784.784 0 0 0 .124-.066c.067-.038.143-.067.21-.105.047-.02.104-.048.151-.067.077-.038.153-.067.238-.105.067-.028.124-.047.19-.076a.168.168 0 0 1-.076.048Zm0 0c-.03.01-.048.019-.077.028-.01 0-.019.01-.028.01-.038.01-.067.029-.105.038a.976.976 0 0 0-.152.067.072.072 0 0 0-.038.019c-.01 0-.01.01-.019.01-.038.018-.076.028-.114.047a2.434 2.434 0 0 0-.228.105c-.029.019-.067.028-.096.047-.085.039-.17.086-.256.134l-.057.028c-.029.02-.057.029-.086.048-.029.02-.057.029-.086.048h-.01l-.142.086a.64.64 0 0 0-.104.066h.009a.01.01 0 0 0 .007-.003.01.01 0 0 0 .002-.006c.01 0 .01-.01.02-.01.057-.038.114-.067.18-.105.108-.066.22-.126.333-.18.057-.03.105-.058.162-.086a.072.072 0 0 1 .047-.02.784.784 0 0 0 .124-.066c.067-.038.143-.067.21-.105.047-.02.104-.048.151-.067.077-.038.153-.067.238-.105.067-.028.124-.047.19-.076a.168.168 0 0 1-.076.048Zm0 0c-.03.01-.048.019-.077.028-.01 0-.019.01-.028.01-.038.01-.067.029-.105.038a.976.976 0 0 0-.152.067.072.072 0 0 0-.038.019c-.01 0-.01.01-.019.01-.038.018-.076.028-.114.047a2.434 2.434 0 0 0-.228.105c-.029.019-.067.028-.096.047-.085.039-.17.086-.256.134l-.057.028c-.029.02-.057.029-.086.048-.029.02-.057.029-.086.048h-.01l-.142.086a.64.64 0 0 0-.104.066h.009a.01.01 0 0 0 .007-.003.01.01 0 0 0 .002-.006c.01 0 .01-.01.02-.01.057-.038.114-.067.18-.105.108-.066.22-.126.333-.18.057-.03.105-.058.162-.086a.072.072 0 0 1 .047-.02.784.784 0 0 0 .124-.066c.067-.038.143-.067.21-.105.047-.02.104-.048.151-.067.077-.038.153-.067.238-.105.067-.028.124-.047.19-.076a.168.168 0 0 1-.076.048Zm0 0c-.03.01-.048.019-.077.028-.01 0-.019.01-.028.01-.038.01-.067.029-.105.038a.976.976 0 0 0-.152.067.072.072 0 0 0-.038.019c-.01 0-.01.01-.019.01-.038.018-.076.028-.114.047a2.434 2.434 0 0 0-.228.105c-.029.019-.067.028-.096.047-.085.039-.17.086-.256.134l-.057.028c-.029.02-.057.029-.086.048-.029.02-.057.029-.086.048h-.01l-.142.086a.64.64 0 0 0-.104.066h.009a.01.01 0 0 0 .007-.003.01.01 0 0 0 .002-.006c.01 0 .01-.01.02-.01.057-.038.114-.067.18-.105.108-.066.22-.126.333-.18.057-.03.105-.058.162-.086a.072.072 0 0 1 .047-.02.784.784 0 0 0 .124-.066c.067-.038.143-.067.21-.105.047-.02.104-.048.151-.067.077-.038.153-.067.238-.105.067-.028.124-.047.19-.076a.168.168 0 0 1-.076.048Zm0 0c-.03.01-.048.019-.077.028-.01 0-.019.01-.028.01-.038.01-.067.029-.105.038a.976.976 0 0 0-.152.067.072.072 0 0 0-.038.019c-.01 0-.01.01-.019.01-.038.018-.076.028-.114.047a2.434 2.434 0 0 0-.228.105c-.029.019-.067.028-.096.047-.085.039-.17.086-.256.134l-.057.028c-.029.02-.057.029-.086.048-.029.02-.057.029-.086.048h-.01l-.142.086a.64.64 0 0 0-.104.066h.009a.01.01 0 0 0 .007-.003.01.01 0 0 0 .002-.006c.01 0 .01-.01.02-.01.057-.038.114-.067.18-.105.108-.066.22-.126.333-.18.057-.03.105-.058.162-.086a.072.072 0 0 1 .047-.02.784.784 0 0 0 .124-.066c.067-.038.143-.067.21-.105.047-.02.104-.048.151-.067.077-.038.153-.067.238-.105.067-.028.124-.047.19-.076a.168.168 0 0 1-.076.048Zm0 0c-.03.01-.048.019-.077.028-.01 0-.019.01-.028.01-.038.01-.067.029-.105.038a.976.976 0 0 0-.152.067.072.072 0 0 0-.038.019c-.01 0-.01.01-.019.01-.038.018-.076.028-.114.047a2.434 2.434 0 0 0-.228.105c-.029.019-.067.028-.096.047-.085.039-.17.086-.256.134l-.057.028c-.029.02-.057.029-.086.048-.029.02-.057.029-.086.048h-.01l-.142.086a.64.64 0 0 0-.104.066h.009a.01.01 0 0 0 .007-.003.01.01 0 0 0 .002-.006c.01 0 .01-.01.02-.01.057-.038.114-.067.18-.105.108-.066.22-.126.333-.18.057-.03.105-.058.162-.086a.072.072 0 0 1 .047-.02.784.784 0 0 0 .124-.066c.067-.038.143-.067.21-.105.047-.02.104-.048.151-.067.077-.038.153-.067.238-.105.067-.028.124-.047.19-.076a.168.168 0 0 1-.076.048Z"/><path fill="#fff" d="M22.035 16.14a1.452 1.452 0 0 1-.181.343 1.054 1.054 0 0 0-.076-.668c-.029-.047-.048-.095-.076-.133a.622.622 0 0 1-.143-.2.13.13 0 0 1-.029-.038c-.01-.01-.01-.02-.019-.02l-.028-.028a.442.442 0 0 0-.067-.067c-.019-.019-.038-.028-.047-.038a.516.516 0 0 0 .4-.01c.009 0 .009 0 .009-.009h.01c.009 0 .009-.01.018-.01.02-.009.038-.028.057-.037l.01-.01a.01.01 0 0 0 .003 0 .009.009 0 0 0 .006-.006v-.003l.02-.02a.571.571 0 0 0 .075-.104.166.166 0 0 0 .029-.067c.152.357.162.76.029 1.124Z"/><path fill="#D0CFF9" d="M21.568 16.275a.857.857 0 0 0-.2-.61l-.038-.038a.13.13 0 0 0-.038-.029.132.132 0 0 0-.038-.028c-.01-.01-.019-.02-.028-.02-.01-.009-.02-.018-.029-.018-.01-.01-.019-.01-.028-.02l-.058-.028c-.009 0-.018-.01-.028-.01a.058.058 0 0 1 .01-.037c0-.01.01-.02.01-.03v-.009c.008-.01.008-.019.018-.028.01-.01.019-.02.019-.029l.019-.019.01-.01c.009-.009.019-.009.019-.018.009-.01.009-.01.018-.01a.255.255 0 0 1 .153 0c.01.01.028.02.047.038.025.02.047.042.067.067l.028.029.02.019a.13.13 0 0 1 .028.038c.019.038.047.076.067.114a.721.721 0 0 1-.047.686Z"/><path fill="#fff" d="M19.991 13.836c-.01-.01-.01-.019-.019-.029-.01-.009-.019-.028-.038-.038 0-.01-.01-.01-.019-.019l-.01-.01-.01-.009-.018-.019-.02-.019c-.009-.01-.028-.019-.037-.028a1.356 1.356 0 0 0-.2-.115c-.01 0-.01-.01-.019-.01a2.504 2.504 0 0 0-.219-.057c-.019 0-.038-.009-.057-.009a.119.119 0 0 1-.057-.01h-.076c-.029 0-.057-.01-.076-.01h-.01a.121.121 0 0 1-.057-.009c-.028 0-.047-.01-.076-.01-.019-.009-.038-.009-.057-.018-.01 0-.01 0-.019-.01-.01 0-.01-.01-.019-.01a.077.077 0 0 1-.047-.047.06.06 0 0 1 0-.057c0-.01 0-.01.01-.019a.47.47 0 0 1 .094-.143l.01-.01v-.01h.01a.525.525 0 0 1 .418-.094h.019c.01 0 .019 0 .019.01h.019c.019 0 .028.009.038.009h.01c.009 0 .018.01.028.01a.034.034 0 0 1 .019.009h.01c.009 0 .009 0 .018.01.01.009.02.009.038.018h.01l.057.029h.01c.01.01.019.01.028.019a.02.02 0 0 1 .019.019c.01 0 .01.01.02.01l.009.009h.003l.003.003.003.003a.01.01 0 0 1 0 .003c.01 0 .01.01.02.01l.009.01.028.028a.253.253 0 0 1 .048.057c.01.01.019.02.019.029a.635.635 0 0 1 .114.524Z"/><path fill="#fff" d="M29.562 12.997a13.955 13.955 0 0 0-.96-2.85 22.684 22.684 0 0 0-.99-1.782 14.05 14.05 0 0 0-1.703-2.115c.01.028.02.066.029.095.01.029.019.067.028.095.057.19.105.4.153.61a9.99 9.99 0 0 1 .2 2.478c-.058-.048-.096-.076-.105-.086a.586.586 0 0 1-.076-.047.2.2 0 0 1-.058-.039c-.047-.028-.085-.057-.133-.085a.949.949 0 0 0-.133-.077c-.047-.028-.085-.047-.133-.076l-.124-.067c-.01-.01-.019-.01-.028-.019a.01.01 0 0 1-.009-.005.01.01 0 0 1 0-.004l-.115-.057a2.418 2.418 0 0 0-.228-.105c-.067-.029-.133-.067-.2-.095l-.143-.058a.466.466 0 0 0-.104-.038 5.319 5.319 0 0 0-.352-.133.535.535 0 0 0-.114-.038c-.02-.01-.029-.01-.048-.02-.038-.009-.076-.028-.114-.037-.019-.01-.047-.01-.066-.02a.18.18 0 0 0-.077-.019h-.01c.153.134.305.267.457.41l.143.143c.086.086.162.162.238.248.029.029.057.067.086.095.038.038.066.077.104.115.028.029.054.06.076.095l.2.257a.73.73 0 0 1 .076.105c.038.048.067.095.105.143l.314.458c.284.448.523.923.713 1.42.086.219.162.438.228.657a.071.071 0 0 1 .01.048c.038.133.076.276.114.419 0 .019.01.038.01.057a9.37 9.37 0 0 1 .218 1.563c.01.134.01.257.01.39.002.255-.011.51-.038.763a8.932 8.932 0 0 1-.343 1.754 9.473 9.473 0 0 0-.323-.706c-.105-.2-.21-.39-.333-.58a6.543 6.543 0 0 0-.466-.678c-.01-.009-.01-.019-.02-.028-.047-.067-.104-.133-.16-.2-.039-.038-.067-.086-.105-.124-.038-.038-.067-.086-.105-.124 0 .01.01.019.01.029.026.084.048.17.066.257.038.152.066.314.095.467 0 .019.01.028.01.047.01.067.017.134.019.2.01.105.019.21.019.315v.238c0 .105 0 .21-.01.315v.067c.01.123.007.248-.01.371a.122.122 0 0 1-.009.057v.02c-.01.165-.03.33-.057.495-.01.038-.01.086-.019.124 0 .01-.01.029-.01.038-.009.029-.009.057-.018.076v.02c-.01.028-.01.056-.02.075-.017.087-.04.173-.066.258l-.029.114c-.019.048-.028.105-.047.153-.01.038-.029.076-.038.114-.06.186-.134.367-.219.543-.019.038-.038.086-.057.124a8.15 8.15 0 0 1-.533.953 1.63 1.63 0 0 0-.085.133c-.105.153-.22.315-.333.468-.038.047-.076.104-.124.162-.105.133-.228.276-.352.419-.038.038-.066.076-.105.114a2.356 2.356 0 0 1-.152.162c-.038.048-.085.086-.123.134-.095.095-.19.2-.286.295-.114.114-.228.22-.342.334-.057.057-.124.114-.18.171-.058.057-.124.114-.191.172.029-.038.067-.077.095-.115.029-.038.067-.085.095-.124l.01-.01a.53.53 0 0 0 .057-.075c.01-.02.028-.038.038-.057.034-.043.066-.088.095-.134v-.01l.133-.19c.057-.086.114-.181.171-.277.038-.068.08-.135.124-.2v-.01l.114-.2c.038-.066.076-.142.114-.218.124-.239.238-.467.333-.696.02-.048.048-.095.067-.143.019-.057.047-.114.066-.172-.038.038-.066.086-.104.124-.241.291-.498.568-.77.83-.048.047-.096.085-.144.133-.056.047-.114.105-.17.152l-.172.143a8.157 8.157 0 0 1-.856.63c-.038.018-.066.047-.105.066-.066.047-.142.086-.218.133-.048.029-.105.067-.152.096a10.096 10.096 0 0 1-.457.248c-.048.028-.105.047-.152.076l-.114.057a8.44 8.44 0 0 0-.324.143c.02-.02.048-.038.076-.067a.477.477 0 0 1 .076-.067c.234-.221.447-.464.638-.724.047-.057.085-.124.133-.19.066-.099.126-.2.18-.306.01-.018.029-.047.039-.066.038-.067.066-.134.104-.2a2.72 2.72 0 0 1-.333.228 3.274 3.274 0 0 1-1.38.438 4.295 4.295 0 0 1-.58-.419c-.028-.028-.056-.047-.085-.076-.028-.028-.057-.048-.085-.076a4.766 4.766 0 0 1-.6-.696 4.578 4.578 0 0 1-.304-.514c-.01-.029-.028-.058-.038-.086-.029-.067-.057-.124-.086-.19a3.97 3.97 0 0 1-.171-.553.415.415 0 0 1-.019-.105c-.01-.038-.01-.067-.019-.105-.01-.029-.01-.057-.019-.095 0-.02-.01-.038-.01-.058a.325.325 0 0 1-.009-.095.163.163 0 0 0-.01-.067c0-.038-.009-.066-.009-.104a1.545 1.545 0 0 1-.01-.21c.002-.188.018-.376.048-.562l.029-.153a.783.783 0 0 1 .038-.143c.01-.019.01-.047.019-.067.019-.057.028-.114.047-.171.02-.048.038-.105.057-.152.02-.063.045-.124.076-.181a.286.286 0 0 1 .038-.077c.01-.028.03-.047.039-.076a.201.201 0 0 1 .038-.057c.031-.06.066-.117.104-.172a.096.096 0 0 1 .038-.047c.048-.067.086-.134.143-.2a.4.4 0 0 0 .048-.067c.045-.065.096-.125.152-.181.047-.057.104-.115.161-.172l.058-.057.057-.057a.258.258 0 0 1 .057-.048c.035-.037.073-.072.114-.105a1.417 1.417 0 0 1 .162-.133c.028-.019.057-.048.085-.067.01-.01.02-.01.02-.019l.094-.067c.02-.019.048-.028.067-.047a.196.196 0 0 0 .057-.038 4.29 4.29 0 0 0 .219-.143c.038-.02.066-.048.104-.067a.826.826 0 0 0 .095-.057.38.38 0 0 1 .086-.048l.01-.01c.057-.028.104-.056.152-.075h.01a.937.937 0 0 1 .104-.048l.057-.029a4.41 4.41 0 0 1 .97-.305c.019 0 .029-.01.048-.01a9.959 9.959 0 0 0-4.395.534c-2.13 1.659-1.57 4.956-1.493 5.375a6.749 6.749 0 0 0 1.893 3.603c.01.01.01.01.01.019a5.716 5.716 0 0 0 1.987 1.582c.029.01.057.028.086.038.028.019.066.028.095.047.028.02.067.029.095.048.01 0 .01.01.02.01a.12.12 0 0 0 .056.018l.048.02h.01l.037.019a.033.033 0 0 1 .02.01c.009.009.028.009.037.018.01 0 .02.01.029.01a.01.01 0 0 1 .007.003l.002.003v.003c.01 0 .02.01.038.01.02.01.029.01.048.019.01 0 .01 0 .019.01a.65.65 0 0 1 .095.037h.01c.009 0 .028.01.038.01.019.01.028.01.047.019a.593.593 0 0 0 .067.02c.047.018.104.028.152.047.01 0 .01 0 .019.01.059.02.12.035.18.047.048.01.096.029.153.038.047.01.104.029.152.038.028.01.057.01.086.02.047.009.095.018.133.028.289.055.581.09.875.105a5.84 5.84 0 0 1-.485-.353c-.02-.019-.048-.038-.067-.057l-.01-.01c-.018-.01-.037-.028-.056-.038a4.983 4.983 0 0 1-.21-.171l.029.028.003.001a.01.01 0 0 1 .004.002l.002.003a.01.01 0 0 1 0 .004c.029.019.048.038.076.057l.01.01h.01v.009l.01.01c.008.009.028.019.037.028h.01c.01 0 .01.01.019.01.01 0 .01.01.019.01.076.056.161.123.247.18.03.02.06.042.085.067.01 0 .01.01.02.01a.01.01 0 0 1 .003 0l.003.002.002.003a.01.01 0 0 1 .001.004c.01.01.019.01.029.02.028.018.047.037.076.056l.01.01c.018.019.047.028.066.047.01.01.028.02.038.029.01.01.019.01.028.02h.01c.047.028.095.056.133.085.026.02.055.035.086.047a.04.04 0 0 0 .017.014.048.048 0 0 0 .02.005c.022.01.041.023.058.039.019.01.028.019.047.028.01.01.02.01.029.02.01 0 .01.009.019.009.02.01.04.022.057.038l.057.029a.033.033 0 0 1 .02.01c.009 0 .018.009.028.009a.65.65 0 0 1 .114.066.813.813 0 0 1 .123.067c.029.02.067.029.095.048l.077.038a.55.55 0 0 1 .076.038c.047.02.085.038.133.057.038.02.085.038.123.057.018.01.037.017.058.02a.44.44 0 0 0 .066.028.034.034 0 0 1 .02.01c.009 0 .009.01.018.01.01 0 .02.009.029.009.01 0 .019.01.028.01a.033.033 0 0 1 .02.009.397.397 0 0 1 .094.038.034.034 0 0 1 .02.01c.037.009.075.028.104.037h.01c.018.01.037.01.047.02.029-.02.067-.039.095-.058a13.981 13.981 0 0 0 6.402-11.74 15.66 15.66 0 0 0-.352-2.945ZM23.36 20.81c-.01.02-.01.029-.019.048l-.01.01.03-.058Zm-3.167-5.66c-.086.01-.172.018-.267.038.096-.02.181-.029.267-.039Zm-.837.162Zm7.543-5.252Zm.637.725c.066.085.133.18.209.286-.067-.105-.143-.2-.21-.286Zm.685 1.029c.085.152.18.315.266.476-.086-.17-.18-.324-.266-.476Zm.57 1.125c-.057-.134-.123-.267-.18-.4.066.133.123.266.18.4.02.047.048.104.067.152a1.074 1.074 0 0 0-.067-.152Zm.485 1.334Z"/><path fill="#FF9E00" d="M13.273 19.513a5.045 5.045 0 0 1 .941-2.23 5.11 5.11 0 0 1 2.255-1.658 9.957 9.957 0 0 1 4.394-.534c-.01-.01-.019-.028-.038-.038l-.029-.028-.028-.029a2.354 2.354 0 0 0-.152-.143c-.02-.019-.038-.028-.057-.048a.999.999 0 0 1-.115-.095c-.018-.019-.038-.028-.057-.047l-.104-.077a2.215 2.215 0 0 0-.295-.18c-.029-.02-.057-.03-.086-.048-.028-.02-.057-.029-.085-.048-.029-.02-.067-.029-.095-.048-.029-.01-.067-.028-.096-.038a3.358 3.358 0 0 0-1.569-.238h-.019c-.038 0-.076.01-.114.01h-.02c-.037 0-.075.009-.113.009a4.25 4.25 0 0 0-.152.029h-.02c-.028.01-.056.01-.085.019l-.133.028a.275.275 0 0 1-.086.02.29.29 0 0 1-.076.018c.01-.01.02-.028.029-.038a1.39 1.39 0 0 1 .114-.162.074.074 0 0 1 .038-.038.165.165 0 0 1 .038-.048c.028-.028.048-.057.076-.085.21-.22.472-.383.76-.477a.542.542 0 0 0-.132-.048c-.029-.009-.048-.019-.076-.028-.029-.01-.048-.02-.076-.029a1.156 1.156 0 0 0-.172-.047c-.028-.01-.066-.02-.095-.029a1.95 1.95 0 0 0-.228-.048 1.928 1.928 0 0 0-.247-.038L17 12.976c-.152-.01-.323-.01-.485-.01-.07.002-.14.008-.209.02-.125.007-.25.027-.371.056l-.114.029-.114.029c-.055.011-.11.027-.162.047-.048.02-.105.029-.152.048a1.02 1.02 0 0 0-.18.067c-.02.01-.039.01-.058.019.01-.02.01-.029.02-.048l.028-.057a.547.547 0 0 1 .066-.133.571.571 0 0 0 .044-.086h.004a.287.287 0 0 1 .047-.067.843.843 0 0 1 .114-.162c.01-.02.02-.029.029-.048a1.873 1.873 0 0 1 .162-.19l.057-.058.057-.057.057-.057a.408.408 0 0 1 .067-.057.254.254 0 0 1 .057-.048c.018-.019.047-.038.066-.057l.086-.057.085-.057c.038-.02.067-.048.105-.067a2.264 2.264 0 0 1 .323-.162c.097-.04.195-.076.295-.105l.229-.057c.076-.01.142-.029.209-.038a.384.384 0 0 1 .104-.01c.149-.012.298-.015.447-.01.048 0 .105.01.143.01.029 0 .057.01.086.01.028 0 .057.01.076.01a.058.058 0 0 1 .038.009c.01 0 .028.01.038.01.005-.001.01 0 .015.001.005.002.01.004.013.008.02 0 .029.01.048.01h.019a.07.07 0 0 0-.048.01c-.019 0-.038.009-.057.009h-.01c-.018 0-.047.01-.075.01-.02 0-.038.009-.057.009-.02 0-.038.01-.057.01-.029.009-.067.018-.105.028a1.09 1.09 0 0 0-.124.047.46.46 0 0 1-.073.032l-.002.003a.01.01 0 0 0 0 .004c-.01 0-.02.01-.03.01-.009 0-.018.009-.028.009a.55.55 0 0 0-.067.038.2.2 0 0 0-.057.038c-.019.01-.038.028-.057.038a.37.37 0 0 0-.095.076c-.019.02-.047.038-.066.057l-.057.058-.01.01-.028.028-.029.028-.019.02a3.152 3.152 0 0 1 2.758.38.62.62 0 0 1 .086.077.29.29 0 0 1 .076.076l.067.067c.019.019.038.047.066.076l.114.143a.83.83 0 0 1 .067.095.153.153 0 0 1 .038.067c.048.086.095.162.143.248.038.076.076.143.114.219l.086.171c.018.048.047.096.066.143.03.056.055.113.076.172a.57.57 0 0 0 .038.076c.01.029.029.048.038.076.044.082.091.162.143.239.01.019.029.038.038.057.02.019.029.038.038.047l.019.02c.01.009.019.009.019.018.01.01.019.01.019.02.018.01.034.022.048.038.019.01.028.019.047.028.01 0 .02.01.029.01.01 0 .019.01.028.01a.119.119 0 0 0 .057.009h.115c.028 0 .047-.01.076-.01a.846.846 0 0 0 .161-.076c.01-.01.02-.01.029-.019.01-.01.019-.019.028-.019.02-.02.038-.029.057-.048l.02-.019c.009-.01.009-.019.018-.019l.029-.028c.01-.01.019-.02.019-.029.409-.495.276-1.458-.38-2.382a2.47 2.47 0 0 1-.19.476c-.02.029-.03.057-.048.086a1.77 1.77 0 0 1-.143.2 2.007 2.007 0 0 0-.133-.162 1.009 1.009 0 0 1-.095-.114 8.817 8.817 0 0 0-.485-.524l-.086-.086a1.146 1.146 0 0 0-.114-.105 7.29 7.29 0 0 0-.828-.696c-.066-.047-.133-.085-.19-.133-.028-.02-.067-.038-.095-.057-.057-.038-.124-.077-.18-.115l-.086-.057a1.072 1.072 0 0 0-.181-.095l-.114-.057-.114-.058a3.046 3.046 0 0 0-.324-.143c-.038-.009-.066-.028-.104-.038-.039-.01-.067-.028-.105-.038-.048-.019-.105-.038-.152-.057l-.171-.057a.939.939 0 0 0-.096-.029 2.599 2.599 0 0 1-.19-.076c-.028-.01-.066-.028-.104-.038a.01.01 0 0 1-.007-.003.01.01 0 0 1-.002-.003v-.003a2.87 2.87 0 0 1-.305-.143l-.114-.058a.706.706 0 0 1-.114-.066c-.039-.02-.077-.048-.115-.067a3.545 3.545 0 0 1-.238-.162c-.047-.029-.085-.067-.133-.095a1.217 1.217 0 0 1-.123-.105l-.181-.153c-.057-.057-.114-.105-.162-.162a1.084 1.084 0 0 0-.104-.105c-.029-.038-.067-.066-.096-.104l-.009-.01c-.029-.038-.057-.067-.086-.105-.028-.038-.057-.066-.085-.105-.02-.028-.048-.057-.067-.085a2.782 2.782 0 0 1-.219-.324l-.056-.086a.84.84 0 0 0-.058-.095.381.381 0 0 1-.047-.086c-.01.076-.01.152-.02.229v.362c.005.343.043.684.115 1.02.008.051.02.102.038.152v.01c.01.047.029.095.038.142.01.029.02.067.029.096.01.024.016.05.019.076.045.15.099.296.161.438.01.029.02.048.029.077.057.123.104.238.161.343a5.137 5.137 0 0 0-1.046.286c-.038.019-.085.028-.123.047a1.322 1.322 0 0 0-.172.076c-.057.029-.114.048-.161.077a4.836 4.836 0 0 0-.39.21c-.076.037-.143.085-.21.123-.066.038-.123.086-.18.124.028-.01.047-.019.076-.028l.085-.03c.02-.009.038-.009.057-.018.088-.028.177-.05.267-.067a3.93 3.93 0 0 1 .37-.048c.127-.01.255-.01.381 0l-.057.029c-.057.029-.123.057-.19.095a7.135 7.135 0 0 1-.352.181c-.076.04-.15.084-.219.134a3.03 3.03 0 0 0-.314.2c-.047.029-.085.057-.133.086-.085.057-.171.124-.266.19a5.79 5.79 0 0 0-.4.315c-.085.076-.18.152-.275.238a.86.86 0 0 1-.096.086c-.057.057-.123.114-.18.171l-.181.181a8.941 8.941 0 0 0-1.427 2.002c0 .01-.01.019-.01.028-.018-.228-.037-.457-.037-.695 0-.303.018-.606.057-.906l-.029.029-.028.028-.048.048a.619.619 0 0 0-.076.086l-.01.01-.009.009h-.004a.008.008 0 0 0-.003.003l-.002.003a.01.01 0 0 0 0 .003c-.01.01-.02.01-.02.02l-.018.019-.02.019-.028.028-.067.067-.01.01-.009.009-.01.01-.009.009-.01.01-.009.009-.057.057c-.038.048-.085.086-.123.143a.552.552 0 0 0-.067.076c-.048.058-.095.105-.143.162-.038.048-.085.096-.123.153-.057.076-.124.152-.19.229-.124.152-.257.324-.39.505l-.2.286c-.029.038-.057.085-.086.123a1.85 1.85 0 0 0-.086.134c-.028.048-.057.086-.085.133-.057.096-.124.191-.18.286l-.086.143c-.029.053-.06.104-.096.153a.535.535 0 0 1-.047.076c-.029.048-.057.105-.086.152-.01.01-.01.02-.019.029-.01.01-.01.019-.019.038-.01.02-.028.048-.038.067-.019.028-.028.057-.047.086-.01.019-.02.028-.02.047l-.028.057-.028.058c-.029.057-.067.123-.096.19a.01.01 0 0 1 0 .004.01.01 0 0 1-.002.003l-.003.002h-.004l-.029.058c-.028.057-.057.105-.085.162-.01.028-.029.048-.038.076a.566.566 0 0 1-.038.076c-.029.058-.048.105-.076.162-.01.01-.01.02-.02.039-.028.066-.056.123-.085.19 0 .01-.01.02-.01.029-.009.01-.009.028-.018.038a.567.567 0 0 1-.038.076c-.029.067-.067.143-.096.229a.508.508 0 0 1-.047.105.135.135 0 0 0-.02.057c-.018.038-.028.076-.047.124a7.199 7.199 0 0 0-.142.362c-.02.038-.029.085-.048.133-.01.038-.028.076-.038.105-.01.019-.01.038-.019.057-.019.048-.028.096-.047.134-.01.019-.01.028-.02.047-.028.076-.047.162-.076.239a11.92 11.92 0 0 0-.218.8c-.02.095-.048.2-.067.295-.019.077-.028.143-.047.22-.01.076-.029.152-.038.228-.038.22-.077.448-.096.686a11.62 11.62 0 0 0-.076 1.592v.114c.008.54.055 1.078.143 1.611a13.856 13.856 0 0 0 6.915 3.678c.935.195 1.888.287 2.843.277h.21a13.845 13.845 0 0 0 7.143-2.125.817.817 0 0 1 .095-.058c.56-.361 1.095-.762 1.598-1.2a6.938 6.938 0 0 1-1.883.066 7.075 7.075 0 0 1-3.605-1.477c.029.029.047.057.076.086.019.02.038.048.067.076.028.029.047.058.076.086.038.038.076.086.114.124.095.105.2.21.304.314.036.038.074.073.114.105.038.038.076.067.114.105.039.038.086.076.124.115.02.02.043.04.067.057a.45.45 0 0 0 .066.057l.029.028.01.01c.028.019.047.038.075.057l.01.01.01.01.009.009c.01.01.029.019.038.028.01 0 .01.01.019.01.01 0 .01.01.019.01.076.057.162.123.247.18a.517.517 0 0 1 .09.068l.003.002a.01.01 0 0 1 .003.007c.009 0 .009.01.018.01.01.009.02.009.029.018.029.02.047.038.076.058l.01.009c.019.02.047.029.066.048.01.01.029.019.038.028.01.01.02.01.029.02h-.01a.01.01 0 0 1 .004 0 .01.01 0 0 1 .003.002.01.01 0 0 1 .003.007h-.057a.121.121 0 0 1-.057-.01.188.188 0 0 1-.067-.01 5.572 5.572 0 0 1-.438-.056 1.476 1.476 0 0 1-.2-.038c-.066-.01-.132-.03-.209-.039-.028-.01-.056-.01-.085-.019a.707.707 0 0 1-.152-.038c-.048-.01-.105-.029-.152-.038a1.265 1.265 0 0 0-.181-.048c-.01 0-.01 0-.02-.01-.056-.018-.104-.028-.151-.047a.594.594 0 0 0-.067-.019c-.019-.01-.029-.01-.047-.019a.137.137 0 0 0-.067-.019l-.143-.057a.67.67 0 0 0-.076-.029c-.01-.01-.028-.01-.038-.019-.01 0-.01-.01-.019-.01-.019-.009-.028-.009-.047-.018-.02-.01-.029-.01-.048-.02a.137.137 0 0 0-.057-.018c-.01 0-.01-.01-.019-.01a.9.9 0 0 1-.095-.048c-.029-.019-.067-.028-.095-.047-.029-.01-.057-.029-.086-.038a6.955 6.955 0 0 1-3.224-1.582 7.193 7.193 0 0 1-2.416-5.06ZM17.8 28.7c-.047-.029-.095-.067-.152-.095a.705.705 0 0 1 .152.095Z"/><path fill="#FF6D24" d="M22.123 14.525c-.01.01-.01.019-.02.028l-.028.03c-.01.009-.01.018-.019.018l-.019.02c-.019.018-.038.028-.057.047-.01.01-.019.019-.028.019-.01.01-.02.01-.029.019a.844.844 0 0 1-.161.076c-.02.01-.048.01-.077.02h-.114c-.019 0-.038-.01-.057-.01-.01 0-.019-.01-.028-.01-.01 0-.02-.01-.029-.01a.209.209 0 0 1-.047-.028.166.166 0 0 1-.048-.038c-.01-.01-.019-.01-.019-.02-.01-.009-.019-.009-.019-.018l-.019-.02c-.01-.018-.029-.028-.038-.047-.01-.019-.029-.038-.038-.057a1.75 1.75 0 0 1-.143-.238c-.01-.029-.028-.048-.038-.076-.01-.03-.028-.048-.038-.077a.938.938 0 0 1-.076-.171c-.019-.048-.047-.096-.067-.143l-.085-.172c-.038-.076-.076-.143-.114-.22-.048-.085-.095-.161-.143-.247a.423.423 0 0 1-.038-.066.571.571 0 0 0-.067-.096l-.114-.143a.475.475 0 0 0-.066-.076.442.442 0 0 0-.067-.067l-.076-.076c-.029-.029-.057-.048-.086-.076a3.144 3.144 0 0 0-2.758-.381l.019-.02.029-.028.028-.029.01-.01.057-.056a.408.408 0 0 1 .066-.058c.029-.028.067-.047.095-.076.02-.01.038-.028.058-.038.019-.01.038-.028.057-.038a.405.405 0 0 1 .066-.038.035.035 0 0 1 .013-.008.036.036 0 0 1 .016-.002c.01 0 .019-.01.028-.01a.01.01 0 0 0 .004 0 .01.01 0 0 0 .003-.002l.002-.003v-.004a.445.445 0 0 1 .067-.028c.038-.02.076-.029.124-.048l.104-.029.115-.019a.236.236 0 0 1 .076-.009h.01c.018 0 .037-.01.056-.01a.07.07 0 0 0 .048-.01 2.68 2.68 0 0 0-.951-.38c-2.597-.496-6.506 2.925-6.554 6.175a6.884 6.884 0 0 1-.4-1.763 8.946 8.946 0 0 1 1.436-2.03c.058-.067.125-.124.182-.18.057-.058.123-.115.18-.172a.86.86 0 0 1 .095-.086 6.15 6.15 0 0 1 .276-.238c.134-.115.276-.22.4-.315.085-.067.18-.124.266-.19.048-.03.086-.058.133-.086l.314-.2c.076-.048.152-.086.219-.134a.192.192 0 0 1 .076-.038c.089-.053.181-.1.276-.143.066-.038.133-.067.19-.095l.057-.029a2.517 2.517 0 0 0-.38 0 3.94 3.94 0 0 0-.371.048c-.09.017-.18.039-.267.067-.018.01-.038.01-.057.019l-.085.028a.639.639 0 0 0-.076.029c.057-.038.114-.086.18-.124.067-.038.134-.086.21-.124.125-.077.256-.147.39-.21.057-.028.104-.047.161-.076.057-.028.114-.047.172-.076.038-.02.076-.029.123-.048a5.14 5.14 0 0 1 1.046-.286c-.057-.105-.104-.219-.161-.343a.664.664 0 0 1-.029-.076c-.057-.133-.104-.286-.162-.438a.3.3 0 0 1-.018-.077c-.01-.028-.02-.066-.029-.095-.01-.048-.029-.095-.038-.143v-.01a1.194 1.194 0 0 0-.038-.152 5.226 5.226 0 0 1-.114-1.02c.038.225.109.444.21.649.214.419.54.771.94 1.02.725.423 1.516.72 2.34.876a6.485 6.485 0 0 1 2.797 1.715 1.34 1.34 0 0 0 .143-.21.522.522 0 0 1 .047-.076c.08-.151.144-.311.19-.476.676.934.809 1.896.4 2.392Z"/><path fill="#FDEAA7" d="M21.353 12.904a6.58 6.58 0 0 0-2.796-1.715 7.34 7.34 0 0 1-2.34-.877 2.522 2.522 0 0 1-.942-1.02 2.455 2.455 0 0 1-.209-.648v-.362a1.7 1.7 0 0 1 .02-.229c.018.029.028.057.047.086.019.029.038.067.057.095l.057.086c.066.105.143.21.219.324.019.03.041.06.066.086.029.038.057.067.086.105.03.033.06.068.085.104l.01.01c.03.037.061.072.095.105.03.04.065.075.105.105.057.047.104.105.161.162.056.056.117.107.181.152.038.038.086.067.124.105.042.035.086.067.133.095.085.057.162.115.238.162.038.02.076.048.114.067.038.02.076.048.114.067l.114.057a2.878 2.878 0 0 0 .313.149l.001.003c.038.01.067.029.105.038.066.03.133.048.19.077a.93.93 0 0 0 .095.028l.171.058c.057.019.105.038.152.057.036.01.071.022.105.038.029.01.067.028.105.038.11.041.218.089.323.143l.114.057.114.057c.057.029.114.067.181.096l.086.057c.057.038.123.076.18.114.029.02.067.038.095.057.066.041.13.086.19.134.293.21.57.443.828.695.038.038.076.067.114.105l.086.086c.162.162.323.334.485.524.029.038.067.076.095.114a.694.694 0 0 1 .133.153Z"/><path fill="#FF5F27" d="M23.214 26.623a7.076 7.076 0 0 1-3.472-1.372.256.256 0 0 1-.076-.067c-.02-.01-.038-.029-.057-.038.028.028.047.057.076.086.021.023.04.049.057.076.028.029.047.057.076.086.038.038.076.086.114.124.095.104.2.21.305.314a.946.946 0 0 0 .114.105.938.938 0 0 1 .104.105c.038.038.086.076.124.114.02.021.042.04.067.057.02.022.042.04.066.057l.029.03h.003c.002 0 .003 0 .003.002l.003.003a.01.01 0 0 1 0 .004c.029.019.048.038.076.057l.01.01.01.009.009.01c.01.009.028.018.038.028h.01c.009 0 .009.01.018.01.01 0 .01.01.02.01.075.056.161.123.247.18.03.02.06.042.085.067.01 0 .01.01.02.01a.01.01 0 0 1 .006.002l.002.003a.01.01 0 0 1 0 .004c.01.01.02.01.03.019.028.019.047.038.075.057l.01.01c.019.019.047.028.067.047.009.01.028.02.037.029.01.01.02.01.029.019h-.01.004a.01.01 0 0 1 .003.003l.002.003.001.003h-.057a.12.12 0 0 1-.057-.01.186.186 0 0 1-.067-.009 5.57 5.57 0 0 1-.437-.057 1.456 1.456 0 0 1-.2-.038c-.067-.01-.133-.029-.21-.038-.028-.01-.056-.01-.085-.02a.713.713 0 0 1-.152-.037c-.047-.01-.105-.029-.152-.038a1.252 1.252 0 0 0-.18-.048c-.01 0-.01 0-.02-.01-.057-.019-.105-.028-.152-.047a.615.615 0 0 0-.067-.02c-.019-.009-.028-.009-.047-.018a.136.136 0 0 0-.067-.02l-.143-.056a.627.627 0 0 0-.075-.029c-.01-.01-.03-.01-.039-.02-.01 0-.01-.009-.019-.009-.019-.01-.028-.01-.047-.019l-.048-.019a.134.134 0 0 0-.057-.019.9.9 0 0 1-.21-.105c-.028-.01-.056-.028-.085-.038a7.005 7.005 0 0 1-3.224-1.582 7.322 7.322 0 0 1-2.368-5.108 7.1 7.1 0 0 0-.105.915.057.057 0 0 1-.01.038 9.541 9.541 0 0 0 1.636 6.976 7.686 7.686 0 0 1-2.644-1.935 7.78 7.78 0 0 1-1.769-3.516 5.731 5.731 0 0 0-.799 2.935 13.37 13.37 0 0 1-1.56-3.05 12.955 12.955 0 0 1-.694-3.173c0 .01-.01.02-.01.029-.01.01-.01.028-.019.038a.568.568 0 0 1-.038.076c-.028.067-.066.143-.095.229a.512.512 0 0 1-.048.105.135.135 0 0 0-.019.057c-.019.038-.028.076-.047.124-.048.114-.086.229-.133.362-.02.038-.029.086-.048.133-.01.038-.028.076-.038.105-.01.02-.01.038-.019.057-.019.048-.028.096-.047.134-.01.019-.01.028-.02.047-.028.077-.047.162-.075.239-.077.247-.153.514-.22.8-.018.095-.047.2-.066.296-.019.076-.028.142-.047.219a1.9 1.9 0 0 0-.038.228 7.47 7.47 0 0 0-.096.687 11.75 11.75 0 0 0-.076 1.591v.114c.008.54.056 1.078.143 1.611a13.855 13.855 0 0 0 6.915 3.678c.935.194 1.889.287 2.844.277h.21a13.845 13.845 0 0 0 7.133-2.125c.028-.02.067-.039.095-.058.56-.361 1.095-.762 1.598-1.2a5.71 5.71 0 0 1-1.864.095Zm-9.987-4.774v.047a.043.043 0 0 0 0-.047Z" opacity=".67"/><path fill="#fff" d="M15.792 2a14.964 14.964 0 0 0-3.69 2 15.153 15.153 0 0 0-2.94 2.916c.21-.028.38-.047.504-.067.552-.066.79-.085.96-.095h.334c.104 0 .2 0 .304.01-.342.247-.608.476-.799.638a11.405 11.405 0 0 0-1.95 2.25c-.019.037-.047.075-.066.114a5.49 5.49 0 0 0-.219.41c-.22.43-.401.88-.542 1.343-.029.095-.057.2-.086.315-.01.038-.019.066-.028.104a8.148 8.148 0 0 0-.22 2.45c.033.561.129 1.118.286 1.658a17.24 17.24 0 0 0-2.891 8.148v.028l-.114-.2a13.902 13.902 0 0 1-2.587-7.862v-.295c.002-.532.034-1.063.094-1.592 0-.019.01-.038.01-.057.018-.195.047-.39.086-.581A13.91 13.91 0 0 1 3.864 9.07c.048-.076.086-.143.114-.19a.386.386 0 0 0 .048-.086c.057-.096.114-.191.18-.286.03-.038.058-.086.086-.124-.01.019-.028.038-.038.057.02-.02.029-.048.048-.067l.076-.105c.026-.036.054-.071.085-.104l.01-.01c.01-.019.028-.038.038-.057.038-.038.066-.086.105-.124.17-.238.37-.515.59-.791.151-.19.304-.39.475-.59a13.887 13.887 0 0 1 10.092-4.575c0-.02.01-.02.019-.02Z"/><path fill="#D0CFF9" d="M11.683 3.525c-.208.119-.402.26-.58.42-.118.1-.23.208-.333.323a8.175 8.175 0 0 0-.885 1.125c-.143.229-.238.41-.266.448a5.84 5.84 0 0 0-.447 1.086 10.82 10.82 0 0 1 1.103-.143c.332-.025.666-.031.999-.019-.181.134-.419.315-.704.562a9.63 9.63 0 0 0-2.026 2.326 8.76 8.76 0 0 0-.875 1.953 7.63 7.63 0 0 0-.714 1.392c-.085.228-.152.476-.152.476-.057.22-.104.429-.142.62a3.364 3.364 0 0 1-.077-.382.562.562 0 0 1-.019-.133l-.028-.229c0-.028-.01-.066-.01-.095a.163.163 0 0 0-.01-.067v-.047a1.22 1.22 0 0 1-.009-.191c0-.067-.01-.133-.01-.2v-.276a.629.629 0 0 1 .01-.134v-.057a.466.466 0 0 1 .01-.114v-.02c.002-.057.008-.114.019-.17l.028-.21c.01-.048.01-.096.02-.134 0-.02.009-.038.009-.057l.028-.172c.009-.058.021-.115.038-.171a6.82 6.82 0 0 1 .276-.896c.086-.21.172-.39.248-.543-.038.038-.067.076-.105.114-.086.095-.18.21-.285.334l-.124.152a.523.523 0 0 1-.067.086 6.888 6.888 0 0 0-.2.276l-.056.086-.067.095c-.019.038-.048.067-.067.105-.114.172-.218.362-.332.562l-.058.115c-.019.038-.047.085-.066.133l-.057.115c-.029.047-.048.104-.076.152-.02.038-.038.086-.057.124-.02.048-.038.095-.057.133l-.058.143-.057.143c-.019.057-.047.115-.066.172-.02.038-.029.085-.048.124-.019.047-.038.104-.057.152-.02.05-.036.1-.047.153-.02.047-.029.104-.048.162a9.155 9.155 0 0 0-.247 3.954 3.784 3.784 0 0 1-.333-.419 4.167 4.167 0 0 1-.552-2.868 7.017 7.017 0 0 0-.609 2.153 6.892 6.892 0 0 0 .333 2.955l-.057-.057a3.544 3.544 0 0 1-.18-.191c-.029-.029-.048-.057-.077-.086a1.994 1.994 0 0 1-.133-.162l-.123-.152c-.02-.029-.038-.048-.057-.077a.833.833 0 0 1-.067-.095v-.01c0-.009-.01-.009-.019-.018a.133.133 0 0 1-.029-.038c-.038-.058-.085-.134-.142-.22a.2.2 0 0 0-.038-.057c-.01-.01-.01-.019-.02-.038l-.056-.086c0-.01-.01-.01-.01-.019l-.01-.01c-.009-.009 0-.009-.009-.009-.01-.028-.028-.047-.038-.076a.896.896 0 0 1-.047-.095c-.029-.067-.067-.134-.096-.2-.009-.03-.028-.058-.038-.086-.019-.058-.047-.115-.066-.172-.02-.057-.048-.114-.067-.171a11.205 11.205 0 0 1-.295-.944v-.295a14.61 14.61 0 0 1 .096-1.592c0-.019.01-.038.01-.057.018-.195.046-.39.085-.581a13.91 13.91 0 0 1 1.626-4.565c.048-.076.086-.143.114-.19a.385.385 0 0 0 .048-.087c.057-.095.114-.19.18-.285.03-.039.058-.086.086-.124-.01.019-.028.038-.038.057.02-.02.029-.048.048-.067.028-.038.047-.067.076-.105a.951.951 0 0 1 .085-.105l.01-.01c.01-.018.028-.037.038-.056.038-.038.066-.086.105-.124.17-.238.37-.515.59-.791-.124.238-.143.295-.134.305.01 0 .029-.02.086-.086l.17-.171a1.54 1.54 0 0 0 .134-.134c.036-.037.074-.072.114-.105a1.34 1.34 0 0 0 .124-.114c.047-.038.133-.124.228-.2 0 0 .152-.124.333-.267a17.548 17.548 0 0 1 4.233-2.487c.266-.096.675-.239 1.189-.372Z"/><path fill="#8774E2" d="M8.3 7.727c.057.01.123.01.18.02-.19.104-.373.219-.551.343-.076.057-.162.114-.248.171-.085.057-.161.124-.247.19a.01.01 0 0 0-.009.007.01.01 0 0 0 0 .003c-.057.042-.11.086-.162.134-.21.171-.4.352-.57.524l-.077.076-.086.086c-.028.028-.057.067-.085.095-.21.227-.407.466-.59.715a3.49 3.49 0 0 1 .219-.753c.084-.198.19-.386.314-.562.01-.02.028-.038.038-.057a16.99 16.99 0 0 0-1.008.848c-.378.342-.737.705-1.075 1.086a18.39 18.39 0 0 0-.438.534c-.104.133-.2.267-.295.4a2.62 2.62 0 0 0-.18.267s-.086.124-.172.267c-.313.486-.58 1-.58 1-.171.324-.342.686-.513 1.106.018-.195.047-.39.085-.582a13.91 13.91 0 0 1 1.627-4.564l.114-.19a.388.388 0 0 0 .047-.087c.057-.095.115-.19.181-.286.029-.038.057-.085.086-.123-.01.019-.029.038-.038.057.019-.02.028-.048.047-.067.029-.038.048-.067.076-.105.027-.037.055-.072.086-.105l.01-.01c.009-.018.028-.037.037-.056.039-.038.067-.086.105-.124.171-.238.371-.515.59-.791-.124.238-.143.295-.133.305.01 0 .028-.02.085-.086l.171-.172c.047-.042.092-.086.134-.133.035-.037.073-.073.114-.105a1.66 1.66 0 0 0 .123-.114c.072-.072.148-.14.229-.2.076-.067.142-.124.218-.181l.01-.01c.038-.029.067-.057.105-.086.047-.038.104-.076.142-.114a1.16 1.16 0 0 1 .133-.095.526.526 0 0 0 .077-.058c.019-.009.028-.019.047-.028.01-.01.029-.02.038-.029a.88.88 0 0 1 .076-.047c.01-.01.029-.02.038-.029a.05.05 0 0 1 .038-.019c.029-.02.067-.038.095-.057.038-.02.067-.048.105-.067l.057-.028a.072.072 0 0 1 .042-.02.01.01 0 0 0 .006-.009h.01l.009-.01c.01 0 .01-.01.019-.01.057-.037.114-.066.18-.104a2.89 2.89 0 0 1 .343-.181c.057-.029.105-.057.162-.086a.073.073 0 0 1 .047-.019c.038-.019.086-.038.124-.057.066-.038.143-.067.21-.105.028-.01.037-.019.151-.067.22-.095.238-.104.238-.104.01.019-.409.286-.59.438l-.114.095c-.04.033-.078.068-.114.105-.04.032-.078.067-.114.105-.076.067-.152.143-.238.22l-.085.085-.086.086-.086.085a6.806 6.806 0 0 0-.418.477c-.02.019-.029.038-.048.057-.019.02-.028.038-.047.057l-.086.115c-.019.019-.038.047-.057.066-.029.044-.06.085-.095.124-.057.077-.105.162-.162.239-.028.038-.047.076-.066.104a1.652 1.652 0 0 0-.105.172c-.019.038-.048.076-.067.114-.028.048-.057.105-.085.153l.114-.029c.057-.01.124-.028.18-.038.448-.091.904-.14 1.36-.143h.22a.771.771 0 0 1 .152.01c.047 0 .095.01.142.01a.148.148 0 0 1 .134-.049Z"/><path fill="#E93C5A" d="M25.095 26.557c-.503.438-1.037.84-1.598 1.2a.826.826 0 0 1-.095.058c-.772.487-1.59.896-2.445 1.22-1.502.57-3.092.876-4.698.905h-.21c-.954 0-1.907-.092-2.844-.276a13.854 13.854 0 0 1-6.915-3.679 12.346 12.346 0 0 1-.142-1.61v-.115a12.776 12.776 0 0 1 .171-2.277c.01-.076.028-.153.038-.229.019-.076.028-.143.047-.22a3.06 3.06 0 0 1 .067-.295c.067-.286.143-.552.219-.8.028-.086.047-.162.076-.238.01-.02.01-.029.019-.048.019-.048.028-.095.047-.133.01-.02.01-.038.02-.058.009-.038.028-.076.037-.104.02-.048.029-.086.048-.134a7.19 7.19 0 0 1 .143-.362c.019-.038.028-.086.047-.124a.136.136 0 0 0 .02-.057c.013-.036.03-.07.047-.105.038-.086.066-.162.095-.229a.19.19 0 0 1 .038-.076c.01-.01.01-.028.019-.038 0-.01.01-.019.01-.029 0 .02-.01.048-.01.067-.01.067-.02.124-.029.19v.03c-.019.123-.028.238-.038.343v.009c-.028.305-.057.572-.057.772v.448a1.09 1.09 0 0 0 .01.171c0 .067.01.124.01.172v.238c0 .029.009.048.009.067v.038c.008.04.01.082.01.124.018.152.037.295.066.448l.028.143.029.143.029.143c.057.238.114.476.19.705.01.038.028.086.038.124.087.269.189.533.304.79l.057.134a6.3 6.3 0 0 0 .219.439c.03.063.064.124.105.18l.028.058c.086.143.171.286.266.42.048.075.105.152.162.228.048.067.095.124.143.19.047.067.095.124.143.181.019.02.038.048.057.067.035.047.073.091.114.134l.019.019c.047.057.095.104.142.162l.029.028a1.8 1.8 0 0 0 .133.143c.086.086.162.172.257.257.045.047.093.092.143.134l.01.01a12.518 12.518 0 0 0 .38.333c.076.067.152.124.237.19.048.039.105.077.162.115.01.01.029.019.038.029.048.038.105.076.152.114.01.01.02.01.029.019.095.067.2.133.295.19.047.03.095.058.133.086.047.029.104.067.162.096h.003a.01.01 0 0 1 .005.005 10.386 10.386 0 0 1-.475-.911c-.018-.047-.038-.086-.057-.133l-.114-.286c-.038-.095-.066-.19-.104-.286-.02-.067-.048-.133-.067-.19l-.057-.2c-.01-.03-.01-.048-.019-.077a2.6 2.6 0 0 1-.029-.124c-.01-.047-.028-.105-.038-.152a3.486 3.486 0 0 1-.066-.305l-.029-.153a4.659 4.659 0 0 1-.028-.18c0-.02-.01-.048-.01-.068l-.028-.171a1.27 1.27 0 0 1-.02-.19v-.02c-.009-.066-.009-.133-.018-.2a4.349 4.349 0 0 1-.02-.362.355.355 0 0 0-.009-.105v-.18c.038.133.086.323.171.57.02.04.029.077.048.125.038.086.067.171.105.267l.028.057a.34.34 0 0 0 .038.086l.057.114.057.114c.086.172.181.353.295.544l.086.142a.08.08 0 0 1 .019.039l.057.085.01.01c.028.046.06.091.094.133.02.029.039.048.058.077.019.019.028.047.047.066.029.04.06.079.095.115.01.01.01.019.02.019.018.028.047.057.066.085.038.039.066.086.104.124.057.067.124.143.19.21.043.05.087.098.134.143l.143.143c.045.047.092.091.142.133.048.048.105.086.152.134l.153.124c.01.01.01.01.019.01.047.037.104.085.161.123a.86.86 0 0 0 .152.105 2.1 2.1 0 0 0 .134.086c.01.01.019.01.028.019.038.028.076.047.114.076.115.076.229.143.333.2.114.067.219.124.333.181l.114.057c.033.02.068.036.105.048.066.029.124.057.18.076l.143.057.143.057h.01c.046.02.093.037.142.048a.46.46 0 0 1 .105.038c.019.01.038.01.057.02.095.028.18.056.266.076l.114.028c.143.038.286.067.419.095a.55.55 0 0 0 .123.02c.039.009.086.009.124.018.048.01.086.01.133.02.057.01.114.01.162.018.202.026.405.04.609.039h.095c.162 0 .304 0 .437-.01h.114a.164.164 0 0 0 .067-.01c.057 0 .105-.009.143-.009h.028c-.047-.028-.104-.057-.161-.095l-.01-.01a.209.209 0 0 1-.047-.028.2.2 0 0 1-.057-.038c-.115-.077-.238-.153-.371-.258a.29.29 0 0 0-.067-.047 7.708 7.708 0 0 1-.514-.4.518.518 0 0 0-.076-.058c-.019-.019-.047-.038-.076-.067-.019-.019-.047-.038-.076-.066a9.98 9.98 0 0 1-1.198-1.24 7.963 7.963 0 0 1-.628-.876c-.038-.067-.076-.124-.114-.19-.038-.067-.076-.124-.114-.191l-.115-.2a3.303 3.303 0 0 0-.095-.181c-.028-.057-.057-.115-.085-.181-.02-.029-.029-.067-.048-.096a1.894 1.894 0 0 1-.057-.133c-.019-.038-.038-.086-.057-.124a1.855 1.855 0 0 0-.057-.133.47.47 0 0 1-.038-.105c-.02-.057-.048-.114-.067-.172-.019-.066-.047-.124-.066-.19a7.136 7.136 0 0 1-.152-.534.89.89 0 0 1-.038-.152 3.082 3.082 0 0 1-.067-.286 4.436 4.436 0 0 1-.086-.467 5.052 5.052 0 0 1-.028-.181.057.057 0 0 0-.01-.038c0-.02-.01-.048-.01-.067v-.057a.506.506 0 0 1-.009-.124.164.164 0 0 0-.01-.067.071.071 0 0 0-.009-.048.122.122 0 0 0-.01-.057v-.038a1.291 1.291 0 0 1-.009-.19 8.957 8.957 0 0 1-.01-.868.057.057 0 0 1 .01-.038c.01-.307.045-.613.105-.915a7.41 7.41 0 0 0 2.368 5.108 7.006 7.006 0 0 0 3.225 1.582c.028.01.057.029.085.038.029.02.067.029.095.048.029.02.067.029.096.048a.034.034 0 0 1 .018.01c.018.01.037.016.058.018.019.01.028.01.047.02.02.009.029.009.048.018.01 0 .01.01.019.01.01.01.028.01.038.019.025.011.05.02.076.028l.143.058a.616.616 0 0 0 .066.019c.02.01.029.01.048.019a.593.593 0 0 0 .066.019c.048.019.105.028.152.047.01 0 .01 0 .02.01.058.02.119.036.18.048.048.01.095.028.152.038.048.01.105.028.152.038.029.01.057.01.086.019.07.016.139.029.21.038.075.01.142.029.2.038.17.029.322.038.437.057a.162.162 0 0 1 .066.01.12.12 0 0 1 .057.01h.057l-.003-.001a.01.01 0 0 1-.003-.003.009.009 0 0 1-.003-.006h.01c-.01-.01-.02-.01-.03-.02-.009-.009-.028-.018-.037-.028a.285.285 0 0 1-.067-.048l-.01-.009c-.028-.02-.047-.038-.075-.057-.01-.01-.02-.01-.029-.02-.01 0-.01-.009-.019-.009l-.01-.01a.516.516 0 0 1-.085-.066c-.086-.057-.162-.124-.247-.181-.01 0-.01-.01-.02-.01-.009-.01-.009-.01-.018-.01-.01-.009-.029-.018-.038-.028l-.01-.01-.01-.009-.009-.01c-.029-.018-.047-.037-.076-.057l-.01-.01-.028-.028a.412.412 0 0 0-.067-.057.403.403 0 0 0-.066-.057 1.47 1.47 0 0 1-.124-.114c-.038-.039-.076-.067-.114-.105a1.145 1.145 0 0 0-.114-.105 4.939 4.939 0 0 1-.305-.314c-.038-.039-.076-.086-.114-.124a.632.632 0 0 1-.076-.086.483.483 0 0 0-.066-.076c-.029-.03-.048-.058-.076-.086.017.01.033.023.047.038.03.02.06.041.086.067a7.075 7.075 0 0 0 3.472 1.372 6.4 6.4 0 0 0 1.845-.057Z"/><path fill="#F44D71" d="M23.495 27.747a.85.85 0 0 1-.095.058c-.772.487-1.591.896-2.445 1.22a4.72 4.72 0 0 1-1.579-.753 4.395 4.395 0 0 1-.922-.925 7.448 7.448 0 0 0 3.376.658 7.24 7.24 0 0 0 1.513-.23.36.36 0 0 0 .152-.028Zm-7.238 2.199h-.209c-.955 0-1.907-.093-2.844-.277a4.147 4.147 0 0 1-.656-.886 4.823 4.823 0 0 1-.466-1.22 7.29 7.29 0 0 0 4.175 2.383Z"/><path fill="#8774E2" d="M29.558 15.516a.665.665 0 0 1-.02-.124v-.019l-.056-.295a.881.881 0 0 0-.038-.153 1.405 1.405 0 0 0-.048-.19l-.114-.448c-.02-.058-.029-.115-.048-.162-.01-.039-.028-.086-.038-.124-.01-.038-.028-.076-.038-.115 0-.01-.01-.019-.01-.028l-.028-.086c0-.01-.01-.019-.01-.029-.009-.038-.028-.076-.037-.114a1.283 1.283 0 0 0-.067-.171 1.152 1.152 0 0 1-.047-.134c-.029-.076-.058-.143-.086-.219a1.059 1.059 0 0 0-.067-.152c-.057-.134-.123-.267-.18-.4-.039-.087-.086-.172-.124-.249-.086-.162-.171-.324-.266-.476-.067-.114-.134-.229-.2-.334-.048-.076-.086-.143-.133-.21-.048-.066-.086-.133-.133-.2l-.2-.285a4.816 4.816 0 0 0-.267-.343c-.047-.057-.085-.105-.133-.153a5.394 5.394 0 0 0-.238-.229c-.266-.238-.475-.428-.599-.533a9.991 9.991 0 0 0-.2-2.478 9.46 9.46 0 0 0-.152-.61c-.01-.029-.019-.067-.028-.095a1.2 1.2 0 0 1-.029-.096 13.482 13.482 0 0 1 1.703 2.116c.36.577.69 1.172.99 1.782.421.913.743 1.868.96 2.85.036.835.03 1.671-.02 2.506Z"/><path fill="#FF9E00" d="M29.88 16.02a13.959 13.959 0 0 1-6.496 11.797c-.019-.01-.038-.01-.047-.019h-.01c-.038-.01-.076-.028-.105-.038-.01 0-.01-.01-.019-.01a.66.66 0 0 1-.114-.047c-.01 0-.019-.01-.028-.01a.035.035 0 0 0-.029-.01c-.01 0-.01-.009-.019-.009a.472.472 0 0 0-.086-.038.137.137 0 0 0-.056-.019 1.518 1.518 0 0 0-.124-.057c-.048-.02-.086-.038-.133-.057-.029-.01-.048-.029-.076-.038l-.076-.039c-.029-.019-.067-.028-.096-.047a.775.775 0 0 1-.123-.067.712.712 0 0 1-.127-.075.034.034 0 0 0-.016-.001.034.034 0 0 1-.019-.01l-.057-.028a.198.198 0 0 1-.057-.038c-.01 0-.01-.01-.019-.01-.01-.01-.019-.01-.029-.019-.019-.01-.028-.019-.047-.029a.2.2 0 0 1-.057-.038c-.01-.01-.02-.01-.038-.019a.384.384 0 0 0-.086-.048 1.614 1.614 0 0 1-.133-.085h-.01c-.009-.01-.019-.01-.028-.02-.01-.009-.029-.018-.038-.028a.288.288 0 0 1-.067-.047l-.01-.01c-.028-.019-.047-.038-.075-.057-.01-.01-.02-.01-.029-.02-.01 0-.01-.009-.019-.009l-.01-.01a.528.528 0 0 1-.085-.066c-.085-.057-.162-.124-.247-.181-.01 0-.01-.01-.02-.01-.009-.01-.009-.01-.018-.01-.01-.009-.029-.018-.038-.028l-.01-.01-.01-.009h-.009l-.01-.01c-.028-.018-.047-.037-.075-.056l-.01-.01-.028-.029-.134-.114a1.455 1.455 0 0 1-.123-.114c-.038-.038-.076-.067-.114-.105a1.132 1.132 0 0 0-.115-.105c-.114-.105-.209-.21-.304-.314-.038-.038-.076-.086-.114-.124a.614.614 0 0 1-.076-.086.473.473 0 0 0-.067-.076c-.028-.029-.047-.058-.076-.086h.124a9.374 9.374 0 0 0 7.048-3.631 8.605 8.605 0 0 0 1.56-4.631c.095.328.172.662.228 1 .13.824.136 1.662.019 2.487a18.182 18.182 0 0 0 .98-4.86 20.15 20.15 0 0 0 0-2.516c.228.984.34 1.992.333 3.002Z"/><path fill="#D0CFF9" d="M20.89 15.092a.717.717 0 0 0-.143.01c-.048 0-.105.009-.162.009a1.29 1.29 0 0 0-.18.019c-.058.01-.124.01-.181.019h-.02c-.085.01-.17.019-.265.038-.048.01-.086.02-.134.029l-.142.028a5.25 5.25 0 0 0-.609.172c-.028.01-.067.019-.095.028a.398.398 0 0 0-.095.039c-.029.009-.067.028-.105.038-.029.01-.047.019-.076.028-.038.02-.076.029-.114.048a.437.437 0 0 0-.095.048c-.029.009-.057.028-.086.038a2.02 2.02 0 0 0-.2.104c-.028.02-.066.039-.095.058-.095.057-.19.114-.285.18-.029.02-.048.039-.076.058l-.086.057c-.043.029-.085.06-.123.095-.01 0-.01.01-.02.01-.038.028-.066.057-.104.086a1.484 1.484 0 0 0-.124.114c-2.159 1.973-2.263 5.813-.39 8.177a6.85 6.85 0 0 1-1.893-3.603c-.076-.419-.627-3.716 1.494-5.374a9.827 9.827 0 0 1 4.404-.553Zm6.562.558a11.284 11.284 0 0 1-.76 3.573 7.893 7.893 0 0 0-.904-2.182 7.82 7.82 0 0 0-.419-.62c0-.105-.01-.21-.019-.314a1.437 1.437 0 0 0-.029-.2.086.086 0 0 0-.009-.048 3.698 3.698 0 0 0-.095-.467c-.02-.086-.048-.171-.067-.257 0-.01-.01-.02-.01-.029a1.2 1.2 0 0 1 .105.124c.038.038.067.086.105.124.057.067.105.133.162.2.01.01.01.019.019.029.162.219.323.438.466.676.114.19.228.381.333.581.114.23.228.467.323.706a8.804 8.804 0 0 0 .38-2.516c0-.133 0-.267-.009-.39a7.74 7.74 0 0 0-.219-1.564.137.137 0 0 0-.019-.057c-.038-.143-.066-.276-.114-.42a.408.408 0 0 1-.01-.047 6.694 6.694 0 0 0-.228-.657 9.438 9.438 0 0 0-.713-1.42 3.86 3.86 0 0 0-.314-.458 1.346 1.346 0 0 0-.105-.143c-.028-.038-.047-.067-.076-.105a4.934 4.934 0 0 0-.209-.257.67.67 0 0 1-.076-.095c-.038-.038-.067-.076-.105-.115-.028-.028-.057-.066-.085-.095-.076-.086-.162-.171-.238-.248l-.143-.143a6.33 6.33 0 0 0-.456-.41c.026.017.055.03.085.039a6.471 6.471 0 0 1 .942.581c.067.048.133.105.21.162.109.087.213.179.313.276.247.228.472.477.676.744a7.866 7.866 0 0 1 1.312 5.441Z"/></svg>