<svg fill="none" height="32" viewBox="0 0 32 32" width="32" xmlns="http://www.w3.org/2000/svg"><path d="m16 32c8.8366 0 16-7.1634 16-16 0-8.83656-7.1634-16-16-16-8.83656 0-16 7.16344-16 16 0 8.8366 7.16344 16 16 16z" fill="#fff"/><path d="m31 16.0096v.3526c.0016.0636-.0016.1274-.0096.1905-.0894 2.2178-.6698 4.3881-1.6993 6.3544-1.0296 1.9663-2.4826 3.6797-4.2544 5.0166-1.7717 1.3368-3.8181 2.2639-5.9915 2.7142-2.1733.4504-4.4196.4129-6.5767-.1098s-4.17137-1.5175-5.89751-2.9128c-1.72615-1.3953-3.12117-3.1562-4.08448-5.1558s-1.47089-4.1881-1.48616-6.4076c-.015258-2.2195.46218-4.4147 1.3979-6.42736.038-.07625.0761-.162.11414-.23826.06657-.12387.12366-.25729.19023-.3812 1.0126-1.91804 2.42751-3.59477 4.14795-4.91551s3.70583-2.25434 5.82043-2.73695c.3043-.06671.6087-.12391.9035-.17154.019 0 .0476-.00954.0667-.00954.1141-.019.2377-.03812.3519-.04763.076-.00954.1522-.01908.2187-.02862.0381 0 .0762-.0095.1141-.0095.0789-.01109.1583-.01747.2379-.01908.0475 0 .0856-.00951.1331-.00951.082-.01073.1646-.0171.2473-.01908.032.00156.0641-.00165.0952-.00954.0571 0 .1236-.0095.1711-.0095.0759-.00756.1521-.01075.2283-.00954h.1808c.0635.00158.1271-.00161.1902-.00954h.2283c1.854.00008 3.692.34255 5.4216 1.01018h-.3233c-.8549-.00125-1.7081.07531-2.5492.22871-.058.00815-.1152.02089-.1712.03811l-.5136.11437c.2616.10665.5079.24765.7323.4193-1.1418-.0792-2.2878.07648-3.3671.45742-.2331.07977-.4617.17203-.6848.27638-1.1428.5143-2.1639 1.26452-2.9962 2.2014.1331.019.2758.03813.4185.05717.5401.08694 1.0716.22087 1.5884.40025-.684.38582-1.3276.83917-1.9213 1.35326-.8658.73523-1.6048 1.60771-2.18773 2.58255-.47359.8055-.80802 1.685-.98923 2.6017-.1672.8895-.18968 1.8002-.06657 2.6969.54073-.9479 1.21328-1.8142 1.99753-2.573l.0285-.0287c.2321-.2262.4766-.4393.7323-.6385-.0193.1925-.051.3835-.0951.5718-.0285.1334-.0666.2574-.0951.3812.3972-.489.8434-.936 1.3317-1.3341.3694-.3013.7605-.5753 1.1699-.8196.3878-.2315.7915-.4354 1.208-.6099-.1481-.43176-.2439-.87967-.2854-1.3342-.0863-.89838.0341-1.80459.352-2.64927.3403.77924.8544 1.47032 1.5028 2.02034 1.0654.88627 1.9405.86723 3.3197 1.81063.4405.3037.8514.6483 1.227 1.0293.1447.1414.2813.291.409.4479.0395-.074.0744-.1504.1045-.2288.0574-.1166.1051-.2377.1427-.3621.0286-.0858.0571-.162.0857-.2478.211.2277.4019.4733.5707.7338v.0096c.1712.2287 1.2175 1.6677.6944 2.897-.0602.139-.1368.2702-.2284.3908.1676.5443.115 1.1327-.1464 1.6387-.2614.5061-.7108.8894-1.2518 1.0677.0877-.2849.1084-.5862.0605-.8804-.0478-.2942-.1629-.5734-.3363-.8159-.0963-.1097-.2125-.2002-.3425-.2668.0154.0918.0122.1858-.0094.2764-.0174.071-.0463.1386-.0856.2001-.4916.0825-.9573.2783-1.3602.5718-.4622.336-.8159.7997-1.0178 1.3342-.2171.6654-.2038 1.3846.0378 2.0416s.6974 1.2134 1.2938 1.5798c1.4352-.3545 2.7208-1.1554 3.6716-2.2873.028-.0329.0535-.068.0761-.1048.773-1.0587 1.2014-2.3298 1.227-3.6404.0294-.669-.0314-1.3389-.1807-1.9917.8406.2665 1.5609.8197 2.0355 1.5629-.2492-2.031-1.0228-3.9622-2.2448-5.60359-.5732-.75281-1.2378-1.43146-1.9784-2.02035 1.1063-.13953 2.2299.00817 3.2625.42888-.0361-.89027-.2159-1.76883-.5326-2.60166-.038-.08578-.0666-.18107-.1047-.26683v-.00954c-.3429-.81089-.8151-1.56078-1.3982-2.22047.3235.18108.6373.37168.9416.57179.0096.00955.019.00955.019.01908.9711.66004 1.8702 1.42025 2.6824 2.2681.0176.01126.0309.02801.038.04764.0381.04766.0857.08579.1237.13341l.0095.00955c1.3481 1.4463 2.3755 3.16093 3.0152 5.03169v.0096c.0096.019.0096.0286.019.0476.0095.019.0096.0287.019.0477.0095.019.0096.0381.019.0572.5532 1.564.8363 3.2108.8371 4.8698z" fill="#0d0d1f"/><path d="m8.84848 4.96382c-.02854.00954-.04753.01907-.07607.02858-.00953 0-.019.00954-.02853.00954-.03807.00954-.0666.02859-.10463.03812-.05241.01821-.10331.04051-.15221.06672-.01429.00238-.02753.009-.038.019-.00953 0-.00953.00954-.019.00954-.038.01908-.07611.02858-.11413.04766-.07786.03099-.15406.06598-.22831.10483-.02853.01905-.06657.02859-.0951.04764-.0856.03812-.17123.08579-.25683.13341l-.05707.02859c-.02853.01908-.05706.02858-.0856.04766s-.05706.02859-.0856.04764h-.0095l-.1427.08578c-.03695.0188-.072.04114-.10463.06671h.00943c.00126.00003.00251-.0002.00367-.00067.00117-.00048.00223-.00118.00312-.00207.00088-.00089.00158-.00195.00205-.00312s.00069-.00242.00066-.00368c.0095 0 .0095-.00954.019-.00954.05707-.03809.11414-.06671.1807-.1048.10782-.06599.21895-.12643.33294-.18108.05706-.02858.10463-.05717.1617-.08575.01299-.01193.02989-.01872.04753-.01908.04314-.01849.08453-.04082.12367-.06671.0666-.03812.14266-.06671.20927-.10484.04756-.01905.10463-.04763.15216-.06671.07611-.03812.1522-.0667.23781-.10483.0666-.02858.12366-.04762.19022-.07621-.02054.0225-.04682.03898-.07602.04767zm0 0c-.02854.00954-.04753.01907-.07607.02858-.00953 0-.019.00954-.02853.00954-.03807.00954-.0666.02859-.10463.03812-.05241.01821-.10331.04051-.15221.06672-.01429.00238-.02753.009-.038.019-.00953 0-.00953.00954-.019.00954-.038.01908-.07611.02858-.11413.04766-.07786.03099-.15406.06598-.22831.10483-.02853.01905-.06657.02859-.0951.04764-.0856.03812-.17123.08579-.25683.13341l-.05707.02859c-.02853.01908-.05706.02858-.0856.04766s-.05706.02859-.0856.04764h-.0095l-.1427.08578c-.03695.0188-.072.04114-.10463.06671h.00943c.00126.00003.00251-.0002.00367-.00067.00117-.00048.00223-.00118.00312-.00207.00088-.00089.00158-.00195.00205-.00312s.00069-.00242.00066-.00368c.0095 0 .0095-.00954.019-.00954.05707-.03809.11414-.06671.1807-.1048.10782-.06599.21895-.12643.33294-.18108.05706-.02858.10463-.05717.1617-.08575.01299-.01193.02989-.01872.04753-.01908.04314-.01849.08453-.04082.12367-.06671.0666-.03812.14266-.06671.20927-.10484.04756-.01905.10463-.04763.15216-.06671.07611-.03812.1522-.0667.23781-.10483.0666-.02858.12366-.04762.19022-.07621-.02054.0225-.04682.03898-.07602.04767zm0 0c-.02854.00954-.04753.01907-.07607.02858-.00953 0-.019.00954-.02853.00954-.03807.00954-.0666.02859-.10463.03812-.05241.01821-.10331.04051-.15221.06672-.01429.00238-.02753.009-.038.019-.00953 0-.00953.00954-.019.00954-.038.01908-.07611.02858-.11413.04766-.07786.03099-.15406.06598-.22831.10483-.02853.01905-.06657.02859-.0951.04764-.0856.03812-.17123.08579-.25683.13341l-.05707.02859c-.02853.01908-.05706.02858-.0856.04766s-.05706.02859-.0856.04764h-.0095l-.1427.08578c-.03695.0188-.072.04114-.10463.06671h.00943c.00126.00003.00251-.0002.00367-.00067.00117-.00048.00223-.00118.00312-.00207.00088-.00089.00158-.00195.00205-.00312s.00069-.00242.00066-.00368c.0095 0 .0095-.00954.019-.00954.05707-.03809.11414-.06671.1807-.1048.10782-.06599.21895-.12643.33294-.18108.05706-.02858.10463-.05717.1617-.08575.01299-.01193.02989-.01872.04753-.01908.04314-.01849.08453-.04082.12367-.06671.0666-.03812.14266-.06671.20927-.10484.04756-.01905.10463-.04763.15216-.06671.07611-.03812.1522-.0667.23781-.10483.0666-.02858.12366-.04762.19022-.07621-.02054.0225-.04682.03898-.07602.04767zm0 0c-.02854.00954-.04753.01907-.07607.02858-.00953 0-.019.00954-.02853.00954-.03807.00954-.0666.02859-.10463.03812-.05241.01821-.10331.04051-.15221.06672-.01429.00238-.02753.009-.038.019-.00953 0-.00953.00954-.019.00954-.038.01908-.07611.02858-.11413.04766-.07786.03099-.15406.06598-.22831.10483-.02853.01905-.06657.02859-.0951.04764-.0856.03812-.17123.08579-.25683.13341l-.05707.02859c-.02853.01908-.05706.02858-.0856.04766s-.05706.02859-.0856.04764h-.0095l-.1427.08578c-.03695.0188-.072.04114-.10463.06671h.00943c.00126.00003.00251-.0002.00367-.00067.00117-.00048.00223-.00118.00312-.00207.00088-.00089.00158-.00195.00205-.00312s.00069-.00242.00066-.00368c.0095 0 .0095-.00954.019-.00954.05707-.03809.11414-.06671.1807-.1048.10782-.06599.21895-.12643.33294-.18108.05706-.02858.10463-.05717.1617-.08575.01299-.01193.02989-.01872.04753-.01908.04314-.01849.08453-.04082.12367-.06671.0666-.03812.14266-.06671.20927-.10484.04756-.01905.10463-.04763.15216-.06671.07611-.03812.1522-.0667.23781-.10483.0666-.02858.12366-.04762.19022-.07621-.02054.0225-.04682.03898-.07602.04767zm0 0c-.02854.00954-.04753.01907-.07607.02858-.00953 0-.019.00954-.02853.00954-.03807.00954-.0666.02859-.10463.03812-.05241.01821-.10331.04051-.15221.06672-.01429.00238-.02753.009-.038.019-.00953 0-.00953.00954-.019.00954-.038.01908-.07611.02858-.11413.04766-.07786.03099-.15406.06598-.22831.10483-.02853.01905-.06657.02859-.0951.04764-.0856.03812-.17123.08579-.25683.13341l-.05707.02859c-.02853.01908-.05706.02858-.0856.04766s-.05706.02859-.0856.04764h-.0095l-.1427.08578c-.03695.0188-.072.04114-.10463.06671h.00943c.00126.00003.00251-.0002.00367-.00067.00117-.00048.00223-.00118.00312-.00207.00088-.00089.00158-.00195.00205-.00312s.00069-.00242.00066-.00368c.0095 0 .0095-.00954.019-.00954.05707-.03809.11414-.06671.1807-.1048.10782-.06599.21895-.12643.33294-.18108.05706-.02858.10463-.05717.1617-.08575.01299-.01193.02989-.01872.04753-.01908.04314-.01849.08453-.04082.12367-.06671.0666-.03812.14266-.06671.20927-.10484.04756-.01905.10463-.04763.15216-.06671.07611-.03812.1522-.0667.23781-.10483.0666-.02858.12366-.04762.19022-.07621-.02054.0225-.04682.03898-.07602.04767zm-6.31578 7.70008c-.019.0572-.02853.124-.04757.1811-.019.0857-.038.162-.05706.2478-.019.1048-.04757.2097-.0666.3145-.019.0857-.02853.162-.04754.2477 0 .019-.00953.0382-.00953.0668-.0095.0572-.0095.1143-.019.162.0095-.0572.019-.1144.02853-.1811 0-.019.0095-.0477.0095-.0667s.00951-.0381.00951-.0572c.00784-.0246.01107-.0504.00953-.0762.0095-.0762.02853-.143.038-.2096.0095-.0477.019-.1049.02853-.1525.03807-.1716.0761-.3336.11414-.4956.01906 0 .00956.0096.00956.019zm2.9296 12.3984v.0286c.00222-.0017.00402-.0039.00527-.0064.00124-.0024.00188-.0052.00188-.0079 0-.0028-.00064-.0056-.00188-.008-.00125-.0025-.00305-.0047-.00527-.0063zm.81801-1.5152v-.0954c.00953.0311.00953.0643 0 .0954zm5.14589 2.2871c.019.0286.038.0476.057.0762.019.0191.0286.0477.0476.0668-.038-.0477-.0666-.0954-.1046-.143zm6.2302 2.7637c.0571.0381.1046.0667.1521.0953h.0096c-.0556-.0288-.1096-.0607-.1617-.0953zm-4.3754-9.2154c-.0536.3569-.0886.7164-.1046 1.0769-.0014-.0134.0019-.0269.0094-.0381.0104-.3073.0454-.6133.1047-.9149-.0075-.0409-.0107-.0824-.0095-.1239zm.0286 8.2528c.1141.0762.2282.143.3328.2002-.115-.0597-.2262-.1265-.3328-.2002zm3.1768-12.0076c-.8916.3313-1.6725.9058-2.2542 1.6583-.4845.6592-.8071 1.4231-.9418 2.23.0867 1.9479.9377 3.7832 2.3684 5.108.9191.7986 2.0305 1.3438 3.2246 1.5819-.7729-.3716-1.4524-.9122-1.988-1.5819 0-.0095-.0095-.0095-.0095-.019-1.8643-2.3635-1.7692-6.2135.3899-8.1766.0382-.0382.0857-.0763.1237-.1144.033-.0309.0679-.0596.1047-.0858.0095 0 .0095-.0095.0189-.0095.0389-.0347.0802-.0665.1237-.0953l.0857-.0572c.0285-.019.0475-.0381.076-.0572.0951-.0666.1902-.1238.2853-.181.0286-.0191.0666-.0381.0952-.0572.0645-.0386.1312-.0736.1997-.1048.0266-.0166.0555-.0295.0857-.0381.0285-.019.0665-.0286.095-.0477.0381-.019.0762-.0285.1141-.0477.0286-.0094.0476-.019.0761-.0286.0333-.0168.0684-.0296.1047-.038.0332-.0086.0652-.0214.0951-.0381.0285-.0096.0666-.0191.0951-.0287.1046-.038.2092-.0666.3044-.0952.1046-.0286.1998-.0572.3044-.0762l.1427-.0286c.0475-.0096.095-.0192.1331-.0286.0881-.0174.177-.0301.2664-.0382h.019c.0597-.0105.12-.0169.1806-.019.0667-.0095.1238-.0095.1808-.019.0571 0 .1142-.0095.1617-.0095.0478.0015.0956-.0017.1427-.0096-1.4906-.1327-2.9923.0557-4.4039.5525zm2.8155 10.7593c.0096 0 .019.0095.0381.019zm.1332.0571c-.0012.0001-.0025-.0002-.0037-.0006-.0011-.0005-.0022-.0012-.0031-.0021s-.0016-.002-.0021-.0031c-.0004-.0012-.0007-.0025-.0006-.0037-.0095 0-.019-.0095-.0285-.0095.0247.0111.0501.0206.0761.0285-.0133.0004-.0265-.0028-.0381-.0095zm.1997.0763h-.0095c-.0326-.0102-.0644-.023-.0951-.0382-.0095 0-.0095 0-.019-.0095-.019-.0095-.0285-.0095-.0475-.0191l.1426.0572c.0219.0076.0441.014.0666.0191-.0095 0-.0191-.0095-.0381-.0095zm1.9119.3811c-.2934-.0188-.5856-.0538-.8751-.1048-.0475-.0095-.0856-.019-.1331-.0286.069.0165.1388.0292.2092.0381.0761.0096.1427.0287.1998.0382.1712.0286.3233.0381.4375.0571.0226-.0015.0453.0018.0666.0096.0195-.0015.0391.0018.0571.0095h.019c0-.0095.0189-.0095.0189-.019zm6.5821-3.974c.0001.0013-.0002.0025-.0006.0037-.0005.0012-.0012.0022-.0021.0031-.0008.0009-.0019.0016-.0031.0021-.0011.0005-.0024.0007-.0036.0007.0094-.0096.0094-.019.0189-.0286 0 .0096-.0095.0096-.0095.0191zm1.7597-8.1575c0-.0286-.0096-.0666-.0096-.1048.0015-.0195-.0017-.0392-.0094-.0572.0094.0572.0094.124.019.1811.0095 0 0-.0095 0-.0191zm-.3234-1.7725c.0524.8378.0524 1.678 0 2.5159-.062.9947-.2052 1.9828-.4281 2.9542-.1477.6452-.3319 1.2816-.5516 1.906.1172-.8254.1108-1.6637-.019-2.4873-.0517-.3386-.128-.6731-.2283-1.0007-.0627 1.662-.6044 3.2703-1.5599 4.6316-.8398 1.0816-1.9056 1.9669-3.123 2.5941-1.2174.6271-2.557.9809-3.9253 1.0367h-.1236c.0285.0286.0475.0572.076.0858.0191.019.0381.0476.0666.0762s.0476.0572.0762.0858c.038.0382.076.0858.1141.1239.095.1048.1997.2097.3044.3145.0356.0375.0737.0725.1141.1048.038.0381.0761.0667.1141.1048.0381.0381.0856.0763.1237.1144.0201.0213.0424.0405.0666.0572.095.0857.1902.162.2758.2287.0166.0159.036.0288.0571.0381l.0094.0095c.019.019.0477.0382.0667.0572.1902.143.3519.2668.4851.3526h.019c.0475.0286.095.0572.1331.0858.0264.0195.0552.0355.0857.0476.0045.0059.0102.0106.0168.0139s.0138.0051.0212.0052c.0211.0093.0404.0222.0571.0381.019.0096.0285.019.0475.0286.0096.0096.019.0096.0286.019.0095 0 .0095.0096.019.0096.021.0093.0403.0222.057.0381l.0571.0286c.0072.001.0139.0043.019.0095.0095 0 .019.0095.0286.0095.04.0187.0782.041.1141.0668.0431.0185.0845.0408.1236.0667.0285.019.0666.0285.0952.0476l.076.0381c.0263.0108.0517.0236.0761.0382.0475.019.0856.0381.1331.0571.0381.0191.0762.0381.1237.0572.0173.0106.0369.0171.0571.0191.019.0095.0475.019.0666.0286.0072.001.0138.0043.0189.0095.0096 0 .0096.0095.0191.0095.0094 0 .019.0095.0285.0095s.0189.0096.0285.0096.0095.0095.0191.0095c.0326.0102.0644.0229.095.0381.0096 0 .0096.0095.019.0095.0381.0096.0761.0286.1046.0382h.0096c.019.0095.0381.0095.0475.019.0305-.0211.0623-.0402.0952-.0572 1.6521-1.0657 3.0609-2.4678 4.1344-4.1148 1.0736-1.647 1.7877-3.5019 2.0957-5.4437.1152-.7217.1724-1.4514.1712-2.1823-.004-1.0127-.1155-2.0221-.3326-3.0113zm-.2854 1.277c.038.1525.0857.305.1142.4479-.0302-.1512-.0683-.3007-.1142-.4479zm-.4756-1.3342c-.057-.1334-.1237-.2668-.1807-.4002.057.1334.1141.2668.1807.4002.019.0477.0476.1048.0667.1526-.0263-.0491-.0485-.1001-.0667-.1526zm-.5802-1.1245c.0857.1525.1807.3145.2663.4765-.0856-.1716-.1806-.324-.2663-.4765zm-.6849-1.0292c.0667.0858.1333.181.1998.2858-.0588-.1005-.1256-.1961-.1998-.2858zm-.6372-.7243c.076.0667.1521.143.2377.2287-.0721-.0833-.1517-.1599-.2377-.2287zm-.5993-.53368v.0667c.1332.09532.2854.20013.428.324l.1713.14298c-.2663-.24777-.4756-.42885-.5992-.53368zm-.1427.67658c-.203-.2669-.429-.51562-.6753-.7433-.1047-.09529-.2093-.19058-.3139-.27633-.0666-.05721-.1427-.11438-.2093-.162-.2455-.18692-.5064-.3527-.7799-.49558-.0571-.02859-.1047-.05717-.1617-.08576-.0286-.00953-.0571-.02858-.0856-.03812h-.019c.1522.12388.3043.26683.4566.40979l.1427.143c.0856.08576.1616.162.2377.24776.0285.02858.0571.06671.0856.09529.0381.03812.0667.07625.1046.11437.0283.02936.0538.06126.0762.0953.0665.08575.1427.17154.2092.25729.0285.0326.0539.06769.0761.10483.0381.04767.0666.0953.1047.14296.1141.1525.2092.305.3138.4574.2847.4483.5237.924.7134 1.42.0856.2192.1617.4384.2283.6576.0077.0146.011.0312.0095.0476.038.1334.076.2764.1141.4194.0096.019.0096.038.019.0571.1167.5139.1899 1.0367.2188 1.5629.0095.1334.0095.2573.0095.3907.0018.2547-.0109.5092-.0381.7624-.0552.5945-.1699 1.1819-.3424 1.7535-.0951-.2382-.2092-.4765-.3234-.7052-.1046-.2001-.2092-.3907-.3329-.5813-.1411-.2351-.2967-.461-.466-.6766-.0096-.0096-.0096-.019-.019-.0286-.0476-.0668-.1046-.1334-.1617-.2002-.0381-.038-.0666-.0858-.1046-.1238-.0381-.0381-.0666-.0858-.1046-.124 0 .0096.0094.0192.0094.0286.0267.0846.0489.1705.0666.2574.0381.1524.0666.3144.0951.467.0042.0156.0074.0315.0096.0476l.0285.2002c.0095.1048.019.2096.019.3144.1427.1906.2853.4003.4185.6194.4106.6772.7153 1.4132.9037 2.1824.4461-1.142.7031-2.3491.7608-3.5737.2431-1.9108-.2166-3.8447-1.2935-5.4417zm-.7894 6.8234c0 .1334 0 .2764-.0096.4289-.0015-.0196.0018-.0392.0096-.0572.0159-.1234.0159-.2483 0-.3717zm-.1141 1.1912v.0096c.0094-.0286.0094-.0667.0189-.0954 0-.0094.0096-.0285.0096-.038.0109-.0405.0173-.0821.019-.124.0278-.164.0468-.3294.057-.4955-.0285.2573-.057.4955-.1045.7433zm-1.931 2.6493c.0012 0 .0025-.0002.0036-.0007.0012-.0004.0023-.0011.0032-.002s.0016-.0019.002-.0031c.0005-.0012.0008-.0024.0007-.0037.0095-.0191.0095-.0286.019-.0476-.0007.0109-.0036.0216-.0085.0314-.0048.0098-.0116.0186-.02.0257zm-1.2936-5.8703c-.0096.0095-.0095.0286-.0286.0666-.0189.0287-.0475.0668-.076.1049-.0095.0095-.019.0095-.019.019l-.0095.0096-.0095.0095c-.0167.0159-.036.0288-.0571.0381-.0095 0-.0095.0096-.019.0096h-.0095c-.0013-.0001-.0025.0002-.0037.0006-.0011.0005-.0022.0012-.0031.0021-.0008.0009-.0015.0019-.002.0031-.0005.0011-.0007.0024-.0007.0036-.0072.001-.0139.0044-.019.0096-.1154.0466-.2437.05-.3615.0096-.0072-.0011-.0139-.0044-.019-.0096.0096.0096.0286.019.0476.0382.0245.0197.0469.0421.0666.0666l.0285.0286.019.0191c.0118.0109.0214.0238.0285.0381.019.0381.0476.0762.0666.1144.0227.0308.0482.0596.0761.0858.0309.041.0565.0858.0761.1334.0972.2081.1239.4423.0762.667.0753-.1058.136-.2211.1806-.343.1024-.3694.0924-.7609-.0285-1.1245zm-2.1306-1.6773c0-.0095-.0095-.019-.0191-.0285-.019-.0191-.0284-.0382-.0475-.0573l-.0285-.0286-.0095-.0095c-.0095-.0095-.0095-.0095-.019-.0095l-.0095-.0095-.0096-.0096c-.0094 0-.0094-.0095-.019-.0095-.0094-.0095-.0189-.0095-.0189-.019-.0096-.0096-.019-.0096-.0286-.019h-.0096l-.057-.0286h-.0095c-.0095-.0096-.019-.0096-.0381-.0191-.0073-.0007-.014-.0041-.0189-.0095h-.0096c-.0072-.001-.0139-.0044-.019-.0096-.0095 0-.019-.0095-.0285-.0095h-.0096c-.0094 0-.0285-.0095-.038-.0095h-.019c-.0095 0-.0095 0-.019-.0096h-.019c-.0725-.015-.1474-.0143-.2196.0022-.0722.0164-.14.0482-.1989.0932h-.0096v.0094l-.0095.0096c-.0423.0397-.0748.0887-.0951.143 0 .0096-.0095.0096-.0095.019v.0572c.0107.0203.0273.0369.0475.0476.0096 0 .0096.0096.019.0096.0095 0 .0096 0 .019.0095.019.0095.0381.0095.0571.019.0134-.0014.0269.002.038.0096h.0286c.019 0 .0381.0095.0571.0095h.0095c.0285 0 .0475.0095.0761.0095h.0761c.019 0 .038.0095.057.0095.0196-.0015.0392.0018.0571.0096.0381.0095.0856.019.1237.0286.0285.0095.0665.019.095.0286.0096 0 .0096 0 .0191.0095.0707.0303.1378.0686.1997.1143.0143.0072.0272.0169.0381.0286l.019.0191c.0095 0 .0095.0095.019.019l.0095.0096.0095.0094.019.0192.038.038c.0096.0096.0096.019.019.0286.0323-.1816-.005-.3687-.1045-.5241zm-3.7096-8.50061c.0281.00839.0567.01476.0856.01905-.0285-.00954-.057-.00954-.0856-.01905zm-10.67213 16.92501c-.0095.0381-.0095.0763-.019.1143.019-.1048.02853-.2096.04754-.324-.0095.0763-.01901.143-.02854.2097zm3.3291-16.7821c-.02854.00954-.04753.01907-.07607.02858-.00953 0-.019.00954-.02853.00954-.03807.00954-.0666.02859-.10463.03812-.05241.01821-.10331.04051-.15221.06672-.01429.00238-.02753.009-.038.019-.00953 0-.00953.00954-.019.00954-.038.01908-.07611.02858-.11413.04766-.07786.03099-.15406.06598-.22831.10483-.02853.01905-.06657.02859-.0951.04764-.0856.03812-.17123.08579-.25683.13341l-.05707.02859c-.02853.01908-.05706.02858-.0856.04766s-.05706.02859-.0856.04764h-.0095l-.1427.08578c-.03695.0188-.072.04114-.10463.06671h.00944c.00126.00003.00251-.0002.00367-.00067.00117-.00048.00223-.00118.00312-.00207.00088-.00089.00158-.00195.00205-.00312s.00069-.00242.00066-.00368c.0095 0 .0095-.00954.019-.00954.05707-.03809.11414-.06671.1807-.1048.10782-.06599.21895-.12643.33294-.18108.05706-.02858.10463-.05717.1617-.08575.01299-.01193.02989-.01872.04753-.01908.04314-.01849.08453-.04082.12367-.06671.0666-.03812.14266-.06671.20927-.10484.04756-.01905.10463-.04763.15216-.06671.07611-.03812.1522-.0667.23781-.10483.0666-.02858.12366-.04762.19022-.07621-.02054.02251-.04682.03899-.07602.04769zm0 0c-.02854.00954-.04753.01907-.07607.02858-.00953 0-.019.00954-.02853.00954-.03807.00954-.0666.02859-.10463.03812-.05241.01821-.10331.04051-.15221.06672-.01429.00238-.02753.009-.038.019-.00953 0-.00953.00954-.019.00954-.038.01908-.07611.02858-.11413.04766-.07786.03099-.15406.06598-.22831.10483-.02853.01905-.06657.02859-.0951.04764-.0856.03812-.17123.08579-.25683.13341l-.05707.02859c-.02853.01908-.05706.02858-.0856.04766s-.05706.02859-.0856.04764h-.0095l-.1427.08578c-.03695.0188-.072.04114-.10463.06671h.00944c.00126.00003.00251-.0002.00367-.00067.00117-.00048.00223-.00118.00312-.00207.00088-.00089.00158-.00195.00205-.00312s.00069-.00242.00066-.00368c.0095 0 .0095-.00954.019-.00954.05707-.03809.11414-.06671.1807-.1048.10782-.06599.21895-.12643.33294-.18108.05706-.02858.10463-.05717.1617-.08575.01299-.01193.02989-.01872.04753-.01908.04314-.01849.08453-.04082.12367-.06671.0666-.03812.14266-.06671.20927-.10484.04756-.01905.10463-.04763.15216-.06671.07611-.03812.1522-.0667.23781-.10483.0666-.02858.12366-.04762.19022-.07621-.02054.02251-.04682.03899-.07602.04769zm0 0c-.02854.00954-.04753.01907-.07607.02858-.00953 0-.019.00954-.02853.00954-.03807.00954-.0666.02859-.10463.03812-.05241.01821-.10331.04051-.15221.06672-.01429.00238-.02753.009-.038.019-.00953 0-.00953.00954-.019.00954-.038.01908-.07611.02858-.11413.04766-.07786.03099-.15406.06598-.22831.10483-.02853.01905-.06657.02859-.0951.04764-.0856.03812-.17123.08579-.25683.13341l-.05707.02859c-.02853.01908-.05706.02858-.0856.04766s-.05706.02859-.0856.04764h-.0095l-.1427.08578c-.03695.0188-.072.04114-.10463.06671h.00944c.00126.00003.00251-.0002.00367-.00067.00117-.00048.00223-.00118.00312-.00207.00088-.00089.00158-.00195.00205-.00312s.00069-.00242.00066-.00368c.0095 0 .0095-.00954.019-.00954.05707-.03809.11414-.06671.1807-.1048.10782-.06599.21895-.12643.33294-.18108.05706-.02858.10463-.05717.1617-.08575.01299-.01193.02989-.01872.04753-.01908.04314-.01849.08453-.04082.12367-.06671.0666-.03812.14266-.06671.20927-.10484.04756-.01905.10463-.04763.15216-.06671.07611-.03812.1522-.0667.23781-.10483.0666-.02858.12366-.04762.19022-.07621-.02054.02251-.04682.03899-.07602.04769zm0 0c-.02854.00954-.04753.01907-.07607.02858-.00953 0-.019.00954-.02853.00954-.03807.00954-.0666.02859-.10463.03812-.05241.01821-.10331.04051-.15221.06672-.01429.00238-.02753.009-.038.019-.00953 0-.00953.00954-.019.00954-.038.01908-.07611.02858-.11413.04766-.07786.03099-.15406.06598-.22831.10483-.02853.01905-.06657.02859-.0951.04764-.0856.03812-.17123.08579-.25683.13341l-.05707.02859c-.02853.01908-.05706.02858-.0856.04766s-.05706.02859-.0856.04764h-.0095l-.1427.08578c-.03695.0188-.072.04114-.10463.06671h.00944c.00126.00003.00251-.0002.00367-.00067.00117-.00048.00223-.00118.00312-.00207.00088-.00089.00158-.00195.00205-.00312s.00069-.00242.00066-.00368c.0095 0 .0095-.00954.019-.00954.05707-.03809.11414-.06671.1807-.1048.10782-.06599.21895-.12643.33294-.18108.05706-.02858.10463-.05717.1617-.08575.01299-.01193.02989-.01872.04753-.01908.04314-.01849.08453-.04082.12367-.06671.0666-.03812.14266-.06671.20927-.10484.04756-.01905.10463-.04763.15216-.06671.07611-.03812.1522-.0667.23781-.10483.0666-.02858.12366-.04762.19022-.07621-.02054.02251-.04682.03899-.07602.04769zm0 0c-.02854.00954-.04753.01907-.07607.02858-.00953 0-.019.00954-.02853.00954-.03807.00954-.0666.02859-.10463.03812-.05241.01821-.10331.04051-.15221.06672-.01429.00238-.02753.009-.038.019-.00953 0-.00953.00954-.019.00954-.038.01908-.07611.02858-.11413.04766-.07786.03099-.15406.06598-.22831.10483-.02853.01905-.06657.02859-.0951.04764-.0856.03812-.17123.08579-.25683.13341l-.05707.02859c-.02853.01908-.05706.02858-.0856.04766s-.05706.02859-.0856.04764h-.0095l-.1427.08578c-.03695.0188-.072.04114-.10463.06671h.00944c.00126.00003.00251-.0002.00367-.00067.00117-.00048.00223-.00118.00312-.00207.00088-.00089.00158-.00195.00205-.00312s.00069-.00242.00066-.00368c.0095 0 .0095-.00954.019-.00954.05707-.03809.11414-.06671.1807-.1048.10782-.06599.21895-.12643.33294-.18108.05706-.02858.10463-.05717.1617-.08575.01299-.01193.02989-.01872.04753-.01908.04314-.01849.08453-.04082.12367-.06671.0666-.03812.14266-.06671.20927-.10484.04756-.01905.10463-.04763.15216-.06671.07611-.03812.1522-.0667.23781-.10483.0666-.02858.12366-.04762.19022-.07621-.02054.02251-.04682.03899-.07602.04769zm0 0c-.02854.00954-.04753.01907-.07607.02858-.00953 0-.019.00954-.02853.00954-.03807.00954-.0666.02859-.10463.03812-.05241.01821-.10331.04051-.15221.06672-.01429.00238-.02753.009-.038.019-.00953 0-.00953.00954-.019.00954-.038.01908-.07611.02858-.11413.04766-.07786.03099-.15406.06598-.22831.10483-.02853.01905-.06657.02859-.0951.04764-.0856.03812-.17123.08579-.25683.13341l-.05707.02859c-.02853.01908-.05706.02858-.0856.04766s-.05706.02859-.0856.04764h-.0095l-.1427.08578c-.03695.0188-.072.04114-.10463.06671h.00944c.00126.00003.00251-.0002.00367-.00067.00117-.00048.00223-.00118.00312-.00207.00088-.00089.00158-.00195.00205-.00312s.00069-.00242.00066-.00368c.0095 0 .0095-.00954.019-.00954.05707-.03809.11414-.06671.1807-.1048.10782-.06599.21895-.12643.33294-.18108.05706-.02858.10463-.05717.1617-.08575.01299-.01193.02989-.01872.04753-.01908.04314-.01849.08453-.04082.12367-.06671.0666-.03812.14266-.06671.20927-.10484.04756-.01905.10463-.04763.15216-.06671.07611-.03812.1522-.0667.23781-.10483.0666-.02858.12366-.04762.19022-.07621-.02054.02251-.04682.03899-.07602.04769z" fill="#262551"/><path d="m22.0345 16.1394c-.0446.1219-.1054.2373-.1807.3431.048-.2247.0213-.459-.0762-.6671-.0284-.0476-.0475-.0953-.076-.1334-.0603-.0566-.1089-.1246-.1426-.2002-.0118-.0108-.0215-.0237-.0286-.038-.0095-.0096-.0095-.0191-.019-.0191l-.0285-.0286c-.0198-.0246-.0421-.0469-.0666-.0667-.019-.019-.0381-.0286-.0475-.0382.0051.0052.0117.0086.0189.0096.1177.0405.2461.0371.3615-.0096.0072-.001.0139-.0043.019-.0095.0095 0 .0095 0 .0095-.0095h.0095c.0095 0 .0095-.0095.019-.0095.019-.0095.038-.0286.057-.0381l.0096-.0096c.0013 0 .0025-.0002.0037-.0007.0011-.0004.0022-.0011.0031-.002s.0016-.002.002-.0032c.0005-.0011.0007-.0024.0007-.0036l.019-.019c.0293-.032.0548-.0671.0761-.1048.0143-.0199.0241-.0427.0285-.0668.152.3576.1623.7596.0286 1.1245z" fill="#fff"/><path d="m21.5681 16.275c.0149-.2215-.0567-.4401-.1998-.6099l-.038-.0381c-.0108-.0118-.0237-.0214-.038-.0285-.0109-.0118-.0238-.0215-.0381-.0286-.0095-.0096-.019-.0192-.0285-.0192-.0095-.0094-.019-.019-.0286-.019-.0094-.0095-.019-.0095-.0285-.019l-.0571-.0286c-.0095 0-.019-.0095-.0285-.0095-.0014-.0134.002-.0269.0095-.0381 0-.0095.0096-.0191.0096-.0286v-.0095c.0094-.0096.0094-.019.0189-.0286s.019-.0192.019-.0286l.019-.019.0096-.0096c.0094-.0095.019-.0095.019-.019.0094-.0095.0094-.0095.0189-.0095.0496-.0155.1027-.0155.1522 0 .0095.0095.0285.019.0476.0381.0245.0197.0468.0421.0665.0667l.0286.0286.019.0191c.0118.0108.0214.0237.0285.038.019.0382.0476.0763.0666.1144.0111.0248.0207.0503.0286.0762.0331.101.0434.208.0303.3135-.0131.1054-.0494.2066-.1063.2963z" fill="#d0cff9"/><path d="m19.9911 13.836c-.0096-.0094-.0096-.019-.0191-.0285-.0096-.0095-.019-.0286-.038-.0381 0-.0096-.0096-.0096-.019-.0191l-.0096-.0095-.0095-.0096-.019-.019-.019-.019c-.0095-.0095-.0285-.0191-.038-.0286-.0632-.0437-.13-.0819-.1997-.1143-.0096 0-.0096-.0096-.0191-.0096-.0285-.0095-.057-.019-.0951-.0286s-.0761-.019-.1237-.0286c-.019 0-.038-.0095-.0571-.0095-.0194.0016-.039-.0017-.057-.0095h-.0761c-.0286 0-.0571-.0096-.0761-.0096h-.0095c-.0195.0015-.0391-.0017-.0571-.0094-.0285 0-.0476-.0096-.0762-.0096-.019-.0096-.0379-.0096-.0569-.019-.0096 0-.0096 0-.0191-.0096-.0095 0-.0095-.0095-.0191-.0095-.011-.0039-.0209-.0102-.0291-.0185-.0083-.0082-.0145-.0182-.0184-.0292-.0047-.0088-.0071-.0186-.0071-.0286 0-.0099.0024-.0197.0071-.0285 0-.0096 0-.0096.0096-.019.0226-.0531.0549-.1016.0951-.143l.0095-.0096v-.0095h.0095c.0591-.0444.1269-.0759.1991-.0923.0721-.0165.1469-.0175.2194-.003h.019c.0095 0 .019 0 .019.0095h.019c.019 0 .0286.0096.038.0096h.0096c.0095 0 .0189.0095.0285.0095.0072.001.0139.0044.019.0095h.0095c.0095 0 .0095 0 .019.0096.0094.0096.019.0095.038.019h.0096l.0571.0286h.0095c.0095.0095.019.0095.0285.019.005.0003.0096.0025.0131.0059.0035.0035.0056.0082.0059.0131.0096 0 .0096.0096.019.0096l.0096.0095c.0012 0 .0025.0002.0036.0007.0012.0005.0023.0011.0031.002.0009.0009.0016.002.0021.0031.0005.0012.0007.0024.0007.0037.0094 0 .0094.0095.019.0095l.0094.0096.0286.0286c.0186.0166.0346.0358.0476.0571.0094.0096.019.0191.019.0286.0561.0738.0954.1589.1151.2494.0198.0906.0195.1843-.0008.2747z" fill="#fff"/><path d="m29.5618 12.9968c-.2166-.9816-.5387-1.937-.9606-2.8495-.2664-.53363-.5898-1.13402-.9893-1.78203-.4979-.75854-1.0681-1.46707-1.7026-2.11564.0095.02859.019.06672.0285.0953s.019.0667.0285.09529c.0571.19062.1047.40025.1523.60992.1694.81439.2365 1.64676.1996 2.47777-.057-.04766-.095-.07624-.1046-.08579-.0265-.0139-.0519-.02982-.076-.04762-.0211-.00932-.0404-.02222-.0571-.03813-.0475-.02859-.0856-.05717-.1332-.08579-.0422-.02896-.0868-.05444-.1331-.07621-.0476-.02859-.0856-.04766-.1331-.07625l-.1237-.06671c-.0096-.00954-.019-.00954-.0286-.019-.0013.00003-.0025-.0002-.0037-.00068-.0011-.00047-.0022-.00117-.0031-.00206s-.0016-.00196-.002-.00312c-.0005-.00117-.0007-.00242-.0007-.00368l-.1142-.05717c-.0742-.03888-.1504-.07387-.2282-.10483-.0666-.02859-.1332-.06672-.1997-.0953l-.1427-.05721c-.0332-.01685-.0684-.02965-.1046-.03812-.1142-.04763-.2378-.09529-.352-.13342-.0365-.01694-.0748-.02972-.1142-.03808-.019-.00955-.0285-.00955-.0475-.01909-.0381-.00953-.0761-.02858-.1141-.03812-.019-.00951-.0476-.00951-.0665-.01905-.0237-.01189-.0497-.01841-.0762-.01908h-.0095c.1522.13343.3044.26684.4565.4098l.1427.143c.0856.08577.1617.162.2378.24777.0286.02861.0572.0667.0857.09532.038.03809.0665.07622.1046.11434.0282.02936.0536.06126.076.09529l.1998.25733c.0284.03259.0539.06767.0761.1048.038.04766.0665.09533.1046.14305l.3139.4574c.2847.4482.5237.9239.7133 1.4199.0857.2192.1618.4384.2283.6576.0087.0143.0121.0311.0096.0476.038.1334.076.2764.1141.4194 0 .019.0095.038.0095.0572.1167.5139.1899 1.0367.2187 1.5629.0096.1334.0096.2572.0096.3906.0018.2547-.0109.5092-.0381.7624-.0552.5945-.17 1.1819-.3424 1.7535-.0951-.2382-.2093-.4764-.3234-.7052-.1046-.2-.2092-.3907-.3329-.5813-.1411-.2351-.2967-.4611-.4661-.6766-.0095-.0095-.0095-.019-.019-.0286-.0475-.0667-.1046-.1334-.1616-.2002-.0381-.038-.0667-.0857-.1047-.1238-.0379-.0382-.0666-.0858-.1047-.1239 0 .0095.0096.019.0096.0286.0266.0846.0488.1704.0666.2573.038.1524.0665.3145.0951.467 0 .019.0095.0286.0095.0476.011.0662.0174.1331.019.2002.0095.1048.019.2096.019.3144v.2383c0 .1048 0 .2096-.0095.3145v.0667c.0104.1239.0072.2485-.0096.3716.0015.0196-.0017.0392-.0094.0572v.019c-.0102.1661-.0293.3315-.0571.4956-.0095.0381-.0095.0858-.019.1239 0 .0095-.0095.0286-.0095.0381-.0095.0287-.0095.0572-.019.0763v.019c-.0095.0286-.0095.0572-.019.0762-.0177.0869-.04.1728-.0666.2574l-.0285.1143c-.019.0477-.0285.1048-.0476.1525-.0095.038-.0286.0762-.038.1143-.0606.1858-.1337.3673-.2188.5432-.019.0382-.0381.0858-.0571.1239-.156.3292-.334.6476-.5326.953-.0285.0381-.0571.0858-.0856.1334-.1047.1525-.2188.3145-.3329.467-.0381.0477-.0762.1049-.1237.162-.1046.1334-.2283.2764-.3519.4193-.0381.0381-.0666.0763-.1047.1144-.0476.0572-.0951.1049-.1522.162-.038.0476-.0856.0857-.1236.1335-.0951.0952-.1903.2-.2853.2954-.1142.1143-.2283.2192-.3425.3335-.0571.0571-.1237.1143-.1807.1715s-.1237.1144-.1903.1716c.0286-.0382.0666-.0763.0952-.1144.0286-.0382.0665-.0858.0951-.1239l.0095-.0095c.0213-.0236.0404-.0492.0571-.0762.0095-.0192.0285-.0382.0381-.0572.0339-.0429.0656-.0874.095-.1334v-.0096c.0476-.0667.0856-.1238.1332-.1906.057-.0858.1141-.181.1712-.2764.0377-.0688.079-.1356.1237-.2001v-.0095l.1141-.2001c.038-.0667.0761-.143.1142-.2192.1236-.2382.2377-.467.3329-.6957.019-.0477.0475-.0953.0665-.143.019-.0571.0476-.1143.0666-.1715-.0381.0381-.0666.0858-.1046.1239-.2409.2907-.4982.5675-.7705.829-.0475.0477-.095.0858-.1427.1334-.057.0477-.1141.1049-.1711.1526l-.1712.143c-.2395.2017-.4904.3894-.7514.5622-.0335.0243-.0685.0466-.1047.0667-.0381.019-.0666.0477-.1047.0667-.0665.0476-.1426.0858-.2187.1334-.0475.0286-.1046.0667-.1522.0953-.057.0286-.1047.0572-.1522.0858-.1046.0572-.2093.1143-.3044.162-.0475.0286-.1046.0476-.1522.0762l-.1142.0572c-.114.0476-.2187.0953-.3233.143.019-.0191.0475-.0381.0761-.0667.0229-.0249.0484-.0472.076-.0667.2339-.2216.4472-.4641.6373-.7243.0476-.0572.0856-.1239.1333-.1906.0657-.0983.126-.2001.1806-.305.0096-.019.0285-.0476.0381-.0667.038-.0667.0665-.1335.1046-.2001-.1054.084-.2167.1604-.3329.2286-.1679.0957-.3428.1785-.5231.2478-.2756.1016-.5635.1658-.8562.1906-.2047-.1233-.3987-.2636-.5801-.4192-.0286-.0286-.0571-.0477-.0856-.0762s-.0571-.0478-.0857-.0764c-.1982-.1904-.3796-.3977-.5421-.6194-.0167-.027-.0358-.0526-.0571-.0762-.1125-.1647-.2142-.3366-.3043-.5146-.0096-.0286-.0286-.0572-.0381-.0858-.0285-.0667-.0571-.1239-.0856-.1906-.0079-.026-.0175-.0514-.0286-.0763-.0575-.1556-.1051-.3148-.1427-.4764-.0108-.034-.0172-.0692-.019-.1048-.0094-.0382-.0094-.0668-.0189-.1048-.0096-.0286-.0096-.0572-.019-.0954 0-.019-.0096-.0381-.0096-.0572-.0078-.0311-.011-.0632-.0094-.0952.0015-.0227-.0018-.0454-.0096-.0668 0-.0381-.0095-.0667-.0095-.1048-.0079-.0696-.0111-.1396-.0095-.2096.0016-.1884.0175-.3763.0476-.5623.0095-.0476.019-.1048.0285-.1524.0082-.0488.0209-.0967.0381-.143.0095-.019.0095-.0477.019-.0668.019-.0572.0285-.1143.0475-.1715.019-.0477.0381-.1048.0571-.1525.0195-.0626.045-.1232.0761-.181.0088-.0272.0216-.0528.038-.0762.0096-.0286.0286-.0477.0381-.0763.0093-.0211.0222-.0404.038-.0571.0314-.0593.0663-.1166.1047-.1716.0071-.0196.0205-.0364.038-.0477.0476-.0667.0856-.1334.1427-.2001.0181-.0206.034-.0429.0475-.0667.0456-.0646.0965-.1251.1523-.181.0475-.0572.1046-.1144.1616-.1716l.0571-.0572.0571-.0572c.0166-.0185.0358-.0346.057-.0476.0356-.0375.0738-.0725.1142-.1048.0392-.0373.0805-.0723.1236-.1048.0108-.0118.0238-.0215.0381-.0286.0285-.019.0571-.0477.0856-.0667.0095-.0096.019-.0096.019-.019.0285-.019.0666-.0477.0952-.0668.019-.019.0475-.0286.0665-.0476.0211-.0093.0404-.0222.057-.0382.0762-.0476.1523-.0952.2188-.1428.0381-.0192.0666-.0478.1047-.0668.0329-.0169.0647-.036.0951-.0572.0264-.0195.0551-.0355.0856-.0476l.0095-.0096c.0571-.0286.1046-.0571.1522-.0762h.0095c.0339-.018.0688-.0339.1046-.0476l.0571-.0286c.0229-.0078.0452-.0174.0666-.0286.2904-.1242.5933-.2169.9035-.2764.019 0 .0286-.0095.0477-.0095-1.4863-.1541-2.9882.0284-4.3945.5337-2.1306 1.6581-1.5694 4.9555-1.4933 5.3749.2453 1.3669.9063 2.6248 1.8928 3.6022.0096.0095.0096.0095.0096.019.5356.6697 1.215 1.2104 1.988 1.5819.0285.0096.057.0286.0856.0382.0285.019.0665.0286.095.0476.0285.0191.0666.0286.0952.0476.0094 0 .0094.0096.019.0096.0173.0106.0368.0171.057.019l.0476.0191h.0095l.038.019c.0072.001.0139.0043.019.0095.0096.0096.0286.0096.0381.0191.0095 0 .019.0096.0285.0096.0012 0 .0025.0002.0037.0007.0011.0004.0022.0011.0031.002s.0016.0019.0021.0031c.0004.0012.0007.0024.0007.0037.0094 0 .019.0095.038.0095.019.0096.0285.0096.0476.019.0094 0 .0094 0 .019.0096.0326.0102.0644.0229.095.0381h.0096c.0094 0 .0285.0095.038.0095.019.0096.0285.0096.0476.019.0218.0077.044.014.0665.0191.0476.019.1047.0286.1522.0477.0096 0 .0096 0 .019.0095.059.0203.1194.0362.1807.0477.0476.0094.0952.0285.1522.038.0476.0096.1046.0286.1522.0382.0285.0095.0571.0095.0856.0191.0476.0095.0952.019.1332.0285.2888.0556.5812.0907.875.1049-.1676-.1092-.3295-.2269-.485-.3527-.019-.019-.0476-.038-.0666-.0571l-.0095-.0095c-.019-.0096-.038-.0286-.0571-.0382-.0856-.0667-.1807-.1429-.2759-.2287.0202.0214.0425.0405.0667.0571l.0285.0287c.0012 0 .0025.0002.0036.0007.0012.0005.0023.0012.0031.002.0009.0009.0016.002.0021.0031.0005.0012.0007.0024.0007.0037.0286.019.0476.0382.0761.0572l.0095.0095h.0095v.0095l.0096.0096c.0094.0094.0285.019.038.0286h.0095c.0095 0 .0095.0095.019.0095.0096 0 .0095.0095.019.0095.076.0572.1617.1239.2473.1811.0308.0192.0595.0415.0856.0667.0095 0 .0095.0095.019.0095.0013 0 .0025.0002.0037.0007.0011.0005.0022.0012.0031.002.0009.0009.0016.002.002.0031.0005.0012.0007.0025.0007.0037.0096.0096.019.0096.0286.0191.0285.019.0475.0382.076.0572l.0096.0095c.019.0191.0475.0286.0665.0476.0095.0096.0285.0191.0381.0286s.0189.0096.0285.0191h.0095c.0476.0286.0951.0572.1332.0858.0264.0194.0551.0354.0856.0476.0045.0058.0103.0106.0169.0138.0065.0033.0138.0051.0211.0052.0211.0094.0404.0223.0571.0382.019.0096.0285.019.0476.0286.0094.0095.019.0095.0285.019.0095 0 .0095.0096.019.0096.0211.0092.0405.0221.0572.0381l.0571.0286c.0072.001.0139.0044.019.0096.0095 0 .019.0095.0285.0095.0401.0186.0783.0409.1141.0667.0432.0185.0845.0408.1237.0667.0286.019.0666.0286.0951.0477l.0762.0381c.0262.0107.0516.0234.076.0381.0476.0191.0855.0381.1332.0572.038.0191.0856.0381.1236.0571.0174.0106.0369.0171.0571.019.0214.0114.0437.0209.0666.0286.0072.0011.0139.0044.019.0096.0095 0 .0095.0096.019.0096s.0189.0094.0285.0094c.0095 0 .019.0096.0285.0096.0072.001.0139.0044.019.0096.0332.0085.0652.0213.0951.038.0072.0011.0139.0044.019.0096.0381.0095.0762.0286.1047.038h.0094c.019.0096.0381.0096.0477.0192.0285-.0192.0665-.0382.095-.0572 1.6522-1.0657 3.061-2.4678 4.1345-4.1148 1.0736-1.6471 1.7877-3.502 2.0958-5.4437.1151-.7217.1724-1.4515.1712-2.1823-.0239-.9905-.1416-1.9765-.3518-2.9447zm-6.2017 7.8145c-.0095.019-.0095.0285-.019.0476l-.0094.0095zm-3.1674-5.6608c-.0856.0096-.1712.019-.2663.0381.0951-.019.1807-.0285.2663-.0381zm-.837.162c-.1046.0286-.1998.0572-.3044.0953.0996-.0374.2012-.0692.3044-.0953zm7.5429-5.251c.0856.0762.1711.1525.2377.2192-.0761-.0762-.1617-.1524-.2377-.2191zm.6372.7243c.0666.0857.1332.1811.2092.2859-.0665-.1048-.1426-.2001-.2092-.2859zm.6848 1.0292c.0856.1525.1808.3145.2664.4765-.0856-.1714-.1808-.324-.2664-.4764zm.5708 1.1245c-.0571-.1334-.1237-.2668-.1808-.4002.0666.1334.1237.2668.1808.4002.019.0477.0475.1049.0665.1525-.0182-.0525-.0404-.1034-.0665-.1525zm.485 1.3342c.0458.1472.0839.2967.1142.4479-.0303-.1512-.0684-.3006-.1142-.4478z" fill="#fff"/><path d="m13.2726 19.5132c.1283-.8087.4514-1.5741.9417-2.23.5825-.7517 1.3632-1.3259 2.2543-1.6581 1.4062-.5054 2.9081-.6878 4.3944-.5337-.0095-.0096-.019-.0286-.038-.0381l-.0286-.0286-.0285-.0287c-.0476-.0476-.0951-.0952-.1522-.1428-.019-.0192-.0381-.0286-.0571-.0478-.0404-.0288-.0785-.0607-.1142-.0952-.0189-.019-.038-.0286-.057-.0476-.038-.0286-.0665-.0477-.1046-.0763-.0934-.068-.192-.1285-.2948-.1811-.0286-.019-.0571-.0286-.0857-.0476-.0286-.0191-.057-.0286-.0856-.0476-.0286-.0191-.0666-.0286-.0951-.0478-.0285-.0094-.0666-.0285-.0951-.038-.4966-.2037-1.0348-.2854-1.5695-.2382h-.019c-.038 0-.076.0095-.1141.0095h-.019c-.038 0-.076.0095-.1141.0095-.0571.0095-.1046.019-.1522.0286h-.019c-.0285.0095-.057.0095-.0856.019-.0476.0095-.0856.019-.1331.0286-.0274.0109-.0563.0173-.0856.019-.0244.0098-.05.0162-.0762.0191.0095-.0095.019-.0286.0285-.0381.0339-.0568.0721-.111.1142-.162.0075-.0171.0211-.0307.0381-.0382.0096-.0181.0225-.0342.038-.0476.0285-.0286.0476-.0572.076-.0858.2107-.2189.4721-.3826.761-.4764-.0421-.0216-.0868-.0377-.1331-.0477-.0286-.0095-.0476-.019-.0761-.0286s-.0476-.019-.0761-.0286c-.0558-.0203-.113-.0362-.1712-.0477-.0285-.0095-.0666-.019-.0951-.0286-.0751-.0204-.1513-.0363-.2284-.0476-.0815-.018-.1641-.0308-.2473-.0381-.0856-.0096-.1712-.019-.2662-.0286-.1523-.0095-.3235-.0095-.4852-.0095-.0701.0016-.14.0079-.2092.019-.1251.0083-.2493.0274-.371.0572l-.1141.0286-.1142.0286c-.0551.0114-.1092.0274-.1617.0476-.0476.019-.1046.0286-.1522.0476-.0622.0165-.1227.0389-.1807.0668-.019.0095-.0381.0095-.057.019.0094-.019.0094-.0286.019-.0476l.0285-.0572c.0112-.0215.0207-.0438.0285-.0668.0111-.0231.0238-.0453.038-.0666.0146-.0245.0273-.0499.0381-.0763 0-.0012.0002-.0025.0007-.0036.0004-.0012.0012-.0023.002-.0032.0009-.0009.002-.0016.0032-.002.0011-.0005.0024-.0007.0037-.0007.0125-.0244.0286-.0468.0475-.0667.0315-.0583.0698-.1127.1141-.1621.0095-.019.019-.0286.0286-.0476.0117-.0109.0213-.0238.0285-.0381.0416-.0532.0861-.1041.1332-.1525l.057-.0572.0571-.0572.0571-.0571c.0201-.0214.0424-.0406.0666-.0572.0166-.0186.0358-.0347.0571-.0477.0189-.019.0475-.038.0665-.0571l.0856-.0572.0856-.0572c.0381-.019.0666-.0476.1046-.0667.0975-.0584.1993-.1093.3044-.1524.0072-.001.0139-.0044.019-.0096.0962-.0406.1946-.0756.2949-.1048l.2283-.0572c.076-.0095.1426-.0286.2092-.0381.0343-.008.0695-.0112.1046-.0096.1487-.0124.298-.0156.4471-.0095.0476 0 .1047.0095.1426.0095.0286 0 .0571.0096.0857.0096s.057.0095.076.0095c.0134-.0014.0269.002.0381.0095.0095 0 .0286.0096.038.0096.0052-.0007.0104-.0002.0154.0015.0049.0017.0094.0044.0131.008.019 0 .0286.0095.0477.0095h.0189c-.0165-.0025-.0333.0009-.0475.0096-.019 0-.0381.0095-.057.0095h-.0096c-.019 0-.0475.0095-.0761.0095-.019 0-.038.0095-.057.0095s-.0381.0096-.0571.0096c-.0286.0095-.0666.019-.1046.0286-.0422.0132-.0835.0291-.1237.0476-.0214.0113-.0437.0208-.0666.0286-.0012 0-.0025.0002-.0036.0007-.0012.0005-.0023.0012-.0032.0021s-.0016.0019-.002.0031c-.0005.0012-.0007.0024-.0007.0037-.0095 0-.019.0095-.0285.0095s-.019.0095-.0285.0095c-.0231.0111-.0454.0239-.0667.0381-.0211.0093-.0404.0222-.0571.0381-.0189.0096-.038.0286-.057.0382-.0357.02-.0678.0457-.0951.0762-.019.019-.0476.0381-.0666.0572l-.0571.0572-.0095.0095-.0284.0285-.0286.0286-.019.019c.4582-.1519.9453-.1965 1.4235-.1304.4783.0661.935.2412 1.3349.5117.0308.0227.0595.0482.0856.0762.0299.0204.0557.0463.0761.0762l.0665.0667c.019.0191.0381.0477.0666.0763l.1142.143c.0244.0301.0466.062.0666.0953.0181.0186.0312.0416.038.0667.0475.0857.0951.162.1427.2477.0381.0763.076.143.1141.2193l.0857.1715c.0189.0476.0475.0953.0665.143.0293.0553.0547.1126.076.1715.0108.0263.0235.0518.0381.0762.0096.0286.0285.0477.0381.0763.0433.0819.0909.1614.1427.2383.0094.019.0285.038.038.0572.0191.019.0285.038.0381.0476l.0189.019c.0096.0095.019.0095.019.019.0096.0095.019.0095.019.0191.0181.0096.0343.0225.0477.0381.0189.0095.0285.0191.0475.0286.0095 0 .019.0095.0285.0095s.019.0095.0286.0095c.0179.0078.0375.0111.057.0095h.1142c.0285 0 .0475-.0095.0761-.0095.0564-.0196.1106-.0452.1616-.0762.0096-.0095.019-.0095.0286-.019.0096-.0096.019-.019.0285-.019.019-.0192.0381-.0286.0571-.0478l.019-.019c.0095-.0094.0095-.019.019-.019l.0285-.0285c.0096-.0096.019-.019.019-.0286.409-.4956.2758-1.4581-.3804-2.3825-.0467.165-.1105.3247-.1903.4765-.019.0285-.0285.0571-.0476.0857-.0429.0699-.0906.1368-.1426.2002-.0416-.0563-.086-.1104-.1332-.162-.0345-.0358-.0663-.074-.0951-.1144-.1617-.1906-.3235-.3621-.4851-.5242l-.0856-.0857c-.0356-.0375-.0738-.0725-.1142-.1049-.2582-.252-.5348-.4845-.8275-.6956-.0666-.0477-.1331-.0858-.1902-.1334-.0285-.0191-.0666-.0381-.0951-.0572-.0571-.0381-.1237-.0763-.1807-.1144l-.0856-.0571c-.0571-.0375-.1176-.0693-.1808-.0953l-.1142-.0572-.1141-.0572c-.1049-.0539-.2129-.1016-.3234-.143-.038-.0095-.0666-.0286-.1046-.0381-.0381-.0096-.0666-.0286-.1046-.0381-.0476-.0191-.1047-.0381-.1522-.0572l-.1712-.0572c-.0286-.0095-.0571-.019-.0951-.0286-.0571-.019-.1237-.0476-.1903-.0762-.0285-.0095-.0665-.0286-.1046-.0381-.0012 0-.0025-.0002-.0037-.0007-.0011-.0005-.0022-.0012-.0031-.002-.0009-.0009-.0016-.002-.0021-.0032-.0004-.0011-.0007-.0024-.0006-.0036-.1042-.0417-.2058-.0894-.3044-.143l-.1141-.05721c-.0401-.01866-.0783-.041-.1141-.06672-.0381-.01907-.0762-.04766-.1142-.0667-.076-.04767-.1617-.10484-.2378-.162-.0476-.02858-.0856-.0667-.1332-.09529-.0435-.03213-.0848-.06716-.1237-.10484-.057-.04766-.1235-.10483-.1806-.15249-.0571-.05717-.1142-.10483-.1617-.162-.0325-.03728-.0674-.07231-.1047-.10483-.0285-.03813-.0665-.06671-.0951-.10484l-.0095-.00951c-.0285-.03812-.0571-.0667-.0856-.10483s-.0571-.0667-.0856-.10483c-.019-.02858-.0476-.05717-.0666-.08575-.0804-.10274-.1535-.21101-.2187-.324l-.057-.08567c-.0169-.033-.036-.06483-.0571-.0953-.0195-.02645-.0354-.05528-.0475-.08579-.0095.07625-.0095.1525-.019.22871v.36217c.0039.34284.0422.68442.1141 1.01964.0082.05184.0209.10286.038.15245v.00955c.0096.04766.0286.09529.0381.143.0095.02858.019.06668.0286.09528.0096.0245.016.0501.019.0763.045.1492.099.2956.1616.4384.0095.0286.019.0476.0286.0762.057.1238.1046.2382.1616.343-.3579.0581-.7086.154-1.0462.2859-.0381.019-.0856.0286-.1237.0477-.0588.0213-.116.0468-.1712.0762-.0571.0286-.1142.0476-.1617.0762-.1427.0667-.2758.143-.39.2097-.076.0381-.1427.0858-.2093.1239-.0665.038-.1236.0857-.1806.1239.0285-.0096.0475-.0191.076-.0286l.0856-.0286c.019-.0096.038-.0096.0571-.0191.0873-.0278.1762-.0501.2663-.0667.1141-.0191.2378-.0381.371-.0477.1267-.0095.2538-.0095.3805 0l-.0571.0286c-.057.0287-.1237.0573-.1903.0953-.0856.0477-.1806.0954-.2758.143-.0244.0146-.0498.0273-.0761.0381-.0762.0388-.1493.0834-.2187.1334-.1089.0599-.2138.1267-.314.2002-.0475.0286-.0856.0572-.1331.0858-.0856.0571-.1712.1239-.2664.1905-.1331.0954-.2663.2002-.3994.3146-.0856.0762-.1808.1524-.2759.2382-.0295.0309-.0613.0596-.0951.0858-.0571.0572-.1237.1144-.1807.1715l-.1807.181c-.5655.5983-1.0456 1.2717-1.4268 2.0013 0 .0096-.0095.019-.0095.0286-.019-.2287-.0381-.4575-.0381-.6957-.0003-.3027.0188-.6051.0571-.9053l-.0285.0285-.0286.0286-.0476.0477c-.0279.0261-.0534.0549-.076.0857l-.0096.0096-.0094.0096c-.0012 0-.0025.0002-.0036.0007-.0012.0004-.0023.0011-.0032.002-.0008.0009-.0015.0019-.002.0031s-.0007.0024-.0007.0037c-.0095.0095-.019.0095-.019.0191l-.019.019-.019.019-.0286.0286-.0666.0667-.0094.0095-.0096.0096-.0095.0095-.0095.0095-.0095.0095-.0095.0095-.0571.0573c-.0381.0476-.08559.0857-.12366.1429-.02447.0233-.04675.0488-.06657.0762-.04757.0572-.09512.1049-.14269.162-.038.0477-.08561.0953-.12364.1525-.05707.0762-.12367.1525-.19023.2288-.12367.1524-.25684.324-.39.505l-.19972.2859c-.02854.0381-.05708.0858-.08561.1239-.02853.038-.05706.0857-.0856.1334-.02854.0476-.05707.0857-.08559.1334-.05711.0953-.12368.1907-.18074.2859l-.0856.143c-.02824.0529-.06003.1038-.09514.1524-.01369.0268-.0296.0523-.04756.0764-.02853.0476-.05707.1048-.0856.1524-.0095.0096-.0095.019-.019.0286s-.00954.019-.019.038c-.00946.0191-.02854.0478-.03807.0668-.019.0286-.02853.0572-.04754.0858-.00953.019-.019.0286-.019.0476l-.02853.0572-.02853.0572c-.02854.0572-.0666.1238-.09514.1906.00003.0012-.00019.0025-.00066.0037-.00046.0011-.00116.0022-.00205.0031s-.00194.0016-.00311.002c-.00117.0005-.00242.0008-.00368.0007l-.02853.0572c-.02853.0571-.05707.1048-.08561.162-.00952.0285-.02853.0476-.03806.0762-.01073.0264-.02343.0518-.038.0763-.02853.0571-.04757.1048-.0761.162-.00951.0095-.00951.019-.019.0381-.02854.0667-.05708.1239-.08561.1906 0 .0096-.00949.019-.00949.0286-.00951.0095-.00951.0286-.019.0381-.01071.0263-.02341.0518-.038.0763-.02853.0666-.0666.1429-.09513.2286-.01184.0367-.02779.0719-.04753.1049-.01054.0174-.01704.0369-.019.0571-.019.0382-.02853.0763-.04756.124-.04757.1143-.0951.2286-.14267.362-.019.0382-.02853.0858-.04756.1335-.0095.0381-.02853.0763-.038.1048-.00953.019-.00953.0381-.019.0572-.019.0477-.02854.0953-.04757.1334-.0095.019-.0095.0286-.019.0477-.02854.0762-.04753.162-.07607.2382-.0761.2478-.1522.5146-.21876.8005-.019.0954-.04757.2002-.0666.2954-.019.0763-.02854.143-.04757.2192-.0095.0763-.02853.1525-.038.2288-.038.2191-.07609.4479-.09513.6861-.06174.5281-.08715 1.0599-.07606 1.5915v.1144c.00742.5396.05495 1.078.14221 1.6106 1.90323 1.8657 4.30416 3.1429 6.91496 3.6785.9353.1942 1.8889.2869 2.844.2763h.2093c2.5306-.0421 5.0012-.7771 7.1434-2.1251.0303-.0212.0621-.0403.095-.0572.5606-.3616 1.0947-.7629 1.598-1.2007-.6218.1077-1.2554.1302-1.8833.0666-1.2592-.1383-2.4582-.6122-3.4718-1.3722-.0307-.0192-.0594-.0416-.0856-.0667-.0176-.0103-.0336-.0232-.0475-.0382.0285.0286.0475.0572.076.0858.019.0191.0381.0477.0667.0763s.0475.0571.076.0857c.038.0381.0761.0858.1142.1239.095.1048.1996.2096.3043.3145.0356.0375.0737.0725.1142.1048.038.0381.0761.0667.1141.1049.0381.0381.0856.0762.1236.1143.0201.0214.0425.0405.0667.0571.02.0215.0423.0406.0665.0572l.0285.0286.0095.0096c.0286.019.0476.0381.0761.0572l.0096.0095.0095.0095.0095.0096c.0095.0094.0285.019.0381.0286.0094 0 .0094.0094.0189.0094s.0096.0096.019.0096c.0761.0572.1617.1238.2473.181.0308.0192.0595.0416.0856.0668.0013-.0001.0025.0002.0037.0006.0012.0005.0023.0012.0031.0021.0009.0009.0016.0019.0021.0031s.0007.0024.0007.0037c.0095 0 .0095.0095.019.0095.0095.0095.019.0095.0285.019.0286.0191.0475.0381.0761.0573l.0095.0094c.019.0192.0476.0286.0665.0477.0096.0095.0286.0191.0381.0286.0095.0094.019.0095.0286.0191h-.0096c.0013-.0001.0025.0002.0037.0006.0012.0005.0022.0012.0031.0021s.0016.0019.0021.0031c.0005.0011.0007.0024.0007.0036h-.0571c-.0195.0015-.0391-.0017-.0571-.0094-.0226.0008-.0451-.0024-.0665-.0096-.1141-.0095-.2664-.0286-.4376-.0572-.0674-.008-.1341-.0208-.1998-.038-.0665-.0096-.1331-.0287-.2092-.0382-.0285-.0096-.057-.0096-.0856-.0191-.052-.007-.103-.0198-.1522-.0381-.0476-.0095-.1046-.0286-.1522-.0381-.059-.0203-.1193-.0363-.1807-.0477-.0095 0-.0095 0-.019-.0095-.0571-.019-.1046-.0286-.1522-.0476-.0218-.0076-.0441-.014-.0666-.019-.019-.0096-.0285-.0096-.0475-.019-.0202-.012-.0431-.0186-.0665-.0192l-.1427-.0572c-.0248-.0111-.0502-.0206-.0761-.0286-.0095-.0095-.0285-.0095-.0381-.019-.0094 0-.0094-.0095-.019-.0095-.0189-.0095-.0285-.0095-.0475-.0191s-.0285-.0094-.0475-.019c-.0174-.0105-.0369-.017-.0571-.019-.0096 0-.0096-.0095-.019-.0095-.0326-.014-.0644-.0299-.0952-.0477-.0285-.0191-.0665-.0286-.095-.0477-.0285-.0095-.0571-.0285-.0856-.0381-1.1948-.2359-2.3068-.7814-3.2246-1.582-.721-.6387-1.3064-1.4158-1.7214-2.285-.415-.8693-.6512-1.8131-.6946-2.7754zm4.5276 9.1868c-.0475-.0286-.0951-.0668-.1522-.0953.0546.0251.1057.0572.1522.0953z" fill="#ff9e00"/><path d="m22.1228 14.5249c-.0095.0096-.0095.019-.019.0286l-.0285.0286c-.0095.0095-.0095.019-.019.019l-.019.019c-.019.0191-.0381.0286-.0571.0477-.0095.0096-.0189.019-.0285.019-.0095.0096-.019.0096-.0285.019-.0511.0311-.1053.0567-.1617.0763-.019.0095-.0476.0095-.0762.0191h-.114c-.019 0-.0381-.0096-.0571-.0096-.0095 0-.019-.0095-.0285-.0095s-.019-.0095-.0286-.0095c-.0171-.0074-.0331-.017-.0476-.0286-.018-.0097-.0342-.0226-.0475-.0382-.0096-.0094-.019-.0094-.019-.019-.0096-.0094-.019-.0094-.019-.019l-.019-.0191c-.0096-.019-.0286-.0286-.0381-.0476-.0094-.019-.0285-.0381-.038-.0572-.0538-.0755-.1015-.1551-.1427-.2382-.0095-.0286-.0285-.0476-.0381-.0762-.0095-.0286-.0285-.0478-.038-.0763-.031-.0545-.0565-.112-.076-.1715-.019-.0476-.0476-.0954-.0666-.143l-.0856-.1716c-.038-.0762-.0761-.143-.1142-.2192-.0475-.0857-.0951-.162-.1427-.2477-.0147-.0211-.0274-.0434-.038-.0667-.0189-.0339-.0412-.0659-.0666-.0953l-.1141-.1429c-.0194-.0278-.0418-.0533-.0666-.0763-.0198-.0246-.0421-.0469-.0666-.0667l-.076-.0762c-.0286-.0287-.0571-.0477-.0857-.0763-.3996-.2711-.8564-.4464-1.3347-.5125-.4784-.0661-.9655-.0212-1.4237.1313l.019-.019.0286-.0286.0285-.0286.0096-.0096.057-.0571c.0201-.0214.0424-.0406.0666-.0572.0285-.0285.0666-.0477.0951-.0762.019-.0095.038-.0286.0571-.0381.019-.0095.038-.0286.0571-.0382.0209-.0147.0432-.0275.0665-.038.0038-.0037.0083-.0064.0132-.0081.0049-.0016.0102-.0021.0153-.0015.0096 0 .019-.0096.0286-.0096.0013.0001.0025-.0002.0037-.0006.0011-.0005.0022-.0012.0031-.0021.0009-.0008.0016-.0019.002-.0031.0005-.0011.0007-.0024.0007-.0036.0214-.0113.0436-.0209.0666-.0286.038-.0191.0761-.0286.1236-.0477.0381-.0095.0666-.019.1046-.0286.0381-.0063.0762-.0126.1142-.019.0247-.0073.0504-.0105.0762-.0095h.0094c.019 0 .0381-.0096.0571-.0096.0165.0025.0333-.0008.0475-.0095-.2896-.1871-.6125-.3165-.9511-.3812-2.5967-.4956-6.5061 2.9256-6.5536 6.1754-.2101-.5676-.3444-1.1604-.3995-1.7631.0036-.0037.0063-.0083.0079-.0132.0017-.0049.0022-.0102.0016-.0154.3812-.7295.8614-1.403 1.4267-2.0012.0571-.0668.1237-.1239.1808-.181.0571-.0572.1237-.1144.1807-.1716.0295-.0309.0613-.0596.0951-.0858.0952-.0858.1808-.162.2759-.2382.1331-.1144.2758-.2192.3995-.3145.0856-.0667.1806-.1239.2662-.1906.0477-.0286.0857-.0572.1333-.0858l.3138-.2001c.0762-.0477.1523-.0858.2188-.1335.0222-.0182.0482-.0312.076-.038.089-.0532.1812-.101.2759-.143.0666-.0381.1332-.0667.1903-.0953l.057-.0286c-.1267-.0096-.2539-.0096-.3805 0-.1331.0095-.2568.0286-.371.0476-.09.0167-.179.0389-.2662.0667-.019.0096-.0381.0096-.0571.0191l-.0856.0286c-.026.0079-.0514.0175-.0761.0286.057-.0381.1141-.0858.1807-.1239.0666-.0382.1331-.0858.2093-.1239.1257-.0774.2559-.1474.3899-.2096.0571-.0287.1047-.0477.1617-.0763s.1142-.0476.1713-.0762c.038-.019.076-.0286.1235-.0477.3377-.1319.6885-.2278 1.0464-.2859-.0571-.1048-.1047-.2192-.1618-.343-.011-.0248-.0205-.0502-.0284-.0762-.0571-.1335-.1047-.286-.1618-.4384-.0097-.0245-.016-.0501-.019-.0763-.0094-.0286-.019-.06668-.0285-.09526-.0095-.04766-.0286-.0953-.038-.143v-.00947c-.0093-.05161-.0221-.10255-.0381-.15249-.0714-.33533-.1096-.67687-.1141-1.01968.0384.2249.1089.44312.2093.648.2151.41931.5407.7719.9416 1.0197.7241.4239 1.5155.7205 2.3399.8767 1.0638.3227 2.0267.9134 2.7965 1.7155.0541-.0653.1019-.1355.1427-.2098.0136-.0267.0295-.0522.0475-.0762.0798-.1518.1435-.3115.1902-.4765.6752.9339.8083 1.8965.3993 2.392z" fill="#ff6d24"/><path d="m21.3534 12.9039c-.7724-.7987-1.7344-1.3888-2.7965-1.7153-.8243-.1564-1.6157-.4529-2.3398-.8768-.4031-.2451-.7293-.59841-.9417-1.0197-.0991-.2054-.1695-.42344-.2092-.648v-.36216c.0012-.07658.0075-.15299.019-.22872.019.02859.0285.05717.0475.08576s.0381.0667.0571.09532l.0571.08576c.0665.10483.1427.20967.2187.324.0192.03084.0415.05959.0667.08578.0285.03813.0571.06671.0855.10484.0309.03299.0595.068.0856.10479l.0095.00955c.0293.03704.0611.07206.0952.10483.0299.03955.0651.07482.1046.10483.0571.04763.1046.10483.1617.162.0558.05585.1162.10686.1807.15246.038.03813.0856.06672.1236.10483.0421.03487.0866.06672.1332.0953.0856.05721.1618.11438.2378.162.0381.019.0761.04762.1142.0667s.0761.04764.1141.06671l.1142.05722c.0985.0535.2001.1013.3043.143.0012-.0001.0025.0002.0037.0006.0011.0005.0022.0012.0031.0021s.0016.0019.002.0031c.0005.0012.0008.0024.0007.0037.0381.0095.0666.0285.1047.0381.0665.0286.1332.0477.1902.0762.0286.0096.0571.019.0951.0286l.1712.0572c.0571.0191.1046.0381.1522.0572.0358.01.0708.0227.1046.0381.0286.0095.0667.0286.1046.0381.1105.0414.2185.0891.3235.143l.1141.0572.1141.0571c.0571.0286.1142.0668.1808.0954l.0856.0572c.0571.038.1236.0762.1807.1143.0285.0191.0666.0381.0951.0571.0656.0413.1291.0858.1902.1334.2927.2111.5693.4437.8276.6958.038.0381.0761.0666.1141.1048l.0856.0858c.1617.162.3235.3335.4851.5241.0286.0381.0666.0762.0952.1144.0516.044.0964.0954.1331.1524z" fill="#fdeaa7"/><path d="m23.2138 26.6231c-1.2592-.1384-2.4582-.6123-3.4718-1.3723-.0296-.017-.0554-.0397-.0761-.0668-.019-.0095-.038-.0285-.057-.038.0285.0285.0475.0572.076.0858.0212.0236.0404.0491.057.0762.0285.0286.0476.0572.0762.0858.038.038.076.0857.1141.1238.0951.1048.1997.2096.3044.3145.0356.0375.0738.0725.1142.1049.0372.0324.0721.0675.1045.1048.0381.038.0857.0762.1236.1143.0202.0214.0425.0406.0667.0572.0201.0214.0424.0406.0666.0572l.0285.0286c.0012 0 .0025.0002.0036.0007.0012.0004.0022.0011.0031.002s.0016.002.0021.0031c.0004.0012.0007.0024.0006.0037.0286.0191.0477.0381.0762.0572l.0095.0095.0095.0095.0096.0096c.0094.0095.0285.019.038.0286h.0095c.0095 0 .0095.0095.019.0095s.0095.0096.019.0096c.076.0571.1616.1238.2473.181.0308.0192.0595.0415.0856.0666.0095 0 .0095.0096.019.0096.0012 0 .0025.0002.0037.0007.0011.0004.0022.0011.0031.002.0008.0009.0015.0019.002.0031s.0007.0024.0007.0037c.0095.0095.019.0095.0286.0191.0285.019.0475.0381.076.0572l.0095.0094c.019.0192.0476.0286.0666.0478.0095.0094.0285.019.038.0286.0096.0096.019.0094.0285.019h-.0094c.0012-.0001.0025.0002.0036.0006.0012.0005.0023.0012.0032.0021.0008.0009.0015.002.002.0031.0005.0012.0007.0025.0006.0037h-.057c-.0195.0015-.0391-.0017-.057-.0095-.0227.0009-.0453-.0024-.0667-.0096-.1141-.0095-.2663-.0286-.4375-.0572-.0674-.008-.1341-.0208-.1997-.0381-.0667-.0095-.1332-.0285-.2093-.0381-.0286-.0095-.0571-.0095-.0856-.019-.052-.0071-.103-.0199-.1522-.0382-.0475-.0095-.1046-.0286-.1522-.038-.0589-.0204-.1194-.0363-.1807-.0477-.0096 0-.0096 0-.019-.0095-.0571-.0191-.1047-.0286-.1522-.0477-.0218-.0076-.044-.0139-.0665-.019-.019-.0096-.0286-.0096-.0477-.019-.0202-.012-.0431-.0185-.0665-.019l-.1427-.0572c-.0247-.0112-.0501-.0207-.076-.0286-.0096-.0096-.0286-.0096-.0381-.0191-.0095 0-.0095-.0095-.019-.0095-.019-.0096-.0285-.0096-.0475-.0191l-.0476-.019c-.0174-.0106-.0369-.0171-.057-.019-.0073-.001-.014-.0044-.0192-.0096-.0326-.014-.0643-.0299-.095-.0476-.0326-.014-.0644-.0299-.0952-.0477-.0285-.0095-.057-.0285-.0856-.0381-1.194-.2382-2.3053-.7835-3.2243-1.5821-.7123-.653-1.2883-1.4406-1.6948-2.3173-.4064-.8766-.6354-1.8251-.6736-2.7907-.0547.3024-.0897.608-.1048.9148.0015.0135-.0019.027-.0094.0382-.3816 2.4495.2051 4.9514 1.636 6.9758-1.0102-.4473-1.9121-1.1072-2.6442-1.9346-.8814-1.0011-1.4906-2.212-1.7692-3.5164-.2961.5009-.51424 1.044-.64681 1.6105-.09917.4347-.15021.8789-.15221 1.3247-.64858-.9454-1.17286-1.9704-1.55993-3.0496-.3637-1.0245-.59699-2.0907-.69437-3.1734 0 .0095-.0095.0191-.0095.0286-.00953.0095-.00953.0286-.019.0381-.01074.0263-.02345.0518-.038.0762-.02854.0668-.0666.143-.09514.2288-.01187.0366-.02782.0718-.04756.1048-.01056.0174-.01705.0369-.019.0572-.019.0381-.02854.0762-.04757.1238-.04757.1144-.0856.2288-.13316.3622-.01905.0381-.02854.0858-.04757.1334-.00951.0382-.02854.0762-.038.1048-.00953.0191-.00953.0382-.019.0572-.019.0476-.02854.0953-.04757.1334-.00949.0191-.00949.0286-.019.0476-.02853.0763-.04757.1621-.0761.2383-.07609.2478-.1522.5146-.21876.8005-.019.0953-.04757.2001-.0666.2955-.019.0762-.02854.1429-.04753.2192-.01733.0753-.03004.1517-.03808.2286-.038.2192-.07609.448-.0951.6862-.06177.5281-.08719 1.0599-.07609 1.5915v.1144c.00751.5396.05516 1.0779.14254 1.6105 1.90326 1.8657 4.30421 3.143 6.91511 3.6785.9354.1933 1.8888.286 2.844.2764h.2092c2.5274-.0439 4.9945-.7789 7.1338-2.1252.0285-.019.0666-.0382.0951-.0572.5606-.3616 1.0946-.7629 1.598-1.2007-.612.1338-1.2418.166-1.8643.0953zm-9.9873-4.7745v.0477c.0047-.007.0072-.0153.0072-.0238s-.0025-.0168-.0072-.0239z" fill="#ff5f27" opacity=".67"/><path d="m15.7918 1.99976c-1.3181.49035-2.5605 1.16406-3.6905 2.00124-1.1085.83298-2.0975 1.81419-2.93917 2.91617.20927-.02858.38046-.04766.50413-.0667.55164-.06671.78944-.08579.96064-.0953h.3329c.1046 0 .1998 0 .3044.00951-.3424.24779-.6087.4765-.7989.6385-.74546.66129-1.40102 1.41741-1.94997 2.24906-.019.03813-.04757.07625-.06657.11434-.0761.13343-.1522.26682-.2188.40982-.21969.4311-.40111.8808-.54217 1.3437-.02852.0953-.05706.2001-.0856.3145-.0095.0381-.019.0666-.02853.1048-.1969.8006-.27067 1.6264-.21877 2.4492.03234.5617.12807 1.118.28537 1.6582-1.6403 2.4263-2.63545 5.2305-2.89157 8.148v.0286l-.11417-.2002c-.41152-.5739-.77725-1.1793-1.09383-1.8106-.94939-1.8781-1.46-3.9473-1.49333-6.0514v-.2955c.00268-.5318.03442-1.0631.0951-1.5915 0-.0191.00953-.0381.00953-.0571.01849-.1952.04706-.3892.08559-.5814.27092-1.605.82144-3.1501 1.62651-4.56479.04757-.07622.08559-.14292.11413-.19059.01944-.02645.03543-.05526.04757-.08575.05707-.09533.11413-.19062.18073-.28592.02854-.03812.05707-.08575.0856-.12388-.00953.01905-.02853.03813-.03807.05717.019-.019.02854-.04762.04757-.0667.02854-.03813.04757-.06671.0761-.10483.02617-.03682.05477-.07184.0856-.10484l.0095-.00951c.00953-.01908.02857-.03812.03807-.0572.038-.03809.06656-.08575.10463-.12388.1712-.23825.37094-.51459.58974-.791.15216-.19058.30436-.39071.47556-.59084 1.27816-1.41429 2.83379-2.55029 4.57008-3.33726 1.7362-.78698 3.6159-1.20807 5.5219-1.23707 0-.01905.0095-.01905.019-.01905z" fill="#fff"/><path d="m11.6827 3.52499c-.2077.11877-.4022.25935-.5801.41933-.1179.10073-.2291.20895-.333.324-.3272.34828-.6231.72455-.88456 1.12451-.1427.22871-.2378.4098-.26633.44792-.185.34625-.33478.71021-.44707 1.08638.36509-.06653.73336-.11423 1.10336-.14292.3323-.02488.6657-.03124.9988-.01905-.1808.13342-.4185.31451-.7039.56226-.79589.66121-1.48 1.44637-2.02602 2.32527-.37048.61301-.66436 1.26911-.87507 1.95361-.28481.4381-.52386.9044-.7134 1.3914-.0856.2287-.15217.4765-.15217.4765-.05707.2192-.10463.4288-.1427.6194-.03269-.1255-.05808-.2528-.07607-.3812-.01166-.0435-.01803-.0883-.019-.1334l-.02853-.2287c0-.0286-.0095-.0667-.0095-.0953.00153-.0227-.00172-.0454-.00954-.0668v-.0476c-.00814-.0632-.01132-.1269-.0095-.1906 0-.0666-.00953-.1334-.00953-.2v-.2764c-.00157-.0447.00162-.0894.00953-.1334v-.0572c-.00156-.0384.00163-.0768.0095-.1144v-.019c.00163-.0576.00798-.115.019-.1715.0095-.0668.019-.143.02853-.2098.0095-.0476.0095-.0952.019-.1334 0-.019.00951-.038.00951-.0571l.02853-.1715c.00812-.0581.02083-.1155.038-.1716.07101-.3046.16319-.604.27587-.8958.0856-.2097.1712-.39071.2473-.54321-.03807.03813-.0666.07625-.10463.11438-.0856.09533-.18073.20963-.28537.33353-.038.0477-.0856.1048-.12364.1524-.01919.0309-.0415.0597-.0666.0859-.06657.0857-.13316.181-.19973.2763l-.05706.0858c-.019.0286-.04757.0667-.0666.0953-.019.0381-.04754.0667-.06658.1048-.11413.1716-.21876.3622-.33289.5622l-.05711.1144c-.019.0382-.04753.0858-.06656.1334l-.05707.1144c-.02853.0476-.04756.1048-.0761.1524-.019.0382-.038.0858-.05707.124-.019.0476-.038.0953-.05706.1334l-.05707.143-.05706.143c-.019.0571-.04757.1144-.0666.1715-.019.0381-.02854.0857-.04757.1239-.019.0476-.038.1048-.05707.1524-.02014.0494-.03604.1005-.04753.1526-.019.0476-.02857.1048-.04757.162-.37015 1.2844-.45456 2.6343-.2473 3.9548-.12075-.1317-.23201-.2719-.33294-.4193-.52401-.8583-.71994-1.8771-.55166-2.8685-.31685.6807-.52239 1.4079-.60877 2.1538-.10527.9972.00835 2.0055.33293 2.9543l-.05706-.0572c-.0571-.0572-.12367-.124-.18074-.1906-.02853-.0286-.04756-.0572-.07609-.0858-.04719-.0516-.09164-.1057-.13317-.162-.038-.0477-.08561-.1048-.12364-.1524-.019-.0287-.03806-.0478-.0571-.0764-.02438-.0301-.04662-.062-.06657-.0952v-.0096c0-.0095-.00949-.0095-.019-.019-.01172-.0109-.02139-.0238-.02853-.0381-.038-.0572-.0856-.1334-.14267-.2192-.00926-.0211-.02212-.0405-.038-.0572-.00953-.0096-.00953-.019-.019-.0381l-.05708-.0857c0-.0096-.00952-.0096-.00952-.0192l-.00951-.0094c-.00949-.0096 0-.0096-.00949-.0096-.00954-.0286-.02854-.0476-.03808-.0762-.01773-.0308-.03361-.0627-.04756-.0954-.02853-.0666-.06657-.1334-.0951-.2-.0095-.0286-.02853-.0572-.038-.0858-.019-.0572-.04757-.1144-.0666-.1716s-.04757-.1144-.06657-.1715c-.12367-.343-.2283-.6862-.29486-.9434v-.2954c.00268-.5319.03442-1.0632.0951-1.5916 0-.0191.00953-.0381.00953-.0571.01849-.1952.04706-.3892.08559-.5814.27089-1.6051.82139-3.1501 1.62645-4.56489.04757-.07625.0856-.143.11413-.19062.01945-.02644.03543-.05525.04757-.08575.05707-.0953.11413-.1906.18073-.28588.02854-.03813.05708-.08579.0856-.12391-.00953.01907-.02852.03812-.03806.05719.019-.01907.02853-.04766.04757-.0667.02853-.03813.04756-.06671.0761-.10484.02616-.03681.05476-.07184.0856-.10483l.0095-.00954c.00953-.01905.02856-.03812.03806-.05716.038-.03813.06657-.0858.10463-.12389.17121-.23825.371-.51463.58974-.791-.12367.23825-.1427.29542-.13316.305.00949 0 .02852-.019.0856-.08576l.1712-.17153c.04674-.04206.09119-.0866.13316-.13343.03563-.03748.07377-.07251.11414-.10483.04338-.03572.08467-.07391.12366-.11437.04757-.03809.13317-.12387.22827-.20013 0 0 .1522-.12387.33293-.26683 1.28739-1.02334 2.71223-1.86064 4.23274-2.48731.2663-.0953.6754-.23826 1.1889-.3717z" fill="#d0cff9"/><path d="m8.29963 7.72746c.05706.00951.12366.00951.18073.01905-.18968.1048-.37382.21931-.5517.34308-.07606.05717-.1617.11435-.24729.17155s-.1617.12388-.24731.19058c-.00126-.00002-.00251.00021-.00367.00068-.00117.00047-.00223.00117-.00311.00207-.00089.00089-.00159.00195-.00205.00312-.00047.00117-.00069.00242-.00066.00367-.05622.04159-.11019.08613-.1617.13342-.20927.17151-.39951.35259-.57071.52414l-.0761.07624-.0856.08576c-.02853.02858-.05706.06671-.0856.09529-.20976.22706-.40665.46568-.58973.71479.04441-.25841.1178-.51095.21876-.75289.08438-.19802.1896-.38649.31387-.56225.00953-.019.02853-.03813.03807-.05717-.3234.24775-.65631.53367-1.00824.84814-.37733.34277-.73611.70537-1.07483 1.08637-.1522.1811-.30437.3622-.43754.5337-.10464.1334-.19976.2668-.29486.4002-.06568.0852-.12604.1744-.18074.267 0 0-.0856.1238-.1712.2668-.3139.486-.58024 1.0006-.58024 1.0006-.1712.324-.34239.6861-.51363 1.1055.01853-.1952.0471-.3892.0856-.5814.27092-1.605.82145-3.1501 1.62654-4.56481.04753-.07625.08559-.143.11413-.19059.01942-.02647.03541-.05529.04757-.08579.05707-.09529.11413-.19058.18069-.28588.02854-.03812.05708-.08579.08561-.12388-.0095.01905-.02853.03809-.038.05717.019-.01908.02854-.04766.04757-.0667.02854-.03813.04753-.06672.0761-.10483.02616-.03681.05476-.07184.0856-.10484l.0095-.00954c.00951-.01905.02854-.03809.038-.05717.03807-.03813.0666-.08575.10464-.12388.17123-.23825.371-.51462.58973-.791-.12363.23822-.14267.29543-.13316.30493.00953 0 .02853-.01905.08559-.08575l.17124-.17154c.04673-.04205.09118-.08658.13316-.13339.03561-.0375.07374-.07253.11413-.10484.04338-.0357.08466-.07387.12364-.11434.07127-.07203.14756-.1389.2283-.20013.0761-.0667.14267-.12391.21876-.18107l.0095-.00955c.03807-.02858.0666-.05717.10463-.08575.04757-.03812.10464-.07625.14267-.11437.04209-.03486.08659-.0667.13317-.09529.02704-.01672.05251-.03585.0761-.05717.019-.00955.02853-.01905.04757-.02859.0095-.00954.02853-.01908.038-.02858.02454-.01717.04994-.03308.0761-.04766.00954-.00955.02853-.01905.03806-.02859.00451-.0058.01027-.01053.01684-.01383.00658-.00329.01381-.00508.02116-.00522.02854-.01908.06657-.03812.09514-.0572.038-.01905.06656-.04763.10459-.06671l.05711-.02858c.01045-.01004.0237-.01668.038-.01905.00126.00003.00251-.0002.00367-.00067.00117-.00047.00223-.00118.00312-.00207.00088-.00089.00158-.00195.00205-.00312s.00069-.00242.00066-.00368h.00953l.0095-.00954c.00951 0 .00951-.00951.019-.00951.05708-.03811.11414-.0667.1807-.10483.11001-.06795.22445-.12844.34256-.18106.05708-.02858.10464-.05716.1617-.08575.01301-.01193.02992-.01872.04757-.01909.038-.019.08561-.03811.12364-.05716.0666-.03812.1427-.06671.20927-.10484.02853-.00953.03806-.019.15219-.0667.21878-.0953.23781-.10484.23781-.10484.0095.01908-.409.28592-.58973.43838l-.11417.09529c-.04037.03233-.0785.06735-.11413.10484-.04038.03232-.07852.06734-.11415.10483-.07609.06671-.15219.143-.23779.21917l-.0856.08579-.0856.08576-.0856.08579c-.1427.15245-.28537.305-.41854.47646-.019.01908-.02853.03812-.04753.05721s-.02857.03812-.04757.05717l-.08559.11436c-.019.01905-.03807.04764-.05711.06672-.02867.04353-.06046.08494-.0951.12388-.05706.07624-.10463.162-.1617.23824-.02853.03813-.04757.07622-.06657.10484-.03832.05499-.07326.11226-.10462.17149-.019.03812-.04757.07625-.0666.11437-.02854.04766-.05708.10484-.08561.15246l.11414-.02858c.05706-.00951.12366-.02859.18073-.03813.44773-.0913.90324-.13918 1.36017-.14296h.21876c.05093-.00187.10191.00131.15221.0095.04757 0 .0951.00955.14267.00955.01644-.01844.03724-.03247.06051-.04079.02326-.00831.04825-.01065.07265-.00681z" fill="#8774e2"/><path d="m25.095 26.557c-.5033.4379-1.0374.8392-1.598 1.2008-.0304.0212-.0622.0403-.0951.0572-.7719.4875-1.5908.8962-2.4445 1.2198-1.5025.57-3.0921.8762-4.6988.9054h-.2093c-.9547.0001-1.9071-.0925-2.844-.2764-2.6108-.5355-5.01181-1.8127-6.91504-3.6785-.0827-.5332-.13036-1.0712-.14267-1.6106v-.1144c-.01088-.5316.01455-1.0633.0761-1.5914.02853-.2383.05706-.467.0951-.6862.0095-.0762.02853-.1525.03807-.2287.019-.0762.02853-.1429.04753-.2192.01663-.0996.03886-.1983.0666-.2954.06656-.2859.14267-.5527.21876-.8005.02854-.0858.04757-.162.07611-.2382.0095-.019.0095-.0286.019-.0477.019-.0477.02854-.0953.04757-.1335.0095-.019.0095-.038.019-.0571.00951-.0381.02854-.0763.038-.1049.019-.0476.02854-.0857.04757-.1334.04757-.1334.09513-.2478.14267-.362.019-.0382.02852-.0858.04756-.124.01053-.0174.01702-.0369.019-.0572.01403-.0357.0299-.0707.04753-.1048.03806-.0858.0666-.162.09514-.2287.00678-.028.01977-.054.038-.0762.00953-.0096.00953-.0286.019-.0381 0-.0096.0095-.0191.0095-.0286 0 .019-.0095.0476-.0095.0667-.00951.0667-.019.1239-.02854.1905v.0286c-.019.124-.02852.2383-.038.3432v.0094c-.02853.305-.05707.5719-.05707.772v.4479c-.00158.0573.0016.1147.0095.1715 0 .0667.00951.1239.00951.1715v.2384c0 .0285.00953.0476.00953.0666v.0382c.00788.0408.01107.0823.0095.1238.019.1525.038.2954.06656.448l.02854.1429.02856.143.02854.143c.05707.2382.11413.4765.19023.7051.0095.0382.02854.0858.038.124.08737.2689.18897.5329.30437.791.019.0476.03806.0858.05707.1334.0666.1524.14269.2954.2188.4384.02915.0634.06417.124.1046.181l.02854.0572c.08563.143.17123.2859.26633.4193.04757.0762.10463.1525.1617.2287.04757.0667.09513.1239.1427.1906.04757.0668.0951.1239.14267.181.019.019.038.0477.05706.0668.03567.0464.07377.091.11413.1334l.019.019c.04756.0572.09509.1048.14266.162l.02854.0286c.04181.05.08626.0977.13316.143.0856.0858.1617.1714.25684.2572.04514.047.09277.0916.14267.1335l.00949.0095c.05711.0572.12371.1144.19021.1716.0666.0572.1332.1143.1903.162.0761.0667.1521.1239.2377.1906.0476.0381.1047.0762.1617.1143.0096.0095.0286.019.0381.0286.0475.0381.1046.0762.1522.1144.0095.0095.019.0095.0285.019.0952.0667.1998.1334.2949.1906.0475.0286.0951.0572.1331.0858.0476.0286.1047.0666.1617.0952.0013 0 .0026.0002.0037.0007.0012.0005.0023.0012.0032.0021.0008.0009.0016.0019.002.0031.0005.0012.0007.0024.0007.0037-.1713-.2954-.3329-.6004-.4756-.9148-.019-.0478-.0381-.0859-.0571-.1335l-.1142-.2859c-.038-.0953-.0665-.1906-.1045-.2859-.019-.0667-.0476-.1334-.0667-.1906l-.057-.2002c-.0095-.0286-.0095-.0476-.019-.0762-.0095-.038-.019-.0762-.0286-.1238s-.0285-.1048-.038-.1526c-.0285-.1048-.0476-.2-.0666-.305-.0095-.0476-.019-.1048-.0285-.1524-.0095-.0572-.019-.1144-.0286-.181 0-.0191-.0094-.0476-.0094-.0668l-.0285-.1715c-.0111-.063-.0175-.1267-.019-.1906v-.019c-.0096-.0667-.0096-.1334-.019-.2001-.0096-.1144-.019-.2383-.019-.3622.002-.0352-.0012-.0705-.0096-.1047v-.1812c.0381.1334.0857.324.1713.5718.0189.0382.0285.0763.0475.1239.0381.0858.0666.1715.1046.2669l.0285.0571c.0087.0303.0215.0591.0381.0858l.0571.1143.0571.1144c.0856.1715.1807.3526.2948.5433l.0856.1428c.01.0106.0166.0239.019.0382l.0571.0858.0095.0094c.0285.0467.0603.0913.0951.1335.019.0286.0381.0477.0571.0763.019.019.0285.0476.0476.0666.0288.0404.0606.0787.095.1144.0096.0096.0096.019.019.019.019.0286.0476.0572.0666.0858.038.0381.0666.0858.1047.1239.057.0667.1237.143.1902.2096.0418.05.0863.0978.1331.143l.1427.143c.0452.047.0928.0916.1427.1335.0476.0476.1046.0856.1522.1334.0476.0381.1046.0857.1522.1238.0095.0096.0095.0096.019.0096.0476.0381.1047.0858.1617.1238.0468.0403.0978.0755.1522.1049.0381.0285.0856.0571.1331.0858.0096.0095.019.0095.0285.019.0381.0286.0762.0476.1142.0762.1142.0762.2283.143.3329.2002.1142.0666.2188.1238.3329.181l.1141.0572c.033.0197.0682.0357.1047.0476.0666.0286.1237.0572.1807.0763l.1427.0571.1427.0572h.0095c.046.0201.0938.0361.1426.0477.0363.0084.0714.0212.1047.0381.0191.0095.038.0095.057.019.0952.0286.1808.0571.2664.0763l.1142.0286c.1427.038.2853.0666.4185.0952.0403.011.0818.0175.1236.0191.0381.0095.0856.0095.1237.019.0475.0095.0856.0095.1331.019.0571.0096.1142.0096.1617.019.2019.0258.4052.0386.6088.0382h.0951c.1617 0 .3044 0 .4375-.0096h.1141c.0227.0015.0454-.0017.0667-.0094.0571 0 .1046-.0096.1427-.0096h.0285c-.0476-.0286-.1046-.0572-.1617-.0953l-.0095-.0095c-.0171-.0074-.0331-.017-.0476-.0286-.0211-.0094-.0404-.0223-.057-.0382-.1142-.0762-.2379-.1524-.371-.2572-.0199-.019-.0423-.0351-.0666-.0477-.1617-.1144-.3329-.2478-.5137-.4003-.0235-.0213-.049-.0404-.0761-.0571-.019-.019-.0475-.0381-.0761-.0667-.019-.0191-.0475-.0382-.076-.0667-.4345-.3777-.8355-.7922-1.1985-1.239-.2288-.2777-.4386-.5706-.6278-.8767-.038-.0667-.0761-.1238-.1141-.1906-.0381-.0668-.076-.1238-.1141-.1906l-.1142-.2001c-.0285-.0571-.057-.1143-.0952-.1811-.0285-.0572-.057-.1144-.0856-.181-.0189-.0286-.0285-.0667-.0475-.0953-.019-.0382-.0381-.0858-.0571-.1334-.0189-.0382-.038-.0858-.057-.1239-.019-.0477-.0381-.0953-.0571-.1334-.0168-.0333-.0296-.0685-.0381-.1049-.019-.0571-.0475-.1143-.0665-.1715-.019-.0667-.0475-.1239-.0666-.1906-.038-.1049-.0666-.2097-.0951-.3145-.019-.0667-.0381-.143-.0571-.2192-.0161-.0499-.0288-.1008-.038-.1524-.0286-.0954-.0477-.1906-.0667-.2859-.0369-.1541-.0654-.31-.0856-.467-.0094-.0572-.019-.1143-.0285-.181.0014-.0135-.0019-.027-.0095-.0382 0-.019-.0095-.0476-.0095-.0667v-.0571c-.0083-.0408-.0115-.0824-.0096-.124.0015-.0226-.0017-.0453-.0094-.0666.0025-.0165-.0009-.0334-.0096-.0477.0015-.0195-.0018-.0392-.0095-.0572v-.0381c-.0078-.0632-.011-.1269-.0094-.1906-.019-.305-.019-.6004-.0096-.8672-.0014-.0134.002-.027.0096-.0381.0102-.3073.0452-.6132.1046-.9149.0866 1.948.9376 3.7833 2.3684 5.108.9191.7986 2.0304 1.3438 3.2244 1.582.0286.0095.0571.0286.0857.0381.0285.019.0666.0285.0951.0477.0285.0191.0665.0286.0951.0476.0072.001.0139.0044.019.0095.0173.0106.0369.0171.0571.019.019.0096.0286.0096.0476.019.019.0095.0285.0096.0475.0192.0095 0 .0095.0094.019.0094.0095.0096.0285.0096.0381.019.0247.0112.0501.0207.076.0286l.1427.0573c.0218.0076.0441.0139.0666.019.019.0095.0285.0095.0476.019.0218.0076.044.014.0665.019.0476.0191.1046.0286.1522.0477.0095 0 .0095 0 .019.0095.059.0203.1194.0363.1807.0477.0476.0095.0951.0285.1522.0381.0475.0095.1046.0286.1521.0381.0286.0095.0571.0095.0857.019.069.0165.1389.0292.2093.0382.076.0094.1426.0286.1998.038.1711.0286.3233.0382.4375.0572.0226-.0015.0453.0018.0665.0096.0195-.0015.0391.0017.057.0095h.0571c-.0012 0-.0025-.0002-.0036-.0007-.0012-.0005-.0022-.0012-.0031-.0021-.0009-.0008-.0016-.0019-.0021-.0031-.0004-.0011-.0007-.0024-.0006-.0036h.0094c-.0094-.0096-.019-.0096-.0285-.0191-.0094-.0096-.0286-.019-.038-.0286-.0244-.0126-.0468-.0287-.0666-.0477l-.0095-.0094c-.0285-.0191-.0476-.0382-.076-.0572-.0096-.0096-.019-.0096-.0286-.0191-.0095 0-.0095-.0095-.019-.0095l-.0095-.0096c-.0308-.0191-.0595-.0415-.0856-.0666-.0856-.0572-.1618-.124-.2473-.1811-.0095 0-.0096-.0096-.019-.0096-.0095-.0095-.0095-.0095-.019-.0095-.0095-.0095-.0285-.0191-.0381-.0286l-.0095-.0095-.0095-.0095-.0095-.0096c-.0286-.019-.0476-.038-.0761-.0572l-.0095-.0095-.0286-.0286c-.0201-.0213-.0424-.0405-.0666-.0571-.02-.0214-.0423-.0406-.0665-.0572-.0434-.0357-.0846-.0739-.1237-.1144-.038-.0381-.0761-.0667-.1142-.1048-.0356-.0375-.0737-.0725-.1141-.1049-.114-.1048-.2092-.2096-.3044-.3144-.038-.0382-.076-.0858-.1141-.1239-.0279-.0262-.0534-.0549-.0761-.0857-.0194-.0277-.0417-.0533-.0665-.0764-.0286-.0286-.0477-.0571-.0762-.0856.0177.0102.0337.023.0476.038.0308.0192.0595.0416.0857.0668 1.0135.76 2.2125 1.2339 3.4717 1.3723.6147.0703 1.2363.0511 1.8455-.057z" fill="#e93c5a"/><path d="m23.4949 27.7474c-.0305.0211-.0623.0402-.0952.0571-.7719.4876-1.5908.8962-2.4444 1.2198-.5687-.1504-1.1042-.4057-1.579-.7528-.3519-.2605-.6628-.5721-.9226-.9245 1.0588.4797 2.2152.7049 3.3767.6576.5107-.0226 1.0177-.0993 1.5123-.2287.0521.0006.1038-.0091.1522-.0285z" fill="#f44d71"/><path d="m16.2573 29.9456h-.2093c-.9547.0001-1.9072-.0925-2.8441-.2764-.2572-.2649-.4779-.5629-.6562-.8862-.21-.3836-.3668-.794-.4662-1.2199 1.0825 1.2435 2.5545 2.0834 4.1758 2.3825z" fill="#f44d71"/><path d="m29.5577 15.516c-.0102-.0406-.0166-.0821-.019-.1239v-.019c-.0189-.0954-.038-.1906-.0571-.2955-.0081-.0518-.0208-.1029-.038-.1525-.0114-.0646-.0273-.1282-.0476-.1906-.038-.1524-.076-.2954-.1141-.4478-.019-.0572-.0285-.1144-.0475-.1621-.0096-.0381-.0286-.0857-.0381-.1239-.0095-.0381-.0285-.0762-.0381-.1143 0-.0095-.0094-.019-.0094-.0286l-.0286-.0858c0-.0095-.0095-.019-.0095-.0285-.0095-.0382-.0286-.0763-.038-.1144-.0181-.0587-.0403-.116-.0666-.1715-.0186-.0435-.0345-.0881-.0476-.1335-.0285-.0762-.057-.143-.0856-.2191-.0182-.0525-.0404-.1035-.0666-.1525-.0571-.1335-.1236-.2669-.1807-.4003-.0381-.0858-.0856-.1716-.1237-.2478-.0856-.162-.1712-.324-.2663-.4765-.0666-.1143-.1332-.2287-.1997-.3335-.0476-.0762-.0856-.143-.1332-.2096-.0475-.0666-.0855-.1335-.1332-.2002l-.1998-.2859c-.0855-.1238-.1806-.2382-.2662-.3431-.0476-.0571-.0856-.1048-.1332-.1524-.076-.0763-.1522-.1525-.2378-.2287-.2663-.2383-.4756-.42889-.5992-.53372.0368-.83102-.0303-1.66339-.1998-2.47779-.0475-.20967-.0951-.4193-.1522-.60993-.0095-.02858-.019-.0667-.0285-.09528s-.019-.05717-.0285-.0953c.6373.6461 1.2077 1.35492 1.7026 2.11565.3599.57676.6901 1.17155.9892 1.78207.422.9124.744 1.8677.9607 2.8494.0359.8352.0296 1.6718-.0191 2.5064z" fill="#8774e2"/><path d="m29.8805 16.0191c.0004 1.9983-.4282 3.9734-1.2569 5.7917-.8286 1.8184-2.0381 3.4376-3.5464 4.7483-.5034.4378-1.0375.8391-1.5981 1.2008-.0304.0212-.0621.0403-.0951.0571-.019-.0094-.038-.0094-.0475-.019h-.0096c-.038-.0095-.076-.0285-.1046-.0381-.0095 0-.0095-.0095-.019-.0095-.0326-.0102-.0644-.023-.095-.0381-.0073-.001-.0139-.0044-.019-.0096-.0096 0-.019-.0095-.0286-.0095-.0038-.0036-.0083-.0063-.0132-.008-.0049-.0016-.0102-.0022-.0153-.0015-.0095 0-.0095-.0096-.019-.0096-.0072-.001-.0139-.0043-.019-.0095-.0214-.0112-.0437-.0208-.0666-.0286-.0174-.0105-.0369-.017-.0571-.019-.038-.0191-.076-.0381-.1237-.0572-.0476-.0192-.0856-.0381-.1331-.0571-.0286-.0096-.0475-.0286-.0761-.0382l-.076-.0381c-.0286-.019-.0667-.0286-.0952-.0477-.0431-.0184-.0845-.0407-.1236-.0666-.04-.0187-.0782-.041-.1141-.0668-.0038-.0036-.0083-.0063-.0132-.008-.005-.0017-.0102-.0022-.0154-.0015-.0072-.001-.0139-.0044-.019-.0095l-.057-.0286c-.0211-.0093-.0404-.0222-.0571-.0382-.0096 0-.0096-.0094-.019-.0094-.0096-.0096-.019-.0096-.0286-.0191-.019-.0095-.0285-.019-.0475-.0286-.0211-.0093-.0404-.0222-.0571-.0381-.0095-.0096-.019-.0096-.0381-.0191-.0264-.0195-.0551-.0355-.0856-.0477-.0475-.0285-.095-.0571-.1331-.0857h-.0095c-.0095-.0095-.0191-.0095-.0286-.019-.0094-.0096-.0285-.019-.038-.0286-.0244-.0127-.0468-.0287-.0666-.0477l-.0095-.0095c-.0286-.019-.0476-.0382-.0761-.0572-.0095-.0095-.019-.0095-.0285-.019-.0095 0-.0095-.0096-.019-.0096l-.0095-.0094c-.0308-.0193-.0595-.0417-.0856-.0668-.0856-.0572-.1618-.1238-.2474-.181-.0094 0-.0094-.0096-.019-.0096-.0094-.0095-.0094-.0095-.019-.0095-.0094-.0095-.0285-.019-.038-.0286l-.0095-.0095-.0095-.0095h-.0096l-.0094-.0095c-.0286-.0191-.0476-.0382-.0761-.0573l-.0095-.0095-.0286-.0286c-.0444-.0381-.0888-.0762-.1331-.1143-.0434-.0357-.0847-.0739-.1237-.1144-.038-.0382-.0761-.0667-.1142-.1048-.0356-.0375-.0737-.0725-.1141-.1048-.1142-.1048-.2092-.2097-.3044-.3146-.038-.038-.0761-.0856-.1141-.1238-.028-.0262-.0535-.0549-.0761-.0858-.0194-.0277-.0417-.0532-.0666-.0762-.0286-.0286-.0475-.0572-.0761-.0858h.1237c1.3687-.0535 2.709-.4064 3.9267-1.0337s2.2831-1.5138 3.1212-2.5972c.9567-1.3607 1.4985-2.9694 1.5599-4.6315.0958.3287.172.6628.2283 1.0006.1298.8235.1362 1.6618.019 2.4872.1997-.5812.39-1.2197.5516-1.9059.223-.9714.3661-1.9595.4281-2.9543.0524-.8378.0524-1.678 0-2.5158.2281.9841.3398 1.9916.3329 3.0018z" fill="#ff9e00"/><g fill="#d0cff9"><path d="m20.8896 15.0919c-.0477-.0016-.0955.0016-.1426.0095-.0476 0-.1047.0095-.1618.0095-.0605.0021-.1209.0085-.1806.0191-.0571.0095-.1237.0095-.1808.019h-.019c-.0856.0096-.1712.019-.2662.0381-.0476.0095-.0857.0191-.1332.0286l-.1427.0286c-.0951.0191-.1997.0477-.3044.0763s-.1997.0571-.3043.0952c-.0285.0096-.0666.0192-.0952.0286-.0332.0086-.0652.0214-.0951.0382-.0286.0094-.0666.0285-.1046.038-.0286.0096-.0476.019-.0761.0286-.0381.0192-.0761.0286-.1141.0478-.0335.0119-.0655.0279-.0952.0476-.0286.0094-.0571.0286-.0856.038-.0684.0312-.1351.0662-.1997.1049-.0285.0191-.0666.0381-.0952.0571-.0951.0572-.1902.1144-.2853.1812-.0285.019-.0475.038-.0761.0571l-.0856.0572c-.0434.0288-.0848.0606-.1236.0953-.0095 0-.0095.0096-.019.0096-.0381.0285-.0666.0571-.1047.0857-.0433.0357-.0846.0739-.1236.1143-2.1592 1.9727-2.2638 5.8133-.3899 8.1767-.9813-.9813-1.6414-2.2376-1.8929-3.6023-.076-.4193-.6278-3.7167 1.4933-5.3748 1.4066-.5177 2.913-.7067 4.4038-.5527z"/><path d="m27.4521 15.6493c-.0578 1.2247-.3148 2.4317-.7609 3.5737-.19-.7686-.4946-1.5043-.9036-2.1824-.1332-.2191-.2758-.4288-.4185-.6194 0-.1048-.0095-.2096-.019-.3145-.0048-.0673-.0144-.1341-.0286-.2001.0015-.0164-.0018-.033-.0095-.0476-.0216-.1575-.0534-.3135-.0951-.467-.019-.0858-.0475-.1715-.0665-.2573 0-.0096-.0096-.019-.0096-.0286.0376.0389.0726.0803.1046.1239.0381.0381.0666.0857.1047.1239.057.0667.1046.1334.1617.2001.0095.0095.0095.019.019.0286.1617.2192.3234.4384.466.6766.1141.1906.2282.3812.333.5813.1141.2287.2281.4669.3233.7052.1733-.5713.288-1.1589.3424-1.7535.019-.2477.038-.5051.038-.7623 0-.1334 0-.2669-.0094-.3908-.0195-.5271-.0928-1.0507-.2188-1.5629-.002-.0202-.0085-.0398-.019-.0572-.038-.1429-.0666-.2764-.1142-.4192-.0041-.0157-.0073-.0317-.0095-.0478-.0646-.2229-.1408-.4424-.2282-.6574-.1975-.4926-.4362-.9676-.7135-1.42-.0935-.1598-.1984-.3127-.3138-.4574-.0317-.04991-.0667-.09768-.1047-.14301-.0285-.03812-.0475-.06672-.0761-.10484-.0665-.08576-.1331-.1715-.2092-.25729-.0282-.02939-.0536-.06129-.076-.09529-.0381-.03813-.0667-.07626-.1047-.11438-.0285-.02859-.057-.06671-.0856-.09529-.076-.08575-.1617-.17155-.2378-.24776l-.1427-.14299c-.1427-.143-.2948-.27638-.4565-.40979.0266.01662.0554.02945.0856.03812.0476.02859.1046.05717.1617.08579.2715.14638.5321.31198.78.49555.0665.04762.1331.10482.2092.16199.1093.08669.2141.17894.3139.27638.2463.22765.4722.47636.6753.74331 1.09 1.5915 1.5571 3.5281 1.3126 5.4416z"/></g></svg>