<svg xmlns="http://www.w3.org/2000/svg" width="32" height="32" fill="none"><path fill="#F6F6F6" d="M16 32c8.837 0 16-7.163 16-16S24.837 0 16 0 0 7.163 0 16s7.163 16 16 16Z"/><path fill="#5F5F5F" d="M24.976 19.336c.072.057.118.106.189.165.042.035.043.035.084-.003.03-.027.057-.056.087-.082a.271.271 0 0 1 .394.014c.044.047.086.097.125.15a.314.314 0 0 1-.022.411 1.42 1.42 0 0 1-.096.094c-.027.024-.028.049-.009.08a3.249 3.249 0 0 1 .249.451c.04.083.04.082.12.055a.928.928 0 0 1 .117-.035c.13-.027.255.04.31.17.034.079.06.162.076.248a.309.309 0 0 1-.158.318c-.044.023-.091.033-.137.05-.055.021-.06.026-.05.083.029.18.05.36.05.543.001.04.015.063.055.066.033.003.067.01.1.013a.286.286 0 0 1 .264.225c.004.012.012.263 0 .331-.025.15-.135.258-.28.264a.4.4 0 0 1-.093-.006c-.057-.011-.095.015-.109.073-.034.144-.08.284-.128.423a.089.089 0 0 0 .025.104c.017.015.08.087.09.111.024.056-.078-.03-.101-.045a80.905 80.905 0 0 0-.957-.557c.017-.138.08-.314.105-.45a2.508 2.508 0 0 0-.381-1.899 2.197 2.197 0 0 0-1.268-.936 2.093 2.093 0 0 0-1.372.069c-.372.145-.78.382-1.003.756-.026.03-.038.026-.078.007-.14-.074-.69-.453-.912-.591-.1-.106-.165-.278-.09-.406a.925.925 0 0 1 .2-.23.296.296 0 0 1 .377-.004c.141.108.141.108.278-.009.072-.06.148-.115.224-.17.07-.052.075-.073.042-.154-.09-.221-.032-.39.17-.499a1 1 0 0 1 .166-.075c.154-.05.296.009.38.155.088.152.087.152.252.111.087-.021.175-.036.263-.053.088-.018.101-.032.106-.125a.691.691 0 0 1 .02-.136c.023-.09.065-.168.152-.203a.555.555 0 0 1 .496.008c.096.052.14.141.142.257.002.174.003.176.163.203.105.018.208.045.311.071.079.02.099.012.13-.069.076-.203.269-.307.495-.189.065.034.132.058.188.113.114.109.122.27.075.387l-.02.05a.507.507 0 0 0-.035.129s.159.112.23.168Z"/><path fill="#414141" d="M25.134 22.983c.066.067.946.579 1.022.627.023.003.04.02.06.028.015.014.03.03.044.047v-.001c.07.103.069.214.029.328a1.12 1.12 0 0 1-.092.175.273.273 0 0 1-.37.102 1.405 1.405 0 0 1-.12-.072c-.028-.019-.047-.014-.067.014a3.26 3.26 0 0 1-.358.423c-.026.026-.03.049-.007.08.026.033.05.069.072.105a.312.312 0 0 1-.063.424 2.118 2.118 0 0 1-.14.108c-.131.09-.284.065-.384-.062a1.323 1.323 0 0 1-.077-.112c-.021-.034-.042-.041-.078-.02-.149.09-.306.162-.467.225-.059.023-.058.024-.047.09.005.022.008.045.012.067.037.19-.005.294-.162.392-.04.024-.087.02-.13.033a.759.759 0 0 1-.23.013 1.952 1.952 0 0 1-.075-.041.423.423 0 0 1-.126-.252c-.027-.134-.01-.113-.127-.107a4.26 4.26 0 0 1-.463-.002c-.06-.003-.06-.003-.074.056a.802.802 0 0 0-.018.082c-.024.177-.158.309-.37.266a1.576 1.576 0 0 1-.155-.04.303.303 0 0 1-.2-.354l.023-.12c.01-.055.009-.058-.043-.078a3.412 3.412 0 0 1-.462-.22c-.058-.031-.058-.032-.098.026-.022.031-.042.063-.065.093-.099.132-.255.16-.387.068-.05-.036-.1-.073-.147-.113a.312.312 0 0 1-.064-.407c.024-.04.052-.08.08-.119.018-.027.02-.048-.005-.073a3.284 3.284 0 0 1-.363-.429c-.02-.029-.04-.029-.068-.01a2.062 2.062 0 0 1-.1.06c-.152.09-.31.046-.4-.113-.032-.056-.072-.108-.093-.172-.055-.158-.01-.304.127-.392l.087-.055c.05-.032.051-.033.029-.09a3.486 3.486 0 0 1-.16-.527c-.008-.04-.028-.056-.067-.047a.89.89 0 0 1-.093.013c-.184.02-.32-.096-.34-.292l-.014-.16a.316.316 0 0 1 .064-.215.282.282 0 0 1 .187-.108c.04-.006.081-.009.122-.016.052-.009.054-.01.055-.069.002-.128.011-.256.027-.383.007-.056.024-.11.02-.168-.004-.039-.02-.063-.049-.075-.02-.007-.025-.01-.055-.017a.316.316 0 0 1-.157-.09"/><path fill="#414141" d="M19.829 21.524c.006-.04-.01-.098-.047-.11-.033-.01-.085-.03-.117-.04-.129-.041-.21-.15-.224-.294-.016-.062.035-.261.058-.326.052-.143.179-.226.322-.203a.41.41 0 0 1 .09.025c.055.022.097.005.12-.05.06-.135.148-.268.204-.404.055-.131.016-.12.035-.116.047.043.733.397.95.582-.141.162-.453.896-.466 1.141"/><path fill="#414141" d="M21.227 20.577c.437-.504.75-.72 1.182-.85a2.202 2.202 0 0 1 2.047.423c.322.265.557.6.717.997.098.243.15.497.174.76.035.376-.04.797-.162 1.148-.024.023-.472-.302-.52-.366-.011-.034.002-.066.01-.097.044-.172.073-.346.067-.524-.024-.856-.573-1.562-1.332-1.734-.56-.127-1.154.002-1.697.59-.013.008-.018-.01-.11-.077-.155-.1-.231-.163-.337-.231-.06-.038-.058-.018-.039-.04Z"/><path fill="#5F5F5F" d="M25.194 23.03a.727.727 0 0 0-.039.077 2.292 2.292 0 0 1-.607.861c-.34.312-.735.506-1.184.57-.11.015-.22.031-.331.028a2.368 2.368 0 0 1-.928-.21 2.393 2.393 0 0 1-1.122-1.113 2.592 2.592 0 0 1-.202-1.682c.06-.3.173-.577.33-.833.022-.037.087-.12.109-.14.114.063.426.282.477.33.031.044-.027.102-.045.13a1.836 1.836 0 0 0-.226.48c-.176.603-.095 1.164.263 1.668.298.42.703.651 1.198.704.706.075 1.43-.352 1.726-1.104.017-.042.013-.107.08-.11.043.052.45.315.501.344Z"/><path fill="#EDAE50" d="M24.691 22.686a2.194 2.194 0 0 1-.206.439c-.279.431-.66.7-1.144.792-.49.094-.94-.022-1.34-.336a1.79 1.79 0 0 1-.663-1.103 1.927 1.927 0 0 1 .303-1.481l.033-.05c.012-.015.16-.19.233-.255a1.667 1.667 0 0 1 1.108-.442c.787-.017 1.497.55 1.703 1.373.082.33.08.66-.009.988-.007.024-.012.05-.018.075Z"/><path fill="#414141" d="M23.505 22.099a.48.48 0 0 1-.46.497.49.49 0 0 1-.478-.501.487.487 0 0 1 .48-.5c.232 0 .47.22.458.504Z"/><path fill="#FCD38C" d="M23.531 21.162a.15.15 0 0 1 .135.057c.033.037.068.072.1.11.075.089.03.25-.067.282-.042.014-.08.015-.117-.01a.973.973 0 0 1-.207-.202c-.064-.082-.032-.186.063-.222a.22.22 0 0 1 .093-.015Z"/><path fill="#414141" d="M10.902 25.978a.446.446 0 0 1-.231-.342c-.008-.053-.022-.105-.032-.158-.007-.037-.025-.05-.061-.046a4.594 4.594 0 0 1-.788 0c-.03-.003-.045.01-.051.04-.011.055-.026.11-.035.165a.435.435 0 0 1-.265.357.602.602 0 0 1-.289 0c-.089-.018-.18-.027-.261-.076-.031-.025-.065-.046-.092-.076a.437.437 0 0 1-.11-.38c.008-.056.02-.11.031-.166.018-.095.018-.095-.065-.126a4.41 4.41 0 0 1-.551-.253c-.043-.023-.087-.046-.128-.072-.03-.021-.052-.017-.072.015-.031.049-.066.095-.097.144-.132.209-.391.27-.595.103-.053-.044-.11-.084-.164-.127a.44.44 0 0 1-.086-.606c.036-.055.073-.109.11-.162.019-.026.018-.046-.004-.067l-.032-.032a4.854 4.854 0 0 1-.488-.577c-.042-.058-.042-.058-.104-.02l-.125.077c-.22.134-.439.076-.575-.154l-.045-.075c-.024-.05-.053-.096-.075-.147a.44.44 0 0 1 .166-.565c.045-.03.091-.057.137-.086.061-.038.062-.039.036-.106a5.045 5.045 0 0 1-.21-.663l-.026-.112c-.007-.038-.028-.05-.062-.045-.065.009-.13.019-.194.023a.387.387 0 0 1-.383-.212.482.482 0 0 1-.056-.206c-.005-.054-.015-.102-.018-.16-.014-.219.103-.494.362-.513.055-.005.11-.014.165-.02.064-.008.066-.008.068-.073a5.208 5.208 0 0 1 .077-.795c.012-.073.012-.074-.056-.098l-.151-.052a.43.43 0 0 1-.269-.531c.023-.087.05-.172.08-.256.076-.216.284-.326.493-.26.062.02.125.039.186.063.038.016.056.003.072-.034.038-.085.08-.17.12-.254l.042-.079c.043-.085.089-.168.144-.246.05-.046 8.433 5.188 8.41 5.249-.017.03-.03.06-.045.09-.03.056-.058.113-.089.168-.12.206-.337.27-.54.157-.053-.03-.105-.064-.157-.095-.055-.033-.055-.034-.092.017a5.155 5.155 0 0 1-.512.606c-.04.041-.04.042-.01.089.035.052.072.103.106.156a.44.44 0 0 1-.087.6c-.06.048-.12.095-.181.14-.193.143-.422.104-.564-.094-.037-.051-.071-.104-.107-.155-.033-.047-.034-.047-.082-.02a4.477 4.477 0 0 1-.611.298l-.089.035c-.053.021-.054.022-.043.085.01.055.017.111.032.165.056.202-.06.445-.32.531-.112.037-.355.064-.462.019Z"/><path fill="#666059" d="M14.738 23.2c-.176-.108-1.743-1.133-1.853-1.197-.06-.032-.04-.036-.004-.108.128-.291.214-.601.255-.92.03-.232.028-.464.01-.698a3.278 3.278 0 0 0-1.006-2.12 2.733 2.733 0 0 0-.55-.408 2.796 2.796 0 0 0-.956-.345 2.717 2.717 0 0 0-.634-.037 2.897 2.897 0 0 0-1.276.391 3.176 3.176 0 0 0-.83.723c-.06.074-.145.222-.203.296-.034.043-.596-.344-1.361-.825.028-.053.055-.096.085-.142.019-.029.017-.05-.007-.073a9.44 9.44 0 0 1-.14-.134.435.435 0 0 1-.09-.525c.021-.043.06-.144.117-.218.028-.035.058-.068.089-.101a.429.429 0 0 1 .588-.016c.187.18.162.139.319.01.134-.109.27-.215.412-.314.076-.052.08-.078.042-.166a.645.645 0 0 1-.074-.31.434.434 0 0 1 .17-.334c.152-.11.314-.2.508-.195.16.004.273.089.354.228.03.05.052.104.076.158.021.05.057.066.106.052.208-.058.418-.102.63-.138.077-.014.093-.038.096-.12a.843.843 0 0 0 0-.084c-.017-.259.171-.476.394-.491.123-.009.246-.019.368.007.18.039.356.213.338.453-.002.033 0 .067 0 .1.002.099.02.123.11.137.2.029.396.071.59.127.101.03.117.019.16-.083a.727.727 0 0 1 .126-.224c.119-.129.267-.15.422-.113a.996.996 0 0 1 .343.16c.172.12.235.334.165.542a1.59 1.59 0 0 1-.05.128c-.036.082-.03.112.042.16.152.101.297.211.437.33.153.13.125.15.294-.012.147-.142.375-.16.51-.062.136.099.255.223.334.378.07.138.061.392-.079.52-.041.039-.078.083-.117.125-.034.037-.038.077-.012.119.125.195.237.4.335.611.024.052.065.066.116.049.06-.02.12-.037.182-.05a.412.412 0 0 1 .432.201c.083.15.133.313.139.489a.437.437 0 0 1-.24.415.781.781 0 0 1-.16.068c-.06.018-.085.056-.073.12.042.23.056.462.07.696.004.061.032.095.09.097.043.001.086.01.13.016.22.03.373.214.373.452 0 .046-.001.093-.006.139a1.646 1.646 0 0 1-.05.244.412.412 0 0 1-.436.293c-.062-.005-.125-.015-.187-.022-.058-.006-.06-.005-.075.056a5.407 5.407 0 0 1-.24.782c-.015.035-.009.057.022.076.061.036.123.072.181.112a.436.436 0 0 1 .165.492.246.246 0 0 1-.016.034Z"/><path fill="#EDAE50" d="M8.347 19.154c.073-.093.142-.19.22-.276.375-.41.827-.65 1.361-.714.472-.057.92.03 1.335.277.637.381 1.018.962 1.139 1.728.07.445.017.88-.149 1.297-.01.024-.016.049-.024.073.018.04 0 .075-.015.11a2.09 2.09 0 0 1-.309.482c-.352.418-.784.696-1.308.793-.696.128-1.324-.043-1.87-.521a2.373 2.373 0 0 1-.797-1.493 2.545 2.545 0 0 1 .323-1.669.165.165 0 0 1 .094-.087Z"/><path fill="#45423D" d="M8.753 20.535c-.013-.864.682-1.523 1.419-1.528.723-.004 1.446.608 1.447 1.534.002.86-.653 1.514-1.419 1.523-.834.01-1.462-.722-1.447-1.529Z"/><path fill="#FCD38C" d="M11.593 19.123c.012.127-.138.228-.242.154a.987.987 0 0 1-.194-.167c-.081-.096-.063-.195.044-.258.08-.046.153-.05.227.017a.709.709 0 0 1 .138.154c.02.03.029.064.027.1Z"/><path fill="#EDAE50" d="M9.04 20.546c-.018-.625.458-1.234 1.148-1.232.645.002 1.15.552 1.143 1.24-.005.679-.534 1.211-1.163 1.203-.651-.008-1.145-.59-1.128-1.212Z"/><path fill="#414141" d="M10.183 21.034c-.257 0-.471-.227-.47-.5.002-.27.198-.496.472-.5.25-.003.469.217.467.503 0 .278-.206.497-.469.497Z"/><path fill="#FCD38C" d="M10.724 19.707c.027 0 .053.003.076.02.1.07.153.168.15.296-.002.066-.09.136-.151.121a.369.369 0 0 1-.244-.176c-.05-.084-.04-.155.034-.214a.22.22 0 0 1 .135-.047Z"/><path fill="#666059" d="M8.347 19.154a2.562 2.562 0 0 0-.391 1.114c-.036.316-.01.636.073.941.083.306.224.59.413.837.287.374.649.632 1.082.776.251.083.51.121.772.102.685-.048 1.244-.36 1.67-.934.09-.121.167-.252.23-.39.01-.021.022-.04.033-.06.06.03.523.347.602.406.032.023.018.054.003.082a3.129 3.129 0 0 1-1.073 1.214 2.978 2.978 0 0 1-.984.417c-.27.06-.542.07-.814.052a2.896 2.896 0 0 1-1.67-.701 3.11 3.11 0 0 1-.864-1.217 3.412 3.412 0 0 1 .195-2.915.594.594 0 0 1 .028-.045c.052-.079.062-.081.14-.034.129.078.379.242.506.325a.426.426 0 0 1 .049.03Z"/><path fill="#45423D" d="M12.376 21.042c.066-.31.072-.632.018-.944a2.456 2.456 0 0 0-.331-.877c-.275-.376-.62-.693-1.003-.889a1.98 1.98 0 0 0-.755-.179c-.687-.025-1.275.217-1.754.743a3.007 3.007 0 0 0-.212.266c-.056-.036-.576-.317-.649-.384-.029-.027.198-.3.314-.428a3.07 3.07 0 0 1 .871-.678c.31-.17.662-.267 1.019-.308.273-.031.55-.024.82.023.358.062.688.21 1.001.408a3.159 3.159 0 0 1 1.331 1.787c.092.323.136.658.132.995a3.28 3.28 0 0 1-.294 1.335c-.034.074-.004.072-.103 0-.121-.092-.425-.285-.553-.372-.008-.007.097-.25.148-.498Z"/><path fill="#EDAE50" d="M9.18 7.954c-.053-.178-.093-.36-.138-.541-.012-.048.001-.06.05-.073 2.642-.686 5.856-.166 7.507.365.262.1.517.215.753.374.102.068.199.144.275.246a.68.68 0 0 1 .058.089c.04.075.049.152.011.234a7.59 7.59 0 0 1-.283.563c-.066.12-.134.238-.2.357a1.405 1.405 0 0 1-.107.165c-.034.034-.072.018-.109.009-.162-.039-.325-.069-.486-.11-.012-.004-.024.002-.036.002-.168-.058-.346-.064-.517-.107-.022-.006-.042.008-.063.004-.28-.057-.565-.086-.848-.128-.1-.014-.202-.006-.299-.044-.037-.041-.043-.095-.055-.148-.072-.308-.165-.606-.335-.872a1.512 1.512 0 0 0-.083-.116.494.494 0 0 0-.337-.2 22.965 22.965 0 0 0-1.121-.13 17.747 17.747 0 0 0-1.872-.055c-.308.005-.616.027-.924.056-.254.023-.509.05-.762.087-.031.003-.058 0-.079-.027Z"/><path fill="#45423D" d="M17.95 13.323c-.176 0-.352-.005-.527-.002-.056 0-.069-.034-.081-.076-.048-.016-.046-.062-.054-.1-.057-.297-.11-.595-.172-.89a28.514 28.514 0 0 0-.532-2.16c-.036-.123-.075-.245-.11-.367-.01-.038-.03-.079.004-.116.012-.015.03-.016.046-.012.195.038.39.076.583.132.126.377.232.76.33 1.147a32.1 32.1 0 0 1 .512 2.444ZM9.18 7.954c.23-.042.464-.067.697-.09.168-.015.336-.026.505-.038.468-.035.936-.035 1.404-.027a18.602 18.602 0 0 1 1.696.121c.19.024.377.057.567.083a.26.26 0 0 1 .15.083c.151.146.258.325.342.52.1.233.168.476.213.726-.01.035-.037.036-.064.034-.12-.008-.241-.017-.361-.028-.106-.01-.212-.016-.317-.022-.169-.01-.337-.029-.506-.019-.065.004-.13-.013-.195-.014-.088-.002-.115.019-.146.106a16.72 16.72 0 0 0-.458 1.565c-.2.817-.354 1.645-.482 2.478-.035.223-.063.447-.093.67-.007.046-.011.092-.038.131-.022.023-.049.024-.075.017-.12-.033-.241-.07-.362-.104a.06.06 0 0 1-.026-.014.065.065 0 0 1-.016-.025c-.02-.055-.008-.112 0-.167a32.78 32.78 0 0 1 .47-2.683c.14-.627.3-1.248.504-1.854.031-.092.014-.119-.077-.12-.359-.004-.718.01-1.076.028-.18.01-.361.018-.54.034h-.037c-.188.002-.192.006-.251.192a23.525 23.525 0 0 0-.77 3.312c-.055.336-.103.673-.153 1.01-.004.03-.007.06-.026.087-.017.03-.046.034-.075.038-.15.024-.3.04-.449.068-.033.006-.075.014-.082-.043l.075-.533c.065-.462.138-.922.22-1.38.107-.6.23-1.197.382-1.786.072-.279.146-.558.237-.83.032-.097.032-.097-.037-.163l-.5-.48a.21.21 0 0 1-.061-.109c-.057-.233-.116-.465-.175-.698a.176.176 0 0 1-.014-.076Z"/><path fill="#A9A9A9" d="M9.18 7.954c.01.024.02.048.014.076-.014-.024-.033-.046-.014-.076Z"/><path fill="#B9E1E1" d="M13.023 14.652a5.583 5.583 0 0 0-.867-.391c-.027-.01-.055-.017-.076-.041.03-.226.059-.452.092-.678.077-.522.167-1.042.27-1.559a20.327 20.327 0 0 1 .712-2.678c.02-.06.022-.061.083-.06.343.01.685.025 1.027.047.164.01.327.027.49.04.27.028.54.063.809.103.114.017.228.033.341.056.065.027.106.08.145.141.15.232.27.482.369.74.104.27.199.545.263.83.026.112.061.222.088.333.085.368.179.734.248 1.107.035.19.073.381.119.57.012.05.033.107-.028.143-.006.008-.012.017-.02.022a.81.81 0 0 0-.25.26l-.352.505c-.033.015-.06.002-.088-.018a20.91 20.91 0 0 0-.427-.317c-.074-.053-.08-.08-.03-.158.07-.111.144-.218.216-.328.027-.042.057-.083.08-.128.04-.083.025-.165-.037-.214-.063-.05-.14-.04-.2.032-.076.09-.136.194-.2.293l-.616.943c-.019.03-.039.059-.052.092-.03.077-.009.155.052.197.063.044.136.036.19-.03.074-.09.133-.194.198-.293l.125-.188c.03-.043.063-.05.106-.02.156.106.306.224.459.336.025.02.05.042.05.08l-.144.248-.074.124a.538.538 0 0 0-.016.528c.23.476.47.948.74 1.4l.105.167a.457.457 0 0 0 .404.226c.162.005.323-.014.483-.029a3.804 3.804 0 0 1-.553 1.968c-.05.084-.105.12-.203.117-.26-.008-.52-.001-.781 0-.053-.008-.051-.057-.058-.094a5.778 5.778 0 0 0-.115-.453 6.758 6.758 0 0 0-.711-1.635c-.099-.165-.21-.32-.313-.48a5.46 5.46 0 0 0-.308-.384 6.622 6.622 0 0 0-.607-.624 6.927 6.927 0 0 0-1.004-.735c-.05-.03-.108-.05-.134-.113Z"/><path fill="#DCF9FB" d="M17.091 13.373a.267.267 0 0 0 .008-.154c-.092-.38-.74-3.026-1.106-3.608-.045-.071-.055-.09-.09-.12.172.013.34.052.51.077a.08.08 0 0 1 .037.014c.01.008.02.018.026.03.23.738.426 1.485.59 2.242a37.167 37.167 0 0 1 .287 1.424c.016.033.02.024-.075.037a.774.774 0 0 0-.187.058Z"/><path fill="#B9E1E1" d="M11.63 14.098c-.148-.03-.296-.064-.445-.09a4.855 4.855 0 0 0-.537-.067 7.607 7.607 0 0 0-.51-.015c-.096 0-.193.01-.29.002-.04-.032-.032-.075-.027-.12a28.04 28.04 0 0 1 .3-1.873c.087-.437.184-.871.304-1.3.115-.408.249-.81.457-1.178.03-.055.036-.1.002-.153.023-.01.048-.01.072-.01.547-.027 1.094-.056 1.641-.051.024 0 .049-.006.072.006.009.028-.007.05-.014.073a18.72 18.72 0 0 0-.58 2.15 30.96 30.96 0 0 0-.338 1.865c-.038.254-.07.508-.106.761Z"/><path fill="#DCF9FB" d="M10.933 9.295c.098-.013.089-.007.03.1a5.2 5.2 0 0 0-.393.897c-.06.181-.117.364-.16.55-.049.205-.106.406-.15.611-.046.207-.084.416-.126.625-.043.213-.086.426-.119.641-.05.334-.1.668-.146 1.003-.01.068-.022.137-.02.206-.024.012-.192.03-.204 0 .01-.163.04-.325.063-.487.059-.4.125-.8.198-1.197.171-.92.382-1.828.665-2.715.018-.056.039-.11.055-.167.009-.033.027-.046.057-.047.068-.003.238-.02.25-.02Z"/><path fill="#414141" d="M19.984 20.593c-.169-.014-.357-.155-.49.21-.134.361.063.5.033.488a.223.223 0 0 0-.044-.001c-.11.001-.225-.018-.335-.018-.04-.02-.03-.053-.023-.086a4.383 4.383 0 0 1 .814-1.791 4.15 4.15 0 0 1 1.127-1.012 3.825 3.825 0 0 1 2.201-.55.227.227 0 0 0 .221-.117.16.16 0 0 1 .08-.074c.041 0 .08.019.119.028.086.02.096.017.134-.066.061-.136.125-.27.204-.395a.155.155 0 0 0 .048-.053c.103-.168.235-.307.39-.42a.024.024 0 0 1 .014-.003c.056 0 .07.045.084.09.06.195.127.387.21.573.136.309.305.594.522.845.033.038.074.071.055.133l-.338.632-.053.091a1.143 1.143 0 0 1-.106.15.223.223 0 0 0-.032-.02c-.006-.003-.019-.015-.025-.018-.118-.069-.102-.073-.043-.2a.366.366 0 0 0 .033-.253.29.29 0 0 0-.048-.103.268.268 0 0 0-.083-.074.862.862 0 0 0-.24-.104.277.277 0 0 0-.307.15c-.02.039-.033.08-.05.12-.026.057-.04.065-.097.048a2.636 2.636 0 0 0-.453-.1c-.014-.002-.028-.008-.042-.01-.041-.004-.059-.03-.058-.072 0-.041-.003-.082 0-.124a.264.264 0 0 0-.22-.288.67.67 0 0 0-.294.004c-.124.03-.197.11-.214.247-.007.05-.01.102-.012.153 0 .067-.005.072-.068.086-.078.016-.157.028-.235.044-.08.017-.16.037-.24.061-.05.017-.063.01-.084-.04-.02-.048-.038-.095-.064-.139a.27.27 0 0 0-.312-.135.834.834 0 0 0-.25.118.307.307 0 0 0-.106.36c.015.041.035.08.052.12.02.05.02.061-.022.088a4.423 4.423 0 0 0-.417.32c-.039.033-.05.033-.087-.003a1.1 1.1 0 0 0-.104-.095.265.265 0 0 0-.342.007.9.9 0 0 0-.18.209.298.298 0 0 0 .043.37c.04.04.045.043.11.091-.1.108-.297.397-.355.512"/><path fill="#45423D" d="M18.635 21.258h-3.15c-.149.001-.151-.004-.13-.16a.51.51 0 0 0-.043-.328.384.384 0 0 0-.278-.201c-.06-.01-.12-.017-.18-.02-.072-.002-.085-.021-.088-.099a5.125 5.125 0 0 0-.074-.749c-.018-.098-.013-.106.08-.133a.818.818 0 0 0 .213-.092c.166-.106.214-.287.175-.474a2.842 2.842 0 0 0-.073-.25c-.07-.213-.254-.325-.463-.283-.071.015-.14.039-.209.062-.056.02-.064.018-.09-.041a4.815 4.815 0 0 0-.387-.703c-.028-.042-.027-.055.016-.089.058-.047.105-.106.158-.157.13-.124.127-.383.05-.507a1.355 1.355 0 0 0-.267-.303.373.373 0 0 0-.489.02c-.048.047-.103.085-.146.138-.025.032-.049.033-.08.006a4.857 4.857 0 0 0-.582-.456c-.107-.073-.102-.056-.048-.177.023-.048.043-.098.06-.149.063-.197.006-.413-.194-.521-.087-.046-.173-.094-.266-.12-.13-.038-.258-.031-.373.06a.377.377 0 0 0-.108.141c-.031.067-.058.136-.088.203-.022.05-.027.054-.077.037a3.927 3.927 0 0 0-.593-.142l-.143-.023c-.07-.01-.075-.016-.076-.093v-.193c.001-.178-.087-.293-.23-.367a.313.313 0 0 0-.133-.037c-.108-.004-.217-.011-.325.008-.206.037-.334.19-.34.411-.002.057 0 .113 0 .17-.002.087-.005.09-.084.103-.24.04-.48.085-.714.16-.056.018-.063.014-.088-.044l-.073-.168c-.097-.222-.32-.294-.526-.214-.077.03-.152.065-.225.105a.445.445 0 0 0-.205.54c.022.065.052.126.08.189.024.053.021.065-.024.095a5.187 5.187 0 0 0-.547.416l-.065.06c-.038.034-.05.034-.087 0-.042-.039-.086-.076-.125-.118a.395.395 0 0 0-.569.011c-.042.05-.083.1-.126.149-.053.057-.056.055-.11.003a6.518 6.518 0 0 0-.162-.152c-.072-.086-.069-.086.004-.174A5.57 5.57 0 0 1 8.3 14.96a5.117 5.117 0 0 1 2.227-.333c.388.024.773.092 1.147.201a5.421 5.421 0 0 1 2.19 1.27c.217.207.421.43.61.666.026.033.05.069.072.105.178.212.32.451.452.695.267.489.467 1.016.594 1.565.044.192.074.387.106.581.029.17.146.227.29.145a.598.598 0 0 0 .267-.564c-.006-.047-.036-.1.011-.145.038-.022.08-.02.12-.02.218-.001.435-.004.652 0 .09.002.15-.034.197-.113.18-.296.316-.62.406-.959.07-.264.12-.533.138-.808a.48.48 0 0 0-.002-.085c-.004-.034.004-.061.033-.079.047 0 .15-.007.155-.008.18-.01.18-.01.18.182.001.146 0 .293.002.439.001.134.035.175.158.208.294.08.592.105.896.088.14-.008.278-.035.417-.046a.289.289 0 0 0 .084-.024c.084-.034.11-.07.11-.167.003-.182 0-.364.002-.547 0-.04-.008-.083.026-.115.054-.045.107-.011.155.01.121.055.212.15.296.254.155.192.27.411.378.634.01.018.014.039.012.06-.004.05-.038.074-.072.098-.285.196-.54.429-.775.688a4.774 4.774 0 0 0-1.14 2.32c-.007.04 0 .095-.059.102Z"/><path fill="#A19D98" d="m18.635 21.258.055-.262a4.79 4.79 0 0 1 .896-1.919c.29-.379.634-.706 1.02-.972.022-.015.046-.027.06-.054.017-.03 1.332-.932 2.803-.644.088.068.098.198.05.316-.046.115-.132.151-.27.148-.129-.003-.257-.01-.384-.003a3.82 3.82 0 0 0-2.209.84c-.55.44-.964.995-1.248 1.66a4.242 4.242 0 0 0-.26.848c-.003.018-.05.3-.064.424-.013.116-.065.197-.17.235-.154.056-.319-.064-.322-.237-.002-.087.015-.173.027-.259.006-.034.01-.116.016-.121Z"/><path fill="#FCBE4F" d="M17.38 20.658h-.79c-.123 0-.212-.064-.263-.181a.322.322 0 0 1 .038-.334.286.286 0 0 1 .236-.114c.062-.003.125-.002.188-.001h1.332a.32.32 0 0 1 .23.075c.091.084.129.22.09.342a.308.308 0 0 1-.103.154.277.277 0 0 1-.17.059c-.262.002-.525 0-.788 0Z"/><path fill="#EDAE50" d="M9.053 14.008c.016.014.035.015.055.01a5.26 5.26 0 0 1 .497-.072c.014-.002.007-.002.048-.006.585-.047 1.365-.013 1.978.159.136.04.272.069.407.108.014.001.676.258.934.405.023.017.034.027.05.04a.408.408 0 0 1-.095.307.856.856 0 0 1-.366.261c-.184-.084-.366-.171-.556-.24a5.37 5.37 0 0 0-1.032-.267 5.368 5.368 0 0 0-.924-.058 5.01 5.01 0 0 0-1.082.139 5.45 5.45 0 0 0-2.865 1.773l-.073.085c-.05.059-.073.097-.11.145-.062.078-.123.158-.183.238-.141.186-.39.196-.545.001-.105-.132-.087-.331-.002-.457.093-.134.192-.264.298-.387.107-.129.212-.26.33-.377.165-.165.33-.332.51-.479a6.263 6.263 0 0 1 2.03-1.128c.196-.064.395-.117.596-.16.036-.006.073-.009.1-.04Zm6.041 2.478c.18.226.327.476.469.73.166.299.304.612.422.936.107.297.2.6.262.911l.024.105c.017.096.035.19.016.29-.04.202-.135.36-.316.449-.152.074-.284-.003-.309-.179a6.426 6.426 0 0 0-.335-1.35 5.922 5.922 0 0 0-.765-1.432c-.015-.02-.028-.042-.042-.062.034-.123.106-.222.175-.323.039-.058.099-.048.149-.065.08-.027.165-.05.25-.01Z"/><path fill="#FCD38C" d="M15.054 16.475c-.397-.034-.521.383-.534.409a6.575 6.575 0 0 0-.549-.631 5.568 5.568 0 0 0-1.41-1.033c.018-.023.181-.057.317-.254.115-.167.142-.28.144-.314.13.052.244.136.361.211.204.128.4.27.587.425.168.14.332.287.488.445.107.107.207.222.308.335.117.131.236.264.329.418"/><path fill="#EDAE50" d="M25.34 18.372c-.042-.076-.107-.13-.16-.199a3.917 3.917 0 0 1-.623-1.216c-.016-.05-.03-.102-.047-.153-.007-.022-.012-.046-.04-.046-.358-.325-.79-.506-1.212-.704-.638-.3-1.304-.505-1.978-.686a19.661 19.661 0 0 0-1.601-.344c-.049-.01-.101-.013-.135-.062-.009-.035-.009-.071-.009-.107v-1.274c0-.047-.014-.1.033-.134.106.028.215.028.323.043.203.03.407.052.61.085.262.041.525.078.786.134.18.038.36.07.54.11.21.048.42.096.628.152.346.094.692.188 1.03.314.134.05.267.104.403.149a.91.91 0 0 1 .35.237c.225.222.45.444.667.674.145.154.29.307.429.468.06.07.126.134.189.202.107.118.208.242.318.358a.523.523 0 0 1 .148.342c.009.187.003.373-.041.558a2.433 2.433 0 0 1-.44.909 1.359 1.359 0 0 1-.168.19Z"/><path fill="#45423E" d="m16.31 14.42-.499-.368a.184.184 0 0 1-.024-.018c-.03-.03-.048-.017-.067.015-.028.048-.06.094-.09.14-.072.109-.143.22-.217.327-.055.08-.125.104-.202.079a.2.2 0 0 1-.11-.286c.017-.036.041-.068.063-.102l.761-1.162a.647.647 0 0 1 .053-.073c.066-.076.167-.088.243-.03a.196.196 0 0 1 .073.114.206.206 0 0 1-.017.138c-.023.045-.052.087-.08.13l-.237.358c-.031.047-.032.048.013.082l.511.377-.174.279Z"/><path fill="#EDAE50" d="M18.366 13.352c.024.018.022.044.022.07.001.45.002.9.001 1.35a.14.14 0 0 1-.007.045c-.03.039-.072.037-.113.037-.149.001-.298-.007-.447-.01-.417-.01-.834-.003-1.251-.002a.18.18 0 0 0-.085.015c-.016.008-.03.02-.028.04.002.022.019.028.036.033a.124.124 0 0 0 .035.004c.205-.005.41.004.615-.01a4.5 4.5 0 0 1 .592.003c.17.011.341.016.512.022.044.002.087-.002.126.026.02.103.05.205.03.312a.066.066 0 0 1-.009.028c-.031.04-.08.042-.122.06-.079.035-.118.091-.115.184.011.42-.02.84-.014 1.26.001.049.002.098.007.146.011.105-.016.14-.116.15a1.427 1.427 0 0 1-.218.002c-.136.023-.273.024-.41.034-.253.019-.439-.09-.57-.323-.184-.322-.37-.643-.537-.975-.075-.15-.145-.3-.224-.448-.128-.236-.13-.466.02-.692.064-.099.111-.21.188-.3.043-.107.113-.196.175-.29.143-.225.295-.444.457-.654.05-.064.12-.103.183-.15.085-.024.392-.03.47-.033.088-.003.176-.002.265 0 .042 0 .451.023.532.066Zm5.204 4.325c-.027-.016-.044-.039-.042-.074.006-.108-.06-.161-.14-.201-.108-.041-.923-.122-1.733.178a3.88 3.88 0 0 0-.818.383c-.047.03-.1.05-.145.086-.006.005-.018.002-.027.003-.064-.097-.106-.206-.163-.307a2.384 2.384 0 0 0-.303-.437.637.637 0 0 0-.336-.21c-.037.003-.043-.026-.047-.054a.64.64 0 0 1-.005-.1c0-.233-.004-.466 0-.7.005-.22-.019-.44-.016-.66a.172.172 0 0 0-.109-.173.72.72 0 0 1-.084-.045c-.02-.013-.043-.026-.034-.06l.003-.166c.024-.035.056-.03.091-.025.401.064.8.143 1.195.237.476.114.949.24 1.412.403.371.13.739.273 1.094.447.169.082.341.158.495.27a.731.731 0 0 1 .149.157c.105.138.079.3.069.457-.003.05-.025.096-.029.145-.09.147-.168.303-.23.465-.014.034-.031.046-.067.034-.059-.021-.12-.036-.18-.053Z"/><path fill="#FCD38C" d="M24.048 17.231a.203.203 0 0 1-.01-.128c.016-.089.01-.179.01-.268 0-.088-.046-.156-.096-.219a.73.73 0 0 0-.226-.188 9.63 9.63 0 0 0-1.253-.558c-.31-.114-.623-.218-.94-.304a18.28 18.28 0 0 0-1.213-.292c-.235-.048-.471-.083-.706-.13l-.043-.004v-.17c.144.015.286.045.428.073.185.035.37.072.554.112.194.042.387.083.579.137.146.04.294.076.441.116.36.1.715.214 1.066.343.285.105.561.235.838.36.264.12.52.26.766.416.072.046.138.102.207.155.024.019.045.041.02.076-.093.087-.187.17-.269.269-.054.066-.102.136-.153.204Zm-5.679-2.413v.17a16.284 16.284 0 0 0-1.836-.014.912.912 0 0 1-.103-.012c-.026-.006-.065-.04-.064-.062.001-.04.023-.06.05-.074a.267.267 0 0 1 .122-.022c.434 0 .869-.008 1.303.003l.528.011Z"/><path fill="#FEFEFE" d="M25.817 16.863a1.54 1.54 0 0 1-.073.468 2.243 2.243 0 0 1-.37.718c-.033.044-.035.044-.07.001a3.22 3.22 0 0 1-.395-.652 4.753 4.753 0 0 1-.21-.54c-.018-.057-.016-.067.038-.097.188-.103.385-.176.595-.208.096-.015.193-.014.289-.027h.029c.09.001.105.014.14.102.03.078.03.16.027.235Z"/><path fill="#414141" d="M19.561 13.485c0 .49.007 1.565.018 1.866-.027.037-.061.023-.093.014-.34-.105-.682-.09-1.025-.022-.029.005-.057.013-.082-.012l-.001.002c-.016-.023-.002-2.418-.004-2.571a.364.364 0 0 1 .04-.184c.037-.07.07-.145.105-.217a.029.029 0 0 1 .019-.01c.396.18.723.388 1.02.712-.004.117 0 .274.003.422Z"/><path fill="#A19D98" d="M18.539 12.323h-.006l-.006-.001a.599.599 0 0 0 .03-.226c-.001-.23.002-.461 0-.692a.34.34 0 0 1 .072-.218c.244-.325.508-.63.792-.916.18-.182.371-.35.581-.493.04.01.023.038.014.06-.129.302-.11.62-.07.934.019.139.055.282.163.384a.044.044 0 0 1 .009.056c-.245.12-.437.309-.599.535-.024.033-.042.068-.036.112a16.638 16.638 0 0 0 0 1.016c-.037.027-.06-.003-.082-.023-.097-.088-.191-.178-.296-.256a2.398 2.398 0 0 0-.357-.229.334.334 0 0 0-.21-.043Z"/><path fill="#A19D98" d="M20.16 9.743c.049.026.074.07.086.125a2.361 2.361 0 0 1-.012 1.158.37.37 0 0 1-.057.14c-.03.006-.04-.018-.053-.04-.144-.263-.17-.55-.153-.846.003-.04.009-.081.011-.122a.643.643 0 0 1 .178-.415Zm-.44 5.637c.075.036.112.087.116.183.015.482.011.964.013 1.445l.003.195c-.001.2-.004.4-.002.6.002.07-.026.11-.083.136-.477.14-1.097.133-1.532-.014-.098-.032-.124-.07-.125-.178v-.6c-.001-.059.014-.973.014-1l-.001-.647c-.001-.068.022-.108.082-.137.69-.232 1.052-.165 1.515.018Z"/><path fill="#45423D" d="m18.253 16.65-.001-1.038v-.055c.001-.07.007-.08.071-.106.243-.099.953-.193 1.331.072.06.034.07.068.073.149.01.182-.006 1.534-.006 2.055v.031c-.001.074-.006.078-.077.094a2.758 2.758 0 0 1-1.318-.03c-.065-.017-.069-.02-.069-.094V16.65h-.005Z"/><path fill="#DCF9FB" d="M18.523 12.338c.008-.066.046-.073.119-.055.087.028.171.068.25.119.173.11.339.23.485.38.032.034.07.063.106.093a.112.112 0 0 0 .032.057c.046.044.052.095.043.16-.077-.012-.12-.06-.168-.118a2.318 2.318 0 0 0-.45-.392 2.32 2.32 0 0 0-.365-.194c-.038-.016-.057-.015-.052-.05Zm1.637-2.595c.026.015.043.022-.023.085-.084.08-.14.282-.134.612.006.22.009.415.175.726-.014.024-.032.04-.06.044-.28-.293-.254-1.197-.115-1.433.057-.063.09-.07.158-.034Z"/></svg>