<svg fill="none" height="32" viewBox="0 0 32 32" width="32" xmlns="http://www.w3.org/2000/svg"><path d="m15.9718 31.9436c8.821 0 15.9718-7.1508 15.9718-15.9718 0-8.82099-7.1508-15.9718-15.9718-15.9718-8.82099 0-15.9718 7.15081-15.9718 15.9718 0 8.821 7.15081 15.9718 15.9718 15.9718z" fill="#202944"/><path d="m25.9048 6.71606h-19.92238v19.24514h19.92238z" fill="#fff"/><path d="m4.96643 5.19226v21.33334h20.99467v-21.33334zm7.33687 2.42681h1.9753v2.03174h-1.9753zm-4.91006 0h2.03174v2.03174h-2.03174zm1.91887 4.96653v2.0317h-2.03175v-2.0317zm-.50794 11.231h-.84656v-.7901h.79013v.7901zm.62081-4.0635h-2.03174v-1.9753h2.03174zm4.34572 4.0635h-.7902v-.7901h.7902zm0-4.7407h-.7902v-.7902h.7902zm.5643-4.3457h-2.0317v-2.0318h2.0317zm4.3457 9.0864h-.7901v-.7901h.7901zm0-4.7407h-.7901v-.7902h.7901zm0-5.023h-.7901v-.7901h.7901zm.7337-4.34565h-2.0317v-2.03174h2.0317zm4.3457 14.10935h-.7901v-.7901h.7901zm0-4.7407h-.7901v-.7902h.7901zm0-5.023h-.7901v-.7901h.7901zm0-4.96646h-.7901v-.79012h.7901z" fill="#202944"/></svg>