<svg xmlns="http://www.w3.org/2000/svg" width="32" height="32" fill="none"><path fill="#202944" d="M15.972 31.944c8.82 0 15.972-7.151 15.972-15.972S24.793 0 15.972 0 0 7.15 0 15.972c0 8.82 7.15 15.972 15.972 15.972Z"/><path fill="#fff" d="M25.905 6.716H5.982v19.245h19.923V6.716Z"/><path fill="#202944" d="M4.966 5.192v21.334h20.995V5.192H4.966Zm7.337 2.427h1.976v2.032h-1.976V7.619Zm-4.91 0h2.032v2.032H7.393V7.619Zm1.92 4.967v2.031H7.28v-2.031h2.032Zm-.509 11.23h-.846v-.79h.79v.79h.056Zm.621-4.063H7.393v-1.975h2.032v1.975Zm4.346 4.064h-.79v-.79h.79v.79Zm0-4.741h-.79v-.79h.79v.79Zm.564-4.346h-2.032v-2.032h2.032v2.032Zm4.346 9.087h-.79v-.79h.79v.79Zm0-4.741h-.79v-.79h.79v.79Zm0-5.023h-.79v-.79h.79v.79Zm.733-4.346h-2.031V7.676h2.031v2.031Zm4.346 14.11h-.79v-.79h.79v.79Zm0-4.741h-.79v-.79h.79v.79Zm0-5.023h-.79v-.79h.79v.79Zm0-4.967h-.79v-.79h.79v.79Z"/></svg>