<svg fill="none" height="32" viewBox="0 0 32 32" width="32" xmlns="http://www.w3.org/2000/svg"><path d="m16 32c8.8366 0 16-7.1634 16-16 0-8.83656-7.1634-16-16-16-8.83656 0-16 7.16344-16 16 0 8.8366 7.16344 16 16 16z" fill="#fff"/><g fill="#6868fc"><path d="m16.078 3.34168-.1787.00021.007 5.91789.1787-.00021z"/><path d="m21.9511 19.2811-.0907.154 5.0311 2.9613.0906-.154z"/><path d="m10.0758 19.2809-5.03088 2.9616.09066.154 5.03092-2.9616z"/></g><path d="m15.9875 16.1294c-.0235-.0001-.0466-.0063-.067-.018l-5.8819-3.3976c-.0204-.0118-.0373-.0287-.04909-.0491-.01176-.0203-.01795-.0434-.01795-.067 0-.0235.00619-.0466.01795-.067.01179-.0204.02869-.0373.04909-.049l5.8819-3.39616c.0204-.01179.0436-.01799.0672-.01796s.0467.00628.0671.01812l5.8741 3.41c.0203.0118.0372.0287.0489.0491s.0178.0435.0178.067-.0063.0466-.018.0669c-.0118.0204-.0288.0373-.0491.049l-5.8741 3.3837c-.0203.0117-.0434.0179-.0669.018zm-5.6139-3.5316 5.614 3.2428 5.6062-3.2294-5.6065-3.25469z" fill="#77e3ef"/><path d="m15.9875 22.8865c-.0234 0-.0464-.0061-.0667-.0178l-5.8744-3.3715c-.0204-.0117-.0374-.0286-.04922-.049s-.01805-.0435-.01807-.0671l-.00755-6.7832c-.00004-.0235.00613-.0467.01788-.0671.01176-.0204.02866-.0373.04906-.0491s.0435-.018.0671-.018c.0235 0 .0466.0062.067.018l5.882 3.3976c.0203.0118.0372.0287.049.049.0118.0204.0179.0435.018.067v6.7571c0 .0356-.0142.0697-.0393.0948s-.0592.0392-.0947.0392zm-5.7404-3.5831 5.6064 3.2176v-6.4483l-5.6136-3.2426z" fill="#4acbdc"/><path d="m15.9875 22.8865c-.0176 0-.035-.0034-.0513-.0102-.0162-.0067-.031-.0166-.0434-.029-.0125-.0125-.0224-.0272-.0291-.0435s-.0102-.0337-.0102-.0513v-6.7571c0-.0236.0062-.0467.018-.0671s.0287-.0373.0491-.0491l5.8741-3.3836c.0204-.0118.0435-.0179.067-.0179.0236 0 .0467.0062.067.018.0204.0117.0373.0287.049.049.0118.0204.018.0435.018.067v6.7844c0 .0236-.0063.0469-.0182.0673-.0118.0204-.0289.0374-.0494.0491l-5.8741 3.3564c-.0203.0115-.0432.0176-.0665.0176zm.134-6.8137v6.4488l5.6061-3.2033v-6.4747z" fill="#07abc5"/><path d="m15.991 29-11.25809-6.5002v-12.99965l11.25809-6.50015 11.2584 6.50013v12.99967zm-10.63294-6.8611 10.63294 6.1392 10.6332-6.1392v-12.27783l-10.6332-6.13921-10.63294 6.13921z" fill="#7c7cff"/><path d="m15.9908 16.3719-11.08404-6.40968c-.03553-.02055-.06667-.0479-.09164-.08049-.02496-.03258-.04326-.06977-.05386-.10942-.01059-.03966-.01327-.08102-.00788-.12172.00539-.04069.01874-.07992.03929-.11546.02055-.03553.0479-.06667.08049-.09164.03258-.02496.06977-.04326.10943-.05386.03965-.01059.08101-.01327.12171-.00788.04069.00539.07992.01874.11546.03929l10.77154 6.22896 10.8071-6.22919c.0718-.0414.1571-.05257.2372-.03105.0396.01065.0768.029.1093.05402.0326.02501.0599.05619.0804.09175.0205.03557.0338.07482.0391.11552s.0026.08205-.008.1217c-.0107.03964-.0291.07679-.0541.10934s-.0562.05985-.0917.08035z" fill="#7c7cff"/><path d="m16.009 28.9516c-.0829 0-.1624-.0329-.221-.0915-.0587-.0586-.0916-.1381-.0916-.221v-12.6281c0-.0829.0329-.1624.0916-.221.0586-.0586.1381-.0916.221-.0916s.1624.033.221.0916.0916.1381.0916.221v12.6281c0 .0829-.033.1624-.0916.221s-.1381.0915-.221.0915z" fill="#7c7cff"/></svg>