<svg fill="none" height="32" viewBox="0 0 32 32" width="32" xmlns="http://www.w3.org/2000/svg" xmlns:xlink="http://www.w3.org/1999/xlink"><clipPath id="a"><path d="m0 0h32v32h-32z"/></clipPath><g clip-path="url(#a)" clip-rule="evenodd" fill-rule="evenodd"><path d="m16 31.9998c-8.8 0-16-7.2-16-16.08.08-8.79999 7.2-15.9999942 16.08-15.91999421 8.8.08000001 15.92 7.20000421 15.92 16.15999421-.08 8.72-7.2 15.84-16 15.84z" fill="#0090ff"/><path d="m17.5199 14.08-.48 2.56 4.56.64-.32 1.2-4.48-.64c-.32 1.04-.48 2.16-.88 3.12-.4 1.12-.8 2.24-1.28 3.28-.64 1.36-1.76 2.32-3.28 2.56-.88.16-1.83995.08-2.55995-.48-.24-.16-.48-.48-.48-.72 0-.32.16-.72.4-.88.16-.08.56 0 .8.08.24.24.48.56.63995.88.48.64 1.12.72 1.76.24.72-.64 1.12-1.52 1.36-2.4.48-1.92.96-3.76 1.36-5.68v-.32l-4.24-.64.16-1.2 4.4.64.56-2.48-4.56-.72.16-1.28 4.72.64c.16-.48.24-.88.4-1.28.4-1.43996.8-2.87996 1.76-4.15996s2.08-2.08 3.76-2c.72 0 1.44.24 1.92.8.08.08.24.24.24.4 0 .32 0 .72-.24.96-.32.24-.72.16-1.04-.16-.24-.24-.4-.48-.64-.72-.48-.64-1.2-.72-1.76-.16-.4.4-.8.96-1.04 1.52-.56 1.68-.96 3.43996-1.52 5.19996l4.4.64-.32 1.2z" fill="#fff"/></g></svg>