<svg fill="none" height="32" viewBox="0 0 32 32" width="32" xmlns="http://www.w3.org/2000/svg"><path d="m16 32c8.8366 0 16-7.1634 16-16 0-8.83656-7.1634-16-16-16-8.83656 0-16 7.16344-16 16 0 8.8366 7.16344 16 16 16z" fill="#eff4f4"/><path d="m16.7334 19.7999v8.8667c0 .4666-.2667.6666-.6667.4666l-5-2.7333c-.4-.2667-.6667-.7333-.6667-1.2v-8.6c.0667.0667.1334.1333.2.1333z" fill="#4d5fab"/><path d="m21.5333 9.46665v-6.2c0-.4-.2667-.53333-.5334-.4l-9.2 4.73333c-1 .53334-1.2666.6-1.3333 1.2.0667-.26666.2667-.4.5333-.26666l6.9334 3.53338 3.0666-1.6c.3334-.2.5334-.60005.5334-1.00005z" fill="#215eac"/><path d="m10.4666 15.4c.0667.2667.2667.5333.5333.7333l10 5.1334c.3334.1333.5334 0 .5334-.4v-6.2c0-.4-.2-.7334-.5334-1l-3.0666-1.6-6.9334 3.5333c-.2666.1333-.4666 0-.5333-.2z" fill="#40b4e2"/><path d="m10.4666 8.79892v.66667 5.73331.2c.0667.2.2667.3334.5333.2l6.9334-3.5333-6.9334-3.53334c-.2666-.13334-.4666 0-.5333.26666z" fill="#16a0db"/></svg>