<svg width="32" height="32" fill="none" xmlns="http://www.w3.org/2000/svg"><path d="M16 32c8.837 0 16-7.163 16-16S24.837 0 16 0 0 7.163 0 16s7.163 16 16 16Z" fill="#EFF4F4"/><path d="M16.733 19.8v8.867c0 .466-.266.666-.666.466l-5-2.733c-.4-.267-.667-.733-.667-1.2v-8.6c.067.067.133.133.2.133l6.133 3.067Z" fill="#4D5FAB"/><path d="M21.533 9.467v-6.2c0-.4-.266-.534-.533-.4L11.8 7.6c-1 .533-1.267.6-1.333 1.2.066-.267.266-.4.533-.267l6.933 3.534 3.067-1.6c.333-.2.533-.6.533-1Z" fill="#215EAC"/><path d="M10.467 15.4c.066.267.266.533.533.733l10 5.134c.333.133.533 0 .533-.4v-6.2c0-.4-.2-.734-.533-1l-3.067-1.6L11 15.6c-.267.133-.467 0-.533-.2Z" fill="#40B4E2"/><path d="M10.467 8.799v6.6c.066.2.266.333.533.2l6.933-3.533L11 8.532c-.267-.133-.467 0-.533.267Z" fill="#16A0DB"/></svg>