<svg fill="none" height="32" viewBox="0 0 32 32" width="32" xmlns="http://www.w3.org/2000/svg"><path d="m16 31.6c8.6157 0 15.6-6.9844 15.6-15.6 0-8.61565-6.9843-15.600006-15.6-15.600006-8.61562 0-15.599976 6.984356-15.599976 15.600006 0 8.6156 6.984356 15.6 15.599976 15.6z" fill="#fefefe"/><g fill="#9b1c2e"><path d="m9.55 22.825c.375 0 .7-.2.875-.525l2.3-4.35h-3.55c-.525 0-.975-.45-.975-.975v-1.95c0-.525.45-.975.975-.975h5.625l4.35-8.275c.175-.325.5-.525.875-.525h7.325c-2.85-3-6.875-4.875-11.35-4.875-8.625 0-15.625 7-15.625 15.625 0 2.45.575 4.775 1.575 6.825z"/><path d="m22.45 9.17499c-.375 0-.7.2-.875.525l-2.3 4.35001h3.55c.525 0 .975.45.975.975v1.95c0 .525-.45.975-.975.975h-5.6l-4.35 8.275c-.175.325-.5.525-.875.525h-7.34998c2.85 3 6.87498 4.875 11.34998 4.875 8.625 0 15.625-7 15.625-15.625 0-2.45-.575-4.775-1.575-6.82501z"/></g></svg>