<svg fill="none" height="32" viewBox="0 0 32 32" width="32" xmlns="http://www.w3.org/2000/svg" xmlns:xlink="http://www.w3.org/1999/xlink"><clipPath id="a"><path d="m0 0h32v32h-32z"/></clipPath><g clip-path="url(#a)"><path d="m12.8 26.4704 4.4544-8.4736h5.7344c.2634-.0047.5146-.1114.7008-.2976s.2929-.4375.2976-.7008v-1.9968c-.0047-.2633-.1114-.5146-.2976-.7008-.1862-.1863-.4374-.293-.7008-.2976h-3.6352l2.3552-4.45444c.0857-.16316.2146-.29961.3726-.39443s.3391-.14435.5234-.14316h7.7713c-.7169-1.47438-1.6561-2.82991-2.7845-4.01918h-7.4701c-.1842-.00119-.3653.04833-.5233.14315-.1581.09482-.287.23128-.3727.39445l-4.4544 8.47361h-5.75987c-.26334.0046-.51458.1113-.70082.2976-.18623.1862-.29292.4374-.29759.7008v1.9968c.00467.2633.11136.5146.29759.7008.18624.1863.43748.293.70082.2976h3.63517l-2.3552 4.4544c-.0857.1631-.2146.2996-.37261.3944-.15803.0948-.3391.1444-.52339.1432h-7.77136c.71697 1.4744 1.65612 2.8299 2.78461 4.0192h7.49555c.1843.0012.3654-.0483.5234-.1431.158-.0949.2869-.2313.3726-.3945z" fill="#fefefe"/><g fill="#9b1c2e"><path d="m10.2912 22.4512 2.3552-4.4544h-3.63514c-.26334-.0046-.51458-.1113-.70082-.2976-.18623-.1862-.29292-.4375-.29759-.7008v-1.9968c.00467-.2633.11136-.5146.29759-.7008.18624-.1863.43748-.293.70082-.2976h5.76004l4.4543-8.4736c.0857-.16317.2146-.29963.3726-.39445.1581-.09482.3391-.14435.5234-.14315h7.47c-2.6248-2.77636-6.1575-4.520373-9.9577-4.9158846-3.8001-.3955114-7.6163.5836566-10.75654 2.7600046-3.14028 2.17634-5.39684 5.40581-6.360633 9.10298-.96379 3.6971-.5710082 7.6172 1.107143 11.0497h7.77136c.18429.0012.36536-.0484.52339-.1432.15808-.0948.28698-.2313.37258-.3944z"/><path d="m16 32c2.713.0048 5.3825-.6816 7.7567-1.9944 2.3743-1.3128 4.3749-3.2087 5.8134-5.509 1.4385-2.3002 2.2673-4.929 2.4083-7.6383.141-2.7094-.4104-5.41-1.6023-7.84713h-7.7713c-.1843-.00118-.3654.04835-.5234.14317s-.2869.23127-.3726.39443l-2.3552 4.45443h3.6352c.2634.0047.5146.1114.7008.2976s.2929.4375.2976.7008v1.9968c-.0047.2633-.1114.5146-.2976.7008-.1862.1863-.4374.293-.7008.2976h-5.7344l-4.4544 8.4736c-.0857.1632-.2146.2996-.3726.3945-.158.0948-.3391.1443-.5234.1431h-7.49555c1.49051 1.5774 3.28744 2.8337 5.28065 3.6921 1.9932.8584 4.1407 1.3008 6.3109 1.2999z"/></g></g></svg>