<svg fill="none" height="32" viewBox="0 0 32 32" width="32" xmlns="http://www.w3.org/2000/svg"><path d="m15.8801 32c8.7704 0 15.8802-7.1634 15.8802-16 0-8.83656-7.1098-16-15.8802-16-8.77032 0-15.8801 7.16344-15.8801 16 0 8.8366 7.10978 16 15.8801 16z" fill="#23292f"/><path clip-rule="evenodd" d="m21.4781 19.3212c-.6009-.0297-1.2753-.1743-2.0234-.4338-.0184-.0114-.0369-.0228-.0554-.034l1.7991-10.3827 2.4809.12019zm-.3557 1.7342-.5741 2.7987h-2.4332l-1.1319-3.62c.628.0397 1.229.1214 1.8032.2451l.4242 1.3327.0244-1.2261c.0737.0192.1469.0391.2197.0597.5559.2169 1.1118.3535 1.6677.4099zm-4.8181-3.044-.3696-1.3636-.3603 1.3753c-.5583.0334-1.08.1239-1.5652.2713l1.3461-4.6042h1.2956l1.4418 4.5898c-.5497-.162-1.1459-.2515-1.7884-.2686zm-1.374 2.2398-1.0707 3.6029h-2.349l-.5482-2.7744c.6328-.0288 1.2104-.1735 1.7329-.4342.0873-.0247.1752-.0484.2639-.0711l.0683 1.2375.3657-1.3391c.4926-.1047 1.005-.1785 1.5371-.2216zm-4.3145-.9254-2.1451-10.8551h2.1572l2.2102 10.3307c-.0481.028-.0957.0566-.1428.086-.633.2931-1.2902.4396-1.9715.4396-.0358 0-.0718-.0004-.108-.0012z" fill="#00f3ab" fill-rule="evenodd"/></svg>