<svg xmlns="http://www.w3.org/2000/svg" width="32" height="32" fill="none"><path fill="#23292F" d="M15.88 32c8.77 0 15.88-7.163 15.88-16S24.65 0 15.88 0 0 7.163 0 16s7.11 16 15.88 16Z"/><path fill="#00F3AB" fill-rule="evenodd" d="M21.478 19.321c-.6-.03-1.275-.174-2.023-.434a6.322 6.322 0 0 0-.056-.034l1.8-10.382 2.48.12-2.2 10.73Zm-.356 1.734-.574 2.8h-2.433l-1.132-3.62c.628.039 1.23.12 1.803.244l.425 1.333.024-1.226c.074.019.147.039.22.06a6.335 6.335 0 0 0 1.667.41Zm-4.818-3.044-.37-1.363-.36 1.375a6.759 6.759 0 0 0-1.565.271l1.346-4.604h1.296l1.442 4.59a6.964 6.964 0 0 0-1.789-.269Zm-1.374 2.24-1.07 3.603h-2.35l-.548-2.774a4.271 4.271 0 0 0 1.733-.434c.088-.025.175-.049.264-.072l.069 1.238.365-1.34a12.08 12.08 0 0 1 1.537-.22Zm-4.314-.925L8.47 8.47h2.157l2.21 10.33a5.4 5.4 0 0 0-.143.086 4.641 4.641 0 0 1-2.08.439Z" clip-rule="evenodd"/></svg>