<svg xmlns="http://www.w3.org/2000/svg" width="32" height="32" fill="none"><defs><linearGradient id="flm__a" x1="6" x2="11.612" y1="12.534" y2="12.534" gradientUnits="userSpaceOnUse"><stop stop-color="#4750D9"/><stop offset=".41" stop-color="#5C45DC"/><stop offset="1" stop-color="#8131E1"/></linearGradient><linearGradient id="flm__b" x1="8.877" x2="25" y1="16.646" y2="16.646" gradientUnits="userSpaceOnUse"><stop stop-color="#E96161"/><stop offset=".2" stop-color="#E65B76"/><stop offset=".61" stop-color="#DF4AAC"/><stop offset="1" stop-color="#D739E6"/></linearGradient><linearGradient id="flm__c" x1="14.345" x2="15.165" y1="10.775" y2="10.775" gradientUnits="userSpaceOnUse"><stop stop-color="#B100D3"/><stop offset=".23" stop-color="#9C00C0"/><stop offset=".69" stop-color="#67008E"/><stop offset="1" stop-color="#40006A"/></linearGradient><linearGradient id="flm__d" x1="7.811" x2="18.157" y1="11.183" y2="11.183" gradientUnits="userSpaceOnUse"><stop stop-color="#D0D7D3"/><stop offset=".52" stop-color="#D9C5E8"/><stop offset="1" stop-color="#E3B1FF"/></linearGradient><linearGradient id="flm__e" x1="7.777" x2="13.386" y1="11.183" y2="11.183" gradientUnits="userSpaceOnUse"><stop stop-color="#B277EC"/><stop offset=".77" stop-color="#9336E7"/><stop offset="1" stop-color="#8921E6"/></linearGradient><linearGradient id="flm__f" x1="15.302" x2="17.99" y1="11.727" y2="11.727" gradientUnits="userSpaceOnUse"><stop stop-opacity=".5"/><stop offset=".1" stop-color="#201322" stop-opacity=".59"/><stop offset=".25" stop-color="#4A2C4E" stop-opacity=".72"/><stop offset=".4" stop-color="#6D4173" stop-opacity=".82"/><stop offset=".55" stop-color="#885190" stop-opacity=".9"/><stop offset=".7" stop-color="#9B5DA4" stop-opacity=".95"/><stop offset=".85" stop-color="#A664B0" stop-opacity=".99"/><stop offset="1" stop-color="#AA66B4"/></linearGradient></defs><path fill="#fff" d="M16 32c8.837 0 16-7.163 16-16S24.837 0 16 0 0 7.163 0 16s7.163 16 16 16Z"/><path fill="url(#flm__a)" d="m11.612 11.073-.143.143-3.266 3.266-.985.985A.66.66 0 0 1 6 15.104v-3.098a2.812 2.812 0 0 1 2.812-2.709h2.8l-.817.83-.946.946h1.763Z"/><path fill="url(#flm__b)" d="M25 12.862v.207a7.31 7.31 0 0 1-1.918 4.743l-9.267 9.267a2.802 2.802 0 0 1-1.866.713 3.84 3.84 0 0 1-.557-.052l-.545-.168a13.26 13.26 0 0 1-1.698-.726l-.116-.065a.389.389 0 0 1-.156-.324.41.41 0 0 1 .078-.246l10.394-10.407a.907.907 0 0 0 .13-.182 2.01 2.01 0 0 0 .155-.389c.02-.085.033-.172.04-.259a.671.671 0 0 0 .012-.168 1.737 1.737 0 0 0-1.736-1.737h-3.798l2.553-2.553a.73.73 0 0 0 .195-.195.668.668 0 0 0-.558-1.024h-5.417s.518-.57.726-.777c.466-.506 1.037-1.154 1.659-1.607A7.266 7.266 0 0 1 17.638 5.5a7.49 7.49 0 0 1 2.696.505l.35.143a7.47 7.47 0 0 1 1.724 1.102l.104.09h.012A7.377 7.377 0 0 1 25 12.85v.013Z"/><path fill="#E35CC7" d="M17.496 9.297h-6.532l-3.046 3.046a.428.428 0 0 0 .311.726h7.077l2.734-2.748a.583.583 0 0 0 .117-.363.661.661 0 0 0-.661-.66Zm-2.722 1.893a.427.427 0 0 1-.428-.415.413.413 0 0 1 .415-.415.415.415 0 0 1 .013.83Z"/><path fill="#8961D0" d="M11.806 9.297h-.894l-3.007 2.994a.454.454 0 0 0 .324.778h1.387l3.771-3.772h-1.58Zm2.955 1.893a.415.415 0 1 0 0-.83.415.415 0 0 0 0 .83Z"/><path fill="url(#flm__c)" d="M14.761 11.19a.415.415 0 1 0 0-.83.415.415 0 0 0 0 .83Z" opacity=".48"/><path fill="#480061" d="M15.163 10.775a.415.415 0 0 0-.402-.415.442.442 0 0 0-.363.208.425.425 0 0 1 .57.014.4.4 0 0 1 .117.284v.013a.344.344 0 0 1-.052.194.4.4 0 0 0 .13-.298Z" opacity=".48"/><path fill="url(#flm__d)" d="M17.496 9.297h-6.532L7.93 12.343a.427.427 0 0 0 .298.726h7.077l2.734-2.748a.582.582 0 0 0 .117-.363.66.66 0 0 0-.661-.66ZM14.76 11.19a.413.413 0 0 1-.22-.765.405.405 0 0 1 .22-.065.415.415 0 0 1 .402.415.427.427 0 0 1-.402.415Z" opacity=".75"/><path fill="url(#flm__e)" d="M11.806 9.297h-.894l-3.007 2.994a.454.454 0 0 0 .324.778h1.387l3.771-3.772h-1.58Z"/><path fill="url(#flm__f)" d="m16.083 13.069 1.906-2.683-2.683 2.683h.777Z" opacity=".43"/></svg>