<svg fill="none" height="32" viewBox="0 0 32 32" width="32" xmlns="http://www.w3.org/2000/svg" xmlns:xlink="http://www.w3.org/1999/xlink"><linearGradient id="a" gradientUnits="userSpaceOnUse" x1="6.00006" x2="11.6119" y1="12.5337" y2="12.5337"><stop offset="0" stop-color="#4750d9"/><stop offset=".41" stop-color="#5c45dc"/><stop offset="1" stop-color="#8131e1"/></linearGradient><linearGradient id="b" gradientUnits="userSpaceOnUse" x1="8.87716" x2="24.9999" y1="16.646" y2="16.646"><stop offset="0" stop-color="#e96161"/><stop offset=".2" stop-color="#e65b76"/><stop offset=".61" stop-color="#df4aac"/><stop offset="1" stop-color="#d739e6"/></linearGradient><linearGradient id="c" gradientUnits="userSpaceOnUse" x1="14.3451" x2="15.1655" y1="10.7749" y2="10.7749"><stop offset="0" stop-color="#b100d3"/><stop offset=".23" stop-color="#9c00c0"/><stop offset=".69" stop-color="#67008e"/><stop offset="1" stop-color="#40006a"/></linearGradient><linearGradient id="d" gradientUnits="userSpaceOnUse" x1="7.8106" x2="18.1569" y1="11.1832" y2="11.1832"><stop offset="0" stop-color="#d0d7d3"/><stop offset=".52" stop-color="#d9c5e8"/><stop offset="1" stop-color="#e3b1ff"/></linearGradient><linearGradient id="e" gradientUnits="userSpaceOnUse" x1="7.77693" x2="13.3862" y1="11.1832" y2="11.1832"><stop offset="0" stop-color="#b277ec"/><stop offset=".77" stop-color="#9336e7"/><stop offset="1" stop-color="#8921e6"/></linearGradient><linearGradient id="f" gradientUnits="userSpaceOnUse" x1="15.3019" x2="17.9899" y1="11.7275" y2="11.7275"><stop offset="0" stop-opacity=".5"/><stop offset=".1" stop-color="#201322" stop-opacity=".59"/><stop offset=".25" stop-color="#4a2c4e" stop-opacity=".72"/><stop offset=".4" stop-color="#6d4173" stop-opacity=".82"/><stop offset=".55" stop-color="#885190" stop-opacity=".9"/><stop offset=".7" stop-color="#9b5da4" stop-opacity=".95"/><stop offset=".85" stop-color="#a664b0" stop-opacity=".99"/><stop offset="1" stop-color="#aa66b4"/></linearGradient><path d="m16 32c8.8366 0 16-7.1634 16-16 0-8.83656-7.1634-16-16-16-8.83656 0-16 7.16344-16 16 0 8.8366 7.16344 16 16 16z" fill="#fff"/><path d="m11.6119 11.073-.1425.1426-3.26607 3.266-.98499.985c-.0519.0766-.11787.1425-.19441.1944-.14645.0962-.32509.1303-.49667.0948-.17157-.0355-.32204-.1376-.41834-.284-.07262-.1089-.11058-.2372-.10886-.3681v-3.0975c.02684-.7278.33496-1.4168.85951-1.922.52455-.50521 1.22462-.78724 1.9529-.78674h2.79943l-.8165.82944-.94609.9461z" fill="url(#a)"/><path d="m24.9999 12.8616v.2073c-.0471 1.7606-.7282 3.445-1.9181 4.7436l-9.2667 9.2667c-.5134.4588-1.1778.7126-1.8663.7128-.1868-.0037-.3731-.021-.5573-.0518l-.5444-.1685c-.5821-.2022-1.14941-.4447-1.69777-.7258l-.11664-.0648c-.05008-.0375-.09037-.0866-.11745-.143-.02707-.0564-.04014-.1185-.03808-.181-.00131-.0884.02597-.1747.07777-.2463l10.39427-10.4072c.0505-.0549.094-.1159.1296-.1815.0647-.1241.1168-.2543.1555-.3888.0194-.0853.0324-.1719.0389-.2592.0114-.0554.0158-.112.013-.1685 0-.4606-.183-.9023-.5087-1.228s-.7674-.5087-1.228-.5087h-3.7974l2.5532-2.5532c.0765-.0519.1425-.1178.1944-.1944.0687-.1084.1047-.2344.1037-.36287 0-.1753-.0697-.34343-.1936-.46739-.124-.12395-.2921-.19359-.4674-.19359h-5.4175s.5184-.57026.7258-.77763c.4666-.50546 1.0368-1.15348 1.6589-1.60709 1.2543-.92257 2.7718-1.41779 4.3288-1.41269.9221.00115 1.836.1725 2.6958.50546l.3499.14256c.6224.2864 1.2024.65709 1.7238 1.10164l.1036.09072h.013c.7779.6915 1.4006 1.5398 1.8273 2.48914.4266.94934.6475 1.97824.6481 3.01904z" fill="url(#b)"/><path d="m17.4958 9.29749h-6.5321l-3.04569 3.04571c-.05886.0605-.09848.1372-.11386.2202s-.00584.1688.02743.2464c.03326.0776.08876.1436.1595.1898.07073.0461.15354.0702.23798.0694h7.07644l2.7346-2.7476c.0785-.1045.1196-.2323.1167-.36293 0-.17531-.0697-.34343-.1936-.46739-.124-.12396-.2921-.19359-.4674-.19359zm-2.7217 1.89221c-.1112.0001-.2181-.0432-.2979-.1206-.0799-.0775-.1264-.183-.1298-.2941.0017-.0779.0241-.1539.0648-.2204.0329-.0523.0772-.0966.1296-.1296.0656-.0424.1422-.0649.2203-.0648.11-.0017.2162.0404.2952.1169.079.0766.1243.1814.126.2914.0018.11-.0403.2162-.1169.2952-.0765.0789-.1813.1243-.2913.126z" fill="#e35cc7"/><path d="m11.8063 9.29749h-.8942l-3.00686 2.99381c-.06478.0635-.10905.1449-.12711.2338-.01806.0888-.00907.1811.02581.2648.03487.0837.09404.155.16985.2048.07581.0497.16479.0756.25546.0743h1.38677l3.77148-3.77151z" fill="#8961d0"/><path d="m14.7612 11.1896c.229 0 .4147-.1856.4147-.4147 0-.229-.1857-.4147-.4147-.4147-.2291 0-.4148.1857-.4148.4147 0 .2291.1857.4147.4148.4147z" fill="#8961d0"/><path d="m14.7612 11.1896c.229 0 .4147-.1856.4147-.4147 0-.229-.1857-.4147-.4147-.4147-.2291 0-.4148.1857-.4148.4147 0 .2291.1857.4147.4148.4147z" fill="url(#c)" opacity=".48"/><path d="m15.163 10.7749c0-.1078-.0419-.2114-.1169-.2888s-.1772-.1226-.2849-.1259c-.0729.0019-.1442.0219-.2075.058-.0633.0362-.1167.0875-.1554.1493.0791-.0684.1806-.1053.2851-.1036.0528 0 .1051.0103.1538.0305s.093.0498.1303.0871c.0374.0373.0669.0816.0871.1304.0202.0487.0306.101.0306.1537v.013c.0025.0685-.0155.1362-.0518.1944.0412-.0379.074-.084.0963-.1354.0223-.0513.0336-.1067.0333-.1627z" fill="#480061" opacity=".48"/><path d="m17.4959 9.29749h-6.532l-3.03276 3.04571c-.05812.0597-.0975.1352-.11331.217-.01582.0819-.00737.1665.0243.2437.03167.0771.08518.1432.15395.1903s.14981.0731.23315.0748h7.07637l2.7347-2.7476c.0785-.1045.1196-.2323.1166-.36293 0-.17531-.0696-.34343-.1936-.46739-.1239-.12396-.2921-.19359-.4674-.19359zm-2.7346 1.89221c-.0545 0-.1084-.0107-.1587-.0316-.0503-.0208-.0961-.0514-.1346-.0899s-.069-.0842-.0899-.1345c-.0208-.0503-.0315-.1043-.0315-.1587.0017-.0779.0241-.1539.0648-.2204.0329-.0523.0772-.0966.1296-.1296.0656-.0424.1421-.0649.2203-.0648.1077.0034.2099.0486.2849.126s.1169.181.1169.2888c-.0028.1069-.0456.2089-.12.2857-.0745.0768-.175.1229-.2818.129z" fill="url(#d)" opacity=".75"/><path d="m11.8063 9.29749h-.8942l-3.00686 2.99381c-.06478.0635-.10905.1449-.12711.2338-.01806.0888-.00907.1811.02581.2648.03487.0837.09404.155.16985.2048.07581.0497.16479.0756.25546.0743h1.38677l3.77148-3.77151z" fill="url(#e)"/><path d="m16.0834 13.0689 1.9052-2.6828-2.6828 2.6828z" fill="url(#f)" opacity=".43"/></svg>