<svg fill="none" height="32" viewBox="0 0 32 32" width="32" xmlns="http://www.w3.org/2000/svg"><path d="m16.032 31.936c8.7835 0 15.904-7.1205 15.904-15.904 0-8.78354-7.1205-15.904-15.904-15.904-8.78355 0-15.904009 7.12046-15.904009 15.904 0 8.7835 7.120459 15.904 15.904009 15.904z" fill="#00ef8b"/><g fill="#fff"><path d="m23.0143 13.5424h-4.4928v4.4928h4.4928z"/><path d="m14.0288 19.7184c0 .928-.7552 1.6832-1.6832 1.6832s-1.6832-.7552-1.6832-1.6832.7552-1.6832 1.6832-1.6832h1.6832v-4.4864h-1.6832c-3.41124 0-6.17604 2.7648-6.17604 6.176s2.7648 6.176 6.17604 6.176c3.4112 0 6.176-2.7648 6.176-6.176v-1.6832h-4.4864v1.6768z"/><path d="m20.2049 11.296h5.0496v-4.49284h-5.0496c-3.4112.0064-6.1696 2.7648-6.176 6.17604v.5632h4.4864v-.5632c.0064-.928.7616-1.6832 1.6896-1.6832z"/></g><path d="m14.0289 18.0352h4.4928v-4.4928h-4.4928z" fill="#16ff99"/></svg>