<svg xmlns="http://www.w3.org/2000/svg" width="32" height="32" fill="none"><path fill="#00EF8B" d="M16.032 31.936c8.784 0 15.904-7.12 15.904-15.904 0-8.784-7.12-15.904-15.904-15.904C7.248.128.128 7.248.128 16.032c0 8.784 7.12 15.904 15.904 15.904Z"/><path fill="#fff" d="M23.014 13.542h-4.492v4.493h4.492v-4.493Zm-8.985 6.176c0 .928-.755 1.684-1.683 1.684a1.685 1.685 0 0 1-1.684-1.684c0-.928.756-1.683 1.684-1.683h1.683V13.55h-1.683a6.176 6.176 0 1 0 0 12.352 6.176 6.176 0 0 0 6.176-6.176v-1.683h-4.487v1.676h-.006Zm6.176-8.422h5.05V6.803h-5.05a6.184 6.184 0 0 0-6.176 6.176v.563h4.486v-.563a1.695 1.695 0 0 1 1.69-1.683Z"/><path fill="#16FF99" d="M14.029 18.035h4.493v-4.493h-4.493v4.493Z"/></svg>