<svg width="32" height="32" fill="none" xmlns="http://www.w3.org/2000/svg"><path d="M16 32c8.837 0 16-7.163 16-16S24.837 0 16 0 0 7.163 0 16s7.163 16 16 16Z" fill="#fff"/><path d="M16.006 2.278a14.042 14.042 0 0 1 13.06 19.577 14.216 14.216 0 0 1-13.215 8.617A14.042 14.042 0 0 1 3.08 10.88a14.217 14.217 0 0 1 12.927-8.6Z" fill="#2B61D1"/><path d="m17.566 24.525-1.62.93-3.449-2.033 1.575-.906.039-.023.06.035 3.395 1.997ZM23.84 11.862l-.006 1.885-3.423-1.968-.924-.532-.928.538-4.338 2.513-.923.535-.007 1.104-1.65-.961-.914-.532-.919.533-1.558.904.033-3.97 7.76-4.52 7.796 4.471Z" fill="#fff"/><path d="m23.828 15.898-.014 5.052-4.379 2.511-.006-.003-4.325-2.536.028-5.022 4.346-2.514 4.35 2.512ZM13.178 18.017l-.019 2.886-2.489 1.436-2.46-1.452.024-2.876 2.478-1.435 2.466 1.441Z" fill="#fff"/></svg>