<svg fill="none" height="32" viewBox="0 0 32 32" width="32" xmlns="http://www.w3.org/2000/svg"><path d="m16 32c8.8366 0 16-7.1634 16-16 0-8.83656-7.1634-16-16-16-8.83656 0-16 7.16344-16 16 0 8.8366 7.16344 16 16 16z" fill="#fff"/><path d="m16.006 2.27829c2.337-.02561 4.6434.53246 6.7101 1.62362s3.8284 2.6809 5.1254 4.6251c1.297 1.94419 2.0882 4.18139 2.3019 6.50869s-.1568 4.6711-1.078 6.819c-1.1055 2.5807-2.9504 4.7763-5.302 6.3099-2.3517 1.5336-5.1047 2.3366-7.9121 2.3077-2.3148-.0207-4.5886-.6135-6.61905-1.7254-2.03041-1.1119-3.75442-2.7086-5.0186-4.6479-1.26419-1.9392-2.02932-4.161-2.22732-6.4674-.19799-2.3065.1773-4.6261 1.09248-6.7525 1.08885-2.5326 2.89054-4.69401 5.18572-6.22106 2.29517-1.52704 4.98487-2.35385 7.74147-2.37975z" fill="#2b61d1"/><g fill="#fff"><path d="m17.5664 24.5249-1.6213.9302-3.4477-2.0331 1.5741-.906.0394-.0232.0599.0352z"/><path d="m23.8392 11.862-.0051 1.8852-3.4227-1.9683-.9245-.532-.928.5383-4.3383 2.513-.9223.5352-.007 1.1038-1.65-.9613-.9138-.5322-.91931.5337-1.55782.9033.03276-3.9706 7.76017-4.51862z"/><path d="m23.8283 15.8982-.0139 5.052-4.3794 2.5111-.0059-.0036-4.3256-2.5355.0288-5.0222 4.3453-2.5136z"/><path d="m13.1782 18.0172-.0188 2.8858-2.4893 1.4358-2.45996-1.4516.02354-2.8759 2.47842-1.4358z"/></g></svg>