<svg xmlns="http://www.w3.org/2000/svg" width="32" height="32" fill="none"><path fill="#19D8C9" d="M16 32c8.837 0 16-7.163 16-16S24.837 0 16 0 0 7.163 0 16s7.163 16 16 16Z"/><path fill="#fff" fill-rule="evenodd" d="M11.612 24.522c.252.253.595.395.953.395a1.335 1.335 0 0 0 1.348-1.337v-5.558h5.492a1.348 1.348 0 0 0-.033-2.696h-5.46V14.32a4.564 4.564 0 0 1 4.565-4.552h.895A1.348 1.348 0 0 0 20.72 8.42a1.36 1.36 0 0 0-1.348-1.36h-.895a7.26 7.26 0 0 0-7.26 7.26v9.249c0 .357.142.7.395.953Z" clip-rule="evenodd"/></svg>