<svg fill="none" height="32" viewBox="0 0 32 32" width="32" xmlns="http://www.w3.org/2000/svg"><path d="m16 32c8.8366 0 16-7.1634 16-16 0-8.83656-7.1634-16-16-16-8.83655 0-16 7.16344-16 16 0 8.8366 7.16345 16 16 16z" fill="#19d8c9"/><path clip-rule="evenodd" d="m11.6116 24.5221c.2528.2528.5957.3948.9533.3948.1765.0015.3515-.032.515-.0986.1635-.0665.3122-.1648.4375-.2891.1254-.1243.2248-.2722.2927-.4351s.1028-.3377.1028-.5142v-5.5575h5.4925c.3518-.0087.6862-.1545.9319-.4064s.3831-.5898.383-.9417c0-.3575-.142-.7004-.3948-.9532s-.5957-.3948-.9532-.3948h-5.4594v-1.0061c.003-1.2084.4851-2.3663 1.3406-3.2197.8555-.8535 2.0146-1.33277 3.223-1.33277h.895c.3575 0 .7004-.14203.9532-.39484s.3949-.5957.3949-.95323c0-.35855-.1417-.70259-.3942-.95715-.2525-.25457-.5954-.39905-.9539-.40196h-.895c-1.9254 0-3.7719.76485-5.1334 2.1263-1.3614 1.36145-2.1263 3.20795-2.1263 5.13335v9.2486c0 .3576.142.7004.3948.9533z" fill="#fff" fill-rule="evenodd"/></svg>