<svg xmlns="http://www.w3.org/2000/svg" width="32" height="32" fill="none"><path fill="#fff" d="M16 32c8.837 0 16-7.163 16-16S24.837 0 16 0 0 7.163 0 16s7.163 16 16 16Z"/><path fill="#000" d="M6.198 4.28c.366-.017.733-.064 1.1-.064 5.292 0 10.585-.016 15.877-.016 1.26 0 1.419.143 1.562 1.386.128 1.084.223 2.153.303 3.236.016.308.016.617 0 .925-.064.016-.143.048-.207.064a5.304 5.304 0 0 1-.446-.765c-.208-.463-.351-.957-.574-1.403a3.468 3.468 0 0 0-2.95-2.12c-2.12-.096-4.24-.048-6.376-.064a1.388 1.388 0 0 0-1.435 1.164 5.96 5.96 0 0 0-.207 1.498 2625.93 2625.93 0 0 0 0 15.877c0 .256.016.512.048.766a2.443 2.443 0 0 0 1.897 2.215l1.483.383a.679.679 0 0 0-.032.175H6.086c-.016-.047-.016-.095-.032-.143.383-.128.681-.234 1.132-.367a2.372 2.372 0 0 0 2.12-2.582c.064-1.562.064-3.14.064-4.719.016-3.65 0-7.3 0-10.951 0-.479-.016-.973-.064-1.45a2.368 2.368 0 0 0-2.263-2.583 17.62 17.62 0 0 1-.877-.224c.003-.08.013-.16.032-.239Z"/></svg>