<svg fill="none" height="32" viewBox="0 0 32 32" width="32" xmlns="http://www.w3.org/2000/svg"><path d="m16 32c8.8366 0 16-7.1634 16-16 0-8.83656-7.1634-16-16-16-8.83656 0-16 7.16344-16 16 0 8.8366 7.16344 16 16 16z" fill="#fff"/><path d="m6.19774 4.27934c.36664-.016.73329-.06377 1.09993-.06377 5.29243 0 10.58493-.01594 15.87733-.01594 1.2593 0 1.4187.14347 1.5622 1.38687.1275 1.084.2232 2.15205.3029 3.236.0159.30799.0159.6166 0 .92459-.0638.01594-.1435.04782-.2072.06376-.1699-.24218-.3192-.49813-.4464-.76517-.2072-.46229-.3507-.95647-.5739-1.40282-.2475-.59149-.6541-1.10278-1.1747-1.47706-.5207-.37428-1.1348-.59689-1.7744-.6431-2.1201-.09565-4.2403-.04782-6.3764-.06376-.3403-.01594-.6745.09385-.9391.30844s-.441.519-.4956.85525c-.1324.48866-.2021.99221-.2072 1.49847-.016 5.2924-.016 10.5849 0 15.8773 0 .2558.016.5114.0478.7652.0359.5242.2398 1.0229.5815 1.422.3418.3992.8031.6776 1.3155.7938l1.4825.3826c-.0183.0568-.029.1157-.0319.1753h-10.15446c-.01594-.0478-.01594-.0956-.03188-.1434.38259-.1276.68083-.2338 1.13182-.3667.6226-.0637 1.19479-.3709 1.59192-.8546.39712-.4837.58699-1.1047.52824-1.7278.06373-1.5622.06373-3.1404.06373-4.7186.01594-3.6505 0-7.301 0-10.95148 0-.47823-.01594-.97241-.06377-1.45064.02933-.3199-.00673-.64242-.10599-.94795-.09927-.30552-.25965-.58765-.4714-.82923-.21175-.24157-.47043-.43754-.76031-.57598-.28989-.13844-.6049-.21645-.92589-.22929-.28694-.06377-.58982-.14347-.87676-.22318.00277-.08056.01345-.16064.03189-.23911z" fill="#000"/></svg>