<svg xmlns="http://www.w3.org/2000/svg" width="32" height="32" fill="none"><path fill="#1969FF" d="M16 32c8.837 0 16-7.163 16-16S24.837 0 16 0 0 7.163 0 16s7.163 16 16 16Z"/><path fill="#fff" fill-rule="evenodd" d="m15.113 5.904-5.08 2.683c-.305.162-.463.392-.485.638h-.002v.034a.7.7 0 0 0 0 .057V22.71c.007.265.163.53.488.702l5.079 2.683c.498.263 1.255.263 1.753 0l5.079-2.683c.326-.172.492-.436.498-.702V9.224h-.004c-.03-.243-.194-.479-.494-.637l-5.08-2.683c-.497-.263-1.254-.263-1.752 0Zm-4.768 16.78 4.768 2.506c.287.153.586.303.876.304.268 0 .528-.127.791-.256l.05-.025 4.814-2.55v-5.914l-4.778 2.524c-.498.263-1.255.263-1.753 0l-4.768-2.519v5.93Zm0-7.694 4.546-2.402-4.546-2.4v4.802Zm6.743-2.402 4.556-2.406v4.813l-4.556-2.407Zm-.596-5.977 5.08 2.683.011.006.008.005-.004.002-.015.009-5.08 2.683c-.264.14-.742.14-1.006 0l-5.079-2.683-.011-.007-.008-.004.004-.003.015-.008 5.08-2.683c.263-.14.741-.14 1.005 0Zm0 6.567 5.08 2.683.011.006.008.005-.004.003-.015.008-5.08 2.683a.72.72 0 0 1-.103.044v-5.476a.744.744 0 0 1 .104.044Zm-.902-.044a.734.734 0 0 0-.104.044l-5.079 2.683-.015.009-.004.002.008.005.011.006 5.08 2.683a.711.711 0 0 0 .103.044v-5.476Zm6.805-6.229-.414.684.289.174.093.058c.08.05.146.091.205.131l.015.01c.271.185.42.337.518.535.12.24.18.579.18 1.096h.799v-.036c-.006-1.18-.293-1.747-1.065-2.268a6.988 6.988 0 0 0-.243-.156l-.054-.033-.323-.195ZM10.019 24.421l-.414.685-.323-.195-.054-.034a6.881 6.881 0 0 1-.243-.156c-.771-.52-1.06-1.087-1.065-2.267v-.036h.8c0 .517.06.856.179 1.096.099.198.247.35.518.534l.015.01c.06.04.125.082.205.132l.094.057.288.174Z" clip-rule="evenodd"/></svg>