<svg fill="none" height="32" viewBox="0 0 32 32" width="32" xmlns="http://www.w3.org/2000/svg"><path d="m16 32c8.8366 0 16-7.1634 16-16 0-8.83656-7.1634-16-16-16-8.83656 0-16 7.16344-16 16 0 8.8366 7.16344 16 16 16z" fill="#1969ff"/><path clip-rule="evenodd" d="m15.1129 5.90387-5.0792 2.68306c-.30606.16169-.46322.39163-.48578.63792h-.00228v.03434c-.00076.01875-.00076.03758 0 .05646v13.32705c-.00086.0186-.0008.0411 0 .0685.00772.2646.16349.5304.48806.7019l5.0792 2.6831c.4978.2628 1.2551.2628 1.7529 0l5.0792-2.6831c.3261-.1721.4921-.4361.4985-.7019h.0004v-.0146-.0028-13.38799-.00202-.07894h-.005c-.0294-.2436-.1941-.47957-.4939-.63792l-5.0792-2.68306c-.4978-.26294-1.2551-.26294-1.7529 0zm-4.7678 16.78073 4.7678 2.5053c.2872.1535.586.3029.8765.3039.2674.0009.5276-.1268.7906-.2557l.0509-.0248 4.8134-2.5503v-5.9142l-4.7785 2.5242c-.4978.263-1.2551.263-1.7529 0l-4.7678-2.5186zm0-7.6949 4.5458-2.4013-4.5458-2.4012zm6.7428-2.4013 4.5564-2.4069v4.8138zm-.5954-5.9775 5.0792 2.68305.0115.00629.008.00456-.0043.0025-.0152.00835-5.0792 2.68305c-.2642.1395-.7421.1395-1.0062 0l-5.0792-2.68305-.0116-.00629-.0079-.00456.0043-.00249.0152-.00836 5.0792-2.68305c.2641-.13952.742-.13952 1.0062 0zm0 6.5673 5.0792 2.683.0115.0063.008.0046-.0043.0025-.0152.0083-5.0792 2.683c-.0317.0168-.0664.0315-.1034.0442v-5.4761c.037.0128.0717.0275.1034.0442zm-.9028-.0442c-.0371.0128-.0718.0275-.1034.0442l-5.0792 2.683-.0152.0084-.0043.0025.0079.0045.0116.0063 5.0792 2.683c.0316.0168.0663.0315.1034.0442zm6.8052-6.22888-.4137.68416.2884.17413.0939.05754c.0797.04932.1452.09129.2045.13136l.0155.01047c.2708.1844.4189.33596.5178.53428.1192.23924.1792.57888.1792 1.0956h.7995v-.03595c-.0057-1.17994-.2934-1.74714-1.0651-2.2674-.0722-.04867-.1494-.09819-.2429-.15582l-.0542-.03333zm-12.3759 17.51628-.41376.6842-.32289-.195-.05429-.0335c-.09336-.0576-.17074-.107-.24293-.1558-.77157-.5202-1.05933-1.0874-1.06499-2.2674l-.0001-.0358h.79948c0 .5166.06004.8563.17926 1.0955.09882.1984.24709.3499.51781.5342l.01545.0106c.05943.04.12487.0819.20453.1314l.09395.0574z" fill="#fff" fill-rule="evenodd"/></svg>