<svg xmlns="http://www.w3.org/2000/svg" width="32" height="32" fill="none"><defs><clipPath id="ftt__a"><path fill="#fff" d="M0 0h32v32H0z"/></clipPath></defs><g clip-path="url(#ftt__a)"><path fill="#fff" d="M16 31.88c8.77 0 15.88-7.11 15.88-15.88S24.77.12 16 .12C7.228.12.12 7.23.12 16S7.228 31.88 16 31.88Z"/><path fill="#5FCADD" d="M16 32a16 16 0 1 1 0-32 16 16 0 0 1 0 32ZM16 .25A15.75 15.75 0 1 0 31.75 16 15.76 15.76 0 0 0 16 .25Z"/><path fill="#02A6C2" d="M11.18 7.34H27.1v5.14H11.18V7.34Z"/><path fill="#5FCADD" d="M11.18 14.43h11.51v5.14H11.18v-5.14Zm-6.28 0h5.14v5.14H4.9v-5.14Z"/><path fill="#ABEBF4" d="M11.19 21.52h5.14v5.14h-5.14v-5.14Z"/></g></svg>