<svg fill="none" height="32" viewBox="0 0 32 32" width="32" xmlns="http://www.w3.org/2000/svg" xmlns:xlink="http://www.w3.org/1999/xlink"><clipPath id="a"><path d="m0 0h32v32h-32z"/></clipPath><g clip-path="url(#a)"><path d="m16 32c3.1645 0 6.2579-.9384 8.8891-2.6965s4.682-4.2569 5.893-7.1806c1.211-2.9236 1.5278-6.1406.9105-9.2443-.6174-3.10373-2.1413-5.95466-4.3789-8.1923s-5.0886-3.761494-8.1923-4.378857c-3.1037-.617364-6.3207-.3005105-9.24434.910487-2.92361 1.21101-5.42247 3.26177-7.18057 5.89295-1.758106 2.63119-2.69649 5.72462-2.69649 8.88912-.00000788 2.1012.413839 4.1817 1.21791 6.123.80407 1.9412 1.98263 3.705 3.46836 5.1907 1.48574 1.4858 3.24957 2.6643 5.19079 3.4684 1.94124.8041 4.02174 1.2179 6.12294 1.2179z" fill="#fff"/><path d="m12.841 26.6483c-1.2581-.3485-2.4312-.9518-3.44656-1.7725-1.00046-.7707-1.86571-1.7024-2.56031-2.7572-.74064-1.1095-1.27443-2.3439-1.57556-3.6436-.34476-1.5567-.34476-3.17 0-4.7267.2938-1.3168.79222-2.5795 1.4771-3.742 1.00265-1.60859 2.43522-2.90475 4.13583-3.74196.5972-.32141 1.2237-.58519 1.871-.78778.9848 1.18168 1.9695 2.46183 2.9542 3.742.0985.19694.2955.29542.3939.49236-.9877.04143-1.9578.27558-2.8557.68928-.7938.415-1.4968.9841-2.0679 1.6741-.562.7429-.9948 1.5752-1.28018 2.4618-.26299 1.0721-.22895 2.1955.09847 3.2496l4.23431-3.3481c.9848 1.2802 1.9695 2.4619 2.9542 3.742-1.3786 1.0832-2.8557 2.1664-4.2343 3.3481 1.3786 1.7725 2.8557 3.6435 4.2343 5.5145-1.4559.1722-2.9318.0381-4.3328-.3939z" fill="#f06"/><path d="m22.2255 14.7193c-.0361-.1612-.0787-.3207-.128-.4786-.1329.1044-3.0625 2.3437-4.2343 3.3481-.9848-1.2802-1.9695-2.4618-2.9543-3.742 1.3787-1.0832 2.8558-2.1664 4.2344-3.3481-1.3786-1.77248-4.3328-5.61296-4.3328-5.61296h1.3786c2.526.02356 4.9643.92921 6.8931 2.56031.9401.77679 1.7396 1.70948 2.3634 2.75725.7348 1.128 1.206 2.407 1.3786 3.742.2638 1.5348.2304 3.106-.0984 4.6282-.2819 1.2755-.8177 2.4812-1.5756 3.5451-.6614 1.0214-1.4942 1.9209-2.4618 2.6587-.9424.8188-2.0511 1.4236-3.2497 1.7726-.8862-1.0832-3.0198-3.8506-3.2496-4.2344.9318.0032 1.8518-.2084 2.6886-.6183.8368-.4098 1.5679-1.007 2.1366-1.7451.5672-.7255.9704-1.5654 1.1817-2.4618.1865-.9133.1965-1.8539.0295-2.771z" fill="#036"/></g></svg>