<svg xmlns="http://www.w3.org/2000/svg" width="32" height="32" fill="none"><defs><clipPath id="fun__a"><path fill="#fff" d="M0 0h32v32H0z"/></clipPath></defs><g clip-path="url(#fun__a)"><path fill="#fff" d="M16 32a16 16 0 1 0 0-32 16 16 0 0 0 0 32Z"/><path fill="#F06" d="M12.841 26.648a9.53 9.53 0 0 1-3.447-1.772 11.4 11.4 0 0 1-2.56-2.757 11.058 11.058 0 0 1-1.575-3.644 10.93 10.93 0 0 1 0-4.727 12.91 12.91 0 0 1 1.477-3.742 10.163 10.163 0 0 1 4.135-3.742 10.677 10.677 0 0 1 1.871-.787c.985 1.181 1.97 2.461 2.955 3.742.098.197.295.295.394.492a7.584 7.584 0 0 0-2.856.69 6.734 6.734 0 0 0-2.068 1.673 8.292 8.292 0 0 0-1.28 2.462 6.075 6.075 0 0 0 .098 3.25l4.235-3.348c.984 1.28 1.97 2.461 2.954 3.742-1.379 1.083-2.856 2.166-4.234 3.348 1.378 1.772 2.855 3.643 4.234 5.514a10.514 10.514 0 0 1-4.333-.394Z"/><path fill="#036" d="M22.226 14.72a6.016 6.016 0 0 0-.128-.48c-.133.105-3.063 2.344-4.235 3.349-.985-1.28-1.97-2.462-2.954-3.742 1.379-1.083 2.856-2.167 4.234-3.348a1925.856 1925.856 0 0 1-4.333-5.613h1.38c2.525.023 4.963.929 6.892 2.56.94.777 1.74 1.71 2.364 2.757a8.96 8.96 0 0 1 1.378 3.742c.264 1.535.23 3.106-.098 4.628a9.728 9.728 0 0 1-1.576 3.546 10.564 10.564 0 0 1-2.462 2.658 8.636 8.636 0 0 1-3.25 1.773c-.886-1.083-3.02-3.85-3.249-4.235a6.065 6.065 0 0 0 4.825-2.363 6.37 6.37 0 0 0 1.182-2.462 7.307 7.307 0 0 0 .03-2.77Z"/></g></svg>