<svg fill="none" height="32" viewBox="0 0 32 32" width="32" xmlns="http://www.w3.org/2000/svg" xmlns:xlink="http://www.w3.org/1999/xlink"><clipPath id="a"><path d="m0 0h32v32h-32z"/></clipPath><g clip-path="url(#a)"><path d="m16.0278.059082c8.8168.0126316 15.9242 7.115788 15.9915 15.865218.0716 8.9221-7.1242 16.1179-15.9705 16.1348-8.80839.0168-16.0168026-7.1369-16.0252237-15.9116-.0126315-8.90948 7.1157837-16.0715759 16.0042237-16.088418zm-6.49266 19.107318c.00422.0758.00422.1263.00843.1727.11789.8463.32842 1.6631.73263 2.421.0674.1221.0505.1895-.0463.2821-.58528.5769-1.16212 1.1621-1.74317 1.739-.2779.2736-.56421.5431-.83369.8.7579.7621 1.48632 1.4863 2.21895 2.2231.80001-.8042 1.62101-1.6 2.40841-2.4295.2568-.2694.4716-.3663.7916-.1557.0505.0336.1179.0463.1768.0631 2.0379.5979 4.0674.5684 6.0927-.0589.1347-.0421.2105-.0337.3073.0673.2863.299.5811.5895.8758.88.5474.5516 1.0947 1.1032 1.6421 1.6506.7411-.7453 1.4695-1.4737 2.1979-2.2021-.4084-.4085-.8168-.8253-1.2253-1.2337-.4126-.4127-.8252-.8169-1.2421-1.2337.56-.9347.7327-1.9326.6442-2.9895-.1305-1.5494-.8547-2.7326-2.1978-3.5242-.8169-.48-1.7221-.741-2.6274-.9979-1.0232-.2905-2.059-.5473-3.0737-.8631-.3579-.1095-.7158-.3032-1.0105-.5432-.6358-.5095-.5811-1.4274.0884-1.8905.2274-.1558.4842-.2863.7453-.3748.8252-.2694 1.6715-.2736 2.5179-.1094.9179.1768 1.4863.741 1.7431 1.6294.0548.1853.1011.3748.1516.5769 1.0737-.0421 2.1432-.08 3.221-.1221-.0168-.6737-.1347-1.2969-.3957-1.8863-.0632-.1432-.0379-.2232.0673-.3242.2905-.2779.5684-.5643.8506-.84636.5852-.58105 1.1705-1.16631 1.7347-1.7221-.7411-.74526-1.4653-1.47368-2.2232-2.23579-.021.03368-.0379.08421-.0715.1179-.8464.85052-1.6927 1.69684-2.5474 2.53894-.0505.05053-.1642.08842-.219.06737-.9431-.38737-1.9284-.53474-2.9389-.56-1.2463-.03369-2.4674.07579-3.6295.57263-.0463.02105-.1473-.01263-.1895-.05474-.2484-.23579-.4884-.48421-.7326-.72421-.6484-.64842-1.2968-1.30105-1.9284-1.93684-.74105.73684-1.47369 1.46526-2.23579 2.22737.06316.04631.13895.08842.1979.14737.82105.81684 1.63789 1.63789 2.45889 2.45056.1011.101.1306.1726.08.3242-.50942 1.4568-.3242 2.8126.6106 4.0547.661.8758 1.5789 1.3853 2.5937 1.7095 1.0736.3452 2.1684.6189 3.2547.9179.6021.1684 1.2126.3073 1.7516.6442.4168.2568.6821.6189.7284 1.12.0758.8295-.4084 1.6252-1.2337 2.0252-.7874.379-1.6253.4211-2.4716.3369-1.2589-.1221-2.1642-.7579-2.6273-1.9579-.1306-.3411-.219-.7032-.3285-1.0737-1.0315.0926-2.0673.1895-3.11996.2905z" fill="#000"/><path d="m9.53518 19.1664c1.05682-.1011 2.08842-.2022 3.11582-.299.1136.3705.1979.7326.3284 1.0737.4631 1.2 1.3684 1.8358 2.6273 1.9579.8464.0842 1.6843.0421 2.4716-.3369.8253-.3957 1.3095-1.1915 1.2337-2.0252-.0463-.5011-.3116-.859-.7284-1.12-.539-.3327-1.1495-.4758-1.7516-.6442-1.0863-.3032-2.181-.5769-3.2547-.9179-1.0148-.3242-1.9327-.8337-2.5937-1.7095-.9347-1.2421-1.12-2.5979-.6105-4.0547.0505-.1474.021-.2232-.08-.3243-.82108-.81258-1.63792-1.63364-2.45898-2.45048-.05894-.05895-.13473-.10105-.19789-.14737.76632-.7621 1.49474-1.48632 2.23579-2.22737.63158.63579 1.27998 1.28421 1.92838 1.93684.2442.24422.4842.48843.7327.72422.0421.0421.1431.07579.1894.05473 1.1621-.49684 2.3832-.61052 3.6295-.57263 1.0105.02947 1.9958.17263 2.939.56.0547.02526.1726-.01684.2189-.06737.8547-.8421 1.7011-1.69263 2.5474-2.53895.0337-.03368.0505-.08421.0715-.11789.7579.7621 1.4822 1.49053 2.2232 2.23579-.56.55579-1.1453 1.13684-1.7347 1.72211-.2821.28207-.56.56837-.8506.84627-.1052.1011-.1305.1811-.0673.3243.261.5894.3789 1.2126.3958 1.8863-1.0779.0421-2.1474.08-3.2211.1221-.0547-.2021-.0968-.3916-.1516-.5769-.2568-.8884-.8252-1.4484-1.7431-1.6294-.8463-.1643-1.6927-.1643-2.5179.1094-.2611.0842-.5221.2148-.7453.3748-.6694.4631-.72 1.381-.0884 1.8905.2947.2358.6484.4295 1.0105.5432 1.0148.3157 2.0506.5726 3.0737.8631.9053.2569 1.8105.5179 2.6274.9979 1.3431.7916 2.0673 1.9747 2.1979 3.5242.0884 1.0569-.0885 2.0548-.6442 2.9895.4168.4126.8336.821 1.2421 1.2337.4126.4126.821.8252 1.2252 1.2337-.7284.7284-1.4526 1.4568-2.1979 2.2021-.5473-.5516-1.0947-1.099-1.6421-1.6506-.2905-.2947-.5894-.581-.8758-.88-.0968-.101-.1768-.1094-.3073-.0673-2.0253.6316-4.0548.6568-6.0927.0589-.0589-.0168-.1263-.0295-.1768-.0631-.32-.2106-.5347-.1137-.7916.1558-.7789.8379-1.6 1.6336-2.39997 2.4379-.73263-.7327-1.46105-1.4611-2.21895-2.2232.26948-.2569.55579-.5263.83369-.8.58105-.5769 1.15789-1.1621 1.74313-1.739.0969-.0926.1095-.16.0463-.2821-.40417-.7579-.61891-1.5747-.73259-2.421-.01263-.0463-.00842-.0969-.01263-.1726z" fill="#fff"/></g></svg>