<svg xmlns="http://www.w3.org/2000/svg" width="32" height="32" fill="none"><defs><clipPath id="fxs__a"><path fill="#fff" d="M0 0h32v32H0z"/></clipPath></defs><g clip-path="url(#fxs__a)"><path fill="#000" d="M16.028.06c8.817.012 15.924 7.115 15.991 15.864.072 8.922-7.124 16.118-15.97 16.135C7.24 32.076.032 24.922.024 16.148.01 7.238 7.139.076 16.028.059ZM9.535 19.165c.004.076.004.127.009.173.117.846.328 1.663.732 2.421.068.122.05.19-.046.282-.585.577-1.162 1.162-1.743 1.74-.278.273-.564.542-.834.8.758.761 1.486 1.485 2.219 2.222.8-.804 1.621-1.6 2.408-2.43.257-.269.472-.365.792-.155.05.034.118.046.177.063 2.038.598 4.067.569 6.092-.059.135-.042.211-.033.308.068.286.299.58.59.876.88.547.551 1.094 1.103 1.642 1.65.74-.745 1.47-1.474 2.198-2.202-.409-.408-.817-.825-1.226-1.234-.412-.412-.825-.817-1.242-1.233.56-.935.733-1.933.644-2.99-.13-1.55-.854-2.732-2.197-3.524-.817-.48-1.723-.741-2.628-.998-1.023-.29-2.059-.547-3.074-.863a3.056 3.056 0 0 1-1.01-.543c-.636-.51-.581-1.428.088-1.89.228-.156.485-.287.746-.375.825-.27 1.671-.274 2.518-.11.917.177 1.486.741 1.743 1.63.055.185.1.374.151.576 1.074-.042 2.143-.08 3.221-.122-.017-.673-.134-1.297-.395-1.886-.064-.143-.038-.223.067-.324.29-.278.568-.565.85-.847.586-.58 1.171-1.166 1.735-1.722L22.133 5.93c-.021.033-.038.084-.072.117a358.82 358.82 0 0 1-2.547 2.54c-.05.05-.164.088-.219.067-.943-.388-1.928-.535-2.939-.56-1.246-.034-2.467.076-3.63.572-.046.021-.147-.012-.189-.054-.248-.236-.488-.485-.732-.725A831.626 831.626 0 0 1 9.876 5.95c-.74.736-1.473 1.465-2.236 2.227.064.046.14.088.198.147.821.817 1.638 1.638 2.46 2.45.1.102.13.174.08.325-.51 1.457-.325 2.813.61 4.055.66.876 1.579 1.385 2.594 1.71 1.073.345 2.168.618 3.254.917.602.169 1.213.308 1.752.644.417.257.682.62.728 1.12.076.83-.408 1.626-1.233 2.026-.788.379-1.626.42-2.472.336-1.259-.122-2.164-.757-2.627-1.957-.131-.341-.22-.704-.329-1.074-1.031.092-2.067.19-3.12.29Z"/><path fill="#fff" d="M9.535 19.166c1.057-.1 2.089-.202 3.116-.299.114.37.198.733.328 1.074.464 1.2 1.369 1.836 2.628 1.958.846.084 1.684.042 2.471-.337.826-.396 1.31-1.191 1.234-2.025-.046-.501-.312-.86-.728-1.12-.54-.333-1.15-.476-1.752-.644-1.086-.303-2.181-.577-3.255-.918-1.014-.324-1.932-.834-2.593-1.71-.935-1.242-1.12-2.598-.61-4.054.05-.148.02-.224-.08-.325-.822-.812-1.639-1.633-2.46-2.45-.059-.06-.135-.101-.198-.148a957.05 957.05 0 0 0 2.236-2.227c.632.636 1.28 1.284 1.928 1.937.245.244.485.488.733.724.042.042.143.076.19.055 1.162-.497 2.383-.61 3.629-.573 1.01.03 1.996.173 2.939.56.055.025.173-.017.219-.067.855-.842 1.701-1.693 2.547-2.54.034-.033.05-.083.072-.117l2.223 2.236-1.735 1.722c-.282.282-.56.568-.85.846-.105.101-.13.181-.068.325.261.589.38 1.212.396 1.886-1.078.042-2.147.08-3.22.122-.056-.202-.098-.392-.152-.577-.257-.888-.826-1.448-1.744-1.63-.846-.164-1.692-.164-2.518.11a2.753 2.753 0 0 0-.745.375c-.67.463-.72 1.38-.088 1.89.294.236.648.43 1.01.543 1.015.316 2.05.573 3.074.864.905.257 1.81.518 2.627.998 1.344.791 2.068 1.974 2.198 3.524.089 1.057-.088 2.055-.644 2.99.417.412.834.82 1.242 1.233.413.413.821.825 1.225 1.234-.728.728-1.452 1.456-2.197 2.202-.548-.552-1.095-1.1-1.643-1.65-.29-.296-.589-.582-.875-.88-.097-.102-.177-.11-.308-.068-2.025.631-4.054.657-6.092.059-.06-.017-.127-.03-.177-.063-.32-.211-.535-.114-.792.155-.779.838-1.6 1.634-2.4 2.438-.732-.732-1.46-1.46-2.219-2.223.27-.257.556-.526.834-.8.581-.577 1.158-1.162 1.743-1.739.097-.093.11-.16.046-.282-.404-.758-.619-1.575-.732-2.421-.013-.046-.009-.097-.013-.173Z"/></g></svg>