<svg fill="none" height="32" viewBox="0 0 32 32" width="32" xmlns="http://www.w3.org/2000/svg"><path d="m16 32c8.8366 0 16-7.1634 16-16 0-8.83656-7.1634-16-16-16-8.83656 0-16 7.16344-16 16 0 8.8366 7.16344 16 16 16z" fill="#011b36"/><g fill="#fff"><path d="m6.21198 10.72 1.467.88v8.8l6.38002 3.96v-7.407l-2.053-1.173-.015-1.766 3.535 2.059v10.927l-9.31402-5.72z"/><path d="m16.002 15.34 3.526-2.051-1.482-.891-2.044 1.21-6.17799-3.603 6.17799-3.318 7.693 4.178 1.51-.879-9.203-4.986-9.20299 4.987z"/><path d="m25.788 10.715v10.567l-9.312 5.718v-1.757l7.852-4.848-.012-7.117-6.37 3.68-.003 2.44-1.467.86v-4.18z"/></g></svg>