<svg width="32" height="32" fill="none" xmlns="http://www.w3.org/2000/svg"><path d="M16 32c8.837 0 16-7.163 16-16S24.837 0 16 0 0 7.163 0 16s7.163 16 16 16Z" fill="#011B36"/><path d="m6.212 10.72 1.467.88v8.8l6.38 3.96v-7.407l-2.053-1.173-.015-1.766 3.535 2.059V27l-9.314-5.72V10.72ZM16.002 15.34l3.526-2.051-1.482-.891-2.044 1.21-6.178-3.603 6.178-3.318 7.693 4.178 1.51-.879L16.002 5 6.799 9.987l9.203 5.353ZM25.788 10.715v10.567L16.476 27v-1.757l7.852-4.848-.012-7.117-6.37 3.68-.003 2.44-1.467.86v-4.18l9.312-5.363Z" fill="#fff"/></svg>