<svg fill="none" height="32" viewBox="0 0 32 32" width="32" xmlns="http://www.w3.org/2000/svg"><path d="m15.5898 32h-.8205-.8206-.8205-.8205-.8205-.8205-.82053v-.8205-.8205h-.82051-.82051-.82052-.82051v-.8206-.8205h-.82051-.82051v-.8205-.8205h.82051.82051.82051.82052.82051.82051.82053.8205.8205.8205.8205.8206.8205.8205.8205.8205.8205.8205.8205.8206.8205.8205.8205.8205.8205.8205.8205v.8205.8205h-.8205-.8205v.8205.8206h-.8205-.8205-.8205-.8205v.8205.8205h-.8205-.8206-.8205-.8205-.8205-.8205-.8205z" fill="#7e18f8"/><path d="m29.5384 22.1539h-.8205-.8205-.8205-.8205-.8205-.8205-.8206-.8205-.8205-.8205-.8205-.8205-.8205-.8206-.8205-.8205-.8205-.8205-.8205-.8205-.8205-.8206-.8205-.82048-.82051-.82052-.82051-.82051-.82051-.82052-.82051-.82051-.82052-.82051v.8205.8205.8205.8205h.82051.82052v.8205.8205h.82051.82051.82052.82051.82051.82051.82052.82051.82048.8205.8206.8205.8205.8205.8205.8205.8205.8205.8206.8205.8205.8205.8205.8205.8205.8206.8205.8205.8205.8205.8205v-.8205-.8205h.8205.8205v-.8205-.8205-.8205-.8205z" fill="#8f17f9"/><path d="m31.1795 9.84615h-.8205v-.82051-.82051-.82051-.82052h-.8205-.8206v-.82051-.82051h-.8205-.8205v-.82052-.82051h-.8205-.8205v-.82051-.82051h-.8205-.8205-.8205-.8206v-.820517-.820513h-.8205-.8205-.8205-.8205-.8205-.8205-.8205-.8206-.8205-.8205-.8205-.8205-.8205-.8205-.82055v.820513.820517h-.82051-.82051-.82051-.82052v.82051.82051h-.82051-.82051v.82051.82052h-.82052-.82051v.82051.82051h-.82051-.82051v.82052.82051.82051.82051h-.820517-.820513v.82055.8205.8205h.820513.820517.82051.82051.82051.82052.82051.82051.82052.82051.82051.82051.82055.8205.8205.8205.8205.8205.8205.8206.8205.8205.8205.8205.8205.8205.8205.8206.8205.8205.8205.8205.8205.8205.8205.8206.8205.8205.8205v-.8205-.8205-.82055z" fill="#fa34f3"/><path d="m31.1795 12.3077h-.8205-.8205-.8206-.8205-.8205-.8205-.8205-.8205-.8205-.8205-.8206-.8205-.8205-.8205-.8205-.8205-.8205-.8205-.8206-.8205-.8205-.8205-.8205-.8205-.8205-.82055-.82051-.82051-.82051-.82052-.82051-.82051-.82052-.82051-.82051-.82051-.820517-.820513v.8205.8205.8205.8205.8205.8205h.820513.820517.82051.82051.82051.82052.82051.82051.82052.82051.82051.82051.82055.8205.8205.8205.8205.8205.8205.8206.8205.8205.8205.8205.8205.8205.8205.8206.8205.8205.8205.8205.8205.8205.8205.8206.8205.8205.8205v-.8205-.8205-.8205-.8205-.8205-.8205z" fill="#cf15f9"/><path d="m31.1795 17.2308h-.8205-.8205-.8206-.8205-.8205-.8205-.8205-.8205-.8205-.8205-.8206-.8205-.8205-.8205-.8205-.8205-.8205-.8205-.8206-.8205-.8205-.8205-.8205-.8205-.8205-.82055-.82051-.82051-.82051-.82052-.82051-.82051-.82052-.82051-.82051-.82051-.820517-.820513v.8205.8205.8205.8205.8206.8205h.820513.820517.82051.82051.82051.82052.82051.82051.82052.82051.82051.82051.82055.8205.8205.8205.8205.8205.8205.8206.8205.8205.8205.8205.8205.8205.8205.8206.8205.8205.8205.8205.8205.8205.8205.8206.8205.8205.8205v-.8205-.8206-.8205-.8205-.8205-.8205z" fill="#ac15f9"/><g fill="#fff"><path d="m20.7656 18.8061v.5654h.5654.5645v-.5654-.5645-.5645h-.5645-.5654v.5645z"/><path d="m19.6365 19.3715h-.5654-.5645-.5645-.5653-.5645v.5645.5645h.5645.5653.5645.5645v.5653.5645h.5654.5645v-.5645-.5653h.5645v-.5645-.5645h-.5645z"/><path d="m17.9421 17.6771h.5646.5645.5653.5645.5645v-.5653-.5645h-.5645-.5645-.5653-.5645-.5646v.5645z"/><path d="m16.8123 14.853v.5645.5653.5645h.5645.5653v-.5645-.5653-.5645h-.5653z"/><path d="m20.7655 13.7231h-.5645v-.5645-.5645h-.5645-.5653v.5645.5645h-.5646-.5645v.5653.5645h.5645.5646.5653.5645.5645.5653.5646v-.5645-.5653h-.5646z"/><path d="m28.1083 13.7231h-.5653-.5645-.5645-.5653-.5646-.5645-.5653-.5645-.5645v.5653.5645h.5645.5645.5653.5645v.5645.5654.5645.5645.5653.5645.5646.5653.5645.5645h.5646.5653v-.5645-.5645-.5653-.5646-.5645-.5653-.5645-.5645-.5654-.5645h.5645.5645.5653.5646v-.5645-.5653z"/><path d="m14.5535 13.7231v.5653.5645.5645.5654.5645h-.5653-.5645-.5645-.5654-.5645v-.5645-.5654-.5645-.5645-.5653h-.5645-.5653v.5653.5645.5645.5654.5645.5645.5653.5645.5646.5653.5645.5645h.5653.5645v-.5645-.5645-.5653-.5646-.5645h.5645.5654.5645.5645.5653v.5645.5646.5653.5645.5645h.5646.5645v-.5645-.5645-.5653-.5646-.5645-.5653-.5645-.5645-.5654-.5645-.5645-.5653h-.5645z"/><path d="m8.34049 13.7231h-.5645-.56534-.56451-.56451-.56534-.56451v.5653.5645h.56451.56534.56451.56451.56534.5645.56451.56533v-.5645-.5653h-.56533z"/><path d="m9.47037 19.3715v-.5653-.5645-.5645-.5654-.5645h-.56533-.56451-.56451-.56533-.56451-.56451v.5645.5654h.56451.56451.56533.56451v.5645.5645.5653h.56451z"/><path d="m4.95178 20.5005h.56452.56533.56451.56452.56533.56451v-.5645-.5645h-.56451-.56533-.56452-.56451-.56533-.56452v.5645z"/><path d="m3.82202 14.853v.5645.5653.5645.5645.5654.5645.5646.5653h.56533.56452v-.5653-.5646-.5645-.5654-.5645-.5645-.5653-.5645h-.56452z"/></g></svg>