<svg width="32" height="32" fill="none" xmlns="http://www.w3.org/2000/svg"><path d="M15.59 32H9.847v-1.641H6.564v-1.641H4.923v-1.641H27.075v1.64h-1.64v1.642h-3.282V32H15.59Z" fill="#7E18F8"/><path d="M29.538 22.154H1.641V25.435h1.641v1.641H28.717v-1.64h1.641v-3.282h-.82Z" fill="#8F17F9"/><path d="M31.18 9.846h-.821V6.565h-1.641V4.923h-1.641V3.282h-1.641V1.64h-3.282V0H9.847v1.641H6.564v1.641H4.923v1.641H3.282v1.641H1.64v3.282H0v2.461H32v-2.46h-.82Z" fill="#FA34F3"/><path d="M31.18 12.308H0v4.922H32v-4.922h-.82Z" fill="#CF15F9"/><path d="M31.18 17.23H0v4.923H32v-4.922h-.82Z" fill="#AC15F9"/><path d="M20.766 18.806v.566h1.129V17.677h-1.129v1.129ZM19.637 19.372H16.812V20.5h2.259v1.13h1.13V20.5h.564v-1.128h-1.128ZM17.942 17.677h2.823v-1.13h-2.823v1.13ZM16.812 14.853v1.694h1.13v-1.694h-1.13ZM20.765 13.723h-.564v-1.129h-1.13v1.129h-1.129v1.13h3.953v-1.13h-1.13ZM28.108 13.723h-5.083v1.13h2.259V20.5h1.13V14.854h2.259v-1.13h-.565ZM14.553 13.723v2.824H11.73v-2.824H10.6V20.5h1.129v-2.823H14.554V20.5h1.129V13.723h-1.13ZM8.34 13.723H4.952v1.13H9.47v-1.13H8.34ZM9.47 19.372V16.547H6.082v1.13H8.34V19.372H9.47ZM4.952 20.5H8.34v-1.128H4.952V20.5ZM3.822 14.853v4.519h1.13V14.853h-1.13Z" fill="#fff"/></svg>