<svg xmlns="http://www.w3.org/2000/svg" width="32" height="32" fill="none"><path fill="#7E18F8" d="M15.59 32H9.847v-1.641H6.564v-1.641H4.923v-1.641h22.152v1.64h-1.64v1.642h-3.282V32H15.59Z"/><path fill="#8F17F9" d="M29.538 22.154H1.641v3.281h1.641v1.641h25.435v-1.64h1.641v-3.282h-.82Z"/><path fill="#FA34F3" d="M31.18 9.846h-.821V6.565h-1.641V4.923h-1.641V3.282h-1.641V1.64h-3.282V0H9.847v1.641H6.564v1.641H4.923v1.641H3.282v1.641H1.64v3.282H0v2.461h32v-2.46h-.82Z"/><path fill="#CF15F9" d="M31.18 12.308H0v4.922h32v-4.922h-.82Z"/><path fill="#AC15F9" d="M31.18 17.23H0v4.923h32v-4.922h-.82Z"/><path fill="#fff" d="M20.766 18.806v.566h1.129v-1.695h-1.129v1.129Zm-1.129.566h-2.825V20.5h2.259v1.13h1.13V20.5h.564v-1.128h-1.128Zm-1.695-1.695h2.823v-1.13h-2.823v1.13Zm-1.13-2.824v1.694h1.13v-1.694h-1.13Zm3.953-1.13h-.564v-1.129h-1.13v1.129h-1.129v1.13h3.953v-1.13h-1.13Zm7.343 0h-5.083v1.13h2.259V20.5h1.13v-5.646h2.259v-1.13h-.565Zm-13.555 0v2.824H11.73v-2.824H10.6V20.5h1.129v-2.823h2.825V20.5h1.129v-6.777h-1.13Zm-6.213 0H4.952v1.13H9.47v-1.13H8.34Zm1.13 5.649v-2.825H6.082v1.13H8.34v1.695h1.13ZM4.952 20.5H8.34v-1.128H4.952V20.5Zm-1.13-5.647v4.519h1.13v-4.519h-1.13Z"/></svg>