<svg width="32" height="32" fill="none" xmlns="http://www.w3.org/2000/svg"><path d="M16 32c8.837 0 16-7.163 16-16S24.837 0 16 0 0 7.163 0 16s7.163 16 16 16Z" fill="#fff"/><path d="M18.404 5.24a7.885 7.885 0 0 0-7.885 7.886v.028a.388.388 0 0 0 .389.366H25.9a.388.388 0 0 0 .388-.366v-.028h.001a7.885 7.885 0 0 0-7.885-7.885" fill="#53CBC8"/><path d="M5.3 21.93a.48.48 0 1 1-.96 0 .48.48 0 0 1 .96 0M25.379 19.274H9.292a.474.474 0 0 0-.416.698l.008.015a.472.472 0 0 0 .416.247h16.07a.472.472 0 0 0 .417-.247l.008-.015a.474.474 0 0 0-.416-.698M27.517 14.924H9.29a.473.473 0 0 0-.471.5v.015a.472.472 0 0 0 .472.445h18.224a.472.472 0 0 0 .472-.445v-.015a.475.475 0 0 0-.471-.5M20.654 25.8H12.44a.473.473 0 0 0-.211.895l.03.015a.47.47 0 0 0 .21.05h8.154a.47.47 0 0 0 .21-.05l.03-.015a.472.472 0 0 0-.21-.895M25.672 23.625H17.46a.473.473 0 0 0-.21.895l.03.015a.47.47 0 0 0 .21.05h8.153a.47.47 0 0 0 .211-.05l.03-.015a.473.473 0 0 0-.21-.895M14.473 22.258l-.014-.015a.472.472 0 0 1 .346-.793h13.33a.472.472 0 0 1 .347.793l-.014.015a.477.477 0 0 1-.346.151H14.819a.476.476 0 0 1-.346-.15M6.533 21.45H12.9a.473.473 0 0 1 .21.895l-.03.015a.47.47 0 0 1-.21.05H6.563a.471.471 0 0 1-.21-.05l-.03-.015a.473.473 0 0 1 .21-.895M8.057 15.404a.48.48 0 1 1-.96 0 .48.48 0 0 1 .96 0M19.37 17.709l.003-.015a.474.474 0 0 0-.457-.595H5.584a.47.47 0 0 0-.456.595l.004.015a.474.474 0 0 0 .456.35h13.325a.473.473 0 0 0 .456-.35M4.35 17.58a.48.48 0 1 1-.96 0 .48.48 0 0 1 .96 0M8.057 19.754a.48.48 0 1 1-.96 0 .48.48 0 0 1 .96 0M16.225 24.105a.48.48 0 1 1-.96 0 .48.48 0 0 1 .96 0M11.207 26.28a.48.48 0 1 1-.96 0 .48.48 0 0 1 .96 0" fill="#E1147B"/></svg>