<svg fill="none" height="32" viewBox="0 0 32 32" width="32" xmlns="http://www.w3.org/2000/svg"><path d="m16 32c8.8366 0 16-7.1634 16-16 0-8.83656-7.1634-16-16-16-8.83656 0-16 7.16344-16 16 0 8.8366 7.16344 16 16 16z" fill="#fff"/><path d="m18.4039 5.24051c-2.0912.00001-4.0968.83077-5.5756 2.30951-1.4787 1.47874-2.3095 3.48438-2.3095 5.57558h.0002c0 .0055-.0003.0109 0 .0165l.0006.0123c.0056.0991.049.1922.1212.2603s.1677.1059.267.1057h14.9923c.0992.0002.1947-.0376.2669-.1057s.1156-.1612.1212-.2603l.0007-.0123c.0003-.0056-.0001-.011 0-.0165h.0001c0-2.0912-.8307-4.09684-2.3095-5.57558-1.4787-1.47874-3.4843-2.3095-5.5756-2.30951" fill="#53cbc8"/><g fill="#e1147b"><path d="m5.29908 21.9295c-.00001.0949-.02816.1877-.08089.2666s-.12768.1404-.21536.1767-.18416.0458-.27724.0273-.17858-.0642-.24569-.1313c-.06711-.0672-.11281-.1527-.13132-.2457-.01852-.0931-.00902-.1896.0273-.2773.03631-.0877.09781-.1626.17672-.2153.07891-.0528.17168-.0809.26659-.0809.06302 0 .12542.0124.18365.0365.05822.0241.11112.0595.15569.104.04456.0446.07991.0975.10402.1557.02412.0583.03653.1207.03653.1837"/><path d="m25.3789 19.2745h-16.0871c-.08182.0001-.16221.0214-.23333.0618-.07112.0405-.13053.0987-.17242.1689-.0419.0703-.06485.1502-.0666.232-.00176.0818.01773.1627.05657.2347l.008.0149c.04053.0749.10058.1375.17378.181.0732.0436.15682.0665.242.0664h16.071c.0851.0001.1688-.0228.242-.0664.0732-.0435.1332-.1061.1738-.181l.0081-.0149c.0388-.072.0582-.1529.0565-.2346-.0018-.0818-.0248-.1618-.0667-.232-.0418-.0703-.1012-.1285-.1723-.1689-.0711-.0405-.1515-.0618-.2333-.0619"/><path d="m27.5168 14.9243h-18.22545c-.06431.0002-.12792.0134-.18695.039-.05903.0255-.11224.0628-.15638.1096-.04414.0467-.0783.102-.10038.1624s-.03163.1247-.02806.1889l.00087.015c.00682.1204.05953.2336.14728.3164.08775.0827.20388.1287.32449.1284h18.22368c.1206.0003.2367-.0457.3245-.1284.0877-.0828.1405-.196.1473-.3164l.0008-.015c.0036-.0642-.006-.1285-.028-.1889-.0221-.0604-.0563-.1157-.1004-.1624-.0441-.0468-.0973-.0841-.1564-.1096-.059-.0256-.1226-.0388-.1869-.039"/><path d="m20.6539 25.7997h-8.2134c-.1064.0001-.2098.0362-.2932.1023-.0834.0662-.1421.1585-.1665.2622-.0244.1036-.013.2125.0322.3089s.1216.1747.2168.2222l.03.0151c.0655.0325.1377.0493.2108.049h8.1532c.0731.0003.1452-.0165.2107-.049l.03-.0151c.0953-.0475.1717-.1258.2169-.2222s.0565-.2053.0322-.3089c-.0244-.1037-.0831-.196-.1665-.2622-.0834-.0661-.1868-.1022-.2932-.1023"/><path d="m25.6725 23.6247h-8.2134c-.1065.0001-.2098.0361-.2932.1022-.0835.0662-.1421.1586-.1665.2622s-.0131.2125.0321.3089.1217.1747.2169.2223l.03.015c.0655.0325.1377.0493.2108.049h8.1531c.0731.0003.1453-.0165.2108-.049l.0299-.015c.0953-.0476.1717-.1259.2169-.2223s.0566-.2052.0322-.3089c-.0244-.1036-.083-.196-.1664-.2621-.0835-.0662-.1868-.1022-.2933-.1023"/><path d="m14.4727 22.2583-.014-.0149c-.0626-.0674-.1041-.1516-.1195-.2422-.0154-.0907-.004-.1839.0328-.2682s.0974-.156.1744-.2063c.0769-.0504.1669-.0772.2589-.0771h13.3305c.092-.0001.182.0267.2589.077.077.0504.1376.1221.1744.2064s.0482.1775.0328.2682c-.0154.0906-.0569.1748-.1195.2422l-.0139.0149c-.0444.0475-.0981.0854-.1577.1114s-.1238.0394-.1889.0396h-13.3027c-.065-.0002-.1293-.0136-.1889-.0396s-.1132-.0639-.1576-.1114"/><path d="m6.5333 21.4496h6.3657c.1064.0001.2098.0361.2932.1022.0834.0662.1421.1586.1665.2622.0244.1037.013.2125-.0322.3089s-.1216.1747-.2169.2223l-.03.015c-.0654.0325-.1375.0493-.2106.0491h-6.30561c-.0731.0002-.14526-.0166-.21075-.0491l-.03-.015c-.09526-.0476-.17169-.1259-.21689-.2223s-.05654-.2052-.03216-.3088c.02437-.1037.08302-.1961.16645-.2622.08343-.0662.18674-.1022.29321-.1023"/><path d="m8.05738 15.4042c0 .0949-.02813.1877-.08085.2666s-.12766.1404-.21534.1767c-.08768.0364-.18417.0459-.27725.0274-.09309-.0186-.1786-.0643-.24571-.1314-.06712-.0671-.11282-.1526-.13135-.2456-.01852-.0931-.00902-.1896.02729-.2773.03632-.0877.09781-.1626.17672-.2154.07891-.0527.17169-.0808.2666-.0809.06301 0 .12541.0124.18364.0366.05822.0241.11112.0594.15568.104.04457.0445.07991.0974.10403.1556.02412.0583.03653.1206.03654.1837"/><path d="m19.3691 17.7088.0041-.0149c.0187-.07.0211-.1434.007-.2145-.0142-.071-.0445-.1379-.0887-.1954-.0441-.0575-.1009-.104-.1659-.136-.0651-.032-.1366-.0486-.2091-.0486h-13.3322c-.07248-.0001-.14401.0165-.20904.0486-.06503.032-.12183.0785-.16598.136s-.07447.1243-.08862.1954-.01175.1445.00703.2145l.00406.0149c.02709.1005.08647.1892.16898.2525s.18356.0977.28756.0978h13.32431c.104-.0001.205-.0345.2875-.0978.0825-.0634.1419-.152.169-.2525"/><path d="m4.34961 17.5792c.00001.095-.02813.1877-.08085.2666-.05272.079-.12766.1405-.21534.1768s-.18416.0458-.27725.0273c-.09308-.0185-.17859-.0642-.2457-.1313-.06712-.0671-.11283-.1526-.13135-.2457-.01852-.093-.00903-.1895.02729-.2772.03631-.0877.09781-.1627.17672-.2154s.17169-.0809.26659-.0809c.12727 0 .24932.0506.33931.1406.09.0899.14057.212.14058.3392"/><path d="m8.05738 19.7543c0 .0949-.02813.1877-.08085.2666s-.12766.1405-.21534.1768-.18417.0458-.27725.0273c-.09309-.0185-.1786-.0642-.24571-.1313-.06712-.0671-.11282-.1526-.13135-.2457-.01852-.0931-.00902-.1896.02729-.2772.03632-.0877.09781-.1627.17672-.2154s.17169-.0809.2666-.0809c.12726 0 .24931.0506.33931.1405.08999.09.14056.2121.14058.3393"/><path d="m16.2249 24.1046c0 .0949-.0282.1877-.0809.2666-.0528.0789-.1277.1404-.2154.1767s-.1841.0458-.2772.0273-.1786-.0642-.2457-.1313-.1128-.1526-.1313-.2457c-.0186-.0931-.0091-.1896.0273-.2773.0363-.0876.0978-.1626.1767-.2153.0789-.0528.1717-.0809.2666-.0809.063 0 .1254.0124.1836.0365s.1112.0595.1557.104c.0446.0446.0799.0975.104.1557.0242.0583.0366.1207.0366.1837"/><path d="m11.2065 26.2797c0 .0949-.0281.1876-.0808.2665-.0528.079-.1277.1405-.2154.1768s-.1842.0458-.2772.0273c-.0931-.0185-.1786-.0642-.2457-.1314-.0671-.0671-.1128-.1526-.1314-.2456-.0185-.0931-.009-.1896.0273-.2773.0364-.0877.0979-.1626.1768-.2153.0789-.0528.1717-.0809.2666-.0809.063 0 .1254.0124.1836.0365s.1111.0594.1557.104.0799.0975.104.1557.0366.1206.0365.1837"/></g></svg>