<svg width="32" height="32" fill="none" xmlns="http://www.w3.org/2000/svg"><path d="M16.034 31.077c8.326 0 15.077-6.75 15.077-15.077S24.36.923 16.034.923.957 7.673.957 16s6.75 15.077 15.077 15.077Z" fill="#E6BC7B" stroke="#E6BC7B" stroke-width="1.296" stroke-linecap="round" stroke-linejoin="round"/><path d="M14.153 24.224v-3.805h3.76v3.805m0-16.448v3.805h-3.761V7.776h3.762Z" stroke="#000" stroke-width="1.296" stroke-linecap="round" stroke-linejoin="round"/><path d="M14.153 15.888h8.007v4.532H9.908v-8.84H22.16" stroke="#000" stroke-width="1.296" stroke-linecap="round" stroke-linejoin="round"/><path d="M16.034 28.196c6.735 0 12.196-5.46 12.196-12.196S22.77 3.804 16.034 3.804 3.838 9.264 3.838 16s5.46 12.196 12.196 12.196Z" stroke="#000" stroke-width="1.296" stroke-linecap="round" stroke-linejoin="round"/></svg>