<svg fill="none" height="32" viewBox="0 0 32 32" width="32" xmlns="http://www.w3.org/2000/svg"><path d="m16 32c8.8366 0 16-7.1634 16-16 0-8.83656-7.1634-16-16-16-8.83656 0-16 7.16344-16 16 0 8.8366 7.16344 16 16 16z" fill="#001428"/><g fill="#fff"><path d="m12.292 17.2474c.5181.0006 1.0215-.1714 1.431-.4887l-3.2823-3.2787c-.2675.3461-.4326.7603-.47667 1.1955-.04403.4352.03482.874.22757 1.2667.1928.3927.4918.7235.863.9548.3713.2313.8.354 1.2374.354zm9.7569-2.3409c0-.5167-.1722-1.0187-.4896-1.4265l-3.2823 3.2787c.3462.2678.7605.4332 1.1959.4773.4355.0442.8746-.0347 1.2674-.2276.3929-.1929.7238-.4922.9551-.8637.2313-.3716.3538-.8005.3535-1.2382z"/><path d="m23.6986 11.3371-1.4517 1.4517c.5301.6335.8038 1.4426.7672 2.2678-.0366.8253-.3809 1.6069-.965 2.191s-1.3657.9283-2.191.965c-.8252.0366-1.6343-.2371-2.2678-.7672l-1.5903 1.5903-1.5903-1.5903c-.6335.5301-1.4426.8038-2.2678.7672-.8253-.0367-1.6069-.3809-2.19099-.965-.58411-.5841-.92836-1.3657-.96497-2.191-.03661-.8252.23707-1.6343.76716-2.2678l-.7461-.7488-.7056-.7056c-.82655 1.365-1.27531 2.9252-1.3003 4.5208-.02498 1.5956.37472 3.1691 1.15813 4.5593s1.92237 2.5472 3.30017 3.3522c1.3778.8051 2.9448 1.2294 4.5406 1.2294s3.1628-.4243 4.5406-1.2294c1.3778-.805 2.5168-1.962 3.3002-3.3522s1.1831-2.9637 1.1581-4.5593-.4737-3.1558-1.3003-4.5208z"/><path d="m22.5115 9.79c-.8404-.88081-1.8508-1.58197-2.97-2.06102-1.1193-.47906-2.324-.72606-3.5415-.72606-1.2174 0-2.4222.247-3.5414.72606-1.1193.47905-2.1297 1.18021-2.97008 2.06102-.22288.2344-.43317.4804-.63.7371l7.14148 7.1406 7.1433-7.1424c-.1974-.2561-.4083-.5015-.6318-.7353zm-6.5115-1.6128c1.0284-.00515 2.0475.19494 2.9976.58855s1.8122.97284 2.5356 1.70375l-5.5332 5.5305-5.5332-5.5305c.7235-.73091 1.5855-1.31012 2.5356-1.70374.9501-.39361 1.9692-.5937 2.9976-.58856z"/></g></svg>