<svg xmlns="http://www.w3.org/2000/svg" width="32" height="32" fill="none"><path fill="#001428" d="M16 32c8.837 0 16-7.163 16-16S24.837 0 16 0 0 7.163 0 16s7.163 16 16 16Z"/><path fill="#fff" d="M12.292 17.247a2.332 2.332 0 0 0 1.431-.488l-3.282-3.279a2.34 2.34 0 0 0 1.851 3.771v-.004Zm9.757-2.34c0-.517-.172-1.02-.49-1.427l-3.282 3.279a2.34 2.34 0 0 0 3.772-1.853Z"/><path fill="#fff" d="m23.699 11.337-1.452 1.452a3.306 3.306 0 0 1-4.657 4.656L16 19.035l-1.59-1.59a3.306 3.306 0 0 1-4.657-4.656l-.746-.749-.706-.706a9 9 0 1 0 15.398 0v.003Z"/><path fill="#fff" d="M22.512 9.79a9 9 0 0 0-13.653.737L16 17.667l7.143-7.142a9.132 9.132 0 0 0-.631-.735ZM16 8.177a7.73 7.73 0 0 1 5.533 2.293L16 16l-5.533-5.53A7.732 7.732 0 0 1 16 8.177Z"/></svg>