<svg xmlns="http://www.w3.org/2000/svg" width="32" height="32" fill="none"><path fill="#181EA9" d="M16 32c8.837 0 16-7.163 16-16S24.837 0 16 0 0 7.163 0 16s7.163 16 16 16Z"/><path fill="#fff" d="M15.877 25c-2.388 0-4.377-1.99-4.377-4.377 0-1.99 1.293-3.68 3.183-4.178v-.597c-1.89-.497-3.183-2.188-3.183-4.178 0-2.387 1.99-4.377 4.377-4.377.796 0 1.492.2 2.188.597L19.955 6l1.592 1.592-1.89 1.89c.398.696.597 1.392.597 2.188 0 1.99-1.293 3.68-3.183 4.178v.597c1.89.497 3.183 2.189 3.183 4.178 0 2.387-1.99 4.377-4.377 4.377Zm0-6.466c-1.194 0-2.089.895-2.089 2.089s.895 2.089 2.089 2.089 2.089-.895 2.089-2.089-.895-2.089-2.089-2.089Zm0-8.953c-1.194 0-2.089.895-2.089 2.09 0 1.193.895 2.088 2.089 2.088s2.089-.895 2.089-2.089-.895-2.089-2.089-2.089Z"/></svg>