<svg width="32" height="32" fill="none" xmlns="http://www.w3.org/2000/svg"><path d="M16 32c8.837 0 16-7.163 16-16S24.837 0 16 0 0 7.163 0 16s7.163 16 16 16Z" fill="#fff"/><path d="M10.84 8.293a1.518 1.518 0 1 0 0-3.037 1.518 1.518 0 0 0 0 3.037ZM7.037 12.297a1.518 1.518 0 1 0 0-3.037 1.518 1.518 0 0 0 0 3.037ZM5.518 17.503a1.518 1.518 0 1 0 0-3.037 1.518 1.518 0 0 0 0 3.037ZM7.037 22.708a1.518 1.518 0 1 0 0-3.037 1.518 1.518 0 0 0 0 3.037ZM10.84 26.712a1.518 1.518 0 1 0 0-3.037 1.518 1.518 0 0 0 0 3.037Z" fill="#008BCC"/><path d="M23.826 14.385a.905.905 0 0 1 .906.813c.025.264.039.531.039.802a8.994 8.994 0 0 1-8.985 8.983 1.615 1.615 0 1 0 .002 3.23 12.212 12.212 0 0 0 0-24.425 1.617 1.617 0 0 0-1.56 2.038 1.646 1.646 0 0 0 1.597 1.191 8.94 8.94 0 0 1 6.052 2.398 1.666 1.666 0 0 1-.027 2.074 1.881 1.881 0 0 1-2.486.126.216.216 0 0 0-.035-.014 5.652 5.652 0 1 0 1.621 6.712.497.497 0 0 0-.452-.699h-4.642a1.654 1.654 0 0 1-1.6-1.088 1.618 1.618 0 0 1 1.532-2.14l8.038-.001Z" fill="#23297C"/></svg>