<svg xmlns="http://www.w3.org/2000/svg" width="32" height="32" fill="none"><path fill="#fff" d="M16 32c8.837 0 16-7.163 16-16S24.837 0 16 0 0 7.163 0 16s7.163 16 16 16Z"/><path fill="#008BCC" d="M10.84 8.293a1.518 1.518 0 1 0 0-3.037 1.518 1.518 0 0 0 0 3.037Zm-3.803 4.004a1.518 1.518 0 1 0 0-3.037 1.518 1.518 0 0 0 0 3.037Zm-1.519 5.206a1.518 1.518 0 1 0 0-3.037 1.518 1.518 0 0 0 0 3.037Zm1.519 5.205a1.518 1.518 0 1 0 0-3.037 1.518 1.518 0 0 0 0 3.037Zm3.803 4.004a1.518 1.518 0 1 0 0-3.037 1.518 1.518 0 0 0 0 3.037Z"/><path fill="#23297C" d="M23.826 14.385a.905.905 0 0 1 .906.813c.025.264.039.531.039.802a8.994 8.994 0 0 1-8.985 8.983 1.615 1.615 0 1 0 .002 3.23 12.212 12.212 0 0 0 0-24.425 1.617 1.617 0 0 0-1.56 2.038 1.646 1.646 0 0 0 1.597 1.191 8.94 8.94 0 0 1 6.052 2.398 1.666 1.666 0 0 1-.027 2.074 1.881 1.881 0 0 1-2.486.126.216.216 0 0 0-.035-.014 5.652 5.652 0 1 0 1.621 6.712.497.497 0 0 0-.452-.699h-4.642a1.654 1.654 0 0 1-1.6-1.088 1.618 1.618 0 0 1 1.532-2.14l8.038-.001Z"/></svg>