<svg xmlns="http://www.w3.org/2000/svg" width="32" height="32" fill="none"><defs><linearGradient id="grs__a" x1="4.796" x2="27.606" y1="2.952" y2="29.517" gradientUnits="userSpaceOnUse"><stop stop-color="#009CC3"/><stop offset="1" stop-color="#006896"/></linearGradient></defs><path fill="url(#grs__a)" d="M16 32c8.837 0 16-7.163 16-16S24.837 0 16 0 0 7.163 0 16s7.163 16 16 16Z"/><path fill="#66ACC5" d="M16 0C7.163 0 0 7.163 0 16s7.163 16 16 16 16-7.163 16-16S24.837 0 16 0Zm0 31C7.716 31 1 24.284 1 16 1 7.716 7.716 1 16 1c8.284 0 15 6.716 15 15 0 8.284-6.716 15-15 15Z"/><path fill="#fff" d="M25.05 10.576c-.115-.072-.162.053-.214.121-.285.372-.663.536-1.126.584-.562.058-1.123.029-1.579.043-.543 0-.98.002-1.418-.001-.09 0-.21.032-.259-.062-.061-.121.07-.181.135-.252.697-.745 1.408-1.477 2.091-2.235.68-.753 1.279-1.565 1.655-2.52.21-.535.292-1.09.179-1.655-.212-1.052-1.091-1.853-2.251-1.996-1.699-.21-2.792.852-3.054 2.395-.012.072-.057.182.062.208.085.019.118-.07.152-.134.083-.156.153-.32.247-.469.492-.776 1.46-1.165 2.306-.931.857.236 1.397 1.003 1.425 1.976.024.863-.3 1.608-.738 2.315-.665 1.07-1.537 1.966-2.422 2.851-.124.124-.234.134-.385.046-1.357-.796-2.833-1.041-4.386-.977-1.94.08-3.566.806-4.872 2.256-2.374 2.635-1.884 7.14 1.48 8.931.308.163.308.186.03.42-.544.454-1.062.938-1.55 1.45-.52.555-.941 1.168-1.12 1.922-.131.558-.006 1.051.382 1.476.27.295.59.525.922.742.435.286.431.28.076.657-.677.72-1.4 1.399-2.011 2.18-.053.068-.13.171-.205.273.572.298 1.162.562 1.766.79a6.345 6.345 0 0 1 .003-.348c.008-.187.04-.372.092-.552.285-.98.907-1.745 1.585-2.473.123-.133.282-.103.44-.082a41 41 0 0 0 3.11.273c1.558.084 3.12.123 4.678.203.675.035 1.35.117 2 .322.834.263 1.15.67 1.19 1.541.002.069 0 .178-.004.292a16 16 0 0 0 1.309-.773c.028-.127.04-.257.036-.387-.036-.84-.299-1.592-.845-2.236-.66-.78-1.518-1.22-2.504-1.424-1.146-.238-2.315-.253-3.478-.31-1.31-.065-2.621-.084-3.93-.145-.519-.025-1.04-.078-1.53-.276-.609-.247-.82-.718-.606-1.332.202-.58.598-1.016 1.027-1.433.2-.194.393-.25.673-.178a8.984 8.984 0 0 0 4.27.075c4.06-.924 5.796-4.991 3.991-8.502-.128-.25-.103-.298.195-.301a96.207 96.207 0 0 1 1.937-.002c.201.001.333-.06.401-.265.207-.622.427-1.24.638-1.862.025-.073.092-.173.003-.23Zm-5.963 8.18c-.378 1.267-1.194 2.097-2.528 2.294-1.293.191-2.325-.294-3.082-1.359-.698-.98-.99-2.1-1.107-3.276-.037-.382-.09-.766-.071-.993.018-.976.085-1.785.379-2.554.395-1.036 1.093-1.767 2.188-2.05 1.242-.32 2.476.16 3.266 1.244.616.845.945 1.804 1.095 2.826.19 1.296.24 2.594-.14 3.868Z"/></svg>