<svg fill="none" height="32" viewBox="0 0 32 32" width="32" xmlns="http://www.w3.org/2000/svg" xmlns:xlink="http://www.w3.org/1999/xlink"><linearGradient id="a" gradientUnits="userSpaceOnUse" x1="4.79623" x2="27.6064" y1="2.95207" y2="29.5168"><stop offset="0" stop-color="#009cc3"/><stop offset="1" stop-color="#006896"/></linearGradient><path d="m16 32c8.8366 0 16-7.1634 16-16 0-8.83656-7.1634-16-16-16-8.83656 0-16 7.16344-16 16 0 8.8366 7.16344 16 16 16z" fill="url(#a)"/><path d="m16 0c-8.83656 0-16 7.16344-16 16 0 8.8366 7.16344 16 16 16 8.8366 0 16-7.1634 16-16 0-8.83656-7.1634-16-16-16zm0 31c-8.28427 0-15-6.7157-15-15 0-8.28427 6.71573-15 15-15 8.2843 0 15 6.71573 15 15 0 8.2843-6.7157 15-15 15z" fill="#66acc5"/><path d="m25.0494 10.5759c-.1141-.072-.1614.0531-.2135.1212-.2847.3718-.6627.5357-1.1257.5835-.5623.0582-1.1236.0293-1.5791.0435-.5435 0-.9809.0017-1.4183-.0013-.0902-.0007-.2105.0318-.2583-.0619-.0619-.1212.069-.1811.1347-.2514.6963-.7458 1.4079-1.4778 2.0912-2.23527.6792-.7529 1.2782-1.56529 1.6542-2.52011.2107-.53482.2927-1.0894.1792-1.6547-.2114-1.05244-1.0913-1.85343-2.2509-1.9963-1.6987-.20928-2.7914.85151-3.054 2.39502-.0122.07188-.0572.18222.0624.20817.0849.01844.1179-.07041.1516-.13394.083-.15616.1526-.3205.2469-.46931.492-.77636 1.4609-1.16467 2.3062-.93135.8565.23643 1.3973 1.00374 1.4249 1.97634.0245.86251-.2995 1.60821-.7384 2.31503-.6644 1.06992-1.5367 1.96621-2.4211 2.85122-.124.1241-.2348.1339-.3855.0455-1.3565-.7958-2.8333-1.04128-4.3859-.9773-1.9401.07995-3.5655.8066-4.8717 2.2563-2.37407 2.6349-1.88414 7.1398 1.4804 8.9313.3069.1634.3073.1854.0294.4204-.5444.4533-1.0622.9376-1.5509 1.4504-.5199.5538-.94057 1.1674-1.11851 1.9208-.13183.5582-.00682 1.0513.38105 1.476.26936.2949.59106.5253.92216.7428.4349.2858.4315.2788.0761.6569-.6772.7204-1.39991 1.3984-2.01116 2.1802-.05255.0672-.12988.1707-.20467.272.57196.2988 1.16157.5625 1.76553.7897-.0016-.1113-.0018-.239.0029-.347.0088-.1872.0399-.3726.0927-.5524.2848-.979.9065-1.7453 1.5848-2.4734.1232-.1323.2822-.1022.4398-.0816 1.0325.135 2.0707.2167 3.1094.2727 1.5587.084 3.1198.1229 4.6787.2034.6752.0349 1.3498.1167 1.9997.3218.8339.263 1.1507.6699 1.1895 1.5412.0031.0686.0009.1776-.0033.2918.4494-.2374.8856-.4951 1.3088-.7731.0281-.1269.0404-.2568.0364-.3867-.0362-.8393-.2989-1.592-.8446-2.2359-.6603-.7792-1.5188-1.2202-2.5047-1.4245-1.1462-.2376-2.3149-.253-3.4774-.3103-1.3096-.0644-2.6215-.0831-3.9312-.1447-.518-.0244-1.0398-.0774-1.5297-.276-.6083-.2467-.8199-.7171-.6056-1.3321.2017-.5788.5981-1.0156 1.0275-1.4329.1987-.1931.3931-.2493.6731-.1776 1.3965.3677 2.861.3933 4.2695.0747 4.0605-.9237 5.7959-4.9911 3.9913-8.5014-.1287-.2502-.1037-.2988.1948-.3018.6457-.0065 1.2914-.0071 1.9372-.0019.201.0016.3329-.0598.401-.2646.2071-.6224.427-1.2406.6379-1.8618.0251-.0736.0915-.1737.0032-.2293zm-5.9625 8.1799c-.3778 1.2671-1.1943 2.0973-2.5283 2.2945-1.2923.191-2.3244-.2946-3.0819-1.359-.6979-.9807-.9895-2.1005-1.1062-3.2762-.038-.3825-.0909-.766-.0719-.9936.0184-.9751.0849-1.7841.3789-2.5539.3954-1.0356 1.0933-1.7668 2.1888-2.0497 1.2414-.3206 2.4754.1598 3.2661 1.244.616.8447.9446 1.8041 1.0947 2.8264.1903 1.296.2395 2.5938-.1402 3.8675z" fill="#fff"/></svg>