<svg xmlns="http://www.w3.org/2000/svg" width="32" height="32" fill="none"><path fill="#6747ED" d="M16 32c8.837 0 16-7.163 16-16S24.837 0 16 0 0 7.163 0 16s7.163 16 16 16Z"/><path fill="#fff" fill-rule="evenodd" d="M15.767 18.067A4.254 4.254 0 0 1 11.5 13.8c0-2.367 1.9-4.267 4.267-4.267 2.366 0 4.266 1.9 4.266 4.267 0 2.367-1.9 4.267-4.266 4.267Zm0-10.667c3.533 0 6.4 2.867 6.4 6.4 0 3.533-2.867 6.4-6.4 6.4a6.402 6.402 0 0 1-6.4-6.4c0-3.533 2.866-6.4 6.4-6.4Zm6.1 13.133c.433.434.433 1.1 0 1.5L17.6 26.3c-.433.433-1.1.433-1.5 0-.433-.433-.433-1.1 0-1.5l4.267-4.267c.4-.433 1.1-.433 1.5 0Zm2.466-12.066c0 .6-.466 1.066-1.066 1.066-.6 0-1.067-.466-1.067-1.066 0-.6.467-1.067 1.067-1.067.566 0 1.066.467 1.066 1.067Z" clip-rule="evenodd"/></svg>