<svg xmlns="http://www.w3.org/2000/svg" width="32" height="32" fill="none"><path fill="#02E2AC" d="M16 32c8.837 0 16-7.163 16-16S24.837 0 16 0 0 7.163 0 16s7.163 16 16 16Z"/><path fill="#0E0333" fill-rule="evenodd" d="M20.23 13.502a5.423 5.423 0 0 1 1.008 3.177 5.413 5.413 0 0 1-1.008 3.13l1.375 1.047a7.129 7.129 0 0 0 1.356-4.167 7.144 7.144 0 0 0-1.46-4.366l-.788.711-.483.468Z" clip-rule="evenodd"/><path fill="#0E0333" fill-rule="evenodd" d="m22.83 21.783-4.624-3.517c.33-.433.518-.961.546-1.508a2.712 2.712 0 0 0-.414-1.547l2.213-1.998 2.317-2.169a.376.376 0 0 0 .009-.537l-.32-.321a9.139 9.139 0 0 0-6.206-2.715l.01-1.273a.76.76 0 0 0-.02-.255.66.66 0 0 0-.122-.226.563.563 0 0 0-.207-.151.549.549 0 0 0-.49 0 .652.652 0 0 0-.207.15.56.56 0 0 0-.122.218.471.471 0 0 0-.019.254l-.01 1.31a8.934 8.934 0 0 0-1.647.321l.009-1.63c.01-.086 0-.17-.019-.255a.66.66 0 0 0-.122-.227.563.563 0 0 0-.207-.15.55.55 0 0 0-.49 0 .652.652 0 0 0-.207.15.558.558 0 0 0-.123.217.471.471 0 0 0-.019.255l-.028 2.084a9.163 9.163 0 0 0-4.416 4.186 9.234 9.234 0 0 0-.838 6.034 9.212 9.212 0 0 0 3.117 5.233 9.152 9.152 0 0 0 5.697 2.13l6.733.029c.207 0 .377-.17.377-.377v-3.404a.398.398 0 0 0-.151-.311Zm-6.827 2.423a7.576 7.576 0 0 1-4.577-1.574 7.588 7.588 0 0 1-2.674-4.045 7.608 7.608 0 0 1 .33-4.837 7.575 7.575 0 0 1 3.201-3.64l-.01 2.48a.76.76 0 0 0 .02.255c.028.085.065.16.122.226a.56.56 0 0 0 .207.15.548.548 0 0 0 .49 0 .65.65 0 0 0 .207-.15.56.56 0 0 0 .122-.217.472.472 0 0 0 .02-.254l.008-3.046a7.555 7.555 0 0 1 2.59-.443 7.45 7.45 0 0 1 4.502 1.518.193.193 0 0 1 .018.292l-3.522 3.234a2.686 2.686 0 0 0-1.017-.207 2.666 2.666 0 0 0-2.053.924 2.793 2.793 0 0 0-.555 1.009 2.644 2.644 0 0 0-.085 1.15c.057.387.188.754.396 1.084.207.33.49.604.81.82.33.208.696.35 1.082.406.386.057.782.028 1.15-.085l4.5 3.423a.197.197 0 0 1 .076.15l-.01 1.207a.189.189 0 0 1-.188.189l-5.16-.019Zm1.102-7.543c0 .208-.067.415-.18.594-.122.18-.282.311-.48.396a.984.984 0 0 1-.612.057 1.146 1.146 0 0 1-.546-.292 1.046 1.046 0 0 1-.226-1.16 1.09 1.09 0 0 1 .396-.48 1.12 1.12 0 0 1 .593-.18c.282 0 .555.113.753.32.188.19.302.453.302.745Z" clip-rule="evenodd"/></svg>