<svg width="32" height="32" fill="none" xmlns="http://www.w3.org/2000/svg"><path d="M16 32c8.837 0 16-7.163 16-16S24.837 0 16 0 0 7.163 0 16s7.163 16 16 16Z" fill="#7F27FF"/><path d="M15.467 13.867H8.534V20.8a2.64 2.64 0 0 0 2.666 2.667h4.267v-9.6Zm1.067 0h6.933V20.8a2.64 2.64 0 0 1-2.667 2.667h-4.266v-9.6ZM16.534 12.8h6.722c.744 0 1.28-.64 1.28-1.28 0-.744-.64-1.28-1.28-1.28H8.853c-.744 0-1.28.64-1.28 1.28 0 .744.64 1.28 1.28 1.28h6.614v-1.707h1.066" fill="#fff"/><path d="M16.744 10.667C18.238 8 19.411 7.147 20.264 8c.854.853.32 1.707-1.493 2.667M15.256 10.667C13.763 8 12.589 7.147 11.736 8c-.853.853-.32 1.707 1.493 2.667" stroke="#fff" stroke-width=".5"/></svg>