<svg xmlns="http://www.w3.org/2000/svg" width="32" height="32" fill="none"><path fill="#16B9AD" d="M16 32c8.837 0 16-7.163 16-16S24.837 0 16 0 0 7.163 0 16s7.163 16 16 16Z"/><path fill="#fff" fill-rule="evenodd" d="M26.88 13.334C26.88 19.38 21.997 24.3 16 24.3c-6 0-10.88-4.919-10.88-10.965 0-.451.026-.897.08-1.334h1.954a9.1 9.1 0 0 0-.098 1.334c0 4.97 4.012 9.013 8.943 9.013 4.705 0 8.573-3.68 8.918-8.335H11.085c.33 2.437 2.407 4.32 4.914 4.32 1.94 0 3.624-1.129 4.439-2.77h2.094c-.924 2.744-3.504 4.723-6.533 4.723-3.802 0-6.897-3.119-6.897-6.95 0-.457.044-.903.128-1.335h17.568c.054.437.081.883.081 1.334Z" clip-rule="evenodd"/></svg>