<svg fill="none" height="32" viewBox="0 0 32 32" width="32" xmlns="http://www.w3.org/2000/svg"><path d="m16 32c8.8366 0 16-7.1634 16-16 0-8.83656-7.1634-16-16-16-8.83656 0-16 7.16344-16 16 0 8.8366 7.16344 16 16 16z" fill="#16b9ad"/><path clip-rule="evenodd" d="m26.8791 13.3341c0 6.0461-4.8808 10.9651-10.88 10.9651-5.9991 0-10.87996-4.919-10.87996-10.9651 0-.4516.02714-.8968.08072-1.3341h1.95446c-.06451.4354-.09811.8811-.09811 1.3341 0 4.9697 4.01179 9.0127 8.94289 9.0127 4.7046 0 8.5729-3.6806 8.9184-8.3347h-13.8321c.3293 2.4365 2.4071 4.3203 4.9137 4.3203 1.9403 0 3.6243-1.1291 4.4386-2.7695h2.094c-.9234 2.7429-3.5036 4.7217-6.5326 4.7217-3.8025 0-6.89667-3.1183-6.89667-6.9505 0-.4563.04394-.902.12784-1.3341h17.56813c.0536.4373.0807.8825.0807 1.3341z" fill="#fff" fill-rule="evenodd"/></svg>