<svg fill="none" height="32" viewBox="0 0 32 32" width="32" xmlns="http://www.w3.org/2000/svg"><path d="m16 32c8.8366 0 16-7.1634 16-16 0-8.83656-7.1634-16-16-16-8.83656 0-16 7.16344-16 16 0 8.8366 7.16344 16 16 16z" fill="#69f"/><path clip-rule="evenodd" d="m24.9736 19.987c.3265.3276.5848.7167.7614 1.1438.1767.4282.2672.8855.2672 1.3484s-.0905.9202-.2672 1.3484c-.1766.4271-.4349.8162-.7614 1.1438-.3276.3265-.7167.5847-1.1438.7614-.4282.1766-.8855.2672-1.3484.2672-.4628 0-.9201-.0906-1.3484-.2672-.4271-.1767-.8161-.4349-1.1437-.7614l-3.9871-3.9871-3.9881 3.9871c-.3276.3265-.7167.5847-1.1438.7614-.4282.1766-.88551.2672-1.34839.2672s-.92017-.0906-1.34839-.2672c-.4271-.1767-.81619-.4349-1.14378-.7614-.32648-.3276-.58475-.7167-.7614-1.1438-.17666-.4282-.26722-.8855-.26722-1.3484s.09056-.9202.26722-1.3484c.17665-.4271.43492-.8162.7614-1.1438l3.48946-3.4883 1.4949 1.4948-3.48838 3.4895c-.13082.1308-.23368.2862-.30524.4573-.07044.1711-.10621.3544-.10621.5389 0 .1856.03577.369.10621.54.07156.1711.17442.3265.30524.4573.13081.1308.28622.2337.45729.3041.17106.0705.35442.1074.54002.1074.18448 0 .36785-.0369.53887-.1074.1711-.0704.3265-.1733.4573-.3041l3.9871-3.987-1.9936-1.9946-1.4948-1.4949-3.98928-3.987c-.32647-.3276-.58475-.7167-.7614-1.1438-.17666-.4282-.26722-.88552-.26722-1.3484s.09056-.92017.26722-1.34839c.17665-.42711.43493-.81619.7614-1.14379.3276-.32647.71668-.58475 1.14379-.7614.42822-.17666.88551-.26722 1.34839-.26722s.9202.09056 1.3484.26722c.4271.17665.8162.43493 1.1438.7614l3.9881 3.98708 3.987-3.98708c.3276-.32647.7167-.58475 1.1438-.7614.4283-.17666.8855-.26722 1.3484-.26722s.9202.09056 1.3484.26722c.4271.17665.8162.43493 1.1438.7614.3265.3276.5847.71668.7614 1.14379.1767.42822.2672.88551.2672 1.34839s-.0905.9202-.2672 1.3484c-.1767.4271-.4349.8162-.7614 1.1438l-3.987 3.987zm-12.462-5.4774 1.9935-1.9946-3.987-3.98705c-.1308-.13081-.2862-.23367-.4573-.30411-.17104-.07044-.3544-.10734-.53889-.10734-.1856 0-.36896.0369-.54002.10734-.17107.07044-.32648.1733-.45729.30411-.13082.13082-.23368.28623-.30524.45729-.07043.17107-.10621.35443-.10621.53891 0 .1856.03578.36896.10621.54005.07156.171.17442.3265.30524.4573zm11.269 8.5096c.0694-.1699.1063-.3533.1063-.5378 0-.1833-.0369-.3667-.1063-.5366-.0704-.1711-.1733-.3265-.303-.4573l-6.9812-6.9824 1.4982-1.4959 1.4949 1.4959 3.9881-3.9881c.1309-.1308.2337-.2862.3042-.4573.0704-.17106.1073-.35442.1073-.5389 0-.1856-.0369-.36897-.1073-.54003-.0705-.17107-.1733-.32648-.3042-.45729-.1308-.13081-.2873-.23368-.4584-.30412-.171-.07043-.3544-.10733-.5389-.10733s-.3678.0369-.5389.10733c-.1711.07044-.3276.17331-.4584.30412l-7.4765 7.47652 1.9946 1.9935 1.4949-1.4948 1.4948 1.4948-1.4948 1.496 3.987 3.987c.1308.1308.2873.2337.4584.3041.1711.0705.3544.1074.5389.1074s.3679-.0369.5389-.1074c.1711-.0704.3276-.1733.4584-.3041.1297-.1308.2326-.2862.303-.4573z" fill="#eee" fill-rule="evenodd"/></svg>