<svg xmlns="http://www.w3.org/2000/svg" width="32" height="32" fill="none"><path fill="#69F" d="M16 32c8.837 0 16-7.163 16-16S24.837 0 16 0 0 7.163 0 16s7.163 16 16 16Z"/><path fill="#EEE" fill-rule="evenodd" d="M24.974 19.987a3.532 3.532 0 0 1 0 4.984 3.533 3.533 0 0 1-4.985 0l-3.987-3.987-3.988 3.987a3.533 3.533 0 0 1-4.984 0 3.533 3.533 0 0 1 0-4.984l3.49-3.488 1.494 1.495-3.488 3.489a1.42 1.42 0 0 0-.412.996 1.417 1.417 0 0 0 .412.998 1.417 1.417 0 0 0 1.536.304c.171-.07.326-.174.457-.304l3.987-3.988-1.993-1.994L11.018 16l-3.99-3.987a3.533 3.533 0 0 1 0-4.984 3.533 3.533 0 0 1 4.985 0l3.988 3.987 3.987-3.987a3.533 3.533 0 0 1 4.985 0 3.533 3.533 0 0 1 0 4.984L20.985 16l3.989 3.987ZM12.512 14.51l1.993-1.995-3.987-3.987a1.417 1.417 0 0 0-1.994 0 1.42 1.42 0 0 0-.41.996 1.418 1.418 0 0 0 .41.998l3.988 3.988Zm11.269 8.51a1.426 1.426 0 0 0 0-1.075 1.413 1.413 0 0 0-.303-.457l-6.982-6.983 1.499-1.496 1.494 1.496 3.989-3.988a1.418 1.418 0 0 0 .304-1.536 1.399 1.399 0 0 0-1.302-.869 1.417 1.417 0 0 0-.997.411L14.007 16 16 17.994l1.495-1.495 1.495 1.495-1.495 1.495 3.987 3.988a1.416 1.416 0 0 0 1.995 0c.13-.131.232-.287.303-.458Z" clip-rule="evenodd"/></svg>