<svg xmlns="http://www.w3.org/2000/svg" width="32" height="32" fill="none"><path fill="#005BAB" d="M16 32c8.837 0 16-7.163 16-16S24.837 0 16 0 0 7.163 0 16s7.163 16 16 16Z"/><path fill="#fff" d="m26.415 15.261-.569-.113h-9.889a1.023 1.023 0 0 0 0 2.046h6.252c-.682 1.932-3.183 3.41-6.138 3.41-3.524 0-6.365-2.046-6.365-4.547 0-2.5 2.841-4.547 6.365-4.547a7.11 7.11 0 0 1 4.774 1.591h4.206a.112.112 0 0 0 .106-.07.112.112 0 0 0 .008-.043c-1.82-2.046-5.23-3.297-9.207-3.297-5.798 0-10.458 2.842-10.458 6.366 0 3.524 4.66 6.252 10.457 6.252 5.797 0 10.458-2.842 10.458-6.252a.96.96 0 0 0 0-.796Z"/></svg>