<svg fill="none" height="32" viewBox="0 0 32 32" width="32" xmlns="http://www.w3.org/2000/svg" xmlns:xlink="http://www.w3.org/1999/xlink"><clipPath id="a"><path d="m0 0h32v32h-32z"/></clipPath><g clip-path="url(#a)"><path d="m16 0c-3.1645 0-6.25793.938384-8.88912 2.69649-2.63118 1.7581-4.68194 4.25696-5.89295 7.18058-1.21099726 2.92363-1.527851 6.14063-.910487 9.24433.617363 3.1037 2.141217 5.9547 4.378857 8.1923 2.23764 2.2377 5.08857 3.7615 8.1923 4.3789 3.1037.6173 6.3207.3005 9.2443-.9105 2.9237-1.211 5.4225-3.2618 7.1806-5.893s2.6965-5.7246 2.6965-8.8891c0-4.2435-1.6857-8.31313-4.6863-11.31371s-7.0702-4.68629-11.3137-4.68629z" fill="#000"/><path d="m22.504 22.92h-2.032v-4.32h-8.944v4.32h-2.03203v-14.00801h2.03203v4.21601h8.944v-4.21601h2.032zm-10.88-5.936h8.944v-2.232h-8.944z" fill="#fff"/></g></svg>