<svg xmlns="http://www.w3.org/2000/svg" width="32" height="32" fill="none"><defs><clipPath id="hcc__a"><path fill="#fff" d="M0 0h32v32H0z"/></clipPath></defs><g clip-path="url(#hcc__a)"><path fill="#8CC640" d="M16 32A16.018 16.018 0 0 1 0 16a1.764 1.764 0 0 1 3.528 0A12.472 12.472 0 1 0 16 3.528 1.764 1.764 0 0 1 16 0a16 16 0 1 1 0 32Z"/><path fill="#24AAE1" d="M15.91 27.59h-.01a11.59 11.59 0 1 1 11.69-11.489 1.298 1.298 0 0 1-1.297 1.287h-.012a1.3 1.3 0 0 1-1.286-1.31 8.995 8.995 0 0 0-8.917-9.073h-.08a8.995 8.995 0 0 0-.076 17.99 1.298 1.298 0 0 1-.012 2.595Z"/></g></svg>