<svg fill="none" height="32" viewBox="0 0 32 32" width="32" xmlns="http://www.w3.org/2000/svg" xmlns:xlink="http://www.w3.org/1999/xlink"><clipPath id="a"><path d="m0 0h32v32h-32z"/></clipPath><g clip-path="url(#a)"><path d="m16 32c-4.242-.0048-8.30884-1.6921-11.30838-4.6916-2.99953-2.9996-4.68679239-7.0664-4.69162-11.3084 0-.4678.185826-.9164.516599-1.2472s.779401-.5166 1.247181-.5166.91641.1858 1.24718.5166.5166.7794.5166 1.2472c0 2.4668.7315 4.8782 2.10199 6.9293 1.37048 2.0511 3.31841 3.6497 5.59745 4.5937 2.279.944 4.7868 1.191 7.2063.7098 2.4194-.4813 4.6417-1.6692 6.386-3.4135s2.9322-3.9666 3.4135-6.386c.4812-2.4195.2342-4.9273-.7098-7.2063-.944-2.27904-2.5426-4.22697-4.5937-5.59745-2.0511-1.37049-4.4625-2.10199-6.9293-2.10199-.4678 0-.9164-.18583-1.2472-.5166s-.5166-.7794-.5166-1.24718.1858-.916408.5166-1.247181.7794-.516599 1.2472-.516599c4.2435 0 8.3131 1.68571 11.3137 4.68629s4.6863 7.07021 4.6863 11.31371-1.6857 8.3131-4.6863 11.3137-7.0702 4.6863-11.3137 4.6863z" fill="#8cc640"/><path d="m15.9104 27.5903-.0115-.0002c-2.2923-.02-4.5272-.7193-6.42211-2.0095-1.89487-1.2902-3.36462-3.1133-4.22337-5.2387-.85875-2.1255-1.06795-4.4579-.60112-6.7022.46682-2.2444 1.58869-4.29993 3.22374-5.90669 1.63505-1.60677 3.70986-2.6926 5.96196-3.12019 2.2522-.42758 4.5806-.17772 6.6908.71799 2.1101.89571 3.9073 2.39704 5.1642 4.31414 1.2569 1.91715 1.9171 4.16385 1.8971 6.45615-.003.3422-.141.6693-.3839.9102-.243.2409-.5712.3761-.9134.3762l-.0115-.0002c-.1704-.0015-.3389-.0365-.4957-.103-.1569-.0666-.2991-.1634-.4186-.285-.1194-.1215-.2137-.2654-.2775-.4234-.0639-.158-.0959-.327-.0944-.4974.0103-1.1813-.2122-2.353-.6547-3.4482-.4425-1.0953-1.0964-2.0927-1.9244-2.93519-.828-.84254-1.8138-1.51374-2.9012-1.97528-1.0874-.46155-2.2551-.70439-3.4363-.71467l-.0807-.00037c-2.3788.00051-4.6605.94322-6.34592 2.62187-1.68542 1.67864-2.63732 3.95654-2.64741 6.33534-.01008 2.3787.92246 4.6646 2.59359 6.3575 1.67114 1.6929 3.94474 2.6549 6.32344 2.6756.3431.003.6711.1418.9122.386.241.2442.3755.574.3741.9171-.0015.3431-.1388.6717-.382.9139-.2431.2421-.5722.3781-.9154.3782z" fill="#24aae1"/></g></svg>