<svg xmlns="http://www.w3.org/2000/svg" width="32" height="32" fill="none"><circle cx="16" cy="16" r="16" fill="#121C36"/><path fill="#45FFF4" d="M5.527 18.737a.314.314 0 0 1-.223-.095.314.314 0 0 1-.095-.223v-4.502c0-.084.032-.157.095-.22a.308.308 0 0 1 .223-.099c.084 0 .157.033.22.099a.296.296 0 0 1 .099.22v1.902h3.092v-1.902c0-.084.031-.157.095-.22a.3.3 0 0 1 .443 0 .296.296 0 0 1 .098.22v4.502a.308.308 0 0 1-.098.223.306.306 0 0 1-.443 0 .314.314 0 0 1-.095-.223v-1.963H5.846v1.963a.308.308 0 0 1-.099.223.302.302 0 0 1-.22.095Zm5.943 0c-.212 0-.318-.106-.318-.318v-4.502c0-.213.106-.319.319-.319h2.72c.213 0 .319.106.319.319 0 .212-.106.318-.319.318H11.79v1.591h1.508c.212 0 .318.107.318.319 0 .212-.106.318-.318.318H11.79V18.1h2.402c.213 0 .319.106.319.319 0 .212-.106.318-.319.318h-2.72Zm5.617 0c-.579 0-1.007-.138-1.285-.413-.275-.278-.413-.706-.413-1.285v-1.743c0-.584.138-1.013.413-1.288.275-.278.701-.415 1.277-.41h.917c.475 0 .838.099 1.088.296.25.194.395.503.436.925.015.106-.006.186-.061.242-.056.056-.137.083-.243.083-.192 0-.303-.106-.333-.318-.025-.232-.106-.389-.243-.47-.134-.08-.348-.121-.644-.121h-.917c-.268-.003-.479.028-.633.09a.588.588 0 0 0-.326.33c-.063.155-.094.368-.094.641v1.743c0 .27.031.483.094.637a.603.603 0 0 0 .33.33c.154.063.366.094.637.094h.91c.234 0 .417-.025.549-.076a.481.481 0 0 0 .28-.276c.053-.132.08-.317.08-.557v-.357l-.592-.007c-.212 0-.318-.106-.318-.318 0-.213.106-.319.318-.319l.91.008c.212 0 .318.106.318.318v.675c0 .538-.125.93-.375 1.178-.25.245-.64.368-1.17.368h-.91Zm4.094 0c-.108 0-.19-.025-.242-.076-.051-.053-.076-.134-.076-.242v-4.495c0-.111.025-.192.076-.242.053-.05.134-.076.242-.076.111 0 .192.025.243.076.05.05.075.131.075.242v4.495c0 .108-.025.189-.075.242-.05.05-.132.076-.243.076Zm3.41 0c-.578 0-1.006-.138-1.284-.413-.275-.278-.413-.706-.413-1.285v-1.743c0-.584.138-1.013.413-1.288.275-.278.701-.415 1.277-.41h.917c.475 0 .837.099 1.088.296.25.194.395.503.435.925.015.106-.005.186-.06.242-.056.056-.137.083-.243.083-.192 0-.303-.106-.333-.318-.026-.232-.106-.389-.243-.47-.134-.08-.348-.121-.644-.121h-.917c-.268-.003-.479.028-.633.09a.588.588 0 0 0-.326.33c-.063.155-.095.368-.095.641v1.743c0 .27.032.483.095.637a.603.603 0 0 0 .33.33c.154.063.366.094.637.094h.909c.296 0 .51-.04.644-.121.137-.084.218-.24.243-.47.03-.212.141-.318.333-.318.106 0 .187.027.243.083.055.056.076.136.06.243-.04.424-.185.733-.435.928-.25.195-.613.292-1.088.292h-.91Z"/></svg>