<svg fill="none" height="32" viewBox="0 0 32 32" width="32" xmlns="http://www.w3.org/2000/svg"><circle cx="16" cy="16" fill="#f0f0f8" r="16"/><g fill="#e31337"><path d="m20.7269 17.2264c.0726 0 .118.0787.0816.1417l-4.6751 8.0848c-.0168.0291-.0479.0471-.0816.0471h-2.8578c-.0726 0-.118-.0788-.0816-.1417l4.6751-8.0848c.0168-.0292.0479-.0471.0816-.0471zm-2.7795-2.3174c-.0337 0-.0648-.0179-.0816-.0471l-4.7534-8.22022c-.0364-.06293.009-.14168.0816-.14168h2.8578c.0337 0 .0648.01795.0816.04711l4.7534 8.22019c.0364.063-.009.1417-.0816.1417z"/><path d="m18.5128 6.64164c-.0364-.06293.0091-.14164.0819-.14164h2.8619c.0338 0 .065.01797.0819.04715l5.4488 9.40565c.0169.0292.0169.0652 0 .0944l-5.4488 9.4056c-.0169.0292-.0481.0472-.0819.0472h-2.8619c-.0728 0-.1183-.0787-.0819-.1416l5.4215-9.3584zm-2.3258 9.31076c.0172.0293.0173.0655.0002.0948l-5.4747 9.4056c-.0365.0628-.1277.063-.1645.0004l-5.53502-9.4056c-.01722-.0293-.01731-.0655-.00023-.0948l5.47475-9.40561c.0365-.06275.1277-.06296.1645-.00039z"/></g></svg>