<svg xmlns="http://www.w3.org/2000/svg" width="32" height="32" fill="none"><path fill="#F2F2F2" d="M16 32c8.837 0 16-7.163 16-16S24.837 0 16 0 0 7.163 0 16s7.163 16 16 16Z"/><path fill="#0099DA" d="M18.396 5.43a.472.472 0 1 0-.931.15.472.472 0 0 0 .931-.15ZM16.57 27.932l-.017-20.464.003.002.002-.379 7.328 4.23-.01 9.257-1.66.956-.058-9.215-1.148-.662v10.572l-1.632.94V10.713l-1.096-.633.015 14.955 6.622-3.814a.076.076 0 0 0 .035-.063l.012-10.424a.073.073 0 0 0-.036-.063L18.41 6.95a1.521 1.521 0 1 1 1.035-1.305l6.614 3.778a1.199 1.199 0 0 1 .554.96L26.6 21.515c-.004.193-.06.382-.16.547-.093.169-.23.31-.394.411l-9.477 5.459Zm-2.083-1.401a.466.466 0 1 0-.927-.097.466.466 0 0 0 .927.096Zm-.621 1.478a1.535 1.535 0 0 1-1.376-1.6l-6.537-3.774a1.198 1.198 0 0 1-.554-.957l-.013-11.133a1.197 1.197 0 0 1 .554-.959l9.431-5.46.072 19.6v-.001l-.013 1.227-1.682-.97.005-7.184H9.85v4.934l-1.724-.996-.01-9.257 1.734-.975v4.635h3.905l.008-8.176-6.691 3.872a.07.07 0 0 0-.035.063l.01 10.425a.07.07 0 0 0 .036.061l6.365 3.676a1.534 1.534 0 1 1 .419 2.95"/></svg>