<svg width="32" height="32" fill="none" xmlns="http://www.w3.org/2000/svg"><circle cx="16" cy="16" r="16" fill="#474DFF"/><path d="M20.256 8.322a2.394 2.394 0 0 1 3.38 0 2.393 2.393 0 0 1 0 3.38c-.54.54-1.278.784-2.028.676a.35.35 0 0 0-.108 0 1.23 1.23 0 0 0-1.278 1.739 4.594 4.594 0 0 1-.92 5.158 4.597 4.597 0 0 1-5.16.92 1.226 1.226 0 0 0-.949-.034c-.295.108-.545.33-.687.636-.091.2-.125.404-.114.608a.418.418 0 0 0 0 .12 2.394 2.394 0 0 1-4.051 2.085 2.366 2.366 0 0 1-.699-1.693 2.4 2.4 0 0 1 .699-1.693 2.366 2.366 0 0 1 2.028-.676h.04a1.181 1.181 0 0 0 .761-.085c.307-.143.523-.393.637-.682a1.214 1.214 0 0 0-.034-.955 4.595 4.595 0 0 1 .92-5.158 4.597 4.597 0 0 1 5.16-.92c.306.142.647.148.943.04.295-.108.55-.33.693-.637.108-.238.136-.494.096-.738v-.006a2.402 2.402 0 0 1 .67-2.085Zm-2.364 9.544a2.647 2.647 0 1 0-3.744-3.743 2.646 2.646 0 1 0 3.744 3.743Zm6.637-5.272a3.617 3.617 0 0 0 0-5.118 3.618 3.618 0 0 0-6.108 1.846 7.069 7.069 0 0 0-7.466 1.608 7.06 7.06 0 0 0-1.603 7.47 3.618 3.618 0 0 0-1.858.994 3.617 3.617 0 0 0 0 5.119 3.618 3.618 0 0 0 6.114-1.87 7.063 7.063 0 0 0 7.443-1.613 7.073 7.073 0 0 0 1.62-7.436 3.694 3.694 0 0 0 1.858-1Z" fill="#fff"/></svg>