<svg fill="none" height="32" viewBox="0 0 32 32" width="32" xmlns="http://www.w3.org/2000/svg"><circle cx="16" cy="16" fill="#474dff" r="16"/><path d="m20.2559 8.32237c.9317-.93165 2.4488-.93165 3.3806 0 .9318.93171.9318 2.44843 0 3.38013-.5397.5396-1.2784.7839-2.0284.6759-.0341-.0056-.0739-.0056-.108 0-.2216-.0283-.4545 0-.6761.1023-.3125.1421-.5341.4034-.642.7045-.108.2954-.1023.6305.0397.9316.8012 1.7327.4319 3.8061-.9205 5.1581-1.3522 1.3521-3.4261 1.7214-5.159.9204-.3126-.142-.6478-.1477-.9489-.0341-.2955.1079-.5455.3295-.6875.6363-.0909.1988-.125.4033-.1136.6078-.0057.0398-.0057.0795 0 .1192.125.7614-.125 1.5396-.6705 2.0849-.9319.9317-2.44886.9317-3.38068 0-.45454-.4545-.69886-1.0509-.69886-1.6928 0-.6363.24999-1.2384.69886-1.6929.53978-.5397 1.27846-.7839 2.02838-.6761h.0398c.0796.0171.1591.0284.2443.0284.1762 0 .3523-.034.5171-.1135.3068-.142.5227-.392.6363-.6818.1137-.301.1137-.6419-.034-.9543-.8012-1.7327-.4319-3.8062.9204-5.1582 1.3523-1.3521 3.4262-1.7213 5.1591-.9203.3068.142.6478.1477.9432.0397.2955-.1078.5511-.3294.6932-.6362.1079-.2385.1363-.4942.0966-.7385v-.0057c-.125-.76121.125-1.53947.6705-2.08483zm-2.3637 9.54373c1.034-1.0339 1.034-2.7097 0-3.7436-1.0341-1.0339-2.7102-1.0339-3.7443 0-1.0342 1.0339-1.0342 2.7097 0 3.7436 1.0341 1.034 2.7102 1.034 3.7443 0zm6.6364-5.2717c1.4148-1.4146 1.4148-3.70394 0-5.11847-1.4148-1.41452-3.7046-1.41452-5.1194 0-.5227.52263-.8523 1.17026-.9886 1.84627-2.5626-.96574-5.5058-.35221-7.4659 1.6077-1.96026 1.9599-2.5739 4.9025-1.60231 7.4703-.68182.1363-1.32955.4658-1.85796.9941-1.41477 1.4145-1.41477 3.7039 0 5.1184s3.70457 1.4145 5.11937 0c.5283-.5283.8636-1.1872.9942-1.869.7955.2954 1.6251.4431 2.4489.4431 1.8353 0 3.6478-.7101 4.9943-2.0565 1.949-1.9485 2.5683-4.874 1.6194-7.4361.6762-.142 1.3295-.4716 1.858-.9998z" fill="#fff"/></svg>