<svg xmlns="http://www.w3.org/2000/svg" width="32" height="32" fill="none"><path fill="#00838D" d="M16 32c8.837 0 16-7.163 16-16S24.837 0 16 0 0 7.163 0 16s7.163 16 16 16Z"/><path fill="#fff" d="m4.587 24.169 1.032-2.364c1.688-.006 3.201-.497 4.474-1.627a5.557 5.557 0 0 0 1.734-2.864c-.934-.052-1.876.091-2.806-.164.343-.785.674-1.548 1.013-2.308.018-.039.108-.064.164-.064.548-.005 1.095-.003 1.666-.003-.343-1.46-1.13-2.604-2.335-3.451-1.2-.842-2.553-1.2-4.018-1.17l-1.03-2.36c2.388-.28 4.59.18 6.603 1.46 2.037 1.298 3.34 3.12 3.795 5.517h2.178c.587-2.85 2.284-4.815 4.851-6.055 1.763-.85 3.634-1.128 5.612-.858l-.404.932c-.188.433-.368.87-.57 1.296-.028.062-.155.11-.236.11-1.136-.004-2.234.2-3.236.736a9.064 9.064 0 0 0-1.597 1.108c-.807.69-1.332 1.58-1.616 2.607l-.031.116c.917.064 1.845-.103 2.757.176-.198.454-.39.89-.58 1.328-.123.283-.231.573-.373.846a.387.387 0 0 1-.272.183c-.466.019-.933.009-1.4.009h-.115c.415 1.917 2.577 4.571 6.604 4.56l1.02 2.337c-2.378.286-4.57-.166-6.579-1.43-2.035-1.281-3.346-3.083-3.823-5.463h-2.21c-.612 2.816-2.305 4.755-4.85 5.982-1.705.822-3.514 1.092-5.422.878Z"/></svg>