<svg fill="none" height="32" viewBox="0 0 32 32" width="32" xmlns="http://www.w3.org/2000/svg" xmlns:xlink="http://www.w3.org/1999/xlink"><linearGradient id="a" gradientUnits="userSpaceOnUse" x1="19.6869" x2="28.5976" y1="10.4415" y2="19.6189"><stop offset=".21" stop-color="#f15a24"/><stop offset=".6841" stop-color="#fbb03b"/></linearGradient><linearGradient id="b" gradientUnits="userSpaceOnUse" x1="12.8059" x2="3.89521" y1="21.5545" y2="12.3771"><stop offset=".21" stop-color="#ed1e79"/><stop offset=".8929" stop-color="#522785"/></linearGradient><circle cx="16" cy="16" fill="#fff" r="16"/><path d="m23.0631 9.5c-1.4804 0-3.0953.7893-4.7999 2.3453-.8074.7329-1.5139 1.5222-2.0298 2.1536 0 0 .8299.9358 1.7382 1.9394.4935-.6089 1.2-1.432 2.0186-2.1762 1.514-1.3869 2.5008-1.6687 3.0729-1.6687 2.1306 0 3.8577 1.7476 3.8577 3.9125 0 2.1424-1.7271 3.89-3.8577 3.9126-.1011 0-.2245-.0113-.3702-.0451.6168.2819 1.2897.4848 1.9177.4848 3.9026 0 4.665-2.6384 4.7099-2.8301.1121-.4848.1796-.9922.1796-1.5109-.0113-3.5969-2.8933-6.5172-6.437-6.5172z" fill="url(#a)"/><path d="m9.43709 22.5008c1.48031 0 3.09521-.7893 4.79981-2.3453.8074-.7329 1.5139-1.5222 2.0298-2.1536 0 0-.8299-.9358-1.7383-1.9394-.4934.6089-1.1999 1.432-2.0186 2.1762-1.5139 1.3756-2.512 1.6687-3.07271 1.6687-2.13076 0-3.85778-1.7476-3.85778-3.9125 0-2.1424 1.72702-3.89 3.85778-3.9126.10093 0 .22428.0113.37007.0451-.61679-.2819-1.28966-.4848-1.91767-.4848-3.90263 0-4.66522 2.6384-4.71006 2.8301-.11214.4849-.17943.9923-.17943 1.5109 0 3.5969 2.88211 6.5172 6.43709 6.5172z" fill="url(#b)"/><path clip-rule="evenodd" d="m12.4043 13.8185c-.4261-.4059-2.512-2.0634-4.50818-2.1198-3.55732-.0875-4.60303 2.4458-4.69319 2.7725.68139-2.8407 3.2213-4.95996 6.24079-4.9712 2.46158 0 4.94908 2.3643 6.78698 4.498.003-.0036.0059-.0071.0087-.0104 0 0 .8299.9358 1.7383 1.9393 0 0 1.0317 1.1952 2.1307 2.2438.4262.406 2.5007 2.0409 4.4969 2.0973 3.6561.1015 4.6654-2.5708 4.7213-2.7738-.6727 2.8527-3.2184 4.9837-6.2464 4.995-2.4624 0-4.9507-2.3658-6.7964-4.5001-.0036.0044-.0072.0085-.0105.0126 0 0-.8299-.9359-1.7382-1.9394 0 0-1.0317-1.1952-2.1308-2.2438zm-9.20703.6765c.001-.0057.00288-.0137.00566-.0238-.0019.0079-.00379.0159-.00566.0238z" fill="#29abe2" fill-rule="evenodd"/></svg>