<svg xmlns="http://www.w3.org/2000/svg" width="32" height="32" fill="none"><defs><linearGradient id="icp__a" x1="19.687" x2="28.598" y1="10.441" y2="19.619" gradientUnits="userSpaceOnUse"><stop offset=".21" stop-color="#F15A24"/><stop offset=".684" stop-color="#FBB03B"/></linearGradient><linearGradient id="icp__b" x1="12.806" x2="3.895" y1="21.555" y2="12.377" gradientUnits="userSpaceOnUse"><stop offset=".21" stop-color="#ED1E79"/><stop offset=".893" stop-color="#522785"/></linearGradient></defs><circle cx="16" cy="16" r="16" fill="#fff"/><path fill="url(#icp__a)" d="M23.063 9.5c-1.48 0-3.095.79-4.8 2.345A20.413 20.413 0 0 0 16.233 14s.83.936 1.739 1.94c.493-.61 1.2-1.433 2.018-2.177 1.514-1.387 2.501-1.669 3.073-1.669 2.13 0 3.858 1.748 3.858 3.913a3.912 3.912 0 0 1-3.858 3.913c-.101 0-.224-.012-.37-.046.617.282 1.29.485 1.918.485 3.902 0 4.665-2.638 4.71-2.83.112-.485.18-.992.18-1.51-.012-3.598-2.894-6.518-6.438-6.518Z"/><path fill="url(#icp__b)" d="M9.437 22.5c1.48 0 3.095-.788 4.8-2.345a20.413 20.413 0 0 0 2.03-2.153s-.83-.936-1.739-1.94c-.493.61-1.2 1.432-2.018 2.177-1.514 1.375-2.512 1.668-3.073 1.668-2.13 0-3.858-1.747-3.858-3.912a3.912 3.912 0 0 1 3.858-3.913c.101 0 .224.012.37.045-.617-.282-1.29-.484-1.918-.484-3.902 0-4.665 2.638-4.71 2.83A6.717 6.717 0 0 0 3 15.983c0 3.598 2.882 6.518 6.437 6.518Z"/><path fill="#29ABE2" fill-rule="evenodd" d="M12.404 13.819c-.426-.406-2.512-2.064-4.508-2.12-3.557-.088-4.603 2.446-4.693 2.772.681-2.84 3.221-4.96 6.24-4.971 2.462 0 4.95 2.364 6.788 4.498l.008-.01s.83.935 1.739 1.939c0 0 1.031 1.195 2.13 2.244.427.406 2.501 2.04 4.497 2.097 3.656.101 4.666-2.57 4.722-2.774-.673 2.853-3.219 4.984-6.247 4.995-2.462 0-4.95-2.366-6.796-4.5l-.01.013s-.83-.936-1.739-1.94c0 0-1.032-1.195-2.13-2.244Zm-9.207.676a.274.274 0 0 1 .006-.024l-.006.024Z" clip-rule="evenodd"/></svg>