<svg xmlns="http://www.w3.org/2000/svg" width="32" height="32" fill="none"><path fill="#42B0B7" d="M16 32c8.837 0 16-7.163 16-16S24.837 0 16 0 0 7.163 0 16s7.163 16 16 16Z"/><path fill="#fff" d="m22.428 11.237-2.155 2.154a4.991 4.991 0 0 1-6.864 6.865l-2.155 2.154a7.987 7.987 0 0 0 11.174-11.173ZM11.026 16a4.991 4.991 0 0 1 7.6-4.256L20.78 9.59A7.986 7.986 0 0 0 9.607 20.763l2.155-2.154A4.968 4.968 0 0 1 11.026 16Zm14.937-8.377a1.997 1.997 0 1 1-3.918.782 1.997 1.997 0 0 1 3.918-.782ZM9.956 23.595a1.998 1.998 0 1 1-3.919.782 1.998 1.998 0 0 1 3.919-.782Z"/></svg>