<svg fill="none" height="32" viewBox="0 0 32 32" width="32" xmlns="http://www.w3.org/2000/svg"><path d="m16 32c8.8366 0 16-7.1634 16-16 0-8.83656-7.1634-16-16-16-8.83656 0-16 7.16344-16 16 0 8.8366 7.16344 16 16 16z" fill="#42b0b7"/><g fill="#fff"><path d="m22.4276 11.2368-2.1545 2.1546c.5859.956.8329 2.0814.7011 3.1949-.1317 1.1135-.6345 2.1501-1.4274 2.943-.7928.7928-1.8295 1.2956-2.943 1.4274s-2.2389-.1152-3.1949-.7011l-2.1546 2.1546c1.5381 1.1428 3.4359 1.6945 5.347 1.5544s3.7081-.9627 5.0631-2.3177 2.1776-3.152 2.3177-5.0631-.4116-3.8089-1.5545-5.347z"/><path d="m11.0261 16c0-.8873.2366-1.7585.6853-2.524s1.0933-1.3975 1.8675-1.831 1.6499-.6529 2.537-.6354 1.7536.2711 2.5101.7348l2.1545-2.15465c-1.5381-1.14289-3.4359-1.69462-5.347-1.55451s-3.7082.96272-5.0631 2.31776c-1.35504 1.3549-2.17765 3.152-2.31776 5.0631s.41162 3.8089 1.5545 5.347l2.15466-2.1545c-.4823-.7846-.737-1.6877-.7357-2.6086z"/><path d="m25.9629 7.62329c.0839.42045.0302.85673-.153 1.24436-.1831.38763-.4862.70605-.8642.90822-.3781.20218-.8112.27733-1.2353.21448-.4241-.06289-.8167-.26053-1.1198-.56372-.3032-.30319-.5007-.69585-.5635-1.11996-.0629-.42411.0124-.85717.2147-1.23521.2022-.37804.5207-.68099.9084-.8641.3876-.18311.8239-.23667 1.2443-.15276.3871.07752.7426.26784 1.0216.54698.2791.27915.4694.63464.5468 1.02171z"/><path d="m9.95605 23.5952c.08385.4204.03029.8567-.15285 1.2443-.18313.3877-.4861.7061-.86415.9084-.37804.2022-.8111.2774-1.2352.2146s-.81674-.2604-1.11992-.5636c-.30317-.3031-.50079-.6957-.56367-1.1198-.06287-.4241.01234-.8572.21452-1.2352.20217-.3781.5206-.6811.90823-.8643s.8239-.2368 1.24435-.153c.38709.0775.74261.2677 1.02176.5469.27915.2791.46945.6346.54693 1.0217z"/></g></svg>