<svg fill="none" height="32" viewBox="0 0 32 32" width="32" xmlns="http://www.w3.org/2000/svg" xmlns:xlink="http://www.w3.org/1999/xlink"><clipPath id="a"><path d="m0 0h32v32h-32z"/></clipPath><g clip-path="url(#a)" clip-rule="evenodd" fill-rule="evenodd"><path d="m32 16c0 3.1645-.9384 6.2579-2.6965 8.8891s-4.2569 4.682-7.1806 5.893c-2.9236 1.211-6.1406 1.5278-9.2443.9105-3.10373-.6174-5.95466-2.1413-8.1923-4.3789s-3.761494-5.0886-4.378857-8.1923c-.617364-3.1037-.3005105-6.3207.910487-9.24434 1.21101-2.92361 3.26177-5.42247 5.89295-7.18057 2.63119-1.758106 5.72462-2.69649 8.88912-2.69649 4.2435 0 8.3131 1.68571 11.3137 4.68629s4.6863 7.07021 4.6863 11.31371z" fill="#672bc8"/><path d="m7.1875 22.2946.306.3935 1.65233 2.1244h13.70837l1.9583-2.5179-4.8958-6.2946 4.5898-5.9012.306-.39345-1.9583-2.51785h-13.70837l-.31206.40123-1.64627 2.11662 4.8958 6.29465zm5.9039-1.2589c-.0923-.0001-.1828-.026-.2611-.0748-.0782-.0489-.1412-.1187-.1818-.2016-.0405-.0829-.057-.1756-.0475-.2674s.0445-.179.1012-.2519l1.3394-1.7222 1.9584 2.5179zm6.5132-5.437 4.2778-5.5h-7.9255c-.0577 0-.1143.0162-.1632.0467-.0489.0306-.0883.0742-.1137.126-.0253.0519-.0356.1098-.0297.1671.006.0574.0279.112.0633.1575l.2864.3683h2.9086c.0923 0 .1828.0259.2611.0747.0783.0489.1413.1188.1818.2017.0406.0829.057.1755.0475.2673s-.0445.1791-.1012.252l-1.3395 1.7222zm-11.79298-5.8934 9.64168 12.3964.0692.089c.0354.0455.0574.1001.0633.1575s-.0044.1153-.0297.1671c-.0254.0518-.0647.0955-.1137.126-.0489.0305-.1054.0467-.1631.0467h-9.16167l1.34635 1.731h12.46002l-12.77817-16.429z" fill="#fff"/></g></svg>