<svg fill="none" height="32" viewBox="0 0 32 32" width="32" xmlns="http://www.w3.org/2000/svg" xmlns:xlink="http://www.w3.org/1999/xlink"><clipPath id="a"><path d="m0 0h32v32h-32z"/></clipPath><g clip-path="url(#a)"><path d="m16.017 31.9968c-2.1074.0023-4.1946-.4117-6.14153-1.2184-1.94696-.8066-3.71535-1.99-5.20361-3.4822-1.48826-1.4921-2.66706-3.2635-3.46868-5.2126-.801617-1.949-1.21026227-4.0372-1.20245999-6.1447.00780227-2.1074.43189799-4.1925 1.24792999-6.13557.81602-1.94305 2.0079-3.70574 3.50717-5.1868s3.27638-2.65131 5.22926-3.44354c1.95292-.792226 4.04302-1.1908143 6.15042-1.1728676 2.1248.0400618 4.2208.4986006 6.1683 1.3493876 1.9474.85079 3.7081 2.07715 5.1812 3.60892 1.4731 1.53178 2.6298 3.33893 3.4039 5.31807.7741 1.9792 1.1505 4.0916 1.1076 6.2163-.1649 8.0393-7.1729 15.6868-15.9795 15.504z" fill="#024c6b"/><g fill="#fff"><path d="m12.5292 23.4327c.8912.5213 1.8274.9615 2.7973 1.3154.1503.0506.3082.0743.4667.0699 2.0545.0084 4.109.0092 6.1635.0171.2806.0011.4148-.0625.4116-.3993-.0148-1.5945.0047-3.1893.0081-4.7841.007-3.2557.0127-6.5113.0171-9.76698.0002-.09224.0003-.18454.0037-.2767-.0018-.08688.0302-.17107.0893-.23481.059-.06374.1405-.10205.2273-.10684.407-.073.5657.08109.5686.56633.0212 3.5451.041 7.0902.0594 10.6354.0045 1.1066.0406 2.2149-.0409 3.3197-.0768 1.0404-.0539 1.0782.9827 1.0541.5172-.012.5701-.0593.5703-.5669.0013-5.3122.0013-10.6244 0-15.93662-.0002-.47888-.1036-.56348-.5894-.55863-.8555.00855-1.7113.01789-2.5666.00529-.7858-.01157-.8383.02559-.8383.79852-.0001 4.63994-.0001 9.27994-.0002 13.91984 0 .1318-.0038.2635-.0035.3953.0083.0662.0013.1333-.0205.1963s-.0578.1201-.1052.167c-.0474.0468-.105.0822-.1682.1033s-.1305.0273-.1965.0183c-.1448.0026-.2896.0052-.4344.0045-2.2915-.0108-4.583-.0214-6.8745-.0318-.1795-.0233-.3619.0031-.5274.0764z"/><path d="m8.18518 21.4666c.05831.0468.11999.0893.18455.1271.78737.3667 1.57359.736 2.36517 1.0935.353.1495.7343.2201 1.1174.2071 1.6066-.01 3.2134-.0112 4.8201-.0166.4972-.0016.5258-.0285.5272-.5491.003-1.0545.001-2.109.001-3.1635 0-2.0298.0003-4.0597.001-6.0896.0006-.5207.1386-.643.5896-.5901.3413.04.3745.2562.3741.5337-.004 2.9789-.0049 5.9578-.0025 8.9367 0 .7747 0 .7747.7669.8767.6817.0906.733.048.733-.6316.0007-3.3476.0007-6.6953.0002-10.043 0-.2504-.0012-.5008-.0019-.7513-.0007-.2677-.1177-.4233-.4017-.4241-1.0138-.0029-2.0276-.0082-3.0413-.01-.063-.0072-.1267-.0003-.1867.02-.0601.0203-.1148.0537-.1604.0976-.0456.044-.081.0975-.1035.1567s-.0317.1227-.0268.1859c-.0075.1446-.011.2895-.0106.4345.0062 2.9787.0128 5.9573.0196 8.9359.001.541-.0217.5624-.5476.5625-2.1861.0005-4.3723.0014-6.55838.0028-.07891-.0187-.161-.0196-.2403-.0026-.0793.0169-.15381.0514-.21814.1008z"/><path d="m4.11715 19.5085-.02267.1071c.51194.2268 1.03643.4292 1.53309.6856.88765.4413 1.87407.6464 2.86406.5955.90769-.0234 1.81627-.0125 2.72447-.0148.7418-.0019.7877-.0443.7859-.7776-.0032-1.2777-.0074-2.5554-.0127-3.833-.0013-.491.1443-.6391.597-.6164.3666.0184.4803.1547.4803.6139 0 1.3436-.0097 2.6872-.0077 4.0308.0008.5386.0845.5868.8922.5793.3853-.0036.475-.1115.4753-.593.0014-1.8443.0013-3.6886-.0001-5.5329-.0003-.4606-.0709-.5238-.5265-.5236-.9079.0005-1.8159-.0013-2.7239-.0053-.5262-.0027-.5878.0521-.5885.5869-.0019 1.2779.0063 2.5557-.0036 3.8335-.0056.7167-.1454.8537-.86299.8611-.974.0101-1.9482.0028-2.92231.0029-.89379.0001-1.78757.0001-2.68135 0z"/><path d="m15.5091 2.182c-.0022.06391.0083.12764.0309.18746s.0569.11454.1008.16099c.044.04645.0968.08369.1553.10956s.1215.03985.1854.04113c.064.00128.1275-.01017.187-.03368s.1137-.05861.1595-.10326.0822-.09796.1072-.15683.0381-.12212.0384-.18607c.0023-.06257-.0084-.12494-.0315-.18314-.0231-.05819-.0581-.11095-.1026-.15491-.0446-.04396-.0979-.07816-.1564-.10044-.0585-.02227-.121-.03212-.1835-.02892-.062-.00433-.1242.00398-.1829.02442s-.1126.05259-.1584.0945c-.0459.0419-.0828.09269-.1084.14928-.0257.05658-.0395.11779-.0408.17991z"/><path d="m4.94399 24.9695c.01618.1167.07562.223.16653.2979.0909.0748.20663.1128.32423.1063.12946-.0022.25272-.0558.34265-.149.08994-.0931.13919-.2182.13691-.3477-.00227-.1294-.05588-.2527-.14903-.3426-.09315-.09-.21822-.1392-.34768-.1369-.0691.0053-.13643.0244-.19798.0563-.06154.0319-.11604.0758-.16023.1292-.0442.0534-.0772.1151-.09702.1815-.01983.0664-.02608.1361-.01838.205z"/><path d="m18.3412 2.88658c.1355.00792.2686-.03814.3702-.12811.1016-.08996.1635-.2165.1721-.35195-.0008-.06305-.014-.12532-.039-.18325-.0249-.05792-.061-.11036-.1062-.1543-.0452-.04395-.0987-.07853-.1573-.10177-.0586-.02325-.1212-.03469-.1843-.03368-.063-.00545-.1265.0025-.1862.02331s-.1144.05402-.1604.09744c-.046.04343-.0823.09609-.1065.15454-.0242.05844-.0358.12135-.034.18458-.0048.06088.0026.12211.0218.18008s.0498.11151.0901.15747c.0402.04595.0892.0834.1441.11013s.1146.04221.1756.04551z"/><path d="m29.3125 15.9585c-.0075.0616-.0026.124.0146.1835.0171.0596.046.1151.0851.1633.039.0481.0874.0879.1421.117.0548.029.1148.0468.1766.0521.0644.0126.1308.0116.1949-.003.064-.0146.1243-.0425.1769-.0817.0527-.0393.0966-.0892.1288-.1464.0323-.0572.0522-.1205.0585-.1859.0063-.0659-.001-.1323-.0214-.1952-.0205-.0629-.0536-.121-.0975-.1705-.0438-.0496-.0973-.0896-.1572-.1176-.06-.028-.125-.0434-.1911-.0452-.3041-.0427-.4515.1456-.5103.4296z"/><path d="m23.3666 27.9553c.0007-.0631-.0117-.1256-.0363-.1837-.0247-.0581-.061-.1105-.1068-.1539-.0457-.0435-.1-.077-.1593-.0985-.0593-.0216-.1224-.0306-.1854-.0267-.0635-.0028-.127.0081-.186.0319s-.1122.06-.156.1062c-.0439.0461-.0773.1012-.098.1613-.0207.0602-.0283.1241-.0222.1875-.0039.0635.0062.1271.0294.1864s.0591.1127.1051.1567.1011.0774.1613.098c.0603.0205.1243.0277.1876.0209.0636.0023.1269-.0088.1859-.0327.0589-.0239.1122-.06.1562-.1059.0441-.0459.0779-.1005.0994-.1604s.03-.1237.0251-.1871z"/><path d="m6.64543 5.44231c-.00131.06331.01061.12619.03501.18463.02439.05843.06072.11113.10666.15471.04594.04359.10047.0771.16011.09839.05964.0213.12306.0299.18622.02527.06256-.00072.12436-.01382.18183-.03854.05748-.02472.10949-.06057.15304-.10549s.07777-.09802.1007-.15623c.02293-.05822.03411-.12039.03289-.18294-.00122-.06256-.01481-.12425-.03999-.18153-.02517-.05727-.06144-.109-.10671-.15218-.04526-.04319-.09863-.077-.15703-.09946-.05839-.02246-.12065-.03314-.18319-.03142-.06324-.00101-.12601.01097-.18444.03518-.05843.0242-.11128.06013-.15528.10556s-.07823.0994-.10055.15858c-.02233.05917-.03229.12229-.02927.18547z"/><path d="m8.61559 4.02565c-.00593.06164.00096.12385.02022.1827.01926.05886.05048.1131.09171.15932.04122.04621.09156.0834.14784.10923.05629.02584.11731.03975.17923.04088.06248.01062.12653.00747.18767-.00923s.1179-.04656.1663-.08748c.0484-.04091.08729-.09191.11393-.14942s.04041-.12014.04033-.18352c.01008-.06267.00646-.12678-.01062-.18791s-.04721-.11783-.08832-.16619-.09221-.08723-.14979-.11393c-.05758-.02671-.12027-.04061-.18374-.04074-.29221-.02613-.4606.1471-.51476.44629z"/><path d="m4.04411 9.58863c.0634.00093.12631-.01123.18481-.03571.05849-.02448.11131-.06076.15515-.10656.04385-.04581.07778-.10016.09968-.15967s.03129-.12289.0276-.1862c.00535-.06347-.00338-.12734-.02556-.18704-.02218-.05971-.05727-.11379-.10277-.15837-.0455-.04457-.10027-.07856-.16042-.09952s-.12418-.02839-.18753-.02175c-.06352-.004-.12715.00571-.18659.02848-.05943.02277-.11326.05806-.15785.10348-.04458.04541-.07887.09989-.10054.15974-.02166.05984-.0302.12364-.02502.18707-.00115.06309.01048.12576.03418.18423.02371.05847.059.11154.10376.15602.04475.04447.09804.07943.15666.10277.05863.02334.12136.03458.18444.03303z"/><path d="m30.06 18.4018c-.0424-.2846-.1921-.4743-.4884-.4658-.0633-.0038-.1267.0061-.1858.029-.0591.023-.1125.0585-.1566.104-.0441.0456-.0779.1001-.0989.1599-.0211.0598-.029.1234-.0232.1866-.0045.0632.005.1266.0278.1858.0227.0592.0582.1126.1039.1566.0456.0439.1004.0773.1604.0978.06.0204.1238.0275.1868.0206.2956-.0005.4447-.1871.474-.4745z"/><path d="m26.564 7.61583c.0632.00104.1259-.01077.1844-.03471.0585-.02395.1115-.05953.1558-.10458s.079-.09864.102-.15751.0337-.12179.0316-.18495c.0042-.06356-.0053-.12728-.0276-.18692-.0224-.05965-.0572-.11386-.1021-.15905-.0448-.04519-.0988-.08033-.1583-.10309-.0595-.02277-.1232-.03263-.1867-.02894-.0635-.00469-.1273.00454-.1868.02704-.0596.02249-.1135.05772-.1581.10321-.0445.0455-.0786.10017-.0998.16019s-.0291.12395-.023.18733c-.0044.06327.0047.12674.0265.18628.0219.05954.056.11381.1002.15928s.0975.08112.1564.10462c.0589.02351.1221.03434.1855.0318z"/><path d="m26.5577 25.3667c.2831-.031.4782-.1772.4816-.4713.0055-.0633-.0027-.127-.024-.1869-.0213-.0598-.0554-.1143-.0997-.1598-.0444-.0454-.098-.0808-.1573-.1036-.0593-.0229-.1228-.0326-.1862-.0287-.063-.0071-.1269-.0002-.1871.0202-.0601.0205-.1149.0539-.1606.0981-.0456.0441-.0809.0978-.1034.1572-.0224.0594-.0314.1231-.0264.1864-.0046.0632.0039.1266.0252.1863s.0548.1143.0984.1603c.0436.0459.0963.0823.1548.1067.0584.0245.1213.0364.1847.0351z"/><path d="m8.61555 27.9747c-.00185.0632.00948.1261.03327.1848.02378.0586.0595.1116.10489.1556.04539.0441.09944.0782.15873.1002s.12252.0315.18565.0277c.06353.0044.12725-.0051.18674-.0278s.11332-.0581.15777-.1037c.04444-.0456.07842-.1003.09959-.1604s.02902-.124.023-.1874c.00418-.0635-.00532-.1272-.02787-.1867s-.05761-.1135-.10283-.1583c-.04521-.0448-.09951-.0793-.15924-.1013-.05972-.022-.12347-.0309-.18694-.0261-.29253.002-.4443.1941-.47276.4834z"/><path d="m11.2799 29.4632c.2923-.0392.4711-.1896.4596-.4913.0039-.0634-.006-.1268-.0291-.1859s-.0588-.1125-.1046-.1564-.1007-.0774-.1607-.0979c-.06-.0206-.1238-.0279-.187-.0213-.0635-.0024-.1268.0089-.1856.0329-.0589.024-.1119.0603-.1557.1064-.0437.0461-.0771.101-.098.161s-.0287.1238-.0231.1871c.0043.2974.2054.4352.4842.4654z"/><path d="m20.7182 3.5108c.0632.00135.126-.01037.1845-.03442.0584-.02406.1113-.05994.1552-.10538.0439-.04545.078-.09948.1-.15871.0221-.05923.0317-.12238.0282-.18549.0033-.06347-.007-.1269-.0301-.18609-.0232-.05919-.0586-.11279-.104-.15723s-.0998-.07871-.1595-.10053-.1233-.03069-.1867-.02603c-.0635-.00375-.127.00634-.1861.02958-.0592.02323-.1126.05905-.1566.10497-.0439.04592-.0774.10085-.098.16098-.0207.06013-.028.12402-.0215.18726.0002.29935.1833.44736.4746.47109z"/><path d="m2.6652 16.0014c.00257-.0626-.00794-.1251-.03086-.1835-.02291-.0583-.05773-.1113-.10224-.1554-.04451-.0442-.09772-.0786-.15626-.101-.05853-.0225-.1211-.0325-.18372-.0294-.06366-.0039-.12741.0058-.18702.0285-.05962.0226-.11373.0577-.15875.1029-.04501.0451-.0799.0994-.10235.1591-.02244.0597-.03193.1234-.02783.1871-.00469.0636.00436.1274.02652.1872.02217.0598.05694.1141.10195.1593s.09921.0801.15892.1025.12353.0316.18714.0271c.06411.0037.12826-.0065.18813-.0297.05988-.0232.1141-.0589.15904-.1048.04493-.0459.07954-.1008.1015-.1612.02196-.0603.03077-.1247.02583-.1887z"/><path d="m30.0568 13.631c-.0259-.282-.1587-.4838-.457-.4928-.063-.0069-.1268-.0002-.1869.0196-.0602.0198-.1155.0523-.1621.0952-.0466.043-.0834.0954-.1081.1538-.0246.0584-.0364.1213-.0347.1847-.0085.0628-.003.1268.016.1872.0191.0605.0513.116.0943.1626.0431.0465.0959.083.1546.1068.0588.0238.1221.0342.1854.0307.3014.0184.4538-.1591.4985-.4478z"/><path d="m3.99805 22.4428c-.061.0023-.1209.017-.17608.0431s-.1045.0631-.14497.1088-.07126.0991-.0905.157c-.01924.058-.02654.1192-.02145.18-.00213.0636.00934.1268.03362.1856.02429.0588.06083.1117.1072.1552s.10149.0766.16168.0971.12406.0279.18735.0218c.0636.0023.12696-.0091.18577-.0334.05882-.0244.11174-.061.15516-.1076.04343-.0465.07636-.1018.09657-.1621.02021-.0604.02722-.1244.02057-.1877-.00726-.2905-.19022-.4485-.51492-.4578z"/><path d="m7.12469 27.0631c.06322.0025.12627-.0082.18519-.0312.05891-.0231.11243-.0581.15719-.1028s.0798-.0982.10292-.1571c.02311-.0589.03382-.1219.03143-.1852.00353-.0635-.00643-.127-.02923-.1864s-.05792-.1133-.10305-.1581-.09925-.0796-.15879-.102c-.05953-.0224-.12314-.0319-.18663-.028-.06343-.0046-.12711.0046-.18664.027-.05954.0223-.11353.0573-.15825.1025s-.07911.0996-.10081.1594-.03018.1235-.02487.1869c-.00431.0632.00491.1266.02704.1859.02212.0594.05665.1133.10127.1583.04463.045.09832.0799.1575.1024.05919.0226.1225.0323.18573.0284z"/><path d="m11.7483 3.00553c-.0013-.06161-.015-.12232-.0404-.1785-.0253-.05617-.0617-.10665-.1071-.14842-.0453-.04176-.0985-.07395-.1566-.09464-.058-.02069-.1197-.02945-.1812-.02576-.0635-.00275-.1269.00801-.1859.03155s-.1124.05934-.1566.10503-.0782.10024-.0998.16003c-.0215.0598-.0302.12349-.0253.18687-.0037.06345.0065.12694.0298.18605.0233.05912.0593.11244.1053.15627s.101.07712.1612.09754c.0602.02043.1241.0275.1873.02073.2964-.00181.4489-.18112.4693-.49675z"/><path d="m20.7386 29.4635c.2654-.0465.461-.1926.4469-.4903.0022-.0634-.009-.1266-.0329-.1854-.024-.0588-.0601-.1118-.1061-.1556-.0459-.0438-.1006-.0774-.1605-.0985-.0598-.0211-.1235-.0293-.1868-.0241-.0633-.0027-.1266.0083-.1853.0323s-.1116.0605-.1549.1069c-.0433.0463-.076.1016-.0959.1618-.02.0602-.0266.1241-.0195.1871.0038.3011.1913.4422.495.4658z"/><path d="m13.5945 2.88963c.2856-.03367.4822-.18414.4794-.47814.0003-.12677-.0497-.24848-.1391-.33834-.0895-.08987-.2109-.14053-.3377-.14085s-.2485.04974-.3383.13916c-.0899.08941-.1406.21087-.1409.33764-.002.06333.0088.12642.032.18539.0232.05898.0581.1126.1027.15759.0447.04499.098.08039.1568.10405.0588.02365.1218.03505.1851.0335z"/><path d="m24.3734 5.44126c.0009.06221.0142.12363.039.18069s.0607.10864.1056.15174c.0448.0431.0978.07687.1558.09936.0581.02248.12.03324.1822.03165.0633.00634.1272-.00136.1872-.02255.0599-.02119.1145-.05534.1598-.10004.0453-.04469.0801-.09881.1021-.15852.022-.0597.0305-.12352.025-.18689.0058-.06327-.0023-.12703-.0236-.18687-.0214-.05984-.0555-.11432-.1-.15965s-.0983-.08043-.1578-.10285c-.0594-.02243-.123-.03165-.1864-.02701-.2925-.00106-.4486.18135-.4889.48094z"/><path d="m28.9455 10.8059c-.0636.0006-.1264.0142-.1846.0399s-.1105.063-.1538.1097c-.0433.0466-.0766.1015-.0979.1615-.0213.0599-.0302.1236-.026.1871.005.1255.0594.2439.1515.3294.092.0855.2141.1311.3396.1268.1256-.0042.2443-.058.3304-.1495.086-.0915.1324-.2133.1289-.3389-.0008-.0628-.0141-.1249-.0392-.1825s-.0614-.1097-.1069-.1531c-.0454-.0434-.0991-.0773-.1578-.0997s-.1213-.0328-.1842-.0307z"/><path d="m2.88985 18.4047c-.00062-.0627-.01368-.1246-.03843-.1823-.02475-.0576-.06069-.1098-.10574-.1534s-.09831-.0779-.1567-.1008-.12075-.034-.18345-.0326c-.06321-.0055-.12685.003-.18645.0248-.05959.0217-.11369.0563-.15849.1012s-.07922.0991-.10082.1588c-.02161.0596-.02988.1233-.02424.1865-.0064.0632.00134.127.02265.1868s.05567.1141.10058.159c.0449.0449.09924.0793.15906.1005.05982.0213.12363.0291.1868.0226.06333.0031.12661-.0069.18591-.0293.05931-.0225.11338-.0568.15887-.101.04549-.0441.08143-.0972.10559-.1558s.03602-.1216.03486-.185z"/><path d="m2.54878 11.2994c-.00174.0633.00984.1262.03399.1846.02415.0585.06032.1112.10618.1548.04585.0436.10036.0771.15998.0982.05963.0212.12303.0295.1861.0246.06247-.0007.1242-.0137.18162-.0383.05742-.0247.10939-.0604.15293-.1052.04353-.0449.07776-.0978.10072-.156.02295-.0581.03418-.1201.03303-.1826s-.01466-.1241-.03974-.1813-.06125-.1089-.1064-.1521c-.04516-.0432-.09842-.077-.1567-.0995-.05829-.0225-.12046-.0333-.18291-.0316-.06344-.002-.12659.0093-.1854.0332s-.11198.0597-.15612.1054c-.04413.0456-.07825.0999-.10017.1594-.02192.0596-.03116.1231-.02711.1864z"/><path d="m13.6146 30.0819c.063.0008.1254-.0116.1833-.0362.0579-.0247.11-.0612.153-.1072.0431-.046.076-.1004.0968-.1598.0208-.0595.0289-.1226.0239-.1853.0025-.0636-.0088-.127-.0331-.1858-.0242-.0589-.0609-.1118-.1075-.1551-.0466-.0434-.102-.0762-.1624-.0962s-.1245-.0267-.1877-.0196c-.0636-.0026-.1271.0084-.1861.0323-.0591.0238-.1124.0599-.1564.1059s-.0777.1009-.0989.1609c-.0212.0601-.0294.1239-.024.1874-.0002.0638.0129.1269.0384.1853.0256.0585.063.111.11.1541.0469.0432.1024.0761.1628.0966s.1244.0283.1879.0227z"/><path d="m18.87 29.6129c.0016-.0631-.0098-.1259-.0333-.1845s-.0587-.1118-.1035-.1564c-.0448-.0445-.0982-.0795-.1569-.1028-.0587-.0232-.1215-.0342-.1847-.0324-.0633-.0056-.1271.0025-.187.0238-.06.0212-.1146.0551-.1602.0994-.0457.0443-.0813.0978-.1043.1571-.0231.0592-.0332.1227-.0295.1862-.0057.0633.0025.1271.0241.1869.0217.0598.0561.1141.101.1591.0448.045.099.0797.1587.1016.0597.0218.1234.0303.1867.0249.0632.0043.1265-.0045.186-.0258.0596-.0214.1141-.0549.16-.0984.046-.0435.0824-.0961.107-.1544s.0368-.121.0359-.1843z"/><path d="m2.40782 14.0878c.28173-.0334.47358-.1781.47147-.4755.00419-.0633-.00518-.1267-.02749-.1861-.02232-.0593-.05705-.1133-.10189-.1581-.04483-.0448-.09873-.0796-.15808-.1019s-.12279-.0317-.18607-.0276c-.06325-.0052-.12688.0034-.18645.0253-.05956.0219-.11361.0566-.15835.1016s-.07909.0993-.10065.159c-.02155.0597-.02979.1234-.02413.1866-.00495.2989.17572.4495.47164.4767z"/><path d="m28.9716 21.2089c.2782-.0365.4696-.1835.461-.482.0035-.0635-.0066-.1269-.0296-.1862-.0231-.0592-.0586-.1128-.1041-.1572s-.0999-.0786-.1597-.1001c-.0598-.0216-.1235-.0302-.1869-.0251-.0635-.0042-.1271.0054-.1865.0281-.0594.0228-.1131.0582-.1575.1037-.0444.0456-.0784.1002-.0996.1602s-.0292.1238-.0233.1872c.001.2963.1858.4474.4862.4714z"/><path d="m27.4634 22.9005c-.0039.0634.0052.1269.0269.1866.0218.0598.0555.1144.0993.1604.0438.0461.0965.0827.1551.1074.0585.0248.1215.0372.185.0365.0633.0063.1271-.0012.1872-.0218.0602-.0206.1152-.0539.1613-.0976s.0824-.0969.1062-.1558.0347-.1223.0319-.1857c.0067-.0632-.0005-.1269-.0211-.187-.0206-.06-.0541-.1148-.0981-.1605s-.0975-.0812-.1567-.1041-.1227-.0325-.186-.0283c-.0626-.0065-.1258.0004-.1855.0202-.0598.0197-.1146.0519-.161.0944s-.0833.0944-.1082.1521c-.0249.0578-.0373.1202-.0363.1832z"/><path d="m23.3689 4.02184c-.002-.0617-.0164-.12236-.0424-.17838-.0259-.05601-.0628-.10625-.1086-.14771-.0457-.04146-.0993-.07331-.1576-.09364-.0583-.02034-.12-.02875-.1816-.02473-.0634-.00338-.1267.007-.1857.03044s-.1122.05938-.1559.10534c-.0438.04596-.0771.10085-.0976.1609s-.0278.12383-.0213.18696c-.0039.06325.0061.1266.0293.18558s.059.11215.105.15578c.046.04362.1009.07664.161.09672.0602.02008.1239.02674.1869.01951.3013-.00442.4417-.19061.4685-.49677z"/><path d="m5.89726 7.14271c-.02622-.29258-.178-.48464-.4701-.48525-.06335-.00499-.12704.00364-.18679.02531-.05974.02167-.11415.05587-.15957.10032s-.08081.0981-.10377.15736c-.02297.05925-.03298.12274-.02937.18619-.00603.06325.00175.12706.02282.187.02107.05995.05491.11459.09919.16016s.09793.08097.15725.10375c.05931.02279.12287.0324.18627.02819.30007.00833.44772-.17768.48407-.46303z"/><path d="m27.9444 9.5898c.063.00005.1254-.01252.1834-.03698.0581-.02447.1106-.06032.1546-.10544.0439-.04513.0784-.0986.1013-.15727s.0339-.12135.0321-.18431c.0047-.06341-.0044-.12707-.0267-.1866-.0223-.05954-.0572-.11353-.1024-.15825s-.0996-.0791-.1593-.10078c-.0598-.02168-.1236-.03014-.1869-.02479-.0633-.00599-.1272.00215-.187.02382s-.114.05633-.1588.10149-.079.0997-.1002.15967c-.0212.05998-.0288.12391-.0223.18718-.0029.06325.0072.12643.0298.1856.0225.05917.0571.11305.1014.1583.0443.04524.0974.08088.1561.10468.0587.02381.1216.03527.1849.03368z"/><path d="m3.00229 21.2083c.30156-.0178.49335-.1713.49986-.4609.00658-.0633-.00056-.1272-.02091-.1874s-.05344-.1154-.09702-.1617c-.04358-.0462-.09662-.0826-.15552-.1065-.05889-.024-.12225-.0349-.18577-.0322-.06309-.007-.12695-.0002-.18717.0199-.06023.02-.1154.0529-.16172.0963-.04633.0434-.0827.0963-.10664.1551-.02393.0588-.03485.1221-.03201.1855-.00577.0623.00148.125.02129.1843s.05176.1138.0938.1601.09325.0833.15038.1087c.05713.0253.11892.0386.18143.0388z"/><path d="m24.8459 27.0639c.2976-.0227.4818-.1725.4829-.4692.0064-.0632-.0011-.1269-.0219-.1869-.0207-.06-.0542-.1147-.0982-.1605-.044-.0457-.0974-.0813-.1566-.1044-.0591-.0231-.1225-.033-.1858-.0291-.0633-.0051-.1268.0034-.1865.0248-.0597.0215-.1141.0555-.1596.0996-.0454.0442-.081.0976-.1041.1567-.0232.059-.0335.1223-.0303.1856-.0101.2987.1805.4455.4601.4834z"/><path d="m15.5066 29.849c.0078.1251.0647.242.1584.3252s.2166.1259.3417.1189c.0623-.0017.1236-.0157.1805-.0412s.1082-.062.151-.1073.0762-.0987.0983-.157c.0222-.0582.0326-.1203.0307-.1826s-.0161-.1236-.0417-.1805c-.0256-.0568-.0622-.108-.1077-.1507-.0454-.0426-.0988-.0759-.1572-.0979-.0583-.022-.1204-.0322-.1827-.0302-.2975.0086-.4375.2035-.4713.5033z"/></g></g></svg>