<svg xmlns="http://www.w3.org/2000/svg" width="32" height="32" fill="none"><defs><clipPath id="idex__a"><path fill="#fff" d="M0 0h32v32H0z"/></clipPath></defs><g fill-rule="evenodd" clip-path="url(#idex__a)" clip-rule="evenodd"><path fill="#672BC8" d="M32 16a16 16 0 1 1-32 0 16 16 0 0 1 32 0Z"/><path fill="#fff" d="m7.188 22.295.306.393 1.652 2.125h13.708l1.959-2.518L19.916 16l4.59-5.901.305-.394-1.958-2.518H9.146l-.312.402-1.646 2.116L12.082 16l-4.896 6.295Zm5.903-1.26a.495.495 0 0 1-.389-.795l1.34-1.722L16 21.036h-2.909Zm6.514-5.436 4.277-5.5h-7.925a.309.309 0 0 0-.243.497l.286.368h2.909a.494.494 0 0 1 .389.796l-1.34 1.722 1.647 2.117ZM7.812 9.705l9.641 12.397.07.089a.308.308 0 0 1-.244.497H8.118l1.346 1.731h12.46L9.146 7.99 7.812 9.705Z"/></g></svg>