<svg xmlns="http://www.w3.org/2000/svg" width="32" height="32" fill="none"><path fill="#B13932" d="M30.923 10.242a15.982 15.982 0 0 0-20.65-9.173l-.044.017c-.796.308-1.566.68-2.301 1.114A15.993 15.993 0 0 0 4.68 27.312a15.665 15.665 0 0 0 3.346 2.54 15.993 15.993 0 0 0 23.207-8.945 15.71 15.71 0 0 0 .748-4.134 15.918 15.918 0 0 0-1.059-6.517v-.014Z"/><path fill="#CC4641" d="M30.923 10.242a15.917 15.917 0 0 1 1.059 6.517 27.495 27.495 0 0 1-1.595 1.933A27.65 27.65 0 0 0 10.836 2.666a27.486 27.486 0 0 1 1.835-2.3 16.01 16.01 0 0 1 18.252 9.875Z"/><path fill="#CC4641" d="M31.968 16.76a15.675 15.675 0 0 1-.734 4.133 21.68 21.68 0 0 0-.424-1.157l-.423-1.044c.56-.62 1.092-1.264 1.595-1.933h-.014Z"/><path fill="#B13932" d="m30.81 19.736.424 1.157a16 16 0 0 1-23.207 8.972 21.857 21.857 0 0 1-.861-2.2 27.747 27.747 0 0 0 23.22-8.973l.424 1.044Z"/><path fill="#BE4137" d="M30.387 18.692A27.75 27.75 0 0 1 7.152 27.68a27.623 27.623 0 0 1 3.67-25 27.65 27.65 0 0 1 19.565 16.013Z"/><path fill="#A5322D" d="M12.67.366c-.651.733-1.264 1.5-1.834 2.3A26.952 26.952 0 0 0 7.928 2.2a15.675 15.675 0 0 1 2.3-1.1 16.422 16.422 0 0 1 2.443-.734Z"/><path fill="#A5322D" d="M7.928 2.2c.977.102 1.948.258 2.908.466a27.624 27.624 0 0 0-3.67 25.013 27.082 27.082 0 0 1-2.485-.353A15.995 15.995 0 0 1 7.928 2.214V2.2Z"/><path fill="#B13932" d="M7.547 28.723c.14.395.296.776.466 1.142a15.666 15.666 0 0 1-3.332-2.539c.822.154 1.65.267 2.485.339l.38 1.058Z"/><path fill="#fff" d="M5.26 6.912h5.364c.725-.001 1.449.07 2.16.212a5.45 5.45 0 0 1 1.835.705c.535.33.977.792 1.285 1.34.346.666.511 1.41.48 2.159a4.293 4.293 0 0 1-.918 2.821 3.982 3.982 0 0 1-2.654 1.369l4.094 6.828h-3.303l-3.586-6.532H8.013v6.546H5.26V6.912Zm4.898 6.546c.392.002.783-.017 1.172-.056.374-.033.74-.123 1.087-.268a1.86 1.86 0 0 0 .79-.621c.225-.358.333-.777.31-1.2a1.904 1.904 0 0 0-.281-1.086 1.764 1.764 0 0 0-.749-.606 3.417 3.417 0 0 0-1.016-.268 8.898 8.898 0 0 0-1.073-.07H8.013v4.19h2.145v-.015Zm6.917-2.257h2.485v1.58h.042a3.372 3.372 0 0 1 1.524-1.397 4.942 4.942 0 0 1 2.076-.423 5.254 5.254 0 0 1 2.16.423c.62.267 1.178.66 1.637 1.157a4.98 4.98 0 0 1 1.03 1.735c.233.696.348 1.425.339 2.159a6.174 6.174 0 0 1-.367 2.158 5.375 5.375 0 0 1-1.03 1.75 4.797 4.797 0 0 1-1.61 1.17 4.943 4.943 0 0 1-2.047.424 5.113 5.113 0 0 1-1.312-.155 4.52 4.52 0 0 1-.988-.395 3.819 3.819 0 0 1-1.256-1.044h-.071v6.292h-2.612V11.2Zm8.682 5.234a3.392 3.392 0 0 0-.212-1.171 2.96 2.96 0 0 0-.607-1.002 3.19 3.19 0 0 0-3.543-.705c-.369.168-.7.407-.974.705a2.96 2.96 0 0 0-.607 1.002 3.44 3.44 0 0 0 0 2.356c.133.371.34.712.607 1.002a3.192 3.192 0 0 0 3.543.705c.368-.169.699-.408.974-.705.267-.29.474-.631.607-1.002.139-.375.21-.771.212-1.171v-.014Z"/></svg>