<svg fill="none" height="32" viewBox="0 0 32 32" width="32" xmlns="http://www.w3.org/2000/svg"><path d="m30.923 10.2415c-1.523-3.95401-4.5539-7.14144-8.4263-8.86153-3.8723-1.720084-8.2693-1.83203-12.2242-.31123l-.0437.01686c-.796.30829-1.56551.68103-2.30087 1.11451-2.1115 1.23365-3.91196 2.93508-5.26297 4.97348s-2.216571 4.35951-2.530135 6.78471c-.313563 2.4253-.0667765 4.8902.721385 7.2052.78816 2.3149 2.09671 4.4183 3.82502 6.1484.99615.9928 2.12143 1.847 3.34551 2.5394 2.06566 1.1906 4.37126 1.9044 6.74836 2.089 2.377.1845 4.7652-.1646 6.9899-1.0221 2.2247-.8574 4.2295-2.2014 5.8678-3.9335 1.6383-1.7322 2.8685-3.8087 3.6008-6.0777.4337-1.338.6853-2.7284.7481-4.1336.1066-2.2227-.2541-4.443-1.0587-6.5178z" fill="#b13932"/><path d="m30.923 10.2415c.8046 2.0747 1.1653 4.2951 1.0587 6.5178-.502.6681-1.0337 1.3124-1.5951 1.9328-1.7499-4.0333-4.4364-7.5912-7.8365-10.37844-3.4002-2.78723-7.416-4.72345-11.7142-5.64801.5702-.79874 1.1828-1.56636 1.8351-2.299571 3.7194-.789568 7.5985-.229506 10.9428 1.579921 3.3442 1.80943 5.9352 4.75009 7.3092 8.2955z" fill="#cc4641"/><path d="m31.9676 16.7593c-.0582 1.4045-.3051 2.7949-.734 4.1336-.1302-.3895-.2713-.7752-.4235-1.1569l-.4234-1.044c.5604-.62 1.0921-1.2642 1.5951-1.9327z" fill="#cc4641"/><path d="m30.8101 19.7361.4235 1.1568c-.7299 2.2708-1.9584 4.3497-3.5954 6.0845-1.6371 1.7347-3.6414 3.0815-5.8661 3.9417-2.2248.8601-4.6137 1.2119-6.992 1.0296s-4.6857-.8941-6.75337-2.0833c-.3265-.7175-.61394-1.4522-.86108-2.2008 4.30195.4163 8.64165-.1781 12.67325-1.7359 4.0315-1.5578 7.6434-4.0358 10.5478-7.2366z" fill="#b13932"/><path d="m30.3867 18.6921c-2.9045 3.2053-6.5181 5.6872-10.5523 7.2476-4.0343 1.5603-8.3775 2.1558-12.68282 1.739-1.42082-4.1584-1.82902-8.5958-1.1907-12.9437.63833-4.3479 2.30475-8.48071 4.86092-12.05528 4.2993.92109 8.3171 2.85425 11.7197 5.63906 3.4027 2.78482 6.0921 6.34092 7.8452 10.37332z" fill="#be4137"/><path d="m12.6709.366089c-.6523.733211-1.2649 1.500831-1.8351 2.299571-.96007-.20802-1.93082-.36344-2.90788-.46556.7358-.4287 1.50532-.79672 2.30088-1.10041.7937-.307826 1.6102-.553108 2.4421-.733601z" fill="#a5322d"/><path d="m7.92791 2.2001c.97706.10212 1.94781.25754 2.90789.46556-2.55836 3.57621-4.22607 7.71154-4.86443 12.06204-.63835 4.3505-.22892 8.7906 1.19427 12.951-.83315-.0791-1.66129-.1967-2.48443-.3527-1.72796-1.7303-3.03619-3.8337-3.824134-6.1486-.7879443-2.3149-1.034623-4.7797-.721075-7.2048.313547-2.4252 1.178969-4.74615 2.529759-6.78454 1.35078-2.0384 3.15095-3.73994 5.26215-4.97385z" fill="#a5322d"/><path d="m7.54678 28.7227c.14116.395.29644.7759.46583 1.1427-1.21912-.6935-2.3396-1.5476-3.3314-2.5394.822.1539 1.65015.2667 2.48443.3386z" fill="#b13932"/><path d="m5.26001 6.9121h5.36409c.7252-.00154 1.4487.06935 2.1598.21162.6494.12196 1.2712.36097 1.8351.70539.5352.33023.9773.79152 1.2846 1.34024.3459.66516.5114 1.40945.4799 2.15845.0392 1.0197-.2861 2.02-.9175 2.8216-.6736.7831-1.6252 1.2738-2.6538 1.3684l4.0936 6.8282h-3.3032l-3.5855-6.5319h-2.00446v6.546h-2.75263zm4.89829 6.546c.3913.002.7824-.0169 1.1716-.0564.3741-.0324.7408-.1228 1.087-.268.3154-.1306.5888-.3454.7905-.6208.2242-.3583.3326-.777.3105-1.1991.0172-.3823-.0812-.7608-.2823-1.0863-.1883-.26772-.4473-.47776-.7482-.60667-.3229-.1412-.6657-.2316-1.0163-.268-.3559-.04512-.7141-.06867-1.0728-.07054h-2.38566v4.19001h2.14566zm6.9169-2.2572h2.4844v1.58h.0424c.3494-.6136.8826-1.1022 1.5245-1.3966.653-.2894 1.3609-.4338 2.0751-.4233.7417-.0129 1.4778.1313 2.1597.4233.621.2664 1.1789.6605 1.6375 1.1568.4583.502.809 1.0926 1.0305 1.7353.2328.6954.3473 1.4251.3387 2.1584.0072.7357-.117 1.4666-.367 2.1585-.2292.6433-.5789 1.237-1.0304 1.7494-.4487.4985-.9969.8974-1.6093 1.1709-.6443.2854-1.3421.4297-2.0468.4233-.4425.0053-.8838-.0469-1.3128-.1552-.3438-.0923-.6754-.2249-.9881-.395-.2676-.1409-.5185-.3112-.7482-.5079-.1863-.1618-.3565-.3414-.5082-.5361h-.0705v6.2921h-2.6115zm8.6814 5.234c-.0009-.3998-.0726-.7962-.2118-1.171-.1336-.3709-.34-.7115-.607-1.0016-.4501-.4618-1.0296-.7764-1.6621-.9023s-1.2883-.0573-1.881.1969c-.3685.1678-.6996.4076-.974.7054-.267.2901-.4734.6307-.607 1.0016-.2773.7609-.2773 1.5952 0 2.356.1333.3711.3397.7117.607 1.0017.4502.4617 1.0297.7763 1.6621.9022.6325.126 1.2883.0573 1.881-.1968.3681-.1685.6992-.4083.974-.7054.2673-.29.4737-.6306.607-1.0017.1392-.3747.2109-.7712.2118-1.171z" fill="#fff"/></svg>