<svg xmlns="http://www.w3.org/2000/svg" width="32" height="32" fill="none"><defs><linearGradient id="ilv__a" x1="16" x2="16" y1="32" y2="0" gradientUnits="userSpaceOnUse"><stop stop-color="#222450"/><stop offset="1" stop-color="#652B7F"/></linearGradient></defs><path fill="url(#ilv__a)" d="M16 32c8.837 0 16-7.163 16-16S24.837 0 16 0 0 7.163 0 16s7.163 16 16 16Z"/><path fill="#fff" d="M16 6.37c-.14 4.27-.13 8.87 0 13.16.13-4.29.13-8.89 0-13.16ZM11.27 29l.13-.06c.848-.456 1.74-.828 2.66-1.11a6 6 0 0 1 3.53-.09c1.022.281 2.01.67 2.95 1.16.06 0 .11.1.19.08l-4.42-3.4a.408.408 0 0 0-.58 0L11.27 29Zm-.87-16.2c-.1.12-.05.22 0 .31.34.377.588.83.72 1.32.168.6.262 1.218.28 1.84v6.71a12.33 12.33 0 0 1-.64 4.13c-.17.52-.35 1-.59 1.59l.11-.05c1.29-1 2.57-2.07 3.91-3a.289.289 0 0 0 .07-.44 5.052 5.052 0 0 0-.35-.46 2.27 2.27 0 0 1-.5-1.46v-10c0-3.36 0-6.72-.06-10.08V3h-.05c-.14 1.34-.3 2.67-.55 4a13.539 13.539 0 0 1-2.3 5.78l-.05.02Zm8.28-3.7c-.05 3 0 6-.06 9v4.69a2.867 2.867 0 0 1-.73 2.12l-.14.19a.301.301 0 0 0 .09.47c1.29.93 2.52 1.93 3.75 2.92.06.05.11.12.22.11a16.23 16.23 0 0 1-.92-2.84 6.171 6.171 0 0 1-.22-1.12c-.08-.94-.06-1.89-.07-2.83v-4.84a13 13 0 0 1 .1-1.65 4.35 4.35 0 0 1 .74-2c.3-.4.3-.4 0-.82a13.132 13.132 0 0 1-1.95-4.81A38.639 38.639 0 0 1 18.78 3h-.06v6.1h-.04Z"/></svg>