<svg fill="none" height="32" viewBox="0 0 32 32" width="32" xmlns="http://www.w3.org/2000/svg" xmlns:xlink="http://www.w3.org/1999/xlink"><linearGradient id="a" gradientUnits="userSpaceOnUse" x1="16" x2="16" y1="32" y2="0"><stop offset="0" stop-color="#222450"/><stop offset="1" stop-color="#652b7f"/></linearGradient><path d="m16 32c8.8366 0 16-7.1634 16-16 0-8.83656-7.1634-16-16-16-8.83656 0-16 7.16344-16 16 0 8.8366 7.16344 16 16 16z" fill="url(#a)"/><path d="m16 6.37c-.14 4.27-.13 8.87 0 13.16.13-4.29.13-8.89 0-13.16zm-4.73 22.63.13-.06c.8485-.4557 1.7394-.8275 2.66-1.11 1.141-.3834 2.371-.4148 3.53-.09 1.0216.2814 2.0104.6702 2.95 1.16.06 0 .11.1.19.08l-4.42-3.4c-.038-.0381-.0832-.0683-.133-.0889-.0498-.0207-.1031-.0313-.157-.0313-.0538 0-.1072.0106-.1569.0313-.0498.0206-.095.0508-.1331.0889zm-.87-16.2c-.1.12-.05.22 0 .31.3409.377.5876.8293.72 1.32.1678.5997.2618 1.2176.28 1.84v2.88 3.83c.0231 1.403-.1934 2.7997-.64 4.13-.17.52-.35 1-.59 1.59l.11-.05c1.29-1 2.57-2.07 3.91-3 .0366-.0217.0679-.0513.0917-.0864.0239-.0352.0397-.0752.0464-.1172s.004-.0849-.0077-.1258c-.0118-.0408-.0324-.0786-.0604-.1106-.1078-.1599-.2246-.3134-.35-.46-.332-.4133-.5089-.9299-.5-1.46 0-.71 0-1.43 0-2.14 0-2.62 0-5.23 0-7.86 0-3.36 0-6.72-.06-10.08v-.21h-.05c-.14 1.34-.3 2.67-.55 4-.3076 2.07906-1.0951 4.0579-2.3 5.78zm8.28-3.7c-.05 3 0 6-.06 9v4.69c.0269.3843-.0239.77-.1494 1.1342-.1254.3643-.3228.6995-.5806.9858l-.14.19c-.031.0344-.0537.0756-.0662.1202-.0124.0447-.0144.0916-.0057.1372.0088.0455.0279.0884.056.1253s.0644.0668.1059.0873c1.29.93 2.52 1.93 3.75 2.92.06.05.11.12.22.11-.3933-.9164-.7012-1.8671-.92-2.84-.1078-.3657-.1814-.7407-.22-1.12-.08-.94-.06-1.89-.07-2.83 0-1.61 0-3.23 0-4.84-.0017-.5516.0317-1.1027.1-1.65.0769-.7177.3313-1.4051.74-2 .3-.4.3-.4 0-.82-.9635-1.4576-1.6265-3.09289-1.95-4.81-.3325-1.54731-.5696-3.1136-.71-4.69h-.06v6.1z" fill="#fff"/></svg>