<svg width="32" height="32" fill="none" xmlns="http://www.w3.org/2000/svg"><path d="M16 32c8.837 0 16-7.163 16-16S24.837 0 16 0 0 7.163 0 16s7.163 16 16 16Z" fill="#122028"/><path d="M23.855 7.87h2.096l-8.512 9.728a.667.667 0 0 0-.012.873l4.91 5.712h-2.19l-4.54-5.294-.226-.287a.667.667 0 0 1 .012-.874l8.462-9.857Z" fill="#17B5CB"/><path d="M19.127 18.478a.664.664 0 0 1-.139-.587c.045-.117.111-.226.196-.32l.566-.625 6.252 7.237h-1.99s-3.664-4.277-4.885-5.705ZM8.185 24.183H6l6.699-7.759a.657.657 0 0 0 0-.86L6.05 7.87h2.103l6.686 7.758a.636.636 0 0 1 .02.776c-1.751 2.027-6.674 7.778-6.674 7.778ZM11.849 7.87H9.828l6.195 7.179s.019-.013.711-.828a.493.493 0 0 0 .02-.704C15.45 12.18 11.848 7.87 11.848 7.87ZM17.88 12.878l4.3-5.007h-2.033l-2.248 2.62-.648.757a.667.667 0 0 0-.013.873c.164.19.642.757.642.757ZM14.147 19.176l-4.3 5.007h2.034l2.247-2.621.649-.756a.667.667 0 0 0 .012-.874c-.163-.19-.642-.756-.642-.756Z" fill="#17B5CB"/></svg>