<svg fill="none" height="32" viewBox="0 0 32 32" width="32" xmlns="http://www.w3.org/2000/svg"><path d="m16 32c8.8366 0 16-7.1634 16-16 0-8.83656-7.1634-16-16-16-8.83656 0-16 7.16344-16 16 0 8.8366 7.16344 16 16 16z" fill="#122028"/><g fill="#17b5cb"><path d="m23.855 7.87051h2.0965l-8.512 9.72739c-.1068.1197-.1669.274-.1692.4345-.0023.1604.0534.3163.1567.4391l4.9107 5.7112h-2.1909l-4.5393-5.294-.2267-.2868c-.1033-.1228-.1589-.2787-.1566-.4392.0023-.1604.0624-.3147.1692-.4345z"/><path d="m19.1269 18.478c-.0677-.08-.1156-.1748-.1396-.2768-.0241-.102-.0237-.2082.0011-.31.045-.1175.1111-.2258.1952-.3194l.5666-.6259 6.2518 7.2369h-1.9895s-3.6642-4.277-4.8856-5.7048z"/><path d="m8.18466 24.1827h-2.18466l6.6988-7.7584c.1035-.1194.1605-.2722.1605-.4303s-.057-.3108-.1605-.4303l-6.64843-7.69319h2.10281l6.68612 7.75839c.0884.1091.1381.2444.1416.3847.0034.1404-.0397.2779-.1227.3911-1.7502 2.0277-6.67354 7.778-6.67354 7.778z"/><path d="m11.8489 7.87051h-2.02102l6.19512 7.17819s.0189-.013.7114-.828c.0483-.0446.0871-.0983.1143-.1581.0271-.0598.042-.1244.0438-.19.0017-.0656-.0097-.131-.0336-.1921-.0239-.0612-.0598-.1169-.1056-.164-1.3032-1.3365-4.9044-5.64599-4.9044-5.64599z"/><path d="m17.8802 12.8776 4.3-5.00709h-2.0335l-2.2476 2.62089-.6485.7563c-.1068.1197-.1669.274-.1692.4345-.0023.1604.0533.3164.1566.4391.1637.1891.6422.7563.6422.7563z"/><path d="m14.147 19.1757-4.30008 5.0071h2.03358l2.2476-2.6209.6485-.7563c.1068-.1197.1669-.274.1692-.4344.0023-.1605-.0533-.3164-.1566-.4392-.1637-.1891-.6422-.7563-.6422-.7563z"/></g></svg>