<svg xmlns="http://www.w3.org/2000/svg" width="32" height="32" fill="none"><defs><linearGradient id="inj__a" x1="9.113" x2="17.15" y1="24.708" y2="10.788" gradientUnits="userSpaceOnUse"><stop stop-color="#174E5B"/><stop offset=".07" stop-color="#195A6C"/><stop offset=".21" stop-color="#1E779A"/><stop offset=".4" stop-color="#27A7E3"/><stop offset=".47" stop-color="#2ABAFF"/><stop offset=".7" stop-color="#1DDAF0"/><stop offset="1" stop-color="#0EFFE0"/></linearGradient><linearGradient id="inj__b" x1="22.887" x2="14.85" y1="7.295" y2="21.215" gradientUnits="userSpaceOnUse"><stop stop-color="#174E5B"/><stop offset=".07" stop-color="#195A6C"/><stop offset=".21" stop-color="#1E779A"/><stop offset=".4" stop-color="#27A7E3"/><stop offset=".47" stop-color="#2ABAFF"/><stop offset=".7" stop-color="#1DDAF0"/><stop offset="1" stop-color="#0EFFE0"/></linearGradient></defs><circle cx="16" cy="16" r="16" fill="#1A202C"/><path fill="url(#inj__a)" d="M18.896 26.15a.268.268 0 0 0-.167-.098 12.39 12.39 0 0 1-3.56-1.355c-2.279-1.326-3.732-3.332-3.787-5.617a5.832 5.832 0 0 1 .525-2.528c.232-.515 1.477-2.36 1.683-2.698.847-1.328.575-1.244-.618-2.903l-1.717-2.543-1.161-1.693c-.665.453-1.295.955-1.884 1.502a11.002 11.002 0 0 0 2.444 17.382c-3.824-2.803-5.569-7.005-4.105-11.243.4-1.137.984-2.2 1.73-3.148l1.257 1.85a.605.605 0 0 1-.03.717 8.225 8.225 0 0 0-1.384 2.468c-1.607 4.665 2.736 9.497 7.324 10.285.88.15 2.483.318 3.31.105a.294.294 0 0 0 .14-.483Z"/><path fill="url(#inj__b)" d="M13.105 5.853a.268.268 0 0 0 .167.1c1.25.264 2.45.721 3.56 1.353 2.278 1.326 3.731 3.333 3.787 5.618a5.835 5.835 0 0 1-.526 2.528c-.232.515-1.476 2.36-1.682 2.697-.848 1.329-.575 1.245.618 2.904l1.716 2.543 1.161 1.693a16.037 16.037 0 0 0 1.884-1.502 11 11 0 0 0-2.444-17.382c3.823 2.802 5.568 7.004 4.105 11.242a10.957 10.957 0 0 1-1.73 3.148l-1.257-1.85a.605.605 0 0 1 .03-.716 8.225 8.225 0 0 0 1.384-2.468c1.607-4.665-2.736-9.498-7.323-10.285-.88-.15-2.482-.318-3.31-.105a.294.294 0 0 0-.14.482Z"/></svg>