<svg fill="none" height="32" viewBox="0 0 32 32" width="32" xmlns="http://www.w3.org/2000/svg" xmlns:xlink="http://www.w3.org/1999/xlink"><linearGradient id="a" gradientUnits="userSpaceOnUse" x1="10.3173" x2="6.13135" y1="10.3155" y2="6.12954"><stop offset="0" stop-color="#4a69b0"/><stop offset="1" stop-color="#056ebd"/></linearGradient><linearGradient id="b" gradientUnits="userSpaceOnUse" x1="7.18261" x2="9.3327" y1="14.4357" y2="12.4017"><stop offset="0" stop-color="#307ca3"/><stop offset="1" stop-color="#6a739a"/></linearGradient><linearGradient id="c" gradientUnits="userSpaceOnUse" x1="6.55817" x2="9.95307" y1="20.1823" y2="16.9719"><stop offset="0" stop-color="#a59968"/><stop offset="1" stop-color="#a8886f"/></linearGradient><linearGradient id="d" gradientUnits="userSpaceOnUse" x1="21.4026" x2="26.0414" y1="10.46" y2="6.0732"><stop offset="0" stop-color="#de2ab7"/><stop offset="1" stop-color="#fc11d5"/></linearGradient><linearGradient id="e" gradientUnits="userSpaceOnUse" x1="26.0509" x2="21.9178" y1="12.1915" y2="14.3705"><stop offset="0" stop-color="#e2369d"/><stop offset="1" stop-color="#f922aa"/></linearGradient><linearGradient id="f" gradientUnits="userSpaceOnUse" x1="22.6511" x2="24.8011" y1="19.5921" y2="17.5581"><stop offset="0" stop-color="#ea4c68"/><stop offset="1" stop-color="#f44752"/></linearGradient><linearGradient id="g" gradientUnits="userSpaceOnUse" x1="21.5015" x2="25.9927" y1="21.4999" y2="25.9911"><stop offset="0" stop-color="#ef5948"/><stop offset="1" stop-color="#f15829"/></linearGradient><linearGradient id="h" gradientUnits="userSpaceOnUse" x1="12.41" x2="14.418" y1="9.21195" y2="7.31309"><stop offset="0" stop-color="#6344d6"/><stop offset="1" stop-color="#874abf"/></linearGradient><linearGradient id="i" gradientUnits="userSpaceOnUse" x1="16.9062" x2="20.2296" y1="9.83595" y2="6.69318"><stop offset="0" stop-color="#952ee3"/><stop offset="1" stop-color="#9d3fc3"/></linearGradient><linearGradient id="j" gradientUnits="userSpaceOnUse" x1="5.93409" x2="10.573" y1="25.9285" y2="21.5418"><stop offset="0" stop-color="#f5ae3d"/><stop offset="1" stop-color="#d7974e"/></linearGradient><linearGradient id="k" gradientUnits="userSpaceOnUse" x1="11.7503" x2="15.0734" y1="25.305" y2="22.1612"><stop offset="0" stop-color="#e08242"/><stop offset="1" stop-color="#f39241"/></linearGradient><linearGradient id="l" gradientUnits="userSpaceOnUse" x1="17.566" x2="19.5741" y1="24.681" y2="22.7812"><stop offset="0" stop-color="#e86d35"/><stop offset="1" stop-color="#f17544"/></linearGradient><path d="m16 32c8.8366 0 16-7.1634 16-16 0-8.83656-7.1634-16-16-16-8.83656 0-16 7.16344-16 16 0 8.8366 7.16344 16 16 16z" fill="#000"/><path d="m18.5001 13.5003h-1.0937v1.0938h1.0937z" fill="#be5095"/><path d="m13.5 18.4999h1.0937v-1.0937h-1.0937z" fill="#bd687b"/><path d="m13.5 14.5941h1.0937v-1.0938h-1.0937z" fill="#ac5e90"/><path d="m18.5001 17.4062h-1.0937v1.0937h1.0937z" fill="#c85c7f"/><path d="m9.75009 10.5312h.78131v-.7812l-3.74998-3.75h-.7813v.78121z" fill="url(#a)"/><path d="m9.73454 14.4372h.79686v-.7812l-3.73436-1.25h-.79692v.7813z" fill="url(#b)"/><path d="m10.5314 18.3438v-.7813h-.79686l-3.73442 1.25v.7813h.79692z" fill="url(#c)"/><path d="m21.4688 9.75v.7812h.7812l3.75-3.74999v-.78121h-.7813z" fill="url(#d)"/><path d="m25.9999 13.1873v-.7813h-.7968l-3.7343 1.25v.7813h.7968z" fill="url(#e)"/><path d="m25.2031 19.5938h.7968v-.7813l-3.7343-1.25h-.7968v.7813z" fill="url(#f)"/><path d="m22.25 21.4688h-.7812v.7812l3.75 3.75h.7812v-.7812z" fill="url(#g)"/><path d="m13.1875 6h-.7813v.79685l1.25 3.73435h.7813v-.79687z" fill="url(#h)"/><path d="m19.5937 6.79685v-.79685h-.7813l-1.25 3.73433v.79687h.7813z" fill="url(#i)"/><path d="m10.5313 22.25v-.7812h-.7813l-3.75 3.75v.7812h.7813z" fill="url(#j)"/><path d="m14.4375 22.2657v-.7969h-.7813l-1.25 3.7343v.7969h.7814z" fill="url(#k)"/><path d="m18.8124 26h.7813v-.7969l-1.25-3.7343h-.7813v.7969z" fill="url(#l)"/></svg>