<svg xmlns="http://www.w3.org/2000/svg" width="32" height="32" fill="none"><defs><linearGradient id="ins__a" x1="10.317" x2="6.131" y1="10.316" y2="6.13" gradientUnits="userSpaceOnUse"><stop stop-color="#4A69B0"/><stop offset="1" stop-color="#056EBD"/></linearGradient><linearGradient id="ins__b" x1="7.183" x2="9.333" y1="14.436" y2="12.402" gradientUnits="userSpaceOnUse"><stop stop-color="#307CA3"/><stop offset="1" stop-color="#6A739A"/></linearGradient><linearGradient id="ins__c" x1="6.558" x2="9.953" y1="20.182" y2="16.972" gradientUnits="userSpaceOnUse"><stop stop-color="#A59968"/><stop offset="1" stop-color="#A8886F"/></linearGradient><linearGradient id="ins__d" x1="21.403" x2="26.041" y1="10.46" y2="6.073" gradientUnits="userSpaceOnUse"><stop stop-color="#DE2AB7"/><stop offset="1" stop-color="#FC11D5"/></linearGradient><linearGradient id="ins__e" x1="26.051" x2="21.918" y1="12.191" y2="14.37" gradientUnits="userSpaceOnUse"><stop stop-color="#E2369D"/><stop offset="1" stop-color="#F922AA"/></linearGradient><linearGradient id="ins__f" x1="22.651" x2="24.801" y1="19.592" y2="17.558" gradientUnits="userSpaceOnUse"><stop stop-color="#EA4C68"/><stop offset="1" stop-color="#F44752"/></linearGradient><linearGradient id="ins__g" x1="21.502" x2="25.993" y1="21.5" y2="25.991" gradientUnits="userSpaceOnUse"><stop stop-color="#EF5948"/><stop offset="1" stop-color="#F15829"/></linearGradient><linearGradient id="ins__h" x1="12.41" x2="14.418" y1="9.212" y2="7.313" gradientUnits="userSpaceOnUse"><stop stop-color="#6344D6"/><stop offset="1" stop-color="#874ABF"/></linearGradient><linearGradient id="ins__i" x1="16.906" x2="20.23" y1="9.836" y2="6.693" gradientUnits="userSpaceOnUse"><stop stop-color="#952EE3"/><stop offset="1" stop-color="#9D3FC3"/></linearGradient><linearGradient id="ins__j" x1="5.934" x2="10.573" y1="25.928" y2="21.542" gradientUnits="userSpaceOnUse"><stop stop-color="#F5AE3D"/><stop offset="1" stop-color="#D7974E"/></linearGradient><linearGradient id="ins__k" x1="11.75" x2="15.073" y1="25.305" y2="22.161" gradientUnits="userSpaceOnUse"><stop stop-color="#E08242"/><stop offset="1" stop-color="#F39241"/></linearGradient><linearGradient id="ins__l" x1="17.566" x2="19.574" y1="24.681" y2="22.781" gradientUnits="userSpaceOnUse"><stop stop-color="#E86D35"/><stop offset="1" stop-color="#F17544"/></linearGradient></defs><path fill="#000" d="M16 32c8.837 0 16-7.163 16-16S24.837 0 16 0 0 7.163 0 16s7.163 16 16 16Z"/><path fill="#BE5095" d="M18.5 13.5h-1.094v1.094H18.5V13.5Z"/><path fill="#BD687B" d="M13.5 18.5h1.094v-1.094H13.5V18.5Z"/><path fill="#AC5E90" d="M13.5 14.594h1.094V13.5H13.5v1.094Z"/><path fill="#C85C7F" d="M18.5 17.406h-1.094V18.5H18.5v-1.094Z"/><path fill="url(#ins__a)" d="M9.75 10.531h.781V9.75L6.781 6h-.78v.781l3.75 3.75Z"/><path fill="url(#ins__b)" d="M9.735 14.437h.796v-.781l-3.734-1.25H6v.781l3.735 1.25Z"/><path fill="url(#ins__c)" d="M10.531 18.344v-.782h-.796L6 18.813v.782h.797l3.734-1.25Z"/><path fill="url(#ins__d)" d="M21.469 9.75v.781h.781L26 6.781V6h-.781l-3.75 3.75Z"/><path fill="url(#ins__e)" d="M26 13.187v-.781h-.797l-3.734 1.25v.781h.797L26 13.187Z"/><path fill="url(#ins__f)" d="M25.203 19.594H26v-.782l-3.734-1.25h-.797v.782l3.734 1.25Z"/><path fill="url(#ins__g)" d="M22.25 21.469h-.781v.781l3.75 3.75H26v-.781l-3.75-3.75Z"/><path fill="url(#ins__h)" d="M13.188 6h-.782v.797l1.25 3.734h.781v-.797L13.188 6Z"/><path fill="url(#ins__i)" d="M19.594 6.797V6h-.782l-1.25 3.734v.797h.782l1.25-3.734"/><path fill="url(#ins__j)" d="M10.531 22.25v-.781H9.75L6 25.219V26h.781l3.75-3.75Z"/><path fill="url(#ins__k)" d="M14.438 22.266v-.797h-.782l-1.25 3.734V26h.782l1.25-3.734Z"/><path fill="url(#ins__l)" d="M18.812 26h.782v-.797l-1.25-3.734h-.782v.797L18.812 26Z"/></svg>