<svg fill="none" height="32" viewBox="0 0 32 32" width="32" xmlns="http://www.w3.org/2000/svg"><path d="m15.856.00097656-13.856 7.99956344v15.99916l13.856 7.9995 13.856-7.9995v-15.99916z" fill="#000"/><path d="m16.1393 25.9149-10.63527-6.0659.04311-2.9498 10.58596 6.0597 5.1052-2.9436-3.424-1.9768-1.2809.739-2.4017-1.3795 1.2871-.7451-1.6812-.973-1.0161.5912-2.4079-1.3795 1.0223-.5912-5.42543-3.1345 10.22263-5.89963 9.6438 5.49933-2.5865 1.5026-7.0573-4.04598-5.1051 2.94368 2.8574 1.6504 1.4595-.8499 2.4078 1.3795-1.4718.8498 1.6812.973 1.1947-.6959 2.4079 1.3795-1.207.702 5.9858 3.4548z" fill="#fff"/></svg>