<svg xmlns="http://www.w3.org/2000/svg" width="32" height="32" fill="none"><path fill="#000" d="M15.856.001 2 8.001V24l13.856 8 13.856-8V8L15.856.002Z"/><path fill="#fff" d="M16.14 25.915 5.503 19.849l.043-2.95 10.586 6.06 5.105-2.944-3.424-1.977-1.28.74-2.402-1.38 1.287-.745-1.681-.973-1.016.591-2.408-1.38 1.022-.59-5.426-3.135 10.223-5.9 9.644 5.5-2.587 1.502-7.057-4.046-5.105 2.944 2.857 1.65 1.46-.85 2.408 1.38-1.472.85 1.681.973 1.195-.696 2.408 1.38-1.207.701 5.985 3.455-10.204 5.906Z"/></svg>