<svg fill="none" height="32" viewBox="0 0 32 32" width="32" xmlns="http://www.w3.org/2000/svg"><circle cx="16" cy="16" fill="#131f37" r="16"/><g fill="#f6f8fc"><path d="m21.1786 8.39832c.6639 0 1.2022-.53689 1.2022-1.19917 0-.66227-.5383-1.19915-1.2022-1.19915-.664 0-1.2023.53688-1.2023 1.19915 0 .66228.5383 1.19917 1.2023 1.19917z"/><path d="m22.53 25.3368c.6639 0 1.2023-.5371 1.2023-1.1992 0-.6624-.5384-1.1993-1.2023-1.1993-.664 0-1.2022.5369-1.2022 1.1993 0 .6621.5382 1.1992 1.2022 1.1992z"/><path d="m21.5217 11.396c.5573 0 1.0091-.4506 1.0091-1.0064 0-.55588-.4518-1.00648-1.0091-1.00648s-1.009.4506-1.009 1.00648c0 .5558.4517 1.0064 1.009 1.0064z"/><path d="m24.205 11.7813c.5574 0 1.009-.4506 1.009-1.0065 0-.5558-.4516-1.0064-1.009-1.0064-.5573 0-1.009.4506-1.009 1.0064 0 .5559.4517 1.0065 1.009 1.0065z"/><path d="m21.1778 13.9446c.4743 0 .8588-.3834.8588-.8565s-.3845-.8565-.8588-.8565c-.4742 0-.8587.3834-.8587.8565s.3845.8565.8587.8565z"/><path d="m23.8613 14.3087c.4742 0 .8587-.3835.8587-.8566 0-.473-.3845-.8565-.8587-.8565-.4744 0-.8589.3835-.8589.8565 0 .4731.3845.8566.8589.8566z"/><path d="m26.0083 15.1435c.4742 0 .8587-.3835.8587-.8565 0-.4731-.3845-.8566-.8587-.8566-.4744 0-.8589.3835-.8589.8566 0 .473.3845.8565.8589.8565z"/><path d="m23.0682 16.3642c.415 0 .7514-.3356.7514-.7495s-.3364-.7495-.7514-.7495-.7514.3356-.7514.7495.3364.7495.7514.7495z"/><path d="m20.3849 16.0001c.415 0 .7514-.3355.7514-.7494 0-.414-.3364-.7495-.7514-.7495-.4149 0-.7514.3355-.7514.7495 0 .4139.3365.7494.7514.7494z"/><path d="m25.2368 17.1988c.4149 0 .7514-.3355.7514-.7494 0-.414-.3365-.7495-.7514-.7495-.4151 0-.7514.3355-.7514.7495 0 .4139.3363.7494.7514.7494z"/><path d="m21.9948 17.9269c.3557 0 .644-.2876.644-.6424s-.2883-.6424-.644-.6424-.6441.2876-.6441.6424.2884.6424.6441.6424z"/><path d="m24.1634 18.741c.3558 0 .644-.2876.644-.6424s-.2882-.6424-.644-.6424c-.3557 0-.6441.2876-.6441.6424s.2884.6424.6441.6424z"/><path d="m19.3328 17.5415c.3557 0 .6441-.2877.6441-.6425 0-.3547-.2884-.6423-.6441-.6423s-.6441.2876-.6441.6423c0 .3548.2884.6425.6441.6425z"/><path d="m20.813 18.9762c.2964 0 .5367-.2396.5367-.5353s-.2403-.5354-.5367-.5354c-.2965 0-.5368.2397-.5368.5354s.2403.5353.5368.5353z"/><path d="m21.7362 20.4541c.2609 0 .4723-.2109.4723-.4711s-.2114-.4711-.4723-.4711c-.2608 0-.4723.2109-.4723.4711s.2115.4711.4723.4711z"/><path d="m20.5988 20.7542c.2135 0 .3865-.1726.3865-.3855 0-.2128-.173-.3854-.3865-.3854-.2134 0-.3864.1726-.3864.3854 0 .2129.173.3855.3864.3855z"/><path d="m19.5889 19.6406c.2608 0 .4723-.2109.4723-.4711s-.2115-.4711-.4723-.4711-.4723.2109-.4723.4711.2115.4711.4723.4711z"/><path d="m18.1296 18.613c.2964 0 .5367-.2397.5367-.5353 0-.2957-.2403-.5354-.5367-.5354s-.5367.2397-.5367.5354c0 .2956.2403.5353.5367.5353z"/><path d="m18.1084 14.5863c.2964 0 .5367-.2397.5367-.5353 0-.2957-.2403-.5354-.5367-.5354s-.5367.2397-.5367.5354c0 .2956.2403.5353.5367.5353z"/><path d="m18.3443 12.7022c.2608 0 .4723-.2109.4723-.4711s-.2115-.4711-.4723-.4711c-.2609 0-.4724.2109-.4724.4711s.2115.4711.4724.4711z"/><path d="m18.8603 11.1608c.2134 0 .3865-.1725.3865-.3854s-.1731-.3854-.3865-.3854-.3864.1725-.3864.3854.173.3854.3864.3854z"/><path d="m17.9589 10.4327c.2608 0 .4723-.2109.4723-.47106 0-.26018-.2115-.4711-.4723-.4711-.2609 0-.4723.21092-.4723.4711 0 .26016.2114.47106.4723.47106z"/><path d="m22.9604 19.7905c.2964 0 .5367-.2397.5367-.5353 0-.2957-.2403-.5354-.5367-.5354-.2965 0-.5368.2397-.5368.5354 0 .2956.2403.5353.5368.5353z"/><path d="m16.734 9.81174c.2964 0 .5367-.23968.5367-.53533 0-.29567-.2403-.53535-.5367-.53535s-.5367.23968-.5367.53535c0 .29565.2403.53533.5367.53533z"/><path d="m17.0997 12.0814c.2964 0 .5367-.2397.5367-.5354 0-.2956-.2403-.5353-.5367-.5353s-.5367.2397-.5367.5353c0 .2957.2403.5354.5367.5354z"/><path d="m16.4986 14.2445c.3557 0 .644-.2876.644-.6424s-.2883-.6424-.644-.6424-.6441.2876-.6441.6424.2884.6424.6441.6424z"/><path d="m14.544 14.2438c.415 0 .7514-.3355.7514-.7494 0-.414-.3364-.7495-.7514-.7495s-.7514.3355-.7514.7495c0 .4139.3364.7494.7514.7494z"/><path d="m12.2682 14.7581c.4742 0 .8587-.3835.8587-.8566 0-.473-.3845-.8565-.8587-.8565-.4743 0-.8588.3835-.8588.8565 0 .4731.3845.8566.8588.8566z"/><path d="m9.77943 15.9785c.55727 0 1.00907-.4506 1.00907-1.0064s-.4518-1.0064-1.00907-1.0064c-.55729 0-1.00904.4506-1.00904 1.0064s.45175 1.0064 1.00904 1.0064z"/><path d="m7.20225 18.0344c.664 0 1.20225-.5369 1.20225-1.1992 0-.6622-.53825-1.1991-1.20225-1.1991-.66398 0-1.20225.5369-1.20225 1.1991 0 .6623.53827 1.1992 1.20225 1.1992z"/><path d="m8.76879 13.4738c.55727 0 1.00904-.4506 1.00904-1.0065 0-.5558-.45177-1.0064-1.00904-1.0064s-1.00902.4506-1.00902 1.0064c0 .5559.45175 1.0065 1.00902 1.0065z"/><path d="m11.2594 12.2524c.4743 0 .8587-.3835.8587-.8566 0-.473-.3844-.8565-.8587-.8565s-.8588.3835-.8588.8565c0 .4731.3845.8566.8588.8566z"/><path d="m10.8952 9.98254c.4743 0 .8588-.38348.8588-.85653 0-.47306-.3845-.85654-.8588-.85654-.4742 0-.8587.38348-.8587.85654 0 .47305.3845.85653.8587.85653z"/><path d="m13.1712 9.46928c.415 0 .7514-.33554.7514-.74946 0-.41393-.3364-.74948-.7514-.74948s-.7514.33555-.7514.74948c0 .41392.3364.74946.7514.74946z"/><path d="m15.124 9.46929c.3557 0 .6441-.28762.6441-.6424 0-.35479-.2884-.64241-.6441-.64241s-.644.28762-.644.64241c0 .35478.2883.6424.644.6424z"/><path d="m15.4899 11.7387c.3557 0 .6441-.2876.6441-.6424s-.2884-.6424-.6441-.6424-.6441.2876-.6441.6424.2884.6424.6441.6424z"/><path d="m13.5354 11.7601c.4149 0 .7514-.3355.7514-.7494s-.3365-.7495-.7514-.7495c-.415 0-.7515.3356-.7515.7495s.3365.7494.7515.7494z"/><path d="m11.4105 17.4564c.2134 0 .3864-.1726.3864-.3855s-.173-.3854-.3864-.3854-.3865.1725-.3865.3854.1731.3855.3865.3855z"/><path d="m12.9561 17.2638c.2608 0 .4723-.2109.4723-.4711s-.2115-.4711-.4723-.4711c-.2609 0-.4723.2109-.4723.4711s.2114.4711.4723.4711z"/><path d="m14.6526 16.6214c.2964 0 .5367-.2396.5367-.5353s-.2403-.5353-.5367-.5353c-.2965 0-.5368.2396-.5368.5353s.2403.5353.5368.5353z"/><path d="m15.0598 18.3343c.3557 0 .6441-.2876.6441-.6424s-.2884-.6424-.6441-.6424-.644.2876-.644.6424.2883.6424.644.6424z"/><path d="m12.9992 18.7409c.2965 0 .5368-.2397.5368-.5353 0-.2957-.2403-.5354-.5368-.5354-.2964 0-.5367.2397-.5367.5354 0 .2956.2403.5353.5367.5353z"/><path d="m11.1731 18.72c.2609 0 .4723-.211.4723-.4711 0-.2602-.2114-.4711-.4723-.4711-.2608 0-.4723.2109-.4723.4711 0 .2601.2115.4711.4723.4711z"/><path d="m11.1949 20.1973c.2964 0 .5367-.2397.5367-.5354 0-.2956-.2403-.5353-.5367-.5353s-.5367.2397-.5367.5353c0 .2957.2403.5354.5367.5354z"/><path d="m13.3855 20.4752c.3557 0 .6441-.2876.6441-.6424s-.2884-.6424-.6441-.6424-.644.2876-.644.6424.2883.6424.644.6424z"/><path d="m15.94 20.1974c.415 0 .7514-.3356.7514-.7495s-.3364-.7495-.7514-.7495-.7514.3356-.7514.7495.3364.7495.7514.7495z"/><path d="m17.4431 22.0596c.4743 0 .8588-.3835.8588-.8566 0-.473-.3845-.8565-.8588-.8565s-.8587.3835-.8587.8565c0 .4731.3844.8566.8587.8566z"/><path d="m14.2866 22.3171c.415 0 .7514-.3356.7514-.7495s-.3364-.7495-.7514-.7495-.7514.3356-.7514.7495.3364.7495.7514.7495z"/><path d="m12.5052 23.7733c.415 0 .7514-.3357.7514-.7496s-.3364-.7494-.7514-.7494-.7514.3355-.7514.7494.3364.7496.7514.7496z"/><path d="m13.9855 25.6574c.4742 0 .8587-.3834.8587-.8565 0-.473-.3845-.8565-.8587-.8565-.4743 0-.8588.3835-.8588.8565 0 .4731.3845.8565.8588.8565z"/><path d="m17.9361 26c.5573 0 1.0091-.4505 1.0091-1.0064s-.4518-1.0064-1.0091-1.0064c-.5572 0-1.009.4505-1.009 1.0064s.4518 1.0064 1.009 1.0064z"/><path d="m15.7684 24.2012c.4743 0 .8588-.3834.8588-.8565 0-.473-.3845-.8565-.8588-.8565s-.8587.3835-.8587.8565c0 .4731.3844.8565.8587.8565z"/><path d="m19.5893 23.8592c.5573 0 1.0091-.4507 1.0091-1.0066 0-.5557-.4518-1.0063-1.0091-1.0063-.5572 0-1.009.4506-1.009 1.0063 0 .5559.4518 1.0066 1.009 1.0066z"/><path d="m11.6023 21.9314c.3557 0 .6441-.2876.6441-.6424s-.2884-.6424-.6441-.6424-.644.2876-.644.6424.2883.6424.644.6424z"/></g></svg>