<svg xmlns="http://www.w3.org/2000/svg" width="32" height="32" fill="none"><circle cx="16" cy="16" r="16" fill="#131F37"/><path fill="#F6F8FC" d="M21.179 8.398A1.2 1.2 0 0 0 22.38 7.2 1.2 1.2 0 0 0 21.179 6a1.2 1.2 0 0 0-1.203 1.2 1.2 1.2 0 0 0 1.203 1.198Zm1.351 16.939a1.2 1.2 0 1 0 0-2.398 1.2 1.2 0 0 0-1.202 1.199 1.2 1.2 0 0 0 1.202 1.199Zm-1.008-13.941a1.007 1.007 0 1 0-.001-2.013 1.008 1.008 0 1 0 0 2.013Zm2.683.385a1.008 1.008 0 1 0 0-2.013 1.008 1.008 0 1 0 0 2.013Zm-3.027 2.164a.858.858 0 1 0-.859-.857c0 .473.385.857.859.857Zm2.683.364a.858.858 0 1 0 .002-1.716.858.858 0 0 0-.002 1.716Zm2.147.834a.858.858 0 1 0-.859-.856c0 .473.385.856.86.856Zm-2.94 1.221a.75.75 0 1 0 .002-1.5.75.75 0 0 0-.002 1.5ZM20.385 16a.75.75 0 1 0 .002-1.5.75.75 0 0 0-.002 1.5Zm4.852 1.199a.75.75 0 1 0 .002-1.501.75.75 0 0 0-.002 1.5Zm-3.242.728a.643.643 0 1 0 .001-1.286.643.643 0 0 0-.001 1.286Zm2.168.814a.643.643 0 1 0 .002-1.286.643.643 0 0 0-.002 1.286Zm-4.83-1.2a.643.643 0 1 0 .001-1.286.643.643 0 0 0-.001 1.287Zm1.48 1.435a.536.536 0 1 0 .001-1.072.536.536 0 0 0-.001 1.072Zm.923 1.478a.472.472 0 1 0 .001-.943.472.472 0 0 0 0 .943Zm-1.137.3a.386.386 0 1 0 0-.772.386.386 0 0 0 0 .772Zm-1.01-1.114a.472.472 0 1 0 .001-.943.472.472 0 0 0-.001.944Zm-1.459-1.027a.536.536 0 1 0 0-1.072.536.536 0 0 0 0 1.072Zm-.022-4.027a.536.536 0 1 0 .002-1.072.536.536 0 0 0-.002 1.072Zm.236-1.884a.472.472 0 1 0 .001-.943.472.472 0 0 0 0 .943Zm.516-1.542a.386.386 0 1 0 .001-.771.386.386 0 0 0 0 .772Zm-.901-.727a.472.472 0 1 0 .001-.944.472.472 0 0 0-.001.944Zm5.001 9.357a.536.536 0 1 0 .002-1.072.536.536 0 0 0-.002 1.073Zm-6.226-9.978a.536.536 0 1 0 .001-1.072.536.536 0 0 0-.001 1.072Zm.366 2.269a.536.536 0 1 0 .001-1.072.536.536 0 0 0-.001 1.072Zm-.601 2.164a.643.643 0 1 0 .001-1.287.643.643 0 0 0-.001 1.287Zm-1.955-.001a.75.75 0 1 0 .002-1.501.75.75 0 0 0-.002 1.5Zm-2.276.514a.858.858 0 1 0 .002-1.715.858.858 0 0 0-.002 1.715ZM9.78 15.979a1.008 1.008 0 1 0 0-2.013 1.008 1.008 0 1 0 0 2.013Zm-2.578 2.055a1.2 1.2 0 0 0 1.203-1.199 1.2 1.2 0 0 0-1.203-1.199A1.2 1.2 0 0 0 6 16.836a1.2 1.2 0 0 0 1.202 1.198Zm1.567-4.56a1.008 1.008 0 1 0 0-2.013c-.557 0-1.01.45-1.01 1.006s.453 1.007 1.01 1.007Zm2.491-1.222a.858.858 0 1 0 .002-1.715.858.858 0 0 0-.003 1.715Zm-.365-2.269a.858.858 0 1 0 .002-1.716.858.858 0 0 0-.002 1.716Zm2.276-.513a.75.75 0 1 0 .002-1.502.75.75 0 0 0-.002 1.501Zm1.953 0a.643.643 0 1 0 .002-1.287.643.643 0 0 0-.002 1.286Zm.366 2.269a.643.643 0 1 0 .002-1.287.643.643 0 0 0-.002 1.287Zm-1.955.021a.75.75 0 1 0 .002-1.5.75.75 0 0 0-.002 1.5Zm-2.125 5.696a.386.386 0 1 0 .001-.772.386.386 0 0 0 0 .772Zm1.546-.192a.472.472 0 1 0 .001-.944.472.472 0 0 0 0 .944Zm1.697-.643a.536.536 0 1 0 .001-1.072.536.536 0 0 0-.001 1.072Zm.407 1.713a.643.643 0 1 0 .001-1.286.643.643 0 0 0-.001 1.286ZM13 18.74a.536.536 0 1 0 0-1.071.536.536 0 0 0 0 1.072Zm-1.827-.02a.472.472 0 1 0 .001-.943.472.472 0 0 0 0 .943Zm.022 1.477a.536.536 0 1 0 .001-1.072.536.536 0 0 0-.001 1.072Zm2.191.278a.643.643 0 1 0 .001-1.286.643.643 0 0 0-.002 1.286Zm2.554-.278a.75.75 0 1 0 .002-1.5.75.75 0 0 0-.002 1.5Zm1.503 1.863a.858.858 0 1 0 .002-1.716.858.858 0 0 0-.002 1.716Zm-3.156.257a.75.75 0 1 0 .001-1.5.75.75 0 0 0-.001 1.5Zm-1.782 1.456a.75.75 0 1 0 .002-1.5.75.75 0 0 0-.002 1.5Zm1.481 1.884a.858.858 0 1 0-.86-.856c0 .473.385.856.86.856Zm3.95.343c.557 0 1.01-.45 1.01-1.006s-.453-1.007-1.01-1.007a1.008 1.008 0 1 0 0 2.013Zm-2.168-1.799a.858.858 0 1 0-.858-.856c0 .473.384.856.858.856Zm3.822-.341a1.008 1.008 0 1 0 0-2.013c-.558 0-1.01.45-1.01 1.006 0 .555.452 1.006 1.01 1.006Zm-7.988-1.929a.643.643 0 1 0 .002-1.286.643.643 0 0 0-.002 1.286Z"/></svg>