<svg width="32" height="32" fill="none" xmlns="http://www.w3.org/2000/svg"><circle cx="16" cy="16" r="16" fill="#131F37"/><path d="M21.179 8.398A1.2 1.2 0 0 0 22.38 7.2 1.2 1.2 0 0 0 21.179 6a1.2 1.2 0 0 0-1.203 1.2 1.2 1.2 0 0 0 1.203 1.198ZM22.53 25.337a1.2 1.2 0 1 0 0-2.398 1.2 1.2 0 0 0-1.202 1.199 1.2 1.2 0 0 0 1.202 1.199ZM21.522 11.396c.557 0 1.009-.45 1.009-1.006s-.452-1.007-1.01-1.007a1.008 1.008 0 1 0 0 2.013ZM24.205 11.781a1.008 1.008 0 1 0 0-2.013 1.008 1.008 0 1 0 0 2.013ZM21.178 13.945a.858.858 0 1 0-.859-.857c0 .473.385.857.859.857ZM23.861 14.309a.858.858 0 1 0 .002-1.716.858.858 0 0 0-.002 1.716ZM26.008 15.143a.858.858 0 1 0-.859-.856c0 .473.385.856.86.856ZM23.068 16.364a.75.75 0 1 0 .002-1.5.75.75 0 0 0-.002 1.5ZM20.385 16a.75.75 0 1 0 .002-1.5.75.75 0 0 0-.002 1.5ZM25.237 17.199a.75.75 0 1 0 .002-1.501.75.75 0 0 0-.002 1.5ZM21.995 17.927a.643.643 0 1 0 .001-1.286.643.643 0 0 0-.001 1.286ZM24.163 18.741a.643.643 0 1 0 .002-1.286.643.643 0 0 0-.002 1.286ZM19.333 17.541a.643.643 0 1 0 .001-1.286.643.643 0 0 0-.001 1.287ZM20.813 18.976a.536.536 0 1 0 .001-1.072.536.536 0 0 0-.001 1.072ZM21.736 20.454a.472.472 0 1 0 .001-.943.472.472 0 0 0 0 .943ZM20.599 20.754a.386.386 0 1 0 0-.772.386.386 0 0 0 0 .772ZM19.589 19.64a.472.472 0 1 0 .001-.943.472.472 0 0 0-.001.944ZM18.13 18.613a.536.536 0 1 0 0-1.072.536.536 0 0 0 0 1.072ZM18.108 14.586a.536.536 0 1 0 .002-1.072.536.536 0 0 0-.002 1.072ZM18.344 12.702a.472.472 0 1 0 .001-.943.472.472 0 0 0 0 .943ZM18.86 11.16a.386.386 0 1 0 .001-.771.386.386 0 0 0 0 .772ZM17.959 10.433a.472.472 0 1 0 .001-.944.472.472 0 0 0-.001.944ZM22.96 19.79a.536.536 0 1 0 .002-1.072.536.536 0 0 0-.002 1.073ZM16.734 9.812a.536.536 0 1 0 .001-1.072.536.536 0 0 0-.001 1.072ZM17.1 12.081a.536.536 0 1 0 .001-1.072.536.536 0 0 0-.001 1.072ZM16.499 14.245a.643.643 0 1 0 .001-1.287.643.643 0 0 0-.001 1.287ZM14.544 14.244a.75.75 0 1 0 .002-1.501.75.75 0 0 0-.002 1.5ZM12.268 14.758a.858.858 0 1 0 .002-1.715.858.858 0 0 0-.002 1.715ZM9.78 15.979a1.008 1.008 0 1 0 0-2.013c-.558 0-1.01.45-1.01 1.006s.452 1.007 1.01 1.007ZM7.202 18.034a1.2 1.2 0 0 0 1.203-1.199 1.2 1.2 0 0 0-1.203-1.199A1.2 1.2 0 0 0 6 16.836a1.2 1.2 0 0 0 1.202 1.198ZM8.769 13.474a1.008 1.008 0 1 0 0-2.013c-.557 0-1.01.45-1.01 1.006s.453 1.007 1.01 1.007ZM11.26 12.252a.858.858 0 1 0 .002-1.715.858.858 0 0 0-.003 1.715ZM10.895 9.983a.858.858 0 1 0 .002-1.716.858.858 0 0 0-.002 1.716ZM13.171 9.47a.75.75 0 1 0 .002-1.502.75.75 0 0 0-.002 1.501ZM15.124 9.47a.643.643 0 1 0 .002-1.287.643.643 0 0 0-.002 1.286ZM15.49 11.739a.643.643 0 1 0 .002-1.287.643.643 0 0 0-.002 1.287ZM13.535 11.76a.75.75 0 1 0 .002-1.5.75.75 0 0 0-.002 1.5ZM11.41 17.456a.386.386 0 1 0 .001-.772.386.386 0 0 0 0 .772ZM12.956 17.264a.472.472 0 1 0 .001-.944.472.472 0 0 0 0 .944ZM14.653 16.621a.536.536 0 1 0 .001-1.072.536.536 0 0 0-.001 1.072ZM15.06 18.334a.643.643 0 1 0 .001-1.286.643.643 0 0 0-.001 1.286ZM13 18.74a.536.536 0 1 0 0-1.071.536.536 0 0 0 0 1.072ZM11.173 18.72a.472.472 0 1 0 .001-.943.472.472 0 0 0 0 .943ZM11.195 20.197a.536.536 0 1 0 .001-1.072.536.536 0 0 0-.001 1.072ZM13.386 20.475a.643.643 0 1 0 .001-1.286.643.643 0 0 0-.002 1.286ZM15.94 20.197a.75.75 0 1 0 .002-1.5.75.75 0 0 0-.002 1.5ZM17.443 22.06a.858.858 0 1 0 .002-1.716.858.858 0 0 0-.002 1.716ZM14.287 22.317a.75.75 0 1 0 .001-1.5.75.75 0 0 0-.001 1.5ZM12.505 23.773a.75.75 0 1 0 .002-1.5.75.75 0 0 0-.002 1.5ZM13.986 25.657a.858.858 0 1 0-.86-.856c0 .473.385.856.86.856ZM17.936 26c.557 0 1.01-.45 1.01-1.006s-.453-1.007-1.01-1.007a1.008 1.008 0 1 0 0 2.013ZM15.768 24.201a.858.858 0 1 0-.858-.856c0 .473.384.856.858.856ZM19.59 23.86a1.008 1.008 0 1 0 0-2.013c-.558 0-1.01.45-1.01 1.006 0 .555.452 1.006 1.01 1.006ZM11.602 21.931a.643.643 0 1 0 .002-1.286.643.643 0 0 0-.002 1.286Z" fill="#F6F8FC"/></svg>