<svg width="32" height="32" fill="none" xmlns="http://www.w3.org/2000/svg"><path d="M16 0C7.163 0 0 7.163 0 16s7.163 16 16 16 16-7.163 16-16S24.837 0 16 0Z" fill="#000"/><path d="m17 11.121-4-2.23 4-2.23v4.46Z" fill="#008D71"/><path d="m12.518 12.943-4-2.23 4-2.23v4.46Z" fill="#00503E"/><path d="m11.883 17.142-4-2.23 4-2.23v4.46Z" fill="#00C59D"/><path d="m9 21.109-4-2.23 4-2.23v4.46Z" fill="#004334"/><path d="m16.201 24.208-4-2.23 4-2.23v4.46Z" fill="#002320"/><path d="m25 20.042-4-2.23 4-2.23v4.46Z" fill="#00B0AA"/><path d="m25 15.581-4-2.23 4-2.23v4.46Z" fill="#00D8CC"/><path d="m21 13.352-4-2.23 4-2.23v4.46Z" fill="#00DABF"/><path d="m17 20.042-4-2.23 4-2.23v4.46Z" fill="#004F46"/><path d="m16.518 15.29-4-2.23 4-2.23v4.46Z" fill="#004E44"/><path d="m7 10.935 4 2.23-4 2.23v-4.46Z" fill="#00241B"/><path d="m9 15.531 4 2.23-4 2.23v-4.46Z" fill="#001511"/><path d="m12.518 10.285 4 2.23-4 2.23v-4.46Z" fill="#00CAA7"/><path d="m11.65 18.879 4 2.23-4 2.23v-4.46Z" fill="#00B29A"/><path d="m17.084 20.879 4 2.23-4 2.23v-4.46Z" fill="#006A66"/><path d="m21 17.811 4 2.23-4 2.23v-4.46Z" fill="#00D7D4"/><path d="m21 13.352 4 2.23-4 2.23v-4.46Z" fill="#008B83"/><path d="m21 8.892 4 2.23-4 2.23v-4.46Z" fill="#00B2A0"/><path d="m17 11.121 4 2.23-4 2.23v-4.46Z" fill="#008C7A"/><path d="m17 6.661 4 2.23-4 2.23v-4.46Z" fill="#00DABA"/><path d="m17 15.582 4 2.23-4 2.23v-4.46Z" fill="#008B7F"/><path d="m21 17.812-4-2.23 4-2.23v4.46Z" fill="#00C4B2"/><path d="m21 22.272-4-2.23 4-2.23v4.46Z" fill="#006B66"/><path d="m11.883 12.682 4 2.23-4 2.23v-4.46Z" fill="#00241B"/></svg>