<svg fill="none" height="32" viewBox="0 0 32 32" width="32" xmlns="http://www.w3.org/2000/svg"><path d="m16 0c-8.83657 0-16 7.16343-16 16 0 8.8366 7.16343 16 16 16 8.8366 0 16-7.1634 16-16 0-8.83657-7.1634-16-16-16z" fill="#000"/><path d="m17 11.1215-4-2.23015 4-2.23022z" fill="#008d71"/><path d="m12.5176 12.9428-4.00002-2.2302 4.00002-2.23018z" fill="#00503e"/><path d="m11.8828 17.142-3.99999-2.2302 3.99999-2.2302z" fill="#00c59d"/><path d="m9 21.1088-4-2.2302 4-2.2302z" fill="#004334"/><path d="m16.2012 24.2084-4-2.2302 4-2.2302z" fill="#002320"/><path d="m25 20.0424-4-2.2302 4-2.2302z" fill="#00b0aa"/><path d="m25 15.5814-4-2.2301 4-2.2302z" fill="#00d8cc"/><path d="m21 13.3519-4-2.2301 4-2.2302z" fill="#00dabf"/><path d="m17 20.0424-4-2.2302 4-2.2302z" fill="#004f46"/><path d="m16.5176 15.2905-4-2.2302 4-2.2302z" fill="#004e44"/><path d="m7 10.9346 4 2.2302-4 2.2302z" fill="#00241b"/><path d="m9 15.5312 4 2.2303-4 2.2302z" fill="#001511"/><path d="m12.5176 10.2852 4 2.2301-4 2.2302z" fill="#00caa7"/><path d="m11.6504 18.8789 4 2.2302-4 2.2302z" fill="#00b29a"/><path d="m17.084 20.8789 4.0001 2.2301-4.0001 2.2302z" fill="#006a66"/><path d="m21 17.8115 4 2.2303-4 2.2301z" fill="#00d7d4"/><path d="m21 13.3516 4 2.2301-4 2.2302z" fill="#008b83"/><path d="m21 8.8916 4 2.2302-4 2.2301z" fill="#00b2a0"/><path d="m17 11.1211 4 2.2302-4 2.2301z" fill="#008c7a"/><path d="m17 6.66113 4 2.23022-4 2.23015z" fill="#00daba"/><path d="m17 15.582 4 2.2303-4 2.2301z" fill="#008b7f"/><path d="m21 17.8119-4-2.2302 4-2.2301z" fill="#00c4b2"/><path d="m21 22.2719-4-2.2301 4-2.2303z" fill="#006b66"/><path d="m11.8828 12.6816 4 2.2302-4 2.2302z" fill="#00241b"/></svg>