<svg fill="none" height="32" viewBox="0 0 32 32" width="32" xmlns="http://www.w3.org/2000/svg"><path d="m16 32c8.8366 0 16-7.1634 16-16 0-8.83656-7.1634-16-16-16-8.83656 0-16 7.16344-16 16 0 8.8366 7.16344 16 16 16z" fill="#fff"/><path d="m22.366 4.85723c1.1928.62653 2.2556 1.47409 3.1318 2.49755 1.6344 1.89126 2.7177 4.19512 3.1319 6.66012.4488 2.3358.1864 4.7526-.7532 6.9377-1.2921 2.9742-3.6151 5.3816-6.5413 6.779-1.3142.6042-2.7219.9796-4.1625 1.11-.0397 0-.119-.0396-.119-.0793.0006-.0306.008-.0608.0217-.0882.0138-.0274.0334-.0515.0576-.0703 1.7609-.578 3.2624-1.7568 4.2419-3.3301.0793-.1189.2775-.5947.0793-.7136-.0559-.0324-.1207-.0461-.185-.039-.0642.0072-.1244.0347-.1718.0787l-.0793.0792-.2775.2379c-.248.2073-.5132.393-.7929.555-3.7661 2.22-5.6294.4361-5.7483.3172-.1189-.119-1.784-1.4272-.7929-5.0744.3565-1.1219.9679-2.1459 1.7864-2.9919s1.8218-1.4909 2.9312-1.8843l.0397-.0396c.0396-.0397 0-.119-.0397-.1586-.8242-.6428-1.4789-1.4772-1.9073-2.4307-.4283-.9534-.6173-1.997-.5506-3.0402.0396-4.36075 2.8543-4.79683 2.8543-4.79683s1.9822-.51537 2.3787 1.9029c.1343.71389.0964 1.4495-.1104 2.14584-.2069.69629-.5767 1.33329-1.0789 1.85819-.0093.0069-.0168.0159-.0219.0262-.0052.0103-.0079.0217-.0079.0332 0 .0116.0027.023.0079.0333.0051.0103.0126.0193.0219.0262.1138.2571.296.478.5266.6387.2307.1608.501.2552.7816.2731.2938-.014.5809-.0923.8412-.2293s.4874-.3293.6653-.5636c.7263-1.0528 1.024-2.3429.8325-3.60755-.1199-1.04953-.5167-2.04832-1.1497-2.894v-.11887c.0397-.03965.1189-.07929.1586-.03965z" fill="#094b89"/><path d="m15.6179 3.23737c0 .079 0 .11852-.079.158-.9357.40139-1.7594 1.02498-2.3997 1.8167-.6402.79171-1.0777 1.72765-1.2745 2.72666-.9481 3.00257.6322 5.96567.9877 6.59777 0 .079 0 .1185-.079.158-1.0281.4297-1.9518 1.0754-2.7084 1.8934-.75669.818-1.32858 1.7891-1.67694 2.8476-.50859 1.1651-.69973 2.444-.55401 3.7069s.62311 2.4648 1.38367 3.4834c.0092.0069.01666.0159.02181.0262.00514.0103.00782.0216.00782.0331s-.00268.0228-.00782.0331c-.00515.0103-.01261.0193-.02181.0262-.0395.0395-.11852.079-.158.0395-2.80744-1.8775-4.80914-4.739-5.61008-8.02-.15025-.6758-.24277-1.363-.27658-2.0545-.15731-3.4302 1.05187-6.7829 3.36247-9.32308s5.53407-4.0606 8.96387-4.22797c.0395 0 .1185.03951.1185.07902z" fill="#388ce0"/></svg>