<svg xmlns="http://www.w3.org/2000/svg" width="32" height="32" fill="none"><defs><linearGradient id="iris__b" x1="6.306" x2="25.025" y1="25.66" y2="6.94" gradientUnits="userSpaceOnUse"><stop stop-color="#009DDE"/><stop offset=".5" stop-color="#694D9F"/><stop offset="1" stop-color="#ED3554"/></linearGradient><linearGradient id="iris__c" x1="8.349" x2="27.068" y1="27.703" y2="8.983" gradientUnits="userSpaceOnUse"><stop stop-color="#009DDE"/><stop offset=".5" stop-color="#694D9F"/><stop offset="1" stop-color="#ED3554"/></linearGradient><linearGradient id="iris__d" x1="13.689" x2="32.408" y1="33.043" y2="14.323" gradientUnits="userSpaceOnUse"><stop stop-color="#009DDE"/><stop offset=".5" stop-color="#694D9F"/><stop offset="1" stop-color="#ED3554"/></linearGradient><linearGradient id="iris__e" x1="11.787" x2="30.506" y1="31.141" y2="12.421" gradientUnits="userSpaceOnUse"><stop stop-color="#009DDE"/><stop offset=".5" stop-color="#694D9F"/><stop offset="1" stop-color="#ED3554"/></linearGradient><linearGradient id="iris__f" x1=".858" x2="19.577" y1="20.211" y2="1.492" gradientUnits="userSpaceOnUse"><stop stop-color="#009DDE"/><stop offset=".5" stop-color="#694D9F"/><stop offset="1" stop-color="#ED3554"/></linearGradient><linearGradient id="iris__g" x1="-1.04" x2="17.68" y1="18.313" y2="-.406" gradientUnits="userSpaceOnUse"><stop stop-color="#009DDE"/><stop offset=".5" stop-color="#694D9F"/><stop offset="1" stop-color="#ED3554"/></linearGradient><linearGradient id="iris__h" x1="4.301" x2="23.02" y1="23.654" y2="4.934" gradientUnits="userSpaceOnUse"><stop stop-color="#009DDE"/><stop offset=".5" stop-color="#694D9F"/><stop offset="1" stop-color="#ED3554"/></linearGradient><clipPath id="iris__a"><path fill="#fff" d="M0 0h24v24H0z" transform="translate(4 4)"/></clipPath></defs><circle cx="16" cy="16" r="16" fill="#fff"/><g clip-path="url(#iris__a)"><path fill="url(#iris__b)" d="m11.284 21.392-5.506.62 3.233-7.46-3.31-4.511 8.047-.917 2.187-5.028 4.79 6.51 5.506-.618-3.219 7.423 3.286 4.48-8.006.913-2.22 5.1-4.788-6.512Zm2.287-.494a3.96 3.96 0 0 1-.67.255l-.211.057 3.103 4.22 1.102-2.535-.2-.026a3.966 3.966 0 0 1-2.707-1.601l-.31-.428-.107.058Zm-1.08-3.825 2.503 3.463a2.724 2.724 0 0 0 2.5 1.106l6.534-.744-2.602-3.55a2.765 2.765 0 0 0-.444-.472l-.154-.128-1.862 4.208-3.24-4.29-3.235.407Zm.108-4.217a2.72 2.72 0 0 0-2.203 1.622l-2.624 6.055 4.359-.49c.216-.023.427-.074.631-.148l.187-.07-2.697-3.724 5.318-.675 1.265-3.021-4.236.45Zm4.116 3.055 1.97 2.609 1.203-2.715.528-1.195a2.736 2.736 0 0 0-.298-2.726L16.213 6.57l-1.757 4.037a2.86 2.86 0 0 0-.187.624l-.033.197 4.557-.483-2.078 4.966Zm4.788-4.138.077.185a4.01 4.01 0 0 1-.03 3.159l-.213.48.103.07c.197.131.382.285.552.455l.156.154 2.086-4.812-2.731.31Zm-13.531-.739 1.66 2.266.123-.159a3.98 3.98 0 0 1 2.714-1.526l.521-.055.01-.128c.016-.261.062-.523.132-.777l.06-.216-5.22.595Z"/><path fill="url(#iris__c)" d="M14.838 28c-3.455-.333-6.561-2.13-8.594-4.98l1.392-.156a10.717 10.717 0 0 0 6.197 3.77L14.839 28Z"/><path fill="url(#iris__d)" d="M17.737 26.71a10.68 10.68 0 0 0 5.9-3.038c.143-.146.29-.302.436-.465l1.687-.192A11.914 11.914 0 0 1 17.178 28l.559-1.29Z"/><path fill="url(#iris__e)" d="M26.104 19.847c.46-1.226.695-2.52.695-3.847 0-1.171-.184-2.323-.547-3.422l.677-1.56A11.982 11.982 0 0 1 28 16c0 1.738-.36 3.41-1.067 4.978l-.828-1.13Z"/><path fill="url(#iris__f)" d="M5.075 20.994A12.003 12.003 0 0 1 4 16c0-1.755.365-3.442 1.087-5.019l.826 1.128A10.862 10.862 0 0 0 5.2 16c0 1.177.185 2.331.55 3.435l-.675 1.56Z"/><path fill="url(#iris__g)" d="M6.295 8.91c2.03-2.803 5.112-4.579 8.537-4.91l-.56 1.286a10.68 10.68 0 0 0-6.275 3.43l-1.702.194Z"/><path fill="url(#iris__h)" d="M24.367 9.136c-.23-.283-.475-.554-.73-.809a10.712 10.712 0 0 0-5.46-2.959L17.172 4c3.453.336 6.554 2.134 8.585 4.98l-1.39.156Z"/></g></svg>