<svg xmlns="http://www.w3.org/2000/svg" width="32" height="32" fill="none"><path fill="#F6931E" d="M31.934 17.303C31.97 16.872 32 16.44 32 16c0-.44-.03-.872-.066-1.303l-1.006-.13c-.034-.353-.092-.697-.15-1.042l.952-.391a15.849 15.849 0 0 0-.678-2.516l-1.014.136c-.123-.33-.254-.654-.4-.972l.81-.62a15.97 15.97 0 0 0-1.294-2.26l-.951.397a15.151 15.151 0 0 0-.644-.858l.012.014.62-.804a16.07 16.07 0 0 0-1.842-1.842l-.804.62.014.012a15.064 15.064 0 0 0-.858-.644l.397-.95a15.971 15.971 0 0 0-2.26-1.296l-.62.81a14.894 14.894 0 0 0-.972-.4v.001l.136-1.014A15.848 15.848 0 0 0 18.866.27l-.391.951c-.345-.057-.69-.115-1.042-.149l-.13-1.006A15.59 15.59 0 0 0 16 0c-.44 0-.872.03-1.303.066l-.13 1.006c-.353.034-.697.092-1.042.15L13.134.27a15.84 15.84 0 0 0-2.516.678l.136 1.014c-.33.123-.654.254-.972.4l-.62-.81a16 16 0 0 0-2.26 1.294l.397.951c-.291.208-.583.416-.858.644l.014-.012-.804-.62a16.077 16.077 0 0 0-1.842 1.842l.62.804.012-.014c-.228.275-.436.566-.644.858l-.95-.397a15.972 15.972 0 0 0-1.296 2.26l.81.62c-.145.318-.276.643-.4.972h.001l-1.014-.136a15.84 15.84 0 0 0-.678 2.516l.951.391c-.057.345-.115.69-.149 1.042l-1.006.13A15.59 15.59 0 0 0 0 16c0 .44.03.872.066 1.303l1.006.13c.034.353.092.697.15 1.043v-.001l-.952.391c.157.856.383 1.698.678 2.516l1.014-.136c.123.33.255.655.4.973l-.811.618c.37.788.803 1.544 1.295 2.26l.951-.396c.208.291.417.583.645.858l-.013-.014-.62.804a16.081 16.081 0 0 0 1.842 1.842l.804-.62-.03-.027c.28.233.577.447.874.66v-.001l-.397.95c.717.493 1.473.927 2.26 1.296l.62-.81c.318.145.642.276.972.4v-.001l-.136 1.014c.818.295 1.66.521 2.516.678l.391-.951c.345.057.69.115 1.042.149l.13 1.006c.431.035.863.066 1.303.066.44 0 .872-.03 1.303-.066l.13-1.006c.353-.034.697-.092 1.042-.15l.391.952a15.849 15.849 0 0 0 2.516-.678l-.136-1.014c.33-.123.654-.254.972-.4l.62.81a15.97 15.97 0 0 0 2.26-1.294l-.397-.951c.297-.212.594-.426.875-.66l-.03.028.803.62a16.071 16.071 0 0 0 1.841-1.842l-.619-.804-.013.014c.228-.275.437-.567.645-.858l.95.397c.493-.717.927-1.473 1.296-2.26l-.81-.62v.001c.145-.318.276-.643.4-.973h-.001l1.014.136c.295-.819.521-1.66.678-2.516l-.951-.391c.057-.345.115-.69.149-1.042l1.006-.13Zm-1.46-5.187-.002-.005.002.005ZM19.889 1.528l-.005-.002.005.002Zm-7.773-.002-.005.002.005-.002ZM1.528 12.111l-.002.005.002-.005Zm-.002 7.773.001.005v-.005Zm1.495 3.613.001.002v-.002Zm9.09 6.976h.005-.005Zm7.773 0h.005-.005Zm9.094-6.974v-.002.002Zm1.494-3.61.002-.005-.002.005Z"/><path fill="#fff" d="M16 29.5c7.456 0 13.5-6.044 13.5-13.5S23.456 2.5 16 2.5 2.5 8.544 2.5 16 8.544 29.5 16 29.5Z"/><path fill="#F6931E" d="M16 28.5c6.904 0 12.5-5.596 12.5-12.5S22.904 3.5 16 3.5 3.5 9.096 3.5 16 9.096 28.5 16 28.5Z"/><path fill="#FEFEFD" d="M18.01 10.184v5.765l6.135-2.918c1.135 1.134-4.015 2.772-6.068 4.399-.424 1.806.23 3.871-.481 5.857-.719 2.005-1.846 3.304-4.102 3.287a3.464 3.464 0 0 1-3.645-2.74c-.593-2.192.75-3.505 2.306-4.641.962-.702 2.002-1.298 3.035-1.959v-3.94l-3.906 1.674c-.957-.957 4.247-3.064 6.725-4.784ZM13.735 24.1c1.742-1.166 1.468-3.067 1.502-5.12-1.662.969-3.057 1.76-3.432 3.527a1.48 1.48 0 0 0 .482 1.489 1.183 1.183 0 0 0 1.448.104Zm2.227-18.691a1.792 1.792 0 1 0 0 3.584 1.792 1.792 0 0 0 0-3.584Z"/></svg>