<svg xmlns="http://www.w3.org/2000/svg" width="32" height="32" fill="none"><defs><linearGradient id="jex__a" x1="1.5" x2="30.5" y1="16" y2="16" gradientUnits="userSpaceOnUse"><stop stop-color="#40B4E1"/><stop offset="1" stop-color="#339ECA"/></linearGradient></defs><path fill="#fff" d="M16 32c8.837 0 16-7.163 16-16S24.837 0 16 0 0 7.163 0 16s7.163 16 16 16Z"/><path fill="url(#jex__a)" d="M1.502 15.996A14.061 14.061 0 0 1 5.055 6.49a14.167 14.167 0 0 1 9.292-4.885 13.468 13.468 0 0 1 3.71.05c.293.046.314.155.25.398a1827.75 1827.75 0 0 0-1.723 6.556c-.817 3.112-1.63 6.226-2.456 9.336-.464 1.745-.853 3.51-1.463 5.214a12.12 12.12 0 0 1-1.75 3.405 4.235 4.235 0 0 1-2.217 1.601.838.838 0 0 1-.767-.118 14.397 14.397 0 0 1-6.307-10.118 12.11 12.11 0 0 1-.122-1.932Zm10.903 14.036a14.435 14.435 0 0 0 14.736-4.778 13.982 13.982 0 0 0 3.227-11.094 14.203 14.203 0 0 0-6.44-10.292c-.297-.202-.317-.192-.409.156-1.448 5.524-2.895 11.049-4.34 16.573a33.941 33.941 0 0 1-1.36 4.55 6.746 6.746 0 0 1-1.45 2.354 8.832 8.832 0 0 1-3.938 2.284c-.1.026-.224.016-.294.127.067.099.175.097.268.12Z"/></svg>