<svg fill="none" height="32" viewBox="0 0 32 32" width="32" xmlns="http://www.w3.org/2000/svg" xmlns:xlink="http://www.w3.org/1999/xlink"><linearGradient id="a" gradientUnits="userSpaceOnUse" x1="1.50002" x2="30.5" y1="16" y2="16"><stop offset="0" stop-color="#40b4e1"/><stop offset="1" stop-color="#339eca"/></linearGradient><path d="m16 32c8.8366 0 16-7.1634 16-16 0-8.83656-7.1634-16-16-16-8.83656 0-16 7.16344-16 16 0 8.8366 7.16344 16 16 16z" fill="#fff"/><path d="m1.5016 15.9962c-.04063-3.501 1.22637-6.89124 3.55314-9.50753 2.35772-2.75811 5.68386-4.50639 9.29266-4.88437 1.2329-.15475 2.4813-.13813 3.7097.04939.2928.0465.3136.15526.2494.398-.5782 2.18436-1.1524 4.36979-1.7225 6.5563-.8173 3.11241-1.6292 6.22621-2.456 9.33611-.4639 1.7445-.8532 3.5105-1.4629 5.2141-.3989 1.2206-.9897 2.3699-1.7502 3.4047-.5417.7642-1.32143 1.3273-2.21725 1.6011-.12788.0437-.26444.0557-.39801.0352-.13356-.0206-.26016-.0732-.36898-.1533-1.71297-1.1382-3.1622-2.6302-4.25013-4.3756-1.08792-1.7453-1.78929-3.7035-2.05688-5.7427-.09214-.6395-.13296-1.2853-.12205-1.9314zm10.9033 14.0363c2.6566.6863 5.4537.6013 8.0637-.2451 2.6099-.8464 4.9246-2.419 6.6728-4.5338 1.2972-1.5124 2.2561-3.2846 2.8126-5.1979.5564-1.9132.6974-3.9233.4136-5.8955-.246-2.0848-.9511-4.0892-2.0646-5.8689-1.1134-1.77969-2.6075-3.29044-4.3748-4.42354-.2977-.20212-.3176-.19188-.4088.15622-1.448 5.52421-2.8951 11.04862-4.3412 16.57342-.3465 1.5462-.8009 3.0662-1.3598 4.549-.3156.8765-.8092 1.6781-1.4499 2.3544-1.0903 1.0925-2.4479 1.8802-3.9375 2.2846-.0996.026-.2245.0152-.2945.1267.0672.0986.1752.0969.2684.1204z" fill="url(#a)"/></svg>