<svg fill="none" height="32" viewBox="0 0 32 32" width="32" xmlns="http://www.w3.org/2000/svg"><path d="m16 32c8.8366 0 16-7.1634 16-16 0-8.83656-7.1634-16-16-16-8.83656 0-16 7.16344-16 16 0 8.8366 7.16344 16 16 16z" fill="#fff"/><path d="m26.0193 19.5647c-.1107.1446-1.197 1.5616-1.4299 1.8608-.0606-.0408-.1212-.0814-.1818-.1218-.0276.0366-1.1293 1.5718-1.1293 1.5718l-.3471-.3013c-.102.0772-1.2209 1.8477-1.3339 2.0412l-.0231.0285c-.1381-.0513-.2752-.1046-.4114-.1599-.3148-.118-.6269-.2416-.9402-.3628-.0189.0363-.0372.0732-.0552.1101-.06.1212-.1185.2431-.1774.3649-.0405.0819-.0804.1641-.1185.2476-.2728-.0567-.542-.1294-.8138-.1903-.1087-.0264-.2173-.052-.3259-.0768-.0576.1038-.1117.2098-.1666.3151l-.0393.0201-.0141-.0018c-.1518-.0291-.3055-.0474-.4582-.0702-.1428-.0204-.2863-.0369-.4285-.0609-.3364-.0544-.6746-.0979-1.0116-.1489-.0531-.0081-.1059-.0174-.1588-.0246-.0583.0042-.1142.0255-.1605.0612-.186.1105-.3712.2224-.5606.3271-.0691-.0979-6.6187-4.0431-6.85268-4.1177-.06632-.0249-.04471-.1048-.04981-.1588.00331-.1245.00421-.2491.00361-.3733 0-.0546.00029-.1092.0006-.1632-.09364-.0552-3.24752-1.8819-3.24752-1.8819l.0102 3.4408-.428.2536-.00355-.002-.00507 1.5741 1.02223.5898-.00686.9357 4.45575 2.1428c.0639-.036 1.8435-1.0817 1.8435-1.0817l.5158.3554 2.7922 1.6193 10.2434-5.9177c-.0003-.0384-.0078-2.5498-.0081-2.6443z" fill="#c95064"/><path d="m8.56392 20.0276-3.39742 1.9637.00011.1011c1.39256-.689 2.68308-1.3197 3.66815-1.7753l.00059-.1363z" fill="#db5b54"/><path d="m8.56397 20.0276-2.97608-1.7287.0076 2.5632v.8809c1.02942-.5928 2.02278-1.1667 2.96848-1.7154" fill="#a24741"/><path d="m10.9391 22.111-2.88405 1.366 1.461 2.6 1.11405.642 3.111-1.813-1.015-1.721z" fill="#db5b54"/><path d="m23.7749 23.564-2.27 1.101-.164-.288 1.614-2.164z" fill="#bb486e"/><path d="m6.39101 24.275-1.23-.71.006-1.473 1.628-.798 1.26 2.183z" fill="#bb486e"/><path d="m14.068 25.468 2.26-1.053 1.22 2.147-2.253 1.072z" fill="#bb486e"/><path d="m21.8923 22.4049-.3131.1776 1.3602 2.3973.3131-.1776z" fill="#b24a5b"/><path d="m6.39152 24.2748c.29406-.1408.58879-.2821.88417-.4239 1.28385-.616 2.61143-1.253 3.95621-1.8752l-.1449-.3131c-1.34698.6232-2.67565 1.2608-3.96058 1.8773-.3669.1761-.73265.3514-1.09725.526z" fill="#af3b55"/><path d="m16.7265 24.2291-4.0158 1.8724.1394.2991 4.0159-1.8724z" fill="#000" opacity=".15"/><path d="m14.3646 23.9128-5.08823 2.3723.14578.3127 5.08815-2.3723z" fill="#fff" opacity=".15"/><path d="m5.58801 18.299.153.089-.153.073z" fill="#fff" opacity=".2"/><path d="m11.4041 26.2676c-1.2856-2.3927-3.17861-5.6036-4.83488-8.1999l-.2782.1775c1.64921 2.5935 3.53516 5.8015 4.82768 8.1887z" fill="#aa3c42"/><path d="m26.0236 20.9533c-3.6502 1.7779-8.3337 4.0116-12.542 5.9816l.1399.2988c4.155-1.945 8.7728-4.1468 12.4031-5.9139z" fill="#bb524b"/><path d="m26.0202 19.8414c-.55.272-1.1459.5607-1.1529.5641l.1374.2835c.0064-.0031.5083-.2463 1.0165-.4968z" fill="#000" opacity=".15"/><path d="m17.7656 24.3507-.299.172 1.1977 2.0825.2991-.1721z" fill="#fff" opacity=".15"/><path d="m18.1072 24.2502-.2991.1721 1.1978 2.0824.299-.172z" fill="#000" opacity=".15"/><path d="m19.7656 23.4468-.3131.1776 1.3602 2.3973.3131-.1776z" fill="#fff" opacity=".15"/><path d="m21.0449 23.1253-.3131.1777 1.3602 2.3973.3131-.1777z" fill="#000" opacity=".3"/><path d="m22.9554 22.2133-.2949.179.8486 1.398.2949-.1791z" fill="#000" opacity=".15"/><path d="m23.9802 21.4874-.2914.1848 1.0433 1.6453.2914-.1848z" fill="#fff" opacity=".15"/><g fill="#000"><path d="m25.023 23.133.292-.185-1.042-1.646-.287.194z" opacity=".15"/><path d="m16.3798 24.5191-.2995.1713 1.464 2.5595.2995-.1713z" opacity=".15"/><path d="m14.8589 24.0194-.2998.1707 2.0401 3.5846.2998-.1706z" opacity=".15"/><path d="m15.6626 28.3204c-.5409-1.0409-1.6852-3.0385-3.061-5.3437l.2962-.1768c1.3792 2.3106 2.5272 4.3149 3.0709 5.3614z" opacity=".15"/></g><path d="m13.683 27.3297c-.9657-1.7356-2.0554-3.5957-3.3314-5.6867l.2945-.1797c1.2784 2.095 2.3704 3.959 3.3384 5.6987z" fill="#bd967f" opacity=".6"/><path d="m7.71607 25.0387c1.54071-.7352 3.13513-1.4845 4.74643-2.23l-.1449-.3131c-1.6871.7806-3.35626 1.5654-4.96421 2.334z" fill="#bd967f" opacity=".6"/><path d="m11.1142 26.4365c-1.28571-2.3942-3.1832-5.6131-4.84284-8.2146l-.2782.1775c1.65792 2.5988 3.55354 5.8147 4.83584 8.2034z" fill="#bd967f" opacity=".6"/><path d="m25.3745 22.5853.653-.3763-.0004-.1212c-3.2231 1.6043-7.6028 3.6947-11.469 5.5312l.1416.2981c3.625-1.7219 7.7013-3.667 10.8543-5.2262z" fill="#000" opacity=".15"/><path d="m9.84442 19.853c-1.50533.6796-2.97129 1.4004-4.389 2.0974l-.28931.1422-.00107.3849.4426-.2175c1.41519-.6958 2.87857-1.4153 4.37874-2.0926z" fill="#af3b55"/><path d="m5.27934 23.6334c.18219-.0894.3645-.179.54693-.2687 1.41544-.696 2.87909-1.4156 4.37953-2.093l-.142-.3145c-1.50557.6798-2.97177 1.4007-4.38977 2.0979-.17063.0839-.34107.1676-.51131.2512l-.00073.2594z" fill="#bb524b"/><path d="m6.02611 24.0642c-.17859-.3263-.48539-.8825-.86117-1.5464l-.00185.6693c.11437.2043.21879.392.311.5587z" fill="#000" opacity=".3"/><path d="m5.59397 20.4775c.7725-.3833 1.5447-.7532 2.29874-1.1008l-.14443-.3133c-.70745.3261-1.43082.6717-2.15538 1.0296z" fill="#000" opacity=".15"/><path d="m5.59494 20.8624c.82347-.4105 1.648-.8063 2.45177-1.1768l-.14443-.3133c-.75726.349-1.53273.7205-2.30841 1.1054z" fill="#bd967f" opacity=".6"/><path d="m8.95784 25.7549.55782.3217-.04826-.0864c-1.13469-2.0307-2.53815-4.5424-3.8767-6.6876l.00176.63c1.16176 1.8925 2.356 4.0168 3.36538 5.8223z" fill="#972c56" opacity=".7"/><path d="m9.60804 26.13 4.75596-2.217-.145-.313-4.97596 2.319z" fill="#000" opacity=".15"/><path d="m7.80664 25.0909c-.6877-1.2272-1.44493-2.5662-2.21116-3.8628v.5149l-.05959.0345c.58833 1.0039 1.168 2.0244 1.71121 2.9907z" fill="#000" opacity=".15"/><path d="m13.4341 23.521-2.806 1.622.002 1.576 3.404-1.984-.024-.816z" fill="#000" opacity=".15"/><path d="m10.377 25.772.299-.14.167.303-.3.14z" fill="#be9e81"/><path d="m5.16601 21.991 5.46199 3.152.002 1.576-5.46899-3.154z" fill="#000" opacity=".2"/><path d="m9.31897 23.896.299-.141.173.301-.3.141z" fill="#dca88b"/><path d="m11.5 22.875.178.297-.314.147-.18-.297z" fill="#dca88b"/><path d="m6.89905 19.842.3-.142.183.296-.3.142z" fill="#be9e81"/><path d="m12.6011 24.735.174.3-.314.146-.177-.299z" fill="#be9e81"/><path d="m26.0229 20.722-.743-1.118-.288.191 1.033 1.552z" fill="#fff" opacity=".15"/><path d="m26.1346 23.0322.0159-.0108s.0045 1.8452.0096 2.768c-1.399.8087-4.1988 2.4235-4.1988 2.4235l-.1227-.0655v-2.875l4.1954-2.2993z" fill="#3c1a26"/><path d="m21.189 25.002.735.42.037 2.791-.68-.363-.725-2.482z" fill="#29121a"/><path d="m25.374 22.585.761.447-4.21 2.434-.77-.444z" fill="#421d2a"/><path d="m21.314 25.8102.0073 2.7471s-2.2933 1.3252-3.4381 1.9905c-.2674.1482-.7985.4522-.7985.4522l-.0256-.015-.0091-2.8025 4.2005-2.4094z" fill="#3c1a26"/><path d="m11.1598 27.5498c.6038-.352 1.8116-1.0551 1.8116-1.0551l2.8127 1.632.6643-.3908.6383.4292s.0103 1.919-.002 2.8349c-1.9641-1.1523-3.9588-2.3009-5.9249-3.4502z" fill="#29121a"/><path d="m12.984 25.341.005 1.156-3.39496 1.977-.286-.165-.013-2.367.308.177 1.02396.589z" fill="#bd967f"/><path d="m6.18366 24.1458 3.41886 1.9733-.00871 2.3545s-2.27884-1.3144-3.41705-1.9734c.00121-.785.0069-2.3544.0069-2.3544z" fill="#886b59"/><path d="m5.53979 10.8213s.0021 1.359.0021 2.2424c.0042 1.739.0144 5.217.0144 5.217l10.16891 5.9043v-7.5769z" fill="#886b59"/><path d="m25.963 10.524-10.503 5.94v6.349l.263.005.005.011 10.254-5.917z" fill="#bd967f"/><path d="m9.46252 13.8964c.226-.1269.44862-.2599.67338-.3892.4051.2362.8141.4663 1.2175.7055-.0093.2488-.0015.4975-.0099.7463-.022-.2437.0063-.4888-.0193-.7325-.226.1113-.4351.2533-.6565.373-.4016-.235-.81087-.457-1.20518-.7031z" fill="#dcdcdc"/><path d="m9.4487 17.0554c.0063-1.053-.00181-2.1063.0138-3.159.39431.2461.8036.4681 1.2051.7031.0003 1.0596-.009 2.1189-.0084 3.1782-.001.033.0109.0651.0333.0894 1.4414 1.769 2.8823 3.5384 4.3227 5.3082.0489.0523.1073.0948.172.1251.1843.103.3658.211.5495.3151.0006.4594-.0021.9189-.003 1.3783-.0996-.0603-6.65315-4.0007-6.8527-4.1177-.06632-.025-.04472-.1048-.04982-.1588.0033-.1245.0042-.2491.0036-.3733 0-.0546.0003-.1092.0006-.1632.00811-.2551-.015-.5123.01441-.7659.16744-.6592.34479-1.3158.51524-1.9745.04106-.1251.0691-.2541.08367-.385z" fill="#898989"/><path d="m10.6677 14.5995c.2214-.1197.4306-.2617.6566-.373.0255.2437-.0027.4889.0192.7325-.0018.7994-.0042 1.5988-.0072 2.398-.003.0223-.0008.045.0063.0664.0072.0213.0192.0407.0351.0566 1.4485 1.7792 2.8969 3.5585 4.3452 5.3379l.0054.0114c3.4204-1.9685 10.3121-5.9521 10.3121-5.9521s.4561.2628.6839.3946c-1.7345.9947-3.4636 1.9997-5.1966 2.9975-1.9298 1.1163-3.8601 2.2317-5.791 3.3462-.1836-.1041-.3652-.2121-.5494-.315-.0648-.0304-.1232-.0729-.172-.1252-1.4404-1.7696-2.8813-3.539-4.3227-5.3082-.0225-.0242-.0344-.0564-.0334-.0894-.0005-1.0593.0088-2.1186.0085-3.1782z" fill="#fdfdfd"/><path d="m26.7242 17.2718c-.0018.4576.0021.9152.0024 1.3725-.2364.3064-1.9043 2.482-2.1372 2.7812-.0606-.0408-.1212-.0814-.1818-.1218-.0276.0366-.0549.0737-.0819.1113-.0682.0957-.9291 1.3006-1.0065 1.4062l-.0408.0543c-.1231-.0916-.2392-.1923-.3472-.3013-.033.0399-.0658.0802-.0955.1225-.1473.2262-1.1196 1.7276-1.2384 1.9187l-.0231.0285c-.1381-.0513-.2752-.1046-.4114-.1599-.3148-.118-.6269-.2416-.9402-.3628-.0189.0363-.313.6391-.3511.7226-.2728-.0567-1.0311-.2422-1.1397-.2671-.0576.1038-.1116.2098-.1666.3151l-.0393.0201-.0141-.0018c-.1518-.0291-2.0042-.2974-2.057-.3046-.0584.0042-.1143.0255-.1606.0612-.186.1105-.3712.2224-.5606.3271.001-.4594.0037-.9188.003-1.3783z" fill="#d6d6d6"/><path d="m23.5098 15.7596c.4383-.2893.8948-.5499 1.3668-.7802.0022.4168.0043.8337.0025 1.2505-.4559.2604-.9099.5248-1.3651.7862-.003-.4189-.0018-.8375-.0042-1.2565z" fill="#493239"/><path d="m20.858 16.978-1.365.785v1.575l1.367-.789z" fill="#493239"/><path d="m22.1458 16.7547c.4362-.3563.8915-.6885 1.3639-.9951.0024.4189.0012.8376.0042 1.2565-.4549.2632-.9101.5258-1.3657.788-.0006-.3499-.003-.6995-.0024-1.0494z" fill="#fff"/><path d="m18.1188 16.9873c.4162-.2422.8333-.4831 1.2513-.7226.4526.2628.9051.5257 1.3576.7886-.4129.2347-.8201.4783-1.2348.7094-.0072.5251.0015 1.0503.0003 1.5751-.4544.2629-.9089.525-1.3636.7862-.0063-1.0454-.0057-2.0912-.0108-3.1367z" fill="#fff"/><path d="m25.9609 6.912.0093-.00631s.0069 2.62544.0108 3.93801l-.0177.0099-10.238 5.9044-.1235-.0718v-3.9236l10.283-5.89488z" fill="#db5b54"/><path d="m26.8263 12.7099.0123-.0051c-.0039.5242.0042 1.0488-.0042 1.573-.2906.0688-.5775.1526-.8594.2511-.375.1276-.7418.2781-1.0983.4505-.472.2302-.9286.4909-1.3669.7802-.4725.3065-.9278.6387-1.3639.9951-.2641.2154-.5197.4408-.77.6719.003-.5216-.0069-1.0434-.0024-1.565.6735-.6308 1.4026-1.1997 2.1783-1.6996.3427-.2298.7017-.4344 1.074-.6122.6038-.2756 1.223-.5161 1.8545-.7202.1179-.0322.2334-.0722.346-.1197z" fill="#db5b54"/><path d="m5.53979 6.91586 10.24971-5.91586 10.1713 5.912-10.2371 5.9215c-3.3954-1.9712-10.18391-5.91764-10.18391-5.91764z" fill="#f2716a"/><path d="m23.3078 10.7323c.0531-.0174.1143-.0444.1659-.0066.4466.2638.8916.53 1.3399.7907.3841.2302.7709.4565 1.1556.6854.286.1693.5726.3367.857.508-.1125.0475-.2281.0875-.346.1198-.6315.204-1.2507.4445-1.8545.7202-.3723.1778-.7313.3824-1.074.6122-.7757.4999-1.5048 1.0687-2.1783 1.6996-1.1289-.6572-2.2584-1.3131-3.3885-1.9679.1987-.1991.4079-.3873.6268-.5639.5104-.4284 1.0487-.8224 1.6112-1.1796.968-.5942 2.0036-1.0702 3.0849-1.4179z" fill="#f2716a"/><path d="m5.53979 6.91586c3.39456 1.97275 10.18401 5.91764 10.18401 5.91764l.0015 3.9245-10.18551-5.9218s.0039-2.74762 0-3.92034z" fill="#a24741"/><path d="m17.985 13.894 3.388 1.968.003 1.565-3.393-1.967z" fill="#a24741"/><path d="m20.556 25.368.758.442-4.227 2.442-.774-.436z" fill="#421d2a"/></svg>