<svg xmlns="http://www.w3.org/2000/svg" width="32" height="32" fill="none"><path fill="#fff" d="M16 32c8.837 0 16-7.163 16-16S24.837 0 16 0 0 7.163 0 16s7.163 16 16 16Z"/><path fill="#C95064" d="M26.02 19.565c-.111.144-1.198 1.561-1.43 1.86l-.182-.121c-.028.036-1.13 1.572-1.13 1.572l-.347-.302c-.102.077-1.22 1.848-1.334 2.041l-.023.029a14.704 14.704 0 0 1-.411-.16c-.315-.118-.627-.242-.94-.363a4.71 4.71 0 0 0-.056.11c-.06.121-.118.243-.177.365-.04.082-.08.164-.118.248-.273-.057-.543-.13-.814-.19a24.355 24.355 0 0 0-.326-.077c-.058.103-.112.21-.167.315l-.04.02-.013-.002c-.152-.029-.306-.047-.458-.07-.143-.02-.287-.037-.429-.061-.336-.054-.674-.098-1.012-.149-.053-.008-.105-.017-.158-.024a.298.298 0 0 0-.16.06c-.187.111-.372.223-.561.328-.07-.098-6.62-4.043-6.853-4.118-.066-.025-.045-.105-.05-.159.003-.124.004-.249.004-.373v-.163l-3.247-1.882.01 3.44-.428.254-.004-.002-.005 1.574 1.023.59-.007.936 4.456 2.143 1.843-1.082.516.355 2.792 1.62 10.243-5.918-.008-2.644Z"/><path fill="#DB5B54" d="M8.564 20.028 5.167 21.99v.101c1.392-.689 2.683-1.32 3.668-1.775v-.136l-.271-.153Z"/><path fill="#A24741" d="m8.564 20.028-2.976-1.73.007 2.564v.881c1.03-.593 2.023-1.167 2.969-1.715"/><path fill="#DB5B54" d="m10.94 22.111-2.885 1.366 1.461 2.6 1.114.642 3.111-1.813-1.015-1.721-1.787-1.074Z"/><path fill="#BB486E" d="m23.775 23.564-2.27 1.101-.164-.288 1.614-2.164.82 1.351Zm-17.384.711-1.23-.71.006-1.473 1.628-.798 1.26 2.183-1.664.798Zm7.677 1.193 2.26-1.053 1.22 2.147-2.253 1.072-1.227-2.166Z"/><path fill="#B24A5B" d="m21.892 22.405-.313.177 1.36 2.398.314-.178-1.36-2.397Z"/><path fill="#AF3B55" d="m6.392 24.275.884-.424c1.284-.616 2.611-1.253 3.956-1.875l-.145-.313c-1.347.623-2.676 1.26-3.96 1.877l-1.098.526.363.209Z"/><path fill="#000" d="m16.727 24.23-4.016 1.872.14.299 4.015-1.873-.14-.299Z" opacity=".15"/><path fill="#fff" d="m14.365 23.913-5.089 2.372.146.313 5.088-2.372-.145-.313Z" opacity=".15"/><path fill="#fff" d="m5.588 18.299.153.089-.153.073v-.162Z" opacity=".2"/><path fill="#AA3C42" d="M11.404 26.268c-1.286-2.393-3.179-5.604-4.835-8.2l-.278.177a148.666 148.666 0 0 1 4.828 8.189l.285-.166Z"/><path fill="#BB524B" d="M26.024 20.953a961.696 961.696 0 0 1-12.542 5.982l.14.299a963.78 963.78 0 0 0 12.403-5.914l-.001-.367Z"/><path fill="#000" d="M26.02 19.841c-.55.272-1.146.561-1.153.564l.138.284c.006-.003.508-.246 1.016-.497v-.35Z" opacity=".15"/><path fill="#fff" d="m17.766 24.35-.3.173 1.198 2.082.3-.172-1.198-2.082Z" opacity=".15"/><path fill="#000" d="m18.107 24.25-.299.172 1.198 2.083.299-.172-1.198-2.083Z" opacity=".15"/><path fill="#fff" d="m19.766 23.447-.313.177 1.36 2.398.313-.178-1.36-2.397Z" opacity=".15"/><path fill="#000" d="m21.045 23.125-.313.178 1.36 2.397.313-.177-1.36-2.398Z" opacity=".3"/><path fill="#000" d="m22.955 22.213-.294.18.848 1.397.295-.179-.849-1.398Z" opacity=".15"/><path fill="#fff" d="m23.98 21.487-.291.185 1.043 1.645.291-.184-1.043-1.646Z" opacity=".15"/><path fill="#000" d="m25.023 23.133.292-.185-1.042-1.646-.287.194 1.037 1.637ZM16.38 24.52l-.3.17 1.464 2.56.3-.171-1.464-2.56Zm-1.521-.5-.3.17 2.04 3.585.3-.17-2.04-3.586Zm.804 4.3c-.541-1.04-1.686-3.038-3.061-5.343l.296-.177c1.379 2.31 2.527 4.315 3.07 5.361l-.305.16Z" opacity=".15"/><path fill="#BD967F" d="M13.683 27.33a163.915 163.915 0 0 0-3.331-5.687l.294-.18a164.35 164.35 0 0 1 3.338 5.699l-.301.168Z" opacity=".6"/><path fill="#BD967F" d="M7.716 25.039a442.93 442.93 0 0 1 4.747-2.23l-.145-.313a416.62 416.62 0 0 0-4.965 2.334l.363.209Z" opacity=".6"/><path fill="#BD967F" d="M11.114 26.436c-1.286-2.394-3.183-5.613-4.843-8.214l-.278.177c1.658 2.6 3.554 5.815 4.836 8.204l.285-.167Z" opacity=".6"/><path fill="#000" d="m25.375 22.585.652-.376v-.121c-3.223 1.604-7.603 3.694-11.469 5.531l.142.298c3.625-1.722 7.701-3.667 10.854-5.226l-.18-.106Z" opacity=".15"/><path fill="#AF3B55" d="M9.844 19.853c-1.505.68-2.97 1.4-4.389 2.097l-.289.143-.001.384.443-.217a148.366 148.366 0 0 1 4.378-2.093l-.142-.314Z"/><path fill="#BB524B" d="m5.28 23.633.546-.268c1.416-.696 2.88-1.416 4.38-2.093l-.142-.315c-1.506.68-2.972 1.4-4.39 2.098l-.511.251-.001.26.117.067Z"/><path fill="#000" d="M6.026 24.064c-.178-.326-.485-.882-.861-1.546l-.002.67.311.558.552.318Z" opacity=".3"/><path fill="#000" d="M5.594 20.477a89.378 89.378 0 0 1 2.299-1.1l-.145-.314c-.707.327-1.43.672-2.155 1.03l.001.384Z" opacity=".15"/><path fill="#BD967F" d="M5.595 20.862a88.51 88.51 0 0 1 2.452-1.176l-.145-.314a89.4 89.4 0 0 0-2.308 1.106v.384Z" opacity=".6"/><path fill="#972C56" d="m8.958 25.755.558.322-.049-.087c-1.134-2.03-2.538-4.542-3.876-6.687l.001.63c1.162 1.892 2.356 4.016 3.366 5.822Z" opacity=".7"/><path fill="#000" d="m9.608 26.13 4.756-2.217-.145-.313-4.976 2.319.365.211Zm-1.801-1.04a196.036 196.036 0 0 0-2.212-3.862v.515l-.06.035a193.127 193.127 0 0 1 1.712 2.99l.56.323Z" opacity=".15"/><path fill="#000" d="m13.434 23.521-2.806 1.622.002 1.576 3.404-1.984-.024-.816-.576-.398Z" opacity=".15"/><path fill="#BE9E81" d="m10.377 25.772.299-.14.167.303-.3.14-.166-.303Z"/><path fill="#000" d="m5.166 21.991 5.462 3.152.002 1.576-5.469-3.154.005-1.574Z" opacity=".2"/><path fill="#DCA88B" d="m9.319 23.896.299-.141.173.301-.3.141-.172-.301Zm2.181-1.021.178.297-.314.147-.18-.297.316-.147Z"/><path fill="#BE9E81" d="m6.899 19.842.3-.142.183.296-.3.142-.183-.296Zm5.702 4.893.174.3-.314.146-.177-.299.317-.147Z"/><path fill="#fff" d="m26.023 20.722-.743-1.118-.288.191 1.033 1.552-.002-.625Z" opacity=".15"/><path fill="#3C1A26" d="m26.135 23.032.015-.01s.005 1.845.01 2.767c-1.399.81-4.199 2.424-4.199 2.424l-.122-.066v-2.875l4.195-2.299.1.06Z"/><path fill="#29121A" d="m21.189 25.002.735.42.037 2.791-.68-.363-.725-2.482.633-.366Z"/><path fill="#421D2A" d="m25.374 22.585.761.447-4.21 2.434-.77-.444 4.219-2.437Z"/><path fill="#3C1A26" d="m21.314 25.81.007 2.747s-2.293 1.326-3.438 1.99c-.267.149-.798.453-.798.453l-.026-.015-.009-2.802 4.2-2.41.064.037Z"/><path fill="#29121A" d="m11.16 27.55 1.811-1.055 2.813 1.632.664-.391.639.43s.01 1.918-.002 2.834c-1.964-1.152-3.96-2.3-5.925-3.45Z"/><path fill="#BD967F" d="m12.984 25.341.005 1.156-3.395 1.977-.286-.165-.013-2.367.308.177 1.024.589 2.357-1.367Z"/><path fill="#886B59" d="m6.184 24.146 3.419 1.973-.01 2.355S7.316 27.159 6.178 26.5c.001-.785.007-2.354.007-2.354ZM5.54 10.821l.002 2.243.014 5.217 10.17 5.904v-7.577L5.54 10.821Z"/><path fill="#BD967F" d="m25.963 10.524-10.503 5.94v6.349l.263.005.005.011 10.254-5.917-.019-6.388Z"/><path fill="#DCDCDC" d="M9.463 13.896c.226-.127.448-.26.673-.389.405.236.814.466 1.217.706-.009.248-.001.497-.01.746-.021-.244.007-.489-.019-.732-.226.11-.435.253-.656.373-.402-.236-.811-.457-1.205-.704Z"/><path fill="#898989" d="M9.449 17.055c.006-1.053-.002-2.106.014-3.159.394.246.803.468 1.205.704 0 1.06-.01 2.118-.009 3.178a.126.126 0 0 0 .034.09l4.322 5.307a.562.562 0 0 0 .172.125c.184.103.366.211.55.316l-.003 1.378c-.1-.06-6.653-4-6.853-4.118-.066-.025-.045-.105-.05-.159.003-.124.004-.249.004-.373v-.163c.008-.255-.015-.512.015-.766.167-.66.345-1.316.515-1.975.041-.125.07-.254.084-.385Z"/><path fill="#FDFDFD" d="M10.668 14.6c.221-.12.43-.262.656-.373.026.243-.002.488.02.732l-.008 2.398a.148.148 0 0 0 .042.123l4.345 5.338.005.011c3.42-1.968 10.312-5.952 10.312-5.952l.684.395c-1.734.995-3.463 2-5.196 2.997a6681.35 6681.35 0 0 1-5.791 3.347c-.184-.105-.366-.213-.55-.316a.561.561 0 0 1-.172-.125l-4.322-5.308a.126.126 0 0 1-.034-.09c0-1.059.009-2.118.009-3.178Z"/><path fill="#D6D6D6" d="M26.724 17.272c-.002.457.002.915.003 1.372-.237.307-1.905 2.482-2.138 2.782l-.181-.122a579.852 579.852 0 0 1-1.088 1.518l-.042.053a3.062 3.062 0 0 1-.347-.3c-.033.04-.066.08-.095.122a353.89 353.89 0 0 0-1.239 1.918l-.023.029a14.704 14.704 0 0 1-.411-.16c-.315-.118-.627-.242-.94-.363-.02.037-.313.64-.351.723-.273-.057-1.032-.242-1.14-.267-.058.103-.112.21-.167.315l-.04.02-.013-.002c-.152-.029-2.004-.297-2.057-.305a.298.298 0 0 0-.16.062c-.187.11-.372.222-.561.327 0-.46.003-.919.003-1.378l10.987-6.344Z"/><path fill="#493239" d="M23.51 15.76c.438-.29.895-.55 1.367-.78.002.416.004.833.002 1.25-.456.26-.91.525-1.365.786-.003-.419-.002-.837-.004-1.256Zm-2.652 1.218-1.365.785v1.575l1.367-.789-.002-1.571Z"/><path fill="#fff" d="M22.146 16.755c.436-.357.891-.689 1.364-.995.002.418 0 .837.004 1.256l-1.366.788c0-.35-.003-.7-.002-1.05Zm-4.027.232c.416-.242.833-.483 1.251-.722l1.358.788c-.413.235-.82.479-1.235.71-.007.525.001 1.05 0 1.575-.454.263-.909.525-1.363.786-.007-1.045-.006-2.091-.011-3.137Z"/><path fill="#DB5B54" d="m25.96 6.912.01-.006.011 3.938-.018.01-10.238 5.904-.123-.072v-3.923l10.283-5.895.076.044Zm.866 5.798.013-.005c-.004.524.004 1.049-.005 1.573a8.64 8.64 0 0 0-.859.25 9.7 9.7 0 0 0-1.098.451c-.472.23-.929.491-1.367.78a15.395 15.395 0 0 0-2.134 1.668c.003-.522-.007-1.044-.003-1.565.674-.631 1.403-1.2 2.179-1.7.343-.23.701-.434 1.074-.612a17.22 17.22 0 0 1 1.854-.72c.118-.033.234-.073.346-.12Z"/><path fill="#F2716A" d="M5.54 6.916 15.79 1l10.17 5.912-10.236 5.922A28008.29 28008.29 0 0 1 5.54 6.916Zm17.768 3.816c.053-.017.114-.044.166-.006.446.263.891.53 1.34.79.384.23.77.457 1.155.686.286.17.573.337.857.508a2.774 2.774 0 0 1-.346.12c-.631.204-1.25.444-1.854.72a8.525 8.525 0 0 0-1.074.612c-.776.5-1.505 1.069-2.179 1.7a1652.63 1652.63 0 0 0-3.388-1.968 7.6 7.6 0 0 1 .627-.564c.51-.429 1.048-.823 1.61-1.18a14.214 14.214 0 0 1 3.086-1.418Z"/><path fill="#A24741" d="m5.54 6.916 10.184 5.918.001 3.924L5.54 10.836s.004-2.747 0-3.92Zm12.445 6.978 3.388 1.968.003 1.565-3.393-1.967.002-1.566Z"/><path fill="#421D2A" d="m20.556 25.368.758.442-4.227 2.442-.774-.436 4.243-2.448Z"/></svg>