<svg fill="none" height="32" viewBox="0 0 32 32" width="32" xmlns="http://www.w3.org/2000/svg"><path d="m16 32c8.8366 0 16-7.1634 16-16 0-8.83656-7.1634-16-16-16-8.83656 0-16 7.16344-16 16 0 8.8366 7.16344 16 16 16z" fill="#b41514"/><g fill="#fff"><path d="m15.8581 25.4588c-.4812 0-.9476-.1669-1.3196-.4721-.3719-.3053-.6266-.7301-.7205-1.2021-.0938-.472-.0212-.9619.2057-1.3863.2268-.4244.5938-.757 1.0384-.9412.4446-.1841.9393-.2084 1.3998-.0687s.8583.4347 1.1256.8348c.2674.4001.3877.8806.3406 1.3595-.0472.4789-.259.9266-.5992 1.2669-.3901.39-.9192.6092-1.4708.6092z"/><path d="m7.17126 19.7612v-2.8243h17.37374v2.8243z"/><path d="m15.84 10.7412c-.4812 0-.9475-.1669-1.3195-.4722-.372-.30524-.6266-.73006-.7205-1.20203s-.0212-.9619.2056-1.38629c.2269-.4244.5938-.75702 1.0384-.94117.4446-.18416.9393-.20846 1.3998-.06877s.8583.43473 1.1257.83485c.2673.40012.3877.88056.3405 1.35946s-.2589.92663-.5992 1.26695c-.3901.39-.9191.6092-1.4708.6092z"/><path d="m21.9572 6.5412c0 1.61225-.6404 3.15847-1.7805 4.2985-1.14 1.14-2.6862 1.7805-4.2985 1.7805-1.6122 0-3.1584-.6405-4.2985-1.7805-1.14-1.14003-1.78046-2.68625-1.78046-4.2985h-2.72099c0 2.3339.92714 4.5722 2.57746 6.2225 1.65029 1.6504 3.88859 2.5775 6.22249 2.5775 2.334 0 4.5723-.9271 6.2226-2.5775 1.6503-1.6503 2.5774-3.8886 2.5774-6.2225z"/></g></svg>