<svg fill="none" height="32" viewBox="0 0 32 32" width="32" xmlns="http://www.w3.org/2000/svg"><path d="m16 32c8.8366 0 16-7.1634 16-16 0-8.83656-7.1634-16-16-16-8.83656 0-16 7.16344-16 16 0 8.8366 7.16344 16 16 16z" fill="#000"/><path d="m19.4453 18.9192c0 4.5336-1.909 5.6838-5.8142 7.5927.4988.3252 1.1713.7377 2.3215 1.2797 2.9939-1.4101 5.8784-3.2759 5.8784-8.222v-10.47724h-2.3857zm-2.2773-9.82684h-7.0939v2.08264h4.7072v6.6603c0 3.0371-.1957 3.3191-4.1431 5.0976.293.7226.6955 1.3961 1.1933 1.9963 4.4683-1.9963 5.3365-3.0151 5.3365-6.4646zm-6.1615-4.70717v1.84374c0 .47774-.282.80293-.8461.80293h-.0863v-.39043h.0652c.26 0 .4125-.13049.4125-.4125v-1.45331h-.4125v-.39043zm.8029 2.25624h.4125v-2.25624h.4336v2.21307c0 .28204-.1515.4125-.4336.4125h-.4125c-.282 0-.4336-.15155-.4336-.4125v-2.21307h.4336zm2.0395-.6293v-1.60486h.4336v1.62693c0 .73769-.3905.99766-1.0629.99766h-.2168v-2.64667h.4336v2.191h.0221c.282.02207.3904-.23888.3904-.56406zm1.2365-1.21443v.69454h.4988l-.0863.36833h-.4336v.75976h.6504l-.0653.39043h-.9976v-2.62557h.9765l.0653.39043h-.6072v.02208zm1.7574-.41251h.4125v2.62457h-.4125v-.88925l-.4125-.91132h-.0221v1.80057h-.4125v-2.62457h.4125l.4125.99763h.0221zm1.93.41251h-.4125v2.23416h-.4336v-2.23416h-.4125l.0653-.39043h1.1281zm.6514 1.84373h.4125v-2.23416h.4336v2.21306c0 .28205-.1516.41254-.4336.41254h-.4125c-.282 0-.4336-.15156-.4336-.41254v-2.21306h.4336zm1.1713-.47775h.4336v.52089h.3904v-.36833c0-.17362-.0432-.25994-.1736-.34725l-.4125-.25997c-.1516-.10839-.2168-.28202-.2168-.41251v-.47775c0-.28201.1736-.4125.4125-.4125h.4125c.282 0 .4125.15155.4125.4125v.32519l-.4125.10841v-.51991h-.3684v.39043c0 .13049.0432.2168.1737.30412l.3904.23887c.1736.10839.2599.25995.2599.47775v.49882c0 .28201-.1736.39043-.4125.39043h-.3904c-.282 0-.4336-.10842-.4336-.39043v-.47775z" fill="#fff"/></svg>