<svg xmlns="http://www.w3.org/2000/svg" width="32" height="32" fill="none"><path fill="#000" d="M16 32c8.837 0 16-7.163 16-16S24.837 0 16 0 0 7.163 0 16s7.163 16 16 16Z"/><path fill="#fff" d="M19.445 18.92c0 4.533-1.909 5.683-5.814 7.592.499.325 1.171.738 2.322 1.28 2.994-1.41 5.878-3.276 5.878-8.222V9.092h-2.386v9.827Zm-2.277-9.828h-7.094v2.083h4.707v6.66c0 3.037-.195 3.32-4.143 5.098a7.602 7.602 0 0 0 1.194 1.996c4.468-1.996 5.336-3.015 5.336-6.464V9.092Zm-6.161-4.707V6.23c0 .478-.282.803-.847.803h-.086v-.39h.065c.26 0 .413-.131.413-.413V4.776h-.413v-.39h.868Zm.802 2.256h.413V4.385h.434v2.213c0 .282-.152.413-.434.413h-.413c-.282 0-.433-.152-.433-.413V4.385h.433v2.256Zm2.04-.629V4.407h.434v1.627c0 .738-.391.998-1.063.998h-.217V4.385h.433v2.191h.023c.282.022.39-.239.39-.564Zm1.236-1.214v.694h.5l-.087.369h-.434v.76h.65l-.065.39h-.997V4.385h.976l.066.39h-.608v.023Zm1.758-.413h.412V7.01h-.412v-.89l-.413-.91h-.022v1.8h-.412V4.385h.412l.413.998h.022v-.998Zm1.93.413h-.413v2.234h-.433V4.798h-.413l.066-.39h1.128l.065.39Zm.651 1.843h.413V4.407h.433V6.62c0 .282-.151.413-.433.413h-.413c-.282 0-.433-.152-.433-.413V4.407h.433v2.234Zm1.172-.477h.433v.52h.39v-.368c0-.173-.043-.26-.173-.347l-.413-.26a.525.525 0 0 1-.216-.412v-.478c0-.282.173-.413.412-.413h.413c.282 0 .412.152.412.413v.325l-.412.108v-.52h-.369v.39c0 .131.043.218.174.305l.39.239a.52.52 0 0 1 .26.478v.498c0 .282-.173.39-.412.39h-.39c-.283 0-.434-.108-.434-.39v-.477l-.066-.001Z"/></svg>