<svg fill="none" height="32" viewBox="0 0 32 32" width="32" xmlns="http://www.w3.org/2000/svg" xmlns:xlink="http://www.w3.org/1999/xlink"><clipPath id="a"><path d="m0 0h32v32h-32z"/></clipPath><g clip-path="url(#a)"><path d="m16 31c8.2843 0 15-6.7157 15-15 0-8.28427-6.7157-15-15-15-8.28427 0-15 6.71573-15 15 0 8.2843 6.71573 15 15 15z" fill="#090806"/><path d="m16 1.28c2.9113 0 5.7573.86331 8.178 2.48077 2.4207 1.61745 4.3074 3.9164 5.4215 6.60613 1.1141 2.6897 1.4056 5.6494.8377 8.5048-.568 2.8554-1.97 5.4783-4.0286 7.5369s-4.6815 3.4606-7.5369 4.0286c-2.8554.5679-5.8151.2764-8.5048-.8377-2.68972-1.1141-4.98867-3.0008-6.60613-5.4215-1.61745-2.4207-2.48076-5.2667-2.48076-8.178.00779-3.9016 1.56114-7.64116 4.31999-10.40001s6.4984-4.3122 10.4-4.31999zm0-1.28c-3.1645 0-6.25793.938384-8.88912 2.69649-2.63118 1.7581-4.68194 4.25696-5.89295 7.18057-1.2109975 2.92364-1.527851 6.14064-.910487 9.24434.617363 3.1037 2.141217 5.9547 4.378857 8.1923s5.08857 3.7615 8.1923 4.3789c3.1037.6173 6.3207.3005 9.2443-.9105 2.9237-1.211 5.4225-3.2618 7.1806-5.893s2.6965-5.7246 2.6965-8.8891c-.0015-4.243-1.6877-8.31175-4.688-11.312-3.0002-3.00025-7.069-4.68645216-11.312-4.688zm6.72 12.4373h-1.0027l-3.072 3.5627 3.0507 3.5627h1.0027v2.8586h-6.464v-2.816h1.0026l-2.0053-2.3253h-.832v2.3253h1.1307v2.8374h-6.25069v-2.88h1.36529v-7.1254h-1.36529v-2.88h1.53599v1.0667h.832v-1.0667h1.5147v1.0667h.832v-1.0667h1.536v2.8374h-1.1307v2.3253h.832l2.0053-2.3253h-1.0026v-2.8374h6.4853z" fill="#48dbb4"/></g></svg>