<svg xmlns="http://www.w3.org/2000/svg" width="32" height="32" fill="none"><defs><clipPath id="keep__a"><path fill="#fff" d="M0 0h32v32H0z"/></clipPath></defs><g clip-path="url(#keep__a)"><path fill="#090806" d="M16 31c8.284 0 15-6.716 15-15 0-8.284-6.716-15-15-15C7.716 1 1 7.716 1 16c0 8.284 6.716 15 15 15Z"/><path fill="#48DBB4" d="M16 1.28A14.72 14.72 0 1 1 1.28 16 14.75 14.75 0 0 1 16 1.28ZM16 0a16 16 0 1 0 0 32 16 16 0 0 0 0-32Zm6.72 12.437h-1.003L18.645 16l3.051 3.563h1.003v2.858h-6.464v-2.816h1.002l-2.005-2.325H14.4v2.325h1.13v2.838H9.28v-2.88h1.365v-7.126H9.28v-2.88h1.536v1.067h.832V9.557h1.515v1.067h.832V9.557h1.536v2.838H14.4v2.325h.832l2.005-2.325h-1.002V9.557h6.485v2.88Z"/></g></svg>