<svg xmlns="http://www.w3.org/2000/svg" width="32" height="32" fill="none"><defs><linearGradient id="key__a" x1="16.807" x2="14.871" y1="1.231" y2="36.627" gradientUnits="userSpaceOnUse"><stop stop-color="#08BCCD"/><stop offset="1" stop-color="#2DA1F8"/></linearGradient><linearGradient id="key__b" x1="3511.91" x2="3511.91" y1="-2045.24" y2="-2060.73" gradientUnits="userSpaceOnUse"><stop stop-color="#1AAEE2"/><stop offset="1" stop-color="#20AAE9"/></linearGradient></defs><path fill="url(#key__a)" d="M16 .5 2.433 8.25v15.5L16 31.5l13.567-7.75V8.25L16 .5Z"/><path fill="#fff" d="M20.333 7.201a.889.889 0 0 1-.884.889h-3.286v1.914h2.424a.889.889 0 0 1 0 1.777h-2.424v6.816c.001.031.001.063 0 .094a3.54 3.54 0 1 1-1.846.012.917.917 0 0 1-.007-.103V7.247a.929.929 0 0 1 1.157-.903.872.872 0 0 1 .223-.03h3.762a.89.89 0 0 1 .883.89l-.002-.003Z"/><path fill="url(#key__b)" d="M15.276 24.206c1.099 0 1.99-.898 1.99-2.006 0-1.108-.891-2.006-1.99-2.006s-1.99.898-1.99 2.006c0 1.108.891 2.006 1.99 2.006Z"/></svg>