<svg fill="none" height="32" viewBox="0 0 32 32" width="32" xmlns="http://www.w3.org/2000/svg" xmlns:xlink="http://www.w3.org/1999/xlink"><linearGradient id="a" gradientUnits="userSpaceOnUse" x1="16.8074" x2="14.8715" y1="1.23114" y2="36.6272"><stop offset="0" stop-color="#08bccd"/><stop offset="1" stop-color="#2da1f8"/></linearGradient><linearGradient id="b" gradientUnits="userSpaceOnUse" x1="3511.91" x2="3511.91" y1="-2045.24" y2="-2060.73"><stop offset="0" stop-color="#1aaee2"/><stop offset="1" stop-color="#20aae9"/></linearGradient><path d="m15.9996.5-13.56698 7.75v15.5l13.56698 7.75 13.567-7.75v-15.5z" fill="url(#a)"/><path d="m20.3326 7.20108v-.00047c0 .23482-.0929.4601-.2585.62665-.1655.16656-.3902.26087-.625.26235h-3.2861v1.91439h2.424c.2348.0014.4595.0956.625.2621.1656.1665.2585.3918.2585.6266s-.0929.4601-.2585.6266c-.1655.1665-.3902.2608-.625.2621h-2.424v6.8153c.0014.0315.0014.063 0 .0944.8298.2182 1.5521.7304 2.0325 1.4414.4803.7109.6861 1.5722.579 2.4235-.1072.8513-.5199 1.6347-1.1615 2.2044-.6416.5698-1.4683.887-2.3263.8928s-1.6889-.3003-2.3381-.8614c-.6491-.561-1.0724-1.3388-1.191-2.1886s.0756-1.7137.5464-2.4311c.4707-.7173 1.1861-1.2392 2.0129-1.4686-.0042-.0343-.0064-.0689-.0067-.1034v-11.35327c-.0004-.12209.0232-.24307.0696-.35603.0463-.11295.1145-.21566.2006-.30225.086-.08659.1883-.15537.301-.2024s.2335-.0714.3556-.0717c.0776.00021.1549.01029.23.03.0728-.01962.1479-.0297.2233-.03h3.7617c.2348.00149.4595.09581.625.26236.1656.16655.2585.39182.2585.62664z" fill="#fff"/><path d="m15.276 24.2057c1.099 0 1.9899-.8981 1.9899-2.0059 0-1.1079-.8909-2.006-1.9899-2.006s-1.9899.8981-1.9899 2.006c0 1.1078.8909 2.0059 1.9899 2.0059z" fill="url(#b)"/></svg>