<svg fill="none" height="32" viewBox="0 0 32 32" width="32" xmlns="http://www.w3.org/2000/svg"><path d="m16 0c4.2435 0 8.3131 1.68571 11.3137 4.68629s4.6863 7.07021 4.6863 11.31371-1.6857 8.3131-4.6863 11.3137-7.0702 4.6863-11.3137 4.6863c-4.2435 0-8.31313-1.6857-11.31371-4.6863s-4.68629-7.0702-4.68629-11.3137c0-4.2435 1.68571-8.31313 4.68629-11.31371s7.07021-4.68629 11.31371-4.68629z" fill="#005ad3"/><path d="m30.1177 15.9996c.0001 2.7922-.8279 5.5218-2.3791 7.8435s-3.756 4.1312-6.3357 5.1998-5.4183 1.3483-8.1569.8036c-2.7385-.5447-5.25412-1.8893-7.22855-3.8636-1.97444-1.9744-3.31906-4.4899-3.86382-7.2285-.54477-2.7386-.26522-5.5772.80331-8.1569 1.06852-2.57968 2.87802-4.78458 5.19967-6.33587 2.32169-1.55128 5.05119-2.37928 7.84339-2.37928 3.7442.00004 7.335 1.48738 9.9825 4.13486 2.6476 2.64747 4.135 6.23819 4.1352 9.98239z" stroke="#fff" stroke-width="1.34473"/><g clip-rule="evenodd" fill="#fff" fill-rule="evenodd"><path d="m18.9633 7.06339c.2533.00081.496.10202.6748.28144.1789.17942.2793.42242.2793.67575s-.1004.49633-.2793.67575c-.1788.17942-.4215.28063-.6748.28145h-2.4056v1.74962h2.0667c.2529.0016.4949.1032.6731.2826s.2783.422.2783.6749-.1001.4955-.2783.6749-.4202.281-.6731.2826h-2.0667v3.538c.6763.1221 1.3152.3992 1.8665.8097.5513.4104 1 .943 1.3109 1.556.3285.195.6003.4724.7887.8047s.2868.708.2854 1.09v.2982c.0008.3878-.1009.769-.2947 1.1049-.1939.336-.473.6147-.8092.8081-.3765.7168-.9417 1.317-1.6346 1.7357-.693.4188-1.4872.6401-2.2968.6401s-1.6038-.2213-2.2967-.6401c-.693-.4187-1.2582-1.0189-1.6347-1.7357-.3357-.1939-.6146-.4728-.8084-.8086-.1939-.3357-.296-.7167-.2961-1.1044v-.2982c-.0006-.3819.0981-.7574.2866-1.0896.1884-.3322.46-.6097.7881-.8051.2848-.5597.6845-1.053 1.1731-1.4474.4886-.3945 1.0551-.6813 1.6622-.8417v-8.23678c-.0003-.2535.1002-.49671.2792-.67615.1791-.17944.4221-.28041.6756-.28068zm-.7095 11.43201h-4.9604c-.5082-.001-.9959.2-1.3559.5586s-.5628.8456-.5638 1.3537v.2575c.001.5082.2039.9952.5638 1.3539.36.3587.8477.5598 1.3559.5591h4.959c.5085.0012.9967-.1997 1.3571-.5585.3604-.3587.5635-.8459.5648-1.3545v-.2575c-.0006-.2516-.0507-.5007-.1475-.733s-.2384-.4433-.4167-.6209-.3899-.3183-.6226-.4141-.482-.1448-.7337-.1443z"/><path d="m13.7322 21.3077c.1435 0 .2838-.0425.4032-.1223.1193-.0797.2124-.1931.2673-.3257s.0693-.2785.0413-.4193-.0971-.2701-.1986-.3716-.2308-.1706-.3716-.1986-.2867-.0136-.4193.0413-.246.148-.3257.2673c-.0798.1193-.1223.2597-.1223.4032-.0001.0953.0187.1897.0551.2778.0365.088.0899.1681.1573.2355s.1474.1208.2355.1573c.0881.0364.1825.0552.2778.0551z"/><path d="m18.0876 21.3077c.1436 0 .2839-.0426.4032-.1223.1193-.0798.2123-.1931.2673-.3257.0549-.1326.0692-.2786.0412-.4193-.028-.1408-.0971-.2701-.1986-.3716s-.2308-.1706-.3716-.1986-.2867-.0136-.4193.0413-.2459.148-.3257.2673c-.0797.1194-.1223.2597-.1223.4032 0 .0953.0187.1897.0551.2778.0365.0881.09.1681.1574.2355s.1474.1209.2355.1573c.0881.0365.1825.0552.2778.0551z"/></g></svg>