<svg xmlns="http://www.w3.org/2000/svg" width="32" height="32" fill="none"><path fill="#005AD3" d="M16 0a16 16 0 1 1 0 32A16 16 0 0 1 0 16 16 16 0 0 1 16 0Z"/><path stroke="#fff" stroke-width="1.345" d="M30.118 16a14.118 14.118 0 1 1-28.236 0 14.118 14.118 0 0 1 28.236 0Z"/><path fill="#fff" fill-rule="evenodd" d="M18.963 7.063a.957.957 0 0 1 0 1.915h-2.405v1.75h2.066a.957.957 0 0 1 0 1.914h-2.066v3.538a4.449 4.449 0 0 1 3.177 2.366 2.194 2.194 0 0 1 1.074 1.895v.298a2.202 2.202 0 0 1-1.104 1.913 4.44 4.44 0 0 1-7.862 0 2.21 2.21 0 0 1-1.105-1.913v-.298a2.2 2.2 0 0 1 1.075-1.895 4.459 4.459 0 0 1 2.835-2.289V8.02a.956.956 0 0 1 .955-.957h3.36Zm-.71 11.432h-4.96a1.916 1.916 0 0 0-1.92 1.913v.257a1.917 1.917 0 0 0 1.92 1.913h4.96a1.917 1.917 0 0 0 1.921-1.913v-.257a1.918 1.918 0 0 0-1.92-1.913Z" clip-rule="evenodd"/><path fill="#fff" fill-rule="evenodd" d="M13.732 21.308a.726.726 0 1 0 0-1.451.726.726 0 0 0 0 1.45Zm4.356 0a.726.726 0 1 0 0-1.452.726.726 0 0 0 0 1.452Z" clip-rule="evenodd"/></svg>