<svg fill="none" height="32" viewBox="0 0 32 32" width="32" xmlns="http://www.w3.org/2000/svg"><path d="m16 32c8.8366 0 16-7.1634 16-16 0-8.83656-7.1634-16-16-16-8.83656 0-16 7.16344-16 16 0 8.8366 7.16344 16 16 16z" fill="#fff"/><g fill="#4f473c"><path d="m16.5758 15.9394 8.303 8.2424c2.102-2.2296 3.2727-5.1781 3.2727-8.2424s-1.1707-6.01276-3.2727-8.24242z"/><path d="m15.97 16.485-8.18204 8.121 8.18204 3.394 8.182-3.394z"/><path d="m15.667 15.636 8.4851-8.424-7.8191-3.212-7.75695 18.727z"/><path d="m3.84853 15.9394c-.00585 3.0654 1.1657 6.016 3.27273 8.2424l8.12124-19.57574z"/></g></svg>