<svg xmlns="http://www.w3.org/2000/svg" width="32" height="32" fill="none"><defs><linearGradient id="kmd__a" x1="13.146" x2="24.77" y1="18.863" y2="7.239" gradientUnits="userSpaceOnUse"><stop stop-color="#1B456E"/><stop offset="1" stop-color="#00EDD3"/></linearGradient><linearGradient id="kmd__b" x1="7.515" x2="23.387" y1="24.489" y2="8.617" gradientUnits="userSpaceOnUse"><stop stop-color="#1B456E"/><stop offset=".405" stop-color="#1B476F"/><stop offset=".551" stop-color="#1A4E73"/><stop offset=".655" stop-color="#18597A"/><stop offset=".739" stop-color="#156A84"/><stop offset=".811" stop-color="#118092"/><stop offset=".875" stop-color="#0D9CA2"/><stop offset=".933" stop-color="#08BCB6"/><stop offset=".984" stop-color="#02E0CB"/><stop offset="1" stop-color="#00EDD3"/></linearGradient></defs><path fill="#fff" d="M16 32c8.837 0 16-7.163 16-16S24.837 0 16 0 0 7.163 0 16s7.163 16 16 16Z"/><path fill="url(#kmd__a)" d="M24.774 7.243a1.911 1.911 0 0 0-2.706 0l-.045.053c-.29.31-.47.71-.51 1.133v.34a3.421 3.421 0 0 1-4.185 3l-.28-.073a4.396 4.396 0 0 0-4.044 1.057c-.044.04-.093.073-.133.117a4.451 4.451 0 0 0 6.265 6.272c.181-.19.348-.392.497-.608a4.428 4.428 0 0 0 .676-3.566c-.025-.081-.045-.162-.065-.243a.118.118 0 0 1 0-.037 3.422 3.422 0 0 1 3.05-4.186h.072l.219-.02a1.912 1.912 0 0 0 1.173-.55c.075-.078.142-.162.202-.252a1.913 1.913 0 0 0-.186-2.437Z"/><path fill="url(#kmd__b)" d="M16.01 28A11.999 11.999 0 0 1 5.687 9.838a12 12 0 0 1 13.1-5.506 1.288 1.288 0 0 1-.595 2.506 9.519 9.519 0 0 0-2.184-.255 9.425 9.425 0 1 0 9.416 9.425v-.004a9.595 9.595 0 0 0-.259-2.194 1.287 1.287 0 1 1 2.5-.595A11.975 11.975 0 0 1 16.008 28Z"/></svg>