<svg fill="none" height="32" viewBox="0 0 32 32" width="32" xmlns="http://www.w3.org/2000/svg" xmlns:xlink="http://www.w3.org/1999/xlink"><linearGradient id="a" gradientUnits="userSpaceOnUse" x1="13.1459" x2="24.77" y1="18.8632" y2="7.23911"><stop offset="0" stop-color="#1b456e"/><stop offset="1" stop-color="#00edd3"/></linearGradient><linearGradient id="b" gradientUnits="userSpaceOnUse" x1="7.51522" x2="23.3875" y1="24.4894" y2="8.61711"><stop offset="0" stop-color="#1b456e"/><stop offset=".40522" stop-color="#1b476f"/><stop offset=".55118" stop-color="#1a4e73"/><stop offset=".65524" stop-color="#18597a"/><stop offset=".73938" stop-color="#156a84"/><stop offset=".81149" stop-color="#118092"/><stop offset=".87525" stop-color="#0d9ca2"/><stop offset=".933" stop-color="#08bcb6"/><stop offset=".98436" stop-color="#02e0cb"/><stop offset="1" stop-color="#00edd3"/></linearGradient><path d="m16 32c8.8366 0 16-7.1634 16-16 0-8.83656-7.1634-16-16-16-8.83656 0-16 7.16344-16 16 0 8.8366 7.16344 16 16 16z" fill="#fff"/><path d="m24.7737 7.24289c-.1775-.17782-.3883-.3189-.6204-.41517s-.4809-.14584-.7322-.14587c-.2513-.00002-.5001.04948-.7322.1457s-.443.23725-.6206.41503l-.0003.00031-.0445.05264c-.2906.31109-.4698.70976-.5096 1.1336v.34008c-.0471.48545-.1975.95522-.441 1.37779-.2436.4226-.5747.7882-.9711 1.0723s-.8491.4801-1.3275.575c-.4784.0948-.9716.0863-1.4464-.0251l-.2791-.0729c-.7088-.1734-1.4497-.1677-2.1558.0168s-1.3552.5419-1.8886 1.0399c-.0445.0405-.093.0729-.1335.1174-.7093.8531-1.0745 1.9404-1.0239 3.0488.0507 1.1083.5134 2.1578 1.2975 2.9428.7842.7849 1.8332 1.2487 2.9415 1.3004 1.1083.0518 2.1959-.3123 3.0498-1.0207.1814-.1892.3477-.3922.4974-.6073.3582-.5131.6036-1.0962.72-1.711s.1012-1.2473-.0445-1.8558c-.0243-.081-.0445-.162-.0647-.2429-.0019-.0121-.0019-.0244 0-.0365-.1113-.4786-.1182-.9755-.0203-1.457.0979-.4816.2983-.9364.5876-1.3335.2893-.3972.6608-.7274 1.0891-.9682s.9034-.3866 1.3931-.4275h.0728l.2184-.0202c.4433-.0408.8583-.2356 1.1729-.55065.0751-.07713.1428-.16117.2022-.251.2583-.36409.3812-.80709.3472-1.25223s-.2226-.86436-.5333-1.18503z" fill="url(#a)"/><path d="m16.0094 28c-1.696.0035-3.3735-.3526-4.9218-1.0448-1.54839-.6921-2.93243-1.7046-4.0609-2.9707-1.12848-1.2661-1.97575-2.757-2.48597-4.3745-.51021-1.6174-.67177-3.3247-.47402-5.0091.19775-1.6845.75031-3.3079 1.62125-4.76316.87095-1.45531 2.04049-2.70946 3.43151-3.67978 1.39103-.97032 2.97193-1.63475 4.63843-1.94949 1.6666-.31474 3.3809-.27263 5.03.12354.33.08105.6146.28923.7917.57917.1772.28993.2326.63814.1541.96874-.0784.3306-.2843.61681-.5728.79626-.2885.17946-.6363.23763-.9675.16183-.7157-.1691-1.4486-.25469-2.184-.25506-1.8645-.00191-3.6877.54925-5.2389 1.58374-1.55123 1.03449-2.76077 2.50581-3.4756 4.22791-.71484 1.722-.90286 3.6174-.54028 5.4463.36259 1.8289 1.25948 3.5092 2.57723 4.8283s2.99715 2.2177 4.82565 2.5821c1.8286.3645 3.7241.1784 5.4469-.5347s3.1953-1.9211 4.2314-3.4713c1.0361-1.5501 1.5891-3.3727 1.5891-5.2373v-.004c-.0015-.7389-.0884-1.4753-.2589-2.1943-.0473-.1623-.0622-.3323-.0438-.5003.0184-.1681.0698-.3308.1512-.479.0813-.1481.1911-.2788.323-.3845s.2834-.1844.4457-.2316c.1624-.0471.3324-.0618.5004-.0432.168.0187.3307.0702.4788.1518.148.0815.2786.1914.3841.3235.1056.132.1841.2835.231.4459.0117.0403.0214.081.029.1223.4253 1.7623.445 3.5981.0575 5.3691s-1.172 3.4309-2.2943 4.8546c-1.1224 1.4237-2.5533 2.574-4.185 3.3642-1.6316.7902-3.4213 1.1997-5.2342 1.1975z" fill="url(#b)"/></svg>