<svg xmlns="http://www.w3.org/2000/svg" width="32" height="32" fill="none"><path fill="#6C8275" d="M16 32c8.837 0 16-7.163 16-16S24.837 0 16 0 0 7.163 0 16s7.163 16 16 16Z"/><path fill="#FEFFFF" d="M8.377 15.96c0-1.677.014-3.354-.009-5.031-.007-.552.203-.94.629-1.26 1.684-1.271 3.362-2.551 5.042-3.828l.14-.111c.165-.124.339-.207.537-.08.191.122.217.304.172.513-.105.482-.202.966-.306 1.448-.572 2.662-1.148 5.322-1.71 7.986-.05.24-.053.51-.002.75.624 2.942 1.262 5.88 1.895 8.819.047.219.087.44.13.66.038.192 0 .359-.171.474-.176.118-.345.07-.5-.044-.35-.256-.698-.515-1.043-.778-1.368-1.044-2.727-2.1-4.105-3.13-.484-.362-.722-.779-.71-1.402.031-1.662.01-3.324.01-4.986Zm7.02.295c.453.263.907.524 1.361.784 1.986 1.139 3.976 2.271 5.957 3.419.534.309.939.302.93-.546-.03-2.62-.011-5.24-.012-7.86 0-.12.007-.24-.008-.36-.036-.31-.236-.455-.531-.366-.17.052-.329.145-.484.234-2.13 1.218-4.26 2.438-6.39 3.658-.4.23-.797.462-1.292.75.22.135.342.214.468.287Zm-.778 1.607c.445 2.089.89 4.177 1.338 6.265.163.76.326 1.518.502 2.273.104.446.377.545.756.294a3.33 3.33 0 0 0 .181-.131l1.782-1.36c1.045-.798 2.094-1.591 3.135-2.393.51-.394.48-.688-.083-1.014-.388-.224-.774-.451-1.163-.674-1.516-.87-3.033-1.74-4.55-2.608-.62-.355-1.242-.706-1.956-1.11.028.228.034.345.058.458Zm.028-3.377c.132-.066.268-.126.395-.2 1.83-1.05 3.658-2.104 5.487-3.156.584-.336 1.173-.662 1.753-1.003.49-.289.514-.585.082-.938-.231-.19-.477-.361-.715-.543-1.45-1.109-2.897-2.222-4.351-3.325-.461-.35-.723-.248-.855.31-.113.48-.226.96-.329 1.443-.413 1.93-.823 3.861-1.234 5.792l-.329 1.566.096.054Z"/></svg>