<svg fill="none" height="32" viewBox="0 0 32 32" width="32" xmlns="http://www.w3.org/2000/svg"><path d="m16 32c8.8366 0 16-7.1634 16-16 0-8.83656-7.1634-16-16-16-8.83656 0-16 7.16344-16 16 0 8.8366 7.16344 16 16 16z" fill="#6c8275"/><path d="m8.37656 15.9597c.00013-1.677.01465-3.3541-.0081-5.0308-.00748-.5521.20258-.93913.62854-1.26042 1.6845-1.27059 3.3619-2.55055 5.0419-3.82721.0476-.03621.093-.07546.1408-.11154.164-.1239.3381-.20684.5359-.08043.1914.12232.2173.30474.1721.5133-.1045.48233-.2017.96624-.3053 1.44875-.5719 2.66145-1.1487 5.32185-1.7105 7.98535-.0508.2408-.0524.5108-.0015.7512.6237 2.941 1.2616 5.8788 1.8949 8.8177.0472.2192.087.4401.13.6602.0376.1922-.0008.3591-.1713.474-.176.1186-.345.0701-.4998-.0434-.35-.2565-.6985-.5151-1.0435-.7784-1.3679-1.0441-2.7267-2.1003-4.10507-3.1304-.4833-.3612-.72169-.7782-.70985-1.4021.03141-1.6614.01064-3.3238.01078-4.9858zm7.01964.2954c.4533.2626.9075.5236 1.362.784 1.9863 1.1386 3.9762 2.271 5.9572 3.4189.5331.3089.9382.302.9287-.546-.0294-2.6197-.0106-5.2401-.011-7.8601 0-.1198.0065-.2407-.0076-.359-.0369-.3107-.2363-.456-.5319-.3664-.1694.0514-.3283.1447-.4837.2336-2.1308 1.2177-4.2604 2.4377-6.3897 3.658-.4.2292-.7977.4623-1.292.7491.2197.1355.342.2149.468.2879zm-.7769 1.6068c.4443 2.0888.8896 4.1774 1.3375 6.2654.1628.7588.3267 1.5173.5026 2.2731.1037.4453.3765.5444.7556.2938.0623-.0412.1221-.0863.1815-.1316.5939-.453 1.1872-.9068 1.7812-1.3598 1.0455-.7974 2.0941-1.5908 3.1356-2.3933.5103-.3933.4804-.6874-.083-1.0134-.388-.2245-.7745-.4513-1.1632-.6744-1.5163-.87-3.0327-1.7397-4.55-2.6079-.62-.3548-1.2424-.7055-1.9562-1.1106.0285.229.0343.3458.0584.4587zm.028-3.3773c.1318-.066.2674-.1257.3951-.199 1.8295-1.0512 3.6577-2.1047 5.4868-3.1565.5838-.3357 1.1731-.6618 1.7532-1.0035.4892-.28812.5131-.58424.0818-.93773-.2312-.18956-.4771-.3612-.7148-.54296-1.4502-1.10876-2.8974-2.22161-4.3515-3.32526-.4612-.35011-.7234-.24776-.8547.31108-.1129.48-.2257.96012-.329 1.44223-.4135 1.93024-.8235 3.86114-1.2341 5.79204-.111.5218-.2193 1.0442-.3289 1.5664.032.0177.064.0355.0961.0532z" fill="#feffff"/></svg>