<svg fill="none" height="32" viewBox="0 0 32 32" width="32" xmlns="http://www.w3.org/2000/svg"><path d="m16 32c8.8366 0 16-7.1634 16-16 0-8.83656-7.1634-16-16-16-8.83656 0-16 7.16344-16 16 0 8.8366 7.16344 16 16 16z" fill="#fff"/><g fill="#007aff"><path d="m16.5692 19.9795v-1.5226c-.0004-.1458-.0585-.2855-.1616-.3886-.1031-.103-.2428-.1611-.3886-.1616h-.0379c-.1458.0005-.2855.0586-.3886.1616-.103.1031-.1611.2428-.1616.3886v1.5226c-.2504.1278-.4505.3362-.5681.5915-.1176.2554-.1458.543-.0801.8163.0658.2734.2216.5167.4424.6907s.4938.2687.7749.2687c.2812 0 .5542-.0947.775-.2687s.3766-.4173.4424-.6907c.0657-.2733.0375-.5609-.0801-.8163-.1176-.2553-.3177-.4637-.5681-.5915z"/><path d="m21.122 14.7764h-.1139v-4.0406c-.03-1.30836-.5708-2.55299-1.5068-3.46768-.9359-.91469-2.1926-1.42681-3.5013-1.42681s-2.5654.51212-3.5013 1.42681c-.936.91469-1.4768 2.15932-1.5068 3.46768v4.0406h-.1139c-.4979.0006-.97523.1986-1.32731.5507s-.55013.8294-.55069 1.3274v7.626c.00059.4979.19864.9752.55072 1.3273.35208.352.82938.5501 1.32728.5507h10.244c.4978-.0006.9752-.1987 1.3273-.5507.352-.3521.5501-.8294.5507-1.3273v-7.626c-.0006-.4979-.1986-.9753-.5507-1.3274s-.8294-.5501-1.3273-.5507zm-8.9919-4.0406c.03-1.00643.4509-1.96155 1.1733-2.6628.7225-.70126 1.6898-1.09348 2.6966-1.09348s1.9741.39222 2.6966 1.09348c.7224.70125 1.1433 1.65637 1.1733 2.6628v4.0406h-7.7398zm9.6748 13.5447c-.0006.1809-.0727.3543-.2006.4823-.128.128-.3014.2001-.4823.2006h-10.244c-.1809-.0005-.3543-.0726-.4823-.2006-.1279-.128-.2-.3014-.2006-.4823v-7.626c.0006-.181.0727-.3544.2006-.4823.128-.128.3014-.2001.4823-.2006h10.244c.1809.0005.3543.0726.4823.2006.1279.1279.2.3013.2006.4823z"/></g></svg>