<svg xmlns="http://www.w3.org/2000/svg" width="32" height="32" fill="none"><path fill="#fff" d="M16 32c8.837 0 16-7.163 16-16S24.837 0 16 0 0 7.163 0 16s7.163 16 16 16Z"/><path fill="#007AFF" d="M16.57 19.98v-1.523a.552.552 0 0 0-.551-.55h-.038a.553.553 0 0 0-.55.55v1.523a1.252 1.252 0 1 0 1.138 0Z"/><path fill="#007AFF" d="M21.122 14.776h-.114v-4.04a5.009 5.009 0 0 0-10.016 0v4.04h-.114A1.88 1.88 0 0 0 9 16.654v7.627a1.88 1.88 0 0 0 1.878 1.878h10.244A1.88 1.88 0 0 0 23 24.28v-7.627a1.88 1.88 0 0 0-1.878-1.878Zm-8.992-4.04a3.872 3.872 0 0 1 7.74 0v4.04h-7.74v-4.04Zm9.675 13.544a.686.686 0 0 1-.683.683H10.878a.685.685 0 0 1-.683-.683v-7.626a.685.685 0 0 1 .683-.682h10.244a.685.685 0 0 1 .683.682v7.627Z"/></svg>