<svg fill="none" height="32" viewBox="0 0 32 32" width="32" xmlns="http://www.w3.org/2000/svg"><path d="m15.9984 0c8.8343 0 15.9984 7.16408 15.9984 15.9984 0 8.8343-7.1641 15.9984-15.9984 15.9984-8.83432 0-15.9984-7.1641-15.9984-15.9984 0-8.83432 7.16408-15.9984 15.9984-15.9984z" fill="#000"/><path d="m26.644 8.81276c-.4499-.3999-.9498-.69982-1.5496-.79979-.7498-.09997-1.4996.39989-1.9995.7498s-1.4996 1.24963-1.8995 1.59953-1.3996.5499-3.0492 1.5496c-1.6495.9998-8.0478 5.0987-8.0478 5.0987h1.6495l-7.44798 3.8489h.7498l-1.04972.7998c.59984.15 1.19968.05 1.74953-.2499v.2499s8.84767-3.499 10.54717-2.5993l-1.0497.2999c.1 0 1.7495.1 1.7495.1.1.6998.4999 1.3497 1.0997 1.6996.9998.6498 1.0498 1.0497 1.0498 1.0497s-.4999.1999-.4999.4999c.9497-.3 1.9495-.3 2.8492 0 0 0-.05-.3-.7498-.4999-.6998-.2999-1.2996-.7498-1.7495-1.3996-.3999-.5499-.5498-1.2497-.2999-1.8995.2499-.6499 1.0997-.9998 2.8492-1.8995 2.0495-1.0497 2.5493-1.8495 2.7993-2.4994.2499-.6498.7498-1.8495.9497-2.4493.2-.5499.5499-.9997.9998-1.3996.5498-.3 1.1496-.5499 1.6995-.74984.1.04999-.9997-.84977-1.3496-1.0997z" fill="#fff"/></svg>