<svg xmlns="http://www.w3.org/2000/svg" width="32" height="32" fill="none"><path fill="#000" d="M15.998 0c8.835 0 15.999 7.164 15.999 15.998 0 8.835-7.164 15.999-15.999 15.999C7.164 31.997 0 24.833 0 15.998 0 7.164 7.164 0 15.998 0Z"/><path fill="#fff" d="M26.644 8.813c-.45-.4-.95-.7-1.55-.8-.75-.1-1.5.4-2 .75-.499.35-1.499 1.25-1.899 1.6-.4.35-1.4.55-3.049 1.549-1.65 1-8.048 5.099-8.048 5.099h1.65L4.3 20.86h.75l-1.05.8c.6.15 1.2.05 1.75-.25v.25s8.847-3.5 10.547-2.6l-1.05.3c.1 0 1.75.1 1.75.1.1.7.5 1.35 1.1 1.7.999.65 1.049 1.05 1.049 1.05s-.5.2-.5.5c.95-.3 1.95-.3 2.85 0 0 0-.05-.3-.75-.5-.7-.3-1.3-.75-1.75-1.4-.4-.55-.55-1.25-.3-1.9.25-.65 1.1-1 2.85-1.9 2.049-1.05 2.549-1.849 2.799-2.499.25-.65.75-1.85.95-2.45.2-.549.55-.999 1-1.399.549-.3 1.149-.55 1.699-.75.1.05-1-.85-1.35-1.1Z"/></svg>