<svg fill="none" height="32" viewBox="0 0 32 32" width="32" xmlns="http://www.w3.org/2000/svg" xmlns:xlink="http://www.w3.org/1999/xlink"><linearGradient id="a" gradientUnits="userSpaceOnUse" x1="11.3161" x2="20.0912" y1="20.8734" y2="20.8734"><stop offset="0" stop-color="#d7d7d7"/><stop offset=".4" stop-color="#fff"/><stop offset="1" stop-color="#fff"/></linearGradient><linearGradient id="b" gradientUnits="userSpaceOnUse" x1="2.80137" x2="29.1987" y1="12.4339" y2="12.4339"><stop offset="0" stop-color="#c59a17"/><stop offset=".5" stop-color="#d7a819"/><stop offset="1" stop-color="#dbab19"/></linearGradient><path d="m16 32c8.8366 0 16-7.1634 16-16 0-8.83656-7.1634-16-16-16-8.83656 0-16 7.16344-16 16 0 8.8366 7.16344 16 16 16z" fill="#fff"/><g clip-rule="evenodd" fill-rule="evenodd"><path d="m17.5508 15.1782h2.7295v6.015c-.0422 1.2827-.5079 2.5154-1.3244 3.5056s-1.9379 1.6821-3.1891 1.9679c-1.2402-.3015-2.3547-.9841-3.1869-1.9517-.8323-.9676-1.3405-2.1717-1.4531-3.443v-6.0642h2.125z" fill="#15366f"/><path d="m17.4744 15.3664h2.6166v5.7661c-.0405 1.2297-.4869 2.4114-1.2696 3.3606-.7827.9493-1.8577 1.6127-3.0572 1.8866-1.1889-.2891-2.2573-.9434-3.0551-1.871-.7979-.9276-1.285-2.0818-1.393-3.3006v-5.8133h2.0373z" fill="url(#a)"/><path d="m17.177 18.2518h2.1772v2.8371c-.0336 1.0232-.405 2.0065-1.0563 2.7964-.6513.7898-1.5458 1.3418-2.5439 1.5697-.9892-.2405-1.8782-.7849-2.5421-1.5568-.6639-.7718-1.0692-1.7323-1.1591-2.7464v-2.896h1.6951z" fill="#15366f"/><path d="m17.1039 18.4306h2.0692v2.6963c-.0319.9724-.3849 1.9069-1.0039 2.6576-.619.7506-1.4691 1.2752-2.4177 1.4919-.9401-.2286-1.785-.7461-2.4159-1.4796-.6309-.7336-1.0161-1.6464-1.1015-2.6102v-2.7523h1.6108z" fill="#87d8f7"/><path d="m14.4034 17.68c.0352.0011.0694-.0116.0955-.0353.026-.0238.0417-.0567.0439-.0918l.2108-.7952c.0061-.0225.0106-.0412.0134-.0563.0031-.0133.0048-.027.0051-.0407 0-.0299-.0082-.0486-.0244-.0561-.0327-.0115-.067-.018-.1017-.0191v-.0458h.5458v.0458c-.0419.0016-.083.0116-.1209.0294-.0282.0255-.0466.0601-.052.0977l-.2234.8462-.0059.026-.0017.0286c-.0004.0088.0017.0175.0062.0251.0045.0075.0111.0135.019.0173.0224.0091.0465.0133.0706.0121.1052.0027.2097-.0186.3056-.0623.0976-.0528.177-.134.2275-.2328l.0411.0078-.1007.3445h-.9538z" fill="#15366f"/><path d="m16.6174 17.674.8588-1.0721h-.1362c-.1025.0003-.2027.03-.2887.0857-.0674.0493-.1272.1082-.1776.1748l-.0472-.0069.1274-.3159h.8201l-.0047.052-.8572 1.072h.1242c.0845.0021.1688-.0102.2492-.0364.1276-.0474.2351-.1372.3045-.2543l.0464.0078-.1343.3443h-.8892z" fill="#15366f"/><path d="m17.6702 17.68c.033-.0021.065-.0128.0925-.0312.0259-.0262.0432-.0597.0497-.096l.215-.7951c.0064-.0225.0109-.0413.0137-.0563.0032-.0134.005-.027.0052-.0407 0-.0299-.0084-.0486-.0249-.0562-.0334-.0115-.0683-.0179-.1037-.0191v-.0458h.5219v.0458c-.0333.0025-.0654.0132-.0935.0312-.025.0267-.0416.06-.0479.096l-.216.7953-.0136.0615-.0034.018-.0009.0165c0 .03.0079.049.0239.057.0334.0117.0684.0181.1037.019v.0451h-.5217z" fill="#15366f"/><path d="m14.5412 18.4282 2.4489-.0004v6.3205c-.3862.2359-.8059.4118-1.2449.5218-.422-.1058-.8272-.2698-1.204-.4872z" fill="#fff"/><path d="m11.9889 17.7512.0907-.396.0501.0035c-.0013.0412.0007.0825.0061.1234.0072.0419.0247.0813.051.1146.0224.0293.0511.0532.0839.07.0337.0158.0705.0238.1077.0234.031.0014.062-.0038.0908-.0154.0289-.0116.0548-.0293.0762-.0519.0407-.0429.0651-.0988.069-.1579.0052-.0742-.0598-.168-.1949-.2813-.0548-.0367-.1005-.0853-.1337-.1423-.0332-.0569-.053-.1206-.0579-.1863.0051-.0919.0446-.1784.1106-.2424.0362-.034.0788-.0603.1253-.0775.0466-.0172.0961-.0248.1457-.0225.0321.0001.0642.0033.0957.0094.0191.0035.0379.0084.0563.0147l.0434.0147.0293.0077c.009.0017.0181.0026.0272.0027.017.001.0338-.0036.048-.0129.0116-.0091.0219-.0199.0303-.032h.0521l-.0954.3537-.0457-.0061-.002-.0578c-.0022-.0494-.0161-.0976-.0406-.1406-.0175-.0299-.0429-.0544-.0734-.0707-.0306-.0163-.065-.0238-.0996-.0217-.0296-.0017-.0591.0043-.0858.0173-.0266.013-.0494.0326-.0663.057-.0222.0312-.0354.0679-.0382.1061-.0033.0373.0052.0747.0243.1069.014.0209.0308.0398.05.056l.1425.1252c.0499.0435.0925.0948.1261.1518.0342.0583.0493.1259.0431.1932-.0085.0973-.0539.1877-.1268.2528-.0412.038-.0895.0675-.1421.0868-.0527.0192-.1086.0278-.1646.0252-.0322 0-.0644-.0032-.0959-.0095-.0318-.0058-.0629-.0145-.0931-.0259l-.0433-.0164c-.0097-.0041-.0197-.0076-.03-.0103l-.0195-.0026c-.0078-.0006-.0156.0003-.023.0029-.0073.0025-.0141.0065-.0198.0118-.0123.015-.0227.0315-.0307.0491h-.0531" fill="#15366f"/><path d="m12.8363 17.5287c.0252-.0244.059-.038.094-.038.0168-.0005.0334.0028.0487.0095.0154.0067.029.0167.0401.0293.0116.012.0205.0264.0261.0422.0055.0158.0075.0326.0059.0492-.0022.0358-.0183.0692-.0449.0932-.0124.0122-.0271.0218-.0432.0283-.0162.0066-.0334.0098-.0508.0097-.0167.0003-.0332-.0029-.0485-.0095-.0153-.0065-.029-.0163-.0402-.0285-.0114-.0125-.0201-.0273-.0255-.0433-.0053-.016-.0073-.033-.0056-.0499.002-.0353.0178-.0684.0439-.0923" fill="#15366f"/><path d="m13.0869 17.7513.0905-.396.0503.0034c-.0014.0413.0006.0826.0059.1235.0072.0418.0248.0812.051.1146.0226.0293.0513.0532.0841.07.0337.0158.0705.0237.1077.0232.031.0015.062-.0038.0908-.0154s.0548-.0292.0762-.0517c.0407-.043.065-.0989.0689-.1579.0052-.0742-.0598-.168-.1949-.2813-.0548-.0367-.1005-.0853-.1337-.1423-.0332-.0569-.053-.1207-.0579-.1864.0024-.0476.0142-.0942.0347-.1372.0206-.043.0494-.0815.0848-.1134.0355-.0318.0769-.0563.1219-.0721.0449-.0157.0926-.0224.1402-.0197.0322.0001.0643.0033.0959.0096.019.0035.0378.0083.0561.0146l.0434.0147.0294.0077c.009.0016.0181.0025.0272.0026.0169.0009.0337-.0035.0479-.0128.0117-.0091.0219-.0199.0303-.032h.0521l-.0954.3537-.0456-.006-.0021-.0579c-.0021-.0495-.016-.0977-.0406-.1406-.0174-.0299-.0429-.0544-.0734-.0707s-.065-.0238-.0996-.0217c-.0296-.0017-.0591.0043-.0857.0173s-.0495.0326-.0664.057c-.0221.0312-.0353.0679-.038.1061-.0035.0373.005.0748.0243.107.0139.0209.0307.0397.0498.056l.1425.1251c.05.0436.0926.0948.1263.1519.0342.0583.0492.1258.043.1931-.0085.0974-.0539.1878-.1269.2528-.0411.038-.0894.0676-.1421.0868-.0526.0192-.1086.0278-.1646.0252-.0322 0-.0643-.0032-.0959-.0094-.0317-.0058-.0628-.0146-.0929-.026l-.0434-.0163c-.0097-.0043-.0197-.0077-.03-.0104l-.0194-.0026c-.0078-.0006-.0157.0003-.023.0028-.0074.0026-.0142.0066-.02.0119-.0123.015-.0226.0315-.0307.0492h-.0529" fill="#15366f"/><path d="m13.9905 17.5287c.0252-.0245.0589-.0381.094-.038.0168-.0005.0334.0028.0487.0095s.029.0167.04.0293c.0117.012.0206.0264.0261.0422s.0076.0326.0061.0492c-.0023.0358-.0184.0692-.0449.0932-.0125.0122-.0271.0218-.0433.0283-.0161.0065-.0334.0098-.0508.0097-.0166.0003-.0331-.0029-.0484-.0094-.0153-.0066-.029-.0163-.0403-.0286-.0114-.0125-.02-.0273-.0254-.0433s-.0073-.033-.0057-.0499c.0021-.0353.0178-.0684.0439-.0923" fill="#15366f"/><path d="m18.628 16.7807c.0596-.0811.1368-.1477.2258-.1948.0891-.0471.1876-.0734.2883-.0769.1148-.0042.2266.0371.311.115.0411.0404.0732.0891.0941.1428.021.0537.0304.1112.0276.1688-.0039.2013-.0803.3945-.215.5441-.061.0834-.1403.1516-.2318.1995-.0916.0478-.1929.074-.2961.0765-.0561.0023-.1121-.0067-.1646-.0265s-.1006-.0499-.1413-.0885c-.0397-.0407-.0706-.0891-.0907-.1423-.0202-.0531-.0293-.1098-.0266-.1666.004-.2042.082-.4.2193-.5511zm.0541.8073c.0101.032.0305.0599.0581.0791s.0607.0288.0943.0273c.0704-.0005.1379-.0281.1886-.077.0775-.086.1372-.1866.1754-.296.0389-.0936.0691-.1906.09-.2898.0191-.0809.03-.1635.0327-.2466.0015-.0541-.0138-.1073-.0438-.1523-.0153-.0215-.0359-.0386-.0597-.0499-.0238-.0112-.0502-.016-.0765-.0141-.1455 0-.2681.1306-.3675.392-.0665.1573-.1047.3251-.113.4957-.0012.0448.0061.0895.0214.1316z" fill="#15366f"/><path d="m16.1814 17.2985-.0053-.4309-.3194.4308zm-.7815.3962c.0269-.0068.0527-.0176.0765-.032.0345-.0262.0646-.0577.0892-.0934l.7955-1.0417h.0453l.0276 1.0131c-.0037.0432.0045.0866.0238.1255.0298.0203.0654.0303.1014.0285l-.0059.0424h-.532l.0059-.0424c.0378-.0009.075-.0091.1096-.0243.0127-.0087.0231-.0202.0305-.0338.0074-.0135.0114-.0286.0118-.044.0019-.0132.0031-.0449.0038-.0951.0003-.0104.0006-.0534.0008-.129h-.3778l-.1279.18c-.0089.0127-.017.0259-.0242.0397-.0068.013-.0113.0271-.0135.0417-.0034.0241.0015.0397.0149.0466.0288.0102.0588.0163.0893.0182l-.0059.0424h-.3446l.006-.0424" fill="#15366f"/><path d="m13.1624 15.2404-.0926-.0537c-.158-.03-.3012-.1125-.4063-.2342.2503-.0759.4832-.2005.6852-.3666 0 0-.1663-.0526-.1974-.1367 0 0 .5192-.1569.571-.2618 0 0-1.0907-.2213-1.278-.6306 0 0-.592-.011-.8001-.389-.208-.3779-.0207-.0209-.0207-.0209-.1214.0223-.2468.0046-.3574-.0503-.1105-.055-.2002-.1443-.2557-.2546-.1209-.0024-.2397-.032-.3476-.0866-.108-.0546-.2022-.1327-.2758-.2287-.3378-.0387-.65633-.1779-.91428-.3995-.44615-.0659-.86619-.2511-1.21565-.5362-.38456-.4096 0-.0209 0-.0209-.33155-.0156-.64424-.1588-.87275-.3995-.45436-.0337-.87842-.2406-1.1845-.5781-.54245-.075-1.04387-.3304-1.42347-.72511-.53603-.07059-1.04826-.26502-1.49613-.56789-.56114-.45167-.474-.40958-.474-.40958l8.84198.00739c.5447-.01601 1.0862.08802 1.5861.30472.5.2167.9461.54076 1.3068.94917.1605.2263.3701.4134.6131.5473s.5131.2112.7902.226c.2771.0147.5539-.0333.8098-.1406.2559-.1072.4842-.271.6679-.4789.3701-.45726.8421-.82153 1.3782-1.06369s1.1215-.35549 1.7092-.33093c1.9706.00156 8.6891.00713 8.6891.00713-.5743.52176-1.2858.86859-2.0506.99964-.3974.39345-.9099.64995-1.463.73225-.349.359-.8147.5815-1.3133.6276-.1163.1324-.2575.2406-.4157.3184-.1581.0778-.33.1237-.5059.135-.1119.1409-.2562.2526-.4208.3254-.1645.0729-.3442.1048-.5237.093-.6914.011-.0231.0115-.0231.0115-.1252.1721-.2876.3137-.4751.4143-.1875.1007-.3952.1578-.6078.1671-.7605.0576-.0229-.0001-.0229-.0001-.1891.1785-.4324.2889-.6912.3139-.53.1043-.0347 0-.0347 0s-.092.291-.6911.3487c-.5993.0577-.0462.0115-.0462.0115s-.0688.1746-.4031.221c-.3912.3745-.8915.6147-1.4284.6858 0 0-.0493.2574-.5447.6179.0772.1175.1256.2516.1413.3914v-.0074s.0446-.1672-.0148.1002c-.0595.2677-.5809.5014-.5809.5014.3242-.5549-.0335-.6089-.0335-.6089.0797.3212-.5889.5749-.5889.5749.3176-.4346-.0269-.6022-.0269-.6022.0996.435-.6353.5548-.6353.5548.3903-.4812-.1129-.6237-.1129-.6237l-.4702-.0005c.0401.5955-.6882.7437-.6882.7437.3837-.5484-.007-.6224-.007-.6224.0863.4015-.5293.6084-.5293.6084.3042-.5952-.1131-.6623-.1131-.6623.1727.4685-.7938.762-.6549.6751.139-.0869.2446-.4681.2446-.4681.1059-.1404-.3049-.2545-.3049-.2545" fill="url(#b)"/><path d="m7.61132 9.10583c.12813.19279.31401.34005.531.42066h-3.072s-1.34335.021-1.70777-.42066z" fill="#fff"/><path d="m9.17122 9.92612c.13223.18518.31738.32598.53113.40388h-2.78877s-1.34336.0378-1.70777-.40388z" fill="#fff"/><path d="m10.5042 10.6413c.1427.1646.3257.2892.5311.3618h-2.78877s-1.31207.0379-1.70777-.3618z" fill="#fff"/><path d="m11.4123 11.1987c.166.1099.3443.2003.5311.2692h-2.4473c-.58202.0346-1.16464-.0572-1.70777-.2692z" fill="#fff"/><path d="m12.3912 11.7139c.1313.1021.2803.1791.4394.2273h-2.3556c-.57913.0542-1.16301-.0235-1.70779-.2273h3.62389" fill="#fff"/><path d="m13.1743 12.1451s.0042.0694.3894.2272h-2.1306c-.5791.0542-1.163-.0235-1.70776-.2272z" fill="#fff"/><path d="m14.124 12.5764s-.1625.0189.2229.1767h-1.9974c-.5636.0182-1.1271-.0412-1.6745-.1767z" fill="#fff"/><path d="m14.3157 12.9255s.1581-.0651-.1186.1766h-1.1894c-.5637.0183-1.1272-.0411-1.6746-.1766z" fill="#fff"/><path d="m14.0784 13.2935s.1581-.0988-.1187.1431h-.3064c-.5622.035-1.1265-.0133-1.6746-.1431z" fill="#fff"/><path d="m13.7952 13.5754s.1582-.0988-.1185.1431h-.3064c-.28.0234-.5613-.0259-.8166-.1431z" fill="#fff"/><path d="m24.3564 9.10583c-.1282.19278-.3141.34003-.5311.42066h3.072s1.3435.021 1.7079-.42066z" fill="#fff"/><path d="m22.7963 9.92612c-.1322.18508-.3173.32588-.531.40388h2.7887s1.3435.0378 1.7079-.40388z" fill="#fff"/><path d="m21.4634 10.6413c-.1427.1646-.3257.2893-.5311.3618h2.789s1.3119.0379 1.7077-.3618z" fill="#fff"/><path d="m20.5553 11.1987s.1104.0372.1104.2439l1.8058.0001c.5803.0464 1.1637-.037 1.7078-.244z" fill="#fff"/><path d="m18.503 13.0479s.0145-.1025-.1015.1319l.435.008c.5622.0349 1.1264-.0133 1.6745-.1431l-2.008.0033" fill="#fff"/><path d="m18.2274 13.6337s-.2132-.0982.0637.1437h.3064c.28.0233.5612-.026.8165-.1431z" fill="#fff"/><path d="m16.1394 11.0708h3.7121s.5365-.0439.5945.41c0 0 .0436.1026-.1015.1172-.145.0147-1.5079 0-1.5079 0l-.1306.1612h1.015c.0219-.0031.0441-.0011.065.006.0208.007.0398.0188.0553.0345.0155.0156.0271.0347.0339.0556s.0087.0432.0054.065l.638-.2783h.638s.7395-.0586.6525.7762c-.0505-.1233-.1407-.2262-.2562-.2925s-.2499-.0923-.3818-.0737h-1.4791l-.1305.1611 1.6676.0147s.3624.0292.4495.2929h-2.2912s-.1159-.1465-.4204-.0293-.029 0-.029 0-.725.4686-1.073.4102c-.3482-.0588-.4352-.249-.2466-.4395 0 0-.8264.0879-.2031-.3515 0 0-.4495-.161.3336-.5417h-.7975c-.2815-.022-.5449-.1472-.7396-.3516-.2174-.3076-.0724-.1465-.0724-.1465" fill="#fff"/><path d="m19.0058 12.7078s-.0388-.0406-.2853.143h.7104s1.4211.1093 1.6746-.143z" fill="#fff"/><path d="m21.8152 11.6862s-.0351-.0296.1185.2355h.6804c.2303-.0244.451-.1053.6425-.2355z" fill="#fff"/><path d="m18.3001 13.3036s.0145-.1025-.1016.1319l.0579.008c.5617.0632 1.1302.0173 1.6744-.1353l-1.6307-.0045" fill="#fff"/><path d="m22.0121 12.1399-.0146.1758s.3191-.0879.2756-.1758z" fill="#fff"/><path d="m8.54107 9.416s-.464-.06372-.56548-.31017h4.04561c.8557.07235 1.6576.44707 2.262 1.05697.9716 1.0106 1.189.8934 1.6387.9374l.203.3223c-.2196.0272-.4423-.0137-.638-.1172h-3.2047s-.4205 0-.522-.1612h3.3786c-.1642-.0671-.3162-.1612-.4495-.2783h-3.074s-.638.0293-.7396-.2196h3.4656c-.125-.2212-.3184-.3959-.551-.4979h-3.81366s-.36242-.0146-.47846-.23435h4.06002c-.2838-.23458-.6153-.40449-.9715-.49791h-4.04563" fill="#fff"/><path d="m13.0797 11.8471c-.1308-.0275-.2544-.0825-.3624-.1612h3.045c.1655-.0992.3594-.1404.551-.117 0 0 .203.1316.29.1023-.1647.1398-.357.2433-.5644.3039-.2073.0605-.4251.0768-.6391.0477.0066-.0412.0233-.0801.0485-.1134.0253-.0332.0584-.0597.0964-.077l-2.4651.0147" fill="#fff"/><path d="m16.7775 11.7006h.4785s-.0145.2783-.696.249l.2176-.249" fill="#fff"/><path d="m17.0964 12.0375c-.1297.0677-.274.1029-.4204.1024-.0905.1245-.21.225-.3481.2929.1568.046.3241.041.4779-.0143.1537-.0553.286-.1579.3777-.2931l-.087-.0879" fill="#fff"/><path d="m16.3714 11.9935c-.1807.0878-.3791.1329-.58.1319-.0719.1314-.1707.2461-.2899.3367.1865.0403.3805.0274.56-.0374.1795-.0647.3371-.1787.455-.3288l-.145-.1024" fill="#fff"/><path d="m17.0384 12.4475c-.106.0524-.218.0917-.3334.1172-.1596.0293-.029.0146-.029.0146-.0143.05-.0402.0959-.0754.134-.0353.0381-.079.0675-.1277.0856.1264.0735.275.0992.4187.0724.1438-.0269.2731-.1045.3644-.2187 0 0-.203-.0879-.203-.1612 0-.0732-.0145-.0439-.0145-.0439" fill="#fff"/><path d="m16.1974 12.5354c-.1359.0469-.2772.0764-.4205.0879-.0151.0502-.0432.0956-.0814.1315-.0382.036-.0851.0613-.1361.0734-.1885.0586-.0289 0-.0289 0 .1582.0648.3328.0785.4992.0391.1664-.0393.3163-.1298.4287-.2586z" fill="#fff"/><path d="m16.3714 12.8868c-.1685.1099-.355.1892-.551.2344 0 0 .3045.4393 1.102-.0733 0 0-.406-.0146-.4785-.1025-.0725-.0878-.0725-.0586-.0725-.0586" fill="#fff"/><path d="m16.4439 13.3995c-.0749.1076-.1812.1894-.3045.2342-.174.044-.0435.0147-.0435.0147.1572.0348.3213.0196.4695-.0434s.2729-.1707.357-.308c.174-.2637-.203.0879-.4785.1025z" fill="#fff"/><path d="m16.1683 13.414s-.377.0148-.4205-.1611c-.1377.0759-.2922.1163-.4495.1173-.174-.0293-.029 0-.029 0-.0368.1002-.109.1835-.203.2342.1518.0733.3203.1051.4883.0922.1681-.0129.3298-.0699.4687-.1654.4351-.3368.145-.1172.145-.1172" fill="#fff"/><path d="m15.3564 12.9015c.1153.0646.2448.0998.377.1025 0 0-.2176.3369-.841.1904-.6235-.1465-.029-.0146-.029-.0146.0765-.0476.145-.1069.203-.1758.0788-.0192.1564-.0437.232-.0733z" fill="#fff"/><path d="m15.3564 12.5207s.0435.1026.2176.0733c-.1161.1198-.2615.2072-.4217.2534-.1603.0463-.3299.0498-.4919.0103-.6525-.0879-.029-.0148-.029-.0148.1456-.0693.2781-.1634.3915-.2782l.3336-.044" fill="#fff"/><path d="m14.5008 12.9601s.2755.1025.3191.0732c-.1331.1047-.295.166-.4641.1758-.3334.0438-.029 0-.029 0z" fill="#fff"/><path d="m14.7039 13.2677s.2319.1463.3479.1172c0 0-.029.366-1.0294.2195-1.0006-.1464-.029-.0146-.029-.0146.208-.0813.4113-.1742.609-.2782.1015-.0732.1015-.0439.1015-.0439" fill="#fff"/><path d="m15.487 12.1399s.0435.2783-.5945.3369c-.6382.0586-.0292 0-.0292 0l.116-.2049h-1.276s-.2465-.0588-.29-.132z" fill="#fff"/><path d="m14.2978 12.55h.3626s.0234.0899-.145.1465z" fill="#fff"/><path d="m13.4858 14.5125c.3469-.1572.6772-.3486.986-.5713 0 0 .696-.4686.9281-.0731.2319.3954-1.0876.703-1.0876.703l-.8264-.0586" fill="#fff"/><path d="m13.4858 14.6736c.2951.0672.6002.0771.899.0293-.1926.1449-.4132.2483-.6478.3038-.2346.0554-.4781.0617-.7153.0184-.7395-.1758 0-.0294 0-.0294.1337-.0645.2601-.143.3771-.2343.1594-.1317.087-.0878.087-.0878" fill="#fff"/><path d="m13.3408 15.2301s.493-.2343.2464.1464z" fill="#fff"/><path d="m13.9063 15.2741s.551-.3809.3335.1024c0 0-.1304-.1464-.2174-.0878-.0871.0586-.029 0-.029 0l-.087-.0146" fill="#fff"/><path d="m14.5153 15.2887s.4785-.249.348.1172c-.0257-.0359-.0614-.0635-.1027-.0791-.0413-.0157-.0863-.0187-.1293-.0088z" fill="#fff"/><path d="m16.1103 14.4978c.3907-.2091.7641-.4491 1.1167-.7176 0 0 .464-.4832.754-.1611.2899.3222-.667.7762-.8411.8348-.3416.0406-.6858.0553-1.0296.044" fill="#fff"/><path d="m16.0524 14.615c.3482.0807.7103.0807 1.0585 0-.2101.2105-.4758.3567-.766.4215-.2902.0649-.5929.0456-.8726-.0554.1716-.0701.3327-.1638.4786-.2782.1305-.1318.1015-.0879.1015-.0879" fill="#fff"/><path d="m15.8784 15.2155s.493-.2344.2465.1463z" fill="#fff"/><path d="m16.4874 15.2594s.551-.3808.3335.1024c0 0-.1304-.1463-.2175-.0877-.087.0585-.0291 0-.0291 0z" fill="#fff"/><path d="m17.0529 15.2741s.5945-.3076.3481.117c-.0257-.036-.0614-.0635-.1027-.0791s-.0863-.0187-.1293-.0088l-.116-.0292" fill="#fff"/><path d="m16.8313 10.9667c.4767-.2868.9165-.6311 1.3092-1.02522.2897-.29175.6396-.51658 1.0254-.65871.3857-.14214.7979-.19812 1.2076-.16403h3.5382s.087.16369-.4351.31019h-3.7556s-.2464-.13183-1.0585.4393l3.8281.01464s-.1595.26533-.7395.29473l-3.3932-.0018-.6235.454s2.9292-.015 3.493-.0006c-.2173.1499-.474.2323-.7379.2368h-3.0162c-.1299.0685-.2704.1145-.4156.1362-.0773.0079-.1553-.0043-.2265-.0355" fill="#fff"/><path d="m21.3888 16.4712c.1277-.0004.2525-.0385.3586-.1097.106-.0711.1886-.1721.2374-.2902.0487-.118.0614-.2479.0364-.3731-.025-.1253-.0866-.2403-.1769-.3306s-.2053-.1519-.3306-.1769-.2551-.0123-.3732.0364c-.118.0488-.219.1314-.2902.2374-.0711.1061-.1093.2309-.1096.3586-.0002.0852.0164.1696.0488.2483.0325.0787.0803.1503.1405.2105s.1318.108.2105.1405c.0788.0324.1631.049.2483.0488zm0-.0852c-.1117.0038-.222-.0259-.3168-.0852-.0948-.0592-.1697-.1455-.2152-.2476s-.0595-.2155-.0401-.3256c.0193-.1101.0711-.212.1487-.2925.0775-.0805.1774-.136.2867-.1594s.2231-.0137.3269.028c.1037.0417.1927.1134.2554.2059.0628.0925.0965.2017.0968.3135.0028.0729-.0091.1457-.0351.2139s-.0655.1305-.1162.1831c-.0506.0525-.1114.0943-.1786.1228s-.1395.0432-.2125.0431zm.104-.5339c.128-.0035.2269-.0564.2269-.1979 0-.1194-.0647-.191-.2557-.191h-.3157v.7215h.0887v-.3326h.162l.2065.3326h.1058zm-.2558-.07v-.2559h.2065c.0886 0 .1808.0137.1808.1263 0 .1466-.1501.1296-.2526.1296z" fill="#87d8f7"/></g></svg>