<svg xmlns="http://www.w3.org/2000/svg" width="32" height="32" fill="none"><defs><linearGradient id="lazio__a" x1="11.316" x2="20.091" y1="20.873" y2="20.873" gradientUnits="userSpaceOnUse"><stop stop-color="#D7D7D7"/><stop offset=".4" stop-color="#fff"/><stop offset="1" stop-color="#fff"/></linearGradient><linearGradient id="lazio__b" x1="2.801" x2="29.199" y1="12.434" y2="12.434" gradientUnits="userSpaceOnUse"><stop stop-color="#C59A17"/><stop offset=".5" stop-color="#D7A819"/><stop offset="1" stop-color="#DBAB19"/></linearGradient></defs><path fill="#fff" d="M16 32c8.837 0 16-7.163 16-16S24.837 0 16 0 0 7.163 0 16s7.163 16 16 16Z"/><path fill="#15366F" fill-rule="evenodd" d="M17.55 15.178h2.73v6.015a5.81 5.81 0 0 1-4.513 5.474 6.106 6.106 0 0 1-4.64-5.395v-6.064h2.125l4.299-.03" clip-rule="evenodd"/><path fill="url(#lazio__a)" fill-rule="evenodd" d="M17.474 15.366h2.617v5.767a5.57 5.57 0 0 1-4.327 5.247 5.854 5.854 0 0 1-4.448-5.172v-5.813h2.037l4.121-.029" clip-rule="evenodd"/><path fill="#15366F" fill-rule="evenodd" d="M17.177 18.252h2.177v2.837a4.635 4.635 0 0 1-3.6 4.366 4.87 4.87 0 0 1-3.701-4.303v-2.896h1.695l3.429-.004" clip-rule="evenodd"/><path fill="#87D8F7" fill-rule="evenodd" d="M17.104 18.43h2.07v2.697a4.404 4.404 0 0 1-3.422 4.15 4.63 4.63 0 0 1-3.518-4.09v-2.753h1.61l3.26-.003" clip-rule="evenodd"/><path fill="#15366F" fill-rule="evenodd" d="M14.403 17.68a.136.136 0 0 0 .14-.127l.21-.795a.738.738 0 0 0 .02-.097c0-.03-.01-.049-.025-.056a.339.339 0 0 0-.102-.02v-.045h.546v.046a.312.312 0 0 0-.121.029.163.163 0 0 0-.052.098l-.223.846-.006.026-.002.028c0 .01.002.018.006.026a.045.045 0 0 0 .02.017.164.164 0 0 0 .07.012.694.694 0 0 0 .305-.062.549.549 0 0 0 .228-.233l.04.008-.1.344h-.954v-.045m2.214-.006.86-1.072h-.137a.534.534 0 0 0-.289.086.858.858 0 0 0-.177.174l-.047-.006.127-.316h.82l-.005.052-.857 1.072h.124a.595.595 0 0 0 .554-.29l.046.007-.134.344h-.89l.005-.051m1.053.006a.188.188 0 0 0 .093-.031.182.182 0 0 0 .05-.096l.214-.795a.642.642 0 0 0 .02-.097c0-.03-.01-.049-.026-.056a.355.355 0 0 0-.103-.02v-.045h.522v.045a.201.201 0 0 0-.094.032.188.188 0 0 0-.048.096l-.216.795-.013.061-.004.018v.017c0 .03.007.049.023.057a.34.34 0 0 0 .104.019v.045h-.522v-.045" clip-rule="evenodd"/><path fill="#fff" fill-rule="evenodd" d="M14.541 18.428h2.45v6.32a4.474 4.474 0 0 1-1.246.522 4.693 4.693 0 0 1-1.204-.487v-6.355" clip-rule="evenodd"/><path fill="#15366F" fill-rule="evenodd" d="m11.989 17.751.09-.396.05.004a.76.76 0 0 0 .007.123.254.254 0 0 0 .135.185.26.26 0 0 0 .107.023.217.217 0 0 0 .167-.067.254.254 0 0 0 .07-.158c.005-.074-.06-.168-.196-.281a.434.434 0 0 1-.191-.329.366.366 0 0 1 .11-.242.37.37 0 0 1 .272-.1.512.512 0 0 1 .152.024l.043.014.03.008a.156.156 0 0 0 .026.003.08.08 0 0 0 .048-.013.148.148 0 0 0 .03-.032h.053l-.096.354-.045-.006-.002-.058a.312.312 0 0 0-.04-.14.188.188 0 0 0-.174-.093.173.173 0 0 0-.152.074.21.21 0 0 0-.038.106.179.179 0 0 0 .024.107c.014.02.03.04.05.056l.143.125c.05.044.092.095.126.152a.326.326 0 0 1 .043.193.384.384 0 0 1-.127.253.426.426 0 0 1-.307.112.49.49 0 0 1-.189-.035l-.043-.017a.221.221 0 0 0-.03-.01l-.02-.003a.056.056 0 0 0-.042.015.223.223 0 0 0-.031.05h-.053m.847-.223a.135.135 0 0 1 .143-.029.114.114 0 0 1 .04.03.117.117 0 0 1 .032.09.137.137 0 0 1-.045.094.132.132 0 0 1-.142.029.117.117 0 0 1-.066-.072.12.12 0 0 1-.006-.05.136.136 0 0 1 .044-.092m.251.222.09-.396.05.004a.76.76 0 0 0 .007.123.256.256 0 0 0 .135.185c.033.016.07.023.107.023a.215.215 0 0 0 .167-.067.254.254 0 0 0 .07-.158c.005-.074-.06-.168-.196-.281a.434.434 0 0 1-.191-.329.361.361 0 0 1 .381-.342.498.498 0 0 1 .152.024l.044.015.03.007a.166.166 0 0 0 .026.003.08.08 0 0 0 .048-.013.146.146 0 0 0 .03-.032h.053l-.096.354-.045-.006-.002-.058a.309.309 0 0 0-.041-.14.187.187 0 0 0-.173-.093.173.173 0 0 0-.152.074.21.21 0 0 0-.038.106.176.176 0 0 0 .024.107c.014.021.03.04.05.056l.142.125c.05.044.093.095.127.152a.327.327 0 0 1 .043.193.383.383 0 0 1-.127.253.423.423 0 0 1-.307.112.498.498 0 0 1-.189-.035l-.043-.017a.197.197 0 0 0-.03-.01l-.02-.003a.058.058 0 0 0-.042.015.225.225 0 0 0-.031.05h-.053m.903-.223a.134.134 0 0 1 .143-.029.114.114 0 0 1 .04.03.114.114 0 0 1 .032.09.138.138 0 0 1-.044.094.133.133 0 0 1-.143.029.118.118 0 0 1-.066-.072.12.12 0 0 1-.005-.05.136.136 0 0 1 .044-.092m4.637-.749a.668.668 0 0 1 .514-.271.435.435 0 0 1 .311.115.408.408 0 0 1 .122.312.838.838 0 0 1-.215.544.675.675 0 0 1-.528.276.418.418 0 0 1-.306-.115.413.413 0 0 1-.117-.31.844.844 0 0 1 .219-.55Zm.054.808a.152.152 0 0 0 .152.106c.07 0 .138-.028.19-.077a.871.871 0 0 0 .174-.296 1.632 1.632 0 0 0 .123-.536.261.261 0 0 0-.044-.152.154.154 0 0 0-.136-.064c-.145 0-.268.13-.367.392a1.454 1.454 0 0 0-.113.495.358.358 0 0 0 .021.132m-2.501-.289-.005-.431-.32.43h.325Zm-.781.396a.28.28 0 0 0 .076-.032.408.408 0 0 0 .09-.094l.795-1.041h.045l.028 1.013a.237.237 0 0 0 .024.125c.03.02.065.03.101.029l-.006.042h-.532l.006-.042a.29.29 0 0 0 .11-.025.097.097 0 0 0 .042-.077 9.419 9.419 0 0 0 .005-.224h-.378l-.128.18a.356.356 0 0 0-.024.04.132.132 0 0 0-.014.04c-.003.025.002.04.015.047.029.01.059.017.09.019l-.006.042h-.345l.006-.042" clip-rule="evenodd"/><path fill="url(#lazio__b)" fill-rule="evenodd" d="m13.162 15.24-.092-.053a.712.712 0 0 1-.406-.234c.25-.076.483-.201.685-.367 0 0-.167-.053-.198-.137 0 0 .52-.157.571-.262 0 0-1.09-.22-1.278-.63 0 0-.592-.011-.8-.39-.208-.377-.02-.02-.02-.02a.572.572 0 0 1-.614-.305.805.805 0 0 1-.623-.315 1.7 1.7 0 0 1-.914-.4 2.501 2.501 0 0 1-1.216-.536c-.384-.41 0-.02 0-.02a1.287 1.287 0 0 1-.873-.4 1.776 1.776 0 0 1-1.184-.579 2.438 2.438 0 0 1-1.424-.725A3.482 3.482 0 0 1 3.28 9.3c-.56-.451-.474-.41-.474-.41l8.842.008a3.714 3.714 0 0 1 2.893 1.254 1.84 1.84 0 0 0 2.881.154A3.77 3.77 0 0 1 20.51 8.91l8.69.008a4.072 4.072 0 0 1-2.051 1 2.63 2.63 0 0 1-1.463.731 2.101 2.101 0 0 1-1.313.628 1.34 1.34 0 0 1-.922.453 1.111 1.111 0 0 1-.944.419c-.692.01-.023.011-.023.011a1.414 1.414 0 0 1-1.083.582c-.76.057-.023 0-.023 0-.19.178-.433.288-.691.313-.53.105-.035 0-.035 0s-.092.292-.691.35c-.6.057-.047.01-.047.01s-.068.175-.403.222a2.55 2.55 0 0 1-1.428.685s-.05.258-.545.618a.895.895 0 0 1 .142.392v-.008s.044-.167-.015.1c-.06.268-.581.502-.581.502.324-.555-.034-.609-.034-.609.08.321-.588.575-.588.575.317-.435-.027-.602-.027-.602.1.435-.636.555-.636.555.39-.482-.113-.624-.113-.624h-.47c.04.595-.688.743-.688.743.384-.548-.007-.622-.007-.622.086.401-.53.608-.53.608.305-.595-.112-.662-.112-.662.172.468-.794.762-.655.675.139-.087.244-.468.244-.468.106-.14-.305-.255-.305-.255" clip-rule="evenodd"/><path fill="#fff" fill-rule="evenodd" d="M7.611 9.106c.128.193.314.34.531.42H5.07s-1.343.021-1.707-.42H7.61Zm1.56.82c.132.185.318.326.531.404H6.914s-1.344.038-1.708-.404H9.17Zm1.333.715c.143.165.326.29.531.362H8.247s-1.313.038-1.708-.362h3.965m.908.558c.166.11.345.2.531.269H9.496a4.038 4.038 0 0 1-1.708-.27h3.624m.979.516c.132.102.28.179.44.227h-2.356a3.85 3.85 0 0 1-1.708-.227h3.624m.783.431s.005.07.39.227h-2.13a3.851 3.851 0 0 1-1.709-.227h3.45m.949.431s-.163.02.223.177H12.35a6.144 6.144 0 0 1-1.675-.177h3.449m.192.349s.158-.065-.119.177h-1.19a6.14 6.14 0 0 1-1.674-.177h2.983m-.238.368s.159-.098-.118.144h-.307a5.724 5.724 0 0 1-1.674-.143h2.1m-.284.281s.158-.098-.118.144h-.307a1.632 1.632 0 0 1-.816-.144h1.241Zm10.561-4.469c-.128.193-.314.34-.53.42h3.071s1.344.021 1.708-.42h-4.249Zm-1.56.82a1.128 1.128 0 0 1-.53.404h2.788s1.344.038 1.708-.404h-3.966Zm-1.333.715c-.142.165-.325.29-.53.362h2.788s1.312.038 1.708-.362h-3.966Zm-.908.558s.11.037.11.244h1.806a3.924 3.924 0 0 0 1.708-.244h-3.624m-2.052 1.849s.014-.103-.102.132l.436.008a5.726 5.726 0 0 0 1.674-.143l-2.008.003m-.276.586s-.213-.098.064.143h.306c.28.024.562-.026.817-.143h-1.187" clip-rule="evenodd"/><path fill="#fff" fill-rule="evenodd" d="M16.14 11.07h3.712s.536-.043.594.41c0 0 .044.103-.102.118-.145.015-1.507 0-1.507 0l-.131.161h1.015a.14.14 0 0 1 .154.096.143.143 0 0 1 .006.065l.638-.278h.638s.74-.059.652.776a.6.6 0 0 0-.638-.366h-1.479l-.13.161 1.667.015s.363.029.45.293h-2.292s-.116-.147-.42-.03c-.304.118-.029 0-.029 0s-.725.469-1.073.41c-.348-.058-.435-.248-.247-.439 0 0-.826.088-.203-.351 0 0-.45-.161.334-.542h-.798a1.145 1.145 0 0 1-.74-.352c-.217-.307-.072-.146-.072-.146" clip-rule="evenodd"/><path fill="#fff" fill-rule="evenodd" d="M19.006 12.708s-.039-.04-.285.143h.71s1.421.11 1.674-.143h-2.1m2.81-1.022s-.035-.03.119.236h.68c.23-.025.451-.106.643-.236h-1.442ZM18.3 13.304s.015-.103-.102.131l.058.008c.562.064 1.13.018 1.675-.135l-1.63-.004m3.711-1.164-.015.176s.32-.088.276-.176h-.26M8.541 9.416s-.464-.064-.565-.31h4.045a3.613 3.613 0 0 1 2.262 1.057c.972 1.01 1.19.893 1.639.937l.203.322a1.08 1.08 0 0 1-.638-.117h-3.205s-.42 0-.522-.16h3.379a1.596 1.596 0 0 1-.45-.28h-3.074s-.638.03-.74-.219h3.466a1.175 1.175 0 0 0-.55-.498H9.976s-.363-.014-.479-.234h4.06a2.534 2.534 0 0 0-.971-.498H8.54m4.54 2.431a.946.946 0 0 1-.363-.161h3.045c.166-.1.36-.14.551-.117 0 0 .203.131.29.102a1.54 1.54 0 0 1-1.203.352.255.255 0 0 1 .145-.19l-2.465.014m3.697-.147h.479s-.015.279-.696.25l.218-.25m.318.337a.902.902 0 0 1-.42.103.947.947 0 0 1-.348.293.77.77 0 0 0 .855-.308l-.087-.088m-.725-.044c-.18.088-.379.133-.58.132-.072.132-.17.246-.29.337a1.017 1.017 0 0 0 1.016-.366l-.145-.103m.666.454a1.466 1.466 0 0 1-.333.118c-.16.029-.029.014-.029.014a.332.332 0 0 1-.203.22.61.61 0 0 0 .783-.146s-.203-.088-.203-.162c0-.073-.015-.043-.015-.043m-.841.087a1.708 1.708 0 0 1-.42.088.299.299 0 0 1-.218.205c-.188.059-.028 0-.028 0a.82.82 0 0 0 .927-.22l-.26-.073Zm.174.352c-.168.11-.355.189-.55.234 0 0 .304.44 1.101-.073 0 0-.406-.015-.478-.103-.073-.087-.073-.058-.073-.058m.073.513a.635.635 0 0 1-.305.234c-.174.044-.043.014-.043.014a.773.773 0 0 0 .826-.351c.174-.264-.203.088-.478.102Z" clip-rule="evenodd"/><path fill="#fff" fill-rule="evenodd" d="M16.168 13.414s-.377.015-.42-.161a.944.944 0 0 1-.45.117c-.174-.03-.029 0-.029 0a.437.437 0 0 1-.203.234.955.955 0 0 0 .957-.073c.435-.337.145-.117.145-.117m-.812-.512c.116.064.245.1.377.102 0 0-.217.337-.84.19-.624-.146-.03-.014-.03-.014a.857.857 0 0 0 .203-.176c.08-.02.157-.044.232-.073l.058-.03m0-.381s.044.103.218.074a.956.956 0 0 1-.914.264c-.652-.088-.029-.015-.029-.015a1.39 1.39 0 0 0 .392-.278l.334-.044" clip-rule="evenodd"/><path fill="#fff" fill-rule="evenodd" d="M14.5 12.96s.276.103.32.073a.828.828 0 0 1-.464.176c-.334.044-.03 0-.03 0l.175-.249m.203.308s.232.146.348.117c0 0-.03.366-1.03.22-1-.147-.029-.015-.029-.015a6 6 0 0 0 .61-.278c.1-.074.1-.044.1-.044m.784-1.128s.043.278-.595.337c-.638.058-.029 0-.029 0l.116-.205h-1.276s-.246-.059-.29-.132h2.074m-1.189.41h.362s.024.09-.145.146l-.217-.146m-.812 1.962c.347-.157.677-.348.986-.57 0 0 .696-.47.928-.074.232.396-1.088.703-1.088.703l-.826-.059m0 .162c.295.067.6.077.899.029a1.746 1.746 0 0 1-1.363.322c-.74-.176 0-.03 0-.03.133-.064.26-.142.377-.234.16-.131.087-.087.087-.087m-.146.556s.494-.234.247.146l-.246-.146Zm.566.044s.551-.38.334.103c0 0-.13-.147-.218-.088-.087.058-.029 0-.029 0l-.087-.015m.609.015s.479-.25.348.117a.224.224 0 0 0-.232-.088l-.116-.03Zm1.595-.791a8.49 8.49 0 0 0 1.117-.718s.464-.483.754-.16c.29.321-.667.775-.841.834a6.95 6.95 0 0 1-1.03.044m-.058.117c.349.08.71.08 1.059 0a1.564 1.564 0 0 1-1.639.366 2.01 2.01 0 0 0 .479-.278c.13-.132.101-.088.101-.088" clip-rule="evenodd"/><path fill="#fff" fill-rule="evenodd" d="M15.878 15.216s.493-.235.247.146l-.247-.146m.609.044s.551-.381.334.102c0 0-.13-.146-.218-.088-.087.059-.029 0-.029 0l-.087-.015Zm.566.014s.594-.307.348.117a.223.223 0 0 0-.232-.088l-.116-.029m-.222-4.307a6.789 6.789 0 0 0 1.31-1.026 2.818 2.818 0 0 1 2.233-.822h3.538s.087.163-.435.31H19.72s-.246-.132-1.058.44l3.828.014s-.16.265-.74.295l-3.393-.002-.624.454s2.93-.015 3.493 0a1.34 1.34 0 0 1-.738.236h-3.016c-.13.069-.27.114-.415.136a.45.45 0 0 1-.227-.035" clip-rule="evenodd"/><path fill="#87D8F7" fill-rule="evenodd" d="M21.389 16.471a.647.647 0 1 0-.004-1.294.647.647 0 0 0 .004 1.294Zm0-.085a.561.561 0 1 1 .542-.563.542.542 0 0 1-.542.563Zm.104-.534c.128-.003.227-.056.227-.198 0-.12-.065-.19-.256-.19h-.316v.72h.089v-.332h.162l.206.333h.106l-.218-.333Zm-.256-.07v-.256h.207c.088 0 .18.014.18.127 0 .146-.15.13-.252.13h-.135" clip-rule="evenodd"/></svg>