<svg xmlns="http://www.w3.org/2000/svg" width="32" height="32" fill="none"><defs><linearGradient id="lina__a" x1="12.321" x2="20.93" y1="12.314" y2="20.922" gradientUnits="userSpaceOnUse"><stop stop-color="#7EB5FF"/><stop offset="1" stop-color="#1A38F8"/></linearGradient></defs><path fill="#fff" d="M16 32c8.837 0 16-7.163 16-16S24.837 0 16 0 0 7.163 0 16s7.163 16 16 16Z"/><path fill="url(#lina__a)" d="M14.853 27c-.918-.723-1.375-1.471-1.372-2.245.004-.775.248-1.415.73-1.92l10.412-10.412c.714.61 1.14 1.305 1.279 2.088.138.782-.084 1.483-.666 2.105L14.853 27Zm-3.712-3.711c-.918-.723-1.375-1.472-1.371-2.246.004-.775.247-1.415.73-1.919L20.911 8.712c.713.61 1.14 1.305 1.278 2.087.139.782-.083 1.484-.665 2.106L11.14 23.289ZM7.43 19.577c-.919-.723-1.376-1.472-1.372-2.246.004-.774.247-1.414.73-1.919L17.2 5c.714.61 1.14 1.305 1.279 2.087.138.783-.084 1.484-.666 2.106L7.43 19.577Z"/></svg>