<svg fill="none" height="32" viewBox="0 0 32 32" width="32" xmlns="http://www.w3.org/2000/svg" xmlns:xlink="http://www.w3.org/1999/xlink"><linearGradient id="a" gradientUnits="userSpaceOnUse" x1="12.3214" x2="20.9302" y1="12.3136" y2="20.9224"><stop offset="0" stop-color="#7eb5ff"/><stop offset=".99968" stop-color="#1a38f8"/></linearGradient><path d="m16 32c8.8366 0 16-7.1634 16-16 0-8.83656-7.1634-16-16-16-8.83656 0-16 7.16344-16 16 0 8.8366 7.16344 16 16 16z" fill="#fff"/><path d="m14.8526 27c-.918-.7225-1.3748-1.4711-1.3714-2.2454.0037-.7748.2473-1.4146.7298-1.9192l10.4124-10.4123c.7138.6099 1.1397 1.3053 1.2786 2.0877.1382.7818-.0836 1.4836-.6656 2.1055zm-3.7115-3.7114c-.9184-.7229-1.37488-1.4711-1.37151-2.2455.00391-.7749.24731-1.4146.72981-1.9191l10.4125-10.4125c.7133.60956 1.1397 1.3053 1.2782 2.0875.1386.782-.0832 1.484-.6653 2.1057zm-3.71158-3.7116c-.91834-.7229-1.37521-1.4715-1.37139-2.2455.00382-.7747.24733-1.4145.72979-1.9191l10.41238-10.4124c.7135.60955 1.1397 1.30536 1.2783 2.08745.1385.78207-.0832 1.48398-.6652 2.10581z" fill="url(#a)"/></svg>