<svg fill="none" height="32" viewBox="0 0 32 32" width="32" xmlns="http://www.w3.org/2000/svg" xmlns:xlink="http://www.w3.org/1999/xlink"><linearGradient id="a" gradientUnits="userSpaceOnUse" x1="2.63682" x2="15.6276" y1="17.172" y2="2.58587"><stop offset=".2287" stop-color="#2ae38d"/><stop offset=".2856" stop-color="#1ed27b"/></linearGradient><linearGradient id="b" gradientUnits="userSpaceOnUse" x1="7.21267" x2="20.2054" y1="21.258" y2="6.66972"><stop offset=".3741" stop-color="#2ae38d"/><stop offset=".4877" stop-color="#1ed27b"/></linearGradient><linearGradient id="c" gradientUnits="userSpaceOnUse" x1="11.6945" x2="24.6981" y1="25.337" y2="10.7365"><stop offset=".5512" stop-color="#2ae38d"/><stop offset=".6162" stop-color="#1ed27b"/></linearGradient><linearGradient id="d" gradientUnits="userSpaceOnUse" x1="16.2086" x2="29.1855" y1="29.5076" y2="14.9371"><stop offset=".7235" stop-color="#2ae38d"/><stop offset=".7979" stop-color="#1ed27b"/></linearGradient><path d="m.384033 15.2512 2.015997-2.1696c.2624-.2816.64-.4352 1.0304-.4096l1.8304.1088c.6656.0384 1.3184-.224 1.7728-.7104l8.94077-9.66401 2.1184 1.8624-8.10877 8.75521c-.3456.3776-.8256.5888-1.3248.6016-.2432.0064-.48-.0448-.704-.1344l-.3968-.16c-.7424-.2944-1.5872-.096-2.1248.4992l-2.9824 3.3088z" fill="url(#a)"/><path d="m4.95361 19.3344 4.2048-4.4608c.2624-.2816.64-.4352 1.03039-.4096l1.8304.1088c.6656.0384 1.3184-.224 1.7728-.7104l6.7648-7.36 2.1184 1.8624-5.9328 6.4576c-.3456.3776-.8256.5888-1.3248.6016-.2432.0064-.48-.0448-.704-.1344l-.3968-.16c-.7424-.2944-1.5872-.096-2.1248.4992l-5.17119 5.6z" fill="url(#b)"/><path d="m9.41455 23.392 6.18235-6.7264c.2624-.2816.64-.4352 1.0304-.4096l1.8304.1088c.6656.0384 1.3185-.224 1.7729-.7104l4.8384-5.0688 2.1183 1.8624-4.0128 4.16c-.3456.3776-.8256.5888-1.3248.6016-.2432.0064-.48-.0448-.704-.1344l-.3967-.16c-.7424-.2944-1.5873-.096-2.1249.4992l-7.1487 7.8656z" fill="url(#c)"/><path d="m13.9265 27.5648 8.416-9.1072c.2624-.2816.64-.4352 1.0304-.4096l1.8304.1088c.6656.0384 1.3184-.224 1.7728-.7104l2.5792-2.656 2.1184 1.8624-1.7472 1.7536c-.3456.3776-.8256.5888-1.3248.6016-.2432.0064-.48-.0448-.704-.1344l-.3968-.16c-.7424-.2944-1.5872-.096-2.1248.4992l-9.3824 10.24z" fill="url(#d)"/></svg>