<svg xmlns="http://www.w3.org/2000/svg" width="32" height="32" fill="none"><defs><linearGradient id="lit__a" x1="2.637" x2="15.628" y1="17.172" y2="2.586" gradientUnits="userSpaceOnUse"><stop offset=".229" stop-color="#2AE38D"/><stop offset=".286" stop-color="#1ED27B"/></linearGradient><linearGradient id="lit__b" x1="7.213" x2="20.205" y1="21.258" y2="6.67" gradientUnits="userSpaceOnUse"><stop offset=".374" stop-color="#2AE38D"/><stop offset=".488" stop-color="#1ED27B"/></linearGradient><linearGradient id="lit__c" x1="11.694" x2="24.698" y1="25.337" y2="10.736" gradientUnits="userSpaceOnUse"><stop offset=".551" stop-color="#2AE38D"/><stop offset=".616" stop-color="#1ED27B"/></linearGradient><linearGradient id="lit__d" x1="16.209" x2="29.186" y1="29.508" y2="14.937" gradientUnits="userSpaceOnUse"><stop offset=".724" stop-color="#2AE38D"/><stop offset=".798" stop-color="#1ED27B"/></linearGradient></defs><path fill="url(#lit__a)" d="m.384 15.251 2.016-2.17c.262-.281.64-.435 1.03-.409l1.83.109a2.255 2.255 0 0 0 1.774-.71l8.94-9.665 2.119 1.863-8.109 8.755a1.858 1.858 0 0 1-1.325.602 1.767 1.767 0 0 1-.704-.135l-.397-.16a1.91 1.91 0 0 0-2.124.5L2.45 17.138.384 15.251Z"/><path fill="url(#lit__b)" d="m4.954 19.334 4.204-4.46c.263-.282.64-.436 1.03-.41l1.831.109a2.255 2.255 0 0 0 1.773-.71l6.765-7.36 2.118 1.862-5.933 6.457a1.858 1.858 0 0 1-1.324.602 1.767 1.767 0 0 1-.704-.134l-.397-.16a1.91 1.91 0 0 0-2.125.499l-5.171 5.6-2.067-1.895Z"/><path fill="url(#lit__c)" d="m9.415 23.392 6.182-6.726a1.29 1.29 0 0 1 1.03-.41l1.83.109a2.256 2.256 0 0 0 1.774-.71l4.838-5.07 2.118 1.863-4.013 4.16a1.858 1.858 0 0 1-1.324.602 1.767 1.767 0 0 1-.704-.135l-.397-.16a1.91 1.91 0 0 0-2.125.5l-7.149 7.865-2.06-1.888Z"/><path fill="url(#lit__d)" d="m13.927 27.565 8.416-9.107a1.29 1.29 0 0 1 1.03-.41l1.83.109a2.255 2.255 0 0 0 1.773-.71l2.58-2.657 2.118 1.863-1.747 1.753a1.858 1.858 0 0 1-1.325.602 1.767 1.767 0 0 1-.704-.134l-.397-.16a1.91 1.91 0 0 0-2.125.499l-9.382 10.24-2.067-1.888Z"/></svg>