<svg fill="none" height="32" viewBox="0 0 32 32" width="32" xmlns="http://www.w3.org/2000/svg"><path d="m16 32c8.8366 0 16-7.1634 16-16 0-8.83656-7.1634-16-16-16-8.83656 0-16 7.16344-16 16 0 8.8366 7.16344 16 16 16z" fill="#fff"/><path d="m16.5942 3c.2394.13073.4499.30851.6188.52265 3.7236 3.72533 7.4481 7.45005 11.1734 11.17425.2308.1906.4295.4169.5886.6705-.3268-.1367-.6401-.3036-.9358-.4986-1.4665-.8477-2.9294-1.7015-4.3958-2.5483-.6274-.3387-1.2348-.7133-1.8191-1.1219-.601-.4709-1.1079-1.0508-1.494-1.70951-1.1281-1.93212-2.2521-3.86692-3.3719-5.80439-.1462-.21417-.2683-.44379-.3642-.6847z" fill="#0038d5"/><path d="m17.701 19.5993c.2955-.0913.5957-.1665.8993-.2252-.7969 3.0727-1.6276 6.1365-2.4271 9.2083-.0349.1211-.0783.2395-.13.3544-.1198-.0308-.2313-.0875-.3267-.1661s-.1723-.1773-.2253-.2889c-1.2519-2.0096-2.5068-4.0174-3.7646-6.0235-.1016-.1462-.1564-.3199-.157-.498-.0007-.1781.0529-.3522.1535-.4992.1504-.1907.3632-.3225.601-.3722 1.7941-.4905 3.5846-.9936 5.3769-1.4896z" fill="#0038d5"/><path d="m16.1473 3.08191c.1006.04362.1451.15225.2048.23595 1.3142 2.274 2.6325 4.54536 3.955 6.81404.0749.1109.1121.2429.1064.3766-.0058.1337-.0543.262-.1384.366-.1513.1374-.3389.2283-.5405.2618-2.1173.5289-4.2204 1.1201-6.3413 1.6356.1095-.6366.3384-1.2447.4942-1.8707.6375-2.3025 1.2768-4.60502 1.9179-6.90755.0494-.32437.1658-.63488.3419-.91174z" fill="#70a8ff"/><path d="m14.5483 3.72209c.1827-.21437.3922-.40439.6233-.56539.2466-.06322.2484.23417.1843.39087-.5583 1.99446-1.1085 3.99158-1.6659 5.986-.3285 1.13253-.5992 2.28383-.9678 3.40213-1.2742.3891-2.5795.6856-3.86604 1.0346-1.7861.471-3.57577.9314-5.361 1.4077-.15094.0379-.30408.0665-.45854.0855.00979-.3321.31074-.5262.51464-.7461 3.66835-3.663 7.33404-7.32813 10.99704-10.99531z" fill="#549aff"/><path d="m3.3855 17.1214c.27155.116.53002.2604.77107.431 1.36852.8592 2.7424 1.7104 4.11178 2.5696 1.42293.8913 2.62995 2.0878 3.53395 3.5028.8147 1.2946 1.6205 2.5945 2.4334 3.89.2459.3655.47.7452.6713 1.137-.2286-.1634-.4385-.3515-.6259-.5609-3.4565-3.4591-6.91471-6.9165-10.37472-10.372-.1995-.175-.37468-.376-.52088-.5975z" fill="#549aff"/><path d="m19.7302 11.4844c.0979-.0393.2034-.0556.3086-.0476.1051.0081.207.0402.2978.0939.0977.0891.1657.2061.1945.3352.0289.129.0172.2638-.0334.386-.5903 2.1494-1.121 4.3175-1.7309 6.4597-.313.113-.6323.2078-.9562.284-1.7675.4897-3.5346.9812-5.3014 1.4745-.1459.0656-.3042.0993-.4642.0989-.16-.0005-.318-.0351-.4635-.1016-.0931-.0909-.1571-.2073-.1842-.3345s-.016-.2596.0319-.3805c.5787-2.095 1.1682-4.1874 1.7398-6.2852.0251-.0892.0561-.1766.0926-.2617.1268-.0604.26-.1064.3971-.1372 2.0256-.5217 4.0468-1.0603 6.0715-1.5839z" fill="#106cff"/><path d="m21.1601 11.8504c.1469-.0995.3204-.1527.4979-.1525.1774.0002.3508.0536.4975.1534 2.0274 1.1797 4.056 2.3565 6.0858 3.5303.2387.1067.4569.2544.6446.4363-.1153.1152-.2627.1928-.4229.2226-2.7869.7675-5.5702 1.5475-8.3562 2.3159-.2978.1063-.6062.18-.9198.2199.4888-1.9748 1.0409-3.9364 1.5493-5.9077.0404-.3141.1905-.6039.4238-.8182z" fill="#2c50ff"/><path d="m11.4007 13.665c.3881-.1277.7872-.2192 1.1922-.2733-.0532.3268-.133.6487-.2386.9625-.4861 1.7656-.9821 3.5277-1.4673 5.2933-.0245.1309-.0755.2554-.1499.3658s-.1707.2044-.2829.2762c-.1491.082-.3185.1202-.4884.1103-.16995-.0099-.33365-.0676-.47229-.1664-2.01047-1.2537-4.01561-2.5171-6.03143-3.7637-.19232-.1326-.43006-.2929-.43718-.552.06144-.1193.22082-.1086.32944-.1549 2.68363-.6937 5.36098-1.4095 8.04636-2.0978z" fill="#3679ff"/><path d="m28.2816 16.6558c.1606-.0645.3372-.0778.5057-.0383.0828.1594-.0214.3018-.1336.4104-3.712 3.7067-7.4219 7.416-11.1297 11.128-.3348.3117-.6215.731-1.0916.8441.772-3.0798 1.6249-6.1409 2.4191-9.2154.041-.1859.0988-.3677.1728-.5432 3.078-.8841 6.1757-1.7086 9.2573-2.5856z" fill="#0025b1"/></svg>