<svg xmlns="http://www.w3.org/2000/svg" width="32" height="32" fill="none"><path fill="#fff" d="M16 32c8.837 0 16-7.163 16-16S24.837 0 16 0 0 7.163 0 16s7.163 16 16 16Z"/><path fill="#0038D5" d="M16.594 3c.24.13.45.309.619.523l11.173 11.174c.231.19.43.417.589.67a5.684 5.684 0 0 1-.936-.498c-1.466-.848-2.93-1.702-4.396-2.549a18.557 18.557 0 0 1-1.819-1.121 6.074 6.074 0 0 1-1.494-1.71 1522.691 1522.691 0 0 1-3.372-5.804A3.53 3.53 0 0 1 16.594 3Zm1.107 16.6a8.46 8.46 0 0 1 .9-.226c-.798 3.073-1.628 6.137-2.428 9.208-.035.121-.078.24-.13.355a.844.844 0 0 1-.552-.455 2452.29 2452.29 0 0 0-3.764-6.024.878.878 0 0 1-.004-.997c.15-.19.363-.322.601-.372 1.794-.49 3.585-.994 5.377-1.49Z"/><path fill="#70A8FF" d="M16.147 3.082c.1.044.145.152.205.236 1.314 2.274 2.633 4.545 3.955 6.814a.625.625 0 0 1-.032.742 1.063 1.063 0 0 1-.54.262c-2.118.53-4.22 1.12-6.342 1.636.11-.637.339-1.245.494-1.87.638-2.303 1.277-4.606 1.918-6.908a2.37 2.37 0 0 1 .342-.912Z"/><path fill="#549AFF" d="M14.548 3.722a3.29 3.29 0 0 1 .624-.565c.246-.064.248.234.184.39-.558 1.995-1.109 3.992-1.666 5.987-.329 1.132-.6 2.283-.968 3.402-1.274.389-2.58.685-3.866 1.034-1.786.471-3.576.932-5.36 1.408a3.797 3.797 0 0 1-.46.085c.01-.332.311-.526.515-.746C7.22 11.054 10.885 7.39 14.548 3.722ZM3.385 17.121c.272.116.53.26.772.431 1.368.86 2.742 1.71 4.111 2.57a11.332 11.332 0 0 1 3.534 3.503c.815 1.294 1.62 2.594 2.434 3.89.246.365.47.745.671 1.137a3.824 3.824 0 0 1-.626-.561c-3.456-3.46-6.915-6.917-10.375-10.372a2.974 2.974 0 0 1-.52-.598Z"/><path fill="#106CFF" d="M19.73 11.484a.688.688 0 0 1 .607.047.643.643 0 0 1 .16.72c-.59 2.15-1.12 4.318-1.73 6.46a8.649 8.649 0 0 1-.956.285c-1.768.49-3.535.98-5.302 1.474a1.125 1.125 0 0 1-.928-.003.66.66 0 0 1-.152-.715c.579-2.095 1.168-4.187 1.74-6.285.025-.089.056-.176.093-.261.126-.06.26-.107.397-.138 2.025-.521 4.046-1.06 6.071-1.584Z"/><path fill="#2C50FF" d="M21.16 11.85a.886.886 0 0 1 .995.001 2615.83 2615.83 0 0 0 6.086 3.53c.239.107.457.255.645.437a.807.807 0 0 1-.423.223c-2.787.767-5.57 1.547-8.356 2.315a4.38 4.38 0 0 1-.92.22c.489-1.974 1.04-3.936 1.55-5.907.04-.315.19-.604.423-.819Z"/><path fill="#3679FF" d="M11.4 13.665c.389-.128.788-.22 1.193-.273a6.081 6.081 0 0 1-.239.962c-.486 1.766-.982 3.528-1.467 5.294a.976.976 0 0 1-.433.642.905.905 0 0 1-.96-.057c-2.011-1.253-4.016-2.517-6.032-3.763-.192-.133-.43-.293-.437-.552.061-.12.22-.109.33-.155 2.683-.694 5.36-1.41 8.046-2.098Z"/><path fill="#0025B1" d="M28.282 16.656a.842.842 0 0 1 .505-.038c.083.159-.021.301-.133.41-3.712 3.707-7.422 7.416-11.13 11.128-.335.312-.622.73-1.092.844.772-3.08 1.625-6.14 2.42-9.215.04-.186.098-.368.172-.544 3.078-.884 6.176-1.708 9.258-2.585Z"/></svg>