<svg xmlns="http://www.w3.org/2000/svg" width="32" height="32" fill="none"><path fill="#fff" d="M16 32c8.837 0 16-7.163 16-16S24.837 0 16 0 0 7.163 0 16s7.163 16 16 16Z"/><path fill="#4BC0C8" d="M22.212 26.262 5.81 14.755a4.25 4.25 0 0 1 0-6.96L9.784 5l16.403 11.507a4.251 4.251 0 0 1 0 6.96l-3.975 2.795ZM9.782 6.864 6.683 9.031a2.732 2.732 0 0 0 0 4.478l15.531 10.889 3.097-2.167a2.733 2.733 0 0 0 0-4.478L9.782 6.864Z"/><path fill="#02819B" d="m9.768 24.397-3.094-2.17a2.732 2.732 0 0 1 0-4.477l8.003-5.59-1.316-.927-7.551 5.274a4.251 4.251 0 0 0 0 6.96l3.961 2.781 4.902-3.429-1.315-.927-3.59 2.505ZM26.194 7.802 22.229 5.02l-4.906 3.432 1.315.927 3.584-2.509 3.094 2.17a2.733 2.733 0 0 1 0 4.478l-8.002 5.59 1.315.926 7.561-5.283a4.251 4.251 0 0 0 0-6.96l.004.01Z"/></svg>