<svg xmlns="http://www.w3.org/2000/svg" width="32" height="32" fill="none"><defs><linearGradient id="lpt__a" x1="0" x2="32" y1="15.983" y2="15.983" gradientUnits="userSpaceOnUse"><stop stop-color="#00FF94"/><stop offset="1" stop-color="#00A25D"/></linearGradient></defs><path fill="url(#lpt__a)" d="M16 32c8.837 0 16-7.163 16-16S24.837 0 16 0 0 7.163 0 16s7.163 16 16 16Z"/><path fill="#000" fill-rule="evenodd" d="M9.125 20.688v3.125h3.125v-3.125H9.125Zm0-6.25v3.124h3.125v-3.125H9.125Zm12.5 0v3.124h3.125v-3.125h-3.125Zm-12.5-3.126V8.188h3.125v3.124H9.125Zm6.25 3.126v-3.126H18.5v3.126h-3.125Zm0 3.124v3.125H18.5v-3.125h-3.125Z" clip-rule="evenodd"/></svg>