<svg fill="none" height="32" viewBox="0 0 32 32" width="32" xmlns="http://www.w3.org/2000/svg" xmlns:xlink="http://www.w3.org/1999/xlink"><linearGradient id="a" gradientUnits="userSpaceOnUse" x1=".000478" x2="32" y1="15.9826" y2="15.9827"><stop offset="0" stop-color="#00ff94"/><stop offset="1" stop-color="#00a25d"/></linearGradient><path d="m16 32c8.8365 0 16-7.1635 16-16 0-8.83655-7.1635-16-16-16-8.83655 0-16 7.16345-16 16 0 8.8365 7.16345 16 16 16z" fill="url(#a)"/><path clip-rule="evenodd" d="m9.125 20.6875v3.125h3.125v-3.125zm0-6.25v3.125h3.125v-3.125zm12.5 0v3.125h3.125v-3.125zm-12.5-3.125v-3.125h3.125v3.125zm6.25 3.125v-3.125h3.125v3.125zm0 3.125v3.125h3.125v-3.125z" fill="#000" fill-rule="evenodd"/></svg>