<svg fill="none" height="32" viewBox="0 0 32 32" width="32" xmlns="http://www.w3.org/2000/svg"><path d="m16 32c8.8366 0 16-7.1634 16-16 0-8.83656-7.1634-16-16-16-8.83656 0-16 7.16344-16 16 0 8.8366 7.16344 16 16 16z" fill="#fff"/><path d="m14.2491 24.958c-.014.014-.042.028-.056.042h-1.552c-.028 0-.042-.014-.056-.028l-4.57496-5.168c-.00666-.0128-.01014-.0271-.01014-.0415s.00348-.0287.01014-.0415l5.69796-9.835c.028-.041.097-.041.125 0l1.594 2.758c.014.014.014.042 0 .07l-3.854 6.645c-.014.027 0 .055.014.083l2.301 2.591c.0154.0148.035.0246.056.028h2.717c.07 0 .097.07.055.111zm1.69-18.916c.029-.056.098-.056.112 0l7.943 13.65c.014.029 0 .057-.014.084l-4.574 5.168c-.0153.0148-.0349.0246-.056.028h-3.715c-.07 0-.097-.07-.055-.111l2.481-2.814 2.329-2.619c.028-.028.028-.056.014-.083l-4.409-7.606-1.663-2.87c-.014-.013-.014-.041 0-.07z" fill="#4070f5"/></svg>