<svg fill="none" height="32" viewBox="0 0 32 32" width="32" xmlns="http://www.w3.org/2000/svg" xmlns:xlink="http://www.w3.org/1999/xlink"><linearGradient id="a" gradientUnits="userSpaceOnUse" x1="6.14152" x2="26.0491" y1="16.5004" y2="16.5004"><stop offset="0" stop-color="#7cb7ff"/><stop offset="1" stop-color="#ba6df6"/></linearGradient><path d="m16 32c8.8366 0 16-7.1634 16-16 0-8.83656-7.1634-16-16-16-8.83656 0-16 7.16344-16 16 0 8.8366 7.16344 16 16 16z" fill="#fff"/><path d="m18.4174 6.27768-2.2838 2.28379.4637.46363c.1249.12475.2942.19483.4707.19483s.3458-.07008.4707-.19483l2.2838-2.28378-.4636-.46364c-.0617-.06201-.1351-.11121-.2159-.14479-.0808-.03357-.1674-.05086-.2549-.05086-.0874 0-.1741.01729-.2549.05086-.0807.03358-.1541.08278-.2158.14479zm-5.7763 0-.4616.46364 2.2838 2.28378c.1249.12475.2942.19483.4707.19483s.3458-.07008.4707-.19483l.4616-.46363-2.2837-2.28379c-.0617-.06201-.1351-.11121-.2158-.14479-.0808-.03357-.1674-.05086-.2549-.05086s-.1741.01729-.2549.05086c-.0808.03358-.1542.08278-.2159.14479zm7.9285 2.98836-4.3165 4.31446.8746.8747c.236.2351.5557.3671.8888.3671.3332 0 .6528-.132.8889-.3671l4.3164-4.3145-.8746-.87466c-.1166-.11692-.2551-.20968-.4077-.27297-.1525-.0633-.316-.09587-.4811-.09587s-.3286.03257-.4811.09587c-.1526.06329-.2911.15605-.4077.27297zm-10.91683 0-.87262.87466 4.31445 4.3124c.2361.2358.5562.3683.8899.3683s.6537-.1325.8898-.3683l.8726-.8706-4.3145-4.31646c-.1167-.11723-.2553-.21025-.408-.27373s-.3165-.09615-.4818-.09615c-.1654 0-.3291.03267-.4818.09615-.15274.06348-.29139.1565-.40803.27373zm5.87743-.10124-.4636.46567.9334.93133.9334-.93133-.4617-.46567c-.0617-.06201-.135-.11121-.2158-.14479-.0808-.03357-.1674-.05086-.2549-.05086s-.1741.01729-.2549.05086c-.0808.03358-.1542.08278-.2159.14479zm8.0622 4.3023-7.1713 7.1733 1.4517 1.4517c.3921.3917.9237.6117 1.478.6117.5542 0 1.0858-.22 1.4779-.6117l7.1713-7.1712-1.4517-1.4517c-.1938-.1947-.4241-.3492-.6777-.4546s-.5256-.1596-.8002-.1596c-.2747 0-.5467.0542-.8003.1596s-.4839.2599-.6777.4546zm-18.14074 0-1.45166 1.4517 7.1713 7.1713c.3921.3916.9237.6116 1.4779.6116.5543 0 1.0858-.22 1.478-.6116l1.4537-1.4517-7.17328-7.1713c-.19379-.1946-.42411-.3491-.67775-.4545-.25363-.1054-.52559-.1596-.80025-.1596s-.54662.0542-.80025.1596c-.25364.1054-.48396.2599-.67775.4545zm9.65744 1.2553-.8705.8746 1.7614 1.7635 1.7634-1.7614-.8725-.8746c-.1167-.1176-.2555-.2109-.4084-.2745-.1529-.0637-.3169-.0965-.4825-.0965s-.3296.0328-.4825.0965c-.1529.0636-.2917.1569-.4084.2745zm-.5871 7.815-1.4517 1.4517 2.9297 2.9297 2.9296-2.9297-1.4516-1.4517c-.1938-.1946-.4241-.3491-.6777-.4544-.2537-.1054-.5256-.1597-.8003-.1597-.2746 0-.5465.0543-.8002.1597-.2536.1053-.4839.2598-.6777.4544z" fill="url(#a)"/></svg>