<svg xmlns="http://www.w3.org/2000/svg" width="32" height="32" fill="none"><defs><linearGradient id="lto__a" x1="6.142" x2="26.049" y1="16.5" y2="16.5" gradientUnits="userSpaceOnUse"><stop stop-color="#7CB7FF"/><stop offset="1" stop-color="#BA6DF6"/></linearGradient></defs><path fill="#fff" d="M16 32c8.837 0 16-7.163 16-16S24.837 0 16 0 0 7.163 0 16s7.163 16 16 16Z"/><path fill="url(#lto__a)" d="M18.417 6.278 16.134 8.56l.463.464a.666.666 0 0 0 .942 0l2.284-2.284-.464-.463a.664.664 0 0 0-.942 0Zm-5.776 0-.461.463 2.283 2.284a.666.666 0 0 0 .942 0l.461-.464-2.283-2.283a.665.665 0 0 0-.942 0Zm7.929 2.988-4.317 4.315.875.874a1.26 1.26 0 0 0 1.777 0l4.317-4.314-.875-.875a1.254 1.254 0 0 0-1.777 0Zm-10.917 0-.873.875 4.315 4.312a1.26 1.26 0 0 0 1.78 0l.872-.87-4.315-4.317a1.256 1.256 0 0 0-1.78 0Zm5.877-.101-.463.465.933.932.933-.932-.461-.465a.664.664 0 0 0-.942 0Zm8.062 4.302-7.17 7.173 1.45 1.452a2.091 2.091 0 0 0 2.957 0L28 14.921l-1.452-1.452a2.086 2.086 0 0 0-2.956 0v-.002Zm-18.14 0L4 14.92l7.171 7.171a2.091 2.091 0 0 0 2.956 0l1.454-1.452-7.173-7.17a2.087 2.087 0 0 0-2.956 0Zm9.657 1.255-.87.875L16 17.36l1.763-1.76-.872-.875a1.254 1.254 0 0 0-1.782 0v-.003Zm-.587 7.815L13.07 23.99 16 26.92l2.93-2.93-1.452-1.452a2.085 2.085 0 0 0-2.956 0Z"/></svg>