<svg xmlns="http://www.w3.org/2000/svg" width="32" height="32" fill="none"><defs><linearGradient id="lun__a" x1="-1.346" x2="30.437" y1="6.056" y2="20.461" gradientUnits="userSpaceOnUse"><stop stop-color="#F85F7D"/><stop offset="1" stop-color="#F14E10"/></linearGradient></defs><path fill="#fff" d="M16 32c8.837 0 16-7.163 16-16S24.837 0 16 0 0 7.163 0 16s7.163 16 16 16Z"/><path fill="url(#lun__a)" d="M15.783 4.058a.438.438 0 0 1 .436 0L25.865 9.6a.434.434 0 0 1 .001.753l-8.392 4.84a1.931 1.931 0 0 0-1.142-.647v-2.632a1.929 1.929 0 1 0-.668-.003v2.637a1.93 1.93 0 0 0-1.125.644l-8.393-4.823a.433.433 0 0 1 0-.753l9.637-5.558Zm10.11 6.982a.435.435 0 0 1 .655.376l.009 10.76a.434.434 0 0 1-.218.377l-9.343 5.388a.436.436 0 0 1-.654-.376l-.008-9.233a1.927 1.927 0 0 0 1.158-.666l2.333 1.339a1.94 1.94 0 1 0 .282-.607l-2.286-1.311a1.895 1.895 0 0 0-.03-1.375l8.102-4.672Zm-20.44.376a.435.435 0 0 1 .654-.377l8.112 4.679c-.18.437-.19.925-.028 1.369l-2.286 1.31a1.902 1.902 0 1 0 .282.608l2.333-1.338c.292.35.698.584 1.146.663l-.008 9.235a.435.435 0 0 1-.654.376L5.66 22.553a.435.435 0 0 1-.218-.377l.01-10.76Z"/></svg>