<svg fill="none" height="32" viewBox="0 0 32 32" width="32" xmlns="http://www.w3.org/2000/svg" xmlns:xlink="http://www.w3.org/1999/xlink"><linearGradient id="a" gradientUnits="userSpaceOnUse" x1="-1.34595" x2="30.4367" y1="6.05577" y2="20.4606"><stop offset="0" stop-color="#f85f7d"/><stop offset="1" stop-color="#f14e10"/></linearGradient><path d="m16 32c8.8366 0 16-7.1634 16-16 0-8.83656-7.1634-16-16-16-8.83656 0-16 7.16344-16 16 0 8.8366 7.16344 16 16 16z" fill="#fff"/><path d="m15.7825 4.05845c.0664-.0382.1416-.05836.2181-.05845.0766-.00009.1518.01988.2182.05792l9.6467 5.54158c.0663.03798.1214.09278.1597.15886.0384.06608.0586.14111.0586.21751.0001.07643-.02.15143-.0582.21763-.0382.0661-.0932.121-.1594.1592l-8.3922 4.8405c-.2933-.3425-.6972-.5715-1.1416-.6474v-2.6321c.4755-.0818.9032-.3389 1.1985-.7206.2953-.3816.4368-.8601.3967-1.34097-.0402-.48088-.2592-.92925-.6137-1.25662-.3545-.32736-.8189-.50995-1.3015-.51174-.4825-.00178-.9482.17737-1.3052.50211-.3569.32473-.5792.77147-.6229 1.25204-.0437.48058.0943.96008.3868 1.34388.2924.3839.7182.6441 1.1931.7294v2.6369c-.4381.0784-.8357.3059-1.1253.6438l-8.39292-4.8225c-.06628-.0379-.12136-.0927-.15969-.1588-.03834-.0661-.05856-.1411-.05863-.21746-.00007-.07639.02001-.15144.05822-.21758.0382-.06614.09318-.12103.15939-.15913zm10.1104 6.98105c.0662-.0386.1413-.059.2179-.0592s.1518.0197.2182.0578c.0664.0382.1216.0931.1599.1594.0384.0662.0587.1414.0587.218l.0092 10.7607c.0001.0763-.0201.1514-.0583.2175-.0383.0661-.0933.1209-.1595.1589l-9.3427 5.3883c-.0662.0383-.1413.0586-.2177.0587-.0765.0002-.1516-.0198-.2179-.0578-.0663-.0381-.1215-.093-.1599-.1591s-.0588-.1411-.059-.2175l-.008-9.2327c.453-.0768.8637-.3131 1.1579-.6661l2.3337 1.3382c-.1255.469-.0706.9681.1539 1.3986.2246.4306.6023.7613 1.0587.9269.4565.1656.9584.1541 1.4068-.0323.4483-.1864.8105-.5342 1.015-.9746s.2364-.9414.0895-1.4042-.462-.8537-.883-1.0955c-.4211-.2419-.9175-.317-1.3912-.2107-.4738.1063-.8905.3863-1.1679.7849l-2.2862-1.311c.1622-.4458.1513-.9362-.0305-1.3743zm-20.4404.376c.00003-.0766.02025-.1518.05861-.218.03837-.0663.09351-.1212.15989-.1594.06637-.0381.14163-.058.21818-.0578s.15168.0206.21783.0592l8.11159 4.6784c-.1794.4369-.1894.925-.028 1.3689l-2.2856 1.3108c-.2728-.3893-.6816-.6623-1.1456-.7653-.4641-.103-.94995-.0284-1.3618.209-.41186.2374-.71989.6204-.86343 1.0736-.14353.4531-.11217.9436.08793 1.3748.20009.4313.55441.7719.99315.9549.43875.183.93005.195 1.37725.0338s.8178-.4841 1.0388-.905c.221-.4208.2764-.9092.1553-1.3689l2.3332-1.338c.2918.3497.6979.5849 1.1464.664l-.008 9.2346c-.0002.0765-.0206.1515-.059.2176s-.0935.1209-.1598.159c-.0663.038-.1414.058-.2179.0579-.0764-.0002-.1515-.0204-.2176-.0587l-9.34309-5.3883c-.06619-.0381-.12116-.093-.15938-.1591s-.05833-.1411-.05831-.2174z" fill="url(#a)"/></svg>