<svg xmlns="http://www.w3.org/2000/svg" width="32" height="32" fill="none"><defs><linearGradient id="luna__a" x1="19.035" x2="9.249" y1="18.756" y2="7.093" gradientUnits="userSpaceOnUse"><stop stop-color="#DE3633"/><stop offset="1" stop-color="#F6CD5A"/></linearGradient><linearGradient id="luna__b" x1="17.696" x2="14.164" y1="27.386" y2="17.681" gradientUnits="userSpaceOnUse"><stop stop-color="#DE3633"/><stop offset="1" stop-color="#F7D45C"/></linearGradient></defs><circle cx="16" cy="16" r="16" fill="#fff"/><path fill="#F2E373" d="M27.389 15.954c0 6.328-5.13 11.459-11.46 11.459-.428-11.46-.428-11.46-6.726-11.46 0-6.328.398-11.458 6.726-11.458 6.329 0 11.46 5.13 11.46 11.459Z"/><path fill="url(#luna__a)" d="M28.279 14.619c-2.496-2.541-6.18-2.76-9.142-.903-2.467 1.257-5.636.06-5.976-2.853-.165-1.435.65-2.84 1.85-3.593.715-.435 1.481-.778 2.204-1.198 1.167-.693 2.436-1.682 2.582-3.127.05-.447.017-.9-.043-1.343a.144.144 0 0 0-.16-.128.14.14 0 0 0-.107.092c-.123.3-.322.565-.556.787-.863.79-2.02 1.138-3.12 1.465-1.665.455-3.303 1.033-4.85 1.805-5.22 2.48-7.822 8.804-5.826 14.232 1.446 3.156 4.576 4.225 7.829 3.375 2.067-.58 3.653-1.393 4.75-3.312.435-.677.791-1.404 1.27-2.052 2.295-3.213 5.755-3.6 9.38-2.827.084.017.16-.067.152-.147-.061-.105-.157-.184-.237-.273Z"/><path fill="url(#luna__b)" d="M25.867 22.875c0-.077-.087-.146-.16-.103-1.78.852-4.01.285-5.14-1.339-.891-1.236-1-2.965-.294-4.312a4.185 4.185 0 0 1 1.523-1.638.707.707 0 0 0 .119-.093c-1.18.536-2.17 1.436-2.931 2.475-.479.648-.835 1.375-1.27 2.052-.304.48-.626.952-1.019 1.365-.991 1.03-2.385 1.555-3.731 1.948-1.35.356-2.801.397-4.14-.023a5.847 5.847 0 0 1-3.627-3.267.254.254 0 0 0-.061-.087c1.544 4.408 6.003 7.56 10.665 7.613.26.018.52-.007.78-.013 3.491-.165 6.802-1.884 9.182-4.406.045-.05.112-.097.104-.172Z"/></svg>