<svg fill="none" height="32" viewBox="0 0 32 32" width="32" xmlns="http://www.w3.org/2000/svg"><path d="m16 32c8.8366 0 16-7.1634 16-16 0-8.83656-7.1634-16-16-16-8.83656 0-16 7.16344-16 16 0 8.8366 7.16344 16 16 16z" fill="#172852"/><path d="m12.888 7.15037c1.8736-.7008 3.9824-.7024 5.8912-.1264 2.4848.7712 4.5824 2.64641 5.6784 5.00003.3024.6704.592 1.3696.6208 2.1152-1.3968-.8096-2.928-1.3344-4.4624-1.8128-2.4544-.8848-5.024-1.4992-7.3472-2.71522-.5408-.3232-1.2304-.6544-1.3776-1.32801-.0592-.5824.5568-.9072.9968-1.1328z" fill="#ffd83d"/><path d="m7.23186 12.8144c.5424-1.472 1.432-2.8384 2.64-3.8512.30724 2.5264 1.38244 4.968 3.15844 6.8048 2.1296 2.2128 5.1632 3.5712 8.2496 3.52 1.2256.0384 2.424-.2448 3.6192-.4736-1.176 4.2496-5.8336 7.0705-10.1488 6.3921-2.6048-.3328-5.00964-1.8753-6.46084-4.0529-1.6368-2.4064-2.0496-5.6016-1.0576-8.3392z" fill="#ffd83d"/><path d="m20.52 12.27c1.5344.4784 3.0656 1.0032 4.4624 1.8128l.0944.0496c.1296.9744.224 1.968.0512 2.944-.7024-.2976-1.272-.8208-1.8672-1.2832-1.1456-.9536-2.3152-2.0448-2.7408-3.5232z" fill="#ff6f03"/></svg>