<svg xmlns="http://www.w3.org/2000/svg" width="32" height="32" fill="none"><path fill="#172852" d="M16 32c8.837 0 16-7.163 16-16S24.837 0 16 0 0 7.163 0 16s7.163 16 16 16Z"/><path fill="#FFD83D" d="M12.888 7.15c1.874-.7 3.982-.702 5.891-.126 2.485.771 4.583 2.646 5.679 5 .302.67.592 1.37.62 2.115-1.396-.81-2.928-1.334-4.462-1.813-2.454-.884-5.024-1.499-7.347-2.715-.541-.323-1.23-.654-1.378-1.328-.059-.582.557-.907.997-1.133Zm-5.656 5.664c.542-1.472 1.432-2.838 2.64-3.85.307 2.526 1.382 4.967 3.158 6.804 2.13 2.213 5.164 3.571 8.25 3.52 1.226.038 2.424-.245 3.62-.474-1.177 4.25-5.834 7.07-10.15 6.392-2.604-.332-5.01-1.875-6.46-4.052-1.637-2.407-2.05-5.602-1.058-8.34Z"/><path fill="#FF6F03" d="M20.52 12.27c1.534.478 3.066 1.003 4.462 1.813l.095.05c.13.974.224 1.967.051 2.943-.702-.297-1.272-.82-1.867-1.283-1.146-.953-2.315-2.045-2.741-3.523Z"/></svg>