<svg xmlns="http://www.w3.org/2000/svg" width="32" height="32" fill="none"><defs><linearGradient id="ma__a" x1="16" x2="16" y1="0" y2="32" gradientUnits="userSpaceOnUse"><stop stop-color="#59BEAE"/><stop offset="1" stop-color="#124EA0"/></linearGradient></defs><path fill="url(#ma__a)" d="M16 32c8.837 0 16-7.163 16-16S24.837 0 16 0 0 7.163 0 16s7.163 16 16 16Z"/><path fill="#fff" d="M7.377 16.222c.386.081.765.197 1.131.345 1.683.677 2.152 1.477 1.955 3.278a2.52 2.52 0 0 0 .405 2.034c.468-1.46.942-2.81.474-4.249a3.064 3.064 0 0 0-1.87-1.776 10.382 10.382 0 0 0-3.85-.782 44.176 44.176 0 0 0-5.601.515C.017 15.726 0 15.86 0 16c0 .154.019.303.023.456.09-.012 1.68-.226 2.296-.298a15.576 15.576 0 0 1 5.058.064Z"/><path fill="#fff" d="M27.398 15.905c-.656-1.186-1.368-2.34-1.927-3.578a5.965 5.965 0 0 1-.553-2.623 12.376 12.376 0 0 0-.849-5.083c-.146-.349-.256-.905-.688-.853-.44.053-.381.63-.456.997-.112.551-.141 1.118-.234 1.674-.068.406-.296.52-.622.22a3.835 3.835 0 0 0-3.025-.98 2.775 2.775 0 0 1-.503-.05c-.422-.047-.445-.252-.24-.572.356-.554.71-1.11 1.043-1.678.118-.201.317-.466.128-.672-.201-.218-.458.007-.665.106a13.303 13.303 0 0 0-3.719 2.727 7.764 7.764 0 0 1-3.66 2.125A313.915 313.915 0 0 0 4.63 9.56a8.113 8.113 0 0 0-4.117 2.487 15.912 15.912 0 0 0-.444 2.587s2.425-.343 2.831-.407a13.943 13.943 0 0 1 5.882.069c.749.19 1.465.495 2.122.903a3.552 3.552 0 0 1 1.779 4.034c-.539 3.14-2.404 4.935-5.683 5.473-1.323.198-2.661.27-3.997.214a5.758 5.758 0 0 0-.286 0c.205.306.431.594.657.884.984.073 1.87.145 2.754.204a17.81 17.81 0 0 0 4.5-.242 6.85 6.85 0 0 0 4.108-2.512c.478-.581.921-1.192 1.394-1.779.303-.385.624-.754.965-1.107a4.672 4.672 0 0 1 7.027-.158c.81.752 3.243 3.266 4.968 4.975.427-.61.81-1.248 1.15-1.91l-.043-.265a21.762 21.762 0 0 0-2.799-7.104Zm-10.193-9.23c.259-.013.405.163.451.42-.057.24-.195.422-.456.402a.411.411 0 0 1 .005-.821Zm1.124 6.181a53.365 53.365 0 0 1-3.134 5.54c-.495.84-.981 1.685-1.472 2.528-.355.566-.394.552-.12-.054.459-1.124.911-2.25 1.377-3.372.835-2.012 1.662-4.028 2.602-5.996.112-.28.282-.533.5-.743.18-.155.384-.288.608-.15a.526.526 0 0 1 .208.598 8.734 8.734 0 0 1-.569 1.65Zm3.456-3.507a.433.433 0 0 1-.451-.47c.008-.28.203-.424.475-.462a.468.468 0 0 1 .45.487.427.427 0 0 1-.474.445Z"/><path fill="#fff" d="M24.799 22.375a7.504 7.504 0 0 0-2.867-2.24 3.116 3.116 0 0 0-2.984.172 22.601 22.601 0 0 0-4.208 4.199 1.782 1.782 0 0 0 1.34-.607c.494-.464.946-.972 1.415-1.461a6.65 6.65 0 0 1 1.574-1.277 2.797 2.797 0 0 1 3.59.346c.64.554 1.214 1.183 1.808 1.787a25.902 25.902 0 0 0 3.536 3.261c.16-.181.321-.362.473-.551a37.597 37.597 0 0 1-3.677-3.629Z"/></svg>