<svg fill="none" height="32" viewBox="0 0 32 32" width="32" xmlns="http://www.w3.org/2000/svg" xmlns:xlink="http://www.w3.org/1999/xlink"><linearGradient id="a" gradientUnits="userSpaceOnUse" x1="16" x2="16" y1="0" y2="32"><stop offset="0" stop-color="#59beae"/><stop offset="1" stop-color="#124ea0"/></linearGradient><path d="m16 32c8.8366 0 16-7.1634 16-16 0-8.83656-7.1634-16-16-16-8.83656 0-16 7.16344-16 16 0 8.8366 7.16344 16 16 16z" fill="url(#a)"/><g fill="#fff"><path d="m7.37652 16.2217c.38659.0816.76526.197 1.13166.3449 1.68262.6774 2.15182 1.4775 1.95512 3.278-.0806.3484-.0862.71-.0163 1.0607.0698.3507.2135.6826.4215.9735.4677-1.4599.9416-2.8098.4734-4.2486-.1639-.4142-.4162-.7877-.7393-1.0945-.323-.3068-.70907-.5394-1.13123-.6817-1.22152-.5033-2.52786-.7688-3.84893-.7823-1.87624.0526-3.74722.2246-5.60157.5152-.00354.1386-.02087.2736-.02087.4131 0 .1538.01868.3028.023.4555.09009-.012 1.68048-.2252 2.296-.2979 1.67807-.2543 3.38643-.2327 5.05752.0641z"/><path d="m27.3983 15.9046c-.6564-1.1852-1.3687-2.3394-1.9276-3.5777-.3808-.8211-.5697-1.718-.5525-2.6229.0767-1.735-.2126-3.4667-.8491-5.08255-.1459-.34912-.2557-.90558-.6878-.85364-.4412.053-.3817.63056-.4562.99756-.1119.55084-.1411 1.11792-.2342 1.67328-.0682.40625-.2956.52112-.6222.221-.4048-.37018-.8842-.64923-1.406-.81832-.5217-.16908-1.0737-.22427-1.6186-.16184-.1689-.00134-.3373-.0181-.5031-.05005-.422-.04724-.4454-.25213-.2399-.57226.3558-.55432.7105-1.11 1.0432-1.67829.1178-.201.3172-.46624.1278-.67175-.2011-.21832-.458.00641-.6651.10614-1.3888.68539-2.6472 1.60802-3.7186 2.72632-.9997 1.03388-2.2668 1.76979-3.6602 2.12567-2.27511.59735-4.53706 1.24622-6.79866 1.89392-1.59208.39379-3.02743 1.26081-4.116818 2.48681-.218846.8485-.367227 1.7136-.4436302 2.5865s2.4249982-.3421 2.8309982-.4069c1.94314-.3955 3.94827-.372 5.88159.069.74935.1907 1.46502.4952 2.12202.903.7076.3737 1.2683.9754 1.5912 1.7076.3229.7323.389 1.5521.1877 2.3266-.5382 3.1407-2.404 4.9355-5.68273 5.4728-1.32255.1988-2.66108.2706-3.99731.2145-.0379-.001-.14593-.003-.28564.0006.20513.305.43151.5935.65661.883.984.0736 1.86975.1448 2.75476.204 1.50429.1104 3.01652.0291 4.50031-.2419 1.6278-.3126 3.0869-1.2049 4.1071-2.5113.4782-.582.9214-1.1926 1.3946-1.779.3023-.3853.6241-.7549.9643-1.1073.4271-.5105.9583-.9238 1.5581-1.2123.5998-.2886 1.2543-.4456 1.9198-.4606.6654-.015 1.3263.1124 1.9385.3736s1.1615.6502 1.6112 1.1409c.8102.7518 3.2424 3.2662 4.9675 4.9748.4272-.6092.8112-1.2475 1.1494-1.9102-.0159-.101-.0301-.1908-.0424-.2645-.5068-2.5145-1.4542-4.9196-2.7984-7.1043zm-10.193-9.22895c.2584-.01386.4042.16235.4511.41961-.0574.23938-.1959.42218-.4567.40192-.1045-.00714-.2024-.05388-.2736-.13069-.0713-.07682-.1106-.17792-.1099-.28269.0007-.10478.0414-.20534.1137-.28118s.1708-.12125.2754-.12697zm1.1237 6.18045c-.9333 1.9076-1.9797 3.7579-3.1335 5.5408-.495.8398-.9816 1.6844-1.472 2.5269-.355.5659-.3943.5518-.12-.0538.4582-1.124.9107-2.2505 1.376-3.3716.8352-2.0125 1.663-4.0284 2.6023-5.9959.1118-.2804.282-.5339.4993-.7434.1807-.1546.3854-.2882.6093-.1497.0949.0636.1664.1564.2039.2643s.0388.2251.0038.3338c-.1342.5672-.3249 1.1194-.5691 1.6486zm3.4564-3.50736c-.0617.00297-.1233-.00731-.1807-.03014s-.1093-.05768-.1521-.10222c-.0428-.04453-.0755-.09772-.0961-.15597-.0205-.05826-.0283-.12023-.0229-.18176.0082-.28058.2035-.42352.4753-.46136.0616.00233.122.01678.1779.04249.056.02572.1063.06222.1481.10739.0418.04518.0743.09816.0957.15591.0213.05775.031.11914.0286.18066.0029.06169-.0077.12326-.0309.18049-.0233.05722-.0586.10874-.1036.15102-.045.04227-.0987.07431-.1572.0939-.0586.01959-.1207.02627-.1821.01959z"/><path d="m24.799 22.3755c-.7574-.9711-1.7421-1.7409-2.8673-2.2414-.472-.2236-.9927-.3249-1.5142-.2947-.5214.0302-1.0269.191-1.47.4677-1.5813 1.2082-2.9962 2.62-4.2078 4.1987.2538.0001.5047-.054.7359-.1587s.4373-.2575.6047-.4483c.4937-.4635.9455-.9718 1.415-1.4612.4561-.5035.9867-.9342 1.5733-1.277.5432-.3753 1.2016-.5464 1.8587-.483s1.2706.3572 1.732.8294c.639.554 1.2137 1.183 1.8081 1.7874 1.0748 1.1943 2.2584 2.2861 3.5355 3.2611.1603-.182.3215-.3625.4734-.5517-1.3075-1.1237-2.5362-2.336-3.6773-3.6283z"/></g></svg>