<svg xmlns="http://www.w3.org/2000/svg" width="32" height="32" fill="none"><circle cx="16" cy="16" r="16" fill="#DC2626"/><path fill="#FFFDF7" d="m25.354 15.685-2.878-.988a3.156 3.156 0 0 1-2.066-2.37l-1.216-6.062A.329.329 0 0 0 18.87 6a.328.328 0 0 0-.323.265l-1.216 6.062a3.158 3.158 0 0 1-2.067 2.37l-2.877.988a.327.327 0 0 0-.221.315.34.34 0 0 0 .22.315l2.878.988a3.158 3.158 0 0 1 2.067 2.37l1.216 6.061a.329.329 0 0 0 .647 0l1.216-6.061a3.156 3.156 0 0 1 2.066-2.37l2.878-.988a.326.326 0 0 0 .22-.315.34.34 0 0 0-.22-.315ZM12.24 20.761l-1.364-.462a1.493 1.493 0 0 1-.977-1.124l-.574-2.87a.152.152 0 0 0-.153-.124.152.152 0 0 0-.153.124l-.574 2.87c-.104.525-.477.95-.978 1.123l-1.363.463A.154.154 0 0 0 6 20.91c0 .067.043.13.104.148l1.363.463c.5.172.874.598.978 1.123l.574 2.87c.012.075.08.124.153.124a.163.163 0 0 0 .153-.124l.574-2.87a1.49 1.49 0 0 1 .978-1.123l1.363-.463a.154.154 0 0 0 .103-.148.154.154 0 0 0-.103-.149ZM9.868 10.243l1.015.346c.373.13.654.444.727.84l.428 2.141a.118.118 0 0 0 .116.093.118.118 0 0 0 .116-.093l.428-2.142c.08-.389.354-.71.733-.84l1.015-.345a.119.119 0 0 0 .08-.111.119.119 0 0 0-.08-.111l-1.015-.346a1.12 1.12 0 0 1-.733-.84l-.428-2.142a.118.118 0 0 0-.116-.092.118.118 0 0 0-.116.092l-.428 2.143c-.08.389-.354.71-.727.84l-1.015.345a.12.12 0 0 0-.079.111c0 .05.03.092.08.111Z"/></svg>