<svg fill="none" height="32" viewBox="0 0 32 32" width="32" xmlns="http://www.w3.org/2000/svg" xmlns:xlink="http://www.w3.org/1999/xlink"><linearGradient id="a" gradientUnits="userSpaceOnUse" x1="27.3137" x2="4.68629" y1="4.68629" y2="27.3137"><stop offset="0" stop-color="#ff2d55"/><stop offset="1" stop-color="#ffbc5b"/></linearGradient><linearGradient id="b"><stop offset="0" stop-color="#a524b3"/><stop offset="1" stop-color="#ff2d55"/></linearGradient><linearGradient id="c" gradientUnits="userSpaceOnUse" x1="16.3326" x2="16.3326" xlink:href="#b" y1="10.4" y2="22.4"/><linearGradient id="d" gradientUnits="userSpaceOnUse" x1="25.1294" x2="25.1294" xlink:href="#b" y1="16.8" y2="25.6"/><path d="m16 32c8.8366 0 16-7.1634 16-16 0-8.83656-7.1634-16-16-16-8.83656 0-16 7.16344-16 16 0 8.8366 7.16344 16 16 16z" fill="url(#a)"/><g clip-rule="evenodd" fill-rule="evenodd"><path d="m11.3359 10.4v12h10z" fill="url(#c)"/><path d="m1.33594 22.4h9.99996v-12z" fill="#fff"/><path d="m6.3999 28.8c2.672 2.008 6 3.2 9.6 3.2s6.928-1.192 9.6-3.2z" fill="#ff2d55"/><path d="m3.19995 25.6c.912 1.208 1.992 2.288 3.2 3.2h19.20005c1.208-.912 2.288-1.992 3.2-3.2z" fill="#fc9965"/><path d="m21.4639 22.4h-20.12796c.496 1.144 1.128 2.216 1.864 3.2h18.27196v-3.2z" fill="#ffbc5b"/><path d="m21.4639 16.8v8.8h7.336z" fill="url(#d)"/><path d="m14.136 25.6h7.328v-8.8z" fill="#fff"/></g><path d="m21.4641 14.4c2.2092 0 4-1.7909 4-4 0-2.20915-1.7908-4.00001-4-4.00001-2.2091 0-4 1.79086-4 4.00001 0 2.2091 1.7909 4 4 4z" fill="#ffc95b"/><path d="m11.3359 8c1.1046 0 2-.89543 2-2s-.8954-2-2-2c-1.1045 0-1.99996.89543-1.99996 2s.89546 2 1.99996 2z" fill="#ffc95b"/></svg>