<svg xmlns="http://www.w3.org/2000/svg" width="32" height="32" fill="none"><defs><linearGradient id="mana__a" x1="27.314" x2="4.686" y1="4.686" y2="27.314" gradientUnits="userSpaceOnUse"><stop stop-color="#FF2D55"/><stop offset="1" stop-color="#FFBC5B"/></linearGradient><linearGradient id="mana__b" x1="16.333" x2="16.333" y1="10.4" y2="22.4" gradientUnits="userSpaceOnUse"><stop stop-color="#A524B3"/><stop offset="1" stop-color="#FF2D55"/></linearGradient><linearGradient id="mana__c" x1="25.129" x2="25.129" y1="16.8" y2="25.6" gradientUnits="userSpaceOnUse"><stop stop-color="#A524B3"/><stop offset="1" stop-color="#FF2D55"/></linearGradient></defs><path fill="url(#mana__a)" d="M16 32c8.837 0 16-7.163 16-16S24.837 0 16 0 0 7.163 0 16s7.163 16 16 16Z"/><path fill="url(#mana__b)" fill-rule="evenodd" d="M11.336 10.4v12h10l-10-12Z" clip-rule="evenodd"/><path fill="#fff" fill-rule="evenodd" d="M1.336 22.4h10v-12l-10 12Z" clip-rule="evenodd"/><path fill="#FF2D55" fill-rule="evenodd" d="M6.4 28.8c2.672 2.008 6 3.2 9.6 3.2 3.6 0 6.928-1.192 9.6-3.2H6.4Z" clip-rule="evenodd"/><path fill="#FC9965" fill-rule="evenodd" d="M3.2 25.6a16.387 16.387 0 0 0 3.2 3.2h19.2a16.387 16.387 0 0 0 3.2-3.2H3.2Z" clip-rule="evenodd"/><path fill="#FFBC5B" fill-rule="evenodd" d="M21.464 22.4H1.336A15.932 15.932 0 0 0 3.2 25.6h18.272v-3.2h-.008Z" clip-rule="evenodd"/><path fill="url(#mana__c)" fill-rule="evenodd" d="M21.464 16.8v8.8H28.8l-7.336-8.8Z" clip-rule="evenodd"/><path fill="#fff" fill-rule="evenodd" d="M14.136 25.6h7.328v-8.8l-7.328 8.8Z" clip-rule="evenodd"/><path fill="#FFC95B" d="M21.464 14.4a4 4 0 1 0 0-8 4 4 0 0 0 0 8ZM11.336 8a2 2 0 1 0 0-4 2 2 0 0 0 0 4Z"/></svg>