<svg width="32" height="32" fill="none" xmlns="http://www.w3.org/2000/svg"><path d="M16 32c8.837 0 16-7.163 16-16S24.837 0 16 0 0 7.163 0 16s7.163 16 16 16Z" fill="url(#a)"/><path fill-rule="evenodd" clip-rule="evenodd" d="M11.336 10.4v12h10l-10-12Z" fill="url(#b)"/><path fill-rule="evenodd" clip-rule="evenodd" d="M1.336 22.4h10v-12l-10 12Z" fill="#fff"/><path fill-rule="evenodd" clip-rule="evenodd" d="M6.4 28.8c2.672 2.008 6 3.2 9.6 3.2 3.6 0 6.928-1.192 9.6-3.2H6.4Z" fill="#FF2D55"/><path fill-rule="evenodd" clip-rule="evenodd" d="M3.2 25.6a16.387 16.387 0 0 0 3.2 3.2h19.2a16.387 16.387 0 0 0 3.2-3.2H3.2Z" fill="#FC9965"/><path fill-rule="evenodd" clip-rule="evenodd" d="M21.464 22.4H1.336A15.932 15.932 0 0 0 3.2 25.6h18.272v-3.2h-.008Z" fill="#FFBC5B"/><path fill-rule="evenodd" clip-rule="evenodd" d="M21.464 16.8v8.8H28.8l-7.336-8.8Z" fill="url(#c)"/><path fill-rule="evenodd" clip-rule="evenodd" d="M14.136 25.6h7.328v-8.8l-7.328 8.8Z" fill="#fff"/><path d="M21.464 14.4a4 4 0 1 0 0-8 4 4 0 0 0 0 8ZM11.336 8a2 2 0 1 0 0-4 2 2 0 0 0 0 4Z" fill="#FFC95B"/><defs><linearGradient id="a" x1="27.314" y1="4.686" x2="4.686" y2="27.314" gradientUnits="userSpaceOnUse"><stop stop-color="#FF2D55"/><stop offset="1" stop-color="#FFBC5B"/></linearGradient><linearGradient id="b" x1="16.333" y1="10.4" x2="16.333" y2="22.4" gradientUnits="userSpaceOnUse"><stop stop-color="#A524B3"/><stop offset="1" stop-color="#FF2D55"/></linearGradient><linearGradient id="c" x1="25.129" y1="16.8" x2="25.129" y2="25.6" gradientUnits="userSpaceOnUse"><stop stop-color="#A524B3"/><stop offset="1" stop-color="#FF2D55"/></linearGradient></defs></svg>