<svg xmlns="http://www.w3.org/2000/svg" width="32" height="32" fill="none"><path fill="#1C68F3" d="M16 32c8.837 0 16-7.163 16-16S24.837 0 16 0 0 7.163 0 16s7.163 16 16 16Z"/><path fill="#fff" d="M25.6 12.267V17.6H8.912a7.255 7.255 0 0 0 13.587 1.6h3.1v4.48a1.921 1.921 0 0 1-1.92 1.92H8.32a1.92 1.92 0 0 1-1.92-1.92V12.267h19.2ZM20.657 19.2a5.654 5.654 0 0 1-9.339 0h9.34Zm-8.764-5.653a2.987 2.987 0 0 0-2.956 2.56h1.636a1.388 1.388 0 0 1 2.64 0h1.637a2.988 2.988 0 0 0-2.957-2.56Zm8.214 0a2.987 2.987 0 0 0-2.957 2.56h1.637a1.387 1.387 0 0 1 2.64 0h1.636a2.987 2.987 0 0 0-2.956-2.56ZM23.68 6.4a1.92 1.92 0 0 1 1.92 1.92v2.347H6.4V8.32A1.92 1.92 0 0 1 8.32 6.4h15.36Z"/></svg>