<svg fill="none" height="32" viewBox="0 0 32 32" width="32" xmlns="http://www.w3.org/2000/svg"><path d="m16 32c8.8366 0 16-7.1634 16-16 0-8.83656-7.1634-16-16-16-8.83656 0-16 7.16344-16 16 0 8.8366 7.16344 16 16 16z" fill="#8247e5"/><path d="m20.6998 12.1934c-.3594-.2156-.8266-.2156-1.222 0l-2.8034 1.6533-1.9048 1.0782-2.8034 1.6533c-.3594.2157-.8267.2157-1.222 0l-2.22834-1.2938c-.35941-.2157-.611-.611-.611-1.0423v-2.5518c0-.4313.21565-.8267.611-1.0423l2.19234-1.25794c.3595-.21564.8267-.21564 1.222 0l2.1924 1.25794c.3594.2156.611.611.611 1.0423v1.6533l1.9049-1.1142v-1.6533c0-.4313-.2157-.82663-.611-1.04227l-4.0613-2.3721c-.3594-.21564-.8267-.21564-1.222 0l-4.13321 2.3721c-.39535.21564-.61099.61097-.61099 1.04227v4.7801c0 .4313.21564.8267.61099 1.0423l4.13321 2.3721c.3594.2157.8266.2157 1.222 0l2.8034-1.6173 1.9048-1.1142 2.8034-1.6173c.3594-.2157.8266-.2157 1.222 0l2.1924 1.2579c.3594.2156.611.611.611 1.0423v2.5518c0 .4313-.2157.8266-.611 1.0423l-2.1924 1.2938c-.3594.2157-.8266.2157-1.222 0l-2.1924-1.2579c-.3594-.2156-.611-.611-.611-1.0423v-1.6533l-1.9048 1.1142v1.6533c0 .4313.2156.8266.611 1.0423l4.1331 2.3721c.3595.2156.8267.2156 1.222 0l4.1332-2.3721c.3594-.2157.611-.611.611-1.0423v-4.7801c0-.4313-.2156-.8267-.611-1.0423z" fill="#fff"/></svg>