<svg xmlns="http://www.w3.org/2000/svg" width="32" height="32" fill="none"><path fill="#8247E5" d="M16 32c8.837 0 16-7.163 16-16S24.837 0 16 0 0 7.163 0 16s7.163 16 16 16Z"/><path fill="#fff" d="M20.7 12.193c-.36-.215-.827-.215-1.222 0l-2.804 1.654-1.904 1.078-2.804 1.653c-.36.216-.826.216-1.222 0l-2.228-1.294a1.24 1.24 0 0 1-.611-1.042V11.69c0-.431.216-.826.61-1.042l2.193-1.258c.36-.216.827-.216 1.222 0l2.193 1.258c.359.216.61.611.61 1.042v1.654l1.905-1.115v-1.653c0-.431-.215-.827-.61-1.042l-4.062-2.372c-.36-.216-.826-.216-1.222 0L6.611 9.534A1.165 1.165 0 0 0 6 10.576v4.78c0 .431.216.827.611 1.042l4.133 2.373c.36.215.827.215 1.222 0l2.804-1.618 1.904-1.114 2.804-1.617c.36-.216.826-.216 1.222 0l2.192 1.258c.36.215.611.61.611 1.042v2.552c0 .431-.215.826-.61 1.042L20.7 21.61c-.36.216-.827.216-1.222 0l-2.193-1.258a1.24 1.24 0 0 1-.61-1.042v-1.654l-1.905 1.115v1.653c0 .431.215.826.61 1.042l4.134 2.372c.36.216.826.216 1.222 0l4.133-2.372a1.24 1.24 0 0 0 .61-1.042v-4.78c0-.431-.215-.827-.61-1.043l-4.17-2.408Z"/></svg>