<svg width="32" height="32" fill="none" xmlns="http://www.w3.org/2000/svg"><path d="M16 32c8.837 0 16-7.163 16-16S24.837 0 16 0 0 7.163 0 16s7.163 16 16 16Z" fill="#fff"/><path d="m4.615 21.917 5.692-3.437v-6.097L4.615 15.82v6.097Z" fill="url(#a)"/><path d="m15.999 21.917-5.692-3.437v-6.097l5.692 3.437v6.097Z" fill="url(#b)"/><path d="m15.999 21.917 5.691-3.437v-6.097l-5.691 3.437v6.097Z" fill="url(#c)"/><path d="M27.385 21.917 21.69 18.48v-6.097l5.695 3.437v6.097Z" fill="url(#d)"/><path d="m15.999 8.917-4.406 2.661 4.406 2.66 4.406-2.66-4.406-2.661Z" fill="url(#e)"/><defs><linearGradient id="a" x1="4.615" y1="17.15" x2="10.307" y2="17.15" gradientUnits="userSpaceOnUse"><stop stop-color="#1B6FF5"/><stop offset="1" stop-color="#1B46F5"/></linearGradient><linearGradient id="b" x1="15.999" y1="17.15" x2="10.369" y2="17.15" gradientUnits="userSpaceOnUse"><stop stop-color="#6CC5FF"/><stop offset="1" stop-color="#3B8BFA"/></linearGradient><linearGradient id="c" x1="107.048" y1="173.032" x2="139.439" y2="173.032" gradientUnits="userSpaceOnUse"><stop stop-color="#1B6FF5"/><stop offset="1" stop-color="#1B46F5"/></linearGradient><linearGradient id="d" x1="178.111" y1="173.032" x2="145.638" y2="173.032" gradientUnits="userSpaceOnUse"><stop stop-color="#6CC5FF"/><stop offset="1" stop-color="#3B8BFA"/></linearGradient><linearGradient id="e" x1="11.593" y1="11.577" x2="20.405" y2="11.577" gradientUnits="userSpaceOnUse"><stop stop-color="#F69B10"/><stop offset=".232" stop-color="#F9AE0A"/><stop offset=".973" stop-color="#FBB807"/></linearGradient></defs></svg>