<svg fill="none" height="32" viewBox="0 0 32 32" width="32" xmlns="http://www.w3.org/2000/svg" xmlns:xlink="http://www.w3.org/1999/xlink"><linearGradient id="a"><stop offset="0" stop-color="#1b6ff5"/><stop offset="1" stop-color="#1b46f5"/></linearGradient><linearGradient id="b" gradientUnits="userSpaceOnUse" x1="4.61548" x2="10.3071" xlink:href="#a" y1="17.1499" y2="17.1499"/><linearGradient id="c"><stop offset="0" stop-color="#6cc5ff"/><stop offset="1" stop-color="#3b8bfa"/></linearGradient><linearGradient id="d" gradientUnits="userSpaceOnUse" x1="15.9987" x2="10.3689" xlink:href="#c" y1="17.1499" y2="17.1499"/><linearGradient id="e" gradientUnits="userSpaceOnUse" x1="107.048" x2="139.439" xlink:href="#a" y1="173.032" y2="173.032"/><linearGradient id="f" gradientUnits="userSpaceOnUse" x1="178.111" x2="145.638" xlink:href="#c" y1="173.032" y2="173.032"/><linearGradient id="g" gradientUnits="userSpaceOnUse" x1="11.5927" x2="20.4049" y1="11.5773" y2="11.5773"><stop offset="0" stop-color="#f69b10"/><stop offset=".2317" stop-color="#f9ae0a"/><stop offset=".9727" stop-color="#fbb807"/></linearGradient><path d="m16 32c8.8366 0 16-7.1634 16-16 0-8.83656-7.1634-16-16-16-8.83656 0-16 7.16344-16 16 0 8.8366 7.16344 16 16 16z" fill="#fff"/><path d="m4.61499 21.917 5.69201-3.437v-6.097l-5.69201 3.437z" fill="url(#b)"/><path d="m15.9989 21.917-5.692-3.437v-6.097l5.692 3.437z" fill="url(#d)"/><path d="m15.999 21.917 5.691-3.437v-6.097l-5.691 3.437z" fill="url(#e)"/><path d="m27.3849 21.917-5.695-3.437v-6.097l5.695 3.437z" fill="url(#f)"/><path d="m15.999 8.917-4.406 2.661 4.406 2.66 4.406-2.66z" fill="url(#g)"/></svg>