<svg width="32" height="32" fill="none" xmlns="http://www.w3.org/2000/svg"><path d="M16 32c8.837 0 16-7.163 16-16S24.837 0 16 0 0 7.163 0 16s7.163 16 16 16Z" fill="#03133B"/><path fill-rule="evenodd" clip-rule="evenodd" d="M20 22a6 6 0 0 0 5.999-5.9V16c0 5.523-4.476 10-10 10C10.478 26 6 21.523 6 16h8a6 6 0 0 0 6 6Z" fill="url(#a)"/><path fill-rule="evenodd" clip-rule="evenodd" d="M12 22a6 6 0 0 1-5.998-5.9L6 16c0 5.523 4.477 10 10 10 5.522 0 10-4.477 10-10h-8a6 6 0 0 1-6 6Z" fill="url(#b)"/><path fill-rule="evenodd" clip-rule="evenodd" d="M12 10a6 6 0 0 0-5.998 5.9L6 16c0-5.523 4.477-10 10-10 5.522 0 10 4.477 10 10h-8a6 6 0 0 0-6-6Z" fill="url(#c)"/><path fill-rule="evenodd" clip-rule="evenodd" d="M20 10a6 6 0 0 1 5.999 5.9v.1c0-5.523-4.476-10-10-10C10.478 6 6 10.477 6 16h8a6 6 0 0 1 6-6Z" fill="url(#d)"/><path d="M13.9 15.9H6.1v.2h7.8v-.2Z" fill="#EF9146"/><path d="M25.9 15.9h-7.8v.2h7.8v-.2Z" fill="#E57622"/><defs><linearGradient id="a" x1="10.375" y1="16" x2="10.687" y2="26" gradientUnits="userSpaceOnUse"><stop stop-color="#EF9146"/><stop offset="1" stop-color="#E0592E"/></linearGradient><linearGradient id="b" x1="16" y1="16" x2="16" y2="26" gradientUnits="userSpaceOnUse"><stop stop-color="#E57722"/><stop offset="1" stop-color="#F2B24C"/></linearGradient><linearGradient id="c" x1="20.68" y1="16" x2="20.68" y2="5.575" gradientUnits="userSpaceOnUse"><stop stop-color="#E57722"/><stop offset="1" stop-color="#DD4A33"/></linearGradient><linearGradient id="d" x1="10.062" y1="16" x2="10.062" y2="6" gradientUnits="userSpaceOnUse"><stop stop-color="#EF9046"/><stop offset="1" stop-color="#F3C44F"/></linearGradient></defs></svg>