<svg fill="none" height="32" viewBox="0 0 32 32" width="32" xmlns="http://www.w3.org/2000/svg"><path d="m16 32c8.8366 0 16-7.1634 16-16 0-8.83656-7.1634-16-16-16-8.83656 0-16 7.16344-16 16 0 8.8366 7.16344 16 16 16z" fill="#fff"/><path d="m17.5943 17.5039c1.3526-.369 2.5485-1.1678 3.4074-2.276.8589-1.1081 1.3341-2.4656 1.3539-3.8675-.0212-1.67798-.6963-3.28152-1.8817-4.4694s-2.7876-1.86633-4.4655-1.891c-1.6781.02477-3.2802.70332-4.4656 1.89128s-1.86053 2.79156-1.8817 4.46962c-.07512 1.4749.3957 2.9257 1.3225 4.0755.9268 1.1497 2.2446 1.9178 3.7018 2.1575v1.4685h-3.7014v1.9204h3.7014v1.3444h-3.7014v1.9203h3.7014v2.7525h2.9089v-2.7525h3.4432v-1.9203h-3.4432v-1.3444h3.4433v-1.9204h-3.4433zm-5.0243-6.4079c-.0011-.4522.0871-.9002.2594-1.31835.1723-.41812.4254-.79814.7448-1.1183.3193-.32016.6988-.57417 1.1165-.74748s.8654-.26252 1.3177-.26252c.4522 0 .9.08921 1.3177.26252s.7971.42732 1.1165.74748.5725.70018.7448 1.1183c.1723.41815.2604.86615.2593 1.31835.0011.4522-.087.9002-.2593 1.3183-.1723.4182-.4254.7982-.7448 1.1183-.3194.3202-.6988.5742-1.1165.7475s-.8655.2626-1.3177.2626c-.4523 0-.9-.0893-1.3177-.2626s-.7972-.4273-1.1165-.7475c-.3194-.3201-.5725-.7001-.7448-1.1183-.1723-.4181-.2605-.8661-.2594-1.3183z" fill="#00a147"/></svg>