<svg xmlns="http://www.w3.org/2000/svg" width="32" height="32" fill="none"><path fill="#fff" d="M16 32c8.837 0 16-7.163 16-16S24.837 0 16 0 0 7.163 0 16s7.163 16 16 16Z"/><path fill="#00A147" d="M17.594 17.504a6.463 6.463 0 0 0 4.762-6.144A6.443 6.443 0 0 0 16.008 5a6.443 6.443 0 0 0-6.347 6.36 6.007 6.007 0 0 0 5.024 6.234v1.468h-3.701v1.92h3.701v1.345h-3.701v1.92h3.701V27h2.91v-2.753h3.443v-1.92h-3.444v-1.344h3.444v-1.92h-3.444v-1.56Zm-5.024-6.408a3.439 3.439 0 1 1 6.877 0 3.438 3.438 0 1 1-6.877 0Z"/></svg>