<svg xmlns="http://www.w3.org/2000/svg" width="32" height="32" fill="none"><path fill="#fff" fill-rule="evenodd" d="M16 32C7.164 32 0 24.836 0 16S7.164 0 16 0s16 7.164 16 16-7.164 16-16 16Z" clip-rule="evenodd"/><path fill="#5D9BEC" fill-rule="evenodd" d="M25.378 11.666a1.528 1.528 0 1 1-3.056 0 1.528 1.528 0 0 1 3.056 0Zm0 8.702a1.528 1.528 0 1 1-3.056 0 1.528 1.528 0 0 1 3.056 0ZM9.68 11.666a1.529 1.529 0 1 1-3.058 0 1.529 1.529 0 0 1 3.058 0Zm0 8.702a1.529 1.529 0 1 1-3.058 0 1.529 1.529 0 0 1 3.058 0Z" clip-rule="evenodd"/><path fill="#B0DBFF" fill-rule="evenodd" d="M8.151 18.512c.25 0 .486.05.703.139v-5.268a1.85 1.85 0 0 1-1.437-.013v5.294c.225-.098.473-.152.734-.152Zm13.867-6.553-6.02 3.475-6.016-3.473a1.856 1.856 0 0 1-.761 1.22l6.723 3.882.055.031.055-.031 6.725-3.883a1.857 1.857 0 0 1-.761-1.22Zm1.831 6.553c.26 0 .507.054.732.15v-5.291a1.842 1.842 0 0 1-1.437.012v5.268a1.86 1.86 0 0 1 .706-.14" clip-rule="evenodd"/><path fill="#B0DBFF" fill-rule="evenodd" d="m16.172 6.62-.005-.002h-.002a.296.296 0 0 0-.033-.017l-.004-.001-.004-.002-.031-.01-.01-.003a.588.588 0 0 0-.032-.006l-.01-.002a.289.289 0 0 0-.04-.002h-.004c-.013 0-.025 0-.038.002h-.003l-.007.002a.421.421 0 0 0-.032.006l-.012.003-.035.012a.302.302 0 0 0-.036.017h-.002l-.005.004-6.402 3.696c.169.16.307.35.406.562l5.823-3.361v4.358a.347.347 0 0 0 .59.244.346.346 0 0 0 .101-.244V7.518l5.824 3.362c.1-.212.237-.403.407-.563l-6.404-3.695V6.62Z" clip-rule="evenodd"/><path fill="#5D9BEC" fill-rule="evenodd" d="M17.527 16.017a1.53 1.53 0 1 1-3.058 0 1.53 1.53 0 0 1 3.059 0Z" clip-rule="evenodd"/><path fill="#B0DBFF" fill-rule="evenodd" d="m22.156 21.127-5.812 3.356v-4.358a.346.346 0 0 0-.69 0v4.358l-5.81-3.355a1.861 1.861 0 0 1-.398.568l6.38 3.683.005.003.002.001a.356.356 0 0 0 .034.016l.003.002h.004a.19.19 0 0 0 .032.011l.01.003c.01.003.02.005.031.006l.01.002a.311.311 0 0 0 .082 0h.003l.007-.001.032-.007.01-.003a.266.266 0 0 0 .073-.03h.002l.006-.003 6.38-3.683a1.862 1.862 0 0 1-.396-.57" clip-rule="evenodd"/></svg>