<svg fill="none" height="32" viewBox="0 0 32 32" width="32" xmlns="http://www.w3.org/2000/svg"><path d="m16 32c8.8366 0 16-7.1634 16-16 0-8.83656-7.1634-16-16-16-8.83656 0-16 7.16344-16 16 0 8.8366 7.16344 16 16 16z" fill="#131735"/><path d="m24.3356 8.457c-.6364-.5015-1.3806-.84832-2.1738-1.01312-.7933-.16479-1.614-.14304-2.3975.06352-.821.27715-1.5752.72245-2.2145 1.30749-.1366.11614-.536.51193-.9595.93817l2.0392 1.86484.1628.1628c.3346-.3132.6348-.5999.7195-.698.2473-.3027.568-.5369.9316-.6805.3576-.1103.7381-.1241 1.1028-.04.3647.084.7008.2629.9741.5186.2379.2439.4207.5361.536.8567.1153.3207.1604.6624.1323 1.002-.0151.9553-.021 1.9109-.0288 2.8663-.0193 2.3493-.034 4.6986-.0597 7.0478-.0045.409-.0098.818-.0158 1.227-.0061.3744-.0783.9439.4358.9627.6631-.0176 1.2941-.2887 1.7635-.7574.5103-.4896.8058-1.1615.8217-1.8685.0597-3.2337.1002-6.4682.0973-9.7023.028-.7754-.1264-1.5464-.4506-2.2512-.3243-.70484-.8094-1.32372-1.4164-1.8069z" fill="#4aa5d7"/><path d="m19.3427 13.4317c-.2388-.1701-4.1721-3.77041-4.6163-4.17671-.4163-.40871-.8668-.78106-1.3465-1.11299-.9712-.64658-2.141-.92603-3.2996-.78825-1.07971.15872-2.08862.63243-2.90039 1.36182-.64756.58779-1.115 1.34733-1.348 2.19023-.21988 1.0726-.29372 2.1701-.21951 3.2625-.00322 1.3081-.0033 2.6162-.00026 3.9243.00239 1.306-.04675 2.6251.03355 3.929.00275.5093.12373 1.0109.3534 1.4655.22294.3905.54066.7186.92384.954.37878.2455.81614.3856 1.26707.406.39794.0014.47509-.3148.46788-.6588-.00178-.0848-.00336-.1695-.00475-.2543-.01955-1.1557-.0265-2.3117-.03445-3.4675-.01032-1.5025-.01791-3.005-.02277-4.5075-.00374-1.1322-.00813-2.2645-.00311-3.3967-.02793-.3591.03747-.7193.18985-1.0457.15239-.3263.38658-.6077.67983-.8169.38961-.2676.85412-.4045 1.32662-.3911.4891.0477.9468.2626 1.2959.6085 1.8205 1.6183 3.6391 3.2388 5.4558 4.8614.1865.1599.3389.3557.4479.5759.1546.4467.1507.933-.0111 1.3771s-.4716.819-.8773 1.0615c-.3893.2372-.8415.3502-1.2966.3238-.4551-.0263-.8913-.1907-1.2505-.4713-.3631-.2785-.6207-.6721-.7306-1.1163s-.0655-.9126.1258-1.3282c.1163-.1943.2602-.3707.4271-.5238.1754-.1665.7206-.6694.8254-.8062l-2.13-1.9457c-.2208.1449-.4314.3049-.6302.4787-.1893.1733-.3792.3463-.5603.5283-.3735.3537-.6747.7765-.887 1.245-.1815.4639-.2824.9554-.2983 1.4533-.049.9817.1764 1.9577.6509 2.8186.4744.8609 1.1792 1.5728 2.0353 2.0557.9185.4833 1.9571.6907 2.9908.5974 1.0336-.0934 2.0182-.4835 2.8353-1.1235 2.1199-1.6761 2.7259-5.7023.1353-7.5471z" fill="#fafafb"/></svg>