<svg xmlns="http://www.w3.org/2000/svg" width="32" height="32" fill="none"><path fill="#131735" d="M16 32c8.837 0 16-7.163 16-16S24.837 0 16 0 0 7.163 0 16s7.163 16 16 16Z"/><path fill="#4AA5D7" d="M24.336 8.457a5.232 5.232 0 0 0-4.572-.95 6.233 6.233 0 0 0-2.214 1.308 26.81 26.81 0 0 0-.96.938l2.04 1.865.162.163c.335-.314.635-.6.72-.698.247-.303.568-.537.931-.68a2.123 2.123 0 0 1 2.077.478 2.381 2.381 0 0 1 .669 1.858c-.015.956-.021 1.911-.03 2.867-.018 2.35-.033 4.698-.059 7.048-.004.409-.01.818-.016 1.227-.006.374-.078.944.436.962a2.593 2.593 0 0 0 1.764-.757c.51-.49.805-1.162.821-1.869.06-3.233.1-6.468.098-9.702a4.959 4.959 0 0 0-1.867-4.058Z"/><path fill="#FAFAFB" d="M19.343 13.432c-.24-.17-4.172-3.77-4.617-4.177a10.235 10.235 0 0 0-1.346-1.113 4.908 4.908 0 0 0-3.3-.788 5.547 5.547 0 0 0-2.9 1.362 4.62 4.62 0 0 0-1.348 2.19 12.147 12.147 0 0 0-.22 3.262 820.03 820.03 0 0 0 0 3.925c.003 1.306-.047 2.625.034 3.929.002.509.123 1.01.353 1.465.223.39.54.719.924.954a2.54 2.54 0 0 0 1.267.406c.398.002.475-.315.468-.659l-.005-.254c-.02-1.156-.026-2.312-.034-3.468-.01-1.502-.018-3.005-.023-4.507-.004-1.132-.008-2.264-.003-3.397a2.089 2.089 0 0 1 .87-1.862c.39-.268.854-.405 1.326-.391.49.047.947.262 1.296.608 1.82 1.618 3.64 3.239 5.456 4.861.186.16.339.356.448.576a2.057 2.057 0 0 1-.889 2.439 2.242 2.242 0 0 1-2.547-.148 2.017 2.017 0 0 1-.605-2.444c.117-.194.26-.37.428-.524.175-.166.72-.67.825-.806l-2.13-1.946a5.84 5.84 0 0 0-.63.479c-.19.173-.38.346-.56.528a3.973 3.973 0 0 0-.888 1.245 4.372 4.372 0 0 0-.298 1.454 5.293 5.293 0 0 0 2.686 4.874 5.383 5.383 0 0 0 5.826-.526c2.12-1.676 2.726-5.702.136-7.547Z"/></svg>