<svg fill="none" height="32" viewBox="0 0 32 32" width="32" xmlns="http://www.w3.org/2000/svg"><path d="m16 32c8.8366 0 16-7.1634 16-16 0-8.83656-7.1634-16-16-16-8.83656 0-16 7.16344-16 16 0 8.8366 7.16344 16 16 16z" fill="#000"/><g fill="#fff"><path d="m8.6731 22.007 6.956 4.376h.842l6.844-4.376-1.066-.841-6.227 3.983-6.451-3.983zm3.366-10.153 3.927-5.94701 4.039 6.00301.954-.842-4.488-6.73101s-.393-.505-1.01 0l-4.6 6.90001z" fill-opacity=".7"/><path d="m16.078 23.859c.224-.786.505-1.515.73-2.3 1.01-3.142 2.019-6.34 3.029-9.481.056-.168.112-.393.168-.56.112-.338.28-.506.617-.506.1463-.0039.2892.045.4024.1377.1133.0927.1895.2231.2146.3673.28 1.122.505 2.3.785 3.422.505 2.132.954 4.32 1.459 6.451.112.505-.056.842-.449.954s-.673-.168-.785-.673c-.561-2.412-1.122-4.825-1.627-7.293 0-.112-.056-.168-.112-.337-.0465.1535-.103.3038-.169.45-1.065 3.253-2.075 6.507-3.141 9.76-.168.617-.393 1.178-.561 1.795-.112.393-.337.561-.673.561-.337 0-.561-.168-.673-.56-1.234-3.871-2.469-7.742-3.647-11.613-.056-.112-.056-.168-.112-.393-.1.5076-.2121 1.0127-.336 1.515-.45 2.02-.898 4.095-1.34698 6.115-.112.56-.56.841-1.01.56-.28-.168-.336-.448-.28-.785.617-2.805 1.29-5.61 1.90698-8.414.112-.45.225-.898.28-1.347.113-.448.337-.673.674-.673s.56.225.673.673c1.29 4.04 2.58 8.135 3.815 12.174z"/></g></svg>