<svg xmlns="http://www.w3.org/2000/svg" width="32" height="32" fill="none"><path fill="#6E2EF4" d="M16 32c8.837 0 16-7.163 16-16S24.837 0 16 0 0 7.163 0 16s7.163 16 16 16Z"/><path fill="#fff" d="m15.727 20.965 5.238-5.238a1.854 1.854 0 0 1 3.16 1.31c0 .49-.195.962-.541 1.31l-5.238 5.236a1.854 1.854 0 0 1-2.619 0 1.854 1.854 0 0 1 0-2.618Zm-7.31-4.692a1.854 1.854 0 0 0 2.618 0l5.238-5.238a1.854 1.854 0 0 0 0-2.618 1.854 1.854 0 0 0-2.62 0l-5.236 5.237a1.854 1.854 0 0 0 0 2.619Zm5.618 1.69a1.854 1.854 0 0 0 2.619 0l1.31-1.31a1.854 1.854 0 0 0 0-2.618 1.854 1.854 0 0 0-2.62 0l-1.31 1.31a1.854 1.854 0 0 0 0 2.618Z"/></svg>