<svg fill="none" height="32" viewBox="0 0 32 32" width="32" xmlns="http://www.w3.org/2000/svg"><path d="m16 32c8.8366 0 16-7.1634 16-16 0-8.83656-7.1634-16-16-16-8.83656 0-16 7.16344-16 16 0 8.8366 7.16344 16 16 16z" fill="#6e2ef4"/><path d="m15.7274 20.9646 5.2372-5.2372c.3475-.3468.8184-.5415 1.3094-.5415s.9619.1947 1.3095.5415c.3468.3476.5415.8185.5415 1.3095 0 .4909-.1947.9619-.5415 1.3094l-5.2372 5.2372c-.3475.3468-.8185.5415-1.3094.5415-.491 0-.9619-.1947-1.3095-.5415-.3468-.3476-.5415-.8185-.5415-1.3095s.1947-.9619.5415-1.3094zm-7.31088-4.692c.34754.3466.81831.5412 1.30911.5412.49077 0 .96157-.1946 1.30917-.5412l5.2378-5.2378c.3466-.3476.5412-.8184.5412-1.30917 0-.4908-.1946-.96157-.5412-1.30911-.3476-.34677-.8185-.54152-1.3095-.54152-.4909 0-.9619.19475-1.3094.54152l-5.23718 5.23718c-.34677.3475-.54152.8185-.54152 1.3094 0 .491.19475.9619.54152 1.3095zm5.61828 1.6906c.3475.3467.8185.5415 1.3094.5415.491 0 .9619-.1948 1.3095-.5415l1.3095-1.3095c.3467-.3476.5415-.8185.5415-1.3095 0-.4909-.1948-.9619-.5415-1.3094-.3476-.3468-.8185-.5415-1.3095-.5415s-.9619.1947-1.3095.5415l-1.3094 1.3094c-.3468.3476-.5415.8185-.5415 1.3095s.1947.9619.5415 1.3095z" fill="#fff"/></svg>