<svg xmlns="http://www.w3.org/2000/svg" width="32" height="32" fill="none"><defs><linearGradient id="mina__b" x1="16" x2="16" y1="32" y2="0" gradientUnits="userSpaceOnUse"><stop stop-color="#8472F3"/><stop offset=".6" stop-color="#DD6431"/><stop offset="1" stop-color="#D0C9BE"/></linearGradient><clipPath id="mina__a"><path fill="#fff" d="M0 0h32v32H0z"/></clipPath></defs><g clip-path="url(#mina__a)"><path fill="url(#mina__b)" d="M14.06.111a16.21 16.21 0 0 1 9.813 1.923 15.982 15.982 0 0 1 7.33 8.913 16.36 16.36 0 0 1-.485 11.396 16.018 16.018 0 0 1-8.2 8.301 16.305 16.305 0 0 1-13.549-.24 16.017 16.017 0 0 1-7.373-7.374A16.283 16.283 0 0 1 1.68 8.796 15.966 15.966 0 0 1 14.06.11Zm-6.057 6.12c-1.037.53-.406 2.09-1.398 2.651a4.051 4.051 0 0 0-1.324 1.463 8.478 8.478 0 0 0-.324 3.371c.013 3.952.018 7.901-.005 11.853.94.002 1.882.002 2.823 0 .007-5.545-.076-11.094.04-16.636a55.446 55.446 0 0 1 2.154-.076c.54 3.804.966 7.627 1.521 11.428a4.165 4.165 0 0 0 2.638 3.146c.066.57.187 1.133.36 1.681a1.554 1.554 0 0 0 2.54.272c.218-.624.405-1.258.56-1.9.58-.548 1.38-.84 1.851-1.507.542-.873.85-1.872.895-2.899.421-3.404.88-6.805 1.31-10.209.73-.005 1.46.02 2.19.061.069 5.55-.002 11.102.036 16.651a177.1 177.1 0 0 1 2.823-.005c.038-4.55.038-9.1 0-13.65a3.872 3.872 0 0 0-2.181-3.391 9.778 9.778 0 0 0-.264-1.558 1.58 1.58 0 0 0-2.524-.477c-.504.716-.383 1.852-1.303 2.24a4.329 4.329 0 0 0-2.116 3.467c-.474 3.556-.887 7.122-1.324 10.683a22.76 22.76 0 0 1-2.292.026c-.462-3.457-.87-6.92-1.307-10.382a5.827 5.827 0 0 0-.984-2.823c-.484-.629-1.255-.923-1.8-1.478a12.711 12.711 0 0 0-.65-1.664 1.739 1.739 0 0 0-1.945-.337Z"/><path fill="#fff" d="M8.003 6.232a1.739 1.739 0 0 1 1.945.337c.255.539.473 1.095.65 1.664.545.555 1.316.85 1.8 1.478.568.84.908 1.813.985 2.823.436 3.463.844 6.925 1.306 10.382.763.028 1.53.023 2.293-.026.436-3.56.85-7.127 1.323-10.683a4.329 4.329 0 0 1 2.116-3.467c.92-.388.799-1.524 1.303-2.24a1.582 1.582 0 0 1 2.524.477 9.8 9.8 0 0 1 .264 1.558 3.872 3.872 0 0 1 2.181 3.39c.046 4.55.046 9.101 0 13.651a177.1 177.1 0 0 0-2.823.005c-.038-5.55.033-11.101-.035-16.65a34.847 34.847 0 0 0-2.192-.062c-.428 3.404-.887 6.805-1.309 10.21a6.004 6.004 0 0 1-.895 2.898c-.472.667-1.27.959-1.851 1.507a19.46 19.46 0 0 1-.56 1.9 1.553 1.553 0 0 1-2.54-.272 9.022 9.022 0 0 1-.36-1.681 4.166 4.166 0 0 1-2.638-3.146c-.555-3.802-.981-7.624-1.521-11.428-.718.007-1.436.04-2.154.076-.116 5.542-.033 11.091-.04 16.636-.941.002-1.882.002-2.823 0 .023-3.952.018-7.901.005-11.853a8.478 8.478 0 0 1 .325-3.37 4.05 4.05 0 0 1 1.324-1.464c.991-.56.36-2.12 1.397-2.65Z"/></g></svg>