<svg xmlns="http://www.w3.org/2000/svg" width="32" height="32" fill="none"><path fill="#013878" d="M16 32c8.837 0 16-7.163 16-16S24.837 0 16 0 0 7.163 0 16s7.163 16 16 16Z"/><path fill="#fff" d="m26.88 20.55-2.958-4.44-4.056-7.212a.518.518 0 0 0-.496-.267.533.533 0 0 0-.41.318l-2.71 5.787a.19.19 0 0 1-.155.103.122.122 0 0 1-.114-.053l-2.663-3.717a.473.473 0 0 0-.411-.21.556.556 0 0 0-.403.25L8.47 17.056l-.007.008-3.32 3.492a.513.513 0 0 0-.11.53.47.47 0 0 0 .432.285l21.034-.002a.555.555 0 0 0 .466-.246.662.662 0 0 0-.085-.572Zm-7.278-9.723a.129.129 0 0 1 .242-.06l2.757 4.91a.13.13 0 0 1-.001.129.13.13 0 0 1-.142.06l-2.87-.701a.129.129 0 0 1-.098-.13l.112-4.208Zm-3.199 5.983v-.002l.03.003-.03-.003a2.22 2.22 0 0 1 .094-.482c.081-.202.206-.47.231-.525l.003-.008 2.173-4.539a.13.13 0 0 1 .146-.07.13.13 0 0 1 .099.13l-.104 3.87a.12.12 0 0 1-.03.08l-2.414 2.885a.126.126 0 0 1-.098.046.13.13 0 0 1-.108-.056.128.128 0 0 1-.022-.075l.03-1.254Zm-3.631-1.837.244-2.354a.128.128 0 0 1 .095-.112.13.13 0 0 1 .138.049l2.345 3.199c.12.16.222.332.307.513.049.157.07.321.06.485v.035l.002.01-.033 1.393a.127.127 0 0 1-.084.117.125.125 0 0 1-.14-.033l-1.794-1.94-.001-.002-1.108-1.261a.128.128 0 0 1-.032-.099Zm-2.336.86 1.842-2.71a.13.13 0 0 1 .234.085l-.176 1.7a.13.13 0 0 1-.061.096l-1.666 1.012a.127.127 0 0 1-.16-.02.126.126 0 0 1-.013-.162Zm-.58 4.54a.128.128 0 0 1-.108.057H6.86a.129.129 0 0 1-.094-.217l1.979-2.082a.13.13 0 0 1 .173-.012c.017.013.03.03.039.05l.91 2.081a.128.128 0 0 1-.01.122Zm.616-.048-.018-.001a.138.138 0 0 1-.111-.083L9.26 17.766a.404.404 0 0 1-.026-.121.264.264 0 0 1 .054-.123l.122-.178a.884.884 0 0 1 .11-.126c.072-.06.15-.115.231-.164l.007-.005 2.643-1.606a.129.129 0 0 1 .164.025l.838.954a.105.105 0 0 1 .005.134l-2.825 3.713a.137.137 0 0 1-.111.056Zm4.043.105H11.3a.128.128 0 0 1-.128-.14.13.13 0 0 1 .025-.066l2.471-3.282a.13.13 0 0 1 .198-.01l1.883 2.038a.128.128 0 0 1 0 .175l-1.139 1.244a.13.13 0 0 1-.095.041Zm3.69-.09a.111.111 0 0 1-.111.09h-2.632a.13.13 0 0 1-.127-.15.128.128 0 0 1 .032-.065l.753-.823a.128.128 0 0 1 .148-.03l1.873.85a.112.112 0 0 1 .064.129Zm4.248.021a.13.13 0 0 1-.114.07h-2.554a.472.472 0 0 1-.192-.042l-2.956-1.343a.128.128 0 0 1-.045-.2l2.547-3.045a.123.123 0 0 1 .105-.046.13.13 0 0 1 .1.055l3.1 4.418a.129.129 0 0 1 .009.133Zm.584-.453a.128.128 0 0 1-.13.12.127.127 0 0 1-.104-.056l-2.828-4.028a.13.13 0 0 1 .06-.194.128.128 0 0 1 .077-.005l2.719.665a.83.83 0 0 1 .191.065c.036.03.067.064.092.104l.08.126.002.007c.02.033.036.069.047.106.007.042.01.084.01.126v.008l-.216 2.956Zm2.508.455a.126.126 0 0 1-.114.067H23.58a.128.128 0 0 1-.122-.086.129.129 0 0 1-.006-.052l.183-2.504a.128.128 0 0 1 .096-.115.129.129 0 0 1 .14.053l1.669 2.504a.126.126 0 0 1 .006.133Z"/></svg>