<svg fill="none" height="32" viewBox="0 0 32 32" width="32" xmlns="http://www.w3.org/2000/svg"><path d="m16 32c8.8366 0 16-7.1634 16-16 0-8.83656-7.1634-16-16-16-8.83656 0-16 7.16344-16 16 0 8.8366 7.16344 16 16 16z" fill="#013878"/><path d="m26.8796 20.5505-2.9578-4.4403c-.0133-.0238-4.0157-7.14025-4.0563-7.21199-.0451-.08203-.1116-.15029-.1924-.1975-.0808-.0472-.1729-.0716-.2665-.07057-.0121 0-.0243.00022-.0365.00119-.0898.01362-.1747.04999-.2465.10565s-.1282.12876-.1638.21235v-.00006l-2.709 5.78633c-.0148.0293-.037.0543-.0644.0725s-.059.0289-.0918.0311c-.0219.0022-.044-.0015-.064-.0109-.0199-.0093-.037-.0238-.0493-.0421l-2.6638-3.7171c-.0448-.0673-.106-.122-.178-.1589-.0719-.0369-.152-.0548-.2328-.052h-.0004c-.0814.0096-.1597.0372-.2292.0806-.0695.0435-.1285.1017-.1728.1707l-4.03457 5.9456-.00639.0075-3.31941 3.4924c-.06621.0692-.1117.1556-.13133.2494-.01964.0937-.01262.1911.02025.2811.03627.0844.09651.1564.17327.2069.07676.0506.16666.0775.25856.0774l21.03392-.0019c.092.0008.1827-.0213.2641-.0643.0813-.0429.1507-.1053.202-.1817.03-.0955.0379-.1965.0232-.2955s-.0518-.1933-.1083-.2759zm-7.2773-9.7233v-.0002c.0008-.0282.0108-.0554.0285-.0773.0177-.022.0422-.0376.0696-.0443.0273-.0068.0562-.0044.0821.0069.0259.0112.0474.0306.0612.0552l2.7577 4.9104c.0108.0196.0164.0417.0162.064-.0003.0224-.0063.0443-.0176.0637-.0113.0193-.0274.0354-.0467.0466-.0193.0113-.0413.0173-.0637.0175-.0107 0-.0213-.0013-.0317-.0037l-2.8695-.7015c-.0286-.007-.054-.0236-.0718-.047-.0179-.0234-.0272-.0523-.0264-.0817zm-3.1989 5.9832.0002-.002.0295.0027-.0295-.0031c.0132-.1636.0445-.3252.0933-.4818.0811-.2021.2064-.471.2314-.5248l.0025-.0082 2.173-4.5392c.0128-.0266.0343-.048.0609-.0607.0267-.0126.0569-.0158.0855-.0089.0287.007.0541.0235.0721.047.0179.0234.0272.0523.0264.0817l-.1032 3.8708c-.0006.0291-.0113.057-.0301.0793l-2.4147 2.8862c-.0119.0145-.0269.0261-.0439.0341-.017.0079-.0355.0121-.0543.012-.0157.0001-.0314-.0027-.0461-.0082-.0251-.0093-.0467-.0263-.0617-.0485s-.0226-.0486-.0218-.0753zm-3.6319-1.837.2449-2.3546v-.0001c.0026-.026.0131-.0505.03-.0703.0168-.0199.0393-.0342.0645-.041s.0518-.0059.0764.0027.046.0245.0614.0455l2.3453 3.1989c.1195.1603.2223.3323.307.5134.0487.1569.0691.3213.0601.4854l.0004.0345.0018.0096-.0338 1.3932c-.0004.0257-.0085.0508-.0234.0717-.0149.021-.0358.037-.0599.0459-.015.0055-.0308.0084-.0467.0084-.0176 0-.035-.0037-.0511-.0109s-.0305-.0176-.0423-.0307l-1.7936-1.9405-.0017-.0015-1.108-1.261c-.0118-.0133-.0207-.029-.0261-.0459-.0054-.017-.0072-.035-.0052-.0527zm-2.3359.8605 1.842-2.7118c.0162-.0237.0397-.0414.0671-.0502.0273-.0088.0567-.0082.0837.0016s.0499.0284.0651.0527.0219.053.0189.0816l-.1766 1.6998c-.0021.0197-.0087.0387-.0193.0555s-.0248.0309-.0417.0413l-1.6656 1.0119c-.025.0158-.0547.0223-.084.0185-.0293-.0039-.0564-.0179-.0764-.0397-.0207-.021-.0333-.0487-.0357-.0781-.0024-.0295.0055-.0588.0225-.083zm-.57977 4.5382c-.01165.018-.02761.0327-.04643.0429s-.0399.0155-.06131.0155h-2.8891c-.02522.0001-.0499-.0073-.07098-.0211-.02108-.0139-.03762-.0336-.04759-.0568-.00996-.0231-.0129-.0487-.00844-.0735.00445-.0249.0161-.0478.03349-.0661l1.97847-2.0819c.01467-.0154.03292-.0269.05313-.0336.0202-.0066.04175-.0082.0627-.0045s.04067.0125.05739.0257c.01672.0131.02993.0302.03845.0497l.91052 2.0817c.00862.0196.01219.041.0104.0623-.0018.0214-.00892.0419-.0207.0597zm.61567-.0473-.017-.0011c-.0243-.0027-.0474-.0118-.0671-.0264-.0196-.0146-.035-.0341-.0446-.0566l-1.08281-2.4745c-.01473-.0389-.02337-.0798-.0256-.1213.00705-.045.02563-.0875.05395-.1232l.12156-.178c.03256-.0452.06933-.0872.10982-.1255.0727-.0606.15007-.1155.23139-.164l.00655-.0054 2.64354-1.6056c.0258-.0158.0564-.022.0863-.0175.03.0045.0574.0194.0774.0422l.8385.9545c.0161.0182.0254.0415.0263.0658.001.0243-.0065.0481-.0212.0675l-2.8259 3.7138c-.0129.0173-.0297.0312-.049.0408s-.0406.0146-.0621.0146zm4.0437.1057h-3.2151c-.0239 0-.0474-.0067-.0678-.0194-.0203-.0126-.0367-.0306-.0474-.0521-.0107-.0214-.0152-.0454-.013-.0692.0022-.0239.011-.0466.0254-.0658l2.471-3.2815c.0114-.0151.0261-.0275.0429-.0364.0168-.0088.0353-.0138.0542-.0147.0188-.0007.0375.0026.0549.0097.0173.0071.033.0178.0459.0314l1.8831 2.0377c.0221.0237.0344.0548.0344.0872 0 .0323-.0122.0635-.0342.0872l-1.1392 1.244c-.0121.0132-.0268.0238-.0432.031-.0163.0072-.034.0109-.0519.0109zm3.69-.0899c-.0051.0257-.019.0487-.0394.0651s-.0458.0252-.072.0248h-2.6317c-.025 0-.0495-.0072-.0704-.0208-.021-.0136-.0375-.0331-.0476-.0559-.01-.0229-.0132-.0482-.0091-.0729.004-.0246.0152-.0476.0321-.066l.7531-.8228c.0183-.0202.0425-.0341.0692-.0396.0266-.0055.0544-.0023.0791.0091l1.8725.8507c.0241.0105.0437.029.0555.0525.0117.0235.0148.0503.0087.0758zm4.2478.0205c-.0109.021-.0273.0385-.0474.0508-.0202.0122-.0433.0186-.0668.0186h-2.5538c-.0663-.0002-.1318-.0143-.1923-.0415l-2.9555-1.343c-.018-.0082-.034-.0204-.0465-.0358-.0126-.0154-.0214-.0335-.0258-.0528-.0045-.0194-.0043-.0395.0003-.0588.0047-.0193.0137-.0372.0264-.0525l2.5475-3.0448c.0124-.0156.0284-.028.0466-.036s.0382-.0114.058-.01c.0197.0009.039.0063.0563.0158s.0322.0229.0434.0391h.0001l3.101 4.4174c.0135.0193.0215.042.023.0656s-.0035.0471-.0145.068zm.584-.4533c-.0018.0266-.0118.052-.0287.0726s-.0398.0353-.0655.0422c-.0115.0033-.0233.0049-.0352.0049-.0206 0-.0409-.005-.0592-.0146s-.0339-.0235-.0457-.0405v.0003l-2.8273-4.0282c-.0151-.0215-.0233-.0471-.0235-.0733-.0001-.0263.0077-.0519.0226-.0736.0148-.0217.0359-.0383.0604-.0476.0246-.0094.0514-.011.0768-.0047l2.719.6643c.0662.0139.1305.0359.1914.0654.0362.0292.0672.0643.0917.1038l.0795.1264.0031.0068c.0199.0333.0357.0689.0471.106.0062.0417.0094.0839.0095.1261l.0005.0076zm2.5079.4548c-.0108.0207-.0271.0379-.0472.0499-.02.012-.043.0182-.0663.018h-1.8522c-.0178 0-.0353-.0037-.0515-.0108s-.0308-.0174-.0429-.0304c-.0121-.0129-.0214-.0282-.0273-.0449s-.0083-.0345-.007-.0522l.1834-2.5041c.0019-.0268.0122-.0523.0294-.0729.0171-.0207.0403-.0355.0663-.0423.026-.0069.0534-.0054.0786.0041.0251.0095.0466.0267.0615.049l1.6693 2.5042c.0132.0194.0207.042.0217.0654.0011.0234-.0044.0466-.0158.067z" fill="#fff"/></svg>