<svg fill="none" height="32" viewBox="0 0 32 32" width="32" xmlns="http://www.w3.org/2000/svg"><path d="m16 32c8.8366 0 16-7.1634 16-16 0-8.83656-7.1634-16-16-16-8.83656 0-16 7.16344-16 16 0 8.8366 7.16344 16 16 16z" fill="#1aab9b"/><g fill="#fff"><path d="m8.99194 20.1595v-6.7773l5.13966 3.8678v2.9095h1.3123v-3.1823c0-.2405-.113-.467-.3052-.6116l-6.23325-4.6908c-.50445-.3797-1.22576-.0197-1.22576.6116v7.8731z"/><path d="m23.2068 20.1595v-6.7773l-5.1397 3.8678v2.9095h-1.3122v-3.1823c0-.2405.113-.467.3052-.6116l6.2332-4.6908c.5045-.3797 1.2258-.0197 1.2258.6116v7.8731z"/></g></svg>