<svg width="32" height="32" fill="none" xmlns="http://www.w3.org/2000/svg"><path d="M16 32c8.837 0 16-7.163 16-16S24.837 0 16 0 0 7.163 0 16s7.163 16 16 16Z" fill="url(#a)"/><path d="M16.635 10.475a1.975 1.975 0 1 1 3.95 0v5.729h-3.95v-5.729Z" fill="#fff"/><path d="M16.635 22.007a2.051 2.051 0 1 1-4.102 0v-5.804h4.102v5.804Z" fill="#fff"/><path d="M9.95 12.36a1.291 1.291 0 1 1 2.583 0v3.845H9.95V12.36Z" fill="#fff"/><path d="M9.95 18.158a1.671 1.671 0 1 1-3.342 0v-1.954h3.343v1.954ZM27.914 17.47a1.262 1.262 0 0 1-2.523 0v-1.26h2.523v1.26Z" fill="#fff"/><path d="M4.086 14.948a1.262 1.262 0 1 1 2.523 0v1.261H4.086v-1.261ZM23.169 20.804a1.292 1.292 0 0 1-2.583 0v-4.6h2.583v4.6ZM23.169 12.056a1.14 1.14 0 1 1 2.278 0v4.147H23.17v-4.147Z" fill="#fff"/><defs><linearGradient id="a" x1="16" y1="6.857" x2="16" y2="22.476" gradientUnits="userSpaceOnUse"><stop stop-color="#6F56FD"/><stop offset="1" stop-color="#00CABE"/></linearGradient></defs></svg>