<svg xmlns="http://www.w3.org/2000/svg" width="32" height="32" fill="none"><path fill="#F2F3F7" d="M32 16c0 8.837-7.163 16-16 16S0 24.837 0 16 7.163 0 16 0s16 7.163 16 16Z"/><path fill="#4B4B4B" fill-rule="evenodd" d="M25.932 20.333a10.836 10.836 0 0 1-9.932 6.5c-5.983 0-10.833-4.85-10.833-10.833 0-.742.074-1.467.216-2.167h13.615a2.166 2.166 0 0 0 4.044-1.083 2.167 2.167 0 0 0-4.044-1.083H6.068A10.836 10.836 0 0 1 16 5.167c5.983 0 10.833 4.85 10.833 10.833 0 .742-.074 1.467-.216 2.167H13.002a2.166 2.166 0 0 0-4.044 1.083 2.167 2.167 0 0 0 4.044 1.083h12.93ZM3.74 11.667C5.524 6.617 10.34 3 16 3c7.18 0 13 5.82 13 13s-5.82 13-13 13S3 23.18 3 16a12.905 12.905 0 0 1 .74-4.333Z" clip-rule="evenodd"/></svg>