<svg xmlns="http://www.w3.org/2000/svg" width="32" height="32" fill="none"><path fill="#fff" d="M16 32c8.837 0 16-7.163 16-16S24.837 0 16 0 0 7.163 0 16s7.163 16 16 16Z"/><path fill="#F2B705" d="M15.823 3.5a9.348 9.348 0 0 0-9.348 9.348c0 .591.056 1.18.166 1.76l1.207-.826a7.314 7.314 0 0 1 7.69 0l1.267.867.687.472a6.588 6.588 0 0 0 6.926 0l.563-.385a9.354 9.354 0 0 0-9.155-11.232l-.003-.004Z"/><path fill="#53CBC8" d="M21.076 18.464a6.734 6.734 0 0 1-3.769-1.077l-1.952-1.338a6.282 6.282 0 0 0-3.531-.997 6.263 6.263 0 0 0-3.532.997l-1.262.864a.548.548 0 1 1-.626-.9l.006-.005 1.262-.864a7.388 7.388 0 0 1 4.151-1.187 7.387 7.387 0 0 1 4.151 1.187l1.953 1.338a6.033 6.033 0 0 0 6.299 0l.74-.507a.548.548 0 1 1 .634.895l-.014.01-.741.507a6.724 6.724 0 0 1-3.768 1.077Z"/><path fill="#53CBC8" d="M11.783 22.39v-5.282c-.004-.111 0-.223.014-.333a.595.595 0 0 1 .591-.528.576.576 0 0 1 .558.528c.023.183.03.368.02.553v10.531a.62.62 0 0 1-.606.64.607.607 0 0 1-.569-.67v-3.51l-.008-1.93Zm-1.111-2.658v2.624c0 .45-.24.747-.58.736a.67.67 0 0 1-.597-.741v-5.248c0-.46.267-.77.616-.752.348.018.556.296.558.755.005.876.003 1.75.003 2.625Zm3.41-.004v-1.845c0-.428.227-.704.565-.704a.634.634 0 0 1 .602.688c.013 1.256.013 2.511 0 3.766a.603.603 0 0 1-.598.681c-.346-.003-.568-.266-.572-.704v-1.884l.003.002Zm-6.876.384v-1.846c0-.427.227-.704.565-.704a.636.636 0 0 1 .602.688c.012 1.256.012 2.512 0 3.766a.604.604 0 0 1-.598.682c-.345-.004-.569-.267-.573-.705V20.11l.004.002Zm9.742-1.571h.002a.579.579 0 0 1 .58.58v1.003a.58.58 0 0 1-.58.58h-.002a.579.579 0 0 1-.58-.58v-1.003a.58.58 0 0 1 .58-.58Zm2.296.879h.002a.58.58 0 0 1 .579.58v5.627a.58.58 0 0 1-.58.58h-.001a.579.579 0 0 1-.58-.58V20a.58.58 0 0 1 .58-.58Zm2.28.218h.001a.58.58 0 0 1 .58.58V25a.581.581 0 0 1-.58.579h-.001a.58.58 0 0 1-.58-.579v-4.784a.579.579 0 0 1 .58-.579Zm2.311-.546h.002a.58.58 0 0 1 .58.58v2.063a.58.58 0 0 1-.58.579h-.002a.58.58 0 0 1-.579-.58v-2.062a.58.58 0 0 1 .579-.58Z"/></svg>