<svg fill="none" height="32" viewBox="0 0 32 32" width="32" xmlns="http://www.w3.org/2000/svg"><path d="m16 32c8.8366 0 16-7.1634 16-16 0-8.83656-7.1634-16-16-16-8.83656 0-16 7.16344-16 16 0 8.8366 7.16344 16 16 16z" fill="#fff"/><path d="m15.8231 3.5c-2.4793 0-4.8571.9849-6.61021 2.73804-1.75313 1.75314-2.73804 4.13086-2.73804 6.61026v.0002c.00022.5906.0557 1.1799.16571 1.7602l1.20762-.8271c1.1554-.714 2.48672-1.0921 3.84492-1.0921s2.6895.3781 3.8449 1.0921l1.2672.8678.6868.472c1.0406.6429 2.2396.9834 3.4628.9834s2.4222-.3405 3.4628-.9834l.5635-.3858c.2783-1.3586.2511-2.7622-.0798-4.109-.3309-1.34686-.9571-2.60327-1.8333-3.67829-.8762-1.07503-1.9805-1.94176-3.233-2.53746-1.2524-.5957-2.6216-.90546-4.0085-.90685z" fill="#f2b705"/><g fill="#53cbc8"><path d="m21.0765 18.4639c-1.3355.0227-2.6476-.3522-3.7694-1.0771l-1.9524-1.3381c-1.0517-.6761-2.2812-1.0231-3.5311-.9964-1.2503-.0279-2.48029.3191-3.5316.9964l-1.26238.8643c-.05913.0411-.12579.0702-.19615.0855-.07037.0154-.14306.0167-.21394.004-.07088-.0128-.13856-.0394-.19916-.0783-.06061-.0389-.11296-.0894-.15406-.1485-.04111-.0591-.07016-.1258-.0855-.1961-.01535-.0704-.01668-.1431-.00393-.214s.03933-.1385.07824-.1991c.0389-.0607.08937-.113.1485-.1541l.00628-.0043 1.26173-.8644c1.23475-.8001 2.68027-1.2133 4.15137-1.1867 1.471-.0266 2.9165.3866 4.1511 1.1867l1.9525 1.3381c.948.5802 2.0379.8872 3.1494.8872s2.2014-.307 3.1495-.8872l.7414-.5073c.0588-.042.1253-.0719.1956-.0881.0704-.0161.1433-.0183.2144-.0062.0712.0121.1393.0381.2005.0765.0611.0385.114.0886.1557.1476.0417.0589.0713.1255.0871.196.0159.0704.0177.1433.0053.2144-.0123.0712-.0386.1392-.0774.2001-.0387.0609-.0891.1136-.1482.1551l-.0136.0093-.7414.5073c-1.1213.7254-2.4332 1.1005-3.7684 1.0774z"/><path d="m11.7827 22.3898v-5.282c-.0041-.1111.0006-.2224.014-.3327.0164-.1454.0858-.2796.1949-.377s.2503-.1512.3966-.151c.1417.0038.277.0598.38.1572.103.0975.1664.2295.1781.3708.0224.1833.0289.3683.0193.5528v10.5311c.0028.082-.0106.1637-.0396.2404s-.0729.147-.1292.2066c-.0564.0596-.124.1074-.1989.1407-.075.0333-.1558.0514-.2378.0532-.0822-.0046-.1625-.0259-.2362-.0625-.0736-.0367-.1391-.0879-.1923-.1507-.0532-.0627-.093-.1356-.1171-.2143s-.0319-.1614-.023-.2432v-3.5101z"/><path d="m10.672 19.7315v2.6248c0 .4491-.2396.7465-.5791.7358-.0881-.0091-.17353-.0355-.25136-.0778-.07783-.0422-.14653-.0995-.20214-.1684-.05562-.0689-.09705-.1481-.12192-.2331-.02486-.085-.03266-.1741-.02296-.2621v-5.2474c0-.4597.26769-.7698.61618-.752.3485.0178.5565.2958.5581.7551.0049.8752.0032 1.7501.0032 2.6251z"/><path d="m14.0822 19.728v-1.845c0-.4278.227-.7041.5651-.7041.0853.004.1689.0252.2458.0623s.1455.0893.2017.1536c.0563.0642.099.1392.1255.2203.0266.0811.0366.1668.0292.2519.0128 1.2559.0128 2.5112 0 3.766.0111.0851.004.1716-.021.2537s-.0672.1579-.1239.2224c-.0566.0645-.1264.1162-.2045.1516-.0782.0353-.1631.0536-.2489.0536-.3464-.0032-.5683-.2662-.5723-.7042v-1.884z"/><path d="m7.20569 20.1117v-1.8454c0-.4275.22711-.704.565-.704.08529.0041.16888.0253.24579.0624.0769.0371.14552.0893.20176.1535.05624.0643.09894.1392.12554.2203.02661.0812.03657.1668.02929.2519.01154 1.2559.01154 2.5113 0 3.766.01096.0851.00367.1715-.02138.2536-.02505.082-.06728.1578-.12389.2222-.0566.0645-.12629.1161-.20441.1515s-.16289.0538-.24867.0539c-.34457-.0034-.56856-.2662-.57233-.7042v-1.8834z"/><path d="m16.9481 18.5413h.0017c.1537 0 .301.0611.4096.1698.1086.1086.1697.256.1697.4096v1.0034c-.0001.1537-.0611.301-.1697.4096-.1087.1086-.256.1696-.4096.1697h-.0017c-.1536 0-.301-.061-.4096-.1697-.1087-.1086-.1698-.2559-.1698-.4096v-1.0034c0-.1536.061-.301.1697-.4097.1087-.1086.2561-.1697.4097-.1697z"/><path d="m19.2439 19.4199h.0017c.1536.0001.301.0612.4096.1698.1086.1087.1696.2561.1696.4097v5.628c0 .1536-.061.3009-.1696.4095s-.2559.1696-.4095.1696h-.0018c-.1536 0-.3008-.0609-.4094-.1695-.1086-.1085-.1697-.2558-.1697-.4093v-5.6283c0-.1536.061-.301.1695-.4096.1086-.1087.256-.1698.4096-.1699z"/><path d="m21.5237 19.6381h.0017c.1536 0 .301.061.4096.1696.1087.1086.1698.2559.1699.4096v4.7833c-.0001.076-.0151.1513-.0442.2216-.0292.0703-.0719.1341-.1257.1879-.0538.0537-.1177.0964-.1879.1255-.0703.029-.1457.044-.2217.044h-.0017c-.1535 0-.3008-.0609-.4094-.1694s-.1696-.2557-.1697-.4092v-4.7836c-.0001-.1536.0609-.3009.1694-.4095.1086-.1087.2558-.1698.4094-.1698z"/><path d="m23.8352 19.0924h.0017c.1536 0 .3009.061.4096.1697.1086.1086.1696.2559.1696.4095v2.0632c0 .1536-.0611.3009-.1697.4095s-.2559.1697-.4095.1697h-.0017c-.1536 0-.3009-.061-.4095-.1696s-.1696-.2559-.1696-.4095v-2.0631c0-.0761.0149-.1514.044-.2217.0291-.0702.0717-.1341.1254-.1879.0538-.0538.1176-.0965.1879-.1256.0702-.0291.1455-.0442.2215-.0442z"/></g></svg>