<svg fill="none" height="32" viewBox="0 0 32 32" width="32" xmlns="http://www.w3.org/2000/svg"><path d="m16 32c8.8366 0 16-7.1634 16-16 0-8.83656-7.1634-16-16-16-8.83656 0-16 7.16344-16 16 0 8.8366 7.16344 16 16 16z" fill="#fff"/><g fill="#0072ff"><path d="m22.302 17.6454c-.6501.0003-1.2886.1719-1.8512.4976s-1.0294.794-1.3533 1.3576l-4.1094-1.8058c.2476-.579.3763-1.2017.3784-1.8314.0021-.6296-.1224-1.2532-.3661-1.8338l2.7643-1.629c.5384.6138 1.2863 1.0047 2.0975 1.0965.8113.0918 1.6276-.1222 2.2895-.6001.6619-.478 1.1218-1.1855 1.2899-1.9845.1681-.7989.0323-1.6318-.381-2.33594-.4132-.70413-1.0741-1.2289-1.8535-1.47178-.7795-.24288-1.6215-.18641-2.3616.15837-.74.34478-1.3249.95309-1.6404 1.7061-.3155.753-.3389 1.59655-.0657 2.36595l-2.7725 1.633c-.5987-.7668-1.4215-1.3281-2.3539-1.6056-.9325-.2776-1.9283-.2576-2.84886.057-.92062.3146-1.72031.9083-2.28786 1.6985-.56756.7902-.87478 1.7376-.87892 2.7104-.00415.9729.29498 1.9229.85578 2.7179s1.3554 1.3955 2.27329 1.7179c.91787.3225 1.91347.3509 2.84827.0813s1.7623-.8238 2.3675-1.5855l4.3193 1.9005c-.0429.2265-.0649.4564-.0658.687 0 .732.217 1.4476.6236 2.0563.4066.6088.9846 1.0833 1.6608 1.3636.6763.2803 1.4204.3539 2.1385.2114.718-.1426 1.3777-.4947 1.8956-1.0121.5179-.5173.8708-1.1766 1.0142-1.8945.1433-.7179.0705-1.4621-.209-2.1387-.2796-.6765-.7535-1.255-1.3618-1.6623-.6082-.4073-1.3236-.6251-2.0556-.6259zm-2.0569-9.46115c.4068 0 .8045.12063 1.1427.34663.3383.226.6019.54722.7576.92305s.1964.78937.117 1.18837c-.0793.399-.2752.7655-.5629 1.0531-.2876.2876-.6541.4835-1.0531.5629s-.8125.0386-1.1883-.1171c-.3759-.1556-.6971-.4193-.9231-.7575s-.3466-.7359-.3466-1.1427c.0002-.54543.217-1.06845.6026-1.45412.3857-.38567.9087-.60242 1.4541-.60263zm-9.5598 11.11065c-.6818 0-1.34826-.2022-1.91514-.5809-.56688-.3788-1.00871-.9172-1.26962-1.5471-.26091-.6298-.32917-1.3229-.19617-1.9916.13301-.6687.46132-1.2829.94341-1.765s1.09631-.8104 1.76502-.9434c.6687-.133 1.3618-.0648 1.9916.1961.6299.2609 1.1683.7028 1.5471 1.2696.3787.5669.5809 1.2334.5809 1.9152.0001.4527-.0889.901-.2621 1.3193s-.4271.7983-.7472 1.1184c-.3202.3202-.7002.5741-1.1185.7473s-.8666.2622-1.3193.2621zm11.6167 4.5208c-.4882 0-.9654-.1448-1.3712-.416-.4059-.2712-.7223-.6566-.9091-1.1076s-.2357-.9473-.1404-1.426c.0952-.4788.3303-.9186.6754-1.2638.3452-.3451.785-.5802 1.2638-.6754.4787-.0953.975-.0464 1.426.1404s.8364.5032 1.1076.9091c.2712.4058.416.883.416 1.3712-.0006.6544-.2608 1.2819-.7235 1.7446s-1.0902.7229-1.7446.7235z"/><path d="m14.7279 23.8157h-8.08717c-.08273-.0027-.16516.0113-.24239.0411-.07722.0297-.14767.0748-.20715.1323-.05948.0576-.10677.1265-.13907.2027-.0323.0763-.04895.1582-.04895.241 0 .0827.01665.1647.04895.2409s.07959.1451.13907.2027c.05948.0575.12993.1026.20715.1324.07723.0297.15966.0437.24239.041h8.08717c.0828.0027.1652-.0113.2424-.041.0773-.0298.1477-.0749.2072-.1324.0595-.0576.1068-.1265.1391-.2027s.0489-.1582.0489-.2409c0-.0828-.0166-.1647-.0489-.241-.0323-.0762-.0796-.1451-.1391-.2027-.0595-.0575-.1299-.1026-.2072-.1323-.0772-.0298-.1596-.0438-.2424-.0411z"/></g></svg>