<svg xmlns="http://www.w3.org/2000/svg" width="32" height="32" fill="none"><path fill="#fff" d="M16 32c8.837 0 16-7.163 16-16S24.837 0 16 0 0 7.163 0 16s7.163 16 16 16Z"/><path fill="#0072FF" d="M22.302 17.645a3.698 3.698 0 0 0-3.204 1.856l-4.11-1.806A4.697 4.697 0 0 0 15 14.03l2.765-1.63a3.28 3.28 0 1 0-.626-1.065l-2.772 1.633a4.68 4.68 0 1 0-.025 5.792l4.32 1.9a3.702 3.702 0 1 0 3.64-3.015Zm-2.057-9.46a2.057 2.057 0 1 1 0 4.113 2.057 2.057 0 0 1 0-4.114Zm-9.56 11.11a3.448 3.448 0 1 1 0-6.895 3.448 3.448 0 0 1 0 6.895Zm11.617 4.52a2.468 2.468 0 1 1 0-4.935 2.468 2.468 0 0 1 0 4.936Zm-7.574.001H6.64a.617.617 0 1 0 0 1.234h8.087a.619.619 0 0 0 .45-1.06.616.616 0 0 0-.45-.174Z"/></svg>