<svg fill="none" height="32" viewBox="0 0 32 32" width="32" xmlns="http://www.w3.org/2000/svg" xmlns:xlink="http://www.w3.org/1999/xlink"><linearGradient id="a" gradientUnits="userSpaceOnUse" x1="5.00012" x2="27.0001" y1="16.0001" y2="16.0001"><stop offset="0" stop-color="#4400e2"/><stop offset=".04108" stop-color="#7013c5"/><stop offset=".08663" stop-color="#9a25aa"/><stop offset=".1333" stop-color="#bc3494"/><stop offset=".1804" stop-color="#d73f82"/><stop offset=".2284" stop-color="#ea4876"/><stop offset=".2776" stop-color="#f54c6e"/><stop offset=".33" stop-color="#f94e6c"/><stop offset="1" stop-color="#ffd402"/></linearGradient><path d="m16 32c8.8366 0 16-7.1634 16-16 0-8.83656-7.1634-16-16-16-8.83656 0-16 7.16344-16 16 0 8.8366 7.16344 16 16 16z" fill="#fff"/><path d="m25.5807 7.66125c-.187-.00244-.3727.03261-.546.10307-.1733.07047-.3308.17493-.4631.30722-.1322.13229-.2367.28973-.3072.46304-.0704.17331-.1055.35897-.103.54604v13.83898c0 .3764.1495.7374.4157 1.0036s.6272.4157 1.0036.4157c.3765 0 .7375-.1495 1.0037-.4157s.4157-.6272.4157-1.0036v-13.83898c.0025-.18707-.0326-.37273-.1031-.54604-.0704-.17331-.1749-.33075-.3072-.46304s-.2897-.23675-.463-.30722c-.1733-.07046-.359-.10551-.5461-.10307zm-19.1612 0c-.18707-.00244-.37274.03261-.54605.10307-.1733.07047-.33075.17493-.46304.30722s-.23675.28973-.30722.46304c-.07046.17331-.10551.35897-.10307.54604v13.83898c0 .3764.14954.7374.41573 1.0036.26618.2662.62721.4157 1.00365.4157s.73747-.1495 1.00365-.4157c.26619-.2662.41573-.6272.41573-1.0036v-13.83898c.00244-.18707-.03261-.37273-.10308-.54604-.07046-.17331-.17492-.33075-.30721-.46304s-.28974-.23675-.46305-.30722c-.1733-.07046-.35897-.10551-.54604-.10307zm6.3874 2.92815c-.1871-.0024-.3728.0326-.5461.1031-.1733.0704-.3307.1749-.463.3072s-.2368.2897-.3072.463c-.0705.1733-.1055.359-.1031.5461v8.0727c-.0005.1867.0359.3717.107.5443.0711.1727.1755.3296.3074.4618.1318.1322.2885.2371.4609.3087.1725.0715.3574.1084.5441.1084s.3716-.0369.544-.1084c.1725-.0716.3291-.1765.461-.3087.1318-.1322.2363-.2891.3074-.4618.0711-.1726.1074-.3576.1069-.5443v-8.0727c.0025-.1871-.0326-.3728-.103-.5461-.0705-.1733-.1749-.3307-.3072-.463s-.2898-.2368-.4631-.3072c-.1733-.0705-.359-.1055-.546-.1031zm6.3873 2.3062c-.187-.0025-.3727.0326-.546.103-.1733.0705-.3308.175-.463.3072-.1323.1323-.2368.2898-.3073.4631-.0704.1733-.1055.359-.103.546v3.4598c0 .3764.1495.7374.4157 1.0036s.6272.4158 1.0036.4158c.3765 0 .7375-.1496 1.0037-.4158s.4157-.6272.4157-1.0036v-3.4598c.0025-.187-.0326-.3727-.103-.546-.0705-.1733-.175-.3308-.3073-.4631-.1322-.1322-.2897-.2367-.463-.3072-.1733-.0704-.359-.1055-.5461-.103z" fill="url(#a)"/></svg>