<svg xmlns="http://www.w3.org/2000/svg" width="32" height="32" fill="none"><defs><linearGradient id="mtl__a" x1="5" x2="27" y1="16" y2="16" gradientUnits="userSpaceOnUse"><stop stop-color="#4400E2"/><stop offset=".041" stop-color="#7013C5"/><stop offset=".087" stop-color="#9A25AA"/><stop offset=".133" stop-color="#BC3494"/><stop offset=".18" stop-color="#D73F82"/><stop offset=".228" stop-color="#EA4876"/><stop offset=".278" stop-color="#F54C6E"/><stop offset=".33" stop-color="#F94E6C"/><stop offset="1" stop-color="#FFD402"/></linearGradient></defs><path fill="#fff" d="M16 32c8.837 0 16-7.163 16-16S24.837 0 16 0 0 7.163 0 16s7.163 16 16 16Z"/><path fill="url(#mtl__a)" d="M25.58 7.661a1.401 1.401 0 0 0-1.419 1.42V22.92a1.42 1.42 0 1 0 2.84 0V9.08a1.4 1.4 0 0 0-1.42-1.419Zm-19.16 0A1.401 1.401 0 0 0 5 9.081V22.92a1.42 1.42 0 0 0 2.839 0V9.08a1.401 1.401 0 0 0-1.42-1.419Zm6.387 2.928a1.401 1.401 0 0 0-1.42 1.42v8.072a1.42 1.42 0 1 0 2.84 0V12.01a1.401 1.401 0 0 0-1.42-1.42Zm6.387 2.307a1.401 1.401 0 0 0-1.42 1.419v3.46a1.42 1.42 0 1 0 2.84 0v-3.46a1.401 1.401 0 0 0-1.42-1.42Z"/></svg>