<svg xmlns="http://www.w3.org/2000/svg" width="32" height="32" fill="none"><path fill="#fff" d="M16 32c8.837 0 16-7.163 16-16S24.837 0 16 0 0 7.163 0 16s7.163 16 16 16Z"/><path fill="#3F34A7" fill-rule="evenodd" d="M7.19 7.5h-.972a.134.134 0 0 0-.135.134v16.732a.135.135 0 0 0 .135.134h.972a.133.133 0 0 0 .125-.082.135.135 0 0 0 .01-.052V7.634A.134.134 0 0 0 7.19 7.5Zm2.324 1.801H8.54a.134.134 0 0 0-.134.134v12.997a.134.134 0 0 0 .134.133h.973a.133.133 0 0 0 .124-.082.134.134 0 0 0 .01-.051V9.435a.134.134 0 0 0-.134-.134Zm1.352 1.255h.972a.134.134 0 0 1 .135.134v12.876a.135.135 0 0 1-.135.134h-.972a.133.133 0 0 1-.124-.082.135.135 0 0 1-.01-.052V10.69a.134.134 0 0 1 .134-.133Zm3.295 2.001h-.972a.134.134 0 0 0-.135.134v10.407a.134.134 0 0 0 .135.134h.972a.134.134 0 0 0 .135-.134V12.691a.133.133 0 0 0-.083-.124.134.134 0 0 0-.052-.01Zm1.353 1.801h.972a.134.134 0 0 1 .135.134V24.3a.135.135 0 0 1-.135.134h-.972a.133.133 0 0 1-.125-.083.135.135 0 0 1-.01-.051v-9.807a.135.135 0 0 1 .083-.124.135.135 0 0 1 .052-.01ZM25.782 7.5h-.973a.134.134 0 0 0-.134.134v16.732a.135.135 0 0 0 .083.124.13.13 0 0 0 .052.01h.972a.134.134 0 0 0 .134-.134V7.634a.134.134 0 0 0-.134-.134Zm-3.297 1.801h.972a.134.134 0 0 1 .135.134v12.997a.134.134 0 0 1-.135.133h-.972a.133.133 0 0 1-.125-.082.133.133 0 0 1-.01-.051V9.435a.134.134 0 0 1 .135-.134Zm-1.351 1.255h-.972a.133.133 0 0 0-.125.083.132.132 0 0 0-.01.051v12.876a.133.133 0 0 0 .083.124c.017.007.034.01.052.01h.972a.133.133 0 0 0 .124-.082.135.135 0 0 0 .01-.052V10.69a.134.134 0 0 0-.134-.133Zm-3.297 2.003h.972a.134.134 0 0 1 .135.133V23.1a.134.134 0 0 1-.135.134h-.972a.134.134 0 0 1-.135-.134V12.692a.135.135 0 0 1 .135-.133Z" clip-rule="evenodd"/></svg>