<svg xmlns="http://www.w3.org/2000/svg" width="32" height="32" fill="none"><defs><linearGradient id="multi__a" x1="0" x2="32" y1="16" y2="16" gradientUnits="userSpaceOnUse"><stop stop-color="#734CE2"/><stop offset="1" stop-color="#524DFB"/></linearGradient></defs><circle cx="16" cy="16" r="16" fill="url(#multi__a)"/><path fill="#fff" d="M20.71 11.19a1.392 1.392 0 0 1 1 .41l1.49 1.49c.202.202.475.317.76.32a1 1 0 0 0 .67-.25 1 1 0 0 0 .36-.78 1.07 1.07 0 0 0-.3-.74l-1.49-1.47a3.521 3.521 0 0 0-5 0l-9.89 9.91a2.299 2.299 0 0 1-1.66.69 2.23 2.23 0 0 1-1.54-.61 2.27 2.27 0 0 1 0-3.26l.44-.44.84.84v-3.22H3.13L4 15l-.4.4a4.39 4.39 0 0 0-.05 6.18 4.329 4.329 0 0 0 6.16 0l10-10a1.392 1.392 0 0 1 1-.39Z"/><path fill="#fff" d="m28.36 15.39-.74-.73.91-.92h-3.22V17l.84-.85.78.78a2.268 2.268 0 0 1 0 3.26 2.23 2.23 0 0 1-1.54.61 2.301 2.301 0 0 1-1.66-.69l-5.3-5.29-1.47 1.46 5.33 5.33a4.33 4.33 0 0 0 6.16 0 4.39 4.39 0 0 0-.09-6.22ZM7.07 13.47a1 1 0 0 0 .67.25 1.07 1.07 0 0 0 .76-.32l1.81-1.8a1.381 1.381 0 0 1 2 0l1.33 1.33 1.47-1.46-1.29-1.3a3.521 3.521 0 0 0-5 0L7 12a1 1 0 0 0-.3.73 1.05 1.05 0 0 0 .37.74Z"/></svg>