<svg xmlns="http://www.w3.org/2000/svg" width="32" height="32" fill="none"><path fill="#4A90E2" d="M16 0C7.166 0 0 7.166 0 16s7.166 16 16 16 16-7.166 16-16S24.834 0 16 0Z"/><path fill="#fff" d="M17.262 16a1.26 1.26 0 0 1-1.263 1.262A1.26 1.26 0 0 1 14.736 16c0-.947-.316-1.262-1.263-1.262-.947 0-1.257.321-1.257 1.262 0 .7-.564 1.263-1.263 1.263A1.26 1.26 0 0 1 9.69 16a1.26 1.26 0 0 1 1.263-1.262c.947 0 1.263-.316 1.263-1.263 0-.7.564-1.263 1.263-1.263.7 0 1.263.564 1.263 1.263 0 .947.316 1.263 1.263 1.263A1.27 1.27 0 0 1 17.262 16Zm-8.828 3.788a1.263 1.263 0 1 0 0-2.525 1.263 1.263 0 0 0 0 2.525Zm16.388-6.308a1.26 1.26 0 0 1-1.263 1.262c-.947 0-1.262.316-1.262 1.263 0 .7-.564 1.263-1.263 1.263-.947 0-1.263.316-1.263 1.263 0 .7-.564 1.263-1.263 1.263a1.26 1.26 0 0 1-1.263-1.263c0-.699.564-1.263 1.263-1.263.947 0 1.263-.316 1.263-1.263a1.26 1.26 0 0 1 1.263-1.262c.947 0 1.263-.316 1.263-1.263 0-.7.563-1.263 1.262-1.263.7 0 1.263.57 1.263 1.263Z"/></svg>