<svg fill="none" height="32" viewBox="0 0 32 32" width="32" xmlns="http://www.w3.org/2000/svg"><path d="m16 0c-8.83439 0-16 7.16561-16 16 0 8.8344 7.16561 16 16 16 8.8344 0 16-7.1656 16-16 0-8.83439-7.1656-16-16-16z" fill="#4a90e2"/><g fill="#fff"><path d="m17.262 15.9995c0 .6991-.5638 1.2629-1.2629 1.2629s-1.2629-.5638-1.2629-1.2629c0-.9471-.3157-1.2628-1.2628-1.2628-.9472 0-1.2572.3213-1.2572 1.2628 0 .6991-.5638 1.2629-1.2629 1.2629s-1.26287-.5638-1.26287-1.2629.56377-1.2628 1.26287-1.2628c.9471 0 1.2629-.3158 1.2629-1.2629 0-.6991.5637-1.2629 1.2628-1.2629s1.2629.5638 1.2629 1.2629c0 .9471.3157 1.2629 1.2628 1.2629.6879.0056 1.2573.5694 1.2573 1.2628z"/><path d="m8.43376 19.7884c.69746 0 1.26286-.5654 1.26286-1.2628 0-.6975-.5654-1.2629-1.26286-1.2629s-1.26286.5654-1.26286 1.2629c0 .6974.5654 1.2628 1.26286 1.2628z"/><path d="m24.8223 13.4797c0 .699-.5638 1.2628-1.2629 1.2628-.9471 0-1.2629.3157-1.2629 1.2629 0 .6991-.5637 1.2628-1.2628 1.2628-.9472 0-1.2629.3158-1.2629 1.2629 0 .6991-.5637 1.2629-1.2628 1.2629s-1.2629-.5638-1.2629-1.2629.5638-1.2629 1.2629-1.2629c.9471 0 1.2628-.3157 1.2628-1.2628 0-.6991.5638-1.2629 1.2629-1.2629.9471 0 1.2628-.3157 1.2628-1.2628 0-.6991.5638-1.2629 1.2629-1.2629s1.2629.5694 1.2629 1.2629z"/></g></svg>