<svg xmlns="http://www.w3.org/2000/svg" width="32" height="32" fill="none"><path fill="#fff" d="M16 32c8.837 0 16-7.163 16-16S24.837 0 16 0 0 7.163 0 16s7.163 16 16 16Z"/><path fill="#000" d="m15.987 5-2.277 6.712-.02.011-8.695 4.288 6.71 2.277 4.3 8.712 2.283-6.708.02-.01 8.695-4.29-6.713-2.272L15.987 5Zm-4.29 12.505-4.751-1.61.107-.052 6.325-3.12-1.631 4.802-.05-.02Zm4.422-10.55 3.405 6.9-6.902 3.406L16.12 6.955Zm-.24 18.107-3.165-6.418 4.792 1.616-1.627 4.802Zm9.067-8.887-6.99 3.446-5.007-1.697.107-.052 6.991-3.446 5.006 1.698-.107.05Z"/></svg>