<svg fill="none" height="32" viewBox="0 0 32 32" width="32" xmlns="http://www.w3.org/2000/svg"><path d="m16 32c8.8366 0 16-7.1634 16-16 0-8.83656-7.1634-16-16-16-8.83656 0-16 7.16344-16 16 0 8.8366 7.16344 16 16 16z" fill="#fff"/><path d="m15.9867 5-2.2765 6.7123-.0206.0109-8.69448 4.2881 6.70938 2.2765 4.3019 8.7122 2.2825-6.7084.0196-.0099 8.6955-4.2891-6.7134-2.2726zm-4.2891 12.505-4.75189-1.6109.10732-.0512 6.32537-3.1203-1.6316 4.8021zm4.4211-10.55047 3.4049 6.90137-6.9014 3.4049zm-.2393 18.10767-3.1656-6.4179 4.7923 1.6158zm9.0667-8.8874-6.991 3.4462-5.006-1.6975.1073-.0512 6.991-3.4463 5.006 1.6976z" fill="#000"/></svg>