<svg fill="none" height="32" viewBox="0 0 32 32" width="32" xmlns="http://www.w3.org/2000/svg" xmlns:xlink="http://www.w3.org/1999/xlink"><linearGradient id="a" gradientUnits="userSpaceOnUse" x1="20.1865" x2="12.6783" y1="12.5297" y2="20.2128"><stop offset="0" stop-color="#0a87f5"/><stop offset="1" stop-color="#dc1eb9"/></linearGradient><clipPath id="b"><path d="m0 0h32v32h-32z"/></clipPath><g clip-path="url(#b)"><path d="m16.0002.745117c2.0034 0 3.9871.394583 5.8379 1.161223 1.8509.76665 3.5326 1.89033 4.9491 3.3069 1.4166 1.41657 2.5403 3.09828 3.3069 4.94916.7667 1.8508 1.1613 3.8345 1.1613 5.8378 0 2.0034-.3946 3.9871-1.1613 5.8379-.7666 1.8509-1.8903 3.5326-3.3069 4.9491-1.4165 1.4166-3.0982 2.5403-4.9491 3.3069-1.8508.7667-3.8345 1.1613-5.8379 1.1613-4.0459 0-7.92607-1.6073-10.78696-4.4682s-4.468123-6.7411-4.468123-10.787c0-4.0459 1.607233-7.92607 4.468123-10.78696s6.74106-4.468123 10.78696-4.468123z" fill="#fff"/><path d="m16.0003 32.0001c-3.6913-.0022-7.26826-1.2803-10.12507-3.6178-2.8568-2.3375-4.81777-5.5907-5.550692-9.2085-.732927-3.6177-.192755-7.3776 1.529012-10.64267 1.72176-3.26509 4.51926-5.83463 7.91858-7.27334 3.90937-1.648745 8.31347-1.677652 12.24407-.08037 3.9307 1.59729 7.0662 4.69003 8.7173 8.59837 1.6512 3.90831 1.6828 8.31241.0879 12.24401-1.5948 3.9317-4.6856 7.0691-8.593 8.7226-1.9703.834-4.0886 1.2618-6.2281 1.2577zm0-30.51022c-2.8699 0-5.6753.85101-8.06148 2.44541-2.38619 1.59441-4.24601 3.8606-5.34425 6.51201-1.09825 2.6514-1.3856 5.5689-.82572 8.3836s1.94185 5.4002 3.97114 7.4295c2.0293 2.0293 4.61481 3.4113 7.42951 3.9711 2.8147.5599 5.7322.2726 8.3836-.8257 2.6514-1.0982 4.9176-2.958 6.512-5.3442s2.4454-5.1916 2.4454-8.0615c-.0043-3.847-1.5345-7.53521-4.2547-10.25546-2.7203-2.72026-6.4085-4.25041-10.2555-4.25476z" fill="#f0f0f0"/><path d="m20.8005 9.38574c.1876.00406.3663.08086.4983.21419s.2071.31274.2093.50037l.0001.0117v5.1769c0 .004.0015.0078.0043.0105.0028.0028.0066.0044.0106.0044h1.0912c.1892.0007.3704.0764.5039.2104.1336.134.2085.3155.2085.5047s-.0749.3707-.2085.5047c-.1335.134-.3147.2097-.5039.2104h-1.0912c-.004 0-.0078.0016-.0106.0043-.0027.0028-.0043.0066-.0043.0106v5.1322c.0038.0889-.0104.1777-.0418.2611-.0313.0833-.0792.1594-.1407.2237-.0616.0644-.1355.1156-.2173.1507s-.1699.0532-.2589.0534l-.0117.0001h-.0745c-.1502-.0108-.296-.0555-.4265-.1308-.1304-.0753-.242-.1793-.3265-.304l-.0105-.0121-4.2098-5.3835c-.0014-.0018-.0032-.0032-.0052-.0042s-.0043-.0015-.0065-.0015h-3.8455c-.004 0-.0077.0016-.0105.0043-.0028.0028-.0044.0066-.0044.0106v5.1322c-.0003.1904-.0752.3731-.2087.5089s-.3149.2139-.5053.2174h-.0123c-.1875-.0041-.3662-.0809-.4982-.2142-.1321-.1334-.2071-.3128-.2093-.5004l-.0001-.0117v-5.1322c0-.004-.0016-.0078-.0044-.0106-.0028-.0027-.0066-.0043-.0105-.0043h-1.08383c-.18919-.0007-.37039-.0764-.50392-.2104s-.2085-.3155-.2085-.5047.07497-.3707.2085-.5047.31473-.2097.50392-.2104h1.08383c.0039 0 .0077-.0016.0105-.0044.0028-.0027.0044-.0065.0044-.0105v-5.1396c.0034-.18956.0794-.37056.2124-.50568.1329-.13511.3127-.21405.5021-.22051l.0117-.0001h.2049c.1449.0026.287.04086.4136.11142.1266.07055.2339.17121.3124.29309l.0189.02379 4.271 5.44679c.0014.0018.0031.0032.0052.0042.002.001.0042.0015.0065.0015h3.6167c.004 0 .0078-.0015.0105-.0043.0028-.0028.0044-.0066.0044-.0106v-5.1769c.0003-.19042.0752-.37315.2087-.50895.1335-.13579.3149-.21381.5053-.21731zm-.7411 7.34826h-2.4719c-.0039 0-.0077.0016-.0105.0043-.0028.0028-.0044.0066-.0044.0106l.0032.0092 2.4719 3.1524c.0019.0024.0045.0042.0075.0051.003.0008.0061.0008.0091-.0003.0029-.001.0054-.0029.0072-.0054s.0028-.0055.0028-.0086v-3.1524c0-.004-.0016-.0078-.0044-.0106-.0028-.0027-.0066-.0043-.0105-.0043zm-8.1415-4.9028v3.4577c0 .004.0015.0078.0043.0105.0028.0028.0066.0044.0106.0044h2.7038c.004 0 .0078-.0016.0106-.0044.0027-.0027.0043-.0065.0043-.0105l-.0031-.0092-2.7039-3.4577c-.0019-.0024-.0045-.0042-.0075-.0051s-.0062-.0008-.0091.0002-.0055.0029-.0073.0055c-.0018.0025-.0027.0055-.0027.0086z" fill="url(#a)"/></g></svg>