<svg xmlns="http://www.w3.org/2000/svg" width="32" height="32" fill="none"><defs><linearGradient id="nav__b" x1="20.186" x2="12.678" y1="12.53" y2="20.213" gradientUnits="userSpaceOnUse"><stop stop-color="#0A87F5"/><stop offset="1" stop-color="#DC1EB9"/></linearGradient><clipPath id="nav__a"><path fill="#fff" d="M0 0h32v32H0z"/></clipPath></defs><g clip-path="url(#nav__a)"><path fill="#fff" d="M16 .745A15.255 15.255 0 1 1 .745 16 15.255 15.255 0 0 1 16 .745Z"/><path fill="#F0F0F0" d="M16 32A16.004 16.004 0 0 1 9.772 1.258a16.004 16.004 0 0 1 12.456 29.484A15.9 15.9 0 0 1 16 32Zm0-30.51A14.51 14.51 0 1 0 30.51 16 14.527 14.527 0 0 0 16 1.49Z"/><path fill="url(#nav__b)" d="M20.8 9.386a.723.723 0 0 1 .708.714v5.19c0 .004.002.008.005.01a.015.015 0 0 0 .01.005h1.091a.715.715 0 0 1 0 1.43h-1.09a.015.015 0 0 0-.012.004.015.015 0 0 0-.004.01v5.133a.66.66 0 0 1-.659.689h-.086a.996.996 0 0 1-.753-.435l-.01-.012-4.21-5.383a.015.015 0 0 0-.012-.006h-3.845a.015.015 0 0 0-.01.004.015.015 0 0 0-.005.01v5.133a.728.728 0 0 1-.714.726h-.012a.723.723 0 0 1-.708-.714v-5.145a.015.015 0 0 0-.004-.01.015.015 0 0 0-.01-.005H9.384a.715.715 0 0 1 0-1.43h1.084a.015.015 0 0 0 .015-.015v-5.14a.74.74 0 0 1 .714-.726h.217a.882.882 0 0 1 .726.405l.019.023 4.271 5.447a.014.014 0 0 0 .005.004.014.014 0 0 0 .007.002h3.616a.014.014 0 0 0 .01-.005.015.015 0 0 0 .005-.01v-5.177a.728.728 0 0 1 .714-.726h.012Zm-.74 7.348h-2.473a.015.015 0 0 0-.01.004.015.015 0 0 0-.004.01l.003.01 2.472 3.152a.015.015 0 0 0 .007.006.015.015 0 0 0 .017-.006.015.015 0 0 0 .002-.009V16.75a.015.015 0 0 0-.004-.01.015.015 0 0 0-.01-.005Zm-8.142-4.903v3.458c0 .004.001.008.004.01a.015.015 0 0 0 .01.005h2.705a.015.015 0 0 0 .015-.015l-.004-.01-2.704-3.457a.015.015 0 0 0-.016-.005.015.015 0 0 0-.01.014Z"/></g></svg>