<svg fill="none" height="32" viewBox="0 0 32 32" width="32" xmlns="http://www.w3.org/2000/svg"><path d="m16 32c8.8366 0 16-7.1634 16-16 0-8.83656-7.1634-16-16-16-8.83656 0-16 7.16344-16 16 0 8.8366 7.16344 16 16 16z" fill="#000"/><path d="m29 10.6851c-.0813.081-.1489.1486-.2168.2159-1.5291 1.5184-3.0581 3.037-4.5868 4.5558-.013.0143-.0289.0257-.0467.0332-.0178.0076-.0371.0112-.0564.0105-2.1433-.0012-4.2865-.0013-6.4298-.0004-.0374.0013-.0747-.0053-.1094-.0194-.0346-.0141-.0659-.0354-.0918-.0625-.0161-.0111-.0293-.0259-.0384-.0433-.0091-.0173-.0138-.0366-.0137-.0562.0001-.0195.005-.0388.0143-.056.0092-.0173.0226-.032.0388-.0429 1.4269-1.4873 2.8534-2.975 4.2795-4.4631.0208-.0242.0468-.0433.076-.056.0293-.0127.061-.0186.0928-.0173 2.3284.0021 4.6567.0026 6.9851.0017zm-25.9229 10.6173c2.33765 0 4.67529.0004 7.0129.0012.0262.0014.0523-.0031.0764-.0133.0241-.0101.0456-.0255.0629-.0451 1.4312-1.4898 2.8632-2.9786 4.2961-4.4667.0162-.0134.0291-.0303.0377-.0495.0086-.0191.0127-.04.0119-.061-.0007-.021-.0063-.0415-.0162-.06s-.024-.0345-.041-.0468c-.0512-.0489-.1192-.0762-.19-.076-2.1409.0007-4.2818.0005-6.42263-.0003-.01824-.0007-.03641.0026-.05326.0096-.01684.0071-.03195.0177-.04429.0311-1.58533 1.5714-3.17107 3.1425-4.75721 4.7131-.02289.0156-.04047.0379-.05041.0637zm20.0913-4.8167h-2.5202c-.9835 0-1.9669.0001-2.9504.0002-.03-.0049-.0608.0008-.087.0162-.0731.051-.1329.1187-.1745.1975-.0117.0169-.017.0373-.0151.0578.002.0204.0111.0395.0258.0539.1335.1572.275.3069.42.4533.7317.7387 1.4866 1.4537 2.2328 2.1774.0434.042.0606.0237.0919-.0072.9708-.9564 1.9421-1.9123 2.9138-2.8677.0232-.0229.0496-.0425.0744-.0636zm-14.35168-.9862h.07436c1.79132 0 3.58262.0009 5.37402.0026.0414.0011.0825-.0075.12-.0252.0374-.0176.0703-.0438.0958-.0765.0307-.0382.0566-.0801.077-.1246.0094-.0146.0133-.0319.0109-.049-.0023-.0171-.0106-.0329-.0235-.0444-.0886-.0966-.1722-.1979-.2632-.292-.777-.8028-1.5915-1.5672-2.394-2.344-.0384-.0372-.0561-.0318-.0911.0028-.9769.9636-1.9547 1.9262-2.93331 2.888-.01853.0163-.03802.0314-.05837.0454zm8.07958 5.9671c.9494-.1874 1.8359-.6117 2.5773-1.2337.0471-.0396.0432-.056.0027-.0963-.5033-.5005-1.0054-1.0021-1.5063-1.505-.3908-.391-.7817-.7819-1.1727-1.1726-.0163-.0163-.0264-.0441-.0615-.0354-.0578.025-.1091.063-.1498.1111-.0406.048-.0697.1048-.0848.166-.0186.2195-.0256.4395-.0286.6597-.0134.998.0087 1.9957.019 2.9935.0005.0468.0029.0937.0028.1405-.0001.0255.0049.042.0358.0365.1221-.0212.2448-.0394.3661-.0643zm-.4917-9.0222c0 .2249-.0007.4498.0001.6746.0014.3888.0082.7774.025 1.166-.0005.0679.0178.1345.0528.1927.0351.0581.0855.1054.1457.1367.0088.0068.0189.0118.0297.0145.0107.0027.022.0031.033.0013.0109-.0019.0214-.006.0307-.0121s.0172-.014.0233-.0234c.3808-.3843.7629-.7674 1.1463-1.1492.5084-.5086 1.0169-1.017 1.5255-1.5253.0286-.0285.0522-.0452.005-.0841-.2618-.2195-.5421-.4159-.8377-.5871-.6396-.368-1.3454-.6066-2.0772-.7022-.0627-.0082-.0766-.001-.0771.0639-.005.6112-.0138 1.2225-.0215 1.8338zm-.899-1.9144c.0002-.0505-.007-.0682-.0639-.0602-.2479.0337-.4935.0823-.7356.1455-.8041.2161-1.5515.6045-2.1904 1.1384-.0473.0389-.0468.0549-.0048.0965.6156.61 1.2302 1.2212 1.8436 1.8334.2838.2827.5675.5654.8513.8481.0154.0153.0243.0472.0611.0289.0565-.023.1063-.06.1445-.1077.0383-.0476.0637-.1042.0739-.1644.0102-.0861.016-.1726.0175-.2592.0252-.5666.013-1.1336.0018-1.7004 0-.5996.0003-1.1992.001-1.7989zm-1.7074 10.4109c.5411.2566 1.1193.4262 1.7132.5024.0604.0081.0572-.0208.0574-.0618.0039-.8851.0112-1.7701.0118-2.6552.0002-.358-.0016-.7163-.0297-1.0739-.0059-.0557-.0245-.1094-.0543-.1568-.0298-.0475-.0701-.0875-.1177-.117-.0081-.0086-.018-.0153-.029-.0195-.0111-.0042-.0229-.0058-.0347-.0047-.0117.001-.0231.0047-.0332.0108s-.0187.0144-.0251.0243c-.8887.8927-1.7788 1.7841-2.6702 2.6741-.0163.0164-.0319.0335-.0482.0507.3811.3306.8047.6086 1.2597.8266z" fill="#f1cc04"/></svg>