<svg xmlns="http://www.w3.org/2000/svg" width="32" height="32" fill="none"><path fill="#000" d="M16 32c8.837 0 16-7.163 16-16S24.837 0 16 0 0 7.163 0 16s7.163 16 16 16Z"/><path fill="#F1CC04" d="m29 10.685-.217.216-4.587 4.556a.133.133 0 0 1-.103.043h-6.43a.266.266 0 0 1-.2-.082.12.12 0 0 1 0-.198l4.28-4.463a.211.211 0 0 1 .169-.074c2.328.002 4.656.003 6.985.002H29ZM3.077 21.302c2.338 0 4.675 0 7.013.002a.172.172 0 0 0 .14-.059 5326.2 5326.2 0 0 1 4.295-4.466.137.137 0 0 0-.007-.218.274.274 0 0 0-.19-.076H7.905a.126.126 0 0 0-.097.04L3.05 21.24a.137.137 0 0 0-.05.063h.077Zm20.091-4.816h-5.47a.13.13 0 0 0-.087.016.559.559 0 0 0-.175.198.087.087 0 0 0 .011.111c.134.157.275.307.42.454.732.738 1.487 1.453 2.233 2.177.043.042.06.024.092-.007.97-.957 1.942-1.912 2.913-2.868.024-.023.05-.042.075-.064l-.012-.017Zm-14.351-.987h.074c1.791 0 3.583.001 5.374.003a.265.265 0 0 0 .216-.102.595.595 0 0 0 .077-.124.072.072 0 0 0-.013-.093c-.088-.097-.172-.199-.263-.293-.777-.802-1.591-1.567-2.394-2.344-.038-.037-.056-.031-.091.003-.977.964-1.955 1.926-2.933 2.888a.622.622 0 0 1-.059.046l.012.016Zm8.08 5.968a5.739 5.739 0 0 0 2.577-1.234c.047-.04.043-.056.002-.096a2592.907 2592.907 0 0 0-2.679-2.678c-.016-.016-.026-.044-.061-.035a.409.409 0 0 0-.235.277 9.31 9.31 0 0 0-.028.66c-.014.997.008 1.995.019 2.993l.002.14c0 .026.005.042.036.037.122-.021.245-.04.366-.064Zm-.492-9.023v.675c.001.389.008.777.025 1.166a.368.368 0 0 0 .228.344.081.081 0 0 0 .064-.01 4387.484 4387.484 0 0 1 2.695-2.698c.028-.03.052-.046.005-.085a5.627 5.627 0 0 0-2.915-1.29c-.063-.007-.077 0-.077.065-.005.61-.014 1.222-.022 1.833h-.003Zm-.9-1.914c0-.05-.006-.068-.063-.06a5.738 5.738 0 0 0-2.926 1.284c-.048.039-.047.055-.005.096.616.61 1.23 1.221 1.844 1.834l.85.848c.016.015.025.047.062.029a.358.358 0 0 0 .218-.272c.01-.087.016-.173.018-.26.025-.566.013-1.133.002-1.7V10.53Zm-1.707 10.41c.541.258 1.12.427 1.713.503.06.008.058-.02.058-.062.004-.885.011-1.77.012-2.655a13.6 13.6 0 0 0-.03-1.074.368.368 0 0 0-.172-.273.078.078 0 0 0-.097-.014 1246.672 1246.672 0 0 1-2.695 2.698l-.048.051c.38.33.804.609 1.26.827Z"/></svg>