<svg fill="none" height="32" viewBox="0 0 32 32" width="32" xmlns="http://www.w3.org/2000/svg" xmlns:xlink="http://www.w3.org/1999/xlink"><linearGradient id="a" gradientUnits="userSpaceOnUse" x1="15.9201" x2="15.9201" y1="30.16" y2="1.84"><stop offset="0" stop-color="#005bc1"/><stop offset="1" stop-color="#009ad9"/></linearGradient><path d="m16 32c8.8366 0 16-7.1634 16-16 0-8.83656-7.1634-16-16-16-8.83656 0-16 7.16344-16 16 0 8.8366 7.16344 16 16 16z" fill="#061e2a"/><g fill="#005bc0"><path d="m23.1042 19.2115-.289.1373 2.8583 6.0158.289-.1373z"/><path d="m7.05499 8.13578-.01351.00531.117.29781 6.47382-2.545c.0656.05808.1461.09689.2324.11215.0863.01525.1752.00635.2568-.02573.0816-.03207.1527-.08606.2055-.15602.0529-.06996.0854-.15315.0939-.2404l.0636-.025-.117-.29781-.0211.00828c-.0594-.09364-.1495-.16367-.255-.19807-.1054-.0344-.2195-.03102-.3227.00955-.1032.04058-.1891.11582-.2429.21281s-.0721.20967-.0518.31871l-5.9427 2.33616 4.891-3.26885-.0439-.06574.1482-.04713c.0188.05995.0494.11558.0898.16371s.0899.08781.1457.11678c.0558.02896.1168.04663.1794.052s.1257-.00168.1856-.02072c.0599-.01905.1154-.04972.1634-.09027.0481-.04055.0876-.09018.1164-.14604s.0463-.11685.0515-.17949-.002-.12569-.0212-.18553l4.1914-1.33272-.097-.305-4.3026 1.36807c-.0585-.03622-.1241-.05935-.1924-.06781-.0682-.00846-.1375-.00205-.203.01879-.0656.02084-.1258.05562-.1767.10195-.0508.04633-.091.10311-.1178.16645l-.3476.11052.0292.09194-5.28296 3.53087z"/><path d="m25.3354 26.1581.0494-.3162-10.5266-1.6484 3.8423-1.5654-.1208-.2962-4.0376 1.6449c-.09-.051-.1951-.0684-.2967-.0493l-.1653-.1824v.2415c-.0954.0552-.1689.1417-.2079.2448l-6.93874 1.0577-.23217-4.7589.00359.009.29718-.1184-.34877-.8743-.00175-.0361c.08459-.0584.14763-.143.17942-.2407.03179-.0978.03055-.2033-.00351-.3002l2.29908-5.0415.37889-.8209-.20673-.0954-.00249-.0258-.0386.0037-2.35679-4.35468-.2814.15234 2.29253 4.23584-4.33249.4196c-.01812-.1123-.07557-.2144-.16208-.2882-.08651-.0737-.19644-.1143-.31013-.1145-.01592.0008-.03178.0024-.04752.0048l-.59273-1.4859-.19821-.498-.29734.1182.79647 2.0014c-.04466.0445-.08008.0975-.10422.1557-.02415.0583-.03653.1207-.03645.1838l.00148.0148-.13072.0126.03078.3185.22628-.022c.04315.0472.09536.0852.15349.1118.05814.0265.12103.0411.18493.0429l1.9154 4.813c-.04995.0581-.08513.1274-.10254.202s-.01654.1523.00254.2265.05579.1427.10703.1996c.05123.057.11547.1007.18724.1275l-.08195.1797-.54624 2.655-.37094 1.6427-.00063.1633.31344.0641.35166-1.7169.50262-2.2259.24427 5.0083-.15941.0243.04828.3163.1268-.0193.00922.189.31968-.0157-.01084-.2218 6.91899-1.0547c.0154.0455.0376.0883.0658.1271l-2.3915 4.0357.2753.1632 2.3815-4.0188c.0673.0189.138.0223.2068.0099.0688-.0123.1339-.0401.1904-.0812l4.1651 4.596.2372-.215-4.2158-4.6519.003-.0145zm-18.75776-7.4712c-.08742-.0437-.18679-.0574-.28276-.0389l-1.89486-4.7501c.04569-.0353.08465-.0785.115-.1276l4.53189-.4389-.2011.441z"/><path d="m19.88 4.92999c.0006.05012.0092.09981.0254.14724l-.1421-.13342-2.4708 2.63266-1.1657 1.15952c-.1-.05046-.2153-.06209-.3234-.03266l-1.3166-2.3938-.2803.15422 1.3298 2.41787c-.0433.05606-.0731.12131-.0871.19072-.0141.06941-.012.14112.0061.20959l-1.3933.91757.176.2671 1.3936-.91772c.0844.06535.1885.10007.2952.09848.1068-.00159.2098-.0394.2922-.10723l2.3117 1.27987.155-.28-2.2968-1.27154c.0073-.0332.011-.06707.0111-.10106-.0004-.0709-.0166-.14084-.0474-.20468l1.1694-1.16328 2.4407-2.60031c.0408.06064.0949.11109.1583.14748s.1343.05774.2072.06241.146-.00747.2135-.03548.1277-.07114.1759-.12608l2.1068 2.3526.2384-.21343-2.2257-2.48532c-.0063-.10787-.0489-.21043-.121-.29093s-.1694-.13419-.2759-.15231l-1.5876-1.77277-.2385.21344 1.469 1.64025c-.0627.04414-.1139.1027-.1492.17074-.0354.06805-.0539.14359-.0539.22026z"/></g><path d="m29.3529 19.1859c.1159.0664.2009.1758.2365.3046.0356.1287.019.2663-.0462.3828-.0375.0934-.0986.1754-.1775.2379-.0788.0626-.1726.1035-.272.1187l-2.8989 5.2818c.0255.1181.0194.2409-.0176.3559-.0371.1151-.1038.2183-.1935.2993-.072.0742-.1593.1318-.2558.1689s-.1999.0529-.3031.0461l-5.6531 3.3445c-.0445.1105-.1173.2075-.211.2811-.0938.0737-.2052.1214-.3232.1385-.1227.0291-.2512.0225-.3703-.019s-.2239-.1162-.3019-.2153l-6.642-.4595c-.083.0623-.1787.1054-.2803.1263-.1016.021-.2065.0191-.3073-.0053-.1456-.0209-.2793-.0918-.3782-.2006-.0989-.1087-.1569-.2486-.1638-.3954l-5.13204-3.6586c-.10703.0191-.21704.0127-.32114-.0186-.10411-.0313-.19939-.0867-.27817-.1616-.10338-.0838-.17943-.1966-.21841-.3238-.03899-.1273-.03915-.2633-.00047-.3907l-2.11056-4.8364c-.12721-.036-.2409-.1089-.3267-.2095-.08581-.1006-.13987-.2243-.15536-.3556-.02398-.1176-.01714-.2393.01984-.3535.03698-.1141.10286-.2167.19122-.2979l.31138-7.3209c-.07002-.094-.1151-.2043-.13104-.3204-.01595-.1162-.00224-.2344.03984-.3439.03666-.1333.11496-.2514.22348-.3371.10851-.08566.24157-.13442.37975-.13916l5.53974-5.73495c-.0108-.14994.03238-.29879.12174-.41967s.21902-.20581.36553-.23943c.10148-.03421.20944-.04469.3156-.03063s.20768.05228.29675.11173l7.97092-1.43149c.0676-.12285.1738-.22003.3021-.27657.1283-.05653.2717-.06927.4079-.03624.1276.01581.2477.06842.3458.1514.0981.08299.1699.19275.2067.31589l3.6818 2.07514c.1063-.03188.2181-.04058.3281-.0255.1099.01507.2152.05357.309.11288.0937.05931.1737.13805.2344.23091.0606.09286.1007.19767.1174.30734l1.5843 1.053c.1021-.02742.2092-.03123.313-.01116s.2017.0635.2863.12701c.1381.08032.2396.21102.2834.36465.0437.15363.0262.31823-.0489.45923l-.0104.01287 2.323 4.47985c.1255.0049.246.0507.343.1304.0971.0798.1655.189.1947.3112s.0177.2506-.0328.3656-.1372.2104-.2469.2715c-.0647.0133-.1313.0136-.196.0009-.0648-.0127-.1264-.0381-.1813-.0747s-.1019-.0838-.1385-.1387c-.0365-.055-.0618-.1166-.0744-.1814l-.0156-.0643-4.7803-2.52957c-.0764.10602-.1799.18959-.2996.242v12.60787c.1554.0669.2827.1859.3597.3365.0771.1507.0992.3235.0624.4887l1.9413 1.9541c.0995-.0416.2081-.0567.3153-.0438l2.9314-5.1183c-.0506-.0821-.0796-.1757-.0843-.272-.0048-.0963.0148-.1923.0569-.279.043-.1268.1337-.2319.2529-.2929.1192-.0611.2575-.0733.3855-.034zm.0052.6114c.026-.0468.0324-.1019.018-.1535-.0143-.0515-.0484-.0953-.0948-.122-.0513-.0152-.1065-.0101-.1541.0144-.0476.0244-.0839.0664-.1013.117-.026.0468-.0325.1019-.0181.1535s.0485.0954.095.1219c.0513.0152.1064.01.154-.0145.0475-.0244.0838-.0662.1013-.1168zm-3.472 6.1688c.0494-.0404.0812-.0984.0887-.1618.0075-.0633-.0098-.1272-.0483-.178-.0493-.0402-.1124-.0595-.1757-.0537s-.1219.0361-.1631.0846c-.0494.0406-.0812.0988-.0887.1624-.0076.0636.0098.1276.0483.1787.0494.0403.1126.0595.176.0534.0634-.006.1219-.0368.1628-.0856zm-.8195-.3218.0143-.0309-1.8618-1.8718c-.1117.0689-.2402.1054-.3714.1056-.1362.0001-.2697-.0386-.3848-.1116-.1152-.0729-.2071-.1771-.2653-.3003h-2.4989c-.0649.1345-.1695.2459-.2996.3192l.2436 3.4848c.0943.039.1788.0984.2476.1737zm-5.4304 3.5864 4.517-2.6724-4.117 1.4057c-.0276.1021-.0789.1962-.1498.2747-.0708.0785-.1592.1392-.258.1771l-.125.726c.0482.0233.0929.0532.1328.0889zm-.4234.6926c.0383-.0158.0713-.0422.0953-.076.0239-.0338.0378-.0736.0401-.115.0022-.0414-.0073-.0825-.0275-.1187s-.0502-.0659-.0866-.0858c-.0363-.0198-.0776-.029-.1189-.0263-.0413.0026-.0811.0168-.1147.0411s-.0596.0575-.075.096c-.0155.0384-.0198.0804-.0123.1212.0183.0612.0601.1127.1162.1433s.122.0378.1834.0202zm-.6566-.5124c.087-.1412.2221-.2464.3804-.296l.1186-.6888c-.1054-.0386-.2004-.1012-.2775-.1827l-5.1828.8264zm-4.848-5.5817-1.6859 4.9136 6.5352-1.0427-4.6239-3.9649c-.0693.0438-.1455.0756-.2254.094zm-2.1692 4.5764 1.6077-4.6846c-.1057-.0722-.1902-.1713-.2449-.287h-2.93933c-.01808.0356-.03854.07-.06123.103zm-.1994.9461c.0606.0194.1264.014.183-.015.0566-.0289.0995-.079.1193-.1395.0226-.0509.0288-.1076.0179-.1622-.011-.0546-.0386-.1045-.0791-.1428-.0404-.0382-.0918-.063-.1469-.071-.0551-.0079-.1114.0015-.161.0268-.0496.0254-.0901.0655-.116.1148s-.0358.1055-.0285.1607.0316.1068.0694.1477c.0379.0408.0874.069.1419.0805zm-5.32479-4.3923 4.95739 3.535-1.56601-4.6549c-.1127.0146-.22725.0024-.33434-.0356-.10709-.0381-.20369-.1008-.28192-.1833l-2.766 1.1908c.00397.0495.00134.0992-.00781.148zm-.46382-.7698c.07038.0307.13616.071.19543.1197l2.84415-1.2229c.0057-.1393.05088-.2741.13028-.3888l-4.39845-4.4914zm-.03.784c.036-.0526.05027-.117.03983-.1799-.01044-.0628-.04477-.1192-.09583-.1574-.04316-.0464-.10285-.0741-.16622-.077-.06336-.0029-.12531.0193-.17253.0616-.03663.0525-.0514.1172-.04119.1804s.04461.1199.09591.1582c.04332.0463.10311.0738.16648.0764s.12524-.0197.17227-.0623zm-2.33208-5.5779 1.51392 3.4667-1.01492-4.9407-.4.8419c.03246.106.04041.218.02326.3275s-.05896.2136-.12226.3046zm-.03648-5.5869-.18237 4.315.3622-.7595c-.05977-.1119-.08851-.2377-.08324-.3645.00528-.1268.04438-.2498.11324-.3564zm-.26057-3.4127c-.02666.0582-.0296.1245-.00819.1848.0214.0604.06547.11.12284.1383.06205.0139.12704.0027.18092-.031.05388-.0338.09232-.0873.10701-.1492.02666-.0582.0296-.1245.0082-.1848-.02141-.0603-.06547-.1099-.12285-.1383-.0622-.0137-.12728-.0025-.18133.0312s-.09278.0872-.1079.149zm1.09961 6.6335c-.00502-.0462-.02333-.0899-.05271-.126-.02937-.036-.06856-.0627-.11282-.0769-.04425-.0143-.09168-.0153-.13653-.0032-.04486.0122-.08523.0371-.11623.0718-.03099.0346-.05128.0775-.05841.1234s-.0008.093.01823.1354.04994.0784.08899.1036c.03906.0252.08458.0385.13106.0384.06688-.0039.12949-.0341.17416-.0841.04467-.0499.06777-.1155.06426-.1824zm-.29966-6.2898c-.03683.1096-.09783.2095-.17849.2923l.37783 5.1363 2.31909-7.24624-2.482 1.66454c-.00728.0521-.01947.1033-.03643.1531zm3.94246-4.61495-3.17116 3.28264 1.62466-1.08906c.02196-.14692.08625-.28425.185-.39521.10234-.1199.24012-.20419.39346-.24072zm1.63379-1.55377-2.06765 3.32382c.04992.09164.07167.19598.06254.29994l1.53086.46472c.12957-.13647.30757-.21657.49563-.22304.18807-.00646.37115.06123.50978.18848.06885.06339.12436.13988.16326.225h2.56272c.048-.10132.1189-.1901.2071-.25935s.1912-.11707.301-.13971l1.3928-2.92726c-.075-.09737-.1243-.21202-.1433-.33341l-4.2578-.932c-.09704.13898-.23859.2407-.40127.28836-.11491.0363-.23674.04512-.35568.02574zm.07557-.84061c-.0623.01321-.11701.05017-.15252.10303-.03551.05287-.04903.11749-.0377.18017.0297.05441.07728.09691.13469.12031.05741.02339.12114.02625.18042.00809.05927-.01816.11047-.05622.14492-.10776s.05006-.1134.04418-.17511c-.01209-.02914-.02981-.05559-.05216-.07784-.02235-.02226-.04888-.03987-.07806-.05184-.02919-.01196-.06045-.01804-.09199-.01788-.03153.00017-.06273.00656-.09179.01883zm8.14027-.98347-6.4257 1.156 3.3614.735c.0915-.12273.2199-.21302.3664-.25771.1464-.04468.3034-.04144.4479.00926zm.7882.12487-2.396 1.75074 6.5729.18022.0144-.04892-3.4838-1.96191c-.0796.05749-.1702.09801-.2661.11905-.096.02103-.1952.02214-.2916.00324-.0512-.00909-.1014-.02332-.1498-.04246zm.3101-.79684c-.0616-.01697-.1274-.0089-.183.02246-.0556.03135-.0966.08343-.114.14489.0018.06206.025.1216.0656.16853.0407.04693.0963.07836.1575.08896.0612.01061.1241-.00026.1782-.03077.0541-.0305.096-.07877.1185-.13661.0037-.06349-.0175-.12591-.0591-.17399-.0416-.04809-.1004-.07804-.1637-.0835zm4.2121 3.50787c-.0887-.05413-.1662-.12495-.228-.20854l-6.8569-.18795c-.0053.04027-.0144.07993-.0274.11843l2.7673 3.15261c.1593-.03465.3257-.01463.4722.05684.1466.07147.2648.19021.3356.33708h2.9405c.0723-.15153.1947-.27342.3466-.34501zm.0522 3.29292c-.0769.00018-.1505.03084-.2047.08526-.0543.05442-.0847.12814-.0846.20496.0001.07683.0307.15048.085.20477.0544.0543.1281.08479.2049.08479s.1505-.03049.2049-.08479c.0543-.05429.0849-.12794.085-.20477.0001-.07682-.0303-.15054-.0846-.20496-.0542-.05442-.1278-.08508-.2046-.08526zm.129-4.11937c-.0329.06513-.0387.14058-.0163.20998.0225.06941.0714.12717.1361.16076.0297.02018.0632.0342.0985.04125.0352.00705.0715.00697.1067-.00022s.0686-.02136.0983-.04166c.0296-.02031.0549-.04634.0743-.07656.0295-.06528.0338-.13913.0122-.2074s-.0677-.12615-.1294-.16253-.1346-.04871-.2049-.0346c-.0702.0141-.1327.05364-.1756.11102zm5.1006 6.84585-4.7254-5.90483-.2385 2.79217c.126.0504.2354.13493.3159.24408.0806.10916.1291.23861.1401.37382zm-2.9874-5.1453-1.0605-.70287 3.4226 4.40257-1.6651-2.94407c-.139-.01059-.2724-.05913-.3856-.14031-.102-.06567-.1847-.15725-.2396-.26537-.055-.10812-.0802-.2289-.0731-.34997zm.4951-.07337c-.0303.05635-.0374.12226-.0199.18378.0175.06151.0583.11379.1137.14577.0483.0414.1112.06194.1747.05711s.1224-.03462.164-.08286c.0302-.05603.0374-.12159.0202-.18284-.0173-.06125-.0577-.1134-.1127-.14542-.0239-.02057-.0517-.03621-.0816-.04605-.03-.00983-.0616-.01367-.0931-.01128-.0315.0024-.0621.01096-.0903.02521-.0281.01425-.0532.03391-.0737.05786zm-7.257 2.78437c-.0003.0372.0067.07412.0206.1086.014.03449.0347.06587.0608.09232.0262.02646.0573.04746.0917.0618.0343.01435.0711.02174.1084.02177.0565.00048.1119-.01585.1591-.04692s.0841-.07547.1061-.12757c.0219-.0521.0279-.10954.0171-.16503s-.0378-.10653-.0777-.14663c-.0398-.04009-.0907-.06744-.1461-.07857-.0554-.01112-.1129-.00553-.1651.01609-.0523.02161-.0969.05825-.1283.10528-.0313.04704-.048.10233-.0479.15886zm.155 6.1443c-.0381.0001-.0758.0077-.1109.0224-.0352.0147-.0671.0361-.0939.0631-.0269.0271-.0482.0591-.0626.0943-.0145.0353-.0219.073-.0218.1111-.0005.0382.0066.0762.0209.1116.0142.0355.0354.0677.0623.095.0268.0272.0588.0488.094.0635.0353.0148.0731.0223.1114.0224.0382 0 .076-.0076.1113-.0224.0353-.0147.0672-.0363.0941-.0635.0268-.0272.048-.0595.0623-.0949.0143-.0355.0214-.0734.0209-.1116v-.0001c.0003-.0379-.0069-.0755-.0212-.1107-.0142-.0351-.0352-.0671-.0618-.0941-.0267-.027-.0583-.0485-.0933-.0633-.0349-.0148-.0724-.0225-.1103-.0228zm-3.7743-10.3293c-.0002.03804.0071.07575.0215.11095.0144.03521.0356.06723.0624.09421.0268.02697.0587.04838.0938.06299.0352.01461.0728.02213.1109.02213.038 0 .0757-.00752.1108-.02213s.067-.03602.0938-.06299c.0269-.02698.0481-.059.0625-.09421.0144-.0352.0217-.07291.0215-.11095.0005-.03822-.0066-.07616-.0209-.11161-.0143-.03546-.0354-.06773-.0623-.09493-.0268-.02721-.0588-.04881-.0941-.06356-.0352-.01474-.0731-.02234-.1113-.02234-.0382-.00001-.0761.00758-.1113.02232-.0353.01474-.0673.03633-.0941.06353-.0269.02721-.048.05947-.0623.09492s-.0214.07339-.0209.11161zm.2111.82-1.3211 2.77415c.1473.10609.2495.26359.2864.44138.037.17779.0059.36296-.0871.51895l4.4037 5.39382c.0404-.0166.0823-.0295.125-.0386v-5.05403c-.0963-.04054-.1828-.10148-.2533-.17861-.0706-.07713-.1236-.16864-.1554-.26822s-.0417-.20487-.0289-.30862c.0127-.10376.0478-.20352.1028-.29242l-2.6839-3.056c-.1207.058-.255.0816-.3882.0682zm-2.0325 3.365c.0007.05689.0182.11231.0503.15928s.0774.0834.1302.10471c.0527.02131.1106.02655.1663.01506.0558-.01149.1068-.0392.1469-.07964.04-.04044.0672-.09181.0781-.14765s.0051-.11367-.0168-.1662c-.0218-.05254-.0587-.09745-.106-.12908s-.1029-.04858-.1598-.0487c-.0382.00015-.076.00784-.1112.02262s-.0672.03636-.094.0635c-.0269.02714-.0481.05932-.0626.09468-.0144.03537-.0217.07323-.0214.11142zm-3.8565 0c.00072.05565.01789.10985.04935.15578.03145.04592.07579.08151.12744.10228.05164.02078.10827.02581.16276.01447.0545-.01135.10442-.03856.14348-.07821.03906-.03966.06552-.08998.07604-.14464s.00464-.11121-.01691-.16254c-.02155-.05132-.0578-.09512-.10419-.12588s-.10085-.04711-.15651-.04699c-.03728.00012-.07417.00763-.10854.02209s-.06553.03558-.0917.06214c-.02616.02657-.04681.05805-.06074.09263-.01394.03458-.02089.07158-.02045.10887zm.28146 13.6584c-.03792.0002-.07542.008-.11035.0227-.03493.0148-.06661.0363-.09323.0633-.02661.027-.04765.059-.0619.0942-.01425.0351-.02144.0727-.02115.1106v.0001c-.00045.0381.00667.0759.02094.1112.01427.0354.0354.0675.06218.0946.02679.0271.05868.0486.09383.0633.03516.0147.07288.0222.11098.0222s.07582-.0075.11098-.0222c.03515-.0147.06705-.0362.09383-.0633s.04792-.0592.06219-.0946c.01427-.0353.02138-.0731.02093-.1112.00029-.0379-.00689-.0755-.02114-.1107-.01425-.0351-.03528-.0671-.06189-.0941-.02662-.027-.05829-.0486-.09322-.0633-.03493-.0148-.07243-.0225-.11035-.0228zm-2.86109-14.75256c-.04616.04423-.07333.10468-.07576.16858-.00242.06389.02008.12622.06276.17383.05197.03639.11622.05072.17872.03986.0625-.01085.11816-.04601.15481-.09778.0463-.04383.0737-.10397.07637-.16766.00268-.0637-.01958-.12592-.06204-.17347-.0257-.01829-.05475-.03133-.08549-.03838-.03075-.00705-.06258-.00798-.09368-.00272s-.06086.0166-.08757.03337c-.02672.01677-.04986.03864-.06812.06437zm-2.11715 8.57216c.07169.1142.11004.2462.11073.3811s-.0363.2673-.10682.3823l4.6929 4.7913v-12.36196c-.12689-.0547-.23557-.1444-.31333-.25862-.07775-.11422-.12136-.24822-.12573-.38632l-1.5921-.48275c-.04954.04441-.10474.08207-.16416.11201zm14.71448 5.7414c.1481.0005.2925.0465.4136.1317.1212.0851.2133.2054.2639.3446h2.4468c.0337-.0926.086-.1774.1537-.2491.0676-.0717.1492-.1289.2397-.168v-12.60786c-.0905-.03903-.1721-.09616-.2398-.16789-.0677-.07172-.1199-.15653-.1536-.2492h-2.8872c-.034.09245-.0865.17706-.1541.24874-.0676.07167-.149.12894-.2393.16835v5.16206c.1046.0698.1893.1655.2459.2778.0566.1122.0831.2373.0769.3629-.0061.1255-.0447.2474-.112.3536s-.1609.1932-.2718.2524c-.111.0592-.2353.0887-.361.0855s-.2484-.0389-.3562-.1037c-.1078-.0647-.1969-.1563-.2587-.2658-.0619-.1095-.0942-.2331-.094-.3588v-.0014c-.0005-.088.0154-.1753.0469-.2575l-4.4662-5.46844c-.1719.03967-.3524.01526-.5076-.06863-.1552-.0839-.2744-.22153-.3354-.38708h-2.50927c-.03423.09257-.08686.17725-.15471.24893s-.14951.12889-.24006.16816v12.60786c.09066.0391.17241.0963.24028.168s.12043.1564.15449.2491h2.88587c.0342-.0926.0868-.1772.1547-.2489.0678-.0717.1495-.1289.24-.1682v-5.2393c-.1344-.083-.2384-.2073-.2961-.3544s-.0661-.3089-.024-.4612c.0422-.1522.1326-.2867.2578-.3832.1251-.0964.2782-.1496.4362-.1516h.0027c.0952-.0002.1896.0183.2776.0545.0881.0362.1682.0894.2357.1566s.1212.147.1578.2349c.0367.0879.0557.1821.056.2774-.0003.0886-.0172.1764-.0496.2588l4.5378 5.574c.0608-.0161.1234-.0247.1863-.0257zm.3127 5.2097c-.05.0057-.0972.0257-.1361.0576s-.0677.0744-.0831.1223c-.0153.0479-.0165.0992-.0033.1477.0131.0486.04.0923.0774.1259.0374.0337.0837.0558.1334.0637.0496.008.1005.0014.1466-.0189.046-.0203.0851-.0535.1128-.0955.0276-.042.0425-.0912.0428-.1415-.0044-.0727-.0372-.1408-.0913-.1896s-.1251-.0746-.1979-.0717zm-.6006-4.4798c-.0004.0381.0067.0759.021.1112s.0355.0675.0622.0946c.0268.0271.0587.0486.0938.0633.0351.0148.0728.0224.1109.0225s.0758-.0074.111-.022c.0352-.0145.0672-.0359.0941-.0629s.0482-.059.0626-.0943c.0145-.0352.0218-.073.0216-.1111v-.0013c.0001-.0381-.0073-.0758-.0218-.1111-.0144-.0352-.0357-.0673-.0626-.0943-.0268-.027-.0587-.0485-.0939-.0631-.0352-.0147-.0729-.0223-.111-.0224-.0767.0005-.1501.0314-.204.086-.054.0545-.0842.1282-.0839.2049zm-5.403-6.5305c.0004.0569.0177.1125.0497.1596.032.0472.0772.0838.1299.1053s.1106.0269.1665.0156c.0558-.0114.107-.039.1471-.0794.0402-.0404.0675-.0917.0785-.1476s.0053-.1138-.0166-.1664c-.0218-.0526-.0586-.0976-.106-.1292-.0473-.0317-.1029-.0487-.1599-.0488-.0769.0003-.1505.0311-.2047.0856-.0542.0546-.0846.1284-.0845.2053zm.1954 6.2396c-.0381.0001-.0758.0077-.1109.0223-.0352.0147-.0671.0362-.094.0632-.0268.027-.0481.0591-.0626.0943s-.0218.073-.0217.1111c.0004.0569.0177.1124.0496.1595s.077.0837.1297.1052c.0526.0216.1105.0271.1663.0158.0557-.0112.1069-.0387.1471-.0789.0403-.0403.0677-.0915.0788-.1473.0112-.0558.0056-.1136-.016-.1663-.0216-.0526-.0583-.0977-.1054-.1295-.0471-.0319-.1027-.0491-.1595-.0494zm.2814-.3798c.1549.0663.282.1843.3594.3339.0775.1495.1006.3214.0654.4861l4.6811 4.0126c.0427-.0245.0876-.0448.1342-.0606l-.2397-3.4036c-.1478-.0473-.2767-.1404-.368-.2658-.0914-.1255-.1404-.2767-.1401-.4319-.0007-.1231.0307-.2443.0912-.3515l-4.4857-5.5096c-.0316.0137-.0643.0249-.0977.0335zm9.3024.6694c.0002-.0379-.0072-.0755-.0216-.1106-.0144-.035-.0356-.0669-.0623-.0938s-.0585-.0483-.0935-.0629-.0725-.0222-.1105-.0223c-.0381.0001-.0758.0077-.1109.0223-.0352.0147-.0671.0362-.0939.0632-.0269.027-.0482.0591-.0626.0943-.0145.0352-.0219.073-.0218.1111-.0002.0381.0071.0759.0215.1112.0145.0353.0357.0674.0626.0944s.0589.0485.0941.0631c.0352.0147.0729.0222.111.0222.0382 0 .0759-.0075.1111-.0222.0352-.0146.0672-.0361.0941-.0631s.0481-.0591.0626-.0944c.0144-.0353.0217-.0731.0215-.1112zm-20.46784-3.8889c.05758-.0232.10551-.0653.13584-.1195.03033-.0541.04122-.117.03087-.1782-.01034-.0612-.04131-.117-.08775-.1581-.04644-.0412-.10556-.0652-.16755-.0682-.06119.0182-.1128.0597-.14374.1156-.03094.0558-.03874.1216-.02172.1831.00184.0315.00988.0623.02365.0907.01378.0284.03301.0537.05662.0747.0236.0209.0511.037.08092.0472.02982.0103.06138.0146.09286.0127zm26.02074-7.3557c-.0489.0223-.0873.0625-.1074.1123s-.0204.1055-.0008.1554c.0103.052.0407.0979.0847.1275.0439.0297.0978.0408.1499.0309.0491-.022.088-.0621.1083-.112.0204-.0498.0208-.1056.0011-.1558-.0049-.0258-.0149-.0504-.0293-.0724-.0145-.022-.0332-.0409-.055-.0556s-.0463-.025-.0721-.0302-.0523-.0052-.0781-.0001z" fill="url(#a)"/><path d="m23.1316 22.4466v-12.60786c.1197-.05241.2232-.13598.2997-.242.108-.13878.1572-.31448.1368-.48918-.0111-.13521-.0596-.26467-.1401-.37382-.0806-.10916-.19-.19369-.3159-.24409-.1846-.06677-.3877-.06078-.568.01673-.1519.07159-.2743.19348-.3466.345h-2.9406c-.0708-.14687-.189-.26561-.3356-.33708-.1465-.07146-.3129-.09149-.4722-.05684-.096.01911-.1867.05882-.2659.11638-.0791.05756-.1449.13161-.1927.21704-.0536.08926-.0875.18892-.0995.29233-.0121.10342-.0019.20821.0298.30738.0317.09918.0842.19045.1539.26773.0698.07728.1552.13879.2507.18043v5.05405c-.0428.0091-.0847.022-.1251.0386l-4.4037-5.39389c.093-.15598.1241-.34115.0872-.51894-.0369-.1778-.1391-.33529-.2865-.44139-.0793-.06067-.1708-.10338-.2682-.12516s-.1984-.02213-.2959-.001c-.1098.02264-.2129.07047-.3011.13972-.0881.06925-.159.15803-.2071.25934h-2.56268c-.03891-.08512-.09441-.16161-.16326-.225-.13863-.12725-.32171-.19494-.50977-.18849-.18807.00646-.36607.08656-.49564.22302-.06731.07134-.1199.15524-.15477.2469-.03487.09167-.05134.18931-.04847.28734.00436.1381.04797.27211.12573.38633.07776.11421.18644.20392.31333.25861l-.00523 12.60781c-.12188.0549-.22673.1416-.30355.251v.0001l.00043.0002c-.02026.0289-.03835.0593-.05413.0909-.007.014-.01192.0289-.018.0433-.00771.0183-.01606.0362-.02225.0552-.00419.0128-.0066.026-.01008.039-.00661.0232-.01201.0467-.0162.0704l-.00241.0215c-.00449.0328-.00669.0658-.00658.0989.00089.1411.04224.2789.11914.3972.07689.1183.1861.212.31467.27l.011.0046c.03922.0168.07989.0299.12152.0392l.02312.0039c.03806.0073.07666.0114.11541.0122.00616.0001.01225.0009.01843.0009.11594-.0017.22981-.0309.33222-.0853.10242-.0544.19043-.1323.25678-.2274.02159-.0315.04114-.0644.05853-.0985h2.92021c.0087-.0055.0157-.007.0191 0 .0812.1662.2225.2952.3954.3609.1728.0658.3642.0632.5353-.007l.0043-.0023c.1299-.0567.2404-.1502.3178-.269.0775-.1187.1185-.2575.1182-.3992h.0001c.0005-.1426-.0409-.2822-.119-.4014-.0782-.1193-.1897-.2129-.3206-.2693v-5.1569c.0334-.0086.0661-.0198.0977-.0335l4.4857 5.5097c-.0604.1072-.0919.2283-.0912.3514-.0003.1551.0487.3064.14.4318s.2202.2185.368.2658c.0678.0213.1385.0321.2096.0323.1369-.0001.2711-.0387.3871-.1116s.2091-.177.2686-.3003h2.4988c.0424.0899.1031.17.1781.2352.0751.0651.163.1139.2579.1432l-.0018-.0077c.1297.0419.2686.0461.4006.012.1319-.034.2515-.1049.3447-.2043.0895-.0957.1507-.2144.177-.3428.0365-.1651.0143-.3377-.0628-.4882-.0771-.1504-.2042-.2693-.3595-.3361zm-.2853-13.57077h.0013c.0773.00017.1513.03101.2059.08575.0545.05473.0851.12888.085.20615-.0001.07728-.0308.15136-.0855.20597s-.1288.08529-.2061.08529c-.0772 0-.1513-.03068-.206-.08529s-.0854-.12869-.0855-.20597c-.0001-.07727.0305-.15142.085-.20615.0546-.05474.1286-.08558.2059-.08575zm-4.2382.00644c.0752.00063.1471.03095.2001.08435.0529.05341.0826.12558.0826.20079s-.0297.14738-.0826.20079c-.053.0534-.1249.08372-.2001.08435-.0372-.00002-.0741-.00742-.1084-.02176-.0343-.01435-.0655-.03535-.0916-.06181-.0262-.02645-.0469-.05783-.0608-.09232-.014-.03449-.021-.0714-.0206-.10861h-.0013c-.0003-.07534.0293-.14771.0823-.20128.053-.05356.125-.08394.2004-.0845zm-.4156 6.72103c-.0001-.0381.0072-.0759.0217-.1111.0145-.0353.0358-.0673.0626-.0943.0269-.027.0588-.0485.094-.0632.0351-.0146.0728-.0222.1109-.0223h.0013c.038.0002.0755.008.1104.0228.0349.0147.0666.0362.0932.0632.0266.0271.0477.0591.0619.0942.0143.0351.0214.0727.0211.1107.0005.0382-.0066.0762-.0208.1116-.0143.0355-.0355.0678-.0623.095-.0269.0272-.0589.0487-.0941.0635-.0353.0147-.0731.0223-.1114.0223-.0382 0-.076-.0076-.1113-.0223-.0352-.0148-.0672-.0364-.0941-.0636-.0268-.0272-.048-.0595-.0623-.0949-.0142-.0355-.0213-.0734-.0208-.1116zm-5.0173-6.72747c.0568.00187.1118.02015.1584.05263s.0829.07777.1043.1304.0272.11034.0165.16615-.0373.10734-.0766.14835c-.0341.03309-.0757.05732-.1213.07055-.0455.01324-.0937.01508-.1401.00535-.0465-.00972-.0898-.0307-.1263-.0611-.0364-.0304-.0649-.06929-.0828-.11325s-.0247-.09164-.0199-.13885c.0049-.04722.0213-.09252.0477-.13193s.0622-.07172.104-.09409c.0419-.02237.0886-.03412.1361-.03421zm-3.8643.00644c.07351.00314.14298.03455.19389.08768.05091.05314.07933.12388.07933.19746s-.02842.14433-.07933.19746-.12038.08454-.19389.08768c-.07352-.00314-.14298-.03455-.19389-.08768s-.07933-.12388-.07933-.19746.02842-.14432.07933-.19746c.05091-.05313.12037-.08454.19389-.08768zm.28923 14.23503c-.00059.0568-.01795.1121-.04989.159-.03195.047-.07705.0834-.12964.1048s-.11032.0267-.16595.0154c-.05562-.0114-.10665-.0389-.14667-.0792-.04002-.0402-.06725-.0914-.07827-.1471-.01101-.0557-.00532-.1134.01637-.1659.02168-.0524.05839-.0973.10551-.129.04711-.0316.10254-.0487.15931-.0489h.00263c.03792.0002.07542.008.11034.0228.03493.0147.06661.0362.09323.0632.02661.0271.04764.0591.06189.0942s.02143.0727.02114.1107zm4.23947 0c-.0004.057-.0178.1126-.0498.1598-.032.0471-.0773.0838-.1301.1052-.0528.0215-.1108.0268-.1666.0154-.0559-.0115-.1071-.0392-.1472-.0797s-.0673-.092-.0781-.148c-.0109-.0559-.005-.1139.017-.1664.0221-.0526.0591-.0975.1066-.129.0475-.0316.1033-.0483.1603-.0482h.0013c.038.0003.0755.008.1104.0228s.0666.0363.0932.0633.0476.059.0619.0941c.0142.0352.0214.0728.0211.1107zm-.1941-6.2395c-.0751-.0031-.1461-.0351-.1982-.0893s-.0811-.1265-.0811-.2017.029-.1474.0811-.2016c.0521-.0543.1231-.0863.1982-.0893.0751.0031.146.0351.1981.0893.052.0543.081.1265.081.2016s-.029.1474-.0811.2016c-.052.0542-.1229.0862-.198.0893zm5.4004 6.5305c-.0765-.0012-.1495-.0325-.2031-.087-.0537-.0546-.0837-.1281-.0835-.2046s.0305-.1499.0844-.2042c.0538-.0544.1269-.0853.2035-.0861.0381.0001.0758.0077.1109.0224.0352.0147.0671.0361.0939.0631.0269.0271.0482.0591.0626.0943.0145.0353.0219.073.0218.1111v.0013c-.0002.0769-.0308.1507-.0853.205s-.1283.0847-.2052.0846zm3.1255-.5446h-2.4468c-.0506-.1391-.1427-.2594-.2638-.3446-.1212-.0852-.2656-.1311-.4136-.1317-.063.001-.1255.0097-.1864.0258l-4.5378-5.574c.0325-.0825.0493-.1703.0496-.2589-.0002-.0952-.0192-.1895-.0559-.2774s-.0903-.1677-.1578-.2349c-.0676-.0671-.1476-.1204-.2357-.1566s-.1825-.0547-.2777-.0545h-.0027c-.158.002-.3111.0552-.4362.1517-.1251.0964-.2156.2309-.2578.3832-.0421.1522-.0337.3141.024.4611.0578.1471.1617.2715.2962.3544v5.2393c-.0906.0393-.1722.0965-.2401.1682-.0678.0717-.1205.1563-.1547.2489h-2.88583c-.03406-.0926-.08663-.1774-.1545-.2491-.06786-.0717-.14961-.1289-.24027-.168v-12.60786c.09055-.03927.17221-.09647.24006-.16815s.12048-.15637.15471-.24894h2.50933c.0609.16556.1802.30319.3354.38709s.3357.1083.5076.06862l4.4662 5.46844c-.0315.0822-.0474.1695-.0469.2575v.0014c.0015.1239.035.2453.0971.3525.062.1073.1507.1967.2573.2597.1067.0631.2278.0976.3517.1003s.2463-.0265.3556-.0849.2018-.1439.2685-.2483c.0666-.1044.1053-.2243.1123-.348.0069-.1237-.0181-.2471-.0727-.3584-.0546-.1112-.1368-.2065-.2389-.2768v-5.16206c.0903-.03941.1717-.09667.2393-.16835s.12-.15628.1541-.24874h2.8872c.0337.09267.0859.17748.1536.24921.0677.07172.1493.12886.2398.16788v12.60786c-.0905.0391-.1721.0963-.2398.168-.0676.0717-.1199.1565-.1537.2491zm.387.2536c-.0002-.0381.0072-.0758.0217-.1111.0145-.0352.0358-.0673.0626-.0943.0269-.027.0588-.0484.094-.0631.0351-.0147.0728-.0223.1109-.0224.0379.0001.0755.0077.1105.0223s.0667.036.0935.0629c.0267.0269.0479.0588.0623.0939.0144.035.0217.0726.0216.1105l.0013.0013c-.0022.0753-.0336.1467-.0876.1992s-.1263.0818-.2016.0818-.1477-.0293-.2017-.0818-.0854-.1239-.0875-.1992z" fill="#fff"/></svg>