<svg xmlns="http://www.w3.org/2000/svg" width="32" height="32" fill="none"><defs><linearGradient id="ncash__a" x1="15.92" x2="15.92" y1="30.16" y2="1.84" gradientUnits="userSpaceOnUse"><stop stop-color="#005BC1"/><stop offset="1" stop-color="#009AD9"/></linearGradient></defs><path fill="#061E2A" d="M16 32c8.837 0 16-7.163 16-16S24.837 0 16 0 0 7.163 0 16s7.163 16 16 16Z"/><path fill="#005BC0" d="m23.104 19.212-.289.137 2.858 6.016.29-.138-2.859-6.015ZM7.055 8.136l-.014.005.117.298 6.474-2.545a.476.476 0 0 0 .789-.31l.064-.025-.117-.298-.022.008a.477.477 0 0 0-.872.343L7.531 7.95l4.891-3.27-.044-.065.149-.047a.477.477 0 1 0 .91-.29l4.192-1.332-.097-.305-4.303 1.368a.477.477 0 0 0-.69.219l-.348.11.03.092-5.283 3.53.117.176Zm18.28 18.022.05-.316-10.527-1.648 3.843-1.566-.121-.296-4.038 1.645a.438.438 0 0 0-.297-.05l-.165-.182v.242a.479.479 0 0 0-.208.244L6.933 25.29l-.232-4.759.004.01.297-.12-.349-.873-.001-.037a.469.469 0 0 0 .175-.54l2.3-5.042.378-.82-.206-.096-.003-.026-.038.004L6.9 8.635l-.282.152 2.293 4.236-4.333.42a.48.48 0 0 0-.472-.403.473.473 0 0 0-.047.005l-.593-1.486-.198-.498-.298.118.797 2.002a.479.479 0 0 0-.14.339v.015l-.13.012.03.319.227-.022a.477.477 0 0 0 .338.155l1.916 4.813a.476.476 0 0 0 .194.755l-.082.18-.546 2.655-.371 1.643v.163l.313.064.351-1.717.503-2.226.244 5.008-.159.025.048.316.127-.02.01.19.319-.016-.01-.222 6.918-1.054a.475.475 0 0 0 .066.127l-2.392 4.035.276.164 2.381-4.02a.462.462 0 0 0 .397-.07l4.166 4.595.237-.215-4.216-4.651.003-.015 10.55 1.652ZM6.578 18.687a.444.444 0 0 0-.283-.039L4.4 13.898a.48.48 0 0 0 .115-.128l4.532-.439-.201.441-2.268 4.915ZM19.88 4.93c0 .05.01.1.025.147l-.142-.133-2.47 2.632-1.166 1.16a.454.454 0 0 0-.324-.033L14.487 6.31l-.28.154 1.33 2.418a.461.461 0 0 0-.082.4l-1.393.918.176.267 1.394-.918a.47.47 0 0 0 .587-.009l2.312 1.28.155-.28-2.297-1.272a.477.477 0 0 0-.036-.305l1.169-1.164 2.44-2.6a.477.477 0 0 0 .756.048L22.824 7.6l.239-.213L20.837 4.9a.478.478 0 0 0-.397-.443l-1.587-1.773-.239.214 1.47 1.64a.478.478 0 0 0-.204.391Z"/><path fill="url(#ncash__a)" d="M29.353 19.186a.507.507 0 0 1 .19.687.578.578 0 0 1-.45.357l-2.898 5.282a.688.688 0 0 1-.211.655.713.713 0 0 1-.56.215l-5.652 3.344a.681.681 0 0 1-.534.42.662.662 0 0 1-.673-.234l-6.642-.46a.703.703 0 0 1-.587.121.632.632 0 0 1-.542-.596L5.662 25.32a.693.693 0 0 1-.6-.18.67.67 0 0 1-.219-.715l-2.11-4.837a.669.669 0 0 1-.482-.565.696.696 0 0 1 .21-.651l.312-7.32a.695.695 0 0 1-.09-.665.649.649 0 0 1 .602-.476l5.54-5.735a.63.63 0 0 1 .487-.66.7.7 0 0 1 .613.082l7.97-1.432a.639.639 0 0 1 .71-.313.661.661 0 0 1 .553.468l3.682 2.075a.775.775 0 0 1 .989.625l1.584 1.053a.697.697 0 0 1 .6.116.618.618 0 0 1 .234.824l-.01.013 2.323 4.48a.576.576 0 0 1 .258 1.079.497.497 0 0 1-.59-.394l-.016-.065-4.78-2.53a.73.73 0 0 1-.3.243v12.608a.727.727 0 0 1 .422.825l1.941 1.954a.624.624 0 0 1 .316-.044l2.93-5.118a.572.572 0 0 1-.026-.551.515.515 0 0 1 .638-.327Zm.005.611a.203.203 0 0 0-.077-.275.208.208 0 0 0-.255.131.203.203 0 0 0 .077.276.208.208 0 0 0 .255-.132Zm-3.472 6.17a.246.246 0 0 0 .04-.34.243.243 0 0 0-.338.03.248.248 0 0 0-.04.341.242.242 0 0 0 .338-.032Zm-.82-.323.015-.03-1.862-1.872a.71.71 0 0 1-.756-.006.718.718 0 0 1-.265-.3h-2.5a.731.731 0 0 1-.299.319l.244 3.484a.696.696 0 0 1 .247.174l5.177-1.769Zm-5.43 3.587 4.517-2.673-4.117 1.406a.671.671 0 0 1-.408.452l-.125.726a.573.573 0 0 1 .133.089Zm-.423.692a.22.22 0 1 0-.3-.163.242.242 0 0 0 .3.163Zm-.657-.512a.689.689 0 0 1 .38-.296l.12-.689a.726.726 0 0 1-.278-.183l-5.183.827 4.961.34Zm-4.848-5.582-1.686 4.914 6.536-1.043-4.624-3.965a.727.727 0 0 1-.226.094Zm-2.169 4.577 1.608-4.685a.72.72 0 0 1-.245-.287h-2.94a.906.906 0 0 1-.06.103l1.637 4.869Zm-.2.946a.24.24 0 0 0 .303-.155.27.27 0 1 0-.302.155Zm-5.324-4.393 4.957 3.535-1.566-4.654a.722.722 0 0 1-.616-.22l-2.766 1.191a.56.56 0 0 1-.008.148h-.001Zm-.464-.77c.07.031.136.072.195.12l2.845-1.223a.736.736 0 0 1 .13-.388l-4.399-4.492 1.229 5.984Zm-.03.785a.247.247 0 0 0-.056-.338.242.242 0 0 0-.339-.015.247.247 0 0 0 .055.338.242.242 0 0 0 .339.015h.001Zm-2.332-5.578 1.514 3.466-1.015-4.94-.4.842a.732.732 0 0 1-.1.632Zm-.037-5.587-.182 4.315.362-.76a.71.71 0 0 1 .03-.72l-.21-2.835Zm-.26-3.413a.246.246 0 0 0 .115.323.242.242 0 0 0 .287-.18.246.246 0 0 0-.114-.323.244.244 0 0 0-.29.18h.002Zm1.1 6.634a.24.24 0 1 0-.239.266.253.253 0 0 0 .238-.266Zm-.3-6.29a.77.77 0 0 1-.179.292l.378 5.136 2.32-7.246-2.483 1.665a.832.832 0 0 1-.036.153Zm3.942-4.615-3.17 3.282 1.624-1.089a.764.764 0 0 1 .185-.395.744.744 0 0 1 .393-.24l.968-1.558ZM9.268 4.57 7.2 7.895a.53.53 0 0 1 .063.3l1.53.465a.717.717 0 0 1 1.17.19h2.562a.724.724 0 0 1 .508-.4l1.393-2.926a.732.732 0 0 1-.143-.334l-4.258-.932a.745.745 0 0 1-.401.289.77.77 0 0 1-.356.025Zm.076-.84a.245.245 0 0 0-.19.283.27.27 0 0 0 .504-.155.24.24 0 0 0-.314-.129Zm8.14-.984-6.426 1.156 3.362.735a.718.718 0 0 1 .814-.248l2.25-1.643Zm.788.125-2.396 1.75 6.573.18.014-.048-3.483-1.962a.717.717 0 0 1-.558.122.777.777 0 0 1-.15-.042Zm.31-.797a.242.242 0 0 0-.297.167.27.27 0 0 0 .52.09.244.244 0 0 0-.223-.257Zm4.212 3.508a.805.805 0 0 1-.228-.209l-6.857-.188a.625.625 0 0 1-.027.119l2.767 3.152a.725.725 0 0 1 .808.394h2.94a.728.728 0 0 1 .347-.345l.25-2.923Zm.052 3.293a.29.29 0 1 0 .002 0h-.002Zm.13-4.12a.277.277 0 0 0 .12.371.269.269 0 0 0 .377-.077.29.29 0 0 0-.498-.294Zm5.1 6.846-4.725-5.905-.239 2.793a.729.729 0 0 1 .456.618l4.508 2.494ZM25.09 6.457l-1.06-.703 3.422 4.403-1.665-2.944a.76.76 0 0 1-.386-.14.684.684 0 0 1-.313-.616h.002Zm.495-.073a.246.246 0 0 0 .094.33.24.24 0 0 0 .338-.027.245.245 0 0 0-.092-.328.24.24 0 0 0-.339.026l-.001-.001Zm-7.257 2.784a.284.284 0 0 0 .173.263.285.285 0 1 0-.174-.263Zm.155 6.144a.29.29 0 0 0-.29.291.288.288 0 1 0 .578 0 .288.288 0 0 0-.287-.29h-.001ZM14.708 4.983a.289.289 0 1 0 .577 0 .288.288 0 1 0-.578 0Zm.21.82-1.32 2.774a.726.726 0 0 1 .199.96l4.404 5.394a.729.729 0 0 1 .125-.038V9.839a.724.724 0 0 1-.335-1.048l-2.684-3.056a.728.728 0 0 1-.388.068Zm-2.032 3.365a.289.289 0 1 0 .577-.007.289.289 0 0 0-.577.007Zm-3.856 0a.282.282 0 1 0 .564-.007.282.282 0 0 0-.564.007Zm.281 13.658a.289.289 0 0 0-.287.291.288.288 0 1 0 .576 0 .29.29 0 0 0-.286-.29H9.31ZM6.45 8.074a.246.246 0 0 0-.013.342.24.24 0 0 0 .333-.058.245.245 0 0 0 .015-.34.24.24 0 0 0-.335.056Zm-2.117 8.572a.724.724 0 0 1 .004.763l4.693 4.792V9.839a.727.727 0 0 1-.44-.645L6.999 8.71a.755.755 0 0 1-.164.112l-2.501 7.823Zm14.714 5.741a.723.723 0 0 1 .678.477h2.447a.723.723 0 0 1 .393-.417V9.839a.724.724 0 0 1-.393-.417h-2.888a.73.73 0 0 1-.393.417V15a.728.728 0 1 1-1.13.604v-.002a.704.704 0 0 1 .046-.257l-4.466-5.469a.725.725 0 0 1-.843-.455h-2.51a.73.73 0 0 1-.394.417v12.608a.728.728 0 0 1 .395.417h2.885a.73.73 0 0 1 .395-.417v-5.24a.73.73 0 0 1 .374-1.35h.003a.726.726 0 0 1 .727.723.714.714 0 0 1-.05.26l4.538 5.573a.776.776 0 0 1 .186-.026Zm.313 5.21a.261.261 0 1 0 .29.261.278.278 0 0 0-.289-.26h-.001Zm-.6-4.48a.288.288 0 1 0 .577.002v-.002a.29.29 0 0 0-.29-.29.29.29 0 0 0-.288.29Zm-5.404-6.53a.288.288 0 0 0 .494.2.288.288 0 1 0-.494-.2Zm.196 6.24a.29.29 0 0 0-.29.29.288.288 0 1 0 .291-.29h-.001Zm.281-.38a.726.726 0 0 1 .425.82l4.681 4.012a.76.76 0 0 1 .134-.06l-.24-3.404a.73.73 0 0 1-.416-1.05l-4.486-5.509a.659.659 0 0 1-.098.034v5.157Zm9.303.669a.288.288 0 0 0-.288-.29.29.29 0 0 0-.29.291.29.29 0 0 0 .29.291.288.288 0 0 0 .289-.29l-.001-.002ZM2.668 19.227a.272.272 0 0 0-.089-.524.244.244 0 0 0-.165.299.24.24 0 0 0 .254.225Zm26.02-7.356a.21.21 0 0 0-.108.268.2.2 0 0 0 .235.159.21.21 0 0 0 .11-.268.2.2 0 0 0-.157-.159.2.2 0 0 0-.078 0h-.002Z"/><path fill="#fff" d="M23.132 22.447V9.839a.731.731 0 0 0 .3-.242.67.67 0 0 0 .136-.49.73.73 0 0 0-.456-.617.773.773 0 0 0-.568.016.728.728 0 0 0-.346.345h-2.941a.725.725 0 0 0-1.074-.277.678.678 0 0 0-.192.217.732.732 0 0 0 .334 1.048v5.054a.727.727 0 0 0-.125.038l-4.403-5.393a.725.725 0 0 0-.2-.96.689.689 0 0 0-.564-.127.725.725 0 0 0-.508.4H9.962a.717.717 0 0 0-1.323.056.727.727 0 0 0 .39.932l-.005 12.608a.745.745 0 0 0-.303.25.714.714 0 0 0-.054.092c-.007.014-.012.029-.018.043-.008.018-.016.036-.022.055l-.01.04a.705.705 0 0 0-.017.07l-.002.021a.737.737 0 0 0 .427.766l.011.005c.04.017.08.03.122.04l.023.003a.688.688 0 0 0 .115.012l.019.001a.731.731 0 0 0 .647-.411h2.92c.01-.006.016-.007.02 0a.728.728 0 0 0 .93.354l.005-.003a.726.726 0 0 0 .436-.668.728.728 0 0 0-.44-.67V17.29a.659.659 0 0 0 .098-.034l4.486 5.51a.731.731 0 0 0 .417 1.049.728.728 0 0 0 .865-.38h2.498a.717.717 0 0 0 .436.379l-.001-.008a.718.718 0 0 0 .922-.535.727.727 0 0 0-.422-.824Zm-.286-13.571h.002a.292.292 0 1 1-.002 0Zm-4.238.006a.285.285 0 0 1 0 .57.282.282 0 0 1-.281-.284h-.002a.285.285 0 0 1 .283-.286Zm-.416 6.721a.29.29 0 0 1 .29-.29h.001a.287.287 0 0 1 .265.18.287.287 0 0 1 .022.11.29.29 0 0 1-.289.293.29.29 0 0 1-.289-.293Zm-5.017-6.727a.294.294 0 0 1 .203.497.29.29 0 1 1-.203-.497Zm-3.864.006a.285.285 0 0 1 0 .57.285.285 0 0 1 0-.57Zm.29 14.235a.288.288 0 1 1-.29-.29h.003a.287.287 0 0 1 .265.18.288.288 0 0 1 .021.11Zm4.239 0a.288.288 0 1 1-.288-.29h.001a.288.288 0 0 1 .287.29Zm-.194-6.24a.292.292 0 0 1 0-.581.291.291 0 0 1 0 .582Zm5.4 6.531a.291.291 0 0 1 .001-.582.29.29 0 0 1 .29.291v.002a.29.29 0 0 1-.291.29Zm3.125-.544h-2.446a.724.724 0 0 0-.864-.45l-4.538-5.575a.713.713 0 0 0-.164-.771.727.727 0 0 0-.514-.211h-.002a.73.73 0 0 0-.374 1.35v5.24a.732.732 0 0 0-.395.417H9.988a.728.728 0 0 0-.394-.417V9.839a.731.731 0 0 0 .394-.417h2.51a.724.724 0 0 0 .843.455l4.466 5.469a.708.708 0 0 0-.047.257v.002A.72.72 0 1 0 18.89 15V9.839a.73.73 0 0 0 .394-.417h2.888a.723.723 0 0 0 .393.417v12.608a.726.726 0 0 0-.394.417Zm.387.253a.288.288 0 0 1 .29-.29.29.29 0 0 1 .288.289v.001a.29.29 0 0 1-.578 0Z"/></svg>