<svg fill="none" height="32" viewBox="0 0 33 32" width="33" xmlns="http://www.w3.org/2000/svg"><path d="m15.9984 0c8.8343 0 15.9984 7.16408 15.9984 15.9984 0 8.8343-7.1641 15.9984-15.9984 15.9984-8.83432 0-15.9984-7.1641-15.9984-15.9984 0-8.83432 7.16408-15.9984 15.9984-15.9984z" fill="#111"/><path d="m20.7179 9.36227-3.2669 4.85073c-.2272.3295.208.7295.5215.4511l3.2157-2.7965c.0864-.0704.208-.016.208.1056v8.7415c0 .1216-.1568.1728-.2272.0864l-9.7334-11.64681c-.3136-.38076-.7647-.59194-1.2671-.59194h-.34876c-.90231 0-1.65104.74872-1.65104 1.66705v12.3028c0 .9215.74873 1.667 1.66704 1.667.57276 0 1.11346-.2944 1.42386-.7999l3.2701-4.8412c.2272-.3295-.208-.7295-.5216-.4511l-3.2157 2.7805c-.0863.0704-.2079.016-.2079-.1056v-8.7255c0-.1216.1567-.1728.2271-.0864l9.7303 11.6436c.3136.3808.7807.592 1.2671.592h.3487c.9215 0 1.6671-.7487 1.6671-1.667v-12.306c0-.92153-.7488-1.66705-1.6671-1.66705-.5887 0-1.1295.29437-1.4398.79672z" fill="#fff"/></svg>