<svg width="32" height="32" fill="none" xmlns="http://www.w3.org/2000/svg"><path d="M16 32c8.837 0 16-7.163 16-16S24.837 0 16 0 0 7.163 0 16s7.163 16 16 16Z" fill="#fff"/><path d="m16 21.436 4.714-2.719v-5.436L16 16v5.437Z" fill="#4F88CE"/><path d="M26.702 9.827a2.319 2.319 0 0 0-.807-.807l-4.403-2.548-4.402-2.547a2.173 2.173 0 0 0-2.195 0l-4.402 2.548-3.327 1.924-1.076.623A2.193 2.193 0 0 0 5 10.917v10.164a2.193 2.193 0 0 0 1.09 1.897l4.403 2.548 4.402 2.549a2.173 2.173 0 0 0 2.195 0l4.402-2.549 4.403-2.548a2.193 2.193 0 0 0 1.09-1.897V10.917c0-.382-.097-.757-.283-1.09Zm-5.21 6.738v2.605L16 22.341l-5.492-3.17v-6.343l4.544-2.633.948-.553 5.493 3.172v3.751Z" fill="#4F88CE"/><path d="M20.714 13.281v5.436L16 16l4.714-2.718Z" fill="#3BA3D0"/><path d="M20.714 18.717 16 21.436v-5.437l4.714 2.718Z" fill="#4891CF"/><path d="M21.492 12.828v6.342L26.985 16l-5.493-3.17Z" fill="#19CED4"/><path d="M10.493 19.17v6.356L16 22.341l-5.507-3.17Z" fill="#4891CF"/><path d="M10.493 6.472v6.356L16 9.657l-5.507-3.185Z" fill="#6B65CB"/><path d="M21.492 19.17 16 22.341l5.493 3.185V19.17Z" fill="#1FC6D3"/><path d="M10.493 12.828 5 16l5.493 3.172v-6.343Z" fill="#715DCA"/><path d="M21.492 6.472 16 9.657l5.493 3.171V6.472Z" fill="#429ACF"/><path d="M10.493 6.472 7.166 8.397 6.09 9.02a2.206 2.206 0 0 0-.807.807l5.21 3.001V6.472Z" fill="#7854CA"/><path d="M10.493 12.828 5.298 9.827c-.197.33-.3.706-.298 1.09v5.082l5.493-3.17Z" fill="#7F4BC9"/><path d="M5 16v5.082c-.002.383.101.76.298 1.09l5.21-3.001L5 15.999Z" fill="#646ECC"/><path d="m10.493 19.17-5.196 3.001c.198.332.475.61.807.807l4.403 2.548V19.17h-.014Z" fill="#5680CD"/><path d="m10.493 25.526 4.402 2.549c.33.195.707.298 1.09.298v-6.018l-5.492 3.171Z" fill="#3BA3D0"/><path d="M16 28.358c.383.002.76-.101 1.09-.298l4.402-2.548L16 22.342v6.016Z" fill="#2DB4D1"/><path d="M21.492 19.17v6.342l4.403-2.548c.332-.197.61-.475.807-.807l-5.21-2.987Z" fill="#12D7D4"/><path d="M26.702 22.171a2.14 2.14 0 0 0 .298-1.09V16l-5.494 3.172 5.196 3Z" fill="#0BE0D5"/><path d="M26.985 15.999v-5.082a2.104 2.104 0 0 0-.299-1.09l-5.208 3.001 5.506 3.17Z" fill="#26BDD2"/><path d="M26.702 9.827a2.317 2.317 0 0 0-.807-.807l-4.403-2.548v6.356l5.21-3.001Z" fill="#34ABD1"/><path d="m21.492 6.473-4.402-2.55A2.275 2.275 0 0 0 16 3.64v6.017l5.492-3.184Z" fill="#4F88CE"/><path d="M16 9.657V3.64a2.103 2.103 0 0 0-1.09.298l-4.417 2.535L16 9.657Z" fill="#5D77CD"/></svg>