<svg fill="none" height="32" viewBox="0 0 32 32" width="32" xmlns="http://www.w3.org/2000/svg"><path d="m16 32c8.8366 0 16-7.1634 16-16 0-8.83656-7.1634-16-16-16-8.83656 0-16 7.16344-16 16 0 8.8366 7.16344 16 16 16z" fill="#fff"/><path d="m15.9995 21.4355 4.7142-2.7181v-5.4361l-4.7142 2.718z" fill="#4f88ce"/><path d="m26.7019 9.82679c-.1976-.33205-.475-.60946-.807-.807l-4.4026-2.54811-4.4026-2.54713c-.3328-.19471-.7115-.29733-1.0971-.29733-.3857 0-.7643.10262-1.0972.29733l-4.4026 2.54813-3.3268 1.92402-1.0758.62311c-.33192.19309-.60732.46996-.79864.8029-.19132.33299-.29186.71029-.29156 1.09429v5.0823 5.0819c-.0003.384.10024.7613.29156 1.0943.19133.3329.46673.6098.79865.8029l4.40259 2.5481 4.4026 2.5481c.3328.1947.7115.2974 1.0971.2974.3857 0 .7643-.1027 1.0972-.2974l4.4026-2.5481 4.4026-2.5481c.3319-.1931.6073-.47.7986-.8029.1913-.333.2919-.7103.2916-1.0943v-5.0819-5.0823c.0001-.3816-.0974-.7569-.2832-1.09021zm-5.2096 6.73851v2.6048l-5.4928 3.1712-5.4928-3.1712v-6.342l4.5442-2.6336.9486-.55206 5.4928 3.17126z" fill="#4f88ce"/><path d="m20.7137 13.2813v5.4361l-4.7142-2.7181z" fill="#3ba3d0"/><path d="m20.7137 18.7174-4.7142 2.7181v-5.4362z" fill="#4891cf"/><path d="m21.4922 12.8281v6.342l5.4928-3.1713z" fill="#19ced4"/><path d="m10.4929 19.1701v6.3564l5.5067-3.1852z" fill="#4891cf"/><path d="m10.4929 6.47168v6.35642l5.5067-3.17125z" fill="#6b65cb"/><path d="m21.4923 19.1701-5.4928 3.1712 5.4928 3.1852z" fill="#1fc6d3"/><path d="m10.4928 12.8281-5.4928 3.1712 5.4928 3.1713z" fill="#715dca"/><path d="m21.4923 6.47168-5.4928 3.18517 5.4928 3.17125z" fill="#429acf"/><path d="m10.4928 6.47168-3.3268 1.92551-1.0758.62262c-.33513.19355-.61345.47186-.807.807l5.2096 3.00129z" fill="#7854ca"/><path d="m10.4928 12.8281-5.1946-3.00131c-.197.32941-.30011.70641-.29817 1.09021v5.0818z" fill="#7f4bc9"/><path d="m5.00003 15.9993v5.0824c-.00195.3838.10115.7608.29814 1.0902l5.20953-3.0013z" fill="#646ecc"/><path d="m10.4928 19.1701-5.19568 3.0013c.19753.3321.47494.6095.807.807l4.40258 2.5481v-6.3564z" fill="#5680cd"/><path d="m10.4929 25.5265 4.4026 2.5481c.3301.1953.7067.2983 1.0902.2982v-6.0176z" fill="#3ba3d0"/><path d="m15.9995 28.3579c.3838.0019.7608-.1012 1.0902-.2982l4.4026-2.5481-5.4928-3.1702z" fill="#2db4d1"/><path d="m21.4922 19.1701v6.342l4.4026-2.5481c.332-.1975.6094-.4749.807-.807z" fill="#12d7d4"/><path d="m26.7017 22.1714c.1953-.3301.2983-.7067.2982-1.0902v-5.0819l-5.4938 3.1713z" fill="#0be0d5"/><path d="m26.9845 15.9988v-5.0818c.0019-.3838-.1012-.7608-.2982-1.09021l-5.2085 3.00131z" fill="#26bdd2"/><path d="m26.7017 9.82679c-.1975-.33205-.4749-.60946-.807-.807l-4.4025-2.54811v6.35642z" fill="#34abd1"/><path d="m21.4923 6.47268-4.4026-2.54912c-.3339-.18432-.7088-.28171-1.0902-.28324v6.01653z" fill="#4f88ce"/><path d="m15.9996 9.65685v-6.01653c-.3838-.00194-.7608.10116-1.0902.29814l-4.4165 2.53422z" fill="#5d77cd"/></svg>