<svg xmlns="http://www.w3.org/2000/svg" width="32" height="32" fill="none"><path fill="#fff" d="M32 16c0 8.837-7.163 16-16 16S0 24.837 0 16 7.163 0 16 0s16 7.163 16 16Z"/><path fill="#60BEFF" d="M6 10.797v10.97a.387.387 0 0 0 .192.326l4.812 2.69V13.585L6 10.797Z"/><path fill="#1A4199" d="m20.996 8 4.812 2.688a.372.372 0 0 1 .192.326v10.971l-5.004-2.797V8Z"/><path fill="#3CA9E5" d="M10.996 24.783 16 21.985l-5.004-2.797v5.595Zm.192-16.674 9.808 5.485v5.595L6 10.797l4.812-2.688a.378.378 0 0 1 .377 0Z"/><path fill="#2853C3" d="M20.996 8 16 10.797l4.996 2.797V8ZM26 21.985l-4.812 2.689a.42.42 0 0 1-.384 0l-9.808-5.486v-5.602L26 21.986Z"/></svg>