<svg fill="none" height="32" viewBox="0 0 32 32" width="32" xmlns="http://www.w3.org/2000/svg"><path d="m16 32c8.8366 0 16-7.1634 16-16 0-8.83656-7.1634-16-16-16-8.83656 0-16 7.16344-16 16 0 8.8366 7.16344 16 16 16z" fill="#070001"/><path d="m16.0001 31.1512c8.3677 0 15.1512-6.7834 15.1512-15.1512 0-8.36777-6.7835-15.151192-15.1512-15.151192-8.3678 0-15.151223 6.783422-15.151223 15.151192 0 8.3678 6.783423 15.1512 15.151223 15.1512z" fill="#fff"/><g fill="#070001"><path d="m21.8776 6.77458-.45-.44989c-1.5883-1.35194-3.6274-2.05632-5.7116-1.97295-2.0841.08336-4.0604.94835-5.5357 2.42284-.77242.76518-1.38497 1.6763-1.80206 2.68036-.41708 1.00406-.63038 2.08106-.62748 3.16826v13.7669h16.55624v-13.7219c-.0058-2.2071-.8783-4.32354-2.4294-5.89362zm-5.0389 18.67072c-.98.0019-1.9505-.1922-2.8545-.5708-.9039-.3785-1.7231-.934-2.4093-1.6337l-.27-.2699c-.1892-.1897-.3553-.4012-.4948-.6299-.94006-1.2602-1.4453-2.7918-1.43963-4.364v-5.1288c.00855-1.8026.66293-3.54248 1.84453-4.90388 3.1493.13494 8.0532 2.29438 8.0532 6.97338v10.1227h.045c-.7963.2727-1.6328.4095-2.4745.4049zm-5.4888 0v-1.7546c.7964.7741 1.7468 1.372 2.7894 1.7546z"/><path d="m14.1093 19.4279c-.07-.0047-.136-.0347-.1856-.0843-.0496-.0497-.0796-.1156-.0843-.1856v-4.589c0-.5847.2322-1.1454.6456-1.5588.4135-.4134.9742-.6457 1.5589-.6457.5846 0 1.1453.2323 1.5588.6457.4134.4134.6457.9741.6457 1.5588 0 .0716-.0285.1403-.0791.1909s-.1193.079-.1909.079-.1402-.0284-.1909-.079c-.0506-.0506-.079-.1193-.079-.1909 0-.4415-.1754-.8649-.4876-1.1771-.3122-.3121-.7356-.4875-1.177-.4875-.4415 0-.8649.1754-1.1771.4875-.3122.3122-.4876.7356-.4876 1.1771v4.589c-.0047.07-.0347.1359-.0843.1856-.0497.0496-.1156.0796-.1856.0843z"/><path d="m16.8537 15.8737c-.07-.0047-.136-.0347-.1856-.0843-.0496-.0497-.0796-.1156-.0844-.1856 0-.1432-.0568-.2805-.1581-.3818-.1012-.1012-.2385-.1581-.3817-.1581s-.2805.0569-.3818.1581c-.1012.1013-.1581.2386-.1581.3818.0002.0356-.0066.0709-.0201.1038s-.0333.0629-.0584.0881c-.0251.0253-.0549.0453-.0878.059-.0328.0136-.0681.0207-.1036.0207-.0356 0-.0709-.0071-.1037-.0207-.0329-.0137-.0627-.0337-.0878-.059-.0251-.0252-.0449-.0552-.0584-.0881s-.0203-.0682-.0201-.1038c0-.2983.1185-.5844.3294-.7953.211-.211.4971-.3295.7954-.3295s.5843.1185.7953.3295c.2109.2109.3294.497.3294.7953-.09.135-.225.2699-.3599.2699z"/><path d="m14.1092 19.4279c-.3927-.0034-.7684-.1609-1.046-.4386-.2777-.2777-.4352-.6533-.4387-1.046 0-.0716.0285-.1403.0791-.1909s.1193-.0791.1909-.0791c.0715 0 .1402.0285.1908.0791.0507.0506.0791.1193.0791.1909.0008.2381.0959.4662.2646.6343s.3971.2625.6352.2625.4665-.0944.6352-.2625c.1686-.1681.2638-.3962.2646-.6343-.0002-.0356.0066-.0709.0201-.1038.0134-.033.0333-.0629.0584-.0882.025-.0252.0549-.0452.0877-.0589.0329-.0137.0681-.0207.1037-.0207s.0708.007.1037.0207.0627.0337.0878.0589c.0251.0253.0449.0552.0584.0882.0134.0329.0203.0682.0201.1038.0122.1905-.0149.3815-.0795.5612-.0645.1797-.1653.3442-.2961.4834-.1307.1392-.2886.25-.4639.3257s-.3643.1146-.5552.1143z"/><path d="m12.5345 16.3236c-.0348-.0006-.069-.009-.1002-.0246-.0311-.0156-.0584-.0379-.0798-.0654l-1.2147-1.2147v1.0348c-.0048.07-.0347.1359-.0844.1856-.0496.0496-.1155.0796-.1855.0843-.0818-.0054-.1588-.0403-.2167-.0982-.0579-.058-.0929-.135-.0983-.2167v-1.6646c.0015-.0574.0191-.1133.051-.161.0318-.0478.0766-.0856.129-.109.0504-.0273.1082-.0377.1649-.0296.0568.0081.1094.0343.1501.0746l1.2147 1.2148v-.7199c0-.0716.0284-.1403.079-.1909.0507-.0506.1193-.079.1909-.079s.1403.0284.1909.079.0791.1193.0791.1909v1.3947c-.0015.0574-.0191.1132-.051.161-.0318.0478-.0766.0856-.129.1089 0 .045-.045.045-.09.045z"/><path d="m14.0642 14.884c-.0701-.0048-.136-.0347-.1856-.0843-.0497-.0497-.0796-.1156-.0844-.1856 0-.045 0-1.1698-.7648-1.1698-.0356.0002-.0709-.0066-.1038-.02-.0329-.0135-.0629-.0334-.0881-.0584-.0253-.0251-.0453-.055-.059-.0878-.0136-.0329-.0207-.0681-.0207-.1037s.0071-.0708.0207-.1037c.0137-.0328.0337-.0627.059-.0878.0252-.025.0552-.0449.0881-.0584.0329-.0134.0682-.0203.1038-.02 1.0348 0 1.3047 1.1247 1.3047 1.7096-.0048.07-.0347.1359-.0844.1856-.0496.0496-.1155.0795-.1855.0843z"/></g></svg>