<svg xmlns="http://www.w3.org/2000/svg" width="32" height="32" fill="none"><path fill="#070001" d="M16 32c8.837 0 16-7.163 16-16S24.837 0 16 0 0 7.163 0 16s7.163 16 16 16Z"/><path fill="#fff" d="M16 31.151c8.368 0 15.151-6.783 15.151-15.151 0-8.368-6.783-15.151-15.15-15.151C7.631.849.848 7.632.848 16c0 8.368 6.783 15.151 15.151 15.151Z"/><path fill="#070001" d="m21.878 6.775-.45-.45a8.3 8.3 0 0 0-11.248.45 8.202 8.202 0 0 0-2.43 5.848V26.39h16.557V12.668a8.417 8.417 0 0 0-2.43-5.893Zm-5.04 18.67a7.353 7.353 0 0 1-5.263-2.204l-.27-.27a3.397 3.397 0 0 1-.495-.63 7.255 7.255 0 0 1-1.44-4.364v-5.129a7.536 7.536 0 0 1 1.845-4.904c3.15.135 8.053 2.295 8.053 6.974V25.04h.045a7.51 7.51 0 0 1-2.474.405Zm-5.488 0v-1.754a7.914 7.914 0 0 0 2.79 1.754h-2.79Z"/><path fill="#070001" d="M14.11 19.428a.29.29 0 0 1-.27-.27v-4.589a2.204 2.204 0 1 1 4.408 0 .27.27 0 0 1-.54 0 1.665 1.665 0 0 0-3.329 0v4.589a.29.29 0 0 1-.27.27Z"/><path fill="#070001" d="M16.854 15.874a.29.29 0 0 1-.27-.27.54.54 0 1 0-1.08 0 .27.27 0 1 1-.54 0 1.125 1.125 0 1 1 2.25 0c-.09.135-.225.27-.36.27Zm-2.744 3.554a1.497 1.497 0 0 1-1.486-1.485.27.27 0 0 1 .54 0 .9.9 0 0 0 1.8 0 .27.27 0 1 1 .54 0 1.395 1.395 0 0 1-1.395 1.485Zm-1.576-3.104a.233.233 0 0 1-.18-.09l-1.214-1.215v1.035a.29.29 0 0 1-.27.27.338.338 0 0 1-.315-.315v-1.665a.304.304 0 0 1 .18-.27.267.267 0 0 1 .315.045l1.215 1.215v-.72a.27.27 0 1 1 .54 0v1.395a.304.304 0 0 1-.18.27c0 .045-.046.045-.09.045Zm1.53-1.44a.29.29 0 0 1-.27-.27c0-.045 0-1.17-.765-1.17a.271.271 0 0 1-.271-.27.271.271 0 0 1 .271-.27c1.035 0 1.305 1.125 1.305 1.71a.29.29 0 0 1-.27.27Z"/></svg>