<svg xmlns="http://www.w3.org/2000/svg" width="32" height="32" fill="none"><defs><linearGradient id="nkn__a" x1="16" x2="16" y1="0" y2="32" gradientUnits="userSpaceOnUse"><stop offset=".01" stop-color="#6172B0"/><stop offset=".08" stop-color="#495B9E"/><stop offset=".09" stop-color="#485A9D"/><stop offset=".37" stop-color="#2F4387"/><stop offset=".55" stop-color="#253A7E"/><stop offset="1" stop-color="#20326E"/></linearGradient></defs><path fill="url(#nkn__a)" d="M16 32c8.837 0 16-7.163 16-16S24.837 0 16 0 0 7.163 0 16s7.163 16 16 16Z"/><path fill="#fff" d="M16.32 20.296s3.313.815 5.939-1.245 2.54-5.172 2.54-5.172-2.97-.924-5.666 1.042c-2.697 1.966-2.813 5.375-2.813 5.375Zm-.01 1.554s.54 2.332 2.662 3.32c2.123.99 4.043-.047 4.043-.047s-.363-2.152-2.449-3.217-4.256-.057-4.256-.057Zm4.991-1.01s1.145 1.274 2.817 1.159c1.672-.116 2.515-1.43 2.515-1.43s-.972-1.222-2.648-1.167c-1.676.055-2.684 1.439-2.684 1.439Zm-1.676-8.038s-1.765-2.918-5.08-3.316c-3.314-.398-5.452 1.858-5.452 1.858s1.446 2.753 4.743 3.27c3.297.518 5.79-1.812 5.79-1.812Zm1.108-1.092S22 9.68 21.2 7.479c-.801-2.203-2.892-2.825-2.892-2.825s-1.265 1.78-.542 4.01c.723 2.23 2.968 3.048 2.968 3.048ZM16.49 8.894s.09-1.71-1.173-2.81c-1.262-1.1-2.789-.768-2.789-.768s-.176 1.552 1.047 2.697c1.223 1.145 2.915.881 2.915.881Zm-2.974 7.92s-2.919 1.766-3.317 5.08c-.398 3.314 1.859 5.454 1.859 5.454s2.753-1.447 3.27-4.744c.517-3.297-1.812-5.79-1.812-5.79Zm-1.091-1.108s-2.031-1.268-4.232-.467c-2.2.8-2.825 2.892-2.825 2.892s1.778 1.266 4.005.544c2.228-.721 3.052-2.97 3.052-2.97ZM9.608 19.95s-1.71-.09-2.811 1.172c-1.1 1.263-.767 2.79-.767 2.79s1.551.175 2.696-1.047c1.146-1.224.882-2.915.882-2.915Z"/></svg>