<svg fill="none" height="32" viewBox="0 0 32 32" width="32" xmlns="http://www.w3.org/2000/svg" xmlns:xlink="http://www.w3.org/1999/xlink"><clipPath id="a"><path d="m0 0h32v32h-32z"/></clipPath><g clip-path="url(#a)"><path d="m1.96291 15.9955c0-1.7731.00501-3.5463-.00337-5.3193-.00874-.2148.03758-.4282.13454-.6201.09697-.19177.24137-.35562.41948-.47593 4.23826-3.09461 8.47544-6.19073 12.71144-9.288373.5274-.3853275 1.0127-.3904326 1.538-.006954 4.2558 3.106827 8.5108 6.214757 12.765 9.323797.1641.11285.2971.26531.3866.44326.0895.1779.1326.3756.1254.5747-.0026 3.5784-.0023 7.1569.0011 10.7353.0006.4728-.2009.8106-.576 1.0841-4.1706 3.0415-8.3384 6.0869-12.5035 9.136-.3753.2749-.7422.5093-1.2369.3827-.1857-.0528-.3594-.1412-.5113-.2604-4.228-3.0904-8.45653-6.1801-12.68561-9.269-.38743-.2827-.57129-.6379-.56868-1.1205.00958-1.7731.0038-3.5462.0038-5.3193z" fill="#050708"/><path d="m28.7167 11.3834h-.7417l-.7416-1.2898h.7417zm-12.0278 10.7058h-.7417l.7416 1.2899h.7417zm-3.1602 5.6109h-.7417l.7416 1.2899h.7417zm2.1928-22.89494h-.7417l.7416 1.28986h.7417zm10.609 7.02974h-.6449v.6449h.6449zm-3.6116 1.4188h-.6449v.645h.6449zm4.3855 0h-2.8377v.645h2.8377zm-4.2565 3.7406h-1.9993v.6449h1.9993zm-2.3862-6.1913h-.645v.6449h.645zm-3.8696 1.7413h-.6449v.6449h.6449zm-1.2899 0h-2.8377v.6449h2.8377zm2.9022-1.9348h-.6449v2.0638h.6449zm-4.6435-7.22318h-.6449v2.83769h.6449zm1.6768 3.09566h-.6449v.64493h.6449zm-4.063 3.16015h-.6449v1.48337h.6449zm-4.45002 5.41737h-.64493v2.1283h.64493zm1.99928-5.48187h-.64493v.64497h.64493zm-4.12755 6.06237h-.64492v.6449h.64492zm7.28769 4.7724h-.6449v.645h.6449zm6.3203-2.8377h-.6449v.645h.6449zm-2.8377-1.2898h-.6449v1.6123h.6449zm-.3869 5.1594h-.645v2.3863h.645zm-4.837-3.4181h-2.83769v.6449h2.83769zm9.2225-1.0319h-.6449v.6449h.6449zm-9.54497 8.0616h-.64492v.645h.64492zm3.22467.9674h-2.5797v.6449h2.5797zm-4.708-2.6442h-1.67681v.6449h1.67681zm2.2883 0 1.7103-1.0964-.516-.3869-2.32173 1.4833v.6449h3.67613v-.6449zm7.5146-16.6726 1.4834 2.2907h.1934v-.83841l-1.6768-2.57971h-.6449v3.67609h.6449zm-5.6754 10.2544 1.4834 2.2907h.1935v-.8384l-1.6769-2.5798h-.6449v3.6761h.6449zm7.2543 9.8363 1.7103-1.0964-.516-.3869-2.3217 1.4833v.645h1.9347v-.645zm-14.573-14.2529-.87185.5804.51594.387 1.48334-.9674v-.6449h-3.22465v.6449zm4.64349-5.67537-1.45229.9029.51594.38696 2.06376-1.28986v-.64492h-1.93477v.64492zm7.02731 13.41447 1.7103-1.0963-.516-.387-2.3217 1.4833v.645h3.6761v-.645zm8.771-.1289 1.7103-1.0964-.5159-.387-2.3218 1.4834v.6449h3.6761v-.6449zm-7.7702 8.255h-.6449v.645h.6449zm-1.4833.645h-.6449v1.4833h.6449zm9.4805-6.7718h-.645v.645h.645zm-1.6124-5.1594h-.6449v2.2572h.6449zm-16.57462-7.54567h-2.83768v.64497h2.83768zm4.90142 4.44997h-1.5478v.645h1.5478zm13.8015-5.28837h-.6449v2.06377h.6449zm-2.1283-1.48334h-3.0956v.58044h3.0956zm-3.4181-1.22536h-.6449v.64493h.6449zm-2.0637-.9674h1.7413v-.64492h-1.7413zm-5.2873 3.1599v-.96739l-1.0008 1.5239-1.0008-1.5239v.96739l1.0008 1.53337zm10.8348 15.57507v-.9674l-1.0008 1.5239-1.0008-1.5239v.9674l1.0008 1.5333zm-14.76889-2.9667v-.9674l-1.00078 1.5239-1.00075-1.5239v.9674l1.00075 1.5334zm-.33082-7.3959h.96741l-1.52391-1.0008 1.52391-1.0008h-.96741l-1.53337 1.0008zm5.36011-10.88759v.77392h.6449v-.51595h1.5479v1.74131h.6449v-1.99928l-.3225-.32246h-2.1927zm5.3529 16.44569v.7739h.6449v-.5159h1.5479v1.7413h.6449v-1.9993l-.3225-.3225h-2.1927zm6.3203-3.6116v.7739h.6449v-.5159h1.5479v2.7732h.6449v-3.0312l-.3225-.3225h-2.1927zm-7.2232-2.1283v2.1928l.3225.3224h2.7087v-.6449h-2.4507v-1.5478h.5159v-.6449h-.7739zm-15.92972 5.2239v2.1928l.32247.3225h2.7087v-.645h-2.45073v-1.5478h.51594v-.6449h-.77391zm13.73702 8.8356v-2.1928l-.3225-.3225h-2.7087v.645h2.4507v1.5478h-.5159v.6449h.7739zm.7416-10.8026v-2.1927l-.3224-.3225h-2.7087v.6449h2.4507v1.5479h-.5159v.6449h.7739zm-3.8373-5.3851h2.1928l.3224-.3225v-2.7087h-.6449v2.4507h-1.5478v-.5159h-.645v.7739zm10.1254-1.93482h-1.2899l-.7094 2.70872h.5751l.5858-2.06379h.3869l.559 2.06379h.6019zm-14.02721 5.03042h-1.28986l-.70942 2.7087h.57506l.58582-2.0638h.38695l.55894 2.0638h.60192zm10.35111 7.6747h-1.2899l-.7094 2.7087h.5751l.5858-2.0638h.3869l.559 2.0638h.6019z" fill="#fff"/></g></svg>