<svg xmlns="http://www.w3.org/2000/svg" width="32" height="32" fill="none"><defs><clipPath id="nmr__a"><path fill="#fff" d="M0 0h32v32H0z"/></clipPath></defs><g clip-path="url(#nmr__a)"><path fill="#050708" d="M1.963 15.995c0-1.773.005-3.546-.003-5.319a1.261 1.261 0 0 1 .554-1.096C6.752 6.486 10.989 3.39 15.225.292c.527-.386 1.013-.39 1.538-.007 4.256 3.107 8.51 6.215 12.765 9.324a1.183 1.183 0 0 1 .512 1.018c-.003 3.578-.002 7.156.001 10.735 0 .473-.2.81-.576 1.084-4.17 3.041-8.338 6.087-12.503 9.136-.376.275-.743.51-1.237.383a1.487 1.487 0 0 1-.512-.26c-4.228-3.091-8.456-6.18-12.685-9.27-.388-.282-.572-.638-.569-1.12.01-1.773.004-3.546.004-5.32Z"/><path fill="#fff" d="M28.717 11.383h-.742l-.742-1.29h.742l.742 1.29ZM16.689 22.09h-.742l.742 1.29h.741l-.741-1.29Zm-3.16 5.611h-.742l.742 1.29h.741l-.741-1.29Zm2.193-22.895h-.742l.741 1.29h.742l-.742-1.29Zm10.609 7.03h-.645v.645h.645v-.645Zm-3.612 1.419h-.645v.645h.645v-.645Zm4.385 0h-2.837v.645h2.837v-.645Zm-4.256 3.74h-2v.645h2v-.645Zm-2.386-6.191h-.645v.645h.645v-.645Zm-3.87 1.741h-.645v.645h.645v-.645Zm-1.29 0h-2.838v.645h2.838v-.645Zm2.902-1.934h-.645v2.063h.645V10.61Zm-4.643-7.224h-.645v2.838h.645V3.386Zm1.677 3.096h-.645v.645h.645v-.645Zm-4.063 3.16h-.645v1.484h.645V9.642Zm-4.45 5.418H6.08v2.128h.645V15.06Zm1.999-5.482h-.645v.645h.645v-.645ZM4.596 15.64h-.645v.645h.645v-.645Zm7.288 4.772h-.645v.645h.645v-.645Zm6.32-2.837h-.645v.645h.645v-.645Zm-2.837-1.29h-.645v1.612h.645v-1.612Zm-.387 5.16h-.645v2.386h.645v-2.387Zm-4.837-3.419H7.305v.645h2.838v-.645Zm9.222-1.032h-.645v.645h.645v-.645ZM9.82 25.056h-.645v.645h.645v-.645Zm3.225.967h-2.58v.645h2.58v-.645ZM8.337 23.38H6.66v.645h1.677v-.645Zm2.288 0 1.71-1.096-.515-.387-2.322 1.483v.645h3.676v-.645h-2.549ZM18.14 6.706l1.483 2.291h.194V8.16L18.14 5.58h-.645v3.676h.645v-2.55Zm-5.676 10.255 1.484 2.29h.193v-.838l-1.677-2.58h-.644v3.676h.644v-2.548Zm7.255 9.836 1.71-1.096-.516-.387-2.322 1.483v.645h1.935v-.645h-.807ZM5.146 12.544l-.872.58.516.388 1.483-.968V11.9H3.05v.645h2.097ZM9.789 6.87l-1.452.903.516.387 2.064-1.29v-.645H8.982v.645h.807Zm7.028 13.414 1.71-1.096-.516-.387-2.322 1.483v.645h3.676v-.645h-2.548Zm8.77-.129 1.71-1.096-.515-.387-2.322 1.483v.645h3.676v-.645h-2.548Zm-7.77 8.256h-.645v.645h.645v-.645Zm-1.483.645h-.645v1.483h.645v-1.483Zm9.48-6.772h-.644v.645h.645v-.645Zm-1.612-5.16h-.645v2.258h.645v-2.258ZM7.628 9.578H4.79v.645h2.838v-.645Zm4.901 4.45h-1.548v.645h1.548v-.645Zm13.802-5.289h-.645v2.064h.645V8.739Zm-2.129-1.483h-3.095v.58h3.095v-.58ZM20.784 6.03h-.645v.644h.645V6.03Zm-2.064-.968h1.742v-.645H18.72v.645Zm-5.287 3.16v-.967l-1 1.524-1.002-1.524v.967l1.001 1.533 1.001-1.533Zm10.835 15.575v-.967l-1 1.524-1.002-1.524v.967l1.001 1.533 1-1.533ZM9.499 20.831v-.967l-1 1.524-1.002-1.524v.967l1.001 1.534L9.5 20.83Zm-.33-7.396h.967l-1.524-1 1.524-1.001h-.968l-1.533 1 1.533 1.002Zm5.36-10.887v.774h.644v-.516h1.548v1.741h.645v-2l-.322-.322H14.85l-.323.323Zm5.352 16.446v.773h.645v-.515h1.548v1.74h.645v-1.998l-.323-.323h-2.192l-.323.323Zm6.32-3.612v.774h.645v-.516h1.548v2.773h.645v-3.031l-.322-.322h-2.193l-.323.322Zm-7.223-2.128v2.193l.323.322h2.709v-.645h-2.451v-1.548h.516v-.645H19.3l-.323.323Zm-15.93 5.224v2.192l.323.323H6.08v-.645H3.629V18.8h.516v-.645h-.774l-.322.323Zm13.738 8.835V25.12l-.323-.322h-2.709v.645h2.451v1.548h-.516v.645h.774l.323-.323Zm.741-10.802v-2.193l-.322-.323h-2.709v.645h2.45v1.548h-.515v.645h.774l.322-.322Zm-3.837-5.385h2.193l.322-.323V8.094h-.645v2.451h-1.548v-.516h-.645v.774l.323.322ZM23.815 9.19h-1.29l-.709 2.708h.575l.586-2.063h.387l.559 2.063h.602l-.71-2.708ZM9.788 14.22h-1.29l-.71 2.709h.576l.586-2.064h.387l.559 2.064h.601l-.709-2.709Zm10.351 7.675h-1.29l-.71 2.709h.576l.586-2.064h.387l.559 2.064h.602l-.71-2.71Z"/></g></svg>