<svg xmlns="http://www.w3.org/2000/svg" width="32" height="32" fill="none"><path fill="#181818" d="M16 32c8.837 0 16-7.163 16-16S24.837 0 16 0 0 7.163 0 16s7.163 16 16 16Z"/><path fill="#F6D30C" d="m16.641 14.313 5.592-5.603 1.136 1.147-5.591 5.592-1.137-1.136Zm-8.02 8.01 5.602-5.603 1.136 1.148-5.591 5.59-1.148-1.135Zm8.02-4.456 1.137-1.147 5.602 5.603-1.147 1.136-5.592-5.591Zm-8.02-8.01L9.767 8.71l5.59 5.591-1.135 1.148L8.62 9.857Zm6.232 6.222L16 14.93l1.148 1.148L16 17.226l-1.147-1.147Z"/></svg>