<svg xmlns="http://www.w3.org/2000/svg" width="200" height="200" fill="none"><circle cx="100" cy="100" r="100" fill="#111"/><path fill="#1E65F3" d="m132.262 64.54-10.003 4.747a.428.428 0 0 0-.204.57l15.213 32.07c5.653 11.93 4.139 20.98-4.455 25.07-6.956 3.301-12.96.998-17.645-7.044L97.155 81.979C89.852 66.585 79.903 62.505 68.1 68.104c-7.678 3.643-12.131 10.154-12.043 18.417a.427.427 0 0 1-.814.192l-3.932-8.286a.424.424 0 0 0-.57-.201l-10 4.731a.425.425 0 0 0-.202.56l27.625 58.251a.432.432 0 0 0 .57.204l10.003-4.746a.422.422 0 0 0 .245-.408.427.427 0 0 0-.04-.162l-14.79-31.173c-6.023-12.702-4.88-21.887 4.356-26.27 7.088-3.361 12.598-1.1 17.546 7.515a.2.2 0 0 1 .017.032l17.836 37.604c6.882 14.502 17.57 19.481 28.859 14.126 8.725-4.139 12.343-10.37 12.131-18.565a.43.43 0 0 1 .329-.425.424.424 0 0 1 .485.231l3.972 8.374a.425.425 0 0 0 .57.204l10.003-4.746a.436.436 0 0 0 .22-.243.44.44 0 0 0-.019-.327l-27.625-58.248a.43.43 0 0 0-.57-.205Z"/></svg>