<svg fill="none" height="200" viewBox="0 0 200 200" width="200" xmlns="http://www.w3.org/2000/svg"><circle cx="100" cy="100" fill="#111" r="100"/><path d="m132.262 64.5405-10.003 4.7461c-.051.024-.096.0578-.134.0994-.038.0417-.067.0904-.086.1434-.019.0529-.028.1091-.025.1653s.017.1113.041.1621l15.213 32.0702c5.653 11.93 4.139 20.98-4.455 25.07-6.956 3.301-12.96.998-17.645-7.044l-18.0125-37.9741c-7.3044-15.3935-17.2534-19.4735-29.0555-13.8745-7.678 3.6425-12.1314 10.1533-12.043 18.4165.0018.0976-.03.193-.09.2701-.0599.0771-.1444.1314-.2395.1538-.095.0223-.1948.0116-.2829-.0307-.088-.0421-.159-.1132-.2011-.2015l-3.9324-8.2853c-.0239-.0509-.0577-.0965-.0995-.1343-.0417-.0377-.0905-.0668-.1435-.0855-.053-.0188-.1093-.0268-.1654-.0237-.0562.0032-.1112.0174-.1618.042l-10.0006 4.7313c-.1002.0484-.1775.1342-.2152.239s-.0328.2202.0137.3214l27.625 58.2505c.0491.103.1364.181.2431.22.107.038.2245.032.3273-.016l10.0029-4.746c.051-.024.0966-.057.1345-.099.0377-.042.0669-.09.0858-.144.0191-.052.0274-.109.0245-.165-.0027-.056-.0166-.111-.0407-.162l-14.7884-31.173c-6.0239-12.702-4.881-21.8868 4.3553-26.2692 7.0881-3.3623 12.5983-1.1011 17.5459 7.5138.0066.0099.0124.0207.0172.0319l17.8358 37.6045c6.882 14.502 17.57 19.481 28.859 14.126 8.725-4.139 12.343-10.37 12.131-18.565-.002-.097.029-.193.089-.271.06-.077.144-.132.24-.154.095-.023.195-.013.283.03.089.042.16.113.202.201l3.972 8.374c.024.051.057.097.099.135.042.037.09.067.143.086s.109.027.166.024c.056-.003.111-.017.162-.041l10.003-4.746c.051-.024.096-.058.134-.099.038-.042.067-.091.086-.144.018-.053.026-.109.023-.165s-.017-.111-.042-.162l-27.625-58.2485c-.049-.1023-.136-.1812-.243-.2194s-.224-.0326-.327.0154z" fill="#1e65f3"/></svg>