<svg width="32" height="32" fill="none" xmlns="http://www.w3.org/2000/svg"><path d="M16 32c8.837 0 16-7.163 16-16S24.837 0 16 0 0 7.163 0 16s7.163 16 16 16Z" fill="#1D1D1D"/><path d="m12.5 15.502 4.7 8.1.3-.8-4.7-8.2-.3.9Z" fill="url(#a)"/><path d="m15.1 8.602-.35.9 4.75 8.1.3-.8-4.7-8.2Z" fill="url(#b)"/><path d="m13.6 12.502 4.8 8.1.3-.8-4.75-8.2-.35.9Z" fill="url(#c)"/><g filter="url(#d)"><path fill="#000" fill-opacity=".75" d="m19.274 15.086 1.642.633-3.103 8.052-1.642-.633z"/></g><g filter="url(#e)"><path fill="#000" fill-opacity=".75" d="M14.358 8.34 16 8.973l-2.942 7.634-1.643-.632z"/></g><path d="M8.6 23.602H4l5.4-14.2c.2-.5.6-.8 1.1-.8h4.6l-5.4 14.3c-.2.4-.6.7-1.1.7Z" fill="url(#f)"/><path d="M21.8 23.6h-4.6l5.4-14.3c.2-.5.6-.8 1.1-.8h4.6l-5.4 14.3c-.2.5-.6.8-1.1.8Z" fill="url(#g)"/><defs><linearGradient id="a" x1="18.368" y1="22.483" x2="11.665" y2="15.78" gradientUnits="userSpaceOnUse"><stop offset=".01" stop-color="#17EAD9"/><stop offset="1" stop-color="#6078EA"/></linearGradient><linearGradient id="b" x1="20.667" y1="16.467" x2="13.953" y2="9.753" gradientUnits="userSpaceOnUse"><stop offset=".01" stop-color="#17EAD9"/><stop offset="1" stop-color="#6078EA"/></linearGradient><linearGradient id="c" x1="19.517" y1="19.487" x2="12.803" y2="12.772" gradientUnits="userSpaceOnUse"><stop offset=".01" stop-color="#17EAD9"/><stop offset="1" stop-color="#6078EA"/></linearGradient><linearGradient id="f" x1="4" y1="16.111" x2="15.115" y2="16.111" gradientUnits="userSpaceOnUse"><stop offset=".01" stop-color="#17EAD9"/><stop offset="1" stop-color="#6078EA"/></linearGradient><linearGradient id="g" x1="17.221" y1="16.11" x2="28.334" y2="16.11" gradientUnits="userSpaceOnUse"><stop offset=".01" stop-color="#17EAD9"/><stop offset="1" stop-color="#6078EA"/></linearGradient><filter id="d" x="13.171" y="12.086" width="10.746" height="14.684" filterUnits="userSpaceOnUse" color-interpolation-filters="sRGB"><feFlood flood-opacity="0" result="BackgroundImageFix"/><feBlend in="SourceGraphic" in2="BackgroundImageFix" result="shape"/><feGaussianBlur stdDeviation="1.5" result="effect1_foregroundBlur"/></filter><filter id="e" x="8.416" y="5.34" width="10.585" height="14.268" filterUnits="userSpaceOnUse" color-interpolation-filters="sRGB"><feFlood flood-opacity="0" result="BackgroundImageFix"/><feBlend in="SourceGraphic" in2="BackgroundImageFix" result="shape"/><feGaussianBlur stdDeviation="1.5" result="effect1_foregroundBlur"/></filter></defs></svg>