<svg fill="none" height="32" viewBox="0 0 32 32" width="32" xmlns="http://www.w3.org/2000/svg" xmlns:xlink="http://www.w3.org/1999/xlink"><filter id="a" color-interpolation-filters="sRGB" filterUnits="userSpaceOnUse" height="14.6845" width="10.7458" x="13.1711" y="12.0861"><feFlood flood-opacity="0" result="BackgroundImageFix"/><feBlend in="SourceGraphic" in2="BackgroundImageFix" mode="normal" result="shape"/><feGaussianBlur result="effect1_foregroundBlur" stdDeviation="1.5"/></filter><filter id="b" color-interpolation-filters="sRGB" filterUnits="userSpaceOnUse" height="14.2675" width="10.5851" x="8.41577" y="5.3396"><feFlood flood-opacity="0" result="BackgroundImageFix"/><feBlend in="SourceGraphic" in2="BackgroundImageFix" mode="normal" result="shape"/><feGaussianBlur result="effect1_foregroundBlur" stdDeviation="1.5"/></filter><linearGradient id="c"><stop offset=".01" stop-color="#17ead9"/><stop offset="1" stop-color="#6078ea"/></linearGradient><linearGradient id="d" gradientUnits="userSpaceOnUse" x1="18.368" x2="11.6655" xlink:href="#c" y1="22.4826" y2="15.7801"/><linearGradient id="e" gradientUnits="userSpaceOnUse" x1="20.6674" x2="13.9528" xlink:href="#c" y1="16.4666" y2="9.75276"/><linearGradient id="f" gradientUnits="userSpaceOnUse" x1="19.5168" x2="12.8031" xlink:href="#c" y1="19.4866" y2="12.7721"/><linearGradient id="g" gradientUnits="userSpaceOnUse" x1="4" x2="15.1153" xlink:href="#c" y1="16.1113" y2="16.1113"/><linearGradient id="h" gradientUnits="userSpaceOnUse" x1="17.2211" x2="28.3339" xlink:href="#c" y1="16.1097" y2="16.1097"/><path d="m16 32c8.8366 0 16-7.1634 16-16 0-8.83656-7.1634-16-16-16-8.83656 0-16 7.16344-16 16 0 8.8366 7.16344 16 16 16z" fill="#1d1d1d"/><path d="m12.5 15.5016 4.7 8.1.3-.8-4.7-8.2z" fill="url(#d)"/><path d="m15.0998 8.60156-.35.9 4.75 8.10004.3-.8z" fill="url(#e)"/><path d="m13.5996 12.5016 4.8 8.1.3-.8-4.7496-8.2z" fill="url(#f)"/><g filter="url(#a)"><path d="m19.2742 15.0861h1.76049v8.62861h-1.76049z" fill="#000" fill-opacity=".75" transform="matrix(.93309734 .3596239 -.3596239 .93309734 6.714817 -5.922163)"/></g><g filter="url(#b)"><path d="m14.3582 8.3396h1.76049v8.18173h-1.76049z" fill="#000" fill-opacity=".75" transform="matrix(.93309734 .3596239 -.3596239 .93309734 3.959721 -4.60561)"/></g><path d="m8.6 23.6016h-4.6l5.4-14.20004c.2-.5.6-.8 1.1-.8h4.6l-5.4 14.30004c-.2.4-.6.7-1.1.7z" fill="url(#g)"/><path d="m21.8002 23.6h-4.6l5.4-14.3c.2-.5.6-.8 1.1-.8h4.6l-5.4 14.3c-.2.5-.6.8-1.1.8z" fill="url(#h)"/></svg>