<svg xmlns="http://www.w3.org/2000/svg" width="32" height="32" fill="none"><defs><clipPath id="nxs__a"><path fill="#fff" d="M0 0h32v32H0z"/></clipPath></defs><g clip-path="url(#nxs__a)"><path fill="#0CA3FA" d="M31.778 13.307A16.045 16.045 0 0 1 9.895 30.809a35.386 35.386 0 0 0 12.759-6.14c7.14-5.183 9.124-11.362 9.124-11.362ZM2.022 23.831A16.021 16.021 0 1 1 30.111 8.41a12.373 12.373 0 0 0-4.363-1.003 24.928 24.928 0 0 0-8.976 2.391 37.08 37.08 0 0 0-8.554 5.735c-.254.2-.405.114-.663.011a1.515 1.515 0 0 0-1.489.155 1.443 1.443 0 0 0-.49 1.756c.166.455.103.575.003.732-.099.157-1.134 1.45-1.418 1.83-.283.38-1.968 3.543-2.045 3.669-.028.05-.06.098-.094.144Z"/><path fill="#0CA3FA" d="M16.298 11.614a9.927 9.927 0 0 1 5.42-.341 2.77 2.77 0 0 1 1.89 1.738 4.965 4.965 0 0 1-.377 3.35 12.813 12.813 0 0 1-2.23 3.355 22.37 22.37 0 0 1-9.55 6.503 15.357 15.357 0 0 1-3.333.853 6.27 6.27 0 0 1-1.925.073 3.795 3.795 0 0 1-2.72-1.369 3.563 3.563 0 0 1-.254-3.172 15.898 15.898 0 0 1 2.26-3.842c.155-.211.304-.469.575-.54.35.1.71.158 1.074.17a1.493 1.493 0 0 0 1.313-1.38 2.357 2.357 0 0 0-.212-.959 23.088 23.088 0 0 1 8.069-4.44"/><path fill="#fff" d="M31.763 13.352a15.895 15.895 0 0 0-1.682-4.953 12.198 12.198 0 0 0-4.333-.991 24.927 24.927 0 0 0-8.976 2.391 37.084 37.084 0 0 0-8.554 5.735c-.254.2-.405.114-.663.011a1.514 1.514 0 0 0-1.489.155 1.442 1.442 0 0 0-.49 1.756c.166.455.103.575.003.732-.099.157-1.134 1.45-1.418 1.83-.283.38-1.968 3.543-2.045 3.669a2.94 2.94 0 0 1-.076.119 16.048 16.048 0 0 0 7.892 6.995 35.467 35.467 0 0 0 12.721-6.133c6.858-4.976 8.954-10.857 9.11-11.316ZM23.23 16.36A12.813 12.813 0 0 1 21 19.717a22.371 22.371 0 0 1-9.55 6.503 15.356 15.356 0 0 1-3.333.852 6.267 6.267 0 0 1-1.925.073 3.794 3.794 0 0 1-2.72-1.369 3.563 3.563 0 0 1-.254-3.172 15.898 15.898 0 0 1 2.26-3.842c.155-.211.304-.469.575-.54.35.1.71.158 1.074.17a1.493 1.493 0 0 0 1.313-1.38 2.356 2.356 0 0 0-.213-.959 23.09 23.09 0 0 1 8.07-4.44 9.928 9.928 0 0 1 5.419-.34 2.77 2.77 0 0 1 1.89 1.738 4.966 4.966 0 0 1-.376 3.35Z"/></g></svg>