<svg fill="none" height="32" viewBox="0 0 32 32" width="32" xmlns="http://www.w3.org/2000/svg" xmlns:xlink="http://www.w3.org/1999/xlink"><clipPath id="a"><path d="m0 0h32v32h-32z"/></clipPath><g clip-path="url(#a)"><path d="m16 32.2305c8.8366 0 16-7.1635 16-16 0-8.83659-7.1634-16.000031-16-16.000031-8.83656 0-16 7.163441-16 16.000031 0 8.8365 7.16344 16 16 16z" fill="#1a467d"/><path d="m18.5501 17.3731h-1.545l-1.2202-2.3824-1.2195 2.4121-.6484 1.3357-.6833 1.3715h-1.5086l4.0969-8.2168zm7.7232-5.4813-2.3331 2.9909.8603 1.1175 3.1995-4.1084zm-2.3331 5.2267 2.3331 2.9915h1.7267l-3.1995-4.1098zm-12.9337-4.0368c-.3778-.3871-.831-.6926-1.33163-.8975s-1.03797-.3049-1.57879-.2937c-.85122-.0147-1.68364.2511-2.36889.7563l1.00212 1.0129c.41138-.2492.88597-.3745 1.36677-.3606.36095-.0094.71988.0567 1.05376.1941.33388.1375.63532.3433.88496.6041.5061.521.7895 1.2185.7901 1.9448.0086.3618-.0572.7215-.1932 1.0568s-.3394.6392-.5976.8928c-.0263.0276-.05396.0547-.08167.0817-.51419.4922-1.2028.7601-1.91446.7448s-1.38811-.3126-1.88064-.8265c-.50615-.5209-.78933-1.2186-.7894-1.9448-.0033-.4967.13338-.9841.39436-1.4067l-1.0075-1.0129c-.50313.6883-.76796 1.5219-.75429 2.3743-.00046.0335-.00052.0671-.00016.1006.01157 1.0745.44952 2.1004 1.21749 2.852.76798.7516 1.80308 1.1674 2.87759 1.1558.54177.0197 1.08151-.0762 1.58341-.2811.50187-.2049.95447-.5142 1.32777-.9074.3804-.3844.6809-.8403.8842-1.3415.2033-.5011.3053-1.0376.3002-1.5784.0132-.5419-.0851-1.0807-.2888-1.583-.2038-.5023-.5086-.9574-.8957-1.3369zm10.5945-1.1534h-1.7617l3.2202 4.0902-3.195 4.0595-.6661-1.3395h-1.51l.6834 1.3715h3.2293l2.333-2.9928-.8462-1.0987.8462-1.0987z" fill="#fff"/></g></svg>