<svg xmlns="http://www.w3.org/2000/svg" width="32" height="32" fill="none"><defs><clipPath id="oax__a"><path fill="#fff" d="M0 0h32v32H0z"/></clipPath></defs><g clip-path="url(#oax__a)"><path fill="#1A467D" d="M16 32.23c8.837 0 16-7.163 16-16 0-8.836-7.163-16-16-16s-16 7.164-16 16c0 8.837 7.163 16 16 16Z"/><path fill="#fff" d="M18.55 17.373h-1.545l-1.22-2.382-1.22 2.412-.648 1.335-.683 1.372h-1.509l4.097-8.217 2.728 5.48Zm7.723-5.481-2.333 2.99L24.8 16l3.2-4.108h-1.727Zm-2.333 5.227 2.333 2.991H28L24.8 16l-.86 1.119Zm-12.934-4.037a3.953 3.953 0 0 0-2.91-1.192 3.88 3.88 0 0 0-2.369.757L6.73 13.66c.412-.25.886-.375 1.367-.36a2.592 2.592 0 0 1 1.939.797c.506.521.79 1.219.79 1.945a2.645 2.645 0 0 1-.79 1.95 2.685 2.685 0 0 1-3.877 0 2.791 2.791 0 0 1-.79-1.945 2.644 2.644 0 0 1 .394-1.407l-1.007-1.013A3.917 3.917 0 0 0 4 16.002v.1a4.052 4.052 0 0 0 4.095 4.008 3.822 3.822 0 0 0 2.912-1.188 4.096 4.096 0 0 0 1.184-2.92 3.956 3.956 0 0 0-1.184-2.92Zm10.595-1.154h-1.762l3.22 4.09-3.195 4.06-.666-1.34h-1.51l.684 1.372h3.23l2.332-2.993-.846-1.099.846-1.098-2.333-2.992Z"/></g></svg>