<svg xmlns="http://www.w3.org/2000/svg" width="32" height="32" fill="none"><path fill="#141414" d="M16 32c8.837 0 16-7.163 16-16S24.837 0 16 0 0 7.163 0 16s7.163 16 16 16Z"/><path fill="#fff" fill-rule="evenodd" d="M6.833 15.504a1.322 1.322 0 1 1-2.645 0 1.322 1.322 0 0 1 2.645 0Zm21.015 0a1.323 1.323 0 1 1-2.646 0 1.323 1.323 0 0 1 2.646 0ZM17.34 20.722a1.323 1.323 0 1 1-2.645 0 1.323 1.323 0 0 1 2.645 0Zm-5.29-2.573a1.322 1.322 0 1 1-2.644 0 1.322 1.322 0 0 1 2.645 0Zm10.508 0a1.323 1.323 0 1 1-2.645 0 1.323 1.323 0 0 1 2.645 0ZM6.404 19.507a.894.894 0 1 1-1.787 0 .894.894 0 0 1 1.787 0Zm21.015 0a.894.894 0 1 1-1.788-.001.894.894 0 0 1 1.788.001ZM16.91 24.796a.894.894 0 1 1-1.788 0 .894.894 0 0 1 1.788 0Zm-5.29-2.644a.893.893 0 1 1-1.786 0 .893.893 0 0 1 1.787 0Zm10.508 0a.893.893 0 1 1-1.787 0 .893.893 0 0 1 1.787 0Zm-16.154.5a.465.465 0 1 1-.93 0 .465.465 0 0 1 .93 0Zm21.015 0a.465.465 0 1 1-.93 0 .465.465 0 0 1 .93 0Zm-10.508 5.29a.465.465 0 1 1-.93 0 .465.465 0 0 1 .93 0Zm-5.29-2.645a.465.465 0 1 1-.93 0 .465.465 0 0 1 .93 0Zm10.508 0a.465.465 0 1 1-.93 0 .465.465 0 0 1 .93 0ZM17.77 5.318a1.787 1.787 0 1 1-3.574 0 1.787 1.787 0 0 1 3.574 0Zm0 5.29a1.787 1.787 0 1 1-3.574 0 1.787 1.787 0 0 1 3.574 0Zm0 5.218a1.787 1.787 0 1 1-3.574 0 1.787 1.787 0 0 1 3.574 0Zm10.508-5.218a1.787 1.787 0 1 1-3.574 0 1.787 1.787 0 0 1 3.574 0Zm-21.016 0a1.787 1.787 0 1 1-3.573 0 1.787 1.787 0 0 1 3.573 0Zm5.29-2.645a1.787 1.787 0 1 1-3.574 0 1.787 1.787 0 0 1 3.574 0Zm0 5.218a1.787 1.787 0 1 1-3.574 0 1.787 1.787 0 0 1 3.574 0Zm10.507-5.218a1.787 1.787 0 1 1-3.574 0 1.787 1.787 0 0 1 3.574 0Zm0 5.218a1.787 1.787 0 1 1-3.574 0 1.787 1.787 0 0 1 3.574 0Z" clip-rule="evenodd"/></svg>