<svg xmlns="http://www.w3.org/2000/svg" width="32" height="32" fill="none"><path fill="#1A82FF" fill-rule="evenodd" d="M16 0c8.837 0 16 7.163 16 16s-7.163 16-16 16S0 24.836 0 16C0 7.162 7.163 0 16 0Z" clip-rule="evenodd"/><path fill="#fff" fill-rule="evenodd" d="M20.51 14.072c.118.587.18 1.232.18 1.928 0 3.748-1.758 5.985-4.703 5.985-1.228 0-2.264-.393-3.046-1.143l10.251-10.265a8.743 8.743 0 0 0-.94-1.358 8.332 8.332 0 0 0-.462-.497c-.02-.022-.043-.041-.063-.062-.047-.046-.094-.095-.142-.14l-.002.003C20.095 7.133 18.18 6.4 15.987 6.4c-2.535 0-4.696.975-6.252 2.82-1.462 1.734-2.268 4.142-2.268 6.78 0 1.753.358 3.403 1.025 4.822l2.975-2.978A10.237 10.237 0 0 1 11.311 16c0-1.725.35-3.12 1.042-4.146.811-1.203 2.068-1.84 3.634-1.84 1.22 0 2.235.385 3.007 1.102L8.764 21.36a8.597 8.597 0 0 0 1.196 1.673l.002.002c.087.096.177.189.269.28l.034.034c.03.028.057.059.086.087l.004-.003c1.49 1.418 3.417 2.167 5.632 2.167 2.536 0 4.703-.975 6.265-2.82 1.47-1.736 2.282-4.145 2.282-6.78 0-1.78-.371-3.455-1.064-4.89l-2.96 2.962Z" clip-rule="evenodd"/></svg>