<svg xmlns="http://www.w3.org/2000/svg" width="32" height="32" fill="none"><defs><linearGradient id="ogv__a" x1="10.716" x2="14.552" y1="13.085" y2="16.526" gradientUnits="userSpaceOnUse"><stop stop-color="#1D313F"/><stop offset="1" stop-color="#fff"/></linearGradient></defs><path fill="#1E313F" d="M16.061 31.918c8.798-.03 15.906-7.185 15.877-15.983C31.908 7.137 24.752.029 15.955.059 7.157.089.049 7.244.078 16.042c.03 8.797 7.186 15.905 15.983 15.876Z"/><path fill="#fff" d="M25.964 25.878c5.46-5.5 5.434-14.385-.067-19.846C20.397.572 11.513.6 6.052 6.1l19.912 19.779Z" opacity=".2"/><path fill="#fff" d="m24.618 11.243-1.811-1.827-.986 1.002-.012-.012-.802.81-4.933 5-3.121-3.166a4.245 4.245 0 0 0-1.166 2.535l4.287 4.346 4.851-4.917a5.019 5.019 0 0 1-4.917 5.981 5.019 5.019 0 0 1-5.011-5.01 5.019 5.019 0 0 1 5.01-5.012c1.135 0 2.184.38 3.025 1.017l2.148-2.179a8.029 8.029 0 0 0-5.172-1.885c-4.44 0-8.055 3.614-8.055 8.054 0 4.444 3.615 8.055 8.055 8.055 4.44 0 8.055-3.614 8.055-8.055 0-1.22-.274-2.374-.76-3.41l1.315-1.327Z"/><path fill="url(#ogv__a)" d="m16.074 19.931-4.283-4.346a4.235 4.235 0 0 1 1.165-2.535l3.122 3.165v3.716h-.004Z"/></svg>