<svg fill="none" height="32" viewBox="0 0 32 32" width="32" xmlns="http://www.w3.org/2000/svg"><path d="m16 0c-8.82581 0-16 7.17419-16 16 0 8.8258 7.17419 16 16 16 8.8258 0 16-7.1742 16-16 0-8.82581-7.1742-16-16-16z" fill="#101010"/><g fill="#fff"><path d="m13.6775 19.8193v-5.3935l1.9613 5.3935h1.2645l1.9613-5.3935v5.3935h1.342v-7.6387h-1.8065l-2.1161 5.8323-2.0903-5.8323h-1.8065v7.6387z"/><path d="m7.5613 13.3677c-1.49678 0-2.3742 1.1355-2.3742 2.6581s.90323 2.6323 2.3742 2.6323c1.49677 0 2.37419-1.1097 2.37419-2.6323.02581-1.5226-.87742-2.6581-2.37419-2.6581zm0-1.3677c2.34839 0 3.8194 1.7548 3.8194 4s-1.47101 4-3.8194 4-3.81936-1.7548-3.81936-4 1.47097-4 3.81936-4z"/><path d="m24.6967 20c1.2645 0 1.9613-.5677 2.2452-1.0581v.8775h1.3161v-4.1033h-3.5613v1.3162h2.1935c-.129 1.1096-.929 1.6258-1.9613 1.6258-1.4709 0-2.2967-1.0839-2.2967-2.6581 0-1.471.7226-2.6839 2.2709-2.6839 1.0065 0 1.8323.5162 1.9097 1.3936h1.4452c-.2065-1.7549-1.5226-2.7097-3.3291-2.7097-2.5548 0-3.7419 1.9613-3.7419 4.0516.0258 2.2452 1.3936 3.9484 3.5097 3.9484z"/></g></svg>