<svg xmlns="http://www.w3.org/2000/svg" width="32" height="32" fill="none"><path fill="#ED1B6C" d="M16 32c8.837 0 16-7.163 16-16S24.837 0 16 0 0 7.163 0 16s7.163 16 16 16Z"/><path fill="#1C2230" d="M16 31.36c8.483 0 15.36-6.877 15.36-15.36S24.483.64 16 .64.64 7.517.64 16 7.517 31.36 16 31.36Z"/><path fill="#fff" d="M19.725 18.89c.474.3.71.48.981.63 1.623.96 3.381 1.05 4.53.09a2.981 2.981 0 0 0 .745-3.719 3.423 3.423 0 0 0-3.754-2.22 3.674 3.674 0 0 0-2.13 1.2c-1.082 1.38-1.454 3.15-3.246 4.08-.236.12-.169.81-.169 1.229.034 3-2.434 5.309-5.984 5.609-2.807.24-7-1.77-6.966-4.56a24.56 24.56 0 0 0 4.497 1.74 9.191 9.191 0 0 0 4.227-.24 3.036 3.036 0 0 0 2.333-3.299c-.203-1.14-.71-1.44-3.314-1.83a49.66 49.66 0 0 1-.507-2.189c.27-.03.473-.09.676-.09 1.184-.09 2.469-.12 2.57-1.59a2.482 2.482 0 0 0-2.604-2.429 21.806 21.806 0 0 0-4.361 1.29c-.305-.42-.812-1.11-1.285-1.8a6.328 6.328 0 0 1 7.912-.99c2.265 1.44 2.468 3.75.473 6.449.575.48 1.15.96 1.961 1.65.27-.72.406-1.23.609-1.71a9.576 9.576 0 0 1 .913-2.07 5.086 5.086 0 0 1 9.19.746 5.906 5.906 0 0 1 0 5.072 4.63 4.63 0 0 1-4.118 2.31 3.296 3.296 0 0 1-3.179-3.359Z"/><path fill="#fff" d="M13.2 7.403a7.553 7.553 0 0 0 8.622-.03c.507.72.947 1.32 1.386 1.92-3.28 2.279-8.622 1.11-10.008-1.89Z"/><path fill="#EB1A6B" d="M15.439 5.824c.558-.682.992-1.179 1.52-1.8a61.14 61.14 0 0 1 1.52 1.645c-.465.527-.9.993-1.458 1.582-.527-.465-.993-.9-1.582-1.427Z"/></svg>