<svg fill="none" height="32" viewBox="0 0 32 32" width="32" xmlns="http://www.w3.org/2000/svg" xmlns:xlink="http://www.w3.org/1999/xlink"><linearGradient id="a" gradientUnits="userSpaceOnUse" x1="2.16485" x2="29.769" y1="29.8752" y2="2.12039"><stop offset="0" stop-color="#00aee9"/><stop offset="1" stop-color="#69fabd"/></linearGradient><path d="m25.0111.192001c-3.7696 0-6.8288 3.046399-6.8352 6.815999v7.552c-.704.0448-1.4208.0768-2.1696.0768s-1.4656.032-2.1696.0704v-7.6992c-.064-3.7312-3.104-6.726399-6.83524-6.726399-3.7312 0-6.7776 2.995199-6.8352 6.726399v18.0544c.0576 3.7312 3.0976 6.7264 6.8352 6.7264 3.73764 0 6.77764-2.9952 6.83524-6.7264v-7.552c.704-.0448 1.4208-.0768 2.1696-.0768s1.4656-.032 2.1696-.0704v7.7056c.0576 3.7312 3.104 6.7264 6.8352 6.7264s6.7776-2.9952 6.8352-6.7264v-18.0608c-.0128-3.7696-3.0656-6.815999-6.8352-6.815999zm-18.00964 2.796799c2.2208 0 4.02564 1.7984 4.03204 4.0192v8c-1.99684.288-3.95524.8448-5.81124 1.6448-.8064.352-1.5616.8064-2.2528 1.344v-10.9888c.0064-2.2208 1.8112-4.0192 4.032-4.0192zm4.03204 22.0736c0 2.2272-1.80484 4.032-4.03204 4.032s-4.032-1.8048-4.032-4.032v-1.8112c0-1.6 1.2672-3.1168 3.392-4.0576 1.4976-.6464 3.0656-1.1072 4.67844-1.3696v7.2384zm13.9776 4.0192c-2.2208 0-4.0256-1.7984-4.032-4.0192v-8c1.9968-.288 3.9552-.8448 5.8112-1.6448.8064-.352 1.5616-.8064 2.2528-1.344v10.9888c-.0128 2.2208-1.8112 4.0192-4.032 4.0192zm.64-16.2176c-1.4976.6464-3.0656 1.1072-4.6784 1.3696v-7.2256c0-2.2272 1.8048-4.032 4.032-4.032s4.032 1.8048 4.032 4.032v1.8112c.0064 1.5936-1.2608 3.1104-3.3856 4.0448z" fill="url(#a)"/></svg>