<svg fill="none" height="32" viewBox="0 0 32 32" width="32" xmlns="http://www.w3.org/2000/svg" xmlns:xlink="http://www.w3.org/1999/xlink"><linearGradient id="a" gradientUnits="userSpaceOnUse" x1="7.69891" x2="24.2613" y1="24.3251" y2="7.67218"><stop offset="0" stop-color="#00aee9"/><stop offset="1" stop-color="#69fabd"/></linearGradient><path d="m16 32c8.8366 0 16-7.1634 16-16 0-8.83656-7.1634-16-16-16-8.83656 0-16 7.16344-16 16 0 8.8366 7.16344 16 16 16z" fill="#fff"/><path d="m21.4066 6.51515c-2.2617 0-4.0973 1.82785-4.1011 4.08965v4.5312c-.4224.0268-.8525.046-1.3018.046-.4492 0-.8793.0192-1.3017.0423v-4.6195c-.0384-2.23876-1.8624-4.03589-4.1011-4.03589-2.23877 0-4.06658 1.79713-4.10114 4.03589v10.8326c.03456 2.2387 1.85853 4.0358 4.10114 4.0358 2.2425 0 4.0665-1.7971 4.1011-4.0358v-4.5312c.4224-.0269.8525-.0461 1.3017-.0461.4493 0 .8794-.0192 1.3018-.0422v4.6233c.0346 2.2388 1.8624 4.0359 4.1011 4.0359s4.0666-1.7971 4.1011-4.0359v-10.8364c-.0076-2.2618-1.8393-4.08965-4.1011-4.08965zm-10.8057 1.67809c1.3324 0 2.4153 1.07904 2.4192 2.41156v4.8c-1.1981.1728-2.3732.5068-3.48677.9868-.48384.2112-.93696.4839-1.35168.8064v-6.5932c.00384-1.33252 1.08672-2.41156 2.41925-2.41156zm2.4192 13.24416c0 1.3363-1.0829 2.4192-2.4192 2.4192-1.33637 0-2.41925-1.0829-2.41925-2.4192v-1.0867c0-.96.76032-1.8701 2.03525-2.4346.8985-.3878 1.8393-.6643 2.807-.8217v4.343zm8.3865 2.4115c-1.3325 0-2.4153-1.079-2.4192-2.4115v-4.8c1.1981-.1728 2.3731-.5069 3.4867-.9869.4839-.2112.937-.4838 1.3517-.8064v6.5933c-.0077 1.3325-1.0867 2.4115-2.4192 2.4115zm.384-9.7305c-.8985.3878-1.8393.6643-2.807.8217v-4.3353c0-1.33636 1.0829-2.41924 2.4192-2.41924s2.4192 1.08288 2.4192 2.41924v1.0867c.0038.9561-.7565 1.8662-2.0314 2.4269z" fill="url(#a)"/></svg>