<svg width="32" height="32" fill="none" xmlns="http://www.w3.org/2000/svg"><path d="M32 16c0 8.837-7.163 16-16 16S0 24.837 0 16 7.163 0 16 0s16 7.163 16 16Z" fill="#fff"/><path fill-rule="evenodd" clip-rule="evenodd" d="M16.002 7a7.865 7.865 0 0 0-2.997.593 7.787 7.787 0 0 0-2.022 1.22L9.357 7.204a.693.693 0 0 0-1.18.493v7.093a.7.7 0 0 0 .006.094 7.757 7.757 0 0 0 2.293 5.417 7.774 7.774 0 0 0 2.534 1.688 7.866 7.866 0 0 0 8.02-1.224l1.62 1.61a.693.693 0 0 0 1.182-.49V14.79a.698.698 0 0 0-.009-.108 7.754 7.754 0 0 0-2.29-5.401A7.773 7.773 0 0 0 19 7.593 7.864 7.864 0 0 0 16.002 7Zm-5.576 3.212c.015.018.03.034.046.05l5.385 5.356 4.184 4.166c-.473.38-1 .69-1.565.924a6.48 6.48 0 0 1-4.938 0 6.387 6.387 0 0 1-2.082-1.388h-.002a6.37 6.37 0 0 1-1.885-4.528c0-.031-.002-.061-.006-.091V9.357l.863.855Zm5.764 3.783 6.256 6.222v-5.323a.7.7 0 0 1-.008-.105 6.367 6.367 0 0 0-1.883-4.527h-.001a6.387 6.387 0 0 0-2.083-1.388 6.478 6.478 0 0 0-6.5.921l4.22 4.2ZM8.876 20.274c.382 0 .693.31.693.692v2.671a.693.693 0 1 1-1.386 0v-2.67c0-.383.31-.693.693-.693ZM16.035 22.944c.382 0 .692.31.692.693v2.67a.693.693 0 1 1-1.385 0v-2.67c0-.382.31-.693.693-.693ZM23.193 22.741c.383 0 .693.31.693.693v1.782a.693.693 0 0 1-1.386 0v-1.782c0-.383.31-.693.693-.693Z" fill="#48A3FF"/></svg>