<svg fill="none" height="32" viewBox="0 0 32 32" width="32" xmlns="http://www.w3.org/2000/svg"><circle cx="16" cy="16" fill="#fff" r="16"/><g clip-rule="evenodd" fill="#48a3ff" fill-rule="evenodd"><path d="m16.0023 7c-1.0287 0-2.0475.20142-2.9971.59293-.7344.3028-1.4164.71471-2.0223 1.22052l-1.62565-1.60901c-.19871-.19667-.49615-.25465-.75418-.147-.25803.10766-.42607.35985-.42607.63943v7.09343c0 .0316.00212.0627.00622.0932.02101 2.0312.84379 3.9742 2.29318 5.4172.7231.723 1.5846 1.2966 2.5339 1.688.9495.3914 1.9682.5929 2.997.5929s2.0476-.2015 2.997-.5929c.7362-.3035 1.4194-.7165 2.0263-1.2238l1.6193 1.6107c.1984.1976.4962.2563.7547.1489s.427-.3599.427-.6398v-7.0944c0-.0367-.0028-.0727-.0083-.1079-.0239-2.0251-.8452-3.9618-2.29-5.40144-.7231-.72303-1.5846-1.29667-2.5339-1.68804-.9495-.3915-1.9683-.59292-2.9971-.59292zm-5.576 3.2122c.0144.0175.0297.0343.0459.0504l5.3844 5.3558 4.1843 4.166c-.4727.3789-.9994.6902-1.5647.9232-.7815.3222-1.6209.4883-2.4689.4883s-1.6873-.1661-2.4689-.4883c-.7815-.3222-1.4895-.794-2.0827-1.3873l-.0012-.0011c-1.2126-1.2071-1.88922-2.8348-1.88598-4.5276.00006-.0306-.0019-.0609-.00581-.0909v-5.3432zm5.7641 3.7832 6.2555 6.2216v-5.3228c-.0052-.0347-.0079-.07-.0078-.1056.0041-1.6921-.6716-3.3193-1.8832-4.5264l-.0009-.0009c-.5933-.59334-1.3012-1.06506-2.0828-1.38726-.7815-.32225-1.6208-.48834-2.4689-.48834-.848 0-1.6873.16607-2.4689.48833-.5641.23257-1.0899.54307-1.5619.92095z"/><path d="m8.87571 20.2736c.38265 0 .69285.3102.69285.6928v2.6709c0 .3827-.3102.6929-.69285.6929s-.69285-.3102-.69285-.6929v-2.6709c0-.3826.3102-.6928.69285-.6928z"/><path d="m16.0346 22.9444c.3827 0 .6929.3102.6929.6928v2.6699c0 .3827-.3102.6929-.6929.6929-.3826 0-.6928-.3102-.6928-.6929v-2.6699c0-.3826.3102-.6928.6928-.6928z"/><path d="m23.1931 22.741c.3826 0 .6928.3102.6928.6929v1.7825c0 .3826-.3102.6928-.6928.6928-.3827 0-.6929-.3102-.6929-.6928v-1.7825c0-.3827.3102-.6929.6929-.6929z"/></g></svg>