<svg fill="none" height="32" viewBox="0 0 32 32" width="32" xmlns="http://www.w3.org/2000/svg"><path d="m32 16c0 8.8366-7.1634 16-16 16-8.83656 0-16-7.1634-16-16 0-8.83656 7.16344-16 16-16 8.8366 0 16 7.16344 16 16z" fill="#fff"/><g fill="#48a3ff"><path d="m8.83202 9.25866-2.79467-2.79467v9.53601c0 2.4427.928 4.8853 2.79467 6.7413 3.72268 3.7227 9.77068 3.7227 13.49328 0z"/><path d="m23.1679 22.7413 2.7947 2.7947v-9.536c0-2.4427-.928-4.8853-2.7947-6.74134-3.7227-3.72267-9.7707-3.72267-13.49334 0z"/></g></svg>