<svg xmlns="http://www.w3.org/2000/svg" width="32" height="32" fill="none"><defs><clipPath id="onx__a"><path fill="#fff" d="M0 0h32v32H0z"/></clipPath></defs><g clip-path="url(#onx__a)"><path fill="#4729FF" d="M16 32a16 16 0 1 0 0-32 16 16 0 0 0 0 32Z"/><path fill="#fff" d="M27.284 14.274a10.376 10.376 0 0 0-.47-1.781 13.769 13.769 0 0 0-.734-1.699 13.183 13.183 0 0 0-1.021-1.597 10.983 10.983 0 0 0-1.1-1.249l-.205-.204-.082-.082A12.77 12.77 0 0 0 22.1 6.434a13.813 13.813 0 0 0-1.714-.922 11.792 11.792 0 0 0-1.815-.614 9.763 9.763 0 0 0-1.857-.307 11.449 11.449 0 0 0-6.448 1.454c-.326.184-.653.41-.98.635-8.958 7.348-4.06 19.672 5.571 20.675a11.322 11.322 0 0 0 12.57-11.464 14.836 14.836 0 0 0-.143-1.617Zm-5.53 3.296a6.133 6.133 0 0 1-7.815 4.503 6.28 6.28 0 0 1-4.387-7.103c.06-.306.141-.607.245-.9a6.36 6.36 0 0 1 7.346-3.849 6.022 6.022 0 0 1 4.61 7.35Zm-4.53 6.715a8.246 8.246 0 0 0 6.672-8.23 7.323 7.323 0 0 1-1.122 6.142 8.376 8.376 0 0 1-15.12-3.357c-.06-.36-.1-.722-.122-1.086a8.585 8.585 0 0 0 1.857 3.604 8.94 8.94 0 0 0 7.835 2.927Zm8.55-5.262a10.183 10.183 0 0 0-3.204-8.986c-.233-.23-.471-.456-.714-.676a9.56 9.56 0 0 0-8.876-1.843 9.945 9.945 0 0 0-6.918 7.677 10.077 10.077 0 0 1 10.469-9.724 9.949 9.949 0 0 1 1.713.288c.565.14 1.117.325 1.653.552a10.6 10.6 0 0 1 3.081 2.027c.184.163.347.348.51.512.247.246.472.514.674.798.35.452.664.93.938 1.432a11.308 11.308 0 0 1 1.103 3.174 11.678 11.678 0 0 1-.43 4.77Z"/></g></svg>