<svg fill="none" height="32" viewBox="0 0 32 32" width="32" xmlns="http://www.w3.org/2000/svg" xmlns:xlink="http://www.w3.org/1999/xlink"><linearGradient id="a" gradientUnits="userSpaceOnUse" x1="44.9146" x2="11.2756" y1="42.8127" y2="11.4219"><stop offset="0" stop-color="#007bc4"/><stop offset="1" stop-color="#42c0ec"/></linearGradient><radialGradient id="b" cx="0" cy="0" gradientTransform="matrix(31.6181 0 0 30.4116 5.13666 7.98223)" gradientUnits="userSpaceOnUse" r="1"><stop offset="0" stop-color="#fbbd3e"/><stop offset=".08431" stop-color="#fab849"/><stop offset=".2285" stop-color="#f7ac60"/><stop offset=".415" stop-color="#f3967a"/><stop offset=".6344" stop-color="#ee748d"/><stop offset=".7129" stop-color="#ec6490"/></radialGradient><path d="m16 32c8.8366 0 16-7.1634 16-16 0-8.83656-7.1634-16-16-16-8.83656 0-16 7.16344-16 16 0 8.8366 7.16344 16 16 16z" fill="#fff"/><path d="m17.1166 26c2.4685.0471 4.8547-.8879 6.6342-2.5994 1.7794-1.7116 2.8065-4.0596 2.8554-6.5281-.049-2.4685-1.076-4.8165-2.8555-6.5281-1.7794-1.71151-4.1656-2.64648-6.6341-2.5994-2.4685-.04708-4.8547.8879-6.6342 2.5994-1.77943 1.7116-2.80649 4.0596-2.85545 6.5281.04895 2.4685 1.07602 4.8165 2.85545 6.5281 1.7795 1.7115 4.1657 2.6465 6.6342 2.5994z" fill="url(#a)"/><path d="m14.9534 24.3892c2.4867.0475 4.8905-.8944 6.683-2.6185s2.8271-4.0894 2.8764-6.5761c-.0493-2.4866-1.0839-4.8519-2.8764-6.57605-1.7925-1.72413-4.1963-2.66598-6.683-2.61855-2.4866-.04742-4.8904.89443-6.68291 2.61856-1.79252 1.72414-2.82714 4.08944-2.87645 6.57604.04931 2.4867 1.08393 4.852 2.87645 6.5761 1.79251 1.7241 4.19631 2.666 6.68291 2.6185z" fill="url(#b)"/></svg>