<svg xmlns="http://www.w3.org/2000/svg" width="32" height="32" fill="none"><defs><radialGradient id="ooki__d" cx="0" cy="0" r="1" gradientTransform="rotate(13.526 -58.106 83.49) scale(14.7503 14.7464)" gradientUnits="userSpaceOnUse"><stop offset=".48" stop-color="#004CFF" stop-opacity="0"/><stop offset=".993" stop-color="#0952FF"/><stop offset="1" stop-color="#004CFF"/></radialGradient><radialGradient id="ooki__f" cx="0" cy="0" r="1" gradientTransform="matrix(12.93147 9.0843 -9.08345 12.93024 8.484 8.537)" gradientUnits="userSpaceOnUse"><stop offset=".474" stop-color="#004CFF"/><stop offset="1" stop-color="#004CFF" stop-opacity="0"/></radialGradient><radialGradient id="ooki__g" cx="0" cy="0" r="1" gradientTransform="matrix(23.758 0 0 23.751 4.788 8.925)" gradientUnits="userSpaceOnUse"><stop stop-color="#FFBE3B"/><stop offset=".134" stop-color="#FFB445"/><stop offset=".364" stop-color="#FF995E"/><stop offset=".659" stop-color="#FF6D88"/><stop offset=".713" stop-color="#FF6490"/></radialGradient><linearGradient id="ooki__b" x1=".777" x2="31.226" y1="16" y2="16" gradientUnits="userSpaceOnUse"><stop stop-color="#FFB544"/><stop offset=".434" stop-color="#FF6D88"/><stop offset="1" stop-color="#3E9EFF"/></linearGradient><linearGradient id="ooki__c" x1="43.235" x2="14.568" y1="36.755" y2="13.625" gradientUnits="userSpaceOnUse"><stop stop-color="#004CFF"/><stop offset="1" stop-color="#66D4FF"/></linearGradient><linearGradient id="ooki__e" x1="6.883" x2="25.014" y1="9.715" y2="22.982" gradientUnits="userSpaceOnUse"><stop stop-color="#004CFF"/><stop offset=".809" stop-color="#004CFF" stop-opacity="0"/></linearGradient><clipPath id="ooki__a"><path fill="#fff" d="M0 0h32v32H0z"/></clipPath></defs><g clip-path="url(#ooki__a)"><path fill="#fff" d="M16 31.1c8.4 0 15.1-6.8 15.1-15.1S24.4.9 16 .9C7.6.9.9 7.6.9 16c0 8.4 6.7 15.1 15.1 15.1Z"/><path fill="url(#ooki__b)" d="M26.2 3.7c-2.6-2.1-5.7-3.4-9-3.6-3.3-.3-6.7.5-9.5 2.3C5 4 2.8 6.4 1.4 9.3 0 12.4-.4 15.9.3 19.2 1.6 25.6 7 30.8 13.5 31.8c.8.1 1.7.2 2.5.2 3.3 0 6.6-1 9.3-3 2.6-1.9 4.7-4.5 5.8-7.6 2.3-6.2.3-13.5-4.9-17.7ZM30 18.8c-1.2 5.8-5.9 10.4-11.8 11.3-.7.1-1.5.2-2.2.2-5.9 0-11.4-3.8-13.4-9.3-1-2.8-1.2-5.9-.3-8.8C3.1 9.3 4.7 6.8 7 5 11.6 1.2 18.3.8 23.4 3.8c5 3.1 7.8 9.2 6.6 15Z"/><path fill="url(#ooki__c)" d="M19.3 24.6c4 0 7.2-3.2 7.2-7.2s-3.2-7.2-7.2-7.2-7.2 3.2-7.2 7.2c.1 4 3.3 7.2 7.2 7.2Z"/><path fill="url(#ooki__d)" d="M19.3 24.6c4 0 7.2-3.2 7.2-7.2s-3.2-7.2-7.2-7.2-7.2 3.2-7.2 7.2c.1 4 3.3 7.2 7.2 7.2Z"/><path fill="url(#ooki__e)" d="M26.5 17.5v-.7l-8.4-6.4c-3.4.6-5.9 3.5-5.9 7.1 0 3.9 3.2 7.2 7.2 7.2 1.4 0 2.8-.4 3.9-1.2l2.9-3.8c.2-.7.3-1.5.3-2.2Z"/><path fill="url(#ooki__f)" d="M19.3 24.6c4 0 7.2-3.2 7.2-7.2s-3.2-7.2-7.2-7.2-7.2 3.2-7.2 7.2c.1 4 3.3 7.2 7.2 7.2Z"/><path fill="url(#ooki__g)" d="M12.2 21.7c4 0 7.2-3.2 7.2-7.2s-3.2-7.2-7.2-7.2S5 10.6 5 14.5c0 4 3.2 7.2 7.2 7.2Z"/></g></svg>