<svg xmlns="http://www.w3.org/2000/svg" width="32" height="32" fill="none"><path fill="#FF0420" d="M16 32c8.837 0 16-7.163 16-16S24.837 0 16 0 0 7.163 0 16s7.163 16 16 16Z"/><path fill="#fff" d="M11.337 20.253c-.953 0-1.734-.225-2.342-.673-.6-.456-.9-1.105-.9-1.945 0-.177.02-.393.06-.649.103-.576.251-1.269.444-2.077.544-2.202 1.95-3.303 4.215-3.303.616 0 1.169.104 1.657.312.488.2.873.505 1.153.913.28.4.42.88.42 1.441 0 .168-.02.38-.06.637-.12.712-.264 1.405-.432 2.077-.28 1.097-.765 1.918-1.453 2.462-.689.536-1.61.805-2.762.805Zm.168-1.73c.448 0 .828-.132 1.14-.396.32-.264.549-.668.685-1.213.184-.753.324-1.409.42-1.97.032-.168.048-.34.048-.516 0-.728-.38-1.093-1.14-1.093-.449 0-.833.132-1.153.397-.313.264-.537.668-.673 1.213a26.077 26.077 0 0 0-.432 1.97 2.56 2.56 0 0 0-.048.503c0 .737.384 1.105 1.153 1.105Zm5.09 1.61a.254.254 0 0 1-.204-.085.287.287 0 0 1-.036-.216l1.657-7.806a.344.344 0 0 1 .133-.216.366.366 0 0 1 .228-.084h3.194c.889 0 1.601.184 2.138.553.544.368.816.9.816 1.597 0 .2-.024.408-.072.624-.2.921-.604 1.602-1.213 2.042-.6.44-1.425.66-2.474.66h-1.62l-.553 2.63a.344.344 0 0 1-.132.216.366.366 0 0 1-.228.085h-1.634Zm4.252-4.588c.336 0 .628-.092.876-.276.256-.184.425-.449.505-.793.024-.136.036-.256.036-.36 0-.232-.068-.408-.205-.528-.136-.128-.368-.192-.696-.192h-1.441l-.457 2.15h1.382Z"/></svg>