<svg fill="none" height="32" viewBox="0 0 32 32" width="32" xmlns="http://www.w3.org/2000/svg" xmlns:xlink="http://www.w3.org/1999/xlink"><linearGradient id="a" gradientUnits="userSpaceOnUse" x1="25.194" x2="6.76762" y1="16.6999" y2="16.6999"><stop offset=".09" stop-color="#6dc1d6"/><stop offset=".31" stop-color="#72c6d7"/><stop offset=".61" stop-color="#589ac5"/><stop offset="1" stop-color="#3864af"/></linearGradient><linearGradient id="b" gradientUnits="userSpaceOnUse" x1="23.971" x2="25.8124" y1="22.0338" y2="11.5461"><stop offset=".47" stop-color="#ffdf7f"/><stop offset=".57" stop-color="#ffbe6b"/><stop offset=".69" stop-color="#ff9e58"/><stop offset=".8" stop-color="#ff884a"/><stop offset=".91" stop-color="#ff7a42"/><stop offset="1" stop-color="#ff753f"/></linearGradient><linearGradient id="c" gradientUnits="userSpaceOnUse" x1="26.2213" x2="21.5173" y1="16.9409" y2="17.9987"><stop offset=".01" stop-color="#e670a7"/><stop offset=".12" stop-color="#cb65a2"/><stop offset=".31" stop-color="#a2559b"/><stop offset=".5" stop-color="#824895"/><stop offset=".68" stop-color="#6c3f90"/><stop offset=".85" stop-color="#5e3a8e"/><stop offset="1" stop-color="#59388d"/></linearGradient><linearGradient id="d" gradientUnits="userSpaceOnUse" x1="8.43688" x2="21.4964" y1="22.3721" y2="14.9226"><stop offset="0" stop-color="#15adff"/><stop offset=".06" stop-color="#40a3d4"/><stop offset=".13" stop-color="#6d99a7"/><stop offset=".21" stop-color="#949080"/><stop offset=".3" stop-color="#b5885f"/><stop offset=".38" stop-color="#d08244"/><stop offset=".48" stop-color="#e57d2f"/><stop offset=".59" stop-color="#f47a20"/><stop offset=".72" stop-color="#fc7818"/><stop offset=".92" stop-color="#ff7715"/></linearGradient><linearGradient id="e" gradientUnits="userSpaceOnUse" x1="24.0215" x2="26.1957" y1="10.0951" y2="7.033"><stop offset="0" stop-color="#55398d"/><stop offset="1" stop-color="#c05b9d"/></linearGradient><linearGradient id="f" gradientUnits="userSpaceOnUse" x1="6.89919" x2="21.5724" y1="15.5938" y2="15.5933"><stop offset="0" stop-color="#a3d6d9"/><stop offset=".52" stop-color="#34a4dd"/><stop offset=".56" stop-color="#349dd8"/><stop offset=".74" stop-color="#367ec2"/><stop offset=".89" stop-color="#386bb4"/><stop offset="1" stop-color="#3864af"/></linearGradient><clipPath id="g"><path d="m0 0h32v32h-32z"/></clipPath><g clip-path="url(#g)"><path d="m16.0002 32c8.8366 0 16-7.1635 16-16 0-8.83653-7.1634-16-16-16-8.83652 0-15.99995586 7.16347-15.99995586 16 0 8.8365 7.16343586 16 15.99995586 16z" fill="#fff"/><path d="m24.7146 14.9561c.021-.0268.048-.0481.0787-.0623.0308-.0142.0644-.0209.0982-.0194l.019-.0065c.0351-.0274.0714-.0536.1082-.079-.3554-1.8302-1.2425-3.5114-2.5478-4.82823-3.6344-3.67647-9.5218-3.59472-13.15415.08173-3.63244 3.6765-3.26899 9.8009.3634 13.4773 3.63245 3.6765 9.15835 3.4333 12.79075-.2452.4108-.416.7823-.8699 1.1098-1.3558-.1192-.2188-.2219-.4464-.3074-.6809-.2304-.6411-.3366-1.321-.313-2.0027-.0617-.4546-.0385-.9168.0683-1.3627.0069-.0307.0207-.0594.0404-.0838.0045-.0205.0085-.0409.0137-.0609.0364-.1314.0892-.2574.1571-.3752.0356-.1417.0843-.2796.1454-.412.0742-.269.1761-.5292.3041-.7766.031-.0617.0654-.1259.103-.1913.0087-.0431.0318-.0819.0654-.1099.2144-.3499.508-.7104.8569-.9066zm-5.0325 5.4945c-.7492.7583-1.7038 1.2747-2.743 1.4839-1.0391.2092-2.1163.1019-3.0952-.3085-.9788-.4104-1.8155-1.1054-2.4042-1.9971-.5886-.8916-.9028-1.9399-.9028-3.0123s.3142-2.1207.9028-3.0124c.5887-.8917 1.4254-1.5867 2.4042-1.9971.9789-.4103 2.0561-.5177 3.0952-.3085 1.0392.2092 1.9938.7256 2.743 1.4839.4975.5035.8921 1.1012 1.1613 1.7591s.4078 1.3629.4078 2.075c0 .712-.1386 1.4171-.4078 2.0749-.2692.6579-.6638 1.2556-1.1613 1.7591z" fill="url(#a)"/><path d="m25.9028 11.8117c.2404-.117.5016-.1834.768-.1952s.5324.0312.782.1264c.2495.0952.4774.2406.6698.4275s.3453.4113.4496.6597c.1042.2484.1576.5157.1569.7856s-.0555.5368-.1611.7847c-.1055.2479-.2596.4715-.453.6573s-.422.3301-.672.424v.004c-1.0493.4457-1.9312 1.2178-2.5182 2.2046-.5868.9868-.8482 2.137-.7463 3.2842l-3.9014.327c-.2063-2.3992.4612-4.8757 2.1116-6.8666.9481-1.1454 2.1529-2.0448 3.5141-2.6232z" fill="url(#b)"/><path d="m22.19 13.8259.0044-.0061c.0015-.0019.0029-.004.0041-.0061.3012-.4327.76-.7266 1.2753-.8169s1.045.0303 1.4725.3352.7178.7692.807 1.2908c.0893.5216-.0298 1.0577-.3311 1.4903-.611.8302-.783 1.5356-.8202 2.0437-.0403.5681-.0193.6016-.0557 1.4444-.0279.6507-.2144 1.2111-.3732 1.5103-.468.8812-2.3421.8632-3.5132-.271-.067-.1328-.1334-.2712-.1991-.4153-.0762-.1673-.1466-.3308-.2112-.4905-.0037-.013.0125.058 0 0-.0182-.0862-.0217-.175-.0105-.2624.0056-.0605.0056-.0605.0158-.2232.0218-.3568.0334-.754.1716-1.3488.0286-.1274.0598-.266.1134-.4679.116-.4317.246-.8007.4071-1.2581.002-.0004.5779-1.7309 1.243-2.5484z" fill="url(#c)"/><path d="m7.25768 13.4346c-.32626.8832-.51986 1.811-.5742 2.7523-.00406.1116-.00933.2228-.0142.3352-.05346 2.3188.7406 4.576 2.23007 6.3386 1.48935 1.7628 3.56925 2.907 5.84075 3.2133.4442.0167 1.4191.1201 2.3734-.0065 1.0814-.1435 2.1346-.524 2.3486-.598.2191-.09.4356-.1886.6494-.2959.4732-.2604 1.1775-.7288 1.61-1.0341.1801-.1267.481-.3936.8238-.7406.6559-.6683 1.2116-1.43 1.6496-2.2611.1188-.2716.1702-.5685.1498-.8649-.0734-.9543-.9413-1.8032-1.8301-1.8646-.3605-.0258-.721.0492-1.0422.2168s-.5907.4214-.7791.7336c-.2147.3058-.4522.5946-.7103.864-.2358.2452-1.3213 1.3443-2.6087 1.7575-2.236.7189-4.4481-.8265-4.7377-1.0345-1.1585-.6527-5.37892-7.5111-5.37892-7.5111z" fill="url(#d)"/><path d="m25.0912 10.4367c1.0286 0 1.8624-.8439 1.8624-1.88497 0-1.04113-.8338-1.88507-1.8624-1.88507s-1.8624.84394-1.8624 1.88507c0 1.04107.8338 1.88497 1.8624 1.88497z" fill="url(#e)"/><path d="m20.2242 19.9027c-.0052.0078-.002-.0543-.0125-.0408-1.0184 1.3946-2.4702 1.8801-2.7056 1.9553-.0711.0225-.8283.2453-1.5786.2453-.9974.0046-1.9764-.2728-2.8265-.8008-.8502-.5282-1.5378-1.286-1.9854-2.1882s-.6375-1.913-.5481-2.9186c.0892-1.0055.4542-1.9658 1.0536-2.7728s1.4094-1.4285 2.339-1.7947c.9296-.3661 1.9417-.4624 2.9224-.2778.9806.1846 1.8909.6426 2.6283 1.3225s1.2726 1.5546 1.5453 2.5258c.0052.0184.1058.4532.1434.5023.0404-.1091.067-.1635.1138-.2706.0469-.1071.1038-.2861.166-.3846-.0001-.0009-.0001-.0019 0-.0029l.0965-.2174s-.0052-.0102-.0585-.2366c-.0444-.1864-.0477-.2077-.0489-.2134-.5928-3.515-3.6251-6.18363-7.2644-6.16603-.9634.00473-1.9165.20146-2.8047.57893-.8883.37753-1.69445.92847-2.37231 1.6213-.67794.6929-1.21434 1.5141-1.57867 2.4168s-.5494 1.8692-.54467 2.8442c.02054 4.4625 4.01085 7.4078 7.37025 7.3898 3.3388-.018 5.5045-2.5578 5.836-2.9657" fill="url(#f)"/></g></svg>