<svg xmlns="http://www.w3.org/2000/svg" width="32" height="32" fill="none"><defs><linearGradient id="orn__b" x1="25.194" x2="6.768" y1="16.7" y2="16.7" gradientUnits="userSpaceOnUse"><stop offset=".09" stop-color="#6DC1D6"/><stop offset=".31" stop-color="#72C6D7"/><stop offset=".61" stop-color="#589AC5"/><stop offset="1" stop-color="#3864AF"/></linearGradient><linearGradient id="orn__c" x1="23.971" x2="25.812" y1="22.034" y2="11.546" gradientUnits="userSpaceOnUse"><stop offset=".47" stop-color="#FFDF7F"/><stop offset=".57" stop-color="#FFBE6B"/><stop offset=".69" stop-color="#FF9E58"/><stop offset=".8" stop-color="#FF884A"/><stop offset=".91" stop-color="#FF7A42"/><stop offset="1" stop-color="#FF753F"/></linearGradient><linearGradient id="orn__d" x1="26.221" x2="21.517" y1="16.941" y2="17.999" gradientUnits="userSpaceOnUse"><stop offset=".01" stop-color="#E670A7"/><stop offset=".12" stop-color="#CB65A2"/><stop offset=".31" stop-color="#A2559B"/><stop offset=".5" stop-color="#824895"/><stop offset=".68" stop-color="#6C3F90"/><stop offset=".85" stop-color="#5E3A8E"/><stop offset="1" stop-color="#59388D"/></linearGradient><linearGradient id="orn__e" x1="8.437" x2="21.496" y1="22.372" y2="14.923" gradientUnits="userSpaceOnUse"><stop stop-color="#15ADFF"/><stop offset=".06" stop-color="#40A3D4"/><stop offset=".13" stop-color="#6D99A7"/><stop offset=".21" stop-color="#949080"/><stop offset=".3" stop-color="#B5885F"/><stop offset=".38" stop-color="#D08244"/><stop offset=".48" stop-color="#E57D2F"/><stop offset=".59" stop-color="#F47A20"/><stop offset=".72" stop-color="#FC7818"/><stop offset=".92" stop-color="#FF7715"/></linearGradient><linearGradient id="orn__f" x1="24.021" x2="26.196" y1="10.095" y2="7.033" gradientUnits="userSpaceOnUse"><stop stop-color="#55398D"/><stop offset="1" stop-color="#C05B9D"/></linearGradient><linearGradient id="orn__g" x1="6.899" x2="21.572" y1="15.594" y2="15.593" gradientUnits="userSpaceOnUse"><stop stop-color="#A3D6D9"/><stop offset=".52" stop-color="#34A4DD"/><stop offset=".56" stop-color="#349DD8"/><stop offset=".74" stop-color="#367EC2"/><stop offset=".89" stop-color="#386BB4"/><stop offset="1" stop-color="#3864AF"/></linearGradient><clipPath id="orn__a"><path fill="#fff" d="M0 0h32v32H0z"/></clipPath></defs><g clip-path="url(#orn__a)"><path fill="#fff" d="M16 32c8.837 0 16-7.163 16-16S24.837 0 16 0C7.164 0 0 7.163 0 16s7.164 16 16 16Z"/><path fill="url(#orn__b)" d="M24.715 14.956a.214.214 0 0 1 .177-.082l.018-.006.109-.08a9.403 9.403 0 0 0-2.548-4.827c-3.634-3.677-9.522-3.595-13.154.081-3.633 3.677-3.27 9.801.363 13.478 3.633 3.676 9.159 3.433 12.79-.245.412-.416.783-.87 1.11-1.356a5.011 5.011 0 0 1-.307-.681 5.373 5.373 0 0 1-.313-2.003 3.71 3.71 0 0 1 .069-1.363.189.189 0 0 1 .04-.083l.014-.061c.036-.132.089-.258.157-.376a2.35 2.35 0 0 1 .145-.412 4.01 4.01 0 0 1 .407-.967.193.193 0 0 1 .066-.11c.214-.35.508-.71.857-.907Zm-5.033 5.495a5.337 5.337 0 0 1-2.743 1.483 5.298 5.298 0 0 1-3.095-.308 5.372 5.372 0 0 1-2.404-1.997 5.47 5.47 0 0 1 0-6.025 5.372 5.372 0 0 1 2.404-1.997 5.298 5.298 0 0 1 3.095-.308 5.327 5.327 0 0 1 2.743 1.484 5.426 5.426 0 0 1 1.161 1.759 5.48 5.48 0 0 1 0 4.15 5.426 5.426 0 0 1-1.16 1.759Z"/><path fill="url(#orn__c)" d="M25.903 11.812a1.952 1.952 0 0 1 2.22.358 1.998 1.998 0 0 1 .606 1.446 2.016 2.016 0 0 1-.614 1.442 1.97 1.97 0 0 1-.672.424v.004a5.38 5.38 0 0 0-2.518 2.204 5.48 5.48 0 0 0-.747 3.284l-3.9.328c-.207-2.4.46-4.876 2.11-6.867a9.27 9.27 0 0 1 3.515-2.623Z"/><path fill="url(#orn__d)" d="m22.19 13.826.004-.006a1.97 1.97 0 0 1 1.28-.823c.515-.09 1.045.03 1.472.335a2.014 2.014 0 0 1 .476 2.781c-.61.83-.783 1.536-.82 2.044-.04.568-.02.601-.056 1.444-.028.65-.214 1.211-.373 1.51-.468.882-2.342.864-3.513-.27a11.671 11.671 0 0 1-.41-.906.787.787 0 0 1-.01-.262l.015-.224c.022-.357.033-.754.172-1.349.028-.127.06-.266.113-.468.116-.431.246-.8.407-1.258.002 0 .578-1.73 1.243-2.548Z"/><path fill="url(#orn__e)" d="M7.258 13.435a9.529 9.529 0 0 0-.575 2.752l-.014.335a9.484 9.484 0 0 0 2.23 6.339 9.27 9.27 0 0 0 5.841 3.213c.444.017 1.42.12 2.373-.007 1.082-.143 2.135-.523 2.35-.598.218-.09.435-.188.648-.295.474-.26 1.178-.73 1.61-1.034.18-.127.482-.394.824-.741a9.652 9.652 0 0 0 1.65-2.261c.119-.272.17-.569.15-.865-.074-.954-.942-1.803-1.83-1.865a1.96 1.96 0 0 0-1.822.951 7.373 7.373 0 0 1-.71.864c-.236.245-1.321 1.344-2.609 1.757-2.236.72-4.448-.826-4.737-1.034-1.159-.653-5.38-7.511-5.38-7.511Z"/><path fill="url(#orn__f)" d="M25.091 10.437a1.874 1.874 0 0 0 1.863-1.885 1.874 1.874 0 0 0-1.863-1.885 1.874 1.874 0 0 0-1.862 1.885c0 1.04.834 1.885 1.862 1.885Z"/><path fill="url(#orn__g)" d="M20.224 19.903c-.005.008-.002-.055-.012-.041-1.019 1.395-2.47 1.88-2.706 1.955a6.071 6.071 0 0 1-1.579.245 5.31 5.31 0 0 1-2.826-.8 5.399 5.399 0 0 1-1.985-2.189 5.478 5.478 0 0 1 .505-5.69 5.364 5.364 0 0 1 2.34-1.796 5.298 5.298 0 0 1 2.921-.277 5.33 5.33 0 0 1 2.629 1.322 5.432 5.432 0 0 1 1.545 2.526c.005.018.106.453.143.502.04-.109.067-.163.114-.27.047-.107.104-.287.166-.385v-.003l.097-.217s-.005-.01-.059-.237c-.044-.186-.047-.208-.049-.213-.592-3.515-3.625-6.184-7.264-6.166a7.26 7.26 0 0 0-2.805.579 7.332 7.332 0 0 0-2.372 1.62 7.433 7.433 0 0 0-1.579 2.418 7.504 7.504 0 0 0-.544 2.844c.02 4.462 4.01 7.408 7.37 7.39 3.339-.018 5.504-2.558 5.836-2.966"/></g></svg>