<svg xmlns="http://www.w3.org/2000/svg" width="32" height="32" fill="none"><defs><linearGradient id="osmo__c" x1="14.293" x2="17.4" y1="26.71" y2="7.89" gradientUnits="userSpaceOnUse"><stop stop-color="#81FFFF"/><stop offset=".62" stop-color="#fff" stop-opacity="0"/></linearGradient><linearGradient id="osmo__d" x1="22.404" x2="14.523" y1="10.816" y2="17.916" gradientUnits="userSpaceOnUse"><stop offset=".289" stop-color="#fff"/><stop offset=".78" stop-color="#fff" stop-opacity="0"/></linearGradient><linearGradient id="osmo__e" x1="6.883" x2="24.698" y1="21.742" y2="21.742" gradientUnits="userSpaceOnUse"><stop stop-color="#0002E9"/><stop offset=".995" stop-color="#FF00C7"/></linearGradient><linearGradient id="osmo__f" x1="25.541" x2="15.679" y1="18.009" y2="27.162" gradientUnits="userSpaceOnUse"><stop offset=".289" stop-color="#fff"/><stop offset=".78" stop-color="#fff" stop-opacity="0"/></linearGradient><linearGradient id="osmo__g" x1="6.883" x2="16.414" y1="21.742" y2="21.742" gradientUnits="userSpaceOnUse"><stop stop-color="#000292"/><stop offset=".995" stop-color="#7D00C7"/></linearGradient><linearGradient id="osmo__h" x1="6.895" x2="24.686" y1="18.052" y2="18.052" gradientUnits="userSpaceOnUse"><stop stop-color="#000292"/><stop offset=".995" stop-color="#BE00C7"/></linearGradient><linearGradient id="osmo__i" x1="24.394" x2="23.081" y1="8.335" y2="10.43" gradientUnits="userSpaceOnUse"><stop offset=".289" stop-color="#fff"/><stop offset=".78" stop-color="#fff" stop-opacity="0"/></linearGradient><linearGradient id="osmo__j" x1="14.703" x2="15.412" y1="23.957" y2="23.957" gradientUnits="userSpaceOnUse"><stop offset=".289" stop-color="#fff"/><stop offset=".78" stop-color="#fff" stop-opacity="0"/></linearGradient><linearGradient id="osmo__k" x1="17.149" x2="17.859" y1="23.715" y2="23.715" gradientUnits="userSpaceOnUse"><stop offset=".289" stop-color="#fff"/><stop offset=".78" stop-color="#fff" stop-opacity="0"/></linearGradient><linearGradient id="osmo__l" x1="16.064" x2="16.596" y1="24.937" y2="24.937" gradientUnits="userSpaceOnUse"><stop offset=".289" stop-color="#fff"/><stop offset=".78" stop-color="#fff" stop-opacity="0"/></linearGradient><linearGradient id="osmo__m" x1="18.22" x2="18.752" y1="24.68" y2="24.68" gradientUnits="userSpaceOnUse"><stop offset=".289" stop-color="#fff"/><stop offset=".78" stop-color="#fff" stop-opacity="0"/></linearGradient><linearGradient id="osmo__n" x1="12.411" x2="13.569" y1="23.484" y2="23.484" gradientUnits="userSpaceOnUse"><stop offset=".289" stop-color="#fff"/><stop offset=".78" stop-color="#fff" stop-opacity="0"/></linearGradient><linearGradient id="osmo__o" x1="19.292" x2="20.451" y1="21.553" y2="21.553" gradientUnits="userSpaceOnUse"><stop offset=".289" stop-color="#fff"/><stop offset=".78" stop-color="#fff" stop-opacity="0"/></linearGradient><radialGradient id="osmo__a" cx="0" cy="0" r="1" gradientTransform="matrix(7.4954 0 0 7.63269 26.174 7.462)" gradientUnits="userSpaceOnUse"><stop stop-color="#FFEAFF" stop-opacity=".6"/><stop offset=".681" stop-color="#A087C9"/><stop offset="1" stop-color="#10002F"/></radialGradient><radialGradient id="osmo__b" cx="0" cy="0" r="1" gradientTransform="matrix(18.3385 0 0 18.6744 22.004 10.717)" gradientUnits="userSpaceOnUse"><stop stop-color="#FFEAFF" stop-opacity=".6"/><stop offset=".681" stop-color="#A087C9"/><stop offset="1" stop-color="#10002F"/></radialGradient></defs><circle cx="16" cy="16" r="16" fill="#1B1552"/><path fill="#fff" d="M24.82 5.401C26.344 6.52 27.16 7.36 27.4 8.44c.17.568.019 1.25-.357 1.761-.376.512-.926.882-1.621.882-.263 0-.399-.007-.662-.083a4.444 4.444 0 0 0-.2.815 10.351 10.351 0 0 1 1.6 5.545c0 5.744-4.656 10.4-10.4 10.4-5.744 0-10.4-4.656-10.4-10.4 0-5.744 4.656-10.4 10.4-10.4 1.223 0 2.397.211 3.487.599.125-.041.254-.085.388-.131-.113-.17-.207-.36-.282-.511-.207-.493-.132-1.307.188-1.913.263-.512.676-.852 1.146-.947.188-.038.376-.057.582-.057 1.034 0 2.33.511 3.552 1.401Z"/><path fill="#5E12A0" d="M26.95 8.402c-.235-.906-.99-1.81-2.348-2.818-1.09-.803-2.247-1.264-3.17-1.264-.184 0-.352.017-.52.051-.419.086-.788.393-1.023.854-.285.547-.352 1.28-.167 1.725.067.137.15.307.251.461-.889.546-1.392.7-1.459.717 2.314.786 4.243 2.425 5.45 4.56l.017-.205c.05-.564.218-1.213.453-1.879.235.069.47.103.704.103.62 0 1.158-.256 1.493-.717.335-.461.47-1.076.319-1.588Z"/><path fill="url(#osmo__a)" d="M24.535 10.11c1.526.426 2.146-.77 1.945-1.572-.218-.802-.922-1.622-2.163-2.544-1.241-.923-2.5-1.298-3.304-1.127-.805.17-1.04 1.417-.839 1.895.084.188.268.461.52.769-.319.222-.62.392-.872.546a9.95 9.95 0 0 1 3.89 3.16c.118-.462.286-.872.437-1.23.117.017.251.051.386.102Z"/><path fill="url(#osmo__b)" d="M15.797 26.845c5.178 0 9.375-4.274 9.375-9.546 0-5.272-4.197-9.546-9.375-9.546-5.177 0-9.374 4.274-9.374 9.546 0 5.272 4.197 9.546 9.374 9.546Z"/><path fill="#A98698" d="M25.708 7.753c-1.274-1.367-2.348-1.725-3.639-2.016-1.006-.239-.738-.82.486-.7-.586-.205-1.14-.256-1.542-.17-.805.17-1.04 1.417-.839 1.895.084.188.268.461.52.769-.453.307-.838.529-1.157.7.15.068.335.153.553.273.57.307 1.191.82 1.191.82-.94-.82-.738-1.196.553-2.118.403-.29 1.14-.256 1.828.103.688.358 1.493 1.263 1.493 1.263l-.771 1.503.15.051c.487.137.873.103 1.174-.017.353-.222 1.275-.973 0-2.356Z" opacity=".6"/><path fill="#5E12A0" d="M22.052 6.557c.336.137.772.376 1.308.735a9.29 9.29 0 0 1 1.543 1.28c-.587.786-.972 1.862-1.207 2.613.117.17.252.342.369.512.117-.426.319-1.058.587-1.69.067.017.15.017.235.017.2 0 .436-.034.62-.188.134-.102.285-.29.268-.632 0-.324-.251-.734-.771-1.23-.369-.358-.872-.75-1.375-1.11-1.442-.973-2.449-1.246-2.901-.785-.302.307-.269.683-.168.956-.537.359-.99.615-1.291.786.2.068.385.154.587.239.536-.29 1.308-.786 2.196-1.503ZM25.222 9a.47.47 0 0 1 .067.222c0 .154-.05.205-.084.24a.588.588 0 0 1-.318.085c.1-.205.218-.376.335-.547ZM21.08 6.455c.05-.052.184-.086.402-.052a9.604 9.604 0 0 1-.503.376c-.017-.12 0-.239.1-.324Z"/><path fill="#5E12A0" d="M15.797 7.189c-5.484 0-9.928 4.526-9.928 10.11s4.444 10.11 9.928 10.11c5.484 0 9.928-4.526 9.928-10.11s-4.46-10.11-9.928-10.11Zm0 19.656c-5.182 0-9.374-4.27-9.374-9.546 0-5.277 4.192-9.546 9.374-9.546s9.375 4.269 9.375 9.546c0 5.277-4.21 9.546-9.375 9.546Z"/><path fill="url(#osmo__c)" d="M15.797 26.845c5.178 0 9.375-4.274 9.375-9.546 0-5.272-4.197-9.546-9.375-9.546-5.177 0-9.374 4.274-9.374 9.546 0 5.272 4.197 9.546 9.374 9.546Z" opacity=".6"/><path fill="#A98698" d="M15.73 25.684c-5.115-.837-8.586-5.738-7.748-10.947a9.536 9.536 0 0 1 3.12-5.687 9.528 9.528 0 0 0-4.562 6.73c-.822 5.209 2.65 10.11 7.748 10.947 2.85.478 5.601-.427 7.63-2.203a9.26 9.26 0 0 1-6.188 1.16Z" opacity=".6"/><path fill="url(#osmo__d)" d="M17.29 7.89a9.217 9.217 0 0 0-6.54 1.365l-.068.069c.721-.444 1.778-.837 1.778-.837-2.717 1.605-3.555 3.432-3.555 3.432 1.056-2.083 4.159-3.552 6.59-3.654 2.432-.103 4.025.632 5.97 2.22 1.946 1.605 3.12 4.884 3.002 7.48-.1 2.596-1.442 4.696-1.442 4.696.923-1.212 1.476-2.1 1.828-3.006.067-.273.134-.546.168-.836.838-5.192-2.616-10.093-7.731-10.93Z" opacity=".6"/><path fill="url(#osmo__e)" d="M24.702 17.213c0 5.004-3.991 9.069-8.905 9.069-4.913 0-8.922-4.065-8.922-9.069h17.827Z"/><path fill="url(#osmo__f)" d="M23.998 17.213c0 4.884-3.79 8.88-8.553 9.069h.352c4.914 0 8.905-4.065 8.905-9.069h-.704Z" opacity=".6"/><path fill="url(#osmo__g)" d="M8.133 17.213H6.875c0 5.004 3.992 9.069 8.905 9.069.219 0 .42 0 .621-.018-4.612-.341-8.268-4.269-8.268-9.05Z" opacity=".7"/><path fill="url(#osmo__h)" d="M24.686 17.299c0-1.042-1.778-1.64-4.143-1.845-1.71-.136-3.438.035-5.416.65-1.711.512-3.254.426-4.378.29-2.498-.29-3.874-.325-3.874.905 0 1.776 3.556 3.996 8.889 3.227 2.7-.392 4.092-1.195 5.685-1.741 1.727-.581 3.236-.564 3.236-1.486Z"/><path fill="#fff" d="M18.715 12.995c.834 0 1.51-.688 1.51-1.537 0-.848-.676-1.537-1.51-1.537-.833 0-1.509.689-1.509 1.537 0 .85.676 1.537 1.51 1.537Zm2.465 1.145a.643.643 0 0 0 .637-.65.643.643 0 0 0-.637-.648.643.643 0 0 0-.637.649c0 .358.285.649.637.649Z"/><path fill="url(#osmo__i)" d="M23.461 10.229h-.033c-.101-.017-.168-.12-.151-.24.15-.785.788-1.536.822-1.57a.186.186 0 0 1 .268-.018.194.194 0 0 1 .017.274c-.017.017-.604.717-.738 1.4a.18.18 0 0 1-.185.154Z" opacity=".6"/><path fill="#fff" d="M15.178 24.42c.26 0 .47-.214.47-.478a.474.474 0 0 0-.47-.478c-.26 0-.47.214-.47.478s.21.478.47.478Z" opacity=".2"/><g opacity=".4"><path fill="url(#osmo__j)" d="M14.909 24.25a.49.49 0 0 1 0-.683c.033-.034.067-.051.1-.086a.347.347 0 0 0-.168.103.49.49 0 0 0 0 .683.476.476 0 0 0 .57.085.463.463 0 0 1-.502-.102Z" opacity=".6"/></g><path fill="#fff" d="M15.345 23.805c.055 0 .1-.046.1-.102a.102.102 0 0 0-.1-.103.102.102 0 0 0-.101.103c0 .056.045.102.1.102Z" opacity=".3"/><path fill="#fff" d="M17.626 24.181c.26 0 .47-.214.47-.478a.474.474 0 0 0-.47-.478c-.259 0-.47.214-.47.478s.211.478.47.478Z" opacity=".2"/><g opacity=".4"><path fill="url(#osmo__k)" d="M17.357 24.01a.49.49 0 0 1 0-.682c.034-.034.067-.052.1-.086a.347.347 0 0 0-.167.103.49.49 0 0 0 0 .683c.15.154.386.188.57.085a.462.462 0 0 1-.503-.102Z" opacity=".6"/></g><path fill="#fff" d="M17.793 23.566a.1.1 0 0 0 .1-.102.102.102 0 0 0-.1-.103c-.056 0-.1.046-.1.103a.1.1 0 0 0 .1.102Z" opacity=".3"/><path fill="#fff" d="M16.418 25.291c.194 0 .352-.16.352-.358a.355.355 0 0 0-.352-.36.355.355 0 0 0-.353.36c0 .198.158.358.353.358Z" opacity=".2"/><g opacity=".4"><path fill="url(#osmo__l)" d="M16.217 25.155a.376.376 0 0 1 0-.512c.016-.018.05-.035.067-.052a.3.3 0 0 0-.118.086.376.376 0 0 0 0 .512c.118.12.285.137.436.051a.36.36 0 0 1-.385-.085Z" opacity=".6"/></g><path fill="#fff" d="M16.535 24.813c.037 0 .067-.03.067-.068a.068.068 0 0 0-.067-.069.068.068 0 0 0-.067.069c0 .037.03.068.067.068Z" opacity=".3"/><path fill="#fff" d="M18.581 25.035c.195 0 .352-.16.352-.359a.355.355 0 0 0-.352-.358.355.355 0 0 0-.352.358c0 .198.158.359.352.359Z" opacity=".2"/><g opacity=".4"><path fill="url(#osmo__m)" d="M18.38 24.899a.376.376 0 0 1 0-.512c.017-.018.05-.035.067-.052a.3.3 0 0 0-.117.086.376.376 0 0 0 0 .512c.117.12.285.137.436.051a.36.36 0 0 1-.386-.085Z" opacity=".6"/></g><path fill="#fff" d="M18.698 24.557c.037 0 .067-.03.067-.069a.068.068 0 0 0-.067-.068.068.068 0 0 0-.067.068c0 .038.03.069.067.069Z" opacity=".3"/><path fill="#fff" d="M13.181 24.25a.779.779 0 0 0 .772-.786.779.779 0 0 0-.772-.786.779.779 0 0 0-.771.786c0 .434.345.785.771.785Z" opacity=".2"/><g opacity=".4"><path fill="url(#osmo__n)" d="M12.745 23.96a.793.793 0 0 1 0-1.11.584.584 0 0 1 .168-.12.899.899 0 0 0-.268.17.794.794 0 0 0 0 1.11.753.753 0 0 0 .939.12.738.738 0 0 1-.838-.17Z" opacity=".6"/></g><path fill="#fff" d="M13.45 23.225a.17.17 0 0 0 .167-.171.17.17 0 0 0-.168-.17.17.17 0 0 0-.167.17c0 .094.075.17.167.17Z" opacity=".3"/><path fill="#fff" d="M20.074 22.32a.779.779 0 0 0 .772-.786.779.779 0 0 0-.772-.785.779.779 0 0 0-.771.785c0 .434.345.786.771.786Z" opacity=".2"/><g opacity=".4"><path fill="url(#osmo__o)" d="M19.62 22.03a.794.794 0 0 1 0-1.11.598.598 0 0 1 .168-.12.907.907 0 0 0-.268.17.794.794 0 0 0 0 1.11.752.752 0 0 0 .94.12.743.743 0 0 1-.84-.17Z" opacity=".6"/></g><path fill="#fff" d="M20.342 21.295a.17.17 0 0 0 .168-.17.17.17 0 0 0-.168-.172.17.17 0 0 0-.168.171c0 .095.075.17.168.17Z" opacity=".3"/></svg>