<svg fill="none" height="32" viewBox="0 0 32 32" width="32" xmlns="http://www.w3.org/2000/svg"><path d="m16 32c8.8366 0 16-7.1634 16-16 0-8.83656-7.1634-16-16-16-8.83656 0-16 7.16344-16 16 0 8.8366 7.16344 16 16 16z" fill="#34455b"/><path d="m16.8658 10.3853 1.8817-2.89763c.4433.0958.9061.03314 1.3079-.17705s.7172-.55461.8913-.97333.1958-.88522.0615-1.31833c-.1344-.43311-.4163-.8054-.7968-1.05209s-.8355-.35216-1.2857-.29805-.8672.26436-1.1784.59418-.497.75832-.5249 1.21092c-.0279.45261.1038.90068.3721 1.26622l-2.357 3.62946c-1.9258.1896-3.7057 1.1104-4.9733 2.5727-1.26759 1.4623-1.92637 3.3548-1.84078 5.2882.0856 1.9333.90906 3.7602 2.30088 5.1048 1.3919 1.3445 3.2462 2.1044 5.1813 2.1231 1.9351.0188 3.8038-.705 5.2214-2.0224 1.4176-1.3173 2.2763-3.128 2.3993-5.0593.1231-1.9313-.4989-3.8362-1.7379-5.3228s-3.0008-2.4416-4.9226-2.6686zm-.8658 11.4897c-.7324-.0001-1.4507-.2013-2.0766-.5817-.6259-.3803-1.1354-.9252-1.4728-1.5752-.3375-.65-.49-1.3802-.441-2.111.049-.7307.2978-1.434.7191-2.0331s.999-1.071 1.6701-1.3643 1.4098-.3967 2.1357-.2989c.7258.0977 1.4109.3929 1.9805.8533s1.0019 1.0683 1.2497 1.7575c-.2822-.3965-.6838-.6924-1.1462-.8444-.4623-.1519-.9612-.152-1.4236-.0002s-.8641.4475-1.1464.844c-.2824.3964-.4305.8728-.4227 1.3594.0077.4866.1709.958.4657 1.3453.2948.3872.7057.67 1.1727.807.467.1371.9656.1211 1.4229-.0455s.8493-.4751 1.1187-.8804c-.2605.8044-.7691 1.5055-1.4529 2.0028-.6837.4973-1.5074.7653-2.3529.7654z" fill="#fff"/></svg>