<svg xmlns="http://www.w3.org/2000/svg" width="32" height="32" fill="none"><path fill="#5F46BA" d="M16 32c8.837 0 16-7.163 16-16S24.837 0 16 0 0 7.163 0 16s7.163 16 16 16Z"/><path fill="#fff" d="M10.443 9.16a1.1 1.1 0 1 1-1.891-1.122 1.1 1.1 0 0 1 1.891 1.122Zm-3.75-.488a.777.777 0 1 1-1.337-.792.777.777 0 0 1 1.337.792Zm10.44 15.9a8.548 8.548 0 1 0-2.126-16.965 7.088 7.088 0 0 0-2.089.524c-.775.38-1.275 1.013-1.275 1.86 0 1.1.892 1.994 1.994 1.994.184 0 .821-.202.973-.254a4.604 4.604 0 0 1 6.114 4.644 4.608 4.608 0 0 1-8.447 2.246v.001c-.92-1.205-.708-3.131-.709-3.156a1.997 1.997 0 0 0-3.922-.451c-.045.167-.068.656-.06.721a8.547 8.547 0 0 0 9.546 8.836ZM9.3 12.21a1.424 1.424 0 1 1-2.446-1.454 1.424 1.424 0 0 1 2.445 1.454"/></svg>