<svg fill="none" height="32" viewBox="0 0 32 32" width="32" xmlns="http://www.w3.org/2000/svg"><path d="m32 16c0 8.8366-7.1634 16-16 16-8.83656 0-16-7.1634-16-16 0-8.83656 7.16344-16 16-16 8.8366 0 16 7.16344 16 16z" fill="#fff"/><g clip-rule="evenodd" fill-rule="evenodd"><path d="m10.6255 7.49705c.4642-.52776.8845-.97734 1.2852-1.35362-6.81208-.2199-4.82808 4.74007-7.04664 9.78317-2.55575 5.8054.30297 8.0191 4.5544 8.7081-.59129-.7037-1.07018-1.5051-1.43669-2.37-2.7561-3.5038-1.64681-9.8809 2.64373-14.76765z" fill="#b3d336"/><path d="m27.0155 13.6786c-.6352 1.7983-1.7983 3.8165-3.4402 5.8054-1.2803 1.5491-2.7072 2.7659-4.1781 3.6504-1.7006 1.1093-3.8068 1.7641-6.167 1.7641-1.3195 0-2.6193-.0733-3.80678-.2688.70368.8356 1.55398 1.5295 2.55088 2.0084 6.1572 3.0005 6.5482-2.5752 13.0621-5.3998 3.6553-1.5881 3.6699-4.6912 1.9791-7.5597z" fill="#1e94d2"/><path d="m19.3922 7.87813c.909.16615 1.769.46912 2.5411.90892 2.0671 1.1777 3.9534 2.98085 5.0773 4.89155 1.1093-3.147.5913-5.62455-1.8325-6.06924-2.6681-.49356-4.7548-.64993-6.7583-2.0573-2.4629-1.73967-4.6277-1.16792-6.5042.59129.1319.00488.2688.00977.4056.01954 2.6046.15149 5.0919.6646 7.071 1.71524z" fill="#ede80a"/><path d="m10.6254 7.49705c-4.29048 4.88675-5.39976 11.26385-2.63877 14.76275-1.24123-2.932-1.15327-6.5873.59129-9.5047 2.32608-3.88488 6.98798-5.58057 10.81428-4.87688-1.984-1.05553-4.4665-1.56375-7.0711-1.72012-.1417-.00978-.2736-.01466-.4056-.01955-.4056.38116-.8258.83074-1.2901 1.3585z" fill="#52b849"/><path d="m21.9333 8.78701c-.7721-.4398-1.6321-.73789-2.541-.90893 2.6095 1.38783 4.3491 3.72372 4.3296 7.44242-.0196 3.2253-1.6713 6.0742-4.3296 7.8139 1.4709-.8845 2.8978-2.1013 4.1781-3.6504 1.6468-1.984 2.805-4.0022 3.4402-5.8054-1.1239-1.9058-3.0053-3.7139-5.0773-4.89159z" fill="#00855e"/><path d="m18.9623 21.3655c-2.9467 1.9107-6.8805 1.0556-8.7814-1.9009-1.90095-2.9565-.9627-6.773 1.896-8.8156 3.191-2.28699 7.291-1.38295 8.7814 1.9009 1.4563 3.2057 1.0556 6.9049-1.896 8.8156zm.43-13.48727c-3.8263-.70369-8.4882.992-10.81426 4.87697-1.74456 2.9173-1.83252 6.5726-.59129 9.5046.3665.8649.8454 1.6712 1.43669 2.37 1.18746.1906 2.48736.2639 3.80676.2639 2.3603 0 4.4664-.6548 6.167-1.7641 2.6584-1.7347 4.3101-4.5837 4.3296-7.8138.0147-3.7139-1.7201-6.04486-4.3345-7.43757z" fill="#0d5229"/></g></svg>