<svg xmlns="http://www.w3.org/2000/svg" width="32" height="32" fill="none"><path fill="#fff" d="M32 16c0 8.837-7.163 16-16 16S0 24.837 0 16 7.163 0 16 0s16 7.163 16 16Z"/><path fill="#B3D336" fill-rule="evenodd" d="M10.626 7.497c.464-.528.884-.977 1.285-1.354-6.812-.22-4.828 4.74-7.047 9.784-2.556 5.805.303 8.019 4.554 8.708a9.335 9.335 0 0 1-1.436-2.37c-2.756-3.504-1.647-9.881 2.644-14.768Z" clip-rule="evenodd"/><path fill="#1E94D2" fill-rule="evenodd" d="M27.015 13.679c-.635 1.798-1.798 3.816-3.44 5.805-1.28 1.55-2.707 2.766-4.178 3.65-1.7 1.11-3.807 1.764-6.167 1.764-1.32 0-2.62-.073-3.807-.268.704.835 1.554 1.53 2.551 2.008 6.157 3 6.549-2.575 13.062-5.4 3.656-1.588 3.67-4.69 1.98-7.56Z" clip-rule="evenodd"/><path fill="#EDE80A" fill-rule="evenodd" d="M19.392 7.878c.91.166 1.77.47 2.541.91 2.067 1.177 3.954 2.98 5.078 4.89 1.109-3.146.59-5.624-1.833-6.069-2.668-.493-4.755-.65-6.758-2.057-2.463-1.74-4.628-1.168-6.504.591.131.005.268.01.405.02 2.605.151 5.092.664 7.071 1.715Z" clip-rule="evenodd"/><path fill="#52B849" fill-rule="evenodd" d="M10.625 7.497c-4.29 4.887-5.4 11.264-2.638 14.763-1.242-2.932-1.154-6.588.59-9.505 2.327-3.885 6.989-5.58 10.815-4.877-1.984-1.055-4.466-1.564-7.07-1.72-.143-.01-.274-.015-.406-.02-.406.382-.826.831-1.29 1.359Z" clip-rule="evenodd"/><path fill="#00855E" fill-rule="evenodd" d="M21.933 8.787a8.17 8.17 0 0 0-2.54-.909c2.609 1.388 4.348 3.724 4.329 7.442-.02 3.226-1.671 6.075-4.33 7.814 1.471-.884 2.898-2.1 4.178-3.65 1.647-1.984 2.805-4.002 3.44-5.805-1.123-1.906-3.005-3.714-5.077-4.892Z" clip-rule="evenodd"/><path fill="#0D5229" fill-rule="evenodd" d="M18.962 21.366c-2.946 1.91-6.88 1.055-8.781-1.901-1.901-2.957-.963-6.773 1.896-8.816 3.19-2.287 7.29-1.383 8.781 1.9 1.457 3.207 1.056 6.906-1.896 8.817Zm.43-13.488c-3.826-.703-8.488.992-10.814 4.877-1.745 2.917-1.832 6.573-.591 9.505a9.25 9.25 0 0 0 1.436 2.37c1.188.19 2.488.264 3.807.264 2.36 0 4.467-.655 6.167-1.764 2.659-1.735 4.31-4.584 4.33-7.814.014-3.714-1.72-6.045-4.335-7.438Z" clip-rule="evenodd"/></svg>