<svg fill="none" height="32" viewBox="0 0 32 32" width="32" xmlns="http://www.w3.org/2000/svg"><g clip-rule="evenodd" fill-rule="evenodd"><path d="m8.95357 4.8128c.608-.6912 1.15843-1.28 1.68323-1.7728-8.92163-.288-6.32323 6.208-9.22883 12.8128-3.3472 7.6032.3968 10.5024 5.9648 11.4048-.7744-.9216-1.4016-1.9712-1.8816-3.104-3.6096-4.5888-2.1568-12.9408 3.4624-19.3408z" fill="#b3d336"/><path d="m30.4192 12.9088c-.832 2.3552-2.3552 4.9984-4.5056 7.6032-1.6768 2.0288-3.5456 3.6224-5.472 4.7808-2.2272 1.4528-4.9856 2.3104-8.0768 2.3104-1.728 0-3.43039-.096-4.98559-.352.9216 1.0944 2.0352 2.0032 3.34079 2.6304 8.064 3.9296 8.576-3.3728 17.1072-7.072 4.7872-2.08 4.8064-6.144 2.592-9.9008z" fill="#1e94d2"/><path d="m20.4352 5.312c1.1904.2176 2.3168.6144 3.328 1.1904 2.7072 1.5424 5.1776 3.904 6.6496 6.4064 1.4528-4.1216.7744-7.3664-2.4-7.9488-3.4944-.6464-6.2272-.8512-8.8512-2.6944-3.2256-2.2784045-6.0608-1.529605-8.5184.7744.1728.0064.352.0128.5312.0256 3.4112.1984 6.6688.8704 9.2608 2.2464z" fill="#ede80a"/><path d="m8.95357 4.8128c-5.6192 6.4-7.072 14.752-3.456 19.3344-1.6256-3.84-1.5104-8.6272.7744-12.448 3.0464-5.088 9.15203-7.3088 14.16323-6.3872-2.5984-1.3824-5.8496-2.048-9.2608-2.2528-.1856-.0128-.3584-.0192-.5312-.0256-.5312.4992-1.08163 1.088-1.68963 1.7792z" fill="#52b849"/><path d="m23.7632 6.5024c-1.0112-.576-2.1376-.9664-3.328-1.1904 3.4176 1.8176 5.696 4.8768 5.6704 9.7472-.0256 4.224-2.1888 7.9552-5.6704 10.2336 1.9264-1.1584 3.7952-2.752 5.472-4.7808 2.1568-2.5984 3.6736-5.2416 4.5056-7.6032-1.472-2.496-3.936-4.864-6.6496-6.4064z" fill="#00855e"/><path d="m19.8721 22.976c-3.8592 2.5024-9.0112 1.3824-11.50083-2.4896-2.4896-3.872-1.2608-8.8704 2.48323-11.54561 4.1792-2.9952 9.5488-1.8112 11.5008 2.48961 1.9072 4.1984 1.3824 9.0432-2.4832 11.5456zm.5632-17.66401c-5.0112-.9216-11.11683 1.2992-14.16323 6.38721-2.2848 3.8208-2.4 8.608-.7744 12.448.48 1.1328 1.1072 2.1888 1.8816 3.104 1.5552.2496 3.25763.3456 4.98563.3456 3.0912 0 5.8496-.8576 8.0768-2.3104 3.4816-2.272 5.6448-6.0032 5.6704-10.2336.0192-4.864-2.2528-7.91681-5.6768-9.74081z" fill="#0d5229"/></g></svg>