<svg xmlns="http://www.w3.org/2000/svg" width="32" height="32" fill="none"><path fill="#EFE812" d="M9.005 4.992c.601-.678 1.145-1.26 1.67-1.747C1.837 2.963 4.41 9.35 1.53 15.846c-3.316 7.482.39 10.33 5.913 11.22a12.066 12.066 0 0 1-1.869-3.053C1.997 19.5 3.437 11.29 9.004 4.992Z"/><path fill="#EDE70A" d="M30.278 12.96c-.825 2.317-2.33 4.915-4.467 7.475-1.664 1.99-3.513 3.565-5.42 4.704-2.209 1.427-4.948 2.272-8.007 2.272-1.715 0-3.398-.096-4.94-.345a10.167 10.167 0 0 0 3.308 2.592c7.994 3.865 8.5-3.316 16.954-6.957 4.755-2.048 4.768-6.048 2.572-9.741Z"/><path fill="#EDE70A" d="M20.39 5.491c1.178.218 2.298.602 3.303 1.171 2.681 1.517 5.126 3.84 6.592 6.304 1.44-4.057.768-7.244-2.381-7.82-3.462-.634-6.17-.839-8.768-2.656C15.93.25 13.12.992 10.688 3.25c.173.007.346.013.525.026 3.373.192 6.605.851 9.177 2.214Z"/><path fill="#DEC21C" d="M9.005 4.992c-5.568 6.291-7.008 14.509-3.43 19.02-1.607-3.775-1.498-8.486.767-12.242 3.021-5.005 9.07-7.188 14.042-6.279-2.573-1.357-5.798-2.016-9.184-2.214-.18-.013-.358-.02-.531-.026a26.633 26.633 0 0 0-1.664 1.741Z"/><path fill="#E5CB22" d="M23.686 6.656c-1.004-.57-2.118-.954-3.302-1.171 3.392 1.792 5.645 4.793 5.62 9.587-.026 4.154-2.17 7.827-5.62 10.06 1.907-1.139 3.757-2.707 5.42-4.703 2.138-2.56 3.642-5.159 4.468-7.475-1.453-2.452-3.898-4.781-6.586-6.298Z"/><path fill="#CCA727" d="M20.39 5.491C15.424 4.582 9.37 6.765 6.35 11.77c-2.266 3.756-2.381 8.467-.768 12.243.473 1.113 1.1 2.15 1.869 3.053 1.542.25 3.225.339 4.94.339 3.06 0 5.799-.845 8.007-2.272 3.45-2.234 5.593-5.907 5.619-10.061.02-4.787-2.24-7.795-5.626-9.58Zm-.556 17.37c-3.828 2.457-8.928 1.363-11.399-2.451-2.47-3.815-1.248-8.724 2.458-11.36 4.147-2.944 9.459-1.786 11.398 2.45 1.888 4.129 1.37 8.903-2.457 11.36Z"/></svg>