<svg fill="none" height="32" viewBox="0 0 32 32" width="32" xmlns="http://www.w3.org/2000/svg"><path d="m9.00479 4.99202c.6016-.6784 1.14561-1.2608 1.67041-1.7472-8.83841-.2816-6.26561 6.1056-9.14561 12.60158-3.3152 7.4816.3904 10.3296 5.9136 11.2192-.768-.9024-1.3888-1.9392-1.8688-3.0528-3.5776-4.512-2.1376-12.7232 3.4304-19.02078z" fill="#efe812"/><path d="m30.2784 12.96c-.8256 2.3168-2.3296 4.9152-4.4672 7.4752-1.664 1.9904-3.5136 3.5648-5.4208 4.704-2.208 1.4272-4.9472 2.272-8.0064 2.272-1.7152 0-3.39842-.096-4.94082-.3456.9088 1.0752 2.0224 1.9648 3.30882 2.592 7.9936 3.8656 8.4992-3.3152 16.9536-6.9568 4.7552-2.048 4.768-6.048 2.5728-9.7408z" fill="#ede70a"/><path d="m20.3904 5.49115c1.1776.2176 2.2976.6016 3.3024 1.1712 2.6816 1.5168 5.1264 3.84005 6.592 6.30405 1.44-4.05765.768-7.24485-2.3808-7.82085-3.4624-.6336-6.1696-.8384-8.768-2.656-3.2064-2.239998-6.016-1.497598-8.448.7616.1728.0064.3456.0128.5248.0256 3.3728.192 6.6048.8512 9.1776 2.2144z" fill="#ede70a"/><path d="m9.00486 4.99202c-5.568 6.29118-7.008 14.50878-3.4304 19.02078-1.6064-3.776-1.4976-8.4864.768-12.2432 3.0208-5.00478 9.06884-7.18718 14.04164-6.27838-2.5728-1.3568-5.7984-2.016-9.184-2.2144-.1792-.0128-.3584-.0192-.5312-.0256-.512.48-1.06244 1.0624-1.66404 1.7408z" fill="#dec21c"/><path d="m23.6864 6.65594c-1.0048-.5696-2.1184-.9536-3.3024-1.1712 3.392 1.792 5.6448 4.79356 5.6192 9.58716-.0256 4.1536-2.1696 7.8272-5.6192 10.0608 1.9072-1.1392 3.7568-2.7072 5.4208-4.704 2.1376-2.56 3.6416-5.1584 4.4672-7.4752-1.4528-2.4512-3.8976-4.78076-6.5856-6.29756z" fill="#e5cb22"/><path d="m20.3903 5.49117c-4.9664-.9088-11.02077 1.2736-14.04157 6.27843-2.2656 3.7568-2.3808 8.4672-.768 12.2432.4736 1.1136 1.1008 2.1504 1.8688 3.0528 1.5424.2496 3.22557.3392 4.94077.3392 3.0592 0 5.7984-.8448 8.0064-2.272 3.4496-2.2336 5.5936-5.9072 5.6192-10.0608.0192-4.7872-2.24-7.79523-5.6256-9.58083zm-.5568 17.36963c-3.8272 2.4576-8.928 1.3632-11.39837-2.4512-2.4704-3.8144-1.248-8.7232 2.45757-11.36003 4.1472-2.944 9.4592-1.7856 11.3984 2.45123 1.888 4.128 1.3696 8.9024-2.4576 11.36z" fill="#cca727"/></svg>