<svg xmlns="http://www.w3.org/2000/svg" width="32" height="32" fill="none"><defs><clipPath id="people__a"><path fill="#fff" d="M0 0h32v32H0z"/></clipPath></defs><g clip-path="url(#people__a)"><path fill="#29150E" d="M8.01 8.202c.481.068.81-.013.62-.55.77-1.084.618 2.384.71-.406.136-1.837-.285-4.195.182-5.72.326.19.413.613.267 1.274.148 1.174.162 2.36.041 3.537l.018.147c.464.055.36-.46.443-.756.004-1.561-.06-3.132.076-4.689a16.03 16.03 0 0 0-2.089.95c.398.304.81.568.484 1.25-.137 1.304.32 2.734-.229 3.974-.327.069-.676.09-.533-.36-1.54-.168-3.547.16-5.155.05a15.8 15.8 0 0 0-.802 1.287c1.989-.002 3.977-.007 5.967.012Z"/><path fill="#6E533A" d="m10.291 5.728.183-.025c.008-1.569-.007-3.138.007-4.705l-.114.041c-.137 1.557-.072 3.128-.076 4.689ZM10.83.87l-.17.062c.067.078.136.155.2.236-.002-.1-.02-.199-.03-.298Z"/><path fill="#362109" d="m10.895 7.194.003.319c.079.693.57 1.514.016 2.047l-.015.13c-.133.481.206.588.629.601.12-.111.233-.23.337-.358a28.035 28.035 0 0 1-.174-6.356l-.007-.295a14.404 14.404 0 0 1-.07-1.924c.013-.255.045-.509.095-.759-.296.083-.59.172-.88.271.011.1.029.198.032.298.023 2.007-.044 4.017.034 6.026Z"/><path fill="#704325" d="M14.868 1.556a1.953 1.953 0 0 0-.54-1.468 15.94 15.94 0 0 0-2.618.511c-.05.25-.083.504-.097.76.585-1.106 2.827-1.026 3.255.197Z"/><path fill="#2C170E" d="M14.869 1.897a5.688 5.688 0 0 1-.137.695 15.357 15.357 0 0 1-.332 2.453 4.9 4.9 0 0 1 .01.715c.114 1.086.944 1.998.632 3.154.004.278.011.558.019.836.427-.041.34-.51.434-.815.7 1.027 1.372 2.615 2.82 2.686a18.492 18.492 0 0 0-.443-.895c-.756-.263-.977-1.1-1.095-1.81-.272-.31-.577-.59-.836-.91-.705-.593.248-1.103.579-1.349-.74-.482-1.65-1.299-1.105-2.375a4.224 4.224 0 0 1 1.726-1.629c.084-.055.251-.17.335-.226a1.68 1.68 0 0 1 1.989-.206c1.41.215 2.08 1.636 2.457 2.855l.229.436c.154.577.218 1.174.188 1.77.076-.408.16-.815.25-1.221.18-.366.527-.269.841-.162a7.705 7.705 0 0 0-1.144-3.777v-.558c0-.09.016-.18.02-.269-.279-.12-.568-.218-.855-.322.04.323.07.647.078.974A9.13 9.13 0 0 0 19.99.52a15.95 15.95 0 0 0-1.65-.331 3.2 3.2 0 0 1-1.17.48c1.181.816-1.257 1.614-.226.439-1.27.568-1.36.325-1.14-1.1-.497.007-.99.029-1.475.08a1.953 1.953 0 0 1 .54 1.467v.341Z"/><path fill="#583925" d="M16.943 1.109c-1.03 1.175 1.407.377.227-.439-.7.522-.916.102-.81-.652C16.24.016 16.122 0 16 0c-.067 0-.131.01-.198.01-.218 1.424-.128 1.667 1.14 1.099Z"/><path fill="#966C4A" d="M17.17.67a3.2 3.2 0 0 0 1.17-.48 16.065 16.065 0 0 0-1.98-.172c-.106.754.11 1.174.81.652Z"/><path fill="#896546" d="M21.53 1.947a9.953 9.953 0 0 0-.08-.974A15.803 15.803 0 0 0 19.99.52a9.135 9.135 0 0 1 1.54 1.426Z"/><path fill="#7B4A27" d="M22.384 1.332c-.027-.011-.051-.025-.078-.037-.005.09-.021.179-.02.269.024-.08.057-.158.098-.232Z"/><path fill="#2F1F12" d="M25.657 6.53c-.293.887-1.518 1.293-2.213 1.897-1.497 1.072-2.733 2.51-4.354 3.44-.134.03-.273.036-.408.015.162 1.042-1.097 1.274-1.693 1.884-.082.516.617 1.099-.008 1.482-2.722 2.135-5.295 4.523-7.888 6.796-.668.979-1.904 1.571-2.18 2.798a27.064 27.064 0 0 1 2.234-1.558c1.695-2.134 4.438-3.314 6.411-5.238.18-1.526 1.901-2.246 2.728-3.412.29-.25.594-.48.883-.73.33-.355.66-.713 1.02-1.037a38.16 38.16 0 0 1 3.245-2.372 22.755 22.755 0 0 1 2.915-1.851c.596-1.507 1.923.253 2.413.992.961 1.338 2.004 2.613 3.03 3.902a15.938 15.938 0 0 0-.532-2.351c-.326-.232-.497-.526-.227-.62-.1-.279-.193-.561-.308-.832A1.01 1.01 0 0 1 29.7 9.34c-.183-.202-.377-.392-.554-.596.077-.367.438-.444.886-.43a16.033 16.033 0 0 0-.694-1.142c-.118.02-.237.032-.354.06-.353.994-.829-.084-1.164-.406a.37.37 0 0 1-.305-.318 75.1 75.1 0 0 0-.11-.57c-.103-.425-.324-.337-.57-.072-.318.386-.405.097-.43-.282a8.914 8.914 0 0 1-.151-1.861c-.164-.137-.338-.261-.507-.391.028 1.063-.095 2.142-.09 3.196Z"/><path fill="#C9B395" d="M10.474 5.703a86.6 86.6 0 0 1-.013 3.419c-1.343.036-2.686.03-4.029.07.972.09 1.945.143 2.92.158-.851.572-2.546-.051-3.638.178v.186A251.9 251.9 0 0 0 10.9 9.69l.015-.13c-.013-.682-.016-1.365-.016-2.047a1.278 1.278 0 0 1-.003-.319c-.078-2.01-.011-4.019-.034-6.026-.065-.08-.134-.157-.2-.236l-.18.066c-.014 1.567 0 3.136-.007 4.705Z"/><path fill="#A77843" d="M14.868 1.897v-.34c-.428-1.224-2.67-1.304-3.255-.199-.02.642.004 1.285.07 1.924.094-.497.138-1.004.19-1.507a4.56 4.56 0 0 1 2.995.122Z"/><path fill="#B28749" d="M22.286 2.122a.947.947 0 0 1 .723-.488c-.208-.102-.413-.209-.625-.302-.04.074-.074.151-.098.232v.558Z"/><path fill="#56381C" d="M27.406 5.939c.005-.382.004-.764.004-1.146-.179-.183-.37-.353-.558-.526-.001.533-.002 1.067-.016 1.6.246-.265.467-.353.57.072Z"/><path fill="#584129" d="M26.473 3.922c-.075-.065-.143-.135-.218-.198a8.913 8.913 0 0 0 .15 1.86c.043-.553.06-1.107.068-1.662Z"/><path fill="#DCC0A2" d="M26.836 5.867c.014-.533.015-1.067.016-1.6-.125-.116-.25-.233-.38-.345-.007.555-.024 1.11-.066 1.663.025.379.112.668.43.282Z"/><path fill="#4B2610" d="M27.82 6.827c.336.322.812 1.4 1.165.405a5.275 5.275 0 0 1-.697-1.474c-.147-.175-.308-.338-.461-.507-.015.527-.036 1.054-.006 1.576Z"/><path fill="#DAB05D" d="M7.787 6.655c.064-.84.05-1.682.085-2.522a64.19 64.19 0 0 1-.058-1.862 16.058 16.058 0 0 0-4.79 4.393c1.588.012 3.175.022 4.763-.009Z"/><path fill="#532E1A" d="M8 6.853c-.143.45.206.429.533.36.549-1.24.092-2.67.229-3.975.326-.681-.086-.945-.484-1.25-.158.089-.308.19-.464.283.012.62.028 1.241.058 1.862.149.899.192 1.812.128 2.72Z"/><path fill="#422817" d="M5.948 9.192h.484c1.343-.04 2.686-.034 4.029-.07.032-1.14.025-2.28.013-3.42l-.183.026c-.084.297.021.811-.444.756a2.45 2.45 0 0 1-.285 1.573c-.11-2.175-.002-4.354-.04-6.531-.467 1.525-.046 3.883-.183 5.72-.091 2.79.06-.678-.709.405.19.538-.139.62-.62.55l-.016.178c.574.002 1.145 0 1.72.017.152.71-.819.269-1.288.322-2.207.098-4.42.073-6.624-.076-.086.164-.162.333-.241.5 1.462-.002 2.925 0 4.387.05Z"/><path fill="#A88C7C" d="M9.789 2.8c.146-.661.059-1.084-.267-1.274.038 2.177-.07 4.356.04 6.531a2.45 2.45 0 0 0 .286-1.573l-.018-.147A15.47 15.47 0 0 1 9.79 2.8Z"/><path fill="#DCC375" d="M15.042 8.914c.312-1.156-.518-2.068-.633-3.154a3.074 3.074 0 0 1-.01-.715c-.2-.83-.082-1.705.332-2.453.06-.228.106-.46.137-.695a4.56 4.56 0 0 0-2.996-.122c-.051.503-.095 1.01-.188 1.507l.007.295c.177 2.114.234 4.236.174 6.356a3.543 3.543 0 0 1-.338.358c-.377.537-1.064.389-1.647.4.387.212.792.39 1.21.532.826-1.812 3.45-.377 3.952-2.309Z"/><path fill="#DFD591" d="M22.286 2.122a7.705 7.705 0 0 1 1.144 3.777c.263.798-.539.642-.841.162.113.437.335.84.645 1.168-.58-.315-.665.102-.642.628a1.007 1.007 0 0 0 .852.57c.695-.604 1.92-1.01 2.213-1.898a11.943 11.943 0 0 1-.106-3.344 15.967 15.967 0 0 0-2.542-1.551.946.946 0 0 0-.723.488Z"/><path fill="#A38067" d="M27.516 6.509c.058-.495.08-.992.1-1.49-.07-.074-.134-.153-.206-.226 0 .382.001.764-.004 1.146.028.143.084.429.11.57Z"/><path fill="#86562F" d="M29.34 7.173c-.325-.49-.676-.963-1.052-1.415a5.26 5.26 0 0 0 .697 1.474c.117-.027.236-.04.355-.06Z"/><path fill="#80614D" d="M19.465 2.221a1.68 1.68 0 0 0-1.989.206c.513-.052 1.023-.101 1.536-.147l.453-.059Z"/><path fill="#847958" d="M25.657 6.53c-.004-1.055.119-2.134.091-3.197l-.197-.148a11.94 11.94 0 0 0 .106 3.344Z"/><path fill="#E8D4B5" d="M16.596 5.602c.684-.408 1.762-.49 1.574.575.1.568.041 1.149.097 1.722.486-.472 2.213-.059 1.186.196-.188.505-.834.682-.798 1.238l.341-.059a1.702 1.702 0 0 1 1.648.035l.164.038c.866-1.023.672-2.637 1.343-3.835l-.23-.436a4.908 4.908 0 0 0-1.786 1.166 1.233 1.233 0 0 1-1.5-.905c-.218-.695 1.23-.623 1.742-.924.903-.436-1.04-1.468-1.365-2.133-.513.046-1.023.095-1.536.147-.084.057-.251.171-.335.226-.714.747-1.394 2.229-.545 2.949Z"/><path fill="#CDA883" d="M20.377 4.413c.494.277.345.383-.183.37.945.636-.659-.021-.531.535 1.762-.81.594 1.032.06.368-.43.226-.77-.07-1.089-.349a1.233 1.233 0 0 0 1.501.905 4.907 4.907 0 0 1 1.787-1.166c-.377-1.219-1.048-2.64-2.457-2.855l-.454.059c.326.665 2.269 1.697 1.366 2.133Z"/><path fill="#8D764B" d="M14.4 5.045a15.38 15.38 0 0 0 .331-2.453 3.408 3.408 0 0 0-.331 2.453Zm.01.715a4.9 4.9 0 0 0-.01-.715 3.08 3.08 0 0 0 .01.715Z"/><path fill="#AD8161" d="M16.596 5.602c-.85-.72-.17-2.202.545-2.949a4.224 4.224 0 0 0-1.726 1.629c.389.623.168 2.143 1.181 1.32Z"/><path fill="#644432" d="M9.83 6.337A15.57 15.57 0 0 0 9.79 2.8a15.47 15.47 0 0 0 .041 3.537Z"/><path fill="#7A5339" d="M27.82 6.827c-.029-.522-.008-1.05.007-1.576-.07-.077-.139-.156-.21-.232-.02.498-.044.995-.1 1.49a.37.37 0 0 0 .304.318Z"/><path fill="#9F7F4A" d="M11.691 3.577a28.035 28.035 0 0 0 .174 6.356c.06-2.12.003-4.242-.174-6.356Z"/><path fill="#906A3F" d="M8 6.853c.064-.908.02-1.821-.128-2.72-.036.84-.02 1.682-.085 2.522-1.588.031-3.175.02-4.763.009-.058.081-.122.158-.179.24 1.608.109 3.616-.22 5.155-.05Z"/><path fill="#573223" d="M16.958 7.069c-.575-.72.745-.526 1.212-.892.188-1.065-.89-.983-1.574-.575-1.013.823-.792-.697-1.18-1.32-.546 1.076.365 1.893 1.104 2.375-.331.246-1.284.756-.58 1.349a.661.661 0 0 1 .235-.54c.261-.135.522-.264.783-.397Z"/><path fill="#5F3A23" d="M19.724 5.686c.533.664 1.7-1.177-.061-.368-.128-.556 1.476.101.531-.535.528.013.677-.093.183-.37-.512.301-1.96.229-1.743.924.319.278.66.575 1.09.349Z"/><path fill="#CDA280" d="m18.448 10.122.434.32c.691-.246 1.958-.13.794.484-.324.259-1.053.451-.587.94 1.621-.929 2.858-2.367 4.355-3.44a1.008 1.008 0 0 1-.852-.569.826.826 0 0 1-.253-.575 5.711 5.711 0 0 0-.189-1.77c-.67 1.198-.476 2.812-1.342 3.835-.781.272-1.591.466-2.36.775Z"/><path fill="#987350" d="M23.43 5.899c-.314-.107-.66-.204-.841.162.303.48 1.104.636.841-.162Z"/><path fill="#B99C7B" d="M17.884 8.017c.097-.03.287-.09.383-.118-.056-.573.003-1.154-.098-1.722-.466.366-1.786.172-1.211.892a4.956 4.956 0 0 1 1.101-.433c-.059.46-.131.918-.175 1.381Z"/><path fill="#A77553" d="M23.234 7.229a2.672 2.672 0 0 1-.645-1.168c-.09.406-.173.813-.25 1.22a.826.826 0 0 0 .253.576c-.022-.526.061-.943.642-.628Z"/><path fill="#EACCAB" d="M18.059 6.636c-.383.1-.753.245-1.101.433-.261.133-.522.262-.783.398.01.847 1.722 2.523 1.653.885.016-.083.042-.251.056-.335.043-.463.116-.922.175-1.38Z"/><path fill="#685239" d="M10.898 7.513c0 .682.003 1.365.016 2.047.554-.533.063-1.354-.016-2.047Zm0 0-.003-.319a1.31 1.31 0 0 0 .003.319Z"/><path fill="#B98369" d="M18.124 10.251c-.155-.445.236-.68.531-.918-.036-.556.61-.733.798-1.238-.611-.225-1.337 1.393-1.625.257.07 1.638-1.643-.038-1.653-.885a.66.66 0 0 0-.234.539c.259.32.564.6.836.91a7.214 7.214 0 0 1 1.095 1.81c.517.287.368-.113.252-.475Z"/><path fill="#623724" d="m18.267 7.899-.383.118c-.014.084-.04.252-.055.335.287 1.136 1.013-.482 1.624-.257 1.027-.255-.7-.668-1.186-.196Z"/><path fill="#584023" d="M26.349 8.644a22.761 22.761 0 0 0-2.915 1.851 2.532 2.532 0 0 1 1.964-.143c.438-.337.84-.718 1.282-1.05.33.283.618.608.86.968.108.117.212.235.313.355.783.287.32-.804.909-.989-.49-.739-1.817-2.499-2.413-.992Z"/><path fill="#7D6647" d="M8.01 8.202c-1.99-.019-3.978-.014-5.967-.012-.036.064-.08.124-.115.189 2.022.002 4.044.006 6.066 0l.016-.177Z"/><path fill="#E7CFB0" d="M8.427 8.718c.468-.053 1.44.389 1.287-.322-.575-.017-1.146-.015-1.72-.017-2.022.006-4.044.002-6.066 0-.04.075-.072.156-.111.232a48.805 48.805 0 0 1 6.61.107Z"/><path fill="#D1B79D" d="M29.147 8.745c.37.013.739.014 1.108.015-.075-.148-.142-.3-.222-.445-.448-.014-.81.063-.886.43Z"/><path fill="#AC9779" d="M8.427 8.718a48.805 48.805 0 0 0-6.61-.107l-.015.031c2.205.149 4.417.174 6.625.076Z"/><path fill="#674E2E" d="m29.701 9.34.833-.001c-.09-.195-.182-.388-.279-.579-.37-.001-.739-.002-1.108-.015.177.204.371.394.554.596Z"/><path fill="#8C6D3D" d="M11.09 11.223c-.296.419-.637.986-.142 1.402.071-.217.145-.434.227-.648a1.368 1.368 0 0 1 .796-.958 13.404 13.404 0 0 0 3.09-1.269 77.722 77.722 0 0 1-.02-.836c-.5 1.932-3.125.497-3.952 2.309Z"/><path fill="#201713" d="M6.912 24.842c.276-1.227 1.513-1.82 2.181-2.798 2.593-2.273 5.166-4.661 7.888-6.796.625-.383-.074-.966.008-1.482.596-.61 1.855-.842 1.693-1.884l-.368-.261c-1.447-.07-2.12-1.66-2.819-2.686-.093.305-.007.774-.434.815-.973.55-2.01.977-3.09 1.269-.178.38-.234.806-.16 1.22a3.37 3.37 0 0 1 1.16 1.302c-.55.105-1.802-.615-1.244-1.187-.29.023-.556-.02-.552-.377-.082.213-.156.43-.227.648.251.335.54.638.863.904l.44.301c.326.208.78.44.614.901-.189.736.69 1.74-.08 2.223-.265.21-.526.425-.802.621-.282.196-.583.366-.867.56a3.89 3.89 0 0 1-.447.455c-.168.162-.39.343-.606.141l-.149-.068c.075 1.05-.623.356-.455-.324-.206-.347-.019-2.488-.32-1.55-.293 1.361.543 3.148-1.103 3.832-.617.514-1.255 1.006-1.89 1.499-.533.43-1.074.85-1.6 1.29a2.79 2.79 0 0 1-.474.281c-.384.216-.8.372-1.2.559a.472.472 0 0 1-.195.605c.49.73 1.04 1.417 1.643 2.056.014-.005.026-.002.04-.008.838-.703 1.707-1.368 2.552-2.061Z"/><path fill="#673A28" d="M17.872 10.726a7.214 7.214 0 0 0-1.095-1.81c.118.71.34 1.547 1.095 1.81Z"/><path fill="#A77B64" d="M18.996 9.274c.549.01 1.098.021 1.648.035a1.701 1.701 0 0 0-1.648-.035Z"/><path fill="#CEB99F" d="M5.949 9.192c-1.463-.05-2.926-.052-4.388-.05-.058.12-.12.239-.174.361.34-.006.68-.008 1.019-.02 1.148-.323 2.373-.083 3.543-.29Z"/><path fill="#ECDEC4" d="M9.352 9.35a40.048 40.048 0 0 1-2.92-.158H5.95c-1.17.208-2.395-.032-3.543.292 1.103.026 2.205.036 3.308.044 1.092-.229 2.787.394 3.638-.178Z"/><path fill="#522113" d="M20.644 9.309c-.55-.014-1.1-.025-1.648-.035-.086.014-.255.044-.34.06-.296.237-.686.472-.532.917l.324-.13c.77-.308 1.579-.502 2.36-.774l-.164-.038Z"/><path fill="#A28452" d="M20.267 14.236c1.22.093 2.06-.846 3.318-.77a3.447 3.447 0 0 1 1.933-.477c-.853-.764.994-.513 1.503-.41-.172-.236-.234-.987-.623-.638-.459.419-.996-.221-.733-.707-.31.122-.61.274-.92.395a15.386 15.386 0 0 1 1.899-1.943c.293.2.478.927.895.584a4.71 4.71 0 0 0-.86-.967c-.441.331-.843.712-1.281 1.05-1.202 1.277-3.105 1.586-4.204 3.036-.499.44-.657-.322-1.006-.522-.36.323-.69.682-1.019 1.038.248.65.793-.233 1.098.331Z"/><path fill="#DBCBA6" d="M30.725 9.735c-.058-.136-.13-.263-.191-.396l-.833.002a1.011 1.011 0 0 0 1.024.394Z"/><path fill="#5F4A34" d="M2.406 9.484c-.34.011-.68.013-1.019.02-.03.067-.067.13-.096.2.398-.005.797-.008 1.197-.014l-.082-.206Z"/><path fill="#958775" d="m2.406 9.484.082.206c1.074.024 2.15.033 3.226.024v-.186a191.19 191.19 0 0 1-3.308-.044Z"/><path fill="#1E1106" d="m9.73 10.665.15.026c.583-.011 1.27.138 1.648-.4-.423-.013-.762-.12-.629-.602-1.73.027-3.458.035-5.185.025-1.076.008-2.151 0-3.226-.024-.4.006-.799.009-1.197.013-.111.258-.2.527-.298.792a71.308 71.308 0 0 1 8.736.17Z"/><path fill="#7A5B2B" d="M26.644 9.686a15.3 15.3 0 0 0-1.9 1.943c.311-.12.61-.273.92-.395-.262.486.275 1.126.734.707.389-.349.452.402.623.638.137.328.277.655.42.983.64-.128-.02-1.274-.056-1.724-1.21-.493.308-.53.468-1.213a9.189 9.189 0 0 0-.314-.355c-.417.343-.602-.384-.895-.584Z"/><path fill="#785E32" d="M28.762 9.636c-.589.185-.126 1.276-.909.989.387.588.14 1.4.741 1.885.497-.091.977-.25 1.473-.352-.27.421-.509.909-.16 1.364a9.7 9.7 0 0 1 .544.739c.43.67.95 1.278 1.546 1.806 0-.023.003-.044.003-.067a16.04 16.04 0 0 0-.209-2.462c-1.025-1.29-2.068-2.564-3.03-3.902Z"/><path fill="#8C5C46" d="M19.676 10.926c-.512.373-1.82-.227-.794-.484l-.434-.32a66.22 66.22 0 0 0-.324.13c.116.361.265.761-.252.474.155.293.303.592.442.895l.368.26c.135.022.274.016.408-.014-.467-.49.262-.682.586-.941Z"/><path fill="#806439" d="M21.194 13.389c1.1-1.45 3.002-1.759 4.204-3.037a2.53 2.53 0 0 0-1.964.143 38.158 38.158 0 0 0-3.245 2.372c.348.2.506.962 1.005.522Z"/><path fill="#5E2B15" d="M18.882 10.442c-1.027.257.282.857.794.484 1.164-.614-.103-.73-.794-.484Z"/><path fill="#877C63" d="M9.73 10.665a71.308 71.308 0 0 0-8.737-.17l-.07.19.559.012c2.749-.046 5.499-.036 8.248-.032Z"/><path fill="#E2CE87" d="m1.482 10.697-.558-.013c-.305.863-.533 1.75-.684 2.652l2.415-.014c.297-1.162.227-2.291-1.173-2.625Z"/><path fill="#E5DEA2" d="M11.09 11.223a7.759 7.759 0 0 1-1.21-.532l-.15-.026c-2.749-.004-5.5-.014-8.248.032 1.4.334 1.47 1.463 1.173 2.625l1.195.171c.226.025.451.048.678.07 1.739-.037 3.478-.018 5.217-.096a1.488 1.488 0 0 1 1.503.196l.247.17c.08.018.24.06.32.081l-.003-.384a5.247 5.247 0 0 1-.863-.905c-.496-.415-.155-.983.14-1.402Z"/><path fill="#A6874F" d="M27.385 11.838c.036.45.695 1.596.055 1.724-.545.596.56.478.78.966a1.485 1.485 0 0 1 1.687-1.006c-.349-.455-.11-.943.16-1.364-.496.103-.976.261-1.473.352-.602-.485-.354-1.297-.74-1.885-.16.684-1.679.72-.47 1.213Z"/><path fill="#CABD9F" d="M31.26 11.187c-.066-.211-.152-.413-.227-.62-.27.094-.1.388.227.62Z"/><path fill="#B99E72" d="M11.175 11.977c-.003.356.261.4.553.377l.084-.116a2.024 2.024 0 0 1 .16-1.219 1.368 1.368 0 0 0-.797.958Z"/><path fill="#7A6350" d="M12.971 13.541a3.385 3.385 0 0 0-1.16-1.303l-.083.116c-.559.572.693 1.292 1.243 1.187Z"/><path fill="#CCAF7A" d="M15.251 23.762c.568.029 1.334-.103 1.254.615.89.034.486-1.699 1.537-1.3.573-.822 1.33-1.492 1.928-2.296.512.448 1.102-.082 1.695.086.482-.265-.661-1.256.082-1.59a5.987 5.987 0 0 0 2.724-2.35c-.4-.977.925-1.565 1.434-2.255.066-1.344 1.666.353 2.314-.144-.219-.488-1.324-.37-.779-.966a65.08 65.08 0 0 1-.419-.983c-.509-.103-2.356-.354-1.503.41a3.448 3.448 0 0 0-1.933.478c.08.537.216 1.064.41 1.571-.342 1.046-1.924 1.326-1.559 2.68.229 1.002-.9.966-1.44 1.36l-.179.162c-.548.507-1.179.916-1.75 1.4-.875.699-1.821 1.305-2.694 2.011.741 1.198-1.485-.203-1.122 1.11Z"/><path fill="#B89D6F" d="M2.655 13.322c-.806.003-1.61.01-2.416.014-.017.105-.032.212-.048.318 1.216-.136 2.447.04 3.658-.16-.299-.044-.895-.13-1.194-.172Z"/><path fill="#917B3D" d="M9.745 13.467c.064.205.13.413.19.622.314-.001.629-.02.943-.045.12-.13.244-.257.37-.381a1.488 1.488 0 0 0-1.503-.196Z"/><path fill="#BEA06F" d="M21.735 17.137c.734.867-.12 1.385-.739 1.941.54-.394 1.669-.358 1.44-1.36-.366-1.354 1.217-1.634 1.558-2.68a7.51 7.51 0 0 1-.41-1.571c-1.256-.077-2.096.862-3.317.77-.55.497-1.131.96-1.74 1.386-.82.588-1.489 1.375-2.358 1.897-.217.316-.133 1.084.372.939.743-.678 1.59-1.545 2.672-1.141-.442-.916.32-.484.816-.907a3.816 3.816 0 0 1 2.47-.796c.084.743-1.407.736-.764 1.522Z"/><path fill="#4F3711" d="M9.745 13.467c-1.556.937-3.526-.018-5.217.097a82.203 82.203 0 0 1-.679-.07c-1.21.2-2.442.024-3.658.16-.021.145-.049.287-.066.434 3.27.009 6.54.01 9.81.002-.06-.21-.125-.418-.19-.623Z"/><path fill="#95844C" d="M9.745 13.467c-1.74.078-3.478.059-5.217.097 1.691-.114 3.66.84 5.217-.097Z"/><path fill="#D2B47C" d="M11.655 15.851c.034.587-.257 1.35.328 1.724.276-.196.537-.411.802-.62a24.892 24.892 0 0 0-.534-3.125c-.146-.1-.291-.2-.44-.3a11.817 11.817 0 0 1-.156 2.322Z"/><path fill="#E5D7A3" d="M28.22 14.528c-.648.497-2.248-1.2-2.315.144-.509.69-1.834 1.278-1.434 2.256a5.986 5.986 0 0 1-2.724 2.348c-.743.335.4 1.326-.082 1.59-.592-.167-1.183.363-1.695-.085-.598.804-1.355 1.474-1.928 2.295a.74.74 0 0 0 .83.581 18.11 18.11 0 0 1 1.126-.886c.964-.881 2.033-1.64 3.075-2.428.125-.124.25-.25.377-.373-.932-1.267 2.463-3.532 2.207-1.279a2.016 2.016 0 0 1 1.894-1.21c1.436-.736 1.603-2.348 2.9-3.22a9.7 9.7 0 0 0-.544-.74 1.485 1.485 0 0 0-1.688 1.007Z"/><path fill="#482D14" d="M11.655 15.851a29.769 29.769 0 0 0-.16-2.019l-.247-.17c-.126.125-.25.252-.37.382.248 1.349.328 2.723.238 4.091.284-.194.585-.364.867-.56-.585-.373-.293-1.137-.328-1.724Z"/><path fill="#8F7142" d="M11.815 13.914c-.08-.02-.24-.063-.32-.082.07.67.136 1.345.16 2.02.107-.64.16-1.289.16-1.938Z"/><path fill="#7E5E35" d="M12.865 14.731c.165-.46-.288-.693-.614-.9.244 1.028.423 2.072.534 3.123.77-.483-.109-1.487.08-2.223Z"/><path fill="#806F43" d="M20.267 14.236c-.305-.564-.85.318-1.098-.331-.29.25-.594.48-.883.73.1.324.18.654.241.988a17.792 17.792 0 0 0 1.74-1.387Z"/><path fill="#E1CBAC" d="m10.46 14.667.06.34c.318 2.366.459-.378.358-.963-.314.024-.629.044-.943.045-3.27.014-6.54.013-9.81-.001-.016.13-.036.258-.048.388 1.117-.002 2.232-.005 3.35.002 2.295.122 4.975-.268 7.034.189Z"/><path fill="#AE9670" d="M10.878 14.044c.101.585-.04 3.33-.358.964-.013.268-.025.539-.036.81.093.921.034 1.856.185 2.772a3.89 3.89 0 0 0 .447-.455c.09-1.368.01-2.742-.238-4.091Z"/><path fill="#D5BB7D" d="M27.55 17.482c.307.093.635.173.858-.122.552-.573.802.419 1.171.703.617.162.752-.897 1.206-1.118-.09.493.476 1.023-.14 1.318-.432.535-1.546 1.994-.378 2.204a.688.688 0 0 1-1.183.543c-.93-.271.798 1.01.36 1.39.131.811.922-.918 1.105-.164.106-.176.23-.34.37-.49a15.928 15.928 0 0 0 1.078-5.679 8.6 8.6 0 0 1-1.545-1.806c-1.298.872-1.465 2.484-2.902 3.22Z"/><path fill="#957F68" d="M3.427 14.478c-1.117-.007-2.233-.004-3.35-.002-.006.063-.004.128-.01.19 1.12 0 2.243.004 3.364-.001l-.004-.187Z"/><path fill="#BFAB93" d="m3.427 14.478.004.187c2.342.01 4.687-.006 7.03.002-2.059-.457-4.739-.067-7.034-.189Z"/><path fill="#2D160E" d="M1.469 16.124a29.728 29.728 0 0 1 6.571.026l.592.092c1.328.112-.33-1.429.918-.854a.791.791 0 0 1 .44.731c.033-.315.162-.473.494-.302l.036-.81-.059-.34c-2.343-.008-4.688.007-7.03-.002-1.121.005-2.243.002-3.364.002C.031 15.107 0 15.55 0 16c.005.92.09 1.838.252 2.743.048-.793.155-1.581.32-2.358.098-.332.622-.153.897-.261Zm6.335-.876c-1.901.196-5.328.462-7.236-.008 2.411.006 4.824-.029 7.236.008Zm-3.732 8.443a7.038 7.038 0 0 0-2.086.026c.123.222.261.433.394.648.159-.058.324-.097.492-.115.4-.187.816-.343 1.2-.559Zm5.921-7.102a5.574 5.574 0 0 0-.079 2.074l.149.068c.223-.313-.014-1.374-.07-2.142Z"/><path fill="#5F4F2F" d="M18.286 14.634c-.827 1.166-2.549 1.886-2.728 3.412.189-.192.393-.368.611-.526.87-.522 1.538-1.308 2.359-1.897a8.79 8.79 0 0 0-.242-.989Z"/><path fill="#5F4747" d="M7.804 15.248c-2.412-.037-4.825-.002-7.236-.008 1.908.47 5.335.204 7.236.008Z"/><path fill="#59331C" d="M8.632 16.242a1.722 1.722 0 0 1-.61.97 67.838 67.838 0 0 0 .014 3.409c1.646-.684.81-2.47 1.103-3.832.301-.938.114 1.203.32 1.55.088-.981.07-1.968.092-2.95-1.248-.576.409.965-.919.853Z"/><path fill="#977861" d="M9.993 16.589a2.753 2.753 0 0 1-.002-.47.791.791 0 0 0-.44-.73c-.022.982-.004 1.97-.092 2.95-.168.68.53 1.373.455.324a5.573 5.573 0 0 1 .079-2.074Z"/><path fill="#664938" d="M9.99 16.12c-.012.156-.011.313.003.469.057.768.293 1.83.07 2.142.217.202.438.021.606-.14-.15-.917-.092-1.852-.185-2.774-.332-.171-.46-.013-.493.302Z"/><path fill="#A88954" d="M21.735 17.137c-.643-.787.848-.779.764-1.522a3.816 3.816 0 0 0-2.47.796c1.304 1.21-1.799 1.242-.854 2.503.435.412 1.553-.512 1.642.326.046-.042.134-.122.18-.162.618-.556 1.472-1.074.738-1.94Z"/><path fill="#725F40" d="M8.04 16.15a29.722 29.722 0 0 0-6.571-.026c2.188.14 4.382.053 6.57.027Z"/><path fill="#E3CF94" d="m8.632 16.242-.592-.092c-2.189.027-4.383.115-6.572-.026-.274.108-.798-.07-.897.26.298.28.614.54.947.776 1.987.217 3.952-.1 5.937.063.189-.002.38-.004.568-.012.308-.244.523-.586.61-.97Z"/><path fill="#512B1A" d="M1.518 17.16a9.03 9.03 0 0 1-.946-.775 16.253 16.253 0 0 0-.32 2.358 15.853 15.853 0 0 0 1.283 4.06c-.035-1.88.014-3.762-.017-5.643Zm2.555 6.531a2.87 2.87 0 0 0 .474-.281c-.905.03-1.81.028-2.716.008.052.1.101.2.155.3a7.038 7.038 0 0 1 2.087-.027Z"/><path fill="#8F703F" d="M7.853 28.973c.364-.032.762-.036.955-.403-.574-.467-1.134.156-1.541-.43-.208-.704.83-.624 1.034-1.163a24.675 24.675 0 0 1 1.81-2.916 2.158 2.158 0 0 0 2.664-1.747c-.417.122-.771.155-.575-.392 1.011.284 2.34.539 3.177-.267.65-1.356 1.177-3.127 2.665-3.731.186.38.762.815.383 1.24-.53.634-.25 1.499.642 1.476.57-.484 1.201-.893 1.75-1.4-.09-.838-1.208.086-1.642-.326-.945-1.26 2.158-1.293.853-2.503-.495.423-1.257-.01-.815.907-1.082-.404-1.93.463-2.672 1.141-.505.145-.589-.623-.372-.939a4.868 4.868 0 0 0-.611.526c-1.973 1.924-4.716 3.105-6.411 5.238 1.57-.64 2.59-2.076 4.038-2.909a3.131 3.131 0 0 1-1.703 1.85c.29.804-1.04.251-1.183.994-.015.415-.663 1.232-.932.608.06.575-.321.9-.805 1.112-1.265.575-1.655 2.027-2.654 2.895.117.633.816.61 1.298.806.11.337-.016.488-.239.562.37.254.755.487 1.147.71a1.043 1.043 0 0 0-.26-.939Z"/><path fill="#E0D091" d="M29.444 22.4c.438-.379-1.29-1.661-.36-1.39a.688.688 0 0 0 1.183-.543c-1.168-.21-.054-1.669.379-2.204.615-.295.05-.825.139-1.318-.454.22-.589 1.28-1.206 1.118-.37-.284-.619-1.276-1.171-.703-.223.295-.55.215-.858.122a2.016 2.016 0 0 0-1.893 1.21 1.254 1.254 0 0 1-2.097 1.357 1.198 1.198 0 0 0 .794.726c.639-.125.959.558.884 1.1.497.677.8 1.557 1.549 2.016.737.412-.808 1.307.07 1.644.556.442-.465.812-.665.263-.426.34-.65 1.021-1.245 1.086.17-.362.303-.74.396-1.128-.709.04-1.412-.493-2.074-.091.525-1.06-2.238-1.32-1.557-.335.526.636-.594.405-.96.422 0 1.088.3 2.174 1.528 1.945 1.45.497-.67 1.676.568 1.836.303-.296.621-.575.954-.838 1.622-.75 2.714-2.983 4.648-2.656.02-.025.038-.053.059-.079-.26-.555-.687-1.111-.261-1.71a1.9 1.9 0 0 1 1.446-.006c.48-.796.89-1.632 1.225-2.499-.14.15-.264.315-.37.491-.183-.754-.974.975-1.105.164Z"/><path fill="#C89A4E" d="M6.147 22.12c-.36-.587-.697-1.611.02-2.025.93.023.59-1.499 1.667-.93.385-1.895-2.792.433-1.952-1.715a8.775 8.775 0 0 0 1.573-.227c-1.985-.162-3.95.154-5.937-.063.031 1.88-.019 3.763.017 5.644.097.206.19.413.296.614.906.02 1.811.023 2.716-.008.525-.44 1.066-.86 1.6-1.29Z"/><path fill="#B28743" d="M8.023 17.211c-.189.008-.38.01-.568.012a8.775 8.775 0 0 1-1.573.227c-.84 2.148 2.337-.18 1.952 1.716-1.078-.57-.737.952-1.666.93-.718.413-.381 1.437-.021 2.024.634-.493 1.272-.985 1.89-1.5a67.838 67.838 0 0 1-.014-3.409Z"/><path fill="#ECE9D2" d="m23.45 19.97.11.08a1.254 1.254 0 0 0 2.097-1.359c.255-2.253-3.139.012-2.207 1.279Z"/><path fill="#A6854F" d="M10.32 25.189c1.116-.29 2.05-1.88 3.211-.966a.892.892 0 0 1 .042-1.282c.66.194.943-.51 1.54-.604.498-.28.81.71 1.26.314.873-.706 1.82-1.312 2.694-2.011-.892.023-1.172-.842-.642-1.476.379-.425-.196-.86-.383-1.24-1.488.604-2.015 2.375-2.665 3.731-.836.806-2.166.55-3.177.267-.196.547.158.514.575.392a2.157 2.157 0 0 1-2.664 1.747 24.669 24.669 0 0 0-1.81 2.916c-.204.54-1.242.46-1.034 1.164.407.585.967-.038 1.54.429.159-.212.323-.442.426-.044.57-.317.95-.886 1.546-1.17.16-.219.324-.434.495-.642-.291-.611-1.398-.577-.954-1.525Z"/><path fill="#A78551" d="M23.072 20.343a1.13 1.13 0 0 0 1.473 1.53c.832.077-.04-.738-.19-1.098a1.198 1.198 0 0 1-.795-.726l-.11-.08-.378.374Z"/><path fill="#624224" d="M7.206 28.64c-.482-.196-1.181-.173-1.297-.806.998-.868 1.388-2.32 2.653-2.895.484-.211.865-.537.806-1.112.268.624.916-.193.931-.608.143-.743 1.473-.19 1.183-.994a3.13 3.13 0 0 0 1.703-1.85c-1.448.833-2.469 2.269-4.038 2.909a27.036 27.036 0 0 0-2.235 1.558c-.845.693-1.714 1.358-2.552 2.06a1.563 1.563 0 0 1 .896.93c.539.495 1.11.953 1.711 1.37.223-.074.348-.225.239-.562Z"/><path fill="#CBA66B" d="M24.545 21.872a1.13 1.13 0 0 1-1.473-1.53c-1.042.79-2.11 1.548-3.074 2.43.116.644.118 1.303.004 1.948.714.469 1.62-.084.607-.604.34-.975 2.478-2.571 2.722-.758.396.766.738-.347.806-.748.56-.044 1.09-.105 1.101-.736.074-.54-.246-1.224-.884-1.099.15.36 1.023 1.175.19 1.097Z"/><path fill="#D8BA79" d="M22.848 29.533c-1.238-.16.882-1.339-.568-1.836-1.229.229-1.528-.857-1.528-1.945.366-.017 1.486.214.96-.422-.681-.985 2.082-.724 1.557.335.662-.402 1.365.131 2.074.091a5.88 5.88 0 0 1-.396 1.128c.594-.065.819-.747 1.245-1.086.2.549 1.221.18.665-.263-.878-.337.667-1.232-.07-1.644-.749-.459-1.052-1.339-1.549-2.017-.011.63-.54.692-1.1.736-.07.401-.41 1.514-.807.748-.243-1.813-2.382-.217-2.721.758 1.013.52.106 1.073-.608.604.33.712-1.002.983-.501 1.648.27.752-.954.46-1.263 1.019-.35.744.51.59.874.266a1.092 1.092 0 0 1-1.33.774c.195.455 0 .55-.437.424-.406.5.29.873.24 1.395-.166.95 1.906.703.868-.122.997.253 1.518-.12.833-.768.653.101 1.03-.556 1.624-.583.494.6-.12.802-.653.627.177 1.263-1.305 1.19-1.617 2.036a6.043 6.043 0 0 1 1.196-.411 1.31 1.31 0 0 1-.452.609c.456-.098.908-.21 1.35-.347.171-.149.333-.31.512-.449.524-.448 1.082-.855 1.602-1.305Z"/><path fill="#BA9A63" d="M16.373 22.651c-.45.397-.762-.594-1.26-.314-.597.093-.88.798-1.54.604a.89.89 0 0 0-.042 1.282c-1.162-.915-2.095.676-3.211.966-.444.948.663.914.954 1.525 1.785-.345 2.124-2.6 3.977-2.952-.363-1.314 1.863.087 1.122-1.11Z"/><path fill="#B08A51" d="M14.678 31.39c.232-.695.486-1.674 1.35-.939a.842.842 0 0 1 .795-1.436 1.76 1.76 0 0 1 1.415-1.628c.309-.558 1.533-.267 1.263-1.02-.501-.664.83-.935.5-1.647a5.536 5.536 0 0 0-.003-1.948c-.385.281-.764.573-1.126.885l-.1.088c.636.537.59 1.308-.353.899.68.642-.255 1.228-.147 1.977-.723-.747-1.398.836-2.21.71-.776-.266-1.08.68-1.695.966.454.24.164.627.025.973.7.271-.777.6-.236.9-.151.564.17 1.117-.05 1.708.456.054.917.081 1.383.096-.125-.426-.303-.813-.811-.584Z"/><path fill="#DDC48B" d="M18.042 23.076c-1.052-.398-.648 1.335-1.537 1.301.08-.718-.686-.586-1.254-.615-1.853.352-2.192 2.607-3.977 2.952-.171.208-.335.423-.495.642-.059.646.19 1.433-.5 1.817.183.302.472.526.81.627a2.702 2.702 0 0 1 1.058-.301c-.044-.179-.11-.385.114-.468 2.21-1.717 4.352-3.51 6.51-5.286l.101-.088a.74.74 0 0 1-.83-.58Z"/><path fill="#96733D" d="M14.156 30.17c-.54-.3.935-.629.236-.9.14-.346.429-.733-.024-.973.615-.285.918-1.232 1.695-.966.811.126 1.486-1.457 2.21-.71-.11-.749.826-1.335.146-1.977.943.41.989-.362.352-.9-2.158 1.778-4.3 3.57-6.51 5.287-.225.083-.158.29-.114.468.137.806.42 1.827 1.35 2.006-.061.087-.13.167-.196.25.267.046.534.091.806.123.22-.591-.102-1.143.05-1.709Z"/><path fill="#EAE4C2" d="M28.247 24.25c-.425.599.001 1.155.262 1.71.431-.545.827-1.119 1.185-1.716a1.9 1.9 0 0 0-1.447.006Z"/><path fill="#D7C6B7" d="M2.872 24.25a2.064 2.064 0 0 0-.492.115c.1.163.192.331.298.49a.472.472 0 0 0 .194-.605Z"/><path fill="#D0AE6F" d="M23.802 28.695a1.309 1.309 0 0 0 .522.95 16.063 16.063 0 0 0 4.125-3.606c-1.934-.327-3.025 1.906-4.647 2.656Z"/><path fill="#E6E1D3" d="M4.36 26.903c-.014.006-.026.003-.04.008.3.32.611.627.936.92a1.564 1.564 0 0 0-.896-.928Z"/><path fill="#C7A973" d="M11.09 29.8a1.43 1.43 0 0 1-.812-.627c.691-.384.442-1.171.501-1.817-.596.284-.977.853-1.547 1.17-.103-.398-.266-.168-.424.044-.193.367-.59.37-.955.403a1.043 1.043 0 0 1 .261.938c.62.353 1.263.663 1.924.929.383-.312.735-.66 1.051-1.04Z"/><path fill="#C9A466" d="M19.836 31.025a6.045 6.045 0 0 0-1.196.411c.313-.846 1.794-.773 1.617-2.036.534.175 1.147-.027.654-.627-.595.027-.972.684-1.625.583.686.648.164 1.021-.833.768 1.038.825-1.034 1.072-.868.122.05-.522-.646-.895-.24-1.395.438.126.632.03.438-.424a1.092 1.092 0 0 0 1.33-.774c-.364.324-1.225.478-.875-.266a1.76 1.76 0 0 0-1.415 1.628.842.842 0 0 0-.794 1.436c-.865-.735-1.118.244-1.35.94.507-.23.685.157.81.583.171.006.339.026.511.026a16.033 16.033 0 0 0 3.384-.366 1.31 1.31 0 0 0 .452-.61Z"/><path fill="#C39D5F" d="M23.802 28.695a12.07 12.07 0 0 0-.954.838c-.52.45-1.078.857-1.602 1.305.173.014.344.04.514.076a15.85 15.85 0 0 0 2.565-1.27 1.31 1.31 0 0 1-.523-.949Z"/><path fill="#7F5E2C" d="M12.147 29.499c-.37.027-.73.13-1.058.301a7.7 7.7 0 0 1-1.05 1.04c1.05.42 2.145.727 3.262.915.066-.083.134-.164.196-.25-.93-.18-1.213-1.2-1.35-2.006Z"/><path fill="#AF8749" d="M20.733 31.287c.35-.108.688-.242 1.026-.373a4.085 4.085 0 0 0-.513-.076c-.18.14-.341.3-.513.449Z"/></g></svg>