<svg fill="none" height="32" viewBox="0 0 32 32" width="32" xmlns="http://www.w3.org/2000/svg" xmlns:xlink="http://www.w3.org/1999/xlink"><clipPath id="a"><path d="m0 0h32v32h-32z"/></clipPath><g clip-path="url(#a)"><path d="m8.00953 8.2019c.48187.06855.81141-.01336.62101-.55047.76947-1.0838.61713 2.38477.70856-.4057.13715-1.83625-.28382-4.19434.18285-5.72.32568.19049.41334.61334.26667 1.27429.14825 1.17361.16229 2.36029.04183 3.53708l.01715.14666c.4648.0553.36-.459.4439-.75616.0031-1.56061-.0614-3.13165.0759-4.68811-.71828.26581-1.41642.58311-2.08901.9494.39789.30383.8092.56775.48351 1.24921-.13714 1.30475.32001 2.73523-.22857 3.97522-.32763.06854-.67621.08954-.53333-.36-1.53912-.16839-3.54675.15943-5.15479.0503-.2874.41479-.5549.8435-.80249 1.28613 1.98884-.00188 3.97743-.00628 5.96681.01215z" fill="#29150e"/><path d="m10.2915 5.7276.1829-.02478c.0071-1.56885-.0076-3.13757.0066-4.704895-.0378.013915-.0758.027345-.1136.041565-.1373 1.55651-.0728 3.12751-.0759 4.68811z" fill="#6e533a"/><path d="m10.8296.870239c-.0569.01947-.1123.04181-.169.06189.0668.078371.1349.155001.2003.235471-.0029-.09991-.0206-.198241-.0313-.297361z" fill="#6e533a"/><path d="m10.8951 7.19427c-.0003.10621.0026.21247.0026.31867.0792.69287.5705 1.5144.0164 2.04706l-.0152.12951c-.1333.48189.2057.58859.6286.60189.1205-.1114.2332-.2311.3371-.35811-.2986-2.10528-.3568-4.23771-.1733-6.35614l-.0076-.29529c-.0664-.63897-.0899-1.28166-.0705-1.92377.0137-.255.0459-.508661.0963-.758999-.297.08258-.5901.17218-.8799.27118.0107.09912.0284.197449.0312.297359.0229 2.0076-.0438 4.01712.0343 6.02664z" fill="#362109"/><path d="m14.8685 1.55615c.0159-.26877-.024-.53791-.1171-.790532-.0931-.252625-.2374-.483274-.4239-.677468-.8854.096619-1.7611.267532-2.6179.51093-.0504.250338-.0826.504-.0963.759.5847-1.10478 2.8266-1.02477 3.2552.19807z" fill="#704325"/><path d="m14.8686 1.89716c-.0312.23435-.077.46653-.1371.69519-.0444.82522-.1553 1.6455-.3317 2.45288.0206.23771.0239.4766.0097.71478.1144 1.08569.9448 1.99805.6324 3.15424.0039.27813.0115.5581.019.83624.4267-.04193.341-.5105.4344-.81525.699 1.02667 1.3714 2.61526 2.819 2.68566-.139-.3029-.2876-.6019-.4419-.8952-.7562-.2629-.9772-1.09905-1.0953-1.8095-.2724-.31049-.5771-.59052-.8362-.91052-.7047-.59235.2476-1.10285.5791-1.34858-.7391-.48187-1.6495-1.299-1.1048-2.37524.4078-.69659 1.0067-1.26174 1.7257-1.62854.0838-.05524.2515-.16956.3353-.22668.2657-.2428.6023-.39384.9604-.43086.358-.03702.7184.04193 1.0282.22522 1.4095.21521 2.08 1.63617 2.4571 2.85522.0572.10858.1715.32575.2286.43622.1549.57635.2185 1.17342.1886 1.76947.0762-.40759.1593-.81459.2495-1.221.181-.36566.5277-.26855.8419-.16186-.0471-1.33709-.4417-2.63886-1.1447-3.77716v-.55811c-.0007-.09021.0158-.17883.0207-.26855-.2792-.11988-.5688-.2182-.856-.322391.0405.323001.0705.647221.079.973821-.4571-.53269-.9741-1.010909-1.5408-1.425181-.5434-.139521-1.0939-.250169-1.649-.33148-.3542.236432-.752.399781-1.1702.48047 1.181.815251-1.2571 1.613341-.2266.438111-1.2691.56806-1.3593.32575-1.1405-1.09863127-.4968.00609997-.9898.02782997-1.4748.07817997.1865.1941943.3308.4248433.4239.6774673s.133.521764.1171.790534z" fill="#2c170e"/><path d="m16.9429 1.10858c-1.0305 1.17523 1.4076.37714.2267-.43811-.6989.5213-.9154.10132-.8094-.65228-.1209-.00269-.2386-.01819-.3601-.01819-.0668 0-.1311.00916-.1977.01-.2188 1.42433-.1286 1.66664 1.1405 1.09858z" fill="#583925"/><path d="m17.1695.670468c.4182-.080688.816-.244037 1.1702-.48047-.6557-.0980614-1.3168-.1554411-1.9795-.1718095-.106.7535995.1105 1.1735815.8093.6522795z" fill="#966c4a"/><path d="m21.5297 1.94666c-.0086-.3266-.0386-.65082-.079-.973816-.4775-.17328-.9648-.323733-1.4619-.45136.5667.414268 1.0837.892486 1.5409 1.425176z" fill="#896546"/><path d="m22.3836 1.3324c-.0262-.01148-.0508-.02588-.0772-.03717-.0049.08972-.0214.17834-.0207.26855.0246-.08029.0574-.15783.0979-.23138z" fill="#7b4a27"/><path d="m25.6571 6.52948c-.2933.88763-1.518 1.29333-2.2133 1.89716-1.4971 1.07238-2.7333 2.51046-4.3542 3.43996-.1337.0308-.2721.036-.4077.0153.1619 1.0419-1.0971 1.2743-1.6933 1.8838-.0819.5162.6171 1.099-.0076 1.4819-2.7219 2.1352-5.2952 4.5238-7.88765 6.7962-.66858.979-1.90478 1.5714-2.181 2.7981.71814-.5565 1.46386-1.0766 2.23432-1.5581 1.69523-2.1334 4.43813-3.3143 6.41143-5.2381.179-1.5257 1.901-2.2457 2.7276-3.4114.2896-.2495.5943-.48.8838-.7296.3295-.3561.6591-.7142 1.019-1.0381 1.0395-.8469 2.1229-1.6385 3.2458-2.3714.9231-.69003 1.8974-1.30896 2.9143-1.8514.5962-1.50665 1.9238.25336 2.4133.99237.9615 1.33793 2.0044 2.61263 3.0295 3.90183-.1174-.7961-.2949-1.5822-.531-2.3514-.3263-.2315-.4972-.5257-.2269-.6198-.1007-.2786-.1933-.561-.3089-.83212-.1904.03986-.3883.02391-.5699-.04593-.1815-.06984-.3391-.19061-.4537-.34781-.1829-.2019-.3772-.39239-.5543-.59619.0768-.36719.4383-.44415.8865-.43011-.2149-.39148-.448-.77118-.6937-1.14185-.1182.02-.2373.03265-.3547.05957-.3524.99426-.8286-.0838-1.1638-.4057-.0783-.01325-.1502-.05134-.2051-.10864s-.0898-.13075-.0997-.20948c-.0267-.14093-.0819-.42663-.1105-.56951-.1028-.42475-.3238-.33716-.5695-.07239-.3181.38666-.4057.09717-.4305-.28192-.1154-.61333-.166-1.23709-.1511-1.861-.1636-.13678-.3373-.26074-.5063-.391.0277 1.06346-.095 2.14228-.0912 3.19676z" fill="#2f1f12"/><path d="m10.4744 5.70282c.0114 1.1391.019 2.28-.0134 3.41907-1.34284.03619-2.68573.03045-4.02857.07049.97144.08948 1.94477.14217 2.92.15808-.85144.57142-2.54664-.05145-3.63807.17713v.1867c1.7276.00953 3.45585.00127 5.18474-.02478l.0152-.12951c-.0131-.68238-.0163-1.36469-.0165-2.04706-.0141-.1057-.015-.21276-.0025-.31867-.0781-2.00952-.0114-4.019-.0343-6.02667-.0654-.0805-.1335-.1571-.2002-.235471-.0602.0213-.1199.0437-.1798.06579-.0142 1.567331.0005 3.136081-.0066 4.704901z" fill="#c9b395"/><path d="m14.8685 1.89716v-.341c-.4286-1.22285-2.6705-1.30286-3.2552-.19807-.0194.64211.0041 1.2848.0704 1.92377.0934-.49713.1372-1.00378.1886-1.50665.9839-.29834 2.0398-.25536 2.9962.12195z" fill="#a77843"/><path d="m22.2857 2.12189c.0725-.13345.1761-.24749.3019-.33248.1259-.085.2703-.13846.4212-.15587-.2078-.10156-.4125-.20843-.6252-.30114-.0405.07355-.0733.15108-.098.23138z" fill="#b28749"/><path d="m27.4057 5.939c.0054-.3816.0047-.76392.0047-1.14637-.1794-.18255-.3706-.35223-.5585-.52606-.0012.53357-.0017 1.067-.0157 1.6.2457-.2647.4667-.35229.5695.07243z" fill="#56381c"/><path d="m26.4726 3.92188c-.0742-.06446-.1427-.13508-.2181-.19819-.0149.62392.0357 1.24767.1511 1.861.0426-.55344.059-1.10801.067-1.66281z" fill="#584129"/><path d="m26.8363 5.86664c.014-.533.0145-1.06647.0157-1.6-.1254-.11609-.2501-.23266-.3792-.34472-.008.5548-.0245 1.10937-.067 1.66284.0248.37905.1124.66854.4305.28188z" fill="#dcc0a2"/><path d="m27.8208 6.82666c.3353.3219.8115 1.4 1.1638.4057-.3072-.45232-.5423-.94965-.6967-1.47418-.1466-.17566-.3074-.33826-.4612-.50739-.015.52704-.0356 1.05432-.0059 1.57587z" fill="#4b2610"/><path d="m7.78664 6.65521c.06476-.84.0495-1.68188.0857-2.52191-.03058-.62085-.04639-1.24176-.05793-1.86261-1.87944 1.1226-3.50949 2.61763-4.79 4.39325 1.58737.0119 3.17483.02216 4.76223-.00873z" fill="#dab05d"/><path d="m8 6.85334c-.14288.44953.20569.42853.53332.36.54859-1.24.09144-2.67047.22858-3.97522.32569-.68146-.08563-.94538-.48352-1.24921-.15881.08771-.30847.189-.46393.2818.01154.62085.02735 1.24176.05793 1.86261.14832.89861.19115 1.81147.12762 2.72002z" fill="#532e1a"/><path d="m5.94843 9.19238h.48382c1.34284-.04 2.68573-.0343 4.02855-.07049.0324-1.139.0248-2.28.0134-3.41907l-.1829.02478c-.0838.29712.021.81146-.44383.75616.08336.54164-.01723 1.0956-.2857 1.57337-.11047-2.17523-.0019-4.35431-.03998-6.53143-.46667 1.52569-.04571 3.88378-.18286 5.72-.09143 2.7905.06091-.6781-.70856.4057.19043.53711-.1391.619-.621.55047l-.01523.17713c.57337.00189 1.14478 0 1.72.01715.15235.71045-.81909.26855-1.28765.3219-2.20797.09828-4.41971.0729-6.62485-.07605-.08515.16388-.16132.33282-.24085.49994 1.46253-.00217 2.92508-.00016 4.38764.05044z" fill="#422817"/><path d="m9.78862 2.8c.14667-.661.059-1.0838-.26666-1.27429.03809 2.17712-.07049 4.3562.04 6.53143.26847-.47776.36906-1.03172.2857-1.57337l-.01717-.14667c-.14916-1.17355-.1632-2.36034-.04187-3.5371z" fill="#a88c7c"/><path d="m15.0418 8.91425c.3123-1.15619-.5181-2.06855-.6324-3.15424-.031-.23708-.0343-.47696-.0097-.71478-.2008-.8303-.0825-1.70573.3316-2.45288.0601-.22866.1059-.46084.1372-.69519-.9564-.37732-2.0123-.42029-2.9962-.12195-.0515.50287-.0953 1.00952-.1886 1.50665l.0076.29529c.1764 2.11381.2342 4.23585.1733 6.35614-.1039.12701-.2166.24671-.3371.35811-.3772.5371-1.0648.3886-1.64762.4.38732.2112.79202.389 1.20952.5315.8267-1.81146 3.4515-.3772 3.9524-2.30865z" fill="#dcc375"/><path d="m22.2856 2.12189c.7031 1.13831 1.0976 2.44007 1.1448 3.77717.2628.79808-.539.6419-.8419.16185.113.43757.3352.83932.6457 1.16767-.5809-.31433-.6647.10284-.6419.62854.078.16237.1982.30084.348.401.1497.10017.3236.15836.5034.16852.6953-.60383 1.92-1.00953 2.2133-1.89716-.1922-1.1043-.228-2.23018-.1063-3.34448-.7971-.5952-1.6481-1.11461-2.5419-1.55146-.1509.01741-.2954.07088-.4212.15587-.1259.085-.2294.19904-.302.33248z" fill="#dfd591"/><path d="m27.5162 6.50854c.0574-.49456.0802-.99182.1003-1.48925-.0702-.07422-.1345-.15375-.206-.22663 0 .38245.0006.76477-.0047 1.14637.0285.14288.0838.42858.1104.56951z" fill="#a38067"/><path d="m29.3396 7.17279c-.3243-.49045-.6754-.9627-1.0515-1.41461.1544.52453.3895 1.02186.6968 1.47418.1174-.02692.2364-.03955.3547-.05957z" fill="#86562f"/><path d="m19.4648 2.22099c-.3097-.18326-.6701-.2622-1.0282-.22517-.358.03704-.6946.18807-.9603.43086.5124-.0514 1.0228-.101 1.5352-.14667.1143-.01525.341-.04387.4533-.05902z" fill="#80614d"/><path d="m25.6572 6.52948c-.0039-1.05444.1188-2.1333.0911-3.19684-.0651-.05017-.1316-.09851-.1975-.14764-.1217 1.11429-.0859 2.24017.1064 3.34448z" fill="#847958"/><path d="m16.5963 5.60186c.6837-.4076 1.7619-.4895 1.5733.57525.101.56763.0419 1.14856.0971 1.72193.4858-.47241 2.2134-.05908 1.1867.19616-.1886.50477-.8343.68189-.7981 1.2381.0857-.01526.2552-.04571.3409-.059.2551-.13431.5401-.20164.8283-.19565s.5701.0851.8194.22989l.1638.03815c.8666-1.02289.6724-2.63623 1.3428-3.83429-.0571-.11047-.1714-.32764-.2286-.43622-.6738.25287-1.2837.65084-1.7866 1.16571-.158.03996-.3223.04821-.4835.02428s-.3161-.07957-.4556-.1637c-.1396-.08413-.2611-.19508-.3575-.32645-.0965-.13137-.1659-.28054-.2044-.43891-.2171-.69519 1.2305-.62281 1.7429-.92377.9028-.43622-1.04-1.46857-1.3657-2.13336-.5124.04571-1.0229.09527-1.5353.14667-.0838.05712-.2514.17144-.3352.22668-.7143.74666-1.3943 2.22856-.5447 2.94853z" fill="#e8d4b5"/><path d="m20.3771 4.41333c.4934.27618.3448.38287-.1829.36951.9448.63617-.659-.02094-.5314.53521 1.7619-.80951.5943 1.03241.061.36762-.4305.22668-.7714-.07044-1.0895-.34857.0384.15836.1079.30754.2043.43891.0964.13136.218.24232.3575.32645.1396.08413.2945.13977.4556.1637.1612.02393.3256.01567.4836-.02428.5028-.51487 1.1128-.91285 1.7866-1.16571-.3771-1.21905-1.0476-2.64-2.4572-2.85522-.1123.0152-.339.04382-.4533.059.3257.66481 2.2686 1.69716 1.3657 2.13338z" fill="#cda883"/><path d="m14.3997 5.04523c.1763-.80738.2872-1.62767.3317-2.45288-.4141.74715-.5325 1.62258-.3317 2.45288z" fill="#8d764b"/><path d="m14.4095 5.76001c.0142-.23818.0109-.47708-.0097-.71478-.0245.23782-.0213.4777.0097.71478z" fill="#8d764b"/><path d="m16.5963 5.60187c-.8496-.72-.1696-2.20191.5447-2.94855-.719.3668-1.3179.93195-1.7257 1.62854.3885.62286.1676 2.14288 1.181 1.32001z" fill="#ad8161"/><path d="m9.83048 6.3371c.12045-1.17679.1064-2.36348-.04187-3.5371-.12133 1.17676-.10728 2.36355.04187 3.5371z" fill="#644432"/><path d="m27.8209 6.82666c-.0297-.52155-.0092-1.04883.0058-1.57587-.0702-.07714-.1387-.15576-.2104-.2315-.02.49743-.0428.99469-.1002 1.48925.0099.07873.0449.15218.0998.20948.0548.0573.1267.09539.205.10864z" fill="#7a5339"/><path d="m11.6914 3.57715c-.1834 2.11843-.1253 4.25085.1734 6.35614.0609-2.12029.003-4.24232-.1734-6.35614z" fill="#9f7f4a"/><path d="m8 6.85333c.06353-.90854.0207-1.8214-.12762-2.72-.0362.84-.02094 1.68195-.0857 2.52191-1.58739.03089-3.17486.02063-4.76227.00873-.05835.081-.12231.15753-.1792.23969 1.60805.1091 3.61568-.21872 5.15479-.05033z" fill="#906a3f"/><path d="m16.9581 7.06855c-.5752-.72.7448-.52569 1.2114-.89142.1886-1.06475-.8895-.98285-1.5733-.57525-1.0133.82287-.7924-.69715-1.181-1.32-.5447 1.07622.3658 1.89336 1.1048 2.37523-.3314.24573-1.2838.75623-.5791 1.34858-.0052-.10185.0132-.20352.0538-.29705.0407-.09352.1025-.17634.1805-.24195.261-.13526.522-.26478.7829-.39814z" fill="#573223"/><path d="m19.7239 5.68567c.5333.66479 1.7009-1.17713-.061-.36762-.1276-.55615 1.4762.101.5314-.53521.5277.01336.6762-.09333.1829-.36951-.5124.301-1.96.22858-1.7429.92377.3182.27813.6591.57525 1.0896.34857z" fill="#5f3a23"/><path d="m18.4475 10.1219c.1447.1067.2895.2133.4343.32.6914-.2457 1.9581-.1295.7943.4838-.3239.259-1.0534.4514-.5867.9409 1.6209-.9295 2.8571-2.36758 4.3543-3.43996-.1799-.01016-.3538-.06836-.5035-.16852s-.2699-.23864-.348-.401c-.157-.15084-.248-.3576-.2533-.57526.03-.59605-.0337-1.19312-.1886-1.76947-.6704 1.19806-.4762 2.8114-1.3428 3.83429-.7809.27232-1.5905.46661-2.36.77522z" fill="#cda280"/><path d="m23.4305 5.89905c-.3142-.10669-.6609-.2038-.8419.16186.3029.48004 1.1048.63623.8419-.16186z" fill="#987350"/><path d="m17.8838 8.01715c.0971-.03052.2876-.08954.3828-.1181-.0552-.57337.0038-1.1543-.0971-1.72193-.4667.36573-1.7867.17145-1.2115.89142.3484-.18757.7181-.33272 1.101-.43237-.059.45904-.1314.91809-.1752 1.38098z" fill="#b99c7b"/><path d="m23.2343 7.22858c-.3105-.32836-.5327-.7301-.6457-1.16767-.0895.40576-.1727.81276-.2495 1.221.0053.21766.0963.42443.2533.57526-.0228-.52575.061-.94292.6419-.62859z" fill="#a77553"/><path d="m18.0589 6.63617c-.383.09964-.7526.2448-1.101.43237-.2609.13336-.5219.26288-.7829.39813.0096.8476 1.722 2.52381 1.6534.88569.0152-.08381.0419-.25141.0552-.33521.0439-.46289.1163-.92194.1753-1.38098z" fill="#eaccab"/><path d="m10.8977 7.51294c.0002.68237.0034 1.36468.0165 2.04706.5541-.53266.0627-1.35419-.0165-2.04706z" fill="#685239"/><path d="m10.8978 7.51294c0-.1062-.0028-.21246-.0026-.31867-.0124.10592-.0116.21298.0026.31867z" fill="#685239"/><path d="m18.1237 10.2514c-.1543-.44567.2362-.68.5314-.91809-.0362-.55621.6096-.73333.7981-1.2381-.6114-.22473-1.3371 1.3924-1.6247.25715.0686 1.63812-1.6438-.03809-1.6534-.88569-.078.06562-.1398.14844-.1805.24196-.0406.09353-.059.1952-.0538.29704.2591.32.5639.6.8363.91052.452.54609.821 1.15581 1.0952 1.80951.5162.2876.3676-.1124.2514-.4743z" fill="#b98369"/><path d="m18.2667 7.89905c-.0952.02856-.2857.08758-.3828.1181-.0134.0838-.04.2514-.0553.33521.2877 1.13525 1.0134-.48188 1.6248-.25715 1.0267-.25521-.701-.66857-1.1867-.19616z" fill="#623724"/><path d="m26.3486 8.64379c-1.0169.54244-1.9911 1.16137-2.9143 1.85141.3012-.1537.6302-.2456.9675-.2701.3373-.0246.676.0187.9963.1273.4381-.3372.84-.71813 1.282-1.04955.3293.28169.6183.60726.859.96755.1085.1163.2133.2344.3143.3544.7828.2875.32-.80389.9086-.98864-.4895-.73901-1.8172-2.49902-2.4134-.99237z" fill="#584023"/><path d="m8.00958 8.20191c-1.98938-.01843-3.978-.014-5.9668-.01214-.03613.06439-.079.12433-.11431.18927 2.02191.00183 4.04394.0058 6.06585 0z" fill="#7d6647"/><path d="m8.42664 8.71808c.46856-.05335 1.44.38855 1.28765-.3219-.5753-.01718-1.14666-.01526-1.72003-.01718-2.02191.0058-4.04394.00183-6.06585 0-.04078.07507-.072.15576-.11152.23157 2.20315-.11359 4.41147-.07767 6.60975.10751z" fill="#e7cfb0"/><path d="m29.1467 8.74475c.3695.01331.7391.01422 1.1087.01569-.0754-.148-.1425-.30054-.2222-.4458-.4482-.01404-.8096.06292-.8865.43011z" fill="#d1b79d"/><path d="m8.42664 8.71808c-2.19829-.18517-4.40661-.22108-6.60975-.10748l-.01513.0314c2.20514.14896 4.41689.17436 6.62488.07608z" fill="#ac9779"/><path d="m29.701 9.34094.833-.00207c-.0894-.19477-.1817-.38794-.2786-.57843-.3696-.00147-.7392-.00238-1.1087-.01569.1772.2038.3714.39425.5543.59619z" fill="#674e2e"/><path d="m11.0895 11.2228c-.2953.4191-.6363.9867-.141 1.402.0705-.2172.1447-.4343.2267-.6477.0474-.2113.1443-.4083.2827-.5749.1384-.1665.3144-.2979.5135-.3832 1.0786-.2924 2.1165-.7185 3.0894-1.26851-.0075-.27814-.0152-.55811-.019-.83624-.5009 1.93145-3.1257.49719-3.9523 2.30855z" fill="#8c6d3d"/><path d="m6.9123 24.8419c.27619-1.2267 1.51239-1.8191 2.181-2.7981 2.5924-2.2724 5.1657-4.661 7.8876-6.7962.6248-.3829-.0742-.9657.0077-1.4819.5962-.6095 1.8552-.8419 1.6933-1.8838-.0915-.0648-.2762-.1962-.3677-.261-1.4476-.0704-2.12-1.659-2.819-2.68567-.0933.30475-.0076.77332-.4343.81525-.9729.55002-2.0108.97612-3.0895 1.26852-.1785.3799-.2344.8059-.16 1.2191.4938.3254.8938.7746 1.16 1.3028-.5505.1047-1.802-.6152-1.2439-1.1867-.2914.0229-.5561-.0209-.5523-.3771-.0819.2133-.1562.4304-.2267.6476.2505.3349.5402.6386.8628.9047.1486.101.2934.2.44.301.3258.2077.7791.44.6134.901-.1885.7353.6895 1.7391-.08 2.2229-.2647.2095-.5257.4247-.8019.6209-.2819.1962-.5829.3657-.8666.56-.1365.1638-.2862.316-.4477.4553-.1676.1619-.3886.3428-.6057.1409l-.14858-.0686c.07434 1.0495-.62281.3562-.4552-.3237-.20575-.3467-.01905-2.4877-.32-1.5505-.29334 1.3619.54284 3.1485-1.10285 3.8323-.61715.5143-1.25523 1.0057-1.88955 1.4991-.53333.4305-1.07428.8495-1.6 1.2895-.14851.1092-.30735.2036-.47424.2819-.38477.2153-.8.3715-1.2.5581.04875.1071.05579.2285.01974.3405-.03604.112-.11258.2065-.21463.2651.49045.7291 1.03994 1.4168 1.64294 2.056.01343-.0048.026-.0025.03956-.0083.83802-.7028 1.70661-1.3676 2.55231-2.0609z" fill="#201713"/><path d="m17.8723 10.7257c-.2742-.6537-.6432-1.26341-1.0952-1.8095.118.71045.3391 1.5466 1.0952 1.8095z" fill="#673a28"/><path d="m18.9961 9.2743c.5486.00952 1.0978.02093 1.6476.03424-.2492-.1448-.5312-.22391-.8194-.2299-.2882-.00598-.5732.06134-.8282.19566z" fill="#a77b64"/><path d="m5.9486 9.19238c-1.46256-.0506-2.92511-.05261-4.38764-.05038-.05749.12079-.11944.23877-.174.36114.3396-.00641.67914-.008 1.01874-.01935 1.14861-.32379 2.3734-.08379 3.5429-.29141z" fill="#ceb99f"/><path d="m9.35242 9.35046c-.97522-.01714-1.94855-.06984-2.92-.15808h-.48381c-1.1695.20762-2.39429-.03238-3.54285.29138 1.10284.02668 2.20569.0362 3.30859.04383 1.09143-.22859 2.78663.39429 3.63807-.17713z" fill="#ecdec4"/><path d="m20.6437 9.30853c-.5504-.0133-1.0997-.02471-1.6476-.03424-.0857.01331-.2552.04376-.341.059-.2952.2381-.6856.47242-.5314.91811.08-.0324.242-.0971.3239-.1295.7695-.30863 1.579-.5029 2.36-.77524z" fill="#522113"/><path d="m20.2666 14.2361c1.2209.0934 2.061-.8457 3.3181-.7694.5833-.3461 1.2558-.5124 1.9333-.4781-.8534-.7639.9943-.5124 1.5028-.4096-.1714-.2362-.2342-.9867-.6228-.6381-.459.4191-.9962-.221-.7334-.7067-.3105.122-.6095.2743-.92.3943.5745-.7023 1.2099-1.3525 1.899-1.94283.2934.2.4781.92763.8953.58473-.2407-.36029-.5297-.68586-.859-.96754-.4419.33142-.8438.71234-1.2819 1.04954-1.2019 1.278-3.1048 1.5866-4.2038 3.0361-.499.44-.6572-.3219-1.0058-.5219-.36.3239-.6895.682-1.019 1.0381.2476.6496.7924-.2323 1.0972.3314z" fill="#a28452"/><path d="m30.7246 9.73468c-.0576-.13525-.1295-.26245-.1907-.39581l-.833.00207c.1147.15719.2722.27796.4538.34781.1816.06984.3795.08579.5699.04593z" fill="#dbcba6"/><path d="m2.4057 9.48376c-.3396.0113-.67914.01294-1.01874.01935-.03021.06787-.06714.13178-.09643.20014.39892-.0047.79742-.00732 1.19708-.01373z" fill="#5f4a34"/><path d="m2.40576 9.48376.08191.20576c1.07428.02478 2.14984.03303 3.22668.02477v-.1867c-1.1029-.00759-2.20575-.01715-3.30859-.04383z" fill="#958775"/><path d="m9.72949 10.6647.15051.0267c.5828-.0114 1.2704.1372 1.6476-.4-.4229-.0133-.7619-.12-.6286-.60192-1.72951.02667-3.45776.03493-5.18471.02478-1.0762.0076-2.15176-.00065-3.22668-.02475-.39966.00641-.79816.009-1.19708.01374-.11066.25811-.20032.52645-.29761.79135 2.91293-.122 5.8306-.0651 8.73657.1701z" fill="#1e1106"/><path d="m26.6439 9.68567c-.6891.59033-1.3246 1.24053-1.899 1.94283.3105-.12.6095-.2723.92-.3943-.2628.4858.2743 1.1258.7333.7067.3886-.3486.4514.4019.6229.6381.1371.3277.2768.6553.419.9829.64-.1276-.019-1.2743-.0552-1.7238-1.2095-.4934.3085-.5296.4686-1.2133-.101-.12-.2057-.2381-.3143-.3544-.4172.3429-.602-.38472-.8953-.58473z" fill="#7a5b2b"/><path d="m28.7618 9.63617c-.5885.18475-.1257 1.27613-.9085.98863.3866.5885.139 1.4.741 1.8856.4971-.0914.9771-.2495 1.4723-.3523-.2704.421-.5085.9085-.16 1.3638.1924.24.3772.4838.5448.739.429.6706.949 1.2784 1.5452 1.8061.0001-.0226.0033-.0444.0033-.067-.0061-.8248-.0759-1.6479-.2086-2.462-1.0251-1.2892-2.068-2.5639-3.0295-3.90183z" fill="#785e32"/><path d="m19.6761 10.9257c-.5123.3733-1.821-.2267-.7943-.4838-.1447-.1067-.2895-.2133-.4342-.32-.0819.0324-.2439.0972-.3239.1295.1162.3619.2648.7619-.2514.4743.1543.2933.3029.5923.4419.8952.0914.0648.2762.1962.3676.261.1356.0207.274.0155.4077-.0153-.4667-.4895.2628-.6819.5866-.9409z" fill="#8c5c46"/><path d="m21.1942 13.3886c1.0991-1.4496 3.0019-1.7582 4.2038-3.0362-.3203-.1086-.6591-.1519-.9964-.1273-.3372.0245-.6662.1164-.9674.2701-1.1228.7329-2.2063 1.5245-3.2457 2.3714.3485.2001.5067.962 1.0057.522z" fill="#806439"/><path d="m18.8818 10.4419c-1.0267.2571.2819.8571.7943.4838 1.1638-.6133-.1029-.7295-.7943-.4838z" fill="#5e2b15"/><path d="m9.72955 10.6647c-2.90597-.2352-5.82364-.2921-8.736566-.1701-.02319.0632-.047.126-.0694.1896.186156.0045.371766.0079.558346.0129 2.7486-.0457 5.49912-.0361 8.24762-.0324z" fill="#877c63"/><path d="m1.48185 10.6971c-.18658-.005-.37219-.0084-.558348-.0129-.304035.8625-.532888 1.7496-.684 2.6516.805478-.004 1.609868-.0105 2.415648-.0139.29722-1.1619.22673-2.2914-1.1733-2.6248z" fill="#e2ce87"/><path d="m11.0896 11.2228c-.4175-.1424-.8222-.3202-1.20954-.5314l-.15051-.0267c-2.74853-.0038-5.499-.0133-8.24762.0324 1.4.3334 1.47052 1.4629 1.17334 2.6248.29907.0419.89527.1276 1.19428.1714.22668.0248.45147.0476.6781.0705 1.73907-.0381 3.47809-.019 5.21716-.0971.24511-.105.51389-.1421.77829-.1076s.5146.1394.7246.3037c.0609.042.1847.1258.2476.1695.08.0191.24.061.32.0819 0-.0971-.002-.2876-.0038-.3847-.3227-.2661-.6124-.5699-.8629-.9047-.4952-.4153-.1543-.9829.141-1.402z" fill="#e5dea2"/><path d="m27.3848 11.8381c.0362.4495.6953 1.5962.0553 1.7238-.5448.5962.56.4781.779.9657.1105-.3444.343-.6367.6537-.8218.3107-.1852.6784-.2506 1.0339-.1839-.3486-.4553-.1105-.9429.16-1.3638-.4953.1028-.9752.2609-1.4724.3523-.6019-.4857-.3543-1.2971-.741-1.8856-.1599.6837-1.678.7199-.4685 1.2133z" fill="#a6874f"/><path d="m31.2603 11.1866c-.0665-.2109-.152-.4127-.2269-.6198-.2703.0942-.0995.3883.2269.6198z" fill="#cabd9f"/><path d="m11.1753 11.9771c-.0037.3562.261.4.5524.3772l.0838-.1162c-.0744-.4131-.0185-.8391.16-1.2191-.1991.0853-.375.2167-.5134.3832-.1384.1666-.2353.3636-.2828.5749z" fill="#b99e72"/><path d="m12.9714 13.541c-.2662-.5282-.6661-.9774-1.16-1.3029l-.0838.1162c-.5581.5714.6934 1.2914 1.2438 1.1867z" fill="#7a6350"/><path d="m15.2514 23.7619c.5677.0286 1.3334-.1028 1.2534.6152.8895.0343.4857-1.699 1.5371-1.301.5734-.8209 1.3295-1.4914 1.9277-2.2952.5123.4477 1.1028-.0819 1.6952.0857.4819-.2648-.661-1.2552.0819-1.5904 1.1272-.4852 2.0781-1.3051 2.7238-2.3486-.4-.9772.9257-1.5657 1.4343-2.2553.0667-1.3447 1.6666.3524 2.3143-.1447-.219-.4876-1.3239-.3695-.779-.9657-.1429-.3277-.2826-.6553-.4191-.9829-.5085-.1028-2.3562-.3543-1.5028.4096-.6775-.0343-1.35.132-1.9333.478.0793.5371.2166 1.064.4094 1.5715-.3409 1.0457-1.9237 1.3256-1.5581 2.68.2286 1.0018-.9009.9657-1.44 1.36-.0457.04-.1333.12-.179.1619-.5485.5066-1.179.9162-1.7504 1.4-.8743.699-1.821 1.3047-2.6933 2.0114.7408 1.1981-1.4858-.2038-1.1221 1.1105z" fill="#ccaf7a"/><path d="m2.65515 13.3219c-.80578.0034-1.61017.0098-2.415652.0138-.01776.1056-.0329.2119-.04858.3182 1.216312-.1364 2.447572.0404 3.658512-.1606-.29901-.0438-.89521-.1295-1.19428-.1714z" fill="#b89d6f"/><path d="m9.74463 13.4667c.06476.2057.12952.4133.19049.6228.31428-.0019.62858-.021.94288-.0457.12-.1296.2438-.2572.3695-.381-.21-.1643-.4602-.2692-.7246-.3037s-.53317.0026-.77827.1076z" fill="#917b3d"/><path d="m21.7353 17.1372c.7333.8666-.12 1.3847-.7391 1.9409.539-.3943 1.6686-.3581 1.44-1.36-.3657-1.3543 1.2171-1.6343 1.5581-2.68-.1929-.5075-.3302-1.0344-.4095-1.5715-1.2571-.0762-2.0972.8629-3.3181.7695-.5502.4981-1.1311.9612-1.7391 1.3867-.8209.5886-1.4895 1.3753-2.3581 1.8971-.2171.3163-.1333 1.0839.3715.9391.7428-.6781 1.5904-1.5448 2.6723-1.141-.4419-.9161.32-.4837.8153-.9066.7051-.5459 1.5792-.8276 2.4704-.7962.0838.7429-1.4075.7353-.7637 1.522z" fill="#bea06f"/><path d="m9.74475 13.4667c-1.55621.9371-3.5257-.0172-5.21716.0971-.22663-.0228-.45142-.0457-.6781-.0704-1.21094.2009-2.4422.0241-3.658514.1605-.0213.1448-.04877.2876-.06622.4337 3.270634.0093 6.540794.0099 9.810484.0019-.06097-.2095-.12573-.4171-.19049-.6228z" fill="#4f3711"/><path d="m9.74475 13.4667c-1.73907.078-3.47809.059-5.21716.0971 1.69146-.1143 3.66095.84 5.21716-.0971z" fill="#95844c"/><path d="m11.6551 15.8514c.0343.5867-.2571 1.3505.3277 1.7238.2762-.1962.5372-.4114.8019-.6209-.1113-1.0516-.2894-2.095-.5334-3.1239-.1466-.1009-.2914-.2-.44-.301.0019.0972.0039.2877.0039.3848-.0001.649-.0536 1.297-.1601 1.9372z" fill="#d2b47c"/><path d="m28.2192 14.5276c-.6477.4971-2.2476-1.2-2.3144.1448-.5085.6895-1.8342 1.278-1.4342 2.2552-.6457 1.0436-1.5966 1.8634-2.7238 2.3486-.7429.3352.4 1.3257-.0819 1.5904-.5924-.1676-1.1829.362-1.6952-.0857-.5982.8038-1.3543 1.4743-1.9277 2.2953.0384.1843.1458.3471.3001.4551.1543.1079.344.1529.5304.1258.3619-.3124.741-.6038 1.1257-.8857.9638-.8819 2.0324-1.64 3.0743-2.4286.1257-.1237.2514-.2495.3771-.3733-.9314-1.2667 2.4629-3.5314 2.2076-1.2781.1599-.3668.4254-.6777.7625-.8931.3372-.2154.7309-.3255 1.1309-.3164 1.4362-.7371 1.6038-2.3486 2.9009-3.221-.1676-.2552-.3523-.499-.5447-.739-.3555-.0667-.7232-.0013-1.0339.1839s-.5432.4774-.6537.8218z" fill="#e5d7a3"/><path d="m11.6553 15.8514c-.0247-.6743-.0895-1.3485-.16-2.0191-.0629-.0437-.1867-.1275-.2476-.1695-.1257.1238-.2495.2515-.3695.381.2475 1.3488.3275 2.723.2381 4.0914.2837-.1943.5847-.3638.8666-.56-.5847-.3733-.2933-1.1371-.3276-1.7238z" fill="#482d14"/><path d="m11.8154 13.9142c-.08-.0209-.24-.0628-.32-.0819.0705.6706.1352 1.3448.16 2.0191.1064-.6402.1599-1.2881.16-1.9372z" fill="#8f7142"/><path d="m12.8648 14.7314c.1657-.4609-.2876-.6933-.6133-.901.2439 1.0289.4221 2.0723.5333 3.1239.7695-.4838-.1085-1.4876.08-2.2229z" fill="#7e5e35"/><path d="m20.2666 14.2362c-.3048-.5638-.8496.3181-1.0972-.3315-.2895.2496-.5942.4801-.8838.7296.0997.3246.1805.6546.2419.9886.6081-.4255 1.1889-.8887 1.7391-1.3867z" fill="#806f43"/><path d="m10.4609 14.6666c.0153.0858.0439.2553.0591.341.318 2.3657.459-.3791.3581-.9638-.3143.0247-.6286.0438-.94286.0457-3.27074.0132-6.5409.0125-9.810476-.0019-.01551.1298-.0355297.2579-.0478597.3887 1.1171857-.0019 2.2325457-.0057 3.3497357.0018 2.29523.1219 4.97524-.2686 7.03426.1885z" fill="#e1cbac"/><path d="m10.8782 14.0438c.101.5847-.04 3.3295-.3581.9638-.0134.2686-.0248.539-.0362.8095.0933.9219.0342 1.8572.1847 2.7734.1615-.1393.3112-.2915.4477-.4553.0894-1.3684.0094-2.7426-.2381-4.0914z" fill="#ae9670"/><path d="m27.5505 17.4819c.3067.0933.6343.1733.8571-.1219.5524-.5734.802.419 1.1715.7029.6171.1618.7524-.8972 1.2057-1.1181-.0895.4933.4762 1.0228-.139 1.318-.4324.5353-1.5466 1.9943-.379 2.2039.0145.1427-.0161.2864-.0873.4109-.0713.1245-.1797.2236-.31.2834-.1304.0599-.2763.0774-.4171.0503-.1409-.0272-.2697-.0978-.3685-.2018-.9295-.2705.7981 1.0114.36 1.3905.1315.8114.922-.9181 1.1048-.1639.1067-.1757.2309-.3403.3707-.491.7024-1.8111 1.0675-3.7355 1.0774-5.6781-.5962-.5276-1.1162-1.1354-1.5452-1.806-1.2972.8723-1.4649 2.4837-2.9011 3.2209z" fill="#d5bb7d"/><path d="m3.4267 14.4781c-1.11719-.0075-2.23255-.0037-3.3497372-.0018-.00592.0627-.00433.1273-.00958.1903 1.1205472.0001 2.2426772.0037 3.3631572-.0019z" fill="#957f68"/><path d="m3.42676 14.4781.00384.1866c2.34284.0096 4.68762-.0056 7.0305.0019-2.05906-.4571-4.73906-.0666-7.03434-.1885z" fill="#bfab93"/><g fill="#2d160e"><path d="m1.46858 16.1238c2.18473-.234 4.38866-.2251 6.57142.0266.14856.0229.44385.0687.5924.0915 1.32758.1123-.32952-1.4286.9181-.8534.13559.067.24914.1715.32718.301.07803.1296.11729.2788.11312.4299.0326-.3155.1616-.4738.493-.3023.0115-.2705.0229-.541.0362-.8095-.0152-.0857-.0438-.2552-.059-.341-2.34288-.0075-4.68766.0077-7.0305-.0019-1.12048.0056-2.24261.002-3.36316.0019-.03645.4407-.06734.8833-.06734 1.3334.00503529.9199.0892124 1.8376.2516 2.743.048835-.7928.155728-1.581.31982-2.3582.09906-.3315.62286-.1524.89716-.261zm6.3352-.8762c-1.90094.1962-5.32757.4628-7.23614-.0076 2.41143.0057 4.82476-.0286 7.23614.0076z"/><path d="m4.07233 23.6914c-.69283-.0951-1.39597-.0864-2.08625.0258.12244.2218.26117.4327.39368.648.15882-.0587.32425-.0975.49256-.1156.40002-.1867.81524-.3429 1.20001-.5582z"/><path d="m9.99266 16.589c-.15577.6803-.18239 1.3838-.07849 2.0739l.14863.0685c.2231-.3131-.0133-1.3743-.07014-2.1424z"/></g><path d="m18.2857 14.6343c-.8267 1.1657-2.5486 1.8857-2.7276 3.4114.1889-.1918.3934-.3677.6114-.5257.8686-.5219 1.5372-1.3085 2.3581-1.8971-.0615-.3339-.1422-.664-.2419-.9886z" fill="#5f4f2f"/><path d="m7.80377 15.2476c-2.41138-.0362-4.82471-.0019-7.236143-.0076 1.908573.4705 5.335203.2038 7.236143.0076z" fill="#5f4747"/><path d="m8.63243 16.2419c-.08663.3832-.30171.7253-.60955.9695-.03235 1.1372-.01142 2.2724.01336 3.4095 1.64569-.6838.80951-2.4705 1.10285-3.8323.301-.9372.11426 1.2038.32 1.5504.08758-.981.07049-1.9676.09143-2.9505-1.24761-.5752.40952.9657-.91809.8534z" fill="#59331c"/><path d="m9.9927 16.589c-.01404-.1562-.0147-.3133-.002-.4695.00417-.1512-.03509-.3004-.11313-.43-.07803-.1295-.19158-.234-.32717-.3009-.02094.9828-.00385 1.9695-.09143 2.9505-.16761.68.52954 1.3733.4552.3238-.1039-.6901-.07726-1.3936.07853-2.0739z" fill="#977861"/><path d="m9.99074 16.1195c-.0127.1562-.01203.3133.002.4695.05686.7681.29326 1.8293.07016 2.1424.2171.2019.438.021.6057-.1409-.1505-.9162-.0914-1.8515-.1848-2.7734-.3314-.1715-.4605-.0132-.49306.3024z" fill="#664938"/><path d="m21.7353 17.1371c-.6438-.7866.8476-.779.7638-1.5219-.8912-.0314-1.7653.2503-2.4705.7962 1.3048 1.2095-1.7981 1.2419-.8533 2.5028.4343.4115 1.5524-.5123 1.6419.3258.0457-.0419.1333-.1219.179-.1619.6191-.5562 1.4724-1.0743.7391-1.941z" fill="#a88954"/><path d="m8.03992 16.1505c-2.18276-.2518-4.38669-.2607-6.57141-.0267 2.18852.141 4.38286.0533 6.57141.0267z" fill="#725f40"/><path d="m8.63226 16.2419c-.14855-.0228-.44384-.0686-.5924-.0915-2.18854.0267-4.38288.1144-6.57141-.0266-.2743.1086-.798101-.0705-.897161.261.297665.2795.613941.5385.946661.7752 1.98669.2172 3.95239-.0991 5.93713.0629.1886-.0019.37909-.0038.56763-.0115.30784-.2441.52292-.5863.60955-.9695z" fill="#e3cf94"/><path d="m1.51819 17.16c-.33272-.2367-.648996-.4957-.946661-.7752-.164091.7772-.270984 1.5654-.31982 2.3582.243136 1.4051.674743 2.771 1.283141 4.0607-.03528-1.881.01426-3.763-.01666-5.6437z" fill="#512b1a"/><path d="m4.07251 23.6914c.16689-.0783.32573-.1727.47424-.2819-.90472.031-1.80975.0288-2.71594.0086.05224.0996.10119.2007.15545.2991.69028-.1122 1.39342-.1209 2.08625-.0258z" fill="#512b1a"/><path d="m7.85325 28.9733c.36383-.0324.7619-.0362.95429-.4038-.57337-.4667-1.13336.1562-1.541-.4286-.20764-.7047.83045-.6247 1.0343-1.1638.53473-1.0129 1.13937-1.9873 1.80946-2.9162.2905.0743.5932.0873.8889.0381s.5779-.1595.8286-.3238c.2508-.1644.4645-.3792.6276-.6307s.2719-.5343.3197-.8302c-.4171.1219-.7714.1543-.5752-.3924 1.0114.2838 2.3409.539 3.1771-.2667.6495-1.3562 1.1771-3.1276 2.6647-3.7314.1868.381.7619.8152.3829 1.24-.5295.6343-.2495 1.499.6419 1.4762.5714-.4838 1.2019-.8934 1.7505-1.4-.0895-.8381-1.2076.0857-1.6419-.3257-.9448-1.261 2.1581-1.2934.8533-2.5028-.4952.4228-1.2571-.0096-.8152.9066-1.0819-.4038-1.9295.4629-2.6724 1.141-.5047.1447-.5885-.6229-.3714-.9391-.218.158-.4225.3339-.6114.5257-1.9733 1.9238-4.7162 3.1048-6.41145 5.2381 1.56955-.64 2.59045-2.0762 4.03805-2.9085-.1406.4092-.3645.7848-.6576 1.1032-.2931.3183-.649.5724-1.0453.7463.2896.8038-1.04.2514-1.1828.9943-.0152.4152-.66285 1.2323-.93141.6076.059.5752-.32189.9009-.80572 1.1124-1.26477.5752-1.65521 2.0266-2.65332 2.8952.11621.6324.81525.6095 1.29712.8057.1095.3367-.01569.4885-.23853.5624.37024.2537.75525.4865 1.147.709.03609-.1658.03121-.3379-.01424-.5013-.04544-.1635-.13007-.3134-.24655-.4368z" fill="#8f703f"/><path d="m29.4439 22.4c.4381-.379-1.2895-1.661-.36-1.3904.0988.104.2276.1745.3685.2017.1408.0272.2866.0096.417-.0502.1304-.0599.2388-.159.3101-.2835.0712-.1245.1017-.2682.0873-.4109-1.1676-.2095-.0534-1.6686.379-2.2038.6152-.2953.0495-.8248.139-1.3181-.4533.221-.5886 1.28-1.2057 1.1181-.3695-.2838-.6191-1.2762-1.1715-.7029-.2228.2952-.5504.2152-.8571.1219-.4-.0091-.7937.1011-1.1309.3165-.3371.2154-.6026.5263-.7625.893.1457.2771.1826.5986.1033.9015-.0792.3028-.2689.5651-.5316.7352-.2628.1702-.5796.2359-.8884.1844-.3088-.0516-.5871-.2167-.7803-.463.0667.1745.1732.331.3111.4569.1379.126.3034.2181.4832.2688.6381-.1257.9581.5581.8838 1.0991.4971.6781.8 1.5581 1.5486 2.0171.7371.4115-.8076 1.3067.0704 1.6438.5562.4419-.4647.8115-.6647.2629-.4267.339-.6514 1.0209-1.2457 1.0857.17-.3614.3028-.7393.3961-1.1276-.7085.04-1.4114-.4934-2.0742-.0915.5257-1.059-2.2381-1.32-1.5563-.3352.5258.6362-.5942.4057-.96.4229 0 1.0876.299 2.1733 1.5276 1.9447 1.4496.4972-.6704 1.6762.5677 1.8362.3031-.2959.6216-.5757.9542-.8381 1.6224-.7504 2.7137-2.9835 4.6477-2.6558.0207-.0255.0386-.0532.059-.0789-.26-.5556-.6868-1.1119-.261-1.711.4626-.1924.9823-.1944 1.4463-.0055.4807-.7955.8908-1.6317 1.2255-2.4988-.1399.1506-.2641.3152-.3707.491-.1829-.7543-.9733.9752-1.1048.1638z" fill="#e0d091"/><path d="m6.14667 22.12c-.36-.5867-.69715-1.6115.02093-2.0248.92951.0229.58856-1.499 1.66669-.9295.38476-1.8952-2.79242.4324-1.95239-1.7162.53021-.0278 1.0568-.1037 1.5733-.2267-1.98474-.1619-3.95044.1543-5.93713-.0628.03094 1.8807-.01862 3.7627.01666 5.6437.097.2058.19055.4135.296.6144.90619.0202 1.81122.0224 2.71594-.0086.52572-.44 1.06667-.859 1.6-1.2895z" fill="#c89a4e"/><path d="m8.02293 17.2114c-.18854.0077-.379.0095-.56763.0114-.5165.123-1.04309.1989-1.5733.2267-.84 2.1486 2.33715-.1791 1.95239 1.7162-1.07813-.5695-.73718.9524-1.66669.9295-.71808.4133-.38092 1.4381-.02093 2.0248.63427-.4934 1.2724-.9848 1.88952-1.4991-.02478-1.1371-.04571-2.2723-.01336-3.4095z" fill="#b28743"/><path d="m23.4496 19.9695.1105.08c.1932.2464.4715.4117.7803.4633.3089.0516.6258-.0141.8886-.1843.2629-.1702.4525-.4326.5317-.7355.0793-.3029.0423-.6245-.1035-.9016.2552-2.2533-3.1391.0114-2.2076 1.2781z" fill="#ece9d2"/><path d="m10.3201 25.1885c1.1162-.2895 2.0495-1.88 3.2114-.9657-.0834-.0859-.1486-.1877-.1918-.2993-.0432-.1117-.0634-.2309-.0595-.3505.0039-.1197.0319-.2373.0823-.3459.0503-.1086.1221-.2059.2109-.2862.6591.1943.9429-.5104 1.5391-.6038.499-.28.8114.7105 1.261.3143.8723-.7066 1.819-1.3124 2.6933-2.0114-.8915.0228-1.1715-.8419-.6419-1.4762.379-.4248-.1962-.8591-.3829-1.24-1.4876.6038-2.0152 2.3752-2.6647 3.7314-.8362.8057-2.1658.5505-3.1772.2667-.1962.5467.1581.5143.5752.3924-.0477.2959-.1566.5787-.3197.8302s-.3768.4663-.6275.6306c-.2507.1644-.5329.2747-.8287.3239-.2957.0492-.5984.0362-.8888-.0381-.67014.9289-1.27476 1.9033-1.80949 2.9162-.20385.5391-1.24194.4591-1.0343 1.1638.4076.5848.96759-.0381 1.541.4286.15808-.2114.3219-.4419.42474-.0438.56952-.3162.95055-.8857 1.54665-1.1695.16-.2191.3238-.4343.4953-.6419-.2915-.6115-1.39822-.5772-.9544-1.5258z" fill="#a6854f"/><path d="m23.0724 20.3428c-.1018.2082-.1372.4427-.1012.6717.036.2289.1415.4413.3022.6082.1607.167.3689.2805.5963.3252.2274.0446.4631.0183.675-.0755.8324.078-.04-.7372-.1905-1.0972-.1798-.0507-.3452-.1427-.4831-.2687s-.2444-.2825-.3111-.457l-.1105-.08c-.1257.1238-.2515.2496-.3771.3733z" fill="#a78551"/><path d="m7.20581 28.64c-.48187-.1962-1.18091-.1733-1.29712-.8057.99811-.8686 1.38855-2.32 2.65332-2.8953.48383-.2114.86475-.5371.80572-1.1124.26856.6248.91617-.1923.93137-.6076.1429-.7428 1.4724-.1905 1.1829-.9943.3962-.1738.7521-.428 1.0452-.7463s.5171-.6939.6577-1.1032c-1.4477.8324-2.4686 2.2686-4.03811 2.9086-.77047.4815-1.51619 1.0015-2.23432 1.5581-.8457.6933-1.71429 1.3581-2.55236 2.0609.20687.0821.39383.2074.54837.3676.15454.1601.2731.3515.34774.5611.53843.4954 1.11011.9534 1.71106 1.3708.22283-.0738.34803-.2256.23853-.5623z" fill="#624224"/><path d="m24.5447 21.8724c-.212.0938-.4476.1201-.675.0755-.2274-.0447-.4356-.1582-.5963-.3252-.1608-.1669-.2663-.3793-.3022-.6082-.036-.229-.0007-.4635.1011-.6717-1.0419.7886-2.1105 1.5467-3.0743 2.4286.1165.6442.1178 1.304.0038 1.9486.7143.4686 1.621-.0838.6076-.6038.3391-.9752 2.4781-2.5714 2.722-.7581.3961.7657.7371-.3467.8057-.7486.56-.0438 1.0895-.1047 1.1009-.7352.0743-.541-.2457-1.2247-.8838-1.0991.1505.36 1.0229 1.1752.1905 1.0972z" fill="#cba66b"/><path d="m22.8476 29.5333c-1.2381-.16.8819-1.339-.5676-1.8362-1.2286.2286-1.5276-.8571-1.5276-1.9447.3657-.0172 1.4857.2133.96-.4229-.6819-.9848 2.0819-.7238 1.5562.3352.6628-.4019 1.3657.1315 2.0743.0915-.0934.3883-.2262.7662-.3962 1.1276.5943-.0648.819-.7467 1.2457-1.0857.2.5486 1.221.179.6647-.2629-.878-.3371.6667-1.2323-.0704-1.6438-.7486-.459-1.0514-1.339-1.5486-2.0171-.0114.6305-.541.6914-1.1009.7352-.0686.4019-.4096 1.5143-.8058.7486-.2438-1.8134-2.3828-.2172-2.7219.758 1.0134.52.1067 1.0724-.6076.6039.3295.7124-1.0019.9828-.501 1.6476.2705.7524-.9543.4609-1.2628 1.0191-.3505.7447.5104.5904.8743.2666-.0749.2782-.2567.5155-.5057.6603-.2489.1448-.5451.1855-.8239.113.1943.4553 0 .5505-.4381.4248-.4057.499.2896.8724.2401 1.3943-.1657.9505 1.9066.7028.8685-.1219.9962.2533 1.5181-.12.8324-.7676.6533.1009 1.0305-.5562 1.6248-.5829.4933.6-.12.8019-.6534.6267.1772 1.2628-1.3047 1.1904-1.6171 2.0362.3832-.1786.7842-.3166 1.1962-.4115-.0874.2433-.2448.4553-.4525.6093.4567-.0984.9085-.2105 1.3498-.347.1716-.1488.3334-.3091.5122-.449.5238-.4476 1.0819-.8552 1.6019-1.3047z" fill="#d8ba79"/><path d="m16.3734 22.6514c-.4496.3962-.762-.5943-1.261-.3143-.5962.0934-.88.7981-1.5391.6038-.0888.0803-.1606.1776-.2109.2862-.0504.1086-.0784.2262-.0823.3459-.0039.1196.0163.2388.0595.3505s.1084.2135.1918.2993c-1.1619-.9143-2.0952.6763-3.2114.9657-.44384.9487.6628.9143.9543 1.5258 1.7847-.3448 2.1238-2.6 3.9771-2.9524-.3638-1.3143 1.8629.0876 1.122-1.1105z" fill="#ba9a63"/><path d="m14.678 31.3904c.2324-.6952.4857-1.6742 1.3505-.939-.1417-.1272-.2361-.2988-.2678-.4866-.0316-.1878.0013-.3808.0935-.5475s.2382-.2972.4141-.3702.3714-.0843.5545-.0319c.0216-.39.1725-.7618.4287-1.0566.2562-.2949.6033-.4961.9865-.5719.3086-.5581 1.5333-.2667 1.2628-1.019-.5009-.6648.8305-.9353.501-1.6477.114-.6446.1127-1.3043-.0037-1.9485-.3848.2819-.7639.5733-1.1258.8857l-.101.0876c.6362.5371.5905 1.3086-.3523.899.68.6419-.2553 1.2286-.1467 1.9771-.7238-.7466-1.3981.8363-2.2095.7105-.7772-.2666-1.08.68-1.6953.9657.4533.24.1638.6267.0248.9734.699.2705-.7772.6-.2362.899-.1515.565.1699 1.1173-.0494 1.7086.4548.0538.9167.0813 1.3824.096-.1253-.426-.3034-.8132-.8111-.5837z" fill="#b08a51"/><path d="m18.0419 23.0762c-1.0514-.3981-.6476 1.3352-1.5371 1.301.08-.7181-.6857-.5867-1.2534-.6153-1.8533.3524-2.1924 2.6076-3.9771 2.9524-.1714.2076-.3352.4229-.4952.6419-.0591.6457.1905 1.4324-.501 1.8172.1837.302.4728.5253.8114.6266.3281-.1717.6879-.2742 1.0572-.301-.0439-.179-.1105-.3847.1142-.4685 2.2096-1.7162 4.3524-3.5086 6.5105-5.2858l.101-.0876c-.1864.0271-.3761-.0179-.5304-.1258-.1543-.108-.2617-.2708-.3001-.4551z" fill="#ddc48b"/><path d="m14.1562 30.1695c-.541-.299.9353-.6285.2362-.899.139-.3467.4286-.7333-.0248-.9733.6153-.2857.9181-1.2324 1.6953-.9657.8114.1257 1.4857-1.4572 2.2095-.7105-.1086-.7486.8267-1.3352.1467-1.9772.9428.4096.9885-.3619.3523-.899-2.158 1.7772-4.301 3.5696-6.5104 5.2858-.2248.0838-.1581.2895-.1143.4685.1371.8057.421 1.8267 1.3505 2.0058-.0616.0866-.1305.1673-.1965.2503.2673.0456.5345.091.8061.123.2193-.5914-.1021-1.1436.0494-1.7087z" fill="#96733d"/><path d="m28.2475 24.2495c-.4258.5991.0009 1.1554.261 1.711.432-.5458.8279-1.1192 1.1852-1.7165-.464-.1888-.9837-.1869-1.4462.0055z" fill="#eae4c2"/><path d="m2.87244 24.2495c-.16831.0182-.33374.057-.49256.1156.10016.1628.1919.3312.29767.49.10206-.0585.1786-.1531.21464-.2651s.029-.2334-.01975-.3405z" fill="#d7c6b7"/><path d="m23.8018 28.6953c.0143.1864.0683.3675.1585.5313.0901.1638.2142.3064.364.4183 1.5714-.9567 2.9667-2.1763 4.1252-3.6055-1.9341-.3277-3.0254 1.9054-4.6477 2.6559z" fill="#d0ae6f"/><path d="m4.35987 26.9028c-.01355.0058-.02613.0036-.03956.0083.29914.32.61103.6268.93567.9204-.07464-.2096-.1932-.4009-.34773-.5611-.15454-.1602-.3415-.2855-.54838-.3676z" fill="#e6e1d3"/><path d="m11.0895 29.8c-.3387-.1013-.6278-.3246-.8115-.6266.6915-.3848.4419-1.1715.501-1.8172-.5962.2838-.97718.8533-1.5467 1.1695-.10284-.3981-.26666-.1676-.42474.0438-.19239.3676-.59046.3714-.95429.4038.11648.1234.20112.2733.24656.4368.04545.1634.05034.3355.01425.5013.61979.3523 1.26254.6625 1.92392.9286.3829-.3123.735-.6606 1.0515-1.04z" fill="#c7a973"/><path d="m19.8363 31.0247c-.412.0949-.8129.2329-1.1962.4115.3124-.8458 1.7943-.7734 1.6172-2.0362.5333.1752 1.1466-.0267.6533-.6267-.5943.0267-.9714.6838-1.6248.5829.6858.6476.1638 1.0209-.8324.7676 1.0381.8247-1.0342 1.0724-.8685.1219.0495-.5219-.6457-.8952-.24-1.3943.4381.1257.6323.0305.4381-.4248.2788.0725.5749.0318.8239-.113s.4307-.3821.5056-.6603c-.3638.3238-1.2247.4781-.8743-.2666-.3832.0758-.7303.277-.9865.5718-.2562.2949-.4071.6667-.4287 1.0567-.1831-.0524-.3786-.0412-.5545.0319-.1759.073-.3219.2035-.4141.3702s-.1251.3597-.0935.5475c.0317.1878.1261.3594.2678.4866-.8648-.7352-1.1181.2438-1.3505.939.5077-.2295.6858.1577.811.5838.1712.0054.3384.0258.5109.0258 1.1377-.0016 2.272-.1243 3.3837-.366.2077-.154.3651-.366.4525-.6093z" fill="#c9a466"/><path d="m23.802 28.6953c-.3326.2624-.6511.5421-.9543.838-.52.4496-1.0781.8571-1.6019 1.3048.1727.0144.3443.0398.5138.076.8914-.3452 1.7499-.7699 2.565-1.2692-.1498-.1119-.274-.2545-.3641-.4183s-.1442-.3449-.1585-.5313z" fill="#c39d5f"/><path d="m12.1467 29.499c-.3693.0268-.7291.1293-1.0572.301-.3164.3794-.6685.7277-1.0514 1.04 1.0518.4206 2.1455.7274 3.2626.9152.066-.083.1348-.1638.1964-.2504-.9295-.1791-1.2133-1.2001-1.3504-2.0058z" fill="#7f5e2c"/><path d="m20.7334 31.287c.3496-.1082.6871-.2419 1.026-.3729-.1695-.0362-.3411-.0616-.5138-.076-.1788.1398-.3406.3001-.5122.4489z" fill="#af8749"/></g></svg>