<svg xmlns="http://www.w3.org/2000/svg" width="32" height="32" fill="none"><defs><linearGradient id="perlold__b" x1="1.11" x2="30.927" y1="10.617" y2="21.469" gradientUnits="userSpaceOnUse"><stop stop-color="#E82760"/><stop offset=".5" stop-color="#B002BA"/><stop offset=".7" stop-color="#4682F4"/><stop offset="1" stop-color="#5CB5D7"/></linearGradient><clipPath id="perlold__a"><path fill="#fff" d="M0 0h32v32H0z"/></clipPath></defs><g clip-path="url(#perlold__a)"><path fill="url(#perlold__b)" d="M13.353.268c3.852-.711 7.83.07 11.128 2.185a16.09 16.09 0 0 1 7.094 10.361c.78 4.095-.01 8.332-2.213 11.871a16.091 16.091 0 0 1-10.725 7.146 16.796 16.796 0 0 1-8.36-.827A15.85 15.85 0 0 1 .615 19.9 16.058 16.058 0 0 1 13.353.268Zm-2.788 2.001a14.935 14.935 0 0 0-9.003 11.044 15.215 15.215 0 0 0 1.482 9.719 15.32 15.32 0 0 0 8.02 7.021c-.188-1.541-.679-3.263.3-4.649.906-1.662 2.884-2.089 4.621-2.165a10.861 10.861 0 0 0 9.543-7.677 11.058 11.058 0 0 0-4.067-12.13 11.344 11.344 0 0 0-10.896-1.163Zm12.598.727a24.067 24.067 0 0 1 2.54 3.383 12.315 12.315 0 0 1 .567 10.777 12.058 12.058 0 0 1-9.873 7.314c-1.159.175-2.529.024-3.411.95a3.175 3.175 0 0 0 .599 5.033 8.46 8.46 0 0 0 5.008.228 14.827 14.827 0 0 0 10.849-8.309 14.972 14.972 0 0 0 .236-12.034 15.742 15.742 0 0 0-6.515-7.342Z"/><path fill="#2F2F2F" d="M10.565 2.27a11.344 11.344 0 0 1 10.897 1.16 11.058 11.058 0 0 1 4.066 12.131 10.861 10.861 0 0 1-9.543 7.677c-1.737.076-3.714.503-4.621 2.165-.979 1.386-.487 3.108-.3 4.65a15.32 15.32 0 0 1-8.02-7.023 15.214 15.214 0 0 1-1.482-9.718A14.935 14.935 0 0 1 10.565 2.27Z"/><path fill="#000" d="M23.163 2.996a15.742 15.742 0 0 1 6.515 7.341 14.973 14.973 0 0 1-.236 12.035 14.826 14.826 0 0 1-10.849 8.309 8.458 8.458 0 0 1-5.008-.228 3.176 3.176 0 0 1-.6-5.033c.883-.927 2.253-.775 3.412-.95a12.058 12.058 0 0 0 9.873-7.314 12.314 12.314 0 0 0-.567-10.777 24.068 24.068 0 0 0-2.54-3.383Z"/></g></svg>