<svg xmlns="http://www.w3.org/2000/svg" width="32" height="32" fill="none"><path fill="#141E3B" d="M16 32c8.837 0 16-7.163 16-16S24.837 0 16 0 0 7.163 0 16s7.163 16 16 16Z"/><path fill="#3CEAAA" fill-rule="evenodd" d="M12.281 7.375a1.695 1.695 0 0 1 2.398 0l5.545 5.545-2.248 2.248-4.496-4.496-4.495 4.496 2.247 2.248 2.248-2.248 2.248 2.248-2.248 2.248 3.372 3.371a1.59 1.59 0 0 1-2.248 2.248l-8.916-8.916a1.695 1.695 0 0 1 0-2.398l6.593-6.594Z" clip-rule="evenodd"/><path fill="#03BCE4" fill-rule="evenodd" d="M16.777 7.375a1.695 1.695 0 0 1 2.398 0l6.593 6.594a1.695 1.695 0 0 1 0 2.398l-8.841 8.841a1.695 1.695 0 0 1-2.398 0L13.48 24.16l4.496-4.495-4.496-4.496 2.248-2.248 4.496 4.496 2.247-2.248-6.743-6.744 1.049-1.049Z" clip-rule="evenodd"/><path fill="#029ABB" d="m15.728 12.92-2.248-2.248-2.248 2.248 2.248 2.248 2.248-2.248Z"/><path fill="#3CEAAA" d="m20.224 12.92-2.248-2.248-2.248 2.248 2.248 2.248 2.248-2.248Z" opacity=".95"/></svg>