<svg width="32" height="32" fill="none" xmlns="http://www.w3.org/2000/svg"><path d="M16 32c8.837 0 16-7.163 16-16S24.837 0 16 0 0 7.163 0 16s7.163 16 16 16Z" fill="#fff"/><path d="m14.083 15.052-.56-1.034L4 7.382l.948 2.586 9.135 5.084Z" fill="url(#a)"/><path d="M14.384 15.57 5.207 10.7l.732 1.982 9.005 3.921-.56-1.034Z" fill="url(#b)"/><path d="m16.022 19.102.474 5.085-.474.43-.517-.43.474-5.085h.043Z" fill="url(#c)"/><path d="m15.806 18.154-.775 5.602-.69-.603 1.164-5.042-8.833-3.447-.474-1.335 9.048 3.791.56 1.034Z" fill="url(#d)"/><path d="m17.918 15.052.56-1.034L28 7.382l-.948 2.586-9.134 5.084Z" fill="url(#e)"/><path d="m17.616 15.57 9.178-4.87-.733 1.982-9.005 3.921.56-1.034Z" fill="url(#f)"/><path d="m15.978 19.102-.474 5.085.518.43.474-.43-.474-5.085h-.044Z" fill="url(#g)"/><path d="m16.194 18.154.775 5.602.69-.603-1.163-5.042 8.832-3.447.474-1.335-9.048 3.791-.56 1.034Z" fill="url(#h)"/><path d="m16.539 14.88-.517 1.206-.56-1.206-.474.56 1.034 2.24.99-2.24-.473-.56Z" fill="url(#i)"/><path d="m16.495 14.233-.474.905-.517-.905.518-.474.474.474Z" fill="url(#j)"/><defs><linearGradient id="a" x1="9.041" y1="18.595" x2="9.041" y2="8.685" gradientUnits="userSpaceOnUse"><stop stop-color="#E6000F"/><stop offset="1" stop-color="#FF6400"/></linearGradient><linearGradient id="b" x1="103.32" y1="89.831" x2="103.32" y2="148.328" gradientUnits="userSpaceOnUse"><stop stop-color="#E6000F"/><stop offset="1" stop-color="#FF6400"/></linearGradient><linearGradient id="c" x1="31.362" y1="93.034" x2="31.362" y2="147.689" gradientUnits="userSpaceOnUse"><stop stop-color="#E6000F"/><stop offset="1" stop-color="#FF6400"/></linearGradient><linearGradient id="d" x1="111.91" y1="153.106" x2="111.91" y2="256.437" gradientUnits="userSpaceOnUse"><stop stop-color="#E6000F"/><stop offset="1" stop-color="#FF6400"/></linearGradient><linearGradient id="e" x1="249.401" y1="110.194" x2="249.401" y2="186.199" gradientUnits="userSpaceOnUse"><stop stop-color="#E6000F"/><stop offset="1" stop-color="#FF6400"/></linearGradient><linearGradient id="f" x1="230.556" y1="89.831" x2="230.556" y2="148.328" gradientUnits="userSpaceOnUse"><stop stop-color="#E6000F"/><stop offset="1" stop-color="#FF6400"/></linearGradient><linearGradient id="g" x1="31.361" y1="93.034" x2="31.361" y2="147.689" gradientUnits="userSpaceOnUse"><stop stop-color="#E6000F"/><stop offset="1" stop-color="#FF6400"/></linearGradient><linearGradient id="h" x1="217.959" y1="153.106" x2="217.959" y2="256.437" gradientUnits="userSpaceOnUse"><stop stop-color="#E6000F"/><stop offset="1" stop-color="#FF6400"/></linearGradient><linearGradient id="i" x1="47.389" y1="52.423" x2="47.389" y2="80.178" gradientUnits="userSpaceOnUse"><stop stop-color="#E6000F"/><stop offset="1" stop-color="#FF6400"/></linearGradient><linearGradient id="j" x1="31.361" y1="32.243" x2="31.361" y2="45.907" gradientUnits="userSpaceOnUse"><stop stop-color="#E6000F"/><stop offset="1" stop-color="#FF6400"/></linearGradient></defs></svg>