<svg xmlns="http://www.w3.org/2000/svg" width="32" height="32" fill="none"><defs><linearGradient id="phbv1__a" x1="9.041" x2="9.041" y1="18.595" y2="8.685" gradientUnits="userSpaceOnUse"><stop stop-color="#E6000F"/><stop offset="1" stop-color="#FF6400"/></linearGradient><linearGradient id="phbv1__b" x1="103.32" x2="103.32" y1="89.831" y2="148.328" gradientUnits="userSpaceOnUse"><stop stop-color="#E6000F"/><stop offset="1" stop-color="#FF6400"/></linearGradient><linearGradient id="phbv1__c" x1="31.362" x2="31.362" y1="93.034" y2="147.689" gradientUnits="userSpaceOnUse"><stop stop-color="#E6000F"/><stop offset="1" stop-color="#FF6400"/></linearGradient><linearGradient id="phbv1__d" x1="111.91" x2="111.91" y1="153.106" y2="256.437" gradientUnits="userSpaceOnUse"><stop stop-color="#E6000F"/><stop offset="1" stop-color="#FF6400"/></linearGradient><linearGradient id="phbv1__e" x1="249.401" x2="249.401" y1="110.194" y2="186.199" gradientUnits="userSpaceOnUse"><stop stop-color="#E6000F"/><stop offset="1" stop-color="#FF6400"/></linearGradient><linearGradient id="phbv1__f" x1="230.556" x2="230.556" y1="89.831" y2="148.328" gradientUnits="userSpaceOnUse"><stop stop-color="#E6000F"/><stop offset="1" stop-color="#FF6400"/></linearGradient><linearGradient id="phbv1__g" x1="31.361" x2="31.361" y1="93.034" y2="147.689" gradientUnits="userSpaceOnUse"><stop stop-color="#E6000F"/><stop offset="1" stop-color="#FF6400"/></linearGradient><linearGradient id="phbv1__h" x1="217.959" x2="217.959" y1="153.106" y2="256.437" gradientUnits="userSpaceOnUse"><stop stop-color="#E6000F"/><stop offset="1" stop-color="#FF6400"/></linearGradient><linearGradient id="phbv1__i" x1="47.389" x2="47.389" y1="52.423" y2="80.178" gradientUnits="userSpaceOnUse"><stop stop-color="#E6000F"/><stop offset="1" stop-color="#FF6400"/></linearGradient><linearGradient id="phbv1__j" x1="31.361" x2="31.361" y1="32.243" y2="45.907" gradientUnits="userSpaceOnUse"><stop stop-color="#E6000F"/><stop offset="1" stop-color="#FF6400"/></linearGradient></defs><path fill="#fff" d="M16 32c8.837 0 16-7.163 16-16S24.837 0 16 0 0 7.163 0 16s7.163 16 16 16Z"/><path fill="url(#phbv1__a)" d="m14.083 15.052-.56-1.034L4 7.382l.948 2.586 9.135 5.084Z"/><path fill="url(#phbv1__b)" d="M14.384 15.57 5.207 10.7l.732 1.982 9.005 3.921-.56-1.034Z"/><path fill="url(#phbv1__c)" d="m16.022 19.102.474 5.085-.474.43-.517-.43.474-5.085h.043Z"/><path fill="url(#phbv1__d)" d="m15.806 18.154-.775 5.602-.69-.603 1.164-5.042-8.833-3.447-.474-1.335 9.048 3.791.56 1.034Z"/><path fill="url(#phbv1__e)" d="m17.918 15.052.56-1.034L28 7.382l-.948 2.586-9.134 5.084Z"/><path fill="url(#phbv1__f)" d="m17.616 15.57 9.178-4.87-.733 1.982-9.005 3.921.56-1.034Z"/><path fill="url(#phbv1__g)" d="m15.978 19.102-.474 5.085.518.43.474-.43-.474-5.085h-.044Z"/><path fill="url(#phbv1__h)" d="m16.194 18.154.775 5.602.69-.603-1.163-5.042 8.832-3.447.474-1.335-9.048 3.791-.56 1.034Z"/><path fill="url(#phbv1__i)" d="m16.539 14.88-.517 1.206-.56-1.206-.474.56 1.034 2.24.99-2.24-.473-.56Z"/><path fill="url(#phbv1__j)" d="m16.495 14.233-.474.905-.517-.905.518-.474.474.474Z"/></svg>