<svg fill="none" height="32" viewBox="0 0 32 32" width="32" xmlns="http://www.w3.org/2000/svg" xmlns:xlink="http://www.w3.org/1999/xlink"><linearGradient id="a"><stop offset="0" stop-color="#e6000f"/><stop offset="1" stop-color="#ff6400"/></linearGradient><linearGradient id="b" gradientUnits="userSpaceOnUse" x1="9.04131" x2="9.04131" xlink:href="#a" y1="18.595" y2="8.68528"/><linearGradient id="c" gradientUnits="userSpaceOnUse" x1="103.32" x2="103.32" xlink:href="#a" y1="89.8305" y2="148.328"/><linearGradient id="d" gradientUnits="userSpaceOnUse" x1="31.3616" x2="31.3616" xlink:href="#a" y1="93.034" y2="147.689"/><linearGradient id="e" gradientUnits="userSpaceOnUse" x1="111.91" x2="111.91" xlink:href="#a" y1="153.106" y2="256.437"/><linearGradient id="f" gradientUnits="userSpaceOnUse" x1="249.401" x2="249.401" xlink:href="#a" y1="110.194" y2="186.199"/><linearGradient id="g" gradientUnits="userSpaceOnUse" x1="230.556" x2="230.556" xlink:href="#a" y1="89.8305" y2="148.328"/><linearGradient id="h" gradientUnits="userSpaceOnUse" x1="31.3614" x2="31.3614" xlink:href="#a" y1="93.034" y2="147.689"/><linearGradient id="i" gradientUnits="userSpaceOnUse" x1="217.959" x2="217.959" xlink:href="#a" y1="153.106" y2="256.437"/><linearGradient id="j" gradientUnits="userSpaceOnUse" x1="47.3894" x2="47.3894" xlink:href="#a" y1="52.4233" y2="80.1776"/><linearGradient id="k" gradientUnits="userSpaceOnUse" x1="31.3614" x2="31.3614" xlink:href="#a" y1="32.2428" y2="45.9068"/><path d="m16 32c8.8366 0 16-7.1634 16-16 0-8.83656-7.1634-16-16-16-8.83656 0-16 7.16344-16 16 0 8.8366 7.16344 16 16 16z" fill="#fff"/><path d="m14.0826 15.0521-.5601-1.0341-9.5225-6.63561.94794 2.58528z" fill="url(#b)"/><path d="m14.3843 15.5691-9.17776-4.8689.7325 1.982 9.00546 3.921z" fill="url(#c)"/><path d="m16.0217 19.1023.474 5.0844-.474.4309-.5171-.4309.474-5.0844z" fill="url(#d)"/><path d="m15.8061 18.1544-.7756 5.6014-.6894-.6032 1.1634-5.0413-8.83299-3.447-.474-1.3357 9.04849 3.7917z" fill="url(#e)"/><path d="m17.9175 15.0521.5601-1.0341 9.5225-6.63561-.948 2.58528z" fill="url(#f)"/><path d="m17.6158 15.5691 9.1778-4.8689-.7325 1.982-9.0054 3.921z" fill="url(#g)"/><path d="m15.9784 19.1023-.474 5.0844.5171.4309.474-.4309-.474-5.0844z" fill="url(#h)"/><path d="m16.1938 18.1544.7756 5.6014.6894-.6032-1.1633-5.0413 8.833-3.447.474-1.3357-9.0485 3.7917z" fill="url(#i)"/><path d="m16.5388 14.8797-.5171 1.2065-.5602-1.2065-.474.5602 1.0342 2.2405.991-2.2405z" fill="url(#j)"/><path d="m16.4955 14.2334-.474.9048-.5171-.9048.5171-.474z" fill="url(#k)"/></svg>