<svg xmlns="http://www.w3.org/2000/svg" width="32" height="32" fill="none"><defs><linearGradient id="pivx__a" x1="15.999" x2="15.999" y1="31.998" y2=".526" gradientUnits="userSpaceOnUse"><stop stop-color="#130D1E"/><stop offset=".687" stop-color="#4D3077"/><stop offset="1" stop-color="#662D91"/></linearGradient></defs><path fill="url(#pivx__a)" d="M16 0C7.163 0 0 7.163 0 16s7.163 16 16 16 16-7.163 16-16S24.837 0 16 0Z"/><path fill="#fff" d="M23.179 14.163V9.036a.444.444 0 0 0-.11-.296.449.449 0 0 0-.274-.154l-.391-.063-6.33-1.014a.474.474 0 0 0-.143 0l-6.078.972-.652.105a.389.389 0 0 0-.16.059l-.023.014a.518.518 0 0 0-.045.035l-.02.019a.977.977 0 0 0-.038.042l-.02.027a.515.515 0 0 0-.02.034l-.017.034-.014.034a.401.401 0 0 0-.013.045.466.466 0 0 0-.014.107v9.808c0 1.365 1.697 2.777 3.537 3.884.29.175.584.343.874.501a27.66 27.66 0 0 0 1.539.772c.39.181.752.337 1.06.462l.008.002c.025.01.05.018.077.023l.016.001a.45.45 0 0 0 .07.007c.02 0 .04-.002.058-.005.01-.002.02-.001.029-.003a.379.379 0 0 0 .082-.025 26.133 26.133 0 0 0 3.011-1.46 18.336 18.336 0 0 0 1.62-1.028 7.984 7.984 0 0 0 1.782-1.63c.243-.319.423-.681.53-1.068a4.23 4.23 0 0 0 .069-1.011c.009-.355 0-.713 0-1.068v-3.035Zm-10.16-.258a.513.513 0 0 1-.481-.511l-.001-.438a.071.071 0 0 1 .045-.067.073.073 0 0 1 .027-.005l3.926.001a.506.506 0 1 1 .001 1.015l-3.517.005Zm5.357 2.831a3.49 3.49 0 0 1-.8.13l-3.21.002a.066.066 0 0 0-.067.062v.004l-.001 3.992a.512.512 0 0 1-.51.481h-.44a.072.072 0 0 1-.07-.071v-5.02a.507.507 0 0 1 .505-.473s3.684.003 3.719.001v.001a2.458 2.458 0 0 0 .037-4.911s-.122-.007-.253-.007l-3.533.008a.513.513 0 0 1-.48-.511l-.002-.437a.073.073 0 0 1 .045-.067.072.072 0 0 1 .028-.005h4.158a3.477 3.477 0 0 1 .874 6.821"/><path fill="#fff" d="m23.49 7.151-7.277-1.164a1.235 1.235 0 0 0-.208-.017h-.006c-.03.001-.156.01-.203.017L9.214 7.04l-.706.113A1.317 1.317 0 0 0 7.395 8.46v10.62a3.75 3.75 0 0 0 1.051 2.407c.654.724 1.399 1.36 2.215 1.894a27.936 27.936 0 0 0 4.844 2.553c.143.057.294.09.448.095h.046l.001.002c.17 0 .337-.033.493-.097a25.793 25.793 0 0 0 5.532-3.044l.01-.007.127-.099c.095-.072.192-.146.287-.226.5-.399.952-.855 1.346-1.358.12-.16.32-.473.383-.585a3.69 3.69 0 0 0 .26-.576c.109-.305.165-.626.167-.95V8.459a1.32 1.32 0 0 0-1.114-1.307Zm.286 11.938a1.822 1.822 0 0 1-.032.338c-.02.115-.05.228-.089.338a2.836 2.836 0 0 1-.297.603c-.029.045-.06.094-.093.142a4.02 4.02 0 0 1-.387.5 7.26 7.26 0 0 1-.61.61c-.112.1-.229.2-.348.297-.124.105-.265.209-.397.312a14.882 14.882 0 0 1-1.008.706 22.114 22.114 0 0 1-1.522.9c-.91.494-1.849.938-2.81 1.33A.48.48 0 0 1 16 25.2a.476.476 0 0 1-.184-.036 28.602 28.602 0 0 1-3.762-1.879 16.34 16.34 0 0 1-.313-.192A15.309 15.309 0 0 1 10 21.845a8.609 8.609 0 0 1-.718-.671 3.228 3.228 0 0 1-1.058-2.095V8.46a.492.492 0 0 1 .416-.488l.705-.113 6.582-1.053h.01a.482.482 0 0 1 .062-.005h.006a.47.47 0 0 1 .077.006l7.278 1.165a.494.494 0 0 1 .416.488v10.63Z"/></svg>