<svg fill="none" height="32" viewBox="0 0 32 32" width="32" xmlns="http://www.w3.org/2000/svg" xmlns:xlink="http://www.w3.org/1999/xlink"><linearGradient id="a" gradientUnits="userSpaceOnUse" x1="15.9992" x2="15.9992" y1="31.9977" y2=".52643"><stop offset="0" stop-color="#130d1e"/><stop offset=".68715" stop-color="#4d3077"/><stop offset="1" stop-color="#662d91"/></linearGradient><path d="m16 0c-8.83657 0-16 7.16343-16 16 0 8.8366 7.16343 16 16 16 8.8366 0 16-7.1634 16-16 0-8.83657-7.1634-16-16-16z" fill="url(#a)"/><g fill="#fff"><path d="m23.1789 14.1626v-5.12687c.0001-.02757-.0024-.05508-.0074-.08219-.0097-.05277-.0286-.10343-.0557-.1497-.0133-.02277-.0288-.04416-.0463-.06384-.0516-.06132-.1188-.10768-.1944-.13428-.0258-.00969-.0527-.01634-.08-.01981l-.3911-.06311-6.3296-1.01333c-.0238-.00378-.0478-.00574-.0719-.00587-.0241.00007-.0481.00203-.0719.00587l-6.07788.97153-.65159.10494c-.02858.00397-.05663.0111-.08364.02128-.00779.00322-.01539.00689-.02275.011-.01885.00716-.03703.016-.05431.02641l-.02275.01468c-.01553.01067-.03046.02218-.04474.03448l-.01982.01908c-.01321.01394-.02642.02788-.03815.04182-.00661.00954-.01322.01761-.01908.02715-.00735.011-.01467.022-.02128.03376l-.01688.03449-.01395.03375c-.00502.01467-.00918.02961-.01247.04476-.00313.00935-.00558.01891-.00733.02861-.00441.02594-.00662.05221-.0066.07853v9.80836c0 1.3649 1.69652 2.7766 3.53612 3.8839.2905.1754.584.3427.8746.5012.3889.2113.7727.4058 1.1374.5826.1372.0653.27.1284.4013.1893.3911.1813.7522.3368 1.061.4623l.0074.0015c.0247.0104.0506.0181.077.0227l.0161.0015c.0233.0043.0468.0067.0705.0073.0192-.0005.0383-.0025.0572-.0059.0095-.0014.0191-.0007.0286-.0029.0285-.0049.0563-.013.0829-.0242.2363-.0947.5012-.2069.7874-.3353.667-.2979 1.4463-.6817 2.2241-1.1242.3331-.19.6655-.3896.9884-.5987.215-.1402.4263-.2833.631-.4293.673-.4502 1.2737-.9999 1.7817-1.6305.2431-.319.4227-.6816.529-1.0683.0643-.333.0877-.6726.0697-1.0112.0088-.3551 0-.7125 0-1.0684zm-10.1599-.2575c-.1302-.0082-.2524-.0657-.3417-.1607-.0894-.0949-.1393-.2204-.1397-.3508 0-.0022-.0007-.2979-.0007-.438 0-.0095.0019-.0189.0056-.0277.0037-.0087.009-.0167.0158-.0234.0067-.0067.0147-.0119.0235-.0155s.0182-.0054.0277-.0054l3.9258.0015c.0668-.0003.133.0125.1948.0379.0619.0253.1181.0626.1655.1097s.085.1031.1107.1648c.0256.0617.0389.1278.0389.1947.0001.0668-.0131.133-.0387.1947s-.0631.1178-.1104.165c-.0473.0471-.1035.0845-.1653.1099s-.128.0384-.1948.0381zm5.3573 2.8309c-.2606.0744-.5291.1179-.7998.1299l-3.2103.0022c-.017-.0002-.0335.0062-.0459.0178s-.0199.0275-.0209.0445v.0037l-.0015 3.9917c-.0079.1302-.0651.2524-.16.3418-.0949.0895-.2203.1394-.3507.1396-.0029 0-.2979.0007-.4388.0007-.0189-.0002-.037-.0078-.0503-.0213-.0134-.0134-.0208-.0316-.0208-.0506v-5.0205c.008-.1154.0552-.2246.1338-.3095s.1839-.1403.2984-.1572c.0242-.0038.0488-.0057.0733-.0058 0 0 3.6843.0029 3.7188.0014v.0008c.634-.0213 1.2352-.2869 1.6778-.7412.4427-.4543.6926-1.0621.6974-1.6964.0049-.6343-.2357-1.2459-.6714-1.7069-.4357-.4611-1.0328-.7358-1.6663-.7667 0 0-.1218-.0066-.2532-.0066l-3.5324.0081c-.1302-.008-.2525-.0654-.342-.1604-.0894-.095-.1393-.2206-.1393-.3511 0-.0014-.0008-.2979-.0008-.43731.0001-.00949.002-.01889.0057-.02764.0036-.00876.009-.0167.0157-.02338.0068-.00668.0148-.01196.0236-.01555.0088-.00358.0182-.00539.0277-.00533 0 0 4.1275 0 4.1576.00073.832.01856 1.6298.33498 2.2484.89168s1.017 1.3168 1.1229 2.1423c.1058.8255-.0879 1.6615-.546 2.3563s-1.1503 1.2023-1.9507 1.4302"/><path d="m23.4907 7.151-7.2776-1.16377c-.0689-.01151-.1386-.01716-.2084-.01688h-.0059c-.0301.00073-.1555.0088-.2032.01688l-6.58129 1.05152-.7059.113c-.31128.04859-.59483.20716-.7992.44693s-.31601.54487-.31467.85992v10.6207c.04905.9027.42244 1.7574 1.05149 2.4068.65423.7236 1.39875 1.3601 2.21527 1.8939 1.5271 1.0075 3.1494 1.8625 4.8437 2.5528.1425.0576.294.0899.4476.0954.0154.0007.0308.0007.0462.0007l.0015.0008c.169.0002.3365-.0325.4931-.0962 1.9617-.7844 3.8196-1.8069 5.5319-3.0444l.0103-.0073c.0418-.033.0836-.0653.1262-.0984.0947-.0719.1922-.1467.2869-.2267.5002-.3987.9521-.8545 1.3465-1.3582.1196-.1593.3206-.4726.383-.5848.1029-.1843.1898-.377.2597-.576.1086-.3047.1651-.6254.1673-.9488v-10.6303c.0011-.31518-.1107-.62032-.3151-.86019-.2045-.23986-.4881-.39858-.7994-.44741zm.2854 11.9378c0 .0565-.0029.113-.0081.1688-.0058.0572-.0124.1137-.0235.1695-.0203.1148-.0502.2277-.0895.3375-.0544.1548-.1222.3045-.2025.4476-.0169.0301-.0521.088-.0946.1556-.0287.0447-.0602.0939-.0925.1423-.0477.0712-.0954.1402-.1313.1871-.0786.105-.1651.2092-.2561.3119-.1912.2157-.3951.4198-.6105.6112-.1116.1006-.2282.1996-.3479.2972-.1232.1042-.2648.2084-.3962.3119-.2128.1621-.4344.3214-.6626.4762-.1137.077-.2289.1541-.3456.2289-.35.2268-.7103.444-1.0706.6494-.1504.0851-.3008.1686-.4512.2502-.9113.495-1.8493.9391-2.8097 1.3304-.0582.0236-.1206.0356-.1834.0352h-.0015c-.0154 0-.0308-.0007-.0462-.0022-.0472-.0044-.0934-.0157-.1372-.0338-1.0731-.4397-2.1185-.9442-3.1303-1.5108-.2114-.1181-.4222-.2407-.6325-.3676-.1042-.0631-.2092-.127-.3126-.1923-.6086-.3749-1.1902-.7919-1.74056-1.2481-.25182-.21-.49142-.4341-.71764-.6714-.60292-.5406-.98059-1.2881-1.05809-2.0942v-10.6207c-.0001-.08731.02301-.17307.06698-.2485.04396-.07543.1072-.13781.18321-.18075.05124-.0295.10744-.0494.16582-.0587l.70516-.113 6.58202-1.05223.011-.00074c.0176-.00219.0462-.0044.0609-.00512h.0059c.026.00004.052.00224.0777.00659l7.2776 1.16451c.1161.01849.2218.0778.2981.16725.0762.08946.1181.20319.118.32075z"/></g></svg>