<svg fill="none" height="32" viewBox="0 0 32 32" width="32" xmlns="http://www.w3.org/2000/svg" xmlns:xlink="http://www.w3.org/1999/xlink"><linearGradient id="a" gradientUnits="userSpaceOnUse" x1="3.743" x2="28.257" y1="5.71516" y2="26.2848"><stop offset="0" stop-color="#0ae596"/><stop offset="1" stop-color="#01c7d4"/></linearGradient><path d="m16 32c8.8366 0 16-7.1634 16-16 0-8.83656-7.1634-16-16-16-8.83656 0-16 7.16344-16 16 0 8.8366 7.16344 16 16 16z" fill="url(#a)"/><g fill="#fff"><path d="m25.1558 14.8559c-.3209-.5189-.8349-.8891-1.4287-1.0291-.5939-.14-1.2191-.0384-1.738.2826l-8.1092 5.0141v5.41l10.5295-6.5109c.2569-.1589.48-.3669.6566-.6121.1766-.2451.3031-.5226.3724-.8167.0693-.294.0801-.5989.0316-.897-.0485-.2982-.1553-.584-.3142-.8409z"/><path d="m8.51294 10.3254.08453 13.3633c.00382.6076.24784 1.189.6788 1.6173s1.01383.6687 1.62143.6687h.0148c.3021-.0019.6009-.0633.8793-.1807.2784-.1173.5309-.2884.7432-.5034.2123-.2149.3801-.4696.494-.7495.1138-.2798.1714-.5793.1695-.8814l-.0662-10.4505z"/><path d="m22.5685 12.9603-10.5494-6.58573c-.5175-.32167-1.1415-.42486-1.7351-.28695-.59353.13792-1.10811.50569-1.4308 1.02259-.32268.51691-.42711 1.14072-.29037 1.73453.13675.59382.5035 1.10912 1.01977 1.43286l8.6214 5.3821z"/></g></svg>