<svg fill="none" height="32" viewBox="0 0 32 32" width="32" xmlns="http://www.w3.org/2000/svg" xmlns:xlink="http://www.w3.org/1999/xlink"><clipPath id="a"><path d="m0 0h32v32h-32z"/></clipPath><g clip-path="url(#a)"><path d="m4.68628 27.3137c3.00058 3.0006 7.07022 4.6863 11.31372 4.6863s8.3131-1.6857 11.3137-4.6863 4.6863-7.0702 4.6863-11.3137-1.6857-8.31313-4.6863-11.31371z" fill="#d95e59"/><path d="m16 .00000015c-3.1645-.00000059-6.25793.93838285-8.88912 2.69648985-2.63118 1.7581-4.68194 4.25696-5.89295 7.18057-1.21099762 2.92364-1.527851 6.14074-.910487 9.24434.617364 3.1037 2.141217 5.9547 4.378857 8.1923l22.6274-22.62741c-1.4841-1.48796-3.2476-2.66796-5.1892-3.47219-1.9416-.80423-4.0229-1.21683418-6.1245-1.21409985z" fill="#f66"/><path d="m16.0001 11.5044c2.2008 0 3.985-1.78415 3.985-3.98498s-1.7842-3.98496-3.985-3.98496-3.985 1.78413-3.985 3.98496 1.7842 3.98498 3.985 3.98498z" fill="#fff"/><path d="m15.9999 9.52443c1.1073 0 2.005-.89767 2.005-2.00501s-.8977-2.00501-2.005-2.00501c-1.1074 0-2.005.89767-2.005 2.00501s.8976 2.00501 2.005 2.00501z" fill="#016273"/><path d="m15.9999 32c2.1012.0027 4.1822-.4097 6.1234-1.2136 1.9413-.804 3.7046-1.9835 5.1886-3.471-1.485-1.4864-3.2483-2.6656-5.1893-3.4702-1.941-.8045-4.0215-1.2186-6.1226-1.2186-2.1012 0-4.1817.4141-6.12266 1.2186-1.94098.8046-3.70437 1.9838-5.18935 3.4702 1.48402 1.4874 3.2473 2.667 5.18856 3.4709 1.94125.804 4.02225 1.2164 6.12335 1.2137z" fill="#fff4c7"/></g></svg>