<svg width="32" height="32" fill="none" xmlns="http://www.w3.org/2000/svg"><g clip-path="url(#a)"><path d="M4.686 27.314A16 16 0 1 0 27.314 4.686L4.686 27.314Z" fill="#D95E59"/><path d="M16 0A16 16 0 0 0 4.686 27.314L27.314 4.686A15.95 15.95 0 0 0 16 0Z" fill="#F66"/><path d="M16 11.504a3.985 3.985 0 1 0 0-7.97 3.985 3.985 0 0 0 0 7.97Z" fill="#fff"/><path d="M16 9.524a2.005 2.005 0 1 0 0-4.01 2.005 2.005 0 0 0 0 4.01Z" fill="#016273"/><path d="M16 32a15.95 15.95 0 0 0 11.312-4.685 15.991 15.991 0 0 0-22.624 0A15.95 15.95 0 0 0 16 32Z" fill="#FFF4C7"/></g><defs><clipPath id="a"><path fill="#fff" d="M0 0h32v32H0z"/></clipPath></defs></svg>