<svg fill="none" height="32" viewBox="0 0 32 32" width="32" xmlns="http://www.w3.org/2000/svg" xmlns:xlink="http://www.w3.org/1999/xlink"><clipPath id="a"><path d="m0 0h32v32h-32z"/></clipPath><g clip-path="url(#a)"><path d="m32 16c.0002 2.1012-.4135 4.1818-1.2175 6.1231s-1.9828 3.7053-3.4685 5.1911c-1.4858 1.4858-3.2497 2.6642-5.191 3.4682s-4.0218 1.2178-6.123 1.2176c-2.1012.0002-4.182-.4136-6.12329-1.2176-1.9413-.804-3.70514-1.9824-5.19092-3.4682s-2.66426-3.2498-3.46826-5.1911c-.804004-1.9413-1.21773351-4.0219-1.21752992-6.1231-.00020359-2.1012.41352592-4.1819 1.21752992-6.1232.804-1.9413 1.98248-3.70514 3.46826-5.19092s3.24962-2.66438 5.19092-3.46838c1.94129-.804004 4.02209-1.21773403 6.12329-1.21753044 2.1012-.00020359 4.1817.41352644 6.123 1.21753044 1.9413.804 3.7052 1.9826 5.191 3.46838 1.4857 1.48578 2.6645 3.24962 3.4685 5.19092s1.2177 4.022 1.2175 6.1232z" fill="#393534"/><path d="m30.1389 16.1373c-.0002 3.7134-1.4755 7.2747-4.1013 9.9005s-6.187 4.101-9.9004 4.1012c-3.7134-.0002-7.27461-1.4754-9.90038-4.1012-2.62578-2.6258-4.10107-6.1871-4.10132-9.9005.00025-3.7134 1.47554-7.27462 4.10132-9.90039 2.62577-2.62578 6.18698-4.10107 9.90038-4.10132 3.7134.00025 7.2746 1.47554 9.9004 4.10132 2.6258 2.62577 4.1011 6.18699 4.1013 9.90039z" fill="#f2f2f2"/><path d="m21.4343 12.1053-10.0532 10.2799-.2197-4.1408 6.0635-6.1391 2.5134-2.60936 1.6274-.53564 1.1812.30896 1.1054.92014-1.332 1.5314z" fill="#fff"/><g fill="#e1ded9"><path d="m22.3472 12.3929-2.012 2.0739h3.0488l.3433-.3503c.2419-.2518.4333-.5479.5632-.872.1284-.3282.1935-.6777.1922-1.0301.0013-.6941-.2585-1.3632-.7278-1.8746l-1.3872 1.442c.0732.0861.1123.196.1098.309-.0083.1125-.0541.2189-.1303.3021z"/><path d="m14.0798 21.1205-1.6413 1.703h3.049l1.6548-1.703z"/><path d="m14.9043 20.2568h3.0488l1.8198-1.8884h-3.049z"/><path d="m22.553 15.4842h-3.0488l-1.9505 2.012h3.0491z"/></g><path d="m23.5603 9.59311c-.3138-.32726-.6895-.58866-1.1055-.76904-.412-.17738-.856-.26853-1.3047-.26782-.4486-.00071-.8926.09044-1.3046.26782-.4163.1829-.7923.44667-1.1058.776l-7.8969 8.15793c-.0784.089-.12.2043-.1167.3228v4.2025l-2.17678 2.2731h1.19482l1.61376-1.6687h4.0376c.0569.0019.1134-.0099.1648-.0343.0506-.0243.0953-.0595.1306-.1031l7.8489-8.1305.0137-.0137c.6419-.673.9968-1.5695.989-2.4996.0061-.4633-.0803-.9232-.2542-1.3527-.1569-.4345-.4052-.83021-.728-1.16056zm-4.5869.94759.3433-.3502c.2376-.24655.5224-.4429.8374-.57737.3149-.13447.6536-.20433.996-.20544.3425.00111.6812.07097.9961.20544.315.13447.5998.33082.8374.57737.0138.0138.0136.0275.0274.0275.4709.5186.7307 1.1949.728 1.8954-.0029.7005-.2731 1.3734-.7554 1.8814l-.3435.3503h-3.0488l1.9983-2.0739c.0779-.0787.1221-.1846.1235-.2953.0025-.1109-.0367-.2187-.1098-.3021-.0138-.0137-.0137-.0137-.0137-.0275-.038-.0398-.0839-.0713-.1348-.0926-.0508-.0213-.1053-.0318-.1604-.0309-.1107.0014-.2167.0456-.2954.1235l-2.0256 2.1014zm-6.7847 11.4748 1.6411-1.703h3.0491l-1.6411 1.703zm4.7864-4.9649 1.9502-2.0257h3.0488l-1.9502 2.0257zm2.3828.6868-1.8198 1.8883h-3.0488l1.8195-1.8883zm-3.001-4.4911 1.9502-2.0257v3.2069l-1.9502 2.0257zm-2.4858 2.5752 1.8198-1.8884v3.2068l-1.8198 1.8884zm-2.3211 2.4103 1.6688-1.7168v3.2069l-1.6688 1.7167" fill="#393534"/></g></svg>