<svg xmlns="http://www.w3.org/2000/svg" width="32" height="32" fill="none"><defs><clipPath id="poe__a"><path fill="#fff" d="M0 0h32v32H0z"/></clipPath></defs><g clip-path="url(#poe__a)"><path fill="#393534" d="M32 16A15.998 15.998 0 0 1 9.877 30.782a15.997 15.997 0 0 1-8.66-20.905 15.998 15.998 0 0 1 20.906-8.66A15.999 15.999 0 0 1 32 16Z"/><path fill="#F2F2F2" d="M30.139 16.137a14.003 14.003 0 0 1-28.003 0 14.003 14.003 0 0 1 28.003 0Z"/><path fill="#fff" d="m21.434 12.105-10.053 10.28-.22-4.14 6.064-6.14 2.513-2.61 1.628-.535 1.18.31 1.106.92-1.332 1.53-.886.385Z"/><path fill="#E1DED9" d="m22.347 12.393-2.012 2.074h3.049l.343-.35a2.72 2.72 0 0 0 .564-.873 2.81 2.81 0 0 0 .192-1.03 2.765 2.765 0 0 0-.728-1.874l-1.387 1.442a.461.461 0 0 1 .11.309.502.502 0 0 1-.13.302ZM14.08 21.12l-1.642 1.703h3.05l1.654-1.703H14.08Zm.824-.863h3.05l1.819-1.889h-3.05l-1.819 1.889Zm7.649-4.773h-3.049l-1.95 2.012h3.049l1.95-2.012Z"/><path fill="#393534" d="M23.56 9.593a3.412 3.412 0 0 0-1.105-.769 3.286 3.286 0 0 0-1.305-.268A3.286 3.286 0 0 0 18.74 9.6l-7.897 8.158a.468.468 0 0 0-.117.323v4.202L8.55 24.556h1.195l1.614-1.668h4.037a.357.357 0 0 0 .296-.138l7.849-8.13.014-.014c.641-.673.996-1.57.989-2.5a3.482 3.482 0 0 0-.255-1.352 3.23 3.23 0 0 0-.728-1.16Zm-4.587.948.344-.35a2.557 2.557 0 0 1 1.833-.783 2.557 2.557 0 0 1 1.834.783c.013.013.013.027.027.027.47.519.73 1.195.728 1.895a2.749 2.749 0 0 1-.755 1.882l-.344.35h-3.049l1.999-2.074a.443.443 0 0 0 .014-.597c-.014-.014-.014-.014-.014-.028a.4.4 0 0 0-.296-.123.428.428 0 0 0-.295.123l-2.026 2.102V10.54ZM12.19 22.015l1.64-1.703h3.05l-1.641 1.703h-3.05Zm4.786-4.964 1.95-2.026h3.05l-1.951 2.026h-3.049Zm2.383.686-1.82 1.889H14.49l1.82-1.889h3.049Zm-3.001-4.49 1.95-2.026v3.207l-1.95 2.025v-3.207Zm-2.486 2.575 1.82-1.889v3.207l-1.82 1.888v-3.206Zm-2.321 2.41 1.669-1.717v3.207l-1.669 1.717"/></g></svg>