<svg xmlns="http://www.w3.org/2000/svg" width="32" height="32" fill="none"><path fill="#fff" d="M16 32c8.837 0 16-7.163 16-16S24.837 0 16 0 0 7.163 0 16s7.163 16 16 16Z"/><path fill="#000" d="M24.097 8.574a6.473 6.473 0 0 0-4.799-1.909h-7.942v7.668a4.288 4.288 0 0 1 0 8.171v2.83h4.319V20.16h3.63a6.474 6.474 0 0 0 6.244-4.133 6.578 6.578 0 0 0 .45-2.614 6.571 6.571 0 0 0-1.902-4.838Zm-3.318 7.163a2.797 2.797 0 0 1-2.15.91h-2.96V10.19h2.96a2.814 2.814 0 0 1 2.15.91c.57.634.87 1.465.838 2.318a3.252 3.252 0 0 1-.838 2.318Z"/><path fill="#FF3465" d="M9.129 21.58a3.129 3.129 0 1 0 0-6.257 3.129 3.129 0 0 0 0 6.257Z"/></svg>