<svg fill="none" height="32" viewBox="0 0 32 32" width="32" xmlns="http://www.w3.org/2000/svg"><path d="m16 32c8.8366 0 16-7.1634 16-16 0-8.83656-7.1634-16-16-16-8.83656 0-16 7.16344-16 16 0 8.8366 7.16344 16 16 16z" fill="#fff"/><path d="m24.0972 8.57434c-.626-.63053-1.3752-1.12544-2.2008-1.45389-.8256-.32846-1.71-.48343-2.598-.45528h-7.942v7.66813c.867.276 1.6237.8206 2.1607 1.555.537.7345.8265 1.6208.8265 2.5306 0 .9099-.2895 1.7961-.8265 2.5306s-1.2937 1.2791-2.1607 1.555v2.8303h4.3184v-5.1755h3.63c.8881.0281 1.7725-.1268 2.5981-.4553.8257-.3285 1.5748-.8234 2.2009-1.4539.6273-.636 1.1188-1.3927 1.4447-2.2243.326-.8316.4795-1.7208.4514-2.6136.0285-.8934-.1255-1.7832-.4527-2.615-.3272-.83186-.8206-1.58822-1.45-2.22286zm-3.3183 7.16266c-.2716.2974-.6043.5326-.9753.6896-.3709.1569-.7714.2318-1.174.2195h-2.9612v-6.4548h2.9612c.4024-.011.8025.0645 1.1733.2214.3708.1568.7036.3913.976.6877.5701.6345.8706 1.466.8378 2.3183.0358.8528-.2651 1.6854-.8378 2.3183z" fill="#000"/><path d="m9.129 21.5801c.61885 0 1.2238-.1835 1.7384-.5274.5145-.3438.9156-.8325 1.1524-1.4042s.2988-1.2009.1781-1.8078c-.1207-.607-.4187-1.1645-.8563-1.6021s-.9952-.7357-1.60212-.8564c-.60696-.1207-1.2361-.0588-1.80785.178s-1.06044.6379-1.40426 1.1524c-.34383.5146-.52736 1.1195-.52737 1.7384-.00001.4109.08092.8178.23816 1.1974.15724.3797.38772.7246.67828 1.0152.29055.2905.63549.521 1.01513.6783.37963.1572.78652.2382 1.19743.2382z" fill="#ff3465"/></svg>