<svg xmlns="http://www.w3.org/2000/svg" width="44" height="43" fill="none"><defs><linearGradient id="polyx__c" x1="79.87" x2="79.813" y1="11.243" y2="40.035" gradientUnits="userSpaceOnUse"><stop stop-color="#FF2E72"/><stop offset=".935" stop-color="#4A125E"/></linearGradient><linearGradient id="polyx__d" x1="79.87" x2="79.813" y1="11.243" y2="40.035" gradientUnits="userSpaceOnUse"><stop stop-color="#FF2E72"/><stop offset=".935" stop-color="#4A125E"/></linearGradient><clipPath id="polyx__a"><path fill="#fff" d="M0 0h32v32H0z" transform="translate(6 3)"/></clipPath><filter id="polyx__b" width="42.667" height="42.667" x=".667" y=".333" color-interpolation-filters="sRGB" filterUnits="userSpaceOnUse"><feFlood flood-opacity="0" result="BackgroundImageFix"/><feColorMatrix in="SourceAlpha" result="hardAlpha" values="0 0 0 0 0 0 0 0 0 0 0 0 0 0 0 0 0 0 127 0"/><feOffset dy="2.667"/><feGaussianBlur stdDeviation="2.667"/><feColorMatrix values="0 0 0 0 0.117647 0 0 0 0 0.117647 0 0 0 0 0.117647 0 0 0 0.1 0"/><feBlend in2="BackgroundImageFix" result="effect1_dropShadow_2122_923"/><feBlend in="SourceGraphic" in2="effect1_dropShadow_2122_923" result="shape"/></filter></defs><g clip-path="url(#polyx__a)" filter="url(#polyx__b)"><path fill="#fff" d="M22 35c8.837 0 16-7.163 16-16S30.837 3 22 3 6 10.163 6 19s7.163 16 16 16Z" opacity=".9"/><path fill="url(#polyx__c)" d="M25.817 18.17c-.48.426-1.262.656-2.384.656h-5.016v7.644h2.098v-5.655h3.182c.999 0 1.874-.18 2.618-.544h.001a4.322 4.322 0 0 0 1.78-1.598c.428-.69.639-1.504.639-2.436 0-.928-.209-1.873-.64-2.565a4.177 4.177 0 0 0-1.78-1.576c-.744-.38-1.619-.566-2.618-.566h-5.28v1.988h5.016c1.123 0 1.905.231 2.385.658.475.422.731 1.18.731 2.06 0 .856-.25 1.492-.732 1.933Z"/><path fill="url(#polyx__d)" fill-rule="evenodd" d="M38 19c0 8.837-7.163 16-16 16S6 27.837 6 19 13.163 3 22 3s16 7.163 16 16Zm-2.096 0c0 7.679-6.225 13.904-13.904 13.904S8.096 26.679 8.096 19 14.321 5.096 22 5.096 35.904 11.321 35.904 19Z" clip-rule="evenodd"/></g></svg>