<svg width="32" height="32" fill="none" xmlns="http://www.w3.org/2000/svg"><path d="M16 32c8.837 0 16-7.163 16-16S24.837 0 16 0 0 7.163 0 16s7.163 16 16 16Z" fill="#fff"/><path d="m25.726 10.066-2.309 1.165.988.713 1.321-1.878Z" fill="#0000CF"/><path d="m18.536 9.583 3.217 3.864-.345-2.385-2.872-1.479Z" fill="#0000AB"/><path d="m18.536 9.583.005.01.002-.001 2.755 5.884.455-2.029-3.217-3.864Z" fill="#0014BF"/><path d="m18.541 9.593-1.646.325 4.403 5.558-2.755-5.884-.002.001Z" fill="#0000CF"/><path d="m16.895 9.918-.371 3.687 4.774 1.871-4.403-5.558Z" fill="#0000E3"/><path d="m16.895 9.918-5.293 4.381 4.922-.694.371-3.687Z" fill="#0000CF"/><path d="m21.298 15.476-5.264 1.427 2.889-.325 2.375-1.102Z" fill="#0014BF"/><path d="m16.034 16.903-2.908.497 2.958.497-.05-.994Z" fill="#001CD1"/><path d="m18.923 16.578-2.89.325.05.994 2.84-1.319Z" fill="#0000AB"/><path d="m16.524 13.605-4.922.694 4.432 2.604.49-3.298Z" fill="#0000AB"/><path d="m11.602 14.299 1.524 3.101 2.908-.497-4.432-2.604Z" fill="#0000CF"/><path d="m11.602 14.299.056 4.171 1.468-1.07-1.524-3.101Z" fill="#0000AB"/><path d="m9.109 15.135-1.031 1.097 1.615 2.437-.584-3.534Z" fill="#001CD1"/><path d="m8.078 16.232-1.865.024 1.868 1.115-.003-1.139Z" fill="#0000AB"/><path d="m6.213 16.257.149.77 1.719.346v-.002l-1.868-1.114Z" fill="#0000E3"/><path d="m6.213 16.257-.92 1.715 1.069-.945-.149-.77Z" fill="#0000CF"/><path d="m4 18.345 1.218.199.075-.572L4 18.345Z" fill="#0000AB"/><path d="m6.362 17.027-1.069.945-.075.572 1.144-1.517Z" fill="#0000E3"/><path d="m8.088 18.986-.006-1.613.006 1.613Z" fill="#404A80"/><path d="m8.078 16.232.003 1.139v.002l.006 1.613 1.606-.317-1.615-2.437Z" fill="#0014BF"/><path d="m8.544 20.816-1.337.538.173 1.866 1.164-2.404Z" fill="#0000CF"/><path d="m7.207 21.354-.499 2.189.672-.323-.173-1.866Z" fill="#0000AB"/><path d="m6.166 24.417 1.394-.286-.18-.911-1.214 1.197Z" fill="#0000CF"/><path d="m6.708 23.543-.542.874L7.38 23.22l-.672.323Z" fill="#0000E3"/><path d="m9.693 18.669-1.606.317-.88 2.368 2.486-2.685Z" fill="#0000AB"/><path d="m9.693 18.669-2.486 2.685 1.337-.538 2.243-.904-1.094-1.243Z" fill="#0000E3"/><path d="m11.602 14.299-2.493.836.584 3.534 1.909-4.37Z" fill="#0000CF"/><path d="m11.602 14.299-1.909 4.37 1.965-.199-.056-4.171Z" fill="#0000E3"/><path d="m11.658 18.47-1.965.199 1.095 1.243.87-1.442Z" fill="#0000AB"/><path d="m21.236 16.563-2.313.015.838 2.241 1.475-2.256Z" fill="#0000CF"/><path d="m21.298 15.476-2.375 1.102 2.313-.015.062-1.087Z" fill="#0000E3"/><path d="m18.923 16.578-.452 1.999 1.29.242-.838-2.241Z" fill="#0014BF"/><path d="m18.471 18.577-.558 1.046 1.848-.804-1.29-.242ZM18.47 18.577l-1.328.077-.348 1.715 1.677-1.792Z" fill="#0000CF"/><path d="m18.47 18.577-1.676 1.792 1.119-.746.558-1.046Z" fill="#0000AB"/><path d="m25.617 9.686-2.2 1.545 2.309-1.165-.109-.38Z" fill="#0014BF"/><path d="m25.617 9.686.109.38 1.693-.469-1.802.089ZM23.46 12.504l1 .704.743-.218 1.647-.484-3.39-.002Z" fill="#0000BF"/><path d="m26.376 12.127-1.552.2-1.364.177 3.39.002-.474-.379Z" fill="#00009E"/><path d="m27.713 10.954-1.337 1.173.474.379.863-1.552Z" fill="#0014BF"/><path d="M26.85 12.506 28 11.087l-.287-.133-.863 1.552Z" fill="#0000E3"/><path d="m27.713 10.954.287.133-.05-.805-.237.672Z" fill="#000F91"/><path d="m21.753 13.447-.455 2.029.781.805-.326-2.834Z" fill="#0000AB"/><path d="m24.46 13.208-2.707.239.326 2.834 2.38-3.073Z" fill="#0000CF"/><path d="m21.408 11.062.345 2.385 2.707-.239-3.052-2.146Z" fill="#0000E3"/><path d="m24.406 11.944-.946.56 1.364-.177-.418-.383Z" fill="#0000AB"/><path d="m21.408 11.062 2.052 1.442.945-.56-2.997-.882Z" fill="#0000CF"/><path d="m21.408 11.062 2.997.882-.988-.713-2.009-.169Z" fill="#0000AB"/><path d="m24.46 13.208-.124 4.488 1.208-3.608-1.084-.88Z" fill="#0014BF"/><path d="m24.46 13.208-2.38 3.073 2.256 1.415.124-4.488Z" fill="#0000E3"/><path d="m25.203 12.99-.743.218 1.084.88-.341-1.098ZM25.544 14.088l-1.208 3.608 1.35-.62-.142-2.988Z" fill="#0000AB"/><path d="m16.524 13.605-.49 3.298 5.264-1.427-4.774-1.871Z" fill="#0000CF"/></svg>