<svg fill="none" height="32" viewBox="0 0 32 32" width="32" xmlns="http://www.w3.org/2000/svg"><path d="m16 32c8.8366 0 16-7.1634 16-16 0-8.83656-7.1634-16-16-16-8.83656 0-16 7.16344-16 16 0 8.8366 7.16344 16 16 16z" fill="#fff"/><path d="m25.726 10.066-2.309 1.165.988.713z" fill="#0000cf"/><path d="m18.5359 9.583 3.217 3.864-.345-2.385z" fill="#0000ab"/><path d="m18.5359 9.583.005.01.002-.001 2.755 5.884.455-2.029z" fill="#0014bf"/><path d="m18.541 9.593-1.646.325 4.403 5.558-2.755-5.884z" fill="#0000cf"/><path d="m16.8949 9.918-.371 3.687 4.774 1.871z" fill="#0000e3"/><path d="m16.8951 9.918-5.293 4.381 4.922-.694z" fill="#0000cf"/><path d="m21.2979 15.476-5.264 1.427 2.889-.325z" fill="#0014bf"/><path d="m16.034 16.903-2.908.497 2.958.497z" fill="#001cd1"/><path d="m18.9229 16.578-2.889.325.05.994z" fill="#0000ab"/><path d="m16.5241 13.605-4.922.694 4.432 2.604z" fill="#0000ab"/><path d="m11.6021 14.299 1.524 3.101 2.908-.497z" fill="#0000cf"/><path d="m11.6021 14.299.056 4.171 1.468-1.07z" fill="#0000ab"/><path d="m9.10888 15.135-1.031 1.097 1.615 2.437z" fill="#001cd1"/><path d="m8.07789 16.232-1.865.024 1.868 1.115z" fill="#0000ab"/><path d="m6.21289 16.257.149.77 1.719.346v-.002z" fill="#0000e3"/><path d="m6.21297 16.257-.92 1.715 1.069-.945z" fill="#0000cf"/><path d="m4 18.345 1.218.199.075-.572z" fill="#0000ab"/><path d="m6.36202 17.027-1.069.945-.075.572z" fill="#0000e3"/><path d="m8.08754 18.9863-.006-1.6132z" fill="#404a80"/><path d="m8.07788 16.232.003 1.139v.002l.006 1.613 1.606-.317z" fill="#0014bf"/><path d="m8.54403 20.816-1.337.538.173 1.866z" fill="#0000cf"/><path d="m7.20701 21.354-.499 2.189.672-.323z" fill="#0000ab"/><path d="m6.16602 24.417 1.394-.286-.18-.911z" fill="#0000cf"/><path d="m6.70802 23.543-.542.874 1.214-1.197z" fill="#0000e3"/><path d="m9.69303 18.669-1.606.317-.88 2.368z" fill="#0000ab"/><path d="m9.69303 18.669-2.486 2.685 1.337-.538 2.24297-.904z" fill="#0000e3"/><path d="m11.6019 14.299-2.49301.836.584 3.534z" fill="#0000cf"/><path d="m11.6021 14.299-1.90898 4.37 1.96498-.199z" fill="#0000e3"/><path d="m11.6581 18.47-1.96498.199 1.09498 1.243z" fill="#0000ab"/><path d="m21.2361 16.563-2.313.015.838 2.241z" fill="#0000cf"/><path d="m21.2981 15.476-2.375 1.102 2.313-.015z" fill="#0000e3"/><path d="m18.9229 16.578-.452 1.999 1.29.242z" fill="#0014bf"/><path d="m18.4711 18.577-.558 1.046 1.848-.804z" fill="#0000cf"/><path d="m18.4709 18.577-1.329.077-.348 1.715z" fill="#0000cf"/><path d="m18.4709 18.577-1.677 1.792 1.119-.746z" fill="#0000ab"/><path d="m25.617 9.686-2.2 1.545 2.309-1.165z" fill="#0014bf"/><path d="m25.6169 9.686.109.38 1.693-.469z" fill="#0000bf"/><path d="m23.46 12.504 1 .704.743-.218 1.647-.484z" fill="#0000bf"/><path d="m26.376 12.127-1.552.2-1.364.177 3.39.002z" fill="#00009e"/><path d="m27.713 10.954-1.337 1.173.474.379z" fill="#0014bf"/><path d="m26.8501 12.506 1.15-1.419-.287-.133z" fill="#0000e3"/><path d="m27.7129 10.954.287.133-.049-.805z" fill="#000f91"/><path d="m21.7531 13.447-.455 2.029.781.805z" fill="#0000ab"/><path d="m24.4599 13.208-2.707.239.326 2.834z" fill="#0000cf"/><path d="m21.408 11.062.345 2.385 2.707-.239z" fill="#0000e3"/><path d="m24.406 11.944-.946.56 1.364-.177z" fill="#0000ab"/><path d="m21.408 11.062 2.052 1.442.945-.56z" fill="#0000cf"/><path d="m21.408 11.062 2.997.882-.988-.713z" fill="#0000ab"/><path d="m24.4599 13.208-.124 4.488 1.208-3.608z" fill="#0014bf"/><path d="m24.4601 13.208-2.381 3.073 2.257 1.415z" fill="#0000e3"/><path d="m25.203 12.99-.743.218 1.084.88z" fill="#0000ab"/><path d="m25.5439 14.088-1.208 3.608 1.351-.62z" fill="#0000ab"/><path d="m16.5239 13.605-.49 3.298 5.264-1.427z" fill="#0000cf"/></svg>