<svg xmlns="http://www.w3.org/2000/svg" width="32" height="32" fill="none"><path fill="#fff" d="M16 32c8.837 0 16-7.163 16-16S24.837 0 16 0 0 7.163 0 16s7.163 16 16 16Z"/><path fill="#2DB8E3" fill-rule="evenodd" d="M18.74 10.167a1.25 1.25 0 0 0-.888-.367h-.003a1.243 1.243 0 0 0-.887.372L7.16 20.03a1.257 1.257 0 1 0 1.782 1.774l9.802-9.86a1.262 1.262 0 0 0-.004-1.778Z" clip-rule="evenodd"/><path fill="#3840C7" fill-rule="evenodd" d="M24.43 9.92a1.248 1.248 0 0 0-1.37.275l-9.803 9.86a1.256 1.256 0 1 0 1.782 1.774l7.655-7.699v6.812a1.257 1.257 0 0 0 2.513 0v-9.86a1.253 1.253 0 0 0-.777-1.162Z" clip-rule="evenodd"/></svg>