<svg fill="none" height="32" viewBox="0 0 32 32" width="32" xmlns="http://www.w3.org/2000/svg"><path d="m16 32c8.8366 0 16-7.1634 16-16 0-8.83656-7.1634-16-16-16-8.83656 0-16 7.16344-16 16 0 8.8366 7.16344 16 16 16z" fill="#fff"/><g clip-rule="evenodd" fill-rule="evenodd"><path d="m18.7392 10.1666c-.1164-.1165-.2547-.20894-.4069-.27186-.1523-.06292-.3155-.09512-.4802-.09473h-.0032c-.1651-.00003-.3285.03283-.4808.09664-.1522.06381-.2902.15735-.4059.27505l-9.80273 9.8593c-.11672.1169-.20926.2557-.27231.4084-.06306.1527-.09539.3163-.09517.4815.00023.1652.03302.3288.09649.4813.06348.1525.1564.291.27344.4076.11705.1166.25593.209.4087.2719.15277.0628.31643.095.48164.0946.1652-.0005.3287-.0334.48115-.0971.15245-.0636.29086-.1567.40731-.2739l9.80218-9.8598c.2346-.2368.3659-.5568.3653-.8902-.0007-.3333-.1334-.6528-.369-.8887z" fill="#2db8e3"/><path d="m24.4304 9.92c-.2298-.09606-.483-.12119-.7272-.07215-.2441.04904-.468.17005-.6428.34735l-9.8036 9.8602c-.1165.117-.2088.2559-.2716.4086-.0628.1526-.095.3162-.0946.4813s.0333.3285.0969.4809c.0635.1524.1564.2908.2735.4072.117.1165.2558.2088.4085.2716s.3162.095.4814.0946c.1651-.0004.3285-.0333.4809-.0969.1523-.0635.2907-.1564.4072-.2735l7.6546-7.699v6.8119c0 .3333.1324.6529.3681.8886.2357.2356.5553.368.8886.368.3332 0 .6529-.1324.8885-.368.2357-.2357.3681-.5553.3681-.8886v-9.8593c.0008-.2491-.0726-.4927-.2109-.6998-.1383-.2072-.3353-.3683-.5656-.463z" fill="#3840c7"/></g></svg>