<svg xmlns="http://www.w3.org/2000/svg" width="32" height="32" fill="none"><defs><linearGradient id="porto__b" x1="16.001" x2="16.001" y1="10.055" y2="4.614" gradientUnits="userSpaceOnUse"><stop stop-color="#128D45"/><stop offset="1" stop-color="#39B54A"/></linearGradient><linearGradient id="porto__c" x1="17.42" x2="17.42" y1="14.091" y2="11.637" gradientUnits="userSpaceOnUse"><stop stop-color="#fff"/><stop offset="1" stop-color="#3899D5"/></linearGradient><linearGradient id="porto__d" x1="13.453" x2="18.789" y1="9.76" y2="9.76" gradientUnits="userSpaceOnUse"><stop stop-color="#B27130"/><stop offset="1" stop-color="#E6AD4E"/></linearGradient><linearGradient id="porto__e" x1="14.581" x2="14.581" y1="17.406" y2="14.926" gradientUnits="userSpaceOnUse"><stop stop-color="#fff"/><stop offset="1" stop-color="#3899D5"/></linearGradient><linearGradient id="porto__f" x1="14.59" x2="14.59" y1="17.66" y2="17.01" gradientUnits="userSpaceOnUse"><stop stop-color="#1D3967"/><stop offset="1" stop-color="#D02028"/></linearGradient><linearGradient id="porto__g" x1="17.428" x2="17.428" y1="14.34" y2="13.69" gradientUnits="userSpaceOnUse"><stop stop-color="#1D3967"/><stop offset="1" stop-color="#D02028"/></linearGradient><radialGradient id="porto__a" cx="0" cy="0" r="1" gradientTransform="translate(18.733 17.913) scale(8.4586)" gradientUnits="userSpaceOnUse"><stop offset=".25" stop-color="#3899D5"/><stop offset="1" stop-color="#1D3967"/></radialGradient></defs><path fill="#002544" d="M16 32c8.837 0 16-7.163 16-16S24.837 0 16 0 0 7.163 0 16s7.163 16 16 16Z"/><path fill="#fff" d="M16.002 28C11.038 28 7 23.96 7 18.995a9.003 9.003 0 0 1 3.633-7.218.584.584 0 0 1 .17-.382l.02-.048a.598.598 0 0 1 .054-.087l.002-.004c0-.135.041-.272.124-.378l.007-.01a.731.731 0 0 1-.06-.291c0-.177.067-.343.19-.467l.313-.311.015-.015a.638.638 0 0 1 .161-.11.603.603 0 0 1 .123-.178l.16-.16a.712.712 0 0 1-.15-.116.699.699 0 0 1-.271-.449.734.734 0 0 1 .094-.488.734.734 0 0 1 .067-.961.694.694 0 0 1 .322-.18.92.92 0 0 1-.015-.6.738.738 0 0 1 .036-.085l-.078-.048c-.074-.046-.096-.06-.208-.074a.589.589 0 0 1-.42-.256 1.29 1.29 0 0 1-.393-.137.596.596 0 0 1 .303-1.118h.04c.059 0 .081-.005.081-.005a1.075 1.075 0 0 1 .647-.2h.04a.598.598 0 0 1 .4-.545A1.27 1.27 0 0 1 12.825 4c.448 0 .715.272.844.402l.018.02a.6.6 0 0 1 .15.087c.449.057.691.321.836.501a.643.643 0 0 1 .145-.068l.072-.039c.107-.105.221-.196.347-.278a1.63 1.63 0 0 1 .385-.438.594.594 0 0 1 .745.01c.17-.034.352-.05.59-.046a.596.596 0 0 1 .578.657.966.966 0 0 1 .089.093.686.686 0 0 1 .152.334c.084.103.149.207.2.306.177.058.3.16.378.226l.021.02a.972.972 0 0 1 .44.196c.072.048.14.106.21.182.13.085.225.212.272.364a.797.797 0 0 1-.033.526l.01.194a.706.706 0 0 1 .548-.262c.341 0 .631.233.705.567l.008.04c.01.066.01.13.002.194a.718.718 0 0 1 .397.365.716.716 0 0 1-.054.69.72.72 0 0 1-.479.321 1.021 1.021 0 0 1-.148.312l.017.017c.05.051.09.11.12.173a.66.66 0 0 1 .18.128l.313.312a.655.655 0 0 1 .191.466c0 .055 0 .157-.068.308a.611.611 0 0 1 .123.378v.002a.538.538 0 0 1 .073.135.578.578 0 0 1 .172.381 9.017 9.017 0 0 1 3.633 7.22C25.004 23.96 20.966 28 16.002 28Z"/><path fill="url(#porto__a)" d="M16.002 10.588c-4.631 0-8.408 3.78-8.408 8.407 0 4.632 3.777 8.41 8.408 8.41 4.63 0 8.408-3.777 8.408-8.41 0-4.628-3.779-8.407-8.408-8.407Z"/><path fill="#fff" d="M15.994 10.546c-1.567-.003-3.03 3.875-3.033 8.129-.004 4.487 1.166 6.897 2.5 7.565.146-.06.34-.094.532-.094.188 0 .376.031.521.088 1.378-.677 2.507-3.115 2.507-7.56 0-4.256-1.399-8.128-3.027-8.128Zm3.833 16.061c-1.185.257-1.952.503-3.163.1-.138.1-.38.16-.626.166v.621h-.088v-.621c-.247-.006-.487-.066-.625-.167-1.234.418-1.956.158-3.16-.099l.017-.087c1.172.25 1.882.506 3.07.117a.206.206 0 0 1-.042-.152c-5.62-.713-6.633-5.86-6.63-8.72a8.029 8.029 0 0 1 2.085-5.41l.09.034a8.03 8.03 0 0 0-2.087 5.376c-.002 2.857 1.008 7.941 6.575 8.634a.378.378 0 0 1 .12-.11c-1.358-.733-2.493-3.19-2.49-7.614.003-4.22 1.452-8.22 3.121-8.218 1.732 0 3.116 3.997 3.116 8.218 0 4.38-1.094 6.864-2.494 7.608a.382.382 0 0 1 .132.115c5.555-.705 6.568-5.764 6.568-8.631v-.137l-.4-.273c-.013.005-.026.016-.049.014a.094.094 0 0 1-.1-.093c-.002-.041.037-.087.098-.09.054.003.095.042.097.094l.35.237a9.318 9.318 0 0 0-.027-.521l-.42-.288c-.014.005-.028.016-.05.014a.094.094 0 0 1-.1-.094c-.003-.04.036-.087.098-.089a.097.097 0 0 1 .097.094l.365.247a8.779 8.779 0 0 0-.071-.563l-.45-.306c-.014.004-.028.016-.05.013a.094.094 0 0 1-.1-.093c-.002-.041.036-.087.098-.09.054.003.095.042.097.094l.384.259a7.84 7.84 0 0 0-.114-.539l-.48-.328c-.014.005-.027.016-.05.014a.094.094 0 0 1-.1-.094c-.002-.04.037-.087.098-.089a.098.098 0 0 1 .097.094l.401.27a7.29 7.29 0 0 0-1.795-3.144l.058-.083a7.46 7.46 0 0 1 1.848 3.303l.337.228c.006-.009.03-.011.05-.011.056.002.097.043.095.091 0 .062-.048.092-.098.092a.095.095 0 0 1-.095-.092l-.257-.176c.04.174.076.352.106.532l.364.245c.007-.009.03-.012.05-.012.056.003.097.044.095.092 0 .062-.048.092-.097.092a.095.095 0 0 1-.096-.092l-.296-.202c.027.184.05.37.066.559l.39.263c.006-.009.029-.011.05-.011.056.002.097.043.094.091 0 .062-.047.092-.097.092a.095.095 0 0 1-.095-.092l-.333-.227c.013.17.02.343.024.518l.409.276c.006-.01.03-.012.05-.012.056.002.097.044.094.092 0 .062-.047.092-.097.092a.095.095 0 0 1-.095-.092l-.36-.245v.076c0 2.87-1.014 7.992-6.623 8.717a.204.204 0 0 1-.044.153c1.168.376 1.917.133 3.07-.118l.02.088Zm-3.132-.097c0-.126-.28-.275-.7-.275-.421 0-.7.149-.7.275 0 .127.279.274.7.274.42 0 .7-.147.7-.274Z"/><path fill="#0E2C4C" d="M11.457 12.871c.07.102.156.17.228.213-.035.025-.056.036-.056.036-.026.014-.006.053.02.04 0 0 .031-.017.078-.052a.59.59 0 0 0 .098.042c.029.009.04-.034.013-.042 0 0-.03-.009-.073-.03.044-.038.085-.078.121-.12.183.103.247-.02.25-.024.025-.041.155-.22.147-.224-.102-.034-.213.031-.287.092a.963.963 0 0 0 .061-.125c.274-.052.284-.392.274-.395-.018-.005-.133.043-.127.039.103-.074.11-.166.11-.175 0-.12.049-.158.042-.16-.11-.027-.177.046-.208.091a1.821 1.821 0 0 0-.034-.253c.132-.066.078-.421.072-.418-.157.105-.147.285-.152.255-.004-.03-.1-.098-.109-.103-.055-.027-.083-.108-.086-.1a.26.26 0 0 0-.007.124.093.093 0 0 1-.016-.002l-.06-.007s.075-.061.09-.153c.078.051.153.08.19.043l.311-.311c.03-.03.02-.082-.01-.14l.188-.188.123.027.173-.172c.066-.066-.073-.232-.108-.28l-.1.1-.028-.034.1-.1a3.113 3.113 0 0 0-.266-.265l-.099.098-.03-.024.099-.1c-.047-.035-.215-.176-.281-.11l-.173.173.015.121-.185.186c-.053-.025-.1-.032-.129-.005l-.312.312c-.094.094.224.413.26.45.013.012.058.057.116.107a.179.179 0 0 1-.032.034c-.006.004-.102.079-.075.189.001.004-.153.045-.153.107 0 .005-.072-.187-.154-.214-.005-.002.02.05.005.12 0 .005-.144.215.1.398.009.006-.006.006.008.039-.01.03-.018.058-.025.086-.01-.037-.04-.136-.072-.16-.005-.003-.063-.082-.13-.115-.007-.004-.052.212-.003.278.004.005-.069-.041-.132-.073-.008-.004.065.092.065.22 0 .013-.005.205.222.163-.001.037 0 .072.002.106a.556.556 0 0 0-.309-.116c-.006 0 .097.056.117.194.001.012.02.124.07.146.012.006-.074-.029-.188.104-.006.008.075.005.193.097.01.007.146.124.248-.04Zm-.084-.546c.047.006.158.005.236-.242.007-.021.021-.162.021-.162s.019-.033.023-.055c.002-.01.021-.058.031-.058a.302.302 0 0 0 .169-.122l.003.01c.073.186.204.2.227.2.01.057.017.113.02.17a.44.44 0 0 0-.202-.211c.06.093.02.232.019.241-.02.205.175.264.176.27l-.006.04c-.007.026-.018.05-.019.047-.052-.183-.2-.22-.198-.217.044.043.02.189.018.2-.036.16.075.215.124.232-.023.054-.05.107-.082.157.034-.16-.103-.324-.103-.324l-.074.19c-.068.189.04.249.074.266a1.019 1.019 0 0 1-.106.1.725.725 0 0 1-.153-.115c.028-.043.126-.158.126-.169 0-.012.073-.073-.042-.275-.004-.007.014.068-.105.148-.003.002-.116.07-.051.21a.638.638 0 0 1-.07-.125c.042-.037.156-.126.189-.303.002-.012.014-.105-.038-.165-.006-.007-.16.072-.204.256a1.011 1.011 0 0 1-.003-.194ZM19.23 10.1c-.096.084-.182.17-.266.265l.1.1-.028.034-.1-.1c-.035.048-.174.214-.108.28l.172.172.124-.027.188.187c-.03.059-.041.11-.01.14l.31.312c.038.037.113.008.19-.043a.276.276 0 0 0 .091.153l-.06.007-.017.002a.253.253 0 0 0-.006-.124c-.004-.008-.031.072-.087.1-.009.005-.104.072-.108.103-.005.03.005-.15-.152-.255-.006-.004-.06.352.072.418a1.821 1.821 0 0 0-.034.253c-.03-.044-.098-.118-.207-.09-.008.001.04.038.04.159 0 .008.009.101.112.175.006.004-.11-.043-.128-.039-.01.003 0 .343.274.395a.98.98 0 0 0 .061.125c-.074-.06-.184-.126-.286-.092-.009.003.122.183.147.224.002.005.066.127.249.024.036.042.077.082.122.12-.044.021-.073.03-.073.03-.029.008-.016.05.012.042a.536.536 0 0 0 .098-.042.632.632 0 0 0 .078.051c.026.014.047-.025.02-.039 0 0-.021-.011-.055-.036a.753.753 0 0 0 .228-.213c.1.164.238.047.248.04.117-.092.199-.09.192-.098-.113-.132-.2-.098-.188-.103.05-.023.069-.135.07-.147.02-.137.124-.193.117-.193a.556.556 0 0 0-.308.115c.002-.033.003-.069.002-.105.226.042.221-.15.221-.163 0-.128.074-.225.065-.22-.062.03-.135.077-.132.072.05-.065.005-.281-.002-.278-.067.034-.125.112-.13.116-.032.024-.062.122-.072.16a1.802 1.802 0 0 0-.025-.087c.014-.032-.001-.032.007-.038.244-.183.101-.394.1-.4-.014-.069.01-.12.006-.118-.082.027-.154.219-.154.213 0-.061-.154-.102-.153-.107.027-.11-.07-.184-.075-.189a.178.178 0 0 1-.032-.033c.058-.05.102-.095.114-.107.037-.037.354-.357.26-.45l-.312-.313c-.028-.027-.075-.02-.128.005l-.186-.185.015-.122-.172-.172c-.065-.066-.234.075-.281.11l.1.1-.032.024-.098-.098Zm.734 1.707c.01 0 .029.048.031.059a.265.265 0 0 0 .023.055s.014.14.021.162c.078.247.19.248.237.241.005.066.005.13-.002.194-.044-.185-.199-.264-.205-.256-.051.06-.04.153-.037.165.032.177.147.265.188.303a.639.639 0 0 1-.07.125c.065-.141-.047-.209-.05-.21-.12-.08-.102-.156-.106-.148-.115.2-.042.263-.042.275 0 .01.098.125.126.168a.731.731 0 0 1-.152.115 1.03 1.03 0 0 1-.107-.1c.034-.017.143-.076.074-.266l-.074-.19s-.136.164-.103.324a1.05 1.05 0 0 1-.082-.157c.05-.016.16-.072.124-.23-.003-.013-.026-.158.018-.202.003-.003-.145.034-.198.217 0 .004-.012-.02-.019-.046l-.006-.04c.001-.007.195-.065.176-.27 0-.01-.04-.149.02-.242a.44.44 0 0 0-.203.212 1.64 1.64 0 0 1 .02-.17c.022-.001.154-.015.227-.201l.003-.01a.295.295 0 0 0 .168.123Z"/><path fill="#0E2C4C" d="m18.973 19.585-.005-.04.136-.033a3.138 3.138 0 0 0-.09-.365l-.138.034-.014-.04.138-.035c-.023-.055-.094-.26-.184-.237l-.236.06-.041.12-.258.063c-.034-.056-.073-.091-.115-.08l-.428.106c-.082.02-.067.212-.042.358l-.132-.002a.257.257 0 0 0-.148.02c-.048 0-.088-.01-.117-.05l-.008-.01a.167.167 0 0 0-.018-.02.29.29 0 0 0 .145-.035c.09-.067.154-.053.151-.058-.158-.238-.387-.013-.429.02a.847.847 0 0 0-.122-.028.846.846 0 0 0 .127-.145c-.02.02-.157 0-.163-.002-.186-.037-.28.033-.28.033s.02-.041.023-.05c.035-.083.097-.088.089-.092-.148-.074-.26-.024-.255-.033.02-.047.033-.188.02-.186-.142.032-.185.093-.19.098-.075.074-.108.349-.115.413a2.436 2.436 0 0 0-.114.03.338.338 0 0 0-.33-.373c-.002-.146.313-.5.77-.5h1.586c.365 0 .728-.364.728-.732v-6.313h-2.176c.78-.066 1.303-.208 1.383-.353l.996-1.624s-.148.12-.198.146c.192-.065-.012.006-.01.005a.077.077 0 0 0 .01-.005l-.079.027c-.339.116-.326-.257-.326-.257s.03-.23-.013-.176c-.045.056-.237.273-.49.299-.254.026-.343-.175-.356-.311-.013-.137-.011-.084-.062-.043-.042.034-.279.35-.557.09-.277-.262-.206-.636-.348-.418a1.07 1.07 0 0 1-.416.38c-.128.07-.326-.062-.396-.231-.071-.17-.062-.006-.261.178-.2.185-.4-.002-.57-.233-.17-.229-.159-.177-.202-.039a1.221 1.221 0 0 1-.23.373c-.076.091-.298.128-.492-.071-.194-.2-.03.244-.348.315-.357.079-.65-.453-.64-.242.012.224-.02.356-.195.41-.176.054-.429-.197-.429-.197l.997 1.624c.08.15.597.289 1.367.353h-2.148V17.8c-.002.363.36.728.728.728h1.59c.45 0 .784.355.787.5h-.005a.338.338 0 0 0-.336.372 2.403 2.403 0 0 0-.114-.03c-.007-.065-.04-.339-.115-.413-.005-.006-.048-.067-.19-.098-.013-.003 0 .139.02.186.004.009-.107-.041-.255.033-.008.004.053.01.089.092l.023.05s-.094-.07-.28-.033c-.007.001-.143.023-.164.002a.91.91 0 0 0 .127.145.834.834 0 0 0-.121.029c-.042-.034-.271-.258-.43-.02-.002.003.062-.01.152.058a.29.29 0 0 0 .145.034.224.224 0 0 0-.018.02l-.008.01c-.029.04-.07.051-.117.05a.253.253 0 0 0-.148-.02l-.132.002c.024-.146.04-.338-.042-.358l-.428-.107c-.042-.01-.081.026-.116.081l-.257-.064-.04-.12-.237-.059c-.09-.022-.161.182-.185.237l.139.034-.014.041-.138-.034c-.038.12-.068.24-.09.365l.135.034-.005.04-.137-.035c-.006.058-.04.275.05.297l.238.059.096-.076.255.064c.006.058.024.102.062.113l.428.106c.129.032.239-.405.251-.455a1.23 1.23 0 0 0 .011-.046.28.28 0 0 0 .132.06c.01.001.056.035.075.13.002.009.021.127.122.16.012.004-.13.058-.187.114-.004.004.146.018.258.082.012.007.175.016.252-.061a.24.24 0 0 1-.12.121c-.004.002.287.125.482-.119a.75.75 0 0 0 .066.002 2.917 2.917 0 0 0-.098.192c-.002.005.414-.005.414-.245a.16.16 0 0 1 .025-.035.707.707 0 0 0 .043-.027.47.47 0 0 0-.021.125.443.443 0 0 1-.034.146c-.001.002.37-.175.204-.419a.7.7 0 0 0 .101-.191c.026.016.054.03.085.038a.128.128 0 0 0 .03.033l-.109.6v-.106c-.043.007-.206.021-.206.09v.182l.072.056v.01a1.19 1.19 0 0 0-.345.153l-.19-.169a.103.103 0 0 0 .026-.066.104.104 0 0 0-.209 0c0 .055.049.103.106.103a.103.103 0 0 0 .053-.016l.102.23a1.194 1.194 0 0 0-.394 1.232l-.206.12a.104.104 0 0 0-.194.053c0 .055.048.103.106.103a.106.106 0 0 0 .103-.103l-.001-.013.237-.023c.169.418.566.718 1.037.747l.052.247a.104.104 0 0 0-.082.1c0 .055.049.104.106.104a.106.106 0 0 0 .101-.104.104.104 0 0 0-.081-.1l.052-.247c.47-.029.867-.33 1.035-.747l.238.024a.104.104 0 0 0 .103.116.106.106 0 0 0 .103-.104.103.103 0 0 0-.19-.055l-.208-.12a1.195 1.195 0 0 0-.394-1.231l.09-.202a.093.093 0 0 0 .042.009.106.106 0 0 0 .103-.103.104.104 0 0 0-.103-.103.103.103 0 0 0-.078.17l-.166.147a1.19 1.19 0 0 0-.353-.155v-.012l.08-.05v-.182c0-.07-.16-.084-.205-.09v.106l-.104-.598a.115.115 0 0 0 .033-.035.345.345 0 0 0 .085-.039c.01.03.04.108.101.191-.166.244.206.42.204.419a.43.43 0 0 1-.033-.146.45.45 0 0 0-.022-.125c.014.01.028.019.043.027a.179.179 0 0 1 .026.035c0 .24.416.25.415.245a2.917 2.917 0 0 0-.1-.192c.022 0 .044 0 .067-.002.195.244.486.121.482.12a.24.24 0 0 1-.12-.122c.078.078.24.068.253.061.111-.064.261-.079.257-.082-.056-.056-.199-.11-.187-.114.101-.033.12-.152.122-.16.019-.095.065-.129.075-.13a.28.28 0 0 0 .132-.06l.01.046c.013.05.123.487.252.455l.428-.106c.038-.012.056-.055.062-.113l.255-.064.097.076.236-.059c.09-.022.057-.239.05-.297l-.137.033Zm-3.38.037s-.012.042-.042.1l-.021.036a.324.324 0 0 0-.417.011c-.007.005.031-.01.167.068.01.006.094.057.173.025a.548.548 0 0 1-.1.087.77.77 0 0 0-.087-.043c-.006-.002-.085-.157-.377-.157-.007 0 .045.073.052.108.001.006.021.072.057.09.008.004-.047.04-.047.05 0 .009 0-.218-.338-.293-.012-.003.023.01.043.129.001.008-.051-.121-.216-.121-.01 0-.083-.032-.093-.05a.928.928 0 0 0 .033.108c0 .003-.149-.1-.24-.1-.011 0 .093-.03.122-.06.006-.006.314.125.41-.225l.035-.006c.02.01.048.02.073.01.008-.002-.065.06-.102.147a.646.646 0 0 1-.095.124c-.005.002.224-.02.304-.1.008-.008-.015.043-.024.09-.001.007.123-.085.22-.09.01 0 .174-.004.232-.146.099.02.169.042.186.048a.34.34 0 0 0 .096.15l-.005.01Zm-.15 1.206v.122l-.087-.078a.834.834 0 0 1 .088-.044Zm-.581.882c0-.273.114-.519.297-.693l.108.245a.702.702 0 0 0-.162.5l-.225.131a.96.96 0 0 1-.018-.183Zm.098.421.263-.026a.704.704 0 0 0 .414.292l.056.262a.958.958 0 0 1-.733-.528Zm.987.528.057-.268c.162-.047.3-.15.391-.288l.285.029a.96.96 0 0 1-.733.527Zm.83-.95a.954.954 0 0 1-.017.184l-.248-.145v-.034a.705.705 0 0 0-.148-.433l.117-.264c.182.174.296.42.296.693Zm-.582-.76v-.121c.03.013.06.027.088.043l-.088.078Zm-.287-1.398a.11.11 0 0 0-.083-.038.115.115 0 0 0-.084.037.214.214 0 0 1 .085-.41.214.214 0 0 1 .082.41Zm1.6.119c-.091 0-.24.103-.24.1a.928.928 0 0 0 .033-.108c-.009.019-.082.05-.093.05-.165 0-.217.13-.216.121.02-.118.055-.131.043-.129-.337.075-.338.302-.338.293 0-.01-.055-.046-.047-.05.036-.017.056-.083.057-.09.007-.035.06-.107.052-.107-.291 0-.37.154-.377.157a.77.77 0 0 0-.086.042.565.565 0 0 1-.101-.087c.078.032.164-.02.173-.024.136-.078.174-.063.168-.068a.324.324 0 0 0-.418-.011 2.444 2.444 0 0 1-.02-.037c-.03-.057-.042-.1-.042-.1l-.004-.008a.338.338 0 0 0 .096-.151c.018-.006.087-.027.186-.048.058.143.222.147.232.147.097.004.221.097.22.09-.009-.047-.032-.099-.024-.09.08.079.31.102.305.1a.628.628 0 0 1-.096-.125c-.038-.086-.11-.148-.102-.146.025.009.053-.001.073-.01l.034.006c.098.35.405.218.411.225.028.028.132.058.12.058Z"/><path fill="#0E2C4C" d="m12.484 19.257-.006.008c.021-.142.026-.285.01-.423.03-.012.13-.046.174-.164.002-.007.012-.156.042-.2.005-.009-.172.054-.203.13-.002.004.05-.207-.102-.386-.007-.009-.049.107-.062.187l-.016-.024c.02-.039.04-.117-.02-.28a6.96 6.96 0 0 0-.085-.18c-.003-.006-.005.057-.047.143a.341.341 0 0 0-.033.129l-.016-.012a.3.3 0 0 0-.273-.276c-.004 0-.006-.038-.034-.083.132-.004.455-.023.455-.134v-.44c0-.043-.045-.072-.107-.092v-.266l.107-.068v-.243c0-.093-.216-.113-.275-.122v.142l-.043-.004v-.142a3.141 3.141 0 0 0-.376 0v.14l-.04.005v-.141c-.058.008-.276.028-.276.12v.244l.097.075v.263c-.055.02-.093.048-.095.087v.442c0 .091.219.12.37.13-.004.05.004.099.035.13.006.006-.013.037-.051.056-.004.002-.156.066-.156.234 0 .008-.096-.067-.15-.057-.006 0 .026.05.02.14-.002.013-.099.25.237.33.008.002.004.124.04.199-.008-.017-.109-.197-.378-.152-.005 0 .031.007.08.092.004.007.065.275.338.152.01-.005.06.128.062.129 0-.001-.247-.114-.403.059-.008.008.038-.017.111.05a.285.285 0 0 0 .265.055c.007-.002-.132.047-.171.08-.007.006.073-.003.172.08.006.005.13.148.326.025.007-.004-.04.042-.068.081a.182.182 0 0 1-.082.037s.269.119.458-.085a.5.5 0 0 0 .076-.04l-.01.034c-.01.035.043.052.054.016 0 0 .012-.04.026-.105.042-.04.067-.072.068-.073.022-.03-.023-.063-.045-.032Zm-.251-.42c.002.006.068.115.148.115 0 0-.146.001-.227-.08-.004-.004-.022.386.26.442l-.005.02a.488.488 0 0 1-.05.04c-.027-.013-.175-.062-.264-.012-.006.004.107-.108-.006-.262-.01-.014-.114-.143-.137-.195-.003-.006-.01.021-.016.04-.001.004 0-.126-.072-.233a.405.405 0 0 0-.09.12c-.002.003-.005-.208-.07-.306-.007-.011.03-.043.03-.176 0-.01-.003-.03.01-.146.002-.015-.048.002-.073.028-.005.005.062-.155.035-.234-.003-.01.028.037.097.054.007.002-.057.016-.072.042-.005.008.04.005.116.1a.128.128 0 0 1-.057-.005c-.002 0 .186.183.268.183.004 0-.081.007-.122.02 0 .002.02.007.106.116.003.003.072.196.356.172.009.03.016.06.021.09a.664.664 0 0 0-.291-.058c-.005 0 .06.035.105.126Zm-.776-2.73c.07.102.156.169.228.213a.586.586 0 0 1-.056.036c-.026.013-.006.052.02.039 0 0 .031-.016.078-.052a.6.6 0 0 0 .098.042c.029.009.041-.034.013-.042 0 0-.03-.008-.073-.03a1.07 1.07 0 0 0 .121-.12c.183.103.247-.019.25-.024.025-.04.155-.22.147-.223-.102-.034-.213.03-.287.091.023-.04.043-.082.061-.124.274-.052.284-.393.274-.396-.018-.005-.133.043-.127.039.103-.073.11-.166.11-.175 0-.12.049-.158.042-.16-.11-.027-.178.047-.208.091a1.821 1.821 0 0 0-.034-.253c.132-.066.078-.421.072-.417-.157.104-.147.285-.152.254-.004-.03-.1-.098-.109-.103-.055-.027-.083-.108-.086-.1a.26.26 0 0 0-.007.124 4.088 4.088 0 0 0-.076-.008s.109-.09.09-.213c.145-.006.422-.03.422-.132v-.44c0-.043-.044-.073-.107-.093v-.265l.107-.068v-.244c0-.093-.215-.113-.274-.122v.143l-.044-.005v-.141a3.141 3.141 0 0 0-.375 0v.14l-.04.005v-.142c-.058.009-.276.029-.276.122v.243l.096.075v.263c-.055.02-.093.048-.094.088v.44c0 .097.236.124.386.131-.028.03-.074.09-.054.171 0 .005-.153.045-.153.107 0 .006-.073-.186-.155-.214-.004-.001.02.05.006.12-.001.005-.144.216.1.399.008.006-.007.006.008.038l-.026.086c-.01-.037-.04-.135-.072-.16-.005-.003-.063-.081-.13-.115-.007-.003-.052.213-.002.278.003.005-.07-.04-.132-.072-.009-.005.065.092.065.22 0 .012-.005.205.221.163 0 .037 0 .072.002.105a.557.557 0 0 0-.308-.115c-.007 0 .097.056.116.193.002.012.021.124.07.146.013.006-.074-.029-.187.104-.007.007.075.005.192.097.01.008.147.125.248-.038Zm-.085-.547c.047.006.16.005.237-.242a2 2 0 0 0 .021-.161s.019-.034.023-.055c.002-.011.021-.059.031-.059a.302.302 0 0 0 .169-.121l.003.009c.073.186.204.2.227.2.01.057.017.114.02.17a.44.44 0 0 0-.202-.21c.06.092.02.23.019.24-.02.206.175.264.176.27l-.006.04c-.007.026-.018.051-.019.047-.052-.183-.2-.22-.198-.217.044.043.02.19.018.201-.036.159.074.215.124.231-.023.055-.05.107-.082.157.033-.16-.103-.324-.103-.324l-.074.19c-.068.19.04.249.074.266a1.009 1.009 0 0 1-.106.1.745.745 0 0 1-.153-.115c.028-.043.126-.158.126-.168 0-.012.073-.074-.042-.275-.004-.008.014.067-.105.147-.003.002-.116.07-.051.21a.641.641 0 0 1-.07-.124c.042-.038.156-.126.189-.303.002-.012.014-.105-.038-.165-.006-.008-.16.071-.204.256a1.011 1.011 0 0 1-.003-.195Zm8.669 3.295c.037-.075.033-.197.041-.199.336-.08.239-.317.238-.33-.006-.089.025-.139.02-.14-.055-.009-.15.066-.15.058 0-.168-.153-.233-.157-.235-.037-.018-.056-.05-.051-.056.032-.031.039-.08.036-.13.15-.01.369-.038.369-.13v-.442c-.002-.04-.04-.067-.095-.087v-.262l.097-.075v-.244c0-.093-.218-.113-.276-.121v.14l-.04-.004v-.14a2.944 2.944 0 0 0-.376 0v.142l-.043.004v-.142c-.06.01-.274.028-.274.122v.244l.106.068v.265c-.062.02-.107.05-.107.092v.44c0 .111.324.13.455.134-.028.045-.03.082-.034.083a.3.3 0 0 0-.273.276l-.016.012a.33.33 0 0 0-.032-.13c-.043-.085-.044-.148-.047-.142-.014.028-.08.166-.085.18-.06.164-.04.242-.02.28l-.017.024c-.013-.08-.055-.195-.062-.187-.151.179-.1.39-.102.385-.03-.076-.208-.137-.203-.129.03.044.04.193.042.2.044.118.144.152.175.164-.017.137-.012.282.009.423l-.006-.008c-.022-.03-.067.003-.045.033 0 0 .025.033.068.072.013.066.025.106.025.106.011.035.065.019.054-.017l-.01-.034c.024.015.049.03.076.04.19.205.461.085.458.085a.182.182 0 0 1-.082-.036c-.028-.04-.075-.086-.068-.081.196.122.32-.02.326-.025.1-.083.179-.074.173-.08-.04-.033-.179-.082-.172-.08.157.043.26-.051.265-.055.074-.067.12-.041.11-.05-.154-.174-.403-.06-.402-.06.003 0 .052-.133.063-.128.272.123.333-.146.337-.152.049-.085.086-.092.08-.093-.268-.045-.37.136-.378.152Zm-.064-.623c-.026-.026-.076-.044-.074-.029.013.116.01.137.01.146 0 .134.038.165.03.176-.065.098-.068.31-.07.305a.414.414 0 0 0-.09-.119c-.07.107-.07.237-.071.234-.007-.02-.014-.047-.017-.041-.022.052-.126.182-.136.195-.113.154 0 .266-.007.262-.088-.05-.236 0-.262.012a.498.498 0 0 1-.052-.04l-.004-.02c.282-.056.264-.445.26-.441-.08.08-.227.079-.227.079.08 0 .145-.109.148-.114.045-.091.11-.126.105-.126a.666.666 0 0 0-.292.057.938.938 0 0 1 .022-.09c.284.024.353-.169.356-.171.087-.11.106-.115.106-.116-.04-.013-.126-.02-.121-.02.081 0 .27-.184.267-.183a.114.114 0 0 1-.056.005c.075-.095.121-.092.116-.1-.016-.026-.08-.04-.072-.042.068-.017.1-.065.096-.055-.027.08.04.241.035.236Zm.467-2.287c.05-.022.068-.134.07-.146.02-.137.123-.193.117-.193a.557.557 0 0 0-.309.115.907.907 0 0 0 .002-.105c.227.042.222-.151.222-.163 0-.128.073-.225.065-.22-.063.03-.136.077-.132.072.05-.066.004-.281-.002-.278-.068.034-.126.112-.13.116-.033.024-.062.122-.072.16a1.768 1.768 0 0 0-.026-.087c.015-.032 0-.032.008-.038.244-.183.1-.394.1-.4-.014-.069.01-.12.005-.119-.081.028-.154.22-.154.214 0-.061-.154-.102-.153-.107.02-.08-.026-.142-.055-.17.15-.008.387-.036.387-.131v-.441c-.002-.04-.04-.068-.095-.088v-.263l.097-.075v-.244c0-.092-.218-.112-.276-.12v.14l-.04-.005v-.14a3.04 3.04 0 0 0-.376 0v.143l-.043.004v-.143c-.06.01-.274.029-.274.122v.244l.106.068v.265c-.062.02-.106.05-.106.092v.44c0 .103.277.127.422.133-.02.123.09.213.09.213l-.06.006a.232.232 0 0 1-.017.002.254.254 0 0 0-.006-.124c-.004-.008-.031.072-.087.1-.009.005-.104.073-.108.103-.005.03.005-.15-.152-.254-.006-.004-.06.351.072.417a1.821 1.821 0 0 0-.034.253c-.03-.044-.098-.118-.207-.09-.008.002.04.039.04.159 0 .009.009.101.112.175.006.005-.11-.043-.128-.039-.01.003 0 .344.274.396.017.042.038.084.061.124-.074-.06-.184-.125-.286-.091-.009.003.122.182.147.224.002.004.066.126.249.023a.99.99 0 0 0 .122.12c-.044.022-.073.03-.073.03-.029.009-.016.051.012.043a.555.555 0 0 0 .098-.042.632.632 0 0 0 .078.051c.026.014.047-.025.02-.039 0 0-.021-.011-.055-.036a.755.755 0 0 0 .228-.213c.1.164.238.047.248.04.117-.092.199-.09.192-.098-.114-.134-.2-.1-.188-.105Zm-.17-.191c-.045-.185-.2-.264-.205-.256-.052.06-.04.153-.038.165.033.177.147.265.189.303a.639.639 0 0 1-.07.125c.065-.141-.048-.209-.05-.21-.12-.08-.102-.156-.107-.148-.115.2-.041.263-.041.275 0 .01.098.125.126.168a.727.727 0 0 1-.153.115 1.009 1.009 0 0 1-.106-.1c.034-.017.142-.077.073-.266l-.073-.19s-.136.164-.103.324a1.04 1.04 0 0 1-.083-.157c.05-.016.16-.072.124-.23-.002-.013-.025-.159.018-.202.003-.003-.145.034-.197.217-.001.004-.012-.02-.02-.046l-.005-.04c0-.007.194-.066.176-.27-.001-.01-.04-.149.019-.242a.44.44 0 0 0-.203.212c.004-.057.011-.113.02-.17.023-.001.155-.015.228-.201l.003-.01a.302.302 0 0 0 .169.122c.01 0 .028.048.03.059a.268.268 0 0 0 .023.055s.015.14.021.161c.079.248.19.248.237.242.005.067.004.132-.003.195Z"/><path fill="#D02028" d="M13.67 7.093c.074.233-.085.33-.32.275a.16.16 0 0 0-.02-.003.59.59 0 0 0 .084.102c.31.384-.038.767-.246 1.078-.154.208-.293.245-.48.115a.28.28 0 0 0-.036-.024c-.12.061-.193.056-.251-.066-.005-.01-.013-.031-.024-.036-.025.019-.063.036-.082.058.048.084-.022.19-.123.177-.143-.042-.103-.175-.057-.212a.815.815 0 0 0 .07-.058l-.002-.018c-.001-.014-.003-.03-.003-.047 0-.119.074-.179.193-.195-.08-.063-.065-.149-.078-.16-.073-.012-.098-.065-.132-.119-.148.009-.166-.15-.099-.216.069-.069.208-.02.2.102.028.02.073.028.171-.014l.014-.003c.234-.021.152.38.447.162.066-.049.577-.258.197-.456a1.06 1.06 0 0 1-.32-.237c-.247-.194-.466-.758.041-.668-.12-.2-.138-.378.126-.379.051 0 .109.006.165.013.118.009.21.035.321.072.114.038.306.094.78.18.245.023.315-.048.523-.093a1.19 1.19 0 0 1 .25-.024c.145 0 .269.014.406.055.084.025.17.05.395.05.088 0 .197-.12.287-.057.165.115.707.028 1.024-.128l-.006-.023c-.016-.056.078-.104.116-.018.013.03.04.141.068.153 0 0 .006 0 .013-.005.017-.047-.112-.191-.03-.292.103-.129.17.046.345-.026.253-.083.339.124.527.22.12.06.185.003.344.137.047.027.099.07.175.165.009.01.03.016.04.02.108.051.005.23-.027.286-.064.108-.158.23-.242.297l-.01.006c-.171.08-.012.234.064.312l.108.105c.223.181.457.048.723.34.123.193.065.432.036.633a.546.546 0 0 0-.009.14c.01.065.074.007.088-.02.032-.097-.003-.246-.028-.312-.065-.167-.044-.255.104-.327.029-.014.06-.027.06-.064 0-.23.116-.202.175-.285a.122.122 0 0 1-.018-.086c.035-.142.211-.117.238.005a.127.127 0 0 1-.072.128l-.008.003c-.015.04-.025.059-.013.102l.001.01c.003.098.054.19 0 .286a.07.07 0 0 0-.01.024c.008.008.033.011.042.012.105.023.15.092.223.149.016.003.04.008.062.01.036-.092.18-.098.224-.002.042.09-.074.232-.18.148-.091.013-.171.061-.26.075-.082.027-.111.105-.11.19.056.686-1.084.702-1.04-.013l.011-.182c.004-.035-.016-.065-.093-.102-.077-.036-.185-.068-.3-.117-.237-.101-.508-.275-.6-.695-.065-.315-.006-.483.068-.59.016-.025.113-.124.105-.156-.117-.09-.149.04-.343-.262l-.007-.008.016-.008c0-.004.002-.01.004-.012l.005.01c.094.147.04.452-.25.337-.029-.012-.092-.048-.122-.05-.038.01-.476.147-.571.03l-.018-.024s-.005-.002-.018-.001c-.045 0-.066.024-.092.054l-.016.018c-.098.11-.225.086-.354.04a.653.653 0 0 0-.174.014 1.203 1.203 0 0 1-.39.031c-.152-.007-.357-.026-.687-.043-.172-.007-.324.047-.49.083-.173.037-.378.052-.714-.04a.527.527 0 0 1-.103-.036Z"/><path fill="#E6AD4E" fill-rule="evenodd" d="M15.498 5.774c-1.439.29-1.229-.7-1.9-.693.368.259.193.423.428.619-.455-.038-.463-.733-1.456-.51.72.018.63.363.953.545-.583-.128-.67-.624-1.413-.289.737-.12.62.384 1.374.481-.284.086-.39.002-.698-.078.464.375.965.188 1.124.234.08.024.074.163-.263.144.469.303.65-.256 1.889-.33.122-.008.093-.149-.038-.123Z" clip-rule="evenodd"/><path fill="#00120E" d="M14.96 10.101h-.004l-1.056-.087a.047.047 0 0 1-.038-.028l-.026-.05a.046.046 0 0 1-.039-.023c-.562-1-.575-1.487-.486-1.72a.372.372 0 0 1 .222-.23.554.554 0 0 1 .282-.011c.09-.327.253-.625.513-.935.135-.16.578-.06 1.312.289.12-.079.276-.15.455-.208.037-.035.066-.059.079-.07.13-.236.276-.554.275-.697-.002-.15-.139-.335-.204-.414a.535.535 0 0 1-.04.042c-.097.116-.219.127-.345.129h-.045c-.1 0-.146 0-.247.05l-.049.025a.644.644 0 0 1-.105.046l.013.019c.01.015.01.034 0 .049a.044.044 0 0 1-.045.02l-.02-.003c-.075-.01-.152-.022-.206-.087-.066-.017-.09-.045-.132-.096a.048.048 0 0 1-.01-.047c.007-.016.02-.029.036-.03a.376.376 0 0 0 .163-.072l.019-.017c.03-.029.056-.054.12-.105a.835.835 0 0 1 .04-.032l-.122-.018a.835.835 0 0 1-.139.014l-.006.017a.045.045 0 0 1-.037.03h-.013a.14.14 0 0 1-.105-.047.814.814 0 0 1-.098-.02.046.046 0 0 1-.034-.05c.028-.182.172-.316.29-.331.044-.032.149-.1.228-.132l.011-.017c.068-.102.094-.142.272-.241.094-.182.284-.374.487-.493a.045.045 0 0 1 .035-.004.048.048 0 0 1 .028.022c.03.056.032.13.008.209.309-.13.477-.163.82-.177a.046.046 0 0 1 .042.066 1.314 1.314 0 0 1-.306.343c.204.054.38.187.438.26.02.025.048.06.031.097-.013.029-.038.037-.086.04.24.178.353.4.425.58.006.016.022.055 0 .088-.02.028-.053.037-.113.029.133.213.195.443.186.683-.001.041-.005.125-.073.125a.094.094 0 0 1-.055-.02c.004.068.006.154-.001.242.296-.153.792-.293.982-.32.161-.024.186.067.212.196.034.167.045 1.064-.017 1.558-.065.512-.215 1.156-.393 1.36a.045.045 0 0 1-.057.009.045.045 0 0 1-.02-.055c.124-.342-.109-.662-.405-.802l.016.088c.094.169.118.319.142.525a.968.968 0 0 1 .053.332.045.045 0 0 1-.045.045h-2.936l-.046.046a.035.035 0 0 1-.03.016Z"/><path fill="url(#porto__b)" d="M17.431 7.28a3.925 3.925 0 0 1 1.021-.378c.113-.024.13.01.144.097a8.21 8.21 0 0 1-.002 1.24 6.529 6.529 0 0 1-.233 1.342c.058-.415.02-.66-.235-.833.27-.758.345-.967.424-1.722a7.086 7.086 0 0 1-.493 1.74c.268.202.323.398.27.708a.802.802 0 0 0-.405-.506c.004-.188.015-.4-.183-.575-.033-.11-.076-.168-.142-.193a2.512 2.512 0 0 0-.013-.224c.145-.213.234-.342.428-.6-.199.227-.292.34-.438.515a2.298 2.298 0 0 0-.161-.553.793.793 0 0 0 .018-.058Zm-3.527 2.688-.033-.076c.032 0 .047-.005.047-.005-.29-.54-.815-1.709-.35-1.835a.457.457 0 0 1 .267.007c-.116.516-.044 1.106.172 1.89-.005-.093.197-.727.593-.9a3.934 3.934 0 0 1-.18-.439c.071-.207.177-.298.43-.271.097-.283.21-.458.388-.562a.757.757 0 0 0-.416.42 4.125 4.125 0 0 1-.27-.633 2.9 2.9 0 0 0 .202.665c-.17.017-.288.077-.378.246-.122-.45-.095-.836.016-1.35-.233.721-.16 1.28.108 1.896-.228.136-.38.305-.496.673-.252-1.216-.213-1.813.388-2.593.149-.194.984.188 1.242.361.134-.075.233-.122.332-.158-.04.05-.077.104-.108.161-.323.212-.621.794-.624 1.206-.125.183-.165.356-.162.616-.09.19-.138.436-.13.708h.077l-.06.06-1.055-.087Zm1.995-4.995c.402-.177.655-.255 1.006-.287-.135.12-.313.27-.43.344.259.022.38.092.588.233a1.02 1.02 0 0 0-.267.043c.178.09.531.369.624.62-.073.003-.14-.023-.23-.021.15.208.319.405.312.764-.035-.012-.112-.045-.144-.054.048.233.054.41-.038.749.165.453.199.618.188 1.095.048.14.13.263.108.488a.306.306 0 0 1 .093.23c.043.097.153.42.145.522a.67.67 0 0 1 .04.288c-.047.006-1.985 0-1.985 0 .254-.087.468-.175.654-.437.368-.306.579-.7.655-1.242-.193.614-.39.892-.713 1.188a1.35 1.35 0 0 1-.77.48l-.162.004s.161-.381.18-.62a.521.521 0 0 0 .111-.375c.3-.254.381-.421.404-.655-.136.326-.195.363-.457.61a.652.652 0 0 1-.14.403 2.78 2.78 0 0 1-.199.645h-.464c.022-.336.049-.492.147-.703.002-.21.063-.426.176-.609.006-.224.143-.853.524-1.198.21-.292.38-.386.493-.453.105-.217.245-.56.25-.64.012-.167-.133-.478-.29-.61.078-.135.06-.168.04-.29-.014.111-.025.13-.042.17-.018.042-.207.203-.259.241a.343.343 0 0 1-.2.054.626.626 0 0 0-.29.062c-.098.042-.24.139-.377.08.067-.012.114-.057.178-.113.063-.057.043-.088.377-.199-.111-.066-.348-.085-.421-.1-.074-.015-.188.019-.336.012.011-.052.085-.175.19-.177a.535.535 0 0 1 .244-.123c.17-.213.113-.219.391-.38-.063.018-.071.018-.071.018.057-.119.228-.3.387-.417a.485.485 0 0 1-.11.288.971.971 0 0 0-.11.072Z"/><path fill="#E6AD4E" fill-rule="evenodd" d="M11.173 5.412c.49.263.66-.191.9-.198-.489-.05-.333.22-.9.198Z" clip-rule="evenodd"/><path fill="#DE8D46" fill-rule="evenodd" d="M12.598 4.63c.525-.182.622.293.86.338-.492-.029-.296-.27-.86-.338Zm-.822 1.11c.45-.158.651.254.855.292-.423-.024-.37-.235-.855-.293Z" clip-rule="evenodd"/><path fill="#00120E" fill-rule="evenodd" d="M15.607 5.368c.34-.18.416-.16.8-.138-.408.045-.547.046-.8.138Z" clip-rule="evenodd"/><path fill="#00120E" fill-rule="evenodd" d="M15.896 5.266c.025.01.045.08.09.08s.188-.096.192-.105c.005-.009-.282.025-.282.025Zm.806 4.075c-.08.075-.384.167-.743.092.233.146.568.107.661.025.02-.081.082-.117.082-.117Zm.344-.494c.029.113.042.131.11.194-.008.139.007.246.091.355.02.236.127.478.249.632-.09.009-.133 0-.133 0s-.184-.317-.191-.551a.512.512 0 0 1-.107-.388c-.069-.092-.073-.125-.073-.14 0-.015.054-.102.054-.102Z" clip-rule="evenodd"/><path fill="#39B54A" d="M16.002 22.485a.958.958 0 1 0 0-1.915.958.958 0 0 0 0 1.915Zm0 .239a1.197 1.197 0 1 1 0-2.394 1.197 1.197 0 0 1 0 2.394Z"/><path fill="#fff" fill-rule="evenodd" d="m11.606 24.427.58-.315a110 110 0 0 1-.647-1.08l.942-.534-.295-.504-.94.538-.36-.623 1.003-.584c-.098-.17-.195-.342-.292-.513-.523.308-1.046.616-1.569.926a90.45 90.45 0 0 0 1.578 2.69Zm4.936.983a1.324 1.324 0 0 1-.485.079c-.466-.008-.818-.312-.82-.791-.003-.484.338-.813.816-.82.167-.002.337.03.492.093l.125-.447c-.193-.093-.428-.115-.64-.111-.76.011-1.41.506-1.402 1.308.008.764.627 1.201 1.346 1.214.214.003.45-.018.648-.103l-.08-.422Zm3.905-3.56c.093.01.184.048.27.082.264.111.422.332.312.617-.137.302-.44.363-.733.257a.999.999 0 0 1-.205-.099c.12-.285.239-.57.356-.857Zm-1.642 2.142.634.236c.149-.34.295-.68.44-1.02.065.042.137.072.21.099.33.121.69.172 1.026.04.253-.11.422-.334.53-.582.099-.25.115-.53-.011-.772-.153-.29-.453-.454-.746-.575a5.563 5.563 0 0 0-.885-.285c-.388.956-.788 1.91-1.198 2.859Z" clip-rule="evenodd"/><path fill="#B27130" fill-rule="evenodd" d="m16.068 19.54.104.598v-.106c.045.007.205.022.205.091v.182l-.08.05v.2c.047.014.08.036.08.068v.328c0 .098-.338.1-.376.1-.039 0-.375 0-.375-.1v-.329c.001-.03.03-.05.07-.065v-.196l-.071-.056v-.182c0-.07.162-.084.206-.09v.105l.11-.6a.118.118 0 0 1-.031-.032.338.338 0 1 1 .193 0 .141.141 0 0 1-.035.034Zm-.274-.37c0 .089.053.164.128.197a.115.115 0 0 1 .084-.037c.033 0 .063.015.084.038a.214.214 0 1 0-.296-.197Z" clip-rule="evenodd"/><path fill="#B27130" d="M12.217 11.281c-.092.093-.415-.226-.45-.262-.037-.037-.355-.357-.261-.45l.312-.312c.028-.027.075-.02.128.005l.186-.186-.015-.122.172-.172c.066-.065.234.075.281.11l-.1.1.032.024.099-.099c.095.085.181.171.265.266l-.1.1.028.034.1-.1c.036.048.174.214.108.28l-.172.172-.124-.027-.187.187c.03.059.04.11.01.14l-.312.312Z"/><path fill="#E6AD4E" d="M12.021 10.408c.08.061.16.137.19.166.048.049.244.258.255.343l-.248.248a.57.57 0 0 0-.045-.078 1.528 1.528 0 0 0-.1-.13l.116-.115c.075-.075.037-.175-.016-.229-.054-.053-.154-.09-.229-.016l-.115.115-.061-.05.253-.254Zm.36-.383.127.1.095-.096c.055.05.1.096.15.151l-.097.098.131.16.097-.096c.019.029.046.07.054.103l-.106.106a1.493 1.493 0 0 0-.263-.335 1.976 1.976 0 0 0-.2-.177l.012-.014Zm-.014.119a2.066 2.066 0 0 1 .35.372l-.242.242c-.075-.11-.184-.219-.207-.242-.017-.016-.074-.073-.143-.131l.242-.241Z"/><path fill="#B27130" fill-rule="evenodd" d="M12.481 10.316a.083.083 0 1 1-.117.118.083.083 0 0 1 .117-.118Z" clip-rule="evenodd"/><path fill="#fff" d="M12.906 11.299h6.19v6.314c0 .367-.363.733-.729.733h-1.586c-.456 0-.772.353-.77.5-.003-.145-.337-.5-.786-.5h-1.591c-.367 0-.73-.366-.728-.728v-6.32Z"/><path fill="#B27130" d="M15.084 20.184c.056 0 .104.046.104.104a.1.1 0 0 1-.027.066l.582.517a.71.71 0 0 1 .51.006l.564-.502a.102.102 0 0 1 .077-.17c.055 0 .103.046.103.103a.106.106 0 0 1-.103.104.11.11 0 0 1-.042-.01l-.306.697a.7.7 0 0 1 .148.433l-.001.034.67.39a.103.103 0 0 1 .191.055.106.106 0 0 1-.103.103.104.104 0 0 1-.103-.103l.001-.013-.773-.077a.707.707 0 0 1-.39.287l-.163.76c.044.009.081.05.081.1a.105.105 0 0 1-.1.104.106.106 0 0 1-.107-.104c0-.05.036-.09.083-.1l-.162-.753a.705.705 0 0 1-.414-.292l-.75.075v.012a.106.106 0 0 1-.103.103.106.106 0 0 1-.106-.103.105.105 0 0 1 .194-.053l.648-.377a.702.702 0 0 1 .162-.5l-.312-.704a.098.098 0 0 1-.053.015.106.106 0 0 1-.105-.103c0-.058.048-.104.105-.104Z"/><path fill="#1D3967" d="M18.756 14.09h-2.673v.672h2.673v-.671Z"/><path fill="url(#porto__c)" d="M18.756 11.637h-2.673v2.453h2.673v-2.453Z"/><path fill="#39B54A" d="M11.81 12.938s.022-.011.056-.036a.755.755 0 0 1-.228-.212c-.101.163-.238.046-.248.038-.118-.091-.2-.089-.193-.097.114-.132.2-.098.188-.103-.05-.023-.068-.135-.07-.147-.02-.138-.123-.194-.117-.194.143 0 .264.084.309.116a1.045 1.045 0 0 1-.002-.106c-.227.043-.222-.15-.222-.162 0-.128-.073-.225-.065-.22.063.03.136.077.132.072-.05-.065-.004-.282.002-.278.068.034.126.112.13.116.033.024.062.122.072.16l.026-.087c-.015-.032 0-.032-.008-.038-.244-.184-.1-.394-.1-.4.014-.07-.01-.12-.005-.119.081.028.154.22.154.214 0-.062.154-.102.153-.107-.027-.11.07-.185.075-.19.1-.079.036-.174.043-.17.28.21.045.403.045.403l.06.006.016.002a.253.253 0 0 1 .007-.124c.003-.007.03.073.086.1.01.006.105.073.11.103.004.031-.006-.15.15-.254.007-.004.06.351-.071.418.017.084.029.168.034.253.03-.045.098-.118.208-.09.007.001-.042.038-.042.158 0 .01-.007.102-.11.175-.006.005.109-.043.127-.038.01.002 0 .343-.274.395a1.001 1.001 0 0 1-.061.125c.074-.06.184-.126.287-.092.008.003-.123.183-.148.224-.002.004-.066.126-.249.023a1.053 1.053 0 0 1-.121.12.49.49 0 0 0 .073.03c.028.009.016.051-.013.043a.535.535 0 0 1-.098-.043.587.587 0 0 1-.078.052c-.025.014-.046-.025-.02-.039Zm.094-.065a.999.999 0 0 0 .106-.099c-.034-.017-.142-.077-.073-.266l.073-.19s.136.164.103.324a.992.992 0 0 0 .083-.157c-.05-.016-.16-.072-.124-.231.002-.012.025-.158-.018-.201-.003-.003.145.034.197.217.001.004.012-.021.02-.046l.005-.04c0-.007-.194-.066-.176-.27.001-.01.04-.149-.018-.242a.44.44 0 0 1 .202.212 1.813 1.813 0 0 0-.02-.17c-.022-.001-.154-.015-.227-.202l-.003-.008a.302.302 0 0 1-.169.121c-.01 0-.028.048-.03.059-.005.021-.024.055-.024.055s-.014.14-.021.161c-.078.248-.19.248-.237.242a1.04 1.04 0 0 0 .002.194c.044-.185.199-.264.205-.257.051.06.04.153.038.165-.033.178-.148.266-.19.304a.644.644 0 0 0 .07.125c-.064-.141.048-.209.051-.21.12-.08.101-.156.106-.148.115.2.042.263.042.275 0 .01-.099.125-.127.168a.726.726 0 0 0 .154.115Z"/><path fill="#B27130" fill-rule="evenodd" d="m18.303 10.947.996-1.625s-.171.138-.208.151c-.004.001.25-.086-.07.023-.338.115-.326-.257-.326-.257s.03-.23-.012-.177c-.045.056-.238.273-.49.3-.254.025-.344-.176-.357-.312-.013-.136-.011-.084-.061-.043-.043.034-.28.35-.557.09-.278-.261-.207-.636-.348-.418-.14.214-.288.31-.416.38-.129.07-.326-.062-.397-.23-.07-.17-.061-.006-.26.178-.2.184-.4-.002-.57-.233-.17-.23-.159-.177-.202-.04a1.213 1.213 0 0 1-.231.373c-.076.091-.298.129-.492-.07-.194-.2-.03.244-.348.314-.357.08-.65-.453-.64-.242.013.225-.02.356-.195.41-.175.054-.428-.197-.428-.197l.996 1.625c.11.205 1.033.389 2.308.389s2.2-.193 2.308-.39Z" clip-rule="evenodd"/><path fill="#B27130" fill-rule="evenodd" d="M14.392 8.838a.877.877 0 0 0 .219.083c.356 0 .229-.461.2-.51-.213-.348-.396-.048-.41-.022-.077.13-.082.041-.06 0 .11-.209.023-.3-.03-.321-.221-.088-.5.07-.527.098-.19.206.133.371.134.384.007.105-.246-.23-.396.027-.173.292.034.498.23.576.197.079.36-.315.36-.315s.125.083.183-.049c.005-.011.084.04.097.049Zm-1.15.303c.01.314-.359.279-.357.089.003-.19-.097-.215-.161-.261-.064-.046-.128.05-.128.05l-.027.005c-.022.005-.015-.086-.015-.086.026-.088.002-.304-.051-.217-.123.199-.432.126-.325-.06.122-.213.168-.119.192-.157.042-.066.248-.046.354.029.106.075.13.332.13.332l.023.006s.053-.116.106-.12c.1-.006.248.079.259.39Zm2.954-.485a.877.877 0 0 0 .19.138c.344.092.341-.387.325-.442-.115-.391-.37-.148-.39-.127-.107.106-.09.019-.058-.015.16-.174.1-.285.054-.319-.19-.143-.502-.061-.534-.041-.237.15.033.393.03.406-.021.102-.178-.286-.39-.078-.242.238-.096.49.073.617.17.127.428-.212.428-.212s.1.113.19 0c.009-.01.073.061.082.073Zm1.795.262c.021.05.133.173.148.182.309.178.43-.284.428-.342-.01-.408-.318-.239-.344-.224-.13.075-.091-.005-.052-.03.2-.126.17-.248.135-.293-.148-.187-.468-.189-.505-.178-.268.084-.07.388-.076.4-.046.093-.097-.323-.356-.176-.296.167-.22.449-.09.615.131.165.469-.094.469-.094s.067.134.183.05c.01-.008.054.076.06.09Z" clip-rule="evenodd"/><path fill="#522B16" d="M13.899 10.912c0-.17.941-.307 2.102-.307 1.16 0 2.101.138 2.101.307 0 .169-.94.306-2.101.306s-2.102-.137-2.102-.306Z"/><path fill="#1D3967" d="M15.918 18.223a1.307 1.307 0 0 0-.693-.215h-1.591c-.181 0-.39-.215-.39-.389v-.212h2.675v.816Z"/><path fill="#D02028" d="M15.919 11.637h-2.675v3.125h2.675v-3.125Zm2.837 3.289v2.687c0 .182-.213.394-.39.394h-1.585c-.25 0-.5.087-.699.219v-3.3h2.674Z"/><path fill="#DE8D46" d="M18.238 16.674v-.187h.04l.016-.216h-.059v-.13h.066v.072h.066v-.072h.088v.072h.066v-.072h.066v.13h-.057l.016.216h.043v.188h-.123V16.6a.053.053 0 0 0-.105 0l-.002.074h-.121Zm.15-.259h.052v-.037c0-.037-.053-.037-.053 0v.037Zm-1.186-.863v-.187h.04l.017-.216H17.2v-.13h.066v.071h.067v-.072h.088v.072h.066v-.072h.066v.131h-.057l.017.216h.042v.187h-.122v-.074a.053.053 0 0 0-.106 0l-.002.074h-.123Zm.15-.258h.052v-.037a.026.026 0 0 0-.052 0v.037Zm.886.258v-.187h.04l.016-.216h-.059v-.13h.066v.071h.066v-.072h.088v.072h.066v-.072h.066v.131h-.057l.016.216h.043v.187h-.123v-.074a.053.053 0 0 0-.105 0l-.002.074h-.121Zm.15-.258h.052v-.037c0-.037-.053-.037-.053 0v.037Zm-2.136.258v-.187h.04l.016-.216h-.058v-.13h.066v.071h.066v-.072h.088v.072h.066v-.072h.066v.131h-.057l.016.216h.043v.187h-.123v-.074a.053.053 0 0 0-.105 0l-.002.074h-.122Zm.15-.258h.052v-.037a.026.026 0 0 0-.052 0v.037Zm-.15 1.38v-.187h.04l.016-.216h-.058v-.13h.066v.072h.066v-.072h.088v.072h.066v-.072h.066v.13h-.057l.016.216h.043v.188h-.123V16.6a.053.053 0 0 0-.105 0l-.002.074h-.122Zm.15-.258h.052v-.037a.026.026 0 0 0-.052 0v.037Zm-.15 1.498v-.187h.04l.016-.216h-.058v-.13h.066v.072h.066v-.072h.088v.072h.066v-.072h.066v.13h-.057l.016.216h.043v.187h-.123v-.074a.053.053 0 0 0-.105 0l-.002.074h-.122Zm.15-.259h.052v-.037a.026.026 0 0 0-.052 0v.037Zm1.836.259v-.187h.04l.016-.216h-.059v-.13h.066v.072h.066v-.072h.088v.072h.066v-.072h.066v.13h-.057l.016.216h.043v.187h-.123v-.074a.053.053 0 0 0-.105 0l-.002.074h-.121Zm.15-.259h.052v-.037c0-.037-.053-.037-.053 0v.037Z"/><path fill="#fff" d="M18.068 15.605h-1.296v1.714h1.296v-1.714Z"/><path fill="#1D3967" fill-rule="evenodd" d="M17.27 15.718h.3v.333a.062.062 0 0 1-.063.063c-.025 0-.049.002-.063.003-.018.002-.024.012-.024.026 0-.014-.007-.024-.026-.026-.013 0-.037-.004-.063-.004a.062.062 0 0 1-.062-.062v-.333Zm.033.296a.043.043 0 1 1 .043.043.044.044 0 0 1-.043-.043Zm0-.196a.043.043 0 1 1 .043.043.044.044 0 0 1-.043-.043Zm.148.196a.043.043 0 1 1 .043.043.043.043 0 0 1-.043-.043Zm0-.196c0-.024.018-.043.043-.043a.043.043 0 1 1-.043.043Zm-.074.098a.043.043 0 1 1 .085 0 .043.043 0 0 1-.042.043.043.043 0 0 1-.043-.043Zm-.108.865h.3v.333a.062.062 0 0 1-.062.063c-.025 0-.049.003-.063.003-.018.001-.024.011-.024.025 0-.014-.007-.024-.026-.025-.013 0-.037-.003-.063-.003a.062.062 0 0 1-.062-.063v-.333Zm.034.296a.043.043 0 1 1 .043.043.044.044 0 0 1-.043-.043Zm0-.196a.043.043 0 1 1 .043.043.044.044 0 0 1-.043-.043Zm.148.196c0-.024.018-.043.043-.043a.043.043 0 1 1-.043.043Zm0-.196a.043.043 0 1 1 .043.043.043.043 0 0 1-.043-.043Zm-.074.098c0-.023.019-.043.043-.043.023 0 .042.02.042.043a.043.043 0 0 1-.042.043.043.043 0 0 1-.043-.043Zm-.108-.73h.3v.334a.062.062 0 0 1-.062.062c-.025 0-.049.003-.063.004-.018.002-.024.011-.024.025 0-.014-.007-.023-.026-.025-.013 0-.037-.004-.063-.004a.062.062 0 0 1-.062-.062v-.333Zm.034.296a.043.043 0 1 1 .086 0 .043.043 0 0 1-.043.043.043.043 0 0 1-.043-.043Zm0-.196c0-.023.019-.042.043-.042.023 0 .043.019.043.042a.043.043 0 0 1-.043.043.043.043 0 0 1-.043-.043Zm.148.196a.043.043 0 0 1 .086 0 .043.043 0 0 1-.043.043.042.042 0 0 1-.043-.043Zm0-.196c0-.023.018-.042.043-.042.023 0 .043.019.043.042a.043.043 0 1 1-.086 0Zm-.074.098a.043.043 0 0 1 .085 0 .043.043 0 0 1-.042.043.043.043 0 0 1-.043-.043Zm-.5-.197h.301v.333a.063.063 0 0 1-.062.062c-.025 0-.05.003-.063.004-.019.002-.025.011-.025.025 0-.014-.007-.023-.025-.025-.014 0-.038-.004-.063-.004a.062.062 0 0 1-.062-.062v-.333Zm.034.295a.043.043 0 1 1 .086 0 .043.043 0 0 1-.043.043.043.043 0 0 1-.043-.043Zm0-.196c0-.023.02-.042.043-.042.024 0 .043.019.043.042a.043.043 0 1 1-.086 0Zm.148.196c0-.023.02-.043.043-.043.023 0 .043.02.043.043a.043.043 0 0 1-.043.043.043.043 0 0 1-.043-.043Zm0-.196c0-.023.02-.042.043-.042.023 0 .043.019.043.042a.043.043 0 1 1-.086 0Zm-.074.098c0-.023.019-.042.043-.042.023 0 .043.019.043.042a.043.043 0 0 1-.086 0Zm.676-.197h.3v.333a.062.062 0 0 1-.062.062c-.025 0-.05.003-.063.004-.018.002-.025.011-.025.025 0-.014-.006-.023-.025-.025-.013 0-.037-.004-.063-.004a.062.062 0 0 1-.062-.062v-.333Zm.034.295c0-.023.019-.043.043-.043.023 0 .042.02.042.043a.042.042 0 0 1-.042.043.042.042 0 0 1-.043-.043Zm0-.196a.042.042 0 1 1 .043.043.043.043 0 0 1-.043-.043Zm.147.196a.043.043 0 1 1 .086 0c0 .024-.02.043-.043.043a.042.042 0 0 1-.043-.043Zm0-.196c0-.023.02-.042.043-.042.023 0 .043.019.043.042 0 .024-.02.043-.043.043a.043.043 0 0 1-.043-.043Zm-.074.098a.043.043 0 0 1 .086 0 .043.043 0 1 1-.086 0Z" clip-rule="evenodd"/><path fill="#DE8D46" d="M15.4 13.407v-.187h.04l.016-.216h-.059v-.13h.066v.072h.066v-.072h.088v.072h.066v-.072h.066v.13h-.056l.016.216h.042v.187h-.122v-.074a.053.053 0 0 0-.106 0l-.002.074H15.4Zm.149-.259h.052v-.037a.026.026 0 0 0-.052 0v.037Zm-1.185-.862v-.188h.04l.017-.216h-.058v-.13h.066v.072h.066v-.072h.087v.072h.066v-.072h.066v.13h-.057l.016.216h.043v.188h-.123v-.075a.053.053 0 0 0-.105 0l-.002.075h-.122Zm.15-.26h.053v-.037c0-.037-.053-.037-.053 0v.037Zm.886.26v-.188h.04l.016-.216h-.059v-.13h.066v.072h.066v-.072h.088v.072h.066v-.072h.066v.13h-.056l.016.216h.042v.188h-.122v-.075a.053.053 0 0 0-.106 0l-.002.075H15.4Zm.149-.26h.052v-.037a.026.026 0 0 0-.052 0v.037Zm-2.135.26v-.188h.04l.016-.216h-.058v-.13h.066v.072h.066v-.072h.087v.072h.066v-.072h.066v.13h-.056l.016.216h.042v.188h-.123v-.075a.053.053 0 0 0-.105 0l-.002.075h-.121Zm.15-.26h.052v-.037c0-.037-.053-.037-.053 0v.037Zm-.15 1.382v-.187h.04l.016-.217h-.058v-.13h.066v.072h.066v-.072h.087v.072h.066v-.072h.066v.13h-.056l.016.217h.042v.187h-.123v-.074a.053.053 0 0 0-.105 0l-.002.074h-.121Zm.15-.26h.052v-.037c0-.037-.053-.037-.053 0v.037Zm-.15 1.499v-.187h.04l.016-.216h-.058v-.13h.066v.071h.066v-.072h.087v.072h.066v-.072h.066v.13h-.056l.016.217h.042v.187h-.123v-.074a.053.053 0 0 0-.105 0l-.002.074h-.121Zm.15-.259h.052v-.037c0-.037-.053-.037-.053 0v.037Zm1.836.259v-.187h.04l.016-.216h-.059v-.13h.066v.071h.066v-.072h.088v.072h.066v-.072h.066v.13h-.056l.016.217h.042v.187h-.122v-.074a.053.053 0 0 0-.106 0l-.002.074H15.4Zm.149-.259h.052v-.037a.026.026 0 0 0-.052 0v.037Z"/><path fill="#fff" d="M15.23 12.338h-1.297v1.714h1.296v-1.714Z"/><path fill="#1D3967" fill-rule="evenodd" d="M14.431 12.451h.3v.333a.062.062 0 0 1-.061.062c-.025 0-.05.003-.063.004-.019.001-.025.011-.025.025 0-.014-.007-.024-.026-.025-.013-.001-.037-.004-.063-.004a.062.062 0 0 1-.062-.062v-.333Zm.034.296a.043.043 0 1 1 .085 0 .042.042 0 0 1-.042.042.043.043 0 0 1-.043-.042Zm0-.196c0-.024.019-.043.043-.043.024 0 .043.019.043.043a.042.042 0 0 1-.043.042.043.043 0 0 1-.043-.042Zm.148.196a.043.043 0 1 1 .086 0 .043.043 0 0 1-.043.042.043.043 0 0 1-.043-.042Zm0-.196a.043.043 0 1 1 .086 0 .043.043 0 0 1-.043.042.043.043 0 0 1-.043-.042Zm-.074.098a.043.043 0 0 1 .086 0 .043.043 0 0 1-.043.042.043.043 0 0 1-.043-.042Zm-.107.865h.3v.333a.062.062 0 0 1-.062.063c-.025 0-.05.003-.063.004-.019.001-.025.011-.025.025 0-.014-.007-.024-.026-.025-.013-.001-.037-.004-.063-.004a.062.062 0 0 1-.062-.063v-.333Zm.033.296c0-.023.019-.042.043-.042.024 0 .043.019.043.042a.043.043 0 0 1-.043.043.043.043 0 0 1-.043-.043Zm0-.196a.043.043 0 0 1 .085 0 .043.043 0 0 1-.042.043.043.043 0 0 1-.043-.043Zm.148.196c0-.023.019-.042.043-.042.023 0 .043.019.043.042a.043.043 0 1 1-.086 0Zm0-.196a.043.043 0 0 1 .086 0 .043.043 0 1 1-.086 0Zm-.074.098c0-.024.018-.043.043-.043a.043.043 0 1 1 0 .086.044.044 0 0 1-.043-.043Zm-.107-.73h.3v.334a.062.062 0 0 1-.062.062c-.025 0-.05.003-.063.004-.019 0-.025.011-.025.025 0-.014-.007-.024-.026-.025-.013-.001-.037-.004-.063-.004a.062.062 0 0 1-.062-.062v-.334Zm.033.296c0-.023.019-.043.043-.043.024 0 .043.02.043.043a.043.043 0 1 1-.085 0Zm0-.196c0-.023.019-.043.043-.043.024 0 .043.02.043.043a.043.043 0 1 1-.085 0Zm.148.196a.043.043 0 1 1 .086 0 .043.043 0 0 1-.086 0Zm0-.196a.043.043 0 1 1 .086 0 .043.043 0 0 1-.086 0Zm-.074.098a.043.043 0 1 1 .086 0 .043.043 0 0 1-.086 0Zm-.5-.197h.3v.333a.062.062 0 0 1-.061.062c-.025 0-.05.003-.063.004-.019 0-.025.011-.025.025 0-.014-.006-.024-.025-.025-.014-.001-.038-.004-.063-.004a.062.062 0 0 1-.062-.062v-.334Zm.034.295a.043.043 0 1 1 .086 0 .043.043 0 0 1-.086 0Zm0-.196a.043.043 0 1 1 .086 0 .043.043 0 0 1-.086 0Zm.148.196a.043.043 0 1 1 .085 0 .043.043 0 0 1-.043.043.043.043 0 0 1-.042-.043Zm0-.196a.043.043 0 1 1 .085 0 .043.043 0 0 1-.043.043.043.043 0 0 1-.042-.043Zm-.074.098c0-.023.02-.043.043-.043a.043.043 0 1 1-.043.043Zm.676-.197h.3v.333a.062.062 0 0 1-.062.062c-.025 0-.05.003-.063.004-.018 0-.025.011-.025.025 0-.014-.006-.024-.025-.025-.014-.001-.038-.004-.063-.004a.063.063 0 0 1-.062-.062v-.334Zm.034.295a.043.043 0 1 1 .086 0 .043.043 0 0 1-.086 0Zm0-.196a.043.043 0 0 1 .086 0c0 .024-.02.043-.043.043a.043.043 0 0 1-.043-.043Zm.147.196c0-.023.02-.043.043-.043.024 0 .043.02.043.043a.043.043 0 1 1-.086 0Zm0-.196c0-.023.02-.043.043-.043.024 0 .043.02.043.043a.043.043 0 1 1-.086 0Zm-.074.098c0-.023.02-.043.043-.043.023 0 .043.02.043.043 0 .024-.02.043-.043.043a.043.043 0 0 1-.043-.043Z" clip-rule="evenodd"/><path fill="#fff" d="M18.631 12.037c-.089-.034-.149-.078-.254-.078-.002 0 .165.078.167.213-.124-.158-.325-.196-.53-.196-.219.003-.45.052-.617.063-.199 0-.39-.058-.58-.06-.209-.003-.443.035-.567.193 0-.136.169-.211.169-.213-.107 0-.167.044-.256.078.187-.18.412-.218.652-.218.19.002.38.062.58.062.192 0 .428-.06.62-.062.209 0 .427.038.616.218Z"/><path fill="#1D3967" d="M16.519 12.455a.358.358 0 0 1-.052-.12c-.027-.125.046-.145.13-.13.035.007.047.02.053.034l.006.017a.016.016 0 0 0 .008.008c.052.017.07.038.084.055l.009.011a.057.057 0 0 0 .008.008.054.054 0 0 0 .026.005.118.118 0 0 1 .024-.024l.026-.018c.017-.011.027-.02.028-.033-.007-.015-.01-.044-.005-.056l-.36-.383-.008-.019c-.002-.005.002-.008.007-.006l.017.007.361.37.006.005c.004-.003.008-.005.013-.004.003 0 .005.002.008.003l.009.004.012.009a.021.021 0 0 1 .006.006.01.01 0 0 1 .001.008c.005.003.01.006.01.015.005.007.005.01.004.012.003.003.005.005.004.012v.005c.025.03.014.044-.015.026a.036.036 0 0 1-.02.011c-.024.062-.07.149-.132.154h-.01l-.01-.005a.188.188 0 0 1-.023-.013l-.02-.012-.002.008a.09.09 0 0 1-.005.014.081.081 0 0 0-.005.034.132.132 0 0 1 .025.068l.005.037c.003.014.006.03.012.048.001.003 0 .006-.005.006h-.263v-.07a.171.171 0 0 1 .008-.026l.01-.03a.237.237 0 0 0 .015-.051Zm1.367-.228c0-.01.004-.013.008-.014a.02.02 0 0 1 .003-.01l.005-.006.013-.009a.074.074 0 0 1 .014-.006l-.014-.013c-.017 0-.025-.011-.025-.022s.008-.023.02-.023c.014 0 .023.011.023.023l.023.027.353-.363.02-.008c.004-.002.008.002.005.007l-.007.017-.35.367.019.019c.019 0 .027.01.027.022a.022.022 0 0 1-.022.022c-.012 0-.02-.012-.02-.023l-.012-.012a.105.105 0 0 1-.007.046c.001.012.012.021.028.032a.369.369 0 0 1 .027.019.118.118 0 0 1 .024.023c.012.002.02 0 .025-.005a.057.057 0 0 0 .009-.007l.009-.011a.16.16 0 0 1 .084-.056c.004-.001.006-.004.008-.008l.006-.016c.006-.014.018-.027.053-.035.083-.015.157.006.13.13a.393.393 0 0 1-.048.117.1.1 0 0 0 .01.054l.011.03.008.027.01.096-.274-.027c-.004 0-.006-.003-.005-.006a.33.33 0 0 0 .012-.048l.006-.037a.133.133 0 0 1 .025-.068.067.067 0 0 0-.005-.034.09.09 0 0 1-.005-.014.024.024 0 0 1 0-.009l-.022.013c-.008.005-.016.01-.024.013a.034.034 0 0 1-.01.004.02.02 0 0 1-.01.001c-.061-.006-.107-.092-.131-.154a.041.041 0 0 1-.02-.011c-.029.018-.04.005-.014-.026l-.001-.006c-.002-.006 0-.009.004-.01-.001-.003-.002-.007 0-.01l.004-.002Z"/><path fill="#1D3967" d="m18.373 12.734.033.376a.156.156 0 0 1 .05.032l.002.057v.052a.015.015 0 0 1-.002.008l-.034.031.078.884a.017.017 0 0 1-.017.018h-.542a.017.017 0 0 1-.017-.018l.077-.877-.04-.038-.003-.06v-.052a.123.123 0 0 1 .06-.039l.032-.368-.028-.025-.002-.046v-.038a.112.112 0 0 1 .066-.035.006.006 0 0 1 .007.006v.03a.19.19 0 0 1 .029-.004v-.032c0-.002.002-.005.005-.006.021-.004.04-.004.062-.006.004 0 .006.003.006.006l-.002.02v.013h.03v-.033c0-.003.002-.006.006-.006.021.002.041.002.06.006.003 0 .005.004.005.006v.032l.029.004v-.033c0-.004.003-.007.007-.005a.14.14 0 0 1 .063.03l.002.045v.04a.014.014 0 0 1-.002.006l-.02.02Z"/><path fill="#DE8D46" d="m18.326 12.751.035.399c-.013-.002-.025-.005-.039-.006v-.047c0-.003-.002-.006-.005-.006l-.082-.006c-.003 0-.006.002-.006.005v.047h-.042v-.019l.002-.027c0-.004-.003-.006-.007-.006l-.04.002.002-.349a.408.408 0 0 1 .162.005l.02.008Zm-.213 1.116.022-.61a.672.672 0 0 1 .072-.005c.067 0 .132.01.165.026l.076.865h-.122v-.221a.11.11 0 0 0-.109-.11h-.01a.11.11 0 0 0-.095.055Z"/><path fill="#1D3967" fill-rule="evenodd" d="M18.212 13.44a.046.046 0 1 1 0 .094.046.046 0 1 1 0-.093Zm0-.597a.047.047 0 1 1 0 .093.046.046 0 1 1 0-.093Z" clip-rule="evenodd"/><path fill="#1D3967" d="m16.768 12.734.033.376a.155.155 0 0 1 .05.032l.002.057v.052a.015.015 0 0 1-.002.008l-.033.031.078.884a.017.017 0 0 1-.017.018h-.542a.017.017 0 0 1-.017-.018l.077-.877-.041-.038-.002-.06v-.052a.123.123 0 0 1 .06-.039l.032-.368-.028-.025-.002-.046v-.038a.112.112 0 0 1 .065-.035c.004-.001.007.002.007.006v.03a.19.19 0 0 1 .029-.004v-.032c0-.002.003-.005.005-.006.021-.004.04-.004.062-.006.004 0 .007.003.007.006l-.002.02v.013h.028v-.033c0-.003.003-.006.007-.006.021.002.04.002.06.006.003 0 .006.004.006.006v.032l.028.004v-.033c0-.004.004-.007.008-.005a.142.142 0 0 1 .063.03l.002.045v.04a.014.014 0 0 1-.002.006l-.02.02Z"/><path fill="#DE8D46" d="m16.72 12.751.036.399-.039-.006v-.047c0-.003-.002-.006-.005-.006l-.082-.006c-.004 0-.007.002-.007.005v.047h-.042v-.019l.002-.027c0-.004-.003-.006-.006-.006l-.041.002.002-.349a.396.396 0 0 1 .162.005l.02.008Zm-.213 1.116.023-.61a.676.676 0 0 1 .072-.005c.067 0 .132.01.165.026l.076.865h-.122v-.221a.11.11 0 0 0-.109-.11h-.01a.109.109 0 0 0-.095.055Z"/><path fill="#1D3967" fill-rule="evenodd" d="M16.607 13.44a.046.046 0 1 1 0 .094.046.046 0 0 1 0-.093Zm0-.597a.047.047 0 1 1 0 .093.047.047 0 0 1 0-.093Z" clip-rule="evenodd"/><path fill="#B27130" d="M12.45 14.282c0 .131-.454.134-.505.134-.052 0-.502-.001-.502-.134v-.441c.001-.04.04-.068.095-.088v-.262l-.097-.076v-.243c0-.093.218-.113.276-.121v.14l.04-.004v-.14a3.04 3.04 0 0 1 .375 0v.142l.044.004v-.142c.059.01.274.028.274.121v.244l-.106.068v.266c.062.02.106.05.106.092v.44Z"/><path fill="#E6AD4E" d="M11.694 13.803c.1-.013.21-.016.251-.016.07 0 .355.009.424.061v.352a.475.475 0 0 0-.088-.024 1.24 1.24 0 0 0-.162-.021v-.163c0-.107-.097-.15-.173-.15-.076 0-.173.043-.173.15v.162a2.339 2.339 0 0 0-.08.008v-.359h.001Zm-.016-.525.16-.02v-.135c.073-.003.139-.004.213 0v.139l.206.02v-.136a.36.36 0 0 1 .111.034v.15c-.11-.04-.31-.05-.423-.05-.07 0-.173.004-.267.017v-.019Zm.074.092a2.055 2.055 0 0 1 .51.016v.342c-.13-.023-.284-.023-.317-.023-.023 0-.104 0-.194.008v-.342Z"/><path fill="#B27130" fill-rule="evenodd" d="M11.954 13.413a.083.083 0 1 1 0 .166.083.083 0 0 1 0-.166Z" clip-rule="evenodd"/><path fill="#B27130" d="M12.45 17.51c0 .132-.454.135-.505.135-.052 0-.502-.002-.502-.134v-.442c.001-.04.04-.067.095-.087v-.262l-.097-.075V16.4c0-.093.218-.113.276-.121v.14l.04-.004v-.14c.126-.008.249-.008.375 0v.142l.044.005v-.143c.059.01.274.028.274.122v.244l-.106.068v.265c.062.02.106.05.106.092v.44Z"/><path fill="#E6AD4E" d="M11.694 17.032c.1-.013.21-.017.251-.017.07 0 .355.01.424.062v.351a.551.551 0 0 0-.088-.023 1.462 1.462 0 0 0-.162-.022v-.163c0-.106-.097-.15-.173-.15-.076 0-.173.044-.173.15v.163a2.339 2.339 0 0 0-.08.007v-.358h.001Zm-.016-.525.16-.02v-.134c.073-.004.139-.004.213 0v.137l.206.021v-.136a.372.372 0 0 1 .111.034v.15c-.11-.04-.31-.051-.423-.051-.07 0-.173.004-.267.017v-.018Zm.074.093a2.137 2.137 0 0 1 .51.015v.343c-.13-.024-.284-.024-.317-.024-.023 0-.104 0-.194.008V16.6Z"/><path fill="#B27130" fill-rule="evenodd" d="M11.954 16.642c.046 0 .083.038.083.084a.083.083 0 1 1-.083-.084Z" clip-rule="evenodd"/><path fill="#B27130" d="M14.092 18.956c.127.032.02.473.008.522-.013.05-.123.487-.252.455l-.428-.107c-.038-.01-.056-.054-.062-.112l-.255-.064-.096.076-.237-.059c-.09-.022-.056-.239-.05-.297l.136.034.005-.04-.136-.033a3.24 3.24 0 0 1 .09-.365l.138.034.015-.04-.139-.035c.024-.055.094-.26.185-.237l.236.06.04.12.258.063c.035-.056.074-.091.115-.08l.429.105Z"/><path fill="#E6AD4E" d="M13.444 19.573c.012-.1.035-.208.045-.247.017-.067.095-.343.162-.396l.342.085a.527.527 0 0 0-.044.079 1.37 1.37 0 0 0-.06.152l-.158-.04c-.103-.025-.17.058-.188.132-.018.074.001.178.104.204l.158.04a1.288 1.288 0 0 0-.011.078l-.35-.087Zm-.513-.111.02-.16-.131-.033a2.47 2.47 0 0 1 .05-.206l.135.033.07-.195-.133-.034c.015-.03.035-.075.06-.1l.146.037a1.486 1.486 0 0 0-.152.398 2.122 2.122 0 0 0-.048.263l-.017-.003Zm.108-.049a2.066 2.066 0 0 1 .139-.491l.332.082c-.054.12-.091.27-.1.302-.005.023-.024.1-.039.19l-.332-.083Z"/><path fill="#B27130" fill-rule="evenodd" d="M13.128 19.227a.083.083 0 1 1 .162.04.083.083 0 1 1-.162-.04Z" clip-rule="evenodd"/><path fill="#B27130" d="M19.794 11.281c.093.093.415-.226.451-.262.037-.037.354-.357.261-.45l-.312-.312c-.029-.027-.076-.02-.129.005l-.185-.186.015-.122-.172-.172c-.066-.065-.235.075-.282.11l.1.1-.031.024-.1-.099a3.02 3.02 0 0 0-.265.266l.1.1-.027.034-.1-.1c-.036.048-.174.214-.108.28l.172.172.123-.027.188.187c-.03.059-.04.11-.01.14l.311.312Z"/><path fill="#E6AD4E" d="M19.99 10.408a2.28 2.28 0 0 0-.19.166c-.048.049-.244.258-.255.343l.248.248a.57.57 0 0 1 .045-.078c.026-.039.06-.083.1-.13l-.116-.115c-.075-.075-.037-.175.016-.229.054-.053.154-.09.229-.016l.115.115c.02-.016.04-.034.062-.05l-.254-.254Zm-.36-.383-.127.1-.095-.096c-.055.05-.1.096-.15.151l.097.098-.131.16-.097-.096c-.019.029-.046.07-.054.103l.106.106a1.49 1.49 0 0 1 .263-.335c.049-.05.125-.12.2-.177l-.012-.014Zm.014.119a2.055 2.055 0 0 0-.35.372l.242.242a1.92 1.92 0 0 1 .207-.242c.017-.016.074-.073.143-.131l-.242-.241Z"/><path fill="#B27130" fill-rule="evenodd" d="M19.53 10.316a.083.083 0 0 0 0 .118.084.084 0 0 0 .119 0 .083.083 0 0 0 0-.118.084.084 0 0 0-.119 0Z" clip-rule="evenodd"/><path fill="#B27130" d="M19.561 14.282c0 .131.454.134.505.134.052 0 .503-.001.503-.134v-.441c-.002-.04-.04-.068-.095-.088v-.262l.097-.076v-.243c0-.093-.219-.113-.277-.121v.14l-.04-.004v-.14a3.04 3.04 0 0 0-.375 0v.142l-.043.004v-.142c-.06.01-.275.028-.275.121v.244l.107.068v.266c-.063.02-.107.05-.107.092v.44Z"/><path fill="#E6AD4E" d="M20.317 13.803a2.32 2.32 0 0 0-.251-.016c-.07 0-.355.009-.424.061v.352a.475.475 0 0 1 .088-.024c.046-.01.1-.016.162-.021v-.163c0-.107.097-.15.173-.15.076 0 .173.043.173.15v.162l.08.008v-.359h-.001Zm.016-.525-.16-.02v-.135a2.012 2.012 0 0 0-.213 0v.139l-.206.02v-.136a.36.36 0 0 0-.111.034v.15c.109-.04.31-.05.423-.05.07 0 .173.004.267.017v-.019Zm-.073.092a2.055 2.055 0 0 0-.51.016v.342c.128-.023.283-.023.316-.023.023 0 .104 0 .193.008v-.342Z"/><path fill="#B27130" fill-rule="evenodd" d="M20.057 13.413a.083.083 0 1 0 0 .166.083.083 0 0 0 0-.166Z" clip-rule="evenodd"/><path fill="#B27130" d="M19.561 17.51c0 .132.454.135.505.135.052 0 .503-.002.503-.134v-.442c-.002-.04-.04-.067-.095-.087v-.262l.097-.075V16.4c0-.093-.219-.113-.277-.121v.14l-.04-.004v-.14a2.945 2.945 0 0 0-.375 0v.142l-.043.005v-.143c-.06.01-.275.028-.275.122v.244l.107.068v.265c-.063.02-.107.05-.107.092v.44Z"/><path fill="#E6AD4E" d="M20.317 17.032c-.1-.013-.21-.017-.251-.017-.07 0-.355.01-.424.062v.351a1.249 1.249 0 0 1 .25-.045v-.163c0-.106.097-.15.173-.15.076 0 .173.044.173.15v.163l.08.007v-.358h-.001Zm.016-.525-.16-.02v-.134a2.156 2.156 0 0 0-.213 0v.137l-.206.021v-.136a.372.372 0 0 0-.111.034v.15c.109-.04.31-.051.423-.051.07 0 .173.004.267.017v-.018Zm-.073.093a2.137 2.137 0 0 0-.51.015v.343c.128-.024.283-.024.316-.024.023 0 .104 0 .193.008V16.6Z"/><path fill="#B27130" fill-rule="evenodd" d="M20.057 16.642a.083.083 0 1 0 0 .167.083.083 0 0 0 0-.167Z" clip-rule="evenodd"/><path fill="#B27130" d="M17.92 18.956c-.128.032-.021.473-.009.522.013.05.123.487.252.455l.428-.107c.038-.01.056-.054.062-.112l.255-.064.096.076.237-.059c.09-.022.056-.239.05-.297l-.136.034-.005-.04.136-.033a3.03 3.03 0 0 0-.09-.365l-.138.034-.015-.04.139-.035c-.024-.055-.094-.26-.185-.237l-.236.06-.04.12-.258.063c-.035-.056-.074-.091-.116-.08l-.428.105Z"/><path fill="#E6AD4E" d="M18.567 19.573a2.21 2.21 0 0 0-.045-.247c-.017-.067-.095-.343-.162-.396l-.342.085c.02.028.035.06.044.079.02.042.04.093.06.152l.158-.04c.103-.025.17.058.188.132.018.074-.001.178-.105.204l-.157.04.011.078.35-.087Zm.513-.111-.02-.16.132-.033a2.186 2.186 0 0 0-.051-.206l-.134.033-.07-.195.132-.034c-.014-.03-.035-.075-.06-.1l-.146.037c.067.096.125.288.152.398.017.068.037.169.048.263l.017-.003Zm-.108-.049a2.05 2.05 0 0 0-.139-.491l-.332.082c.054.12.091.27.1.302.005.023.024.1.038.19l.333-.083Z"/><path fill="#B27130" fill-rule="evenodd" d="M18.883 19.227a.083.083 0 1 0-.162.04.084.084 0 0 0 .101.06.084.084 0 0 0 .06-.1Z" clip-rule="evenodd"/><path fill="#39B54A" d="M15.687 19.282s-.077-.025-.19-.05c-.058.143-.222.147-.232.148-.097.004-.222.096-.22.089.008-.047.031-.098.023-.09-.08.08-.31.103-.304.1a.632.632 0 0 0 .096-.124c.037-.087.11-.149.102-.146-.025.009-.053-.001-.074-.01l-.034.005c-.097.35-.404.22-.41.226-.03.029-.134.058-.123.058.091 0 .241.104.24.102a.94.94 0 0 1-.033-.11c.01.02.083.05.093.05.165 0 .217.13.216.122-.02-.119-.055-.132-.043-.13.338.076.338.303.338.294 0-.01.055-.046.047-.05-.036-.018-.056-.083-.057-.09-.007-.035-.06-.108-.052-.108.292 0 .37.154.377.157a.783.783 0 0 1 .086.043.58.58 0 0 0 .101-.088c-.078.032-.163-.019-.173-.024-.136-.078-.173-.063-.167-.068a.324.324 0 0 1 .417-.011l.02-.037a.547.547 0 0 0 .042-.1c.01-.035.065-.02.055.015a.679.679 0 0 1-.105.204c.166.244-.206.42-.204.418a.43.43 0 0 0 .033-.146.444.444 0 0 1 .022-.124.528.528 0 0 1-.043.027.179.179 0 0 0-.026.035c0 .24-.416.25-.415.245.006-.02.078-.153.1-.192-.022 0-.044 0-.067-.002-.195.244-.485.12-.481.119a.24.24 0 0 0 .119-.121c-.078.077-.24.068-.252.06-.112-.063-.262-.078-.258-.081.056-.057.199-.11.187-.114-.101-.033-.12-.152-.122-.16-.019-.095-.065-.13-.075-.13-.138-.018-.254-.19-.25-.186.015.013.267.005.274.005a.257.257 0 0 1 .148.02c.047 0 .088-.01.117-.05l.008-.01a.167.167 0 0 1 .018-.02.29.29 0 0 1-.145-.034c-.09-.067-.154-.054-.152-.058.159-.238.388-.014.43.02a.848.848 0 0 1 .121-.03.853.853 0 0 1-.127-.144c.02.02.157 0 .163-.002.187-.038.281.033.281.033s-.02-.041-.023-.05c-.036-.083-.097-.088-.09-.092.149-.074.26-.024.256-.034-.02-.047-.033-.188-.021-.186.143.032.186.093.191.098.075.075.108.35.115.414.091.022.149.04.149.04.037.013.019.067-.017.055Z"/><path fill="url(#porto__d)" d="M18.79 9.649a.331.331 0 0 1-.192-.172.473.473 0 0 1-.036-.103.78.78 0 0 1-.354.135.434.434 0 0 1-.471-.266.653.653 0 0 1-.084.053c-.147.075-.346.089-.537-.09a.885.885 0 0 1-.215-.317 1.21 1.21 0 0 1-.375.3c-.2.111-.411-.023-.53-.176a.971.971 0 0 1-.098.103.382.382 0 0 1-.469.061 1.043 1.043 0 0 1-.305-.29 1.64 1.64 0 0 1-.215.316c-.13.156-.395.178-.618.02a.408.408 0 0 1-.305.275c-.221.049-.412-.067-.533-.16l.262.564c.159-.048.331-.084.5-.113a11.228 11.228 0 0 1 1.78-.126c.695 0 1.325.05 1.78.126.234.04.475.094.678.175.053.021.102.043.148.067l.188-.382Zm-.275.555a3.389 3.389 0 0 0-.746-.19 11.315 11.315 0 0 0-1.783-.094 9.938 9.938 0 0 0-1.775.188 4.627 4.627 0 0 0-.366.09l.148.322c.1-.026.211-.05.332-.07a10.567 10.567 0 0 1 1.669-.116c.652 0 1.242.045 1.67.117.214.036.4.08.54.136.033.014.066.029.098.046l.213-.429Z"/><path fill="#B27130" d="M15.275 10.146a.16.16 0 1 1 .322 0 .16.16 0 0 1-.322 0Zm-1.035.098a.161.161 0 1 1 .323 0 .161.161 0 0 1-.323 0Zm2.164-.098a.16.16 0 1 1 .322 0 .16.16 0 0 1-.322 0Zm1.036.098a.16.16 0 1 1 .16.16.16.16 0 0 1-.16-.16Z"/><path fill="#E6AD4E" d="M15.79 20.62c.074-.01.156-.012.187-.012.052 0 .265.007.316.046v.262a.984.984 0 0 0-.186-.034v-.121c0-.08-.072-.113-.129-.113-.056 0-.129.033-.129.113v.12l-.059.006v-.267Zm-.012-.39.119-.015v-.101c.054-.003.104-.003.159 0v.103l.154.016v-.103c.025.005.06.012.083.026v.112a1.106 1.106 0 0 0-.316-.038c-.052 0-.129.003-.2.012v-.012Zm.054.069a1.578 1.578 0 0 1 .355.008l.026.003v.255c-.097-.017-.212-.017-.236-.017-.018 0-.078 0-.145.006v-.255Z"/><path fill="#B27130" fill-rule="evenodd" d="M15.983 20.33a.062.062 0 1 1 0 .124.062.062 0 0 1 0-.124Z" clip-rule="evenodd"/><path fill="#fff" fill-rule="evenodd" d="M15.527 21.533a.47.47 0 1 1 .939 0 .47.47 0 0 1-.94 0Z" clip-rule="evenodd"/><path fill="#B27130" fill-rule="evenodd" d="M18.76 9.155c-.012.314.359.28.356.089-.002-.19.098-.215.162-.261.064-.046.128.05.128.05l.026.005c.022.005.016-.086.016-.086-.027-.088-.003-.303.05-.217.123.199.432.126.326-.06-.122-.213-.168-.118-.193-.157-.041-.066-.247-.046-.353.029-.107.076-.13.332-.13.332l-.023.006s-.053-.116-.106-.12c-.1-.006-.249.079-.26.39Z" clip-rule="evenodd"/><path fill="#D02028" d="M13.67 7.093c.074.233-.085.33-.32.275.03.066.049.085.064.1.31.383-.038.766-.246 1.076-.154.209-.293.246-.48.116l-.036-.024c-.12.061-.193.056-.251-.066-.005-.01-.013-.031-.024-.037-.025.02-.063.037-.082.059.048.084-.022.19-.123.177-.143-.042-.103-.175-.057-.212a.806.806 0 0 0 .07-.058l-.005-.065c0-.12.074-.179.193-.195-.08-.063-.065-.149-.078-.16-.073-.012-.098-.065-.132-.119-.148.009-.166-.151-.099-.217.069-.068.208-.02.2.103.028.019.073.028.171-.014.248-.025.167.378.46.159.067-.05.578-.26.198-.457a1.06 1.06 0 0 1-.32-.237c-.247-.194-.466-.757.041-.668-.12-.2-.138-.378.126-.379.051 0 .109.006.165.013.118.009.21.035.321.072.114.038.306.095.78.18.245.024.315-.048.523-.092.067-.014.146-.024.25-.024.145 0 .269.013.406.054.084.025.17.05.395.05.088 0 .197-.12.287-.056.165.115.707.028 1.024-.129-.022-.079.072-.127.11-.04.013.03.04.141.068.153.03-.052-.099-.196-.017-.297.104-.128.171.046.346-.026a.29.29 0 0 1 .247.018v.78c-.036-.014-.078-.045-.138-.126.027.15-.053.33-.288.237-.029-.012-.091-.048-.122-.05-.037.01-.475.148-.571.031-.017-.025-.023-.026-.036-.026-.044 0-.065.024-.091.054-.115.128-.242.105-.37.059a.653.653 0 0 0-.174.013 1.203 1.203 0 0 1-.39.032c-.152-.007-.357-.026-.687-.044-.172-.007-.324.048-.49.083-.173.038-.378.052-.714-.04a.573.573 0 0 1-.103-.036Z"/><path fill="#fff" d="m13.894 6.58-.035-.007.035.098V6.58Zm-.063.395c-.028-.076-.056-.15-.082-.228-.028-.074-.053-.151-.081-.226.032.007.065.017.098.024.025.077.053.156.079.233l.048.135v.084l-.062-.022Zm.487-.028-.028-.088-.06-.214c-.029-.003-.057-.005-.085-.01l.042.147c.017.049.03.098.044.146-.044-.051-.088-.105-.135-.158-.046-.059-.093-.114-.142-.175a.514.514 0 0 1-.06-.016v.09l.042.133c.025.077.053.154.079.231.028.01.056.014.084.021l-.05-.149a15.48 15.48 0 0 0-.048-.149l.137.165c.047.051.09.103.133.152h.046v-.126Zm0-.298v.058c-.014-.018-.026-.04-.04-.06a.268.268 0 0 0 .04.002Zm-.424.263a.986.986 0 0 0 .033.096.147.147 0 0 1-.033-.011v-.085Zm1.59.056c-.007-.053-.02-.107-.03-.16-.01-.051-.014-.105-.019-.159a2.94 2.94 0 0 0-.135-.023l-.007-.067c.119.023.24.049.359.067.002.019.002.04.005.06a1.466 1.466 0 0 1-.133-.018c.007.051.01.103.019.154.007.053.02.104.03.156-.03-.003-.058-.008-.089-.01Zm-.286-.17.09.03c-.002.043-.015.073-.042.094-.025.018-.06.025-.107.025a.258.258 0 0 1-.149-.049.279.279 0 0 1-.056-.058.18.18 0 0 1-.032-.08.222.222 0 0 1-.002-.088.157.157 0 0 1 .028-.067.174.174 0 0 1 .14-.065c.053 0 .1.016.137.046a.192.192 0 0 1 .056.077 1.27 1.27 0 0 0-.086.012.093.093 0 0 0-.04-.05.118.118 0 0 0-.063-.018.092.092 0 0 0-.072.035c-.016.024-.02.058-.011.103a.194.194 0 0 0 .02.063c.01.018.022.03.033.042.024.018.051.03.082.03a.083.083 0 0 0 .056-.019.1.1 0 0 0 .018-.063Zm-.394.18c-.016-.066-.035-.129-.05-.194-.015-.063-.026-.125-.04-.19a.988.988 0 0 1 .084-.017c.014.063.023.126.037.191.014.063.035.126.051.191a.7.7 0 0 0-.082.018Zm-.486-.27c.03.048.063.097.093.143.042.066.088.131.13.192a1.48 1.48 0 0 0 .085-.02c.007-.072.01-.142.018-.212.007-.07.019-.14.03-.207l-.088.019c-.008.051-.014.1-.019.151-.005.051-.007.105-.01.156a4.7 4.7 0 0 1-.093-.14l-.09-.144c-.02 0-.038.003-.057.003v.058Zm0 .365v-.126c.011.042.025.082.037.124-.012.002-.026.002-.037.002Zm1.532-.456v.111c-.002-.007-.007-.014-.01-.02-.01.025-.016.048-.025.074-.01.023-.016.046-.024.07.021 0 .04 0 .058-.003v.065h-.072a3.733 3.733 0 0 0-.02.082c-.03-.003-.061-.008-.091-.01.018-.058.03-.117.05-.177.022-.06.05-.121.073-.186l.06-.006Zm0 .297V6.85l.058-.002a.475.475 0 0 1-.035-.07l-.023-.049v-.111l.032-.007c.033.06.061.123.094.184.034.067.076.132.111.203l-.091.006c-.016-.032-.033-.06-.049-.09l-.097.001Z"/><path fill="#00120E" fill-rule="evenodd" d="M15.09 5.644c-.016-.055.034-.083.067-.088.043.002.06.022.06.022s-.076.055-.073.01c-.032.004-.053.056-.053.056Z" clip-rule="evenodd"/><path fill="url(#porto__e)" d="M15.919 14.926h-2.675v2.48h2.675v-2.48Z"/><path fill="#EA2228" fill-rule="evenodd" d="M14.626 15.461h.017v.012h.014v.015h-.014v.059h-.018l.001-.06h-.014v-.014h.014v-.012Z" clip-rule="evenodd"/><path fill="#fff" d="M15.782 15.353c-.09-.033-.15-.079-.254-.079 0 0 .165.079.167.214-.125-.158-.325-.196-.53-.196-.22.002-.45.052-.618.063-.198 0-.39-.058-.58-.06-.209-.003-.443.035-.568.193 0-.136.17-.211.17-.213-.108 0-.168.044-.257.078.187-.18.412-.219.653-.219.19.002.378.063.58.063.19 0 .427-.06.619-.063.21 0 .429.038.618.219Z"/><path fill="#1D3967" d="M13.669 15.77a.369.369 0 0 1-.052-.12c-.027-.124.046-.144.13-.13.035.008.047.021.053.035l.006.016a.013.013 0 0 0 .008.008c.052.017.07.039.084.056l.009.01a.053.053 0 0 0 .008.008.039.039 0 0 0 .026.005.119.119 0 0 1 .024-.023l.026-.019c.017-.01.027-.02.028-.033a.092.092 0 0 1-.005-.056l-.36-.382-.008-.02c-.002-.004.002-.008.007-.006l.018.007.36.37.006.005a.016.016 0 0 1 .013-.003l.008.002.009.005.012.008a.029.029 0 0 1 .006.006.01.01 0 0 1 .001.008c.005.003.01.006.01.015.005.007.005.01.004.012.003.003.005.005.004.012l-.001.005c.026.03.014.044-.014.026a.034.034 0 0 1-.02.011c-.025.062-.07.149-.133.154h-.009l-.01-.005a.65.65 0 0 0-.044-.026l-.002.009c0 .004-.002.009-.004.014a.074.074 0 0 0-.005.034.133.133 0 0 1 .025.068l.005.037c.003.014.006.03.012.048.001.003 0 .006-.005.006h-.263v-.07a.135.135 0 0 1 .007-.026l.011-.03a.175.175 0 0 0 .015-.05Zm1.368-.228c0-.01.004-.012.007-.013 0-.005.001-.008.003-.01a.029.029 0 0 1 .006-.006l.012-.009a.112.112 0 0 1 .015-.006l-.014-.013c-.017 0-.026-.011-.026-.022s.009-.023.021-.023c.014 0 .023.011.023.023l.023.027.353-.363.019-.008c.005-.002.008.001.006.006l-.007.018-.35.367.019.019c.018 0 .027.01.027.022a.023.023 0 0 1-.022.022c-.012 0-.02-.012-.02-.022l-.011-.013a.098.098 0 0 1-.008.046c0 .013.011.022.027.033a.371.371 0 0 1 .027.018.118.118 0 0 1 .024.024c.012 0 .02-.001.026-.005l.008-.008.009-.01a.156.156 0 0 1 .084-.056.016.016 0 0 0 .008-.008l.006-.017c.006-.013.018-.027.053-.035.083-.014.157.006.13.13a.421.421 0 0 1-.048.117.104.104 0 0 0 .01.054l.011.03a.12.12 0 0 1 .007.027l.01.097-.273-.027c-.004 0-.006-.003-.005-.007a.331.331 0 0 0 .012-.047.284.284 0 0 0 .005-.038.132.132 0 0 1 .025-.067.073.073 0 0 0-.005-.035l-.004-.014a.024.024 0 0 1 0-.008.208.208 0 0 0-.022.012.238.238 0 0 1-.034.018h-.01c-.062-.005-.107-.092-.132-.153a.037.037 0 0 1-.02-.012c-.028.019-.04.005-.014-.025v-.006c-.002-.006 0-.009.003-.01-.001-.003-.002-.007 0-.01l.006-.004Z"/><path fill="#1D3967" d="m15.524 16.05.033.375a.156.156 0 0 1 .05.032l.002.057v.052a.015.015 0 0 1-.002.008l-.034.031.078.884a.017.017 0 0 1-.017.019h-.542a.017.017 0 0 1-.018-.019l.078-.877-.041-.038-.002-.06v-.053a.123.123 0 0 1 .06-.038l.032-.368-.029-.025-.002-.046v-.039a.112.112 0 0 1 .066-.034.006.006 0 0 1 .007.005v.031a.19.19 0 0 1 .029-.004v-.032c0-.002.002-.005.005-.006.021-.004.04-.004.062-.006.004 0 .007.003.007.006l-.002.02v.013h.029v-.033c0-.003.003-.006.006-.006.022.002.041.002.061.006.003 0 .005.004.005.006v.032l.029.004v-.033c0-.004.003-.006.008-.005a.14.14 0 0 1 .062.03l.002.046v.039a.015.015 0 0 1-.001.006l-.021.02Z"/><path fill="#DE8D46" d="m15.476 16.067.035.399c-.012-.002-.025-.005-.038-.006v-.047a.006.006 0 0 0-.006-.006l-.082-.006c-.003 0-.006.002-.006.006v.047h-.042v-.02l.002-.027c0-.004-.003-.006-.007-.006l-.04.002.001-.348a.408.408 0 0 1 .183.012Zm-.214 1.115.023-.61a.673.673 0 0 1 .072-.005c.066 0 .131.01.165.026l.076.865h-.122v-.22a.11.11 0 0 0-.109-.11h-.01a.108.108 0 0 0-.095.054Z"/><path fill="#1D3967" fill-rule="evenodd" d="M15.363 16.756c.025 0 .046.021.046.047a.046.046 0 1 1-.046-.047Zm0-.597c.025 0 .046.02.046.046a.047.047 0 0 1-.046.047.047.047 0 0 1-.047-.047c0-.025.021-.046.046-.046Z" clip-rule="evenodd"/><path fill="#1D3967" d="m13.919 16.05.033.375a.158.158 0 0 1 .05.032l.002.057v.052a.015.015 0 0 1-.002.008l-.034.031.078.884a.017.017 0 0 1-.017.019h-.543a.017.017 0 0 1-.017-.019l.077-.877-.04-.038-.003-.06v-.053a.123.123 0 0 1 .06-.038l.032-.368-.028-.025-.002-.046v-.039a.112.112 0 0 1 .065-.034.006.006 0 0 1 .007.005v.031a.19.19 0 0 1 .029-.004v-.032c0-.002.002-.005.005-.006.022-.004.041-.004.063-.006.003 0 .007.003.007.006l-.002.02v.013h.028v-.033c0-.003.003-.006.007-.006.021.002.04.002.06.006.003 0 .006.004.006.006v.032l.028.004v-.033c0-.004.004-.006.008-.005a.14.14 0 0 1 .063.03l.002.046v.039l-.002.006-.02.02Z"/><path fill="#DE8D46" d="m13.871 16.067.035.399c-.012-.002-.025-.005-.038-.006v-.047a.006.006 0 0 0-.006-.006l-.082-.006c-.003 0-.006.002-.006.006v.047h-.042v-.02l.002-.027c0-.004-.004-.006-.007-.006l-.041.002.002-.348a.408.408 0 0 1 .183.012Zm-.213 1.115.022-.61a.673.673 0 0 1 .072-.005c.066 0 .131.01.165.026l.076.865h-.122v-.22a.11.11 0 0 0-.109-.11h-.01a.108.108 0 0 0-.094.054Z"/><path fill="#1D3967" fill-rule="evenodd" d="M13.758 16.756c.025 0 .046.021.046.047a.046.046 0 1 1-.046-.047Zm0-.597c.025 0 .046.02.046.046a.047.047 0 0 1-.046.047.047.047 0 0 1-.047-.047c0-.025.021-.046.047-.046Z" clip-rule="evenodd"/><path fill="url(#porto__f)" d="M14.32 16.713c-.08-.078-.074-.225-.08-.247-.007-.027.05-.226.069-.232.018-.005.02-.07.02-.07s0-.132.049-.202.041-.035.047-.05c.007-.017.041-.026.047-.031.005-.006.035-.03.023-.091-.011-.061.05-.111.052-.113h-.002c-.002-.002-.002-.002.002 0l.002-.002a.364.364 0 0 0-.063-.044c-.007-.003-.019-.041.006-.058.027-.02.046-.007.05-.01.003-.003-.006-.027.028-.04.04-.014.055.017.063.015.004-.001.016-.034.053-.02.034.014.029.04.029.04s.026-.012.05.012c.032.031.016.066-.003.073a.147.147 0 0 0-.04.035l-.001.002c.081.058.017.188.026.27.006-.015.011-.032.06-.03.056 0 .067.056.067.082 0 .05-.02.087-.02.087.058.03.09.07.084.125-.006.042-.014.045-.016.05 0 .006.006.017.008.038a.374.374 0 0 1-.003.062c-.001.007-.013.072-.022.076-.009.005-.031.058-.042.065-.01.006-.021.043-.021.043s-.012.056-.008.065a.38.38 0 0 1-.002.115c-.006.006-.008.052-.005.062 0 .003.012.048.011.052-.001.004.005.057 0 .067a.103.103 0 0 1-.042.07c-.01.008-.01.01-.013.017-.003.006-.026.035-.033.036-.008.001.001.1.001.1s.01.07.004.087c-.006.018-.003.072-.013.083-.01.01-.015.047-.014.053a.34.34 0 0 0 .016.062c.003 0 .013.06.016.06.003.003.02.051.021.066.002.015.021.097.011.104-.01.008-.046.01-.046.01l-.147.003s-.087.003-.091 0c-.005-.003-.097.007-.106.001-.01-.005-.134-.002-.138-.012a.517.517 0 0 1 .007-.103c.004-.015.017-.105.026-.127.02-.046.018-.066.035-.11.022-.056.032-.089.038-.1.006-.01.025-.1.014-.107-.01-.007-.06-.019-.088-.09-.029-.07 0-.18 0-.19 0-.01.042-.094.025-.11Z"/><path fill="#fff" fill-rule="evenodd" d="M14.874 16.253a.12.12 0 0 1 .003-.085s.004.04.02.056c-.043.023-.008.065-.023.029Zm-.029.025c.008-.002.004-.005-.01-.005a.068.068 0 0 0-.033.011c-.03.02-.03.02-.035.029-.007-.008-.015-.012-.014-.018 0-.017-.016-.05-.019-.062-.003-.015 0-.069 0-.069s-.016.014-.023.048a.089.089 0 0 0 .016.065s-.025-.004-.023.01c0 .012.023.005.034.015.01.009.03.027.035.026.008-.002.016-.018.034-.03a.184.184 0 0 1 .038-.02Zm-.095.086s.053-.003.06-.03c.008-.027.054-.045.054-.045s.028-.002.031-.008l.023-.043c.009-.011.004-.032.004-.04 0-.013-.025-.055-.025-.055l-.037-.027-.033-.016c.022-.016.023-.054.024-.075 0-.019-.01-.057-.051-.057-.042 0-.062.03-.061.067 0 .037.02.063.06.066-.016.034-.038.013-.058.013-.02 0-.063.011-.069.052-.005.04-.006.05.001.074.008.024.023.02.022.036-.014-.005-.043.002-.058.017l-.115-.245a.034.034 0 0 0 .01-.023.032.032 0 0 0-.032-.032.032.032 0 0 0 0 .064h.002c.05.1.092.186.125.256-.006.023-.012.051.008.049l.006-.01c-.005.008-.004.012-.007.022-.004.01-.048.003-.062.006-.016.003-.1-.042-.1-.042s-.074.036-.08.088c.123.03.186.016.226.008.04-.009.03.001.054.009a.094.094 0 0 0 .015.003l.033.075c.008.013.025.002.02-.007l-.033-.07a.02.02 0 0 0 .01-.01c.006-.014.008-.033-.002-.045-.012-.014.035-.025.035-.025Zm-.218-.481c.02.056.032.069.085.087-.04.024-.063.02-.089.02a.06.06 0 0 0 .062.048c.032 0 .064-.023.057-.06a.324.324 0 0 0 .088-.143c.019-.096-.088-.13-.154-.049-.038.046-.039.056-.049.097Zm.02-.23c.073-.041.16-.002.16-.002s.013-.01.024-.015c.01-.005.03-.025.005-.045-.017-.014-.031-.009-.05 0 0-.027-.002-.037-.02-.043-.013-.005-.022-.002-.041.023-.024-.02-.034-.022-.053-.015-.016.006-.018.036-.018.036s-.037-.014-.054.007c-.017.023.017.027.017.027s.027-.024.084-.03a.128.128 0 0 0-.054.057Z" clip-rule="evenodd"/><path fill="#DE8D46" d="M15.545 14.325h.905v.925c0 .053-.054.108-.106.108h-.233c-.064 0-.113.052-.113.073 0-.021-.047-.073-.112-.073h-.233c-.054 0-.108-.055-.108-.107v-.926Z"/><path fill="#EA2228" fill-rule="evenodd" d="M17.464 12.141h.017v.012h.014v.015h-.015v.059h-.017v-.06h-.014v-.014h.015v-.012Z" clip-rule="evenodd"/><path fill="url(#porto__g)" d="M17.159 13.393c-.081-.078-.075-.224-.08-.247a.661.661 0 0 1 .068-.232c.018-.005.02-.07.02-.07s0-.132.049-.202.04-.035.047-.05c.007-.017.041-.026.047-.031.005-.006.034-.03.023-.091-.01-.061.05-.11.052-.113h-.002.002l.001-.002a.365.365 0 0 0-.062-.044c-.007-.002-.02-.04.006-.058.027-.019.046-.007.05-.01.003-.003-.006-.027.027-.039.04-.015.055.016.063.014.004-.001.016-.034.053-.02.035.014.03.041.03.041s.025-.013.05.011c.032.032.016.067-.004.074-.017.006-.04.035-.04.035v.002c.081.057.017.187.025.269.007-.015.012-.031.06-.03.057 0 .068.057.068.083 0 .05-.02.086-.02.086.058.031.09.07.083.126-.005.042-.014.045-.015.05-.001.005.005.016.007.037a.374.374 0 0 1-.002.063c-.002.007-.013.071-.023.076-.008.005-.03.058-.041.065-.01.005-.022.042-.022.042s-.012.057-.008.066a.38.38 0 0 1-.002.114c-.006.007-.007.052-.005.063 0 .003.013.048.012.051-.002.004.005.057 0 .068a.103.103 0 0 1-.042.07c-.012.008-.01.01-.014.017a.142.142 0 0 1-.033.036c-.008 0 .002.1.002.1s.009.07.003.087c-.006.018-.003.072-.013.082-.01.01-.015.048-.014.053a.34.34 0 0 0 .016.062c.003 0 .014.06.017.061.002.002.02.05.021.066.001.014.021.096.011.104-.01.008-.046.01-.046.01l-.148.003s-.086.003-.09 0c-.005-.003-.097.007-.106.001-.01-.006-.134-.002-.138-.012a.524.524 0 0 1 .007-.103c.004-.015.017-.106.026-.127.02-.046.018-.066.035-.11.022-.056.031-.09.037-.1.006-.01.025-.1.015-.107-.011-.008-.06-.019-.089-.09-.028-.07 0-.18 0-.19 0-.01.043-.095.026-.11Z"/><path fill="#fff" fill-rule="evenodd" d="M17.712 12.933c-.017-.04.003-.085.003-.085s.004.04.02.056c-.044.024-.008.065-.023.03Zm-.029.025c.008-.003.004-.005-.01-.005a.068.068 0 0 0-.033.01c-.03.02-.03.02-.035.03-.007-.008-.015-.013-.015-.019.002-.016-.015-.049-.018-.061-.003-.015 0-.069 0-.069s-.016.014-.023.048c-.007.035.016.065.016.065s-.025-.004-.023.01c.002.012.023.004.034.014.01.009.03.027.035.026.008-.001.016-.018.034-.03a.238.238 0 0 1 .038-.02Zm-.096.086s.053-.003.061-.03.054-.045.054-.045.028-.002.031-.008l.023-.044c.009-.01.004-.032.004-.04a.22.22 0 0 0-.025-.053l-.037-.027-.034-.016c.023-.016.024-.055.025-.076 0-.018-.01-.056-.052-.056-.041 0-.061.03-.06.067 0 .037.02.063.06.066-.016.033-.038.013-.059.013-.02 0-.063.01-.068.05-.006.04-.007.05 0 .075.008.024.023.02.022.036-.014-.005-.043.002-.058.017l-.115-.245a.034.034 0 0 0 .01-.023.032.032 0 0 0-.064 0c0 .018.015.032.033.032h.002c.05.1.091.185.124.255-.006.023-.011.052.008.049l.006-.01c-.005.008-.004.012-.007.022-.003.01-.048.003-.061.006a.43.43 0 0 1-.1-.042s-.074.036-.08.088c.122.03.186.016.225.008.04-.009.03.001.054.008.006.002.01.003.016.003l.033.075c.007.014.024.002.02-.007l-.034-.07a.02.02 0 0 0 .01-.01c.007-.013.008-.033-.002-.045-.011-.012.035-.023.035-.023Zm-.217-.481c.019.056.031.069.084.087-.04.024-.062.021-.088.02a.06.06 0 0 0 .062.048c.032 0 .063-.023.056-.059a.323.323 0 0 0 .088-.144c.019-.096-.088-.13-.154-.05-.037.047-.038.057-.048.098Zm.02-.23c.073-.041.16-.002.16-.002s.013-.01.023-.015c.01-.005.032-.025.006-.045-.017-.013-.032-.008-.05 0 0-.027-.003-.037-.02-.043-.013-.004-.023 0-.042.024-.023-.02-.033-.022-.052-.015-.016.005-.02.036-.02.036s-.036-.014-.053.006c-.017.023.017.028.017.028s.027-.024.084-.03a.126.126 0 0 0-.053.056Z" clip-rule="evenodd"/><path fill="#39B54A" d="M12.711 19.107s-.025.034-.068.073a1.15 1.15 0 0 1-.025.105c-.011.036-.065.02-.053-.016l.009-.035a.495.495 0 0 1-.076.041c-.19.204-.461.085-.458.085a.18.18 0 0 0 .082-.037c.028-.04.075-.085.068-.08-.196.122-.32-.02-.326-.025-.1-.084-.179-.075-.173-.08.04-.034.179-.083.172-.08a.287.287 0 0 1-.265-.056c-.073-.067-.12-.041-.11-.05.155-.173.402-.06.402-.059-.003-.001-.052-.134-.062-.13-.273.124-.334-.144-.338-.15-.049-.086-.086-.092-.08-.093.27-.045.37.135.379.152-.037-.075-.033-.197-.041-.199-.336-.08-.238-.317-.238-.33.006-.09-.025-.14-.02-.14.055-.01.151.066.151.057 0-.167.152-.232.156-.234.037-.019.057-.05.051-.056-.084-.084.003-.3.007-.293.031.056.081.1.087.104.081.069.081.144.088.145a.3.3 0 0 1 .272.276l.017.012a.329.329 0 0 1 .032-.129c.043-.085.044-.148.047-.143.014.029.08.166.085.181.06.163.04.241.02.279l.017.024c.013-.079.055-.195.062-.187.15.179.1.39.102.386.03-.076.208-.138.202-.13-.03.045-.04.193-.042.2-.044.118-.143.152-.174.164a1.58 1.58 0 0 1-.01.423l.007-.007c.021-.03.066.002.044.032Zm-.17.084a.486.486 0 0 0 .05-.039l.005-.02c-.282-.057-.264-.446-.26-.442.081.08.227.08.227.08-.08 0-.145-.11-.148-.115-.045-.09-.11-.126-.106-.126.154 0 .249.036.292.057a1.148 1.148 0 0 0-.02-.09c-.285.024-.355-.169-.357-.171-.087-.11-.106-.115-.106-.116.04-.014.126-.02.122-.02-.082 0-.27-.184-.268-.184a.113.113 0 0 0 .057.006c-.076-.095-.122-.092-.116-.1.015-.026.079-.04.072-.042-.069-.017-.1-.065-.097-.055.027.08-.04.24-.035.235.026-.026.075-.044.073-.028-.013.116-.01.136-.01.145 0 .134-.037.166-.03.177.066.098.068.309.07.305a.42.42 0 0 1 .09-.12c.071.107.07.237.072.234.006-.02.013-.048.016-.041.023.052.127.181.137.195.113.154 0 .266.006.262.089-.049.237 0 .264.013Zm-.731-3.017s.022-.012.056-.036a.755.755 0 0 1-.228-.213c-.101.164-.238.046-.248.038-.118-.091-.2-.089-.193-.097.114-.132.2-.098.188-.103-.05-.023-.068-.135-.07-.146-.02-.138-.123-.194-.117-.194.143 0 .264.084.309.116a1.046 1.046 0 0 1-.002-.106c-.227.042-.222-.15-.222-.162 0-.129-.073-.225-.065-.22.063.03.136.076.132.072-.05-.066-.004-.282.002-.278.068.033.126.112.13.115.033.024.062.123.072.16.008-.028.016-.057.026-.086-.015-.033 0-.033-.008-.039-.244-.183-.1-.393-.1-.399.014-.07-.01-.12-.005-.119.081.027.154.22.154.214 0-.062.154-.103.153-.107-.027-.11.07-.185.075-.19.1-.08.036-.175.043-.17.28.21.045.403.045.403a4.086 4.086 0 0 0 .076.008.253.253 0 0 1 .007-.124c.003-.007.03.073.086.1.01.006.105.073.11.103.004.03-.006-.15.15-.254.007-.004.06.351-.071.417.017.084.029.169.034.253.03-.045.098-.118.208-.09.007.002-.042.039-.042.159 0 .009-.007.101-.11.175-.006.005.109-.043.127-.038.01.002 0 .343-.274.395a1.001 1.001 0 0 1-.061.124c.074-.06.184-.125.287-.091.008.003-.123.183-.148.224-.002.004-.066.126-.249.023a1.061 1.061 0 0 1-.121.12.49.49 0 0 0 .073.03c.028.009.016.051-.013.043a.555.555 0 0 1-.098-.042c-.047.035-.078.051-.078.051-.025.013-.046-.026-.02-.04Zm.094-.065a1.01 1.01 0 0 0 .106-.1c-.034-.017-.142-.077-.073-.266l.073-.19s.136.164.103.324a.992.992 0 0 0 .083-.157c-.05-.016-.16-.072-.124-.23.002-.013.025-.159-.018-.202-.003-.003.145.034.197.217.001.004.012-.02.02-.046l.005-.04c0-.007-.194-.065-.176-.27.001-.01.04-.149-.018-.242a.44.44 0 0 1 .202.212 1.813 1.813 0 0 0-.02-.17c-.022-.001-.154-.015-.227-.201l-.003-.01a.302.302 0 0 1-.169.122c-.01 0-.028.048-.03.059a.266.266 0 0 1-.024.055s-.014.14-.021.161c-.078.248-.19.249-.237.242a1.04 1.04 0 0 0 .002.194c.044-.185.199-.264.205-.256.051.06.04.153.038.165-.033.177-.148.265-.19.303a.64.64 0 0 0 .07.125c-.064-.141.048-.209.051-.21.12-.08.101-.156.106-.148.115.2.042.263.042.275 0 .01-.099.125-.127.168a.73.73 0 0 0 .154.116Zm8.276-3.132s-.03-.016-.078-.051c-.057.03-.097.042-.098.043-.028.008-.04-.034-.012-.043 0 0 .029-.008.073-.03a1.054 1.054 0 0 1-.122-.12c-.182.103-.246-.02-.249-.024-.025-.04-.155-.22-.147-.223.102-.034.212.03.287.091a1.075 1.075 0 0 1-.062-.124c-.273-.052-.284-.393-.273-.396.018-.005.133.043.127.039-.103-.074-.111-.166-.111-.175 0-.12-.048-.158-.041-.16.11-.027.177.047.208.091a1.82 1.82 0 0 1 .034-.253c-.132-.066-.078-.421-.072-.417.157.104.147.284.151.254.005-.03.1-.098.11-.103.055-.027.082-.108.086-.1a.253.253 0 0 1 .006.124l.016-.002.06-.007s-.235-.192.046-.402c.006-.005-.057.09.043.17.005.005.102.08.075.19-.002.004.153.044.153.107 0 .005.072-.187.154-.214.004-.002-.02.049-.006.119.001.005.144.216-.1.4-.008.005.007.005-.007.038.01.03.018.058.025.086.01-.037.04-.136.072-.16.005-.003.063-.082.13-.115.007-.004.052.212.002.278-.003.004.07-.041.132-.073.009-.004-.065.092-.065.22 0 .012.005.205-.221.163 0 .037 0 .072-.002.105a.557.557 0 0 1 .308-.115c.007 0-.097.056-.116.194-.002.012-.021.124-.07.146-.013.006.074-.029.187.104.007.007-.075.005-.192.097-.01.007-.147.125-.248-.039a.752.752 0 0 1-.229.213.57.57 0 0 0 .057.036c.026.013.006.052-.02.038Zm.08-.218c-.029-.043-.127-.158-.127-.168 0-.012-.073-.074.042-.275.005-.008-.014.067.106.147.003.002.116.07.051.21a.636.636 0 0 0 .07-.124c-.042-.038-.157-.126-.189-.303-.002-.013-.014-.106.037-.166.007-.007.161.072.205.257a1 1 0 0 0 .002-.194c-.047.006-.159.005-.236-.242a2.354 2.354 0 0 1-.021-.161s-.02-.034-.024-.055c-.002-.011-.02-.059-.03-.059a.302.302 0 0 1-.17-.121l-.002.008c-.073.187-.205.2-.227.202-.01.056-.017.113-.02.17a.44.44 0 0 1 .202-.212c-.06.093-.02.232-.02.241.02.205-.174.264-.175.27l.006.04c.007.026.018.051.019.047.052-.183.2-.22.197-.217-.043.043-.02.189-.018.201.037.159-.074.215-.124.231.023.055.05.107.083.157-.034-.16.103-.324.103-.324l.073.19c.069.19-.04.249-.073.266.031.034.066.067.106.1a.74.74 0 0 0 .153-.116Zm-3.936 6.523c.001 0 .077-.025.191-.05.058.143.221.147.232.148.097.004.221.096.22.089-.009-.047-.032-.098-.024-.09.08.08.31.103.304.1a.632.632 0 0 1-.095-.124c-.037-.087-.11-.149-.102-.146.025.009.053-.001.073-.01l.034.005c.097.35.405.22.41.226.03.029.134.058.123.058-.091 0-.241.104-.24.102a.934.934 0 0 0 .033-.11c-.009.02-.082.05-.093.05-.165 0-.217.13-.216.122.02-.119.055-.132.043-.13-.337.076-.338.303-.338.294 0-.01-.055-.046-.047-.05.036-.018.056-.083.057-.09.007-.035.06-.108.052-.108-.291 0-.37.154-.377.157a.783.783 0 0 0-.086.043.563.563 0 0 1-.101-.088c.078.032.163-.019.173-.024.136-.078.174-.063.168-.068a.324.324 0 0 0-.418-.011l-.02-.037a.547.547 0 0 1-.042-.1c-.01-.035-.065-.02-.055.015 0 .001.027.098.105.204-.166.244.206.42.204.418a.431.431 0 0 1-.033-.146.444.444 0 0 0-.022-.124c.014.01.028.019.043.027a.179.179 0 0 1 .026.035c0 .24.416.25.415.245a2.924 2.924 0 0 0-.1-.192c.022 0 .044 0 .067-.002.195.244.485.12.481.119a.24.24 0 0 1-.119-.121c.078.077.24.068.253.06.111-.063.261-.078.257-.081-.056-.057-.199-.11-.187-.114.101-.033.12-.152.122-.16.019-.095.065-.13.075-.13.138-.018.254-.19.25-.186a1.943 1.943 0 0 1-.274.005.257.257 0 0 0-.148.02c-.047 0-.088-.01-.117-.05l-.008-.01a.167.167 0 0 0-.018-.02.29.29 0 0 0 .145-.034c.09-.067.154-.054.152-.058-.159-.238-.387-.014-.43.02a.848.848 0 0 0-.121-.03.853.853 0 0 0 .127-.144c-.02.02-.157 0-.163-.002-.187-.038-.28.033-.28.033l.022-.05c.036-.083.097-.088.09-.092-.148-.074-.26-.024-.256-.034.02-.047.033-.188.021-.186-.143.032-.186.093-.191.098-.075.075-.108.35-.115.414-.091.022-.149.04-.149.04-.036.013-.019.067.017.055Zm3.021-.208.006.008a1.579 1.579 0 0 1-.009-.423c-.03-.012-.13-.046-.174-.164-.003-.007-.012-.156-.042-.2-.006-.008.172.054.202.13.002.004-.05-.207.102-.386.007-.009.05.107.062.187l.017-.024c-.02-.039-.04-.117.02-.28.005-.014.071-.152.085-.18.003-.006.004.057.047.143a.341.341 0 0 1 .032.129l.017-.012a.3.3 0 0 1 .272-.276c.007-.001.007-.077.088-.145a.431.431 0 0 0 .087-.105c.004-.006.09.21.007.294-.006.005.013.037.051.056.004.002.156.066.156.234 0 .008.096-.067.15-.058.006.001-.026.051-.02.14.002.014.099.25-.237.33-.008.003-.004.124-.04.2.008-.017.108-.197.378-.153.005.001-.031.007-.08.093-.003.006-.065.275-.338.151-.01-.004-.06.129-.062.13 0-.002.247-.115.403.058.008.01-.038-.017-.111.05a.284.284 0 0 1-.265.056c-.007-.002.132.047.171.08.007.006-.073-.003-.172.08-.006.005-.13.147-.326.025-.007-.005.04.041.068.08a.182.182 0 0 0 .082.037s-.268.12-.458-.084a.486.486 0 0 1-.076-.041l.01.034c.01.036-.043.052-.054.017 0 0-.012-.04-.026-.106-.042-.039-.067-.072-.068-.072-.022-.03.023-.063.045-.033Zm.389.106c.006.004-.107-.109.006-.262.01-.014.114-.143.137-.196.003-.006.01.022.016.041.001.003 0-.127.072-.233a.403.403 0 0 1 .09.12c.002.003.005-.208.07-.306.007-.01-.03-.042-.03-.176 0-.01.003-.03-.01-.146-.002-.015.048.002.073.028.005.005-.062-.155-.035-.234.003-.01-.028.037-.097.054-.007.002.057.016.072.042.005.008-.04.005-.116.1a.128.128 0 0 0 .057-.005c.002 0-.186.183-.268.183-.004 0 .081.008.121.02 0 .002-.019.007-.106.116-.002.003-.072.196-.356.172a.965.965 0 0 0-.02.09.664.664 0 0 1 .291-.058c.005 0-.06.035-.105.127-.003.005-.069.114-.148.114 0 0 .146.001.226-.08.005-.004.023.386-.259.442l.004.02a.486.486 0 0 0 .051.04c.027-.014.175-.064.264-.013Zm.446-2.968s-.03-.015-.078-.051a.606.606 0 0 1-.097.042c-.03.009-.042-.034-.013-.042 0 0 .029-.009.073-.03a1.063 1.063 0 0 1-.122-.12c-.182.103-.246-.02-.249-.024-.025-.04-.155-.22-.147-.223.102-.034.212.03.287.091a1.067 1.067 0 0 1-.062-.124c-.273-.052-.284-.393-.273-.396.018-.005.133.043.127.039-.103-.074-.111-.166-.111-.175 0-.12-.048-.158-.041-.16.11-.027.177.046.208.091.005-.084.017-.169.034-.253-.132-.066-.078-.421-.072-.417.157.104.147.284.151.254.005-.03.1-.098.11-.103.055-.027.082-.108.086-.1a.253.253 0 0 1 .006.124l.016-.002.06-.007s-.235-.192.046-.402c.006-.005-.057.09.043.17.005.005.102.08.075.19-.002.004.153.044.153.107 0 .005.072-.187.154-.214.004-.002-.02.049-.006.119.001.005.144.216-.1.4-.008.005.007.005-.007.038.01.03.018.058.025.086.01-.037.04-.136.072-.16.005-.003.063-.082.13-.115.007-.004.052.212.002.278-.003.004.07-.041.132-.073.009-.004-.065.092-.065.22 0 .012.005.205-.221.163 0 .037 0 .072-.002.106a.556.556 0 0 1 .308-.116c.007 0-.097.056-.116.194-.002.012-.021.124-.07.146-.013.005.074-.03.187.103.007.008-.075.005-.192.097-.01.008-.147.125-.248-.038a.754.754 0 0 1-.229.212.624.624 0 0 0 .057.037c.026.013.006.052-.02.038Zm.08-.218c-.029-.043-.127-.158-.127-.168 0-.012-.073-.074.042-.275.005-.008-.014.067.106.147.003.002.116.07.051.21a.633.633 0 0 0 .07-.124c-.042-.038-.157-.126-.189-.304-.002-.011-.014-.105.037-.165.007-.007.161.072.205.257a1 1 0 0 0 .002-.194c-.047.006-.159.005-.236-.242a2 2 0 0 1-.021-.161s-.02-.034-.024-.055c-.002-.011-.02-.059-.03-.059a.302.302 0 0 1-.17-.122l-.002.01c-.073.186-.205.2-.227.2a1.77 1.77 0 0 0-.02.17.44.44 0 0 1 .202-.21c-.06.092-.02.23-.02.24.02.205-.174.264-.175.27l.006.04c.007.026.018.051.019.047.052-.183.2-.22.197-.217-.043.043-.02.189-.018.201.037.159-.074.215-.124.231.023.055.05.107.083.157-.034-.16.103-.324.103-.324l.073.19c.069.19-.04.249-.073.266.031.034.066.067.106.1a.747.747 0 0 0 .153-.116Z"/><path fill="#D02028" fill-rule="evenodd" d="M15.998 15.187c-.08-.048-.433-.274-.335-.505.078-.183.314-.115.335-.012.02-.104.256-.171.334.012.098.232-.254.457-.334.505Z" clip-rule="evenodd"/></svg>