<svg fill="none" height="32" viewBox="0 0 32 32" width="32" xmlns="http://www.w3.org/2000/svg"><path d="m16 32c8.8366 0 16-7.1634 16-16 0-8.83656-7.1634-16-16-16-8.83656 0-16 7.16344-16 16 0 8.8366 7.16344 16 16 16z" fill="#fff"/><path d="m21.9993 5.61475 1.466 5.46215-5.4712 1.4652-1.466-5.46957z" fill="#69ee5f"/><path d="m16.0003 4.00818-4.0052 3.99616 4.0052 4.00356 4.0052-4.00356z" fill="#27d9e5"/><path d="m17.3151 21.2937-1.0009 3.6214 2.19.5695 1.5013-1.5013z" fill="#27d9e5"/><path d="m17.3151 21.2937-1.0009 3.6214 2.19.5695 1.5013-1.5013z" fill="#31d37d"/><path d="m10.5539 17.4528-3.47759-.9318-.53822 2.0075 1.47011 1.4693z" fill="#27d9e5"/><path d="m10.5539 17.4528-3.47759-.9318-.53822 2.0075 1.47011 1.4693z" fill="#05ccc2"/><path d="m21.447 14.5348 3.4777.9319.5374-2.0075-1.4693-1.4693z" fill="#27d9e5"/><path d="m21.447 14.5348 3.4777.9319.5374-2.0075-1.4693-1.4693z" fill="#4bd75f"/><path d="m10.5539 14.5348-2.54573-2.5449-1.47008 1.4692.53825 2.0076z" fill="#27d9e5"/><path d="m10.5539 14.5348-2.54573-2.5449-1.47008 1.4692.53825 2.0076z" fill="#05ccc5"/><path d="m12.0133 12.008-.9319-3.47602-2.00833.53742-.53743 2.0075z" fill="#27d9e5"/><path d="m12.0133 12.008-.9319-3.47602-2.00833.53742-.53743 2.0075z" fill="#05cbc4"/><path d="m21.446 17.4528 2.5466 2.545 1.4693-1.4693-.5374-2.0075z" fill="#27d9e5"/><path d="m21.446 17.4528 2.5466 2.545 1.4693-1.4693-.5374-2.0075z" fill="#46d661"/><path d="m19.9949 20.0093.9244 3.4472 1.9895-.5333.5563-2.0116z" fill="#27d9e5"/><path d="m19.9949 20.0093.9244 3.4472 1.9895-.5333.5563-2.0116z" fill="#40d568"/><path d="m14.5409 21.4384-2.5458 2.545 1.4693 1.4692 2.0084-.5374z" fill="#27d9e5"/><path d="m14.5409 21.4384-2.5458 2.545 1.4693 1.4692 2.0084-.5374z" fill="#1ed099"/><path d="m12.0133 19.9797-3.47766.9319.53743 2.0067 2.00833.5383z" fill="#27d9e5"/><path d="m12.0133 19.9797-3.47766.9319.53743 2.0067 2.00833.5383z" fill="#0ecdb4"/><path d="m19.9875 12.0079 3.4777-.931-.5383-2.00751-2.0075-.53741z" fill="#27d9e5"/><path d="m19.9875 12.0079 3.4777-.931-.5383-2.00751-2.0075-.53741z" fill="#54e65d"/><path d="m14.5409 10.5494.9319-3.47682-2.0084-.53742-1.4693 1.46928z" fill="#27d9e5"/><path d="m14.5409 10.5494.9319-3.47682-2.0084-.53742-1.4693 1.46928z" fill="#03cec8"/><path d="m17.4599 10.5494 2.5458-2.545-1.4701-1.46924-2.0075.53742z" fill="#27d9e5"/><path d="m17.4599 10.5494 2.5458-2.545-1.4701-1.46924-2.0075.53742z" fill="#1add50"/><path d="m17.3153 21.2937-1.3148-1.314-1.4594 1.4587.9319 3.4768-2.0084.5374 2.5359 2.5351 2.5039-2.503-2.19-.5695z" fill="#5ade9e"/><path d="m10.5539 17.4528 1.4594-1.4586-1.4594-1.4594-3.47765.9318-.53822-2.0075-2.5351 2.5351 2.5351 2.5343.53822-2.0075z" fill="#3addd2"/><path d="m21.447 14.5348-1.4595 1.4594 1.4587 1.4586 3.4784-.9318.5374 2.0075 2.536-2.5343-2.536-2.5351-.5375 2.0075z" fill="#74df71"/><path d="m12.0132 12.0079 1.9936.5341.5341-1.9927-2.5458-2.545 1.4693-1.46924-3.4628-.92776-.9286 3.462 2.0083-.53734z" fill="#42ddd3"/><path d="m19.9949 20.0093-2.1694-.5637-.5103 1.8481 2.6904 2.6896-1.5013 1.5013 3.4497.8965.9557-3.4579-1.9903.5333z" fill="#6ddf84"/><path d="m12.0134 19.9798.5341-1.9928-1.9935-.5341-2.54582 2.545-1.47008-1.4693-.92775 3.462 3.46285.9277-.53743-2.0067z" fill="#3fddc7"/><path d="m19.9875 12.008-.5341 1.9936 1.9935.5333 2.5458-2.545 1.4693 1.4693.9285-3.46199-3.4636-.92775.5382 2.00754z" fill="#71dd6a"/><path d="m10.5537 14.5349 1.9936-.5333-.5341-1.9936-3.47767-.931.53743-2.00754-3.46285.92775.92775 3.46199 1.47011-1.4693z" fill="#3eddd2"/><path d="m23.9927 19.9978-2.5466-2.545-1.9927.5341.5415 2.0224 3.4702.9022-.5555 2.0117 3.481-.9327-.9286-3.462z" fill="#76e074"/><path d="m14.5409 21.4383-.5341-1.9927-1.9936.5341-.9318 3.4768-2.0084-.5382.9286 3.4628 3.4628-.9286-1.4693-1.4692z" fill="#4bdeb5"/><path d="m17.46 10.5493.5341 1.9927 1.9936-.5341.9318-3.47602 2.0075.53742-.9277-3.462-3.4637.92776 1.4701 1.46928z" fill="#74ef6b"/><path d="m14.5411 10.5493 1.4594 1.4586 1.4595-1.4586-.9319-3.47678 2.0075-.53742-2.5351-2.5351-2.5359 2.5351 2.0084.53742z" fill="#45e6dc"/></svg>