<svg width="32" height="32" fill="none" xmlns="http://www.w3.org/2000/svg"><path d="M16 32c8.837 0 16-7.163 16-16S24.837 0 16 0 0 7.163 0 16s7.163 16 16 16Z" fill="#fff"/><path d="m22 5.615 1.465 5.462-5.47 1.465-1.467-5.47L22 5.616Z" fill="#69EE5F"/><path d="m16 4.008-4.005 3.996L16 12.008l4.006-4.004L16 4.008ZM17.315 21.294l-1 3.621 2.19.57 1.5-1.502-2.69-2.69Z" fill="#27D9E5"/><path d="m17.315 21.294-1 3.621 2.19.57 1.5-1.502-2.69-2.69Z" fill="#31D37D"/><path d="m10.554 17.453-3.478-.932-.538 2.008 1.47 1.469 2.546-2.545Z" fill="#27D9E5"/><path d="m10.554 17.453-3.478-.932-.538 2.008 1.47 1.469 2.546-2.545Z" fill="#05CCC2"/><path d="m21.447 14.535 3.478.932.537-2.008-1.47-1.47-2.545 2.546Z" fill="#27D9E5"/><path d="m21.447 14.535 3.478.932.537-2.008-1.47-1.47-2.545 2.546Z" fill="#4BD75F"/><path d="M10.554 14.535 8.008 11.99l-1.47 1.47.538 2.007 3.478-.932Z" fill="#27D9E5"/><path d="M10.554 14.535 8.008 11.99l-1.47 1.47.538 2.007 3.478-.932Z" fill="#05CCC5"/><path d="m12.013 12.008-.932-3.476-2.008.537-.537 2.008 3.477.931Z" fill="#27D9E5"/><path d="m12.013 12.008-.932-3.476-2.008.537-.537 2.008 3.477.931Z" fill="#05CBC4"/><path d="m21.446 17.453 2.547 2.545 1.469-1.47-.538-2.007-3.478.932Z" fill="#27D9E5"/><path d="m21.446 17.453 2.547 2.545 1.469-1.47-.538-2.007-3.478.932Z" fill="#46D661"/><path d="m19.995 20.01.924 3.446 1.99-.533.556-2.011-3.47-.903Z" fill="#27D9E5"/><path d="m19.995 20.01.924 3.446 1.99-.533.556-2.011-3.47-.903Z" fill="#40D568"/><path d="m14.54 21.438-2.545 2.545 1.47 1.47 2.008-.538-.932-3.477Z" fill="#27D9E5"/><path d="m14.54 21.438-2.545 2.545 1.47 1.47 2.008-.538-.932-3.477Z" fill="#1ED099"/><path d="m12.013 19.98-3.477.932.537 2.006 2.008.539.932-3.477Z" fill="#27D9E5"/><path d="m12.013 19.98-3.477.932.537 2.006 2.008.539.932-3.477Z" fill="#0ECDB4"/><path d="m19.988 12.008 3.477-.931-.538-2.008-2.008-.537-.931 3.476Z" fill="#27D9E5"/><path d="m19.988 12.008 3.477-.931-.538-2.008-2.008-.537-.931 3.476Z" fill="#54E65D"/><path d="m14.54 10.55.933-3.477-2.009-.538-1.469 1.47 2.546 2.544Z" fill="#27D9E5"/><path d="m14.54 10.55.933-3.477-2.009-.538-1.469 1.47 2.546 2.544Z" fill="#03CEC8"/><path d="m17.46 10.55 2.546-2.546-1.47-1.469-2.008.538.932 3.476Z" fill="#27D9E5"/><path d="m17.46 10.55 2.546-2.546-1.47-1.469-2.008.538.932 3.476Z" fill="#1ADD50"/><path d="M17.315 21.294 16 19.98l-1.459 1.458.932 3.477-2.008.538L16 27.988l2.504-2.503-2.19-.57 1.001-3.621Z" fill="#5ADE9E"/><path d="m10.554 17.453 1.46-1.459-1.46-1.46-3.478.933-.538-2.008-2.535 2.535 2.535 2.535.538-2.008 3.478.932Z" fill="#3ADDD2"/><path d="m21.447 14.535-1.46 1.46 1.46 1.458 3.478-.932.537 2.008 2.536-2.535-2.536-2.535-.538 2.008-3.477-.932Z" fill="#74DF71"/><path d="m12.013 12.008 1.994.534.534-1.993-2.546-2.545 1.47-1.469-3.463-.928-.929 3.462 2.008-.537.932 3.476Z" fill="#42DDD3"/><path d="m19.995 20.01-2.17-.564-.51 1.848 2.69 2.69-1.5 1.5 3.449.897.956-3.458-1.99.534-.925-3.448Z" fill="#6DDF84"/><path d="m12.013 19.98.534-1.993-1.993-.534-2.546 2.545-1.47-1.47-.928 3.463 3.463.927-.537-2.006 3.477-.932Z" fill="#3FDDC7"/><path d="m19.988 12.008-.535 1.994 1.994.533 2.546-2.545 1.469 1.47.928-3.463-3.463-.928.538 2.008-3.477.931Z" fill="#71DD6A"/><path d="m10.554 14.535 1.993-.533-.534-1.994-3.477-.931.537-2.008-3.463.928.928 3.462 1.47-1.47 2.546 2.546Z" fill="#3EDDD2"/><path d="m23.993 19.998-2.547-2.545-1.993.534.542 2.022 3.47.902-.555 2.012 3.48-.932-.928-3.462-1.47 1.469Z" fill="#76E074"/><path d="m14.54 21.438-.533-1.992-1.994.534-.932 3.476-2.008-.538.929 3.463 3.462-.928-1.469-1.47 2.546-2.545Z" fill="#4BDEB5"/><path d="m17.46 10.55.534 1.992 1.994-.534.931-3.476 2.008.537-.928-3.462-3.463.928 1.47 1.47-2.546 2.544Z" fill="#74EF6B"/><path d="m14.541 10.55 1.46 1.458 1.459-1.459-.932-3.476 2.008-.538L16 4l-2.535 2.535 2.008.538-.932 3.476Z" fill="#45E6DC"/></svg>