<svg fill="none" height="32" viewBox="0 0 32 32" width="32" xmlns="http://www.w3.org/2000/svg"><path d="m16 32c8.8366 0 16-7.1634 16-16 0-8.83656-7.1634-16-16-16-8.83656 0-16 7.16344-16 16 0 8.8366 7.16344 16 16 16z" fill="#fff"/><g fill="#00e1ed"><path d="m12.2937 8.3771c-.1533-.15108-.23-.22661-.23-.32048s.0767-.16939.23-.32046l3.3838-3.33277c.1534-.15107.2301-.2266.3254-.2266s.172.07553.3253.2266l3.3838 3.33277c.1534.15107.23.2266.23.32046s-.0767.1694-.23.32048l-3.3838 3.3328c-.1534.151-.2301.2266-.3254.2266-.0952 0-.172-.0756-.3253-.2266z" opacity=".73"/><path d="m12.296 24.2638c-.1534-.151-.2301-.2266-.2301-.3204 0-.0939.0767-.1694.2301-.3205l3.3838-3.3328c.1533-.1511.23-.2266.3253-.2266s.172.0755.3254.2266l3.3838 3.3328c.1533.1511.23.2266.23.3205s-.0767.1694-.23.3204l-3.3838 3.3328c-.1534.1511-.2301.2266-.3254.2266s-.172-.0755-.3253-.2266z" opacity=".43"/><path d="m8.58914 21.3306c-.05614-.2064-.08423-.3096-.03656-.3909s.15241-.1089.36193-.1642l4.62239-1.2199c.2095-.0552.3142-.083.3968-.036.0825.047.1106.1502.1667.3565l1.2385 4.5526c.0561.2064.0841.3096.0365.3909-.0477.0813-.1524.109-.3619.1642l-4.6223 1.2198c-.2095.0552-.3143.083-.39684.036-.08253-.047-.11057-.1502-.16671-.3565z" opacity=".48"/><path d="m16.6531 7.57593c-.0561-.20637-.0842-.30955-.0366-.39083.0477-.08128.1525-.10893.3619-.16422l4.6222-1.21976c.2096-.05529.3143-.08294.3968-.036s.1106.15011.1668.35647l1.2385 4.55251c.0561.2064.0842.3096.0366.3908-.0477.0813-.1525.109-.362.1642l-4.6223 1.2199c-.2095.0553-.3143.0829-.3968.036-.0825-.047-.1106-.1501-.1667-.3565z" opacity=".18"/><path d="m5.96382 22.0735c-.20952-.0552-.31428-.083-.36193-.1642s-.01958-.1845.03655-.3908l1.23842-4.5526c.05614-.2064.08421-.3096.16674-.3565.08253-.047.18729-.0193.39681.036l4.62239 1.2198c.2095.0553.3143.083.3619.1642.0476.0813.0196.1846-.0366.3909l-1.2385 4.5525c-.0561.2064-.0842.3095-.1667.3565-.0825.0469-.1873.0193-.3968-.036z" opacity=".53"/><path d="m19.926 14.1274c-.2096-.0552-.3143-.0829-.362-.1642-.0476-.0812-.0195-.1844.0366-.3908l1.2384-4.5526c.0561-.20638.0842-.30954.1667-.35649.0826-.04695.1873-.01928.3968.036l4.6224 1.21989c.2095.05528.3143.0829.3619.1642s.0196.1845-.0365.3908l-1.2386 4.5526c-.0561.2063-.0841.3095-.1667.3564-.0825.047-.1873.0193-.3968-.036z" opacity=".23"/><path d="m4.23007 16.3213c-.15338-.1511-.23007-.2266-.23007-.3205 0-.0938.07668-.1694.23006-.3204l3.38376-3.333c.15338-.1511.23007-.2266.32537-.2266s.172.0755.32537.2266l3.38374 3.3328c.1534.1511.2301.2266.2301.3205 0 .0938-.0767.1694-.2301.3204l-3.38374 3.3329c-.15338.151-.23007.2266-.32537.2266s-.172-.0756-.32536-.2266z" opacity=".58"/><path d="m20.3517 16.3112c-.1534-.151-.2301-.2266-.2301-.3204 0-.0939.0767-.1694.2301-.3205l3.3837-3.3329c.1534-.1511.23-.2266.3254-.2266s.172.0755.3253.2266l3.3839 3.3329c.1533.1511.23.2266.23.3205s-.0767.1694-.2301.3204l-3.3838 3.3328c-.1533.1511-.23.2266-.3253.2266s-.172-.0755-.3254-.2266z" opacity=".28"/><path d="m5.63356 10.4787c-.05613-.2064-.0842-.3095-.03655-.3908s.15241-.10894.36194-.16422l4.62225-1.2198c.2095-.05528.3143-.0829.3968-.036s.1106.15011.1668.35649l1.2385 4.55253c.0561.2064.0842.3095.0365.3908-.0476.0813-.1524.1089-.3619.1643l-4.62237 1.2198c-.20952.0553-.31428.083-.39681.036s-.1106-.1501-.16674-.3565z" opacity=".63"/><path d="m19.5984 18.421c-.0561-.2063-.0842-.3095-.0365-.3908.0476-.0813.1524-.1089.3619-.1642l4.6223-1.2198c.2095-.0553.3142-.083.3968-.036.0825.047.1105.1501.1667.3565l1.2384 4.5525c.0561.2064.0842.3095.0366.3908-.0477.0813-.1524.109-.362.1643l-4.6221 1.2198c-.2095.0553-.3143.083-.3969.036-.0825-.047-.1105-.1501-.1667-.3564z" opacity=".33"/><path d="m8.91421 11.2295c-.20948-.0554-.31426-.083-.36189-.1643-.04763-.0812-.01958-.1844.03656-.3908l1.23839-4.5524c.05614-.20636.08423-.30955.16675-.35648.08248-.04693.18728-.01929.39678.036l4.6222 1.21976c.2096.05529.3143.08295.362.16423s.0196.18448-.0366.39084l-1.2385 4.55265c-.0561.2064-.0842.3095-.1667.3565-.0825.0469-.1873.0193-.3968-.036z" opacity=".68"/><path d="m16.9819 24.9813c-.2095-.0553-.3143-.083-.3619-.1642-.0477-.0813-.0196-.1845.0365-.3908l1.2385-4.5527c.0561-.2063.0841-.3095.1667-.3565.0825-.0469.1873-.0192.3968.036l4.6223 1.2199c.2095.0553.3143.083.3619.1642.0476.0813.0196.1845-.0366.3908l-1.2383 4.5526c-.0562.2063-.0843.3095-.1668.3564-.0825.047-.1873.0193-.3968-.036z" opacity=".38"/></g></svg>