<svg fill="none" height="32" viewBox="0 0 32 32" width="32" xmlns="http://www.w3.org/2000/svg"><path d="m16 32c8.8366 0 16-7.1634 16-16 0-8.83656-7.1634-16-16-16-8.83656 0-16 7.16344-16 16 0 8.8366 7.16344 16 16 16z" fill="#252d43"/><g fill="#fff"><path d="m12.8654 15.5942c0 1.8834-.004 3.7668.005 5.6501.0012.2398-.0558.3241-.3093.3181-.7175-.017-1.4358-.012-2.1537-.0021-.2014.0028-.2923-.0306-.2917-.2659.0084-2.9864-.0043-5.9728.0114-8.959.0164-.6782.2843-1.3262.7516-1.818.4674-.4918 1.1008-.79235 1.7773-.84335.2475-.01809.2094.12656.2094.26995z"/><path d="m19.1016 9.66705c-1.6556-.00075-3.3114.00853-4.9669-.00801-.307-.00306-.3736.0822-.373.37956.0096 5.1856.0116 10.3712.0062 15.5569 0 .1244-.0099.2488-.0152.3732.0142.0815.0186.1644.013.247-.0623.3317.0907.389.3906.3809.7785-.0209 1.5579-.0067 2.3369-.0064.0049-.1037.014-.2075.0142-.3112.0017-1.437.0004-2.874.004-4.3109.0012-.4513-.0745-.4047.4213-.4066.7289-.0027 1.4578.0003 2.1867-.0009.3835.0214.7672-.0382 1.1262-.1749.3589-.1367.6851-.3475.9572-.6186s.4841-.5964.6221-.9549c.1381-.3584.1991-.7419.1792-1.1255.0015-2.0409.0016-4.0818.0001-6.1228.0208-.3864-.0401-.7728-.1786-1.1341-.1386-.3612-.3518-.6893-.6257-.9626s-.6023-.48587-.9638-.62374c-.3616-.13787-.7481-.19799-1.1345-.17641zm-.8083 9.14625c-.5102.0071-1.0208-.0076-1.5307.0059-.2113.0056-.2585-.0704-.2566-.2694.0096-.9789.0044-1.9578.0044-2.9367 0-.9686.0101-1.9372-.0068-2.9054-.0045-.2579.0802-.3101.3155-.3019.4889.017.9788.0004 1.4682.0064.1306-.0088.2616.0106.3839.0571.1224.0464.2332.1188.3251.212.0918.0933.1623.2053.2068.3284s.0619.2543.051.3847c.0018 1.4788.0018 2.9576.0001 4.4364.0131.1304-.0025.2621-.0459.3858-.0433.1236-.1133.2363-.2049.33s-.2027.1662-.3254.2122c-.1227.0461-.254.0647-.3847.0545z"/><path d="m15.6009 8.30023c1.2641 0 2.2889-1.02476 2.2889-2.28888 0-1.26411-1.0248-2.28888-2.2889-2.28888s-2.2889 1.02477-2.2889 2.28888c0 1.26412 1.0248 2.28888 2.2889 2.28888z"/></g></svg>