<svg xmlns="http://www.w3.org/2000/svg" width="32" height="32" fill="none"><path fill="#252D43" d="M16 32c8.837 0 16-7.163 16-16S24.837 0 16 0 0 7.163 0 16s7.163 16 16 16Z"/><path fill="#fff" d="M12.865 15.594c0 1.884-.004 3.767.005 5.65.002.24-.055.324-.309.318a57.482 57.482 0 0 0-2.154-.002c-.201.003-.292-.03-.291-.266.008-2.986-.005-5.972.011-8.959a2.735 2.735 0 0 1 2.529-2.661c.247-.018.21.127.21.27v5.65Zm6.237-5.927c-1.656 0-3.312.009-4.967-.008-.307-.003-.374.082-.373.38.01 5.185.011 10.37.006 15.557 0 .124-.01.248-.015.373.014.081.018.164.013.247-.063.331.09.389.39.38.779-.02 1.558-.006 2.337-.006.005-.104.014-.207.014-.311.002-1.437 0-2.874.004-4.31.002-.452-.074-.406.422-.408.729-.002 1.457 0 2.186 0a2.736 2.736 0 0 0 2.885-2.874c.002-2.041.002-4.082 0-6.123a2.755 2.755 0 0 0-2.902-2.897Zm-.809 9.146c-.51.007-1.02-.007-1.53.006-.212.006-.259-.07-.257-.27.01-.978.004-1.957.004-2.936 0-.968.01-1.937-.006-2.905-.005-.258.08-.31.315-.302.489.017.979 0 1.468.006a.908.908 0 0 1 .967.982c.002 1.48.002 2.958 0 4.437a.895.895 0 0 1-.96.982ZM15.6 8.3a2.289 2.289 0 1 0 0-4.578 2.289 2.289 0 0 0 0 4.578Z"/></svg>