<svg xmlns="http://www.w3.org/2000/svg" width="32" height="32" fill="none"><path fill="#414140" d="M16 32c8.837 0 16-7.163 16-16S24.837 0 16 0 0 7.163 0 16s7.163 16 16 16Z"/><path fill="#fff" fill-rule="evenodd" d="M14.898 25.366h2.125c-1.9-3.06-3.799-6.12-5.696-9.181-.286-.463-.37-.892-.155-1.44.102-.26.319-.506.528-.691a4.955 4.955 0 0 1-.836-1.812c-1.94.94-2.377 2.82-1.259 4.693l5.293 8.43Zm-.81-6.718c1.24.142 2.389.135 3.628.001 1.497-.162 2.848-.525 3.685-1.075.868-.57 1.452-1.477 1.452-2.536.001-1.226-.753-2.18-1.78-2.727a4.68 4.68 0 0 1-.45 1.28c-.11.21-.237.41-.379.6.237.24.445.547.445.847 0 .487-.558 1.023-.966 1.256-.471.267-1.168.437-1.706.494-.7.076-1.411.108-2.114.121-.374 0-.767-.02-1.14-.042-.626-.036-1.309-.072-1.915-.238l1.24 2.019Z" clip-rule="evenodd"/><path fill="#EA7437" fill-rule="evenodd" d="M15.965 3c1.909 3.114 1.24 4.978.98 6.144-.4 1.811 1.89 2.413 2.059.303.04-.493.01-1.065-.019-1.605 2.356 3.777.817 7.188-3.02 7.188-3.22 0-5.033-2.944-3.758-5.876-.138 1.552.953 2.05.774 1.342-.046-.18-.146-.49-.209-1.118C12.47 6.365 16.177 5.595 15.965 3Z" clip-rule="evenodd"/></svg>