<svg fill="none" height="32" viewBox="0 0 32 32" width="32" xmlns="http://www.w3.org/2000/svg"><path d="m16 32c8.8366 0 16-7.1634 16-16 0-8.83656-7.1634-16-16-16-8.83656 0-16 7.16344-16 16 0 8.8366 7.16344 16 16 16z" fill="#414140"/><g clip-rule="evenodd" fill-rule="evenodd"><path d="m14.8979 25.3655h2.1246c-1.8994-3.0597-3.7984-6.1201-5.6952-9.1808-.286-.4624-.3696-.8919-.1551-1.4391.1019-.2598.3186-.5067.5283-.6918-.062-.0838-.1214-.1696-.1779-.2574-.3044-.4726-.5273-.997-.658-1.5548-1.94038.9406-2.37717 2.821-1.25952 4.6929zm-.809-6.7179c1.2383.1419 2.3878.1358 3.6271.0018 1.4971-.1619 2.8484-.5254 3.6847-1.075.8684-.5702 1.4526-1.4775 1.4526-2.5366.001-1.2254-.7535-2.1797-1.7805-2.7267-.0897.4553-.2406.8844-.4491 1.2802-.1108.2104-.2373.4104-.3792.5988.2361.241.445.5482.445.8479 0 .4868-.5588 1.0235-.9666 1.2559-.4709.2671-1.1674.4372-1.7057.4944-.6998.0759-1.4112.1074-2.1147.1209-.3736 0-.7664-.0209-1.1399-.0423-.6258-.0358-1.3086-.0717-1.9145-.2382z" fill="#fff"/><path d="m15.9651 3c1.9088 3.11439 1.2392 4.97846.9807 6.14424-.4015 1.81076 1.8901 2.41286 2.0582.30227.0393-.49225.0105-1.06495-.0185-1.60407 2.3557 3.77696.8166 7.18786-3.0204 7.18796-3.221.0002-5.0326-2.9441-3.758-5.87642-.1384 1.55172.9531 2.05032.7738 1.34202-.0456-.1805-.1458-.4904-.2088-1.118-.303-3.01312 3.4045-3.78278 3.193-6.378z" fill="#ea7437"/></g></svg>