<svg xmlns="http://www.w3.org/2000/svg" width="32" height="32" fill="none"><defs><linearGradient id="pros__b" x1="16.283" x2="27.591" y1="23.363" y2="13.044" gradientUnits="userSpaceOnUse"><stop stop-color="#0FF"/><stop offset="1" stop-color="#5900F7" stop-opacity="0"/></linearGradient><linearGradient id="pros__c" x1="2.629" x2="16.782" y1="19.856" y2="8.272" gradientUnits="userSpaceOnUse"><stop stop-color="#5900F7" stop-opacity="0"/><stop offset="1" stop-color="#fff"/></linearGradient><clipPath id="pros__a"><path fill="#fff" d="M0 0h32v32H0z"/></clipPath></defs><g clip-path="url(#pros__a)"><path fill="#5900F7" d="M16 32c8.837 0 16-7.163 16-16S24.837 0 16 0 0 7.163 0 16s7.163 16 16 16Z"/><path fill="#5900F7" d="M16 0A16 16 0 0 0 4.686 27.314L27.314 4.686A15.95 15.95 0 0 0 16 0Z"/><path fill="#333" d="M32 16a15.944 15.944 0 0 0-4.8-11.416L4.67 27.294A15.999 15.999 0 0 0 31.999 16Z"/><path fill="url(#pros__b)" d="m21.335 10.664-.056-.058-.056-.058-2.879 2.943.056.058.057.057c3.245 3.347 3.894 6.895 2.935 7.876a1.81 1.81 0 0 1-1.355.404c-1.834-.029-4.317-1.356-6.35-3.404l-.056-.058-.056-.058-2.879 2.943.057.058.056.057c2.822 2.856 6.237 4.587 9.144 4.616h.112a5.68 5.68 0 0 0 4.177-1.644c1.552-1.587 2.004-4.01 1.242-6.809a16.21 16.21 0 0 0-4.149-6.923Z"/><path fill="url(#pros__c)" d="M10.246 11.875c-.04-.494.1-.986.395-1.384a1.769 1.769 0 0 1 1.298-.404c.479.013.953.09 1.411.23a11.954 11.954 0 0 1 4.995 3.203l2.879-2.943a16.18 16.18 0 0 0-6.773-4.24c-2.738-.78-5.108-.347-6.689 1.269a6.063 6.063 0 0 0-1.608 4.385c.056 3 1.721 6.49 4.515 9.375l2.907-3.029c-2.004-2.048-3.302-4.586-3.33-6.462Z"/></g></svg>