<svg fill="none" height="32" viewBox="0 0 32 32" width="32" xmlns="http://www.w3.org/2000/svg" xmlns:xlink="http://www.w3.org/1999/xlink"><linearGradient id="a" gradientUnits="userSpaceOnUse" x1="16.2828" x2="27.5907" y1="23.3634" y2="13.0443"><stop offset="0" stop-color="#0ff"/><stop offset="1" stop-color="#5900f7" stop-opacity="0"/></linearGradient><linearGradient id="b" gradientUnits="userSpaceOnUse" x1="2.62892" x2="16.7817" y1="19.8558" y2="8.27216"><stop offset="0" stop-color="#5900f7" stop-opacity="0"/><stop offset="1" stop-color="#fff"/></linearGradient><clipPath id="c"><path d="m0 0h32v32h-32z"/></clipPath><g clip-path="url(#c)"><path d="m16 32c8.8366 0 16-7.1634 16-16 0-8.83656-7.1634-16-16-16-8.83656 0-16 7.16344-16 16 0 8.8366 7.16344 16 16 16z" fill="#5900f7"/><path d="m16 .00001347c-3.1645.00000336-6.25794.93838853-8.88912 2.69649653-2.63119 1.7581-4.68195 4.25696-5.89295 7.18057-1.21099691 2.92362-1.52785 6.14072-.910488 9.24442.617362 3.1036 2.141208 5.9546 4.378848 8.1922l22.62741-22.62739c-1.4841-1.48795-3.2476-2.66796-5.1892-3.47219-1.9416-.804231-4.023-1.21683768-6.1245-1.21410653z" fill="#5900f7"/><path d="m31.9999 16c.0019-2.1267-.4216-4.2322-1.2457-6.19272-.8241-1.96051-2.032-3.73635-3.5527-5.22299l-22.5328 22.71011c2.23533 2.2431 5.08605 3.7724 8.1911 4.3942 3.1051.6218 6.3249.3081 9.2516-.9014 2.9266-1.2094 5.4286-3.2602 7.1889-5.8925 1.7603-2.6324 2.6999-5.728 2.6996-8.8947z" fill="#333"/><path d="m21.3354 10.6637-.0565-.0577-.0564-.0577-2.8785 2.9426.0564.0577.0564.0577c3.2454 3.3465 3.8945 6.8949 2.935 7.8758-.1871.1548-.4035.2704-.6362.3398-.2328.0694-.4771.0911-.7184.064-1.8343-.0288-4.3177-1.3558-6.3496-3.4041l-.0564-.0577-.0565-.0577-2.8784 2.9426.0564.0577.0565.0577c2.822 2.856 6.2367 4.5869 9.1434 4.6158h.1128c.7714.024 1.5396-.1094 2.2577-.3922.7181-.2827 1.371-.7088 1.919-1.2522 1.5521-1.5867 2.0036-4.01 1.2417-6.8084-.7769-2.6208-2.2039-5.0025-4.1484-6.9237z" fill="url(#a)"/><path d="m10.2457 11.8753c-.0406-.4943.0998-.9864.3951-1.3848.179-.1497.3859-.2625.6087-.3319.2228-.0693.4571-.0937.6895-.072.4786.0129.9532.0906 1.411.2308 1.9076.6307 3.6256 1.732 4.995 3.2023l2.8785-2.9426c-1.8676-1.95765-4.1963-3.41571-6.7729-4.24081-2.7374-.77892-5.10793-.34619-6.68826 1.26935-.54475.58824-.96742 1.27869-1.24353 2.03137-.27611.75269-.40018 1.55269-.36503 2.35359.05644 3.0003 1.72144 6.491 4.51522 9.3759l2.9067-3.0291c-2.0036-2.0483-3.3018-4.5869-3.33-6.4621z" fill="url(#b)"/></g></svg>