<svg fill="none" height="32" viewBox="0 0 32 32" width="32" xmlns="http://www.w3.org/2000/svg"><path d="m16 31.4433c8.5291 0 15.4433-6.9143 15.4433-15.4434 0-8.52904-6.9142-15.443259-15.4433-15.443259-8.52911 0-15.443298 6.914219-15.443298 15.443259 0 8.5291 6.914188 15.4434 15.443298 15.4434z" fill="#fff"/><path d="m16 0c-8.83698 0-16 7.16302-16 16 0 8.837 7.16302 16 16 16 8.837 0 16-7.163 16-16 0-8.83698-7.163-16-16-16zm0 31.0696c-8.32311 0-15.073479-6.7465-15.073479-15.0696 0-8.32311 6.750369-15.073479 15.073479-15.073479 8.3231 0 15.0696 6.746469 15.0696 15.069579 0 8.327-6.7465 15.0735-15.0696 15.0735z" fill="#2b5481"/><path d="m16 1.67397c-7.91437 0-14.32605 6.41167-14.32605 14.32603 0 7.9105 6.41557 14.326 14.32605 14.326 7.9104 0 14.326-6.4155 14.326-14.326 0-7.91436-6.4156-14.32603-14.326-14.32603zm0 23.27203c-4.9402 0-8.946-4.0059-8.946-8.946s4.0058-8.94599 8.946-8.94599c4.9401 0 8.946 4.00589 8.946 8.94599s-4.0059 8.946-8.946 8.946z" fill="#2b5481"/><path d="m21.8114 21.8102c3.2094-3.2093 3.2094-8.4126 0-11.6219-3.2093-3.20926-8.4125-3.20926-11.6218 0-3.20933 3.2093-3.20933 8.4126 0 11.6219 3.2093 3.2093 8.4125 3.2093 11.6218 0z" fill="#2b5481"/><path d="m23.3847 19.7217c-4.1732-3.2195-6.1781-7.9182-6.1781-12.04477l-1.0082-.08175v-.03504l-.2025.01557-.2024-.01557v.03504l-1.0083.08175c0 4.12657-2.0048 8.82527-6.17808 12.04087l-.01557.4555 1.24574 2.0243 2.10221 1.3742 1.3469.3854c-.2569-.3893-.7435-1.234-.7435-2.0944 0-2.0944 1.9581-3.2467 3.4024-3.2467h.1012c1.4482 0 3.4025 1.1562 3.4025 3.2467 0 .8409-.4633 1.6662-.728 2.0672l1.3275-.3582 2.1022-1.3742 1.2457-2.0243z" fill="#fff"/><path d="m16.8101 7.8209c-.2686-.02725-.5372-.03893-.8136-.03893-.2725 0-.545.01557-.8136.03893-.0312 3.3596-.9538 6.0263-2.0789 8.0428h5.7849c-1.125-2.0165-2.0476-4.6832-2.0788-8.0428zm2.2307 8.2997h-6.0808c-1.4637 2.5032-3.21557 3.9397-3.82676 4.3952.64623.9771 1.49486 1.8102 2.48756 2.4369-.5022-2.3902 1.5883-4.761 4.1927-4.761h.3776c2.6044 0 4.6949 2.3669 4.1927 4.761.9927-.6267 1.8414-1.4598 2.4876-2.4369-.619-.4555-2.3669-1.892-3.8306-4.3952z" fill="#d33d42"/><path d="m16.0112 22.3766c.074 0 .0701-.1324.0701-.1324 0-.1868.2258-.5372.2258-.5372.2219-.3309.2686-.5684.2686-.7007 0-.3153-.3932-1.1718-.4477-1.2886-.0545-.1129-.1129-.1051-.1129-.1051h-.0234s-.0584-.0078-.1129.1051-.4476.9733-.4476 1.2886c0 .1362.0506.3698.2686.7007 0 0 .2258.3504.2258.5372 0 0 0 .1324.07.1324z" fill="#bba15a"/><path d="m14.0654 21.96c0-.2374.1985-.6306.6384-.6423.5217-.0117.9538.763.9538.763s.1479.2375.0739.2803c-.0739.0428-.218-.1401-.218-.1401s-.3581-.4633-.58-.4633-.2492.2102-.2492.2102-.0155.1402.148.1713c.1635.0312.1245.1363.1245.1363s-.0545.2374-.3581.2374-.5333-.3348-.5333-.5528z" fill="#bba15a"/><path d="m17.9346 21.96c0-.2374-.1985-.6306-.6384-.6423-.5217-.0117-.9538.763-.9538.763s-.1479.2375-.0739.2803c.0739.0428.218-.1401.218-.1401s.3581-.4633.58-.4633.2491.2102.2491.2102.0156.1402-.1479.1713c-.1635.0312-.1246.1363-.1246.1363s.0545.2374.3582.2374c.3036 0 .5333-.3348.5333-.5528z" fill="#bba15a"/><path d="m16.2451 22.9411c-.0039-.0818-.1402-.3193-.218-.3777-.0078-.0077-.0195-.0116-.0234-.0116 0 0 0 0-.0039 0 0 0 0 0-.0039 0-.0077 0-.0155.0039-.0233.0116-.0779.0584-.2141.2959-.218.3777v.0039c0 .0895.1868.327.2452.327h.0039c.0584 0 .2453-.2375.2453-.327-.0039-.0039-.0039-.0039-.0039-.0039z" fill="#bba15a"/><g fill="#fff"><path d="m22.7815 5.32168c-.4944.46715-.2141 1.18735.218 1.63893l.4204.4399c.4283.45158.802.89927.4594 1.18346-.3659.30365-1.3898-.45548-2.0049-1.75572l-.5528.41265c.1324.34258.4283.83698.8292 1.25742.4516.47494.946.78638 1.3859.87202.3465.06618.693.01557.9188-.19465.5683-.52554.362-1.29635-.5295-2.23455l-.3698-.38929c-.4088-.43212-.2414-.68127-.0856-.7163.5683-.13236 1.6116.90316 1.8102 1.60389.1674-.12457.5333-.39708.5333-.39708-.3465-.98492-1.4988-1.96594-2.3825-1.96594-.2452 0-.4671.07397-.6501.24526zm-15.95328 1.61557 1.03163-1.13285c.23358-.25304.62676-.2725.8837-.04282.25693.23358.2725.63066.03893.8837l-1.03163 1.13285zm.56837-1.62336-1.57664 1.73626 2.74841 2.50705c.17129-.19075.35426-.36983.54112-.54501l-.86034-.78248 1.06278-1.17178c.48272-.52944.48272-1.3781-.04672-1.85693-.24136-.21801-.5489-.32701-.86034-.32701-.37372.00389-.74744.15182-1.00827.4399zm12.02921 1.6039c.2452.08953.4866.19075.7241.30365l1.4559-3.50365c-.2374-.10511-.4827-.20633-.7279-.29976zm-7.7625-2.90025 1.0666 1.22239c-.3854.11289-.763.24525-1.1328.39708zm-.6385-.5528-.2803 4.29781c.2531-.15571.5178-.29975.7864-.43211l.0389-1.00049c.5178-.22968 1.0589-.41654 1.6156-.56448l.6579.75524c.2881-.06229.5839-.1129.8837-.14794l-2.9041-3.18832c-.2686.08565-.5334.17908-.7981.28029zm4.9324-.24136h1.4092c.3465 0 .6268.28029.6268.62677 0 .34647-.2803.62676-.6268.62676h-1.4092zm-.7669-.66959v3.76837c.253-.01946.506-.03114.7669-.03114v-1.14452h.9615l.8292 1.30803c.327.05839.6501.13625.9655.22579l-.9966-1.58054c.5684-.15182 1.0394-.65401 1.0394-1.24574 0-.7163-.6774-1.29635-1.3898-1.29635h-2.1761z"/><path d="m8.24117 24.6112.48273-.2336-.14794.5256zm-.837.1752.15962.1518.47494-.2297.47884.4166-.15183.5138.17908.1402.43212-1.5144-.17129-.1479z"/><path d="m8.97754 26.0905.1674.1128.78637-1.2184-.17129-.1168z"/><path d="m9.71289 26.5655.17129.1051.50612-.9811.2452 1.382.1791.0818.6501-1.273-.1791-.0973-.4944.9654h-.0039l-.2413-1.3625-.1791-.0973z"/><path d="m11.7838 26.2423.4632.1674-.3971 1.1718.1908.0662.3971-1.1718.4632.1674.0701-.1946-1.1212-.401z"/><path d="m15.2992 27.5699c-.0078.4866.3776.7552.7513.763.3504.0039.6307-.1635.6346-.4204l.0078-.3815-.6424-.0117-.0039.2063.4399.0078-.0039.1596c0 .1207-.1751.2336-.4204.2297-.3543-.0078-.5684-.2608-.5645-.545.0039-.2998.2219-.545.5956-.5411.2531.0038.3621.1362.4283.2063l.144-.1441c-.0818-.0817-.253-.2647-.5878-.2686-.0039 0-.0117 0-.0156 0-.4399.0039-.7552.3309-.763.7397z"/><path d="m17.0977 26.8185.1985 1.4209 1.1718-.1713-.0273-.2063-.9732.144-.0584-.436.471-.0662-.0272-.2063-.475.0701-.0506-.3737.9343-.1363-.0272-.2063z"/><path d="m18.9705 26.6706.5995-.183c.1129-.035.2375-.0312.2842.1246.0389.1323-.0195.2374-.1674.2803l-.5996.1829zm.5372-.3816-.7903.2453.4049 1.3742.1946-.0545-.1674-.5761.4983-.1558.4361.4906.2102-.0779-.4399-.4866c.109-.0428.2764-.1986.1907-.4983-.0623-.2102-.2102-.2881-.3698-.2881-.0545 0-.1129.0117-.1674.0272z"/><path d="m22.5909 24.9421.4633.2764-.3582.2608zm-.2335-.144.2958 1.5455.1791-.1168-.0973-.5217.51-.3737.4321.2725.1752-.144-1.312-.7942z"/><path d="m23.2722 24.0896.9538 1.0511.1479-.1363-.9576-1.0549z"/><path d="m24.533 22.7504.7941.7279-.0039.0039-1.3508-.0973-.1324.1557 1.0433.9655.1441-.1479-.802-.7397v-.0039l1.3626.0934.1245-.1518-1.0433-.9615z"/><path d="m21.4188 25.4092-.0312 1.0199-.8214-.5722-.1791.0934.6112 1.2925.183-.0818-.4243-.9187.0039-.0039.8136.5645.0311-1.0044.0039-.0039.4789.8954.1751-.1012-.6656-1.273z"/><path d="m6.94501 22.6608c-.06618.0506-.10511.1168-.11679.1986-.01946.1284.03115.2919.13626.4321l.14793.2063c.11679.1596.22579.3231.20243.4555-.00779.0545-.03893.0934-.08564.1285-.02725.0155-.0584.0272-.08954.0272-.20243 0-.54501-.3698-.7163-.8993l-.0039-.0078-.14793.1402-.00389.0039v.0039c.03114.1323.12068.3465.26861.5489.15572.2141.3348.362.4983.4165.0545.0195.10511.0273.15572.0273.07396 0 .13625-.0195.18686-.0545.08175-.0623.12846-.1363.14404-.2297.02335-.1713-.06229-.3932-.26083-.6657l-.13236-.1791c-.10511-.144-.10122-.2374-.07786-.2919.01947-.0468.06229-.0779.109-.0857h.02336c.24136 0 .58005.4088.66959.728l.00389.0078.00779-.0039c.0506-.0312.109-.0623.14403-.0857l.0039-.0039v-.0038c-.1129-.4399-.54891-.8682-.87591-.8682-.07008-.0117-.13626.0117-.19076.0545z"/><path d="m13.6794 27.4686.4983.1129.0429-.2064-.4983-.1129z"/></g></svg>