<svg xmlns="http://www.w3.org/2000/svg" width="32" height="32" fill="none"><path fill="#fff" d="M16 31.443c8.53 0 15.443-6.914 15.443-15.443C31.443 7.47 24.53.557 16 .557S.557 7.47.557 16 7.47 31.443 16 31.443Z"/><path fill="#2B5481" d="M16 0C7.163 0 0 7.163 0 16s7.163 16 16 16 16-7.163 16-16S24.837 0 16 0Zm0 31.07C7.677 31.07.927 24.323.927 16S7.677.927 16 .927s15.07 6.746 15.07 15.07c0 8.326-6.747 15.073-15.07 15.073Z"/><path fill="#2B5481" d="M16 1.674C8.086 1.674 1.674 8.086 1.674 16c0 7.91 6.416 14.326 14.326 14.326S30.326 23.91 30.326 16C30.326 8.086 23.91 1.674 16 1.674Zm0 23.272a8.947 8.947 0 1 1 .002-17.894A8.947 8.947 0 0 1 16 24.946Z"/><path fill="#2B5481" d="M21.811 21.81A8.218 8.218 0 1 0 10.19 10.188 8.218 8.218 0 0 0 21.811 21.81Z"/><path fill="#fff" d="M23.385 19.722c-4.174-3.22-6.178-7.919-6.178-12.045l-1.009-.082V7.56l-.202.016-.203-.016v.035l-1.008.082c0 4.127-2.005 8.825-6.178 12.04l-.015.456 1.245 2.025 2.103 1.374 1.346.385c-.256-.39-.743-1.234-.743-2.094 0-2.095 1.958-3.247 3.402-3.247h.102c1.448 0 3.402 1.156 3.402 3.247 0 .84-.463 1.666-.728 2.067l1.328-.358 2.102-1.374 1.245-2.025-.011-.451Z"/><path fill="#D33D42" d="M16.81 7.82a8.02 8.02 0 0 0-.813-.038 9.54 9.54 0 0 0-.814.039c-.031 3.36-.954 6.026-2.079 8.043h5.785c-1.125-2.017-2.048-4.684-2.079-8.043Zm2.23 8.3h-6.08c-1.464 2.504-3.216 3.94-3.827 4.396a8.295 8.295 0 0 0 2.488 2.437c-.502-2.39 1.588-4.761 4.192-4.761h.378c2.605 0 4.695 2.367 4.193 4.76a8.295 8.295 0 0 0 2.487-2.436c-.619-.456-2.366-1.892-3.83-4.395Z"/><path fill="#BBA15A" d="M16.011 22.377c.074 0 .07-.133.07-.133 0-.187.226-.537.226-.537.222-.33.269-.568.269-.7 0-.316-.393-1.173-.448-1.29-.055-.112-.113-.104-.113-.104h-.023s-.059-.008-.113.105c-.055.113-.448.973-.448 1.288 0 .136.05.37.269.701 0 0 .226.35.226.537 0 0 0 .133.07.133h.015Zm-1.946-.417c0-.237.199-.63.639-.642.521-.012.954.763.954.763s.148.237.074.28c-.074.043-.218-.14-.218-.14s-.359-.463-.58-.463c-.222 0-.25.21-.25.21s-.015.14.148.171c.164.031.125.136.125.136s-.055.238-.358.238c-.304 0-.534-.335-.534-.553Zm3.87 0c0-.237-.199-.63-.639-.642-.521-.012-.954.763-.954.763s-.147.237-.073.28c.073.043.218-.14.218-.14s.358-.463.58-.463c.221 0 .249.21.249.21s.015.14-.148.171c-.164.031-.125.136-.125.136s.055.238.358.238c.304 0 .534-.335.534-.553Zm-1.69.981c-.004-.082-.14-.32-.218-.378a.043.043 0 0 0-.023-.011h-.008a.033.033 0 0 0-.023.011c-.078.059-.215.296-.218.378v.004c0 .09.186.327.245.327h.004c.058 0 .245-.237.245-.327l-.004-.004Z"/><path fill="#fff" d="M22.782 5.322c-.495.467-.215 1.187.218 1.639l.42.44c.428.451.802.899.46 1.183-.367.304-1.39-.456-2.006-1.756l-.552.413c.132.342.428.837.829 1.257.451.475.946.787 1.386.872.346.067.693.016.919-.194.568-.526.361-1.297-.53-2.235l-.37-.39c-.409-.431-.241-.68-.085-.715.568-.133 1.611.903 1.81 1.603l.533-.397c-.346-.985-1.499-1.966-2.382-1.966a.917.917 0 0 0-.65.246ZM6.828 6.937 7.86 5.804a.623.623 0 1 1 .923.84L7.75 7.78l-.923-.84Zm.569-1.623L5.82 7.05l2.748 2.507c.172-.19.355-.37.541-.545l-.86-.782 1.063-1.172c.483-.53.483-1.378-.047-1.857a1.278 1.278 0 0 0-.86-.327 1.377 1.377 0 0 0-1.008.44Zm12.029 1.604c.245.09.486.19.724.303l1.456-3.503a15.003 15.003 0 0 0-.728-.3l-1.452 3.5Zm-7.763-2.9L12.73 5.24a11.42 11.42 0 0 0-1.133.397l.066-1.62Zm-.638-.553-.28 4.298c.253-.156.517-.3.786-.433l.039-1c.518-.23 1.059-.417 1.615-.565l.658.756c.288-.063.584-.113.884-.148l-2.904-3.189c-.269.086-.534.18-.798.28Zm4.932-.242h1.41a.626.626 0 1 1 0 1.254h-1.41V3.223Zm-.767-.67v3.77c.253-.02.506-.032.767-.032V5.146h.962l.829 1.309c.327.058.65.136.965.225l-.996-1.58c.568-.152 1.04-.654 1.04-1.246 0-.716-.678-1.296-1.39-1.296H15.19v-.004ZM8.241 24.611l.483-.233-.148.525-.335-.292Zm-.837.175.16.152.475-.23.479.417-.152.514.179.14.432-1.514-.171-.148-1.402.67Zm1.574 1.304.167.113.786-1.218-.171-.117-.782 1.223Zm.735.476.171.105.506-.982.245 1.383.18.081.65-1.273-.18-.097-.494.965h-.004l-.241-1.362-.18-.097-.653 1.276Zm2.071-.324.463.168-.397 1.171.19.067.398-1.172.463.167.07-.194-1.121-.401-.066.194ZM15.3 27.57c-.009.486.377.755.75.763.35.004.631-.164.635-.42l.008-.382-.643-.012-.003.207.44.007-.004.16c0 .12-.175.234-.42.23-.355-.008-.57-.261-.565-.545.004-.3.222-.545.595-.541.253.003.362.136.429.206l.144-.144c-.082-.082-.253-.265-.588-.269h-.016a.747.747 0 0 0-.763.74Zm1.798-.751.198 1.42 1.172-.17-.027-.207-.973.144-.059-.436.471-.066-.027-.207-.475.07-.05-.373.934-.137-.028-.206-1.136.168Zm1.872-.149.6-.182c.113-.035.238-.032.284.124.04.133-.02.238-.167.28l-.6.183-.116-.404Zm.538-.381-.79.245.404 1.375.195-.055-.168-.576.499-.156.436.49.21-.077-.44-.487c.11-.043.277-.198.19-.498-.061-.21-.21-.288-.369-.288a.63.63 0 0 0-.167.027Zm3.082-1.347.464.276-.358.261-.105-.537Zm-.233-.144.296 1.546.18-.117-.098-.522.51-.374.432.273.175-.144-1.312-.794-.183.132Zm.915-.708.954 1.05.148-.136-.958-1.055-.144.14Zm1.261-1.34.794.728-.004.004-1.35-.097-.133.156 1.043.965.144-.148-.802-.74v-.003l1.363.093.124-.152-1.043-.961-.136.155Zm-3.114 2.66-.031 1.02-.822-.573-.179.093.611 1.293.183-.082-.424-.919.004-.004.814.565.03-1.005.005-.003.478.895.175-.101-.665-1.273-.18.093ZM6.945 22.66a.294.294 0 0 0-.117.2c-.02.128.031.291.136.431l.148.207c.117.16.226.323.203.455-.008.055-.04.094-.086.129a.186.186 0 0 1-.09.027c-.202 0-.544-.37-.716-.9l-.004-.007-.147.14-.004.004v.004c.03.132.12.346.268.549.156.214.335.362.499.416.054.02.105.028.155.028a.32.32 0 0 0 .187-.055.351.351 0 0 0 .144-.23c.024-.17-.062-.393-.26-.665l-.133-.18c-.105-.143-.101-.237-.078-.291a.144.144 0 0 1 .11-.086h.022c.242 0 .58.409.67.728l.004.008.008-.004c.05-.031.109-.062.144-.086l.004-.004v-.004c-.113-.44-.55-.868-.876-.868a.242.242 0 0 0-.191.055Zm6.735 4.809.498.112.043-.206-.499-.113-.043.207Z"/></svg>