<svg fill="none" height="32" viewBox="0 0 32 32" width="32" xmlns="http://www.w3.org/2000/svg"><path d="m16 32c8.8366 0 16-7.1634 16-16 0-8.83656-7.1634-16-16-16-8.83656 0-16 7.16344-16 16 0 8.8366 7.16344 16 16 16z" fill="#181818"/><path d="m16.6414 14.3125 5.5912-5.60251 1.1363 1.1475-5.5913 5.59121zm-8.02128 8.01 5.60248-5.6025 1.1363 1.1475-5.59128 5.5912zm8.02128-4.455 1.1362-1.1475 5.6025 5.6025-1.1475 1.1362zm-8.02128-8.01001 1.1475-1.1475 5.59128 5.59121-1.1363 1.1475zm6.23248 6.22121 1.1475-1.1475 1.1475 1.1475-1.1475 1.1475z" fill="#f6d30c"/></svg>