<svg xmlns="http://www.w3.org/2000/svg" width="32" height="32" fill="none"><defs><clipPath id="purse__a"><path fill="#fff" d="M0 0h32v32H0z"/></clipPath></defs><g clip-path="url(#purse__a)"><path fill="#181818" d="M32 16a16 16 0 1 1-32 0 16 16 0 0 1 32 0Z"/><path fill="#BA00FF" fill-rule="evenodd" d="M7.519 11.849h2.827a.944.944 0 0 1 .942.942v2.828H8.461a.943.943 0 0 1-.942-.943V11.85Zm4.397.942v1.885a.943.943 0 0 0 .943.943h1.884a.943.943 0 0 0 .943-.943v-1.885a.942.942 0 0 0-.943-.942H12.86a.942.942 0 0 0-.943.942Zm4.398 0v1.885a.942.942 0 0 0 .943.943h1.884a.943.943 0 0 0 .943-.943v-1.885a.942.942 0 0 0-.943-.942h-1.884a.942.942 0 0 0-.943.942Zm4.398 0v2.828h2.827a.943.943 0 0 0 .942-.943V11.85h-2.827a.942.942 0 0 0-.942.942Zm-.519-4.912-1.332-1.332a.942.942 0 0 0-1.333 0l-1.333 1.332a.943.943 0 0 0 0 1.333l2 2 1.998-2a.943.943 0 0 0 0-1.333Z" clip-rule="evenodd"/><path fill="#F7D509" fill-rule="evenodd" d="M21.654 16.247h1.885a.942.942 0 0 1 .942.943v1.884a.942.942 0 0 1-.942.943h-1.885a.942.942 0 0 1-.942-.943V17.19a.943.943 0 0 1 .942-.943ZM7.52 17.19v1.884a.943.943 0 0 0 .942.943h1.885a.942.942 0 0 0 .942-.943V17.19a.943.943 0 0 0-.942-.943H8.46a.942.942 0 0 0-.942.943Zm0 4.398v1.885a.943.943 0 0 0 .942.942h1.885a.943.943 0 0 0 .942-.942v-2.828H8.461a.943.943 0 0 0-.942.943Zm4.397 0v1.885a.943.943 0 0 0 .943.942h1.884a.943.943 0 0 0 .943-.942v-1.885a.942.942 0 0 0-.943-.943H12.86a.943.943 0 0 0-.943.943Zm4.398 0v1.885a.942.942 0 0 0 .943.942h1.884a.943.943 0 0 0 .943-.942v-1.885a.943.943 0 0 0-.943-.943h-1.884a.943.943 0 0 0-.943.943Zm4.398-.943v2.828a.943.943 0 0 0 .942.942h1.885a.943.943 0 0 0 .942-.942v-1.885a.942.942 0 0 0-.942-.943h-2.827ZM13.13 6.547l-1.332 1.332a.943.943 0 0 0 0 1.333l1.999 2 1.884-1.886-.114-.114-.04-.042a.943.943 0 0 1 .04-1.29l.114-.115-1.218-1.218a.942.942 0 0 0-1.333 0Z" clip-rule="evenodd"/></g></svg>