<svg fill="none" height="32" viewBox="0 0 32 32" width="32" xmlns="http://www.w3.org/2000/svg" xmlns:xlink="http://www.w3.org/1999/xlink"><linearGradient id="a" gradientUnits="userSpaceOnUse" x1="17.2981" x2="17.2981" y1="29" y2="11.4905"><stop offset="0" stop-color="#f05c38"/><stop offset="1" stop-color="#fab41c"/></linearGradient><linearGradient id="b" gradientUnits="userSpaceOnUse" x1="14.7054" x2="14.7054" y1="20.4955" y2="3"><stop offset="0" stop-color="#f5852b"/><stop offset="1" stop-color="#fccb15"/></linearGradient><path d="m16 32c8.8366 0 16-7.1634 16-16 0-8.83656-7.1634-16-16-16-8.83656 0-16 7.16344-16 16 0 8.8366 7.16344 16 16 16z" fill="#fff"/><g clip-rule="evenodd" fill-rule="evenodd"><path d="m12.307 23.853-.041-.296-.021-.278-.004-.267.021-.254.038-.25.059-.24.084-.24.101-.236.121-.24.143-.243.344-.508.431-.556.497-.563.5-.5.508-.459.511-.427 1.035-.831 1.053-.893.331-.306.34-.344.344-.372.337-.4.327-.42.302-.435.268-.452.229-.455.07-.174.059-.173.087-.338.059-.319.031-.289.011-.246v-.192l-.004-.121-.003-.045.163.184.212.253.24.31.254.361.25.403.236.442.202.466.087.243.069.243.09.421.056.431.021.431-.014.437-.049.442-.08.445-.111.448-.142.452-.174.448-.202.452-.49.907-.594.9-.699.89-1.338 1.581-1.16 1.425-.904 1.185-.337.477-.243.382-.087.174-.08.187-.132.396-.101.407-.077.393-.052.351-.035.285-.02.257-.059-.139-.049-.156-.042-.171-.031-.184-.042-.403-.007-.445.032-.476.062-.501.097-.521.132-.525.206-.663.267-.696.316-.716.355-.715.382-.709.4-.682.403-.646.396-.591.282-.413.257-.418.438-.782.295-.58.108-.226-.351.316-.403.334-.946.706-2.342 1.581-.566.372-.539.393-.497.413-.23.219-.212.229-.194.24-.177.25-.153.265-.129.278-.104.292-.077.305-.045.324-.017.34z" fill="url(#a)"/><path d="m19.55 7.473-.017.348-.045.326-.077.309-.104.292-.129.278-.153.265-.177.25-.194.24-.212.229-.23.219-.497.417-.539.396-.566.383-1.23.802-1.099.755-.948.702-.407.333-.358.317.108-.223.295-.573.438-.782.257-.421.282-.42.406-.591.407-.643.4-.681.379-.702.351-.713.312-.709.264-.692.205-.663.133-.536.097-.524.062-.501.032-.476-.007-.441-.042-.4-.031-.181-.042-.167-.049-.156-.059-.139-.017.254-.031.278-.049.344-.073.386-.101.403-.139.396-.08.184-.093.174-.244.393-.337.479-.9 1.189-2.471 3.024-.709.882-.601.897-.497.904-.202.451-.177.456-.14298.452-.111.448-.083.448-.045.445-.018.438.021.438.056.427.09.424.076.247.087.24.20898.469.236.438.25.403.251.358.236.306.205.243.163.178-.003-.046-.004-.121v-.192l.011-.246.031-.292.059-.32.087-.34.059-.171.07-.174.229-.448.275-.445.305-.438.331-.424.344-.403.351-.375.344-.348.33-.306 1.05-.875 1.035-.821.508-.427.5-.459.494-.5.486-.563.438-.556.351-.511.146-.244.122-.243.101-.236.076-.24.059-.243.038-.251.018-.257-.004-.271-.024-.281-.042-.299z" fill="url(#b)"/></g></svg>