<svg fill="none" height="32" viewBox="0 0 32 32" width="32" xmlns="http://www.w3.org/2000/svg" xmlns:xlink="http://www.w3.org/1999/xlink"><clipPath id="a"><path d="m0 0h32v32h-32z"/></clipPath><g clip-path="url(#a)"><path d="m16 32c8.8366 0 16-7.1634 16-16 0-8.83656-7.1634-16-16-16-8.83655 0-16 7.16344-16 16 0 8.8366 7.16345 16 16 16z" fill="#fff"/><path d="m26.2524 14.0544h-3.7031v9.2631h3.7031z" fill="#000"/><path d="m22.5493 12.9208 3.3037-1.4359c.2483-.108.3994-.3455.3994-.6154v-1.61944l-3.1201 1.36034c-.3455.1511-.5614.4858-.5614.8529z" fill="#00b3ed"/><path d="m7.15388 14.0004c.55061-2.7746 3.24962-4.57758 6.02432-4.02697 2.4399.48587 4.1781 2.64507 4.1241 5.12817 0 .3131-.0324.6262-.0971.9393l1.7166 3.7355c2.6342-3.7679 1.7166-8.9501-2.0513-11.58435-3.7679-2.63428-8.95009-1.7166-11.58437 2.05125-2.63428 3.7679-1.7166 8.9501 2.05129 11.5844 1.80297 1.2523 4.01618 1.749 6.18628 1.3819l-1.3388-2.969c-2.82859.0108-5.12818-2.2672-5.13898-5.0958-.02159-.3778.02159-.7665.10796-1.1444z" fill="#000"/><path d="m18.965 23.3176h-3.8435l-2.4291-5.3874h3.8434z" fill="#00b3ed"/></g></svg>