<svg xmlns="http://www.w3.org/2000/svg" width="32" height="32" fill="none"><defs><clipPath id="qi__a"><path fill="#fff" d="M0 0h32v32H0z"/></clipPath></defs><g clip-path="url(#qi__a)"><path fill="#fff" d="M16 32c8.837 0 16-7.163 16-16S24.837 0 16 0 0 7.163 0 16s7.163 16 16 16Z"/><path fill="#000" d="M26.252 14.054H22.55v9.263h3.703v-9.263Z"/><path fill="#00B3ED" d="m22.55 12.92 3.303-1.435a.66.66 0 0 0 .4-.615V9.25l-3.12 1.36a.93.93 0 0 0-.562.853l-.022 1.458Z"/><path fill="#000" d="M7.154 14a5.125 5.125 0 0 1 6.024-4.027 5.117 5.117 0 0 1 4.124 5.129c0 .313-.032.626-.097.939l1.717 3.735A8.315 8.315 0 0 0 16.87 8.192a8.315 8.315 0 0 0-11.584 2.051 8.315 8.315 0 0 0 2.051 11.585 8.377 8.377 0 0 0 6.187 1.382l-1.34-2.97a5.114 5.114 0 0 1-5.138-5.095A4.118 4.118 0 0 1 7.154 14Z"/><path fill="#00B3ED" d="M18.965 23.318h-3.844l-2.429-5.388h3.844l2.429 5.388Z"/></g></svg>