<svg fill="none" height="32" viewBox="0 0 32 32" width="32" xmlns="http://www.w3.org/2000/svg"><path d="m16 32c8.8366 0 16-7.1634 16-16 0-8.83656-7.1634-16-16-16-8.83656 0-16 7.16344-16 16 0 8.8366 7.16344 16 16 16z" fill="#000"/><g fill="#fff"><path d="m24.5739 25.4012-2.8316-.8035c2.0647-1.3486 3.5995-3.3698 4.3442-5.7209s.6534-4.8873-.2583-7.1788l-.0239-.06c-.5156-1.2876-1.2798-2.46098-2.2489-3.45322s-2.1242-1.78387-3.3993-2.32971c-1.275-.54584-2.6451-.83519-4.032-.85153s-2.7635.24065-4.051.7563c-2.61002 1.06206-4.69474 3.11223-5.80026 5.70416-1.10552 2.5918-1.14231 5.5155-.10236 8.1344 1.00718 2.5595 2.97308 4.6252 5.47962 5.7577 2.5066 1.1326 5.3561 1.2427 7.9426.3069l4.6518 1.318.007.0015c.2092.0442.4274.0035.6066-.1132.1791-.1167.3046-.2997.3488-.5089.0421-.2111-.0007-.4302-.1193-.6098-.1185-.1796-.3031-.3051-.5137-.3494zm-17.47049-6.1492c-.47514-1.1757-.71405-2.4335-.7031-3.7015s.27155-2.5215.76693-3.6888 1.21582-2.22561 2.1202-3.11449c.90436-.88888 1.97496-1.59092 3.15066-2.06604.2092-.082.4194-.15724.6308-.2257 1.1283-.27616 2.3185-.13407 3.3502.39996 1.0316.53403 1.8348 1.42381 2.2607 2.50457.015.03591.0295.07202.0436.10833.458 1.18067.4282 2.49487-.0827 3.65357-.511 1.1586-1.4613 2.0669-2.6419 2.5249-.8941.3644-1.6593.9872-2.1975 1.7887-.5382.8016-.825 1.7456-.8237 2.7111s.2906 1.9087.8309 2.7088c.5403.8002 1.307 1.421 2.2021 1.783.035.0161.071.0299.1078.0412.2486.0929.5045.165.765.2155l.866.2454c-2.1807.3884-4.4287.0153-6.367-1.0568-1.93826-1.0721-3.44904-2.778-4.27899-4.8317zm11.61929 1.8607c-.2072.2019-.4738.3319-.7605.3708-.2867.0388-.5783-.0154-.8318-.1549-.2535-.1394-.4555-.3567-.5761-.6196-.1207-.263-.1536-.5577-.0941-.8408.0596-.2832.2086-.5396.4251-.7316.2164-.192.4888-.3094.777-.3348s.5769.0425.8236.1936c.2467.1512.4383.3776.5465.6459.1002.2483.1243.5208.0691.7828-.0551.2621-.187.5018-.3788.6886z"/><path d="m14.1973 12.5099c.2678.0017.5301-.076.7538-.2233.2236-.1473.3986-.3577.5027-.6044s.1327-.5188.0822-.7818c-.0506-.263-.1779-.5051-.3661-.6957-.1881-.1906-.4285-.32119-.6908-.37516s-.5348-.02894-.7829.07192c-.2481.10084-.4607.27304-.6109.49474-.1503.2217-.2314.4829-.2331.7507-.0023.1781.0309.3549.0975.5201s.1653.3155.2904.4423.2742.2275.4385.2962c.1643.0688.3406.1042.5187.1044z"/></g></svg>