<svg xmlns="http://www.w3.org/2000/svg" width="32" height="32" fill="none"><path fill="#000" d="M16 32c8.837 0 16-7.163 16-16S24.837 0 16 0 0 7.163 0 16s7.163 16 16 16Z"/><path fill="#fff" d="m24.574 25.401-2.832-.803a10.688 10.688 0 0 0 4.086-12.9l-.024-.06a10.561 10.561 0 0 0-13.73-5.878A10.683 10.683 0 0 0 6.17 19.598a10.562 10.562 0 0 0 13.423 6.065l4.651 1.318.008.002a.806.806 0 0 0 .955-.623.817.817 0 0 0-.633-.959Zm-17.47-6.149a9.656 9.656 0 0 1 5.334-12.57c.21-.083.42-.158.63-.227a4.804 4.804 0 0 1 5.655 3.013A4.775 4.775 0 0 1 16 15.647a4.853 4.853 0 0 0 .012 8.991 4.79 4.79 0 0 0 .873.257l.865.245a9.656 9.656 0 0 1-10.646-5.888Zm11.619 1.86a1.35 1.35 0 1 1-1.884-1.933 1.35 1.35 0 0 1 1.884 1.934Z"/><path fill="#fff" d="M14.197 12.51a1.355 1.355 0 1 0-1.247-.843 1.347 1.347 0 0 0 1.247.843Z"/></svg>