<svg xmlns="http://www.w3.org/2000/svg" width="32" height="32" fill="none"><defs><linearGradient id="qkc__a" x1="16" x2="16" y1="22.721" y2="9.274" gradientUnits="userSpaceOnUse"><stop stop-color="#3F5CAA"/><stop offset=".2" stop-color="#3F5FAC"/><stop offset=".33" stop-color="#4168B2"/><stop offset=".46" stop-color="#4378BD"/><stop offset=".57" stop-color="#468ECC"/><stop offset=".64" stop-color="#48A0D9"/><stop offset=".8" stop-color="#3ABBEC"/><stop offset=".9" stop-color="#35C6F4"/></linearGradient><linearGradient id="qkc__b" x1="15.998" x2="15.998" y1="22.726" y2="9.275" gradientUnits="userSpaceOnUse"><stop stop-color="#4068B1"/><stop offset=".13" stop-color="#3D7FC1"/><stop offset=".39" stop-color="#39A5DD"/><stop offset=".59" stop-color="#36BDEE"/><stop offset=".72" stop-color="#35C6F4"/></linearGradient></defs><path fill="#fff" d="M16 32c8.837 0 16-7.163 16-16S24.837 0 16 0 0 7.163 0 16s7.163 16 16 16Z"/><path fill="url(#qkc__a)" d="M24.774 22.058c0 .377-.359.663-.803.663-.444 0-.802-.289-.802-.663V11.903a.064.064 0 0 0-.06-.067h-.004c-.042 0-.063 0-.084.017l-6.358 8.132a.936.936 0 0 1-1.12.17.456.456 0 0 1-.232-.186l-6.337-8.116a.184.184 0 0 0-.106-.017c-.02 0-.042.034-.042.067v10.155c0 .377-.377.663-.823.663-.423 0-.782-.289-.782-.663V9.931a.611.611 0 0 1 .359-.545.89.89 0 0 1 1.098.187l7.013 8.933a.39.39 0 0 0 .591 0l6.998-8.899a.812.812 0 0 1 .696-.324c.444 0 .803.29.803.648l-.005 12.127Z" opacity=".9"/><path fill="url(#qkc__b)" d="M24.774 22.07c0 .357-.359.646-.803.646a.812.812 0 0 1-.696-.324l-6.993-8.899a.392.392 0 0 0-.59 0l-7.014 8.934a.892.892 0 0 1-1.098.187.614.614 0 0 1-.36-.544V9.938c0-.376.36-.663.783-.663.442 0 .823.288.823.663v10.158c0 .033.021.067.042.067a.196.196 0 0 0 .106-.016l6.337-8.117a.462.462 0 0 1 .232-.187.937.937 0 0 1 1.12.171l6.358 8.133c.021.016.042.016.084.016a.064.064 0 0 0 .064-.064V9.938c0-.376.36-.663.802-.663.443 0 .803.288.803.663V22.07Z"/></svg>