<svg fill="none" height="32" viewBox="0 0 32 32" width="32" xmlns="http://www.w3.org/2000/svg"><path d="m16 32c8.8366 0 16-7.1634 16-16 0-8.83656-7.1634-16-16-16-8.83656 0-16 7.16344-16 16 0 8.8366 7.16344 16 16 16z" fill="#543694"/><g fill="#fff"><path d="m16 24.2266c.2656-.0008.5199-.1069.7074-.295.1875-.188.2928-.4428.2928-.7083 0-.2656-.1053-.5203-.2928-.7084-.1875-.188-.4418-.2941-.7074-.295-1.65-.0018-3.2319-.6581-4.3987-1.8249-1.1667-1.1667-1.823-2.7486-1.82486-4.3986 0-.2661-.10571-.5213-.29387-.7095-.18816-.1881-.44337-.2939-.70946-.2939-.2661 0-.52131.1058-.70947.2939-.18816.1882-.29386.4434-.29386.7095-.00018 1.0808.21257 2.1511.62612 3.1498.41354.9986 1.01977 1.9059 1.7841 2.6702.7642.7643 1.6716 1.3705 2.6702 1.7841.9986.4135 2.0689.6263 3.1498.6261"/><path d="m15.9999 7.77341c-.2655.00084-.5199.10691-.7074.29498-.1875.18808-.2927.4428-.2927.70835 0 .26556.1052.52028.2927.70835s.4419.29415.7074.29499c1.65.00186 3.232.65812 4.3987 1.82492 1.1667 1.1667 1.823 2.7486 1.8249 4.3986 0 .2661.1057.5213.2939.7095.1881.1882.4433.2939.7094.2939s.5213-.1057.7095-.2939.2939-.4434.2939-.7095c.0001-1.0808-.2126-2.1511-.6262-3.1497-.4135-.9987-1.0197-1.906-1.784-2.6703-.7643-.76429-1.6717-1.37052-2.6703-1.78407-.9986-.41354-2.0689-.6263-3.1498-.62612"/><path d="m16 11.6195c1.1617.0012 2.2754.4637 3.0961 1.2858.8208.8222 1.2815 1.9366 1.2807 3.0983.0004.1321-.0252.2629-.0754.385-.0503.1221-.1241.233-.2173.3265s-.204.1677-.3259.2184c-.122.0506-.2527.0766-.3847.0766s-.2628-.026-.3847-.0766c-.1219-.0507-.2327-.1249-.3259-.2184s-.1671-.2044-.2173-.3265-.0759-.2529-.0755-.385c-.0018-.4692-.1427-.9274-.4047-1.3167-.2621-.3893-.6335-.6922-1.0676-.8706-.434-.1784-.9111-.2242-1.3712-.1316-.46.0925-.8824.3192-1.2137.6516-.3313.3323-.5567.7553-.6479 1.2156-.0911.4604-.0438.9374.1359 1.3708.1797.4335.4838.8041.8738 1.0649.3901.2609.8487.4003 1.318.4008.2661 0 .5213.1057.7095.2938.1881.1882.2938.4434.2938.7095s-.1057.5213-.2938.7095c-.1882.1881-.4434.2938-.7095.2938-1.1622-.0032-2.2757-.4674-3.096-1.2907s-1.2805-1.9384-1.2795-3.1007c.001-1.1622.463-2.2765 1.2847-3.0985.8216-.8219 1.9358-1.2843 3.0981-1.2856z"/><path d="m20.086 20.0897c.0934-.093.1674-.2035.2179-.3251.0506-.1217.0766-.2521.0766-.3838s-.026-.2622-.0766-.3838c-.0505-.1217-.1245-.2321-.2179-.3251l-.0145-.0145c-.188-.188-.443-.2937-.7089-.2937s-.5209.1057-.7089.2937-.2936.443-.2936.7088c0 .2659.1056.5209.2936.7089l.0146.0146c.0929.0933.2034.1673.325.2179.1217.0505.2521.0765.3839.0765.1317 0 .2621-.026.3838-.0765.1216-.0506.2321-.1246.325-.2179"/><path d="m15.9999 4c-.2661 0-.5213.10571-.7094.29387-.1882.18816-.2939.44336-.2939.70946s.1057.5213.2939.70946c.1881.18816.4433.29387.7094.29387 2.6508.00179 5.1926 1.05561 7.067 2.93003 1.8744 1.87441 2.9282 4.41611 2.93 7.06701 0 .2661.1057.5213.2939.7094.1881.1882.4433.2939.7094.2939s.5213-.1057.7095-.2939c.1882-.1881.2939-.4433.2939-.7094-.0029-3.1827-1.2684-6.23426-3.519-8.48477-2.2505-2.25051-5.302-3.51609-8.4847-3.51893"/><path d="m16 28c.2661 0 .5213-.1057.7095-.2939.1881-.1881.2938-.4433.2938-.7094s-.1057-.5213-.2938-.7095c-.1882-.1882-.4434-.2939-.7095-.2939-2.6508-.0017-5.1925-1.0556-7.06696-2.93-1.87442-1.8744-2.92824-4.4161-2.93002-7.067-.00014-.1319-.02631-.2626-.07702-.3844-.05071-.1219-.12496-.2325-.2185-.3257-.09354-.0931-.20453-.1668-.32662-.2169-.12208-.0502-.25286-.0758-.38484-.0753s-.26257.027-.38428.078c-.12172.0511-.23217.1256-.32504.2194-.09286.0938-.16631.205-.21614.3272-.04982.1222-.07505.253-.07422.385.00148 3.1825 1.26686 6.234 3.51787 8.4837 2.25101 2.2496 5.30337 3.5131 8.48577 3.5127"/></g></svg>