<svg fill="none" height="32" viewBox="0 0 32 32" width="32" xmlns="http://www.w3.org/2000/svg"><path d="m16 32c8.8366 0 16-7.1634 16-16 0-8.83656-7.1634-16-16-16-8.83656 0-16 7.16344-16 16 0 8.8366 7.16344 16 16 16z" fill="#fff"/><g fill="#000"><path d="m9.43506 4.16589 6.60574 7.73981 4.4317-2.60804s-5.3515-7.15088-6.773-6.64611c-1.3378.5048-4.26444 1.51434-4.26444 1.51434z"/><path d="m20.6396 9.29773c.6888-1.29839 1.1953-2.68554 1.5051-4.12227 0 0 5.017 2.01909 3.0938 7.06674z"/><path d="m25.2385 12.2423.4181 5.3001 1.9232-.2524s.5017-.1683.4181-1.0937c-.0836-1.0095-.2509-3.1127-.2509-3.1127s.0836-.5048-1.087-.673c-1.4215-.2524-1.4215-.1683-1.4215-.1683z"/><path d="m25.6567 17.5424-3.8464 3.1127 1.756 3.4492s.4181 1.346 1.6724-.1682c1.1706-1.5143 1.6723-1.7667 1.5886-2.6921-.0836-.9254-.3344-3.1127-1.1706-3.7016z"/><path d="m21.7267 20.6549-5.2679-2.3555-4.5989 9.3382s-.3345.673.8362.7571c1.1706.1683 3.0938.5889 4.0972-.4206 1.0034-.9254 4.9334-7.3192 4.9334-7.3192z"/><path d="m16.4588 18.2153-.5017-6.2255-11.3719.7572s-.66893.0841-.58529 1.346c.08362 1.6826.25085 3.5334.25085 3.5334s-.08361.7571 1.42149.8412c1.50507.0842 10.61935.0842 10.78655-.2523z"/></g></svg>