<svg fill="none" height="32" viewBox="0 0 32 32" width="32" xmlns="http://www.w3.org/2000/svg"><path d="m16 32c8.8366 0 16-7.1634 16-16 0-8.83656-7.1634-16-16-16-8.83656 0-16 7.16344-16 16 0 8.8366 7.16344 16 16 16z" fill="#4cbbfd"/><path d="m23.3134 15.9996c.0007-1.4123-.4099-2.7942-1.1816-3.977l2.8679-2.86821-2.1538-2.15439-2.8662 2.86821c-1.183-.77152-2.565-1.1823-3.9774-1.1823s-2.7943.41078-3.9774 1.1823l-2.8705-2.86821-2.1544 2.15439 2.86821 2.86791c-.77152 1.1831-1.1823 2.565-1.1823 3.9774s.41078 2.7944 1.1823 3.9774l-2.86821 2.8685 2.1544 2.1544 2.8682-2.8682c1.1831.7715 2.565 1.1823 3.9774 1.1823s2.7943-.4108 3.9774-1.1823l2.8682 2.8682 2.1541-2.1544-2.8679-2.8659c.7723-1.1836 1.1829-2.5667 1.1816-3.9801zm-11.5798 0c-.0012-.6365.1401-1.2652.4135-1.84s.6719-1.0812 1.1664-1.482 1.0723-.6859 1.6913-.8344c.6189-.1485 1.2633-.1566 1.8858-.0238.6225.1329 1.2074.4033 1.7118.7915.5044.3883.9155.8844 1.2033 1.4522.2878.5677.4449 1.1926.4598 1.829.0149.6363-.1127 1.2679-.3736 1.8485l-2.8143-2.8182-2.1552 2.1549 2.8154 2.8146c-.6492.2919-1.3611.4164-2.0708.3622-.7096-.0543-1.3944-.2856-1.9916-.6727-.5973-.3872-1.0879-.9179-1.4271-1.5436-.3393-.6257-.5162-1.3264-.5147-2.0382z" fill="#fff"/></svg>