<svg xmlns="http://www.w3.org/2000/svg" width="32" height="32" fill="none"><path fill="#4CBBFD" d="M16 32c8.837 0 16-7.163 16-16S24.837 0 16 0 0 7.163 0 16s7.163 16 16 16Z"/><path fill="#fff" d="M23.313 16a7.27 7.27 0 0 0-1.181-3.977L25 9.154 22.846 7 19.98 9.868a7.281 7.281 0 0 0-7.955 0L9.155 7 7 9.154l2.868 2.868a7.281 7.281 0 0 0 0 7.955L7 22.846 9.154 25l2.869-2.868a7.282 7.282 0 0 0 7.954 0L22.846 25 25 22.846l-2.868-2.866A7.271 7.271 0 0 0 23.313 16Zm-11.58 0a4.265 4.265 0 0 1 6.87-3.39 4.267 4.267 0 0 1 1.289 5.13l-2.814-2.818-2.156 2.155 2.816 2.815A4.259 4.259 0 0 1 11.734 16Z"/></svg>