<svg fill="none" height="32" viewBox="0 0 32 32" width="32" xmlns="http://www.w3.org/2000/svg"><path d="m16 32c8.8366 0 16-7.1634 16-16 0-8.83656-7.1634-16-16-16-8.83656 0-16 7.16344-16 16 0 8.8366 7.16344 16 16 16z" fill="#54a4db"/><path clip-rule="evenodd" d="m27.288 23.4095c-.2822.0011-.555.1015-.7705.2836l-2.1393-1.834 1.643-5.0601c.0185.0013.0362.0056.0552.0056.2214 0 .4338-.088.5904-.2446s.2445-.3689.2445-.5904c0-.2214-.0879-.4338-.2445-.5904s-.369-.2445-.5904-.2445c-.0189 0-.0367.0043-.0555.0055l-1.4346-4.4188c.0975-.0603.1814-.14.2466-.2342s.1103-.2008.1324-.3132.0207-.22819-.004-.34005c-.0247-.11187-.0722-.21742-.1396-.31006s-.1532-.17037-.2521-.22831c-.0988-.05795-.2085-.09487-.3223-.10844-.1137-.01358-.2291-.00352-.3387.02954-.1097.03305-.2114.0884-.2987.16258l-3.7837-2.73453c.0426-.10592.0629-.21947.0597-.33358-.0031-.11412-.0297-.22637-.0781-.32977s-.1176-.19574-.2031-.27128c-.0856-.07555-.1858-.13268-.2945-.16785-.1086-.03517-.2232-.04762-.3369-.03659-.1136.01104-.2237.04532-.3235.10073-.0999.05541-.1872.13076-.2567.22136-.0694.0906-.1195.19451-.1471.30529h-4.5809c-.0274-.11099-.0774-.21515-.1468-.30599-.0694-.09083-.1568-.1664-.2567-.22199s-.2102-.09001-.324-.10112-.2286.00134-.3374.03655c-.1087.03522-.2091.09246-.2947.16816-.0857.07569-.1549.16822-.2032.27181-.0484.1036-.0749.21604-.0779.33033-.003.11428.0176.22795.0604.33394l-3.78343 2.73453c-.08738-.07342-.18894-.12806-.29835-.16055-.1094-.03248-.22433-.0421-.33761-.02827-.11329.01384-.22252.05083-.3209.10869-.09838.05785-.1838.13533-.25095.22761-.06715.09229-.1146.1974-.13939.30881-.02479.1114-.02639.22675-.00471.33875.02169.1121.06619.2185.13076.3126.06456.0941.14779.1739.24453.2345l-1.42753 4.3979c-.0209-.0016-.04089-.0062-.0623-.0062-.22144 0-.4338.0879-.59038.2445s-.24454.3689-.24454.5904c0 .2214.08796.4338.24454.5903.15658.1566.36894.2446.59038.2446.01668 0 .03205-.0039.04845-.0047l1.44171 4.4405c-.09697.06-.1806.1392-.24568.2328-.06509.0936-.11024.1996-.13267.3113-.02244.1118-.02166.227.00227.3385.02394.1114.07052.2168.13686.3095.06633.0927.15102.1708.24879.2295.09777.0586.20654.0965.31958.1114.11303.0148.22791.0063.33751-.0251s.21158-.085.29961-.1574l3.79325 2.7279c-.0423.106-.0623.2194-.0589.3335.0034.114.0302.2261.0787.3293.0486.1032.1178.1954.2034.2708.0857.0753.1859.1323.2944.1673.1086.035.2232.0473.3367.0362s.2235-.0454.3233-.1008c.0997-.0554.1869-.1307.2563-.2212.0694-.0906.1195-.1944.1471-.3051h4.5811c.0274.1108.0774.2148.1467.3055.0693.0906.1565.1661.2562.2216.0997.0556.2098.09.3234.1012s.2282-.001.3369-.036c.1086-.035.2089-.0919.2946-.1673s.155-.1676.2036-.2709.0754-.2154.0788-.3295-.0167-.2277-.0591-.3336l4.3043-3.1141 2.1204 1.8179c-.1359.2295-.192.4975-.1597.7622s.1514.5113.3385.7012c.1872.19.4319.3127.6961.3491.2642.0363.533-.0158.7645-.1483.2314-.1324.4126-.3377.5152-.5839.1025-.2461.1208-.5193.0518-.7769-.0689-.2576-.2211-.4852-.433-.6472-.2118-.1621-.4712-.2495-.7379-.2486zm-3.0096-12.3192 1.3551 4.1742c-.1812.1143-.3114.2941-.3634.502h-.4983-.1977c-.0318-.1413-.0999-.2718-.1977-.3786-.0977-.1069-.2216-.1864-.3594-.2306zm-.3896-.283-.2777 4.3209c-.0198.0036-.0387.0092-.058.0142l-1.7244-3.2609c.1056-.092.1854-.21.2313-.3423s.0564-.2743.0305-.412l.2239-.0971 1.1705-.5069c.1027.1334.2436.2325.4039.2841zm-4.6764 4.344c-.1283-.0267-.2613-.0202-.3863.019l-2.2993-3.9856c.085-.0794.1525-.1758.198-.2829l3.7209.4618c.0247.2122.1306.4066.2955.5425zm1.8995-3.0671c.1184.0247.241.021.3578-.0106l1.7261 3.2633c-.1245.1146-.211.2644-.2482.4295h-1.5011l-1.5878-.0003c-.0415-.1642-.1324-.3118-.2604-.4229zm-2.6402 3.2881c-.1102.1079-.1883.2443-.2254.3939h-4.5814c-.0374-.15-.1157-.2866-.2263-.3946l2.3016-3.9895c.1405.0421.2903.0421.4308 0zm-5.3881-.2024c-.0731-.022-.1488-.0337-.225-.0348-.0539.0002-.1076.0056-.1604.0162l-1.5278-3.2438c.1656-.136.2721-.3308.2972-.5436l3.7131-.4798c.0436.1109.1104.2112.1959.2941zm-.7522.158c-.1375.1126-.2352.2662-.2789.4383l-1.4779.0003h-1.58754c-.04055-.1609-.12839-.3059-.25218-.4163l1.71402-3.2749c.116.0303.2375.0333.3549.0087zm-3.34434.8458h1.58654 1.4785c.0437.1723.1414.326.2789.4386l-1.5294 3.248c-.1171-.0242-.2383-.021-.354.0094l-1.71343-3.279c.12424-.1104.21236-.2558.25289-.417zm3.71134.6153c.0528.0105.1064.0158.1602.0161.0769-.0011.1533-.0129.2269-.0352l2.2899 3.9698c-.0859.0839-.1527.1853-.196.2972l-3.7122-.4605c-.026-.212-.1328-.4057-.2982-.5408zm.7412-.2211c.1102-.108.1883-.2446.2255-.3944h4.5809c.0371.1498.1152.2864.2254.3944l-2.2894 3.9706c-.1473-.0467-.3056-.0467-.453 0zm5.3863.202c.0735.0223.1498.0341.2266.0352.0537-.0003.1074-.0056.1601-.0161l1.5301 3.248c-.1644.1349-.2706.328-.2964.5391l-3.7147.4609c-.0432-.112-.11-.2133-.1958-.2972zm.7539-.1578c.1375-.1125.2353-.2663.2789-.4386h1.3855 1.7173c.0435.1543.1306.2927.2508.3987l-1.7442 3.2978c-.117-.0311-.2397-.0345-.3582-.0099zm.0063-9.63875 3.7836 2.73438c-.0395.09802-.06.20266-.0603.30837.0008.0448.0053.0895.0135.1335l-1.397.6051c-.0772-.1006-.1765-.1822-.2902-.2384-.1137-.0563-.2388-.0857-.3656-.086-.0485.0006-.0967.0055-.1443.0146l-1.4721-3.26905-.0851-.18837c.0062-.00439.0118-.00936.0175-.01413zm-.844.13708c.1442.06033.3032.07644.4566.04627l.2236.49633 1.333 2.95997c-.1146.0896-.2038.2077-.2587.3424l-3.7172-.4806c-.0189-.153-.0803-.2976-.1772-.4175zm-5.077-.57035h4.5811c.0302.11886.0864.22952.1647.32393l-2.1629 2.93542c-.1939-.07597-.4098-.07401-.6023.00548l-2.1475-2.9382c.0793-.09508.1363-.20668.1669-.32663zm-.8065.63128c.1064-.00028.2118-.02101.3105-.06108l2.1399 2.94682c-.0965.1194-.1578.2633-.1771.4156l-3.7142.4859c-.0545-.1357-.1436-.2547-.2585-.3451l1.5538-3.45694c.048.0092.0967.01408.1456.0148zm-.5336-.19801c.0058.00472.0117.00992.0176.01451l-1.5538 3.45714c-.1498-.0289-.3047-.0149-.4469.0404-.1422.0552-.2658.1496-.3567.2721l-1.39704-.6069c.02857-.149.0123-.30311-.04675-.44287zm-3.89945 3.55055 1.39695.6069c-.02577.138-.01469.2805.03212.4129.04681.1325.1277.2502.23448.3414l-1.71413 3.2752c-.01569-.0038-.03115-.0073-.04727-.0102l-.30143-4.3441c.15834-.0519.29744-.1502.39928-.2821zm-.7885 10.3397-1.3657-4.207c.17705-.1099.3065-.2822.36284-.4828h.5192.22094c.03444.1359.10271.261.19846.3634.09574.1025.21585.1791.34915.2227zm-.26253-5.097h-.22113-.50577c-.04793-.2148-.17892-.4018-.36436-.5203l1.35365-4.1698.28489 4.104c-.13325.0436-.25331.1202-.34899.2227-.09569.1024-.1639.2275-.19829.3634zm.6518 5.3674.30143-4.3438c.01598-.0027.03115-.0063.04656-.0099l1.59822 3.0586.11567.221c-.10621.0906-.18668.2075-.23339.339s-.05802.273-.03279.4102l-1.40096.6014c-.10131-.1292-.23869-.2255-.39474-.2765zm4.29708 3.8335-3.78596-2.7227c.06218-.143.07993-.3015.05095-.4547l1.39567-.6046c.07714.1018.17674.1845.29114.2414.1143.057.2403.0868.368.0871.0484-.0005.0966-.0054.1441-.0146l1.5549 3.4525c-.0064.0052-.0126.0104-.0188.0156zm.8457-.138c-.1442-.0609-.3032-.077-.4567-.0464l-.3351-.744-1.2195-2.7075c.1167-.0916.2068-.2127.2611-.3508l.9.1116 2.8125.3488c.0192.1581.0838.3071.186.4292l-.3633.5006zm5.0771.57h-4.5811c-.0309-.1207-.0885-.233-.1687-.3285l2.1489-2.959c.1987.0819.4218.0819.6206 0l2.1487 2.959c-.0802.0954-.1377.2077-.1684.3285zm.9525-.6164c-.1534-.0306-.3125-.0145-.4566.0464l-.8801-1.212-1.2685-1.7471c.1021-.1221.1666-.2712.1859-.4292l2.855-.354.8597-.1069c.0517.1314.1358.2475.2445.3375l-1.487 3.3481zm.3883.1839c-.0057-.0047-.0115-.0099-.0176-.0146l.0527-.1182 1.5018-3.3348c.1487.0287.3025.0151.4439-.0392s.2647-.1472.356-.2681l1.808.7762zm2.5038-4.1543c.0257-.1373.0148-.279-.0315-.4109-.0463-.1318-.1264-.2492-.2324-.3403l.9637-1.8217.7828-1.4799c.0116.0028.0232.0055.0349.0076l.3109 4.8373zm1.9234-4.0732c.1307-.0419.249-.1154.3443-.2142.0953-.0987.1646-.2195.2019-.3515h.2115.4984c.0524.2074.1826.3868.3636.501l-1.3555 4.1746z" fill="#fff" fill-rule="evenodd"/></svg>