<svg fill="none" height="32" viewBox="0 0 32 32" width="32" xmlns="http://www.w3.org/2000/svg"><path d="m16 32c8.8366 0 16-7.1634 16-16 0-8.83656-7.1634-16-16-16-8.83656 0-16 7.16344-16 16 0 8.8366 7.16344 16 16 16z" fill="#fff"/><g clip-rule="evenodd" fill-rule="evenodd"><path d="m7.02116 15.1937c1.55181-1.2458 3.46754-1.9514 5.45664-2.0098 1.3201-.0713 2.6434.0598 3.9237.389.1599.0391.3188.1386.5263.027-.3651-.927-1.2903-1.2449-2.0737-1.8784 1.9559-.1842 3.9225.2166 5.6503 1.1517 1.5729.7911 2.8954 2.0034 3.8201 3.5017s1.4154 3.2239 1.4173 4.9846c.1108 3.6814-2.3515 6.6425-6.2081 7.6794-1.8423.4846-3.7659.5764-5.646.2694-1.8801-.3069-3.6747-1.0057-5.26723-2.0511-1.59255-1.0453-2.94751-2.4139-3.97694-4.0167-1.02944-1.6029-1.71034-3.4044-1.99853-5.2874-.12951-.567-.17021-1.1507-.12066-1.7302.19656.1843.34244.4161.42365.673.4672.968 1.04299 1.8797 1.71625 2.7176 1.26238 1.6439 3.09575 2.7543 5.13748 3.1113 2.04178.3571 4.14308-.0651 5.88848-1.183.715-.4728 1.3052-1.1113 1.7203-1.8612.3767-.6795.4781-1.4777.2831-2.2298s-.6713-1.4005-1.3307-1.8114c-1.5404-.7109-3.2647-.9216-4.931-.6024-.4906.0362-.9512.2498-1.2957.601-.33991.4039.0788.7586.0905 1.1967-.61956-.0332-1.22519-.1965-1.77747-.4793-.55229-.2827-1.03886-.6786-1.42807-1.1617z" fill="#172c5f"/><path d="m7.02115 15.1936c.38944.4831.87612.8789 1.42845 1.1617.55232.2828 1.15794.4463 1.7775.4799-.0117-.4386-.43036-.7929-.0904-1.1967.3445-.3512.8051-.5649 1.2957-.601 1.6662-.3192 3.3905-.1085 4.9308.6024.6595.4108 1.1359 1.0592 1.3309 1.8113.1949.7521.0936 1.5503-.2832 2.2298-.4151.7499-1.0053 1.3884-1.7203 1.8612-1.7454 1.1179-3.8467 1.5401-5.88845 1.183-2.04172-.357-3.87508-1.4674-5.13746-3.1113-.67327-.8378-1.24905-1.7495-1.71625-2.7175-.08139-.2569-.22725-.4886-.42366-.6731-.02067-2.1707.48421-4.3142 1.47153-6.24746.98732-1.93328 2.42777-3.59895 4.1984-4.85484 1.77062-1.25589 3.81879-2.0647 5.96979-2.35739s4.3409-.06058 6.3827.67654c-.7929 1.02143-1.753 1.90128-2.8396 2.60229-.2206.14632-.3394.11795-.3908-.17154-.0621-.43148-.2354-.83937-.5029-1.18363-.9918 1.68248-2.75 2.15836-4.3419 2.885-.3458.12407-.6503.34187-.8794.62905-.2292.28718-.3739.63242-.4182.99715-.0648.5074.4705.69019.598 1.27143-.6155-.5083-.9226-.1409-1.275.181-.2586.2226-.54345.4127-.84827.5659-.16533.1285-.36412.2069-.57268.2256-.20857.0188-.41814-.0228-.60375-.1198-.38044-.2544-.15442-.6641-.14182-1.0175-1.81079.6411-2.80668 3.3128-1.98368 5.3095.22553-.1414.44973-.2809.67395-.421z" fill="#428ac9"/><path d="m21.8605 4.0547c2.2653 1.01045 4.1656 2.69241 5.4436 4.8183.9709 1.5124 1.6222 3.2073 1.9141 4.9806s.2181 3.5875-.2168 5.3313c-.1853-1.1045-.4802-2.1878-.8801-3.2339-.7018-1.5327-1.7355-2.8902-3.0264-3.9742.8946-.0855 1.6991.4151 2.6266.4507-.0487-.1242-.0559-.2062-.1004-.2458-.1428-.1261-.299-.2364-.4503-.3525.072-.4318-.2791-.5813-.533-.792-2.1125-1.74464-4.6812-2.84657-7.4012-3.17498.3547-.35612.737-.67983 1.0747-1.05982.6504-.83359 1.1726-1.75972 1.5492-2.7477z" fill="#428ac9"/><path d="m21.8605 4.0547c-.3763.98824-.8985 1.91456-1.5492 2.74816-.3377.38-.7199.7037-1.0747 1.05982-.8252.63134-1.7532 1.1154-2.7432 1.43081.0529-.09865.1001-.20027.1414-.30435.1585-.42287.4015-.80902.7141-1.13489.3126-.32588.6884-.58466 1.1043-.76055.9951-.52547 1.8324-1.30612 2.4263-2.26191.0617-.02837.1274-.07159.0684-.13822-.0225-.02521-.1139.0108-.1738.01891-.1621.004-.3138.15082-.5398.00585.8299-.95799 1.4592-2.07264 1.8509-3.27807.2296 1.02426-.2332 1.80089-.2247 2.61444z" fill="#172c5f"/><path d="m27.1709 11.8296c.1513.1162.3075.2265.4502.3525.0446.0396.0518.1216.1004.2458-.9274-.0355-1.732-.5362-2.6266-.4506-.9-.614-1.866-1.1249-2.8801-1.5231.8761-.0006 1.7406.2008 2.5262.5884.0577.0149.1153.0306.1725.0468l-.0027-.195c.1427-.2116.1508-.2264.2967-.1472.6568.3553 1.3092.72 1.9634 1.0824z" fill="#172c5f"/><path d="m14.6804 8.17649c.2902-.21469.6183-.37278.9671-.466-.0415 1.08773-.9104 1.82385-2.3182 1.98008-.045-.33317.2737-.28409.429-.37459.2295-.10836.4316-.26709.5913-.46438.1596-.19729.2727-.42806.3308-.67511z" fill="#172c5f"/><path d="m14.6804 8.17649c-.0581.24706-.1712.47783-.3309.67512-.1596.1973-.3617.35603-.5912.46439-.1553.09049-.4741.04142-.4291.37459-.2278.12651-.5024.19989-.6487-.04052-.145-.23907.058-.47364.2395-.63617.503-.42901 1.1102-.71785 1.7604-.83741z" fill="#428ac9"/><path d="m7.2229 13.0542c.19494-.6258.42231-.95.95627-.9482.17379.0005.339-.054.35477.195.01351.2089-.02341.4344-.28814.38-.36558-.0757-.62851.1188-1.0229.3732z" fill="#428ac9"/></g></svg>