<svg xmlns="http://www.w3.org/2000/svg" width="32" height="32" fill="none"><path fill="#fff" d="M16 32c8.837 0 16-7.163 16-16S24.837 0 16 0 0 7.163 0 16s7.163 16 16 16Z"/><path fill="#172C5F" fill-rule="evenodd" d="M7.021 15.194a9.145 9.145 0 0 1 5.457-2.01c1.32-.071 2.643.06 3.923.389.16.039.32.138.527.027-.365-.927-1.29-1.245-2.074-1.878a9.917 9.917 0 0 1 5.65 1.151 9.511 9.511 0 0 1 5.238 8.487c.11 3.68-2.352 6.642-6.208 7.679A13.587 13.587 0 0 1 2.645 17.953a5.62 5.62 0 0 1-.12-1.73c.196.184.342.416.423.673.467.968 1.043 1.88 1.716 2.717a8.275 8.275 0 0 0 11.026 1.929 5.32 5.32 0 0 0 1.72-1.861 3.03 3.03 0 0 0-1.047-4.042 8.121 8.121 0 0 0-4.931-.602c-.49.036-.951.25-1.296.601-.34.404.079.759.09 1.197a4.419 4.419 0 0 1-3.205-1.641Z" clip-rule="evenodd"/><path fill="#428AC9" fill-rule="evenodd" d="M7.021 15.194a4.425 4.425 0 0 0 3.206 1.641c-.012-.438-.43-.793-.09-1.197a2.023 2.023 0 0 1 1.295-.6 8.12 8.12 0 0 1 4.931.602 3.03 3.03 0 0 1 1.048 4.041 5.32 5.32 0 0 1-1.72 1.861 8.275 8.275 0 0 1-11.026-1.928 14.172 14.172 0 0 1-1.717-2.718 1.577 1.577 0 0 0-.423-.673A13.454 13.454 0 0 1 20.547 3.44a11.458 11.458 0 0 1-2.84 2.602c-.22.147-.339.118-.39-.171a2.512 2.512 0 0 0-.503-1.184c-.992 1.683-2.75 2.159-4.342 2.885a1.98 1.98 0 0 0-1.298 1.626c-.064.508.47.69.598 1.272-.615-.508-.922-.141-1.275.18a4.172 4.172 0 0 1-.848.567 1.092 1.092 0 0 1-1.176.106c-.38-.255-.155-.665-.142-1.018-1.81.641-2.807 3.313-1.984 5.31l.674-.421Z" clip-rule="evenodd"/><path fill="#428AC9" fill-rule="evenodd" d="M21.86 4.055a12.105 12.105 0 0 1 5.444 4.818 13.183 13.183 0 0 1 1.697 10.312 16.877 16.877 0 0 0-.88-3.234 11.371 11.371 0 0 0-3.026-3.974c.895-.086 1.699.415 2.627.45-.05-.124-.056-.206-.1-.245-.144-.126-.3-.237-.451-.353.072-.432-.28-.581-.533-.792a14.318 14.318 0 0 0-7.401-3.175c.354-.356.737-.68 1.074-1.06a10.61 10.61 0 0 0 1.55-2.747Z" clip-rule="evenodd"/><path fill="#172C5F" fill-rule="evenodd" d="M21.86 4.055a10.592 10.592 0 0 1-1.549 2.748c-.337.38-.72.704-1.074 1.06a9.021 9.021 0 0 1-2.744 1.43c.053-.098.1-.2.142-.304a3.325 3.325 0 0 1 1.818-1.895 6.344 6.344 0 0 0 2.427-2.262c.061-.029.127-.072.068-.138-.023-.026-.114.01-.174.018-.162.004-.314.151-.54.006a9.481 9.481 0 0 0 1.851-3.278c.23 1.025-.233 1.801-.225 2.615Zm5.31 7.775c.152.116.308.226.451.352.045.04.052.122.1.246-.927-.036-1.732-.536-2.626-.45a14.54 14.54 0 0 0-2.88-1.524c.876 0 1.74.201 2.526.589.058.014.115.03.172.046l-.002-.195c.142-.211.15-.226.296-.147.657.355 1.31.72 1.964 1.083ZM14.68 8.176c.29-.214.619-.372.968-.466-.042 1.088-.91 1.824-2.319 1.98-.045-.333.274-.284.43-.374a1.688 1.688 0 0 0 .921-1.14Z" clip-rule="evenodd"/><path fill="#428AC9" fill-rule="evenodd" d="M14.68 8.176a1.687 1.687 0 0 1-.922 1.14c-.155.09-.474.041-.429.375-.228.126-.502.2-.649-.04-.144-.24.059-.475.24-.637a3.76 3.76 0 0 1 1.76-.838Zm-7.457 4.878c.195-.626.422-.95.956-.948.174 0 .34-.054.355.195.013.209-.023.434-.288.38-.366-.076-.629.119-1.023.373Z" clip-rule="evenodd"/></svg>