<svg fill="none" height="32" viewBox="0 0 32 32" width="32" xmlns="http://www.w3.org/2000/svg" xmlns:xlink="http://www.w3.org/1999/xlink"><linearGradient id="a" gradientUnits="userSpaceOnUse" x1="15.339" x2="15.339" y1="5.81818" y2="26.9752"><stop offset="0" stop-color="#00ff19"/><stop offset="1" stop-color="#00b81e"/></linearGradient><clipPath id="b"><path d="m0 0h32v32h-32z"/></clipPath><g clip-path="url(#b)"><path clip-rule="evenodd" d="m32 16c0 3.1645-.9384 6.2579-2.6965 8.8891s-4.2569 4.682-7.1806 5.893c-2.9236 1.211-6.1406 1.5278-9.2443.9105-3.10373-.6174-5.95466-2.1413-8.1923-4.3789s-3.761494-5.0886-4.378857-8.1923c-.617364-3.1037-.3005105-6.3207.910487-9.24434 1.21101-2.92361 3.26177-5.42247 5.89295-7.18057 2.63119-1.758106 5.72462-2.69649 8.88912-2.69649 4.2435 0 8.3131 1.68571 11.3137 4.68629s4.6863 7.07021 4.6863 11.31371z" fill="#55f" fill-rule="evenodd"/><path d="m16.3928 22.6188c-.2416-2.6295.1416-6.1735 1.6916-7.8905 1.1945.11 2.3961-.1141 3.4705-.6475 1.0745-.5334 1.9795-1.355 2.6141-2.373 1.0766-2.05417.8814-5.06881 1.4841-5.88962-7.0988 0-8.2766 7.33782-10.3094 12.83292-1.503-4.063-6.22-6.801-10.3188-5.1309 1.66637 1.1519 2.70545 3.9923 4.9633 4.2465.5851.079 1.18-.0351 1.6944-.325.5143-.2898.9201-.7395 1.1558-1.2808 2.0106 1.6332 1.7176 3.6139 1.4562 6.458-.2121 1.04-.3605 2.092-.4443 3.1501.0837 1.6083 2.9031 1.6083 2.9868 0-.0838-1.0581-.2322-2.1101-.4443-3.1502z" fill="url(#a)"/></g></svg>