<svg xmlns="http://www.w3.org/2000/svg" width="32" height="32" fill="none"><defs><linearGradient id="rad__b" x1="15.339" x2="15.339" y1="5.818" y2="26.975" gradientUnits="userSpaceOnUse"><stop stop-color="#00FF19"/><stop offset="1" stop-color="#00B81E"/></linearGradient><clipPath id="rad__a"><path fill="#fff" d="M0 0h32v32H0z"/></clipPath></defs><g clip-path="url(#rad__a)"><path fill="#55F" fill-rule="evenodd" d="M32 16a16 16 0 1 1-32 0 16 16 0 0 1 32 0Z" clip-rule="evenodd"/><path fill="url(#rad__b)" d="M16.393 22.619c-.242-2.63.141-6.174 1.691-7.89a6.47 6.47 0 0 0 6.085-3.021c1.077-2.054.881-5.069 1.484-5.89-7.099 0-8.276 7.338-10.31 12.833-1.502-4.063-6.22-6.8-10.318-5.13 1.666 1.151 2.705 3.991 4.963 4.246a2.712 2.712 0 0 0 2.85-1.606c2.011 1.633 1.718 3.614 1.457 6.458a26.06 26.06 0 0 0-.445 3.15c.084 1.608 2.903 1.608 2.987 0a26.065 26.065 0 0 0-.444-3.15Z"/></g></svg>