<svg fill="none" height="32" viewBox="0 0 32 32" width="32" xmlns="http://www.w3.org/2000/svg"><path d="m16 32c8.8366 0 16-7.1634 16-16 0-8.83656-7.1634-16-16-16-8.83656 0-16 7.16344-16 16 0 8.8366 7.16344 16 16 16z" fill="#fff"/><path d="m19.142 17.862-3.18 1.855-3.18-1.855v-3.717l3.18-1.862 3.18 1.862z" fill="#00b5d1"/><path d="m15.9999 4-10.33437 6.0038v11.9924l10.33437 6.0038 10.3344-6.0038v-11.9924zm-5.0347 14.9073v-5.8448l4.9969-2.9149 4.9968 2.9149v5.8448l-4.9968 2.9148zm0 3.369v-2.029l6.7609 3.9521-1.7262 1.0069zm12.9464-1.6731-5.0347 2.93-1.7868-1.0448 5.012-2.93v-7.147l-6.1325-3.58111-6.13246 3.58111v9.2063l-1.74132-1.0145v-9.2064l7.91168-4.59554 7.9041 4.59554z" fill="#0d285a"/></svg>