<svg xmlns="http://www.w3.org/2000/svg" width="32" height="32" fill="none"><defs><clipPath id="rare__a"><path fill="#fff" d="M0 0h32v32H0z"/></clipPath></defs><g clip-path="url(#rare__a)"><path fill="#000" d="M16 32a16 16 0 1 0 0-32 16 16 0 0 0 0 32Z"/><path fill="#fff" fill-rule="evenodd" d="M23.224 20.184c0 4.742-3.825 6.216-6.694 6.216a15.636 15.636 0 0 1-2.664-.313 14.143 14.143 0 0 0-2.357-.285 4.758 4.758 0 0 0-2.51.558v-7.97h.04c1.235 2.91 3.466 7.612 7.77 7.612 2.191 0 3.705-1.196 3.705-3.547 0-1.508-1.233-2.449-3.234-3.33v-5.127c3.609 1.295 5.944 2.893 5.944 6.186Zm-7.944-6.941c-2.69-1.066-4.01-1.885-4.01-3.658 0-2.351 1.793-3.547 3.825-3.547 2.75 0 4.901 2.351 7.133 6.655h.04l-.36-6.814c-.417.097-.845.15-1.274.16a14.499 14.499 0 0 1-2.108-.19 20.509 20.509 0 0 0-3.112-.249C12.425 5.6 8.6 7.313 8.6 11.816c0 2.75 1.196 4.662 5.738 6.176.323.116.638.23.942.342v-5.091Z" clip-rule="evenodd"/><path fill="#fff" d="M17.2 2.8h-2V6h2V2.8Zm0 23.2h-2v3.2h2V26Z"/></g></svg>