<svg fill="none" height="32" viewBox="0 0 32 32" width="32" xmlns="http://www.w3.org/2000/svg" xmlns:xlink="http://www.w3.org/1999/xlink"><clipPath id="a"><path d="m0 0h32v32h-32z"/></clipPath><g clip-path="url(#a)"><path d="m16 32c3.1645 0 6.2579-.9384 8.8891-2.6965s4.682-4.2569 5.893-7.1806c1.211-2.9236 1.5278-6.1406.9105-9.2443-.6174-3.10373-2.1413-5.95466-4.3789-8.1923s-5.0886-3.761494-8.1923-4.378857c-3.1037-.617364-6.3207-.3005105-9.24434.910487-2.92361 1.21101-5.42247 3.26177-7.18057 5.89295-1.758106 2.63119-2.69649 5.72462-2.69649 8.88912 0 4.2435 1.68571 8.3131 4.68629 11.3137s7.07021 4.6863 11.31371 4.6863z" fill="#000"/><g fill="#fff"><path clip-rule="evenodd" d="m23.2239 20.1839c0 4.7418-3.8253 6.2161-6.6943 6.2161-.8953-.0277-1.7865-.1323-2.6639-.3126-.7762-.1609-1.5646-.2562-2.3568-.285-.8721-.048-1.74059.145-2.51031.5578v-7.9694h.03983c1.23518 2.9088 3.46668 7.6108 7.77008 7.6108 2.1916 0 3.7058-1.1954 3.7058-3.5464 0-1.5084-1.2336-2.4489-3.2342-3.3294v-5.1274c3.6085 1.2946 5.9438 2.8926 5.9438 6.1855zm-7.9438-6.9411c-2.6893-1.0663-4.0103-1.8844-4.0103-3.65807 0-2.351 1.7931-3.54637 3.8253-3.54637 2.7494 0 4.9011 2.351 7.1325 6.65444h.0399l-.3586-6.81379c-.4183.09719-.8457.15061-1.2751.15938-.7061-.01149-1.4104-.07455-2.1073-.18868-1.0297-.16221-2.0702-.24569-3.1126-.2497-2.9885 0-6.8138 1.71345-6.8138 6.21609 0 2.7495 1.19542 4.6621 5.738 6.1763.3233.1159.6374.2298.9421.3415z" fill-rule="evenodd"/><path d="m17.2 2.79993h-2v3.2h2z"/><path d="m17.2 25.9999h-2v3.2h2z"/></g></g></svg>