<svg fill="none" height="32" viewBox="0 0 32 32" width="32" xmlns="http://www.w3.org/2000/svg" xmlns:xlink="http://www.w3.org/1999/xlink"><linearGradient id="a"><stop offset="0" stop-color="#c200fb"/><stop offset=".48966" stop-color="#3772ff"/><stop offset=".48976" stop-color="#3773fe"/><stop offset="1" stop-color="#5ac4be"/></linearGradient><linearGradient id="b" gradientUnits="userSpaceOnUse" x1="28.1828" x2="3.79649" xlink:href="#a" y1="11.1281" y2="20.8801"/><linearGradient id="c" gradientUnits="userSpaceOnUse" x1="276.12" x2="32.1678" xlink:href="#a" y1="290.331" y2="210.294"/><linearGradient id="d" gradientUnits="userSpaceOnUse" x1="124.723" x2="41.7948" xlink:href="#a" y1="73.9047" y2="35.4726"/><linearGradient id="e" gradientUnits="userSpaceOnUse" x1="90.6131" x2="30.5507" xlink:href="#a" y1="75.8188" y2="55.0158"/><path d="m16 32c8.8366 0 16-7.1634 16-16 0-8.83656-7.1634-16-16-16-8.83656 0-16 7.16344-16 16 0 8.8366 7.16344 16 16 16z" fill="#141b35"/><path d="m26.2994 12.6884v9.2598l-10.2994 5.9453-10.30519-5.9453v-11.8964l10.30519-5.95102 7.9156 4.57244 1.1948-.68932-9.1104-5.26173-11.5 6.64035v13.27498l11.5 6.6403 11.5-6.6403v-10.6384z" fill="url(#b)"/><path d="m13.1164 21.954h-1.7233v-5.7788h5.7443c.5434-.006 1.0626-.2258 1.4453-.6117s.5981-.907.5996-1.4505c.0031-.2687-.0488-.5353-.1525-.7832-.1037-.248-.2571-.4721-.4507-.6585-.1873-.1925-.4115-.3452-.6593-.4488-.2478-.1037-.5139-.1562-.7825-.1544h-5.7442v-1.7578h5.75c1.0066.006 1.9704.4086 2.6822 1.1204.7119.7119 1.1144 1.6756 1.1204 2.6823.0062.7706-.2287 1.5238-.672 2.1541-.4079.6031-.9828 1.0742-1.6543 1.3557-.6649.2109-1.359.3156-2.0565.3102h-3.4465z" fill="url(#c)"/><path d="m20.9057 21.8103h-2.0106l-1.5509-2.7055c.6136-.0376 1.2189-.1613 1.798-.3676z" fill="url(#d)"/><path d="m25.0989 10.7641 1.189.6606 1.1891-.6606v-1.39584l-1.1891-.68927-1.189.68932z" fill="url(#e)"/></svg>