<svg xmlns="http://www.w3.org/2000/svg" width="32" height="32" fill="none"><defs><linearGradient id="ray__a" x1="28.183" x2="3.796" y1="11.128" y2="20.88" gradientUnits="userSpaceOnUse"><stop stop-color="#C200FB"/><stop offset=".49" stop-color="#3772FF"/><stop offset=".49" stop-color="#3773FE"/><stop offset="1" stop-color="#5AC4BE"/></linearGradient><linearGradient id="ray__b" x1="276.12" x2="32.168" y1="290.331" y2="210.294" gradientUnits="userSpaceOnUse"><stop stop-color="#C200FB"/><stop offset=".49" stop-color="#3772FF"/><stop offset=".49" stop-color="#3773FE"/><stop offset="1" stop-color="#5AC4BE"/></linearGradient><linearGradient id="ray__c" x1="124.723" x2="41.795" y1="73.905" y2="35.473" gradientUnits="userSpaceOnUse"><stop stop-color="#C200FB"/><stop offset=".49" stop-color="#3772FF"/><stop offset=".49" stop-color="#3773FE"/><stop offset="1" stop-color="#5AC4BE"/></linearGradient><linearGradient id="ray__d" x1="90.613" x2="30.551" y1="75.819" y2="55.016" gradientUnits="userSpaceOnUse"><stop stop-color="#C200FB"/><stop offset=".49" stop-color="#3772FF"/><stop offset=".49" stop-color="#3773FE"/><stop offset="1" stop-color="#5AC4BE"/></linearGradient></defs><path fill="#141B35" d="M16 32c8.837 0 16-7.163 16-16S24.837 0 16 0 0 7.163 0 16s7.163 16 16 16Z"/><path fill="url(#ray__a)" d="M26.3 12.688v9.26L16 27.893 5.695 21.948V10.052L16 4.1l7.916 4.572 1.194-.69L16 2.724 4.5 9.362v13.274l11.5 6.64 11.5-6.64V12l-1.2.69Z"/><path fill="url(#ray__b)" d="M13.116 21.954h-1.723v-5.779h5.744a2.068 2.068 0 0 0 1.893-2.845 1.968 1.968 0 0 0-.45-.659 1.992 1.992 0 0 0-1.443-.603h-5.744V10.31h5.75a3.826 3.826 0 0 1 3.803 3.803 3.693 3.693 0 0 1-.672 2.154 3.745 3.745 0 0 1-1.655 1.356 6.632 6.632 0 0 1-2.056.31h-3.447v4.021Z"/><path fill="url(#ray__c)" d="M20.906 21.81h-2.01l-1.552-2.705a6.552 6.552 0 0 0 1.798-.368l1.764 3.073Z"/><path fill="url(#ray__d)" d="m25.099 10.764 1.189.66 1.189-.66V9.368l-1.19-.689-1.188.69v1.395Z"/></svg>