<svg fill="none" height="32" viewBox="0 0 32 32" width="32" xmlns="http://www.w3.org/2000/svg"><path d="m16 32c8.8366 0 16-7.1634 16-16 0-8.83656-7.1634-16-16-16-8.83656 0-16 7.16344-16 16 0 8.8366 7.16344 16 16 16z" fill="#fff"/><path d="m29.5043 10.5636c-.0746-.2066-.2274-.3756-.4255-.4707-.1103-.053-.2311-.0805-.3534-.0804-.1567.0011-.3099.0461-.4422.1299-.1324.0838-.2386.203-.3066.3441-.2195.4593-.4633.9066-.7303 1.34-1.0409-2.80556-3.0929-5.12081-5.7531-6.49132-2.6602-1.3705-5.7366-1.6973-8.6254-.91626-2.88872.78104-5.38128 2.61353-6.98844 5.13782-1.60717 2.52426-2.21288 5.55806-1.69826 8.50596-.64652.8501-1.20285 1.7651-1.66 2.7304-.09418.1985-.10561.4264-.03179.6334s.22685.3762.42543.4704.42643.1056.63344.0318c.20702-.0738.37622-.2269.4704-.4254.21836-.4596.4616-.9069.72864-1.34 1.03857 2.8076 3.08943 5.1254 5.74968 6.4981 2.6603 1.3727 5.7378 1.701 8.6278.9205 2.89-.7806 5.3837-2.6136 6.9912-5.1389s2.2127-5.5605 1.6965-8.5092c.6466-.85 1.2029-1.7651 1.66-2.7303.0479-.0991.0754-.2068.0808-.3167.0055-.1099-.0112-.2198-.0489-.3232zm-3.1692 5.4322c.0005 2.5252-.9233 4.9634-2.597 6.8543-1.6738 1.8909-3.9817 3.1038-6.4884 3.4099-2.5066.306-5.0386-.316-7.1182-1.7487-2.07951-1.4326-3.56276-3.5769-4.16984-6.0281 2.07962-2.3459 4.82554-4.0014 7.87104-4.7454 1.6837-.4572 3.4139-.7218 5.1574-.7889l-2.474 2.4773 1.1725 1.1726 4.4841-4.4891-5.1072-5.10887-1.1725 1.17252 3.1189 3.11555c-1.8836.0641-3.7536.3452-5.5728.8375-2.139.5619-4.16173 1.4976-5.97488 2.7638-.63658.4524-1.23745.953-1.79731 1.4975 0-.1306-.00838-.263-.00838-.3936.00602-2.5206.93268-4.9522 2.60573-6.83744 1.67305-1.88527 3.97724-3.09439 6.47924-3.39996 2.502-.30558 5.0294.31344 7.107 1.74065 2.0777 1.4272 3.5623 3.56425 4.1748 6.00935-2.074 2.3494-4.819 4.0057-7.8643 4.7453-1.6843.4573-3.4151.722-5.1591.7889l2.4707-2.4773-1.1726-1.1725-4.47901 4.4891 5.10711 5.1088 1.1725-1.1725-3.1155-3.1173c1.8836-.0643 3.7535-.3454 5.5728-.8375 2.1384-.5621 4.1606-1.4977 5.9732-2.7638.6365-.4524 1.2374-.9531 1.7973-1.4975.0034.1307.0067.263.0067.3954z" fill="#4155ff"/></svg>