<svg xmlns="http://www.w3.org/2000/svg" width="32" height="32" fill="none"><path fill="#fff" d="M16 32c8.837 0 16-7.163 16-16S24.837 0 16 0 0 7.163 0 16s7.163 16 16 16Z"/><path fill="#4155FF" d="M29.504 10.564a.838.838 0 0 0-.779-.552.837.837 0 0 0-.748.474c-.22.46-.464.907-.73 1.34A11.996 11.996 0 0 0 4.18 18.063a15.397 15.397 0 0 0-1.66 2.73.829.829 0 1 0 1.498.71c.218-.46.461-.907.728-1.34a11.995 11.995 0 0 0 23.065-6.23 15.388 15.388 0 0 0 1.66-2.73.82.82 0 0 0 .032-.64Zm-3.169 5.432a10.339 10.339 0 0 1-20.373 2.487 15.404 15.404 0 0 1 7.87-4.745 23.065 23.065 0 0 1 5.158-.79l-2.474 2.478L17.69 16.6l4.484-4.49-5.107-5.108-1.173 1.172 3.119 3.116a24.528 24.528 0 0 0-5.573.837 18.76 18.76 0 0 0-5.975 2.764c-.636.453-1.237.953-1.797 1.498 0-.13-.008-.263-.008-.394a10.338 10.338 0 0 1 20.366-2.487 15.31 15.31 0 0 1-7.864 4.745 23.064 23.064 0 0 1-5.16.789l2.472-2.477L14.3 15.39l-4.479 4.49 5.107 5.108 1.173-1.172-3.116-3.118a24.551 24.551 0 0 0 5.573-.837 18.76 18.76 0 0 0 5.973-2.764 15.26 15.26 0 0 0 1.797-1.498c.004.131.007.263.007.396Z"/></svg>