<svg fill="none" height="32" viewBox="0 0 32 32" width="32" xmlns="http://www.w3.org/2000/svg" xmlns:xlink="http://www.w3.org/1999/xlink"><linearGradient id="a" gradientUnits="userSpaceOnUse" x1="15.7097" x2="15.7097" y1="6" y2="26"><stop offset="0" stop-color="#681cff"/><stop offset="1" stop-color="#fd3f83"/></linearGradient><path d="m16 32c8.8366 0 16-7.1634 16-16 0-8.83656-7.1634-16-16-16-8.83656 0-16 7.16344-16 16 0 8.8366 7.16344 16 16 16z" fill="#fff"/><path clip-rule="evenodd" d="m14.5227 16.7088h.1866c.7735 0 1.5029-.1664 2.1874-.4995.6936-.3421 1.2983-.7742 1.8142-1.2963.5156-.5223.9202-1.103 1.2135-1.7421.3025-.6393.4537-1.2605.4537-1.8637 0-.4322-.0802-.8419-.2402-1.229-.151-.38715-.3958-.7246-.7336-1.01264-.329-.28831-.7559-.51799-1.2804-.68902-.5159-.17103-1.1339-.25654-1.8541-.25654-.8089 0-1.5072.07655-2.0938.22967-.5781.15311-1.0806.35103-1.5072.59427-.418.24298-.7738.52206-1.0671.83725-.2845.31491-.5336.63911-.7471.97221-.2045.3331-.3912.6572-.5601.9724-.1689.3149-.34667.5943-.53355.8373-.17778.2429-.3778.4411-.60008.5942s-.49792.2294-.82692.2294c-.44483 0-.77811-.1124-1.00039-.3374-.22228-.234-.33356-.5582-.33356-.9725 0-.3868.10216-.8057.30674-1.2558.21343-.4502.51133-.90027.89368-1.35038.39147-.45012.86687-.88232 1.42726-1.2966.56012-.42296 1.18702-.79218 1.88042-1.10737.7027-.32415 1.4675-.5807 2.2944-.76965.8269-.19819 1.7026-.297 2.6274-.297.9071 0 1.7739.117 2.6011.35102.8358.23402 1.5737.58504 2.214 1.05335.6403.45907 1.147 1.03977 1.5205 1.74209.3824.70205.5736 1.52134.5736 2.45774 0 .6301-.1156 1.2336-.3467 1.8097-.2226.5671-.5248 1.103-.9071 1.6071-.3824.4949-.8315.9543-1.3471 1.3773-.5068.4142-1.0492.7835-1.6273 1.1073-.5781.3242-1.1736.5989-1.7873.824-.6047.225-1.1916.3871-1.7606.4862.0799.423.2089.9002.3867 1.4315.1868.5221.4091 1.0219.6671 1.4989.2668.4683.5601.8687.8802 1.2018.3202.3331.658.5134 1.0136.5403.0713.0089.1378.0135.2003.0135h.1866c.6491 0 1.2269-.108 1.734-.3241.5068-.2161.9291-.4547 1.2669-.7156.4003-.2973.747-.6437 1.0403-1.0401.2759-.3149.5559-.4726.8406-.4726.1778 0 .329.063.4534.1892.1245.126.1867.297.1867.5131 0 .2071-.0668.4501-.2001.7292-.1244.2701-.3424.5535-.6537.8508-.9156.8734-1.8139 1.5124-2.6941 1.9177-.8715.3961-1.6984.5943-2.4808.5943-.6403 0-1.2315-.1849-1.7739-.5538-.5425-.3692-1.0361-.8687-1.4806-1.4991-.4446-.6301-.8492-1.3639-1.2139-2.2012-.3644-.8462-.6891-1.7375-.9736-2.6738-.16.3689-.3244.8058-.4933 1.3099-.1692.4952-.3513 1.0083-.547 1.5396-.1955.531-.4003 1.0577-.6135 1.58-.2134.5131-.4491.9768-.707 1.391-.258.4051-.5334.7336-.82695.9858-.29334.2519-.61349.3779-.96019.3779-.28475 0-.51587-.0448-.69364-.1349-.17777-.0902-.3156-.2025-.41347-.3375-.09786-.1352-.16891-.2837-.21342-.4457-.03566-.1621-.05336-.3152-.05336-.4591 0-.2072.02654-.4186.08016-.6347.05309-.2161.12872-.4187.22658-.6079l3.93479-7.2925c.3379-.6122.6757-1.2019 1.0136-1.769.3466-.5761.6802-1.0848 1.0003-1.526.329-.4411.6358-.7922.9205-1.0533.2934-.2701.5556-.4053.7867-.4053.0622 0 .1379.0135.2269.0404.0887.0182.1689.0586.2399.1216.0711.0541.1336.1396.1869.2566.0534.108.0799.2478.0799.4186 0 .1713-.0488.4097-.1466.7159-.0979.3062-.2269.6573-.3867 1.0533-.1603.3961-.3469.8327-.5604 1.3099-.2134.4681-.4357.95-.6668 1.4451.0534.009.1067.0133.1601.0133z" fill="url(#a)" fill-rule="evenodd"/></svg>