<svg xmlns="http://www.w3.org/2000/svg" width="32" height="32" fill="none"><defs><linearGradient id="reef__a" x1="15.71" x2="15.71" y1="6" y2="26" gradientUnits="userSpaceOnUse"><stop stop-color="#681CFF"/><stop offset="1" stop-color="#FD3F83"/></linearGradient></defs><path fill="#fff" d="M16 32c8.837 0 16-7.163 16-16S24.837 0 16 0 0 7.163 0 16s7.163 16 16 16Z"/><path fill="url(#reef__a)" fill-rule="evenodd" d="M14.523 16.709h.186a4.94 4.94 0 0 0 2.188-.5 6.68 6.68 0 0 0 1.814-1.296 6.076 6.076 0 0 0 1.213-1.742c.303-.64.454-1.26.454-1.864 0-.432-.08-.842-.24-1.229a2.527 2.527 0 0 0-.734-1.012c-.329-.289-.756-.518-1.28-.69-.516-.17-1.134-.256-1.854-.256-.81 0-1.507.077-2.094.23a6.286 6.286 0 0 0-1.507.594 4.605 4.605 0 0 0-1.067.837c-.285.315-.534.64-.747.972a19.15 19.15 0 0 0-.56.973 6.108 6.108 0 0 1-.534.837 2.515 2.515 0 0 1-.6.594c-.222.153-.498.23-.827.23-.445 0-.778-.113-1-.338-.223-.234-.334-.558-.334-.972 0-.387.102-.806.307-1.256.213-.45.511-.9.893-1.35.392-.45.867-.883 1.428-1.297a9.917 9.917 0 0 1 1.88-1.107 11.626 11.626 0 0 1 2.295-.77A11.242 11.242 0 0 1 16.43 6c.907 0 1.774.117 2.601.351a6.831 6.831 0 0 1 2.214 1.053c.64.46 1.147 1.04 1.52 1.742.383.703.574 1.522.574 2.458 0 .63-.115 1.234-.347 1.81a6.707 6.707 0 0 1-.907 1.607 8.528 8.528 0 0 1-1.347 1.377c-.507.415-1.049.784-1.627 1.108-.578.324-1.174.599-1.787.824a9.955 9.955 0 0 1-1.761.486c.08.423.209.9.387 1.431.187.522.409 1.022.667 1.5.267.468.56.868.88 1.201.32.333.658.513 1.014.54.07.01.137.014.2.014h.187c.649 0 1.226-.108 1.733-.324.507-.216.93-.455 1.267-.716.4-.297.747-.644 1.04-1.04.277-.315.557-.473.841-.473a.61.61 0 0 1 .454.19c.124.126.186.297.186.513 0 .207-.066.45-.2.729-.124.27-.342.553-.653.85-.916.874-1.814 1.513-2.694 1.918-.872.396-1.699.595-2.481.595a3.09 3.09 0 0 1-1.774-.554c-.543-.37-1.036-.869-1.48-1.5-.445-.63-.85-1.363-1.215-2.2a25.5 25.5 0 0 1-.973-2.674c-.16.369-.325.806-.494 1.31-.169.495-.35 1.008-.547 1.54-.195.53-.4 1.057-.613 1.58-.213.512-.45.976-.707 1.39a4.408 4.408 0 0 1-.827.986c-.293.252-.614.378-.96.378-.285 0-.516-.045-.694-.135a1.128 1.128 0 0 1-.413-.337 1.375 1.375 0 0 1-.214-.446 2.14 2.14 0 0 1-.053-.46c0-.206.026-.418.08-.634a2.73 2.73 0 0 1 .227-.608l3.934-7.292c.338-.613.676-1.202 1.014-1.77.347-.575.68-1.084 1-1.525a7.81 7.81 0 0 1 .92-1.054c.294-.27.556-.405.787-.405.063 0 .138.014.227.04a.512.512 0 0 1 .24.122c.071.054.134.14.187.257.054.108.08.248.08.418 0 .172-.049.41-.147.716a15.38 15.38 0 0 1-.386 1.053c-.16.397-.347.833-.56 1.31-.214.469-.436.95-.667 1.445a.96.96 0 0 0 .16.014Z" clip-rule="evenodd"/></svg>