<svg fill="none" height="32" viewBox="0 0 32 32" width="32" xmlns="http://www.w3.org/2000/svg"><path d="m16 32c8.8366 0 16-7.1634 16-16 0-8.83656-7.1634-16-16-16-8.83656 0-16 7.16344-16 16 0 8.8366 7.16344 16 16 16z" fill="#001c3a"/><path d="m9.44 9.754 1.564-.901.222.363 5.8-3.35-.427-.253-.428-.236-.205-.127-9.466 5.469v.236l2.718-1.565zm0 3.444 4.55-2.623.205.365 5.817-3.352-.426-.253-.427-.236-.207-.127-12.452 7.174v.253l2.718-1.564zm0 1.722 6.036-3.49.205.363 5.817-3.35-.426-.238-.43-.254-.204-.126-13.938 8.045v.25l2.718-1.578zm0 1.708 7.568-4.363.208.366 5.768-3.335-.429-.239-.426-.25-.205-.113-15.424 8.899v.236l2.718-1.564zm0 1.722 9.054-5.23.207.38 5.769-3.334-.43-.254-.408-.238-.222-.125-16.91 9.766v.236l2.718-1.564zm15.675-7.821-.22-.127-18.395 10.635v.236l2.718-1.564.222.363 9.054-5.23.207.364 6.73-3.871v-.616zm-17.445 11.789 1.517-.87.221.364 9.04-5.23.22.377 6.764-3.919v-1.216l-17.967 10.368zm10.778-4.014.22.38 6.764-3.92v-1.217l-16.482 9.513.204.127 1.55-.901.219.363zm-7.807 5.736 1.564-.9.204.38 6.04-3.494.218.363 6.765-3.902v-1.232l-14.998 8.659zm1.501.853 1.549-.884.204.363 4.553-2.624.22.363 6.764-3.902v-1.233l-13.512 7.807zm1.264.743.221.127 1.55-.902.204.38 3.067-1.77.22.365 6.764-3.905v-1.231zm1.707.979 1.55-.884.219.363 1.566-.916.22.38 6.764-3.905v-1.232l-10.526 6.085zm3.413-19.896-.426-.236-.427-.254-.221-.126-10.952 6.337v.236l2.718-1.564.222.363 3.064-1.768.208.363z" fill="#fff"/></svg>