<svg xmlns="http://www.w3.org/2000/svg" width="32" height="32" fill="none"><defs><clipPath id="rep__a"><path fill="#fff" d="M0 0h32v32H0z"/></clipPath></defs><g clip-path="url(#rep__a)"><path fill="#0E0E21" d="M16 32c8.837 0 16-7.163 16-16 0-8.836-7.163-16-16-16S0 7.165 0 16c0 8.837 7.163 16 16 16Z"/><path fill="#fff" d="m24.931 19.718-1.904-3.228a.244.244 0 0 0-.341-.081l-1.24.805a.25.25 0 0 0-.079.336l1.088 1.845a.125.125 0 0 1-.04.169l-6.35 4.125a.118.118 0 0 1-.131 0l-6.349-4.125a.127.127 0 0 1-.04-.169l1.089-1.845a.25.25 0 0 0-.079-.337l-1.24-.805a.243.243 0 0 0-.341.082L7.07 19.72a.5.5 0 0 0 .156.673l8.51 5.53a.484.484 0 0 0 .53 0l8.51-5.53a.504.504 0 0 0 .155-.674Z"/><path fill="#2AE7A8" d="m10.31 14.69 1.24.805a.243.243 0 0 0 .341-.081l4.004-6.787a.122.122 0 0 1 .21 0l4.003 6.787c.07.12.227.156.342.081l1.24-.805a.25.25 0 0 0 .078-.336l-4.784-8.112a.49.49 0 0 0-.42-.242h-1.128a.489.489 0 0 0-.421.242l-4.784 8.111a.25.25 0 0 0 .08.337Z"/></g></svg>