<svg fill="none" height="32" viewBox="0 0 32 32" width="32" xmlns="http://www.w3.org/2000/svg" xmlns:xlink="http://www.w3.org/1999/xlink"><clipPath id="a"><path d="m0 0h32v32h-32z"/></clipPath><g clip-path="url(#a)"><path d="m16 32.0005c8.8366 0 16-7.1634 16-16 0-8.83655-7.1634-15.99999646-16-15.99999646-8.83656 0-16 7.16344646-16 15.99999646 0 8.8366 7.16344 16 16 16z" fill="#0e0e21"/><path d="m24.9311 19.7185-1.9036-3.2284c-.0707-.12-.2269-.1566-.342-.0816l-1.2395.805c-.1118.0716-.1463.2216-.0789.3366l1.0883 1.845c.0345.0584.0164.1317-.0395.1684l-6.3504 4.125c-.0411.0266-.0921.0266-.1316 0l-6.34877-4.125c-.0559-.0367-.07233-.1117-.03946-.1684l1.08833-1.845c.0674-.115.0328-.265-.079-.3366l-1.23947-.805c-.11673-.075-.27123-.0384-.34193.0816l-1.90366 3.2284c-.13644.23-.0674.5283.15616.6733l8.5106 5.53c.1611.105.3682.105.5293 0l8.5106-5.53c.2203-.145.2893-.4433.1545-.6733z" fill="#fff"/><path d="m10.3101 14.6902 1.2395.805c.1167.075.2712.0383.3419-.0817l4.003-6.78667c.0476-.08.1627-.08.2104 0l4.0029 6.78667c.0707.12.2269.1567.342.0817l1.2395-.805c.1118-.0717.1463-.2217.0789-.3367l-4.7838-8.11167c-.0888-.15-.2483-.24166-.4209-.24166h-1.1277c-.1726 0-.3321.09166-.4208.24166l-4.7838 8.11167c-.0674.115-.0329.265.0789.3367z" fill="#2ae7a8"/></g></svg>