<svg xmlns="http://www.w3.org/2000/svg" width="32" height="32" fill="none"><path fill="#5F2652" d="M16 32c8.837 0 16-7.163 16-16S24.837 0 16 0 0 7.163 0 16s7.163 16 16 16Z"/><path fill="#fff" d="M19.87 15.302a4.058 4.058 0 0 0-1.16-1.718l-.201-.168-.011-.011a2.257 2.257 0 0 0-.201-.145l-.012-.011a3.44 3.44 0 0 0-.212-.134c-.01 0-.01-.011-.02-.011a1.93 1.93 0 0 0-.213-.112c-.011 0-.011-.011-.021-.011-.067-.034-.146-.067-.224-.1-.01 0-.01-.012-.021-.012-.067-.021-.134-.056-.201-.078a3.2 3.2 0 0 0-.559-.156 2.81 2.81 0 0 1-.569.736c.338.026.668.105.98.235.178.075.35.165.513.267a.786.786 0 0 1 .144.1c.022.012.04.027.056.045.04.026.077.056.112.09.021.02.044.033.067.055.033.034.067.056.1.09l.067.066.09.09.066.066c.023.033.05.062.078.09.022.021.045.056.067.078l.067.1a.422.422 0 0 1 .056.09l.067.1a.555.555 0 0 0 .056.09c.021.033.033.066.056.1.022.033.033.067.055.1.012.034.034.067.045.1.016.043.035.083.056.123.093.23.157.47.19.715l.1.39a3.572 3.572 0 0 0 1.384 2.076c1.071.558 2.488 1.25 3.046 1.517l-7.353 4.398v-3.013c0-.48.949-1.038 1.384-1.228l.021-.01c.09-.046.179-.09.268-.146l.034-.021c.19-.114.369-.245.535-.39.012-.012.034-.022.045-.046.021-.01.033-.033.056-.044.056-.045.1-.1.156-.145l.021-.022c.058-.054.11-.114.157-.178.01-.022.033-.034.044-.056.044-.05.085-.102.123-.156.011-.011.022-.034.034-.045l.134-.2c0-.012.01-.012.01-.022.056-.09.112-.19.168-.28a4.25 4.25 0 0 1-.524-.825 3.129 3.129 0 0 1-.212.48c-.034.067-.079.133-.112.2-.011.012-.011.022-.022.022a1.882 1.882 0 0 1-.111.156c-.011.011-.021.034-.034.045a.76.76 0 0 1-.122.145c-.011.01-.011.021-.022.021a3.107 3.107 0 0 1-.96.737l-.067.033c-.19.078-1.83.826-1.83 1.953v3.012L8.22 20.134a15.865 15.865 0 0 1 3.002-1.473c.447-.145 1.395.458 1.93.893l.034.033c.07.07.144.133.223.19l.022.021c.169.142.352.266.547.369l.133.067a3.862 3.862 0 0 0 .403.191c.022.011.034.011.056.021.011 0 .021.011.045.011.186.067.376.122.569.168.151-.276.347-.524.58-.737a3.12 3.12 0 0 1-.915-.2c-.011-.012-.034-.012-.045-.022a.395.395 0 0 1-.1-.045c-.012-.01-.034-.01-.045-.021a.679.679 0 0 1-.09-.045 3.184 3.184 0 0 1-.613-.39l-.29-.27a5.425 5.425 0 0 0-.87-.625 2.381 2.381 0 0 0-1.808-.401c-.956.34-1.875.773-2.745 1.294l7.354-13.211v5.791c0 .201-.301.737-1.317 1.194l-.067.034c-.1.044-.19.1-.29.156l-.022.011a4.462 4.462 0 0 0-.546.39 2.484 2.484 0 0 0-.301.29l-.011.012c-.1.096-.19.2-.27.311l-.011.011c-.044.056-.078.112-.123.168 0 .011-.01.011-.01.021-.034.056-.068.1-.101.157 0 .01-.011.01-.011.021l-.1.17c-.012.011-.012.022-.022.045-.034.056-.056.112-.079.156a.04.04 0 0 1-.01.022c-.022.056-.045.1-.067.156-.012.022-.012.034-.022.056l-.067.167c-.011.022-.011.034-.021.056a.552.552 0 0 1-.045.123c-.011.021-.011.044-.021.067-.012.055-.034.111-.045.156-.011.021-.011.056-.022.078-.01.034-.01.078-.021.112-.01.033-.011.067-.021.1-.012.045-.012.09-.022.134 0 .034-.011.056-.011.09 0 .044-.011.077-.011.122a.455.455 0 0 1-.011.123v.167c-.003.202.012.404.044.603.317.081.624.197.915.346a3.472 3.472 0 0 1-.145-.904v-.056a1.5 1.5 0 0 1 .011-.223v-.056a1.13 1.13 0 0 1 .022-.19v-.021l.033-.212c0-.022.012-.034.012-.056.01-.056.033-.111.044-.167 0-.011.011-.022.011-.034l.067-.2c.012-.012.012-.034.022-.045a1.87 1.87 0 0 1 .067-.156c.01-.012.01-.022.021-.045a.922.922 0 0 1 .1-.179c.012-.01.012-.021.022-.033.034-.056.056-.1.09-.156.01-.012.01-.022.02-.034a2.052 2.052 0 0 1 .127-.175.011.011 0 0 1 .007-.003l.124-.157c.01-.01.01-.021.021-.033.2-.223.43-.418.68-.58l.347-.167c.19-.078 1.819-.848 1.819-1.975V5.953l7.419 13.322a158.2 158.2 0 0 1-2.734-1.373c-.486-.4-.828-.95-.971-1.562l-.1-.402a2.139 2.139 0 0 0-.123-.636Zm5.021 4.196-8.18-14.675a.814.814 0 0 0-1.428 0l-8.18 14.675a.812.812 0 0 0 .29 1.093l8.191 4.898a.862.862 0 0 0 .849 0l8.18-4.886a.825.825 0 0 0 .278-1.105Z"/></svg>