<svg fill="none" height="32" viewBox="0 0 32 32" width="32" xmlns="http://www.w3.org/2000/svg"><path d="m16 32c8.8366 0 16-7.1634 16-16 0-8.83656-7.1634-16-16-16-8.83656 0-16 7.16344-16 16 0 8.8366 7.16344 16 16 16z" fill="#5f2652"/><path d="m19.8696 15.302c-.2313-.6636-.6311-1.2558-1.16-1.7185l-.2009-.1676-.0111-.011c-.0642-.052-.1313-.1005-.2009-.1452l-.0112-.0111c-.0668-.0447-.1338-.0892-.212-.1339-.0111 0-.0111-.0112-.0214-.0112-.0683-.0416-.1391-.0789-.212-.1117-.0112 0-.0112-.011-.0215-.011-.067-.0335-.1452-.067-.2232-.1005-.0112 0-.0112-.0112-.0215-.0112-.067-.0214-.134-.0558-.2009-.0782-.181-.0688-.368-.1211-.5585-.1561-.1476.2753-.3399.5242-.569.7366.3371.0252.6679.1043.98.2344.1776.0755.349.1648.5127.267.0082.0013.0157.0052.0215.0111.0437.0258.0848.0557.1227.0894.0212.0113.0401.0265.0558.0447.0399.0262.0772.056.1115.0891.0215.0215.0447.0335.067.0559.0335.0335.067.0558.1006.0893l.0668.0668.0893.0894.067.0668c.0231.0322.0492.0621.078.0894.0215.0215.0447.0558.067.0782l.067.1003c.0222.0274.0409.0574.0557.0894l.067.1003c.0157.0315.0344.0614.0558.0894.0215.0335.0335.067.0557.1003.0221.0333.0335.067.0558.1005.0112.0335.0335.067.0447.1003.0161.0421.0348.0831.0558.1229.0932.2291.1569.4691.1897.7143l.1004.3905c.1969.8357.6881 1.5725 1.3838 2.0756 1.0713.5585 2.4885 1.2498 3.0464 1.5177l-7.353 4.3973v-3.013c0-.4799.9486-1.0378 1.3838-1.2275l.0215-.0111c.0891-.0447.1785-.0894.2677-.145l.0335-.0215c.19-.1138.3693-.2445.5357-.3905.0112-.0112.0333-.0215.0445-.0447.0215-.0112.0335-.0335.0558-.0447.0559-.0447.1006-.1003.1562-.145l.0215-.0215c.0579-.0542.1103-.114.1564-.1785.011-.0215.0333-.0335.0445-.0559.0436-.0499.0846-.102.1228-.1561.0112-.0112.0215-.0336.0335-.0447l.1339-.2009c0-.0111.0112-.0111.0112-.0215.0558-.0893.1114-.1896.1673-.2792-.206-.2542-.382-.5313-.5244-.8258-.0571.1656-.128.3261-.212.4799-.0335.067-.0782.1339-.1117.2009-.0112.0111-.0112.0215-.0215.0215-.0345.0539-.0717.106-.1115.1561-.0111.0112-.0214.0335-.0335.0447-.0347.0533-.076.102-.1228.145-.011.0112-.011.0215-.0215.0215-.2686.3061-.5947.5563-.9598.7366l-.067.0335c-.1897.078-1.83.8258-1.83 1.9527v3.0124l-7.36497-4.3854c.94595-.5954 1.95217-1.0891 3.00187-1.473.4464-.1452 1.3948.4576 1.9306.8928l.0333.0333c.0692.0691.1438.1326.2232.1899l.0215.0215c.1688.1417.3521.2652.5469.3684l.1338.0668c.0082.0013.0157.0052.0215.0111.1237.0669.2509.127.3811.18.0215.0112.0335.0112.0558.0215.0112 0 .0215.0112.0447.0112.1865.0661.3765.122.569.1676.1517-.2757.3476-.5246.58-.7367-.3133-.0205-.6218-.0882-.9149-.2008-.0111-.0112-.0335-.0112-.0447-.0215-.0354-.0101-.0692-.0252-.1005-.0447-.0112-.0111-.0335-.0111-.0447-.0215-.0307-.0126-.0605-.0274-.0891-.0444-.2189-.1064-.4248-.2375-.6138-.3908l-.29-.2694c-.2688-.2365-.5603-.4458-.8704-.6249-.2592-.1843-.5527-.3149-.8632-.3839s-.6316-.0752-.9445-.018c-.9554.3402-1.87486.7738-2.74513 1.2945l7.35393-13.21138v5.79148c0 .2009-.3008.7367-1.3169 1.1942l-.0668.0333c-.1005.0445-.1899.1003-.2902.1562l-.0215.0112c-.1918.1162-.3745.2468-.5467.3905-.1082.0881-.2088.1852-.3007.2902l-.0112.0112c-.0988.0957-.1889.2-.2694.3115l-.0112.0111c-.0444.0559-.078.1115-.1226.1674 0 .0112-.0112.0112-.0112.0215-.0335.0558-.067.1005-.1005.1561 0 .0112-.011.0112-.011.0215l-.1005.1702c-.0112.0111-.0112.0214-.0215.0446-.0335.0559-.0559.1118-.0782.1564-.0013.0082-.0052.0157-.011.0215-.0215.0559-.0447.1006-.067.1564-.0112.0215-.0112.0335-.0215.0556l-.067.1676c-.0112.0215-.0112.0333-.0215.0556-.0099.0426-.0248.0839-.0444.1229-.0112.0215-.0112.0447-.0215.0668-.0112.0559-.0335.1117-.0447.1564-.0112.0215-.0112.0557-.0215.078-.0111.0335-.0111.0782-.0215.1117-.0103.0335-.0111.067-.0214.1003-.0112.0447-.0112.0894-.0215.134 0 .0335-.0112.0557-.0112.0892 0 .0447-.0112.0782-.0112.1229.0019.0412-.0019.0824-.0111.1226v.1674c-.0022.2018.0127.4034.0446.6027.3169.0813.6238.1973.9152.3459-.088-.2936-.1368-.5976-.145-.904v-.0558c-.0019-.0746.0019-.1492.0111-.2232v-.0556c.0018-.0637.009-.1272.0215-.1897v-.0215c.0112-.067.0215-.134.0335-.212 0-.0215.0112-.0335.0112-.0558.0112-.0559.0335-.1115.0447-.1674 0-.0111.0112-.0215.0112-.0335l.067-.2008c.0111-.0112.0111-.0335.0214-.0447.0215-.0559.0445-.1115.0668-.1562.0112-.0112.0112-.0215.0215-.0447.0268-.063.0605-.1229.1006-.1785.0111-.0112.0111-.0215.0214-.0335.0333-.0559.0557-.1003.0892-.1562.0112-.0111.0112-.0215.0215-.0335.0372-.0584.0782-.1143.1226-.1673 0-.0029.0011-.0057.0031-.0078s.0048-.0033.0077-.0034h.0004c.0447-.0559.0782-.1005.1229-.1562.0111-.0111.0111-.0215.0215-.0335.2004-.2224.4293-.4174.6807-.58l.3459-.1673c.1897-.078 1.8189-.8481 1.8189-1.975v-5.75726l7.419 13.32136c-.6585-.3237-1.83-.904-2.734-1.3727-.4861-.4003-.8271-.9491-.9708-1.5622l-.1005-.4017c-.0084-.217-.0497-.4315-.1227-.6361zm5.0216 4.1959-8.1796-14.6745c-.07-.12834-.1733-.23547-.299-.3101-.1257-.07464-.2691-.11402-.4153-.11402s-.2897.03938-.4154.11402c-.1257.07463-.2289.18176-.2989.3101l-8.17965 14.6745c-.10335.1842-.13085.4015-.07667.6057.05419.2041.18579.3792.36689.4879l8.19083 4.8979c.1294.0731.2755.1115.424.1115.1486 0 .2947-.0384.4241-.1115l8.1797-4.8867c.1797-.1129.309-.2907.361-.4964.052-.2058.0227-.4237-.0818-.6084z" fill="#fff"/></svg>