<svg xmlns="http://www.w3.org/2000/svg" width="32" height="32" fill="none"><path fill="#00261B" d="M16 32c8.837 0 16-7.163 16-16S24.837 0 16 0 0 7.163 0 16s7.163 16 16 16Z"/><path fill="#008C62" d="m19.23 17.234 5.016-5.001a1.994 1.994 0 0 0 .587-1.417l.008-4.042a.809.809 0 0 0-.224-.557l-9.624 9.603a1.995 1.995 0 0 0-.013 2.82l.013.013 6.786 6.765a1.998 1.998 0 1 0 2.819-2.833l-5.369-5.35Z"/><path fill="#00E6A0" d="M24.056 6H8.94a2.092 2.092 0 0 0-2.125 2.184v15.772a2.007 2.007 0 0 0 2.034 2.033 1.999 1.999 0 0 0 2.033-2.032V9.89h10.056l3.683-3.664A.771.771 0 0 0 24.056 6Z"/></svg>