<svg width="32" height="32" fill="none" xmlns="http://www.w3.org/2000/svg"><g clip-path="url(#a)"><path d="M16 0a16 16 0 1 0 0 32 16 16 0 0 0 0-32Zm10.5 26.5A14.848 14.848 0 1 1 5.5 5.5 14.848 14.848 0 0 1 26.5 26.5Z" fill="url(#b)"/><path d="M16 3.456a12.544 12.544 0 1 0 0 25.088 12.544 12.544 0 0 0 0-25.088Zm0 23.936A11.392 11.392 0 1 1 27.392 16 11.405 11.405 0 0 1 16 27.392Z" fill="url(#c)"/><path d="M16 6.432a9.568 9.568 0 1 0 0 19.136 9.568 9.568 0 0 0 0-19.136Zm0 17.984A8.417 8.417 0 1 1 24.416 16 8.425 8.425 0 0 1 16 24.416Z" fill="url(#d)"/></g><defs><linearGradient id="b" x1="0" y1="16" x2="32" y2="16" gradientUnits="userSpaceOnUse"><stop stop-color="#F7F7F7"/><stop offset=".5" stop-color="gray"/><stop offset=".75" stop-color="#494949"/><stop offset=".79" stop-color="#3F3F3F"/><stop offset="1" stop-color="#101010"/></linearGradient><linearGradient id="c" x1="3.456" y1="16" x2="28.544" y2="16" gradientUnits="userSpaceOnUse"><stop stop-color="#101010"/><stop offset=".21" stop-color="#3F3F3F"/><stop offset=".25" stop-color="#494949"/><stop offset=".5" stop-color="gray"/><stop offset="1" stop-color="#F7F7F7"/></linearGradient><linearGradient id="d" x1="6.432" y1="16" x2="25.568" y2="16" gradientUnits="userSpaceOnUse"><stop stop-color="#F7F7F7"/><stop offset=".5" stop-color="gray"/><stop offset=".75" stop-color="#494949"/><stop offset=".79" stop-color="#3F3F3F"/><stop offset="1" stop-color="#101010"/></linearGradient><clipPath id="a"><path fill="#fff" d="M0 0h32v32H0z"/></clipPath></defs></svg>