<svg fill="none" height="32" viewBox="0 0 32 32" width="32" xmlns="http://www.w3.org/2000/svg" xmlns:xlink="http://www.w3.org/1999/xlink"><linearGradient id="a"><stop offset="0" stop-color="#f7f7f7"/><stop offset=".5" stop-color="#808080"/><stop offset=".75" stop-color="#494949"/><stop offset=".7901" stop-color="#3f3f3f"/><stop offset="1" stop-color="#101010"/></linearGradient><linearGradient id="b" gradientUnits="userSpaceOnUse" x1=".000007" x2="32" xlink:href="#a" y1="16" y2="16"/><linearGradient id="c" gradientUnits="userSpaceOnUse" x1="3.45606" x2="28.5441" y1="16" y2="16"><stop offset="0" stop-color="#101010"/><stop offset=".2099" stop-color="#3f3f3f"/><stop offset=".25" stop-color="#494949"/><stop offset=".5" stop-color="#808080"/><stop offset="1" stop-color="#f7f7f7"/></linearGradient><linearGradient id="d" gradientUnits="userSpaceOnUse" x1="6.43189" x2="25.5679" xlink:href="#a" y1="16" y2="16"/><clipPath id="e"><path d="m0 0h32v32h-32z"/></clipPath><g clip-path="url(#e)"><path d="m16 0c-3.1645 0-6.25793.938384-8.88912 2.69649-2.63118 1.7581-4.68194 4.25696-5.89295 7.18057-1.2109975 2.92364-1.527851 6.14064-.910487 9.24434.617363 3.1037 2.141217 5.9547 4.378857 8.1923s5.08857 3.7615 8.1923 4.3789c3.1037.6173 6.3207.3005 9.2443-.9105 2.9237-1.211 5.4225-3.2618 7.1806-5.893s2.6965-5.7246 2.6965-8.8891c0-4.2435-1.6857-8.31313-4.6863-11.31371s-7.0702-4.68629-11.3137-4.68629zm10.4991 26.4991c-2.7845 2.7846-6.5612 4.3489-10.4991 4.3489s-7.71458-1.5643-10.49912-4.3489c-2.78454-2.7845-4.34888-6.5612-4.34888-10.4991s1.56434-7.71459 4.34888-10.49913 6.56122-4.34888 10.49912-4.34888 7.7146 1.56434 10.4991 4.34888c2.7846 2.78454 4.3489 6.56123 4.3489 10.49913s-1.5643 7.7146-4.3489 10.4991z" fill="url(#b)"/><path d="m16.0001 3.45599c-2.481 0-4.9063.7357-6.96911 2.11405-2.06285 1.37835-3.67065 3.33746-4.62007 5.62956-.94943 2.2921-1.19784 4.8143-.71383 7.2476s1.67871 4.6684 3.43302 6.4227c1.75431 1.7544 3.98939 2.9491 6.42269 3.4331s4.9555.2356 7.2476-.7139c2.2922-.9494 4.2513-2.5572 5.6296-4.62 1.3784-2.0629 2.1141-4.4881 2.1141-6.9691 0-3.3269-1.3216-6.5175-3.6741-8.86995-2.3524-2.35246-5.5431-3.67406-8.8699-3.67406zm0 23.93601c-2.2532 0-4.4557-.6681-6.3291-1.9199s-3.33354-3.031-4.19578-5.1126c-.86223-2.0816-1.08783-4.3721-.64827-6.582.43957-2.2098 1.52455-4.23967 3.11775-5.83287s3.6231-2.67818 5.8329-3.11774 4.5004-.21397 6.582.64827c2.0816.86223 3.8608 2.32237 5.1126 4.19578 1.2517 1.87336 1.9199 4.07596 1.9199 6.32906-.0035 3.0203-1.2048 5.9159-3.3405 8.0516-2.1356 2.1357-5.0312 3.337-8.0515 3.3404z" fill="url(#c)"/><path d="m15.9999 6.43201c-1.8924 0-3.7423.56115-5.3157 1.6125-1.57346 1.05134-2.79981 2.54569-3.52399 4.29399s-.91366 3.6721-.54447 5.5281c.36918 1.856 1.28044 3.5609 2.61855 4.899s3.04301 2.2494 4.89901 2.6186c1.856.3691 3.7798.1797 5.5281-.5445s3.2426-1.9505 4.294-3.524c1.0513-1.5734 1.6125-3.4233 1.6125-5.3157 0-1.2565-.2475-2.5007-.7283-3.6615-.4809-1.1609-1.1856-2.2156-2.0741-3.10409-.8885-.88847-1.9433-1.59325-3.1041-2.07408-1.1608-.48084-2.405-.72832-3.6615-.72832zm0 17.98399c-1.6645 0-3.2917-.4936-4.6757-1.4183-1.38399-.9248-2.46269-2.2392-3.09968-3.777-.63699-1.5379-.80365-3.23-.47892-4.8626.32473-1.6325 1.12628-3.1321 2.3033-4.3091 1.177-1.177 2.6766-1.97855 4.3091-2.30328 1.6326-.32474 3.3247-.15807 4.8626.47892 1.5378.63698 2.8522 1.71568 3.7769 3.09966.9248 1.384 1.4184 3.0112 1.4184 4.6757-.0025 2.2313-.89 4.3705-2.4678 5.9482-1.5777 1.5778-3.7169 2.4653-5.9482 2.4678z" fill="url(#d)"/></g></svg>