<svg width="32" height="32" fill="none" xmlns="http://www.w3.org/2000/svg"><path d="M16 32c8.837 0 16-7.163 16-16S24.837 0 16 0 0 7.163 0 16s7.163 16 16 16Z" fill="#fff"/><path d="M21.1 10.1H19.35v5.099H21.1v-5.1ZM24.086 13.45h-1.748V15.2h1.748V13.45ZM18.55 22.265H16.8v1.748h1.749v-1.748ZM9.662 16.801H7.914v1.749h1.748V16.8ZM12.649 16.801h-1.748v5.1h1.748v-5.1ZM15.563 18.113h-1.748v7.139h1.748v-7.14ZM18.113 6.748h-1.676v7.14h1.675v-7.14ZM6.748 16.801H5v1.749h1.748V16.8ZM21.9 19.351h-5.099v1.748h5.1v-1.748ZM18.55 25.252H16.8V27h1.749v-1.748ZM15.199 7.914H13.45v1.748H15.2V7.914ZM15.199 5H13.45v1.748H15.2V5ZM27 13.45h-1.748V15.2H27V13.45ZM13.887 13.815H6.676v1.748h7.211v-1.748ZM25.252 16.437h-7.14v1.676h7.14v-1.676ZM15.199 10.9h-5.1v1.749h5.1v-1.748Z" fill="#149DD9"/></svg>