<svg fill="none" height="32" viewBox="0 0 32 32" width="32" xmlns="http://www.w3.org/2000/svg"><path d="m16 32c8.8366 0 16-7.1634 16-16 0-8.83656-7.1634-16-16-16-8.83656 0-16 7.16344-16 16 0 8.8366 7.16344 16 16 16z" fill="#fff"/><g fill="#149dd9"><path d="m21.0994 10.0993h-1.7483v5.0994h1.7483z"/><path d="m24.086 13.4503h-1.7484v1.7484h1.7484z"/><path d="m18.5496 22.2649h-1.7483v1.7483h1.7483z"/><path d="m9.66216 16.8013h-1.74834v1.7484h1.74834z"/><path d="m12.649 16.8013h-1.7484v5.0994h1.7484z"/><path d="m15.5628 18.1126h-1.7483v7.139h1.7483z"/><path d="m18.1125 6.74834h-1.6755v7.13906h1.6755z"/><path d="m6.74834 16.8013h-1.74834v1.7484h1.74834z"/><path d="m21.9006 19.351h-5.0993v1.7483h5.0993z"/><path d="m18.5496 25.2517h-1.7483v1.7483h1.7483z"/><path d="m15.1988 7.91391h-1.7484v1.74834h1.7484z"/><path d="m15.1988 5h-1.7484v1.74834h1.7484z"/><path d="m27 13.4503h-1.7483v1.7484h1.7483z"/><path d="m13.8875 13.8146h-7.21196v1.7483h7.21196z"/><path d="m25.2516 16.4371h-7.1391v1.6755h7.1391z"/><path d="m15.1987 10.9007h-5.0993v1.7483h5.0993z"/></g></svg>