<svg xmlns="http://www.w3.org/2000/svg" width="32" height="32" fill="none"><path fill="#fff" d="M16 32c8.837 0 16-7.163 16-16S24.837 0 16 0 0 7.163 0 16s7.163 16 16 16Z"/><path fill="#149DD9" d="M21.1 10.1h-1.75v5.099h1.75v-5.1Zm2.986 3.35h-1.748v1.75h1.748v-1.75Zm-5.536 8.815H16.8v1.748h1.749v-1.748Zm-8.888-5.464H7.914v1.749h1.748V16.8Zm2.987 0h-1.748v5.1h1.748v-5.1Zm2.914 1.312h-1.748v7.139h1.748v-7.14Zm2.55-11.365h-1.676v7.14h1.675v-7.14ZM6.748 16.801H5v1.749h1.748V16.8Zm15.152 2.55h-5.099v1.748h5.1v-1.748Zm-3.35 5.901H16.8V27h1.749v-1.748ZM15.199 7.914H13.45v1.748h1.75V7.914Zm0-2.914H13.45v1.748h1.75V5ZM27 13.45h-1.748v1.75H27v-1.75Zm-13.113.365H6.676v1.748h7.211v-1.748Zm11.365 2.622h-7.14v1.676h7.14v-1.676ZM15.199 10.9h-5.1v1.749h5.1v-1.748Z"/></svg>