<svg width="32" height="32" fill="none" xmlns="http://www.w3.org/2000/svg"><g clip-path="url(#a)"><path d="M16.148 32a16 16 0 1 1 6.143-1.289A14.547 14.547 0 0 1 16.148 32Z" fill="url(#b)"/><path d="M16.149 4.954A11.12 11.12 0 0 0 4.954 16.148a11.195 11.195 0 1 0 19.12-7.925 11.008 11.008 0 0 0-7.925-3.269Z" fill="#000"/><path d="M12.88 23.182a1.981 1.981 0 0 1 0-3.962c.382.005.757.107 1.089.297.1.099.198.099.396.099.14.015.28-.02.396-.1a.834.834 0 0 0 .397-.693 1.908 1.908 0 0 1 1.783-2.08h.198a2.26 2.26 0 0 1 1.09.297c.099.1.198.1.396.1.14.014.28-.021.396-.1a.833.833 0 0 0 .397-.693 1.908 1.908 0 0 1 1.783-2.08h.198a1.981 1.981 0 1 1 0 3.962 2.257 2.257 0 0 1-1.09-.297c-.099-.1-.198-.1-.396-.1a.596.596 0 0 0-.396.1.834.834 0 0 0-.396.693v.297a2.003 2.003 0 0 1-1.784 1.784h-.198a2.259 2.259 0 0 1-1.09-.298c-.099-.099-.198-.099-.396-.099a.596.596 0 0 0-.396.1.834.834 0 0 0-.396.693v.297a1.918 1.918 0 0 1-1.784 1.783h-.198Z" fill="url(#c)"/><path d="M12.88 18.229a1.987 1.987 0 0 1-1.982-1.981 2.027 2.027 0 0 1 1.783-1.982h.198c.383.005.758.108 1.09.297.1.1.198.1.396.1.14.014.28-.02.396-.1a.834.834 0 0 0 .397-.693 1.908 1.908 0 0 1 1.783-2.08h.198a1.987 1.987 0 0 1 1.982 1.981 2.027 2.027 0 0 1-1.784 1.981h-.198a2.259 2.259 0 0 1-1.09-.297c-.099-.099-.198-.099-.396-.099a.596.596 0 0 0-.396.1.834.834 0 0 0-.396.692v.298a1.918 1.918 0 0 1-1.784 1.783h-.198Z" fill="url(#d)"/><path d="M12.88 13.276a1.981 1.981 0 1 0 0-3.963 1.981 1.981 0 0 0 0 3.963Z" fill="url(#e)"/></g><defs><linearGradient id="b" x1=".35" y1="31.928" x2="19.055" y2="13.224" gradientUnits="userSpaceOnUse"><stop stop-color="#F9C300"/><stop offset="1" stop-color="#F2E900"/></linearGradient><linearGradient id="c" x1="156.607" y1="213.467" x2="211.625" y2="133.651" gradientUnits="userSpaceOnUse"><stop stop-color="#F9C300"/><stop offset="1" stop-color="#F2E900"/></linearGradient><linearGradient id="d" x1="82.321" y1="137.651" x2="123.222" y2="83.522" gradientUnits="userSpaceOnUse"><stop stop-color="#F9C300"/><stop offset="1" stop-color="#F2E900"/></linearGradient><linearGradient id="e" x1="33.482" y1="76.101" x2="59.63" y2="49.006" gradientUnits="userSpaceOnUse"><stop stop-color="#F9C300"/><stop offset="1" stop-color="#F2E900"/></linearGradient><clipPath id="a"><path fill="#fff" d="M0 0h32v32H0z"/></clipPath></defs></svg>