<svg fill="none" height="32" viewBox="0 0 32 32" width="32" xmlns="http://www.w3.org/2000/svg" xmlns:xlink="http://www.w3.org/1999/xlink"><linearGradient id="a"><stop offset="0" stop-color="#f9c300"/><stop offset="1" stop-color="#f2e900"/></linearGradient><linearGradient id="b" gradientUnits="userSpaceOnUse" x1=".350408" x2="19.0545" xlink:href="#a" y1="31.9284" y2="13.2244"/><linearGradient id="c" gradientUnits="userSpaceOnUse" x1="156.607" x2="211.625" xlink:href="#a" y1="213.467" y2="133.651"/><linearGradient id="d" gradientUnits="userSpaceOnUse" x1="82.3208" x2="123.222" xlink:href="#a" y1="137.651" y2="83.5221"/><linearGradient id="e" gradientUnits="userSpaceOnUse" x1="33.4822" x2="59.6302" xlink:href="#a" y1="76.1011" y2="49.0056"/><clipPath id="f"><path d="m0 0h32v32h-32z"/></clipPath><g clip-path="url(#f)"><path d="m16.1485 31.9992c-3.9703.0368-7.81247-1.4038-10.77974-4.042s-4.847603-6.2855-5.2755256-10.2329c-.4279224-3.9473.6271426-7.91278 2.9601156-11.12557 2.33298-3.21278 5.77719-5.44336 9.66315-6.258164 3.886-.814803 7.9361-.15562 11.3632 1.849424 3.427 2.00504 5.9861 5.21269 7.1799 8.99951 1.1937 3.7868.9368 7.8821-.7207 11.4901-1.6576 3.6079-4.5975 6.4706-8.2482 8.0317-1.9293.8711-4.0255 1.3106-6.1422 1.2879z" fill="url(#b)"/><path d="m16.1486 4.95405c-1.4728-.00986-2.933.27296-4.2956.83204-1.3626.55909-2.60061 1.38329-3.64209 2.42477-1.04147 1.04147-1.86568 2.27944-2.42476 3.64214-.55908 1.3626-.84191 2.8227-.83204 4.2955.00316 1.8396.4596 3.65 1.32895 5.2712s2.12482 3.0031 3.65536 4.0236c1.53058 1.0205 3.28898 1.6481 5.11978 1.8273s3.6776-.0956 5.3769-.8c1.6994-.7044 3.199-1.8167 4.3661-3.2386 1.1672-1.4218 1.966-3.1094 2.3257-4.9135.3598-1.804.2694-3.6689-.2631-5.4297s-1.4907-3.36322-2.7899-4.66556c-1.0352-1.04734-2.27-1.87633-3.6313-2.43787s-2.8215-.84423-4.294-.83132z" fill="#000"/><path d="m12.8793 23.1823c-.5255 0-1.0295-.2088-1.401-.5804-.3716-.3715-.5804-.8755-.5804-1.401s.2088-1.0294.5804-1.401c.3715-.3716.8755-.5803 1.401-.5803.3825.0051.7575.1074 1.0897.2972.0991.0991.1981.0991.3963.0991.1396.0147.28-.0204.3962-.0991.1188-.0732.2174-.1751.2866-.2962.0692-.1212.1069-.2578.1097-.3973-.0236-.2545.0041-.5111.0816-.7547.0775-.2435.2031-.469.3694-.6631.1664-.1941.37-.3527.5988-.4665.2289-.1138.4783-.1805.7334-.1961h.1981c.3826.0052.7576.1075 1.0898.2972.099.0991.1981.0991.3962.0991.1397.0147.28-.0204.3963-.0991.1188-.0732.2173-.175.2865-.2962.0693-.1211.107-.2577.1098-.3972-.0237-.2545.0041-.5112.0815-.7547.0775-.2436.2031-.4691.3695-.6632.1663-.194.37-.3527.5988-.4665s.4782-.1805.7333-.196h.1982c.5255 0 1.0294.2087 1.401.5803s.5803.8755.5803 1.401-.2087 1.0294-.5803 1.401-.8755.5803-1.401.5803c-.3826-.0051-.7575-.1074-1.0897-.2972-.0991-.099-.1982-.099-.3963-.099-.1397-.0147-.28.0203-.3963.099-.1188.0732-.2173.1751-.2865.2962-.0693.1212-.107.2578-.1097.3973v.2972c-.0479.4566-.2511.8829-.5757 1.2075-.3247.3246-.751.5279-1.2075.5757h-.1982c-.3825-.0052-.7575-.1074-1.0897-.2972-.0991-.0991-.1981-.0991-.3963-.0991-.1396-.0147-.2799.0204-.3962.0991-.1188.0732-.2173.175-.2866.2962-.0692.1212-.1069.2577-.1097.3973v.2972c-.0314.4625-.2294.8981-.5572 1.2259-.3279.3278-.7634.5258-1.226.5573z" fill="url(#c)"/><path d="m12.8793 18.2289c-.525-.0015-1.0281-.2107-1.3993-.582-.3713-.3712-.5805-.8743-.5821-1.3993.0075-.49.1923-.9607.5201-1.325.3279-.3643.7766-.5974 1.2631-.6563h.1982c.3825.0051.7575.1074 1.0897.2972.0991.099.1981.0991.3963.0991.1396.0147.28-.0204.3962-.0991.1188-.0732.2174-.1751.2866-.2962.0692-.1212.1069-.2578.1097-.3973-.0236-.2545.0041-.5111.0816-.7547.0775-.2435.2031-.469.3694-.6631.1664-.1941.37-.3527.5988-.4665.2289-.1139.4783-.1805.7334-.1961h.1981c.525.0016 1.0281.2108 1.3993.582.3713.3713.5805.8743.5821 1.3994-.0075.49-.1923.9607-.5201 1.325-.3279.3642-.7766.5974-1.2631.6563h-.1982c-.3825-.0052-.7575-.1074-1.0897-.2972-.0991-.0991-.1981-.0991-.3963-.0991-.1396-.0147-.2799.0204-.3962.0991-.1188.0732-.2173.175-.2866.2962-.0692.1211-.1069.2577-.1097.3972v.2972c-.0314.4626-.2294.8981-.5572 1.226-.3279.3278-.7634.5258-1.226.5572z" fill="url(#d)"/><path d="m12.8793 13.2756c1.0942 0 1.9813-.887 1.9813-1.9813s-.8871-1.98133-1.9813-1.98133c-1.0943 0-1.9814.88703-1.9814 1.98133s.8871 1.9813 1.9814 1.9813z" fill="url(#e)"/></g></svg>