<svg xmlns="http://www.w3.org/2000/svg" width="32" height="32" fill="none"><defs><clipPath id="rose__a"><path fill="#fff" d="M0 0h32v32H0z"/></clipPath></defs><g clip-path="url(#rose__a)"><path fill="#0093FF" fill-rule="evenodd" d="M28.78 6.317c-2.425-3.104-5.99-5.069-9.932-5.069-7.616 0-13.19 7.078-13.19 14.752 0 5.35 3.552 9.35 7.494 9.35.371 0 .736-.032 1.094-.102-2.643-1.926-4.332-5.44-4.332-9.248 0-6.067 4.102-10.79 8.94-10.79 5.274 0 8.941 5.235 8.941 10.79-.013 4.102-1.478 8.18-4.051 11.194-2.246 2.624-5.158 4.294-8.352 4.819 0 0 .269.019.614.019 8.852 0 16.032-7.18 16.032-16.032a16.022 16.022 0 0 0-3.257-9.683ZM26.343 16c0-5.35-3.552-9.35-7.494-9.35-.371 0-.736.032-1.094.102 2.643 1.926 4.332 5.44 4.332 9.248 0 6.067-4.102 10.79-8.934 10.79-5.274 0-8.94-5.235-8.94-10.79.012-4.102 1.478-8.18 4.05-11.194C10.51 2.182 13.421.512 16.614-.013c0 0-.268-.019-.614-.019C7.149-.032-.032 7.148-.032 16c0 3.635 1.21 6.989 3.251 9.683 2.426 3.104 5.99 5.069 9.933 5.069 7.616 0 13.19-7.078 13.19-14.752Z" clip-rule="evenodd"/></g></svg>