<svg xmlns="http://www.w3.org/2000/svg" width="32" height="32" fill="none"><path fill="#000" d="M16 32c8.837 0 16-7.163 16-16S24.837 0 16 0 0 7.163 0 16s7.163 16 16 16Z"/><path fill="#FEFEFE" d="M23.37 18.332c.005-.24-.067-.328-.318-.324-.835.014-1.67 0-2.506.01-.236.002-.338-.062-.331-.316.014-.568-.014-2.807-.014-3.358 0-.343.005-.348.338-.348.845 0 1.689-.004 2.533.003.215.002.302-.07.298-.295a53.027 53.027 0 0 1-.008-1.945c.003-.231-.067-.313-.303-.31-.8.012-1.6.005-2.4.005-.404 0-.403 0-.405-.392-.005-1.004-.018-2.007-.012-3.011.002-.25-.086-.322-.327-.317-.657.013-1.315.013-1.973 0-.231-.005-.309.066-.305.302.014 1.013.01 2.026.013 3.04.001.377 0 .377-.366.377-.747 0-1.493.007-2.24-.001-.775-.01-.666.143-.687-.703-.023-.915-.014-1.83-.01-2.746.001-.194-.063-.27-.261-.268-.684.008-1.369.008-2.053 0-.203-.002-.262.087-.26.275.01 1.04.009 2.079.023 3.118.004.237-.064.334-.316.33-.835-.012-1.671.005-2.506-.01-.266-.005-.338.093-.332.343.013.621.014 1.244 0 1.866-.007.255.076.347.334.343.835-.011 1.67 0 2.506-.007.217-.002.298.07.296.292-.005 1.138-.004 2.275.01 3.413.004.247-.075.323-.32.32-.834-.012-1.67.003-2.505-.01-.25-.003-.324.09-.321.328.008.63.011 1.262-.011 1.892-.01.27.087.335.336.332.826-.01 1.653.005 2.48-.01.26-.003.357.063.352.342-.019 1.03-.009 2.062-.018 3.093-.002.205.067.284.278.28a65.16 65.16 0 0 1 2.026.002c.23.003.312-.064.308-.304-.017-1.021-.018-2.043-.022-3.064-.001-.324.02-.343.349-.343.87 0 1.742.007 2.613-.004.239-.003.327.06.323.314-.016 1.04-.008 2.08-.018 3.12-.002.204.063.284.276.28.658-.01 1.316-.003 1.973-.004.358 0 .369-.009.367-.38-.004-1.013-.006-2.026-.02-3.038-.004-.221.07-.295.29-.292.845.01 1.69 0 2.534.007.227.002.316-.072.312-.308a50.75 50.75 0 0 1 0-1.92Zm-6.013-.314a96.427 96.427 0 0 0-2.613 0c-.248.003-.328-.087-.324-.326.011-.569-.007-2.825-.018-3.385-.004-.223.057-.319.3-.315.888.011 1.777.01 2.666 0 .22-.002.295.074.295.295-.002 1.137.004 2.274.018 3.411.003.247-.08.323-.324.32Z"/></svg>