<svg fill="none" height="32" viewBox="0 0 32 32" width="32" xmlns="http://www.w3.org/2000/svg"><path d="m16 32c8.8366 0 16-7.1634 16-16 0-8.83656-7.1634-16-16-16-8.83656 0-16 7.16344-16 16 0 8.8366 7.16344 16 16 16z" fill="#000"/><path d="m23.3701 18.3317c.0048-.2405-.067-.3276-.3181-.3234-.8352.0138-1.6708-.0011-2.5061.0092-.2358.0029-.3379-.061-.3313-.3152.0146-.5683-.0136-2.8076-.0132-3.3585.0003-.3425.0045-.3473.338-.3475.8443-.0006 1.6886-.0042 2.5329.0026.2146.0017.3019-.0701.2973-.2945-.0135-.6484-.0183-1.2973-.008-1.9457.0036-.2311-.0667-.313-.303-.3096-.7997.0115-1.5996.0044-2.3995.0044-.4042 0-.4028-.0001-.4047-.3913-.005-1.0038-.0183-2.00766-.0122-3.01141.0016-.25069-.0862-.322-.3271-.31726-.6574.01306-1.315.01306-1.9728 0-.2317-.00451-.309.06634-.3057.30294.0141 1.01283.0111 2.02593.0135 3.03883.0009.3772-.0006.378-.3662.3781-.7465.0002-1.4931.0069-2.2396-.0018-.7749-.009-.6662.143-.6872-.7029-.0228-.91486-.0142-1.83057-.0099-2.74584.0009-.19436-.0627-.27-.2613-.26777-.6842.00758-1.3685.00763-2.0529.00016-.2026-.00214-.2617.08666-.2599.27432.01 1.03957.0086 2.07923.0232 3.11873.0033.237-.0639.3336-.3165.3298-.8352-.0123-1.67091.0046-2.50606-.01-.26567-.0047-.33753.0925-.33222.3425.0132.6218.01425 1.2444-.00045 1.8662-.006.2549.077.347.335.3435.83526-.0113 1.67083.0006 2.50613-.0075.217-.0021.2973.0696.2963.2925-.0053 1.1375-.0043 2.275.0101 3.4124.0032.2475-.0756.3238-.3197.3203-.8352-.0118-1.67087.0033-2.5061-.0093-.25051-.0038-.324.0889-.32083.3271.00848.6307.01151 1.2622-.01142 1.8924-.00982.2695.08778.3353.33628.332.82639-.0109 1.65317.0047 2.47947-.0093.2611-.0044.3576.0619.3525.3414-.0188 1.0305-.0087 2.0615-.0182 3.0922-.0018.2058.0674.2843.2783.2813.6753-.0093 1.351-.0108 2.0262.0007.2294.0039.3119-.0632.3078-.3034-.0173-1.0213-.0174-2.0428-.0218-3.0643-.0013-.324.0195-.3424.3488-.3426.871-.0004 1.742.0067 2.6128-.0046.239-.0031.3271.0602.3231.3148-.0163 1.0395-.008 2.0794-.0175 3.119-.0018.2048.063.2842.2762.2808.6575-.0105 1.3153-.0037 1.973-.0039.3578-.0001.3685-.0093.3668-.3803-.0047-1.0127-.0064-2.0255-.0208-3.038-.0032-.2212.0698-.2945.2913-.2919.8442.01 1.6886-.0009 2.5328.0072.2269.0022.3168-.0718.3124-.3082-.0121-.6396-.012-1.2794.0001-1.9194zm-6.0135-.3136c-.8708-.0118-1.7417-.0118-2.6128 0-.2482.0034-.328-.0868-.3234-.326.011-.5686-.0073-2.8256-.0182-3.3849-.0043-.2229.0564-.3188.2994-.3156.8886.0116 1.7776.0097 2.6662.001.2204-.0022.2955.0737.295.2941-.0021 1.1372.0039 2.2745.018 3.4117.0034.2467-.0804.323-.3241.3197z" fill="#fefefe"/></svg>