<svg fill="none" height="32" viewBox="0 0 32 32" width="32" xmlns="http://www.w3.org/2000/svg" xmlns:xlink="http://www.w3.org/1999/xlink"><linearGradient id="a" gradientUnits="userSpaceOnUse" x1="0" x2="32" y1="32" y2="0"><stop offset="0" stop-color="#0cf"/><stop offset="1" stop-color="#3f9"/></linearGradient><clipPath id="b"><path d="m0 0h32v32h-32z"/></clipPath><g clip-path="url(#b)"><path d="m15.9998 31.3846c8.4967 0 15.3847-6.8879 15.3847-15.3846 0-8.49669-6.888-15.384613-15.3847-15.384613-8.49664 0-15.384566 6.887923-15.384566 15.384613 0 8.4967 6.887926 15.3846 15.384566 15.3846z" fill="#000b12"/><path d="m16 0c8.8366 0 16 7.16344 16 16 0 8.8366-7.1634 16-16 16-8.83656 0-16-7.1634-16-16 0-8.83656 7.16344-16 16-16zm0 1.23077c-8.15682 0-14.76923 6.61241-14.76923 14.76923 0 8.1568 6.61241 14.7692 14.76923 14.7692 8.1568 0 14.7692-6.6124 14.7692-14.7692 0-8.15682-6.6124-14.76923-14.7692-14.76923z" fill="url(#a)"/><path clip-rule="evenodd" d="m14.3822 23.7453h-2.0092v-15.99997h2.0092l5.1428 2.91107v2.1997l-1.8344 3.1519 2.9263 7.7373h-2.1401l-2.9045-7.8468 2.2494-3.9179-3.4395-1.948z" fill="#28f4ae" fill-rule="evenodd"/></g></svg>