<svg width="32" height="32" fill="none" xmlns="http://www.w3.org/2000/svg"><g clip-path="url(#a)"><path d="M16 31.385c8.497 0 15.384-6.888 15.384-15.385S24.497.615 16 .615.615 7.503.615 16 7.503 31.385 16 31.385Z" fill="#000B12"/><path d="M16 0c8.837 0 16 7.163 16 16s-7.163 16-16 16S0 24.837 0 16 7.163 0 16 0Zm0 1.23C7.843 1.23 1.23 7.844 1.23 16S7.844 30.77 16 30.77 30.77 24.156 30.77 16 24.156 1.23 16 1.23Z" fill="url(#b)"/><path fill-rule="evenodd" clip-rule="evenodd" d="M14.382 23.745h-2.009v-16h2.01l5.142 2.911v2.2l-1.834 3.152 2.926 7.737h-2.14l-2.905-7.847 2.25-3.917-3.44-1.948v13.712Z" fill="#28F4AE"/></g><defs><linearGradient id="b" x1="0" y1="32" x2="32" y2="0" gradientUnits="userSpaceOnUse"><stop stop-color="#0CF"/><stop offset="1" stop-color="#3F9"/></linearGradient><clipPath id="a"><path fill="#fff" d="M0 0h32v32H0z"/></clipPath></defs></svg>