<svg xmlns="http://www.w3.org/2000/svg" width="32" height="32" fill="none"><path fill="#fff" d="M16 32c8.837 0 16-7.163 16-16S24.837 0 16 0 0 7.163 0 16s7.163 16 16 16Z"/><path fill="#384182" d="M14.305 24.474 8 29l4.002-18.418 2.303 13.892Zm.127-.043 3.84.05-6.12-13.828 2.28 13.778Zm4.2-.305 2.94-10.895-1.112-1.36-1.827 12.255ZM17.217 7.047l-4.838 3.259 7.07-2.288-2.232-.97Zm-.61 0-3.003.1-.439 1.253 3.443-1.353Z"/><path fill="#F79534" d="m20.248 11.453-7.743-1.062 6.978-2.196.765 3.258ZM18.413 7.36l.425-1.155-2.231-.97 1.806 2.125Zm.645-1.268.503 1.813 2.975-.786-3.478-1.027Z"/><path fill="#F0513A" d="m18.442 24.41-6.206-13.885 8.09 1.134-1.884 12.75Zm-1.46-17.363-3.825 1.495-.92 1.7 4.745-3.195ZM14.61 5.914l-.956 1.055 3.173-.078-2.217-.977Zm1.672-.822-1.516.701 3.457 1.523-1.941-2.224ZM18.009 5H16.38l2.522.978L18.009 5Zm.943 1.296-.39 1.162.78.376-.39-1.538Z"/></svg>