<svg fill="none" height="32" viewBox="0 0 32 32" width="32" xmlns="http://www.w3.org/2000/svg"><path d="m16 32c8.8366 0 16-7.1634 16-16 0-8.83656-7.1634-16-16-16-8.83656 0-16 7.16344-16 16 0 8.8366 7.16344 16 16 16z" fill="#fff"/><path clip-rule="evenodd" d="m11.1572 5.4728-.7025-.49917-.69327.5143.25797-.8227-.70251-.49997.86221-.00926.2579-.82267.2748.81763.8622-.00923-.6916.51427z" fill="#d3a809" fill-rule="evenodd"/><path clip-rule="evenodd" d="m22.2889 5.4728-.7033-.49917-.6933.5143.258-.8227-.7025-.49997.8622-.00926.258-.82267.2747.81763.8622-.00923-.6924.51427z" fill="#d3a809" fill-rule="evenodd"/><path d="m26.1469 15.9204c-1.2857-1.9999-2.2991-4.3764-.0386-6.03933.0169-.0106.0312-.0248.042-.0416.0107-.01683.0176-.0358.02-.0556.0025-.01977.0006-.03987-.0056-.05883-.0063-.01894-.0166-.03627-.0304-.0507l-3.494-3.76547c-.0208-.0201-.0474-.03297-.076-.03677-.0286-.00377-.0576.00173-.0829.01573-3.9075 2.11257-9.0376 2.18484-12.93504 0-.0251-.01423-.05413-.01996-.08277-.01633-.02863.00363-.0553.01643-.07606.0365l-3.4974 3.7697c-.01377.01444-.02414.03177-.03037.0507-.00623.01897-.00817.03904-.00567.05884.00247.0198.00934.03876.0201.05559.01074.0168.02507.03101.04197.04157 2.41593 1.7765 1.0773 4.2856-.23277 6.3537-1.25206 1.9806-1.3067 4.3696-.38906 6.4889.7042 1.6244 2.14366 2.6706 3.79573 3.184 1.18824.3698 2.44954.3051 3.65284.6017 1.2177.3 2.2622.979 3.1798 1.8117.025.0237.0581.0368.0925.0368.0343 0 .0674-.0131.0924-.0368 1.5966-1.4529 3.2814-1.9041 5.3781-2.126 1.3714-.1454 2.673-.6218 3.7511-1.4865 2.6588-2.1328 2.5891-6.1167.9067-8.7881" fill="#fff"/><g fill="#231f20"><path d="m25.7712 16.1751c-1.9512-2.9546-2.0179-5.1008-.2-6.43853l-3.089-3.32853-.3588.19496c-1.6874.87787-3.7235 1.31847-6.1083 1.32184-2.3848.00333-4.424-.43727-6.11754-1.32184-.11934-.0647-.2395-.1294-.3538-.19496l-3.09154 3.32853c1.81624 1.33773 1.75124 3.48393-.19493 6.43853-1.1972 1.8056-1.4773 3.6918-.84033 5.6587.7983 2.465 2.71646 3.7941 5.75454 3.9873 1.8958.1177 3.5103.7829 4.8436 1.9958 1.3316-1.2129 2.9434-1.8781 4.8352-1.9958 3.0397-.1944 4.9579-1.5235 5.7545-3.9873.6336-1.9663.3558-3.8526-.8336-5.6587zm-3.6974-5.5394.9832-.6193v.9479l-.9832.6436zm-15.50141 5.7436c1.98093-2.9994 2.12743-5.2274.4395-6.68393l2.605-2.81423c.0353.01933.06973.0395.10503.05463 1.74168.90923 3.83948 1.36553 6.29318 1.36887 1.6764 0 3.189-.21427 4.5251-.63864l-14.28544 9.2435c.09496-.1748.20503-.3554.31933-.5294zm.3311 7.3024c-.2909-.3174-.5392-.6714-.73863-1.0529l.73863-.4748zm.31427-3.2142v-.8698l1.14283-.7092v.4647c-.02017.1807.0353.2353.16807.1605l.81846-.5496v-.8336c-.03946-.084-.15963-.0891-.35376-.0143l-1.01847.6488c-.2395.168-.42017.2521-.5437.2344-.1235-.0176-.1899-.1151-.20923-.3092l-.00587-1.2824c-.02943-.1798.08403-.3495.33613-.5142l2.43694-1.5126c.10904-.0388.22834-.0371.33614.005.0643.0492.1088.1199.1252.1992v.7092l-1.09831.6782v-.274c-.02523-.1092-.10503-.1252-.22943-.0546l-.5294.3361c-.0749.0431-.1408.1001-.1941.1681-.0164.0228-.02797.0487-.03404.0762-.00606.0274-.0065.0558-.00126.0834v.374c.02016.1151.07983.1596.18486.1202l1.09664-.6597c.35884-.1681.62854-.1134.80334.1403l.0151 1.1925c.0042.3647-.0949.6083-.3092.7243l-2.47391 1.5882c-.3143.1504-.4689.0412-.4647-.3235zm3.73604 4.9545c-.691-.0548-1.37208-.1992-2.02598-.4294v-4.152l2.02598-1.3067zm1.1185-7.4402-.9832.6487v-.968l.9832-.6194zm2.9294 8.6032c-.631-.3777-1.311-.6664-2.021-.858v-7.5066l2.0252-1.3067zm1.2025-14.2334-.7286.4748-.2143-.1059-.8184.5446v.784l.6579-.3798v-.2765l.5647-.3891v1.542l-.6143.4084v-.4983l-.5932.3832v.9243l.6033-.389v.7134l-2.2756 1.4386-.01-.6991.4638-.3151v-2.4529l-.479.289v-.7436l3.4454-2.2361zm.2697 1.837.9832-.6193v.9436l-.9832.6437zm2.5832 11.5384c-.7125.1914-1.3945.4819-2.0261.863v-10.9888l2.0261-1.3076zm-.3597-11.9628c-.2992.1597-.4739.0605-.5286-.3092v-2.9496c.0195-.1961.109-.3787.2521-.51423l2.6403-1.7462c.179-.084.2992-.0546.3546.08403v.90757l-1.0285.68317v-.15967c-.0101-.1252-.0899-.1294-.2395-.01007l-.6891.5092c-.052.056-.0834.128-.089.2042l.0243 1.5076c-.0037.0803.0098.1605.0395.2353.0303.0487.0841.0546.1605.0151l.6488-.4345v-.8672l1.1764-.7134v1.3622c-.0438.2822-.1854.54-.4.7285zm4.4075 11.2292c-.6555.2314-1.3382.3771-2.0311.4336v-12.446l2.0319-1.3075zm3.1436-3.2772c-.2296.7242-.6106 1.3913-1.1176 1.9571v-7.8032c.0992.168.2092.3361.3244.5092 1.1266 1.707 1.391 3.4868.7932 5.3394"/><path d="m11.0337 8.11473c-.6269.00157-1.22765.2513-1.67095.69457-.44327.4433-.693 1.04406-.69453 1.671-.0046.3113.0546.6203.17396.9079.1194.2876.2964.5477.52014.7643.03023.0244.0605.0555.0899.0798.42686.4031.99448.6233 1.58148.6135.4672-.0002.9239-.1389 1.3124-.3985s.6913-.6285.8702-1.0601c.179-.4316.226-.9065.1351-1.3648-.0908-.45837-.3154-.87947-.6454-1.2102-.2159-.22467-.4759-.40237-.7636-.52197-.2878-.11957-.5971-.17847-.9087-.17297zm.0059.2269c.2355.00043.4694.03787.6933.11093.0019.00177.0034.004.0043.0065s.0011.00517.0007.00777c.5739 1.02267.6235 1.90167.1681 2.62517-.0051-.005-.0152-.005-.0252-.0092.1151-.9983-.1992-1.9126-.953-2.7353.0382-.0049.0767-.00687.1152-.00587zm.916 2.99487c-.0079.0323-.0252.0616-.0496.0841-.0141.0208-.0311.0394-.0504.0554-.0515.0433-.1105.0769-.174.0992-.0767.0286-.1576.044-.2395.0454-.0093-.0047-.0198-.0068-.0302-.0059-.0222-.0012-.0438-.0077-.063-.0189-.0191-.0113-.0353-.027-.0471-.0458-.0075-.0196-.0091-.0409-.0046-.0613.0045-.0205.0148-.0392.0298-.0538.0026-.0025.0043-.0058.005-.0093h.0051c.0613-.0711.1405-.1245.2294-.1546.0588-.0248.1212-.0398.1849-.0445.028-.0006.0561.0008.084.0042.0317.004.0622.0143.0899.0302.0108.0106.0207.0221.0294.0345v.0058c.003.0113.003.0232 0 .0345zm-1.3135-2.96127c.7992.8143 1.1227 1.71767.9941 2.71597-.0432.0083-.0852.0218-.1252.0403-.0909.0302-.1742.0795-.2445.1445-1.1204-.2-1.67618-.9899-1.66722-2.36967.28967-.27313.65162-.45743 1.04282-.5311zm-1.73692 2.10077c-.00703-.4862.15954-.95904.46974-1.33354.0504 1.33784.63868 2.11814 1.76468 2.34114-.7386.1849-1.46218.0294-2.17055-.4739-.04537-.1742-.0674-.3537-.06557-.5337zm.6277 1.5126c-.18506-.1808-.3357-.3938-.44453-.6285.6941.4142 1.39325.5285 2.10675.3437.0151.0058.0243.0151.0453.0252-.3756.3142-.9386.4092-1.68735.2739-.0077-.0032-.01457-.0081-.02017-.0143zm1.77222.6135c-.084.0058-.1756.01-.2647.0151-.4008.0021-.7938-.1104-1.13272-.3244.72832.0504 1.26692-.1241 1.61592-.5235v-.0059c.0282-.0008.0563-.0039.0841-.0092.0344.3546-.0647.6386-.2992.8479zm1.2454-.6135c-.2461.2512-.5516.4361-.8882.5378.1496-.2344.1991-.5134.1588-.8529.0162-.0063.0315-.0147.0454-.0252.1971.1699.4373.2822.6941.3244l-.0151.0151zm.205-.2353c-.2629.0022-.518-.0896-.7193-.2588.0102-.0125.0187-.0264.0252-.0412.4885-.0644.8594-.3588 1.1126-.8831-.0121.4287-.1591.8428-.4201 1.1831zm.3471-1.6075c-.2095.619-.5487.9787-1.0176 1.079.489-.7336.4789-1.6126-.0252-2.6252.1781.0992.3411.22343.484.3689.3025.28986.5079.66613.5882 1.0773-.0101.0303-.0202.0655-.0302.1"/></g></svg>