<svg xmlns="http://www.w3.org/2000/svg" width="32" height="32" fill="none"><path fill="#fff" d="M16 32c8.837 0 16-7.163 16-16S24.837 0 16 0 0 7.163 0 16s7.163 16 16 16Z"/><path fill="#D3A809" fill-rule="evenodd" d="m11.157 5.473-.702-.5-.694.515.258-.823-.702-.5.862-.009.258-.823.275.818.862-.01-.692.515.275.817Zm11.132 0-.703-.5-.694.515.258-.823-.702-.5.862-.009.258-.823.275.818.862-.01-.692.515.276.817Z" clip-rule="evenodd"/><path fill="#fff" d="M26.147 15.92c-1.286-2-2.3-4.376-.039-6.039a.136.136 0 0 0 .057-.156.135.135 0 0 0-.03-.05L22.64 5.908a.135.135 0 0 0-.159-.021c-3.907 2.112-9.037 2.185-12.935 0a.134.134 0 0 0-.158.02L5.89 9.678a.134.134 0 0 0 .026.206c2.416 1.777 1.077 4.286-.233 6.354-1.252 1.98-1.306 4.37-.389 6.489.705 1.624 2.144 2.67 3.796 3.184 1.188.37 2.45.305 3.653.602 1.218.3 2.262.979 3.18 1.811a.134.134 0 0 0 .185 0c1.596-1.453 3.281-1.904 5.378-2.126 1.371-.145 2.673-.621 3.75-1.486 2.66-2.133 2.59-6.117.907-8.788"/><path fill="#231F20" d="M25.771 16.175c-1.951-2.955-2.018-5.1-.2-6.438l-3.089-3.329-.359.195c-1.687.878-3.723 1.318-6.108 1.322-2.385.003-4.424-.437-6.117-1.322-.12-.065-.24-.13-.354-.195L6.452 9.737c1.816 1.337 1.751 3.483-.195 6.438-1.197 1.806-1.477 3.692-.84 5.659.798 2.465 2.716 3.794 5.755 3.987 1.895.118 3.51.783 4.843 1.996 1.332-1.213 2.944-1.878 4.835-1.996 3.04-.194 4.958-1.523 5.755-3.987.633-1.966.356-3.853-.834-5.659Zm-3.697-5.54.983-.619v.948l-.983.644v-.972ZM6.572 16.38c1.981-3 2.128-5.227.44-6.684l2.605-2.814c.035.02.07.04.105.055 1.742.909 3.84 1.365 6.293 1.369 1.677 0 3.19-.215 4.525-.639L6.255 16.91c.095-.175.205-.356.32-.53h-.003Zm.331 7.303a4.958 4.958 0 0 1-.738-1.053l.738-.475v1.528Zm.315-3.214v-.87l1.143-.71v.465c-.02.18.035.235.168.16l.818-.549v-.833c-.04-.084-.16-.09-.354-.015l-1.018.649c-.24.168-.42.252-.544.234-.123-.017-.19-.115-.209-.309l-.006-1.282c-.03-.18.084-.35.336-.514L9.99 15.38a.48.48 0 0 1 .336.005c.065.05.11.12.126.2v.708l-1.099.679v-.274c-.025-.11-.105-.126-.23-.055l-.529.336a.673.673 0 0 0-.194.168.207.207 0 0 0-.035.16v.374c.02.115.08.16.185.12l1.096-.66c.36-.168.629-.113.804.14l.015 1.193c.004.365-.095.608-.31.724l-2.473 1.589c-.315.15-.47.04-.465-.324l.002.004Zm3.736 4.954a8.008 8.008 0 0 1-2.026-.43v-4.151l2.026-1.307v5.888Zm1.118-7.44-.983.649v-.968l.983-.62v.939Zm2.93 8.603a7.986 7.986 0 0 0-2.021-.858V18.22l2.025-1.306-.004 9.671Zm1.202-14.233-.728.474-.215-.106-.818.545v.784l.658-.38v-.276l.564-.39v1.543l-.614.408v-.498l-.593.383v.924l.603-.389v.714l-2.275 1.438-.01-.699.463-.315V14.06l-.479.29v-.744l3.446-2.237-.002.984Zm.27 1.837.983-.62v.944l-.983.644v-.968Zm2.583 11.538a7.878 7.878 0 0 0-2.026.863v-10.99l2.026-1.307v11.433Zm-.36-11.963c-.299.16-.473.06-.528-.309v-2.95a.82.82 0 0 1 .252-.514l2.64-1.746c.18-.084.3-.055.355.084v.908l-1.029.683v-.16c-.01-.125-.09-.13-.24-.01l-.688.51a.336.336 0 0 0-.09.203l.025 1.508c-.004.08.01.16.04.235.03.049.084.055.16.015l.649-.434v-.867l1.176-.714v1.363c-.044.282-.185.54-.4.728l-2.322 1.467Zm4.408 11.23a8.072 8.072 0 0 1-2.031.433V12.981l2.032-1.307-.001 13.32Zm3.143-3.278a5.36 5.36 0 0 1-1.117 1.957V15.87c.1.168.21.336.324.51 1.127 1.706 1.391 3.486.794 5.339"/><path fill="#231F20" d="M11.034 8.115a2.372 2.372 0 0 0-2.366 2.365 2.28 2.28 0 0 0 .694 1.672c.03.025.06.056.09.08a2.25 2.25 0 0 0 1.582.614 2.364 2.364 0 0 0 1.672-4.034 2.265 2.265 0 0 0-1.672-.695v-.002Zm.006.227c.235 0 .469.037.693.11a.016.016 0 0 1 .005.014c.574 1.024.623 1.902.168 2.626-.005-.005-.015-.005-.025-.01.115-.998-.2-1.912-.953-2.735a.752.752 0 0 1 .115-.005h-.003Zm.916 2.994a.17.17 0 0 1-.05.085.266.266 0 0 1-.05.055.557.557 0 0 1-.174.1.72.72 0 0 1-.24.045.056.056 0 0 0-.03-.006.14.14 0 0 1-.11-.065.107.107 0 0 1 .025-.115.018.018 0 0 0 .005-.01h.005a.525.525 0 0 1 .23-.154.587.587 0 0 1 .184-.045.59.59 0 0 1 .084.005.241.241 0 0 1 .09.03c.011.01.021.022.03.034v.006a.067.067 0 0 1 0 .035Zm-1.314-2.96c.8.814 1.123 1.717.994 2.715a.541.541 0 0 0-.125.04.672.672 0 0 0-.244.145c-1.12-.2-1.677-.99-1.668-2.37.29-.273.652-.457 1.043-.53Zm-1.737 2.1c-.007-.486.16-.959.47-1.334.05 1.338.639 2.119 1.765 2.342-.739.184-1.463.029-2.171-.474a2.036 2.036 0 0 1-.066-.534h.002Zm.628 1.513a2.133 2.133 0 0 1-.445-.629c.694.414 1.394.529 2.107.344.015.006.024.015.045.025-.375.314-.938.41-1.687.274a.056.056 0 0 1-.02-.014Zm1.772.613c-.084.006-.175.01-.265.015a2.1 2.1 0 0 1-1.132-.324c.728.05 1.267-.124 1.616-.524v-.006a.53.53 0 0 0 .084-.009c.034.355-.065.639-.3.848h-.003Zm1.245-.613a2.09 2.09 0 0 1-.888.537c.15-.234.2-.513.16-.852a.189.189 0 0 0 .045-.026c.197.17.437.283.694.325l-.015.015h.005Zm.205-.236a1.104 1.104 0 0 1-.719-.258.18.18 0 0 0 .025-.042c.489-.064.86-.358 1.113-.883-.012.429-.16.843-.42 1.183h.002Zm.348-1.607c-.21.619-.55.978-1.018 1.079.489-.734.479-1.613-.025-2.625.178.099.34.223.484.369.302.29.508.666.588 1.077l-.03.1"/></svg>