<svg xmlns="http://www.w3.org/2000/svg" width="32" height="32" fill="none"><defs><clipPath id="sbtc__a"><path fill="#fff" d="M0 0h32v32H0z"/></clipPath></defs><g clip-path="url(#sbtc__a)"><path fill="#4E4294" d="M9.779 23.498A9.746 9.746 0 0 1 16 6.248h12.682a15.999 15.999 0 0 0-26.816 17.25H9.78Z"/><path fill="#4E4294" d="M30.135 8.498h-7.912a9.743 9.743 0 0 1-5.972 17.244v.006H3.32a16 16 0 0 0 26.816-17.25Z"/><path fill="#fff" d="M3.331 25.748h12.92v-.006a9.743 9.743 0 0 0 5.973-17.244h7.89a16.196 16.196 0 0 0-1.45-2.25H16a9.746 9.746 0 0 0-6.222 17.25H1.87c.423.79.912 1.543 1.461 2.25Z"/><path fill="#F08619" d="M16.001 23.498a7.5 7.5 0 1 0 0-15 7.5 7.5 0 0 0 0 15Z"/><path fill="#fff" d="M19.007 15.943a1.994 1.994 0 0 0 .619-1.445 2.069 2.069 0 0 0-2-2h-5.25v7h5.375a1.96 1.96 0 0 0 1.874-1.99 1.917 1.917 0 0 0-.618-1.565Zm-1.631 1.93h-2.75a.5.5 0 0 1 0-1h2.75a.5.5 0 0 1 0 1Zm0-2.75h-2.75a.5.5 0 0 1 0-1h2.75a.5.5 0 0 1 0 1Z"/></g></svg>