<svg fill="none" height="32" viewBox="0 0 32 32" width="32" xmlns="http://www.w3.org/2000/svg" xmlns:xlink="http://www.w3.org/1999/xlink"><clipPath id="a"><path d="m0 0h32v32h-32z"/></clipPath><g clip-path="url(#a)"><path d="m9.77863 23.4984c-1.54428-1.2796-2.65618-3.0045-3.18403-4.9393-.52784-1.9348-.44592-3.9853.23458-5.8719.68051-1.8865 1.92647-3.51718 3.56792-4.6695 1.6414-1.15232 3.5984-1.77019 5.6039-1.7693h12.6823c-2.4449-3.18015-5.9952-5.325828-9.9474-6.011871s-8.018.137614-11.39157 2.307761c-3.37361 2.17015-5.8089 5.52842-6.823306 9.40941-1.014409 3.8809-.5339148 8.0013 1.346276 11.5447z" fill="#4e4294"/><path d="m30.1349 8.49838h-7.9114c1.5279 1.2657 2.6329 2.96762 3.1674 4.87832s.473 3.939-.1763 5.8137c-.6494 1.8748-1.8555 3.5066-3.4573 4.6774-1.6017 1.1708-3.5227 1.8247-5.5061 1.8742v.0064h-12.93235c2.44487 3.1801 5.99518 5.3258 9.94745 6.0119 3.9522.686 8.0179-.1376 11.3916-2.3078 3.3736-2.1701 5.8089-5.5284 6.8233-9.4094 1.0144-3.8809.5339-8.0013-1.3463-11.54472z" fill="#4e4294"/><path d="m3.33118 25.7484h12.92022v-.0064c1.9834-.0495 3.9044-.7034 5.5062-1.8742 1.6017-1.1708 2.8079-2.8026 3.4572-4.6774.6493-1.8747.7109-3.903.1764-5.8137s-1.6396-3.61262-3.1674-4.87832h7.891c-.4207-.78875-.906-1.54132-1.4509-2.25h-12.6625c-2.0055-.00088-3.9625.61698-5.6039 1.7693-1.64144 1.15233-2.8874 2.78302-3.56791 4.66952-.6805 1.8866-.76242 3.9371-.23457 5.8719s1.63976 3.6597 3.18404 4.9393h-7.90894c.42329.7895.91203 1.5421 1.46106 2.25z" fill="#fff"/><path d="m16.001 23.4984c4.1421 0 7.5-3.3579 7.5-7.5 0-4.1422-3.3579-7.50002-7.5-7.50002-4.1422 0-7.50002 3.35782-7.50002 7.50002 0 4.1421 3.35782 7.5 7.50002 7.5z" fill="#f08619"/><path d="m19.0069 15.9429c.1957-.1862.3515-.4103.458-.6586.1064-.2484.1612-.5157.1611-.7859-.0171-.525-.2334-1.0238-.6048-1.3953-.3714-.3714-.8702-.5876-1.3952-.6047h-5.25v7h5.375c.5103-.022.9919-.2425 1.342-.6144.3501-.372.5411-.8659.5323-1.3767.0227-.2906-.0212-.5826-.1283-.8537-.1072-.2711-.2748-.5142-.4901-.7107zm-1.6309 1.9305h-2.75c-.1326 0-.2598-.0527-.3536-.1465-.0937-.0937-.1464-.2209-.1464-.3535s.0527-.2598.1464-.3536c.0938-.0937.221-.1464.3536-.1464h2.75c.1326 0 .2598.0527.3535.1464.0938.0938.1465.221.1465.3536s-.0527.2598-.1465.3535c-.0937.0938-.2209.1465-.3535.1465zm0-2.75h-2.75c-.1326 0-.2598-.0527-.3536-.1465-.0937-.0937-.1464-.2209-.1464-.3535s.0527-.2598.1464-.3536c.0938-.0937.221-.1464.3536-.1464h2.75c.1326 0 .2598.0527.3535.1464.0938.0938.1465.221.1465.3536s-.0527.2598-.1465.3535c-.0937.0938-.2209.1465-.3535.1465z" fill="#fff"/></g></svg>