<svg fill="none" height="32" viewBox="0 0 32 32" width="32" xmlns="http://www.w3.org/2000/svg"><g clip-rule="evenodd" fill-rule="evenodd"><path d="m31.7534 15.9901c0 8.7059-7.0574 15.7633-15.7633 15.7633-8.70593 0-15.763293-7.0574-15.763293-15.7633 0-8.70593 7.057363-15.763293 15.763293-15.763293 8.7059 0 15.7633 7.057363 15.7633 15.763293z" fill="#fff"/><path d="m15.8068.00115852c-3.1942.03603098-6.16611 1.01409148-8.65139 2.66778148l.58503.74087c2.41506-1.58909 5.31196-2.502868 8.42056-2.468116 8.0241.089646 14.6117 6.532796 14.8706 14.553206.2803 8.689-6.8481 15.8174-15.5371 15.5368-8.02025-.2589-14.46328-6.8466-14.55293-14.8707-.034646-3.1085.87913-6.0054 2.46801-8.42044l-.74076-.58502c-1.6538 2.48528-2.6317548 5.45716-2.66778578 8.65136-.09860532 8.7391 6.86602578 15.9717 15.62056578 16.1692 9.1163.2056 16.5601-7.2382 16.3544-16.3545-.1976-8.75452-7.4302-15.7191535-16.1692-15.62044148z" fill="#7f8c8d"/><g fill="#1ed660"><path d="m6.58407 5.01652c0 .8658-.70186 1.56766-1.56767 1.56766s-1.56767-.70186-1.56767-1.56766c0-.86581.70186-1.56767 1.56767-1.56767s1.56767.70186 1.56767 1.56767z"/><path d="m20.6931 15.9901v4.703h-4.7029c-2.5974 0-4.703-2.1057-4.703-4.703 0-2.5974 2.1056-4.703 4.703-4.703 2.5973 0 4.7029 2.1056 4.7029 4.703zm-4.6436-7.83802c-4.3562-.0323-7.89764 3.48922-7.89764 7.83802 0 4.3289 3.50924 7.8382 7.83834 7.8382h7.8382v-7.7398c0-4.322-3.457-7.90444-7.7789-7.93642z"/></g></g></svg>