<svg xmlns="http://www.w3.org/2000/svg" width="32" height="32" fill="none"><path fill="#fff" fill-rule="evenodd" d="M31.753 15.99c0 8.706-7.057 15.763-15.763 15.763S.227 24.696.227 15.99 7.284.227 15.99.227 31.753 7.284 31.753 15.99Z" clip-rule="evenodd"/><path fill="#7F8C8D" fill-rule="evenodd" d="M15.807.001A15.895 15.895 0 0 0 7.155 2.67l.585.74A14.962 14.962 0 0 1 16.161.943c8.024.09 14.612 6.532 14.87 14.553.28 8.689-6.848 15.817-15.536 15.537C7.475 30.772 1.03 24.185.941 16.16a14.965 14.965 0 0 1 2.468-8.42l-.741-.585A15.894 15.894 0 0 0 0 15.806c-.099 8.74 6.866 15.973 15.62 16.17 9.117.206 16.56-7.238 16.355-16.354-.198-8.755-7.43-15.72-16.17-15.62Z" clip-rule="evenodd"/><path fill="#1ED660" fill-rule="evenodd" d="M6.584 5.017a1.568 1.568 0 1 1-3.135 0 1.568 1.568 0 0 1 3.135 0ZM20.693 15.99v4.703H15.99a4.703 4.703 0 1 1 4.703-4.703ZM16.05 8.152a7.838 7.838 0 1 0-.059 15.676h7.838v-7.74c0-4.322-3.457-7.904-7.779-7.936Z" clip-rule="evenodd"/></svg>