<svg xmlns="http://www.w3.org/2000/svg" width="32" height="32" fill="none"><circle cx="16" cy="16" r="15" fill="#fff"/><path fill="#1B1B1B" d="M27.314 4.688A15.89 15.89 0 0 0 16.002 0C7.178 0 0 7.178 0 16s7.178 16 16.002 16c4.272 0 8.292-1.664 11.312-4.688A15.891 15.891 0 0 0 32 16c0-4.272-1.662-8.291-4.686-11.312ZM16.002 30.893C7.789 30.893 1.108 24.21 1.108 16S7.79 1.107 16.002 1.107 30.895 7.789 30.895 16s-6.681 14.893-14.893 14.893Z"/><path fill="#1B1B1B" d="M21.254 16.378c-1.025-.915-2.367-1.526-3.667-2.118l-.01-.003c-2.293-1.047-4.276-1.952-4.135-4.093.061-.816.653-1.309 1.14-1.574.548-.301 1.275-.48 1.948-.48.08 0 .16.003.237.006 1.957.131 3.5.96 5.01 2.681l.089.106.105-.09.59-.511.105-.093-.092-.106c-1.682-1.926-3.508-2.896-5.74-3.046a3.142 3.142 0 0 0-.31-.013c-.068 0-.142 0-.219.003h-.096c-1.463 0-3.068.48-4.288 1.287-1.457.963-2.274 2.287-2.297 3.73-.057 3.511 2.816 4.692 5.35 5.738l.005.003.026.01c2.242.928 4.177 1.728 4.135 3.872-.02 1.415-2.043 2.195-3.433 2.195h-.196v.003c-2.072-.06-3.923-.953-5.502-2.646l-.096-.102-.103.093-.573.53-.103.097.096.102c1.794 1.93 4.007 2.966 6.403 2.995h.109c1.547 0 3.228-.416 4.497-1.117 1.588-.867 2.514-2.13 2.61-3.558.109-1.568-.413-2.845-1.595-3.9Zm-7.437-3.053c.913.781 2.149 1.341 3.344 1.882l.022.01c1.265.582 2.463 1.132 3.331 1.897.961.845 1.368 1.824 1.281 3.082-.08 1.245-1.005 2.077-1.848 2.58.164-.334.253-.695.263-1.08.02-1.292-.477-2.326-1.521-3.164-.913-.733-2.124-1.229-3.296-1.712-2.438-1.002-4.74-1.949-4.699-4.746.013-1.075.66-2.092 1.822-2.864l.119-.076c-.138.3-.215.614-.234.944-.093 1.296.372 2.358 1.416 3.248Z"/></svg>