<svg fill="none" height="32" viewBox="0 0 32 32" width="32" xmlns="http://www.w3.org/2000/svg"><circle cx="16" cy="16" fill="#fff" r="15"/><g fill="#1b1b1b"><path d="m27.3142 4.688c-3.0235-3.024-7.04-4.688-11.3126-4.688-8.82394 0-16.0016 7.1776-16.0016 16s7.17766 16 16.0016 16c4.2726 0 8.2923-1.664 11.3126-4.688 3.0235-3.024 4.6858-7.04 4.6858-11.312s-1.6623-8.2912-4.6858-11.312zm-11.3126 26.2048c-8.21219 0-14.8934-6.6816-14.8934-14.8928s6.68121-14.8928 14.8934-14.8928c8.2122 0 14.8934 6.6816 14.8934 14.8928s-6.6812 14.8928-14.8934 14.8928z"/><path d="m21.254 16.3783c-1.0249-.9152-2.3669-1.5264-3.6673-2.1184l-.0096-.0032c-2.2933-1.0464-4.2759-1.952-4.1349-4.0928.0608-.81595.6533-1.30876 1.1402-1.57436.5477-.3008 1.2747-.48 1.9473-.48.0801 0 .1602.00321.237.00641 1.957.1312 3.5008.95999 5.0094 2.68155l.0896.1056.1057-.0896.5894-.512.1057-.0928-.0929-.1056c-1.6815-1.92635-3.5072-2.89595-5.7396-3.04635-.0961-.0096-.1986-.0128-.3107-.0128-.0672 0-.1409 0-.2178.0032h-.0961c-1.4637 0-3.0683.47999-4.2886 1.28639-1.4573.9632-2.27406 2.28796-2.29648 3.73116-.05765 3.5104 2.81538 4.6912 5.34878 5.7376l.0064.0032.0257.0096c2.242.928 4.1765 1.728 4.1349 3.872-.0192 1.4144-2.0435 2.1952-3.4335 2.1952h-.0577-.1377v.0032c-2.0722-.0608-3.9235-.9536-5.5025-2.6464l-.09612-.1024-.1025.0928-.57331.5312-.10249.096.09608.1024c1.79364 1.9296 4.00684 2.9664 6.40254 2.9952h.1089c1.547 0 3.2285-.416 4.4969-1.1168 1.5886-.8672 2.5142-2.1312 2.6103-3.5584.1089-1.568-.4132-2.8448-1.595-3.9008zm-7.4371-3.0528c.9128.7808 2.1491 1.3408 3.3438 1.8816l.0224.0096c1.2652.5824 2.463 1.1328 3.331 1.8976.9609.8448 1.3677 1.824 1.2812 3.0816-.0801 1.2448-1.0057 2.0768-1.8481 2.5792.1634-.3328.253-.6944.2626-1.0784.0193-1.2928-.4772-2.3264-1.5213-3.1648-.9128-.7328-2.1235-1.2288-3.2958-1.712-2.4374-1.0016-4.7403-1.9488-4.6986-4.7456.0128-1.0752.6598-2.09276 1.8224-2.86396.0385-.0256.0769-.0512.1185-.0768-.1377.3008-.2146.6144-.2338.94396-.0929 1.296.3716 2.3584 1.4157 3.248z"/></g></svg>