<svg xmlns="http://www.w3.org/2000/svg" width="32" height="32" fill="none"><path fill="#fff" d="M16 32c8.837 0 16-7.163 16-16S24.837 0 16 0 0 7.163 0 16s7.163 16 16 16Z"/><path fill="#050101" d="M25.246 19.297v-1.554h-2.572v1.554c0 1.816-3.052 3.764-6.077 4.888l-.346.129V27l.708-.241c1.944-.66 8.287-3.145 8.287-7.462ZM18.232 5.79 15.64 5l-2.742.836v20.09l.313.141c.666.299 1.204.508 1.539.63l.72.265V16.497h2.762v-2.541H15.47V7.79l.17-.052 2.592.792V5.79Zm-6.148 3.032V6.094L6 7.949v8.547h3.512v4.49c-.624-.648-.94-1.278-.94-1.878v-1.365H6v1.365c0 2.898 2.886 4.973 5.306 6.203l.778.395v-11.75H8.572V9.899l3.512-1.077Z"/><path fill="#050101" fill-rule="evenodd" d="m19.012 6.029 6.234 1.905v8.563h-3.66v3.707s-.818 1.06-2.571 1.947l-.002-12.622v-3.5Zm2.574 3.526v4.4h1.088V9.887l-1.088-.331Z" clip-rule="evenodd"/></svg>