<svg fill="none" height="32" viewBox="0 0 32 32" width="32" xmlns="http://www.w3.org/2000/svg"><path d="m16 32c8.8366 0 16-7.1634 16-16 0-8.83656-7.1634-16-16-16-8.83656 0-16 7.16344-16 16 0 8.8366 7.16344 16 16 16z" fill="#fff"/><g fill="#050101"><path d="m25.246 19.2967v-1.5541h-2.572v1.5541c0 1.8163-3.0521 3.7639-6.077 4.8884l-.3455.1288v2.6861l.7071-.2415c1.9443-.659 8.2874-3.1441 8.2874-7.4618z"/><path d="m18.2316 5.78944-2.5921-.78944-2.7418.83566v20.09024l.313.1412c.6663.2985 1.2048.5076 1.5391.6303l.7201.265v-10.4659h2.7617v-2.5406h-2.7617v-6.16617l.1696-.05189 2.5921.79213z"/><path d="m12.0841 8.82185v-2.7281l-6.0841 1.85487v8.54778h3.51191v4.4899c-.62412-.6485-.93999-1.2784-.93999-1.8779v-1.3658h-2.57192v1.3658c0 2.8973 2.88558 4.9723 5.3062 6.2029l.7779.3951v-11.7506h-3.51218v-4.05708z"/><path clip-rule="evenodd" d="m19.0125 6.02881 6.2335 1.90537v8.56232h-3.6599v3.7075s-.8182 1.0595-2.5714 1.9466l-.0017-12.62137zm2.5737 3.5258v4.40129h1.088v-4.06953z" fill-rule="evenodd"/></g></svg>