<svg fill="none" height="32" viewBox="0 0 32 32" width="32" xmlns="http://www.w3.org/2000/svg"><path d="m16 32c8.8366 0 16-7.1634 16-16 0-8.83656-7.1634-16-16-16-8.83656 0-16 7.16344-16 16 0 8.8366 7.16344 16 16 16z" fill="#fff"/><path d="m21.6597 11.163h-13.12499c0-1.625 1.08334-3.30555 4.06949-3.33333h13.0972c0 2.05556-1.5417 3.30553-4.0417 3.33333zm-1.9722 3.5694h-7.3195c-2.98607.0278-4.06941 1.7084-4.06941 3.3334h7.34721c2.5-.0278 4.0417-1.2778 4.0417-3.3334zm-9.4583 6.2362c-.38187 0-.75513.1132-1.07261.3253s-.56493.5137-.71105.8664c-.14612.3528-.18435.741-.10986 1.1154.07449.3745.25836.7185.52835.9885.27.27.61399.4539.98848.5284s.76269.0362 1.11539-.1099c.3528-.1461.6543-.3935.8665-.711.2121-.3175.3253-.6908.3253-1.0726 0-.512-.2034-1.003-.5654-1.3651-.3621-.362-.8531-.5654-1.3651-.5654z" fill="#353a69"/></svg>