<svg fill="none" height="32" viewBox="0 0 32 32" width="32" xmlns="http://www.w3.org/2000/svg" xmlns:xlink="http://www.w3.org/1999/xlink"><clipPath id="a"><path d="m0 0h32v32h-32z"/></clipPath><g clip-path="url(#a)"><path d="m16 32c3.1645 0 6.2579-.9384 8.8891-2.6965s4.682-4.2569 5.893-7.1806c1.211-2.9236 1.5278-6.1406.9105-9.2443-.6174-3.10374-2.1413-5.95467-4.3789-8.19231s-5.0886-3.761491-8.1923-4.378855c-3.1037-.617363-6.3207-.30051013-9.24434.910495-2.92361 1.211-5.42247 3.26176-7.18057 5.89295-1.758106 2.63118-2.69649 5.72462-2.69649 8.88912-.00000788 2.1012.413839 4.1817 1.21791 6.1229.80407 1.9413 1.98263 3.7051 3.46836 5.1908 1.48574 1.4858 3.24957 2.6643 5.19079 3.4684 1.94124.8041 4.02174 1.2179 6.12294 1.2179z" fill="#ab1f26"/><g fill="#fff"><path d="m17.0872 20.1059-1.0873 2.0253-1.0873-2.0253c-6.56806-.5098-11.72339-5.4073-11.72339-5.4073 0-.0117 5.0095-4.75753 11.44349-5.38284l.8516-1.45829.5156-.85747.875 1.45828.4924.85748c6.4327.61364 11.4434 5.38284 11.4434 5.38284s-5.1565 4.8975-11.7246 5.4073zm-12.81069-5.4073c-.01167 0 4.9535 3.3925 9.94079 4.11l-2.4312-4.5499.6603-1.1456.6066 1.134-.0116.0117 2.3647 4.6548c.1902.0117.3804.0117.5717.0117.1901 0 .3698 0 .56-.0117l1.7371-3.4625 1.267-2.3613.6603 1.1456-2.4313 4.5615c3.5683-.6581 6.9586-2.0583 9.9514-4.11-2.8971-1.9739-6.1582-3.3513-9.5932-4.0516l.7396 1.2856-.616 1.2378-1.6029-2.6856c-.2164-.0135-.433-.0213-.6498-.0233-.2135 0-.4375.0116-.6615.0233l-1.6368 2.6856-.6043-1.1807.7723-1.3311c-3.4207.746-6.6734 2.1198-9.59319 4.0517z"/><path d="m23.347 19.88-1.008.47 2.028 3.568h-16.72304l2.011-3.571-1.009-.47-2.863 5.123h20.41804z"/></g></g></svg>