<svg xmlns="http://www.w3.org/2000/svg" width="32" height="32" fill="none"><path fill="#FE0000" d="M16.041 31.987c8.584 0 15.542-6.958 15.542-15.541 0-8.584-6.958-15.542-15.541-15.542C7.457.904.5 7.862.5 16.446c0 8.583 6.958 15.541 15.541 15.541Z"/><path fill="#FDFDFD" d="M25.952 20.497c-.823-.13-1.672-.156-2.482.027-4.194 1.071-2.613 2.86-3.54.34 0-.014-.34-.223-.354-.236a.469.469 0 0 0-.09-.13 3.85 3.85 0 0 0-2.21-1.568c-.012-.014-.025-.014-.038-.014-1.242-.34-2.653-.104-3.659.72-.352.26-.705.443-.966.796l-.118.092c-.052.052-.078.104-.118.156l-.156.144c-.288.418-.21.784-.405 1.254-.053.04-.053.222-.118.157a5.305 5.305 0 0 0-.693-.64c-1.345-1.163-3.227-1.49-4.938-1.137-.066 1.046.496 2.025 1.11 2.822.667.823 1.45 1.529 2.3 2.143.535.405 1.097.745 1.685 1.072.04.039.079.065.13.065l.08.039c.026.013.039.04.078.04.326.195.68.365 1.032.509v-.013.013c.04.026.091.052.144.052.013.026.065.052.091.04l-.013.012c.013.013.026.026.052.026.026.013.053.027.079.027a.1.1 0 0 0 .065.026c.026.013.04.026.065.026.066.04.144.052.21.078.039.013.065.026.104.04.091.039.209.078.313.104 4.064 1.411 8.702-.98 11.263-4.142.026-.026.04-.052.04-.078.09-.053.156-.183.195-.275.065-.104.144-.209.21-.34.012-.012.025-.025.025-.038.027-.053.066-.092.079-.144.326-.575.705-1.438.548-2.065ZM9.36 25.306c.013 0 .013 0 0 0 .013 0 .013 0 0 0Zm2.352-2.992c.013 0 .013 0 0 0 .013.013 0 0 0 0Zm.719 4.794s-.013 0 0 0c-.013 0 0 0 0 0Zm2.286.693c.013 0 0 0 0 0Zm5.657-.94s-.013 0 0 0c-.013 0 0 0 0 0Z"/><path fill="#FDA000" d="M21.589 8.033c6.324-5.932 4.116 3.11 2.927 6.663.51 1.242 1.189 2.509 1.345 3.894.066.627.21 1.359.144 1.947-1.738-.366-3.658.039-5.017 1.202-1.098 1.11-.418.17-1.503-1.242-2.195-3.057-6.545-1.724-7.63 1.608-.039.078-.065.274-.17.143-1.385-1.58-3.567-2.156-5.592-1.764-.039-1.999.719-3.958 1.477-5.748-.876-2.509-1.895-6.05-.784-8.584 1.045-.732 2.953 1.28 3.737 1.933 2.9 3.214 1.058 1.059 5.8 1.215 4.626.092 2.365 1.869 5.266-1.267Z"/><path fill="#FE7900" d="M10.17 11.025c-.25.222-.497.444-.72.68-.156.17-.313.326-.457.496-.17.21-.34.431-.51.64-.143.196-.274.405-.417.588-.014.013-.014.04-.04.04-.026 0-.013-.027-.026-.04-.078-.235-.157-.457-.235-.692a10.783 10.783 0 0 1-.209-.693L7.36 11.3c-.026-.117-.065-.222-.078-.34-.04-.195-.079-.391-.118-.6-.026-.157-.052-.3-.065-.458l-.04-.3c-.013-.274-.039-.562-.026-.836 0-.144.026-.275.04-.418.026-.131 0-.118.156-.105.222.026.445.092.654.183.3.118.561.287.81.483.222.183.418.392.6.615.092.117.197.248.288.365.092.118.183.249.261.38.066.117.144.247.223.365.052.092.104.196.156.3.013.066-.013.079-.052.092Zm14.66-2.77c.025.105.038.196.038.3.013.118.013.236.027.353 0 .17-.014.34-.014.51 0 .118-.013.222-.026.34-.026.222-.052.457-.091.68-.04.208-.079.43-.118.64-.052.221-.104.43-.17.653-.078.313-.182.627-.274.94-.04.13-.079.262-.118.38-.039.143-.104.274-.143.404-.013.04-.04.04-.053.013a10.786 10.786 0 0 0-.326-.47 4.558 4.558 0 0 0-.196-.261 7.72 7.72 0 0 0-.274-.34 7.179 7.179 0 0 0-.419-.483c-.156-.17-.313-.327-.47-.484-.13-.13-.274-.248-.418-.379-.066-.052-.066-.052-.026-.13.117-.262.287-.51.444-.758.144-.235.314-.445.496-.667.105-.13.236-.248.353-.379.144-.156.327-.287.497-.405.143-.091.287-.196.444-.248.196-.078.379-.157.588-.17.078-.013.144-.039.222-.039-.013 0 .013-.013.026 0Z"/><path fill="#000" d="M13.383 18.786a7.042 7.042 0 0 1-2.587-.653 2.721 2.721 0 0 1-.705-.458c-.092-.091-.17-.183-.17-.326-.013-.275-.026-.55.039-.823 0-.027.013-.04.013-.066.091-.248.079-.235.353-.209.405.04.758.222 1.11.392.575.288 1.137.627 1.673.98.248.17.47.366.64.614a.943.943 0 0 1 .13.314c.014.091-.012.117-.09.157-.131.078-.262.078-.406.078Zm8.95-1.777c0 .157-.013.3-.026.444 0 .04-.026.066-.052.092-.17.196-.379.34-.601.47-.536.3-1.124.483-1.725.627a5.972 5.972 0 0 1-.823.13c-.17.014-.353.014-.523-.025-.026-.013-.065-.026-.091-.04-.052-.026-.078-.065-.078-.143.039-.196.13-.353.248-.497.196-.248.457-.43.718-.6.47-.301.941-.602 1.438-.85.313-.157.627-.3.966-.379.105-.026.21-.026.327-.026.04 0 .065.013.078.052.105.183.118.38.131.588a.7.7 0 0 1 .013.157Z"/><path fill="#FE8E00" d="M24.83 8.255c-.118.026-.249.04-.366.065a1.382 1.382 0 0 0-.392.131.905.905 0 0 1-.17.065c-.079.026-.13.066-.196.105-.13.078-.248.157-.366.248a3.315 3.315 0 0 0-.392.353c-.118.104-.209.235-.314.353-.078.091-.143.196-.222.287a3.236 3.236 0 0 0-.156.222c-.105.13-.17.288-.262.418-.078.13-.157.275-.222.405-.026.053-.04.092.013.131-.039 0-.052-.026-.065-.052-.079-.079-.17-.144-.248-.21-.144-.104-.262-.208-.418-.3-.066-.039-.118-.078-.17-.117a1.14 1.14 0 0 0-.13-.079c-.027-.013-.027-.039-.014-.052.052-.065.105-.118.157-.17.052-.052.104-.118.157-.157.065-.052.104-.117.183-.17.065-.039.104-.104.156-.156.079-.079.17-.157.248-.236.118-.104.223-.222.353-.313.092-.079.17-.157.275-.222.065-.04.117-.105.183-.144.156-.118.313-.248.483-.366.157-.104.314-.222.483-.313.131-.079.275-.157.405-.222.118-.066.249-.118.366-.17.105-.053.222-.079.327-.118.04-.013.052.026.065.04.053.117.105.221.144.339.04.118.052.235.091.353.014 0 .014.026.014.052Zm-14.661 2.77c.039-.04.039-.078-.013-.157-.04-.065-.079-.117-.092-.196 0-.026-.026-.026-.039-.039l-.235-.392c-.052-.091-.118-.17-.17-.248-.078-.118-.157-.222-.235-.327-.118-.143-.235-.287-.366-.418-.092-.078-.157-.17-.261-.248-.105-.079-.196-.17-.3-.235-.092-.066-.197-.118-.288-.196a.7.7 0 0 0-.144-.066 2.865 2.865 0 0 0-.562-.196c-.091-.026-.196-.039-.287-.052-.053 0-.066.013-.066.065 0 .014 0 .027-.013.04-.013-.066.013-.118.026-.183a2.41 2.41 0 0 1 .157-.523c.026-.065.066-.117.092-.196.013-.039.039-.052.078-.039.17.065.327.13.483.196.105.052.223.104.327.17.092.052.196.104.288.157.143.091.287.182.418.274.104.065.209.144.3.222.144.118.288.235.444.353.118.091.223.196.34.287.065.053.144.118.196.183.079.079.17.144.248.222l.236.235c.156.144.3.301.457.445.039.026.039.052 0 .078-.092.065-.183.118-.275.183a1.483 1.483 0 0 0-.222.17 6.038 6.038 0 0 1-.3.235c-.053.04-.105.105-.17.144-.013.039-.026.052-.052.052Z"/><path fill="#F8FBF4" d="M12.73 14.605c-.04-.079-.117-.17-.157-.222a1.81 1.81 0 0 0-.274-.275c-.105-.078-.196-.156-.314-.209-.3-.13-.6-.117-.888.013a1.325 1.325 0 0 0-.588.484c-.013.013-.013.026-.026.04a.863.863 0 0 0 .013 1.005c.065.092.144.17.274.183.13.013.275.026.405.04.262.012.536 0 .797-.027.183-.026.366-.052.55-.117.104-.04.182-.079.234-.183.118-.249.092-.484-.026-.732Zm6.506.745c.053.104.144.143.236.183.17.065.365.091.548.117.262.026.536.04.797.026.131 0 .275-.026.405-.039.131-.013.21-.091.275-.183a.863.863 0 0 0 .013-1.006c-.013-.013-.013-.026-.026-.04a1.258 1.258 0 0 0-.588-.482c-.288-.131-.588-.157-.889-.014a1.32 1.32 0 0 0-.313.21 1.81 1.81 0 0 0-.275.274 3.26 3.26 0 0 0-.157.222.801.801 0 0 0-.026.732Z"/><path fill="#000" d="M18.178 25.397a1.976 1.976 0 0 1-.13-.222c-.013-.026-.013-.052-.013-.078v-.902c0-.052 0-.065-.066-.052a9.676 9.676 0 0 1-2.13.13 7.282 7.282 0 0 1-1.058-.117c-.052-.013-.065 0-.065.052.013.3.013.614.026.915 0 .117-.065.183-.118.261-.013.026-.026-.013-.039-.026a1.65 1.65 0 0 1-.209-.431 3.84 3.84 0 0 1-.104-.366c-.013-.04-.013-.04-.053-.04h-.052c-.13.014-.13.014-.157-.117a1.285 1.285 0 0 1-.039-.314.119.119 0 0 0-.039-.09 2.02 2.02 0 0 0-.17-.158c-.04-.026-.026-.065-.026-.091.013-.026.04-.013.065-.013h.771c.04 0 .066.013.066.065 0 .04.013.04.052.04.366.012.745.012 1.11.026.04 0 .066-.014.079-.04.052-.078.104-.157.144-.235.039-.065.065-.091.143-.078.04.013.052-.013.052-.053v-.653c0-.052-.013-.065-.052-.078a2.879 2.879 0 0 1-.888-.523c-.196-.17-.353-.366-.418-.614-.013-.065-.026-.117-.026-.183v-.536c0-.313.235-.548.535-.548h1.816c.236 0 .575.261.575.588 0 .17 0 .34-.013.51a1.275 1.275 0 0 1-.47.953 1.855 1.855 0 0 1-.627.353c-.04.013-.053.026-.053.065v.666c0 .04.013.053.053.053.078-.013.117.013.156.078.04.078.092.144.144.222.013.026.04.04.066.04.313 0 .627 0 .94.012.052 0 .066-.039.092-.065.026-.04.052-.052.091-.052h.706c.065 0 .065.013.052.065-.065.222-.118.444-.17.68-.013.039-.026.065-.078.065-.17 0-.17 0-.236.157a5.948 5.948 0 0 1-.235.68Z"/><path fill="#000" d="M16.257 24.495h.888c.053 0 .066.014.066.066 0 .157 0 .157-.13.235-.118.078-.118.078-.236-.013s-.118-.091-.222.013c-.066.065-.118.144-.183.209-.078.079-.21.079-.274-.026-.053-.078-.105-.17-.157-.248-.026-.04-.053-.053-.092-.053-.143 0-.143 0-.196.118-.026.052-.039.065-.091.04a1.247 1.247 0 0 1-.275-.118c-.039-.014-.052-.04-.052-.079 0-.157 0-.157.157-.157.261.014.536.014.797.014Z"/></svg>