<svg fill="none" height="32" viewBox="0 0 32 32" width="32" xmlns="http://www.w3.org/2000/svg"><path d="m16.0415 31.9872c8.5835 0 15.5415-6.958 15.5415-15.5414 0-8.58338-6.958-15.541564-15.5415-15.541564-8.58332 0-15.5415 6.958184-15.5415 15.541564 0 8.5834 6.95818 15.5414 15.5415 15.5414z" fill="#fe0000"/><path d="m25.9524 20.4975c-.8231-.1307-1.6723-.1568-2.4824.0261-4.1941 1.0714-2.6131 2.8613-3.5408.3397 0-.0131-.3396-.2221-.3527-.2352-.0261-.0522-.0522-.0914-.0914-.1306-.5227-.7709-1.3067-1.3327-2.2082-1.5679-.013-.0131-.0261-.0131-.0392-.0131-1.2412-.3397-2.6523-.1045-3.6583.7186-.3528.2613-.7055.4442-.9669.797l-.1175.0915c-.0523.0523-.0784.1045-.1176.1568l-.1568.1437c-.2875.418-.2091.7839-.4051 1.2542-.0522.0392-.0522.2221-.1175.1568-.2222-.2351-.4443-.4572-.6925-.6401-1.34577-1.1629-3.22721-1.4896-4.93879-1.1367-.06533 1.0452.49649 2.025 1.11057 2.8221.66635.8231 1.45027 1.5286 2.29953 2.1427.53569.405 1.09749.7447 1.68549 1.0714.0392.0392.0784.0653.1306.0653.0262.0131.0523.0262.0784.0392.0262.0131.0392.0392.0784.0392.3266.196.6794.3658 1.0322.5095 0 0 0 0 0-.013v.013c.0392.0261.0914.0523.1437.0523.0131.0261.0653.0522.0915.0392 0 0 0 0-.0131.013.0131.0131.0261.0262.0523.0262.0261.013.0522.0261.0784.0261.013.013.0392.0261.0653.0261.0261.0131.0392.0261.0653.0261.0653.0394.1437.0524.2091.0786.0392.013.0653.0261.1045.0391.0914.0392.209.0784.3136.1046 4.0633 1.411 8.7016-.98 11.2624-4.1419.0262-.0261.0392-.0522.0392-.0783.0915-.0523.1568-.1829.196-.2744.0653-.1045.1437-.209.209-.3397.0131-.013.0261-.0261.0261-.0391.0263-.0523.0655-.0916.0786-.1439.3266-.5748.7054-1.4372.5486-2.0642zm-16.59318 4.8081c.01306 0 .01306 0 0 0zm2.35178-2.9921c.0131 0 .0131 0 0 0 .0131.0131 0 0 0 0zm.7186 4.795c-.013 0 0 0 0 0zm7.9438-.2482c-.013 0 0 0 0 0z" fill="#fdfdfd"/><path d="m21.5889 8.03298c6.3238-5.93175 4.1157 3.10962 2.9268 6.66342.5095 1.2412 1.1889 2.5086 1.3457 3.8935.0653.6272.209 1.3588.1437 1.9468-1.7376-.3659-3.6583.0392-5.0171 1.2021-1.0975 1.1105-.4182.1698-1.5025-1.2413-2.1951-3.0573-6.5459-1.7246-7.6304 1.6071-.0391.0783-.0653.2743-.1698.1437-1.3849-1.5809-3.56689-2.1559-5.59204-1.7638-.03921-1.9991.7186-3.9589 1.47639-5.7489-.87538-2.5086-1.8945-6.04935-.78392-8.58405 1.04523-.73167 2.9528 1.28042 3.73677 1.93369 2.9005 3.21416 1.0583 1.05831 5.8011 1.2151 4.6252.09145 2.3648 1.86836 5.2653-1.26736z" fill="#fda000"/><path d="m10.1691 11.0251c-.24829.2221-.49653.4442-.71864.6794-.15679.1699-.31358.3267-.4573.4965-.16984.2091-.3397.4312-.50955.6402-.14372.196-.27437.405-.4181.588-.01306.013-.01306.0392-.03919.0392s-.01307-.0262-.02613-.0392c-.0784-.2352-.15679-.4573-.23518-.6925-.0784-.2221-.14372-.4573-.20905-.6925-.06533-.2482-.13065-.4965-.19599-.7447-.02613-.1176-.06532-.2221-.07838-.3397-.03921-.196-.0784-.392-.11759-.601-.02613-.1568-.05227-.3006-.06533-.45734-.01307-.10453-.02613-.19599-.0392-.3005-.01306-.27439-.03919-.56182-.02612-.83621 0-.14372.02612-.27437.03919-.41809.02613-.13066 0-.11759.15678-.10453.22211.02613.44423.09146.65328.18292.3005.1176.56182.28744.81006.48343.22212.18291.41809.39196.60101.61408.09145.11759.19598.24825.28744.36584.09146.1176.18292.2482.26131.3789.06533.1176.14373.2482.22208.3658.0523.0915.1046.196.1568.3005.0131.0654-.0131.0784-.0522.0915z" fill="#fe7900"/><path d="m24.8291 8.25513c.0262.10453.0392.19598.0392.30051.0131.11759.0131.23517.0262.35276 0 .16986-.0131.33971-.0131.50956 0 .11759-.0131.22211-.0261.3397-.0262.22212-.0523.45734-.0915.67944-.0392.209-.0784.4311-.1176.6402-.0522.2221-.1045.4311-.1698.6533-.0784.3135-.1829.6271-.2743.9407-.0392.1306-.0786.2613-.1177.3789-.0392.1437-.1046.2744-.1437.405-.0131.0392-.0392.0392-.0523.0131-.1045-.1568-.209-.3136-.3266-.4704-.0653-.0914-.1307-.1829-.196-.2613-.0914-.1176-.1829-.2352-.2743-.3397-.1307-.1698-.2745-.3266-.4182-.4834-.1568-.1699-.3135-.3267-.4703-.4835-.1307-.1306-.2744-.2482-.4181-.3788-.0654-.0523-.0654-.0523-.0262-.1307.1177-.2613.2875-.5096.4443-.7578.1437-.23518.3135-.44423.4964-.66635.1045-.13065.2352-.24824.3529-.37889.1437-.15679.3266-.28744.4964-.40503.1437-.09146.2874-.19599.4442-.24826.1961-.07838.379-.15678.588-.16984.0784-.01307.1437-.0392.2221-.0392-.013 0 .0131-.01306.0261 0z" fill="#fe7900"/><path d="m13.3832 18.7859c-.3789-.0131-.7578-.0784-1.1367-.1568-.4965-.1176-.993-.2744-1.4503-.4965-.2482-.1176-.4965-.2613-.7055-.4573-.09148-.0915-.16988-.1829-.16988-.3266-.01306-.2744-.02613-.5488.0392-.8232 0-.0261.01307-.0392.01307-.0653.09141-.2482.07841-.2352.35281-.209.405.0392.7578.2221 1.1105.3919.5749.2875 1.1367.6272 1.6724.9799.2482.1699.4704.3659.6402.6141.0653.1045.1045.196.1307.3136.013.0914-.0131.1176-.0915.1568-.1306.0784-.2613.0784-.405.0784z" fill="#000"/><path d="m22.3332 17.009c0 .1568-.0131.3005-.0261.4443 0 .0392-.0262.0653-.0523.0914-.1698.196-.3788.3397-.6011.4704-.5356.3005-1.1236.4834-1.7246.6271-.2743.0654-.5488.1046-.8231.1307-.1699.0131-.3528.0131-.5226-.0261-.0261-.0131-.0653-.0262-.0914-.0392-.0523-.0262-.0784-.0654-.0784-.1438.0392-.1959.1306-.3527.2482-.4964.196-.2483.4572-.4312.7185-.6011.4705-.3005.9408-.601 1.4373-.8492.3136-.1568.6271-.3005.9669-.3789.1045-.0262.209-.0262.3266-.0262.0392 0 .0653.0131.0784.0523.1045.1829.1176.3789.1306.5879.0131.0654.0131.1046.0131.1568z" fill="#000"/><path d="m24.8295 8.255c-.1176.02614-.2482.0392-.3658.06533-.1307.02613-.2744.06534-.3921.13066-.0522.02612-.1175.05227-.1698.06533-.0784.02613-.1306.06532-.196.10451-.1306.0784-.2482.1568-.3658.24826-.1437.10451-.2612.2221-.3919.35277-.1177.10451-.2091.23518-.3136.35277-.0784.09145-.1438.19597-.2221.28743-.0523.06534-.1046.14374-.1568.22214-.1045.1306-.1698.2874-.2613.4181-.0784.1306-.1568.2744-.2221.405-.0262.0523-.0393.0915.0131.1307-.0393 0-.0524-.0262-.0655-.0523-.0784-.0784-.1698-.1437-.2482-.209-.1437-.1046-.2613-.2091-.418-.3006-.0654-.0391-.1176-.0784-.1699-.1175-.0392-.0262-.0784-.0523-.1306-.0784-.0261-.0131-.0261-.0392-.0131-.0523.0523-.0653.1045-.1176.1568-.1698.0523-.0523.1045-.11764.1568-.15684.0653-.05226.1045-.11759.1829-.16985.0653-.03919.1045-.10453.1567-.15678.0784-.0784.1699-.1568.2482-.23518.1178-.10453.2223-.22212.3529-.31358.0915-.0784.1698-.15678.2744-.22211.0653-.0392.1175-.10453.1829-.14372.1567-.11759.3135-.24825.4833-.36584.1569-.10452.3137-.22211.4835-.31357.1307-.0784.2744-.15679.405-.22212.1176-.06532.2482-.11759.3659-.16985.1046-.05227.2221-.07839.3266-.11759.0392-.01306.0523.02613.0654.0392.0522.11759.1045.22211.1437.3397s.0522.23518.0914.35277c.0131 0 .0131.02613.0131.05226z" fill="#fe8e00"/><path d="m10.1687 11.025c.0392-.0391.0392-.0784-.0131-.1567-.0392-.0654-.0784-.1176-.0914-.196 0-.0262-.0262-.0262-.0392-.0392-.07843-.1307-.15681-.2613-.23521-.392-.05226-.0914-.11759-.1698-.16985-.24824-.07839-.11759-.15679-.2221-.23518-.32663-.11759-.14373-.23517-.28745-.36583-.4181-.09146-.0784-.15679-.16985-.26132-.24824-.10453-.0784-.19597-.16985-.3005-.23518-.09146-.06532-.19599-.11759-.28745-.19599-.03919-.02613-.10453-.05226-.14372-.06532-.18291-.0784-.36583-.15678-.56182-.19599-.09145-.02613-.19597-.03919-.28744-.05225-.05225 0-.06533.01306-.06533.06532 0 .01306 0 .02614-.01306.0392-.01307-.06533.01306-.11759.02614-.18292.03919-.18291.07838-.35277.15678-.52262.02613-.06533.06532-.11759.09146-.19599.01307-.03919.03919-.05225.07839-.03919.16986.06532.32664.13066.48342.19598.10453.05227.22212.10452.32664.16986.09146.05225.19599.10452.28745.15678.14372.09146.28744.18292.41809.27437.10453.06533.20905.14373.30052.22212.14371.11759.28743.23518.44421.35277.11759.09146.22212.19598.33971.28744.0653.05226.1437.11759.196.18291.0784.0784.1698.14372.2482.22212s.1568.15678.2352.23518c.1568.14372.3005.30051.4573.44421.0392.0262.0392.0523 0 .0784-.0915.0653-.1829.1176-.2744.1829-.0784.0523-.1568.1046-.2221.1699-.0914.0784-.196.1568-.3005.2352-.0523.0392-.1045.1045-.1698.1437-.0131.0392-.0262.0522-.0523.0522z" fill="#fe8e00"/><path d="m12.7301 14.6049c-.0392-.0784-.1176-.1698-.1568-.2221-.0653-.0784-.1698-.196-.2743-.2744-.1046-.0784-.196-.1568-.3136-.209-.3005-.1307-.601-.1176-.8885.013-.2352.1046-.4442.2614-.5879.4835-.0131.013-.0131.0261-.0262.0392-.209.3135-.209.7055.0131 1.006.0653.0915.1437.1699.2744.1829.1306.0131.2744.0261.405.0392.2613.0131.5357 0 .797-.0261.1829-.0261.3658-.0523.5488-.1176.1045-.0392.1829-.0784.2352-.1829.1175-.2483.0914-.4834-.0262-.7317z" fill="#f8fbf4"/><path d="m19.2364 15.3496c.0522.1046.1438.1438.2352.183.1699.0653.3658.0914.5487.1176.2613.0261.5357.0392.7971.0261.1306 0 .2743-.0261.405-.0392.1306-.0131.209-.0915.2743-.1829.2221-.3005.2221-.6925.0131-1.0061-.0131-.013-.0131-.0261-.0261-.0392-.1437-.2221-.3397-.3789-.5879-.4834-.2874-.1307-.588-.1568-.8885-.0131-.1176.0523-.2221.1307-.3136.2091-.1045.0784-.209.196-.2743.2744-.0392.0522-.1177.1568-.1569.2221-.1176.2352-.1437.4703-.0261.7316z" fill="#f8fbf4"/><g fill="#000"><path d="m18.1782 25.3971c-.0522-.0784-.0914-.1437-.1306-.2221-.0131-.0261-.0131-.0523-.0131-.0784 0-.3006 0-.6011 0-.9015 0-.0523 0-.0654-.0653-.0523-.7055.1176-1.411.1698-2.1297.1306-.3527-.013-.7055-.0522-1.0583-.1175-.0522-.0131-.0653 0-.0653.0522.0131.3005.0131.614.0261.9146 0 .1176-.0653.1829-.1176.2613-.013.0262-.0261-.013-.0392-.0261-.0914-.1306-.1567-.2743-.209-.4312-.0392-.1176-.0784-.2483-.1045-.3658-.0131-.0392-.0131-.0392-.0523-.0392-.0131 0-.0392 0-.0523 0-.1306.013-.1306.013-.1567-.1176-.0262-.1045-.0392-.209-.0392-.3136 0-.0391-.0131-.0653-.0392-.0914-.0523-.0523-.1046-.1045-.1699-.1568-.0392-.0261-.0261-.0653-.0261-.0915.013-.0262.0392-.0131.0653-.0131h.7709c.0392 0 .0653.0131.0653.0654 0 .0392.0131.0392.0523.0392.3658.0131.7447.0131 1.1106.0262.0391 0 .0653-.0131.0783-.0392.0523-.0785.1046-.1569.1438-.2353.0392-.0653.0653-.0915.1437-.0784.0392.0131.0523-.0131.0523-.0523 0-.222 0-.4311 0-.6532 0-.0522-.0131-.0653-.0523-.0783-.3267-.1307-.6272-.2876-.8885-.5227-.196-.1699-.3528-.3658-.4181-.6141-.013-.0653-.0261-.1175-.0261-.1829 0-.183 0-.3659 0-.5357 0-.3135.2352-.5487.5357-.5487h1.8161c.2352 0 .5749.2613.5749.5879 0 .1698 0 .3396-.0131.5096-.013.3919-.1829.7055-.4703.9537-.1829.1568-.392.2745-.6272.3529-.0392.013-.0522.0261-.0522.0653v.6662c0 .0392.013.0523.0522.0523.0784-.0131.1176.0131.1568.0784.0392.0784.0915.1437.1437.2222.0131.0261.0392.0392.0654.0392.3135 0 .6271 0 .9406.0131.0523 0 .0654-.0392.0915-.0654.0261-.0392.0523-.0523.0914-.0523h.7056c.0654 0 .0654.0131.0523.0654-.0653.2221-.1176.4442-.1698.6793-.0131.0392-.0262.0654-.0784.0654-.1699 0-.1699 0-.2352.1567-.0522.2091-.1437.4443-.2353.6795z"/><path d="m16.257 24.4955h.8885c.0523 0 .0653.0131.0653.0653 0 .1568 0 .1568-.1306.2352-.1176.0784-.1176.0784-.2352-.0131-.1176-.0914-.1176-.0914-.2221.0131-.0654.0653-.1176.1437-.1829.209-.0784.0785-.2091.0785-.2744-.0261-.0523-.0784-.1046-.1699-.1568-.2482-.0262-.0392-.0523-.0523-.0915-.0523-.1437 0-.1437 0-.196.1176-.0261.0522-.0392.0653-.0914.0392-.0915-.0262-.1829-.0654-.2744-.1176-.0392-.0131-.0523-.0392-.0523-.0784 0-.1568 0-.1568.1568-.1568.2613.0131.5357.0131.797.0131z"/></g></svg>