<svg fill="none" height="32" viewBox="0 0 32 32" width="32" xmlns="http://www.w3.org/2000/svg"><path d="m16.0415 31.9872c8.5835 0 15.5415-6.958 15.5415-15.5414 0-8.58338-6.958-15.541564-15.5415-15.541564-8.58332 0-15.5415 6.958184-15.5415 15.541564 0 8.5834 6.95818 15.5414 15.5415 15.5414z" fill="#fe0000"/><path d="m29.459 19.6497c-1.1152-.177-2.2656-.2124-3.3632.0354-5.6821 1.4515-3.5401 3.8765-4.797.4602 0-.0177-.4601-.3009-.4778-.3186-.0354-.0708-.0708-.1239-.1239-.177-.7082-1.0444-1.7703-1.8054-2.9916-2.1241-.0177-.0177-.0354-.0177-.0531-.0177-1.6816-.4603-3.5933-.1416-4.9563.9735-.4779.354-.9558.6018-1.3099 1.0798l-.1593.1239c-.0708.0708-.1062.1416-.1593.2124l-.2124.1947c-.3894.5664-.2832 1.0621-.5487 1.6993-.0708.0531-.0708.3009-.1593.2124-.30095-.3186-.60187-.6195-.93819-.8673-1.82321-1.5754-4.37216-2.018-6.69099-1.54-.08852 1.4161.67263 2.7436 1.50458 3.8234.90276 1.1152 1.96481 2.0709 3.11538 2.903.72575.5486 1.4869 1.0088 2.28345 1.4515.0531.0531.1062.0885.17701.0885.0354.0177.0708.0354.1062.0531.03541.0177.05311.0531.10621.0531.44255.2654.92045.4955 1.39835.6902 0 0 0 0 0-.0177v.0177c.0531.0354.1239.0708.1947.0708.0177.0354.0885.0708.124.0531 0 0 0 0-.0177.0177.0177.0177.0354.0354.0708.0354.0354.0177.0708.0354.1062.0354.0177.0177.0531.0354.0885.0354.0354.0177.0531.0354.0885.0354.0885.0533.1947.071.2832.1064.0531.0177.0885.0354.1416.0531.1239.0531.2832.1062.4248.1416 5.505 1.9116 11.7889-1.3276 15.2583-5.6113.0354-.0354.0531-.0708.0531-.1062.1239-.0708.2124-.2478.2655-.3717.0885-.1416.1947-.2832.2832-.4602.0177-.0177.0354-.0354.0354-.0531.0356-.0708.0887-.1241.1064-.1948.4424-.7788.9557-1.9471.7433-2.7967zm-22.48033 6.514c.0177 0 .0177 0 0 0zm3.18623-4.0536c.0177 0 .0177 0 0 0 .0177.0177 0 0 0 0zm.9735 6.4962c-.0177 0 0 0 0 0zm10.7622-.3363c-.0177 0 0 0 0 0z" fill="#fdfdfd"/><path d="m23.5466 2.76287c8.5675-8.03629 5.576 4.21285 3.9652 9.02753.6902 1.6816 1.6108 3.3986 1.8232 5.2749.0885.8497.2831 1.8409.1947 2.6375-2.3542-.4957-4.9563.0531-6.7972 1.6285-1.4869 1.5046-.5666.2301-2.0356-1.6816-2.9738-4.1421-8.8683-2.3366-10.3375 2.1772-.0531.1062-.0885.3717-.2301.1947-1.87632-2.1418-4.83239-2.9207-7.57605-2.3896-.05312-2.7083.97355-5.3634 2.00021-7.7885-1.18597-3.3986-2.56665-8.19559-1.06206-11.629587 1.41608-.99126 4.00043 1.734707 5.0625 2.619747 3.9296 4.35448 1.43379 1.43379 7.8593 1.64622 6.2662.12389 3.2039 2.53124 7.1334-1.71701z" fill="#fda000"/><path d="m8.07605 6.81647c-.33631.3009-.67263.60183-.97355.92045-.21241.23012-.42483.44253-.61954.67264-.2301.28322-.46023.58414-.69033.86736-.19471.26551-.37172.54873-.56644.79658-.0177.0177-.0177.0531-.0531.0531s-.0177-.0354-.0354-.0531c-.10621-.31864-.21242-.61957-.31862-.93819-.10621-.30092-.1947-.61954-.28322-.93816-.08851-.33632-.177-.67264-.26552-1.00896-.03539-.15931-.08849-.30092-.10619-.46023-.05312-.26553-.10621-.53103-.15931-.81425-.0354-.21241-.07081-.40714-.08851-.61955-.0177-.14161-.0354-.26552-.0531-.40711-.0177-.37174-.0531-.76116-.0354-1.13289 0-.19471.0354-.37172.0531-.56643.0354-.17701 0-.15931.21241-.14161.30091.0354.60183.12391.88505.24782.40712.15931.76115.38942 1.09747.65494.30092.24781.56642.53103.81424.83195.1239.15931.26551.33632.38942.49563s.24782.33632.35402.51333c.08851.15931.19472.33632.30091.49563.07082.12392.14161.26553.21241.40714.01772.08849-.0177.10619-.0708.12391z" fill="#fe7900"/><path d="m27.9366 3.0638c.0354.14162.0531.26551.0531.40712.0177.15931.0177.31862.0353.47793 0 .23012-.0176.46023-.0176.69034 0 .15931-.0177.30092-.0354.46023-.0354.30092-.0708.61954-.1239.92046-.0531.28322-.1062.58414-.1593.86734-.0708.30092-.1416.58414-.2301.88506-.1062.42483-.2478.84965-.3717 1.27448-.0531.17701-.1064.35402-.1595.51333-.0531.19471-.1416.37172-.1947.54871-.0177.0531-.0531.0531-.0708.0177-.1416-.21239-.2832-.4248-.4425-.63721-.0884-.12391-.1769-.24782-.2654-.35403-.1239-.15931-.2478-.31861-.3717-.46022-.177-.23012-.3719-.44253-.5666-.65493-.2124-.23013-.4248-.44254-.6371-.65496-.177-.17701-.3717-.33632-.5664-.51333-.0887-.07079-.0887-.07079-.0356-.17701.1595-.35401.3896-.69033.602-1.02665.1946-.31862.4247-.60184.6725-.90276.1416-.17701.3186-.33632.4781-.51333.1947-.21241.4425-.38942.6726-.54873.1946-.12391.3893-.26552.6017-.33633.2657-.1062.5135-.21241.7967-.23011.1062-.0177.1947-.0531.3009-.0531-.0177 0 .0177-.01769.0354 0z" fill="#fe7900"/><path d="m12.4305 17.3308c-.5133-.0177-1.0266-.1062-1.5399-.2124-.6727-.1593-1.34531-.3717-1.96485-.6726-.33632-.1593-.67263-.354-.95583-.6195-.12392-.124-.23013-.2479-.23013-.4426-.0177-.3717-.0354-.7434.0531-1.1151 0-.0354.01772-.0531.01772-.0885.12389-.3364.10619-.3187.47792-.2832.54873.053 1.02665.3009 1.50458.531.77889.3894 1.53999.8496 2.26569 1.3275.3363.2302.6373.4957.8674.832.0885.1416.1416.2655.177.4248.0177.1239-.0177.1593-.1239.2124-.177.1062-.354.1062-.5488.1062z" fill="#000"/><path d="m24.5556 14.9235c0 .2124-.0177.4071-.0354.6018 0 .0532-.0354.0885-.0708.1239-.2301.2656-.5132.4603-.8143.6373-.7257.4071-1.5223.6549-2.3365.8496-.3716.0886-.7435.1416-1.1152.177-.2301.0178-.4779.0178-.708-.0354-.0353-.0176-.0884-.0353-.1238-.053-.0708-.0354-.1062-.0886-.1062-.1948.0531-.2655.177-.4779.3362-.6726.2655-.3363.6195-.5841.9735-.8143.6373-.4071 1.2745-.8142 1.9473-1.1505.4247-.2124.8495-.4072 1.3099-.5134.1416-.0354.2832-.0354.4424-.0354.0531 0 .0885.0177.1062.0708.1416.2479.1593.5134.177.7966.0177.0885.0177.1416.0177.2124z" fill="#000"/><path d="m27.9367 3.06375c-.1592.03542-.3362.05312-.4955.08852-.177.0354-.3717.08851-.5312.17701-.0708.03539-.1593.07081-.2301.08851-.1062.0354-.177.08849-.2655.14159-.1769.10621-.3362.21243-.4955.33634-.1947.14159-.354.3009-.531.47793-.1595.14159-.2834.31862-.425.47793-.1062.12389-.1946.2655-.3008.38941-.0708.08852-.1416.19471-.2124.30092-.1416.17701-.2301.38942-.354.56643-.1062.17701-.2124.37173-.3009.54874-.0356.0708-.0533.12391.0177.17701-.0533 0-.071-.0354-.0887-.07081-.1062-.1062-.2301-.19471-.3363-.28321-.1946-.14161-.3539-.28322-.5663-.40713-.0885-.0531-.1593-.10621-.2301-.15931-.0531-.0354-.1062-.0708-.177-.1062-.0354-.01771-.0354-.05311-.0177-.07081.0708-.0885.1416-.15931.2124-.23011.0708-.07081.1416-.15931.2124-.21242.0885-.0708.1416-.15931.2478-.23011.0885-.05309.1416-.14161.2123-.2124.1062-.10622.2301-.21243.3363-.31862.1595-.14161.3011-.30092.4781-.42483.1239-.10622.2301-.21241.3717-.30093.0885-.05309.1593-.14161.2478-.1947.2123-.15931.4247-.33632.6548-.49563.2126-.14161.425-.30092.6551-.42483.177-.10622.3716-.21241.5486-.30092.1593-.0885.3363-.15931.4958-.23011.1416-.07081.3009-.10621.4425-.15931.0531-.0177.0708.0354.0885.0531.0708.15931.1416.30092.1947.46023s.0708.31862.1238.47793c.0177 0 .0177.0354.0177.07079z" fill="#fe8e00"/><path d="m8.07595 6.81643c.05312-.0531.05312-.10622-.0177-.21241-.05309-.08852-.10621-.15931-.12391-.26552 0-.0354-.0354-.0354-.0531-.0531-.10621-.17701-.2124-.35402-.31861-.53103-.0708-.12391-.15931-.23012-.23011-.33633-.10621-.15931-.21243-.30091-.31862-.44252-.15931-.19472-.31862-.38943-.49563-.56644-.12391-.10621-.21242-.23011-.35403-.33632s-.26551-.2301-.40712-.31862c-.12391-.08849-.26552-.15931-.38943-.26552-.0531-.0354-.14161-.0708-.19471-.0885-.24781-.10621-.49563-.2124-.76115-.26552-.12389-.0354-.26551-.0531-.38942-.07079-.07079 0-.08851.01769-.08851.08849 0 .0177 0 .03542-.0177.05312-.0177-.08852.0177-.15931.03542-.24783.05309-.2478.10619-.47793.2124-.70803.0354-.08852.0885-.15931.12392-.26552.01769-.0531.05309-.0708.10619-.0531.23012.08849.44253.17701.65494.2655.14161.07082.30092.14161.44253.23013.12391.07079.26552.14161.38943.2124.19471.12392.38942.24783.56643.37172.14161.08851.28322.19473.40713.30092.19471.15931.38942.31862.60182.47793.15931.12391.30092.26552.46023.38943.08852.0708.19471.15931.26553.24781.10621.10621.2301.19471.33631.30092.10622.10621.21241.21241.31862.31862.21241.19471.40714.40713.61954.60184.0531.0354.0531.0708 0 .10621-.12391.0885-.24782.15931-.37171.24781-.10622.07081-.21243.14161-.30092.2301-.12392.10622-.26553.21243-.40714.31864-.07079.0531-.14161.14159-.2301.19471-.0177.0531-.03542.0708-.07082.0708z" fill="#fe8e00"/><path d="m11.5454 11.6665c-.0531-.1062-.1593-.2301-.2124-.3009-.0885-.1062-.2301-.2655-.3718-.3717-.1416-.1063-.2655-.2125-.4248-.2833-.4071-.177-.81424-.1593-1.20366.0177-.31862.1416-.60185.3541-.79656.655-.0177.0177-.0177.0354-.0354.0531-.28322.4248-.28322.9558.0177 1.3629.0885.1239.19471.2302.37172.2479s.37174.0354.54875.053c.35402.0177.72575 0 1.07975-.0353.2478-.0354.4956-.0708.7435-.1594.1416-.0531.2478-.1062.3186-.2478.1593-.3363.1239-.6549-.0354-.9912z" fill="#f8fbf4"/><path d="m20.3606 12.6755c.0708.1416.1948.1947.3187.2478.2301.0885.4956.1239.7434.1593.354.0354.7257.0531 1.0798.0354.177 0 .3717-.0354.5487-.0531s.2832-.1239.3717-.2478c.3009-.4071.3009-.9382.0177-1.363-.0177-.0177-.0177-.0354-.0354-.0531-.1947-.3009-.4602-.5133-.7965-.6549-.3894-.1771-.7966-.2125-1.2037-.0177-.1593.0708-.3009.177-.4248.2832-.1416.1062-.2832.2655-.3717.3717-.0531.0708-.1594.2124-.2125.3009-.1593.3186-.1947.6373-.0354.9913z" fill="#f8fbf4"/><g fill="#000"><path d="m18.9269 26.2876c-.0708-.1062-.1239-.1947-.177-.3009-.0177-.0354-.0177-.0708-.0177-.1062 0-.4072 0-.8143 0-1.2214 0-.0708 0-.0885-.0885-.0708-.9558.1593-1.9116.2301-2.8852.177-.4779-.0177-.9559-.0708-1.4338-.1593-.0708-.0177-.0885 0-.0885.0708.0177.4071.0177.8319.0354 1.2391 0 .1593-.0885.2478-.1593.354-.0177.0354-.0354-.0177-.0531-.0354-.1239-.177-.2124-.3717-.2832-.5842-.0532-.1593-.1063-.3363-.1416-.4956-.0177-.0531-.0177-.0531-.0709-.0531-.0177 0-.0531 0-.0708 0-.177.0177-.177.0177-.2124-.1593-.0354-.1416-.0531-.2832-.0531-.4248 0-.0531-.0177-.0885-.0531-.1239-.0708-.0708-.1416-.1416-.2301-.2124-.0531-.0354-.0354-.0885-.0354-.124.0177-.0354.0531-.0177.0885-.0177h1.0444c.0531 0 .0885.0177.0885.0886 0 .0531.0177.0531.0708.0531.4956.0177 1.009.0177 1.5046.0354.0531 0 .0885-.0177.1062-.0531.0708-.1063.1416-.2125.1947-.3187.0531-.0885.0885-.1239.1947-.1062.0531.0177.0708-.0177.0708-.0708 0-.3009 0-.5841 0-.885 0-.0708-.0177-.0885-.0708-.1062-.4425-.177-.8496-.3895-1.2037-.7081-.2655-.2301-.4779-.4956-.5664-.8319-.0177-.0885-.0354-.1593-.0354-.2477 0-.248 0-.4958 0-.7259 0-.4248.3186-.7434.7257-.7434h2.4605c.3186 0 .7789.354.7789.7965 0 .2301 0 .4602-.0177.6905-.0177.5309-.2478.9557-.6373 1.292-.2478.2124-.531.3718-.8496.478-.0531.0177-.0708.0354-.0708.0885v.9027c0 .0531.0177.0708.0708.0708.1062-.0177.1593.0177.2124.1062.0531.1062.1239.1947.1947.301.0177.0354.0531.0531.0885.0531.4248 0 .8497 0 1.2744.0177.0708 0 .0885-.0531.1239-.0885.0354-.0531.0708-.0709.1239-.0709h.956c.0885 0 .0885.0178.0708.0886-.0885.3009-.1593.6018-.2301.9204-.0177.0531-.0354.0885-.1062.0885-.2301 0-.2301 0-.3186.2124-.0708.2832-.1947.6019-.3188.9205z"/><path d="m16.3247 25.0662h1.2037c.0708 0 .0885.0177.0885.0885 0 .2124 0 .2124-.177.3186-.1593.1062-.1593.1062-.3187-.0177-.1593-.1239-.1593-.1239-.3009.0177-.0885.0885-.1593.1947-.2478.2832-.1062.1064-.2832.1064-.3717-.0354-.0708-.1062-.1416-.2301-.2124-.3363-.0354-.0531-.0708-.0708-.124-.0708-.1947 0-.1947 0-.2655.1593-.0354.0708-.0531.0885-.1239.0531-.1239-.0354-.2478-.0885-.3717-.1593-.0531-.0177-.0708-.0531-.0708-.1062 0-.2124 0-.2124.2124-.2124.354.0177.7258.0177 1.0798.0177z"/></g></svg>