<svg fill="none" height="32" viewBox="0 0 32 32" width="32" xmlns="http://www.w3.org/2000/svg"><path d="m16 0c-8.83657 0-16 7.16343-16 16 0 8.8366 7.16343 16 16 16 8.8366 0 16-7.1634 16-16 0-8.83657-7.1634-16-16-16z" fill="#000"/><g fill="#fff"><path d="m7.54297 8.077v16.803h14.60703v-1.774h-12.58103v-13.256h12.58103v-1.773z"/><path d="m22.0371 21.6711c2.9832 0 4.0246-1.6887 4.0246-3.1522 0-1.6042-.9006-2.5893-2.73-2.927l-1.8857-.3377c-.591-.1126-1.2946-.3378-1.2946-1.0695 0-.8725.8725-1.1821 1.6886-1.1821 1.0695 0 1.6605.3659 1.8576 1.1539h1.9982c-.197-1.773-1.6324-2.8988-3.7995-2.8988-2.5892 0-3.7713 1.4916-3.7713 2.9833 0 1.4916.9006 2.4204 2.5611 2.73l1.9138.3377c.7036.1126 1.3791.3659 1.3791 1.2946 0 .788-.7318 1.2947-1.8857 1.2947-1.3227 0-2.1108-.5066-2.2796-1.4635h-1.9983c.2533 2.0545 1.7731 3.2366 4.2217 3.2366z"/></g></svg>