<svg xmlns="http://www.w3.org/2000/svg" width="32" height="32" fill="none"><path fill="#000" d="M16 0C7.163 0 0 7.163 0 16s7.163 16 16 16 16-7.163 16-16S24.837 0 16 0Z"/><path fill="#fff" d="M7.543 8.077V24.88H22.15v-1.774H9.569V9.85H22.15V8.077H7.543Z"/><path fill="#fff" d="M22.037 21.671c2.983 0 4.025-1.689 4.025-3.152 0-1.604-.9-2.59-2.73-2.927l-1.886-.338c-.591-.112-1.295-.338-1.295-1.07 0-.872.873-1.181 1.689-1.181 1.07 0 1.66.365 1.858 1.153h1.998c-.197-1.773-1.633-2.898-3.8-2.898-2.589 0-3.771 1.491-3.771 2.983s.9 2.42 2.561 2.73l1.914.338c.703.112 1.379.366 1.379 1.294 0 .788-.732 1.295-1.886 1.295-1.322 0-2.11-.507-2.28-1.463h-1.998c.254 2.054 1.773 3.236 4.222 3.236Z"/></svg>