<svg fill="none" height="32" viewBox="0 0 32 32" width="32" xmlns="http://www.w3.org/2000/svg"><circle cx="16" cy="16" fill="#131625" r="16"/><path d="m16 2c-7.72851 0-14 6.27149-14 14 0 7.7285 6.27149 14 14 14 7.7285 0 14-6.2715 14-14 0-7.72851-6.2715-14-14-14zm10.1674 15.6154c0-.3168.2534-.5702.5702-.5702.3167 0 .5701.2534.5701.5702 0 .3167-.2534.5701-.5701.5701-.3168 0-.5702-.2534-.5702-.5701zm-11.7828-11.11766c0-.88688.7285-1.61539 1.6154-1.61539s1.6154.72851 1.6154 1.61539c0 .88687-.7285 1.61538-1.6154 1.61538-.8869-.03167-1.6154-.76018-1.6154-1.61538zm1.6154 2.78733c.5068 0 .9819-.1267 1.362-.34842-.6968.79186-1.2036 1.77375-1.362 2.85065-.19-1.0769-.6652-2.05879-1.362-2.85065.4118.22172.8552.34842 1.362.34842zm0 4.40273c.2534 1.4887 1.0452 2.7873 2.2172 3.6425-.6652-.2851-1.4253-.4434-2.2172-.4434s-1.5204.1583-2.2172.4434c1.1403-.8869 1.9638-2.1855 2.2172-3.6425zm0 4.6244c2.3756 0 4.3077 1.9321 4.3077 4.3077s-1.9321 4.3077-4.3077 4.3077-4.3077-1.9321-4.3077-4.3077 1.9321-4.3077 4.3077-4.3077zm-5.5113 2.629c0-.0634 0-.1267 0-.1901 0-.9819-.53847-1.8687-1.29865-2.3755.38009.0633.7285.1267 1.14025.1267.7919 0 1.5204-.1584 2.2172-.4435-.9819.6969-1.6787 1.7104-2.0588 2.8824zm8.9638-2.9141c.6651.2851 1.4253.4435 2.2172.4435.3801 0 .7602-.0317 1.1403-.1267-.7919.5068-1.2987 1.362-1.2987 2.3756v.19c-.3801-1.1403-1.1086-2.1538-2.0588-2.8824zm6.0181.1584c-.3484-.1584-.7602-.2534-1.172-.2534-.0633 0-.1267 0-.19 0 .5068-.2217.9502-.5384 1.362-.8869-.095.1584-.1267.3485-.1267.5702 0 .19.0317.4117.1267.5701zm-3.8009-1.1403c-2.3756 0-4.3077-1.9321-4.3077-4.3076 0-2.3756 1.9321-4.30774 4.3077-4.30774 2.3755 0 4.3077 1.93214 4.3077 4.30774 0 2.3755-1.9322 4.3076-4.3077 4.3076zm-3.3892-8.96375c.3168-.44344.5068-1.01358.5068-1.61539 0 0 0 0 0-.03167.2217.44344.6335.72851 1.1403.79185-.6018.22172-1.1403.50679-1.6471.85521zm1.7738-1.67874c-.3167 0-.5701-.25339-.5701-.57013s.2534-.57014.5701-.57014.5701.2534.5701.57014-.2534.57013-.5701.57013zm-1.3937-.76018c-.2534-.8552-.9185-1.52036-1.742-1.80543 1.0452.06335 2.0271.28507 2.9773.60181-.6335.06335-1.1402.57014-1.2353 1.20362zm-5.3212-.03167c-.0951-.63348-.6018-1.1086-1.2353-1.17195.9502-.31674 1.9321-.53846 2.9773-.60181-.8552.28507-1.4886.95023-1.742 1.77376zm-1.3937-.31674c.3167 0 .5701.25339.5701.57013 0 .31675-.2534.57014-.5701.57014s-.5701-.25339-.5701-.57014c0-.31674.2534-.57013.5701-.57013zm1.2353 1.20362c0 .57013.19 1.10859.4751 1.58371-.4751-.34842-1.0452-.63349-1.6154-.82353.5068-.06335.9186-.34842 1.1403-.76018zm1.457 6.23986c0 2.3755-1.9321 4.3076-4.3077 4.3076-2.37555 0-4.30768-1.9321-4.30768-4.3076 0-2.3756 1.93213-4.30774 4.30768-4.30774 2.3756 0 4.3077 1.93214 4.3077 4.30774zm-8.10859 4.3076c.41177.3485.88688.6652 1.36199.8869-.06335 0-.12669 0-.19004 0-.41177 0-.82353.095-1.17195.2534.09502-.19.1267-.3801.1267-.6018 0-.19-.03168-.3801-.1267-.5385zm-1.26697 1.1403c-.31674 0-.57013-.2534-.57013-.5701 0-.3168.25339-.5702.57013-.5702.31675 0 .57014.2534.57014.5702-.03168.3167-.28507.5701-.57014.5701zm0 .8235c.09503 0 .19005 0 .28507-.0316-.38009.4751-.63348 1.0769-.63348 1.7421 0 .19.03167.3484.06335.5384-.47512-.9819-.79186-1.9955-.9819-3.1041.19004.5068.66515.8552 1.26696.8552zm2.43892.1267c.88687 0 1.61538.7286 1.61538 1.6154 0 .8869-.72851 1.6154-1.61538 1.6154-.88688 0-1.61539-.7285-1.61539-1.6154 0-.8868.72851-1.6154 1.61539-1.6154zm2.59724 2.629c-.0316.2851-.0633.5701-.0633.8552 0 .4434.0633.8552.1267 1.2353-.2217-.3801-.66517-.6335-1.17195-.6335-.06335 0-.1267 0-.22172.0317.60181-.3484 1.07687-.8552 1.33027-1.4887zm-1.10855 2.2805c.31674 0 .57013.2534.57013.5702 0 .3167-.25339.5701-.57013.5701-.31675 0-.57014-.2534-.57014-.5701 0-.3168.25339-.5702.57014-.5702zm0 1.9638c.76018 0 1.39365-.6334 1.39365-1.3936.6335 1.7104 2.0272 3.009 3.7692 3.5475-1.9954-.2851-3.8642-1.0136-5.41625-2.1539zm12.28955-1.647c0 .095-.0316.1584-.0316.2534 0 .7602.6334 1.3936 1.3936 1.3936h.1901c-1.5837 1.1086-3.4208 1.8688-5.4163 2.1222 1.8371-.5384 3.2941-1.9638 3.8642-3.7692zm1.3937.8235c-.3167 0-.5701-.2534-.5701-.5701 0-.3168.2534-.5702.5701-.5702s.5701.2534.5701.5702c0 .3167-.2534.5701-.5701.5701zm0-1.9638c-.6018 0-1.1086.3801-1.2986.8869.1267-.4751.19-.9502.19-1.4887 0-.2851-.0317-.5701-.0633-.8552.2534.6335.7285 1.1403 1.2986 1.457-.0633 0-.095 0-.1267 0zm-.19-2.5022c0-.8869.7285-1.6154 1.6153-1.6154.8869 0 1.6154.7285 1.6154 1.6154 0 .8868-.7285 1.6153-1.6154 1.6153-.8868 0-1.6153-.7285-1.6153-1.6153zm4.0543-1.7105c.5701 0 1.0769-.3484 1.2986-.8235-.19 1.0769-.5385 2.1222-.9819 3.1041.0317-.1584.0633-.3484.0633-.5385 0-.6651-.2217-1.2669-.6334-1.7421zm0-2.819c-.2218 0-.4118.0634-.6019.1267.7919-.9819 1.2987-2.2488 1.2987-3.6108 0-.5702-.095-1.1086-.2217-1.6154.6651 1.4887 1.0452 3.1674 1.0452 4.9095 0 .4751-.0317.9502-.095 1.3937-.1267-.6652-.6968-1.2037-1.4253-1.2037zm-.9503-7.47507c-1.0452-1.07692-2.5022-1.74208-4.1176-1.74208-.3168 0-.6018.03167-.8869.06335.4118-.25339.6968-.69683.6968-1.20362 0-.34842-.1267-.66516-.3484-.91855 1.8371.88687 3.4525 2.18552 4.6561 3.8009zm-14.9185-3.76923c-.2217.25339-.3484.57014-.3484.91855 0 .50679.285.95023.6968 1.20362-.2851-.03167-.6018-.06335-.8869-.06335-1.61537 0-3.07238.66516-4.11763 1.74209 1.20362-1.64706 2.819-2.94571 4.65613-3.80091zm-6.0498 6.1765c-.15837.5068-.22172 1.0452-.22172 1.6154 0 1.3619.47512 2.6289 1.29865 3.6108-.19005-.095-.38009-.1267-.60181-.1267-.72851 0-1.29865.5385-1.39367 1.2353-.06335-.4751-.09502-.9185-.09502-1.3937-.03167-1.7737.34842-3.4524 1.01357-4.9411zm1.01358 11.6878c.50679.4434 1.14027.6968 1.86878.6968.25339 0 .47511-.0317.69683-.095-.38009.2534-.63348.6968-.63348 1.1719 0 .1901.03167.3801.12669.5701-.76018-.6651-1.45701-1.457-2.05882-2.3438zm18.33932 2.2805c.0634-.1584.0951-.3167.0951-.4751 0-.4751-.2218-.8869-.6018-1.1403.19.0317.4117.0634.6334.0634.7285 0 1.362-.2534 1.8688-.6969-.5701.8236-1.2353 1.5837-1.9955 2.2489z" fill="#fff"/></svg>