<svg fill="none" height="32" viewBox="0 0 32 32" width="32" xmlns="http://www.w3.org/2000/svg"><path d="m16 32c8.8366 0 16-7.1634 16-16 0-8.83656-7.1634-16-16-16-8.83656 0-16 7.16344-16 16 0 8.8366 7.16344 16 16 16z" fill="#5b6dee"/><path d="m13.3 15.02c-.5579-.0029-1.1149.0453-1.664.144.452-4.18 3.936-7.34601 8.084-7.34601 2.54 0 4.28 1.244 4.28 3.81801 0 2.575-2.089 3.819-5.136 3.819-2.25 0-3.314-.434-5.564-.434zm-.164 1.525c-3.047 0-5.136 1.245-5.136 3.819s1.74 3.818 4.28 3.818c4.148 0 7.632-3.165 8.084-7.346-.5491.0987-1.1061.1469-1.664.144-2.25 0-3.315-.435-5.564-.435z" fill="#fff"/></svg>