<svg xmlns="http://www.w3.org/2000/svg" width="32" height="32" fill="none"><path fill="#5B6DEE" d="M16 32c8.837 0 16-7.163 16-16S24.837 0 16 0 0 7.163 0 16s7.163 16 16 16Z"/><path fill="#fff" d="M13.3 15.02a9.137 9.137 0 0 0-1.664.144c.452-4.18 3.936-7.346 8.084-7.346 2.54 0 4.28 1.244 4.28 3.818 0 2.575-2.089 3.819-5.136 3.819-2.25 0-3.314-.434-5.564-.434v-.001Zm-.164 1.525C10.089 16.545 8 17.79 8 20.364s1.74 3.818 4.28 3.818c4.148 0 7.632-3.165 8.084-7.346a9.137 9.137 0 0 1-1.664.144c-2.25 0-3.315-.435-5.564-.435Z"/></svg>