<svg xmlns="http://www.w3.org/2000/svg" width="32" height="32" fill="none"><defs><linearGradient id="snx__a" x1="16" x2="16" y1="0" y2="46.788" gradientUnits="userSpaceOnUse"><stop stop-color="#08021E"/><stop offset="1" stop-color="#1F0777"/></linearGradient></defs><path fill="url(#snx__a)" d="M16 32c8.837 0 16-7.163 16-16S24.837 0 16 0 0 7.163 0 16s7.163 16 16 16Z"/><path fill="#00D1FF" d="M10.729 12.022a.674.674 0 0 0-.527-.245H5.928a.123.123 0 0 1-.092-.036.11.11 0 0 1-.036-.08v-2.88a.11.11 0 0 1 .036-.078.124.124 0 0 1 .092-.036h4.516c1.14 0 2.123.466 2.949 1.397l1.097 1.338-2.137 2.607-1.624-1.987Zm7.892-1.973c.827-.922 1.814-1.382 2.963-1.382h4.502c.038 0 .067.01.086.028.018.02.028.048.028.086v2.88a.13.13 0 0 1-.028.08c-.02.024-.048.036-.086.036h-4.274a.673.673 0 0 0-.527.245l-3.148 3.83 3.162 3.86a.68.68 0 0 0 .514.23h4.273c.038 0 .067.012.086.036.02.027.03.06.028.093v2.88a.13.13 0 0 1-.028.08c-.02.024-.048.036-.086.036h-4.501c-1.15 0-2.133-.466-2.95-1.397l-2.62-3.197-2.622 3.197c-.826.931-1.814 1.397-2.963 1.397H5.928c-.038 0-.067-.013-.085-.036a.145.145 0 0 1-.029-.094v-2.88a.13.13 0 0 1 .029-.08c.018-.024.047-.035.085-.035h4.274a.7.7 0 0 0 .527-.245l3.091-3.773 4.802-5.875Z"/></svg>