<svg fill="none" height="32" viewBox="0 0 32 32" width="32" xmlns="http://www.w3.org/2000/svg" xmlns:xlink="http://www.w3.org/1999/xlink"><linearGradient id="a" gradientUnits="userSpaceOnUse" x1="16" x2="16" y1="0" y2="46.788"><stop offset="0" stop-color="#08021e"/><stop offset="1" stop-color="#1f0777"/></linearGradient><path d="m16 32c8.8366 0 16-7.1634 16-16 0-8.83656-7.1634-16-16-16-8.83656 0-16 7.16344-16 16 0 8.8366 7.16344 16 16 16z" fill="url(#a)"/><path d="m10.729 12.0218c-.1428-.1631-.3182-.2449-.5271-.2449h-4.27385c-.01704.0007-.03404-.0022-.04993-.0084-.01588-.0061-.03032-.0156-.04238-.0276-.01101-.0101-.01985-.0223-.02598-.0359-.00614-.0136-.00944-.0283-.00971-.0432v-2.88c.00032-.01491.00365-.02959.00978-.04318s.01495-.0258.02591-.0359c.01206-.01205.0265-.02147.04238-.02767.01589-.0062.03289-.00903.04993-.00833h4.51595c1.1397 0 2.1228.46585 2.949 1.39688l1.0969 1.3388-2.1366 2.6065-1.6246-1.9871zm7.8923-1.9726c.8264-.92186 1.8141-1.38248 2.9631-1.38248h4.5015c.0381 0 .0668.00954.0858.02862.0185.01938.0283.048.0283.08615v2.88031c0 .0286-.0095.0554-.0283.0791-.0193.024-.0477.036-.0855.036h-4.2738c-.209 0-.3847.0818-.5271.2449l-3.1483 3.8308 3.1624 3.8587c.1428.1539.3133.2308.5133.2308h4.2735c.0378 0 .0665.012.0855.036.0198.027.0297.0599.0283.0932v2.88c0 .029-.0095.0554-.0283.0794-.0193.024-.0477.036-.0855.036h-4.5015c-1.1496 0-2.1323-.4655-2.9493-1.3969l-2.6209-3.1969-2.6215 3.1969c-.8262.9314-1.8139 1.3969-2.9631 1.3969h-4.50154c-.03816 0-.06708-.0123-.08585-.036-.02003-.027-.03003-.0602-.02831-.0938v-2.88c0-.0289.00923-.0554.02831-.0794.01877-.024.04769-.036.08554-.036h4.27385c.1994 0 .3748-.0812.5271-.2449l3.091-3.7723 4.8016-5.8751z" fill="#00d1ff"/></svg>