<svg width="32" height="32" fill="none" xmlns="http://www.w3.org/2000/svg"><circle cx="16" cy="16" r="16" fill="#000"/><path d="M9.338 20.102a.646.646 0 0 1 .456-.19H25.59c.288 0 .432.349.229.552l-3.122 3.119a.646.646 0 0 1-.456.189H6.445a.323.323 0 0 1-.228-.552l3.12-3.118Z" fill="url(#a)"/><path d="M9.338 8.45a.646.646 0 0 1 .456-.189H25.59c.288 0 .432.348.229.552l-3.122 3.118a.646.646 0 0 1-.456.19H6.445a.323.323 0 0 1-.228-.552l3.12-3.119Z" fill="url(#b)"/><path d="M22.697 14.239a.645.645 0 0 0-.456-.19H6.445a.323.323 0 0 0-.228.552l3.12 3.119a.646.646 0 0 0 .457.189H25.59a.323.323 0 0 0 .229-.551l-3.122-3.12Z" fill="url(#c)"/><defs><linearGradient id="a" x1="19.502" y1="4.007" x2="8.57" y2="24.946" gradientUnits="userSpaceOnUse"><stop stop-color="#00FFA3"/><stop offset="1" stop-color="#DC1FFF"/></linearGradient><linearGradient id="b" x1="19.502" y1="4.007" x2="8.57" y2="24.946" gradientUnits="userSpaceOnUse"><stop stop-color="#00FFA3"/><stop offset="1" stop-color="#DC1FFF"/></linearGradient><linearGradient id="c" x1="19.502" y1="4.007" x2="8.57" y2="24.946" gradientUnits="userSpaceOnUse"><stop stop-color="#00FFA3"/><stop offset="1" stop-color="#DC1FFF"/></linearGradient></defs></svg>