<svg fill="none" height="32" viewBox="0 0 32 32" width="32" xmlns="http://www.w3.org/2000/svg" xmlns:xlink="http://www.w3.org/1999/xlink"><linearGradient id="a" gradientUnits="userSpaceOnUse" x1="19.5022" x2="8.57016" y1="4.00667" y2="24.946"><stop offset="0" stop-color="#00ffa3"/><stop offset="1" stop-color="#dc1fff"/></linearGradient><circle cx="16" cy="16" fill="#000" r="16"/><g fill="url(#a)"><path d="m9.33789 20.1017c.1211-.121.28529-.189.45649-.189h15.79582c.2878 0 .4318.3479.2283.5513l-3.1213 3.1188c-.1211.121-.2852.1889-.4564.1889h-15.7959c-.28775 0-.4318-.3479-.22824-.5513z"/><path d="m9.33789 8.45026c.1211-.12101.28529-.18898.45649-.18898h15.79582c.2878 0 .4318.34795.2283.55134l-3.1213 3.11878c-.1211.121-.2852.1889-.4564.1889h-15.7959c-.28775 0-.4318-.3479-.22824-.5513z"/><path d="m22.6972 14.2389c-.1211-.1211-.2852-.189-.4564-.189h-15.7959c-.28775 0-.4318.3479-.22824.5513l3.12123 3.1188c.1211.121.28529.1889.45649.1889h15.79582c.2878 0 .4318-.3479.2283-.5513z"/></g></svg>