<svg xmlns="http://www.w3.org/2000/svg" width="32" height="32" fill="none"><path fill="#262626" d="M16 32c8.837 0 16-7.163 16-16S24.837 0 16 0 0 7.163 0 16s7.163 16 16 16Z"/><path fill="#fff" d="M15.632 24.497a7.055 7.055 0 0 1-3.992-1.1A4.801 4.801 0 0 1 9.663 17.9a3.688 3.688 0 0 1 2.436-2.457 25.992 25.992 0 0 1 3.777-1.105c.716-.173 1.41-.422 2.072-.744a1.495 1.495 0 0 0 1.008-1.344A1.603 1.603 0 0 0 18 10.681a3.844 3.844 0 0 0-3.692.13 2.125 2.125 0 0 0-1.002 1.456c-.042.194-.116.257-.313.254a116.91 116.91 0 0 0-2.688 0c-.207 0-.288-.015-.245-.275a5.061 5.061 0 0 1 3.528-4.282 7.9 7.9 0 0 1 5.855.208 4.643 4.643 0 0 1 2.774 4.98 3.356 3.356 0 0 1-1.525 2.365 10.057 10.057 0 0 1-3.186 1.33c-1.05.301-2.14.448-3.166.84a2.727 2.727 0 0 0-.896.455 1.987 1.987 0 0 0-.255 2.492 2.318 2.318 0 0 0 1.646 1.024 5.176 5.176 0 0 0 2.039-.036 3.402 3.402 0 0 0 2.592-2.363.28.28 0 0 1 .318-.236l.009.001c.96.007 1.918.013 2.877 0 .258-.004.262.093.224.3a6.03 6.03 0 0 1-4.848 4.92c-.79.19-1.602.275-2.414.253Z"/></svg>