<svg fill="none" height="32" viewBox="0 0 32 32" width="32" xmlns="http://www.w3.org/2000/svg"><path d="m16 32c8.8366 0 16-7.1634 16-16 0-8.83656-7.1634-16-16-16-8.83656 0-16 7.16344-16 16 0 8.8366 7.16344 16 16 16z" fill="#262626"/><path d="m15.6317 24.4965c-1.4105.041-2.8009-.3419-3.9915-1.0992-.8885-.5714-1.5637-1.4199-1.92105-2.4139-.35737-.9941-.37695-2.0783-.0557-3.0846.17413-.5775.48725-1.1035.91195-1.5319s.948-.7461 1.524-.9253c1.2293-.4632 2.4919-.8325 3.777-1.1048.7153-.1729 1.41-.4222 2.072-.7436.2834-.0972.531-.2773.7108-.5169.1797-.2397.2833-.5278.2972-.8271.0206-.3278-.0601-.6541-.231-.9345-.171-.2805-.4241-.5016-.7249-.6334-.5769-.2903-1.2176-.4305-1.8629-.4078-.6454.0227-1.2746.2076-1.8296.5377-.2616.1567-.4864.3678-.6592.6191-.1729.2512-.2897.5366-.3426.8369-.0426.1937-.1165.2564-.3136.2536-.896-.0111-1.792-.0095-2.6879 0-.2072 0-.2879-.0145-.2447-.2749.1072-.9797.4982-1.9068 1.1249-2.66754.6267-.76069 1.4618-1.32187 2.4029-1.61468 1.9063-.68358 4.0023-.60901 5.8551.20832.9504.40352 1.7391 1.11231 2.2416 2.0143.5024.902.6898 1.9457.5326 2.9662-.0679.481-.2393.9416-.5026 1.3499s-.612.7545-1.0222 1.0149c-.9775.6237-2.0555 1.0737-3.1863 1.33-1.05.3012-2.1391.448-3.1656.84-.3242.0948-.6281.2489-.896.4547-.3222.323-.5234.747-.5699 1.2009s.0646.9099.3146 1.2915c.1842.2793.4267.5153.7108.692s.603.2898.935.3316c.6752.1234 1.3683.1112 2.0388-.0358.6061-.1214 1.1676-.4055 1.6243-.822.4567-.4164.7913-.9494.9679-1.5417.011-.0735.0507-.1395.1104-.1837s.1345-.0628.2079-.0518l.0087.0014c.9593.0067 1.9185.0123 2.8772 0 .2576-.0045.2621.0924.224.3002-.2067 1.2179-.7826 2.3429-1.6496 3.2229-.867.8799-1.9834 1.4723-3.1982 1.6971-.7903.1895-1.6021.2742-2.4146.2519z" fill="#fff"/></svg>