<svg fill="none" height="32" viewBox="0 0 32 32" width="32" xmlns="http://www.w3.org/2000/svg" xmlns:xlink="http://www.w3.org/1999/xlink"><clipPath id="a"><path d="m0 0h32v32h-32z"/></clipPath><g clip-path="url(#a)"><path d="m16.0001 31.9661c8.7991 0 15.9322-7.1483 15.9322-15.9661 0-8.81783-7.1331-15.966095-15.9322-15.966095-8.79914 0-15.9322289 7.148265-15.9322289 15.966095 0 8.8178 7.1330889 15.9661 15.9322289 15.9661z" fill="#a80005"/><path d="m16.0001 30.7119c4.2685 0 7.7288-6.5868 7.7288-14.7119 0-8.12513-3.4603-14.71185-7.7288-14.71185-4.2686 0-7.72886 6.58672-7.72886 14.71185 0 8.1251 3.46026 14.7119 7.72886 14.7119z" fill="#a80005"/><path d="m30.7965 15.986c.1743 7.7771-6.3204 14.8196-14.8006 14.814-8.46623-.0084-14.88563-7.048-14.795-14.8419.09481-8.22268 6.59787-14.76367 14.8564-14.75808 8.1776.00562 14.7392 6.58708 14.7392 14.78598zm-16.9618 12.4744c.0781-.0167.1548-.0335.2329-.0488-.106-4.4068-.5145-8.8275.6079-13.1212-.1938-.1689-.2831-.2891-.4015-.3436-.6108-.2821-1.2201-.5684-1.8475-.8128-1.1015-.4289-1.5268-1.1664-1.3288-2.489.2426.1173.4601.2318.686.3296.7432.3226 1.4738.6858 2.2379.9456 1.0136.345 1.2116.6075 1.0541 1.69-.1074.7361-.2441 1.4708-.2998 2.2125-.0516.6774.5884 1.6035 1.1029 1.7138.4461.0964 1.1349-.4805 1.3525-1.2166.0878-.2961.0488-.6411.0167-.9595-.0725-.7403-.1896-1.475-.2622-2.2153-.0627-.6327.2706-.9652.8575-1.1732.8283-.292 1.63-.6607 2.4415-.9987.2217-.0923.4406-.1956.6888-.3073.1143 1.4931-.2649 2.056-1.531 2.5253-.6845.2542-1.3371.5937-2.0928.9358 1.1279 4.4641.6999 8.8959.7654 13.3348.3277-.3729.5564-.7654.7585-1.1704.1758-.3535.3166-.7235.4797-1.0839.7752-1.7153 1.5826-3.4165 2.3103-5.1512.226-.5406.3236-1.1706.3305-1.7614.0321-2.9094.0293-5.8188.0055-8.7283-.0055-.69416-.0222-1.42328-.2328-2.07134-.3765-1.15931-.7138-2.40661-1.4096-3.36897-1.2521-1.73198-3.1651-2.20547-5.2273-1.9359-1.6467.2151-3.1023.96236-3.8496 2.46108-.785 1.57414-1.28284 3.28939-1.2703 5.10373.0196 2.8633-.0042 5.7253.0168 8.5886.0028.4568.0529.9498.2314 1.3605 1.0332 2.3871 2.1068 4.7559 3.1763 7.1276.1003.2234.2649.4204.4001.6285z" fill="#000"/></g></svg>