<svg xmlns="http://www.w3.org/2000/svg" width="32" height="32" fill="none"><path fill="#000" stroke="#fff" stroke-opacity=".035" d="M15.932 31.39c8.425 0 15.254-6.89 15.254-15.39S24.356.61 15.932.61.678 7.5.678 16s6.83 15.39 15.254 15.39Z"/><path fill="#FB2715" d="M31.796 15.985c.187 8.303-6.747 15.821-15.8 15.815C6.957 31.791.104 24.276.2 15.955.302 7.177 7.245.194 16.061.2c8.73.006 15.735 7.032 15.735 15.785ZM13.69 29.302l.248-.052c-.113-4.704-.55-9.424.65-14.008-.208-.18-.303-.308-.43-.366-.652-.301-1.302-.607-1.972-.868-1.176-.458-1.63-1.245-1.418-2.657.258.125.49.247.732.352.793.344 1.573.732 2.389 1.009 1.082.368 1.293.649 1.125 1.804-.114.786-.26 1.57-.32 2.362-.055.724.628 1.712 1.178 1.83.476.103 1.211-.513 1.443-1.299.094-.316.053-.684.018-1.024-.077-.79-.202-1.575-.28-2.365-.066-.676.29-1.03.916-1.253.884-.311 1.74-.705 2.606-1.066.237-.098.47-.209.736-.328.122 1.594-.283 2.195-1.635 2.696-.73.271-1.427.634-2.234.999 1.204 4.766.747 9.497.817 14.236.35-.398.594-.817.81-1.25.188-.377.338-.772.512-1.157.828-1.83 1.69-3.647 2.467-5.5.24-.576.345-1.249.352-1.88.035-3.105.032-6.211.006-9.317-.006-.742-.024-1.52-.248-2.212-.402-1.238-.762-2.57-1.505-3.596-1.337-1.85-3.38-2.355-5.58-2.067-1.759.23-3.313 1.027-4.11 2.627-.838 1.68-1.37 3.512-1.357 5.449.021 3.057-.004 6.112.018 9.169.003.487.057 1.014.247 1.452 1.103 2.548 2.25 5.077 3.391 7.61.107.238.283.448.428.67Z"/></svg>