<svg fill="none" height="32" viewBox="0 0 32 32" width="32" xmlns="http://www.w3.org/2000/svg"><path d="m15.9322 31.3898c8.4247 0 15.2543-6.8902 15.2543-15.3898 0-8.49957-6.8296-15.389832-15.2543-15.389832-8.42467 0-15.254221 6.890262-15.254221 15.389832 0 8.4996 6.829551 15.3898 15.254221 15.3898z" fill="#000" stroke="#fff" stroke-opacity=".035176"/><path d="m31.7963 15.9851c.1862 8.3026-6.7474 15.8209-15.8006 15.8149-9.03833-.0089-15.891491-7.5241-15.794737-15.8447.10122-8.77833 7.043697-15.76131 15.860237-15.755345 8.7301.005965 15.7351 7.032185 15.7351 15.785145zm-18.1078 13.3173c.0833-.018.1652-.0357.2486-.0523-.1132-4.7045-.5493-9.4238.649-14.0076-.207-.1804-.3022-.3087-.4287-.3668-.652-.3012-1.3025-.6069-1.9723-.8679-1.176-.4577-1.63-1.2451-1.4186-2.6572.259.1253.4912.2476.7324.352.7933.3444 1.5733.7321 2.389 1.0094 1.0822.3684 1.2936.6487 1.1254 1.8043-.1146.7858-.2605 1.5702-.3201 2.362-.0551.7232.6282 1.7118 1.1775 1.8296.4763.1029 1.2116-.513 1.4438-1.2988.0938-.3161.0521-.6844.0179-1.0244-.0774-.7903-.2024-1.5746-.2798-2.3649-.067-.6755.2887-1.0304.9154-1.2526.8842-.3116 1.7401-.7053 2.6063-1.0661.2368-.0985.4705-.2088.7355-.3281.1221 1.594-.2828 2.195-1.6345 2.696-.7308.2714-1.4275.6337-2.2342.999 1.2042 4.7657.7472 9.497.8172 14.2358.3497-.3981.5939-.817.8097-1.2496.1876-.3772.3379-.7724.5121-1.1569.8275-1.8312 1.6894-3.6475 2.4664-5.4994.2411-.5771.3454-1.2496.3529-1.8803.0342-3.1061.0312-6.2121.006-9.3181-.006-.7411-.0239-1.51947-.2486-2.21135-.402-1.23766-.7623-2.56923-1.5051-3.59662-1.3366-1.849-3.3789-2.3545-5.5804-2.06671-1.7579.22963-3.3119 1.0274-4.1098 2.62737-.838 1.68051-1.36943 3.51162-1.35604 5.44861.02084 3.0568-.00446 6.1121.01786 9.169.00298.4876.05656 1.014.24709 1.4522 1.10299 2.5484 2.24919 5.0774 3.39089 7.6093.1071.2386.2828.449.4272.6711z" fill="#fb2715"/></svg>