<svg xmlns="http://www.w3.org/2000/svg" width="32" height="32" fill="none"><defs><clipPath id="spartaold__a"><path fill="#fff" d="M0 0h32v32H0z"/></clipPath></defs><g clip-path="url(#spartaold__a)"><path fill="#A80005" d="M16 31.966c8.8 0 15.932-7.148 15.932-15.966S24.8.034 16 .034.068 7.182.068 16 7.2 31.966 16 31.966Z"/><path fill="#A80005" d="M16 30.712c4.269 0 7.729-6.587 7.729-14.712S20.269 1.288 16 1.288c-4.268 0-7.729 6.587-7.729 14.712s3.46 14.712 7.73 14.712Z"/><path fill="#000" d="M30.797 15.986c.174 7.777-6.32 14.82-14.801 14.814C7.53 30.792 1.11 23.752 1.2 15.958 1.296 7.735 7.799 1.194 16.057 1.2c8.178.006 14.74 6.587 14.74 14.786ZM13.835 28.46c.078-.016.154-.033.233-.048-.106-4.407-.515-8.828.607-13.122-.193-.168-.283-.289-.401-.343-.61-.282-1.22-.569-1.847-.813-1.102-.429-1.527-1.166-1.33-2.489.243.117.46.232.687.33.743.322 1.473.685 2.238.945 1.013.345 1.211.608 1.054 1.69-.108.736-.244 1.471-.3 2.213-.052.677.588 1.603 1.103 1.713.446.097 1.135-.48 1.352-1.216.088-.296.05-.641.017-.96-.073-.74-.19-1.475-.262-2.215-.063-.633.27-.965.857-1.173.829-.292 1.63-.66 2.442-.999.221-.092.44-.195.689-.307.114 1.493-.265 2.056-1.531 2.525-.685.254-1.338.594-2.093.936 1.128 4.464.7 8.896.765 13.335a5.31 5.31 0 0 0 .759-1.17c.175-.354.316-.724.48-1.085.775-1.715 1.582-3.416 2.31-5.15.226-.541.323-1.171.33-1.762.032-2.91.03-5.819.006-8.728-.006-.695-.023-1.424-.233-2.072-.377-1.159-.714-2.406-1.41-3.369-1.252-1.732-3.165-2.205-5.227-1.936-1.647.215-3.102.963-3.85 2.461-.785 1.575-1.282 3.29-1.27 5.104.02 2.863-.004 5.725.017 8.589.003.457.053.95.231 1.36 1.034 2.387 2.107 4.756 3.177 7.128.1.223.264.42.4.628Z"/></g></svg>