<svg fill="none" height="32" viewBox="0 0 32 32" width="32" xmlns="http://www.w3.org/2000/svg"><path d="m16 32c8.8366 0 16-7.1634 16-16 0-8.83656-7.1634-16-16-16-8.83656 0-16 7.16344-16 16 0 8.8366 7.16344 16 16 16z" fill="#221b47"/><path d="m21.6781 23.5339h-.7627v-.678h.7627zm-.7627-1.3559h-.7627v.678h.7627zm-.7627-.7627h-.678v.678h.678zm-.678-.7627h-.7628v.678h.7628zm-.7628-.678h-.7627v.678h.7627zm-.7627-.7627h-.678v.678h.678zm-.678-.7627h-.7627v.678h.7627zm-7.79659-5h-.93213v.678h.93221zm.76269.2542h-.25414v.2542h-.25424v.1695h.50848zm-1.6949-1.017h-.42365v.678h.42373zm-1.27118.1695h.339v-.1695h-1.27111v.678h.93221zm18.38988 12.9661h-1.7796v.678h1.7796zm-1.7796-.7627h-.7628v.678h.7628zm-.7628-.678h-.7627v.678h.7627zm-.7627-.7627h-.678v.678h.678z" fill="#090924" opacity=".5"/><path d="m25.6611 25.822h-1.7796v-.7627h-.7627v-.678h-.7628v-.7627h-.678v-.7627h-.7627v-.678h-.7627v-.7628h-.678v-.7627h-.7627v-.678h-.7627v-.7627h-.678v-.7627h-.7627v-.678h-.678v-.7627h-.678v-.678h-.7627v-.678h-.678v-.7627h-.7628v-.678h-2.2031v-.7627h-2.20342v-.7628h-2.20337v-6.1861h6.18649v2.20339h.7627v2.20341h.7627v2.2034h.678v.7627h.7627v.678h.678v.7627h.678v.678h.7627v.678h.678v.7627h.7627v.678h.7627v.7627h.678v.7627h.7627v.678h.7626v.7627h.678v.7626h.7627v.678h.7627v.7627h.678v.7627h.7626zm-1.6102-.1695h1.4407v-1.4406h-.7627v-.7627h-.678v-.7628h-.7627v-.678h-.7627v-.7627h-.678v-.7627h-.7627v-.678h-.7627v-.7627h-.678v-.7627h-.7627v-.678h-.7627v-.7626h-.678v-.678h-.7626v-.678h-.678v-.7627h-.678v-.678h-.7627v-.7627h-.678v-2.2033h-.7627v-2.20342h-.7627v-2.20339h-5.84742v5.84751h2.20339v.7627h2.20343v.7627h2.2034v.678h.7627v.7627h.678v.678h.7626v.678h.678v.7627h.678v.678h.7627v.7627h.678v.7628h.7627v.678h.7628v.7627h.678v.7627h.7627v.678h.7627v.7627h.678v.7627h.7627v.678h.7627zm-13.1355-13.8135h-.7627v-1.5254h-.67805v-.67804h.67805v.67804h1.5254v.7627h-.7627z" fill="#c6c6ff"/><path d="m10.9153 12.517h-1.44065v-.678h-1.52543v-2.96612h.76271v2.20342h1.44067v.7627h.7627zm1.4407-1.4407h-.678v-.7627h-.7627v-1.44072h-2.20337v-.7627h2.96617v1.52541h.678zm-5.08473 0h-.76273v-4.40681h4.40676v.76271h-3.64403z" fill="#7c79f7"/><path d="m25.492 24.89h-.763v-.678h-.678v-.763h-.763v-.763h-.763v-.678h-.678v-.762h-.762v-.763h-.763v-.678h-.678v-.763h-.763v-.762h-.762v-.678h-.678v-.763h-.763v-.678h-.678v-.678h-.678v-.763h-.763v-.678h-.678v-.762h-.762v-1.441h-1.441v-.763h.678v-1.43999h-.678v-2.204h-.763v-.763h1.441v2.204h.763v2.20299h.762v2.204h.678v.762h.763v.678h.678v.763h.678v.678h.763v.678h.678v.763h.762v.678h.763v.762h.678v.763h.763v.678h.762v.763h.678v.762h.763v.678h.763v.763h.678v.763h.763z" fill="#7774f9"/><path d="m7.949 11.839h-.678v-4.40699h4.407v.678h-2.966v.763h2.203v1.44099h-.762v-.67799h-.678v.67799h.678v.762h-1.441v-2.20299h-.763z" fill="#9695f8"/><path d="m15.8306 20.0593h-1.2712v-.5085h-.5932v-.2542h-.7627v-.2542h.5084v-.2543h.2543v.5085h.2542v-.2542h.339v.2542h.2542v.5085h1.017zm.2542-.2542h-.2542v-.2543h-.2543v-.2542h.2543v-.2542h-.2543v-.2543h.5085v.2543h.339v.2542h-.339zm-6.35592-.5085h-.25423v-.2542h-.25424v-.2543h.25424v.2543h.25423zm3.22032-.2542h-.339v-.2543h-.5085v-.339h.5085v.339h.339zm3.5593-.5933h-.4237v-.2542h-.2542v-.4237h.678zm-4.1525-.5084h-.2542v-.2543h-.2543v-.2542h-.2542v-.2542h.5085v.2542h.2542zm-3.47457 0h-.25424v-.2543h-.25424v-.2542h.25424v.2542h.25424zm10.16947-.5085h-.7627v-.2542h.5085v-.2542h.2542zm2.1187-.5085h-.2543v-.339h.2543zm.2542-.339h-.2542v-.2542h-.2543v-.2543h.2543v.2543h.2542zm-2.8814-.2542h-.5932v-.2543h-.2542v.2543h-.0848v-.339h-.7627v-.1695h.8475v-.5085h.2542v.5085h.339v-.2542h.2542v-.2542h-.2542v-.2543h.2542v-.5932h-.2542v-.2542h.2542v-.2543h.5085v1.1017h.2543v.2543h-.2543v.5084h-.2542v.2542h-.2543zm2.8814-.2543h-.2542v-.2542h.2542zm-10.9322-.5084h-.2542v-.2543h-.25428v-.2542h-.25424v-.5932h.25424v-.2542h.25428v.2542h.2542zm6.9492-.2543h-.2543v-.2542h.2543zm.2542-.5932h-.5085v-.2542h.5085zm-9.83052 0h-.25424v-.2542h-.339v-.2542h.339v.2542h.25424zm10.08472-.2542h-.2542v-.2543h.2542zm-9.83049 0h-.25423v-.2543h.25423zm11.44069-.2543h-.2542v-.2542h-.2543v-.2542h.2543v.2542h.2542zm-9.83052 0h-.25423v-.2542h.25423zm10.16952-.2542h-.339v-.2542h-.2543v-.2543h-.2542v-.2542h.2542v.2542h.2543v.2543h.339zm-1.9492 0h-.2542v-.2542h.2542zm-7.96608 0h-.25424v-.2542h-.25423v-.2543h.25423v.2543h.25424zm-1.86441-.2542h-.25423v-.2543h-.25424v-.2542h-.339v-.339h.339v.339h.25424v.2542h.25423zm-.50847 0h-.339v-.2543h.339zm10.93216-.2543h-.2542v-.2542h-.5932v.2542h-.5085v-.2542h-.2542v-.339h.2542v.339h.2543v-.339h.2542v-.2542h-.2542v-.2543h.2542v.2543h.2542v.2542h.339v.339h.2542zm-10.42369-.2542h-.25423v-.339h-.25424v-.1695h.25424v.1695h.25423zm8.81359-1.6102h-.5085v-.5932h.5085zm-.8475-.5932h-.2542v-.2542h-.2543v-.2543h-.5084v-.2542h-.2543v-.50847h-.2542v-.25424h1.5254v.25424h-.2542v.25424h.2542v.25423h-.2542v.2542h.2542zm1.356-.2542h-.2543v-.2543h-.2542v-.2542h-.2542v-.25423h-.2543v-.25424h.5085v.25424h.2542v.50843h.2543zm-3.4746-.5085h-.2543v-.25423h.2543zm-.5085 0h-.1695v-.25423h.1695zm6.1017-.25423h-.2542v-.25424h-.2543v-.25424h.2543v.25424h.2542zm-5.339 0h-.2542v-.25424h.2542zm-.7627-.25424h-.1695v-.59322h.678v.339h-.5085zm-.8475-1.1017h-.0847v-1.01695h.4237v.25424h.5085v.25425h-.2543v.25424h-.5932z" fill="#fed855"/><path d="m9.47465 19.2966h-.25424v-.2542h.25424zm.25423-.2542h-.25423v-.2542h.25423zm6.10172-.2542h-.2543v-.339h.2543zm-5.339-.5933h-.2543v-.2542h-.50842v-.2542h-.25423v-.7627h-.25424v-.339h.25424v.339h.76275v.5084h.2542zm-1.61019 0h-.25422v-.2542h-.25424v-.2542h.25424v.2542h.25424zm12.28809-1.6101h-.2542v-.2543h.2542zm.2543-.2543h-.2543v-.2542h.2543zm-3.983-1.2712h-.2543v-.339h.2543zm-9.57629 0h-.25427v-.339h-.339v-.2542h.339v.2543h.25424zm0-.5932h-.25427v-.2542h-.339v-.2542h.339v.2542h.25424zm12.03389-.2542h-.339v-.2542h-.2542v-.2543h-.2543v-.2542h.2543v.2542h.2542v.2543h.339zm-.5932 0h-.2542v-.2542h.2542zm-1.017 0h-.339v-.2542h.339zm-10.16946 0h-.25426v-.2542h.25423zm11.18646-1.017h-.2542v-.339h.2542zm-5.0848-2.9661h-.2542v-.25419h.2542zm5.0848-.25419h-.2542v-.25424h.2542zm-4.7458 0h-.339v-.25424h.339zm1.5255-1.35594h-1.017v-.25423h-.5085v-.25424h.7627v-.25424h.2542v.25424h.2542v.25424h.2543z" fill="#c3925c"/><path d="m15.8306 19.8051h-.2542v-.2542h-.2543v-.2543h-.2542v.2543h.2542v.2542h-.2542v-.2542h-.2542v-.2543h-.2543v-.2542h-.5932v-.2542h.5932v.2542h.2543v-.2542h-.2543v-.339h.2543v.339h.2542v-.339h-.2542v-.2543h-.2543v-.2542h.2543v.2542h.2542v-.2542h.2542v.2542h.2543v-.2542h.2542v.2542h.2542v.2543h-.5084v.5932h.2542v.2542h-.2542v-.2542h-.2543v.2542h.2543v.2543h.2542zm-3.4745-1.3559h-.2543v-.2543h-.2542v-.2542h.7627v-.2542h.339v.5084h-.5932zm-1.017-1.017h-.2542v-.2542h-.5932v-.2542h-.50853v-1.356h.50853v.7627h.2542v.2543h.5932v.339h.2543v.2542h-.2543zm6.9492-1.6102h-.339v-.2542h.339zm-.5933 0h-.2542v-1.1016h.5085v.339h.339v.2542h.2542v.2542h-.2542v-.2542h-.339v-.2542h-.2543zm-.7627-.2542h-.0847v-.2542h.0847zm1.6102-.5085h-.2542v-.339h-.339v-.5085h-.7627v-.2542h.2542v-.5085h.2542v.5085h.2543v.2542h.339v.2543h.2542zm-7.7966-.5932h-.5085v-.7627h.2543v.2542h.2542zm-1.01702-.5085h-.25418v-.2542h.25423zm-1.8644 0h-.25419v-.2542h.25424zm.25423-.5085h-.25418v-.2542h-.25424v-.339h.25424v.339h.25423zm-.50847 0h-.339v-.2542h.339zm10.93216-.2542h-.2542v-.339h.2542zm-1.1016-.339h-.2543v-.2542h-.2542v-.2543h-.2542v-.2542h-.2542v-.2542h.2542v.2543h.2543v.2542h.2542v.2542h.2542zm-9.32205 0h-.25422v-.1695h.25423zm10.42375-.5085h-.2543v-.2542h.2543zm0-.5084h-.2543v-.2543h.2543zm-2.1187-.2543h-.339v-.2542h-1.2711v-.339h-.7627v-.0848h-.0848v-.1694h-.5084v-.2543h1.8643v.5085h.7627v.339h.339zm1.5255-.2542h-.2543v-.339h.2543zm-1.2712-.339h-.2543v-.2542h-.339v-.2543h-.2542v-.2542h.2542v.2542h.339v.2543h.2543zm.2542-.2542h-.2542v-.2543h-.2542v-.2542h-.339v-.25419h-.2543v-.25424h.2543v.25424h.339v.25419h.2542v.2543h.2543zm-2.1186-.76275h-.2543v-.25418h-.5932v.25424h-.678v-.25424h.1695v-.25424h1.1017v.25424h.2542z" fill="#feae34"/><path d="m15.5763 19.8051h-.2542v-.2543h-.2542v-.2542h.2542v.2542h.2542zm-.5084 0h-.2543v-.2543h.2543zm.5084-.5085h-.2542v-.2542h.2542zm-.7627-.2542h-.2542v-.2543h-.8475v.2543h-.7627v-.2543h-.339v-.339h-.2542v-.2542h.5932v-.5085h.5085v.2543h.2542v-.2543h.8475v-.2542h.5084v-.2542h.5085v-.1695h.2543v.9322h-.2543v.2542h-.2542v-.2542h-.2542v.2542h-.2543v-.2542h-.2542v.2542h.2542v.2543h.2543v.339h-.2543v-.339h-.2542v.339h.2542zm-2.2034-1.1017h-.2542v-.5085h-.2542v-.2542h-.5085v-.2542h-.2542v-.339h-.5932v-.2543h-.2543v-1.8644h.2543v.2542h.3389v.8475h.2543v.5085h.2542v.5084h.2542v.339h.2543v.2543h.2542v.2542h.2543zm2.5424-1.017h-.0847v-.5932h.0847zm3.1356-1.356h-.339v-.2542h-.2542v-.2542h.2542v.2542h.339zm-8.0508 0h-.25428v-.2542h.25428zm6.6949-.2542h-.2542v-.2542h-.2543v-.339h.2543v-1.0169h.2542v-.2543h-.2542v-.2542h-.2543v-.5932h-.5932v-.2542h-.2542v-.2543h-.2543v-.2542h-.7627v-.2542h-.339v.2542h-.1695v-.8475h.7627v.339h1.2712v.2543h.5933v.2542h.2542v-.8475h-.2542v-.2542h-.2543v-.2542h-.339v-.2543h.339v.2543h.2543v.2542h.2542v-.2542h-.2542v-.2543h-.2543v-.25422h-.339v-.25424h.339v.25424h.2543v.25422h.2542v.2542h.2542v.2543h.5085v.5932h.8475v.2542h-.2543v.2543h.2543v.2542h-.2543v.2543h.2543v.5084h-.5932v-.2542h-.2543v-.2542h-.2542v.2542h.2542v.2542h-.2542v-.2542h-.2543v-.2542h-.2542v-.2543h-.2542v-.2542h-.2543v.5085h.5085v.2542h.2542v.2542h.2543v.339h-.2543v-.339h-.2542v.339h.2542v.2543h.2543v.5085h-.2543v.7627h-.2542zm1.3559-.2542h-.339v-.339h-.2542v-.2542h-.2543v-.2542h.2543v.2542h.2542v.2542h.339zm-6.9492-.339h-.2542v-.2542h-.339v-.2542h.339v.2542h.2543zm-3.47452-.5085h-.25424v-.2542h-.339v-.2543h.339v.2543h.25424zm2.88132-.2542h-.2542v-.2543h-.76272v-.2542h1.01702zm-2.88132-.2543h-.25424v-.2542h.25424zm8.55932-2.7118h-.339v-.2543h.339zm-.5932 0h-.5085v-.5085h.2542v.2542h.2542zm-1.8644-.0848h-.678v-.1695h.678z" fill="#feeb95"/><path d="m24.7291 25.653h-.678v-.763h-.763v-.678h-.763v-.763h-.678v-.763h-.762v-.678h-.763v-.762h-.678v-.763h-.763v-.678h-.762v-.763h-.678v-.762h-.763v-.678h-.678v-.763h-.678v-.678h-.763v-.678h-.678v-.763h-.762v-.678h-2.204v-.762h-2.20304v-.763h-2.204v-1.441h.763v.763h2.204v.678h1.44004v-.678h.763v1.441h1.441v.762h.762v.678h.678v.763h.763v.678h.678v.678h.678v.763h.763v.678h.678v.762h.762v.763h.763v.678h.678v.763h.763v.762h.762v.678h.678v.763h.763v.763h.763v.678h.678z" fill="#3835c1"/><path d="m25.492 25.653h-.763v-.763h-.678v-.678h-.763v-.763h-.763v-.763h-.678v-.678h-.762v-.762h-.763v-.763h-.678v-.678h-.763v-.763h-.762v-.762h-.678v-.678h-.763v-.763h-.678v-.678h-.678v-.678h-.763v-.763h-.678v-.678h-.762v-.762h-1.441v-1.441h-.763v-.763h.763v.763h1.441v1.441h.762v.762h.678v.678h.763v.763h.678v.678h.678v.678h.763v.763h.678v.678h.762v.762h.763v.763h.678v.678h.763v.763h.762v.762h.678v.678h.763v.763h.763v.763h.678v.678h.763z" fill="#615ee8"/><path d="m13.7119 17.9407h-.2542v-.2543h-.8475v-.2542h-.2542v-.2542h-.2542v-.2542h-.2543v-.339h-.2542v-.5085h-.2542v-.5085h-.2543v-.8475h-.339v-.2542h.339v.2542h.2543v-.2542h-.2543v-.2542h1.8644v.678h.7628v.7627h.678v.678h.678v.5932h.0847v.0847h.4237v.1695h-.5085v.2543h-.5085v.2542h-.8475zm2.9662-2.6271h-.5085v-.7627h-.678v-.678h-.7627v-.7628h-.678v-1.2711h.1695v-.2542h.339v.2542h.7627v.2542h.2542v.2543h.2543v.2542h.5932v.5932h.2543v.2543h.2542v.2542h-.2542v1.017h-.2543v.339h.2543z" fill="#fff"/></svg>