<svg xmlns="http://www.w3.org/2000/svg" width="32" height="32" fill="none"><path fill="#221B47" d="M16 32c8.837 0 16-7.163 16-16S24.837 0 16 0 0 7.163 0 16s7.163 16 16 16Z"/><path fill="#090924" d="M21.678 23.534h-.763v-.678h.763v.678Zm-.763-1.356h-.762v.678h.762v-.678Zm-.762-.763h-.678v.678h.678v-.678Zm-.678-.762h-.763v.678h.763v-.678Zm-.763-.678h-.763v.678h.763v-.678Zm-.763-.763h-.678v.678h.678v-.678Zm-.678-.763h-.762v.678h.762v-.678Zm-7.796-5h-.933v.678h.933v-.678Zm.762.254h-.254v.255H9.73v.17h.508v-.425Zm-1.695-1.017H8.12v.678h.423v-.678Zm-1.27.17h.338v-.17H6.34v.678h.931v-.508Zm18.39 12.966h-1.78v.678h1.78v-.678Zm-1.78-.763h-.763v.678h.762v-.678Zm-.763-.678h-.763v.678h.763v-.678Zm-.763-.762h-.678v.678h.678v-.678Z" opacity=".5"/><path fill="#C6C6FF" d="M25.661 25.822h-1.78v-.763h-.762v-.678h-.763v-.762h-.678v-.763h-.763v-.678h-.762v-.763h-.678v-.763h-.763v-.678h-.763v-.762h-.678v-.763h-.762v-.678h-.678v-.763h-.678v-.678h-.763v-.678h-.678v-.762h-.763v-.678h-2.203v-.763H8.542v-.763H6.34V6.5h6.187v2.203h.762v2.204h.763v2.203h.678v.763h.763v.678h.678v.763h.678v.678h.762v.678h.678v.762h.763v.678h.763v.763h.678v.763h.762v.678h.763v.762h.678v.763h.763v.678h.763v.763h.677v.762h.763v1.78Zm-1.61-.17h1.44v-1.44h-.762v-.763h-.678v-.763h-.763v-.678h-.762v-.762h-.678v-.763h-.763v-.678h-.763v-.763h-.678v-.762h-.763v-.678h-.762v-.763h-.678v-.678h-.763v-.678H16v-.763h-.678v-.678h-.763v-.762h-.678v-2.204h-.762V8.873h-.763V6.669H6.509v5.848h2.203v.763h2.203v.762h2.204v.678h.763v.763h.678v.678h.762v.678H16v.763h.678v.678h.763v.762h.678v.763h.762v.678h.763v.763h.678v.763h.763v.678h.763v.762h.678v.763h.762v.678h.763v.762ZM10.915 11.84h-.762v-1.525h-.678v-.678h.678v.678h1.525v.762h-.763v.763Z"/><path fill="#7C79F7" d="M10.915 12.517h-1.44v-.678H7.949V8.873h.763v2.203h1.44v.763h.763v.678Zm1.441-1.44h-.678v-.763h-.763V8.873H8.712V8.11h2.966v1.526h.678v1.44Zm-5.085 0H6.51V6.668h4.406v.763H7.271v3.644Z"/><path fill="#7774F9" d="M25.492 24.89h-.763v-.678h-.678v-.763h-.763v-.763h-.763v-.678h-.678v-.762h-.762v-.763h-.763v-.678h-.678v-.763h-.763v-.762h-.762v-.678h-.678v-.763h-.763v-.678H16v-.678h-.678v-.763h-.763v-.678h-.678v-.762h-.762v-1.441h-1.441v-.763h.678v-1.44h-.678V7.432h-.763v-.763h1.441v2.204h.763v2.203h.762v2.204h.678v.762h.763v.678H16v.763h.678v.678h.763v.678h.678v.763h.762v.678h.763v.762h.678v.763h.763v.678h.762v.763h.678v.762h.763v.678h.763v.763h.678v.763h.763v.678Z"/><path fill="#9695F8" d="M7.949 11.839h-.678V7.432h4.407v.678H8.712v.763h2.203v1.441h-.762v-.678h-.678v.678h.678v.762H8.712V8.873h-.763v2.966Z"/><path fill="#FED855" d="M15.83 20.06h-1.27v-.51h-.594v-.253h-.762v-.255h.508v-.254h.254v.509h.254v-.255h.34v.255h.254v.508h1.017v.254Zm.255-.255h-.254v-.254h-.255v-.254h.255v-.255h-.255v-.254h.509v.254h.339v.255h-.34v.508Zm-6.356-.508h-.254v-.255H9.22v-.254h.255v.254h.254v.255Zm3.22-.255h-.339v-.254h-.508v-.339h.508v.34h.34v.253Zm3.56-.593h-.424v-.254h-.254v-.424h.678v.678Zm-4.153-.508h-.254v-.255h-.255v-.254h-.254v-.254h.509v.254h.254v.509Zm-3.475 0h-.254v-.255h-.254v-.254h.254v.254h.254v.255Zm10.17-.509h-.763v-.254h.509v-.254h.254v.508Zm2.119-.508h-.255v-.34h.255v.34Zm.254-.34h-.254v-.253h-.255v-.255h.255v.255h.254v.254Zm-2.882-.253h-.593v-.255h-.254v.255h-.085v-.34h-.762v-.169h.847v-.508h.254v.508h.34v-.254h.253v-.254h-.254v-.255h.254v-.593h-.254v-.254h.254v-.254h.509v1.101h.254v.255h-.254v.508h-.254v.254h-.255v.255Zm2.882-.255h-.254v-.254h.254v.254Zm-10.932-.508h-.255v-.255h-.254v-.254H9.73v-.593h.254v-.254h.254v.254h.255v1.102Zm6.949-.255h-.255v-.254h.255v.255Zm.254-.593h-.509v-.254h.509v.254Zm-9.83 0H7.61v-.254h-.339v-.254h.34v.254h.253v.254Zm10.084-.254h-.254v-.254h.254v.254Zm-9.83 0h-.255v-.254h.255v.254Zm11.44-.254h-.254v-.254h-.254v-.255h.254v.255h.254v.254Zm-9.83 0h-.254v-.254h.254v.254Zm10.17-.254h-.34v-.255h-.254v-.254h-.254v-.254h.254v.254h.254v.254h.34v.255Zm-1.95 0h-.254v-.255h.254v.255Zm-7.966 0H9.73v-.255h-.254v-.254h.254v.254h.254v.255Zm-1.864-.255h-.255v-.254H7.61v-.254h-.339v-.34h.34v.34h.253v.254h.255v.254Zm-.509 0h-.339v-.254h.34v.254Zm10.932-.254h-.254v-.254h-.593v.254h-.509v-.254h-.254v-.34h.255v.34h.254v-.34h.254v-.253h-.254v-.255h.254v.255h.254v.254h.34v.339h.253v.254ZM8.12 13.195h-.255v-.34H7.61v-.169h.254v.17h.255v.339Zm8.813-1.61h-.508v-.594h.508v.594Zm-.847-.594h-.254v-.254h-.255v-.254h-.508v-.254h-.254V9.72h-.255v-.254h1.526v.254h-.254v.255h.254v.254h-.254v.254h.254v.508Zm1.356-.254h-.255v-.254h-.254v-.254h-.254v-.254h-.254V9.72h.508v.255h.255v.508h.254v.254Zm-3.475-.508h-.254v-.254h.254v.254Zm-.508 0h-.17v-.254h.17v.254Zm6.101-.254h-.254V9.72h-.254v-.254h.254v.254h.254v.255Zm-5.339 0h-.254V9.72h.254v.255Zm-.762-.255h-.17v-.593h.678v.34h-.508v.253Zm-.849-1.1h-.085V7.602h.424v.254h.509v.254h-.255v.254h-.593v.255Z"/><path fill="#C3925C" d="M9.475 19.297H9.22v-.255h.255v.255Zm.254-.255h-.254v-.254h.254v.254Zm6.102-.254h-.255v-.339h.255v.34Zm-5.34-.593h-.254v-.254H9.73v-.255h-.254v-.762H9.22v-.34h.255v.34h.762v.508h.255v.763Zm-1.61 0h-.254v-.254h-.254v-.255h.254v.255h.254v.254Zm12.288-1.61h-.254v-.255h.255v.255Zm.255-.255h-.255v-.254h.255v.255Zm-3.983-1.27h-.255v-.34h.255v.34Zm-9.576 0H7.61v-.34h-.339v-.254h.34v.254h.253v.34Zm0-.594H7.61v-.254h-.339v-.254h.34v.254h.253v.254Zm12.033-.254h-.339v-.254h-.254v-.255h-.254v-.254h.254v.254h.254v.255h.34v.254Zm-.593 0h-.254v-.254h.254v.254Zm-1.017 0h-.339v-.254h.34v.254Zm-10.17 0h-.254v-.254h.255v.254Zm11.187-1.017h-.254v-.34h.254v.34Zm-5.085-2.966h-.254v-.254h.254v.254Zm5.085-.254h-.254V9.72h.254v.255Zm-4.746 0h-.339V9.72h.34v.255Zm1.526-1.356h-1.017v-.255h-.509V8.11h.763v-.254h.254v.254h.255v.254h.254v.255Z"/><path fill="#FEAE34" d="M15.83 19.805h-.254v-.254h-.254v-.254h-.254v.254h.254v.254h-.254v-.254h-.254v-.254h-.255v-.255h-.593v-.254h.593v.254h.255v-.254h-.255v-.339h.255v.34h.254v-.34h-.254v-.254h-.255v-.254h.255v.254h.254v-.254h.254v.254h.254v-.254h.255v.254h.254v.254h-.509v.593h.255v.255h-.255v-.255h-.254v.255h.254v.254h.255v.254Zm-3.474-1.356h-.254v-.254h-.254v-.254h.762v-.255h.34v.509h-.594v.254Zm-1.017-1.017h-.254v-.254h-.593v-.254h-.509v-1.356h.509v.763h.254v.254h.593v.339h.254v.254h-.254v.254Zm6.95-1.61h-.34v-.254h.34v.254Zm-.594 0h-.254V14.72h.508v.34h.34v.254h.253v.254h-.254v-.254h-.339v-.255h-.254v.763Zm-.763-.254h-.084v-.254h.084v.254Zm1.61-.509h-.254v-.339h-.339v-.508h-.762v-.254h.254v-.509h.254v.509h.254v.254h.34v.254h.253v.593Zm-7.796-.593h-.509v-.763h.255v.255h.254v.508Zm-1.017-.508h-.254v-.255h.254v.255Zm-1.865 0H7.61v-.255h.255v.255Zm.255-.509h-.254v-.254H7.61v-.34h.255v.34h.254v.254Zm-.509 0h-.339v-.254h.34v.254Zm10.932-.254h-.254v-.34h.254v.34Zm-1.101-.34h-.255v-.253h-.254v-.255h-.254v-.254h-.254v-.254h.254v.254h.254v.255h.255v.254h.254v.254Zm-9.322 0h-.254v-.169h.254v.17Zm10.424-.508h-.255v-.254h.255v.254Zm0-.508h-.255v-.254h.255v.254Zm-2.12-.254h-.338v-.255h-1.271v-.338h-.763v-.085h-.085v-.17h-.508v-.254h1.864v.508h.763v.34h.339v.254Zm1.526-.255h-.254v-.338h.254v.338Zm-1.27-.338h-.255v-.255h-.34v-.254h-.253v-.254h.254v.254h.339v.254h.254v.255Zm.253-.255h-.254v-.254h-.254v-.254h-.34v-.254h-.253V9.72h.254v.255h.339v.254h.254v.254h.254v.254Zm-2.118-.762h-.255V9.72h-.593v.255h-.678V9.72h.17v-.254h1.101v.254h.255v.255Z"/><path fill="#FEEB95" d="M15.576 19.805h-.254v-.254h-.254v-.254h.254v.254h.254v.254Zm-.508 0h-.254v-.254h.254v.254Zm.508-.508h-.254v-.255h.254v.255Zm-.762-.255h-.255v-.254h-.847v.254h-.763v-.254h-.339v-.339h-.254v-.254h.593v-.509h.509v.255h.254v-.255h.847v-.254h.509v-.254h.508v-.17h.255v.933h-.255v.254h-.254v-.254h-.254v.254h-.254v-.254h-.255v.254h.255v.254h.254v.34h-.254v-.34h-.255v.34h.255v.253Zm-2.204-1.101h-.254v-.509h-.254v-.254h-.509v-.254h-.254v-.34h-.593v-.253h-.254v-1.865h.254v.254h.339v.848h.254v.508h.254v.509h.255v.339h.254v.254h.254v.254h.254v.509Zm2.543-1.017h-.085v-.593h.085v.593Zm3.135-1.356h-.339v-.255h-.254v-.254h.254v.255h.34v.254Zm-8.05 0h-.255v-.255h.254v.255Zm6.694-.255h-.254v-.254h-.254v-.339h.254v-1.017h.254v-.254h-.254v-.254h-.254v-.593h-.593v-.255h-.255v-.254h-.254v-.254h-.763v-.254h-.339v.254h-.17v-.848h.764v.34h1.27v.254h.594v.254h.254v-.848h-.254v-.254h-.254v-.254h-.34v-.254h.34v.254h.254v.254h.254v-.254h-.254v-.254h-.254v-.254h-.34V9.72h.34v.255h.254v.254h.254v.254h.255v.254h.508v.594h.848v.254h-.255v.254h.255v.254h-.255v.255h.255v.508h-.594v-.254h-.254v-.255h-.254v.255h.254v.254h-.254v-.254h-.255v-.255h-.254v-.254h-.254v-.254h-.254v.508h.508v.255h.255v.254h.254v.339h-.255v-.34h-.254v.34h.255v.254h.254v.509h-.255v.762h-.254v.593Zm1.356-.254h-.339v-.339h-.254v-.254h-.254v-.254h.254v.254h.254v.254h.34v.34Zm-6.949-.339h-.254v-.254h-.34v-.254h.34v.254h.254v.254Zm-3.475-.508H7.61v-.254h-.339v-.255h.34v.255h.253v.254Zm2.882-.254h-.254v-.255h-.763v-.254h1.017v.509Zm-2.882-.255H7.61v-.254h.254v.254Zm8.56-2.711h-.34v-.255h.34v.255Zm-.593 0h-.509v-.509h.254v.254h.255v.255Zm-1.865-.085h-.678v-.17h.678v.17Z"/><path fill="#3835C1" d="M24.73 25.653h-.679v-.763h-.763v-.678h-.763v-.763h-.678v-.763h-.762v-.678h-.763v-.762h-.678v-.763h-.763v-.678h-.762v-.763h-.678v-.762h-.763v-.678H16v-.763h-.678v-.678h-.763v-.678h-.678v-.763h-.762v-.678h-2.204v-.762H8.712v-.763H6.508v-1.441h.763v.763h2.204v.678h1.44v-.678h.763v1.441h1.441v.762h.762v.678h.678v.763h.763v.678H16v.678h.678v.763h.763v.678h.678v.762h.762v.763h.763v.678h.678v.763h.763v.762h.762v.678h.678v.763h.763v.763h.763v.678h.678v.763Z"/><path fill="#615EE8" d="M25.492 25.653h-.763v-.763h-.678v-.678h-.763v-.763h-.763v-.763h-.678v-.678h-.762v-.762h-.763v-.763h-.678v-.678h-.763v-.763h-.762v-.762h-.678v-.678h-.763v-.763H16v-.678h-.678v-.678h-.763v-.763h-.678v-.678h-.762v-.762h-1.441v-1.441h-.763v-.763h.763v.763h1.441v1.441h.762v.762h.678v.678h.763v.763H16v.678h.678v.678h.763v.763h.678v.678h.762v.762h.763v.763h.678v.678h.763v.763h.762v.762h.678v.678h.763v.763h.763v.763h.678v.678h.763v.763Z"/><path fill="#fff" d="M13.712 17.94h-.254v-.254h-.848v-.254h-.254v-.254h-.254v-.254h-.255v-.34h-.254v-.508h-.254v-.508h-.254v-.848h-.34v-.254h.34v.254h.254v-.254h-.254v-.254h1.864v.678h.763v.763h.678v.678h.678v.593h.085v.085h.423v.169h-.508v.254h-.509v.255h-.847v.254Zm2.966-2.626h-.508v-.763h-.678v-.678h-.763v-.763h-.678v-1.27h.17v-.254h.338v.254h.763v.254h.254v.255h.255v.254h.593v.593h.254v.254h.254v.254h-.254v1.017h-.254v.34h.254v.254Z"/></svg>