<svg xmlns="http://www.w3.org/2000/svg" width="32" height="32" fill="none"><defs><linearGradient id="srm__a" x1="15.973" x2="15.973" y1="24.798" y2="5.563" gradientUnits="userSpaceOnUse"><stop stop-color="#05AAC5"/><stop offset="1" stop-color="#71E0EC"/></linearGradient><linearGradient id="srm__b" x1="323.697" x2="323.697" y1="266.537" y2="-271.659" gradientUnits="userSpaceOnUse"><stop stop-color="#05AAC5"/><stop offset="1" stop-color="#71E0EC"/></linearGradient><linearGradient id="srm__c" x1="388" x2="388" y1="375.193" y2="-363.647" gradientUnits="userSpaceOnUse"><stop stop-color="#05AAC5"/><stop offset="1" stop-color="#71E0EC"/></linearGradient></defs><path fill="#fff" d="M16 32c8.837 0 16-7.163 16-16S24.837 0 16 0 0 7.163 0 16s7.163 16 16 16Z"/><path fill="url(#srm__a)" d="M16 24.798a7.48 7.48 0 0 1-7.479-7.48c0-4.018 6.753-11.106 7.033-11.385l.334-.391.335.39c.28.28 7.2 7.368 7.2 11.387A7.396 7.396 0 0 1 16 24.798Zm-.056-17.805a43.238 43.238 0 0 0-3.07 3.684c-2.176 2.902-3.348 5.19-3.348 6.642a6.474 6.474 0 1 0 12.948 0c0-1.452-1.172-3.74-3.404-6.642-1.228-1.619-2.512-3.014-3.126-3.684Z"/><path fill="url(#srm__b)" d="M16 27.198a9.862 9.862 0 0 1-9.88-9.88c0-5.302 7.424-12.725 7.759-13.06a.587.587 0 0 1 .726 0 .587.587 0 0 1 0 .726c-.112.056-7.48 7.423-7.48 12.335a8.875 8.875 0 0 0 17.75 0c0-2.01-1.284-4.8-3.74-8.038a47.152 47.152 0 0 0-3.796-4.409.475.475 0 0 1 0-.725.475.475 0 0 1 .726 0c.335.334 7.87 7.87 7.87 13.172A9.945 9.945 0 0 1 16 27.198Z"/><path fill="url(#srm__c)" d="M16 29.598a12.054 12.054 0 0 1-12-12c0-2.735 1.395-6.084 4.074-9.991a47.776 47.776 0 0 1 4.075-5.023.476.476 0 0 1 .725 0 .476.476 0 0 1 0 .725 41.467 41.467 0 0 0-3.962 4.912c-2.568 3.684-3.907 6.92-3.907 9.433a10.995 10.995 0 1 0 21.99-.056c0-2.512-1.34-5.75-3.907-9.433a56.73 56.73 0 0 0-3.963-4.911.587.587 0 0 1 0-.726.587.587 0 0 1 .726 0c.28.39 8.149 8.54 8.149 15.07a12.017 12.017 0 0 1-12 12Z"/></svg>