<svg fill="none" height="32" viewBox="0 0 32 32" width="32" xmlns="http://www.w3.org/2000/svg"><path d="m16 32c8.8366 0 16-7.1634 16-16 0-8.83656-7.1634-16-16-16-8.83656 0-16 7.16344-16 16 0 8.8366 7.16344 16 16 16z" fill="#011627"/><g fill="#1ba5f8"><path d="m12.5475 22.6594 2.8708-3.5384c.0702-.0866.1589-.1564.2596-.2044.1007-.0479.2107-.0728.3222-.0728s.2216.0249.3223.0728c.1007.048.1894.1178.2596.2044l2.8707 3.5384c.1083.1335.1674.3002.1674.4721s-.0591.3385-.1674.472l-2.8707 3.5383c-.0702.0866-.1589.1564-.2596.2044-.1007.0479-.2108.0728-.3223.0728s-.2215-.0249-.3222-.0728c-.1007-.048-.1894-.1178-.2596-.2044l-2.8708-3.5383c-.1083-.1335-.1674-.3001-.1674-.472s.0591-.3386.1674-.4721z" opacity=".62"/><path d="m17.0075 14.007 2.8707-3.5384c.0703-.0866.159-.1564.2596-.2044.1007-.0479.2108-.0728.3223-.0728s.2216.0249.3222.0728c.1007.048.1894.1178.2596.2044l2.8708 3.5384c.1083.1335.1674.3002.1674.4721s-.0591.3385-.1674.472l-2.8708 3.5383c-.0702.0866-.1589.1565-.2596.2044-.1006.048-.2107.0729-.3222.0729s-.2216-.0249-.3223-.0729c-.1006-.0479-.1893-.1178-.2596-.2044l-2.8707-3.5383c-.1083-.1335-.1674-.3002-.1674-.4721s.0591-.3385.1674-.472z"/><path d="m8.08733 14.007 2.87077-3.5384c.0702-.0866.1589-.1564.2596-.2044.1006-.0479.2107-.0728.3222-.0728s.2216.0249.3223.0728c.1006.048.1893.1178.2596.2044l2.8707 3.5384c.1083.1335.1674.3002.1674.4721s-.0591.3385-.1674.472l-2.8707 3.5383c-.0703.0866-.159.1565-.2596.2044-.1007.048-.2108.0729-.3223.0729s-.2216-.0249-.3222-.0729c-.1007-.0479-.1894-.1178-.2596-.2044l-2.87077-3.5383c-.1083-.1335-.16741-.3002-.16741-.4721s.05911-.3385.16741-.472z"/><path d="m12.5475 8.4765 2.8708-3.53835c.0702-.08659.1589-.1564.2596-.20436.1006-.04796.2107-.07284.3222-.07284s.2216.02488.3223.07284.1894.11777.2596.20436l2.8708 3.53835c.1083.1335.1674.30018.1674.47208s-.0591.33858-.1674.47208l-2.8708 3.53834c-.0702.0866-.1589.1564-.2596.2043-.1007.048-.2108.0729-.3223.0729s-.2216-.0249-.3222-.0729c-.1007-.0479-.1894-.1177-.2596-.2043l-2.8708-3.53834c-.1083-.1335-.1674-.30017-.1674-.47208s.0591-.33858.1674-.47208z"/></g></svg>