<svg xmlns="http://www.w3.org/2000/svg" width="32" height="32" fill="none"><path fill="#011627" d="M16 32c8.837 0 16-7.163 16-16S24.837 0 16 0 0 7.163 0 16s7.163 16 16 16Z"/><path fill="#1BA5F8" d="m12.547 22.66 2.871-3.539a.749.749 0 0 1 1.164 0l2.87 3.538a.75.75 0 0 1 0 .945l-2.87 3.538a.749.749 0 0 1-1.164 0l-2.87-3.538a.75.75 0 0 1 0-.945Z" opacity=".62"/><path fill="#1BA5F8" d="m17.008 14.007 2.87-3.538a.75.75 0 0 1 1.164 0l2.87 3.538a.75.75 0 0 1 0 .944l-2.87 3.538a.748.748 0 0 1-1.164 0l-2.87-3.538a.75.75 0 0 1 0-.944Zm-8.921 0 2.871-3.538a.749.749 0 0 1 1.164 0l2.87 3.538a.75.75 0 0 1 0 .944l-2.87 3.538a.75.75 0 0 1-1.164 0l-2.87-3.538a.75.75 0 0 1 0-.944Zm4.46-5.531 2.871-3.538a.748.748 0 0 1 1.164 0l2.87 3.538a.75.75 0 0 1 0 .945l-2.87 3.538a.747.747 0 0 1-1.164 0l-2.87-3.538a.75.75 0 0 1 0-.944Z"/></svg>