<svg fill="none" height="32" viewBox="0 0 32 32" width="32" xmlns="http://www.w3.org/2000/svg"><path d="m16 32c8.8366 0 16-7.1634 16-16 0-8.83656-7.1634-16-16-16-8.83656 0-16 7.16344-16 16 0 8.8366 7.16344 16 16 16z" fill="#171fc9"/><g fill="#fff"><path d="m12.002 21.5304-.1522.1529c-.3141.3156-.6468.612-.9965.8876l-.3981.3137c-.0238.0187-.0528.0296-.083.0311-.0302.0016-.0601-.0062-.0857-.0223-.0256-.0162-.0456-.0398-.0572-.0677s-.0143-.0588-.0077-.0883l.1584-.707c.1729-.7716.1346-1.5756-.1108-2.3273l-.0851-.2607c-.0988-.3024-.21408-.6032-.34279-.8944l-.00036-.0008-1.84963-4.3595-.19825-.5935c-.06122-.1838-.10299-.3735-.12463-.566l-.0335-.2979c-.04732-.4118-.00103-.829.13541-1.2205.13645-.3915.35952-.747.65259-1.0402l.15211-.153c.3141-.3155.64687-.61192.99652-.88757l.39812-.31367c.02378-.0187.05281-.02958.08301-.03115s.0601.00624.0857.02237.0456.03977.0572.0677.0143.05877.0077.08829l-.1584.707c-.17292.77163-.13465 1.57553.1107 2.32723l.0852.2608c.0987.3021.214.603.3427.8944l1.8501 4.3603.1982.5935c.0612.1838.103.3735.1247.566l.0335.2979c.0472.4118.0009.829-.1355 1.2205-.1364.3914-.3595.747-.6525 1.0402z"/><path d="m18.2478 22.9608-.1949.196c-.3955.3974-.8144.7706-1.2546 1.1176l-.5202.4098c-.026.0204-.0576.0323-.0906.0341-.033.0017-.0657-.0068-.0937-.0244s-.0498-.0435-.0625-.074-.0156-.0642-.0083-.0965l.2052-.9157c.2184-.9748.17-1.9904-.14-2.94l-.1081-.331c-.1253-.3835-.2697-.7606-.4328-1.1297l-.0003-.0008-2.3332-5.4988-.2497-.7479c-.0767-.2302-.129-.4678-.1561-.7088l-.0428-.3804c-.0592-.5157-.0012-1.0382.1697-1.5284.1708-.49019.4502-.93549.8172-1.30266l.1949-.196c.3954-.39736.8144-.77056 1.2547-1.11758l.52-.40977c.026-.02046.0576-.03238.0906-.03411.0331-.00174.0658.00678.0937.0244.028.01762.0498.04346.0625.07398s.0156.06422.0084.09647l-.2053.91574c-.2184.97477-.17 1.99043.14 2.94003l.1081.331c.1246.3816.2703.7617.4328 1.1297l2.3335 5.4996.2498.7479c.0766.2302.1289.4677.1561.7088l.0428.3803c.0592.5158.0012 1.0382-.1697 1.5284s-.4503.9355-.8172 1.3027z"/><path d="m23.5769 21.5304-.1521.1529c-.3141.3156-.6469.612-.9965.8876l-.3982.3137c-.0237.0187-.0527.0296-.0829.0311-.0302.0016-.0602-.0062-.0858-.0223-.0256-.0162-.0455-.0398-.0572-.0677-.0116-.028-.0143-.0588-.0077-.0883l.1585-.707c.1728-.7716.1345-1.5756-.1109-2.3273l-.0851-.2608c-.0988-.3023-.214-.6032-.3427-.8943l-.0004-.0008-1.8496-4.3596-.1983-.5935c-.0612-.1838-.103-.3735-.1246-.566l-.0335-.2978c-.0473-.4118-.001-.829.1354-1.2205.1364-.3914.3595-.747.6526-1.0402l.1521-.1529c.3141-.3156.6469-.61199.9965-.88764l.3981-.31367c.0238-.0187.0528-.02958.083-.03115s.0602.00625.0858.02237c.0256.01613.0455.03977.0571.0677.0117.02793.0144.05877.0078.08829l-.1585.707c-.1729.7716-.1346 1.5756.1108 2.3273l.0852.2607c.0987.3021.214.603.3427.8944l1.85 4.3603.1983.5935c.0612.1838.103.3735.1246.566l.0335.2979c.0473.4118.001.829-.1355 1.2205-.1364.3914-.3595.747-.6525 1.0402z"/></g></svg>