<svg xmlns="http://www.w3.org/2000/svg" width="32" height="32" fill="none"><path fill="#171FC9" d="M16 32c8.837 0 16-7.163 16-16S24.837 0 16 0 0 7.163 0 16s7.163 16 16 16Z"/><path fill="#fff" d="m12.002 21.53-.152.153c-.314.316-.647.612-.997.888l-.398.314a.146.146 0 0 1-.233-.148l.158-.707a4.4 4.4 0 0 0-.11-2.327l-.086-.26a9.582 9.582 0 0 0-.343-.895l-1.85-4.36-.198-.594a2.77 2.77 0 0 1-.125-.566l-.033-.298a2.753 2.753 0 0 1 .788-2.26l.152-.153c.314-.316.647-.612.997-.888l.398-.314a.147.147 0 0 1 .233.148l-.158.707a4.4 4.4 0 0 0 .11 2.327l.086.26c.098.303.214.604.343.895l1.85 4.36.198.594c.061.184.103.373.125.566l.033.298a2.756 2.756 0 0 1-.788 2.26Zm6.246 1.43-.195.197c-.396.397-.815.77-1.255 1.117l-.52.41a.16.16 0 0 1-.184.01.16.16 0 0 1-.071-.17l.205-.916c.219-.975.17-1.99-.14-2.94l-.108-.331c-.125-.384-.27-.76-.433-1.13l-2.333-5.5-.25-.748a3.469 3.469 0 0 1-.156-.708l-.043-.38a3.448 3.448 0 0 1 .987-2.832l.195-.196c.395-.397.814-.77 1.255-1.117l.52-.41a.16.16 0 0 1 .255.16l-.205.916c-.219.975-.17 1.99.14 2.94l.108.331c.124.382.27.762.433 1.13l2.333 5.5.25.748c.076.23.129.467.156.708l.043.38a3.448 3.448 0 0 1-.987 2.832Zm5.329-1.43-.152.153a11.11 11.11 0 0 1-.997.888l-.398.314a.146.146 0 0 1-.169.008.148.148 0 0 1-.064-.156l.158-.707a4.4 4.4 0 0 0-.11-2.327l-.086-.26a9.582 9.582 0 0 0-.343-.895l-1.85-4.36-.198-.594a2.769 2.769 0 0 1-.125-.566l-.033-.298a2.754 2.754 0 0 1 .788-2.26l.152-.153c.314-.316.647-.612.997-.888l.398-.314a.147.147 0 0 1 .233.148l-.158.707a4.4 4.4 0 0 0 .11 2.327l.086.26c.099.303.214.604.343.895l1.85 4.36.198.594c.061.184.103.373.124.566l.034.298a2.753 2.753 0 0 1-.788 2.26Z"/></svg>