<svg fill="none" height="32" viewBox="0 0 32 32" width="32" xmlns="http://www.w3.org/2000/svg"><path d="m16 32c8.8366 0 16-7.1634 16-16 0-8.83656-7.1634-16-16-16-8.83656 0-16 7.16344-16 16 0 8.8366 7.16344 16 16 16z" fill="#fd2e53"/><path d="m11.2486 7.20001 5.7284 6.68659c.505.5883.7826 1.3381.7826 2.1134 0 .7754-.2776 1.5251-.7826 2.1135l-5.7284 6.6865h-5.24469l6.33229-7.3909c.3366-.3923.5217-.8921.5217-1.4091 0-.5169-.1851-1.0168-.5217-1.4091l-6.33229-7.39089zm9.9933 13.72979 4.7542 3.8702h-6.5527l-2.9501-3.5852 2.8303-.7101c.3308-.0832.6764-.0881 1.0095-.0143.333.0738.6442.2243.9088.4394zm4.7542-13.72979-4.7542 3.87019c-.2647.215-.5759.3654-.9089.4392s-.6786.069-1.0094-.014l-2.8303-.7102 2.9501-3.58519z" fill="#fff"/></svg>