<svg xmlns="http://www.w3.org/2000/svg" width="32" height="32" fill="none"><path fill="#276CFF" d="M16 32c8.837 0 16-7.163 16-16S24.837 0 16 0 0 7.163 0 16s7.163 16 16 16Z"/><path fill="#fff" d="M16 29.5a2.268 2.268 0 0 1-2.268-2.205L7.347 23.61l-.06.033c-.315.158-.65.236-.983.241h-.035a2.268 2.268 0 0 1-1.189-4.2v-7.369l-.042-.026a2.268 2.268 0 0 1 1.196-4.173h.035c.365 0 .736.087 1.079.273l6.385-3.684v-.046a2.268 2.268 0 0 1 2.23-2.159H16c1.232 0 2.234.981 2.268 2.204l6.385 3.686.06-.033c.315-.158.65-.236.983-.241h.035a2.268 2.268 0 0 1 1.188 4.2v7.37l.043.025a2.267 2.267 0 0 1-1.196 4.173h-.035c-.365 0-.736-.087-1.079-.273l-6.384 3.684-.002.046a2.268 2.268 0 0 1-2.228 2.159H16Zm0-23.652.085-.003.027-.003-.027.003.08-.01-.053.007.084-.012-.031.005a.89.89 0 0 0 .087-.017l-.056.012a.713.713 0 0 0 .08-.018l-.024.006.074-.02-.05.014a.776.776 0 0 0 .082-.025l-.032.01a1.08 1.08 0 0 0 .245-.112l-.03.018a.74.74 0 0 0 .066-.042l-.036.024a.993.993 0 0 0 .063-.043l-.027.02.061-.046-.034.026a1.09 1.09 0 0 0 .065-.05l-.03.024.061-.052-.031.028a.889.889 0 0 0 .056-.051l-.025.023a1.086 1.086 0 0 0 .153-.174l-.014.02a1.08 1.08 0 1 0-1.769-.045l-.026-.04.04.062-.014-.022.04.058-.025-.036a1.087 1.087 0 0 0 .155.177l-.025-.023.059.053-.034-.03.056.049-.022-.02a.655.655 0 0 0 .066.052l-.044-.032.06.044-.016-.012.059.04-.042-.028a.881.881 0 0 0 .072.046l-.03-.018a1.08 1.08 0 0 0 .14.074l-.041-.02c.02.01.039.019.059.027l-.017-.007c.023.01.047.02.072.028l-.055-.02c.029.01.058.022.088.031l-.033-.01c.026.008.053.017.08.024l-.047-.014a.871.871 0 0 0 .073.02l-.026-.006c.027.007.055.013.083.018l-.057-.012a.89.89 0 0 0 .087.017l-.03-.005c.028.005.056.01.083.012l-.053-.007c.054.009.109.013.165.013Zm3.512 7.411 4.019-2.32a2.307 2.307 0 0 1-.056-.308l-.003-.035a2.257 2.257 0 0 1 0-.418l-.004.034a2.295 2.295 0 0 1 .295-.957l.003-.005-5.8-3.348a2.021 2.021 0 0 1-.17.25 2.191 2.191 0 0 1-.17.197 2.274 2.274 0 0 1-1.016.604v4.368a3.894 3.894 0 0 1 2.902 1.938Zm-6.817.092a3.892 3.892 0 0 1 2.726-1.995V6.96l-.015-.004a2.22 2.22 0 0 1-.77-.377 1.84 1.84 0 0 1-.165-.136 2.229 2.229 0 0 1-.11-.108l-.066-.072a2.276 2.276 0 0 1-.26-.362l.046.077a2.256 2.256 0 0 1-.039-.064l-.007-.013-5.8 3.348a2.732 2.732 0 0 1 .102.2 2.284 2.284 0 0 1 .141 1.453l-.003.013 4.22 2.435ZM26.27 11.32a1.08 1.08 0 1 0-1.509-1.414l.024-.045a.783.783 0 0 0-.045.092l.021-.047a1.1 1.1 0 0 0-.03.066l.009-.019-.03.074.022-.055a1.048 1.048 0 0 0-.031.084l.01-.03a1.14 1.14 0 0 0-.022.07l.012-.04a.96.96 0 0 0-.025.092l.013-.052a1.136 1.136 0 0 0-.018.077l.005-.025c-.005.022-.01.043-.013.065l.008-.04a1.091 1.091 0 0 0-.021.241v-.035l.001.073-.001-.038c0 .027.002.053.005.08l-.004-.042a.84.84 0 0 0 .01.086l-.006-.045a.735.735 0 0 0 .011.082l-.006-.037c.004.025.008.05.014.076l-.008-.04c.005.03.012.06.02.09l-.012-.05c.006.026.012.053.02.08l-.008-.03c.007.025.014.05.023.075l-.015-.045a.958.958 0 0 0 .028.08l-.013-.035a.93.93 0 0 0 .035.087l-.022-.053c.01.026.02.05.032.075l.04.077a1.108 1.108 0 0 0 .066.1l-.021-.03a1.1 1.1 0 0 0 .053.072l-.032-.042a.742.742 0 0 0 .049.062l-.017-.02c.017.021.035.042.054.062l-.037-.042c.02.023.04.045.061.066l-.024-.024a.992.992 0 0 0 .057.055l-.033-.03c.021.02.042.04.064.058l-.031-.028.061.052-.03-.024c.022.018.043.034.066.05l-.036-.026c.02.015.039.03.06.043l-.024-.017c.023.017.046.032.07.047l-.047-.03.064.04-.017-.01a1.08 1.08 0 0 0 .287.121l-.034-.01c.027.008.056.016.084.022l-.05-.012c.025.007.05.012.076.017l-.026-.005a.98.98 0 0 0 .075.013l-.05-.008c.03.005.059.01.088.013l-.038-.005c.23.032.472-.01.688-.135Zm-20.021.145h.052a.993.993 0 0 0 .038-.002l-.038.002a.998.998 0 0 0 .077-.006l-.039.004.077-.008-.038.004c.029-.003.057-.007.085-.012l-.047.008c.027-.004.053-.008.08-.014l-.033.006a1.05 1.05 0 0 0 .077-.017l-.045.011.08-.02-.035.01a1.084 1.084 0 0 0 .291-.124l-.026.015c.024-.014.048-.028.07-.044l-.044.03.064-.043-.02.013a.792.792 0 0 0 .059-.042l-.04.03c.026-.019.051-.038.075-.059l-.035.029c.02-.015.039-.032.058-.049l-.023.02c.02-.018.041-.036.061-.056l-.038.036c.02-.018.04-.038.06-.059l-.022.023a1.1 1.1 0 0 0 .06-.064l-.038.041c.019-.02.037-.04.054-.061l-.017.02a1.1 1.1 0 0 0 .043-.053l-.026.033c.032-.04.061-.08.088-.125l.01-.017a1.106 1.106 0 0 0 .05-.099l-.01.022c.012-.024.022-.05.032-.074l-.022.052c.013-.029.025-.058.035-.087l-.013.035c.01-.027.02-.054.028-.08l-.015.045c.009-.025.016-.05.023-.074l-.008.028c.008-.026.014-.053.02-.08l-.012.052a.968.968 0 0 0 .02-.09l-.008.039c.006-.026.01-.05.014-.076l-.006.037c.005-.027.008-.054.011-.081l-.005.044c.004-.029.007-.057.009-.086l-.004.042c.003-.027.004-.053.005-.079l-.001.037c.002-.029.002-.058.002-.087v.05c0-.027 0-.053-.002-.08l.002.03a1.078 1.078 0 0 0-.021-.191l-.007-.032.007.032a1.077 1.077 0 0 0-.019-.078l.012.046a1.1 1.1 0 0 0-.017-.064l.005.018a1.089 1.089 0 0 0-.022-.072l.017.054a1.095 1.095 0 0 0-.036-.102l.019.048a1.089 1.089 0 0 0-.033-.08l.014.032a1.08 1.08 0 1 0-1.02 1.49Zm1.6 8.525 2.575-1.485a3.13 3.13 0 0 1 .786-4.638l-3.308-1.908a2.24 2.24 0 0 1-1 .603 2.54 2.54 0 0 1-.337.071 2.323 2.323 0 0 1-.297.02l.073-.001h-.037l-.035.001v6.696a2.281 2.281 0 0 1 .97.218l.099.05c.185.099.358.224.512.373Zm16.317-.015.003-.005a1.914 1.914 0 0 1 .178-.152 2.325 2.325 0 0 1 .141-.1l.025-.015.08-.049h.002a2.267 2.267 0 0 1 .413-.187l.018-.006a2.163 2.163 0 0 1 .462-.099 2.193 2.193 0 0 1 .242-.013l-.073.001h.037l.036-.001v-6.696a2.281 2.281 0 0 1-1.611-.67l-.006-.007-4.095 2.363a2.674 2.674 0 0 1 2.333 2.491l.005.117v.044a2.66 2.66 0 0 1-.548 1.622l2.358 1.362Zm-8.324-1.5h3.84a1.485 1.485 0 1 0 0-2.969h-.818l-.044-.546a2.7 2.7 0 0 0-5.213-.752l-.147.38h-.603a1.944 1.944 0 1 0 0 3.888h2.987Zm-1.808 7.624.009-.015a2.33 2.33 0 0 1 .163-.241l.024-.03a2.266 2.266 0 0 1 .222-.238l-.025.022a2.28 2.28 0 0 1 .993-.557v-5.376h-2.563a3.12 3.12 0 0 1-1.45-.355l-2.952 1.705.003.008a2.19 2.19 0 0 1 .07.385 2.263 2.263 0 0 1-.156 1.058l.004-.01c-.04.102-.088.2-.143.296l.037-.067-.034.062-.003.005 5.8 3.348Zm3.93 0 5.8-3.348a2.286 2.286 0 0 1-.206-.475l-.009-.033a2.11 2.11 0 0 1-.053-.23l-.007-.044a1.973 1.973 0 0 1-.014-.1l-.003-.028a2.48 2.48 0 0 1-.007-.092 2.273 2.273 0 0 1 .005-.342l.002-.014.012-.098.004-.03a2.294 2.294 0 0 1 .053-.248l.007-.024.002-.003-2.734-1.578a2.66 2.66 0 0 1-1.024.25l-.11.002H16.61v5.384a2.836 2.836 0 0 1 .195.064 2.255 2.255 0 0 1 .739.459l.014.014a2.243 2.243 0 0 1 .407.514l-.044-.073.039.064.005.009ZM6.81 22.551a1.075 1.075 0 0 0 .432-.463l-.025.047a.805.805 0 0 0 .036-.072l-.011.025.03-.067-.019.042a.85.85 0 0 0 .034-.083l-.015.041c.01-.025.02-.05.027-.076l-.012.035c.01-.026.017-.051.025-.077l-.013.042a.973.973 0 0 0 .022-.077l-.01.035.019-.076-.01.041a1.08 1.08 0 0 0 .03-.202v-.025.025a1.078 1.078 0 0 0 0-.08v.055c.001-.03 0-.06-.001-.091l.001.036a.716.716 0 0 0-.005-.08l.004.044a1.07 1.07 0 0 0-.009-.085l.005.042a1.074 1.074 0 0 0-.011-.081l.006.039a1.061 1.061 0 0 0-.013-.073l.007.034a1.08 1.08 0 0 0-.02-.087l.013.053a1.065 1.065 0 0 0-.02-.082l.008.03a1.068 1.068 0 0 0-.023-.075l.014.045a1.084 1.084 0 0 0-.029-.085l.015.04a1.085 1.085 0 0 0-.086-.189l.012.021a.958.958 0 0 0-.11-.162l.034.043a1.091 1.091 0 0 0-.05-.064l.017.021a1.08 1.08 0 0 0-.055-.063l.037.042a1.085 1.085 0 0 0-.059-.064l.022.022-.06-.058.038.036c-.02-.02-.04-.038-.061-.056l.023.02a1.095 1.095 0 0 0-.058-.05l.035.03a1.068 1.068 0 0 0-.072-.056l.037.027a1.066 1.066 0 0 0-.057-.042l.02.015a1.105 1.105 0 0 0-.066-.044l.046.03a1.07 1.07 0 0 0-.07-.044l.024.014a1.137 1.137 0 0 0-.066-.037l.042.023a1.067 1.067 0 0 0-.095-.049l.053.026a1.078 1.078 0 0 0-.147-.063l.028.01a1.056 1.056 0 0 0-.07-.023l.042.013a1.108 1.108 0 0 0-.078-.023l.037.01a1.071 1.071 0 0 0-.071-.018l.034.008a1.11 1.11 0 0 0-.087-.02l.053.012a1.119 1.119 0 0 0-.08-.015l.027.004a1.08 1.08 0 0 0-.079-.01l.053.006a1.08 1.08 0 1 0 .382 2.004Zm19.857-.395a1.08 1.08 0 0 0-1.009-1.618l.057-.002c-.03 0-.06.002-.088.005l.031-.003a1.141 1.141 0 0 0-.084.01l.053-.007a1.04 1.04 0 0 0-.08.011l.027-.005a1.142 1.142 0 0 0-.077.015l.05-.01a.968.968 0 0 0-.09.02l.04-.01a.8.8 0 0 0-.066.017l.027-.008a1.088 1.088 0 0 0-.223.085l.052-.024a1.073 1.073 0 0 0-.095.048l.044-.023a1.045 1.045 0 0 0-.064.035l.02-.012a1.084 1.084 0 0 0-.063.04l.043-.028a.693.693 0 0 0-.072.048l.03-.02a1.053 1.053 0 0 0-.07.05l.04-.03a1.073 1.073 0 0 0-.064.05l.023-.02-.056.048.034-.029a1.114 1.114 0 0 0-.065.059l.031-.03a1.088 1.088 0 0 0-.055.054l.024-.024a1.042 1.042 0 0 0-.061.066l.037-.042a1.11 1.11 0 0 0-.055.063l.018-.02a1.09 1.09 0 0 0-.2.35l.014-.04c-.011.028-.02.056-.03.085l.015-.046-.023.075.009-.03a1.091 1.091 0 0 0-.021.083l.012-.053a1.082 1.082 0 0 0-.019.087l.007-.034c-.005.024-.01.048-.013.072l.006-.038a1.068 1.068 0 0 0-.011.08l.005-.042a1.115 1.115 0 0 0-.009.085l.004-.042a1.076 1.076 0 0 0-.005.08l.001-.038a1.096 1.096 0 0 0-.002.08v-.042a1.08 1.08 0 0 0 .021.24l-.006-.037.012.065-.006-.027.018.076-.012-.05c.008.033.016.065.027.097l-.015-.047.023.073-.008-.026a.821.821 0 0 0 .029.078l-.02-.052c.009.026.019.05.03.076l-.01-.024a1.08 1.08 0 0 0 1.934.127ZM16 28.312a1.08 1.08 0 0 0 .906-1.67l.023.038a1.088 1.088 0 0 0-.198-.244l.017.017a1.123 1.123 0 0 0-.044-.04l.027.023a1.102 1.102 0 0 0-.072-.06l.045.037a1.12 1.12 0 0 0-.062-.05l.017.013a1.052 1.052 0 0 0-.062-.044l.045.032a1.141 1.141 0 0 0-.07-.048l.025.016a1.046 1.046 0 0 0-.077-.047l.052.03a1.119 1.119 0 0 0-.069-.039l.017.01a1.065 1.065 0 0 0-.087-.044l.07.034a1.05 1.05 0 0 0-.098-.045l.028.011-.075-.03.047.019a1.094 1.094 0 0 0-.079-.029l.032.01a1.043 1.043 0 0 0-.079-.023l.047.013a1.09 1.09 0 0 0-.083-.022l.037.009a1.073 1.073 0 0 0-.075-.017l.038.008a1.058 1.058 0 0 0-.08-.016l.043.008a1.078 1.078 0 0 0-.094-.014l.051.006a1.098 1.098 0 0 0-.163-.012l-.085.003-.027.003.027-.003a1.069 1.069 0 0 0-.078.01l.051-.007a1.05 1.05 0 0 0-.092.014l.04-.008-.08.016.04-.008a1.05 1.05 0 0 0-.077.017l.038-.01a1.133 1.133 0 0 0-.082.023l.044-.013a1.05 1.05 0 0 0-.077.024l.033-.011c-.025.008-.05.016-.074.026l.04-.015a1.07 1.07 0 0 0-.213.102l.051-.03a1.055 1.055 0 0 0-.08.049l.03-.019a1.084 1.084 0 0 0-.067.045l.038-.026a.972.972 0 0 0-.065.047l.027-.021a1.067 1.067 0 0 0-.065.052l.038-.03a1.077 1.077 0 0 0-.066.054l.028-.024a1.061 1.061 0 0 0-.046.041l.019-.017a1.085 1.085 0 0 0-.155.177l.027-.037A1.08 1.08 0 0 0 16 28.312Z"/></svg>