<svg fill="none" height="32" viewBox="0 0 32 32" width="32" xmlns="http://www.w3.org/2000/svg"><path d="m16 32c8.8366 0 16-7.1634 16-16 0-8.83656-7.1634-16-16-16-8.83656 0-16 7.16344-16 16 0 8.8366 7.16344 16 16 16z" fill="#fff"/><path d="m12.3596 30.5543c-3.78649-.9496-7.05373-3.3376-9.10798-6.6571s-2.733723-7.309-1.89413-11.1213c.83959-3.81238 3.13212-7.14734 6.39078-9.29676 3.25863-2.14943 7.22683-2.944033 11.06183-2.21508l-12.48115 17.45964h8.27385zm7.3751-29.08542-2.1337 11.80752h8.149l-12.4906 17.473c3.825.7099 7.7762-.0937 11.02-2.2413 3.2438-2.1477 5.5265-5.4714 6.3666-9.27.84-3.7985.1717-7.7748-1.864-11.09002-2.0357-3.3152-5.2796-5.71001-9.0473-6.6792z" fill="#6b38df"/></svg>