<svg fill="none" height="32" viewBox="0 0 32 32" width="32" xmlns="http://www.w3.org/2000/svg"><path d="m16 32c8.8366 0 16-7.1634 16-16 0-8.83656-7.1634-16-16-16-8.83656 0-16 7.16344-16 16 0 8.8366 7.16344 16 16 16z" fill="#276cff"/><path d="m16 29.5c-1.2318 0-2.2344-.9814-2.2678-2.2047l-6.3848-3.6848-.0608.0326c-.31439.1581-.65018.2362-.98291.241l-.03509.0002c-.78315-.0009-1.54453-.4075-1.96427-1.1343-.61584-1.0663-.26705-2.4247.7757-3.0654l.00084-7.3694-.04281-.0262c-1.01005-.6511-1.34123-1.9872-.73373-3.039.41348-.7159 1.15847-1.1212 1.92922-1.134l.03505-.00031c.36576-.00042.73627.08766 1.07895.27298l6.38545-3.68382.0009-.04577c.0562-1.18961 1.0293-2.13934 2.2286-2.15878l.0375-.0003c1.2317 0 2.2342.98123 2.2678 2.20438l6.3849 3.68591.0607-.03342c.3144-.15805.6502-.23618.9829-.24095l.0351-.00023c.7832.0009 1.5445.40756 1.9643 1.13431.6159 1.0664.2669 2.4251-.7762 3.0657l-.0003 7.3694.0427.0259c1.0101.6511 1.3413 1.9872.7338 3.039-.4135.7159-1.1585 1.1212-1.9293 1.134l-.035.0003c-.3658.0004-.7364-.0877-1.0792-.2731l-6.3846 3.6843-.0015.0454c-.0562 1.1896-1.0293 2.1394-2.2286 2.1588zm0-23.65219.0849-.00329c.0089-.00069.0178-.00149.0267-.0024l-.0267.00239c.0268-.00208.0534-.00515.0797-.00917l-.053.00678c.0285-.00292.0566-.00695.0843-.01203l-.0313.00525c.0294-.0045.0586-.01019.0873-.01704l-.056.01179c.0272-.00498.0541-.01098.0805-.01796l-.0245.00617c.0251-.00599.0499-.01287.0744-.02059l-.0499.01442c.0276-.00727.0547-.0156.0813-.02494l-.0314.01052c.0522-.01648.1028-.03685.1516-.06085.0215-.01081.0427-.02219.0635-.03423.0102-.00567.0201-.01164.0299-.01777l-.0299.01777c.0225-.01303.0444-.02685.0658-.04141l-.0359.02364c.0216-.01342.0426-.0276.0632-.04251l-.0273.01887c.0209-.01422.0413-.02915.0611-.04475l-.0338.02588c.022-.016.0435-.03285.0643-.05051l-.0305.02463c.0212-.01674.0418-.03425.0617-.05251l-.0312.02788c.0192-.01629.0379-.03328.056-.05093l-.0248.02305c.0509-.04669.0974-.09821.1386-.15383.0049-.00625.0097-.01294.0145-.01969l-.0145.01969c.1331-.1795.2117-.4017.2117-.64226 0-.59643-.4836-1.07994-1.0803-1.07994s-1.0803.48351-1.0803 1.07994c0 .20345.0562.39376.1541.55622.0083.01407.0169.02768.0258.04107l-.0258-.04107c.0129.02147.0266.04245.0409.06292l-.0151-.02185c.0131.01967.0268.03886.041.05752l-.0259-.03567c.0387.05521.0825.10664.1306.15361.008.00816.0162.01589.0245.02348l-.0245-.02348c.0188.01836.0383.03605.0584.05301l-.0339-.02953c.0183.01684.0372.03301.0566.04851l-.0227-.01898c.0213.01792.0432.03503.0658.0513l-.0431-.03232c.0196.0156.0397.0305.0602.04469l-.0171-.01237c.0193.01388.0391.02714.0593.03975l-.0422-.02738c.0234.0161.0473.03127.0719.04548l-.0297-.0181c.0319.01992.065.03822.099.05478.0139.00691.0278.0133.0419.0194l-.0419-.0194c.0194.00944.0391.01832.0592.02662l-.0173-.00722c.0236.01024.0476.01965.072.0282l-.0547-.02098c.0286.01185.0579.02251.0877.03192l-.033-.01094c.0264.00924.0531.01747.0803.02466l-.0473-.01372c.0242.00762.0487.01441.0736.02035l-.0263-.00663c.0274.00727.0552.01348.0833.0186l-.057-.01197c.0286.00682.0577.0125.0871.017l-.0301-.00503c.0274.00498.0552.00892.0831.01179l-.053-.00676c.0537.0082.1086.01246.1646.01246zm3.5119 7.41169 4.0189-2.3196c-.0064-.0255-.0125-.0512-.018-.0768-.003-.014-.0059-.0281-.0087-.0422-.0038-.0192-.0073-.0384-.0106-.0576-.0028-.0168-.0055-.0336-.0079-.0504-.004-.0274-.0075-.0547-.0105-.0821-.0013-.0116-.0024-.0233-.0035-.035-.0106-.1135-.0125-.227-.006-.3398.0008-.0145.0018-.0291.0029-.0437.0009-.0117.0019-.0233.0029-.0348l-.0029.0348c.0028-.0361.0064-.0721.0109-.108.0029-.023.0061-.0457.0096-.0684.0018-.0114.0037-.023.0057-.0345.0045-.02626.0094-.05238.0148-.07839.0031-.01479.0063-.02942.0096-.04401.0047-.0202.0096-.04043.0148-.0606.0048-.01857.0097-.03691.0149-.05519.0038-.01329.0078-.02674.0119-.04015.0072-.02374.0148-.04732.0228-.07078.0468-.13759.1069-.27078.1795-.39758l.0028-.00485-5.8007-3.34787c-.0077.01329-.0155.0265-.0235.03961-.0066.01097-.0133.02182-.0201.0326-.0109.0173-.0221.03452-.0335.05157-.0107.01609-.0216.03193-.0327.04763-.008.01133-.0162.02272-.0245.03403-.0112.01536-.0226.03048-.0342.04544-.0108.01399-.0219.02804-.0332.04196-.0129.01597-.026.03162-.0392.0471-.0085.00986-.017.01968-.0256.02942-.0181.02036-.0365.04043-.0553.06017-.0057.00592-.0112.01162-.0167.01729-.0741.0762-.1537.14736-.2381.2127-.0116.00903-.0234.01798-.0353.02682-.0188.01398-.0377.02763-.0569.04098-.0127.00889-.0258.01778-.0389.02654-.0136.00908-.0273.01797-.041.02672-.0206.0131-.0413.02582-.0623.03821-.0097.00577-.0198.01162-.0299.01739-.0166.0095-.0331.01864-.0497.02757-.0157.00848-.0317.01686-.0478.02506-.0164.00831-.0329.01642-.0494.02434-.0203.00967-.0408.0191-.0615.02823-.0082.00366-.0164.00721-.0246.01071-.0243.01037-.0489.0204-.0738.03-.0123.00475-.0244.00931-.0365.01376-.0197.00721-.0398.01424-.0599.02099-.0144.00483-.0289.00951-.0435.01406-.0225.00702-.045.01369-.0677.02001v4.36771c1.2411.1534 2.3069.8927 2.9021 1.9389zm-6.8171.0918c.5554-1.0423 1.5594-1.7806 2.726-1.9957l.0006-4.39424-.0151-.00407c-.024-.00649-.0479-.01336-.0715-.0206-.0105-.00322-.0209-.00647-.0312-.00978-.022-.00709-.0439-.01453-.0657-.02229-.0141-.00505-.0282-.0102-.0421-.01549-.018-.00682-.0359-.01388-.0538-.02117-.0637-.02606-.1262-.055-.187-.08662-.0164-.00852-.0329-.01731-.0491-.0263-.0139-.00761-.0275-.01534-.0411-.0232-.0157-.0091-.0313-.01839-.0468-.02785-.0193-.01177-.0383-.02383-.0572-.03617-.0096-.00621-.0189-.0124-.0282-.01866-.0168-.01136-.0336-.02306-.0503-.03498-.0157-.01117-.0311-.02251-.0464-.03404-.0112-.00842-.0223-.01691-.0332-.0255-.0156-.01219-.0311-.02462-.0464-.03725-.0132-.01093-.0263-.02195-.0392-.0331-.0154-.01329-.0307-.02691-.0459-.04073-.0097-.00887-.0193-.01779-.0288-.02679-.0278-.02626-.055-.05321-.0814-.08083l-.0664-.07241c-.0565-.06436-.1095-.13194-.1585-.20244-.0122-.01742-.024-.03501-.0357-.05276-.0228-.03489-.0446-.07031-.0655-.10635l.0465.07681c-.0134-.02119-.0265-.04261-.0392-.06426l-.0073-.01255-5.80073 3.34782c.00106.00184.00212.00369.00318.00554.03638.06353.06965.12878.09966.19539.00899.01995.01786.04042.02642.061.00584.01405.01135.02769.01673.04137.00899.02284.01777.0463.02617.0699.00347.00977.00685.01947.01016.02918.00698.0205.01365.04103.02002.06166.00644.02084.01259.04176.01842.06277.00232.00831.00462.01679.00688.0253.0071.02673.01368.05343.01977.08025.00306.01345.00602.02705.00885.04068.00545.02618.01041.0523.01491.07846.00184.0107.0036.0214.00528.0322.00373.0237.0071.0476.01009.0716.00162.013.0031.0257.00447.0385.00258.024.0048.0483.00663.0726.001.0134.00188.0267.00264.0399.00647.1127.00455.2262-.00601.3396-.0011.0118-.00229.0235-.00356.0352-.00297.0273-.00646.0546-.01045.0819-.00329.0225-.00692.0449-.0109.0674-.00216.0122-.00444.0244-.00681.0366-.00351.018-.00724.0361-.0112.054-.00231.0105-.00474.0212-.00724.0318l-.00323.0138zm13.5763-2.0321c.5167-.2982.6937-.9587.3954-1.47523s-.959-.6935-1.4758-.39529c-.1761.10167-.3128.24543-.4046.41125-.0085.0149-.0163.02989-.0238.04501l.0238-.04501c-.0167.03005-.0318.06082-.0455.0922l.0217-.04719c-.0106.02164-.0206.04355-.0297.0657l.008-.01851c-.0105.02416-.0201.04867-.0289.07347l.0209-.05496c-.0116.02782-.0219.05606-.031.08456l.0101-.0296c-.008.023-.0153.0461-.0218.0695l.0117-.0399c-.0097.0303-.018.061-.025.0919l.0133-.052c-.007.0255-.0132.0512-.0184.0771l.0051-.0251c-.0049.0217-.0091.0434-.0126.0653l.0075-.0402c-.0135.0676-.0206.1365-.0211.2058-.0003.0118-.0001.0235.0002.0352l-.0002-.0352c-.0001.0242.0005.0485.002.0729l-.0018-.0377c.0007.0265.0024.0529.0051.0793l-.0033-.0416c.0018.0287.0047.0575.0088.0861l-.0055-.0445c.0027.0272.0065.0543.0113.0813l-.0058-.0368c.0036.0253.0081.0505.0136.0756l-.0078-.0388c.0054.03.0121.0599.0201.0896l-.0123-.0508c.0058.0268.0127.0535.0206.0801l-.0083-.0293c.0067.025.0144.0499.023.0745l-.0147-.0452c.008.0267.0171.0533.0273.0796l-.0126-.0344c.0102.0294.0217.0584.0346.0871l-.022-.0527c.0098.0253.0206.0504.0324.0752l.0402.0764c.014.0243.0289.0478.0445.0707.007.0102.014.02.0211.0297l-.0211-.0297c.0168.0245.0345.0482.053.071l-.0319-.0413c.0156.0212.0318.0418.0488.0616l-.0169-.0203c.0174.0215.0356.0421.0544.062l-.0375-.0417c.0197.0231.0403.0452.0616.0663l-.0241-.0246c.0183.0193.0372.0379.0568.0556l-.0327-.031c.0207.0205.0421.04.0641.0585l-.0314-.0275c.0197.018.0401.0352.061.0516l-.0296-.0241c.0212.0178.0429.0346.0652.0506l-.0356-.0265c.0193.0151.039.0295.0592.0432l-.0236-.0167c.023.0165.0466.032.0707.0466l-.0471-.0299c.021.0142.0424.0276.0642.0403l-.0171-.0104c.0792.0479.1641.0852.2522.1113.0114.0037.0229.0069.0344.0099l-.0344-.0099c.028.0083.0563.0155.0848.0215l-.0504-.0116c.0251.0065.0504.0122.076.0169l-.0256-.0053c.0247.0052.0496.0096.0746.013l-.049-.0077c.0289.0053.058.0095.0874.0126l-.0384-.0049c.2298.032.4716-.0095.6882-.1345zm-20.02153.1447.05218-.0002c.01293-.0004.02583-.001.03868-.0019l-.03891.0017c.026-.0008.05193-.0025.07773-.0052l-.03882.0035c.02573-.0017.0513-.0044.07666-.0079l-.03784.0044c.02847-.0029.05679-.007.08489-.0122l-.04705.0078c.02661-.0037.053-.0083.07911-.0139l-.03206.0061c.02569-.0047.05119-.0103.07646-.0169l-.0444.0108c.02717-.0059.05404-.0127.08056-.0206l-.03616.0098c.09253-.024.18187-.0602.26541-.1079.0089-.0049.01753-.01.02608-.0152l-.02608.0152c.02415-.0138.04782-.0286.07094-.0443l-.04486.0291c.0217-.0132.04294-.0273.06369-.042l-.01883.0129c.01962-.0133.03884-.0273.05762-.042l-.03879.0291c.02547-.0181.0502-.0374.07409-.0578l-.0353.0287c.01985-.0155.03921-.0317.05804-.0487l-.02274.02c.02103-.0179.04141-.0367.06109-.0563l-.03835.0363c.02075-.0187.04085-.0383.06026-.0588l-.02191.0225c.02057-.0205.04037-.0419.05936-.0641l-.03745.0416c.01876-.0198.03686-.0404.05425-.0618l-.0168.0202c.01463-.0172.02878-.0348.04242-.053l-.02562.0328c.0316-.0389.06085-.0805.08741-.1246l.01016-.0172c.01454-.0252.02798-.0508.04033-.0767.00341-.0071.00687-.0146.01024-.0221l-.01024.0221c.01173-.0246.02246-.0495.03221-.0747l-.02197.0526c.01292-.0288.02448-.0578.03469-.0872l-.01272.0346c.01023-.0264.01938-.0531.02744-.0801l-.01472.0455c.00857-.0246.01619-.0494.02289-.0743l-.00817.0288c.00791-.0264.01478-.0531.02061-.0799l-.01244.0511c.00801-.0298.01469-.0597.02006-.0898l-.00762.0387c.00546-.0251.01-.0503.01363-.0756l-.00601.0369c.00482-.027.00858-.054.0113-.0811l-.00529.0442c.0041-.0286.00705-.0573.00883-.0861l-.00354.0419c.00264-.0262.0043-.0524.00501-.0785l-.00147.0366c.00179-.0288.00242-.0576.00189-.0865l-.00042.0499c.00073-.0269.00045-.0537-.00082-.0805l.00124.0306c-.00119-.0642-.00813-.1283-.02077-.1915-.0024-.0107-.00468-.0213-.00712-.0318l.00712.0318c-.00522-.0261-.01141-.0521-.01857-.0778l.01145.046c-.005-.0216-.01066-.0431-.01697-.0644l.00552.0184c-.00672-.0242-.01429-.0481-.02271-.0719l.01719.0535c-.01026-.0345-.02225-.0686-.03593-.10207l.01874.04857c-.00968-.0273-.0205-.05432-.03243-.08097l.01369.0324c-.08746-.21385-.24394-.40139-.45958-.52585-.51672-.29821-1.17744-.12124-1.47577.39529s-.12129 1.17703.39543 1.47523c.16441.0949.3434.1417.52065.1447zm1.60099 8.5253 2.57414-1.4849c-.43772-.5385-.70004-1.2253-.70004-1.9733 0-1.1256.59414-2.1126 1.48594-2.6646l-3.30762-1.9083c-.03851.04-.07831.0784-.11929.1151-.00446.004-.00883.0079-.01322.0118-.05141.0453-.10471.0882-.15963.1284-.01375.01-.02783.0201-.04202.03-.01915.0134-.03826.0262-.05754.0388-.00962.0063-.01945.0126-.02932.0189-.02171.0137-.0435.0269-.06549.0397-.01351.0079-.02725.0158-.04107.0235-.01855.0103-.0371.0203-.05577.03-.01884.0099-.03786.0194-.05699.0287-.01217.0059-.02442.0117-.03671.0174-.0208.0097-.04167.019-.06267.028-.01582.0067-.03179.0134-.04783.0198-.01928.0077-.03864.0152-.0581.0224-.01432.0053-.02877.0105-.04327.0155-.02146.0074-.04288.0145-.06441.0213-.01528.0048-.03076.0095-.04629.014-.01986.0058-.03974.0112-.05968.0165-.0151.0039-.03023.0077-.04539.0113-.02229.0054-.04474.0104-.06727.0151-.0169.0035-.03388.0069-.0509.01-.0168.0031-.03347.006-.05018.0087-.02102.0034-.04231.0065-.06364.0094-.01771.0023-.03554.0045-.0534.0064-.01764.0019-.03496.0036-.0523.0051-.02162.0019-.04358.0034-.06557.0047-.04187.0023-.08387.0035-.12594.0036l.07337-.0013c-.01261.0004-.02522.0008-.03784.001l-.03505.0003h-.00048v6.6956h.00048c.23601.0003.47004.0374.69334.109.04552.0146.0904.0306.13477.048.04769.0186.09501.039.14163.061l.09948.05c.18519.0987.35784.2237.51177.3734zm16.31684-.0157.0029-.0043c.0128-.0122.0258-.0242.039-.0361.017-.0153.0342-.0305.0517-.0454.0112-.0094.0223-.0187.0335-.0279.0176-.0143.0354-.0284.0534-.0423.0139-.0106.028-.0212.0423-.0316.0122-.009.0242-.0176.0363-.026.0205-.0144.0415-.0286.0627-.0425.0082-.0053.0165-.0106.0248-.0159.0263-.0167.0528-.0327.0796-.0482.0008-.0004.0015-.0008.0022-.0012.0271-.0157.0567-.0319.0866-.0475.0155-.0081.0311-.0159.0468-.0236.0177-.0087.0355-.0172.0534-.0254.0163-.0074.0324-.0146.0486-.0216.0194-.0084.0392-.0166.059-.0245.0115-.0045.0231-.009.0347-.0134.0278-.0106.0558-.0206.0839-.03.0062-.002.0124-.0041.0187-.0062.0258-.0084.0516-.0163.0776-.0237.0169-.0049.0341-.0096.0514-.0141.0141-.0037.0284-.0073.0427-.0108.0233-.0056.0464-.0108.0696-.0156.0158-.0033.0316-.0064.0475-.0093.0203-.0038.0409-.0074.0615-.0106.0163-.0026.0324-.005.0486-.0072.0208-.0028.0418-.0054.0627-.0076.0191-.0021.0383-.0039.0575-.0055.0163-.0014.0324-.0025.0486-.0035.045-.0027.0903-.0041.1357-.0042l-.0732.0013c.0126-.0004.0251-.0008.0377-.001l.0355-.0003-.0005-6.6956c-.2218-.0003-.4418-.0331-.6529-.0965-.0828-.0249-.1646-.0546-.2445-.0889-.1754-.0754-.3422-.1733-.4953-.2923-.0763-.0592-.1491-.1236-.2179-.193l-.0059-.0062-4.0948 2.3628c1.2658.1587 2.2565 1.2019 2.333 2.4911l.0044.1166.0003.0442c0 .6099-.2043 1.172-.5482 1.6218zm-8.3241-1.4987 3.8397.0001c.8204 0 1.4855-.6648 1.4855-1.4849s-.6651-1.4849-1.4855-1.4849h-.8184l-.044-.5464c-.1123-1.3955-1.2822-2.4798-2.692-2.4798-1.1262 0-2.1221.6954-2.5208 1.7281l-.1468.3802-.6034-.0001c-1.0739 0-1.9446.8704-1.9446 1.9439 0 1.0736.8707 1.9439 1.9446 1.9439l2.9241-.0001.0191-.0003.0128-.0002zm-1.8084 7.6232.009-.0154c.0127-.0215.0258-.0429.0392-.064.009-.0142.018-.028.0271-.0417.0089-.0134.0182-.027.0276-.0405.0104-.0149.0209-.0295.0315-.044.0124-.0169.0251-.0337.038-.0504.0081-.0103.0161-.0205.0242-.0306.0154-.0191.0312-.0381.0474-.0569.0075-.0087.015-.0173.0226-.0259.0405-.0456.0828-.0897.1269-.1321.008-.0077.0161-.0153.0243-.0229l-.0243.0229c.0841-.0808.1745-.1551.2703-.2223.0147-.0103.0294-.0204.0442-.0303.0137-.0091.0277-.0182.0418-.0271.017-.0108.0339-.0213.051-.0315.0156-.0093.0313-.0185.0471-.0274.0103-.0059.0207-.0117.0311-.0173.0227-.0125.0458-.0246.0692-.0363.0116-.0058.0231-.0115.0347-.0171.0171-.0082.0343-.0162.0516-.024.0177-.0079.0355-.0157.0535-.0232.0162-.0068.0325-.0134.0488-.0198.0162-.0064.0326-.0126.049-.0186.0192-.007.0387-.0139.0583-.0204.0145-.0049.0289-.0095.0435-.0141.0228-.0071.0457-.0139.0687-.0203.0099-.0027.0199-.0054.0298-.008l.0004-5.3756-2.5638-.0003c-.5229 0-1.016-.1281-1.4494-.3546l-2.95201 1.7043.00277.0087c.00532.0195.01036.039.01513.0586.00387.0159.00755.0317.01105.0475.00492.0223.0095.0446.01372.067.00443.0234.00849.0469.01217.0703.00154.0099.00301.0197.00442.0296.00469.0328.00864.0655.01187.0983.00042.0043.00084.0087.00125.0131.01056.1142.01236.2284.00567.3418-.00081.0137-.00171.027-.00273.0402-.00191.0248-.00426.05-.00702.0751-.00123.0111-.00252.022-.00388.0329-.003.0241-.00644.0484-.01026.0726-.00237.0149-.00482.0296-.00742.0442-.00427.0239-.00898.0481-.01407.0722-.0024.0113-.00486.0225-.0074.0337-.0057.0251-.01184.0501-.01839.0749-.00303.0115-.00621.0232-.00949.0349-.00657.0235-.01343.0465-.02067.0695-.00531.0169-.01083.0337-.01654.0505-.00701.0206-.01444.0414-.02216.0621-.00548.0146-.0111.0292-.01687.0438-.00133.0033-.0027.0067-.00407.0101l.00407-.0101c-.0404.1017-.08821.2007-.14317.2961l.0371-.067c-.011.0207-.02233.0412-.03399.0616l-.00311.0054zm3.9302 0 5.8007-3.3478c-.0009-.0017-.0019-.0034-.0029-.005-.0549-.0959-.1026-.1955-.1429-.2978-.0048-.0123-.0096-.0247-.0142-.0371-.0077-.0207-.0152-.0415-.0223-.0624-.0081-.0239-.0159-.0482-.0233-.0726-.0034-.011-.0066-.0221-.0098-.0331-.0062-.0214-.012-.0428-.0175-.0643-.0036-.0141-.0071-.0284-.0105-.0428-.0039-.0167-.0077-.0335-.0112-.0503-.0052-.0242-.0099-.0484-.0142-.0726-.0026-.0145-.005-.0293-.0074-.0441-.0024-.0153-.0046-.0302-.0066-.0452-.0025-.018-.0048-.0364-.0069-.0548l-.003-.0283c-.0013-.013-.0025-.0261-.0036-.0392-.0014-.0173-.0027-.035-.0037-.0527-.0067-.1138-.0049-.228.0056-.3421.0004-.0045.0009-.0089.0013-.0133.0032-.0327.0072-.0654.0118-.0982.0015-.0099.0029-.0197.0045-.0296.0042-.027.009-.0541.0142-.0811.0023-.012.0048-.0241.0073-.0362.0048-.0225.0099-.045.0154-.0674.0052-.0214.0107-.0426.0165-.0638.0022-.008.0045-.0159.0067-.0239l.0015-.0031-2.7333-1.5781c-.313.1468-.6591.2347-1.0241.2495l-.1102.0023-3.0732.0003-.0004 5.3838c.0148.0041.0295.0084.0441.0127.0183.0055.0363.0112.0541.0171.0149.0048.0299.0099.0448.0152.0176.0062.0351.0125.0524.0191.0984.0373.1937.0814.2852.1316.0182.01.0367.0204.0549.0311.0126.0074.0249.0147.0371.0222.0148.009.0295.0183.0441.0276.0191.0124.038.0249.0566.0377.0081.0055.0161.0111.0241.0168.02.014.0398.0285.0594.0433.0105.0079.0209.0159.0311.0239.0159.0124.0315.025.0471.0379.0125.0103.0251.0209.0375.0317.021.0181.0415.0364.0616.0551.0047.0044.0097.009.0146.0137.0198.0187.0392.0377.0583.0571.0636.0645.1236.1331.1793.2051.0359.0464.0699.0941.1021.1432.0233.0354.0458.0718.0673.1089l-.0444-.0735c.0133.0212.0263.0426.039.0642zm-11.15584-3.5467c.17778-.1026.31535-.2481.40718-.4158.00884-.0158.01688-.0314.02452-.0472l-.02452.0472c.01293-.0236.02494-.0477.03604-.0721l-.01152.0249c.01072-.0221.02066-.0445.02981-.0671l-.01829.0422c.01249-.0275.02381-.0555.03395-.0839l-.01566.0417c.01016-.0251.01934-.0505.02755-.0762l-.01189.0345c.00897-.0251.017-.0505.0241-.0762l-.01221.0417c.00815-.0254.01533-.0511.02155-.0769l-.00934.0352c.00692-.0251.01294-.0505.01805-.076l-.00871.0408c.01597-.0664.02558-.134.02876-.2019.00016-.0084.00047-.0169.00067-.0253l-.00067.0253c.00125-.0268.00151-.0536.00076-.0804l-.00009.0551c.00072-.0304.00017-.0608-.00168-.0913l.00177.0362c-.00074-.0264-.00245-.0529-.00514-.0792l.00337.043c-.00173-.0284-.00459-.0568-.0086-.0851l.00523.0421c-.00276-.0271-.00656-.0541-.01139-.081l.00616.0389c-.0034-.0241-.00763-.0481-.0127-.072l.00654.0331c-.00521-.0289-.01162-.0578-.01924-.0864l.0127.0533c-.00586-.0277-.01284-.0552-.02097-.0826l.00827.0293c-.00668-.0251-.0143-.05-.02285-.0747l.01458.0454c-.00843-.0284-.01809-.0567-.02899-.0847l.01441.0393c-.02231-.0646-.05098-.1276-.08608-.1884l.01194.0212c-.00389-.0071-.00787-.0142-.01194-.0212-.0198-.0343-.0412-.0671-.06405-.0983-.01068-.0146-.02154-.0287-.0327-.0425l.0327.0425c-.01607-.022-.03285-.0432-.0503-.0637l.0176.0212c-.01763-.0218-.03602-.0427-.05512-.0629l.03752.0417c-.01894-.0222-.03866-.0434-.0591-.0638l.02158.0221c-.0193-.0204-.03931-.0399-.06-.0586l.03842.0365c-.01985-.0198-.04037-.0387-.06151-.0566l.02309.0201c-.01887-.017-.0383-.0333-.05824-.0489l.03515.0288c-.02326-.0198-.04726-.0386-.07193-.0562l.03678.0274c-.01856-.0145-.03757-.0284-.05699-.0416l.02021.0142c-.02132-.0152-.04313-.0296-.06539-.0432l.04518.029c-.02257-.0154-.0457-.0299-.06933-.0435l.02415.0145c-.02171-.0132-.04385-.0256-.06636-.0373l.04221.0228c-.03097-.0178-.06281-.0341-.0954-.0487l.05319.0259c-.0388-.02-.07872-.0377-.1195-.0528-.00894-.0037-.01802-.0069-.02715-.01l.02715.01c-.02276-.0085-.04578-.0162-.06903-.0231l.04188.0131c-.02579-.0088-.05195-.0167-.07843-.0236l.03655.0105c-.02329-.007-.0468-.0131-.07051-.0185l.03396.008c-.02872-.0074-.0578-.0137-.0872-.0188l.05324.0108c-.02623-.0059-.0527-.0108-.07933-.0148l.02609.004c-.02597-.0045-.05219-.0081-.0786-.0107l.05251.0067c-.23299-.0347-.47891.0061-.69876.133-.51672.2982-.69376.9587-.39543 1.4752.29833.5166.95905.6935 1.47577.3953zm19.85724-.3953c.2983-.5165.1213-1.177-.3954-1.4752-.1758-.1014-.3682-.1479-.5574-.1447-.0189.0002-.0376.001-.0562.0022l.0562-.0022c-.0294.0005-.0588.0022-.088.0051l.0318-.0029c-.0285.002-.0568.0051-.0849.0092l.0531-.0063c-.027.0026-.0539.0063-.0806.011l.0275-.0047c-.0257.0039-.0512.0086-.0764.0142l.0489-.0095c-.0297.0052-.0591.0116-.0882.0193l.0393-.0098c-.0223.0049-.0443.0106-.0661.0169l.0268-.0071c-.0583.0152-.1153.0354-.1704.0601-.0176.0077-.0349.016-.052.0249l.052-.0249c-.0326.0147-.0645.031-.0955.0489l.0435-.024c-.0216.0111-.0429.023-.0637.0356l.0202-.0116c-.0213.0122-.0421.0252-.0625.0388l.0423-.0272c-.0246.0149-.0486.0308-.072.0477l.0297-.0205c-.024.0161-.0473.0331-.07.0512l.0403-.0307c-.0217.0156-.0428.0321-.0633.0493l.023-.0186c-.0192.0152-.0379.0311-.0561.0477l.0331-.0291c-.0221.0187-.0436.0383-.0643.0588l.0312-.0297c-.019.0174-.0374.0354-.0553.0543l.0241-.0246c-.0214.0211-.0419.0432-.0615.0662l.0374-.0416c-.019.0201-.0374.041-.0551.0628l.0177-.0212c-.0425.0498-.0808.1039-.1144.162-.028.0484-.0519.0983-.0717.1493-.005.0128-.0098.0259-.0144.039l.0144-.039c-.0108.0278-.0205.0559-.0289.0843l.0145-.0453c-.0085.0249-.0162.0499-.0229.075l.0084-.0297c-.0081.0274-.0152.055-.0211.0828l.0127-.0531c-.0076.0286-.0139.0574-.0191.0863l.0064-.0332c-.005.0238-.0093.0477-.0127.0717l.0063-.0385c-.0048.027-.0086.054-.0113.0811l.005-.0426c-.004.0284-.0069.0568-.0087.0853l.0037-.0427c-.0027.0267-.0044.0534-.0051.0801l.0014-.0374c-.0016.0263-.0022.0527-.0019.079l.0005-.0416c-.0018.0681.0029.1359.0138.2027.0018.0128.0041.0255.0066.0382l-.0066-.0382c.0036.0219.0078.0437.0127.0653l-.0061-.0271c.0051.0254.0112.0507.0181.0758l-.012-.0487c.0074.0323.0161.0642.0264.0956l-.0144-.0469c.0069.0247.0146.0493.0232.0737l-.0088-.0268c.0086.0265.0183.0527.0289.0785l-.0201-.0517c.0091.0254.0191.0506.0301.0755l-.01-.0238c.0878.2124.2437.3986.4581.5223.5168.2982 1.1775.1213 1.4758-.3953zm-10.6665 6.1561c.5967 0 1.0803-.4835 1.0803-1.08 0-.2018-.0553-.3907-.1517-.5523-.0073-.0125-.015-.0248-.0229-.0369l.0229.0369c-.0498-.0834-.1105-.1595-.1801-.2264-.0057-.0059-.0117-.0115-.0177-.017l.0177.017c-.0145-.0139-.0293-.0274-.0444-.0404l.0267.0234c-.023-.0211-.0468-.0411-.0714-.0601l.0447.0367c-.02-.0172-.0406-.0336-.0617-.0493l.017.0126c-.0202-.0156-.041-.0305-.0623-.0446l.0453.032c-.0229-.0169-.0465-.0329-.0707-.0481l.0254.0161c-.0249-.0165-.0504-.032-.0766-.0463l.0512.0302c-.0222-.0138-.045-.0269-.0683-.0392l.0171.009c-.0283-.0156-.0574-.0299-.0871-.0429l.07.0339c-.0319-.0169-.0648-.0322-.0985-.0458l.0285.0119c-.0248-.0108-.05-.0208-.0756-.0297l.0471.0178c-.0257-.0104-.0519-.0198-.0786-.0283l.0315.0105c-.0257-.009-.0518-.0171-.0783-.0241l.0468.0136c-.0272-.0086-.0549-.0161-.083-.0226l.0362.009c-.0244-.0065-.049-.0122-.074-.017l.0378.008c-.0263-.0061-.0531-.0112-.0801-.0153l.0423.0073c-.0309-.0059-.0622-.0106-.0939-.0138l.0516.0065c-.0533-.008-.1077-.0122-.1632-.0122l-.0849.0033c-.0089.0007-.0178.0015-.0267.0024l.0267-.0024c-.0263.002-.0523.005-.0782.0089l.0515-.0065c-.0313.0032-.0622.0077-.0927.0136l.0412-.0071c-.027.0041-.0538.0092-.0803.0153l.0391-.0082c-.026.0049-.0517.0109-.0771.0177l.038-.0095c-.0276.0064-.0549.0138-.0818.0222l.0438-.0127c-.026.007-.0516.0149-.0768.0238l.033-.0111c-.0248.0078-.0493.0165-.0734.0261l.0404-.015c-.0564.0198-.1106.0441-.1623.0726-.0174.0093-.0345.0193-.0513.0298l.0513-.0298c-.0273.015-.0538.0311-.0796.0484l.0283-.0186c-.0225.014-.0444.0289-.0658.0445l.0375-.0259c-.0223.0149-.044.0307-.0651.0472l.0276-.0213c-.0223.0163-.044.0335-.0651.0516l.0375-.0303c-.0225.0176-.0443.036-.0653.0553l.0278-.025c-.0157.0134-.031.0273-.046.0417l.0182-.0167c-.0466.0427-.0893.0895-.1278.1397-.0093.0118-.0182.024-.0269.0364l.0269-.0364c-.1393.1819-.222.4092-.222.6559 0 .5965.4836 1.08 1.0803 1.08z" fill="#fff"/></svg>