<svg xmlns="http://www.w3.org/2000/svg" width="32" height="32" fill="none"><defs><linearGradient id="strax__a" x1="5.524" x2="26.322" y1="3.968" y2="27.927" gradientUnits="userSpaceOnUse"><stop stop-color="#21BCC0"/><stop offset="1" stop-color="#1488CA"/></linearGradient></defs><path fill="url(#strax__a)" d="M16 32c8.837 0 16-7.163 16-16S24.837 0 16 0 0 7.163 0 16s7.163 16 16 16Z"/><path fill="#fff" d="m16.053 18.373 9.594-5.584-9.594-5.684-9.498 5.684 9.498 5.584Zm-10.006-2.92a.76.76 0 0 0 .376.657l9.627 5.608 9.785-5.788a.739.739 0 0 1 1.11.64v2.626a.743.743 0 0 1-.362.637l-10.157 6.063a.733.733 0 0 1-.746.003L5.26 19.773a.53.53 0 0 1 .13-.965.521.521 0 0 1 .397.054l10.263 6.033 9.847-5.878v-1.9l-9.473 5.603a.733.733 0 0 1-.742.003l-9.783-5.7A1.815 1.815 0 0 1 5 15.453V12.98a.631.631 0 0 1 .947-.548l.608.357-.764.457a.521.521 0 0 1-.784-.364.529.529 0 0 1 .25-.542l10.42-6.236a.732.732 0 0 1 .75-.002l10.21 6.05a.744.744 0 0 1-.005 1.281L16.42 19.377a.732.732 0 0 1-.74-.001L5.42 13.343a.416.416 0 0 0 .628-.363v2.474-.001Z"/></svg>