<svg fill="none" height="32" viewBox="0 0 32 32" width="32" xmlns="http://www.w3.org/2000/svg" xmlns:xlink="http://www.w3.org/1999/xlink"><linearGradient id="a" gradientUnits="userSpaceOnUse" x1="5.52352" x2="26.3222" y1="3.968" y2="27.9274"><stop offset="0" stop-color="#21bcc0"/><stop offset="1" stop-color="#1488ca"/></linearGradient><path d="m16 32c8.8366 0 16-7.1634 16-16 0-8.83656-7.1634-16-16-16-8.83656 0-16 7.16344-16 16 0 8.8366 7.16344 16 16 16z" fill="url(#a)"/><path d="m16.0534 18.373 9.594-5.584-9.594-5.68401-9.49802 5.68401zm-10.00602-2.92c-.0002.1328.03441.2634.10038.3786.06597.1153.161.2113.27562.2784l9.62702 5.608 9.785-5.788c.1123-.065.2398-.0992.3696-.0993s.2573.0341.3698.0989c.1124.0649.2057.1582.2706.2707.0649.1124.099.2399.099.3697v2.626c-.0001.1283-.0333.2544-.0966.366-.0633.1117-.1544.205-.2644.271l-10.157 6.063c-.1127.0673-.2414.1031-.3726.1037-.1313.0005-.2602-.0343-.3734-.1007l-10.42002-6.126c-.12008-.0711-.20727-.1867-.24265-.3217-.03539-.135-.01611-.2785.05365-.3993.03427-.0598.08005-.1122.13469-.1541.05465-.042.11707-.0727.18366-.0903.06659-.0177.13602-.022.20428-.0127.06825.0094.13398.0322.19337.0671l10.26302 6.033 9.847-5.878v-1.9l-9.473 5.603c-.1122.0666-.2402.1019-.3706.1025-.1305.0005-.2587-.0338-.3714-.0995l-9.78302-5.7c-.27406-.1602-.50131-.3895-.65906-.665s-.24048-.5876-.23994-.905v-2.473c-.00032-.111.02863-.2201.08392-.3163.0553-.0962.13499-.1761.23104-.2317.09604-.0556.20505-.0848.31602-.0848.11096 0 .21997.0292.31602.0848l.608.357-.764.457c-.07307.0441-.15586.0697-.24111.0743-.08525.0047-.17033-.0117-.24777-.0477-.07743-.0359-.14484-.0903-.1963-.1585-.05147-.0681-.0854-.1478-.09882-.2321-.01773-.105-.00335-.2129.04126-.3096.0446-.0967.11736-.1777.20874-.2324l10.41902-6.23601c.1132-.06794.2427-.104.3747-.10435.132-.00036.2617.03501.3753.10235l10.211 6.05001c.1111.0662.2029.1603.2666.2728.0636.1126.0968.2398.0963.3691s-.0347.2563-.0992.3683c-.0645.1121-.1571.2054-.2687.2708l-10.212 5.944c-.1123.0656-.2401.1001-.3702.0999-.13-.0002-.2577-.035-.3698-.1009l-10.26002-6.033c.05426.0319.11506.051.1778.056.06275.0049.1258-.0045.18438-.0275.05857-.023.11114-.0591.15373-.1054.04259-.0464.07408-.1018.09209-.1621.0128-.0401.01954-.0819.02-.124v2.474z" fill="#fff"/></svg>