<svg xmlns="http://www.w3.org/2000/svg" width="32" height="32" fill="none"><defs><clipPath id="sub__a"><path fill="#fff" d="M0 0h32v32H0z"/></clipPath></defs><g fill-rule="evenodd" clip-path="url(#sub__a)" clip-rule="evenodd"><path fill="#EF4138" d="M0 16a16 16 0 1 0 32 0 16 16 0 0 0-32 0"/><path fill="#fff" d="m16.133 5.314-5.162 3.892a.25.25 0 0 0 .289.41l.01-.008 5.015-3.778 7.245 5.459h-3.164l-5.181-3.904a.25.25 0 0 0-.3.403l5.247 3.952a.25.25 0 0 0 .15.052h3.998a.252.252 0 0 0 .15-.452l-7.995-6.026a.249.249 0 0 0-.3 0h-.002ZM9.244 10.51l-1.105.83a.255.255 0 0 0 0 .4l15.725 11.854-3.581 2.698-1.005-.757a.25.25 0 0 0-.348.048l-.002.002a.253.253 0 0 0 .049.351l1.155.871a.246.246 0 0 0 .3 0l3.998-3.013a.25.25 0 0 0 0-.4L8.707 11.54l.836-.632a.25.25 0 0 0 .05-.35.251.251 0 0 0-.2-.102.243.243 0 0 0-.149.051v.001Z"/><path fill="#fff" d="M8.29 20.329a.252.252 0 0 0-.152.452l7.996 6.027a.251.251 0 0 0 .3 0l5.154-3.885a.253.253 0 0 0-.114-.45.249.249 0 0 0-.185.046l-.001.001-5.005 3.772-7.243-5.46h3.165l5.12 3.86a.251.251 0 0 0 .3-.401l-5.188-3.91a.234.234 0 0 0-.15-.052H8.291Zm3.847-15.015L8.14 8.327a.25.25 0 0 0 0 .4L23.863 20.58l-.889.67a.253.253 0 0 0 .113.45.247.247 0 0 0 .184-.046l.002-.002 1.156-.87a.25.25 0 0 0 .074-.314.25.25 0 0 0-.074-.088L8.707 8.527l3.58-2.698 1.1.828a.25.25 0 0 0 .3-.4l-1.252-.943a.249.249 0 0 0-.3 0h.002Z"/></g></svg>