<svg fill="none" height="32" viewBox="0 0 32 32" width="32" xmlns="http://www.w3.org/2000/svg" xmlns:xlink="http://www.w3.org/1999/xlink"><clipPath id="a"><path d="m0 0h32v32h-32z"/></clipPath><g clip-path="url(#a)" clip-rule="evenodd" fill-rule="evenodd"><path d="m0 16c0 3.1645.938361 6.2579 2.69642 8.889 1.75807 2.6312 4.25687 4.682 7.18044 5.893 2.92354 1.211 6.14054 1.5279 9.24424.9106s5.9546-2.141 8.1923-4.3786c2.2377-2.2375 3.7616-5.0884 4.3791-8.192.6174-3.1036.3007-6.3207-.9102-9.24432-1.2108-2.92363-3.2615-5.42255-5.8925-7.18076-2.6311-1.758211-5.7244-2.69674395-8.8889-2.69691998-2.1012-.00011688-4.1819.41364898-6.12322 1.21766998-1.94131.80402-3.70524 1.98256-5.19107 3.46831-1.48584 1.48575-2.66447 3.24961-3.4686 5.19088-.804128 1.94124-1.21801 4.02194-1.21801 6.12314" fill="#ef4138"/><g fill="#fff"><path d="m16.1334 5.31376-5.1627 3.89244c-.0543.03831-.0912.09663-.1025.16214-.0114.06551.0038.13284.0421.18717s.0966.09121.1622.10254c.0655.01133.1328-.00383.1871-.04214l.0107-.00793 5.0151-3.77778 7.2444 5.4587h-3.1635l-5.1814-3.90403c-.0534-.0394-.1202-.05603-.1859-.04626-.0656.00978-.1247.04517-.1644.09842-.0396.05326-.0565.12004-.047.18573s.0447.12494.0978.16478l5.2462 3.95286c.0431.0331.0959.0513.1502.0516h3.9982c.0524-.0007.1032-.0177.1454-.0486.0423-.031.0738-.0743.0902-.124.0165-.0497.017-.1033.0015-.1533-.0154-.05-.0461-.0939-.0877-.1257l-7.9947-6.02664c-.0432-.03274-.096-.05045-.1502-.05045s-.107.01771-.1502.05045z"/><path d="m9.24441 10.5094-1.10577.8302c-.03048.0238-.05514.0542-.07209.0889-.01696.0348-.02578.0729-.02578.1115 0 .0387.00882.0768.02578.1116.01695.0347.04161.0651.07209.0889l15.72536 11.8533-3.5814 2.6987-1.0044-.7573c-.0526-.0399-.1189-.0573-.1843-.0484-.0654.009-.1245.0436-.1644.0961l-.0015.002c-.0396.0532-.0567.1199-.0476.1856.0092.0657.0438.1252.0965.1656l1.1555.8711c.043.0329.0956.0508.1498.0508.0541 0 .1068-.0179.1498-.0508l3.9982-3.0134c.0312-.0231.0566-.0533.0741-.088s.0266-.0731.0266-.112-.0091-.0772-.0266-.1119c-.0175-.0348-.0429-.0649-.0741-.0881l-15.72356-11.8533.83644-.6311c.02633-.0198.0485-.0445.06526-.0729.01675-.0283.02776-.0597.0324-.0923.00463-.0326.0028-.0658-.00539-.0977-.00819-.0318-.02259-.0618-.04236-.0881l-.00011-.0002c-.02309-.0311-.05309-.0564-.08764-.074s-.07271-.0269-.11147-.0273c-.05414.0001-.1067.0182-.14934.0516z"/><path d="m8.2906 20.3289c-.05275-.0001-.1042.0164-.14709.0471-.04288.0308-.07503.0742-.09192.1242s-.01766.104-.00221.1544c.01545.0505.04635.0948.08833.1267l7.99649 6.0267c.0433.0321.0958.0494.1497.0494.054 0 .1065-.0173.1498-.0494l5.1547-3.8853c.0531-.0404.0881-.1002.0973-.1664.0092-.0661-.0083-.1332-.0484-.1865-.0395-.0529-.0984-.088-.1637-.0974-.0653-.0095-.1318.0073-.1846.0468l-.001.0008-5.0045 3.7724-7.24357-5.4604h3.16537l5.12 3.8604c.0534.0377.1194.0531.1839.0429.0646-.0103.1226-.0454.1616-.0978.0391-.0524.0562-.118.0476-.1828s-.0422-.1236-.0936-.164l-5.1875-3.9103c-.0426-.0342-.0957-.0524-.1503-.0515z"/><path d="m12.1368 5.31379-3.99647 3.01333c-.03093.02337-.05602.05359-.07329.08829-.01728.03471-.02627.07294-.02627.11171 0 .03876.00899.077.02627.1117.01727.0347.04236.06493.07329.0883l15.72267 11.85328-.8889.6703c-.0529.0404-.0877.1-.0969.1659-.0091.0659.0081.1328.048.1861.0391.0526.0974.0876.1623.0972.0648.0096.1308-.007.1834-.0461l.0019-.0014 1.1564-.8711c.031-.0235.0561-.0539.0733-.0887.0173-.0349.0263-.0733.0263-.1121 0-.0389-.009-.0773-.0263-.1121-.0172-.0349-.0423-.0653-.0733-.0888l-15.72264-11.85248 3.57954-2.69778 1.1005.82756c.0533.03364.1173.04598.1792.03454.062-.01143.1174-.0458.1552-.09625s.0552-.11327.0487-.17597c-.0065-.06269-.0363-.12065-.0836-.16232l-1.2507-.94311c-.0431-.03253-.0957-.05012-.1497-.05012-.0541 0-.1067.01759-.1498.05012z"/></g></g></svg>