<svg fill="none" height="32" viewBox="0 0 32 32" width="32" xmlns="http://www.w3.org/2000/svg" xmlns:xlink="http://www.w3.org/1999/xlink"><linearGradient id="a" gradientUnits="userSpaceOnUse" x1="16" x2="16" y1="0" y2="32"><stop offset="0" stop-color="#f5b745"/><stop offset="1" stop-color="#fc8b47"/></linearGradient><path d="m16 32c8.8366 0 16-7.1634 16-16 0-8.83656-7.1634-16-16-16-8.83656 0-16 7.16344-16 16 0 8.8366 7.16344 16 16 16z" fill="url(#a)"/><g fill="#fff"><path d="m16.0633 4.6768v-4.67519289c-.0212-.00008889-.0421-.00160711-.0634-.00160711-.248 0-.4942.00753067-.7394.0186844v4.6777756c.2277-.01358.4567-.02257.6878-.02257.0385 0 .0765.00252.115.00291z"/><path d="m14.4119.0789795c-.2696.0265865-.5372.0597815-.8028.0995875v4.737193c.2642-.05521.5323-.09915.8028-.1357z"/><path d="m18.231.158236c-.2656-.037065-.5332-.0675329-.8028-.0914025v4.7060565c.2704.03513.5387.07656.8028.13033z"/><path d="m12.687 5.09446v-4.749001c-.2702.056922-.5378.120753-.8027.191492v2.959239l-1.3588-2.534397c-.2539.092447-.5048.190877-.75279.295307l2.15909 4.02713z"/><path d="m21.9671 1.1545c-.2501-.10062-.5033-.194954-.7594-.282982l-1.2965 2.418252v-2.806249c-.265-.066607-.5326-.12634-.8028-.1792v4.583719l.7552.18975z"/><path d="m15.8333 27.4265v4.5693c.0557.0005.1107.0042.1666.0042.2134 0 .4248-.0078.6361-.0161v-4.577c-.2277.0135-.4566.0225-.6877.0225-.0386 0-.0765-.0025-.115-.0029z"/><path d="m17.4851 31.9289c.2696-.0248.5372-.0563.8028-.0943v-4.647c-.2642.0552-.5323.0991-.8028.1357z"/><path d="m13.6655 31.8287c.2656.0388.5332.071.8028.0967v-4.5949c-.2704-.0351-.5387-.0766-.8028-.1304z"/><path d="m19.3147 28.4903v3.1638c.2703-.057.5379-.1208.8028-.1916v-1.374l.6393 1.1924c.2598-.0807.5166-.1681.7704-.262l-1.4573-2.7182z"/><path d="m10.5205 31.0365c.2544.0927.5119.1789.7723.2585l.5916-1.1034v1.2714c.265.0704.5326.1342.8028.1915v-3.0611l-.7552-.1896z"/><path d="m.0153809 16.6077c.0100693.2693.026765.5369.0500871.8027h4.588712c-.03159-.2651-.05651-.5323-.06951-.8027z"/><path d="m.161865 18.2594c.038163.2698.082911.5374.134244.8028h4.680141c-.07231-.2641-.13633-.5314-.18969-.8028z"/><path d="m.0769938 14.4398c-.0257375.2657-.0449731.5333-.0577067.8027h4.5832729c.01901-.2702.0464-.5381.08394-.8027z"/><path d="m4.06213 20.0372h-3.547482c.070333.2706.148459.5379.232424.8027h1.716798l-1.44775.7763c.09477.2527.1958.5022.30309.7486l2.93268-1.5724z"/><path d="m.849934 10.856c-.087412.2575-.168336.5178-.242773.781l2.579249 1.3828h-2.90503c-.05002.2654-.093357.533-.130013.8028h4.633303l.02799-.1114c.04562-.2181.09892-.4332.1568-.6464z"/><path d="m27.2961 16.8375h4.682c.0138-.2659.0208-.5335.0211-.8028h-4.6735l.0005.017c0 .2644-.0123.5259-.0301.7858z"/><path d="m31.9794 15.186c-.0136-.2695-.0337-.5371-.0606-.8028h-4.7157c.0389.2645.0665.5326.0868.8028z"/><path d="m31.7142 19.0052c.0504-.2653.0942-.5329.1313-.8027h-4.725c-.0519.2711-.1132.5387-.1837.8027z"/><path d="m27.4581 13.4097h4.33c-.0439-.27-.0947-.5376-.1522-.8028h-2.5796l2.2667-1.2152c-.0784-.2612-.1631-.5195-.254-.7749l-3.8007 2.0377z"/><path d="m27.6812 20.6892 3.024 1.6214c.1061-.247.2062-.497.3004-.75l-1.5364-.8238h1.8174c.0819-.2646.1567-.5322.2245-.8028h-3.6402z"/><path d="m4.94653 27.5617c.19371.1852.39197.3656.59477.541l3.22674-3.2267c-.20818-.1696-.40916-.3474-.60471-.531z"/><path d="m6.20068 28.6435c.21367.1659.43149.3264.65345.4816l3.28867-3.2887c-.23573-.1402-.46565-.2886-.68975-.4453z"/><path d="m3.48267 25.9601c.16749.2102.33998.416.51746.6175l3.22423-3.2242c-.17312-.2066-.33856-.4196-.49632-.6388z"/><path d="m10.3044 27.4837-2.34639 2.3464c.24062.1402.48517.2742.73364.4018l1.05023-1.0503-.41113 1.3616c.24434.1122.49189.2183.74265.3183l.8992-2.9778z"/><path d="m4.87354 21.8878-3.31714 1.0017c.11742.2457.24061.4881.36955.727l1.6495-.4981-1.22751 1.2275c.14315.2337.2923.4631.44746.6883l2.47798-2.478z"/><path d="m27.7205 5.11305c-.1822-.19614-.3694-.38749-.5613-.57405l-3.3201 3.32006c.1928.18576.3805.37669.5599.57554z"/><path d="m26.5348 3.9631c-.2021-.17707-.4087-.34897-.6197-.51571l-3.3506 3.35067c.2197.1574.4351.32034.6428.4926z"/><path d="m29.0919 6.80741c-.1559-.2215-.3171-.43874-.4837-.65171l-3.3538 3.35375c.1573.22329.3083.4512.4495.68595z"/><path d="m21.8333 6.20241 3.3214-3.32129c-.2237-.15636-.4514-.30718-.683-.45247l-2.0759 2.07586.8378-2.7746c-.241-.12244-.4854-.23889-.7332-.34936l-1.3354 4.42205z"/><path d="m26.9547 11.3858 3.9535-1.1939c-.098-.25134-.2021-.4995-.3122-.74444l-2.3432.70754 1.8035-1.80352c-.1328-.24347-.2726-.48238-.4174-.718l-3.084 3.08402z"/><path d="m26.8339 27.7712c.197-.1815.3892-.3678.5767-.5591l-3.2697-3.2696c-.1858.1929-.3768.3806-.5757.5601z"/><path d="m27.9889 26.5902c.1779-.2013.3507-.4071.5183-.6174l-3.3052-3.3052c-.1574.2198-.3205.4353-.4928.643z"/><path d="m25.1323 29.1348c.2224-.1549.4405-.3154.6544-.4813l-3.2959-3.2959c-.2234.1573-.4513.3084-.6861.4497z"/><path d="m26.7612 22.5562 2.4577 2.4577c.1543-.2258.3032-.4556.4466-.6892l-1.2064-1.2063 1.6195.4891c.1292-.2387.2522-.4811.3691-.7272l-3.2866-.9925z"/><path d="m21.2683 27.7806.9014 2.985c.2495-.1044.4958-.2146.7389-.3307l-.4096-1.3561 1.0366 1.0366c.2453-.1312.4869-.2682.7248-.411l-2.3239-2.3238z"/><path d="m4.38771 4.99939c-.18435.19453-.3638.39355-.53834.59707l3.27469 3.27463c.16955-.2081.34729-.40903.53088-.60454z"/><path d="m3.311 6.25842c-.16502.21465-.32475.43339-.47921.65621l3.33169 3.33157c.14022-.2357.28871-.46572.44547-.68991z"/><path d="m5.98222 3.52814c-.20942.16842-.41451.3418-.61528.52014l3.27965 3.27958c.20666-.17318.41964-.33868.63895-.49649z"/><path d="m2.29556 7.73956c-.14338.23735-.28035.47885-.41091.7245l2.20696 2.20694-2.8495-.86037c-.10371.24697-.20118.49717-.292403.75047l4.408743 1.3312c.10144-.258.20925-.5128.32861-.7612z"/><path d="m9.44782 1.40393c-.24761.11133-.49176.22868-.73246.35206l.92353 3.05821-2.27821-2.27811c-.22947.14755-.45484.30066-.67611.45933l3.34073 3.34061c.2535-.15493.515-.29792.7811-.43303z"/><path d="m27.3261 16.0517-.0004-.017c-.0004-.2858-.0145-.5682-.0357-.8487-.0203-.2702-.0479-.5383-.0868-.8028-.2174-1.4815-.7271-2.905-1.4993-4.1878-.1412-.23475-.2922-.46266-.4495-.68594-.2633-.37511-.5489-.73404-.8554-1.07485-.1793-.19885-.367-.38978-.5598-.57554-.2041-.19657-.4137-.38735-.632-.56838-.2077-.17227-.4231-.3352-.6428-.4926-1.2949-.92979-2.7716-1.57552-4.3333-1.89488-.2641-.05378-.5325-.09521-.8028-.13034-.4527-.05917-.9085-.09125-1.365-.09607-.0384-.00039-.0764-.00291-.1149-.00291-.2312 0-.4601.00898-.6878.02257-.2861.01707-.5688.04577-.8488.08359-.2705.03655-.5386.0805-.8028.1357-.9736.20419-1.916.53615-2.8026.98726-.2661.13511-.5276.27811-.7812.43303-.25373.15503-.49956.32149-.73971.49534-.21875.15835-.43173.32385-.63895.49648-.3489.29288-.68.60632-.99154.93867-.18359.19551-.36133.39644-.53088.60454-.18039.22141-.3521.44981-.51515.68519-.15636.2244-.30485.45434-.44546.68994-.17086.2874-.33091.5819-.47645.8848-.11936.2485-.22717.5033-.3286.7613-.15098.3834-.28083.7748-.38898 1.1724-.0579.2133-.1112.4284-.1568.6465-.0502.24-.09156.4832-.12637.7286-.03754.2646-.06493.5325-.08394.8027-.01881.2676-.03181.5368-.03181.8092 0 .1864.00518.3717.01406.5559.013.2705.03791.5376.06951.8028.03407.2863.07741.5696.13236.849.05336.2713.11738.5387.18969.8027.35978 1.3129.95324 2.5502 1.75193 3.6525.15831.2187.32374.4316.49631.6387.2929.349.60638.6801.93876.9917.19555.1836.39653.3614.60471.531.22138.1804.44975.3521.68513.5151.22433.1563.45424.3047.68978.4453 1.0894.649 2.2803 1.11 3.5228 1.3637.2641.0538.5324.0953.8028.1304.4526.0592.9084.0912 1.3649.0961.0385.0003.0765.0029.1151.0029.2311 0 .46-.009.6877-.0226.2861-.0171.5689-.0458.849-.0836.2705-.0366.5386-.0805.8027-.1357 1.2414-.2596 2.4303-.7262 3.5168-1.3803.2348-.1412.4628-.2923.6862-.4496.3749-.2633.7337-.5488 1.0744-.8551.1989-.1794.3899-.3672.5757-.5601.1966-.204.3873-.4136.5683-.6318.1724-.2078.3354-.4233.4928-.6431.7937-1.1065 1.3814-2.3472 1.7347-3.6624.0707-.2639.132-.5315.1837-.8027.086-.4511.1447-.9069.1757-1.365.0177-.2599.03-.5214.03-.7858z"/><path d="m15.9483 27.4294c6.2838 0 11.3778-5.094 11.3778-11.3777 0-6.28381-5.094-11.37781-11.3778-11.37781-6.28374 0-11.37774 5.094-11.37774 11.37781 0 6.2837 5.094 11.3777 11.37774 11.3777z"/></g><path d="m16.5677 16.258h-1.4451l1.3536-10.87747c-.1749-.0085-.3508-.01334-.5278-.01334-2.8337 0-5.5514 1.12568-7.55508 3.1294-2.00372 2.00371-3.1294 4.72131-3.1294 7.55501s1.12568 5.5514 3.1294 7.5551c2.00368 2.0037 4.72138 3.1294 7.55508 3.1294.0214 0 .0426-.0015.064-.0017z" fill="#f8ba3a"/><path d="m5.83711 14.5978c.24864 2.0251 1.56598 4.1319 3.59044 3.8833 6.87095-.8436 5.90555-5.2589 5.81305-6.6889.4972 4.05 3.5732 5.5365 8.7264 4.9037 1.5337-.1883 2.162-3.1858 1.9922-4.5687-.2123-1.7287-4.7892-1.9814-10.4945-1.2809-5.70535.7005-9.93838 1.2203-9.62759 3.7515z" fill="#01c1ae"/><path d="m9.10909 19.1319c-.51128-.0098-1.01368-.1354-1.46934-.3675s-.85271-.5646-1.16122-.9724c-.70064-.903-1.13912-1.9815-1.26736-3.1172-.27449-2.2337 2.18854-2.9927 2.99792-3.242 1.78611-.5505 4.28511-.8573 7.17861-1.2125 4.9318-.60556 10.8773-.77935 11.1976 1.83.0832 1.0213-.0488 2.0486-.3873 3.0157-.4644 1.3413-1.2295 2.1427-2.154 2.2559-2.7424.3368-4.9241.0784-6.4865-.767-.7163-.3809-1.336-.9208-1.8114-1.5782-.4946 1.7542-2.0023 3.6101-6.24152 4.1306-.13122.0161-.26329.0243-.39549.0246zm5.53611-7.549c-2.4528.3044-4.5651.5934-6.06458 1.0556-2.26285.6972-2.16077 1.5278-2.11736 1.8825.09767.899.44054 1.7539.99114 2.4713.21073.2996.49757.5375.83093.6891.33336.1517.70115.2117 1.06543.1738 5.76114-.7077 5.45624-3.92 5.29254-5.6457-.0134-.1404-.0252-.2668-.0323-.3766-.0056-.0847.006-.1698.0342-.25zm1.1222-.1378c.0535.0812.0875.1736.0992.2701.2204 1.7945.9699 3.0146 2.2916 3.7301 1.3268.7186 3.2551.9279 5.732.6245.4088-.0504.8258-.5799 1.1158-1.4167.2741-.7857.3855-1.6189.3272-2.449-.0897-.7286-2.7687-1.5687-9.5658-.759z" fill="#01c1ae"/><path d="m20.4128 18.6608c-.0063-.0758-.0423-.146-.1002-.1952-.058-.0492-.1331-.0734-.2089-.0673l-8.6689.7073c-.0758.0062-.146.0422-.1952.1002-.0492.0579-.0734.133-.0673.2088.0493.5695.218 1.1223.4951 1.6223.2771.5001.6564.9361 1.1132 1.2798.8435.6463 1.8781.9934 2.9407.9864.1387 0 .278-.0057.4179-.017 1.203-.0877 2.3294-.6233 3.1569-1.501.3951-.4132.6987-.905.8911-1.4433s.2692-1.1111.2256-1.681z" fill="#fe9a54"/><path d="m19.5321 20.4156h-2.2935c-.0606.0004-.1187.0247-.1615.0677-.0427.043-.0667.1012-.0667.1618 0 .0607.024.1189.0667.1619.0428.043.1009.0673.1615.0676h2.0428c-.1201.1846-.2558.3585-.4056.5198-.7361.7645-1.7258 1.2339-2.7835 1.3202-1.0576.0863-2.1104-.2164-2.9606-.8514-.7151-.5384-1.1986-1.3287-1.3526-2.2104l8.0732-.6587c-.0029.4914-.1121.9763-.3202 1.4215z" fill="#fff"/><path d="m22.3177 16.4614c-1.2996.0052-2.5901-.2158-3.8139-.6531-1.8674-.7054-2.6353-2.5727-2.7804-3.4614-.0011-1.2386 1.4432-1.373 4.5088-1.373 3.5528 0 5.1327.3415 5.2829 1.1419.1553 1.4495-.3613 3.6705-1.1221 4.0508-.6667.2297-1.3711.3297-2.0753.2948z" fill="#000"/><path d="m9.23539 17.9549c-.32285.012-.64527-.0334-.95226-.1341-.71614-.2899-1.9-1.9094-2.00556-3.4675-.02099-.1191-.01685-.2413.01219-.3587.02903-.1174.0823-.2275.15639-.3231.52066-.7646 2.11545-1.4748 3.96875-1.7675 1.0314-.1953 2.0748-.3206 3.1231-.3748.8276 0 1.2578.2107 1.395.6833.473 1.6297-.2966 3.5462-1.8301 4.557-1.1524.75-2.4926 1.1608-3.86736 1.1854z" fill="#000"/><path d="m25.9613 7.43225.9061 2.44871 2.4487.90614-2.4487.9061-.9061 2.4487-.9061-2.4487-2.4488-.9061 2.4488-.90614z" fill="#fff"/></svg>