<svg xmlns="http://www.w3.org/2000/svg" width="32" height="32" fill="none"><defs><linearGradient id="sun__a" x1="16" x2="16" y1="0" y2="32" gradientUnits="userSpaceOnUse"><stop stop-color="#F5B745"/><stop offset="1" stop-color="#FC8B47"/></linearGradient></defs><path fill="url(#sun__a)" d="M16 32c8.837 0 16-7.163 16-16S24.837 0 16 0 0 7.163 0 16s7.163 16 16 16Z"/><path fill="#fff" d="M16.063 4.677V.002L16 0c-.248 0-.494.008-.74.019v4.677c.228-.013.457-.022.688-.022.039 0 .077.002.115.003ZM14.412.079c-.27.027-.537.06-.803.1v4.737c.264-.055.532-.1.803-.136V.08Zm3.819.079a16.047 16.047 0 0 0-.803-.091v4.706c.27.035.539.076.803.13V.158Zm-5.544 4.936V.345c-.27.057-.538.121-.803.192v2.96L10.525.961c-.253.092-.504.19-.752.295l2.159 4.027.755-.19Zm9.28-3.939c-.25-.101-.503-.195-.76-.283L19.912 3.29V.484a15.504 15.504 0 0 0-.803-.18v4.584l.756.19 2.103-3.924Zm-6.134 26.272v4.569c.056 0 .111.004.167.004.213 0 .425-.008.636-.016v-4.577c-.228.013-.457.022-.688.022l-.115-.002Zm1.652 4.502c.27-.025.537-.056.803-.094v-4.647a11.4 11.4 0 0 1-.803.135v4.606Zm-3.82-.1c.266.038.534.07.803.096V27.33a11.33 11.33 0 0 1-.803-.13v4.629Zm5.65-3.339v3.164c.27-.057.538-.12.802-.192V30.09l.64 1.192c.26-.08.516-.168.77-.262L20.07 28.3l-.755.19Zm-8.795 2.547c.255.092.512.178.773.258l.591-1.103v1.271c.265.07.533.134.803.191v-3.06l-.755-.19-1.412 2.633ZM.015 16.608c.01.269.027.537.05.802h4.59a11.405 11.405 0 0 1-.07-.802H.015Zm.147 1.652c.038.27.083.537.134.802h4.68a11.277 11.277 0 0 1-.19-.803H.163Zm-.085-3.82c-.026.266-.045.533-.058.803h4.584c.019-.27.046-.539.083-.803H.077Zm3.985 5.597H.515c.07.27.148.538.232.803h1.717l-1.448.776c.095.253.196.502.303.749l2.933-1.573-.19-.755ZM.85 10.856c-.087.258-.168.518-.243.781l2.58 1.383H.28c-.05.265-.093.533-.13.803h4.634l.028-.112c.045-.218.099-.433.156-.646L.85 10.856Zm26.446 5.981h4.682c.014-.265.02-.533.021-.802h-4.673v.017c0 .264-.012.526-.03.785Zm4.684-1.651a15.95 15.95 0 0 0-.061-.803h-4.716c.039.265.067.533.087.803h4.69Zm-.266 3.819c.05-.265.094-.533.132-.802H27.12c-.051.27-.113.538-.183.802h4.777Zm-4.256-5.595h4.33a16.25 16.25 0 0 0-.152-.803h-2.58l2.267-1.215a16.2 16.2 0 0 0-.254-.775l-3.8 2.037.19.756Zm.223 7.28 3.024 1.62c.106-.246.206-.496.3-.75l-1.536-.823h1.818c.082-.265.156-.532.224-.803h-3.64l-.19.755ZM4.947 27.562c.193.185.391.365.594.54l3.227-3.226c-.208-.17-.41-.347-.605-.531l-3.216 3.217ZM6.2 28.643c.214.166.432.327.654.482l3.289-3.289c-.236-.14-.466-.288-.69-.445l-3.252 3.253ZM3.483 25.96c.167.21.34.416.517.618l3.224-3.225c-.173-.206-.338-.42-.496-.638L3.483 25.96Zm6.821 1.524L7.958 29.83c.24.14.485.274.734.402l1.05-1.05-.411 1.361c.244.112.492.219.742.319l.9-2.978-.669-.4Zm-5.43-5.596L1.556 22.89c.118.245.241.488.37.726l1.65-.498-1.228 1.228c.143.234.292.463.447.688l2.478-2.478-.4-.668ZM27.72 5.113a16.845 16.845 0 0 0-.56-.574l-3.32 3.32c.192.186.38.377.559.576l3.322-3.322Zm-1.185-1.15a15.895 15.895 0 0 0-.62-.516l-3.35 3.351c.22.157.435.32.642.493l3.328-3.328Zm2.557 2.844a16.057 16.057 0 0 0-.484-.651l-3.354 3.353c.158.224.309.452.45.686l3.388-3.388Zm-7.259-.605 3.322-3.32a16.464 16.464 0 0 0-.683-.453l-2.076 2.076.838-2.775a16.016 16.016 0 0 0-.734-.35l-1.335 4.423.668.4Zm5.122 5.184 3.953-1.194c-.098-.251-.202-.5-.312-.745l-2.343.708 1.803-1.804a16.059 16.059 0 0 0-.417-.718l-3.084 3.084.4.669Zm-.121 16.385c.197-.181.39-.368.577-.559l-3.27-3.27c-.186.193-.377.381-.576.56l3.269 3.27Zm1.155-1.181c.178-.201.35-.407.518-.617l-3.305-3.305c-.157.22-.32.435-.493.643l3.28 3.28Zm-2.857 2.545c.223-.155.44-.316.655-.482l-3.296-3.295a11.43 11.43 0 0 1-.686.45l3.327 3.327Zm1.629-6.579 2.458 2.458c.154-.226.303-.456.447-.69l-1.207-1.206 1.62.49c.129-.24.252-.482.369-.728l-3.287-.992-.4.668Zm-5.493 5.224.902 2.986c.25-.105.495-.215.739-.331l-.41-1.356 1.037 1.036c.245-.13.486-.268.724-.41l-2.324-2.324-.668.4ZM4.388 5c-.185.194-.364.393-.539.596l3.275 3.275c.17-.208.347-.409.53-.604L4.389 4.999ZM3.311 6.258c-.165.215-.325.434-.48.657l3.332 3.331c.14-.236.29-.466.446-.69L3.311 6.258Zm2.671-2.73c-.21.169-.414.342-.615.52l3.28 3.28c.206-.173.42-.339.639-.497L5.982 3.528ZM2.296 7.74c-.144.237-.28.478-.411.724l2.207 2.207-2.85-.86c-.104.247-.201.497-.292.75l4.408 1.331c.102-.258.21-.512.33-.76L2.295 7.74Zm7.152-6.336c-.248.111-.492.229-.733.352l.924 3.058L7.36 2.536c-.23.148-.455.3-.676.46l3.34 3.34c.254-.155.515-.298.781-.433l-1.358-4.5Z"/><path fill="#fff" d="M27.326 16.052v-.017c0-.286-.015-.569-.036-.849a11.302 11.302 0 0 0-2.036-5.677 11.413 11.413 0 0 0-.855-1.074 11.43 11.43 0 0 0-.56-.576 11.445 11.445 0 0 0-.632-.568 11.448 11.448 0 0 0-.643-.493 11.317 11.317 0 0 0-4.333-1.895 11.368 11.368 0 0 0-.803-.13c-.452-.06-.908-.091-1.365-.096-.038 0-.076-.003-.115-.003a11.527 11.527 0 0 0-1.536.106 11.29 11.29 0 0 0-3.605 1.123c-.267.135-.528.278-.782.433a11.897 11.897 0 0 0-1.379.992A11.444 11.444 0 0 0 6.61 9.556a11.648 11.648 0 0 0-.922 1.575c-.12.248-.227.503-.329.761a11.28 11.28 0 0 0-.756 3.35c-.018.268-.031.537-.031.81a11.54 11.54 0 0 0 .405 3.01 11.327 11.327 0 0 0 2.248 4.291 11.44 11.44 0 0 0 2.229 2.038 11.3 11.3 0 0 0 4.213 1.809c.264.054.532.095.802.13.453.06.909.092 1.365.097.039 0 .077.003.115.003a11.518 11.518 0 0 0 1.537-.107c.27-.036.539-.08.803-.135a11.305 11.305 0 0 0 4.203-1.83 11.45 11.45 0 0 0 1.074-.855c.2-.18.39-.368.576-.56.197-.205.387-.414.568-.632.173-.208.336-.424.493-.643a11.324 11.324 0 0 0 2.124-6.616Z"/><path fill="#fff" d="M15.948 27.43c6.284 0 11.378-5.095 11.378-11.378 0-6.284-5.094-11.378-11.378-11.378-6.283 0-11.377 5.094-11.377 11.378 0 6.283 5.094 11.377 11.377 11.377Z"/><path fill="#F8BA3A" d="M16.568 16.258h-1.445l1.353-10.877a10.684 10.684 0 1 0-.528 21.356c.022 0 .043-.002.064-.003l.556-10.476Z"/><path fill="#01C1AE" d="M5.837 14.598c.249 2.025 1.566 4.132 3.59 3.883 6.872-.844 5.906-5.259 5.814-6.689.497 4.05 3.573 5.537 8.726 4.904 1.534-.188 2.162-3.186 1.992-4.569-.212-1.729-4.789-1.981-10.494-1.28-5.706.7-9.939 1.22-9.628 3.75Z"/><path fill="#01C1AE" d="M9.11 19.132a3.38 3.38 0 0 1-2.631-1.34 6.224 6.224 0 0 1-1.268-3.117C4.937 12.44 7.4 11.682 8.21 11.433c1.786-.55 4.285-.857 7.179-1.213 4.932-.605 10.877-.779 11.197 1.83a7.327 7.327 0 0 1-.387 3.016c-.464 1.341-1.23 2.143-2.154 2.256-2.742.337-4.924.078-6.486-.767a5.315 5.315 0 0 1-1.812-1.578c-.495 1.754-2.002 3.61-6.241 4.13a3.31 3.31 0 0 1-.396.025Zm5.535-7.55c-2.453.305-4.565.594-6.064 1.056-2.263.698-2.161 1.528-2.118 1.883.098.899.44 1.754.991 2.471a2.057 2.057 0 0 0 1.897.863c5.76-.707 5.456-3.92 5.292-5.646-.013-.14-.025-.266-.032-.376a.629.629 0 0 1 .034-.25Zm1.122-.137a.628.628 0 0 1 .1.27c.22 1.795.97 3.015 2.291 3.73 1.327.719 3.255.928 5.732.625.409-.05.826-.58 1.116-1.417a6.13 6.13 0 0 0 .327-2.449c-.09-.729-2.768-1.569-9.566-.759Z"/><path fill="#FE9A54" d="M20.413 18.66a.287.287 0 0 0-.31-.262l-8.668.708a.287.287 0 0 0-.263.309 4.071 4.071 0 0 0 1.609 2.902 4.783 4.783 0 0 0 2.94.986c.139 0 .278-.006.418-.017a4.82 4.82 0 0 0 3.157-1.5 4.071 4.071 0 0 0 1.117-3.125Z"/><path fill="#fff" d="M19.532 20.416H17.24a.23.23 0 0 0 0 .459h2.042c-.12.184-.255.358-.405.52a4.356 4.356 0 0 1-5.744.468 3.526 3.526 0 0 1-1.353-2.21l8.073-.659a3.404 3.404 0 0 1-.32 1.422Z"/><path fill="#000" d="M22.318 16.461a11.2 11.2 0 0 1-3.814-.653c-1.868-.705-2.636-2.572-2.78-3.461-.002-1.239 1.443-1.373 4.508-1.373 3.553 0 5.133.341 5.283 1.142.155 1.45-.361 3.67-1.122 4.05a5.53 5.53 0 0 1-2.075.295ZM9.235 17.955a2.73 2.73 0 0 1-.952-.134c-.716-.29-1.9-1.91-2.005-3.468a.867.867 0 0 1 .168-.681c.52-.765 2.116-1.475 3.969-1.768a23.235 23.235 0 0 1 3.123-.375c.828 0 1.258.21 1.395.684.473 1.63-.297 3.546-1.83 4.557a7.33 7.33 0 0 1-3.867 1.185Z"/><path fill="#fff" d="m25.961 7.432.906 2.449 2.45.906-2.45.906-.906 2.449-.906-2.449-2.449-.906 2.45-.906.905-2.449Z"/></svg>