<svg xmlns="http://www.w3.org/2000/svg" width="32" height="32" fill="none"><path fill="#FFD609" d="M16 32c8.837 0 16-7.163 16-16S24.837 0 16 0 0 7.163 0 16s7.163 16 16 16Z"/><path fill="#FFD609" d="m18.6 19-.867 2.867-.2.6L16 27.333A10.666 10.666 0 1 1 16 6a16.35 16.35 0 0 1 1.8.133L16 19h2.6Z"/><path fill="#fff" d="M17.8 6.133 16 19h2.533L16 27.333a10.677 10.677 0 0 0 1.8-21.2Z"/><path fill="#FFD609" d="M17.533 22.533c-.133 0-.2-.066-.266-.2 0-.133.066-.333.2-.333a5.825 5.825 0 0 0 2.4-1.2.287.287 0 0 1 .333.467 7.58 7.58 0 0 1-2.667 1.266Z"/><path fill="#fff" d="m17.667 21.933-.2.6a9.961 9.961 0 0 1-1.4.134 8.996 8.996 0 0 1-4.667-1.4c-.133-.067-.2-.267-.067-.334.067-.133.267-.2.334-.066a8.863 8.863 0 0 0 6 1.066Z"/><path fill="#4C3415" d="M23.133 12.4H8.867c-.4 0-1.067.2-.6 1.667C8.8 15.6 9.333 17.2 9.533 17.933a.559.559 0 0 0 .534.4H14.2a.58.58 0 0 0 .533-.4L15.6 15.2c.067-.267.067-.4.267-.4h.266c.2 0 .2.133.267.4l.867 2.733a.58.58 0 0 0 .533.4h4.133a.559.559 0 0 0 .534-.4c.2-.733.733-2.333 1.266-3.866.467-1.467-.2-1.667-.6-1.667Z"/><path fill="#010101" d="M22.067 13.333H17.8a.373.373 0 0 0-.333.4L18 16.667a1.064 1.064 0 0 0 1 .866h1.733a.82.82 0 0 0 .734-.466l1.066-2.267a.6.6 0 0 0 .067-.333l.067-.467a.657.657 0 0 0-.6-.667Z"/><path fill="#fff" d="m20.785 13.333-2.534 3.824a1.034 1.034 0 0 0 .75.376h.04l2.783-4.2h-1.04Zm-1.038 0h-.48l-1.47 2.219.072.396.101.067 1.777-2.682Zm-1.243 0-.87 1.315.051.285 1.06-1.6h-.24Z" opacity=".33"/><path fill="#010101" d="M14.267 15 14 16.667a1.065 1.065 0 0 1-1 .866h-1.733a.819.819 0 0 1-.734-.466L9.467 14.8a.6.6 0 0 1-.067-.333L9.333 14a.658.658 0 0 1 .6-.667H14.2a.373.373 0 0 1 .333.4L14.267 15Z"/><path fill="#fff" d="m12.69 13.333-2.288 3.454.131.28a.841.841 0 0 0 .452.41l2.744-4.144h-1.04Zm-1.53 0-1.394 2.103.2.424 1.673-2.527h-.48Zm-.92 0-.834 1.258a.541.541 0 0 0 .06.21l.018.035.995-1.503h-.24Z" opacity=".33"/><path fill="#fff" d="M32 16c0-.09-.005-.178-.007-.267h-5.307c-.023-.27-.061-.535-.104-.8h5.379c-.012-.178-.023-.356-.04-.533h-5.428a11.032 11.032 0 0 0-.265-1.01l5.462-.529c-.035-.176-.076-.35-.116-.525l-4.06.394 3.65-1.83c-.056-.17-.114-.34-.177-.508l-4.949 2.48c-.134-.36-.287-.712-.458-1.056l5.139-2.097a16.38 16.38 0 0 0-.22-.486l-3.95 1.612 3.172-3.077a15.747 15.747 0 0 0-.291-.46l-4.12 3.996a10.854 10.854 0 0 0-.592-.925l4.115-3.936c-.107-.143-.219-.282-.33-.422L24.396 9.95c-.28-.359-.584-.7-.907-1.021l3.88-4.184a16.296 16.296 0 0 0-.384-.37L23.094 8.57a10.915 10.915 0 0 0-.895-.72l3.805-4.332c-.139-.111-.277-.223-.42-.33l-3.827 4.357a12.73 12.73 0 0 0-.57-.347l3.571-4.585c-.15-.098-.298-.196-.45-.289l-2.872 3.685 1.38-4.485c-.162-.076-.325-.15-.49-.221L20.604 6.9c-.383-.186-.776-.35-1.178-.49L21.565.996c-.167-.062-.336-.118-.505-.174l-1.59 4.026.237-4.412c-.175-.041-.35-.083-.527-.119l-.32 5.91a10.73 10.73 0 0 0-.787-.202L17.948.122a19 19 0 0 0-.535-.056l.125 5.876a10.883 10.883 0 0 0-1.671-.142c-.068 0-.133.009-.2.01V.008c-.179.004-.357.007-.534.016v5.813a11.06 11.06 0 0 0-1.04.12L13.947.136c-.178.022-.355.046-.532.075l.147 5.84c-.259.055-.513.122-.764.196l-.203-5.88c-.178.038-.354.078-.53.122l.16 4.623-1.754-4.13c-.168.061-.332.129-.497.196l2.238 5.266c-.336.12-.664.256-.984.407l-.03-.104.002-.003-.005-.005-1.588-5.407a15.88 15.88 0 0 0-.49.222L10.392 5.9 7.244 2.61c-.151.098-.3.2-.447.304l3.922 4.1.012.041.022-.006.02.02c-.347.184-.684.386-1.01.606l-3.9-4.053c-.138.113-.271.23-.405.348l3.877 4.028c-.374.28-.73.583-1.066.908L4.342 5.047c-.122.13-.242.262-.359.395L7.9 9.294a11.19 11.19 0 0 0-.793.96L3.453 6.079c-.112.142-.224.284-.332.43l3.669 4.193c-.133.201-.257.408-.376.619l-4.02-3.737c-.096.155-.188.312-.278.47l3.175 2.95-4.057-1.172a16.03 16.03 0 0 0-.196.498l5.119 1.48c-.246.486-.454.988-.624 1.505v-.148l.088-.178-.088-.043v-.012H5.51L.918 10.656c-.06.169-.119.338-.173.51l3.565 1.767H.297c-.035.177-.067.355-.095.534H5.48c-.08.261-.145.53-.206.8H.095a16.2 16.2 0 0 0-.046.533h5.122c-.096.55-.15 1.108-.161 1.667H.012c.005.178.011.356.022.533h4.983c.01.337.033.671.073 1H.129c.022.178.044.357.073.533h4.97c.058.34.133.673.223 1H.396c.04.179.08.357.127.534h3.701L.968 21.493c.061.168.129.332.195.497l4.388-1.922c.12.364.261.722.42 1.072L1.42 22.587c.074.163.15.326.229.487l3.25-1.034-2.614 2.2c.093.154.19.305.288.455l3.638-3.06c.148.286.309.563.48.834l-3.305 3.367c.11.141.221.282.336.42l3.27-3.333a10.915 10.915 0 0 0 2.291 2.373l-3.192 3.26c.14.112.282.222.426.329l3.16-3.228-.292-.285c.429.324.881.616 1.354.874l-3.364 3.227c.154.099.31.196.468.29l2.425-2.327-1.198 2.989c.16.077.323.148.486.22l1.67-4.165c.341.162.691.307 1.048.432L9.917 30.8c.167.069.335.136.504.198l1.857-3.065-.209 3.579c.174.044.35.083.527.122l.265-4.531c.312.09.629.168.952.23H13.8v4.513c.177.024.354.049.533.067v-4.5c.508.076 1.02.116 1.534.12a10.888 10.888 0 0 0 1.576-.127l.04 4.523c.179-.016.356-.038.533-.06l-.04-4.536h-.054c.35-.067.694-.151 1.032-.252l.187 4.609c.178-.036.353-.077.529-.118l-.144-3.554 1.575 3.147c.17-.057.34-.115.507-.178l-2.056-4.109c.373-.134.739-.29 1.095-.464l1.659 4.293c.163-.07.325-.144.486-.22l-1.21-3.131 2.437 2.487c.159-.092.315-.186.47-.283l-3.336-3.404c.44-.248.86-.526 1.26-.832l-.363.354 3.248 3.339c.146-.105.291-.21.433-.32l-3.297-3.388a10.94 10.94 0 0 0 1.235-1.09l3.396 3.331c.129-.123.256-.247.38-.374l-3.417-3.352c.236-.269.458-.548.667-.839l3.503 3.364c.115-.136.228-.274.339-.414L25 22.54l-.003.003c.213-.333.409-.677.584-1.032l3.807 3.245c.098-.15.197-.3.29-.453l-2.613-2.228 3.147 1.27c.082-.159.164-.317.24-.478L25.83 21c.13-.3.245-.607.349-.92l4.643 1.95c.067-.165.134-.33.196-.497l-3.462-1.453 3.906.043c.047-.176.088-.354.13-.532l-5.253-.058c.09-.328.164-.66.224-1h5.236c.028-.176.05-.355.073-.533h-5.228c.057-.442.087-.887.09-1.333 0-.135-.015-.267-.02-.4h5.28c.002-.09.007-.178.007-.267ZM15.867 27.2A10.533 10.533 0 1 1 26.4 16.667 10.555 10.555 0 0 1 15.867 27.2Z"/><path fill="#fff" d="M15.917 31.998 16 32c.151 0 .3-.007.45-.011l.02-4.405-.534-.003-.019 4.417ZM7.93 24.242l-3.124 3.186c.127.124.255.248.386.368l3.12-3.18-.381-.374Z"/></svg>