<svg fill="none" height="32" viewBox="0 0 32 32" width="32" xmlns="http://www.w3.org/2000/svg"><path d="m16 32c8.8366 0 16-7.1634 16-16 0-8.83656-7.1634-16-16-16-8.83656 0-16 7.16344-16 16 0 8.8366 7.16344 16 16 16z" fill="#ffd609"/><path d="m18.6 19-.8667 2.8667-.2.6-1.5333 4.8666c-1.4016.0014-2.7898-.2735-4.0851-.8089-1.2954-.5355-2.47247-1.321-3.46405-2.3116-.99159-.9906-1.77821-2.167-2.31491-3.4618s-.81294-2.6827-.81294-4.0843c0-1.4017.27624-2.7896.81294-4.0844s1.32332-2.4711 2.31491-3.46176c.99158-.99062 2.16865-1.77611 3.46405-2.31155 1.2953-.53544 2.6835-.81034 4.0851-.80898.602.01126 1.2029.05577 1.8.13332l-1.8 12.86667z" fill="#ffd609"/><path d="m17.8 6.1333-1.8 12.8667h2.5333l-2.5333 8.3333c2.6736-.0027 5.2489-1.0082 7.2169-2.818s3.1854-4.292 3.4115-6.956c.2262-2.664-.5552-5.3159-2.1899-7.4316-1.6347-2.11564-4.0036-3.54103-6.6385-3.9944z" fill="#fff"/><path d="m17.5333 22.5333c-.1334 0-.2-.0666-.2667-.2 0-.1333.0667-.3333.2-.3333.8825-.2078 1.7043-.6187 2.4-1.2.0619-.0442.1388-.062.2138-.0495s.142.0543.1862.1162c.0442.0618.062.1388.0495.2138s-.0543.142-.1162.1862c-.7973.5929-1.7033 1.0232-2.6666 1.2666z" fill="#ffd609"/><path d="m17.6668 21.9333-.2.6c-.463.0774-.9308.122-1.4.1333-1.6548-.0285-3.2695-.513-4.6667-1.4-.1333-.0666-.2-.2666-.0667-.3333.0667-.1333.2667-.2.3334-.0667 1.811 1.0536 3.9367 1.4315 6 1.0667z" fill="#fff"/><path d="m23.1334 12.4h-14.26671c-.4 0-1.06665.2-.6 1.6667.53334 1.5333 1.06667 3.1333 1.26667 3.8667.0341.1151.10439.2162.20046.2883.09606.072.21278.1112.33288.1117h4.1333c.1193-.0039.2344-.0443.3298-.1159.0954-.0715.1665-.1707.2036-.2841l.8666-2.7334c.0667-.2666.0667-.4.2667-.4h.2667c.2 0 .2.1334.2666.4l.8667 2.7334c.037.1134.1081.2126.2035.2841.0955.0716.2106.1121.3298.1159h4.1334c.12-.0005.2368-.0397.3328-.1117.0961-.0721.1664-.1732.2005-.2883.2-.7334.7333-2.3333 1.2666-3.8667.4667-1.4667-.1999-1.6667-.5999-1.6667z" fill="#4c3415"/><path d="m22.0667 13.3334h-4.2667c-.0967.0101-.1856.0576-.2479.1323-.0622.0747-.0929.1707-.0854.2677l.5333 2.9333c.0445.2361.1675.4502.3491.6075.1815.1574.4109.2487.6509.2592h1.7333c.1537-.0012.304-.0456.4337-.1282.1296-.0825.2335-.1998.2997-.3385l1.0666-2.2667c.0539-.1023.077-.2181.0667-.3333l.0667-.4667c.0029-.1664-.0574-.3277-.1688-.4514-.1113-.1237-.2654-.2006-.4312-.2152z" fill="#010101"/><path d="m20.7845 13.3333-2.5333 3.8236c.0916.1116.2056.2027.3346.2676.129.0648.2701.1018.4143.1088h.0414l2.7826-4.2z" fill="#fff" opacity=".33"/><path d="m19.7471 13.333h-.48l-1.47 2.219.072.396.101.067z" fill="#fff" opacity=".33"/><path d="m18.5041 13.333-.871 1.315.052.285 1.059-1.6z" fill="#fff" opacity=".33"/><path d="m14.2667 15-.2667 1.6667c-.0445.2361-.1675.4502-.349.6075-.1816.1574-.411.2487-.651.2592h-1.7333c-.1537-.0012-.3039-.0456-.4336-.1282-.1297-.0825-.2335-.1998-.2997-.3385l-1.06671-2.2667c-.05384-.1023-.07699-.2181-.06667-.3333l-.06667-.4667c-.0029-.1664.05739-.3277.16874-.4514.11134-.1237.26546-.2006.43126-.2152h4.26665c.0967.0101.1857.0576.2479.1323.0623.0747.0929.1707.0855.2677z" fill="#010101"/><g fill="#fff"><path d="m12.6897 13.3334-2.2881 3.4534.1317.2799c.094.188.2549.3341.4512.4094l2.7447-4.1427z" opacity=".33"/><path d="m11.1591 13.333-1.39299 2.103.199.424 1.67399-2.527z" opacity=".33"/><path d="m10.2394 13.3334-.83315 1.2575c.00578.0731.02636.1443.06048.2092l.017.036.99557-1.5027z" opacity=".33"/><path d="m31.9999 16c0-.0894-.0053-.1776-.0067-.2667h-5.3071c-.0231-.2703-.0615-.5356-.104-.8h5.3785c-.0117-.1782-.023-.3567-.0405-.5333h-5.4275c-.0728-.3426-.161-.679-.2646-1.0093l5.4621-.5297c-.035-.1763-.0757-.3504-.1165-.5245l-4.0603.3937 3.6515-1.8302c-.0572-.1702-.1149-.34-.1776-.5075l-4.9488 2.4804c-.1339-.3601-.2871-.7128-.4587-1.0566l5.1388-2.09749c-.07-.16386-.1446-.32528-.2199-.48629l-3.9499 1.61228 3.1719-3.07697c-.0937-.15588-.1922-.30835-.2911-.46069l-4.1199 3.99656c-.1814-.3179-.3788-.6264-.5914-.9244l4.1148-3.93598c-.1069-.14327-.2189-.28247-.3304-.422l-4.1062 3.92778c-.2809-.35908-.5841-.70022-.9077-1.02141l3.8801-4.18359c-.1252-.12638-.2543-.24866-.3835-.37081l-3.8913 4.19571c-.2854-.25559-.5842-.49598-.8949-.72017l3.805-4.33138c-.1388-.11141-.2774-.22327-.42-.33008l-3.8272 4.35663c-.1867-.12085-.3765-.23739-.5708-.34685l3.5719-4.585c-.1493-.09782-.2982-.19612-.4509-.28906l-2.8708 3.685 1.3799-4.48478c-.1619-.07634-.3252-.15015-.4899-.22144l-1.7222 5.59726c-.3827-.18652-.7762-.3502-1.1783-.49019l2.139-5.412997c-.1664-.06177-.3356-.118-.5046-.17427l-1.5909 4.026107.238-4.411297c-.1753-.04158-.3503-.08366-.5277-.11942l-.3189 5.910717c-.2596-.07442-.5201-.14734-.7873-.20251l-.1256-5.902997c-.1775-.02156-.3555-.0408501-.5347-.0565601l.125 5.8760571c-.5527-.09019-1.1115-.13759-1.6715-.14177-.0675 0-.1328.00887-.2.01009v-5.80166715c-.1782.00366005-.3566.00627005-.5334.01571005v5.8128671c-.352.02356-.6988.06367-1.0405.12032l-.1456-5.821737c-.178.02283-.3556.04659-.5317.07519l.1461 5.839767c-.2582.05582-.5123.12252-.7633.19637l-.2034-5.880167c-.1773.03845-.3542.07788-.5294.12215l.1599 4.623047-1.7545-4.130127c-.1673.061607-.3318.128747-.49635.195717l2.23725 5.2664c-.3361.12028-.664.25612-.9837.40751l-.0308-.1049.0024-.00236-.0045-.00476-1.58818-5.40742c-.16471.0719-.329.14461-.49072.22184l1.2767 4.34716-3.14807-3.29069c-.15092.09888-.29987.20035-.44685.3044l3.92192 4.09953.0123.042.0218-.00638.0196.02054c-.347.18365-.6838.38594-1.00888.606l-3.90262-4.054c-.13777.113-.27144.23051-.40531.34794l3.87748 4.02791c-.37456.27962-.73079.58299-1.06649.90824l-3.92578-3.85917c-.12187.12964-.24156.26128-.35905.3949l3.91809 3.8516c-.28242.305-.54718.62587-.793.96108l-3.655-4.1773c-.1125.142-.2244.28446-.33211.43038l3.66878 4.19302c-.13256.2012-.25655.4083-.37581.6186l-4.02038-3.7366c-.09583.15454-.18742.31172-.278.46968l3.17529 2.95122-4.05664-1.17317c-.06876.16443-.13309.33117-.19649.49827l5.119 1.4805c-.24545.485-.45387.9879-.62345 1.5044v-.1475l.08821-.1779-.08821-.0437v-.0114h-.023l-4.592591-2.2776c-.05981.1688-.11824.3383-.17252.5098l3.564661 1.7678h-4.012981c-.03435.1768-.06682.3544-.09526.5333h5.279131c-.08056.2617-.14489.5303-.20581.8h-5.1799412c-.019.1767-.0322701.355-.0454901.5333h5.1220013c-.09648.5506-.15045 1.1078-.16142 1.6667h-4.9982912c.0051299.1784.01156.3564.02246.5333h4.9825912c.01025.3374.03287.6711.07324 1h-4.961221c.02225.1784.04463.3568.07275.5333h4.969891c.05892.3393.13341.6726.22347 1h-4.998661c.04028.1786.08053.3571.12671.5333h3.701501l-3.256531 1.4264c.061201.1675.128781.3318.195391.4967l4.38766-1.9218c.12098.3645.26137.7223.42057 1.0718l-4.55217 1.4469c.074.1635.14909.3264.2284.487l3.251-1.0333-2.61486 2.2c.09261.1539.19022.3043.28784.4548l3.6381-3.061c.14766.2865.30892.5639.48059.8348l-3.3051 3.3673c.11027.1412.221.282.33581.4193l3.27071-3.3324c.63893.9026 1.41128 1.7028 2.29061 2.3733l-3.1921 3.2605c.14047.111.28134.2214.42554.3278l3.15943-3.2272-.29151-.2853c.429.3242.88147.6162 1.35377.8734l-3.36349 3.227c.15437.099.30953.1968.46748.2906l2.42521-2.3268-1.19795 2.9884c.16.0771.32344.1481.48645.2199l1.6694-4.1643c.3417.1621.6917.3062 1.0484.4316l-2.35562 3.888c.16662.0686.33402.1355.50332.1985l1.8572-3.0653-.2089 3.5788c.1744.044.3506.0833.5272.1216l.2644-4.531c.3126.0899.6293.1688.9527.2308h-.0135v4.5123c.1772.0244.3543.0493.5333.0678v-4.5008c.5077.0763 1.0201.1166 1.5334.1206.5277-.0041 1.0545-.0466 1.5761-.1271l.0406 4.5228c.1787-.0164.3558-.0377.5328-.0599l-.0407-4.5365-.0538.0005c.3506-.0673.6948-.1511 1.0326-.2516l.1868 4.6083c.1778-.0354.3534-.0764.529-.1177l-.1441-3.554 1.5746 3.1466c.1701-.0572.34-.1149.5075-.1777l-2.056-4.1088c.3731-.1346.7385-.2897 1.0946-.4645l1.6589 4.2938c.1639-.0704.3257-.1444.4867-.22l-1.2098-3.1315 2.437 2.4869c.1582-.0918.3148-.1861.4697-.2828l-3.3359-3.404c.439-.2478.8603-.5259 1.2607-.8323l-.3641.3544 3.2486 3.3384c.146-.1045.2907-.2105.433-.3197l-3.2971-3.3883c.4385-.3317.8514-.6961 1.235-1.0899l3.396 3.3318c.1284-.1231.2555-.2474.3797-.3746l-3.4168-3.3522c.2355-.2683.4576-.5477.6664-.8382l3.503 3.3636c.1154-.136.2284-.2739.339-.4139l-3.536-3.3953-.0029.0031c.2136-.333.4088-.6774.5847-1.0316l3.8067 3.2445c.0983-.15.1971-.2997.2905-.4532l-2.6136-2.2277 3.1471 1.2698c.082-.1583.1638-.3167.2406-.478l-4.6251-1.8663c.1306-.2996.2453-.6071.349-.92l4.6433 1.9488c.067-.1645.134-.3291.1957-.4963l-3.4619-1.453 3.9062.0432c.0467-.1759.0884-.3537.1293-.5319l-5.252-.0581c.0896-.3277.1641-.661.2235-.9999h5.2365c.0282-.1766.0505-.3549.0728-.5333h-5.2279c.0572-.4422.0873-.8875.0901-1.3334 0-.135-.0154-.2661-.0202-.4h5.2801c.0015-.089.0068-.1772.0068-.2666zm-16.1333 11.2c-2.0833 0-4.1198-.6178-5.852-1.7752-1.73222-1.1574-3.0823-2.8025-3.87954-4.7272s-1.00584-4.0426-.5994-6.0859c.40643-2.0432 1.40963-3.9201 2.88274-5.39322 1.47312-1.47311 3.35-2.47631 5.3932-2.88274 2.0433-.40643 4.1612-.19784 6.0859.59941 1.9247.79724 3.5698 2.14732 4.7272 3.87955 1.1574 1.7322 1.7752 3.7687 1.7752 5.852-.0059 2.7918-1.1175 5.4675-3.0916 7.4416-1.9742 1.9741-4.6499 3.0858-7.4417 3.0917z"/><path d="m15.9172 31.9979c.0278.0001.055.0021.0828.0021.1511 0 .3005-.0073.4506-.0114l.0187-4.405-.5334-.0023z"/><path d="m7.93066 24.2419-3.12451 3.1862c.127.1244.255.2478.38607.368l3.11926-3.1807z"/></g></svg>