<svg xmlns="http://www.w3.org/2000/svg" width="32" height="32" fill="none"><path fill="#7012FE" d="M16 32c8.837 0 16-7.163 16-16S24.837 0 16 0 0 7.163 0 16s7.163 16 16 16Z"/><path fill="#fff" d="M17.291 12.765a14.908 14.908 0 0 1 3.765 1.882 6.533 6.533 0 0 0 1.294-4.941 10.022 10.022 0 0 1-5.059 3.059Z"/><path fill="#fff" d="M9.291 27c1.118-1.588 2.647-1.941 5.294-2.588a56.17 56.17 0 0 0 3.589-.941c3.294-1 4.117-2.824 4.353-3.824a3.7 3.7 0 0 0-1.236-3.588c-2.235-1.824-4.412-2.588-7.647-3.236l-.647-.176.706-.059c3.941-.53 6.706-1.764 8.177-3.823A6.197 6.197 0 0 0 23.055 5c-.882 1.353-2.647 1.765-5.412 2.412-1.117.294-2.412.588-3.882 1.059-3.294.94-4.118 2.764-4.294 3.823a3.755 3.755 0 0 0 1.176 3.588c2.236 1.824 4.412 2.53 7.647 3.177l.706.176-.706.06a31.443 31.443 0 0 0-5.47 1.234c-1.883.648-3.06 1.471-3.53 2.412a6.32 6.32 0 0 0 0 4.059Z"/></svg>