<svg fill="none" height="32" viewBox="0 0 32 32" width="32" xmlns="http://www.w3.org/2000/svg"><path d="m16 32c8.8366 0 16-7.1634 16-16 0-8.83656-7.1634-16-16-16-8.83656 0-16 7.16344-16 16 0 8.8366 7.16344 16 16 16z" fill="#7012fe"/><g fill="#fff"><path d="m17.2913 12.7647c1.3376.4463 2.6051 1.08 3.7647 1.8824.5365-.6945.9276-1.49 1.1499-2.3389.2224-.849.2714-1.734.1442-2.60233-1.3404 1.50513-3.1034 2.57113-5.0588 3.05883z"/><path d="m9.29128 27c1.11762-1.5882 2.64702-1.9412 5.29412-2.5882 1.0588-.2353 2.1765-.5294 3.5882-.9412 3.2942-1 4.1177-2.8235 4.353-3.8235.1373-.6539.0949-1.3328-.1226-1.9646s-.602-1.1929-1.1127-1.6237c-2.2353-1.8235-4.4118-2.5882-7.6471-3.2353l-.647-.1764.7058-.0589c3.9412-.5294 6.7059-1.7647 8.1765-3.82349.7917-1.09329 1.2048-2.41517 1.1765-3.76471-.8824 1.35294-2.6471 1.76471-5.4118 2.41176-1.1176.29412-2.4118.58824-3.8823 1.05883-3.2942.94117-4.11768 2.76471-4.29415 3.82351-.13832.6487-.10232 1.3225.10433 1.9528s.57662 1.1946 1.07212 1.6354c2.2353 1.8236 4.4118 2.5295 7.6471 3.1765l.7059.1765-.7059.0588c-1.8567.248-3.6875.6614-5.4706 1.2353-1.8824.6471-3.05883 1.4706-3.52942 2.4118-.44632 1.3161-.44632 2.7427 0 4.0588z"/></g></svg>