<svg xmlns="http://www.w3.org/2000/svg" width="32" height="32" fill="none"><path fill="#31D8A4" d="M16 32c8.837 0 16-7.163 16-16S24.837 0 16 0 0 7.163 0 16s7.163 16 16 16Z"/><path fill="#fff" d="M16 29.867c7.658 0 13.867-6.209 13.867-13.867 0-7.658-6.209-13.867-13.867-13.867C8.342 2.133 2.133 8.342 2.133 16c0 7.658 6.209 13.867 13.867 13.867Z"/><path fill="#0E052F" d="M16 28.267c6.775 0 12.267-5.492 12.267-12.267 0-6.775-5.492-12.267-12.267-12.267C9.225 3.733 3.733 9.225 3.733 16c0 6.775 5.492 12.267 12.267 12.267Z"/><path fill="#fff" d="M15.59 21.536a5.002 5.002 0 0 1-1.505-.352 4.185 4.185 0 0 1-1.216-.784 3.76 3.76 0 0 1-.816-1.104 3.228 3.228 0 0 1-.32-1.36h1.968c.022.523.203.96.544 1.312.352.341.8.539 1.344.592v-3.168l-.752-.112c-.864-.117-1.552-.443-2.064-.976-.501-.533-.752-1.21-.752-2.032 0-.427.096-.827.288-1.2a3.26 3.26 0 0 1 .784-1.008c.331-.299.71-.539 1.136-.72a4.653 4.653 0 0 1 1.36-.336V8.8h1.168v1.52c.48.064.923.192 1.328.384.406.181.758.416 1.056.704.299.288.534.619.704.992.182.373.283.773.304 1.2h-1.968a1.508 1.508 0 0 0-.432-.992 1.958 1.958 0 0 0-.992-.592v2.928l.544.08c.406.064.79.176 1.152.336.363.16.678.368.944.624.278.256.491.565.64.928.16.352.24.752.24 1.2a3.13 3.13 0 0 1-1.008 2.336 3.95 3.95 0 0 1-1.12.72 4.85 4.85 0 0 1-1.392.352v1.648H15.59v-1.632Zm1.167-1.712c.502-.085.891-.267 1.168-.544.278-.288.416-.65.416-1.088 0-.405-.133-.704-.4-.896a2.134 2.134 0 0 0-.912-.4l-.272-.048v2.976Zm-1.168-7.856c-.448.064-.832.23-1.152.496-.309.256-.464.603-.464 1.04 0 .373.102.656.304.848.214.181.491.299.832.352l.48.08v-2.816Z"/></svg>