<svg fill="none" height="32" viewBox="0 0 32 32" width="32" xmlns="http://www.w3.org/2000/svg" xmlns:xlink="http://www.w3.org/1999/xlink"><linearGradient id="a" gradientUnits="userSpaceOnUse" x1="18.9046" x2="11.0566" y1="23.8437" y2="2.87475"><stop offset=".244" stop-color="#fc51a1"/><stop offset="1" stop-color="#1ab0ed"/></linearGradient><path d="m23.0401 6.20799c-6.5728-4.7232-13.67039-6.086395-15.85279-3.0528-1.248 1.7408-4.928 6.85441-6.176 8.59521-2.176 3.0336 1.3824 9.3248 7.9552 14.048 6.57279 4.7232 13.67039 6.0928 15.85279 3.0592 1.248-1.7408 4.928-6.8544 6.176-8.5952 2.1824-3.04-1.3824-9.3312-7.9552-14.05441z" fill="#fff"/><path d="m30.5472 15.8464c-3.3152-1.0304-3.9104 1.4656-5.1008 2.9568-1.2352 1.5552-1.7152 2.5152-3.2704 3.9488s-3.5072.6016-4.3456 0-1.216-1.3184-3.0144-3.5072c-1.792-2.1952-3.7504-.3968-4.6656.3968-.91518.8-2.21438 2.0736-3.12958 2.592-.3776.2112-.7616.3008-1.0752.3264-4.1088-3.9808-6.105603-8.384-4.4352-10.7136 1.1904-1.6576 4.6976-6.53439 5.888-8.19199 2.08-2.892798 9.04318-1.4912 15.31518 3.0144 3.936 2.8224 6.7776 6.27839 7.8336 9.17759z" fill="url(#a)"/><path d="m30.3999 20.16c-1.1904 1.6576-4.6976 6.5408-5.888 8.1984-2.08 2.8928-8.9472 1.4912-15.2128-3.0144-1.2224-.8832-2.3488-1.824-3.3472-2.7904.3136-.0256.6912-.1088 1.0752-.3264.9152-.5184 2.2144-1.792 3.1296-2.592s2.8736-2.592 4.6656-.3968 2.176 2.912 3.0144 3.5072c.8384.6016 2.7904 1.4336 4.3456 0s2.0352-2.3936 3.2704-3.9488c1.184-1.4912 1.7856-3.9872 5.1008-2.9568.6208 1.7216.6208 3.2448-.1536 4.32z" fill="#0e0f23"/><g stroke="#fff" stroke-linecap="round" stroke-miterlimit="10" stroke-width=".5"><path d="m23.7824 21.4464c-.3072-.0704-.6272-.1472-.9472-.2432"/><path d="m27.5968 21.6128c-.8832.1792-1.9392.1664-3.1168-.032"/><path d="m6.87357 7.00162c-.032-.1984-.0512-.3904-.064-.5824"/><path d="m11.4559 14.304c-2.304-2.2656-3.8784-4.6272-4.4288-6.6176"/></g><path d="m22.1505 7.43041c-5.9456-4.2368-12.19201-5.664-13.95201-3.1936s1.6256 7.91039 7.57121 12.14719c5.9456 4.2368 12.192 5.664 13.952 3.1936 1.7664-2.4704-1.6256-7.9104-7.5712-12.14719zm2.1568 8.28799c-.832 1.1648-3.8976.4032-6.8544-1.7088-2.9568-2.1056-4.6784-4.75519-3.8464-5.91999s3.8976-.4032 6.8544 1.7088c2.9568 2.10559 4.6784 4.76159 3.8464 5.91999z" fill="#fff"/></svg>