<svg xmlns="http://www.w3.org/2000/svg" width="32" height="32" fill="none"><defs><linearGradient id="sushi__a" x1="18.374" x2="11.864" y1="22.503" y2="5.108" gradientUnits="userSpaceOnUse"><stop offset=".244" stop-color="#FC51A1"/><stop offset="1" stop-color="#1AB0ED"/></linearGradient></defs><path fill="#fff" d="M32 16c0 8.837-7.163 16-16 16S0 24.837 0 16 7.163 0 16 0s16 7.163 16 16Z"/><path fill="#fff" d="M21.805 7.872C16.352 3.954 10.465 2.823 8.654 5.34c-1.036 1.444-4.088 5.686-5.124 7.13-1.805 2.517 1.147 7.736 6.6 11.654 5.452 3.918 11.34 5.054 13.15 2.538 1.036-1.444 4.089-5.686 5.124-7.13 1.81-2.523-1.147-7.741-6.6-11.66Z"/><path fill="url(#sushi__a)" d="M28.032 15.869c-2.75-.855-3.244 1.215-4.231 2.452-1.025 1.29-1.423 2.087-2.713 3.276-1.29 1.19-2.91.5-3.605 0-.696-.499-1.009-1.094-2.5-2.91-1.487-1.82-3.112-.328-3.871.33-.76.664-1.837 1.72-2.596 2.15-.314.175-.632.25-.892.27-3.409-3.301-5.065-6.954-3.68-8.887L8.83 5.755c1.725-2.4 7.502-1.238 12.705 2.5 3.265 2.341 5.622 5.208 6.498 7.614Z"/><path fill="#0E0F23" d="m27.91 19.446-4.884 6.801c-1.725 2.4-7.422 1.238-12.62-2.5a25.351 25.351 0 0 1-2.777-2.315c.26-.021.574-.09.892-.27.76-.43 1.837-1.487 2.596-2.15.76-.665 2.384-2.151 3.871-.33 1.486 1.821 1.805 2.416 2.5 2.91.696.498 2.315 1.189 3.605 0 1.29-1.19 1.689-1.986 2.713-3.276.983-1.238 1.482-3.308 4.232-2.453.515 1.428.515 2.692-.127 3.583Z"/><path stroke="#fff" stroke-linecap="round" stroke-miterlimit="10" stroke-width=".5" d="M22.42 20.514c-.255-.059-.52-.122-.786-.202m3.951.339c-.733.15-1.609.139-2.585-.026M8.394 8.531a5.168 5.168 0 0 1-.053-.483m3.853 6.54c-1.91-1.88-3.217-3.838-3.673-5.49"/><path fill="#fff" d="M21.067 8.886C16.135 5.372 10.953 4.188 9.493 6.237c-1.46 2.05 1.348 6.562 6.28 10.077 4.933 3.515 10.115 4.699 11.575 2.65 1.465-2.05-1.349-6.563-6.281-10.078Zm1.79 6.876c-.691.966-3.234.334-5.687-1.418-2.453-1.746-3.881-3.944-3.19-4.91.69-.967 3.232-.335 5.685 1.417 2.453 1.747 3.881 3.95 3.191 4.91Z"/></svg>