<svg xmlns="http://www.w3.org/2000/svg" width="32" height="32" fill="none"><defs><linearGradient id="bic__a" x1="18.905" x2="11.057" y1="23.844" y2="2.875" gradientUnits="userSpaceOnUse"><stop offset=".244" stop-color="#FC51A1"/><stop offset="1" stop-color="#1AB0ED"/></linearGradient></defs><path fill="#fff" d="M23.04 6.208C16.467 1.485 9.37.122 7.187 3.155 5.94 4.896 2.26 10.01 1.011 11.75c-2.176 3.034 1.383 9.325 7.956 14.048 6.572 4.724 13.67 6.093 15.852 3.06 1.248-1.741 4.928-6.855 6.176-8.596 2.183-3.04-1.382-9.33-7.955-14.054Z"/><path fill="url(#bic__a)" d="M30.547 15.846c-3.315-1.03-3.91 1.466-5.1 2.957-1.236 1.555-1.716 2.515-3.271 3.949-1.555 1.434-3.507.602-4.346 0-.838-.602-1.216-1.318-3.014-3.507-1.792-2.195-3.75-.397-4.666.397-.915.8-2.214 2.073-3.13 2.592-.377.21-.76.3-1.074.326-4.11-3.98-6.106-8.384-4.436-10.714C2.7 10.19 6.208 5.312 7.398 3.654c2.08-2.892 9.044-1.49 15.316 3.015 3.936 2.822 6.777 6.278 7.833 9.177Z"/><path fill="#0E0F23" d="m30.4 20.16-5.888 8.198c-2.08 2.893-8.947 1.492-15.213-3.014a30.556 30.556 0 0 1-3.347-2.79 2.591 2.591 0 0 0 1.075-.327c.915-.518 2.215-1.792 3.13-2.592s2.873-2.592 4.665-.397c1.792 2.196 2.176 2.912 3.015 3.508.838.601 2.79 1.433 4.345 0 1.556-1.434 2.036-2.394 3.27-3.95 1.185-1.49 1.786-3.986 5.101-2.956.621 1.722.621 3.245-.153 4.32Z"/><path stroke="#fff" stroke-linecap="round" stroke-miterlimit="10" stroke-width=".5" d="M23.782 21.446a14.75 14.75 0 0 1-.947-.243m4.762.41c-.883.179-1.94.166-3.117-.032M6.874 7.002a6.226 6.226 0 0 1-.064-.583m4.646 7.885c-2.304-2.266-3.878-4.627-4.429-6.618"/><path fill="#fff" d="M22.15 7.43C16.206 3.194 9.959 1.766 8.199 4.237c-1.76 2.47 1.626 7.91 7.572 12.147 5.945 4.237 12.192 5.664 13.952 3.194 1.766-2.47-1.626-7.91-7.572-12.148Zm2.157 8.288c-.832 1.165-3.897.404-6.854-1.708-2.957-2.106-4.678-4.756-3.846-5.92.832-1.165 3.897-.404 6.854 1.708 2.957 2.106 4.678 4.762 3.846 5.92Z"/></svg>