<svg fill="none" height="32" viewBox="0 0 32 32" width="32" xmlns="http://www.w3.org/2000/svg" xmlns:xlink="http://www.w3.org/1999/xlink"><linearGradient id="a" gradientUnits="userSpaceOnUse" x1="18.374" x2="11.8636" y1="22.5028" y2="5.10773"><stop offset=".244" stop-color="#fc51a1"/><stop offset="1" stop-color="#1ab0ed"/></linearGradient><path d="m32 16c0 8.8366-7.1634 16-16 16-8.83656 0-16-7.1634-16-16 0-8.83656 7.16344-16 16-16 8.8366 0 16 7.16344 16 16z" fill="#fff"/><path d="m21.8046 7.87239c-5.4526-3.91819-11.3405-5.04905-13.15092-2.53249-1.0353 1.4441-4.08809 5.6862-5.12339 7.1303-1.80513 2.5165 1.14679 7.7355 6.59931 11.6537 5.4526 3.9182 11.3405 5.0543 13.1509 2.5378 1.0353-1.4441 4.0881-5.6862 5.1234-7.1303 1.8105-2.5219-1.1468-7.7408-6.5993-11.65901z" fill="#fff"/><path d="m28.0323 15.8686c-2.7502-.8548-3.2439 1.2158-4.2314 2.4528-1.0247 1.2901-1.4229 2.0865-2.713 3.2758-1.2902 1.1892-2.9095.499-3.605 0-.6955-.4991-1.0087-1.0937-2.5006-2.9095-1.4866-1.821-3.1112-.3291-3.8704.3292-.7592.6637-1.83701 1.7202-2.59623 2.1502-.31324.1752-.6318.2496-.89195.2708-3.40851-3.3023-5.06498-6.9551-3.67928-8.8876.98752-1.3751 3.89696-5.4207 4.88447-6.79579 1.72549-2.39976 7.50189-1.23704 12.70489 2.50064 3.2652 2.34135 5.6225 5.20835 6.4985 7.61345z" fill="url(#a)"/><path d="m27.9106 19.4464c-.9875 1.3751-3.897 5.426-4.8845 6.8011-1.7255 2.3998-7.4223 1.2371-12.62-2.5006-1.01405-.7327-1.94847-1.5131-2.77671-2.3148.26016-.0213.5734-.0903.89195-.2708.75922-.43 1.83696-1.4866 2.59616-2.1502.7593-.6637 2.3839-2.1503 3.8705-.3292 1.4865 1.8211 1.8051 2.4157 2.5006 2.9094.6955.4991 2.3148 1.1893 3.6049 0 1.2902-1.1892 1.6884-1.9856 2.713-3.2757.9822-1.2371 1.4813-3.3077 4.2315-2.4529.515 1.4282.515 2.6918-.1274 3.5837z" fill="#0e0f23"/><g stroke="#fff" stroke-linecap="round" stroke-miterlimit="10" stroke-width=".5"><path d="m22.42 20.5138c-.2548-.0584-.5203-.1222-.7857-.2018"/><path d="m25.5851 20.6515c-.7327.1487-1.6087.1381-2.5856-.0265"/><path d="m8.39391 8.53099c-.02654-.16459-.04247-.32386-.05309-.48314"/><path d="m12.1945 14.5883c-1.9113-1.8794-3.2174-3.8385-3.67399-5.48967"/></g><path d="m21.067 8.88649c-4.9322-3.51469-10.114-4.69864-11.57404-2.64929-1.46003 2.04935 1.34854 6.5622 6.28084 10.0769 4.9322 3.5147 10.114 4.6986 11.574 2.6493 1.4654-2.0494-1.3485-6.5622-6.2808-10.07691zm1.7892 6.87541c-.6902.9663-3.2333.3345-5.6861-1.4175-2.4529-1.7468-3.8811-3.9448-3.1909-4.91106.6902-.96627 3.2333-.33448 5.6862 1.41756 2.4529 1.7467 3.881 3.95 3.1908 4.911z" fill="#fff"/></svg>