<svg fill="none" height="32" viewBox="0 0 32 32" width="32" xmlns="http://www.w3.org/2000/svg"><path d="m16 32c8.8366 0 16-7.1634 16-16 0-8.83656-7.1634-16-16-16-8.83656 0-16 7.16344-16 16 0 8.8366 7.16344 16 16 16z" fill="#202427"/><path d="m19.7706 11.0898c.1956.363.212.845.5586 1.1148.1737.0194.3496.0039.5173-.0454.0231.1213.0462.2417.0709.363.429-.2001.8134-.4844 1.1304-.8358.2393-.3169.5272-.7228.3548-1.137-.1976-.5371-.4707-1.04328-.811-1.50334-.2236-.27392-.4348-.55694-.6444-.84155-.059-.06475-.1042-.14073-.1332-.22339-.0289-.08266-.0408-.1703-.0351-.25769.0998-.316.4447-.50989.486-.85065.0354-.6361.594-1.08331.6955-1.70129-.0801-.05841-.1642-.11107-.2517-.15759.0207-.17908.1172-.37958.0058-.54706-.0593-.04177-.1279-.06822-.1999-.077-.072-.00877-.145.00041-.2126.02671-.3565.10229-.6815.28625-1.0355.3952.2657-.2533.6221-.37213.9084-.59656-.3146.12254-.6364.2256-.9637.3086.2969-.27275.6457-.48293 1.0256-.618-.1304-.12464-.2926-.21116-.4687-.25014-.1762-.03899-.3596-.02895-.5305.02901-.4235.14051-.7972.40074-1.0759.74921-.4909.71137-.9341 1.45448-1.3267 2.22446-.1684.28466-.2798.63867-.585.81109-.507.18622-.9982.41303-1.4687.67823-.3739.21618-.7627.4056-1.1634.56683-.4865.26489-.9325.59833-1.3242.99011-.3507.21875-.6318.53301-.8102.90591-.2304.8442-.1511 1.743.2236 2.5339.2199.7578.5664 1.473 1.0247 2.1154.4403.5304.9766.9729 1.5809 1.3045.5304.3364 1.0816.639 1.6502.9059.2014.0677.3868.1761.5445.3185.0266.1193.0272.2429.0015.3624-.0256.1195-.0768.232-.15.3299-.3738.6462-.8847 1.2027-1.4967 1.6303-.7786.4581-1.6233.7932-2.5041.9934-.1024.0042-.2044-.0133-.2995-.0511-.0211-.3813-.0186-.7635.0074-1.1444-.1873.0412-.373.0874-.5619.1221.0578-.2863.3234-.632.0709-.8952-.2953-.2954-.7442-.3334-1.0857-.561.014-.1527.0296-.3045.0412-.4571-.2319-.1931-.5131-.3177-.8118-.3598-.3342.0116-.51.34-.6601.5933-.31451.5882-.51467 1.2308-.58995 1.8935-.05456.7006.12288 1.3996.50494 1.9893.25241.6149.59961 1.1864 1.02891 1.6939.1121.0713.2004.1743.2539.296.0535.1216.0696.2564.0464.3872-.2669.7152-.4027 1.4726-.401 2.236.0506.24.1675.461.3375.6378.1393.2318.2503.4794.3308.7376.0151.0503.0464.0943.0891.1249s.0944.0462.1469.0442c.2694-.0281.5369-.0719.8012-.1311.0454.0791.0916.1592.137.2392h.1047c.1777-.2818.2954-.5972.3457-.9265.1246-.3749.278-.7396.4588-1.0908.1089-.1832.0132-.4183.1452-.5924.1062-.2421.2423-.47.4051-.6782.2928-.1104.5973-.1868.9076-.2278 1.5031-.3842 2.8931-1.1206 4.0553-2.1485.41-.3762.7887-.7863 1.1848-1.1774-.0198.1535-.038.3078-.0512.4638.1977-.2028.3517-.444.4522-.7088-.1164.061-.2319.1246-.3482.1865.278-.4745.4929-.9832.6394-1.5133.0822-.3297.0479-.6778-.0973-.9851-.1241-.2556-.219-.5243-.283-.8011-.1754-.5456-.4394-1.0585-.7814-1.5182-.4036-.6268-.8892-1.1967-1.4439-1.6947-.7615-.6386-1.7327-.9423-2.5247-1.5314.438-.6331 1.0203-1.1529 1.6988-1.5165.4057-.1874.7867-.4241 1.1345-.7047-.7803.3046-1.5115.7225-2.17 1.2402-.3036.203-.5677.4571-.8523.684.0402-.2168.1472-.4156.3061-.5685.6651-.5797 1.4139-1.0557 2.2211-1.4118.2648-.1339.5431-.2395.8301-.3152-.0669.1164-.137.2319-.2055.3483.2987-.0669.5792-.2632.8944-.2221zm-5.0272 11.0413c.462-.3589 1.014-.5751 1.5074-.8861.3188-.2165.6615-.3953 1.0214-.533-.0404.2476-.2739.3729-.4505.5182-.6084.4661-1.3222.7755-2.0783.9009zm2.6419-.8812c-.152.248-.3673.4511-.6237.5883-.2499.1746-.5401.2828-.8433.3144.4261-.3928.9243-.6993 1.467-.9027zm1.3754 1.033c-.3365.5146-.8164.9194-1.3804 1.1642-.3784.2259-.7985.3729-1.2351.4323.0313-.1047.0231-.2458.1493-.2871.5274-.252 1.0376-.5387 1.5272-.8581.27-.2271.593-.3823.939-.4513zm-4.2855-12.0058c.0922-.1407.2145-.2591.3581-.34652.7047-.45152 1.446-.84315 2.2162-1.17075.2007-.08443.4168-.12601.6345-.12207-.0726.23266-.3177.30938-.5166.40094-.7009.29645-1.3858.62943-2.0519.9976-.1976.1174-.4143.1989-.6403.2409zm.66.1997c.0614-.1031.1448-.1913.2443-.2582.5954-.3809 1.2172-.71893 1.8605-1.01158.1472-.06162.3037-.09788.4629-.10725-.0644.2005-.2739.26734-.4422.35559-.5561.26319-1.1098.53217-1.6403.84494-.1472.0929-.3126.1531-.4851.1765zm3.6775.0421c-.8103.3499-1.5875.7706-2.3639 1.189-.3037.1493-.5512.4282-.8969.4769l.0396-.1584c.6844-.629 1.4735-1.1333 2.3317-1.4901.3502-.2119.7516-.3241 1.1609-.3243.0059.165-.1386.2525-.2714.3069zm.6113 12.4926c.2642-.2927.5432-.5716.8358-.8358-.144.3795-.3954.7089-.7236.948-.3701.3314-.783.6117-1.2277.8333-.3037.2092-.6472.3538-1.0091.4249.7382-.4086 1.448-.8664 2.1247-1.3704zm.8358-.8358c-.144.3795-.3954.7089-.7236.948-.3701.3314-.783.6117-1.2277.8333-.3037.2092-.6472.3538-1.0091.4249.7382-.4086 1.448-.8665 2.1246-1.3704.2642-.2927.5432-.5716.8359-.8358z" fill="#fff"/></svg>