<svg fill="none" height="32" viewBox="0 0 32 32" width="32" xmlns="http://www.w3.org/2000/svg" xmlns:xlink="http://www.w3.org/1999/xlink"><linearGradient id="a" gradientUnits="userSpaceOnUse" x1="2.25897" x2="27.9375" y1="6.59814" y2="24.1677"><stop offset="0" stop-color="#ff3b3b"/><stop offset="1" stop-color="#ff9914"/></linearGradient><path d="m16 32c8.8366 0 16-7.1634 16-16 0-8.83656-7.1634-16-16-16-8.83656 0-16 7.16344-16 16 0 8.8366 7.16344 16 16 16z" fill="url(#a)"/><path clip-rule="evenodd" d="m15.4175 5.77277c-.928.10881-1.792.53121-2.4448 1.20321-.4928.4864-.9536.9856-1.4528 1.472-.2496.256-.4992.5056-.7488.7552s-.5312.5184-.78723.7808c-.2624.26242-.48.49922-.7168.74242-.3776.3776-.7552.7552-1.1328 1.1392-.288.3008-.576.608-.8576.9088-.1664.1792-.352.3456-.512.5312-.6592.8-1.0176 1.8048-1.0176 2.8416 0 .064 0 .1216.0064.1856.0128.5952.1664 1.1776.4544 1.7024.16.3136.352.6144.5632.9024.1408.1984.2432.192.4288.0384.0384-.032.0704-.064.096-.096.1792-.192.3584-.384.544-.576.2624-.2752.5312-.5504.7872-.8256.2624-.2752.544-.5824.8192-.8704.128-.1408.2688-.2688.4032-.4096.28163-.2944.55683-.6016.83203-.896.2816-.2944.5632-.5696.8384-.8512s.608-.64.9216-.9536c.3072-.32.5696-.5888.8576-.8768.3712-.384.736-.7808 1.1072-1.1648.2304-.2368.4672-.4608.6912-.6912.32-.32.6144-.6336.928-.95362.3136-.32.544-.5312.8128-.8064.5952-.6016 1.1968-1.2096 1.792-1.824.0384-.0384.0768-.0768.1088-.1216.1472-.1856.16-.224-.0192-.3584-.2752-.2176-.576-.4096-.8832-.576-.5504-.256-1.152-.3904-1.76-.3904h-.032c-.2176-.00001-.4224.01279-.6272.03839zm5.2736 3.91681h-.0384c-.5312 0-1.0304.2304-1.3696.64002-.032.032-.064.064-.096.096l-.9728.9536c-.32.32-.6656.6656-.9984.9984-.2752.2752-.5568.5504-.8256.8256-.2752.2752-.5696.5888-.864.8768s-.608.5952-.9152.8896l-1.088 1.0944-2.016 2.016c-.8896.896-1.78563 1.792-2.66883 2.6816-.1728.1664-.1728.192 0 .3712.4288.4288.8576.8576 1.27363 1.2928.256.2688.5952.4544.96.512.3456.0704.704.0576 1.0496-.032.256-.064.4928-.192.6848-.3648l1.056-1.024c.2496-.2368.4992-.4736.7424-.7168.4928-.4864.9728-.9728 1.4656-1.4592.3968-.3904.8064-.7808 1.2096-1.1712l1.6576-1.6128c.5184-.5056 1.0368-1.0176 1.5552-1.5232.1024-.1536.32-.1984.4736-.0896.0576.0384.1024.096.128.16.2624.3904.4096.8448.4096 1.3184 0 .0832-.0064.16-.0128.2432-.0448.4736-.2368.9216-.5568 1.2736-.384.4096-.7872.8-1.184 1.1968-.2816.2816-.576.5568-.8576.8384-.3648.3648-.7232.7296-1.0944 1.0944-.0512.0576-.1024.1216-.16.1792l-.3584.3712c-.2688.2688-.544.5312-.8064.8s-.5696.5888-.8512.8832c-.0256.0256-.0512.0448-.0768.0704-.32.2944-.6144.5952-.9152.8896-.1408.1408-.2816.2816-.4224.4224-.2432.2432-.4928.4864-.7232.736-.1408.1472-.1408.2432.0256.3584.2752.2112.5696.4032.8832.5632.768.3456 1.6256.4672 2.464.352.832-.096 1.6128-.4544 2.2272-1.0176.4736-.416.8896-.8768 1.3312-1.3248.32-.32.64-.6592.9792-.9856l.9216-.928c.2816-.2816.5568-.5696.8384-.8448.2816-.2816.6336-.6144.9536-.928s.64-.6336.9536-.9728c.256-.256.4864-.5376.704-.8256.3968-.6016.6464-1.2864.7232-2.0032.0448-.3584.0448-.7168 0-1.0688-.096-.6336-.3264-1.2352-.672-1.7728-.2496-.3776-.5504-.7232-.8896-1.024-.8832-.8768-1.76-1.76-2.624-2.6496-.3776-.42243-.9216-.66562-1.4912-.66562h-.0128z" fill="#fff" fill-rule="evenodd"/></svg>