<svg xmlns="http://www.w3.org/2000/svg" width="32" height="32" fill="none"><path fill="#1B1B5B" d="M16 32c8.837 0 16-7.163 16-16S24.837 0 16 0 0 7.163 0 16s7.163 16 16 16Z"/><path fill="#EBEAE6" d="M24.237 23.388c-.614.53-1.281.993-1.992 1.383.136-.109-.292-.56-.162-.675 3.242-2.82 3.983-6.45 2.674-9.642-.177-.431.195-.604.198-.999 2.986 2.822 2.664 6.992-.718 9.933Z"/><path fill="#fff" d="M24.954 13.455a10.79 10.79 0 0 0-4.628-2.437l-.026-.006.028.007c.655.172.706.93 1.157 1.313a4.237 4.237 0 0 1 1.33 3.255c.147 2.063.136 4.103-1.37 5.92a8.16 8.16 0 0 1-2.97 2.33 7.72 7.72 0 0 1-.263.114l-.039.014a9.975 9.975 0 0 1-1.894.543 19.966 19.966 0 0 1-9.586-.973 14.158 14.158 0 0 0 4.922 2.468c1.783.487 3.644.624 5.48.402l.013-.003a14.31 14.31 0 0 0 3.7-.949h.005c.49-.2.968-.427 1.432-.683.136-.108.273-.22.402-.336 3.68-3.2 4.514-7.54 2.308-10.979Z"/><path fill="#D5D3CB" d="M18.211 23.95c4.572-1.862 4.818-6.582-.495-9.24-3.859-1.93-2.154-4.995 2.612-3.691 5.324 1.398 3.749 10.67-2.117 12.932Z"/><path fill="#EBEAE6" d="M25.306 8.467c-5.024-1.597-8.921-1.46-11.478-.43a.475.475 0 0 0-.038.014c-3.802 1.55-4.612 5.075-1.722 7.746a6.749 6.749 0 0 1-2.007-2.157 6.547 6.547 0 0 1-.432-3.574 5.253 5.253 0 0 1 2.826-3.764 8.336 8.336 0 0 1 2.452-.707c3.71-.458 7.45.575 10.4 2.872Z"/><path fill="#fff" d="M12.919 21.238c-.33-.107-.702-.157-1.007-.28-3.88-1.56-5.953-4.464-5.88-7.328a8.305 8.305 0 0 1 3.201-5.796 13.758 13.758 0 0 1 1.953-1.285l.005-.001a14.296 14.296 0 0 1 3.716-.952 7.5 7.5 0 0 0-.899.19c-5.021 1.364-5.322 7.208-1.94 10.012l.004.002a9.504 9.504 0 0 0 2.212 1.491c3.5 1.753 2.424 4.437-1.365 3.947Z"/><path fill="#D5D3CB" d="M12.919 21.238a9.127 9.127 0 0 1-1.246-.254c-7.44-2.033-8.531-8.352-3.91-12.37a12.237 12.237 0 0 1 3.424-2.065c-.653.385-1.27.828-1.844 1.323-4.92 4.278-3.94 10.933 3.576 13.366Z"/></svg>