<svg fill="none" height="32" viewBox="0 0 32 32" width="32" xmlns="http://www.w3.org/2000/svg"><path d="m16 32c8.8366 0 16-7.1634 16-16 0-8.83656-7.1634-16-16-16-8.83656 0-16 7.16344-16 16 0 8.8366 7.16344 16 16 16z" fill="#1b1b5b"/><path d="m24.237 23.3877c-.6137.5296-1.2814.9931-1.9921 1.3829.1364-.1083-.2914-.559-.1622-.6746 3.2423-2.8196 3.9835-6.4491 2.6744-9.642-.1766-.431.1954-.6036.1975-.9989 2.9865 2.8221 2.6647 6.9918-.7176 9.9326z" fill="#ebeae6"/><path d="m24.9545 13.4551c-1.3196-1.1796-2.9091-2.0165-4.6284-2.4368l-.0257-.006.0277.0068c.6553.1722.7063.9303 1.1574 1.3132.4416.4158.7887.9216 1.018 1.4832.2292.5615.3352 1.1658.3107 1.7718.1481 2.0624.1365 4.103-1.37 5.9198-.7941.9981-1.8111 1.7961-2.9694 2.33-.0867.0389-.1733.0779-.2632.1144-.014.0036-.0245.0104-.0386.014-.6119.2429-1.2464.4247-1.8942.5426-3.2269.4631-6.51814.129-9.58617-.9731 1.4635 1.1369 3.13597 1.9754 4.92257 2.468 1.7832.487 3.6439.6237 5.4791.4025l.0141-.0036c.2624-.0281.5217-.0666.7773-.112 1.0015-.1743 1.9815-.4548 2.9236-.8368h.0036c.4903-.1992.9684-.4271 1.4319-.6826.1364-.1083.2729-.2207.4025-.3363 3.6797-3.1996 4.5132-7.541 2.3072-10.9791z" fill="#fff"/><path d="m18.2112 23.9507c4.5717-1.8629 4.8178-6.5832-.4949-9.2403-3.859-1.9307-2.1546-4.99553 2.6114-3.6917 5.3242 1.3986 3.7491 10.6698-2.1165 12.932z" fill="#d5d3cb"/><path d="m25.3062 8.4672c-5.0237-1.59763-8.9212-1.46-11.4784-.43061-.0125.00442-.0253.00923-.0377.01485-3.8017 1.54948-4.61235 5.07466-1.7217 7.74576-.8197-.5624-1.505-1.299-2.007-2.1571-.47543-1.1276-.6253-2.3659-.4326-3.5745.14597-.80384.4774-1.56258.968-2.21591s1.1268-1.18322 1.8581-1.54758c.7763-.36019 1.6035-.59868 2.4524-.7071 3.7099-.45818 7.45.57484 10.3989 2.87219z" fill="#ebeae6"/><path d="m12.9187 21.2382c-.3303-.1067-.7019-.1577-1.0069-.2805-3.88072-1.5603-5.95311-4.4634-5.87887-7.3276.10749-1.134.44709-2.2337.99768-3.2308.55058-.99716 1.30039-1.87037 2.20281-2.5654.61332-.48282 1.26658-.91258 1.95278-1.28461l.0048-.00161c.942-.3822 1.9221-.66284 2.9236-.83714.2609-.04495.5249-.08321.7922-.11478-.3031.04474-.6032.108-.8985.18943-5.02129 1.36527-5.32228 7.20921-1.94 10.01281l.0032.0016c.6637.5988 1.4085 1.101 2.2125 1.4917 3.5002 1.7525 2.424 4.4369-1.3653 3.9469z" fill="#fff"/><path d="m12.9187 21.2382c-.4206-.0556-.8368-.1405-1.2456-.254-7.44004-2.0331-8.53119-8.3518-3.91004-12.37012 1.0203-.87128 2.17694-1.56884 3.42364-2.06476-.6527.38503-1.2697.82755-1.84369 1.3223-4.9205 4.27878-3.94049 10.93298 3.57569 13.36658z" fill="#d5d3cb"/></svg>