<svg fill="none" height="32" viewBox="0 0 32 32" width="32" xmlns="http://www.w3.org/2000/svg"><path d="m16 32c8.8366 0 16-7.1634 16-16 0-8.83656-7.1634-16-16-16-8.83656 0-16 7.16344-16 16 0 8.8366 7.16344 16 16 16z" fill="#7d00ff"/><path d="m25.9987 10.6667h-6.6658v2.2222h6.6658zm-11.1096 2.2222h-2.2219v2.2222h2.2219zm-2.2219 11.1111h2.2219v-6.6667h-2.2219zm4.4437-11.1111v2.2222h2.222v-2.2222zm0 11.1111h2.222v-6.6667h-2.222zm0-13.3333h-2.2218v2.2222h2.2218zm-11.1109 0v2.2222h6.6672v-2.2222zm20 6.6666v-2.2222h-6.6671v2.2222zm-11.1095-2.2222v2.2222h2.2204v-2.2222zm-8.88903 0v2.2222h6.66713v-2.2222z" fill="#fff"/></svg>