<svg xmlns="http://www.w3.org/2000/svg" width="32" height="32" fill="none"><path fill="#7D00FF" d="M16 32c8.837 0 16-7.163 16-16S24.837 0 16 0 0 7.163 0 16s7.163 16 16 16Z"/><path fill="#fff" d="M25.999 10.667h-6.666v2.222h6.666v-2.222Zm-11.11 2.222h-2.222v2.222h2.222V12.89ZM12.667 24h2.222v-6.667h-2.222V24Zm4.444-11.111v2.222h2.222V12.89H17.11Zm0 11.111h2.222v-6.667H17.11V24Zm0-13.333h-2.222v2.222h2.222v-2.222ZM6 10.667v2.222h6.667v-2.222H6Zm20 6.666v-2.222h-6.667v2.222H26Zm-11.11-2.222v2.222h2.22v-2.222h-2.22Zm-8.889 0v2.222h6.668v-2.222H6Z"/></svg>