<svg xmlns="http://www.w3.org/2000/svg" width="32" height="32" fill="none"><path fill="#2862FF" d="M16 32c8.837 0 16-7.163 16-16S24.837 0 16 0 0 7.163 0 16s7.163 16 16 16Z"/><path fill="#fff" d="M16 1.613A14.387 14.387 0 1 0 30.387 16 14.403 14.403 0 0 0 16 1.613Zm0 27.698A13.31 13.31 0 1 1 29.311 16a13.326 13.326 0 0 1-13.31 13.31Z"/><path fill="#fff" d="M22.991 18.51h-2.599V16h2.6a1.345 1.345 0 0 0 0-2.69h-2.6v-2.509h3.406v-2.51H9.457v2.51h3.226v2.51h-1.255a3.776 3.776 0 0 0-3.764 3.765v.358a3.776 3.776 0 0 0 3.764 3.765h1.255v2.51h2.51v-2.51h2.69v2.51h2.51v-2.51h2.598a1.345 1.345 0 0 0 0-2.69Zm-10.308 0h-1.255a1.255 1.255 0 1 1 0-2.51h1.255v2.51Zm5.2 0h-2.69V16h2.69v2.51Zm0-5.2h-2.69v-2.509h2.69v2.51Z"/></svg>