<svg fill="none" height="32" viewBox="0 0 32 32" width="32" xmlns="http://www.w3.org/2000/svg"><path d="m16 32c8.8366 0 16-7.1634 16-16 0-8.83656-7.1634-16-16-16-8.83656 0-16 7.16344-16 16 0 8.8366 7.16344 16 16 16z" fill="#2862ff"/><g fill="#fff"><path d="m16.0001 1.61346c-2.8454 0-5.6269.84376-7.99276 2.42457-2.36585 1.58082-4.20981 3.82769-5.2987 6.45647-1.08888 2.6288-1.37378 5.5215-.81867 8.3122.5551 2.7907 1.92529 5.3541 3.93728 7.3661 2.012 2.012 4.57545 3.3822 7.36615 3.9373s5.6834.2702 8.3122-.8186c2.6288-1.0889 4.8756-2.9329 6.4565-5.2987 1.5808-2.3659 2.4245-5.1474 2.4245-7.9928-.0043-3.8142-1.5214-7.47098-4.2185-10.16805-2.697-2.69707-6.3538-4.21417-10.168-4.21849zm0 27.69744c-2.6327 0-5.2062-.7806-7.39517-2.2433-2.18897-1.4626-3.89506-3.5415-4.90253-5.9737-1.00748-2.4323-1.27108-5.1087-.75747-7.6907.5136-2.5821 1.78134-4.95386 3.64291-6.81543 1.86157-1.86156 4.23336-3.12931 6.81546-3.64291 2.582-.5136 5.2584-.25 7.6907.75747 2.4322 1.00747 4.5111 2.71356 5.9737 4.90253 1.4626 2.18894 2.2433 4.76254 2.2433 7.39514-.004 3.5291-1.4077 6.9124-3.9031 9.4078-2.4954 2.4955-5.8788 3.8991-9.4078 3.9031z"/><path d="m22.9915 18.5098h-2.5994v-2.5098h2.5994c.3566 0 .6986-.1417.9508-.3938.2521-.2522.3938-.5941.3938-.9507s-.1417-.6986-.3938-.9508c-.2522-.2521-.5942-.3938-.9508-.3938h-2.5994v-2.5098h3.4062v-2.50978h-14.34177v2.50978h3.22687v2.5098h-1.2549c-.9975.0029-1.95342.4005-2.6588 1.1059-.70539.7054-1.10296 1.6613-1.10588 2.6588v.3586c.00292.9975.40049 1.9534 1.10588 2.6588.70538.7054 1.6613 1.103 2.6588 1.1059h1.2549v2.5098h2.5098v-2.5098h2.6891v2.5098h2.5098v-2.5098h2.5994c.3566 0 .6986-.1417.9508-.3938.2521-.2522.3938-.5942.3938-.9508s-.1417-.6985-.3938-.9507c-.2522-.2521-.5942-.3938-.9508-.3938zm-10.3081 0h-1.2549c-.3328 0-.652-.1322-.8873-.3676-.2354-.2353-.3676-.5545-.3676-.8873s.1322-.652.3676-.8873c.2353-.2354.5545-.3676.8873-.3676h1.2549zm5.1989 0h-2.6891v-2.5098h2.6891zm0-5.1989h-2.6891v-2.5098h2.6891z"/></g></svg>