<svg fill="none" height="32" viewBox="0 0 32 32" width="32" xmlns="http://www.w3.org/2000/svg" xmlns:xlink="http://www.w3.org/1999/xlink"><linearGradient id="a"><stop offset="0" stop-color="#ffac00"/><stop offset="1" stop-color="#ff4e00"/></linearGradient><linearGradient id="b" gradientUnits="userSpaceOnUse" x1=".005" x2="32.005" xlink:href="#a" y1="16.002" y2="16.002"/><linearGradient id="c" gradientUnits="userSpaceOnUse" x1="15.9369" x2="15.9369" xlink:href="#a" y1="23.704" y2="16.939"/><path d="m16 32c8.8366 0 16-7.1634 16-16 0-8.83656-7.1634-16-16-16-8.83656 0-16 7.16344-16 16 0 8.8366 7.16344 16 16 16z" fill="url(#b)"/><path d="m24.9 19.1c0-1.4-.5-2.8-1.2-4-.4-.8-1-1.6-1.6-2.3-.1.3-.1.6-.2.9-.2 1.3-1.7 2-2.9 1.4-.9-.4-1.3-1.6-.9-2.6.1-.3.2-.7.3-1 .5-1.80002.3-3.60002-.6-5.20002-.5-.8-1.1-1.5-1.8-2.1-.4-.4-.8-.7-1.3-1.1v.6c0 .9.1 1.7-.1 2.6-.2 1.1-.8 1.9-1.5 2.8-.7.8-1.5 1.60002-2.2 2.40002s-1.4 1.5-2.1 2.4c-.9 1.2-1.5 2.6-1.7 4.2 0 .2 0 .4-.1.6v.4c.1.4.1.7 0 1.1v.2c.1.3.1.6.2.8s.1.5.2.7c.4 1.5 1.3 2.7 2.3 3.8 1.7 1.7 3.8 2.9 6.1 3.4.1 0 .1 0 .1.1h.6c.3-.7.7-1.3 1.3-1.7.8-.7 1.8-1.1 2.8-1.4 1.7-.7 2.9-1.8 3.7-3.4.5-1.4.7-2.4.6-3.6zm-4.1 1.2h-2.9c-.3 0-.3.1-.3.3v2.9c0 .2 0 .2-.2.2h-2.9c-.2 0-.2-.1-.2-.3v-2.8c0-.2 0-.3-.3-.3h-2.8c-.1 0-.2 0-.3-.1v-3c0-.2.1-.3.3-.3h9.6c.2 0 .2 0 .2.2v2.9c0 .3-.1.3-.2.3z" fill="#fff"/><path d="m21.7 11.8c.2.1.3.1.4-.1.1-.3.3-.5.5-.7.6-.4.8-1.00001.7-1.60001-.2-1.2-.8-2.2-1.6-3.1.2.9-.2 1.5-.7 2.1-.3.4-.5.8-.5 1.2-.1.90001.4 1.80001 1.2 2.20001z" fill="#fff"/><path d="m19.7999 16.9h1c.2 0 .2 0 .2.2v2.9c0 .2-.1.2-.2.2h-2.9c-.3.1-.3.2-.3.4v2.9c0 .2 0 .2-.2.2h-2.9c-.2 0-.2-.1-.2-.3v-2.8c0-.2 0-.3-.3-.3h-2.8c-.1 0-.2 0-.3-.1v-3c0-.2.1-.3.3-.3h8.3c.1.1.2 0 .3 0z" fill="url(#c)"/></svg>