<svg xmlns="http://www.w3.org/2000/svg" width="32" height="32" fill="none"><defs><linearGradient id="theta__a" x1="9.8" x2="22.3" y1="6" y2="26" gradientUnits="userSpaceOnUse"><stop stop-color="#29B4EB"/><stop offset="1" stop-color="#21EBBC"/></linearGradient></defs><path fill="#1B1F2B" d="M16 32c8.837 0 16-7.163 16-16S24.837 0 16 0 0 7.163 0 16s7.163 16 16 16Z"/><path fill="url(#theta__a)" d="M10.76 6h10.497l.96.993v18.014l-.96.993H10.76l-.96-.993V6.993L10.76 6Zm.96 18.013h8.577V7.987H11.72v16.026Zm7.342-5.17h-2.087v2.263h-1.884v-2.262h-2.087v-1.949h6.058v1.948Zm0-5.582v1.948h-6.058v-1.948h2.087v-2.263h1.884v2.263h2.087Z"/></svg>