<svg xmlns="http://www.w3.org/2000/svg" width="32" height="32" fill="none"><path fill="#fff" d="M16 32c8.837 0 16-7.163 16-16S24.837 0 16 0 0 7.163 0 16s7.163 16 16 16Z"/><path fill="#077EA1" d="M15.988 17.92a2.09 2.09 0 0 1 2.395 2.281c.033.868.1.89.864.44a6.644 6.644 0 0 0 2.778-2.875 6.275 6.275 0 0 0-1.179-7.082c-.45-.452-.94-.862-1.465-1.226a2.117 2.117 0 0 1-1.059-1.839c.013-.47.151-.927.4-1.325a1.873 1.873 0 0 1 2.655-.619 10.492 10.492 0 0 1 5.539 7.847 9.637 9.637 0 0 1-.119 3.194 12.423 12.423 0 0 1-1.258 3.946 10.404 10.404 0 0 1-5.941 4.745 7.984 7.984 0 0 1-.39.127c-.667.192-.755.294-.819.983a2.73 2.73 0 0 1-.258 1.088 2.023 2.023 0 0 1-2.142 1.013.583.583 0 0 1-.11-.451c-.002-3.265-.002-6.53 0-9.795a.581.581 0 0 1 .11-.451Z"/><path fill="#17A74B" d="m15.988 17.92.001 10.698a2.088 2.088 0 0 1-2.424-2.151c-.035-.574-.182-.755-.727-.918a10.626 10.626 0 0 1-5.992-4.202 11.295 11.295 0 0 1-1.57-4.112 10.225 10.225 0 0 1 .93-7.247 10.704 10.704 0 0 1 4.393-4.32c1.49-.818 2.828.16 3.003 1.736a2.029 2.029 0 0 1-.926 1.966 9.534 9.534 0 0 0-2.011 1.833 6.226 6.226 0 0 0 .636 8.448c.55.479 1.155.89 1.803 1.224.222.125.399.072.43-.221.03-.271.056-.544.094-.814a1.979 1.979 0 0 1 2.36-1.92Z"/><path fill="#17A74B" d="M15.99 17.22a2.08 2.08 0 0 1-2.287-2.109A2.112 2.112 0 0 1 15.99 12.7c.094.13.133.293.109.453a725.21 725.21 0 0 1 0 3.613.658.658 0 0 1-.11.454Z"/><path fill="#077FA1" d="M15.99 17.22V12.7a2.26 2.26 0 0 1 2.256 2.284 2.221 2.221 0 0 1-2.256 2.235Z"/></svg>