<svg fill="none" height="32" viewBox="0 0 32 32" width="32" xmlns="http://www.w3.org/2000/svg"><path d="m16 32c8.8366 0 16-7.1634 16-16 0-8.83656-7.1634-16-16-16-8.83656 0-16 7.16344-16 16 0 8.8366 7.16344 16 16 16z" fill="#fefefe"/><g fill="#000"><path d="m17.1193 26.0456c0-.4653-.001-.9059.0001-1.3465.0062-2.5075.0126-5.0151.0194-7.5227.0001-.0471.0004-.0942.0021-.1412.0119-.3164.0861-.3904.4038-.3986 1.3418-.0343 2.6836-.0311 4.0257-.0075.1258-.0053.2504.0262.3586.0907.1082.0644.1952.159.2505.2721.5403.9363.7422 2.03.5717 3.0975-.1983 1.6156-.9698 3.1065-2.1741 4.2016-.7123.6243-1.5441 1.0974-2.4449 1.3904-.3262.1127-.6496.2333-1.0129.3642z"/><path d="m14.8756 21.387c0 1.4657-.0025 2.9314.0036 4.3971.0007.1651-.0321.198-.1898.1408-.6084-.1943-1.2057-.4221-1.789-.6824-.7752-.3743-1.4676-.9001-2.0365-1.5462-.569-.6461-1.00284-1.3995-1.27612-2.2159-.31268-.8413-.44256-1.7395-.381-2.635.0535-.7131.28474-1.4015.67264-2.0023.04508-.0726.10713-.1331.18078-.1763.0737-.0432.1567-.0679.242-.0719.4055-.0383.8118-.0242 1.2176-.0253.9595-.0026 1.9191-.0018 2.8786.0024.3614.0011.4408.0732.4418.4355.0041 1.4598.0017 2.9196.0017 4.3795z"/><path d="m15.5116 20.8741c0-1.6303-.0025-3.2605.0038-4.8907.0007-.1636-.0487-.209-.2059-.209-1.589-.0002-3.178-.0038-4.7669-.0106-.2095-.0006-.2085.0003-.132-.1919.0483-.1852.1355-.3579.2558-.5068s.2709-.2704.4419-.3566c.0751-.0322.1558-.049.2375-.0494 2.9603-.0044 5.9206-.0066 8.8808-.0222.1521-.0011.3029.0285.4432.0872s.2673.1451.3734.2542c.1702.1791.3182.3781.4407.5927.0749.1151.0601.1531-.0862.1529-.7474-.0011-1.4948.0058-2.2422.0102-.8415.0049-1.683.0141-2.5245.0109-.1414-.0006-.1578.0463-.1578.1689-.0003 3.2074-.003 6.4149-.0081 9.6224-.0004.3402-.1326.4697-.4713.4608-.4748-.0126-.4749-.0126-.4749-.4795v-4.6435z"/><path d="m15.7211 11.7621c-.4116-.0476-.805-.1961-1.1453-.4324-.3403-.2364-.6169-.5531-.8053-.9222-.0697-.1225-.1301-.2501-.1807-.3817-.0695-.15268-.1032-.31923-.0984-.48691.0048-.16769.0479-.33205.126-.4805.3926-.78775.7956-1.571 1.1307-2.38642.1372-.28991.3779-.51792.6748-.63911.297-.12118.6285-.12674.9293-.01558.1882.03844.3642.12187.5131.24315.1489.12129.2662.27682.3419.45331.3013.74762.6861 1.45444 1.0222 2.18475.1248.26835.1553.571.0864.85884-.1486.57477-.4842 1.08377-.954 1.44667-.4698.363-1.047.5593-1.6407.5581z"/><path d="m23.8673 25.9703c-.4058 0-.8118-.0085-1.2173.0031-.1091.0061-.2176-.0208-.3113-.0772-.0936-.0565-.168-.1399-.2136-.2393-.2467-.4406-.328-.9549-.2291-1.4501.0969-.567.388-1.0825.8234-1.4584.4353-.3758.9878-.5886 1.5628-.6018.1086-.0126.2183.0099.3133.064s.1703.1371.2149.2368c.2175.4293.4319.86.6432 1.2924.1492.3057.297.6124.433.9241.0605.1182.0972.2472.1078.3796.0107.1324-.0049.2656-.0458.3919-.055.1632-.163.3032-.3069.3979-.1438.0947-.3151.1386-.4867.1247-.4292.0078-.8585.0017-1.2878.0017z"/><path d="m7.97972 25.985c-.41172 0-.82344 0-1.23514 0-.17598-.0101-.34359-.0785-.47644-.1944s-.22339-.2726-.25737-.4456c-.0293-.1928-.00574-.39.06815-.5705.324-.7491.68104-1.4821 1.07114-2.1988.04144-.0922.1147-.1663.20634-.2088.09165-.0425.19554-.0506.29266-.0228.48538.0561.949.2328 1.34852.5141.40427.2943.70364.7104.85423 1.1872s.14449.9893-.01742 1.4624c-.03122.1457-.11561.2746-.23669.3614-.12109.0868-.27019.1254-.4182.1082-.39983.006-.79982.0014-1.19974.0014z"/><path d="m19.617 13.8691h-7.7628c.0903-.0542.1609-.0977.2325-.1397.7867-.493 1.6498-.8523 2.554-1.0631.8661-.1963 1.7658-.1899 2.629.0188.8632.2086 1.6665.6138 2.3473 1.184z"/><path d="m18.961 10.3929 1.3186 2.6758-2.4283-1.1363z"/><path d="m11.7905 12.8891 1.1072-2.3502c.1053.1322.1953.244.284.3568.2433.3093.4844.6203.7299.9278.0612.0766.0719.1165-.035.1632-.6695.2928-1.3362.5922-2.004.8888-.027.0068-.0544.0113-.0821.0136z"/><path d="m23.3768 19.4884c.2985.6125.5725 1.176.8484 1.7386.0309.063.0249.0907-.0492.1105-.3574.095-.7151.1896-1.0689.297-.1423.0431-.1473-.0143-.1262-.1217.1289-.6573.2572-1.3146.3959-2.0244z"/><path d="m10.9621 25.9699-.088-.0017c-.3856-.0054-.3846-.0052-.321-.3773.0522-.3057.1018-.6118.1584-.9527l1.737 1.2904c.0047.0544-.0353.0518-.0692.0514-.4724-.0056-.9449.014-1.4172-.0101z"/><path d="m19.3462 25.9423 1.7635-1.3004c.0956.4096.1834.7962.2773 1.1813.0224.0917.0089.1219-.0933.1212-.6327-.0041-1.2655-.0021-1.9475-.0021z"/><path d="m8.47916 19.8117.461 2.0667c-.4247-.1169-.8137-.2236-1.20244-.3313-.06239-.0173-.10365-.0389-.06379-.1221.25354-.5296.50208-1.0615.75322-1.5922.00331-.007.019-.0082.05201-.0211z"/></g><path d="m10.9619 25.9699c.4422-.0035.8844-.0059 1.3266-.0122.053-.0007.1161.0309.1597-.0291.0471.0253.042.0624-.0052.0612-.4936-.0126-.988.0278-1.4811-.0199z" fill="#8e8e8e"/></svg>