<svg fill="none" height="32" viewBox="0 0 32 32" width="32" xmlns="http://www.w3.org/2000/svg"><path d="m16 32c8.8366 0 16-7.1634 16-16 0-8.83656-7.1634-16-16-16-8.83656 0-16 7.16344-16 16 0 8.8366 7.16344 16 16 16z" fill="#000403"/><path d="m20.7249 10.3c1.3783.118 2.6678.729 3.6321 1.7208.9643.9919 1.5387 2.2981 1.6179 3.6792-.0497-1.8205-.6794-3.5775-1.7974-5.0152-1.1179-1.4376-2.6657-2.48071-4.4179-2.97733-1.7521-.49663-3.617-.42082-5.3231.21639-1.706.6372-3.164 1.8025-4.1616 3.32614.118-1.3783.729-2.66785 1.7208-3.63214.9919-.9643 2.2981-1.5387 3.6792-1.61786-1.8034.08184-3.5354.72913-4.9504 1.85016-1.41509 1.12103-2.44149 2.65894-2.93378 4.39584-.4923 1.7368-.42554 3.5846.19083 5.2814s1.75108 3.1566 3.24335 4.1726c-1.36934-.1294-2.64694-.7453-3.601-1.7361-.95406-.9907-1.52137-2.2907-1.599-3.6639.04455 1.8148.66557 3.5683 1.77313 5.0066 1.10757 1.4384 2.64417 2.4868 4.38737 2.9936 1.7431.5068 3.6024.4456 5.3085-.1747 1.706-.6203 3.1704-1.7675 4.181-3.2755-.1292 1.3561-.7399 2.621-1.7213 3.5658-.9814.9447-2.2687 1.5067-3.6287 1.5842 1.8163-.0598 3.5663-.6967 4.9961-1.8184 1.4299-1.1217 2.4651-2.6698 2.9555-4.4197s.4105-3.6105-.2281-5.3119c-.6387-1.7014-1.8028-3.155-3.3235-4.15zm-2.2296 8.2705c-.3317.329-.7251.5893-1.1576.766-.4325.1766-.8956.2662-1.3628.2635-.466.0029-.9278-.0886-1.3575-.2691s-.8183-.4461-1.1425-.7809c-.4944-.4985-.83-1.1324-.9641-1.8216-.1342-.6892-.061-1.4027.2104-2.0503.2713-.6475.7286-1.2001 1.314-1.5878s1.2726-.5931 1.9747-.5902 1.3876.2139 1.9698.6063c.5822.3925 1.0349.9488 1.301 1.5986.266.6497.3334 1.3638.1936 2.0519-.1398.688-.4805 1.3192-.979 1.8136z" fill="#94febf"/></svg>