<svg xmlns="http://www.w3.org/2000/svg" width="32" height="32" fill="none"><path fill="#000403" d="M16 32c8.837 0 16-7.163 16-16S24.837 0 16 0 0 7.163 0 16s7.163 16 16 16Z"/><path fill="#94FEBF" d="M20.725 10.3a5.75 5.75 0 0 1 5.25 5.4 8.55 8.55 0 0 0-15.7-4.45 5.75 5.75 0 0 1 5.4-5.25 8.6 8.6 0 0 0-4.45 15.7 5.75 5.75 0 0 1-5.2-5.4 8.55 8.55 0 0 0 15.65 4.55 5.7 5.7 0 0 1-5.35 5.15 8.55 8.55 0 0 0 4.4-15.7Zm-2.23 8.27a3.55 3.55 0 0 1-2.52 1.03 3.45 3.45 0 0 1-2.5-1.05 3.55 3.55 0 1 1 5.02.02Z"/></svg>