<svg fill="none" height="30" viewBox="0 0 30 30" width="30" xmlns="http://www.w3.org/2000/svg"><path d="m15 30c8.2843 0 15-6.7157 15-15 0-8.28427-6.7157-15-15-15-8.28427 0-15 6.71573-15 15 0 8.2843 6.71573 15 15 15z" fill="#178dd0"/><g fill="#fff"><path d="m6.99628 15.5852c.07744-.6906.11616-1.0359.41799-1.2781.30182-.2422.64635-.2052 1.33546-.1315.31102.0334.672.0765 1.08535.1325.36312.049.69392.125.99072.2152.6056.1838.9083.2757 1.3694.8975.461.6219.461 1.1219.461 2.1219v2.3794 3.0483c0 .662 0 .993-.2059 1.1989-.2059.206-.5373.206-1.1999.206-.5079 0-1.0916 0-1.64102 0-.03802 0-.07575 0-.11316 0-1.08938-.0005-1.63406-.0007-2.03705-.3701-.40294-.3694-.4477-.88-.53714-1.9011-.07012-.8005-.12515-1.7805-.12515-2.8851 0-1.4755.09815-2.7311.1994-3.6338z"/><path d="m22.7693 15.5852c-.0774-.6906-.1161-1.0359-.4179-1.2781-.3019-.2422-.6464-.2052-1.3355-.1315-.311.0334-.672.0765-1.0854.1325-.363.049-.6938.125-.9907.2152-.6055.1838-.9083.2757-1.3694.8975-.461.6219-.461 1.1219-.461 2.1219v2.3794 3.0483c0 .662 0 .993.2059 1.1989.206.206.5373.206 1.1999.206h1.641.1132c1.0894-.0005 1.6341-.0007 2.0371-.3701.4029-.3694.4477-.88.5371-1.9011.0701-.8005.1252-1.7805.1252-2.8851 0-1.4755-.0982-2.7311-.1995-3.6338z"/><path d="m7.03125 7.97855c0-1.07944 0-1.61916.312-2.00569.0397-.04913.08639-.09942.13247-.14259.36239-.33975.88655-.37866 1.93491-.45638 1.46457-.10861 3.46427-.21764 5.58937-.21764s4.1248.10903 5.5894.21764c1.0483.07772 1.5725.11663 1.9349.45638.0461.04317.0927.09346.1325.14259.312.38653.312.92625.312 2.00569 0 1.07039-.0001 1.60561-.3118 1.99209-.0394.04886-.0865.09956-.1323.14256-.3622.3397-.8796.3785-1.9145.4558-1.4276.1068-3.3976.2122-5.6102.2122s-4.1826-.1054-5.61023-.2122c-1.03486-.0773-1.55232-.1161-1.91443-.4558-.04579-.043-.0929-.0937-.13232-.14256-.31177-.38648-.31177-.9217-.31177-1.99209z"/></g></svg>