<svg xmlns="http://www.w3.org/2000/svg" width="30" height="30" fill="none"><path fill="#178DD0" d="M15 30c8.284 0 15-6.716 15-15 0-8.284-6.716-15-15-15C6.716 0 0 6.716 0 15c0 8.284 6.716 15 15 15Z"/><path fill="#fff" d="M6.996 15.585c.078-.69.116-1.036.418-1.278s.647-.205 1.336-.131c.31.033.672.076 1.085.132.363.05.694.125.99.215.606.184.91.276 1.37.898.461.622.461 1.122.461 2.122v5.427c0 .662 0 .993-.206 1.2-.206.205-.537.205-1.2.205H9.496c-1.09 0-1.634 0-2.037-.37s-.448-.88-.537-1.9a33.21 33.21 0 0 1 .074-6.52Zm15.774 0c-.078-.69-.117-1.036-.419-1.278s-.646-.205-1.335-.131c-.311.033-.672.076-1.085.132a6.31 6.31 0 0 0-.991.215c-.606.184-.909.276-1.37.898-.46.622-.46 1.122-.46 2.122v5.427c0 .662 0 .993.205 1.2.206.205.538.205 1.2.205h1.754c1.09 0 1.635 0 2.038-.37.402-.37.447-.88.537-1.9a33.216 33.216 0 0 0-.075-6.52ZM7.031 7.979c0-1.08 0-1.62.312-2.006.04-.05.087-.1.133-.143.362-.34.886-.378 1.935-.456A77.124 77.124 0 0 1 15 5.156c2.125 0 4.125.11 5.59.218 1.048.078 1.572.117 1.934.456a1.5 1.5 0 0 1 .133.143c.312.386.312.926.312 2.006 0 1.07 0 1.605-.312 1.992-.04.049-.087.1-.132.142-.362.34-.88.379-1.915.456a76.219 76.219 0 0 1-5.61.212 76.22 76.22 0 0 1-5.61-.212c-1.035-.077-1.553-.116-1.915-.456a1.459 1.459 0 0 1-.132-.142c-.312-.387-.312-.922-.312-1.992Z"/></svg>