<svg xmlns="http://www.w3.org/2000/svg" width="32" height="32" fill="none"><path fill="#30C0F2" d="M16 32c8.837 0 16-7.163 16-16S24.837 0 16 0 0 7.163 0 16s7.163 16 16 16Z"/><path fill="#298EA1" d="m24.259 8.733 7.567 9.63s-.792 10.248-12.229 13.231l-4.241-5.07 8.903-17.79Z" opacity=".4"/><path fill="#fff" d="M9.987 6.765H22.12a2.218 2.218 0 0 0 2.04 1.718S29.851 21.799 16 27.49c0 0-12.78-4.08-8.27-18.9a2.448 2.448 0 0 0 2.256-1.825"/><path fill="#F8B642" d="M10.9 8.107h10.308a1.515 1.515 0 0 0 1.47 1.416s4.65 11.382-6.67 16.249c0 0-10.513-3.385-6.827-16.054a1.99 1.99 0 0 0 1.718-1.61"/><path fill="#298EA1" d="m16.022 26.073-.101-.032a10.08 10.08 0 0 1-1.636-.749 12.75 12.75 0 0 1-3.284-2.608 11.131 11.131 0 0 1-2.584-5.051 16.104 16.104 0 0 1 .493-7.994l.053-.184.19-.018c.236-.035.462-.113.669-.23a1.58 1.58 0 0 0 .8-1.15l.04-.232H21.48l.01.268c.02.199.083.392.182.566a1.193 1.193 0 0 0 1.025.582l.176.011.067.164c.235.618.424 1.252.563 1.899a15.73 15.73 0 0 1 .367 4.528 11.335 11.335 0 0 1-1.808 5.492 13.088 13.088 0 0 1-5.943 4.697l-.097.041ZM9.404 9.965c-1.434 5.068-.76 9.213 2.002 12.324a12.17 12.17 0 0 0 3.133 2.497c.468.265.955.493 1.458.682 4.526-1.977 6.985-5.229 7.31-9.666a15.155 15.155 0 0 0-.355-4.362 13.975 13.975 0 0 0-.476-1.654 1.706 1.706 0 0 1-1.306-.867 2.012 2.012 0 0 1-.203-.529h-9.842a2.132 2.132 0 0 1-1.047 1.321 2.576 2.576 0 0 1-.674.254Z"/><path fill="#fff" d="M18.711 14.175h-.313a2.172 2.172 0 0 0-1.803-2.384 2.679 2.679 0 0 0-1.488.068 2.252 2.252 0 0 0-1.481 2.316h-.23a.888.888 0 0 0-.886.885v3.705a.888.888 0 0 0 .886.886h5.315a.889.889 0 0 0 .886-.886V15.06a.888.888 0 0 0-.886-.886Zm-2.067 4.187h-1.181l.313-1.56a.699.699 0 1 1 .556 0l.312 1.56Zm-2.255-4.187a1.645 1.645 0 0 1 1.504-1.719 1.553 1.553 0 0 1 1.646 1.719h-3.15Z"/></svg>