<svg fill="none" height="32" viewBox="0 0 32 32" width="32" xmlns="http://www.w3.org/2000/svg"><path d="m15.9984 0c8.8343 0 15.9984 7.16408 15.9984 15.9984 0 8.8343-7.1641 15.9984-15.9984 15.9984-8.83432 0-15.9984-7.1641-15.9984-15.9984 0-8.83432 7.16408-15.9984 15.9984-15.9984z" fill="#1a1a1c"/><g fill="#29cfd9"><path d="m27.0136 16.7866h-1.1199v1.7918c0 .16-.1279.288-.2879.288s-.288-.128-.288-.288v-1.7918h-1.1199c-.5311 0-.9599-.4288-.9599-.9599v-.5119-.384-.576c0-.1599.128-.2879.288-.2879s.288.128.288.2879v.576.384.5119c0 .2112.1727.384.3839.384h2.8157c.2112 0 .384-.1728.384-.384v-.5119-.384-.576c0-.1599.128-.2879.288-.2879.1599 0 .2879.128.2879.2879v.576.384.5119c0 .5311-.4287.9599-.9599.9599z"/><path clip-rule="evenodd" d="m18.2468 18.8664h2.8157c.5311 0 .9599-.4287.9599-.9599v-2.9437c0-.5311-.4288-.9599-.9599-.9599h-2.8157c-.5312 0-.9599.4288-.9599.9599v2.9437c0 .5312.4287.9599.9599.9599zm2.8157-4.2873c.2111 0 .3839.1728.3839.3839v2.9438c0 .2111-.1728.3839-.3839.3839h-2.8158c-.2111 0-.3839-.1728-.3839-.3839v-2.9438c0-.2111.1728-.3839.3839-.3839z" fill-rule="evenodd"/><path d="m15.2071 16.7549h-.7167l1.5615 1.6319c.1152.1215.1088.3135-.0128.4255-.1216.1152-.3104.1088-.4256-.0128l-2.0222-2.115c-.1152-.1216-.1088-.3135.0128-.4255.0544-.0512.1248-.08.1952-.0832h.4159.576.4159c.2112 0 .384-.1728.384-.384v-.8319c0-.2112-.1728-.384-.384-.384h-3.0396c-.2112 0-.384.1728-.384.384v.5439 1.2479 1.8238c0 .16-.128.288-.288.288s-.288-.128-.288-.288v-1.8238-1.2479-.5439c0-.5312.4288-.9599.96-.9599h3.0396c.5312 0 .96.4287.96.9599v.8319c0 .5344-.4288.9631-.96.9631z"/><path d="m9.95951 14.5789h-2.0478v3.9996c0 .1599-.12799.2879-.28797.2879s-.28797-.128-.28797-.2879v-3.9996h-2.0478c-.15998 0-.28797-.128-.28797-.288s.12799-.288.28797-.288h4.67154c.15999 0 .28799.128.28799.288s-.128.288-.28799.288z"/></g></svg>