<svg fill="none" height="32" viewBox="0 0 32 32" width="32" xmlns="http://www.w3.org/2000/svg"><path d="m16 0c4.2435 0 8.3131 1.68571 11.3137 4.68629s4.6863 7.07021 4.6863 11.31371-1.6857 8.3131-4.6863 11.3137-7.0702 4.6863-11.3137 4.6863c-4.2435 0-8.31313-1.6857-11.31371-4.6863s-4.68629-7.0702-4.68629-11.3137c0-4.2435 1.68571-8.31313 4.68629-11.31371s7.07021-4.68629 11.31371-4.68629z" fill="#1a5aff"/><g fill="#fff"><path d="m22.1533 8.75c-.3969.00023-.7866.10572-1.1294.30573-.3429.2-.6265.48735-.8221.83275l-5.0682 8.83032h-3.7781v4.5312h5.0836c.3959-.0005.7846-.1057 1.1268-.3048.3422-.199.6258-.485.8219-.829l5.059-8.835h3.768v-4.5312z"/><path d="m8.6886 23.25-3.90344-2.26 6.36344-11.10152c.1951-.34525.4782-.63256.8206-.83258.3424-.20001.7318-.30557 1.1283-.3059h5.0548v4.5312h-3.763z"/><path d="m24.9492 20.5312c.4481 0 .8862-.1328 1.2587-.3818.3726-.2489.663-.6028.8345-1.0168s.2163-.8695.1289-1.309-.3032-.8432-.62-1.16c-.3169-.3169-.7206-.5327-1.1601-.6201s-.895-.0425-1.309.1289c-.414.1715-.7678.4619-1.0168.8345-.2489.3726-.3818.8106-.3818 1.2587 0 .6009.2387 1.1772.6636 1.6021.4249.4248 1.0011.6635 1.602.6635z"/><path d="m5.23828 8.75v4.5312c.5951.0002 1.1844-.1169 1.73423-.3445.54983-.2277 1.04942-.5615 1.47022-.9823.42079-.4208.75456-.9203.98222-1.4702.22765-.5498.34475-1.1391.34458-1.7342z"/></g></svg>