<svg xmlns="http://www.w3.org/2000/svg" width="32" height="32" fill="none"><path fill="#1A5AFF" d="M16 0a16 16 0 1 1 0 32A16 16 0 0 1 0 16 16 16 0 0 1 16 0Z"/><path fill="#fff" d="M22.153 8.75a2.244 2.244 0 0 0-1.951 1.138l-5.068 8.83h-3.779v4.532h5.084a2.246 2.246 0 0 0 1.949-1.134l5.059-8.835h3.768V8.75h-5.062Z"/><path fill="#fff" d="m8.689 23.25-3.904-2.26L11.15 9.888a2.24 2.24 0 0 1 1.949-1.138h5.054v4.531H14.39l-5.7 9.969Zm16.261-2.719a2.265 2.265 0 1 0 0-4.53 2.265 2.265 0 0 0 0 4.53ZM5.238 8.75v4.531A4.53 4.53 0 0 0 9.77 8.75H5.238Z"/></svg>