<svg fill="none" height="32" viewBox="0 0 32 32" width="32" xmlns="http://www.w3.org/2000/svg"><path d="m16 32c8.8366 0 16-7.1634 16-16 0-8.83656-7.1634-16-16-16-8.83656 0-16 7.16344-16 16 0 8.8366 7.16344 16 16 16z" fill="#2b2e7f"/><g fill="#fff"><path d="m17.057 19.028v-5.86h.77c2.545 0 3.172-2.373 3.172-2.373h-6.683c-3.172 0-3.71 2.374-3.71 2.374h3.943v8.817s2.508-.753 2.508-2.958z"/><path d="m24.395 23.594c2.248-2.336 3.11-5.58 2.301-8.683-.4269-1.6236-1.2836-3.1022-2.48-4.28-.108-.106-.216-.214-.342-.32l-.108-.107c-.0733-.0707-.1515-.1362-.234-.196l-.144-.107-.215-.16-.127-.09c-.0858-.05621-.1695-.11559-.251-.178l-.163-.106c-.0672-.04888-.1392-.09077-.215-.125l-.162-.107c-.072-.036-.144-.09-.216-.125l-.162-.09c-.072-.035-.144-.071-.234-.106l-.055-.018c.198.16.395.339.575.517.8205.8135 1.4717 1.7813 1.9161 2.8478s.6732 2.2104.6732 3.3657-.2288 2.2992-.6732 3.3657-1.0956 2.0343-1.9161 2.8478c-4.386 4.35-11.505 4.35-15.89296 0-.162-.16-.306-.32-.467-.48l-.126-.143c-.09422-.1096-.18428-.2227-.27-.339.56404 1.1061 1.29832 2.1168 2.176 2.995 4.58396 4.546 12.02596 4.546 16.60996 0 .0799-.0442.1489-.1057.202-.18z"/><path d="m10.4 22.386c-.2-.1631-.3923-.3357-.57598-.517-.82127-.8142-1.47315-1.783-1.91802-2.8505s-.67391-2.2125-.67391-3.369.22904-2.3015.67391-3.369 1.09675-2.0363 1.91802-2.8505c4.39098-4.354 11.51598-4.354 15.90698 0 .306.304.593.625.863.964-.5646-1.10151-1.2993-2.10717-2.177-2.98-4.588-4.551-12.038-4.551-16.62598 0-.054.053-.108.125-.18.178-3.041 3.177-3.455 7.924-1.025 11.529.954 1.39 2.284 2.55 3.81398 3.265z"/></g></svg>