<svg fill="none" height="32" viewBox="0 0 32 32" width="32" xmlns="http://www.w3.org/2000/svg" xmlns:xlink="http://www.w3.org/1999/xlink"><linearGradient id="a" gradientUnits="userSpaceOnUse" x1="15.9387" x2="26.8999" y1="3.69599" y2="3.69599"><stop offset=".211" stop-color="#61bfe1"/><stop offset=".9997" stop-color="#736c94"/></linearGradient><linearGradient id="b" gradientUnits="userSpaceOnUse" x1="-7.06712" x2="31.9166" y1="12.6858" y2="12.6858"><stop offset=".3795" stop-color="#078b7b"/><stop offset=".9091" stop-color="#4db0b7"/></linearGradient><linearGradient id="c" gradientUnits="userSpaceOnUse" x1="3.43085" x2="25.7803" y1="3.35027" y2="3.35027"><stop offset="0" stop-color="#f1e931"/><stop offset=".1119" stop-color="#ece735"/><stop offset=".2515" stop-color="#dce242"/><stop offset=".4059" stop-color="#c3d957"/><stop offset=".571" stop-color="#9fcd74"/><stop offset=".7427" stop-color="#72bd99"/><stop offset=".8663" stop-color="#4db0b7"/></linearGradient><linearGradient id="d" gradientUnits="userSpaceOnUse" x1=".182767" x2="32.5713" y1="14.8416" y2="14.6105"><stop offset="0" stop-color="#61bfe1"/><stop offset=".0931388" stop-color="#63b4d7"/><stop offset=".2566" stop-color="#6a97bc"/><stop offset=".4519" stop-color="#736c94"/></linearGradient><linearGradient id="e"><stop offset="0" stop-color="#804c88"/><stop offset=".2619" stop-color="#6c5f8b"/><stop offset=".658" stop-color="#51788f"/><stop offset=".8911" stop-color="#61c1e3"/></linearGradient><linearGradient id="f" gradientUnits="userSpaceOnUse" x1="30.8689" x2="11.6544" xlink:href="#e" y1="14.9083" y2="16.5795"/><linearGradient id="g" gradientUnits="userSpaceOnUse" x1="1.88077" x2="31.5017" y1="23.1968" y2="23.1968"><stop offset="0" stop-color="#f1e931"/><stop offset=".1373" stop-color="#ede834"/><stop offset=".2777" stop-color="#e1e33e"/><stop offset=".4194" stop-color="#ccdc4f"/><stop offset=".5622" stop-color="#afd267"/><stop offset=".7058" stop-color="#8ac585"/><stop offset=".8481" stop-color="#5eb6a9"/><stop offset=".8963" stop-color="#4db0b7"/></linearGradient><linearGradient id="h" gradientUnits="userSpaceOnUse" x1="10.4632" x2="24.9937" y1="30.2009" y2="30.2009"><stop offset=".2004" stop-color="#f1e931"/><stop offset=".9285" stop-color="#4db0b7"/></linearGradient><linearGradient id="i" gradientUnits="userSpaceOnUse" x1="7.11591" x2="20.1275" xlink:href="#e" y1="30.6064" y2="30.6064"/><linearGradient id="j" gradientUnits="userSpaceOnUse" x1="15.7628" x2="15.7628" y1=".654812" y2="11.8225"><stop offset=".1684" stop-color="#44518c"/><stop offset=".9831" stop-color="#008181"/></linearGradient><mask id="k" height="32" maskUnits="userSpaceOnUse" width="32" x="0" y="0"><circle cx="16" cy="16" fill="#fff" r="16"/></mask><g mask="url(#k)"><circle cx="16" cy="16" fill="#fff" r="16"/><path d="m26.894 4.27133c-.8044.45514-3.7421.59518-3.952.6652-.2797.07003-5.5606.07003-5.6655 0-.07-.03501-.8394-.56017-1.1891-.80525-.1049-.07002-.1399-.10503-.1399-.10503s.5246-.14004 1.294-.35011c1.9585-.49015 5.5607-1.40044 6.2251-1.29541.4197.07003 1.0142.17506 1.6088.38513.2448.17505.4896.3501.7344.52516.3148.24508.5945.49015.8743.73523.07.10503.1399.17505.2099.24508z" fill="url(#a)"/><path d="m.490053 12.0788c4.651367-.9103 9.302727-2.0307 13.989047-2.83591 4.7213-.80525 10.1771-1.82057 15.1432-1.2954.0699 0 .1399 0 .2098.03501.1049.21006.2448.42013.3497.63019.8044 1.54051 1.364 3.18601 1.6088 4.97151.035.2801.0699.5952.1049.8753-.1749.2101-.3847.4202-.5596.6302-.7344-.035-1.4338-.035-2.1683 0-.0699 0-.1748 0-.2448.035-.7344-1.7505-4.6863-1.2954-6.4-1.0153-2.0634.2801-4.1267.6302-6.1901 1.0153-.1749.035-.3847.0701-.5596.1051-1.0492.175-2.1333.3851-3.1825.5601-4.51148.7703-7.86886 1.4705-10.59673 1.8556-.03497-.175-.10491-.3151-.13989-.4901-.06994-.2451-.13988-.5252-.2448-.7703-.10492-.2801-.17487-.5602-.27979-.8402-.20983-.5602-.384697-1.1554-.55956-1.7156-.139891-.4201-.244807-.8402-.314752-1.2604" fill="url(#b)"/><path d="m25.7748 3.32604c-2.6579-.6302-5.5607-.17506-8.2885.49015-.4547.10504-.9443.24508-1.3989.35011-.5596.14005-1.1192.28009-1.6438.45514-1.8185.49016-3.6371 1.05033-5.4557 1.50547-1.11913.28009-2.37814.73523-3.56721.59519-.66448-.07002-1.50383-.24508-1.99344-.59519 1.74863-2.2407 4.0918-3.99124 6.81965-5.04157 1.7836-.70022 3.7421-1.08534 5.7705-1.08534 3.3574 0 6.4699 1.05033 9.0579 2.80088.2448.17505.4547.3501.6995.52516z" fill="url(#c)"/><path d="m28.7125 25.698c-.5246.7003-1.0841 1.3304-1.7136 1.9256-.6296.5952-1.294 1.1204-1.9935 1.6105-1.4688 1.0154-3.1126 1.7506-4.8612 2.2407-.2098.0701-.4197.1051-.6295.1401-1.1191.2451-2.3082.3851-3.5322.3851-1.6088 0-3.1476-.2451-4.6164-.6652-.3148-.105-.6295-.2101-.9093-.3151-1.18909-.4551-2.30821-1.0153-3.35739-1.7155-.3847-.2801-.7694-.5602-1.1541-.8403.06995.035.13988.035.20983.07 2.6929.6652 5.63056.2101 8.42846-.4551 1.0491-.2451 2.0983-.5602 3.0776-.8053 1.8185-.4901 3.6371-1.0853 5.4907-1.5755 1.1191-.3151 2.4131-.7352 3.5672-.5952.2798.0351.5595.0701.8743.1401.4197.105.8393.2451 1.1191.4551z" fill="#61c0e2"/><path d="m16.1923 15.0897c-.1398.035-.2797.105-.4196.1401-.035 0-.07 0-.07.035-2.6579.8402-5.3508 1.6105-8.07866 2.1706-1.85355.3852-3.77704.8053-5.66557.2801-.66448-.175-1.32896-.4901-1.9234952-.9453 0-.245-.0349748-.5251-.0349748-.7702 0-1.1904.139893-2.3807.384702-3.5011.034972-.14.069946-.2801.104919-.4201.209836-.07.384698-.1051.594539-.1751 2.79781-.5952 5.84043.1401 8.49836 1.0153 2.16828.7003 4.37158 1.4705 6.60978 2.1707z" fill="url(#d)"/><path d="m31.9301 14.4245c.035.5252.0699 1.0153.0699 1.5405 0 .6652-.0349 1.2954-.1049 1.9256-.3847.07-.8044.07-1.224.035-4.8962-.3151-9.6525-1.4355-14.3388-2.8359-.035 0-.1049-.035-.1399-.035.1399-.035.2448-.07.3847-.14 3.2524-1.1204 6.5049-2.4858 9.9322-2.7659 1.5038-.1401 3.1825-.07 4.5465.7352.2098.1401.5246.3501.7694.6302.0349.3501.0699.6302.1049.9103z" fill="url(#f)"/><path d="m31.5105 19.9562c-.5246 2.1357-1.5038 4.0613-2.7978 5.7418-.5246.7002-1.0841 1.3304-1.7137 1.9256.2449-.3851.4197-.7352.5596-1.0853.1049-.3151.2098-.6302.1399-.9453-.035-.14-.0699-.2451-.1049-.3501-.6645-1.5055-3.3574-1.0854-4.5465-.8403-2.4131.4902-4.7912 1.0854-7.1694 1.6455-4.7912 1.1554-7.79887 2.1007-10.17701 2.2057-1.5388-1.2954-2.83278-2.9059-3.81202-4.7265.97924-.14 2.1683-.3501 3.56721-.7352 3.95191-1.0153 7.83392-2.2757 11.78582-3.221 3.6721-.8753 7.9737-1.9956 11.7508-1.1203 1.0492.245 1.8885.7702 2.518 1.5054z" fill="url(#g)"/><path d="m25.0054 29.2341c-1.4689 1.0154-3.1126 1.7506-4.8613 2.2407-.2098.0701-.4196.1051-.6295.1401l-8.1136-.2801c-.3148-.105-.6295-.2101-.9093-.3151 1.3989-.14 3.1126-.3851 5.0361-.8053.5246-.105 1.0841-.245 1.6786-.4201 4.2317-1.1203 6.6798-1.3304 7.799-.5602z" fill="url(#h)"/><path d="m20.1442 31.4748c-.2099.0701-.4197.1051-.6295.1401-1.1192.2451-2.3082.3851-3.5323.3851-1.6087 0-3.1475-.2451-4.6164-.6652-.3147-.105-.6295-.2101-.9093-.3151-1.18903-.4551-2.30815-1.0153-3.35733-1.7155 1.3989-.2451 3.91693-.1751 8.39343.9102 1.3639.3151 2.9027.7353 4.6514 1.2604z" fill="url(#i)"/><path d="m29.8318 7.9825c.1049.21006.2448.42013.3498.63019-.1749-.24507-.3847-.45514-.5596-.6652-4.7563-4.90154-14.129-1.5755-15.7727-1.19038-1.7836.42014-8.53331 2.52079-12.5202 2.80088.55956-1.26039 1.25902-2.41576 2.09836-3.50109 1.74864-2.24071 4.0918-3.99125 6.81964-5.04158 1.8186.59519 3.6022 1.33042 5.2459 2.03063.5596.24508 1.1541.45515 1.7137.6302.1049.03501.1749.07002.2798.07002 1.6787.52517 3.4273.84027 5.2459.84027 1.1541 0 2.8328.03501 3.9519-.56018.0699.07002.1399.14004.2448.21007 1.1191 1.12035 2.1333 2.38074 2.9027 3.74617z" fill="url(#j)"/></g></svg>