<svg xmlns="http://www.w3.org/2000/svg" width="32" height="32" fill="none"><defs><linearGradient id="tvk__b" x1="15.939" x2="26.9" y1="3.696" y2="3.696" gradientUnits="userSpaceOnUse"><stop offset=".211" stop-color="#61BFE1"/><stop offset="1" stop-color="#736C94"/></linearGradient><linearGradient id="tvk__c" x1="-7.067" x2="31.917" y1="12.686" y2="12.686" gradientUnits="userSpaceOnUse"><stop offset=".38" stop-color="#078B7B"/><stop offset=".909" stop-color="#4DB0B7"/></linearGradient><linearGradient id="tvk__d" x1="3.431" x2="25.78" y1="3.35" y2="3.35" gradientUnits="userSpaceOnUse"><stop stop-color="#F1E931"/><stop offset=".112" stop-color="#ECE735"/><stop offset=".252" stop-color="#DCE242"/><stop offset=".406" stop-color="#C3D957"/><stop offset=".571" stop-color="#9FCD74"/><stop offset=".743" stop-color="#72BD99"/><stop offset=".866" stop-color="#4DB0B7"/></linearGradient><linearGradient id="tvk__e" x1=".183" x2="32.571" y1="14.842" y2="14.611" gradientUnits="userSpaceOnUse"><stop stop-color="#61BFE1"/><stop offset=".093" stop-color="#63B4D7"/><stop offset=".257" stop-color="#6A97BC"/><stop offset=".452" stop-color="#736C94"/></linearGradient><linearGradient id="tvk__f" x1="30.869" x2="11.654" y1="14.908" y2="16.579" gradientUnits="userSpaceOnUse"><stop stop-color="#804C88"/><stop offset=".262" stop-color="#6C5F8B"/><stop offset=".658" stop-color="#51788F"/><stop offset=".891" stop-color="#61C1E3"/></linearGradient><linearGradient id="tvk__g" x1="1.881" x2="31.502" y1="23.197" y2="23.197" gradientUnits="userSpaceOnUse"><stop stop-color="#F1E931"/><stop offset=".137" stop-color="#EDE834"/><stop offset=".278" stop-color="#E1E33E"/><stop offset=".419" stop-color="#CCDC4F"/><stop offset=".562" stop-color="#AFD267"/><stop offset=".706" stop-color="#8AC585"/><stop offset=".848" stop-color="#5EB6A9"/><stop offset=".896" stop-color="#4DB0B7"/></linearGradient><linearGradient id="tvk__h" x1="10.463" x2="24.994" y1="30.201" y2="30.201" gradientUnits="userSpaceOnUse"><stop offset=".2" stop-color="#F1E931"/><stop offset=".928" stop-color="#4DB0B7"/></linearGradient><linearGradient id="tvk__i" x1="7.116" x2="20.128" y1="30.606" y2="30.606" gradientUnits="userSpaceOnUse"><stop stop-color="#804C88"/><stop offset=".262" stop-color="#6C5F8B"/><stop offset=".658" stop-color="#51788F"/><stop offset=".891" stop-color="#61C1E3"/></linearGradient><linearGradient id="tvk__j" x1="15.763" x2="15.763" y1=".655" y2="11.822" gradientUnits="userSpaceOnUse"><stop offset=".168" stop-color="#44518C"/><stop offset=".983" stop-color="#008181"/></linearGradient></defs><mask id="tvk__a" width="32" height="32" x="0" y="0" mask-type="alpha" maskUnits="userSpaceOnUse"><circle cx="16" cy="16" r="16" fill="#fff"/></mask><g mask="url(#tvk__a)"><circle cx="16" cy="16" r="16" fill="#fff"/><path fill="url(#tvk__b)" d="M26.894 4.271c-.804.455-3.742.596-3.952.666-.28.07-5.56.07-5.666 0a37.9 37.9 0 0 1-1.189-.806c-.104-.07-.14-.105-.14-.105s.525-.14 1.294-.35c1.959-.49 5.561-1.4 6.226-1.295.42.07 1.014.175 1.608.385l.735.525c.315.245.594.49.874.735.07.105.14.175.21.245Z"/><path fill="url(#tvk__c)" d="M.49 12.079c4.651-.91 9.303-2.03 13.99-2.836 4.72-.805 10.176-1.82 15.142-1.296.07 0 .14 0 .21.035.105.21.245.42.35.63.804 1.541 1.364 3.187 1.609 4.972.035.28.07.595.104.876-.174.21-.384.42-.56.63a22.401 22.401 0 0 0-2.167 0c-.07 0-.175 0-.245.035-.735-1.75-4.686-1.296-6.4-1.016-2.064.28-4.127.63-6.19 1.016-.175.035-.385.07-.56.105-1.05.175-2.133.385-3.182.56-4.512.77-7.87 1.47-10.597 1.855-.035-.174-.105-.315-.14-.49-.07-.245-.14-.525-.245-.77-.105-.28-.175-.56-.28-.84-.21-.56-.384-1.155-.56-1.716-.14-.42-.244-.84-.314-1.26"/><path fill="url(#tvk__d)" d="M25.775 3.326c-2.658-.63-5.56-.175-8.289.49-.454.105-.944.245-1.399.35-.56.14-1.119.28-1.643.455-1.819.49-3.638 1.05-5.456 1.506-1.12.28-2.378.735-3.567.595-.665-.07-1.504-.245-1.994-.595a15.863 15.863 0 0 1 6.82-5.042A15.804 15.804 0 0 1 16.017 0c3.358 0 6.47 1.05 9.058 2.8.245.176.455.351.7.526Z"/><path fill="#61C0E2" d="M28.712 25.698c-.524.7-1.084 1.33-1.713 1.926-.63.595-1.294 1.12-1.994 1.61-1.468 1.015-3.112 1.75-4.86 2.24-.21.07-.42.106-.63.14a16.5 16.5 0 0 1-3.533.386c-1.608 0-3.147-.245-4.616-.665a16.86 16.86 0 0 1-4.267-2.03l-1.154-.841c.07.035.14.035.21.07 2.693.665 5.63.21 8.429-.455 1.049-.245 2.098-.56 3.077-.806 1.819-.49 3.637-1.085 5.49-1.575 1.12-.315 2.414-.735 3.568-.595.28.035.56.07.874.14.42.105.84.245 1.12.455Z"/><path fill="url(#tvk__e)" d="M16.192 15.09c-.14.035-.28.105-.42.14-.034 0-.07 0-.07.035-2.657.84-5.35 1.61-8.078 2.17-1.854.386-3.777.806-5.666.28a5.474 5.474 0 0 1-1.923-.945c0-.245-.035-.525-.035-.77 0-1.19.14-2.38.385-3.501l.105-.42c.21-.07.384-.105.594-.175 2.798-.595 5.84.14 8.499 1.015 2.168.7 4.371 1.47 6.61 2.17Z"/><path fill="url(#tvk__f)" d="M31.93 14.425c.035.525.07 1.015.07 1.54 0 .665-.035 1.295-.105 1.926-.385.07-.804.07-1.224.035-4.896-.316-9.652-1.436-14.339-2.836-.035 0-.105-.035-.14-.035.14-.035.245-.07.385-.14 3.252-1.12 6.505-2.486 9.932-2.766 1.504-.14 3.183-.07 4.547.735.21.14.524.35.77.63.034.35.07.63.104.91Z"/><path fill="url(#tvk__g)" d="M31.51 19.956c-.524 2.136-1.503 4.061-2.797 5.742-.525.7-1.084 1.33-1.714 1.926a6.43 6.43 0 0 0 .56-1.086c.104-.315.21-.63.14-.945a4.413 4.413 0 0 0-.105-.35c-.665-1.506-3.358-1.085-4.547-.84-2.413.49-4.791 1.085-7.17 1.645-4.79 1.155-7.798 2.1-10.176 2.206a16.203 16.203 0 0 1-3.812-4.727c.979-.14 2.168-.35 3.567-.735 3.952-1.015 7.834-2.276 11.786-3.22 3.672-.876 7.973-1.996 11.75-1.121 1.05.245 1.889.77 2.518 1.505Z"/><path fill="url(#tvk__h)" d="M25.005 29.234c-1.468 1.015-3.112 1.75-4.86 2.24-.21.07-.42.106-.63.14l-8.114-.28c-.315-.104-.63-.21-.91-.314a44.458 44.458 0 0 0 5.037-.806 19.54 19.54 0 0 0 1.678-.42c4.232-1.12 6.68-1.33 7.8-.56Z"/><path fill="url(#tvk__i)" d="M20.144 31.475c-.21.07-.42.105-.63.14a16.549 16.549 0 0 1-3.532.385 16.72 16.72 0 0 1-4.616-.665 16.861 16.861 0 0 1-4.267-2.03c1.4-.246 3.917-.176 8.394.91 1.364.314 2.902.735 4.651 1.26Z"/><path fill="url(#tvk__j)" d="M29.832 7.982c.105.21.245.42.35.63-.175-.244-.385-.454-.56-.665-4.756-4.901-14.129-1.575-15.773-1.19-1.783.42-8.533 2.52-12.52 2.801a16.892 16.892 0 0 1 2.098-3.501 15.863 15.863 0 0 1 6.82-5.042c1.819.596 3.602 1.33 5.246 2.031.56.245 1.154.455 1.714.63.105.035.175.07.28.07 1.678.525 3.427.84 5.245.84 1.155 0 2.833.035 3.952-.56.07.07.14.14.245.21 1.12 1.12 2.133 2.381 2.903 3.747Z"/></g></svg>