<svg xmlns="http://www.w3.org/2000/svg" width="32" height="32" fill="none"><path fill="#3375BB" d="M16 32c8.837 0 16-7.163 16-16S24.837 0 16 0 0 7.163 0 16s7.163 16 16 16Z"/><path fill="#fff" fill-rule="evenodd" d="M15.354 6.232a1 1 0 0 1 1.282 0c2.718 2.271 5.818 2.253 7.018 2.247l.165-.001a1 1 0 0 1 1 1.015c-.057 3.763-.208 6.449-.504 8.417-.296 1.967-.75 3.315-1.48 4.33-.736 1.024-1.682 1.605-2.69 2.161-.174.097-.352.193-.534.292-.884.48-1.867 1.013-3.034 1.85a1 1 0 0 1-1.165 0c-1.166-.836-2.147-1.37-3.03-1.849a60.08 60.08 0 0 1-.537-.293c-1.007-.557-1.951-1.138-2.686-2.161-.73-1.016-1.181-2.364-1.476-4.33-.295-1.969-.445-4.654-.502-8.417a1 1 0 0 1 1-1.015h.164c1.19.007 4.29.025 7.008-2.246Zm-6.155 4.24c.067 3.207.213 5.48.462 7.141.274 1.83.66 2.817 1.123 3.46.456.637 1.055 1.04 2.029 1.578.158.088.326.178.501.274.749.406 1.65.894 2.68 1.587 1.032-.694 1.935-1.183 2.685-1.589l.5-.272c.974-.539 1.575-.942 2.032-1.578.463-.644.851-1.63 1.126-3.46.25-1.66.396-3.934.464-7.141-1.54-.05-4.251-.368-6.806-2.207-2.553 1.837-5.26 2.156-6.796 2.207Z" clip-rule="evenodd"/></svg>