<svg fill="none" height="32" viewBox="0 0 32 32" width="32" xmlns="http://www.w3.org/2000/svg"><path d="m16 32c8.8366 0 16-7.1634 16-16 0-8.83656-7.1634-16-16-16-8.83656 0-16 7.16344-16 16 0 8.8366 7.16344 16 16 16z" fill="#3375bb"/><path clip-rule="evenodd" d="m23.8525 8.07323c.1378.0002.2741.02774.4012.08102s.2423.13124.3391.22937c.0967.09812.173.21447.2244.34229.0515.12782.0771.26459.0753.40236-.0499 2.98083-.165 5.26083-.38 7.06563-.2096 1.8048-.525 3.1456-1 4.2304-.32.7248-.7151 1.3248-1.1792 1.8352-.6256.6752-1.3392 1.1651-2.12 1.6304-.3335.1993-.6802.3963-1.0432.6029-.776.4406-1.6288.9252-2.5968 1.5728-.1707.1148-.3718.1761-.5775.1761s-.4067-.0613-.5774-.1761c-.9824-.6546-1.8464-1.1456-2.6288-1.5888-.1741-.0987-.3443-.1958-.5107-.2912-.9152-.5296-1.7392-1.0352-2.45923-1.7648-.48-.48-.89504-1.0656-1.2256-1.76-.4496-.9296-.7552-2.0544-.9792-3.5104-.30288-1.9471-.45168-4.4927-.50768-8.02229-.00224-.13736.02271-.2738.0734-.40149.05069-.12768.12612-.24409.22196-.34251.19773-.19753.46548-.30897.74496-.31008h.43008c1.3248.00496 4.24961-.12496 6.77921-2.0944.1826-.14096.4068-.21742.6375-.21742s.4549.07646.6375.21742c2.5296 1.9696 5.4544 2.1008 6.7856 2.0944zm-2.3247 11.68557c.325-.6699.5952-1.5952.8-2.9248.245-1.5904.3951-3.7504.4656-6.6896-1.56-.0451-4.24-.34509-6.7952-2.06557-2.555 1.71488-5.235 2.01407-6.79021 2.06527.05504 2.4304.16496 4.32.34 5.8048.2 1.6896.48481 2.8352.84001 3.64.235.5351.495.92.8048 1.2608.415.4551.94.8299 1.6544 1.2608.2966.1776.624.3631.9792.5648.6342.3589 1.36.7696 2.1696 1.2848.7954-.5072 1.5104-.9136 2.1376-1.2704.189-.1075.3696-.2096.5422-.3099.88-.505 1.5296-.925 2.0144-1.4144.3274-.3365.593-.7013.8378-1.2069" fill="#fff" fill-rule="evenodd"/></svg>