<svg width="32" height="32" fill="none" xmlns="http://www.w3.org/2000/svg"><path d="M16 32c8.837 0 16-7.163 16-16S24.837 0 16 0 0 7.163 0 16s7.163 16 16 16Z" fill="#fff"/><path fill-rule="evenodd" clip-rule="evenodd" d="m21.433 12.68 1.138.006c.13-.01.26-.008.391.002l2.78.015a.807.807 0 0 1 .757.808c0 .203-.074.39-.198.532l-1.352 2.354-.033.059-3.347 5.84a2.494 2.494 0 0 1-2.114 1.259H19.351l-9.904-.051H8.344v-.02a2.503 2.503 0 0 0 1.9-1.392h.009l4.852-8.502c.272-.54.829-.91 1.472-.91h-.045H21.433Z" fill="#2BBDF7"/><path fill-rule="evenodd" clip-rule="evenodd" d="M13.682 8.508h8.741a.807.807 0 0 1 .613 1.271l-2.36 4.127-2.507 4.385h.021l-.802 1.4a2.528 2.528 0 0 0 .844 3.397l.07.042c.322.187.667.294 1.014.327v.059h-4.133l-.002.003H8.014a2.557 2.557 0 0 1-1.202-.324 2.575 2.575 0 0 1-.992-3.487l5.439-9.886a2.541 2.541 0 0 1 2.423-1.314Z" fill="#2B6DEF"/><path fill-rule="evenodd" clip-rule="evenodd" d="m16.549 12.679 4.814.005-.697 1.218-2.508 4.386h.022l-.802 1.4a2.528 2.528 0 0 0 .844 3.396l.07.043c.322.187.667.293 1.013.326v.06h-4.132l-.002.003H8.326a2.54 2.54 0 0 0 1.9-1.196l.049-.082 5.063-8.916a1.643 1.643 0 0 1 1.229-.644l-.018.001Z" fill="#fff"/><path fill-rule="evenodd" clip-rule="evenodd" d="m16.549 12.679 4.814.005-.697 1.218-2.508 4.386h.022l-.802 1.4a2.528 2.528 0 0 0 .844 3.396l.07.043c.322.187.667.293 1.013.326v.06h-4.132l-.002.003H8.326a2.54 2.54 0 0 0 1.9-1.196l.049-.082 5.063-8.916a1.643 1.643 0 0 1 1.229-.644l-.018.001Z" fill="#0CC19B" fill-opacity=".5"/><path fill-rule="evenodd" clip-rule="evenodd" d="m16.549 12.679 4.814.005-.697 1.218-2.508 4.386h.022l-.802 1.4a2.528 2.528 0 0 0 .844 3.396l.07.043c.322.187.667.293 1.013.326v.06h-4.132l-.002.003H8.326a2.54 2.54 0 0 0 1.9-1.196l.049-.082 5.063-8.916a1.643 1.643 0 0 1 1.229-.644l-.018.001Z" fill="#003CB2"/></svg>