<svg fill="none" height="32" viewBox="0 0 32 32" width="32" xmlns="http://www.w3.org/2000/svg"><path d="m16 32c8.8366 0 16-7.1634 16-16 0-8.83656-7.1634-16-16-16-8.83656 0-16 7.16344-16 16 0 8.8366 7.16344 16 16 16z" fill="#fff"/><g clip-rule="evenodd" fill-rule="evenodd"><path d="m21.4335 12.6797-.0001.0006 1.138.0061c.1296-.0095.2602-.0089.3907.002l2.7794.0149c.4228.0243.7579.3764.7579.8074 0 .2036-.0748.3897-.1983.5318l-1.3526 2.3541c-.0107.0199-.0216.0396-.0329.0593l-3.3468 5.8406c-.4533.7911-1.2686 1.2405-2.1134 1.2584v.0005h-.0393c-.0218.0002-.0436-.0001-.0653-.0004l-9.90341-.051h-1.10364l.00005-.0197c.83843-.1171 1.54382-.6535 1.9011-1.3922l.0079.0002 4.8518-8.502c.2724-.5403.8293-.9106 1.472-.9106l-.0448.0009.0016-.0009z" fill="#2bbdf7"/><path d="m13.6819 8.50754 8.7414.00014c.4226.02436.7577.37645.7577.8074 0 .17274-.0539.3328-.1455.46411l-2.3592 4.12661-2.5078 4.3856.0013-.0003h.0205l-.802 1.4007c-.6761 1.1798-.2964 2.6819.8437 3.3958l.0707.0427c.3211.1869.6664.2936 1.0129.3265l.0002.059-4.1328-.0002-.0017.0038h-7.167c-.40693-.0075-.82015-.1113-1.20245-.3248-1.22955-.6867-1.67378-2.2477-.99224-3.4865l5.43899-9.88631c.4984-.9061 1.4611-1.38891 2.4233-1.31425z" fill="#2b6def"/><path d="m16.5488 12.679 4.8137.0049-.6963 1.2183-2.5079 4.3856.0014-.0003h.0204l-.802 1.4007c-.676 1.1799-.2964 2.682.8436 3.3958l.0708.0427c.3212.1869.6664.2937 1.013.3267l.0001.0588h-4.1328l-.0017.0036-6.84493.0002c.75884-.0793 1.47126-.5002 1.90053-1.1962l.0483-.0816 5.0627-8.9164c.287-.3739.7289-.621 1.2289-.6441z" fill="#fff"/><path d="m16.5488 12.679 4.8137.0049-.6963 1.2183-2.5079 4.3856.0014-.0003h.0204l-.802 1.4007c-.676 1.1799-.2964 2.682.8436 3.3958l.0708.0427c.3212.1869.6664.2937 1.013.3267l.0001.0588h-4.1328l-.0017.0036-6.84493.0002c.75884-.0793 1.47126-.5002 1.90053-1.1962l.0483-.0816 5.0627-8.9164c.287-.3739.7289-.621 1.2289-.6441z" fill="#0cc19b" fill-opacity=".5"/><path d="m16.5488 12.679 4.8137.0049-.6963 1.2183-2.5079 4.3856.0014-.0003h.0204l-.802 1.4007c-.676 1.1799-.2964 2.682.8436 3.3958l.0708.0427c.3212.1869.6664.2937 1.013.3267l.0001.0588h-4.1328l-.0017.0036-6.84493.0002c.75884-.0793 1.47126-.5002 1.90053-1.1962l.0483-.0816 5.0627-8.9164c.287-.3739.7289-.621 1.2289-.6441z" fill="#003cb2"/></g></svg>