<svg xmlns="http://www.w3.org/2000/svg" width="32" height="32" fill="none"><path fill="#FF4A4A" d="M16 32c8.837 0 16-7.163 16-16S24.837 0 16 0 0 7.163 0 16s7.163 16 16 16Z"/><path fill="#fff" d="M19.377 19h-1.015a.349.349 0 0 1-.349-.348v-2.67l-1.777 1.109a.46.46 0 0 1-.49 0l-1.767-1.11v2.67c0 .19-.15.349-.348.349h-1.007a.349.349 0 0 1-.348-.348v-5.153a.461.461 0 0 1 .462-.462c.093 0 .177.03.253.085l2.802 1.928a.325.325 0 0 0 .387 0l2.801-1.928a.466.466 0 0 1 .725.377v5.153a.333.333 0 0 1-.2.32.331.331 0 0 1-.13.028Zm-8.616-.009h-6.3A.461.461 0 0 1 4 18.529v-5.18A.355.355 0 0 1 4.357 13h1.017c.188 0 .348.15.348.348v3.94h3.819v-3.94c0-.189.15-.348.348-.348h.987c.188 0 .348.15.348.348v5.182a.462.462 0 0 1-.462.461ZM21.24 13h6.302a.462.462 0 0 1 .46.461v5.182c0 .188-.15.348-.34.348h-1.014a.347.347 0 0 1-.348-.348v-3.715a.229.229 0 0 0-.226-.226h-3.358a.229.229 0 0 0-.226.226v3.715c0 .188-.15.348-.348.348h-1.015a.347.347 0 0 1-.348-.348V13.46a.462.462 0 0 1 .462-.46h-.001Z"/><path fill="#fff" d="M23.883 15.793h1.006c.188 0 .349.15.349.348v1.025c0 .189-.15.348-.349.348h-1.006a.349.349 0 0 1-.348-.348v-1.034c0-.189.16-.339.348-.339Z"/></svg>