<svg xmlns="http://www.w3.org/2000/svg" width="32" height="32" fill="none"><defs><linearGradient id="und__a" x1="0" x2="32" y1="16" y2="16" gradientUnits="userSpaceOnUse"><stop stop-color="#008ED4"/><stop offset=".37" stop-color="#008ED4"/><stop offset=".54" stop-color="#0071BA"/><stop offset=".74" stop-color="#3A57A7"/><stop offset="1" stop-color="#3A57A6"/></linearGradient></defs><path fill="url(#und__a)" d="M16 32c8.837 0 16-7.163 16-16S24.837 0 16 0 0 7.163 0 16s7.163 16 16 16Z"/><path fill="#FEFEFF" d="M3.853 13.074C5.076 10.625 6.28 8.166 7.508 5.72c5.123.017 10.246-.012 15.367.005a653.148 653.148 0 0 0 3.581 7.232 2662.204 2662.204 0 0 1-7.9 11.853 570.83 570.83 0 0 0-5.119-.004 9735.87 9735.87 0 0 1-7.886-11.845c.973-1.92 1.904-3.86 2.883-5.776 4.486.028 8.974.006 13.46.003l.057.034c.94 1.87 1.847 3.758 2.808 5.616-2.306 3.508-4.654 6.99-6.979 10.485-1.186.002-2.373.003-3.56.002-2.321-3.491-4.657-6.973-6.968-10.473.7-1.39 1.382-2.79 2.08-4.181 3.9-.005 7.8.018 11.7-.007.677 1.367 1.374 2.728 2.016 4.112a2712.358 2712.358 0 0 0-6.061 9.079h-1.974c-2.024-3.024-4.03-6.059-6.058-9.08.4-.89.864-1.752 1.287-2.631 3.282-.008 6.566.018 9.849-.01.443.83.851 1.68 1.266 2.525A1144.712 1144.712 0 0 0 16 20.687a5757.821 5757.821 0 0 0-5.355-8.074c.166-.335.344-.664.514-.997 2.687-.008 5.372.013 8.058-.001.183.338.358.68.536 1.021a1806.967 1806.967 0 0 0-3.757 5.386c-1.087-1.65-2.207-3.281-3.275-4.944 1.527.022 3.055.009 4.583.009.003.252.004.505.004.758-1.06 0-2.12.007-3.18 0 .618.95 1.259 1.884 1.88 2.832.96-1.368 1.912-2.745 2.873-4.114-.07-.277-.38-.167-.578-.193-2.233.001-4.465.015-6.697-.004-.154.243.102.444.213.64 1.398 2.103 2.792 4.208 4.181 6.316 1.449-2.173 2.889-4.35 4.34-6.52.029-.06.084-.181.11-.241-.241-.561-.549-1.09-.8-1.648-2.982-.024-5.964-.005-8.947-.001-.285.598-.583 1.19-.88 1.78 1.857 2.804 3.73 5.595 5.584 8.4.398.006.796.014 1.195-.005 1.847-2.805 3.72-5.591 5.57-8.394a979.32 979.32 0 0 1-1.606-3.267c-3.585-.012-7.17.005-10.755-.008-.57 1.125-1.117 2.262-1.69 3.386a9192.18 9192.18 0 0 1 6.5 9.768c.92.01 1.84.01 2.759 0 2.16-3.26 4.324-6.516 6.495-9.768a474.454 474.454 0 0 1-2.407-4.84c-4.198-.022-8.395-.009-12.592-.002-.806 1.658-1.64 3.3-2.45 4.956 2.475 3.705 4.946 7.415 7.412 11.128 1.441 0 2.882 0 4.323.003 2.47-3.709 4.926-7.427 7.408-11.127-1.057-2.148-2.126-4.291-3.184-6.439-4.806-.009-9.61-.01-14.416-.001-1.053 2.135-2.11 4.268-3.17 6.4-.117.14.028.28.097.4 2.726 4.075 5.446 8.155 8.157 12.24 1.965-.001 3.929.003 5.895-.001 2.774-4.16 5.528-8.33 8.313-12.482-1.13-2.328-3.439-6.962-3.439-6.962l.713-.317s2.408 4.873 3.617 7.306a2710.563 2710.563 0 0 1-8.802 13.216c-2.234-.01-4.468-.002-6.701-.005a5210.11 5210.11 0 0 1-8.796-13.203Z"/></svg>