<svg fill="none" height="32" viewBox="0 0 32 32" width="32" xmlns="http://www.w3.org/2000/svg" xmlns:xlink="http://www.w3.org/1999/xlink"><linearGradient id="a" gradientUnits="userSpaceOnUse" x1="0" x2="32" y1="16" y2="16"><stop offset="0" stop-color="#008ed4"/><stop offset=".37" stop-color="#008ed4"/><stop offset=".54" stop-color="#0071ba"/><stop offset=".74" stop-color="#3a57a7"/><stop offset="1" stop-color="#3a57a6"/></linearGradient><path d="m16 32c8.8366 0 16-7.1634 16-16 0-8.83656-7.1634-16-16-16-8.83656 0-16 7.16344-16 16 0 8.8366 7.16344 16 16 16z" fill="url(#a)"/><path d="m3.85278 13.0739c1.22368-2.4486 2.42688-4.9075 3.65568-7.35358 5.12254.01664 10.24514-.0128 15.36644.00512 1.1788 2.41792 2.3727 4.82856 3.5814 7.23196-2.6227 3.9578-5.2561 7.9087-7.9002 11.8528-1.7062-.0089-3.4124-.0102-5.1187-.0038-2.6317-3.9463-5.26035-7.8946-7.88606-11.8451.9728-1.92 1.90336-3.8605 2.88256-5.77666 4.4864.02816 8.9741.0064 13.4605.00384l.0563.03328c.9395 1.87008 1.847 3.75804 2.8083 5.61664-2.3065 3.5072-4.6541 6.9888-6.9785 10.4845-1.1866.0025-2.3736.0034-3.561.0025-2.3207-3.4918-4.65668-6.9734-6.96704-10.473.69888-1.3913 1.38112-2.7904 2.08-4.18172 3.89884-.00512 7.79904.01792 11.69924-.0064.6771 1.36702 1.3747 2.72772 2.016 4.11132-2.0263 3.0221-4.0465 6.0485-6.0608 9.079-.658 0-1.3159.0005-1.9738.0013-2.0237-3.0246-4.0294-6.0595-6.05824-9.0803.39936-.8909.864-1.7523 1.28764-2.6317 3.282-.0077 6.5652.0179 9.8484-.0102.4428.8307.8512 1.6806 1.2659 2.5254-1.7971 2.6689-3.5827 5.345-5.3568 8.0283-1.7831-2.6932-3.5682-5.3846-5.3555-8.0743.1664-.3353.3443-.6643.5145-.9971 2.6867-.0077 5.3722.0128 8.0576-.0013.183.3379.3584.6797.5363 1.0215-1.2556 1.7932-2.5079 3.5887-3.7568 5.3862-1.0867-1.6512-2.2067-3.2819-3.2755-4.9446 1.527.0217 3.0554.009 4.5837.009.0026.2521.0038.5056.0038.7577-1.0598.0013-2.1196.0077-3.1795 0 .617.9498 1.2583 1.8842 1.879 2.8327.9613-1.3684 1.9123-2.7456 2.8736-4.114-.0704-.2777-.3801-.1676-.5785-.1932-2.2324.0012-4.4647.0153-6.697-.0039-.1536.2432.1024.4442.2137.64 1.3978 2.103 2.7914 4.2082 4.1806 6.3155 1.449-2.1722 2.889-4.3494 4.3405-6.5203.0281-.0602.0832-.1805.11-.2407-.2419-.5606-.5491-1.0905-.8012-1.6473-2.9812-.0243-5.9636-.0051-8.946-.0013-.2854.5978-.5836 1.1891-.8806 1.7805 1.8573 2.8032 3.7299 5.5949 5.5846 8.3993.3981.0064.7962.0141 1.1943-.0051 1.847-2.8045 3.721-5.591 5.5705-8.3942-.5376-1.088-1.073-2.1769-1.6064-3.26658-3.5852-.01152-7.1692.00508-10.75452-.00768-.57088 1.12516-1.11744 2.26176-1.69088 3.38556 2.1696 3.2551 4.3362 6.511 6.4998 9.7677.9204.0103 1.8403.0107 2.7597.0013 2.1594-3.2602 4.3243-6.5165 6.4947-9.769-.8115-1.609-1.6136-3.22219-2.4064-4.83968-4.1984-.02176-8.3955-.009-12.5926-.00256-.80512 1.65892-1.63968 3.30114-2.44992 4.95624 2.47552 3.7056 4.94632 7.415 7.41252 11.1283 1.4412 0 2.8821.0008 4.3225.0025 2.4704-3.7081 4.9267-7.4265 7.4087-11.127-1.0573-2.1478-2.1261-4.2906-3.1847-6.4384-4.8051-.00896-9.6102-.00939-14.41534-.00128-1.05344 2.13504-2.11029 4.26838-3.17056 6.39998-.11648.1408.02816.2803.09728.3994 2.7264 4.0755 5.44552 8.1557 8.15742 12.2406 1.9648-.0013 3.9283.0026 5.8944-.0013 2.7738-4.1587 5.5283-8.3302 8.3136-12.4812-1.1302-2.3284-3.4393-6.96196-3.4393-6.96196l.7129-.31744s2.4077 4.873 3.6173 7.3062c-2.921 4.4135-5.8552 8.8188-8.8026 13.216-2.2336-.0102-4.4672-.0025-6.7008-.0051-2.93885-4.3968-5.87089-8.7978-8.79612-13.2032z" fill="#fefeff"/></svg>