<svg xmlns="http://www.w3.org/2000/svg" width="32" height="32" fill="none"><path fill="#000" d="M32 16c0 8.837-7.163 16-16 16S0 24.837 0 16 7.163 0 16 0s16 7.163 16 16Z"/><path fill="#fff" d="M16.91 26.139h-6.333L6.13 21.693V15.36l4.48-4.48h6.332l4.48 4.48v6.333l-4.513 4.446Zm-3.167-1.886h2.392l3.402-3.369v-4.749l-3.368-3.402h-4.784l-3.402 3.402v4.783l3.369 3.368h2.391v-.033Z"/><path fill="#38F997" d="M21.39 21.625h-6.333l-4.446-4.48v-6.332l4.48-4.48h6.332l4.48 4.48v6.332l-4.513 4.48Zm-3.133-1.886h2.391l3.369-3.369v-4.783l-3.369-3.402h-4.783l-3.402 3.369v4.783l3.369 3.368 2.425.034Z"/></svg>