<svg fill="none" height="32" viewBox="0 0 32 32" width="32" xmlns="http://www.w3.org/2000/svg"><path d="m32 16c0 8.8366-7.1634 16-16 16-8.83656 0-16-7.1634-16-16 0-8.83656 7.16344-16 16-16 8.8366 0 16 7.16344 16 16z" fill="#000"/><path d="m16.9096 26.1389h-3.1664-3.1663l-4.44628-4.4463v-3.1663-3.1664l4.47998-4.48h3.1663 3.1663l4.48 4.48v3.1664 3.1663zm-3.1664-1.8863h2.3916l3.4021-3.3684v-2.3579-2.3916l-3.3684-3.4021h-2.3916-2.3915l-3.40215 3.4021v2.3916 2.3915l3.36845 3.3685h2.3915z" fill="#fff"/><path d="m21.3895 21.6252h-3.1663-3.1663l-4.4463-4.48v-3.1663-3.1663l4.48-4.48005h3.1663 3.1663l4.48 4.48005v3.1663 3.1663zm-3.1326-1.8863h2.3916l3.3684-3.3685v-2.3915-2.3916l-3.3684-3.40212h-2.3916-2.3916l-3.4021 3.36842v2.3916 2.3916l3.3684 3.3684z" fill="#38f997"/></svg>