<svg fill="none" height="32" viewBox="0 0 32 32" width="32" xmlns="http://www.w3.org/2000/svg"><path d="m16 32c8.8366 0 16-7.1634 16-16 0-8.83656-7.1634-16-16-16-8.83656 0-16 7.16344-16 16 0 8.8366 7.16344 16 16 16z" fill="#2775c9"/><path d="m16 28c-6.62808 0-12-5.3719-12-12 0-6.62808 5.37192-12 12-12 6.6281 0 12 5.37192 12 12 0 3.1826-1.2643 6.2348-3.5147 8.4853-2.2505 2.2504-5.3027 3.5147-8.4853 3.5147zm-.7149-16.4528c-.6566.0326-1.2773.3094-1.7402.7761-.4629.4668-.7347 1.0897-.7619 1.7465 0 1.2357.7557 2.0425 2.3591 2.3796l1.1234.2655c1.0928.2553 1.5422.623 1.5422 1.246 0 .6229-.7864 1.2357-1.8077 1.2357-.3628.0333-.7276-.0363-1.0526-.2006-.3251-.1644-.5974-.4169-.7857-.7288-.0558-.1183-.1439-.2185-.2541-.2889-.1102-.0705-.2381-.1084-.3689-.1094h-.6025c-.0464.0086-.0905.0263-.13.052s-.0735.059-.1001.0979-.0452.0827-.0548.1289c-.0096.0461-.01.0937-.0011.14.1468.599.488 1.1325.9704 1.5168.4823.3844 1.0785.598 1.6951.6074v.8579c0 .1909.0759.3741.2109.5091.1351.135.3182.2109.5091.2109.191 0 .3741-.0759.5092-.2109.135-.135.2108-.3182.2108-.5091v-.8681c.6974-.0079 1.364-.2877 1.8581-.7799.494-.4921.7764-1.1577.7871-1.855 0-1.297-.7456-2.0425-2.5124-2.4204l-1.0213-.2247c-1.0212-.2553-1.5012-.5923-1.5012-1.1643 0-.5719.6127-1.2051 1.634-1.2051.3216-.0336.6461.0267.9343.1735.2881.1468.5276.3738.6895.6538.0657.1398.1696.2581.2997.3413.1302.0831.2812.1277.4356.1285h.48c.1092-.0267.2035-.0952.2627-.1907s.0786-.2104.0539-.32c-.1383-.5531-.4478-1.0483-.8843-1.4151s-.9776-.5864-1.5463-.6274v-.7047c0-.191-.0759-.3741-.2109-.5091-.135-.1351-.3181-.2109-.5091-.2109-.1909 0-.3741.0758-.5091.2109-.135.135-.2109.3181-.2109.5091zm-8.28255 4.4528c.00117 1.8813.59334 3.7146 1.69286 5.2411s2.65079 2.669 4.43479 3.2661h.143c.1219 0 .2388-.0484.325-.1346.0861-.0862.1346-.2031.1346-.3249v-.2145c.0003-.1901-.0558-.376-.1613-.5342-.1054-.1582-.2555-.2815-.4311-.3543-1.3893-.5608-2.5794-1.524-3.41739-2.766-.83801-1.2419-1.28576-2.706-1.28576-4.2042 0-1.4983.44775-2.9623 1.28576-4.2043.83799-1.242 2.02809-2.20516 3.41739-2.76595.1748-.071.3245-.19246.43-.34889.1055-.15642.162-.34073.1624-.5294v-.2349c.0006-.06896-.0154-.13707-.0466-.19855-.0313-.06148-.0769-.11451-.133-.1546-.0562-.04009-.1211-.06605-.1894-.07569-.0683-.00963-.1379-.00266-.2029.02033-1.7914.59244-3.35056 1.73424-4.45605 3.26325-1.1055 1.529-1.70113 3.3674-1.7023 5.2542zm17.99485 0c-.0033-1.8795-.5964-3.7106-1.6958-5.235-1.0994-1.52451-2.6495-2.66545-4.4318-3.26202h-.1532c-.1273 0-.2494.05057-.3394.14059-.09.09001-.1406.2121-.1406.33941v.15319c.0041.19697.0651.38855.1757.55164.1105.16308.2658.29072.4473.36751 1.3861.56243 2.573 1.52568 3.4086 2.76648s1.2819 2.7027 1.2819 4.1986c0 1.496-.4463 2.9579-1.2819 4.1987s-2.0225 2.204-3.4086 2.7664c-.178.0776-.3302.2043-.4387.3653s-.1689.3496-.1741.5437v.1736c.0009.0757.0197.1501.0548.2172s.0856.1249.1474.1687c.0617.0438.133.0724.2079.0834.0749.0111.1513.0042.2231-.02 1.7837-.5994 3.334-1.7442 4.4317-3.2726 1.0978-1.5283 1.6874-3.363 1.6857-5.2448z" fill="#fff"/></svg>