<svg xmlns="http://www.w3.org/2000/svg" width="32" height="32" fill="none"><path fill="#2775C9" d="M16 32c8.837 0 16-7.163 16-16S24.837 0 16 0 0 7.163 0 16s7.163 16 16 16Z"/><path fill="#fff" d="M16 28C9.372 28 4 22.628 4 16S9.372 4 16 4s12 5.372 12 12a12 12 0 0 1-12 12Zm-.715-16.453a2.635 2.635 0 0 0-2.502 2.523c0 1.236.756 2.042 2.36 2.38l1.122.265c1.093.255 1.543.623 1.543 1.246S17.02 19.197 16 19.197a1.94 1.94 0 0 1-1.838-.93.694.694 0 0 0-.623-.398h-.603a.358.358 0 0 0-.286.419 2.788 2.788 0 0 0 2.666 2.124v.858a.72.72 0 0 0 1.44 0v-.868a2.676 2.676 0 0 0 2.645-2.635c0-1.297-.746-2.043-2.512-2.42l-1.022-.225c-1.021-.256-1.501-.593-1.501-1.165 0-.572.613-1.205 1.634-1.205a1.675 1.675 0 0 1 1.624.828.818.818 0 0 0 .735.47h.48a.429.429 0 0 0 .317-.511 2.706 2.706 0 0 0-2.43-2.043v-.705a.72.72 0 0 0-1.44 0v.756ZM7.003 16a8.977 8.977 0 0 0 6.127 8.507h.143a.46.46 0 0 0 .46-.46v-.214a.96.96 0 0 0-.593-.888 7.517 7.517 0 0 1 0-13.94.95.95 0 0 0 .593-.879v-.235a.43.43 0 0 0-.572-.408A8.977 8.977 0 0 0 7.003 16Zm17.994 0a8.976 8.976 0 0 0-6.127-8.497h-.153a.48.48 0 0 0-.48.48v.153a1.02 1.02 0 0 0 .623.92 7.517 7.517 0 0 1 0 13.93 1.021 1.021 0 0 0-.613.909v.173a.48.48 0 0 0 .633.45A8.977 8.977 0 0 0 24.997 16Z"/></svg>