<svg fill="none" height="32" viewBox="0 0 32 32" width="32" xmlns="http://www.w3.org/2000/svg" xmlns:xlink="http://www.w3.org/1999/xlink"><linearGradient id="a" gradientUnits="userSpaceOnUse" x1="1.16113" x2="30.8389" y1="21.9953" y2="10.0047"><stop offset="0" stop-color="#004a28"/><stop offset=".5" stop-color="#0e9c45"/><stop offset=".75" stop-color="#59c43f"/><stop offset="1" stop-color="#95d435"/></linearGradient><path d="m16 32c8.8366 0 16-7.1634 16-16 0-8.83656-7.1634-16-16-16-8.83656 0-16 7.16344-16 16 0 8.8366 7.16344 16 16 16z" fill="url(#a)"/><path d="m20.4893 10.7673v.0014c.9041 0 2.9633-.002 2.9633-.002l.0004-2.39215-5.96.0014v-3.81013l-2.9719.00081.0034 3.80788-.4859.00563c-.9144-.0488-1.831.03503-2.7214.2489-.7085.18726-1.36322.538-1.91163 1.02406-.38921.3662-.7007.8071-.91593 1.2962-.21523.4892-.32979 1.0167-.33685 1.5511-.01902.371.00053.7429.05834 1.1099.09667.7126.39525 1.3826.86047 1.931.43672.4844.967.8754 1.5589 1.1493.5918.274 1.233.4253 1.8849.4449.548.0482 1.9222.0157 1.9222.0157l-.0034-2.3908-.2871.0021c-.5087.0367-1.0199.008-1.5213-.0851-.248-.0586-.482-.1657-.6884-.315-.2064-.1494-.3812-.3382-.5144-.5554-.1934-.3698-.275-.7878-.2349-1.2031.0074-.3616.1199-.7132.3237-1.0118.201-.2562.4579-.4629.7511-.6043.2933-.1414.615-.2138.9405-.2116.3376-.0204.676-.0236 1.014-.0095h.3069l-.0031 3.9938h2.9718v-3.9939l.3045.0011c.8973-.0011 1.7945-.0013 2.6918-.0004zm-5.9682 12.8356v3.8104l2.9719-.0002v-3.8697s.8653-.0135 1.1343-.0072c.7569.0402 1.5152-.0476 2.2429-.2596.8141-.2433 1.5432-.7111 2.1036-1.3499.5002-.5844.8064-1.3098.8763-2.0759.1002-.6982.0518-1.4096-.142-2.0877-.2261-.7505-.6746-1.4146-1.2862-1.9047-.9659-.6979-2.1244-1.0789-3.316-1.0906-.4258-.03-1.5208-.0074-1.5208-.0074v2.3908c.6513-.0577 1.3077-.0032 1.9406.161.2476.0637.4782.1812.6753.344.1972.1629.356.3672.4653.5984.1929.419.2514.8875.1675 1.3411-.0487.3471-.2014.6712-.4379.9299-.2365.2586-.5457.4396-.8871.5191-.5266.1355-1.0706.1919-1.6139.1672-.372-.0017-.3942-.0017-.3942-.0017l-.0043-3.9673h-2.9844l.0077 3.9673-5.88657.0028.00079 2.3882z" fill="#fff"/></svg>