<svg xmlns="http://www.w3.org/2000/svg" width="32" height="32" fill="none"><defs><linearGradient id="usdp__a" x1="1.161" x2="30.839" y1="21.995" y2="10.005" gradientUnits="userSpaceOnUse"><stop stop-color="#004A28"/><stop offset=".5" stop-color="#0E9C45"/><stop offset=".75" stop-color="#59C43F"/><stop offset="1" stop-color="#95D435"/></linearGradient></defs><path fill="url(#usdp__a)" d="M16 32c8.837 0 16-7.163 16-16S24.837 0 16 0 0 7.163 0 16s7.163 16 16 16Z"/><path fill="#fff" d="M20.49 10.767v.002l2.963-.002V8.375h-5.96v-3.81l-2.972.002.003 3.808-.485.005a9.487 9.487 0 0 0-2.722.249 4.688 4.688 0 0 0-1.911 1.024A3.982 3.982 0 0 0 8.153 12.5c-.02.371 0 .743.058 1.11.097.713.395 1.383.86 1.931a4.83 4.83 0 0 0 3.444 1.595c.548.048 1.923.015 1.923.015l-.004-2.39-.287.002a5.977 5.977 0 0 1-1.521-.086 1.933 1.933 0 0 1-1.203-.87 2.15 2.15 0 0 1-.235-1.203c.007-.362.12-.713.324-1.012a2.131 2.131 0 0 1 1.691-.816c.338-.02.676-.023 1.014-.01h.307l-.003 3.995h2.972v-3.994h2.996Zm-5.97 12.836v3.81h2.972v-3.87s.865-.013 1.134-.007a6.74 6.74 0 0 0 2.243-.26 4.52 4.52 0 0 0 2.104-1.35c.5-.584.806-1.31.876-2.075a5.01 5.01 0 0 0-.142-2.088 3.872 3.872 0 0 0-1.286-1.905 5.758 5.758 0 0 0-3.316-1.09c-.426-.03-1.52-.008-1.52-.008v2.391a5.718 5.718 0 0 1 1.94.161 1.742 1.742 0 0 1 1.14.943c.193.419.252.887.168 1.34a1.736 1.736 0 0 1-1.325 1.45 5.478 5.478 0 0 1-1.614.167l-.394-.002-.005-3.967h-2.984l.008 3.967-5.887.003v2.388l5.888.002Z"/></svg>