<svg width="32" height="32" fill="none" xmlns="http://www.w3.org/2000/svg"><circle cx="16" cy="16" r="16" fill="#fff"/><path d="M24.277 24.277A11.627 11.627 0 0 1 16 27.704a11.633 11.633 0 0 1-8.277-3.427 11.694 11.694 0 0 1-2.982-5.061H1.254C2.75 26.104 8.933 31.09 16 31.09s13.251-4.988 14.746-11.874h-3.487c-.539 1.9-1.57 3.648-2.982 5.06Z" fill="url(#a)"/><path d="M27.639 14.75a11.719 11.719 0 0 1 0 2.5h3.4a15.122 15.122 0 0 0 0-2.5h-3.4Z" fill="url(#b)"/><path d="M4.296 16c0-.413.022-.834.066-1.25h-3.4a15.063 15.063 0 0 0 0 2.5h3.4A12.154 12.154 0 0 1 4.296 16Z" fill="url(#c)"/><path d="M7.723 7.723A11.633 11.633 0 0 1 16 4.296c3.126 0 6.066 1.218 8.277 3.429a11.68 11.68 0 0 1 2.982 5.059h3.487C29.25 5.896 23.067.91 16 .91S2.749 5.896 1.254 12.784h3.487c.539-1.9 1.57-3.646 2.982-5.06Z" fill="url(#d)"/><path d="M16.509 22.642h-.941c-.22 0-.33-.11-.33-.33v-1.206h-.11c-.794 0-1.413-.228-1.858-.682-.444-.454-.665-1.083-.665-1.888v-.298c0-.219.109-.33.33-.33h1.33c.22 0 .33.111.33.33v.11c0 .396.079.668.235.814.157.145.444.219.863.219h.627c.408 0 .691-.079.854-.235.162-.157.244-.45.244-.877v-.235c0-.261-.079-.464-.236-.612a1.237 1.237 0 0 0-.548-.297c-.188-.042-.557-.088-1.104-.141-.55-.053-.959-.117-1.23-.195a2.983 2.983 0 0 1-.831-.4c-.586-.376-.877-1.112-.877-2.21V13.6c0-.826.222-1.46.666-1.904.443-.445 1.068-.666 1.872-.666h.11V9.792c0-.22.11-.33.33-.33h.94c.22 0 .33.11.33.33v1.238h.032c.742 0 1.326.23 1.755.69.429.46.643 1.086.643 1.88v.298c0 .219-.11.33-.33.33h-1.33c-.22 0-.33-.111-.33-.33v-.11c0-.398-.075-.67-.227-.815-.152-.146-.442-.22-.87-.22h-.501c-.43 0-.719.082-.87.244-.153.161-.228.478-.228.949v.313c0 .23.078.41.235.541.157.131.335.218.533.26.23.04.62.086 1.168.132.549.046.962.115 1.238.203.277.088.55.227.823.416.553.397.83 1.107.83 2.131v.596c0 .814-.227 1.448-.681 1.896-.455.45-1.074.673-1.858.673h-.032v1.207c-.002.217-.112.328-.331.328Z" fill="url(#e)"/><defs><linearGradient id="a" x1="-38.318" y1="75.214" x2="24.213" y2="12.683" gradientUnits="userSpaceOnUse"><stop offset=".84" stop-color="#8568C5"/><stop offset="1" stop-color="#783989"/></linearGradient><linearGradient id="b" x1="68.191" y1="-30.302" x2="14.138" y2="34.117" gradientUnits="userSpaceOnUse"><stop offset=".885" stop-color="#793E90"/><stop offset="1" stop-color="#783989"/></linearGradient><linearGradient id="c" x1="52.536" y1="-43.437" x2="-1.516" y2="20.982" gradientUnits="userSpaceOnUse"><stop offset=".373" stop-color="#8568C5"/><stop offset=".622" stop-color="#8568C5"/></linearGradient><linearGradient id="d" x1="-12.003" y1="60.578" x2="25.427" y2="-4.253" gradientUnits="userSpaceOnUse"><stop offset=".557" stop-color="#8568C5"/><stop offset="1" stop-color="#783989"/></linearGradient><linearGradient id="e" x1="12.427" y1="19.664" x2="19.651" y2="12.44" gradientUnits="userSpaceOnUse"><stop offset=".067" stop-color="#8568C5"/><stop offset=".278" stop-color="#8055AD"/><stop offset=".518" stop-color="#7B4599"/><stop offset=".758" stop-color="#793C8D"/><stop offset="1" stop-color="#783989"/></linearGradient></defs></svg>