<svg fill="none" height="32" viewBox="0 0 32 32" width="32" xmlns="http://www.w3.org/2000/svg" xmlns:xlink="http://www.w3.org/1999/xlink"><clipPath id="a"><path d="m0 0h32v32h-32z"/></clipPath><g clip-path="url(#a)"><path d="m32 16c0 8.8366-7.1634 16-16 16-8.83656 0-16-7.1634-16-16 0-8.83656 7.16344-16 16-16 8.8366 0 16 7.16344 16 16z" fill="#fff"/><g clip-rule="evenodd" fill-rule="evenodd"><path d="m6.88511 5.12645-5.23623 11.00705c-.04024.0862-.02299.1839.04598.2471l14.15104 13.559c.0862.0805.2127.0805.2989 0l14.151-13.559c.069-.0632.0863-.1667.046-.2471l-5.2362-11.00705c-.0345-.07472-.1092-.12645-.1954-.12645h-17.82966c-.08047 0-.15519.04598-.19543.12645z" fill="#50af95"/><path d="m17.8116 17.26c-.1034.0057-.6265.0402-1.799.0402-.9312 0-1.5921-.0287-1.8221-.0402-3.5981-.161-6.28804-.7875-6.28804-1.5347 0-.7529 2.68424-1.3737 6.28804-1.5346v2.4485c.2357.0173.9082.0575 1.8393.0575 1.1151 0 1.6784-.046 1.7761-.0575v-2.4485c3.5924.1609 6.2708.7874 6.2708 1.5346s-2.6727 1.3737-6.2651 1.5347zm0-3.3222v-2.19h5.0121v-3.33941h-13.64523v3.33941h5.01203v2.19c-4.0751.1896-7.13871.9943-7.13871 1.96 0 .9656 3.06361 1.7703 7.13871 1.9599v7.0181h3.6211v-7.0181c4.0637-.1896 7.1216-.9943 7.1216-1.9599 0-.9657-3.0521-1.7704-7.1216-1.96z" fill="#fff"/></g></g></svg>