<svg xmlns="http://www.w3.org/2000/svg" width="32" height="32" fill="none"><path fill="#009393" d="M32 16c0 8.837-7.163 16-16 16S0 24.837 0 16 7.163 0 16 0s16 7.163 16 16Z"/><path fill="#fff" fill-rule="evenodd" d="M9.791 8h12.672c.302 0 .582.162.733.424l3.691 6.425a.847.847 0 0 1-.138 1.024L16.587 25.926a.844.844 0 0 1-1.188 0L5.251 15.886a.847.847 0 0 1-.126-1.044L9.07 8.404A.845.845 0 0 1 9.791 8Zm11.036 2.868v1.803h-3.61v1.25c2.536.133 4.438.682 4.452 1.34v1.37c-.015.658-1.916 1.206-4.452 1.34v3.067H14.82v-3.067c-2.535-.134-4.437-.682-4.451-1.34v-1.37c.014-.658 1.916-1.207 4.451-1.34v-1.25h-3.61v-1.803h9.617Zm-4.808 6.161c2.705 0 4.967-.464 5.52-1.083-.47-.525-2.167-.939-4.322-1.052v1.308a22.874 22.874 0 0 1-2.397 0v-1.308c-2.155.113-3.852.527-4.321 1.052.553.62 2.814 1.083 5.52 1.083Z" clip-rule="evenodd"/></svg>