<svg fill="none" height="32" viewBox="0 0 32 32" width="32" xmlns="http://www.w3.org/2000/svg"><path d="m32 16c0 8.8366-7.1634 16-16 16-8.83656 0-16-7.1634-16-16 0-8.83656 7.16344-16 16-16 8.8366 0 16 7.16344 16 16z" fill="#009393"/><path clip-rule="evenodd" d="m9.79135 8h12.67175c.3024 0 .5817.16175.7325.42416l3.6918 6.42464c.1914.3332.1346.7537-.1385 1.0239l-10.1618 10.0537c-.3292.3257-.8587.3257-1.1879 0l-10.14808-10.0402c-.27943-.2764-.33175-.7092-.12627-1.0445l3.94625-6.43815c.15369-.25074.42641-.40355.72025-.40355zm11.03565 2.8684v1.8026h-3.6097v1.2499c2.5352.1335 4.4373.6821 4.4514 1.3396l-.0001 1.3707c-.0141.6575-1.9161 1.2061-4.4513 1.3396v3.0673h-2.3969v-3.0673c-2.5352-.1335-4.4373-.6821-4.4514-1.3396l.0001-1.3707c.0141-.6575 1.9161-1.2061 4.4513-1.3396v-1.2499h-3.6097v-1.8026zm-4.8081 6.1608c2.7054 0 4.9668-.4639 5.5202-1.0833-.4693-.5253-2.1668-.9388-4.3218-1.0523v1.3086c-.3862.0203-.7872.0311-1.1984.0311-.4113 0-.8122-.0108-1.1985-.0311v-1.3086c-2.155.1135-3.8525.527-4.3218 1.0523.5534.6194 2.8147 1.0833 5.5203 1.0833z" fill="#fff" fill-rule="evenodd"/></svg>