<svg fill="none" height="32" viewBox="0 0 32 32" width="32" xmlns="http://www.w3.org/2000/svg" xmlns:xlink="http://www.w3.org/1999/xlink"><clipPath id="a"><path d="m0 0h32v32h-32z"/></clipPath><g clip-path="url(#a)"><path d="m16 32c-3.1645 0-6.25793-.9384-8.88912-2.6965-2.63118-1.7581-4.68194-4.2569-5.89295-7.1806-1.2109975-2.9236-1.527851-6.1406-.910487-9.2443.617363-3.10373 2.141217-5.95466 4.378857-8.1923s5.08857-3.761494 8.1923-4.378857c3.1037-.617364 6.3207-.3005105 9.2443.910487 2.9237 1.21101 5.4225 3.26177 7.1806 5.89295 1.7581 2.63119 2.6965 5.72462 2.6965 8.88912 0 4.2435-1.6857 8.3131-4.6863 11.3137s-7.0702 4.6863-11.3137 4.6863z" fill="#112451" opacity=".9604"/><path d="m16.65 18.25s-2.1 1.1-2 2.83 2.42 4.36 3.82 3.84 5.3-2.78 5.7-5-3.48-3.32-3.48-3.32zm5.42-9.43c-1.2825-1.04386-2.8327-1.70614-4.4736-1.91125s-3.3063.05521-4.8064.75125l-2.27 3.24c.1087.3644.3064.6959.5752.9648.2689.2688.6005.4665.9648.5752 1.3.43 6.93-1.74 6.93-1.74z" fill="#2844ad"/><path d="m7.28001 12s1.9-3.48999 4.43999-4.29999c2.54-.81 2.18 1.73 0 2.75999-2.17999 1.03-3.54999 1.62-4.43999 1.54zm-.36 1.08s-2.92 8.19 5.07999 11.92c0 0 .62-3.27-.51-5.34-.8384-1.6561-1.85078-3.2182-3.01999-4.66-.55773-.6057-1.07548-1.2471-1.55-1.92zm17.51999 7.92s-2.09 4-5.11 4c-.0727-.0228-.1401-.0597-.1985-.1086-.0584-.049-.1066-.1089-.1418-.1764-.0353-.0675-.0569-.1413-.0636-.2172s.0016-.1523.0244-.225c.0057-.0179.0122-.0355.0195-.0528.19-.58 2.08-2.64 5.47-3.22zm-2.3-12.11999c1.1682.89182 2.0819 2.07449 2.65 3.42999.9257 2.2207 1.0598 4.6921.38 7-.51 1.35-1.3 1-3 .64s-8.17-2.18-9.84-4.4-.38-4 1.78-5.15c2.16-1.14999 6.6-2.39999 8.03-1.51999z" fill="#5493f7"/><path d="m13.243 24.583 12.309-.722.014.486-12.294.72z" fill="#fff"/><path d="m25.4911 22.8486-12.3231.7373.0299.4989 12.3231-.7373z" fill="#fff"/><path d="m25.4315 21.8508-12.3231.7373.0298.4989 12.3232-.7373z" fill="#fff"/><path d="m25.3718 20.853-12.3232.7373.0299.4989 12.3231-.7373z" fill="#fff"/><path d="m25.3121 19.8552-12.3231.7372.0298.4989 12.3231-.7372z" fill="#fff"/><path d="m25.2524 18.8574-12.3231.7372.0298.4989 12.3231-.7372z" fill="#fff"/><path d="m25.5509 23.8464-12.3231.7373-.0299-.4989 12.3231-.7373zm.0603.9887-12.3231.7373-.0299-.499 12.3231-.7372zm-.12-1.9865-12.3231.7373-.0299-.4989 12.3231-.7373zm-.0597-.9978-12.3231.7373-.0299-.4989 12.3231-.7373zm-.0597-.9978-12.3231.7373-.0299-.499 12.3231-.7372zm-.0597-.9978-12.3231.7372-.0299-.4989 12.3231-.7373zm-.0597-.9979-12.3231.7373-.0299-.4989 12.3231-.7373z" fill="#b22234"/><path d="m17.8287 18.8008-4.9293.2949.209 3.4924 4.9292-.2949z" fill="#3c3b6e"/><g fill="#fff"><path d="m15.725 19.301-.037.14.112-.092.123.078-.053-.135.112-.092-.145.009-.053-.136-.037.141-.145.009z"/><path d="m15.489 20.281-.053-.135-.037.14-.145.009.123.078-.037.141.112-.093.123.079-.053-.136.112-.092z"/><path d="m14.513 19.724-.036.14.112-.092.122.078-.053-.135.112-.092-.145.009-.053-.136-.036.141-.145.009z"/><path d="m15.335 19.675-.037.14.112-.092.123.078-.053-.135.112-.092-.145.008-.053-.135-.037.141-.145.008z"/><path d="m14.277 20.704-.053-.135-.036.14-.145.009.122.078-.036.141.112-.093.122.079-.053-.136.112-.092z"/><path d="m15.531 20.979-.054-.135-.036.141-.145.008.122.079-.036.14.112-.092.122.078-.053-.135.113-.092z"/><path d="m14.667 20.33-.053-.135-.036.14-.145.009.122.078-.037.141.113-.092.122.078-.053-.135.112-.093z"/><path d="m15.099 20.655-.053-.136-.037.141-.145.009.123.078-.037.141.112-.093.123.078-.053-.135.112-.092z"/><path d="m14.903 19.35-.036.141.112-.093.122.079-.053-.136.112-.092-.145.009-.053-.136-.036.141-.145.009z"/><path d="m14.709 21.029-.053-.136-.037.141-.145.009.123.078-.037.14.112-.092.123.078-.053-.135.112-.092z"/><path d="m15.057 19.956-.053-.135-.037.141-.145.008.123.078-.037.141.113-.092.122.078-.053-.135.112-.092z"/><path d="m15.879 19.907-.053-.135-.037.14-.145.009.122.078-.036.141.112-.092.122.078-.053-.135.113-.093z"/><path d="m16.978 19.576-.037.141.112-.092.123.078-.053-.135.112-.093-.145.009-.053-.135-.037.14-.145.009z"/><path d="m17.132 20.183-.053-.136-.037.141-.145.009.123.078-.037.14.112-.092.123.078-.053-.135.112-.092z"/><path d="m17.368 19.203-.037.14.112-.092.123.078-.053-.135.112-.092-.145.008-.053-.135-.037.141-.145.008z"/><path d="m17.174 20.881-.053-.135-.037.14-.145.009.122.078-.036.141.112-.092.122.078-.053-.135.113-.093z"/><path d="m17.563 20.507-.053-.135-.036.141-.145.008.122.078-.036.141.112-.092.122.078-.053-.135.112-.092z"/><path d="m17.522 19.809-.053-.135-.037.14-.145.009.122.078-.036.141.112-.093.123.079-.053-.136.112-.092z"/><path d="m16.31 20.232-.053-.136-.036.141-.145.009.122.078-.037.141.113-.093.122.079-.053-.136.112-.092z"/><path d="m16.156 19.625-.036.141.112-.092.122.078-.053-.135.113-.092-.146.008-.053-.135-.036.141-.145.008z"/><path d="m16.546 19.252-.036.14.112-.092.122.078-.053-.135.112-.092-.145.008-.053-.135-.036.141-.145.008z"/><path d="m16.742 20.556-.053-.135-.037.141-.145.008.123.079-.037.14.112-.092.123.078-.053-.135.112-.092z"/><path d="m16.7 19.858-.053-.135-.036.14-.145.009.122.078-.037.141.113-.093.122.079-.053-.136.112-.092z"/><path d="m16.352 20.93-.053-.135-.037.141-.145.008.123.078-.037.141.113-.092.122.078-.053-.135.112-.092z"/><path d="m15.92 20.606-.053-.136-.036.141-.145.009.122.078-.036.14.112-.092.122.078-.053-.135.112-.092z"/><path d="m15.572 21.678-.053-.135-.036.14-.145.009.122.078-.036.141.112-.093.122.079-.053-.136.112-.092z"/><path d="m15.813 21.537.113-.092.122.078-.053-.135.112-.093-.145.009-.053-.135-.036.14-.145.009.122.078z"/><path d="m16.394 21.629-.053-.136-.037.141-.145.009.123.078-.037.14.112-.092.123.078-.053-.135.112-.092z"/><path d="m16.004 22.002-.053-.135-.037.141-.145.008.123.079-.037.14.112-.092.123.078-.053-.135.112-.092z"/><path d="m14.992 21.586.112-.092.123.078-.054-.135.113-.093-.145.009-.053-.135-.037.141-.145.008.122.078z"/><path d="m15.182 22.052-.053-.136-.036.141-.145.009.122.078-.036.14.112-.092.122.078-.053-.135.112-.092z"/><path d="m14.751 21.727-.053-.135-.037.14-.145.009.123.078-.037.141.112-.092.123.078-.053-.136.112-.092z"/><path d="m17.68 21.988.112-.092-.145.008-.053-.135-.037.141-.145.008.123.078-.037.141.113-.092.122.078z"/><path d="m17.457 21.439.112-.093.122.078-.053-.135.112-.092-.145.009-.053-.136-.036.141-.145.009.122.078z"/><path d="m17.215 21.58-.053-.136-.036.141-.145.009.122.078-.036.14.112-.092.122.078-.053-.135.112-.092z"/><path d="m16.635 21.488.112-.093.123.079-.053-.136.112-.092-.145.009-.053-.135-.037.14-.145.009.123.078z"/><path d="m16.826 21.953-.054-.135-.036.141-.145.008.122.079-.036.14.112-.092.122.078-.053-.135.113-.092z"/><path d="m13.265 20.287.112-.092.123.078-.053-.135.112-.092-.145.009-.053-.136-.037.141-.145.009.123.078z"/><path d="m13.692 19.773-.037.141.112-.093.123.078-.053-.135.112-.092-.145.009-.053-.136-.037.141-.145.009z"/><path d="m14.082 19.399-.037.141.112-.093.123.079-.053-.136.112-.092-.145.009-.053-.135-.037.14-.145.009z"/><path d="m13.26 19.448-.037.141.113-.092.122.078-.053-.135.112-.093-.145.009-.053-.135-.036.14-.145.009z"/><path d="m14.236 20.005-.054-.135-.036.141-.145.008.122.079-.036.14.112-.092.122.078-.053-.135.113-.092z"/><path d="m13.846 20.379-.053-.135-.037.141-.145.008.122.078-.036.141.112-.092.123.078-.054-.135.113-.093z"/><path d="m13.887 21.078-.053-.136-.036.141-.145.009.122.078-.036.14.112-.092.122.078-.053-.135.112-.092z"/><path d="m13.929 21.776-.053-.135-.036.14-.145.009.122.078-.037.141.113-.092.122.078-.053-.135.112-.093z"/><path d="m14.17 21.635.113-.092.122.078-.053-.135.112-.092-.145.008-.053-.135-.037.141-.144.008.122.079z"/><path d="m13.307 20.986.112-.092.123.078-.053-.135.112-.093-.145.009-.053-.135-.037.14-.145.009.123.078z"/><path d="m14.361 22.101-.053-.135-.037.14-.145.009.123.078-.037.141.112-.093.123.079-.053-.136.112-.092z"/><path d="m13.349 21.684.112-.092.122.078-.053-.135.113-.092-.145.008-.053-.135-.037.141-.145.009.122.078z"/><path d="m13.539 22.15-.053-.135-.036.14-.145.009.122.078-.036.141.112-.092.122.078-.053-.136.112-.092z"/></g></g></svg>