<svg xmlns="http://www.w3.org/2000/svg" width="32" height="32" fill="none"><defs><linearGradient id="ust__a" x1="10.625" x2="27.025" y1="21.812" y2="21.812" gradientUnits="userSpaceOnUse"><stop stop-color="#C11212"/><stop offset=".234" stop-color="#C31414"/><stop offset=".318" stop-color="#CA1B1B"/><stop offset=".378" stop-color="#D52626"/><stop offset=".4" stop-color="#DC2D2D"/><stop offset=".679" stop-color="#DA2C2C"/><stop offset=".78" stop-color="#D32727"/><stop offset=".851" stop-color="#C81E1E"/><stop offset=".909" stop-color="#B71111"/><stop offset=".958" stop-color="#A10101"/><stop offset=".96" stop-color="#A00000"/><stop offset="1" stop-color="#DC2D2D"/></linearGradient><linearGradient id="ust__b" x1="184.954" x2="453.548" y1="83.856" y2="83.856" gradientUnits="userSpaceOnUse"><stop stop-color="#C11212"/><stop offset=".234" stop-color="#C31414"/><stop offset=".318" stop-color="#CA1B1B"/><stop offset=".378" stop-color="#D52626"/><stop offset=".4" stop-color="#DC2D2D"/><stop offset=".679" stop-color="#DA2C2C"/><stop offset=".78" stop-color="#D32727"/><stop offset=".851" stop-color="#C81E1E"/><stop offset=".909" stop-color="#B71111"/><stop offset=".958" stop-color="#A10101"/><stop offset=".96" stop-color="#A00000"/><stop offset="1" stop-color="#DC2D2D"/></linearGradient><linearGradient id="ust__c" x1="184.994" x2="453.742" y1="92.606" y2="92.606" gradientUnits="userSpaceOnUse"><stop stop-color="#C11212"/><stop offset=".234" stop-color="#C31414"/><stop offset=".318" stop-color="#CA1B1B"/><stop offset=".378" stop-color="#D52626"/><stop offset=".4" stop-color="#DC2D2D"/><stop offset=".679" stop-color="#DA2C2C"/><stop offset=".78" stop-color="#D32727"/><stop offset=".851" stop-color="#C81E1E"/><stop offset=".909" stop-color="#B71111"/><stop offset=".958" stop-color="#A10101"/><stop offset=".96" stop-color="#A00000"/><stop offset="1" stop-color="#DC2D2D"/></linearGradient><linearGradient id="ust__d" x1="18.572" x2="27.025" y1="16.457" y2="16.457" gradientUnits="userSpaceOnUse"><stop stop-color="#DC2D2D"/><stop offset=".463" stop-color="#DA2C2C"/><stop offset=".63" stop-color="#D32727"/><stop offset=".749" stop-color="#C81E1E"/><stop offset=".845" stop-color="#B71111"/><stop offset=".926" stop-color="#A10101"/><stop offset=".93" stop-color="#A00000"/><stop offset="1" stop-color="#DC2D2D"/></linearGradient><linearGradient id="ust__e" x1="175.565" x2="247.025" y1="53.147" y2="53.147" gradientUnits="userSpaceOnUse"><stop stop-color="#DC2D2D"/><stop offset=".463" stop-color="#DA2C2C"/><stop offset=".63" stop-color="#D32727"/><stop offset=".749" stop-color="#C81E1E"/><stop offset=".845" stop-color="#B71111"/><stop offset=".926" stop-color="#A10101"/><stop offset=".93" stop-color="#A00000"/><stop offset="1" stop-color="#DC2D2D"/></linearGradient><linearGradient id="ust__f" x1="175.569" x2="247.035" y1="43.241" y2="43.241" gradientUnits="userSpaceOnUse"><stop stop-color="#DC2D2D"/><stop offset=".463" stop-color="#DA2C2C"/><stop offset=".63" stop-color="#D32727"/><stop offset=".749" stop-color="#C81E1E"/><stop offset=".845" stop-color="#B71111"/><stop offset=".926" stop-color="#A10101"/><stop offset=".93" stop-color="#A00000"/><stop offset="1" stop-color="#DC2D2D"/></linearGradient><linearGradient id="ust__g" x1="175.607" x2="247.136" y1="58.641" y2="58.641" gradientUnits="userSpaceOnUse"><stop stop-color="#DC2D2D"/><stop offset=".463" stop-color="#DA2C2C"/><stop offset=".63" stop-color="#D32727"/><stop offset=".749" stop-color="#C81E1E"/><stop offset=".845" stop-color="#B71111"/><stop offset=".926" stop-color="#A10101"/><stop offset=".93" stop-color="#A00000"/><stop offset="1" stop-color="#DC2D2D"/></linearGradient><linearGradient id="ust__h" x1="10.636" x2="27.026" y1="24.347" y2="24.347" gradientUnits="userSpaceOnUse"><stop stop-color="#E0E0E0"/><stop offset=".234" stop-color="#E2E2E2"/><stop offset=".318" stop-color="#E9E9E9"/><stop offset=".378" stop-color="#F4F4F4"/><stop offset=".4" stop-color="#FBFBFB"/><stop offset=".682" stop-color="#F9F9F9"/><stop offset=".784" stop-color="#F2F2F2"/><stop offset=".856" stop-color="#E7E7E7"/><stop offset=".914" stop-color="#D6D6D6"/><stop offset=".96" stop-color="#C2C2C2"/><stop offset="1" stop-color="#FCFCFC"/></linearGradient><linearGradient id="ust__i" x1="184.878" x2="453.838" y1="80.674" y2="80.674" gradientUnits="userSpaceOnUse"><stop stop-color="#E0E0E0"/><stop offset=".234" stop-color="#E2E2E2"/><stop offset=".318" stop-color="#E9E9E9"/><stop offset=".378" stop-color="#F4F4F4"/><stop offset=".4" stop-color="#FBFBFB"/><stop offset=".682" stop-color="#F9F9F9"/><stop offset=".784" stop-color="#F2F2F2"/><stop offset=".856" stop-color="#E7E7E7"/><stop offset=".914" stop-color="#D6D6D6"/><stop offset=".96" stop-color="#C2C2C2"/><stop offset="1" stop-color="#FCFCFC"/></linearGradient><linearGradient id="ust__j" x1="184.878" x2="453.839" y1="74.466" y2="74.466" gradientUnits="userSpaceOnUse"><stop stop-color="#E0E0E0"/><stop offset=".234" stop-color="#E2E2E2"/><stop offset=".318" stop-color="#E9E9E9"/><stop offset=".378" stop-color="#F4F4F4"/><stop offset=".4" stop-color="#FBFBFB"/><stop offset=".682" stop-color="#F9F9F9"/><stop offset=".784" stop-color="#F2F2F2"/><stop offset=".856" stop-color="#E7E7E7"/><stop offset=".914" stop-color="#D6D6D6"/><stop offset=".96" stop-color="#C2C2C2"/><stop offset="1" stop-color="#FCFCFC"/></linearGradient><linearGradient id="ust__k" x1="18.567" x2="27.025" y1="17.306" y2="17.306" gradientUnits="userSpaceOnUse"><stop stop-color="#fff"/><stop offset=".462" stop-color="#FDFDFD"/><stop offset=".628" stop-color="#F6F6F6"/><stop offset=".747" stop-color="#EBEBEB"/><stop offset=".842" stop-color="#DADADA"/><stop offset=".923" stop-color="#C4C4C4"/><stop offset=".93" stop-color="#C2C2C2"/><stop offset="1" stop-color="#FCFCFC"/></linearGradient><linearGradient id="ust__l" x1="175.621" x2="247.176" y1="55.5" y2="55.5" gradientUnits="userSpaceOnUse"><stop stop-color="#fff"/><stop offset=".462" stop-color="#FDFDFD"/><stop offset=".628" stop-color="#F6F6F6"/><stop offset=".747" stop-color="#EBEBEB"/><stop offset=".842" stop-color="#DADADA"/><stop offset=".923" stop-color="#C4C4C4"/><stop offset=".93" stop-color="#C2C2C2"/><stop offset="1" stop-color="#FCFCFC"/></linearGradient><linearGradient id="ust__m" x1="175.614" x2="247.163" y1="45.851" y2="45.851" gradientUnits="userSpaceOnUse"><stop stop-color="#fff"/><stop offset=".462" stop-color="#FDFDFD"/><stop offset=".628" stop-color="#F6F6F6"/><stop offset=".747" stop-color="#EBEBEB"/><stop offset=".842" stop-color="#DADADA"/><stop offset=".923" stop-color="#C4C4C4"/><stop offset=".93" stop-color="#C2C2C2"/><stop offset="1" stop-color="#FCFCFC"/></linearGradient></defs><path fill="#112451" d="M16 32c8.837 0 16-7.163 16-16S24.837 0 16 0 0 7.163 0 16s7.163 16 16 16Z"/><path fill="#0E3CA5" d="M12.718 7.364a9.035 9.035 0 0 1 9.273 1.17 4.385 4.385 0 0 0-2.28-.276 15.46 15.46 0 0 0-3.772.971c-1.11.41-2.147.997-3.07 1.737a4.396 4.396 0 0 0-1.007 1.19 4.015 4.015 0 0 1-1.321-1.343 8.423 8.423 0 0 0 2.172-1.387c.352-.295.61-.686.743-1.126a.77.77 0 0 0-.094-.626.997.997 0 0 0-.644-.31Z"/><path fill="#5493F7" d="M10.955 7.763a2.708 2.708 0 0 1 1.763-.4c.246.02.475.131.645.311a.771.771 0 0 1 .093.626c-.133.44-.391.83-.742 1.126a8.424 8.424 0 0 1-2.173 1.387c-.798.379-1.637.663-2.501.847a2.222 2.222 0 0 1-.656.033c.074-.164.156-.324.247-.48a9.608 9.608 0 0 1 3.324-3.45Zm8.755.495a4.385 4.385 0 0 1 2.281.275c.18.128.35.27.51.424a9.586 9.586 0 0 1 2.777 4.896c.05.349-12.392 2.02-12.637 1.672a3.454 3.454 0 0 1-1.065-1.892 2.372 2.372 0 0 1 .286-1.477 4.395 4.395 0 0 1 1.007-1.19c.923-.74 1.96-1.327 3.07-1.737a15.413 15.413 0 0 1 3.771-.971ZM6.992 12.595c.514.673 1.078 1.307 1.615 1.96a27.314 27.314 0 0 1 2.015 2.926c.36.468.631 6.347.003 6.347a9.584 9.584 0 0 1-1.971-1.769 9.489 9.489 0 0 1-2.152-4.78c-.06-.348-.067-.701-.1-1.052v-.64c.032-.35.04-.702.098-1.048a9.22 9.22 0 0 1 .492-1.944Z"/><path fill="#0828A7" d="M18.572 19.136V14.93a60.28 60.28 0 0 1-7.073.639c-.142-.007-.285 0-.425.02a.608.608 0 0 0-.45.56c-.005.445.003.889-.003 1.333.006 1.328 0 2.657.003 3.986.396-.01.792-.006 1.188-.02.488-.006.974-.05 1.462-.061a7.22 7.22 0 0 0 .488-.031c.482-.034.965-.073 1.446-.12a57.512 57.512 0 0 0 1.712-.184c.345-.042.689-.09 1.034-.13.204-.037.41-.054.614-.093.008-.28.002-.56.004-.84v-.853Z"/><path fill="#fff" d="M11.31 18.803c-.067-.042-.131-.088-.195-.134l-.199.152c.025-.081.05-.162.072-.244-.06-.044-.119-.086-.177-.132.075-.004.15-.006.226-.009.024-.076.052-.152.083-.226l.075.216c.073.004.147.007.22.012a3.586 3.586 0 0 1-.17.138c.023.076.045.151.064.227Zm-.272.795c.024-.07.05-.14.079-.207.027.067.053.135.078.204.077.003.154.004.23.008-.058.049-.118.096-.178.143.02.074.041.149.059.225-.066-.04-.129-.082-.192-.124-.065.046-.13.094-.194.141.023-.08.047-.16.065-.24a4.573 4.573 0 0 1-.182-.14l.235-.01Zm.272 1.555a8.234 8.234 0 0 1-.194-.138 10.13 10.13 0 0 1-.194.143c.024-.074.044-.15.06-.225a.915.915 0 0 0-.172-.148c.076-.005.152-.008.228-.01a2.29 2.29 0 0 1 .082-.212c.029.07.055.142.08.215.078-.003.156-.005.235-.006-.063.052-.126.1-.19.15.022.077.046.154.065.231Zm-.064-3.75c.022.077.044.153.064.23a5.468 5.468 0 0 1-.193-.133c-.06.042-.12.084-.182.124.014-.07.036-.14.044-.211a1.176 1.176 0 0 0-.174-.151c.077-.006.155-.008.232-.01.026-.07.053-.14.084-.207.031.066.038.152.091.205.075.007.15.004.224.005-.062.05-.126.099-.19.148Zm0-1.177c.021.075.042.15.06.227-.066-.04-.13-.084-.194-.127-.064.05-.129.099-.194.146.025-.08.05-.161.07-.244a3.563 3.563 0 0 1-.18-.132c.077-.006.154-.01.23-.014.024-.07.05-.14.079-.209.028.069.055.138.078.209.08.003.162.003.243.005l-.192.139Zm6.788-.703c.02-.075.041-.148.066-.22.03.069.058.14.088.21.082-.01.164-.023.246-.034l-.197.166.06.228a16.784 16.784 0 0 1-.19-.108c-.064.055-.128.11-.197.16.022-.08.047-.158.07-.237a7.138 7.138 0 0 1-.188-.112l.242-.053Zm-.702.681c.021-.076.042-.152.066-.227a.753.753 0 0 1 .078.213c.078-.006.155-.013.232-.016-.062.052-.12.11-.172.172.018.069.045.136.064.205a3.73 3.73 0 0 1-.194-.107 4.27 4.27 0 0 1-.197.158c.02-.075.047-.147.064-.223a.687.687 0 0 0-.171-.13 4.94 4.94 0 0 1 .23-.044Zm-.499-.369c.022.072.044.144.064.216l-.198-.105a5.25 5.25 0 0 1-.156.142h-.028l.062-.224a4.674 4.674 0 0 1-.18-.121c.073-.01.146-.019.22-.027.033-.076.064-.153.096-.23.024.066.046.133.069.2a13.865 13.865 0 0 1 .238-.016c-.06.057-.123.111-.187.165Zm-.898.532c.02-.074.044-.148.068-.222.03.068.058.137.086.205.075-.002.15-.004.226-.004a1.155 1.155 0 0 0-.17.162c.016.075.036.149.061.222l-.194-.119c-.065.051-.13.104-.197.152.02-.078.044-.155.066-.232a6.61 6.61 0 0 1-.17-.122 4.9 4.9 0 0 1 .224-.042Zm-.7-.51c.02-.08.047-.158.081-.233l.063.21c.079-.004.157-.007.236-.005-.059.055-.119.107-.179.16.026.073.05.147.069.222-.066-.037-.13-.078-.193-.118-.067.052-.133.106-.202.156.022-.076.051-.15.069-.227a1.069 1.069 0 0 0-.174-.136l.23-.029Zm-.431 3.342a2.895 2.895 0 0 1-.197-.11 2.859 2.859 0 0 1-.178.139c.014-.077.031-.153.053-.228a2.742 2.742 0 0 1-.184-.125 6.92 6.92 0 0 1 .232-.022l.084-.232c.026.07.05.142.073.215l.234-.005c-.06.053-.123.104-.184.156.023.07.047.14.067.212Zm-.002-1.173a.8.8 0 0 0-.201-.097c-.062.038-.117.087-.175.13a3.57 3.57 0 0 1 .055-.227c-.061-.042-.123-.084-.183-.129.077-.007.153-.012.23-.016.03-.082.056-.166.085-.248.027.076.052.153.077.23.079-.008.158-.017.237-.023a.974.974 0 0 0-.184.18c.016.068.04.133.059.2Zm-.692-.516a9.586 9.586 0 0 1-.191-.123c-.067.047-.136.09-.207.13.029-.072.05-.147.074-.22a9.927 9.927 0 0 1-.192-.13c.077-.006.155-.01.234-.015a4.105 4.105 0 0 1 .084-.232 5.4 5.4 0 0 1 .079.212c.078-.004.155-.009.233-.011a5.13 5.13 0 0 1-.183.163l.069.226Zm-.242 1.88.044-.117c.028.068.054.137.08.205l.226-.005a.955.955 0 0 0-.168.166c.015.075.036.15.062.222a19.321 19.321 0 0 1-.197-.133l-.17.135a.958.958 0 0 1 .032-.219l-.166-.126c.099-.014.239.002.257-.128Zm-.732-2.788c.023-.08.05-.157.082-.232l.068.219c.079-.001.157-.003.236 0a3.067 3.067 0 0 1-.18.152c.023.073.044.147.062.221-.066-.036-.128-.077-.192-.116-.066.05-.131.1-.198.146.022-.076.051-.15.067-.227a.897.897 0 0 0-.195-.147l.25-.016Zm.271 1.543-.194-.13c-.064.05-.128.1-.195.146.02-.077.044-.153.067-.229-.061-.046-.123-.091-.181-.14.076-.008.153-.012.229-.016.022-.076.052-.15.088-.22l.066.203c.077.002.154.005.231.01-.055.052-.131.088-.168.156.014.074.039.146.057.22Zm-.701-.565c-.06-.033-.117-.073-.18-.102-.076.01-.132.08-.201.113a2.47 2.47 0 0 1 .065-.214c-.062-.047-.125-.094-.185-.144l.232-.009c.025-.081.053-.162.08-.243.026.077.05.156.074.235.08-.002.16-.005.24-.004-.061.05-.126.1-.191.145.023.074.047.148.066.223Zm-.694.62a4.295 4.295 0 0 1-.195-.13c-.064.048-.127.096-.192.143.018-.08.04-.16.062-.239a7.922 7.922 0 0 1-.191-.135c.074-.002.15.001.224-.007.06-.059.061-.158.094-.234.03.075.056.15.078.228.078.001.156.001.234.004-.06.049-.12.095-.181.14.022.077.046.153.067.23Zm-.274.799.076-.215c.03.067.055.136.079.206l.234.006c-.06.053-.122.104-.184.155.024.076.05.15.072.227-.067-.043-.132-.089-.198-.134-.064.047-.126.094-.192.137.018-.076.04-.152.065-.227a3.832 3.832 0 0 1-.178-.137 6.52 6.52 0 0 1 .226-.018Zm.276 1.551c-.068-.043-.134-.09-.2-.136l-.191.15c.019-.081.04-.16.063-.24a5.064 5.064 0 0 1-.172-.136c.076-.007.152-.011.228-.015.022-.075.046-.149.071-.222.032.072.058.147.078.223l.249-.008-.197.154c.024.076.049.152.071.23Zm-.07-3.748c.023.075.047.15.068.226-.067-.042-.133-.086-.199-.13-.062.05-.125.098-.19.147.02-.081.042-.16.065-.24a9.175 9.175 0 0 1-.194-.138c.083-.007.166-.01.25-.014.021-.074.045-.147.07-.22.03.07.056.143.077.218.084-.002.167-.004.25-.004l-.197.155Zm.483-.759a.88.88 0 0 0 .086-.234c.021.08.058.153.08.234l.232-.008c-.06.056-.123.11-.183.166.024.07.048.14.066.212a2.753 2.753 0 0 1-.195-.126c-.06.048-.122.093-.186.135.017-.073.039-.145.062-.216-.064-.05-.129-.098-.19-.15.075-.004.152-.003.228-.013Zm.008 2.351c.028-.08.053-.163.08-.244l.076.235c.079-.002.158-.003.237-.002-.06.053-.123.103-.185.154.022.072.043.143.061.216a1.15 1.15 0 0 0-.197-.11c-.063.04-.12.086-.182.127a3.53 3.53 0 0 1 .064-.225 6.54 6.54 0 0 1-.19-.137 3.58 3.58 0 0 1 .236-.014Zm.271 2.704c-.068-.031-.126-.093-.201-.102-.063.031-.118.076-.177.113.017-.073.038-.145.06-.217l-.188-.14c.08-.005.158-.01.237-.013l.08-.24c.026.076.05.154.073.23.08-.001.16-.004.24-.003-.061.056-.126.107-.19.16.024.07.047.14.066.212Zm-.066-1.391c.024.073.048.147.068.223-.082-.027-.166-.165-.25-.081l-.133.09c.018-.07.04-.138.057-.208a.946.946 0 0 0-.18-.151c.078-.004.156-.006.235-.009.025-.08.049-.161.076-.241l.083.238c.085-.006.17-.012.254-.02l-.21.159Zm.765.774c-.066-.038-.129-.078-.192-.118-.066.049-.13.099-.197.146.021-.075.05-.149.064-.226a1.003 1.003 0 0 0-.196-.15l.252-.018c.025-.077.05-.153.082-.227l.068.219c.076 0 .153 0 .23.004-.056.052-.114.1-.171.149.021.073.042.147.06.221Zm-.065-1.394c.026.074.048.15.067.226-.067-.04-.13-.083-.195-.125-.066.052-.131.105-.198.154.022-.08.048-.161.07-.242a3.71 3.71 0 0 1-.18-.134c.078-.006.156-.01.233-.012.02-.079.046-.156.079-.23.028.072.054.145.08.218.081-.007.163-.014.245-.017-.065.056-.134.109-.202.162Zm.528-3.215c.015-.039.03-.077.043-.116.03.068.056.136.082.204l.224-.001a.93.93 0 0 0-.168.162c.016.075.037.149.064.221l-.196-.128c-.062.044-.124.089-.19.129a1.7 1.7 0 0 1 .055-.217l-.193-.131c.1-.02.26.015.28-.123Zm.239 5.155c-.064-.039-.126-.08-.19-.12-.063.043-.126.088-.191.129.014-.076.034-.15.058-.223a7.915 7.915 0 0 0-.193-.124c.1-.021.26.013.277-.125l.044-.125.079.207.228-.002c-.058.055-.117.107-.177.16l.065.223Zm-.064-2.578.062.23-.193-.122-.176.148a1.07 1.07 0 0 1 .043-.231 5.095 5.095 0 0 1-.168-.132c.073-.01.146-.018.219-.026l.032-.087c.015-.042.032-.083.048-.124l.082.198.244-.008-.193.154Zm.488-1.945c.029-.078.057-.156.083-.235.027.074.05.15.072.226l.239-.017c-.061.057-.126.11-.19.163.025.073.05.146.072.22a3.943 3.943 0 0 1-.197-.119 3.231 3.231 0 0 1-.18.138c.013-.073.031-.145.05-.217-.06-.046-.122-.09-.184-.134.078-.01.157-.018.235-.025Zm.282 3.88c-.065-.038-.127-.081-.194-.117a1.93 1.93 0 0 0-.19.13 2.69 2.69 0 0 1 .052-.215c-.06-.047-.122-.092-.183-.137.077-.007.155-.012.233-.017.028-.08.055-.161.085-.241.025.075.047.15.068.227.082-.008.164-.017.246-.021a6.14 6.14 0 0 1-.196.166l.08.225Zm.421-3.359c.023-.08.05-.158.081-.235.024.075.046.15.068.226.083-.005.166-.013.249-.02a7.3 7.3 0 0 1-.196.164c.025.073.049.146.068.22a4.946 4.946 0 0 1-.195-.115c-.063.052-.126.104-.193.151.019-.077.043-.153.066-.228-.06-.045-.123-.088-.184-.132a6.34 6.34 0 0 1 .236-.03Zm.271 2.705a5.621 5.621 0 0 1-.193-.12c-.067.053-.132.106-.2.155.022-.078.048-.154.074-.23a3.954 3.954 0 0 1-.18-.129c.076-.014.153-.026.23-.037a1.62 1.62 0 0 1 .08-.228c.022.07.043.142.063.214.078-.003.155-.006.233-.004-.057.054-.117.105-.175.157.026.073.049.147.068.222Zm-.006-1.183c-.065-.034-.128-.072-.191-.108-.065.055-.13.109-.197.16.022-.08.048-.16.072-.24-.06-.043-.122-.085-.181-.13.077-.008.154-.014.232-.02a.978.978 0 0 1 .083-.236l.065.207c.079-.002.158-.007.237-.008a2.187 2.187 0 0 1-.18.156c.021.072.043.145.06.22Zm.004 2.349a3.342 3.342 0 0 1-.194-.113 2.612 2.612 0 0 1-.195.152c.02-.078.045-.153.07-.229-.062-.044-.124-.087-.184-.134.077-.009.154-.014.23-.02.026-.082.052-.165.085-.245.024.076.046.153.068.23.085-.009.17-.02.255-.027a4.496 4.496 0 0 1-.203.167c.025.072.049.145.068.22Zm.426-3.348a5.34 5.34 0 0 1 .074-.222c.032.068.062.137.09.207.076-.01.152-.02.229-.026a3.44 3.44 0 0 1-.184.166l.068.225a6.744 6.744 0 0 1-.194-.116 4.725 4.725 0 0 1-.195.151c.02-.077.043-.153.065-.229l-.195-.132c.08-.01.161-.018.242-.024Zm.281 2.702-.2-.125a3.522 3.522 0 0 1-.195.157c.02-.078.043-.154.065-.23-.058-.043-.115-.085-.17-.128.074-.017.15-.03.225-.042.02-.074.044-.147.068-.219.032.069.059.14.086.21a2.96 2.96 0 0 1 .229-.012 1.42 1.42 0 0 0-.174.164c.017.077.038.152.065.225Zm-.068-1.412c.017.075.037.15.053.224-.06-.032-.117-.071-.18-.099a1.74 1.74 0 0 0-.196.14c.019-.078.041-.156.062-.234a6.24 6.24 0 0 1-.19-.12c.08-.01.16-.02.242-.028.02-.076.044-.15.07-.225.032.066.06.133.089.2l.244-.019a7.974 7.974 0 0 1-.194.162Zm.691 1.693.066.21a4.703 4.703 0 0 1-.195-.103 3.993 3.993 0 0 1-.18.14l.017-.105.03-.12-.179-.122.23-.03.09-.23.053.16.017.046c.08-.004.159-.014.238-.021-.061.06-.125.117-.187.175Zm.173-2.517c-.055.06-.113.116-.172.172.02.068.041.137.06.206-.065-.032-.129-.068-.193-.102l-.116.107-.073.05.065-.234-.182-.128.227-.027.087-.234.079.213.07-.01c.049-.005.098-.01.148-.013Zm-.173 1.339.065.218-.196-.107c-.053.047-.105.095-.16.14l-.024.002.058-.224a4.598 4.598 0 0 1-.18-.123 9.31 9.31 0 0 1 .221-.03c.033-.074.063-.15.096-.224l.065.189c.066.01.132.021.197.036l-.142.123Zm.012-2.329c.01.065.032.128.045.193a1.466 1.466 0 0 0-.187-.089c-.063.04-.118.088-.178.131l.046-.227-.18-.116.234-.038.082-.224.046.115.04.1.227-.031c-.058.061-.142.107-.175.186Zm.485.346c.03-.07.048-.146.074-.218.034.067.04.153.094.207.072-.005.143-.015.215-.02-.058.059-.12.114-.182.169.024.072.049.145.07.219a4.325 4.325 0 0 1-.195-.11 2.767 2.767 0 0 1-.194.153c.019-.078.042-.153.067-.229l-.2-.128a.798.798 0 0 0 .25-.043Zm.268 2.696a3.252 3.252 0 0 1-.195-.104 3.343 3.343 0 0 1-.194.158c.02-.075.046-.148.063-.223a.848.848 0 0 0-.175-.132c.078-.017.156-.028.234-.04.021-.077.043-.154.066-.23a.712.712 0 0 1 .079.212c.079-.008.158-.016.238-.02a1.18 1.18 0 0 0-.178.177c.016.069.042.135.062.202Zm-.066-1.388c.023.073.048.146.067.22-.066-.034-.13-.071-.195-.108-.064.055-.13.11-.196.163a3.65 3.65 0 0 1 .07-.244 6.491 6.491 0 0 1-.195-.12l.246-.033c.018-.077.044-.153.076-.226.033.063.056.13.068.2l.254-.016-.195.164Zm.497-1.968a4.81 4.81 0 0 1 .07-.242c.03.07.057.14.084.21a3.53 3.53 0 0 1 .233-.02c-.058.057-.12.112-.181.167.02.07.04.141.056.213a3.825 3.825 0 0 1-.183-.1c-.065.053-.128.108-.196.157.02-.078.043-.153.067-.23-.065-.043-.132-.083-.196-.128.082-.012.163-.02.245-.028Zm.27 1.512a2.005 2.005 0 0 0-.187-.103 1.88 1.88 0 0 0-.198.143c.019-.077.042-.153.064-.229a2.844 2.844 0 0 1-.179-.114c.076-.016.153-.03.23-.045.022-.076.047-.15.075-.224.029.067.055.136.083.205l.225-.024a3.91 3.91 0 0 1-.178.166c.023.074.045.149.065.225Zm-.009 2.333c-.06-.03-.117-.064-.178-.088a1.564 1.564 0 0 0-.202.147c.02-.078.044-.155.07-.231l-.192-.12a1.92 1.92 0 0 0 .233-.04c.031-.078.057-.157.078-.238.029.07.055.14.082.21a6.59 6.59 0 0 1 .227-.01l-.175.16c.02.07.04.14.057.21Zm-.044-1.393c.007.076.021.15.043.224a3.723 3.723 0 0 1-.182-.105 3.85 3.85 0 0 1-.196.162c.02-.079.044-.156.066-.233l-.192-.124c.084-.008.166-.025.246-.05.026-.071.044-.145.068-.217l.088.209c.082-.01.164-.023.247-.033a2.362 2.362 0 0 0-.188.167Z"/><path fill="url(#ust__a)" d="M24.177 20.735c.606-.09 1.212-.194 1.826-.226.214-.025.43-.014.64.033.166.036.36.127.382.317v.804c-.06-.23-.334-.278-.537-.286a4.67 4.67 0 0 0-1.001.012c-.574.06-1.144.156-1.714.243-2.893.505-5.786 1.032-8.714 1.286-.347.048-.697.05-1.045.093-.483.034-.967.055-1.451.08-.645.04-1.292.034-1.938.042.002-.282.002-.564 0-.846.425.003.85 0 1.275-.018.356.008.71-.026 1.064-.038.387-.024.774-.031 1.16-.07.257-.03.517-.03.775-.062.29-.04.585-.043.875-.087a71.14 71.14 0 0 0 4.434-.6c1.325-.213 2.644-.46 3.969-.677Z"/><path fill="url(#ust__b)" d="M24.52 22.362a8.824 8.824 0 0 1 2.062-.156c.189.041.44.13.443.362l-.001.747a.449.449 0 0 0-.345-.237 6.508 6.508 0 0 0-1.839.072c-1.285.183-2.56.431-3.84.643-2.14.366-4.291.677-6.457.851-.524.059-1.052.07-1.578.114-.776.029-1.552.05-2.329.063l.001-.848c.572 0 1.143-.027 1.714-.034.597-.011 1.192-.064 1.789-.095.35-.04.7-.056 1.05-.093.272-.039.549-.038.82-.083a72.953 72.953 0 0 0 4.315-.594c1.4-.226 2.793-.493 4.194-.712Z"/><path fill="url(#ust__c)" d="M24.008 24.123c.62-.096 1.239-.197 1.864-.25.294-.032.592-.01.878.063a.364.364 0 0 1 .276.28c-.003.289.002.579-.004.868a.403.403 0 0 1-.137.272 1.7 1.7 0 0 1-.58.33 8.37 8.37 0 0 1-1.467.356c-.908.152-1.825.233-2.742.309a89.99 89.99 0 0 1-5.937.227 496.27 496.27 0 0 1-4.926 0 .61.61 0 0 1-.512-.347 1.14 1.14 0 0 1-.085-.575c.797.005 1.592-.037 2.388-.066.412-.007.82-.06 1.232-.076.247-.01.492-.053.738-.065a72.167 72.167 0 0 0 5.487-.72c1.177-.196 2.35-.407 3.527-.606Z"/><path fill="url(#ust__d)" d="M26.719 15.52a2.154 2.154 0 0 0-.718-.057c-.274.032-.552.035-.825.085-.922.12-1.838.286-2.754.446-1.28.227-2.564.438-3.85.632v.833a156.13 156.13 0 0 0 4.498-.747 42.954 42.954 0 0 1 2.38-.36c.305-.033.61-.043.916-.03.101.002.202.012.3.032a.447.447 0 0 1 .358.246l.001-.778a.382.382 0 0 0-.306-.301Z"/><path fill="url(#ust__e)" d="M26.634 18.03a.468.468 0 0 1 .39.247l.001-.802c-.054-.21-.287-.283-.476-.313a6.252 6.252 0 0 0-1.42.071 51.87 51.87 0 0 0-2.202.355c-1.45.248-2.898.512-4.355.712v.834c1.967-.27 3.916-.658 5.877-.97a8.177 8.177 0 0 1 2.185-.135Z"/><path fill="url(#ust__f)" d="M18.572 14.93v.848a106.91 106.91 0 0 0 3.012-.488c1.422-.232 2.835-.533 4.273-.653a3.53 3.53 0 0 1 .802.038.429.429 0 0 1 .365.246c-.001-.27.004-.54-.001-.81-.005-.146-.153-.235-.281-.266a4.546 4.546 0 0 0-1.46-.003c-.172-.017-2.087.293-2.293.345-1.082.182-2.164.376-3.248.55l-1.17.193Z"/><path fill="url(#ust__g)" d="M26.832 18.927a2.167 2.167 0 0 0-1.104-.082c-1.024.107-2.038.288-3.051.466-1.366.237-2.732.479-4.105.67v.008c-.002.276.003.553-.004.83a89.404 89.404 0 0 0 1.51-.234c1.696-.265 3.378-.61 5.079-.84a5.45 5.45 0 0 1 1.393-.044.512.512 0 0 1 .474.257c0-.269 0-.537.002-.805a.354.354 0 0 0-.194-.226Z"/><path fill="url(#ust__h)" d="M24.84 23.15a6.512 6.512 0 0 1 1.839-.072.449.449 0 0 1 .345.238c.002.3 0 .6.002.9a.364.364 0 0 0-.276-.28 2.431 2.431 0 0 0-.878-.062c-.625.052-1.245.153-1.864.249-1.176.199-2.35.41-3.527.606a71.78 71.78 0 0 1-5.487.72c-.253.03-.49.054-.738.065-.411.016-.82.07-1.232.076-.796.029-1.591.071-2.387.066v-.835a127.43 127.43 0 0 0 2.328-.063c.526-.044 1.054-.055 1.578-.114 2.166-.174 4.317-.485 6.457-.85 1.28-.213 2.555-.461 3.84-.644Z"/><path fill="url(#ust__i)" d="M27.025 21.663c-.06-.23-.334-.278-.537-.286a4.67 4.67 0 0 0-1.001.012c-.574.06-1.144.156-1.714.243-2.893.505-5.786 1.032-8.714 1.286-.347.048-.697.05-1.045.093-.483.034-.967.055-1.451.08-.645.04-1.292.033-1.938.042l.012.84c.572 0 1.143-.027 1.714-.034.597-.011 1.192-.064 1.789-.095.35-.04.7-.056 1.05-.093.272-.039.549-.038.82-.083a73.036 73.036 0 0 0 4.315-.594c1.4-.227 2.793-.493 4.194-.712a8.824 8.824 0 0 1 2.063-.156c.189.041.44.13.443.362v-.905Z"/><path fill="url(#ust__j)" d="M27.024 19.958a.512.512 0 0 0-.474-.256 5.446 5.446 0 0 0-1.393.044c-1.7.23-3.383.574-5.078.84a70.905 70.905 0 0 1-4.21.57c-.28.02-.558.077-.84.077-.44.067-.885.066-1.326.119-.127.015-.255.002-.382.017-.238.03-.48.01-.717.039a36.2 36.2 0 0 1-1.974.046l-.005.833c.425.003.85 0 1.275-.018.356.008.71-.026 1.064-.038.387-.024.774-.031 1.16-.07.257-.03.517-.03.775-.062.29-.04.585-.043.875-.087a71.15 71.15 0 0 0 4.434-.6c1.325-.213 2.645-.46 3.969-.677.606-.091 1.212-.194 1.826-.226.214-.012.429-.001.64.033.166.036.36.127.382.317v-.901Z"/><path fill="url(#ust__k)" d="M25.45 16.352a6.17 6.17 0 0 1 .916-.03c.1.015.2.023.3.032a.446.446 0 0 1 .358.246c.002.291 0 .583.001.875-.054-.21-.287-.283-.476-.313a6.257 6.257 0 0 0-1.42.071c-.736.103-1.47.22-2.202.355-1.451.248-2.9.512-4.359.712v-.84c1.504-.223 3.004-.482 4.502-.748a42.847 42.847 0 0 1 2.38-.36Z"/><path fill="url(#ust__l)" d="M24.45 18.164a8.176 8.176 0 0 1 2.184-.135.468.468 0 0 1 .39.248c.002.291 0 .583.002.875a.354.354 0 0 0-.195-.225 2.167 2.167 0 0 0-1.103-.082c-1.024.107-2.038.288-3.051.466-1.368.237-2.734.48-4.11.671 0-.282.003-.565 0-.848 1.968-.27 3.92-.658 5.882-.97Z"/><path fill="url(#ust__m)" d="M25.857 14.637a3.53 3.53 0 0 1 .802.038.429.429 0 0 1 .365.246c.002.3 0 .601.001.901a.382.382 0 0 0-.306-.301 2.154 2.154 0 0 0-.718-.058c-.274.032-.552.035-.825.085-.922.12-1.838.286-2.754.446-1.282.227-2.567.438-3.854.633 0-.283.002-.566-.002-.848 1.008-.152 2.015-.31 3.018-.49 1.422-.231 2.836-.532 4.273-.652Z"/><path fill="#6A0000" d="M26.685 24.884a2.204 2.204 0 0 0-.716-.052c-.527.03-1.05.093-1.57.187-.82.111-1.635.264-2.454.391-.148.023-.293.057-.44.083-1.925.312-3.856.592-5.797.783-.114.01-2.352.152-3.03.174-.431.028-.864.028-1.296.043a.932.932 0 0 1-.614-.185.581.581 0 0 0 .457.274c.769.006 1.493.002 2.23 0a72.95 72.95 0 0 0 11.648-.685 8.325 8.325 0 0 0 1.016-.247c.204-.06.399-.148.577-.263a.396.396 0 0 0 .19-.302c-.003-.108-.108-.174-.201-.201Z"/></svg>