<svg fill="none" height="32" viewBox="0 0 32 32" width="32" xmlns="http://www.w3.org/2000/svg"><path d="m16 32c8.8366 0 16-7.1634 16-16 0-8.83656-7.1634-16-16-16-8.83656 0-16 7.16344-16 16 0 8.8366 7.16344 16 16 16z" fill="#fff"/><path d="m22.3353 9.04224v13.37046h-12.82631v-13.37046h12.82631v-4.04224h-7.8513l-8.93951 6.9184v4.4309c-.00441 1.3998.26805 2.7867.80169 4.0807.53364 1.2941 1.31792 2.4699 2.30772 3.4597s2.1656 1.7741 3.4596 2.3077c1.2941.5336 2.6809.8061 4.0807.8017 2.7341-.0457 5.3409-1.1627 7.2599-3.1107 1.9189-1.9481 2.9966-4.5714 3.0012-7.3058v-7.54036z" fill="#6932d4"/></svg>