<svg width="32" height="32" fill="none" xmlns="http://www.w3.org/2000/svg"><g clip-path="url(#a)"><path d="M16 32a16 16 0 1 0 0-32 16 16 0 0 0 0 32Z" fill="#73BB59"/><path d="M24.165 16.89H7.835a.988.988 0 0 0 0 1.976h4.103l2.78 7.342a1.05 1.05 0 0 0 1.949 0l2.78-7.342h4.718a.988.988 0 0 0 0-1.976Zm-8.473 6.312-1.642-4.337h3.284l-1.642 4.337Zm-7.856-8.155h16.33a.988.988 0 0 0 0-1.975H21.64l2.036-5.377a.987.987 0 1 0-1.848-.699l-2.3 6.076h-7.673l-2.3-6.076a.988.988 0 0 0-1.848.7l2.036 5.376H7.836a.987.987 0 1 0 0 1.975Z" fill="#fff"/></g><defs><clipPath id="a"><path fill="#fff" d="M0 0h32v32H0z"/></clipPath></defs></svg>