<svg fill="none" height="32" viewBox="0 0 32 32" width="32" xmlns="http://www.w3.org/2000/svg" xmlns:xlink="http://www.w3.org/1999/xlink"><clipPath id="a"><path d="m0 0h32v32h-32z"/></clipPath><g clip-path="url(#a)"><path d="m16 32c3.1645 0 6.2579-.9384 8.8891-2.6965s4.682-4.2569 5.893-7.1806c1.211-2.9236 1.5278-6.1406.9105-9.2443-.6174-3.10373-2.1413-5.95466-4.3789-8.1923s-5.0886-3.761494-8.1923-4.378857c-3.1037-.617364-6.3207-.3005105-9.24434.910487-2.92361 1.21101-5.42247 3.26177-7.18057 5.89295-1.758106 2.63119-2.69649 5.72462-2.69649 8.88912.00005304 4.2435 1.68578 8.3131 4.68635 11.3137 3.00057 3.0005 7.07025 4.6863 11.31365 4.6863z" fill="#73bb59"/><path d="m24.1649 16.8909h-16.32911c-.26194 0-.51315.1041-.69837.2893s-.28928.4364-.28928.6984c0 .2619.10406.5131.28928.6983s.43643.2893.69837.2893h4.10251l2.78 7.3414c.0783.1943.2129.3607.3865.4779.1736.1171.3783.1798.5877.1798.2095 0 .4141-.0627.5877-.1798.1736-.1172.3082-.2836.3865-.4779l2.78-7.3418h4.7185c.262 0 .5132-.1041.6984-.2893s.2893-.4364.2893-.6983c0-.262-.1041-.5132-.2893-.6984s-.4364-.2893-.6984-.2893zm-8.4728 6.3113-1.6421-4.3367h3.2843l-1.6422 4.3363zm-7.85631-8.1549h16.32941c.262 0 .5133-.1041.6985-.2893.1853-.1853.2894-.4366.2894-.6985 0-.262-.1041-.5133-.2894-.6986-.1852-.1852-.4365-.2893-.6985-.2893h-2.5243l2.0356-5.37632c.0927-.24496.0844-.51673-.0233-.75552-.1076-.23879-.3057-.42504-.5507-.51777s-.5167-.08435-.7555.0233-.4251.30575-.5178.55071l-2.3011 6.0756h-7.6723l-2.30074-6.0756c-.09324-.24426-.27953-.44158-.51803-.5487s-.50975-.1153-.75427-.02274c-.24452.09257-.44236.27831-.55014.51651-.10778.23821-.11671.50943-.02483.7542l2.036 5.37633h-1.908c-.26194 0-.51315.104-.69837.2893-.18522.1852-.28928.4364-.28928.6983 0 .262.10406.5132.28928.6984s.43643.2893.69837.2893z" fill="#fff"/></g></svg>