<svg xmlns="http://www.w3.org/2000/svg" width="32" height="32" fill="none"><defs><linearGradient id="vgx__a" x1="16" x2="16" y1="32" y2="0" gradientUnits="userSpaceOnUse"><stop stop-color="#26216D"/><stop offset=".5" stop-color="#4A43D5"/><stop offset="1" stop-color="#4E48DD"/></linearGradient><linearGradient id="vgx__b" x1="11.314" x2="11.314" y1="30.695" y2="0" gradientUnits="userSpaceOnUse"><stop stop-color="#3831AB"/><stop offset=".5" stop-color="#4E4FDF"/><stop offset="1" stop-color="#5B62FE"/></linearGradient><filter id="vgx__c" width="18.534" height="20.156" x="7.28" y="6.509" color-interpolation-filters="sRGB" filterUnits="userSpaceOnUse"><feFlood flood-opacity="0" result="BackgroundImageFix"/><feColorMatrix in="SourceAlpha" values="0 0 0 0 0 0 0 0 0 0 0 0 0 0 0 0 0 0 127 0"/><feOffset dx=".5" dy=".5"/><feGaussianBlur stdDeviation=".5"/><feColorMatrix values="0 0 0 0 0 0 0 0 0 0 0 0 0 0 0 0 0 0 0.25 0"/><feBlend in2="BackgroundImageFix" result="effect1_dropShadow"/><feBlend in="SourceGraphic" in2="effect1_dropShadow" result="shape"/></filter></defs><path fill="url(#vgx__a)" d="M16 32c8.837 0 16-7.163 16-16S24.837 0 16 0 0 7.163 0 16s7.163 16 16 16Z"/><path fill="url(#vgx__b)" d="M0 15.961v.085c.02 6.569 3.994 12.201 9.665 14.653L22.628 1.431A15.967 15.967 0 0 0 16 0C7.18 0 .026 7.141 0 15.961Z"/><g filter="url(#vgx__c)"><path fill="#FDFDFE" d="M24.247 7.539c-.468 1.053-.943 2.107-1.411 3.167-.917 2.068-1.828 4.13-2.738 6.198l-2.303 5.25c-.364.832-.735 1.658-1.086 2.497-.13.312-.364.507-.676.514-.32.006-.534-.222-.67-.52-.495-1.126-1.002-2.251-1.503-3.376-.56-1.288-1.112-2.576-1.678-3.864l-2.244-5.112c-.566-1.288-1.131-2.576-1.704-3.87-.13-.306-.28-.598-.397-.91-.136-.345-.032-.501.332-.501 1.106-.007 2.212 0 3.317 0 .325 0 .495.143.618.455.364.898.774 1.782 1.17 2.673.866 1.958 1.731 3.916 2.59 5.873a9.6 9.6 0 0 0 .169.364c.123-.273.227-.494.325-.721.69-1.574 1.385-3.142 2.075-4.716.52-1.184 1.04-2.36 1.554-3.545.13-.299.364-.377.657-.377h3.155c.48 0 .61.085.448.52Z"/></g></svg>