<svg xmlns="http://www.w3.org/2000/svg" width="32" height="32" fill="none"><path fill="#00C2CF" d="M16 32c8.837 0 16-7.163 16-16S24.837 0 16 0 0 7.163 0 16s7.163 16 16 16Z"/><path fill="#FEFEFE" d="M27.587 14.548c-3.364-1.944-6.73-3.888-10.095-5.83a1.834 1.834 0 0 0-.766-.285 1.591 1.591 0 0 0-1.788 1.662c-.001 3.53 0 7.06.005 10.591a.52.52 0 0 1-.306.52c-.88.492-1.747 1.006-2.622 1.508-.12.069-.24.206-.398.108-.151-.095-.095-.263-.103-.405-.003-.055 0-.11 0-.165 0-5.328 0-10.655.002-15.983a1.592 1.592 0 1 0-3.185-.013 150525.559 150525.559 0 0 0 0 19.504 1.598 1.598 0 0 0 2.412 1.39L16 24.101c3.857-2.229 7.715-4.456 11.574-6.681A1.594 1.594 0 0 0 28.46 16a1.574 1.574 0 0 0-.874-1.453Zm-4.355 1.686-4.685 2.706c-.308.178-.426.11-.427-.255-.003-.907 0-1.814 0-2.72 0-.88.013-1.76-.007-2.639-.009-.383.137-.5.481-.295 1.533.915 3.087 1.795 4.634 2.688.36.208.361.308.004.515Z"/></svg>