<svg fill="none" height="32" viewBox="0 0 32 32" width="32" xmlns="http://www.w3.org/2000/svg"><path d="m15.9995 31.9996c8.8363 0 15.9995-7.1632 15.9995-15.9995 0-8.83626-7.1632-15.99948011-15.9995-15.99948011-8.83628 0-15.9995 7.16322011-15.9995 15.99948011 0 8.8363 7.16322 15.9995 15.9995 15.9995z" fill="#0028ba"/><path d="m16.0007 30 1.5942-.9428c2.0629-1.2172 3.7725-2.9516 4.9598-5.0318 1.1874-2.0801 1.8115-4.4341 1.8106-6.8293 0-.0113-.0028-1.2012-.032-1.6277l-.1046-1.5465-1.6093-1.0639c-1.7496-1.1563-3.6447-2.0756-5.6359-2.7338l-.983-.32502" fill="#d0d7e2"/><path d="m15.9995 9.89888-.9828.32502c-1.9912.6581-3.8864 1.5774-5.63586 2.7338l-1.60964 1.0639-.10452 1.5465c-.02824.4194-.03191 1.6163-.03191 1.6277-.00092 2.3952.62315 4.7492 1.81055 6.8294 1.18738 2.0802 2.89698 3.8145 4.95988 5.0317l1.5943.9428" fill="#fff"/><path d="m15.9991 26.4214v.0405l-2.0709-4.1116.6528-14.45461h2.8383l.6528 14.45461-2.0709 4.1118z" fill="#0028ba"/><path d="m16.006 2.00055c.2656.00021.5244.08391.7399.23928.2154.15537.3766.37453.4607.6265.084.25198.0867.524.0077.7776-.0789.25361-.2357.47596-.448.63562l.4286 3.11682c1.5024.50819 2.9522 1.16015 4.3293 1.94681l-.5106.82002c-1.3452-.75683-2.7604-1.38207-4.2258-1.86696l-.7868-.25977v-.12547-5.911z" fill="#edb726"/><path d="m14.8054 7.3963.4361-3.118c-.2115-.15977-.3676-.38189-.4463-.63506-.0786-.25316-.0759-.52463.0079-.77615s.2443-.47042.4591-.62587c.2147-.15545.4728-.23961.7379-.24063v4.9997 1.03718l-.7868.25977c-1.4654.48488-2.8806 1.11011-4.2258 1.86696l-.5114-.82034c1.3772-.78676 2.827-1.43896 4.3293-1.94756z" fill="#ffc731"/></svg>