<svg fill="none" height="32" viewBox="0 0 32 32" width="32" xmlns="http://www.w3.org/2000/svg" xmlns:xlink="http://www.w3.org/1999/xlink"><radialGradient id="a" cx="4.26636" cy="6.96801" gradientUnits="userSpaceOnUse" r="26.8777"><stop offset="0" stop-color="#ff6e35"/><stop offset=".23897" stop-color="#f34532"/><stop offset=".61258" stop-color="#842c63"/><stop offset=".82255" stop-color="#920573"/><stop offset="1" stop-color="#490a68"/></radialGradient><linearGradient id="b" gradientUnits="userSpaceOnUse" x1="13.0942" x2="22.0842" y1="5.17198" y2="22.1981"><stop offset="0" stop-color="#d04e43"/><stop offset="1" stop-color="#d70a52"/></linearGradient><path d="m15.9995 31.9996c8.8363 0 15.9995-7.1632 15.9995-15.9995 0-8.83625-7.1632-15.9994782-15.9995-15.9994782-8.83628 0-15.9995 7.1632282-15.9995 15.9994782 0 8.8363 7.16322 15.9995 15.9995 15.9995z" fill="#fff"/><path d="m16 1c-2.9667 0-5.8668.87973-8.33355 2.52796-2.46673 1.64822-4.38932 3.9909-5.52464 6.73174-1.13531 2.7409-1.432361 5.7569-.85358 8.6667.57878 2.9097 2.00739 5.5824 4.10517 7.6802 2.09779 2.0978 4.7705 3.5264 7.6803 4.1052 2.9097.5788 5.9257.2817 8.6666-.8536s5.0835-3.0579 6.7318-5.5246c1.6482-2.4668 2.5279-5.3669 2.5279-8.3336 0-3.9782-1.5803-7.79356-4.3934-10.6066-2.813-2.81305-6.6283-4.3934-10.6066-4.3934zm0 28.6871c-2.7071.0001-5.3535-.8026-7.60437-2.3066-2.25091-1.504-4.00529-3.6417-5.04128-6.1427s-1.30707-5.2531-.77895-7.9082c.52813-2.6552 1.83173-5.09403 3.74595-7.00826 1.91423-1.91422 4.35315-3.21782 7.00825-3.74594s5.4072-.25705 7.9082.77894c2.5011 1.03599 4.6387 2.79037 6.1427 5.04128 1.504 2.25088 2.3067 4.89728 2.3066 7.60438-.0041 3.6288-1.4474 7.1078-4.0134 9.6737-2.5659 2.566-6.0449 4.0093-9.6737 4.0134z" fill="url(#a)"/><g fill="url(#b)"><path d="m25.6451 10.5071c.0238.0006.0472.007.068.0186s.0384.0281.0513.0481c.013.02.0209.0428.023.0666.0021.0237-.0016.0476-.0108.0696l-.5066 1.1481c-.0113.0256-.03.0471-.0537.0619-.0236.0148-.0512.0222-.0791.0211h-1.271c-.0273.0016-.0535.011-.0756.027s-.0392.038-.0492.0634l-.2331.5252c-.0051.0113-.0073.0237-.0064.036.0008.0123.0047.0243.0113.0347.0065.0104.0156.019.0264.025.0107.006.0228.0093.0351.0094h1.1222c.0236.0012.0467.008.0672.0198s.0379.0283.0508.0482c.0129.0198.0209.0425.0234.066.0024.0236-.0008.0474-.0093.0695l-.5073 1.1562c-.0124.0247-.0314.0454-.0548.0601-.0234.0146-.0504.0225-.078.0229h-1.2703c-.0278-.0013-.0554.0059-.0791.0205-.0237.0147-.0424.0363-.0536.0618l-3.9164 8.8994c-.0079.0227-.0229.0423-.0427.0559s-.0435.0205-.0675.0198h-1.7717l-3.6893-.0068c-.0279.0009-.0553-.0066-.0789-.0215s-.0421-.0366-.0532-.0621l-3.3514-7.6147c-.01064-.0215-.01566-.0453-.01458-.0692.00107-.0239.0082-.0472.02071-.0676.01245-.0203.0299-.0371.0507-.0488.02079-.0116.04422-.0178.06806-.0178h5.32811c.0268 0 .0529.0079.0752.0226.0223.0148.0398.0358.0503.0604l.6315 1.4346 3.4762-7.90931c.0126-.0244.0316-.0449.055-.05927s.0503-.02206.0777-.02225h5.3209c.0236.00013.0469.00628.0675.01788.0206.01159.0379.02824.0503.04838.0125.02022.0197.04328.0209.06702.0013.02375-.0035.04742-.0139.06882l-.6242 1.41923c-.0054.0112-.0078.0236-.0072.0361.0007.0124.0045.0245.0111.0351.0065.0105.0156.0193.0264.0253.0109.0061.0231.0092.0355.0093h1.1241zm-8.953 1.3538c-.0107.0252-.0286.0468-.0515.0619s-.0498.0231-.0773.0231h-9.65685c-.02741-.0001-.0542-.0082-.07707-.0233-.02288-.0151-.04085-.0366-.05172-.0617l-.5047-1.1537c-.00956-.0218-.01361-.0456-.01179-.0693s.00945-.0466.02223-.0667c.01269-.02.03016-.0365.05084-.0481.02068-.0115.04391-.0177.06759-.018h1.12344c.01196-.0002.02368-.0033.03412-.0092.01043-.0058.01925-.0141.02564-.0242.0064-.0101.01018-.0217.01099-.0336.00082-.0119-.00135-.0239-.00632-.0348l-.62612-1.42036c-.00971-.02181-.01388-.04569-.01214-.0695.00175-.02381.00935-.04683.02214-.06699.01271-.02009.03023-.03668.05099-.04826.02075-.01158.04407-.0178.06783-.01807h5.3208c.0273.00012.054.00814.0769.02311.0229.01496.0409.03623.0519.06122l.6846 1.55565c.0109.025.0288.0464.0516.0615.0227.015.0493.0232.0766.0235h3.7185c.0237.0006.047.007.0676.0187.0207.0117.0381.0283.0507.0484s.0201.0431.0217.0667c.0016.0237-.0027.0474-.0125.069l-.5087 1.1529zm-.9428 2.156c-.0108.0253-.0287.0468-.0516.0621-.0229.0152-.0498.0234-.0773.0235h-7.76638c-.02729-.0003-.05389-.0086-.07654-.0238s-.04036-.0368-.05096-.0619l-.50462-1.1475c-.00988-.0218-.0142-.0456-.01257-.0694.00163-.0239.00915-.0469.02189-.0671.01266-.0201.03018-.0368.05094-.0483.02077-.0116.04411-.0178.06788-.018h8.77436c.0238.0004.0472.0066.068.0183.0208.0116.0384.0282.0512.0483.0127.0201.0203.0431.022.0669s-.0026.0476-.0124.0693l-.5046 1.1475h.0006z"/><path d="m25.6451 10.5071c.0238.0006.0472.007.068.0186s.0384.0281.0513.0481c.013.02.0209.0428.023.0666.0021.0237-.0016.0476-.0108.0696l-.5066 1.1481c-.0113.0256-.03.0471-.0537.0619-.0236.0148-.0512.0222-.0791.0211h-1.271c-.0273.0016-.0535.011-.0756.027s-.0392.038-.0492.0634l-.2331.5252c-.0051.0113-.0073.0237-.0064.036.0008.0123.0047.0243.0113.0347.0065.0104.0156.019.0264.025.0107.006.0228.0093.0351.0094h1.1222c.0236.0012.0467.008.0672.0198s.0379.0283.0508.0482c.0129.0198.0209.0425.0234.066.0024.0236-.0008.0474-.0093.0695l-.5073 1.1562c-.0124.0247-.0314.0454-.0548.0601-.0234.0146-.0504.0225-.078.0229h-1.2703c-.0278-.0013-.0554.0059-.0791.0205-.0237.0147-.0424.0363-.0536.0618l-3.9164 8.8994c-.0079.0227-.0229.0423-.0427.0559s-.0435.0205-.0675.0198h-1.7717l-3.6893-.0068c-.0279.0009-.0553-.0066-.0789-.0215s-.0421-.0366-.0532-.0621l-3.3514-7.6147c-.01064-.0215-.01566-.0453-.01458-.0692.00107-.0239.0082-.0472.02071-.0676.01245-.0203.0299-.0371.0507-.0488.02079-.0116.04422-.0178.06806-.0178h5.32811c.0268 0 .0529.0079.0752.0226.0223.0148.0398.0358.0503.0604l.6315 1.4346 3.4762-7.90931c.0126-.0244.0316-.0449.055-.05927s.0503-.02206.0777-.02225h5.3209c.0236.00013.0469.00628.0675.01788.0206.01159.0379.02824.0503.04838.0125.02022.0197.04328.0209.06702.0013.02375-.0035.04742-.0139.06882l-.6242 1.41923c-.0054.0112-.0078.0236-.0072.0361.0007.0124.0045.0245.0111.0351.0065.0105.0156.0193.0264.0253.0109.0061.0231.0092.0355.0093h1.1241zm-8.953 1.3538c-.0107.0252-.0286.0468-.0515.0619s-.0498.0231-.0773.0231h-9.65685c-.02741-.0001-.0542-.0082-.07707-.0233-.02288-.0151-.04085-.0366-.05172-.0617l-.5047-1.1537c-.00956-.0218-.01361-.0456-.01179-.0693s.00945-.0466.02223-.0667c.01269-.02.03016-.0365.05084-.0481.02068-.0115.04391-.0177.06759-.018h1.12344c.01196-.0002.02368-.0033.03412-.0092.01043-.0058.01925-.0141.02564-.0242.0064-.0101.01018-.0217.01099-.0336.00082-.0119-.00135-.0239-.00632-.0348l-.62612-1.42036c-.00971-.02181-.01388-.04569-.01214-.0695.00175-.02381.00935-.04683.02214-.06699.01271-.02009.03023-.03668.05099-.04826.02075-.01158.04407-.0178.06783-.01807h5.3208c.0273.00012.054.00814.0769.02311.0229.01496.0409.03623.0519.06122l.6846 1.55565c.0109.025.0288.0464.0516.0615.0227.015.0493.0232.0766.0235h3.7185c.0237.0006.047.007.0676.0187.0207.0117.0381.0283.0507.0484s.0201.0431.0217.0667c.0016.0237-.0027.0474-.0125.069l-.5087 1.1529zm-.9428 2.156c-.0108.0253-.0287.0468-.0516.0621-.0229.0152-.0498.0234-.0773.0235h-7.76638c-.02729-.0003-.05389-.0086-.07654-.0238s-.04036-.0368-.05096-.0619l-.50462-1.1475c-.00988-.0218-.0142-.0456-.01257-.0694.00163-.0239.00915-.0469.02189-.0671.01266-.0201.03018-.0368.05094-.0483.02077-.0116.04411-.0178.06788-.018h8.77436c.0238.0004.0472.0066.068.0183.0208.0116.0384.0282.0512.0483.0127.0201.0203.0431.022.0669s-.0026.0476-.0124.0693l-.5046 1.1475h.0006z"/></g></svg>