<svg xmlns="http://www.w3.org/2000/svg" width="32" height="32" fill="none"><defs><linearGradient id="vrab__b" x1="13.094" x2="22.084" y1="5.172" y2="22.198" gradientUnits="userSpaceOnUse"><stop stop-color="#D04E43"/><stop offset="1" stop-color="#D70A52"/></linearGradient><linearGradient id="vrab__c" x1="13.094" x2="22.084" y1="5.172" y2="22.198" gradientUnits="userSpaceOnUse"><stop stop-color="#D04E43"/><stop offset="1" stop-color="#D70A52"/></linearGradient><radialGradient id="vrab__a" cx="0" cy="0" r="1" gradientTransform="translate(4.266 6.968) scale(26.8777)" gradientUnits="userSpaceOnUse"><stop stop-color="#FF6E35"/><stop offset=".239" stop-color="#F34532"/><stop offset=".613" stop-color="#842C63"/><stop offset=".823" stop-color="#920573"/><stop offset="1" stop-color="#490A68"/></radialGradient></defs><path fill="#fff" d="M16 32c8.836 0 15.999-7.164 15.999-16s-7.163-16-16-16C7.163 0 0 7.165 0 16s7.163 16 16 16Z"/><path fill="url(#vrab__a)" d="M16 1a15 15 0 1 0 0 30 15 15 0 0 0 0-30Zm0 28.687A13.687 13.687 0 1 1 29.687 16 13.702 13.702 0 0 1 16 29.687Z"/><path fill="url(#vrab__b)" d="M25.645 10.507a.147.147 0 0 1 .142.133.147.147 0 0 1-.01.07l-.507 1.148a.14.14 0 0 1-.133.083h-1.27a.143.143 0 0 0-.126.09l-.233.526a.074.074 0 0 0 .067.105h1.122a.15.15 0 0 1 .132.203l-.507 1.156a.151.151 0 0 1-.133.083h-1.27a.139.139 0 0 0-.133.083l-3.917 8.9a.113.113 0 0 1-.11.075h-1.771l-3.69-.007a.14.14 0 0 1-.132-.084l-3.351-7.614a.142.142 0 0 1 .057-.186.14.14 0 0 1 .068-.018h5.328a.137.137 0 0 1 .125.083l.632 1.435 3.476-7.91a.15.15 0 0 1 .133-.08h5.32a.14.14 0 0 1 .14.132.14.14 0 0 1-.015.07l-.624 1.418a.075.075 0 0 0 .004.072.073.073 0 0 0 .062.034h1.124Zm-8.953 1.354a.14.14 0 0 1-.129.085H6.906a.14.14 0 0 1-.128-.085l-.505-1.154a.145.145 0 0 1 .061-.184.143.143 0 0 1 .068-.018h1.123a.072.072 0 0 0 .071-.067.072.072 0 0 0-.006-.035l-.626-1.42a.145.145 0 0 1 .06-.185.143.143 0 0 1 .068-.018h5.321a.142.142 0 0 1 .129.084l.685 1.556a.142.142 0 0 0 .128.085h3.718a.144.144 0 0 1 .14.134.144.144 0 0 1-.012.069l-.509 1.153Zm-.943 2.156a.141.141 0 0 1-.129.085H7.854a.14.14 0 0 1-.127-.085l-.505-1.148a.144.144 0 0 1 .06-.184.142.142 0 0 1 .068-.019h8.774a.144.144 0 0 1 .13.203l-.505 1.148Z"/><path fill="url(#vrab__c)" d="M25.645 10.507a.147.147 0 0 1 .142.133.147.147 0 0 1-.01.07l-.507 1.148a.14.14 0 0 1-.133.083h-1.27a.143.143 0 0 0-.126.09l-.233.526a.074.074 0 0 0 .067.105h1.122a.15.15 0 0 1 .132.203l-.507 1.156a.151.151 0 0 1-.133.083h-1.27a.139.139 0 0 0-.133.083l-3.917 8.9a.113.113 0 0 1-.11.075h-1.771l-3.69-.007a.14.14 0 0 1-.132-.084l-3.351-7.614a.142.142 0 0 1 .057-.186.14.14 0 0 1 .068-.018h5.328a.137.137 0 0 1 .125.083l.632 1.435 3.476-7.91a.15.15 0 0 1 .133-.08h5.32a.14.14 0 0 1 .14.132.14.14 0 0 1-.015.07l-.624 1.418a.075.075 0 0 0 .004.072.073.073 0 0 0 .062.034h1.124Zm-8.953 1.354a.14.14 0 0 1-.129.085H6.906a.14.14 0 0 1-.128-.085l-.505-1.154a.145.145 0 0 1 .061-.184.143.143 0 0 1 .068-.018h1.123a.072.072 0 0 0 .071-.067.072.072 0 0 0-.006-.035l-.626-1.42a.145.145 0 0 1 .06-.185.143.143 0 0 1 .068-.018h5.321a.142.142 0 0 1 .129.084l.685 1.556a.142.142 0 0 0 .128.085h3.718a.144.144 0 0 1 .14.134.144.144 0 0 1-.012.069l-.509 1.153Zm-.943 2.156a.141.141 0 0 1-.129.085H7.854a.14.14 0 0 1-.127-.085l-.505-1.148a.144.144 0 0 1 .06-.184.142.142 0 0 1 .068-.019h8.774a.144.144 0 0 1 .13.203l-.505 1.148Z"/></svg>