<svg xmlns="http://www.w3.org/2000/svg" width="32" height="32" fill="none"><defs><clipPath id="wabi__a"><path fill="#fff" d="M0 0h32v32H0z"/></clipPath></defs><g clip-path="url(#wabi__a)"><path fill="#FF5847" d="M30.782 22.123c3.382-8.164-.495-17.523-8.659-20.905C13.96-2.164 4.6 1.713 1.218 9.878c-3.381 8.163.495 17.523 8.66 20.904 8.163 3.382 17.523-.495 20.904-8.66Z"/><path fill="#fff" d="M25.073 23.706c4.256-5.011 3.643-12.523-1.367-16.779-5.011-4.256-12.524-3.644-16.78 1.367-4.255 5.011-3.643 12.523 1.368 16.779s12.523 3.644 16.779-1.367Z"/><path fill="#FF5847" d="M16 24.494a2.043 2.043 0 0 1-1.445-.602l-6.446-6.446a2.05 2.05 0 0 1 0-2.892l6.446-6.445a2.05 2.05 0 0 1 2.891 0l6.446 6.445a2.05 2.05 0 0 1 0 2.892l-6.446 6.446a2.02 2.02 0 0 1-1.445.602ZM12.46 16 16 19.542 19.543 16 16 12.458 12.458 16Z"/></g></svg>