<svg fill="none" height="32" viewBox="0 0 32 32" width="32" xmlns="http://www.w3.org/2000/svg"><path d="m16 32c8.8366 0 16-7.1634 16-16 0-8.83656-7.1634-16-16-16-8.83656 0-16 7.16344-16 16 0 8.8366 7.16344 16 16 16z" fill="#fff"/><path d="m8.21384 11.1539 7.78626-4.49536 7.7861 4.49536 2.9069-1.18191-10.693-6.17368-10.69297 6.17368z" fill="#3fbced"/><path d="m23.786 11.905v7.738l-7.786-4.572-7.796 4.578v-7.747l-3.204-1.303v14.481l11-6.459 11 6.459v-14.481z" fill="#1269ab"/><path d="m21.9439 22.9097-5.9441 3.4318-5.9441-3.4318-2.45609 1.4421 8.40019 4.8499 8.4002-4.8499z" fill="#3fbced"/></svg>