<svg xmlns="http://www.w3.org/2000/svg" width="32" height="32" fill="none"><defs><radialGradient id="waxp__a" cx="0" cy="0" r="1" gradientTransform="matrix(9.54445 0 0 9.57124 16.031 15.748)" gradientUnits="userSpaceOnUse"><stop stop-color="#FDD444"/><stop offset="1" stop-color="#FDC217"/></radialGradient></defs><path fill="#FFC536" d="M25.676 28.012a7.015 7.015 0 0 1-7.49 2.083 4.333 4.333 0 0 0-3.144.405c-.281.067-.444.08-.746 0-1.193-.241-1.967-1.51-3.258-1.39a6.158 6.158 0 0 1-4.73-1.435 4.238 4.238 0 0 1-1.693-3.116 4.33 4.33 0 0 0-1.654-2.034c-.943-.88-2.05-1.945-1.956-3.353a12.243 12.243 0 0 1 .727-4.71c.256-1.017-.188-2.06-.023-3.092a5.084 5.084 0 0 1 1.443-3.402c.783-.918 2.122-1.2 2.7-2.322.706-.904.823-2.246 1.913-2.823.698-.52 1.617-.173 2.35-.595A16.504 16.504 0 0 1 15.385.5h.242c1.341.1 2.175 1.368 3.485 1.553 1.45.373 2.994-.433 4.387.286.815.348 1.047 1.287 1.676 1.84.975.912 2.375 1.458 2.862 2.801a5.84 5.84 0 0 0 .726 2.444c.657 1.1 1.826 1.897 2.1 3.215.728 2.358-1.747 4.471-.61 6.8a5.473 5.473 0 0 1-.476 3.955c-.527.968-1.856.786-2.56 1.573a13.776 13.776 0 0 1-1.541 3.045Z"/><path fill="#F9C742" d="M16.03 25.882c5.659 0 10.246-4.6 10.246-10.275 0-5.675-4.587-10.275-10.246-10.275-5.659 0-10.246 4.6-10.246 10.275 0 5.675 4.587 10.275 10.246 10.275Z"/><path fill="#AA7202" d="M16.031 25.713c5.489 0 9.938-4.462 9.938-9.965 0-5.504-4.45-9.966-9.938-9.966s-9.937 4.462-9.937 9.966c0 5.503 4.449 9.965 9.937 9.965Z"/><path fill="url(#waxp__a)" d="M16.031 25.319c5.271 0 9.545-4.285 9.545-9.571 0-5.287-4.274-9.572-9.545-9.572s-9.544 4.285-9.544 9.572c0 5.286 4.273 9.571 9.544 9.571Z"/><path fill="#916102" d="M15.85 4.349a11.348 11.348 0 0 1 8.135 3.054 11.417 11.417 0 1 1-18.657 11.77A11.417 11.417 0 0 1 15.849 4.35Zm-.289.345a10.896 10.896 0 0 0-7.675 3.744 11.068 11.068 0 1 0 19.273 8.749A11.197 11.197 0 0 0 24.6 8.57a11.062 11.062 0 0 0-9.04-3.877Z"/><path fill="#FDBE0F" d="M15.561 4.694a11.063 11.063 0 0 1 9.04 3.877 11.076 11.076 0 0 1-2.683 16.66A11.08 11.08 0 0 1 7.886 8.437a10.897 10.897 0 0 1 7.675-3.744Zm.413.941a10.392 10.392 0 0 0-7.955 4.078 10.246 10.246 0 0 0 .464 12.718 10.383 10.383 0 0 0 5.874 3.287 10.068 10.068 0 0 0 11.414-12.51 10.179 10.179 0 0 0-9.797-7.573Z"/><path fill="#9F6E01" fill-rule="evenodd" d="m20.451 19.924-2.706-7.436h-3.073l-1.854 5.096-1.855-5.096H8.458l2.707 7.436h3.306l1.738-4.774 1.737 4.774h2.505Zm1.094-.829 2.405-6.607h-2.505l-1.153 3.166 1.253 3.441Z" clip-rule="evenodd"/></svg>