<svg fill="none" height="32" viewBox="0 0 32 32" width="32" xmlns="http://www.w3.org/2000/svg" xmlns:xlink="http://www.w3.org/1999/xlink"><radialGradient id="a" cx="0" cy="0" gradientTransform="matrix(9.54445 0 0 9.57124 16.0313 15.7476)" gradientUnits="userSpaceOnUse" r="1"><stop offset="0" stop-color="#fdd444"/><stop offset="1" stop-color="#fdc217"/></radialGradient><path d="m25.6756 28.0116c-.9038 1.047-2.097 1.8035-3.4296 2.1743-1.3325.3707-2.745.3393-4.0597-.0905-1.0616-.2672-2.1849-.1226-3.1443.4046-.2812.0675-.4437.0806-.7458 0-1.1932-.241-1.9673-1.5098-3.2579-1.3902-.8446.1005-1.70095.0248-2.51493-.2221-.81397-.2469-1.56798-.6598-2.21448-1.2126-.49067-.3661-.89619-.8342-1.18864-1.372-.29244-.5379-.46487-1.1327-.50542-1.7436-.32794-.8327-.90588-1.5433-1.65429-2.0341-.943-.8809-2.04912-1.945-1.95517-3.3537-.068668-1.6022.1781-3.2022.72627-4.7093.25593-1.0173-.1879-2.0595-.02248-3.0925.03743-1.2748.5526-2.48894 1.44333-3.40169.78276-.91792 2.12117-1.2 2.70046-2.322.705-.904.82253-2.24624 1.91194-2.82312.698-.52081 1.61682-.17283 2.35001-.59537 1.6467-.86907 3.4285-1.453226 5.2701-1.72772h.2421c1.3413.09942 2.1748 1.36821 3.485 1.55318 1.4502.37283 2.9938-.43353 4.387.28613.815.3474 1.0473 1.2867 1.6762 1.84046.9747.911 2.3748 1.45722 2.8618 2.80058.0585.85813.3065 1.69262.7263 2.44335.6565 1.1 1.8261 1.8977 2.0999 3.215.728 2.3584-1.7471 4.4717-.611 6.8011.3438 1.3309.1742 2.7423-.475 3.9538-.5269.9682-1.856.7867-2.5604 1.5734-.3856 1.0748-.9033 2.0975-1.5413 3.0446z" fill="#ffc536"/><path d="m16.0302 25.8821c5.6588 0 10.2461-4.6003 10.2461-10.275 0-5.67475-4.5873-10.27502-10.2461-10.27502-5.6587 0-10.24602 4.60027-10.24602 10.27502 0 5.6747 4.58732 10.275 10.24602 10.275z" fill="#f9c742"/><path d="m16.0312 25.7131c5.4883 0 9.9374-4.4617 9.9374-9.9655 0-5.5037-4.4491-9.96545-9.9374-9.96545s-9.93745 4.46175-9.93745 9.96545c0 5.5038 4.44915 9.9655 9.93745 9.9655z" fill="#aa7202"/><path d="m16.0312 25.319c5.2713 0 9.5445-4.2852 9.5445-9.5713 0-5.2862-4.2732-9.57142-9.5445-9.57142-5.2712 0-9.54438 4.28522-9.54438 9.57142 0 5.2861 4.27318 9.5713 9.54438 9.5713z" fill="url(#a)"/><path d="m15.8492 4.34855c1.4903-.05037 2.9759.19346 4.3719.71754s2.6751 1.31814 3.7641 2.3368c1.285 1.18915 2.2794 2.65791 2.9061 4.29271.6268 1.6348.8692 3.3919.7085 5.1353s-.7203 3.4266-1.6353 4.9192c-.9151 1.4927-2.1612 2.755-3.6419 3.6892-1.4808.9342-3.1566 1.5153-4.8978 1.6984-1.7413.1832-3.5013-.0366-5.144-.6423-1.6428-.6056-3.1242-1.581-4.3298-2.8506-1.20559-1.2697-2.10305-2.7995-2.62298-4.4714-.52628-1.6795-.65714-3.458-.38234-5.1964.27479-1.7385.9478-3.3899 1.96644-4.82521 1.01864-1.43532 2.35533-2.61569 3.90568-3.44892 1.5503-.83322 3.2723-1.29673 5.0314-1.35432zm-.2882.34567c-1.4655.07514-2.9007.44549-4.2195 1.08884-1.3188.64334-2.49411 1.54643-3.45539 2.65509-1.14561 1.29741-1.97097 2.84545-2.4098 4.51965-.43883 1.6743-.47888 3.4281-.11695 5.1206.36193 1.6926 1.11576 3.2766 2.20095 4.625 1.08518 1.3484 2.47149 2.4234 4.04749 3.1388 1.576.7155 3.2979 1.0513 5.0272.9805 1.7294-.0707 3.4181-.546 4.9304-1.3878 1.5123-.8417 2.8062-2.0264 3.7776-3.4589s1.5934-3.0728 1.8158-4.7893c.192-1.5349.0639-3.093-.3763-4.576-.4401-1.4829-1.1828-2.85857-2.1812-4.04018-1.1058-1.29957-2.4973-2.3257-4.0657-2.99816-1.5683-.67246-3.2709-.973-4.9747-.87814z" fill="#916102"/><path d="m15.561 4.69426c1.7037-.09486 3.4063.20569 4.9746.87814 1.5683.67246 2.9598 1.69859 4.0657 2.99815 1.0417 1.22095 1.8055 2.65365 2.2388 4.19905.4332 1.5453.5254 3.1664.2702 4.7509s-.8517 3.0946-1.7482 4.4258-2.0716 2.4516-3.4439 3.2838c-2.2638 1.3529-4.9359 1.8539-7.5359 1.413-2.6001-.441-4.95759-1.795-6.64864-3.8187-1.69105-2.0236-2.60474-4.5842-2.57679-7.2212.02795-2.6371.9957-5.1777 2.72927-7.16502.96127-1.10865 2.13656-2.01174 3.45536-2.65508 1.3188-.64335 2.754-1.01369 4.2195-1.08884zm.4127.941c-1.5457.04498-3.0619.43436-4.438 1.13975-1.3762.70538-2.5775 1.709-3.51646 2.93765-1.36784 1.86174-2.06635 4.13114-1.98217 6.43974.08418 2.3087.94612 4.5212 2.44592 6.2784 1.53871 1.7176 3.60551 2.874 5.87431 3.2869 1.6615.2815 3.3672.1414 4.9605-.4074 1.5934-.5487 3.0235-1.4886 4.1594-2.7335s1.9411-2.755 2.3419-4.3919.3844-3.3481-.0478-4.977c-.5731-2.1639-1.8436-4.07862-3.6148-5.44759-1.7712-1.36896-3.9443-2.11587-6.1828-2.12509z" fill="#fdbe0f"/><g clip-rule="evenodd" fill="#9f6e01" fill-rule="evenodd"><path d="m20.451 19.924-2.706-7.436h-3.073l-1.854 5.096-1.855-5.096h-2.50499l2.70699 7.436h3.306l1.738-4.774 1.737 4.774z"/><path d="m21.545 19.095 2.405-6.607h-2.505l-1.153 3.166z"/></g></svg>