<svg fill="none" height="32" viewBox="0 0 32 32" width="32" xmlns="http://www.w3.org/2000/svg"><path d="m16 32c8.8366 0 16-7.1634 16-16 0-8.83656-7.1634-16-16-16-8.83656 0-16 7.16344-16 16 0 8.8366 7.16344 16 16 16z" fill="#f0b90b"/><g fill="#fff"><path d="m16.1512 6-5.3118 3.06342 1.953 1.13168 3.3588-1.93168 3.359 1.93168 1.9528-1.13168z"/><path d="m19.5102 11.7952 1.9528 1.1316v2.2634l-3.3588 1.9318v3.8634l-1.953 1.1316-1.9528-1.1316v-3.8634l-3.359-1.9318v-2.2634l1.953-1.1316 3.3588 1.9316z"/><path d="m21.4631 16.7902v2.2634l-1.9528 1.1318v-2.2634z"/><path d="m19.4906 21.7854 3.359-1.9318v-3.8634l1.9528-1.1316v6.1268l-5.3118 3.0634z"/><path d="m22.8496 12.1268-1.9527-1.1317 1.9527-1.1317 1.9528 1.1317v2.2635l-1.9528 1.1316z"/><path d="m14.1984 24.8681v-2.2634l1.9528 1.1318 1.953-1.1318v2.2634l-1.953 1.1318z"/><path d="m12.7924 20.1854-1.953-1.1318v-2.2634l1.953 1.1318z"/><path d="m16.1512 12.1268-1.9528-1.1317 1.9528-1.1317 1.953 1.1317z"/><path d="m11.4058 10.9951-1.9528 1.1317v2.2634l-1.953-1.1316v-2.2635l1.953-1.1317z"/><path d="m7.5 14.8586 1.953 1.1316v3.8634l3.3588 1.9318v2.2634l-5.3118-3.0634z"/></g></svg>