<svg xmlns="http://www.w3.org/2000/svg" width="32" height="32" fill="none"><path fill="#F0B90B" d="M16 32c8.837 0 16-7.163 16-16S24.837 0 16 0 0 7.163 0 16s7.163 16 16 16Z"/><path fill="#fff" d="M16.151 6 10.84 9.063l1.953 1.132 3.36-1.932 3.358 1.932 1.953-1.132L16.151 6Zm3.359 5.795 1.953 1.132v2.263l-3.359 1.932v3.863l-1.953 1.132-1.953-1.132v-3.863L10.84 15.19v-2.263l1.953-1.132 3.36 1.932 3.358-1.932Z"/><path fill="#fff" d="M21.463 16.79v2.264l-1.953 1.131v-2.263l1.953-1.132Z"/><path fill="#fff" d="m19.49 21.785 3.36-1.931V15.99l1.952-1.131v6.126l-5.311 3.064v-2.264Zm3.36-9.658-1.953-1.132 1.953-1.132 1.952 1.132v2.264L22.85 14.39v-2.263Zm-8.652 12.741v-2.263l1.953 1.131 1.953-1.131v2.263L16.151 26l-1.953-1.132Zm-1.406-4.683-1.953-1.131V16.79l1.953 1.132v2.263Zm3.359-8.058-1.953-1.132 1.953-1.132 1.953 1.132-1.953 1.132Zm-4.745-1.132-1.953 1.132v2.263L7.5 13.26v-2.264l1.953-1.132 1.953 1.132Z"/><path fill="#fff" d="m7.5 14.859 1.953 1.131v3.864l3.359 1.931v2.264L7.5 20.985V14.86Z"/></svg>