<svg width="32" height="32" fill="none" xmlns="http://www.w3.org/2000/svg"><path d="M16 32c8.837 0 16-7.163 16-16S24.837 0 16 0 0 7.163 0 16s7.163 16 16 16Z" fill="#F0B90B"/><path d="M16.151 6 10.84 9.063l1.953 1.132 3.36-1.932 3.358 1.932 1.953-1.132L16.151 6ZM19.51 11.795l1.953 1.132v2.263l-3.359 1.932v3.863l-1.953 1.132-1.953-1.132v-3.863L10.84 15.19v-2.263l1.953-1.132 3.36 1.932 3.358-1.932Z" fill="#fff"/><path d="M21.463 16.79v2.264l-1.953 1.131v-2.263l1.953-1.132Z" fill="#fff"/><path d="m19.49 21.785 3.36-1.931V15.99l1.952-1.131v6.126l-5.311 3.064v-2.264ZM22.85 12.127l-1.953-1.132 1.953-1.132 1.952 1.132v2.264L22.85 14.39v-2.263ZM14.198 24.868v-2.263l1.953 1.131 1.953-1.131v2.263L16.151 26l-1.953-1.132ZM12.792 20.185l-1.953-1.131V16.79l1.953 1.132v2.263ZM16.151 12.127l-1.953-1.132 1.953-1.132 1.953 1.132-1.953 1.132ZM11.406 10.995l-1.953 1.132v2.263L7.5 13.26v-2.264l1.953-1.132 1.953 1.132Z" fill="#fff"/><path d="m7.5 14.859 1.953 1.131v3.864l3.359 1.931v2.264L7.5 20.985V14.86Z" fill="#fff"/></svg>