<svg fill="none" height="32" viewBox="0 0 32 32" width="32" xmlns="http://www.w3.org/2000/svg"><path d="m16 32c8.8366 0 16-7.1634 16-16 0-8.83656-7.1634-16-16-16-8.83656 0-16 7.16344-16 16 0 8.8366 7.16344 16 16 16z" fill="#fff"/><path d="m18.6782 27.6036c6.0752 0 11-4.9249 11-11 0-6.0752-4.9248-11.00002-11-11.00002-6.0751 0-10.99998 4.92482-10.99998 11.00002 0 6.0751 4.92488 11 10.99998 11z" fill="#fff"/><g fill="#000"><path d="m23.5721 6.17572c-.3999-.19951-.8124-.37251-1.2349-.51788-1.8632-1.72031-4.3101-2.66897-6.846-2.65418-2.9916.00338-5.85962 1.19326-7.97499 3.30861-2.11536 2.11534-3.30528 4.98343-3.30869 7.97493 0 4.5074 1.95606 7.6547 4.77906 9.4598-3.49256.4099-4.36115 1.2576-4.36115 2.2418 0 1.3849 2.50751 2.5075 10.02997 2.5075 4.6182 0 8.4994-.7809 9.6637-1.843 1.848-1.035 3.3748-2.5597 4.4123-4.4064 1.0376-1.8467 1.5457-3.9437 1.4685-6.0605s-.7368-4.1712-1.9061-5.9374c-1.1693-1.76616-2.8031-3.1756-4.7217-4.07326zm-4.8943 21.01628c-2.0942 0-4.1413-.621-5.8826-1.7845-1.7412-1.1635-3.09839-2.8172-3.8998-4.752-.8014-1.9347-1.01108-4.0637-.60252-6.1177.40856-2.0539 1.41702-3.9406 2.89782-5.42142s3.3675-2.48926 5.4215-2.89781c2.0539-.40856 4.1829-.19886 6.1177.60255 1.9348.80142 3.5885 2.15857 4.7519 3.89988 1.1635 1.7412 1.7845 3.7884 1.7845 5.8826-.0032 2.8072-1.1198 5.4986-3.1048 7.4836-1.9851 1.9851-4.6764 3.1016-7.4837 3.1048z"/><path d="m15.9459 13.3437-.6881 5.9471h-1.8279c-.1772-.9141-.4355-1.9532-.571-3.1188-.0613.4995-.3033 1.5394-.5294 3.1188h-1.8214l-.69218-5.9471h1.29998l.5234 4.0812c.0572-1.0382.4031-2.3981.6308-4.0812h1.2008c.022.1739.5412 4.224.5412 4.224.0882-1.439.4317-2.847.6317-4.224z"/><path d="m16.3711 13.3437h2.5785v1.1901h-1.0325v1.128h.9664v1.1313h-.9664v1.3076h1.1353v1.1901h-2.6813z"/><path d="m22.6336 13.3437v1.1901h-.9183v4.757h-1.5467v-4.757h-.9142v-1.1901z"/><path d="m26.6615 13.3437v5.9471h-1.3502v-2.4976h-.8563v2.4976h-1.349v-5.9471h1.3427v2.1272h.8625v-2.1272z"/></g><path d="m15.4916 3.83948c1.7163-.0068 3.4003.46634 4.862 1.366-.5032-.07133-1.0105-.10882-1.5187-.11223-2.7787.00157-5.466.99251-7.5805 2.79528-2.11448 1.80277-3.51794 4.29957-3.95891 7.04307l-2.20076-1.6507c.25282-2.5831 1.45695-4.98001 3.3784-6.72489 1.92147-1.74488 4.42297-2.71311 7.01847-2.71653z" fill="#c61765"/><path d="m5.0435 14.2873v-.0002l2.13532 1.6015c-.02306.3-.04576.6003-.04576.9062.00076.7135.07069 1.4252.20881 2.1253l-2.0409-2.0409c-.17335-.853-.25961-1.7214-.25747-2.5919z" fill="#c61765"/><path d="m5.79736 18.5576 2.00252 2.0025c.27112.7301.6243 1.427 1.05275 2.0774-1.38563-1.0418-2.44549-2.4571-3.05527-4.0799z" fill="#c61765"/></svg>