<svg fill="none" height="32" viewBox="0 0 32 32" width="32" xmlns="http://www.w3.org/2000/svg" xmlns:xlink="http://www.w3.org/1999/xlink"><linearGradient id="a" gradientUnits="userSpaceOnUse" x1="16" x2="16" y1="0" y2="32"><stop offset="0" stop-color="#fcb508"/><stop offset="1" stop-color="#fbd42a"/></linearGradient><clipPath id="b"><path d="m4 8h24v15.6742h-24z"/></clipPath><circle cx="16" cy="16" fill="#c4c4c4" r="16"/><circle cx="16" cy="16" fill="url(#a)" r="16"/><g clip-path="url(#b)" fill="#060e22"><path d="m22.6307 8v.00006c-.062.00013-.1229.01659-.1766.04773l-.0003-.00028s-.9658.55398-1.3758.78043c-.3361.18561-.3605.409-.3585.48448-.002.07548.0224.29887.3585.48448.41.2265 1.3758.7804 1.3758.7804l.0003-.0003c.0537.0311.1146.0476.1766.0477.0937 0 .1836-.0372.2499-.1035s.1035-.1562.1035-.2499c-.0001-.062-.0165-.1229-.0476-.1766-.031-.0537-.0757-.09827-.1294-.12924l.0002-.00054-1.19-.65255 1.1901-.65256-.0003-.00054c.0538-.03096.0984-.07553.1295-.12921.0311-.05369.0475-.11461.0475-.17664 0-.09373-.0372-.18362-.1035-.24989-.0662-.06628-.1561-.10352-.2498-.10353zm-8.0921.18919c-.1596-.00001-.3176.03141-.465.09248-.1474.06106-.2814.15056-.3942.26339-.1129.11283-.2024.24678-.2634.3942-.0611.14742-.0925.30543-.0925.465s.0314.31758.0925.46501c.061.14743.1505.28143.2634.39423.1128.1128.2468.2023.3942.2634s.3054.0925.465.0925.3176-.0315.465-.0925c.1474-.0611.2814-.1506.3942-.2634.1128-.1129.2023-.2468.2634-.39424.061-.14743.0925-.30544.0925-.465 0-.32226-.1281-.63131-.3559-.85918-.2279-.22787-.5369-.35589-.8592-.35589zm12.4866 4.05051c-.1518.0002-.3015.0359-.437.1043-.1356.0683-.2533.1674-.3438.2893l-.0017-.0012-1.9301 2.7138.0035.0012c-.124.1662-.1917.3676-.1933.5749.0016.2073.0693.4087.1933.5748l-.0035.0012 1.9301 2.7138.0017-.0012c.0905.122.2082.221.3438.2894.1355.0683.2852.104.437.1042.128 0 .2547-.0252.3728-.0741.1182-.049.2256-.1207.3161-.2112s.1622-.1978.2112-.316c.0489-.1182.0741-.2449.0741-.3728-.0004-.2008-.0628-.3965-.1787-.5604l.0011-.0008-1.528-2.1469 1.528-2.1469-.0011-.0008c.1159-.1639.1783-.3596.1787-.5604.0001-.1279-.0251-.2546-.0741-.3728s-.1207-.2256-.2112-.3161c-.0904-.0904-.1978-.1622-.316-.2111-.1182-.049-.2449-.0742-.3729-.0742zm-13.7547 8.8411c-.2702 0-.4892.2297-.4893.5131.0002.1956.1063.3741.2737.4603 2.8341 1.7775 5.325 1.6162 5.325 1.6162s2.4909.1613 5.325-1.6162c.1674-.0862.2735-.2647.2736-.4603 0-.2834-.219-.5131-.4892-.5131-.1032.0002-.2037.0346-.2871.0983 0 0-.0427.0283-.0427.0283s-2.1253 1.4945-4.7796 1.4488c-2.6542.0457-4.7796-1.4488-4.7796-1.4488s-.0427-.0283-.0427-.0283c-.0834-.0637-.1839-.0981-.2871-.0983z"/><path d="m19.9183 12.1973c-.0903.0007-.1805.0052-.2704.0137-.0489.0047-.0977.0107-.1464.0177-.0562.007-.1123.0155-.1681.0256-.045.009-.0899.0191-.1345.0301-.0585.0132-.1165.0281-.1741.0446-.041.0127-.0818.0262-.1222.0406-.0595.0198-.1184.0413-.1766.0646-.0375.0159-.0747.0325-.1115.0499-.0592.0264-.1176.0546-.1751.0847-.0336.0185-.0669.0376-.0999.0573-.0585.0333-.1159.0686-.1721.1057-.0293.0202-.0583.0409-.0869.0621-.0572.0406-.113.0831-.1674.1274-.025.0213-.0497.043-.074.065-.055.0479-.1083.0976-.1599.1491-.0211.0221-.0419.0444-.0624.067-.0512.0544-.1006.1105-.1478.1684-.0181.0231-.0358.0465-.0533.0701-.0465.0604-.0908.1225-.1328.1861-.0146.0231-.0289.0463-.0428.0698-.0413.0662-.08.1338-.1163.2028-.0117.0235-.0231.0471-.0342.0709-.035.071-.0673.1433-.0968.2168-.0088.0232-.0173.0464-.0255.0698-.0282.0752-.0535.1514-.0758.2286-.0063.0236-.0124.0473-.0181.071-.0207.0779-.0383.1566-.0529.2359-.0038.0236-.0074.0473-.0107.071-.0129.0803-.0226.1611-.0293.2422-.0042.0517-.0073.1034-.009.1552h-.0007v.0205c-.001.0219-.0018.0438-.0024.0657.0003.0085.0006.0171.001.0257h.0003.0011v3.2933h.0004c.0029.2496.1041.4881.2816.6636.1776.1756.4172.2741.6668.2741.2497-.0001.4892-.0986.6667-.2741.1775-.1756.2787-.414.2816-.6636h.0005v-.0111-3.3878c.0175-.272.1231-.5308.3008-.7374s.4178-.3496.6841-.4075c.0031-.0008.0062-.0016.0094-.0024.0312-.0062.0627-.0112.0944-.0149.0103-.0017.0205-.0033.0308-.0047.0255-.0022.0511-.0037.0767-.0044.0178-.0013.0357-.0022.0537-.0027h.0001c.0204.0005.0409.0016.0613.0031.0228.0007.0456.002.0684.0039.0122.0017.0243.0035.0363.0055.03.0037.0598.0084.0894.0142.004.001.008.002.012.003.0371.008.0738.0176.1101.0289.2408.0764.453.2237.6086.4228.1557.199.2476.4404.2637.6925v3.3879.0111h.0005c.0029.2496.1041.488.2816.6636.1775.1755.417.274.6667.2741.2497-.0001.4892-.0985.6668-.2741.1775-.1755.2787-.414.2816-.6636h.0005v-3.2933h.001.0004c.0004-.0086.0007-.0172.001-.0257-.0006-.0219-.0014-.0438-.0024-.0657v-.0205h-.0007c-.0017-.0518-.0047-.1035-.009-.1551-.0067-.0819-.0166-.1635-.0296-.2446-.0032-.0225-.0066-.045-.0102-.0675-.0147-.08-.0324-.1594-.0532-.238-.0057-.0234-.0117-.0467-.0179-.07-.0224-.0772-.0477-.1535-.0759-.2287-.0082-.0234-.0167-.0466-.0254-.0697-.0297-.074-.0623-.1467-.0975-.2182-.0109-.0231-.022-.0461-.0334-.069-.0363-.0693-.0752-.1373-.1166-.2037-.0139-.0233-.0281-.0465-.0427-.0695-.042-.0636-.0863-.1257-.1328-.1861-.0174-.0236-.0352-.047-.0533-.0701-.0472-.0579-.0965-.114-.1478-.1684-.0205-.0226-.0413-.045-.0624-.067-.0516-.0515-.1049-.1013-.1599-.1491-.0243-.022-.049-.0437-.074-.065-.0545-.0444-.1105-.0871-.1678-.1278-.0284-.021-.0571-.0415-.0862-.0615-.0565-.0373-.1143-.0728-.1731-.1064-.0326-.0195-.0656-.0384-.0989-.0567-.0577-.0301-.1163-.0585-.1757-.085-.0367-.0173-.0738-.0339-.1111-.0497-.0582-.0233-.1171-.0448-.1766-.0646-.0405-.0144-.0812-.0279-.1222-.0406-.0576-.0165-.1157-.0314-.1742-.0446-.0446-.011-.0894-.0211-.1345-.0302-.0558-.01-.1119-.0185-.1681-.0255-.0487-.0071-.0974-.013-.1464-.0177-.0899-.0085-.1801-.0131-.2704-.0137zm-14.96947.0629c-.25164 0-.49298.0999-.67092.2779-.17794.1779-.27791.4192-.27791.6709.00027.0704.00836.1405.02414.2091l-.00206.0004 1.3457 5.4856.00255-.0006c.05449.2009.17355.3783.33882.5049s.36758.1953.57576.1955c.20133-.0002.39736-.0645.55975-.1835s.28271-.2866.34357-.4785l.00119.0059 1.003-2.8626 1.00306 2.8626.00119-.0059c.06085.1919.18118.3595.34357.4785s.35842.1833.55976.1835c.2082-.0002.4105-.0689.5757-.1955.1653-.1266.2844-.304.3389-.5049l.0025.0006 1.3457-5.4856-.002-.0004c.0157-.0686.0238-.1387.0241-.2091 0-.2517-.1-.493-.2779-.6709-.178-.178-.4193-.2779-.6709-.2779-.2254.0002-.4434.0807-.6148.2271-.1715.1463-.2852.3489-.3209.5715l-.0022-.0005-.55736 2.2657-.85251-2.4353-.00319.0011c-.00057-.0014-.00115-.0028-.00173-.0042-.00888-.0241-.01873-.0479-.02954-.0712-.00242-.0056-.00489-.0111-.00742-.0167-.01111-.0228-.02313-.0451-.03604-.067-.00308-.0055-.00622-.011-.00941-.0164-.01314-.0212-.02711-.0419-.04189-.0621-.00385-.0055-.00777-.011-.01174-.0164-.01472-.0192-.03017-.0379-.04632-.0559-.00505-.0059-.01017-.0117-.01537-.0174-.0162-.0172-.03304-.0338-.05049-.0497-.00577-.0055-.01162-.011-.01753-.0163-.01745-.0151-.03544-.0296-.05395-.0435-.00694-.0054-.01396-.0107-.02105-.016-.01799-.0126-.03642-.0247-.05525-.036-.00838-.0053-.01684-.0105-.02538-.0156-.01843-.0103-.0372-.02-.05628-.0291-.00953-.0048-.01915-.0094-.02884-.0139-.01834-.008-.03693-.0154-.05574-.0222-.01118-.0043-.02243-.0084-.03377-.0123-.0183-.0058-.03678-.0111-.05541-.0157-.01202-.0034-.02411-.0065-.03625-.0093-.01814-.0038-.03639-.0071-.05471-.0099-.01318-.0022-.02641-.0042-.03967-.006-.01717-.0018-.03438-.0031-.05162-.004-.019-.0015-.03804-.0025-.05709-.0028-.00014 0-.00028 0-.00042 0-.01947.0004-.03893.0013-.05834.0029-.01653.0009-.03304.0022-.04951.0039-.01428.0018-.02852.0039-.0427.0064-.01734.0026-.03461.0057-.05178.0093-.01275.003-.02543.0062-.03805.0097-.01827.0046-.03641.0098-.05438.0155-.01133.0039-.02259.008-.03377.0123-.01881.0068-.03739.0142-.05574.0222-.00969.0045-.0193.0091-.02884.0139-.01904.0091-.03777.0188-.05617.0291-.00881.0052-.01755.0106-.02619.0161-.01845.0111-.03652.0229-.05417.0352-.00744.0055-.0148.0111-.02208.0168-.01827.0137-.03605.028-.0533.043-.00591.0053-.01175.0108-.01753.0163-.0174.0159-.03421.0324-.05038.0496-.00534.0059-.01061.0119-.0158.018-.01595.0178-.03122.0361-.04578.0551-.00418.0057-.00829.0115-.01234.0173-.01461.0199-.02844.0404-.04145.0614-.00329.0056-.00652.0113-.00969.0169-.01276.0217-.02466.0438-.03566.0664-.00265.0058-.00525.0115-.00779.0173-.01071.0232-.02047.0468-.02928.0708-.0006.0014-.00119.0028-.00179.0042l-.00319-.0011-.85251 2.4353-.55737-2.2657-.00217.0005c-.03568-.2226-.14944-.4252-.32089-.5715-.17144-.1464-.38939-.2269-.61479-.2272zm9.62897 0c-.2487.0002-.4875.0981-.6648.2726s-.279.4116-.2832.6604h-.0008v.0158 5.4461.0653h.0023c.0166.2398.1235.4643.2991.6283.1757.164.4071.2552.6474.2552.2402-.0002.4713-.0916.6468-.2555.1754-.164.2822-.3884.2987-.628h.0033v-.0653-5.4461-.0158h-.0005c-.0041-.2488-.1059-.486-.2832-.6605-.1774-.1745-.4162-.2724-.6651-.2725z"/></g></svg>