<svg xmlns="http://www.w3.org/2000/svg" width="32" height="32" fill="none"><path fill="#20252E" d="M15.938 31.616c8.66 0 15.68-7.02 15.68-15.68S24.598.256 15.938.256.258 7.276.258 15.936s7.02 15.68 15.68 15.68Z"/><path fill="#fff" d="M15.936 8.64a1.28 1.28 0 1 0 0-2.56 1.28 1.28 0 0 0 0 2.56Zm8.578 8.576a1.28 1.28 0 1 0 0-2.56 1.28 1.28 0 0 0 0 2.56Zm-8.578 8.512a1.28 1.28 0 1 0 0-2.56 1.28 1.28 0 0 0 0 2.56Z"/><path fill="#fff" fill-rule="evenodd" d="M11.969 7.36c0 1.608.979 3.007 2.368 3.627v2.517a.74.74 0 0 1-.768.768h-2.546c-.634-1.355-2.014-2.304-3.598-2.304-2.176 0-3.968 1.792-3.968 3.968s1.792 3.968 3.968 3.968c1.583 0 2.963-.949 3.597-2.304h2.483a.74.74 0 0 1 .768.768v2.483c-1.355.634-2.304 2.014-2.304 3.598 0 2.175 1.792 3.967 3.968 3.967a3.947 3.947 0 0 0 3.968-3.968c0-1.583-.949-2.963-2.304-3.597v-2.483a.74.74 0 0 1 .768-.768h2.548c.635 1.355 2.015 2.304 3.598 2.304 2.176 0 3.968-1.792 3.968-3.968s-1.792-3.968-3.968-3.968c-1.584 0-2.964.949-3.598 2.304h-2.484a.74.74 0 0 1-.768-.768v-2.56c1.362-.639 2.286-2.011 2.24-3.584 0-2.176-1.792-3.968-3.968-3.968s-3.968 1.792-3.968 3.968Zm3.968-2.688a2.704 2.704 0 0 0-2.688 2.688 2.704 2.704 0 0 0 2.688 2.688 2.704 2.704 0 0 0 2.688-2.688 2.663 2.663 0 0 0-2.688-2.688Zm5.89 11.2a2.704 2.704 0 0 1 2.688-2.688 2.704 2.704 0 0 1 2.688 2.688 2.704 2.704 0 0 1-2.688 2.688 2.704 2.704 0 0 1-2.688-2.688Zm-5.89 5.889a2.704 2.704 0 0 0-2.688 2.688 2.704 2.704 0 0 0 2.688 2.688 2.704 2.704 0 0 0 2.688-2.689 2.663 2.663 0 0 0-2.688-2.688Zm-11.2-5.89a2.704 2.704 0 0 1 2.688-2.687 2.704 2.704 0 0 1 2.688 2.688 2.704 2.704 0 0 1-2.688 2.688 2.704 2.704 0 0 1-2.688-2.688Z" clip-rule="evenodd"/><path fill="#fff" d="M7.425 17.216a1.28 1.28 0 1 0 0-2.56 1.28 1.28 0 0 0 0 2.56Z"/></svg>