<svg fill="none" height="32" viewBox="0 0 32 32" width="32" xmlns="http://www.w3.org/2000/svg"><path d="m16 32c8.8366 0 16-7.1634 16-16 0-8.83656-7.1634-16-16-16-8.83656 0-16 7.16344-16 16 0 8.8366 7.16344 16 16 16z" fill="#fff"/><g fill="#212630"><path d="m26.0791 9.70001h-3.4403l-1.5866 5.21639h3.3901z"/><path d="m18.2133 14.664 1.7035 4.0217.6179-2.0529h3.3734l-1.9038 6.2428c-.0737.2391-.2222.4482-.4236.5966s-.4451.2282-.6953.2278h-1.9206c-.2341-.0013-.4624-.0724-.6558-.2043s-.3431-.3186-.4297-.5361l-2.1042-5.1826-2.0876 5.1659c-.0856.2182-.235.4055-.4286.5375-.1936.1321-.4225.2028-.6569.2029h-1.9373c-.2502.0004-.4939-.0795-.69532-.2279s-.34989-.3576-.42358-.5967l-4.0248-13.15869h3.39015l2.67205 8.98559 1.7703-4.0553c.1892-.4931.5243-.9167.9605-1.2143.4363-.2977.9529-.4552 1.481-.4515.5282.0037 1.0426.1683 1.4747.472.4321.3036.7612.7318.9436 1.2275z"/></g></svg>