<svg xmlns="http://www.w3.org/2000/svg" width="32" height="32" fill="none"><path fill="#fff" d="M16 32c8.837 0 16-7.163 16-16S24.837 0 16 0 0 7.163 0 16s7.163 16 16 16Z"/><path fill="#212630" d="M26.08 9.7h-3.441l-1.587 5.216h3.39L26.08 9.7Zm-7.867 4.964 1.704 4.022.618-2.053h3.373l-1.904 6.243a1.169 1.169 0 0 1-1.119.824h-1.92a1.175 1.175 0 0 1-1.086-.74l-2.104-5.183-2.088 5.166a1.166 1.166 0 0 1-1.085.74h-1.937a1.17 1.17 0 0 1-1.12-.824L5.522 9.7h3.39l2.672 8.986 1.77-4.056a2.596 2.596 0 0 1 4.86.034Z"/></svg>