<svg fill="none" height="32" viewBox="0 0 32 32" width="32" xmlns="http://www.w3.org/2000/svg"><path d="m16 32c8.8366 0 16-7.1634 16-16 0-8.83656-7.1634-16-16-16-8.83656 0-16 7.16344-16 16 0 8.8366 7.16344 16 16 16z" fill="#fee600"/><path clip-rule="evenodd" d="m3.99268 5.42512c.79015-.8965 1.67913-1.70381 2.64989-2.40489l4.45213 15.91807 1.9737-8.4383h3.7391l1.9725 8.4383 2.3369-8.4383h3.749l.0352.1503 4.0744 14.7133c-.7392 1.0225-1.5962 1.9541-2.5512 2.775l-3.4358-12.4101-1.9598 7.079-.0352.1497h-4.186l-1.8693-6.9321-1.8698 6.9321h-4.18662l-.0346-.1497z" fill="#000" fill-rule="evenodd"/></svg>