<svg xmlns="http://www.w3.org/2000/svg" width="32" height="32" fill="none"><path fill="#100619" d="M16 32c8.837 0 16-7.163 16-16S24.837 0 16 0 0 7.163 0 16s7.163 16 16 16Z"/><path fill="#8200FF" fill-rule="evenodd" d="m18.414 13.166-.68.167c-.614.15-1.044.69-1.044 1.31v4.538l-2.247.55a.69.69 0 0 1-.836-.492.663.663 0 0 1-.02-.164V11.52c0-.31.215-.58.522-.656l3.448-.844a.69.69 0 0 1 .836.492c.014.053.02.108.02.163v2.491h.001Zm-7.586-.042-.852.21c-.614.15-1.045.69-1.045 1.31v4.58l-2.074.507A.69.69 0 0 1 6 19.075V11.52c0-.31.215-.58.522-.656l3.449-.844a.69.69 0 0 1 .836.492c.014.053.02.108.02.163v2.45h.001Zm10.867-2.239 3.448-.844a.69.69 0 0 1 .857.655v7.556c0 .31-.215.58-.522.655l-3.449.844a.69.69 0 0 1-.836-.49.663.663 0 0 1-.02-.165V11.54c0-.31.215-.58.522-.655Z" clip-rule="evenodd"/><path fill="#00FFDA" fill-rule="evenodd" d="M12.897 13.314v5.761c0 .11.013.22.04.328a1.38 1.38 0 0 0 1.511 1.013v.939c0 .31-.215.58-.522.655l-3.448.844a.69.69 0 0 1-.837-.491.662.662 0 0 1-.02-.164v-7.556c0-.31.215-.58.522-.655l2.754-.674Zm7.586.042v5.74c0 .11.014.22.04.328.186.723.935 1.163 1.674.982l.01-.002v.95a.68.68 0 0 1-.522.656l-3.449.844a.69.69 0 0 1-.836-.491.662.662 0 0 1-.02-.164v-7.556c0-.31.215-.58.522-.655l2.58-.632h.001Z" clip-rule="evenodd"/></svg>