<svg fill="none" height="32" viewBox="0 0 32 32" width="32" xmlns="http://www.w3.org/2000/svg"><path d="m16 32c8.8366 0 16-7.1634 16-16 0-8.83656-7.1634-16-16-16-8.83656 0-16 7.16344-16 16 0 8.8366 7.16344 16 16 16z" fill="#100619"/><g clip-rule="evenodd" fill-rule="evenodd"><path d="m18.414 13.1661-.68.167c-.614.15-1.044.69-1.044 1.31v4.538l-2.247.55c-.1761.0445-.3625.0178-.519-.0743s-.2704-.2422-.317-.4177c-.0135-.0537-.0202-.1088-.02-.164v-7.555c0-.31.215-.58.522-.656l3.448-.844c.1761-.04452.3625-.0178.519.0743s.2704.2421.317.4177c.014.053.02.108.02.163v2.491zm-7.586-.042-.852.209c-.614.15-1.045.69-1.045 1.31v4.58l-2.074.508c-.17605.0445-.36255.0178-.51905-.0743s-.27038-.2422-.31695-.4177c-.01383-.0536-.02088-.1087-.021-.164v-7.555c0-.31.215-.58.522-.656l3.449-.844c.1761-.04452.3625-.0178.519.0743s.2704.2421.317.4177c.014.053.02.108.02.163v2.45zm10.867-2.239 3.448-.844c.1759-.04456.3623-.018.5188.0739.1564.0919.2704.2417.3172.4171.0139.0535.021.1086.021.164v7.556c0 .31-.215.58-.522.655l-3.449.844c-.1759.0445-.3623.0179-.5188-.074-.1564-.0919-.2704-.2417-.3172-.417-.0135-.0537-.0202-.1088-.02-.164v-7.556c0-.31.215-.58.522-.655z" fill="#8200ff"/><path d="m12.8971 13.314v5.761c0 .11.013.22.04.328.0862.3233.287.6043.5649.7907.278.1863.6142.2653.9461.2223v.939c0 .31-.215.58-.522.655l-3.448.844c-.1761.0448-.3627.0184-.5194-.0735-.1567-.092-.27083-.242-.3176-.4175-.01349-.0537-.02021-.1087-.02-.164v-7.556c0-.31.215-.58.522-.655zm7.586.042v5.74c0 .11.014.22.04.328.186.723.935 1.163 1.674.982l.01-.002v.95c-.0012.1519-.0533.2991-.1479.418s-.2263.2027-.3741.238l-3.449.844c-.1759.0445-.3623.0179-.5188-.074s-.2704-.2417-.3172-.417c-.0135-.0537-.0202-.1087-.02-.164v-7.556c0-.31.215-.58.522-.655l2.58-.632z" fill="#00ffda"/></g></svg>