<svg xmlns="http://www.w3.org/2000/svg" width="32" height="32" fill="none"><path fill="#fff" d="M16 32c8.837 0 16-7.163 16-16S24.837 0 16 0 0 7.163 0 16s7.163 16 16 16Z"/><path fill="#FF5C00" fill-rule="evenodd" d="M19.256 4.202v-.75A.451.451 0 0 0 18.784 3a9.76 9.76 0 0 0-9.282 9.349.398.398 0 0 0 .418.399h.761a.452.452 0 0 0 .452-.43 8.135 8.135 0 0 1 7.703-7.692c.318-.04.419-.214.419-.424h.001Zm-6.854 8.546h.729a.449.449 0 0 0 .446-.42 5.694 5.694 0 0 1 5.296-5.26.408.408 0 0 0 .383-.43v-.742a.452.452 0 0 0-.454-.452l-.03.001a7.32 7.32 0 0 0-6.82 6.82.453.453 0 0 0 .421.482l.029.001Zm6.854-4.404v.745a.436.436 0 0 1-.394.43 3.254 3.254 0 0 0-2.834 2.827.455.455 0 0 1-.45.403h-.727a.45.45 0 0 1-.45-.492 4.882 4.882 0 0 1 4.364-4.363.45.45 0 0 1 .491.45Zm8.542 10.89c-.21 0-.383-.103-.425-.42a8.133 8.133 0 0 0-7.692-7.702.452.452 0 0 1-.43-.45V9.9a.398.398 0 0 1 .399-.418 9.76 9.76 0 0 1 9.35 9.28.45.45 0 0 1-.452.471h-.75ZM19.25 12.38a.45.45 0 0 1 .484-.45 7.32 7.32 0 0 1 6.82 6.819.453.453 0 0 1-.42.483h-.772a.407.407 0 0 1-.431-.382 5.694 5.694 0 0 0-5.26-5.295.45.45 0 0 1-.421-.447v-.728Zm4.405 6.853h-.745a.437.437 0 0 1-.43-.394 3.254 3.254 0 0 0-2.828-2.834.454.454 0 0 1-.402-.45v-.727a.45.45 0 0 1 .492-.45 4.882 4.882 0 0 1 4.364 4.363.45.45 0 0 1-.45.492ZM4.202 12.746c.21 0 .384.102.425.419a8.132 8.132 0 0 0 7.693 7.702.453.453 0 0 1 .43.451v.762a.398.398 0 0 1-.4.418A9.761 9.761 0 0 1 3 13.218a.451.451 0 0 1 .452-.472h.75ZM12.75 19.6a.45.45 0 0 1-.484.45 7.32 7.32 0 0 1-6.82-6.818.453.453 0 0 1 .42-.483l.03-.002h.742a.408.408 0 0 1 .431.383 5.694 5.694 0 0 0 5.26 5.295.45.45 0 0 1 .421.447v.728Zm-4.405-6.853h.745a.438.438 0 0 1 .43.394 3.255 3.255 0 0 0 2.828 2.835.454.454 0 0 1 .402.449v.727a.451.451 0 0 1-.492.45 4.88 4.88 0 0 1-4.364-4.362.45.45 0 0 1 .45-.493Zm4.407 15.052c0-.21.102-.383.418-.424a8.133 8.133 0 0 0 7.704-7.692.453.453 0 0 1 .451-.43h.762a.398.398 0 0 1 .417.4A9.761 9.761 0 0 1 13.222 29a.45.45 0 0 1-.47-.452v-.75Zm6.853-8.546a.452.452 0 0 1 .451.484 7.32 7.32 0 0 1-6.82 6.82.453.453 0 0 1-.483-.421l-.001-.03v-.742a.408.408 0 0 1 .382-.431 5.694 5.694 0 0 0 5.296-5.26.45.45 0 0 1 .447-.42h.728Zm-6.853 4.405v-.745a.437.437 0 0 1 .394-.43 3.255 3.255 0 0 0 2.835-2.828.455.455 0 0 1 .448-.402h.728a.452.452 0 0 1 .45.492 4.881 4.881 0 0 1-4.363 4.363.45.45 0 0 1-.492-.45Z" clip-rule="evenodd"/></svg>