<svg fill="none" height="32" viewBox="0 0 32 32" width="32" xmlns="http://www.w3.org/2000/svg"><path d="m16 32c8.8366 0 16-7.1634 16-16 0-8.83656-7.1634-16-16-16-8.83656 0-16 7.16344-16 16 0 8.8366 7.16344 16 16 16z" fill="#fff"/><path clip-rule="evenodd" d="m19.2562 4.20232v-.74944c.0004-.11964-.0466-.23456-.1309-.31949-.0843-.08494-.1988-.13292-.3185-.13339-.0075 0-.015.00016-.0225.00048-2.4352.11749-4.7382 1.14204-6.4559 2.87206-1.7178 1.73002-2.72589 4.04025-2.82605 6.47616-.00028.0541.01049.1077.03164.1575s.05223.0947.09136.1321c.03913.0373.08547.0663.13618.0851.05072.0189.10474.0272.15877.0244h.7611c.1159 0 .2274-.0445.3114-.1243.0839-.0799.134-.189.1397-.3047.1066-2.0075.9528-3.9045 2.3754-5.32502 1.4225-1.42051 3.3207-2.26397 5.3284-2.36768.3172-.0403.4186-.21384.4186-.42444zm-6.8542 8.54608h.7287c.1138-.0002.2232-.0438.3062-.1217.0829-.078.133-.1846.1403-.2982.1015-1.3675.6931-2.65239 1.666-3.61867.973-.96627 2.262-1.54898 3.6301-1.64104.1078-.00653.2086-.05559.2803-.1364.0717-.08082.1083-.18678.1019-.2946v-.74159c-.0001-.0595-.0119-.11839-.0348-.17332-.0229-.05492-.0564-.1048-.0985-.14678-.0422-.04199-.0922-.07526-.1472-.09791-.0551-.02265-.114-.03424-.1735-.03411l-.0296.001c-1.7702.11726-3.4376.8734-4.6922 2.12781-1.2545 1.25441-2.0108 2.92171-2.1282 4.69191-.004.0594.0037.1189.0227.1753s.0489.1085.0881.1533c.0391.0448.0867.0815.14.1079s.1113.0421.1707.0461zm6.8541-4.40438v.74498c-.001.10768-.0418.21118-.1145.29061s-.1722.12918-.2794.13968c-.7199.08798-1.3898.4139-1.9033.92601-.5136.5122-.8413 1.1812-.9313 1.9008-.0126.1105-.0652.2126-.148.2869-.0828.0742-.1899.1156-.3011.1161h-.728c-.0592.0002-.1178-.0113-.1725-.0338s-.1045-.0555-.1464-.0972c-.042-.0417-.0753-.0913-.0981-.1459s-.0346-.1131-.0347-.1723c-.0001-.0143.0006-.0285.0019-.0428.1136-1.1187.6099-2.1638 1.405-2.95884.7951-.79502 1.8404-1.29116 2.959-1.40459.0589-.00538.1183.0009.1748.01847.0565.01758.109.04611.1544.08396.0455.03785.083.08429.1105.13665.0276.05237.0445.10964.0499.16855.0013.01421.0019.02847.0019.04278zm8.5423 10.88938c-.2106 0-.3835-.102-.4251-.4186-.1036-2.0077-.947-3.9058-2.3676-5.3282-1.4206-1.4223-3.3176-2.2682-5.3251-2.3743-.1159-.0056-.2252-.0556-.3053-.1396-.0801-.0839-.1248-.1954-.125-.3115v-.76104c-.0027-.05406.0056-.1081.0245-.15882s.048-.09706.0854-.13617c.0374-.03912.0824-.0702.1322-.09134.0499-.02114.1035-.03189.1576-.03161 2.4358.09978 4.7461 1.10748 6.4764 2.82488 1.7302 1.7174 2.7552 4.0201 2.8731 6.4551.0027.0592-.0064.1183-.0266.174s-.0511.1069-.0911.1506-.0882.0791-.1419.1042c-.0536.0251-.1117.0394-.1709.042-.0071.0003-.0141.0005-.0212.0005zm-8.5481-6.8536c0-.062.0128-.1233.0376-.1801.0247-.0568.0609-.108.1063-.1502.0453-.0423.0989-.0747.1573-.0954.0585-.0206.1205-.0291.1824-.0247 1.7701.1172 3.4374.8733 4.6919 2.1275 1.2545 1.2543 2.0109 2.9215 2.1285 4.6916.0041.0593-.0036.1189-.0225.1753s-.0488.1085-.0878.1534c-.0391.0449-.0866.0816-.1399.1081s-.1113.0422-.1706.0463l-.0303.0011h-.7417c-.1079.0064-.2139-.0303-.2947-.1021s-.1298-.1727-.1362-.2806v-.0001c-.0924-1.3681-.6753-2.6568-1.6417-3.6296-.9664-.9727-2.2513-1.564-3.6187-1.6653-.1136-.0074-.2202-.0576-.2982-.1405-.0781-.0828-.1218-.1922-.1224-.306v-.728zm4.405 6.8529h-.7456c-.1076-.0012-.211-.0421-.2903-.1148-.0794-.0726-.1292-.172-.14-.2791-.0881-.7199-.4142-1.3897-.9264-1.9031-.5123-.5135-1.1813-.8411-1.901-.9309-.1105-.0127-.2125-.0655-.2867-.1484-.0741-.0829-.1153-.1902-.1157-.3014v-.7273c-.0002-.0628.0127-.1249.038-.1824.0252-.0575.0621-.1091.1085-.1514.0463-.0424.101-.0746.1605-.0945.0595-.02.1225-.0273.185-.0215 1.1186.1134 2.1637.6094 2.9589 1.4043.7951.7949 1.2914 1.8399 1.4052 2.9584.011.119-.0257.2375-.102.3294s-.186.1497-.3049.1608c-.0145.0014-.0289.002-.0435.002zm-19.45302-6.4863c.2106 0 .3835.1021.4251.4186.10354 2.0076.94698 3.9058 2.36756 5.3281 1.42058 1.4224 3.31766 2.2683 5.32516 2.3743.1158.0059.2249.056.3049.1399.0801.0839.1249.1953.1254.3112v.7618c.0026.054-.0058.108-.0248.1587-.0189.0506-.048.0969-.0854.136-.0374.039-.0824.07-.1322.0911-.0497.0211-.1033.0318-.1574.0315-2.43585-.0998-4.74617-1.1076-6.47651-2.8249-1.73033-1.7174-2.75543-4.02-2.87364-6.4551-.00265-.0591.00639-.1183.02659-.174.0202-.0556.05117-.1068.09115-.1505.03997-.0437.08817-.0792.14183-.1043.05366-.025.11174-.0393.17092-.042.00708-.0003.01416-.0004.02125-.0004zm8.54742 6.8529c0 .062-.0128.1233-.0376.1801-.0248.0569-.0609.108-.1063.1502-.0454.0423-.0989.0748-.1574.0954-.0584.0207-.1205.0291-.1823.0247-1.7701-.1171-3.43752-.8731-4.69206-2.1274-1.25453-1.2543-2.01086-2.9215-2.12832-4.6916-.0041-.0594.00353-.119.02245-.1754.01893-.0564.04878-.1085.08785-.1534.03908-.0448.08661-.0816.13988-.1081s.11124-.0422.17059-.0463l.03033-.0011h.74164c.10788-.0062.21382.0306.29461.1024.08078.0717.12981.1726.13633.2805.09237 1.368.6753 2.6568 1.64168 3.6295s2.25132 1.564 3.61872 1.6653c.1136.0074.2202.0576.2982.1405.078.0828.1218.1922.1224.3061v.728zm-4.405-6.8529h.74554c.10762.0013.211.0421.29038.1148.07939.0727.1292.172.13992.2791.08799.72.414 1.39.92626 1.9036.5123.5136 1.1814.8413 1.9012.9311.1103.0127.2121.0653.2862.148.0741.0826.1155.1895.1162.3005v.728c.0003.1196-.0469.2345-.1313.3193-.0844.0849-.199.1327-.3186.133-.0141 0-.0282-.0006-.0422-.0019-1.1187-.1134-2.1639-.6095-2.95898-1.4046-.79513-.795-1.29142-1.8401-1.40501-2.9588-.00546-.0589.00073-.1183.01822-.1748s.04594-.109.08373-.1545c.03778-.0455.08416-.0831.13649-.1107.05232-.0276.10957-.0446.16847-.0501.01445-.0013.02894-.002.04349-.0019zm4.407 15.0519c0-.2106.1021-.3835.4186-.4244 2.0077-.1034 3.906-.9466 5.3286-2.3671 1.4226-1.4204 2.2687-3.3174 2.3751-5.3249.0058-.1158.0559-.2249.1398-.3049.084-.0799.1954-.1246.3113-.1248h.7618c.054-.0027.108.0057.1586.0245.0507.0189.0969.0479.136.0852.039.0374.0701.0823.0912.1321s.0318.1033.0315.1573c-.1002 2.4359-1.1083 4.7462-2.826 6.4762-1.7178 1.73-4.0208 2.7546-6.4559 2.872-.0592.0026-.1183-.0065-.174-.0268-.0556-.0203-.1067-.0513-.1504-.0914-.0437-.04-.079-.0883-.104-.142-.025-.0536-.0392-.1117-.0418-.1709-.0003-.0069-.0004-.0137-.0004-.0206zm6.8535-8.5461c.062.0001.1234.0129.1802.0377.0568.0247.108.0609.1503.1062.0423.0454.0748.0989.0956.1573.0207.0585.0293.1205.025.1824-.1175 1.7702-.8738 3.4374-2.1283 4.6918-1.2546 1.2544-2.9219 2.0106-4.6921 2.128-.1199.0083-.2381-.0314-.3287-.1103s-.1462-.1906-.1545-.3105l-.001-.0303v-.7416c-.0063-.1079.0305-.2139.1023-.2947s.1726-.1298.2805-.1363c1.3681-.0922 2.6569-.675 3.6297-1.6412.9729-.9663 1.5643-2.2511 1.6658-3.6185.0076-.1135.0578-.2199.1407-.2978.0828-.0779.1921-.1216.3059-.1221zm-6.8535 4.4044v-.7449c.0011-.1077.042-.2111.1146-.2905.0727-.0794.1722-.1292.2793-.1398.7201-.0879 1.3902-.4138 1.9039-.9261.5137-.5122.8415-1.1814.9313-1.9013.013-.1101.0658-.2117.1483-.2856.0826-.074.1894-.1153.3002-.1161h.728c.0628-.0002.1249.0127.1824.0378.0575.0252.1091.0621.1515.1083.0424.0463.0747.1009.0947.1604.0201.0594.0276.1224.0219.1849-.1136 1.1187-.6099 2.1638-1.405 2.9588-.7952.795-1.8404 1.2912-2.9591 1.4046-.0589.0055-.1183-.0007-.1748-.0182s-.109-.046-.1545-.0837c-.0455-.0378-.0832-.0842-.1107-.1365-.0276-.0524-.0446-.1096-.0501-.1685-.0013-.0145-.002-.029-.0019-.0436z" fill="#ff5c00" fill-rule="evenodd"/></svg>