<svg xmlns="http://www.w3.org/2000/svg" width="32" height="32" fill="none"><defs><linearGradient id="xec__a" x1="8.834" x2="21.959" y1="-5.293" y2="33.707" gradientUnits="userSpaceOnUse"><stop stop-color="#273498"/><stop offset=".53" stop-color="#0074C2"/><stop offset="1" stop-color="#00ABE7"/></linearGradient></defs><path fill="url(#xec__a)" d="M16 32c8.837 0 16-7.163 16-16S24.837 0 16 0 0 7.163 0 16s7.163 16 16 16Z"/><path fill="#fff" d="M11.661 12.824c1.238-.716 2.486-1.433 3.724-2.15a1.173 1.173 0 0 1 1.203 0l1.841 1.052a.163.163 0 0 1 .057.219.164.164 0 0 1-.057.06l-4.5 2.589a.369.369 0 0 0-.185.324v2.173a.347.347 0 0 0 .184.312l1.884 1.086a.333.333 0 0 0 .36 0l7.768-4.473a2.245 2.245 0 0 0 0-3.723L16.956 6.27a1.864 1.864 0 0 0-1.93 0l-6.984 4.024a1.91 1.91 0 0 0-.97 1.677c0 2.687.01 5.376 0 8.057a1.914 1.914 0 0 0 .97 1.678l6.984 4.035a1.923 1.923 0 0 0 1.93 0l6.984-4.035a1.887 1.887 0 0 0 .96-1.678v-3.5l-8.312 4.808a1.183 1.183 0 0 1-1.203 0l-3.71-2.151a1.174 1.174 0 0 1-.602-1.04v-4.29a1.185 1.185 0 0 1 .59-1.03h-.002Z"/></svg>