<svg fill="none" height="32" viewBox="0 0 32 32" width="32" xmlns="http://www.w3.org/2000/svg" xmlns:xlink="http://www.w3.org/1999/xlink"><linearGradient id="a" gradientUnits="userSpaceOnUse" x1="8.83426" x2="21.9591" y1="-5.29255" y2="33.7072"><stop offset="0" stop-color="#273498"/><stop offset=".53" stop-color="#0074c2"/><stop offset="1" stop-color="#00abe7"/></linearGradient><path d="m16 32c8.8366 0 16-7.1634 16-16 0-8.83656-7.1634-16-16-16-8.83656 0-16 7.16344-16 16 0 8.8366 7.16344 16 16 16z" fill="url(#a)"/><path d="m11.661 12.8241c1.2376-.7164 2.4863-1.4329 3.724-2.1493.1818-.1085.3896-.1659.6013-.1659s.4195.0574.6013.1659l1.8418 1.0516c.0236.0147.043.0352.0565.0596.0135.0243.0206.0517.0206.0795s-.0071.0551-.0206.0795c-.0135.0243-.0329.0448-.0565.0595l-4.5012 2.5895c-.0568.0328-.1038.0801-.1362.1371-.0323.0569-.0489.1215-.048.1871v2.1732c-.0008.0638.016.1266.0485.1814.0325.0549.0794.0998.1357.1299l1.8841 1.0866c.0536.0343.1159.0525.1795.0525.0637 0 .126-.0182.1796-.0525l7.7685-4.4736c.3045-.2056.554-.4828.7264-.8073s.2626-.6863.2626-1.0538c0-.3674-.0902-.7293-.2626-1.0538-.1724-.3244-.4219-.6017-.7264-.8073l-6.9839-4.02419c-.2911-.17617-.6248-.26931-.9651-.26931-.3402 0-.674.09314-.9651.26931l-6.98387 4.02419c-.2965.1675-.54285.4112-.7135.7059-.17066.2947-.25942.6296-.2571.9701 0 2.6872.01105 5.3761 0 8.0577-.00226.3407.08651.6759.25714.9709.17064.2949.41694.539.71346.7069l6.98387 4.0353c.2932.1701.6262.2597.9651.2597.339 0 .6719-.0896.9651-.2597l6.9839-4.0353c.2964-.1671.5421-.4113.7111-.7066.1689-.2954.2548-.631.2485-.9712v-3.4993l-8.3119 4.807c-.1821.1075-.3898.1643-.6013.1643s-.4192-.0568-.6013-.1643l-3.7093-2.1512c-.1849-.103-.3385-.2541-.4446-.4373-.106-.1832-.1605-.3917-.1576-.6033v-4.2895c-.0008-.2082.0532-.413.1567-.5937.1034-.1807.2526-.331.4326-.4358z" fill="#fff"/></svg>