<svg fill="none" height="32" viewBox="0 0 32 32" width="32" xmlns="http://www.w3.org/2000/svg" xmlns:xlink="http://www.w3.org/1999/xlink"><clipPath id="a"><path d="m0 0h32v32h-32z"/></clipPath><g clip-path="url(#a)"><path d="m15.9457-.00003052c5.4673 0 10.8597 1.44487052 15.5942 4.17837052l.3514.20258v.4061c0 11.10728-5.9749 21.45678-15.5939 27.00988l-.3517.2031-.3513-.2026c-9.61908-5.5539-15.5944-15.9031-15.5944-27.01038v-.4061l.351153-.20258c4.735127-2.7335 10.127147-4.17837052 15.594547-4.17837052z" fill="#fff"/><path d="m30.4834 5.19407c-.0922 6.69693-2.4555 13.08443-6.5279 18.18653.0622-.4077.095-.8229.095-1.243 0-2.9573-1.592-5.5492-3.9637-6.9645v-.0016c-.037-.0203-.0743-.0422-.1106-.0638-2.0538-1.1997-3.3273-3.4039-3.3273-5.78928 0-3.69287 3.0041-6.69717 6.6988-6.69717.6278 0 1.2481.08615 1.845.25777 1.8288.59681 3.6018 1.37152 5.2907 2.31505z" fill="#67b9e8"/><path d="m20.4491 1.75081c-3.0411 1.16708-5.2067 4.11946-5.2067 7.56736 0 2.48063-1.3557 4.65223-3.3662 5.80953-.9826.5658-2.11988.8888-3.33259.8888-3.01432 0-5.64559-2.0231-6.44848-4.8818-.42473-1.93389-.65922-3.92411-.68693-5.94088 4.43475-2.47922 9.4523-3.78833 14.5374-3.78833 1.5122.00046 3.0181.11573 4.5035.34532z" fill="#fab600"/><path d="m22.644 22.1376c0 1.7492-.6859 3.4209-1.8933 4.6659-1.4635 1.3373-3.0709 2.5351-4.8052 3.569-5.7536-3.4269-10.10433-8.668-12.48505-14.7465 1.40296 1.1293 3.18081 1.7965 5.08324 1.7965 1.43579 0 2.78561-.3747 3.95581-1.0325v.0014c.0249-.0154.0498-.0296.0763-.0438 1.0185-.5954 2.1826-.9091 3.3697-.9091 1.212 0 2.3497.3232 3.3307.8888 2.0108 1.1578 3.3678 3.3292 3.3678 5.8103z" fill="#4fbaad"/></g></svg>