<svg fill="none" height="32" viewBox="0 0 32 32" width="32" xmlns="http://www.w3.org/2000/svg"><circle cx="16" cy="16" fill="#000" r="16"/><path d="m25.9704 11.8451v1.7181l-.7266.3696c-.5519.2815-.8806.8663-.8339 1.4834.016.2144.0245.4312.0245.6481-.0011 3.1721-1.7833 6.0757-4.6132 7.5159-2.83 1.4401-6.2296 1.1736-8.7999-.6901l1.4922-.7594.0844-.0448c2.1414 1.1992 4.7588 1.1749 6.8775-.0637s3.4214-3.506 3.4229-5.9579c-.0001-.3036-.0198-.6069-.0591-.908l-16.8392 8.5692v-1.7223l4.206-2.1416zm-13.8232-3.29922c2.83-1.44115 6.2302-1.1752 8.801.68839l-1.5816.80503c-2.1409-1.19413-4.7547-1.16708-6.8703.0711-2.1156 1.2382-3.41673 3.5024-3.41996 5.9514.00012.3016.01988.6029.05914.902l16.83492-8.56662v1.72312l-19.9704 10.1632v-1.724l.72578-.3696c.55237-.2811.88156-.8661.83478-1.4834-.01634-.2132-.0245-.4273-.0245-.6422-.00033-3.1726 1.78114-6.07728 4.61114-7.51842z" fill="#fff"/></svg>