<svg xmlns="http://www.w3.org/2000/svg" width="32" height="32" fill="none"><circle cx="16" cy="16" r="16" fill="#000"/><path fill="#fff" d="M25.97 11.845v1.718l-.726.37c-.552.281-.88.866-.834 1.483a8.438 8.438 0 0 1-4.589 8.164 8.458 8.458 0 0 1-8.8-.69l1.492-.76.085-.044a6.925 6.925 0 0 0 6.877-.064 6.907 6.907 0 0 0 3.364-6.866L6 23.726v-1.723l4.206-2.141 15.764-8.017Zm-13.823-3.3a8.458 8.458 0 0 1 8.801.69l-1.581.804a6.925 6.925 0 0 0-6.87.071 6.907 6.907 0 0 0-3.362 6.854L25.97 8.397v1.723L6 20.284V18.56l.726-.37c.552-.281.881-.866.835-1.484a8.437 8.437 0 0 1 4.587-8.16Z"/></svg>