<svg fill="none" height="32" viewBox="0 0 32 32" width="32" xmlns="http://www.w3.org/2000/svg"><path d="m32 16c0 8.8366-7.1634 16-16 16-8.83656 0-16-7.1634-16-16 0-8.83656 7.16344-16 16-16 8.8366 0 16 7.16344 16 16z" fill="#fff"/><path d="m15.9998 1.5c-8.00646 0-14.4998 6.49269-14.4998 14.4997 0 1.6008.25932 3.1403.73868 4.5803h4.33623v-12.19989l9.42489 9.42509 9.4249-9.42509v12.19989h4.3366c.4794-1.44.7387-2.9795.7387-4.5803 0-8.00701-6.4933-14.4997-14.5002-14.4997z" fill="#f60"/><path d="m9.71972 15.8584v7.6766h-6.10986c2.54532 4.176 7.14244 6.965 12.38984 6.965s9.8449-2.789 12.3898-6.965h-6.1094v-7.6766l-6.2804 6.2806z" fill="#4c4c4c"/></svg>