<svg xmlns="http://www.w3.org/2000/svg" width="32" height="32" fill="none"><path fill="#fff" d="M32 16c0 8.837-7.163 16-16 16S0 24.837 0 16 7.163 0 16 0s16 7.163 16 16Z"/><path fill="#F60" d="M16 1.5C7.993 1.5 1.5 7.993 1.5 16c0 1.6.26 3.14.739 4.58h4.336V8.38L16 17.805l9.425-9.425v12.2h4.336c.48-1.44.739-2.98.739-4.58 0-8.007-6.493-14.5-14.5-14.5Z"/><path fill="#4C4C4C" d="M9.72 15.858v7.677H3.61C6.155 27.711 10.752 30.5 16 30.5c5.247 0 9.845-2.789 12.39-6.965h-6.11v-7.677L16 22.14l-6.28-6.28Z"/></svg>