<svg xmlns="http://www.w3.org/2000/svg" width="32" height="32" fill="none"><defs><linearGradient id="xno__a" x1="19.252" x2="17.133" y1="12.477" y2="16.584" gradientUnits="userSpaceOnUse"><stop stop-color="#1E37DC"/><stop offset="1" stop-color="#F2018A"/></linearGradient></defs><path fill="#091724" d="M16 32c8.837 0 16-7.163 16-16S24.837 0 16 0 0 7.163 0 16s7.163 16 16 16Z"/><path fill="url(#xno__a)" d="M12.542 10a.89.89 0 0 1 .62.252l.01.009 3.752 3.754a1.826 1.826 0 0 0 2.497.08l.021-.02 2.751-2.499a.32.32 0 0 0-.215-.556h-2.08a.32.32 0 0 0-.223.09l-1.917 1.862a.457.457 0 0 1-.636-.655l2.017-1.957a.89.89 0 0 1 .607-.252h3.118a.89.89 0 0 1 .608 1.54l-.01.008-3.406 3.095a2.738 2.738 0 0 1-3.747-.06l-.03-.031-3.653-3.654a.322.322 0 0 0-.226-.093h-2.036a.32.32 0 0 0-.23.54l2.405 2.511a2.737 2.737 0 0 1-.051 3.84l-.032.031-.014.013-.014.013-2.643 2.462a.32.32 0 0 0 .218.553H12.1a.32.32 0 0 0 .212-.08L16.3 17.24a2.739 2.739 0 0 1 3.637-.008l.03.029 3.5 3.19A.89.89 0 0 1 22.88 22h-3.112a.89.89 0 0 1-.635-.267l-.009-.009-2.026-2.125a.457.457 0 0 1 .015-.645.457.457 0 0 1 .645.016l1.926 2.019a.318.318 0 0 0 .23.099h2.07a.32.32 0 0 0 .215-.556l-2.847-2.596a1.826 1.826 0 0 0-2.424-.032l-.021.018-4.083 3.641a.89.89 0 0 1-.58.226H9.133a.89.89 0 0 1-.617-1.53l.01-.01 3.28-3.056.018-.017a1.825 1.825 0 0 0 .077-2.558l-.021-.022-2.96-3.09A.89.89 0 0 1 9.548 10h2.994Z"/></svg>