<svg fill="none" height="32" viewBox="0 0 32 32" width="32" xmlns="http://www.w3.org/2000/svg" xmlns:xlink="http://www.w3.org/1999/xlink"><linearGradient id="a" gradientUnits="userSpaceOnUse" x1="19.2516" x2="17.1334" y1="12.4767" y2="16.5845"><stop offset="0" stop-color="#1e37dc"/><stop offset="1" stop-color="#f2018a"/></linearGradient><path d="m16 32c8.8366 0 16-7.1634 16-16 0-8.83656-7.1634-16-16-16-8.83656 0-16 7.16344-16 16 0 8.8366 7.16344 16 16 16z" fill="#091724"/><path d="m12.5422 10c.2317 0 .4543.0904.6205.2519l.009.0089 3.752 3.754c.3281.3282.7688.5192 1.2327.5341.4638.0149.9159-.1475 1.2643-.454l.0218-.0194 2.7508-2.4991c.0477-.0434.0812-.1002.096-.1629.0149-.0628.0104-.1285-.0129-.1887-.0232-.0601-.0641-.1118-.1173-.1483s-.1161-.056-.1806-.056h-2.0811c-.0831 0-.1629.0324-.2226.0903l-1.9167 1.8609c-.0869.084-.2036.1302-.3244.1283-.1209-.0019-.236-.0517-.3202-.1384s-.1306-.2032-.129-.3241c.0017-.1208.0512-.2361.1377-.3205l2.0164-1.9575c.1629-.1582.3802-.2482.6073-.2514l.0126-.0001h3.1056c.1785 0 .3529.0537.5006.1541.1476.1004.2616.243.3271.409.0656.1661.0796.3481.0404.5223-.0393.1741-.13.3325-.2605.4544l-.0092.0085-3.4064 3.0946c-.5152.4681-1.1893.7224-1.8853.7112s-1.3616-.2871-1.8615-.7714l-.0312-.0308-3.6518-3.6537c-.0297-.0296-.0649-.0532-.1037-.0693-.0387-.016-.0803-.0243-.1223-.0243h-2.036c-.0626 0-.1238.0184-.1761.0529-.0522.0345-.0931.0836-.1177.1412-.0246.0575-.0317.121-.0205.1826s.0403.1185.0836.1637l2.4056 2.5115c.4968.5186.7699 1.2118.7603 1.93-.0095.7182-.301 1.4038-.8115 1.9091l-.0324.0316-.0137.013-.0138.0129-2.64323 2.462c-.04694.0438-.07963.1006-.09382.1632-.01418.0625-.0092.1279.01429.1876s.06441.1109.11743.147.11568.0554.17983.0554h2.0982c.0784 0 .1541-.0288.2126-.081l3.9861-3.5541c.5002-.4459 1.1465-.693 1.8166-.6944s1.3174.2429 1.8195.6867l.0312.0281 3.5 3.1913c.1318.1202.2244.2773.2658.4508s.0297.3555-.0336.5223-.1752.3107-.3213.4131c-.1462.1023-.3197.1584-.4981.1609h-3.1113c-.1183 0-.2354-.0236-.3445-.0694-.109-.0457-.2079-.1128-.2907-.1972l-.0088-.009-2.0268-2.1249c-.0835-.0876-.1288-.2047-.126-.3257.0029-.121.0537-.2358.1412-.3193l.0001-.0001c.0876-.0835.2047-.1288.3257-.126.121.0029.2359.0537.3195.1413l1.9257 2.0189c.0298.0313.0656.0562.1054.0732.0397.017.0825.0258.1257.0258h2.069c.0645 0 .1274-.0195.1806-.0559s.0941-.088.1174-.1481.0279-.1259.0131-.1886c-.0148-.0628-.0482-.1196-.0958-.163l-2.8472-2.5961c-.3301-.301-.7592-.4705-1.2059-.4764-.4466-.0059-.88.1522-1.218.4443l-.021.0185-4.0834 3.6409c-.1598.1425-.3656.2226-.5797.2256l-.0126.0001h-3.0983c-.17742 0-.35078-.053-.49783-.1523-.14706-.0992-.26108-.2401-.32743-.4047-.06636-.1645-.08201-.3451-.04494-.5186.03706-.1735.12514-.332.25294-.455l.01069-.0102 3.27957-3.0547.0183-.0173c.3458-.3312.5477-.785.562-1.2636s-.1601-.9437-.4856-1.2949l-.0207-.022-2.96019-3.0905c-.11974-.125-.20041-.2822-.23213-.4524-.03171-.1701-.01311-.3459.05354-.5056.06666-.1598.17846-.2966.32172-.3938s.31175-.1504.48483-.1533z" fill="url(#a)"/></svg>