<svg xmlns="http://www.w3.org/2000/svg" width="32" height="32" fill="none"><defs><linearGradient id="xpr__a" x1="4.574" x2="28.936" y1="16" y2="17.132" gradientUnits="userSpaceOnUse"><stop stop-color="#7543E3"/><stop offset="1" stop-color="#582ACB"/></linearGradient></defs><circle cx="16" cy="16" r="16" fill="url(#xpr__a)"/><path fill="#fff" fill-rule="evenodd" d="M15.993 6c1.293 0 2.408 1.331 3.143 3.494a18.3 18.3 0 0 0-.906.276c-.61-1.79-1.448-2.843-2.237-2.843-.89 0-1.84 1.336-2.458 3.555.242.078.485.16.734.25.586.216 1.163.456 1.73.72l.1-.048c.415-.189.834-.365 1.259-.529 1.113-.426 2.189-.732 3.173-.894 2.12-.35 3.611.012 4.196 1.019.587 1.007.158 2.467-1.207 4.113-.08.094-.16.189-.243.283a15.28 15.28 0 0 0-.651-.672c1.205-1.385 1.68-2.596 1.292-3.26-.366-.63-1.574-.841-3.233-.569-.37.063-.738.141-1.102.236.054.246.105.498.15.758.101.583.18 1.2.237 1.841.288.2.571.407.85.62 1.071.822 1.991 1.684 2.7 2.537 1.365 1.646 1.794 3.106 1.207 4.113-.44.756-1.39 1.148-2.736 1.148-.444 0-.932-.042-1.46-.13a12.712 12.712 0 0 1-.415-.075c.084-.287.161-.588.232-.9.114.023.226.043.337.062 1.658.272 2.867.06 3.233-.569.445-.764-.25-2.25-1.884-3.894-.166.15-.334.296-.505.44-.026.021-.052.044-.078.064a22.16 22.16 0 0 1-1.483 1.127c-.024.286-.054.572-.09.857-.509 4.074-2.01 6.87-3.885 6.87-1.29 0-2.405-1.327-3.14-3.485.305-.082.607-.174.906-.275.61 1.784 1.445 2.833 2.234 2.833.89 0 1.841-1.34 2.46-3.566-.246-.077-.491-.16-.734-.249a22.114 22.114 0 0 1-1.721-.708l-.037.017c-.328.15-.65.291-.968.421-.05.02-.097.04-.145.057-1.83.731-3.502 1.11-4.831 1.11-1.324 0-2.306-.376-2.76-1.155-.65-1.115-.035-2.748 1.503-4.47l.653.683c-1.244 1.412-1.738 2.65-1.346 3.323.445.764 2.086.911 4.334.333a18.689 18.689 0 0 1-.148-.756 22.048 22.048 0 0 1-.237-1.838 24.16 24.16 0 0 1-.848-.614C8.563 15.674 7 13.564 7 11.993c0-.363.084-.696.257-.993.646-1.109 2.363-1.401 4.617-.954a15.48 15.48 0 0 0-.236.911c-1.852-.363-3.18-.168-3.57.507-.445.763.247 2.246 1.876 3.887a22.024 22.024 0 0 1 2.074-1.627c.025-.292.054-.58.09-.86C12.617 8.795 14.12 6 15.992 6Zm2.959 12.944a25.981 25.981 0 0 1-1.749 1.007c-.04.022-.08.041-.121.063.522.22 1.054.417 1.593.591.055-.253.105-.515.152-.787.047-.281.087-.575.125-.874Zm-5.922-.001c.04.314.085.62.136.914.044.258.093.506.146.747.151-.048.304-.1.46-.154l.14-.05c.331-.117.658-.245.981-.381l.01-.004a27.264 27.264 0 0 1-.948-.517c-.016-.01-.033-.018-.05-.03a26.987 26.987 0 0 1-.875-.525Zm2.963-6.465a25.177 25.177 0 0 0-3.077 1.76 24.7 24.7 0 0 0 0 3.522 25.326 25.326 0 0 0 3.077 1.761l.101-.047a25.026 25.026 0 0 0 2.974-1.712 24.458 24.458 0 0 0 0-3.522 25.189 25.189 0 0 0-3.076-1.761Zm0 2.33c.664 0 1.202.534 1.202 1.192 0 .659-.538 1.192-1.202 1.192A1.197 1.197 0 0 1 14.79 16c0-.659.539-1.192 1.203-1.192Zm4.054.124c.013.35.02.706.02 1.068v.262c-.004.274-.012.543-.023.81.241-.18.472-.361.693-.542l.082-.066c.186-.156.365-.31.537-.464a19.08 19.08 0 0 0-1.31-1.068Zm-8.106-.003A20.086 20.086 0 0 0 10.629 16a17.842 17.842 0 0 0 1.31 1.069A27.19 27.19 0 0 1 11.918 16c0-.087 0-.175.002-.261.002-.273.01-.543.02-.81Zm6.732-3.534c-.51.164-1.012.35-1.506.556l-.081.035c.313.163.628.335.944.516.016.01.033.018.05.03.298.17.589.347.875.526a18.849 18.849 0 0 0-.281-1.663Zm-5.362 0c-.118.549-.21 1.102-.278 1.659.285-.179.579-.355.88-.528l.042-.024c.313-.179.63-.35.949-.516a20.451 20.451 0 0 0-1.593-.59Z" clip-rule="evenodd"/></svg>