<svg fill="none" height="32" viewBox="0 0 32 32" width="32" xmlns="http://www.w3.org/2000/svg"><path d="m15.9991 31.8801c8.7703 0 15.88-7.1097 15.88-15.88 0-8.77026-7.1097-15.879983-15.88-15.879983-8.77024 0-15.879959 7.109723-15.879959 15.879983 0 8.7703 7.109719 15.88 15.879959 15.88z" fill="#fff"/><path d="m16 32c-3.1645 0-6.25793-.9384-8.88912-2.6965-2.63118-1.7581-4.68194-4.2569-5.89295-7.1806-1.21099726-2.9236-1.527851-6.1406-.910487-9.2443.617363-3.10373 2.141217-5.95466 4.378857-8.1923s5.08857-3.761494 8.1923-4.378857c3.1037-.617364 6.3207-.30051026 9.2443.910487 2.9237 1.21101 5.4225 3.26177 7.1806 5.89295 1.7581 2.63119 2.6965 5.72462 2.6965 8.88912 0 4.2435-1.6857 8.3131-4.6863 11.3137s-7.0702 4.6863-11.3137 4.6863zm0-31.749993c-3.115 0-6.16015.923723-8.75022 2.654353-2.59008 1.73063-4.6088 4.19045-5.80088 7.06838-1.192076 2.87796-1.5039779 6.04476-.896261 9.09996.607721 3.0552 2.107761 5.8616 4.310441 8.0642 2.20267 2.2027 5.00905 3.7028 8.06422 4.3105 3.0552.6077 6.222.2958 9.1-.8963 2.8779-1.1921 5.3377-3.2108 7.0684-5.8009 1.7306-2.59 2.6543-5.6351 2.6543-8.7502-.0026-4.1763-1.6629-8.18088-4.616-11.134s-6.9576-4.613344-11.134-4.615993z" fill="#5fcadd"/><path d="m11.1797 7.33984h15.92v5.13996h-15.92z" fill="#02a6c2"/><path d="m11.1804 14.4297h11.51v5.14h-11.51zm-6.28001 0h5.14001v5.14h-5.14001z" fill="#5fcadd"/><path d="m11.1895 21.5195h5.14v5.14h-5.14z" fill="#abebf4"/></svg>