<svg fill="none" height="32" viewBox="0 0 32 32" width="32" xmlns="http://www.w3.org/2000/svg"><path d="m16 32c8.8366 0 16-7.1634 16-16 0-8.83656-7.1634-16-16-16-8.83656 0-16 7.16344-16 16 0 8.8366 7.16344 16 16 16z" fill="#23292f"/><path d="m23.07 8h2.89l-6.015 5.957c-1.0516 1.0361-2.4687 1.6169-3.945 1.6169s-2.8934-.5808-3.945-1.6169l-6.02-5.957h2.895l4.57 4.523c.6655.6569 1.5629 1.0252 2.498 1.0252s1.8325-.3683 2.498-1.0252zm-14.175 16.563h-2.895l6.055-5.993c1.0516-1.0361 2.4687-1.6169 3.945-1.6169s2.8934.5808 3.945 1.6169l6.055 5.992h-2.895l-4.605-4.562c-.6655-.6569-1.5629-1.0252-2.498-1.0252s-1.8325.3683-2.498 1.0252l-4.61 4.563z" fill="#fff"/></svg>