<svg fill="none" height="32" viewBox="0 0 32 32" width="32" xmlns="http://www.w3.org/2000/svg"><path d="m16 32c8.8366 0 16-7.1634 16-16 0-8.83656-7.1634-16-16-16-8.83656 0-16 7.16344-16 16 0 8.8366 7.16344 16 16 16z" fill="#2f7dfb"/><path clip-rule="evenodd" d="m18.19 26c-1.46 0-2.524-.344-3.192-1.03-.667-.688-1.001-1.429-1.001-2.223 0-.29.058-.535.175-.733.1141-.1965.2788-.3588.477-.47.202-.114.45-.172.745-.172s.544.058.746.172c.202.115.36.271.477.47.117.198.175.443.175.733 0 .351-.085.637-.256.859-.1499.2065-.3624.3591-.606.435.202.275.52.47.955.584.435.123.87.184 1.304.184.5833.0068 1.1554-.1607 1.643-.481.489-.321.85-.795 1.082-1.42.233-.627.35-1.337.35-2.131 0-.863-.128-1.6-.384-2.211-.249-.619-.618-1.077-1.107-1.375-.4759-.2939-1.0247-.4484-1.584-.446-.372 0-.838.152-1.397.458l-1.025.504v-.504l4.612-6.048h-6.382v6.277c0 .52.116.947.35 1.283.232.336.59.504 1.07.504.373 0 .73-.122 1.072-.367.343-.2459.6422-.5478.885-.893.024-.0601.0646-.1121.117-.15.0422-.0358.0957-.0556.151-.056.086 0 .186.042.303.125.1061.1156.1644.2671.163.424-.0133.108-.0327.2152-.058.321-.264.58-.63 1.023-1.095 1.329-.4554.3021-.9905.4616-1.537.458-1.382 0-2.337-.267-2.865-.802-.528-.534-.792-1.26-.792-2.176v-6.277h-3.261v-1.169h3.26v-2.656l-.744-.734v-.596h2.166l.815.412v3.574l8.431-.023.84.825-5.172 5.086c.3133-.1232.6427-.2006.978-.23.56 0 1.188.176 1.887.528.707.343 1.25.817 1.63 1.42.381.596.626 1.169.734 1.719.1087.4813.1673.9726.175 1.466.0073.9455-.2082 1.8793-.629 2.726-.4044.8251-1.0782 1.4876-1.91 1.878-.8644.4148-1.8122.6265-2.771.619z" fill="#fff" fill-rule="evenodd"/></svg>