<svg xmlns="http://www.w3.org/2000/svg" width="32" height="32" fill="none"><defs><linearGradient id="xvs__a" x1="3.367" x2="28.283" y1="26.062" y2="6.217" gradientUnits="userSpaceOnUse"><stop stop-color="#F8B342"/><stop offset="1" stop-color="#F2C35E"/></linearGradient></defs><path fill="url(#xvs__a)" d="M16 32c8.836 0 16-7.164 16-16S24.836 0 16 0 0 7.164 0 16s7.164 16 16 16Z"/><path fill="#fff" d="M24.165 16.89H7.835a.99.99 0 0 0-.987.988.99.99 0 0 0 .988.988h4.102l2.78 7.342a.991.991 0 0 0 .975.636.99.99 0 0 0 .974-.636l2.78-7.342h4.718a.99.99 0 0 0 .988-.988.99.99 0 0 0-.988-.988Zm-8.473 6.312-1.642-4.337h3.284l-1.642 4.337Zm-7.856-8.155h16.33a.99.99 0 0 0 .987-.988.99.99 0 0 0-.988-.987h-2.524l2.036-5.377a.99.99 0 0 0-.574-1.273.99.99 0 0 0-1.274.574l-2.3 6.076h-7.673L9.555 6.996a.99.99 0 0 0-1.273-.574.99.99 0 0 0-.574 1.273l2.036 5.377H7.836a.99.99 0 0 0-.988.987.99.99 0 0 0 .988.988Z"/></svg>