<svg fill="none" height="32" viewBox="0 0 32 32" width="32" xmlns="http://www.w3.org/2000/svg" xmlns:xlink="http://www.w3.org/1999/xlink"><linearGradient id="a" gradientUnits="userSpaceOnUse" x1="3.36655" x2="28.2829" y1="26.0618" y2="6.21709"><stop offset="0" stop-color="#f8b342"/><stop offset="1" stop-color="#f2c35e"/></linearGradient><path d="m16 32c8.8364 0 16-7.1636 16-16 0-8.83636-7.1636-16-16-16-8.83636 0-16 7.16364-16 16 0 8.8364 7.16364 16 16 16z" fill="url(#a)"/><path d="m24.1649 16.8909h-16.32912c-.26164.0008-.51235.105-.69739.29s-.28938.4356-.29025.6973c.00068.2618.10493.5126.29.6977.18506.1852.43588.2895.69764.2903h4.10252l2.78 7.3414c.0746.1952.209.3618.384.4761.1749.1142.3815.1702.5902.1599.2087.0103.4153-.0457.5903-.1599.1749-.1143.3093-.2809.3839-.4761l2.78-7.3418h4.7185c.2617-.0007.5125-.105.6976-.2901.185-.185.2893-.4358.2901-.6975-.0008-.2617-.1051-.5125-.2901-.6975-.1851-.1851-.4359-.2894-.6976-.2902zm-8.4728 6.3113-1.6421-4.3367h3.2843l-1.6422 4.3363zm-7.85632-8.1549h16.32942c.2618-.0008.5126-.1051.6977-.2903.185-.1851.2893-.436.29-.6977-.0008-.2617-.1051-.5125-.2901-.6975-.1851-.1851-.4359-.2894-.6976-.2902h-2.5243l2.0356-5.37632c.092-.24502.0833-.51648-.0242-.75508-.1076-.23861-.3051-.42497-.5496-.51838-.2451-.09196-.5166-.08319-.7552.0244s-.4249.30524-.5183.54979l-2.3011 6.07559h-7.6723l-2.30075-6.07559c-.09341-.24448-.27975-.44208-.51834-.54966-.23859-.10757-.51004-.11639-.75511-.02453-.24448.09341-.44205.27977-.54957.51838-.10751.2386-.11623.51006-.02425.75508l2.036 5.37632h-1.908c-.2617.0008-.51246.1051-.69752.2902-.18505.185-.28935.4358-.29012.6975.00077.2617.10507.5124.29012.6975.18506.185.43582.2893.69752.2901z" fill="#fff"/></svg>