<svg xmlns="http://www.w3.org/2000/svg" width="32" height="32" fill="none"><defs><linearGradient id="xym__a" x1="19.001" x2="12.254" y1="25.536" y2="15.148" gradientUnits="userSpaceOnUse"><stop stop-color="#44004E"/><stop offset=".073" stop-color="#480052"/><stop offset=".151" stop-color="#55005E"/><stop offset=".231" stop-color="#6B0073"/><stop offset=".314" stop-color="#89008F"/><stop offset=".397" stop-color="#AF00B4"/><stop offset=".48" stop-color="#DE00E0"/><stop offset=".532" stop-color="#F0F"/></linearGradient><linearGradient id="xym__b" x1="23.598" x2="18.217" y1="7.094" y2="18.127" gradientUnits="userSpaceOnUse"><stop stop-color="#44004E"/><stop offset=".073" stop-color="#480052"/><stop offset=".151" stop-color="#55005E"/><stop offset=".231" stop-color="#6B0073"/><stop offset=".314" stop-color="#89008F"/><stop offset=".397" stop-color="#AF00B4"/><stop offset=".48" stop-color="#DE00E0"/><stop offset=".532" stop-color="#F0F"/></linearGradient><linearGradient id="xym__c" x1="5.393" x2="17.714" y1="12.345" y2="11.591" gradientUnits="userSpaceOnUse"><stop stop-color="#44004E"/><stop offset=".073" stop-color="#480052"/><stop offset=".151" stop-color="#55005E"/><stop offset=".231" stop-color="#6B0073"/><stop offset=".314" stop-color="#89008F"/><stop offset=".397" stop-color="#AF00B4"/><stop offset=".48" stop-color="#DE00E0"/><stop offset=".532" stop-color="#F0F"/></linearGradient></defs><path fill="#fff" d="M16 32c8.837 0 16-7.163 16-16S24.837 0 16 0 0 7.163 0 16s7.163 16 16 16Z"/><path fill="url(#xym__a)" d="m19.032 25.516-5.864.097v-9.087l2.858-3.827 3.006 3.827v8.99Z"/><path fill="url(#xym__b)" d="m18.81 16.645-4.744-.543 1.816-4.51.055-.032 7.707-4.443 3.034 4.984-7.869 4.544Z"/><path fill="url(#xym__c)" d="m13.175 16.784-7.784-4.492 2.845-5.036 7.893 4.601 1.861 4.24-4.815.687Z"/><path fill="#44004E" d="M16.026 26.521a8.901 8.901 0 0 1-2.418-.315.806.806 0 0 1-.58-.774l-.003-8.839c-.015-1.292-.546-2.391-1.533-3.18-1.357-1.08-3.47-1.473-5.512-1.027a.795.795 0 0 1-.782-.258.795.795 0 0 1-.146-.809c.233-.625.53-1.367.97-2.126a8.855 8.855 0 0 1 1.483-1.935.81.81 0 0 1 .963-.116l7.46 4.306.2.117c1.141.633 2.35.72 3.52.258 1.613-.635 3.01-2.267 3.647-4.26a.798.798 0 0 1 .615-.548.796.796 0 0 1 .774.278c.424.514.918 1.144 1.357 1.903.543.94.809 1.744.935 2.252a.807.807 0 0 1-.38.89l-7.503 4.335-.204.119c-1.089.662-1.759 1.672-1.937 2.914-.246 1.707.471 3.722 1.87 5.26a.8.8 0 0 1 .166.806.793.793 0 0 1-.627.53c-.668.105-1.459.219-2.335.219Z"/></svg>