<svg fill="none" height="32" viewBox="0 0 32 32" width="32" xmlns="http://www.w3.org/2000/svg" xmlns:xlink="http://www.w3.org/1999/xlink"><linearGradient id="a"><stop offset="0" stop-color="#44004e"/><stop offset=".0728" stop-color="#480052"/><stop offset=".1508" stop-color="#55005e"/><stop offset=".2313" stop-color="#6b0073"/><stop offset=".3135" stop-color="#89008f"/><stop offset=".397" stop-color="#af00b4"/><stop offset=".4804" stop-color="#de00e0"/><stop offset=".5325" stop-color="#f0f"/></linearGradient><linearGradient id="b" gradientUnits="userSpaceOnUse" x1="19.0007" x2="12.2544" xlink:href="#a" y1="25.5362" y2="15.1478"/><linearGradient id="c" gradientUnits="userSpaceOnUse" x1="23.5982" x2="18.2172" xlink:href="#a" y1="7.09399" y2="18.1267"/><linearGradient id="d" gradientUnits="userSpaceOnUse" x1="5.39271" x2="17.7144" xlink:href="#a" y1="12.3449" y2="11.5913"/><path d="m16 32c8.8366 0 16-7.1634 16-16 0-8.83656-7.1634-16-16-16-8.83656 0-16 7.16344-16 16 0 8.8366 7.16344 16 16 16z" fill="#fff"/><path d="m19.0323 25.5164-5.8643.0968v-9.0868l2.8577-3.8277 3.0066 3.8277z" fill="url(#b)"/><path d="m18.8095 16.6455-4.7431-.5433 1.8159-4.5099.0545-.0322 7.7075-4.44291 3.0339 4.98371z" fill="url(#c)"/><path d="m13.175 16.7842-7.78438-4.4925 2.84535-5.03584 7.89353 4.60164 1.8605 4.2395z" fill="url(#d)"/><path d="m16.0265 26.521c-1.0841 0-1.9126-.1712-2.4187-.3151-.3423-.0967-.5805-.4167-.5805-.774l-.0025-8.8386c-.0148-1.2925-.5457-2.3914-1.533-3.1803-1.357-1.0791-3.47051-1.4735-5.51211-1.027-.29272.0645-.58545-.0322-.78142-.258-.19597-.2257-.25055-.5284-.14636-.8087.23319-.6251.53087-1.36683.96995-2.12592.54327-.94017 1.10638-1.57027 1.48345-1.93493.25551-.24807.65242-.2952.96251-.11659l7.45938 4.30644.201.1166c1.1411.6326 2.3492.7194 3.5201.258 1.6124-.6351 3.009-2.26734 3.6466-4.25933.0918-.28528.32-.49117.6152-.54823.2927-.05706.5829.04714.774.27784.4242.5135.9178 1.14359 1.3569 1.90268.5433.94014.8087 1.74394.9352 2.25244.0868.3448-.0695.712-.3795.8906l-7.5041 4.3337-.2034.1191c-1.089.6624-1.7588 1.672-1.9374 2.9148-.2456 1.7067.4713 3.7211 1.8704 5.2591.2009.2232.2629.5234.1662.8062s-.3324.4813-.6276.5309c-.6673.1042-1.4587.2183-2.3343.2183z" fill="#44004e"/></svg>