<svg xmlns="http://www.w3.org/2000/svg" width="32" height="32" fill="none"><path fill="#FF2E84" d="M14.947 0h1.949c4.083.26 8.053 2.088 10.824 5.114 2.545 2.699 4.016 6.31 4.28 9.996v1.775c-.27 3.766-1.802 7.453-4.448 10.168-2.759 2.93-6.66 4.672-10.663 4.947h-1.932c-1.4-.166-2.802-.394-4.135-.864-4.097-1.38-7.561-4.51-9.36-8.443C.587 20.83.128 18.79.002 16.74v-1.637c.25-3.968 1.975-7.827 4.85-10.584C7.543 1.869 11.196.302 14.948 0Z"/><path fill="#fff" d="M5.9 17.478c-.15-1.033-.047-2.121.431-3.059.784-1.691 2.598-2.841 4.462-2.825.687-.039 1.35.155 2.012.3a26.19 26.19 0 0 0-.592-1.716 3.89 3.89 0 0 1 1.361-.468c.458 1.48 1.056 2.91 1.53 4.386-1.491.408-2.965.882-4.466 1.254-.187-.441-.323-.904-.331-1.388.62-.19 1.274-.29 1.877-.532l.105-.201c-.868-.264-1.816-.344-2.68-.007-1.436.49-2.419 1.984-2.379 3.488.063.996.498 1.986 1.279 2.624 1.288 1.157 3.438 1.13 4.712-.036.481-.415.764-1.002 1.198-1.46.566-.164 1.18-.048 1.763-.065-.838 1.182-1.6 2.528-2.91 3.248-1.565.891-3.608.803-5.112-.173-1.162-.76-2.02-1.995-2.26-3.37Z"/><path fill="#fff" d="M9.672 17.149a31.92 31.92 0 0 1 0-1.418c1.705-.099 3.414-.024 5.123-.046 2.626.099 5.253.025 7.88.053.029.473.032.948-.02 1.42-4.329-.006-8.657.002-12.983-.01Z"/><path fill="#fff" d="M16.425 15.077c.882-1.43 2.007-2.91 3.732-3.322 2.761-.835 5.945 1.24 6.259 4.115.536 2.597-1.466 5.298-4.055 5.696-1.097.274-2.16-.184-3.152-.6.106.607.224 1.212.38 1.808-.455.19-.946.239-1.434.261-.227-1.53-.722-3.016-.853-4.56 1.531-.189 3.053-.465 4.592-.576.087.455.15.914.19 1.375-.716.13-1.443.185-2.16.308 1.404 1.215 3.661.464 4.567-1.01.945-1.382.71-3.402-.517-4.537-1.107-1.145-3.008-1.353-4.35-.505-.643.361-1.04 1.001-1.495 1.558-.57.016-1.137.029-1.704-.011Z"/></svg>