<svg fill="none" height="32" viewBox="0 0 32 32" width="32" xmlns="http://www.w3.org/2000/svg"><path d="m14.947 0h1.9488c4.0832.2592 8.0528 2.088 10.824 5.1136 2.5456 2.6992 4.0159 6.3104 4.2799 9.9968v1.7744c-.2688 3.7664-1.8015 7.4528-4.4479 10.168-2.7584 2.9296-6.6592 4.672-10.6624 4.9472h-1.9328c-1.4-.1664-2.8016-.3936-4.1344-.864-4.09756-1.3808-7.56155-4.5104-9.35994-8.4432-.875197-1.8624-1.334396-3.9024-1.46079516-5.952v-1.6368c.24959916-3.968 1.97599516-7.8272 4.85118516-10.584 2.68959-2.6512 6.34235-4.2176 10.09435-4.52z" fill="#ff2e84"/><g fill="#fff"><path d="m5.9006 17.4784c-.1504-1.0336-.048-2.1216.4304-3.0592.78401-1.6912 2.59842-2.8416 4.4624-2.8256.6864-.0384 1.3504.1552 2.0112.3008-.1728-.5792-.3792-1.1504-.592-1.7168.4256-.23201.8784-.40481 1.3616-.46721.4576 1.48001 1.0561 2.91041 1.5297 4.38561-1.4913.408-2.9649.8816-4.4657 1.2544-.1872-.4416-.3232-.904-.3312-1.3888.6208-.1904 1.2736-.2896 1.8768-.5312.0272-.0496.08-.152.1056-.2016-.8688-.264-1.816-.344-2.67998-.0064-1.43681.4896-2.41921 1.984-2.37921 3.488.0624.9952.4976 1.9856 1.27841 2.624 1.288 1.1568 3.43838 1.1296 4.71198-.0368.4816-.4144.7648-1.0016 1.1985-1.4592.5664-.1648 1.1792-.048 1.7632-.0656-.8384 1.1824-1.6 2.528-2.9105 3.248-1.5648.8912-3.60798.8032-5.11199-.1728-1.1616-.76-2.01921-1.9952-2.25921-3.3696z"/><path d="m9.67187 17.1488c-.0112-.4736-.0096-.9456 0-1.4176 1.70563-.0992 3.41443-.024 5.12323-.0464 2.6256.0992 5.2528.0256 7.88.0528.0288.4736.032.9488-.0208 1.4208-4.328-.0064-8.656.0016-12.98243-.0096z"/><path d="m16.4253 15.0768c.8816-1.4304 2.0064-2.9104 3.7312-3.3216 2.7616-.8352 5.9456 1.24 6.2592 4.1152.536 2.5968-1.4656 5.2976-4.0544 5.696-1.0976.2736-2.16-.184-3.152-.6.1056.6064.224 1.2112.3792 1.808-.4544.1904-.9456.2384-1.4336.2608-.2272-1.5296-.7216-3.016-.8528-4.56 1.5312-.1888 3.0528-.4656 4.592-.576.0864.4544.1504.9136.1904 1.3744-.7168.1296-1.4432.1856-2.16.3088 1.4032 1.2144 3.6608.464 4.5664-1.0096.9456-1.3824.7104-3.4032-.5168-4.5376-1.1072-1.1456-3.008-1.3536-4.3504-.5056-.6432.3616-1.04 1.0016-1.4944 1.5584-.5696.016-1.1376.0288-1.704-.0112z"/></g></svg>