<svg fill="none" height="32" viewBox="0 0 32 32" width="32" xmlns="http://www.w3.org/2000/svg" xmlns:xlink="http://www.w3.org/1999/xlink"><linearGradient id="a" gradientUnits="userSpaceOnUse" x1="8.53126" x2="25.5488" y1="20.1146" y2="10.2895"><stop offset="0" stop-color="#ba984b"/><stop offset=".5" stop-color="#e7db83"/><stop offset=".62471" stop-color="#d4bf6b"/><stop offset=".75229" stop-color="#c6ab5a"/><stop offset=".87834" stop-color="#be9e50"/><stop offset="1" stop-color="#bb9a4c"/></linearGradient><linearGradient id="b"><stop offset="0" stop-color="#4f8eed"/><stop offset="1" stop-color="#2957a3"/></linearGradient><linearGradient id="c" gradientUnits="userSpaceOnUse" x1="9.49655" x2="20.5696" xlink:href="#b" y1="16.2308" y2="16.2308"/><linearGradient id="d" gradientUnits="userSpaceOnUse" x1="9.49658" x2="20.5697" xlink:href="#b" y1="16.2308" y2="16.2308"/><linearGradient id="e" gradientUnits="userSpaceOnUse" x1="3.74301" x2="28.257" y1="5.71516" y2="26.2848"><stop offset="0" stop-color="#f1e888"/><stop offset=".5" stop-color="#b68c47"/><stop offset="1" stop-color="#cdb061"/></linearGradient><linearGradient id="f"><stop offset="0" stop-color="#fff"/><stop offset="1" stop-color="#0ff"/></linearGradient><radialGradient id="g" cx="19.9165" cy="21.5138" gradientUnits="userSpaceOnUse" r=".249" xlink:href="#f"/><radialGradient id="h" cx="12.0508" cy="21.5138" gradientUnits="userSpaceOnUse" r=".249" xlink:href="#f"/><radialGradient id="i" cx="16.0688" cy="7.55698" gradientUnits="userSpaceOnUse" r=".249" xlink:href="#f"/><clipPath id="j"><path d="m0 0h32v32h-32z"/></clipPath><g clip-path="url(#j)"><path d="m24.9953 9.33091c.1536 2.52499-.0542 5.05889-.6171 7.52509-.5706 3.1092-2.1191 5.955-4.4199 8.1227-.8981.7583-1.9156 1.3626-3.0111 1.7883-.4401.2301-.9519.2823-1.4294.1457-1.9879-.6598-3.7295-1.9059-4.9956-3.5744-1.70781-2.3942-2.80239-5.1706-3.18785-8.086-.32425-1.9483-.4419-3.9255-.351-5.89848 2.955-1.44766 8.94115-4.22573 8.94115-4.22573l-.0006-.12809h.1356l.0013.12813s5.9784 2.80675 8.9345 4.20278zm-17.34091.51047c.01147.85342.01835 1.70692.08947 2.55692.14496 3.427 1.12595 6.7666 2.85744 9.7275 1.2453 1.9983 3.1526 3.4959 5.3892 4.2317.467-.1386.9204-.3195 1.3547-.5403 2.273-1.1845 4.0593-3.1278 5.0484-5.4923 1.3903-3.3181 2.0668-6.8915 1.9857-10.48811-2.7806-1.36621-5.591-2.67163-8.3865-4.00572-2.7646 1.36736-5.5739 2.64524-8.33841 4.01031zm.53914.35562c2.59137-1.29167 5.22397-2.50072 7.83477-3.75337 2.5764 1.28018 5.1953 2.47432 7.7774 3.74297.0748 3.7584-.7499 7.4802-2.4054 10.8552-1.1317 2.2125-3.0687 3.9069-5.4121 4.7341-1.3126-.4786-2.5076-1.2327-3.5045-2.2116-1.346-1.4116-2.3578-3.1075-2.96067-4.9624-.88314-2.7141-1.33184-5.5507-1.3295-8.4049zm3.05477-.46802c.9292-.06768 1.8606-.04473 2.7909-.086.3407.23516.6814.46922 1.0198.70892.4256.9911.9418 1.9432 1.4385 2.901.3618-.6777.6653-1.385.9074-2.1141.046-.1768.03-.364-.0454-.5304s-.2055-.3019-.3687-.3839c-.2639-.1055-.1664-.40492-.1492-.61943 1.2056.00459 2.4113-.047 3.6169-.031-1.1471-.62862-2.3631-1.13679-3.5366-1.71952-.3017.312-.608.61829-.9154.92343-.3063-.30858-.6114-.61945-.9234-.92228-1.2664.64815-2.5833 1.19991-3.8348 1.8733zm5.8204.148c.219.12229.3958.30792.5074.53242.1115.2246.1526.4776.1178.726-.3165.9708-.7176 1.912-1.1987 2.8127-.5816-1.1196-1.1207-2.261-1.7012-3.3806-.2591-.2337-.5408-.4412-.8408-.6194-1.4855.02983-2.971.0837-4.45655.0665.4664.3447.85005.7891 1.12305 1.3009.9739 1.7837 1.9328 3.5767 2.9079 5.3604.0802.1217.121.265.117.4107-.0012 1.1517.0023 2.3026.0103 3.4528.0282.465-.0458.9306-.2168 1.3639-.1586.2791-.3675.5264-.616.7296l.0505-.0069c.28.2253.582.4217.9016.5862 1.7253.0011 3.4505-.0849 5.1769-.0941-.3148-.2999-.5601-.6652-.7186-1.07-.1585-.4049-.2265-.8396-.1991-1.2735.0115-1.1391-.0562-2.2908.0127-3.4242 1.1207-2.3091 2.2521-4.6137 3.3943-6.9136-.2937-.1973-.585-.3981-.8707-.60803-1.1677.00343-2.3332.06194-3.501.04817zm4.0425-.008c.1766.14572.3705.26612.5471.41182.0953.1583-.016.3464-.078.4967-1.0438 2.1279-2.066 4.2673-3.1155 6.3929-.2684.4645-.0918 1.0197-.1331 1.5268-.0608 1.1335.0073 2.2703.203 3.3885.491-.6194.92-1.2893 1.3731-1.9374.328.1007.6485.2245.959.3705 1.4714-3.0354 2.2004-6.377 2.1268-9.7493-.6118-.332-1.2401-.6325-1.8824-.90059zm-12.06995.90852c-.08208 3.3531.62893 6.6782 2.07515 9.7045.2673-.1204.5391-.2294.8144-.3304.3946.5816.811 1.1483 1.1999 1.7333.2061-.4181.2941-.8845.2547-1.349-.0264-1.0714-.0421-2.142-.047-3.2119.0209-.1739-.0053-.3501-.0757-.5105-.9716-1.7814-1.9329-3.5698-2.9057-5.3513-.1947-.3685-.45158-.7007-.75937-.9819-.1928.0847-.37881.184-.55638.2971zm4.50015 12.6928c.7347.5712 1.5598 1.0155 2.441 1.3146.9398-.283 1.8103-.7588 2.5558-1.3972-1.6645.0676-3.3312.0745-4.9968.0825z" fill="url(#a)"/><path d="m22.498 20.3721c1.4047-3.3304 2.0851-6.9214 1.9958-10.53473l.0004-.07187-.0645-.03164c-1.8839-.92565-3.8126-1.83813-5.6779-2.72059-.9038-.42759-1.807-.85615-2.7098-1.28569l-.0503-.024-.05.0247c-1.3956.69028-2.8264 1.369-4.2103 2.02548-1.3564.64346-2.75904 1.30882-4.12797 1.98482l-.06486.032.00325.24482c.01025.7845.02089 1.5957.08754 2.3925.13724 3.4471 1.12494 6.8067 2.87514 9.7796 1.2559 2.0244 3.1865 3.54 5.4512 4.2794l.0297.0094.0303-.0069c.3554-.094.6999-.2248 1.0281-.3903.1155-.0534.2307-.1066.3466-.1565 2.2998-1.1952 4.1074-3.1595 5.1076-5.5505zm-5.153 5.4451c-.4343.2208-.8877.4017-1.3547.5403-2.2366-.7358-4.1439-2.2334-5.3892-4.2317-1.73149-2.9609-2.71248-6.3005-2.85743-9.7275-.07112-.85-.078-1.7035-.08948-2.55692 2.76451-1.36506 5.57381-2.64295 8.33841-4.01031 2.7955 1.3341 5.6059 2.63951 8.3865 4.00572.0811 3.59661-.5954 7.17001-1.9856 10.48811-.9892 2.3645-2.7755 4.3078-5.0485 5.4923z" fill="#fff" opacity=".3"/><g fill="#113288"><path d="m7.6543 9.84138c2.7645-1.36507 5.5738-2.64295 8.3384-4.01031 2.7955 1.33409 5.6059 2.63951 8.3865 4.00572.0812 3.59661-.5954 7.17001-1.9856 10.48811-.9892 2.3645-2.7755 4.3078-5.0485 5.4923-.4343.2208-.8877.4017-1.3547.5403-2.2366-.7358-4.1439-2.2334-5.3892-4.2317-1.73148-2.9609-2.71248-6.3005-2.85743-9.7275-.07112-.85-.078-1.7035-.08947-2.55692zm.53914.35562c-.00235 2.8542.44635 5.6908 1.3295 8.4049.60286 1.855 1.61466 3.5508 2.96066 4.9624.9969.9789 2.1919 1.733 3.5045 2.2116 2.3434-.8272 4.2804-2.5215 5.412-4.7341 1.6556-3.375 2.4803-7.0968 2.4055-10.8551-2.5821-1.26875-5.201-2.46289-7.7774-3.74304-2.6108 1.25262-5.2434 2.46167-7.83476 3.75334z"/><path d="m11.248 9.72899c1.2515-.67335 2.5684-1.22511 3.8348-1.87323.312.30283.6172.6137.9235.92228.3074-.30514.6137-.61142.9154-.92343 1.1735.58273 2.3894 1.0909 3.5365 1.71952l-3.6168.031c-.0172.21451-.1147.51387.1491.61947.1632.082.2934.2175.3687.3839.0754.1664.0914.3536.0454.5303-.242.7292-.5456 1.4364-.9074 2.1142-.4967-.9579-1.0129-1.91-1.4384-2.901-.3384-.2398-.6791-.4738-1.0198-.70896z"/><path d="m20.5697 9.82877c.2856.20993.577.41063.8706.60803-1.1436 2.2988-2.2751 4.6033-3.3943 6.9136-.0688 1.1334-.0011 2.285-.0126 3.4242-.0274.4339.0405.8686.1991 1.2735.1585.4048.4038.7701.7186 1.07-1.7264.0092-3.4517.0952-5.1769.0941-.3196-.1645-.6217-.3609-.9016-.5862.6446-.0998 1.2985-.0447 1.9478-.0826 1.0622-.008 2.1256-.0734 3.189-.0505-.4072-.4112-.6796-.9365-.7812-1.5061-.1136-.9452-.031-1.9019-.0689-2.8518-.0581-.522-.0208-1.0502.1102-1.5589 1.1092-2.2438 2.215-4.491 3.3002-6.74733z"/><path d="m21.111 9.86891c.6424.26799 1.2706.56859 1.8824.90049.0736 3.3724-.6553 6.714-2.1267 9.7493-.3105-.146-.631-.2698-.959-.3705-.4531.6481-.8822 1.318-1.3731 1.9375-.1957-1.1182-.2638-2.255-.203-3.3886.0413-.507-.1354-1.0622.133-1.5268 1.0497-2.1256 2.0717-4.265 3.1156-6.3929.062-.1502.1732-.3384.078-.4967-.1767-.1457-.3705-.2661-.5472-.41179z"/><path d="m13.9531 9.94806c.3001.17824.5817.38564.8409.61944.5804 1.1196 1.1195 2.261 1.7011 3.3805-.0883.1836-.179.3671-.2707.5484-.7651-1.5119-1.505-3.0364-2.2713-4.54834z"/><path d="m9.04105 10.7774c.17757-.1131.36356-.2124.55635-.2971.30779.2812.5647.6133.7594.9819.9727 1.7815 1.934 3.5699 2.9056 5.3513.0705.1604.0966.3366.0757.5105.0035 1.0703.0191 2.1409.047 3.2119.0395.4645-.0485.9309-.2546 1.349-.3889-.585-.8053-1.1517-1.1999-1.7333-.2753.101-.5472.2099-.8144.3304-1.44625-3.0263-2.15725-6.3515-2.07515-9.7046z"/><path d="m13.5415 23.4702c1.6656-.008 3.3324-.0149 4.9968-.0826-.7455.6384-1.6159 1.1143-2.5557 1.3972-.8813-.2991-1.7063-.7434-2.4411-1.3146z"/></g><path d="m17.0687 9.87695c1.1677.01377 2.3332-.04474 3.501-.04818-1.0852 2.25633-2.191 4.50353-3.3003 6.74733-.1309.5087-.1682 1.0369-.1101 1.5589.0378.9498-.0447 1.9065.0688 2.8517.1016.5697.3741 1.095.7812 1.5062-1.0634-.0229-2.1267.0424-3.189.0505-.6493.0378-1.3031-.0172-1.9478.0826l-.0505.0069c.2485-.2032.4574-.4506.616-.7296.1711-.4334.2451-.8989.2168-1.3639-.0091-1.1506-.0126-2.3015-.0103-3.4528.0041-.1457-.0368-.2891-.117-.4107-.975-1.7838-1.934-3.5767-2.9079-5.3605-.273-.5117-.65662-.9561-1.12302-1.3008 1.48552.0172 2.97102-.0367 4.45652-.06653.7663 1.51193 1.5062 3.03643 2.2713 4.54833.0918-.1813.1824-.3648.2707-.5483.4812-.9007.8823-1.8419 1.1988-2.8128.0347-.2483-.0063-.5013-.1179-.7259s-.2884-.41017-.5073-.53245z" fill="url(#c)"/><g opacity=".05"><path d="m17.1593 18.135c-.0581-.522-.0208-1.0503.1101-1.5589 1.1093-2.2438 2.2151-4.491 3.3003-6.74735-1.1678.00345-2.3333.06194-3.501.04818.2189.12229.3957.30787.5073.53247.1115.2246.1526.4776.1179.7259-.3165.9709-.7177 1.912-1.1988 2.8127-.0883.1836-.1789.3671-.2707.5483-.7651-1.5119-1.505-3.0364-2.2713-4.54828-1.4855.02982-2.971.08378-4.45652.06658.4664.3447.85002.7891 1.12302 1.3008.9739 1.7837 1.9329 3.5767 2.9079 5.3604.0802.1217.1211.2651.117.4107-.0011 1.1517.0023 2.3026.0103 3.4528.0283.465-.0457.9306-.2168 1.3639-.1586.2791-.3674.5264-.616.7296l.0505-.0069c.6447-.0998 1.2985-.0447 1.9478-.0826 1.0622-.008 2.1256-.0734 3.189-.0504-.4071-.4112-.6796-.9365-.7812-1.5062-.1135-.9452-.0309-1.9019-.0688-2.8517zm.3777 4.2383c-.4894 0-.9859.0143-1.4661.0281-.4104.0119-.8348.0241-1.2515.0273-.2462.0142-.4928.0153-.7313.0164-.3082.0014-.6245.0029-.9399.0318.1631-.1495.2968-.3281.3945-.5266.1784-.4479.2558-.9297.2269-1.411-.0082-1.0313-.0116-2.1604-.0104-3.4527.0054-.1653-.0405-.3282-.1314-.4664-.5015-.9175-1.0004-1.8369-1.4966-2.7584-.4691-.8679-.9394-1.735-1.4109-2.6014-.2234-.4328-.5312-.8165-.90527-1.1285.09108.0004.18213.0007.27317.0007.9144 0 1.8433-.0225 2.7417-.0442.3511-.0085.7023-.0165 1.0535-.0242.3788.7485.7571 1.5113 1.1232 2.2497.3636.7332.7395 1.4914 1.1155 2.2342l.1023.2022.1024-.2022c.092-.1818.183-.3661.2717-.5503.1386-.3382.3047-.6683.4654-.9876.3246-.583.574-1.2049.7421-1.8507.0425-.214.026-.4355-.0477-.6408-.0738-.2054-.2019-.3868-.3708-.52498h.0479c.5416 0 1.0913-.01283 1.6228-.02526.4355-.01014.8841-.02067 1.3285-.024-1.0882 2.26004-2.1897 4.49664-3.2201 6.58074-.1292.3607-.173.7465-.1279 1.1269.007.1658.0136.3223.006.4773.0143.3687.0112.7357.0082 1.0907-.0174.5941.0031 1.1888.0614 1.7803.0833.5084.3055.9839.642 1.374-.0732-.0007-.1463-.0011-.2193-.0011z" fill="url(#d)" opacity=".05"/><path d="m20.5697 9.82874c-1.0454.00311-2.0891.05029-3.1341.05029-.1223 0-.2446-.0007-.3669-.00208.2189.12228.3957.30785.5073.53245.1116.2245.1527.4776.1179.7259-.3165.9709-.7176 1.9121-1.1987 2.8128-.0884.1835-.179.367-.2708.5482-.7651-1.5118-1.505-3.0363-2.2713-4.54824-1.2881.02588-2.5764.06984-3.8645.06984-.1974 0-.39473-.0011-.59202-.0033.46641.3447.85002.7891 1.12302 1.3008.9739 1.7838 1.9329 3.5767 2.9079 5.3605.0802.1216.1211.265.117.4106-.0011 1.1518.0023 2.3027.0103 3.4529.0283.465-.0457.9305-.2168 1.3639-.1586.279-.3674.5264-.616.7296l.0505-.0069c.6447-.0998 1.2986-.0448 1.9478-.0826.9051-.0069 1.811-.0554 2.717-.0554.1574 0 .3147.0017.472.0049-.4071-.4112-.6796-.9365-.7812-1.5061-.1135-.9453-.031-1.902-.0688-2.8518-.0581-.522-.0208-1.0502.1101-1.5589 1.1093-2.2438 2.2151-4.491 3.3003-6.74736zm-.183.11572c-1.0881 2.26004-2.1897 4.49654-3.2201 6.58084-.1292.3606-.173.7464-.1279 1.1269.007.1657.0136.3222.006.4772.0143.3687.0112.7357.0083 1.0907-.0175.5941.003 1.1887.0613 1.7803.0833.5084.3055.9839.642 1.374-.0732-.0007-.1463-.001-.2193-.001-.4894 0-.9859.0142-1.4661.028-.4104.0119-.8348.0242-1.2515.0273-.2462.0142-.4928.0153-.7313.0164-.3082.0014-.6245.0029-.9399.0318.1631-.1495.2968-.3281.3945-.5266.1784-.4479.2558-.9296.2269-1.4109-.0082-1.0314-.0116-2.1605-.0103-3.4527.0053-.1653-.0406-.3283-.1314-.4665-.5016-.9174-1.0005-1.8369-1.4967-2.7584-.4691-.8678-.9394-1.735-1.4108-2.6013-.2235-.4329-.5313-.8165-.90535-1.1285.09108.0004.18213.0006.27315.0007.9144 0 1.8434-.0225 2.7417-.0443.3512-.0084.7023-.0165 1.0535-.0242.3789.7485.7571 1.5113 1.1232 2.2497.3636.7333.7396 1.4914 1.1155 2.2343l.1023.2022.1024-.2022c.0921-.1819.183-.3662.2717-.5504.1386-.3381.3047-.6682.4654-.9875.3246-.583.574-1.2049.7421-1.8507.0425-.214.026-.4355-.0477-.6409-.0737-.2053-.2019-.3868-.3708-.5249h.0479c.5416 0 1.0913-.01287 1.6228-.02526.4356-.01014.8842-.02069 1.3285-.02404z" fill="#fff" opacity=".05"/></g><path d="m16 0c-3.1645 0-6.25793.938384-8.88912 2.69649-2.63118 1.7581-4.68194 4.25696-5.89295 7.18057-1.2109975 2.92364-1.527851 6.14064-.910487 9.24434.617363 3.1037 2.141217 5.9547 4.378857 8.1923s5.08857 3.7615 8.1923 4.3789c3.1037.6173 6.3207.3005 9.2443-.9105 2.9237-1.211 5.4225-3.2618 7.1806-5.893s2.6965-5.7246 2.6965-8.8891c0-4.2435-1.6857-8.31313-4.6863-11.31371s-7.0702-4.68629-11.3137-4.68629zm0 31c-2.9667 0-5.8668-.8797-8.33355-2.528-2.46673-1.6482-4.38932-3.9909-5.52464-6.7317-1.13531-2.7409-1.43236-5.7569-.85358-8.6667.57878-2.9097 2.00739-5.58241 4.10518-7.6802 2.09778-2.09779 4.77049-3.5264 7.68029-4.10518 2.9097-.578778 5.9257-.28173 8.6666.85359 2.7409 1.13531 5.0835 3.0579 6.7318 5.52464 1.6482 2.46675 2.5279 5.36685 2.5279 8.33355-.0045 3.9769-1.5863 7.7896-4.3984 10.6016-2.812 2.8121-6.6247 4.3939-10.6016 4.3984z" fill="url(#e)"/><path d="m19.8646 22.0688c.0908 0 .1795-.0269.2549-.0773.0755-.0504.1343-.1221.169-.206.0348-.0838.0438-.1761.0261-.2651s-.0614-.1707-.1255-.2349c-.0642-.0642-.146-.1079-.235-.1256s-.1812-.0086-.2651.0261c-.0838.0348-.1555.0936-.2059.169-.0504.0755-.0773.1642-.0773.255 0 .1217.0483.2384.1344.3244.086.0861.2027.1344.3244.1344z" fill="#0ff"/><path d="m19.9165 21.7628c.1375 0 .249-.1115.249-.249s-.1115-.249-.249-.249-.249.1115-.249.249.1115.249.249.249z" fill="url(#g)"/><path d="m11.9989 22.0688c.0907 0 .1795-.0269.2549-.0773.0755-.0504.1343-.1221.169-.206.0347-.0838.0438-.1761.0261-.2651s-.0614-.1707-.1256-.2349c-.0641-.0642-.1459-.1079-.2349-.1256s-.1813-.0086-.2651.0261c-.0839.0348-.1555.0936-.2059.169-.0505.0755-.0774.1642-.0774.255 0 .1217.0484.2384.1344.3244.0861.0861.2028.1344.3245.1344z" fill="#0ff"/><path d="m12.0508 21.7628c.1375 0 .249-.1115.249-.249s-.1115-.249-.249-.249c-.1376 0-.249.1115-.249.249s.1114.249.249.249z" fill="url(#h)"/><path d="m16.017 8.11201c.0907 0 .1794-.02691.2549-.07733.0754-.05042.1342-.12209.169-.20593.0347-.08385.0438-.17611.0261-.26512-.0177-.089-.0614-.17076-.1256-.23493-.0642-.06418-.1459-.10788-.2349-.12558s-.1813-.00861-.2651.02612c-.0839.03473-.1556.09354-.206.169s-.0773.16417-.0773.25493c0 .12169.0484.2384.1344.32445.0861.08604.2028.13439.3245.13439z" fill="#0ff"/><path d="m16.0688 7.80598c.1375 0 .249-.11148.249-.249s-.1115-.249-.249-.249-.249.11148-.249.249.1115.249.249.249z" fill="url(#i)"/></g></svg>