<svg fill="none" height="32" viewBox="0 0 32 32" width="32" xmlns="http://www.w3.org/2000/svg" xmlns:xlink="http://www.w3.org/1999/xlink"><linearGradient id="a" gradientUnits="userSpaceOnUse" x1="7.99866" x2="24.0013" y1="2.14128" y2="29.8587"><stop offset="0" stop-color="#2d5a82"/><stop offset="1" stop-color="#529add"/></linearGradient><path d="m16 32c8.8366 0 16-7.1634 16-16 0-8.83656-7.1634-16-16-16-8.83656 0-16 7.16344-16 16 0 8.8366 7.16344 16 16 16z" fill="url(#a)"/><path d="m26.5599 11.8151c-.4918-.0001-.9753.1266-1.4038.368-.4286.2414-.7876.5892-1.0424 1.0099s-.3969.9-.4123 1.3915c-.0155.4916.0961.9789.3239 1.4148-.0348-.0028-.0699-.0042-.1054-.0042-.3499.0004-.6854.1395-.9329.387s-.3867.583-.3871.933c0 .0354.0014.0706.0042.1054-.4086-.2138-.863-.3254-1.3242-.3254-.4611 0-.9155.1116-1.3241.3254.0027-.0349.0041-.07.0041-.1054-.0003-.35-.1395-.6855-.387-.933s-.583-.3866-.933-.387c-.0354 0-.0705.0014-.1053.0042.2278-.4359.3394-.9233.3239-1.4149-.0154-.4916-.1574-.9709-.4123-1.3916-.2548-.4208-.6138-.7687-1.0423-1.0101-.4285-.2415-.9121-.3683-1.404-.3683-.4918 0-.9754.1268-1.4039.3683-.4285.2414-.7875.5893-1.0423 1.0101-.2549.4207-.3969.9-.4123 1.3916-.0155.4916.0961.979.3239 1.4149-.0348-.0028-.0699-.0042-.1054-.0042-.3499.0004-.6854.1395-.9329.387s-.3867.583-.3871.933c0 .0354.0014.0706.0042.1054-.4086-.2138-.863-.3254-1.3242-.3254-.4611 0-.91547.1116-1.32414.3254.00279-.0349.00419-.07.00419-.1054-.00038-.35-.13957-.6855-.38704-.933s-.58299-.3866-.93296-.387c-.03545 0-.07058.0014-.10538.0042.31669-.606.40588-1.3054.25143-1.9714-.15446-.6661-.54235-1.2548-1.09342-1.6595-.55107-.4048-1.22887-.5988-1.91064-.5469-.68176.0519-1.3224.3462-1.80587.8297s-.77781 1.1241-.82969 1.8059c-.05189.6817.14211 1.3595.54685 1.9106.40475.5511.99347.939 1.65953 1.0934.66606.1545 1.36541.0653 1.97138-.2514-.00279.0348-.00419.0699-.00419.1054.00038.3499.13957.6855.38704.9329.24746.2475.58299.3867.93296.3871.03545 0 .07057-.0014.10538-.0042-.22786.4359-.33944.9232-.32397 1.4148.01548.4916.15748.971.41229 1.3917s.61383.7686 1.04235 1.0101c.42853.2414.9121.3683 1.4039.3683.4919 0 .9755-.1269 1.404-.3683.4285-.2415.7875-.5894 1.0423-1.0101.2549-.4207.3969-.9001.4123-1.3917.0155-.4916-.0961-.9789-.3239-1.4148.0348.0028.0699.0042.1053.0042.35-.0004.6855-.1396.933-.3871.2475-.2474.3867-.583.387-.9329 0-.0355-.0013-.0706-.0041-.1054.4086.2137.863.3254 1.3241.3254.4612 0 .9156-.1117 1.3242-.3254-.0027.0348-.0041.0699-.0042.1054.0004.3499.1396.6855.3871.9329.2475.2475.583.3867.9329.3871.0355 0 .0706-.0014.1054-.0042-.2278.4359-.3394.9232-.3239 1.4148.0154.4916.1574.971.4123 1.3917.2548.4207.6138.7686 1.0423 1.0101.4285.2414.9121.3683 1.4039.3683.4919 0 .9755-.1269 1.404-.3683.4285-.2415.7875-.5894 1.0423-1.0101.2549-.4207.3969-.9001.4123-1.3917.0155-.4916-.0961-.9789-.3239-1.4148.0348.0028.0699.0042.1053.0042.35-.0004.6855-.1396.933-.3871.2475-.2474.3867-.583.387-.9329 0-.0355-.0013-.0706-.0041-.1054.3843.2008.8092.3115 1.2426.3239s.8639-.0739 1.2591-.2524c.3951-.1785.7445-.4445 1.0217-.7779.2772-.3335.4749-.7255.5783-1.1466.1033-.4211.1096-.8602.0183-1.284-.0913-.4239-.2778-.8214-.5454-1.1626-.2675-.3412-.6092-.6171-.9991-.8068s-.8178-.2882-1.2514-.2882z" fill="#fff"/></svg>