<svg fill="none" height="32" viewBox="0 0 32 32" width="32" xmlns="http://www.w3.org/2000/svg"><path d="m16.0001 3.38998c-6.96451 0-12.60996 5.64545-12.60996 12.61002 0 6.9645 5.64545 12.6168 12.60996 12.6168 6.9646 0 12.61-5.6454 12.61-12.61 0-6.96453-5.6454-12.61682-12.61-12.61682zm5.707 7.62752-1.2302 1.5651-5.5361 7.6207h6.7663v3.2328h-4.3674v2.6724h-.3212v.0136h-2.0367v-.0136h-.3213v-2.6724h-4.3673v-2.44l1.2302-1.5651 5.5361-7.6207h-6.7663v-3.23279h4.3673v-2.68603h2.6792v2.6792h4.3674z" fill="#f4b728"/><path d="m16 0c-8.82358 0-16 7.17642-16 16 0 8.8236 7.17642 16 16 16 8.8236 0 16-7.1764 16-16 0-8.82358-7.1764-16-16-16zm0 29.3618c-7.36779 0-13.36181-5.994-13.36181-13.3618 0-7.36779 5.99402-13.35498 13.36181-13.35498 7.3678 0 13.3618 5.99402 13.3618 13.36178 0 7.3678-5.994 13.355-13.3618 13.355zm1.3396-20.78427h4.3674v2.43997l-6.7664 9.1858h6.7664v3.2328h-4.3674v2.6724h-2.6792v-2.6724h-4.3674v-2.4399l6.7664-9.1859h-6.7664v-3.23277h4.3674v-2.68603h2.6792z" fill="#231f20"/></svg>