<svg xmlns="http://www.w3.org/2000/svg" width="32" height="32" fill="none"><path fill="#F4B728" d="M16 3.39C9.036 3.39 3.39 9.035 3.39 16S9.036 28.617 16 28.617c6.965 0 12.61-5.646 12.61-12.61C28.61 9.042 22.965 3.39 16 3.39Zm5.707 7.628-1.23 1.565-5.536 7.62h6.766v3.233H17.34v2.672h-.322v.014h-2.036v-.014h-.321v-2.672h-4.368v-2.44l1.23-1.565 5.537-7.62h-6.767V8.577h4.368V5.89h2.679v2.68h4.367v2.447Z"/><path fill="#231F20" d="M16 0C7.176 0 0 7.176 0 16s7.176 16 16 16 16-7.176 16-16S24.824 0 16 0Zm0 29.362C8.632 29.362 2.638 23.368 2.638 16S8.632 2.645 16 2.645s13.362 5.994 13.362 13.362S23.368 29.362 16 29.362Zm1.34-20.784h4.367v2.44l-6.766 9.185h6.766v3.233H17.34v2.672h-2.68v-2.672h-4.367v-2.44l6.766-9.186h-6.766V8.578h4.367V5.892h2.68v2.686Z"/></svg>