<svg fill="none" height="32" viewBox="0 0 32 32" width="32" xmlns="http://www.w3.org/2000/svg" xmlns:xlink="http://www.w3.org/1999/xlink"><linearGradient id="a"><stop offset=".1" stop-color="#08dc8a"/><stop offset=".26" stop-color="#07d397"/><stop offset=".54" stop-color="#04bcb8"/><stop offset=".89" stop-color="#009be7"/></linearGradient><radialGradient id="b" cx="0" cy="0" gradientTransform="matrix(20.1827 0 0 20.1713 25.7459 9.00749)" gradientUnits="userSpaceOnUse" r="1" xlink:href="#a"/><radialGradient id="c" cx="0" cy="0" gradientTransform="matrix(20.1827 0 0 20.1713 25.7459 9.00734)" gradientUnits="userSpaceOnUse" r="1" xlink:href="#a"/><path d="m16 32c8.8366 0 16-7.1634 16-16 0-8.83656-7.1634-16-16-16-8.83656 0-16 7.16344-16 16 0 8.8366 7.16344 16 16 16z" fill="#041742"/><path d="m18.9729 15.6661c1.0295-.002 2.056.1092 3.0611.3317.0005-.8259-.1689-1.6432-.4977-2.401-.3287-.7577-.8098-1.4399-1.4134-2.0041-.6036-.5641-1.3167-.9983-2.0952-1.2755-.7785-.2771-1.6057-.39143-2.4302-.33573-.8246.05573-1.6288.28023-2.3629.65953-.7341.3794-1.3823.9055-1.9045 1.5457-.5221.6402-.907 1.3809-1.1307 2.176-.22377.7951-.28159 1.6276-.1699 2.446-.8294.6168-1.58984 1.3212-2.26813 2.101-.3263-.93-.49458-1.908-.49789-2.8935-.00072-1.1449.22439-2.2788.66246-3.3368.43807-1.0579 1.08051-2.0192 1.89058-2.82881.81008-.80962 1.77188-1.4517 2.83048-1.88952 1.0585-.43783 2.193-.66281 3.3386-.66208 1.3658-.00602 2.7129.31635 3.9278.93991l3.0426-1.97197c-2.0142-1.481-4.4514-2.27571-6.9519-2.26686-2.2206-.0006-4.3979.61459-6.28946 1.77712-1.8916 1.16253-3.42336 2.82681-4.42486 4.80761-1.00149 1.9809-1.43343 4.2006-1.24775 6.4122s.98168 4.3283 2.29945 6.1147c.56336-1.0207 1.25086-1.9678 2.04685-2.8198 0 0 1.18016-1.2348 2.08377-1.8614 2.4663-1.8036 5.4448-2.7722 8.5008-2.7644z" fill="#fff"/><path d="m25.7404 9.02039-1.9583 3.03901c.8305 1.6399 1.1216 3.5001.8318 5.3151-.2899 1.8151-1.1458 3.4922-2.4458 4.7923s-2.9776 2.1566-4.7935 2.4474c-1.8159.2909-3.6772.0011-5.3186-.8279l-3.03891 1.9609c2.30951 1.6595 5.13421 2.444 7.96931 2.2133 2.835-.2306 5.4956-1.4614 7.5062-3.4724 2.0105-2.011 3.24-4.671 3.4686-7.5046.2286-2.8337-.5586-5.6562-2.2208-7.96311z" fill="url(#b)"/><path d="m15.9929 22.0021c1.4063.0002 2.7683-.4913 3.8501-1.3894 1.0817-.898 1.815-2.146 2.0729-3.5276-1.8784-.4058-3.821-.4144-5.7029-.0252-1.8819.3891-3.6616 1.1673-5.2247 2.2847.5517.8196 1.2969 1.4908 2.1698 1.9543.8728.4635 1.8464.705 2.8348.7032z" fill="url(#c)"/></svg>