<svg xmlns="http://www.w3.org/2000/svg" width="32" height="32" fill="none"><defs><radialGradient id="zen__a" cx="0" cy="0" r="1" gradientTransform="matrix(20.1827 0 0 20.1713 25.746 9.007)" gradientUnits="userSpaceOnUse"><stop offset=".1" stop-color="#08DC8A"/><stop offset=".26" stop-color="#07D397"/><stop offset=".54" stop-color="#04BCB8"/><stop offset=".89" stop-color="#009BE7"/></radialGradient><radialGradient id="zen__b" cx="0" cy="0" r="1" gradientTransform="matrix(20.1827 0 0 20.1713 25.746 9.007)" gradientUnits="userSpaceOnUse"><stop offset=".1" stop-color="#08DC8A"/><stop offset=".26" stop-color="#07D397"/><stop offset=".54" stop-color="#04BCB8"/><stop offset=".89" stop-color="#009BE7"/></radialGradient></defs><path fill="#041742" d="M16 32c8.837 0 16-7.163 16-16S24.837 0 16 0 0 7.163 0 16s7.163 16 16 16Z"/><path fill="#fff" d="M18.973 15.666c1.03-.002 2.056.11 3.061.332a6.023 6.023 0 0 0-4.006-5.68 6.034 6.034 0 0 0-6.698 1.869 6.025 6.025 0 0 0-1.3 4.622c-.83.616-1.59 1.32-2.269 2.1A8.708 8.708 0 0 1 12.647 7.96a8.72 8.72 0 0 1 3.339-.661 8.52 8.52 0 0 1 3.927.94l3.043-1.972A11.666 11.666 0 0 0 16.004 4 12.006 12.006 0 0 0 5.29 10.585a11.989 11.989 0 0 0 1.05 12.527 14.137 14.137 0 0 1 2.047-2.82s1.18-1.235 2.084-1.862a14.34 14.34 0 0 1 8.5-2.764Z"/><path fill="url(#zen__a)" d="m25.74 9.02-1.958 3.04a8.72 8.72 0 0 1-1.614 10.107 8.731 8.731 0 0 1-10.112 1.62l-3.039 1.96a11.99 11.99 0 0 0 15.476-1.259A11.977 11.977 0 0 0 25.74 9.02Z"/><path fill="url(#zen__b)" d="M15.993 22.002a6.026 6.026 0 0 0 5.923-4.917 13.786 13.786 0 0 0-10.928 2.26 6.017 6.017 0 0 0 5.005 2.657Z"/></svg>