<svg xmlns="http://www.w3.org/2000/svg" width="32" height="32" fill="none"><path fill="#000" d="M16 32c8.837 0 16-7.163 16-16S24.837 0 16 0 0 7.163 0 16s7.163 16 16 16Z"/><path fill="#29CCC4" d="m20.762 15.502-8.884 4.339 8.884 4.263v3.417l-12.94-6.184v-3.341l9.035-4.48L7.82 9.243V5.836l12.941 6.184v3.482Z"/><path fill="#036F7D" d="m7.821 5.836 3.417-1.356 13.007 6.118-3.483 1.421-12.94-6.183Z"/><path fill="#299197" d="m20.762 15.501 3.483-1.421v-3.482l-3.483 1.42v3.483Zm0 8.602v-6.824l3.483-1.562v10.381l-3.483 1.421v-3.416Z"/></svg>