<svg fill="none" height="32" viewBox="0 0 32 32" width="32" xmlns="http://www.w3.org/2000/svg"><path d="m16 32c8.8366 0 16-7.1634 16-16 0-8.83656-7.1634-16-16-16-8.83656 0-16 7.16344-16 16 0 8.8366 7.16344 16 16 16z" fill="#000"/><path d="m20.7623 15.5018-8.8847 4.3388 8.8847 4.2636v3.4164l-12.94113-6.1835v-3.3412l9.03533-4.48-9.03533-4.2729v-3.40706l12.94113 6.18356z" fill="#29ccc4"/><path d="m7.82117 5.83576 3.41643-1.35529 13.0071 6.11763-3.4824 1.4212z" fill="#036f7d"/><g fill="#299197"><path d="m20.7623 15.5012 3.4824-1.4212v-3.4823l-3.4824 1.4211z"/><path d="m20.7623 24.1027v-6.8236l3.4824-1.5623v10.3812l-3.4824 1.4211z"/></g></svg>